<?xml version="1.0" encoding="utf-8" standalone="no"?>
<!DOCTYPE svg PUBLIC "-//W3C//DTD SVG 1.1//EN"
  "http://www.w3.org/Graphics/SVG/1.1/DTD/svg11.dtd">
<svg xmlns:xlink="http://www.w3.org/1999/xlink" width="460.8pt" height="345.6pt" viewBox="0 0 460.8 345.6" xmlns="http://www.w3.org/2000/svg" version="1.1">
 <metadata>
  <rdf:RDF xmlns:dc="http://purl.org/dc/elements/1.1/" xmlns:cc="http://creativecommons.org/ns#" xmlns:rdf="http://www.w3.org/1999/02/22-rdf-syntax-ns#">
   <cc:Work>
    <dc:type rdf:resource="http://purl.org/dc/dcmitype/StillImage"/>
    <dc:date>2024-09-04T10:49:05.988333</dc:date>
    <dc:format>image/svg+xml</dc:format>
    <dc:creator>
     <cc:Agent>
      <dc:title>Matplotlib v3.9.1, https://matplotlib.org/</dc:title>
     </cc:Agent>
    </dc:creator>
   </cc:Work>
  </rdf:RDF>
 </metadata>
 <defs>
  <style type="text/css">*{stroke-linejoin: round; stroke-linecap: butt}</style>
 </defs>
 <g id="figure_1">
  <g id="patch_1">
   <path d="M 0 345.6 
L 460.8 345.6 
L 460.8 0 
L 0 0 
z
" style="fill: #ffffff"/>
  </g>
  <g id="axes_1">
   <g id="patch_2">
    <path d="M 57.6 307.584 
L 414.72 307.584 
L 414.72 41.472 
L 57.6 41.472 
z
" style="fill: #ffffff"/>
   </g>
   <g id="matplotlib.axis_1">
    <g id="xtick_1">
     <g id="line2d_1">
      <defs>
       <path id="mb162698bc1" d="M 0 0 
L 0 3.5 
" style="stroke: #000000; stroke-width: 0.8"/>
      </defs>
      <g>
       <use xlink:href="#mb162698bc1" x="73.832727" y="307.584" style="stroke: #000000; stroke-width: 0.8"/>
      </g>
     </g>
     <g id="text_1">
      <!-- 1 -->
      <g transform="translate(70.651477 322.182437) scale(0.1 -0.1)">
       <defs>
        <path id="DejaVuSans-31" d="M 794 531 
L 1825 531 
L 1825 4091 
L 703 3866 
L 703 4441 
L 1819 4666 
L 2450 4666 
L 2450 531 
L 3481 531 
L 3481 0 
L 794 0 
L 794 531 
z
" transform="scale(0.015625)"/>
       </defs>
       <use xlink:href="#DejaVuSans-31"/>
      </g>
     </g>
    </g>
    <g id="xtick_2">
     <g id="line2d_2">
      <g>
       <use xlink:href="#mb162698bc1" x="109.262733" y="307.584" style="stroke: #000000; stroke-width: 0.8"/>
      </g>
     </g>
     <g id="text_2">
      <!-- 50 -->
      <g transform="translate(102.900233 322.182437) scale(0.1 -0.1)">
       <defs>
        <path id="DejaVuSans-35" d="M 691 4666 
L 3169 4666 
L 3169 4134 
L 1269 4134 
L 1269 2991 
Q 1406 3038 1543 3061 
Q 1681 3084 1819 3084 
Q 2600 3084 3056 2656 
Q 3513 2228 3513 1497 
Q 3513 744 3044 326 
Q 2575 -91 1722 -91 
Q 1428 -91 1123 -41 
Q 819 9 494 109 
L 494 744 
Q 775 591 1075 516 
Q 1375 441 1709 441 
Q 2250 441 2565 725 
Q 2881 1009 2881 1497 
Q 2881 1984 2565 2268 
Q 2250 2553 1709 2553 
Q 1456 2553 1204 2497 
Q 953 2441 691 2322 
L 691 4666 
z
" transform="scale(0.015625)"/>
        <path id="DejaVuSans-30" d="M 2034 4250 
Q 1547 4250 1301 3770 
Q 1056 3291 1056 2328 
Q 1056 1369 1301 889 
Q 1547 409 2034 409 
Q 2525 409 2770 889 
Q 3016 1369 3016 2328 
Q 3016 3291 2770 3770 
Q 2525 4250 2034 4250 
z
M 2034 4750 
Q 2819 4750 3233 4129 
Q 3647 3509 3647 2328 
Q 3647 1150 3233 529 
Q 2819 -91 2034 -91 
Q 1250 -91 836 529 
Q 422 1150 422 2328 
Q 422 3509 836 4129 
Q 1250 4750 2034 4750 
z
" transform="scale(0.015625)"/>
       </defs>
       <use xlink:href="#DejaVuSans-35"/>
       <use xlink:href="#DejaVuSans-30" x="63.623047"/>
      </g>
     </g>
    </g>
    <g id="xtick_3">
     <g id="line2d_3">
      <g>
       <use xlink:href="#mb162698bc1" x="145.415801" y="307.584" style="stroke: #000000; stroke-width: 0.8"/>
      </g>
     </g>
     <g id="text_3">
      <!-- 100 -->
      <g transform="translate(135.872051 322.182437) scale(0.1 -0.1)">
       <use xlink:href="#DejaVuSans-31"/>
       <use xlink:href="#DejaVuSans-30" x="63.623047"/>
       <use xlink:href="#DejaVuSans-30" x="127.246094"/>
      </g>
     </g>
    </g>
    <g id="xtick_4">
     <g id="line2d_4">
      <g>
       <use xlink:href="#mb162698bc1" x="181.568868" y="307.584" style="stroke: #000000; stroke-width: 0.8"/>
      </g>
     </g>
     <g id="text_4">
      <!-- 150 -->
      <g transform="translate(172.025118 322.182437) scale(0.1 -0.1)">
       <use xlink:href="#DejaVuSans-31"/>
       <use xlink:href="#DejaVuSans-35" x="63.623047"/>
       <use xlink:href="#DejaVuSans-30" x="127.246094"/>
      </g>
     </g>
    </g>
    <g id="xtick_5">
     <g id="line2d_5">
      <g>
       <use xlink:href="#mb162698bc1" x="217.721936" y="307.584" style="stroke: #000000; stroke-width: 0.8"/>
      </g>
     </g>
     <g id="text_5">
      <!-- 200 -->
      <g transform="translate(208.178186 322.182437) scale(0.1 -0.1)">
       <defs>
        <path id="DejaVuSans-32" d="M 1228 531 
L 3431 531 
L 3431 0 
L 469 0 
L 469 531 
Q 828 903 1448 1529 
Q 2069 2156 2228 2338 
Q 2531 2678 2651 2914 
Q 2772 3150 2772 3378 
Q 2772 3750 2511 3984 
Q 2250 4219 1831 4219 
Q 1534 4219 1204 4116 
Q 875 4013 500 3803 
L 500 4441 
Q 881 4594 1212 4672 
Q 1544 4750 1819 4750 
Q 2544 4750 2975 4387 
Q 3406 4025 3406 3419 
Q 3406 3131 3298 2873 
Q 3191 2616 2906 2266 
Q 2828 2175 2409 1742 
Q 1991 1309 1228 531 
z
" transform="scale(0.015625)"/>
       </defs>
       <use xlink:href="#DejaVuSans-32"/>
       <use xlink:href="#DejaVuSans-30" x="63.623047"/>
       <use xlink:href="#DejaVuSans-30" x="127.246094"/>
      </g>
     </g>
    </g>
    <g id="xtick_6">
     <g id="line2d_6">
      <g>
       <use xlink:href="#mb162698bc1" x="253.875003" y="307.584" style="stroke: #000000; stroke-width: 0.8"/>
      </g>
     </g>
     <g id="text_6">
      <!-- 250 -->
      <g transform="translate(244.331253 322.182437) scale(0.1 -0.1)">
       <use xlink:href="#DejaVuSans-32"/>
       <use xlink:href="#DejaVuSans-35" x="63.623047"/>
       <use xlink:href="#DejaVuSans-30" x="127.246094"/>
      </g>
     </g>
    </g>
    <g id="xtick_7">
     <g id="line2d_7">
      <g>
       <use xlink:href="#mb162698bc1" x="290.02807" y="307.584" style="stroke: #000000; stroke-width: 0.8"/>
      </g>
     </g>
     <g id="text_7">
      <!-- 300 -->
      <g transform="translate(280.48432 322.182437) scale(0.1 -0.1)">
       <defs>
        <path id="DejaVuSans-33" d="M 2597 2516 
Q 3050 2419 3304 2112 
Q 3559 1806 3559 1356 
Q 3559 666 3084 287 
Q 2609 -91 1734 -91 
Q 1441 -91 1130 -33 
Q 819 25 488 141 
L 488 750 
Q 750 597 1062 519 
Q 1375 441 1716 441 
Q 2309 441 2620 675 
Q 2931 909 2931 1356 
Q 2931 1769 2642 2001 
Q 2353 2234 1838 2234 
L 1294 2234 
L 1294 2753 
L 1863 2753 
Q 2328 2753 2575 2939 
Q 2822 3125 2822 3475 
Q 2822 3834 2567 4026 
Q 2313 4219 1838 4219 
Q 1578 4219 1281 4162 
Q 984 4106 628 3988 
L 628 4550 
Q 988 4650 1302 4700 
Q 1616 4750 1894 4750 
Q 2613 4750 3031 4423 
Q 3450 4097 3450 3541 
Q 3450 3153 3228 2886 
Q 3006 2619 2597 2516 
z
" transform="scale(0.015625)"/>
       </defs>
       <use xlink:href="#DejaVuSans-33"/>
       <use xlink:href="#DejaVuSans-30" x="63.623047"/>
       <use xlink:href="#DejaVuSans-30" x="127.246094"/>
      </g>
     </g>
    </g>
    <g id="xtick_8">
     <g id="line2d_8">
      <g>
       <use xlink:href="#mb162698bc1" x="326.181138" y="307.584" style="stroke: #000000; stroke-width: 0.8"/>
      </g>
     </g>
     <g id="text_8">
      <!-- 350 -->
      <g transform="translate(316.637388 322.182437) scale(0.1 -0.1)">
       <use xlink:href="#DejaVuSans-33"/>
       <use xlink:href="#DejaVuSans-35" x="63.623047"/>
       <use xlink:href="#DejaVuSans-30" x="127.246094"/>
      </g>
     </g>
    </g>
    <g id="xtick_9">
     <g id="line2d_9">
      <g>
       <use xlink:href="#mb162698bc1" x="362.334205" y="307.584" style="stroke: #000000; stroke-width: 0.8"/>
      </g>
     </g>
     <g id="text_9">
      <!-- 400 -->
      <g transform="translate(352.790455 322.182437) scale(0.1 -0.1)">
       <defs>
        <path id="DejaVuSans-34" d="M 2419 4116 
L 825 1625 
L 2419 1625 
L 2419 4116 
z
M 2253 4666 
L 3047 4666 
L 3047 1625 
L 3713 1625 
L 3713 1100 
L 3047 1100 
L 3047 0 
L 2419 0 
L 2419 1100 
L 313 1100 
L 313 1709 
L 2253 4666 
z
" transform="scale(0.015625)"/>
       </defs>
       <use xlink:href="#DejaVuSans-34"/>
       <use xlink:href="#DejaVuSans-30" x="63.623047"/>
       <use xlink:href="#DejaVuSans-30" x="127.246094"/>
      </g>
     </g>
    </g>
    <g id="xtick_10">
     <g id="line2d_10">
      <g>
       <use xlink:href="#mb162698bc1" x="398.487273" y="307.584" style="stroke: #000000; stroke-width: 0.8"/>
      </g>
     </g>
     <g id="text_10">
      <!-- 450 -->
      <g transform="translate(388.943523 322.182437) scale(0.1 -0.1)">
       <use xlink:href="#DejaVuSans-34"/>
       <use xlink:href="#DejaVuSans-35" x="63.623047"/>
       <use xlink:href="#DejaVuSans-30" x="127.246094"/>
      </g>
     </g>
    </g>
    <g id="text_11">
     <!-- Epochs -->
     <g transform="translate(218.244375 335.860562) scale(0.1 -0.1)">
      <defs>
       <path id="DejaVuSans-45" d="M 628 4666 
L 3578 4666 
L 3578 4134 
L 1259 4134 
L 1259 2753 
L 3481 2753 
L 3481 2222 
L 1259 2222 
L 1259 531 
L 3634 531 
L 3634 0 
L 628 0 
L 628 4666 
z
" transform="scale(0.015625)"/>
       <path id="DejaVuSans-70" d="M 1159 525 
L 1159 -1331 
L 581 -1331 
L 581 3500 
L 1159 3500 
L 1159 2969 
Q 1341 3281 1617 3432 
Q 1894 3584 2278 3584 
Q 2916 3584 3314 3078 
Q 3713 2572 3713 1747 
Q 3713 922 3314 415 
Q 2916 -91 2278 -91 
Q 1894 -91 1617 61 
Q 1341 213 1159 525 
z
M 3116 1747 
Q 3116 2381 2855 2742 
Q 2594 3103 2138 3103 
Q 1681 3103 1420 2742 
Q 1159 2381 1159 1747 
Q 1159 1113 1420 752 
Q 1681 391 2138 391 
Q 2594 391 2855 752 
Q 3116 1113 3116 1747 
z
" transform="scale(0.015625)"/>
       <path id="DejaVuSans-6f" d="M 1959 3097 
Q 1497 3097 1228 2736 
Q 959 2375 959 1747 
Q 959 1119 1226 758 
Q 1494 397 1959 397 
Q 2419 397 2687 759 
Q 2956 1122 2956 1747 
Q 2956 2369 2687 2733 
Q 2419 3097 1959 3097 
z
M 1959 3584 
Q 2709 3584 3137 3096 
Q 3566 2609 3566 1747 
Q 3566 888 3137 398 
Q 2709 -91 1959 -91 
Q 1206 -91 779 398 
Q 353 888 353 1747 
Q 353 2609 779 3096 
Q 1206 3584 1959 3584 
z
" transform="scale(0.015625)"/>
       <path id="DejaVuSans-63" d="M 3122 3366 
L 3122 2828 
Q 2878 2963 2633 3030 
Q 2388 3097 2138 3097 
Q 1578 3097 1268 2742 
Q 959 2388 959 1747 
Q 959 1106 1268 751 
Q 1578 397 2138 397 
Q 2388 397 2633 464 
Q 2878 531 3122 666 
L 3122 134 
Q 2881 22 2623 -34 
Q 2366 -91 2075 -91 
Q 1284 -91 818 406 
Q 353 903 353 1747 
Q 353 2603 823 3093 
Q 1294 3584 2113 3584 
Q 2378 3584 2631 3529 
Q 2884 3475 3122 3366 
z
" transform="scale(0.015625)"/>
       <path id="DejaVuSans-68" d="M 3513 2113 
L 3513 0 
L 2938 0 
L 2938 2094 
Q 2938 2591 2744 2837 
Q 2550 3084 2163 3084 
Q 1697 3084 1428 2787 
Q 1159 2491 1159 1978 
L 1159 0 
L 581 0 
L 581 4863 
L 1159 4863 
L 1159 2956 
Q 1366 3272 1645 3428 
Q 1925 3584 2291 3584 
Q 2894 3584 3203 3211 
Q 3513 2838 3513 2113 
z
" transform="scale(0.015625)"/>
       <path id="DejaVuSans-73" d="M 2834 3397 
L 2834 2853 
Q 2591 2978 2328 3040 
Q 2066 3103 1784 3103 
Q 1356 3103 1142 2972 
Q 928 2841 928 2578 
Q 928 2378 1081 2264 
Q 1234 2150 1697 2047 
L 1894 2003 
Q 2506 1872 2764 1633 
Q 3022 1394 3022 966 
Q 3022 478 2636 193 
Q 2250 -91 1575 -91 
Q 1294 -91 989 -36 
Q 684 19 347 128 
L 347 722 
Q 666 556 975 473 
Q 1284 391 1588 391 
Q 1994 391 2212 530 
Q 2431 669 2431 922 
Q 2431 1156 2273 1281 
Q 2116 1406 1581 1522 
L 1381 1569 
Q 847 1681 609 1914 
Q 372 2147 372 2553 
Q 372 3047 722 3315 
Q 1072 3584 1716 3584 
Q 2034 3584 2315 3537 
Q 2597 3491 2834 3397 
z
" transform="scale(0.015625)"/>
      </defs>
      <use xlink:href="#DejaVuSans-45"/>
      <use xlink:href="#DejaVuSans-70" x="63.183594"/>
      <use xlink:href="#DejaVuSans-6f" x="126.660156"/>
      <use xlink:href="#DejaVuSans-63" x="187.841797"/>
      <use xlink:href="#DejaVuSans-68" x="242.822266"/>
      <use xlink:href="#DejaVuSans-73" x="306.201172"/>
     </g>
    </g>
   </g>
   <g id="matplotlib.axis_2">
    <g id="ytick_1">
     <g id="line2d_11">
      <defs>
       <path id="m9eeb3f62c6" d="M 0 0 
L -3.5 0 
" style="stroke: #000000; stroke-width: 0.8"/>
      </defs>
      <g>
       <use xlink:href="#m9eeb3f62c6" x="57.6" y="256.350856" style="stroke: #000000; stroke-width: 0.8"/>
      </g>
     </g>
     <g id="text_12">
      <!-- 20 -->
      <g transform="translate(37.875 260.150075) scale(0.1 -0.1)">
       <use xlink:href="#DejaVuSans-32"/>
       <use xlink:href="#DejaVuSans-30" x="63.623047"/>
      </g>
     </g>
    </g>
    <g id="ytick_2">
     <g id="line2d_12">
      <g>
       <use xlink:href="#m9eeb3f62c6" x="57.6" y="197.55106" style="stroke: #000000; stroke-width: 0.8"/>
      </g>
     </g>
     <g id="text_13">
      <!-- 40 -->
      <g transform="translate(37.875 201.350279) scale(0.1 -0.1)">
       <use xlink:href="#DejaVuSans-34"/>
       <use xlink:href="#DejaVuSans-30" x="63.623047"/>
      </g>
     </g>
    </g>
    <g id="ytick_3">
     <g id="line2d_13">
      <g>
       <use xlink:href="#m9eeb3f62c6" x="57.6" y="138.751264" style="stroke: #000000; stroke-width: 0.8"/>
      </g>
     </g>
     <g id="text_14">
      <!-- 60 -->
      <g transform="translate(37.875 142.550483) scale(0.1 -0.1)">
       <defs>
        <path id="DejaVuSans-36" d="M 2113 2584 
Q 1688 2584 1439 2293 
Q 1191 2003 1191 1497 
Q 1191 994 1439 701 
Q 1688 409 2113 409 
Q 2538 409 2786 701 
Q 3034 994 3034 1497 
Q 3034 2003 2786 2293 
Q 2538 2584 2113 2584 
z
M 3366 4563 
L 3366 3988 
Q 3128 4100 2886 4159 
Q 2644 4219 2406 4219 
Q 1781 4219 1451 3797 
Q 1122 3375 1075 2522 
Q 1259 2794 1537 2939 
Q 1816 3084 2150 3084 
Q 2853 3084 3261 2657 
Q 3669 2231 3669 1497 
Q 3669 778 3244 343 
Q 2819 -91 2113 -91 
Q 1303 -91 875 529 
Q 447 1150 447 2328 
Q 447 3434 972 4092 
Q 1497 4750 2381 4750 
Q 2619 4750 2861 4703 
Q 3103 4656 3366 4563 
z
" transform="scale(0.015625)"/>
       </defs>
       <use xlink:href="#DejaVuSans-36"/>
       <use xlink:href="#DejaVuSans-30" x="63.623047"/>
      </g>
     </g>
    </g>
    <g id="ytick_4">
     <g id="line2d_14">
      <g>
       <use xlink:href="#m9eeb3f62c6" x="57.6" y="79.951468" style="stroke: #000000; stroke-width: 0.8"/>
      </g>
     </g>
     <g id="text_15">
      <!-- 80 -->
      <g transform="translate(37.875 83.750687) scale(0.1 -0.1)">
       <defs>
        <path id="DejaVuSans-38" d="M 2034 2216 
Q 1584 2216 1326 1975 
Q 1069 1734 1069 1313 
Q 1069 891 1326 650 
Q 1584 409 2034 409 
Q 2484 409 2743 651 
Q 3003 894 3003 1313 
Q 3003 1734 2745 1975 
Q 2488 2216 2034 2216 
z
M 1403 2484 
Q 997 2584 770 2862 
Q 544 3141 544 3541 
Q 544 4100 942 4425 
Q 1341 4750 2034 4750 
Q 2731 4750 3128 4425 
Q 3525 4100 3525 3541 
Q 3525 3141 3298 2862 
Q 3072 2584 2669 2484 
Q 3125 2378 3379 2068 
Q 3634 1759 3634 1313 
Q 3634 634 3220 271 
Q 2806 -91 2034 -91 
Q 1263 -91 848 271 
Q 434 634 434 1313 
Q 434 1759 690 2068 
Q 947 2378 1403 2484 
z
M 1172 3481 
Q 1172 3119 1398 2916 
Q 1625 2713 2034 2713 
Q 2441 2713 2670 2916 
Q 2900 3119 2900 3481 
Q 2900 3844 2670 4047 
Q 2441 4250 2034 4250 
Q 1625 4250 1398 4047 
Q 1172 3844 1172 3481 
z
" transform="scale(0.015625)"/>
       </defs>
       <use xlink:href="#DejaVuSans-38"/>
       <use xlink:href="#DejaVuSans-30" x="63.623047"/>
      </g>
     </g>
    </g>
    <g id="text_16">
     <!-- Accuracy -->
     <g transform="translate(31.795312 197.356125) rotate(-90) scale(0.1 -0.1)">
      <defs>
       <path id="DejaVuSans-41" d="M 2188 4044 
L 1331 1722 
L 3047 1722 
L 2188 4044 
z
M 1831 4666 
L 2547 4666 
L 4325 0 
L 3669 0 
L 3244 1197 
L 1141 1197 
L 716 0 
L 50 0 
L 1831 4666 
z
" transform="scale(0.015625)"/>
       <path id="DejaVuSans-75" d="M 544 1381 
L 544 3500 
L 1119 3500 
L 1119 1403 
Q 1119 906 1312 657 
Q 1506 409 1894 409 
Q 2359 409 2629 706 
Q 2900 1003 2900 1516 
L 2900 3500 
L 3475 3500 
L 3475 0 
L 2900 0 
L 2900 538 
Q 2691 219 2414 64 
Q 2138 -91 1772 -91 
Q 1169 -91 856 284 
Q 544 659 544 1381 
z
M 1991 3584 
L 1991 3584 
z
" transform="scale(0.015625)"/>
       <path id="DejaVuSans-72" d="M 2631 2963 
Q 2534 3019 2420 3045 
Q 2306 3072 2169 3072 
Q 1681 3072 1420 2755 
Q 1159 2438 1159 1844 
L 1159 0 
L 581 0 
L 581 3500 
L 1159 3500 
L 1159 2956 
Q 1341 3275 1631 3429 
Q 1922 3584 2338 3584 
Q 2397 3584 2469 3576 
Q 2541 3569 2628 3553 
L 2631 2963 
z
" transform="scale(0.015625)"/>
       <path id="DejaVuSans-61" d="M 2194 1759 
Q 1497 1759 1228 1600 
Q 959 1441 959 1056 
Q 959 750 1161 570 
Q 1363 391 1709 391 
Q 2188 391 2477 730 
Q 2766 1069 2766 1631 
L 2766 1759 
L 2194 1759 
z
M 3341 1997 
L 3341 0 
L 2766 0 
L 2766 531 
Q 2569 213 2275 61 
Q 1981 -91 1556 -91 
Q 1019 -91 701 211 
Q 384 513 384 1019 
Q 384 1609 779 1909 
Q 1175 2209 1959 2209 
L 2766 2209 
L 2766 2266 
Q 2766 2663 2505 2880 
Q 2244 3097 1772 3097 
Q 1472 3097 1187 3025 
Q 903 2953 641 2809 
L 641 3341 
Q 956 3463 1253 3523 
Q 1550 3584 1831 3584 
Q 2591 3584 2966 3190 
Q 3341 2797 3341 1997 
z
" transform="scale(0.015625)"/>
       <path id="DejaVuSans-79" d="M 2059 -325 
Q 1816 -950 1584 -1140 
Q 1353 -1331 966 -1331 
L 506 -1331 
L 506 -850 
L 844 -850 
Q 1081 -850 1212 -737 
Q 1344 -625 1503 -206 
L 1606 56 
L 191 3500 
L 800 3500 
L 1894 763 
L 2988 3500 
L 3597 3500 
L 2059 -325 
z
" transform="scale(0.015625)"/>
      </defs>
      <use xlink:href="#DejaVuSans-41"/>
      <use xlink:href="#DejaVuSans-63" x="66.658203"/>
      <use xlink:href="#DejaVuSans-63" x="121.638672"/>
      <use xlink:href="#DejaVuSans-75" x="176.619141"/>
      <use xlink:href="#DejaVuSans-72" x="239.998047"/>
      <use xlink:href="#DejaVuSans-61" x="281.111328"/>
      <use xlink:href="#DejaVuSans-63" x="342.390625"/>
      <use xlink:href="#DejaVuSans-79" x="397.371094"/>
     </g>
    </g>
   </g>
   <g id="line2d_15">
    <path d="M 73.832727 295.488 
L 75.27885 252.622949 
L 76.001911 229.773348 
L 76.724973 210.445855 
L 77.448034 196.292744 
L 78.894157 174.871979 
L 79.617218 166.928126 
L 81.063341 155.168167 
L 81.786402 150.617063 
L 82.509463 138.163266 
L 83.232525 134.570599 
L 83.955586 128.54362 
L 84.678647 126.315107 
L 86.12477 119.92357 
L 89.017016 109.663005 
L 89.740077 108.798648 
L 91.1862 104.224024 
L 91.909261 103.048028 
L 92.632322 102.49531 
L 93.355384 100.513757 
L 94.078445 101.919072 
L 94.801506 100.725436 
L 95.524568 124.486434 
L 96.247629 125.215551 
L 96.97069 123.151678 
L 97.693752 122.357881 
L 98.416813 120.441008 
L 99.139874 119.576651 
L 100.585997 114.678628 
L 101.309059 112.320756 
L 102.03212 111.438759 
L 102.755181 111.021281 
L 103.478243 108.26357 
L 104.201304 108.675169 
L 104.924365 106.187937 
L 105.647427 106.193817 
L 106.370488 104.100545 
L 107.093549 102.906909 
L 107.816611 101.225235 
L 108.539672 100.213878 
L 109.262733 101.266394 
L 109.985795 98.690963 
L 111.431917 97.356208 
L 112.87804 94.657297 
L 113.601101 94.051659 
L 114.324163 93.88114 
L 115.047224 91.758467 
L 116.493347 88.853757 
L 117.216408 88.12464 
L 117.93947 88.647958 
L 118.662531 87.266163 
L 119.385592 85.513929 
L 120.831715 84.043934 
L 121.554776 85.078811 
L 122.277838 83.467696 
L 123.000899 80.986345 
L 123.72396 80.933425 
L 124.447022 80.427747 
L 125.170083 78.328594 
L 125.893144 78.622593 
L 126.616206 76.205921 
L 128.062328 77.246678 
L 128.78539 76.123602 
L 129.508451 74.418408 
L 130.954574 73.377651 
L 131.677635 72.436854 
L 132.400696 72.325135 
L 133.123758 73.307091 
L 133.846819 71.648937 
L 134.569881 71.678337 
L 135.292942 70.567021 
L 136.016003 71.337298 
L 136.739065 70.608181 
L 137.462126 71.249099 
L 138.185187 70.114263 
L 138.908249 92.058346 
L 139.63131 96.591811 
L 140.354371 96.327212 
L 141.800494 96.327212 
L 142.523555 95.586334 
L 143.246617 95.921493 
L 143.969678 95.339375 
L 144.692739 93.93406 
L 145.415801 93.85174 
L 146.138862 94.263339 
L 146.861923 92.957983 
L 148.308046 91.14695 
L 149.031108 91.276309 
L 149.754169 91.217509 
L 150.47723 90.758871 
L 151.923353 89.347676 
L 152.646414 88.365719 
L 153.369476 88.08348 
L 154.092537 88.05996 
L 154.815598 88.730278 
L 156.261721 85.884368 
L 156.984782 86.325366 
L 157.707844 86.437086 
L 158.430905 85.572729 
L 159.153966 85.678569 
L 159.877028 85.613889 
L 161.32315 84.861251 
L 162.046212 84.185054 
L 162.769273 82.526899 
L 163.492334 83.485336 
L 164.215396 81.874222 
L 164.938457 82.27406 
L 165.661519 81.303864 
L 166.38458 82.103541 
L 167.107641 81.862462 
L 168.553764 80.386587 
L 169.276825 80.480667 
L 171.446009 79.698629 
L 172.892132 78.199234 
L 173.615193 76.970319 
L 174.338255 77.575957 
L 175.061316 77.781756 
L 175.784377 76.70572 
L 176.507439 76.011882 
L 177.2305 75.841363 
L 177.953561 75.365084 
L 178.676623 75.617923 
L 179.399684 74.177328 
L 180.122745 73.76573 
L 180.845807 73.81865 
L 181.568868 74.218488 
L 182.29193 73.77749 
L 183.014991 72.184015 
L 183.738052 71.572497 
L 184.461114 71.978216 
L 185.184175 71.025659 
L 185.907236 71.166779 
L 187.353359 70.97862 
L 188.07642 68.961787 
L 188.799482 69.626224 
L 189.522543 69.832024 
L 190.245604 69.244026 
L 190.968666 68.179749 
L 191.691727 66.721514 
L 192.414788 67.056673 
L 193.13785 66.039437 
L 193.860911 66.351076 
L 194.583972 66.092357 
L 195.307034 65.12804 
L 196.030095 65.322079 
L 196.753157 65.081 
L 197.476218 64.540042 
L 198.199279 64.504762 
L 198.922341 64.9634 
L 199.645402 63.616885 
L 200.368463 62.629049 
L 201.091525 62.729008 
L 201.814586 61.805851 
L 202.537647 62.729008 
L 203.260709 60.083017 
L 203.98377 60.682775 
L 206.152954 60.382896 
L 206.876015 59.836058 
L 207.599077 59.718459 
L 208.322138 59.3539 
L 209.045199 58.618902 
L 210.491322 58.348423 
L 211.214383 57.819225 
L 211.937445 58.548343 
L 212.660506 57.972105 
L 213.383568 58.754142 
L 214.106629 57.848625 
L 214.82969 57.466426 
L 215.552752 57.389987 
L 216.998874 56.32571 
L 217.721936 56.49623 
L 218.444997 55.555433 
L 219.168058 56.54327 
L 219.89112 56.607949 
L 220.614181 55.937632 
L 221.337242 56.44919 
L 222.060304 56.043471 
L 222.783365 55.925872 
L 223.506426 55.149715 
L 224.229488 56.46095 
L 224.952549 55.767112 
L 225.67561 79.42815 
L 226.398672 83.538256 
L 227.121733 82.732699 
L 227.844794 83.067858 
L 228.567856 84.543732 
L 229.290917 84.155654 
L 230.013979 83.297177 
L 232.183163 83.344217 
L 232.906224 83.161937 
L 233.629285 84.420253 
L 234.352347 82.815018 
L 235.075408 83.285417 
L 235.798469 81.580223 
L 236.521531 82.967898 
L 237.244592 80.862865 
L 237.967653 81.997701 
L 238.690715 81.733102 
L 239.413776 81.750742 
L 240.136837 82.074141 
L 240.859899 80.792305 
L 241.58296 80.851105 
L 242.306021 80.263107 
L 243.752144 81.133344 
L 244.475206 79.933828 
L 245.198267 79.704509 
L 245.921328 80.404227 
L 246.64439 80.492427 
L 247.367451 79.633949 
L 248.090512 79.35759 
L 248.813574 79.234111 
L 249.536635 78.563793 
L 250.259696 79.38699 
L 250.982758 78.693153 
L 251.705819 77.805276 
L 252.42888 78.357994 
L 253.151942 78.005195 
L 253.875003 78.381514 
L 254.598064 77.722956 
L 255.321126 78.122795 
L 256.044187 76.63516 
L 256.767248 77.399557 
L 257.49031 77.528917 
L 258.213371 76.282361 
L 258.936432 76.64692 
L 259.659494 75.641443 
L 260.382555 76.71748 
L 261.105617 76.864479 
L 261.828678 76.594 
L 262.551739 75.859003 
L 263.274801 75.953082 
L 263.997862 76.6234 
L 265.443985 75.835483 
L 266.167046 75.465044 
L 266.890107 75.282765 
L 267.613169 75.494444 
L 268.33623 74.289048 
L 269.059291 74.483087 
L 269.782353 75.276885 
L 270.505414 75.247485 
L 271.228475 74.383128 
L 271.951537 75.582644 
L 272.674598 73.571691 
L 273.397659 73.265932 
L 274.120721 74.242008 
L 274.843782 73.79513 
L 275.566843 74.159689 
L 276.289905 73.318851 
L 277.012966 73.360011 
L 278.459089 72.472134 
L 279.18215 73.124812 
L 279.905212 73.371771 
L 280.628273 71.925296 
L 281.351334 72.683814 
L 282.797457 71.813577 
L 283.520518 72.084056 
L 285.689702 71.684217 
L 286.412764 69.996663 
L 287.135825 71.019779 
L 287.858886 70.367102 
L 288.581948 70.137782 
L 289.305009 71.060939 
L 290.02807 70.120143 
L 290.751132 70.425901 
L 291.474193 69.767344 
L 292.197255 70.067223 
L 292.920316 69.943743 
L 293.643377 68.979426 
L 294.366439 69.349865 
L 295.0895 69.443945 
L 295.812561 68.826547 
L 296.535623 68.850067 
L 297.258684 69.749704 
L 297.981745 68.267949 
L 299.427868 68.750107 
L 300.150929 68.191509 
L 300.873991 68.908867 
L 301.597052 68.167989 
L 302.320113 67.609391 
L 303.043175 66.844994 
L 304.489297 67.244833 
L 305.212359 66.521595 
L 305.93542 65.968877 
L 306.658481 66.786194 
L 307.381543 66.486315 
L 308.827666 65.733678 
L 309.550727 64.563562 
L 310.273788 66.298156 
L 310.99685 64.751721 
L 311.719911 64.745841 
L 312.442972 65.327959 
L 313.166034 65.233879 
L 313.889095 64.869321 
L 314.612156 64.310723 
L 315.335218 64.028484 
L 316.058279 64.281323 
L 316.78134 63.899124 
L 317.504402 63.246446 
L 318.227463 63.687445 
L 318.950524 62.917168 
L 319.673586 62.599649 
L 320.396647 63.675685 
L 322.565831 62.06457 
L 323.288892 62.33505 
L 324.011954 62.13513 
L 324.735015 61.370733 
L 325.458077 61.282533 
L 326.181138 60.623976 
L 326.904199 60.859175 
L 327.627261 60.247657 
L 328.350322 61.899931 
L 329.796445 60.406416 
L 330.519506 60.112417 
L 331.242567 60.870935 
L 331.965629 59.42446 
L 332.68869 59.059901 
L 333.411751 59.800778 
L 334.134813 59.906618 
L 334.857874 59.46562 
L 335.580935 57.807465 
L 337.027058 58.854102 
L 337.750119 58.383703 
L 338.473181 58.166144 
L 339.196242 57.754545 
L 339.919304 58.307264 
L 340.642365 57.977985 
L 342.088488 56.061111 
L 342.811549 56.801989 
L 343.53461 56.119911 
L 344.257672 56.53739 
L 344.980733 56.50799 
L 345.703794 56.649109 
L 347.149917 54.561717 
L 347.872978 56.49035 
L 348.59604 55.549553 
L 349.319101 55.461353 
L 350.042162 54.973315 
L 350.765224 55.073275 
L 352.211346 54.420597 
L 352.934408 54.873355 
L 353.657469 55.949392 
L 354.38053 55.002715 
L 355.103592 54.979195 
L 355.826653 54.808676 
L 356.549715 55.955272 
L 357.272776 55.584833 
L 357.995837 55.461353 
L 358.718899 54.920395 
L 359.44196 54.673436 
L 360.165021 54.585236 
L 360.888083 55.220274 
L 361.611144 54.408837 
L 362.334205 54.203038 
L 363.780328 56.219871 
L 364.503389 54.820436 
L 365.226451 55.508393 
L 365.949512 55.061515 
L 366.672573 55.085035 
L 367.395635 54.649916 
L 368.118696 55.020355 
L 368.841757 54.408837 
L 369.564819 55.055635 
L 370.28788 54.749876 
L 371.734003 54.873355 
L 372.457064 54.979195 
L 373.180126 54.902755 
L 373.903187 53.991359 
L 374.626248 54.814556 
L 375.34931 54.743996 
L 376.072371 54.426477 
L 376.795432 55.155594 
L 377.518494 54.655796 
L 378.241555 54.843956 
L 378.964616 54.226558 
L 379.687678 55.731832 
L 380.410739 54.073678 
L 381.1338 54.514677 
L 381.856862 54.820436 
L 383.302984 54.314757 
L 384.026046 55.308474 
L 384.749107 54.696956 
L 385.472168 55.667153 
L 386.19523 54.514677 
L 386.918291 54.232438 
L 387.641353 54.755756 
L 388.364414 54.920395 
L 389.087475 53.885519 
L 389.810537 55.449593 
L 390.533598 54.520557 
L 391.256659 54.908635 
L 391.979721 53.568 
L 393.425843 55.126195 
L 394.148905 53.726759 
L 394.871966 55.055635 
L 395.595027 55.249674 
L 396.318089 55.226154 
L 397.04115 55.531913 
L 397.764211 54.667556 
L 398.487273 54.097198 
L 398.487273 54.097198 
" clip-path="url(#pae5820a827)" style="fill: none; stroke: #1f77b4; stroke-width: 1.5; stroke-linecap: square"/>
   </g>
   <g id="line2d_16">
    <path d="M 73.832727 279.811974 
L 74.555789 264.347628 
L 76.001911 223.893369 
L 76.724973 216.190595 
L 77.448034 199.079855 
L 78.894157 181.263517 
L 80.340279 160.771788 
L 81.063341 157.655399 
L 81.786402 162.91798 
L 82.509463 153.245414 
L 83.232525 141.720654 
L 83.955586 146.836236 
L 84.678647 138.163266 
L 85.401709 133.282883 
L 86.12477 131.695289 
L 86.847832 126.991305 
L 87.570893 127.696903 
L 88.293954 124.580513 
L 89.017016 122.052122 
L 89.740077 120.141129 
L 90.463138 115.848744 
L 91.909261 112.173757 
L 92.632322 113.114553 
L 93.355384 111.644558 
L 94.078445 111.732758 
L 94.801506 111.497559 
L 95.524568 145.101642 
L 96.247629 142.86725 
L 96.97069 138.280866 
L 97.693752 139.221663 
L 98.416813 132.430286 
L 99.139874 135.135077 
L 99.862936 128.108501 
L 100.585997 124.845113 
L 101.309059 123.610317 
L 102.03212 124.639313 
L 102.755181 124.756913 
L 103.478243 122.404921 
L 104.201304 119.376731 
L 104.924365 118.994533 
L 105.647427 116.78954 
L 106.370488 119.87653 
L 107.093549 114.11415 
L 107.816611 112.350156 
L 108.539672 112.408956 
L 109.262733 111.791558 
L 109.985795 107.440373 
L 110.708856 110.174563 
L 111.431917 108.645769 
L 112.154979 108.998568 
L 112.87804 108.26357 
L 113.601101 108.557569 
L 114.324163 105.823379 
L 115.047224 107.087574 
L 115.770285 101.824992 
L 116.493347 102.50119 
L 117.216408 102.765789 
L 117.93947 104.118184 
L 118.662531 98.385204 
L 119.385592 100.678396 
L 120.108654 96.562411 
L 120.831715 95.651014 
L 121.554776 97.209208 
L 122.277838 93.710621 
L 123.000899 94.533818 
L 123.72396 92.593424 
L 124.447022 92.622824 
L 125.170083 91.976027 
L 125.893144 93.79882 
L 126.616206 93.446022 
L 127.339267 91.564428 
L 128.062328 91.887827 
L 128.78539 89.888634 
L 129.508451 90.270833 
L 130.231512 89.535835 
L 130.954574 89.300636 
L 131.677635 89.477035 
L 132.400696 88.742038 
L 133.123758 88.21284 
L 133.846819 89.094837 
L 134.569881 88.595038 
L 136.016003 88.771438 
L 136.739065 88.418639 
L 137.462126 87.683642 
L 138.185187 87.860041 
L 138.908249 108.29297 
L 139.63131 109.939364 
L 140.354371 111.909157 
L 141.077433 108.29297 
L 141.800494 106.940575 
L 142.523555 108.616369 
L 143.246617 108.057771 
L 143.969678 109.792365 
L 144.692739 105.764579 
L 145.415801 110.233363 
L 146.138862 105.735179 
L 146.861923 105.29418 
L 147.584985 103.882985 
L 148.308046 105.852778 
L 149.754169 105.646979 
L 150.47723 101.354594 
L 151.200292 102.001392 
L 151.923353 100.825396 
L 152.646414 105.058981 
L 153.369476 101.854392 
L 154.092537 101.883792 
L 154.815598 98.738003 
L 155.53866 101.413394 
L 156.261721 98.591004 
L 156.984782 103.853585 
L 157.707844 101.824992 
L 158.430905 98.855603 
L 159.153966 99.5318 
L 159.877028 100.619597 
L 160.600089 98.943802 
L 161.32315 101.883792 
L 162.769273 95.945013 
L 163.492334 96.209612 
L 164.215396 98.649803 
L 164.938457 98.649803 
L 166.38458 98.385204 
L 167.107641 95.033616 
L 167.830703 95.592214 
L 168.553764 95.974413 
L 169.276825 94.357418 
L 169.999887 93.91642 
L 170.722948 91.770227 
L 171.446009 95.180616 
L 172.169071 90.682431 
L 172.892132 93.710621 
L 173.615193 92.093626 
L 174.338255 90.97643 
L 175.784377 91.299829 
L 176.507439 90.241433 
L 177.2305 91.887827 
L 177.953561 90.535432 
L 178.676623 91.182229 
L 179.399684 88.889037 
L 180.122745 89.271236 
L 180.845807 91.241029 
L 181.568868 87.713041 
L 182.29193 91.535028 
L 183.738052 90.065033 
L 184.461114 89.653435 
L 185.184175 87.448442 
L 185.907236 86.537046 
L 186.630298 85.860848 
L 187.353359 89.888634 
L 188.07642 86.331246 
L 188.799482 86.507646 
L 189.522543 85.949048 
L 190.245604 84.802452 
L 190.968666 86.272446 
L 191.691727 84.596652 
L 192.414788 86.066647 
L 193.13785 84.567252 
L 193.860911 84.214454 
L 194.583972 83.685255 
L 195.307034 83.538256 
L 196.030095 83.597056 
L 196.753157 83.450056 
L 197.476218 82.656259 
L 198.199279 82.715059 
L 198.922341 80.686466 
L 199.645402 81.686062 
L 200.368463 81.597863 
L 201.091525 80.862865 
L 201.814586 81.215664 
L 202.537647 80.686466 
L 203.260709 80.304267 
L 203.98377 80.892265 
L 204.706831 80.951065 
L 206.152954 78.863672 
L 206.876015 79.48107 
L 207.599077 79.59867 
L 208.322138 79.45167 
L 209.045199 79.804469 
L 209.768261 78.981272 
L 210.491322 78.363874 
L 211.214383 78.246274 
L 211.937445 78.716673 
L 212.660506 78.187475 
L 213.383568 78.069875 
L 214.82969 78.452074 
L 215.552752 78.628473 
L 216.275813 78.069875 
L 216.998874 78.216874 
L 217.721936 77.981675 
L 218.444997 78.040475 
L 219.168058 77.775876 
L 219.89112 77.658276 
L 220.614181 77.893476 
L 222.060304 78.011075 
L 222.783365 77.452477 
L 223.506426 77.570077 
L 224.229488 77.423077 
L 224.952549 77.746476 
L 225.67561 102.64819 
L 226.398672 101.619193 
L 227.121733 99.061402 
L 227.844794 101.736793 
L 228.567856 100.854796 
L 229.290917 100.590197 
L 230.013979 102.706989 
L 230.73704 101.266394 
L 231.460101 100.619597 
L 232.183163 96.88581 
L 232.906224 98.796803 
L 233.629285 98.385204 
L 234.352347 100.207998 
L 235.075408 97.209208 
L 235.798469 98.267605 
L 236.521531 98.826203 
L 237.244592 98.238205 
L 237.967653 96.79761 
L 238.690715 97.238608 
L 239.413776 98.385204 
L 240.136837 98.297005 
L 240.859899 97.415008 
L 241.58296 94.710217 
L 243.029083 96.562411 
L 243.752144 95.886213 
L 244.475206 93.94582 
L 245.198267 95.445215 
L 246.64439 97.797206 
L 247.367451 99.855199 
L 248.090512 97.297408 
L 248.813574 95.592214 
L 249.536635 95.592214 
L 250.259696 94.563218 
L 250.982758 97.032809 
L 251.705819 92.916823 
L 252.42888 93.94582 
L 253.151942 98.385204 
L 253.875003 92.828624 
L 254.598064 98.150005 
L 255.321126 92.270026 
L 256.044187 92.799224 
L 256.767248 96.033213 
L 257.49031 93.94582 
L 258.213371 94.798417 
L 258.936432 94.063419 
L 259.659494 90.741231 
L 260.382555 95.533414 
L 261.105617 96.562411 
L 261.828678 92.740424 
L 262.551739 95.974413 
L 263.274801 93.97522 
L 263.997862 90.88823 
L 264.720923 92.858024 
L 266.167046 95.768613 
L 266.890107 92.916823 
L 267.613169 96.356611 
L 268.33623 91.887827 
L 269.059291 89.418236 
L 269.782353 89.829834 
L 270.505414 91.09403 
L 271.228475 90.594231 
L 271.951537 93.622421 
L 272.674598 90.359032 
L 273.397659 94.798417 
L 274.120721 90.88823 
L 274.843782 88.683238 
L 275.566843 93.475421 
L 276.289905 90.006233 
L 277.012966 91.211629 
L 277.736028 91.858427 
L 278.459089 89.682835 
L 279.18215 90.594231 
L 279.905212 90.91763 
L 280.628273 93.622421 
L 281.351334 88.771438 
L 282.074396 89.888634 
L 282.797457 89.624035 
L 283.520518 89.506435 
L 284.24358 92.769824 
L 284.966641 89.036037 
L 285.689702 89.947434 
L 286.412764 89.741634 
L 287.135825 91.211629 
L 287.858886 88.800838 
L 288.581948 88.506839 
L 289.305009 88.918437 
L 290.02807 89.094837 
L 290.751132 91.593828 
L 291.474193 86.831045 
L 292.197255 89.359436 
L 292.920316 87.183843 
L 293.643377 88.06584 
L 294.366439 91.799627 
L 295.0895 88.09524 
L 295.812561 88.09524 
L 296.535623 90.035633 
L 297.258684 87.742441 
L 297.981745 88.03644 
L 298.704807 86.243047 
L 299.427868 88.536239 
L 300.150929 86.007847 
L 300.873991 86.831045 
L 301.597052 85.860848 
L 302.320113 87.183843 
L 303.043175 87.125043 
L 303.766236 84.390853 
L 304.489297 85.566849 
L 305.212359 85.684448 
L 305.93542 85.18465 
L 306.658481 83.861655 
L 307.381543 86.448846 
L 308.104604 82.50926 
L 308.827666 85.537449 
L 309.550727 84.861251 
L 310.99685 83.949855 
L 311.719911 84.537852 
L 312.442972 85.508049 
L 313.166034 83.891055 
L 313.889095 85.21405 
L 314.612156 83.773455 
L 315.335218 83.597056 
L 316.058279 85.30225 
L 316.78134 82.832658 
L 318.227463 83.920455 
L 318.950524 82.215261 
L 319.673586 82.009461 
L 320.396647 82.979658 
L 321.119708 84.214454 
L 321.84277 82.656259 
L 322.565831 79.39287 
L 323.288892 82.597459 
L 324.011954 81.568463 
L 325.458077 80.098468 
L 326.181138 81.303864 
L 326.904199 80.510066 
L 327.627261 83.038458 
L 328.350322 80.833465 
L 329.073383 82.715059 
L 329.796445 79.59867 
L 330.519506 81.333264 
L 331.242567 79.245871 
L 332.68869 82.038861 
L 333.411751 79.128271 
L 334.134813 80.921665 
L 334.857874 78.334474 
L 335.580935 80.186668 
L 336.303997 80.715866 
L 337.027058 78.040475 
L 337.750119 79.157671 
L 338.473181 80.804065 
L 339.919304 79.48107 
L 340.642365 79.745669 
L 341.365426 78.628473 
L 342.088488 78.834272 
L 343.53461 77.805276 
L 344.257672 76.982079 
L 344.980733 78.393274 
L 345.703794 77.099678 
L 346.426856 77.276078 
L 347.149917 77.599477 
L 347.872978 76.57048 
L 348.59604 77.952275 
L 349.319101 75.688483 
L 350.042162 77.481877 
L 350.765224 77.628876 
L 351.488285 78.040475 
L 353.657469 76.74688 
L 354.38053 76.62928 
L 355.103592 78.128675 
L 355.826653 79.128271 
L 356.549715 78.687273 
L 357.272776 78.422674 
L 357.995837 77.481877 
L 358.718899 77.129078 
L 359.44196 77.570077 
L 360.165021 77.599477 
L 360.888083 76.982079 
L 361.611144 76.805679 
L 362.334205 78.687273 
L 363.057267 78.099275 
L 363.780328 78.040475 
L 364.503389 77.864076 
L 365.949512 76.54108 
L 366.672573 76.835079 
L 367.395635 77.570077 
L 368.841757 76.952679 
L 369.564819 78.363874 
L 370.28788 75.923682 
L 371.010941 76.364681 
L 371.734003 77.540677 
L 372.457064 77.040878 
L 373.180126 77.334877 
L 373.903187 78.216874 
L 374.626248 76.51168 
L 375.34931 78.804872 
L 376.795432 77.834676 
L 377.518494 78.422674 
L 378.241555 76.423481 
L 378.964616 78.657873 
L 379.687678 76.247081 
L 380.410739 78.099275 
L 381.1338 77.099678 
L 381.856862 76.982079 
L 382.579923 78.363874 
L 383.302984 76.188281 
L 384.026046 76.74688 
L 384.749107 76.923279 
L 385.472168 76.776279 
L 386.19523 77.658276 
L 386.918291 77.540677 
L 387.641353 77.864076 
L 388.364414 75.894282 
L 389.810537 79.098871 
L 390.533598 75.688483 
L 391.256659 76.893879 
L 391.979721 77.246678 
L 392.702782 76.864479 
L 393.425843 78.569673 
L 394.148905 76.893879 
L 394.871966 76.54108 
L 395.595027 78.216874 
L 396.318089 78.951872 
L 397.04115 77.158478 
L 397.764211 76.54108 
L 398.487273 77.129078 
L 398.487273 77.129078 
" clip-path="url(#pae5820a827)" style="fill: none; stroke: #ff7f0e; stroke-width: 1.5; stroke-linecap: square"/>
   </g>
   <g id="line2d_17">
    <path d="M 73.832727 284.351613 
L 74.555789 272.439656 
L 75.27885 242.948618 
L 76.001911 231.563802 
L 76.724973 227.944381 
L 77.448034 217.715274 
L 78.171095 209.74702 
L 78.894157 197.307629 
L 79.617218 196.942776 
L 80.340279 188.528231 
L 81.063341 193.607358 
L 81.786402 205.205029 
L 82.509463 187.504527 
L 83.955586 182.790253 
L 84.678647 178.076274 
L 85.401709 177.346274 
L 86.12477 173.655999 
L 86.847832 171.932577 
L 87.570893 170.766871 
L 88.293954 170.290299 
L 89.017016 165.332888 
L 89.740077 164.065458 
L 90.463138 165.778884 
L 91.1862 162.402894 
L 91.909261 161.652903 
L 92.632322 163.244319 
L 93.355384 162.555186 
L 94.078445 161.571759 
L 94.801506 161.450043 
L 95.524568 185.46682 
L 96.247629 185.476816 
L 96.97069 179.728548 
L 97.693752 186.145958 
L 98.416813 172.986857 
L 99.139874 178.572838 
L 99.862936 180.39769 
L 100.585997 172.11515 
L 101.309059 173.848568 
L 102.755181 167.441449 
L 103.478243 162.463752 
L 104.201304 169.317162 
L 104.924365 162.088609 
L 105.647427 159.919191 
L 106.370488 168.749156 
L 107.093549 165.860028 
L 107.816611 160.780902 
L 109.262733 165.424028 
L 109.985795 157.455773 
L 110.708856 160.557757 
L 111.431917 157.658339 
L 112.154979 158.641765 
L 112.87804 156.462057 
L 113.601101 160.172618 
L 114.324163 154.525779 
L 115.047224 157.668629 
L 115.770285 153.664068 
L 116.493347 150.886366 
L 117.216408 156.5432 
L 117.93947 156.918343 
L 118.662531 153.724926 
L 119.385592 153.27893 
L 120.108654 151.565504 
L 120.831715 147.92609 
L 121.554776 151.149789 
L 122.277838 144.661526 
L 123.000899 147.50038 
L 123.72396 145.513241 
L 124.447022 144.073528 
L 125.170083 145.148388 
L 125.893144 143.566674 
L 126.616206 147.753807 
L 127.339267 143.658107 
L 128.062328 141.894113 
L 128.78539 143.120677 
L 129.508451 142.319824 
L 130.231512 140.048976 
L 130.954574 140.667256 
L 131.677635 139.785259 
L 132.400696 140.109834 
L 133.123758 140.140115 
L 133.846819 143.252389 
L 134.569881 141.782394 
L 135.292942 141.103256 
L 136.016003 141.356683 
L 136.739065 141.09326 
L 137.462126 139.643257 
L 138.185187 139.50155 
L 138.908249 160.801188 
L 139.63131 164.886891 
L 140.354371 161.683185 
L 141.077433 162.362322 
L 142.523555 159.250049 
L 143.246617 161.754038 
L 143.969678 153.126932 
L 144.692739 156.756056 
L 145.415801 163.619462 
L 146.138862 157.638053 
L 146.861923 157.263204 
L 147.584985 154.536069 
L 148.308046 154.911212 
L 149.031108 157.050055 
L 149.754169 153.258644 
L 150.47723 148.402663 
L 151.200292 153.420931 
L 151.923353 146.456095 
L 152.646414 155.914631 
L 153.369476 149.446653 
L 154.092537 150.551795 
L 154.815598 150.024655 
L 155.53866 149.669798 
L 156.984782 154.414354 
L 158.430905 149.061514 
L 159.153966 157.546913 
L 159.877028 153.846642 
L 160.600089 151.129503 
L 161.32315 156.147772 
L 162.046212 151.859503 
L 162.769273 146.800662 
L 163.492334 145.61467 
L 164.215396 150.126085 
L 164.938457 148.54437 
L 165.661519 147.561238 
L 166.38458 152.54893 
L 167.107641 147.338092 
L 167.830703 150.653225 
L 168.553764 142.482111 
L 169.276825 139.430402 
L 169.999887 144.215529 
L 170.722948 146.820948 
L 171.446009 148.919513 
L 172.169071 139.83612 
L 172.892132 146.111235 
L 173.615193 140.859825 
L 174.338255 140.251541 
L 175.061316 145.827526 
L 175.784377 138.224124 
L 176.507439 139.92726 
L 177.2305 139.085835 
L 177.953561 139.045263 
L 178.676623 143.48553 
L 179.399684 141.458113 
L 180.122745 142.319824 
L 180.845807 137.585264 
L 181.568868 137.240697 
L 182.29193 142.907822 
L 183.014991 140.292113 
L 183.738052 139.876692 
L 184.461114 142.654395 
L 185.184175 139.82583 
L 185.907236 138.33555 
L 186.630298 137.778128 
L 187.353359 142.32982 
L 188.07642 135.557847 
L 188.799482 134.067566 
L 189.522543 138.426983 
L 190.968666 135.851846 
L 192.414788 141.042398 
L 193.13785 135.486994 
L 193.860911 134.503567 
L 194.583972 134.604997 
L 195.307034 135.963272 
L 196.030095 138.87298 
L 196.753157 133.18557 
L 197.476218 132.141285 
L 198.199279 136.612128 
L 198.922341 133.966137 
L 200.368463 132.242715 
L 201.091525 131.735861 
L 202.537647 129.799583 
L 203.260709 130.559865 
L 203.98377 132.394712 
L 204.706831 130.326723 
L 205.429893 132.921852 
L 206.152954 132.120999 
L 206.876015 130.215298 
L 207.599077 131.695289 
L 208.322138 131.147863 
L 209.045199 130.78301 
L 209.768261 131.776432 
L 210.491322 129.971867 
L 211.214383 130.05301 
L 211.937445 128.410732 
L 212.660506 128.745303 
L 213.383568 128.015304 
L 214.106629 128.704731 
L 214.82969 128.086157 
L 216.275813 130.073296 
L 216.998874 130.083292 
L 217.721936 128.917586 
L 218.444997 129.819869 
L 219.89112 128.319298 
L 220.614181 128.451304 
L 221.337242 129.393865 
L 222.060304 129.292729 
L 222.783365 128.704731 
L 223.506426 128.917586 
L 224.229488 129.363583 
L 224.952549 128.907296 
L 225.67561 151.139793 
L 226.398672 156.21892 
L 227.121733 158.033481 
L 227.844794 151.170075 
L 228.567856 152.396933 
L 229.290917 154.921208 
L 230.013979 152.690932 
L 230.73704 151.474364 
L 231.460101 152.133216 
L 232.183163 148.503798 
L 232.906224 152.406929 
L 233.629285 148.534374 
L 234.352347 147.753807 
L 235.075408 146.374952 
L 235.798469 150.501227 
L 236.521531 146.942664 
L 237.244592 145.746382 
L 237.967653 142.887536 
L 238.690715 150.288078 
L 239.413776 149.152654 
L 240.136837 150.622649 
L 240.859899 151.535222 
L 241.58296 146.97324 
L 242.306021 145.310381 
L 243.029083 144.661526 
L 243.752144 136.814987 
L 244.475206 147.267239 
L 245.198267 141.681258 
L 245.921328 146.415524 
L 246.64439 148.02752 
L 247.367451 156.888061 
L 248.090512 148.108664 
L 248.813574 142.13725 
L 249.536635 143.749247 
L 250.259696 141.843251 
L 250.982758 143.201821 
L 251.705819 149.517801 
L 252.42888 147.114947 
L 253.151942 151.859503 
L 253.875003 141.397255 
L 254.598064 139.38983 
L 255.321126 145.756672 
L 256.044187 140.961255 
L 256.767248 148.321519 
L 257.49031 145.350953 
L 258.213371 144.286677 
L 258.936432 139.663543 
L 260.382555 143.49582 
L 261.105617 149.112082 
L 261.828678 140.64697 
L 262.551739 145.168674 
L 263.274801 146.415524 
L 263.997862 140.424118 
L 264.720923 142.542969 
L 265.443985 146.587807 
L 266.167046 146.97324 
L 267.613169 141.234968 
L 268.33623 148.919513 
L 269.059291 146.354666 
L 269.782353 146.222954 
L 270.505414 141.792684 
L 271.228475 142.948394 
L 271.951537 145.128102 
L 272.674598 135.9227 
L 273.397659 148.726944 
L 274.120721 143.901244 
L 274.843782 140.089548 
L 275.566843 143.982388 
L 276.289905 140.748399 
L 277.012966 139.065549 
L 277.736028 143.353818 
L 278.459089 137.129272 
L 279.18215 141.508681 
L 279.905212 136.824983 
L 280.628273 143.658107 
L 281.351334 138.193548 
L 282.074396 142.400968 
L 282.797457 140.859825 
L 283.520518 144.337245 
L 284.24358 140.322689 
L 284.966641 141.336397 
L 285.689702 139.643257 
L 286.412764 136.226989 
L 287.135825 145.857808 
L 287.858886 138.923548 
L 288.581948 137.007556 
L 289.305009 144.256101 
L 290.02807 140.200973 
L 290.751132 146.395238 
L 291.474193 133.844421 
L 292.197255 141.964967 
L 292.920316 133.966137 
L 293.643377 136.977274 
L 294.366439 134.746704 
L 295.0895 137.19013 
L 295.812561 140.910687 
L 296.535623 135.973562 
L 297.258684 139.552117 
L 297.981745 144.154671 
L 298.704807 135.882128 
L 299.427868 140.434114 
L 300.150929 139.531832 
L 300.873991 135.689559 
L 301.597052 137.869267 
L 302.320113 134.23985 
L 303.043175 141.691254 
L 303.766236 138.538409 
L 304.489297 134.057277 
L 305.212359 139.724401 
L 305.93542 140.119829 
L 306.658481 131.644721 
L 307.381543 137.068414 
L 308.827666 133.438997 
L 309.550727 138.842404 
L 310.273788 132.932142 
L 310.99685 138.112698 
L 311.719911 139.440692 
L 312.442972 135.192995 
L 313.166034 136.125559 
L 313.889095 137.260983 
L 314.612156 133.560712 
L 315.335218 131.381004 
L 316.058279 137.149558 
L 316.78134 132.455631 
L 317.504402 133.307214 
L 318.227463 136.26748 
L 318.950524 131.391152 
L 319.673586 132.739492 
L 320.396647 129.556193 
L 321.119708 137.61582 
L 322.565831 129.789364 
L 323.288892 131.441841 
L 324.011954 126.859512 
L 324.735015 128.613368 
L 325.458077 129.444676 
L 326.181138 137.869267 
L 326.904199 133.621489 
L 327.627261 136.247204 
L 328.350322 125.470621 
L 329.073383 131.40129 
L 329.796445 131.887909 
L 330.519506 133.357904 
L 331.242567 129.414262 
L 331.965629 129.049298 
L 332.68869 138.092301 
L 333.411751 131.624323 
L 334.134813 129.758951 
L 334.857874 127.335994 
L 335.580935 129.535917 
L 336.303997 130.255708 
L 337.027058 128.319369 
L 337.750119 131.877771 
L 338.473181 124.892761 
L 339.196242 130.265845 
L 339.919304 128.694472 
L 340.642365 128.309232 
L 342.088488 131.249221 
L 342.811549 128.116611 
L 343.53461 125.967378 
L 344.257672 129.556193 
L 344.980733 124.436555 
L 346.426856 129.454814 
L 347.149917 126.86965 
L 347.872978 127.954405 
L 348.59604 127.629992 
L 349.319101 123.797868 
L 350.042162 125.308414 
L 350.765224 127.467786 
L 351.488285 126.910202 
L 352.934408 128.21799 
L 353.657469 127.386683 
L 354.38053 126.900064 
L 355.103592 125.501034 
L 355.826653 131.654737 
L 356.549715 124.142556 
L 357.272776 129.029022 
L 357.995837 124.487245 
L 358.718899 123.655937 
L 359.44196 127.234615 
L 360.165021 127.629992 
L 360.888083 124.325038 
L 361.611144 127.559027 
L 362.334205 126.423583 
L 363.057267 127.133236 
L 363.780328 122.074426 
L 364.503389 122.753665 
L 365.226451 123.919523 
L 365.949512 122.469804 
L 366.672573 125.075243 
L 367.395635 126.758133 
L 368.118696 121.719599 
L 369.564819 126.697306 
L 370.28788 124.75083 
L 371.010941 130.853843 
L 371.734003 125.37938 
L 372.457064 128.045646 
L 373.180126 125.298276 
L 373.903187 128.562679 
L 374.626248 125.805171 
L 375.34931 128.593093 
L 376.072371 127.06227 
L 376.795432 131.78653 
L 377.518494 127.903716 
L 378.241555 125.805171 
L 378.964616 125.673379 
L 379.687678 124.243935 
L 380.410739 128.26868 
L 381.1338 127.275166 
L 381.856862 126.504686 
L 382.579923 129.292607 
L 383.302984 123.473455 
L 384.026046 125.115794 
L 384.749107 126.089032 
L 385.472168 124.953588 
L 386.19523 125.997791 
L 386.918291 125.936964 
L 387.641353 125.37938 
L 388.364414 124.527796 
L 389.087475 129.018884 
L 389.810537 128.978333 
L 390.533598 123.889109 
L 391.256659 126.29179 
L 391.979721 129.181091 
L 392.702782 126.758133 
L 393.425843 125.734206 
L 394.871966 125.784895 
L 395.595027 127.457648 
L 396.318089 128.562679 
L 397.04115 124.710278 
L 397.764211 125.359104 
L 398.487273 122.946285 
L 398.487273 122.946285 
" clip-path="url(#pae5820a827)" style="fill: none; stroke: #2ca02c; stroke-width: 1.5; stroke-linecap: square"/>
   </g>
   <g id="line2d_18">
    <path d="M 73.832727 294.717723 
L 74.555789 290.454737 
L 75.27885 282.016967 
L 76.001911 278.988777 
L 76.724973 283.751561 
L 77.448034 262.907033 
L 78.171095 260.202243 
L 78.894157 262.348435 
L 79.617218 247.413287 
L 80.340279 245.178895 
L 81.063341 234.594931 
L 81.786402 248.118884 
L 82.509463 238.387518 
L 83.232525 234.94773 
L 83.955586 225.157564 
L 84.678647 226.833358 
L 85.401709 216.131796 
L 86.12477 220.365381 
L 86.847832 210.222416 
L 87.570893 203.813238 
L 88.293954 208.340823 
L 89.017016 206.018231 
L 89.740077 210.604615 
L 90.463138 202.960641 
L 91.1862 202.313844 
L 91.909261 204.342436 
L 92.632322 200.34405 
L 93.355384 201.784645 
L 94.078445 200.108851 
L 94.801506 203.34284 
L 95.524568 230.037947 
L 96.247629 218.219188 
L 96.97069 222.746773 
L 97.693752 224.569566 
L 98.416813 211.222013 
L 99.139874 215.102799 
L 99.862936 208.135023 
L 100.585997 202.431443 
L 101.309059 213.603404 
L 102.03212 212.07461 
L 102.755181 205.606632 
L 103.478243 203.34284 
L 104.201304 200.050051 
L 104.924365 203.636839 
L 105.647427 201.314247 
L 106.370488 196.022265 
L 107.093549 198.609456 
L 107.816611 192.729477 
L 108.539672 192.817676 
L 109.262733 194.846269 
L 109.985795 189.760087 
L 110.708856 192.053279 
L 111.431917 186.526098 
L 112.154979 184.232906 
L 112.87804 191.318282 
L 113.601101 189.995286 
L 114.324163 190.847883 
L 115.047224 185.026704 
L 115.770285 186.0557 
L 116.493347 184.556305 
L 117.216408 179.705322 
L 117.93947 182.057314 
L 118.662531 175.559936 
L 119.385592 180.116921 
L 120.108654 176.089135 
L 120.831715 175.942135 
L 121.554776 174.41334 
L 122.277838 181.469316 
L 123.000899 169.650557 
L 123.72396 169.944556 
L 124.447022 168.268762 
L 125.170083 170.297355 
L 125.893144 169.444758 
L 126.616206 171.973149 
L 127.339267 165.505171 
L 128.062328 167.122166 
L 128.78539 165.387572 
L 129.508451 167.033966 
L 130.231512 164.505575 
L 130.954574 166.798767 
L 131.677635 165.269972 
L 133.123758 161.359786 
L 134.569881 166.151969 
L 135.292942 163.594178 
L 136.016003 163.329579 
L 136.739065 162.91798 
L 137.462126 164.652574 
L 138.185187 161.242186 
L 138.908249 182.321913 
L 139.63131 194.522871 
L 140.354371 186.673098 
L 141.077433 185.732301 
L 141.800494 187.025897 
L 142.523555 186.408499 
L 143.246617 185.408902 
L 143.969678 184.938504 
L 144.692739 186.673098 
L 145.415801 184.262306 
L 146.138862 187.319896 
L 146.861923 189.671887 
L 147.584985 187.672694 
L 148.308046 192.053279 
L 149.031108 183.350909 
L 149.754169 183.23331 
L 150.47723 179.617122 
L 151.200292 187.907894 
L 151.923353 180.822518 
L 152.646414 186.496698 
L 154.092537 178.323527 
L 154.815598 181.439916 
L 155.53866 181.616315 
L 156.261721 179.969921 
L 156.984782 182.615912 
L 157.707844 184.115307 
L 158.430905 183.350909 
L 159.153966 184.703305 
L 159.877028 186.731898 
L 160.600089 177.853128 
L 161.32315 181.322316 
L 162.046212 179.852322 
L 162.769273 176.265534 
L 164.215396 178.970325 
L 164.938457 178.029528 
L 165.661519 178.352927 
L 166.38458 176.559533 
L 167.107641 176.618333 
L 169.276825 166.916366 
L 169.999887 170.679553 
L 170.722948 170.532554 
L 171.446009 180.058121 
L 172.169071 170.944152 
L 172.892132 172.296548 
L 173.615193 169.856356 
L 174.338255 175.030738 
L 175.061316 172.502347 
L 175.784377 167.621964 
L 176.507439 176.412533 
L 177.2305 174.119341 
L 177.953561 169.415358 
L 178.676623 172.796346 
L 179.399684 167.827763 
L 180.122745 174.942539 
L 180.845807 172.384747 
L 181.568868 169.003759 
L 182.29193 171.267551 
L 183.014991 168.004163 
L 183.738052 173.237344 
L 184.461114 175.265937 
L 185.184175 173.531343 
L 185.907236 168.621561 
L 186.630298 168.621561 
L 187.353359 166.798767 
L 188.07642 168.415761 
L 188.799482 165.681571 
L 189.522543 170.003356 
L 190.245604 162.653381 
L 190.968666 168.121762 
L 191.691727 167.092766 
L 192.414788 168.76856 
L 193.13785 166.298969 
L 193.860911 165.211172 
L 194.583972 159.595792 
L 195.307034 164.387975 
L 196.030095 164.476175 
L 196.753157 163.211979 
L 197.476218 160.712988 
L 198.199279 163.00618 
L 198.922341 163.00618 
L 199.645402 159.448792 
L 201.091525 163.976377 
L 201.814586 162.182983 
L 202.537647 166.387168 
L 203.260709 163.182579 
L 203.98377 159.272393 
L 204.706831 159.389993 
L 205.429893 161.653785 
L 206.152954 164.505575 
L 206.876015 156.773402 
L 207.599077 162.094783 
L 208.322138 159.977991 
L 209.045199 159.948591 
L 210.491322 162.623981 
L 211.214383 158.037597 
L 211.937445 158.243397 
L 212.660506 159.301793 
L 213.383568 159.037194 
L 214.106629 156.979201 
L 214.82969 159.037194 
L 216.275813 158.596195 
L 216.998874 156.626402 
L 217.721936 157.449599 
L 218.444997 155.832605 
L 219.168058 160.15439 
L 219.89112 158.978394 
L 220.614181 159.713391 
L 221.337242 159.331193 
L 222.060304 157.3026 
L 222.783365 159.066594 
L 223.506426 154.891808 
L 224.229488 158.272796 
L 224.952549 154.833008 
L 225.67561 189.436688 
L 226.398672 183.380309 
L 227.121733 186.320299 
L 227.844794 182.939311 
L 228.567856 185.438302 
L 229.290917 184.350506 
L 230.013979 181.351716 
L 230.73704 179.646522 
L 231.460101 190.524484 
L 232.183163 175.383537 
L 232.906224 187.643294 
L 233.629285 175.618736 
L 234.352347 179.323123 
L 235.075408 177.029931 
L 235.798469 190.112886 
L 236.521531 181.439916 
L 237.244592 182.263113 
L 237.967653 177.176931 
L 238.690715 173.090345 
L 239.413776 185.026704 
L 240.136837 188.260692 
L 240.859899 176.383134 
L 241.58296 183.20391 
L 243.029083 177.794329 
L 243.752144 183.556709 
L 244.475206 174.677939 
L 245.198267 185.820501 
L 245.921328 180.969518 
L 246.64439 182.086714 
L 247.367451 180.646119 
L 248.090512 187.055297 
L 248.813574 178.058928 
L 249.536635 177.059331 
L 250.259696 180.675519 
L 250.982758 175.795136 
L 251.705819 177.35333 
L 252.42888 179.881721 
L 253.151942 174.50154 
L 253.875003 176.912332 
L 254.598064 187.172896 
L 255.321126 177.47093 
L 256.044187 181.410516 
L 256.767248 183.527309 
L 257.49031 186.526098 
L 258.213371 183.880108 
L 258.936432 181.910314 
L 259.659494 172.531747 
L 261.105617 181.969114 
L 261.828678 172.708146 
L 262.551739 188.78989 
L 264.720923 176.000935 
L 265.443985 178.470526 
L 266.167046 178.882125 
L 266.890107 180.616719 
L 267.613169 175.471737 
L 268.33623 174.854339 
L 269.059291 167.563164 
L 269.782353 174.295741 
L 270.505414 175.471737 
L 271.228475 173.384344 
L 271.951537 176.559533 
L 272.674598 171.385151 
L 273.397659 178.882125 
L 274.120721 173.795943 
L 274.843782 167.210365 
L 275.566843 173.384344 
L 276.289905 171.796749 
L 277.012966 171.296951 
L 277.736028 178.588126 
L 278.459089 176.412533 
L 279.18215 179.558323 
L 279.905212 180.469719 
L 280.628273 173.972342 
L 281.351334 170.738353 
L 282.074396 162.800381 
L 282.797457 174.41334 
L 283.520518 173.531343 
L 284.24358 183.674308 
L 284.966641 171.179352 
L 285.689702 177.059331 
L 286.412764 172.090748 
L 287.135825 173.942942 
L 287.858886 175.118938 
L 288.581948 173.237344 
L 289.305009 181.204717 
L 290.751132 171.238151 
L 291.474193 170.944152 
L 292.197255 163.505978 
L 292.920316 171.267551 
L 293.643377 170.797153 
L 294.366439 172.649347 
L 295.0895 178.029528 
L 295.812561 172.649347 
L 296.535623 181.057717 
L 297.258684 172.972745 
L 297.981745 180.14632 
L 298.704807 162.800381 
L 299.427868 163.799977 
L 300.150929 166.122569 
L 300.873991 180.998918 
L 301.597052 175.501137 
L 302.320113 165.505171 
L 303.766236 168.239362 
L 304.489297 166.210769 
L 305.212359 173.972342 
L 305.93542 167.563164 
L 306.658481 171.473351 
L 307.381543 169.062559 
L 308.104604 165.211172 
L 308.827666 162.153583 
L 309.550727 170.797153 
L 310.273788 164.358575 
L 310.99685 164.035176 
L 311.719911 168.592161 
L 312.442972 168.503961 
L 313.166034 159.772191 
L 313.889095 167.945363 
L 314.612156 164.740774 
L 315.335218 163.447178 
L 316.058279 168.85676 
L 316.78134 164.035176 
L 317.504402 171.973149 
L 318.227463 169.621157 
L 318.950524 165.91677 
L 319.673586 160.801188 
L 321.119708 164.417375 
L 321.84277 169.121359 
L 322.565831 168.944959 
L 323.288892 168.298162 
L 324.011954 159.830991 
L 324.735015 161.506785 
L 325.458077 165.97557 
L 326.904199 157.332 
L 327.627261 173.060945 
L 328.350322 165.622771 
L 329.073383 160.565988 
L 329.796445 156.979201 
L 330.519506 158.507996 
L 331.242567 158.743195 
L 331.965629 164.770174 
L 332.68869 168.915559 
L 334.134813 164.270376 
L 334.857874 163.535378 
L 335.580935 159.919191 
L 336.303997 163.417779 
L 337.027058 168.562761 
L 337.750119 171.208752 
L 338.473181 160.742388 
L 339.196242 167.945363 
L 339.919304 157.478999 
L 340.642365 159.860391 
L 341.365426 162.94738 
L 342.088488 164.917173 
L 342.811549 163.329579 
L 343.53461 163.329579 
L 344.257672 159.683992 
L 344.980733 162.506382 
L 345.703794 155.362207 
L 346.426856 162.212383 
L 347.149917 161.124587 
L 347.872978 157.3026 
L 348.59604 159.830991 
L 349.319101 161.183386 
L 350.042162 160.683588 
L 350.765224 153.098414 
L 352.211346 163.888177 
L 353.657469 157.978797 
L 354.38053 166.739967 
L 355.103592 158.008197 
L 355.826653 161.389186 
L 356.549715 158.948994 
L 357.272776 165.82857 
L 357.995837 155.038808 
L 358.718899 157.1262 
L 359.44196 158.243397 
L 360.165021 164.211576 
L 360.888083 151.657819 
L 361.611144 162.770981 
L 362.334205 162.712181 
L 363.057267 161.771384 
L 363.780328 153.098414 
L 364.503389 158.155197 
L 365.226451 160.15439 
L 365.949512 165.269972 
L 366.672573 161.359786 
L 367.395635 167.033966 
L 368.118696 161.565585 
L 368.841757 157.890598 
L 369.564819 165.681571 
L 370.28788 157.890598 
L 371.010941 163.06498 
L 371.734003 153.833412 
L 372.457064 163.711778 
L 373.180126 159.184193 
L 373.903187 161.124587 
L 374.626248 154.068611 
L 375.34931 158.331596 
L 376.072371 156.685202 
L 376.795432 162.359382 
L 377.518494 157.655399 
L 378.241555 162.094783 
L 378.964616 161.242186 
L 379.687678 157.949398 
L 380.410739 159.272393 
L 381.1338 158.184597 
L 381.856862 155.509206 
L 382.579923 162.91798 
L 383.302984 158.331596 
L 384.026046 162.712181 
L 384.749107 164.446775 
L 385.472168 155.332807 
L 386.918291 160.595388 
L 387.641353 159.536992 
L 388.364414 157.3026 
L 389.087475 156.156004 
L 389.810537 160.948187 
L 390.533598 154.950608 
L 391.256659 162.182983 
L 391.979721 167.445565 
L 392.702782 154.950608 
L 393.425843 162.770981 
L 394.148905 165.269972 
L 394.871966 162.094783 
L 395.595027 168.239362 
L 396.318089 163.329579 
L 397.04115 159.507592 
L 397.764211 161.242186 
L 398.487273 157.772998 
L 398.487273 157.772998 
" clip-path="url(#pae5820a827)" style="fill: none; stroke: #d62728; stroke-width: 1.5; stroke-linecap: square"/>
   </g>
   <g id="line2d_19">
    <path d="M 350.765224 76.74688 
L 351.488285 78.275674 
L 352.211346 76.158882 
L 352.934408 77.717076 
L 353.657469 77.393677 
L 354.38053 75.276885 
L 355.103592 75.806083 
L 355.826653 76.070682 
L 356.549715 77.981675 
L 357.272776 77.393677 
L 357.995837 77.364277 
L 358.718899 76.188281 
L 359.44196 78.599073 
L 360.165021 76.952679 
L 360.888083 76.62928 
L 361.611144 77.511277 
L 362.334205 77.334877 
L 363.057267 76.452881 
L 363.780328 78.628473 
L 364.503389 75.923682 
L 365.226451 75.953082 
L 365.949512 78.393274 
L 366.672573 77.158478 
L 367.395635 76.62928 
L 368.118696 77.070278 
L 368.841757 76.864479 
L 369.564819 78.246274 
L 370.28788 80.069068 
L 371.010941 78.128675 
L 371.734003 79.56927 
L 372.457064 79.745669 
L 373.180126 77.717076 
L 373.903187 80.421867 
L 374.626248 81.509663 
L 375.34931 80.451267 
L 376.072371 78.657873 
L 376.795432 79.51047 
L 377.518494 79.980868 
L 378.241555 81.039265 
L 378.964616 83.949855 
L 379.687678 79.951468 
L 380.410739 79.804469 
L 381.1338 81.215664 
L 381.856862 81.803662 
L 382.579923 83.508856 
L 383.302984 80.421867 
L 384.026046 82.891458 
L 384.749107 82.656259 
L 385.472168 82.156461 
L 386.19523 82.862058 
L 386.918291 86.448846 
L 387.641353 83.949855 
L 388.364414 84.831851 
L 389.087475 84.508453 
L 389.810537 88.712638 
L 390.533598 86.948644 
L 391.256659 87.977641 
L 392.702782 85.949048 
L 393.425843 88.742038 
L 394.148905 87.330843 
L 394.871966 91.946627 
L 395.595027 93.681221 
L 396.318089 92.652224 
L 397.04115 93.093223 
L 397.764211 89.712234 
L 398.487273 91.711428 
L 398.487273 91.711428 
" clip-path="url(#pae5820a827)" style="fill: none; stroke: #9467bd; stroke-width: 1.5; stroke-linecap: square"/>
   </g>
   <g id="line2d_20">
    <path d="M 350.765224 124.254073 
L 351.488285 125.267863 
L 352.211346 127.143373 
L 352.934408 124.659589 
L 353.657469 127.346131 
L 354.38053 124.375728 
L 355.103592 120.766637 
L 355.826653 123.483593 
L 356.549715 131.330324 
L 357.272776 124.193246 
L 357.995837 127.031857 
L 358.718899 124.396004 
L 359.44196 122.652286 
L 360.165021 122.479941 
L 361.611144 124.923174 
L 362.334205 128.309232 
L 363.057267 124.446693 
L 363.780328 123.361938 
L 364.503389 121.820978 
L 365.226451 121.466152 
L 365.949512 123.128767 
L 366.672573 121.820978 
L 367.395635 123.757316 
L 368.118696 124.882623 
L 368.841757 121.597944 
L 369.564819 118.951954 
L 370.28788 124.314901 
L 371.010941 121.385049 
L 371.734003 119.022919 
L 372.457064 120.776775 
L 373.180126 123.666075 
L 373.903187 128.086198 
L 374.626248 129.829916 
L 375.34931 126.220825 
L 376.072371 126.322204 
L 376.795432 127.457648 
L 377.518494 126.829099 
L 378.241555 125.90655 
L 378.964616 126.220825 
L 379.687678 123.027388 
L 380.410739 121.526979 
L 381.1338 125.886274 
L 381.856862 124.659589 
L 382.579923 127.822613 
L 383.302984 124.791382 
L 384.026046 126.190411 
L 384.749107 122.561045 
L 385.472168 124.446693 
L 386.19523 123.919523 
L 386.918291 132.192046 
L 387.641353 130.863981 
L 388.364414 132.344114 
L 389.087475 130.306397 
L 389.810537 134.361555 
L 390.533598 128.370059 
L 391.256659 130.205018 
L 391.979721 129.393986 
L 392.702782 126.798685 
L 393.425843 131.938598 
L 394.148905 131.969012 
L 394.871966 137.37251 
L 395.595027 136.40941 
L 396.318089 140.667327 
L 397.04115 139.106091 
L 397.764211 139.825881 
L 398.487273 138.730988 
L 398.487273 138.730988 
" clip-path="url(#pae5820a827)" style="fill: none; stroke: #8c564b; stroke-width: 1.5; stroke-linecap: square"/>
   </g>
   <g id="line2d_21">
    <path d="M 350.765224 152.628016 
L 351.488285 154.891808 
L 352.211346 161.153986 
L 352.934408 172.237748 
L 353.657469 161.506785 
L 354.38053 157.919998 
L 355.103592 159.713391 
L 355.826653 159.595792 
L 356.549715 159.683992 
L 357.272776 155.832605 
L 357.995837 158.125797 
L 358.718899 158.890194 
L 359.44196 155.450406 
L 360.165021 154.950608 
L 360.888083 153.216014 
L 361.611144 166.592968 
L 362.334205 169.797556 
L 363.780328 154.891808 
L 364.503389 166.240169 
L 365.226451 167.474964 
L 365.949512 172.208348 
L 366.672573 168.65096 
L 367.395635 168.268762 
L 368.118696 169.709357 
L 368.841757 173.854742 
L 369.564819 166.504768 
L 370.28788 171.796749 
L 371.010941 171.73795 
L 371.734003 170.503154 
L 372.457064 163.270779 
L 373.180126 169.826956 
L 373.903187 179.205524 
L 374.626248 182.351313 
L 375.34931 183.821308 
L 376.072371 181.087117 
L 376.795432 178.882125 
L 377.518494 188.260692 
L 378.241555 187.349295 
L 378.964616 188.613491 
L 379.687678 174.207541 
L 380.410739 172.237748 
L 381.1338 179.381923 
L 381.856862 174.119341 
L 382.579923 181.645715 
L 383.302984 177.853128 
L 384.026046 190.818483 
L 384.749107 180.528519 
L 385.472168 186.878897 
L 386.19523 186.996497 
L 386.918291 195.463667 
L 387.641353 182.468912 
L 388.364414 188.378292 
L 389.087475 185.9381 
L 389.810537 194.228872 
L 390.533598 186.290899 
L 391.256659 197.815659 
L 391.979721 191.994479 
L 392.702782 192.994076 
L 393.425843 199.726653 
L 394.148905 190.348085 
L 394.871966 187.760894 
L 395.595027 208.340823 
L 396.318089 207.458826 
L 397.04115 196.698463 
L 397.764211 191.84748 
L 398.487273 200.31465 
L 398.487273 200.31465 
" clip-path="url(#pae5820a827)" style="fill: none; stroke: #e377c2; stroke-width: 1.5; stroke-linecap: square"/>
   </g>
   <g id="patch_3">
    <path d="M 57.6 307.584 
L 57.6 41.472 
" style="fill: none; stroke: #000000; stroke-width: 0.8; stroke-linejoin: miter; stroke-linecap: square"/>
   </g>
   <g id="patch_4">
    <path d="M 414.72 307.584 
L 414.72 41.472 
" style="fill: none; stroke: #000000; stroke-width: 0.8; stroke-linejoin: miter; stroke-linecap: square"/>
   </g>
   <g id="patch_5">
    <path d="M 57.6 307.584 
L 414.72 307.584 
" style="fill: none; stroke: #000000; stroke-width: 0.8; stroke-linejoin: miter; stroke-linecap: square"/>
   </g>
   <g id="patch_6">
    <path d="M 57.6 41.472 
L 414.72 41.472 
" style="fill: none; stroke: #000000; stroke-width: 0.8; stroke-linejoin: miter; stroke-linecap: square"/>
   </g>
   <g id="text_17">
    <!-- Learning Curves -->
    <g transform="translate(187.37625 35.472) scale(0.12 -0.12)">
     <defs>
      <path id="DejaVuSans-4c" d="M 628 4666 
L 1259 4666 
L 1259 531 
L 3531 531 
L 3531 0 
L 628 0 
L 628 4666 
z
" transform="scale(0.015625)"/>
      <path id="DejaVuSans-65" d="M 3597 1894 
L 3597 1613 
L 953 1613 
Q 991 1019 1311 708 
Q 1631 397 2203 397 
Q 2534 397 2845 478 
Q 3156 559 3463 722 
L 3463 178 
Q 3153 47 2828 -22 
Q 2503 -91 2169 -91 
Q 1331 -91 842 396 
Q 353 884 353 1716 
Q 353 2575 817 3079 
Q 1281 3584 2069 3584 
Q 2775 3584 3186 3129 
Q 3597 2675 3597 1894 
z
M 3022 2063 
Q 3016 2534 2758 2815 
Q 2500 3097 2075 3097 
Q 1594 3097 1305 2825 
Q 1016 2553 972 2059 
L 3022 2063 
z
" transform="scale(0.015625)"/>
      <path id="DejaVuSans-6e" d="M 3513 2113 
L 3513 0 
L 2938 0 
L 2938 2094 
Q 2938 2591 2744 2837 
Q 2550 3084 2163 3084 
Q 1697 3084 1428 2787 
Q 1159 2491 1159 1978 
L 1159 0 
L 581 0 
L 581 3500 
L 1159 3500 
L 1159 2956 
Q 1366 3272 1645 3428 
Q 1925 3584 2291 3584 
Q 2894 3584 3203 3211 
Q 3513 2838 3513 2113 
z
" transform="scale(0.015625)"/>
      <path id="DejaVuSans-69" d="M 603 3500 
L 1178 3500 
L 1178 0 
L 603 0 
L 603 3500 
z
M 603 4863 
L 1178 4863 
L 1178 4134 
L 603 4134 
L 603 4863 
z
" transform="scale(0.015625)"/>
      <path id="DejaVuSans-67" d="M 2906 1791 
Q 2906 2416 2648 2759 
Q 2391 3103 1925 3103 
Q 1463 3103 1205 2759 
Q 947 2416 947 1791 
Q 947 1169 1205 825 
Q 1463 481 1925 481 
Q 2391 481 2648 825 
Q 2906 1169 2906 1791 
z
M 3481 434 
Q 3481 -459 3084 -895 
Q 2688 -1331 1869 -1331 
Q 1566 -1331 1297 -1286 
Q 1028 -1241 775 -1147 
L 775 -588 
Q 1028 -725 1275 -790 
Q 1522 -856 1778 -856 
Q 2344 -856 2625 -561 
Q 2906 -266 2906 331 
L 2906 616 
Q 2728 306 2450 153 
Q 2172 0 1784 0 
Q 1141 0 747 490 
Q 353 981 353 1791 
Q 353 2603 747 3093 
Q 1141 3584 1784 3584 
Q 2172 3584 2450 3431 
Q 2728 3278 2906 2969 
L 2906 3500 
L 3481 3500 
L 3481 434 
z
" transform="scale(0.015625)"/>
      <path id="DejaVuSans-20" transform="scale(0.015625)"/>
      <path id="DejaVuSans-43" d="M 4122 4306 
L 4122 3641 
Q 3803 3938 3442 4084 
Q 3081 4231 2675 4231 
Q 1875 4231 1450 3742 
Q 1025 3253 1025 2328 
Q 1025 1406 1450 917 
Q 1875 428 2675 428 
Q 3081 428 3442 575 
Q 3803 722 4122 1019 
L 4122 359 
Q 3791 134 3420 21 
Q 3050 -91 2638 -91 
Q 1578 -91 968 557 
Q 359 1206 359 2328 
Q 359 3453 968 4101 
Q 1578 4750 2638 4750 
Q 3056 4750 3426 4639 
Q 3797 4528 4122 4306 
z
" transform="scale(0.015625)"/>
      <path id="DejaVuSans-76" d="M 191 3500 
L 800 3500 
L 1894 563 
L 2988 3500 
L 3597 3500 
L 2284 0 
L 1503 0 
L 191 3500 
z
" transform="scale(0.015625)"/>
     </defs>
     <use xlink:href="#DejaVuSans-4c"/>
     <use xlink:href="#DejaVuSans-65" x="53.962891"/>
     <use xlink:href="#DejaVuSans-61" x="115.486328"/>
     <use xlink:href="#DejaVuSans-72" x="176.765625"/>
     <use xlink:href="#DejaVuSans-6e" x="216.128906"/>
     <use xlink:href="#DejaVuSans-69" x="279.507812"/>
     <use xlink:href="#DejaVuSans-6e" x="307.291016"/>
     <use xlink:href="#DejaVuSans-67" x="370.669922"/>
     <use xlink:href="#DejaVuSans-20" x="434.146484"/>
     <use xlink:href="#DejaVuSans-43" x="465.933594"/>
     <use xlink:href="#DejaVuSans-75" x="535.757812"/>
     <use xlink:href="#DejaVuSans-72" x="599.136719"/>
     <use xlink:href="#DejaVuSans-76" x="640.25"/>
     <use xlink:href="#DejaVuSans-65" x="699.429688"/>
     <use xlink:href="#DejaVuSans-73" x="760.953125"/>
    </g>
   </g>
   <g id="legend_1">
    <g id="patch_7">
     <path d="M 128.445937 302.584 
L 343.874063 302.584 
Q 345.874063 302.584 345.874063 300.584 
L 345.874063 198.837125 
Q 345.874063 196.837125 343.874063 196.837125 
L 128.445937 196.837125 
Q 126.445937 196.837125 126.445937 198.837125 
L 126.445937 300.584 
Q 126.445937 302.584 128.445937 302.584 
z
" style="fill: #ffffff; opacity: 0.8; stroke: #cccccc; stroke-linejoin: miter"/>
    </g>
    <g id="line2d_22">
     <path d="M 130.445937 204.935563 
L 140.445937 204.935563 
L 150.445937 204.935563 
" style="fill: none; stroke: #1f77b4; stroke-width: 1.5; stroke-linecap: square"/>
    </g>
    <g id="text_18">
     <!-- Train Accuracy -->
     <g transform="translate(158.445937 208.435563) scale(0.1 -0.1)">
      <defs>
       <path id="DejaVuSans-54" d="M -19 4666 
L 3928 4666 
L 3928 4134 
L 2272 4134 
L 2272 0 
L 1638 0 
L 1638 4134 
L -19 4134 
L -19 4666 
z
" transform="scale(0.015625)"/>
      </defs>
      <use xlink:href="#DejaVuSans-54"/>
      <use xlink:href="#DejaVuSans-72" x="46.333984"/>
      <use xlink:href="#DejaVuSans-61" x="87.447266"/>
      <use xlink:href="#DejaVuSans-69" x="148.726562"/>
      <use xlink:href="#DejaVuSans-6e" x="176.509766"/>
      <use xlink:href="#DejaVuSans-20" x="239.888672"/>
      <use xlink:href="#DejaVuSans-41" x="271.675781"/>
      <use xlink:href="#DejaVuSans-63" x="338.333984"/>
      <use xlink:href="#DejaVuSans-63" x="393.314453"/>
      <use xlink:href="#DejaVuSans-75" x="448.294922"/>
      <use xlink:href="#DejaVuSans-72" x="511.673828"/>
      <use xlink:href="#DejaVuSans-61" x="552.787109"/>
      <use xlink:href="#DejaVuSans-63" x="614.066406"/>
      <use xlink:href="#DejaVuSans-79" x="669.046875"/>
     </g>
    </g>
    <g id="line2d_23">
     <path d="M 130.445937 219.613688 
L 140.445937 219.613688 
L 150.445937 219.613688 
" style="fill: none; stroke: #ff7f0e; stroke-width: 1.5; stroke-linecap: square"/>
    </g>
    <g id="text_19">
     <!-- Validation Accuracy -->
     <g transform="translate(158.445937 223.113688) scale(0.1 -0.1)">
      <defs>
       <path id="DejaVuSans-56" d="M 1831 0 
L 50 4666 
L 709 4666 
L 2188 738 
L 3669 4666 
L 4325 4666 
L 2547 0 
L 1831 0 
z
" transform="scale(0.015625)"/>
       <path id="DejaVuSans-6c" d="M 603 4863 
L 1178 4863 
L 1178 0 
L 603 0 
L 603 4863 
z
" transform="scale(0.015625)"/>
       <path id="DejaVuSans-64" d="M 2906 2969 
L 2906 4863 
L 3481 4863 
L 3481 0 
L 2906 0 
L 2906 525 
Q 2725 213 2448 61 
Q 2172 -91 1784 -91 
Q 1150 -91 751 415 
Q 353 922 353 1747 
Q 353 2572 751 3078 
Q 1150 3584 1784 3584 
Q 2172 3584 2448 3432 
Q 2725 3281 2906 2969 
z
M 947 1747 
Q 947 1113 1208 752 
Q 1469 391 1925 391 
Q 2381 391 2643 752 
Q 2906 1113 2906 1747 
Q 2906 2381 2643 2742 
Q 2381 3103 1925 3103 
Q 1469 3103 1208 2742 
Q 947 2381 947 1747 
z
" transform="scale(0.015625)"/>
       <path id="DejaVuSans-74" d="M 1172 4494 
L 1172 3500 
L 2356 3500 
L 2356 3053 
L 1172 3053 
L 1172 1153 
Q 1172 725 1289 603 
Q 1406 481 1766 481 
L 2356 481 
L 2356 0 
L 1766 0 
Q 1100 0 847 248 
Q 594 497 594 1153 
L 594 3053 
L 172 3053 
L 172 3500 
L 594 3500 
L 594 4494 
L 1172 4494 
z
" transform="scale(0.015625)"/>
      </defs>
      <use xlink:href="#DejaVuSans-56"/>
      <use xlink:href="#DejaVuSans-61" x="60.658203"/>
      <use xlink:href="#DejaVuSans-6c" x="121.9375"/>
      <use xlink:href="#DejaVuSans-69" x="149.720703"/>
      <use xlink:href="#DejaVuSans-64" x="177.503906"/>
      <use xlink:href="#DejaVuSans-61" x="240.980469"/>
      <use xlink:href="#DejaVuSans-74" x="302.259766"/>
      <use xlink:href="#DejaVuSans-69" x="341.46875"/>
      <use xlink:href="#DejaVuSans-6f" x="369.251953"/>
      <use xlink:href="#DejaVuSans-6e" x="430.433594"/>
      <use xlink:href="#DejaVuSans-20" x="493.8125"/>
      <use xlink:href="#DejaVuSans-41" x="525.599609"/>
      <use xlink:href="#DejaVuSans-63" x="592.257812"/>
      <use xlink:href="#DejaVuSans-63" x="647.238281"/>
      <use xlink:href="#DejaVuSans-75" x="702.21875"/>
      <use xlink:href="#DejaVuSans-72" x="765.597656"/>
      <use xlink:href="#DejaVuSans-61" x="806.710938"/>
      <use xlink:href="#DejaVuSans-63" x="867.990234"/>
      <use xlink:href="#DejaVuSans-79" x="922.970703"/>
     </g>
    </g>
    <g id="line2d_24">
     <path d="M 130.445937 234.291812 
L 140.445937 234.291812 
L 150.445937 234.291812 
" style="fill: none; stroke: #2ca02c; stroke-width: 1.5; stroke-linecap: square"/>
    </g>
    <g id="text_20">
     <!-- Robust Validation Accuracy -->
     <g transform="translate(158.445937 237.791812) scale(0.1 -0.1)">
      <defs>
       <path id="DejaVuSans-52" d="M 2841 2188 
Q 3044 2119 3236 1894 
Q 3428 1669 3622 1275 
L 4263 0 
L 3584 0 
L 2988 1197 
Q 2756 1666 2539 1819 
Q 2322 1972 1947 1972 
L 1259 1972 
L 1259 0 
L 628 0 
L 628 4666 
L 2053 4666 
Q 2853 4666 3247 4331 
Q 3641 3997 3641 3322 
Q 3641 2881 3436 2590 
Q 3231 2300 2841 2188 
z
M 1259 4147 
L 1259 2491 
L 2053 2491 
Q 2509 2491 2742 2702 
Q 2975 2913 2975 3322 
Q 2975 3731 2742 3939 
Q 2509 4147 2053 4147 
L 1259 4147 
z
" transform="scale(0.015625)"/>
       <path id="DejaVuSans-62" d="M 3116 1747 
Q 3116 2381 2855 2742 
Q 2594 3103 2138 3103 
Q 1681 3103 1420 2742 
Q 1159 2381 1159 1747 
Q 1159 1113 1420 752 
Q 1681 391 2138 391 
Q 2594 391 2855 752 
Q 3116 1113 3116 1747 
z
M 1159 2969 
Q 1341 3281 1617 3432 
Q 1894 3584 2278 3584 
Q 2916 3584 3314 3078 
Q 3713 2572 3713 1747 
Q 3713 922 3314 415 
Q 2916 -91 2278 -91 
Q 1894 -91 1617 61 
Q 1341 213 1159 525 
L 1159 0 
L 581 0 
L 581 4863 
L 1159 4863 
L 1159 2969 
z
" transform="scale(0.015625)"/>
      </defs>
      <use xlink:href="#DejaVuSans-52"/>
      <use xlink:href="#DejaVuSans-6f" x="64.982422"/>
      <use xlink:href="#DejaVuSans-62" x="126.164062"/>
      <use xlink:href="#DejaVuSans-75" x="189.640625"/>
      <use xlink:href="#DejaVuSans-73" x="253.019531"/>
      <use xlink:href="#DejaVuSans-74" x="305.119141"/>
      <use xlink:href="#DejaVuSans-20" x="344.328125"/>
      <use xlink:href="#DejaVuSans-56" x="376.115234"/>
      <use xlink:href="#DejaVuSans-61" x="436.773438"/>
      <use xlink:href="#DejaVuSans-6c" x="498.052734"/>
      <use xlink:href="#DejaVuSans-69" x="525.835938"/>
      <use xlink:href="#DejaVuSans-64" x="553.619141"/>
      <use xlink:href="#DejaVuSans-61" x="617.095703"/>
      <use xlink:href="#DejaVuSans-74" x="678.375"/>
      <use xlink:href="#DejaVuSans-69" x="717.583984"/>
      <use xlink:href="#DejaVuSans-6f" x="745.367188"/>
      <use xlink:href="#DejaVuSans-6e" x="806.548828"/>
      <use xlink:href="#DejaVuSans-20" x="869.927734"/>
      <use xlink:href="#DejaVuSans-41" x="901.714844"/>
      <use xlink:href="#DejaVuSans-63" x="968.373047"/>
      <use xlink:href="#DejaVuSans-63" x="1023.353516"/>
      <use xlink:href="#DejaVuSans-75" x="1078.333984"/>
      <use xlink:href="#DejaVuSans-72" x="1141.712891"/>
      <use xlink:href="#DejaVuSans-61" x="1182.826172"/>
      <use xlink:href="#DejaVuSans-63" x="1244.105469"/>
      <use xlink:href="#DejaVuSans-79" x="1299.085938"/>
     </g>
    </g>
    <g id="line2d_25">
     <path d="M 130.445937 248.969938 
L 140.445937 248.969938 
L 150.445937 248.969938 
" style="fill: none; stroke: #d62728; stroke-width: 1.5; stroke-linecap: square"/>
    </g>
    <g id="text_21">
     <!-- Adversarial Validation Accuracy -->
     <g transform="translate(158.445937 252.469938) scale(0.1 -0.1)">
      <use xlink:href="#DejaVuSans-41"/>
      <use xlink:href="#DejaVuSans-64" x="66.658203"/>
      <use xlink:href="#DejaVuSans-76" x="130.134766"/>
      <use xlink:href="#DejaVuSans-65" x="189.314453"/>
      <use xlink:href="#DejaVuSans-72" x="250.837891"/>
      <use xlink:href="#DejaVuSans-73" x="291.951172"/>
      <use xlink:href="#DejaVuSans-61" x="344.050781"/>
      <use xlink:href="#DejaVuSans-72" x="405.330078"/>
      <use xlink:href="#DejaVuSans-69" x="446.443359"/>
      <use xlink:href="#DejaVuSans-61" x="474.226562"/>
      <use xlink:href="#DejaVuSans-6c" x="535.505859"/>
      <use xlink:href="#DejaVuSans-20" x="563.289062"/>
      <use xlink:href="#DejaVuSans-56" x="595.076172"/>
      <use xlink:href="#DejaVuSans-61" x="655.734375"/>
      <use xlink:href="#DejaVuSans-6c" x="717.013672"/>
      <use xlink:href="#DejaVuSans-69" x="744.796875"/>
      <use xlink:href="#DejaVuSans-64" x="772.580078"/>
      <use xlink:href="#DejaVuSans-61" x="836.056641"/>
      <use xlink:href="#DejaVuSans-74" x="897.335938"/>
      <use xlink:href="#DejaVuSans-69" x="936.544922"/>
      <use xlink:href="#DejaVuSans-6f" x="964.328125"/>
      <use xlink:href="#DejaVuSans-6e" x="1025.509766"/>
      <use xlink:href="#DejaVuSans-20" x="1088.888672"/>
      <use xlink:href="#DejaVuSans-41" x="1120.675781"/>
      <use xlink:href="#DejaVuSans-63" x="1187.333984"/>
      <use xlink:href="#DejaVuSans-63" x="1242.314453"/>
      <use xlink:href="#DejaVuSans-75" x="1297.294922"/>
      <use xlink:href="#DejaVuSans-72" x="1360.673828"/>
      <use xlink:href="#DejaVuSans-61" x="1401.787109"/>
      <use xlink:href="#DejaVuSans-63" x="1463.066406"/>
      <use xlink:href="#DejaVuSans-79" x="1518.046875"/>
     </g>
    </g>
    <g id="line2d_26">
     <path d="M 130.445937 263.648063 
L 140.445937 263.648063 
L 150.445937 263.648063 
" style="fill: none; stroke: #9467bd; stroke-width: 1.5; stroke-linecap: square"/>
    </g>
    <g id="text_22">
     <!-- SWA Validation Accuracy -->
     <g transform="translate(158.445937 267.148063) scale(0.1 -0.1)">
      <defs>
       <path id="DejaVuSans-53" d="M 3425 4513 
L 3425 3897 
Q 3066 4069 2747 4153 
Q 2428 4238 2131 4238 
Q 1616 4238 1336 4038 
Q 1056 3838 1056 3469 
Q 1056 3159 1242 3001 
Q 1428 2844 1947 2747 
L 2328 2669 
Q 3034 2534 3370 2195 
Q 3706 1856 3706 1288 
Q 3706 609 3251 259 
Q 2797 -91 1919 -91 
Q 1588 -91 1214 -16 
Q 841 59 441 206 
L 441 856 
Q 825 641 1194 531 
Q 1563 422 1919 422 
Q 2459 422 2753 634 
Q 3047 847 3047 1241 
Q 3047 1584 2836 1778 
Q 2625 1972 2144 2069 
L 1759 2144 
Q 1053 2284 737 2584 
Q 422 2884 422 3419 
Q 422 4038 858 4394 
Q 1294 4750 2059 4750 
Q 2388 4750 2728 4690 
Q 3069 4631 3425 4513 
z
" transform="scale(0.015625)"/>
       <path id="DejaVuSans-57" d="M 213 4666 
L 850 4666 
L 1831 722 
L 2809 4666 
L 3519 4666 
L 4500 722 
L 5478 4666 
L 6119 4666 
L 4947 0 
L 4153 0 
L 3169 4050 
L 2175 0 
L 1381 0 
L 213 4666 
z
" transform="scale(0.015625)"/>
      </defs>
      <use xlink:href="#DejaVuSans-53"/>
      <use xlink:href="#DejaVuSans-57" x="63.476562"/>
      <use xlink:href="#DejaVuSans-41" x="156.853516"/>
      <use xlink:href="#DejaVuSans-20" x="225.261719"/>
      <use xlink:href="#DejaVuSans-56" x="257.048828"/>
      <use xlink:href="#DejaVuSans-61" x="317.707031"/>
      <use xlink:href="#DejaVuSans-6c" x="378.986328"/>
      <use xlink:href="#DejaVuSans-69" x="406.769531"/>
      <use xlink:href="#DejaVuSans-64" x="434.552734"/>
      <use xlink:href="#DejaVuSans-61" x="498.029297"/>
      <use xlink:href="#DejaVuSans-74" x="559.308594"/>
      <use xlink:href="#DejaVuSans-69" x="598.517578"/>
      <use xlink:href="#DejaVuSans-6f" x="626.300781"/>
      <use xlink:href="#DejaVuSans-6e" x="687.482422"/>
      <use xlink:href="#DejaVuSans-20" x="750.861328"/>
      <use xlink:href="#DejaVuSans-41" x="782.648438"/>
      <use xlink:href="#DejaVuSans-63" x="849.306641"/>
      <use xlink:href="#DejaVuSans-63" x="904.287109"/>
      <use xlink:href="#DejaVuSans-75" x="959.267578"/>
      <use xlink:href="#DejaVuSans-72" x="1022.646484"/>
      <use xlink:href="#DejaVuSans-61" x="1063.759766"/>
      <use xlink:href="#DejaVuSans-63" x="1125.039062"/>
      <use xlink:href="#DejaVuSans-79" x="1180.019531"/>
     </g>
    </g>
    <g id="line2d_27">
     <path d="M 130.445937 278.326188 
L 140.445937 278.326188 
L 150.445937 278.326188 
" style="fill: none; stroke: #8c564b; stroke-width: 1.5; stroke-linecap: square"/>
    </g>
    <g id="text_23">
     <!-- SWA Robust Validation Accuracy -->
     <g transform="translate(158.445937 281.826188) scale(0.1 -0.1)">
      <use xlink:href="#DejaVuSans-53"/>
      <use xlink:href="#DejaVuSans-57" x="63.476562"/>
      <use xlink:href="#DejaVuSans-41" x="156.853516"/>
      <use xlink:href="#DejaVuSans-20" x="225.261719"/>
      <use xlink:href="#DejaVuSans-52" x="257.048828"/>
      <use xlink:href="#DejaVuSans-6f" x="322.03125"/>
      <use xlink:href="#DejaVuSans-62" x="383.212891"/>
      <use xlink:href="#DejaVuSans-75" x="446.689453"/>
      <use xlink:href="#DejaVuSans-73" x="510.068359"/>
      <use xlink:href="#DejaVuSans-74" x="562.167969"/>
      <use xlink:href="#DejaVuSans-20" x="601.376953"/>
      <use xlink:href="#DejaVuSans-56" x="633.164062"/>
      <use xlink:href="#DejaVuSans-61" x="693.822266"/>
      <use xlink:href="#DejaVuSans-6c" x="755.101562"/>
      <use xlink:href="#DejaVuSans-69" x="782.884766"/>
      <use xlink:href="#DejaVuSans-64" x="810.667969"/>
      <use xlink:href="#DejaVuSans-61" x="874.144531"/>
      <use xlink:href="#DejaVuSans-74" x="935.423828"/>
      <use xlink:href="#DejaVuSans-69" x="974.632812"/>
      <use xlink:href="#DejaVuSans-6f" x="1002.416016"/>
      <use xlink:href="#DejaVuSans-6e" x="1063.597656"/>
      <use xlink:href="#DejaVuSans-20" x="1126.976562"/>
      <use xlink:href="#DejaVuSans-41" x="1158.763672"/>
      <use xlink:href="#DejaVuSans-63" x="1225.421875"/>
      <use xlink:href="#DejaVuSans-63" x="1280.402344"/>
      <use xlink:href="#DejaVuSans-75" x="1335.382812"/>
      <use xlink:href="#DejaVuSans-72" x="1398.761719"/>
      <use xlink:href="#DejaVuSans-61" x="1439.875"/>
      <use xlink:href="#DejaVuSans-63" x="1501.154297"/>
      <use xlink:href="#DejaVuSans-79" x="1556.134766"/>
     </g>
    </g>
    <g id="line2d_28">
     <path d="M 130.445937 293.004312 
L 140.445937 293.004312 
L 150.445937 293.004312 
" style="fill: none; stroke: #e377c2; stroke-width: 1.5; stroke-linecap: square"/>
    </g>
    <g id="text_24">
     <!-- SWA Adversarial Validation Accuracy -->
     <g transform="translate(158.445937 296.504312) scale(0.1 -0.1)">
      <use xlink:href="#DejaVuSans-53"/>
      <use xlink:href="#DejaVuSans-57" x="63.476562"/>
      <use xlink:href="#DejaVuSans-41" x="156.853516"/>
      <use xlink:href="#DejaVuSans-20" x="225.261719"/>
      <use xlink:href="#DejaVuSans-41" x="257.048828"/>
      <use xlink:href="#DejaVuSans-64" x="323.707031"/>
      <use xlink:href="#DejaVuSans-76" x="387.183594"/>
      <use xlink:href="#DejaVuSans-65" x="446.363281"/>
      <use xlink:href="#DejaVuSans-72" x="507.886719"/>
      <use xlink:href="#DejaVuSans-73" x="549"/>
      <use xlink:href="#DejaVuSans-61" x="601.099609"/>
      <use xlink:href="#DejaVuSans-72" x="662.378906"/>
      <use xlink:href="#DejaVuSans-69" x="703.492188"/>
      <use xlink:href="#DejaVuSans-61" x="731.275391"/>
      <use xlink:href="#DejaVuSans-6c" x="792.554688"/>
      <use xlink:href="#DejaVuSans-20" x="820.337891"/>
      <use xlink:href="#DejaVuSans-56" x="852.125"/>
      <use xlink:href="#DejaVuSans-61" x="912.783203"/>
      <use xlink:href="#DejaVuSans-6c" x="974.0625"/>
      <use xlink:href="#DejaVuSans-69" x="1001.845703"/>
      <use xlink:href="#DejaVuSans-64" x="1029.628906"/>
      <use xlink:href="#DejaVuSans-61" x="1093.105469"/>
      <use xlink:href="#DejaVuSans-74" x="1154.384766"/>
      <use xlink:href="#DejaVuSans-69" x="1193.59375"/>
      <use xlink:href="#DejaVuSans-6f" x="1221.376953"/>
      <use xlink:href="#DejaVuSans-6e" x="1282.558594"/>
      <use xlink:href="#DejaVuSans-20" x="1345.9375"/>
      <use xlink:href="#DejaVuSans-41" x="1377.724609"/>
      <use xlink:href="#DejaVuSans-63" x="1444.382812"/>
      <use xlink:href="#DejaVuSans-63" x="1499.363281"/>
      <use xlink:href="#DejaVuSans-75" x="1554.34375"/>
      <use xlink:href="#DejaVuSans-72" x="1617.722656"/>
      <use xlink:href="#DejaVuSans-61" x="1658.835938"/>
      <use xlink:href="#DejaVuSans-63" x="1720.115234"/>
      <use xlink:href="#DejaVuSans-79" x="1775.095703"/>
     </g>
    </g>
   </g>
  </g>
 </g>
 <defs>
  <clipPath id="pae5820a827">
   <rect x="57.6" y="41.472" width="357.12" height="266.112"/>
  </clipPath>
 </defs>
</svg>
