<?xml version="1.0" encoding="utf-8" standalone="no"?>
<!DOCTYPE svg PUBLIC "-//W3C//DTD SVG 1.1//EN"
  "http://www.w3.org/Graphics/SVG/1.1/DTD/svg11.dtd">
<svg xmlns:xlink="http://www.w3.org/1999/xlink" width="460.8pt" height="345.6pt" viewBox="0 0 460.8 345.6" xmlns="http://www.w3.org/2000/svg" version="1.1">
 <metadata>
  <rdf:RDF xmlns:dc="http://purl.org/dc/elements/1.1/" xmlns:cc="http://creativecommons.org/ns#" xmlns:rdf="http://www.w3.org/1999/02/22-rdf-syntax-ns#">
   <cc:Work>
    <dc:type rdf:resource="http://purl.org/dc/dcmitype/StillImage"/>
    <dc:date>2024-09-06T20:44:47.622242</dc:date>
    <dc:format>image/svg+xml</dc:format>
    <dc:creator>
     <cc:Agent>
      <dc:title>Matplotlib v3.9.1, https://matplotlib.org/</dc:title>
     </cc:Agent>
    </dc:creator>
   </cc:Work>
  </rdf:RDF>
 </metadata>
 <defs>
  <style type="text/css">*{stroke-linejoin: round; stroke-linecap: butt}</style>
 </defs>
 <g id="figure_1">
  <g id="patch_1">
   <path d="M 0 345.6 
L 460.8 345.6 
L 460.8 0 
L 0 0 
z
" style="fill: #ffffff"/>
  </g>
  <g id="axes_1">
   <g id="patch_2">
    <path d="M 57.6 307.584 
L 414.72 307.584 
L 414.72 41.472 
L 57.6 41.472 
z
" style="fill: #ffffff"/>
   </g>
   <g id="matplotlib.axis_1">
    <g id="xtick_1">
     <g id="line2d_1">
      <defs>
       <path id="m5605358b98" d="M 0 0 
L 0 3.5 
" style="stroke: #000000; stroke-width: 0.8"/>
      </defs>
      <g>
       <use xlink:href="#m5605358b98" x="73.832727" y="307.584" style="stroke: #000000; stroke-width: 0.8"/>
      </g>
     </g>
     <g id="text_1">
      <!-- 1 -->
      <g transform="translate(70.651477 322.182437) scale(0.1 -0.1)">
       <defs>
        <path id="DejaVuSans-31" d="M 794 531 
L 1825 531 
L 1825 4091 
L 703 3866 
L 703 4441 
L 1819 4666 
L 2450 4666 
L 2450 531 
L 3481 531 
L 3481 0 
L 794 0 
L 794 531 
z
" transform="scale(0.015625)"/>
       </defs>
       <use xlink:href="#DejaVuSans-31"/>
      </g>
     </g>
    </g>
    <g id="xtick_2">
     <g id="line2d_2">
      <g>
       <use xlink:href="#m5605358b98" x="109.262733" y="307.584" style="stroke: #000000; stroke-width: 0.8"/>
      </g>
     </g>
     <g id="text_2">
      <!-- 50 -->
      <g transform="translate(102.900233 322.182437) scale(0.1 -0.1)">
       <defs>
        <path id="DejaVuSans-35" d="M 691 4666 
L 3169 4666 
L 3169 4134 
L 1269 4134 
L 1269 2991 
Q 1406 3038 1543 3061 
Q 1681 3084 1819 3084 
Q 2600 3084 3056 2656 
Q 3513 2228 3513 1497 
Q 3513 744 3044 326 
Q 2575 -91 1722 -91 
Q 1428 -91 1123 -41 
Q 819 9 494 109 
L 494 744 
Q 775 591 1075 516 
Q 1375 441 1709 441 
Q 2250 441 2565 725 
Q 2881 1009 2881 1497 
Q 2881 1984 2565 2268 
Q 2250 2553 1709 2553 
Q 1456 2553 1204 2497 
Q 953 2441 691 2322 
L 691 4666 
z
" transform="scale(0.015625)"/>
        <path id="DejaVuSans-30" d="M 2034 4250 
Q 1547 4250 1301 3770 
Q 1056 3291 1056 2328 
Q 1056 1369 1301 889 
Q 1547 409 2034 409 
Q 2525 409 2770 889 
Q 3016 1369 3016 2328 
Q 3016 3291 2770 3770 
Q 2525 4250 2034 4250 
z
M 2034 4750 
Q 2819 4750 3233 4129 
Q 3647 3509 3647 2328 
Q 3647 1150 3233 529 
Q 2819 -91 2034 -91 
Q 1250 -91 836 529 
Q 422 1150 422 2328 
Q 422 3509 836 4129 
Q 1250 4750 2034 4750 
z
" transform="scale(0.015625)"/>
       </defs>
       <use xlink:href="#DejaVuSans-35"/>
       <use xlink:href="#DejaVuSans-30" x="63.623047"/>
      </g>
     </g>
    </g>
    <g id="xtick_3">
     <g id="line2d_3">
      <g>
       <use xlink:href="#m5605358b98" x="145.415801" y="307.584" style="stroke: #000000; stroke-width: 0.8"/>
      </g>
     </g>
     <g id="text_3">
      <!-- 100 -->
      <g transform="translate(135.872051 322.182437) scale(0.1 -0.1)">
       <use xlink:href="#DejaVuSans-31"/>
       <use xlink:href="#DejaVuSans-30" x="63.623047"/>
       <use xlink:href="#DejaVuSans-30" x="127.246094"/>
      </g>
     </g>
    </g>
    <g id="xtick_4">
     <g id="line2d_4">
      <g>
       <use xlink:href="#m5605358b98" x="181.568868" y="307.584" style="stroke: #000000; stroke-width: 0.8"/>
      </g>
     </g>
     <g id="text_4">
      <!-- 150 -->
      <g transform="translate(172.025118 322.182437) scale(0.1 -0.1)">
       <use xlink:href="#DejaVuSans-31"/>
       <use xlink:href="#DejaVuSans-35" x="63.623047"/>
       <use xlink:href="#DejaVuSans-30" x="127.246094"/>
      </g>
     </g>
    </g>
    <g id="xtick_5">
     <g id="line2d_5">
      <g>
       <use xlink:href="#m5605358b98" x="217.721936" y="307.584" style="stroke: #000000; stroke-width: 0.8"/>
      </g>
     </g>
     <g id="text_5">
      <!-- 200 -->
      <g transform="translate(208.178186 322.182437) scale(0.1 -0.1)">
       <defs>
        <path id="DejaVuSans-32" d="M 1228 531 
L 3431 531 
L 3431 0 
L 469 0 
L 469 531 
Q 828 903 1448 1529 
Q 2069 2156 2228 2338 
Q 2531 2678 2651 2914 
Q 2772 3150 2772 3378 
Q 2772 3750 2511 3984 
Q 2250 4219 1831 4219 
Q 1534 4219 1204 4116 
Q 875 4013 500 3803 
L 500 4441 
Q 881 4594 1212 4672 
Q 1544 4750 1819 4750 
Q 2544 4750 2975 4387 
Q 3406 4025 3406 3419 
Q 3406 3131 3298 2873 
Q 3191 2616 2906 2266 
Q 2828 2175 2409 1742 
Q 1991 1309 1228 531 
z
" transform="scale(0.015625)"/>
       </defs>
       <use xlink:href="#DejaVuSans-32"/>
       <use xlink:href="#DejaVuSans-30" x="63.623047"/>
       <use xlink:href="#DejaVuSans-30" x="127.246094"/>
      </g>
     </g>
    </g>
    <g id="xtick_6">
     <g id="line2d_6">
      <g>
       <use xlink:href="#m5605358b98" x="253.875003" y="307.584" style="stroke: #000000; stroke-width: 0.8"/>
      </g>
     </g>
     <g id="text_6">
      <!-- 250 -->
      <g transform="translate(244.331253 322.182437) scale(0.1 -0.1)">
       <use xlink:href="#DejaVuSans-32"/>
       <use xlink:href="#DejaVuSans-35" x="63.623047"/>
       <use xlink:href="#DejaVuSans-30" x="127.246094"/>
      </g>
     </g>
    </g>
    <g id="xtick_7">
     <g id="line2d_7">
      <g>
       <use xlink:href="#m5605358b98" x="290.02807" y="307.584" style="stroke: #000000; stroke-width: 0.8"/>
      </g>
     </g>
     <g id="text_7">
      <!-- 300 -->
      <g transform="translate(280.48432 322.182437) scale(0.1 -0.1)">
       <defs>
        <path id="DejaVuSans-33" d="M 2597 2516 
Q 3050 2419 3304 2112 
Q 3559 1806 3559 1356 
Q 3559 666 3084 287 
Q 2609 -91 1734 -91 
Q 1441 -91 1130 -33 
Q 819 25 488 141 
L 488 750 
Q 750 597 1062 519 
Q 1375 441 1716 441 
Q 2309 441 2620 675 
Q 2931 909 2931 1356 
Q 2931 1769 2642 2001 
Q 2353 2234 1838 2234 
L 1294 2234 
L 1294 2753 
L 1863 2753 
Q 2328 2753 2575 2939 
Q 2822 3125 2822 3475 
Q 2822 3834 2567 4026 
Q 2313 4219 1838 4219 
Q 1578 4219 1281 4162 
Q 984 4106 628 3988 
L 628 4550 
Q 988 4650 1302 4700 
Q 1616 4750 1894 4750 
Q 2613 4750 3031 4423 
Q 3450 4097 3450 3541 
Q 3450 3153 3228 2886 
Q 3006 2619 2597 2516 
z
" transform="scale(0.015625)"/>
       </defs>
       <use xlink:href="#DejaVuSans-33"/>
       <use xlink:href="#DejaVuSans-30" x="63.623047"/>
       <use xlink:href="#DejaVuSans-30" x="127.246094"/>
      </g>
     </g>
    </g>
    <g id="xtick_8">
     <g id="line2d_8">
      <g>
       <use xlink:href="#m5605358b98" x="326.181138" y="307.584" style="stroke: #000000; stroke-width: 0.8"/>
      </g>
     </g>
     <g id="text_8">
      <!-- 350 -->
      <g transform="translate(316.637388 322.182437) scale(0.1 -0.1)">
       <use xlink:href="#DejaVuSans-33"/>
       <use xlink:href="#DejaVuSans-35" x="63.623047"/>
       <use xlink:href="#DejaVuSans-30" x="127.246094"/>
      </g>
     </g>
    </g>
    <g id="xtick_9">
     <g id="line2d_9">
      <g>
       <use xlink:href="#m5605358b98" x="362.334205" y="307.584" style="stroke: #000000; stroke-width: 0.8"/>
      </g>
     </g>
     <g id="text_9">
      <!-- 400 -->
      <g transform="translate(352.790455 322.182437) scale(0.1 -0.1)">
       <defs>
        <path id="DejaVuSans-34" d="M 2419 4116 
L 825 1625 
L 2419 1625 
L 2419 4116 
z
M 2253 4666 
L 3047 4666 
L 3047 1625 
L 3713 1625 
L 3713 1100 
L 3047 1100 
L 3047 0 
L 2419 0 
L 2419 1100 
L 313 1100 
L 313 1709 
L 2253 4666 
z
" transform="scale(0.015625)"/>
       </defs>
       <use xlink:href="#DejaVuSans-34"/>
       <use xlink:href="#DejaVuSans-30" x="63.623047"/>
       <use xlink:href="#DejaVuSans-30" x="127.246094"/>
      </g>
     </g>
    </g>
    <g id="xtick_10">
     <g id="line2d_10">
      <g>
       <use xlink:href="#m5605358b98" x="398.487273" y="307.584" style="stroke: #000000; stroke-width: 0.8"/>
      </g>
     </g>
     <g id="text_10">
      <!-- 450 -->
      <g transform="translate(388.943523 322.182437) scale(0.1 -0.1)">
       <use xlink:href="#DejaVuSans-34"/>
       <use xlink:href="#DejaVuSans-35" x="63.623047"/>
       <use xlink:href="#DejaVuSans-30" x="127.246094"/>
      </g>
     </g>
    </g>
    <g id="text_11">
     <!-- Epochs -->
     <g transform="translate(218.244375 335.860562) scale(0.1 -0.1)">
      <defs>
       <path id="DejaVuSans-45" d="M 628 4666 
L 3578 4666 
L 3578 4134 
L 1259 4134 
L 1259 2753 
L 3481 2753 
L 3481 2222 
L 1259 2222 
L 1259 531 
L 3634 531 
L 3634 0 
L 628 0 
L 628 4666 
z
" transform="scale(0.015625)"/>
       <path id="DejaVuSans-70" d="M 1159 525 
L 1159 -1331 
L 581 -1331 
L 581 3500 
L 1159 3500 
L 1159 2969 
Q 1341 3281 1617 3432 
Q 1894 3584 2278 3584 
Q 2916 3584 3314 3078 
Q 3713 2572 3713 1747 
Q 3713 922 3314 415 
Q 2916 -91 2278 -91 
Q 1894 -91 1617 61 
Q 1341 213 1159 525 
z
M 3116 1747 
Q 3116 2381 2855 2742 
Q 2594 3103 2138 3103 
Q 1681 3103 1420 2742 
Q 1159 2381 1159 1747 
Q 1159 1113 1420 752 
Q 1681 391 2138 391 
Q 2594 391 2855 752 
Q 3116 1113 3116 1747 
z
" transform="scale(0.015625)"/>
       <path id="DejaVuSans-6f" d="M 1959 3097 
Q 1497 3097 1228 2736 
Q 959 2375 959 1747 
Q 959 1119 1226 758 
Q 1494 397 1959 397 
Q 2419 397 2687 759 
Q 2956 1122 2956 1747 
Q 2956 2369 2687 2733 
Q 2419 3097 1959 3097 
z
M 1959 3584 
Q 2709 3584 3137 3096 
Q 3566 2609 3566 1747 
Q 3566 888 3137 398 
Q 2709 -91 1959 -91 
Q 1206 -91 779 398 
Q 353 888 353 1747 
Q 353 2609 779 3096 
Q 1206 3584 1959 3584 
z
" transform="scale(0.015625)"/>
       <path id="DejaVuSans-63" d="M 3122 3366 
L 3122 2828 
Q 2878 2963 2633 3030 
Q 2388 3097 2138 3097 
Q 1578 3097 1268 2742 
Q 959 2388 959 1747 
Q 959 1106 1268 751 
Q 1578 397 2138 397 
Q 2388 397 2633 464 
Q 2878 531 3122 666 
L 3122 134 
Q 2881 22 2623 -34 
Q 2366 -91 2075 -91 
Q 1284 -91 818 406 
Q 353 903 353 1747 
Q 353 2603 823 3093 
Q 1294 3584 2113 3584 
Q 2378 3584 2631 3529 
Q 2884 3475 3122 3366 
z
" transform="scale(0.015625)"/>
       <path id="DejaVuSans-68" d="M 3513 2113 
L 3513 0 
L 2938 0 
L 2938 2094 
Q 2938 2591 2744 2837 
Q 2550 3084 2163 3084 
Q 1697 3084 1428 2787 
Q 1159 2491 1159 1978 
L 1159 0 
L 581 0 
L 581 4863 
L 1159 4863 
L 1159 2956 
Q 1366 3272 1645 3428 
Q 1925 3584 2291 3584 
Q 2894 3584 3203 3211 
Q 3513 2838 3513 2113 
z
" transform="scale(0.015625)"/>
       <path id="DejaVuSans-73" d="M 2834 3397 
L 2834 2853 
Q 2591 2978 2328 3040 
Q 2066 3103 1784 3103 
Q 1356 3103 1142 2972 
Q 928 2841 928 2578 
Q 928 2378 1081 2264 
Q 1234 2150 1697 2047 
L 1894 2003 
Q 2506 1872 2764 1633 
Q 3022 1394 3022 966 
Q 3022 478 2636 193 
Q 2250 -91 1575 -91 
Q 1294 -91 989 -36 
Q 684 19 347 128 
L 347 722 
Q 666 556 975 473 
Q 1284 391 1588 391 
Q 1994 391 2212 530 
Q 2431 669 2431 922 
Q 2431 1156 2273 1281 
Q 2116 1406 1581 1522 
L 1381 1569 
Q 847 1681 609 1914 
Q 372 2147 372 2553 
Q 372 3047 722 3315 
Q 1072 3584 1716 3584 
Q 2034 3584 2315 3537 
Q 2597 3491 2834 3397 
z
" transform="scale(0.015625)"/>
      </defs>
      <use xlink:href="#DejaVuSans-45"/>
      <use xlink:href="#DejaVuSans-70" x="63.183594"/>
      <use xlink:href="#DejaVuSans-6f" x="126.660156"/>
      <use xlink:href="#DejaVuSans-63" x="187.841797"/>
      <use xlink:href="#DejaVuSans-68" x="242.822266"/>
      <use xlink:href="#DejaVuSans-73" x="306.201172"/>
     </g>
    </g>
   </g>
   <g id="matplotlib.axis_2">
    <g id="ytick_1">
     <g id="line2d_11">
      <defs>
       <path id="mb26800b6d4" d="M 0 0 
L -3.5 0 
" style="stroke: #000000; stroke-width: 0.8"/>
      </defs>
      <g>
       <use xlink:href="#mb26800b6d4" x="57.6" y="256.949417" style="stroke: #000000; stroke-width: 0.8"/>
      </g>
     </g>
     <g id="text_12">
      <!-- 20 -->
      <g transform="translate(37.875 260.748636) scale(0.1 -0.1)">
       <use xlink:href="#DejaVuSans-32"/>
       <use xlink:href="#DejaVuSans-30" x="63.623047"/>
      </g>
     </g>
    </g>
    <g id="ytick_2">
     <g id="line2d_12">
      <g>
       <use xlink:href="#mb26800b6d4" x="57.6" y="198.156766" style="stroke: #000000; stroke-width: 0.8"/>
      </g>
     </g>
     <g id="text_13">
      <!-- 40 -->
      <g transform="translate(37.875 201.955985) scale(0.1 -0.1)">
       <use xlink:href="#DejaVuSans-34"/>
       <use xlink:href="#DejaVuSans-30" x="63.623047"/>
      </g>
     </g>
    </g>
    <g id="ytick_3">
     <g id="line2d_13">
      <g>
       <use xlink:href="#mb26800b6d4" x="57.6" y="139.364115" style="stroke: #000000; stroke-width: 0.8"/>
      </g>
     </g>
     <g id="text_14">
      <!-- 60 -->
      <g transform="translate(37.875 143.163334) scale(0.1 -0.1)">
       <defs>
        <path id="DejaVuSans-36" d="M 2113 2584 
Q 1688 2584 1439 2293 
Q 1191 2003 1191 1497 
Q 1191 994 1439 701 
Q 1688 409 2113 409 
Q 2538 409 2786 701 
Q 3034 994 3034 1497 
Q 3034 2003 2786 2293 
Q 2538 2584 2113 2584 
z
M 3366 4563 
L 3366 3988 
Q 3128 4100 2886 4159 
Q 2644 4219 2406 4219 
Q 1781 4219 1451 3797 
Q 1122 3375 1075 2522 
Q 1259 2794 1537 2939 
Q 1816 3084 2150 3084 
Q 2853 3084 3261 2657 
Q 3669 2231 3669 1497 
Q 3669 778 3244 343 
Q 2819 -91 2113 -91 
Q 1303 -91 875 529 
Q 447 1150 447 2328 
Q 447 3434 972 4092 
Q 1497 4750 2381 4750 
Q 2619 4750 2861 4703 
Q 3103 4656 3366 4563 
z
" transform="scale(0.015625)"/>
       </defs>
       <use xlink:href="#DejaVuSans-36"/>
       <use xlink:href="#DejaVuSans-30" x="63.623047"/>
      </g>
     </g>
    </g>
    <g id="ytick_4">
     <g id="line2d_14">
      <g>
       <use xlink:href="#mb26800b6d4" x="57.6" y="80.571465" style="stroke: #000000; stroke-width: 0.8"/>
      </g>
     </g>
     <g id="text_15">
      <!-- 80 -->
      <g transform="translate(37.875 84.370683) scale(0.1 -0.1)">
       <defs>
        <path id="DejaVuSans-38" d="M 2034 2216 
Q 1584 2216 1326 1975 
Q 1069 1734 1069 1313 
Q 1069 891 1326 650 
Q 1584 409 2034 409 
Q 2484 409 2743 651 
Q 3003 894 3003 1313 
Q 3003 1734 2745 1975 
Q 2488 2216 2034 2216 
z
M 1403 2484 
Q 997 2584 770 2862 
Q 544 3141 544 3541 
Q 544 4100 942 4425 
Q 1341 4750 2034 4750 
Q 2731 4750 3128 4425 
Q 3525 4100 3525 3541 
Q 3525 3141 3298 2862 
Q 3072 2584 2669 2484 
Q 3125 2378 3379 2068 
Q 3634 1759 3634 1313 
Q 3634 634 3220 271 
Q 2806 -91 2034 -91 
Q 1263 -91 848 271 
Q 434 634 434 1313 
Q 434 1759 690 2068 
Q 947 2378 1403 2484 
z
M 1172 3481 
Q 1172 3119 1398 2916 
Q 1625 2713 2034 2713 
Q 2441 2713 2670 2916 
Q 2900 3119 2900 3481 
Q 2900 3844 2670 4047 
Q 2441 4250 2034 4250 
Q 1625 4250 1398 4047 
Q 1172 3844 1172 3481 
z
" transform="scale(0.015625)"/>
       </defs>
       <use xlink:href="#DejaVuSans-38"/>
       <use xlink:href="#DejaVuSans-30" x="63.623047"/>
      </g>
     </g>
    </g>
    <g id="text_16">
     <!-- Accuracy -->
     <g transform="translate(31.795312 197.356125) rotate(-90) scale(0.1 -0.1)">
      <defs>
       <path id="DejaVuSans-41" d="M 2188 4044 
L 1331 1722 
L 3047 1722 
L 2188 4044 
z
M 1831 4666 
L 2547 4666 
L 4325 0 
L 3669 0 
L 3244 1197 
L 1141 1197 
L 716 0 
L 50 0 
L 1831 4666 
z
" transform="scale(0.015625)"/>
       <path id="DejaVuSans-75" d="M 544 1381 
L 544 3500 
L 1119 3500 
L 1119 1403 
Q 1119 906 1312 657 
Q 1506 409 1894 409 
Q 2359 409 2629 706 
Q 2900 1003 2900 1516 
L 2900 3500 
L 3475 3500 
L 3475 0 
L 2900 0 
L 2900 538 
Q 2691 219 2414 64 
Q 2138 -91 1772 -91 
Q 1169 -91 856 284 
Q 544 659 544 1381 
z
M 1991 3584 
L 1991 3584 
z
" transform="scale(0.015625)"/>
       <path id="DejaVuSans-72" d="M 2631 2963 
Q 2534 3019 2420 3045 
Q 2306 3072 2169 3072 
Q 1681 3072 1420 2755 
Q 1159 2438 1159 1844 
L 1159 0 
L 581 0 
L 581 3500 
L 1159 3500 
L 1159 2956 
Q 1341 3275 1631 3429 
Q 1922 3584 2338 3584 
Q 2397 3584 2469 3576 
Q 2541 3569 2628 3553 
L 2631 2963 
z
" transform="scale(0.015625)"/>
       <path id="DejaVuSans-61" d="M 2194 1759 
Q 1497 1759 1228 1600 
Q 959 1441 959 1056 
Q 959 750 1161 570 
Q 1363 391 1709 391 
Q 2188 391 2477 730 
Q 2766 1069 2766 1631 
L 2766 1759 
L 2194 1759 
z
M 3341 1997 
L 3341 0 
L 2766 0 
L 2766 531 
Q 2569 213 2275 61 
Q 1981 -91 1556 -91 
Q 1019 -91 701 211 
Q 384 513 384 1019 
Q 384 1609 779 1909 
Q 1175 2209 1959 2209 
L 2766 2209 
L 2766 2266 
Q 2766 2663 2505 2880 
Q 2244 3097 1772 3097 
Q 1472 3097 1187 3025 
Q 903 2953 641 2809 
L 641 3341 
Q 956 3463 1253 3523 
Q 1550 3584 1831 3584 
Q 2591 3584 2966 3190 
Q 3341 2797 3341 1997 
z
" transform="scale(0.015625)"/>
       <path id="DejaVuSans-79" d="M 2059 -325 
Q 1816 -950 1584 -1140 
Q 1353 -1331 966 -1331 
L 506 -1331 
L 506 -850 
L 844 -850 
Q 1081 -850 1212 -737 
Q 1344 -625 1503 -206 
L 1606 56 
L 191 3500 
L 800 3500 
L 1894 763 
L 2988 3500 
L 3597 3500 
L 2059 -325 
z
" transform="scale(0.015625)"/>
      </defs>
      <use xlink:href="#DejaVuSans-41"/>
      <use xlink:href="#DejaVuSans-63" x="66.658203"/>
      <use xlink:href="#DejaVuSans-63" x="121.638672"/>
      <use xlink:href="#DejaVuSans-75" x="176.619141"/>
      <use xlink:href="#DejaVuSans-72" x="239.998047"/>
      <use xlink:href="#DejaVuSans-61" x="281.111328"/>
      <use xlink:href="#DejaVuSans-63" x="342.390625"/>
      <use xlink:href="#DejaVuSans-79" x="397.371094"/>
     </g>
    </g>
   </g>
   <g id="line2d_15">
    <path d="M 73.832727 290.44947 
L 74.555789 266.415034 
L 75.27885 238.053459 
L 76.001911 214.636346 
L 76.724973 194.970205 
L 77.448034 180.824693 
L 78.171095 169.842226 
L 79.617218 151.939864 
L 80.340279 146.860178 
L 81.063341 139.96968 
L 81.786402 137.906058 
L 83.232525 129.140073 
L 84.678647 122.084955 
L 85.401709 119.380493 
L 86.12477 117.158131 
L 86.847832 114.048 
L 87.570893 112.331255 
L 89.017016 106.763591 
L 89.740077 104.952777 
L 90.463138 104.182593 
L 91.1862 102.695139 
L 91.909261 100.1259 
L 92.632322 99.826058 
L 93.355384 99.114667 
L 94.078445 98.761911 
L 94.801506 98.150467 
L 95.524568 122.061438 
L 96.247629 124.107423 
L 96.97069 121.72632 
L 97.693752 120.503433 
L 98.416813 118.398656 
L 99.139874 117.687265 
L 99.862936 115.370835 
L 100.585997 115.159181 
L 101.309059 110.996661 
L 102.755181 110.120651 
L 103.478243 106.781228 
L 104.924365 107.298604 
L 105.647427 104.235507 
L 106.370488 102.201281 
L 107.093549 101.860283 
L 107.816611 100.69031 
L 109.262733 98.808945 
L 109.985795 97.456714 
L 110.708856 97.856504 
L 111.431917 95.857554 
L 112.154979 94.840441 
L 114.324163 92.241806 
L 115.047224 91.395192 
L 115.770285 89.337449 
L 116.493347 88.843591 
L 117.216408 87.973459 
L 117.93947 88.584903 
L 118.662531 87.48548 
L 119.385592 84.651675 
L 120.108654 84.416504 
L 120.831715 83.00548 
L 121.554776 83.852094 
L 122.277838 81.712042 
L 123.000899 80.471517 
L 123.72396 79.813039 
L 124.447022 78.137449 
L 125.170083 77.949312 
L 125.893144 77.179129 
L 126.616206 76.203171 
L 127.339267 75.756346 
L 128.78539 75.474142 
L 129.508451 73.469312 
L 130.231512 73.00485 
L 131.677635 72.416924 
L 132.400696 70.976504 
L 133.123758 71.429207 
L 133.846819 70.806005 
L 134.569881 71.335139 
L 135.292942 71.08821 
L 136.016003 69.677186 
L 136.739065 69.935874 
L 137.462126 70.035822 
L 138.185187 69.753617 
L 138.908249 90.577974 
L 139.63131 94.634667 
L 140.354371 96.710047 
L 141.077433 96.374929 
L 141.800494 95.393092 
L 142.523555 93.776294 
L 143.246617 94.681701 
L 143.969678 94.522961 
L 144.692739 93.235402 
L 145.415801 92.441701 
L 146.138862 94.164325 
L 146.861923 91.830257 
L 148.308046 90.613249 
L 149.031108 90.407475 
L 149.754169 90.066478 
L 150.47723 89.131675 
L 151.200292 89.625533 
L 151.923353 89.784273 
L 152.646414 88.067528 
L 153.369476 88.461438 
L 154.092537 87.291465 
L 154.815598 88.190992 
L 156.261721 85.939234 
L 156.984782 86.056819 
L 157.707844 86.556556 
L 158.430905 84.681071 
L 159.153966 85.903958 
L 159.877028 84.963276 
L 160.600089 83.628682 
L 161.32315 83.72863 
L 162.769273 83.134824 
L 164.215396 81.853144 
L 164.938457 81.535664 
L 165.661519 80.859549 
L 166.38458 81.041806 
L 167.107641 80.536189 
L 167.830703 80.84779 
L 168.553764 80.424483 
L 169.276825 79.542593 
L 169.999887 79.307423 
L 170.722948 79.342698 
L 172.169071 77.867003 
L 172.892132 76.802856 
L 173.615193 76.644115 
L 174.338255 77.902278 
L 175.784377 76.015034 
L 176.507439 76.162016 
L 177.2305 75.550572 
L 177.953561 73.939654 
L 178.676623 75.979759 
L 179.399684 74.498184 
L 180.845807 72.734404 
L 181.568868 73.01073 
L 182.29193 72.728525 
L 183.014991 71.587948 
L 183.738052 72.04653 
L 184.461114 70.882436 
L 185.907236 70.835402 
L 186.630298 70.476766 
L 187.353359 70.394457 
L 188.07642 68.683591 
L 188.799482 68.636556 
L 189.522543 69.053984 
L 190.245604 68.566005 
L 190.968666 67.860493 
L 191.691727 66.68464 
L 192.414788 67.119706 
L 193.860911 65.64989 
L 194.583972 65.56758 
L 195.307034 64.785638 
L 196.030095 64.303538 
L 196.753157 64.374089 
L 198.922341 62.939549 
L 199.645402 62.392777 
L 200.368463 61.987108 
L 201.091525 62.345743 
L 201.814586 61.663748 
L 202.537647 61.193407 
L 203.260709 61.187528 
L 203.98377 60.670152 
L 204.706831 59.764745 
L 205.429893 59.923486 
L 206.152954 59.72947 
L 206.876015 58.512462 
L 208.322138 58.871097 
L 209.045199 58.494824 
L 209.768261 58.412514 
L 210.491322 58.976924 
L 211.214383 57.618814 
L 211.937445 57.818709 
L 212.660506 57.777554 
L 213.383568 57.348367 
L 214.106629 57.548262 
L 215.552752 55.943223 
L 216.275813 56.119601 
L 216.998874 55.284745 
L 217.721936 55.696294 
L 218.444997 55.149522 
L 219.168058 56.043171 
L 219.89112 55.766845 
L 220.614181 56.484115 
L 221.337242 55.537554 
L 222.060304 55.431727 
L 222.783365 56.190152 
L 223.506426 54.890835 
L 224.229488 55.243591 
L 224.952549 55.996136 
L 225.67561 78.208 
L 226.398672 83.352357 
L 227.121733 82.793827 
L 227.844794 83.693354 
L 228.567856 83.611045 
L 229.290917 83.752147 
L 230.013979 83.240651 
L 230.73704 83.1701 
L 231.460101 82.147108 
L 232.183163 82.840861 
L 232.906224 82.688 
L 233.629285 83.593407 
L 234.352347 81.723801 
L 235.075408 81.97073 
L 235.798469 81.294614 
L 236.521531 81.976609 
L 237.244592 81.335769 
L 237.967653 82.499864 
L 238.690715 81.623853 
L 239.413776 81.418079 
L 240.136837 80.906583 
L 240.859899 80.107003 
L 241.58296 81.235822 
L 242.306021 79.613144 
L 243.029083 80.983013 
L 243.752144 80.618499 
L 244.475206 79.948262 
L 245.198267 79.677816 
L 246.64439 78.831202 
L 247.367451 79.101648 
L 248.090512 78.53136 
L 248.813574 78.654824 
L 249.536635 78.631307 
L 250.259696 78.907633 
L 250.982758 78.249155 
L 251.705819 77.343748 
L 252.42888 78.496084 
L 253.151942 76.985113 
L 253.875003 78.13157 
L 254.598064 77.467213 
L 255.321126 76.649995 
L 256.044187 77.137974 
L 256.767248 76.749942 
L 257.49031 77.243801 
L 258.213371 76.620598 
L 258.936432 76.820493 
L 259.659494 75.685795 
L 260.382555 75.615244 
L 261.105617 76.085585 
L 261.828678 77.102698 
L 262.551739 75.262488 
L 263.997862 76.150257 
L 265.443985 74.545218 
L 266.167046 75.944483 
L 266.890107 74.44527 
L 267.613169 75.303643 
L 268.33623 74.098394 
L 269.059291 74.886215 
L 269.782353 74.780388 
L 270.505414 74.956766 
L 271.228475 74.086635 
L 271.951537 74.20422 
L 272.674598 73.369365 
L 273.397659 73.00485 
L 274.120721 73.898499 
L 274.843782 73.945533 
L 276.289905 72.857869 
L 277.012966 72.828472 
L 277.736028 72.358131 
L 279.905212 72.169995 
L 280.628273 72.752042 
L 281.351334 72.722646 
L 282.074396 71.799601 
L 282.797457 71.270467 
L 284.24358 71.958341 
L 284.966641 70.829522 
L 285.689702 70.088735 
L 286.412764 70.159286 
L 287.135825 70.670782 
L 287.858886 70.276871 
L 288.581948 70.065218 
L 289.305009 70.218079 
L 290.751132 70.088735 
L 291.474193 69.524325 
L 292.197255 70.500283 
L 292.920316 69.418499 
L 294.366439 69.347948 
L 295.0895 68.836451 
L 295.812561 68.742383 
L 297.258684 68.183853 
L 297.981745 68.477816 
L 298.704807 67.760546 
L 299.427868 68.93052 
L 301.597052 67.360756 
L 302.320113 67.578289 
L 303.043175 67.472462 
L 303.766236 66.725795 
L 304.489297 66.461228 
L 305.212359 65.614614 
L 305.93542 65.720441 
L 306.658481 65.696924 
L 307.381543 66.002646 
L 308.104604 65.979129 
L 308.827666 66.237816 
L 309.550727 65.32653 
L 310.273788 65.926215 
L 310.99685 64.679811 
L 312.442972 64.744483 
L 313.166034 65.608735 
L 313.889095 63.874352 
L 314.612156 64.374089 
L 315.335218 63.974299 
L 316.78134 62.727895 
L 318.227463 63.427528 
L 319.673586 62.704378 
L 320.396647 62.780808 
L 321.119708 63.40989 
L 321.84277 62.0459 
L 324.735015 61.534404 
L 325.458077 61.193407 
L 326.904199 60.076346 
L 327.627261 60.329155 
L 328.350322 60.746583 
L 329.073383 60.399706 
L 329.796445 60.440861 
L 330.519506 59.700073 
L 331.242567 60.011675 
L 331.965629 59.852934 
L 332.68869 59.029837 
L 333.411751 59.400231 
L 334.134813 59.270887 
L 334.857874 59.8059 
L 335.580935 58.247895 
L 336.303997 58.006845 
L 337.027058 57.959811 
L 337.750119 57.277816 
L 338.473181 57.953932 
L 339.196242 57.507108 
L 339.919304 57.57178 
L 340.642365 56.660493 
L 341.365426 56.92506 
L 342.088488 56.537029 
L 342.811549 56.878026 
L 343.53461 55.108367 
L 344.980733 56.237186 
L 345.703794 55.48464 
L 347.149917 55.049575 
L 347.872978 55.655139 
L 348.59604 54.726215 
L 349.319101 54.843801 
L 350.042162 53.985428 
L 350.765224 54.514562 
L 351.488285 54.679181 
L 352.211346 54.226478 
L 352.934408 54.402856 
L 353.657469 54.708577 
L 354.38053 54.267633 
L 355.103592 54.743853 
L 355.826653 53.838446 
L 356.549715 54.414614 
L 357.272776 55.220073 
L 357.995837 54.532199 
L 358.718899 54.297029 
L 359.44196 54.561596 
L 360.165021 54.267633 
L 360.888083 54.673302 
L 361.611144 54.737974 
L 362.334205 53.973669 
L 363.057267 54.696819 
L 363.780328 55.026058 
L 364.503389 54.344063 
L 365.226451 55.267108 
L 365.949512 54.884955 
L 366.672573 54.837921 
L 367.395635 54.349942 
L 368.118696 54.667423 
L 368.841757 53.779654 
L 369.564819 55.102488 
L 370.28788 54.0501 
L 371.010941 54.626268 
L 371.734003 54.826163 
L 372.457064 53.938394 
L 373.180126 53.961911 
L 374.626248 54.855559 
L 375.34931 54.502803 
L 376.072371 54.473407 
L 376.795432 54.749732 
L 377.518494 54.473407 
L 378.241555 54.361701 
L 378.964616 54.632147 
L 379.687678 55.184798 
L 380.410739 53.89136 
L 381.856862 54.68506 
L 382.579923 53.568 
L 383.302984 54.414614 
L 384.749107 54.538079 
L 385.472168 55.173039 
L 386.19523 54.961386 
L 387.641353 53.779654 
L 388.364414 54.585113 
L 389.087475 54.244115 
L 389.810537 54.338184 
L 391.256659 54.167685 
L 391.979721 53.944273 
L 392.702782 54.549837 
L 393.425843 54.349942 
L 394.148905 54.914352 
L 394.871966 54.12653 
L 395.595027 54.432252 
L 396.318089 54.52632 
L 397.04115 54.032462 
L 397.764211 54.44401 
L 398.487273 54.391097 
L 398.487273 54.391097 
" clip-path="url(#p410db2b200)" style="fill: none; stroke: #1f77b4; stroke-width: 1.5; stroke-linecap: square"/>
   </g>
   <g id="line2d_16">
    <path d="M 73.832727 284.023433 
L 74.555789 260.036031 
L 75.27885 231.40401 
L 77.448034 182.37094 
L 78.171095 178.28485 
L 79.617218 161.793512 
L 80.340279 160.382488 
L 81.063341 154.121071 
L 81.786402 151.269627 
L 82.509463 143.391412 
L 83.232525 143.920546 
L 84.678647 135.836556 
L 85.401709 132.749942 
L 86.12477 124.401386 
L 86.847832 124.871727 
L 87.570893 123.019759 
L 88.293954 119.110047 
L 89.017016 117.199286 
L 89.740077 115.905848 
L 90.463138 113.17199 
L 91.1862 111.08485 
L 91.909261 110.996661 
L 92.632322 111.173039 
L 93.355384 109.40926 
L 94.078445 109.40926 
L 94.801506 109.203486 
L 95.524568 135.718971 
L 96.247629 138.217659 
L 96.97069 135.865953 
L 97.693752 131.368315 
L 98.416813 129.986688 
L 99.139874 124.577764 
L 99.862936 125.694824 
L 100.585997 123.019759 
L 101.309059 121.608735 
L 102.03212 124.989312 
L 102.755181 122.167265 
L 103.478243 118.375139 
L 104.201304 117.72842 
L 104.924365 115.435507 
L 105.647427 113.583538 
L 106.370488 113.759916 
L 107.093549 112.231307 
L 107.816611 111.584588 
L 108.539672 108.674352 
L 109.262733 110.496924 
L 109.985795 111.702173 
L 110.708856 107.469102 
L 111.431917 104.647055 
L 112.154979 104.941018 
L 113.601101 106.469627 
L 114.324163 103.412409 
L 115.047224 104.000336 
L 115.770285 101.32527 
L 116.493347 102.501123 
L 117.216408 99.355717 
L 117.93947 98.591412 
L 118.662531 98.738394 
L 119.385592 99.826058 
L 120.108654 96.915822 
L 120.831715 95.063853 
L 121.554776 95.416609 
L 122.277838 95.00506 
L 123.000899 93.888 
L 123.72396 91.00716 
L 124.447022 90.037081 
L 125.170083 91.477501 
L 125.893144 91.036556 
L 126.616206 91.800861 
L 127.339267 89.125795 
L 128.062328 88.949417 
L 128.78539 88.596661 
L 129.508451 87.920546 
L 130.231512 87.420808 
L 130.954574 86.538919 
L 131.677635 86.097974 
L 132.400696 86.12737 
L 133.123758 85.627633 
L 133.846819 85.304273 
L 134.569881 85.274877 
L 135.292942 84.657554 
L 136.016003 85.715822 
L 136.739065 85.80401 
L 137.462126 85.01031 
L 138.185187 84.951517 
L 138.908249 109.791412 
L 139.63131 108.468577 
L 140.354371 111.08485 
L 141.077433 109.526845 
L 141.800494 104.794037 
L 142.523555 104.294299 
L 143.246617 106.52842 
L 143.969678 106.587213 
L 144.692739 104.147318 
L 145.415801 106.087475 
L 146.138862 105.146793 
L 146.861923 107.586688 
L 148.308046 97.709522 
L 149.031108 102.677501 
L 149.754169 100.913722 
L 150.47723 102.736294 
L 151.200292 101.942593 
L 151.923353 101.442856 
L 152.646414 101.119496 
L 153.369476 97.915297 
L 154.092537 100.413984 
L 154.815598 106.028682 
L 155.53866 99.767265 
L 156.261721 98.826583 
L 156.984782 101.442856 
L 157.707844 97.738919 
L 158.430905 100.472777 
L 159.153966 101.854404 
L 159.877028 95.769365 
L 160.600089 98.708997 
L 161.32315 98.532619 
L 162.046212 96.533669 
L 162.769273 97.32737 
L 163.492334 95.945743 
L 164.215396 95.622383 
L 164.938457 93.064903 
L 165.661519 96.386688 
L 166.38458 96.122121 
L 167.107641 94.946268 
L 167.830703 92.506373 
L 168.553764 91.271727 
L 169.276825 94.123171 
L 169.999887 92.212409 
L 170.722948 92.094824 
L 171.446009 91.742068 
L 172.892132 93.976189 
L 173.615193 90.77199 
L 174.338255 89.596136 
L 175.061316 90.742593 
L 175.784377 88.978814 
L 176.507439 90.918971 
L 177.2305 88.567265 
L 177.953561 89.919496 
L 179.399684 88.332094 
L 180.122745 86.744693 
L 180.845807 86.891675 
L 181.568868 87.362016 
L 182.29193 88.743643 
L 183.014991 89.596136 
L 183.738052 88.332094 
L 184.461114 88.831832 
L 185.184175 86.832882 
L 185.907236 87.538394 
L 186.630298 86.45073 
L 187.353359 84.804535 
L 188.07642 84.069627 
L 188.799482 85.451255 
L 190.245604 84.040231 
L 190.968666 84.392987 
L 191.691727 83.334719 
L 192.414788 84.334194 
L 193.13785 82.423433 
L 193.860911 81.982488 
L 194.583972 84.363591 
L 195.307034 82.599811 
L 196.030095 83.393512 
L 196.753157 82.452829 
L 197.476218 82.12947 
L 198.199279 80.36569 
L 198.922341 80.836031 
L 199.645402 80.483276 
L 200.368463 81.129995 
L 201.091525 80.395087 
L 201.814586 81.541543 
L 202.537647 79.601386 
L 203.260709 80.248105 
L 203.98377 78.895874 
L 204.706831 77.102698 
L 205.429893 78.454929 
L 206.152954 78.454929 
L 206.876015 78.160966 
L 207.599077 78.190362 
L 208.322138 78.6901 
L 209.045199 77.132094 
L 209.768261 77.132094 
L 210.491322 77.396661 
L 211.214383 77.514247 
L 211.937445 77.749417 
L 212.660506 76.338394 
L 213.383568 76.69115 
L 214.106629 76.779339 
L 214.82969 76.426583 
L 215.552752 76.661753 
L 216.275813 76.04443 
L 216.998874 75.926845 
L 217.721936 76.220808 
L 219.168058 75.926845 
L 219.89112 76.308997 
L 220.614181 75.838656 
L 221.337242 75.838656 
L 222.060304 75.632882 
L 222.783365 76.162016 
L 223.506426 76.191412 
L 224.952549 75.662278 
L 225.67561 100.090625 
L 226.398672 98.855979 
L 227.121733 102.265953 
L 227.844794 98.003486 
L 228.567856 99.679076 
L 229.290917 99.002961 
L 230.013979 100.237606 
L 230.73704 103.32422 
L 231.460101 103.441806 
L 232.183163 96.857029 
L 232.906224 97.680126 
L 233.629285 97.00401 
L 234.352347 104.176714 
L 235.075408 99.179339 
L 235.798469 96.915822 
L 236.521531 97.121596 
L 237.244592 98.297449 
L 237.967653 96.886425 
L 238.690715 99.238131 
L 239.413776 97.738919 
L 240.136837 95.798761 
L 240.859899 95.592987 
L 241.58296 93.858604 
L 243.029083 100.20821 
L 243.752144 102.383538 
L 244.475206 94.858079 
L 245.198267 95.181438 
L 245.921328 96.386688 
L 246.64439 94.622908 
L 247.367451 95.446005 
L 248.090512 94.328945 
L 248.813574 94.417134 
L 249.536635 95.798761 
L 250.259696 95.975139 
L 250.982758 93.32947 
L 251.705819 93.623433 
L 252.42888 97.297974 
L 253.151942 93.182488 
L 253.875003 95.622383 
L 254.598064 94.475927 
L 255.321126 93.917396 
L 256.044187 94.652304 
L 256.767248 92.183013 
L 257.49031 91.742068 
L 258.213371 92.888525 
L 258.936432 93.741018 
L 259.659494 96.592462 
L 260.382555 91.800861 
L 261.105617 93.594037 
L 261.828678 92.359391 
L 262.551739 92.036031 
L 263.274801 95.739969 
L 263.997862 91.506898 
L 264.720923 94.064378 
L 265.443985 92.859129 
L 266.167046 90.742593 
L 266.890107 94.093774 
L 267.613169 90.389837 
L 268.33623 92.800336 
L 269.059291 88.978814 
L 269.782353 93.182488 
L 270.505414 91.359916 
L 271.228475 89.00821 
L 271.951537 90.566215 
L 272.674598 88.537869 
L 273.397659 93.447055 
L 274.120721 89.831307 
L 274.843782 95.681176 
L 275.566843 90.331045 
L 276.289905 88.420283 
L 277.012966 93.741018 
L 277.736028 89.948892 
L 278.459089 89.596136 
L 279.18215 91.359916 
L 279.905212 89.478551 
L 280.628273 91.653879 
L 281.351334 91.271727 
L 282.074396 88.714247 
L 282.797457 88.596661 
L 283.520518 90.095874 
L 284.24358 87.773564 
L 284.966641 88.008735 
L 285.689702 89.860703 
L 287.135825 85.657029 
L 287.858886 89.243381 
L 288.581948 91.859654 
L 289.305009 89.155192 
L 290.02807 89.096399 
L 290.751132 86.274352 
L 291.474193 89.596136 
L 292.197255 89.096399 
L 292.920316 86.715297 
L 293.643377 86.333144 
L 294.366439 86.538919 
L 295.0895 87.802961 
L 296.535623 85.862803 
L 297.258684 84.628157 
L 297.981745 86.6859 
L 298.704807 84.040231 
L 299.427868 87.714772 
L 300.150929 87.685375 
L 300.873991 85.421858 
L 301.597052 87.215034 
L 302.320113 85.098499 
L 303.043175 85.510047 
L 303.766236 84.481176 
L 304.489297 86.039181 
L 305.212359 85.216084 
L 305.93542 86.333144 
L 306.658481 83.481701 
L 307.381543 84.099024 
L 308.104604 84.157816 
L 308.827666 84.745743 
L 309.550727 84.422383 
L 310.273788 83.687475 
L 310.99685 83.158341 
L 311.719911 84.45178 
L 312.442972 84.569365 
L 313.166034 84.951517 
L 313.889095 81.57094 
L 314.612156 81.747318 
L 315.335218 83.217134 
L 316.058279 83.511097 
L 316.78134 83.158341 
L 317.504402 80.92422 
L 318.227463 81.894299 
L 318.950524 83.275927 
L 319.673586 83.481701 
L 320.396647 83.511097 
L 321.119708 81.982488 
L 321.84277 80.836031 
L 322.565831 81.600336 
L 323.288892 83.158341 
L 324.011954 79.983538 
L 324.735015 81.335769 
L 325.458077 80.92422 
L 326.904199 80.777239 
L 327.627261 80.718446 
L 328.350322 80.806635 
L 329.073383 81.541543 
L 329.796445 79.660178 
L 330.519506 76.838131 
L 331.242567 79.483801 
L 331.965629 80.747843 
L 332.68869 81.335769 
L 333.411751 79.013459 
L 334.134813 78.601911 
L 334.857874 76.720546 
L 335.580935 78.278551 
L 336.303997 79.24863 
L 337.027058 78.572514 
L 337.750119 78.160966 
L 338.473181 77.396661 
L 339.196242 77.984588 
L 339.919304 79.219234 
L 340.642365 77.102698 
L 341.365426 79.072252 
L 342.088488 78.13157 
L 342.811549 77.661228 
L 343.53461 76.896924 
L 344.257672 78.13157 
L 344.980733 76.867528 
L 345.703794 78.160966 
L 346.426856 78.219759 
L 347.149917 76.955717 
L 347.872978 76.073827 
L 348.59604 77.190887 
L 349.319101 76.04443 
L 350.042162 75.456504 
L 350.765224 75.015559 
L 351.488285 76.073827 
L 352.211346 76.250205 
L 352.934408 75.926845 
L 353.657469 76.397186 
L 354.38053 76.720546 
L 355.103592 75.985638 
L 355.826653 76.132619 
L 356.549715 76.573564 
L 357.272776 77.279076 
L 357.995837 76.426583 
L 358.718899 77.220283 
L 360.165021 75.750467 
L 360.888083 78.36674 
L 362.334205 76.220808 
L 363.057267 76.779339 
L 363.780328 78.425533 
L 364.503389 78.043381 
L 365.226451 76.485375 
L 365.949512 78.160966 
L 366.672573 78.36674 
L 367.395635 76.838131 
L 368.118696 76.92632 
L 368.841757 75.985638 
L 369.564819 76.720546 
L 370.28788 77.690625 
L 371.010941 76.514772 
L 371.734003 76.250205 
L 372.457064 77.543643 
L 373.180126 76.749942 
L 373.903187 76.220808 
L 374.626248 77.690625 
L 375.34931 75.985638 
L 376.072371 75.721071 
L 376.795432 77.955192 
L 377.518494 77.279076 
L 378.241555 78.160966 
L 378.964616 77.24968 
L 379.687678 77.043906 
L 380.410739 77.132094 
L 381.1338 76.132619 
L 381.856862 76.191412 
L 382.579923 77.837606 
L 383.302984 75.074352 
L 384.749107 78.013984 
L 385.472168 76.749942 
L 386.19523 76.544168 
L 386.918291 75.574089 
L 387.641353 76.749942 
L 388.364414 78.954667 
L 389.087475 77.631832 
L 389.810537 76.749942 
L 390.533598 75.515297 
L 391.256659 77.132094 
L 391.979721 76.308997 
L 392.702782 76.573564 
L 393.425843 77.925795 
L 394.148905 76.36779 
L 394.871966 76.573564 
L 395.595027 77.279076 
L 396.318089 75.956241 
L 397.04115 79.777764 
L 397.764211 77.308472 
L 398.487273 77.48485 
L 398.487273 77.48485 
" clip-path="url(#p410db2b200)" style="fill: none; stroke: #ff7f0e; stroke-width: 1.5; stroke-linecap: square"/>
   </g>
   <g id="line2d_17">
    <path d="M 73.832727 279.989963 
L 74.555789 262.261039 
L 75.27885 239.098793 
L 76.001911 226.377239 
L 77.448034 212.500115 
L 78.894157 194.750908 
L 79.617218 195.379402 
L 80.340279 192.682877 
L 81.063341 195.987612 
L 82.509463 182.343601 
L 83.232525 183.681722 
L 83.955586 177.640189 
L 84.678647 182.090205 
L 85.401709 175.227633 
L 86.12477 164.736084 
L 86.847832 168.57789 
L 87.570893 164.482688 
L 88.293954 162.759475 
L 89.017016 159.03937 
L 89.740077 159.150782 
L 90.463138 161.53306 
L 91.1862 160.701732 
L 91.909261 157.914079 
L 92.632322 159.009092 
L 93.355384 157.366719 
L 94.078445 156.890499 
L 94.801506 156.991916 
L 95.524568 177.518488 
L 96.247629 184.472189 
L 96.97069 174.953953 
L 97.693752 177.741606 
L 98.416813 169.094971 
L 99.139874 168.719874 
L 99.862936 175.268199 
L 100.585997 168.202793 
L 101.309059 174.933669 
L 102.03212 172.34885 
L 102.755181 167.229774 
L 103.478243 163.712504 
L 104.201304 165.53684 
L 104.924365 162.100703 
L 105.647427 157.650688 
L 106.370488 162.070131 
L 107.093549 160.904567 
L 107.816611 162.343811 
L 108.539672 162.496084 
L 109.262733 166.043927 
L 109.985795 162.74948 
L 110.708856 154.761617 
L 112.154979 151.862551 
L 113.601101 160.276073 
L 114.324163 154.660199 
L 115.047224 156.758509 
L 115.770285 153.413501 
L 116.493347 151.781417 
L 117.216408 152.764724 
L 117.93947 150.453585 
L 118.662531 150.980661 
L 119.385592 153.494635 
L 120.108654 148.446698 
L 120.831715 148.953491 
L 121.554776 147.574803 
L 122.277838 144.564325 
L 123.000899 147.209995 
L 123.72396 143.702719 
L 124.447022 144.888567 
L 125.170083 138.319958 
L 125.893144 143.489596 
L 126.616206 145.881869 
L 127.339267 141.482709 
L 128.062328 143.165354 
L 128.78539 138.999307 
L 129.508451 139.607517 
L 130.231512 139.465533 
L 130.954574 140.022887 
L 131.677635 137.174677 
L 132.400696 139.56695 
L 133.123758 136.241932 
L 133.846819 137.701753 
L 134.569881 135.755423 
L 135.292942 135.633722 
L 136.016003 136.840147 
L 136.739065 137.002415 
L 137.462126 135.532598 
L 138.185187 136.150793 
L 138.908249 161.897919 
L 139.63131 162.992679 
L 140.354371 156.434258 
L 141.077433 157.964894 
L 141.800494 155.866604 
L 142.523555 151.203739 
L 143.246617 157.042457 
L 143.969678 160.3166 
L 144.692739 153.575718 
L 145.415801 157.093141 
L 146.138862 154.700888 
L 146.861923 160.55988 
L 147.584985 153.940638 
L 148.308046 151.599069 
L 149.031108 157.508744 
L 149.754169 157.001911 
L 150.47723 152.288362 
L 151.200292 150.717179 
L 151.923353 148.6493 
L 152.646414 154.711025 
L 153.369476 150.311713 
L 154.092537 149.754196 
L 154.815598 153.798725 
L 155.53866 149.145996 
L 156.261721 148.476976 
L 156.984782 155.298951 
L 157.707844 151.315242 
L 158.430905 154.204192 
L 159.153966 155.207721 
L 159.877028 149.602146 
L 160.600089 153.038475 
L 161.32315 155.542231 
L 162.046212 155.501684 
L 162.769273 147.078117 
L 163.492334 153.555445 
L 164.938457 148.294516 
L 165.661519 148.49725 
L 166.38458 152.156585 
L 167.107641 147.09839 
L 167.830703 146.713197 
L 168.553764 146.8247 
L 169.999887 142.709215 
L 170.722948 144.219578 
L 171.446009 142.263201 
L 172.169071 143.682334 
L 172.892132 145.375157 
L 173.615193 143.033588 
L 174.338255 142.699078 
L 175.061316 142.131425 
L 175.784377 140.418329 
L 176.507439 141.290082 
L 177.2305 141.948965 
L 177.953561 143.185638 
L 178.676623 133.75854 
L 179.399684 145.97322 
L 180.122745 141.056938 
L 181.568868 136.61708 
L 182.29193 142.790308 
L 183.014991 140.985982 
L 183.738052 142.942358 
L 184.461114 140.469012 
L 185.184175 142.597711 
L 185.907236 141.097485 
L 186.630298 131.873121 
L 187.353359 140.053409 
L 188.07642 135.907513 
L 188.799482 140.124365 
L 189.522543 135.025623 
L 190.245604 136.576533 
L 190.968666 135.40068 
L 191.691727 133.75854 
L 192.414788 135.58314 
L 193.13785 130.585765 
L 193.860911 129.916745 
L 194.583972 135.27904 
L 195.307034 131.812301 
L 196.030095 131.964351 
L 196.753157 131.112871 
L 197.476218 129.764695 
L 198.199279 132.197494 
L 198.922341 130.950684 
L 199.645402 129.156495 
L 200.368463 128.710482 
L 201.091525 131.143281 
L 201.814586 132.805694 
L 202.537647 132.866514 
L 203.260709 131.508201 
L 203.98377 129.034855 
L 204.706831 128.375972 
L 205.429893 129.602508 
L 206.152954 127.666405 
L 206.876015 128.974035 
L 207.599077 127.565039 
L 208.322138 128.882805 
L 209.045199 129.551825 
L 209.768261 129.197042 
L 210.491322 127.412989 
L 211.214383 125.993856 
L 211.937445 128.092145 
L 213.383568 127.767772 
L 214.106629 128.365835 
L 214.82969 127.301485 
L 215.552752 127.950232 
L 216.275813 125.791122 
L 216.998874 125.628936 
L 217.721936 125.801259 
L 218.444997 126.379049 
L 219.168058 126.196589 
L 219.89112 125.821532 
L 220.614181 124.797729 
L 221.337242 125.933036 
L 222.060304 125.375519 
L 223.506426 126.145906 
L 224.229488 125.517433 
L 224.952549 126.105359 
L 225.67561 143.459328 
L 226.398672 154.923895 
L 227.121733 152.957382 
L 227.844794 148.659436 
L 228.567856 148.608753 
L 229.290917 147.67618 
L 230.013979 148.943263 
L 230.73704 154.305558 
L 232.183163 146.67265 
L 232.906224 152.774922 
L 233.629285 151.213876 
L 234.352347 158.045987 
L 235.075408 153.869682 
L 235.798469 148.10192 
L 236.521531 145.88199 
L 237.244592 144.533814 
L 237.967653 145.223107 
L 238.690715 154.052142 
L 239.413776 148.061373 
L 240.136837 149.206816 
L 240.859899 147.534267 
L 241.58296 145.486661 
L 242.306021 148.43643 
L 243.029083 148.081646 
L 243.752144 143.499874 
L 244.475206 149.22709 
L 245.198267 141.472542 
L 245.921328 152.318772 
L 246.64439 144.787231 
L 247.367451 150.737452 
L 248.090512 146.844973 
L 248.813574 149.287909 
L 249.536635 147.00716 
L 250.259696 142.770035 
L 250.982758 148.426293 
L 251.705819 144.604771 
L 252.42888 151.974125 
L 253.151942 142.699078 
L 253.875003 144.625044 
L 254.598064 141.928691 
L 255.321126 145.63871 
L 256.044187 148.01069 
L 256.767248 141.067075 
L 258.213371 147.31126 
L 258.936432 145.54748 
L 259.659494 142.891675 
L 260.382555 143.905341 
L 261.105617 139.343842 
L 261.828678 133.870044 
L 262.551739 144.179031 
L 263.274801 146.814563 
L 263.997862 146.297594 
L 264.720923 142.435525 
L 265.443985 144.128348 
L 266.167046 145.435977 
L 266.890107 145.152151 
L 267.613169 140.448739 
L 268.33623 144.979827 
L 269.059291 142.303748 
L 269.782353 148.49725 
L 270.505414 136.13052 
L 271.228475 137.184733 
L 271.951537 137.752386 
L 272.674598 138.684959 
L 273.397659 150.119116 
L 274.120721 140.560242 
L 274.843782 139.972315 
L 275.566843 145.94281 
L 276.289905 143.418781 
L 277.012966 139.870949 
L 277.736028 144.483131 
L 278.459089 147.179483 
L 279.18215 146.439507 
L 279.905212 145.922537 
L 280.628273 138.958649 
L 281.351334 145.314337 
L 282.074396 138.755916 
L 282.797457 140.377782 
L 283.520518 149.683239 
L 284.24358 139.779719 
L 285.689702 144.158758 
L 286.412764 140.499422 
L 287.135825 138.766052 
L 287.858886 142.628121 
L 288.581948 149.085176 
L 289.305009 138.238946 
L 290.02807 141.462405 
L 290.751132 138.390996 
L 291.474193 137.438149 
L 292.197255 138.654549 
L 292.920316 139.141109 
L 293.643377 143.226184 
L 294.366439 139.597259 
L 295.0895 137.519243 
L 295.812561 133.586217 
L 296.535623 136.485303 
L 297.258684 138.522772 
L 297.981745 141.178578 
L 298.704807 133.81936 
L 299.427868 135.573003 
L 300.150929 138.877556 
L 300.873991 136.110246 
L 302.320113 141.138032 
L 303.043175 137.073229 
L 303.766236 137.498969 
L 304.489297 142.324021 
L 305.212359 136.657626 
L 305.93542 141.492815 
L 306.658481 133.160477 
L 307.381543 137.732113 
L 308.104604 140.327099 
L 308.827666 135.52232 
L 309.550727 137.397603 
L 310.273788 135.593276 
L 310.99685 132.592824 
L 311.719911 141.888145 
L 312.442972 137.539516 
L 313.166034 134.995213 
L 313.889095 131.133144 
L 314.612156 131.234511 
L 315.335218 133.920727 
L 316.058279 128.284742 
L 316.78134 141.249535 
L 317.504402 132.136674 
L 318.950524 136.28257 
L 319.673586 131.650114 
L 320.396647 138.614002 
L 321.119708 136.394073 
L 321.84277 132.775284 
L 322.565831 131.234511 
L 323.288892 135.441227 
L 324.011954 132.055581 
L 324.735015 132.268451 
L 325.458077 133.75854 
L 326.181138 131.842711 
L 326.904199 132.440774 
L 327.627261 132.085991 
L 328.350322 128.193512 
L 329.796445 132.339407 
L 330.519506 129.845788 
L 331.242567 132.187357 
L 331.965629 132.329271 
L 332.68869 131.660251 
L 333.411751 127.717089 
L 334.134813 126.845336 
L 334.857874 128.467202 
L 335.580935 130.676994 
L 336.303997 131.670388 
L 337.027058 131.933941 
L 337.750119 128.325288 
L 338.473181 126.328366 
L 339.196242 130.038385 
L 339.919304 131.852847 
L 340.642365 128.375972 
L 341.365426 128.892942 
L 342.088488 124.848413 
L 342.811549 130.078931 
L 343.53461 127.514355 
L 344.257672 131.548748 
L 344.980733 128.781438 
L 345.703794 129.896471 
L 346.426856 131.751481 
L 347.149917 130.089068 
L 347.872978 124.179393 
L 348.59604 128.163102 
L 349.319101 125.892489 
L 350.042162 130.524945 
L 350.765224 126.044539 
L 351.488285 130.879728 
L 352.211346 126.693286 
L 353.657469 131.792028 
L 354.38053 128.132692 
L 355.103592 125.993856 
L 355.826653 128.994308 
L 356.549715 125.416066 
L 357.272776 129.176768 
L 357.995837 126.196589 
L 358.718899 127.585312 
L 359.44196 128.578705 
L 360.165021 127.605585 
L 360.888083 127.473809 
L 361.611144 122.82108 
L 362.334205 123.4901 
L 363.057267 125.902626 
L 363.780328 127.595449 
L 364.503389 126.014129 
L 365.226451 125.436339 
L 365.949512 128.740892 
L 366.672573 126.419596 
L 367.395635 126.956839 
L 368.118696 124.503766 
L 368.841757 123.723243 
L 369.564819 122.587937 
L 370.28788 125.000463 
L 371.010941 126.794652 
L 371.734003 124.757183 
L 372.457064 126.196589 
L 373.180126 125.841806 
L 373.903187 127.909685 
L 374.626248 125.203196 
L 375.34931 127.220392 
L 376.072371 125.324836 
L 376.795432 128.659798 
L 377.518494 123.317776 
L 378.241555 126.541236 
L 378.964616 122.324383 
L 379.687678 124.848413 
L 380.410739 126.064812 
L 381.1338 125.334973 
L 381.856862 122.283837 
L 382.579923 128.558432 
L 383.302984 127.048069 
L 384.026046 128.457065 
L 384.749107 127.960369 
L 385.472168 126.814926 
L 386.19523 125.882352 
L 386.918291 128.213785 
L 387.641353 126.480416 
L 388.364414 132.562414 
L 389.087475 124.777456 
L 389.810537 126.247272 
L 390.533598 124.03748 
L 391.256659 125.933036 
L 391.979721 127.352169 
L 392.702782 127.970505 
L 393.425843 127.331895 
L 394.148905 125.152513 
L 394.871966 128.923352 
L 395.595027 129.937018 
L 396.318089 125.152513 
L 397.04115 128.021189 
L 397.764211 128.152965 
L 398.487273 129.146358 
L 398.487273 129.146358 
" clip-path="url(#p410db2b200)" style="fill: none; stroke: #2ca02c; stroke-width: 1.5; stroke-linecap: square"/>
   </g>
   <g id="line2d_18">
    <path d="M 73.832727 295.488 
L 74.555789 291.225533 
L 75.27885 287.991937 
L 76.001911 275.851255 
L 76.724973 274.792987 
L 77.448034 259.771465 
L 78.171095 255.920546 
L 78.894157 253.480651 
L 79.617218 240.222908 
L 80.340279 246.278551 
L 81.063341 234.902173 
L 81.786402 238.341543 
L 82.509463 232.197711 
L 83.232525 233.108997 
L 83.955586 225.348367 
L 84.678647 220.439181 
L 85.401709 218.910572 
L 86.12477 214.53052 
L 86.847832 208.886425 
L 87.570893 204.388787 
L 88.293954 203.389312 
L 89.017016 204.094824 
L 89.740077 204.300598 
L 90.463138 198.979864 
L 91.1862 195.981438 
L 91.909261 198.538919 
L 92.632322 197.421858 
L 93.355384 195.334719 
L 94.078445 192.630257 
L 94.801506 195.187738 
L 95.524568 218.352042 
L 96.247629 216.441281 
L 96.97069 217.293774 
L 97.693752 216.500073 
L 98.416813 208.239706 
L 99.139874 214.971465 
L 99.862936 202.389837 
L 100.585997 204.183013 
L 101.309059 203.800861 
L 102.03212 211.737869 
L 102.755181 208.474877 
L 103.478243 204.006635 
L 104.201304 197.80401 
L 104.924365 202.889575 
L 105.647427 197.657029 
L 106.370488 194.599811 
L 107.093549 200.479076 
L 107.816611 194.041281 
L 108.539672 199.56779 
L 109.262733 196.275402 
L 109.985795 189.367265 
L 110.708856 188.749942 
L 111.431917 179.578289 
L 112.154979 186.339444 
L 112.87804 188.250205 
L 113.601101 187.721071 
L 114.324163 187.838656 
L 115.770285 183.781963 
L 116.493347 179.548892 
L 117.216408 181.371465 
L 117.93947 184.222908 
L 118.662531 180.225008 
L 119.385592 187.015559 
L 120.108654 179.019759 
L 120.831715 174.169365 
L 121.554776 173.875402 
L 122.277838 180.107423 
L 123.000899 171.347318 
L 123.72396 173.463853 
L 124.447022 168.172514 
L 125.170083 168.231307 
L 125.893144 167.496399 
L 126.616206 171.553092 
L 127.339267 166.673302 
L 128.062328 170.112672 
L 128.78539 170.171465 
L 129.508451 168.466478 
L 130.231512 167.760966 
L 130.954574 166.261753 
L 131.677635 166.144168 
L 132.400696 164.909522 
L 133.123758 163.204535 
L 134.569881 167.672777 
L 135.292942 167.202436 
L 136.016003 163.704273 
L 136.739065 163.880651 
L 137.462126 164.380388 
M 350.765224 74.780388 
L 352.211346 74.016084 
L 352.934408 74.36884 
L 353.657469 75.25073 
L 354.38053 74.545218 
L 355.103592 75.515297 
L 355.826653 74.60401 
L 356.549715 75.368315 
L 357.272776 75.603486 
L 357.995837 74.486425 
L 358.718899 75.868052 
L 359.44196 75.603486 
L 360.165021 75.868052 
L 360.888083 74.398236 
L 361.611144 75.25073 
L 362.334205 75.191937 
L 363.057267 75.926845 
L 363.780328 75.456504 
L 364.503389 76.191412 
L 365.226451 77.190887 
L 365.949512 76.779339 
L 366.672573 75.309522 
L 367.395635 77.220283 
L 368.118696 76.04443 
L 369.564819 77.48485 
L 370.28788 77.984588 
L 371.010941 76.103223 
L 371.734003 76.632357 
L 372.457064 75.897449 
L 373.180126 76.573564 
L 373.903187 77.631832 
L 374.626248 78.337344 
L 376.072371 77.749417 
L 376.795432 76.514772 
L 377.518494 76.661753 
L 378.241555 79.042856 
L 379.687678 78.895874 
L 380.410739 77.308472 
L 381.1338 78.660703 
L 381.856862 79.483801 
L 382.579923 79.24863 
L 383.302984 79.278026 
L 384.026046 80.542068 
L 384.749107 78.160966 
L 385.472168 80.542068 
L 386.19523 80.747843 
L 386.918291 80.68905 
L 387.641353 80.336294 
L 388.364414 78.484325 
L 389.087475 77.48485 
L 389.810537 77.48485 
L 390.533598 80.894824 
L 391.256659 80.159916 
L 391.979721 78.337344 
L 392.702782 81.306373 
L 393.425843 79.777764 
L 394.148905 82.305848 
L 394.871966 83.099549 
L 395.595027 82.482226 
L 396.318089 82.981963 
L 397.04115 80.071727 
L 397.764211 81.276976 
L 398.487273 80.36569 
L 398.487273 80.36569 
" clip-path="url(#p410db2b200)" style="fill: none; stroke: #d62728; stroke-width: 1.5; stroke-linecap: square"/>
   </g>
   <g id="line2d_19">
    <path d="M 73.832727 284.023433 
L 74.555789 260.036031 
L 75.27885 231.40401 
L 77.448034 182.37094 
L 78.171095 178.28485 
L 79.617218 161.793512 
L 80.340279 160.382488 
L 81.063341 154.121071 
L 81.786402 151.269627 
L 82.509463 143.391412 
L 83.232525 143.920546 
L 84.678647 135.836556 
L 85.401709 132.749942 
L 86.12477 124.401386 
L 86.847832 124.871727 
L 87.570893 123.019759 
L 88.293954 119.110047 
L 89.017016 117.199286 
L 89.740077 115.905848 
L 90.463138 113.17199 
L 91.1862 111.08485 
L 91.909261 110.996661 
L 92.632322 111.173039 
L 93.355384 109.40926 
L 94.078445 109.40926 
L 94.801506 109.203486 
L 95.524568 135.718971 
L 96.247629 138.217659 
L 96.97069 135.865953 
L 97.693752 131.368315 
L 98.416813 129.986688 
L 99.139874 124.577764 
L 99.862936 125.694824 
L 100.585997 123.019759 
L 101.309059 121.608735 
L 102.03212 124.989312 
L 102.755181 122.167265 
L 103.478243 118.375139 
L 104.201304 117.72842 
L 104.924365 115.435507 
L 105.647427 113.583538 
L 106.370488 113.759916 
L 107.093549 112.231307 
L 107.816611 111.584588 
L 108.539672 108.674352 
L 109.262733 110.496924 
L 109.985795 111.702173 
L 110.708856 107.469102 
L 111.431917 104.647055 
L 112.154979 104.941018 
L 113.601101 106.469627 
L 114.324163 103.412409 
L 115.047224 104.000336 
L 115.770285 101.32527 
L 116.493347 102.501123 
L 117.216408 99.355717 
L 117.93947 98.591412 
L 118.662531 98.738394 
L 119.385592 99.826058 
L 120.108654 96.915822 
L 120.831715 95.063853 
L 121.554776 95.416609 
L 122.277838 95.00506 
L 123.000899 93.888 
L 123.72396 91.00716 
L 124.447022 90.037081 
L 125.170083 91.477501 
L 125.893144 91.036556 
L 126.616206 91.800861 
L 127.339267 89.125795 
L 128.062328 88.949417 
L 128.78539 88.596661 
L 129.508451 87.920546 
L 130.231512 87.420808 
L 130.954574 86.538919 
L 131.677635 86.097974 
L 132.400696 86.12737 
L 133.123758 85.627633 
L 133.846819 85.304273 
L 134.569881 85.274877 
L 135.292942 84.657554 
L 136.016003 85.715822 
L 136.739065 85.80401 
L 137.462126 85.01031 
M 350.765224 125.284289 
L 351.488285 126.885882 
L 352.211346 125.547843 
L 352.934408 126.358776 
L 353.657469 128.446928 
L 354.38053 127.869139 
L 355.103592 127.990779 
L 355.826653 126.358776 
L 356.549715 130.555355 
L 357.272776 125.172786 
L 358.718899 128.619252 
L 359.44196 128.152965 
L 360.165021 126.379049 
L 360.888083 125.568116 
L 361.611144 128.872668 
L 362.334205 124.949779 
L 363.057267 126.156042 
L 363.780328 122.54739 
L 364.503389 125.912762 
L 365.226451 127.453535 
L 365.949512 127.909685 
L 366.672573 127.565039 
L 367.395635 129.247725 
L 368.118696 127.068342 
L 368.841757 123.15559 
L 369.564819 124.564586 
L 370.28788 125.466749 
L 371.010941 123.175863 
L 371.734003 126.196589 
L 373.180126 120.124727 
L 373.903187 122.962993 
L 374.626248 124.716636 
L 375.34931 124.828139 
L 376.072371 123.115043 
L 376.795432 123.00354 
L 377.518494 121.107984 
L 378.241555 124.382126 
L 378.964616 125.294426 
L 379.687678 127.048069 
L 380.410739 123.236683 
L 381.1338 125.557979 
L 381.856862 124.25035 
L 382.579923 126.551372 
L 383.302984 122.902173 
L 384.026046 122.21288 
L 384.749107 122.172333 
L 385.472168 127.372442 
L 386.19523 127.433262 
L 386.918291 124.858549 
L 387.641353 127.929959 
L 389.087475 120.682244 
L 389.810537 121.168804 
L 390.533598 129.430185 
L 391.256659 126.571646 
L 391.979721 123.06436 
L 392.702782 127.646132 
L 393.425843 124.463219 
L 394.148905 129.055128 
L 394.871966 130.464125 
L 395.595027 126.095222 
L 396.318089 128.142828 
L 397.04115 124.757183 
L 397.764211 124.361853 
L 398.487273 123.70297 
L 398.487273 123.70297 
" clip-path="url(#p410db2b200)" style="fill: none; stroke: #9467bd; stroke-width: 1.5; stroke-linecap: square"/>
   </g>
   <g id="patch_3">
    <path d="M 57.6 307.584 
L 57.6 41.472 
" style="fill: none; stroke: #000000; stroke-width: 0.8; stroke-linejoin: miter; stroke-linecap: square"/>
   </g>
   <g id="patch_4">
    <path d="M 414.72 307.584 
L 414.72 41.472 
" style="fill: none; stroke: #000000; stroke-width: 0.8; stroke-linejoin: miter; stroke-linecap: square"/>
   </g>
   <g id="patch_5">
    <path d="M 57.6 307.584 
L 414.72 307.584 
" style="fill: none; stroke: #000000; stroke-width: 0.8; stroke-linejoin: miter; stroke-linecap: square"/>
   </g>
   <g id="patch_6">
    <path d="M 57.6 41.472 
L 414.72 41.472 
" style="fill: none; stroke: #000000; stroke-width: 0.8; stroke-linejoin: miter; stroke-linecap: square"/>
   </g>
   <g id="text_17">
    <!-- Learning Curves -->
    <g transform="translate(187.37625 35.472) scale(0.12 -0.12)">
     <defs>
      <path id="DejaVuSans-4c" d="M 628 4666 
L 1259 4666 
L 1259 531 
L 3531 531 
L 3531 0 
L 628 0 
L 628 4666 
z
" transform="scale(0.015625)"/>
      <path id="DejaVuSans-65" d="M 3597 1894 
L 3597 1613 
L 953 1613 
Q 991 1019 1311 708 
Q 1631 397 2203 397 
Q 2534 397 2845 478 
Q 3156 559 3463 722 
L 3463 178 
Q 3153 47 2828 -22 
Q 2503 -91 2169 -91 
Q 1331 -91 842 396 
Q 353 884 353 1716 
Q 353 2575 817 3079 
Q 1281 3584 2069 3584 
Q 2775 3584 3186 3129 
Q 3597 2675 3597 1894 
z
M 3022 2063 
Q 3016 2534 2758 2815 
Q 2500 3097 2075 3097 
Q 1594 3097 1305 2825 
Q 1016 2553 972 2059 
L 3022 2063 
z
" transform="scale(0.015625)"/>
      <path id="DejaVuSans-6e" d="M 3513 2113 
L 3513 0 
L 2938 0 
L 2938 2094 
Q 2938 2591 2744 2837 
Q 2550 3084 2163 3084 
Q 1697 3084 1428 2787 
Q 1159 2491 1159 1978 
L 1159 0 
L 581 0 
L 581 3500 
L 1159 3500 
L 1159 2956 
Q 1366 3272 1645 3428 
Q 1925 3584 2291 3584 
Q 2894 3584 3203 3211 
Q 3513 2838 3513 2113 
z
" transform="scale(0.015625)"/>
      <path id="DejaVuSans-69" d="M 603 3500 
L 1178 3500 
L 1178 0 
L 603 0 
L 603 3500 
z
M 603 4863 
L 1178 4863 
L 1178 4134 
L 603 4134 
L 603 4863 
z
" transform="scale(0.015625)"/>
      <path id="DejaVuSans-67" d="M 2906 1791 
Q 2906 2416 2648 2759 
Q 2391 3103 1925 3103 
Q 1463 3103 1205 2759 
Q 947 2416 947 1791 
Q 947 1169 1205 825 
Q 1463 481 1925 481 
Q 2391 481 2648 825 
Q 2906 1169 2906 1791 
z
M 3481 434 
Q 3481 -459 3084 -895 
Q 2688 -1331 1869 -1331 
Q 1566 -1331 1297 -1286 
Q 1028 -1241 775 -1147 
L 775 -588 
Q 1028 -725 1275 -790 
Q 1522 -856 1778 -856 
Q 2344 -856 2625 -561 
Q 2906 -266 2906 331 
L 2906 616 
Q 2728 306 2450 153 
Q 2172 0 1784 0 
Q 1141 0 747 490 
Q 353 981 353 1791 
Q 353 2603 747 3093 
Q 1141 3584 1784 3584 
Q 2172 3584 2450 3431 
Q 2728 3278 2906 2969 
L 2906 3500 
L 3481 3500 
L 3481 434 
z
" transform="scale(0.015625)"/>
      <path id="DejaVuSans-20" transform="scale(0.015625)"/>
      <path id="DejaVuSans-43" d="M 4122 4306 
L 4122 3641 
Q 3803 3938 3442 4084 
Q 3081 4231 2675 4231 
Q 1875 4231 1450 3742 
Q 1025 3253 1025 2328 
Q 1025 1406 1450 917 
Q 1875 428 2675 428 
Q 3081 428 3442 575 
Q 3803 722 4122 1019 
L 4122 359 
Q 3791 134 3420 21 
Q 3050 -91 2638 -91 
Q 1578 -91 968 557 
Q 359 1206 359 2328 
Q 359 3453 968 4101 
Q 1578 4750 2638 4750 
Q 3056 4750 3426 4639 
Q 3797 4528 4122 4306 
z
" transform="scale(0.015625)"/>
      <path id="DejaVuSans-76" d="M 191 3500 
L 800 3500 
L 1894 563 
L 2988 3500 
L 3597 3500 
L 2284 0 
L 1503 0 
L 191 3500 
z
" transform="scale(0.015625)"/>
     </defs>
     <use xlink:href="#DejaVuSans-4c"/>
     <use xlink:href="#DejaVuSans-65" x="53.962891"/>
     <use xlink:href="#DejaVuSans-61" x="115.486328"/>
     <use xlink:href="#DejaVuSans-72" x="176.765625"/>
     <use xlink:href="#DejaVuSans-6e" x="216.128906"/>
     <use xlink:href="#DejaVuSans-69" x="279.507812"/>
     <use xlink:href="#DejaVuSans-6e" x="307.291016"/>
     <use xlink:href="#DejaVuSans-67" x="370.669922"/>
     <use xlink:href="#DejaVuSans-20" x="434.146484"/>
     <use xlink:href="#DejaVuSans-43" x="465.933594"/>
     <use xlink:href="#DejaVuSans-75" x="535.757812"/>
     <use xlink:href="#DejaVuSans-72" x="599.136719"/>
     <use xlink:href="#DejaVuSans-76" x="640.25"/>
     <use xlink:href="#DejaVuSans-65" x="699.429688"/>
     <use xlink:href="#DejaVuSans-73" x="760.953125"/>
    </g>
   </g>
   <g id="legend_1">
    <g id="patch_7">
     <path d="M 214.18875 302.584 
L 407.72 302.584 
Q 409.72 302.584 409.72 300.584 
L 409.72 228.193375 
Q 409.72 226.193375 407.72 226.193375 
L 214.18875 226.193375 
Q 212.18875 226.193375 212.18875 228.193375 
L 212.18875 300.584 
Q 212.18875 302.584 214.18875 302.584 
z
" style="fill: #ffffff; opacity: 0.8; stroke: #cccccc; stroke-linejoin: miter"/>
    </g>
    <g id="line2d_20">
     <path d="M 216.18875 234.291812 
L 226.18875 234.291812 
L 236.18875 234.291812 
" style="fill: none; stroke: #1f77b4; stroke-width: 1.5; stroke-linecap: square"/>
    </g>
    <g id="text_18">
     <!-- Train Accuracy -->
     <g transform="translate(244.18875 237.791812) scale(0.1 -0.1)">
      <defs>
       <path id="DejaVuSans-54" d="M -19 4666 
L 3928 4666 
L 3928 4134 
L 2272 4134 
L 2272 0 
L 1638 0 
L 1638 4134 
L -19 4134 
L -19 4666 
z
" transform="scale(0.015625)"/>
      </defs>
      <use xlink:href="#DejaVuSans-54"/>
      <use xlink:href="#DejaVuSans-72" x="46.333984"/>
      <use xlink:href="#DejaVuSans-61" x="87.447266"/>
      <use xlink:href="#DejaVuSans-69" x="148.726562"/>
      <use xlink:href="#DejaVuSans-6e" x="176.509766"/>
      <use xlink:href="#DejaVuSans-20" x="239.888672"/>
      <use xlink:href="#DejaVuSans-41" x="271.675781"/>
      <use xlink:href="#DejaVuSans-63" x="338.333984"/>
      <use xlink:href="#DejaVuSans-63" x="393.314453"/>
      <use xlink:href="#DejaVuSans-75" x="448.294922"/>
      <use xlink:href="#DejaVuSans-72" x="511.673828"/>
      <use xlink:href="#DejaVuSans-61" x="552.787109"/>
      <use xlink:href="#DejaVuSans-63" x="614.066406"/>
      <use xlink:href="#DejaVuSans-79" x="669.046875"/>
     </g>
    </g>
    <g id="line2d_21">
     <path d="M 216.18875 248.969937 
L 226.18875 248.969937 
L 236.18875 248.969937 
" style="fill: none; stroke: #ff7f0e; stroke-width: 1.5; stroke-linecap: square"/>
    </g>
    <g id="text_19">
     <!-- Validation Accuracy -->
     <g transform="translate(244.18875 252.469937) scale(0.1 -0.1)">
      <defs>
       <path id="DejaVuSans-56" d="M 1831 0 
L 50 4666 
L 709 4666 
L 2188 738 
L 3669 4666 
L 4325 4666 
L 2547 0 
L 1831 0 
z
" transform="scale(0.015625)"/>
       <path id="DejaVuSans-6c" d="M 603 4863 
L 1178 4863 
L 1178 0 
L 603 0 
L 603 4863 
z
" transform="scale(0.015625)"/>
       <path id="DejaVuSans-64" d="M 2906 2969 
L 2906 4863 
L 3481 4863 
L 3481 0 
L 2906 0 
L 2906 525 
Q 2725 213 2448 61 
Q 2172 -91 1784 -91 
Q 1150 -91 751 415 
Q 353 922 353 1747 
Q 353 2572 751 3078 
Q 1150 3584 1784 3584 
Q 2172 3584 2448 3432 
Q 2725 3281 2906 2969 
z
M 947 1747 
Q 947 1113 1208 752 
Q 1469 391 1925 391 
Q 2381 391 2643 752 
Q 2906 1113 2906 1747 
Q 2906 2381 2643 2742 
Q 2381 3103 1925 3103 
Q 1469 3103 1208 2742 
Q 947 2381 947 1747 
z
" transform="scale(0.015625)"/>
       <path id="DejaVuSans-74" d="M 1172 4494 
L 1172 3500 
L 2356 3500 
L 2356 3053 
L 1172 3053 
L 1172 1153 
Q 1172 725 1289 603 
Q 1406 481 1766 481 
L 2356 481 
L 2356 0 
L 1766 0 
Q 1100 0 847 248 
Q 594 497 594 1153 
L 594 3053 
L 172 3053 
L 172 3500 
L 594 3500 
L 594 4494 
L 1172 4494 
z
" transform="scale(0.015625)"/>
      </defs>
      <use xlink:href="#DejaVuSans-56"/>
      <use xlink:href="#DejaVuSans-61" x="60.658203"/>
      <use xlink:href="#DejaVuSans-6c" x="121.9375"/>
      <use xlink:href="#DejaVuSans-69" x="149.720703"/>
      <use xlink:href="#DejaVuSans-64" x="177.503906"/>
      <use xlink:href="#DejaVuSans-61" x="240.980469"/>
      <use xlink:href="#DejaVuSans-74" x="302.259766"/>
      <use xlink:href="#DejaVuSans-69" x="341.46875"/>
      <use xlink:href="#DejaVuSans-6f" x="369.251953"/>
      <use xlink:href="#DejaVuSans-6e" x="430.433594"/>
      <use xlink:href="#DejaVuSans-20" x="493.8125"/>
      <use xlink:href="#DejaVuSans-41" x="525.599609"/>
      <use xlink:href="#DejaVuSans-63" x="592.257812"/>
      <use xlink:href="#DejaVuSans-63" x="647.238281"/>
      <use xlink:href="#DejaVuSans-75" x="702.21875"/>
      <use xlink:href="#DejaVuSans-72" x="765.597656"/>
      <use xlink:href="#DejaVuSans-61" x="806.710938"/>
      <use xlink:href="#DejaVuSans-63" x="867.990234"/>
      <use xlink:href="#DejaVuSans-79" x="922.970703"/>
     </g>
    </g>
    <g id="line2d_22">
     <path d="M 216.18875 263.648062 
L 226.18875 263.648062 
L 236.18875 263.648062 
" style="fill: none; stroke: #2ca02c; stroke-width: 1.5; stroke-linecap: square"/>
    </g>
    <g id="text_20">
     <!-- Robust Validation Accuracy -->
     <g transform="translate(244.18875 267.148062) scale(0.1 -0.1)">
      <defs>
       <path id="DejaVuSans-52" d="M 2841 2188 
Q 3044 2119 3236 1894 
Q 3428 1669 3622 1275 
L 4263 0 
L 3584 0 
L 2988 1197 
Q 2756 1666 2539 1819 
Q 2322 1972 1947 1972 
L 1259 1972 
L 1259 0 
L 628 0 
L 628 4666 
L 2053 4666 
Q 2853 4666 3247 4331 
Q 3641 3997 3641 3322 
Q 3641 2881 3436 2590 
Q 3231 2300 2841 2188 
z
M 1259 4147 
L 1259 2491 
L 2053 2491 
Q 2509 2491 2742 2702 
Q 2975 2913 2975 3322 
Q 2975 3731 2742 3939 
Q 2509 4147 2053 4147 
L 1259 4147 
z
" transform="scale(0.015625)"/>
       <path id="DejaVuSans-62" d="M 3116 1747 
Q 3116 2381 2855 2742 
Q 2594 3103 2138 3103 
Q 1681 3103 1420 2742 
Q 1159 2381 1159 1747 
Q 1159 1113 1420 752 
Q 1681 391 2138 391 
Q 2594 391 2855 752 
Q 3116 1113 3116 1747 
z
M 1159 2969 
Q 1341 3281 1617 3432 
Q 1894 3584 2278 3584 
Q 2916 3584 3314 3078 
Q 3713 2572 3713 1747 
Q 3713 922 3314 415 
Q 2916 -91 2278 -91 
Q 1894 -91 1617 61 
Q 1341 213 1159 525 
L 1159 0 
L 581 0 
L 581 4863 
L 1159 4863 
L 1159 2969 
z
" transform="scale(0.015625)"/>
      </defs>
      <use xlink:href="#DejaVuSans-52"/>
      <use xlink:href="#DejaVuSans-6f" x="64.982422"/>
      <use xlink:href="#DejaVuSans-62" x="126.164062"/>
      <use xlink:href="#DejaVuSans-75" x="189.640625"/>
      <use xlink:href="#DejaVuSans-73" x="253.019531"/>
      <use xlink:href="#DejaVuSans-74" x="305.119141"/>
      <use xlink:href="#DejaVuSans-20" x="344.328125"/>
      <use xlink:href="#DejaVuSans-56" x="376.115234"/>
      <use xlink:href="#DejaVuSans-61" x="436.773438"/>
      <use xlink:href="#DejaVuSans-6c" x="498.052734"/>
      <use xlink:href="#DejaVuSans-69" x="525.835938"/>
      <use xlink:href="#DejaVuSans-64" x="553.619141"/>
      <use xlink:href="#DejaVuSans-61" x="617.095703"/>
      <use xlink:href="#DejaVuSans-74" x="678.375"/>
      <use xlink:href="#DejaVuSans-69" x="717.583984"/>
      <use xlink:href="#DejaVuSans-6f" x="745.367188"/>
      <use xlink:href="#DejaVuSans-6e" x="806.548828"/>
      <use xlink:href="#DejaVuSans-20" x="869.927734"/>
      <use xlink:href="#DejaVuSans-41" x="901.714844"/>
      <use xlink:href="#DejaVuSans-63" x="968.373047"/>
      <use xlink:href="#DejaVuSans-63" x="1023.353516"/>
      <use xlink:href="#DejaVuSans-75" x="1078.333984"/>
      <use xlink:href="#DejaVuSans-72" x="1141.712891"/>
      <use xlink:href="#DejaVuSans-61" x="1182.826172"/>
      <use xlink:href="#DejaVuSans-63" x="1244.105469"/>
      <use xlink:href="#DejaVuSans-79" x="1299.085938"/>
     </g>
    </g>
    <g id="line2d_23">
     <path d="M 216.18875 278.326188 
L 226.18875 278.326188 
L 236.18875 278.326188 
" style="fill: none; stroke: #d62728; stroke-width: 1.5; stroke-linecap: square"/>
    </g>
    <g id="text_21">
     <!-- SWA Validation Accuracy -->
     <g transform="translate(244.18875 281.826188) scale(0.1 -0.1)">
      <defs>
       <path id="DejaVuSans-53" d="M 3425 4513 
L 3425 3897 
Q 3066 4069 2747 4153 
Q 2428 4238 2131 4238 
Q 1616 4238 1336 4038 
Q 1056 3838 1056 3469 
Q 1056 3159 1242 3001 
Q 1428 2844 1947 2747 
L 2328 2669 
Q 3034 2534 3370 2195 
Q 3706 1856 3706 1288 
Q 3706 609 3251 259 
Q 2797 -91 1919 -91 
Q 1588 -91 1214 -16 
Q 841 59 441 206 
L 441 856 
Q 825 641 1194 531 
Q 1563 422 1919 422 
Q 2459 422 2753 634 
Q 3047 847 3047 1241 
Q 3047 1584 2836 1778 
Q 2625 1972 2144 2069 
L 1759 2144 
Q 1053 2284 737 2584 
Q 422 2884 422 3419 
Q 422 4038 858 4394 
Q 1294 4750 2059 4750 
Q 2388 4750 2728 4690 
Q 3069 4631 3425 4513 
z
" transform="scale(0.015625)"/>
       <path id="DejaVuSans-57" d="M 213 4666 
L 850 4666 
L 1831 722 
L 2809 4666 
L 3519 4666 
L 4500 722 
L 5478 4666 
L 6119 4666 
L 4947 0 
L 4153 0 
L 3169 4050 
L 2175 0 
L 1381 0 
L 213 4666 
z
" transform="scale(0.015625)"/>
      </defs>
      <use xlink:href="#DejaVuSans-53"/>
      <use xlink:href="#DejaVuSans-57" x="63.476562"/>
      <use xlink:href="#DejaVuSans-41" x="156.853516"/>
      <use xlink:href="#DejaVuSans-20" x="225.261719"/>
      <use xlink:href="#DejaVuSans-56" x="257.048828"/>
      <use xlink:href="#DejaVuSans-61" x="317.707031"/>
      <use xlink:href="#DejaVuSans-6c" x="378.986328"/>
      <use xlink:href="#DejaVuSans-69" x="406.769531"/>
      <use xlink:href="#DejaVuSans-64" x="434.552734"/>
      <use xlink:href="#DejaVuSans-61" x="498.029297"/>
      <use xlink:href="#DejaVuSans-74" x="559.308594"/>
      <use xlink:href="#DejaVuSans-69" x="598.517578"/>
      <use xlink:href="#DejaVuSans-6f" x="626.300781"/>
      <use xlink:href="#DejaVuSans-6e" x="687.482422"/>
      <use xlink:href="#DejaVuSans-20" x="750.861328"/>
      <use xlink:href="#DejaVuSans-41" x="782.648438"/>
      <use xlink:href="#DejaVuSans-63" x="849.306641"/>
      <use xlink:href="#DejaVuSans-63" x="904.287109"/>
      <use xlink:href="#DejaVuSans-75" x="959.267578"/>
      <use xlink:href="#DejaVuSans-72" x="1022.646484"/>
      <use xlink:href="#DejaVuSans-61" x="1063.759766"/>
      <use xlink:href="#DejaVuSans-63" x="1125.039062"/>
      <use xlink:href="#DejaVuSans-79" x="1180.019531"/>
     </g>
    </g>
    <g id="line2d_24">
     <path d="M 216.18875 293.004312 
L 226.18875 293.004312 
L 236.18875 293.004312 
" style="fill: none; stroke: #9467bd; stroke-width: 1.5; stroke-linecap: square"/>
    </g>
    <g id="text_22">
     <!-- SWA Robust Validation Accuracy -->
     <g transform="translate(244.18875 296.504312) scale(0.1 -0.1)">
      <use xlink:href="#DejaVuSans-53"/>
      <use xlink:href="#DejaVuSans-57" x="63.476562"/>
      <use xlink:href="#DejaVuSans-41" x="156.853516"/>
      <use xlink:href="#DejaVuSans-20" x="225.261719"/>
      <use xlink:href="#DejaVuSans-52" x="257.048828"/>
      <use xlink:href="#DejaVuSans-6f" x="322.03125"/>
      <use xlink:href="#DejaVuSans-62" x="383.212891"/>
      <use xlink:href="#DejaVuSans-75" x="446.689453"/>
      <use xlink:href="#DejaVuSans-73" x="510.068359"/>
      <use xlink:href="#DejaVuSans-74" x="562.167969"/>
      <use xlink:href="#DejaVuSans-20" x="601.376953"/>
      <use xlink:href="#DejaVuSans-56" x="633.164062"/>
      <use xlink:href="#DejaVuSans-61" x="693.822266"/>
      <use xlink:href="#DejaVuSans-6c" x="755.101562"/>
      <use xlink:href="#DejaVuSans-69" x="782.884766"/>
      <use xlink:href="#DejaVuSans-64" x="810.667969"/>
      <use xlink:href="#DejaVuSans-61" x="874.144531"/>
      <use xlink:href="#DejaVuSans-74" x="935.423828"/>
      <use xlink:href="#DejaVuSans-69" x="974.632812"/>
      <use xlink:href="#DejaVuSans-6f" x="1002.416016"/>
      <use xlink:href="#DejaVuSans-6e" x="1063.597656"/>
      <use xlink:href="#DejaVuSans-20" x="1126.976562"/>
      <use xlink:href="#DejaVuSans-41" x="1158.763672"/>
      <use xlink:href="#DejaVuSans-63" x="1225.421875"/>
      <use xlink:href="#DejaVuSans-63" x="1280.402344"/>
      <use xlink:href="#DejaVuSans-75" x="1335.382812"/>
      <use xlink:href="#DejaVuSans-72" x="1398.761719"/>
      <use xlink:href="#DejaVuSans-61" x="1439.875"/>
      <use xlink:href="#DejaVuSans-63" x="1501.154297"/>
      <use xlink:href="#DejaVuSans-79" x="1556.134766"/>
     </g>
    </g>
   </g>
  </g>
 </g>
 <defs>
  <clipPath id="p410db2b200">
   <rect x="57.6" y="41.472" width="357.12" height="266.112"/>
  </clipPath>
 </defs>
</svg>
