<?xml version="1.0" encoding="utf-8" standalone="no"?>
<!DOCTYPE svg PUBLIC "-//W3C//DTD SVG 1.1//EN"
  "http://www.w3.org/Graphics/SVG/1.1/DTD/svg11.dtd">
<svg height="345.6pt" version="1.1" viewBox="0 0 460.8 345.6" width="460.8pt" xmlns="http://www.w3.org/2000/svg" xmlns:xlink="http://www.w3.org/1999/xlink">
 <metadata>
  <rdf:RDF xmlns:cc="http://creativecommons.org/ns#" xmlns:dc="http://purl.org/dc/elements/1.1/" xmlns:rdf="http://www.w3.org/1999/02/22-rdf-syntax-ns#">
   <cc:Work>
    <dc:type rdf:resource="http://purl.org/dc/dcmitype/StillImage"/>
    <dc:date>2024-03-07T11:26:41.163699</dc:date>
    <dc:format>image/svg+xml</dc:format>
    <dc:creator>
     <cc:Agent>
      <dc:title>Matplotlib v3.4.3, https://matplotlib.org/</dc:title>
     </cc:Agent>
    </dc:creator>
   </cc:Work>
  </rdf:RDF>
 </metadata>
 <defs>
  <style type="text/css">*{stroke-linecap:butt;stroke-linejoin:round;}</style>
 </defs>
 <g id="figure_1">
  <g id="patch_1">
   <path d="M 0 345.6 
L 460.8 345.6 
L 460.8 0 
L 0 0 
z
" style="fill:#ffffff;"/>
  </g>
  <g id="axes_1">
   <g id="patch_2">
    <path d="M 57.6 307.584 
L 414.72 307.584 
L 414.72 41.472 
L 57.6 41.472 
z
" style="fill:#ffffff;"/>
   </g>
   <g id="matplotlib.axis_1">
    <g id="xtick_1">
     <g id="line2d_1">
      <defs>
       <path d="M 0 0 
L 0 3.5 
" id="m2f4c37ab8b" style="stroke:#000000;stroke-width:0.8;"/>
      </defs>
      <g>
       <use style="stroke:#000000;stroke-width:0.8;" x="73.832727" xlink:href="#m2f4c37ab8b" y="307.584"/>
      </g>
     </g>
     <g id="text_1">
      <!-- 1 -->
      <g transform="translate(70.651477 322.182437)scale(0.1 -0.1)">
       <defs>
        <path d="M 794 531 
L 1825 531 
L 1825 4091 
L 703 3866 
L 703 4441 
L 1819 4666 
L 2450 4666 
L 2450 531 
L 3481 531 
L 3481 0 
L 794 0 
L 794 531 
z
" id="DejaVuSans-31" transform="scale(0.015625)"/>
       </defs>
       <use xlink:href="#DejaVuSans-31"/>
      </g>
     </g>
    </g>
    <g id="xtick_2">
     <g id="line2d_2">
      <g>
       <use style="stroke:#000000;stroke-width:0.8;" x="109.434531" xlink:href="#m2f4c37ab8b" y="307.584"/>
      </g>
     </g>
     <g id="text_2">
      <!-- 43 -->
      <g transform="translate(103.072031 322.182437)scale(0.1 -0.1)">
       <defs>
        <path d="M 2419 4116 
L 825 1625 
L 2419 1625 
L 2419 4116 
z
M 2253 4666 
L 3047 4666 
L 3047 1625 
L 3713 1625 
L 3713 1100 
L 3047 1100 
L 3047 0 
L 2419 0 
L 2419 1100 
L 313 1100 
L 313 1709 
L 2253 4666 
z
" id="DejaVuSans-34" transform="scale(0.015625)"/>
        <path d="M 2597 2516 
Q 3050 2419 3304 2112 
Q 3559 1806 3559 1356 
Q 3559 666 3084 287 
Q 2609 -91 1734 -91 
Q 1441 -91 1130 -33 
Q 819 25 488 141 
L 488 750 
Q 750 597 1062 519 
Q 1375 441 1716 441 
Q 2309 441 2620 675 
Q 2931 909 2931 1356 
Q 2931 1769 2642 2001 
Q 2353 2234 1838 2234 
L 1294 2234 
L 1294 2753 
L 1863 2753 
Q 2328 2753 2575 2939 
Q 2822 3125 2822 3475 
Q 2822 3834 2567 4026 
Q 2313 4219 1838 4219 
Q 1578 4219 1281 4162 
Q 984 4106 628 3988 
L 628 4550 
Q 988 4650 1302 4700 
Q 1616 4750 1894 4750 
Q 2613 4750 3031 4423 
Q 3450 4097 3450 3541 
Q 3450 3153 3228 2886 
Q 3006 2619 2597 2516 
z
" id="DejaVuSans-33" transform="scale(0.015625)"/>
       </defs>
       <use xlink:href="#DejaVuSans-34"/>
       <use x="63.623047" xlink:href="#DejaVuSans-33"/>
      </g>
     </g>
    </g>
    <g id="xtick_3">
     <g id="line2d_3">
      <g>
       <use style="stroke:#000000;stroke-width:0.8;" x="145.883997" xlink:href="#m2f4c37ab8b" y="307.584"/>
      </g>
     </g>
     <g id="text_3">
      <!-- 86 -->
      <g transform="translate(139.521497 322.182437)scale(0.1 -0.1)">
       <defs>
        <path d="M 2034 2216 
Q 1584 2216 1326 1975 
Q 1069 1734 1069 1313 
Q 1069 891 1326 650 
Q 1584 409 2034 409 
Q 2484 409 2743 651 
Q 3003 894 3003 1313 
Q 3003 1734 2745 1975 
Q 2488 2216 2034 2216 
z
M 1403 2484 
Q 997 2584 770 2862 
Q 544 3141 544 3541 
Q 544 4100 942 4425 
Q 1341 4750 2034 4750 
Q 2731 4750 3128 4425 
Q 3525 4100 3525 3541 
Q 3525 3141 3298 2862 
Q 3072 2584 2669 2484 
Q 3125 2378 3379 2068 
Q 3634 1759 3634 1313 
Q 3634 634 3220 271 
Q 2806 -91 2034 -91 
Q 1263 -91 848 271 
Q 434 634 434 1313 
Q 434 1759 690 2068 
Q 947 2378 1403 2484 
z
M 1172 3481 
Q 1172 3119 1398 2916 
Q 1625 2713 2034 2713 
Q 2441 2713 2670 2916 
Q 2900 3119 2900 3481 
Q 2900 3844 2670 4047 
Q 2441 4250 2034 4250 
Q 1625 4250 1398 4047 
Q 1172 3844 1172 3481 
z
" id="DejaVuSans-38" transform="scale(0.015625)"/>
        <path d="M 2113 2584 
Q 1688 2584 1439 2293 
Q 1191 2003 1191 1497 
Q 1191 994 1439 701 
Q 1688 409 2113 409 
Q 2538 409 2786 701 
Q 3034 994 3034 1497 
Q 3034 2003 2786 2293 
Q 2538 2584 2113 2584 
z
M 3366 4563 
L 3366 3988 
Q 3128 4100 2886 4159 
Q 2644 4219 2406 4219 
Q 1781 4219 1451 3797 
Q 1122 3375 1075 2522 
Q 1259 2794 1537 2939 
Q 1816 3084 2150 3084 
Q 2853 3084 3261 2657 
Q 3669 2231 3669 1497 
Q 3669 778 3244 343 
Q 2819 -91 2113 -91 
Q 1303 -91 875 529 
Q 447 1150 447 2328 
Q 447 3434 972 4092 
Q 1497 4750 2381 4750 
Q 2619 4750 2861 4703 
Q 3103 4656 3366 4563 
z
" id="DejaVuSans-36" transform="scale(0.015625)"/>
       </defs>
       <use xlink:href="#DejaVuSans-38"/>
       <use x="63.623047" xlink:href="#DejaVuSans-36"/>
      </g>
     </g>
    </g>
    <g id="xtick_4">
     <g id="line2d_4">
      <g>
       <use style="stroke:#000000;stroke-width:0.8;" x="181.485801" xlink:href="#m2f4c37ab8b" y="307.584"/>
      </g>
     </g>
     <g id="text_4">
      <!-- 128 -->
      <g transform="translate(171.942051 322.182437)scale(0.1 -0.1)">
       <defs>
        <path d="M 1228 531 
L 3431 531 
L 3431 0 
L 469 0 
L 469 531 
Q 828 903 1448 1529 
Q 2069 2156 2228 2338 
Q 2531 2678 2651 2914 
Q 2772 3150 2772 3378 
Q 2772 3750 2511 3984 
Q 2250 4219 1831 4219 
Q 1534 4219 1204 4116 
Q 875 4013 500 3803 
L 500 4441 
Q 881 4594 1212 4672 
Q 1544 4750 1819 4750 
Q 2544 4750 2975 4387 
Q 3406 4025 3406 3419 
Q 3406 3131 3298 2873 
Q 3191 2616 2906 2266 
Q 2828 2175 2409 1742 
Q 1991 1309 1228 531 
z
" id="DejaVuSans-32" transform="scale(0.015625)"/>
       </defs>
       <use xlink:href="#DejaVuSans-31"/>
       <use x="63.623047" xlink:href="#DejaVuSans-32"/>
       <use x="127.246094" xlink:href="#DejaVuSans-38"/>
      </g>
     </g>
    </g>
    <g id="xtick_5">
     <g id="line2d_5">
      <g>
       <use style="stroke:#000000;stroke-width:0.8;" x="217.935267" xlink:href="#m2f4c37ab8b" y="307.584"/>
      </g>
     </g>
     <g id="text_5">
      <!-- 171 -->
      <g transform="translate(208.391517 322.182437)scale(0.1 -0.1)">
       <defs>
        <path d="M 525 4666 
L 3525 4666 
L 3525 4397 
L 1831 0 
L 1172 0 
L 2766 4134 
L 525 4134 
L 525 4666 
z
" id="DejaVuSans-37" transform="scale(0.015625)"/>
       </defs>
       <use xlink:href="#DejaVuSans-31"/>
       <use x="63.623047" xlink:href="#DejaVuSans-37"/>
       <use x="127.246094" xlink:href="#DejaVuSans-31"/>
      </g>
     </g>
    </g>
    <g id="xtick_6">
     <g id="line2d_6">
      <g>
       <use style="stroke:#000000;stroke-width:0.8;" x="253.537071" xlink:href="#m2f4c37ab8b" y="307.584"/>
      </g>
     </g>
     <g id="text_6">
      <!-- 213 -->
      <g transform="translate(243.993321 322.182437)scale(0.1 -0.1)">
       <use xlink:href="#DejaVuSans-32"/>
       <use x="63.623047" xlink:href="#DejaVuSans-31"/>
       <use x="127.246094" xlink:href="#DejaVuSans-33"/>
      </g>
     </g>
    </g>
    <g id="xtick_7">
     <g id="line2d_7">
      <g>
       <use style="stroke:#000000;stroke-width:0.8;" x="289.986537" xlink:href="#m2f4c37ab8b" y="307.584"/>
      </g>
     </g>
     <g id="text_7">
      <!-- 256 -->
      <g transform="translate(280.442787 322.182437)scale(0.1 -0.1)">
       <defs>
        <path d="M 691 4666 
L 3169 4666 
L 3169 4134 
L 1269 4134 
L 1269 2991 
Q 1406 3038 1543 3061 
Q 1681 3084 1819 3084 
Q 2600 3084 3056 2656 
Q 3513 2228 3513 1497 
Q 3513 744 3044 326 
Q 2575 -91 1722 -91 
Q 1428 -91 1123 -41 
Q 819 9 494 109 
L 494 744 
Q 775 591 1075 516 
Q 1375 441 1709 441 
Q 2250 441 2565 725 
Q 2881 1009 2881 1497 
Q 2881 1984 2565 2268 
Q 2250 2553 1709 2553 
Q 1456 2553 1204 2497 
Q 953 2441 691 2322 
L 691 4666 
z
" id="DejaVuSans-35" transform="scale(0.015625)"/>
       </defs>
       <use xlink:href="#DejaVuSans-32"/>
       <use x="63.623047" xlink:href="#DejaVuSans-35"/>
       <use x="127.246094" xlink:href="#DejaVuSans-36"/>
      </g>
     </g>
    </g>
    <g id="xtick_8">
     <g id="line2d_8">
      <g>
       <use style="stroke:#000000;stroke-width:0.8;" x="325.588341" xlink:href="#m2f4c37ab8b" y="307.584"/>
      </g>
     </g>
     <g id="text_8">
      <!-- 298 -->
      <g transform="translate(316.044591 322.182437)scale(0.1 -0.1)">
       <defs>
        <path d="M 703 97 
L 703 672 
Q 941 559 1184 500 
Q 1428 441 1663 441 
Q 2288 441 2617 861 
Q 2947 1281 2994 2138 
Q 2813 1869 2534 1725 
Q 2256 1581 1919 1581 
Q 1219 1581 811 2004 
Q 403 2428 403 3163 
Q 403 3881 828 4315 
Q 1253 4750 1959 4750 
Q 2769 4750 3195 4129 
Q 3622 3509 3622 2328 
Q 3622 1225 3098 567 
Q 2575 -91 1691 -91 
Q 1453 -91 1209 -44 
Q 966 3 703 97 
z
M 1959 2075 
Q 2384 2075 2632 2365 
Q 2881 2656 2881 3163 
Q 2881 3666 2632 3958 
Q 2384 4250 1959 4250 
Q 1534 4250 1286 3958 
Q 1038 3666 1038 3163 
Q 1038 2656 1286 2365 
Q 1534 2075 1959 2075 
z
" id="DejaVuSans-39" transform="scale(0.015625)"/>
       </defs>
       <use xlink:href="#DejaVuSans-32"/>
       <use x="63.623047" xlink:href="#DejaVuSans-39"/>
       <use x="127.246094" xlink:href="#DejaVuSans-38"/>
      </g>
     </g>
    </g>
    <g id="xtick_9">
     <g id="line2d_9">
      <g>
       <use style="stroke:#000000;stroke-width:0.8;" x="362.037807" xlink:href="#m2f4c37ab8b" y="307.584"/>
      </g>
     </g>
     <g id="text_9">
      <!-- 341 -->
      <g transform="translate(352.494057 322.182437)scale(0.1 -0.1)">
       <use xlink:href="#DejaVuSans-33"/>
       <use x="63.623047" xlink:href="#DejaVuSans-34"/>
       <use x="127.246094" xlink:href="#DejaVuSans-31"/>
      </g>
     </g>
    </g>
    <g id="xtick_10">
     <g id="line2d_10">
      <g>
       <use style="stroke:#000000;stroke-width:0.8;" x="398.487273" xlink:href="#m2f4c37ab8b" y="307.584"/>
      </g>
     </g>
     <g id="text_10">
      <!-- 384 -->
      <g transform="translate(388.943523 322.182437)scale(0.1 -0.1)">
       <use xlink:href="#DejaVuSans-33"/>
       <use x="63.623047" xlink:href="#DejaVuSans-38"/>
       <use x="127.246094" xlink:href="#DejaVuSans-34"/>
      </g>
     </g>
    </g>
    <g id="text_11">
     <!-- Epochs -->
     <g transform="translate(218.244375 335.860562)scale(0.1 -0.1)">
      <defs>
       <path d="M 628 4666 
L 3578 4666 
L 3578 4134 
L 1259 4134 
L 1259 2753 
L 3481 2753 
L 3481 2222 
L 1259 2222 
L 1259 531 
L 3634 531 
L 3634 0 
L 628 0 
L 628 4666 
z
" id="DejaVuSans-45" transform="scale(0.015625)"/>
       <path d="M 1159 525 
L 1159 -1331 
L 581 -1331 
L 581 3500 
L 1159 3500 
L 1159 2969 
Q 1341 3281 1617 3432 
Q 1894 3584 2278 3584 
Q 2916 3584 3314 3078 
Q 3713 2572 3713 1747 
Q 3713 922 3314 415 
Q 2916 -91 2278 -91 
Q 1894 -91 1617 61 
Q 1341 213 1159 525 
z
M 3116 1747 
Q 3116 2381 2855 2742 
Q 2594 3103 2138 3103 
Q 1681 3103 1420 2742 
Q 1159 2381 1159 1747 
Q 1159 1113 1420 752 
Q 1681 391 2138 391 
Q 2594 391 2855 752 
Q 3116 1113 3116 1747 
z
" id="DejaVuSans-70" transform="scale(0.015625)"/>
       <path d="M 1959 3097 
Q 1497 3097 1228 2736 
Q 959 2375 959 1747 
Q 959 1119 1226 758 
Q 1494 397 1959 397 
Q 2419 397 2687 759 
Q 2956 1122 2956 1747 
Q 2956 2369 2687 2733 
Q 2419 3097 1959 3097 
z
M 1959 3584 
Q 2709 3584 3137 3096 
Q 3566 2609 3566 1747 
Q 3566 888 3137 398 
Q 2709 -91 1959 -91 
Q 1206 -91 779 398 
Q 353 888 353 1747 
Q 353 2609 779 3096 
Q 1206 3584 1959 3584 
z
" id="DejaVuSans-6f" transform="scale(0.015625)"/>
       <path d="M 3122 3366 
L 3122 2828 
Q 2878 2963 2633 3030 
Q 2388 3097 2138 3097 
Q 1578 3097 1268 2742 
Q 959 2388 959 1747 
Q 959 1106 1268 751 
Q 1578 397 2138 397 
Q 2388 397 2633 464 
Q 2878 531 3122 666 
L 3122 134 
Q 2881 22 2623 -34 
Q 2366 -91 2075 -91 
Q 1284 -91 818 406 
Q 353 903 353 1747 
Q 353 2603 823 3093 
Q 1294 3584 2113 3584 
Q 2378 3584 2631 3529 
Q 2884 3475 3122 3366 
z
" id="DejaVuSans-63" transform="scale(0.015625)"/>
       <path d="M 3513 2113 
L 3513 0 
L 2938 0 
L 2938 2094 
Q 2938 2591 2744 2837 
Q 2550 3084 2163 3084 
Q 1697 3084 1428 2787 
Q 1159 2491 1159 1978 
L 1159 0 
L 581 0 
L 581 4863 
L 1159 4863 
L 1159 2956 
Q 1366 3272 1645 3428 
Q 1925 3584 2291 3584 
Q 2894 3584 3203 3211 
Q 3513 2838 3513 2113 
z
" id="DejaVuSans-68" transform="scale(0.015625)"/>
       <path d="M 2834 3397 
L 2834 2853 
Q 2591 2978 2328 3040 
Q 2066 3103 1784 3103 
Q 1356 3103 1142 2972 
Q 928 2841 928 2578 
Q 928 2378 1081 2264 
Q 1234 2150 1697 2047 
L 1894 2003 
Q 2506 1872 2764 1633 
Q 3022 1394 3022 966 
Q 3022 478 2636 193 
Q 2250 -91 1575 -91 
Q 1294 -91 989 -36 
Q 684 19 347 128 
L 347 722 
Q 666 556 975 473 
Q 1284 391 1588 391 
Q 1994 391 2212 530 
Q 2431 669 2431 922 
Q 2431 1156 2273 1281 
Q 2116 1406 1581 1522 
L 1381 1569 
Q 847 1681 609 1914 
Q 372 2147 372 2553 
Q 372 3047 722 3315 
Q 1072 3584 1716 3584 
Q 2034 3584 2315 3537 
Q 2597 3491 2834 3397 
z
" id="DejaVuSans-73" transform="scale(0.015625)"/>
      </defs>
      <use xlink:href="#DejaVuSans-45"/>
      <use x="63.183594" xlink:href="#DejaVuSans-70"/>
      <use x="126.660156" xlink:href="#DejaVuSans-6f"/>
      <use x="187.841797" xlink:href="#DejaVuSans-63"/>
      <use x="242.822266" xlink:href="#DejaVuSans-68"/>
      <use x="306.201172" xlink:href="#DejaVuSans-73"/>
     </g>
    </g>
   </g>
   <g id="matplotlib.axis_2">
    <g id="ytick_1">
     <g id="line2d_11">
      <defs>
       <path d="M 0 0 
L -3.5 0 
" id="m9a48965a8b" style="stroke:#000000;stroke-width:0.8;"/>
      </defs>
      <g>
       <use style="stroke:#000000;stroke-width:0.8;" x="57.6" xlink:href="#m9a48965a8b" y="305.84566"/>
      </g>
     </g>
     <g id="text_12">
      <!-- 0 -->
      <g transform="translate(44.2375 309.644879)scale(0.1 -0.1)">
       <defs>
        <path d="M 2034 4250 
Q 1547 4250 1301 3770 
Q 1056 3291 1056 2328 
Q 1056 1369 1301 889 
Q 1547 409 2034 409 
Q 2525 409 2770 889 
Q 3016 1369 3016 2328 
Q 3016 3291 2770 3770 
Q 2525 4250 2034 4250 
z
M 2034 4750 
Q 2819 4750 3233 4129 
Q 3647 3509 3647 2328 
Q 3647 1150 3233 529 
Q 2819 -91 2034 -91 
Q 1250 -91 836 529 
Q 422 1150 422 2328 
Q 422 3509 836 4129 
Q 1250 4750 2034 4750 
z
" id="DejaVuSans-30" transform="scale(0.015625)"/>
       </defs>
       <use xlink:href="#DejaVuSans-30"/>
      </g>
     </g>
    </g>
    <g id="ytick_2">
     <g id="line2d_12">
      <g>
       <use style="stroke:#000000;stroke-width:0.8;" x="57.6" xlink:href="#m9a48965a8b" y="273.691995"/>
      </g>
     </g>
     <g id="text_13">
      <!-- 10 -->
      <g transform="translate(37.875 277.491213)scale(0.1 -0.1)">
       <use xlink:href="#DejaVuSans-31"/>
       <use x="63.623047" xlink:href="#DejaVuSans-30"/>
      </g>
     </g>
    </g>
    <g id="ytick_3">
     <g id="line2d_13">
      <g>
       <use style="stroke:#000000;stroke-width:0.8;" x="57.6" xlink:href="#m9a48965a8b" y="241.538329"/>
      </g>
     </g>
     <g id="text_14">
      <!-- 20 -->
      <g transform="translate(37.875 245.337548)scale(0.1 -0.1)">
       <use xlink:href="#DejaVuSans-32"/>
       <use x="63.623047" xlink:href="#DejaVuSans-30"/>
      </g>
     </g>
    </g>
    <g id="ytick_4">
     <g id="line2d_14">
      <g>
       <use style="stroke:#000000;stroke-width:0.8;" x="57.6" xlink:href="#m9a48965a8b" y="209.384663"/>
      </g>
     </g>
     <g id="text_15">
      <!-- 30 -->
      <g transform="translate(37.875 213.183882)scale(0.1 -0.1)">
       <use xlink:href="#DejaVuSans-33"/>
       <use x="63.623047" xlink:href="#DejaVuSans-30"/>
      </g>
     </g>
    </g>
    <g id="ytick_5">
     <g id="line2d_15">
      <g>
       <use style="stroke:#000000;stroke-width:0.8;" x="57.6" xlink:href="#m9a48965a8b" y="177.230998"/>
      </g>
     </g>
     <g id="text_16">
      <!-- 40 -->
      <g transform="translate(37.875 181.030217)scale(0.1 -0.1)">
       <use xlink:href="#DejaVuSans-34"/>
       <use x="63.623047" xlink:href="#DejaVuSans-30"/>
      </g>
     </g>
    </g>
    <g id="ytick_6">
     <g id="line2d_16">
      <g>
       <use style="stroke:#000000;stroke-width:0.8;" x="57.6" xlink:href="#m9a48965a8b" y="145.077332"/>
      </g>
     </g>
     <g id="text_17">
      <!-- 50 -->
      <g transform="translate(37.875 148.876551)scale(0.1 -0.1)">
       <use xlink:href="#DejaVuSans-35"/>
       <use x="63.623047" xlink:href="#DejaVuSans-30"/>
      </g>
     </g>
    </g>
    <g id="ytick_7">
     <g id="line2d_17">
      <g>
       <use style="stroke:#000000;stroke-width:0.8;" x="57.6" xlink:href="#m9a48965a8b" y="112.923667"/>
      </g>
     </g>
     <g id="text_18">
      <!-- 60 -->
      <g transform="translate(37.875 116.722885)scale(0.1 -0.1)">
       <use xlink:href="#DejaVuSans-36"/>
       <use x="63.623047" xlink:href="#DejaVuSans-30"/>
      </g>
     </g>
    </g>
    <g id="ytick_8">
     <g id="line2d_18">
      <g>
       <use style="stroke:#000000;stroke-width:0.8;" x="57.6" xlink:href="#m9a48965a8b" y="80.770001"/>
      </g>
     </g>
     <g id="text_19">
      <!-- 70 -->
      <g transform="translate(37.875 84.56922)scale(0.1 -0.1)">
       <use xlink:href="#DejaVuSans-37"/>
       <use x="63.623047" xlink:href="#DejaVuSans-30"/>
      </g>
     </g>
    </g>
    <g id="ytick_9">
     <g id="line2d_19">
      <g>
       <use style="stroke:#000000;stroke-width:0.8;" x="57.6" xlink:href="#m9a48965a8b" y="48.616335"/>
      </g>
     </g>
     <g id="text_20">
      <!-- 80 -->
      <g transform="translate(37.875 52.415554)scale(0.1 -0.1)">
       <use xlink:href="#DejaVuSans-38"/>
       <use x="63.623047" xlink:href="#DejaVuSans-30"/>
      </g>
     </g>
    </g>
    <g id="text_21">
     <!-- Accuracy -->
     <g transform="translate(31.795312 197.356125)rotate(-90)scale(0.1 -0.1)">
      <defs>
       <path d="M 2188 4044 
L 1331 1722 
L 3047 1722 
L 2188 4044 
z
M 1831 4666 
L 2547 4666 
L 4325 0 
L 3669 0 
L 3244 1197 
L 1141 1197 
L 716 0 
L 50 0 
L 1831 4666 
z
" id="DejaVuSans-41" transform="scale(0.015625)"/>
       <path d="M 544 1381 
L 544 3500 
L 1119 3500 
L 1119 1403 
Q 1119 906 1312 657 
Q 1506 409 1894 409 
Q 2359 409 2629 706 
Q 2900 1003 2900 1516 
L 2900 3500 
L 3475 3500 
L 3475 0 
L 2900 0 
L 2900 538 
Q 2691 219 2414 64 
Q 2138 -91 1772 -91 
Q 1169 -91 856 284 
Q 544 659 544 1381 
z
M 1991 3584 
L 1991 3584 
z
" id="DejaVuSans-75" transform="scale(0.015625)"/>
       <path d="M 2631 2963 
Q 2534 3019 2420 3045 
Q 2306 3072 2169 3072 
Q 1681 3072 1420 2755 
Q 1159 2438 1159 1844 
L 1159 0 
L 581 0 
L 581 3500 
L 1159 3500 
L 1159 2956 
Q 1341 3275 1631 3429 
Q 1922 3584 2338 3584 
Q 2397 3584 2469 3576 
Q 2541 3569 2628 3553 
L 2631 2963 
z
" id="DejaVuSans-72" transform="scale(0.015625)"/>
       <path d="M 2194 1759 
Q 1497 1759 1228 1600 
Q 959 1441 959 1056 
Q 959 750 1161 570 
Q 1363 391 1709 391 
Q 2188 391 2477 730 
Q 2766 1069 2766 1631 
L 2766 1759 
L 2194 1759 
z
M 3341 1997 
L 3341 0 
L 2766 0 
L 2766 531 
Q 2569 213 2275 61 
Q 1981 -91 1556 -91 
Q 1019 -91 701 211 
Q 384 513 384 1019 
Q 384 1609 779 1909 
Q 1175 2209 1959 2209 
L 2766 2209 
L 2766 2266 
Q 2766 2663 2505 2880 
Q 2244 3097 1772 3097 
Q 1472 3097 1187 3025 
Q 903 2953 641 2809 
L 641 3341 
Q 956 3463 1253 3523 
Q 1550 3584 1831 3584 
Q 2591 3584 2966 3190 
Q 3341 2797 3341 1997 
z
" id="DejaVuSans-61" transform="scale(0.015625)"/>
       <path d="M 2059 -325 
Q 1816 -950 1584 -1140 
Q 1353 -1331 966 -1331 
L 506 -1331 
L 506 -850 
L 844 -850 
Q 1081 -850 1212 -737 
Q 1344 -625 1503 -206 
L 1606 56 
L 191 3500 
L 800 3500 
L 1894 763 
L 2988 3500 
L 3597 3500 
L 2059 -325 
z
" id="DejaVuSans-79" transform="scale(0.015625)"/>
      </defs>
      <use xlink:href="#DejaVuSans-41"/>
      <use x="66.658203" xlink:href="#DejaVuSans-63"/>
      <use x="121.638672" xlink:href="#DejaVuSans-63"/>
      <use x="176.619141" xlink:href="#DejaVuSans-75"/>
      <use x="239.998047" xlink:href="#DejaVuSans-72"/>
      <use x="281.111328" xlink:href="#DejaVuSans-61"/>
      <use x="342.390625" xlink:href="#DejaVuSans-63"/>
      <use x="397.371094" xlink:href="#DejaVuSans-79"/>
     </g>
    </g>
   </g>
   <g id="line2d_20">
    <path clip-path="url(#p5849f8fcff)" d="M 73.832727 295.488 
L 74.680389 290.313189 
L 75.528051 288.675603 
L 77.223375 281.344567 
L 78.071037 278.57067 
L 78.918699 274.403555 
L 79.766361 271.014559 
L 80.614023 266.219483 
L 81.461685 264.663245 
L 82.309347 264.135925 
L 83.157009 258.727679 
L 84.004671 259.35564 
L 84.852333 253.20593 
L 85.699995 252.296946 
L 86.547657 248.897339 
L 87.395319 243.870434 
L 88.242981 251.261598 
L 89.090643 244.262709 
L 89.938305 239.08822 
L 90.785967 244.52444 
L 91.633629 239.538371 
L 92.481291 245.263974 
L 93.328953 233.611486 
L 94.176615 234.207293 
L 95.024277 233.754891 
L 95.871939 234.097971 
L 96.719601 231.489344 
L 97.567263 229.465592 
L 98.414925 233.512774 
L 99.262587 258.258235 
L 100.110249 246.337907 
L 100.957911 244.526369 
L 101.805573 242.237028 
L 102.653235 249.377393 
L 103.500897 245.203847 
L 104.348559 238.723919 
L 105.196221 245.58326 
L 106.043883 245.396769 
L 106.891545 240.260864 
L 107.739207 243.797767 
L 108.586869 236.445188 
L 109.434531 243.071094 
L 110.282193 236.640361 
L 111.129855 235.740059 
L 111.977517 236.325255 
L 112.825179 245.531814 
L 113.672841 234.513718 
L 114.520503 237.272502 
L 115.368165 229.943717 
L 116.215827 230.724087 
L 117.063489 230.421842 
L 117.911151 222.222658 
L 118.758813 224.516179 
L 119.606475 215.787423 
L 120.454137 228.693904 
L 121.301799 226.299742 
L 122.149461 228.162404 
L 123.844785 220.629765 
L 124.692447 218.490582 
L 125.540109 218.449746 
L 126.387771 218.267757 
L 127.235433 216.085487 
L 128.930757 214.662045 
L 129.778419 228.8312 
L 130.626081 208.735159 
L 131.473743 216.743673 
L 132.321405 214.653685 
L 133.169067 208.265716 
L 134.016729 212.565626 
L 134.864391 226.319035 
L 135.712053 208.628088 
L 136.559715 208.683714 
L 137.407377 199.963639 
L 138.255039 201.625019 
L 139.102701 202.565836 
L 139.950363 204.776079 
L 141.645687 197.815775 
L 142.493349 205.560628 
L 143.341011 197.69134 
L 144.188673 203.230452 
L 145.036335 192.133257 
L 146.731659 206.340676 
L 147.579321 204.570295 
L 148.426983 210.902317 
L 149.274645 194.705551 
L 150.122307 237.081831 
L 150.969969 229.557873 
L 151.817631 229.416397 
L 152.665293 221.326535 
L 153.512955 214.932135 
L 154.360617 231.435647 
L 155.208279 220.141029 
L 156.055941 221.270909 
L 156.903603 225.705864 
L 157.751265 214.327647 
L 158.598927 221.092778 
L 159.446589 226.36823 
L 160.294251 218.014707 
L 161.141913 223.920371 
L 161.989575 217.07164 
L 162.837237 214.051125 
L 163.684899 232.586749 
L 164.532561 222.670558 
L 165.380223 218.274187 
L 166.227885 221.508846 
L 167.075547 220.377037 
L 167.923209 226.921273 
L 168.770871 222.406898 
L 169.618533 217.232409 
L 170.466195 218.374828 
L 171.313857 224.923565 
L 172.161519 219.168059 
L 173.009181 225.682392 
L 173.856843 217.311507 
L 174.704505 212.713532 
L 175.552167 219.242977 
L 176.399829 206.317204 
L 177.247491 219.485094 
L 178.095153 224.979191 
L 178.942815 216.885149 
L 179.790477 226.706808 
L 180.638139 214.895802 
L 181.485801 215.240811 
L 182.333463 217.227907 
L 183.181125 202.928207 
L 184.028787 212.329939 
L 184.876449 217.997666 
L 185.724111 206.81237 
L 186.571773 208.289188 
L 187.419435 207.24966 
L 188.267097 200.23148 
L 189.114759 207.41911 
L 189.962421 208.306551 
L 190.810083 210.662129 
L 191.657745 203.860664 
L 192.505407 213.429595 
L 193.353069 208.368608 
L 194.200731 204.641033 
L 195.048393 203.020488 
L 195.896055 203.982848 
L 196.743717 205.882165 
L 197.591379 212.220617 
L 198.439041 207.824246 
L 199.286703 200.308648 
L 200.134365 209.601058 
L 200.982027 197.350511 
L 201.829689 193.168605 
L 202.677351 210.385607 
L 203.525013 201.45782 
L 204.372675 187.606021 
L 205.220337 195.423542 
L 206.067999 209.416817 
L 206.915661 202.317288 
L 207.763323 205.305328 
L 208.610985 198.797426 
L 209.458647 191.413015 
L 210.306309 193.335804 
L 211.153971 202.750398 
L 212.001633 196.276579 
L 213.696957 202.105074 
L 214.544619 198.699036 
L 215.392281 201.633379 
L 216.239943 193.400112 
L 217.087605 191.430057 
L 217.935267 198.145993 
L 218.782929 190.439724 
L 219.630591 186.131133 
L 220.478253 188.229802 
L 221.325915 187.685119 
L 222.173577 185.318609 
L 223.021239 200.122157 
L 223.868901 200.93886 
L 224.716563 189.104382 
L 225.564225 191.601436 
L 226.411887 190.67541 
L 227.259549 184.09259 
L 228.107211 183.906099 
L 228.954873 180.118397 
L 229.802535 186.551381 
L 230.650197 190.40757 
L 231.497859 182.945669 
L 232.345521 189.899542 
L 233.193183 183.500963 
L 234.040845 185.575839 
L 234.888507 182.165621 
L 235.736169 178.084035 
L 236.583831 179.198802 
L 237.431493 182.752747 
L 238.279155 179.237387 
L 239.974479 182.491338 
L 240.822141 176.292111 
L 241.669803 193.490142 
L 242.517465 170.828238 
L 243.365127 175.395988 
L 244.212789 176.311403 
L 245.060451 185.972615 
L 245.908113 180.677871 
L 246.755775 192.287595 
L 247.603437 179.456032 
L 248.451099 184.206093 
L 249.298761 178.847363 
L 250.146423 176.969589 
L 250.994085 185.993836 
L 251.841747 243.868505 
L 252.689409 220.75645 
L 253.537071 213.174616 
L 255.232395 216.02536 
L 256.080057 213.892607 
L 256.927719 221.287951 
L 257.775381 207.020404 
L 258.623043 213.515445 
L 259.470705 211.316134 
L 260.318367 212.126407 
L 261.166029 218.149753 
L 262.013691 217.828216 
L 262.861353 208.642878 
L 263.709015 210.149921 
L 264.556677 206.827482 
L 265.404339 209.903302 
L 266.252001 216.023431 
L 267.099663 224.066027 
L 267.947325 209.894942 
L 268.794987 209.18306 
L 269.642649 214.764936 
L 270.490311 216.261368 
L 271.337973 203.586393 
L 272.185635 200.295787 
L 273.033297 207.523931 
L 273.880959 207.841288 
L 274.728621 206.314953 
L 275.576283 211.148935 
L 276.423945 210.355704 
L 277.271607 211.933485 
L 278.119269 197.822205 
L 278.966931 222.820716 
L 279.814593 216.546249 
L 280.662255 204.413707 
L 281.509917 201.502835 
L 282.357579 217.721144 
L 283.205241 210.042849 
L 284.052903 195.412931 
L 284.900565 198.03442 
L 285.748227 198.660451 
L 286.595889 215.465886 
L 287.443551 206.432957 
L 288.291213 207.091143 
L 289.138875 209.26473 
L 289.986537 215.423122 
L 290.834199 208.64738 
L 291.681861 205.509182 
L 292.529523 197.693591 
L 293.377185 196.000057 
L 294.224847 190.904987 
L 295.072509 208.522945 
L 295.920171 200.868122 
L 296.767833 212.874301 
L 297.615495 213.438276 
L 298.463157 203.575461 
L 299.310819 208.493042 
L 300.158481 201.217632 
L 301.006143 199.564934 
L 301.853805 200.776163 
L 302.701467 208.113629 
L 303.549129 211.011639 
L 304.396791 207.652546 
L 305.244453 211.200381 
L 306.092115 206.077016 
L 306.939777 204.964499 
L 307.787439 205.487639 
L 308.635101 199.146936 
L 309.482763 207.875692 
L 310.330425 201.356858 
L 311.178087 192.557686 
L 312.025749 209.431929 
L 312.873411 201.524057 
L 313.721073 204.064196 
L 314.568735 196.825442 
L 315.416397 192.574727 
L 316.264059 197.549864 
L 317.959383 205.046169 
L 318.807045 205.054529 
L 319.654707 208.100768 
L 320.502369 197.918666 
L 321.350031 207.363163 
L 322.197693 199.97007 
L 323.045355 201.935624 
L 323.893017 203.337524 
L 324.740679 210.197187 
L 325.588341 195.2348 
L 327.283665 203.721438 
L 328.131327 203.639768 
L 328.978989 207.058989 
L 329.826651 203.761952 
L 330.674313 198.347275 
L 331.521975 198.330233 
L 332.369637 201.695757 
L 333.217299 202.358123 
L 334.064961 184.416378 
L 334.912623 204.868038 
L 335.760285 207.613961 
L 336.607947 194.638992 
L 337.455609 199.858497 
L 338.303271 195.273384 
L 339.150933 189.820123 
L 339.998595 191.935834 
L 340.846257 189.17512 
L 341.693919 209.320356 
L 342.541581 197.965932 
L 343.389243 195.327081 
L 344.236905 199.496447 
L 345.084567 199.117033 
L 345.932229 204.816592 
L 346.779891 203.869345 
L 347.627553 205.892775 
L 348.475215 202.542363 
L 349.322877 190.516893 
L 350.170539 196.37304 
L 351.018201 203.099586 
L 351.865863 193.65091 
L 352.713525 205.292574 
L 353.561187 196.568212 
L 354.408849 196.600366 
L 355.256511 204.488732 
L 356.104173 196.319557 
L 356.951835 166.521684 
L 357.799497 192.737639 
L 358.647159 191.520087 
L 359.494821 197.234865 
L 360.342483 182.780721 
L 362.037807 201.852131 
L 362.885469 193.764413 
L 363.733131 178.390673 
L 364.580793 194.113816 
L 365.428455 190.64122 
L 366.276117 181.629619 
L 367.123779 193.183503 
L 367.971441 202.381595 
L 368.819103 185.312286 
L 369.666765 194.774038 
L 370.514427 199.026896 
L 371.362089 197.762185 
L 372.209751 202.458764 
L 373.057413 187.734529 
L 373.905075 191.07851 
L 375.600399 195.790094 
L 376.448061 174.789463 
L 379.838709 193.384999 
L 381.534033 193.552199 
L 382.381695 178.881553 
L 383.229357 192.587589 
L 384.077019 183.966119 
L 384.924681 178.191321 
L 385.772343 182.592086 
L 386.620005 186.028241 
L 387.467667 188.50836 
L 388.315329 173.589059 
L 389.162991 181.012269 
L 390.010653 185.966077 
L 390.858315 183.938253 
L 391.705977 187.80741 
L 392.553639 182.300559 
L 393.401301 190.46759 
L 394.248963 182.525635 
L 395.096625 171.162529 
L 395.944287 169.276181 
L 396.791949 184.489152 
L 397.639611 185.850324 
L 398.487273 177.934091 
L 398.487273 177.934091 
" style="fill:none;stroke:#1f77b4;stroke-linecap:square;stroke-width:1.5;"/>
   </g>
   <g id="line2d_21">
    <path clip-path="url(#p5849f8fcff)" d="M 73.832727 290.31544 
L 74.680389 272.470155 
L 75.528051 271.505545 
L 76.375713 254.689178 
L 77.223375 252.020424 
L 78.071037 244.978771 
L 78.918699 227.712253 
L 79.766361 224.754116 
L 80.614023 213.468179 
L 81.461685 210.284966 
L 82.309347 201.98932 
L 83.157009 197.937959 
L 84.004671 189.867388 
L 85.699995 168.710277 
L 86.547657 175.14101 
L 87.395319 167.166901 
L 88.242981 165.719986 
L 89.090643 156.138193 
L 89.938305 149.900382 
L 90.785967 150.961453 
L 91.633629 146.331325 
L 92.481291 143.56611 
L 93.328953 134.498776 
L 94.176615 132.151559 
L 95.024277 131.154795 
L 95.871939 125.656518 
L 96.719601 126.203131 
L 97.567263 124.402525 
L 98.414925 123.470069 
L 99.262587 174.1764 
L 100.110249 166.781057 
L 100.957911 167.42413 
L 102.653235 158.935562 
L 103.500897 153.276517 
L 104.348559 152.536983 
L 105.196221 142.537193 
L 106.043883 158.228182 
L 106.891545 132.794632 
L 107.739207 145.205947 
L 108.586869 128.839731 
L 109.434531 136.235074 
L 110.282193 133.92001 
L 111.129855 126.942665 
L 112.825179 133.244783 
L 113.672841 131.958637 
L 114.520503 124.209603 
L 115.368165 130.929719 
L 116.215827 122.60192 
L 117.063489 123.630837 
L 117.911151 113.438125 
L 118.758813 118.196868 
L 119.606475 109.515378 
L 120.454137 112.24844 
L 121.301799 115.624575 
L 122.149461 106.525087 
L 122.997123 108.582922 
L 123.844785 109.515378 
L 124.692447 107.136007 
L 125.540109 103.984948 
L 126.387771 101.348347 
L 127.235433 100.030047 
L 128.083095 110.383527 
L 128.930757 96.428836 
L 129.778419 101.476962 
L 130.626081 93.277777 
L 131.473743 91.830862 
L 132.321405 91.927323 
L 133.169067 90.06241 
L 134.016729 89.740874 
L 134.864391 84.628441 
L 135.712053 84.564134 
L 136.559715 81.766765 
L 137.407377 82.474145 
L 138.255039 82.763528 
L 139.102701 82.731375 
L 139.950363 78.197708 
L 140.798025 76.975869 
L 141.645687 76.622178 
L 142.493349 74.564344 
L 143.341011 76.300642 
L 144.188673 77.393866 
L 145.036335 74.210653 
L 145.883997 73.406812 
L 146.731659 74.467883 
L 147.579321 73.92127 
L 148.426983 73.149582 
L 149.274645 72.731585 
L 150.122307 121.058544 
L 150.969969 121.28362 
L 151.817631 119.868858 
L 152.665293 113.309511 
L 153.512955 113.534586 
L 154.360617 107.586158 
L 155.208279 123.759452 
L 156.055941 104.724482 
L 156.903603 105.206787 
L 157.751265 114.788579 
L 158.598927 117.360873 
L 159.446589 124.080989 
L 160.294251 105.013865 
L 161.141913 124.466833 
L 162.837237 102.634494 
L 163.684899 100.158661 
L 164.532561 100.383737 
L 165.380223 97.4256 
L 166.227885 102.087881 
L 167.075547 102.280803 
L 167.923209 96.139453 
L 168.770871 104.145716 
L 169.618533 97.200524 
L 170.466195 91.316403 
L 171.313857 101.734191 
L 172.161519 92.281013 
L 173.009181 93.888697 
L 173.856843 93.21347 
L 174.704505 95.464226 
L 175.552167 92.281013 
L 176.399829 111.798288 
L 177.247491 93.245623 
L 178.095153 106.718009 
L 178.942815 98.840361 
L 179.790477 94.692538 
L 180.638139 93.760082 
L 181.485801 97.682829 
L 182.333463 97.682829 
L 183.181125 94.821153 
L 184.028787 92.988394 
L 184.876449 87.07212 
L 185.724111 94.145926 
L 186.571773 90.06241 
L 187.419435 148.164084 
L 188.267097 88.583342 
L 189.114759 89.933796 
L 189.962421 83.020758 
L 190.810083 84.371212 
L 191.657745 89.901642 
L 192.505407 84.017521 
L 193.353069 84.435519 
L 194.200731 86.171817 
L 195.048393 84.17829 
L 195.896055 85.110746 
L 196.743717 87.232888 
L 197.591379 81.831072 
L 198.439041 87.039966 
L 199.286703 80.577079 
L 200.134365 84.692748 
L 200.982027 79.258779 
L 201.829689 75.979105 
L 202.677351 76.10772 
L 203.525013 76.8151 
L 204.372675 81.316613 
L 205.220337 74.692958 
L 206.067999 73.149582 
L 206.915661 78.776474 
L 207.763323 79.033703 
L 208.610985 72.538663 
L 209.458647 73.246043 
L 210.306309 76.10772 
L 211.153971 71.927743 
L 212.001633 70.094984 
L 212.849295 70.67375 
L 213.696957 67.715613 
L 214.544619 71.091748 
L 215.392281 67.619152 
L 216.239943 67.619152 
L 217.087605 66.622388 
L 217.935267 68.294379 
L 219.630591 70.352213 
L 220.478253 66.10793 
L 221.325915 63.889327 
L 222.173577 65.111166 
L 223.021239 64.821783 
L 223.868901 62.989024 
L 224.716563 62.313797 
L 225.564225 62.410258 
L 226.411887 62.989024 
L 227.259549 64.210863 
L 228.954873 60.030887 
L 229.802535 59.516428 
L 230.650197 60.06304 
L 231.497859 61.381341 
L 232.345521 57.555055 
L 234.040845 57.265672 
L 234.888507 59.09843 
L 235.736169 57.458594 
L 236.583831 56.493984 
L 237.431493 55.336452 
L 238.279155 55.947371 
L 239.126817 55.014915 
L 239.974479 54.8863 
L 240.822141 54.339688 
L 241.669803 54.982761 
L 242.517465 55.014915 
L 243.365127 55.272144 
L 244.212789 54.211073 
L 245.060451 55.368605 
L 245.908113 54.050305 
L 246.755775 53.953844 
L 247.603437 54.018151 
L 248.451099 54.436149 
L 249.298761 53.889537 
L 250.146423 53.568 
L 250.994085 56.043832 
L 251.841747 116.396263 
L 252.689409 103.792026 
L 253.537071 93.502853 
L 254.384733 90.834098 
L 255.232395 133.21263 
L 256.080057 98.583132 
L 256.927719 93.792236 
L 257.775381 98.583132 
L 258.623043 85.593051 
L 259.470705 90.31964 
L 260.318367 97.393446 
L 261.166029 94.467463 
L 262.013691 96.46099 
L 262.861353 92.506089 
L 263.709015 100.31943 
L 264.556677 91.02702 
L 265.404339 91.63794 
L 266.252001 96.428836 
L 267.099663 86.782737 
L 267.947325 95.174843 
L 268.794987 90.67333 
L 269.642649 110.479988 
L 270.490311 95.49638 
L 271.337973 102.409418 
L 272.185635 99.451281 
L 273.033297 89.933796 
L 273.880959 87.522271 
L 274.728621 89.773027 
L 275.576283 106.621548 
L 276.423945 89.483644 
L 277.271607 87.168581 
L 278.119269 90.191025 
L 278.966931 85.721666 
L 279.814593 90.834098 
L 280.662255 82.088301 
L 281.509917 101.605576 
L 282.357579 89.419337 
L 283.205241 98.968976 
L 284.052903 89.933796 
L 284.900565 84.049675 
L 285.748227 80.930769 
L 286.595889 78.615706 
L 287.443551 98.068673 
L 289.138875 83.310141 
L 289.986537 83.374448 
L 290.834199 98.293749 
L 292.529523 77.77971 
L 293.377185 91.187789 
L 294.224847 80.770001 
L 295.072509 88.711957 
L 295.920171 88.197498 
L 296.767833 84.982131 
L 297.615495 82.827836 
L 298.463157 117.875331 
L 299.310819 86.879198 
L 300.158481 78.551398 
L 301.006143 82.699221 
L 301.853805 80.416311 
L 302.701467 83.728138 
L 303.549129 84.113982 
L 304.396791 84.757056 
L 305.244453 82.184762 
L 306.092115 88.454727 
L 306.939777 77.811864 
L 307.787439 77.265252 
L 308.635101 88.519035 
L 309.482763 84.499826 
L 310.330425 91.445018 
L 311.178087 81.99184 
L 312.025749 79.869698 
L 312.873411 84.467673 
L 313.721073 142.858729 
L 314.568735 85.625205 
L 316.264059 76.364949 
L 317.111721 80.544925 
L 317.959383 78.229862 
L 318.807045 81.477382 
L 319.654707 86.268278 
L 320.502369 77.265252 
L 321.350031 85.078592 
L 322.197693 76.622178 
L 323.045355 75.432493 
L 323.893017 74.821573 
L 325.588341 86.911351 
L 326.436003 78.165554 
L 327.283665 74.564344 
L 328.978989 75.786183 
L 329.826651 79.773237 
L 330.674313 70.802365 
L 331.521975 74.596497 
L 332.369637 73.053121 
L 333.217299 79.001549 
L 334.064961 79.419547 
L 334.912623 77.522481 
L 335.760285 72.699431 
L 336.607947 72.699431 
L 337.455609 75.14311 
L 338.303271 71.99205 
L 339.150933 72.217126 
L 339.998595 78.615706 
L 340.846257 70.255752 
L 341.693919 73.438965 
L 342.541581 72.184972 
L 343.389243 74.017731 
L 344.236905 71.445438 
L 345.084567 72.570816 
L 345.932229 74.692958 
L 346.779891 71.348977 
L 347.627553 77.618942 
L 348.475215 70.094984 
L 349.322877 74.88588 
L 350.170539 69.805601 
L 351.865863 71.606206 
L 352.713525 67.522691 
L 353.561187 72.345741 
L 355.256511 65.529164 
L 356.104173 68.776684 
L 356.951835 70.995287 
L 357.799497 96.911141 
L 358.647159 68.422994 
L 359.494821 70.963133 
L 360.342483 70.834518 
L 361.190145 65.304088 
L 362.037807 68.776684 
L 362.885469 66.204391 
L 363.733131 64.500246 
L 364.580793 71.541899 
L 365.428455 65.625625 
L 366.276117 67.77992 
L 367.123779 69.033913 
L 367.971441 65.529164 
L 368.819103 72.474355 
L 369.666765 66.493774 
L 370.514427 64.564554 
L 371.362089 63.310561 
L 372.209751 65.046859 
L 373.057413 63.085485 
L 373.905075 65.529164 
L 374.752737 64.146556 
L 375.600399 61.477802 
L 376.448061 66.46162 
L 377.295723 63.503483 
L 378.143385 61.799338 
L 378.991047 62.796102 
L 379.838709 64.918244 
L 380.686371 62.828256 
L 381.534033 67.233308 
L 382.381695 59.130584 
L 383.229357 63.985788 
L 384.077019 62.892563 
L 384.924681 62.796102 
L 385.772343 61.831492 
L 386.620005 58.326743 
L 387.467667 62.474565 
L 388.315329 67.619152 
L 390.010653 59.966579 
L 390.858315 58.326743 
L 391.705977 60.641806 
L 392.553639 59.066277 
L 393.401301 81.573843 
L 394.248963 58.809047 
L 395.096625 57.458594 
L 395.944287 58.776894 
L 396.791949 58.262435 
L 397.639611 58.648279 
L 398.487273 58.423204 
L 398.487273 58.423204 
" style="fill:none;stroke:#ff7f0e;stroke-linecap:square;stroke-width:1.5;"/>
   </g>
   <g id="line2d_22">
    <path clip-path="url(#p5849f8fcff)" d="M 73.832727 291.410272 
L 74.680389 275.73954 
L 75.528051 274.131857 
L 76.375713 259.036675 
L 77.223375 257.78429 
L 78.071037 253.096607 
L 78.918699 240.252182 
L 79.766361 237.646128 
L 80.614023 231.317 
L 81.461685 225.884639 
L 83.157009 219.605992 
L 84.004671 209.452508 
L 84.852333 206.237141 
L 85.699995 194.543175 
L 86.547657 195.727716 
L 87.395319 189.567716 
L 88.242981 190.447762 
L 89.090643 183.001616 
L 89.938305 178.483383 
L 90.785967 177.85703 
L 91.633629 169.666527 
L 92.481291 172.25554 
L 93.328953 161.407858 
L 94.176615 161.64483 
L 95.024277 160.08795 
L 95.871939 154.198684 
L 96.719601 153.572652 
L 97.567263 152.049533 
L 98.414925 151.98201 
L 99.262587 197.437004 
L 100.110249 195.338656 
L 100.957911 194.864711 
L 101.805573 190.938749 
L 102.653235 189.009529 
L 103.500897 178.127764 
L 104.348559 178.381778 
L 105.196221 170.157191 
L 106.043883 187.926272 
L 106.891545 165.198775 
L 107.739207 175.048086 
L 108.586869 161.746436 
L 109.434531 166.603247 
L 110.282193 161.45866 
L 111.129855 155.620198 
L 111.977517 160.223316 
L 112.825179 161.154165 
L 113.672841 157.854234 
L 114.520503 156.077423 
L 115.368165 162.017169 
L 116.215827 150.204877 
L 117.063489 159.444876 
L 117.911151 148.749602 
L 118.758813 147.767951 
L 120.454137 141.455865 
L 121.301799 144.383456 
L 122.149461 136.700338 
L 122.997123 142.589603 
L 123.844785 141.405062 
L 124.692447 141.218892 
L 125.540109 135.363388 
L 126.387771 132.368274 
L 127.235433 136.463687 
L 128.083095 141.455865 
L 128.930757 130.218802 
L 129.778419 131.048045 
L 130.626081 127.731394 
L 131.473743 127.46066 
L 132.321405 127.900523 
L 133.169067 128.746807 
L 134.016729 128.678963 
L 134.864391 120.758872 
L 135.712053 121.09745 
L 136.559715 120.099079 
L 137.407377 115.157382 
L 138.255039 116.900432 
L 139.102701 117.763758 
L 139.950363 111.739126 
L 140.798025 110.960685 
L 141.645687 111.028208 
L 142.493349 110.706671 
L 143.341011 111.586717 
L 144.188673 110.723713 
L 145.036335 110.537543 
L 145.883997 110.097681 
L 146.731659 108.269745 
L 147.579321 108.997383 
L 148.426983 108.879057 
L 149.274645 106.966879 
L 150.122307 160.84967 
L 150.969969 155.146574 
L 151.817631 150.204877 
L 152.665293 153.538891 
L 153.512955 144.4513 
L 154.360617 144.197286 
L 155.208279 157.143317 
L 156.055941 138.748205 
L 156.903603 137.411255 
L 157.751265 155.958776 
L 158.598927 151.372698 
L 159.446589 154.486459 
L 160.294251 138.358824 
L 161.141913 166.908064 
L 161.989575 150.018708 
L 162.837237 141.642035 
L 163.684899 135.482035 
L 164.532561 135.532838 
L 165.380223 132.706531 
L 167.075547 137.462058 
L 167.923209 130.37121 
L 168.770871 138.86653 
L 170.466195 129.288275 
L 171.313857 146.058984 
L 172.161519 127.003435 
L 173.009181 128.594399 
L 173.856843 128.611119 
L 174.704505 128.340385 
L 175.552167 126.461968 
L 176.399829 148.30974 
L 177.247491 135.448274 
L 178.095153 143.080268 
L 178.942815 142.589603 
L 179.790477 132.537403 
L 180.638139 129.135866 
L 181.485801 138.08809 
L 182.333463 131.70816 
L 183.181125 135.684925 
L 184.876449 126.597335 
L 185.724111 132.892701 
L 186.571773 129.59277 
L 187.419435 176.148062 
L 188.267097 126.326601 
L 189.114759 132.977265 
L 189.962421 121.09745 
L 191.657745 127.46066 
L 192.505407 120.471418 
L 193.353069 123.162037 
L 194.200731 125.209904 
L 195.048393 120.623505 
L 195.896055 119.405203 
L 196.743717 120.301968 
L 197.591379 118.356029 
L 198.439041 129.203711 
L 199.286703 114.243575 
L 200.134365 124.600592 
L 200.982027 118.812932 
L 201.829689 114.954492 
L 202.677351 112.906625 
L 203.525013 113.228162 
L 204.372675 120.31901 
L 205.220337 111.620479 
L 206.067999 110.808277 
L 206.915661 119.591372 
L 207.763323 114.971212 
L 208.610985 107.626672 
L 209.458647 108.235984 
L 210.306309 113.668346 
L 211.153971 108.997383 
L 212.001633 110.198965 
L 212.849295 107.305135 
L 213.696957 109.792864 
L 214.544619 108.506718 
L 215.392281 104.529952 
L 216.239943 106.543736 
L 217.087605 100.773118 
L 217.935267 103.599104 
L 219.630591 108.185181 
L 220.478253 100.705274 
L 221.325915 97.54071 
L 222.173577 100.993049 
L 223.868901 100.603668 
L 224.716563 99.893072 
L 225.564225 97.896008 
L 226.411887 100.603668 
L 227.259549 101.60204 
L 228.107211 96.999242 
L 228.954873 97.608233 
L 229.802535 97.506949 
L 230.650197 95.696054 
L 231.497859 98.454517 
L 232.345521 94.83305 
L 233.193183 94.596077 
L 234.040845 90.500665 
L 234.888507 95.137545 
L 235.736169 94.443669 
L 236.583831 94.799288 
L 237.431493 91.092935 
L 238.279155 92.514449 
L 239.126817 91.685206 
L 239.974479 91.719289 
L 240.822141 91.922178 
L 241.669803 91.871376 
L 242.517465 88.28367 
L 243.365127 86.794633 
L 244.212789 87.674679 
L 245.060451 91.888417 
L 245.908113 91.634403 
L 246.755775 92.006743 
L 247.603437 92.243715 
L 248.451099 89.519335 
L 249.298761 90.873004 
L 250.146423 92.599013 
L 250.994085 91.448555 
L 251.841747 157.278684 
L 252.689409 144.400498 
L 253.537071 135.9727 
L 254.384733 138.578755 
L 255.232395 168.854003 
L 256.080057 142.166461 
L 256.927719 139.81442 
L 257.775381 140.440452 
L 258.623043 128.932655 
L 259.470705 133.163435 
L 260.318367 140.948159 
L 261.166029 138.815727 
L 262.013691 136.006462 
L 262.861353 137.140521 
L 263.709015 139.391278 
L 264.556677 135.431233 
L 265.404339 136.294237 
L 266.252001 139.289672 
L 267.099663 131.843527 
L 267.947325 131.928091 
L 268.794987 134.060522 
L 269.642649 147.091116 
L 270.490311 133.366646 
L 271.337973 140.034351 
L 272.185635 132.520361 
L 273.033297 130.100476 
L 273.880959 125.277427 
L 274.728621 126.766784 
L 275.576283 146.58341 
L 276.423945 130.709788 
L 277.271607 126.868068 
L 278.119269 129.102105 
L 278.966931 123.551418 
L 279.814593 126.783504 
L 280.662255 123.517335 
L 281.509917 137.275888 
L 282.357579 127.578986 
L 283.205241 138.748205 
L 284.052903 127.359055 
L 284.900565 121.943735 
L 285.748227 118.254423 
L 286.595889 120.31901 
L 287.443551 131.606554 
L 288.291213 131.352862 
L 289.138875 119.3544 
L 289.986537 121.757565 
L 290.834199 135.888136 
L 291.681861 124.431142 
L 292.529523 117.408138 
L 293.377185 124.498986 
L 294.224847 120.115799 
L 295.072509 125.717289 
L 295.920171 130.168321 
L 296.767833 124.363619 
L 297.615495 120.369813 
L 298.463157 149.849579 
L 299.310819 123.060431 
L 301.006143 120.640546 
L 301.853805 116.680501 
L 302.701467 124.295775 
L 303.549129 117.475983 
L 304.396791 123.077473 
L 305.244453 116.663781 
L 306.092115 123.02667 
L 306.939777 114.53135 
L 307.787439 112.314355 
L 308.635101 122.536005 
L 309.482763 119.557611 
L 310.330425 129.355798 
L 311.178087 116.342244 
L 312.025749 119.557611 
L 312.873411 125.14206 
L 313.721073 166.873981 
L 314.568735 122.654331 
L 315.416397 117.493024 
L 316.264059 113.56674 
L 317.111721 116.392726 
L 317.959383 115.783735 
L 318.807045 114.378942 
L 319.654707 123.517335 
L 320.502369 113.651304 
L 321.350031 117.289813 
L 322.197693 116.849951 
L 323.045355 108.100617 
L 323.893017 115.935822 
L 324.740679 112.652933 
L 325.588341 127.612747 
L 326.436003 115.732932 
L 327.283665 118.914538 
L 328.131327 115.276029 
L 328.978989 111.028208 
L 329.826651 123.381968 
L 330.674313 111.772887 
L 331.521975 113.177359 
L 332.369637 114.141969 
L 333.217299 114.666717 
L 334.064961 121.909652 
L 334.912623 120.336051 
L 335.760285 114.311419 
L 336.607947 112.297635 
L 337.455609 116.629698 
L 338.303271 115.106579 
L 339.150933 111.603759 
L 339.998595 121.791326 
L 340.846257 111.552956 
L 341.693919 111.04525 
L 342.541581 114.023644 
L 343.389243 115.005295 
L 344.236905 111.755846 
L 345.084567 113.109836 
L 345.932229 115.969905 
L 346.779891 112.111465 
L 347.627553 113.278965 
L 348.475215 109.302199 
L 349.322877 115.902061 
L 350.170539 106.03603 
L 351.018201 112.534286 
L 351.865863 107.812842 
L 352.713525 111.434444 
L 353.561187 113.262126 
L 354.408849 106.932931 
L 355.256511 103.192952 
L 356.104173 103.159106 
L 356.951835 109.115996 
L 357.799497 133.214322 
L 358.647159 106.35755 
L 359.494821 109.099073 
L 360.342483 103.886794 
L 361.190145 104.394484 
L 362.037807 107.745234 
L 362.885469 100.772966 
L 364.580793 109.454455 
L 365.428455 103.514489 
L 366.276117 102.296034 
L 367.123779 106.391396 
L 367.971441 101.957574 
L 368.819103 106.408319 
L 369.666765 101.551423 
L 370.514427 100.485275 
L 371.362089 102.279111 
L 372.209751 101.077579 
L 373.057413 101.212963 
L 373.905075 104.512945 
L 374.752737 98.674516 
L 375.600399 98.116058 
L 376.448061 106.780624 
L 377.295723 100.56989 
L 378.143385 100.654505 
L 378.991047 99.740664 
L 379.838709 105.122172 
L 380.686371 97.777598 
L 381.534033 102.245265 
L 382.381695 99.554511 
L 383.229357 100.992964 
L 384.077019 101.669884 
L 384.924681 103.412951 
L 385.772343 97.862213 
L 386.620005 97.422215 
L 387.467667 97.472984 
L 388.315329 105.545247 
L 389.162991 97.828367 
L 390.010653 95.391457 
L 390.858315 94.122234 
L 391.705977 96.88068 
L 392.553639 94.054542 
L 393.401301 116.562108 
L 394.248963 98.369902 
L 395.096625 94.122234 
L 395.944287 95.12069 
L 396.791949 95.509918 
L 397.639611 93.259162 
L 398.487273 94.613 
L 398.487273 94.613 
" style="fill:none;stroke:#2ca02c;stroke-linecap:square;stroke-width:1.5;"/>
   </g>
   <g id="patch_3">
    <path d="M 57.6 307.584 
L 57.6 41.472 
" style="fill:none;stroke:#000000;stroke-linecap:square;stroke-linejoin:miter;stroke-width:0.8;"/>
   </g>
   <g id="patch_4">
    <path d="M 414.72 307.584 
L 414.72 41.472 
" style="fill:none;stroke:#000000;stroke-linecap:square;stroke-linejoin:miter;stroke-width:0.8;"/>
   </g>
   <g id="patch_5">
    <path d="M 57.6 307.584 
L 414.72 307.584 
" style="fill:none;stroke:#000000;stroke-linecap:square;stroke-linejoin:miter;stroke-width:0.8;"/>
   </g>
   <g id="patch_6">
    <path d="M 57.6 41.472 
L 414.72 41.472 
" style="fill:none;stroke:#000000;stroke-linecap:square;stroke-linejoin:miter;stroke-width:0.8;"/>
   </g>
   <g id="text_22">
    <!-- Training and Validation Accuracy -->
    <g transform="translate(138.4575 35.472)scale(0.12 -0.12)">
     <defs>
      <path d="M -19 4666 
L 3928 4666 
L 3928 4134 
L 2272 4134 
L 2272 0 
L 1638 0 
L 1638 4134 
L -19 4134 
L -19 4666 
z
" id="DejaVuSans-54" transform="scale(0.015625)"/>
      <path d="M 603 3500 
L 1178 3500 
L 1178 0 
L 603 0 
L 603 3500 
z
M 603 4863 
L 1178 4863 
L 1178 4134 
L 603 4134 
L 603 4863 
z
" id="DejaVuSans-69" transform="scale(0.015625)"/>
      <path d="M 3513 2113 
L 3513 0 
L 2938 0 
L 2938 2094 
Q 2938 2591 2744 2837 
Q 2550 3084 2163 3084 
Q 1697 3084 1428 2787 
Q 1159 2491 1159 1978 
L 1159 0 
L 581 0 
L 581 3500 
L 1159 3500 
L 1159 2956 
Q 1366 3272 1645 3428 
Q 1925 3584 2291 3584 
Q 2894 3584 3203 3211 
Q 3513 2838 3513 2113 
z
" id="DejaVuSans-6e" transform="scale(0.015625)"/>
      <path d="M 2906 1791 
Q 2906 2416 2648 2759 
Q 2391 3103 1925 3103 
Q 1463 3103 1205 2759 
Q 947 2416 947 1791 
Q 947 1169 1205 825 
Q 1463 481 1925 481 
Q 2391 481 2648 825 
Q 2906 1169 2906 1791 
z
M 3481 434 
Q 3481 -459 3084 -895 
Q 2688 -1331 1869 -1331 
Q 1566 -1331 1297 -1286 
Q 1028 -1241 775 -1147 
L 775 -588 
Q 1028 -725 1275 -790 
Q 1522 -856 1778 -856 
Q 2344 -856 2625 -561 
Q 2906 -266 2906 331 
L 2906 616 
Q 2728 306 2450 153 
Q 2172 0 1784 0 
Q 1141 0 747 490 
Q 353 981 353 1791 
Q 353 2603 747 3093 
Q 1141 3584 1784 3584 
Q 2172 3584 2450 3431 
Q 2728 3278 2906 2969 
L 2906 3500 
L 3481 3500 
L 3481 434 
z
" id="DejaVuSans-67" transform="scale(0.015625)"/>
      <path id="DejaVuSans-20" transform="scale(0.015625)"/>
      <path d="M 2906 2969 
L 2906 4863 
L 3481 4863 
L 3481 0 
L 2906 0 
L 2906 525 
Q 2725 213 2448 61 
Q 2172 -91 1784 -91 
Q 1150 -91 751 415 
Q 353 922 353 1747 
Q 353 2572 751 3078 
Q 1150 3584 1784 3584 
Q 2172 3584 2448 3432 
Q 2725 3281 2906 2969 
z
M 947 1747 
Q 947 1113 1208 752 
Q 1469 391 1925 391 
Q 2381 391 2643 752 
Q 2906 1113 2906 1747 
Q 2906 2381 2643 2742 
Q 2381 3103 1925 3103 
Q 1469 3103 1208 2742 
Q 947 2381 947 1747 
z
" id="DejaVuSans-64" transform="scale(0.015625)"/>
      <path d="M 1831 0 
L 50 4666 
L 709 4666 
L 2188 738 
L 3669 4666 
L 4325 4666 
L 2547 0 
L 1831 0 
z
" id="DejaVuSans-56" transform="scale(0.015625)"/>
      <path d="M 603 4863 
L 1178 4863 
L 1178 0 
L 603 0 
L 603 4863 
z
" id="DejaVuSans-6c" transform="scale(0.015625)"/>
      <path d="M 1172 4494 
L 1172 3500 
L 2356 3500 
L 2356 3053 
L 1172 3053 
L 1172 1153 
Q 1172 725 1289 603 
Q 1406 481 1766 481 
L 2356 481 
L 2356 0 
L 1766 0 
Q 1100 0 847 248 
Q 594 497 594 1153 
L 594 3053 
L 172 3053 
L 172 3500 
L 594 3500 
L 594 4494 
L 1172 4494 
z
" id="DejaVuSans-74" transform="scale(0.015625)"/>
     </defs>
     <use xlink:href="#DejaVuSans-54"/>
     <use x="46.333984" xlink:href="#DejaVuSans-72"/>
     <use x="87.447266" xlink:href="#DejaVuSans-61"/>
     <use x="148.726562" xlink:href="#DejaVuSans-69"/>
     <use x="176.509766" xlink:href="#DejaVuSans-6e"/>
     <use x="239.888672" xlink:href="#DejaVuSans-69"/>
     <use x="267.671875" xlink:href="#DejaVuSans-6e"/>
     <use x="331.050781" xlink:href="#DejaVuSans-67"/>
     <use x="394.527344" xlink:href="#DejaVuSans-20"/>
     <use x="426.314453" xlink:href="#DejaVuSans-61"/>
     <use x="487.59375" xlink:href="#DejaVuSans-6e"/>
     <use x="550.972656" xlink:href="#DejaVuSans-64"/>
     <use x="614.449219" xlink:href="#DejaVuSans-20"/>
     <use x="646.236328" xlink:href="#DejaVuSans-56"/>
     <use x="706.894531" xlink:href="#DejaVuSans-61"/>
     <use x="768.173828" xlink:href="#DejaVuSans-6c"/>
     <use x="795.957031" xlink:href="#DejaVuSans-69"/>
     <use x="823.740234" xlink:href="#DejaVuSans-64"/>
     <use x="887.216797" xlink:href="#DejaVuSans-61"/>
     <use x="948.496094" xlink:href="#DejaVuSans-74"/>
     <use x="987.705078" xlink:href="#DejaVuSans-69"/>
     <use x="1015.488281" xlink:href="#DejaVuSans-6f"/>
     <use x="1076.669922" xlink:href="#DejaVuSans-6e"/>
     <use x="1140.048828" xlink:href="#DejaVuSans-20"/>
     <use x="1171.835938" xlink:href="#DejaVuSans-41"/>
     <use x="1238.494141" xlink:href="#DejaVuSans-63"/>
     <use x="1293.474609" xlink:href="#DejaVuSans-63"/>
     <use x="1348.455078" xlink:href="#DejaVuSans-75"/>
     <use x="1411.833984" xlink:href="#DejaVuSans-72"/>
     <use x="1452.947266" xlink:href="#DejaVuSans-61"/>
     <use x="1514.226562" xlink:href="#DejaVuSans-63"/>
     <use x="1569.207031" xlink:href="#DejaVuSans-79"/>
    </g>
   </g>
   <g id="legend_1">
    <g id="patch_7">
     <path d="M 239.893438 302.584 
L 407.72 302.584 
Q 409.72 302.584 409.72 300.584 
L 409.72 257.549625 
Q 409.72 255.549625 407.72 255.549625 
L 239.893438 255.549625 
Q 237.893438 255.549625 237.893438 257.549625 
L 237.893438 300.584 
Q 237.893438 302.584 239.893438 302.584 
z
" style="fill:#ffffff;opacity:0.8;stroke:#cccccc;stroke-linejoin:miter;"/>
    </g>
    <g id="line2d_23">
     <path d="M 241.893438 263.648062 
L 261.893438 263.648062 
" style="fill:none;stroke:#1f77b4;stroke-linecap:square;stroke-width:1.5;"/>
    </g>
    <g id="line2d_24"/>
    <g id="text_23">
     <!-- Train Accuracy -->
     <g transform="translate(269.893438 267.148062)scale(0.1 -0.1)">
      <use xlink:href="#DejaVuSans-54"/>
      <use x="46.333984" xlink:href="#DejaVuSans-72"/>
      <use x="87.447266" xlink:href="#DejaVuSans-61"/>
      <use x="148.726562" xlink:href="#DejaVuSans-69"/>
      <use x="176.509766" xlink:href="#DejaVuSans-6e"/>
      <use x="239.888672" xlink:href="#DejaVuSans-20"/>
      <use x="271.675781" xlink:href="#DejaVuSans-41"/>
      <use x="338.333984" xlink:href="#DejaVuSans-63"/>
      <use x="393.314453" xlink:href="#DejaVuSans-63"/>
      <use x="448.294922" xlink:href="#DejaVuSans-75"/>
      <use x="511.673828" xlink:href="#DejaVuSans-72"/>
      <use x="552.787109" xlink:href="#DejaVuSans-61"/>
      <use x="614.066406" xlink:href="#DejaVuSans-63"/>
      <use x="669.046875" xlink:href="#DejaVuSans-79"/>
     </g>
    </g>
    <g id="line2d_25">
     <path d="M 241.893438 278.326188 
L 261.893438 278.326188 
" style="fill:none;stroke:#ff7f0e;stroke-linecap:square;stroke-width:1.5;"/>
    </g>
    <g id="line2d_26"/>
    <g id="text_24">
     <!-- Validation Accuracy -->
     <g transform="translate(269.893438 281.826188)scale(0.1 -0.1)">
      <use xlink:href="#DejaVuSans-56"/>
      <use x="60.658203" xlink:href="#DejaVuSans-61"/>
      <use x="121.9375" xlink:href="#DejaVuSans-6c"/>
      <use x="149.720703" xlink:href="#DejaVuSans-69"/>
      <use x="177.503906" xlink:href="#DejaVuSans-64"/>
      <use x="240.980469" xlink:href="#DejaVuSans-61"/>
      <use x="302.259766" xlink:href="#DejaVuSans-74"/>
      <use x="341.46875" xlink:href="#DejaVuSans-69"/>
      <use x="369.251953" xlink:href="#DejaVuSans-6f"/>
      <use x="430.433594" xlink:href="#DejaVuSans-6e"/>
      <use x="493.8125" xlink:href="#DejaVuSans-20"/>
      <use x="525.599609" xlink:href="#DejaVuSans-41"/>
      <use x="592.257812" xlink:href="#DejaVuSans-63"/>
      <use x="647.238281" xlink:href="#DejaVuSans-63"/>
      <use x="702.21875" xlink:href="#DejaVuSans-75"/>
      <use x="765.597656" xlink:href="#DejaVuSans-72"/>
      <use x="806.710938" xlink:href="#DejaVuSans-61"/>
      <use x="867.990234" xlink:href="#DejaVuSans-63"/>
      <use x="922.970703" xlink:href="#DejaVuSans-79"/>
     </g>
    </g>
    <g id="line2d_27">
     <path d="M 241.893438 293.004312 
L 261.893438 293.004312 
" style="fill:none;stroke:#2ca02c;stroke-linecap:square;stroke-width:1.5;"/>
    </g>
    <g id="line2d_28"/>
    <g id="text_25">
     <!-- Robust Validation Accuracy -->
     <g transform="translate(269.893438 296.504312)scale(0.1 -0.1)">
      <defs>
       <path d="M 2841 2188 
Q 3044 2119 3236 1894 
Q 3428 1669 3622 1275 
L 4263 0 
L 3584 0 
L 2988 1197 
Q 2756 1666 2539 1819 
Q 2322 1972 1947 1972 
L 1259 1972 
L 1259 0 
L 628 0 
L 628 4666 
L 2053 4666 
Q 2853 4666 3247 4331 
Q 3641 3997 3641 3322 
Q 3641 2881 3436 2590 
Q 3231 2300 2841 2188 
z
M 1259 4147 
L 1259 2491 
L 2053 2491 
Q 2509 2491 2742 2702 
Q 2975 2913 2975 3322 
Q 2975 3731 2742 3939 
Q 2509 4147 2053 4147 
L 1259 4147 
z
" id="DejaVuSans-52" transform="scale(0.015625)"/>
       <path d="M 3116 1747 
Q 3116 2381 2855 2742 
Q 2594 3103 2138 3103 
Q 1681 3103 1420 2742 
Q 1159 2381 1159 1747 
Q 1159 1113 1420 752 
Q 1681 391 2138 391 
Q 2594 391 2855 752 
Q 3116 1113 3116 1747 
z
M 1159 2969 
Q 1341 3281 1617 3432 
Q 1894 3584 2278 3584 
Q 2916 3584 3314 3078 
Q 3713 2572 3713 1747 
Q 3713 922 3314 415 
Q 2916 -91 2278 -91 
Q 1894 -91 1617 61 
Q 1341 213 1159 525 
L 1159 0 
L 581 0 
L 581 4863 
L 1159 4863 
L 1159 2969 
z
" id="DejaVuSans-62" transform="scale(0.015625)"/>
      </defs>
      <use xlink:href="#DejaVuSans-52"/>
      <use x="64.982422" xlink:href="#DejaVuSans-6f"/>
      <use x="126.164062" xlink:href="#DejaVuSans-62"/>
      <use x="189.640625" xlink:href="#DejaVuSans-75"/>
      <use x="253.019531" xlink:href="#DejaVuSans-73"/>
      <use x="305.119141" xlink:href="#DejaVuSans-74"/>
      <use x="344.328125" xlink:href="#DejaVuSans-20"/>
      <use x="376.115234" xlink:href="#DejaVuSans-56"/>
      <use x="436.773438" xlink:href="#DejaVuSans-61"/>
      <use x="498.052734" xlink:href="#DejaVuSans-6c"/>
      <use x="525.835938" xlink:href="#DejaVuSans-69"/>
      <use x="553.619141" xlink:href="#DejaVuSans-64"/>
      <use x="617.095703" xlink:href="#DejaVuSans-61"/>
      <use x="678.375" xlink:href="#DejaVuSans-74"/>
      <use x="717.583984" xlink:href="#DejaVuSans-69"/>
      <use x="745.367188" xlink:href="#DejaVuSans-6f"/>
      <use x="806.548828" xlink:href="#DejaVuSans-6e"/>
      <use x="869.927734" xlink:href="#DejaVuSans-20"/>
      <use x="901.714844" xlink:href="#DejaVuSans-41"/>
      <use x="968.373047" xlink:href="#DejaVuSans-63"/>
      <use x="1023.353516" xlink:href="#DejaVuSans-63"/>
      <use x="1078.333984" xlink:href="#DejaVuSans-75"/>
      <use x="1141.712891" xlink:href="#DejaVuSans-72"/>
      <use x="1182.826172" xlink:href="#DejaVuSans-61"/>
      <use x="1244.105469" xlink:href="#DejaVuSans-63"/>
      <use x="1299.085938" xlink:href="#DejaVuSans-79"/>
     </g>
    </g>
   </g>
  </g>
 </g>
 <defs>
  <clipPath id="p5849f8fcff">
   <rect height="266.112" width="357.12" x="57.6" y="41.472"/>
  </clipPath>
 </defs>
</svg>
