<?xml version="1.0" encoding="utf-8" standalone="no"?>
<!DOCTYPE svg PUBLIC "-//W3C//DTD SVG 1.1//EN"
  "http://www.w3.org/Graphics/SVG/1.1/DTD/svg11.dtd">
<svg height="345.6pt" version="1.1" viewBox="0 0 460.8 345.6" width="460.8pt" xmlns="http://www.w3.org/2000/svg" xmlns:xlink="http://www.w3.org/1999/xlink">
 <metadata>
  <rdf:RDF xmlns:cc="http://creativecommons.org/ns#" xmlns:dc="http://purl.org/dc/elements/1.1/" xmlns:rdf="http://www.w3.org/1999/02/22-rdf-syntax-ns#">
   <cc:Work>
    <dc:type rdf:resource="http://purl.org/dc/dcmitype/StillImage"/>
    <dc:date>2024-02-08T16:00:14.275195</dc:date>
    <dc:format>image/svg+xml</dc:format>
    <dc:creator>
     <cc:Agent>
      <dc:title>Matplotlib v3.4.3, https://matplotlib.org/</dc:title>
     </cc:Agent>
    </dc:creator>
   </cc:Work>
  </rdf:RDF>
 </metadata>
 <defs>
  <style type="text/css">*{stroke-linecap:butt;stroke-linejoin:round;}</style>
 </defs>
 <g id="figure_1">
  <g id="patch_1">
   <path d="M 0 345.6 
L 460.8 345.6 
L 460.8 0 
L 0 0 
z
" style="fill:#ffffff;"/>
  </g>
  <g id="axes_1">
   <g id="patch_2">
    <path d="M 57.6 307.584 
L 414.72 307.584 
L 414.72 41.472 
L 57.6 41.472 
z
" style="fill:#ffffff;"/>
   </g>
   <g id="matplotlib.axis_1">
    <g id="xtick_1">
     <g id="line2d_1">
      <defs>
       <path d="M 0 0 
L 0 3.5 
" id="mcb96f13368" style="stroke:#000000;stroke-width:0.8;"/>
      </defs>
      <g>
       <use style="stroke:#000000;stroke-width:0.8;" x="73.832727" xlink:href="#mcb96f13368" y="307.584"/>
      </g>
     </g>
     <g id="text_1">
      <!-- 1 -->
      <g transform="translate(70.651477 322.182437)scale(0.1 -0.1)">
       <defs>
        <path d="M 794 531 
L 1825 531 
L 1825 4091 
L 703 3866 
L 703 4441 
L 1819 4666 
L 2450 4666 
L 2450 531 
L 3481 531 
L 3481 0 
L 794 0 
L 794 531 
z
" id="DejaVuSans-31" transform="scale(0.015625)"/>
       </defs>
       <use xlink:href="#DejaVuSans-31"/>
      </g>
     </g>
    </g>
    <g id="xtick_2">
     <g id="line2d_2">
      <g>
       <use style="stroke:#000000;stroke-width:0.8;" x="109.710992" xlink:href="#mcb96f13368" y="307.584"/>
      </g>
     </g>
     <g id="text_2">
      <!-- 42 -->
      <g transform="translate(103.348492 322.182437)scale(0.1 -0.1)">
       <defs>
        <path d="M 2419 4116 
L 825 1625 
L 2419 1625 
L 2419 4116 
z
M 2253 4666 
L 3047 4666 
L 3047 1625 
L 3713 1625 
L 3713 1100 
L 3047 1100 
L 3047 0 
L 2419 0 
L 2419 1100 
L 313 1100 
L 313 1709 
L 2253 4666 
z
" id="DejaVuSans-34" transform="scale(0.015625)"/>
        <path d="M 1228 531 
L 3431 531 
L 3431 0 
L 469 0 
L 469 531 
Q 828 903 1448 1529 
Q 2069 2156 2228 2338 
Q 2531 2678 2651 2914 
Q 2772 3150 2772 3378 
Q 2772 3750 2511 3984 
Q 2250 4219 1831 4219 
Q 1534 4219 1204 4116 
Q 875 4013 500 3803 
L 500 4441 
Q 881 4594 1212 4672 
Q 1544 4750 1819 4750 
Q 2544 4750 2975 4387 
Q 3406 4025 3406 3419 
Q 3406 3131 3298 2873 
Q 3191 2616 2906 2266 
Q 2828 2175 2409 1742 
Q 1991 1309 1228 531 
z
" id="DejaVuSans-32" transform="scale(0.015625)"/>
       </defs>
       <use xlink:href="#DejaVuSans-34"/>
       <use x="63.623047" xlink:href="#DejaVuSans-32"/>
      </g>
     </g>
    </g>
    <g id="xtick_3">
     <g id="line2d_3">
      <g>
       <use style="stroke:#000000;stroke-width:0.8;" x="145.589258" xlink:href="#mcb96f13368" y="307.584"/>
      </g>
     </g>
     <g id="text_3">
      <!-- 83 -->
      <g transform="translate(139.226758 322.182437)scale(0.1 -0.1)">
       <defs>
        <path d="M 2034 2216 
Q 1584 2216 1326 1975 
Q 1069 1734 1069 1313 
Q 1069 891 1326 650 
Q 1584 409 2034 409 
Q 2484 409 2743 651 
Q 3003 894 3003 1313 
Q 3003 1734 2745 1975 
Q 2488 2216 2034 2216 
z
M 1403 2484 
Q 997 2584 770 2862 
Q 544 3141 544 3541 
Q 544 4100 942 4425 
Q 1341 4750 2034 4750 
Q 2731 4750 3128 4425 
Q 3525 4100 3525 3541 
Q 3525 3141 3298 2862 
Q 3072 2584 2669 2484 
Q 3125 2378 3379 2068 
Q 3634 1759 3634 1313 
Q 3634 634 3220 271 
Q 2806 -91 2034 -91 
Q 1263 -91 848 271 
Q 434 634 434 1313 
Q 434 1759 690 2068 
Q 947 2378 1403 2484 
z
M 1172 3481 
Q 1172 3119 1398 2916 
Q 1625 2713 2034 2713 
Q 2441 2713 2670 2916 
Q 2900 3119 2900 3481 
Q 2900 3844 2670 4047 
Q 2441 4250 2034 4250 
Q 1625 4250 1398 4047 
Q 1172 3844 1172 3481 
z
" id="DejaVuSans-38" transform="scale(0.015625)"/>
        <path d="M 2597 2516 
Q 3050 2419 3304 2112 
Q 3559 1806 3559 1356 
Q 3559 666 3084 287 
Q 2609 -91 1734 -91 
Q 1441 -91 1130 -33 
Q 819 25 488 141 
L 488 750 
Q 750 597 1062 519 
Q 1375 441 1716 441 
Q 2309 441 2620 675 
Q 2931 909 2931 1356 
Q 2931 1769 2642 2001 
Q 2353 2234 1838 2234 
L 1294 2234 
L 1294 2753 
L 1863 2753 
Q 2328 2753 2575 2939 
Q 2822 3125 2822 3475 
Q 2822 3834 2567 4026 
Q 2313 4219 1838 4219 
Q 1578 4219 1281 4162 
Q 984 4106 628 3988 
L 628 4550 
Q 988 4650 1302 4700 
Q 1616 4750 1894 4750 
Q 2613 4750 3031 4423 
Q 3450 4097 3450 3541 
Q 3450 3153 3228 2886 
Q 3006 2619 2597 2516 
z
" id="DejaVuSans-33" transform="scale(0.015625)"/>
       </defs>
       <use xlink:href="#DejaVuSans-38"/>
       <use x="63.623047" xlink:href="#DejaVuSans-33"/>
      </g>
     </g>
    </g>
    <g id="xtick_4">
     <g id="line2d_4">
      <g>
       <use style="stroke:#000000;stroke-width:0.8;" x="181.467523" xlink:href="#mcb96f13368" y="307.584"/>
      </g>
     </g>
     <g id="text_4">
      <!-- 124 -->
      <g transform="translate(171.923773 322.182437)scale(0.1 -0.1)">
       <use xlink:href="#DejaVuSans-31"/>
       <use x="63.623047" xlink:href="#DejaVuSans-32"/>
       <use x="127.246094" xlink:href="#DejaVuSans-34"/>
      </g>
     </g>
    </g>
    <g id="xtick_5">
     <g id="line2d_5">
      <g>
       <use style="stroke:#000000;stroke-width:0.8;" x="217.345788" xlink:href="#mcb96f13368" y="307.584"/>
      </g>
     </g>
     <g id="text_5">
      <!-- 165 -->
      <g transform="translate(207.802038 322.182437)scale(0.1 -0.1)">
       <defs>
        <path d="M 2113 2584 
Q 1688 2584 1439 2293 
Q 1191 2003 1191 1497 
Q 1191 994 1439 701 
Q 1688 409 2113 409 
Q 2538 409 2786 701 
Q 3034 994 3034 1497 
Q 3034 2003 2786 2293 
Q 2538 2584 2113 2584 
z
M 3366 4563 
L 3366 3988 
Q 3128 4100 2886 4159 
Q 2644 4219 2406 4219 
Q 1781 4219 1451 3797 
Q 1122 3375 1075 2522 
Q 1259 2794 1537 2939 
Q 1816 3084 2150 3084 
Q 2853 3084 3261 2657 
Q 3669 2231 3669 1497 
Q 3669 778 3244 343 
Q 2819 -91 2113 -91 
Q 1303 -91 875 529 
Q 447 1150 447 2328 
Q 447 3434 972 4092 
Q 1497 4750 2381 4750 
Q 2619 4750 2861 4703 
Q 3103 4656 3366 4563 
z
" id="DejaVuSans-36" transform="scale(0.015625)"/>
        <path d="M 691 4666 
L 3169 4666 
L 3169 4134 
L 1269 4134 
L 1269 2991 
Q 1406 3038 1543 3061 
Q 1681 3084 1819 3084 
Q 2600 3084 3056 2656 
Q 3513 2228 3513 1497 
Q 3513 744 3044 326 
Q 2575 -91 1722 -91 
Q 1428 -91 1123 -41 
Q 819 9 494 109 
L 494 744 
Q 775 591 1075 516 
Q 1375 441 1709 441 
Q 2250 441 2565 725 
Q 2881 1009 2881 1497 
Q 2881 1984 2565 2268 
Q 2250 2553 1709 2553 
Q 1456 2553 1204 2497 
Q 953 2441 691 2322 
L 691 4666 
z
" id="DejaVuSans-35" transform="scale(0.015625)"/>
       </defs>
       <use xlink:href="#DejaVuSans-31"/>
       <use x="63.623047" xlink:href="#DejaVuSans-36"/>
       <use x="127.246094" xlink:href="#DejaVuSans-35"/>
      </g>
     </g>
    </g>
    <g id="xtick_6">
     <g id="line2d_6">
      <g>
       <use style="stroke:#000000;stroke-width:0.8;" x="254.099133" xlink:href="#mcb96f13368" y="307.584"/>
      </g>
     </g>
     <g id="text_6">
      <!-- 207 -->
      <g transform="translate(244.555383 322.182437)scale(0.1 -0.1)">
       <defs>
        <path d="M 2034 4250 
Q 1547 4250 1301 3770 
Q 1056 3291 1056 2328 
Q 1056 1369 1301 889 
Q 1547 409 2034 409 
Q 2525 409 2770 889 
Q 3016 1369 3016 2328 
Q 3016 3291 2770 3770 
Q 2525 4250 2034 4250 
z
M 2034 4750 
Q 2819 4750 3233 4129 
Q 3647 3509 3647 2328 
Q 3647 1150 3233 529 
Q 2819 -91 2034 -91 
Q 1250 -91 836 529 
Q 422 1150 422 2328 
Q 422 3509 836 4129 
Q 1250 4750 2034 4750 
z
" id="DejaVuSans-30" transform="scale(0.015625)"/>
        <path d="M 525 4666 
L 3525 4666 
L 3525 4397 
L 1831 0 
L 1172 0 
L 2766 4134 
L 525 4134 
L 525 4666 
z
" id="DejaVuSans-37" transform="scale(0.015625)"/>
       </defs>
       <use xlink:href="#DejaVuSans-32"/>
       <use x="63.623047" xlink:href="#DejaVuSans-30"/>
       <use x="127.246094" xlink:href="#DejaVuSans-37"/>
      </g>
     </g>
    </g>
    <g id="xtick_7">
     <g id="line2d_7">
      <g>
       <use style="stroke:#000000;stroke-width:0.8;" x="289.977398" xlink:href="#mcb96f13368" y="307.584"/>
      </g>
     </g>
     <g id="text_7">
      <!-- 248 -->
      <g transform="translate(280.433648 322.182437)scale(0.1 -0.1)">
       <use xlink:href="#DejaVuSans-32"/>
       <use x="63.623047" xlink:href="#DejaVuSans-34"/>
       <use x="127.246094" xlink:href="#DejaVuSans-38"/>
      </g>
     </g>
    </g>
    <g id="xtick_8">
     <g id="line2d_8">
      <g>
       <use style="stroke:#000000;stroke-width:0.8;" x="325.855663" xlink:href="#mcb96f13368" y="307.584"/>
      </g>
     </g>
     <g id="text_8">
      <!-- 289 -->
      <g transform="translate(316.311913 322.182437)scale(0.1 -0.1)">
       <defs>
        <path d="M 703 97 
L 703 672 
Q 941 559 1184 500 
Q 1428 441 1663 441 
Q 2288 441 2617 861 
Q 2947 1281 2994 2138 
Q 2813 1869 2534 1725 
Q 2256 1581 1919 1581 
Q 1219 1581 811 2004 
Q 403 2428 403 3163 
Q 403 3881 828 4315 
Q 1253 4750 1959 4750 
Q 2769 4750 3195 4129 
Q 3622 3509 3622 2328 
Q 3622 1225 3098 567 
Q 2575 -91 1691 -91 
Q 1453 -91 1209 -44 
Q 966 3 703 97 
z
M 1959 2075 
Q 2384 2075 2632 2365 
Q 2881 2656 2881 3163 
Q 2881 3666 2632 3958 
Q 2384 4250 1959 4250 
Q 1534 4250 1286 3958 
Q 1038 3666 1038 3163 
Q 1038 2656 1286 2365 
Q 1534 2075 1959 2075 
z
" id="DejaVuSans-39" transform="scale(0.015625)"/>
       </defs>
       <use xlink:href="#DejaVuSans-32"/>
       <use x="63.623047" xlink:href="#DejaVuSans-38"/>
       <use x="127.246094" xlink:href="#DejaVuSans-39"/>
      </g>
     </g>
    </g>
    <g id="xtick_9">
     <g id="line2d_9">
      <g>
       <use style="stroke:#000000;stroke-width:0.8;" x="361.733928" xlink:href="#mcb96f13368" y="307.584"/>
      </g>
     </g>
     <g id="text_9">
      <!-- 330 -->
      <g transform="translate(352.190178 322.182437)scale(0.1 -0.1)">
       <use xlink:href="#DejaVuSans-33"/>
       <use x="63.623047" xlink:href="#DejaVuSans-33"/>
       <use x="127.246094" xlink:href="#DejaVuSans-30"/>
      </g>
     </g>
    </g>
    <g id="xtick_10">
     <g id="line2d_10">
      <g>
       <use style="stroke:#000000;stroke-width:0.8;" x="398.487273" xlink:href="#mcb96f13368" y="307.584"/>
      </g>
     </g>
     <g id="text_10">
      <!-- 372 -->
      <g transform="translate(388.943523 322.182437)scale(0.1 -0.1)">
       <use xlink:href="#DejaVuSans-33"/>
       <use x="63.623047" xlink:href="#DejaVuSans-37"/>
       <use x="127.246094" xlink:href="#DejaVuSans-32"/>
      </g>
     </g>
    </g>
    <g id="text_11">
     <!-- Epochs -->
     <g transform="translate(218.244375 335.860562)scale(0.1 -0.1)">
      <defs>
       <path d="M 628 4666 
L 3578 4666 
L 3578 4134 
L 1259 4134 
L 1259 2753 
L 3481 2753 
L 3481 2222 
L 1259 2222 
L 1259 531 
L 3634 531 
L 3634 0 
L 628 0 
L 628 4666 
z
" id="DejaVuSans-45" transform="scale(0.015625)"/>
       <path d="M 1159 525 
L 1159 -1331 
L 581 -1331 
L 581 3500 
L 1159 3500 
L 1159 2969 
Q 1341 3281 1617 3432 
Q 1894 3584 2278 3584 
Q 2916 3584 3314 3078 
Q 3713 2572 3713 1747 
Q 3713 922 3314 415 
Q 2916 -91 2278 -91 
Q 1894 -91 1617 61 
Q 1341 213 1159 525 
z
M 3116 1747 
Q 3116 2381 2855 2742 
Q 2594 3103 2138 3103 
Q 1681 3103 1420 2742 
Q 1159 2381 1159 1747 
Q 1159 1113 1420 752 
Q 1681 391 2138 391 
Q 2594 391 2855 752 
Q 3116 1113 3116 1747 
z
" id="DejaVuSans-70" transform="scale(0.015625)"/>
       <path d="M 1959 3097 
Q 1497 3097 1228 2736 
Q 959 2375 959 1747 
Q 959 1119 1226 758 
Q 1494 397 1959 397 
Q 2419 397 2687 759 
Q 2956 1122 2956 1747 
Q 2956 2369 2687 2733 
Q 2419 3097 1959 3097 
z
M 1959 3584 
Q 2709 3584 3137 3096 
Q 3566 2609 3566 1747 
Q 3566 888 3137 398 
Q 2709 -91 1959 -91 
Q 1206 -91 779 398 
Q 353 888 353 1747 
Q 353 2609 779 3096 
Q 1206 3584 1959 3584 
z
" id="DejaVuSans-6f" transform="scale(0.015625)"/>
       <path d="M 3122 3366 
L 3122 2828 
Q 2878 2963 2633 3030 
Q 2388 3097 2138 3097 
Q 1578 3097 1268 2742 
Q 959 2388 959 1747 
Q 959 1106 1268 751 
Q 1578 397 2138 397 
Q 2388 397 2633 464 
Q 2878 531 3122 666 
L 3122 134 
Q 2881 22 2623 -34 
Q 2366 -91 2075 -91 
Q 1284 -91 818 406 
Q 353 903 353 1747 
Q 353 2603 823 3093 
Q 1294 3584 2113 3584 
Q 2378 3584 2631 3529 
Q 2884 3475 3122 3366 
z
" id="DejaVuSans-63" transform="scale(0.015625)"/>
       <path d="M 3513 2113 
L 3513 0 
L 2938 0 
L 2938 2094 
Q 2938 2591 2744 2837 
Q 2550 3084 2163 3084 
Q 1697 3084 1428 2787 
Q 1159 2491 1159 1978 
L 1159 0 
L 581 0 
L 581 4863 
L 1159 4863 
L 1159 2956 
Q 1366 3272 1645 3428 
Q 1925 3584 2291 3584 
Q 2894 3584 3203 3211 
Q 3513 2838 3513 2113 
z
" id="DejaVuSans-68" transform="scale(0.015625)"/>
       <path d="M 2834 3397 
L 2834 2853 
Q 2591 2978 2328 3040 
Q 2066 3103 1784 3103 
Q 1356 3103 1142 2972 
Q 928 2841 928 2578 
Q 928 2378 1081 2264 
Q 1234 2150 1697 2047 
L 1894 2003 
Q 2506 1872 2764 1633 
Q 3022 1394 3022 966 
Q 3022 478 2636 193 
Q 2250 -91 1575 -91 
Q 1294 -91 989 -36 
Q 684 19 347 128 
L 347 722 
Q 666 556 975 473 
Q 1284 391 1588 391 
Q 1994 391 2212 530 
Q 2431 669 2431 922 
Q 2431 1156 2273 1281 
Q 2116 1406 1581 1522 
L 1381 1569 
Q 847 1681 609 1914 
Q 372 2147 372 2553 
Q 372 3047 722 3315 
Q 1072 3584 1716 3584 
Q 2034 3584 2315 3537 
Q 2597 3491 2834 3397 
z
" id="DejaVuSans-73" transform="scale(0.015625)"/>
      </defs>
      <use xlink:href="#DejaVuSans-45"/>
      <use x="63.183594" xlink:href="#DejaVuSans-70"/>
      <use x="126.660156" xlink:href="#DejaVuSans-6f"/>
      <use x="187.841797" xlink:href="#DejaVuSans-63"/>
      <use x="242.822266" xlink:href="#DejaVuSans-68"/>
      <use x="306.201172" xlink:href="#DejaVuSans-73"/>
     </g>
    </g>
   </g>
   <g id="matplotlib.axis_2">
    <g id="ytick_1">
     <g id="line2d_11">
      <defs>
       <path d="M 0 0 
L -3.5 0 
" id="m0add910238" style="stroke:#000000;stroke-width:0.8;"/>
      </defs>
      <g>
       <use style="stroke:#000000;stroke-width:0.8;" x="57.6" xlink:href="#m0add910238" y="302.218515"/>
      </g>
     </g>
     <g id="text_12">
      <!-- 0 -->
      <g transform="translate(44.2375 306.017734)scale(0.1 -0.1)">
       <use xlink:href="#DejaVuSans-30"/>
      </g>
     </g>
    </g>
    <g id="ytick_2">
     <g id="line2d_12">
      <g>
       <use style="stroke:#000000;stroke-width:0.8;" x="57.6" xlink:href="#m0add910238" y="269.55721"/>
      </g>
     </g>
     <g id="text_13">
      <!-- 10 -->
      <g transform="translate(37.875 273.356429)scale(0.1 -0.1)">
       <use xlink:href="#DejaVuSans-31"/>
       <use x="63.623047" xlink:href="#DejaVuSans-30"/>
      </g>
     </g>
    </g>
    <g id="ytick_3">
     <g id="line2d_13">
      <g>
       <use style="stroke:#000000;stroke-width:0.8;" x="57.6" xlink:href="#m0add910238" y="236.895905"/>
      </g>
     </g>
     <g id="text_14">
      <!-- 20 -->
      <g transform="translate(37.875 240.695124)scale(0.1 -0.1)">
       <use xlink:href="#DejaVuSans-32"/>
       <use x="63.623047" xlink:href="#DejaVuSans-30"/>
      </g>
     </g>
    </g>
    <g id="ytick_4">
     <g id="line2d_14">
      <g>
       <use style="stroke:#000000;stroke-width:0.8;" x="57.6" xlink:href="#m0add910238" y="204.2346"/>
      </g>
     </g>
     <g id="text_15">
      <!-- 30 -->
      <g transform="translate(37.875 208.033819)scale(0.1 -0.1)">
       <use xlink:href="#DejaVuSans-33"/>
       <use x="63.623047" xlink:href="#DejaVuSans-30"/>
      </g>
     </g>
    </g>
    <g id="ytick_5">
     <g id="line2d_15">
      <g>
       <use style="stroke:#000000;stroke-width:0.8;" x="57.6" xlink:href="#m0add910238" y="171.573295"/>
      </g>
     </g>
     <g id="text_16">
      <!-- 40 -->
      <g transform="translate(37.875 175.372514)scale(0.1 -0.1)">
       <use xlink:href="#DejaVuSans-34"/>
       <use x="63.623047" xlink:href="#DejaVuSans-30"/>
      </g>
     </g>
    </g>
    <g id="ytick_6">
     <g id="line2d_16">
      <g>
       <use style="stroke:#000000;stroke-width:0.8;" x="57.6" xlink:href="#m0add910238" y="138.91199"/>
      </g>
     </g>
     <g id="text_17">
      <!-- 50 -->
      <g transform="translate(37.875 142.711209)scale(0.1 -0.1)">
       <use xlink:href="#DejaVuSans-35"/>
       <use x="63.623047" xlink:href="#DejaVuSans-30"/>
      </g>
     </g>
    </g>
    <g id="ytick_7">
     <g id="line2d_17">
      <g>
       <use style="stroke:#000000;stroke-width:0.8;" x="57.6" xlink:href="#m0add910238" y="106.250685"/>
      </g>
     </g>
     <g id="text_18">
      <!-- 60 -->
      <g transform="translate(37.875 110.049904)scale(0.1 -0.1)">
       <use xlink:href="#DejaVuSans-36"/>
       <use x="63.623047" xlink:href="#DejaVuSans-30"/>
      </g>
     </g>
    </g>
    <g id="ytick_8">
     <g id="line2d_18">
      <g>
       <use style="stroke:#000000;stroke-width:0.8;" x="57.6" xlink:href="#m0add910238" y="73.58938"/>
      </g>
     </g>
     <g id="text_19">
      <!-- 70 -->
      <g transform="translate(37.875 77.388599)scale(0.1 -0.1)">
       <use xlink:href="#DejaVuSans-37"/>
       <use x="63.623047" xlink:href="#DejaVuSans-30"/>
      </g>
     </g>
    </g>
    <g id="text_20">
     <!-- Accuracy -->
     <g transform="translate(31.795312 197.356125)rotate(-90)scale(0.1 -0.1)">
      <defs>
       <path d="M 2188 4044 
L 1331 1722 
L 3047 1722 
L 2188 4044 
z
M 1831 4666 
L 2547 4666 
L 4325 0 
L 3669 0 
L 3244 1197 
L 1141 1197 
L 716 0 
L 50 0 
L 1831 4666 
z
" id="DejaVuSans-41" transform="scale(0.015625)"/>
       <path d="M 544 1381 
L 544 3500 
L 1119 3500 
L 1119 1403 
Q 1119 906 1312 657 
Q 1506 409 1894 409 
Q 2359 409 2629 706 
Q 2900 1003 2900 1516 
L 2900 3500 
L 3475 3500 
L 3475 0 
L 2900 0 
L 2900 538 
Q 2691 219 2414 64 
Q 2138 -91 1772 -91 
Q 1169 -91 856 284 
Q 544 659 544 1381 
z
M 1991 3584 
L 1991 3584 
z
" id="DejaVuSans-75" transform="scale(0.015625)"/>
       <path d="M 2631 2963 
Q 2534 3019 2420 3045 
Q 2306 3072 2169 3072 
Q 1681 3072 1420 2755 
Q 1159 2438 1159 1844 
L 1159 0 
L 581 0 
L 581 3500 
L 1159 3500 
L 1159 2956 
Q 1341 3275 1631 3429 
Q 1922 3584 2338 3584 
Q 2397 3584 2469 3576 
Q 2541 3569 2628 3553 
L 2631 2963 
z
" id="DejaVuSans-72" transform="scale(0.015625)"/>
       <path d="M 2194 1759 
Q 1497 1759 1228 1600 
Q 959 1441 959 1056 
Q 959 750 1161 570 
Q 1363 391 1709 391 
Q 2188 391 2477 730 
Q 2766 1069 2766 1631 
L 2766 1759 
L 2194 1759 
z
M 3341 1997 
L 3341 0 
L 2766 0 
L 2766 531 
Q 2569 213 2275 61 
Q 1981 -91 1556 -91 
Q 1019 -91 701 211 
Q 384 513 384 1019 
Q 384 1609 779 1909 
Q 1175 2209 1959 2209 
L 2766 2209 
L 2766 2266 
Q 2766 2663 2505 2880 
Q 2244 3097 1772 3097 
Q 1472 3097 1187 3025 
Q 903 2953 641 2809 
L 641 3341 
Q 956 3463 1253 3523 
Q 1550 3584 1831 3584 
Q 2591 3584 2966 3190 
Q 3341 2797 3341 1997 
z
" id="DejaVuSans-61" transform="scale(0.015625)"/>
       <path d="M 2059 -325 
Q 1816 -950 1584 -1140 
Q 1353 -1331 966 -1331 
L 506 -1331 
L 506 -850 
L 844 -850 
Q 1081 -850 1212 -737 
Q 1344 -625 1503 -206 
L 1606 56 
L 191 3500 
L 800 3500 
L 1894 763 
L 2988 3500 
L 3597 3500 
L 2059 -325 
z
" id="DejaVuSans-79" transform="scale(0.015625)"/>
      </defs>
      <use xlink:href="#DejaVuSans-41"/>
      <use x="66.658203" xlink:href="#DejaVuSans-63"/>
      <use x="121.638672" xlink:href="#DejaVuSans-63"/>
      <use x="176.619141" xlink:href="#DejaVuSans-75"/>
      <use x="239.998047" xlink:href="#DejaVuSans-72"/>
      <use x="281.111328" xlink:href="#DejaVuSans-61"/>
      <use x="342.390625" xlink:href="#DejaVuSans-63"/>
      <use x="397.371094" xlink:href="#DejaVuSans-79"/>
     </g>
    </g>
   </g>
   <g id="line2d_19">
    <path clip-path="url(#p0fc903e46b)" d="M 73.832727 295.488 
L 74.707807 292.095797 
L 75.582887 290.551897 
L 76.457966 288.52265 
L 77.333046 285.228104 
L 78.208125 284.034987 
L 79.083205 284.119906 
L 79.958285 282.06649 
L 82.583524 278.523718 
L 83.458603 275.978423 
L 84.333683 283.185793 
L 85.208763 284.355068 
L 86.083842 282.913398 
L 86.958922 282.223264 
L 87.834001 276.41837 
L 88.709081 279.279501 
L 89.584161 273.86197 
L 90.45924 273.561486 
L 91.33432 274.24966 
L 92.2094 264.407502 
L 93.084479 271.399308 
L 93.959559 265.589841 
L 94.834639 266.24764 
L 95.709718 257.215483 
L 96.584798 263.839195 
L 97.459877 263.170945 
L 98.334957 258.783225 
L 99.210037 264.261833 
L 100.085116 257.692338 
L 100.960196 261.716211 
L 101.835276 255.373385 
L 102.710355 254.274006 
L 103.585435 258.08656 
L 104.460515 247.907011 
L 105.335594 271.804308 
L 106.210674 265.308954 
L 107.085753 269.831565 
L 107.960833 260.081186 
L 108.835913 263.336211 
L 109.710992 263.845728 
L 110.586072 261.605162 
L 111.461152 268.326859 
L 112.336231 253.511691 
L 113.211311 256.971829 
L 114.086391 261.082581 
L 114.96147 253.559703 
L 115.83655 263.482207 
L 116.71163 251.469379 
L 117.586709 258.811641 
L 118.461789 256.216047 
L 119.336868 264.237663 
L 120.211948 248.190184 
L 121.087028 242.650827 
L 121.962107 252.765053 
L 122.837187 250.348117 
L 123.712267 254.98145 
L 124.587346 254.535296 
L 125.462426 244.656231 
L 126.337506 255.667337 
L 127.212585 247.52618 
L 128.087665 243.870074 
L 128.962744 243.375908 
L 129.837824 251.393279 
L 130.712904 239.362813 
L 131.587983 242.308863 
L 132.463063 244.486392 
L 133.338143 236.342949 
L 134.213222 239.513055 
L 135.088302 236.808699 
L 135.963382 227.64851 
L 136.838461 253.082848 
L 137.713541 237.603676 
L 138.58862 249.57927 
L 139.4637 240.264265 
L 140.33878 243.922332 
L 141.213859 235.71128 
L 142.088939 237.86268 
L 142.964019 240.394911 
L 143.839098 234.228456 
L 144.714178 232.882811 
L 145.589258 240.758758 
L 146.464337 243.288702 
L 147.339417 249.298382 
L 148.214496 243.578408 
L 149.089576 243.234485 
L 149.964656 245.659913 
L 150.839735 255.837176 
L 151.714815 253.588118 
L 152.589895 246.816123 
L 153.464974 241.866956 
L 154.340054 253.076316 
L 155.215134 252.407739 
L 156.090213 245.684082 
L 156.965293 245.958437 
L 157.840372 243.471606 
L 158.715452 247.93118 
L 159.590532 247.304083 
L 160.465611 233.771198 
L 161.340691 244.880614 
L 162.215771 237.342385 
L 163.09085 251.014407 
L 163.96593 237.215986 
L 164.84101 252.497231 
L 165.716089 245.773248 
L 166.591169 240.227358 
L 167.466248 244.325372 
L 168.341328 243.926904 
L 169.216408 239.1626 
L 170.091487 245.000155 
L 170.966567 234.315662 
L 171.841647 242.713863 
L 172.716726 227.15859 
L 173.591806 230.91464 
L 174.466886 239.129938 
L 175.341965 221.457886 
L 176.217045 243.878892 
L 177.092124 229.714664 
L 177.967204 235.445743 
L 178.842284 227.898695 
L 179.717363 236.649965 
L 180.592443 236.839401 
L 181.467523 229.945579 
L 182.342602 233.344641 
L 183.217682 222.176435 
L 184.092762 230.392059 
L 184.967841 225.57321 
L 185.842921 233.218242 
L 186.718 234.820932 
L 187.59308 229.80187 
L 188.46816 235.815796 
L 190.218319 224.970283 
L 191.093399 231.437221 
L 191.968478 230.912354 
L 192.843558 235.805017 
L 193.718638 228.654478 
L 194.593717 226.041574 
L 195.468797 238.944749 
L 196.343877 224.092674 
L 197.218956 223.583157 
L 198.094036 229.642809 
L 198.969115 227.197784 
L 199.844195 231.676629 
L 200.719275 227.668107 
L 201.594354 219.095494 
L 202.469434 239.402007 
L 203.344514 223.99469 
L 204.219593 228.576091 
L 205.094673 238.942789 
L 205.969753 229.562462 
L 206.844832 233.15292 
L 207.719912 221.320709 
L 208.594991 228.700204 
L 209.470071 233.727758 
L 210.345151 221.449394 
L 211.22023 211.513825 
L 212.09531 229.420712 
L 212.97039 221.595064 
L 213.845469 221.307644 
L 214.720549 231.687407 
L 215.595629 209.04659 
L 216.470708 227.975123 
L 217.345788 230.681439 
L 218.220867 229.967462 
L 219.095947 196.485052 
L 219.971027 237.157196 
L 220.846106 221.976221 
L 221.721186 214.95404 
L 222.596266 218.200574 
L 223.471345 218.087239 
L 224.346425 226.720929 
L 225.221505 222.718612 
L 226.096584 225.812944 
L 226.971664 234.404827 
L 227.846743 237.679776 
L 228.721823 221.397136 
L 229.596903 226.463884 
L 230.471982 226.858106 
L 231.347062 234.644561 
L 232.222142 240.36029 
L 233.097221 238.472466 
L 233.972301 231.711576 
L 234.847381 236.369078 
L 235.72246 243.957279 
L 236.59754 231.343483 
L 237.472619 240.869806 
L 238.347699 235.687437 
L 239.222779 227.977083 
L 240.097858 247.18193 
L 240.972938 234.897033 
L 241.848018 229.727728 
L 242.723097 235.278191 
L 243.598177 224.201436 
L 244.473257 228.453938 
L 245.348336 230.400551 
L 246.223416 239.52416 
L 247.098495 238.550853 
L 247.973575 230.827435 
L 248.848655 231.946738 
L 249.723734 227.846437 
L 250.598814 230.333269 
L 251.473894 220.042672 
L 252.348973 226.023936 
L 253.224053 224.016573 
L 254.099133 229.296599 
L 254.974212 223.95321 
L 255.849292 222.65329 
L 256.724371 228.142675 
L 257.599451 231.040713 
L 258.474531 228.920014 
L 259.34961 233.747355 
L 260.22469 234.844775 
L 261.09977 229.048373 
L 261.974849 226.831977 
L 262.849929 206.910541 
L 264.600088 235.302033 
L 265.475168 215.245706 
L 266.350247 237.753918 
L 267.225327 223.650766 
L 268.100407 236.887087 
L 268.975486 220.865737 
L 269.850566 230.563858 
L 270.725646 217.736784 
L 271.600725 231.648213 
L 272.475805 221.338346 
L 273.350885 228.231841 
L 274.225964 232.948133 
L 275.101044 223.330685 
L 275.976123 231.791923 
L 276.851203 230.879693 
L 277.726283 223.459044 
L 278.601362 233.686279 
L 279.476442 219.818289 
L 280.351522 223.027915 
L 281.226601 225.560146 
L 282.101681 220.066514 
L 282.976761 209.460409 
L 283.85184 230.792487 
L 284.72692 215.104282 
L 285.602 219.912026 
L 286.477079 227.877139 
L 287.352159 216.942134 
L 288.227238 212.158233 
L 289.102318 227.914046 
L 289.977398 225.852138 
L 290.852477 227.478671 
L 291.727557 223.31958 
L 292.602637 218.115655 
L 293.477716 225.640819 
L 294.352796 218.224417 
L 295.227876 228.913482 
L 296.102955 234.237275 
L 296.978035 230.725205 
L 297.853114 236.212304 
L 298.728194 232.948133 
L 299.603274 237.695127 
L 300.478353 220.286652 
L 301.353433 228.671788 
L 302.228513 219.012861 
L 303.103592 214.054875 
L 303.978672 221.303398 
L 304.853752 212.896378 
L 305.728831 213.908879 
L 306.603911 223.495951 
L 307.47899 224.317057 
L 308.35407 237.801603 
L 309.22915 230.897003 
L 310.104229 234.459372 
L 310.979309 207.276347 
L 311.854389 213.689068 
L 312.729468 224.284395 
L 313.604548 214.644738 
L 314.479628 233.984803 
L 315.354707 223.641948 
L 316.229787 219.326409 
L 317.104866 229.41222 
L 317.979946 209.458123 
L 318.855026 236.323352 
L 319.730105 216.262779 
L 320.605185 236.27534 
L 321.480265 218.81232 
L 322.355344 231.994423 
L 323.230424 236.569292 
L 324.105504 232.456254 
L 324.980583 215.335198 
L 325.855663 222.646758 
L 326.730742 219.217321 
L 327.605822 197.260432 
L 328.480902 198.103093 
L 329.355981 214.172455 
L 330.231061 213.344818 
L 331.106141 227.940175 
L 331.98122 219.879365 
L 332.8563 202.074708 
L 333.73138 212.351914 
L 334.606459 209.773957 
L 335.481539 229.601656 
L 336.356618 223.931653 
L 337.231698 227.238937 
L 338.106778 205.199088 
L 338.981857 224.597944 
L 339.856937 226.574933 
L 340.732017 200.900861 
L 342.482176 215.940412 
L 343.357256 226.744771 
L 344.232335 214.115625 
L 345.107415 222.015415 
L 345.982494 220.190627 
L 346.857574 217.791328 
L 347.732654 226.191816 
L 348.607733 220.591382 
L 349.482813 210.673123 
L 350.357893 214.226673 
L 351.232972 212.524039 
L 352.983132 225.499396 
L 353.858211 208.160489 
L 354.733291 224.737081 
L 355.60837 216.667779 
L 356.48345 213.251407 
L 357.35853 213.423205 
L 358.233609 202.366373 
L 359.108689 229.218212 
L 359.983769 214.030705 
L 360.858848 217.904336 
L 361.733928 230.572676 
L 362.609008 229.185551 
L 363.484087 202.488309 
L 364.359167 225.196626 
L 365.234247 227.565659 
L 366.109326 210.235571 
L 366.984406 229.958644 
L 367.859485 214.501137 
L 368.734565 216.865815 
L 369.609645 216.275735 
L 370.484724 208.241053 
L 371.359804 217.721542 
L 372.234884 203.801293 
L 373.109963 212.018878 
L 373.985043 223.979448 
L 374.860123 187.514189 
L 375.735202 216.632831 
L 376.610282 218.437913 
L 377.485361 223.596222 
L 378.360441 213.442911 
L 379.235521 207.008634 
L 380.1106 220.43243 
L 380.98568 226.483481 
L 381.86076 210.917103 
L 382.735839 227.354449 
L 383.610919 210.409764 
L 384.485999 220.782995 
L 385.361078 224.86348 
L 386.236158 221.231543 
L 387.111237 220.29743 
L 387.986317 213.473395 
L 388.861397 184.34822 
L 389.736476 208.569844 
L 390.611556 225.477513 
L 391.486636 210.847426 
L 392.361715 216.637186 
L 393.236795 207.812102 
L 394.111875 217.063961 
L 394.986954 222.33114 
L 395.862034 208.223634 
L 396.737113 205.096859 
L 397.612193 209.508312 
L 398.487273 217.934929 
L 398.487273 217.934929 
" style="fill:none;stroke:#1f77b4;stroke-linecap:square;stroke-width:1.5;"/>
   </g>
   <g id="line2d_20">
    <path clip-path="url(#p0fc903e46b)" d="M 73.832727 279.747537 
L 74.707807 272.496728 
L 75.582887 272.30076 
L 76.457966 270.341081 
L 77.333046 261.228577 
L 78.208125 247.380184 
L 79.083205 240.978568 
L 79.958285 239.051551 
L 80.833364 233.662436 
L 81.708444 229.416466 
L 82.583524 227.293481 
L 83.458603 221.479769 
L 84.333683 238.300341 
L 85.208763 247.445507 
L 86.083842 241.664456 
L 86.958922 227.718078 
L 87.834001 228.926547 
L 88.709081 226.346304 
L 89.584161 214.555572 
L 90.45924 212.693878 
L 92.2094 197.081774 
L 93.084479 193.097095 
L 93.959559 191.72532 
L 94.834639 184.96443 
L 95.709718 183.821284 
L 96.584798 175.296684 
L 97.459877 173.239022 
L 98.334957 167.490632 
L 99.210037 158.802725 
L 100.085116 161.187 
L 100.960196 159.455951 
L 101.835276 162.232162 
L 102.710355 155.373288 
L 103.585435 160.631758 
L 104.460515 151.225302 
L 105.335594 196.23258 
L 106.210674 196.134596 
L 107.085753 182.351526 
L 107.960833 194.207579 
L 108.835913 174.578135 
L 109.710992 166.412809 
L 110.586072 163.734582 
L 111.461152 173.141038 
L 112.336231 174.349506 
L 113.211311 157.92087 
L 114.086391 155.17732 
L 114.96147 160.043854 
L 115.83655 149.853527 
L 116.71163 141.982153 
L 117.586709 153.576916 
L 118.461789 145.346267 
L 119.336868 140.6757 
L 120.211948 141.884169 
L 121.087028 131.432551 
L 121.962107 140.120458 
L 122.837187 130.746664 
L 123.712267 140.120458 
L 124.587346 133.098278 
L 125.462426 127.219243 
L 126.337506 134.764004 
L 127.212585 128.623679 
L 128.087665 125.684161 
L 128.962744 124.279725 
L 129.837824 116.081738 
L 130.712904 116.081738 
L 131.587983 117.551497 
L 132.463063 115.232544 
L 134.213222 106.446653 
L 135.088302 106.609959 
L 135.963382 105.793427 
L 136.838461 108.830928 
L 137.713541 106.479314 
L 138.58862 102.919232 
L 139.4637 108.863589 
L 140.33878 100.600279 
L 141.213859 100.37165 
L 142.088939 105.270846 
L 142.964019 99.228504 
L 143.839098 101.351489 
L 144.714178 97.595439 
L 145.589258 98.738585 
L 146.464337 104.1277 
L 147.339417 139.92449 
L 148.214496 133.196262 
L 149.089576 128.133759 
L 149.964656 118.368029 
L 151.714815 137.67086 
L 152.589895 132.641019 
L 153.464974 129.636179 
L 154.340054 131.693842 
L 155.215134 130.191422 
L 156.090213 129.505534 
L 156.965293 113.044236 
L 157.840372 109.516816 
L 158.715452 123.757144 
L 159.590532 118.596658 
L 160.465611 118.172061 
L 161.340691 110.986574 
L 162.215771 108.471654 
L 163.09085 118.857949 
L 163.96593 125.6515 
L 164.84101 142.864008 
L 165.716089 128.166421 
L 166.591169 108.667622 
L 167.466248 110.039396 
L 168.341328 113.89343 
L 169.216408 106.675282 
L 170.091487 97.987375 
L 170.966567 97.6281 
L 171.841647 99.718424 
L 172.716726 92.304308 
L 173.591806 100.992215 
L 174.466886 107.328508 
L 175.341965 96.680923 
L 176.217045 90.899872 
L 177.092124 103.605119 
L 177.967204 95.995035 
L 178.842284 93.61076 
L 179.717363 93.545437 
L 180.592443 92.990195 
L 181.467523 98.411972 
L 182.342602 93.186163 
L 183.217682 89.85471 
L 184.092762 99.391811 
L 184.967841 104.160361 
L 185.842921 89.332129 
L 187.59308 84.269627 
L 188.46816 115.62448 
L 189.343239 84.85753 
L 190.218319 86.327289 
L 191.093399 83.714385 
L 191.968478 79.141802 
L 192.843558 82.146642 
L 193.718638 80.382931 
L 194.593717 84.498256 
L 195.468797 78.880511 
L 196.343877 77.965995 
L 197.218956 78.063979 
L 198.094036 76.888172 
L 198.969115 81.787368 
L 199.844195 82.146642 
L 200.719275 74.0793 
L 201.594354 73.034138 
L 202.469434 76.365591 
L 203.344514 75.255107 
L 204.219593 75.908333 
L 205.094673 73.491396 
L 205.969753 84.890192 
L 206.844832 78.292608 
L 208.594991 71.499056 
L 209.470071 77.116801 
L 210.345151 70.225266 
L 211.22023 70.617201 
L 212.09531 70.029298 
L 212.97039 70.421233 
L 213.845469 70.421233 
L 214.720549 70.551879 
L 215.595629 67.416393 
L 216.470708 70.747846 
L 217.345788 69.670023 
L 218.220867 72.34825 
L 219.095947 69.865991 
L 219.971027 69.865991 
L 220.846106 66.926474 
L 221.721186 67.024458 
L 222.596266 67.938974 
L 223.471345 66.109941 
L 224.346425 69.147442 
L 225.221505 69.702685 
L 226.096584 72.642202 
L 226.971664 68.036958 
L 227.846743 68.886152 
L 228.721823 66.697845 
L 229.596903 68.788168 
L 230.471982 66.044619 
L 231.347062 93.61076 
L 233.972301 116.963593 
L 234.847381 86.35995 
L 235.72246 96.909552 
L 236.59754 97.987375 
L 237.472619 94.394631 
L 238.347699 86.784547 
L 239.222779 127.839808 
L 240.097858 86.555918 
L 240.972938 91.879711 
L 241.848018 95.570438 
L 242.723097 85.576079 
L 243.598177 93.839389 
L 244.473257 89.822049 
L 245.348336 93.316808 
L 246.223416 90.344629 
L 247.098495 102.396651 
L 247.973575 86.196644 
L 248.848655 81.134141 
L 249.723734 82.146642 
L 250.598814 95.570438 
L 251.473894 81.460754 
L 252.348973 85.543418 
L 253.224053 90.997856 
L 254.099133 84.955514 
L 254.974212 77.149462 
L 256.724371 86.425273 
L 257.599451 93.251486 
L 258.474531 75.189784 
L 259.34961 83.257126 
L 260.22469 83.877691 
L 261.09977 83.943014 
L 261.974849 73.32809 
L 262.849929 76.33293 
L 263.725009 96.223664 
L 264.600088 87.960354 
L 265.475168 77.965995 
L 266.350247 77.83535 
L 267.225327 87.829709 
L 268.100407 80.415593 
L 268.975486 94.884551 
L 269.850566 87.927693 
L 270.725646 73.426073 
L 271.600725 79.958334 
L 272.475805 77.149462 
L 273.350885 71.172443 
L 274.225964 95.11318 
L 275.101044 73.09946 
L 275.976123 83.583739 
L 276.851203 75.222445 
L 277.726283 69.800669 
L 278.601362 71.433734 
L 279.476442 77.476075 
L 280.351522 70.747846 
L 281.226601 70.09462 
L 282.101681 72.315589 
L 282.976761 69.180104 
L 283.85184 75.255107 
L 284.72692 68.232926 
L 285.602 77.08414 
L 286.477079 69.800669 
L 287.352159 67.547039 
L 288.227238 74.928493 
L 289.102318 70.58454 
L 289.977398 69.702685 
L 290.852477 73.197444 
L 291.727557 66.795829 
L 292.602637 74.34059 
L 293.477716 75.35309 
L 294.352796 74.993816 
L 295.227876 71.923653 
L 296.102955 71.629702 
L 296.978035 72.903493 
L 297.853114 82.799868 
L 298.728194 75.58172 
L 299.603274 71.172443 
L 300.478353 70.453895 
L 301.353433 72.544218 
L 302.228513 70.682524 
L 303.103592 64.476876 
L 303.978672 70.84583 
L 304.853752 67.187764 
L 305.728831 71.139782 
L 306.603911 67.318409 
L 307.47899 67.122442 
L 308.35407 70.943814 
L 309.22915 73.458735 
L 310.104229 67.285748 
L 310.979309 68.428894 
L 311.854389 65.815989 
L 312.729468 74.177283 
L 313.604548 63.07244 
L 314.479628 64.182924 
L 315.354707 68.265587 
L 317.104866 71.59704 
L 317.979946 65.162763 
L 318.855026 66.632522 
L 319.730105 72.674863 
L 320.605185 66.861151 
L 321.480265 66.632522 
L 322.355344 63.758327 
L 324.105504 70.780508 
L 325.855663 62.386552 
L 326.730742 67.024458 
L 327.605822 66.142602 
L 328.480902 61.112761 
L 329.355981 61.929294 
L 330.231061 64.346231 
L 331.106141 64.901473 
L 331.98122 63.790988 
L 332.8563 60.982116 
L 333.73138 61.276068 
L 334.606459 58.728486 
L 335.481539 61.472036 
L 336.356618 63.431714 
L 337.231698 60.296229 
L 338.106778 58.56518 
L 338.981857 61.472036 
L 339.856937 59.740987 
L 340.732017 63.33373 
L 341.607096 61.472036 
L 342.482176 56.997437 
L 343.357256 59.675664 
L 344.232335 65.064779 
L 345.107415 57.030098 
L 345.982494 57.879292 
L 346.857574 62.386552 
L 347.732654 56.703485 
L 348.607733 57.944615 
L 349.482813 59.57768 
L 350.357893 58.238567 
L 351.232972 57.585341 
L 352.108052 57.911954 
L 352.983132 56.57284 
L 353.858211 58.205905 
L 354.733291 58.663164 
L 355.60837 58.467196 
L 356.48345 59.708325 
L 357.35853 57.095421 
L 358.233609 57.650663 
L 359.108689 57.650663 
L 359.983769 57.291389 
L 360.858848 58.238567 
L 361.733928 58.728486 
L 362.609008 58.042599 
L 363.484087 56.246227 
L 364.359167 61.0801 
L 365.234247 59.218406 
L 366.109326 56.768808 
L 366.984406 57.454695 
L 367.859485 55.82163 
L 368.734565 56.964776 
L 369.609645 56.115582 
L 370.484724 56.964776 
L 371.359804 57.487357 
L 372.234884 54.972436 
L 373.109963 57.226066 
L 373.985043 55.233727 
L 374.860123 54.515178 
L 375.735202 58.401873 
L 376.610282 57.389373 
L 377.485361 55.429694 
L 378.360441 55.690985 
L 379.235521 57.160744 
L 380.1106 56.278888 
L 380.98568 57.291389 
L 381.86076 55.495017 
L 382.735839 58.597841 
L 383.610919 53.959936 
L 384.485999 55.984937 
L 385.361078 58.793809 
L 387.111237 56.474856 
L 387.986317 56.801469 
L 388.861397 53.763968 
L 389.736476 54.31921 
L 390.611556 56.376872 
L 391.486636 54.286549 
L 392.361715 55.201065 
L 393.236795 53.568 
L 394.111875 56.768808 
L 394.986954 55.266388 
L 395.862034 54.253887 
L 396.737113 56.801469 
L 397.612193 54.286549 
L 398.487273 55.82163 
L 398.487273 55.82163 
" style="fill:none;stroke:#ff7f0e;stroke-linecap:square;stroke-width:1.5;"/>
   </g>
   <g id="line2d_21">
    <path clip-path="url(#p0fc903e46b)" d="M 73.832727 282.690647 
L 74.707807 274.336212 
L 75.582887 275.969278 
L 76.457966 271.447973 
L 77.333046 264.658014 
L 78.208125 252.659231 
L 79.083205 247.931833 
L 79.958285 248.464866 
L 80.833364 245.800357 
L 81.708444 240.368455 
L 82.583524 240.677758 
L 83.458603 233.956388 
L 84.333683 249.324511 
L 85.208763 259.36329 
L 86.083842 252.556021 
L 86.958922 240.333834 
L 87.834001 240.884177 
L 88.709081 232.426532 
L 89.584161 226.581792 
L 90.45924 226.324094 
L 91.33432 216.353577 
L 92.2094 211.660801 
L 93.084479 209.494703 
L 93.959559 212.262422 
L 94.834639 198.922892 
L 95.709718 200.693461 
L 96.584798 193.645478 
L 97.459877 196.189467 
L 98.334957 189.605928 
L 99.210037 185.273733 
L 100.085116 179.91042 
L 100.960196 182.093828 
L 101.835276 181.629384 
L 102.710355 178.105556 
L 103.585435 180.426142 
L 104.460515 174.736216 
L 105.335594 211.591886 
L 106.210674 208.738267 
L 107.085753 201.226167 
L 107.960833 209.615223 
L 108.835913 193.920487 
L 109.710992 188.350754 
L 110.586072 187.061612 
L 111.461152 194.848721 
L 112.336231 194.608007 
L 113.211311 176.592684 
L 114.96147 185.222128 
L 115.83655 175.028534 
L 116.71163 169.562012 
L 117.586709 176.592684 
L 118.461789 174.598712 
L 119.336868 169.252709 
L 120.211948 169.716826 
L 121.087028 165.436562 
L 121.962107 166.931797 
L 122.837187 160.193443 
L 123.712267 171.779714 
L 124.587346 168.496273 
L 125.462426 156.49749 
L 126.337506 163.682977 
L 127.212585 165.59105 
L 128.087665 159.419697 
L 128.962744 156.806792 
L 129.837824 152.647049 
L 130.712904 150.326136 
L 131.587983 150.429346 
L 132.463063 152.904746 
L 134.213222 144.773714 
L 135.088302 146.544284 
L 135.963382 143.880101 
L 136.838461 143.707976 
L 137.713541 144.825319 
L 138.58862 141.817213 
L 139.4637 145.151932 
L 140.33878 139.445023 
L 141.213859 138.499478 
L 142.088939 141.060777 
L 142.964019 138.361974 
L 143.839098 138.826091 
L 144.714178 136.986606 
L 145.589258 139.101099 
L 146.464337 139.788619 
L 147.339417 169.871314 
L 148.214496 164.783336 
L 149.089576 164.301909 
L 149.964656 159.282193 
L 150.839735 159.471302 
L 151.714815 172.071707 
L 152.589895 169.888625 
L 153.464974 163.493868 
L 154.340054 163.90638 
L 155.215134 161.190593 
L 156.090213 160.055939 
L 156.965293 147.19751 
L 157.840372 150.67006 
L 158.715452 160.227738 
L 159.590532 155.569256 
L 160.465611 155.638171 
L 161.340691 147.541433 
L 162.215771 149.294692 
L 163.09085 151.787403 
L 164.84101 179.068085 
L 165.716089 157.18501 
L 166.591169 144.464412 
L 167.466248 148.538583 
L 168.341328 149.862019 
L 170.091487 135.267642 
L 170.966567 133.136165 
L 171.841647 139.616821 
L 172.716726 132.534544 
L 173.591806 139.221293 
L 174.466886 143.966 
L 175.341965 136.384985 
L 176.217045 134.683331 
L 177.092124 146.733393 
L 177.967204 137.485344 
L 178.842284 131.159176 
L 179.717363 129.990228 
L 180.592443 131.451495 
L 181.467523 133.668871 
L 182.342602 125.641049 
L 183.217682 130.299857 
L 184.092762 133.926895 
L 184.967841 146.389796 
L 185.842921 123.870479 
L 186.718 127.05071 
L 187.59308 122.443833 
L 188.46816 150.343447 
L 189.343239 124.369217 
L 190.218319 125.159948 
L 191.093399 121.240591 
L 191.968478 118.180553 
L 192.843558 121.017188 
L 193.718638 118.318057 
L 194.593717 122.048305 
L 195.468797 117.596243 
L 196.343877 118.026065 
L 197.218956 120.879357 
L 198.094036 115.206741 
L 198.969115 123.062765 
L 199.844195 119.865223 
L 200.719275 113.607971 
L 201.594354 112.800256 
L 202.469434 116.994621 
L 203.344514 113.934584 
L 204.219593 117.16642 
L 205.094673 112.782946 
L 205.969753 121.721692 
L 206.844832 116.27248 
L 207.719912 114.089398 
L 208.594991 110.720058 
L 209.470071 115.842657 
L 210.345151 112.353123 
L 211.22023 110.703074 
L 212.09531 111.820417 
L 212.97039 111.184175 
L 213.845469 109.826118 
L 214.720549 110.668453 
L 215.595629 108.915194 
L 216.470708 110.152731 
L 217.345788 110.479344 
L 218.220867 111.596687 
L 219.095947 109.396622 
L 219.971027 109.65432 
L 220.846106 109.052698 
L 221.721186 108.966799 
L 222.596266 110.187352 
L 223.471345 107.07571 
L 224.346425 109.637009 
L 225.221505 109.516816 
L 226.096584 111.321679 
L 226.971664 109.035388 
L 227.846743 108.846279 
L 228.721823 107.350718 
L 229.596903 109.241807 
L 230.471982 108.09017 
L 231.347062 128.666792 
L 232.222142 140.287358 
L 233.097221 147.936962 
L 233.972301 149.449507 
L 234.847381 129.320018 
L 235.72246 138.980905 
L 236.59754 136.247481 
L 237.472619 134.012794 
L 238.347699 126.122476 
L 239.222779 161.723299 
L 240.097858 124.369217 
L 240.972938 134.184593 
L 241.848018 135.834968 
L 242.723097 122.340624 
L 243.598177 131.485789 
L 244.473257 124.523705 
L 245.348336 131.434184 
L 246.223416 134.597105 
L 247.098495 133.651887 
L 247.973575 130.746664 
L 248.848655 123.372068 
L 249.723734 123.440983 
L 250.598814 136.213186 
L 251.473894 117.630537 
L 252.348973 123.767596 
L 253.224053 132.809552 
L 254.099133 122.89064 
L 254.974212 116.427294 
L 255.849292 121.446684 
L 256.724371 123.853495 
L 257.599451 132.826536 
L 258.474531 115.034943 
L 259.34961 123.80189 
L 260.22469 121.481305 
L 261.09977 130.780958 
L 261.974849 112.937761 
L 262.849929 117.768041 
L 263.725009 139.341813 
L 264.600088 128.701086 
L 265.475168 114.828524 
L 266.350247 126.277291 
L 267.225327 123.303479 
L 268.100407 122.753136 
L 268.975486 134.75192 
L 270.725646 116.444605 
L 271.600725 117.132125 
L 272.475805 121.773297 
L 273.350885 116.393 
L 274.225964 131.073277 
L 275.101044 113.384567 
L 275.976123 125.108343 
L 276.851203 117.355529 
L 277.726283 112.387418 
L 278.601362 113.865995 
L 279.476442 118.249469 
L 280.351522 114.158314 
L 281.226601 113.075265 
L 282.101681 115.670859 
L 282.976761 111.9233 
L 283.85184 119.195013 
L 284.72692 112.02651 
L 285.602 118.610376 
L 286.477079 113.539382 
L 287.352159 112.060805 
L 288.227238 117.785351 
L 289.102318 113.969205 
L 289.977398 109.413606 
L 290.852477 115.963177 
L 291.727557 108.77769 
L 292.602637 114.742624 
L 293.477716 116.220875 
L 294.352796 115.189431 
L 295.227876 115.653548 
L 296.102955 111.631308 
L 296.978035 114.742624 
L 297.853114 123.9051 
L 298.728194 117.097831 
L 299.603274 112.92045 
L 301.353433 115.60227 
L 302.228513 110.015227 
L 303.103592 106.559988 
L 303.978672 116.238185 
L 304.853752 109.516816 
L 305.728831 110.805957 
L 306.603911 112.662752 
L 307.47899 109.155908 
L 308.35407 115.653548 
L 309.22915 117.85394 
L 310.104229 109.224497 
L 310.979309 109.980933 
L 311.854389 109.912344 
L 312.729468 111.545409 
L 313.604548 107.814835 
L 314.479628 108.158758 
L 315.354707 111.476494 
L 316.229787 110.978082 
L 317.104866 112.81724 
L 317.979946 109.516816 
L 318.855026 107.505532 
L 319.730105 114.037793 
L 320.605185 110.238957 
L 321.480265 111.012377 
L 322.355344 104.737813 
L 323.230424 107.918045 
L 324.105504 112.043821 
L 324.980583 105.42566 
L 325.855663 106.800701 
L 326.730742 108.708775 
L 327.605822 106.439794 
L 328.480902 101.609187 
L 329.355981 106.147475 
L 330.231061 109.56842 
L 331.106141 107.333734 
L 331.98122 103.465982 
L 332.8563 104.600309 
L 333.73138 102.314018 
L 334.606459 103.551881 
L 335.481539 106.491399 
L 336.356618 108.158758 
L 337.231698 105.40835 
L 338.106778 102.142219 
L 338.981857 105.391039 
L 339.856937 102.124909 
L 340.732017 104.978527 
L 341.607096 102.915639 
L 342.482176 102.864361 
L 343.357256 104.737813 
L 344.232335 110.101126 
L 345.107415 101.729707 
L 345.982494 103.104748 
L 346.857574 105.339761 
L 347.732654 103.706696 
L 348.607733 99.460726 
L 349.482813 105.219241 
L 350.357893 100.027727 
L 351.232972 99.632525 
L 352.108052 103.82689 
L 352.983132 101.592203 
L 353.858211 103.551881 
L 354.733291 102.193824 
L 355.60837 101.695413 
L 356.48345 102.228119 
L 357.35853 99.134113 
L 358.233609 101.282574 
L 359.108689 102.795446 
L 359.983769 101.14507 
L 360.858848 100.887372 
L 361.733928 103.448672 
L 362.609008 102.073631 
L 363.484087 99.25429 
L 364.359167 102.142237 
L 365.234247 101.47182 
L 366.109326 99.563713 
L 366.984406 101.609342 
L 367.859485 99.684044 
L 368.734565 99.873135 
L 369.609645 98.343211 
L 370.484724 98.463542 
L 371.359804 100.251319 
L 372.234884 97.208661 
L 373.109963 100.096608 
L 373.985043 97.586844 
L 374.860123 97.19147 
L 375.735202 99.941896 
L 376.610282 100.681073 
L 377.485361 98.687014 
L 378.360441 98.927677 
L 379.235521 100.612312 
L 380.1106 99.30586 
L 380.98568 98.274451 
L 381.86076 98.085359 
L 382.735839 100.32008 
L 383.610919 97.363372 
L 384.485999 98.601064 
L 385.361078 101.110827 
L 386.236158 98.944867 
L 387.111237 98.515113 
L 387.986317 99.598093 
L 388.861397 96.160061 
L 389.736476 97.689985 
L 390.611556 98.377591 
L 391.486636 97.793126 
L 392.361715 97.827506 
L 393.236795 96.486674 
L 394.111875 98.308831 
L 394.986954 98.429162 
L 395.862034 96.985188 
L 396.737113 98.790155 
L 397.612193 96.177251 
L 398.487273 99.065198 
L 398.487273 99.065198 
" style="fill:none;stroke:#2ca02c;stroke-linecap:square;stroke-width:1.5;"/>
   </g>
   <g id="patch_3">
    <path d="M 57.6 307.584 
L 57.6 41.472 
" style="fill:none;stroke:#000000;stroke-linecap:square;stroke-linejoin:miter;stroke-width:0.8;"/>
   </g>
   <g id="patch_4">
    <path d="M 414.72 307.584 
L 414.72 41.472 
" style="fill:none;stroke:#000000;stroke-linecap:square;stroke-linejoin:miter;stroke-width:0.8;"/>
   </g>
   <g id="patch_5">
    <path d="M 57.6 307.584 
L 414.72 307.584 
" style="fill:none;stroke:#000000;stroke-linecap:square;stroke-linejoin:miter;stroke-width:0.8;"/>
   </g>
   <g id="patch_6">
    <path d="M 57.6 41.472 
L 414.72 41.472 
" style="fill:none;stroke:#000000;stroke-linecap:square;stroke-linejoin:miter;stroke-width:0.8;"/>
   </g>
   <g id="text_21">
    <!-- Training and Validation Accuracy -->
    <g transform="translate(138.4575 35.472)scale(0.12 -0.12)">
     <defs>
      <path d="M -19 4666 
L 3928 4666 
L 3928 4134 
L 2272 4134 
L 2272 0 
L 1638 0 
L 1638 4134 
L -19 4134 
L -19 4666 
z
" id="DejaVuSans-54" transform="scale(0.015625)"/>
      <path d="M 603 3500 
L 1178 3500 
L 1178 0 
L 603 0 
L 603 3500 
z
M 603 4863 
L 1178 4863 
L 1178 4134 
L 603 4134 
L 603 4863 
z
" id="DejaVuSans-69" transform="scale(0.015625)"/>
      <path d="M 3513 2113 
L 3513 0 
L 2938 0 
L 2938 2094 
Q 2938 2591 2744 2837 
Q 2550 3084 2163 3084 
Q 1697 3084 1428 2787 
Q 1159 2491 1159 1978 
L 1159 0 
L 581 0 
L 581 3500 
L 1159 3500 
L 1159 2956 
Q 1366 3272 1645 3428 
Q 1925 3584 2291 3584 
Q 2894 3584 3203 3211 
Q 3513 2838 3513 2113 
z
" id="DejaVuSans-6e" transform="scale(0.015625)"/>
      <path d="M 2906 1791 
Q 2906 2416 2648 2759 
Q 2391 3103 1925 3103 
Q 1463 3103 1205 2759 
Q 947 2416 947 1791 
Q 947 1169 1205 825 
Q 1463 481 1925 481 
Q 2391 481 2648 825 
Q 2906 1169 2906 1791 
z
M 3481 434 
Q 3481 -459 3084 -895 
Q 2688 -1331 1869 -1331 
Q 1566 -1331 1297 -1286 
Q 1028 -1241 775 -1147 
L 775 -588 
Q 1028 -725 1275 -790 
Q 1522 -856 1778 -856 
Q 2344 -856 2625 -561 
Q 2906 -266 2906 331 
L 2906 616 
Q 2728 306 2450 153 
Q 2172 0 1784 0 
Q 1141 0 747 490 
Q 353 981 353 1791 
Q 353 2603 747 3093 
Q 1141 3584 1784 3584 
Q 2172 3584 2450 3431 
Q 2728 3278 2906 2969 
L 2906 3500 
L 3481 3500 
L 3481 434 
z
" id="DejaVuSans-67" transform="scale(0.015625)"/>
      <path id="DejaVuSans-20" transform="scale(0.015625)"/>
      <path d="M 2906 2969 
L 2906 4863 
L 3481 4863 
L 3481 0 
L 2906 0 
L 2906 525 
Q 2725 213 2448 61 
Q 2172 -91 1784 -91 
Q 1150 -91 751 415 
Q 353 922 353 1747 
Q 353 2572 751 3078 
Q 1150 3584 1784 3584 
Q 2172 3584 2448 3432 
Q 2725 3281 2906 2969 
z
M 947 1747 
Q 947 1113 1208 752 
Q 1469 391 1925 391 
Q 2381 391 2643 752 
Q 2906 1113 2906 1747 
Q 2906 2381 2643 2742 
Q 2381 3103 1925 3103 
Q 1469 3103 1208 2742 
Q 947 2381 947 1747 
z
" id="DejaVuSans-64" transform="scale(0.015625)"/>
      <path d="M 1831 0 
L 50 4666 
L 709 4666 
L 2188 738 
L 3669 4666 
L 4325 4666 
L 2547 0 
L 1831 0 
z
" id="DejaVuSans-56" transform="scale(0.015625)"/>
      <path d="M 603 4863 
L 1178 4863 
L 1178 0 
L 603 0 
L 603 4863 
z
" id="DejaVuSans-6c" transform="scale(0.015625)"/>
      <path d="M 1172 4494 
L 1172 3500 
L 2356 3500 
L 2356 3053 
L 1172 3053 
L 1172 1153 
Q 1172 725 1289 603 
Q 1406 481 1766 481 
L 2356 481 
L 2356 0 
L 1766 0 
Q 1100 0 847 248 
Q 594 497 594 1153 
L 594 3053 
L 172 3053 
L 172 3500 
L 594 3500 
L 594 4494 
L 1172 4494 
z
" id="DejaVuSans-74" transform="scale(0.015625)"/>
     </defs>
     <use xlink:href="#DejaVuSans-54"/>
     <use x="46.333984" xlink:href="#DejaVuSans-72"/>
     <use x="87.447266" xlink:href="#DejaVuSans-61"/>
     <use x="148.726562" xlink:href="#DejaVuSans-69"/>
     <use x="176.509766" xlink:href="#DejaVuSans-6e"/>
     <use x="239.888672" xlink:href="#DejaVuSans-69"/>
     <use x="267.671875" xlink:href="#DejaVuSans-6e"/>
     <use x="331.050781" xlink:href="#DejaVuSans-67"/>
     <use x="394.527344" xlink:href="#DejaVuSans-20"/>
     <use x="426.314453" xlink:href="#DejaVuSans-61"/>
     <use x="487.59375" xlink:href="#DejaVuSans-6e"/>
     <use x="550.972656" xlink:href="#DejaVuSans-64"/>
     <use x="614.449219" xlink:href="#DejaVuSans-20"/>
     <use x="646.236328" xlink:href="#DejaVuSans-56"/>
     <use x="706.894531" xlink:href="#DejaVuSans-61"/>
     <use x="768.173828" xlink:href="#DejaVuSans-6c"/>
     <use x="795.957031" xlink:href="#DejaVuSans-69"/>
     <use x="823.740234" xlink:href="#DejaVuSans-64"/>
     <use x="887.216797" xlink:href="#DejaVuSans-61"/>
     <use x="948.496094" xlink:href="#DejaVuSans-74"/>
     <use x="987.705078" xlink:href="#DejaVuSans-69"/>
     <use x="1015.488281" xlink:href="#DejaVuSans-6f"/>
     <use x="1076.669922" xlink:href="#DejaVuSans-6e"/>
     <use x="1140.048828" xlink:href="#DejaVuSans-20"/>
     <use x="1171.835938" xlink:href="#DejaVuSans-41"/>
     <use x="1238.494141" xlink:href="#DejaVuSans-63"/>
     <use x="1293.474609" xlink:href="#DejaVuSans-63"/>
     <use x="1348.455078" xlink:href="#DejaVuSans-75"/>
     <use x="1411.833984" xlink:href="#DejaVuSans-72"/>
     <use x="1452.947266" xlink:href="#DejaVuSans-61"/>
     <use x="1514.226562" xlink:href="#DejaVuSans-63"/>
     <use x="1569.207031" xlink:href="#DejaVuSans-79"/>
    </g>
   </g>
   <g id="legend_1">
    <g id="patch_7">
     <path d="M 239.893438 302.584 
L 407.72 302.584 
Q 409.72 302.584 409.72 300.584 
L 409.72 257.549625 
Q 409.72 255.549625 407.72 255.549625 
L 239.893438 255.549625 
Q 237.893438 255.549625 237.893438 257.549625 
L 237.893438 300.584 
Q 237.893438 302.584 239.893438 302.584 
z
" style="fill:#ffffff;opacity:0.8;stroke:#cccccc;stroke-linejoin:miter;"/>
    </g>
    <g id="line2d_22">
     <path d="M 241.893438 263.648062 
L 261.893438 263.648062 
" style="fill:none;stroke:#1f77b4;stroke-linecap:square;stroke-width:1.5;"/>
    </g>
    <g id="line2d_23"/>
    <g id="text_22">
     <!-- Train Accuracy -->
     <g transform="translate(269.893438 267.148062)scale(0.1 -0.1)">
      <use xlink:href="#DejaVuSans-54"/>
      <use x="46.333984" xlink:href="#DejaVuSans-72"/>
      <use x="87.447266" xlink:href="#DejaVuSans-61"/>
      <use x="148.726562" xlink:href="#DejaVuSans-69"/>
      <use x="176.509766" xlink:href="#DejaVuSans-6e"/>
      <use x="239.888672" xlink:href="#DejaVuSans-20"/>
      <use x="271.675781" xlink:href="#DejaVuSans-41"/>
      <use x="338.333984" xlink:href="#DejaVuSans-63"/>
      <use x="393.314453" xlink:href="#DejaVuSans-63"/>
      <use x="448.294922" xlink:href="#DejaVuSans-75"/>
      <use x="511.673828" xlink:href="#DejaVuSans-72"/>
      <use x="552.787109" xlink:href="#DejaVuSans-61"/>
      <use x="614.066406" xlink:href="#DejaVuSans-63"/>
      <use x="669.046875" xlink:href="#DejaVuSans-79"/>
     </g>
    </g>
    <g id="line2d_24">
     <path d="M 241.893438 278.326188 
L 261.893438 278.326188 
" style="fill:none;stroke:#ff7f0e;stroke-linecap:square;stroke-width:1.5;"/>
    </g>
    <g id="line2d_25"/>
    <g id="text_23">
     <!-- Validation Accuracy -->
     <g transform="translate(269.893438 281.826188)scale(0.1 -0.1)">
      <use xlink:href="#DejaVuSans-56"/>
      <use x="60.658203" xlink:href="#DejaVuSans-61"/>
      <use x="121.9375" xlink:href="#DejaVuSans-6c"/>
      <use x="149.720703" xlink:href="#DejaVuSans-69"/>
      <use x="177.503906" xlink:href="#DejaVuSans-64"/>
      <use x="240.980469" xlink:href="#DejaVuSans-61"/>
      <use x="302.259766" xlink:href="#DejaVuSans-74"/>
      <use x="341.46875" xlink:href="#DejaVuSans-69"/>
      <use x="369.251953" xlink:href="#DejaVuSans-6f"/>
      <use x="430.433594" xlink:href="#DejaVuSans-6e"/>
      <use x="493.8125" xlink:href="#DejaVuSans-20"/>
      <use x="525.599609" xlink:href="#DejaVuSans-41"/>
      <use x="592.257812" xlink:href="#DejaVuSans-63"/>
      <use x="647.238281" xlink:href="#DejaVuSans-63"/>
      <use x="702.21875" xlink:href="#DejaVuSans-75"/>
      <use x="765.597656" xlink:href="#DejaVuSans-72"/>
      <use x="806.710938" xlink:href="#DejaVuSans-61"/>
      <use x="867.990234" xlink:href="#DejaVuSans-63"/>
      <use x="922.970703" xlink:href="#DejaVuSans-79"/>
     </g>
    </g>
    <g id="line2d_26">
     <path d="M 241.893438 293.004312 
L 261.893438 293.004312 
" style="fill:none;stroke:#2ca02c;stroke-linecap:square;stroke-width:1.5;"/>
    </g>
    <g id="line2d_27"/>
    <g id="text_24">
     <!-- Robust Validation Accuracy -->
     <g transform="translate(269.893438 296.504312)scale(0.1 -0.1)">
      <defs>
       <path d="M 2841 2188 
Q 3044 2119 3236 1894 
Q 3428 1669 3622 1275 
L 4263 0 
L 3584 0 
L 2988 1197 
Q 2756 1666 2539 1819 
Q 2322 1972 1947 1972 
L 1259 1972 
L 1259 0 
L 628 0 
L 628 4666 
L 2053 4666 
Q 2853 4666 3247 4331 
Q 3641 3997 3641 3322 
Q 3641 2881 3436 2590 
Q 3231 2300 2841 2188 
z
M 1259 4147 
L 1259 2491 
L 2053 2491 
Q 2509 2491 2742 2702 
Q 2975 2913 2975 3322 
Q 2975 3731 2742 3939 
Q 2509 4147 2053 4147 
L 1259 4147 
z
" id="DejaVuSans-52" transform="scale(0.015625)"/>
       <path d="M 3116 1747 
Q 3116 2381 2855 2742 
Q 2594 3103 2138 3103 
Q 1681 3103 1420 2742 
Q 1159 2381 1159 1747 
Q 1159 1113 1420 752 
Q 1681 391 2138 391 
Q 2594 391 2855 752 
Q 3116 1113 3116 1747 
z
M 1159 2969 
Q 1341 3281 1617 3432 
Q 1894 3584 2278 3584 
Q 2916 3584 3314 3078 
Q 3713 2572 3713 1747 
Q 3713 922 3314 415 
Q 2916 -91 2278 -91 
Q 1894 -91 1617 61 
Q 1341 213 1159 525 
L 1159 0 
L 581 0 
L 581 4863 
L 1159 4863 
L 1159 2969 
z
" id="DejaVuSans-62" transform="scale(0.015625)"/>
      </defs>
      <use xlink:href="#DejaVuSans-52"/>
      <use x="64.982422" xlink:href="#DejaVuSans-6f"/>
      <use x="126.164062" xlink:href="#DejaVuSans-62"/>
      <use x="189.640625" xlink:href="#DejaVuSans-75"/>
      <use x="253.019531" xlink:href="#DejaVuSans-73"/>
      <use x="305.119141" xlink:href="#DejaVuSans-74"/>
      <use x="344.328125" xlink:href="#DejaVuSans-20"/>
      <use x="376.115234" xlink:href="#DejaVuSans-56"/>
      <use x="436.773438" xlink:href="#DejaVuSans-61"/>
      <use x="498.052734" xlink:href="#DejaVuSans-6c"/>
      <use x="525.835938" xlink:href="#DejaVuSans-69"/>
      <use x="553.619141" xlink:href="#DejaVuSans-64"/>
      <use x="617.095703" xlink:href="#DejaVuSans-61"/>
      <use x="678.375" xlink:href="#DejaVuSans-74"/>
      <use x="717.583984" xlink:href="#DejaVuSans-69"/>
      <use x="745.367188" xlink:href="#DejaVuSans-6f"/>
      <use x="806.548828" xlink:href="#DejaVuSans-6e"/>
      <use x="869.927734" xlink:href="#DejaVuSans-20"/>
      <use x="901.714844" xlink:href="#DejaVuSans-41"/>
      <use x="968.373047" xlink:href="#DejaVuSans-63"/>
      <use x="1023.353516" xlink:href="#DejaVuSans-63"/>
      <use x="1078.333984" xlink:href="#DejaVuSans-75"/>
      <use x="1141.712891" xlink:href="#DejaVuSans-72"/>
      <use x="1182.826172" xlink:href="#DejaVuSans-61"/>
      <use x="1244.105469" xlink:href="#DejaVuSans-63"/>
      <use x="1299.085938" xlink:href="#DejaVuSans-79"/>
     </g>
    </g>
   </g>
  </g>
 </g>
 <defs>
  <clipPath id="p0fc903e46b">
   <rect height="266.112" width="357.12" x="57.6" y="41.472"/>
  </clipPath>
 </defs>
</svg>
