<?xml version="1.0" encoding="utf-8" standalone="no"?>
<!DOCTYPE svg PUBLIC "-//W3C//DTD SVG 1.1//EN"
  "http://www.w3.org/Graphics/SVG/1.1/DTD/svg11.dtd">
<svg height="345.6pt" version="1.1" viewBox="0 0 460.8 345.6" width="460.8pt" xmlns="http://www.w3.org/2000/svg" xmlns:xlink="http://www.w3.org/1999/xlink">
 <metadata>
  <rdf:RDF xmlns:cc="http://creativecommons.org/ns#" xmlns:dc="http://purl.org/dc/elements/1.1/" xmlns:rdf="http://www.w3.org/1999/02/22-rdf-syntax-ns#">
   <cc:Work>
    <dc:type rdf:resource="http://purl.org/dc/dcmitype/StillImage"/>
    <dc:date>2024-02-05T15:41:33.497533</dc:date>
    <dc:format>image/svg+xml</dc:format>
    <dc:creator>
     <cc:Agent>
      <dc:title>Matplotlib v3.4.3, https://matplotlib.org/</dc:title>
     </cc:Agent>
    </dc:creator>
   </cc:Work>
  </rdf:RDF>
 </metadata>
 <defs>
  <style type="text/css">*{stroke-linecap:butt;stroke-linejoin:round;}</style>
 </defs>
 <g id="figure_1">
  <g id="patch_1">
   <path d="M 0 345.6 
L 460.8 345.6 
L 460.8 0 
L 0 0 
z
" style="fill:#ffffff;"/>
  </g>
  <g id="axes_1">
   <g id="patch_2">
    <path d="M 57.6 307.584 
L 414.72 307.584 
L 414.72 41.472 
L 57.6 41.472 
z
" style="fill:#ffffff;"/>
   </g>
   <g id="matplotlib.axis_1">
    <g id="xtick_1">
     <g id="line2d_1">
      <defs>
       <path d="M 0 0 
L 0 3.5 
" id="mb301262840" style="stroke:#000000;stroke-width:0.8;"/>
      </defs>
      <g>
       <use style="stroke:#000000;stroke-width:0.8;" x="73.832727" xlink:href="#mb301262840" y="307.584"/>
      </g>
     </g>
     <g id="text_1">
      <!-- 1 -->
      <g transform="translate(70.651477 322.182437)scale(0.1 -0.1)">
       <defs>
        <path d="M 794 531 
L 1825 531 
L 1825 4091 
L 703 3866 
L 703 4441 
L 1819 4666 
L 2450 4666 
L 2450 531 
L 3481 531 
L 3481 0 
L 794 0 
L 794 531 
z
" id="DejaVuSans-31" transform="scale(0.015625)"/>
       </defs>
       <use xlink:href="#DejaVuSans-31"/>
      </g>
     </g>
    </g>
    <g id="xtick_2">
     <g id="line2d_2">
      <g>
       <use style="stroke:#000000;stroke-width:0.8;" x="109.710992" xlink:href="#mb301262840" y="307.584"/>
      </g>
     </g>
     <g id="text_2">
      <!-- 42 -->
      <g transform="translate(103.348492 322.182437)scale(0.1 -0.1)">
       <defs>
        <path d="M 2419 4116 
L 825 1625 
L 2419 1625 
L 2419 4116 
z
M 2253 4666 
L 3047 4666 
L 3047 1625 
L 3713 1625 
L 3713 1100 
L 3047 1100 
L 3047 0 
L 2419 0 
L 2419 1100 
L 313 1100 
L 313 1709 
L 2253 4666 
z
" id="DejaVuSans-34" transform="scale(0.015625)"/>
        <path d="M 1228 531 
L 3431 531 
L 3431 0 
L 469 0 
L 469 531 
Q 828 903 1448 1529 
Q 2069 2156 2228 2338 
Q 2531 2678 2651 2914 
Q 2772 3150 2772 3378 
Q 2772 3750 2511 3984 
Q 2250 4219 1831 4219 
Q 1534 4219 1204 4116 
Q 875 4013 500 3803 
L 500 4441 
Q 881 4594 1212 4672 
Q 1544 4750 1819 4750 
Q 2544 4750 2975 4387 
Q 3406 4025 3406 3419 
Q 3406 3131 3298 2873 
Q 3191 2616 2906 2266 
Q 2828 2175 2409 1742 
Q 1991 1309 1228 531 
z
" id="DejaVuSans-32" transform="scale(0.015625)"/>
       </defs>
       <use xlink:href="#DejaVuSans-34"/>
       <use x="63.623047" xlink:href="#DejaVuSans-32"/>
      </g>
     </g>
    </g>
    <g id="xtick_3">
     <g id="line2d_3">
      <g>
       <use style="stroke:#000000;stroke-width:0.8;" x="145.589258" xlink:href="#mb301262840" y="307.584"/>
      </g>
     </g>
     <g id="text_3">
      <!-- 83 -->
      <g transform="translate(139.226758 322.182437)scale(0.1 -0.1)">
       <defs>
        <path d="M 2034 2216 
Q 1584 2216 1326 1975 
Q 1069 1734 1069 1313 
Q 1069 891 1326 650 
Q 1584 409 2034 409 
Q 2484 409 2743 651 
Q 3003 894 3003 1313 
Q 3003 1734 2745 1975 
Q 2488 2216 2034 2216 
z
M 1403 2484 
Q 997 2584 770 2862 
Q 544 3141 544 3541 
Q 544 4100 942 4425 
Q 1341 4750 2034 4750 
Q 2731 4750 3128 4425 
Q 3525 4100 3525 3541 
Q 3525 3141 3298 2862 
Q 3072 2584 2669 2484 
Q 3125 2378 3379 2068 
Q 3634 1759 3634 1313 
Q 3634 634 3220 271 
Q 2806 -91 2034 -91 
Q 1263 -91 848 271 
Q 434 634 434 1313 
Q 434 1759 690 2068 
Q 947 2378 1403 2484 
z
M 1172 3481 
Q 1172 3119 1398 2916 
Q 1625 2713 2034 2713 
Q 2441 2713 2670 2916 
Q 2900 3119 2900 3481 
Q 2900 3844 2670 4047 
Q 2441 4250 2034 4250 
Q 1625 4250 1398 4047 
Q 1172 3844 1172 3481 
z
" id="DejaVuSans-38" transform="scale(0.015625)"/>
        <path d="M 2597 2516 
Q 3050 2419 3304 2112 
Q 3559 1806 3559 1356 
Q 3559 666 3084 287 
Q 2609 -91 1734 -91 
Q 1441 -91 1130 -33 
Q 819 25 488 141 
L 488 750 
Q 750 597 1062 519 
Q 1375 441 1716 441 
Q 2309 441 2620 675 
Q 2931 909 2931 1356 
Q 2931 1769 2642 2001 
Q 2353 2234 1838 2234 
L 1294 2234 
L 1294 2753 
L 1863 2753 
Q 2328 2753 2575 2939 
Q 2822 3125 2822 3475 
Q 2822 3834 2567 4026 
Q 2313 4219 1838 4219 
Q 1578 4219 1281 4162 
Q 984 4106 628 3988 
L 628 4550 
Q 988 4650 1302 4700 
Q 1616 4750 1894 4750 
Q 2613 4750 3031 4423 
Q 3450 4097 3450 3541 
Q 3450 3153 3228 2886 
Q 3006 2619 2597 2516 
z
" id="DejaVuSans-33" transform="scale(0.015625)"/>
       </defs>
       <use xlink:href="#DejaVuSans-38"/>
       <use x="63.623047" xlink:href="#DejaVuSans-33"/>
      </g>
     </g>
    </g>
    <g id="xtick_4">
     <g id="line2d_4">
      <g>
       <use style="stroke:#000000;stroke-width:0.8;" x="181.467523" xlink:href="#mb301262840" y="307.584"/>
      </g>
     </g>
     <g id="text_4">
      <!-- 124 -->
      <g transform="translate(171.923773 322.182437)scale(0.1 -0.1)">
       <use xlink:href="#DejaVuSans-31"/>
       <use x="63.623047" xlink:href="#DejaVuSans-32"/>
       <use x="127.246094" xlink:href="#DejaVuSans-34"/>
      </g>
     </g>
    </g>
    <g id="xtick_5">
     <g id="line2d_5">
      <g>
       <use style="stroke:#000000;stroke-width:0.8;" x="217.345788" xlink:href="#mb301262840" y="307.584"/>
      </g>
     </g>
     <g id="text_5">
      <!-- 165 -->
      <g transform="translate(207.802038 322.182437)scale(0.1 -0.1)">
       <defs>
        <path d="M 2113 2584 
Q 1688 2584 1439 2293 
Q 1191 2003 1191 1497 
Q 1191 994 1439 701 
Q 1688 409 2113 409 
Q 2538 409 2786 701 
Q 3034 994 3034 1497 
Q 3034 2003 2786 2293 
Q 2538 2584 2113 2584 
z
M 3366 4563 
L 3366 3988 
Q 3128 4100 2886 4159 
Q 2644 4219 2406 4219 
Q 1781 4219 1451 3797 
Q 1122 3375 1075 2522 
Q 1259 2794 1537 2939 
Q 1816 3084 2150 3084 
Q 2853 3084 3261 2657 
Q 3669 2231 3669 1497 
Q 3669 778 3244 343 
Q 2819 -91 2113 -91 
Q 1303 -91 875 529 
Q 447 1150 447 2328 
Q 447 3434 972 4092 
Q 1497 4750 2381 4750 
Q 2619 4750 2861 4703 
Q 3103 4656 3366 4563 
z
" id="DejaVuSans-36" transform="scale(0.015625)"/>
        <path d="M 691 4666 
L 3169 4666 
L 3169 4134 
L 1269 4134 
L 1269 2991 
Q 1406 3038 1543 3061 
Q 1681 3084 1819 3084 
Q 2600 3084 3056 2656 
Q 3513 2228 3513 1497 
Q 3513 744 3044 326 
Q 2575 -91 1722 -91 
Q 1428 -91 1123 -41 
Q 819 9 494 109 
L 494 744 
Q 775 591 1075 516 
Q 1375 441 1709 441 
Q 2250 441 2565 725 
Q 2881 1009 2881 1497 
Q 2881 1984 2565 2268 
Q 2250 2553 1709 2553 
Q 1456 2553 1204 2497 
Q 953 2441 691 2322 
L 691 4666 
z
" id="DejaVuSans-35" transform="scale(0.015625)"/>
       </defs>
       <use xlink:href="#DejaVuSans-31"/>
       <use x="63.623047" xlink:href="#DejaVuSans-36"/>
       <use x="127.246094" xlink:href="#DejaVuSans-35"/>
      </g>
     </g>
    </g>
    <g id="xtick_6">
     <g id="line2d_6">
      <g>
       <use style="stroke:#000000;stroke-width:0.8;" x="254.099133" xlink:href="#mb301262840" y="307.584"/>
      </g>
     </g>
     <g id="text_6">
      <!-- 207 -->
      <g transform="translate(244.555383 322.182437)scale(0.1 -0.1)">
       <defs>
        <path d="M 2034 4250 
Q 1547 4250 1301 3770 
Q 1056 3291 1056 2328 
Q 1056 1369 1301 889 
Q 1547 409 2034 409 
Q 2525 409 2770 889 
Q 3016 1369 3016 2328 
Q 3016 3291 2770 3770 
Q 2525 4250 2034 4250 
z
M 2034 4750 
Q 2819 4750 3233 4129 
Q 3647 3509 3647 2328 
Q 3647 1150 3233 529 
Q 2819 -91 2034 -91 
Q 1250 -91 836 529 
Q 422 1150 422 2328 
Q 422 3509 836 4129 
Q 1250 4750 2034 4750 
z
" id="DejaVuSans-30" transform="scale(0.015625)"/>
        <path d="M 525 4666 
L 3525 4666 
L 3525 4397 
L 1831 0 
L 1172 0 
L 2766 4134 
L 525 4134 
L 525 4666 
z
" id="DejaVuSans-37" transform="scale(0.015625)"/>
       </defs>
       <use xlink:href="#DejaVuSans-32"/>
       <use x="63.623047" xlink:href="#DejaVuSans-30"/>
       <use x="127.246094" xlink:href="#DejaVuSans-37"/>
      </g>
     </g>
    </g>
    <g id="xtick_7">
     <g id="line2d_7">
      <g>
       <use style="stroke:#000000;stroke-width:0.8;" x="289.977398" xlink:href="#mb301262840" y="307.584"/>
      </g>
     </g>
     <g id="text_7">
      <!-- 248 -->
      <g transform="translate(280.433648 322.182437)scale(0.1 -0.1)">
       <use xlink:href="#DejaVuSans-32"/>
       <use x="63.623047" xlink:href="#DejaVuSans-34"/>
       <use x="127.246094" xlink:href="#DejaVuSans-38"/>
      </g>
     </g>
    </g>
    <g id="xtick_8">
     <g id="line2d_8">
      <g>
       <use style="stroke:#000000;stroke-width:0.8;" x="325.855663" xlink:href="#mb301262840" y="307.584"/>
      </g>
     </g>
     <g id="text_8">
      <!-- 289 -->
      <g transform="translate(316.311913 322.182437)scale(0.1 -0.1)">
       <defs>
        <path d="M 703 97 
L 703 672 
Q 941 559 1184 500 
Q 1428 441 1663 441 
Q 2288 441 2617 861 
Q 2947 1281 2994 2138 
Q 2813 1869 2534 1725 
Q 2256 1581 1919 1581 
Q 1219 1581 811 2004 
Q 403 2428 403 3163 
Q 403 3881 828 4315 
Q 1253 4750 1959 4750 
Q 2769 4750 3195 4129 
Q 3622 3509 3622 2328 
Q 3622 1225 3098 567 
Q 2575 -91 1691 -91 
Q 1453 -91 1209 -44 
Q 966 3 703 97 
z
M 1959 2075 
Q 2384 2075 2632 2365 
Q 2881 2656 2881 3163 
Q 2881 3666 2632 3958 
Q 2384 4250 1959 4250 
Q 1534 4250 1286 3958 
Q 1038 3666 1038 3163 
Q 1038 2656 1286 2365 
Q 1534 2075 1959 2075 
z
" id="DejaVuSans-39" transform="scale(0.015625)"/>
       </defs>
       <use xlink:href="#DejaVuSans-32"/>
       <use x="63.623047" xlink:href="#DejaVuSans-38"/>
       <use x="127.246094" xlink:href="#DejaVuSans-39"/>
      </g>
     </g>
    </g>
    <g id="xtick_9">
     <g id="line2d_9">
      <g>
       <use style="stroke:#000000;stroke-width:0.8;" x="361.733928" xlink:href="#mb301262840" y="307.584"/>
      </g>
     </g>
     <g id="text_9">
      <!-- 330 -->
      <g transform="translate(352.190178 322.182437)scale(0.1 -0.1)">
       <use xlink:href="#DejaVuSans-33"/>
       <use x="63.623047" xlink:href="#DejaVuSans-33"/>
       <use x="127.246094" xlink:href="#DejaVuSans-30"/>
      </g>
     </g>
    </g>
    <g id="xtick_10">
     <g id="line2d_10">
      <g>
       <use style="stroke:#000000;stroke-width:0.8;" x="398.487273" xlink:href="#mb301262840" y="307.584"/>
      </g>
     </g>
     <g id="text_10">
      <!-- 372 -->
      <g transform="translate(388.943523 322.182437)scale(0.1 -0.1)">
       <use xlink:href="#DejaVuSans-33"/>
       <use x="63.623047" xlink:href="#DejaVuSans-37"/>
       <use x="127.246094" xlink:href="#DejaVuSans-32"/>
      </g>
     </g>
    </g>
    <g id="text_11">
     <!-- Epochs -->
     <g transform="translate(218.244375 335.860562)scale(0.1 -0.1)">
      <defs>
       <path d="M 628 4666 
L 3578 4666 
L 3578 4134 
L 1259 4134 
L 1259 2753 
L 3481 2753 
L 3481 2222 
L 1259 2222 
L 1259 531 
L 3634 531 
L 3634 0 
L 628 0 
L 628 4666 
z
" id="DejaVuSans-45" transform="scale(0.015625)"/>
       <path d="M 1159 525 
L 1159 -1331 
L 581 -1331 
L 581 3500 
L 1159 3500 
L 1159 2969 
Q 1341 3281 1617 3432 
Q 1894 3584 2278 3584 
Q 2916 3584 3314 3078 
Q 3713 2572 3713 1747 
Q 3713 922 3314 415 
Q 2916 -91 2278 -91 
Q 1894 -91 1617 61 
Q 1341 213 1159 525 
z
M 3116 1747 
Q 3116 2381 2855 2742 
Q 2594 3103 2138 3103 
Q 1681 3103 1420 2742 
Q 1159 2381 1159 1747 
Q 1159 1113 1420 752 
Q 1681 391 2138 391 
Q 2594 391 2855 752 
Q 3116 1113 3116 1747 
z
" id="DejaVuSans-70" transform="scale(0.015625)"/>
       <path d="M 1959 3097 
Q 1497 3097 1228 2736 
Q 959 2375 959 1747 
Q 959 1119 1226 758 
Q 1494 397 1959 397 
Q 2419 397 2687 759 
Q 2956 1122 2956 1747 
Q 2956 2369 2687 2733 
Q 2419 3097 1959 3097 
z
M 1959 3584 
Q 2709 3584 3137 3096 
Q 3566 2609 3566 1747 
Q 3566 888 3137 398 
Q 2709 -91 1959 -91 
Q 1206 -91 779 398 
Q 353 888 353 1747 
Q 353 2609 779 3096 
Q 1206 3584 1959 3584 
z
" id="DejaVuSans-6f" transform="scale(0.015625)"/>
       <path d="M 3122 3366 
L 3122 2828 
Q 2878 2963 2633 3030 
Q 2388 3097 2138 3097 
Q 1578 3097 1268 2742 
Q 959 2388 959 1747 
Q 959 1106 1268 751 
Q 1578 397 2138 397 
Q 2388 397 2633 464 
Q 2878 531 3122 666 
L 3122 134 
Q 2881 22 2623 -34 
Q 2366 -91 2075 -91 
Q 1284 -91 818 406 
Q 353 903 353 1747 
Q 353 2603 823 3093 
Q 1294 3584 2113 3584 
Q 2378 3584 2631 3529 
Q 2884 3475 3122 3366 
z
" id="DejaVuSans-63" transform="scale(0.015625)"/>
       <path d="M 3513 2113 
L 3513 0 
L 2938 0 
L 2938 2094 
Q 2938 2591 2744 2837 
Q 2550 3084 2163 3084 
Q 1697 3084 1428 2787 
Q 1159 2491 1159 1978 
L 1159 0 
L 581 0 
L 581 4863 
L 1159 4863 
L 1159 2956 
Q 1366 3272 1645 3428 
Q 1925 3584 2291 3584 
Q 2894 3584 3203 3211 
Q 3513 2838 3513 2113 
z
" id="DejaVuSans-68" transform="scale(0.015625)"/>
       <path d="M 2834 3397 
L 2834 2853 
Q 2591 2978 2328 3040 
Q 2066 3103 1784 3103 
Q 1356 3103 1142 2972 
Q 928 2841 928 2578 
Q 928 2378 1081 2264 
Q 1234 2150 1697 2047 
L 1894 2003 
Q 2506 1872 2764 1633 
Q 3022 1394 3022 966 
Q 3022 478 2636 193 
Q 2250 -91 1575 -91 
Q 1294 -91 989 -36 
Q 684 19 347 128 
L 347 722 
Q 666 556 975 473 
Q 1284 391 1588 391 
Q 1994 391 2212 530 
Q 2431 669 2431 922 
Q 2431 1156 2273 1281 
Q 2116 1406 1581 1522 
L 1381 1569 
Q 847 1681 609 1914 
Q 372 2147 372 2553 
Q 372 3047 722 3315 
Q 1072 3584 1716 3584 
Q 2034 3584 2315 3537 
Q 2597 3491 2834 3397 
z
" id="DejaVuSans-73" transform="scale(0.015625)"/>
      </defs>
      <use xlink:href="#DejaVuSans-45"/>
      <use x="63.183594" xlink:href="#DejaVuSans-70"/>
      <use x="126.660156" xlink:href="#DejaVuSans-6f"/>
      <use x="187.841797" xlink:href="#DejaVuSans-63"/>
      <use x="242.822266" xlink:href="#DejaVuSans-68"/>
      <use x="306.201172" xlink:href="#DejaVuSans-73"/>
     </g>
    </g>
   </g>
   <g id="matplotlib.axis_2">
    <g id="ytick_1">
     <g id="line2d_11">
      <defs>
       <path d="M 0 0 
L -3.5 0 
" id="m62fff11de8" style="stroke:#000000;stroke-width:0.8;"/>
      </defs>
      <g>
       <use style="stroke:#000000;stroke-width:0.8;" x="57.6" xlink:href="#m62fff11de8" y="278.236497"/>
      </g>
     </g>
     <g id="text_12">
      <!-- 10 -->
      <g transform="translate(37.875 282.035715)scale(0.1 -0.1)">
       <use xlink:href="#DejaVuSans-31"/>
       <use x="63.623047" xlink:href="#DejaVuSans-30"/>
      </g>
     </g>
    </g>
    <g id="ytick_2">
     <g id="line2d_12">
      <g>
       <use style="stroke:#000000;stroke-width:0.8;" x="57.6" xlink:href="#m62fff11de8" y="246.062861"/>
      </g>
     </g>
     <g id="text_13">
      <!-- 20 -->
      <g transform="translate(37.875 249.86208)scale(0.1 -0.1)">
       <use xlink:href="#DejaVuSans-32"/>
       <use x="63.623047" xlink:href="#DejaVuSans-30"/>
      </g>
     </g>
    </g>
    <g id="ytick_3">
     <g id="line2d_13">
      <g>
       <use style="stroke:#000000;stroke-width:0.8;" x="57.6" xlink:href="#m62fff11de8" y="213.889226"/>
      </g>
     </g>
     <g id="text_14">
      <!-- 30 -->
      <g transform="translate(37.875 217.688444)scale(0.1 -0.1)">
       <use xlink:href="#DejaVuSans-33"/>
       <use x="63.623047" xlink:href="#DejaVuSans-30"/>
      </g>
     </g>
    </g>
    <g id="ytick_4">
     <g id="line2d_14">
      <g>
       <use style="stroke:#000000;stroke-width:0.8;" x="57.6" xlink:href="#m62fff11de8" y="181.71559"/>
      </g>
     </g>
     <g id="text_15">
      <!-- 40 -->
      <g transform="translate(37.875 185.514809)scale(0.1 -0.1)">
       <use xlink:href="#DejaVuSans-34"/>
       <use x="63.623047" xlink:href="#DejaVuSans-30"/>
      </g>
     </g>
    </g>
    <g id="ytick_5">
     <g id="line2d_15">
      <g>
       <use style="stroke:#000000;stroke-width:0.8;" x="57.6" xlink:href="#m62fff11de8" y="149.541955"/>
      </g>
     </g>
     <g id="text_16">
      <!-- 50 -->
      <g transform="translate(37.875 153.341173)scale(0.1 -0.1)">
       <use xlink:href="#DejaVuSans-35"/>
       <use x="63.623047" xlink:href="#DejaVuSans-30"/>
      </g>
     </g>
    </g>
    <g id="ytick_6">
     <g id="line2d_16">
      <g>
       <use style="stroke:#000000;stroke-width:0.8;" x="57.6" xlink:href="#m62fff11de8" y="117.368319"/>
      </g>
     </g>
     <g id="text_17">
      <!-- 60 -->
      <g transform="translate(37.875 121.167538)scale(0.1 -0.1)">
       <use xlink:href="#DejaVuSans-36"/>
       <use x="63.623047" xlink:href="#DejaVuSans-30"/>
      </g>
     </g>
    </g>
    <g id="ytick_7">
     <g id="line2d_17">
      <g>
       <use style="stroke:#000000;stroke-width:0.8;" x="57.6" xlink:href="#m62fff11de8" y="85.194684"/>
      </g>
     </g>
     <g id="text_18">
      <!-- 70 -->
      <g transform="translate(37.875 88.993902)scale(0.1 -0.1)">
       <use xlink:href="#DejaVuSans-37"/>
       <use x="63.623047" xlink:href="#DejaVuSans-30"/>
      </g>
     </g>
    </g>
    <g id="ytick_8">
     <g id="line2d_18">
      <g>
       <use style="stroke:#000000;stroke-width:0.8;" x="57.6" xlink:href="#m62fff11de8" y="53.021048"/>
      </g>
     </g>
     <g id="text_19">
      <!-- 80 -->
      <g transform="translate(37.875 56.820267)scale(0.1 -0.1)">
       <use xlink:href="#DejaVuSans-38"/>
       <use x="63.623047" xlink:href="#DejaVuSans-30"/>
      </g>
     </g>
    </g>
    <g id="text_20">
     <!-- Accuracy -->
     <g transform="translate(31.795312 197.356125)rotate(-90)scale(0.1 -0.1)">
      <defs>
       <path d="M 2188 4044 
L 1331 1722 
L 3047 1722 
L 2188 4044 
z
M 1831 4666 
L 2547 4666 
L 4325 0 
L 3669 0 
L 3244 1197 
L 1141 1197 
L 716 0 
L 50 0 
L 1831 4666 
z
" id="DejaVuSans-41" transform="scale(0.015625)"/>
       <path d="M 544 1381 
L 544 3500 
L 1119 3500 
L 1119 1403 
Q 1119 906 1312 657 
Q 1506 409 1894 409 
Q 2359 409 2629 706 
Q 2900 1003 2900 1516 
L 2900 3500 
L 3475 3500 
L 3475 0 
L 2900 0 
L 2900 538 
Q 2691 219 2414 64 
Q 2138 -91 1772 -91 
Q 1169 -91 856 284 
Q 544 659 544 1381 
z
M 1991 3584 
L 1991 3584 
z
" id="DejaVuSans-75" transform="scale(0.015625)"/>
       <path d="M 2631 2963 
Q 2534 3019 2420 3045 
Q 2306 3072 2169 3072 
Q 1681 3072 1420 2755 
Q 1159 2438 1159 1844 
L 1159 0 
L 581 0 
L 581 3500 
L 1159 3500 
L 1159 2956 
Q 1341 3275 1631 3429 
Q 1922 3584 2338 3584 
Q 2397 3584 2469 3576 
Q 2541 3569 2628 3553 
L 2631 2963 
z
" id="DejaVuSans-72" transform="scale(0.015625)"/>
       <path d="M 2194 1759 
Q 1497 1759 1228 1600 
Q 959 1441 959 1056 
Q 959 750 1161 570 
Q 1363 391 1709 391 
Q 2188 391 2477 730 
Q 2766 1069 2766 1631 
L 2766 1759 
L 2194 1759 
z
M 3341 1997 
L 3341 0 
L 2766 0 
L 2766 531 
Q 2569 213 2275 61 
Q 1981 -91 1556 -91 
Q 1019 -91 701 211 
Q 384 513 384 1019 
Q 384 1609 779 1909 
Q 1175 2209 1959 2209 
L 2766 2209 
L 2766 2266 
Q 2766 2663 2505 2880 
Q 2244 3097 1772 3097 
Q 1472 3097 1187 3025 
Q 903 2953 641 2809 
L 641 3341 
Q 956 3463 1253 3523 
Q 1550 3584 1831 3584 
Q 2591 3584 2966 3190 
Q 3341 2797 3341 1997 
z
" id="DejaVuSans-61" transform="scale(0.015625)"/>
       <path d="M 2059 -325 
Q 1816 -950 1584 -1140 
Q 1353 -1331 966 -1331 
L 506 -1331 
L 506 -850 
L 844 -850 
Q 1081 -850 1212 -737 
Q 1344 -625 1503 -206 
L 1606 56 
L 191 3500 
L 800 3500 
L 1894 763 
L 2988 3500 
L 3597 3500 
L 2059 -325 
z
" id="DejaVuSans-79" transform="scale(0.015625)"/>
      </defs>
      <use xlink:href="#DejaVuSans-41"/>
      <use x="66.658203" xlink:href="#DejaVuSans-63"/>
      <use x="121.638672" xlink:href="#DejaVuSans-63"/>
      <use x="176.619141" xlink:href="#DejaVuSans-75"/>
      <use x="239.998047" xlink:href="#DejaVuSans-72"/>
      <use x="281.111328" xlink:href="#DejaVuSans-61"/>
      <use x="342.390625" xlink:href="#DejaVuSans-63"/>
      <use x="397.371094" xlink:href="#DejaVuSans-79"/>
     </g>
    </g>
   </g>
   <g id="line2d_19">
    <path clip-path="url(#pcbf8690cb5)" d="M 73.832727 295.488 
L 74.707807 285.475565 
L 75.582887 277.065376 
L 76.457966 270.514824 
L 77.333046 261.422555 
L 78.208125 257.29146 
L 79.083205 252.143678 
L 80.833364 235.567821 
L 81.708444 228.669794 
L 82.583524 224.583742 
L 83.458603 227.479369 
L 84.333683 244.479918 
L 85.208763 234.589743 
L 86.083842 233.013235 
L 86.958922 228.225798 
L 87.834001 222.51176 
L 88.709081 214.062963 
L 89.584161 215.420691 
L 90.45924 209.751696 
L 91.33432 206.907547 
L 92.2094 205.035041 
L 93.084479 199.443263 
L 93.959559 200.479254 
L 94.834639 198.175622 
L 95.709718 193.832181 
L 96.584798 187.809277 
L 97.459877 184.006353 
L 98.334957 181.02064 
L 100.085116 180.158386 
L 100.960196 174.116177 
L 101.835276 167.09589 
L 102.710355 171.896197 
L 103.585435 177.475105 
L 104.460515 172.719842 
L 105.335594 203.104623 
L 106.210674 195.99425 
L 107.085753 195.299299 
L 107.960833 190.106474 
L 108.835913 192.770451 
L 109.710992 184.772086 
L 110.586072 186.515897 
L 111.461152 180.891945 
L 112.336231 185.093822 
L 113.211311 176.027291 
L 114.086391 175.718425 
L 114.96147 175.988683 
L 115.83655 174.212698 
L 116.71163 168.151185 
L 117.586709 168.292749 
L 118.461789 166.832066 
L 119.336868 164.258176 
L 120.211948 160.912117 
L 121.087028 169.81778 
L 121.962107 162.501495 
L 122.837187 163.987917 
L 123.712267 159.297001 
L 124.587346 158.363966 
L 125.462426 147.811013 
L 126.337506 150.333426 
L 127.212585 152.341061 
L 128.087665 156.008855 
L 128.962744 148.493094 
L 129.837824 145.848421 
L 130.712904 153.943308 
L 131.587983 158.222402 
L 133.338143 145.629641 
L 134.213222 142.412277 
L 135.088302 141.170375 
L 135.963382 137.058584 
L 136.838461 139.072654 
L 137.713541 144.992603 
L 138.58862 139.696822 
L 139.4637 137.708492 
L 140.33878 136.202765 
L 141.213859 141.39559 
L 142.088939 123.146704 
L 142.964019 138.429181 
L 143.839098 139.593867 
L 144.714178 141.504981 
L 145.589258 131.299503 
L 146.464337 131.473241 
L 147.339417 158.595616 
L 148.214496 163.524617 
L 149.089576 156.02816 
L 149.964656 160.307253 
L 150.839735 160.590381 
L 151.714815 156.47859 
L 152.589895 156.388504 
L 153.464974 149.863691 
L 154.340054 160.854205 
L 155.215134 153.647311 
L 156.090213 149.52265 
L 156.965293 156.24694 
L 157.840372 157.031977 
L 158.715452 156.105376 
L 159.590532 152.617754 
L 160.465611 150.738814 
L 161.340691 152.424712 
L 162.215771 151.06055 
L 163.09085 150.565076 
L 163.96593 153.248357 
L 164.84101 150.996203 
L 165.716089 151.157071 
L 166.591169 143.699222 
L 167.466248 142.341495 
L 168.341328 139.458737 
L 169.216408 148.403008 
L 170.091487 146.054333 
L 170.966567 145.172775 
L 171.841647 142.521667 
L 172.716726 146.298852 
L 174.466886 137.451102 
L 175.341965 134.060001 
L 176.217045 142.45732 
L 177.092124 143.512615 
L 177.967204 131.537588 
L 178.842284 134.285217 
L 179.717363 138.886047 
L 180.592443 139.310739 
L 181.467523 140.468989 
L 183.217682 134.362433 
L 184.092762 128.905785 
L 184.967841 126.100244 
L 185.842921 130.450119 
L 186.718 121.846889 
L 187.59308 123.841655 
L 188.46816 127.60597 
L 189.343239 127.322842 
L 191.093399 121.621674 
L 191.968478 125.630509 
L 192.843558 127.380755 
L 193.718638 125.540423 
L 194.593717 122.046366 
L 195.468797 130.42438 
L 196.343877 122.387406 
L 197.218956 119.092826 
L 198.094036 121.023244 
L 198.969115 128.983002 
L 199.844195 116.827802 
L 200.719275 101.751237 
L 201.594354 107.529621 
L 202.469434 111.622108 
L 203.344514 116.962931 
L 204.219593 109.826819 
L 205.094673 120.54064 
L 205.969753 109.138303 
L 206.844832 103.314875 
L 207.719912 119.202216 
L 208.594991 120.154556 
L 209.470071 113.887132 
L 210.345151 104.73695 
L 211.22023 101.165676 
L 212.09531 110.75342 
L 212.97039 113.301572 
L 213.845469 117.143104 
L 214.720549 110.592552 
L 215.595629 107.330145 
L 216.470708 115.360684 
L 217.345788 112.130451 
L 218.220867 99.441169 
L 219.095947 101.532456 
L 219.971027 113.552526 
L 220.846106 109.234824 
L 221.721186 92.601055 
L 222.596266 99.769341 
L 223.471345 104.460257 
L 224.346425 100.084642 
L 225.221505 102.697141 
L 226.096584 106.673803 
L 226.971664 100.946896 
L 227.846743 105.695724 
L 228.721823 93.913739 
L 229.596903 103.250528 
L 230.471982 109.865427 
L 231.347062 138.249009 
L 232.222142 140.134384 
L 233.097221 136.177026 
L 233.972301 135.919637 
L 234.847381 131.479676 
L 235.72246 135.475641 
L 236.59754 135.932507 
L 237.472619 128.751351 
L 238.347699 130.849072 
L 239.222779 138.615788 
L 240.097858 135.507815 
L 240.972938 125.920071 
L 241.848018 142.804795 
L 242.723097 130.610988 
L 243.598177 138.191096 
L 245.348336 128.165791 
L 246.223416 136.337895 
L 247.098495 146.421112 
L 247.973575 125.559727 
L 248.848655 134.838603 
L 250.598814 127.245625 
L 251.473894 131.350981 
L 252.348973 128.352398 
L 253.224053 131.183678 
L 254.099133 138.133184 
L 254.974212 129.047349 
L 255.849292 127.02041 
L 256.724371 121.82115 
L 257.599451 128.950828 
L 258.474531 127.657448 
L 259.34961 122.870011 
L 260.22469 130.385772 
L 261.09977 133.139835 
L 261.974849 119.517518 
L 262.849929 134.381738 
L 263.725009 118.88048 
L 264.600088 130.392207 
L 265.475168 125.263729 
L 266.350247 130.379337 
L 267.225327 122.18793 
L 268.100407 126.447719 
L 268.975486 128.596918 
L 269.850566 124.105478 
L 270.725646 129.529953 
L 271.600725 131.685587 
L 272.475805 121.1262 
L 273.350885 120.54064 
L 274.225964 125.643378 
L 275.101044 124.272781 
L 275.976123 114.067304 
L 276.851203 119.813515 
L 277.726283 120.88168 
L 278.601362 123.268964 
L 279.476442 120.231773 
L 280.351522 122.335929 
L 281.226601 121.505849 
L 282.101681 114.968166 
L 282.976761 116.41598 
L 283.85184 113.623308 
L 284.72692 125.60477 
L 285.602 116.222938 
L 286.477079 112.728881 
L 287.352159 110.483161 
L 288.227238 118.005357 
L 289.102318 118.507266 
L 289.977398 118.835437 
L 290.852477 123.455571 
L 291.727557 118.037531 
L 292.602637 115.129034 
L 293.477716 119.813515 
L 294.352796 115.952679 
L 295.227876 119.324476 
L 296.978035 110.61829 
L 297.853114 117.522753 
L 299.603274 120.823768 
L 300.478353 116.068504 
L 301.353433 105.631377 
L 302.228513 109.266998 
L 303.103592 114.890949 
L 303.978672 111.178112 
L 304.853752 113.46244 
L 305.728831 111.930975 
L 306.603911 116.41598 
L 307.47899 106.242676 
L 308.35407 117.986053 
L 309.22915 100.95333 
L 310.104229 116.184329 
L 310.979309 111.281067 
L 311.854389 113.134269 
L 312.729468 116.422414 
L 313.604548 112.272015 
L 314.479628 98.160659 
L 315.354707 109.601604 
L 316.229787 110.463857 
L 317.104866 107.748402 
L 317.979946 106.976235 
L 318.855026 101.706193 
L 319.730105 106.448587 
L 320.605185 113.5847 
L 322.355344 100.863244 
L 323.230424 111.197416 
L 324.105504 99.704993 
L 324.980583 103.55296 
L 325.855663 98.990739 
L 326.730742 95.174945 
L 327.605822 104.666168 
L 328.480902 104.157824 
L 329.355981 96.790062 
L 330.231061 103.739567 
L 331.106141 100.850375 
L 331.98122 102.169494 
L 332.8563 102.870879 
L 333.73138 100.24551 
L 334.606459 103.765306 
L 336.356618 91.429934 
L 337.231698 102.394709 
L 338.106778 97.755271 
L 338.981857 94.962599 
L 339.856937 97.298405 
L 340.732017 92.742619 
L 341.607096 93.456873 
L 342.482176 97.954748 
L 343.357256 92.150624 
L 344.232335 95.239293 
L 345.107415 90.638463 
L 345.982494 97.041016 
L 346.857574 108.675003 
L 347.732654 91.539325 
L 348.607733 94.47356 
L 349.482813 98.900652 
L 350.357893 93.514786 
L 351.232972 102.60062 
L 352.108052 90.741418 
L 352.983132 99.608472 
L 353.858211 91.4235 
L 354.733291 88.817435 
L 355.60837 95.64468 
L 356.48345 97.941878 
L 357.35853 91.198284 
L 358.233609 86.706845 
L 359.108689 97.710228 
L 359.983769 85.812417 
L 360.858848 78.515437 
L 361.733928 87.356752 
L 362.609008 92.967834 
L 363.484087 94.698776 
L 364.359167 82.691575 
L 365.234247 83.483046 
L 366.109326 91.571498 
L 366.984406 89.937078 
L 367.859485 93.257397 
L 368.734565 84.293822 
L 370.484724 93.064355 
L 371.359804 91.809583 
L 372.234884 90.870113 
L 373.109963 91.938278 
L 373.985043 80.516637 
L 374.860123 89.209953 
L 375.735202 91.468543 
L 376.610282 90.329596 
L 377.485361 95.947113 
L 378.360441 78.830739 
L 379.235521 90.188032 
L 380.1106 98.617524 
L 380.98568 82.228274 
L 381.86076 90.522638 
L 382.735839 81.243761 
L 383.610919 87.910139 
L 384.485999 90.70281 
L 385.361078 83.315743 
L 386.236158 79.969685 
L 387.111237 86.11485 
L 387.986317 79.750905 
L 388.861397 91.970451 
L 389.736476 85.111032 
L 390.611556 82.92966 
L 391.486636 88.199701 
L 392.361715 80.001859 
L 393.236795 88.843174 
L 394.111875 91.668019 
L 394.986954 84.293822 
L 395.862034 79.442038 
L 396.737113 88.257614 
L 397.612193 82.324795 
L 398.487273 82.395577 
L 398.487273 82.395577 
" style="fill:none;stroke:#1f77b4;stroke-linecap:square;stroke-width:1.5;"/>
   </g>
   <g id="line2d_20">
    <path clip-path="url(#pcbf8690cb5)" d="M 73.832727 284.703397 
L 74.707807 277.464329 
L 75.582887 261.474033 
L 76.457966 257.64537 
L 78.208125 223.090885 
L 79.083205 226.469117 
L 79.958285 197.99545 
L 80.833364 190.434645 
L 82.583524 183.549487 
L 83.458603 174.959127 
L 84.333683 220.259605 
L 85.208763 208.162319 
L 86.083842 183.967745 
L 86.958922 203.529315 
L 87.834001 172.16002 
L 88.709081 180.975597 
L 89.584161 169.457435 
L 90.45924 169.328741 
L 91.33432 150.635858 
L 92.2094 144.040263 
L 93.084479 148.255009 
L 93.959559 146.388938 
L 94.834639 135.51425 
L 95.709718 134.130783 
L 96.584798 128.08214 
L 97.459877 120.810898 
L 98.334957 118.011792 
L 99.210037 116.596152 
L 100.085116 115.405727 
L 100.960196 109.710994 
L 101.835276 106.171894 
L 102.710355 106.236241 
L 103.585435 106.429283 
L 104.460515 106.011026 
L 105.335594 148.576746 
L 106.210674 157.971447 
L 107.085753 157.360148 
L 107.960833 139.728996 
L 108.835913 129.240391 
L 109.710992 141.241157 
L 110.586072 134.420346 
L 111.461152 120.585683 
L 112.336231 117.271798 
L 113.211311 119.363085 
L 114.086391 117.625708 
L 114.96147 120.070905 
L 115.83655 117.303972 
L 116.71163 110.74055 
L 117.586709 110.676203 
L 118.461789 105.78581 
L 119.336868 102.761489 
L 120.211948 107.040582 
L 121.087028 100.058903 
L 121.962107 101.313675 
L 122.837187 97.098929 
L 123.712267 101.764106 
L 124.587346 96.326762 
L 125.462426 95.4259 
L 126.337506 95.940678 
L 127.212585 89.087694 
L 128.087665 92.433752 
L 128.962744 89.666819 
L 129.837824 84.486864 
L 130.712904 83.586002 
L 131.587983 84.712079 
L 132.463063 83.939912 
L 133.338143 81.62341 
L 134.213222 80.593854 
L 135.088302 79.210387 
L 135.963382 78.856477 
L 136.838461 78.180831 
L 137.713541 77.987789 
L 138.58862 75.124336 
L 139.4637 74.319995 
L 140.33878 74.931294 
L 141.213859 74.995641 
L 142.088939 72.035667 
L 142.964019 71.681757 
L 143.839098 71.97132 
L 144.714178 74.480863 
L 145.589258 72.293056 
L 146.464337 72.228709 
L 147.339417 109.067521 
L 148.214496 108.456222 
L 149.089576 111.609238 
L 149.964656 105.78581 
L 150.839735 101.79628 
L 151.714815 101.313675 
L 152.589895 99.351083 
L 153.464974 96.423282 
L 154.340054 98.997173 
L 155.215134 102.85801 
L 156.090213 95.168511 
L 156.965293 94.589385 
L 157.840372 102.15019 
L 158.715452 92.94853 
L 159.590532 93.173745 
L 160.465611 95.265032 
L 161.340691 95.297205 
L 162.215771 92.59462 
L 163.09085 90.406813 
L 163.96593 89.666819 
L 164.84101 93.527655 
L 165.716089 95.844157 
L 166.591169 91.565064 
L 167.466248 93.688523 
L 168.341328 100.219771 
L 169.216408 89.023346 
L 170.091487 86.803365 
L 170.966567 83.135571 
L 171.841647 89.05552 
L 172.716726 82.68514 
L 173.591806 87.028581 
L 174.466886 83.907738 
L 175.341965 83.489481 
L 176.217045 83.650349 
L 177.092124 82.942529 
L 177.967204 86.22424 
L 178.842284 81.880799 
L 179.717363 81.2695 
L 180.592443 79.435603 
L 181.467523 79.628645 
L 182.342602 79.274735 
L 183.217682 77.7304 
L 184.092762 80.56168 
L 184.967841 77.537358 
L 185.842921 76.186066 
L 186.718 80.593854 
L 187.59308 79.85386 
L 189.343239 72.035667 
L 190.218319 71.906972 
L 191.093399 70.233943 
L 191.968478 76.861712 
L 192.843558 71.327847 
L 193.718638 72.260882 
L 195.468797 68.367872 
L 196.343877 68.367872 
L 197.218956 70.29829 
L 198.094036 68.303525 
L 198.969115 68.43222 
L 199.844195 69.172213 
L 200.719275 67.01658 
L 201.594354 66.405281 
L 202.469434 64.860946 
L 203.344514 65.729634 
L 204.219593 62.994875 
L 205.094673 65.279203 
L 205.969753 65.150509 
L 206.844832 62.608792 
L 207.719912 64.1853 
L 208.594991 62.222708 
L 209.470071 61.997492 
L 210.345151 62.76966 
L 211.22023 61.128804 
L 212.09531 61.547062 
L 212.97039 62.480097 
L 213.845469 60.710547 
L 214.720549 62.190534 
L 215.595629 60.614026 
L 216.470708 61.160978 
L 217.345788 60.678373 
L 218.220867 59.487949 
L 219.095947 60.453158 
L 219.971027 60.807068 
L 220.846106 59.520123 
L 221.721186 59.616643 
L 224.346425 58.812303 
L 225.221505 58.940997 
L 226.096584 58.104483 
L 226.971664 57.911441 
L 227.846743 58.297524 
L 228.721823 58.329698 
L 229.596903 58.747955 
L 230.471982 59.294907 
L 231.347062 99.286736 
L 232.222142 87.897269 
L 233.972301 92.337231 
L 234.847381 91.53289 
L 235.72246 85.999025 
L 236.59754 100.091077 
L 237.472619 89.05552 
L 238.347699 91.404195 
L 239.222779 88.315526 
L 240.097858 84.776426 
L 240.972938 95.07199 
L 241.848018 88.572915 
L 242.723097 85.065989 
L 243.598177 86.417282 
L 244.473257 89.40943 
L 245.348336 81.398195 
L 246.223416 78.309526 
L 247.098495 87.060755 
L 247.973575 85.773809 
L 248.848655 86.22424 
L 249.723734 83.39296 
L 250.598814 86.22424 
L 251.473894 81.945147 
L 252.348973 83.360786 
L 253.224053 81.848626 
L 254.099133 82.878182 
L 254.974212 75.832156 
L 255.849292 81.816452 
L 256.724371 80.626027 
L 257.599451 85.323378 
L 258.474531 85.51642 
L 259.34961 78.373873 
L 260.22469 78.888651 
L 261.09977 85.51642 
L 261.974849 83.457307 
L 262.849929 84.036433 
L 263.725009 78.856477 
L 264.600088 76.636497 
L 265.475168 80.851243 
L 266.350247 77.891268 
L 267.225327 79.596471 
L 268.100407 75.928677 
L 268.975486 81.655584 
L 269.850566 80.497333 
L 270.725646 81.044285 
L 271.600725 75.896503 
L 272.475805 78.309526 
L 273.350885 79.14604 
L 274.225964 72.807834 
L 275.101044 73.226091 
L 275.976123 77.408664 
L 276.851203 72.872181 
L 277.726283 77.247796 
L 278.601362 80.239944 
L 279.476442 72.614792 
L 280.351522 79.692992 
L 281.226601 77.02258 
L 282.101681 73.12957 
L 282.976761 73.515654 
L 283.85184 74.126953 
L 284.72692 74.416516 
L 285.602 73.966085 
L 286.477079 75.188683 
L 287.352159 74.159127 
L 288.227238 74.577384 
L 289.102318 77.37649 
L 289.977398 70.55568 
L 290.852477 73.48348 
L 291.727557 79.403429 
L 292.602637 72.518271 
L 293.477716 76.893886 
L 294.352796 71.906972 
L 295.227876 71.00611 
L 296.102955 69.558297 
L 296.978035 72.679139 
L 297.853114 74.931294 
L 298.728194 72.325229 
L 299.603274 72.42175 
L 300.478353 70.491332 
L 301.353433 72.936529 
L 302.228513 68.818303 
L 303.103592 72.872181 
L 303.978672 72.807834 
L 304.853752 69.686991 
L 305.728831 69.461776 
L 306.603911 72.100014 
L 307.47899 68.88265 
L 308.35407 71.102631 
L 309.22915 70.941763 
L 310.104229 68.239178 
L 310.979309 71.906972 
L 311.854389 71.231326 
L 312.729468 68.400046 
L 313.604548 68.528741 
L 314.479628 65.793981 
L 315.354707 66.212239 
L 316.229787 65.858329 
L 317.104866 66.244412 
L 317.979946 66.823538 
L 318.855026 68.239178 
L 319.730105 65.214856 
L 320.605185 67.692226 
L 321.480265 65.343551 
L 322.355344 64.410515 
L 323.230424 62.705312 
L 324.105504 66.180065 
L 324.980583 66.920059 
L 325.855663 65.440071 
L 326.730742 64.410515 
L 327.605822 65.536592 
L 328.480902 65.568766 
L 329.355981 64.571383 
L 330.231061 61.450541 
L 331.106141 63.927911 
L 331.98122 65.761808 
L 332.8563 63.348785 
L 333.73138 63.12357 
L 334.606459 60.29229 
L 335.481539 60.099248 
L 337.231698 62.254882 
L 338.106778 62.06184 
L 338.981857 61.225325 
L 339.856937 62.962702 
L 340.732017 61.096631 
L 341.607096 63.348785 
L 342.482176 60.871415 
L 343.357256 61.064457 
L 344.232335 62.640965 
L 345.107415 61.35402 
L 345.982494 60.356637 
L 346.857574 59.616643 
L 347.732654 59.58447 
L 348.607733 58.908823 
L 349.482813 59.455775 
L 350.357893 59.166213 
L 351.232972 61.096631 
L 352.108052 59.616643 
L 352.983132 60.324463 
L 354.733291 57.686225 
L 355.60837 58.426219 
L 356.48345 58.297524 
L 357.35853 56.174064 
L 358.233609 58.16883 
L 359.108689 57.686225 
L 359.983769 58.104483 
L 360.858848 57.847094 
L 361.733928 57.879267 
L 362.609008 56.946232 
L 363.484087 56.656669 
L 364.359167 56.592322 
L 365.234247 56.077544 
L 366.109326 56.013196 
L 366.984406 56.431454 
L 367.859485 56.688843 
L 368.734565 55.852328 
L 369.609645 55.627113 
L 370.484724 54.436688 
L 371.359804 55.176682 
L 372.234884 55.208855 
L 373.109963 55.594939 
L 373.985043 55.659286 
L 374.860123 55.241029 
L 375.735202 55.884502 
L 376.610282 55.755807 
L 377.485361 54.243646 
L 378.360441 54.887119 
L 379.235521 54.243646 
L 380.1106 55.047987 
L 380.98568 54.790598 
L 381.86076 54.726251 
L 382.735839 54.114952 
L 383.610919 56.624495 
L 384.485999 55.820154 
L 385.361078 53.986257 
L 386.236158 53.825389 
L 387.111237 54.436688 
L 387.986317 53.632347 
L 388.861397 53.857563 
L 389.736476 53.889736 
L 390.611556 54.27582 
L 391.486636 54.179299 
L 392.361715 53.568 
L 393.236795 54.147125 
L 394.111875 54.018431 
L 394.986954 54.340167 
L 396.737113 54.404515 
L 397.612193 53.986257 
L 398.487273 54.27582 
L 398.487273 54.27582 
" style="fill:none;stroke:#ff7f0e;stroke-linecap:square;stroke-width:1.5;"/>
   </g>
   <g id="line2d_21">
    <path clip-path="url(#pcbf8690cb5)" d="M 73.832727 287.770053 
L 74.707807 282.419069 
L 75.582887 268.753741 
L 76.457966 267.822399 
L 77.333046 252.209719 
L 78.208125 240.694944 
L 79.083205 241.761754 
L 79.958285 219.104741 
L 80.833364 212.26361 
L 81.708444 212.974817 
L 83.458603 200.765769 
L 84.333683 240.102272 
L 85.208763 228.621364 
L 86.083842 205.557947 
L 86.958922 224.62506 
L 87.834001 198.903085 
L 88.709081 206.303021 
L 89.584161 196.109059 
L 90.45924 201.646311 
L 91.33432 179.226367 
L 92.2094 173.655248 
L 93.084479 180.106908 
L 93.959559 176.635542 
L 94.834639 167.711592 
L 95.709718 169.523476 
L 96.584798 161.412333 
L 97.459877 156.620154 
L 98.334957 152.471449 
L 99.210037 151.387705 
L 101.835276 140.584137 
L 102.710355 140.482536 
L 103.585435 141.058275 
L 104.460515 139.703596 
L 105.335594 178.328892 
L 106.210674 190.216203 
L 107.085753 190.419405 
L 107.960833 166.915718 
L 108.835913 160.71806 
L 109.710992 176.635542 
L 110.586072 175.551799 
L 111.461152 155.350143 
L 112.336231 155.536411 
L 113.211311 150.456363 
L 114.086391 152.708518 
L 115.83655 155.468677 
L 116.71163 144.800577 
L 117.586709 150.947435 
L 118.461789 139.940665 
L 119.336868 139.077056 
L 120.211948 144.241772 
L 121.087028 133.793807 
L 121.962107 136.435432 
L 122.837187 137.705444 
L 124.587346 136.384631 
L 125.462426 133.065667 
L 126.337506 131.456985 
L 127.212585 124.903723 
L 128.087665 128.188821 
L 128.962744 128.544424 
L 129.837824 120.856619 
L 130.712904 121.313823 
L 131.587983 120.738084 
L 132.463063 121.466224 
L 133.338143 119.281804 
L 134.213222 115.183899 
L 135.088302 117.605388 
L 135.963382 114.675894 
L 136.838461 115.404034 
L 137.713541 117.165117 
L 138.58862 113.744552 
L 139.4637 111.035193 
L 140.33878 111.119861 
L 141.213859 112.542274 
L 142.088939 110.222385 
L 142.964019 109.714381 
L 143.839098 108.376635 
L 144.714178 110.34092 
L 145.589258 109.104775 
L 146.464337 108.732238 
L 147.339417 149.745157 
L 149.089576 144.021636 
L 149.964656 144.106304 
L 150.839735 142.074285 
L 151.714815 138.145714 
L 152.589895 138.992389 
L 153.464974 134.386479 
L 154.340054 131.135248 
L 155.215134 140.651871 
L 156.090213 132.235925 
L 156.965293 125.445595 
L 157.840372 136.909569 
L 158.715452 129.645101 
L 159.590532 129.306431 
L 160.465611 132.659263 
L 161.340691 129.594301 
L 162.215771 129.052429 
L 163.09085 127.528415 
L 163.96593 125.547196 
L 164.84101 130.440975 
L 165.716089 130.813512 
L 167.466248 133.641405 
L 168.341328 133.75994 
L 169.216408 127.460681 
L 170.091487 124.649721 
L 170.966567 122.600768 
L 171.841647 122.363699 
L 172.716726 121.296889 
L 173.591806 128.019486 
L 174.466886 120.941286 
L 175.341965 120.297813 
L 176.217045 120.992087 
L 177.092124 117.588455 
L 177.967204 119.349538 
L 178.842284 124.988391 
L 179.717363 125.682664 
L 180.592443 114.675894 
L 181.467523 116.538578 
L 182.342602 117.012716 
L 183.217682 115.742704 
L 184.092762 116.199908 
L 184.967841 117.876324 
L 186.718 112.220538 
L 187.59308 114.320291 
L 188.46816 108.54597 
L 189.343239 111.577065 
L 190.218319 108.054898 
L 191.093399 110.848925 
L 191.968478 112.254404 
L 192.843558 109.578913 
L 193.718638 108.461302 
L 194.593717 105.362473 
L 196.343877 102.822449 
L 197.218956 105.413274 
L 198.094036 105.176205 
L 198.969115 105.193138 
L 199.844195 104.719 
L 200.719275 101.332302 
L 201.594354 102.754715 
L 202.469434 100.705763 
L 204.219593 100.502561 
L 205.094673 101.603238 
L 205.969753 99.926822 
L 206.844832 100.028423 
L 208.594991 97.640801 
L 209.470071 99.537352 
L 210.345151 97.759335 
L 211.22023 97.302131 
L 212.09531 97.048128 
L 212.97039 98.555209 
L 213.845469 98.233473 
L 215.595629 94.711306 
L 216.470708 96.150653 
L 217.345788 94.525038 
L 218.220867 94.863708 
L 219.095947 94.931442 
L 219.971027 94.541971 
L 220.846106 94.372637 
L 221.721186 93.305827 
L 222.596266 94.660506 
L 223.471345 93.864632 
L 224.346425 94.152501 
L 225.221505 93.458228 
L 226.096584 93.525962 
L 227.846743 92.713154 
L 228.721823 93.525962 
L 229.596903 93.153425 
L 230.471982 93.678363 
L 231.347062 134.183277 
L 232.222142 129.069362 
L 233.097221 132.269792 
L 233.972301 127.477614 
L 234.847381 129.120163 
L 235.72246 123.650645 
L 236.59754 135.808892 
L 237.472619 130.711911 
L 238.347699 129.120163 
L 239.222779 130.000704 
L 240.097858 123.041039 
L 240.972938 132.964066 
L 241.848018 122.770103 
L 242.723097 121.00902 
L 243.598177 124.192517 
L 244.473257 126.29227 
L 245.348336 119.400338 
L 246.223416 115.387101 
L 247.098495 122.651569 
L 247.973575 125.61493 
L 248.848655 120.95822 
L 249.723734 118.350462 
L 250.598814 122.4145 
L 251.473894 116.623246 
L 252.348973 120.704217 
L 253.224053 120.28088 
L 254.099133 124.006248 
L 254.974212 115.217766 
L 255.849292 117.791656 
L 256.724371 118.316595 
L 257.599451 115.099231 
L 258.474531 122.4653 
L 259.34961 114.540426 
L 260.22469 113.626017 
L 261.09977 123.024106 
L 261.974849 119.772875 
L 262.849929 122.75317 
L 263.725009 114.489625 
L 264.600088 113.355081 
L 265.475168 119.94221 
L 266.350247 113.439749 
L 267.225327 113.642951 
L 268.100407 117.198984 
L 268.975486 117.723923 
L 269.850566 121.754094 
L 270.725646 119.010868 
L 271.600725 113.964687 
L 272.475805 116.420044 
L 273.350885 115.658036 
L 275.101044 112.118937 
L 275.976123 114.828295 
L 276.851203 110.747324 
L 277.726283 111.001326 
L 278.601362 116.724846 
L 279.476442 111.001326 
L 280.351522 114.421892 
L 282.101681 109.003174 
L 282.976761 111.119861 
L 284.72692 114.421892 
L 285.602 109.61278 
L 286.477079 111.289195 
L 287.352159 108.122632 
L 288.227238 112.999478 
L 289.102318 111.356929 
L 289.977398 105.514875 
L 291.727557 114.65896 
L 292.602637 110.188518 
L 293.477716 115.810438 
L 294.352796 106.886487 
L 295.227876 104.295663 
L 296.102955 108.512103 
L 296.978035 108.749172 
L 297.853114 109.291043 
L 298.728194 106.988088 
L 299.603274 106.497017 
L 300.478353 107.360625 
L 301.353433 104.6682 
L 302.228513 105.548742 
L 303.103592 105.955145 
L 303.978672 108.291967 
L 304.853752 106.293815 
L 305.728831 102.653114 
L 306.603911 109.443445 
L 307.47899 105.210072 
L 308.35407 103.415121 
L 309.22915 102.805516 
L 310.104229 104.905269 
L 310.979309 108.495169 
L 311.854389 106.243015 
L 312.729468 101.383102 
L 313.604548 104.6682 
L 314.479628 97.97947 
L 315.354707 101.315368 
L 316.229787 102.19591 
L 317.104866 99.130948 
L 317.979946 99.554285 
L 318.855026 104.007794 
L 319.730105 103.838459 
L 320.605185 101.484703 
L 321.480265 99.67282 
L 322.355344 98.792278 
L 323.230424 98.910813 
L 324.105504 101.027499 
L 324.980583 103.923126 
L 325.855663 102.246711 
L 326.730742 99.909889 
L 327.605822 99.977623 
L 328.480902 103.296587 
L 329.355981 101.044433 
L 330.231061 94.694373 
L 331.106141 99.249482 
L 331.98122 99.38495 
L 332.8563 98.622943 
L 333.73138 97.657734 
L 335.481539 96.218387 
L 336.356618 93.881565 
L 337.231698 96.52319 
L 338.106778 98.453608 
L 338.981857 95.439447 
L 339.856937 95.574915 
L 340.732017 94.474238 
L 341.607096 96.489323 
L 342.482176 95.303979 
L 343.357256 93.915432 
L 344.232335 95.879717 
L 345.107415 94.287969 
L 345.982494 94.745173 
L 346.857574 91.273807 
L 347.732654 93.492095 
L 348.607733 95.11771 
L 349.482813 94.084767 
L 350.357893 93.644496 
L 351.232972 92.543819 
L 352.108052 95.79505 
L 352.983132 94.541971 
L 353.858211 91.663278 
L 354.733291 91.612477 
L 356.48345 92.154349 
L 357.35853 90.528734 
L 358.233609 92.459152 
L 359.108689 90.969005 
L 359.983769 91.392342 
L 360.858848 90.765803 
L 361.733928 92.526886 
L 362.609008 91.798746 
L 363.484087 91.629411 
L 364.359167 89.343389 
L 365.234247 90.088463 
L 366.109326 91.714078 
L 366.984406 90.867404 
L 367.859485 89.495791 
L 368.734565 89.512724 
L 369.609645 89.952995 
L 370.484724 87.887109 
L 371.359804 87.937909 
L 372.234884 88.66605 
L 373.109963 90.342465 
L 373.985043 88.445914 
L 374.860123 88.462848 
L 375.735202 88.970852 
L 376.610282 88.445914 
L 377.485361 88.293513 
L 378.360441 87.971776 
L 379.235521 87.463772 
L 380.1106 87.751641 
L 380.98568 87.074301 
L 381.86076 88.32738 
L 382.735839 87.65004 
L 383.610919 88.242712 
L 384.485999 87.802442 
L 385.361078 87.125102 
L 387.111237 87.277503 
L 387.986317 87.514572 
L 388.861397 88.547515 
L 389.736476 87.633107 
L 390.611556 87.920976 
L 391.486636 86.854166 
L 392.361715 87.751641 
L 393.236795 87.26057 
L 394.111875 87.158969 
L 394.986954 86.904966 
L 395.862034 87.887109 
L 396.737113 87.31137 
L 397.612193 87.26057 
L 398.487273 87.768575 
L 398.487273 87.768575 
" style="fill:none;stroke:#2ca02c;stroke-linecap:square;stroke-width:1.5;"/>
   </g>
   <g id="patch_3">
    <path d="M 57.6 307.584 
L 57.6 41.472 
" style="fill:none;stroke:#000000;stroke-linecap:square;stroke-linejoin:miter;stroke-width:0.8;"/>
   </g>
   <g id="patch_4">
    <path d="M 414.72 307.584 
L 414.72 41.472 
" style="fill:none;stroke:#000000;stroke-linecap:square;stroke-linejoin:miter;stroke-width:0.8;"/>
   </g>
   <g id="patch_5">
    <path d="M 57.6 307.584 
L 414.72 307.584 
" style="fill:none;stroke:#000000;stroke-linecap:square;stroke-linejoin:miter;stroke-width:0.8;"/>
   </g>
   <g id="patch_6">
    <path d="M 57.6 41.472 
L 414.72 41.472 
" style="fill:none;stroke:#000000;stroke-linecap:square;stroke-linejoin:miter;stroke-width:0.8;"/>
   </g>
   <g id="text_21">
    <!-- Training and Validation Accuracy -->
    <g transform="translate(138.4575 35.472)scale(0.12 -0.12)">
     <defs>
      <path d="M -19 4666 
L 3928 4666 
L 3928 4134 
L 2272 4134 
L 2272 0 
L 1638 0 
L 1638 4134 
L -19 4134 
L -19 4666 
z
" id="DejaVuSans-54" transform="scale(0.015625)"/>
      <path d="M 603 3500 
L 1178 3500 
L 1178 0 
L 603 0 
L 603 3500 
z
M 603 4863 
L 1178 4863 
L 1178 4134 
L 603 4134 
L 603 4863 
z
" id="DejaVuSans-69" transform="scale(0.015625)"/>
      <path d="M 3513 2113 
L 3513 0 
L 2938 0 
L 2938 2094 
Q 2938 2591 2744 2837 
Q 2550 3084 2163 3084 
Q 1697 3084 1428 2787 
Q 1159 2491 1159 1978 
L 1159 0 
L 581 0 
L 581 3500 
L 1159 3500 
L 1159 2956 
Q 1366 3272 1645 3428 
Q 1925 3584 2291 3584 
Q 2894 3584 3203 3211 
Q 3513 2838 3513 2113 
z
" id="DejaVuSans-6e" transform="scale(0.015625)"/>
      <path d="M 2906 1791 
Q 2906 2416 2648 2759 
Q 2391 3103 1925 3103 
Q 1463 3103 1205 2759 
Q 947 2416 947 1791 
Q 947 1169 1205 825 
Q 1463 481 1925 481 
Q 2391 481 2648 825 
Q 2906 1169 2906 1791 
z
M 3481 434 
Q 3481 -459 3084 -895 
Q 2688 -1331 1869 -1331 
Q 1566 -1331 1297 -1286 
Q 1028 -1241 775 -1147 
L 775 -588 
Q 1028 -725 1275 -790 
Q 1522 -856 1778 -856 
Q 2344 -856 2625 -561 
Q 2906 -266 2906 331 
L 2906 616 
Q 2728 306 2450 153 
Q 2172 0 1784 0 
Q 1141 0 747 490 
Q 353 981 353 1791 
Q 353 2603 747 3093 
Q 1141 3584 1784 3584 
Q 2172 3584 2450 3431 
Q 2728 3278 2906 2969 
L 2906 3500 
L 3481 3500 
L 3481 434 
z
" id="DejaVuSans-67" transform="scale(0.015625)"/>
      <path id="DejaVuSans-20" transform="scale(0.015625)"/>
      <path d="M 2906 2969 
L 2906 4863 
L 3481 4863 
L 3481 0 
L 2906 0 
L 2906 525 
Q 2725 213 2448 61 
Q 2172 -91 1784 -91 
Q 1150 -91 751 415 
Q 353 922 353 1747 
Q 353 2572 751 3078 
Q 1150 3584 1784 3584 
Q 2172 3584 2448 3432 
Q 2725 3281 2906 2969 
z
M 947 1747 
Q 947 1113 1208 752 
Q 1469 391 1925 391 
Q 2381 391 2643 752 
Q 2906 1113 2906 1747 
Q 2906 2381 2643 2742 
Q 2381 3103 1925 3103 
Q 1469 3103 1208 2742 
Q 947 2381 947 1747 
z
" id="DejaVuSans-64" transform="scale(0.015625)"/>
      <path d="M 1831 0 
L 50 4666 
L 709 4666 
L 2188 738 
L 3669 4666 
L 4325 4666 
L 2547 0 
L 1831 0 
z
" id="DejaVuSans-56" transform="scale(0.015625)"/>
      <path d="M 603 4863 
L 1178 4863 
L 1178 0 
L 603 0 
L 603 4863 
z
" id="DejaVuSans-6c" transform="scale(0.015625)"/>
      <path d="M 1172 4494 
L 1172 3500 
L 2356 3500 
L 2356 3053 
L 1172 3053 
L 1172 1153 
Q 1172 725 1289 603 
Q 1406 481 1766 481 
L 2356 481 
L 2356 0 
L 1766 0 
Q 1100 0 847 248 
Q 594 497 594 1153 
L 594 3053 
L 172 3053 
L 172 3500 
L 594 3500 
L 594 4494 
L 1172 4494 
z
" id="DejaVuSans-74" transform="scale(0.015625)"/>
     </defs>
     <use xlink:href="#DejaVuSans-54"/>
     <use x="46.333984" xlink:href="#DejaVuSans-72"/>
     <use x="87.447266" xlink:href="#DejaVuSans-61"/>
     <use x="148.726562" xlink:href="#DejaVuSans-69"/>
     <use x="176.509766" xlink:href="#DejaVuSans-6e"/>
     <use x="239.888672" xlink:href="#DejaVuSans-69"/>
     <use x="267.671875" xlink:href="#DejaVuSans-6e"/>
     <use x="331.050781" xlink:href="#DejaVuSans-67"/>
     <use x="394.527344" xlink:href="#DejaVuSans-20"/>
     <use x="426.314453" xlink:href="#DejaVuSans-61"/>
     <use x="487.59375" xlink:href="#DejaVuSans-6e"/>
     <use x="550.972656" xlink:href="#DejaVuSans-64"/>
     <use x="614.449219" xlink:href="#DejaVuSans-20"/>
     <use x="646.236328" xlink:href="#DejaVuSans-56"/>
     <use x="706.894531" xlink:href="#DejaVuSans-61"/>
     <use x="768.173828" xlink:href="#DejaVuSans-6c"/>
     <use x="795.957031" xlink:href="#DejaVuSans-69"/>
     <use x="823.740234" xlink:href="#DejaVuSans-64"/>
     <use x="887.216797" xlink:href="#DejaVuSans-61"/>
     <use x="948.496094" xlink:href="#DejaVuSans-74"/>
     <use x="987.705078" xlink:href="#DejaVuSans-69"/>
     <use x="1015.488281" xlink:href="#DejaVuSans-6f"/>
     <use x="1076.669922" xlink:href="#DejaVuSans-6e"/>
     <use x="1140.048828" xlink:href="#DejaVuSans-20"/>
     <use x="1171.835938" xlink:href="#DejaVuSans-41"/>
     <use x="1238.494141" xlink:href="#DejaVuSans-63"/>
     <use x="1293.474609" xlink:href="#DejaVuSans-63"/>
     <use x="1348.455078" xlink:href="#DejaVuSans-75"/>
     <use x="1411.833984" xlink:href="#DejaVuSans-72"/>
     <use x="1452.947266" xlink:href="#DejaVuSans-61"/>
     <use x="1514.226562" xlink:href="#DejaVuSans-63"/>
     <use x="1569.207031" xlink:href="#DejaVuSans-79"/>
    </g>
   </g>
   <g id="legend_1">
    <g id="patch_7">
     <path d="M 239.893438 302.584 
L 407.72 302.584 
Q 409.72 302.584 409.72 300.584 
L 409.72 257.549625 
Q 409.72 255.549625 407.72 255.549625 
L 239.893438 255.549625 
Q 237.893438 255.549625 237.893438 257.549625 
L 237.893438 300.584 
Q 237.893438 302.584 239.893438 302.584 
z
" style="fill:#ffffff;opacity:0.8;stroke:#cccccc;stroke-linejoin:miter;"/>
    </g>
    <g id="line2d_22">
     <path d="M 241.893438 263.648062 
L 261.893438 263.648062 
" style="fill:none;stroke:#1f77b4;stroke-linecap:square;stroke-width:1.5;"/>
    </g>
    <g id="line2d_23"/>
    <g id="text_22">
     <!-- Train Accuracy -->
     <g transform="translate(269.893438 267.148062)scale(0.1 -0.1)">
      <use xlink:href="#DejaVuSans-54"/>
      <use x="46.333984" xlink:href="#DejaVuSans-72"/>
      <use x="87.447266" xlink:href="#DejaVuSans-61"/>
      <use x="148.726562" xlink:href="#DejaVuSans-69"/>
      <use x="176.509766" xlink:href="#DejaVuSans-6e"/>
      <use x="239.888672" xlink:href="#DejaVuSans-20"/>
      <use x="271.675781" xlink:href="#DejaVuSans-41"/>
      <use x="338.333984" xlink:href="#DejaVuSans-63"/>
      <use x="393.314453" xlink:href="#DejaVuSans-63"/>
      <use x="448.294922" xlink:href="#DejaVuSans-75"/>
      <use x="511.673828" xlink:href="#DejaVuSans-72"/>
      <use x="552.787109" xlink:href="#DejaVuSans-61"/>
      <use x="614.066406" xlink:href="#DejaVuSans-63"/>
      <use x="669.046875" xlink:href="#DejaVuSans-79"/>
     </g>
    </g>
    <g id="line2d_24">
     <path d="M 241.893438 278.326188 
L 261.893438 278.326188 
" style="fill:none;stroke:#ff7f0e;stroke-linecap:square;stroke-width:1.5;"/>
    </g>
    <g id="line2d_25"/>
    <g id="text_23">
     <!-- Validation Accuracy -->
     <g transform="translate(269.893438 281.826188)scale(0.1 -0.1)">
      <use xlink:href="#DejaVuSans-56"/>
      <use x="60.658203" xlink:href="#DejaVuSans-61"/>
      <use x="121.9375" xlink:href="#DejaVuSans-6c"/>
      <use x="149.720703" xlink:href="#DejaVuSans-69"/>
      <use x="177.503906" xlink:href="#DejaVuSans-64"/>
      <use x="240.980469" xlink:href="#DejaVuSans-61"/>
      <use x="302.259766" xlink:href="#DejaVuSans-74"/>
      <use x="341.46875" xlink:href="#DejaVuSans-69"/>
      <use x="369.251953" xlink:href="#DejaVuSans-6f"/>
      <use x="430.433594" xlink:href="#DejaVuSans-6e"/>
      <use x="493.8125" xlink:href="#DejaVuSans-20"/>
      <use x="525.599609" xlink:href="#DejaVuSans-41"/>
      <use x="592.257812" xlink:href="#DejaVuSans-63"/>
      <use x="647.238281" xlink:href="#DejaVuSans-63"/>
      <use x="702.21875" xlink:href="#DejaVuSans-75"/>
      <use x="765.597656" xlink:href="#DejaVuSans-72"/>
      <use x="806.710938" xlink:href="#DejaVuSans-61"/>
      <use x="867.990234" xlink:href="#DejaVuSans-63"/>
      <use x="922.970703" xlink:href="#DejaVuSans-79"/>
     </g>
    </g>
    <g id="line2d_26">
     <path d="M 241.893438 293.004312 
L 261.893438 293.004312 
" style="fill:none;stroke:#2ca02c;stroke-linecap:square;stroke-width:1.5;"/>
    </g>
    <g id="line2d_27"/>
    <g id="text_24">
     <!-- Robust Validation Accuracy -->
     <g transform="translate(269.893438 296.504312)scale(0.1 -0.1)">
      <defs>
       <path d="M 2841 2188 
Q 3044 2119 3236 1894 
Q 3428 1669 3622 1275 
L 4263 0 
L 3584 0 
L 2988 1197 
Q 2756 1666 2539 1819 
Q 2322 1972 1947 1972 
L 1259 1972 
L 1259 0 
L 628 0 
L 628 4666 
L 2053 4666 
Q 2853 4666 3247 4331 
Q 3641 3997 3641 3322 
Q 3641 2881 3436 2590 
Q 3231 2300 2841 2188 
z
M 1259 4147 
L 1259 2491 
L 2053 2491 
Q 2509 2491 2742 2702 
Q 2975 2913 2975 3322 
Q 2975 3731 2742 3939 
Q 2509 4147 2053 4147 
L 1259 4147 
z
" id="DejaVuSans-52" transform="scale(0.015625)"/>
       <path d="M 3116 1747 
Q 3116 2381 2855 2742 
Q 2594 3103 2138 3103 
Q 1681 3103 1420 2742 
Q 1159 2381 1159 1747 
Q 1159 1113 1420 752 
Q 1681 391 2138 391 
Q 2594 391 2855 752 
Q 3116 1113 3116 1747 
z
M 1159 2969 
Q 1341 3281 1617 3432 
Q 1894 3584 2278 3584 
Q 2916 3584 3314 3078 
Q 3713 2572 3713 1747 
Q 3713 922 3314 415 
Q 2916 -91 2278 -91 
Q 1894 -91 1617 61 
Q 1341 213 1159 525 
L 1159 0 
L 581 0 
L 581 4863 
L 1159 4863 
L 1159 2969 
z
" id="DejaVuSans-62" transform="scale(0.015625)"/>
      </defs>
      <use xlink:href="#DejaVuSans-52"/>
      <use x="64.982422" xlink:href="#DejaVuSans-6f"/>
      <use x="126.164062" xlink:href="#DejaVuSans-62"/>
      <use x="189.640625" xlink:href="#DejaVuSans-75"/>
      <use x="253.019531" xlink:href="#DejaVuSans-73"/>
      <use x="305.119141" xlink:href="#DejaVuSans-74"/>
      <use x="344.328125" xlink:href="#DejaVuSans-20"/>
      <use x="376.115234" xlink:href="#DejaVuSans-56"/>
      <use x="436.773438" xlink:href="#DejaVuSans-61"/>
      <use x="498.052734" xlink:href="#DejaVuSans-6c"/>
      <use x="525.835938" xlink:href="#DejaVuSans-69"/>
      <use x="553.619141" xlink:href="#DejaVuSans-64"/>
      <use x="617.095703" xlink:href="#DejaVuSans-61"/>
      <use x="678.375" xlink:href="#DejaVuSans-74"/>
      <use x="717.583984" xlink:href="#DejaVuSans-69"/>
      <use x="745.367188" xlink:href="#DejaVuSans-6f"/>
      <use x="806.548828" xlink:href="#DejaVuSans-6e"/>
      <use x="869.927734" xlink:href="#DejaVuSans-20"/>
      <use x="901.714844" xlink:href="#DejaVuSans-41"/>
      <use x="968.373047" xlink:href="#DejaVuSans-63"/>
      <use x="1023.353516" xlink:href="#DejaVuSans-63"/>
      <use x="1078.333984" xlink:href="#DejaVuSans-75"/>
      <use x="1141.712891" xlink:href="#DejaVuSans-72"/>
      <use x="1182.826172" xlink:href="#DejaVuSans-61"/>
      <use x="1244.105469" xlink:href="#DejaVuSans-63"/>
      <use x="1299.085938" xlink:href="#DejaVuSans-79"/>
     </g>
    </g>
   </g>
  </g>
 </g>
 <defs>
  <clipPath id="pcbf8690cb5">
   <rect height="266.112" width="357.12" x="57.6" y="41.472"/>
  </clipPath>
 </defs>
</svg>
