<?xml version="1.0" encoding="utf-8" standalone="no"?>
<!DOCTYPE svg PUBLIC "-//W3C//DTD SVG 1.1//EN"
  "http://www.w3.org/Graphics/SVG/1.1/DTD/svg11.dtd">
<svg xmlns:xlink="http://www.w3.org/1999/xlink" width="460.8pt" height="345.6pt" viewBox="0 0 460.8 345.6" xmlns="http://www.w3.org/2000/svg" version="1.1">
 <metadata>
  <rdf:RDF xmlns:dc="http://purl.org/dc/elements/1.1/" xmlns:cc="http://creativecommons.org/ns#" xmlns:rdf="http://www.w3.org/1999/02/22-rdf-syntax-ns#">
   <cc:Work>
    <dc:type rdf:resource="http://purl.org/dc/dcmitype/StillImage"/>
    <dc:date>2024-09-20T06:28:04.681158</dc:date>
    <dc:format>image/svg+xml</dc:format>
    <dc:creator>
     <cc:Agent>
      <dc:title>Matplotlib v3.9.1, https://matplotlib.org/</dc:title>
     </cc:Agent>
    </dc:creator>
   </cc:Work>
  </rdf:RDF>
 </metadata>
 <defs>
  <style type="text/css">*{stroke-linejoin: round; stroke-linecap: butt}</style>
 </defs>
 <g id="figure_1">
  <g id="patch_1">
   <path d="M 0 345.6 
L 460.8 345.6 
L 460.8 0 
L 0 0 
z
" style="fill: #ffffff"/>
  </g>
  <g id="axes_1">
   <g id="patch_2">
    <path d="M 57.6 307.584 
L 414.72 307.584 
L 414.72 41.472 
L 57.6 41.472 
z
" style="fill: #ffffff"/>
   </g>
   <g id="matplotlib.axis_1">
    <g id="xtick_1">
     <g id="line2d_1">
      <defs>
       <path id="m6e5b55c6b0" d="M 0 0 
L 0 3.5 
" style="stroke: #000000; stroke-width: 0.8"/>
      </defs>
      <g>
       <use xlink:href="#m6e5b55c6b0" x="73.832727" y="307.584" style="stroke: #000000; stroke-width: 0.8"/>
      </g>
     </g>
     <g id="text_1">
      <!-- 1 -->
      <g transform="translate(70.651477 322.182437) scale(0.1 -0.1)">
       <defs>
        <path id="DejaVuSans-31" d="M 794 531 
L 1825 531 
L 1825 4091 
L 703 3866 
L 703 4441 
L 1819 4666 
L 2450 4666 
L 2450 531 
L 3481 531 
L 3481 0 
L 794 0 
L 794 531 
z
" transform="scale(0.015625)"/>
       </defs>
       <use xlink:href="#DejaVuSans-31"/>
      </g>
     </g>
    </g>
    <g id="xtick_2">
     <g id="line2d_2">
      <g>
       <use xlink:href="#m6e5b55c6b0" x="109.262733" y="307.584" style="stroke: #000000; stroke-width: 0.8"/>
      </g>
     </g>
     <g id="text_2">
      <!-- 50 -->
      <g transform="translate(102.900233 322.182437) scale(0.1 -0.1)">
       <defs>
        <path id="DejaVuSans-35" d="M 691 4666 
L 3169 4666 
L 3169 4134 
L 1269 4134 
L 1269 2991 
Q 1406 3038 1543 3061 
Q 1681 3084 1819 3084 
Q 2600 3084 3056 2656 
Q 3513 2228 3513 1497 
Q 3513 744 3044 326 
Q 2575 -91 1722 -91 
Q 1428 -91 1123 -41 
Q 819 9 494 109 
L 494 744 
Q 775 591 1075 516 
Q 1375 441 1709 441 
Q 2250 441 2565 725 
Q 2881 1009 2881 1497 
Q 2881 1984 2565 2268 
Q 2250 2553 1709 2553 
Q 1456 2553 1204 2497 
Q 953 2441 691 2322 
L 691 4666 
z
" transform="scale(0.015625)"/>
        <path id="DejaVuSans-30" d="M 2034 4250 
Q 1547 4250 1301 3770 
Q 1056 3291 1056 2328 
Q 1056 1369 1301 889 
Q 1547 409 2034 409 
Q 2525 409 2770 889 
Q 3016 1369 3016 2328 
Q 3016 3291 2770 3770 
Q 2525 4250 2034 4250 
z
M 2034 4750 
Q 2819 4750 3233 4129 
Q 3647 3509 3647 2328 
Q 3647 1150 3233 529 
Q 2819 -91 2034 -91 
Q 1250 -91 836 529 
Q 422 1150 422 2328 
Q 422 3509 836 4129 
Q 1250 4750 2034 4750 
z
" transform="scale(0.015625)"/>
       </defs>
       <use xlink:href="#DejaVuSans-35"/>
       <use xlink:href="#DejaVuSans-30" x="63.623047"/>
      </g>
     </g>
    </g>
    <g id="xtick_3">
     <g id="line2d_3">
      <g>
       <use xlink:href="#m6e5b55c6b0" x="145.415801" y="307.584" style="stroke: #000000; stroke-width: 0.8"/>
      </g>
     </g>
     <g id="text_3">
      <!-- 100 -->
      <g transform="translate(135.872051 322.182437) scale(0.1 -0.1)">
       <use xlink:href="#DejaVuSans-31"/>
       <use xlink:href="#DejaVuSans-30" x="63.623047"/>
       <use xlink:href="#DejaVuSans-30" x="127.246094"/>
      </g>
     </g>
    </g>
    <g id="xtick_4">
     <g id="line2d_4">
      <g>
       <use xlink:href="#m6e5b55c6b0" x="181.568868" y="307.584" style="stroke: #000000; stroke-width: 0.8"/>
      </g>
     </g>
     <g id="text_4">
      <!-- 150 -->
      <g transform="translate(172.025118 322.182437) scale(0.1 -0.1)">
       <use xlink:href="#DejaVuSans-31"/>
       <use xlink:href="#DejaVuSans-35" x="63.623047"/>
       <use xlink:href="#DejaVuSans-30" x="127.246094"/>
      </g>
     </g>
    </g>
    <g id="xtick_5">
     <g id="line2d_5">
      <g>
       <use xlink:href="#m6e5b55c6b0" x="217.721936" y="307.584" style="stroke: #000000; stroke-width: 0.8"/>
      </g>
     </g>
     <g id="text_5">
      <!-- 200 -->
      <g transform="translate(208.178186 322.182437) scale(0.1 -0.1)">
       <defs>
        <path id="DejaVuSans-32" d="M 1228 531 
L 3431 531 
L 3431 0 
L 469 0 
L 469 531 
Q 828 903 1448 1529 
Q 2069 2156 2228 2338 
Q 2531 2678 2651 2914 
Q 2772 3150 2772 3378 
Q 2772 3750 2511 3984 
Q 2250 4219 1831 4219 
Q 1534 4219 1204 4116 
Q 875 4013 500 3803 
L 500 4441 
Q 881 4594 1212 4672 
Q 1544 4750 1819 4750 
Q 2544 4750 2975 4387 
Q 3406 4025 3406 3419 
Q 3406 3131 3298 2873 
Q 3191 2616 2906 2266 
Q 2828 2175 2409 1742 
Q 1991 1309 1228 531 
z
" transform="scale(0.015625)"/>
       </defs>
       <use xlink:href="#DejaVuSans-32"/>
       <use xlink:href="#DejaVuSans-30" x="63.623047"/>
       <use xlink:href="#DejaVuSans-30" x="127.246094"/>
      </g>
     </g>
    </g>
    <g id="xtick_6">
     <g id="line2d_6">
      <g>
       <use xlink:href="#m6e5b55c6b0" x="253.875003" y="307.584" style="stroke: #000000; stroke-width: 0.8"/>
      </g>
     </g>
     <g id="text_6">
      <!-- 250 -->
      <g transform="translate(244.331253 322.182437) scale(0.1 -0.1)">
       <use xlink:href="#DejaVuSans-32"/>
       <use xlink:href="#DejaVuSans-35" x="63.623047"/>
       <use xlink:href="#DejaVuSans-30" x="127.246094"/>
      </g>
     </g>
    </g>
    <g id="xtick_7">
     <g id="line2d_7">
      <g>
       <use xlink:href="#m6e5b55c6b0" x="290.02807" y="307.584" style="stroke: #000000; stroke-width: 0.8"/>
      </g>
     </g>
     <g id="text_7">
      <!-- 300 -->
      <g transform="translate(280.48432 322.182437) scale(0.1 -0.1)">
       <defs>
        <path id="DejaVuSans-33" d="M 2597 2516 
Q 3050 2419 3304 2112 
Q 3559 1806 3559 1356 
Q 3559 666 3084 287 
Q 2609 -91 1734 -91 
Q 1441 -91 1130 -33 
Q 819 25 488 141 
L 488 750 
Q 750 597 1062 519 
Q 1375 441 1716 441 
Q 2309 441 2620 675 
Q 2931 909 2931 1356 
Q 2931 1769 2642 2001 
Q 2353 2234 1838 2234 
L 1294 2234 
L 1294 2753 
L 1863 2753 
Q 2328 2753 2575 2939 
Q 2822 3125 2822 3475 
Q 2822 3834 2567 4026 
Q 2313 4219 1838 4219 
Q 1578 4219 1281 4162 
Q 984 4106 628 3988 
L 628 4550 
Q 988 4650 1302 4700 
Q 1616 4750 1894 4750 
Q 2613 4750 3031 4423 
Q 3450 4097 3450 3541 
Q 3450 3153 3228 2886 
Q 3006 2619 2597 2516 
z
" transform="scale(0.015625)"/>
       </defs>
       <use xlink:href="#DejaVuSans-33"/>
       <use xlink:href="#DejaVuSans-30" x="63.623047"/>
       <use xlink:href="#DejaVuSans-30" x="127.246094"/>
      </g>
     </g>
    </g>
    <g id="xtick_8">
     <g id="line2d_8">
      <g>
       <use xlink:href="#m6e5b55c6b0" x="326.181138" y="307.584" style="stroke: #000000; stroke-width: 0.8"/>
      </g>
     </g>
     <g id="text_8">
      <!-- 350 -->
      <g transform="translate(316.637388 322.182437) scale(0.1 -0.1)">
       <use xlink:href="#DejaVuSans-33"/>
       <use xlink:href="#DejaVuSans-35" x="63.623047"/>
       <use xlink:href="#DejaVuSans-30" x="127.246094"/>
      </g>
     </g>
    </g>
    <g id="xtick_9">
     <g id="line2d_9">
      <g>
       <use xlink:href="#m6e5b55c6b0" x="362.334205" y="307.584" style="stroke: #000000; stroke-width: 0.8"/>
      </g>
     </g>
     <g id="text_9">
      <!-- 400 -->
      <g transform="translate(352.790455 322.182437) scale(0.1 -0.1)">
       <defs>
        <path id="DejaVuSans-34" d="M 2419 4116 
L 825 1625 
L 2419 1625 
L 2419 4116 
z
M 2253 4666 
L 3047 4666 
L 3047 1625 
L 3713 1625 
L 3713 1100 
L 3047 1100 
L 3047 0 
L 2419 0 
L 2419 1100 
L 313 1100 
L 313 1709 
L 2253 4666 
z
" transform="scale(0.015625)"/>
       </defs>
       <use xlink:href="#DejaVuSans-34"/>
       <use xlink:href="#DejaVuSans-30" x="63.623047"/>
       <use xlink:href="#DejaVuSans-30" x="127.246094"/>
      </g>
     </g>
    </g>
    <g id="xtick_10">
     <g id="line2d_10">
      <g>
       <use xlink:href="#m6e5b55c6b0" x="398.487273" y="307.584" style="stroke: #000000; stroke-width: 0.8"/>
      </g>
     </g>
     <g id="text_10">
      <!-- 450 -->
      <g transform="translate(388.943523 322.182437) scale(0.1 -0.1)">
       <use xlink:href="#DejaVuSans-34"/>
       <use xlink:href="#DejaVuSans-35" x="63.623047"/>
       <use xlink:href="#DejaVuSans-30" x="127.246094"/>
      </g>
     </g>
    </g>
    <g id="text_11">
     <!-- Epochs -->
     <g transform="translate(218.244375 335.860562) scale(0.1 -0.1)">
      <defs>
       <path id="DejaVuSans-45" d="M 628 4666 
L 3578 4666 
L 3578 4134 
L 1259 4134 
L 1259 2753 
L 3481 2753 
L 3481 2222 
L 1259 2222 
L 1259 531 
L 3634 531 
L 3634 0 
L 628 0 
L 628 4666 
z
" transform="scale(0.015625)"/>
       <path id="DejaVuSans-70" d="M 1159 525 
L 1159 -1331 
L 581 -1331 
L 581 3500 
L 1159 3500 
L 1159 2969 
Q 1341 3281 1617 3432 
Q 1894 3584 2278 3584 
Q 2916 3584 3314 3078 
Q 3713 2572 3713 1747 
Q 3713 922 3314 415 
Q 2916 -91 2278 -91 
Q 1894 -91 1617 61 
Q 1341 213 1159 525 
z
M 3116 1747 
Q 3116 2381 2855 2742 
Q 2594 3103 2138 3103 
Q 1681 3103 1420 2742 
Q 1159 2381 1159 1747 
Q 1159 1113 1420 752 
Q 1681 391 2138 391 
Q 2594 391 2855 752 
Q 3116 1113 3116 1747 
z
" transform="scale(0.015625)"/>
       <path id="DejaVuSans-6f" d="M 1959 3097 
Q 1497 3097 1228 2736 
Q 959 2375 959 1747 
Q 959 1119 1226 758 
Q 1494 397 1959 397 
Q 2419 397 2687 759 
Q 2956 1122 2956 1747 
Q 2956 2369 2687 2733 
Q 2419 3097 1959 3097 
z
M 1959 3584 
Q 2709 3584 3137 3096 
Q 3566 2609 3566 1747 
Q 3566 888 3137 398 
Q 2709 -91 1959 -91 
Q 1206 -91 779 398 
Q 353 888 353 1747 
Q 353 2609 779 3096 
Q 1206 3584 1959 3584 
z
" transform="scale(0.015625)"/>
       <path id="DejaVuSans-63" d="M 3122 3366 
L 3122 2828 
Q 2878 2963 2633 3030 
Q 2388 3097 2138 3097 
Q 1578 3097 1268 2742 
Q 959 2388 959 1747 
Q 959 1106 1268 751 
Q 1578 397 2138 397 
Q 2388 397 2633 464 
Q 2878 531 3122 666 
L 3122 134 
Q 2881 22 2623 -34 
Q 2366 -91 2075 -91 
Q 1284 -91 818 406 
Q 353 903 353 1747 
Q 353 2603 823 3093 
Q 1294 3584 2113 3584 
Q 2378 3584 2631 3529 
Q 2884 3475 3122 3366 
z
" transform="scale(0.015625)"/>
       <path id="DejaVuSans-68" d="M 3513 2113 
L 3513 0 
L 2938 0 
L 2938 2094 
Q 2938 2591 2744 2837 
Q 2550 3084 2163 3084 
Q 1697 3084 1428 2787 
Q 1159 2491 1159 1978 
L 1159 0 
L 581 0 
L 581 4863 
L 1159 4863 
L 1159 2956 
Q 1366 3272 1645 3428 
Q 1925 3584 2291 3584 
Q 2894 3584 3203 3211 
Q 3513 2838 3513 2113 
z
" transform="scale(0.015625)"/>
       <path id="DejaVuSans-73" d="M 2834 3397 
L 2834 2853 
Q 2591 2978 2328 3040 
Q 2066 3103 1784 3103 
Q 1356 3103 1142 2972 
Q 928 2841 928 2578 
Q 928 2378 1081 2264 
Q 1234 2150 1697 2047 
L 1894 2003 
Q 2506 1872 2764 1633 
Q 3022 1394 3022 966 
Q 3022 478 2636 193 
Q 2250 -91 1575 -91 
Q 1294 -91 989 -36 
Q 684 19 347 128 
L 347 722 
Q 666 556 975 473 
Q 1284 391 1588 391 
Q 1994 391 2212 530 
Q 2431 669 2431 922 
Q 2431 1156 2273 1281 
Q 2116 1406 1581 1522 
L 1381 1569 
Q 847 1681 609 1914 
Q 372 2147 372 2553 
Q 372 3047 722 3315 
Q 1072 3584 1716 3584 
Q 2034 3584 2315 3537 
Q 2597 3491 2834 3397 
z
" transform="scale(0.015625)"/>
      </defs>
      <use xlink:href="#DejaVuSans-45"/>
      <use xlink:href="#DejaVuSans-70" x="63.183594"/>
      <use xlink:href="#DejaVuSans-6f" x="126.660156"/>
      <use xlink:href="#DejaVuSans-63" x="187.841797"/>
      <use xlink:href="#DejaVuSans-68" x="242.822266"/>
      <use xlink:href="#DejaVuSans-73" x="306.201172"/>
     </g>
    </g>
   </g>
   <g id="matplotlib.axis_2">
    <g id="ytick_1">
     <g id="line2d_11">
      <defs>
       <path id="mad9ebe880c" d="M 0 0 
L -3.5 0 
" style="stroke: #000000; stroke-width: 0.8"/>
      </defs>
      <g>
       <use xlink:href="#mad9ebe880c" x="57.6" y="254.561024" style="stroke: #000000; stroke-width: 0.8"/>
      </g>
     </g>
     <g id="text_12">
      <!-- 20 -->
      <g transform="translate(37.875 258.360243) scale(0.1 -0.1)">
       <use xlink:href="#DejaVuSans-32"/>
       <use xlink:href="#DejaVuSans-30" x="63.623047"/>
      </g>
     </g>
    </g>
    <g id="ytick_2">
     <g id="line2d_12">
      <g>
       <use xlink:href="#mad9ebe880c" x="57.6" y="196.010271" style="stroke: #000000; stroke-width: 0.8"/>
      </g>
     </g>
     <g id="text_13">
      <!-- 40 -->
      <g transform="translate(37.875 199.80949) scale(0.1 -0.1)">
       <use xlink:href="#DejaVuSans-34"/>
       <use xlink:href="#DejaVuSans-30" x="63.623047"/>
      </g>
     </g>
    </g>
    <g id="ytick_3">
     <g id="line2d_13">
      <g>
       <use xlink:href="#mad9ebe880c" x="57.6" y="137.459518" style="stroke: #000000; stroke-width: 0.8"/>
      </g>
     </g>
     <g id="text_14">
      <!-- 60 -->
      <g transform="translate(37.875 141.258737) scale(0.1 -0.1)">
       <defs>
        <path id="DejaVuSans-36" d="M 2113 2584 
Q 1688 2584 1439 2293 
Q 1191 2003 1191 1497 
Q 1191 994 1439 701 
Q 1688 409 2113 409 
Q 2538 409 2786 701 
Q 3034 994 3034 1497 
Q 3034 2003 2786 2293 
Q 2538 2584 2113 2584 
z
M 3366 4563 
L 3366 3988 
Q 3128 4100 2886 4159 
Q 2644 4219 2406 4219 
Q 1781 4219 1451 3797 
Q 1122 3375 1075 2522 
Q 1259 2794 1537 2939 
Q 1816 3084 2150 3084 
Q 2853 3084 3261 2657 
Q 3669 2231 3669 1497 
Q 3669 778 3244 343 
Q 2819 -91 2113 -91 
Q 1303 -91 875 529 
Q 447 1150 447 2328 
Q 447 3434 972 4092 
Q 1497 4750 2381 4750 
Q 2619 4750 2861 4703 
Q 3103 4656 3366 4563 
z
" transform="scale(0.015625)"/>
       </defs>
       <use xlink:href="#DejaVuSans-36"/>
       <use xlink:href="#DejaVuSans-30" x="63.623047"/>
      </g>
     </g>
    </g>
    <g id="ytick_4">
     <g id="line2d_14">
      <g>
       <use xlink:href="#mad9ebe880c" x="57.6" y="78.908766" style="stroke: #000000; stroke-width: 0.8"/>
      </g>
     </g>
     <g id="text_15">
      <!-- 80 -->
      <g transform="translate(37.875 82.707985) scale(0.1 -0.1)">
       <defs>
        <path id="DejaVuSans-38" d="M 2034 2216 
Q 1584 2216 1326 1975 
Q 1069 1734 1069 1313 
Q 1069 891 1326 650 
Q 1584 409 2034 409 
Q 2484 409 2743 651 
Q 3003 894 3003 1313 
Q 3003 1734 2745 1975 
Q 2488 2216 2034 2216 
z
M 1403 2484 
Q 997 2584 770 2862 
Q 544 3141 544 3541 
Q 544 4100 942 4425 
Q 1341 4750 2034 4750 
Q 2731 4750 3128 4425 
Q 3525 4100 3525 3541 
Q 3525 3141 3298 2862 
Q 3072 2584 2669 2484 
Q 3125 2378 3379 2068 
Q 3634 1759 3634 1313 
Q 3634 634 3220 271 
Q 2806 -91 2034 -91 
Q 1263 -91 848 271 
Q 434 634 434 1313 
Q 434 1759 690 2068 
Q 947 2378 1403 2484 
z
M 1172 3481 
Q 1172 3119 1398 2916 
Q 1625 2713 2034 2713 
Q 2441 2713 2670 2916 
Q 2900 3119 2900 3481 
Q 2900 3844 2670 4047 
Q 2441 4250 2034 4250 
Q 1625 4250 1398 4047 
Q 1172 3844 1172 3481 
z
" transform="scale(0.015625)"/>
       </defs>
       <use xlink:href="#DejaVuSans-38"/>
       <use xlink:href="#DejaVuSans-30" x="63.623047"/>
      </g>
     </g>
    </g>
    <g id="text_16">
     <!-- Accuracy -->
     <g transform="translate(31.795312 197.356125) rotate(-90) scale(0.1 -0.1)">
      <defs>
       <path id="DejaVuSans-41" d="M 2188 4044 
L 1331 1722 
L 3047 1722 
L 2188 4044 
z
M 1831 4666 
L 2547 4666 
L 4325 0 
L 3669 0 
L 3244 1197 
L 1141 1197 
L 716 0 
L 50 0 
L 1831 4666 
z
" transform="scale(0.015625)"/>
       <path id="DejaVuSans-75" d="M 544 1381 
L 544 3500 
L 1119 3500 
L 1119 1403 
Q 1119 906 1312 657 
Q 1506 409 1894 409 
Q 2359 409 2629 706 
Q 2900 1003 2900 1516 
L 2900 3500 
L 3475 3500 
L 3475 0 
L 2900 0 
L 2900 538 
Q 2691 219 2414 64 
Q 2138 -91 1772 -91 
Q 1169 -91 856 284 
Q 544 659 544 1381 
z
M 1991 3584 
L 1991 3584 
z
" transform="scale(0.015625)"/>
       <path id="DejaVuSans-72" d="M 2631 2963 
Q 2534 3019 2420 3045 
Q 2306 3072 2169 3072 
Q 1681 3072 1420 2755 
Q 1159 2438 1159 1844 
L 1159 0 
L 581 0 
L 581 3500 
L 1159 3500 
L 1159 2956 
Q 1341 3275 1631 3429 
Q 1922 3584 2338 3584 
Q 2397 3584 2469 3576 
Q 2541 3569 2628 3553 
L 2631 2963 
z
" transform="scale(0.015625)"/>
       <path id="DejaVuSans-61" d="M 2194 1759 
Q 1497 1759 1228 1600 
Q 959 1441 959 1056 
Q 959 750 1161 570 
Q 1363 391 1709 391 
Q 2188 391 2477 730 
Q 2766 1069 2766 1631 
L 2766 1759 
L 2194 1759 
z
M 3341 1997 
L 3341 0 
L 2766 0 
L 2766 531 
Q 2569 213 2275 61 
Q 1981 -91 1556 -91 
Q 1019 -91 701 211 
Q 384 513 384 1019 
Q 384 1609 779 1909 
Q 1175 2209 1959 2209 
L 2766 2209 
L 2766 2266 
Q 2766 2663 2505 2880 
Q 2244 3097 1772 3097 
Q 1472 3097 1187 3025 
Q 903 2953 641 2809 
L 641 3341 
Q 956 3463 1253 3523 
Q 1550 3584 1831 3584 
Q 2591 3584 2966 3190 
Q 3341 2797 3341 1997 
z
" transform="scale(0.015625)"/>
       <path id="DejaVuSans-79" d="M 2059 -325 
Q 1816 -950 1584 -1140 
Q 1353 -1331 966 -1331 
L 506 -1331 
L 506 -850 
L 844 -850 
Q 1081 -850 1212 -737 
Q 1344 -625 1503 -206 
L 1606 56 
L 191 3500 
L 800 3500 
L 1894 763 
L 2988 3500 
L 3597 3500 
L 2059 -325 
z
" transform="scale(0.015625)"/>
      </defs>
      <use xlink:href="#DejaVuSans-41"/>
      <use xlink:href="#DejaVuSans-63" x="66.658203"/>
      <use xlink:href="#DejaVuSans-63" x="121.638672"/>
      <use xlink:href="#DejaVuSans-75" x="176.619141"/>
      <use xlink:href="#DejaVuSans-72" x="239.998047"/>
      <use xlink:href="#DejaVuSans-61" x="281.111328"/>
      <use xlink:href="#DejaVuSans-63" x="342.390625"/>
      <use xlink:href="#DejaVuSans-79" x="397.371094"/>
     </g>
    </g>
   </g>
   <g id="line2d_15">
    <path d="M 73.832727 290.265273 
L 76.001911 210.606974 
L 76.724973 191.683371 
L 77.448034 177.900523 
L 79.617218 152.606598 
L 80.340279 146.728103 
L 81.063341 142.512448 
L 81.786402 137.037953 
L 83.232525 128.571514 
L 83.955586 125.450759 
L 84.678647 122.892091 
L 85.401709 119.127278 
L 86.12477 118.172901 
L 86.847832 113.828435 
L 88.293954 110.403216 
L 89.017016 108.172432 
L 89.740077 105.473242 
L 90.463138 103.886517 
L 91.1862 101.111211 
L 91.909261 101.070226 
L 92.632322 100.022167 
L 93.355384 99.8875 
L 94.078445 98.745761 
L 94.801506 98.300775 
L 95.524568 123.026758 
L 96.247629 124.162643 
L 96.97069 121.410757 
L 97.693752 119.724495 
L 98.416813 119.127278 
L 99.139874 117.048726 
L 99.862936 114.337826 
L 100.585997 114.162174 
L 101.309059 112.891623 
L 102.03212 110.807216 
L 102.755181 110.028491 
L 103.478243 109.712317 
L 104.201304 108.00849 
L 105.647427 106.644257 
L 106.370488 103.927502 
L 107.093549 102.920429 
L 107.816611 102.856024 
L 108.539672 100.432022 
L 109.262733 99.155616 
L 109.985795 98.646225 
L 110.708856 96.977528 
L 111.431917 97.516195 
L 112.154979 95.718687 
L 112.87804 95.314687 
L 114.324163 92.141236 
L 115.047224 93.195149 
L 115.770285 89.793351 
L 116.493347 88.874104 
L 117.216408 88.194915 
L 118.662531 86.034392 
L 119.385592 86.918509 
L 120.108654 85.413754 
L 120.831715 84.27787 
L 121.554776 83.797754 
L 123.72396 79.974389 
L 124.447022 79.564534 
L 125.170083 78.05978 
L 125.893144 77.661635 
L 126.616206 76.291547 
L 127.339267 76.677982 
L 128.062328 76.127605 
L 128.78539 74.412068 
L 129.508451 75.061981 
L 130.231512 73.129806 
L 130.954574 73.844126 
L 131.677635 72.643835 
L 132.400696 72.386212 
L 133.846819 71.420124 
L 136.016003 71.911951 
L 136.739065 71.466965 
L 137.462126 70.395486 
L 138.185187 69.979776 
L 138.908249 92.070975 
L 139.63131 94.76431 
L 140.354371 96.029006 
L 141.077433 95.285411 
L 141.800494 95.496194 
L 142.523555 95.53718 
L 143.246617 93.581584 
L 143.969678 93.663555 
L 144.692739 94.869701 
L 145.415801 94.190512 
L 146.138862 92.539381 
L 146.861923 92.340308 
L 147.584985 92.545236 
L 148.308046 91.456192 
L 149.031108 91.286395 
L 149.754169 91.391786 
L 150.47723 89.71138 
L 151.200292 89.969003 
L 151.923353 89.207843 
L 152.646414 88.716017 
L 153.369476 88.856539 
L 154.092537 87.76164 
L 154.815598 88.956075 
L 155.53866 85.893871 
L 156.261721 87.228828 
L 156.984782 86.63161 
L 157.707844 87.304944 
L 158.430905 87.03561 
L 159.153966 85.343493 
L 159.877028 84.69358 
L 160.600089 83.405464 
L 161.32315 84.494508 
L 162.046212 83.51671 
L 162.769273 84.067087 
L 164.215396 82.550623 
L 164.938457 81.929985 
L 165.661519 80.717984 
L 166.38458 82.193463 
L 167.107641 81.807028 
L 167.830703 81.180535 
L 168.553764 80.00952 
L 169.276825 80.237868 
L 169.999887 78.229577 
L 170.722948 78.82094 
L 171.446009 78.850215 
L 172.169071 77.848997 
L 172.892132 78.938041 
L 173.615193 77.345461 
L 175.061316 77.456707 
L 175.784377 75.471837 
L 176.507439 76.215431 
L 177.2305 76.754098 
L 177.953561 74.353517 
L 178.676623 74.810213 
L 179.399684 75.102967 
L 180.122745 74.605285 
L 180.845807 73.270328 
L 181.568868 73.949517 
L 182.29193 72.596995 
L 183.014991 71.87682 
L 184.461114 71.185921 
L 185.184175 71.338153 
L 185.907236 70.413052 
L 186.630298 70.190559 
L 187.353359 69.833399 
L 188.07642 68.826326 
L 188.799482 69.265457 
L 189.522543 68.937573 
L 190.968666 66.818035 
L 191.691727 67.555775 
L 192.414788 67.286441 
L 193.860911 66.179832 
L 195.307034 64.997107 
L 196.030095 65.278151 
L 196.753157 65.184469 
L 197.476218 63.890498 
L 198.199279 64.86244 
L 198.922341 63.427947 
L 199.645402 62.807309 
L 200.368463 62.672642 
L 201.091525 62.766323 
L 201.814586 61.987598 
L 202.537647 61.677279 
L 203.98377 60.090554 
L 204.706831 60.96296 
L 205.429893 58.913684 
L 206.152954 59.856351 
L 207.599077 58.995655 
L 209.045199 58.872698 
L 209.768261 57.584582 
L 210.491322 58.345741 
L 212.660506 57.4909 
L 213.383568 56.71803 
L 214.106629 57.82464 
L 214.82969 56.355016 
L 215.552752 56.30232 
L 216.275813 56.454552 
L 216.998874 55.88661 
L 217.721936 55.658262 
L 218.444997 56.653625 
L 219.168058 55.289392 
L 219.89112 56.073972 
L 220.614181 56.284755 
L 221.337242 55.915885 
L 222.060304 56.589219 
L 222.783365 55.822204 
L 223.506426 55.705102 
L 224.229488 55.722668 
L 224.952549 56.565799 
L 225.67561 78.873635 
L 226.398672 83.288362 
L 227.121733 84.945348 
L 228.567856 83.862159 
L 229.290917 84.248594 
L 230.013979 83.51671 
L 230.73704 83.036594 
L 231.460101 84.30129 
L 232.183163 83.305927 
L 232.906224 82.773115 
L 233.629285 82.75555 
L 234.352347 82.849231 
L 235.075408 82.088072 
L 235.798469 82.357405 
L 236.521531 82.398391 
L 237.244592 82.047086 
L 237.967653 82.36326 
L 238.690715 82.035376 
L 239.413776 81.315202 
L 240.136837 81.748477 
L 240.859899 81.719202 
L 241.58296 81.203955 
L 242.306021 79.716766 
L 243.752144 80.999028 
L 244.475206 79.880708 
L 245.198267 79.084418 
L 245.921328 79.61723 
L 246.64439 79.476708 
L 247.367451 78.762389 
L 248.090512 78.973172 
L 248.813574 78.651142 
L 249.536635 78.510621 
L 250.259696 77.726041 
L 250.982758 78.932186 
L 251.705819 78.616012 
L 252.42888 77.661635 
L 253.151942 78.340823 
L 253.875003 78.446215 
L 254.598064 78.399374 
L 256.044187 77.023432 
L 257.49031 77.26349 
L 258.213371 76.15688 
L 259.659494 76.666272 
L 260.382555 76.89462 
L 261.105617 74.58772 
L 261.828678 75.893402 
L 262.551739 75.770445 
L 263.274801 75.998793 
L 263.997862 75.231778 
L 264.720923 76.151025 
L 265.443985 76.127605 
L 266.167046 74.786793 
L 266.890107 76.174446 
L 267.613169 74.482329 
L 268.33623 74.775083 
L 269.059291 75.747025 
L 269.782353 74.716532 
L 270.505414 73.996358 
L 271.228475 74.769228 
L 271.951537 74.447198 
L 272.674598 73.879256 
L 273.397659 73.551372 
L 274.120721 73.808995 
L 274.843782 74.248126 
L 275.566843 74.019778 
L 276.289905 72.919024 
L 277.012966 72.315951 
L 277.736028 72.743372 
L 278.459089 73.012705 
L 279.18215 72.655545 
L 279.905212 71.882675 
L 280.628273 72.895603 
L 281.351334 71.537226 
L 282.074396 70.963429 
L 282.797457 72.509168 
L 283.520518 71.642617 
L 284.24358 72.187139 
L 284.966641 72.187139 
L 285.689702 71.900241 
L 286.412764 70.869747 
L 287.135825 70.980994 
L 287.858886 70.459892 
L 288.581948 70.928298 
L 290.751132 70.061747 
L 291.474193 70.834617 
L 292.197255 70.202269 
L 292.920316 70.746791 
L 293.643377 69.11908 
L 294.366439 69.698732 
L 295.812561 68.568703 
L 296.535623 68.756065 
L 297.258684 68.164703 
L 297.981745 68.135427 
L 298.704807 67.807543 
L 299.427868 69.569921 
L 300.150929 68.264239 
L 300.873991 67.672876 
L 301.597052 68.621399 
L 302.320113 67.778268 
L 303.766236 66.993688 
L 304.489297 67.526499 
L 305.212359 66.361339 
L 305.93542 66.244238 
L 306.658481 65.676296 
L 307.381543 65.998325 
L 308.104604 66.03931 
L 308.827666 65.301571 
L 309.550727 66.496006 
L 310.99685 65.61189 
L 311.719911 65.752412 
L 312.442972 64.347194 
L 313.166034 64.476005 
L 313.889095 64.985397 
L 314.612156 64.271078 
L 315.335218 64.206672 
L 316.058279 63.872932 
L 316.78134 62.87757 
L 317.504402 63.404526 
L 318.227463 64.165686 
L 318.950524 63.035657 
L 319.673586 62.637512 
L 320.396647 63.831947 
L 321.119708 63.445512 
L 321.84277 62.122265 
L 322.565831 62.725338 
L 323.288892 61.981743 
L 324.011954 62.16325 
L 324.735015 60.646786 
L 325.458077 61.431366 
L 326.181138 61.589453 
L 326.904199 61.501627 
L 327.627261 61.044931 
L 329.073383 60.430148 
L 329.796445 59.668988 
L 330.519506 60.395018 
L 331.242567 59.991018 
L 331.965629 59.873916 
L 332.68869 59.200582 
L 333.411751 58.790727 
L 334.134813 59.745104 
L 334.857874 58.556524 
L 335.580935 59.38209 
L 336.303997 58.404292 
L 337.027058 58.860988 
L 337.750119 58.175944 
L 339.196242 57.344524 
L 339.919304 58.269625 
L 340.642365 57.057625 
L 341.365426 56.952234 
L 342.088488 57.0869 
L 342.811549 57.976872 
L 343.53461 56.349161 
L 344.257672 56.015421 
L 344.980733 56.185219 
L 345.703794 56.554088 
L 346.426856 55.394783 
L 347.149917 55.91003 
L 347.872978 55.14887 
L 348.59604 55.89832 
L 349.319101 55.154725 
L 350.042162 55.008349 
L 350.765224 54.686319 
L 351.488285 54.967363 
L 352.211346 54.393566 
L 352.934408 54.176928 
L 353.657469 54.475537 
L 354.38053 55.48261 
L 355.103592 54.481392 
L 355.826653 54.902957 
L 356.549715 54.498957 
L 357.272776 54.686319 
L 357.995837 55.523595 
L 358.718899 55.13716 
L 359.44196 55.14887 
L 360.165021 54.212058 
L 360.888083 54.32916 
L 361.611144 55.154725 
L 362.334205 54.428696 
L 364.503389 54.908812 
L 365.226451 56.360871 
L 365.949512 54.750725 
L 366.672573 55.031769 
L 367.395635 54.422841 
L 368.118696 55.084464 
L 368.841757 54.662899 
L 370.28788 54.569218 
L 371.010941 53.808058 
L 371.734003 55.371363 
L 373.180126 54.147652 
L 373.903187 54.253044 
L 374.626248 54.639479 
L 375.34931 55.588001 
L 376.072371 55.48261 
L 376.795432 54.32916 
L 377.518494 55.441624 
L 378.241555 54.288174 
L 378.964616 54.053971 
L 379.687678 54.662899 
L 380.410739 54.452116 
L 381.1338 55.031769 
L 381.856862 54.873682 
L 382.579923 53.568 
L 383.302984 54.31745 
L 384.026046 53.778783 
L 384.749107 54.305739 
L 385.472168 54.586783 
L 386.19523 54.387711 
L 386.918291 54.563363 
L 387.641353 54.967363 
L 388.364414 54.984928 
L 389.087475 55.552871 
L 389.810537 55.617276 
L 390.533598 53.913449 
L 391.256659 54.288174 
L 391.979721 54.487247 
L 392.702782 54.264754 
L 393.425843 54.727305 
L 394.148905 54.856117 
L 394.871966 54.815131 
L 395.595027 54.545798 
L 396.318089 54.73316 
L 397.04115 54.516522 
L 397.764211 54.065681 
L 398.487273 55.154725 
L 398.487273 55.154725 
" clip-path="url(#p85a9264af4)" style="fill: none; stroke: #1f77b4; stroke-width: 1.5; stroke-linecap: square"/>
   </g>
   <g id="line2d_16">
    <path d="M 73.832727 277.161614 
L 75.27885 239.776959 
L 76.001911 217.264194 
L 76.724973 199.142736 
L 77.448034 195.629691 
L 78.171095 188.252296 
L 78.894157 184.739251 
L 80.340279 157.191122 
L 81.063341 153.502425 
L 81.786402 141.938651 
L 82.509463 144.98329 
L 83.232525 147.178943 
L 83.955586 133.65372 
L 84.678647 132.687632 
L 85.401709 127.008209 
L 86.12477 124.578353 
L 86.847832 127.44734 
L 87.570893 121.211685 
L 88.293954 121.504438 
L 89.017016 117.522987 
L 89.740077 115.766465 
L 91.1862 114.624725 
L 91.909261 112.516898 
L 92.632322 110.760375 
L 93.355384 112.69255 
L 94.078445 110.087042 
L 94.801506 110.760375 
L 95.524568 139.450244 
L 96.247629 136.259228 
L 96.97069 131.048211 
L 97.693752 130.60908 
L 98.416813 127.593717 
L 99.139874 126.656905 
L 99.862936 126.656905 
L 100.585997 124.197773 
L 101.309059 127.125311 
L 102.03212 122.294874 
L 102.755181 121.709366 
L 103.478243 118.13777 
L 104.201304 121.826467 
L 104.924365 116.93748 
L 106.370488 113.892841 
L 107.093549 115.561537 
L 107.816611 110.409071 
L 108.539672 111.55081 
L 109.262733 109.20878 
L 109.985795 107.335156 
L 110.708856 109.296606 
L 111.431917 107.042402 
L 112.87804 104.436894 
L 113.601101 100.367617 
L 114.324163 103.148777 
L 115.047224 102.094864 
L 115.770285 102.299791 
L 116.493347 101.158052 
L 117.216408 98.669645 
L 117.93947 95.654281 
L 118.662531 97.645007 
L 119.385592 98.113413 
L 120.108654 94.512541 
L 120.831715 96.005586 
L 121.554776 98.113413 
L 122.277838 94.834571 
L 123.72396 91.789931 
L 125.170083 90.238336 
L 126.616206 89.477177 
L 127.339267 89.155147 
L 128.062328 89.155147 
L 128.78539 88.18906 
L 129.508451 86.286161 
L 130.231512 86.169059 
L 130.954574 85.554276 
L 131.677635 86.315436 
L 132.400696 85.46645 
L 133.123758 85.788479 
L 134.569881 85.144421 
L 135.292942 84.880943 
L 136.016003 84.763841 
L 137.462126 84.793116 
L 138.185187 84.763841 
L 138.908249 104.056314 
L 139.63131 108.096316 
L 140.354371 107.803562 
L 141.077433 109.58936 
L 141.800494 112.956028 
L 142.523555 102.826748 
L 143.246617 107.422982 
L 143.969678 108.8282 
L 144.692739 106.603272 
L 145.415801 107.62791 
L 146.138862 102.153415 
L 146.861923 105.344431 
L 147.584985 106.983852 
L 148.308046 100.631095 
L 149.031108 103.295154 
L 149.754169 99.401529 
L 150.47723 104.553995 
L 151.200292 100.543269 
L 151.923353 102.299791 
L 152.646414 100.543269 
L 153.369476 104.788198 
L 154.092537 98.611094 
L 154.815598 98.640369 
L 155.53866 98.552543 
L 156.261721 100.953124 
L 156.984782 101.304429 
L 158.430905 97.49863 
L 159.153966 100.074863 
L 159.877028 97.762108 
L 160.600089 96.269064 
L 161.32315 102.065588 
L 162.046212 97.381528 
L 162.769273 97.235151 
L 163.492334 96.444716 
L 164.215396 98.31834 
L 164.938457 94.805295 
L 165.661519 95.420078 
L 166.38458 96.532542 
L 167.107641 93.078048 
L 167.830703 95.420078 
L 168.553764 95.859209 
L 169.276825 94.01486 
L 169.999887 92.931671 
L 170.722948 92.082685 
L 171.446009 90.940945 
L 172.169071 93.517179 
L 172.892132 93.312251 
L 173.615193 91.585004 
L 174.338255 93.341526 
L 175.061316 89.945583 
L 175.784377 90.472539 
L 176.507439 91.789931 
L 177.2305 90.004133 
L 178.676623 87.310799 
L 179.399684 90.882395 
L 180.122745 88.745292 
L 180.845807 88.247611 
L 181.568868 89.418626 
L 182.29193 85.437175 
L 183.014991 87.80848 
L 183.738052 85.905581 
L 184.461114 87.340074 
L 185.184175 86.22761 
L 185.907236 87.398625 
L 186.630298 85.788479 
L 187.353359 84.998044 
L 188.07642 84.763841 
L 188.799482 84.70529 
L 190.245604 83.446449 
L 190.968666 84.178334 
L 191.691727 84.295435 
L 192.414788 84.236884 
L 193.13785 84.968769 
L 193.860911 82.158333 
L 194.583972 80.577462 
L 195.307034 80.723839 
L 196.030095 80.636013 
L 196.753157 79.20152 
L 197.476218 81.016593 
L 198.199279 79.787027 
L 198.922341 80.313984 
L 199.645402 80.313984 
L 200.368463 81.836303 
L 201.091525 79.582099 
L 201.814586 78.703838 
L 202.537647 78.908766 
L 203.260709 78.176881 
L 205.429893 78.908766 
L 206.152954 77.854852 
L 206.876015 77.064417 
L 207.599077 77.152243 
L 208.322138 78.645287 
L 209.045199 76.391083 
L 209.768261 76.771663 
L 211.214383 76.273982 
L 211.937445 75.512822 
L 212.660506 75.7763 
L 213.383568 75.629924 
L 214.106629 75.220068 
L 214.82969 75.220068 
L 215.552752 75.483547 
L 216.275813 75.981228 
L 216.998874 75.249344 
L 217.721936 75.454271 
L 219.89112 74.663836 
L 220.614181 74.722387 
L 221.337242 74.95659 
L 222.060304 74.57601 
L 222.783365 74.780938 
L 223.506426 74.693112 
L 224.229488 74.751662 
L 224.952549 74.517459 
L 225.67561 102.416893 
L 226.398672 98.113413 
L 227.121733 99.84066 
L 227.844794 98.669645 
L 228.567856 102.826748 
L 229.290917 99.284428 
L 230.013979 98.669645 
L 230.73704 101.597182 
L 231.460101 95.21515 
L 232.183163 96.473992 
L 232.906224 96.181238 
L 233.629285 97.732833 
L 234.352347 95.1566 
L 235.075408 96.093412 
L 235.798469 96.532542 
L 236.521531 98.69892 
L 237.244592 95.244426 
L 237.967653 98.786746 
L 238.690715 98.552543 
L 239.413776 96.913122 
L 240.136837 94.980947 
L 240.859899 98.406166 
L 241.58296 96.971673 
L 242.306021 97.176601 
L 243.029083 97.93776 
L 243.752144 97.645007 
L 244.475206 93.722106 
L 245.198267 97.87921 
L 245.921328 95.098049 
L 246.64439 96.591093 
L 247.367451 96.239789 
L 248.090512 93.985585 
L 248.813574 94.834571 
L 249.536635 92.463265 
L 250.259696 96.269064 
L 250.982758 94.336889 
L 251.705819 92.990222 
L 252.42888 91.994859 
L 253.151942 93.663555 
L 253.875003 92.756019 
L 254.598064 92.258337 
L 256.044187 95.1566 
L 256.767248 96.093412 
L 257.49031 89.945583 
L 258.213371 91.585004 
L 258.936432 91.585004 
L 259.659494 90.970221 
L 260.382555 92.024134 
L 261.105617 92.43399 
L 261.828678 91.262975 
L 262.551739 97.615731 
L 263.274801 95.53718 
L 263.997862 89.213698 
L 264.720923 93.517179 
L 265.443985 93.517179 
L 266.167046 90.677467 
L 266.890107 92.785294 
L 267.613169 90.062684 
L 268.33623 91.907033 
L 269.059291 91.467902 
L 269.782353 99.050225 
L 270.505414 90.238336 
L 271.228475 88.95022 
L 271.951537 89.389351 
L 272.674598 90.296887 
L 273.397659 91.67283 
L 274.120721 91.058047 
L 274.843782 90.677467 
L 275.566843 88.18906 
L 276.289905 91.643554 
L 277.012966 93.575729 
L 277.736028 90.355438 
L 278.459089 88.803843 
L 279.18215 90.91167 
L 279.905212 88.481814 
L 280.628273 91.614279 
L 281.351334 90.53109 
L 282.074396 87.662103 
L 282.797457 89.682104 
L 283.520518 87.749929 
L 284.24358 91.848482 
L 285.689702 86.783842 
L 286.412764 88.335437 
L 287.135825 89.067321 
L 287.858886 89.3308 
L 288.581948 86.783842 
L 289.305009 89.155147 
L 290.02807 88.013408 
L 290.751132 87.691379 
L 291.474193 85.08587 
L 292.197255 87.193697 
L 292.920316 85.525001 
L 293.643377 87.076596 
L 294.366439 85.84703 
L 295.0895 84.998044 
L 295.812561 88.306162 
L 296.535623 86.461813 
L 297.258684 85.671378 
L 297.981745 85.437175 
L 298.704807 86.842393 
L 299.427868 84.031957 
L 300.150929 87.135147 
L 300.873991 87.076596 
L 301.597052 84.26616 
L 302.320113 84.910218 
L 303.043175 84.061232 
L 303.766236 85.964131 
L 304.489297 86.051958 
L 305.212359 85.612827 
L 305.93542 85.817755 
L 306.658481 86.286161 
L 307.381543 82.480362 
L 308.104604 87.457176 
L 308.827666 83.680652 
L 309.550727 85.290798 
L 310.273788 83.944131 
L 310.99685 85.407899 
L 311.719911 84.353986 
L 312.442972 82.041231 
L 313.166034 83.358623 
L 313.889095 83.592826 
L 314.612156 82.919492 
L 315.335218 81.953405 
L 316.058279 83.973406 
L 316.78134 81.484999 
L 317.504402 83.534275 
L 318.227463 83.12442 
L 318.950524 84.26616 
L 319.673586 81.309347 
L 320.396647 80.636013 
L 321.119708 80.78239 
L 321.84277 80.226158 
L 322.565831 84.149058 
L 323.288892 81.484999 
L 324.011954 80.138332 
L 324.735015 79.669926 
L 325.458077 82.421811 
L 326.181138 80.636013 
L 326.904199 81.54355 
L 327.627261 80.109056 
L 328.350322 81.748477 
L 329.073383 79.816302 
L 329.796445 79.728476 
L 330.519506 80.636013 
L 331.242567 80.196882 
L 331.965629 78.996592 
L 332.68869 80.723839 
L 333.411751 78.381809 
L 334.134813 80.811665 
L 334.857874 80.840941 
L 335.580935 79.728476 
L 336.303997 79.991955 
L 337.027058 79.025867 
L 337.750119 77.737751 
L 338.473181 77.913403 
L 339.196242 77.444997 
L 339.919304 78.001229 
L 340.642365 79.611375 
L 341.365426 77.942678 
L 342.088488 77.269345 
L 342.811549 78.557461 
L 343.53461 77.942678 
L 344.257672 76.625286 
L 344.980733 77.474272 
L 345.703794 77.708475 
L 346.426856 75.366445 
L 347.149917 76.47891 
L 347.872978 75.629924 
L 348.59604 77.415722 
L 349.319101 77.620649 
L 350.765224 75.893402 
L 351.488285 76.186156 
L 352.211346 77.415722 
L 352.934408 75.951953 
L 353.657469 76.859489 
L 354.38053 76.215431 
L 355.103592 75.7763 
L 355.826653 75.571373 
L 356.549715 76.47891 
L 357.272776 76.53746 
L 357.995837 76.91804 
L 358.718899 76.508185 
L 359.44196 76.566736 
L 360.165021 77.181519 
L 360.888083 77.327895 
L 361.611144 75.629924 
L 362.334205 76.47891 
L 363.057267 76.654562 
L 363.780328 76.391083 
L 364.503389 76.654562 
L 365.226451 75.483547 
L 365.949512 77.093692 
L 366.672573 77.240069 
L 367.395635 77.825577 
L 368.118696 76.215431 
L 369.564819 78.264707 
L 370.28788 78.089055 
L 371.010941 77.767026 
L 371.734003 77.093692 
L 372.457064 77.181519 
L 373.180126 76.566736 
L 373.903187 76.47891 
L 374.626248 76.596011 
L 375.34931 79.435723 
L 376.072371 76.010504 
L 376.795432 76.273982 
L 377.518494 76.830214 
L 378.241555 76.15688 
L 378.964616 75.044416 
L 379.687678 76.859489 
L 380.410739 79.406447 
L 381.1338 76.888765 
L 381.856862 76.596011 
L 382.579923 77.532823 
L 383.302984 76.449634 
L 384.026046 76.888765 
L 384.749107 76.713113 
L 385.472168 76.127605 
L 386.19523 76.654562 
L 386.918291 77.327895 
L 387.641353 76.420359 
L 388.364414 77.005866 
L 389.087475 77.181519 
L 390.533598 76.800939 
L 391.256659 76.566736 
L 391.979721 78.001229 
L 392.702782 76.91804 
L 393.425843 76.91804 
L 394.148905 77.152243 
L 394.871966 78.05978 
L 395.595027 78.645287 
L 396.318089 75.688474 
L 397.04115 75.483547 
L 397.764211 77.942678 
L 398.487273 78.118331 
L 398.487273 78.118331 
" clip-path="url(#p85a9264af4)" style="fill: none; stroke: #ff7f0e; stroke-width: 1.5; stroke-linecap: square"/>
   </g>
   <g id="line2d_17">
    <path d="M 73.832727 284.381528 
L 75.27885 240.508843 
L 76.724973 223.630075 
L 77.448034 219.521427 
L 78.171095 217.441866 
L 78.894157 208.628968 
L 80.340279 187.389178 
L 81.063341 184.623159 
L 81.786402 176.607763 
L 82.509463 179.353592 
L 83.232525 184.36069 
L 83.955586 173.155288 
L 84.678647 173.83165 
L 85.401709 163.494414 
L 86.12477 164.665429 
L 86.847832 171.126201 
L 87.570893 165.099512 
L 88.293954 162.535393 
L 89.017016 157.417249 
L 89.740077 158.709404 
L 90.463138 159.254531 
L 91.1862 159.315101 
L 91.909261 155.862626 
L 92.632322 155.590062 
L 93.355384 156.09481 
L 94.078445 154.863225 
L 94.801506 155.680917 
L 95.524568 176.819757 
L 96.247629 171.106011 
L 96.97069 173.781175 
L 97.693752 174.144594 
L 98.416813 175.679027 
L 99.139874 172.56978 
L 99.862936 171.196866 
L 100.585997 164.766378 
L 101.309059 163.1209 
L 102.03212 173.084623 
L 102.755181 166.74499 
L 103.478243 158.881018 
L 104.201304 162.030645 
L 104.924365 163.009856 
L 105.647427 162.414253 
L 106.370488 161.556182 
L 107.093549 164.524099 
L 107.816611 158.255131 
L 108.539672 159.163677 
L 109.262733 156.851932 
L 109.985795 153.63164 
L 110.708856 158.366175 
L 111.431917 158.43684 
L 112.154979 154.126293 
L 112.87804 146.070517 
L 113.601101 141.92149 
L 114.324163 151.400655 
L 115.047224 148.897105 
L 116.493347 144.758173 
L 117.216408 141.093703 
L 117.93947 144.737983 
L 118.662531 143.990956 
L 119.385592 150.542583 
L 120.108654 144.970167 
L 120.831715 148.493307 
L 121.554776 150.653628 
L 122.277838 143.284309 
L 123.000899 141.618641 
L 123.72396 141.86092 
L 124.447022 141.467217 
L 125.170083 142.809846 
L 125.893144 142.547377 
L 126.616206 139.4987 
L 127.339267 142.678611 
L 128.062328 139.781359 
L 128.78539 139.963068 
L 129.508451 139.922688 
L 130.231512 137.721987 
L 130.954574 138.35797 
L 131.677635 138.145976 
L 132.400696 137.721987 
L 133.123758 138.973762 
L 133.846819 137.631133 
L 134.569881 137.358569 
L 135.292942 138.852623 
L 136.016003 137.883507 
L 136.739065 137.540278 
L 137.462126 137.762367 
L 138.185187 136.813441 
L 138.908249 156.538988 
L 139.63131 156.246234 
L 140.354371 155.327593 
L 141.077433 155.388163 
L 141.800494 162.908906 
L 142.523555 149.310998 
L 143.246617 155.115599 
L 143.969678 155.388163 
L 144.692739 158.073421 
L 145.415801 159.506905 
L 146.138862 150.310399 
L 146.861923 153.530691 
L 147.584985 154.156578 
L 148.308046 151.077616 
L 149.031108 159.819849 
L 149.754169 149.179764 
L 150.47723 160.708205 
L 151.200292 156.306804 
L 151.923353 157.366774 
L 152.646414 154.408952 
L 153.369476 145.161971 
L 154.092537 144.970167 
L 154.815598 147.090108 
L 155.53866 145.212446 
L 156.261721 152.036637 
L 156.984782 152.218346 
L 157.707844 147.221342 
L 158.430905 146.232036 
L 159.153966 146.120992 
L 159.877028 150.754577 
L 160.600089 153.359076 
L 161.32315 153.621545 
L 162.046212 143.637632 
L 162.769273 153.076418 
L 163.492334 147.514096 
L 164.215396 144.001051 
L 164.938457 145.091306 
L 165.661519 146.948778 
L 166.38458 146.635835 
L 167.107641 137.05572 
L 167.830703 147.403051 
L 168.553764 147.110298 
L 169.276825 146.5046 
L 169.999887 142.729086 
L 170.722948 146.211846 
L 171.446009 143.00165 
L 172.169071 143.738582 
L 172.892132 149.018245 
L 173.615193 149.553277 
L 174.338255 149.866221 
L 175.061316 143.183359 
L 175.784377 147.241532 
L 176.507439 142.234433 
L 177.2305 144.293805 
L 177.953561 141.235033 
L 178.676623 139.205946 
L 179.399684 141.184558 
L 180.122745 141.78016 
L 180.845807 142.143579 
L 181.568868 144.26352 
L 182.29193 141.638831 
L 183.014991 138.307495 
L 183.738052 138.913192 
L 184.461114 137.318189 
L 185.907236 139.266516 
L 186.630298 139.216041 
L 187.353359 137.065815 
L 188.07642 139.256421 
L 188.799482 135.682806 
L 189.522543 134.703595 
L 190.245604 137.287904 
L 190.968666 134.63293 
L 192.414788 138.600249 
L 193.13785 134.410841 
L 193.860911 134.420936 
L 194.583972 132.27071 
L 195.307034 132.189951 
L 196.030095 133.270111 
L 196.753157 130.887701 
L 197.476218 135.178058 
L 198.199279 132.613939 
L 198.922341 128.192348 
L 200.368463 138.004646 
L 201.091525 132.846123 
L 201.814586 130.483903 
L 202.537647 130.594947 
L 203.260709 133.360966 
L 203.98377 130.837226 
L 204.706831 132.603844 
L 205.429893 129.635927 
L 206.152954 130.917986 
L 206.876015 129.010039 
L 207.599077 129.797446 
L 208.322138 131.776057 
L 209.045199 128.656716 
L 209.768261 128.434627 
L 210.491322 127.879404 
L 211.214383 130.544473 
L 211.937445 128.86871 
L 212.660506 129.413837 
L 214.106629 128.565861 
L 214.82969 128.646621 
L 215.552752 128.858615 
L 216.275813 128.535576 
L 216.998874 127.616935 
L 217.721936 128.616336 
L 218.444997 126.950668 
L 219.168058 127.485701 
L 219.89112 128.979754 
L 220.614181 128.182253 
L 221.337242 127.970259 
L 222.060304 128.515386 
L 222.783365 127.536175 
L 223.506426 127.970259 
L 224.229488 127.788549 
L 224.952549 127.041522 
L 225.67561 153.560975 
L 226.398672 152.712999 
L 227.121733 154.328192 
L 227.844794 148.654826 
L 228.567856 153.984964 
L 229.290917 155.267023 
L 230.013979 152.228441 
L 230.73704 160.072223 
L 231.460101 147.564571 
L 232.183163 151.067521 
L 232.906224 153.197557 
L 233.629285 147.302102 
L 234.352347 145.273015 
L 235.075408 144.778363 
L 235.798469 150.16907 
L 236.521531 146.332986 
L 237.244592 151.501604 
L 237.967653 151.148281 
L 238.690715 148.200553 
L 239.413776 153.066323 
L 240.136837 144.515894 
L 240.859899 152.238536 
L 241.58296 149.664322 
L 242.306021 150.542583 
L 243.029083 151.925592 
L 243.752144 142.416143 
L 244.475206 140.477911 
L 245.198267 149.179764 
L 245.921328 147.392957 
L 247.367451 147.86742 
L 248.090512 142.406048 
L 248.813574 141.426837 
L 249.536635 141.083608 
L 250.259696 150.724292 
L 250.982758 143.698202 
L 251.705819 144.324089 
L 252.42888 139.39775 
L 253.151942 150.835337 
L 253.875003 145.908998 
L 254.598064 143.294404 
L 256.044187 141.547976 
L 256.767248 156.427943 
L 257.49031 140.821139 
L 258.213371 144.778363 
L 258.936432 142.042629 
L 259.659494 142.537282 
L 260.382555 141.790255 
L 261.105617 141.386457 
L 261.828678 143.466018 
L 262.551739 151.39056 
L 263.274801 144.253425 
L 263.997862 141.487406 
L 264.720923 150.794957 
L 265.443985 143.203549 
L 266.167046 143.314594 
L 266.890107 141.235033 
L 267.613169 142.466617 
L 268.33623 137.560468 
L 269.059291 148.422642 
L 269.782353 152.965373 
L 270.505414 140.528386 
L 271.228475 138.781958 
L 271.951537 141.638831 
L 272.674598 139.327086 
L 273.397659 144.253425 
L 274.120721 138.479109 
L 274.843782 140.427436 
L 275.566843 135.056919 
L 276.289905 145.141781 
L 277.012966 140.911994 
L 277.736028 145.797953 
L 278.459089 138.27721 
L 279.18215 141.9013 
L 279.905212 140.821139 
L 280.628273 145.28311 
L 281.351334 140.689905 
L 282.074396 138.489204 
L 282.797457 139.37756 
L 283.520518 138.125786 
L 284.24358 146.5046 
L 284.966641 141.002849 
L 285.689702 136.611542 
L 286.412764 139.912593 
L 287.135825 138.943477 
L 287.858886 137.358569 
L 288.581948 141.154273 
L 289.305009 142.042629 
L 290.02807 141.245127 
L 290.751132 136.914391 
L 291.474193 139.37756 
L 292.197255 145.46482 
L 292.920316 139.791454 
L 293.643377 141.144178 
L 294.366439 142.739181 
L 295.0895 132.957167 
L 295.812561 138.014741 
L 296.535623 133.623435 
L 297.258684 137.792652 
L 297.981745 141.043228 
L 298.704807 133.764764 
L 299.427868 132.048621 
L 300.150929 138.852623 
L 300.873991 140.59905 
L 301.597052 137.207145 
L 302.320113 135.904895 
L 303.766236 131.160265 
L 304.489297 137.812842 
L 305.212359 138.529584 
L 305.93542 133.724384 
L 306.658481 136.621637 
L 307.381543 132.482704 
L 308.104604 139.205946 
L 308.827666 129.070609 
L 309.550727 138.650723 
L 310.273788 131.735678 
L 310.99685 136.450023 
L 311.719911 134.925684 
L 312.442972 130.211339 
L 313.166034 136.99515 
L 313.889095 139.740979 
L 314.612156 133.673909 
L 315.335218 131.957767 
L 316.058279 134.097898 
L 316.78134 133.421536 
L 317.504402 137.621038 
L 318.227463 134.63293 
L 318.950524 134.350272 
L 319.673586 137.025435 
L 320.396647 131.675108 
L 321.119708 131.473209 
L 321.84277 133.583055 
L 322.565831 141.204748 
L 323.288892 131.988052 
L 324.011954 131.927482 
L 324.735015 130.534378 
L 325.458077 134.663215 
L 326.181138 128.76776 
L 326.904199 131.160265 
L 327.627261 132.563464 
L 328.350322 128.495196 
L 329.073383 127.717885 
L 329.796445 127.172757 
L 330.519506 131.392449 
L 331.242567 131.25112 
L 331.965629 128.929279 
L 332.68869 132.654319 
L 333.411751 127.808739 
L 334.134813 135.702996 
L 334.857874 132.906693 
L 335.580935 132.462515 
L 336.303997 129.514787 
L 337.750119 125.941172 
L 338.473181 127.60684 
L 339.196242 125.628228 
L 339.919304 128.000543 
L 341.365426 126.082502 
L 342.088488 132.119286 
L 342.811549 132.129381 
L 343.53461 126.395445 
L 344.257672 127.162662 
L 344.980733 129.353268 
L 345.703794 127.475606 
L 346.426856 128.333677 
L 347.149917 128.626431 
L 347.872978 123.730376 
L 348.59604 127.051617 
L 349.319101 127.293896 
L 350.042162 126.203641 
L 350.765224 124.00294 
L 351.488285 125.062911 
L 352.211346 126.950668 
L 352.934408 123.932276 
L 353.657469 128.151968 
L 354.38053 126.577154 
L 355.103592 129.232128 
L 355.826653 129.070609 
L 356.549715 123.488097 
L 357.272776 125.830128 
L 357.995837 125.547469 
L 358.718899 127.980354 
L 359.44196 127.344371 
L 360.165021 126.274306 
L 360.888083 126.950668 
L 362.334205 122.296893 
L 363.057267 128.606241 
L 363.780328 128.242822 
L 364.503389 127.60684 
L 365.226451 127.616935 
L 365.949512 128.051018 
L 366.672573 125.496994 
L 367.395635 127.182852 
L 368.118696 126.46611 
L 368.841757 125.062911 
L 369.564819 124.568258 
L 370.28788 125.719083 
L 371.010941 130.07001 
L 371.734003 126.284401 
L 372.457064 124.447118 
L 373.180126 124.204839 
L 373.903187 122.86221 
L 374.626248 128.464911 
L 375.34931 123.599142 
L 376.072371 123.104489 
L 376.795432 124.477403 
L 377.518494 124.527878 
L 378.241555 120.903788 
L 378.964616 125.496994 
L 379.687678 124.881202 
L 380.410739 125.416234 
L 381.1338 126.153166 
L 381.856862 124.134175 
L 382.579923 128.283202 
L 383.302984 125.16386 
L 384.026046 124.729777 
L 384.749107 125.547469 
L 385.472168 123.922181 
L 386.19523 128.263012 
L 386.918291 128.969659 
L 387.641353 127.536175 
L 388.364414 127.970259 
L 389.087475 127.939974 
L 389.810537 133.684004 
L 390.533598 128.384152 
L 391.979721 127.950069 
L 392.702782 123.467908 
L 393.425843 125.910887 
L 394.148905 125.385949 
L 394.871966 125.486899 
L 395.595027 123.478003 
L 396.318089 125.22443 
L 397.04115 123.609237 
L 397.764211 125.042721 
L 398.487273 123.780851 
L 398.487273 123.780851 
" clip-path="url(#p85a9264af4)" style="fill: none; stroke: #2ca02c; stroke-width: 1.5; stroke-linecap: square"/>
   </g>
   <g id="line2d_18">
    <path d="M 73.832727 295.488 
L 75.27885 278.098426 
L 76.001911 279.53292 
L 76.724973 268.232625 
L 77.448034 261.352911 
L 78.171095 258.396098 
L 78.894157 251.340732 
L 79.617218 249.58421 
L 80.340279 239.923336 
L 81.063341 237.376378 
L 81.786402 227.393475 
L 82.509463 228.915794 
L 83.232525 225.227097 
L 85.401709 210.267379 
L 86.12477 207.22274 
L 86.847832 213.692598 
L 87.570893 203.973174 
L 88.293954 207.193465 
L 89.017016 203.475492 
L 89.740077 197.678968 
L 90.463138 194.692879 
L 91.1862 195.89317 
L 91.909261 197.415489 
L 92.632322 194.487952 
L 93.355384 193.902444 
L 94.078445 194.136647 
L 94.801506 196.507953 
L 95.524568 216.795788 
L 96.247629 215.39057 
L 96.97069 211.379844 
L 97.693752 208.452306 
L 98.416813 214.600135 
L 99.139874 214.102454 
L 99.862936 204.061 
L 100.585997 206.432305 
L 101.309059 203.124188 
L 102.03212 204.148826 
L 102.755181 210.062452 
L 103.478243 193.492589 
L 104.201304 201.484767 
L 104.924365 197.766794 
L 105.647427 202.011723 
L 106.370488 192.438675 
L 107.093549 198.791432 
L 107.816611 186.612875 
L 108.539672 192.994907 
L 109.262733 186.261571 
L 109.985795 194.078096 
L 110.708856 191.384762 
L 111.431917 186.495774 
L 112.154979 187.491137 
L 112.87804 189.218384 
L 113.601101 180.113742 
L 114.324163 187.520412 
L 115.047224 182.71925 
L 115.770285 181.548235 
L 116.493347 181.548235 
L 117.216408 174.17084 
L 117.93947 179.294031 
L 118.662531 179.001278 
L 119.385592 179.645336 
L 120.108654 176.278668 
L 120.831715 175.166203 
L 121.554776 180.406496 
L 122.277838 171.418955 
L 123.000899 165.94446 
L 123.72396 169.603882 
L 124.447022 166.647069 
L 125.170083 169.311128 
L 125.893144 165.680981 
L 126.616206 170.804172 
L 127.339267 171.0091 
L 128.062328 171.653158 
L 128.78539 166.822721 
L 129.508451 167.086199 
L 130.231512 166.734895 
L 130.954574 164.978372 
L 132.400696 165.505329 
L 133.123758 164.217212 
L 133.846819 166.559243 
L 134.569881 164.509966 
L 135.292942 166.295764 
L 136.016003 164.949097 
L 136.739065 163.338951 
L 137.462126 163.895183 
L 138.185187 163.953734 
L 138.908249 188.398673 
L 139.63131 190.623602 
L 140.354371 183.948816 
L 141.077433 188.457224 
L 141.800494 196.888532 
L 142.523555 188.310847 
L 143.246617 185.558962 
L 143.969678 191.384762 
L 144.692739 193.199835 
L 145.415801 190.213747 
L 146.861923 189.862442 
L 147.584985 189.30621 
L 148.308046 186.466498 
L 149.031108 194.048821 
L 149.754169 188.720702 
L 150.47723 186.817803 
L 151.200292 177.771712 
L 151.923353 179.528234 
L 152.646414 189.218384 
L 153.369476 187.72534 
L 154.092537 182.163018 
L 154.815598 188.867079 
L 155.53866 185.119831 
L 156.261721 185.149107 
L 156.984782 184.827077 
L 157.707844 180.347945 
L 158.430905 186.817803 
L 159.153966 181.255481 
L 159.877028 186.905629 
L 160.600089 182.045917 
L 161.32315 179.879539 
L 162.046212 191.209109 
L 162.769273 182.894903 
L 163.492334 187.432586 
L 164.215396 177.683886 
L 164.938457 179.586785 
L 165.661519 182.953453 
L 166.38458 183.187656 
L 167.107641 184.446498 
L 167.830703 190.477225 
L 168.553764 184.24157 
L 169.276825 174.522145 
L 169.999887 177.420407 
L 170.722948 178.913451 
L 171.446009 177.069103 
L 172.169071 175.722435 
L 172.892132 181.314032 
L 173.615193 179.469684 
L 174.338255 181.284757 
L 175.061316 181.811714 
L 175.784377 177.069103 
L 176.507439 182.426497 
L 177.2305 182.221569 
L 177.953561 173.438956 
L 178.676623 177.332581 
L 179.399684 178.942727 
L 180.122745 171.38968 
L 180.845807 181.196931 
L 181.568868 179.645336 
L 182.29193 168.989099 
L 183.014991 183.948816 
L 183.738052 174.844174 
L 184.461114 170.979824 
L 185.184175 176.366494 
L 185.907236 175.956638 
L 187.353359 171.38968 
L 188.07642 177.537509 
L 188.799482 173.819536 
L 189.522543 171.945912 
L 190.245604 171.711709 
L 191.691727 175.166203 
L 192.414788 176.307943 
L 193.13785 176.952001 
L 193.860911 171.565332 
L 194.583972 165.095474 
L 195.307034 166.998373 
L 196.030095 167.700982 
L 196.753157 162.226487 
L 197.476218 169.838085 
L 198.199279 163.690256 
L 198.922341 161.523878 
L 199.645402 163.368227 
L 200.368463 170.891998 
L 201.091525 164.04156 
L 201.814586 162.724168 
L 202.537647 162.197211 
L 203.260709 163.60243 
L 203.98377 168.110838 
L 204.706831 164.158662 
L 205.429893 158.21576 
L 206.876015 160.352863 
L 207.599077 164.861271 
L 208.322138 164.246488 
L 209.045199 161.172573 
L 209.768261 161.114023 
L 210.491322 159.094022 
L 211.214383 160.704167 
L 211.937445 158.742717 
L 212.660506 160.030834 
L 213.383568 163.368227 
L 214.106629 160.089384 
L 214.82969 164.275763 
L 215.552752 159.73808 
L 216.275813 161.758081 
L 217.721936 160.704167 
L 218.444997 158.21576 
L 219.168058 160.030834 
L 219.89112 157.542427 
L 220.614181 157.688804 
L 221.337242 157.366774 
L 222.060304 162.724168 
L 222.783365 160.001558 
L 223.506426 160.850544 
L 224.229488 160.616341 
L 224.952549 158.801268 
L 225.67561 190.008819 
L 226.398672 191.326211 
L 227.121733 179.059828 
L 227.844794 189.979544 
L 228.567856 183.48041 
L 229.290917 180.787075 
L 230.013979 186.466498 
L 230.73704 180.172293 
L 231.460101 188.662152 
L 232.183163 188.281572 
L 232.906224 187.491137 
L 233.629285 183.187656 
L 234.352347 182.631424 
L 235.075408 191.092008 
L 235.798469 191.64824 
L 236.521531 189.423311 
L 237.244592 177.976639 
L 237.967653 181.928815 
L 238.690715 181.577511 
L 239.413776 183.597512 
L 240.136837 186.525049 
L 240.859899 177.391132 
L 241.58296 182.689975 
L 242.306021 191.794617 
L 243.029083 193.785343 
L 243.752144 178.210842 
L 244.475206 178.064465 
L 245.198267 182.426497 
L 245.921328 182.455772 
L 246.64439 179.762437 
L 247.367451 181.460409 
L 248.090512 182.163018 
L 248.813574 182.485047 
L 249.536635 184.680701 
L 250.259696 189.247659 
L 250.982758 180.37722 
L 251.705819 176.278668 
L 252.42888 183.978091 
L 253.151942 183.626787 
L 253.875003 182.28012 
L 254.598064 177.478958 
L 255.321126 177.010552 
L 256.044187 178.357219 
L 256.767248 180.172293 
L 257.49031 178.503596 
L 258.213371 171.331129 
L 258.936432 178.445045 
L 259.659494 176.805624 
L 260.382555 182.71925 
L 261.105617 175.429682 
L 261.828678 175.927363 
L 262.551739 190.213747 
L 263.274801 183.275482 
L 263.997862 181.577511 
L 264.720923 177.156929 
L 265.443985 185.500411 
L 266.167046 182.426497 
L 266.890107 181.636061 
L 267.613169 169.516056 
L 268.33623 178.210842 
L 269.059291 180.552872 
L 269.782353 185.324759 
L 270.505414 174.053739 
L 271.228475 174.258667 
L 271.951537 175.839537 
L 272.674598 170.423592 
L 273.397659 183.275482 
L 274.120721 173.556058 
L 274.843782 175.341855 
L 275.566843 174.873449 
L 276.289905 180.904177 
L 277.012966 182.514323 
L 277.736028 176.776349 
L 278.459089 176.190841 
L 279.18215 174.55142 
L 279.905212 175.751711 
L 280.628273 179.791713 
L 281.351334 171.740984 
L 282.074396 172.472869 
L 282.797457 180.669974 
L 283.520518 174.083014 
L 284.24358 178.620698 
L 284.966641 169.398954 
L 286.412764 175.663885 
L 287.135825 168.901273 
L 287.858886 171.653158 
L 288.581948 175.576058 
L 289.305009 173.73171 
L 290.02807 176.717798 
L 290.751132 169.86736 
L 291.474193 168.169388 
L 292.197255 176.044464 
L 292.920316 175.839537 
L 294.366439 172.355767 
L 295.0895 168.608519 
L 295.812561 174.902725 
L 296.535623 177.742436 
L 297.258684 163.690256 
L 297.981745 171.214027 
L 298.704807 165.94446 
L 299.427868 175.546783 
L 300.150929 167.554605 
L 300.873991 174.434319 
L 301.597052 170.365041 
L 302.320113 162.987647 
L 303.043175 164.773445 
L 303.766236 162.343588 
L 304.489297 163.397502 
L 305.212359 167.056924 
L 305.93542 173.35113 
L 306.658481 173.321854 
L 307.381543 170.452868 
L 308.104604 174.55142 
L 308.827666 166.676344 
L 309.550727 173.760985 
L 310.273788 166.647069 
L 310.99685 164.012285 
L 311.719911 168.637794 
L 312.442972 168.169388 
L 313.166034 168.549968 
L 313.889095 174.55142 
L 314.612156 171.155477 
L 315.335218 164.305039 
L 316.058279 167.876634 
L 316.78134 164.275763 
L 317.504402 168.66707 
L 318.227463 167.876634 
L 318.950524 173.409681 
L 319.673586 171.38968 
L 320.396647 167.261852 
L 321.119708 167.700982 
L 321.84277 164.129386 
L 322.565831 170.101563 
L 323.288892 172.20939 
L 324.011954 165.388228 
L 324.735015 169.164751 
L 325.458077 171.126201 
L 326.181138 170.189389 
L 326.904199 162.782719 
L 327.627261 167.349678 
L 328.350322 164.012285 
L 329.073383 162.899821 
L 329.796445 160.235761 
L 330.519506 164.305039 
L 331.242567 163.251125 
L 331.965629 163.251125 
L 332.68869 166.559243 
L 333.411751 161.377501 
L 334.134813 163.426777 
L 334.857874 164.919821 
L 335.580935 161.201849 
L 336.303997 167.847359 
L 337.027058 162.929096 
L 337.750119 164.597792 
L 338.473181 160.55779 
L 339.196242 159.767355 
L 339.919304 166.032286 
L 340.642365 161.084747 
L 341.365426 162.489965 
L 342.088488 161.377501 
L 342.811549 160.87982 
L 343.53461 157.77663 
L 344.257672 154.087932 
L 344.980733 157.074021 
L 345.703794 162.519241 
L 346.426856 157.747354 
L 347.149917 158.15721 
L 347.872978 156.429962 
L 348.59604 156.693441 
L 349.319101 161.026196 
L 350.042162 156.781267 
L 350.765224 161.845907 
L 351.488285 156.956919 
L 352.211346 158.449963 
L 352.934408 158.391413 
L 353.657469 160.323587 
L 354.38053 158.537789 
L 355.103592 161.260399 
L 355.826653 158.918369 
L 356.549715 156.195759 
L 357.272776 166.32504 
L 357.995837 154.819817 
L 358.718899 158.625616 
L 359.44196 156.459238 
L 360.888083 162.987647 
L 361.611144 164.509966 
L 362.334205 157.77663 
L 363.057267 163.163299 
L 363.780328 163.543879 
L 364.503389 158.479239 
L 365.226451 160.294312 
L 365.949512 153.824454 
L 366.672573 162.665618 
L 367.395635 162.226487 
L 368.118696 167.759533 
L 368.841757 162.431414 
L 369.564819 159.006195 
L 370.28788 156.312861 
L 371.010941 158.537789 
L 371.734003 163.631705 
L 372.457064 165.915184 
L 373.180126 157.952282 
L 373.903187 159.328225 
L 374.626248 159.913732 
L 375.34931 161.523878 
L 376.072371 160.850544 
L 377.518494 164.158662 
L 378.241555 160.235761 
L 378.964616 160.294312 
L 379.687678 163.895183 
L 380.410739 154.439237 
L 381.1338 163.748806 
L 382.579923 155.258947 
L 383.302984 157.483876 
L 384.026046 154.556338 
L 384.749107 159.269674 
L 385.472168 155.024744 
L 386.19523 162.811994 
L 386.918291 165.154024 
L 387.641353 153.092569 
L 388.364414 161.231124 
L 389.087475 160.49924 
L 389.810537 165.124749 
L 390.533598 161.758081 
L 391.256659 160.206486 
L 391.979721 156.020107 
L 392.702782 159.796631 
L 393.425843 160.733443 
L 394.148905 159.152572 
L 394.871966 162.489965 
L 395.595027 159.328225 
L 396.318089 160.996921 
L 397.04115 158.684166 
L 397.764211 158.742717 
L 398.487273 164.070836 
L 398.487273 164.070836 
" clip-path="url(#p85a9264af4)" style="fill: none; stroke: #d62728; stroke-width: 1.5; stroke-linecap: square"/>
   </g>
   <g id="line2d_19">
    <path d="M 350.765224 75.220068 
L 351.488285 75.307894 
L 352.211346 74.224706 
L 352.934408 75.542097 
L 353.657469 74.605285 
L 354.38053 76.420359 
L 355.103592 75.073691 
L 355.826653 75.395721 
L 356.549715 74.312532 
L 357.272776 73.844126 
L 357.995837 74.57601 
L 358.718899 73.81485 
L 360.165021 75.659199 
L 360.888083 74.634561 
L 361.611144 75.190793 
L 362.334205 74.663836 
L 363.057267 73.931952 
L 363.780328 73.37572 
L 364.503389 75.805576 
L 365.226451 75.161518 
L 365.949512 74.810213 
L 366.672573 74.078329 
L 367.395635 76.010504 
L 368.118696 75.659199 
L 368.841757 74.780938 
L 369.564819 74.19543 
L 370.28788 74.605285 
L 371.010941 76.713113 
L 371.734003 76.010504 
L 372.457064 77.913403 
L 373.180126 76.859489 
L 373.903187 77.971954 
L 374.626248 76.273982 
L 375.34931 78.44036 
L 376.072371 77.035142 
L 376.795432 77.737751 
L 377.518494 76.625286 
L 378.241555 76.771663 
L 378.964616 77.6792 
L 379.687678 79.142969 
L 380.410739 76.976591 
L 381.1338 77.327895 
L 381.856862 75.571373 
L 383.302984 79.142969 
L 384.026046 77.620649 
L 384.749107 79.289346 
L 385.472168 78.381809 
L 386.19523 77.913403 
L 386.918291 79.084418 
L 387.641353 78.49891 
L 388.364414 78.147606 
L 389.087475 79.26007 
L 389.810537 80.606738 
L 390.533598 77.6792 
L 391.256659 77.942678 
L 391.979721 78.938041 
L 392.702782 79.523549 
L 393.425843 81.54355 
L 394.148905 79.962679 
L 394.871966 81.045868 
L 395.595027 78.44036 
L 396.318089 80.636013 
L 397.04115 81.075144 
L 397.764211 82.685289 
L 398.487273 81.016593 
L 398.487273 81.016593 
" clip-path="url(#p85a9264af4)" style="fill: none; stroke: #9467bd; stroke-width: 1.5; stroke-linecap: square"/>
   </g>
   <g id="line2d_20">
    <path d="M 350.765224 122.700691 
L 351.488285 122.741071 
L 352.211346 121.812335 
L 352.934408 124.10389 
L 353.657469 127.415036 
L 354.38053 126.960763 
L 355.103592 124.14427 
L 355.826653 124.507688 
L 356.549715 125.658513 
L 357.272776 121.166257 
L 357.995837 123.639522 
L 358.718899 124.598543 
L 359.44196 126.607439 
L 360.165021 125.234525 
L 360.888083 124.548068 
L 361.611144 122.90259 
L 362.334205 122.468507 
L 363.057267 122.650216 
L 363.780328 123.054014 
L 364.503389 122.791545 
L 365.226451 120.56056 
L 366.672573 119.894293 
L 367.395635 125.285 
L 368.118696 124.053415 
L 368.841757 120.843219 
L 369.564819 122.397842 
L 370.28788 122.700691 
L 371.010941 124.00294 
L 371.734003 121.216732 
L 372.457064 123.891896 
L 373.180126 123.801041 
L 373.903187 128.030828 
L 374.626248 121.70129 
L 375.34931 123.276103 
L 376.072371 122.034424 
L 376.795432 123.296293 
L 377.518494 122.8824 
L 378.241555 123.215534 
L 378.964616 125.18405 
L 379.687678 127.56646 
L 380.410739 123.316483 
L 381.1338 122.771356 
L 381.856862 121.852714 
L 382.579923 121.559961 
L 383.302984 121.479201 
L 384.026046 123.154964 
L 384.749107 122.286798 
L 385.472168 123.165059 
L 386.19523 120.530275 
L 386.918291 125.062911 
L 387.641353 124.225029 
L 388.364414 121.267207 
L 389.810537 125.18405 
L 390.533598 124.800442 
L 391.256659 122.276703 
L 391.979721 120.489895 
L 392.702782 124.10389 
L 393.425843 126.304591 
L 394.148905 124.618733 
L 394.871966 126.52668 
L 395.595027 121.872904 
L 396.318089 123.901991 
L 397.04115 124.679302 
L 397.764211 126.627629 
L 398.487273 125.597944 
L 398.487273 125.597944 
" clip-path="url(#p85a9264af4)" style="fill: none; stroke: #8c564b; stroke-width: 1.5; stroke-linecap: square"/>
   </g>
   <g id="line2d_21">
    <path d="M 350.765224 159.855181 
L 351.488285 150.194307 
L 352.934408 161.933733 
L 353.657469 158.303586 
L 354.38053 156.429962 
L 355.103592 161.348226 
L 355.826653 160.733443 
L 356.549715 154.702715 
L 357.272776 154.205034 
L 357.995837 156.400687 
L 358.718899 152.858366 
L 359.44196 159.3575 
L 360.165021 162.958371 
L 360.888083 155.903006 
L 361.611144 165.768807 
L 362.334205 158.947645 
L 363.057267 171.418955 
L 363.780328 160.87982 
L 364.503389 160.440689 
L 365.226451 163.836633 
L 365.949512 158.127934 
L 366.672573 164.80272 
L 367.395635 172.853448 
L 368.118696 171.623883 
L 368.841757 166.822721 
L 369.564819 169.340403 
L 370.28788 169.808809 
L 371.010941 176.512871 
L 371.734003 174.346493 
L 372.457064 168.66707 
L 373.180126 170.657795 
L 373.903187 181.314032 
L 374.626248 173.848811 
L 375.34931 177.420407 
L 376.072371 169.04765 
L 376.795432 173.819536 
L 377.518494 182.953453 
L 378.241555 178.357219 
L 378.964616 176.747074 
L 379.687678 185.705339 
L 380.410739 179.55751 
L 381.1338 189.394036 
L 381.856862 187.930267 
L 382.579923 178.854901 
L 383.302984 186.700701 
L 384.026046 182.016641 
L 384.749107 174.434319 
L 385.472168 182.163018 
L 386.19523 178.357219 
L 386.918291 182.807076 
L 387.641353 186.20302 
L 388.364414 183.187656 
L 389.087475 191.940994 
L 389.810537 192.702154 
L 390.533598 183.685338 
L 391.979721 186.466498 
L 392.702782 190.974906 
L 393.425843 194.722155 
L 394.871966 186.876354 
L 395.595027 187.72534 
L 396.318089 189.803891 
L 397.04115 202.743608 
L 397.764211 202.626506 
L 398.487273 199.406215 
L 398.487273 199.406215 
" clip-path="url(#p85a9264af4)" style="fill: none; stroke: #e377c2; stroke-width: 1.5; stroke-linecap: square"/>
   </g>
   <g id="patch_3">
    <path d="M 57.6 307.584 
L 57.6 41.472 
" style="fill: none; stroke: #000000; stroke-width: 0.8; stroke-linejoin: miter; stroke-linecap: square"/>
   </g>
   <g id="patch_4">
    <path d="M 414.72 307.584 
L 414.72 41.472 
" style="fill: none; stroke: #000000; stroke-width: 0.8; stroke-linejoin: miter; stroke-linecap: square"/>
   </g>
   <g id="patch_5">
    <path d="M 57.6 307.584 
L 414.72 307.584 
" style="fill: none; stroke: #000000; stroke-width: 0.8; stroke-linejoin: miter; stroke-linecap: square"/>
   </g>
   <g id="patch_6">
    <path d="M 57.6 41.472 
L 414.72 41.472 
" style="fill: none; stroke: #000000; stroke-width: 0.8; stroke-linejoin: miter; stroke-linecap: square"/>
   </g>
   <g id="text_17">
    <!-- Learning Curves -->
    <g transform="translate(187.37625 35.472) scale(0.12 -0.12)">
     <defs>
      <path id="DejaVuSans-4c" d="M 628 4666 
L 1259 4666 
L 1259 531 
L 3531 531 
L 3531 0 
L 628 0 
L 628 4666 
z
" transform="scale(0.015625)"/>
      <path id="DejaVuSans-65" d="M 3597 1894 
L 3597 1613 
L 953 1613 
Q 991 1019 1311 708 
Q 1631 397 2203 397 
Q 2534 397 2845 478 
Q 3156 559 3463 722 
L 3463 178 
Q 3153 47 2828 -22 
Q 2503 -91 2169 -91 
Q 1331 -91 842 396 
Q 353 884 353 1716 
Q 353 2575 817 3079 
Q 1281 3584 2069 3584 
Q 2775 3584 3186 3129 
Q 3597 2675 3597 1894 
z
M 3022 2063 
Q 3016 2534 2758 2815 
Q 2500 3097 2075 3097 
Q 1594 3097 1305 2825 
Q 1016 2553 972 2059 
L 3022 2063 
z
" transform="scale(0.015625)"/>
      <path id="DejaVuSans-6e" d="M 3513 2113 
L 3513 0 
L 2938 0 
L 2938 2094 
Q 2938 2591 2744 2837 
Q 2550 3084 2163 3084 
Q 1697 3084 1428 2787 
Q 1159 2491 1159 1978 
L 1159 0 
L 581 0 
L 581 3500 
L 1159 3500 
L 1159 2956 
Q 1366 3272 1645 3428 
Q 1925 3584 2291 3584 
Q 2894 3584 3203 3211 
Q 3513 2838 3513 2113 
z
" transform="scale(0.015625)"/>
      <path id="DejaVuSans-69" d="M 603 3500 
L 1178 3500 
L 1178 0 
L 603 0 
L 603 3500 
z
M 603 4863 
L 1178 4863 
L 1178 4134 
L 603 4134 
L 603 4863 
z
" transform="scale(0.015625)"/>
      <path id="DejaVuSans-67" d="M 2906 1791 
Q 2906 2416 2648 2759 
Q 2391 3103 1925 3103 
Q 1463 3103 1205 2759 
Q 947 2416 947 1791 
Q 947 1169 1205 825 
Q 1463 481 1925 481 
Q 2391 481 2648 825 
Q 2906 1169 2906 1791 
z
M 3481 434 
Q 3481 -459 3084 -895 
Q 2688 -1331 1869 -1331 
Q 1566 -1331 1297 -1286 
Q 1028 -1241 775 -1147 
L 775 -588 
Q 1028 -725 1275 -790 
Q 1522 -856 1778 -856 
Q 2344 -856 2625 -561 
Q 2906 -266 2906 331 
L 2906 616 
Q 2728 306 2450 153 
Q 2172 0 1784 0 
Q 1141 0 747 490 
Q 353 981 353 1791 
Q 353 2603 747 3093 
Q 1141 3584 1784 3584 
Q 2172 3584 2450 3431 
Q 2728 3278 2906 2969 
L 2906 3500 
L 3481 3500 
L 3481 434 
z
" transform="scale(0.015625)"/>
      <path id="DejaVuSans-20" transform="scale(0.015625)"/>
      <path id="DejaVuSans-43" d="M 4122 4306 
L 4122 3641 
Q 3803 3938 3442 4084 
Q 3081 4231 2675 4231 
Q 1875 4231 1450 3742 
Q 1025 3253 1025 2328 
Q 1025 1406 1450 917 
Q 1875 428 2675 428 
Q 3081 428 3442 575 
Q 3803 722 4122 1019 
L 4122 359 
Q 3791 134 3420 21 
Q 3050 -91 2638 -91 
Q 1578 -91 968 557 
Q 359 1206 359 2328 
Q 359 3453 968 4101 
Q 1578 4750 2638 4750 
Q 3056 4750 3426 4639 
Q 3797 4528 4122 4306 
z
" transform="scale(0.015625)"/>
      <path id="DejaVuSans-76" d="M 191 3500 
L 800 3500 
L 1894 563 
L 2988 3500 
L 3597 3500 
L 2284 0 
L 1503 0 
L 191 3500 
z
" transform="scale(0.015625)"/>
     </defs>
     <use xlink:href="#DejaVuSans-4c"/>
     <use xlink:href="#DejaVuSans-65" x="53.962891"/>
     <use xlink:href="#DejaVuSans-61" x="115.486328"/>
     <use xlink:href="#DejaVuSans-72" x="176.765625"/>
     <use xlink:href="#DejaVuSans-6e" x="216.128906"/>
     <use xlink:href="#DejaVuSans-69" x="279.507812"/>
     <use xlink:href="#DejaVuSans-6e" x="307.291016"/>
     <use xlink:href="#DejaVuSans-67" x="370.669922"/>
     <use xlink:href="#DejaVuSans-20" x="434.146484"/>
     <use xlink:href="#DejaVuSans-43" x="465.933594"/>
     <use xlink:href="#DejaVuSans-75" x="535.757812"/>
     <use xlink:href="#DejaVuSans-72" x="599.136719"/>
     <use xlink:href="#DejaVuSans-76" x="640.25"/>
     <use xlink:href="#DejaVuSans-65" x="699.429688"/>
     <use xlink:href="#DejaVuSans-73" x="760.953125"/>
    </g>
   </g>
   <g id="legend_1">
    <g id="patch_7">
     <path d="M 128.445937 302.584 
L 343.874063 302.584 
Q 345.874063 302.584 345.874063 300.584 
L 345.874063 198.837125 
Q 345.874063 196.837125 343.874063 196.837125 
L 128.445937 196.837125 
Q 126.445937 196.837125 126.445937 198.837125 
L 126.445937 300.584 
Q 126.445937 302.584 128.445937 302.584 
z
" style="fill: #ffffff; opacity: 0.8; stroke: #cccccc; stroke-linejoin: miter"/>
    </g>
    <g id="line2d_22">
     <path d="M 130.445937 204.935563 
L 140.445937 204.935563 
L 150.445937 204.935563 
" style="fill: none; stroke: #1f77b4; stroke-width: 1.5; stroke-linecap: square"/>
    </g>
    <g id="text_18">
     <!-- Train Accuracy -->
     <g transform="translate(158.445937 208.435563) scale(0.1 -0.1)">
      <defs>
       <path id="DejaVuSans-54" d="M -19 4666 
L 3928 4666 
L 3928 4134 
L 2272 4134 
L 2272 0 
L 1638 0 
L 1638 4134 
L -19 4134 
L -19 4666 
z
" transform="scale(0.015625)"/>
      </defs>
      <use xlink:href="#DejaVuSans-54"/>
      <use xlink:href="#DejaVuSans-72" x="46.333984"/>
      <use xlink:href="#DejaVuSans-61" x="87.447266"/>
      <use xlink:href="#DejaVuSans-69" x="148.726562"/>
      <use xlink:href="#DejaVuSans-6e" x="176.509766"/>
      <use xlink:href="#DejaVuSans-20" x="239.888672"/>
      <use xlink:href="#DejaVuSans-41" x="271.675781"/>
      <use xlink:href="#DejaVuSans-63" x="338.333984"/>
      <use xlink:href="#DejaVuSans-63" x="393.314453"/>
      <use xlink:href="#DejaVuSans-75" x="448.294922"/>
      <use xlink:href="#DejaVuSans-72" x="511.673828"/>
      <use xlink:href="#DejaVuSans-61" x="552.787109"/>
      <use xlink:href="#DejaVuSans-63" x="614.066406"/>
      <use xlink:href="#DejaVuSans-79" x="669.046875"/>
     </g>
    </g>
    <g id="line2d_23">
     <path d="M 130.445937 219.613688 
L 140.445937 219.613688 
L 150.445937 219.613688 
" style="fill: none; stroke: #ff7f0e; stroke-width: 1.5; stroke-linecap: square"/>
    </g>
    <g id="text_19">
     <!-- Validation Accuracy -->
     <g transform="translate(158.445937 223.113688) scale(0.1 -0.1)">
      <defs>
       <path id="DejaVuSans-56" d="M 1831 0 
L 50 4666 
L 709 4666 
L 2188 738 
L 3669 4666 
L 4325 4666 
L 2547 0 
L 1831 0 
z
" transform="scale(0.015625)"/>
       <path id="DejaVuSans-6c" d="M 603 4863 
L 1178 4863 
L 1178 0 
L 603 0 
L 603 4863 
z
" transform="scale(0.015625)"/>
       <path id="DejaVuSans-64" d="M 2906 2969 
L 2906 4863 
L 3481 4863 
L 3481 0 
L 2906 0 
L 2906 525 
Q 2725 213 2448 61 
Q 2172 -91 1784 -91 
Q 1150 -91 751 415 
Q 353 922 353 1747 
Q 353 2572 751 3078 
Q 1150 3584 1784 3584 
Q 2172 3584 2448 3432 
Q 2725 3281 2906 2969 
z
M 947 1747 
Q 947 1113 1208 752 
Q 1469 391 1925 391 
Q 2381 391 2643 752 
Q 2906 1113 2906 1747 
Q 2906 2381 2643 2742 
Q 2381 3103 1925 3103 
Q 1469 3103 1208 2742 
Q 947 2381 947 1747 
z
" transform="scale(0.015625)"/>
       <path id="DejaVuSans-74" d="M 1172 4494 
L 1172 3500 
L 2356 3500 
L 2356 3053 
L 1172 3053 
L 1172 1153 
Q 1172 725 1289 603 
Q 1406 481 1766 481 
L 2356 481 
L 2356 0 
L 1766 0 
Q 1100 0 847 248 
Q 594 497 594 1153 
L 594 3053 
L 172 3053 
L 172 3500 
L 594 3500 
L 594 4494 
L 1172 4494 
z
" transform="scale(0.015625)"/>
      </defs>
      <use xlink:href="#DejaVuSans-56"/>
      <use xlink:href="#DejaVuSans-61" x="60.658203"/>
      <use xlink:href="#DejaVuSans-6c" x="121.9375"/>
      <use xlink:href="#DejaVuSans-69" x="149.720703"/>
      <use xlink:href="#DejaVuSans-64" x="177.503906"/>
      <use xlink:href="#DejaVuSans-61" x="240.980469"/>
      <use xlink:href="#DejaVuSans-74" x="302.259766"/>
      <use xlink:href="#DejaVuSans-69" x="341.46875"/>
      <use xlink:href="#DejaVuSans-6f" x="369.251953"/>
      <use xlink:href="#DejaVuSans-6e" x="430.433594"/>
      <use xlink:href="#DejaVuSans-20" x="493.8125"/>
      <use xlink:href="#DejaVuSans-41" x="525.599609"/>
      <use xlink:href="#DejaVuSans-63" x="592.257812"/>
      <use xlink:href="#DejaVuSans-63" x="647.238281"/>
      <use xlink:href="#DejaVuSans-75" x="702.21875"/>
      <use xlink:href="#DejaVuSans-72" x="765.597656"/>
      <use xlink:href="#DejaVuSans-61" x="806.710938"/>
      <use xlink:href="#DejaVuSans-63" x="867.990234"/>
      <use xlink:href="#DejaVuSans-79" x="922.970703"/>
     </g>
    </g>
    <g id="line2d_24">
     <path d="M 130.445937 234.291812 
L 140.445937 234.291812 
L 150.445937 234.291812 
" style="fill: none; stroke: #2ca02c; stroke-width: 1.5; stroke-linecap: square"/>
    </g>
    <g id="text_20">
     <!-- Robust Validation Accuracy -->
     <g transform="translate(158.445937 237.791812) scale(0.1 -0.1)">
      <defs>
       <path id="DejaVuSans-52" d="M 2841 2188 
Q 3044 2119 3236 1894 
Q 3428 1669 3622 1275 
L 4263 0 
L 3584 0 
L 2988 1197 
Q 2756 1666 2539 1819 
Q 2322 1972 1947 1972 
L 1259 1972 
L 1259 0 
L 628 0 
L 628 4666 
L 2053 4666 
Q 2853 4666 3247 4331 
Q 3641 3997 3641 3322 
Q 3641 2881 3436 2590 
Q 3231 2300 2841 2188 
z
M 1259 4147 
L 1259 2491 
L 2053 2491 
Q 2509 2491 2742 2702 
Q 2975 2913 2975 3322 
Q 2975 3731 2742 3939 
Q 2509 4147 2053 4147 
L 1259 4147 
z
" transform="scale(0.015625)"/>
       <path id="DejaVuSans-62" d="M 3116 1747 
Q 3116 2381 2855 2742 
Q 2594 3103 2138 3103 
Q 1681 3103 1420 2742 
Q 1159 2381 1159 1747 
Q 1159 1113 1420 752 
Q 1681 391 2138 391 
Q 2594 391 2855 752 
Q 3116 1113 3116 1747 
z
M 1159 2969 
Q 1341 3281 1617 3432 
Q 1894 3584 2278 3584 
Q 2916 3584 3314 3078 
Q 3713 2572 3713 1747 
Q 3713 922 3314 415 
Q 2916 -91 2278 -91 
Q 1894 -91 1617 61 
Q 1341 213 1159 525 
L 1159 0 
L 581 0 
L 581 4863 
L 1159 4863 
L 1159 2969 
z
" transform="scale(0.015625)"/>
      </defs>
      <use xlink:href="#DejaVuSans-52"/>
      <use xlink:href="#DejaVuSans-6f" x="64.982422"/>
      <use xlink:href="#DejaVuSans-62" x="126.164062"/>
      <use xlink:href="#DejaVuSans-75" x="189.640625"/>
      <use xlink:href="#DejaVuSans-73" x="253.019531"/>
      <use xlink:href="#DejaVuSans-74" x="305.119141"/>
      <use xlink:href="#DejaVuSans-20" x="344.328125"/>
      <use xlink:href="#DejaVuSans-56" x="376.115234"/>
      <use xlink:href="#DejaVuSans-61" x="436.773438"/>
      <use xlink:href="#DejaVuSans-6c" x="498.052734"/>
      <use xlink:href="#DejaVuSans-69" x="525.835938"/>
      <use xlink:href="#DejaVuSans-64" x="553.619141"/>
      <use xlink:href="#DejaVuSans-61" x="617.095703"/>
      <use xlink:href="#DejaVuSans-74" x="678.375"/>
      <use xlink:href="#DejaVuSans-69" x="717.583984"/>
      <use xlink:href="#DejaVuSans-6f" x="745.367188"/>
      <use xlink:href="#DejaVuSans-6e" x="806.548828"/>
      <use xlink:href="#DejaVuSans-20" x="869.927734"/>
      <use xlink:href="#DejaVuSans-41" x="901.714844"/>
      <use xlink:href="#DejaVuSans-63" x="968.373047"/>
      <use xlink:href="#DejaVuSans-63" x="1023.353516"/>
      <use xlink:href="#DejaVuSans-75" x="1078.333984"/>
      <use xlink:href="#DejaVuSans-72" x="1141.712891"/>
      <use xlink:href="#DejaVuSans-61" x="1182.826172"/>
      <use xlink:href="#DejaVuSans-63" x="1244.105469"/>
      <use xlink:href="#DejaVuSans-79" x="1299.085938"/>
     </g>
    </g>
    <g id="line2d_25">
     <path d="M 130.445937 248.969938 
L 140.445937 248.969938 
L 150.445937 248.969938 
" style="fill: none; stroke: #d62728; stroke-width: 1.5; stroke-linecap: square"/>
    </g>
    <g id="text_21">
     <!-- Adversarial Validation Accuracy -->
     <g transform="translate(158.445937 252.469938) scale(0.1 -0.1)">
      <use xlink:href="#DejaVuSans-41"/>
      <use xlink:href="#DejaVuSans-64" x="66.658203"/>
      <use xlink:href="#DejaVuSans-76" x="130.134766"/>
      <use xlink:href="#DejaVuSans-65" x="189.314453"/>
      <use xlink:href="#DejaVuSans-72" x="250.837891"/>
      <use xlink:href="#DejaVuSans-73" x="291.951172"/>
      <use xlink:href="#DejaVuSans-61" x="344.050781"/>
      <use xlink:href="#DejaVuSans-72" x="405.330078"/>
      <use xlink:href="#DejaVuSans-69" x="446.443359"/>
      <use xlink:href="#DejaVuSans-61" x="474.226562"/>
      <use xlink:href="#DejaVuSans-6c" x="535.505859"/>
      <use xlink:href="#DejaVuSans-20" x="563.289062"/>
      <use xlink:href="#DejaVuSans-56" x="595.076172"/>
      <use xlink:href="#DejaVuSans-61" x="655.734375"/>
      <use xlink:href="#DejaVuSans-6c" x="717.013672"/>
      <use xlink:href="#DejaVuSans-69" x="744.796875"/>
      <use xlink:href="#DejaVuSans-64" x="772.580078"/>
      <use xlink:href="#DejaVuSans-61" x="836.056641"/>
      <use xlink:href="#DejaVuSans-74" x="897.335938"/>
      <use xlink:href="#DejaVuSans-69" x="936.544922"/>
      <use xlink:href="#DejaVuSans-6f" x="964.328125"/>
      <use xlink:href="#DejaVuSans-6e" x="1025.509766"/>
      <use xlink:href="#DejaVuSans-20" x="1088.888672"/>
      <use xlink:href="#DejaVuSans-41" x="1120.675781"/>
      <use xlink:href="#DejaVuSans-63" x="1187.333984"/>
      <use xlink:href="#DejaVuSans-63" x="1242.314453"/>
      <use xlink:href="#DejaVuSans-75" x="1297.294922"/>
      <use xlink:href="#DejaVuSans-72" x="1360.673828"/>
      <use xlink:href="#DejaVuSans-61" x="1401.787109"/>
      <use xlink:href="#DejaVuSans-63" x="1463.066406"/>
      <use xlink:href="#DejaVuSans-79" x="1518.046875"/>
     </g>
    </g>
    <g id="line2d_26">
     <path d="M 130.445937 263.648063 
L 140.445937 263.648063 
L 150.445937 263.648063 
" style="fill: none; stroke: #9467bd; stroke-width: 1.5; stroke-linecap: square"/>
    </g>
    <g id="text_22">
     <!-- SWA Validation Accuracy -->
     <g transform="translate(158.445937 267.148063) scale(0.1 -0.1)">
      <defs>
       <path id="DejaVuSans-53" d="M 3425 4513 
L 3425 3897 
Q 3066 4069 2747 4153 
Q 2428 4238 2131 4238 
Q 1616 4238 1336 4038 
Q 1056 3838 1056 3469 
Q 1056 3159 1242 3001 
Q 1428 2844 1947 2747 
L 2328 2669 
Q 3034 2534 3370 2195 
Q 3706 1856 3706 1288 
Q 3706 609 3251 259 
Q 2797 -91 1919 -91 
Q 1588 -91 1214 -16 
Q 841 59 441 206 
L 441 856 
Q 825 641 1194 531 
Q 1563 422 1919 422 
Q 2459 422 2753 634 
Q 3047 847 3047 1241 
Q 3047 1584 2836 1778 
Q 2625 1972 2144 2069 
L 1759 2144 
Q 1053 2284 737 2584 
Q 422 2884 422 3419 
Q 422 4038 858 4394 
Q 1294 4750 2059 4750 
Q 2388 4750 2728 4690 
Q 3069 4631 3425 4513 
z
" transform="scale(0.015625)"/>
       <path id="DejaVuSans-57" d="M 213 4666 
L 850 4666 
L 1831 722 
L 2809 4666 
L 3519 4666 
L 4500 722 
L 5478 4666 
L 6119 4666 
L 4947 0 
L 4153 0 
L 3169 4050 
L 2175 0 
L 1381 0 
L 213 4666 
z
" transform="scale(0.015625)"/>
      </defs>
      <use xlink:href="#DejaVuSans-53"/>
      <use xlink:href="#DejaVuSans-57" x="63.476562"/>
      <use xlink:href="#DejaVuSans-41" x="156.853516"/>
      <use xlink:href="#DejaVuSans-20" x="225.261719"/>
      <use xlink:href="#DejaVuSans-56" x="257.048828"/>
      <use xlink:href="#DejaVuSans-61" x="317.707031"/>
      <use xlink:href="#DejaVuSans-6c" x="378.986328"/>
      <use xlink:href="#DejaVuSans-69" x="406.769531"/>
      <use xlink:href="#DejaVuSans-64" x="434.552734"/>
      <use xlink:href="#DejaVuSans-61" x="498.029297"/>
      <use xlink:href="#DejaVuSans-74" x="559.308594"/>
      <use xlink:href="#DejaVuSans-69" x="598.517578"/>
      <use xlink:href="#DejaVuSans-6f" x="626.300781"/>
      <use xlink:href="#DejaVuSans-6e" x="687.482422"/>
      <use xlink:href="#DejaVuSans-20" x="750.861328"/>
      <use xlink:href="#DejaVuSans-41" x="782.648438"/>
      <use xlink:href="#DejaVuSans-63" x="849.306641"/>
      <use xlink:href="#DejaVuSans-63" x="904.287109"/>
      <use xlink:href="#DejaVuSans-75" x="959.267578"/>
      <use xlink:href="#DejaVuSans-72" x="1022.646484"/>
      <use xlink:href="#DejaVuSans-61" x="1063.759766"/>
      <use xlink:href="#DejaVuSans-63" x="1125.039062"/>
      <use xlink:href="#DejaVuSans-79" x="1180.019531"/>
     </g>
    </g>
    <g id="line2d_27">
     <path d="M 130.445937 278.326188 
L 140.445937 278.326188 
L 150.445937 278.326188 
" style="fill: none; stroke: #8c564b; stroke-width: 1.5; stroke-linecap: square"/>
    </g>
    <g id="text_23">
     <!-- SWA Robust Validation Accuracy -->
     <g transform="translate(158.445937 281.826188) scale(0.1 -0.1)">
      <use xlink:href="#DejaVuSans-53"/>
      <use xlink:href="#DejaVuSans-57" x="63.476562"/>
      <use xlink:href="#DejaVuSans-41" x="156.853516"/>
      <use xlink:href="#DejaVuSans-20" x="225.261719"/>
      <use xlink:href="#DejaVuSans-52" x="257.048828"/>
      <use xlink:href="#DejaVuSans-6f" x="322.03125"/>
      <use xlink:href="#DejaVuSans-62" x="383.212891"/>
      <use xlink:href="#DejaVuSans-75" x="446.689453"/>
      <use xlink:href="#DejaVuSans-73" x="510.068359"/>
      <use xlink:href="#DejaVuSans-74" x="562.167969"/>
      <use xlink:href="#DejaVuSans-20" x="601.376953"/>
      <use xlink:href="#DejaVuSans-56" x="633.164062"/>
      <use xlink:href="#DejaVuSans-61" x="693.822266"/>
      <use xlink:href="#DejaVuSans-6c" x="755.101562"/>
      <use xlink:href="#DejaVuSans-69" x="782.884766"/>
      <use xlink:href="#DejaVuSans-64" x="810.667969"/>
      <use xlink:href="#DejaVuSans-61" x="874.144531"/>
      <use xlink:href="#DejaVuSans-74" x="935.423828"/>
      <use xlink:href="#DejaVuSans-69" x="974.632812"/>
      <use xlink:href="#DejaVuSans-6f" x="1002.416016"/>
      <use xlink:href="#DejaVuSans-6e" x="1063.597656"/>
      <use xlink:href="#DejaVuSans-20" x="1126.976562"/>
      <use xlink:href="#DejaVuSans-41" x="1158.763672"/>
      <use xlink:href="#DejaVuSans-63" x="1225.421875"/>
      <use xlink:href="#DejaVuSans-63" x="1280.402344"/>
      <use xlink:href="#DejaVuSans-75" x="1335.382812"/>
      <use xlink:href="#DejaVuSans-72" x="1398.761719"/>
      <use xlink:href="#DejaVuSans-61" x="1439.875"/>
      <use xlink:href="#DejaVuSans-63" x="1501.154297"/>
      <use xlink:href="#DejaVuSans-79" x="1556.134766"/>
     </g>
    </g>
    <g id="line2d_28">
     <path d="M 130.445937 293.004312 
L 140.445937 293.004312 
L 150.445937 293.004312 
" style="fill: none; stroke: #e377c2; stroke-width: 1.5; stroke-linecap: square"/>
    </g>
    <g id="text_24">
     <!-- SWA Adversarial Validation Accuracy -->
     <g transform="translate(158.445937 296.504312) scale(0.1 -0.1)">
      <use xlink:href="#DejaVuSans-53"/>
      <use xlink:href="#DejaVuSans-57" x="63.476562"/>
      <use xlink:href="#DejaVuSans-41" x="156.853516"/>
      <use xlink:href="#DejaVuSans-20" x="225.261719"/>
      <use xlink:href="#DejaVuSans-41" x="257.048828"/>
      <use xlink:href="#DejaVuSans-64" x="323.707031"/>
      <use xlink:href="#DejaVuSans-76" x="387.183594"/>
      <use xlink:href="#DejaVuSans-65" x="446.363281"/>
      <use xlink:href="#DejaVuSans-72" x="507.886719"/>
      <use xlink:href="#DejaVuSans-73" x="549"/>
      <use xlink:href="#DejaVuSans-61" x="601.099609"/>
      <use xlink:href="#DejaVuSans-72" x="662.378906"/>
      <use xlink:href="#DejaVuSans-69" x="703.492188"/>
      <use xlink:href="#DejaVuSans-61" x="731.275391"/>
      <use xlink:href="#DejaVuSans-6c" x="792.554688"/>
      <use xlink:href="#DejaVuSans-20" x="820.337891"/>
      <use xlink:href="#DejaVuSans-56" x="852.125"/>
      <use xlink:href="#DejaVuSans-61" x="912.783203"/>
      <use xlink:href="#DejaVuSans-6c" x="974.0625"/>
      <use xlink:href="#DejaVuSans-69" x="1001.845703"/>
      <use xlink:href="#DejaVuSans-64" x="1029.628906"/>
      <use xlink:href="#DejaVuSans-61" x="1093.105469"/>
      <use xlink:href="#DejaVuSans-74" x="1154.384766"/>
      <use xlink:href="#DejaVuSans-69" x="1193.59375"/>
      <use xlink:href="#DejaVuSans-6f" x="1221.376953"/>
      <use xlink:href="#DejaVuSans-6e" x="1282.558594"/>
      <use xlink:href="#DejaVuSans-20" x="1345.9375"/>
      <use xlink:href="#DejaVuSans-41" x="1377.724609"/>
      <use xlink:href="#DejaVuSans-63" x="1444.382812"/>
      <use xlink:href="#DejaVuSans-63" x="1499.363281"/>
      <use xlink:href="#DejaVuSans-75" x="1554.34375"/>
      <use xlink:href="#DejaVuSans-72" x="1617.722656"/>
      <use xlink:href="#DejaVuSans-61" x="1658.835938"/>
      <use xlink:href="#DejaVuSans-63" x="1720.115234"/>
      <use xlink:href="#DejaVuSans-79" x="1775.095703"/>
     </g>
    </g>
   </g>
  </g>
 </g>
 <defs>
  <clipPath id="p85a9264af4">
   <rect x="57.6" y="41.472" width="357.12" height="266.112"/>
  </clipPath>
 </defs>
</svg>
