<?xml version="1.0" encoding="utf-8" standalone="no"?>
<!DOCTYPE svg PUBLIC "-//W3C//DTD SVG 1.1//EN"
  "http://www.w3.org/Graphics/SVG/1.1/DTD/svg11.dtd">
<svg height="345.6pt" version="1.1" viewBox="0 0 460.8 345.6" width="460.8pt" xmlns="http://www.w3.org/2000/svg" xmlns:xlink="http://www.w3.org/1999/xlink">
 <metadata>
  <rdf:RDF xmlns:cc="http://creativecommons.org/ns#" xmlns:dc="http://purl.org/dc/elements/1.1/" xmlns:rdf="http://www.w3.org/1999/02/22-rdf-syntax-ns#">
   <cc:Work>
    <dc:type rdf:resource="http://purl.org/dc/dcmitype/StillImage"/>
    <dc:date>2024-03-14T02:19:29.381792</dc:date>
    <dc:format>image/svg+xml</dc:format>
    <dc:creator>
     <cc:Agent>
      <dc:title>Matplotlib v3.4.3, https://matplotlib.org/</dc:title>
     </cc:Agent>
    </dc:creator>
   </cc:Work>
  </rdf:RDF>
 </metadata>
 <defs>
  <style type="text/css">*{stroke-linecap:butt;stroke-linejoin:round;}</style>
 </defs>
 <g id="figure_1">
  <g id="patch_1">
   <path d="M 0 345.6 
L 460.8 345.6 
L 460.8 0 
L 0 0 
z
" style="fill:#ffffff;"/>
  </g>
  <g id="axes_1">
   <g id="patch_2">
    <path d="M 57.6 307.584 
L 414.72 307.584 
L 414.72 41.472 
L 57.6 41.472 
z
" style="fill:#ffffff;"/>
   </g>
   <g id="matplotlib.axis_1">
    <g id="xtick_1">
     <g id="line2d_1">
      <defs>
       <path d="M 0 0 
L 0 3.5 
" id="mcb61eab0bf" style="stroke:#000000;stroke-width:0.8;"/>
      </defs>
      <g>
       <use style="stroke:#000000;stroke-width:0.8;" x="73.832727" xlink:href="#mcb61eab0bf" y="307.584"/>
      </g>
     </g>
     <g id="text_1">
      <!-- 1 -->
      <g transform="translate(70.651477 322.182437)scale(0.1 -0.1)">
       <defs>
        <path d="M 794 531 
L 1825 531 
L 1825 4091 
L 703 3866 
L 703 4441 
L 1819 4666 
L 2450 4666 
L 2450 531 
L 3481 531 
L 3481 0 
L 794 0 
L 794 531 
z
" id="DejaVuSans-31" transform="scale(0.015625)"/>
       </defs>
       <use xlink:href="#DejaVuSans-31"/>
      </g>
     </g>
    </g>
    <g id="xtick_2">
     <g id="line2d_2">
      <g>
       <use style="stroke:#000000;stroke-width:0.8;" x="109.423199" xlink:href="#mcb61eab0bf" y="307.584"/>
      </g>
     </g>
     <g id="text_2">
      <!-- 42 -->
      <g transform="translate(103.060699 322.182437)scale(0.1 -0.1)">
       <defs>
        <path d="M 2419 4116 
L 825 1625 
L 2419 1625 
L 2419 4116 
z
M 2253 4666 
L 3047 4666 
L 3047 1625 
L 3713 1625 
L 3713 1100 
L 3047 1100 
L 3047 0 
L 2419 0 
L 2419 1100 
L 313 1100 
L 313 1709 
L 2253 4666 
z
" id="DejaVuSans-34" transform="scale(0.015625)"/>
        <path d="M 1228 531 
L 3431 531 
L 3431 0 
L 469 0 
L 469 531 
Q 828 903 1448 1529 
Q 2069 2156 2228 2338 
Q 2531 2678 2651 2914 
Q 2772 3150 2772 3378 
Q 2772 3750 2511 3984 
Q 2250 4219 1831 4219 
Q 1534 4219 1204 4116 
Q 875 4013 500 3803 
L 500 4441 
Q 881 4594 1212 4672 
Q 1544 4750 1819 4750 
Q 2544 4750 2975 4387 
Q 3406 4025 3406 3419 
Q 3406 3131 3298 2873 
Q 3191 2616 2906 2266 
Q 2828 2175 2409 1742 
Q 1991 1309 1228 531 
z
" id="DejaVuSans-32" transform="scale(0.015625)"/>
       </defs>
       <use xlink:href="#DejaVuSans-34"/>
       <use x="63.623047" xlink:href="#DejaVuSans-32"/>
      </g>
     </g>
    </g>
    <g id="xtick_3">
     <g id="line2d_3">
      <g>
       <use style="stroke:#000000;stroke-width:0.8;" x="145.881731" xlink:href="#mcb61eab0bf" y="307.584"/>
      </g>
     </g>
     <g id="text_3">
      <!-- 84 -->
      <g transform="translate(139.519231 322.182437)scale(0.1 -0.1)">
       <defs>
        <path d="M 2034 2216 
Q 1584 2216 1326 1975 
Q 1069 1734 1069 1313 
Q 1069 891 1326 650 
Q 1584 409 2034 409 
Q 2484 409 2743 651 
Q 3003 894 3003 1313 
Q 3003 1734 2745 1975 
Q 2488 2216 2034 2216 
z
M 1403 2484 
Q 997 2584 770 2862 
Q 544 3141 544 3541 
Q 544 4100 942 4425 
Q 1341 4750 2034 4750 
Q 2731 4750 3128 4425 
Q 3525 4100 3525 3541 
Q 3525 3141 3298 2862 
Q 3072 2584 2669 2484 
Q 3125 2378 3379 2068 
Q 3634 1759 3634 1313 
Q 3634 634 3220 271 
Q 2806 -91 2034 -91 
Q 1263 -91 848 271 
Q 434 634 434 1313 
Q 434 1759 690 2068 
Q 947 2378 1403 2484 
z
M 1172 3481 
Q 1172 3119 1398 2916 
Q 1625 2713 2034 2713 
Q 2441 2713 2670 2916 
Q 2900 3119 2900 3481 
Q 2900 3844 2670 4047 
Q 2441 4250 2034 4250 
Q 1625 4250 1398 4047 
Q 1172 3844 1172 3481 
z
" id="DejaVuSans-38" transform="scale(0.015625)"/>
       </defs>
       <use xlink:href="#DejaVuSans-38"/>
       <use x="63.623047" xlink:href="#DejaVuSans-34"/>
      </g>
     </g>
    </g>
    <g id="xtick_4">
     <g id="line2d_4">
      <g>
       <use style="stroke:#000000;stroke-width:0.8;" x="181.472202" xlink:href="#mcb61eab0bf" y="307.584"/>
      </g>
     </g>
     <g id="text_4">
      <!-- 125 -->
      <g transform="translate(171.928452 322.182437)scale(0.1 -0.1)">
       <defs>
        <path d="M 691 4666 
L 3169 4666 
L 3169 4134 
L 1269 4134 
L 1269 2991 
Q 1406 3038 1543 3061 
Q 1681 3084 1819 3084 
Q 2600 3084 3056 2656 
Q 3513 2228 3513 1497 
Q 3513 744 3044 326 
Q 2575 -91 1722 -91 
Q 1428 -91 1123 -41 
Q 819 9 494 109 
L 494 744 
Q 775 591 1075 516 
Q 1375 441 1709 441 
Q 2250 441 2565 725 
Q 2881 1009 2881 1497 
Q 2881 1984 2565 2268 
Q 2250 2553 1709 2553 
Q 1456 2553 1204 2497 
Q 953 2441 691 2322 
L 691 4666 
z
" id="DejaVuSans-35" transform="scale(0.015625)"/>
       </defs>
       <use xlink:href="#DejaVuSans-31"/>
       <use x="63.623047" xlink:href="#DejaVuSans-32"/>
       <use x="127.246094" xlink:href="#DejaVuSans-35"/>
      </g>
     </g>
    </g>
    <g id="xtick_5">
     <g id="line2d_5">
      <g>
       <use style="stroke:#000000;stroke-width:0.8;" x="217.930734" xlink:href="#mcb61eab0bf" y="307.584"/>
      </g>
     </g>
     <g id="text_5">
      <!-- 167 -->
      <g transform="translate(208.386984 322.182437)scale(0.1 -0.1)">
       <defs>
        <path d="M 2113 2584 
Q 1688 2584 1439 2293 
Q 1191 2003 1191 1497 
Q 1191 994 1439 701 
Q 1688 409 2113 409 
Q 2538 409 2786 701 
Q 3034 994 3034 1497 
Q 3034 2003 2786 2293 
Q 2538 2584 2113 2584 
z
M 3366 4563 
L 3366 3988 
Q 3128 4100 2886 4159 
Q 2644 4219 2406 4219 
Q 1781 4219 1451 3797 
Q 1122 3375 1075 2522 
Q 1259 2794 1537 2939 
Q 1816 3084 2150 3084 
Q 2853 3084 3261 2657 
Q 3669 2231 3669 1497 
Q 3669 778 3244 343 
Q 2819 -91 2113 -91 
Q 1303 -91 875 529 
Q 447 1150 447 2328 
Q 447 3434 972 4092 
Q 1497 4750 2381 4750 
Q 2619 4750 2861 4703 
Q 3103 4656 3366 4563 
z
" id="DejaVuSans-36" transform="scale(0.015625)"/>
        <path d="M 525 4666 
L 3525 4666 
L 3525 4397 
L 1831 0 
L 1172 0 
L 2766 4134 
L 525 4134 
L 525 4666 
z
" id="DejaVuSans-37" transform="scale(0.015625)"/>
       </defs>
       <use xlink:href="#DejaVuSans-31"/>
       <use x="63.623047" xlink:href="#DejaVuSans-36"/>
       <use x="127.246094" xlink:href="#DejaVuSans-37"/>
      </g>
     </g>
    </g>
    <g id="xtick_6">
     <g id="line2d_6">
      <g>
       <use style="stroke:#000000;stroke-width:0.8;" x="253.521206" xlink:href="#mcb61eab0bf" y="307.584"/>
      </g>
     </g>
     <g id="text_6">
      <!-- 208 -->
      <g transform="translate(243.977456 322.182437)scale(0.1 -0.1)">
       <defs>
        <path d="M 2034 4250 
Q 1547 4250 1301 3770 
Q 1056 3291 1056 2328 
Q 1056 1369 1301 889 
Q 1547 409 2034 409 
Q 2525 409 2770 889 
Q 3016 1369 3016 2328 
Q 3016 3291 2770 3770 
Q 2525 4250 2034 4250 
z
M 2034 4750 
Q 2819 4750 3233 4129 
Q 3647 3509 3647 2328 
Q 3647 1150 3233 529 
Q 2819 -91 2034 -91 
Q 1250 -91 836 529 
Q 422 1150 422 2328 
Q 422 3509 836 4129 
Q 1250 4750 2034 4750 
z
" id="DejaVuSans-30" transform="scale(0.015625)"/>
       </defs>
       <use xlink:href="#DejaVuSans-32"/>
       <use x="63.623047" xlink:href="#DejaVuSans-30"/>
       <use x="127.246094" xlink:href="#DejaVuSans-38"/>
      </g>
     </g>
    </g>
    <g id="xtick_7">
     <g id="line2d_7">
      <g>
       <use style="stroke:#000000;stroke-width:0.8;" x="289.979737" xlink:href="#mcb61eab0bf" y="307.584"/>
      </g>
     </g>
     <g id="text_7">
      <!-- 250 -->
      <g transform="translate(280.435987 322.182437)scale(0.1 -0.1)">
       <use xlink:href="#DejaVuSans-32"/>
       <use x="63.623047" xlink:href="#DejaVuSans-35"/>
       <use x="127.246094" xlink:href="#DejaVuSans-30"/>
      </g>
     </g>
    </g>
    <g id="xtick_8">
     <g id="line2d_8">
      <g>
       <use style="stroke:#000000;stroke-width:0.8;" x="325.570209" xlink:href="#mcb61eab0bf" y="307.584"/>
      </g>
     </g>
     <g id="text_8">
      <!-- 291 -->
      <g transform="translate(316.026459 322.182437)scale(0.1 -0.1)">
       <defs>
        <path d="M 703 97 
L 703 672 
Q 941 559 1184 500 
Q 1428 441 1663 441 
Q 2288 441 2617 861 
Q 2947 1281 2994 2138 
Q 2813 1869 2534 1725 
Q 2256 1581 1919 1581 
Q 1219 1581 811 2004 
Q 403 2428 403 3163 
Q 403 3881 828 4315 
Q 1253 4750 1959 4750 
Q 2769 4750 3195 4129 
Q 3622 3509 3622 2328 
Q 3622 1225 3098 567 
Q 2575 -91 1691 -91 
Q 1453 -91 1209 -44 
Q 966 3 703 97 
z
M 1959 2075 
Q 2384 2075 2632 2365 
Q 2881 2656 2881 3163 
Q 2881 3666 2632 3958 
Q 2384 4250 1959 4250 
Q 1534 4250 1286 3958 
Q 1038 3666 1038 3163 
Q 1038 2656 1286 2365 
Q 1534 2075 1959 2075 
z
" id="DejaVuSans-39" transform="scale(0.015625)"/>
       </defs>
       <use xlink:href="#DejaVuSans-32"/>
       <use x="63.623047" xlink:href="#DejaVuSans-39"/>
       <use x="127.246094" xlink:href="#DejaVuSans-31"/>
      </g>
     </g>
    </g>
    <g id="xtick_9">
     <g id="line2d_9">
      <g>
       <use style="stroke:#000000;stroke-width:0.8;" x="362.028741" xlink:href="#mcb61eab0bf" y="307.584"/>
      </g>
     </g>
     <g id="text_9">
      <!-- 333 -->
      <g transform="translate(352.484991 322.182437)scale(0.1 -0.1)">
       <defs>
        <path d="M 2597 2516 
Q 3050 2419 3304 2112 
Q 3559 1806 3559 1356 
Q 3559 666 3084 287 
Q 2609 -91 1734 -91 
Q 1441 -91 1130 -33 
Q 819 25 488 141 
L 488 750 
Q 750 597 1062 519 
Q 1375 441 1716 441 
Q 2309 441 2620 675 
Q 2931 909 2931 1356 
Q 2931 1769 2642 2001 
Q 2353 2234 1838 2234 
L 1294 2234 
L 1294 2753 
L 1863 2753 
Q 2328 2753 2575 2939 
Q 2822 3125 2822 3475 
Q 2822 3834 2567 4026 
Q 2313 4219 1838 4219 
Q 1578 4219 1281 4162 
Q 984 4106 628 3988 
L 628 4550 
Q 988 4650 1302 4700 
Q 1616 4750 1894 4750 
Q 2613 4750 3031 4423 
Q 3450 4097 3450 3541 
Q 3450 3153 3228 2886 
Q 3006 2619 2597 2516 
z
" id="DejaVuSans-33" transform="scale(0.015625)"/>
       </defs>
       <use xlink:href="#DejaVuSans-33"/>
       <use x="63.623047" xlink:href="#DejaVuSans-33"/>
       <use x="127.246094" xlink:href="#DejaVuSans-33"/>
      </g>
     </g>
    </g>
    <g id="xtick_10">
     <g id="line2d_10">
      <g>
       <use style="stroke:#000000;stroke-width:0.8;" x="398.487273" xlink:href="#mcb61eab0bf" y="307.584"/>
      </g>
     </g>
     <g id="text_10">
      <!-- 375 -->
      <g transform="translate(388.943523 322.182437)scale(0.1 -0.1)">
       <use xlink:href="#DejaVuSans-33"/>
       <use x="63.623047" xlink:href="#DejaVuSans-37"/>
       <use x="127.246094" xlink:href="#DejaVuSans-35"/>
      </g>
     </g>
    </g>
    <g id="text_11">
     <!-- Epochs -->
     <g transform="translate(218.244375 335.860562)scale(0.1 -0.1)">
      <defs>
       <path d="M 628 4666 
L 3578 4666 
L 3578 4134 
L 1259 4134 
L 1259 2753 
L 3481 2753 
L 3481 2222 
L 1259 2222 
L 1259 531 
L 3634 531 
L 3634 0 
L 628 0 
L 628 4666 
z
" id="DejaVuSans-45" transform="scale(0.015625)"/>
       <path d="M 1159 525 
L 1159 -1331 
L 581 -1331 
L 581 3500 
L 1159 3500 
L 1159 2969 
Q 1341 3281 1617 3432 
Q 1894 3584 2278 3584 
Q 2916 3584 3314 3078 
Q 3713 2572 3713 1747 
Q 3713 922 3314 415 
Q 2916 -91 2278 -91 
Q 1894 -91 1617 61 
Q 1341 213 1159 525 
z
M 3116 1747 
Q 3116 2381 2855 2742 
Q 2594 3103 2138 3103 
Q 1681 3103 1420 2742 
Q 1159 2381 1159 1747 
Q 1159 1113 1420 752 
Q 1681 391 2138 391 
Q 2594 391 2855 752 
Q 3116 1113 3116 1747 
z
" id="DejaVuSans-70" transform="scale(0.015625)"/>
       <path d="M 1959 3097 
Q 1497 3097 1228 2736 
Q 959 2375 959 1747 
Q 959 1119 1226 758 
Q 1494 397 1959 397 
Q 2419 397 2687 759 
Q 2956 1122 2956 1747 
Q 2956 2369 2687 2733 
Q 2419 3097 1959 3097 
z
M 1959 3584 
Q 2709 3584 3137 3096 
Q 3566 2609 3566 1747 
Q 3566 888 3137 398 
Q 2709 -91 1959 -91 
Q 1206 -91 779 398 
Q 353 888 353 1747 
Q 353 2609 779 3096 
Q 1206 3584 1959 3584 
z
" id="DejaVuSans-6f" transform="scale(0.015625)"/>
       <path d="M 3122 3366 
L 3122 2828 
Q 2878 2963 2633 3030 
Q 2388 3097 2138 3097 
Q 1578 3097 1268 2742 
Q 959 2388 959 1747 
Q 959 1106 1268 751 
Q 1578 397 2138 397 
Q 2388 397 2633 464 
Q 2878 531 3122 666 
L 3122 134 
Q 2881 22 2623 -34 
Q 2366 -91 2075 -91 
Q 1284 -91 818 406 
Q 353 903 353 1747 
Q 353 2603 823 3093 
Q 1294 3584 2113 3584 
Q 2378 3584 2631 3529 
Q 2884 3475 3122 3366 
z
" id="DejaVuSans-63" transform="scale(0.015625)"/>
       <path d="M 3513 2113 
L 3513 0 
L 2938 0 
L 2938 2094 
Q 2938 2591 2744 2837 
Q 2550 3084 2163 3084 
Q 1697 3084 1428 2787 
Q 1159 2491 1159 1978 
L 1159 0 
L 581 0 
L 581 4863 
L 1159 4863 
L 1159 2956 
Q 1366 3272 1645 3428 
Q 1925 3584 2291 3584 
Q 2894 3584 3203 3211 
Q 3513 2838 3513 2113 
z
" id="DejaVuSans-68" transform="scale(0.015625)"/>
       <path d="M 2834 3397 
L 2834 2853 
Q 2591 2978 2328 3040 
Q 2066 3103 1784 3103 
Q 1356 3103 1142 2972 
Q 928 2841 928 2578 
Q 928 2378 1081 2264 
Q 1234 2150 1697 2047 
L 1894 2003 
Q 2506 1872 2764 1633 
Q 3022 1394 3022 966 
Q 3022 478 2636 193 
Q 2250 -91 1575 -91 
Q 1294 -91 989 -36 
Q 684 19 347 128 
L 347 722 
Q 666 556 975 473 
Q 1284 391 1588 391 
Q 1994 391 2212 530 
Q 2431 669 2431 922 
Q 2431 1156 2273 1281 
Q 2116 1406 1581 1522 
L 1381 1569 
Q 847 1681 609 1914 
Q 372 2147 372 2553 
Q 372 3047 722 3315 
Q 1072 3584 1716 3584 
Q 2034 3584 2315 3537 
Q 2597 3491 2834 3397 
z
" id="DejaVuSans-73" transform="scale(0.015625)"/>
      </defs>
      <use xlink:href="#DejaVuSans-45"/>
      <use x="63.183594" xlink:href="#DejaVuSans-70"/>
      <use x="126.660156" xlink:href="#DejaVuSans-6f"/>
      <use x="187.841797" xlink:href="#DejaVuSans-63"/>
      <use x="242.822266" xlink:href="#DejaVuSans-68"/>
      <use x="306.201172" xlink:href="#DejaVuSans-73"/>
     </g>
    </g>
   </g>
   <g id="matplotlib.axis_2">
    <g id="ytick_1">
     <g id="line2d_11">
      <defs>
       <path d="M 0 0 
L -3.5 0 
" id="m16f0f895e9" style="stroke:#000000;stroke-width:0.8;"/>
      </defs>
      <g>
       <use style="stroke:#000000;stroke-width:0.8;" x="57.6" xlink:href="#m16f0f895e9" y="278.755838"/>
      </g>
     </g>
     <g id="text_12">
      <!-- 10 -->
      <g transform="translate(37.875 282.555056)scale(0.1 -0.1)">
       <use xlink:href="#DejaVuSans-31"/>
       <use x="63.623047" xlink:href="#DejaVuSans-30"/>
      </g>
     </g>
    </g>
    <g id="ytick_2">
     <g id="line2d_12">
      <g>
       <use style="stroke:#000000;stroke-width:0.8;" x="57.6" xlink:href="#m16f0f895e9" y="246.063062"/>
      </g>
     </g>
     <g id="text_13">
      <!-- 20 -->
      <g transform="translate(37.875 249.862281)scale(0.1 -0.1)">
       <use xlink:href="#DejaVuSans-32"/>
       <use x="63.623047" xlink:href="#DejaVuSans-30"/>
      </g>
     </g>
    </g>
    <g id="ytick_3">
     <g id="line2d_13">
      <g>
       <use style="stroke:#000000;stroke-width:0.8;" x="57.6" xlink:href="#m16f0f895e9" y="213.370287"/>
      </g>
     </g>
     <g id="text_14">
      <!-- 30 -->
      <g transform="translate(37.875 217.169505)scale(0.1 -0.1)">
       <use xlink:href="#DejaVuSans-33"/>
       <use x="63.623047" xlink:href="#DejaVuSans-30"/>
      </g>
     </g>
    </g>
    <g id="ytick_4">
     <g id="line2d_14">
      <g>
       <use style="stroke:#000000;stroke-width:0.8;" x="57.6" xlink:href="#m16f0f895e9" y="180.677511"/>
      </g>
     </g>
     <g id="text_15">
      <!-- 40 -->
      <g transform="translate(37.875 184.47673)scale(0.1 -0.1)">
       <use xlink:href="#DejaVuSans-34"/>
       <use x="63.623047" xlink:href="#DejaVuSans-30"/>
      </g>
     </g>
    </g>
    <g id="ytick_5">
     <g id="line2d_15">
      <g>
       <use style="stroke:#000000;stroke-width:0.8;" x="57.6" xlink:href="#m16f0f895e9" y="147.984736"/>
      </g>
     </g>
     <g id="text_16">
      <!-- 50 -->
      <g transform="translate(37.875 151.783954)scale(0.1 -0.1)">
       <use xlink:href="#DejaVuSans-35"/>
       <use x="63.623047" xlink:href="#DejaVuSans-30"/>
      </g>
     </g>
    </g>
    <g id="ytick_6">
     <g id="line2d_16">
      <g>
       <use style="stroke:#000000;stroke-width:0.8;" x="57.6" xlink:href="#m16f0f895e9" y="115.29196"/>
      </g>
     </g>
     <g id="text_17">
      <!-- 60 -->
      <g transform="translate(37.875 119.091179)scale(0.1 -0.1)">
       <use xlink:href="#DejaVuSans-36"/>
       <use x="63.623047" xlink:href="#DejaVuSans-30"/>
      </g>
     </g>
    </g>
    <g id="ytick_7">
     <g id="line2d_17">
      <g>
       <use style="stroke:#000000;stroke-width:0.8;" x="57.6" xlink:href="#m16f0f895e9" y="82.599185"/>
      </g>
     </g>
     <g id="text_18">
      <!-- 70 -->
      <g transform="translate(37.875 86.398403)scale(0.1 -0.1)">
       <use xlink:href="#DejaVuSans-37"/>
       <use x="63.623047" xlink:href="#DejaVuSans-30"/>
      </g>
     </g>
    </g>
    <g id="ytick_8">
     <g id="line2d_18">
      <g>
       <use style="stroke:#000000;stroke-width:0.8;" x="57.6" xlink:href="#m16f0f895e9" y="49.906409"/>
      </g>
     </g>
     <g id="text_19">
      <!-- 80 -->
      <g transform="translate(37.875 53.705628)scale(0.1 -0.1)">
       <use xlink:href="#DejaVuSans-38"/>
       <use x="63.623047" xlink:href="#DejaVuSans-30"/>
      </g>
     </g>
    </g>
    <g id="text_20">
     <!-- Accuracy -->
     <g transform="translate(31.795312 197.356125)rotate(-90)scale(0.1 -0.1)">
      <defs>
       <path d="M 2188 4044 
L 1331 1722 
L 3047 1722 
L 2188 4044 
z
M 1831 4666 
L 2547 4666 
L 4325 0 
L 3669 0 
L 3244 1197 
L 1141 1197 
L 716 0 
L 50 0 
L 1831 4666 
z
" id="DejaVuSans-41" transform="scale(0.015625)"/>
       <path d="M 544 1381 
L 544 3500 
L 1119 3500 
L 1119 1403 
Q 1119 906 1312 657 
Q 1506 409 1894 409 
Q 2359 409 2629 706 
Q 2900 1003 2900 1516 
L 2900 3500 
L 3475 3500 
L 3475 0 
L 2900 0 
L 2900 538 
Q 2691 219 2414 64 
Q 2138 -91 1772 -91 
Q 1169 -91 856 284 
Q 544 659 544 1381 
z
M 1991 3584 
L 1991 3584 
z
" id="DejaVuSans-75" transform="scale(0.015625)"/>
       <path d="M 2631 2963 
Q 2534 3019 2420 3045 
Q 2306 3072 2169 3072 
Q 1681 3072 1420 2755 
Q 1159 2438 1159 1844 
L 1159 0 
L 581 0 
L 581 3500 
L 1159 3500 
L 1159 2956 
Q 1341 3275 1631 3429 
Q 1922 3584 2338 3584 
Q 2397 3584 2469 3576 
Q 2541 3569 2628 3553 
L 2631 2963 
z
" id="DejaVuSans-72" transform="scale(0.015625)"/>
       <path d="M 2194 1759 
Q 1497 1759 1228 1600 
Q 959 1441 959 1056 
Q 959 750 1161 570 
Q 1363 391 1709 391 
Q 2188 391 2477 730 
Q 2766 1069 2766 1631 
L 2766 1759 
L 2194 1759 
z
M 3341 1997 
L 3341 0 
L 2766 0 
L 2766 531 
Q 2569 213 2275 61 
Q 1981 -91 1556 -91 
Q 1019 -91 701 211 
Q 384 513 384 1019 
Q 384 1609 779 1909 
Q 1175 2209 1959 2209 
L 2766 2209 
L 2766 2266 
Q 2766 2663 2505 2880 
Q 2244 3097 1772 3097 
Q 1472 3097 1187 3025 
Q 903 2953 641 2809 
L 641 3341 
Q 956 3463 1253 3523 
Q 1550 3584 1831 3584 
Q 2591 3584 2966 3190 
Q 3341 2797 3341 1997 
z
" id="DejaVuSans-61" transform="scale(0.015625)"/>
       <path d="M 2059 -325 
Q 1816 -950 1584 -1140 
Q 1353 -1331 966 -1331 
L 506 -1331 
L 506 -850 
L 844 -850 
Q 1081 -850 1212 -737 
Q 1344 -625 1503 -206 
L 1606 56 
L 191 3500 
L 800 3500 
L 1894 763 
L 2988 3500 
L 3597 3500 
L 2059 -325 
z
" id="DejaVuSans-79" transform="scale(0.015625)"/>
      </defs>
      <use xlink:href="#DejaVuSans-41"/>
      <use x="66.658203" xlink:href="#DejaVuSans-63"/>
      <use x="121.638672" xlink:href="#DejaVuSans-63"/>
      <use x="176.619141" xlink:href="#DejaVuSans-75"/>
      <use x="239.998047" xlink:href="#DejaVuSans-72"/>
      <use x="281.111328" xlink:href="#DejaVuSans-61"/>
      <use x="342.390625" xlink:href="#DejaVuSans-63"/>
      <use x="397.371094" xlink:href="#DejaVuSans-79"/>
     </g>
    </g>
   </g>
   <g id="line2d_19">
    <path clip-path="url(#p6e21c7e35b)" d="M 73.832727 295.488 
L 74.700788 285.948248 
L 75.568848 281.410491 
L 76.436908 275.290403 
L 77.304968 267.548754 
L 78.173029 262.415988 
L 79.041089 255.798971 
L 79.909149 253.059316 
L 80.77721 246.488068 
L 81.64527 244.480732 
L 82.51333 237.497555 
L 84.249451 231.743626 
L 85.117511 225.52546 
L 85.985571 218.359204 
L 86.853632 217.221495 
L 87.721692 217.384959 
L 88.589752 211.062177 
L 89.457812 207.904054 
L 90.325873 206.197492 
L 91.193933 202.496669 
L 92.061993 197.252748 
L 92.930053 198.050452 
L 93.798114 197.076207 
L 94.666174 197.305057 
L 95.534234 223.831975 
L 96.402295 219.849995 
L 97.270355 211.944882 
L 98.138415 209.577925 
L 99.006475 211.107946 
L 99.874536 211.114485 
L 100.742596 204.778625 
L 101.610656 200.064327 
L 102.478717 204.046307 
L 103.346777 198.128915 
L 104.214837 190.884196 
L 105.082897 197.050053 
L 106.819018 196.16081 
L 107.687078 188.05954 
L 108.555139 187.052602 
L 109.423199 189.720333 
L 110.291259 189.229941 
L 111.159319 183.449858 
L 112.02738 186.058742 
L 112.89544 175.015122 
L 113.7635 179.95827 
L 114.631561 177.355925 
L 115.499621 178.650559 
L 116.367681 172.301622 
L 117.235741 172.419316 
L 118.103802 168.980036 
L 118.971862 171.732768 
L 119.839922 164.749591 
L 120.707982 168.332719 
L 121.576043 156.125237 
L 122.444103 169.954281 
L 123.312163 154.039438 
L 124.180224 154.359827 
L 125.048284 147.069338 
L 125.916344 156.360625 
L 126.784404 158.590272 
L 127.652465 156.059851 
L 128.520525 159.132972 
L 129.388585 153.365966 
L 130.256646 140.805402 
L 131.124706 148.135122 
L 131.992766 149.128983 
L 132.860826 145.009693 
L 133.728887 145.755088 
L 134.596947 147.030107 
L 135.465007 143.819676 
L 136.333068 149.220523 
L 137.201128 146.042785 
L 138.069188 149.18783 
L 138.937248 183.234086 
L 139.805309 173.831644 
L 140.673369 174.84512 
L 141.541429 166.29269 
L 142.40949 175.211279 
L 143.27755 168.888496 
L 144.14561 174.93666 
L 145.01367 172.837784 
L 145.881731 172.615473 
L 146.749791 170.065436 
L 147.617851 172.44547 
L 148.485912 171.987771 
L 149.353972 172.981632 
L 150.222032 163.853809 
L 151.090092 158.77989 
L 151.958153 158.034495 
L 152.826213 165.292291 
L 153.694273 158.537964 
L 154.562333 160.963767 
L 155.430394 157.884108 
L 156.298454 170.215823 
L 157.166514 160.747995 
L 158.034575 161.258002 
L 158.902635 161.166463 
L 159.770695 153.392121 
L 160.638755 155.732923 
L 161.506816 153.889051 
L 162.374876 152.882113 
L 163.242936 152.417876 
L 164.110997 158.64258 
L 164.979057 161.349542 
L 165.847117 149.815531 
L 166.715177 148.788978 
L 167.583238 152.980192 
L 168.451298 153.12404 
L 169.319358 149.181291 
L 170.187419 145.892398 
L 171.055479 139.935774 
L 171.923539 144.329683 
L 172.791599 140.275779 
L 173.65966 139.098839 
L 174.52772 144.34276 
L 175.39578 151.044779 
L 176.263841 150.462848 
L 177.131901 143.917754 
L 177.999961 148.455512 
L 178.868021 139.661155 
L 179.736082 144.806998 
L 180.604142 137.575356 
L 181.472202 143.061204 
L 182.340263 132.043738 
L 184.076383 140.413089 
L 184.944443 137.490355 
L 185.812504 142.766969 
L 186.680564 149.220523 
L 187.548624 131.507577 
L 188.416684 131.572962 
L 189.284745 125.714417 
L 190.152805 135.15609 
L 191.020865 129.192928 
L 191.888926 127.080975 
L 192.756986 129.45447 
L 193.625046 126.041345 
L 194.493106 125.989036 
L 195.361167 120.150107 
L 196.229227 121.967825 
L 197.097287 128.983694 
L 197.965348 123.118611 
L 198.833408 121.366278 
L 199.701468 104.084877 
L 200.569528 122.785144 
L 201.437589 119.535482 
L 202.305649 111.26421 
L 203.173709 115.991586 
L 204.04177 119.391634 
L 204.90983 115.854276 
L 205.77789 116.769674 
L 206.64595 107.615696 
L 208.382071 119.143169 
L 209.250131 109.237258 
L 210.118192 109.073794 
L 210.986252 110.590739 
L 211.854312 111.44729 
L 212.722372 123.16438 
L 213.590433 110.473045 
L 214.458493 109.930345 
L 215.326553 110.204964 
L 216.194614 113.716168 
L 217.062674 112.689615 
L 217.930734 114.61195 
L 218.798794 111.394981 
L 219.666855 106.987995 
L 220.534915 111.71537 
L 221.402975 108.295706 
L 222.271035 107.903393 
L 223.139096 115.324653 
L 224.007156 114.311177 
L 224.875216 110.728049 
L 225.743277 156.301778 
L 226.611337 151.4044 
L 227.479397 149.671683 
L 228.347457 153.209041 
L 229.215518 152.914806 
L 230.083578 142.008496 
L 231.819699 146.225864 
L 232.687759 143.643135 
L 233.555819 148.069737 
L 235.29194 144.800459 
L 236.16 147.91935 
L 237.02806 147.278572 
L 237.896121 144.88546 
L 238.764181 140.792325 
L 239.632241 133.920304 
L 240.500301 144.519301 
L 241.368362 142.799661 
L 242.236422 139.615385 
L 243.104482 137.961131 
L 243.972543 145.06854 
L 244.840603 138.458061 
L 245.708663 133.475682 
L 246.576723 134.489158 
L 247.444784 133.776455 
L 248.312844 135.666098 
L 249.180904 140.236548 
L 250.048965 147.932427 
L 250.917025 135.548404 
L 251.785085 139.406151 
L 252.653145 133.148754 
L 253.521206 142.440041 
L 254.389266 131.095648 
L 255.257326 138.307674 
L 256.125386 131.684118 
L 256.993447 146.533176 
L 257.861507 128.695998 
L 258.729567 142.113113 
L 259.597628 132.494899 
L 260.465688 135.489557 
L 261.333748 134.84224 
L 262.201808 133.07683 
L 263.069869 130.598718 
L 263.937929 136.372262 
L 264.805989 132.619131 
L 265.67405 135.234553 
L 266.54211 132.226818 
L 267.41017 136.51611 
L 268.27823 134.940318 
L 269.146291 133.096446 
L 270.014351 133.266448 
L 270.882411 135.908024 
L 271.750472 128.270992 
L 272.618532 118.999321 
L 273.486592 137.529586 
L 274.354652 128.061758 
L 275.222713 130.186789 
L 276.090773 135.561481 
L 276.958833 122.510525 
L 277.826894 124.47863 
L 278.694954 129.016387 
L 279.563014 119.287017 
L 280.431074 131.579501 
L 281.299135 130.592179 
L 282.167195 119.417788 
L 283.035255 125.871342 
L 283.903316 120.960887 
L 284.771376 127.689061 
L 285.639436 126.96982 
L 286.507496 117.528146 
L 287.375557 119.437404 
L 288.243617 123.072841 
L 289.111677 126.002113 
L 289.979737 122.340523 
L 290.847798 130.206404 
L 291.715858 123.537078 
L 292.583918 118.535083 
L 293.451979 122.098596 
L 294.320039 121.732437 
L 295.188099 128.715614 
L 296.056159 120.568574 
L 296.92422 124.740172 
L 297.79228 126.24404 
L 298.66034 122.118212 
L 299.528401 110.348812 
L 300.396461 112.251532 
L 301.264521 114.533488 
L 302.132581 117.874689 
L 303.000642 123.975161 
L 303.868702 119.313171 
L 304.736762 127.113668 
L 305.604823 119.712023 
L 306.472883 113.925402 
L 307.340943 113.533089 
L 308.209003 114.356947 
L 309.077064 116.861213 
L 309.945124 122.3536 
L 310.813184 117.24045 
L 311.681245 104.679885 
L 312.549305 118.875088 
L 313.417365 110.126502 
L 314.285425 113.467703 
L 315.153486 111.813449 
L 316.021546 117.828919 
L 316.889606 116.671595 
L 317.757667 109.250335 
L 318.625727 120.862809 
L 319.493787 106.419141 
L 320.361847 111.100746 
L 321.229908 118.482775 
L 322.097968 108.341476 
L 322.966028 100.560595 
L 323.834088 116.697749 
L 324.702149 106.7853 
L 325.570209 111.695755 
L 326.438269 103.75141 
L 327.30633 108.949562 
L 328.17439 116.972369 
L 329.04245 107.82493 
L 329.91051 108.400323 
L 330.778571 109.446492 
L 331.646631 107.210306 
L 332.514691 104.594884 
L 333.382752 102.777166 
L 334.250812 106.589143 
L 335.118872 103.764487 
L 335.986932 104.503344 
L 336.854993 94.558202 
L 337.723053 98.553259 
L 338.591113 94.61051 
L 339.459174 96.768234 
L 340.327234 105.314125 
L 341.195294 106.366832 
L 342.063354 97.729401 
L 342.931415 98.344025 
L 343.799475 96.846696 
L 344.667535 107.001072 
L 345.535596 90.281987 
L 346.403656 99.95251 
L 347.271716 97.317472 
L 348.139776 104.254879 
L 349.007837 102.567932 
L 349.875897 88.392344 
L 351.612018 101.456378 
L 352.480078 87.954261 
L 353.348138 98.036713 
L 354.216198 92.956256 
L 355.084259 98.834417 
L 355.952319 99.782507 
L 356.820379 97.533244 
L 357.688439 85.829231 
L 358.5565 94.525509 
L 359.42456 98.657876 
L 360.29262 95.460523 
L 361.160681 95.166288 
L 362.028741 97.905942 
L 362.896801 101.554456 
L 363.764861 87.019248 
L 364.632922 101.384453 
L 365.500982 84.083437 
L 366.369042 112.781155 
L 367.237103 82.494568 
L 368.105163 93.518572 
L 368.973223 97.127854 
L 369.841283 98.507489 
L 371.577404 90.386604 
L 372.445464 88.758504 
L 373.313525 91.275847 
L 374.181585 88.359652 
L 375.049645 95.892067 
L 375.917705 83.233424 
L 376.785766 92.158552 
L 378.521886 96.689771 
L 379.389947 93.865115 
L 380.258007 86.398085 
L 381.126067 88.895813 
L 381.994127 95.159749 
L 382.862188 97.343626 
L 384.598308 89.098508 
L 385.466368 87.32656 
L 386.334429 92.917025 
L 387.202489 93.453186 
L 388.070549 94.989747 
L 388.93861 83.88728 
L 390.67473 88.104648 
L 391.54279 83.651892 
L 392.410851 83.848049 
L 393.278911 93.498956 
L 394.146971 83.743432 
L 395.015032 78.937594 
L 395.883092 97.258625 
L 396.751152 87.378868 
L 397.619212 81.860328 
L 398.487273 77.826039 
L 398.487273 77.826039 
" style="fill:none;stroke:#1f77b4;stroke-linecap:square;stroke-width:1.5;"/>
   </g>
   <g id="line2d_20">
    <path clip-path="url(#p6e21c7e35b)" d="M 73.832727 289.805996 
L 74.700788 271.269192 
L 75.568848 263.913317 
L 76.436908 252.536232 
L 77.304968 251.784298 
L 78.173029 231.187849 
L 79.041089 223.89736 
L 79.909149 223.505047 
L 80.77721 204.118231 
L 81.64527 198.789309 
L 82.51333 218.372281 
L 83.38139 187.150681 
L 84.249451 186.137205 
L 85.117511 172.046618 
L 85.985571 170.41198 
L 86.853632 161.748394 
L 87.721692 164.331123 
L 88.589752 161.748394 
L 89.457812 152.332875 
L 90.325873 146.611639 
L 91.193933 151.286706 
L 92.061993 142.917355 
L 92.930053 144.748151 
L 93.798114 143.146205 
L 94.666174 143.603904 
L 95.534234 172.798552 
L 96.402295 170.313901 
L 97.270355 162.271478 
L 98.138415 161.81378 
L 99.874536 149.68476 
L 101.610656 140.236548 
L 102.478717 143.44044 
L 103.346777 132.586438 
L 104.214837 137.882668 
L 105.082897 134.417234 
L 105.950958 145.630856 
L 106.819018 128.59792 
L 107.687078 125.394028 
L 108.555139 121.634359 
L 109.423199 123.170919 
L 110.291259 123.497847 
L 111.159319 120.784346 
L 112.02738 116.436207 
L 112.89544 114.147713 
L 113.7635 112.447689 
L 114.631561 111.270749 
L 115.499621 112.414996 
L 116.367681 109.897652 
L 117.235741 106.399525 
L 118.103802 108.655327 
L 118.971862 106.039905 
L 119.839922 99.599428 
L 120.707982 98.91288 
L 121.576043 97.899404 
L 122.444103 98.357102 
L 123.312163 99.828277 
L 125.048284 91.099306 
L 125.916344 89.235818 
L 126.784404 88.156956 
L 127.652465 87.633872 
L 128.520525 88.745426 
L 129.388585 87.73195 
L 130.256646 86.424239 
L 131.124706 85.966541 
L 131.992766 85.835769 
L 132.860826 84.724215 
L 134.596947 83.547275 
L 135.465007 84.331902 
L 136.333068 84.42998 
L 137.201128 83.25304 
L 138.069188 84.135745 
L 138.937248 118.59393 
L 139.805309 118.659316 
L 140.673369 110.289965 
L 141.541429 121.242045 
L 142.40949 115.422731 
L 143.27755 124.086317 
L 144.14561 110.943821 
L 145.01367 107.216845 
L 145.881731 105.451435 
L 146.749791 102.21485 
L 147.617851 108.753405 
L 148.485912 101.789844 
L 149.353972 99.337886 
L 150.222032 94.270505 
L 151.090092 103.16294 
L 151.958153 100.416747 
L 152.826213 94.335891 
L 153.694273 96.657078 
L 154.562333 92.374324 
L 155.430394 95.643602 
L 156.298454 96.232072 
L 157.166514 94.107042 
L 158.034575 90.608915 
L 158.902635 91.589698 
L 159.770695 91.295463 
L 160.638755 92.603174 
L 161.506816 87.37233 
L 162.374876 94.237813 
L 163.242936 89.955059 
L 164.110997 89.301204 
L 164.979057 87.470408 
L 165.847117 88.156956 
L 166.715177 87.37233 
L 167.583238 87.470408 
L 168.451298 84.397287 
L 169.319358 82.043407 
L 170.187419 81.847251 
L 171.055479 83.416504 
L 171.923539 87.568486 
L 172.791599 80.212612 
L 173.65966 84.201131 
L 174.52772 84.004974 
L 175.39578 79.820299 
L 176.263841 80.114534 
L 177.131901 75.537545 
L 177.999961 82.795341 
L 178.868021 79.231829 
L 179.736082 76.551021 
L 180.604142 77.858732 
L 181.472202 77.172184 
L 182.340263 75.504852 
L 183.208323 74.458684 
L 184.076383 75.014461 
L 184.944443 74.000985 
L 185.812504 74.818304 
L 186.680564 75.83178 
L 187.548624 74.752919 
L 188.416684 73.379822 
L 189.284745 75.962551 
L 190.152805 75.24331 
L 191.020865 72.954816 
L 191.888926 71.35287 
L 192.756986 71.287484 
L 193.625046 68.083592 
L 194.493106 70.862478 
L 196.229227 69.227839 
L 197.097287 70.404779 
L 197.965348 69.423996 
L 198.833408 67.46243 
L 199.701468 66.28549 
L 200.569528 65.795098 
L 201.437589 67.495122 
L 202.305649 65.533556 
L 203.173709 69.227839 
L 204.04177 63.048905 
L 205.77789 65.173935 
L 206.64595 66.514339 
L 207.514011 62.558513 
L 208.382071 63.571989 
L 209.250131 63.179676 
L 210.118192 63.277754 
L 211.854312 64.258538 
L 212.722372 61.479652 
L 213.590433 62.460435 
L 214.458493 64.160459 
L 215.326553 62.231586 
L 216.194614 61.414266 
L 217.930734 64.225845 
L 218.798794 62.395049 
L 220.534915 61.839272 
L 221.402975 63.34314 
L 222.271035 62.133507 
L 223.139096 62.75467 
L 224.007156 61.414266 
L 224.875216 62.296971 
L 225.743277 99.207115 
L 226.611337 87.470408 
L 227.479397 86.293468 
L 228.347457 85.476149 
L 229.215518 84.822293 
L 230.951638 91.001228 
L 231.819699 98.651337 
L 232.687759 89.955059 
L 233.555819 89.399282 
L 234.423879 83.579968 
L 235.29194 82.860727 
L 236.16 84.462673 
L 237.02806 80.964546 
L 237.896121 82.30495 
L 238.764181 78.937594 
L 239.632241 79.624142 
L 240.500301 80.081841 
L 241.368362 80.016455 
L 242.236422 83.48189 
L 243.104482 84.266516 
L 243.972543 81.912636 
L 244.840603 82.370335 
L 245.708663 81.12801 
L 246.576723 81.683787 
L 247.444784 82.762649 
L 248.312844 77.59719 
L 249.180904 81.226088 
L 250.048965 81.781865 
L 250.917025 80.572233 
L 252.653145 73.674057 
L 253.521206 78.087582 
L 254.389266 80.735696 
L 255.257326 77.695268 
L 256.125386 76.943334 
L 256.993447 77.466419 
L 257.861507 77.302955 
L 258.729567 77.00872 
L 259.597628 75.504852 
L 260.465688 76.877949 
L 261.333748 75.276003 
L 262.201808 78.022196 
L 263.069869 76.256786 
L 263.937929 71.974033 
L 264.805989 78.283738 
L 265.67405 75.308696 
L 266.54211 77.826039 
L 267.41017 74.06637 
L 268.27823 71.745183 
L 269.146291 75.24331 
L 270.014351 76.387557 
L 270.882411 73.216358 
L 271.750472 75.145232 
L 272.618532 72.464424 
L 273.486592 72.497117 
L 274.354652 76.42025 
L 275.222713 71.091328 
L 276.958833 74.720226 
L 277.826894 70.731707 
L 278.694954 70.110544 
L 279.563014 71.320177 
L 280.431074 71.614412 
L 281.299135 73.052894 
L 283.035255 69.260532 
L 283.903316 69.947081 
L 284.771376 72.660581 
L 285.639436 73.020201 
L 286.507496 76.027937 
L 287.375557 76.093322 
L 289.111677 71.843261 
L 289.979737 72.562503 
L 290.847798 72.202882 
L 291.715858 74.785611 
L 292.583918 71.549027 
L 293.451979 69.129761 
L 294.320039 69.979773 
L 295.188099 69.652846 
L 296.056159 71.156713 
L 296.92422 69.227839 
L 297.79228 68.573984 
L 298.66034 70.960557 
L 299.528401 67.756665 
L 300.396461 69.064376 
L 301.264521 68.770141 
L 302.132581 71.71249 
L 303.000642 68.214363 
L 303.868702 70.53555 
L 304.736762 67.23358 
L 305.604823 68.0509 
L 306.472883 68.279749 
L 307.340943 68.116285 
L 308.209003 70.339394 
L 309.945124 68.672062 
L 310.813184 68.0509 
L 311.681245 65.69702 
L 312.549305 66.547032 
L 313.417365 65.206628 
L 314.285425 71.189406 
L 315.153486 65.337399 
L 316.021546 62.852748 
L 316.889606 66.28549 
L 317.757667 66.350875 
L 318.625727 65.893176 
L 319.493787 68.018207 
L 320.361847 64.127766 
L 321.229908 64.389309 
L 322.097968 65.991255 
L 322.966028 63.375833 
L 323.834088 66.154719 
L 324.702149 64.748929 
L 325.570209 62.820055 
L 326.438269 63.408525 
L 327.30633 63.179676 
L 328.17439 61.152724 
L 329.04245 63.473911 
L 329.91051 61.316188 
L 330.778571 63.375833 
L 331.646631 61.871965 
L 332.514691 64.323923 
L 333.382752 62.198893 
L 334.250812 62.787363 
L 335.118872 61.120031 
L 335.986932 59.158465 
L 336.854993 60.695025 
L 337.723053 59.289236 
L 338.591113 61.087338 
L 339.459174 61.479652 
L 340.327234 61.054646 
L 341.195294 61.57773 
L 342.063354 58.602687 
L 342.931415 59.714242 
L 343.799475 59.420007 
L 344.667535 61.087338 
L 345.535596 59.191157 
L 346.403656 60.171941 
L 347.271716 59.093079 
L 348.139776 59.4527 
L 349.007837 57.752675 
L 349.875897 57.196898 
L 350.743957 58.86423 
L 351.612018 56.412271 
L 352.480078 59.191157 
L 353.348138 57.68729 
L 354.216198 57.916139 
L 355.084259 56.183422 
L 355.952319 58.733459 
L 356.820379 58.014217 
L 358.5565 57.850754 
L 359.42456 58.177681 
L 360.29262 56.346886 
L 361.160681 55.431488 
L 362.028741 56.51035 
L 362.896801 56.935356 
L 363.764861 54.810325 
L 364.632922 57.948832 
L 365.500982 55.987265 
L 366.369042 57.196898 
L 367.237103 55.954573 
L 368.105163 55.725723 
L 368.973223 57.196898 
L 369.841283 55.954573 
L 370.709344 55.562259 
L 371.577404 56.444964 
L 372.445464 56.641121 
L 373.313525 54.810325 
L 374.181585 56.706506 
L 375.049645 55.660338 
L 375.917705 55.398795 
L 376.785766 53.568 
L 377.653826 56.118036 
L 378.521886 54.843018 
L 379.389947 55.856494 
L 380.258007 55.006482 
L 381.126067 56.543043 
L 381.994127 55.300717 
L 383.730248 54.810325 
L 384.598308 55.006482 
L 385.466368 54.679554 
L 387.202489 54.973789 
L 388.070549 54.025699 
L 389.80667 55.137253 
L 390.67473 54.483398 
L 391.54279 54.15647 
L 392.410851 54.385319 
L 393.278911 54.941097 
L 394.146971 55.039175 
L 395.015032 55.660338 
L 395.883092 54.483398 
L 397.619212 54.679554 
L 398.487273 54.74494 
L 398.487273 54.74494 
" style="fill:none;stroke:#ff7f0e;stroke-linecap:square;stroke-width:1.5;"/>
   </g>
   <g id="line2d_21">
    <path clip-path="url(#p6e21c7e35b)" d="M 73.832727 293.174986 
L 74.700788 278.72151 
L 75.568848 272.354919 
L 76.436908 264.371016 
L 77.304968 261.411339 
L 78.173029 243.550949 
L 79.041089 236.496175 
L 79.909149 238.853324 
L 80.77721 222.816864 
L 81.64527 217.069801 
L 82.51333 234.517281 
L 83.38139 208.810625 
L 84.249451 210.41061 
L 85.117511 200.620104 
L 85.985571 195.337605 
L 86.853632 192.56722 
L 87.721692 191.517782 
L 88.589752 189.143305 
L 89.457812 182.346477 
L 90.325873 179.025545 
L 91.193933 179.989328 
L 92.061993 172.315026 
L 92.930053 172.435335 
L 93.798114 171.506207 
L 94.666174 171.936444 
L 95.534234 195.78517 
L 96.402295 197.144208 
L 97.270355 187.164412 
L 98.138415 188.059213 
L 99.006475 184.136063 
L 99.874536 181.107679 
L 100.742596 168.994146 
L 101.610656 168.959732 
L 102.478717 169.854482 
L 103.346777 165.466767 
L 104.214837 164.933359 
L 105.082897 167.669228 
L 105.950958 168.546771 
L 106.819018 158.997039 
L 107.687078 156.037482 
L 108.555139 154.764185 
L 109.423199 151.632561 
L 110.291259 151.512114 
L 111.159319 149.602168 
L 112.02738 151.42608 
L 112.89544 148.122389 
L 113.7635 146.470544 
L 114.631561 141.102046 
L 115.499621 143.115233 
L 116.367681 140.517017 
L 117.235741 139.002826 
L 118.103802 141.687075 
L 118.971862 137.041259 
L 119.839922 133.221366 
L 120.707982 129.934882 
L 121.576043 129.384267 
L 122.444103 133.238573 
L 123.312163 136.40461 
L 124.180224 127.199013 
L 125.048284 123.258673 
L 125.916344 122.690851 
L 126.784404 119.2323 
L 127.652465 119.714088 
L 128.520525 120.832525 
L 129.388585 118.457997 
L 130.256646 116.754532 
L 131.124706 117.563248 
L 131.992766 119.043026 
L 132.860826 116.599671 
L 133.728887 116.066263 
L 134.596947 116.634085 
L 135.465007 116.668498 
L 136.333068 116.496431 
L 137.201128 115.34358 
L 138.069188 115.911402 
L 138.937248 152.630551 
L 139.805309 151.27122 
L 140.673369 144.422944 
L 141.541429 152.338037 
L 142.40949 145.575794 
L 143.27755 152.527311 
L 144.14561 142.409757 
L 145.01367 137.660701 
L 145.881731 141.480594 
L 146.749791 133.014886 
L 147.617851 140.413777 
L 148.485912 134.563491 
L 149.353972 127.938902 
L 150.222032 125.925716 
L 151.090092 134.632318 
L 151.958153 134.15053 
L 152.826213 126.579571 
L 153.694273 128.128176 
L 154.562333 128.678791 
L 155.430394 126.132196 
L 156.298454 127.130186 
L 157.166514 126.579571 
L 158.034575 129.728401 
L 158.902635 125.736442 
L 159.770695 129.831642 
L 160.638755 127.646388 
L 161.506816 120.815318 
L 162.374876 127.560354 
L 163.242936 126.097783 
L 164.110997 121.17666 
L 164.979057 122.759678 
L 165.847117 123.602808 
L 166.715177 119.851742 
L 167.583238 121.365934 
L 168.451298 119.645261 
L 169.319358 116.031849 
L 170.187419 115.567268 
L 171.055479 115.894195 
L 171.923539 117.804142 
L 172.791599 113.898215 
L 173.65966 118.681685 
L 174.52772 118.457997 
L 176.263841 112.969052 
L 177.131901 109.14916 
L 177.999961 114.930619 
L 178.868021 110.938659 
L 179.736082 110.577318 
L 180.604142 110.818212 
L 181.472202 109.579328 
L 182.340263 109.510501 
L 183.208323 107.875862 
L 184.076383 107.376867 
L 184.944443 108.460891 
L 185.812504 105.897089 
L 186.680564 107.514521 
L 187.548624 107.25642 
L 188.416684 106.430497 
L 189.284745 109.596534 
L 190.152805 106.36167 
L 191.020865 104.124796 
L 192.756986 105.20882 
L 193.625046 98.962779 
L 194.493106 103.126806 
L 195.361167 101.733062 
L 197.097287 103.419321 
L 197.965348 103.505354 
L 198.833408 97.741102 
L 199.701468 100.390937 
L 200.569528 100.356524 
L 201.437589 99.737082 
L 202.305649 96.657078 
L 203.173709 101.148033 
L 204.04177 95.607468 
L 204.90983 97.620655 
L 205.77789 99.014399 
L 206.64595 98.653058 
L 207.514011 96.519424 
L 208.382071 96.553838 
L 209.250131 94.609478 
L 210.118192 95.951602 
L 210.986252 97.809929 
L 211.854312 94.712718 
L 212.722372 94.110483 
L 213.590433 94.661098 
L 214.458493 95.452607 
L 215.326553 93.663108 
L 216.194614 93.731935 
L 217.062674 94.781545 
L 217.930734 95.022439 
L 219.666855 93.146906 
L 220.534915 94.901992 
L 221.402975 94.850372 
L 222.271035 93.766348 
L 223.139096 93.370594 
L 224.007156 93.301767 
L 224.875216 93.766348 
L 225.743277 131.930862 
L 226.611337 120.109843 
L 227.479397 119.920569 
L 228.347457 121.17666 
L 229.215518 118.647271 
L 231.819699 131.15656 
L 232.687759 128.506724 
L 233.555819 120.28191 
L 234.423879 118.113863 
L 235.29194 112.624918 
L 236.16 117.993416 
L 237.02806 116.014643 
L 237.896121 115.377994 
L 238.764181 112.108716 
L 239.632241 110.525698 
L 240.500301 115.756542 
L 241.368362 115.842575 
L 242.236422 117.580454 
L 243.104482 115.963022 
L 243.972543 115.102686 
L 244.840603 111.730168 
L 245.708663 112.796985 
L 246.576723 113.502461 
L 247.444784 117.872969 
L 248.312844 108.770612 
L 249.180904 115.171513 
L 250.048965 115.687715 
L 250.917025 114.087489 
L 251.785085 107.789828 
L 252.653145 106.086363 
L 253.521206 111.781788 
L 254.389266 112.693745 
L 255.257326 111.282793 
L 256.125386 110.887039 
L 256.993447 113.364807 
L 257.861507 113.640115 
L 258.729567 109.682568 
L 259.597628 111.885029 
L 260.465688 111.420447 
L 261.333748 107.910276 
L 262.201808 111.368827 
L 263.069869 111.093519 
L 263.937929 107.394074 
L 264.805989 113.450841 
L 265.67405 109.751395 
L 266.54211 112.762572 
L 267.41017 103.126806 
L 269.146291 109.613741 
L 270.014351 107.789828 
L 270.882411 108.564131 
L 271.750472 108.959886 
L 272.618532 106.430497 
L 273.486592 107.617761 
L 274.354652 107.35966 
L 275.222713 103.21284 
L 276.090773 107.290833 
L 276.958833 109.131953 
L 277.826894 102.146023 
L 279.563014 109.441674 
L 280.431074 108.082343 
L 281.299135 110.904246 
L 282.167195 105.432507 
L 283.035255 102.868705 
L 283.903316 101.647028 
L 284.771376 106.36167 
L 285.639436 106.998319 
L 286.507496 105.776642 
L 287.375557 108.116756 
L 288.243617 109.14916 
L 289.111677 105.415301 
L 289.979737 107.617761 
L 290.847798 104.864685 
L 291.715858 106.602565 
L 292.583918 104.606585 
L 293.451979 98.412164 
L 294.320039 101.681441 
L 295.188099 102.799879 
L 296.056159 106.017536 
L 296.92422 101.010379 
L 297.79228 102.507364 
L 298.66034 102.817085 
L 299.528401 100.614625 
L 300.396461 100.27049 
L 301.264521 102.903119 
L 302.132581 108.047929 
L 303.000642 101.664235 
L 303.868702 103.901109 
L 304.736762 100.081216 
L 305.604823 102.094403 
L 306.472883 101.698648 
L 307.340943 102.713845 
L 308.209003 102.576191 
L 309.077064 101.234067 
L 309.945124 101.16524 
L 310.813184 100.132836 
L 311.681245 97.741102 
L 312.549305 97.723895 
L 313.417365 96.571044 
L 314.285425 103.436527 
L 315.153486 100.631831 
L 316.021546 95.676295 
L 316.889606 96.17529 
L 317.757667 96.467804 
L 318.625727 98.928366 
L 319.493787 103.815075 
L 320.361847 96.553838 
L 321.229908 97.947582 
L 322.097968 99.788702 
L 322.966028 95.986016 
L 323.834088 96.519424 
L 324.702149 99.719875 
L 325.570209 96.244117 
L 326.438269 97.104453 
L 327.30633 100.390937 
L 328.17439 91.322994 
L 329.04245 96.897972 
L 329.91051 94.489031 
L 330.778571 98.911159 
L 331.646631 93.990036 
L 332.514691 98.687472 
L 333.382752 97.465794 
L 334.250812 96.897972 
L 335.118872 95.710708 
L 335.986932 93.749142 
L 336.854993 95.005233 
L 337.723053 92.733945 
L 338.591113 94.12769 
L 340.327234 93.250147 
L 341.195294 92.613498 
L 342.063354 92.33819 
L 342.931415 94.661098 
L 343.799475 92.596291 
L 344.667535 93.387801 
L 345.535596 91.856402 
L 346.403656 93.611488 
L 347.271716 94.12769 
L 348.139776 92.682325 
L 349.007837 93.146906 
L 349.875897 88.982879 
L 350.743957 93.1297 
L 351.612018 88.759192 
L 352.480078 92.527464 
L 353.348138 93.439421 
L 355.084259 88.311817 
L 355.952319 91.787575 
L 356.820379 91.563888 
L 357.688439 92.837185 
L 358.5565 90.411037 
L 359.42456 90.325004 
L 361.160681 88.036509 
L 362.028741 90.015283 
L 362.896801 88.896846 
L 363.764861 89.017293 
L 364.632922 90.755172 
L 365.500982 89.051706 
L 366.369042 89.671148 
L 367.237103 88.501091 
L 368.105163 88.655951 
L 368.973223 89.739975 
L 369.841283 89.722768 
L 370.709344 88.587125 
L 371.577404 89.13774 
L 372.445464 88.707572 
L 373.313525 87.847235 
L 374.181585 89.206567 
L 375.049645 88.019303 
L 375.917705 87.14176 
L 377.653826 86.969693 
L 378.521886 87.14176 
L 379.389947 88.053716 
L 380.258007 87.830029 
L 381.994127 87.984889 
L 382.862188 87.004106 
L 383.730248 87.916062 
L 384.598308 86.694385 
L 385.466368 86.591145 
L 386.334429 86.09215 
L 387.202489 86.659971 
L 388.93861 86.659971 
L 389.80667 87.520308 
L 390.67473 86.126563 
L 391.54279 85.644775 
L 392.410851 86.074943 
L 393.278911 86.178183 
L 394.146971 86.487904 
L 395.015032 87.29662 
L 395.883092 85.799635 
L 398.487273 86.487904 
L 398.487273 86.487904 
" style="fill:none;stroke:#2ca02c;stroke-linecap:square;stroke-width:1.5;"/>
   </g>
   <g id="patch_3">
    <path d="M 57.6 307.584 
L 57.6 41.472 
" style="fill:none;stroke:#000000;stroke-linecap:square;stroke-linejoin:miter;stroke-width:0.8;"/>
   </g>
   <g id="patch_4">
    <path d="M 414.72 307.584 
L 414.72 41.472 
" style="fill:none;stroke:#000000;stroke-linecap:square;stroke-linejoin:miter;stroke-width:0.8;"/>
   </g>
   <g id="patch_5">
    <path d="M 57.6 307.584 
L 414.72 307.584 
" style="fill:none;stroke:#000000;stroke-linecap:square;stroke-linejoin:miter;stroke-width:0.8;"/>
   </g>
   <g id="patch_6">
    <path d="M 57.6 41.472 
L 414.72 41.472 
" style="fill:none;stroke:#000000;stroke-linecap:square;stroke-linejoin:miter;stroke-width:0.8;"/>
   </g>
   <g id="text_21">
    <!-- Training and Validation Accuracy -->
    <g transform="translate(138.4575 35.472)scale(0.12 -0.12)">
     <defs>
      <path d="M -19 4666 
L 3928 4666 
L 3928 4134 
L 2272 4134 
L 2272 0 
L 1638 0 
L 1638 4134 
L -19 4134 
L -19 4666 
z
" id="DejaVuSans-54" transform="scale(0.015625)"/>
      <path d="M 603 3500 
L 1178 3500 
L 1178 0 
L 603 0 
L 603 3500 
z
M 603 4863 
L 1178 4863 
L 1178 4134 
L 603 4134 
L 603 4863 
z
" id="DejaVuSans-69" transform="scale(0.015625)"/>
      <path d="M 3513 2113 
L 3513 0 
L 2938 0 
L 2938 2094 
Q 2938 2591 2744 2837 
Q 2550 3084 2163 3084 
Q 1697 3084 1428 2787 
Q 1159 2491 1159 1978 
L 1159 0 
L 581 0 
L 581 3500 
L 1159 3500 
L 1159 2956 
Q 1366 3272 1645 3428 
Q 1925 3584 2291 3584 
Q 2894 3584 3203 3211 
Q 3513 2838 3513 2113 
z
" id="DejaVuSans-6e" transform="scale(0.015625)"/>
      <path d="M 2906 1791 
Q 2906 2416 2648 2759 
Q 2391 3103 1925 3103 
Q 1463 3103 1205 2759 
Q 947 2416 947 1791 
Q 947 1169 1205 825 
Q 1463 481 1925 481 
Q 2391 481 2648 825 
Q 2906 1169 2906 1791 
z
M 3481 434 
Q 3481 -459 3084 -895 
Q 2688 -1331 1869 -1331 
Q 1566 -1331 1297 -1286 
Q 1028 -1241 775 -1147 
L 775 -588 
Q 1028 -725 1275 -790 
Q 1522 -856 1778 -856 
Q 2344 -856 2625 -561 
Q 2906 -266 2906 331 
L 2906 616 
Q 2728 306 2450 153 
Q 2172 0 1784 0 
Q 1141 0 747 490 
Q 353 981 353 1791 
Q 353 2603 747 3093 
Q 1141 3584 1784 3584 
Q 2172 3584 2450 3431 
Q 2728 3278 2906 2969 
L 2906 3500 
L 3481 3500 
L 3481 434 
z
" id="DejaVuSans-67" transform="scale(0.015625)"/>
      <path id="DejaVuSans-20" transform="scale(0.015625)"/>
      <path d="M 2906 2969 
L 2906 4863 
L 3481 4863 
L 3481 0 
L 2906 0 
L 2906 525 
Q 2725 213 2448 61 
Q 2172 -91 1784 -91 
Q 1150 -91 751 415 
Q 353 922 353 1747 
Q 353 2572 751 3078 
Q 1150 3584 1784 3584 
Q 2172 3584 2448 3432 
Q 2725 3281 2906 2969 
z
M 947 1747 
Q 947 1113 1208 752 
Q 1469 391 1925 391 
Q 2381 391 2643 752 
Q 2906 1113 2906 1747 
Q 2906 2381 2643 2742 
Q 2381 3103 1925 3103 
Q 1469 3103 1208 2742 
Q 947 2381 947 1747 
z
" id="DejaVuSans-64" transform="scale(0.015625)"/>
      <path d="M 1831 0 
L 50 4666 
L 709 4666 
L 2188 738 
L 3669 4666 
L 4325 4666 
L 2547 0 
L 1831 0 
z
" id="DejaVuSans-56" transform="scale(0.015625)"/>
      <path d="M 603 4863 
L 1178 4863 
L 1178 0 
L 603 0 
L 603 4863 
z
" id="DejaVuSans-6c" transform="scale(0.015625)"/>
      <path d="M 1172 4494 
L 1172 3500 
L 2356 3500 
L 2356 3053 
L 1172 3053 
L 1172 1153 
Q 1172 725 1289 603 
Q 1406 481 1766 481 
L 2356 481 
L 2356 0 
L 1766 0 
Q 1100 0 847 248 
Q 594 497 594 1153 
L 594 3053 
L 172 3053 
L 172 3500 
L 594 3500 
L 594 4494 
L 1172 4494 
z
" id="DejaVuSans-74" transform="scale(0.015625)"/>
     </defs>
     <use xlink:href="#DejaVuSans-54"/>
     <use x="46.333984" xlink:href="#DejaVuSans-72"/>
     <use x="87.447266" xlink:href="#DejaVuSans-61"/>
     <use x="148.726562" xlink:href="#DejaVuSans-69"/>
     <use x="176.509766" xlink:href="#DejaVuSans-6e"/>
     <use x="239.888672" xlink:href="#DejaVuSans-69"/>
     <use x="267.671875" xlink:href="#DejaVuSans-6e"/>
     <use x="331.050781" xlink:href="#DejaVuSans-67"/>
     <use x="394.527344" xlink:href="#DejaVuSans-20"/>
     <use x="426.314453" xlink:href="#DejaVuSans-61"/>
     <use x="487.59375" xlink:href="#DejaVuSans-6e"/>
     <use x="550.972656" xlink:href="#DejaVuSans-64"/>
     <use x="614.449219" xlink:href="#DejaVuSans-20"/>
     <use x="646.236328" xlink:href="#DejaVuSans-56"/>
     <use x="706.894531" xlink:href="#DejaVuSans-61"/>
     <use x="768.173828" xlink:href="#DejaVuSans-6c"/>
     <use x="795.957031" xlink:href="#DejaVuSans-69"/>
     <use x="823.740234" xlink:href="#DejaVuSans-64"/>
     <use x="887.216797" xlink:href="#DejaVuSans-61"/>
     <use x="948.496094" xlink:href="#DejaVuSans-74"/>
     <use x="987.705078" xlink:href="#DejaVuSans-69"/>
     <use x="1015.488281" xlink:href="#DejaVuSans-6f"/>
     <use x="1076.669922" xlink:href="#DejaVuSans-6e"/>
     <use x="1140.048828" xlink:href="#DejaVuSans-20"/>
     <use x="1171.835938" xlink:href="#DejaVuSans-41"/>
     <use x="1238.494141" xlink:href="#DejaVuSans-63"/>
     <use x="1293.474609" xlink:href="#DejaVuSans-63"/>
     <use x="1348.455078" xlink:href="#DejaVuSans-75"/>
     <use x="1411.833984" xlink:href="#DejaVuSans-72"/>
     <use x="1452.947266" xlink:href="#DejaVuSans-61"/>
     <use x="1514.226562" xlink:href="#DejaVuSans-63"/>
     <use x="1569.207031" xlink:href="#DejaVuSans-79"/>
    </g>
   </g>
   <g id="legend_1">
    <g id="patch_7">
     <path d="M 239.893438 302.584 
L 407.72 302.584 
Q 409.72 302.584 409.72 300.584 
L 409.72 257.549625 
Q 409.72 255.549625 407.72 255.549625 
L 239.893438 255.549625 
Q 237.893438 255.549625 237.893438 257.549625 
L 237.893438 300.584 
Q 237.893438 302.584 239.893438 302.584 
z
" style="fill:#ffffff;opacity:0.8;stroke:#cccccc;stroke-linejoin:miter;"/>
    </g>
    <g id="line2d_22">
     <path d="M 241.893438 263.648062 
L 261.893438 263.648062 
" style="fill:none;stroke:#1f77b4;stroke-linecap:square;stroke-width:1.5;"/>
    </g>
    <g id="line2d_23"/>
    <g id="text_22">
     <!-- Train Accuracy -->
     <g transform="translate(269.893438 267.148062)scale(0.1 -0.1)">
      <use xlink:href="#DejaVuSans-54"/>
      <use x="46.333984" xlink:href="#DejaVuSans-72"/>
      <use x="87.447266" xlink:href="#DejaVuSans-61"/>
      <use x="148.726562" xlink:href="#DejaVuSans-69"/>
      <use x="176.509766" xlink:href="#DejaVuSans-6e"/>
      <use x="239.888672" xlink:href="#DejaVuSans-20"/>
      <use x="271.675781" xlink:href="#DejaVuSans-41"/>
      <use x="338.333984" xlink:href="#DejaVuSans-63"/>
      <use x="393.314453" xlink:href="#DejaVuSans-63"/>
      <use x="448.294922" xlink:href="#DejaVuSans-75"/>
      <use x="511.673828" xlink:href="#DejaVuSans-72"/>
      <use x="552.787109" xlink:href="#DejaVuSans-61"/>
      <use x="614.066406" xlink:href="#DejaVuSans-63"/>
      <use x="669.046875" xlink:href="#DejaVuSans-79"/>
     </g>
    </g>
    <g id="line2d_24">
     <path d="M 241.893438 278.326188 
L 261.893438 278.326188 
" style="fill:none;stroke:#ff7f0e;stroke-linecap:square;stroke-width:1.5;"/>
    </g>
    <g id="line2d_25"/>
    <g id="text_23">
     <!-- Validation Accuracy -->
     <g transform="translate(269.893438 281.826188)scale(0.1 -0.1)">
      <use xlink:href="#DejaVuSans-56"/>
      <use x="60.658203" xlink:href="#DejaVuSans-61"/>
      <use x="121.9375" xlink:href="#DejaVuSans-6c"/>
      <use x="149.720703" xlink:href="#DejaVuSans-69"/>
      <use x="177.503906" xlink:href="#DejaVuSans-64"/>
      <use x="240.980469" xlink:href="#DejaVuSans-61"/>
      <use x="302.259766" xlink:href="#DejaVuSans-74"/>
      <use x="341.46875" xlink:href="#DejaVuSans-69"/>
      <use x="369.251953" xlink:href="#DejaVuSans-6f"/>
      <use x="430.433594" xlink:href="#DejaVuSans-6e"/>
      <use x="493.8125" xlink:href="#DejaVuSans-20"/>
      <use x="525.599609" xlink:href="#DejaVuSans-41"/>
      <use x="592.257812" xlink:href="#DejaVuSans-63"/>
      <use x="647.238281" xlink:href="#DejaVuSans-63"/>
      <use x="702.21875" xlink:href="#DejaVuSans-75"/>
      <use x="765.597656" xlink:href="#DejaVuSans-72"/>
      <use x="806.710938" xlink:href="#DejaVuSans-61"/>
      <use x="867.990234" xlink:href="#DejaVuSans-63"/>
      <use x="922.970703" xlink:href="#DejaVuSans-79"/>
     </g>
    </g>
    <g id="line2d_26">
     <path d="M 241.893438 293.004312 
L 261.893438 293.004312 
" style="fill:none;stroke:#2ca02c;stroke-linecap:square;stroke-width:1.5;"/>
    </g>
    <g id="line2d_27"/>
    <g id="text_24">
     <!-- Robust Validation Accuracy -->
     <g transform="translate(269.893438 296.504312)scale(0.1 -0.1)">
      <defs>
       <path d="M 2841 2188 
Q 3044 2119 3236 1894 
Q 3428 1669 3622 1275 
L 4263 0 
L 3584 0 
L 2988 1197 
Q 2756 1666 2539 1819 
Q 2322 1972 1947 1972 
L 1259 1972 
L 1259 0 
L 628 0 
L 628 4666 
L 2053 4666 
Q 2853 4666 3247 4331 
Q 3641 3997 3641 3322 
Q 3641 2881 3436 2590 
Q 3231 2300 2841 2188 
z
M 1259 4147 
L 1259 2491 
L 2053 2491 
Q 2509 2491 2742 2702 
Q 2975 2913 2975 3322 
Q 2975 3731 2742 3939 
Q 2509 4147 2053 4147 
L 1259 4147 
z
" id="DejaVuSans-52" transform="scale(0.015625)"/>
       <path d="M 3116 1747 
Q 3116 2381 2855 2742 
Q 2594 3103 2138 3103 
Q 1681 3103 1420 2742 
Q 1159 2381 1159 1747 
Q 1159 1113 1420 752 
Q 1681 391 2138 391 
Q 2594 391 2855 752 
Q 3116 1113 3116 1747 
z
M 1159 2969 
Q 1341 3281 1617 3432 
Q 1894 3584 2278 3584 
Q 2916 3584 3314 3078 
Q 3713 2572 3713 1747 
Q 3713 922 3314 415 
Q 2916 -91 2278 -91 
Q 1894 -91 1617 61 
Q 1341 213 1159 525 
L 1159 0 
L 581 0 
L 581 4863 
L 1159 4863 
L 1159 2969 
z
" id="DejaVuSans-62" transform="scale(0.015625)"/>
      </defs>
      <use xlink:href="#DejaVuSans-52"/>
      <use x="64.982422" xlink:href="#DejaVuSans-6f"/>
      <use x="126.164062" xlink:href="#DejaVuSans-62"/>
      <use x="189.640625" xlink:href="#DejaVuSans-75"/>
      <use x="253.019531" xlink:href="#DejaVuSans-73"/>
      <use x="305.119141" xlink:href="#DejaVuSans-74"/>
      <use x="344.328125" xlink:href="#DejaVuSans-20"/>
      <use x="376.115234" xlink:href="#DejaVuSans-56"/>
      <use x="436.773438" xlink:href="#DejaVuSans-61"/>
      <use x="498.052734" xlink:href="#DejaVuSans-6c"/>
      <use x="525.835938" xlink:href="#DejaVuSans-69"/>
      <use x="553.619141" xlink:href="#DejaVuSans-64"/>
      <use x="617.095703" xlink:href="#DejaVuSans-61"/>
      <use x="678.375" xlink:href="#DejaVuSans-74"/>
      <use x="717.583984" xlink:href="#DejaVuSans-69"/>
      <use x="745.367188" xlink:href="#DejaVuSans-6f"/>
      <use x="806.548828" xlink:href="#DejaVuSans-6e"/>
      <use x="869.927734" xlink:href="#DejaVuSans-20"/>
      <use x="901.714844" xlink:href="#DejaVuSans-41"/>
      <use x="968.373047" xlink:href="#DejaVuSans-63"/>
      <use x="1023.353516" xlink:href="#DejaVuSans-63"/>
      <use x="1078.333984" xlink:href="#DejaVuSans-75"/>
      <use x="1141.712891" xlink:href="#DejaVuSans-72"/>
      <use x="1182.826172" xlink:href="#DejaVuSans-61"/>
      <use x="1244.105469" xlink:href="#DejaVuSans-63"/>
      <use x="1299.085938" xlink:href="#DejaVuSans-79"/>
     </g>
    </g>
   </g>
  </g>
 </g>
 <defs>
  <clipPath id="p6e21c7e35b">
   <rect height="266.112" width="357.12" x="57.6" y="41.472"/>
  </clipPath>
 </defs>
</svg>
