<?xml version="1.0" encoding="utf-8" standalone="no"?>
<!DOCTYPE svg PUBLIC "-//W3C//DTD SVG 1.1//EN"
  "http://www.w3.org/Graphics/SVG/1.1/DTD/svg11.dtd">
<svg xmlns:xlink="http://www.w3.org/1999/xlink" width="460.8pt" height="345.6pt" viewBox="0 0 460.8 345.6" xmlns="http://www.w3.org/2000/svg" version="1.1">
 <metadata>
  <rdf:RDF xmlns:dc="http://purl.org/dc/elements/1.1/" xmlns:cc="http://creativecommons.org/ns#" xmlns:rdf="http://www.w3.org/1999/02/22-rdf-syntax-ns#">
   <cc:Work>
    <dc:type rdf:resource="http://purl.org/dc/dcmitype/StillImage"/>
    <dc:date>2024-09-19T19:28:26.781810</dc:date>
    <dc:format>image/svg+xml</dc:format>
    <dc:creator>
     <cc:Agent>
      <dc:title>Matplotlib v3.9.1, https://matplotlib.org/</dc:title>
     </cc:Agent>
    </dc:creator>
   </cc:Work>
  </rdf:RDF>
 </metadata>
 <defs>
  <style type="text/css">*{stroke-linejoin: round; stroke-linecap: butt}</style>
 </defs>
 <g id="figure_1">
  <g id="patch_1">
   <path d="M 0 345.6 
L 460.8 345.6 
L 460.8 0 
L 0 0 
z
" style="fill: #ffffff"/>
  </g>
  <g id="axes_1">
   <g id="patch_2">
    <path d="M 57.6 307.584 
L 414.72 307.584 
L 414.72 41.472 
L 57.6 41.472 
z
" style="fill: #ffffff"/>
   </g>
   <g id="matplotlib.axis_1">
    <g id="xtick_1">
     <g id="line2d_1">
      <defs>
       <path id="mf3e6a0df1b" d="M 0 0 
L 0 3.5 
" style="stroke: #000000; stroke-width: 0.8"/>
      </defs>
      <g>
       <use xlink:href="#mf3e6a0df1b" x="73.832727" y="307.584" style="stroke: #000000; stroke-width: 0.8"/>
      </g>
     </g>
     <g id="text_1">
      <!-- 1 -->
      <g transform="translate(70.651477 322.182437) scale(0.1 -0.1)">
       <defs>
        <path id="DejaVuSans-31" d="M 794 531 
L 1825 531 
L 1825 4091 
L 703 3866 
L 703 4441 
L 1819 4666 
L 2450 4666 
L 2450 531 
L 3481 531 
L 3481 0 
L 794 0 
L 794 531 
z
" transform="scale(0.015625)"/>
       </defs>
       <use xlink:href="#DejaVuSans-31"/>
      </g>
     </g>
    </g>
    <g id="xtick_2">
     <g id="line2d_2">
      <g>
       <use xlink:href="#mf3e6a0df1b" x="109.262733" y="307.584" style="stroke: #000000; stroke-width: 0.8"/>
      </g>
     </g>
     <g id="text_2">
      <!-- 50 -->
      <g transform="translate(102.900233 322.182437) scale(0.1 -0.1)">
       <defs>
        <path id="DejaVuSans-35" d="M 691 4666 
L 3169 4666 
L 3169 4134 
L 1269 4134 
L 1269 2991 
Q 1406 3038 1543 3061 
Q 1681 3084 1819 3084 
Q 2600 3084 3056 2656 
Q 3513 2228 3513 1497 
Q 3513 744 3044 326 
Q 2575 -91 1722 -91 
Q 1428 -91 1123 -41 
Q 819 9 494 109 
L 494 744 
Q 775 591 1075 516 
Q 1375 441 1709 441 
Q 2250 441 2565 725 
Q 2881 1009 2881 1497 
Q 2881 1984 2565 2268 
Q 2250 2553 1709 2553 
Q 1456 2553 1204 2497 
Q 953 2441 691 2322 
L 691 4666 
z
" transform="scale(0.015625)"/>
        <path id="DejaVuSans-30" d="M 2034 4250 
Q 1547 4250 1301 3770 
Q 1056 3291 1056 2328 
Q 1056 1369 1301 889 
Q 1547 409 2034 409 
Q 2525 409 2770 889 
Q 3016 1369 3016 2328 
Q 3016 3291 2770 3770 
Q 2525 4250 2034 4250 
z
M 2034 4750 
Q 2819 4750 3233 4129 
Q 3647 3509 3647 2328 
Q 3647 1150 3233 529 
Q 2819 -91 2034 -91 
Q 1250 -91 836 529 
Q 422 1150 422 2328 
Q 422 3509 836 4129 
Q 1250 4750 2034 4750 
z
" transform="scale(0.015625)"/>
       </defs>
       <use xlink:href="#DejaVuSans-35"/>
       <use xlink:href="#DejaVuSans-30" x="63.623047"/>
      </g>
     </g>
    </g>
    <g id="xtick_3">
     <g id="line2d_3">
      <g>
       <use xlink:href="#mf3e6a0df1b" x="145.415801" y="307.584" style="stroke: #000000; stroke-width: 0.8"/>
      </g>
     </g>
     <g id="text_3">
      <!-- 100 -->
      <g transform="translate(135.872051 322.182437) scale(0.1 -0.1)">
       <use xlink:href="#DejaVuSans-31"/>
       <use xlink:href="#DejaVuSans-30" x="63.623047"/>
       <use xlink:href="#DejaVuSans-30" x="127.246094"/>
      </g>
     </g>
    </g>
    <g id="xtick_4">
     <g id="line2d_4">
      <g>
       <use xlink:href="#mf3e6a0df1b" x="181.568868" y="307.584" style="stroke: #000000; stroke-width: 0.8"/>
      </g>
     </g>
     <g id="text_4">
      <!-- 150 -->
      <g transform="translate(172.025118 322.182437) scale(0.1 -0.1)">
       <use xlink:href="#DejaVuSans-31"/>
       <use xlink:href="#DejaVuSans-35" x="63.623047"/>
       <use xlink:href="#DejaVuSans-30" x="127.246094"/>
      </g>
     </g>
    </g>
    <g id="xtick_5">
     <g id="line2d_5">
      <g>
       <use xlink:href="#mf3e6a0df1b" x="217.721936" y="307.584" style="stroke: #000000; stroke-width: 0.8"/>
      </g>
     </g>
     <g id="text_5">
      <!-- 200 -->
      <g transform="translate(208.178186 322.182437) scale(0.1 -0.1)">
       <defs>
        <path id="DejaVuSans-32" d="M 1228 531 
L 3431 531 
L 3431 0 
L 469 0 
L 469 531 
Q 828 903 1448 1529 
Q 2069 2156 2228 2338 
Q 2531 2678 2651 2914 
Q 2772 3150 2772 3378 
Q 2772 3750 2511 3984 
Q 2250 4219 1831 4219 
Q 1534 4219 1204 4116 
Q 875 4013 500 3803 
L 500 4441 
Q 881 4594 1212 4672 
Q 1544 4750 1819 4750 
Q 2544 4750 2975 4387 
Q 3406 4025 3406 3419 
Q 3406 3131 3298 2873 
Q 3191 2616 2906 2266 
Q 2828 2175 2409 1742 
Q 1991 1309 1228 531 
z
" transform="scale(0.015625)"/>
       </defs>
       <use xlink:href="#DejaVuSans-32"/>
       <use xlink:href="#DejaVuSans-30" x="63.623047"/>
       <use xlink:href="#DejaVuSans-30" x="127.246094"/>
      </g>
     </g>
    </g>
    <g id="xtick_6">
     <g id="line2d_6">
      <g>
       <use xlink:href="#mf3e6a0df1b" x="253.875003" y="307.584" style="stroke: #000000; stroke-width: 0.8"/>
      </g>
     </g>
     <g id="text_6">
      <!-- 250 -->
      <g transform="translate(244.331253 322.182437) scale(0.1 -0.1)">
       <use xlink:href="#DejaVuSans-32"/>
       <use xlink:href="#DejaVuSans-35" x="63.623047"/>
       <use xlink:href="#DejaVuSans-30" x="127.246094"/>
      </g>
     </g>
    </g>
    <g id="xtick_7">
     <g id="line2d_7">
      <g>
       <use xlink:href="#mf3e6a0df1b" x="290.02807" y="307.584" style="stroke: #000000; stroke-width: 0.8"/>
      </g>
     </g>
     <g id="text_7">
      <!-- 300 -->
      <g transform="translate(280.48432 322.182437) scale(0.1 -0.1)">
       <defs>
        <path id="DejaVuSans-33" d="M 2597 2516 
Q 3050 2419 3304 2112 
Q 3559 1806 3559 1356 
Q 3559 666 3084 287 
Q 2609 -91 1734 -91 
Q 1441 -91 1130 -33 
Q 819 25 488 141 
L 488 750 
Q 750 597 1062 519 
Q 1375 441 1716 441 
Q 2309 441 2620 675 
Q 2931 909 2931 1356 
Q 2931 1769 2642 2001 
Q 2353 2234 1838 2234 
L 1294 2234 
L 1294 2753 
L 1863 2753 
Q 2328 2753 2575 2939 
Q 2822 3125 2822 3475 
Q 2822 3834 2567 4026 
Q 2313 4219 1838 4219 
Q 1578 4219 1281 4162 
Q 984 4106 628 3988 
L 628 4550 
Q 988 4650 1302 4700 
Q 1616 4750 1894 4750 
Q 2613 4750 3031 4423 
Q 3450 4097 3450 3541 
Q 3450 3153 3228 2886 
Q 3006 2619 2597 2516 
z
" transform="scale(0.015625)"/>
       </defs>
       <use xlink:href="#DejaVuSans-33"/>
       <use xlink:href="#DejaVuSans-30" x="63.623047"/>
       <use xlink:href="#DejaVuSans-30" x="127.246094"/>
      </g>
     </g>
    </g>
    <g id="xtick_8">
     <g id="line2d_8">
      <g>
       <use xlink:href="#mf3e6a0df1b" x="326.181138" y="307.584" style="stroke: #000000; stroke-width: 0.8"/>
      </g>
     </g>
     <g id="text_8">
      <!-- 350 -->
      <g transform="translate(316.637388 322.182437) scale(0.1 -0.1)">
       <use xlink:href="#DejaVuSans-33"/>
       <use xlink:href="#DejaVuSans-35" x="63.623047"/>
       <use xlink:href="#DejaVuSans-30" x="127.246094"/>
      </g>
     </g>
    </g>
    <g id="xtick_9">
     <g id="line2d_9">
      <g>
       <use xlink:href="#mf3e6a0df1b" x="362.334205" y="307.584" style="stroke: #000000; stroke-width: 0.8"/>
      </g>
     </g>
     <g id="text_9">
      <!-- 400 -->
      <g transform="translate(352.790455 322.182437) scale(0.1 -0.1)">
       <defs>
        <path id="DejaVuSans-34" d="M 2419 4116 
L 825 1625 
L 2419 1625 
L 2419 4116 
z
M 2253 4666 
L 3047 4666 
L 3047 1625 
L 3713 1625 
L 3713 1100 
L 3047 1100 
L 3047 0 
L 2419 0 
L 2419 1100 
L 313 1100 
L 313 1709 
L 2253 4666 
z
" transform="scale(0.015625)"/>
       </defs>
       <use xlink:href="#DejaVuSans-34"/>
       <use xlink:href="#DejaVuSans-30" x="63.623047"/>
       <use xlink:href="#DejaVuSans-30" x="127.246094"/>
      </g>
     </g>
    </g>
    <g id="xtick_10">
     <g id="line2d_10">
      <g>
       <use xlink:href="#mf3e6a0df1b" x="398.487273" y="307.584" style="stroke: #000000; stroke-width: 0.8"/>
      </g>
     </g>
     <g id="text_10">
      <!-- 450 -->
      <g transform="translate(388.943523 322.182437) scale(0.1 -0.1)">
       <use xlink:href="#DejaVuSans-34"/>
       <use xlink:href="#DejaVuSans-35" x="63.623047"/>
       <use xlink:href="#DejaVuSans-30" x="127.246094"/>
      </g>
     </g>
    </g>
    <g id="text_11">
     <!-- Epochs -->
     <g transform="translate(218.244375 335.860562) scale(0.1 -0.1)">
      <defs>
       <path id="DejaVuSans-45" d="M 628 4666 
L 3578 4666 
L 3578 4134 
L 1259 4134 
L 1259 2753 
L 3481 2753 
L 3481 2222 
L 1259 2222 
L 1259 531 
L 3634 531 
L 3634 0 
L 628 0 
L 628 4666 
z
" transform="scale(0.015625)"/>
       <path id="DejaVuSans-70" d="M 1159 525 
L 1159 -1331 
L 581 -1331 
L 581 3500 
L 1159 3500 
L 1159 2969 
Q 1341 3281 1617 3432 
Q 1894 3584 2278 3584 
Q 2916 3584 3314 3078 
Q 3713 2572 3713 1747 
Q 3713 922 3314 415 
Q 2916 -91 2278 -91 
Q 1894 -91 1617 61 
Q 1341 213 1159 525 
z
M 3116 1747 
Q 3116 2381 2855 2742 
Q 2594 3103 2138 3103 
Q 1681 3103 1420 2742 
Q 1159 2381 1159 1747 
Q 1159 1113 1420 752 
Q 1681 391 2138 391 
Q 2594 391 2855 752 
Q 3116 1113 3116 1747 
z
" transform="scale(0.015625)"/>
       <path id="DejaVuSans-6f" d="M 1959 3097 
Q 1497 3097 1228 2736 
Q 959 2375 959 1747 
Q 959 1119 1226 758 
Q 1494 397 1959 397 
Q 2419 397 2687 759 
Q 2956 1122 2956 1747 
Q 2956 2369 2687 2733 
Q 2419 3097 1959 3097 
z
M 1959 3584 
Q 2709 3584 3137 3096 
Q 3566 2609 3566 1747 
Q 3566 888 3137 398 
Q 2709 -91 1959 -91 
Q 1206 -91 779 398 
Q 353 888 353 1747 
Q 353 2609 779 3096 
Q 1206 3584 1959 3584 
z
" transform="scale(0.015625)"/>
       <path id="DejaVuSans-63" d="M 3122 3366 
L 3122 2828 
Q 2878 2963 2633 3030 
Q 2388 3097 2138 3097 
Q 1578 3097 1268 2742 
Q 959 2388 959 1747 
Q 959 1106 1268 751 
Q 1578 397 2138 397 
Q 2388 397 2633 464 
Q 2878 531 3122 666 
L 3122 134 
Q 2881 22 2623 -34 
Q 2366 -91 2075 -91 
Q 1284 -91 818 406 
Q 353 903 353 1747 
Q 353 2603 823 3093 
Q 1294 3584 2113 3584 
Q 2378 3584 2631 3529 
Q 2884 3475 3122 3366 
z
" transform="scale(0.015625)"/>
       <path id="DejaVuSans-68" d="M 3513 2113 
L 3513 0 
L 2938 0 
L 2938 2094 
Q 2938 2591 2744 2837 
Q 2550 3084 2163 3084 
Q 1697 3084 1428 2787 
Q 1159 2491 1159 1978 
L 1159 0 
L 581 0 
L 581 4863 
L 1159 4863 
L 1159 2956 
Q 1366 3272 1645 3428 
Q 1925 3584 2291 3584 
Q 2894 3584 3203 3211 
Q 3513 2838 3513 2113 
z
" transform="scale(0.015625)"/>
       <path id="DejaVuSans-73" d="M 2834 3397 
L 2834 2853 
Q 2591 2978 2328 3040 
Q 2066 3103 1784 3103 
Q 1356 3103 1142 2972 
Q 928 2841 928 2578 
Q 928 2378 1081 2264 
Q 1234 2150 1697 2047 
L 1894 2003 
Q 2506 1872 2764 1633 
Q 3022 1394 3022 966 
Q 3022 478 2636 193 
Q 2250 -91 1575 -91 
Q 1294 -91 989 -36 
Q 684 19 347 128 
L 347 722 
Q 666 556 975 473 
Q 1284 391 1588 391 
Q 1994 391 2212 530 
Q 2431 669 2431 922 
Q 2431 1156 2273 1281 
Q 2116 1406 1581 1522 
L 1381 1569 
Q 847 1681 609 1914 
Q 372 2147 372 2553 
Q 372 3047 722 3315 
Q 1072 3584 1716 3584 
Q 2034 3584 2315 3537 
Q 2597 3491 2834 3397 
z
" transform="scale(0.015625)"/>
      </defs>
      <use xlink:href="#DejaVuSans-45"/>
      <use xlink:href="#DejaVuSans-70" x="63.183594"/>
      <use xlink:href="#DejaVuSans-6f" x="126.660156"/>
      <use xlink:href="#DejaVuSans-63" x="187.841797"/>
      <use xlink:href="#DejaVuSans-68" x="242.822266"/>
      <use xlink:href="#DejaVuSans-73" x="306.201172"/>
     </g>
    </g>
   </g>
   <g id="matplotlib.axis_2">
    <g id="ytick_1">
     <g id="line2d_11">
      <defs>
       <path id="m66a404c0f9" d="M 0 0 
L -3.5 0 
" style="stroke: #000000; stroke-width: 0.8"/>
      </defs>
      <g>
       <use xlink:href="#m66a404c0f9" x="57.6" y="288.991922" style="stroke: #000000; stroke-width: 0.8"/>
      </g>
     </g>
     <g id="text_12">
      <!-- 10 -->
      <g transform="translate(37.875 292.79114) scale(0.1 -0.1)">
       <use xlink:href="#DejaVuSans-31"/>
       <use xlink:href="#DejaVuSans-30" x="63.623047"/>
      </g>
     </g>
    </g>
    <g id="ytick_2">
     <g id="line2d_12">
      <g>
       <use xlink:href="#m66a404c0f9" x="57.6" y="258.777604" style="stroke: #000000; stroke-width: 0.8"/>
      </g>
     </g>
     <g id="text_13">
      <!-- 20 -->
      <g transform="translate(37.875 262.576823) scale(0.1 -0.1)">
       <use xlink:href="#DejaVuSans-32"/>
       <use xlink:href="#DejaVuSans-30" x="63.623047"/>
      </g>
     </g>
    </g>
    <g id="ytick_3">
     <g id="line2d_13">
      <g>
       <use xlink:href="#m66a404c0f9" x="57.6" y="228.563286" style="stroke: #000000; stroke-width: 0.8"/>
      </g>
     </g>
     <g id="text_14">
      <!-- 30 -->
      <g transform="translate(37.875 232.362505) scale(0.1 -0.1)">
       <use xlink:href="#DejaVuSans-33"/>
       <use xlink:href="#DejaVuSans-30" x="63.623047"/>
      </g>
     </g>
    </g>
    <g id="ytick_4">
     <g id="line2d_14">
      <g>
       <use xlink:href="#m66a404c0f9" x="57.6" y="198.348968" style="stroke: #000000; stroke-width: 0.8"/>
      </g>
     </g>
     <g id="text_15">
      <!-- 40 -->
      <g transform="translate(37.875 202.148187) scale(0.1 -0.1)">
       <use xlink:href="#DejaVuSans-34"/>
       <use xlink:href="#DejaVuSans-30" x="63.623047"/>
      </g>
     </g>
    </g>
    <g id="ytick_5">
     <g id="line2d_15">
      <g>
       <use xlink:href="#m66a404c0f9" x="57.6" y="168.13465" style="stroke: #000000; stroke-width: 0.8"/>
      </g>
     </g>
     <g id="text_16">
      <!-- 50 -->
      <g transform="translate(37.875 171.933869) scale(0.1 -0.1)">
       <use xlink:href="#DejaVuSans-35"/>
       <use xlink:href="#DejaVuSans-30" x="63.623047"/>
      </g>
     </g>
    </g>
    <g id="ytick_6">
     <g id="line2d_16">
      <g>
       <use xlink:href="#m66a404c0f9" x="57.6" y="137.920333" style="stroke: #000000; stroke-width: 0.8"/>
      </g>
     </g>
     <g id="text_17">
      <!-- 60 -->
      <g transform="translate(37.875 141.719551) scale(0.1 -0.1)">
       <defs>
        <path id="DejaVuSans-36" d="M 2113 2584 
Q 1688 2584 1439 2293 
Q 1191 2003 1191 1497 
Q 1191 994 1439 701 
Q 1688 409 2113 409 
Q 2538 409 2786 701 
Q 3034 994 3034 1497 
Q 3034 2003 2786 2293 
Q 2538 2584 2113 2584 
z
M 3366 4563 
L 3366 3988 
Q 3128 4100 2886 4159 
Q 2644 4219 2406 4219 
Q 1781 4219 1451 3797 
Q 1122 3375 1075 2522 
Q 1259 2794 1537 2939 
Q 1816 3084 2150 3084 
Q 2853 3084 3261 2657 
Q 3669 2231 3669 1497 
Q 3669 778 3244 343 
Q 2819 -91 2113 -91 
Q 1303 -91 875 529 
Q 447 1150 447 2328 
Q 447 3434 972 4092 
Q 1497 4750 2381 4750 
Q 2619 4750 2861 4703 
Q 3103 4656 3366 4563 
z
" transform="scale(0.015625)"/>
       </defs>
       <use xlink:href="#DejaVuSans-36"/>
       <use xlink:href="#DejaVuSans-30" x="63.623047"/>
      </g>
     </g>
    </g>
    <g id="ytick_7">
     <g id="line2d_17">
      <g>
       <use xlink:href="#m66a404c0f9" x="57.6" y="107.706015" style="stroke: #000000; stroke-width: 0.8"/>
      </g>
     </g>
     <g id="text_18">
      <!-- 70 -->
      <g transform="translate(37.875 111.505233) scale(0.1 -0.1)">
       <defs>
        <path id="DejaVuSans-37" d="M 525 4666 
L 3525 4666 
L 3525 4397 
L 1831 0 
L 1172 0 
L 2766 4134 
L 525 4134 
L 525 4666 
z
" transform="scale(0.015625)"/>
       </defs>
       <use xlink:href="#DejaVuSans-37"/>
       <use xlink:href="#DejaVuSans-30" x="63.623047"/>
      </g>
     </g>
    </g>
    <g id="ytick_8">
     <g id="line2d_18">
      <g>
       <use xlink:href="#m66a404c0f9" x="57.6" y="77.491697" style="stroke: #000000; stroke-width: 0.8"/>
      </g>
     </g>
     <g id="text_19">
      <!-- 80 -->
      <g transform="translate(37.875 81.290916) scale(0.1 -0.1)">
       <defs>
        <path id="DejaVuSans-38" d="M 2034 2216 
Q 1584 2216 1326 1975 
Q 1069 1734 1069 1313 
Q 1069 891 1326 650 
Q 1584 409 2034 409 
Q 2484 409 2743 651 
Q 3003 894 3003 1313 
Q 3003 1734 2745 1975 
Q 2488 2216 2034 2216 
z
M 1403 2484 
Q 997 2584 770 2862 
Q 544 3141 544 3541 
Q 544 4100 942 4425 
Q 1341 4750 2034 4750 
Q 2731 4750 3128 4425 
Q 3525 4100 3525 3541 
Q 3525 3141 3298 2862 
Q 3072 2584 2669 2484 
Q 3125 2378 3379 2068 
Q 3634 1759 3634 1313 
Q 3634 634 3220 271 
Q 2806 -91 2034 -91 
Q 1263 -91 848 271 
Q 434 634 434 1313 
Q 434 1759 690 2068 
Q 947 2378 1403 2484 
z
M 1172 3481 
Q 1172 3119 1398 2916 
Q 1625 2713 2034 2713 
Q 2441 2713 2670 2916 
Q 2900 3119 2900 3481 
Q 2900 3844 2670 4047 
Q 2441 4250 2034 4250 
Q 1625 4250 1398 4047 
Q 1172 3844 1172 3481 
z
" transform="scale(0.015625)"/>
       </defs>
       <use xlink:href="#DejaVuSans-38"/>
       <use xlink:href="#DejaVuSans-30" x="63.623047"/>
      </g>
     </g>
    </g>
    <g id="ytick_9">
     <g id="line2d_19">
      <g>
       <use xlink:href="#m66a404c0f9" x="57.6" y="47.277379" style="stroke: #000000; stroke-width: 0.8"/>
      </g>
     </g>
     <g id="text_20">
      <!-- 90 -->
      <g transform="translate(37.875 51.076598) scale(0.1 -0.1)">
       <defs>
        <path id="DejaVuSans-39" d="M 703 97 
L 703 672 
Q 941 559 1184 500 
Q 1428 441 1663 441 
Q 2288 441 2617 861 
Q 2947 1281 2994 2138 
Q 2813 1869 2534 1725 
Q 2256 1581 1919 1581 
Q 1219 1581 811 2004 
Q 403 2428 403 3163 
Q 403 3881 828 4315 
Q 1253 4750 1959 4750 
Q 2769 4750 3195 4129 
Q 3622 3509 3622 2328 
Q 3622 1225 3098 567 
Q 2575 -91 1691 -91 
Q 1453 -91 1209 -44 
Q 966 3 703 97 
z
M 1959 2075 
Q 2384 2075 2632 2365 
Q 2881 2656 2881 3163 
Q 2881 3666 2632 3958 
Q 2384 4250 1959 4250 
Q 1534 4250 1286 3958 
Q 1038 3666 1038 3163 
Q 1038 2656 1286 2365 
Q 1534 2075 1959 2075 
z
" transform="scale(0.015625)"/>
       </defs>
       <use xlink:href="#DejaVuSans-39"/>
       <use xlink:href="#DejaVuSans-30" x="63.623047"/>
      </g>
     </g>
    </g>
    <g id="text_21">
     <!-- Accuracy -->
     <g transform="translate(31.795312 197.356125) rotate(-90) scale(0.1 -0.1)">
      <defs>
       <path id="DejaVuSans-41" d="M 2188 4044 
L 1331 1722 
L 3047 1722 
L 2188 4044 
z
M 1831 4666 
L 2547 4666 
L 4325 0 
L 3669 0 
L 3244 1197 
L 1141 1197 
L 716 0 
L 50 0 
L 1831 4666 
z
" transform="scale(0.015625)"/>
       <path id="DejaVuSans-75" d="M 544 1381 
L 544 3500 
L 1119 3500 
L 1119 1403 
Q 1119 906 1312 657 
Q 1506 409 1894 409 
Q 2359 409 2629 706 
Q 2900 1003 2900 1516 
L 2900 3500 
L 3475 3500 
L 3475 0 
L 2900 0 
L 2900 538 
Q 2691 219 2414 64 
Q 2138 -91 1772 -91 
Q 1169 -91 856 284 
Q 544 659 544 1381 
z
M 1991 3584 
L 1991 3584 
z
" transform="scale(0.015625)"/>
       <path id="DejaVuSans-72" d="M 2631 2963 
Q 2534 3019 2420 3045 
Q 2306 3072 2169 3072 
Q 1681 3072 1420 2755 
Q 1159 2438 1159 1844 
L 1159 0 
L 581 0 
L 581 3500 
L 1159 3500 
L 1159 2956 
Q 1341 3275 1631 3429 
Q 1922 3584 2338 3584 
Q 2397 3584 2469 3576 
Q 2541 3569 2628 3553 
L 2631 2963 
z
" transform="scale(0.015625)"/>
       <path id="DejaVuSans-61" d="M 2194 1759 
Q 1497 1759 1228 1600 
Q 959 1441 959 1056 
Q 959 750 1161 570 
Q 1363 391 1709 391 
Q 2188 391 2477 730 
Q 2766 1069 2766 1631 
L 2766 1759 
L 2194 1759 
z
M 3341 1997 
L 3341 0 
L 2766 0 
L 2766 531 
Q 2569 213 2275 61 
Q 1981 -91 1556 -91 
Q 1019 -91 701 211 
Q 384 513 384 1019 
Q 384 1609 779 1909 
Q 1175 2209 1959 2209 
L 2766 2209 
L 2766 2266 
Q 2766 2663 2505 2880 
Q 2244 3097 1772 3097 
Q 1472 3097 1187 3025 
Q 903 2953 641 2809 
L 641 3341 
Q 956 3463 1253 3523 
Q 1550 3584 1831 3584 
Q 2591 3584 2966 3190 
Q 3341 2797 3341 1997 
z
" transform="scale(0.015625)"/>
       <path id="DejaVuSans-79" d="M 2059 -325 
Q 1816 -950 1584 -1140 
Q 1353 -1331 966 -1331 
L 506 -1331 
L 506 -850 
L 844 -850 
Q 1081 -850 1212 -737 
Q 1344 -625 1503 -206 
L 1606 56 
L 191 3500 
L 800 3500 
L 1894 763 
L 2988 3500 
L 3597 3500 
L 2059 -325 
z
" transform="scale(0.015625)"/>
      </defs>
      <use xlink:href="#DejaVuSans-41"/>
      <use xlink:href="#DejaVuSans-63" x="66.658203"/>
      <use xlink:href="#DejaVuSans-63" x="121.638672"/>
      <use xlink:href="#DejaVuSans-75" x="176.619141"/>
      <use xlink:href="#DejaVuSans-72" x="239.998047"/>
      <use xlink:href="#DejaVuSans-61" x="281.111328"/>
      <use xlink:href="#DejaVuSans-63" x="342.390625"/>
      <use xlink:href="#DejaVuSans-79" x="397.371094"/>
     </g>
    </g>
   </g>
   <g id="line2d_20">
    <path d="M 73.832727 294.714513 
L 76.001911 218.616733 
L 76.724973 200.204127 
L 77.448034 185.393069 
L 78.894157 164.599575 
L 79.617218 159.167041 
L 80.340279 152.284219 
L 81.063341 147.383457 
L 82.509463 139.49752 
L 83.232525 134.971415 
L 83.955586 128.94668 
L 84.678647 127.57495 
L 85.401709 125.115505 
L 86.12477 120.891543 
L 86.847832 118.262897 
L 87.570893 116.98181 
L 88.293954 113.12042 
L 89.017016 112.044791 
L 89.740077 108.981059 
L 91.1862 106.751242 
L 91.909261 104.799397 
L 92.632322 104.557683 
L 93.355384 101.663151 
L 94.078445 102.726695 
L 94.801506 101.391222 
L 95.524568 126.861892 
L 96.247629 128.638494 
L 96.97069 127.303021 
L 98.416813 122.692316 
L 99.139874 122.106159 
L 99.862936 119.634627 
L 101.309059 116.250624 
L 102.755181 113.658235 
L 103.478243 111.506976 
L 104.201304 110.854347 
L 104.924365 108.727259 
L 105.647427 108.545973 
L 106.370488 106.950657 
L 107.093549 106.255727 
L 107.816611 105.337212 
L 108.539672 103.312853 
L 109.262733 102.309738 
L 109.985795 101.59668 
L 110.708856 100.56335 
L 111.431917 99.06472 
L 112.154979 98.496691 
L 112.87804 97.112875 
L 113.601101 96.919503 
L 114.324163 95.148944 
L 115.770285 92.743884 
L 116.493347 91.021668 
L 117.216408 91.051883 
L 117.93947 90.87664 
L 118.662531 88.09088 
L 119.385592 86.93065 
L 120.108654 86.713107 
L 120.831715 86.199463 
L 121.554776 85.353462 
L 122.277838 83.413703 
L 123.72396 82.839631 
L 124.447022 81.371215 
L 125.170083 80.277457 
L 127.339267 78.247055 
L 128.062328 78.283312 
L 128.78539 76.542967 
L 129.508451 75.618409 
L 130.231512 74.899308 
L 130.954574 73.787421 
L 131.677635 73.926407 
L 132.400696 73.708864 
L 134.569881 72.01082 
L 135.292942 72.065205 
L 136.016003 71.285676 
L 136.739065 72.13772 
L 138.185187 71.980605 
L 138.908249 94.870972 
L 139.63131 98.792791 
L 140.354371 98.013262 
L 141.077433 99.23392 
L 141.800494 98.557119 
L 142.523555 97.215604 
L 143.246617 97.276032 
L 143.969678 96.647574 
L 144.692739 95.571945 
L 146.138862 95.24563 
L 146.861923 94.538615 
L 147.584985 94.006843 
L 148.308046 94.925358 
L 149.031108 92.659284 
L 149.754169 92.774099 
L 150.47723 92.568641 
L 151.200292 91.704512 
L 151.923353 91.982484 
L 152.646414 90.91894 
L 154.092537 90.489896 
L 154.815598 90.127325 
L 155.53866 90.30861 
L 156.261721 88.870409 
L 156.984782 88.80998 
L 157.707844 88.423237 
L 158.430905 87.075678 
L 159.153966 87.758522 
L 159.877028 87.510765 
L 160.600089 86.755407 
L 161.32315 86.471392 
L 162.046212 85.123834 
L 162.769273 84.857948 
L 163.492334 84.338261 
L 164.215396 83.999861 
L 165.661519 82.85776 
L 166.38458 84.35639 
L 167.107641 83.129689 
L 167.830703 83.117603 
L 168.553764 83.498303 
L 169.276825 81.044901 
L 169.999887 82.325988 
L 170.722948 80.851529 
L 171.446009 81.292658 
L 172.169071 80.307671 
L 172.892132 79.951142 
L 173.615193 78.875513 
L 174.338255 78.815084 
L 175.061316 79.256213 
L 175.784377 76.875325 
L 176.507439 78.464598 
L 177.2305 76.174353 
L 177.953561 75.811781 
L 178.676623 76.174353 
L 179.399684 76.724253 
L 180.122745 74.893266 
L 180.845807 75.183323 
L 181.568868 73.914322 
L 182.29193 74.905351 
L 183.014991 72.844735 
L 183.738052 72.639277 
L 184.461114 71.738891 
L 185.907236 72.210234 
L 186.630298 71.267547 
L 187.353359 71.394448 
L 188.799482 70.548447 
L 189.522543 69.110245 
L 190.245604 70.15566 
L 190.968666 68.78393 
L 191.691727 68.034615 
L 192.414788 67.551186 
L 193.13785 66.795828 
L 193.860911 66.384914 
L 194.583972 66.771657 
L 195.307034 65.635599 
L 196.030095 65.641641 
L 196.753157 64.396812 
L 197.476218 65.031312 
L 198.199279 64.692912 
L 198.922341 64.052368 
L 200.368463 62.070309 
L 201.091525 63.393696 
L 201.814586 62.849838 
L 202.537647 61.743994 
L 203.260709 61.870895 
L 203.98377 61.508323 
L 204.706831 60.626065 
L 205.429893 60.058035 
L 206.152954 60.710665 
L 206.876015 59.163692 
L 207.599077 59.429578 
L 209.045199 58.686305 
L 209.768261 58.644005 
L 210.491322 57.912819 
L 211.937445 58.233091 
L 213.383568 57.205804 
L 214.106629 57.308533 
L 214.82969 56.867404 
L 215.552752 56.885532 
L 216.275813 57.943033 
L 216.998874 55.695088 
L 217.721936 55.84616 
L 218.444997 55.392945 
L 219.89112 56.541089 
L 220.614181 56.819061 
L 221.337242 55.562145 
L 222.060304 56.051617 
L 222.783365 55.755517 
L 223.506426 55.592359 
L 224.229488 56.160388 
L 224.952549 55.882417 
L 225.67561 80.3681 
L 226.398672 83.637289 
L 227.121733 85.069448 
L 227.844794 85.534748 
L 228.567856 85.456191 
L 229.290917 85.051319 
L 230.013979 85.238648 
L 230.73704 84.61019 
L 231.460101 85.099662 
L 232.183163 85.033191 
L 232.906224 84.640404 
L 233.629285 84.604147 
L 234.352347 84.175104 
L 235.075408 83.957561 
L 235.798469 84.072375 
L 237.244592 83.987775 
L 237.967653 82.471016 
L 238.690715 83.395575 
L 239.413776 83.842746 
L 240.136837 82.936317 
L 242.306021 82.211173 
L 243.029083 82.863803 
L 243.752144 81.751916 
L 244.475206 81.806301 
L 245.198267 81.437687 
L 245.921328 80.881743 
L 246.64439 81.177844 
L 247.367451 80.694415 
L 248.090512 80.6219 
L 249.536635 79.818199 
L 250.259696 80.700457 
L 251.705819 80.126385 
L 252.42888 79.866542 
L 253.151942 79.383113 
L 253.875003 78.398126 
L 254.598064 79.244127 
L 256.044187 79.455628 
L 256.767248 79.280384 
L 257.49031 78.941984 
L 258.213371 78.138283 
L 258.936432 78.259141 
L 259.659494 77.944912 
L 260.382555 78.241012 
L 261.828678 77.479611 
L 262.551739 76.863239 
L 263.274801 77.038482 
L 263.997862 77.630683 
L 264.720923 77.189554 
L 265.443985 76.881368 
L 266.167046 76.410024 
L 268.33623 75.624452 
L 269.059291 76.488582 
L 269.782353 75.497552 
L 270.505414 76.077667 
L 271.228475 76.035367 
L 271.951537 75.183323 
L 272.674598 75.817824 
L 273.397659 75.449209 
L 274.120721 74.500479 
L 274.843782 74.917437 
L 275.566843 74.524651 
L 276.289905 73.878064 
L 277.736028 74.591122 
L 278.459089 74.506522 
L 279.905212 73.884107 
L 280.628273 72.457992 
L 282.074396 73.769293 
L 282.797457 73.515493 
L 283.520518 72.500292 
L 284.24358 72.22232 
L 284.966641 72.30692 
L 285.689702 72.699706 
L 286.412764 72.43382 
L 287.135825 71.605948 
L 287.858886 72.149805 
L 288.581948 71.708676 
L 289.305009 71.031876 
L 290.02807 70.85059 
L 290.751132 69.962289 
L 291.474193 71.255462 
L 292.197255 72.016862 
L 292.920316 70.699518 
L 293.643377 70.415504 
L 294.366439 69.883732 
L 295.0895 70.530318 
L 295.812561 70.457804 
L 296.535623 69.30966 
L 297.258684 70.584704 
L 297.981745 69.448645 
L 298.704807 68.729545 
L 299.427868 68.300501 
L 300.150929 68.711416 
L 300.873991 67.835201 
L 301.597052 67.93793 
L 302.320113 67.859372 
L 303.043175 68.113173 
L 303.766236 67.448458 
L 304.489297 67.236957 
L 305.212359 67.212786 
L 305.93542 68.161516 
L 306.658481 66.699143 
L 307.381543 66.457428 
L 308.104604 66.409085 
L 308.827666 66.233842 
L 309.550727 66.282185 
L 310.273788 65.424098 
L 310.99685 66.034428 
L 311.719911 66.312399 
L 312.442972 64.922541 
L 313.889095 65.40597 
L 314.612156 63.979854 
L 315.335218 64.233654 
L 316.058279 64.136968 
L 316.78134 63.780439 
L 317.504402 63.90734 
L 318.227463 63.768354 
L 318.950524 63.804611 
L 319.673586 63.12781 
L 320.396647 62.855881 
L 321.119708 62.880053 
L 322.565831 62.632295 
L 323.288892 62.626252 
L 324.011954 61.870895 
L 324.735015 61.889023 
L 325.458077 61.707737 
L 326.181138 61.242437 
L 326.904199 61.049065 
L 327.627261 60.444779 
L 328.350322 60.203064 
L 329.073383 61.278694 
L 329.796445 61.055108 
L 330.519506 59.725678 
L 331.242567 59.816321 
L 331.965629 59.465835 
L 332.68869 59.689421 
L 333.411751 58.764863 
L 334.134813 59.042834 
L 334.857874 58.680263 
L 335.580935 58.190791 
L 336.303997 58.359991 
L 337.027058 58.335819 
L 337.750119 57.876562 
L 338.473181 57.967205 
L 339.196242 57.199761 
L 340.642365 57.145375 
L 341.365426 57.393133 
L 342.811549 56.383974 
L 343.53461 56.281246 
L 344.257672 55.695088 
L 344.980733 56.196646 
L 345.703794 55.942845 
L 346.426856 54.861173 
L 347.149917 55.423159 
L 348.59604 54.77053 
L 349.319101 54.89743 
L 350.042162 54.045386 
L 350.765224 54.021215 
L 351.488285 55.090802 
L 352.211346 54.281058 
L 352.934408 54.504644 
L 353.657469 54.534858 
L 355.103592 54.105815 
L 355.826653 54.275015 
L 357.272776 54.963901 
L 357.995837 54.462344 
L 358.718899 54.123943 
L 360.888083 55.121016 
L 361.611144 53.839929 
L 362.334205 53.713029 
L 363.057267 53.888272 
L 363.780328 54.589244 
L 364.503389 54.299186 
L 365.226451 54.837001 
L 365.949512 54.420044 
L 367.395635 53.870143 
L 368.118696 54.60133 
L 368.841757 54.861173 
L 370.28788 53.568 
L 371.010941 54.347529 
L 371.734003 53.954743 
L 372.457064 54.142072 
L 373.180126 54.661758 
L 373.903187 53.9487 
L 374.626248 54.716144 
L 375.34931 54.426087 
L 376.072371 53.743243 
L 377.518494 54.528815 
L 378.241555 54.444215 
L 378.964616 54.77053 
L 379.687678 54.123943 
L 380.410739 54.148115 
L 381.1338 53.972872 
L 382.579923 54.099772 
L 383.302984 54.323358 
L 384.026046 53.894315 
L 384.749107 54.438172 
L 385.472168 53.966829 
L 386.19523 54.504644 
L 386.918291 53.815757 
L 387.641353 54.371701 
L 388.364414 54.003086 
L 389.087475 54.142072 
L 389.810537 53.900357 
L 390.533598 54.933687 
L 391.256659 54.154158 
L 392.702782 54.698015 
L 393.425843 54.782616 
L 394.871966 53.894315 
L 395.595027 53.845972 
L 396.318089 54.462344 
L 397.04115 54.383787 
L 397.764211 53.966829 
L 398.487273 54.365658 
L 398.487273 54.365658 
" clip-path="url(#p091938b166)" style="fill: none; stroke: #1f77b4; stroke-width: 1.5; stroke-linecap: square"/>
   </g>
   <g id="line2d_21">
    <path d="M 73.832727 281.740485 
L 74.555789 254.487171 
L 75.27885 238.413154 
L 76.724973 199.920113 
L 77.448034 186.444527 
L 78.171095 175.204801 
L 78.894157 172.304226 
L 79.617218 162.424144 
L 80.340279 162.001144 
L 81.063341 156.592781 
L 81.786402 148.283844 
L 82.509463 142.905695 
L 83.232525 143.238052 
L 84.678647 132.360898 
L 85.401709 133.086042 
L 86.12477 129.490538 
L 86.847832 127.61725 
L 87.570893 124.897962 
L 88.293954 123.508103 
L 89.017016 118.613383 
L 89.740077 118.613383 
L 91.909261 113.446735 
L 92.632322 113.869736 
L 94.078445 113.68845 
L 94.801506 112.963306 
L 95.524568 140.518764 
L 96.247629 139.431048 
L 97.693752 131.424254 
L 98.416813 132.995399 
L 99.139874 138.796548 
L 99.862936 130.306324 
L 100.585997 128.342394 
L 101.309059 127.345321 
L 102.03212 127.345321 
L 102.755181 122.813174 
L 103.478243 121.755672 
L 104.201304 118.794669 
L 104.924365 119.973028 
L 105.647427 117.223525 
L 106.370488 113.68845 
L 107.093549 113.960378 
L 107.816611 110.727446 
L 108.539672 114.051021 
L 109.262733 110.304446 
L 109.985795 112.056876 
L 110.708856 110.395089 
L 111.431917 109.367802 
L 112.154979 108.763516 
L 112.87804 107.766443 
L 113.601101 103.083224 
L 114.324163 105.802513 
L 115.047224 105.409727 
L 115.770285 100.847365 
L 116.493347 100.81715 
L 117.216408 102.025723 
L 117.93947 102.448723 
L 118.662531 100.635864 
L 119.385592 97.705075 
L 120.108654 95.469216 
L 120.831715 95.862002 
L 121.554776 95.167073 
L 123.000899 92.961428 
L 123.72396 93.475071 
L 124.447022 91.662212 
L 125.893144 91.752855 
L 126.616206 91.118354 
L 127.339267 88.731423 
L 128.062328 89.426352 
L 128.78539 88.21778 
L 129.508451 87.52285 
L 130.231512 87.824994 
L 130.954574 87.250922 
L 131.677635 86.495564 
L 132.400696 86.435135 
L 133.123758 85.77042 
L 133.846819 85.709991 
L 134.569881 86.253849 
L 135.292942 85.921492 
L 136.016003 85.347419 
L 136.739065 85.438062 
L 137.462126 84.773347 
L 138.185187 85.347419 
L 138.908249 108.37073 
L 139.63131 108.038372 
L 140.354371 111.361947 
L 141.077433 110.092946 
L 141.800494 107.2528 
L 142.523555 108.763516 
L 143.246617 106.165084 
L 143.969678 106.014013 
L 144.692739 107.554943 
L 145.415801 108.612444 
L 146.138862 103.566653 
L 146.861923 101.93508 
L 147.584985 103.385367 
L 148.308046 107.2528 
L 149.031108 104.291797 
L 149.754169 102.297652 
L 150.47723 102.599795 
L 151.200292 100.938007 
L 151.923353 103.778153 
L 152.646414 101.451651 
L 153.369476 101.240151 
L 154.092537 101.240151 
L 154.815598 102.086152 
L 155.53866 99.397077 
L 156.261721 100.81715 
L 156.984782 98.309362 
L 157.707844 100.061792 
L 158.430905 98.15829 
L 159.153966 100.968222 
L 159.877028 97.977004 
L 160.600089 97.372718 
L 161.32315 97.584218 
L 162.046212 97.463361 
L 162.769273 97.825933 
L 163.492334 93.988714 
L 164.215396 93.082285 
L 164.938457 97.765504 
L 165.661519 97.463361 
L 166.38458 91.873712 
L 167.107641 95.378573 
L 167.830703 95.046216 
L 168.553764 91.783069 
L 169.276825 96.738217 
L 169.999887 90.87664 
L 170.722948 96.436074 
L 171.446009 93.082285 
L 172.169071 91.08814 
L 172.892132 91.118354 
L 173.615193 91.269426 
L 174.338255 93.052071 
L 175.061316 91.541355 
L 175.784377 89.456567 
L 176.507439 91.752855 
L 177.2305 89.698281 
L 177.953561 91.994569 
L 178.676623 90.604711 
L 179.399684 89.456567 
L 180.122745 88.882495 
L 180.845807 85.377634 
L 181.568868 86.918564 
L 182.29193 87.673922 
L 183.014991 86.616421 
L 183.738052 85.77042 
L 184.461114 86.19342 
L 185.184175 84.501419 
L 185.907236 85.256777 
L 186.630298 83.655418 
L 187.353359 86.19342 
L 188.07642 84.320133 
L 188.799482 84.410776 
L 189.522543 83.957561 
L 190.245604 85.528705 
L 190.968666 82.386416 
L 191.691727 81.872773 
L 192.414788 82.597917 
L 193.13785 82.084273 
L 193.860911 82.265559 
L 194.583972 81.238272 
L 195.307034 79.757771 
L 196.030095 81.238272 
L 196.753157 83.957561 
L 197.476218 79.364985 
L 198.922341 78.337698 
L 199.645402 78.126198 
L 200.368463 78.91177 
L 201.091525 78.065769 
L 202.537647 79.032627 
L 203.260709 77.672983 
L 203.98377 77.914697 
L 204.706831 78.941984 
L 205.429893 78.065769 
L 206.876015 77.280197 
L 207.599077 76.101838 
L 208.322138 75.709052 
L 209.045199 75.557981 
L 209.768261 76.283124 
L 210.491322 75.739266 
L 211.214383 75.527766 
L 211.937445 74.832837 
L 212.660506 75.195409 
L 213.383568 75.074551 
L 214.106629 74.802623 
L 214.82969 74.168122 
L 215.552752 74.319193 
L 216.275813 74.651551 
L 217.721936 74.168122 
L 218.444997 74.802623 
L 219.168058 74.258765 
L 219.89112 74.742194 
L 220.614181 74.107693 
L 222.060304 74.01705 
L 222.783365 73.956622 
L 223.506426 74.228551 
L 224.952549 74.258765 
L 225.67561 99.517935 
L 226.398672 111.271304 
L 227.121733 99.69922 
L 227.844794 102.176795 
L 228.567856 98.128076 
L 229.290917 105.439941 
L 230.013979 97.010146 
L 230.73704 102.962367 
L 231.460101 97.795718 
L 232.183163 100.001364 
L 232.906224 101.814223 
L 233.629285 101.421437 
L 234.352347 100.273293 
L 235.075408 96.40586 
L 235.798469 97.614433 
L 236.521531 97.493575 
L 237.244592 102.539366 
L 237.967653 97.584218 
L 238.690715 99.820078 
L 239.413776 105.137798 
L 240.136837 99.517935 
L 240.859899 94.985787 
L 241.58296 98.128076 
L 242.306021 96.738217 
L 243.029083 102.962367 
L 243.752144 97.94679 
L 244.475206 94.290858 
L 245.198267 97.916576 
L 245.921328 99.820078 
L 246.64439 96.919503 
L 247.367451 97.614433 
L 248.090512 94.351286 
L 248.813574 98.097862 
L 249.536635 95.07643 
L 250.259696 94.351286 
L 250.982758 100.363935 
L 251.705819 93.686571 
L 252.42888 93.203142 
L 253.151942 92.054998 
L 253.875003 94.593001 
L 254.598064 98.339576 
L 255.321126 95.952645 
L 256.044187 91.08814 
L 256.767248 96.436074 
L 257.49031 94.834715 
L 258.213371 96.375646 
L 258.936432 92.41757 
L 259.659494 92.62907 
L 260.382555 94.593001 
L 261.828678 94.895144 
L 262.551739 97.070575 
L 263.274801 97.886361 
L 263.997862 92.961428 
L 264.720923 91.390283 
L 265.443985 91.329854 
L 266.167046 91.934141 
L 266.890107 95.167073 
L 267.613169 93.082285 
L 268.33623 96.254788 
L 269.059291 90.634925 
L 269.782353 90.483854 
L 270.505414 92.810356 
L 271.228475 92.749927 
L 271.951537 93.928286 
L 272.674598 92.175855 
L 273.397659 89.305495 
L 274.843782 93.414642 
L 275.566843 91.813284 
L 276.289905 94.441929 
L 277.012966 92.991642 
L 277.736028 89.909781 
L 278.459089 92.085212 
L 279.18215 89.728496 
L 280.628273 90.18171 
L 281.351334 89.668067 
L 282.074396 87.09985 
L 282.797457 89.396138 
L 283.520518 87.824994 
L 284.24358 88.519923 
L 284.966641 93.052071 
L 285.689702 88.127137 
L 286.412764 91.722641 
L 287.135825 89.003352 
L 287.858886 90.393211 
L 288.581948 90.937068 
L 289.305009 91.08814 
L 290.02807 87.250922 
L 290.751132 89.214852 
L 291.474193 89.486781 
L 292.197255 88.096922 
L 292.920316 89.426352 
L 293.643377 86.163206 
L 294.366439 86.374706 
L 295.0895 89.154424 
L 295.812561 89.245066 
L 296.535623 86.344492 
L 297.258684 86.163206 
L 297.981745 87.039421 
L 298.704807 88.127137 
L 299.427868 87.190493 
L 300.150929 90.18171 
L 300.873991 85.317205 
L 301.597052 87.341564 
L 302.320113 86.948778 
L 303.043175 88.701209 
L 303.766236 86.435135 
L 304.489297 85.135919 
L 305.212359 85.377634 
L 305.93542 84.078418 
L 306.658481 90.151496 
L 307.381543 85.015062 
L 308.104604 86.767492 
L 308.827666 85.468277 
L 309.550727 82.386416 
L 310.273788 82.386416 
L 310.99685 85.55892 
L 311.719911 82.748988 
L 312.442972 83.866918 
L 313.166034 82.567702 
L 313.889095 84.924419 
L 314.612156 81.751916 
L 315.335218 80.694415 
L 316.058279 81.510201 
L 316.78134 80.150557 
L 317.504402 81.026772 
L 318.227463 82.658345 
L 318.950524 81.721701 
L 319.673586 81.600844 
L 320.396647 81.298701 
L 321.119708 81.691487 
L 322.565831 81.208058 
L 323.288892 81.268487 
L 324.011954 81.661273 
L 324.735015 80.180771 
L 325.458077 82.658345 
L 326.181138 82.023845 
L 326.904199 82.054059 
L 327.627261 79.54627 
L 328.350322 79.908842 
L 329.073383 77.340625 
L 329.796445 78.337698 
L 330.519506 78.760698 
L 331.242567 77.129125 
L 331.965629 80.210985 
L 332.68869 78.881555 
L 333.411751 78.126198 
L 334.134813 79.12327 
L 334.857874 77.189554 
L 335.580935 77.521911 
L 336.303997 77.189554 
L 337.027058 77.219768 
L 337.750119 76.917625 
L 338.473181 77.58234 
L 339.196242 76.947839 
L 339.919304 76.132053 
L 341.365426 77.975126 
L 342.088488 75.376695 
L 342.811549 75.588195 
L 343.53461 76.313338 
L 344.257672 74.802623 
L 344.980733 76.343553 
L 345.703794 74.802623 
L 346.426856 75.437123 
L 347.149917 74.681765 
L 347.872978 74.772408 
L 348.59604 75.678838 
L 349.319101 75.709052 
L 350.042162 74.319193 
L 350.765224 74.470265 
L 351.488285 75.829909 
L 352.211346 75.467338 
L 353.657469 75.074551 
L 354.38053 74.530694 
L 355.103592 75.406909 
L 355.826653 75.648623 
L 356.549715 77.310411 
L 357.272776 75.225623 
L 357.995837 74.530694 
L 358.718899 74.470265 
L 359.44196 75.165194 
L 360.165021 74.319193 
L 360.888083 73.865979 
L 362.334205 75.497552 
L 363.057267 73.714907 
L 363.780328 76.162267 
L 364.503389 74.863051 
L 365.226451 75.557981 
L 365.949512 75.34648 
L 366.672573 76.162267 
L 367.395635 75.527766 
L 368.118696 76.494624 
L 368.841757 74.198336 
L 369.564819 75.467338 
L 370.28788 75.557981 
L 371.010941 74.832837 
L 371.734003 75.769481 
L 372.457064 75.678838 
L 373.180126 76.04141 
L 373.903187 74.772408 
L 374.626248 75.769481 
L 375.34931 74.953694 
L 376.072371 75.376695 
L 376.795432 76.887411 
L 377.518494 74.953694 
L 378.241555 76.313338 
L 378.964616 74.409836 
L 379.687678 74.500479 
L 380.410739 77.642768 
L 381.1338 75.104766 
L 381.856862 74.893266 
L 382.579923 78.035555 
L 384.026046 74.198336 
L 384.749107 76.978053 
L 385.472168 76.766553 
L 386.19523 74.349408 
L 386.918291 76.585267 
L 387.641353 75.104766 
L 388.364414 74.047265 
L 389.087475 76.222696 
L 389.810537 76.011195 
L 390.533598 76.826982 
L 391.256659 77.159339 
L 391.979721 74.621337 
L 392.702782 75.648623 
L 393.425843 74.681765 
L 394.871966 75.074551 
L 395.595027 76.585267 
L 396.318089 76.947839 
L 397.04115 75.13498 
L 397.764211 75.557981 
L 398.487273 75.165194 
L 398.487273 75.165194 
" clip-path="url(#p091938b166)" style="fill: none; stroke: #ff7f0e; stroke-width: 1.5; stroke-linecap: square"/>
   </g>
   <g id="line2d_22">
    <path d="M 73.832727 280.229769 
L 75.27885 240.940738 
L 76.001911 225.479342 
L 76.724973 204.808581 
L 77.448034 205.954641 
L 78.171095 195.973498 
L 79.617218 190.430733 
L 80.340279 184.752525 
L 81.063341 188.357406 
L 81.786402 186.648734 
L 82.509463 177.08434 
L 83.232525 176.104979 
L 84.678647 167.769995 
L 85.401709 168.457631 
L 86.12477 166.123835 
L 86.847832 167.030265 
L 87.570893 162.643979 
L 88.293954 162.289743 
L 89.017016 159.372498 
L 89.740077 163.102404 
L 90.463138 159.76841 
L 91.1862 159.403754 
L 91.909261 157.215821 
L 92.632322 157.351265 
L 93.355384 156.799072 
L 94.078445 155.74678 
L 94.801506 156.121854 
L 96.247629 180.512102 
L 96.97069 177.584439 
L 97.693752 175.68823 
L 98.416813 168.718099 
L 99.139874 175.406924 
L 99.862936 175.198549 
L 100.585997 170.135047 
L 101.309059 168.863961 
L 102.755181 172.541773 
L 103.478243 167.134452 
L 104.201304 169.801647 
L 104.924365 161.393732 
L 105.647427 162.164718 
L 106.370488 164.008833 
L 107.093549 162.018856 
L 107.816611 153.454659 
L 108.539672 166.488491 
L 109.262733 155.038306 
L 109.985795 155.632174 
L 110.708856 156.715722 
L 111.431917 156.226042 
L 112.154979 154.975794 
L 112.87804 156.851165 
L 113.601101 156.736559 
L 114.324163 152.996235 
L 115.047224 156.56986 
L 115.770285 151.620963 
L 116.493347 147.495146 
L 117.216408 152.892048 
L 117.93947 151.110445 
L 118.662531 156.861584 
L 119.385592 148.474506 
L 120.108654 150.870814 
L 120.831715 149.943547 
L 121.554776 147.224259 
L 122.277838 149.766429 
L 123.000899 144.890463 
L 123.72396 144.692507 
L 124.447022 144.234083 
L 125.170083 144.202827 
L 125.893144 141.077208 
L 126.616206 144.150733 
L 127.339267 140.56669 
L 128.062328 141.254326 
L 128.78539 141.150139 
L 130.231512 140.16036 
L 130.954574 140.410409 
L 131.677635 139.879054 
L 133.123758 138.274569 
L 133.846819 140.056172 
L 135.292942 137.847401 
L 136.016003 139.233093 
L 136.739065 138.837181 
L 137.462126 137.076415 
L 138.185187 138.149545 
L 138.908249 157.88262 
L 139.63131 153.03791 
L 140.354371 168.061719 
L 141.077433 156.257298 
L 141.800494 157.820107 
L 142.523555 157.174146 
L 143.969678 159.039099 
L 144.692739 157.330427 
L 145.415801 163.602503 
L 146.138862 152.850373 
L 146.861923 152.725348 
L 147.584985 155.059144 
L 148.308046 151.850175 
L 149.031108 151.652219 
L 149.754169 154.506951 
L 150.47723 152.006456 
L 151.200292 144.077802 
L 151.923353 156.632372 
L 152.646414 154.142296 
L 153.369476 155.277937 
L 154.092537 149.328842 
L 154.815598 151.297982 
L 155.53866 143.869428 
L 156.261721 149.151724 
L 156.984782 142.233687 
L 157.707844 154.038108 
L 158.430905 150.933327 
L 159.153966 158.809887 
L 159.877028 149.276749 
L 160.600089 146.317829 
L 161.32315 146.776253 
L 162.046212 146.755416 
L 162.769273 150.151922 
L 164.215396 142.733786 
L 164.938457 144.525808 
L 165.661519 150.276947 
L 166.38458 141.702332 
L 167.107641 150.818721 
L 167.830703 150.797883 
L 168.553764 142.171174 
L 169.276825 147.193002 
L 169.999887 146.776253 
L 170.722948 145.390562 
L 171.446009 144.911301 
L 172.169071 145.609355 
L 172.892132 142.379549 
L 173.615193 143.004673 
L 174.338255 145.974011 
L 175.061316 143.806915 
L 175.784377 138.482944 
L 176.507439 143.400585 
L 177.953561 146.797091 
L 178.676623 140.285384 
L 179.399684 142.035731 
L 180.122745 140.170778 
L 180.845807 134.00289 
L 181.568868 138.378757 
L 182.29193 140.431247 
L 183.014991 136.71176 
L 183.738052 139.326861 
L 184.461114 135.80533 
L 185.184175 137.555677 
L 185.907236 136.13873 
L 186.630298 132.158775 
L 187.353359 138.222476 
L 188.07642 137.28479 
L 188.799482 138.816343 
L 189.522543 137.909914 
L 190.245604 138.920531 
L 190.968666 132.565105 
L 191.691727 138.034939 
L 192.414788 134.57592 
L 193.13785 130.210472 
L 193.860911 131.929563 
L 194.583972 136.857622 
L 195.307034 129.57493 
L 196.030095 137.222278 
L 196.753157 135.31565 
L 197.476218 131.898306 
L 198.199279 131.689932 
L 198.922341 132.304637 
L 199.645402 128.439288 
L 200.368463 131.710769 
L 201.091525 132.377568 
L 201.814586 134.732201 
L 202.537647 138.774668 
L 203.260709 133.502791 
L 203.98377 135.201044 
L 204.706831 135.430256 
L 205.429893 133.242323 
L 206.152954 133.106879 
L 206.876015 131.554488 
L 207.599077 130.418847 
L 208.322138 132.262962 
L 209.045199 130.06461 
L 209.768261 130.252147 
L 210.491322 131.450301 
L 211.214383 131.419045 
L 211.937445 129.783304 
L 212.660506 130.200053 
L 213.383568 130.866852 
L 214.106629 128.741431 
L 214.82969 127.772489 
L 215.552752 127.626627 
L 216.275813 129.210274 
L 216.998874 129.585348 
L 217.721936 128.970643 
L 218.444997 129.824979 
L 219.89112 129.15818 
L 220.614181 128.814362 
L 222.060304 129.397811 
L 222.783365 129.929166 
L 223.506426 130.272984 
L 224.229488 129.15818 
L 224.952549 129.658279 
L 225.67561 154.204808 
L 226.398672 161.518757 
L 227.121733 148.297388 
L 227.844794 156.23646 
L 228.567856 154.131877 
L 229.290917 157.184565 
L 230.013979 151.589707 
L 230.73704 152.141899 
L 231.460101 151.683475 
L 232.183163 152.569067 
L 232.906224 159.205798 
L 234.352347 148.411994 
L 235.075408 150.766627 
L 235.798469 153.69429 
L 236.521531 148.839162 
L 237.244592 157.851364 
L 237.967653 151.943943 
L 238.690715 153.642197 
L 239.413776 148.297388 
L 240.136837 154.006852 
L 240.859899 147.140909 
L 241.58296 145.536424 
L 242.306021 147.109653 
L 243.029083 155.58008 
L 243.752144 152.881629 
L 244.475206 152.454461 
L 245.921328 145.400981 
L 246.64439 149.526798 
L 247.367451 155.91348 
L 248.090512 148.370319 
L 249.536635 151.902269 
L 250.259696 144.952975 
L 250.982758 152.319018 
L 251.705819 150.922908 
L 252.42888 144.838369 
L 253.151942 141.493957 
L 253.875003 146.630391 
L 254.598064 148.6933 
L 255.321126 147.203421 
L 256.044187 148.3599 
L 256.767248 141.504376 
L 257.49031 148.724556 
L 258.213371 152.777442 
L 258.936432 140.743808 
L 259.659494 145.932336 
L 260.382555 143.567284 
L 261.105617 144.327852 
L 261.828678 148.474506 
L 262.551739 150.516577 
L 263.274801 149.09963 
L 263.997862 149.245492 
L 264.720923 140.014497 
L 265.443985 139.701935 
L 266.167046 143.223466 
L 266.890107 152.777442 
L 267.613169 138.003682 
L 268.33623 151.370913 
L 269.059291 144.140314 
L 269.782353 146.119873 
L 270.505414 141.30642 
L 271.228475 149.287167 
L 271.951537 150.912489 
L 272.674598 141.952381 
L 273.397659 144.598739 
L 274.120721 146.30741 
L 274.843782 145.661449 
L 275.566843 139.712354 
L 276.289905 146.703322 
L 277.012966 145.557262 
L 277.736028 145.598937 
L 278.459089 148.578694 
L 279.905212 142.139918 
L 280.628273 139.712354 
L 281.351334 146.515785 
L 282.074396 139.681098 
L 282.797457 144.952975 
L 283.520518 140.181197 
L 284.24358 140.775065 
L 284.966641 154.611138 
L 285.689702 139.754029 
L 286.412764 140.212453 
L 287.135825 146.442854 
L 287.858886 141.254326 
L 288.581948 144.75502 
L 289.305009 140.941764 
L 290.02807 136.253336 
L 290.751132 142.765042 
L 291.474193 140.827158 
L 292.197255 133.158973 
L 292.920316 141.431445 
L 293.643377 143.338072 
L 294.366439 143.296397 
L 295.0895 141.316839 
L 295.812561 142.473318 
L 296.535623 135.680306 
L 297.258684 137.430652 
L 297.981745 142.890067 
L 298.704807 140.712552 
L 299.427868 141.577307 
L 300.150929 148.880837 
L 300.873991 137.878658 
L 301.597052 142.035731 
L 302.320113 138.785087 
L 303.043175 142.514993 
L 303.766236 141.566888 
L 304.489297 139.08723 
L 305.212359 138.389175 
L 305.93542 137.097253 
L 306.658481 145.182188 
L 307.381543 134.857226 
L 308.104604 139.42063 
L 308.827666 137.816145 
L 309.550727 140.702134 
L 310.273788 136.013705 
L 310.99685 137.847401 
L 311.719911 140.170778 
L 312.442972 133.273579 
L 313.166034 131.742025 
L 313.889095 135.346906 
L 314.612156 131.512813 
L 315.335218 138.493363 
L 316.058279 134.148752 
L 316.78134 135.867843 
L 317.504402 132.575524 
L 318.227463 134.57592 
L 318.950524 128.949806 
L 319.673586 134.013309 
L 320.396647 130.679315 
L 321.119708 132.210868 
L 321.84277 134.346708 
L 322.565831 134.992669 
L 323.288892 136.440873 
L 324.011954 134.284196 
L 324.735015 135.930355 
L 325.458077 139.764448 
L 326.181138 139.149743 
L 326.904199 133.721584 
L 327.627261 131.523232 
L 328.350322 134.534245 
L 329.073383 127.147365 
L 329.796445 129.356136 
L 330.519506 135.607374 
L 331.242567 129.543673 
L 331.965629 137.305627 
L 332.68869 131.908725 
L 333.411751 130.627221 
L 334.134813 130.648059 
L 334.857874 130.022935 
L 335.580935 129.991679 
L 336.303997 128.908131 
L 337.027058 129.616604 
L 337.750119 125.46995 
L 338.473181 130.022935 
L 339.196242 121.385808 
L 339.919304 127.501602 
L 340.642365 129.762467 
L 341.365426 134.815551 
L 342.088488 127.209878 
L 342.811549 130.679315 
L 343.53461 130.387591 
L 344.257672 129.960423 
L 344.980733 124.709383 
L 345.703794 130.856433 
L 346.426856 128.731012 
L 347.149917 127.84542 
L 347.872978 123.427879 
L 348.59604 123.792534 
L 349.319101 127.407834 
L 350.042162 126.418054 
L 350.765224 124.751057 
L 351.488285 129.720792 
L 352.211346 125.740837 
L 352.934408 127.366159 
L 353.657469 128.355938 
L 354.38053 129.845817 
L 355.826653 125.230319 
L 356.549715 129.335299 
L 357.272776 129.522836 
L 357.995837 127.574533 
L 358.718899 127.261971 
L 359.44196 131.179414 
L 360.888083 126.345123 
L 361.611144 123.240342 
L 362.334205 124.532264 
L 363.057267 124.396821 
L 364.503389 126.095074 
L 365.226451 127.730814 
L 365.949512 126.261773 
L 366.672573 128.512219 
L 367.395635 129.095668 
L 368.118696 132.617199 
L 368.841757 123.677928 
L 369.564819 128.658081 
L 370.28788 125.438694 
L 371.010941 127.199459 
L 371.734003 125.251156 
L 372.457064 128.741431 
L 373.180126 128.981062 
L 373.903187 123.313273 
L 374.626248 122.198469 
L 375.34931 125.334506 
L 376.072371 123.875884 
L 376.795432 129.053993 
L 377.518494 125.480369 
L 378.241555 128.168401 
L 378.964616 123.469554 
L 379.687678 127.626627 
L 380.410739 129.81456 
L 381.1338 124.584358 
L 381.856862 128.210076 
L 382.579923 126.53266 
L 383.302984 132.950598 
L 384.026046 127.491184 
L 384.749107 132.940179 
L 385.472168 128.949806 
L 386.19523 129.106087 
L 386.918291 134.565501 
L 388.364414 126.511823 
L 389.087475 128.939387 
L 390.533598 123.761278 
L 391.256659 127.241134 
L 391.979721 126.980666 
L 392.702782 125.605393 
L 393.425843 123.896722 
L 394.148905 125.13655 
L 394.871966 128.845618 
L 395.595027 128.741431 
L 396.318089 132.721386 
L 397.04115 124.990688 
L 397.764211 132.648455 
L 398.487273 127.574533 
L 398.487273 127.574533 
" clip-path="url(#p091938b166)" style="fill: none; stroke: #2ca02c; stroke-width: 1.5; stroke-linecap: square"/>
   </g>
   <g id="line2d_23">
    <path d="M 73.832727 295.488 
L 74.555789 291.016281 
L 76.001911 273.491977 
L 76.724973 273.461762 
L 77.448034 260.530034 
L 78.171095 257.055388 
L 79.617218 241.827372 
L 80.340279 241.041799 
L 81.063341 241.495014 
L 81.786402 242.582729 
L 82.509463 231.04086 
L 83.232525 228.110071 
L 83.955586 226.448284 
L 84.678647 221.070135 
L 85.401709 218.834276 
L 86.12477 219.589634 
L 86.847832 212.338197 
L 87.570893 210.041909 
L 88.293954 210.978553 
L 89.017016 206.023405 
L 89.740077 204.633546 
L 90.463138 204.663761 
L 91.1862 200.343113 
L 91.909261 197.774896 
L 92.632322 200.675471 
L 93.355384 200.494185 
L 94.078445 199.82947 
L 94.801506 199.859684 
L 95.524568 223.215352 
L 96.247629 221.432707 
L 96.97069 216.20563 
L 97.693752 215.027272 
L 98.416813 215.812844 
L 99.139874 226.689998 
L 100.585997 205.419119 
L 102.03212 209.588694 
L 102.755181 209.044837 
L 103.478243 203.485402 
L 104.201304 200.433756 
L 104.924365 207.080906 
L 105.647427 198.71154 
L 106.370488 192.396748 
L 107.093549 199.61797 
L 107.816611 192.880177 
L 108.539672 198.046825 
L 109.262733 195.62968 
L 109.985795 196.445466 
L 110.708856 195.176465 
L 111.431917 190.281745 
L 112.154979 190.825603 
L 112.87804 198.50004 
L 113.601101 194.572178 
L 114.324163 191.732033 
L 115.047224 190.704746 
L 115.770285 186.565384 
L 116.493347 184.148239 
L 117.216408 195.720323 
L 117.93947 185.689169 
L 118.662531 182.637523 
L 119.385592 182.697952 
L 120.108654 180.885092 
L 120.831715 185.538097 
L 121.554776 180.462092 
L 122.277838 181.187236 
L 123.000899 180.945521 
L 123.72396 177.168731 
L 124.447022 175.204801 
L 125.170083 176.11123 
L 126.616206 174.812015 
L 127.339267 172.153155 
L 128.062328 172.485512 
L 128.78539 169.403652 
L 129.508451 171.669726 
L 130.231512 171.851011 
L 130.954574 171.307154 
L 131.677635 173.271084 
L 132.400696 174.509871 
L 133.123758 171.609297 
L 133.846819 170.461153 
L 134.569881 170.400724 
L 135.292942 172.213583 
L 136.016003 169.887081 
L 136.739065 171.125868 
L 137.462126 171.971869 
L 138.185187 170.914368 
L 138.908249 195.659894 
L 139.63131 189.979602 
L 140.354371 196.082894 
L 141.077433 195.599465 
L 141.800494 194.481535 
L 142.523555 194.572178 
L 143.246617 197.563396 
L 143.969678 197.533182 
L 144.692739 188.891887 
L 145.415801 197.351896 
L 146.138862 197.200824 
L 146.861923 193.575106 
L 147.584985 190.886032 
L 148.308046 194.058535 
L 149.031108 186.32367 
L 149.754169 189.858745 
L 150.47723 183.906524 
L 151.200292 181.157021 
L 151.923353 190.644317 
L 152.646414 196.989324 
L 153.369476 191.943533 
L 154.092537 189.61703 
L 154.815598 192.759319 
L 155.53866 186.716456 
L 156.261721 185.749598 
L 156.984782 191.248603 
L 157.707844 187.109242 
L 158.430905 190.191102 
L 159.153966 188.559529 
L 159.877028 190.614103 
L 160.600089 190.040031 
L 161.32315 184.08781 
L 162.046212 189.40553 
L 163.492334 184.178453 
L 164.215396 185.326597 
L 164.938457 192.094604 
L 166.38458 180.431878 
L 167.107641 194.30025 
L 167.830703 183.151166 
L 168.553764 188.891887 
L 169.276825 187.502028 
L 169.999887 182.33538 
L 170.722948 187.290528 
L 171.446009 184.99424 
L 172.169071 176.745731 
L 172.892132 182.063451 
L 173.615193 185.779812 
L 174.338255 181.972808 
L 175.061316 183.090738 
L 175.784377 178.921162 
L 176.507439 187.773957 
L 177.2305 187.502028 
L 177.953561 184.08781 
L 178.676623 183.483524 
L 179.399684 180.613164 
L 180.122745 182.395808 
L 180.845807 172.848084 
L 181.568868 173.391942 
L 182.29193 180.79445 
L 183.014991 175.778873 
L 183.738052 175.416301 
L 184.461114 180.824664 
L 185.184175 172.243798 
L 185.907236 177.22916 
L 186.630298 173.059584 
L 187.353359 178.226233 
L 188.07642 170.612224 
L 188.799482 172.364655 
L 189.522543 169.494295 
L 190.245604 173.512799 
L 190.968666 171.669726 
L 191.691727 175.083943 
L 192.414788 175.960159 
L 193.13785 171.216511 
L 193.860911 172.304226 
L 194.583972 169.25258 
L 195.307034 174.328586 
L 196.030095 175.778873 
L 196.753157 174.479657 
L 197.476218 167.832507 
L 198.199279 171.69994 
L 198.922341 167.892936 
L 199.645402 167.077149 
L 200.368463 168.557651 
L 201.091525 168.738937 
L 201.814586 170.098581 
L 202.537647 175.144372 
L 203.260709 172.153155 
L 203.98377 168.285722 
L 204.706831 170.098581 
L 205.429893 169.615152 
L 206.152954 167.92315 
L 206.876015 167.469935 
L 207.599077 168.044007 
L 208.322138 168.255508 
L 209.768261 164.931933 
L 210.491322 169.675581 
L 211.214383 163.51186 
L 211.937445 166.049862 
L 212.660506 167.621007 
L 213.383568 167.50015 
L 214.106629 167.741864 
L 214.82969 166.563506 
L 215.552752 168.618079 
L 216.275813 165.143433 
L 217.721936 167.71165 
L 218.444997 167.892936 
L 219.168058 170.219438 
L 219.89112 169.222366 
L 220.614181 167.288649 
L 221.337242 168.074222 
L 222.060304 165.385147 
L 222.783365 166.654149 
L 223.506426 164.055717 
L 224.229488 166.623934 
L 224.952549 167.046935 
L 225.67561 196.294395 
L 226.398672 208.561408 
L 227.121733 192.880177 
L 227.844794 204.059474 
L 228.567856 187.6531 
L 229.290917 195.569251 
L 230.013979 185.175526 
L 230.73704 193.031248 
L 231.460101 191.037103 
L 232.183163 190.372388 
L 232.906224 195.418179 
L 233.629285 186.656027 
L 234.352347 188.952315 
L 235.075408 189.375316 
L 235.798469 199.920113 
L 236.521531 185.507883 
L 237.244592 192.819748 
L 237.967653 189.345101 
L 238.690715 189.707673 
L 239.413776 194.330464 
L 240.136837 193.967892 
L 240.859899 186.081955 
L 241.58296 189.224244 
L 242.306021 182.697952 
L 243.029083 203.243688 
L 243.752144 194.602393 
L 244.475206 182.879237 
L 245.198267 198.016611 
L 245.921328 194.904536 
L 246.64439 184.631668 
L 247.367451 184.08781 
L 248.090512 187.955243 
L 248.813574 194.239821 
L 249.536635 196.113109 
L 250.259696 191.732033 
L 250.982758 191.762247 
L 251.705819 190.855817 
L 252.42888 180.462092 
L 253.151942 181.126807 
L 253.875003 188.680386 
L 254.598064 187.350956 
L 255.321126 180.039092 
L 256.044187 182.637523 
L 256.767248 188.408458 
L 257.49031 188.801244 
L 258.213371 197.925968 
L 258.936432 185.296383 
L 259.659494 185.296383 
L 260.382555 183.120952 
L 261.105617 183.755453 
L 261.828678 181.942594 
L 262.551739 184.118024 
L 263.274801 188.136529 
L 263.997862 183.151166 
L 264.720923 182.728166 
L 265.443985 184.903597 
L 266.167046 181.21745 
L 266.890107 194.753464 
L 267.613169 185.538097 
L 268.33623 192.910391 
L 269.059291 173.301299 
L 269.782353 184.692097 
L 270.505414 183.543952 
L 271.228475 186.414313 
L 271.951537 187.320742 
L 272.674598 187.320742 
L 273.397659 184.782739 
L 274.120721 174.509871 
L 274.843782 186.474741 
L 275.566843 188.499101 
L 276.289905 195.720323 
L 277.012966 176.896803 
L 277.736028 194.632607 
L 278.459089 181.519593 
L 279.18215 183.695024 
L 279.905212 181.670665 
L 280.628273 177.531303 
L 281.351334 183.87631 
L 282.074396 176.201873 
L 282.797457 176.80616 
L 283.520518 179.46502 
L 284.24358 171.941654 
L 284.966641 188.891887 
L 285.689702 182.33538 
L 287.135825 190.251531 
L 287.858886 186.353884 
L 288.581948 169.192151 
L 289.305009 190.342174 
L 290.02807 178.377304 
L 290.751132 179.585877 
L 291.474193 186.081955 
L 292.197255 170.310081 
L 292.920316 179.67652 
L 293.643377 173.784728 
L 294.366439 176.80616 
L 295.812561 185.658955 
L 296.535623 179.283734 
L 297.258684 176.201873 
L 297.981745 181.761308 
L 298.704807 171.609297 
L 299.427868 173.573228 
L 300.150929 189.677459 
L 300.873991 183.211595 
L 301.597052 170.612224 
L 302.320113 186.686241 
L 303.043175 180.945521 
L 303.766236 190.191102 
L 304.489297 169.977724 
L 305.212359 177.863661 
L 305.93542 177.44066 
L 306.658481 179.253519 
L 307.381543 176.413373 
L 308.104604 178.34709 
L 308.827666 184.541025 
L 309.550727 177.501089 
L 310.273788 175.658015 
L 310.99685 175.718444 
L 311.719911 175.960159 
L 312.442972 181.096593 
L 313.166034 169.131723 
L 313.889095 171.790583 
L 314.612156 170.491367 
L 315.335218 172.666798 
L 316.058279 179.042019 
L 316.78134 180.975735 
L 317.504402 165.959219 
L 318.227463 168.82958 
L 318.950524 170.944582 
L 319.673586 171.337368 
L 320.396647 175.355872 
L 321.119708 170.310081 
L 321.84277 173.361727 
L 322.565831 173.271084 
L 323.288892 176.957231 
L 324.011954 174.117085 
L 324.735015 166.775006 
L 325.458077 176.624874 
L 326.181138 173.603442 
L 326.904199 164.357861 
L 327.627261 173.180441 
L 328.350322 168.799365 
L 329.073383 179.193091 
L 329.796445 167.349078 
L 330.519506 176.534231 
L 331.242567 172.304226 
L 331.965629 169.192151 
L 332.68869 174.237943 
L 333.411751 170.612224 
L 334.134813 167.953364 
L 334.857874 167.439721 
L 335.580935 167.318864 
L 336.303997 168.225293 
L 337.027058 167.681436 
L 337.750119 168.225293 
L 338.473181 167.681436 
L 339.196242 164.931933 
L 339.919304 174.509871 
L 340.642365 163.300359 
L 341.365426 169.766224 
L 342.088488 170.038152 
L 342.811549 169.826652 
L 343.53461 166.895863 
L 344.257672 161.729215 
L 344.980733 162.635645 
L 345.703794 173.512799 
L 346.426856 161.850072 
L 347.149917 162.333501 
L 347.872978 162.091787 
L 348.59604 168.013793 
L 349.319101 156.925138 
L 350.042162 169.917295 
L 350.765224 169.161937 
L 351.488285 171.125868 
L 352.211346 170.733082 
L 352.934408 166.019648 
L 353.657469 165.26429 
L 354.38053 175.174586 
L 355.103592 162.484573 
L 355.826653 169.524509 
L 356.549715 163.270145 
L 357.272776 168.13465 
L 357.995837 168.346151 
L 358.718899 158.556712 
L 359.44196 165.959219 
L 360.165021 167.167792 
L 360.888083 169.826652 
L 361.611144 163.662931 
L 362.334205 164.388075 
L 363.057267 170.461153 
L 363.780328 162.424144 
L 364.503389 170.430939 
L 365.226451 167.046935 
L 365.949512 166.049862 
L 366.672573 170.58201 
L 367.395635 163.119074 
L 368.118696 174.479657 
L 368.841757 161.155143 
L 369.564819 163.662931 
L 370.28788 159.463141 
L 371.010941 167.621007 
L 371.734003 171.216511 
L 372.457064 159.916356 
L 373.180126 173.391942 
L 373.903187 168.950437 
L 374.626248 162.242858 
L 375.34931 165.536219 
L 376.072371 163.360788 
L 376.795432 164.811075 
L 377.518494 162.152215 
L 378.241555 167.621007 
L 378.964616 168.013793 
L 379.687678 164.085932 
L 380.410739 172.878298 
L 381.1338 165.022576 
L 381.856862 170.310081 
L 382.579923 168.074222 
L 383.302984 167.681436 
L 384.026046 165.173647 
L 384.749107 168.950437 
L 385.472168 170.068367 
L 386.19523 162.726287 
L 386.918291 174.086871 
L 388.364414 157.891997 
L 389.087475 164.569361 
L 389.810537 162.514787 
L 390.533598 167.621007 
L 391.256659 168.678508 
L 391.979721 170.219438 
L 392.702782 165.143433 
L 393.425843 163.632717 
L 394.148905 161.094714 
L 394.871966 163.391002 
L 395.595027 158.435854 
L 396.318089 172.697012 
L 397.04115 171.69994 
L 397.764211 167.892936 
L 398.487273 166.926078 
L 398.487273 166.926078 
" clip-path="url(#p091938b166)" style="fill: none; stroke: #d62728; stroke-width: 1.5; stroke-linecap: square"/>
   </g>
   <g id="line2d_24">
    <path d="M 350.765224 74.077479 
L 351.488285 73.291907 
L 352.211346 74.863051 
L 352.934408 74.621337 
L 353.657469 74.92348 
L 354.38053 76.222696 
L 355.103592 75.467338 
L 355.826653 76.192481 
L 356.549715 77.733411 
L 357.272776 74.71198 
L 357.995837 78.549198 
L 358.718899 77.37084 
L 359.44196 74.71198 
L 360.165021 76.343553 
L 360.888083 74.92348 
L 361.611144 76.222696 
L 362.334205 74.983908 
L 363.057267 76.736339 
L 363.780328 76.283124 
L 364.503389 75.406909 
L 365.226451 77.008268 
L 365.949512 75.769481 
L 366.672573 77.854269 
L 367.395635 76.494624 
L 368.118696 75.497552 
L 368.841757 76.857196 
L 369.564819 78.70027 
L 370.28788 77.552125 
L 371.010941 79.425413 
L 371.734003 77.491697 
L 372.457064 77.37084 
L 373.180126 77.612554 
L 374.626248 81.842559 
L 375.34931 77.552125 
L 376.072371 78.458555 
L 376.795432 83.655418 
L 377.518494 78.247055 
L 378.241555 82.386416 
L 378.964616 80.301628 
L 379.687678 81.691487 
L 380.410739 82.658345 
L 381.1338 82.265559 
L 381.856862 81.389344 
L 382.579923 82.567702 
L 383.302984 87.52285 
L 384.026046 84.350347 
L 384.749107 89.063781 
L 385.472168 87.643708 
L 386.19523 81.99363 
L 386.918291 82.054059 
L 387.641353 85.256777 
L 388.364414 82.930274 
L 389.087475 85.55892 
L 389.810537 85.256777 
L 390.533598 88.942923 
L 391.256659 85.498491 
L 391.979721 86.344492 
L 392.702782 86.163206 
L 394.148905 89.54721 
L 394.871966 92.62907 
L 395.595027 98.85322 
L 396.318089 93.142713 
L 397.04115 98.188505 
L 397.764211 88.822066 
L 398.487273 91.239211 
L 398.487273 91.239211 
" clip-path="url(#p091938b166)" style="fill: none; stroke: #9467bd; stroke-width: 1.5; stroke-linecap: square"/>
   </g>
   <g id="line2d_25">
    <path d="M 350.765224 127.314065 
L 351.488285 123.855047 
L 352.211346 127.18904 
L 352.934408 123.896722 
L 353.657469 127.251553 
L 354.38053 127.209878 
L 355.103592 128.75185 
L 355.826653 128.17882 
L 356.549715 132.992273 
L 357.272776 126.324286 
L 357.995837 131.523232 
L 358.718899 128.58515 
L 359.44196 123.292435 
L 360.165021 125.615812 
L 360.888083 122.438099 
L 361.611144 125.501206 
L 362.334205 125.313669 
L 363.057267 131.314858 
L 363.780328 126.386798 
L 364.503389 127.43909 
L 365.226451 128.199657 
L 365.949512 127.282809 
L 366.672573 127.84542 
L 367.395635 126.095074 
L 368.118696 126.282611 
L 368.841757 127.814164 
L 369.564819 127.157784 
L 370.28788 127.824583 
L 371.010941 124.886501 
L 371.734003 125.928374 
L 372.457064 124.094677 
L 373.180126 127.178622 
L 373.903187 128.480963 
L 374.626248 128.876875 
L 375.34931 127.907933 
L 376.072371 123.532066 
L 376.795432 134.992669 
L 377.518494 123.615416 
L 378.241555 128.960224 
L 378.964616 127.459927 
L 379.687678 127.168203 
L 380.410739 130.846015 
L 381.1338 130.398009 
L 381.856862 128.199657 
L 383.302984 137.576514 
L 384.026046 134.232102 
L 384.749107 138.10787 
L 385.472168 137.159765 
L 386.19523 129.960423 
L 386.918291 126.522242 
L 387.641353 132.533849 
L 388.364414 129.564511 
L 389.087475 131.637838 
L 389.810537 132.252543 
L 390.533598 139.535236 
L 391.256659 137.11809 
L 391.979721 132.492174 
L 392.702782 130.314659 
L 393.425843 135.638631 
L 394.148905 138.555875 
L 394.871966 146.838766 
L 395.595027 148.370319 
L 396.318089 138.014101 
L 397.04115 144.838369 
L 397.764211 135.72198 
L 398.487273 135.294812 
L 398.487273 135.294812 
" clip-path="url(#p091938b166)" style="fill: none; stroke: #8c564b; stroke-width: 1.5; stroke-linecap: square"/>
   </g>
   <g id="line2d_26">
    <path d="M 350.765224 168.467008 
L 351.488285 168.950437 
L 352.211346 175.295444 
L 352.934408 171.095653 
L 353.657469 173.02937 
L 354.38053 182.365594 
L 355.103592 169.373437 
L 355.826653 172.515726 
L 356.549715 169.584938 
L 357.272776 159.281855 
L 357.995837 182.063451 
L 358.718899 181.882165 
L 359.44196 184.208667 
L 360.165021 187.834386 
L 360.888083 175.748658 
L 361.611144 178.921162 
L 362.334205 178.588804 
L 363.057267 178.709662 
L 363.780328 167.832507 
L 364.503389 169.584938 
L 365.226451 178.014732 
L 365.949512 178.649233 
L 366.672573 178.105375 
L 367.395635 182.33538 
L 368.118696 176.655088 
L 368.841757 186.414313 
L 369.564819 186.686241 
L 370.28788 179.646305 
L 371.010941 175.89973 
L 371.734003 170.672653 
L 372.457064 185.115097 
L 373.180126 181.398736 
L 373.903187 199.376255 
L 374.626248 195.418179 
L 375.34931 187.713528 
L 376.795432 216.20563 
L 377.518494 203.394759 
L 378.241555 209.286551 
L 378.964616 208.742694 
L 379.687678 193.303177 
L 380.410739 222.429779 
L 381.1338 207.443478 
L 381.856862 205.993191 
L 382.579923 212.459055 
L 383.302984 231.554503 
L 384.026046 227.898571 
L 384.749107 235.270865 
L 385.472168 226.236784 
L 386.19523 215.631558 
L 386.918291 207.171549 
L 387.641353 216.447345 
L 388.364414 201.732972 
L 389.087475 220.798206 
L 389.810537 215.0877 
L 390.533598 219.77092 
L 391.256659 206.89962 
L 391.979721 209.890838 
L 392.702782 225.058425 
L 393.425843 226.871284 
L 394.148905 231.886861 
L 394.871966 229.771859 
L 395.595027 241.404371 
L 396.318089 229.530144 
L 397.04115 234.666578 
L 397.764211 225.51164 
L 398.487273 231.161717 
L 398.487273 231.161717 
" clip-path="url(#p091938b166)" style="fill: none; stroke: #e377c2; stroke-width: 1.5; stroke-linecap: square"/>
   </g>
   <g id="patch_3">
    <path d="M 57.6 307.584 
L 57.6 41.472 
" style="fill: none; stroke: #000000; stroke-width: 0.8; stroke-linejoin: miter; stroke-linecap: square"/>
   </g>
   <g id="patch_4">
    <path d="M 414.72 307.584 
L 414.72 41.472 
" style="fill: none; stroke: #000000; stroke-width: 0.8; stroke-linejoin: miter; stroke-linecap: square"/>
   </g>
   <g id="patch_5">
    <path d="M 57.6 307.584 
L 414.72 307.584 
" style="fill: none; stroke: #000000; stroke-width: 0.8; stroke-linejoin: miter; stroke-linecap: square"/>
   </g>
   <g id="patch_6">
    <path d="M 57.6 41.472 
L 414.72 41.472 
" style="fill: none; stroke: #000000; stroke-width: 0.8; stroke-linejoin: miter; stroke-linecap: square"/>
   </g>
   <g id="text_22">
    <!-- Learning Curves -->
    <g transform="translate(187.37625 35.472) scale(0.12 -0.12)">
     <defs>
      <path id="DejaVuSans-4c" d="M 628 4666 
L 1259 4666 
L 1259 531 
L 3531 531 
L 3531 0 
L 628 0 
L 628 4666 
z
" transform="scale(0.015625)"/>
      <path id="DejaVuSans-65" d="M 3597 1894 
L 3597 1613 
L 953 1613 
Q 991 1019 1311 708 
Q 1631 397 2203 397 
Q 2534 397 2845 478 
Q 3156 559 3463 722 
L 3463 178 
Q 3153 47 2828 -22 
Q 2503 -91 2169 -91 
Q 1331 -91 842 396 
Q 353 884 353 1716 
Q 353 2575 817 3079 
Q 1281 3584 2069 3584 
Q 2775 3584 3186 3129 
Q 3597 2675 3597 1894 
z
M 3022 2063 
Q 3016 2534 2758 2815 
Q 2500 3097 2075 3097 
Q 1594 3097 1305 2825 
Q 1016 2553 972 2059 
L 3022 2063 
z
" transform="scale(0.015625)"/>
      <path id="DejaVuSans-6e" d="M 3513 2113 
L 3513 0 
L 2938 0 
L 2938 2094 
Q 2938 2591 2744 2837 
Q 2550 3084 2163 3084 
Q 1697 3084 1428 2787 
Q 1159 2491 1159 1978 
L 1159 0 
L 581 0 
L 581 3500 
L 1159 3500 
L 1159 2956 
Q 1366 3272 1645 3428 
Q 1925 3584 2291 3584 
Q 2894 3584 3203 3211 
Q 3513 2838 3513 2113 
z
" transform="scale(0.015625)"/>
      <path id="DejaVuSans-69" d="M 603 3500 
L 1178 3500 
L 1178 0 
L 603 0 
L 603 3500 
z
M 603 4863 
L 1178 4863 
L 1178 4134 
L 603 4134 
L 603 4863 
z
" transform="scale(0.015625)"/>
      <path id="DejaVuSans-67" d="M 2906 1791 
Q 2906 2416 2648 2759 
Q 2391 3103 1925 3103 
Q 1463 3103 1205 2759 
Q 947 2416 947 1791 
Q 947 1169 1205 825 
Q 1463 481 1925 481 
Q 2391 481 2648 825 
Q 2906 1169 2906 1791 
z
M 3481 434 
Q 3481 -459 3084 -895 
Q 2688 -1331 1869 -1331 
Q 1566 -1331 1297 -1286 
Q 1028 -1241 775 -1147 
L 775 -588 
Q 1028 -725 1275 -790 
Q 1522 -856 1778 -856 
Q 2344 -856 2625 -561 
Q 2906 -266 2906 331 
L 2906 616 
Q 2728 306 2450 153 
Q 2172 0 1784 0 
Q 1141 0 747 490 
Q 353 981 353 1791 
Q 353 2603 747 3093 
Q 1141 3584 1784 3584 
Q 2172 3584 2450 3431 
Q 2728 3278 2906 2969 
L 2906 3500 
L 3481 3500 
L 3481 434 
z
" transform="scale(0.015625)"/>
      <path id="DejaVuSans-20" transform="scale(0.015625)"/>
      <path id="DejaVuSans-43" d="M 4122 4306 
L 4122 3641 
Q 3803 3938 3442 4084 
Q 3081 4231 2675 4231 
Q 1875 4231 1450 3742 
Q 1025 3253 1025 2328 
Q 1025 1406 1450 917 
Q 1875 428 2675 428 
Q 3081 428 3442 575 
Q 3803 722 4122 1019 
L 4122 359 
Q 3791 134 3420 21 
Q 3050 -91 2638 -91 
Q 1578 -91 968 557 
Q 359 1206 359 2328 
Q 359 3453 968 4101 
Q 1578 4750 2638 4750 
Q 3056 4750 3426 4639 
Q 3797 4528 4122 4306 
z
" transform="scale(0.015625)"/>
      <path id="DejaVuSans-76" d="M 191 3500 
L 800 3500 
L 1894 563 
L 2988 3500 
L 3597 3500 
L 2284 0 
L 1503 0 
L 191 3500 
z
" transform="scale(0.015625)"/>
     </defs>
     <use xlink:href="#DejaVuSans-4c"/>
     <use xlink:href="#DejaVuSans-65" x="53.962891"/>
     <use xlink:href="#DejaVuSans-61" x="115.486328"/>
     <use xlink:href="#DejaVuSans-72" x="176.765625"/>
     <use xlink:href="#DejaVuSans-6e" x="216.128906"/>
     <use xlink:href="#DejaVuSans-69" x="279.507812"/>
     <use xlink:href="#DejaVuSans-6e" x="307.291016"/>
     <use xlink:href="#DejaVuSans-67" x="370.669922"/>
     <use xlink:href="#DejaVuSans-20" x="434.146484"/>
     <use xlink:href="#DejaVuSans-43" x="465.933594"/>
     <use xlink:href="#DejaVuSans-75" x="535.757812"/>
     <use xlink:href="#DejaVuSans-72" x="599.136719"/>
     <use xlink:href="#DejaVuSans-76" x="640.25"/>
     <use xlink:href="#DejaVuSans-65" x="699.429688"/>
     <use xlink:href="#DejaVuSans-73" x="760.953125"/>
    </g>
   </g>
   <g id="legend_1">
    <g id="patch_7">
     <path d="M 128.445937 302.584 
L 343.874063 302.584 
Q 345.874063 302.584 345.874063 300.584 
L 345.874063 198.837125 
Q 345.874063 196.837125 343.874063 196.837125 
L 128.445937 196.837125 
Q 126.445937 196.837125 126.445937 198.837125 
L 126.445937 300.584 
Q 126.445937 302.584 128.445937 302.584 
z
" style="fill: #ffffff; opacity: 0.8; stroke: #cccccc; stroke-linejoin: miter"/>
    </g>
    <g id="line2d_27">
     <path d="M 130.445937 204.935563 
L 140.445937 204.935563 
L 150.445937 204.935563 
" style="fill: none; stroke: #1f77b4; stroke-width: 1.5; stroke-linecap: square"/>
    </g>
    <g id="text_23">
     <!-- Train Accuracy -->
     <g transform="translate(158.445937 208.435563) scale(0.1 -0.1)">
      <defs>
       <path id="DejaVuSans-54" d="M -19 4666 
L 3928 4666 
L 3928 4134 
L 2272 4134 
L 2272 0 
L 1638 0 
L 1638 4134 
L -19 4134 
L -19 4666 
z
" transform="scale(0.015625)"/>
      </defs>
      <use xlink:href="#DejaVuSans-54"/>
      <use xlink:href="#DejaVuSans-72" x="46.333984"/>
      <use xlink:href="#DejaVuSans-61" x="87.447266"/>
      <use xlink:href="#DejaVuSans-69" x="148.726562"/>
      <use xlink:href="#DejaVuSans-6e" x="176.509766"/>
      <use xlink:href="#DejaVuSans-20" x="239.888672"/>
      <use xlink:href="#DejaVuSans-41" x="271.675781"/>
      <use xlink:href="#DejaVuSans-63" x="338.333984"/>
      <use xlink:href="#DejaVuSans-63" x="393.314453"/>
      <use xlink:href="#DejaVuSans-75" x="448.294922"/>
      <use xlink:href="#DejaVuSans-72" x="511.673828"/>
      <use xlink:href="#DejaVuSans-61" x="552.787109"/>
      <use xlink:href="#DejaVuSans-63" x="614.066406"/>
      <use xlink:href="#DejaVuSans-79" x="669.046875"/>
     </g>
    </g>
    <g id="line2d_28">
     <path d="M 130.445937 219.613688 
L 140.445937 219.613688 
L 150.445937 219.613688 
" style="fill: none; stroke: #ff7f0e; stroke-width: 1.5; stroke-linecap: square"/>
    </g>
    <g id="text_24">
     <!-- Validation Accuracy -->
     <g transform="translate(158.445937 223.113688) scale(0.1 -0.1)">
      <defs>
       <path id="DejaVuSans-56" d="M 1831 0 
L 50 4666 
L 709 4666 
L 2188 738 
L 3669 4666 
L 4325 4666 
L 2547 0 
L 1831 0 
z
" transform="scale(0.015625)"/>
       <path id="DejaVuSans-6c" d="M 603 4863 
L 1178 4863 
L 1178 0 
L 603 0 
L 603 4863 
z
" transform="scale(0.015625)"/>
       <path id="DejaVuSans-64" d="M 2906 2969 
L 2906 4863 
L 3481 4863 
L 3481 0 
L 2906 0 
L 2906 525 
Q 2725 213 2448 61 
Q 2172 -91 1784 -91 
Q 1150 -91 751 415 
Q 353 922 353 1747 
Q 353 2572 751 3078 
Q 1150 3584 1784 3584 
Q 2172 3584 2448 3432 
Q 2725 3281 2906 2969 
z
M 947 1747 
Q 947 1113 1208 752 
Q 1469 391 1925 391 
Q 2381 391 2643 752 
Q 2906 1113 2906 1747 
Q 2906 2381 2643 2742 
Q 2381 3103 1925 3103 
Q 1469 3103 1208 2742 
Q 947 2381 947 1747 
z
" transform="scale(0.015625)"/>
       <path id="DejaVuSans-74" d="M 1172 4494 
L 1172 3500 
L 2356 3500 
L 2356 3053 
L 1172 3053 
L 1172 1153 
Q 1172 725 1289 603 
Q 1406 481 1766 481 
L 2356 481 
L 2356 0 
L 1766 0 
Q 1100 0 847 248 
Q 594 497 594 1153 
L 594 3053 
L 172 3053 
L 172 3500 
L 594 3500 
L 594 4494 
L 1172 4494 
z
" transform="scale(0.015625)"/>
      </defs>
      <use xlink:href="#DejaVuSans-56"/>
      <use xlink:href="#DejaVuSans-61" x="60.658203"/>
      <use xlink:href="#DejaVuSans-6c" x="121.9375"/>
      <use xlink:href="#DejaVuSans-69" x="149.720703"/>
      <use xlink:href="#DejaVuSans-64" x="177.503906"/>
      <use xlink:href="#DejaVuSans-61" x="240.980469"/>
      <use xlink:href="#DejaVuSans-74" x="302.259766"/>
      <use xlink:href="#DejaVuSans-69" x="341.46875"/>
      <use xlink:href="#DejaVuSans-6f" x="369.251953"/>
      <use xlink:href="#DejaVuSans-6e" x="430.433594"/>
      <use xlink:href="#DejaVuSans-20" x="493.8125"/>
      <use xlink:href="#DejaVuSans-41" x="525.599609"/>
      <use xlink:href="#DejaVuSans-63" x="592.257812"/>
      <use xlink:href="#DejaVuSans-63" x="647.238281"/>
      <use xlink:href="#DejaVuSans-75" x="702.21875"/>
      <use xlink:href="#DejaVuSans-72" x="765.597656"/>
      <use xlink:href="#DejaVuSans-61" x="806.710938"/>
      <use xlink:href="#DejaVuSans-63" x="867.990234"/>
      <use xlink:href="#DejaVuSans-79" x="922.970703"/>
     </g>
    </g>
    <g id="line2d_29">
     <path d="M 130.445937 234.291812 
L 140.445937 234.291812 
L 150.445937 234.291812 
" style="fill: none; stroke: #2ca02c; stroke-width: 1.5; stroke-linecap: square"/>
    </g>
    <g id="text_25">
     <!-- Robust Validation Accuracy -->
     <g transform="translate(158.445937 237.791812) scale(0.1 -0.1)">
      <defs>
       <path id="DejaVuSans-52" d="M 2841 2188 
Q 3044 2119 3236 1894 
Q 3428 1669 3622 1275 
L 4263 0 
L 3584 0 
L 2988 1197 
Q 2756 1666 2539 1819 
Q 2322 1972 1947 1972 
L 1259 1972 
L 1259 0 
L 628 0 
L 628 4666 
L 2053 4666 
Q 2853 4666 3247 4331 
Q 3641 3997 3641 3322 
Q 3641 2881 3436 2590 
Q 3231 2300 2841 2188 
z
M 1259 4147 
L 1259 2491 
L 2053 2491 
Q 2509 2491 2742 2702 
Q 2975 2913 2975 3322 
Q 2975 3731 2742 3939 
Q 2509 4147 2053 4147 
L 1259 4147 
z
" transform="scale(0.015625)"/>
       <path id="DejaVuSans-62" d="M 3116 1747 
Q 3116 2381 2855 2742 
Q 2594 3103 2138 3103 
Q 1681 3103 1420 2742 
Q 1159 2381 1159 1747 
Q 1159 1113 1420 752 
Q 1681 391 2138 391 
Q 2594 391 2855 752 
Q 3116 1113 3116 1747 
z
M 1159 2969 
Q 1341 3281 1617 3432 
Q 1894 3584 2278 3584 
Q 2916 3584 3314 3078 
Q 3713 2572 3713 1747 
Q 3713 922 3314 415 
Q 2916 -91 2278 -91 
Q 1894 -91 1617 61 
Q 1341 213 1159 525 
L 1159 0 
L 581 0 
L 581 4863 
L 1159 4863 
L 1159 2969 
z
" transform="scale(0.015625)"/>
      </defs>
      <use xlink:href="#DejaVuSans-52"/>
      <use xlink:href="#DejaVuSans-6f" x="64.982422"/>
      <use xlink:href="#DejaVuSans-62" x="126.164062"/>
      <use xlink:href="#DejaVuSans-75" x="189.640625"/>
      <use xlink:href="#DejaVuSans-73" x="253.019531"/>
      <use xlink:href="#DejaVuSans-74" x="305.119141"/>
      <use xlink:href="#DejaVuSans-20" x="344.328125"/>
      <use xlink:href="#DejaVuSans-56" x="376.115234"/>
      <use xlink:href="#DejaVuSans-61" x="436.773438"/>
      <use xlink:href="#DejaVuSans-6c" x="498.052734"/>
      <use xlink:href="#DejaVuSans-69" x="525.835938"/>
      <use xlink:href="#DejaVuSans-64" x="553.619141"/>
      <use xlink:href="#DejaVuSans-61" x="617.095703"/>
      <use xlink:href="#DejaVuSans-74" x="678.375"/>
      <use xlink:href="#DejaVuSans-69" x="717.583984"/>
      <use xlink:href="#DejaVuSans-6f" x="745.367188"/>
      <use xlink:href="#DejaVuSans-6e" x="806.548828"/>
      <use xlink:href="#DejaVuSans-20" x="869.927734"/>
      <use xlink:href="#DejaVuSans-41" x="901.714844"/>
      <use xlink:href="#DejaVuSans-63" x="968.373047"/>
      <use xlink:href="#DejaVuSans-63" x="1023.353516"/>
      <use xlink:href="#DejaVuSans-75" x="1078.333984"/>
      <use xlink:href="#DejaVuSans-72" x="1141.712891"/>
      <use xlink:href="#DejaVuSans-61" x="1182.826172"/>
      <use xlink:href="#DejaVuSans-63" x="1244.105469"/>
      <use xlink:href="#DejaVuSans-79" x="1299.085938"/>
     </g>
    </g>
    <g id="line2d_30">
     <path d="M 130.445937 248.969938 
L 140.445937 248.969938 
L 150.445937 248.969938 
" style="fill: none; stroke: #d62728; stroke-width: 1.5; stroke-linecap: square"/>
    </g>
    <g id="text_26">
     <!-- Adversarial Validation Accuracy -->
     <g transform="translate(158.445937 252.469938) scale(0.1 -0.1)">
      <use xlink:href="#DejaVuSans-41"/>
      <use xlink:href="#DejaVuSans-64" x="66.658203"/>
      <use xlink:href="#DejaVuSans-76" x="130.134766"/>
      <use xlink:href="#DejaVuSans-65" x="189.314453"/>
      <use xlink:href="#DejaVuSans-72" x="250.837891"/>
      <use xlink:href="#DejaVuSans-73" x="291.951172"/>
      <use xlink:href="#DejaVuSans-61" x="344.050781"/>
      <use xlink:href="#DejaVuSans-72" x="405.330078"/>
      <use xlink:href="#DejaVuSans-69" x="446.443359"/>
      <use xlink:href="#DejaVuSans-61" x="474.226562"/>
      <use xlink:href="#DejaVuSans-6c" x="535.505859"/>
      <use xlink:href="#DejaVuSans-20" x="563.289062"/>
      <use xlink:href="#DejaVuSans-56" x="595.076172"/>
      <use xlink:href="#DejaVuSans-61" x="655.734375"/>
      <use xlink:href="#DejaVuSans-6c" x="717.013672"/>
      <use xlink:href="#DejaVuSans-69" x="744.796875"/>
      <use xlink:href="#DejaVuSans-64" x="772.580078"/>
      <use xlink:href="#DejaVuSans-61" x="836.056641"/>
      <use xlink:href="#DejaVuSans-74" x="897.335938"/>
      <use xlink:href="#DejaVuSans-69" x="936.544922"/>
      <use xlink:href="#DejaVuSans-6f" x="964.328125"/>
      <use xlink:href="#DejaVuSans-6e" x="1025.509766"/>
      <use xlink:href="#DejaVuSans-20" x="1088.888672"/>
      <use xlink:href="#DejaVuSans-41" x="1120.675781"/>
      <use xlink:href="#DejaVuSans-63" x="1187.333984"/>
      <use xlink:href="#DejaVuSans-63" x="1242.314453"/>
      <use xlink:href="#DejaVuSans-75" x="1297.294922"/>
      <use xlink:href="#DejaVuSans-72" x="1360.673828"/>
      <use xlink:href="#DejaVuSans-61" x="1401.787109"/>
      <use xlink:href="#DejaVuSans-63" x="1463.066406"/>
      <use xlink:href="#DejaVuSans-79" x="1518.046875"/>
     </g>
    </g>
    <g id="line2d_31">
     <path d="M 130.445937 263.648063 
L 140.445937 263.648063 
L 150.445937 263.648063 
" style="fill: none; stroke: #9467bd; stroke-width: 1.5; stroke-linecap: square"/>
    </g>
    <g id="text_27">
     <!-- SWA Validation Accuracy -->
     <g transform="translate(158.445937 267.148063) scale(0.1 -0.1)">
      <defs>
       <path id="DejaVuSans-53" d="M 3425 4513 
L 3425 3897 
Q 3066 4069 2747 4153 
Q 2428 4238 2131 4238 
Q 1616 4238 1336 4038 
Q 1056 3838 1056 3469 
Q 1056 3159 1242 3001 
Q 1428 2844 1947 2747 
L 2328 2669 
Q 3034 2534 3370 2195 
Q 3706 1856 3706 1288 
Q 3706 609 3251 259 
Q 2797 -91 1919 -91 
Q 1588 -91 1214 -16 
Q 841 59 441 206 
L 441 856 
Q 825 641 1194 531 
Q 1563 422 1919 422 
Q 2459 422 2753 634 
Q 3047 847 3047 1241 
Q 3047 1584 2836 1778 
Q 2625 1972 2144 2069 
L 1759 2144 
Q 1053 2284 737 2584 
Q 422 2884 422 3419 
Q 422 4038 858 4394 
Q 1294 4750 2059 4750 
Q 2388 4750 2728 4690 
Q 3069 4631 3425 4513 
z
" transform="scale(0.015625)"/>
       <path id="DejaVuSans-57" d="M 213 4666 
L 850 4666 
L 1831 722 
L 2809 4666 
L 3519 4666 
L 4500 722 
L 5478 4666 
L 6119 4666 
L 4947 0 
L 4153 0 
L 3169 4050 
L 2175 0 
L 1381 0 
L 213 4666 
z
" transform="scale(0.015625)"/>
      </defs>
      <use xlink:href="#DejaVuSans-53"/>
      <use xlink:href="#DejaVuSans-57" x="63.476562"/>
      <use xlink:href="#DejaVuSans-41" x="156.853516"/>
      <use xlink:href="#DejaVuSans-20" x="225.261719"/>
      <use xlink:href="#DejaVuSans-56" x="257.048828"/>
      <use xlink:href="#DejaVuSans-61" x="317.707031"/>
      <use xlink:href="#DejaVuSans-6c" x="378.986328"/>
      <use xlink:href="#DejaVuSans-69" x="406.769531"/>
      <use xlink:href="#DejaVuSans-64" x="434.552734"/>
      <use xlink:href="#DejaVuSans-61" x="498.029297"/>
      <use xlink:href="#DejaVuSans-74" x="559.308594"/>
      <use xlink:href="#DejaVuSans-69" x="598.517578"/>
      <use xlink:href="#DejaVuSans-6f" x="626.300781"/>
      <use xlink:href="#DejaVuSans-6e" x="687.482422"/>
      <use xlink:href="#DejaVuSans-20" x="750.861328"/>
      <use xlink:href="#DejaVuSans-41" x="782.648438"/>
      <use xlink:href="#DejaVuSans-63" x="849.306641"/>
      <use xlink:href="#DejaVuSans-63" x="904.287109"/>
      <use xlink:href="#DejaVuSans-75" x="959.267578"/>
      <use xlink:href="#DejaVuSans-72" x="1022.646484"/>
      <use xlink:href="#DejaVuSans-61" x="1063.759766"/>
      <use xlink:href="#DejaVuSans-63" x="1125.039062"/>
      <use xlink:href="#DejaVuSans-79" x="1180.019531"/>
     </g>
    </g>
    <g id="line2d_32">
     <path d="M 130.445937 278.326188 
L 140.445937 278.326188 
L 150.445937 278.326188 
" style="fill: none; stroke: #8c564b; stroke-width: 1.5; stroke-linecap: square"/>
    </g>
    <g id="text_28">
     <!-- SWA Robust Validation Accuracy -->
     <g transform="translate(158.445937 281.826188) scale(0.1 -0.1)">
      <use xlink:href="#DejaVuSans-53"/>
      <use xlink:href="#DejaVuSans-57" x="63.476562"/>
      <use xlink:href="#DejaVuSans-41" x="156.853516"/>
      <use xlink:href="#DejaVuSans-20" x="225.261719"/>
      <use xlink:href="#DejaVuSans-52" x="257.048828"/>
      <use xlink:href="#DejaVuSans-6f" x="322.03125"/>
      <use xlink:href="#DejaVuSans-62" x="383.212891"/>
      <use xlink:href="#DejaVuSans-75" x="446.689453"/>
      <use xlink:href="#DejaVuSans-73" x="510.068359"/>
      <use xlink:href="#DejaVuSans-74" x="562.167969"/>
      <use xlink:href="#DejaVuSans-20" x="601.376953"/>
      <use xlink:href="#DejaVuSans-56" x="633.164062"/>
      <use xlink:href="#DejaVuSans-61" x="693.822266"/>
      <use xlink:href="#DejaVuSans-6c" x="755.101562"/>
      <use xlink:href="#DejaVuSans-69" x="782.884766"/>
      <use xlink:href="#DejaVuSans-64" x="810.667969"/>
      <use xlink:href="#DejaVuSans-61" x="874.144531"/>
      <use xlink:href="#DejaVuSans-74" x="935.423828"/>
      <use xlink:href="#DejaVuSans-69" x="974.632812"/>
      <use xlink:href="#DejaVuSans-6f" x="1002.416016"/>
      <use xlink:href="#DejaVuSans-6e" x="1063.597656"/>
      <use xlink:href="#DejaVuSans-20" x="1126.976562"/>
      <use xlink:href="#DejaVuSans-41" x="1158.763672"/>
      <use xlink:href="#DejaVuSans-63" x="1225.421875"/>
      <use xlink:href="#DejaVuSans-63" x="1280.402344"/>
      <use xlink:href="#DejaVuSans-75" x="1335.382812"/>
      <use xlink:href="#DejaVuSans-72" x="1398.761719"/>
      <use xlink:href="#DejaVuSans-61" x="1439.875"/>
      <use xlink:href="#DejaVuSans-63" x="1501.154297"/>
      <use xlink:href="#DejaVuSans-79" x="1556.134766"/>
     </g>
    </g>
    <g id="line2d_33">
     <path d="M 130.445937 293.004312 
L 140.445937 293.004312 
L 150.445937 293.004312 
" style="fill: none; stroke: #e377c2; stroke-width: 1.5; stroke-linecap: square"/>
    </g>
    <g id="text_29">
     <!-- SWA Adversarial Validation Accuracy -->
     <g transform="translate(158.445937 296.504312) scale(0.1 -0.1)">
      <use xlink:href="#DejaVuSans-53"/>
      <use xlink:href="#DejaVuSans-57" x="63.476562"/>
      <use xlink:href="#DejaVuSans-41" x="156.853516"/>
      <use xlink:href="#DejaVuSans-20" x="225.261719"/>
      <use xlink:href="#DejaVuSans-41" x="257.048828"/>
      <use xlink:href="#DejaVuSans-64" x="323.707031"/>
      <use xlink:href="#DejaVuSans-76" x="387.183594"/>
      <use xlink:href="#DejaVuSans-65" x="446.363281"/>
      <use xlink:href="#DejaVuSans-72" x="507.886719"/>
      <use xlink:href="#DejaVuSans-73" x="549"/>
      <use xlink:href="#DejaVuSans-61" x="601.099609"/>
      <use xlink:href="#DejaVuSans-72" x="662.378906"/>
      <use xlink:href="#DejaVuSans-69" x="703.492188"/>
      <use xlink:href="#DejaVuSans-61" x="731.275391"/>
      <use xlink:href="#DejaVuSans-6c" x="792.554688"/>
      <use xlink:href="#DejaVuSans-20" x="820.337891"/>
      <use xlink:href="#DejaVuSans-56" x="852.125"/>
      <use xlink:href="#DejaVuSans-61" x="912.783203"/>
      <use xlink:href="#DejaVuSans-6c" x="974.0625"/>
      <use xlink:href="#DejaVuSans-69" x="1001.845703"/>
      <use xlink:href="#DejaVuSans-64" x="1029.628906"/>
      <use xlink:href="#DejaVuSans-61" x="1093.105469"/>
      <use xlink:href="#DejaVuSans-74" x="1154.384766"/>
      <use xlink:href="#DejaVuSans-69" x="1193.59375"/>
      <use xlink:href="#DejaVuSans-6f" x="1221.376953"/>
      <use xlink:href="#DejaVuSans-6e" x="1282.558594"/>
      <use xlink:href="#DejaVuSans-20" x="1345.9375"/>
      <use xlink:href="#DejaVuSans-41" x="1377.724609"/>
      <use xlink:href="#DejaVuSans-63" x="1444.382812"/>
      <use xlink:href="#DejaVuSans-63" x="1499.363281"/>
      <use xlink:href="#DejaVuSans-75" x="1554.34375"/>
      <use xlink:href="#DejaVuSans-72" x="1617.722656"/>
      <use xlink:href="#DejaVuSans-61" x="1658.835938"/>
      <use xlink:href="#DejaVuSans-63" x="1720.115234"/>
      <use xlink:href="#DejaVuSans-79" x="1775.095703"/>
     </g>
    </g>
   </g>
  </g>
 </g>
 <defs>
  <clipPath id="p091938b166">
   <rect x="57.6" y="41.472" width="357.12" height="266.112"/>
  </clipPath>
 </defs>
</svg>
