<?xml version="1.0" encoding="utf-8" standalone="no"?>
<!DOCTYPE svg PUBLIC "-//W3C//DTD SVG 1.1//EN"
  "http://www.w3.org/Graphics/SVG/1.1/DTD/svg11.dtd">
<svg xmlns:xlink="http://www.w3.org/1999/xlink" width="460.8pt" height="345.6pt" viewBox="0 0 460.8 345.6" xmlns="http://www.w3.org/2000/svg" version="1.1">
 <metadata>
  <rdf:RDF xmlns:dc="http://purl.org/dc/elements/1.1/" xmlns:cc="http://creativecommons.org/ns#" xmlns:rdf="http://www.w3.org/1999/02/22-rdf-syntax-ns#">
   <cc:Work>
    <dc:type rdf:resource="http://purl.org/dc/dcmitype/StillImage"/>
    <dc:date>2024-09-04T14:20:11.040399</dc:date>
    <dc:format>image/svg+xml</dc:format>
    <dc:creator>
     <cc:Agent>
      <dc:title>Matplotlib v3.9.1, https://matplotlib.org/</dc:title>
     </cc:Agent>
    </dc:creator>
   </cc:Work>
  </rdf:RDF>
 </metadata>
 <defs>
  <style type="text/css">*{stroke-linejoin: round; stroke-linecap: butt}</style>
 </defs>
 <g id="figure_1">
  <g id="patch_1">
   <path d="M 0 345.6 
L 460.8 345.6 
L 460.8 0 
L 0 0 
z
" style="fill: #ffffff"/>
  </g>
  <g id="axes_1">
   <g id="patch_2">
    <path d="M 57.6 307.584 
L 414.72 307.584 
L 414.72 41.472 
L 57.6 41.472 
z
" style="fill: #ffffff"/>
   </g>
   <g id="matplotlib.axis_1">
    <g id="xtick_1">
     <g id="line2d_1">
      <defs>
       <path id="m8b58333b0c" d="M 0 0 
L 0 3.5 
" style="stroke: #000000; stroke-width: 0.8"/>
      </defs>
      <g>
       <use xlink:href="#m8b58333b0c" x="73.832727" y="307.584" style="stroke: #000000; stroke-width: 0.8"/>
      </g>
     </g>
     <g id="text_1">
      <!-- 1 -->
      <g transform="translate(70.651477 322.182437) scale(0.1 -0.1)">
       <defs>
        <path id="DejaVuSans-31" d="M 794 531 
L 1825 531 
L 1825 4091 
L 703 3866 
L 703 4441 
L 1819 4666 
L 2450 4666 
L 2450 531 
L 3481 531 
L 3481 0 
L 794 0 
L 794 531 
z
" transform="scale(0.015625)"/>
       </defs>
       <use xlink:href="#DejaVuSans-31"/>
      </g>
     </g>
    </g>
    <g id="xtick_2">
     <g id="line2d_2">
      <g>
       <use xlink:href="#m8b58333b0c" x="109.651421" y="307.584" style="stroke: #000000; stroke-width: 0.8"/>
      </g>
     </g>
     <g id="text_2">
      <!-- 48 -->
      <g transform="translate(103.288921 322.182437) scale(0.1 -0.1)">
       <defs>
        <path id="DejaVuSans-34" d="M 2419 4116 
L 825 1625 
L 2419 1625 
L 2419 4116 
z
M 2253 4666 
L 3047 4666 
L 3047 1625 
L 3713 1625 
L 3713 1100 
L 3047 1100 
L 3047 0 
L 2419 0 
L 2419 1100 
L 313 1100 
L 313 1709 
L 2253 4666 
z
" transform="scale(0.015625)"/>
        <path id="DejaVuSans-38" d="M 2034 2216 
Q 1584 2216 1326 1975 
Q 1069 1734 1069 1313 
Q 1069 891 1326 650 
Q 1584 409 2034 409 
Q 2484 409 2743 651 
Q 3003 894 3003 1313 
Q 3003 1734 2745 1975 
Q 2488 2216 2034 2216 
z
M 1403 2484 
Q 997 2584 770 2862 
Q 544 3141 544 3541 
Q 544 4100 942 4425 
Q 1341 4750 2034 4750 
Q 2731 4750 3128 4425 
Q 3525 4100 3525 3541 
Q 3525 3141 3298 2862 
Q 3072 2584 2669 2484 
Q 3125 2378 3379 2068 
Q 3634 1759 3634 1313 
Q 3634 634 3220 271 
Q 2806 -91 2034 -91 
Q 1263 -91 848 271 
Q 434 634 434 1313 
Q 434 1759 690 2068 
Q 947 2378 1403 2484 
z
M 1172 3481 
Q 1172 3119 1398 2916 
Q 1625 2713 2034 2713 
Q 2441 2713 2670 2916 
Q 2900 3119 2900 3481 
Q 2900 3844 2670 4047 
Q 2441 4250 2034 4250 
Q 1625 4250 1398 4047 
Q 1172 3844 1172 3481 
z
" transform="scale(0.015625)"/>
       </defs>
       <use xlink:href="#DejaVuSans-34"/>
       <use xlink:href="#DejaVuSans-38" x="63.623047"/>
      </g>
     </g>
    </g>
    <g id="xtick_3">
     <g id="line2d_3">
      <g>
       <use xlink:href="#m8b58333b0c" x="145.470115" y="307.584" style="stroke: #000000; stroke-width: 0.8"/>
      </g>
     </g>
     <g id="text_3">
      <!-- 95 -->
      <g transform="translate(139.107615 322.182437) scale(0.1 -0.1)">
       <defs>
        <path id="DejaVuSans-39" d="M 703 97 
L 703 672 
Q 941 559 1184 500 
Q 1428 441 1663 441 
Q 2288 441 2617 861 
Q 2947 1281 2994 2138 
Q 2813 1869 2534 1725 
Q 2256 1581 1919 1581 
Q 1219 1581 811 2004 
Q 403 2428 403 3163 
Q 403 3881 828 4315 
Q 1253 4750 1959 4750 
Q 2769 4750 3195 4129 
Q 3622 3509 3622 2328 
Q 3622 1225 3098 567 
Q 2575 -91 1691 -91 
Q 1453 -91 1209 -44 
Q 966 3 703 97 
z
M 1959 2075 
Q 2384 2075 2632 2365 
Q 2881 2656 2881 3163 
Q 2881 3666 2632 3958 
Q 2384 4250 1959 4250 
Q 1534 4250 1286 3958 
Q 1038 3666 1038 3163 
Q 1038 2656 1286 2365 
Q 1534 2075 1959 2075 
z
" transform="scale(0.015625)"/>
        <path id="DejaVuSans-35" d="M 691 4666 
L 3169 4666 
L 3169 4134 
L 1269 4134 
L 1269 2991 
Q 1406 3038 1543 3061 
Q 1681 3084 1819 3084 
Q 2600 3084 3056 2656 
Q 3513 2228 3513 1497 
Q 3513 744 3044 326 
Q 2575 -91 1722 -91 
Q 1428 -91 1123 -41 
Q 819 9 494 109 
L 494 744 
Q 775 591 1075 516 
Q 1375 441 1709 441 
Q 2250 441 2565 725 
Q 2881 1009 2881 1497 
Q 2881 1984 2565 2268 
Q 2250 2553 1709 2553 
Q 1456 2553 1204 2497 
Q 953 2441 691 2322 
L 691 4666 
z
" transform="scale(0.015625)"/>
       </defs>
       <use xlink:href="#DejaVuSans-39"/>
       <use xlink:href="#DejaVuSans-35" x="63.623047"/>
      </g>
     </g>
    </g>
    <g id="xtick_4">
     <g id="line2d_4">
      <g>
       <use xlink:href="#m8b58333b0c" x="182.050909" y="307.584" style="stroke: #000000; stroke-width: 0.8"/>
      </g>
     </g>
     <g id="text_4">
      <!-- 143 -->
      <g transform="translate(172.507159 322.182437) scale(0.1 -0.1)">
       <defs>
        <path id="DejaVuSans-33" d="M 2597 2516 
Q 3050 2419 3304 2112 
Q 3559 1806 3559 1356 
Q 3559 666 3084 287 
Q 2609 -91 1734 -91 
Q 1441 -91 1130 -33 
Q 819 25 488 141 
L 488 750 
Q 750 597 1062 519 
Q 1375 441 1716 441 
Q 2309 441 2620 675 
Q 2931 909 2931 1356 
Q 2931 1769 2642 2001 
Q 2353 2234 1838 2234 
L 1294 2234 
L 1294 2753 
L 1863 2753 
Q 2328 2753 2575 2939 
Q 2822 3125 2822 3475 
Q 2822 3834 2567 4026 
Q 2313 4219 1838 4219 
Q 1578 4219 1281 4162 
Q 984 4106 628 3988 
L 628 4550 
Q 988 4650 1302 4700 
Q 1616 4750 1894 4750 
Q 2613 4750 3031 4423 
Q 3450 4097 3450 3541 
Q 3450 3153 3228 2886 
Q 3006 2619 2597 2516 
z
" transform="scale(0.015625)"/>
       </defs>
       <use xlink:href="#DejaVuSans-31"/>
       <use xlink:href="#DejaVuSans-34" x="63.623047"/>
       <use xlink:href="#DejaVuSans-33" x="127.246094"/>
      </g>
     </g>
    </g>
    <g id="xtick_5">
     <g id="line2d_5">
      <g>
       <use xlink:href="#m8b58333b0c" x="217.869603" y="307.584" style="stroke: #000000; stroke-width: 0.8"/>
      </g>
     </g>
     <g id="text_5">
      <!-- 190 -->
      <g transform="translate(208.325853 322.182437) scale(0.1 -0.1)">
       <defs>
        <path id="DejaVuSans-30" d="M 2034 4250 
Q 1547 4250 1301 3770 
Q 1056 3291 1056 2328 
Q 1056 1369 1301 889 
Q 1547 409 2034 409 
Q 2525 409 2770 889 
Q 3016 1369 3016 2328 
Q 3016 3291 2770 3770 
Q 2525 4250 2034 4250 
z
M 2034 4750 
Q 2819 4750 3233 4129 
Q 3647 3509 3647 2328 
Q 3647 1150 3233 529 
Q 2819 -91 2034 -91 
Q 1250 -91 836 529 
Q 422 1150 422 2328 
Q 422 3509 836 4129 
Q 1250 4750 2034 4750 
z
" transform="scale(0.015625)"/>
       </defs>
       <use xlink:href="#DejaVuSans-31"/>
       <use xlink:href="#DejaVuSans-39" x="63.623047"/>
       <use xlink:href="#DejaVuSans-30" x="127.246094"/>
      </g>
     </g>
    </g>
    <g id="xtick_6">
     <g id="line2d_6">
      <g>
       <use xlink:href="#m8b58333b0c" x="253.688297" y="307.584" style="stroke: #000000; stroke-width: 0.8"/>
      </g>
     </g>
     <g id="text_6">
      <!-- 237 -->
      <g transform="translate(244.144547 322.182437) scale(0.1 -0.1)">
       <defs>
        <path id="DejaVuSans-32" d="M 1228 531 
L 3431 531 
L 3431 0 
L 469 0 
L 469 531 
Q 828 903 1448 1529 
Q 2069 2156 2228 2338 
Q 2531 2678 2651 2914 
Q 2772 3150 2772 3378 
Q 2772 3750 2511 3984 
Q 2250 4219 1831 4219 
Q 1534 4219 1204 4116 
Q 875 4013 500 3803 
L 500 4441 
Q 881 4594 1212 4672 
Q 1544 4750 1819 4750 
Q 2544 4750 2975 4387 
Q 3406 4025 3406 3419 
Q 3406 3131 3298 2873 
Q 3191 2616 2906 2266 
Q 2828 2175 2409 1742 
Q 1991 1309 1228 531 
z
" transform="scale(0.015625)"/>
        <path id="DejaVuSans-37" d="M 525 4666 
L 3525 4666 
L 3525 4397 
L 1831 0 
L 1172 0 
L 2766 4134 
L 525 4134 
L 525 4666 
z
" transform="scale(0.015625)"/>
       </defs>
       <use xlink:href="#DejaVuSans-32"/>
       <use xlink:href="#DejaVuSans-33" x="63.623047"/>
       <use xlink:href="#DejaVuSans-37" x="127.246094"/>
      </g>
     </g>
    </g>
    <g id="xtick_7">
     <g id="line2d_7">
      <g>
       <use xlink:href="#m8b58333b0c" x="290.269091" y="307.584" style="stroke: #000000; stroke-width: 0.8"/>
      </g>
     </g>
     <g id="text_7">
      <!-- 285 -->
      <g transform="translate(280.725341 322.182437) scale(0.1 -0.1)">
       <use xlink:href="#DejaVuSans-32"/>
       <use xlink:href="#DejaVuSans-38" x="63.623047"/>
       <use xlink:href="#DejaVuSans-35" x="127.246094"/>
      </g>
     </g>
    </g>
    <g id="xtick_8">
     <g id="line2d_8">
      <g>
       <use xlink:href="#m8b58333b0c" x="326.087785" y="307.584" style="stroke: #000000; stroke-width: 0.8"/>
      </g>
     </g>
     <g id="text_8">
      <!-- 332 -->
      <g transform="translate(316.544035 322.182437) scale(0.1 -0.1)">
       <use xlink:href="#DejaVuSans-33"/>
       <use xlink:href="#DejaVuSans-33" x="63.623047"/>
       <use xlink:href="#DejaVuSans-32" x="127.246094"/>
      </g>
     </g>
    </g>
    <g id="xtick_9">
     <g id="line2d_9">
      <g>
       <use xlink:href="#m8b58333b0c" x="361.906479" y="307.584" style="stroke: #000000; stroke-width: 0.8"/>
      </g>
     </g>
     <g id="text_9">
      <!-- 379 -->
      <g transform="translate(352.362729 322.182437) scale(0.1 -0.1)">
       <use xlink:href="#DejaVuSans-33"/>
       <use xlink:href="#DejaVuSans-37" x="63.623047"/>
       <use xlink:href="#DejaVuSans-39" x="127.246094"/>
      </g>
     </g>
    </g>
    <g id="xtick_10">
     <g id="line2d_10">
      <g>
       <use xlink:href="#m8b58333b0c" x="398.487273" y="307.584" style="stroke: #000000; stroke-width: 0.8"/>
      </g>
     </g>
     <g id="text_10">
      <!-- 427 -->
      <g transform="translate(388.943523 322.182437) scale(0.1 -0.1)">
       <use xlink:href="#DejaVuSans-34"/>
       <use xlink:href="#DejaVuSans-32" x="63.623047"/>
       <use xlink:href="#DejaVuSans-37" x="127.246094"/>
      </g>
     </g>
    </g>
    <g id="text_11">
     <!-- Epochs -->
     <g transform="translate(218.244375 335.860562) scale(0.1 -0.1)">
      <defs>
       <path id="DejaVuSans-45" d="M 628 4666 
L 3578 4666 
L 3578 4134 
L 1259 4134 
L 1259 2753 
L 3481 2753 
L 3481 2222 
L 1259 2222 
L 1259 531 
L 3634 531 
L 3634 0 
L 628 0 
L 628 4666 
z
" transform="scale(0.015625)"/>
       <path id="DejaVuSans-70" d="M 1159 525 
L 1159 -1331 
L 581 -1331 
L 581 3500 
L 1159 3500 
L 1159 2969 
Q 1341 3281 1617 3432 
Q 1894 3584 2278 3584 
Q 2916 3584 3314 3078 
Q 3713 2572 3713 1747 
Q 3713 922 3314 415 
Q 2916 -91 2278 -91 
Q 1894 -91 1617 61 
Q 1341 213 1159 525 
z
M 3116 1747 
Q 3116 2381 2855 2742 
Q 2594 3103 2138 3103 
Q 1681 3103 1420 2742 
Q 1159 2381 1159 1747 
Q 1159 1113 1420 752 
Q 1681 391 2138 391 
Q 2594 391 2855 752 
Q 3116 1113 3116 1747 
z
" transform="scale(0.015625)"/>
       <path id="DejaVuSans-6f" d="M 1959 3097 
Q 1497 3097 1228 2736 
Q 959 2375 959 1747 
Q 959 1119 1226 758 
Q 1494 397 1959 397 
Q 2419 397 2687 759 
Q 2956 1122 2956 1747 
Q 2956 2369 2687 2733 
Q 2419 3097 1959 3097 
z
M 1959 3584 
Q 2709 3584 3137 3096 
Q 3566 2609 3566 1747 
Q 3566 888 3137 398 
Q 2709 -91 1959 -91 
Q 1206 -91 779 398 
Q 353 888 353 1747 
Q 353 2609 779 3096 
Q 1206 3584 1959 3584 
z
" transform="scale(0.015625)"/>
       <path id="DejaVuSans-63" d="M 3122 3366 
L 3122 2828 
Q 2878 2963 2633 3030 
Q 2388 3097 2138 3097 
Q 1578 3097 1268 2742 
Q 959 2388 959 1747 
Q 959 1106 1268 751 
Q 1578 397 2138 397 
Q 2388 397 2633 464 
Q 2878 531 3122 666 
L 3122 134 
Q 2881 22 2623 -34 
Q 2366 -91 2075 -91 
Q 1284 -91 818 406 
Q 353 903 353 1747 
Q 353 2603 823 3093 
Q 1294 3584 2113 3584 
Q 2378 3584 2631 3529 
Q 2884 3475 3122 3366 
z
" transform="scale(0.015625)"/>
       <path id="DejaVuSans-68" d="M 3513 2113 
L 3513 0 
L 2938 0 
L 2938 2094 
Q 2938 2591 2744 2837 
Q 2550 3084 2163 3084 
Q 1697 3084 1428 2787 
Q 1159 2491 1159 1978 
L 1159 0 
L 581 0 
L 581 4863 
L 1159 4863 
L 1159 2956 
Q 1366 3272 1645 3428 
Q 1925 3584 2291 3584 
Q 2894 3584 3203 3211 
Q 3513 2838 3513 2113 
z
" transform="scale(0.015625)"/>
       <path id="DejaVuSans-73" d="M 2834 3397 
L 2834 2853 
Q 2591 2978 2328 3040 
Q 2066 3103 1784 3103 
Q 1356 3103 1142 2972 
Q 928 2841 928 2578 
Q 928 2378 1081 2264 
Q 1234 2150 1697 2047 
L 1894 2003 
Q 2506 1872 2764 1633 
Q 3022 1394 3022 966 
Q 3022 478 2636 193 
Q 2250 -91 1575 -91 
Q 1294 -91 989 -36 
Q 684 19 347 128 
L 347 722 
Q 666 556 975 473 
Q 1284 391 1588 391 
Q 1994 391 2212 530 
Q 2431 669 2431 922 
Q 2431 1156 2273 1281 
Q 2116 1406 1581 1522 
L 1381 1569 
Q 847 1681 609 1914 
Q 372 2147 372 2553 
Q 372 3047 722 3315 
Q 1072 3584 1716 3584 
Q 2034 3584 2315 3537 
Q 2597 3491 2834 3397 
z
" transform="scale(0.015625)"/>
      </defs>
      <use xlink:href="#DejaVuSans-45"/>
      <use xlink:href="#DejaVuSans-70" x="63.183594"/>
      <use xlink:href="#DejaVuSans-6f" x="126.660156"/>
      <use xlink:href="#DejaVuSans-63" x="187.841797"/>
      <use xlink:href="#DejaVuSans-68" x="242.822266"/>
      <use xlink:href="#DejaVuSans-73" x="306.201172"/>
     </g>
    </g>
   </g>
   <g id="matplotlib.axis_2">
    <g id="ytick_1">
     <g id="line2d_11">
      <defs>
       <path id="m8b4017363a" d="M 0 0 
L -3.5 0 
" style="stroke: #000000; stroke-width: 0.8"/>
      </defs>
      <g>
       <use xlink:href="#m8b4017363a" x="57.6" y="262.456163" style="stroke: #000000; stroke-width: 0.8"/>
      </g>
     </g>
     <g id="text_12">
      <!-- 20 -->
      <g transform="translate(37.875 266.255382) scale(0.1 -0.1)">
       <use xlink:href="#DejaVuSans-32"/>
       <use xlink:href="#DejaVuSans-30" x="63.623047"/>
      </g>
     </g>
    </g>
    <g id="ytick_2">
     <g id="line2d_12">
      <g>
       <use xlink:href="#m8b4017363a" x="57.6" y="203.680653" style="stroke: #000000; stroke-width: 0.8"/>
      </g>
     </g>
     <g id="text_13">
      <!-- 40 -->
      <g transform="translate(37.875 207.479872) scale(0.1 -0.1)">
       <use xlink:href="#DejaVuSans-34"/>
       <use xlink:href="#DejaVuSans-30" x="63.623047"/>
      </g>
     </g>
    </g>
    <g id="ytick_3">
     <g id="line2d_13">
      <g>
       <use xlink:href="#m8b4017363a" x="57.6" y="144.905143" style="stroke: #000000; stroke-width: 0.8"/>
      </g>
     </g>
     <g id="text_14">
      <!-- 60 -->
      <g transform="translate(37.875 148.704362) scale(0.1 -0.1)">
       <defs>
        <path id="DejaVuSans-36" d="M 2113 2584 
Q 1688 2584 1439 2293 
Q 1191 2003 1191 1497 
Q 1191 994 1439 701 
Q 1688 409 2113 409 
Q 2538 409 2786 701 
Q 3034 994 3034 1497 
Q 3034 2003 2786 2293 
Q 2538 2584 2113 2584 
z
M 3366 4563 
L 3366 3988 
Q 3128 4100 2886 4159 
Q 2644 4219 2406 4219 
Q 1781 4219 1451 3797 
Q 1122 3375 1075 2522 
Q 1259 2794 1537 2939 
Q 1816 3084 2150 3084 
Q 2853 3084 3261 2657 
Q 3669 2231 3669 1497 
Q 3669 778 3244 343 
Q 2819 -91 2113 -91 
Q 1303 -91 875 529 
Q 447 1150 447 2328 
Q 447 3434 972 4092 
Q 1497 4750 2381 4750 
Q 2619 4750 2861 4703 
Q 3103 4656 3366 4563 
z
" transform="scale(0.015625)"/>
       </defs>
       <use xlink:href="#DejaVuSans-36"/>
       <use xlink:href="#DejaVuSans-30" x="63.623047"/>
      </g>
     </g>
    </g>
    <g id="ytick_4">
     <g id="line2d_14">
      <g>
       <use xlink:href="#m8b4017363a" x="57.6" y="86.129633" style="stroke: #000000; stroke-width: 0.8"/>
      </g>
     </g>
     <g id="text_15">
      <!-- 80 -->
      <g transform="translate(37.875 89.928851) scale(0.1 -0.1)">
       <use xlink:href="#DejaVuSans-38"/>
       <use xlink:href="#DejaVuSans-30" x="63.623047"/>
      </g>
     </g>
    </g>
    <g id="text_16">
     <!-- Accuracy -->
     <g transform="translate(31.795312 197.356125) rotate(-90) scale(0.1 -0.1)">
      <defs>
       <path id="DejaVuSans-41" d="M 2188 4044 
L 1331 1722 
L 3047 1722 
L 2188 4044 
z
M 1831 4666 
L 2547 4666 
L 4325 0 
L 3669 0 
L 3244 1197 
L 1141 1197 
L 716 0 
L 50 0 
L 1831 4666 
z
" transform="scale(0.015625)"/>
       <path id="DejaVuSans-75" d="M 544 1381 
L 544 3500 
L 1119 3500 
L 1119 1403 
Q 1119 906 1312 657 
Q 1506 409 1894 409 
Q 2359 409 2629 706 
Q 2900 1003 2900 1516 
L 2900 3500 
L 3475 3500 
L 3475 0 
L 2900 0 
L 2900 538 
Q 2691 219 2414 64 
Q 2138 -91 1772 -91 
Q 1169 -91 856 284 
Q 544 659 544 1381 
z
M 1991 3584 
L 1991 3584 
z
" transform="scale(0.015625)"/>
       <path id="DejaVuSans-72" d="M 2631 2963 
Q 2534 3019 2420 3045 
Q 2306 3072 2169 3072 
Q 1681 3072 1420 2755 
Q 1159 2438 1159 1844 
L 1159 0 
L 581 0 
L 581 3500 
L 1159 3500 
L 1159 2956 
Q 1341 3275 1631 3429 
Q 1922 3584 2338 3584 
Q 2397 3584 2469 3576 
Q 2541 3569 2628 3553 
L 2631 2963 
z
" transform="scale(0.015625)"/>
       <path id="DejaVuSans-61" d="M 2194 1759 
Q 1497 1759 1228 1600 
Q 959 1441 959 1056 
Q 959 750 1161 570 
Q 1363 391 1709 391 
Q 2188 391 2477 730 
Q 2766 1069 2766 1631 
L 2766 1759 
L 2194 1759 
z
M 3341 1997 
L 3341 0 
L 2766 0 
L 2766 531 
Q 2569 213 2275 61 
Q 1981 -91 1556 -91 
Q 1019 -91 701 211 
Q 384 513 384 1019 
Q 384 1609 779 1909 
Q 1175 2209 1959 2209 
L 2766 2209 
L 2766 2266 
Q 2766 2663 2505 2880 
Q 2244 3097 1772 3097 
Q 1472 3097 1187 3025 
Q 903 2953 641 2809 
L 641 3341 
Q 956 3463 1253 3523 
Q 1550 3584 1831 3584 
Q 2591 3584 2966 3190 
Q 3341 2797 3341 1997 
z
" transform="scale(0.015625)"/>
       <path id="DejaVuSans-79" d="M 2059 -325 
Q 1816 -950 1584 -1140 
Q 1353 -1331 966 -1331 
L 506 -1331 
L 506 -850 
L 844 -850 
Q 1081 -850 1212 -737 
Q 1344 -625 1503 -206 
L 1606 56 
L 191 3500 
L 800 3500 
L 1894 763 
L 2988 3500 
L 3597 3500 
L 2059 -325 
z
" transform="scale(0.015625)"/>
      </defs>
      <use xlink:href="#DejaVuSans-41"/>
      <use xlink:href="#DejaVuSans-63" x="66.658203"/>
      <use xlink:href="#DejaVuSans-63" x="121.638672"/>
      <use xlink:href="#DejaVuSans-75" x="176.619141"/>
      <use xlink:href="#DejaVuSans-72" x="239.998047"/>
      <use xlink:href="#DejaVuSans-61" x="281.111328"/>
      <use xlink:href="#DejaVuSans-63" x="342.390625"/>
      <use xlink:href="#DejaVuSans-79" x="397.371094"/>
     </g>
    </g>
   </g>
   <g id="line2d_15">
    <path d="M 73.832727 285.541127 
L 74.594827 236.547918 
L 75.356927 200.553796 
L 76.119027 176.452016 
L 76.881127 161.573878 
L 77.643227 152.604735 
L 79.167426 138.398694 
L 80.691626 129.021943 
L 82.215826 121.381127 
L 82.977926 119.104751 
L 85.264225 110.2608 
L 86.026325 108.379984 
L 86.788425 105.008327 
L 87.550525 103.942433 
L 88.312625 101.654302 
L 89.836825 98.351118 
L 90.598924 95.604245 
L 92.123124 93.014302 
L 92.885224 92.287249 
L 93.647324 90.667102 
L 94.409424 89.8992 
L 95.171524 89.552424 
L 95.933624 88.633469 
L 96.695723 114.388898 
L 97.457823 115.117714 
L 98.982023 112.312065 
L 99.744123 110.977861 
L 101.268323 109.516408 
L 102.030423 106.832424 
L 102.792522 105.686302 
L 103.554622 104.816424 
L 104.316722 103.7232 
L 105.078822 102.25969 
L 105.840922 102.567086 
L 106.603022 100.4688 
L 107.365122 100.179037 
L 108.127222 98.836898 
L 108.889321 98.975902 
L 109.651421 97.540016 
L 111.175621 95.559282 
L 111.937721 95.122286 
L 112.699821 94.22302 
L 113.461921 94.142792 
L 114.98612 91.293943 
L 115.74822 91.00418 
L 116.51032 90.224229 
L 117.27242 88.960555 
L 118.03452 89.101616 
L 118.79662 87.35422 
L 119.55872 87.128816 
L 120.320819 86.037649 
L 121.082919 85.165714 
L 121.845019 85.297078 
L 122.607119 83.318106 
L 123.369219 82.820571 
L 124.131319 82.914612 
L 124.893419 81.366759 
L 126.417618 79.8192 
L 128.703918 78.0048 
L 129.466018 76.490449 
L 130.228118 76.292669 
L 130.990218 75.840098 
L 131.752318 75.248229 
L 132.514417 74.033633 
L 133.276517 73.600751 
L 134.038617 72.677976 
L 134.800717 73.030629 
L 135.562817 72.866057 
L 136.324917 71.620016 
L 137.087017 72.01969 
L 137.849117 71.527739 
L 138.611216 71.915657 
L 139.373316 71.725812 
L 140.897516 71.104555 
L 141.659616 71.124245 
L 142.421716 94.414922 
L 143.183816 96.470302 
L 143.945915 97.030433 
L 144.708015 96.938449 
L 145.470115 96.482057 
L 146.232215 96.376261 
L 146.994315 95.457306 
L 147.756415 94.757878 
L 148.518515 94.587429 
L 149.280615 94.162188 
L 150.042714 94.648261 
L 150.804814 93.709616 
L 151.566914 93.143608 
L 152.329014 92.861486 
L 153.091114 92.115037 
L 153.853214 92.363657 
L 154.615314 91.881698 
L 155.377414 92.052147 
L 156.901613 90.874873 
L 157.663713 90.906024 
L 158.425813 89.806922 
L 159.187913 89.714939 
L 159.950013 89.861878 
L 160.712113 89.783412 
L 162.236312 88.594384 
L 162.998412 88.921469 
L 163.760512 88.431576 
L 164.522612 88.239673 
L 165.284712 87.646041 
L 166.046812 87.818547 
L 166.808912 87.303086 
L 167.571012 86.294204 
L 168.333111 87.032718 
L 169.095211 86.703576 
L 169.857311 86.59778 
L 170.619411 85.577143 
L 171.381511 85.571265 
L 172.143611 85.138384 
L 172.905711 85.841633 
L 173.66781 84.366367 
L 174.42991 83.972571 
L 175.19201 83.776555 
L 175.95411 84.689633 
L 176.71621 84.184163 
L 177.47831 83.404506 
L 178.24041 83.073306 
L 179.00251 81.985959 
L 180.526709 81.617731 
L 181.288809 81.731167 
L 182.813009 81.055249 
L 183.575109 81.071118 
L 184.337209 80.128653 
L 185.099309 80.061943 
L 185.861408 79.391902 
L 186.623508 79.944392 
L 187.385608 79.168555 
L 188.147708 79.417469 
L 188.909808 77.552229 
L 189.671908 77.82671 
L 190.434008 78.259592 
L 191.196108 77.464065 
L 192.720307 76.704098 
L 193.482407 76.729371 
L 194.244507 76.029943 
L 195.768707 75.228833 
L 196.530807 75.514776 
L 197.292907 74.713371 
L 198.055006 74.366596 
L 198.817106 74.30018 
L 199.579206 73.741812 
L 200.341306 72.965976 
L 201.103406 72.550433 
L 201.865506 72.625078 
L 202.627606 72.237159 
L 203.389706 71.625894 
L 204.151805 71.598269 
L 204.913905 71.218286 
L 205.676005 70.454204 
L 206.438105 70.538547 
L 207.200205 69.989878 
L 208.724405 69.347167 
L 209.486504 69.396245 
L 210.248604 68.469649 
L 211.010704 67.809306 
L 211.772804 68.414694 
L 212.534904 67.760229 
L 214.059104 67.254759 
L 214.821204 66.506547 
L 215.583303 66.067494 
L 216.345403 66.169469 
L 217.107503 65.92849 
L 217.869603 65.907037 
L 219.393803 64.948996 
L 221.680102 64.580473 
L 222.442202 64.797943 
L 223.204302 64.370939 
L 223.966402 64.108506 
L 225.490602 64.15729 
L 226.252702 63.655935 
L 227.014802 63.448163 
L 227.776901 63.802873 
L 228.539001 63.387331 
L 229.301101 63.481371 
L 230.063201 63.40702 
L 230.825301 62.478367 
L 231.587401 63.40702 
L 232.349501 63.252147 
L 233.111601 63.516637 
L 233.8737 88.874449 
L 234.6358 92.73982 
L 235.3979 91.8288 
L 236.16 92.553796 
L 236.9221 91.924898 
L 237.6842 91.989551 
L 239.208399 90.790531 
L 240.732599 89.624718 
L 241.494699 89.842188 
L 242.256799 89.883331 
L 243.018899 89.644408 
L 243.780999 89.068408 
L 244.543099 89.403429 
L 245.305198 88.402188 
L 246.067298 88.982302 
L 246.829398 88.1712 
L 247.591498 87.745959 
L 248.353598 87.998694 
L 249.115698 87.812669 
L 249.877798 87.087673 
L 250.639898 87.922286 
L 251.401997 86.903412 
L 252.164097 87.381551 
L 252.926197 87.671608 
L 253.688297 87.677486 
L 254.450397 86.272751 
L 255.974597 86.727086 
L 256.736697 86.033535 
L 257.498796 86.397943 
L 258.260896 85.336163 
L 259.022996 85.963004 
L 259.785096 86.039412 
L 260.547196 86.002384 
L 261.309296 85.461649 
L 262.071396 85.749649 
L 262.833496 84.846269 
L 263.595595 84.683755 
L 264.357695 85.302955 
L 265.881895 85.010841 
L 266.643995 85.51631 
L 267.406095 84.868016 
L 268.168195 84.69551 
L 268.930294 84.672 
L 269.692394 84.448653 
L 270.454494 84.472163 
L 271.216594 84.148898 
L 271.978694 83.990204 
L 272.740794 83.547331 
L 273.502894 83.927608 
L 274.264994 83.768914 
L 275.789193 83.627853 
L 276.551293 76.029943 
L 277.313393 74.974041 
L 278.075493 75.058384 
L 279.599693 74.245224 
L 280.361793 74.613453 
L 281.885992 73.690678 
L 282.648092 73.829976 
L 283.410192 73.667167 
L 284.172292 74.23729 
L 284.934392 73.918139 
L 287.220691 72.693551 
L 287.982791 72.777894 
L 288.744891 72.442873 
L 289.506991 72.526922 
L 290.269091 72.920718 
L 291.793291 71.612082 
L 292.555391 72.474024 
L 293.31749 71.888327 
L 294.07959 72.344718 
L 294.84169 71.473078 
L 295.60379 71.949159 
L 296.36589 71.49071 
L 297.12799 71.339657 
L 297.89009 70.989061 
L 298.65219 71.433698 
L 299.414289 71.604147 
L 300.176389 71.014629 
L 300.938489 70.622596 
L 301.700589 70.58351 
L 302.462689 70.765714 
L 303.224789 69.815608 
L 303.986889 70.056588 
L 304.748988 69.934922 
L 305.511088 69.680424 
L 306.273188 69.735086 
L 307.035288 70.060408 
L 307.797388 69.839118 
L 308.559488 69.313959 
L 309.321588 69.311902 
L 310.083688 68.794678 
L 310.845787 68.635984 
L 311.607887 69.505861 
L 313.132087 68.201045 
L 314.656287 68.512555 
L 315.418387 68.175771 
L 316.180487 67.542759 
L 316.942586 67.760229 
L 317.704686 67.172473 
L 318.466786 67.638857 
L 319.228886 67.145143 
L 319.990986 67.201861 
L 320.753086 67.006139 
L 321.515186 67.131331 
L 322.277286 66.549453 
L 323.039385 66.635853 
L 323.801485 66.271445 
L 324.563585 66.539755 
L 325.325685 65.875592 
L 326.087785 66.07151 
L 326.849885 66.136163 
L 327.611985 65.42498 
L 328.374085 65.577796 
L 329.136184 65.138939 
L 329.898284 65.338776 
L 330.660384 64.643265 
L 331.422484 65.099755 
L 332.184584 64.702041 
L 332.946684 64.443429 
L 334.470883 64.958694 
L 335.232983 64.206367 
L 335.995083 63.718531 
L 336.757183 64.190694 
L 337.519283 63.079837 
L 338.281383 63.869388 
L 339.043483 63.679347 
L 340.567682 62.354939 
L 342.091882 62.83298 
L 342.853982 62.517551 
L 343.616082 61.998367 
L 344.378182 62.176653 
L 345.902382 61.688816 
L 346.664481 61.763265 
L 347.426581 61.206857 
L 348.188681 61.447837 
L 348.950781 60.730776 
L 349.712881 61.412571 
L 350.474981 61.253878 
L 351.237081 60.178286 
L 351.999181 60.572082 
L 352.76128 60.452571 
L 354.28548 59.631673 
L 355.04758 60.252735 
L 355.80968 59.578776 
L 356.57178 59.47102 
L 357.33388 59.043918 
L 358.09598 58.77551 
L 358.858079 58.785306 
L 359.620179 59.116408 
L 360.382279 58.473796 
L 361.144379 58.15249 
L 361.906479 58.036898 
L 362.668579 58.469878 
L 363.430679 57.948735 
L 364.192778 57.629388 
L 364.954878 57.929143 
L 365.716978 57.157224 
L 366.479078 57.067102 
L 367.241178 57.306122 
L 368.003278 57.031837 
L 368.765378 56.210939 
L 369.527478 56.406857 
L 371.813777 55.905306 
L 372.575877 56.169796 
L 373.337977 55.770122 
L 374.862177 55.256816 
L 375.624277 55.260735 
L 376.386376 55.450776 
L 377.910576 54.091102 
L 378.672676 54.625959 
L 379.434776 54.435918 
L 380.196876 54.831673 
L 380.958976 54.375184 
L 383.245275 53.803102 
L 384.007375 54.212571 
L 384.769475 53.828571 
L 386.293675 54.07151 
L 387.055775 54.753306 
L 387.817875 54.261551 
L 388.579974 54.437878 
L 389.342074 53.869714 
L 390.104174 54.253714 
L 390.866274 54.314449 
L 392.390474 53.920653 
L 393.152574 54.053878 
L 393.914673 54.363429 
L 394.676773 53.738449 
L 395.438873 53.926531 
L 396.963073 53.977469 
L 397.725173 53.568 
L 398.487273 54.149878 
L 398.487273 54.149878 
" clip-path="url(#p48b9980a94)" style="fill: none; stroke: #1f77b4; stroke-width: 1.5; stroke-linecap: square"/>
   </g>
   <g id="line2d_16">
    <path d="M 73.832727 259.135347 
L 74.594827 219.314939 
L 76.119027 179.465143 
L 77.643227 154.867592 
L 78.405327 151.517388 
L 79.167426 147.079837 
L 79.929526 139.556571 
L 80.691626 136.147592 
L 81.453726 134.972082 
L 82.215826 132.562286 
L 82.977926 127.507592 
L 83.740026 126.47902 
L 84.502125 124.745143 
L 85.264225 118.044735 
L 86.026325 117.163102 
L 86.788425 112.34351 
L 87.550525 114.870857 
L 89.074725 107.494531 
L 89.836825 107.670857 
L 90.598924 105.731265 
L 91.361024 105.231673 
L 92.123124 104.908408 
L 92.885224 103.233306 
L 93.647324 101.910857 
L 94.409424 102.057796 
L 95.171524 100.500245 
L 95.933624 100.647184 
L 96.695723 126.155755 
L 97.457823 125.509224 
L 98.219923 126.596571 
L 98.982023 120.307592 
L 99.744123 118.191673 
L 100.506223 126.126367 
L 101.268323 121.189224 
L 102.030423 117.368816 
L 102.792522 117.956571 
L 103.554622 116.751673 
L 104.316722 113.225143 
L 105.078822 113.313306 
L 105.840922 111.43249 
L 106.603022 111.491265 
L 107.365122 111.285551 
L 108.127222 109.140245 
L 108.889321 108.699429 
L 109.651421 107.994122 
L 110.413521 108.699429 
L 111.175621 106.877388 
L 111.937721 105.67249 
L 112.699821 104.87902 
L 113.461921 105.584327 
L 114.22402 104.203102 
L 114.98612 105.084735 
L 115.74822 101.088 
L 116.51032 101.705143 
L 117.27242 102.528 
L 118.03452 99.471673 
L 118.79662 98.501878 
L 119.55872 98.707592 
L 120.320819 98.208 
L 121.082919 97.267592 
L 121.845019 98.237388 
L 122.607119 97.003102 
L 123.369219 96.415347 
L 124.131319 95.092898 
L 124.893419 95.122286 
L 125.655519 94.740245 
L 126.417618 95.269224 
L 127.179718 93.182694 
L 127.941818 92.506776 
L 128.703918 90.802286 
L 129.466018 91.654531 
L 130.228118 91.213714 
L 130.990218 91.008 
L 131.752318 89.861878 
L 132.514417 89.685551 
L 133.276517 89.274122 
L 134.038617 88.128 
L 134.800717 88.421878 
L 137.087017 87.569633 
L 137.849117 87.158204 
L 138.611216 87.128816 
L 139.373316 87.305143 
L 140.135416 86.923102 
L 140.897516 87.040653 
L 141.659616 86.188408 
L 142.421716 110.198204 
L 143.183816 108.728816 
L 143.945915 108.170449 
L 144.708015 110.315755 
L 145.470115 109.639837 
L 146.232215 111.021061 
L 147.756415 105.261061 
L 148.518515 108.993306 
L 149.280615 105.819429 
L 150.042714 107.994122 
L 150.804814 104.379429 
L 151.566914 105.613714 
L 152.329014 105.701878 
L 153.091114 110.051265 
L 153.853214 102.26351 
L 154.615314 105.496163 
L 155.377414 105.172898 
L 156.139513 106.965551 
L 156.901613 106.495347 
L 157.663713 108.464327 
L 158.425813 103.115755 
L 159.187913 105.525551 
L 159.950013 101.117388 
L 160.712113 103.292082 
L 161.474213 102.557388 
L 162.236312 98.208 
L 162.998412 101.205551 
L 163.760512 100.470857 
L 164.522612 103.350857 
L 165.284712 102.674939 
L 166.046812 102.79249 
L 166.808912 100.999837 
L 167.571012 101.029224 
L 168.333111 101.381878 
L 169.095211 102.410449 
L 169.857311 100.412082 
L 170.619411 99.706776 
L 171.381511 100.55902 
L 172.143611 99.471673 
L 172.905711 101.117388 
L 173.66781 100.441469 
L 174.42991 100.999837 
L 175.19201 98.384327 
L 175.95411 99.295347 
L 176.71621 96.50351 
L 177.47831 99.148408 
L 178.24041 95.328 
L 179.00251 96.356571 
L 179.764609 96.914939 
L 180.526709 97.208816 
L 181.288809 96.415347 
L 182.050909 95.357388 
L 182.813009 94.740245 
L 183.575109 95.563102 
L 184.337209 95.945143 
L 185.099309 95.092898 
L 185.861408 98.031673 
L 186.623508 94.652082 
L 187.385608 95.416163 
L 188.147708 94.79902 
L 188.909808 93.006367 
L 189.671908 93.505959 
L 191.196108 90.332082 
L 191.958207 91.125551 
L 193.482407 93.535347 
L 194.244507 92.477388 
L 195.006607 93.329633 
L 196.530807 93.770449 
L 197.292907 90.361469 
L 198.055006 91.713306 
L 198.817106 90.038204 
L 199.579206 90.185143 
L 200.341306 89.03902 
L 201.103406 89.83249 
L 201.865506 87.540245 
L 202.627606 87.452082 
L 203.389706 87.569633 
L 204.151805 88.245551 
L 204.913905 88.39249 
L 205.676005 86.717388 
L 206.438105 87.981061 
L 207.200205 87.804735 
L 207.962305 86.541061 
L 208.724405 85.953306 
L 209.486504 86.335347 
L 210.248604 85.336163 
L 211.010704 86.012082 
L 211.772804 85.042286 
L 212.534904 84.777796 
L 213.297004 83.896163 
L 214.059104 85.453714 
L 214.821204 84.07249 
L 215.583303 84.483918 
L 216.345403 84.689633 
L 217.107503 82.838204 
L 217.869603 83.073306 
L 218.631703 84.043102 
L 219.393803 83.161469 
L 220.155903 82.779429 
L 220.918003 82.661878 
L 221.680102 82.926367 
L 222.442202 81.633306 
L 223.966402 81.780245 
L 224.728502 81.927184 
L 225.490602 81.721469 
L 226.252702 82.191673 
L 227.014802 81.251265 
L 227.776901 82.10351 
L 228.539001 81.280653 
L 229.301101 82.397388 
L 230.063201 81.985959 
L 230.825301 81.398204 
L 231.587401 81.780245 
L 232.349501 81.045551 
L 233.111601 81.750857 
L 233.8737 105.231673 
L 234.6358 106.877388 
L 235.3979 109.110857 
L 236.9221 104.996571 
L 237.6842 105.525551 
L 238.4463 104.291265 
L 239.208399 108.55249 
L 239.970499 106.818612 
L 240.732599 102.851265 
L 241.494699 100.617796 
L 242.256799 104.673306 
L 243.018899 101.381878 
L 243.780999 103.909224 
L 244.543099 104.291265 
L 245.305198 102.204735 
L 246.067298 102.498612 
L 246.829398 101.293714 
L 247.591498 107.817796 
L 248.353598 102.79249 
L 249.115698 102.439837 
L 249.877798 105.907592 
L 250.639898 101.558204 
L 251.401997 102.145959 
L 252.164097 99.030857 
L 252.926197 99.089633 
L 253.688297 101.734531 
L 254.450397 101.734531 
L 255.212497 102.674939 
L 255.974597 97.825959 
L 257.498796 102.910041 
L 258.260896 100.412082 
L 259.022996 102.586776 
L 259.785096 99.971265 
L 260.547196 99.501061 
L 261.309296 101.029224 
L 262.071396 95.915755 
L 262.833496 102.351673 
L 263.595595 100.000653 
L 264.357695 100.911673 
L 265.119795 100.294531 
L 265.881895 99.001469 
L 266.643995 97.179429 
L 267.406095 99.060245 
L 268.168195 96.327184 
L 268.930294 102.26351 
L 269.692394 98.766367 
L 270.454494 98.972082 
L 271.216594 98.325551 
L 271.978694 98.47249 
L 272.740794 98.73698 
L 273.502894 97.502694 
L 274.264994 97.649633 
L 275.027093 99.794939 
L 275.789193 99.589224 
L 276.551293 100.470857 
L 277.313393 97.532082 
L 278.075493 101.293714 
L 278.837593 98.325551 
L 279.599693 97.532082 
L 280.361793 102.26351 
L 281.123892 97.796571 
L 281.885992 97.267592 
L 282.648092 98.325551 
L 283.410192 98.119837 
L 284.172292 96.092082 
L 284.934392 98.149224 
L 285.696492 98.061061 
L 286.458592 98.942694 
L 287.982791 96.709224 
L 288.744891 97.061878 
L 289.506991 97.884735 
L 290.269091 95.239837 
L 291.031191 98.707592 
L 291.793291 96.415347 
L 292.555391 98.149224 
L 293.31749 97.238204 
L 294.07959 99.530449 
L 294.84169 95.945143 
L 295.60379 96.150857 
L 296.36589 97.208816 
L 297.12799 95.768816 
L 299.414289 97.061878 
L 300.176389 94.740245 
L 300.938489 97.061878 
L 301.700589 95.004735 
L 302.462689 94.005551 
L 303.986889 95.768816 
L 304.748988 97.03249 
L 305.511088 94.769633 
L 306.273188 95.06351 
L 307.035288 93.329633 
L 307.797388 95.768816 
L 308.559488 93.300245 
L 309.321588 93.241469 
L 310.083688 96.679837 
L 310.845787 95.210449 
L 311.607887 94.328816 
L 312.369987 94.211265 
L 313.132087 93.094531 
L 313.894187 94.093714 
L 314.656287 94.505143 
L 316.180487 93.505959 
L 316.942586 94.005551 
L 317.704686 92.124735 
L 318.466786 92.301061 
L 319.228886 92.918204 
L 319.990986 93.006367 
L 320.753086 93.564735 
L 321.515186 93.476571 
L 322.277286 90.684735 
L 323.039385 93.035755 
L 323.801485 91.360653 
L 324.563585 91.948408 
L 325.325685 93.682286 
L 326.087785 92.418612 
L 326.849885 91.889633 
L 327.611985 92.212898 
L 328.374085 94.652082 
L 329.136184 91.625143 
L 329.898284 91.948408 
L 330.660384 90.449633 
L 331.422484 90.919837 
L 332.184584 91.53698 
L 332.946684 93.300245 
L 333.708784 90.772898 
L 334.470883 90.008816 
L 335.232983 89.685551 
L 335.995083 89.509224 
L 336.757183 90.302694 
L 337.519283 90.625959 
L 339.043483 89.332898 
L 339.805583 90.067592 
L 340.567682 91.507592 
L 342.091882 90.919837 
L 342.853982 89.421061 
L 343.616082 89.891265 
L 344.378182 89.30351 
L 345.140282 86.923102 
L 345.902382 89.920653 
L 346.664481 88.451265 
L 347.426581 87.422694 
L 348.188681 87.745959 
L 348.950781 88.921469 
L 349.712881 89.597388 
L 350.474981 88.862694 
L 351.237081 87.011265 
L 351.999181 87.569633 
L 352.76128 86.834939 
L 353.52338 86.570449 
L 354.28548 88.862694 
L 355.04758 87.804735 
L 355.80968 87.892898 
L 356.57178 86.452898 
L 357.33388 85.688816 
L 358.09598 86.776163 
L 358.858079 85.806367 
L 359.620179 85.51249 
L 360.382279 85.571265 
L 361.144379 84.660245 
L 361.906479 85.630041 
L 362.668579 85.424327 
L 364.192778 87.187592 
L 364.954878 85.336163 
L 365.716978 84.895347 
L 366.479078 83.102694 
L 367.241178 85.189224 
L 368.003278 85.659429 
L 368.765378 84.043102 
L 369.527478 85.277388 
L 370.289577 84.836571 
L 371.051677 83.896163 
L 371.813777 83.514122 
L 372.575877 83.690449 
L 373.337977 84.160653 
L 374.100077 84.366367 
L 374.862177 84.278204 
L 375.624277 84.013714 
L 376.386376 83.896163 
L 377.148476 83.896163 
L 377.910576 82.573714 
L 378.672676 82.691265 
L 379.434776 85.101061 
L 380.196876 82.250449 
L 380.958976 82.779429 
L 381.721076 82.250449 
L 382.483175 82.368 
L 383.245275 82.221061 
L 384.769475 82.250449 
L 385.531575 82.691265 
L 386.293675 82.426776 
L 387.055775 82.661878 
L 387.817875 83.073306 
L 388.579974 82.456163 
L 389.342074 83.572898 
L 390.104174 83.249633 
L 390.866274 83.425959 
L 391.628374 82.779429 
L 392.390474 81.662694 
L 393.152574 82.985143 
L 393.914673 83.396571 
L 394.676773 83.161469 
L 395.438873 82.750041 
L 396.200973 81.927184 
L 396.963073 82.309224 
L 397.725173 83.396571 
L 398.487273 82.368 
L 398.487273 82.368 
" clip-path="url(#p48b9980a94)" style="fill: none; stroke: #ff7f0e; stroke-width: 1.5; stroke-linecap: square"/>
   </g>
   <g id="line2d_17">
    <path d="M 73.832727 257.298024 
L 74.594827 233.382563 
L 75.356927 214.341355 
L 76.119027 199.880522 
L 76.881127 193.182171 
L 77.643227 188.540963 
L 78.405327 188.226808 
L 79.167426 186.889078 
L 79.929526 176.674188 
L 80.691626 181.700669 
L 81.453726 177.251951 
L 82.215826 178.670792 
L 82.977926 172.428245 
L 83.740026 175.893943 
L 84.502125 165.760457 
L 85.264225 164.351608 
L 86.026325 169.013094 
L 86.788425 159.781518 
L 87.550525 162.416131 
L 88.312625 159.224033 
L 89.074725 157.572147 
L 89.836825 153.599804 
L 91.361024 153.680914 
L 92.123124 154.086171 
L 92.885224 153.143706 
L 93.647324 150.975184 
L 94.409424 150.164669 
L 95.171524 150.397714 
L 95.933624 151.34018 
L 96.695723 177.393894 
L 97.457823 169.26671 
L 98.219923 173.026286 
L 98.982023 170.0064 
L 99.744123 165.557682 
L 100.506223 169.215869 
L 101.268323 169.073927 
L 102.030423 168.607837 
L 102.792522 169.621127 
L 103.554622 163.15582 
L 104.316722 159.35569 
L 105.078822 164.179396 
L 105.840922 160.207053 
L 106.603022 158.555167 
L 107.365122 150.073273 
L 108.127222 157.774922 
L 108.889321 151.086563 
L 109.651421 156.113045 
L 110.413521 158.656555 
L 111.175621 156.477747 
L 111.937721 158.18018 
L 112.699821 149.283037 
L 113.461921 152.890384 
L 114.22402 150.296327 
L 114.98612 156.285257 
L 115.74822 149.830237 
L 116.51032 150.620473 
L 117.27242 152.769012 
L 118.03452 146.415086 
L 118.79662 145.796767 
L 119.55872 149.404408 
L 120.320819 145.898155 
L 121.082919 143.151869 
L 121.845019 146.607576 
L 122.607119 147.712261 
L 124.131319 145.381518 
L 124.893419 143.597976 
L 125.655519 141.378612 
L 126.417618 145.280131 
L 127.179718 141.824424 
L 127.941818 141.2064 
L 128.703918 138.845094 
L 129.466018 140.922514 
L 130.228118 141.31778 
L 130.990218 139.108702 
L 131.752318 137.365714 
L 132.514417 140.233371 
L 133.276517 138.429845 
L 134.038617 136.027984 
L 134.800717 138.723722 
L 135.562817 137.994024 
L 136.324917 136.706841 
L 137.087017 135.156637 
L 137.849117 136.098808 
L 138.611216 134.872751 
L 139.373316 135.389682 
L 140.135416 135.298286 
L 140.897516 134.133061 
L 141.659616 134.447216 
L 142.421716 161.686433 
L 143.945915 149.505796 
L 144.708015 162.355298 
L 145.470115 158.281567 
L 146.232215 159.649567 
L 146.994315 163.844963 
L 147.756415 146.263151 
L 148.518515 154.177567 
L 149.280615 156.498024 
L 150.042714 157.541878 
L 150.804814 156.751347 
L 152.329014 150.975184 
L 153.091114 162.122253 
L 153.853214 152.758727 
L 154.615314 148.198629 
L 155.377414 150.995461 
L 156.139513 154.339494 
L 156.901613 153.995069 
L 157.663713 151.654335 
L 158.425813 148.461943 
L 159.187913 153.457861 
L 159.950013 153.052604 
L 160.712113 150.792686 
L 161.474213 147.560033 
L 162.236312 143.04049 
L 163.760512 151.451559 
L 165.284712 148.654727 
L 166.046812 149.698286 
L 166.808912 153.25538 
L 167.571012 152.100147 
L 168.333111 150.204931 
L 169.095211 149.779396 
L 169.857311 142.746612 
L 171.381511 148.370841 
L 172.143611 148.168065 
L 172.905711 145.168751 
L 173.66781 148.603886 
L 174.42991 145.006531 
L 175.19201 146.303706 
L 175.95411 146.516473 
L 176.71621 149.242482 
L 177.47831 150.245486 
L 178.24041 144.915135 
L 179.00251 140.598367 
L 179.764609 144.803755 
L 180.526709 143.851298 
L 181.288809 145.482906 
L 182.050909 141.64222 
L 182.813009 144.337665 
L 183.575109 142.18942 
L 184.337209 138.763984 
L 185.099309 143.962678 
L 185.861408 142.635233 
L 186.623508 144.185731 
L 187.385608 146.252865 
L 188.147708 147.124506 
L 188.909808 138.328457 
L 189.671908 141.226678 
L 190.434008 138.520947 
L 191.196108 135.379396 
L 191.958207 142.321078 
L 192.720307 139.48369 
L 193.482407 138.075135 
L 194.244507 139.605355 
L 195.006607 134.578873 
L 195.768707 137.244049 
L 196.530807 141.155559 
L 197.292907 137.092114 
L 198.055006 140.638922 
L 198.817106 137.720424 
L 199.579206 135.652996 
L 200.341306 137.983739 
L 201.103406 136.251037 
L 201.865506 133.514743 
L 202.627606 133.981127 
L 203.389706 137.000718 
L 204.151805 133.53502 
L 204.913905 135.784947 
L 206.438105 131.427331 
L 207.200205 135.065241 
L 207.962305 134.599151 
L 208.724405 130.819298 
L 209.486504 128.518824 
L 210.248604 129.633502 
L 211.010704 131.001796 
L 211.772804 131.650384 
L 212.534904 133.231151 
L 213.297004 129.664065 
L 214.059104 133.869453 
L 214.821204 133.220865 
L 215.583303 132.379788 
L 216.345403 133.616131 
L 217.107503 130.961241 
L 217.869603 131.579265 
L 218.631703 130.160718 
L 219.393803 129.967935 
L 220.155903 131.751478 
L 220.918003 130.940963 
L 221.680102 129.775445 
L 222.442202 127.748865 
L 223.204302 127.27249 
L 223.966402 129.329633 
L 224.728502 129.532408 
L 225.490602 127.73858 
L 227.014802 130.00849 
L 227.776901 128.083298 
L 228.539001 129.167412 
L 229.301101 129.937665 
L 230.063201 129.329633 
L 230.825301 128.964931 
L 231.587401 130.474873 
L 232.349501 128.417731 
L 233.111601 129.755167 
L 233.8737 149.657731 
L 234.6358 154.967804 
L 235.3979 150.012441 
L 236.16 156.89329 
L 236.9221 153.153992 
L 237.6842 154.420604 
L 238.4463 153.569535 
L 239.208399 158.403233 
L 239.970499 150.478824 
L 240.732599 145.685388 
L 241.494699 153.407314 
L 242.256799 151.187951 
L 243.018899 153.083167 
L 243.780999 148.796376 
L 244.543099 150.417992 
L 245.305198 148.320294 
L 246.067298 149.059984 
L 246.829398 143.172147 
L 247.591498 155.3328 
L 248.353598 146.161763 
L 249.115698 147.316996 
L 249.877798 149.161371 
L 250.639898 146.6784 
L 251.401997 149.444963 
L 252.164097 143.922122 
L 252.926197 146.84062 
L 253.688297 152.485127 
L 254.450397 150.590204 
L 255.212497 147.012833 
L 255.974597 147.195331 
L 256.736697 143.993241 
L 257.498796 149.647739 
L 258.260896 144.459331 
L 259.022996 147.225894 
L 259.785096 145.442351 
L 260.547196 141.713045 
L 261.309296 151.208229 
L 262.071396 144.580996 
L 262.833496 144.742922 
L 263.595595 140.618645 
L 264.357695 144.580996 
L 265.119795 155.88 
L 265.881895 142.624947 
L 266.643995 138.11569 
L 267.406095 148.006139 
L 268.168195 143.719641 
L 268.930294 153.25538 
L 269.692394 145.381518 
L 270.454494 154.218122 
L 271.216594 146.161763 
L 271.978694 144.57071 
L 272.740794 147.043396 
L 273.502894 146.050384 
L 274.264994 149.819951 
L 275.027093 145.371233 
L 275.789193 149.566629 
L 276.551293 148.300016 
L 277.313393 139.463412 
L 278.075493 140.051167 
L 278.837593 139.321469 
L 279.599693 148.279739 
L 280.361793 145.796767 
L 281.123892 142.706057 
L 281.885992 154.096457 
L 282.648092 152.505404 
L 284.172292 145.574008 
L 284.934392 140.071445 
L 285.696492 140.476702 
L 287.220691 146.354253 
L 287.982791 143.932408 
L 288.744891 148.675004 
L 289.506991 140.790857 
L 290.269091 145.715951 
L 291.793291 152.596506 
L 292.555391 141.459722 
L 293.31749 141.510269 
L 294.07959 152.819559 
L 294.84169 142.250253 
L 295.60379 140.608359 
L 296.36589 150.194939 
L 297.12799 142.716343 
L 297.89009 139.635624 
L 298.65219 149.232196 
L 299.414289 138.743706 
L 300.176389 143.820735 
L 300.938489 143.28382 
L 301.700589 142.38191 
L 302.462689 139.21009 
L 303.224789 141.56111 
L 303.986889 143.192424 
L 304.748988 146.100931 
L 306.273188 135.845486 
L 307.035288 140.720033 
L 307.797388 142.645224 
L 308.559488 137.071837 
L 309.321588 133.991118 
L 310.083688 141.763592 
L 310.845787 136.301584 
L 311.607887 140.973355 
L 312.369987 137.48738 
L 313.132087 140.345045 
L 313.894187 139.615347 
L 314.656287 139.899233 
L 315.418387 142.554122 
L 316.180487 136.494073 
L 316.942586 143.577698 
L 317.704686 139.098416 
L 318.466786 133.717518 
L 319.228886 133.393371 
L 319.990986 134.903314 
L 320.753086 140.121992 
L 321.515186 134.406661 
L 322.277286 135.602449 
L 323.039385 134.852473 
L 323.801485 132.126465 
L 324.563585 142.949388 
L 326.087785 136.5347 
L 327.611985 139.848422 
L 328.374085 138.500639 
L 329.136184 134.700498 
L 329.898284 138.389168 
L 330.660384 131.548915 
L 331.422484 142.787198 
L 332.184584 134.781568 
L 332.946684 137.193391 
L 333.708784 138.88572 
L 334.470883 136.565101 
L 335.232983 132.714291 
L 335.995083 133.697261 
L 337.519283 132.562286 
L 338.281383 134.011406 
L 339.043483 136.028014 
L 339.805583 136.311758 
L 340.567682 136.038148 
L 341.329782 133.210843 
L 342.091882 137.173123 
L 342.853982 135.430125 
L 344.378182 133.150041 
L 345.140282 135.632799 
L 345.902382 135.916543 
L 346.664481 135.571997 
L 347.426581 136.321892 
L 348.188681 129.886987 
L 348.950781 136.078683 
L 349.712881 139.899091 
L 350.474981 138.196628 
L 351.237081 134.092476 
L 351.999181 133.220977 
L 352.76128 131.933996 
L 353.52338 132.886564 
L 354.28548 137.010984 
L 355.04758 136.261089 
L 355.80968 138.703313 
L 356.57178 132.987901 
L 357.33388 134.589027 
L 358.09598 134.274882 
L 358.858079 130.272068 
L 359.620179 131.538781 
L 360.382279 131.396909 
L 361.144379 131.032096 
L 361.906479 133.676994 
L 362.668579 131.032096 
L 363.430679 134.29515 
L 364.192778 134.274882 
L 364.954878 133.139907 
L 365.716978 130.920625 
L 366.479078 136.362426 
L 367.241178 131.569182 
L 368.003278 132.238007 
L 369.527478 131.295572 
L 370.289577 130.160597 
L 371.051677 130.383538 
L 371.813777 129.15736 
L 372.575877 123.107536 
L 373.337977 128.133855 
L 374.100077 130.069393 
L 374.862177 128.610139 
L 376.386376 131.133433 
L 377.910576 130.140329 
L 378.672676 128.731744 
L 379.434776 131.103032 
L 380.196876 127.292757 
L 380.958976 130.160597 
L 381.721076 127.860245 
L 382.483175 127.323158 
L 383.245275 128.508802 
L 384.007375 128.468267 
L 384.769475 126.603665 
L 385.531575 125.833503 
L 386.293675 126.816473 
L 387.055775 131.731322 
L 387.817875 132.825762 
L 388.579974 128.559471 
L 389.342074 128.437866 
L 390.104174 127.758908 
L 390.866274 127.373827 
L 391.628374 131.488113 
L 392.390474 130.626747 
L 393.152574 131.518514 
L 393.914673 127.262356 
L 394.676773 126.786072 
L 395.438873 128.427733 
L 396.200973 128.914151 
L 396.963073 130.383538 
L 397.725173 130.160597 
L 398.487273 131.173968 
L 398.487273 131.173968 
" clip-path="url(#p48b9980a94)" style="fill: none; stroke: #2ca02c; stroke-width: 1.5; stroke-linecap: square"/>
   </g>
   <g id="line2d_18">
    <path d="M 73.832727 293.195755 
L 74.594827 295.488 
L 75.356927 289.728 
L 76.119027 291.990857 
L 78.405327 284.87902 
L 79.167426 284.320653 
L 79.929526 284.673306 
L 80.691626 278.47249 
L 81.453726 276.621061 
L 82.215826 277.767184 
L 82.977926 276.826776 
L 83.740026 276.973714 
L 84.502125 272.418612 
L 85.264225 273.447184 
L 86.026325 268.598204 
L 86.788425 273.35902 
L 87.550525 266.541061 
L 88.312625 266.688 
L 89.074725 266.15902 
L 89.836825 264.013714 
L 90.598924 263.954939 
L 91.361024 259.899429 
L 92.123124 258.723918 
L 92.885224 258.106776 
L 93.647324 258.459429 
L 95.171524 258.665143 
L 95.933624 258.341878 
L 96.695723 274.681469 
L 97.457823 273.741061 
L 98.219923 276.591673 
L 98.982023 273.505959 
L 99.744123 273.535347 
L 100.506223 273.976163 
L 101.268323 268.480653 
L 102.030423 268.128 
L 102.792522 272.624327 
L 103.554622 268.65698 
L 104.316722 268.010449 
L 105.078822 271.683918 
L 105.840922 269.097796 
L 106.603022 269.127184 
L 107.365122 268.745143 
L 108.127222 266.012082 
L 108.889321 268.128 
L 109.651421 261.45698 
L 110.413521 263.778612 
L 111.175621 263.367184 
L 111.937721 265.51249 
L 112.699821 261.339429 
L 113.461921 258.870857 
L 114.22402 260.545959 
L 114.98612 260.39902 
L 115.74822 256.990041 
L 116.51032 255.69698 
L 117.27242 255.491265 
L 118.03452 256.431673 
L 118.79662 254.227592 
L 119.55872 258.518204 
L 120.320819 253.786776 
L 121.845019 250.994939 
L 122.607119 249.114122 
L 123.369219 252.55249 
L 124.131319 246.028408 
L 124.893419 252.405551 
L 125.655519 245.99902 
L 126.417618 248.173714 
L 127.179718 245.528816 
L 127.941818 248.261878 
L 128.703918 250.289633 
L 129.466018 247.615347 
L 130.228118 243.530449 
L 130.990218 245.088 
L 131.752318 243.706776 
L 132.514417 243.089633 
L 133.276517 244.470857 
L 134.038617 243.971265 
L 134.800717 246.322286 
L 135.562817 242.648816 
L 136.324917 243.736163 
L 137.087017 243.765551 
L 137.849117 241.590857 
L 138.611216 242.795755 
L 139.373316 240.973714 
L 140.135416 242.678204 
L 140.897516 241.003102 
L 141.659616 242.942694 
L 142.421716 261.368816 
L 143.183816 264.395755 
L 143.945915 266.658612 
L 144.708015 265.101061 
L 145.470115 259.458612 
L 146.232215 261.985959 
L 146.994315 258.106776 
L 147.756415 263.337796 
L 148.518515 262.368 
L 149.280615 260.046367 
L 150.042714 264.454531 
L 150.804814 259.488 
L 151.566914 264.307592 
L 152.329014 261.19249 
L 153.091114 264.425143 
L 153.853214 259.840653 
L 154.615314 258.31249 
L 155.377414 265.483102 
L 156.139513 260.898612 
L 156.901613 263.484735 
L 157.663713 256.431673 
L 158.425813 262.015347 
L 159.187913 257.989224 
L 159.950013 262.926367 
L 160.712113 261.251265 
L 161.474213 256.549224 
L 162.236312 258.371265 
L 162.998412 260.722286 
L 164.522612 254.63902 
L 165.284712 257.989224 
L 166.046812 258.224327 
L 166.808912 258.018612 
L 167.571012 256.020245 
L 168.333111 260.310857 
L 169.095211 252.523102 
L 169.857311 263.690449 
L 170.619411 253.610449 
L 171.381511 253.581061 
L 172.143611 253.728 
L 172.905711 253.728 
L 173.66781 253.492898 
L 174.42991 252.670041 
L 175.19201 253.551673 
L 175.95411 254.168816 
L 176.71621 255.755755 
L 177.47831 255.256163 
L 178.24041 250.377796 
L 179.00251 248.408816 
L 179.764609 255.491265 
L 180.526709 252.317388 
L 181.288809 251.553306 
L 182.050909 252.905143 
L 182.813009 251.230041 
L 183.575109 251.494531 
L 184.337209 246.645551 
L 185.099309 247.115755 
L 185.861408 247.174531 
L 186.623508 245.176163 
L 187.385608 251.318204 
L 188.147708 246.821878 
L 188.909808 246.351673 
L 189.671908 245.146776 
L 190.434008 250.31902 
L 191.958207 244.323918 
L 192.720307 242.854531 
L 193.482407 248.438204 
L 194.244507 251.083102 
L 195.006607 241.884735 
L 195.768707 243.971265 
L 196.530807 246.557388 
L 197.292907 242.73698 
L 198.055006 245.234939 
L 198.817106 244.794122 
L 199.579206 240.914939 
L 200.341306 240.150857 
L 201.103406 246.968816 
L 201.865506 245.146776 
L 202.627606 241.150041 
L 203.389706 238.328816 
L 204.151805 245.323102 
L 204.913905 240.297796 
L 205.676005 242.237388 
L 206.438105 239.680653 
L 207.200205 241.855347 
L 207.962305 240.562286 
L 208.724405 239.680653 
L 209.486504 241.914122 
L 210.248604 242.73698 
L 211.010704 240.209633 
L 211.772804 239.328 
L 212.534904 238.181878 
L 214.059104 238.563918 
L 214.821204 238.299429 
L 215.583303 237.300245 
L 216.345403 238.064327 
L 217.107503 236.653714 
L 217.869603 236.154122 
L 218.631703 235.331265 
L 219.393803 233.714939 
L 220.155903 235.213714 
L 220.918003 235.27249 
L 221.680102 235.948408 
L 222.442202 236.418612 
L 223.204302 235.419429 
L 223.966402 235.742694 
L 224.728502 235.125551 
L 225.490602 235.331265 
L 226.252702 235.037388 
L 227.014802 235.889633 
L 227.776901 232.304327 
L 228.539001 233.83249 
L 229.301101 234.390857 
L 230.063201 233.744327 
L 230.825301 235.301878 
L 231.587401 235.096163 
L 232.349501 236.565551 
L 233.111601 235.301878 
L 233.8737 259.399837 
L 234.6358 259.723102 
L 235.3979 262.162286 
L 236.16 258.136163 
L 236.9221 262.985143 
L 237.6842 258.988408 
L 238.4463 262.485551 
L 239.208399 253.551673 
L 239.970499 261.221878 
L 240.732599 258.077388 
L 241.494699 258.841469 
L 242.256799 256.990041 
L 243.018899 254.785959 
L 243.780999 253.46351 
L 244.543099 254.25698 
L 245.305198 256.108408 
L 246.067298 259.458612 
L 246.829398 255.961469 
L 247.591498 261.574531 
L 248.353598 258.430041 
L 249.115698 259.987592 
L 249.877798 252.052898 
L 250.639898 266.394122 
L 251.401997 259.311673 
L 252.164097 253.698612 
L 252.926197 256.07902 
L 253.688297 263.161469 
L 254.450397 255.491265 
L 255.212497 254.844735 
L 255.974597 258.31249 
L 256.736697 254.844735 
L 257.498796 256.490449 
L 258.260896 253.874939 
L 259.022996 256.666776 
L 259.785096 254.697796 
L 260.547196 257.665959 
L 261.309296 257.254531 
L 262.071396 253.551673 
L 262.833496 259.781878 
L 263.595595 257.51902 
L 264.357695 256.167184 
L 265.119795 253.46351 
L 265.881895 258.753306 
L 266.643995 256.402286 
L 267.406095 254.521469 
L 268.168195 253.140245 
L 268.930294 258.635755 
L 269.692394 253.786776 
L 270.454494 254.932898 
L 271.216594 254.462694 
L 271.978694 249.731265 
L 272.740794 249.819429 
L 273.502894 250.965551 
L 274.264994 259.605551 
L 275.027093 257.225143 
L 275.789193 250.642286 
L 276.551293 253.522286 
L 277.313393 251.053714 
L 278.075493 254.991673 
L 278.837593 252.170449 
L 279.599693 254.110041 
L 280.361793 254.139429 
L 281.123892 253.669224 
L 281.885992 255.197388 
L 282.648092 255.902694 
L 283.410192 252.376163 
L 284.172292 255.843918 
L 284.934392 255.138612 
L 285.696492 256.784327 
L 286.458592 248.908408 
L 287.220691 247.409633 
L 287.982791 254.727184 
L 288.744891 250.554122 
L 289.506991 256.34351 
L 290.269091 251.964735 
L 291.031191 252.523102 
L 291.793291 251.964735 
L 292.555391 249.760653 
L 293.31749 249.701878 
L 294.07959 258.077388 
L 294.84169 250.054531 
L 295.60379 247.174531 
L 296.36589 249.848816 
L 297.12799 254.874122 
L 297.89009 248.849633 
L 298.65219 254.345143 
L 299.414289 253.698612 
L 300.176389 254.785959 
L 300.938489 247.556571 
L 301.700589 248.49698 
L 302.462689 247.145143 
L 303.224789 249.67249 
L 303.986889 249.790041 
L 304.748988 249.114122 
L 305.511088 250.260245 
L 306.273188 249.907592 
L 307.035288 247.732898 
L 307.797388 253.581061 
L 308.559488 245.969633 
L 309.321588 245.381878 
L 310.083688 249.378612 
L 310.845787 247.203918 
L 311.607887 247.762286 
L 312.369987 247.762286 
L 313.132087 244.55902 
L 313.894187 242.443102 
L 314.656287 247.674122 
L 315.418387 246.968816 
L 316.180487 243.971265 
L 316.942586 245.822694 
L 317.704686 242.149224 
L 318.466786 249.643102 
L 319.228886 247.145143 
L 319.990986 247.497796 
L 320.753086 246.028408 
L 321.515186 240.826776 
L 322.277286 251.053714 
L 323.039385 244.588408 
L 323.801485 243.148408 
L 324.563585 240.268408 
L 325.325685 242.149224 
L 326.087785 244.882286 
L 326.849885 246.557388 
L 327.611985 241.532082 
L 328.374085 246.763102 
L 329.136184 245.822694 
L 329.898284 245.234939 
L 330.660384 241.443918 
L 331.422484 244.55902 
L 332.184584 244.764735 
L 332.946684 245.088 
L 333.708784 240.826776 
L 335.232983 242.149224 
L 335.995083 241.150041 
L 336.757183 241.326367 
L 337.519283 237.388408 
L 338.281383 239.06351 
L 339.043483 236.859429 
L 339.805583 240.50351 
L 340.567682 238.563918 
L 341.329782 235.213714 
L 342.091882 238.505143 
L 342.853982 237.065143 
L 344.378182 239.504327 
L 345.140282 239.151673 
L 345.902382 235.683918 
L 346.664481 235.860245 
L 347.426581 235.184327 
L 348.950781 238.15249 
L 349.712881 236.271673 
L 350.474981 238.064327 
L 351.237081 243.324735 
L 351.999181 240.356571 
L 352.76128 242.119837 
L 353.52338 236.859429 
L 354.28548 237.711673 
L 355.04758 240.591673 
L 355.80968 240.033306 
L 356.57178 235.213714 
L 357.33388 238.534531 
L 358.09598 239.151673 
L 358.858079 237.652898 
L 359.620179 238.622694 
L 360.382279 240.062694 
L 361.144379 236.536163 
L 361.906479 240.268408 
L 362.668579 238.064327 
L 363.430679 237.182694 
L 364.192778 238.916571 
L 364.954878 239.269224 
L 365.716978 236.124735 
L 366.479078 236.918204 
L 367.241178 236.448 
L 368.003278 239.092898 
L 368.765378 236.359837 
L 369.527478 238.123102 
L 370.289577 232.216163 
L 371.051677 236.212898 
L 371.813777 234.302694 
L 372.575877 233.03902 
L 374.100077 233.626776 
L 374.862177 232.216163 
L 375.624277 230.041469 
L 376.386376 229.865143 
L 377.148476 231.716571 
L 377.910576 234.126367 
L 378.672676 233.274122 
L 379.434776 232.950857 
L 380.196876 233.509224 
L 380.958976 234.802286 
L 381.721076 235.331265 
L 382.483175 231.070041 
L 383.245275 229.718204 
L 384.007375 234.273306 
L 384.769475 231.59902 
L 385.531575 232.892082 
L 386.293675 229.541878 
L 387.055775 230.041469 
L 387.817875 232.274939 
L 388.579974 230.511673 
L 389.342074 231.363918 
L 390.104174 228.160653 
L 390.866274 230.95249 
L 391.628374 230.364735 
L 392.390474 231.892898 
L 393.152574 231.040653 
L 393.914673 232.451265 
L 394.676773 232.128 
L 395.438873 231.59902 
L 396.200973 234.714122 
L 396.963073 229.51249 
L 397.725173 234.302694 
L 398.487273 233.685551 
L 398.487273 233.685551 
" clip-path="url(#p48b9980a94)" style="fill: none; stroke: #d62728; stroke-width: 1.5; stroke-linecap: square"/>
   </g>
   <g id="line2d_19">
    <path d="M 383.245275 81.45698 
L 384.007375 82.485551 
L 384.769475 81.427592 
L 386.293675 81.45698 
L 387.055775 80.281469 
L 387.817875 81.221878 
L 388.579974 81.603918 
L 389.342074 81.486367 
L 390.104174 81.809633 
L 390.866274 81.897796 
L 391.628374 81.662694 
L 392.390474 80.134531 
L 393.152574 80.01698 
L 393.914673 80.869224 
L 394.676773 81.398204 
L 395.438873 81.163102 
L 396.200973 81.251265 
L 396.963073 81.692082 
L 397.725173 81.721469 
L 398.487273 82.309224 
L 398.487273 82.309224 
" clip-path="url(#p48b9980a94)" style="fill: none; stroke: #9467bd; stroke-width: 1.5; stroke-linecap: square"/>
   </g>
   <g id="line2d_20">
    <path d="M 383.245275 127.404228 
L 384.007375 126.786072 
L 384.769475 125.792968 
L 385.531575 126.09698 
L 386.293675 123.786494 
L 387.817875 127.414362 
L 388.579974 127.019147 
L 389.342074 128.042652 
L 390.104174 124.080372 
L 390.866274 124.688394 
L 391.628374 124.657993 
L 392.390474 123.208873 
L 393.152574 122.965664 
L 393.914673 124.161441 
L 394.676773 124.252645 
L 395.438873 123.31021 
L 396.200973 125.022806 
L 396.963073 126.259119 
L 397.725173 126.01591 
L 398.487273 126.046311 
L 398.487273 126.046311 
" clip-path="url(#p48b9980a94)" style="fill: none; stroke: #8c564b; stroke-width: 1.5; stroke-linecap: square"/>
   </g>
   <g id="line2d_21">
    <path d="M 383.245275 229.101061 
L 384.007375 227.896163 
L 384.769475 228.954122 
L 385.531575 230.247184 
L 386.293675 225.104327 
L 387.055775 230.541061 
L 387.817875 230.864327 
L 388.579974 225.339429 
L 389.342074 222.518204 
L 390.104174 223.664327 
L 390.866274 223.928816 
L 391.628374 223.164735 
L 392.390474 224.957388 
L 393.152574 224.252082 
L 393.914673 226.074122 
L 394.676773 225.045551 
L 395.438873 227.719837 
L 396.200973 229.277388 
L 396.963073 227.220245 
L 397.725173 224.39902 
L 398.487273 225.750857 
L 398.487273 225.750857 
" clip-path="url(#p48b9980a94)" style="fill: none; stroke: #e377c2; stroke-width: 1.5; stroke-linecap: square"/>
   </g>
   <g id="patch_3">
    <path d="M 57.6 307.584 
L 57.6 41.472 
" style="fill: none; stroke: #000000; stroke-width: 0.8; stroke-linejoin: miter; stroke-linecap: square"/>
   </g>
   <g id="patch_4">
    <path d="M 414.72 307.584 
L 414.72 41.472 
" style="fill: none; stroke: #000000; stroke-width: 0.8; stroke-linejoin: miter; stroke-linecap: square"/>
   </g>
   <g id="patch_5">
    <path d="M 57.6 307.584 
L 414.72 307.584 
" style="fill: none; stroke: #000000; stroke-width: 0.8; stroke-linejoin: miter; stroke-linecap: square"/>
   </g>
   <g id="patch_6">
    <path d="M 57.6 41.472 
L 414.72 41.472 
" style="fill: none; stroke: #000000; stroke-width: 0.8; stroke-linejoin: miter; stroke-linecap: square"/>
   </g>
   <g id="text_17">
    <!-- Learning Curves -->
    <g transform="translate(187.37625 35.472) scale(0.12 -0.12)">
     <defs>
      <path id="DejaVuSans-4c" d="M 628 4666 
L 1259 4666 
L 1259 531 
L 3531 531 
L 3531 0 
L 628 0 
L 628 4666 
z
" transform="scale(0.015625)"/>
      <path id="DejaVuSans-65" d="M 3597 1894 
L 3597 1613 
L 953 1613 
Q 991 1019 1311 708 
Q 1631 397 2203 397 
Q 2534 397 2845 478 
Q 3156 559 3463 722 
L 3463 178 
Q 3153 47 2828 -22 
Q 2503 -91 2169 -91 
Q 1331 -91 842 396 
Q 353 884 353 1716 
Q 353 2575 817 3079 
Q 1281 3584 2069 3584 
Q 2775 3584 3186 3129 
Q 3597 2675 3597 1894 
z
M 3022 2063 
Q 3016 2534 2758 2815 
Q 2500 3097 2075 3097 
Q 1594 3097 1305 2825 
Q 1016 2553 972 2059 
L 3022 2063 
z
" transform="scale(0.015625)"/>
      <path id="DejaVuSans-6e" d="M 3513 2113 
L 3513 0 
L 2938 0 
L 2938 2094 
Q 2938 2591 2744 2837 
Q 2550 3084 2163 3084 
Q 1697 3084 1428 2787 
Q 1159 2491 1159 1978 
L 1159 0 
L 581 0 
L 581 3500 
L 1159 3500 
L 1159 2956 
Q 1366 3272 1645 3428 
Q 1925 3584 2291 3584 
Q 2894 3584 3203 3211 
Q 3513 2838 3513 2113 
z
" transform="scale(0.015625)"/>
      <path id="DejaVuSans-69" d="M 603 3500 
L 1178 3500 
L 1178 0 
L 603 0 
L 603 3500 
z
M 603 4863 
L 1178 4863 
L 1178 4134 
L 603 4134 
L 603 4863 
z
" transform="scale(0.015625)"/>
      <path id="DejaVuSans-67" d="M 2906 1791 
Q 2906 2416 2648 2759 
Q 2391 3103 1925 3103 
Q 1463 3103 1205 2759 
Q 947 2416 947 1791 
Q 947 1169 1205 825 
Q 1463 481 1925 481 
Q 2391 481 2648 825 
Q 2906 1169 2906 1791 
z
M 3481 434 
Q 3481 -459 3084 -895 
Q 2688 -1331 1869 -1331 
Q 1566 -1331 1297 -1286 
Q 1028 -1241 775 -1147 
L 775 -588 
Q 1028 -725 1275 -790 
Q 1522 -856 1778 -856 
Q 2344 -856 2625 -561 
Q 2906 -266 2906 331 
L 2906 616 
Q 2728 306 2450 153 
Q 2172 0 1784 0 
Q 1141 0 747 490 
Q 353 981 353 1791 
Q 353 2603 747 3093 
Q 1141 3584 1784 3584 
Q 2172 3584 2450 3431 
Q 2728 3278 2906 2969 
L 2906 3500 
L 3481 3500 
L 3481 434 
z
" transform="scale(0.015625)"/>
      <path id="DejaVuSans-20" transform="scale(0.015625)"/>
      <path id="DejaVuSans-43" d="M 4122 4306 
L 4122 3641 
Q 3803 3938 3442 4084 
Q 3081 4231 2675 4231 
Q 1875 4231 1450 3742 
Q 1025 3253 1025 2328 
Q 1025 1406 1450 917 
Q 1875 428 2675 428 
Q 3081 428 3442 575 
Q 3803 722 4122 1019 
L 4122 359 
Q 3791 134 3420 21 
Q 3050 -91 2638 -91 
Q 1578 -91 968 557 
Q 359 1206 359 2328 
Q 359 3453 968 4101 
Q 1578 4750 2638 4750 
Q 3056 4750 3426 4639 
Q 3797 4528 4122 4306 
z
" transform="scale(0.015625)"/>
      <path id="DejaVuSans-76" d="M 191 3500 
L 800 3500 
L 1894 563 
L 2988 3500 
L 3597 3500 
L 2284 0 
L 1503 0 
L 191 3500 
z
" transform="scale(0.015625)"/>
     </defs>
     <use xlink:href="#DejaVuSans-4c"/>
     <use xlink:href="#DejaVuSans-65" x="53.962891"/>
     <use xlink:href="#DejaVuSans-61" x="115.486328"/>
     <use xlink:href="#DejaVuSans-72" x="176.765625"/>
     <use xlink:href="#DejaVuSans-6e" x="216.128906"/>
     <use xlink:href="#DejaVuSans-69" x="279.507812"/>
     <use xlink:href="#DejaVuSans-6e" x="307.291016"/>
     <use xlink:href="#DejaVuSans-67" x="370.669922"/>
     <use xlink:href="#DejaVuSans-20" x="434.146484"/>
     <use xlink:href="#DejaVuSans-43" x="465.933594"/>
     <use xlink:href="#DejaVuSans-75" x="535.757812"/>
     <use xlink:href="#DejaVuSans-72" x="599.136719"/>
     <use xlink:href="#DejaVuSans-76" x="640.25"/>
     <use xlink:href="#DejaVuSans-65" x="699.429688"/>
     <use xlink:href="#DejaVuSans-73" x="760.953125"/>
    </g>
   </g>
   <g id="legend_1">
    <g id="patch_7">
     <path d="M 64.6 302.584 
L 280.028125 302.584 
Q 282.028125 302.584 282.028125 300.584 
L 282.028125 198.837125 
Q 282.028125 196.837125 280.028125 196.837125 
L 64.6 196.837125 
Q 62.6 196.837125 62.6 198.837125 
L 62.6 300.584 
Q 62.6 302.584 64.6 302.584 
z
" style="fill: #ffffff; opacity: 0.8; stroke: #cccccc; stroke-linejoin: miter"/>
    </g>
    <g id="line2d_22">
     <path d="M 66.6 204.935563 
L 76.6 204.935563 
L 86.6 204.935563 
" style="fill: none; stroke: #1f77b4; stroke-width: 1.5; stroke-linecap: square"/>
    </g>
    <g id="text_18">
     <!-- Train Accuracy -->
     <g transform="translate(94.6 208.435563) scale(0.1 -0.1)">
      <defs>
       <path id="DejaVuSans-54" d="M -19 4666 
L 3928 4666 
L 3928 4134 
L 2272 4134 
L 2272 0 
L 1638 0 
L 1638 4134 
L -19 4134 
L -19 4666 
z
" transform="scale(0.015625)"/>
      </defs>
      <use xlink:href="#DejaVuSans-54"/>
      <use xlink:href="#DejaVuSans-72" x="46.333984"/>
      <use xlink:href="#DejaVuSans-61" x="87.447266"/>
      <use xlink:href="#DejaVuSans-69" x="148.726562"/>
      <use xlink:href="#DejaVuSans-6e" x="176.509766"/>
      <use xlink:href="#DejaVuSans-20" x="239.888672"/>
      <use xlink:href="#DejaVuSans-41" x="271.675781"/>
      <use xlink:href="#DejaVuSans-63" x="338.333984"/>
      <use xlink:href="#DejaVuSans-63" x="393.314453"/>
      <use xlink:href="#DejaVuSans-75" x="448.294922"/>
      <use xlink:href="#DejaVuSans-72" x="511.673828"/>
      <use xlink:href="#DejaVuSans-61" x="552.787109"/>
      <use xlink:href="#DejaVuSans-63" x="614.066406"/>
      <use xlink:href="#DejaVuSans-79" x="669.046875"/>
     </g>
    </g>
    <g id="line2d_23">
     <path d="M 66.6 219.613688 
L 76.6 219.613688 
L 86.6 219.613688 
" style="fill: none; stroke: #ff7f0e; stroke-width: 1.5; stroke-linecap: square"/>
    </g>
    <g id="text_19">
     <!-- Validation Accuracy -->
     <g transform="translate(94.6 223.113688) scale(0.1 -0.1)">
      <defs>
       <path id="DejaVuSans-56" d="M 1831 0 
L 50 4666 
L 709 4666 
L 2188 738 
L 3669 4666 
L 4325 4666 
L 2547 0 
L 1831 0 
z
" transform="scale(0.015625)"/>
       <path id="DejaVuSans-6c" d="M 603 4863 
L 1178 4863 
L 1178 0 
L 603 0 
L 603 4863 
z
" transform="scale(0.015625)"/>
       <path id="DejaVuSans-64" d="M 2906 2969 
L 2906 4863 
L 3481 4863 
L 3481 0 
L 2906 0 
L 2906 525 
Q 2725 213 2448 61 
Q 2172 -91 1784 -91 
Q 1150 -91 751 415 
Q 353 922 353 1747 
Q 353 2572 751 3078 
Q 1150 3584 1784 3584 
Q 2172 3584 2448 3432 
Q 2725 3281 2906 2969 
z
M 947 1747 
Q 947 1113 1208 752 
Q 1469 391 1925 391 
Q 2381 391 2643 752 
Q 2906 1113 2906 1747 
Q 2906 2381 2643 2742 
Q 2381 3103 1925 3103 
Q 1469 3103 1208 2742 
Q 947 2381 947 1747 
z
" transform="scale(0.015625)"/>
       <path id="DejaVuSans-74" d="M 1172 4494 
L 1172 3500 
L 2356 3500 
L 2356 3053 
L 1172 3053 
L 1172 1153 
Q 1172 725 1289 603 
Q 1406 481 1766 481 
L 2356 481 
L 2356 0 
L 1766 0 
Q 1100 0 847 248 
Q 594 497 594 1153 
L 594 3053 
L 172 3053 
L 172 3500 
L 594 3500 
L 594 4494 
L 1172 4494 
z
" transform="scale(0.015625)"/>
      </defs>
      <use xlink:href="#DejaVuSans-56"/>
      <use xlink:href="#DejaVuSans-61" x="60.658203"/>
      <use xlink:href="#DejaVuSans-6c" x="121.9375"/>
      <use xlink:href="#DejaVuSans-69" x="149.720703"/>
      <use xlink:href="#DejaVuSans-64" x="177.503906"/>
      <use xlink:href="#DejaVuSans-61" x="240.980469"/>
      <use xlink:href="#DejaVuSans-74" x="302.259766"/>
      <use xlink:href="#DejaVuSans-69" x="341.46875"/>
      <use xlink:href="#DejaVuSans-6f" x="369.251953"/>
      <use xlink:href="#DejaVuSans-6e" x="430.433594"/>
      <use xlink:href="#DejaVuSans-20" x="493.8125"/>
      <use xlink:href="#DejaVuSans-41" x="525.599609"/>
      <use xlink:href="#DejaVuSans-63" x="592.257812"/>
      <use xlink:href="#DejaVuSans-63" x="647.238281"/>
      <use xlink:href="#DejaVuSans-75" x="702.21875"/>
      <use xlink:href="#DejaVuSans-72" x="765.597656"/>
      <use xlink:href="#DejaVuSans-61" x="806.710938"/>
      <use xlink:href="#DejaVuSans-63" x="867.990234"/>
      <use xlink:href="#DejaVuSans-79" x="922.970703"/>
     </g>
    </g>
    <g id="line2d_24">
     <path d="M 66.6 234.291812 
L 76.6 234.291812 
L 86.6 234.291812 
" style="fill: none; stroke: #2ca02c; stroke-width: 1.5; stroke-linecap: square"/>
    </g>
    <g id="text_20">
     <!-- Robust Validation Accuracy -->
     <g transform="translate(94.6 237.791812) scale(0.1 -0.1)">
      <defs>
       <path id="DejaVuSans-52" d="M 2841 2188 
Q 3044 2119 3236 1894 
Q 3428 1669 3622 1275 
L 4263 0 
L 3584 0 
L 2988 1197 
Q 2756 1666 2539 1819 
Q 2322 1972 1947 1972 
L 1259 1972 
L 1259 0 
L 628 0 
L 628 4666 
L 2053 4666 
Q 2853 4666 3247 4331 
Q 3641 3997 3641 3322 
Q 3641 2881 3436 2590 
Q 3231 2300 2841 2188 
z
M 1259 4147 
L 1259 2491 
L 2053 2491 
Q 2509 2491 2742 2702 
Q 2975 2913 2975 3322 
Q 2975 3731 2742 3939 
Q 2509 4147 2053 4147 
L 1259 4147 
z
" transform="scale(0.015625)"/>
       <path id="DejaVuSans-62" d="M 3116 1747 
Q 3116 2381 2855 2742 
Q 2594 3103 2138 3103 
Q 1681 3103 1420 2742 
Q 1159 2381 1159 1747 
Q 1159 1113 1420 752 
Q 1681 391 2138 391 
Q 2594 391 2855 752 
Q 3116 1113 3116 1747 
z
M 1159 2969 
Q 1341 3281 1617 3432 
Q 1894 3584 2278 3584 
Q 2916 3584 3314 3078 
Q 3713 2572 3713 1747 
Q 3713 922 3314 415 
Q 2916 -91 2278 -91 
Q 1894 -91 1617 61 
Q 1341 213 1159 525 
L 1159 0 
L 581 0 
L 581 4863 
L 1159 4863 
L 1159 2969 
z
" transform="scale(0.015625)"/>
      </defs>
      <use xlink:href="#DejaVuSans-52"/>
      <use xlink:href="#DejaVuSans-6f" x="64.982422"/>
      <use xlink:href="#DejaVuSans-62" x="126.164062"/>
      <use xlink:href="#DejaVuSans-75" x="189.640625"/>
      <use xlink:href="#DejaVuSans-73" x="253.019531"/>
      <use xlink:href="#DejaVuSans-74" x="305.119141"/>
      <use xlink:href="#DejaVuSans-20" x="344.328125"/>
      <use xlink:href="#DejaVuSans-56" x="376.115234"/>
      <use xlink:href="#DejaVuSans-61" x="436.773438"/>
      <use xlink:href="#DejaVuSans-6c" x="498.052734"/>
      <use xlink:href="#DejaVuSans-69" x="525.835938"/>
      <use xlink:href="#DejaVuSans-64" x="553.619141"/>
      <use xlink:href="#DejaVuSans-61" x="617.095703"/>
      <use xlink:href="#DejaVuSans-74" x="678.375"/>
      <use xlink:href="#DejaVuSans-69" x="717.583984"/>
      <use xlink:href="#DejaVuSans-6f" x="745.367188"/>
      <use xlink:href="#DejaVuSans-6e" x="806.548828"/>
      <use xlink:href="#DejaVuSans-20" x="869.927734"/>
      <use xlink:href="#DejaVuSans-41" x="901.714844"/>
      <use xlink:href="#DejaVuSans-63" x="968.373047"/>
      <use xlink:href="#DejaVuSans-63" x="1023.353516"/>
      <use xlink:href="#DejaVuSans-75" x="1078.333984"/>
      <use xlink:href="#DejaVuSans-72" x="1141.712891"/>
      <use xlink:href="#DejaVuSans-61" x="1182.826172"/>
      <use xlink:href="#DejaVuSans-63" x="1244.105469"/>
      <use xlink:href="#DejaVuSans-79" x="1299.085938"/>
     </g>
    </g>
    <g id="line2d_25">
     <path d="M 66.6 248.969938 
L 76.6 248.969938 
L 86.6 248.969938 
" style="fill: none; stroke: #d62728; stroke-width: 1.5; stroke-linecap: square"/>
    </g>
    <g id="text_21">
     <!-- Adversarial Validation Accuracy -->
     <g transform="translate(94.6 252.469938) scale(0.1 -0.1)">
      <use xlink:href="#DejaVuSans-41"/>
      <use xlink:href="#DejaVuSans-64" x="66.658203"/>
      <use xlink:href="#DejaVuSans-76" x="130.134766"/>
      <use xlink:href="#DejaVuSans-65" x="189.314453"/>
      <use xlink:href="#DejaVuSans-72" x="250.837891"/>
      <use xlink:href="#DejaVuSans-73" x="291.951172"/>
      <use xlink:href="#DejaVuSans-61" x="344.050781"/>
      <use xlink:href="#DejaVuSans-72" x="405.330078"/>
      <use xlink:href="#DejaVuSans-69" x="446.443359"/>
      <use xlink:href="#DejaVuSans-61" x="474.226562"/>
      <use xlink:href="#DejaVuSans-6c" x="535.505859"/>
      <use xlink:href="#DejaVuSans-20" x="563.289062"/>
      <use xlink:href="#DejaVuSans-56" x="595.076172"/>
      <use xlink:href="#DejaVuSans-61" x="655.734375"/>
      <use xlink:href="#DejaVuSans-6c" x="717.013672"/>
      <use xlink:href="#DejaVuSans-69" x="744.796875"/>
      <use xlink:href="#DejaVuSans-64" x="772.580078"/>
      <use xlink:href="#DejaVuSans-61" x="836.056641"/>
      <use xlink:href="#DejaVuSans-74" x="897.335938"/>
      <use xlink:href="#DejaVuSans-69" x="936.544922"/>
      <use xlink:href="#DejaVuSans-6f" x="964.328125"/>
      <use xlink:href="#DejaVuSans-6e" x="1025.509766"/>
      <use xlink:href="#DejaVuSans-20" x="1088.888672"/>
      <use xlink:href="#DejaVuSans-41" x="1120.675781"/>
      <use xlink:href="#DejaVuSans-63" x="1187.333984"/>
      <use xlink:href="#DejaVuSans-63" x="1242.314453"/>
      <use xlink:href="#DejaVuSans-75" x="1297.294922"/>
      <use xlink:href="#DejaVuSans-72" x="1360.673828"/>
      <use xlink:href="#DejaVuSans-61" x="1401.787109"/>
      <use xlink:href="#DejaVuSans-63" x="1463.066406"/>
      <use xlink:href="#DejaVuSans-79" x="1518.046875"/>
     </g>
    </g>
    <g id="line2d_26">
     <path d="M 66.6 263.648063 
L 76.6 263.648063 
L 86.6 263.648063 
" style="fill: none; stroke: #9467bd; stroke-width: 1.5; stroke-linecap: square"/>
    </g>
    <g id="text_22">
     <!-- SWA Validation Accuracy -->
     <g transform="translate(94.6 267.148063) scale(0.1 -0.1)">
      <defs>
       <path id="DejaVuSans-53" d="M 3425 4513 
L 3425 3897 
Q 3066 4069 2747 4153 
Q 2428 4238 2131 4238 
Q 1616 4238 1336 4038 
Q 1056 3838 1056 3469 
Q 1056 3159 1242 3001 
Q 1428 2844 1947 2747 
L 2328 2669 
Q 3034 2534 3370 2195 
Q 3706 1856 3706 1288 
Q 3706 609 3251 259 
Q 2797 -91 1919 -91 
Q 1588 -91 1214 -16 
Q 841 59 441 206 
L 441 856 
Q 825 641 1194 531 
Q 1563 422 1919 422 
Q 2459 422 2753 634 
Q 3047 847 3047 1241 
Q 3047 1584 2836 1778 
Q 2625 1972 2144 2069 
L 1759 2144 
Q 1053 2284 737 2584 
Q 422 2884 422 3419 
Q 422 4038 858 4394 
Q 1294 4750 2059 4750 
Q 2388 4750 2728 4690 
Q 3069 4631 3425 4513 
z
" transform="scale(0.015625)"/>
       <path id="DejaVuSans-57" d="M 213 4666 
L 850 4666 
L 1831 722 
L 2809 4666 
L 3519 4666 
L 4500 722 
L 5478 4666 
L 6119 4666 
L 4947 0 
L 4153 0 
L 3169 4050 
L 2175 0 
L 1381 0 
L 213 4666 
z
" transform="scale(0.015625)"/>
      </defs>
      <use xlink:href="#DejaVuSans-53"/>
      <use xlink:href="#DejaVuSans-57" x="63.476562"/>
      <use xlink:href="#DejaVuSans-41" x="156.853516"/>
      <use xlink:href="#DejaVuSans-20" x="225.261719"/>
      <use xlink:href="#DejaVuSans-56" x="257.048828"/>
      <use xlink:href="#DejaVuSans-61" x="317.707031"/>
      <use xlink:href="#DejaVuSans-6c" x="378.986328"/>
      <use xlink:href="#DejaVuSans-69" x="406.769531"/>
      <use xlink:href="#DejaVuSans-64" x="434.552734"/>
      <use xlink:href="#DejaVuSans-61" x="498.029297"/>
      <use xlink:href="#DejaVuSans-74" x="559.308594"/>
      <use xlink:href="#DejaVuSans-69" x="598.517578"/>
      <use xlink:href="#DejaVuSans-6f" x="626.300781"/>
      <use xlink:href="#DejaVuSans-6e" x="687.482422"/>
      <use xlink:href="#DejaVuSans-20" x="750.861328"/>
      <use xlink:href="#DejaVuSans-41" x="782.648438"/>
      <use xlink:href="#DejaVuSans-63" x="849.306641"/>
      <use xlink:href="#DejaVuSans-63" x="904.287109"/>
      <use xlink:href="#DejaVuSans-75" x="959.267578"/>
      <use xlink:href="#DejaVuSans-72" x="1022.646484"/>
      <use xlink:href="#DejaVuSans-61" x="1063.759766"/>
      <use xlink:href="#DejaVuSans-63" x="1125.039062"/>
      <use xlink:href="#DejaVuSans-79" x="1180.019531"/>
     </g>
    </g>
    <g id="line2d_27">
     <path d="M 66.6 278.326188 
L 76.6 278.326188 
L 86.6 278.326188 
" style="fill: none; stroke: #8c564b; stroke-width: 1.5; stroke-linecap: square"/>
    </g>
    <g id="text_23">
     <!-- SWA Robust Validation Accuracy -->
     <g transform="translate(94.6 281.826188) scale(0.1 -0.1)">
      <use xlink:href="#DejaVuSans-53"/>
      <use xlink:href="#DejaVuSans-57" x="63.476562"/>
      <use xlink:href="#DejaVuSans-41" x="156.853516"/>
      <use xlink:href="#DejaVuSans-20" x="225.261719"/>
      <use xlink:href="#DejaVuSans-52" x="257.048828"/>
      <use xlink:href="#DejaVuSans-6f" x="322.03125"/>
      <use xlink:href="#DejaVuSans-62" x="383.212891"/>
      <use xlink:href="#DejaVuSans-75" x="446.689453"/>
      <use xlink:href="#DejaVuSans-73" x="510.068359"/>
      <use xlink:href="#DejaVuSans-74" x="562.167969"/>
      <use xlink:href="#DejaVuSans-20" x="601.376953"/>
      <use xlink:href="#DejaVuSans-56" x="633.164062"/>
      <use xlink:href="#DejaVuSans-61" x="693.822266"/>
      <use xlink:href="#DejaVuSans-6c" x="755.101562"/>
      <use xlink:href="#DejaVuSans-69" x="782.884766"/>
      <use xlink:href="#DejaVuSans-64" x="810.667969"/>
      <use xlink:href="#DejaVuSans-61" x="874.144531"/>
      <use xlink:href="#DejaVuSans-74" x="935.423828"/>
      <use xlink:href="#DejaVuSans-69" x="974.632812"/>
      <use xlink:href="#DejaVuSans-6f" x="1002.416016"/>
      <use xlink:href="#DejaVuSans-6e" x="1063.597656"/>
      <use xlink:href="#DejaVuSans-20" x="1126.976562"/>
      <use xlink:href="#DejaVuSans-41" x="1158.763672"/>
      <use xlink:href="#DejaVuSans-63" x="1225.421875"/>
      <use xlink:href="#DejaVuSans-63" x="1280.402344"/>
      <use xlink:href="#DejaVuSans-75" x="1335.382812"/>
      <use xlink:href="#DejaVuSans-72" x="1398.761719"/>
      <use xlink:href="#DejaVuSans-61" x="1439.875"/>
      <use xlink:href="#DejaVuSans-63" x="1501.154297"/>
      <use xlink:href="#DejaVuSans-79" x="1556.134766"/>
     </g>
    </g>
    <g id="line2d_28">
     <path d="M 66.6 293.004312 
L 76.6 293.004312 
L 86.6 293.004312 
" style="fill: none; stroke: #e377c2; stroke-width: 1.5; stroke-linecap: square"/>
    </g>
    <g id="text_24">
     <!-- SWA Adversarial Validation Accuracy -->
     <g transform="translate(94.6 296.504312) scale(0.1 -0.1)">
      <use xlink:href="#DejaVuSans-53"/>
      <use xlink:href="#DejaVuSans-57" x="63.476562"/>
      <use xlink:href="#DejaVuSans-41" x="156.853516"/>
      <use xlink:href="#DejaVuSans-20" x="225.261719"/>
      <use xlink:href="#DejaVuSans-41" x="257.048828"/>
      <use xlink:href="#DejaVuSans-64" x="323.707031"/>
      <use xlink:href="#DejaVuSans-76" x="387.183594"/>
      <use xlink:href="#DejaVuSans-65" x="446.363281"/>
      <use xlink:href="#DejaVuSans-72" x="507.886719"/>
      <use xlink:href="#DejaVuSans-73" x="549"/>
      <use xlink:href="#DejaVuSans-61" x="601.099609"/>
      <use xlink:href="#DejaVuSans-72" x="662.378906"/>
      <use xlink:href="#DejaVuSans-69" x="703.492188"/>
      <use xlink:href="#DejaVuSans-61" x="731.275391"/>
      <use xlink:href="#DejaVuSans-6c" x="792.554688"/>
      <use xlink:href="#DejaVuSans-20" x="820.337891"/>
      <use xlink:href="#DejaVuSans-56" x="852.125"/>
      <use xlink:href="#DejaVuSans-61" x="912.783203"/>
      <use xlink:href="#DejaVuSans-6c" x="974.0625"/>
      <use xlink:href="#DejaVuSans-69" x="1001.845703"/>
      <use xlink:href="#DejaVuSans-64" x="1029.628906"/>
      <use xlink:href="#DejaVuSans-61" x="1093.105469"/>
      <use xlink:href="#DejaVuSans-74" x="1154.384766"/>
      <use xlink:href="#DejaVuSans-69" x="1193.59375"/>
      <use xlink:href="#DejaVuSans-6f" x="1221.376953"/>
      <use xlink:href="#DejaVuSans-6e" x="1282.558594"/>
      <use xlink:href="#DejaVuSans-20" x="1345.9375"/>
      <use xlink:href="#DejaVuSans-41" x="1377.724609"/>
      <use xlink:href="#DejaVuSans-63" x="1444.382812"/>
      <use xlink:href="#DejaVuSans-63" x="1499.363281"/>
      <use xlink:href="#DejaVuSans-75" x="1554.34375"/>
      <use xlink:href="#DejaVuSans-72" x="1617.722656"/>
      <use xlink:href="#DejaVuSans-61" x="1658.835938"/>
      <use xlink:href="#DejaVuSans-63" x="1720.115234"/>
      <use xlink:href="#DejaVuSans-79" x="1775.095703"/>
     </g>
    </g>
   </g>
  </g>
 </g>
 <defs>
  <clipPath id="p48b9980a94">
   <rect x="57.6" y="41.472" width="357.12" height="266.112"/>
  </clipPath>
 </defs>
</svg>
