<?xml version="1.0" encoding="utf-8" standalone="no"?>
<!DOCTYPE svg PUBLIC "-//W3C//DTD SVG 1.1//EN"
  "http://www.w3.org/Graphics/SVG/1.1/DTD/svg11.dtd">
<svg height="345.6pt" version="1.1" viewBox="0 0 460.8 345.6" width="460.8pt" xmlns="http://www.w3.org/2000/svg" xmlns:xlink="http://www.w3.org/1999/xlink">
 <metadata>
  <rdf:RDF xmlns:cc="http://creativecommons.org/ns#" xmlns:dc="http://purl.org/dc/elements/1.1/" xmlns:rdf="http://www.w3.org/1999/02/22-rdf-syntax-ns#">
   <cc:Work>
    <dc:type rdf:resource="http://purl.org/dc/dcmitype/StillImage"/>
    <dc:date>2024-03-13T18:00:02.252947</dc:date>
    <dc:format>image/svg+xml</dc:format>
    <dc:creator>
     <cc:Agent>
      <dc:title>Matplotlib v3.4.3, https://matplotlib.org/</dc:title>
     </cc:Agent>
    </dc:creator>
   </cc:Work>
  </rdf:RDF>
 </metadata>
 <defs>
  <style type="text/css">*{stroke-linecap:butt;stroke-linejoin:round;}</style>
 </defs>
 <g id="figure_1">
  <g id="patch_1">
   <path d="M 0 345.6 
L 460.8 345.6 
L 460.8 0 
L 0 0 
z
" style="fill:#ffffff;"/>
  </g>
  <g id="axes_1">
   <g id="patch_2">
    <path d="M 57.6 307.584 
L 414.72 307.584 
L 414.72 41.472 
L 57.6 41.472 
z
" style="fill:#ffffff;"/>
   </g>
   <g id="matplotlib.axis_1">
    <g id="xtick_1">
     <g id="line2d_1">
      <defs>
       <path d="M 0 0 
L 0 3.5 
" id="mdeb31c7e04" style="stroke:#000000;stroke-width:0.8;"/>
      </defs>
      <g>
       <use style="stroke:#000000;stroke-width:0.8;" x="73.832727" xlink:href="#mdeb31c7e04" y="307.584"/>
      </g>
     </g>
     <g id="text_1">
      <!-- 1 -->
      <g transform="translate(70.651477 322.182437)scale(0.1 -0.1)">
       <defs>
        <path d="M 794 531 
L 1825 531 
L 1825 4091 
L 703 3866 
L 703 4441 
L 1819 4666 
L 2450 4666 
L 2450 531 
L 3481 531 
L 3481 0 
L 794 0 
L 794 531 
z
" id="DejaVuSans-31" transform="scale(0.015625)"/>
       </defs>
       <use xlink:href="#DejaVuSans-31"/>
      </g>
     </g>
    </g>
    <g id="xtick_2">
     <g id="line2d_2">
      <g>
       <use style="stroke:#000000;stroke-width:0.8;" x="109.423199" xlink:href="#mdeb31c7e04" y="307.584"/>
      </g>
     </g>
     <g id="text_2">
      <!-- 42 -->
      <g transform="translate(103.060699 322.182437)scale(0.1 -0.1)">
       <defs>
        <path d="M 2419 4116 
L 825 1625 
L 2419 1625 
L 2419 4116 
z
M 2253 4666 
L 3047 4666 
L 3047 1625 
L 3713 1625 
L 3713 1100 
L 3047 1100 
L 3047 0 
L 2419 0 
L 2419 1100 
L 313 1100 
L 313 1709 
L 2253 4666 
z
" id="DejaVuSans-34" transform="scale(0.015625)"/>
        <path d="M 1228 531 
L 3431 531 
L 3431 0 
L 469 0 
L 469 531 
Q 828 903 1448 1529 
Q 2069 2156 2228 2338 
Q 2531 2678 2651 2914 
Q 2772 3150 2772 3378 
Q 2772 3750 2511 3984 
Q 2250 4219 1831 4219 
Q 1534 4219 1204 4116 
Q 875 4013 500 3803 
L 500 4441 
Q 881 4594 1212 4672 
Q 1544 4750 1819 4750 
Q 2544 4750 2975 4387 
Q 3406 4025 3406 3419 
Q 3406 3131 3298 2873 
Q 3191 2616 2906 2266 
Q 2828 2175 2409 1742 
Q 1991 1309 1228 531 
z
" id="DejaVuSans-32" transform="scale(0.015625)"/>
       </defs>
       <use xlink:href="#DejaVuSans-34"/>
       <use x="63.623047" xlink:href="#DejaVuSans-32"/>
      </g>
     </g>
    </g>
    <g id="xtick_3">
     <g id="line2d_3">
      <g>
       <use style="stroke:#000000;stroke-width:0.8;" x="145.881731" xlink:href="#mdeb31c7e04" y="307.584"/>
      </g>
     </g>
     <g id="text_3">
      <!-- 84 -->
      <g transform="translate(139.519231 322.182437)scale(0.1 -0.1)">
       <defs>
        <path d="M 2034 2216 
Q 1584 2216 1326 1975 
Q 1069 1734 1069 1313 
Q 1069 891 1326 650 
Q 1584 409 2034 409 
Q 2484 409 2743 651 
Q 3003 894 3003 1313 
Q 3003 1734 2745 1975 
Q 2488 2216 2034 2216 
z
M 1403 2484 
Q 997 2584 770 2862 
Q 544 3141 544 3541 
Q 544 4100 942 4425 
Q 1341 4750 2034 4750 
Q 2731 4750 3128 4425 
Q 3525 4100 3525 3541 
Q 3525 3141 3298 2862 
Q 3072 2584 2669 2484 
Q 3125 2378 3379 2068 
Q 3634 1759 3634 1313 
Q 3634 634 3220 271 
Q 2806 -91 2034 -91 
Q 1263 -91 848 271 
Q 434 634 434 1313 
Q 434 1759 690 2068 
Q 947 2378 1403 2484 
z
M 1172 3481 
Q 1172 3119 1398 2916 
Q 1625 2713 2034 2713 
Q 2441 2713 2670 2916 
Q 2900 3119 2900 3481 
Q 2900 3844 2670 4047 
Q 2441 4250 2034 4250 
Q 1625 4250 1398 4047 
Q 1172 3844 1172 3481 
z
" id="DejaVuSans-38" transform="scale(0.015625)"/>
       </defs>
       <use xlink:href="#DejaVuSans-38"/>
       <use x="63.623047" xlink:href="#DejaVuSans-34"/>
      </g>
     </g>
    </g>
    <g id="xtick_4">
     <g id="line2d_4">
      <g>
       <use style="stroke:#000000;stroke-width:0.8;" x="181.472202" xlink:href="#mdeb31c7e04" y="307.584"/>
      </g>
     </g>
     <g id="text_4">
      <!-- 125 -->
      <g transform="translate(171.928452 322.182437)scale(0.1 -0.1)">
       <defs>
        <path d="M 691 4666 
L 3169 4666 
L 3169 4134 
L 1269 4134 
L 1269 2991 
Q 1406 3038 1543 3061 
Q 1681 3084 1819 3084 
Q 2600 3084 3056 2656 
Q 3513 2228 3513 1497 
Q 3513 744 3044 326 
Q 2575 -91 1722 -91 
Q 1428 -91 1123 -41 
Q 819 9 494 109 
L 494 744 
Q 775 591 1075 516 
Q 1375 441 1709 441 
Q 2250 441 2565 725 
Q 2881 1009 2881 1497 
Q 2881 1984 2565 2268 
Q 2250 2553 1709 2553 
Q 1456 2553 1204 2497 
Q 953 2441 691 2322 
L 691 4666 
z
" id="DejaVuSans-35" transform="scale(0.015625)"/>
       </defs>
       <use xlink:href="#DejaVuSans-31"/>
       <use x="63.623047" xlink:href="#DejaVuSans-32"/>
       <use x="127.246094" xlink:href="#DejaVuSans-35"/>
      </g>
     </g>
    </g>
    <g id="xtick_5">
     <g id="line2d_5">
      <g>
       <use style="stroke:#000000;stroke-width:0.8;" x="217.930734" xlink:href="#mdeb31c7e04" y="307.584"/>
      </g>
     </g>
     <g id="text_5">
      <!-- 167 -->
      <g transform="translate(208.386984 322.182437)scale(0.1 -0.1)">
       <defs>
        <path d="M 2113 2584 
Q 1688 2584 1439 2293 
Q 1191 2003 1191 1497 
Q 1191 994 1439 701 
Q 1688 409 2113 409 
Q 2538 409 2786 701 
Q 3034 994 3034 1497 
Q 3034 2003 2786 2293 
Q 2538 2584 2113 2584 
z
M 3366 4563 
L 3366 3988 
Q 3128 4100 2886 4159 
Q 2644 4219 2406 4219 
Q 1781 4219 1451 3797 
Q 1122 3375 1075 2522 
Q 1259 2794 1537 2939 
Q 1816 3084 2150 3084 
Q 2853 3084 3261 2657 
Q 3669 2231 3669 1497 
Q 3669 778 3244 343 
Q 2819 -91 2113 -91 
Q 1303 -91 875 529 
Q 447 1150 447 2328 
Q 447 3434 972 4092 
Q 1497 4750 2381 4750 
Q 2619 4750 2861 4703 
Q 3103 4656 3366 4563 
z
" id="DejaVuSans-36" transform="scale(0.015625)"/>
        <path d="M 525 4666 
L 3525 4666 
L 3525 4397 
L 1831 0 
L 1172 0 
L 2766 4134 
L 525 4134 
L 525 4666 
z
" id="DejaVuSans-37" transform="scale(0.015625)"/>
       </defs>
       <use xlink:href="#DejaVuSans-31"/>
       <use x="63.623047" xlink:href="#DejaVuSans-36"/>
       <use x="127.246094" xlink:href="#DejaVuSans-37"/>
      </g>
     </g>
    </g>
    <g id="xtick_6">
     <g id="line2d_6">
      <g>
       <use style="stroke:#000000;stroke-width:0.8;" x="253.521206" xlink:href="#mdeb31c7e04" y="307.584"/>
      </g>
     </g>
     <g id="text_6">
      <!-- 208 -->
      <g transform="translate(243.977456 322.182437)scale(0.1 -0.1)">
       <defs>
        <path d="M 2034 4250 
Q 1547 4250 1301 3770 
Q 1056 3291 1056 2328 
Q 1056 1369 1301 889 
Q 1547 409 2034 409 
Q 2525 409 2770 889 
Q 3016 1369 3016 2328 
Q 3016 3291 2770 3770 
Q 2525 4250 2034 4250 
z
M 2034 4750 
Q 2819 4750 3233 4129 
Q 3647 3509 3647 2328 
Q 3647 1150 3233 529 
Q 2819 -91 2034 -91 
Q 1250 -91 836 529 
Q 422 1150 422 2328 
Q 422 3509 836 4129 
Q 1250 4750 2034 4750 
z
" id="DejaVuSans-30" transform="scale(0.015625)"/>
       </defs>
       <use xlink:href="#DejaVuSans-32"/>
       <use x="63.623047" xlink:href="#DejaVuSans-30"/>
       <use x="127.246094" xlink:href="#DejaVuSans-38"/>
      </g>
     </g>
    </g>
    <g id="xtick_7">
     <g id="line2d_7">
      <g>
       <use style="stroke:#000000;stroke-width:0.8;" x="289.979737" xlink:href="#mdeb31c7e04" y="307.584"/>
      </g>
     </g>
     <g id="text_7">
      <!-- 250 -->
      <g transform="translate(280.435987 322.182437)scale(0.1 -0.1)">
       <use xlink:href="#DejaVuSans-32"/>
       <use x="63.623047" xlink:href="#DejaVuSans-35"/>
       <use x="127.246094" xlink:href="#DejaVuSans-30"/>
      </g>
     </g>
    </g>
    <g id="xtick_8">
     <g id="line2d_8">
      <g>
       <use style="stroke:#000000;stroke-width:0.8;" x="325.570209" xlink:href="#mdeb31c7e04" y="307.584"/>
      </g>
     </g>
     <g id="text_8">
      <!-- 291 -->
      <g transform="translate(316.026459 322.182437)scale(0.1 -0.1)">
       <defs>
        <path d="M 703 97 
L 703 672 
Q 941 559 1184 500 
Q 1428 441 1663 441 
Q 2288 441 2617 861 
Q 2947 1281 2994 2138 
Q 2813 1869 2534 1725 
Q 2256 1581 1919 1581 
Q 1219 1581 811 2004 
Q 403 2428 403 3163 
Q 403 3881 828 4315 
Q 1253 4750 1959 4750 
Q 2769 4750 3195 4129 
Q 3622 3509 3622 2328 
Q 3622 1225 3098 567 
Q 2575 -91 1691 -91 
Q 1453 -91 1209 -44 
Q 966 3 703 97 
z
M 1959 2075 
Q 2384 2075 2632 2365 
Q 2881 2656 2881 3163 
Q 2881 3666 2632 3958 
Q 2384 4250 1959 4250 
Q 1534 4250 1286 3958 
Q 1038 3666 1038 3163 
Q 1038 2656 1286 2365 
Q 1534 2075 1959 2075 
z
" id="DejaVuSans-39" transform="scale(0.015625)"/>
       </defs>
       <use xlink:href="#DejaVuSans-32"/>
       <use x="63.623047" xlink:href="#DejaVuSans-39"/>
       <use x="127.246094" xlink:href="#DejaVuSans-31"/>
      </g>
     </g>
    </g>
    <g id="xtick_9">
     <g id="line2d_9">
      <g>
       <use style="stroke:#000000;stroke-width:0.8;" x="362.028741" xlink:href="#mdeb31c7e04" y="307.584"/>
      </g>
     </g>
     <g id="text_9">
      <!-- 333 -->
      <g transform="translate(352.484991 322.182437)scale(0.1 -0.1)">
       <defs>
        <path d="M 2597 2516 
Q 3050 2419 3304 2112 
Q 3559 1806 3559 1356 
Q 3559 666 3084 287 
Q 2609 -91 1734 -91 
Q 1441 -91 1130 -33 
Q 819 25 488 141 
L 488 750 
Q 750 597 1062 519 
Q 1375 441 1716 441 
Q 2309 441 2620 675 
Q 2931 909 2931 1356 
Q 2931 1769 2642 2001 
Q 2353 2234 1838 2234 
L 1294 2234 
L 1294 2753 
L 1863 2753 
Q 2328 2753 2575 2939 
Q 2822 3125 2822 3475 
Q 2822 3834 2567 4026 
Q 2313 4219 1838 4219 
Q 1578 4219 1281 4162 
Q 984 4106 628 3988 
L 628 4550 
Q 988 4650 1302 4700 
Q 1616 4750 1894 4750 
Q 2613 4750 3031 4423 
Q 3450 4097 3450 3541 
Q 3450 3153 3228 2886 
Q 3006 2619 2597 2516 
z
" id="DejaVuSans-33" transform="scale(0.015625)"/>
       </defs>
       <use xlink:href="#DejaVuSans-33"/>
       <use x="63.623047" xlink:href="#DejaVuSans-33"/>
       <use x="127.246094" xlink:href="#DejaVuSans-33"/>
      </g>
     </g>
    </g>
    <g id="xtick_10">
     <g id="line2d_10">
      <g>
       <use style="stroke:#000000;stroke-width:0.8;" x="398.487273" xlink:href="#mdeb31c7e04" y="307.584"/>
      </g>
     </g>
     <g id="text_10">
      <!-- 375 -->
      <g transform="translate(388.943523 322.182437)scale(0.1 -0.1)">
       <use xlink:href="#DejaVuSans-33"/>
       <use x="63.623047" xlink:href="#DejaVuSans-37"/>
       <use x="127.246094" xlink:href="#DejaVuSans-35"/>
      </g>
     </g>
    </g>
    <g id="text_11">
     <!-- Epochs -->
     <g transform="translate(218.244375 335.860562)scale(0.1 -0.1)">
      <defs>
       <path d="M 628 4666 
L 3578 4666 
L 3578 4134 
L 1259 4134 
L 1259 2753 
L 3481 2753 
L 3481 2222 
L 1259 2222 
L 1259 531 
L 3634 531 
L 3634 0 
L 628 0 
L 628 4666 
z
" id="DejaVuSans-45" transform="scale(0.015625)"/>
       <path d="M 1159 525 
L 1159 -1331 
L 581 -1331 
L 581 3500 
L 1159 3500 
L 1159 2969 
Q 1341 3281 1617 3432 
Q 1894 3584 2278 3584 
Q 2916 3584 3314 3078 
Q 3713 2572 3713 1747 
Q 3713 922 3314 415 
Q 2916 -91 2278 -91 
Q 1894 -91 1617 61 
Q 1341 213 1159 525 
z
M 3116 1747 
Q 3116 2381 2855 2742 
Q 2594 3103 2138 3103 
Q 1681 3103 1420 2742 
Q 1159 2381 1159 1747 
Q 1159 1113 1420 752 
Q 1681 391 2138 391 
Q 2594 391 2855 752 
Q 3116 1113 3116 1747 
z
" id="DejaVuSans-70" transform="scale(0.015625)"/>
       <path d="M 1959 3097 
Q 1497 3097 1228 2736 
Q 959 2375 959 1747 
Q 959 1119 1226 758 
Q 1494 397 1959 397 
Q 2419 397 2687 759 
Q 2956 1122 2956 1747 
Q 2956 2369 2687 2733 
Q 2419 3097 1959 3097 
z
M 1959 3584 
Q 2709 3584 3137 3096 
Q 3566 2609 3566 1747 
Q 3566 888 3137 398 
Q 2709 -91 1959 -91 
Q 1206 -91 779 398 
Q 353 888 353 1747 
Q 353 2609 779 3096 
Q 1206 3584 1959 3584 
z
" id="DejaVuSans-6f" transform="scale(0.015625)"/>
       <path d="M 3122 3366 
L 3122 2828 
Q 2878 2963 2633 3030 
Q 2388 3097 2138 3097 
Q 1578 3097 1268 2742 
Q 959 2388 959 1747 
Q 959 1106 1268 751 
Q 1578 397 2138 397 
Q 2388 397 2633 464 
Q 2878 531 3122 666 
L 3122 134 
Q 2881 22 2623 -34 
Q 2366 -91 2075 -91 
Q 1284 -91 818 406 
Q 353 903 353 1747 
Q 353 2603 823 3093 
Q 1294 3584 2113 3584 
Q 2378 3584 2631 3529 
Q 2884 3475 3122 3366 
z
" id="DejaVuSans-63" transform="scale(0.015625)"/>
       <path d="M 3513 2113 
L 3513 0 
L 2938 0 
L 2938 2094 
Q 2938 2591 2744 2837 
Q 2550 3084 2163 3084 
Q 1697 3084 1428 2787 
Q 1159 2491 1159 1978 
L 1159 0 
L 581 0 
L 581 4863 
L 1159 4863 
L 1159 2956 
Q 1366 3272 1645 3428 
Q 1925 3584 2291 3584 
Q 2894 3584 3203 3211 
Q 3513 2838 3513 2113 
z
" id="DejaVuSans-68" transform="scale(0.015625)"/>
       <path d="M 2834 3397 
L 2834 2853 
Q 2591 2978 2328 3040 
Q 2066 3103 1784 3103 
Q 1356 3103 1142 2972 
Q 928 2841 928 2578 
Q 928 2378 1081 2264 
Q 1234 2150 1697 2047 
L 1894 2003 
Q 2506 1872 2764 1633 
Q 3022 1394 3022 966 
Q 3022 478 2636 193 
Q 2250 -91 1575 -91 
Q 1294 -91 989 -36 
Q 684 19 347 128 
L 347 722 
Q 666 556 975 473 
Q 1284 391 1588 391 
Q 1994 391 2212 530 
Q 2431 669 2431 922 
Q 2431 1156 2273 1281 
Q 2116 1406 1581 1522 
L 1381 1569 
Q 847 1681 609 1914 
Q 372 2147 372 2553 
Q 372 3047 722 3315 
Q 1072 3584 1716 3584 
Q 2034 3584 2315 3537 
Q 2597 3491 2834 3397 
z
" id="DejaVuSans-73" transform="scale(0.015625)"/>
      </defs>
      <use xlink:href="#DejaVuSans-45"/>
      <use x="63.183594" xlink:href="#DejaVuSans-70"/>
      <use x="126.660156" xlink:href="#DejaVuSans-6f"/>
      <use x="187.841797" xlink:href="#DejaVuSans-63"/>
      <use x="242.822266" xlink:href="#DejaVuSans-68"/>
      <use x="306.201172" xlink:href="#DejaVuSans-73"/>
     </g>
    </g>
   </g>
   <g id="matplotlib.axis_2">
    <g id="ytick_1">
     <g id="line2d_11">
      <defs>
       <path d="M 0 0 
L -3.5 0 
" id="mba5096c91b" style="stroke:#000000;stroke-width:0.8;"/>
      </defs>
      <g>
       <use style="stroke:#000000;stroke-width:0.8;" x="57.6" xlink:href="#mba5096c91b" y="276.936208"/>
      </g>
     </g>
     <g id="text_12">
      <!-- 10 -->
      <g transform="translate(37.875 280.735427)scale(0.1 -0.1)">
       <use xlink:href="#DejaVuSans-31"/>
       <use x="63.623047" xlink:href="#DejaVuSans-30"/>
      </g>
     </g>
    </g>
    <g id="ytick_2">
     <g id="line2d_12">
      <g>
       <use style="stroke:#000000;stroke-width:0.8;" x="57.6" xlink:href="#mba5096c91b" y="244.750587"/>
      </g>
     </g>
     <g id="text_13">
      <!-- 20 -->
      <g transform="translate(37.875 248.549806)scale(0.1 -0.1)">
       <use xlink:href="#DejaVuSans-32"/>
       <use x="63.623047" xlink:href="#DejaVuSans-30"/>
      </g>
     </g>
    </g>
    <g id="ytick_3">
     <g id="line2d_13">
      <g>
       <use style="stroke:#000000;stroke-width:0.8;" x="57.6" xlink:href="#mba5096c91b" y="212.564967"/>
      </g>
     </g>
     <g id="text_14">
      <!-- 30 -->
      <g transform="translate(37.875 216.364185)scale(0.1 -0.1)">
       <use xlink:href="#DejaVuSans-33"/>
       <use x="63.623047" xlink:href="#DejaVuSans-30"/>
      </g>
     </g>
    </g>
    <g id="ytick_4">
     <g id="line2d_14">
      <g>
       <use style="stroke:#000000;stroke-width:0.8;" x="57.6" xlink:href="#mba5096c91b" y="180.379346"/>
      </g>
     </g>
     <g id="text_15">
      <!-- 40 -->
      <g transform="translate(37.875 184.178565)scale(0.1 -0.1)">
       <use xlink:href="#DejaVuSans-34"/>
       <use x="63.623047" xlink:href="#DejaVuSans-30"/>
      </g>
     </g>
    </g>
    <g id="ytick_5">
     <g id="line2d_15">
      <g>
       <use style="stroke:#000000;stroke-width:0.8;" x="57.6" xlink:href="#mba5096c91b" y="148.193725"/>
      </g>
     </g>
     <g id="text_16">
      <!-- 50 -->
      <g transform="translate(37.875 151.992944)scale(0.1 -0.1)">
       <use xlink:href="#DejaVuSans-35"/>
       <use x="63.623047" xlink:href="#DejaVuSans-30"/>
      </g>
     </g>
    </g>
    <g id="ytick_6">
     <g id="line2d_16">
      <g>
       <use style="stroke:#000000;stroke-width:0.8;" x="57.6" xlink:href="#mba5096c91b" y="116.008104"/>
      </g>
     </g>
     <g id="text_17">
      <!-- 60 -->
      <g transform="translate(37.875 119.807323)scale(0.1 -0.1)">
       <use xlink:href="#DejaVuSans-36"/>
       <use x="63.623047" xlink:href="#DejaVuSans-30"/>
      </g>
     </g>
    </g>
    <g id="ytick_7">
     <g id="line2d_17">
      <g>
       <use style="stroke:#000000;stroke-width:0.8;" x="57.6" xlink:href="#mba5096c91b" y="83.822484"/>
      </g>
     </g>
     <g id="text_18">
      <!-- 70 -->
      <g transform="translate(37.875 87.621702)scale(0.1 -0.1)">
       <use xlink:href="#DejaVuSans-37"/>
       <use x="63.623047" xlink:href="#DejaVuSans-30"/>
      </g>
     </g>
    </g>
    <g id="ytick_8">
     <g id="line2d_18">
      <g>
       <use style="stroke:#000000;stroke-width:0.8;" x="57.6" xlink:href="#mba5096c91b" y="51.636863"/>
      </g>
     </g>
     <g id="text_19">
      <!-- 80 -->
      <g transform="translate(37.875 55.436082)scale(0.1 -0.1)">
       <use xlink:href="#DejaVuSans-38"/>
       <use x="63.623047" xlink:href="#DejaVuSans-30"/>
      </g>
     </g>
    </g>
    <g id="text_20">
     <!-- Accuracy -->
     <g transform="translate(31.795312 197.356125)rotate(-90)scale(0.1 -0.1)">
      <defs>
       <path d="M 2188 4044 
L 1331 1722 
L 3047 1722 
L 2188 4044 
z
M 1831 4666 
L 2547 4666 
L 4325 0 
L 3669 0 
L 3244 1197 
L 1141 1197 
L 716 0 
L 50 0 
L 1831 4666 
z
" id="DejaVuSans-41" transform="scale(0.015625)"/>
       <path d="M 544 1381 
L 544 3500 
L 1119 3500 
L 1119 1403 
Q 1119 906 1312 657 
Q 1506 409 1894 409 
Q 2359 409 2629 706 
Q 2900 1003 2900 1516 
L 2900 3500 
L 3475 3500 
L 3475 0 
L 2900 0 
L 2900 538 
Q 2691 219 2414 64 
Q 2138 -91 1772 -91 
Q 1169 -91 856 284 
Q 544 659 544 1381 
z
M 1991 3584 
L 1991 3584 
z
" id="DejaVuSans-75" transform="scale(0.015625)"/>
       <path d="M 2631 2963 
Q 2534 3019 2420 3045 
Q 2306 3072 2169 3072 
Q 1681 3072 1420 2755 
Q 1159 2438 1159 1844 
L 1159 0 
L 581 0 
L 581 3500 
L 1159 3500 
L 1159 2956 
Q 1341 3275 1631 3429 
Q 1922 3584 2338 3584 
Q 2397 3584 2469 3576 
Q 2541 3569 2628 3553 
L 2631 2963 
z
" id="DejaVuSans-72" transform="scale(0.015625)"/>
       <path d="M 2194 1759 
Q 1497 1759 1228 1600 
Q 959 1441 959 1056 
Q 959 750 1161 570 
Q 1363 391 1709 391 
Q 2188 391 2477 730 
Q 2766 1069 2766 1631 
L 2766 1759 
L 2194 1759 
z
M 3341 1997 
L 3341 0 
L 2766 0 
L 2766 531 
Q 2569 213 2275 61 
Q 1981 -91 1556 -91 
Q 1019 -91 701 211 
Q 384 513 384 1019 
Q 384 1609 779 1909 
Q 1175 2209 1959 2209 
L 2766 2209 
L 2766 2266 
Q 2766 2663 2505 2880 
Q 2244 3097 1772 3097 
Q 1472 3097 1187 3025 
Q 903 2953 641 2809 
L 641 3341 
Q 956 3463 1253 3523 
Q 1550 3584 1831 3584 
Q 2591 3584 2966 3190 
Q 3341 2797 3341 1997 
z
" id="DejaVuSans-61" transform="scale(0.015625)"/>
       <path d="M 2059 -325 
Q 1816 -950 1584 -1140 
Q 1353 -1331 966 -1331 
L 506 -1331 
L 506 -850 
L 844 -850 
Q 1081 -850 1212 -737 
Q 1344 -625 1503 -206 
L 1606 56 
L 191 3500 
L 800 3500 
L 1894 763 
L 2988 3500 
L 3597 3500 
L 2059 -325 
z
" id="DejaVuSans-79" transform="scale(0.015625)"/>
      </defs>
      <use xlink:href="#DejaVuSans-41"/>
      <use x="66.658203" xlink:href="#DejaVuSans-63"/>
      <use x="121.638672" xlink:href="#DejaVuSans-63"/>
      <use x="176.619141" xlink:href="#DejaVuSans-75"/>
      <use x="239.998047" xlink:href="#DejaVuSans-72"/>
      <use x="281.111328" xlink:href="#DejaVuSans-61"/>
      <use x="342.390625" xlink:href="#DejaVuSans-63"/>
      <use x="397.371094" xlink:href="#DejaVuSans-79"/>
     </g>
    </g>
   </g>
   <g id="line2d_19">
    <path clip-path="url(#p86022fc201)" d="M 73.832727 295.488 
L 74.700788 285.677823 
L 75.568848 280.869291 
L 76.436908 273.447287 
L 78.173029 261.242499 
L 79.041089 258.255674 
L 79.909149 252.494448 
L 80.77721 250.65343 
L 81.64527 239.665259 
L 82.51333 236.968104 
L 83.38139 232.468555 
L 84.249451 230.917208 
L 85.985571 224.563766 
L 86.853632 223.874994 
L 87.721692 214.077691 
L 88.589752 218.499995 
L 89.457812 205.748052 
L 90.325873 210.440716 
L 92.061993 201.866466 
L 92.930053 205.702992 
L 93.798114 205.451944 
L 94.666174 198.068563 
L 95.534234 227.383226 
L 96.402295 221.364515 
L 97.270355 213.182931 
L 98.138415 211.071554 
L 99.006475 212.841763 
L 99.874536 208.541764 
L 100.742596 205.754489 
L 101.610656 202.1497 
L 102.478717 203.224699 
L 103.346777 199.143563 
L 104.214837 197.888324 
L 105.082897 193.948804 
L 105.950958 191.470511 
L 107.687078 185.129943 
L 108.555139 184.969015 
L 109.423199 179.059735 
L 110.291259 188.168266 
L 111.159319 184.679345 
L 112.02738 179.690574 
L 112.89544 178.750753 
L 113.7635 176.549257 
L 114.631561 181.473657 
L 115.499621 170.96827 
L 116.367681 173.549557 
L 117.235741 177.984736 
L 118.103802 168.329049 
L 118.971862 173.58818 
L 119.839922 168.451355 
L 120.707982 167.060936 
L 121.576043 172.918719 
L 122.444103 149.99612 
L 123.312163 170.195815 
L 124.180224 171.798659 
L 125.048284 151.148365 
L 125.916344 160.520818 
L 126.784404 154.212436 
L 127.652465 158.319321 
L 128.520525 150.569024 
L 129.388585 152.204053 
L 130.256646 151.901509 
L 131.124706 152.113934 
L 131.992766 153.298365 
L 132.860826 151.978754 
L 133.728887 145.638187 
L 134.596947 147.916929 
L 135.465007 153.716778 
L 136.333068 145.49657 
L 137.201128 144.003157 
L 138.069188 151.399413 
L 138.937248 181.428597 
L 139.805309 175.899107 
L 140.673369 179.857939 
L 141.541429 171.393121 
L 142.40949 165.207044 
L 143.27755 170.511235 
L 144.14561 170.569169 
L 145.01367 169.642223 
L 145.881731 170.16363 
L 146.749791 162.548512 
L 147.617851 163.076356 
L 148.485912 166.076056 
L 149.353972 158.20989 
L 150.222032 162.941177 
L 151.090092 164.930248 
L 151.958153 157.945968 
L 152.826213 170.363181 
L 153.694273 154.502107 
L 154.562333 161.100159 
L 155.430394 157.231447 
L 156.298454 159.992974 
L 157.166514 157.508244 
L 158.034575 156.458992 
L 158.902635 159.143273 
L 159.770695 158.834291 
L 160.638755 157.218573 
L 161.506816 156.864531 
L 162.374876 156.066328 
L 163.242936 157.501807 
L 164.110997 146.172468 
L 164.979057 150.93594 
L 165.847117 148.522018 
L 166.715177 154.135191 
L 167.583238 149.757946 
L 168.451298 148.753755 
L 169.319358 149.204354 
L 170.187419 142.097769 
L 171.055479 155.184442 
L 171.923539 138.22262 
L 172.791599 132.866932 
L 173.65966 157.398813 
L 174.52772 144.775612 
L 175.39578 145.438636 
L 176.263841 134.418279 
L 177.131901 149.333096 
L 177.999961 140.501362 
L 178.868021 141.112889 
L 179.736082 137.244177 
L 180.604142 136.317231 
L 181.472202 139.761092 
L 182.340263 145.142528 
L 183.208323 141.479805 
L 184.076383 135.3581 
L 184.944443 143.10196 
L 185.812504 135.73789 
L 186.680564 134.965435 
L 187.548624 136.111243 
L 188.416684 127.536994 
L 189.284745 132.306903 
L 190.152805 130.034598 
L 191.020865 133.903309 
L 191.888926 128.045526 
L 192.756986 121.048373 
L 193.625046 118.769631 
L 194.493106 119.986247 
L 195.361167 133.555705 
L 196.229227 131.656753 
L 197.097287 121.544031 
L 197.965348 130.382203 
L 198.833408 121.672774 
L 199.701468 130.337143 
L 200.569528 113.13071 
L 201.437589 121.685648 
L 202.305649 117.205409 
L 203.173709 126.365437 
L 204.04177 116.368583 
L 204.90983 120.668582 
L 205.77789 114.96529 
L 206.64595 118.724571 
L 207.514011 119.207355 
L 208.382071 124.067384 
L 209.250131 115.52532 
L 210.118192 115.383703 
L 210.986252 113.928913 
L 211.854312 117.411397 
L 212.722372 109.416489 
L 213.590433 115.312895 
L 214.458493 109.764094 
L 215.326553 119.760948 
L 216.194614 108.186998 
L 217.062674 108.232058 
L 217.930734 108.708406 
L 218.798794 108.302867 
L 219.666855 106.603466 
L 220.534915 106.120682 
L 221.402975 108.148376 
L 222.271035 108.650471 
L 223.139096 107.955262 
L 224.007156 110.188944 
L 224.875216 98.228767 
L 225.743277 145.914983 
L 226.611337 148.348216 
L 227.479397 156.71004 
L 228.347457 148.290282 
L 229.215518 143.134145 
L 230.083578 147.234594 
L 230.951638 146.114534 
L 231.819699 146.648815 
L 232.687759 144.485942 
L 233.555819 141.878906 
L 234.423879 145.914983 
L 235.29194 140.932649 
L 236.16 138.698967 
L 237.02806 139.716033 
L 237.896121 135.615584 
L 238.764181 144.370073 
L 239.632241 141.260942 
L 240.500301 144.988037 
L 241.368362 141.357499 
L 242.236422 137.154057 
L 243.104482 137.61753 
L 243.972543 139.316931 
L 244.840603 134.952561 
L 245.708663 136.233548 
L 246.576723 133.060046 
L 247.444784 140.340434 
L 248.312844 138.866332 
L 249.180904 134.810944 
L 250.048965 136.555405 
L 250.917025 133.240286 
L 251.785085 130.993729 
L 252.653145 135.679956 
L 253.521206 130.124718 
L 254.389266 136.915884 
L 255.257326 140.578607 
L 256.125386 126.243132 
L 256.993447 143.488187 
L 257.861507 138.383548 
L 258.729567 127.820227 
L 259.597628 129.770676 
L 260.465688 129.82861 
L 261.333748 134.66289 
L 262.201808 137.295674 
L 263.069869 129.822173 
L 263.937929 135.325914 
L 264.805989 132.22322 
L 265.67405 133.188789 
L 266.54211 136.458848 
L 267.41017 125.856904 
L 268.27823 128.058401 
L 269.146291 131.502262 
L 270.014351 132.886244 
L 270.882411 133.375465 
L 271.750472 138.04238 
L 272.618532 135.634896 
L 273.486592 126.120826 
L 274.354652 129.429508 
L 275.222713 122.876516 
L 276.090773 119.97981 
L 276.958833 144.389385 
L 277.826894 127.762293 
L 278.694954 128.19358 
L 279.563014 122.033253 
L 280.431074 124.331306 
L 281.299135 125.515737 
L 282.167195 125.831156 
L 283.035255 138.473668 
L 283.903316 121.724271 
L 284.771376 120.765139 
L 285.639436 124.865587 
L 286.507496 122.174869 
L 287.375557 125.747473 
L 288.243617 123.951516 
L 289.111677 121.898073 
L 289.979737 126.410497 
L 290.847798 121.692085 
L 291.715858 129.139838 
L 292.583918 134.643579 
L 293.451979 127.588491 
L 294.320039 125.947024 
L 295.188099 129.513191 
L 296.056159 126.648671 
L 296.92422 127.305257 
L 297.79228 122.612594 
L 298.66034 120.082804 
L 299.528401 118.216038 
L 300.396461 118.85975 
L 301.264521 130.665436 
L 302.132581 126.661545 
L 303.000642 119.522774 
L 303.868702 121.383103 
L 304.736762 122.361546 
L 305.604823 116.992984 
L 306.472883 112.390441 
L 307.340943 117.771876 
L 308.209003 116.239841 
L 309.945124 120.018433 
L 310.813184 110.781159 
L 311.681245 125.135946 
L 312.549305 117.997176 
L 313.417365 115.422326 
L 314.285425 119.690139 
L 315.153486 118.756756 
L 316.021546 124.492234 
L 316.889606 103.417089 
L 317.757667 105.393287 
L 318.625727 116.877116 
L 319.493787 117.301966 
L 320.361847 104.080113 
L 321.229908 114.688494 
L 322.097968 113.343135 
L 322.966028 107.034753 
L 323.834088 111.20601 
L 324.702149 108.444483 
L 325.570209 114.636997 
L 326.438269 114.579063 
L 327.30633 106.05631 
L 328.17439 116.445829 
L 329.04245 120.456157 
L 329.91051 104.318287 
L 330.778571 107.401669 
L 331.646631 109.216938 
L 332.514691 102.5867 
L 334.250812 110.787597 
L 335.986932 101.724126 
L 336.854993 105.663646 
L 337.723053 113.851668 
L 338.591113 102.348527 
L 339.459174 112.287447 
L 340.327234 101.376521 
L 341.195294 93.619786 
L 342.063354 103.726071 
L 342.931415 109.474423 
L 343.799475 98.769486 
L 344.667535 104.78176 
L 345.535596 98.820983 
L 346.403656 101.859305 
L 347.271716 91.41829 
L 348.139776 97.533558 
L 349.875897 107.163496 
L 350.743957 91.225176 
L 351.612018 97.179516 
L 352.480078 92.892391 
L 353.348138 99.477569 
L 354.216198 89.982811 
L 355.084259 96.310504 
L 355.952319 103.996431 
L 356.820379 97.881163 
L 357.688439 96.053019 
L 358.5565 97.379067 
L 359.42456 109.564543 
L 360.29262 87.871435 
L 361.160681 92.641344 
L 362.028741 98.801671 
L 362.896801 100.391641 
L 363.764861 109.577417 
L 364.632922 93.587601 
L 365.500982 101.955862 
L 366.369042 98.499127 
L 367.237103 83.622933 
L 368.105163 83.71949 
L 368.973223 92.119937 
L 369.841283 97.810354 
L 370.709344 88.450776 
L 371.577404 88.540896 
L 372.445464 90.536404 
L 373.313525 91.411853 
L 374.181585 91.456913 
L 375.049645 83.738801 
L 375.917705 93.317242 
L 376.785766 85.869489 
L 378.521886 100.900174 
L 379.389947 93.426673 
L 380.258007 80.011706 
L 382.862188 94.75272 
L 383.730248 85.006914 
L 384.598308 87.14404 
L 385.466368 100.822928 
L 386.334429 78.428173 
L 387.202489 83.558561 
L 388.070549 86.429519 
L 388.93861 88.173979 
L 389.80667 88.766195 
L 390.67473 84.1894 
L 391.54279 78.447485 
L 392.410851 89.834757 
L 393.278911 89.203919 
L 394.146971 98.370384 
L 395.015032 84.060657 
L 395.883092 86.423082 
L 396.751152 84.350328 
L 397.619212 89.693141 
L 398.487273 88.302722 
L 398.487273 88.302722 
" style="fill:none;stroke:#1f77b4;stroke-linecap:square;stroke-width:1.5;"/>
   </g>
   <g id="line2d_20">
    <path clip-path="url(#p86022fc201)" d="M 73.832727 285.915996 
L 74.700788 273.975131 
L 75.568848 266.025283 
L 76.436908 251.992352 
L 77.304968 244.139061 
L 78.173029 231.329184 
L 79.041089 225.117359 
L 79.909149 215.558229 
L 81.64527 208.767063 
L 82.51333 200.270059 
L 83.38139 201.557484 
L 84.249451 187.782039 
L 85.117511 176.581443 
L 85.985571 170.884588 
L 86.853632 170.015576 
L 87.721692 164.801505 
L 88.589752 162.033542 
L 89.457812 146.841929 
L 90.325873 151.605401 
L 91.193933 147.904054 
L 92.061993 141.241631 
L 92.930053 142.818726 
L 94.666174 141.080703 
L 95.534234 187.33144 
L 96.402295 177.836682 
L 97.270355 162.966925 
L 98.138415 171.817971 
L 99.006475 154.469921 
L 99.874536 159.587435 
L 100.742596 145.747618 
L 101.610656 143.172768 
L 102.478717 152.377856 
L 103.346777 139.181751 
L 104.214837 135.802261 
L 105.082897 134.289537 
L 105.950958 134.740136 
L 106.819018 124.794779 
L 107.687078 129.976664 
L 108.555139 132.454957 
L 109.423199 119.097924 
L 110.291259 117.488643 
L 111.159319 116.136847 
L 112.02738 116.619631 
L 113.7635 111.695231 
L 114.631561 113.272327 
L 115.499621 110.858405 
L 116.367681 107.575472 
L 117.235741 107.478915 
L 118.103802 105.193736 
L 118.971862 103.520083 
L 119.839922 101.009605 
L 120.707982 100.623378 
L 121.576043 98.853168 
L 122.444103 100.977419 
L 123.312163 96.34269 
L 124.180224 98.338198 
L 125.048284 93.800026 
L 125.916344 95.924277 
L 126.784404 91.128619 
L 127.652465 90.581464 
L 128.520525 88.360656 
L 130.256646 85.624878 
L 131.124706 88.296285 
L 131.992766 85.109908 
L 132.860826 85.399579 
L 133.728887 85.17428 
L 134.596947 84.208711 
L 135.465007 84.176525 
L 136.333068 84.369639 
L 137.201128 84.94898 
L 138.069188 84.94898 
L 138.937248 117.713942 
L 139.805309 114.398823 
L 140.673369 110.536549 
L 141.541429 118.61514 
L 142.40949 124.601665 
L 143.27755 108.283555 
L 144.14561 106.963945 
L 145.01367 106.770831 
L 145.881731 101.009605 
L 146.749791 101.685503 
L 147.617851 102.812 
L 148.485912 104.87188 
L 149.353972 101.234904 
L 150.222032 102.554515 
L 151.090092 104.421281 
L 151.958153 100.076222 
L 152.826213 95.02308 
L 153.694273 95.119636 
L 154.562333 92.383859 
L 155.430394 103.777568 
L 156.298454 96.246133 
L 157.166514 91.643589 
L 158.034575 89.100925 
L 158.902635 97.791043 
L 159.770695 89.519338 
L 160.638755 89.58371 
L 161.506816 91.096434 
L 162.374876 97.340444 
L 163.242936 88.907812 
L 164.110997 90.420536 
L 164.979057 87.362902 
L 165.847117 84.884609 
L 166.715177 86.815746 
L 167.583238 88.32847 
L 168.451298 85.142094 
L 169.319358 92.705715 
L 170.187419 82.760358 
L 171.055479 82.020089 
L 171.923539 78.350928 
L 172.791599 85.077723 
L 173.65966 81.666047 
L 174.52772 83.62937 
L 175.39578 80.185508 
L 176.263841 84.112154 
L 177.131901 79.541796 
L 177.999961 81.666047 
L 178.868021 84.112154 
L 179.736082 82.502873 
L 180.604142 78.157814 
L 181.472202 74.392097 
L 182.340263 78.769341 
L 183.208323 75.132366 
L 184.076383 76.162306 
L 184.944443 76.419791 
L 185.812504 74.29554 
L 186.680564 73.78057 
L 187.548624 71.881618 
L 188.416684 73.490899 
L 189.284745 74.520839 
L 190.152805 73.619642 
L 191.020865 75.454222 
L 191.888926 71.656319 
L 192.756986 72.332217 
L 193.625046 70.529822 
L 194.493106 72.943744 
L 195.361167 68.952727 
L 196.229227 70.17578 
L 197.097287 68.984912 
L 197.965348 68.180272 
L 198.833408 68.823984 
L 199.701468 68.180272 
L 200.569528 65.927278 
L 201.437589 70.207966 
L 202.305649 67.633116 
L 203.173709 67.472188 
L 204.04177 66.056021 
L 204.90983 65.219195 
L 205.77789 65.76635 
L 206.64595 66.50662 
L 207.514011 63.642099 
L 208.382071 64.832967 
L 209.250131 64.639854 
L 210.118192 64.317997 
L 210.986252 63.352429 
L 211.854312 63.706471 
L 212.722372 62.483417 
L 213.590433 63.062758 
L 214.458493 61.904076 
L 215.326553 64.317997 
L 216.194614 62.419046 
L 217.062674 62.837459 
L 217.930734 62.09719 
L 218.798794 62.644345 
L 219.666855 62.805273 
L 220.534915 63.352429 
L 221.402975 61.936261 
L 222.271035 63.448986 
L 223.139096 61.807519 
L 224.007156 61.87189 
L 224.875216 62.38686 
L 225.743277 95.570235 
L 226.611337 96.181762 
L 227.479397 88.650327 
L 228.347457 91.707961 
L 229.215518 86.815746 
L 230.083578 83.243142 
L 230.951638 86.526076 
L 231.819699 83.1144 
L 232.687759 86.815746 
L 233.555819 83.886855 
L 234.423879 79.316497 
L 235.29194 85.97892 
L 236.16 76.902575 
L 237.02806 84.14434 
L 237.896121 83.371885 
L 238.764181 83.017843 
L 239.632241 82.08446 
L 240.500301 86.236405 
L 241.368362 85.68925 
L 242.236422 80.185508 
L 243.104482 80.056766 
L 243.972543 83.050029 
L 244.840603 80.893592 
L 245.708663 81.56949 
L 246.576723 77.964701 
L 247.444784 78.608413 
L 248.312844 77.803772 
L 249.180904 80.893592 
L 250.048965 76.966946 
L 250.917025 83.1144 
L 251.785085 77.868144 
L 252.653145 77.578473 
L 253.521206 77.932515 
L 254.389266 78.833712 
L 255.257326 76.580719 
L 256.125386 80.76485 
L 256.993447 78.865898 
L 257.861507 81.183263 
L 258.729567 73.008115 
L 259.597628 74.456468 
L 260.465688 81.215448 
L 261.333748 77.127874 
L 262.201808 71.913804 
L 263.069869 73.458714 
L 264.805989 78.576227 
L 265.67405 76.194491 
L 267.41017 77.546287 
L 268.27823 74.778324 
L 269.146291 75.132366 
L 270.014351 77.514102 
L 270.882411 76.966946 
L 271.750472 71.334463 
L 272.618532 78.157814 
L 273.486592 73.812755 
L 274.354652 75.969192 
L 275.222713 73.844941 
L 276.090773 72.975929 
L 276.958833 71.913804 
L 277.826894 71.752876 
L 278.694954 72.23566 
L 279.563014 73.748384 
L 280.431074 76.033563 
L 281.299135 70.40108 
L 283.035255 73.490899 
L 283.903316 70.626379 
L 284.771376 72.782816 
L 286.507496 69.14584 
L 288.243617 72.139103 
L 289.111677 69.757367 
L 289.979737 67.922787 
L 290.847798 72.139103 
L 291.715858 73.136857 
L 292.583918 72.75063 
L 293.451979 72.847187 
L 294.320039 69.564254 
L 295.188099 72.589702 
L 296.056159 71.656319 
L 296.92422 69.628625 
L 297.79228 69.435511 
L 298.66034 71.591948 
L 299.528401 67.600931 
L 300.396461 70.465451 
L 301.264521 72.396588 
L 302.132581 72.911558 
L 303.000642 70.304523 
L 303.868702 66.989404 
L 304.736762 65.99165 
L 305.604823 66.345691 
L 306.472883 68.663056 
L 307.340943 67.472188 
L 308.209003 67.729673 
L 309.077064 67.729673 
L 309.945124 67.600931 
L 310.813184 68.791799 
L 311.681245 67.536559 
L 312.549305 68.437757 
L 313.417365 63.899584 
L 314.285425 65.959464 
L 315.153486 65.99165 
L 316.021546 67.82623 
L 317.757667 66.345691 
L 318.625727 68.244643 
L 319.493787 67.150332 
L 320.361847 64.124884 
L 321.229908 63.835213 
L 322.097968 65.090452 
L 322.966028 65.380123 
L 323.834088 64.317997 
L 324.702149 62.38686 
L 325.570209 65.862907 
L 326.438269 65.637608 
L 327.30633 65.026081 
L 328.17439 64.929524 
L 329.04245 63.609914 
L 329.91051 63.674285 
L 330.778571 63.223686 
L 331.646631 64.060512 
L 332.514691 63.127129 
L 333.382752 64.800782 
L 334.250812 63.996141 
L 335.118872 61.87189 
L 335.986932 62.09719 
L 336.854993 61.550034 
L 337.723053 58.267101 
L 338.591113 61.646591 
L 339.459174 60.520094 
L 340.327234 62.032818 
L 341.195294 58.910813 
L 342.063354 60.906322 
L 342.931415 61.807519 
L 343.799475 59.329226 
L 344.667535 60.809765 
L 345.535596 59.908567 
L 346.403656 60.616651 
L 347.271716 61.131621 
L 348.139776 58.653328 
L 349.007837 60.55228 
L 349.875897 60.84195 
L 350.743957 57.784316 
L 351.612018 58.685514 
L 352.480078 60.166052 
L 353.348138 60.133867 
L 354.216198 61.228178 
L 355.084259 58.910813 
L 355.952319 59.844196 
L 356.820379 58.685514 
L 357.688439 58.717699 
L 358.5565 59.200484 
L 359.42456 57.559017 
L 360.29262 59.264855 
L 361.160681 58.428029 
L 362.028741 59.329226 
L 362.896801 57.880873 
L 363.764861 56.94749 
L 364.632922 58.814256 
L 365.500982 57.784316 
L 366.369042 58.556771 
L 367.237103 56.303778 
L 368.105163 56.110664 
L 368.973223 58.106173 
L 369.841283 56.239407 
L 370.709344 55.177281 
L 371.577404 57.140604 
L 372.445464 54.565754 
L 373.313525 57.076233 
L 374.181585 54.726682 
L 375.049645 56.43252 
L 375.917705 55.080724 
L 376.785766 55.563508 
L 377.653826 55.306024 
L 378.521886 55.724437 
L 379.389947 55.273838 
L 380.258007 54.404826 
L 382.862188 54.437012 
L 383.730248 55.11291 
L 384.598308 53.568 
L 385.466368 56.722191 
L 386.334429 56.175035 
L 387.202489 54.919796 
L 388.070549 55.080724 
L 388.93861 55.595694 
L 389.80667 55.177281 
L 390.67473 54.243898 
L 391.54279 55.692251 
L 392.410851 56.496891 
L 393.278911 54.694497 
L 394.146971 54.855425 
L 395.015032 54.630125 
L 395.883092 55.241652 
L 396.751152 54.243898 
L 397.619212 54.565754 
L 398.487273 55.241652 
L 398.487273 55.241652 
" style="fill:none;stroke:#ff7f0e;stroke-linecap:square;stroke-width:1.5;"/>
   </g>
   <g id="line2d_21">
    <path clip-path="url(#p86022fc201)" d="M 73.832727 285.999001 
L 74.700788 276.902329 
L 75.568848 270.261927 
L 76.436908 261.995304 
L 77.304968 255.100805 
L 78.173029 244.293213 
L 79.041089 237.72057 
L 79.909149 225.947409 
L 80.77721 225.100419 
L 83.38139 212.785184 
L 84.249451 205.653528 
L 85.117511 193.372173 
L 85.985571 188.832306 
L 86.853632 185.529045 
L 87.721692 184.411018 
L 88.589752 181.582072 
L 89.457812 170.181586 
L 90.325873 173.315449 
L 91.193933 167.928593 
L 92.061993 164.964127 
L 92.930053 166.505649 
L 94.666174 163.117689 
L 95.534234 203.248076 
L 96.402295 191.94923 
L 97.270355 182.750918 
L 98.138415 190.136671 
L 99.006475 177.44876 
L 99.874536 180.599563 
L 100.742596 167.132422 
L 101.610656 166.065215 
L 102.478717 180.90448 
L 103.346777 159.390933 
L 104.214837 161.847204 
L 105.082897 160.763057 
L 105.950958 157.713893 
L 106.819018 148.888257 
L 107.687078 155.765816 
L 108.555139 155.477839 
L 109.423199 144.670247 
L 110.291259 146.194829 
L 111.159319 145.297019 
L 112.02738 147.516133 
L 113.7635 139.723825 
L 114.631561 140.503056 
L 116.367681 136.081768 
L 117.235741 134.20145 
L 118.103802 134.286149 
L 118.971862 132.304192 
L 119.839922 132.050095 
L 120.707982 127.798205 
L 121.576043 126.985095 
L 122.444103 129.847921 
L 123.312163 125.646851 
L 124.180224 129.238088 
L 125.048284 121.039225 
L 125.916344 124.664342 
L 126.784404 121.140864 
L 127.652465 120.497151 
L 128.520525 117.481867 
L 130.256646 115.686248 
L 131.124706 117.092252 
L 131.992766 116.804275 
L 132.860826 115.279693 
L 133.728887 114.737619 
L 134.596947 114.63598 
L 135.465007 114.246365 
L 136.333068 114.178606 
L 138.069188 115.194994 
L 138.937248 145.025982 
L 139.805309 144.34839 
L 140.673369 140.926551 
L 141.541429 149.752187 
L 142.40949 154.190414 
L 143.27755 134.133691 
L 144.14561 136.657721 
L 145.01367 134.709644 
L 145.881731 129.255028 
L 146.749791 130.661032 
L 147.617851 135.353356 
L 148.485912 136.7763 
L 149.353972 130.152838 
L 150.222032 128.983991 
L 151.090092 132.151734 
L 151.958153 133.574677 
L 152.826213 128.475797 
L 153.694273 127.459409 
L 154.562333 121.581299 
L 155.430394 129.729343 
L 156.298454 125.934827 
L 157.166514 119.209727 
L 158.034575 120.59879 
L 158.902635 125.409694 
L 159.770695 119.76874 
L 160.638755 119.565462 
L 161.506816 120.259994 
L 162.374876 125.138657 
L 163.242936 121.699877 
L 164.979057 117.803723 
L 165.847117 113.958388 
L 166.715177 115.398271 
L 167.583238 115.991165 
L 168.451298 117.058372 
L 169.319358 125.189476 
L 170.187419 108.537652 
L 171.055479 114.63598 
L 171.923539 106.352418 
L 172.791599 111.197201 
L 173.65966 110.756766 
L 174.52772 111.739275 
L 175.39578 104.590679 
L 176.263841 109.6218 
L 177.131901 108.249676 
L 178.868021 113.297736 
L 180.604142 106.030562 
L 181.472202 105.573187 
L 182.340263 112.264408 
L 183.208323 106.708154 
L 184.076383 104.099425 
L 184.944443 107.707602 
L 185.812504 102.236047 
L 186.680564 104.641498 
L 187.548624 101.439876 
L 188.416684 100.389608 
L 189.284745 103.811448 
L 190.152805 104.590679 
L 191.020865 105.031114 
L 192.756986 99.847535 
L 193.625046 98.831147 
L 194.493106 104.048605 
L 195.361167 98.018036 
L 196.229227 100.474307 
L 197.097287 99.695077 
L 197.965348 97.746999 
L 198.833408 97.408203 
L 199.701468 94.375979 
L 200.569528 96.900009 
L 201.437589 99.932234 
L 202.305649 97.67924 
L 203.173709 95.815862 
L 204.04177 92.478722 
L 204.90983 92.665059 
L 205.77789 94.32516 
L 206.64595 94.257401 
L 207.514011 91.597852 
L 208.382071 93.020795 
L 209.250131 91.818069 
L 210.986252 90.784741 
L 211.854312 92.207685 
L 212.722372 90.649223 
L 213.590433 90.86944 
L 214.458493 88.413169 
L 215.326553 90.852501 
L 216.194614 89.395678 
L 217.062674 90.157969 
L 218.798794 89.310979 
L 220.534915 90.852501 
L 221.402975 88.870544 
L 222.271035 90.666163 
L 223.139096 89.785293 
L 224.875216 89.463437 
L 225.743277 126.087286 
L 226.611337 126.747938 
L 227.479397 119.413004 
L 228.347457 122.733205 
L 229.215518 117.26165 
L 230.083578 113.602653 
L 230.951638 117.837603 
L 231.819699 113.246917 
L 232.687759 117.515747 
L 233.555819 115.398271 
L 234.423879 111.637636 
L 235.29194 118.244158 
L 236.16 107.92782 
L 237.02806 115.296633 
L 237.896121 114.110847 
L 238.764181 110.790646 
L 239.632241 114.178606 
L 240.500301 116.109743 
L 241.368362 116.584058 
L 242.236422 106.826732 
L 243.104482 111.739275 
L 243.972543 114.127786 
L 244.840603 105.657886 
L 245.708663 115.211934 
L 246.576723 105.132752 
L 247.444784 108.77481 
L 248.312844 105.861164 
L 249.180904 112.213589 
L 250.048965 105.064993 
L 250.917025 115.415211 
L 252.653145 107.097769 
L 253.521206 110.045295 
L 254.389266 113.958388 
L 255.257326 108.503773 
L 256.125386 109.706499 
L 256.993447 108.063338 
L 257.861507 115.127235 
L 258.729567 105.166632 
L 259.597628 103.777568 
L 260.465688 110.485729 
L 261.333748 104.641498 
L 262.201808 102.185227 
L 263.069869 103.574291 
L 263.937929 103.862267 
L 264.805989 109.130545 
L 265.67405 104.709257 
L 266.54211 108.537652 
L 267.41017 107.284107 
L 268.27823 102.693421 
L 269.146291 105.844224 
L 270.014351 105.861164 
L 270.882411 104.624558 
L 271.750472 103.963906 
L 272.618532 106.233839 
L 273.486592 101.558455 
L 274.354652 106.352418 
L 275.222713 99.796715 
L 276.090773 103.269374 
L 276.958833 103.506532 
L 277.826894 97.780879 
L 278.694954 100.067752 
L 279.563014 99.949174 
L 280.431074 103.726749 
L 281.299135 99.830595 
L 282.167195 101.592334 
L 283.035255 100.711465 
L 283.903316 101.693973 
L 284.771376 101.202719 
L 285.639436 99.136063 
L 286.507496 98.373772 
L 287.375557 101.270478 
L 288.243617 101.829491 
L 289.111677 98.373772 
L 289.979737 96.798371 
L 290.847798 101.050261 
L 291.715858 101.338237 
L 292.583918 103.980846 
L 293.451979 101.151899 
L 294.320039 99.44098 
L 295.188099 108.232736 
L 296.056159 100.880863 
L 296.92422 98.034976 
L 297.79228 99.525679 
L 298.66034 100.135511 
L 299.528401 95.036631 
L 300.396461 101.473756 
L 301.264521 98.949725 
L 302.132581 103.235495 
L 303.000642 101.372117 
L 303.868702 96.561213 
L 304.736762 94.020243 
L 305.604823 94.494558 
L 306.472883 95.595645 
L 307.340943 95.15521 
L 308.209003 99.745896 
L 309.077064 95.832802 
L 309.945124 95.595645 
L 310.813184 96.053019 
L 311.681245 97.204926 
L 312.549305 92.394023 
L 313.417365 90.835561 
L 314.285425 93.800026 
L 315.153486 92.546481 
L 316.021546 95.646464 
L 316.889606 90.666163 
L 317.757667 91.191297 
L 318.625727 94.951932 
L 319.493787 95.697284 
L 320.361847 91.919708 
L 321.229908 90.750862 
L 322.097968 93.342651 
L 322.966028 95.18909 
L 323.834088 91.360695 
L 324.702149 89.869992 
L 325.570209 94.511498 
L 326.438269 93.224073 
L 327.30633 94.663956 
L 328.17439 90.429006 
L 329.04245 91.851949 
L 329.91051 93.698387 
L 330.778571 90.242668 
L 331.646631 89.700594 
L 332.514691 89.615895 
L 333.382752 90.344307 
L 334.250812 92.258504 
L 335.118872 89.615895 
L 335.986932 88.463989 
L 336.854993 83.974942 
L 337.723053 87.007166 
L 338.591113 87.447601 
L 339.459174 89.632835 
L 340.327234 88.192952 
L 341.195294 83.24653 
L 342.063354 88.718086 
L 342.931415 89.480377 
L 343.799475 87.125745 
L 344.667535 86.007718 
L 345.535596 89.20934 
L 346.403656 85.550343 
L 347.271716 87.921915 
L 348.139776 83.890243 
L 349.007837 85.685862 
L 349.875897 85.126848 
L 350.743957 81.112115 
L 351.612018 84.669474 
L 352.480078 84.279858 
L 353.348138 87.074925 
L 354.216198 86.70225 
L 355.084259 83.907183 
L 355.952319 85.516464 
L 356.820379 83.398989 
L 357.688439 83.924122 
L 358.5565 85.414825 
L 359.42456 83.991882 
L 360.29262 85.923019 
L 361.160681 83.585326 
L 362.028741 85.414825 
L 362.896801 81.162935 
L 363.764861 82.264022 
L 364.632922 84.229039 
L 365.500982 82.111564 
L 366.369042 81.891346 
L 367.237103 82.789156 
L 368.105163 80.68862 
L 368.973223 83.178771 
L 369.841283 81.721948 
L 370.709344 79.807751 
L 371.577404 80.282065 
L 372.445464 80.315945 
L 373.313525 82.806096 
L 374.181585 81.450911 
L 375.049645 81.721948 
L 375.917705 80.824139 
L 376.785766 80.553102 
L 377.653826 80.925778 
L 378.521886 79.519774 
L 379.389947 80.468403 
L 380.258007 78.791363 
L 381.126067 78.486446 
L 381.994127 79.824691 
L 382.862188 79.87551 
L 383.730248 79.401196 
L 384.598308 79.0624 
L 385.466368 81.179875 
L 386.334429 81.518671 
L 387.202489 78.825242 
L 388.070549 79.04546 
L 388.93861 80.129607 
L 389.80667 78.588085 
L 390.67473 78.723604 
L 391.54279 80.349824 
L 392.410851 81.112115 
L 393.278911 78.266229 
L 394.146971 78.588085 
L 395.015032 78.469507 
L 395.883092 79.367316 
L 396.751152 77.554757 
L 397.619212 78.333988 
L 398.487273 78.876062 
L 398.487273 78.876062 
" style="fill:none;stroke:#2ca02c;stroke-linecap:square;stroke-width:1.5;"/>
   </g>
   <g id="patch_3">
    <path d="M 57.6 307.584 
L 57.6 41.472 
" style="fill:none;stroke:#000000;stroke-linecap:square;stroke-linejoin:miter;stroke-width:0.8;"/>
   </g>
   <g id="patch_4">
    <path d="M 414.72 307.584 
L 414.72 41.472 
" style="fill:none;stroke:#000000;stroke-linecap:square;stroke-linejoin:miter;stroke-width:0.8;"/>
   </g>
   <g id="patch_5">
    <path d="M 57.6 307.584 
L 414.72 307.584 
" style="fill:none;stroke:#000000;stroke-linecap:square;stroke-linejoin:miter;stroke-width:0.8;"/>
   </g>
   <g id="patch_6">
    <path d="M 57.6 41.472 
L 414.72 41.472 
" style="fill:none;stroke:#000000;stroke-linecap:square;stroke-linejoin:miter;stroke-width:0.8;"/>
   </g>
   <g id="text_21">
    <!-- Training and Validation Accuracy -->
    <g transform="translate(138.4575 35.472)scale(0.12 -0.12)">
     <defs>
      <path d="M -19 4666 
L 3928 4666 
L 3928 4134 
L 2272 4134 
L 2272 0 
L 1638 0 
L 1638 4134 
L -19 4134 
L -19 4666 
z
" id="DejaVuSans-54" transform="scale(0.015625)"/>
      <path d="M 603 3500 
L 1178 3500 
L 1178 0 
L 603 0 
L 603 3500 
z
M 603 4863 
L 1178 4863 
L 1178 4134 
L 603 4134 
L 603 4863 
z
" id="DejaVuSans-69" transform="scale(0.015625)"/>
      <path d="M 3513 2113 
L 3513 0 
L 2938 0 
L 2938 2094 
Q 2938 2591 2744 2837 
Q 2550 3084 2163 3084 
Q 1697 3084 1428 2787 
Q 1159 2491 1159 1978 
L 1159 0 
L 581 0 
L 581 3500 
L 1159 3500 
L 1159 2956 
Q 1366 3272 1645 3428 
Q 1925 3584 2291 3584 
Q 2894 3584 3203 3211 
Q 3513 2838 3513 2113 
z
" id="DejaVuSans-6e" transform="scale(0.015625)"/>
      <path d="M 2906 1791 
Q 2906 2416 2648 2759 
Q 2391 3103 1925 3103 
Q 1463 3103 1205 2759 
Q 947 2416 947 1791 
Q 947 1169 1205 825 
Q 1463 481 1925 481 
Q 2391 481 2648 825 
Q 2906 1169 2906 1791 
z
M 3481 434 
Q 3481 -459 3084 -895 
Q 2688 -1331 1869 -1331 
Q 1566 -1331 1297 -1286 
Q 1028 -1241 775 -1147 
L 775 -588 
Q 1028 -725 1275 -790 
Q 1522 -856 1778 -856 
Q 2344 -856 2625 -561 
Q 2906 -266 2906 331 
L 2906 616 
Q 2728 306 2450 153 
Q 2172 0 1784 0 
Q 1141 0 747 490 
Q 353 981 353 1791 
Q 353 2603 747 3093 
Q 1141 3584 1784 3584 
Q 2172 3584 2450 3431 
Q 2728 3278 2906 2969 
L 2906 3500 
L 3481 3500 
L 3481 434 
z
" id="DejaVuSans-67" transform="scale(0.015625)"/>
      <path id="DejaVuSans-20" transform="scale(0.015625)"/>
      <path d="M 2906 2969 
L 2906 4863 
L 3481 4863 
L 3481 0 
L 2906 0 
L 2906 525 
Q 2725 213 2448 61 
Q 2172 -91 1784 -91 
Q 1150 -91 751 415 
Q 353 922 353 1747 
Q 353 2572 751 3078 
Q 1150 3584 1784 3584 
Q 2172 3584 2448 3432 
Q 2725 3281 2906 2969 
z
M 947 1747 
Q 947 1113 1208 752 
Q 1469 391 1925 391 
Q 2381 391 2643 752 
Q 2906 1113 2906 1747 
Q 2906 2381 2643 2742 
Q 2381 3103 1925 3103 
Q 1469 3103 1208 2742 
Q 947 2381 947 1747 
z
" id="DejaVuSans-64" transform="scale(0.015625)"/>
      <path d="M 1831 0 
L 50 4666 
L 709 4666 
L 2188 738 
L 3669 4666 
L 4325 4666 
L 2547 0 
L 1831 0 
z
" id="DejaVuSans-56" transform="scale(0.015625)"/>
      <path d="M 603 4863 
L 1178 4863 
L 1178 0 
L 603 0 
L 603 4863 
z
" id="DejaVuSans-6c" transform="scale(0.015625)"/>
      <path d="M 1172 4494 
L 1172 3500 
L 2356 3500 
L 2356 3053 
L 1172 3053 
L 1172 1153 
Q 1172 725 1289 603 
Q 1406 481 1766 481 
L 2356 481 
L 2356 0 
L 1766 0 
Q 1100 0 847 248 
Q 594 497 594 1153 
L 594 3053 
L 172 3053 
L 172 3500 
L 594 3500 
L 594 4494 
L 1172 4494 
z
" id="DejaVuSans-74" transform="scale(0.015625)"/>
     </defs>
     <use xlink:href="#DejaVuSans-54"/>
     <use x="46.333984" xlink:href="#DejaVuSans-72"/>
     <use x="87.447266" xlink:href="#DejaVuSans-61"/>
     <use x="148.726562" xlink:href="#DejaVuSans-69"/>
     <use x="176.509766" xlink:href="#DejaVuSans-6e"/>
     <use x="239.888672" xlink:href="#DejaVuSans-69"/>
     <use x="267.671875" xlink:href="#DejaVuSans-6e"/>
     <use x="331.050781" xlink:href="#DejaVuSans-67"/>
     <use x="394.527344" xlink:href="#DejaVuSans-20"/>
     <use x="426.314453" xlink:href="#DejaVuSans-61"/>
     <use x="487.59375" xlink:href="#DejaVuSans-6e"/>
     <use x="550.972656" xlink:href="#DejaVuSans-64"/>
     <use x="614.449219" xlink:href="#DejaVuSans-20"/>
     <use x="646.236328" xlink:href="#DejaVuSans-56"/>
     <use x="706.894531" xlink:href="#DejaVuSans-61"/>
     <use x="768.173828" xlink:href="#DejaVuSans-6c"/>
     <use x="795.957031" xlink:href="#DejaVuSans-69"/>
     <use x="823.740234" xlink:href="#DejaVuSans-64"/>
     <use x="887.216797" xlink:href="#DejaVuSans-61"/>
     <use x="948.496094" xlink:href="#DejaVuSans-74"/>
     <use x="987.705078" xlink:href="#DejaVuSans-69"/>
     <use x="1015.488281" xlink:href="#DejaVuSans-6f"/>
     <use x="1076.669922" xlink:href="#DejaVuSans-6e"/>
     <use x="1140.048828" xlink:href="#DejaVuSans-20"/>
     <use x="1171.835938" xlink:href="#DejaVuSans-41"/>
     <use x="1238.494141" xlink:href="#DejaVuSans-63"/>
     <use x="1293.474609" xlink:href="#DejaVuSans-63"/>
     <use x="1348.455078" xlink:href="#DejaVuSans-75"/>
     <use x="1411.833984" xlink:href="#DejaVuSans-72"/>
     <use x="1452.947266" xlink:href="#DejaVuSans-61"/>
     <use x="1514.226562" xlink:href="#DejaVuSans-63"/>
     <use x="1569.207031" xlink:href="#DejaVuSans-79"/>
    </g>
   </g>
   <g id="legend_1">
    <g id="patch_7">
     <path d="M 239.893438 302.584 
L 407.72 302.584 
Q 409.72 302.584 409.72 300.584 
L 409.72 257.549625 
Q 409.72 255.549625 407.72 255.549625 
L 239.893438 255.549625 
Q 237.893438 255.549625 237.893438 257.549625 
L 237.893438 300.584 
Q 237.893438 302.584 239.893438 302.584 
z
" style="fill:#ffffff;opacity:0.8;stroke:#cccccc;stroke-linejoin:miter;"/>
    </g>
    <g id="line2d_22">
     <path d="M 241.893438 263.648062 
L 261.893438 263.648062 
" style="fill:none;stroke:#1f77b4;stroke-linecap:square;stroke-width:1.5;"/>
    </g>
    <g id="line2d_23"/>
    <g id="text_22">
     <!-- Train Accuracy -->
     <g transform="translate(269.893438 267.148062)scale(0.1 -0.1)">
      <use xlink:href="#DejaVuSans-54"/>
      <use x="46.333984" xlink:href="#DejaVuSans-72"/>
      <use x="87.447266" xlink:href="#DejaVuSans-61"/>
      <use x="148.726562" xlink:href="#DejaVuSans-69"/>
      <use x="176.509766" xlink:href="#DejaVuSans-6e"/>
      <use x="239.888672" xlink:href="#DejaVuSans-20"/>
      <use x="271.675781" xlink:href="#DejaVuSans-41"/>
      <use x="338.333984" xlink:href="#DejaVuSans-63"/>
      <use x="393.314453" xlink:href="#DejaVuSans-63"/>
      <use x="448.294922" xlink:href="#DejaVuSans-75"/>
      <use x="511.673828" xlink:href="#DejaVuSans-72"/>
      <use x="552.787109" xlink:href="#DejaVuSans-61"/>
      <use x="614.066406" xlink:href="#DejaVuSans-63"/>
      <use x="669.046875" xlink:href="#DejaVuSans-79"/>
     </g>
    </g>
    <g id="line2d_24">
     <path d="M 241.893438 278.326188 
L 261.893438 278.326188 
" style="fill:none;stroke:#ff7f0e;stroke-linecap:square;stroke-width:1.5;"/>
    </g>
    <g id="line2d_25"/>
    <g id="text_23">
     <!-- Validation Accuracy -->
     <g transform="translate(269.893438 281.826188)scale(0.1 -0.1)">
      <use xlink:href="#DejaVuSans-56"/>
      <use x="60.658203" xlink:href="#DejaVuSans-61"/>
      <use x="121.9375" xlink:href="#DejaVuSans-6c"/>
      <use x="149.720703" xlink:href="#DejaVuSans-69"/>
      <use x="177.503906" xlink:href="#DejaVuSans-64"/>
      <use x="240.980469" xlink:href="#DejaVuSans-61"/>
      <use x="302.259766" xlink:href="#DejaVuSans-74"/>
      <use x="341.46875" xlink:href="#DejaVuSans-69"/>
      <use x="369.251953" xlink:href="#DejaVuSans-6f"/>
      <use x="430.433594" xlink:href="#DejaVuSans-6e"/>
      <use x="493.8125" xlink:href="#DejaVuSans-20"/>
      <use x="525.599609" xlink:href="#DejaVuSans-41"/>
      <use x="592.257812" xlink:href="#DejaVuSans-63"/>
      <use x="647.238281" xlink:href="#DejaVuSans-63"/>
      <use x="702.21875" xlink:href="#DejaVuSans-75"/>
      <use x="765.597656" xlink:href="#DejaVuSans-72"/>
      <use x="806.710938" xlink:href="#DejaVuSans-61"/>
      <use x="867.990234" xlink:href="#DejaVuSans-63"/>
      <use x="922.970703" xlink:href="#DejaVuSans-79"/>
     </g>
    </g>
    <g id="line2d_26">
     <path d="M 241.893438 293.004312 
L 261.893438 293.004312 
" style="fill:none;stroke:#2ca02c;stroke-linecap:square;stroke-width:1.5;"/>
    </g>
    <g id="line2d_27"/>
    <g id="text_24">
     <!-- Robust Validation Accuracy -->
     <g transform="translate(269.893438 296.504312)scale(0.1 -0.1)">
      <defs>
       <path d="M 2841 2188 
Q 3044 2119 3236 1894 
Q 3428 1669 3622 1275 
L 4263 0 
L 3584 0 
L 2988 1197 
Q 2756 1666 2539 1819 
Q 2322 1972 1947 1972 
L 1259 1972 
L 1259 0 
L 628 0 
L 628 4666 
L 2053 4666 
Q 2853 4666 3247 4331 
Q 3641 3997 3641 3322 
Q 3641 2881 3436 2590 
Q 3231 2300 2841 2188 
z
M 1259 4147 
L 1259 2491 
L 2053 2491 
Q 2509 2491 2742 2702 
Q 2975 2913 2975 3322 
Q 2975 3731 2742 3939 
Q 2509 4147 2053 4147 
L 1259 4147 
z
" id="DejaVuSans-52" transform="scale(0.015625)"/>
       <path d="M 3116 1747 
Q 3116 2381 2855 2742 
Q 2594 3103 2138 3103 
Q 1681 3103 1420 2742 
Q 1159 2381 1159 1747 
Q 1159 1113 1420 752 
Q 1681 391 2138 391 
Q 2594 391 2855 752 
Q 3116 1113 3116 1747 
z
M 1159 2969 
Q 1341 3281 1617 3432 
Q 1894 3584 2278 3584 
Q 2916 3584 3314 3078 
Q 3713 2572 3713 1747 
Q 3713 922 3314 415 
Q 2916 -91 2278 -91 
Q 1894 -91 1617 61 
Q 1341 213 1159 525 
L 1159 0 
L 581 0 
L 581 4863 
L 1159 4863 
L 1159 2969 
z
" id="DejaVuSans-62" transform="scale(0.015625)"/>
      </defs>
      <use xlink:href="#DejaVuSans-52"/>
      <use x="64.982422" xlink:href="#DejaVuSans-6f"/>
      <use x="126.164062" xlink:href="#DejaVuSans-62"/>
      <use x="189.640625" xlink:href="#DejaVuSans-75"/>
      <use x="253.019531" xlink:href="#DejaVuSans-73"/>
      <use x="305.119141" xlink:href="#DejaVuSans-74"/>
      <use x="344.328125" xlink:href="#DejaVuSans-20"/>
      <use x="376.115234" xlink:href="#DejaVuSans-56"/>
      <use x="436.773438" xlink:href="#DejaVuSans-61"/>
      <use x="498.052734" xlink:href="#DejaVuSans-6c"/>
      <use x="525.835938" xlink:href="#DejaVuSans-69"/>
      <use x="553.619141" xlink:href="#DejaVuSans-64"/>
      <use x="617.095703" xlink:href="#DejaVuSans-61"/>
      <use x="678.375" xlink:href="#DejaVuSans-74"/>
      <use x="717.583984" xlink:href="#DejaVuSans-69"/>
      <use x="745.367188" xlink:href="#DejaVuSans-6f"/>
      <use x="806.548828" xlink:href="#DejaVuSans-6e"/>
      <use x="869.927734" xlink:href="#DejaVuSans-20"/>
      <use x="901.714844" xlink:href="#DejaVuSans-41"/>
      <use x="968.373047" xlink:href="#DejaVuSans-63"/>
      <use x="1023.353516" xlink:href="#DejaVuSans-63"/>
      <use x="1078.333984" xlink:href="#DejaVuSans-75"/>
      <use x="1141.712891" xlink:href="#DejaVuSans-72"/>
      <use x="1182.826172" xlink:href="#DejaVuSans-61"/>
      <use x="1244.105469" xlink:href="#DejaVuSans-63"/>
      <use x="1299.085938" xlink:href="#DejaVuSans-79"/>
     </g>
    </g>
   </g>
  </g>
 </g>
 <defs>
  <clipPath id="p86022fc201">
   <rect height="266.112" width="357.12" x="57.6" y="41.472"/>
  </clipPath>
 </defs>
</svg>
