<?xml version="1.0" encoding="utf-8" standalone="no"?>
<!DOCTYPE svg PUBLIC "-//W3C//DTD SVG 1.1//EN"
  "http://www.w3.org/Graphics/SVG/1.1/DTD/svg11.dtd">
<svg height="345.6pt" version="1.1" viewBox="0 0 460.8 345.6" width="460.8pt" xmlns="http://www.w3.org/2000/svg" xmlns:xlink="http://www.w3.org/1999/xlink">
 <metadata>
  <rdf:RDF xmlns:cc="http://creativecommons.org/ns#" xmlns:dc="http://purl.org/dc/elements/1.1/" xmlns:rdf="http://www.w3.org/1999/02/22-rdf-syntax-ns#">
   <cc:Work>
    <dc:type rdf:resource="http://purl.org/dc/dcmitype/StillImage"/>
    <dc:date>2024-03-05T05:34:37.171213</dc:date>
    <dc:format>image/svg+xml</dc:format>
    <dc:creator>
     <cc:Agent>
      <dc:title>Matplotlib v3.4.3, https://matplotlib.org/</dc:title>
     </cc:Agent>
    </dc:creator>
   </cc:Work>
  </rdf:RDF>
 </metadata>
 <defs>
  <style type="text/css">*{stroke-linecap:butt;stroke-linejoin:round;}</style>
 </defs>
 <g id="figure_1">
  <g id="patch_1">
   <path d="M 0 345.6 
L 460.8 345.6 
L 460.8 0 
L 0 0 
z
" style="fill:#ffffff;"/>
  </g>
  <g id="axes_1">
   <g id="patch_2">
    <path d="M 57.6 307.584 
L 414.72 307.584 
L 414.72 41.472 
L 57.6 41.472 
z
" style="fill:#ffffff;"/>
   </g>
   <g id="matplotlib.axis_1">
    <g id="xtick_1">
     <g id="line2d_1">
      <defs>
       <path d="M 0 0 
L 0 3.5 
" id="m5fe9ab1860" style="stroke:#000000;stroke-width:0.8;"/>
      </defs>
      <g>
       <use style="stroke:#000000;stroke-width:0.8;" x="73.832727" xlink:href="#m5fe9ab1860" y="307.584"/>
      </g>
     </g>
     <g id="text_1">
      <!-- 1 -->
      <g transform="translate(70.651477 322.182437)scale(0.1 -0.1)">
       <defs>
        <path d="M 794 531 
L 1825 531 
L 1825 4091 
L 703 3866 
L 703 4441 
L 1819 4666 
L 2450 4666 
L 2450 531 
L 3481 531 
L 3481 0 
L 794 0 
L 794 531 
z
" id="DejaVuSans-31" transform="scale(0.015625)"/>
       </defs>
       <use xlink:href="#DejaVuSans-31"/>
      </g>
     </g>
    </g>
    <g id="xtick_2">
     <g id="line2d_2">
      <g>
       <use style="stroke:#000000;stroke-width:0.8;" x="109.262733" xlink:href="#m5fe9ab1860" y="307.584"/>
      </g>
     </g>
     <g id="text_2">
      <!-- 50 -->
      <g transform="translate(102.900233 322.182437)scale(0.1 -0.1)">
       <defs>
        <path d="M 691 4666 
L 3169 4666 
L 3169 4134 
L 1269 4134 
L 1269 2991 
Q 1406 3038 1543 3061 
Q 1681 3084 1819 3084 
Q 2600 3084 3056 2656 
Q 3513 2228 3513 1497 
Q 3513 744 3044 326 
Q 2575 -91 1722 -91 
Q 1428 -91 1123 -41 
Q 819 9 494 109 
L 494 744 
Q 775 591 1075 516 
Q 1375 441 1709 441 
Q 2250 441 2565 725 
Q 2881 1009 2881 1497 
Q 2881 1984 2565 2268 
Q 2250 2553 1709 2553 
Q 1456 2553 1204 2497 
Q 953 2441 691 2322 
L 691 4666 
z
" id="DejaVuSans-35" transform="scale(0.015625)"/>
        <path d="M 2034 4250 
Q 1547 4250 1301 3770 
Q 1056 3291 1056 2328 
Q 1056 1369 1301 889 
Q 1547 409 2034 409 
Q 2525 409 2770 889 
Q 3016 1369 3016 2328 
Q 3016 3291 2770 3770 
Q 2525 4250 2034 4250 
z
M 2034 4750 
Q 2819 4750 3233 4129 
Q 3647 3509 3647 2328 
Q 3647 1150 3233 529 
Q 2819 -91 2034 -91 
Q 1250 -91 836 529 
Q 422 1150 422 2328 
Q 422 3509 836 4129 
Q 1250 4750 2034 4750 
z
" id="DejaVuSans-30" transform="scale(0.015625)"/>
       </defs>
       <use xlink:href="#DejaVuSans-35"/>
       <use x="63.623047" xlink:href="#DejaVuSans-30"/>
      </g>
     </g>
    </g>
    <g id="xtick_3">
     <g id="line2d_3">
      <g>
       <use style="stroke:#000000;stroke-width:0.8;" x="145.415801" xlink:href="#m5fe9ab1860" y="307.584"/>
      </g>
     </g>
     <g id="text_3">
      <!-- 100 -->
      <g transform="translate(135.872051 322.182437)scale(0.1 -0.1)">
       <use xlink:href="#DejaVuSans-31"/>
       <use x="63.623047" xlink:href="#DejaVuSans-30"/>
       <use x="127.246094" xlink:href="#DejaVuSans-30"/>
      </g>
     </g>
    </g>
    <g id="xtick_4">
     <g id="line2d_4">
      <g>
       <use style="stroke:#000000;stroke-width:0.8;" x="181.568868" xlink:href="#m5fe9ab1860" y="307.584"/>
      </g>
     </g>
     <g id="text_4">
      <!-- 150 -->
      <g transform="translate(172.025118 322.182437)scale(0.1 -0.1)">
       <use xlink:href="#DejaVuSans-31"/>
       <use x="63.623047" xlink:href="#DejaVuSans-35"/>
       <use x="127.246094" xlink:href="#DejaVuSans-30"/>
      </g>
     </g>
    </g>
    <g id="xtick_5">
     <g id="line2d_5">
      <g>
       <use style="stroke:#000000;stroke-width:0.8;" x="217.721936" xlink:href="#m5fe9ab1860" y="307.584"/>
      </g>
     </g>
     <g id="text_5">
      <!-- 200 -->
      <g transform="translate(208.178186 322.182437)scale(0.1 -0.1)">
       <defs>
        <path d="M 1228 531 
L 3431 531 
L 3431 0 
L 469 0 
L 469 531 
Q 828 903 1448 1529 
Q 2069 2156 2228 2338 
Q 2531 2678 2651 2914 
Q 2772 3150 2772 3378 
Q 2772 3750 2511 3984 
Q 2250 4219 1831 4219 
Q 1534 4219 1204 4116 
Q 875 4013 500 3803 
L 500 4441 
Q 881 4594 1212 4672 
Q 1544 4750 1819 4750 
Q 2544 4750 2975 4387 
Q 3406 4025 3406 3419 
Q 3406 3131 3298 2873 
Q 3191 2616 2906 2266 
Q 2828 2175 2409 1742 
Q 1991 1309 1228 531 
z
" id="DejaVuSans-32" transform="scale(0.015625)"/>
       </defs>
       <use xlink:href="#DejaVuSans-32"/>
       <use x="63.623047" xlink:href="#DejaVuSans-30"/>
       <use x="127.246094" xlink:href="#DejaVuSans-30"/>
      </g>
     </g>
    </g>
    <g id="xtick_6">
     <g id="line2d_6">
      <g>
       <use style="stroke:#000000;stroke-width:0.8;" x="253.875003" xlink:href="#m5fe9ab1860" y="307.584"/>
      </g>
     </g>
     <g id="text_6">
      <!-- 250 -->
      <g transform="translate(244.331253 322.182437)scale(0.1 -0.1)">
       <use xlink:href="#DejaVuSans-32"/>
       <use x="63.623047" xlink:href="#DejaVuSans-35"/>
       <use x="127.246094" xlink:href="#DejaVuSans-30"/>
      </g>
     </g>
    </g>
    <g id="xtick_7">
     <g id="line2d_7">
      <g>
       <use style="stroke:#000000;stroke-width:0.8;" x="290.02807" xlink:href="#m5fe9ab1860" y="307.584"/>
      </g>
     </g>
     <g id="text_7">
      <!-- 300 -->
      <g transform="translate(280.48432 322.182437)scale(0.1 -0.1)">
       <defs>
        <path d="M 2597 2516 
Q 3050 2419 3304 2112 
Q 3559 1806 3559 1356 
Q 3559 666 3084 287 
Q 2609 -91 1734 -91 
Q 1441 -91 1130 -33 
Q 819 25 488 141 
L 488 750 
Q 750 597 1062 519 
Q 1375 441 1716 441 
Q 2309 441 2620 675 
Q 2931 909 2931 1356 
Q 2931 1769 2642 2001 
Q 2353 2234 1838 2234 
L 1294 2234 
L 1294 2753 
L 1863 2753 
Q 2328 2753 2575 2939 
Q 2822 3125 2822 3475 
Q 2822 3834 2567 4026 
Q 2313 4219 1838 4219 
Q 1578 4219 1281 4162 
Q 984 4106 628 3988 
L 628 4550 
Q 988 4650 1302 4700 
Q 1616 4750 1894 4750 
Q 2613 4750 3031 4423 
Q 3450 4097 3450 3541 
Q 3450 3153 3228 2886 
Q 3006 2619 2597 2516 
z
" id="DejaVuSans-33" transform="scale(0.015625)"/>
       </defs>
       <use xlink:href="#DejaVuSans-33"/>
       <use x="63.623047" xlink:href="#DejaVuSans-30"/>
       <use x="127.246094" xlink:href="#DejaVuSans-30"/>
      </g>
     </g>
    </g>
    <g id="xtick_8">
     <g id="line2d_8">
      <g>
       <use style="stroke:#000000;stroke-width:0.8;" x="326.181138" xlink:href="#m5fe9ab1860" y="307.584"/>
      </g>
     </g>
     <g id="text_8">
      <!-- 350 -->
      <g transform="translate(316.637388 322.182437)scale(0.1 -0.1)">
       <use xlink:href="#DejaVuSans-33"/>
       <use x="63.623047" xlink:href="#DejaVuSans-35"/>
       <use x="127.246094" xlink:href="#DejaVuSans-30"/>
      </g>
     </g>
    </g>
    <g id="xtick_9">
     <g id="line2d_9">
      <g>
       <use style="stroke:#000000;stroke-width:0.8;" x="362.334205" xlink:href="#m5fe9ab1860" y="307.584"/>
      </g>
     </g>
     <g id="text_9">
      <!-- 400 -->
      <g transform="translate(352.790455 322.182437)scale(0.1 -0.1)">
       <defs>
        <path d="M 2419 4116 
L 825 1625 
L 2419 1625 
L 2419 4116 
z
M 2253 4666 
L 3047 4666 
L 3047 1625 
L 3713 1625 
L 3713 1100 
L 3047 1100 
L 3047 0 
L 2419 0 
L 2419 1100 
L 313 1100 
L 313 1709 
L 2253 4666 
z
" id="DejaVuSans-34" transform="scale(0.015625)"/>
       </defs>
       <use xlink:href="#DejaVuSans-34"/>
       <use x="63.623047" xlink:href="#DejaVuSans-30"/>
       <use x="127.246094" xlink:href="#DejaVuSans-30"/>
      </g>
     </g>
    </g>
    <g id="xtick_10">
     <g id="line2d_10">
      <g>
       <use style="stroke:#000000;stroke-width:0.8;" x="398.487273" xlink:href="#m5fe9ab1860" y="307.584"/>
      </g>
     </g>
     <g id="text_10">
      <!-- 450 -->
      <g transform="translate(388.943523 322.182437)scale(0.1 -0.1)">
       <use xlink:href="#DejaVuSans-34"/>
       <use x="63.623047" xlink:href="#DejaVuSans-35"/>
       <use x="127.246094" xlink:href="#DejaVuSans-30"/>
      </g>
     </g>
    </g>
    <g id="text_11">
     <!-- Epochs -->
     <g transform="translate(218.244375 335.860562)scale(0.1 -0.1)">
      <defs>
       <path d="M 628 4666 
L 3578 4666 
L 3578 4134 
L 1259 4134 
L 1259 2753 
L 3481 2753 
L 3481 2222 
L 1259 2222 
L 1259 531 
L 3634 531 
L 3634 0 
L 628 0 
L 628 4666 
z
" id="DejaVuSans-45" transform="scale(0.015625)"/>
       <path d="M 1159 525 
L 1159 -1331 
L 581 -1331 
L 581 3500 
L 1159 3500 
L 1159 2969 
Q 1341 3281 1617 3432 
Q 1894 3584 2278 3584 
Q 2916 3584 3314 3078 
Q 3713 2572 3713 1747 
Q 3713 922 3314 415 
Q 2916 -91 2278 -91 
Q 1894 -91 1617 61 
Q 1341 213 1159 525 
z
M 3116 1747 
Q 3116 2381 2855 2742 
Q 2594 3103 2138 3103 
Q 1681 3103 1420 2742 
Q 1159 2381 1159 1747 
Q 1159 1113 1420 752 
Q 1681 391 2138 391 
Q 2594 391 2855 752 
Q 3116 1113 3116 1747 
z
" id="DejaVuSans-70" transform="scale(0.015625)"/>
       <path d="M 1959 3097 
Q 1497 3097 1228 2736 
Q 959 2375 959 1747 
Q 959 1119 1226 758 
Q 1494 397 1959 397 
Q 2419 397 2687 759 
Q 2956 1122 2956 1747 
Q 2956 2369 2687 2733 
Q 2419 3097 1959 3097 
z
M 1959 3584 
Q 2709 3584 3137 3096 
Q 3566 2609 3566 1747 
Q 3566 888 3137 398 
Q 2709 -91 1959 -91 
Q 1206 -91 779 398 
Q 353 888 353 1747 
Q 353 2609 779 3096 
Q 1206 3584 1959 3584 
z
" id="DejaVuSans-6f" transform="scale(0.015625)"/>
       <path d="M 3122 3366 
L 3122 2828 
Q 2878 2963 2633 3030 
Q 2388 3097 2138 3097 
Q 1578 3097 1268 2742 
Q 959 2388 959 1747 
Q 959 1106 1268 751 
Q 1578 397 2138 397 
Q 2388 397 2633 464 
Q 2878 531 3122 666 
L 3122 134 
Q 2881 22 2623 -34 
Q 2366 -91 2075 -91 
Q 1284 -91 818 406 
Q 353 903 353 1747 
Q 353 2603 823 3093 
Q 1294 3584 2113 3584 
Q 2378 3584 2631 3529 
Q 2884 3475 3122 3366 
z
" id="DejaVuSans-63" transform="scale(0.015625)"/>
       <path d="M 3513 2113 
L 3513 0 
L 2938 0 
L 2938 2094 
Q 2938 2591 2744 2837 
Q 2550 3084 2163 3084 
Q 1697 3084 1428 2787 
Q 1159 2491 1159 1978 
L 1159 0 
L 581 0 
L 581 4863 
L 1159 4863 
L 1159 2956 
Q 1366 3272 1645 3428 
Q 1925 3584 2291 3584 
Q 2894 3584 3203 3211 
Q 3513 2838 3513 2113 
z
" id="DejaVuSans-68" transform="scale(0.015625)"/>
       <path d="M 2834 3397 
L 2834 2853 
Q 2591 2978 2328 3040 
Q 2066 3103 1784 3103 
Q 1356 3103 1142 2972 
Q 928 2841 928 2578 
Q 928 2378 1081 2264 
Q 1234 2150 1697 2047 
L 1894 2003 
Q 2506 1872 2764 1633 
Q 3022 1394 3022 966 
Q 3022 478 2636 193 
Q 2250 -91 1575 -91 
Q 1294 -91 989 -36 
Q 684 19 347 128 
L 347 722 
Q 666 556 975 473 
Q 1284 391 1588 391 
Q 1994 391 2212 530 
Q 2431 669 2431 922 
Q 2431 1156 2273 1281 
Q 2116 1406 1581 1522 
L 1381 1569 
Q 847 1681 609 1914 
Q 372 2147 372 2553 
Q 372 3047 722 3315 
Q 1072 3584 1716 3584 
Q 2034 3584 2315 3537 
Q 2597 3491 2834 3397 
z
" id="DejaVuSans-73" transform="scale(0.015625)"/>
      </defs>
      <use xlink:href="#DejaVuSans-45"/>
      <use x="63.183594" xlink:href="#DejaVuSans-70"/>
      <use x="126.660156" xlink:href="#DejaVuSans-6f"/>
      <use x="187.841797" xlink:href="#DejaVuSans-63"/>
      <use x="242.822266" xlink:href="#DejaVuSans-68"/>
      <use x="306.201172" xlink:href="#DejaVuSans-73"/>
     </g>
    </g>
   </g>
   <g id="matplotlib.axis_2">
    <g id="ytick_1">
     <g id="line2d_11">
      <defs>
       <path d="M 0 0 
L -3.5 0 
" id="m49bd67ade4" style="stroke:#000000;stroke-width:0.8;"/>
      </defs>
      <g>
       <use style="stroke:#000000;stroke-width:0.8;" x="57.6" xlink:href="#m49bd67ade4" y="276.424382"/>
      </g>
     </g>
     <g id="text_12">
      <!-- 10 -->
      <g transform="translate(37.875 280.223601)scale(0.1 -0.1)">
       <use xlink:href="#DejaVuSans-31"/>
       <use x="63.623047" xlink:href="#DejaVuSans-30"/>
      </g>
     </g>
    </g>
    <g id="ytick_2">
     <g id="line2d_12">
      <g>
       <use style="stroke:#000000;stroke-width:0.8;" x="57.6" xlink:href="#m49bd67ade4" y="244.459898"/>
      </g>
     </g>
     <g id="text_13">
      <!-- 20 -->
      <g transform="translate(37.875 248.259117)scale(0.1 -0.1)">
       <use xlink:href="#DejaVuSans-32"/>
       <use x="63.623047" xlink:href="#DejaVuSans-30"/>
      </g>
     </g>
    </g>
    <g id="ytick_3">
     <g id="line2d_13">
      <g>
       <use style="stroke:#000000;stroke-width:0.8;" x="57.6" xlink:href="#m49bd67ade4" y="212.495414"/>
      </g>
     </g>
     <g id="text_14">
      <!-- 30 -->
      <g transform="translate(37.875 216.294633)scale(0.1 -0.1)">
       <use xlink:href="#DejaVuSans-33"/>
       <use x="63.623047" xlink:href="#DejaVuSans-30"/>
      </g>
     </g>
    </g>
    <g id="ytick_4">
     <g id="line2d_14">
      <g>
       <use style="stroke:#000000;stroke-width:0.8;" x="57.6" xlink:href="#m49bd67ade4" y="180.53093"/>
      </g>
     </g>
     <g id="text_15">
      <!-- 40 -->
      <g transform="translate(37.875 184.330149)scale(0.1 -0.1)">
       <use xlink:href="#DejaVuSans-34"/>
       <use x="63.623047" xlink:href="#DejaVuSans-30"/>
      </g>
     </g>
    </g>
    <g id="ytick_5">
     <g id="line2d_15">
      <g>
       <use style="stroke:#000000;stroke-width:0.8;" x="57.6" xlink:href="#m49bd67ade4" y="148.566446"/>
      </g>
     </g>
     <g id="text_16">
      <!-- 50 -->
      <g transform="translate(37.875 152.365665)scale(0.1 -0.1)">
       <use xlink:href="#DejaVuSans-35"/>
       <use x="63.623047" xlink:href="#DejaVuSans-30"/>
      </g>
     </g>
    </g>
    <g id="ytick_6">
     <g id="line2d_16">
      <g>
       <use style="stroke:#000000;stroke-width:0.8;" x="57.6" xlink:href="#m49bd67ade4" y="116.601962"/>
      </g>
     </g>
     <g id="text_17">
      <!-- 60 -->
      <g transform="translate(37.875 120.401181)scale(0.1 -0.1)">
       <defs>
        <path d="M 2113 2584 
Q 1688 2584 1439 2293 
Q 1191 2003 1191 1497 
Q 1191 994 1439 701 
Q 1688 409 2113 409 
Q 2538 409 2786 701 
Q 3034 994 3034 1497 
Q 3034 2003 2786 2293 
Q 2538 2584 2113 2584 
z
M 3366 4563 
L 3366 3988 
Q 3128 4100 2886 4159 
Q 2644 4219 2406 4219 
Q 1781 4219 1451 3797 
Q 1122 3375 1075 2522 
Q 1259 2794 1537 2939 
Q 1816 3084 2150 3084 
Q 2853 3084 3261 2657 
Q 3669 2231 3669 1497 
Q 3669 778 3244 343 
Q 2819 -91 2113 -91 
Q 1303 -91 875 529 
Q 447 1150 447 2328 
Q 447 3434 972 4092 
Q 1497 4750 2381 4750 
Q 2619 4750 2861 4703 
Q 3103 4656 3366 4563 
z
" id="DejaVuSans-36" transform="scale(0.015625)"/>
       </defs>
       <use xlink:href="#DejaVuSans-36"/>
       <use x="63.623047" xlink:href="#DejaVuSans-30"/>
      </g>
     </g>
    </g>
    <g id="ytick_7">
     <g id="line2d_17">
      <g>
       <use style="stroke:#000000;stroke-width:0.8;" x="57.6" xlink:href="#m49bd67ade4" y="84.637478"/>
      </g>
     </g>
     <g id="text_18">
      <!-- 70 -->
      <g transform="translate(37.875 88.436697)scale(0.1 -0.1)">
       <defs>
        <path d="M 525 4666 
L 3525 4666 
L 3525 4397 
L 1831 0 
L 1172 0 
L 2766 4134 
L 525 4134 
L 525 4666 
z
" id="DejaVuSans-37" transform="scale(0.015625)"/>
       </defs>
       <use xlink:href="#DejaVuSans-37"/>
       <use x="63.623047" xlink:href="#DejaVuSans-30"/>
      </g>
     </g>
    </g>
    <g id="ytick_8">
     <g id="line2d_18">
      <g>
       <use style="stroke:#000000;stroke-width:0.8;" x="57.6" xlink:href="#m49bd67ade4" y="52.672994"/>
      </g>
     </g>
     <g id="text_19">
      <!-- 80 -->
      <g transform="translate(37.875 56.472213)scale(0.1 -0.1)">
       <defs>
        <path d="M 2034 2216 
Q 1584 2216 1326 1975 
Q 1069 1734 1069 1313 
Q 1069 891 1326 650 
Q 1584 409 2034 409 
Q 2484 409 2743 651 
Q 3003 894 3003 1313 
Q 3003 1734 2745 1975 
Q 2488 2216 2034 2216 
z
M 1403 2484 
Q 997 2584 770 2862 
Q 544 3141 544 3541 
Q 544 4100 942 4425 
Q 1341 4750 2034 4750 
Q 2731 4750 3128 4425 
Q 3525 4100 3525 3541 
Q 3525 3141 3298 2862 
Q 3072 2584 2669 2484 
Q 3125 2378 3379 2068 
Q 3634 1759 3634 1313 
Q 3634 634 3220 271 
Q 2806 -91 2034 -91 
Q 1263 -91 848 271 
Q 434 634 434 1313 
Q 434 1759 690 2068 
Q 947 2378 1403 2484 
z
M 1172 3481 
Q 1172 3119 1398 2916 
Q 1625 2713 2034 2713 
Q 2441 2713 2670 2916 
Q 2900 3119 2900 3481 
Q 2900 3844 2670 4047 
Q 2441 4250 2034 4250 
Q 1625 4250 1398 4047 
Q 1172 3844 1172 3481 
z
" id="DejaVuSans-38" transform="scale(0.015625)"/>
       </defs>
       <use xlink:href="#DejaVuSans-38"/>
       <use x="63.623047" xlink:href="#DejaVuSans-30"/>
      </g>
     </g>
    </g>
    <g id="text_20">
     <!-- Accuracy -->
     <g transform="translate(31.795312 197.356125)rotate(-90)scale(0.1 -0.1)">
      <defs>
       <path d="M 2188 4044 
L 1331 1722 
L 3047 1722 
L 2188 4044 
z
M 1831 4666 
L 2547 4666 
L 4325 0 
L 3669 0 
L 3244 1197 
L 1141 1197 
L 716 0 
L 50 0 
L 1831 4666 
z
" id="DejaVuSans-41" transform="scale(0.015625)"/>
       <path d="M 544 1381 
L 544 3500 
L 1119 3500 
L 1119 1403 
Q 1119 906 1312 657 
Q 1506 409 1894 409 
Q 2359 409 2629 706 
Q 2900 1003 2900 1516 
L 2900 3500 
L 3475 3500 
L 3475 0 
L 2900 0 
L 2900 538 
Q 2691 219 2414 64 
Q 2138 -91 1772 -91 
Q 1169 -91 856 284 
Q 544 659 544 1381 
z
M 1991 3584 
L 1991 3584 
z
" id="DejaVuSans-75" transform="scale(0.015625)"/>
       <path d="M 2631 2963 
Q 2534 3019 2420 3045 
Q 2306 3072 2169 3072 
Q 1681 3072 1420 2755 
Q 1159 2438 1159 1844 
L 1159 0 
L 581 0 
L 581 3500 
L 1159 3500 
L 1159 2956 
Q 1341 3275 1631 3429 
Q 1922 3584 2338 3584 
Q 2397 3584 2469 3576 
Q 2541 3569 2628 3553 
L 2631 2963 
z
" id="DejaVuSans-72" transform="scale(0.015625)"/>
       <path d="M 2194 1759 
Q 1497 1759 1228 1600 
Q 959 1441 959 1056 
Q 959 750 1161 570 
Q 1363 391 1709 391 
Q 2188 391 2477 730 
Q 2766 1069 2766 1631 
L 2766 1759 
L 2194 1759 
z
M 3341 1997 
L 3341 0 
L 2766 0 
L 2766 531 
Q 2569 213 2275 61 
Q 1981 -91 1556 -91 
Q 1019 -91 701 211 
Q 384 513 384 1019 
Q 384 1609 779 1909 
Q 1175 2209 1959 2209 
L 2766 2209 
L 2766 2266 
Q 2766 2663 2505 2880 
Q 2244 3097 1772 3097 
Q 1472 3097 1187 3025 
Q 903 2953 641 2809 
L 641 3341 
Q 956 3463 1253 3523 
Q 1550 3584 1831 3584 
Q 2591 3584 2966 3190 
Q 3341 2797 3341 1997 
z
" id="DejaVuSans-61" transform="scale(0.015625)"/>
       <path d="M 2059 -325 
Q 1816 -950 1584 -1140 
Q 1353 -1331 966 -1331 
L 506 -1331 
L 506 -850 
L 844 -850 
Q 1081 -850 1212 -737 
Q 1344 -625 1503 -206 
L 1606 56 
L 191 3500 
L 800 3500 
L 1894 763 
L 2988 3500 
L 3597 3500 
L 2059 -325 
z
" id="DejaVuSans-79" transform="scale(0.015625)"/>
      </defs>
      <use xlink:href="#DejaVuSans-41"/>
      <use x="66.658203" xlink:href="#DejaVuSans-63"/>
      <use x="121.638672" xlink:href="#DejaVuSans-63"/>
      <use x="176.619141" xlink:href="#DejaVuSans-75"/>
      <use x="239.998047" xlink:href="#DejaVuSans-72"/>
      <use x="281.111328" xlink:href="#DejaVuSans-61"/>
      <use x="342.390625" xlink:href="#DejaVuSans-63"/>
      <use x="397.371094" xlink:href="#DejaVuSans-79"/>
     </g>
    </g>
   </g>
   <g id="line2d_19">
    <path clip-path="url(#p8dcad56b0c)" d="M 73.832727 295.488 
L 74.555789 285.968977 
L 75.27885 281.340519 
L 76.724973 267.231396 
L 77.448034 264.648666 
L 78.171095 254.43921 
L 78.894157 250.884759 
L 79.617218 243.085425 
L 80.340279 237.760142 
L 81.063341 236.692528 
L 81.786402 233.988333 
L 82.509463 233.336257 
L 83.232525 222.167867 
L 83.955586 225.651996 
L 84.678647 216.190508 
L 85.401709 211.287156 
L 86.12477 211.811374 
L 86.847832 211.191263 
L 87.570893 200.470375 
L 88.293954 209.049643 
L 89.017016 198.546113 
L 89.740077 204.644937 
L 91.1862 190.075525 
L 91.909261 190.363205 
L 92.632322 190.523028 
L 93.355384 189.142162 
L 94.078445 191.942251 
L 94.801506 190.516635 
L 95.524568 224.07295 
L 96.247629 219.540386 
L 96.97069 210.05972 
L 97.693752 209.049643 
L 98.416813 212.054304 
L 99.139874 199.767156 
L 99.862936 202.234815 
L 100.585997 202.835747 
L 101.309059 198.622828 
L 102.03212 193.227223 
L 102.755181 198.884937 
L 104.201304 189.762273 
L 104.924365 187.569509 
L 105.647427 191.756857 
L 106.370488 185.184959 
L 107.093549 189.532129 
L 107.816611 186.035214 
L 108.539672 184.609598 
L 109.262733 178.804848 
L 109.985795 175.467756 
L 110.708856 176.209332 
L 111.431917 171.983627 
L 112.154979 178.728133 
L 112.87804 173.319743 
L 113.601101 171.06305 
L 114.324163 166.600808 
L 115.047224 174.08689 
L 115.770285 169.273039 
L 116.493347 162.918499 
L 117.216408 167.821851 
L 117.93947 159.811552 
L 118.662531 165.558766 
L 119.385592 161.480098 
L 120.108654 168.224604 
L 120.831715 159.977767 
L 121.554776 166.926846 
L 122.277838 156.640675 
L 123.000899 158.079077 
L 123.72396 153.316368 
L 124.447022 153.092617 
L 125.170083 146.424826 
L 125.893144 160.796058 
L 126.616206 147.128044 
L 127.339267 150.452351 
L 128.062328 150.586602 
L 128.78539 138.037345 
L 129.508451 152.056968 
L 130.231512 150.797567 
L 130.954574 139.993572 
L 131.677635 143.567201 
L 133.123758 153.431441 
L 133.846819 128.965825 
L 134.569881 133.408888 
L 135.292942 144.423849 
L 136.016003 148.79659 
L 136.739065 143.535236 
L 138.185187 136.343228 
L 138.908249 183.458877 
L 139.63131 181.438721 
L 140.354371 178.210309 
L 141.077433 171.158943 
L 141.800494 171.708733 
L 142.523555 175.74265 
L 143.246617 169.394504 
L 143.969678 177.123516 
L 144.692739 167.725958 
L 145.415801 176.433083 
L 146.138862 171.101407 
L 146.861923 163.378788 
L 147.584985 169.835614 
L 148.308046 164.241829 
L 149.031108 171.056657 
L 149.754169 170.359831 
L 150.47723 161.24356 
L 151.200292 176.362761 
L 151.923353 166.837345 
L 152.646414 163.877434 
L 153.369476 172.322451 
L 154.092537 163.93497 
L 154.815598 169.106824 
L 155.53866 165.693017 
L 156.261721 158.558544 
L 156.984782 164.868333 
L 157.707844 162.221674 
L 158.430905 158.756724 
L 159.153966 158.430686 
L 159.877028 166.146912 
L 160.600089 156.992284 
L 161.32315 166.977989 
L 162.046212 160.610664 
L 162.769273 165.609909 
L 163.492334 162.618033 
L 164.215396 164.900297 
L 164.938457 159.178655 
L 165.661519 167.367956 
L 166.38458 150.950997 
L 167.107641 170.979942 
L 167.830703 160.789665 
L 168.553764 155.732883 
L 169.276825 162.355925 
L 169.999887 158.954903 
L 170.722948 162.880142 
L 171.446009 148.630375 
L 172.169071 151.225891 
L 173.615193 143.784559 
L 174.338255 156.85164 
L 175.061316 153.54012 
L 175.784377 141.841119 
L 176.507439 155.163916 
L 177.2305 163.551396 
L 177.953561 141.713261 
L 178.676623 154.332839 
L 179.399684 150.36285 
L 180.122745 136.177012 
L 180.845807 147.038544 
L 181.568868 134.89204 
L 182.29193 146.265003 
L 183.014991 144.653993 
L 183.738052 135.86376 
L 184.461114 129.458078 
L 185.184175 138.235525 
L 185.907236 140.971685 
L 186.630298 139.737856 
L 187.353359 146.482362 
L 188.07642 138.133239 
L 188.799482 137.634593 
L 189.522543 136.79073 
L 190.245604 138.970708 
L 190.968666 138.293061 
L 191.691727 139.469354 
L 192.414788 146.335325 
L 193.13785 131.043516 
L 194.583972 144.219276 
L 195.307034 134.853683 
L 196.030095 132.002451 
L 196.753157 126.1977 
L 197.476218 118.852262 
L 198.199279 137.615414 
L 198.922341 126.376701 
L 199.645402 126.35113 
L 200.368463 124.899942 
L 201.091525 124.414082 
L 201.814586 122.259676 
L 202.537647 134.597967 
L 203.260709 121.80578 
L 203.98377 121.236812 
L 204.706831 120.054127 
L 205.429893 119.721696 
L 206.152954 116.966357 
L 206.876015 108.061052 
L 208.322138 118.884226 
L 209.045199 122.40032 
L 209.768261 122.266069 
L 210.491322 136.98891 
L 211.214383 105.676502 
L 211.937445 111.730575 
L 212.660506 124.45244 
L 213.383568 116.659498 
L 214.106629 122.662428 
L 214.82969 115.962673 
L 215.552752 124.804049 
L 216.275813 130.58962 
L 216.998874 118.519831 
L 217.721936 116.857678 
L 218.444997 113.814659 
L 219.168058 119.881518 
L 219.89112 101.706513 
L 220.614181 125.098122 
L 221.337242 108.495769 
L 222.060304 119.076013 
L 222.783365 111.928755 
L 223.506426 113.686801 
L 224.229488 117.848577 
L 224.952549 118.686047 
L 225.67561 165.852839 
L 226.398672 160.163161 
L 227.121733 166.683916 
L 227.844794 170.896835 
L 228.567856 168.61457 
L 229.290917 167.566135 
L 230.013979 159.434371 
L 230.73704 160.917523 
L 231.460101 155.426024 
L 232.183163 152.440542 
L 232.906224 156.014171 
L 233.629285 147.927156 
L 234.352347 159.600586 
L 235.075408 167.725958 
L 235.798469 153.450619 
L 236.521531 162.093816 
L 237.244592 159.01244 
L 237.967653 151.826824 
L 238.690715 152.491685 
L 239.413776 153.329154 
L 240.136837 156.85164 
L 240.859899 155.413239 
L 241.58296 165.168799 
L 243.029083 150.260564 
L 243.752144 157.746646 
L 244.475206 161.953172 
L 245.198267 157.510109 
L 245.921328 145.77275 
L 246.64439 156.384959 
L 247.367451 150.944604 
L 248.090512 163.64729 
L 248.813574 157.414215 
L 249.536635 154.377589 
L 250.259696 153.444226 
L 251.705819 144.40467 
L 252.42888 151.129998 
L 253.151942 160.150375 
L 253.875003 154.364804 
L 254.598064 149.67881 
L 255.321126 150.727245 
L 256.044187 162.758677 
L 256.767248 161.63992 
L 257.49031 153.290797 
L 258.213371 150.746424 
L 258.936432 154.243339 
L 259.659494 149.83224 
L 260.382555 151.24507 
L 261.105617 155.202273 
L 261.828678 148.892484 
L 262.551739 149.614881 
L 263.274801 145.919787 
L 263.997862 150.36285 
L 264.720923 139.213638 
L 265.443985 135.326757 
L 266.167046 160.201518 
L 266.890107 167.041918 
L 268.33623 133.408888 
L 269.059291 144.008311 
L 269.782353 144.858566 
L 270.505414 138.280275 
L 271.228475 148.355481 
L 271.951537 150.95739 
L 272.674598 147.722584 
L 273.397659 152.670686 
L 274.120721 142.314193 
L 274.843782 146.546291 
L 275.566843 157.011463 
L 276.289905 137.334127 
L 277.012966 131.388733 
L 277.736028 144.685958 
L 278.459089 154.940164 
L 279.18215 149.63406 
L 279.905212 140.217323 
L 280.628273 148.802983 
L 281.351334 140.217323 
L 282.074396 144.992817 
L 282.797457 143.503272 
L 283.520518 140.21093 
L 284.24358 146.981008 
L 284.966641 138.906779 
L 285.689702 137.87113 
L 286.412764 139.693105 
L 287.135825 135.269221 
L 287.858886 141.38083 
L 288.581948 139.648355 
L 289.305009 151.302606 
L 290.02807 125.929199 
L 290.751132 143.695059 
L 291.474193 145.08871 
L 292.197255 139.501319 
L 292.920316 140.735148 
L 293.643377 153.29719 
L 294.366439 152.734615 
L 295.0895 133.274637 
L 295.812561 129.752151 
L 296.535623 142.99184 
L 297.258684 147.345403 
L 297.981745 141.067578 
L 298.704807 137.38527 
L 299.427868 147.671441 
L 300.150929 146.233039 
L 300.873991 133.140386 
L 301.597052 140.242895 
L 302.320113 131.350375 
L 303.043175 143.273128 
L 303.766236 129.368577 
L 304.489297 132.967778 
L 305.212359 130.289154 
L 305.93542 146.271396 
L 306.658481 135.039077 
L 307.381543 133.517567 
L 308.104604 136.125869 
L 308.827666 137.468377 
L 309.550727 125.110908 
L 310.273788 131.746735 
L 310.99685 136.26012 
L 311.719911 131.765913 
L 312.442972 121.089776 
L 313.166034 135.33315 
L 313.889095 137.014482 
L 314.612156 132.897456 
L 315.335218 133.562317 
L 316.058279 123.263361 
L 316.78134 127.073527 
L 317.504402 122.617678 
L 318.227463 126.357523 
L 318.950524 119.587445 
L 319.673586 134.399787 
L 320.396647 133.926713 
L 321.119708 126.984027 
L 321.84277 126.811418 
L 322.565831 132.270952 
L 323.288892 120.297057 
L 324.011954 125.098122 
L 324.735015 128.927467 
L 325.458077 117.970042 
L 326.181138 121.665137 
L 326.904199 119.063228 
L 327.627261 134.233572 
L 328.350322 124.765691 
L 329.073383 133.447245 
L 329.796445 125.500875 
L 330.519506 140.460253 
L 331.242567 123.563827 
L 331.965629 124.49719 
L 332.68869 120.693416 
L 333.411751 129.918366 
L 334.134813 114.153483 
L 334.857874 114.690486 
L 335.580935 141.796368 
L 336.303997 130.142118 
L 337.027058 124.177545 
L 337.750119 115.387312 
L 338.473181 114.070375 
L 339.196242 121.569243 
L 339.919304 114.057589 
L 340.642365 118.206579 
L 341.365426 120.814881 
L 342.088488 119.446801 
L 342.811549 109.569776 
L 343.53461 113.30962 
L 344.257672 106.13679 
L 344.980733 127.674459 
L 345.703794 133.613461 
L 346.426856 105.740431 
L 347.149917 122.470642 
L 347.872978 111.877612 
L 348.59604 119.613017 
L 349.319101 116.307889 
L 350.042162 115.201918 
L 350.765224 130.34669 
L 351.488285 126.843383 
L 352.211346 104.851818 
L 352.934408 113.674016 
L 353.657469 115.668599 
L 354.38053 113.94891 
L 355.103592 119.792018 
L 355.826653 117.132573 
L 356.549715 113.55255 
L 357.272776 108.598055 
L 357.995837 115.278633 
L 358.718899 116.28871 
L 359.44196 101.968622 
L 360.165021 115.700564 
L 360.888083 122.163782 
L 361.611144 108.962451 
L 362.334205 103.944027 
L 363.057267 107.070153 
L 363.780328 98.113705 
L 364.503389 96.62416 
L 365.226451 105.25457 
L 365.949512 121.096169 
L 366.672573 110.63739 
L 367.395635 115.246668 
L 368.118696 97.896346 
L 368.841757 97.921918 
L 369.564819 107.159654 
L 370.28788 108.470198 
L 371.010941 89.841296 
L 371.734003 102.217945 
L 372.457064 97.480808 
L 373.180126 112.612795 
L 374.626248 92.794815 
L 375.34931 100.587756 
L 376.072371 100.242539 
L 376.795432 103.221629 
L 377.518494 105.714859 
L 378.241555 111.666646 
L 378.964616 103.151307 
L 379.687678 103.272772 
L 380.410739 107.517656 
L 381.1338 108.067445 
L 381.856862 102.972306 
L 382.579923 104.813461 
L 383.302984 103.164093 
L 384.026046 94.124537 
L 384.749107 106.437256 
L 385.472168 95.978477 
L 386.19523 104.186957 
L 386.918291 98.139276 
L 387.641353 84.528799 
L 388.364414 89.886047 
L 389.087475 105.471929 
L 389.810537 97.621452 
L 390.533598 92.23224 
L 391.256659 90.557301 
L 391.979721 110.746069 
L 392.702782 100.453505 
L 393.425843 92.845958 
L 394.148905 104.110242 
L 394.871966 109.128666 
L 395.595027 118.334437 
L 396.318089 94.821363 
L 397.04115 99.731108 
L 397.764211 115.745314 
L 398.487273 102.652661 
L 398.487273 102.652661 
" style="fill:none;stroke:#1f77b4;stroke-linecap:square;stroke-width:1.5;"/>
   </g>
   <g id="line2d_20">
    <path clip-path="url(#p8dcad56b0c)" d="M 73.832727 284.25568 
L 74.555789 276.935814 
L 75.27885 261.241252 
L 76.001911 253.537811 
L 76.724973 253.441918 
L 78.171095 238.898078 
L 78.894157 229.884093 
L 79.617218 218.60063 
L 80.340279 235.733594 
L 81.063341 205.015725 
L 81.786402 204.024826 
L 82.509463 179.859676 
L 83.232525 202.714282 
L 83.955586 189.193305 
L 84.678647 172.987312 
L 85.401709 171.389088 
L 86.12477 169.183538 
L 86.847832 160.361341 
L 87.570893 160.649021 
L 88.293954 153.393083 
L 89.017016 155.15113 
L 89.740077 157.420608 
L 90.463138 152.338255 
L 91.1862 144.666779 
L 91.909261 145.593749 
L 92.632322 139.200852 
L 93.355384 140.60729 
L 94.078445 141.278544 
L 94.801506 138.817279 
L 95.524568 194.211729 
L 96.247629 185.293638 
L 96.97069 167.936923 
L 97.693752 158.21972 
L 98.416813 155.822384 
L 99.139874 145.114282 
L 99.862936 160.617057 
L 100.585997 160.553128 
L 101.309059 141.726047 
L 102.03212 145.210175 
L 102.755181 134.310286 
L 103.478243 133.926713 
L 104.201304 136.995303 
L 104.924365 134.661896 
L 105.647427 145.369998 
L 106.370488 141.917834 
L 107.093549 125.967556 
L 107.816611 123.953794 
L 109.262733 113.693194 
L 109.985795 112.670331 
L 110.708856 124.369332 
L 111.431917 117.433039 
L 112.154979 112.73426 
L 112.87804 110.049243 
L 113.601101 113.980875 
L 114.324163 105.062784 
L 115.047224 115.738921 
L 115.770285 111.871219 
L 116.493347 102.090087 
L 117.216408 108.578877 
L 117.93947 98.669887 
L 118.662531 99.532928 
L 119.385592 101.386868 
L 120.108654 93.875214 
L 120.831715 95.505403 
L 121.554776 88.760897 
L 122.277838 93.779321 
L 123.000899 90.518943 
L 123.72396 87.993749 
L 124.447022 91.445913 
L 125.170083 87.066779 
L 125.893144 85.820164 
L 126.616206 81.409065 
L 127.339267 80.290309 
L 128.062328 80.098522 
L 128.78539 80.066557 
L 129.508451 77.157789 
L 130.231512 79.778877 
L 130.954574 78.148688 
L 131.677635 77.221718 
L 132.400696 75.080098 
L 133.123758 77.285647 
L 133.846819 75.463671 
L 134.569881 76.45457 
L 135.292942 76.518499 
L 136.016003 74.792417 
L 136.739065 76.486535 
L 137.462126 75.367778 
L 138.185187 77.029931 
L 138.908249 129.611507 
L 139.63131 138.881208 
L 140.354371 109.02638 
L 141.077433 134.05457 
L 141.800494 106.437256 
L 142.523555 117.241252 
L 143.246617 114.044804 
L 143.969678 125.104515 
L 144.692739 104.870997 
L 145.415801 108.195303 
L 146.138862 108.195303 
L 146.861923 99.181319 
L 147.584985 99.756679 
L 148.308046 104.934926 
L 149.031108 117.305181 
L 149.754169 96.528266 
L 150.47723 106.021718 
L 151.200292 100.61972 
L 151.923353 101.354903 
L 152.646414 107.492084 
L 153.369476 102.761341 
L 154.092537 105.829931 
L 154.815598 99.021496 
L 155.53866 104.3276 
L 156.984782 95.729154 
L 157.707844 96.080764 
L 158.430905 97.615059 
L 159.153966 95.633261 
L 159.877028 92.500741 
L 160.600089 99.053461 
L 161.32315 114.044804 
L 162.046212 87.098744 
L 162.769273 90.998411 
L 163.492334 90.13537 
L 164.215396 91.765558 
L 164.938457 92.724493 
L 165.661519 92.181097 
L 166.38458 96.528266 
L 167.830703 85.564448 
L 168.553764 90.263228 
L 169.276825 87.162673 
L 169.999887 98.094526 
L 170.722948 88.313394 
L 171.446009 88.792861 
L 172.169071 83.518721 
L 172.892132 81.185314 
L 173.615193 87.066779 
L 174.338255 84.797301 
L 175.061316 84.253905 
L 175.784377 86.779099 
L 176.507439 87.418388 
L 177.2305 80.546024 
L 177.953561 79.619054 
L 179.399684 79.651019 
L 180.122745 78.819942 
L 180.845807 85.084981 
L 181.568868 79.139587 
L 182.29193 79.87477 
L 183.014991 77.861008 
L 183.738052 80.098522 
L 184.461114 75.144027 
L 185.184175 81.824604 
L 185.907236 72.778655 
L 186.630298 75.271885 
L 187.353359 75.112062 
L 188.07642 74.057234 
L 188.799482 71.372218 
L 189.522543 72.107401 
L 190.245604 75.815281 
L 190.968666 71.084537 
L 191.691727 73.417945 
L 192.414788 71.755791 
L 193.13785 67.18487 
L 193.860911 69.262562 
L 194.583972 68.207734 
L 195.307034 70.541141 
L 196.030095 67.856124 
L 196.753157 69.006846 
L 197.476218 64.819498 
L 198.199279 65.458788 
L 198.922341 67.120941 
L 199.645402 63.445026 
L 200.368463 67.568444 
L 201.091525 66.002184 
L 201.814586 66.098078 
L 202.537647 65.778433 
L 203.260709 65.235037 
L 203.98377 65.33093 
L 204.706831 64.755569 
L 205.429893 63.253239 
L 206.152954 63.093416 
L 206.876015 62.422162 
L 207.599077 60.184648 
L 209.045199 62.709842 
L 209.768261 61.750908 
L 210.491322 59.833039 
L 211.214383 58.810175 
L 211.937445 60.088755 
L 212.660506 59.353572 
L 213.383568 58.458566 
L 214.106629 59.737145 
L 214.82969 58.586424 
L 215.552752 58.714282 
L 216.275813 58.490531 
L 216.998874 58.682317 
L 217.721936 57.691418 
L 218.444997 57.91517 
L 219.168058 57.467667 
L 219.89112 57.339809 
L 220.614181 57.659454 
L 221.337242 57.627489 
L 222.060304 57.339809 
L 222.783365 58.011063 
L 223.506426 57.819276 
L 224.229488 57.851241 
L 224.952549 57.116058 
L 225.67561 105.957789 
L 226.398672 106.405292 
L 227.121733 108.994415 
L 227.844794 102.729376 
L 228.567856 104.167778 
L 230.013979 107.300297 
L 230.73704 96.464337 
L 231.460101 98.382206 
L 232.183163 95.249687 
L 232.906224 93.108067 
L 233.629285 102.441696 
L 234.352347 94.610397 
L 235.075408 95.69719 
L 235.798469 93.331818 
L 236.521531 86.938921 
L 237.244592 95.34558 
L 237.967653 94.993971 
L 238.690715 95.473438 
L 239.413776 88.792861 
L 240.136837 97.774881 
L 240.859899 95.633261 
L 241.58296 92.596635 
L 242.306021 88.792861 
L 243.029083 95.888977 
L 243.752144 88.952684 
L 244.475206 99.021496 
L 245.198267 93.363782 
L 245.921328 86.235703 
L 246.64439 97.870775 
L 247.367451 88.28143 
L 248.090512 93.012173 
L 249.536635 86.970886 
L 250.259696 82.623716 
L 250.982758 87.194637 
L 251.705819 88.249465 
L 252.42888 94.930042 
L 253.151942 90.966446 
L 253.875003 87.674104 
L 254.598064 95.825048 
L 255.321126 86.811063 
L 256.044187 86.555347 
L 256.767248 81.313172 
L 257.49031 80.737811 
L 258.213371 84.733372 
L 258.936432 90.199299 
L 259.659494 84.797301 
L 260.382555 92.56467 
L 261.105617 86.523383 
L 261.828678 82.368 
L 262.551739 87.546246 
L 263.274801 84.957123 
L 265.443985 89.336257 
L 266.167046 85.021052 
L 266.890107 83.103183 
L 267.613169 83.326935 
L 268.33623 82.336036 
L 269.059291 79.714948 
L 269.782353 85.244804 
L 270.505414 80.929598 
L 271.228475 85.852129 
L 271.951537 80.51406 
L 272.674598 85.692306 
L 273.397659 81.025492 
L 274.120721 78.404404 
L 274.843782 78.436368 
L 275.566843 82.559787 
L 276.289905 82.463893 
L 277.012966 81.472994 
L 277.736028 82.495858 
L 278.459089 86.427489 
L 279.18215 83.93426 
L 279.905212 84.445691 
L 280.628273 80.993527 
L 281.351334 80.673882 
L 282.074396 81.472994 
L 282.797457 87.034815 
L 283.520518 79.746912 
L 284.24358 83.039254 
L 284.966641 83.167112 
L 285.689702 78.979765 
L 286.412764 77.253683 
L 287.135825 80.673882 
L 287.858886 91.6377 
L 288.581948 83.422828 
L 289.305009 77.573327 
L 290.02807 74.824382 
L 290.751132 73.002406 
L 291.474193 78.212617 
L 292.197255 78.979765 
L 292.920316 81.44103 
L 293.643377 74.121163 
L 294.366439 77.73315 
L 295.0895 79.87477 
L 295.812561 76.646357 
L 296.535623 74.153128 
L 297.258684 74.057234 
L 297.981745 81.249243 
L 298.704807 81.409065 
L 299.427868 74.376879 
L 300.150929 80.993527 
L 300.873991 77.892972 
L 301.597052 76.45457 
L 302.320113 75.847245 
L 303.043175 75.783316 
L 303.766236 81.025492 
L 304.489297 75.399743 
L 305.212359 73.194193 
L 305.93542 71.851685 
L 306.658481 73.002406 
L 307.381543 72.17133 
L 308.104604 71.787756 
L 308.827666 72.17133 
L 309.550727 69.901851 
L 310.273788 73.258122 
L 310.99685 74.376879 
L 311.719911 70.349354 
L 312.442972 73.865447 
L 313.166034 73.002406 
L 313.889095 69.933816 
L 314.612156 72.554903 
L 315.335218 71.180431 
L 316.058279 70.796857 
L 316.78134 71.276324 
L 317.504402 71.148466 
L 318.950524 67.664337 
L 319.673586 72.427046 
L 320.396647 69.646135 
L 321.119708 68.367556 
L 321.84277 74.696524 
L 322.565831 69.518277 
L 323.288892 66.929154 
L 324.011954 66.801296 
L 324.735015 69.102739 
L 325.458077 67.536479 
L 326.181138 67.280764 
L 326.904199 68.527378 
L 327.627261 67.120941 
L 328.350322 67.088977 
L 329.073383 70.700963 
L 329.796445 69.03881 
L 330.519506 69.422384 
L 331.965629 65.426824 
L 332.68869 70.125603 
L 333.411751 65.938255 
L 334.134813 68.783094 
L 334.857874 64.723605 
L 335.580935 67.248799 
L 336.303997 62.869665 
L 337.027058 64.40396 
L 337.750119 65.203072 
L 338.473181 65.203072 
L 339.196242 65.906291 
L 339.919304 63.540919 
L 340.642365 64.180209 
L 341.365426 61.015725 
L 342.088488 64.947356 
L 342.811549 64.371996 
L 343.53461 65.554681 
L 344.257672 63.988422 
L 344.980733 66.449687 
L 345.703794 62.038588 
L 346.426856 62.454127 
L 347.149917 63.061452 
L 347.872978 63.253239 
L 348.59604 62.773771 
L 349.319101 62.645913 
L 350.042162 60.69608 
L 350.765224 60.4084 
L 351.488285 62.741807 
L 352.211346 63.285203 
L 352.934408 62.198411 
L 353.657469 62.102517 
L 354.38053 58.906069 
L 355.103592 57.787312 
L 355.826653 60.152684 
L 356.549715 57.787312 
L 357.272776 56.508733 
L 357.995837 59.449465 
L 358.718899 57.851241 
L 359.44196 60.216613 
L 360.165021 58.874104 
L 360.888083 59.577323 
L 361.611144 57.307845 
L 363.057267 57.56356 
L 363.780328 57.116058 
L 364.503389 58.011063 
L 365.226451 58.011063 
L 365.949512 57.084093 
L 366.672573 56.572661 
L 367.395635 57.947134 
L 368.118696 56.221052 
L 368.841757 56.34891 
L 370.28788 55.42194 
L 371.010941 57.020164 
L 371.734003 56.9882 
L 372.457064 56.732484 
L 373.180126 56.284981 
L 373.903187 55.997301 
L 375.34931 56.34891 
L 376.072371 57.979099 
L 376.795432 54.78265 
L 377.518494 56.093194 
L 378.241555 55.677656 
L 378.964616 55.453905 
L 379.687678 54.846579 
L 380.410739 55.869443 
L 381.1338 55.42194 
L 381.856862 55.42194 
L 383.302984 54.367112 
L 384.026046 55.805514 
L 384.749107 54.878544 
L 385.472168 55.389976 
L 386.19523 55.613727 
L 387.641353 53.568 
L 388.364414 54.015503 
L 389.087475 54.686757 
L 389.810537 54.079432 
L 390.533598 54.463006 
L 391.256659 53.663893 
L 391.979721 54.367112 
L 392.702782 54.846579 
L 393.425843 54.49497 
L 394.148905 54.303183 
L 395.595027 54.239254 
L 396.318089 53.951574 
L 397.04115 54.654792 
L 397.764211 54.20729 
L 398.487273 53.951574 
L 398.487273 53.951574 
" style="fill:none;stroke:#ff7f0e;stroke-linecap:square;stroke-width:1.5;"/>
   </g>
   <g id="line2d_21">
    <path clip-path="url(#p8dcad56b0c)" d="M 73.832727 286.181961 
L 74.555789 282.262106 
L 75.27885 266.279864 
L 76.724973 257.127928 
L 77.448034 258.557918 
L 79.617218 229.840352 
L 80.340279 244.039313 
L 81.063341 217.643378 
L 81.786402 225.331678 
L 82.509463 197.892692 
L 83.232525 220.335124 
L 83.955586 215.473158 
L 84.678647 198.515158 
L 85.401709 194.090601 
L 86.12477 197.051521 
L 86.847832 192.879315 
L 87.570893 187.865938 
L 88.293954 179.117763 
L 89.017016 181.086103 
L 89.740077 185.106898 
L 90.463138 181.473041 
L 91.1862 175.5512 
L 91.909261 175.803551 
L 92.632322 169.023716 
L 93.355384 173.280039 
L 94.078445 172.05193 
L 94.801506 170.420059 
L 95.524568 221.024884 
L 96.247629 207.969916 
L 96.97069 199.154448 
L 97.693752 188.236053 
L 98.416813 184.417138 
L 99.139874 176.072726 
L 99.862936 187.209825 
L 100.585997 191.954027 
L 101.309059 168.098428 
L 102.03212 171.41264 
L 103.478243 163.118698 
L 104.201304 171.479934 
L 104.924365 164.094456 
L 105.647427 177.654127 
L 106.370488 177.435422 
L 107.093549 157.466031 
L 107.816611 165.221625 
L 108.539672 150.06373 
L 109.262733 150.417022 
L 109.985795 150.400198 
L 110.708856 157.550148 
L 111.431917 151.426426 
L 112.154979 148.431859 
L 112.87804 142.863309 
L 113.601101 145.655996 
L 114.324163 141.769787 
L 115.047224 147.085986 
L 115.770285 142.644605 
L 116.493347 136.335825 
L 117.216408 139.734155 
L 117.93947 132.399147 
L 118.662531 138.304164 
L 119.385592 142.981073 
L 120.108654 127.167065 
L 120.831715 132.46644 
L 121.554776 121.665809 
L 122.277838 128.883053 
L 123.000899 126.10719 
L 123.72396 127.116595 
L 124.447022 128.597055 
L 125.170083 124.52579 
L 125.893144 121.312518 
L 126.616206 122.40604 
L 127.339267 117.62819 
L 128.062328 115.979496 
L 128.78539 116.686079 
L 129.508451 114.128921 
L 130.231512 115.121502 
L 130.954574 114.313978 
L 131.677635 113.085869 
L 132.400696 113.270927 
L 133.123758 113.674688 
L 133.846819 113.859746 
L 134.569881 113.18681 
L 135.292942 112.867165 
L 136.016003 111.739996 
L 136.739065 112.783048 
L 137.462126 112.682107 
L 138.185187 113.624218 
L 138.908249 168.418073 
L 139.63131 174.12121 
L 140.354371 144.326946 
L 141.077433 164.31316 
L 141.800494 136.285355 
L 142.523555 152.856416 
L 143.246617 144.091418 
L 143.969678 161.335416 
L 144.692739 145.302704 
L 145.415801 146.396226 
L 146.138862 142.678252 
L 146.861923 135.561948 
L 147.584985 137.479817 
L 148.308046 142.358607 
L 149.031108 154.269583 
L 149.754169 134.939482 
L 150.47723 142.173549 
L 151.200292 131.67574 
L 151.923353 139.481803 
L 152.646414 144.528827 
L 153.369476 139.296746 
L 154.092537 147.843039 
L 154.815598 136.487236 
L 155.53866 140.356621 
L 156.261721 134.182428 
L 156.984782 131.423389 
L 157.707844 135.477831 
L 158.430905 128.714819 
L 159.877028 129.286815 
L 161.32315 150.366551 
L 162.046212 122.523803 
L 162.769273 130.010222 
L 163.492334 126.561423 
L 164.215396 126.931538 
L 164.938457 132.214089 
L 165.661519 131.137391 
L 166.38458 137.631228 
L 167.107641 134.821718 
L 167.830703 123.768736 
L 168.553764 124.307085 
L 169.276825 128.647526 
L 169.999887 142.560488 
L 170.722948 127.705415 
L 171.446009 121.632163 
L 172.169071 123.566855 
L 172.892132 114.953268 
L 173.615193 123.516385 
L 174.338255 126.460482 
L 175.061316 120.97605 
L 175.784377 120.269466 
L 176.507439 127.183889 
L 177.2305 122.254629 
L 177.953561 116.04679 
L 178.676623 118.90677 
L 179.399684 115.626204 
L 180.122745 117.779601 
L 180.845807 121.413458 
L 181.568868 117.544073 
L 182.29193 116.753373 
L 183.014991 112.917635 
L 183.738052 119.041357 
L 184.461114 113.657865 
L 185.184175 121.12746 
L 185.907236 112.883988 
L 186.630298 113.220456 
L 187.353359 111.824113 
L 188.07642 113.254103 
L 188.799482 107.7192 
L 189.522543 110.797885 
L 190.245604 110.612827 
L 190.968666 106.82756 
L 191.691727 110.713768 
L 193.13785 104.842397 
L 193.860911 107.046264 
L 194.583972 106.1378 
L 195.307034 109.653893 
L 196.030095 103.361937 
L 196.753157 105.330276 
L 197.476218 100.333722 
L 198.199279 105.734038 
L 198.922341 102.352532 
L 199.645402 100.148665 
L 200.368463 105.851802 
L 201.091525 101.94877 
L 201.814586 101.090776 
L 202.537647 103.883462 
L 203.260709 101.040306 
L 203.98377 102.117004 
L 204.706831 99.744903 
L 205.429893 99.475728 
L 206.152954 99.744903 
L 206.876015 98.146679 
L 207.599077 94.916583 
L 208.322138 97.692447 
L 209.768261 97.995268 
L 210.491322 96.582101 
L 211.214383 95.454933 
L 211.937445 96.346574 
L 212.660506 95.202581 
L 213.383568 94.714702 
L 214.106629 95.673637 
L 214.82969 96.32975 
L 215.552752 94.428704 
L 216.275813 95.236228 
L 216.998874 94.546468 
L 217.721936 94.731526 
L 219.168058 94.781996 
L 219.89112 93.705298 
L 220.614181 93.705298 
L 221.337242 93.166949 
L 222.783365 93.46977 
L 223.506426 93.705298 
L 224.229488 93.772591 
L 224.952549 93.133302 
L 225.67561 147.20375 
L 226.398672 150.030083 
L 227.121733 153.361119 
L 227.844794 151.460073 
L 228.567856 139.162159 
L 229.290917 144.898942 
L 230.013979 141.769787 
L 230.73704 134.703954 
L 231.460101 140.659442 
L 232.183163 131.070097 
L 232.906224 133.812313 
L 233.629285 142.947426 
L 234.352347 135.881593 
L 235.075408 138.203224 
L 235.798469 132.853379 
L 236.521531 124.52579 
L 237.244592 140.827676 
L 237.967653 130.918686 
L 238.690715 136.403119 
L 239.413776 131.08692 
L 240.136837 132.735615 
L 240.859899 133.492668 
L 241.58296 131.120567 
L 242.306021 129.438226 
L 243.029083 133.223494 
L 243.752144 127.924119 
L 244.475206 133.946901 
L 245.198267 138.842514 
L 245.921328 124.761317 
L 246.64439 138.522869 
L 247.367451 125.282843 
L 248.813574 133.879607 
L 249.536635 129.185875 
L 250.259696 125.484724 
L 250.982758 123.785559 
L 252.42888 138.556516 
L 253.151942 135.191833 
L 253.875003 128.967171 
L 254.598064 137.883579 
L 255.321126 129.354109 
L 256.044187 131.743034 
L 256.767248 121.548046 
L 257.49031 118.671242 
L 258.213371 125.518371 
L 258.936432 128.9167 
L 259.659494 124.811788 
L 260.382555 132.769262 
L 261.105617 124.105204 
L 261.828678 121.564869 
L 262.551739 129.50552 
L 263.274801 120.790992 
L 263.997862 121.71628 
L 264.720923 127.957766 
L 265.443985 128.782113 
L 266.167046 126.443659 
L 266.890107 120.033938 
L 267.613169 127.604474 
L 268.33623 125.854839 
L 269.059291 118.015129 
L 269.782353 125.922133 
L 270.505414 119.091827 
L 271.228475 125.787546 
L 271.951537 120.807815 
L 272.674598 127.840002 
L 273.397659 115.979496 
L 274.120721 119.74794 
L 274.843782 120.050762 
L 275.566843 121.009696 
L 276.289905 128.142823 
L 277.012966 122.321923 
L 277.736028 122.641567 
L 278.459089 130.716805 
L 279.18215 123.331327 
L 279.905212 126.275424 
L 280.628273 119.159121 
L 281.351334 119.075004 
L 282.074396 123.280857 
L 282.797457 137.44617 
L 283.520518 119.74794 
L 284.24358 124.559436 
L 284.966641 124.609907 
L 285.689702 121.564869 
L 286.412764 111.504468 
L 287.135825 122.086395 
L 287.858886 129.724224 
L 288.581948 129.354109 
L 289.305009 116.988901 
L 290.02807 111.739996 
L 290.751132 116.349611 
L 291.474193 119.798411 
L 292.197255 119.562883 
L 292.920316 124.004264 
L 293.643377 113.893393 
L 294.366439 120.589111 
L 295.0895 121.497575 
L 295.812561 115.945849 
L 296.535623 113.052222 
L 297.258684 114.869151 
L 297.981745 123.449091 
L 298.704807 121.615339 
L 299.427868 113.741982 
L 300.150929 121.262048 
L 300.873991 122.136865 
L 301.597052 119.293708 
L 302.320113 120.38723 
L 303.043175 118.149716 
L 303.766236 121.934984 
L 304.489297 118.974063 
L 305.212359 113.304573 
L 305.93542 111.26894 
L 306.658481 123.348151 
L 307.381543 113.203633 
L 308.104604 114.650446 
L 308.827666 114.482212 
L 309.550727 111.252117 
L 310.273788 112.530696 
L 310.99685 120.202173 
L 311.719911 109.855774 
L 312.442972 114.953268 
L 314.612156 107.870611 
L 315.335218 110.730591 
L 316.058279 114.549506 
L 316.78134 112.412933 
L 317.504402 111.655879 
L 318.227463 106.793913 
L 318.950524 106.9285 
L 319.673586 115.289736 
L 320.396647 107.752847 
L 321.119708 105.734038 
L 321.84277 118.368421 
L 322.565831 110.42777 
L 323.288892 106.692972 
L 324.011954 106.962147 
L 324.735015 110.225889 
L 325.458077 107.281792 
L 326.181138 109.536129 
L 326.904199 108.240726 
L 327.627261 104.943337 
L 328.350322 104.01805 
L 329.073383 111.235294 
L 329.796445 110.52871 
L 330.519506 107.786494 
L 331.242567 109.468835 
L 331.965629 100.401016 
L 332.68869 111.605409 
L 333.411751 108.577194 
L 334.134813 110.225889 
L 334.857874 105.010631 
L 335.580935 107.651907 
L 336.303997 99.728079 
L 337.027058 102.907704 
L 337.750119 107.433202 
L 338.473181 106.457444 
L 339.196242 104.472282 
L 339.919304 103.075939 
L 340.642365 104.690986 
L 341.365426 99.324318 
L 342.088488 104.388165 
L 342.811549 103.580641 
L 343.53461 107.063087 
L 344.257672 104.926514 
L 344.980733 102.016064 
L 345.703794 104.623693 
L 346.426856 104.825573 
L 347.149917 100.434663 
L 347.872978 104.80875 
L 348.59604 102.722647 
L 349.319101 98.987849 
L 350.042162 98.584087 
L 350.765224 97.557859 
L 351.488285 102.201121 
L 352.211346 103.126409 
L 352.934408 101.881476 
L 353.657469 101.460891 
L 354.38053 98.230796 
L 355.103592 97.01951 
L 355.826653 98.39903 
L 356.549715 96.27928 
L 357.272776 96.464337 
L 357.995837 96.211986 
L 358.718899 100.804778 
L 359.44196 102.806764 
L 360.165021 96.430691 
L 360.888083 101.040306 
L 361.611144 98.180325 
L 362.334205 97.995268 
L 363.057267 96.178339 
L 364.503389 98.802792 
L 365.226451 96.817629 
L 365.949512 94.125883 
L 366.672573 95.269875 
L 367.395635 96.077399 
L 368.841757 93.385653 
L 369.564819 94.731526 
L 370.28788 93.015538 
L 371.010941 96.38022 
L 371.734003 95.69046 
L 372.457064 95.976458 
L 373.180126 94.075413 
L 373.903187 92.611776 
L 374.626248 94.79882 
L 376.072371 96.211986 
L 376.795432 93.116478 
L 377.518494 94.193177 
L 378.241555 93.789415 
L 378.964616 96.026929 
L 380.410739 93.772591 
L 381.1338 92.208014 
L 381.856862 94.378234 
L 382.579923 93.991296 
L 383.302984 92.813657 
L 384.026046 92.864127 
L 385.472168 93.234242 
L 386.19523 94.058589 
L 386.918291 92.746363 
L 387.641353 91.938839 
L 388.364414 90.912611 
L 389.087475 93.099655 
L 389.810537 92.544482 
L 390.533598 92.157544 
L 391.256659 91.417314 
L 391.979721 93.335183 
L 392.702782 92.460365 
L 393.425843 92.78001 
L 394.148905 91.501431 
L 395.595027 92.561306 
L 397.04115 91.972486 
L 398.487273 91.669665 
L 398.487273 91.669665 
" style="fill:none;stroke:#2ca02c;stroke-linecap:square;stroke-width:1.5;"/>
   </g>
   <g id="patch_3">
    <path d="M 57.6 307.584 
L 57.6 41.472 
" style="fill:none;stroke:#000000;stroke-linecap:square;stroke-linejoin:miter;stroke-width:0.8;"/>
   </g>
   <g id="patch_4">
    <path d="M 414.72 307.584 
L 414.72 41.472 
" style="fill:none;stroke:#000000;stroke-linecap:square;stroke-linejoin:miter;stroke-width:0.8;"/>
   </g>
   <g id="patch_5">
    <path d="M 57.6 307.584 
L 414.72 307.584 
" style="fill:none;stroke:#000000;stroke-linecap:square;stroke-linejoin:miter;stroke-width:0.8;"/>
   </g>
   <g id="patch_6">
    <path d="M 57.6 41.472 
L 414.72 41.472 
" style="fill:none;stroke:#000000;stroke-linecap:square;stroke-linejoin:miter;stroke-width:0.8;"/>
   </g>
   <g id="text_21">
    <!-- Training and Validation Accuracy -->
    <g transform="translate(138.4575 35.472)scale(0.12 -0.12)">
     <defs>
      <path d="M -19 4666 
L 3928 4666 
L 3928 4134 
L 2272 4134 
L 2272 0 
L 1638 0 
L 1638 4134 
L -19 4134 
L -19 4666 
z
" id="DejaVuSans-54" transform="scale(0.015625)"/>
      <path d="M 603 3500 
L 1178 3500 
L 1178 0 
L 603 0 
L 603 3500 
z
M 603 4863 
L 1178 4863 
L 1178 4134 
L 603 4134 
L 603 4863 
z
" id="DejaVuSans-69" transform="scale(0.015625)"/>
      <path d="M 3513 2113 
L 3513 0 
L 2938 0 
L 2938 2094 
Q 2938 2591 2744 2837 
Q 2550 3084 2163 3084 
Q 1697 3084 1428 2787 
Q 1159 2491 1159 1978 
L 1159 0 
L 581 0 
L 581 3500 
L 1159 3500 
L 1159 2956 
Q 1366 3272 1645 3428 
Q 1925 3584 2291 3584 
Q 2894 3584 3203 3211 
Q 3513 2838 3513 2113 
z
" id="DejaVuSans-6e" transform="scale(0.015625)"/>
      <path d="M 2906 1791 
Q 2906 2416 2648 2759 
Q 2391 3103 1925 3103 
Q 1463 3103 1205 2759 
Q 947 2416 947 1791 
Q 947 1169 1205 825 
Q 1463 481 1925 481 
Q 2391 481 2648 825 
Q 2906 1169 2906 1791 
z
M 3481 434 
Q 3481 -459 3084 -895 
Q 2688 -1331 1869 -1331 
Q 1566 -1331 1297 -1286 
Q 1028 -1241 775 -1147 
L 775 -588 
Q 1028 -725 1275 -790 
Q 1522 -856 1778 -856 
Q 2344 -856 2625 -561 
Q 2906 -266 2906 331 
L 2906 616 
Q 2728 306 2450 153 
Q 2172 0 1784 0 
Q 1141 0 747 490 
Q 353 981 353 1791 
Q 353 2603 747 3093 
Q 1141 3584 1784 3584 
Q 2172 3584 2450 3431 
Q 2728 3278 2906 2969 
L 2906 3500 
L 3481 3500 
L 3481 434 
z
" id="DejaVuSans-67" transform="scale(0.015625)"/>
      <path id="DejaVuSans-20" transform="scale(0.015625)"/>
      <path d="M 2906 2969 
L 2906 4863 
L 3481 4863 
L 3481 0 
L 2906 0 
L 2906 525 
Q 2725 213 2448 61 
Q 2172 -91 1784 -91 
Q 1150 -91 751 415 
Q 353 922 353 1747 
Q 353 2572 751 3078 
Q 1150 3584 1784 3584 
Q 2172 3584 2448 3432 
Q 2725 3281 2906 2969 
z
M 947 1747 
Q 947 1113 1208 752 
Q 1469 391 1925 391 
Q 2381 391 2643 752 
Q 2906 1113 2906 1747 
Q 2906 2381 2643 2742 
Q 2381 3103 1925 3103 
Q 1469 3103 1208 2742 
Q 947 2381 947 1747 
z
" id="DejaVuSans-64" transform="scale(0.015625)"/>
      <path d="M 1831 0 
L 50 4666 
L 709 4666 
L 2188 738 
L 3669 4666 
L 4325 4666 
L 2547 0 
L 1831 0 
z
" id="DejaVuSans-56" transform="scale(0.015625)"/>
      <path d="M 603 4863 
L 1178 4863 
L 1178 0 
L 603 0 
L 603 4863 
z
" id="DejaVuSans-6c" transform="scale(0.015625)"/>
      <path d="M 1172 4494 
L 1172 3500 
L 2356 3500 
L 2356 3053 
L 1172 3053 
L 1172 1153 
Q 1172 725 1289 603 
Q 1406 481 1766 481 
L 2356 481 
L 2356 0 
L 1766 0 
Q 1100 0 847 248 
Q 594 497 594 1153 
L 594 3053 
L 172 3053 
L 172 3500 
L 594 3500 
L 594 4494 
L 1172 4494 
z
" id="DejaVuSans-74" transform="scale(0.015625)"/>
     </defs>
     <use xlink:href="#DejaVuSans-54"/>
     <use x="46.333984" xlink:href="#DejaVuSans-72"/>
     <use x="87.447266" xlink:href="#DejaVuSans-61"/>
     <use x="148.726562" xlink:href="#DejaVuSans-69"/>
     <use x="176.509766" xlink:href="#DejaVuSans-6e"/>
     <use x="239.888672" xlink:href="#DejaVuSans-69"/>
     <use x="267.671875" xlink:href="#DejaVuSans-6e"/>
     <use x="331.050781" xlink:href="#DejaVuSans-67"/>
     <use x="394.527344" xlink:href="#DejaVuSans-20"/>
     <use x="426.314453" xlink:href="#DejaVuSans-61"/>
     <use x="487.59375" xlink:href="#DejaVuSans-6e"/>
     <use x="550.972656" xlink:href="#DejaVuSans-64"/>
     <use x="614.449219" xlink:href="#DejaVuSans-20"/>
     <use x="646.236328" xlink:href="#DejaVuSans-56"/>
     <use x="706.894531" xlink:href="#DejaVuSans-61"/>
     <use x="768.173828" xlink:href="#DejaVuSans-6c"/>
     <use x="795.957031" xlink:href="#DejaVuSans-69"/>
     <use x="823.740234" xlink:href="#DejaVuSans-64"/>
     <use x="887.216797" xlink:href="#DejaVuSans-61"/>
     <use x="948.496094" xlink:href="#DejaVuSans-74"/>
     <use x="987.705078" xlink:href="#DejaVuSans-69"/>
     <use x="1015.488281" xlink:href="#DejaVuSans-6f"/>
     <use x="1076.669922" xlink:href="#DejaVuSans-6e"/>
     <use x="1140.048828" xlink:href="#DejaVuSans-20"/>
     <use x="1171.835938" xlink:href="#DejaVuSans-41"/>
     <use x="1238.494141" xlink:href="#DejaVuSans-63"/>
     <use x="1293.474609" xlink:href="#DejaVuSans-63"/>
     <use x="1348.455078" xlink:href="#DejaVuSans-75"/>
     <use x="1411.833984" xlink:href="#DejaVuSans-72"/>
     <use x="1452.947266" xlink:href="#DejaVuSans-61"/>
     <use x="1514.226562" xlink:href="#DejaVuSans-63"/>
     <use x="1569.207031" xlink:href="#DejaVuSans-79"/>
    </g>
   </g>
   <g id="legend_1">
    <g id="patch_7">
     <path d="M 239.893438 302.584 
L 407.72 302.584 
Q 409.72 302.584 409.72 300.584 
L 409.72 257.549625 
Q 409.72 255.549625 407.72 255.549625 
L 239.893438 255.549625 
Q 237.893438 255.549625 237.893438 257.549625 
L 237.893438 300.584 
Q 237.893438 302.584 239.893438 302.584 
z
" style="fill:#ffffff;opacity:0.8;stroke:#cccccc;stroke-linejoin:miter;"/>
    </g>
    <g id="line2d_22">
     <path d="M 241.893438 263.648062 
L 261.893438 263.648062 
" style="fill:none;stroke:#1f77b4;stroke-linecap:square;stroke-width:1.5;"/>
    </g>
    <g id="line2d_23"/>
    <g id="text_22">
     <!-- Train Accuracy -->
     <g transform="translate(269.893438 267.148062)scale(0.1 -0.1)">
      <use xlink:href="#DejaVuSans-54"/>
      <use x="46.333984" xlink:href="#DejaVuSans-72"/>
      <use x="87.447266" xlink:href="#DejaVuSans-61"/>
      <use x="148.726562" xlink:href="#DejaVuSans-69"/>
      <use x="176.509766" xlink:href="#DejaVuSans-6e"/>
      <use x="239.888672" xlink:href="#DejaVuSans-20"/>
      <use x="271.675781" xlink:href="#DejaVuSans-41"/>
      <use x="338.333984" xlink:href="#DejaVuSans-63"/>
      <use x="393.314453" xlink:href="#DejaVuSans-63"/>
      <use x="448.294922" xlink:href="#DejaVuSans-75"/>
      <use x="511.673828" xlink:href="#DejaVuSans-72"/>
      <use x="552.787109" xlink:href="#DejaVuSans-61"/>
      <use x="614.066406" xlink:href="#DejaVuSans-63"/>
      <use x="669.046875" xlink:href="#DejaVuSans-79"/>
     </g>
    </g>
    <g id="line2d_24">
     <path d="M 241.893438 278.326188 
L 261.893438 278.326188 
" style="fill:none;stroke:#ff7f0e;stroke-linecap:square;stroke-width:1.5;"/>
    </g>
    <g id="line2d_25"/>
    <g id="text_23">
     <!-- Validation Accuracy -->
     <g transform="translate(269.893438 281.826188)scale(0.1 -0.1)">
      <use xlink:href="#DejaVuSans-56"/>
      <use x="60.658203" xlink:href="#DejaVuSans-61"/>
      <use x="121.9375" xlink:href="#DejaVuSans-6c"/>
      <use x="149.720703" xlink:href="#DejaVuSans-69"/>
      <use x="177.503906" xlink:href="#DejaVuSans-64"/>
      <use x="240.980469" xlink:href="#DejaVuSans-61"/>
      <use x="302.259766" xlink:href="#DejaVuSans-74"/>
      <use x="341.46875" xlink:href="#DejaVuSans-69"/>
      <use x="369.251953" xlink:href="#DejaVuSans-6f"/>
      <use x="430.433594" xlink:href="#DejaVuSans-6e"/>
      <use x="493.8125" xlink:href="#DejaVuSans-20"/>
      <use x="525.599609" xlink:href="#DejaVuSans-41"/>
      <use x="592.257812" xlink:href="#DejaVuSans-63"/>
      <use x="647.238281" xlink:href="#DejaVuSans-63"/>
      <use x="702.21875" xlink:href="#DejaVuSans-75"/>
      <use x="765.597656" xlink:href="#DejaVuSans-72"/>
      <use x="806.710938" xlink:href="#DejaVuSans-61"/>
      <use x="867.990234" xlink:href="#DejaVuSans-63"/>
      <use x="922.970703" xlink:href="#DejaVuSans-79"/>
     </g>
    </g>
    <g id="line2d_26">
     <path d="M 241.893438 293.004312 
L 261.893438 293.004312 
" style="fill:none;stroke:#2ca02c;stroke-linecap:square;stroke-width:1.5;"/>
    </g>
    <g id="line2d_27"/>
    <g id="text_24">
     <!-- Robust Validation Accuracy -->
     <g transform="translate(269.893438 296.504312)scale(0.1 -0.1)">
      <defs>
       <path d="M 2841 2188 
Q 3044 2119 3236 1894 
Q 3428 1669 3622 1275 
L 4263 0 
L 3584 0 
L 2988 1197 
Q 2756 1666 2539 1819 
Q 2322 1972 1947 1972 
L 1259 1972 
L 1259 0 
L 628 0 
L 628 4666 
L 2053 4666 
Q 2853 4666 3247 4331 
Q 3641 3997 3641 3322 
Q 3641 2881 3436 2590 
Q 3231 2300 2841 2188 
z
M 1259 4147 
L 1259 2491 
L 2053 2491 
Q 2509 2491 2742 2702 
Q 2975 2913 2975 3322 
Q 2975 3731 2742 3939 
Q 2509 4147 2053 4147 
L 1259 4147 
z
" id="DejaVuSans-52" transform="scale(0.015625)"/>
       <path d="M 3116 1747 
Q 3116 2381 2855 2742 
Q 2594 3103 2138 3103 
Q 1681 3103 1420 2742 
Q 1159 2381 1159 1747 
Q 1159 1113 1420 752 
Q 1681 391 2138 391 
Q 2594 391 2855 752 
Q 3116 1113 3116 1747 
z
M 1159 2969 
Q 1341 3281 1617 3432 
Q 1894 3584 2278 3584 
Q 2916 3584 3314 3078 
Q 3713 2572 3713 1747 
Q 3713 922 3314 415 
Q 2916 -91 2278 -91 
Q 1894 -91 1617 61 
Q 1341 213 1159 525 
L 1159 0 
L 581 0 
L 581 4863 
L 1159 4863 
L 1159 2969 
z
" id="DejaVuSans-62" transform="scale(0.015625)"/>
      </defs>
      <use xlink:href="#DejaVuSans-52"/>
      <use x="64.982422" xlink:href="#DejaVuSans-6f"/>
      <use x="126.164062" xlink:href="#DejaVuSans-62"/>
      <use x="189.640625" xlink:href="#DejaVuSans-75"/>
      <use x="253.019531" xlink:href="#DejaVuSans-73"/>
      <use x="305.119141" xlink:href="#DejaVuSans-74"/>
      <use x="344.328125" xlink:href="#DejaVuSans-20"/>
      <use x="376.115234" xlink:href="#DejaVuSans-56"/>
      <use x="436.773438" xlink:href="#DejaVuSans-61"/>
      <use x="498.052734" xlink:href="#DejaVuSans-6c"/>
      <use x="525.835938" xlink:href="#DejaVuSans-69"/>
      <use x="553.619141" xlink:href="#DejaVuSans-64"/>
      <use x="617.095703" xlink:href="#DejaVuSans-61"/>
      <use x="678.375" xlink:href="#DejaVuSans-74"/>
      <use x="717.583984" xlink:href="#DejaVuSans-69"/>
      <use x="745.367188" xlink:href="#DejaVuSans-6f"/>
      <use x="806.548828" xlink:href="#DejaVuSans-6e"/>
      <use x="869.927734" xlink:href="#DejaVuSans-20"/>
      <use x="901.714844" xlink:href="#DejaVuSans-41"/>
      <use x="968.373047" xlink:href="#DejaVuSans-63"/>
      <use x="1023.353516" xlink:href="#DejaVuSans-63"/>
      <use x="1078.333984" xlink:href="#DejaVuSans-75"/>
      <use x="1141.712891" xlink:href="#DejaVuSans-72"/>
      <use x="1182.826172" xlink:href="#DejaVuSans-61"/>
      <use x="1244.105469" xlink:href="#DejaVuSans-63"/>
      <use x="1299.085938" xlink:href="#DejaVuSans-79"/>
     </g>
    </g>
   </g>
  </g>
 </g>
 <defs>
  <clipPath id="p8dcad56b0c">
   <rect height="266.112" width="357.12" x="57.6" y="41.472"/>
  </clipPath>
 </defs>
</svg>
