<?xml version="1.0" encoding="utf-8" standalone="no"?>
<!DOCTYPE svg PUBLIC "-//W3C//DTD SVG 1.1//EN"
  "http://www.w3.org/Graphics/SVG/1.1/DTD/svg11.dtd">
<svg height="345.6pt" version="1.1" viewBox="0 0 460.8 345.6" width="460.8pt" xmlns="http://www.w3.org/2000/svg" xmlns:xlink="http://www.w3.org/1999/xlink">
 <metadata>
  <rdf:RDF xmlns:cc="http://creativecommons.org/ns#" xmlns:dc="http://purl.org/dc/elements/1.1/" xmlns:rdf="http://www.w3.org/1999/02/22-rdf-syntax-ns#">
   <cc:Work>
    <dc:type rdf:resource="http://purl.org/dc/dcmitype/StillImage"/>
    <dc:date>2024-02-20T12:42:34.854535</dc:date>
    <dc:format>image/svg+xml</dc:format>
    <dc:creator>
     <cc:Agent>
      <dc:title>Matplotlib v3.4.3, https://matplotlib.org/</dc:title>
     </cc:Agent>
    </dc:creator>
   </cc:Work>
  </rdf:RDF>
 </metadata>
 <defs>
  <style type="text/css">*{stroke-linecap:butt;stroke-linejoin:round;}</style>
 </defs>
 <g id="figure_1">
  <g id="patch_1">
   <path d="M 0 345.6 
L 460.8 345.6 
L 460.8 0 
L 0 0 
z
" style="fill:#ffffff;"/>
  </g>
  <g id="axes_1">
   <g id="patch_2">
    <path d="M 57.6 307.584 
L 414.72 307.584 
L 414.72 41.472 
L 57.6 41.472 
z
" style="fill:#ffffff;"/>
   </g>
   <g id="matplotlib.axis_1">
    <g id="xtick_1">
     <g id="line2d_1">
      <defs>
       <path d="M 0 0 
L 0 3.5 
" id="m4c41f6391b" style="stroke:#000000;stroke-width:0.8;"/>
      </defs>
      <g>
       <use style="stroke:#000000;stroke-width:0.8;" x="73.832727" xlink:href="#m4c41f6391b" y="307.584"/>
      </g>
     </g>
     <g id="text_1">
      <!-- 1 -->
      <g transform="translate(70.651477 322.182437)scale(0.1 -0.1)">
       <defs>
        <path d="M 794 531 
L 1825 531 
L 1825 4091 
L 703 3866 
L 703 4441 
L 1819 4666 
L 2450 4666 
L 2450 531 
L 3481 531 
L 3481 0 
L 794 0 
L 794 531 
z
" id="DejaVuSans-31" transform="scale(0.015625)"/>
       </defs>
       <use xlink:href="#DejaVuSans-31"/>
      </g>
     </g>
    </g>
    <g id="xtick_2">
     <g id="line2d_2">
      <g>
       <use style="stroke:#000000;stroke-width:0.8;" x="109.664165" xlink:href="#m4c41f6391b" y="307.584"/>
      </g>
     </g>
     <g id="text_2">
      <!-- 34 -->
      <g transform="translate(103.301665 322.182437)scale(0.1 -0.1)">
       <defs>
        <path d="M 2597 2516 
Q 3050 2419 3304 2112 
Q 3559 1806 3559 1356 
Q 3559 666 3084 287 
Q 2609 -91 1734 -91 
Q 1441 -91 1130 -33 
Q 819 25 488 141 
L 488 750 
Q 750 597 1062 519 
Q 1375 441 1716 441 
Q 2309 441 2620 675 
Q 2931 909 2931 1356 
Q 2931 1769 2642 2001 
Q 2353 2234 1838 2234 
L 1294 2234 
L 1294 2753 
L 1863 2753 
Q 2328 2753 2575 2939 
Q 2822 3125 2822 3475 
Q 2822 3834 2567 4026 
Q 2313 4219 1838 4219 
Q 1578 4219 1281 4162 
Q 984 4106 628 3988 
L 628 4550 
Q 988 4650 1302 4700 
Q 1616 4750 1894 4750 
Q 2613 4750 3031 4423 
Q 3450 4097 3450 3541 
Q 3450 3153 3228 2886 
Q 3006 2619 2597 2516 
z
" id="DejaVuSans-33" transform="scale(0.015625)"/>
        <path d="M 2419 4116 
L 825 1625 
L 2419 1625 
L 2419 4116 
z
M 2253 4666 
L 3047 4666 
L 3047 1625 
L 3713 1625 
L 3713 1100 
L 3047 1100 
L 3047 0 
L 2419 0 
L 2419 1100 
L 313 1100 
L 313 1709 
L 2253 4666 
z
" id="DejaVuSans-34" transform="scale(0.015625)"/>
       </defs>
       <use xlink:href="#DejaVuSans-33"/>
       <use x="63.623047" xlink:href="#DejaVuSans-34"/>
      </g>
     </g>
    </g>
    <g id="xtick_3">
     <g id="line2d_3">
      <g>
       <use style="stroke:#000000;stroke-width:0.8;" x="145.495604" xlink:href="#m4c41f6391b" y="307.584"/>
      </g>
     </g>
     <g id="text_3">
      <!-- 67 -->
      <g transform="translate(139.133104 322.182437)scale(0.1 -0.1)">
       <defs>
        <path d="M 2113 2584 
Q 1688 2584 1439 2293 
Q 1191 2003 1191 1497 
Q 1191 994 1439 701 
Q 1688 409 2113 409 
Q 2538 409 2786 701 
Q 3034 994 3034 1497 
Q 3034 2003 2786 2293 
Q 2538 2584 2113 2584 
z
M 3366 4563 
L 3366 3988 
Q 3128 4100 2886 4159 
Q 2644 4219 2406 4219 
Q 1781 4219 1451 3797 
Q 1122 3375 1075 2522 
Q 1259 2794 1537 2939 
Q 1816 3084 2150 3084 
Q 2853 3084 3261 2657 
Q 3669 2231 3669 1497 
Q 3669 778 3244 343 
Q 2819 -91 2113 -91 
Q 1303 -91 875 529 
Q 447 1150 447 2328 
Q 447 3434 972 4092 
Q 1497 4750 2381 4750 
Q 2619 4750 2861 4703 
Q 3103 4656 3366 4563 
z
" id="DejaVuSans-36" transform="scale(0.015625)"/>
        <path d="M 525 4666 
L 3525 4666 
L 3525 4397 
L 1831 0 
L 1172 0 
L 2766 4134 
L 525 4134 
L 525 4666 
z
" id="DejaVuSans-37" transform="scale(0.015625)"/>
       </defs>
       <use xlink:href="#DejaVuSans-36"/>
       <use x="63.623047" xlink:href="#DejaVuSans-37"/>
      </g>
     </g>
    </g>
    <g id="xtick_4">
     <g id="line2d_4">
      <g>
       <use style="stroke:#000000;stroke-width:0.8;" x="181.327042" xlink:href="#m4c41f6391b" y="307.584"/>
      </g>
     </g>
     <g id="text_4">
      <!-- 100 -->
      <g transform="translate(171.783292 322.182437)scale(0.1 -0.1)">
       <defs>
        <path d="M 2034 4250 
Q 1547 4250 1301 3770 
Q 1056 3291 1056 2328 
Q 1056 1369 1301 889 
Q 1547 409 2034 409 
Q 2525 409 2770 889 
Q 3016 1369 3016 2328 
Q 3016 3291 2770 3770 
Q 2525 4250 2034 4250 
z
M 2034 4750 
Q 2819 4750 3233 4129 
Q 3647 3509 3647 2328 
Q 3647 1150 3233 529 
Q 2819 -91 2034 -91 
Q 1250 -91 836 529 
Q 422 1150 422 2328 
Q 422 3509 836 4129 
Q 1250 4750 2034 4750 
z
" id="DejaVuSans-30" transform="scale(0.015625)"/>
       </defs>
       <use xlink:href="#DejaVuSans-31"/>
       <use x="63.623047" xlink:href="#DejaVuSans-30"/>
       <use x="127.246094" xlink:href="#DejaVuSans-30"/>
      </g>
     </g>
    </g>
    <g id="xtick_5">
     <g id="line2d_5">
      <g>
       <use style="stroke:#000000;stroke-width:0.8;" x="217.15848" xlink:href="#m4c41f6391b" y="307.584"/>
      </g>
     </g>
     <g id="text_5">
      <!-- 133 -->
      <g transform="translate(207.61473 322.182437)scale(0.1 -0.1)">
       <use xlink:href="#DejaVuSans-31"/>
       <use x="63.623047" xlink:href="#DejaVuSans-33"/>
       <use x="127.246094" xlink:href="#DejaVuSans-33"/>
      </g>
     </g>
    </g>
    <g id="xtick_6">
     <g id="line2d_6">
      <g>
       <use style="stroke:#000000;stroke-width:0.8;" x="254.075719" xlink:href="#m4c41f6391b" y="307.584"/>
      </g>
     </g>
     <g id="text_6">
      <!-- 167 -->
      <g transform="translate(244.531969 322.182437)scale(0.1 -0.1)">
       <use xlink:href="#DejaVuSans-31"/>
       <use x="63.623047" xlink:href="#DejaVuSans-36"/>
       <use x="127.246094" xlink:href="#DejaVuSans-37"/>
      </g>
     </g>
    </g>
    <g id="xtick_7">
     <g id="line2d_7">
      <g>
       <use style="stroke:#000000;stroke-width:0.8;" x="289.907157" xlink:href="#m4c41f6391b" y="307.584"/>
      </g>
     </g>
     <g id="text_7">
      <!-- 200 -->
      <g transform="translate(280.363407 322.182437)scale(0.1 -0.1)">
       <defs>
        <path d="M 1228 531 
L 3431 531 
L 3431 0 
L 469 0 
L 469 531 
Q 828 903 1448 1529 
Q 2069 2156 2228 2338 
Q 2531 2678 2651 2914 
Q 2772 3150 2772 3378 
Q 2772 3750 2511 3984 
Q 2250 4219 1831 4219 
Q 1534 4219 1204 4116 
Q 875 4013 500 3803 
L 500 4441 
Q 881 4594 1212 4672 
Q 1544 4750 1819 4750 
Q 2544 4750 2975 4387 
Q 3406 4025 3406 3419 
Q 3406 3131 3298 2873 
Q 3191 2616 2906 2266 
Q 2828 2175 2409 1742 
Q 1991 1309 1228 531 
z
" id="DejaVuSans-32" transform="scale(0.015625)"/>
       </defs>
       <use xlink:href="#DejaVuSans-32"/>
       <use x="63.623047" xlink:href="#DejaVuSans-30"/>
       <use x="127.246094" xlink:href="#DejaVuSans-30"/>
      </g>
     </g>
    </g>
    <g id="xtick_8">
     <g id="line2d_8">
      <g>
       <use style="stroke:#000000;stroke-width:0.8;" x="325.738595" xlink:href="#m4c41f6391b" y="307.584"/>
      </g>
     </g>
     <g id="text_8">
      <!-- 233 -->
      <g transform="translate(316.194845 322.182437)scale(0.1 -0.1)">
       <use xlink:href="#DejaVuSans-32"/>
       <use x="63.623047" xlink:href="#DejaVuSans-33"/>
       <use x="127.246094" xlink:href="#DejaVuSans-33"/>
      </g>
     </g>
    </g>
    <g id="xtick_9">
     <g id="line2d_9">
      <g>
       <use style="stroke:#000000;stroke-width:0.8;" x="361.570033" xlink:href="#m4c41f6391b" y="307.584"/>
      </g>
     </g>
     <g id="text_9">
      <!-- 266 -->
      <g transform="translate(352.026283 322.182437)scale(0.1 -0.1)">
       <use xlink:href="#DejaVuSans-32"/>
       <use x="63.623047" xlink:href="#DejaVuSans-36"/>
       <use x="127.246094" xlink:href="#DejaVuSans-36"/>
      </g>
     </g>
    </g>
    <g id="xtick_10">
     <g id="line2d_10">
      <g>
       <use style="stroke:#000000;stroke-width:0.8;" x="398.487273" xlink:href="#m4c41f6391b" y="307.584"/>
      </g>
     </g>
     <g id="text_10">
      <!-- 300 -->
      <g transform="translate(388.943523 322.182437)scale(0.1 -0.1)">
       <use xlink:href="#DejaVuSans-33"/>
       <use x="63.623047" xlink:href="#DejaVuSans-30"/>
       <use x="127.246094" xlink:href="#DejaVuSans-30"/>
      </g>
     </g>
    </g>
    <g id="text_11">
     <!-- Epochs -->
     <g transform="translate(218.244375 335.860562)scale(0.1 -0.1)">
      <defs>
       <path d="M 628 4666 
L 3578 4666 
L 3578 4134 
L 1259 4134 
L 1259 2753 
L 3481 2753 
L 3481 2222 
L 1259 2222 
L 1259 531 
L 3634 531 
L 3634 0 
L 628 0 
L 628 4666 
z
" id="DejaVuSans-45" transform="scale(0.015625)"/>
       <path d="M 1159 525 
L 1159 -1331 
L 581 -1331 
L 581 3500 
L 1159 3500 
L 1159 2969 
Q 1341 3281 1617 3432 
Q 1894 3584 2278 3584 
Q 2916 3584 3314 3078 
Q 3713 2572 3713 1747 
Q 3713 922 3314 415 
Q 2916 -91 2278 -91 
Q 1894 -91 1617 61 
Q 1341 213 1159 525 
z
M 3116 1747 
Q 3116 2381 2855 2742 
Q 2594 3103 2138 3103 
Q 1681 3103 1420 2742 
Q 1159 2381 1159 1747 
Q 1159 1113 1420 752 
Q 1681 391 2138 391 
Q 2594 391 2855 752 
Q 3116 1113 3116 1747 
z
" id="DejaVuSans-70" transform="scale(0.015625)"/>
       <path d="M 1959 3097 
Q 1497 3097 1228 2736 
Q 959 2375 959 1747 
Q 959 1119 1226 758 
Q 1494 397 1959 397 
Q 2419 397 2687 759 
Q 2956 1122 2956 1747 
Q 2956 2369 2687 2733 
Q 2419 3097 1959 3097 
z
M 1959 3584 
Q 2709 3584 3137 3096 
Q 3566 2609 3566 1747 
Q 3566 888 3137 398 
Q 2709 -91 1959 -91 
Q 1206 -91 779 398 
Q 353 888 353 1747 
Q 353 2609 779 3096 
Q 1206 3584 1959 3584 
z
" id="DejaVuSans-6f" transform="scale(0.015625)"/>
       <path d="M 3122 3366 
L 3122 2828 
Q 2878 2963 2633 3030 
Q 2388 3097 2138 3097 
Q 1578 3097 1268 2742 
Q 959 2388 959 1747 
Q 959 1106 1268 751 
Q 1578 397 2138 397 
Q 2388 397 2633 464 
Q 2878 531 3122 666 
L 3122 134 
Q 2881 22 2623 -34 
Q 2366 -91 2075 -91 
Q 1284 -91 818 406 
Q 353 903 353 1747 
Q 353 2603 823 3093 
Q 1294 3584 2113 3584 
Q 2378 3584 2631 3529 
Q 2884 3475 3122 3366 
z
" id="DejaVuSans-63" transform="scale(0.015625)"/>
       <path d="M 3513 2113 
L 3513 0 
L 2938 0 
L 2938 2094 
Q 2938 2591 2744 2837 
Q 2550 3084 2163 3084 
Q 1697 3084 1428 2787 
Q 1159 2491 1159 1978 
L 1159 0 
L 581 0 
L 581 4863 
L 1159 4863 
L 1159 2956 
Q 1366 3272 1645 3428 
Q 1925 3584 2291 3584 
Q 2894 3584 3203 3211 
Q 3513 2838 3513 2113 
z
" id="DejaVuSans-68" transform="scale(0.015625)"/>
       <path d="M 2834 3397 
L 2834 2853 
Q 2591 2978 2328 3040 
Q 2066 3103 1784 3103 
Q 1356 3103 1142 2972 
Q 928 2841 928 2578 
Q 928 2378 1081 2264 
Q 1234 2150 1697 2047 
L 1894 2003 
Q 2506 1872 2764 1633 
Q 3022 1394 3022 966 
Q 3022 478 2636 193 
Q 2250 -91 1575 -91 
Q 1294 -91 989 -36 
Q 684 19 347 128 
L 347 722 
Q 666 556 975 473 
Q 1284 391 1588 391 
Q 1994 391 2212 530 
Q 2431 669 2431 922 
Q 2431 1156 2273 1281 
Q 2116 1406 1581 1522 
L 1381 1569 
Q 847 1681 609 1914 
Q 372 2147 372 2553 
Q 372 3047 722 3315 
Q 1072 3584 1716 3584 
Q 2034 3584 2315 3537 
Q 2597 3491 2834 3397 
z
" id="DejaVuSans-73" transform="scale(0.015625)"/>
      </defs>
      <use xlink:href="#DejaVuSans-45"/>
      <use x="63.183594" xlink:href="#DejaVuSans-70"/>
      <use x="126.660156" xlink:href="#DejaVuSans-6f"/>
      <use x="187.841797" xlink:href="#DejaVuSans-63"/>
      <use x="242.822266" xlink:href="#DejaVuSans-68"/>
      <use x="306.201172" xlink:href="#DejaVuSans-73"/>
     </g>
    </g>
   </g>
   <g id="matplotlib.axis_2">
    <g id="ytick_1">
     <g id="line2d_11">
      <defs>
       <path d="M 0 0 
L -3.5 0 
" id="m31ea9e5a9b" style="stroke:#000000;stroke-width:0.8;"/>
      </defs>
      <g>
       <use style="stroke:#000000;stroke-width:0.8;" x="57.6" xlink:href="#m31ea9e5a9b" y="307.217846"/>
      </g>
     </g>
     <g id="text_12">
      <!-- 0 -->
      <g transform="translate(44.2375 311.017064)scale(0.1 -0.1)">
       <use xlink:href="#DejaVuSans-30"/>
      </g>
     </g>
    </g>
    <g id="ytick_2">
     <g id="line2d_12">
      <g>
       <use style="stroke:#000000;stroke-width:0.8;" x="57.6" xlink:href="#m31ea9e5a9b" y="248.539278"/>
      </g>
     </g>
     <g id="text_13">
      <!-- 20 -->
      <g transform="translate(37.875 252.338497)scale(0.1 -0.1)">
       <use xlink:href="#DejaVuSans-32"/>
       <use x="63.623047" xlink:href="#DejaVuSans-30"/>
      </g>
     </g>
    </g>
    <g id="ytick_3">
     <g id="line2d_13">
      <g>
       <use style="stroke:#000000;stroke-width:0.8;" x="57.6" xlink:href="#m31ea9e5a9b" y="189.86071"/>
      </g>
     </g>
     <g id="text_14">
      <!-- 40 -->
      <g transform="translate(37.875 193.659929)scale(0.1 -0.1)">
       <use xlink:href="#DejaVuSans-34"/>
       <use x="63.623047" xlink:href="#DejaVuSans-30"/>
      </g>
     </g>
    </g>
    <g id="ytick_4">
     <g id="line2d_14">
      <g>
       <use style="stroke:#000000;stroke-width:0.8;" x="57.6" xlink:href="#m31ea9e5a9b" y="131.182142"/>
      </g>
     </g>
     <g id="text_15">
      <!-- 60 -->
      <g transform="translate(37.875 134.981361)scale(0.1 -0.1)">
       <use xlink:href="#DejaVuSans-36"/>
       <use x="63.623047" xlink:href="#DejaVuSans-30"/>
      </g>
     </g>
    </g>
    <g id="ytick_5">
     <g id="line2d_15">
      <g>
       <use style="stroke:#000000;stroke-width:0.8;" x="57.6" xlink:href="#m31ea9e5a9b" y="72.503574"/>
      </g>
     </g>
     <g id="text_16">
      <!-- 80 -->
      <g transform="translate(37.875 76.302793)scale(0.1 -0.1)">
       <defs>
        <path d="M 2034 2216 
Q 1584 2216 1326 1975 
Q 1069 1734 1069 1313 
Q 1069 891 1326 650 
Q 1584 409 2034 409 
Q 2484 409 2743 651 
Q 3003 894 3003 1313 
Q 3003 1734 2745 1975 
Q 2488 2216 2034 2216 
z
M 1403 2484 
Q 997 2584 770 2862 
Q 544 3141 544 3541 
Q 544 4100 942 4425 
Q 1341 4750 2034 4750 
Q 2731 4750 3128 4425 
Q 3525 4100 3525 3541 
Q 3525 3141 3298 2862 
Q 3072 2584 2669 2484 
Q 3125 2378 3379 2068 
Q 3634 1759 3634 1313 
Q 3634 634 3220 271 
Q 2806 -91 2034 -91 
Q 1263 -91 848 271 
Q 434 634 434 1313 
Q 434 1759 690 2068 
Q 947 2378 1403 2484 
z
M 1172 3481 
Q 1172 3119 1398 2916 
Q 1625 2713 2034 2713 
Q 2441 2713 2670 2916 
Q 2900 3119 2900 3481 
Q 2900 3844 2670 4047 
Q 2441 4250 2034 4250 
Q 1625 4250 1398 4047 
Q 1172 3844 1172 3481 
z
" id="DejaVuSans-38" transform="scale(0.015625)"/>
       </defs>
       <use xlink:href="#DejaVuSans-38"/>
       <use x="63.623047" xlink:href="#DejaVuSans-30"/>
      </g>
     </g>
    </g>
    <g id="text_17">
     <!-- Accuracy -->
     <g transform="translate(31.795312 197.356125)rotate(-90)scale(0.1 -0.1)">
      <defs>
       <path d="M 2188 4044 
L 1331 1722 
L 3047 1722 
L 2188 4044 
z
M 1831 4666 
L 2547 4666 
L 4325 0 
L 3669 0 
L 3244 1197 
L 1141 1197 
L 716 0 
L 50 0 
L 1831 4666 
z
" id="DejaVuSans-41" transform="scale(0.015625)"/>
       <path d="M 544 1381 
L 544 3500 
L 1119 3500 
L 1119 1403 
Q 1119 906 1312 657 
Q 1506 409 1894 409 
Q 2359 409 2629 706 
Q 2900 1003 2900 1516 
L 2900 3500 
L 3475 3500 
L 3475 0 
L 2900 0 
L 2900 538 
Q 2691 219 2414 64 
Q 2138 -91 1772 -91 
Q 1169 -91 856 284 
Q 544 659 544 1381 
z
M 1991 3584 
L 1991 3584 
z
" id="DejaVuSans-75" transform="scale(0.015625)"/>
       <path d="M 2631 2963 
Q 2534 3019 2420 3045 
Q 2306 3072 2169 3072 
Q 1681 3072 1420 2755 
Q 1159 2438 1159 1844 
L 1159 0 
L 581 0 
L 581 3500 
L 1159 3500 
L 1159 2956 
Q 1341 3275 1631 3429 
Q 1922 3584 2338 3584 
Q 2397 3584 2469 3576 
Q 2541 3569 2628 3553 
L 2631 2963 
z
" id="DejaVuSans-72" transform="scale(0.015625)"/>
       <path d="M 2194 1759 
Q 1497 1759 1228 1600 
Q 959 1441 959 1056 
Q 959 750 1161 570 
Q 1363 391 1709 391 
Q 2188 391 2477 730 
Q 2766 1069 2766 1631 
L 2766 1759 
L 2194 1759 
z
M 3341 1997 
L 3341 0 
L 2766 0 
L 2766 531 
Q 2569 213 2275 61 
Q 1981 -91 1556 -91 
Q 1019 -91 701 211 
Q 384 513 384 1019 
Q 384 1609 779 1909 
Q 1175 2209 1959 2209 
L 2766 2209 
L 2766 2266 
Q 2766 2663 2505 2880 
Q 2244 3097 1772 3097 
Q 1472 3097 1187 3025 
Q 903 2953 641 2809 
L 641 3341 
Q 956 3463 1253 3523 
Q 1550 3584 1831 3584 
Q 2591 3584 2966 3190 
Q 3341 2797 3341 1997 
z
" id="DejaVuSans-61" transform="scale(0.015625)"/>
       <path d="M 2059 -325 
Q 1816 -950 1584 -1140 
Q 1353 -1331 966 -1331 
L 506 -1331 
L 506 -850 
L 844 -850 
Q 1081 -850 1212 -737 
Q 1344 -625 1503 -206 
L 1606 56 
L 191 3500 
L 800 3500 
L 1894 763 
L 2988 3500 
L 3597 3500 
L 2059 -325 
z
" id="DejaVuSans-79" transform="scale(0.015625)"/>
      </defs>
      <use xlink:href="#DejaVuSans-41"/>
      <use x="66.658203" xlink:href="#DejaVuSans-63"/>
      <use x="121.638672" xlink:href="#DejaVuSans-63"/>
      <use x="176.619141" xlink:href="#DejaVuSans-75"/>
      <use x="239.998047" xlink:href="#DejaVuSans-72"/>
      <use x="281.111328" xlink:href="#DejaVuSans-61"/>
      <use x="342.390625" xlink:href="#DejaVuSans-63"/>
      <use x="397.371094" xlink:href="#DejaVuSans-79"/>
     </g>
    </g>
   </g>
   <g id="line2d_16">
    <path clip-path="url(#pcd68165734)" d="M 73.832727 295.488 
L 76.00433 279.961651 
L 77.090131 274.252226 
L 78.175932 264.699355 
L 79.261733 256.343527 
L 80.347534 251.966106 
L 81.433335 242.266539 
L 82.519137 216.295405 
L 83.604938 208.925377 
L 85.77654 190.048481 
L 86.862341 188.317463 
L 87.948142 174.439982 
L 89.033943 182.71366 
L 90.119745 170.314879 
L 91.205546 173.876668 
L 92.291347 164.28859 
L 93.377148 162.223104 
L 94.462949 159.265704 
L 95.54875 195.558399 
L 96.634552 184.76741 
L 97.720353 190.529645 
L 98.806154 174.475189 
L 99.891955 176.558278 
L 100.977756 181.364053 
L 102.063557 163.103283 
L 103.149358 163.115019 
L 104.23516 166.500772 
L 105.320961 159.694058 
L 106.406762 159.705794 
L 107.492563 161.606979 
L 108.578364 136.263706 
L 109.664165 157.804608 
L 110.749967 140.488563 
L 111.835768 138.827959 
L 112.921569 140.547241 
L 114.00737 141.538909 
L 115.093171 134.204088 
L 116.178972 153.14553 
L 117.264773 138.869034 
L 118.350575 126.487856 
L 119.436376 128.96996 
L 120.522177 126.869267 
L 121.607978 121.19505 
L 122.693779 124.152449 
L 123.77958 122.814578 
L 124.865382 106.3259 
L 125.951183 119.229318 
L 127.036984 110.638775 
L 129.208586 110.157611 
L 130.294387 114.276846 
L 131.380189 115.620586 
L 132.46599 104.800258 
L 133.551791 86.762466 
L 134.637592 103.873136 
L 135.723393 88.434805 
L 136.809194 104.319093 
L 137.894995 91.949651 
L 138.980797 143.710016 
L 140.066598 141.650398 
L 141.152399 135.406999 
L 142.2382 143.410755 
L 143.324001 133.218288 
L 144.409802 141.937923 
L 145.495604 133.78747 
L 146.581405 150.962687 
L 147.667206 131.645703 
L 148.753007 135.213359 
L 149.838808 121.570592 
L 150.924609 121.124635 
L 152.01041 120.884053 
L 153.096212 130.290228 
L 154.182013 120.889921 
L 155.267814 137.472484 
L 156.353615 127.450185 
L 157.439416 120.086025 
L 158.525217 114.804954 
L 159.611019 120.842978 
L 160.69682 110.656379 
L 161.782621 125.284946 
L 162.868422 125.648753 
L 163.954223 124.674689 
L 165.040024 113.889568 
L 166.125825 126.276614 
L 167.211627 104.160661 
L 168.297428 111.847554 
L 169.383229 106.425654 
L 170.46903 97.23659 
L 171.554831 104.078511 
L 172.640632 106.936158 
L 173.726434 108.1332 
L 174.812235 105.416383 
L 175.898036 107.652036 
L 176.983837 121.03075 
L 178.069638 102.899072 
L 179.155439 118.800964 
L 180.24124 98.662479 
L 181.327042 108.309236 
L 182.412843 105.633493 
L 183.498644 116.893911 
L 184.584445 100.862926 
L 185.670246 105.791925 
L 186.756047 108.596761 
L 187.841849 112.551697 
L 188.92765 94.713412 
L 190.013451 86.345848 
L 191.099252 100.44044 
L 192.185053 98.498179 
L 193.270854 90.406405 
L 194.356656 80.86527 
L 195.442457 88.945309 
L 196.528258 88.387862 
L 197.614059 94.208776 
L 198.69986 84.708716 
L 199.785661 79.445248 
L 200.871462 79.691698 
L 201.957264 81.880409 
L 204.128866 89.485151 
L 205.214667 76.886863 
L 206.300468 80.143523 
L 207.386269 96.755426 
L 208.472071 85.788402 
L 209.557872 84.77913 
L 210.643673 84.849545 
L 211.729474 78.500524 
L 212.815275 69.581381 
L 213.901076 87.771737 
L 214.986877 88.716462 
L 217.15848 68.847899 
L 218.244281 74.709888 
L 219.330082 84.732187 
L 220.415883 83.728784 
L 221.501684 70.831235 
L 222.587486 75.378824 
L 223.673287 82.75472 
L 224.759088 73.014077 
L 225.844889 131.32297 
L 226.93069 123.325082 
L 228.016491 122.750032 
L 229.102292 121.940267 
L 230.188094 127.679031 
L 231.273895 105.36944 
L 232.359696 120.731489 
L 233.445497 108.021711 
L 234.531298 107.528811 
L 235.617099 107.376247 
L 236.702901 125.648753 
L 237.788702 121.846382 
L 238.874503 119.915857 
L 239.960304 116.166296 
L 241.046105 119.405353 
L 242.131906 104.254547 
L 243.217708 110.539022 
L 244.303509 102.447247 
L 245.38931 105.281422 
L 246.475111 116.10175 
L 247.560912 94.96573 
L 248.646713 115.861168 
L 249.732514 115.28025 
L 250.818316 110.046122 
L 251.904117 116.582914 
L 252.989918 96.268394 
L 254.075719 96.567655 
L 255.16152 106.812933 
L 256.247321 108.127332 
L 257.333123 116.371671 
L 258.418924 111.278372 
L 259.504725 101.713765 
L 260.590526 109.095529 
L 261.676327 104.905879 
L 262.762128 115.878771 
L 263.847929 97.436097 
L 264.933731 105.568947 
L 266.019532 104.759183 
L 267.105333 108.279897 
L 268.191134 97.72949 
L 269.276935 104.600751 
L 270.362736 108.602629 
L 271.448538 104.741579 
L 272.534339 118.636664 
L 273.62014 95.37648 
L 274.705941 107.963033 
L 275.791742 94.560848 
L 276.877543 96.379883 
L 277.963344 113.854361 
L 279.049146 101.59054 
L 280.134947 105.686304 
L 281.220748 114.358996 
L 282.306549 99.249265 
L 283.39235 107.728318 
L 284.478151 100.657551 
L 285.563953 102.341626 
L 286.649754 96.233187 
L 287.735555 94.678205 
L 288.821356 92.243044 
L 289.907157 85.759062 
L 290.992958 100.569533 
L 292.07876 97.48304 
L 293.164561 88.998119 
L 294.250362 103.967022 
L 295.336163 94.819033 
L 296.421964 101.173922 
L 297.507765 93.739348 
L 298.593566 94.55498 
L 299.679368 96.708483 
L 301.85097 92.190233 
L 302.936771 95.617062 
L 304.022572 94.824901 
L 305.108373 86.017248 
L 306.194175 89.802016 
L 307.279976 89.95458 
L 308.365777 85.653441 
L 309.451578 104.894143 
L 311.62318 80.918081 
L 312.708981 89.426473 
L 313.794783 96.60873 
L 314.880584 80.818327 
L 315.966385 95.171105 
L 317.052186 89.062666 
L 318.137987 83.805066 
L 319.223788 96.57939 
L 320.30959 83.235884 
L 321.395391 85.729723 
L 322.481192 85.389387 
L 323.566993 83.863745 
L 324.652794 82.924888 
L 325.738595 88.728198 
L 326.824396 67.451349 
L 327.910198 66.888035 
L 328.995999 78.389034 
L 330.0818 81.123456 
L 331.167601 93.633726 
L 332.253402 72.609195 
L 333.339203 86.12287 
L 334.425005 82.220745 
L 335.510806 87.049991 
L 336.596607 74.733359 
L 337.682408 68.935917 
L 338.768209 82.420252 
L 339.85401 65.256771 
L 340.939811 78.670691 
L 342.025613 75.372956 
L 343.111414 85.242691 
L 344.197215 73.688881 
L 345.283016 79.63302 
L 346.368817 76.658016 
L 347.454618 72.081088 
L 348.54042 73.260527 
L 349.626221 67.028863 
L 350.712022 78.001756 
L 351.797823 72.139767 
L 352.883624 79.721038 
L 353.969425 78.758709 
L 355.055227 69.31146 
L 356.141028 73.782767 
L 357.226829 90.811287 
L 358.31263 71.429756 
L 359.398431 60.409921 
L 360.484232 76.26487 
L 361.570033 72.32167 
L 362.655835 66.68266 
L 363.741636 65.890499 
L 364.827437 73.237056 
L 365.913238 62.358049 
L 366.999039 62.299371 
L 369.170642 75.93627 
L 370.256443 60.773728 
L 372.428045 58.209475 
L 373.513846 84.515077 
L 374.599647 67.005392 
L 375.685448 53.568 
L 376.77125 68.202435 
L 377.857051 87.143877 
L 378.942852 59.054446 
L 380.028653 67.644988 
L 381.114454 68.337396 
L 382.200255 74.287402 
L 383.286057 63.795674 
L 384.371858 61.483739 
L 385.457659 64.752135 
L 386.54346 54.430575 
L 387.629261 65.814217 
L 388.715062 71.36521 
L 389.800863 56.971357 
L 390.886665 54.489254 
L 391.972466 65.391731 
L 393.058267 63.625507 
L 394.144068 62.633839 
L 395.229869 68.190699 
L 396.31567 55.222736 
L 397.401472 61.518946 
L 398.487273 66.248439 
L 398.487273 66.248439 
" style="fill:none;stroke:#1f77b4;stroke-linecap:square;stroke-width:1.5;"/>
   </g>
   <g id="line2d_17">
    <path clip-path="url(#pcd68165734)" d="M 73.832727 285.096026 
L 74.918528 277.96658 
L 76.00433 264.118438 
L 77.090131 260.392349 
L 78.175932 267.257741 
L 79.261733 235.835368 
L 80.347534 255.345992 
L 81.433335 258.778688 
L 82.519137 257.575777 
L 83.604938 202.505941 
L 84.690739 204.295638 
L 85.77654 207.581637 
L 86.862341 201.919156 
L 87.948142 211.630459 
L 89.033943 191.210317 
L 90.119745 195.229799 
L 91.205546 192.207853 
L 92.291347 193.821513 
L 93.377148 186.838764 
L 94.462949 183.963514 
L 95.54875 187.278853 
L 96.634552 203.063388 
L 97.720353 179.856014 
L 98.806154 166.535979 
L 99.891955 172.139782 
L 100.977756 176.951425 
L 103.149358 162.80989 
L 104.23516 155.973837 
L 105.320961 168.56039 
L 106.406762 157.558158 
L 107.492563 147.729498 
L 108.578364 131.534213 
L 109.664165 135.230963 
L 110.749967 128.834999 
L 111.835768 130.272624 
L 112.921569 133.206552 
L 114.00737 116.365803 
L 115.093171 116.952589 
L 116.178972 120.121232 
L 117.264773 130.44866 
L 118.350575 111.084732 
L 119.436376 103.80859 
L 120.522177 111.026054 
L 121.607978 109.353715 
L 122.693779 110.732661 
L 123.77958 110.527286 
L 124.865382 104.512733 
L 125.951183 103.192465 
L 127.036984 100.962679 
L 128.122785 103.39784 
L 129.208586 97.764697 
L 130.294387 100.815983 
L 131.380189 98.292805 
L 132.46599 97.970072 
L 133.551791 98.967608 
L 134.637592 96.356412 
L 135.723393 95.446894 
L 136.809194 96.561787 
L 137.894995 96.151037 
L 138.980797 142.771159 
L 141.152399 128.424249 
L 142.2382 130.41932 
L 143.324001 128.424249 
L 144.409802 133.441267 
L 145.495604 125.959749 
L 146.581405 144.590195 
L 147.667206 122.908464 
L 148.753007 128.893678 
L 149.838808 121.793571 
L 150.924609 113.842625 
L 152.01041 115.514964 
L 153.096212 125.402303 
L 154.182013 105.598286 
L 155.267814 116.659196 
L 156.353615 119.593125 
L 157.439416 110.644643 
L 158.525217 108.238822 
L 159.611019 104.835465 
L 160.69682 112.316982 
L 161.782621 113.519893 
L 162.868422 112.111607 
L 163.954223 107.652036 
L 165.040024 97.529983 
L 166.125825 111.935572 
L 167.211627 104.600751 
L 168.297428 105.979697 
L 169.383229 103.339161 
L 170.46903 107.006572 
L 171.554831 103.368501 
L 172.640632 101.432108 
L 173.726434 98.586197 
L 174.812235 97.441965 
L 175.898036 96.591126 
L 176.983837 96.532447 
L 178.069638 101.578804 
L 179.155439 94.918787 
L 180.24124 93.393144 
L 181.327042 94.918787 
L 182.412843 91.691466 
L 183.498644 99.349019 
L 184.584445 99.437037 
L 185.670246 96.503108 
L 186.756047 92.865037 
L 187.841849 100.346554 
L 188.92765 94.097287 
L 190.013451 90.224501 
L 191.099252 92.542305 
L 192.185053 90.635251 
L 193.270854 90.987323 
L 194.356656 89.373662 
L 195.442457 89.432341 
L 196.528258 87.437269 
L 197.614059 89.931109 
L 198.69986 88.698859 
L 199.785661 85.940966 
L 200.871462 87.202555 
L 201.957264 85.911627 
L 203.043065 87.936037 
L 204.128866 83.564484 
L 205.214667 84.180609 
L 206.300468 82.860341 
L 208.472071 82.713645 
L 209.557872 84.94343 
L 210.643673 81.716109 
L 211.729474 82.772323 
L 212.815275 81.598752 
L 213.901076 81.334698 
L 214.986877 82.09752 
L 216.072679 81.510734 
L 217.15848 81.334698 
L 218.244281 82.009502 
L 219.330082 81.569413 
L 220.415883 81.540073 
L 221.501684 80.835931 
L 222.587486 82.302895 
L 223.673287 81.422716 
L 224.759088 81.364038 
L 225.844889 131.328838 
L 226.93069 117.539375 
L 228.016491 133.998713 
L 229.102292 129.539142 
L 230.188094 119.094357 
L 231.273895 112.522357 
L 232.359696 117.099286 
L 233.445497 109.9405 
L 234.531298 111.231429 
L 235.617099 102.194929 
L 236.702901 111.114072 
L 237.788702 104.63009 
L 238.874503 107.358643 
L 239.960304 102.664358 
L 241.046105 110.497947 
L 242.131906 109.001643 
L 243.217708 102.018894 
L 244.303509 102.899072 
L 245.38931 110.879357 
L 246.475111 107.945429 
L 247.560912 104.483393 
L 248.646713 105.539608 
L 249.732514 109.441732 
L 250.818316 106.947893 
L 251.904117 108.238822 
L 252.989918 102.693697 
L 254.075719 99.261001 
L 255.16152 104.454054 
L 256.247321 114.253375 
L 257.333123 108.268161 
L 258.418924 109.999179 
L 259.504725 108.73759 
L 260.590526 108.561554 
L 261.676327 104.952822 
L 262.762128 110.087197 
L 263.847929 97.64734 
L 264.933731 100.639947 
L 266.019532 104.307358 
L 267.105333 105.891679 
L 268.191134 108.444197 
L 269.276935 108.32684 
L 270.362736 107.211947 
L 271.448538 103.339161 
L 272.534339 104.278018 
L 273.62014 101.784179 
L 274.705941 97.529983 
L 275.791742 103.075108 
L 276.877543 99.671751 
L 277.963344 103.280483 
L 279.049146 96.679144 
L 280.134947 96.268394 
L 281.220748 103.925947 
L 282.306549 98.762233 
L 283.39235 101.813519 
L 284.478151 100.581269 
L 285.563953 97.882055 
L 286.649754 96.03368 
L 287.735555 102.048233 
L 288.821356 96.679144 
L 289.907157 92.219573 
L 290.992958 99.114304 
L 292.07876 96.796501 
L 293.164561 100.287876 
L 294.250362 94.860108 
L 295.336163 107.211947 
L 296.421964 99.759769 
L 297.507765 94.478698 
L 298.593566 95.740287 
L 299.679368 97.412626 
L 300.765169 92.542305 
L 301.85097 95.241519 
L 302.936771 95.300198 
L 304.022572 100.287876 
L 305.108373 92.600983 
L 306.194175 95.388215 
L 307.279976 95.505573 
L 308.365777 92.307591 
L 309.451578 92.366269 
L 310.537379 96.092358 
L 311.62318 93.745215 
L 312.708981 92.571644 
L 313.794783 88.874894 
L 314.880584 89.901769 
L 315.966385 91.867501 
L 317.052186 87.760002 
L 318.137987 90.987323 
L 319.223788 89.901769 
L 320.30959 90.312519 
L 321.395391 97.500644 
L 322.481192 86.557091 
L 323.566993 90.781948 
L 324.652794 92.542305 
L 325.738595 87.114537 
L 326.824396 89.432341 
L 327.910198 89.021591 
L 328.995999 87.936037 
L 330.0818 86.469073 
L 331.167601 90.312519 
L 332.253402 88.053394 
L 333.339203 88.728198 
L 334.425005 90.136484 
L 335.510806 87.583966 
L 336.596607 87.730662 
L 337.682408 87.202555 
L 338.768209 88.904234 
L 339.85401 84.356645 
L 340.939811 85.970305 
L 342.025613 82.566948 
L 343.111414 87.848019 
L 344.197215 83.476466 
L 345.283016 81.68677 
L 346.368817 82.88968 
L 347.454618 81.540073 
L 348.54042 89.667055 
L 349.626221 81.892145 
L 350.712022 83.388448 
L 351.797823 81.540073 
L 352.883624 83.241752 
L 353.969425 82.214877 
L 355.055227 80.073109 
L 356.141028 81.099984 
L 357.226829 80.747913 
L 358.31263 78.518127 
L 359.398431 78.078038 
L 360.484232 83.036377 
L 361.570033 81.745448 
L 362.655835 78.752841 
L 363.741636 79.721038 
L 364.827437 80.249145 
L 365.913238 80.249145 
L 366.999039 77.080502 
L 368.08484 79.867734 
L 369.170642 78.195395 
L 370.256443 79.339627 
L 371.342244 77.256538 
L 372.428045 77.080502 
L 373.513846 78.459449 
L 374.599647 77.520591 
L 375.685448 76.845788 
L 376.77125 77.139181 
L 377.857051 77.549931 
L 378.942852 76.904466 
L 380.028653 76.082967 
L 381.114454 77.285877 
L 382.200255 76.75777 
L 383.286057 78.371431 
L 384.371858 76.875127 
L 385.457659 75.818913 
L 386.54346 76.200324 
L 387.629261 75.554859 
L 388.715062 75.584199 
L 389.800863 77.344556 
L 393.058267 76.112306 
L 394.144068 75.349484 
L 395.229869 76.170984 
L 396.31567 77.843324 
L 398.487273 75.437502 
L 398.487273 75.437502 
" style="fill:none;stroke:#ff7f0e;stroke-linecap:square;stroke-width:1.5;"/>
   </g>
   <g id="line2d_18">
    <path clip-path="url(#pcd68165734)" d="M 73.832727 286.20153 
L 74.918528 280.766134 
L 76.00433 273.199826 
L 77.090131 267.949561 
L 78.175932 278.511704 
L 79.261733 251.812955 
L 80.347534 265.401738 
L 81.433335 272.844527 
L 82.519137 275.0064 
L 83.604938 240.849297 
L 84.690739 247.597332 
L 85.77654 249.882708 
L 86.862341 245.327398 
L 87.948142 254.515227 
L 89.033943 244.601637 
L 90.119745 247.458357 
L 91.205546 245.79065 
L 92.291347 249.18783 
L 93.377148 246.392878 
L 94.462949 244.076618 
L 95.54875 234.965998 
L 96.634552 248.616486 
L 97.720353 237.591092 
L 98.806154 231.151892 
L 99.891955 232.171046 
L 100.977756 241.837568 
L 102.063557 225.901704 
L 103.149358 229.931995 
L 104.23516 228.434147 
L 105.320961 239.706609 
L 106.406762 225.469336 
L 107.492563 215.833697 
L 108.578364 212.82256 
L 109.664165 209.286404 
L 110.749967 211.849731 
L 111.835768 206.352476 
L 112.921569 212.683584 
L 114.00737 194.138069 
L 115.093171 196.052843 
L 116.178972 202.924412 
L 117.264773 211.463688 
L 119.436376 185.181866 
L 120.522177 199.048538 
L 122.693779 195.728567 
L 123.77958 197.504365 
L 124.865382 191.698275 
L 125.951183 194.585879 
L 127.036984 194.832946 
L 128.122785 196.763162 
L 129.208586 191.034281 
L 130.294387 193.782909 
L 131.380189 191.590183 
L 132.46599 190.879864 
L 133.551791 191.991668 
L 135.723393 189.5982 
L 136.809194 190.432054 
L 137.894995 189.320249 
L 138.980797 214.258641 
L 140.066598 208.298134 
L 141.152399 199.480907 
L 142.2382 204.900953 
L 143.324001 202.260418 
L 144.409802 209.116545 
L 145.495604 199.820625 
L 146.581405 222.628057 
L 147.667206 207.062795 
L 148.753007 214.366733 
L 149.838808 201.673632 
L 150.924609 194.06086 
L 152.01041 201.9207 
L 153.096212 207.742231 
L 154.182013 191.420324 
L 155.267814 196.840371 
L 156.353615 207.72679 
L 157.439416 193.381424 
L 158.525217 191.451208 
L 159.611019 192.130644 
L 160.69682 201.040521 
L 161.782621 196.500653 
L 162.868422 199.542674 
L 163.954223 192.794638 
L 165.040024 188.995973 
L 166.125825 194.246161 
L 167.211627 189.459225 
L 168.297428 201.148613 
L 169.383229 191.327674 
L 170.46903 189.05774 
L 171.554831 196.346236 
L 173.726434 185.3054 
L 174.812235 182.047195 
L 175.898036 181.074366 
L 176.983837 187.945935 
L 178.069638 183.69946 
L 179.155439 185.799535 
L 180.24124 181.800128 
L 181.327042 183.112674 
L 182.412843 182.510447 
L 183.498644 190.694563 
L 184.584445 189.536434 
L 185.670246 186.247345 
L 186.756047 181.769244 
L 187.841849 193.288774 
L 188.92765 187.945935 
L 190.013451 181.352317 
L 191.099252 181.089808 
L 192.185053 183.931086 
L 194.356656 187.173849 
L 195.442457 182.35603 
L 196.528258 182.788398 
L 197.614059 181.028041 
L 198.69986 181.583943 
L 199.785661 177.970579 
L 200.871462 180.935391 
L 201.957264 178.572806 
L 203.043065 178.650015 
L 204.128866 176.426406 
L 205.214667 178.047788 
L 206.300468 175.376369 
L 207.386269 177.291143 
L 208.472071 179.777261 
L 209.557872 179.59196 
L 210.643673 176.889658 
L 211.729474 177.368352 
L 212.815275 175.175626 
L 213.901076 174.974884 
L 214.986877 175.870504 
L 216.072679 175.638878 
L 217.15848 174.944 
L 218.244281 175.700645 
L 219.330082 175.577111 
L 220.415883 175.144743 
L 221.501684 173.569686 
L 222.587486 176.827891 
L 223.673287 174.573399 
L 224.759088 175.515344 
L 225.844889 212.544609 
L 226.93069 203.912683 
L 228.016491 217.73303 
L 229.102292 204.808303 
L 230.188094 203.511198 
L 231.273895 203.372222 
L 232.359696 199.820625 
L 233.445497 197.226414 
L 234.531298 197.334506 
L 235.617099 195.280756 
L 236.702901 196.130052 
L 237.788702 194.755738 
L 238.874503 190.30852 
L 239.960304 197.735991 
L 241.046105 198.955888 
L 242.131906 196.531536 
L 243.217708 192.36227 
L 244.303509 185.3054 
L 245.38931 193.690258 
L 246.475111 196.145493 
L 247.560912 189.675409 
L 248.646713 197.705108 
L 249.732514 195.40429 
L 250.818316 191.080606 
L 251.904117 200.175784 
L 252.989918 192.995381 
L 254.075719 186.695155 
L 255.16152 195.558708 
L 256.247321 195.821217 
L 257.333123 190.015127 
L 258.418924 198.214685 
L 259.504725 205.209788 
L 260.590526 199.496348 
L 261.676327 185.537026 
L 262.762128 196.438886 
L 263.847929 187.173849 
L 264.933731 189.644526 
L 266.019532 195.960193 
L 267.105333 194.369695 
L 268.191134 198.70882 
L 269.276935 200.932429 
L 270.362736 199.172072 
L 271.448538 187.4518 
L 272.534339 194.292486 
L 273.62014 196.809488 
L 274.705941 188.810672 
L 275.791742 197.45804 
L 276.877543 193.458633 
L 277.963344 196.685954 
L 279.049146 188.424629 
L 280.134947 182.695748 
L 281.220748 198.384544 
L 282.306549 190.293078 
L 283.39235 195.203548 
L 284.478151 187.915052 
L 285.563953 187.204733 
L 286.649754 187.034874 
L 287.735555 193.242448 
L 288.821356 188.393746 
L 289.907157 188.856997 
L 290.992958 192.285061 
L 292.07876 189.119507 
L 293.164561 194.879272 
L 294.250362 188.60993 
L 295.336163 200.299318 
L 296.421964 195.713125 
L 297.507765 189.258482 
L 298.593566 192.207853 
L 299.679368 192.949055 
L 300.765169 177.862487 
L 301.85097 191.65195 
L 302.936771 189.119507 
L 304.022572 192.053435 
L 305.108373 182.726631 
L 306.194175 190.30852 
L 307.279976 187.884169 
L 308.365777 184.301688 
L 309.451578 188.084911 
L 310.537379 189.567317 
L 311.62318 185.274516 
L 312.708981 183.915644 
L 313.794783 178.881641 
L 314.880584 181.722919 
L 315.966385 186.895898 
L 317.052186 178.897083 
L 318.137987 187.142966 
L 319.223788 181.815569 
L 320.30959 183.359742 
L 321.395391 191.312232 
L 322.481192 182.371472 
L 323.566993 187.266499 
L 324.652794 185.907627 
L 325.738595 177.924254 
L 326.824396 184.317129 
L 327.910198 182.649423 
L 328.995999 183.050908 
L 330.0818 176.719799 
L 331.167601 185.676001 
L 332.253402 185.475259 
L 333.339203 182.371472 
L 334.425005 183.653135 
L 335.510806 182.232496 
L 336.596607 184.193595 
L 337.682408 180.255955 
L 338.768209 188.193003 
L 339.85401 182.958257 
L 340.939811 181.136133 
L 342.025613 180.271396 
L 343.111414 185.830419 
L 344.197215 182.386913 
L 345.283016 179.59196 
L 346.368817 181.784686 
L 347.454618 179.468427 
L 348.54042 188.748905 
L 349.626221 179.452985 
L 350.712022 181.46041 
L 351.797823 177.213934 
L 352.883624 183.097233 
L 353.969425 177.275701 
L 355.055227 176.54994 
L 356.141028 179.082383 
L 357.226829 177.89337 
L 358.31263 173.677778 
L 359.398431 173.33806 
L 360.484232 179.14415 
L 361.570033 177.908812 
L 362.655835 174.681491 
L 363.741636 176.658032 
L 364.827437 177.167609 
L 365.913238 178.788991 
L 366.999039 173.33806 
L 368.08484 178.60369 
L 369.170642 173.538803 
L 370.256443 175.546228 
L 371.342244 173.075551 
L 372.428045 174.712374 
L 373.513846 175.021209 
L 374.599647 175.021209 
L 375.685448 172.226256 
L 377.857051 174.58884 
L 378.942852 174.40354 
L 380.028653 172.998342 
L 381.114454 174.743258 
L 382.200255 173.662337 
L 383.286057 175.731528 
L 385.457659 173.199085 
L 386.54346 171.824771 
L 387.629261 172.519649 
L 388.715062 172.782158 
L 389.800863 175.669761 
L 390.886665 172.828483 
L 391.972466 174.542515 
L 393.058267 174.434423 
L 394.144068 171.685795 
L 395.229869 172.751275 
L 396.31567 175.314602 
L 397.401472 174.357214 
L 398.487273 171.840213 
L 398.487273 171.840213 
" style="fill:none;stroke:#2ca02c;stroke-linecap:square;stroke-width:1.5;"/>
   </g>
   <g id="patch_3">
    <path d="M 57.6 307.584 
L 57.6 41.472 
" style="fill:none;stroke:#000000;stroke-linecap:square;stroke-linejoin:miter;stroke-width:0.8;"/>
   </g>
   <g id="patch_4">
    <path d="M 414.72 307.584 
L 414.72 41.472 
" style="fill:none;stroke:#000000;stroke-linecap:square;stroke-linejoin:miter;stroke-width:0.8;"/>
   </g>
   <g id="patch_5">
    <path d="M 57.6 307.584 
L 414.72 307.584 
" style="fill:none;stroke:#000000;stroke-linecap:square;stroke-linejoin:miter;stroke-width:0.8;"/>
   </g>
   <g id="patch_6">
    <path d="M 57.6 41.472 
L 414.72 41.472 
" style="fill:none;stroke:#000000;stroke-linecap:square;stroke-linejoin:miter;stroke-width:0.8;"/>
   </g>
   <g id="text_18">
    <!-- Training and Validation Accuracy -->
    <g transform="translate(138.4575 35.472)scale(0.12 -0.12)">
     <defs>
      <path d="M -19 4666 
L 3928 4666 
L 3928 4134 
L 2272 4134 
L 2272 0 
L 1638 0 
L 1638 4134 
L -19 4134 
L -19 4666 
z
" id="DejaVuSans-54" transform="scale(0.015625)"/>
      <path d="M 603 3500 
L 1178 3500 
L 1178 0 
L 603 0 
L 603 3500 
z
M 603 4863 
L 1178 4863 
L 1178 4134 
L 603 4134 
L 603 4863 
z
" id="DejaVuSans-69" transform="scale(0.015625)"/>
      <path d="M 3513 2113 
L 3513 0 
L 2938 0 
L 2938 2094 
Q 2938 2591 2744 2837 
Q 2550 3084 2163 3084 
Q 1697 3084 1428 2787 
Q 1159 2491 1159 1978 
L 1159 0 
L 581 0 
L 581 3500 
L 1159 3500 
L 1159 2956 
Q 1366 3272 1645 3428 
Q 1925 3584 2291 3584 
Q 2894 3584 3203 3211 
Q 3513 2838 3513 2113 
z
" id="DejaVuSans-6e" transform="scale(0.015625)"/>
      <path d="M 2906 1791 
Q 2906 2416 2648 2759 
Q 2391 3103 1925 3103 
Q 1463 3103 1205 2759 
Q 947 2416 947 1791 
Q 947 1169 1205 825 
Q 1463 481 1925 481 
Q 2391 481 2648 825 
Q 2906 1169 2906 1791 
z
M 3481 434 
Q 3481 -459 3084 -895 
Q 2688 -1331 1869 -1331 
Q 1566 -1331 1297 -1286 
Q 1028 -1241 775 -1147 
L 775 -588 
Q 1028 -725 1275 -790 
Q 1522 -856 1778 -856 
Q 2344 -856 2625 -561 
Q 2906 -266 2906 331 
L 2906 616 
Q 2728 306 2450 153 
Q 2172 0 1784 0 
Q 1141 0 747 490 
Q 353 981 353 1791 
Q 353 2603 747 3093 
Q 1141 3584 1784 3584 
Q 2172 3584 2450 3431 
Q 2728 3278 2906 2969 
L 2906 3500 
L 3481 3500 
L 3481 434 
z
" id="DejaVuSans-67" transform="scale(0.015625)"/>
      <path id="DejaVuSans-20" transform="scale(0.015625)"/>
      <path d="M 2906 2969 
L 2906 4863 
L 3481 4863 
L 3481 0 
L 2906 0 
L 2906 525 
Q 2725 213 2448 61 
Q 2172 -91 1784 -91 
Q 1150 -91 751 415 
Q 353 922 353 1747 
Q 353 2572 751 3078 
Q 1150 3584 1784 3584 
Q 2172 3584 2448 3432 
Q 2725 3281 2906 2969 
z
M 947 1747 
Q 947 1113 1208 752 
Q 1469 391 1925 391 
Q 2381 391 2643 752 
Q 2906 1113 2906 1747 
Q 2906 2381 2643 2742 
Q 2381 3103 1925 3103 
Q 1469 3103 1208 2742 
Q 947 2381 947 1747 
z
" id="DejaVuSans-64" transform="scale(0.015625)"/>
      <path d="M 1831 0 
L 50 4666 
L 709 4666 
L 2188 738 
L 3669 4666 
L 4325 4666 
L 2547 0 
L 1831 0 
z
" id="DejaVuSans-56" transform="scale(0.015625)"/>
      <path d="M 603 4863 
L 1178 4863 
L 1178 0 
L 603 0 
L 603 4863 
z
" id="DejaVuSans-6c" transform="scale(0.015625)"/>
      <path d="M 1172 4494 
L 1172 3500 
L 2356 3500 
L 2356 3053 
L 1172 3053 
L 1172 1153 
Q 1172 725 1289 603 
Q 1406 481 1766 481 
L 2356 481 
L 2356 0 
L 1766 0 
Q 1100 0 847 248 
Q 594 497 594 1153 
L 594 3053 
L 172 3053 
L 172 3500 
L 594 3500 
L 594 4494 
L 1172 4494 
z
" id="DejaVuSans-74" transform="scale(0.015625)"/>
     </defs>
     <use xlink:href="#DejaVuSans-54"/>
     <use x="46.333984" xlink:href="#DejaVuSans-72"/>
     <use x="87.447266" xlink:href="#DejaVuSans-61"/>
     <use x="148.726562" xlink:href="#DejaVuSans-69"/>
     <use x="176.509766" xlink:href="#DejaVuSans-6e"/>
     <use x="239.888672" xlink:href="#DejaVuSans-69"/>
     <use x="267.671875" xlink:href="#DejaVuSans-6e"/>
     <use x="331.050781" xlink:href="#DejaVuSans-67"/>
     <use x="394.527344" xlink:href="#DejaVuSans-20"/>
     <use x="426.314453" xlink:href="#DejaVuSans-61"/>
     <use x="487.59375" xlink:href="#DejaVuSans-6e"/>
     <use x="550.972656" xlink:href="#DejaVuSans-64"/>
     <use x="614.449219" xlink:href="#DejaVuSans-20"/>
     <use x="646.236328" xlink:href="#DejaVuSans-56"/>
     <use x="706.894531" xlink:href="#DejaVuSans-61"/>
     <use x="768.173828" xlink:href="#DejaVuSans-6c"/>
     <use x="795.957031" xlink:href="#DejaVuSans-69"/>
     <use x="823.740234" xlink:href="#DejaVuSans-64"/>
     <use x="887.216797" xlink:href="#DejaVuSans-61"/>
     <use x="948.496094" xlink:href="#DejaVuSans-74"/>
     <use x="987.705078" xlink:href="#DejaVuSans-69"/>
     <use x="1015.488281" xlink:href="#DejaVuSans-6f"/>
     <use x="1076.669922" xlink:href="#DejaVuSans-6e"/>
     <use x="1140.048828" xlink:href="#DejaVuSans-20"/>
     <use x="1171.835938" xlink:href="#DejaVuSans-41"/>
     <use x="1238.494141" xlink:href="#DejaVuSans-63"/>
     <use x="1293.474609" xlink:href="#DejaVuSans-63"/>
     <use x="1348.455078" xlink:href="#DejaVuSans-75"/>
     <use x="1411.833984" xlink:href="#DejaVuSans-72"/>
     <use x="1452.947266" xlink:href="#DejaVuSans-61"/>
     <use x="1514.226562" xlink:href="#DejaVuSans-63"/>
     <use x="1569.207031" xlink:href="#DejaVuSans-79"/>
    </g>
   </g>
   <g id="legend_1">
    <g id="patch_7">
     <path d="M 239.893438 302.584 
L 407.72 302.584 
Q 409.72 302.584 409.72 300.584 
L 409.72 257.549625 
Q 409.72 255.549625 407.72 255.549625 
L 239.893438 255.549625 
Q 237.893438 255.549625 237.893438 257.549625 
L 237.893438 300.584 
Q 237.893438 302.584 239.893438 302.584 
z
" style="fill:#ffffff;opacity:0.8;stroke:#cccccc;stroke-linejoin:miter;"/>
    </g>
    <g id="line2d_19">
     <path d="M 241.893438 263.648062 
L 261.893438 263.648062 
" style="fill:none;stroke:#1f77b4;stroke-linecap:square;stroke-width:1.5;"/>
    </g>
    <g id="line2d_20"/>
    <g id="text_19">
     <!-- Train Accuracy -->
     <g transform="translate(269.893438 267.148062)scale(0.1 -0.1)">
      <use xlink:href="#DejaVuSans-54"/>
      <use x="46.333984" xlink:href="#DejaVuSans-72"/>
      <use x="87.447266" xlink:href="#DejaVuSans-61"/>
      <use x="148.726562" xlink:href="#DejaVuSans-69"/>
      <use x="176.509766" xlink:href="#DejaVuSans-6e"/>
      <use x="239.888672" xlink:href="#DejaVuSans-20"/>
      <use x="271.675781" xlink:href="#DejaVuSans-41"/>
      <use x="338.333984" xlink:href="#DejaVuSans-63"/>
      <use x="393.314453" xlink:href="#DejaVuSans-63"/>
      <use x="448.294922" xlink:href="#DejaVuSans-75"/>
      <use x="511.673828" xlink:href="#DejaVuSans-72"/>
      <use x="552.787109" xlink:href="#DejaVuSans-61"/>
      <use x="614.066406" xlink:href="#DejaVuSans-63"/>
      <use x="669.046875" xlink:href="#DejaVuSans-79"/>
     </g>
    </g>
    <g id="line2d_21">
     <path d="M 241.893438 278.326188 
L 261.893438 278.326188 
" style="fill:none;stroke:#ff7f0e;stroke-linecap:square;stroke-width:1.5;"/>
    </g>
    <g id="line2d_22"/>
    <g id="text_20">
     <!-- Validation Accuracy -->
     <g transform="translate(269.893438 281.826188)scale(0.1 -0.1)">
      <use xlink:href="#DejaVuSans-56"/>
      <use x="60.658203" xlink:href="#DejaVuSans-61"/>
      <use x="121.9375" xlink:href="#DejaVuSans-6c"/>
      <use x="149.720703" xlink:href="#DejaVuSans-69"/>
      <use x="177.503906" xlink:href="#DejaVuSans-64"/>
      <use x="240.980469" xlink:href="#DejaVuSans-61"/>
      <use x="302.259766" xlink:href="#DejaVuSans-74"/>
      <use x="341.46875" xlink:href="#DejaVuSans-69"/>
      <use x="369.251953" xlink:href="#DejaVuSans-6f"/>
      <use x="430.433594" xlink:href="#DejaVuSans-6e"/>
      <use x="493.8125" xlink:href="#DejaVuSans-20"/>
      <use x="525.599609" xlink:href="#DejaVuSans-41"/>
      <use x="592.257812" xlink:href="#DejaVuSans-63"/>
      <use x="647.238281" xlink:href="#DejaVuSans-63"/>
      <use x="702.21875" xlink:href="#DejaVuSans-75"/>
      <use x="765.597656" xlink:href="#DejaVuSans-72"/>
      <use x="806.710938" xlink:href="#DejaVuSans-61"/>
      <use x="867.990234" xlink:href="#DejaVuSans-63"/>
      <use x="922.970703" xlink:href="#DejaVuSans-79"/>
     </g>
    </g>
    <g id="line2d_23">
     <path d="M 241.893438 293.004312 
L 261.893438 293.004312 
" style="fill:none;stroke:#2ca02c;stroke-linecap:square;stroke-width:1.5;"/>
    </g>
    <g id="line2d_24"/>
    <g id="text_21">
     <!-- Robust Validation Accuracy -->
     <g transform="translate(269.893438 296.504312)scale(0.1 -0.1)">
      <defs>
       <path d="M 2841 2188 
Q 3044 2119 3236 1894 
Q 3428 1669 3622 1275 
L 4263 0 
L 3584 0 
L 2988 1197 
Q 2756 1666 2539 1819 
Q 2322 1972 1947 1972 
L 1259 1972 
L 1259 0 
L 628 0 
L 628 4666 
L 2053 4666 
Q 2853 4666 3247 4331 
Q 3641 3997 3641 3322 
Q 3641 2881 3436 2590 
Q 3231 2300 2841 2188 
z
M 1259 4147 
L 1259 2491 
L 2053 2491 
Q 2509 2491 2742 2702 
Q 2975 2913 2975 3322 
Q 2975 3731 2742 3939 
Q 2509 4147 2053 4147 
L 1259 4147 
z
" id="DejaVuSans-52" transform="scale(0.015625)"/>
       <path d="M 3116 1747 
Q 3116 2381 2855 2742 
Q 2594 3103 2138 3103 
Q 1681 3103 1420 2742 
Q 1159 2381 1159 1747 
Q 1159 1113 1420 752 
Q 1681 391 2138 391 
Q 2594 391 2855 752 
Q 3116 1113 3116 1747 
z
M 1159 2969 
Q 1341 3281 1617 3432 
Q 1894 3584 2278 3584 
Q 2916 3584 3314 3078 
Q 3713 2572 3713 1747 
Q 3713 922 3314 415 
Q 2916 -91 2278 -91 
Q 1894 -91 1617 61 
Q 1341 213 1159 525 
L 1159 0 
L 581 0 
L 581 4863 
L 1159 4863 
L 1159 2969 
z
" id="DejaVuSans-62" transform="scale(0.015625)"/>
      </defs>
      <use xlink:href="#DejaVuSans-52"/>
      <use x="64.982422" xlink:href="#DejaVuSans-6f"/>
      <use x="126.164062" xlink:href="#DejaVuSans-62"/>
      <use x="189.640625" xlink:href="#DejaVuSans-75"/>
      <use x="253.019531" xlink:href="#DejaVuSans-73"/>
      <use x="305.119141" xlink:href="#DejaVuSans-74"/>
      <use x="344.328125" xlink:href="#DejaVuSans-20"/>
      <use x="376.115234" xlink:href="#DejaVuSans-56"/>
      <use x="436.773438" xlink:href="#DejaVuSans-61"/>
      <use x="498.052734" xlink:href="#DejaVuSans-6c"/>
      <use x="525.835938" xlink:href="#DejaVuSans-69"/>
      <use x="553.619141" xlink:href="#DejaVuSans-64"/>
      <use x="617.095703" xlink:href="#DejaVuSans-61"/>
      <use x="678.375" xlink:href="#DejaVuSans-74"/>
      <use x="717.583984" xlink:href="#DejaVuSans-69"/>
      <use x="745.367188" xlink:href="#DejaVuSans-6f"/>
      <use x="806.548828" xlink:href="#DejaVuSans-6e"/>
      <use x="869.927734" xlink:href="#DejaVuSans-20"/>
      <use x="901.714844" xlink:href="#DejaVuSans-41"/>
      <use x="968.373047" xlink:href="#DejaVuSans-63"/>
      <use x="1023.353516" xlink:href="#DejaVuSans-63"/>
      <use x="1078.333984" xlink:href="#DejaVuSans-75"/>
      <use x="1141.712891" xlink:href="#DejaVuSans-72"/>
      <use x="1182.826172" xlink:href="#DejaVuSans-61"/>
      <use x="1244.105469" xlink:href="#DejaVuSans-63"/>
      <use x="1299.085938" xlink:href="#DejaVuSans-79"/>
     </g>
    </g>
   </g>
  </g>
 </g>
 <defs>
  <clipPath id="pcd68165734">
   <rect height="266.112" width="357.12" x="57.6" y="41.472"/>
  </clipPath>
 </defs>
</svg>
