<?xml version="1.0" encoding="utf-8" standalone="no"?>
<!DOCTYPE svg PUBLIC "-//W3C//DTD SVG 1.1//EN"
  "http://www.w3.org/Graphics/SVG/1.1/DTD/svg11.dtd">
<svg height="345.6pt" version="1.1" viewBox="0 0 460.8 345.6" width="460.8pt" xmlns="http://www.w3.org/2000/svg" xmlns:xlink="http://www.w3.org/1999/xlink">
 <metadata>
  <rdf:RDF xmlns:cc="http://creativecommons.org/ns#" xmlns:dc="http://purl.org/dc/elements/1.1/" xmlns:rdf="http://www.w3.org/1999/02/22-rdf-syntax-ns#">
   <cc:Work>
    <dc:type rdf:resource="http://purl.org/dc/dcmitype/StillImage"/>
    <dc:date>2024-03-13T08:29:31.570613</dc:date>
    <dc:format>image/svg+xml</dc:format>
    <dc:creator>
     <cc:Agent>
      <dc:title>Matplotlib v3.4.3, https://matplotlib.org/</dc:title>
     </cc:Agent>
    </dc:creator>
   </cc:Work>
  </rdf:RDF>
 </metadata>
 <defs>
  <style type="text/css">*{stroke-linecap:butt;stroke-linejoin:round;}</style>
 </defs>
 <g id="figure_1">
  <g id="patch_1">
   <path d="M 0 345.6 
L 460.8 345.6 
L 460.8 0 
L 0 0 
z
" style="fill:#ffffff;"/>
  </g>
  <g id="axes_1">
   <g id="patch_2">
    <path d="M 57.6 307.584 
L 414.72 307.584 
L 414.72 41.472 
L 57.6 41.472 
z
" style="fill:#ffffff;"/>
   </g>
   <g id="matplotlib.axis_1">
    <g id="xtick_1">
     <g id="line2d_1">
      <defs>
       <path d="M 0 0 
L 0 3.5 
" id="m70427c3486" style="stroke:#000000;stroke-width:0.8;"/>
      </defs>
      <g>
       <use style="stroke:#000000;stroke-width:0.8;" x="73.832727" xlink:href="#m70427c3486" y="307.584"/>
      </g>
     </g>
     <g id="text_1">
      <!-- 1 -->
      <g transform="translate(70.651477 322.182437)scale(0.1 -0.1)">
       <defs>
        <path d="M 794 531 
L 1825 531 
L 1825 4091 
L 703 3866 
L 703 4441 
L 1819 4666 
L 2450 4666 
L 2450 531 
L 3481 531 
L 3481 0 
L 794 0 
L 794 531 
z
" id="DejaVuSans-31" transform="scale(0.015625)"/>
       </defs>
       <use xlink:href="#DejaVuSans-31"/>
      </g>
     </g>
    </g>
    <g id="xtick_2">
     <g id="line2d_2">
      <g>
       <use style="stroke:#000000;stroke-width:0.8;" x="109.423199" xlink:href="#m70427c3486" y="307.584"/>
      </g>
     </g>
     <g id="text_2">
      <!-- 42 -->
      <g transform="translate(103.060699 322.182437)scale(0.1 -0.1)">
       <defs>
        <path d="M 2419 4116 
L 825 1625 
L 2419 1625 
L 2419 4116 
z
M 2253 4666 
L 3047 4666 
L 3047 1625 
L 3713 1625 
L 3713 1100 
L 3047 1100 
L 3047 0 
L 2419 0 
L 2419 1100 
L 313 1100 
L 313 1709 
L 2253 4666 
z
" id="DejaVuSans-34" transform="scale(0.015625)"/>
        <path d="M 1228 531 
L 3431 531 
L 3431 0 
L 469 0 
L 469 531 
Q 828 903 1448 1529 
Q 2069 2156 2228 2338 
Q 2531 2678 2651 2914 
Q 2772 3150 2772 3378 
Q 2772 3750 2511 3984 
Q 2250 4219 1831 4219 
Q 1534 4219 1204 4116 
Q 875 4013 500 3803 
L 500 4441 
Q 881 4594 1212 4672 
Q 1544 4750 1819 4750 
Q 2544 4750 2975 4387 
Q 3406 4025 3406 3419 
Q 3406 3131 3298 2873 
Q 3191 2616 2906 2266 
Q 2828 2175 2409 1742 
Q 1991 1309 1228 531 
z
" id="DejaVuSans-32" transform="scale(0.015625)"/>
       </defs>
       <use xlink:href="#DejaVuSans-34"/>
       <use x="63.623047" xlink:href="#DejaVuSans-32"/>
      </g>
     </g>
    </g>
    <g id="xtick_3">
     <g id="line2d_3">
      <g>
       <use style="stroke:#000000;stroke-width:0.8;" x="145.881731" xlink:href="#m70427c3486" y="307.584"/>
      </g>
     </g>
     <g id="text_3">
      <!-- 84 -->
      <g transform="translate(139.519231 322.182437)scale(0.1 -0.1)">
       <defs>
        <path d="M 2034 2216 
Q 1584 2216 1326 1975 
Q 1069 1734 1069 1313 
Q 1069 891 1326 650 
Q 1584 409 2034 409 
Q 2484 409 2743 651 
Q 3003 894 3003 1313 
Q 3003 1734 2745 1975 
Q 2488 2216 2034 2216 
z
M 1403 2484 
Q 997 2584 770 2862 
Q 544 3141 544 3541 
Q 544 4100 942 4425 
Q 1341 4750 2034 4750 
Q 2731 4750 3128 4425 
Q 3525 4100 3525 3541 
Q 3525 3141 3298 2862 
Q 3072 2584 2669 2484 
Q 3125 2378 3379 2068 
Q 3634 1759 3634 1313 
Q 3634 634 3220 271 
Q 2806 -91 2034 -91 
Q 1263 -91 848 271 
Q 434 634 434 1313 
Q 434 1759 690 2068 
Q 947 2378 1403 2484 
z
M 1172 3481 
Q 1172 3119 1398 2916 
Q 1625 2713 2034 2713 
Q 2441 2713 2670 2916 
Q 2900 3119 2900 3481 
Q 2900 3844 2670 4047 
Q 2441 4250 2034 4250 
Q 1625 4250 1398 4047 
Q 1172 3844 1172 3481 
z
" id="DejaVuSans-38" transform="scale(0.015625)"/>
       </defs>
       <use xlink:href="#DejaVuSans-38"/>
       <use x="63.623047" xlink:href="#DejaVuSans-34"/>
      </g>
     </g>
    </g>
    <g id="xtick_4">
     <g id="line2d_4">
      <g>
       <use style="stroke:#000000;stroke-width:0.8;" x="181.472202" xlink:href="#m70427c3486" y="307.584"/>
      </g>
     </g>
     <g id="text_4">
      <!-- 125 -->
      <g transform="translate(171.928452 322.182437)scale(0.1 -0.1)">
       <defs>
        <path d="M 691 4666 
L 3169 4666 
L 3169 4134 
L 1269 4134 
L 1269 2991 
Q 1406 3038 1543 3061 
Q 1681 3084 1819 3084 
Q 2600 3084 3056 2656 
Q 3513 2228 3513 1497 
Q 3513 744 3044 326 
Q 2575 -91 1722 -91 
Q 1428 -91 1123 -41 
Q 819 9 494 109 
L 494 744 
Q 775 591 1075 516 
Q 1375 441 1709 441 
Q 2250 441 2565 725 
Q 2881 1009 2881 1497 
Q 2881 1984 2565 2268 
Q 2250 2553 1709 2553 
Q 1456 2553 1204 2497 
Q 953 2441 691 2322 
L 691 4666 
z
" id="DejaVuSans-35" transform="scale(0.015625)"/>
       </defs>
       <use xlink:href="#DejaVuSans-31"/>
       <use x="63.623047" xlink:href="#DejaVuSans-32"/>
       <use x="127.246094" xlink:href="#DejaVuSans-35"/>
      </g>
     </g>
    </g>
    <g id="xtick_5">
     <g id="line2d_5">
      <g>
       <use style="stroke:#000000;stroke-width:0.8;" x="217.930734" xlink:href="#m70427c3486" y="307.584"/>
      </g>
     </g>
     <g id="text_5">
      <!-- 167 -->
      <g transform="translate(208.386984 322.182437)scale(0.1 -0.1)">
       <defs>
        <path d="M 2113 2584 
Q 1688 2584 1439 2293 
Q 1191 2003 1191 1497 
Q 1191 994 1439 701 
Q 1688 409 2113 409 
Q 2538 409 2786 701 
Q 3034 994 3034 1497 
Q 3034 2003 2786 2293 
Q 2538 2584 2113 2584 
z
M 3366 4563 
L 3366 3988 
Q 3128 4100 2886 4159 
Q 2644 4219 2406 4219 
Q 1781 4219 1451 3797 
Q 1122 3375 1075 2522 
Q 1259 2794 1537 2939 
Q 1816 3084 2150 3084 
Q 2853 3084 3261 2657 
Q 3669 2231 3669 1497 
Q 3669 778 3244 343 
Q 2819 -91 2113 -91 
Q 1303 -91 875 529 
Q 447 1150 447 2328 
Q 447 3434 972 4092 
Q 1497 4750 2381 4750 
Q 2619 4750 2861 4703 
Q 3103 4656 3366 4563 
z
" id="DejaVuSans-36" transform="scale(0.015625)"/>
        <path d="M 525 4666 
L 3525 4666 
L 3525 4397 
L 1831 0 
L 1172 0 
L 2766 4134 
L 525 4134 
L 525 4666 
z
" id="DejaVuSans-37" transform="scale(0.015625)"/>
       </defs>
       <use xlink:href="#DejaVuSans-31"/>
       <use x="63.623047" xlink:href="#DejaVuSans-36"/>
       <use x="127.246094" xlink:href="#DejaVuSans-37"/>
      </g>
     </g>
    </g>
    <g id="xtick_6">
     <g id="line2d_6">
      <g>
       <use style="stroke:#000000;stroke-width:0.8;" x="253.521206" xlink:href="#m70427c3486" y="307.584"/>
      </g>
     </g>
     <g id="text_6">
      <!-- 208 -->
      <g transform="translate(243.977456 322.182437)scale(0.1 -0.1)">
       <defs>
        <path d="M 2034 4250 
Q 1547 4250 1301 3770 
Q 1056 3291 1056 2328 
Q 1056 1369 1301 889 
Q 1547 409 2034 409 
Q 2525 409 2770 889 
Q 3016 1369 3016 2328 
Q 3016 3291 2770 3770 
Q 2525 4250 2034 4250 
z
M 2034 4750 
Q 2819 4750 3233 4129 
Q 3647 3509 3647 2328 
Q 3647 1150 3233 529 
Q 2819 -91 2034 -91 
Q 1250 -91 836 529 
Q 422 1150 422 2328 
Q 422 3509 836 4129 
Q 1250 4750 2034 4750 
z
" id="DejaVuSans-30" transform="scale(0.015625)"/>
       </defs>
       <use xlink:href="#DejaVuSans-32"/>
       <use x="63.623047" xlink:href="#DejaVuSans-30"/>
       <use x="127.246094" xlink:href="#DejaVuSans-38"/>
      </g>
     </g>
    </g>
    <g id="xtick_7">
     <g id="line2d_7">
      <g>
       <use style="stroke:#000000;stroke-width:0.8;" x="289.979737" xlink:href="#m70427c3486" y="307.584"/>
      </g>
     </g>
     <g id="text_7">
      <!-- 250 -->
      <g transform="translate(280.435987 322.182437)scale(0.1 -0.1)">
       <use xlink:href="#DejaVuSans-32"/>
       <use x="63.623047" xlink:href="#DejaVuSans-35"/>
       <use x="127.246094" xlink:href="#DejaVuSans-30"/>
      </g>
     </g>
    </g>
    <g id="xtick_8">
     <g id="line2d_8">
      <g>
       <use style="stroke:#000000;stroke-width:0.8;" x="325.570209" xlink:href="#m70427c3486" y="307.584"/>
      </g>
     </g>
     <g id="text_8">
      <!-- 291 -->
      <g transform="translate(316.026459 322.182437)scale(0.1 -0.1)">
       <defs>
        <path d="M 703 97 
L 703 672 
Q 941 559 1184 500 
Q 1428 441 1663 441 
Q 2288 441 2617 861 
Q 2947 1281 2994 2138 
Q 2813 1869 2534 1725 
Q 2256 1581 1919 1581 
Q 1219 1581 811 2004 
Q 403 2428 403 3163 
Q 403 3881 828 4315 
Q 1253 4750 1959 4750 
Q 2769 4750 3195 4129 
Q 3622 3509 3622 2328 
Q 3622 1225 3098 567 
Q 2575 -91 1691 -91 
Q 1453 -91 1209 -44 
Q 966 3 703 97 
z
M 1959 2075 
Q 2384 2075 2632 2365 
Q 2881 2656 2881 3163 
Q 2881 3666 2632 3958 
Q 2384 4250 1959 4250 
Q 1534 4250 1286 3958 
Q 1038 3666 1038 3163 
Q 1038 2656 1286 2365 
Q 1534 2075 1959 2075 
z
" id="DejaVuSans-39" transform="scale(0.015625)"/>
       </defs>
       <use xlink:href="#DejaVuSans-32"/>
       <use x="63.623047" xlink:href="#DejaVuSans-39"/>
       <use x="127.246094" xlink:href="#DejaVuSans-31"/>
      </g>
     </g>
    </g>
    <g id="xtick_9">
     <g id="line2d_9">
      <g>
       <use style="stroke:#000000;stroke-width:0.8;" x="362.028741" xlink:href="#m70427c3486" y="307.584"/>
      </g>
     </g>
     <g id="text_9">
      <!-- 333 -->
      <g transform="translate(352.484991 322.182437)scale(0.1 -0.1)">
       <defs>
        <path d="M 2597 2516 
Q 3050 2419 3304 2112 
Q 3559 1806 3559 1356 
Q 3559 666 3084 287 
Q 2609 -91 1734 -91 
Q 1441 -91 1130 -33 
Q 819 25 488 141 
L 488 750 
Q 750 597 1062 519 
Q 1375 441 1716 441 
Q 2309 441 2620 675 
Q 2931 909 2931 1356 
Q 2931 1769 2642 2001 
Q 2353 2234 1838 2234 
L 1294 2234 
L 1294 2753 
L 1863 2753 
Q 2328 2753 2575 2939 
Q 2822 3125 2822 3475 
Q 2822 3834 2567 4026 
Q 2313 4219 1838 4219 
Q 1578 4219 1281 4162 
Q 984 4106 628 3988 
L 628 4550 
Q 988 4650 1302 4700 
Q 1616 4750 1894 4750 
Q 2613 4750 3031 4423 
Q 3450 4097 3450 3541 
Q 3450 3153 3228 2886 
Q 3006 2619 2597 2516 
z
" id="DejaVuSans-33" transform="scale(0.015625)"/>
       </defs>
       <use xlink:href="#DejaVuSans-33"/>
       <use x="63.623047" xlink:href="#DejaVuSans-33"/>
       <use x="127.246094" xlink:href="#DejaVuSans-33"/>
      </g>
     </g>
    </g>
    <g id="xtick_10">
     <g id="line2d_10">
      <g>
       <use style="stroke:#000000;stroke-width:0.8;" x="398.487273" xlink:href="#m70427c3486" y="307.584"/>
      </g>
     </g>
     <g id="text_10">
      <!-- 375 -->
      <g transform="translate(388.943523 322.182437)scale(0.1 -0.1)">
       <use xlink:href="#DejaVuSans-33"/>
       <use x="63.623047" xlink:href="#DejaVuSans-37"/>
       <use x="127.246094" xlink:href="#DejaVuSans-35"/>
      </g>
     </g>
    </g>
    <g id="text_11">
     <!-- Epochs -->
     <g transform="translate(218.244375 335.860562)scale(0.1 -0.1)">
      <defs>
       <path d="M 628 4666 
L 3578 4666 
L 3578 4134 
L 1259 4134 
L 1259 2753 
L 3481 2753 
L 3481 2222 
L 1259 2222 
L 1259 531 
L 3634 531 
L 3634 0 
L 628 0 
L 628 4666 
z
" id="DejaVuSans-45" transform="scale(0.015625)"/>
       <path d="M 1159 525 
L 1159 -1331 
L 581 -1331 
L 581 3500 
L 1159 3500 
L 1159 2969 
Q 1341 3281 1617 3432 
Q 1894 3584 2278 3584 
Q 2916 3584 3314 3078 
Q 3713 2572 3713 1747 
Q 3713 922 3314 415 
Q 2916 -91 2278 -91 
Q 1894 -91 1617 61 
Q 1341 213 1159 525 
z
M 3116 1747 
Q 3116 2381 2855 2742 
Q 2594 3103 2138 3103 
Q 1681 3103 1420 2742 
Q 1159 2381 1159 1747 
Q 1159 1113 1420 752 
Q 1681 391 2138 391 
Q 2594 391 2855 752 
Q 3116 1113 3116 1747 
z
" id="DejaVuSans-70" transform="scale(0.015625)"/>
       <path d="M 1959 3097 
Q 1497 3097 1228 2736 
Q 959 2375 959 1747 
Q 959 1119 1226 758 
Q 1494 397 1959 397 
Q 2419 397 2687 759 
Q 2956 1122 2956 1747 
Q 2956 2369 2687 2733 
Q 2419 3097 1959 3097 
z
M 1959 3584 
Q 2709 3584 3137 3096 
Q 3566 2609 3566 1747 
Q 3566 888 3137 398 
Q 2709 -91 1959 -91 
Q 1206 -91 779 398 
Q 353 888 353 1747 
Q 353 2609 779 3096 
Q 1206 3584 1959 3584 
z
" id="DejaVuSans-6f" transform="scale(0.015625)"/>
       <path d="M 3122 3366 
L 3122 2828 
Q 2878 2963 2633 3030 
Q 2388 3097 2138 3097 
Q 1578 3097 1268 2742 
Q 959 2388 959 1747 
Q 959 1106 1268 751 
Q 1578 397 2138 397 
Q 2388 397 2633 464 
Q 2878 531 3122 666 
L 3122 134 
Q 2881 22 2623 -34 
Q 2366 -91 2075 -91 
Q 1284 -91 818 406 
Q 353 903 353 1747 
Q 353 2603 823 3093 
Q 1294 3584 2113 3584 
Q 2378 3584 2631 3529 
Q 2884 3475 3122 3366 
z
" id="DejaVuSans-63" transform="scale(0.015625)"/>
       <path d="M 3513 2113 
L 3513 0 
L 2938 0 
L 2938 2094 
Q 2938 2591 2744 2837 
Q 2550 3084 2163 3084 
Q 1697 3084 1428 2787 
Q 1159 2491 1159 1978 
L 1159 0 
L 581 0 
L 581 4863 
L 1159 4863 
L 1159 2956 
Q 1366 3272 1645 3428 
Q 1925 3584 2291 3584 
Q 2894 3584 3203 3211 
Q 3513 2838 3513 2113 
z
" id="DejaVuSans-68" transform="scale(0.015625)"/>
       <path d="M 2834 3397 
L 2834 2853 
Q 2591 2978 2328 3040 
Q 2066 3103 1784 3103 
Q 1356 3103 1142 2972 
Q 928 2841 928 2578 
Q 928 2378 1081 2264 
Q 1234 2150 1697 2047 
L 1894 2003 
Q 2506 1872 2764 1633 
Q 3022 1394 3022 966 
Q 3022 478 2636 193 
Q 2250 -91 1575 -91 
Q 1294 -91 989 -36 
Q 684 19 347 128 
L 347 722 
Q 666 556 975 473 
Q 1284 391 1588 391 
Q 1994 391 2212 530 
Q 2431 669 2431 922 
Q 2431 1156 2273 1281 
Q 2116 1406 1581 1522 
L 1381 1569 
Q 847 1681 609 1914 
Q 372 2147 372 2553 
Q 372 3047 722 3315 
Q 1072 3584 1716 3584 
Q 2034 3584 2315 3537 
Q 2597 3491 2834 3397 
z
" id="DejaVuSans-73" transform="scale(0.015625)"/>
      </defs>
      <use xlink:href="#DejaVuSans-45"/>
      <use x="63.183594" xlink:href="#DejaVuSans-70"/>
      <use x="126.660156" xlink:href="#DejaVuSans-6f"/>
      <use x="187.841797" xlink:href="#DejaVuSans-63"/>
      <use x="242.822266" xlink:href="#DejaVuSans-68"/>
      <use x="306.201172" xlink:href="#DejaVuSans-73"/>
     </g>
    </g>
   </g>
   <g id="matplotlib.axis_2">
    <g id="ytick_1">
     <g id="line2d_11">
      <defs>
       <path d="M 0 0 
L -3.5 0 
" id="me5aa5fc1d1" style="stroke:#000000;stroke-width:0.8;"/>
      </defs>
      <g>
       <use style="stroke:#000000;stroke-width:0.8;" x="57.6" xlink:href="#me5aa5fc1d1" y="303.120594"/>
      </g>
     </g>
     <g id="text_12">
      <!-- 0 -->
      <g transform="translate(44.2375 306.919813)scale(0.1 -0.1)">
       <use xlink:href="#DejaVuSans-30"/>
      </g>
     </g>
    </g>
    <g id="ytick_2">
     <g id="line2d_12">
      <g>
       <use style="stroke:#000000;stroke-width:0.8;" x="57.6" xlink:href="#me5aa5fc1d1" y="270.816051"/>
      </g>
     </g>
     <g id="text_13">
      <!-- 10 -->
      <g transform="translate(37.875 274.61527)scale(0.1 -0.1)">
       <use xlink:href="#DejaVuSans-31"/>
       <use x="63.623047" xlink:href="#DejaVuSans-30"/>
      </g>
     </g>
    </g>
    <g id="ytick_3">
     <g id="line2d_13">
      <g>
       <use style="stroke:#000000;stroke-width:0.8;" x="57.6" xlink:href="#me5aa5fc1d1" y="238.511508"/>
      </g>
     </g>
     <g id="text_14">
      <!-- 20 -->
      <g transform="translate(37.875 242.310727)scale(0.1 -0.1)">
       <use xlink:href="#DejaVuSans-32"/>
       <use x="63.623047" xlink:href="#DejaVuSans-30"/>
      </g>
     </g>
    </g>
    <g id="ytick_4">
     <g id="line2d_14">
      <g>
       <use style="stroke:#000000;stroke-width:0.8;" x="57.6" xlink:href="#me5aa5fc1d1" y="206.206965"/>
      </g>
     </g>
     <g id="text_15">
      <!-- 30 -->
      <g transform="translate(37.875 210.006184)scale(0.1 -0.1)">
       <use xlink:href="#DejaVuSans-33"/>
       <use x="63.623047" xlink:href="#DejaVuSans-30"/>
      </g>
     </g>
    </g>
    <g id="ytick_5">
     <g id="line2d_15">
      <g>
       <use style="stroke:#000000;stroke-width:0.8;" x="57.6" xlink:href="#me5aa5fc1d1" y="173.902423"/>
      </g>
     </g>
     <g id="text_16">
      <!-- 40 -->
      <g transform="translate(37.875 177.701641)scale(0.1 -0.1)">
       <use xlink:href="#DejaVuSans-34"/>
       <use x="63.623047" xlink:href="#DejaVuSans-30"/>
      </g>
     </g>
    </g>
    <g id="ytick_6">
     <g id="line2d_16">
      <g>
       <use style="stroke:#000000;stroke-width:0.8;" x="57.6" xlink:href="#me5aa5fc1d1" y="141.59788"/>
      </g>
     </g>
     <g id="text_17">
      <!-- 50 -->
      <g transform="translate(37.875 145.397098)scale(0.1 -0.1)">
       <use xlink:href="#DejaVuSans-35"/>
       <use x="63.623047" xlink:href="#DejaVuSans-30"/>
      </g>
     </g>
    </g>
    <g id="ytick_7">
     <g id="line2d_17">
      <g>
       <use style="stroke:#000000;stroke-width:0.8;" x="57.6" xlink:href="#me5aa5fc1d1" y="109.293337"/>
      </g>
     </g>
     <g id="text_18">
      <!-- 60 -->
      <g transform="translate(37.875 113.092555)scale(0.1 -0.1)">
       <use xlink:href="#DejaVuSans-36"/>
       <use x="63.623047" xlink:href="#DejaVuSans-30"/>
      </g>
     </g>
    </g>
    <g id="ytick_8">
     <g id="line2d_18">
      <g>
       <use style="stroke:#000000;stroke-width:0.8;" x="57.6" xlink:href="#me5aa5fc1d1" y="76.988794"/>
      </g>
     </g>
     <g id="text_19">
      <!-- 70 -->
      <g transform="translate(37.875 80.788012)scale(0.1 -0.1)">
       <use xlink:href="#DejaVuSans-37"/>
       <use x="63.623047" xlink:href="#DejaVuSans-30"/>
      </g>
     </g>
    </g>
    <g id="ytick_9">
     <g id="line2d_19">
      <g>
       <use style="stroke:#000000;stroke-width:0.8;" x="57.6" xlink:href="#me5aa5fc1d1" y="44.684251"/>
      </g>
     </g>
     <g id="text_20">
      <!-- 80 -->
      <g transform="translate(37.875 48.483469)scale(0.1 -0.1)">
       <use xlink:href="#DejaVuSans-38"/>
       <use x="63.623047" xlink:href="#DejaVuSans-30"/>
      </g>
     </g>
    </g>
    <g id="text_21">
     <!-- Accuracy -->
     <g transform="translate(31.795312 197.356125)rotate(-90)scale(0.1 -0.1)">
      <defs>
       <path d="M 2188 4044 
L 1331 1722 
L 3047 1722 
L 2188 4044 
z
M 1831 4666 
L 2547 4666 
L 4325 0 
L 3669 0 
L 3244 1197 
L 1141 1197 
L 716 0 
L 50 0 
L 1831 4666 
z
" id="DejaVuSans-41" transform="scale(0.015625)"/>
       <path d="M 544 1381 
L 544 3500 
L 1119 3500 
L 1119 1403 
Q 1119 906 1312 657 
Q 1506 409 1894 409 
Q 2359 409 2629 706 
Q 2900 1003 2900 1516 
L 2900 3500 
L 3475 3500 
L 3475 0 
L 2900 0 
L 2900 538 
Q 2691 219 2414 64 
Q 2138 -91 1772 -91 
Q 1169 -91 856 284 
Q 544 659 544 1381 
z
M 1991 3584 
L 1991 3584 
z
" id="DejaVuSans-75" transform="scale(0.015625)"/>
       <path d="M 2631 2963 
Q 2534 3019 2420 3045 
Q 2306 3072 2169 3072 
Q 1681 3072 1420 2755 
Q 1159 2438 1159 1844 
L 1159 0 
L 581 0 
L 581 3500 
L 1159 3500 
L 1159 2956 
Q 1341 3275 1631 3429 
Q 1922 3584 2338 3584 
Q 2397 3584 2469 3576 
Q 2541 3569 2628 3553 
L 2631 2963 
z
" id="DejaVuSans-72" transform="scale(0.015625)"/>
       <path d="M 2194 1759 
Q 1497 1759 1228 1600 
Q 959 1441 959 1056 
Q 959 750 1161 570 
Q 1363 391 1709 391 
Q 2188 391 2477 730 
Q 2766 1069 2766 1631 
L 2766 1759 
L 2194 1759 
z
M 3341 1997 
L 3341 0 
L 2766 0 
L 2766 531 
Q 2569 213 2275 61 
Q 1981 -91 1556 -91 
Q 1019 -91 701 211 
Q 384 513 384 1019 
Q 384 1609 779 1909 
Q 1175 2209 1959 2209 
L 2766 2209 
L 2766 2266 
Q 2766 2663 2505 2880 
Q 2244 3097 1772 3097 
Q 1472 3097 1187 3025 
Q 903 2953 641 2809 
L 641 3341 
Q 956 3463 1253 3523 
Q 1550 3584 1831 3584 
Q 2591 3584 2966 3190 
Q 3341 2797 3341 1997 
z
" id="DejaVuSans-61" transform="scale(0.015625)"/>
       <path d="M 2059 -325 
Q 1816 -950 1584 -1140 
Q 1353 -1331 966 -1331 
L 506 -1331 
L 506 -850 
L 844 -850 
Q 1081 -850 1212 -737 
Q 1344 -625 1503 -206 
L 1606 56 
L 191 3500 
L 800 3500 
L 1894 763 
L 2988 3500 
L 3597 3500 
L 2059 -325 
z
" id="DejaVuSans-79" transform="scale(0.015625)"/>
      </defs>
      <use xlink:href="#DejaVuSans-41"/>
      <use x="66.658203" xlink:href="#DejaVuSans-63"/>
      <use x="121.638672" xlink:href="#DejaVuSans-63"/>
      <use x="176.619141" xlink:href="#DejaVuSans-75"/>
      <use x="239.998047" xlink:href="#DejaVuSans-72"/>
      <use x="281.111328" xlink:href="#DejaVuSans-61"/>
      <use x="342.390625" xlink:href="#DejaVuSans-63"/>
      <use x="397.371094" xlink:href="#DejaVuSans-79"/>
     </g>
    </g>
   </g>
   <g id="line2d_20">
    <path clip-path="url(#p4bce4ed33a)" d="M 73.832727 295.488 
L 75.568848 289.279067 
L 76.436908 288.419766 
L 78.173029 285.37474 
L 79.041089 284.765153 
L 80.77721 279.699801 
L 82.51333 277.326386 
L 83.38139 277.055028 
L 84.249451 269.103911 
L 85.117511 265.957448 
L 85.985571 268.298558 
L 86.853632 264.792223 
L 88.589752 259.281068 
L 89.457812 257.665841 
L 90.325873 256.825923 
L 91.193933 257.116664 
L 92.061993 248.943615 
L 92.930053 255.520819 
L 93.798114 249.755751 
L 94.666174 250.647356 
L 95.534234 270.919426 
L 96.402295 264.62424 
L 97.270355 261.92358 
L 98.138415 260.708929 
L 99.006475 260.056377 
L 99.874536 254.954521 
L 100.742596 257.196456 
L 101.610656 256.160449 
L 102.478717 249.344191 
L 103.346777 249.016946 
L 104.214837 245.711222 
L 105.082897 244.436162 
L 105.950958 246.740445 
L 106.819018 240.537972 
L 107.687078 241.414718 
L 108.555139 234.563893 
L 109.423199 238.039862 
L 110.291259 234.049282 
L 111.159319 231.150272 
L 112.02738 234.915044 
L 112.89544 236.805829 
L 113.7635 234.921505 
L 114.631561 236.982534 
L 115.499621 226.343356 
L 116.367681 229.970187 
L 117.235741 224.846687 
L 118.103802 229.356401 
L 119.839922 220.110841 
L 120.707982 222.527221 
L 121.576043 222.245202 
L 122.444103 218.329891 
L 123.312163 217.636313 
L 124.180224 210.335486 
L 125.048284 205.468161 
L 125.916344 209.129557 
L 126.784404 215.357873 
L 127.652465 213.016763 
L 128.520525 205.862276 
L 129.388585 208.330343 
L 130.256646 212.973798 
L 131.124706 204.886679 
L 131.992766 202.97005 
L 132.860826 213.187008 
L 133.728887 205.634206 
L 134.596947 205.427457 
L 135.465007 199.26375 
L 136.333068 201.098648 
L 137.201128 201.384866 
L 138.069188 206.788447 
L 138.937248 238.690153 
L 139.805309 232.423071 
L 140.673369 227.394546 
L 141.541429 226.961665 
L 142.40949 230.041257 
L 143.27755 224.026151 
L 144.14561 222.352776 
L 145.01367 225.639117 
L 145.881731 231.368005 
L 146.749791 222.927797 
L 147.617851 220.395121 
L 148.485912 223.052816 
L 149.353972 220.382199 
L 150.222032 223.776437 
L 151.090092 218.426805 
L 151.958153 216.975039 
L 152.826213 214.70726 
L 153.694273 213.451905 
L 154.562333 226.819525 
L 155.430394 218.624832 
L 156.298454 216.593845 
L 157.166514 218.588328 
L 158.034575 207.425816 
L 158.902635 213.64121 
L 159.770695 216.359314 
L 160.638755 214.933392 
L 161.506816 215.848902 
L 162.374876 215.54524 
L 163.242936 222.372159 
L 164.110997 214.085074 
L 164.979057 219.718987 
L 165.847117 216.044668 
L 166.715177 215.962937 
L 167.583238 209.471986 
L 168.451298 212.70664 
L 169.319358 211.089151 
L 170.187419 214.132239 
L 171.055479 206.870178 
L 171.923539 207.684252 
L 172.791599 209.443881 
L 173.65966 206.262852 
L 174.52772 207.268816 
L 175.39578 197.094823 
L 176.263841 207.37639 
L 177.131901 210.395896 
L 177.999961 201.7512 
L 178.868021 211.156021 
L 179.736082 206.286758 
L 180.604142 199.380046 
L 181.472202 195.990008 
L 182.340263 197.895976 
L 183.208323 197.047658 
L 184.076383 212.792893 
L 184.944443 200.299434 
L 185.812504 197.702148 
L 186.680564 197.181076 
L 187.548624 207.925567 
L 188.416684 215.471908 
L 190.152805 189.87605 
L 191.020865 202.17762 
L 191.888926 189.89091 
L 192.756986 201.490502 
L 193.625046 192.959842 
L 194.493106 194.906836 
L 195.361167 198.947166 
L 196.229227 196.382185 
L 197.097287 185.702303 
L 197.965348 194.36832 
L 198.833408 191.228318 
L 199.701468 199.948606 
L 200.569528 183.468767 
L 201.437589 186.953458 
L 202.305649 192.09408 
L 203.173709 189.363377 
L 204.04177 191.153048 
L 204.90983 182.135881 
L 205.77789 190.993787 
L 206.64595 185.310126 
L 207.514011 183.344071 
L 208.382071 195.843668 
L 209.250131 173.602959 
L 210.118192 183.305306 
L 210.986252 180.527115 
L 211.854312 184.91601 
L 212.722372 175.356127 
L 213.590433 176.980076 
L 214.458493 175.328022 
L 215.326553 176.658969 
L 216.194614 185.786295 
L 217.062674 175.056664 
L 217.930734 189.283585 
L 218.798794 187.698724 
L 219.666855 182.842059 
L 220.534915 184.323868 
L 221.402975 179.062427 
L 222.271035 178.227032 
L 223.139096 186.723126 
L 224.007156 179.805432 
L 224.875216 176.073288 
L 225.743277 219.210513 
L 226.611337 229.539568 
L 227.479397 214.26598 
L 228.347457 210.029562 
L 229.215518 215.799153 
L 230.951638 213.824377 
L 231.819699 208.380092 
L 232.687759 213.581124 
L 233.555819 220.059154 
L 234.423879 210.552896 
L 235.29194 213.421539 
L 236.16 211.832156 
L 237.02806 223.627836 
L 237.896121 205.086967 
L 238.764181 206.81203 
L 239.632241 215.607587 
L 240.500301 209.398654 
L 241.368362 206.336184 
L 242.236422 211.92067 
L 243.104482 209.310463 
L 243.972543 208.985156 
L 244.840603 211.860261 
L 245.708663 211.683555 
L 246.576723 210.945073 
L 247.444784 209.439681 
L 248.312844 205.698815 
L 249.180904 215.060672 
L 250.048965 207.253633 
L 250.917025 209.489107 
L 251.785085 207.832853 
L 252.653145 213.699358 
L 253.521206 205.308899 
L 254.389266 216.100878 
L 255.257326 201.518607 
L 256.125386 200.646385 
L 256.993447 200.723915 
L 257.861507 208.916348 
L 258.729567 203.206843 
L 259.597628 208.707337 
L 260.465688 196.774039 
L 262.201808 207.688775 
L 263.069869 205.287255 
L 263.937929 212.196228 
L 264.805989 205.832233 
L 265.67405 213.05779 
L 266.54211 208.414335 
L 267.41017 208.86886 
L 268.27823 202.328159 
L 269.146291 205.720136 
L 270.014351 203.846473 
L 270.882411 203.646184 
L 271.750472 203.157417 
L 272.618532 204.044822 
L 273.486592 203.004616 
L 274.354652 198.042638 
L 275.222713 207.533713 
L 276.090773 203.454618 
L 276.958833 202.681571 
L 277.826894 203.109929 
L 278.694954 202.937746 
L 279.563014 198.076881 
L 280.431074 204.779105 
L 281.299135 208.233429 
L 282.167195 196.0656 
L 283.035255 199.310915 
L 283.903316 211.091412 
L 284.771376 205.657788 
L 285.639436 203.833551 
L 286.507496 193.825603 
L 287.375557 201.850052 
L 288.243617 203.754082 
L 289.979737 195.281569 
L 290.847798 196.084983 
L 291.715858 205.263673 
L 292.583918 205.306638 
L 293.451979 192.15029 
L 294.320039 202.539431 
L 295.188099 196.774039 
L 296.056159 204.899601 
L 296.92422 194.654861 
L 297.79228 191.717409 
L 298.66034 205.140916 
L 299.528401 193.821404 
L 300.396461 203.583837 
L 301.264521 202.100089 
L 302.132581 198.027455 
L 303.000642 192.869389 
L 303.868702 191.456711 
L 304.736762 196.713629 
L 305.604823 193.166591 
L 306.472883 202.474822 
L 307.340943 199.399429 
L 308.209003 198.63898 
L 309.077064 193.468315 
L 309.945124 196.416428 
L 310.813184 192.589631 
L 311.681245 205.829971 
L 312.549305 186.800657 
L 313.417365 193.864369 
L 314.285425 207.985977 
L 315.153486 189.38276 
L 316.021546 195.031855 
L 316.889606 189.447369 
L 317.757667 188.32737 
L 318.625727 192.830623 
L 319.493787 191.415684 
L 320.361847 188.81 
L 321.229908 191.609512 
L 322.097968 190.769594 
L 322.966028 195.055437 
L 323.834088 197.249885 
L 324.702149 195.731571 
L 325.570209 181.77827 
L 326.438269 186.632674 
L 327.30633 185.383457 
L 328.17439 193.080661 
L 329.04245 197.445973 
L 329.91051 187.097859 
L 330.778571 178.149501 
L 331.646631 190.149346 
L 332.514691 190.199095 
L 333.382752 183.277201 
L 334.250812 181.323745 
L 335.118872 186.830701 
L 335.986932 188.463049 
L 336.854993 180.886665 
L 337.723053 194.122805 
L 338.591113 194.422268 
L 339.459174 186.602307 
L 340.327234 187.761071 
L 341.195294 172.509128 
L 342.063354 178.898966 
L 342.931415 180.912508 
L 343.799475 177.43654 
L 344.667535 181.64033 
L 345.535596 189.346255 
L 346.403656 186.135184 
L 347.271716 178.106213 
L 348.139776 182.770989 
L 349.007837 183.249096 
L 349.875897 184.562922 
L 350.743957 183.731726 
L 351.612018 180.389175 
L 352.480078 172.295918 
L 353.348138 177.369669 
L 354.216198 175.080569 
L 355.084259 178.840818 
L 355.952319 179.404855 
L 356.820379 174.785306 
L 357.688439 176.781726 
L 358.5565 174.819872 
L 359.42456 182.320986 
L 360.29262 179.340246 
L 361.160681 175.09123 
L 362.028741 174.776907 
L 362.896801 162.619415 
L 363.764861 181.612548 
L 364.632922 175.373248 
L 365.500982 170.344723 
L 366.369042 160.274105 
L 367.237103 173.908883 
L 368.105163 174.856376 
L 368.973223 174.509748 
L 369.841283 179.187446 
L 370.709344 172.941901 
L 371.577404 177.46023 
L 372.445464 165.628152 
L 373.313525 176.91536 
L 374.181585 179.848612 
L 375.049645 162.417081 
L 375.917705 168.565712 
L 376.785766 169.114889 
L 377.653826 167.738716 
L 378.521886 160.683404 
L 379.389947 152.165772 
L 380.258007 167.88947 
L 381.126067 172.780378 
L 381.994127 171.688485 
L 382.862188 165.18881 
L 383.730248 173.71721 
L 384.598308 168.964135 
L 385.466368 165.169428 
L 386.334429 166.920334 
L 387.202489 157.024376 
L 388.070549 169.089046 
L 388.93861 169.300102 
L 389.80667 178.853632 
L 390.67473 165.098358 
L 391.54279 165.341719 
L 392.410851 161.142128 
L 393.278911 171.091927 
L 394.146971 168.195287 
L 395.015032 166.689895 
L 395.883092 168.507564 
L 396.751152 170.87441 
L 397.619212 170.715041 
L 398.487273 174.843562 
L 398.487273 174.843562 
" style="fill:none;stroke:#1f77b4;stroke-linecap:square;stroke-width:1.5;"/>
   </g>
   <g id="line2d_21">
    <path clip-path="url(#p4bce4ed33a)" d="M 73.832727 287.87285 
L 74.700788 279.829019 
L 75.568848 275.015642 
L 76.436908 276.695478 
L 77.304968 276.598565 
L 78.173029 269.459261 
L 79.041089 268.910083 
L 79.909149 257.538884 
L 80.77721 254.599171 
L 81.64527 255.503698 
L 82.51333 259.251025 
L 83.38139 242.226531 
L 84.249451 237.477763 
L 85.117511 230.338459 
L 85.985571 228.174055 
L 86.853632 230.6292 
L 87.721692 224.491337 
L 88.589752 216.12446 
L 89.457812 213.313965 
L 90.325873 206.562315 
L 91.193933 204.397911 
L 92.061993 200.521366 
L 92.930053 199.875275 
L 93.798114 196.70943 
L 94.666174 197.937002 
L 95.534234 237.703895 
L 96.402295 241.031263 
L 97.270355 228.367882 
L 98.138415 208.759024 
L 99.006475 207.692974 
L 99.874536 204.624043 
L 100.742596 200.876716 
L 101.610656 200.166016 
L 102.478717 190.086999 
L 103.346777 199.584534 
L 104.214837 195.772598 
L 105.082897 193.123626 
L 105.950958 184.369094 
L 106.819018 178.748104 
L 107.687078 193.834326 
L 108.555139 170.252009 
L 109.423199 188.213335 
L 110.291259 162.402005 
L 111.159319 161.239042 
L 112.02738 156.03801 
L 112.89544 155.68266 
L 113.7635 153.292124 
L 114.631561 147.541915 
L 115.499621 172.771764 
L 116.367681 159.203855 
L 117.235741 142.082448 
L 118.103802 135.363103 
L 118.971862 131.938821 
L 119.839922 142.405493 
L 120.707982 131.938821 
L 121.576043 126.996226 
L 122.444103 120.955277 
L 123.312163 119.436963 
L 124.180224 121.181408 
L 125.048284 116.884904 
L 125.916344 124.896431 
L 126.784404 110.779346 
L 127.652465 116.49725 
L 128.520525 107.645805 
L 129.388585 107.6135 
L 130.256646 104.803005 
L 131.124706 103.187778 
L 131.992766 102.024814 
L 132.860826 101.960205 
L 133.728887 99.795801 
L 134.596947 100.118846 
L 135.465007 98.568228 
L 136.333068 97.825224 
L 137.201128 98.697447 
L 138.069188 98.406706 
L 138.937248 177.520531 
L 139.805309 164.081841 
L 140.673369 153.389038 
L 141.541429 155.391919 
L 142.40949 144.860638 
L 143.27755 137.462898 
L 144.14561 143.406934 
L 145.01367 141.565575 
L 145.881731 135.395407 
L 146.749791 141.565575 
L 147.617851 138.238207 
L 148.485912 140.079566 
L 149.353972 138.496643 
L 150.222032 119.178527 
L 151.090092 144.763725 
L 151.958153 122.570504 
L 152.826213 119.210831 
L 153.694273 122.538199 
L 154.562333 122.796636 
L 155.430394 133.004871 
L 156.298454 125.090258 
L 157.166514 119.436963 
L 158.034575 122.505895 
L 158.902635 116.626468 
L 159.770695 113.815973 
L 160.638755 118.984699 
L 161.506816 129.096021 
L 162.374876 114.171323 
L 163.242936 113.719059 
L 164.110997 112.911445 
L 164.979057 124.637995 
L 165.847117 116.626468 
L 166.715177 125.413304 
L 168.451298 113.686754 
L 169.319358 110.165559 
L 170.187419 108.356505 
L 171.055479 108.937987 
L 171.923539 110.230168 
L 172.791599 110.81165 
L 173.65966 114.332845 
L 174.52772 104.350742 
L 175.39578 109.971732 
L 176.263841 104.060001 
L 177.131901 101.63716 
L 178.868021 102.541687 
L 180.604142 98.309792 
L 181.472202 100.441892 
L 182.340263 99.569669 
L 183.208323 99.085101 
L 184.076383 97.340656 
L 184.944443 97.082219 
L 185.812504 103.672346 
L 186.680564 94.142506 
L 187.548624 91.590447 
L 188.416684 99.666583 
L 189.284745 100.829546 
L 190.152805 92.171929 
L 191.020865 88.521515 
L 191.888926 88.19847 
L 192.756986 87.003202 
L 193.625046 93.464111 
L 194.493106 83.546616 
L 195.361167 86.42172 
L 196.229227 84.580361 
L 197.097287 83.57892 
L 197.965348 79.637766 
L 199.701468 81.705257 
L 200.569528 78.604021 
L 201.437589 81.15608 
L 202.305649 77.828712 
L 203.173709 75.599698 
L 204.04177 76.698053 
L 205.77789 72.756899 
L 206.64595 72.530767 
L 207.514011 74.630562 
L 208.382071 70.85093 
L 209.250131 70.657103 
L 210.118192 70.592494 
L 210.986252 71.173976 
L 211.854312 69.752576 
L 212.722372 67.911217 
L 213.590433 68.912658 
L 214.458493 67.458953 
L 215.326553 66.263685 
L 216.194614 67.103604 
L 217.062674 66.619035 
L 218.798794 66.166772 
L 219.666855 66.29599 
L 220.534915 64.066976 
L 221.402975 66.683644 
L 223.139096 64.454631 
L 224.007156 65.262245 
L 224.875216 65.003808 
L 225.743277 136.073803 
L 226.611337 123.862685 
L 227.479397 125.994785 
L 228.347457 122.021327 
L 229.215518 113.008359 
L 230.083578 121.859804 
L 230.951638 112.491486 
L 231.819699 127.577708 
L 232.687759 102.573992 
L 233.555819 119.501572 
L 234.423879 117.304863 
L 235.29194 109.680991 
L 236.16 125.284085 
L 237.02806 114.849718 
L 237.896121 122.925854 
L 238.764181 119.081613 
L 239.632241 105.416791 
L 240.500301 106.418232 
L 242.236422 106.708973 
L 243.104482 108.356505 
L 243.972543 108.937987 
L 244.840603 117.5633 
L 245.708663 104.415351 
L 246.576723 110.553214 
L 247.444784 108.808768 
L 248.312844 109.39025 
L 249.180904 103.284692 
L 250.048965 141.404052 
L 250.917025 101.960205 
L 251.785085 118.370913 
L 252.653145 101.120287 
L 253.521206 108.259591 
L 254.389266 135.621539 
L 255.257326 98.632837 
L 256.125386 99.020492 
L 256.993447 95.176251 
L 257.861507 103.898478 
L 258.729567 105.739837 
L 259.597628 104.673787 
L 260.465688 119.404659 
L 261.333748 100.21576 
L 262.201808 107.775023 
L 263.937929 99.472756 
L 264.805989 98.471315 
L 265.67405 105.998273 
L 266.54211 105.90136 
L 267.41017 93.593329 
L 268.27823 92.301147 
L 269.146291 106.773582 
L 270.014351 94.59477 
L 270.882411 102.541687 
L 271.750472 104.350742 
L 272.618532 98.406706 
L 273.486592 103.220083 
L 274.354652 102.606296 
L 275.222713 100.151151 
L 276.090773 107.225846 
L 276.958833 106.870496 
L 277.826894 91.558143 
L 278.694954 90.976661 
L 279.563014 99.892715 
L 280.431074 97.760615 
L 281.299135 99.214319 
L 282.167195 93.464111 
L 283.035255 98.277487 
L 283.903316 96.533042 
L 284.771376 95.983865 
L 285.639436 101.572551 
L 287.375557 92.010406 
L 288.243617 98.697447 
L 289.111677 90.007524 
L 289.979737 92.81802 
L 290.847798 92.559583 
L 291.715858 86.873984 
L 292.583918 87.907729 
L 293.451979 99.698887 
L 294.320039 88.618429 
L 295.188099 85.194148 
L 296.056159 87.13242 
L 296.92422 95.531601 
L 297.79228 90.782833 
L 298.66034 97.922137 
L 299.528401 90.589006 
L 300.396461 99.408146 
L 301.264521 88.295384 
L 302.132581 87.067811 
L 303.000642 92.947238 
L 303.868702 97.049915 
L 304.736762 86.130979 
L 305.604823 85.614107 
L 306.472883 84.321925 
L 307.340943 87.649293 
L 309.077064 84.709579 
L 309.945124 83.675834 
L 310.813184 88.392297 
L 311.681245 90.039829 
L 312.549305 85.646411 
L 313.417365 79.896203 
L 314.285425 81.899084 
L 315.153486 82.51287 
L 316.021546 80.768425 
L 316.889606 85.614107 
L 317.757667 81.608343 
L 318.625727 83.385093 
L 319.493787 78.345584 
L 320.361847 81.51143 
L 321.229908 79.670071 
L 322.966028 82.189825 
L 323.834088 76.084266 
L 324.702149 74.695171 
L 325.570209 82.674393 
L 326.438269 76.956489 
L 327.30633 80.316162 
L 328.17439 77.344144 
L 329.04245 80.768425 
L 329.91051 77.990234 
L 330.778571 85.420279 
L 331.646631 74.662867 
L 332.514691 74.40443 
L 333.382752 77.311839 
L 334.250812 71.949285 
L 335.118872 73.370685 
L 335.986932 77.053403 
L 336.854993 70.269449 
L 337.723053 70.786321 
L 338.591113 76.924185 
L 339.459174 71.755458 
L 340.327234 73.564512 
L 341.195294 72.821508 
L 342.063354 72.756899 
L 342.931415 70.818626 
L 343.799475 74.242907 
L 344.667535 74.081385 
L 345.535596 69.332617 
L 346.403656 71.91698 
L 347.271716 67.00669 
L 348.139776 66.974385 
L 349.007837 66.586731 
L 349.875897 69.364922 
L 350.743957 65.100722 
L 351.612018 65.423767 
L 352.480078 70.495581 
L 353.348138 65.714508 
L 354.216198 64.809981 
L 355.084259 66.037554 
L 355.952319 64.066976 
L 356.820379 67.103604 
L 357.688439 63.162449 
L 358.5565 64.034672 
L 359.42456 62.871708 
L 360.29262 62.968622 
L 361.160681 62.38714 
L 362.028741 62.936317 
L 362.896801 63.194754 
L 363.764861 61.708745 
L 364.632922 60.545781 
L 365.500982 61.482613 
L 366.369042 60.190431 
L 367.237103 62.290227 
L 368.105163 60.061213 
L 368.973223 58.930554 
L 369.841283 61.385699 
L 370.709344 58.575204 
L 371.577404 58.18755 
L 372.445464 57.186109 
L 374.181585 57.024586 
L 375.049645 56.05545 
L 376.785766 57.412241 
L 377.653826 56.636932 
L 378.521886 55.635491 
L 379.389947 56.281582 
L 380.258007 57.379936 
L 381.126067 54.698659 
L 381.994127 56.152363 
L 382.862188 56.313886 
L 383.730248 55.7001 
L 384.598308 55.280141 
L 385.466368 56.76615 
L 386.334429 55.280141 
L 387.202489 54.9894 
L 388.070549 53.568 
L 388.93861 53.794132 
L 389.80667 53.826436 
L 390.67473 54.504832 
L 391.54279 54.246395 
L 392.410851 54.2787 
L 393.278911 54.181786 
L 394.146971 55.021704 
L 395.015032 54.181786 
L 395.883092 54.763268 
L 396.751152 54.052568 
L 397.619212 53.826436 
L 398.487273 54.246395 
L 398.487273 54.246395 
" style="fill:none;stroke:#ff7f0e;stroke-linecap:square;stroke-width:1.5;"/>
   </g>
   <g id="line2d_22">
    <path clip-path="url(#p4bce4ed33a)" d="M 73.832727 288.770593 
L 74.700788 282.020559 
L 75.568848 277.361921 
L 76.436908 279.198111 
L 77.304968 277.905929 
L 78.173029 272.465198 
L 79.041089 272.822487 
L 79.909149 262.978 
L 80.77721 261.770779 
L 81.64527 262.41687 
L 82.51333 265.341401 
L 83.38139 248.866084 
L 84.249451 244.717534 
L 85.117511 239.616647 
L 85.985571 235.383137 
L 86.853632 241.07875 
L 87.721692 233.818951 
L 89.457812 222.053313 
L 90.325873 219.55391 
L 91.193933 218.737575 
L 92.061993 214.725027 
L 92.930053 213.603091 
L 93.798114 211.749779 
L 94.666174 211.902903 
L 95.534234 245.380423 
L 96.402295 253.082473 
L 97.270355 241.877965 
L 98.138415 222.869326 
L 99.006475 219.009902 
L 99.874536 221.475062 
L 100.742596 213.262924 
L 101.610656 212.633954 
L 102.478717 205.560875 
L 103.346777 212.208827 
L 104.214837 209.709424 
L 105.082897 213.467088 
L 105.950958 201.973455 
L 106.819018 197.450819 
L 107.687078 207.652271 
L 108.555139 188.541549 
L 109.423199 208.706368 
L 110.291259 182.828814 
L 111.159319 181.825435 
L 112.02738 175.840695 
L 112.89544 174.293631 
L 113.7635 174.701637 
L 114.631561 169.413706 
L 115.499621 195.461505 
L 116.367681 183.202577 
L 117.235741 163.360804 
L 118.971862 155.012664 
L 119.839922 163.683849 
L 120.707982 159.3825 
L 121.576043 148.942963 
L 122.444103 151.15324 
L 123.312163 147.650782 
L 124.180224 145.746429 
L 125.048284 144.981457 
L 125.916344 151.646208 
L 126.784404 140.237535 
L 127.652465 141.00283 
L 128.520525 136.344192 
L 129.388585 137.160204 
L 130.256646 134.575841 
L 131.124706 129.509197 
L 131.992766 129.016229 
L 132.860826 130.240248 
L 133.728887 126.992673 
L 134.596947 129.66232 
L 135.465007 128.57398 
L 136.333068 127.825807 
L 137.201128 128.709982 
L 138.069188 127.97893 
L 138.937248 198.011949 
L 140.673369 174.735557 
L 141.541429 174.803396 
L 142.40949 172.49136 
L 143.27755 164.823231 
L 144.14561 168.767615 
L 145.01367 162.680793 
L 145.881731 161.830861 
L 146.749791 167.509677 
L 147.617851 170.297882 
L 148.485912 166.880384 
L 149.353972 168.784737 
L 150.222032 150.881236 
L 151.090092 172.270074 
L 151.958153 145.644347 
L 152.826213 144.879375 
L 153.694273 155.965002 
L 154.562333 148.415753 
L 155.430394 163.972975 
L 156.298454 151.238201 
L 158.034575 149.894978 
L 158.902635 145.27026 
L 159.770695 144.046241 
L 160.638755 146.273639 
L 161.506816 152.173418 
L 162.374876 144.267204 
L 163.242936 140.305698 
L 164.110997 140.237535 
L 164.979057 159.518502 
L 165.847117 142.83902 
L 166.715177 157.342145 
L 167.583238 144.760171 
L 168.451298 142.685897 
L 169.319358 138.452386 
L 170.187419 137.721334 
L 171.055479 137.211246 
L 171.923539 139.31944 
L 172.791599 138.826473 
L 173.65966 143.536152 
L 174.52772 136.633317 
L 175.39578 142.159009 
L 176.263841 132.603649 
L 177.131901 132.144601 
L 177.999961 135.391854 
L 178.868021 131.583471 
L 179.736082 131.107302 
L 180.604142 126.652829 
L 181.472202 130.886339 
L 182.340263 130.325209 
L 183.208323 131.413549 
L 184.076383 124.578554 
L 184.944443 128.183095 
L 185.812504 133.606705 
L 186.680564 126.448664 
L 187.548624 121.569063 
L 188.416684 124.119507 
L 189.284745 129.407114 
L 190.152805 120.208719 
L 191.020865 115.601122 
L 191.888926 115.091033 
L 192.756986 114.751189 
L 193.625046 127.724048 
L 194.493106 116.11121 
L 195.361167 115.652163 
L 196.229227 114.513105 
L 197.097287 111.894821 
L 197.965348 108.91925 
L 198.833408 108.783248 
L 199.701468 111.010646 
L 200.569528 109.616382 
L 201.437589 105.841919 
L 202.305649 109.531421 
L 203.173709 103.835484 
L 204.04177 107.236183 
L 204.90983 101.812251 
L 205.77789 102.220257 
L 206.64595 103.240434 
L 207.514011 106.572971 
L 208.382071 101.948253 
L 209.250131 98.989803 
L 210.118192 100.724234 
L 210.986252 98.632837 
L 211.854312 99.891099 
L 212.722372 96.830567 
L 213.590433 96.89873 
L 214.458493 95.89535 
L 215.326553 95.572305 
L 216.194614 94.994377 
L 217.062674 95.708307 
L 217.930734 95.385262 
L 218.798794 96.014554 
L 219.666855 94.58637 
L 220.534915 92.613855 
L 221.402975 94.348286 
L 222.271035 92.971143 
L 223.139096 93.072903 
L 224.007156 94.314366 
L 224.875216 94.62029 
L 225.743277 165.095235 
L 226.611337 154.434736 
L 227.479397 157.495268 
L 228.347457 154.621779 
L 229.215518 147.701823 
L 230.083578 146.32468 
L 230.951638 140.917869 
L 231.819699 156.032842 
L 232.687759 137.959419 
L 233.555819 145.440505 
L 234.423879 143.910239 
L 235.29194 138.690471 
L 236.16 155.913961 
L 237.02806 143.485111 
L 237.896121 162.969919 
L 238.764181 144.165122 
L 239.632241 134.796804 
L 240.500301 137.466452 
L 241.368362 136.037945 
L 242.236422 136.718278 
L 243.104482 135.05201 
L 243.972543 144.148323 
L 244.840603 148.75592 
L 245.708663 136.92212 
L 246.576723 142.515975 
L 247.444784 137.41541 
L 248.312844 139.948733 
L 249.180904 131.226506 
L 250.048965 170.68909 
L 250.917025 131.175465 
L 251.785085 155.471712 
L 252.653145 132.144601 
L 253.521206 139.251601 
L 254.389266 174.939721 
L 255.257326 128.54006 
L 256.125386 129.237192 
L 256.993447 130.138166 
L 257.861507 136.072187 
L 258.729567 132.603649 
L 259.597628 132.637568 
L 260.465688 151.204282 
L 261.333748 130.682498 
L 262.201808 140.458821 
L 263.069869 136.293151 
L 263.937929 130.954502 
L 264.805989 129.390316 
L 265.67405 139.982652 
L 266.54211 136.20819 
L 267.41017 127.077957 
L 268.27823 121.756106 
L 269.146291 138.248545 
L 270.014351 123.728299 
L 271.750472 143.144944 
L 272.618532 135.851224 
L 273.486592 133.147657 
L 274.354652 134.847845 
L 275.222713 128.114932 
L 276.090773 138.435588 
L 276.958833 140.560581 
L 277.826894 124.544634 
L 278.694954 128.386937 
L 279.563014 136.667237 
L 280.431074 128.335896 
L 281.299135 133.045575 
L 282.167195 126.227701 
L 283.035255 130.070326 
L 283.903316 128.165974 
L 284.771376 134.167835 
L 285.639436 137.160204 
L 286.507496 129.815121 
L 287.375557 127.265 
L 288.243617 135.544977 
L 289.111677 125.887534 
L 289.979737 127.893969 
L 290.847798 127.111876 
L 291.715858 124.493593 
L 292.583918 122.929407 
L 293.451979 135.375055 
L 294.320039 122.436117 
L 295.188099 119.324866 
L 296.056159 121.892108 
L 296.92422 127.655885 
L 297.79228 127.825807 
L 298.66034 136.106107 
L 299.528401 129.220071 
L 300.396461 134.949928 
L 301.264521 119.256704 
L 302.132581 120.430005 
L 303.000642 125.02048 
L 303.868702 131.413549 
L 304.736762 118.219728 
L 305.604823 118.865819 
L 306.472883 115.567202 
L 307.340943 118.882617 
L 308.209003 119.834955 
L 309.077064 123.575498 
L 309.945124 118.933658 
L 310.813184 120.617048 
L 311.681245 123.354212 
L 312.549305 122.198032 
L 313.417365 113.510049 
L 314.285425 116.094412 
L 315.153486 117.590435 
L 316.021546 119.936714 
L 316.889606 119.681832 
L 317.757667 117.82852 
L 318.625727 117.641477 
L 319.493787 110.789683 
L 320.361847 117.420514 
L 321.229908 114.955031 
L 322.097968 115.805286 
L 322.966028 114.767988 
L 323.834088 109.871265 
L 324.702149 108.341322 
L 325.570209 117.165308 
L 326.438269 111.163447 
L 327.30633 111.860579 
L 329.04245 108.800369 
L 329.91051 108.749328 
L 330.778571 117.539394 
L 331.646631 110.551599 
L 332.514691 108.647246 
L 333.382752 109.871265 
L 334.250812 105.314709 
L 335.118872 106.539051 
L 335.986932 109.973347 
L 336.854993 104.107488 
L 337.723053 102.203459 
L 338.591113 107.831233 
L 339.459174 103.903647 
L 340.327234 105.99472 
L 341.195294 104.481575 
L 342.063354 104.328774 
L 342.931415 102.475463 
L 343.799475 106.947058 
L 344.667535 110.517356 
L 345.535596 102.067456 
L 346.403656 102.764265 
L 347.271716 99.278928 
L 348.139776 101.149038 
L 349.007837 99.040844 
L 349.875897 101.744411 
L 350.743957 96.167355 
L 351.612018 97.289615 
L 352.480078 102.849549 
L 353.348138 98.428673 
L 354.216198 97.136491 
L 355.084259 98.751718 
L 355.952319 97.850744 
L 356.820379 98.377955 
L 357.688439 94.909416 
L 359.42456 95.368463 
L 360.29262 96.133435 
L 361.160681 95.062216 
L 362.028741 93.090024 
L 362.896801 93.277067 
L 363.764861 92.664896 
L 364.632922 92.902981 
L 365.500982 92.376094 
L 366.369042 92.325052 
L 367.237103 92.630976 
L 368.105163 90.94791 
L 368.973223 91.831762 
L 369.841283 88.448405 
L 370.709344 85.915049 
L 371.577404 85.132939 
L 373.313525 85.336968 
L 374.181585 85.28596 
L 375.049645 83.449702 
L 375.917705 86.102075 
L 376.785766 83.78975 
L 377.653826 83.874762 
L 379.389947 83.466705 
L 380.258007 85.404977 
L 381.126067 82.667592 
L 381.994127 83.78975 
L 382.862188 82.004499 
L 383.730248 82.361549 
L 384.598308 84.044786 
L 385.466368 84.537855 
L 386.334429 81.579439 
L 387.202489 81.953492 
L 389.80667 81.494427 
L 390.67473 81.970494 
L 391.54279 81.205387 
L 392.410851 81.256394 
L 393.278911 80.797329 
L 394.146971 82.327544 
L 395.015032 81.698456 
L 396.751152 81.86848 
L 397.619212 80.848336 
L 398.487273 82.089511 
L 398.487273 82.089511 
" style="fill:none;stroke:#2ca02c;stroke-linecap:square;stroke-width:1.5;"/>
   </g>
   <g id="patch_3">
    <path d="M 57.6 307.584 
L 57.6 41.472 
" style="fill:none;stroke:#000000;stroke-linecap:square;stroke-linejoin:miter;stroke-width:0.8;"/>
   </g>
   <g id="patch_4">
    <path d="M 414.72 307.584 
L 414.72 41.472 
" style="fill:none;stroke:#000000;stroke-linecap:square;stroke-linejoin:miter;stroke-width:0.8;"/>
   </g>
   <g id="patch_5">
    <path d="M 57.6 307.584 
L 414.72 307.584 
" style="fill:none;stroke:#000000;stroke-linecap:square;stroke-linejoin:miter;stroke-width:0.8;"/>
   </g>
   <g id="patch_6">
    <path d="M 57.6 41.472 
L 414.72 41.472 
" style="fill:none;stroke:#000000;stroke-linecap:square;stroke-linejoin:miter;stroke-width:0.8;"/>
   </g>
   <g id="text_22">
    <!-- Training and Validation Accuracy -->
    <g transform="translate(138.4575 35.472)scale(0.12 -0.12)">
     <defs>
      <path d="M -19 4666 
L 3928 4666 
L 3928 4134 
L 2272 4134 
L 2272 0 
L 1638 0 
L 1638 4134 
L -19 4134 
L -19 4666 
z
" id="DejaVuSans-54" transform="scale(0.015625)"/>
      <path d="M 603 3500 
L 1178 3500 
L 1178 0 
L 603 0 
L 603 3500 
z
M 603 4863 
L 1178 4863 
L 1178 4134 
L 603 4134 
L 603 4863 
z
" id="DejaVuSans-69" transform="scale(0.015625)"/>
      <path d="M 3513 2113 
L 3513 0 
L 2938 0 
L 2938 2094 
Q 2938 2591 2744 2837 
Q 2550 3084 2163 3084 
Q 1697 3084 1428 2787 
Q 1159 2491 1159 1978 
L 1159 0 
L 581 0 
L 581 3500 
L 1159 3500 
L 1159 2956 
Q 1366 3272 1645 3428 
Q 1925 3584 2291 3584 
Q 2894 3584 3203 3211 
Q 3513 2838 3513 2113 
z
" id="DejaVuSans-6e" transform="scale(0.015625)"/>
      <path d="M 2906 1791 
Q 2906 2416 2648 2759 
Q 2391 3103 1925 3103 
Q 1463 3103 1205 2759 
Q 947 2416 947 1791 
Q 947 1169 1205 825 
Q 1463 481 1925 481 
Q 2391 481 2648 825 
Q 2906 1169 2906 1791 
z
M 3481 434 
Q 3481 -459 3084 -895 
Q 2688 -1331 1869 -1331 
Q 1566 -1331 1297 -1286 
Q 1028 -1241 775 -1147 
L 775 -588 
Q 1028 -725 1275 -790 
Q 1522 -856 1778 -856 
Q 2344 -856 2625 -561 
Q 2906 -266 2906 331 
L 2906 616 
Q 2728 306 2450 153 
Q 2172 0 1784 0 
Q 1141 0 747 490 
Q 353 981 353 1791 
Q 353 2603 747 3093 
Q 1141 3584 1784 3584 
Q 2172 3584 2450 3431 
Q 2728 3278 2906 2969 
L 2906 3500 
L 3481 3500 
L 3481 434 
z
" id="DejaVuSans-67" transform="scale(0.015625)"/>
      <path id="DejaVuSans-20" transform="scale(0.015625)"/>
      <path d="M 2906 2969 
L 2906 4863 
L 3481 4863 
L 3481 0 
L 2906 0 
L 2906 525 
Q 2725 213 2448 61 
Q 2172 -91 1784 -91 
Q 1150 -91 751 415 
Q 353 922 353 1747 
Q 353 2572 751 3078 
Q 1150 3584 1784 3584 
Q 2172 3584 2448 3432 
Q 2725 3281 2906 2969 
z
M 947 1747 
Q 947 1113 1208 752 
Q 1469 391 1925 391 
Q 2381 391 2643 752 
Q 2906 1113 2906 1747 
Q 2906 2381 2643 2742 
Q 2381 3103 1925 3103 
Q 1469 3103 1208 2742 
Q 947 2381 947 1747 
z
" id="DejaVuSans-64" transform="scale(0.015625)"/>
      <path d="M 1831 0 
L 50 4666 
L 709 4666 
L 2188 738 
L 3669 4666 
L 4325 4666 
L 2547 0 
L 1831 0 
z
" id="DejaVuSans-56" transform="scale(0.015625)"/>
      <path d="M 603 4863 
L 1178 4863 
L 1178 0 
L 603 0 
L 603 4863 
z
" id="DejaVuSans-6c" transform="scale(0.015625)"/>
      <path d="M 1172 4494 
L 1172 3500 
L 2356 3500 
L 2356 3053 
L 1172 3053 
L 1172 1153 
Q 1172 725 1289 603 
Q 1406 481 1766 481 
L 2356 481 
L 2356 0 
L 1766 0 
Q 1100 0 847 248 
Q 594 497 594 1153 
L 594 3053 
L 172 3053 
L 172 3500 
L 594 3500 
L 594 4494 
L 1172 4494 
z
" id="DejaVuSans-74" transform="scale(0.015625)"/>
     </defs>
     <use xlink:href="#DejaVuSans-54"/>
     <use x="46.333984" xlink:href="#DejaVuSans-72"/>
     <use x="87.447266" xlink:href="#DejaVuSans-61"/>
     <use x="148.726562" xlink:href="#DejaVuSans-69"/>
     <use x="176.509766" xlink:href="#DejaVuSans-6e"/>
     <use x="239.888672" xlink:href="#DejaVuSans-69"/>
     <use x="267.671875" xlink:href="#DejaVuSans-6e"/>
     <use x="331.050781" xlink:href="#DejaVuSans-67"/>
     <use x="394.527344" xlink:href="#DejaVuSans-20"/>
     <use x="426.314453" xlink:href="#DejaVuSans-61"/>
     <use x="487.59375" xlink:href="#DejaVuSans-6e"/>
     <use x="550.972656" xlink:href="#DejaVuSans-64"/>
     <use x="614.449219" xlink:href="#DejaVuSans-20"/>
     <use x="646.236328" xlink:href="#DejaVuSans-56"/>
     <use x="706.894531" xlink:href="#DejaVuSans-61"/>
     <use x="768.173828" xlink:href="#DejaVuSans-6c"/>
     <use x="795.957031" xlink:href="#DejaVuSans-69"/>
     <use x="823.740234" xlink:href="#DejaVuSans-64"/>
     <use x="887.216797" xlink:href="#DejaVuSans-61"/>
     <use x="948.496094" xlink:href="#DejaVuSans-74"/>
     <use x="987.705078" xlink:href="#DejaVuSans-69"/>
     <use x="1015.488281" xlink:href="#DejaVuSans-6f"/>
     <use x="1076.669922" xlink:href="#DejaVuSans-6e"/>
     <use x="1140.048828" xlink:href="#DejaVuSans-20"/>
     <use x="1171.835938" xlink:href="#DejaVuSans-41"/>
     <use x="1238.494141" xlink:href="#DejaVuSans-63"/>
     <use x="1293.474609" xlink:href="#DejaVuSans-63"/>
     <use x="1348.455078" xlink:href="#DejaVuSans-75"/>
     <use x="1411.833984" xlink:href="#DejaVuSans-72"/>
     <use x="1452.947266" xlink:href="#DejaVuSans-61"/>
     <use x="1514.226562" xlink:href="#DejaVuSans-63"/>
     <use x="1569.207031" xlink:href="#DejaVuSans-79"/>
    </g>
   </g>
   <g id="legend_1">
    <g id="patch_7">
     <path d="M 239.893438 302.584 
L 407.72 302.584 
Q 409.72 302.584 409.72 300.584 
L 409.72 257.549625 
Q 409.72 255.549625 407.72 255.549625 
L 239.893438 255.549625 
Q 237.893438 255.549625 237.893438 257.549625 
L 237.893438 300.584 
Q 237.893438 302.584 239.893438 302.584 
z
" style="fill:#ffffff;opacity:0.8;stroke:#cccccc;stroke-linejoin:miter;"/>
    </g>
    <g id="line2d_23">
     <path d="M 241.893438 263.648062 
L 261.893438 263.648062 
" style="fill:none;stroke:#1f77b4;stroke-linecap:square;stroke-width:1.5;"/>
    </g>
    <g id="line2d_24"/>
    <g id="text_23">
     <!-- Train Accuracy -->
     <g transform="translate(269.893438 267.148062)scale(0.1 -0.1)">
      <use xlink:href="#DejaVuSans-54"/>
      <use x="46.333984" xlink:href="#DejaVuSans-72"/>
      <use x="87.447266" xlink:href="#DejaVuSans-61"/>
      <use x="148.726562" xlink:href="#DejaVuSans-69"/>
      <use x="176.509766" xlink:href="#DejaVuSans-6e"/>
      <use x="239.888672" xlink:href="#DejaVuSans-20"/>
      <use x="271.675781" xlink:href="#DejaVuSans-41"/>
      <use x="338.333984" xlink:href="#DejaVuSans-63"/>
      <use x="393.314453" xlink:href="#DejaVuSans-63"/>
      <use x="448.294922" xlink:href="#DejaVuSans-75"/>
      <use x="511.673828" xlink:href="#DejaVuSans-72"/>
      <use x="552.787109" xlink:href="#DejaVuSans-61"/>
      <use x="614.066406" xlink:href="#DejaVuSans-63"/>
      <use x="669.046875" xlink:href="#DejaVuSans-79"/>
     </g>
    </g>
    <g id="line2d_25">
     <path d="M 241.893438 278.326188 
L 261.893438 278.326188 
" style="fill:none;stroke:#ff7f0e;stroke-linecap:square;stroke-width:1.5;"/>
    </g>
    <g id="line2d_26"/>
    <g id="text_24">
     <!-- Validation Accuracy -->
     <g transform="translate(269.893438 281.826188)scale(0.1 -0.1)">
      <use xlink:href="#DejaVuSans-56"/>
      <use x="60.658203" xlink:href="#DejaVuSans-61"/>
      <use x="121.9375" xlink:href="#DejaVuSans-6c"/>
      <use x="149.720703" xlink:href="#DejaVuSans-69"/>
      <use x="177.503906" xlink:href="#DejaVuSans-64"/>
      <use x="240.980469" xlink:href="#DejaVuSans-61"/>
      <use x="302.259766" xlink:href="#DejaVuSans-74"/>
      <use x="341.46875" xlink:href="#DejaVuSans-69"/>
      <use x="369.251953" xlink:href="#DejaVuSans-6f"/>
      <use x="430.433594" xlink:href="#DejaVuSans-6e"/>
      <use x="493.8125" xlink:href="#DejaVuSans-20"/>
      <use x="525.599609" xlink:href="#DejaVuSans-41"/>
      <use x="592.257812" xlink:href="#DejaVuSans-63"/>
      <use x="647.238281" xlink:href="#DejaVuSans-63"/>
      <use x="702.21875" xlink:href="#DejaVuSans-75"/>
      <use x="765.597656" xlink:href="#DejaVuSans-72"/>
      <use x="806.710938" xlink:href="#DejaVuSans-61"/>
      <use x="867.990234" xlink:href="#DejaVuSans-63"/>
      <use x="922.970703" xlink:href="#DejaVuSans-79"/>
     </g>
    </g>
    <g id="line2d_27">
     <path d="M 241.893438 293.004312 
L 261.893438 293.004312 
" style="fill:none;stroke:#2ca02c;stroke-linecap:square;stroke-width:1.5;"/>
    </g>
    <g id="line2d_28"/>
    <g id="text_25">
     <!-- Robust Validation Accuracy -->
     <g transform="translate(269.893438 296.504312)scale(0.1 -0.1)">
      <defs>
       <path d="M 2841 2188 
Q 3044 2119 3236 1894 
Q 3428 1669 3622 1275 
L 4263 0 
L 3584 0 
L 2988 1197 
Q 2756 1666 2539 1819 
Q 2322 1972 1947 1972 
L 1259 1972 
L 1259 0 
L 628 0 
L 628 4666 
L 2053 4666 
Q 2853 4666 3247 4331 
Q 3641 3997 3641 3322 
Q 3641 2881 3436 2590 
Q 3231 2300 2841 2188 
z
M 1259 4147 
L 1259 2491 
L 2053 2491 
Q 2509 2491 2742 2702 
Q 2975 2913 2975 3322 
Q 2975 3731 2742 3939 
Q 2509 4147 2053 4147 
L 1259 4147 
z
" id="DejaVuSans-52" transform="scale(0.015625)"/>
       <path d="M 3116 1747 
Q 3116 2381 2855 2742 
Q 2594 3103 2138 3103 
Q 1681 3103 1420 2742 
Q 1159 2381 1159 1747 
Q 1159 1113 1420 752 
Q 1681 391 2138 391 
Q 2594 391 2855 752 
Q 3116 1113 3116 1747 
z
M 1159 2969 
Q 1341 3281 1617 3432 
Q 1894 3584 2278 3584 
Q 2916 3584 3314 3078 
Q 3713 2572 3713 1747 
Q 3713 922 3314 415 
Q 2916 -91 2278 -91 
Q 1894 -91 1617 61 
Q 1341 213 1159 525 
L 1159 0 
L 581 0 
L 581 4863 
L 1159 4863 
L 1159 2969 
z
" id="DejaVuSans-62" transform="scale(0.015625)"/>
      </defs>
      <use xlink:href="#DejaVuSans-52"/>
      <use x="64.982422" xlink:href="#DejaVuSans-6f"/>
      <use x="126.164062" xlink:href="#DejaVuSans-62"/>
      <use x="189.640625" xlink:href="#DejaVuSans-75"/>
      <use x="253.019531" xlink:href="#DejaVuSans-73"/>
      <use x="305.119141" xlink:href="#DejaVuSans-74"/>
      <use x="344.328125" xlink:href="#DejaVuSans-20"/>
      <use x="376.115234" xlink:href="#DejaVuSans-56"/>
      <use x="436.773438" xlink:href="#DejaVuSans-61"/>
      <use x="498.052734" xlink:href="#DejaVuSans-6c"/>
      <use x="525.835938" xlink:href="#DejaVuSans-69"/>
      <use x="553.619141" xlink:href="#DejaVuSans-64"/>
      <use x="617.095703" xlink:href="#DejaVuSans-61"/>
      <use x="678.375" xlink:href="#DejaVuSans-74"/>
      <use x="717.583984" xlink:href="#DejaVuSans-69"/>
      <use x="745.367188" xlink:href="#DejaVuSans-6f"/>
      <use x="806.548828" xlink:href="#DejaVuSans-6e"/>
      <use x="869.927734" xlink:href="#DejaVuSans-20"/>
      <use x="901.714844" xlink:href="#DejaVuSans-41"/>
      <use x="968.373047" xlink:href="#DejaVuSans-63"/>
      <use x="1023.353516" xlink:href="#DejaVuSans-63"/>
      <use x="1078.333984" xlink:href="#DejaVuSans-75"/>
      <use x="1141.712891" xlink:href="#DejaVuSans-72"/>
      <use x="1182.826172" xlink:href="#DejaVuSans-61"/>
      <use x="1244.105469" xlink:href="#DejaVuSans-63"/>
      <use x="1299.085938" xlink:href="#DejaVuSans-79"/>
     </g>
    </g>
   </g>
  </g>
 </g>
 <defs>
  <clipPath id="p4bce4ed33a">
   <rect height="266.112" width="357.12" x="57.6" y="41.472"/>
  </clipPath>
 </defs>
</svg>
