<?xml version="1.0" encoding="utf-8" standalone="no"?>
<!DOCTYPE svg PUBLIC "-//W3C//DTD SVG 1.1//EN"
  "http://www.w3.org/Graphics/SVG/1.1/DTD/svg11.dtd">
<svg height="345.6pt" version="1.1" viewBox="0 0 460.8 345.6" width="460.8pt" xmlns="http://www.w3.org/2000/svg" xmlns:xlink="http://www.w3.org/1999/xlink">
 <metadata>
  <rdf:RDF xmlns:cc="http://creativecommons.org/ns#" xmlns:dc="http://purl.org/dc/elements/1.1/" xmlns:rdf="http://www.w3.org/1999/02/22-rdf-syntax-ns#">
   <cc:Work>
    <dc:type rdf:resource="http://purl.org/dc/dcmitype/StillImage"/>
    <dc:date>2024-03-10T10:40:26.673704</dc:date>
    <dc:format>image/svg+xml</dc:format>
    <dc:creator>
     <cc:Agent>
      <dc:title>Matplotlib v3.4.3, https://matplotlib.org/</dc:title>
     </cc:Agent>
    </dc:creator>
   </cc:Work>
  </rdf:RDF>
 </metadata>
 <defs>
  <style type="text/css">*{stroke-linecap:butt;stroke-linejoin:round;}</style>
 </defs>
 <g id="figure_1">
  <g id="patch_1">
   <path d="M 0 345.6 
L 460.8 345.6 
L 460.8 0 
L 0 0 
z
" style="fill:#ffffff;"/>
  </g>
  <g id="axes_1">
   <g id="patch_2">
    <path d="M 57.6 307.584 
L 414.72 307.584 
L 414.72 41.472 
L 57.6 41.472 
z
" style="fill:#ffffff;"/>
   </g>
   <g id="matplotlib.axis_1">
    <g id="xtick_1">
     <g id="line2d_1">
      <defs>
       <path d="M 0 0 
L 0 3.5 
" id="mb08f5ef341" style="stroke:#000000;stroke-width:0.8;"/>
      </defs>
      <g>
       <use style="stroke:#000000;stroke-width:0.8;" x="73.832727" xlink:href="#mb08f5ef341" y="307.584"/>
      </g>
     </g>
     <g id="text_1">
      <!-- 1 -->
      <g transform="translate(70.651477 322.182437)scale(0.1 -0.1)">
       <defs>
        <path d="M 794 531 
L 1825 531 
L 1825 4091 
L 703 3866 
L 703 4441 
L 1819 4666 
L 2450 4666 
L 2450 531 
L 3481 531 
L 3481 0 
L 794 0 
L 794 531 
z
" id="DejaVuSans-31" transform="scale(0.015625)"/>
       </defs>
       <use xlink:href="#DejaVuSans-31"/>
      </g>
     </g>
    </g>
    <g id="xtick_2">
     <g id="line2d_2">
      <g>
       <use style="stroke:#000000;stroke-width:0.8;" x="109.555234" xlink:href="#mb08f5ef341" y="307.584"/>
      </g>
     </g>
     <g id="text_2">
      <!-- 35 -->
      <g transform="translate(103.192734 322.182437)scale(0.1 -0.1)">
       <defs>
        <path d="M 2597 2516 
Q 3050 2419 3304 2112 
Q 3559 1806 3559 1356 
Q 3559 666 3084 287 
Q 2609 -91 1734 -91 
Q 1441 -91 1130 -33 
Q 819 25 488 141 
L 488 750 
Q 750 597 1062 519 
Q 1375 441 1716 441 
Q 2309 441 2620 675 
Q 2931 909 2931 1356 
Q 2931 1769 2642 2001 
Q 2353 2234 1838 2234 
L 1294 2234 
L 1294 2753 
L 1863 2753 
Q 2328 2753 2575 2939 
Q 2822 3125 2822 3475 
Q 2822 3834 2567 4026 
Q 2313 4219 1838 4219 
Q 1578 4219 1281 4162 
Q 984 4106 628 3988 
L 628 4550 
Q 988 4650 1302 4700 
Q 1616 4750 1894 4750 
Q 2613 4750 3031 4423 
Q 3450 4097 3450 3541 
Q 3450 3153 3228 2886 
Q 3006 2619 2597 2516 
z
" id="DejaVuSans-33" transform="scale(0.015625)"/>
        <path d="M 691 4666 
L 3169 4666 
L 3169 4134 
L 1269 4134 
L 1269 2991 
Q 1406 3038 1543 3061 
Q 1681 3084 1819 3084 
Q 2600 3084 3056 2656 
Q 3513 2228 3513 1497 
Q 3513 744 3044 326 
Q 2575 -91 1722 -91 
Q 1428 -91 1123 -41 
Q 819 9 494 109 
L 494 744 
Q 775 591 1075 516 
Q 1375 441 1709 441 
Q 2250 441 2565 725 
Q 2881 1009 2881 1497 
Q 2881 1984 2565 2268 
Q 2250 2553 1709 2553 
Q 1456 2553 1204 2497 
Q 953 2441 691 2322 
L 691 4666 
z
" id="DejaVuSans-35" transform="scale(0.015625)"/>
       </defs>
       <use xlink:href="#DejaVuSans-33"/>
       <use x="63.623047" xlink:href="#DejaVuSans-35"/>
      </g>
     </g>
    </g>
    <g id="xtick_3">
     <g id="line2d_3">
      <g>
       <use style="stroke:#000000;stroke-width:0.8;" x="145.277741" xlink:href="#mb08f5ef341" y="307.584"/>
      </g>
     </g>
     <g id="text_3">
      <!-- 69 -->
      <g transform="translate(138.915241 322.182437)scale(0.1 -0.1)">
       <defs>
        <path d="M 2113 2584 
Q 1688 2584 1439 2293 
Q 1191 2003 1191 1497 
Q 1191 994 1439 701 
Q 1688 409 2113 409 
Q 2538 409 2786 701 
Q 3034 994 3034 1497 
Q 3034 2003 2786 2293 
Q 2538 2584 2113 2584 
z
M 3366 4563 
L 3366 3988 
Q 3128 4100 2886 4159 
Q 2644 4219 2406 4219 
Q 1781 4219 1451 3797 
Q 1122 3375 1075 2522 
Q 1259 2794 1537 2939 
Q 1816 3084 2150 3084 
Q 2853 3084 3261 2657 
Q 3669 2231 3669 1497 
Q 3669 778 3244 343 
Q 2819 -91 2113 -91 
Q 1303 -91 875 529 
Q 447 1150 447 2328 
Q 447 3434 972 4092 
Q 1497 4750 2381 4750 
Q 2619 4750 2861 4703 
Q 3103 4656 3366 4563 
z
" id="DejaVuSans-36" transform="scale(0.015625)"/>
        <path d="M 703 97 
L 703 672 
Q 941 559 1184 500 
Q 1428 441 1663 441 
Q 2288 441 2617 861 
Q 2947 1281 2994 2138 
Q 2813 1869 2534 1725 
Q 2256 1581 1919 1581 
Q 1219 1581 811 2004 
Q 403 2428 403 3163 
Q 403 3881 828 4315 
Q 1253 4750 1959 4750 
Q 2769 4750 3195 4129 
Q 3622 3509 3622 2328 
Q 3622 1225 3098 567 
Q 2575 -91 1691 -91 
Q 1453 -91 1209 -44 
Q 966 3 703 97 
z
M 1959 2075 
Q 2384 2075 2632 2365 
Q 2881 2656 2881 3163 
Q 2881 3666 2632 3958 
Q 2384 4250 1959 4250 
Q 1534 4250 1286 3958 
Q 1038 3666 1038 3163 
Q 1038 2656 1286 2365 
Q 1534 2075 1959 2075 
z
" id="DejaVuSans-39" transform="scale(0.015625)"/>
       </defs>
       <use xlink:href="#DejaVuSans-36"/>
       <use x="63.623047" xlink:href="#DejaVuSans-39"/>
      </g>
     </g>
    </g>
    <g id="xtick_4">
     <g id="line2d_4">
      <g>
       <use style="stroke:#000000;stroke-width:0.8;" x="182.050909" xlink:href="#mb08f5ef341" y="307.584"/>
      </g>
     </g>
     <g id="text_4">
      <!-- 104 -->
      <g transform="translate(172.507159 322.182437)scale(0.1 -0.1)">
       <defs>
        <path d="M 2034 4250 
Q 1547 4250 1301 3770 
Q 1056 3291 1056 2328 
Q 1056 1369 1301 889 
Q 1547 409 2034 409 
Q 2525 409 2770 889 
Q 3016 1369 3016 2328 
Q 3016 3291 2770 3770 
Q 2525 4250 2034 4250 
z
M 2034 4750 
Q 2819 4750 3233 4129 
Q 3647 3509 3647 2328 
Q 3647 1150 3233 529 
Q 2819 -91 2034 -91 
Q 1250 -91 836 529 
Q 422 1150 422 2328 
Q 422 3509 836 4129 
Q 1250 4750 2034 4750 
z
" id="DejaVuSans-30" transform="scale(0.015625)"/>
        <path d="M 2419 4116 
L 825 1625 
L 2419 1625 
L 2419 4116 
z
M 2253 4666 
L 3047 4666 
L 3047 1625 
L 3713 1625 
L 3713 1100 
L 3047 1100 
L 3047 0 
L 2419 0 
L 2419 1100 
L 313 1100 
L 313 1709 
L 2253 4666 
z
" id="DejaVuSans-34" transform="scale(0.015625)"/>
       </defs>
       <use xlink:href="#DejaVuSans-31"/>
       <use x="63.623047" xlink:href="#DejaVuSans-30"/>
       <use x="127.246094" xlink:href="#DejaVuSans-34"/>
      </g>
     </g>
    </g>
    <g id="xtick_5">
     <g id="line2d_5">
      <g>
       <use style="stroke:#000000;stroke-width:0.8;" x="217.773416" xlink:href="#mb08f5ef341" y="307.584"/>
      </g>
     </g>
     <g id="text_5">
      <!-- 138 -->
      <g transform="translate(208.229666 322.182437)scale(0.1 -0.1)">
       <defs>
        <path d="M 2034 2216 
Q 1584 2216 1326 1975 
Q 1069 1734 1069 1313 
Q 1069 891 1326 650 
Q 1584 409 2034 409 
Q 2484 409 2743 651 
Q 3003 894 3003 1313 
Q 3003 1734 2745 1975 
Q 2488 2216 2034 2216 
z
M 1403 2484 
Q 997 2584 770 2862 
Q 544 3141 544 3541 
Q 544 4100 942 4425 
Q 1341 4750 2034 4750 
Q 2731 4750 3128 4425 
Q 3525 4100 3525 3541 
Q 3525 3141 3298 2862 
Q 3072 2584 2669 2484 
Q 3125 2378 3379 2068 
Q 3634 1759 3634 1313 
Q 3634 634 3220 271 
Q 2806 -91 2034 -91 
Q 1263 -91 848 271 
Q 434 634 434 1313 
Q 434 1759 690 2068 
Q 947 2378 1403 2484 
z
M 1172 3481 
Q 1172 3119 1398 2916 
Q 1625 2713 2034 2713 
Q 2441 2713 2670 2916 
Q 2900 3119 2900 3481 
Q 2900 3844 2670 4047 
Q 2441 4250 2034 4250 
Q 1625 4250 1398 4047 
Q 1172 3844 1172 3481 
z
" id="DejaVuSans-38" transform="scale(0.015625)"/>
       </defs>
       <use xlink:href="#DejaVuSans-31"/>
       <use x="63.623047" xlink:href="#DejaVuSans-33"/>
       <use x="127.246094" xlink:href="#DejaVuSans-38"/>
      </g>
     </g>
    </g>
    <g id="xtick_6">
     <g id="line2d_6">
      <g>
       <use style="stroke:#000000;stroke-width:0.8;" x="253.495922" xlink:href="#mb08f5ef341" y="307.584"/>
      </g>
     </g>
     <g id="text_6">
      <!-- 172 -->
      <g transform="translate(243.952172 322.182437)scale(0.1 -0.1)">
       <defs>
        <path d="M 525 4666 
L 3525 4666 
L 3525 4397 
L 1831 0 
L 1172 0 
L 2766 4134 
L 525 4134 
L 525 4666 
z
" id="DejaVuSans-37" transform="scale(0.015625)"/>
        <path d="M 1228 531 
L 3431 531 
L 3431 0 
L 469 0 
L 469 531 
Q 828 903 1448 1529 
Q 2069 2156 2228 2338 
Q 2531 2678 2651 2914 
Q 2772 3150 2772 3378 
Q 2772 3750 2511 3984 
Q 2250 4219 1831 4219 
Q 1534 4219 1204 4116 
Q 875 4013 500 3803 
L 500 4441 
Q 881 4594 1212 4672 
Q 1544 4750 1819 4750 
Q 2544 4750 2975 4387 
Q 3406 4025 3406 3419 
Q 3406 3131 3298 2873 
Q 3191 2616 2906 2266 
Q 2828 2175 2409 1742 
Q 1991 1309 1228 531 
z
" id="DejaVuSans-32" transform="scale(0.015625)"/>
       </defs>
       <use xlink:href="#DejaVuSans-31"/>
       <use x="63.623047" xlink:href="#DejaVuSans-37"/>
       <use x="127.246094" xlink:href="#DejaVuSans-32"/>
      </g>
     </g>
    </g>
    <g id="xtick_7">
     <g id="line2d_7">
      <g>
       <use style="stroke:#000000;stroke-width:0.8;" x="290.269091" xlink:href="#mb08f5ef341" y="307.584"/>
      </g>
     </g>
     <g id="text_7">
      <!-- 207 -->
      <g transform="translate(280.725341 322.182437)scale(0.1 -0.1)">
       <use xlink:href="#DejaVuSans-32"/>
       <use x="63.623047" xlink:href="#DejaVuSans-30"/>
       <use x="127.246094" xlink:href="#DejaVuSans-37"/>
      </g>
     </g>
    </g>
    <g id="xtick_8">
     <g id="line2d_8">
      <g>
       <use style="stroke:#000000;stroke-width:0.8;" x="325.991598" xlink:href="#mb08f5ef341" y="307.584"/>
      </g>
     </g>
     <g id="text_8">
      <!-- 241 -->
      <g transform="translate(316.447848 322.182437)scale(0.1 -0.1)">
       <use xlink:href="#DejaVuSans-32"/>
       <use x="63.623047" xlink:href="#DejaVuSans-34"/>
       <use x="127.246094" xlink:href="#DejaVuSans-31"/>
      </g>
     </g>
    </g>
    <g id="xtick_9">
     <g id="line2d_9">
      <g>
       <use style="stroke:#000000;stroke-width:0.8;" x="361.714104" xlink:href="#mb08f5ef341" y="307.584"/>
      </g>
     </g>
     <g id="text_9">
      <!-- 275 -->
      <g transform="translate(352.170354 322.182437)scale(0.1 -0.1)">
       <use xlink:href="#DejaVuSans-32"/>
       <use x="63.623047" xlink:href="#DejaVuSans-37"/>
       <use x="127.246094" xlink:href="#DejaVuSans-35"/>
      </g>
     </g>
    </g>
    <g id="xtick_10">
     <g id="line2d_10">
      <g>
       <use style="stroke:#000000;stroke-width:0.8;" x="398.487273" xlink:href="#mb08f5ef341" y="307.584"/>
      </g>
     </g>
     <g id="text_10">
      <!-- 310 -->
      <g transform="translate(388.943523 322.182437)scale(0.1 -0.1)">
       <use xlink:href="#DejaVuSans-33"/>
       <use x="63.623047" xlink:href="#DejaVuSans-31"/>
       <use x="127.246094" xlink:href="#DejaVuSans-30"/>
      </g>
     </g>
    </g>
    <g id="text_11">
     <!-- Epochs -->
     <g transform="translate(218.244375 335.860562)scale(0.1 -0.1)">
      <defs>
       <path d="M 628 4666 
L 3578 4666 
L 3578 4134 
L 1259 4134 
L 1259 2753 
L 3481 2753 
L 3481 2222 
L 1259 2222 
L 1259 531 
L 3634 531 
L 3634 0 
L 628 0 
L 628 4666 
z
" id="DejaVuSans-45" transform="scale(0.015625)"/>
       <path d="M 1159 525 
L 1159 -1331 
L 581 -1331 
L 581 3500 
L 1159 3500 
L 1159 2969 
Q 1341 3281 1617 3432 
Q 1894 3584 2278 3584 
Q 2916 3584 3314 3078 
Q 3713 2572 3713 1747 
Q 3713 922 3314 415 
Q 2916 -91 2278 -91 
Q 1894 -91 1617 61 
Q 1341 213 1159 525 
z
M 3116 1747 
Q 3116 2381 2855 2742 
Q 2594 3103 2138 3103 
Q 1681 3103 1420 2742 
Q 1159 2381 1159 1747 
Q 1159 1113 1420 752 
Q 1681 391 2138 391 
Q 2594 391 2855 752 
Q 3116 1113 3116 1747 
z
" id="DejaVuSans-70" transform="scale(0.015625)"/>
       <path d="M 1959 3097 
Q 1497 3097 1228 2736 
Q 959 2375 959 1747 
Q 959 1119 1226 758 
Q 1494 397 1959 397 
Q 2419 397 2687 759 
Q 2956 1122 2956 1747 
Q 2956 2369 2687 2733 
Q 2419 3097 1959 3097 
z
M 1959 3584 
Q 2709 3584 3137 3096 
Q 3566 2609 3566 1747 
Q 3566 888 3137 398 
Q 2709 -91 1959 -91 
Q 1206 -91 779 398 
Q 353 888 353 1747 
Q 353 2609 779 3096 
Q 1206 3584 1959 3584 
z
" id="DejaVuSans-6f" transform="scale(0.015625)"/>
       <path d="M 3122 3366 
L 3122 2828 
Q 2878 2963 2633 3030 
Q 2388 3097 2138 3097 
Q 1578 3097 1268 2742 
Q 959 2388 959 1747 
Q 959 1106 1268 751 
Q 1578 397 2138 397 
Q 2388 397 2633 464 
Q 2878 531 3122 666 
L 3122 134 
Q 2881 22 2623 -34 
Q 2366 -91 2075 -91 
Q 1284 -91 818 406 
Q 353 903 353 1747 
Q 353 2603 823 3093 
Q 1294 3584 2113 3584 
Q 2378 3584 2631 3529 
Q 2884 3475 3122 3366 
z
" id="DejaVuSans-63" transform="scale(0.015625)"/>
       <path d="M 3513 2113 
L 3513 0 
L 2938 0 
L 2938 2094 
Q 2938 2591 2744 2837 
Q 2550 3084 2163 3084 
Q 1697 3084 1428 2787 
Q 1159 2491 1159 1978 
L 1159 0 
L 581 0 
L 581 4863 
L 1159 4863 
L 1159 2956 
Q 1366 3272 1645 3428 
Q 1925 3584 2291 3584 
Q 2894 3584 3203 3211 
Q 3513 2838 3513 2113 
z
" id="DejaVuSans-68" transform="scale(0.015625)"/>
       <path d="M 2834 3397 
L 2834 2853 
Q 2591 2978 2328 3040 
Q 2066 3103 1784 3103 
Q 1356 3103 1142 2972 
Q 928 2841 928 2578 
Q 928 2378 1081 2264 
Q 1234 2150 1697 2047 
L 1894 2003 
Q 2506 1872 2764 1633 
Q 3022 1394 3022 966 
Q 3022 478 2636 193 
Q 2250 -91 1575 -91 
Q 1294 -91 989 -36 
Q 684 19 347 128 
L 347 722 
Q 666 556 975 473 
Q 1284 391 1588 391 
Q 1994 391 2212 530 
Q 2431 669 2431 922 
Q 2431 1156 2273 1281 
Q 2116 1406 1581 1522 
L 1381 1569 
Q 847 1681 609 1914 
Q 372 2147 372 2553 
Q 372 3047 722 3315 
Q 1072 3584 1716 3584 
Q 2034 3584 2315 3537 
Q 2597 3491 2834 3397 
z
" id="DejaVuSans-73" transform="scale(0.015625)"/>
      </defs>
      <use xlink:href="#DejaVuSans-45"/>
      <use x="63.183594" xlink:href="#DejaVuSans-70"/>
      <use x="126.660156" xlink:href="#DejaVuSans-6f"/>
      <use x="187.841797" xlink:href="#DejaVuSans-63"/>
      <use x="242.822266" xlink:href="#DejaVuSans-68"/>
      <use x="306.201172" xlink:href="#DejaVuSans-73"/>
     </g>
    </g>
   </g>
   <g id="matplotlib.axis_2">
    <g id="ytick_1">
     <g id="line2d_11">
      <defs>
       <path d="M 0 0 
L -3.5 0 
" id="m31d68e6149" style="stroke:#000000;stroke-width:0.8;"/>
      </defs>
      <g>
       <use style="stroke:#000000;stroke-width:0.8;" x="57.6" xlink:href="#m31d68e6149" y="307.410131"/>
      </g>
     </g>
     <g id="text_12">
      <!-- 0 -->
      <g transform="translate(44.2375 311.20935)scale(0.1 -0.1)">
       <use xlink:href="#DejaVuSans-30"/>
      </g>
     </g>
    </g>
    <g id="ytick_2">
     <g id="line2d_12">
      <g>
       <use style="stroke:#000000;stroke-width:0.8;" x="57.6" xlink:href="#m31d68e6149" y="274.101887"/>
      </g>
     </g>
     <g id="text_13">
      <!-- 10 -->
      <g transform="translate(37.875 277.901105)scale(0.1 -0.1)">
       <use xlink:href="#DejaVuSans-31"/>
       <use x="63.623047" xlink:href="#DejaVuSans-30"/>
      </g>
     </g>
    </g>
    <g id="ytick_3">
     <g id="line2d_13">
      <g>
       <use style="stroke:#000000;stroke-width:0.8;" x="57.6" xlink:href="#m31d68e6149" y="240.793642"/>
      </g>
     </g>
     <g id="text_14">
      <!-- 20 -->
      <g transform="translate(37.875 244.592861)scale(0.1 -0.1)">
       <use xlink:href="#DejaVuSans-32"/>
       <use x="63.623047" xlink:href="#DejaVuSans-30"/>
      </g>
     </g>
    </g>
    <g id="ytick_4">
     <g id="line2d_14">
      <g>
       <use style="stroke:#000000;stroke-width:0.8;" x="57.6" xlink:href="#m31d68e6149" y="207.485398"/>
      </g>
     </g>
     <g id="text_15">
      <!-- 30 -->
      <g transform="translate(37.875 211.284616)scale(0.1 -0.1)">
       <use xlink:href="#DejaVuSans-33"/>
       <use x="63.623047" xlink:href="#DejaVuSans-30"/>
      </g>
     </g>
    </g>
    <g id="ytick_5">
     <g id="line2d_15">
      <g>
       <use style="stroke:#000000;stroke-width:0.8;" x="57.6" xlink:href="#m31d68e6149" y="174.177153"/>
      </g>
     </g>
     <g id="text_16">
      <!-- 40 -->
      <g transform="translate(37.875 177.976372)scale(0.1 -0.1)">
       <use xlink:href="#DejaVuSans-34"/>
       <use x="63.623047" xlink:href="#DejaVuSans-30"/>
      </g>
     </g>
    </g>
    <g id="ytick_6">
     <g id="line2d_16">
      <g>
       <use style="stroke:#000000;stroke-width:0.8;" x="57.6" xlink:href="#m31d68e6149" y="140.868909"/>
      </g>
     </g>
     <g id="text_17">
      <!-- 50 -->
      <g transform="translate(37.875 144.668127)scale(0.1 -0.1)">
       <use xlink:href="#DejaVuSans-35"/>
       <use x="63.623047" xlink:href="#DejaVuSans-30"/>
      </g>
     </g>
    </g>
    <g id="ytick_7">
     <g id="line2d_17">
      <g>
       <use style="stroke:#000000;stroke-width:0.8;" x="57.6" xlink:href="#m31d68e6149" y="107.560664"/>
      </g>
     </g>
     <g id="text_18">
      <!-- 60 -->
      <g transform="translate(37.875 111.359883)scale(0.1 -0.1)">
       <use xlink:href="#DejaVuSans-36"/>
       <use x="63.623047" xlink:href="#DejaVuSans-30"/>
      </g>
     </g>
    </g>
    <g id="ytick_8">
     <g id="line2d_18">
      <g>
       <use style="stroke:#000000;stroke-width:0.8;" x="57.6" xlink:href="#m31d68e6149" y="74.25242"/>
      </g>
     </g>
     <g id="text_19">
      <!-- 70 -->
      <g transform="translate(37.875 78.051639)scale(0.1 -0.1)">
       <use xlink:href="#DejaVuSans-37"/>
       <use x="63.623047" xlink:href="#DejaVuSans-30"/>
      </g>
     </g>
    </g>
    <g id="text_20">
     <!-- Accuracy -->
     <g transform="translate(31.795312 197.356125)rotate(-90)scale(0.1 -0.1)">
      <defs>
       <path d="M 2188 4044 
L 1331 1722 
L 3047 1722 
L 2188 4044 
z
M 1831 4666 
L 2547 4666 
L 4325 0 
L 3669 0 
L 3244 1197 
L 1141 1197 
L 716 0 
L 50 0 
L 1831 4666 
z
" id="DejaVuSans-41" transform="scale(0.015625)"/>
       <path d="M 544 1381 
L 544 3500 
L 1119 3500 
L 1119 1403 
Q 1119 906 1312 657 
Q 1506 409 1894 409 
Q 2359 409 2629 706 
Q 2900 1003 2900 1516 
L 2900 3500 
L 3475 3500 
L 3475 0 
L 2900 0 
L 2900 538 
Q 2691 219 2414 64 
Q 2138 -91 1772 -91 
Q 1169 -91 856 284 
Q 544 659 544 1381 
z
M 1991 3584 
L 1991 3584 
z
" id="DejaVuSans-75" transform="scale(0.015625)"/>
       <path d="M 2631 2963 
Q 2534 3019 2420 3045 
Q 2306 3072 2169 3072 
Q 1681 3072 1420 2755 
Q 1159 2438 1159 1844 
L 1159 0 
L 581 0 
L 581 3500 
L 1159 3500 
L 1159 2956 
Q 1341 3275 1631 3429 
Q 1922 3584 2338 3584 
Q 2397 3584 2469 3576 
Q 2541 3569 2628 3553 
L 2631 2963 
z
" id="DejaVuSans-72" transform="scale(0.015625)"/>
       <path d="M 2194 1759 
Q 1497 1759 1228 1600 
Q 959 1441 959 1056 
Q 959 750 1161 570 
Q 1363 391 1709 391 
Q 2188 391 2477 730 
Q 2766 1069 2766 1631 
L 2766 1759 
L 2194 1759 
z
M 3341 1997 
L 3341 0 
L 2766 0 
L 2766 531 
Q 2569 213 2275 61 
Q 1981 -91 1556 -91 
Q 1019 -91 701 211 
Q 384 513 384 1019 
Q 384 1609 779 1909 
Q 1175 2209 1959 2209 
L 2766 2209 
L 2766 2266 
Q 2766 2663 2505 2880 
Q 2244 3097 1772 3097 
Q 1472 3097 1187 3025 
Q 903 2953 641 2809 
L 641 3341 
Q 956 3463 1253 3523 
Q 1550 3584 1831 3584 
Q 2591 3584 2966 3190 
Q 3341 2797 3341 1997 
z
" id="DejaVuSans-61" transform="scale(0.015625)"/>
       <path d="M 2059 -325 
Q 1816 -950 1584 -1140 
Q 1353 -1331 966 -1331 
L 506 -1331 
L 506 -850 
L 844 -850 
Q 1081 -850 1212 -737 
Q 1344 -625 1503 -206 
L 1606 56 
L 191 3500 
L 800 3500 
L 1894 763 
L 2988 3500 
L 3597 3500 
L 2059 -325 
z
" id="DejaVuSans-79" transform="scale(0.015625)"/>
      </defs>
      <use xlink:href="#DejaVuSans-41"/>
      <use x="66.658203" xlink:href="#DejaVuSans-63"/>
      <use x="121.638672" xlink:href="#DejaVuSans-63"/>
      <use x="176.619141" xlink:href="#DejaVuSans-75"/>
      <use x="239.998047" xlink:href="#DejaVuSans-72"/>
      <use x="281.111328" xlink:href="#DejaVuSans-61"/>
      <use x="342.390625" xlink:href="#DejaVuSans-63"/>
      <use x="397.371094" xlink:href="#DejaVuSans-79"/>
     </g>
    </g>
   </g>
   <g id="line2d_19">
    <path clip-path="url(#p360774dcef)" d="M 73.832727 295.488 
L 74.883389 288.468843 
L 75.934051 286.388188 
L 76.984713 281.860487 
L 78.035375 279.806479 
L 79.086037 275.765078 
L 80.136699 271.266245 
L 81.187361 267.777761 
L 82.238023 265.135307 
L 83.288685 269.654126 
L 84.339347 272.689617 
L 85.390009 270.890972 
L 86.440671 267.224844 
L 87.491333 266.250023 
L 88.541995 260.463271 
L 90.643319 258.040651 
L 91.693981 260.043587 
L 92.744643 247.808358 
L 94.845966 248.405686 
L 95.896628 245.676631 
L 96.94729 239.650059 
L 97.997952 238.557549 
L 99.048614 240.518294 
L 100.099276 244.368727 
L 101.149938 233.341478 
L 102.2006 231.81596 
L 103.251262 223.7376 
L 104.301924 232.919573 
L 105.352586 256.188713 
L 106.403248 250.022246 
L 107.45391 248.530037 
L 108.504572 243.953484 
L 109.555234 249.373846 
L 110.605896 240.012009 
L 111.656558 237.849193 
L 112.70722 237.105309 
L 113.757882 238.866205 
L 114.808544 236.519084 
L 116.909868 225.829358 
L 117.96053 232.773017 
L 119.011192 233.445843 
L 120.061853 227.548064 
L 121.112515 236.370307 
L 122.163177 232.129057 
L 123.213839 235.746333 
L 124.264501 221.765752 
L 125.315163 219.733949 
L 126.365825 224.674672 
L 127.416487 225.300867 
L 128.467149 233.241553 
L 129.517811 215.801356 
L 130.568473 210.64746 
L 131.619135 213.583027 
L 132.669797 214.588936 
L 133.720459 205.322582 
L 134.771121 213.318781 
L 135.821783 214.32469 
L 136.872445 215.765827 
L 137.923107 217.462327 
L 138.973769 214.109297 
L 140.024431 223.315696 
L 142.125755 203.084268 
L 143.176417 206.24411 
L 144.227079 208.529056 
L 145.277741 197.457395 
L 146.328402 209.406173 
L 147.379064 232.046897 
L 148.429726 218.446031 
L 149.480388 225.283103 
L 151.581712 231.442908 
L 152.632374 223.200227 
L 153.683036 222.298684 
L 154.733698 225.371925 
L 155.78436 226.617653 
L 156.835022 220.38235 
L 157.885684 225.083253 
L 158.936346 223.349004 
L 159.987008 233.508019 
L 161.03767 209.004254 
L 162.088332 216.374258 
L 163.138994 219.820551 
L 164.189656 219.101093 
L 165.240318 217.937525 
L 166.29098 212.799173 
L 167.341642 216.556343 
L 168.392304 214.391307 
L 169.442966 208.184871 
L 170.493628 220.035944 
L 171.544289 219.036697 
L 172.594951 225.065489 
L 173.645613 203.810388 
L 174.696275 207.338841 
L 175.746937 223.195786 
L 176.797599 212.781408 
L 177.848261 213.436471 
L 178.898923 208.702259 
L 179.949585 209.219647 
L 181.000247 214.022696 
L 182.050909 199.047309 
L 183.101571 212.279564 
L 184.152233 193.79793 
L 185.202895 207.056832 
L 186.253557 198.640948 
L 187.304219 209.681521 
L 188.354881 207.765187 
L 189.405543 213.853934 
L 190.456205 198.938502 
L 191.506867 202.589086 
L 192.557529 201.842981 
L 193.608191 195.73647 
L 194.658853 209.237411 
L 195.709515 208.70892 
L 196.760177 207.882876 
L 197.810838 194.783854 
L 198.8615 200.179789 
L 199.912162 193.811253 
L 200.962824 195.247949 
L 202.013486 197.013286 
L 203.064148 197.439631 
L 204.11481 183.223672 
L 205.165472 189.252465 
L 206.216134 201.203463 
L 207.266796 188.541889 
L 208.317458 193.493714 
L 209.36812 181.818064 
L 210.418782 186.761008 
L 211.469444 193.35604 
L 212.520106 188.115543 
L 213.570768 186.394617 
L 214.62143 190.826834 
L 215.672092 190.615882 
L 216.722754 179.810688 
L 217.773416 191.421942 
L 218.824078 179.17339 
L 219.87474 182.439818 
L 220.925402 181.087504 
L 221.976064 200.972526 
L 223.026726 186.634437 
L 224.077387 183.177041 
L 225.128049 165.945576 
L 226.178711 181.775874 
L 227.229373 176.972825 
L 228.280035 185.206623 
L 229.330697 178.129732 
L 230.381359 192.210237 
L 231.432021 219.636245 
L 232.482683 216.529696 
L 233.533345 224.439294 
L 234.584007 214.313588 
L 235.634669 202.0828 
L 236.685331 210.010163 
L 237.735993 208.364735 
L 238.786655 209.388409 
L 239.837317 211.733309 
L 240.887979 205.651224 
L 241.938641 215.959015 
L 242.989303 210.332142 
L 244.039965 205.338126 
L 245.090627 206.552767 
L 246.141289 203.246368 
L 247.191951 212.135229 
L 248.242613 201.791908 
L 249.293274 208.242605 
L 250.343936 208.067182 
L 251.394598 205.848853 
L 252.44526 207.378811 
L 253.495922 217.944186 
L 254.546584 202.018404 
L 255.597246 206.48393 
L 256.647908 199.053971 
L 257.69857 212.30177 
L 258.749232 201.527663 
L 259.799894 209.101958 
L 260.850556 207.814039 
L 261.901218 197.570644 
L 262.95188 196.453707 
L 264.002542 197.290854 
L 265.053204 199.267143 
L 266.103866 194.008882 
L 267.154528 205.253745 
L 268.20519 203.679376 
L 269.255852 196.589161 
L 270.306514 197.96146 
L 271.357176 195.076966 
L 272.407838 201.940685 
L 273.4585 209.601581 
L 274.509162 207.774069 
L 275.559823 200.204215 
L 276.610485 210.558638 
L 277.661147 198.254573 
L 278.711809 205.897705 
L 279.762471 194.226496 
L 280.813133 204.154573 
L 281.863795 182.895031 
L 282.914457 194.037749 
L 283.965119 202.500264 
L 285.015781 192.239104 
L 286.066443 204.971735 
L 287.117105 203.948062 
L 288.167767 204.9895 
L 289.218429 196.904479 
L 290.269091 211.715545 
L 291.319753 184.285095 
L 292.370415 190.935641 
L 293.421077 192.34347 
L 294.471739 193.347158 
L 295.522401 196.029582 
L 296.573063 193.038502 
L 297.623725 196.584719 
L 298.674387 188.342039 
L 299.725049 202.295973 
L 300.775711 186.179224 
L 301.826372 194.512947 
L 302.877034 204.032443 
L 304.978358 198.716447 
L 306.02902 180.017199 
L 307.079682 185.772863 
L 308.130344 206.8481 
L 309.181006 191.073315 
L 310.231668 197.941475 
L 311.28233 182.004591 
L 312.332992 191.977079 
L 313.383654 189.827587 
L 314.434316 186.776552 
L 315.484978 194.52627 
L 316.53564 189.043733 
L 317.586302 179.872863 
L 318.636964 195.116936 
L 319.687626 199.100602 
L 320.738288 190.04076 
L 321.78895 178.114188 
L 322.839612 186.674406 
L 323.890274 191.832743 
L 324.940936 201.929582 
L 325.991598 194.954836 
L 327.042259 176.477643 
L 328.092921 185.726232 
L 329.143583 181.744786 
L 330.194245 199.82006 
L 331.244907 180.161534 
L 332.295569 187.929017 
L 333.346231 182.322129 
L 334.396893 201.700866 
L 335.447555 176.384379 
L 336.498217 179.237786 
L 337.548879 175.225253 
L 338.599541 185.952728 
L 339.650203 181.331764 
L 340.700865 197.79714 
L 341.751527 170.413322 
L 342.802189 170.200149 
L 343.852851 163.018891 
L 344.903513 176.835151 
L 345.954175 178.236318 
L 347.004837 181.544937 
L 348.055499 180.383589 
L 349.106161 184.58931 
L 350.156823 174.114978 
L 351.207485 167.917424 
L 352.258147 182.151147 
L 353.308808 180.1038 
L 354.35947 184.538238 
L 355.410132 186.052653 
L 356.460794 178.105305 
L 357.511456 178.966879 
L 358.562118 169.667217 
L 359.61278 178.804779 
L 360.663442 178.453932 
L 361.714104 190.051862 
L 362.764766 179.626382 
L 363.815428 161.144747 
L 364.86609 165.061797 
L 365.916752 179.237786 
L 366.967414 181.294015 
L 368.018076 166.607299 
L 369.068738 168.95442 
L 370.1194 181.318441 
L 371.170062 180.852125 
L 372.220724 173.129054 
L 373.271386 161.242452 
L 374.322048 170.251221 
L 375.37271 171.352614 
L 376.423372 171.25713 
L 377.474034 167.266803 
L 378.524695 169.200901 
L 379.575357 159.941209 
L 380.626019 165.734623 
L 381.676681 147.292959 
L 382.727343 158.242489 
L 383.778005 161.282421 
L 384.828667 168.514752 
L 385.879329 176.979487 
L 386.929991 173.826306 
L 387.980653 174.616822 
L 389.031315 173.431048 
L 390.081977 158.808729 
L 391.132639 171.439215 
L 392.183301 173.912908 
L 393.233963 164.615466 
L 394.284625 178.291832 
L 395.335287 150.721487 
L 396.385949 176.477643 
L 397.436611 179.948362 
L 398.487273 162.863453 
L 398.487273 162.863453 
" style="fill:none;stroke:#1f77b4;stroke-linecap:square;stroke-width:1.5;"/>
   </g>
   <g id="line2d_20">
    <path clip-path="url(#p360774dcef)" d="M 73.832727 281.096618 
L 74.883389 270.704446 
L 75.934051 261.811144 
L 76.984713 258.813402 
L 78.035375 254.416714 
L 79.086037 241.126725 
L 80.136699 231.300792 
L 81.187361 227.437036 
L 82.238023 222.340875 
L 83.288685 219.676215 
L 84.339347 243.858001 
L 85.390009 228.969215 
L 86.440671 221.308319 
L 87.491333 219.609599 
L 88.541995 217.11148 
L 89.592657 208.184871 
L 90.643319 209.350659 
L 91.693981 204.953971 
L 92.744643 193.529243 
L 93.795305 184.003085 
L 95.896628 177.707827 
L 96.94729 167.715354 
L 97.997952 166.283099 
L 99.048614 163.318665 
L 100.099276 159.688067 
L 101.149938 158.722128 
L 102.2006 154.058974 
L 103.251262 150.761457 
L 104.301924 150.161909 
L 105.352586 190.298343 
L 106.403248 177.308128 
L 107.45391 186.334662 
L 108.504572 177.874368 
L 109.555234 171.679035 
L 110.605896 162.719117 
L 111.656558 167.848587 
L 112.70722 169.314149 
L 113.757882 163.451898 
L 114.808544 156.956791 
L 115.859206 159.588142 
L 116.909868 147.563866 
L 117.96053 153.526042 
L 119.011192 145.265597 
L 120.061853 139.869661 
L 121.112515 142.634246 
L 122.163177 142.301163 
L 123.213839 134.940041 
L 124.264501 139.303421 
L 125.315163 128.578167 
L 126.365825 134.573651 
L 127.416487 126.579672 
L 128.467149 124.481252 
L 129.517811 125.080801 
L 130.568473 121.350277 
L 132.669797 116.420657 
L 133.720459 115.088328 
L 134.771121 116.953589 
L 135.821783 111.391112 
L 136.872445 109.592467 
L 137.923107 106.661342 
L 138.973769 107.26089 
L 140.024431 105.861944 
L 141.075093 102.631044 
L 142.125755 103.563675 
L 143.176417 103.430442 
L 144.227079 101.531872 
L 145.277741 101.698413 
L 146.328402 101.065557 
L 147.379064 145.332213 
L 148.429726 143.933267 
L 149.480388 142.201238 
L 150.53105 131.309443 
L 151.581712 133.674328 
L 152.632374 134.540342 
L 153.683036 125.014184 
L 154.733698 131.442676 
L 155.78436 128.311701 
L 156.835022 123.548622 
L 157.885684 180.239254 
L 158.936346 130.609969 
L 159.987008 125.214034 
L 161.03767 128.444934 
L 162.088332 122.083059 
L 164.189656 115.754492 
L 165.240318 121.883209 
L 166.29098 124.048245 
L 167.341642 115.42141 
L 168.392304 122.516066 
L 169.442966 111.62427 
L 170.493628 110.824872 
L 171.544289 120.650804 
L 172.594951 124.14817 
L 174.696275 116.953589 
L 175.746937 110.924797 
L 176.797599 108.726453 
L 177.848261 120.051256 
L 178.898923 108.559912 
L 179.949585 107.227582 
L 181.000247 109.592467 
L 182.050909 100.632549 
L 183.101571 104.22984 
L 184.152233 100.599241 
L 185.202895 101.864954 
L 186.253557 101.19879 
L 187.304219 103.563675 
L 188.354881 98.367589 
L 189.405543 94.503832 
L 190.456205 100.033001 
L 191.506867 119.518324 
L 192.557529 92.605262 
L 193.608191 95.669621 
L 194.658853 101.365331 
L 195.709515 89.674137 
L 196.760177 89.174513 
L 197.810838 90.440227 
L 198.8615 89.507596 
L 199.912162 91.50609 
L 200.962824 89.174513 
L 203.064148 85.477298 
L 204.11481 84.278201 
L 205.165472 90.406918 
L 206.216134 84.11166 
L 207.266796 82.113165 
L 208.317458 81.746775 
L 209.36812 79.848205 
L 210.418782 80.414445 
L 211.469444 77.316778 
L 212.520106 79.714972 
L 213.570768 80.014746 
L 214.62143 75.917832 
L 215.672092 78.882266 
L 216.722754 79.848205 
L 217.773416 73.519638 
L 218.824078 73.719488 
L 219.87474 73.020015 
L 220.925402 72.120692 
L 221.976064 72.320542 
L 223.026726 72.986707 
L 224.077387 71.554452 
L 225.128049 71.854226 
L 226.178711 71.22137 
L 227.229373 74.485578 
L 228.280035 72.287233 
L 229.330697 71.22137 
L 230.381359 71.321294 
L 231.432021 118.352535 
L 232.482683 112.157202 
L 233.533345 114.921786 
L 234.584007 114.921786 
L 235.634669 110.258632 
L 236.685331 115.42141 
L 237.735993 111.82412 
L 238.786655 105.395628 
L 239.837317 107.094349 
L 240.887979 100.665858 
L 241.938641 110.425173 
L 242.989303 104.129915 
L 244.039965 103.297209 
L 245.090627 109.7257 
L 246.141289 100.132926 
L 247.191951 103.996682 
L 248.242613 100.332775 
L 249.293274 103.796833 
L 250.343936 116.320733 
L 251.394598 106.861191 
L 252.44526 101.898263 
L 253.495922 107.993671 
L 254.546584 99.200295 
L 255.597246 99.999693 
L 257.69857 102.497811 
L 258.749232 96.302478 
L 259.799894 98.400897 
L 260.850556 97.534883 
L 261.901218 98.234356 
L 262.95188 93.771051 
L 264.002542 95.469772 
L 265.053204 97.734732 
L 266.103866 98.733979 
L 267.154528 93.60451 
L 268.20519 98.134431 
L 269.255852 96.935334 
L 270.306514 98.867212 
L 271.357176 95.136689 
L 272.407838 92.571954 
L 273.4585 118.619001 
L 274.509162 91.406166 
L 275.559823 97.001951 
L 276.610485 93.537893 
L 277.661147 94.370599 
L 278.711809 96.06932 
L 279.762471 86.743011 
L 280.813133 91.372857 
L 281.863795 92.938345 
L 282.914457 90.207069 
L 283.965119 94.303983 
L 286.066443 85.477298 
L 287.117105 88.375115 
L 288.167767 96.502327 
L 289.218429 92.671879 
L 290.269091 86.076847 
L 291.319753 91.472782 
L 292.370415 84.644592 
L 293.421077 89.574212 
L 294.471739 87.708951 
L 295.522401 87.309252 
L 296.573063 85.410682 
L 297.623725 82.113165 
L 298.674387 86.276696 
L 299.725049 82.046549 
L 300.775711 89.107897 
L 301.826372 83.412187 
L 302.877034 87.109402 
L 303.927696 80.980685 
L 304.978358 87.309252 
L 306.02902 81.746775 
L 307.079682 80.014746 
L 308.130344 85.777072 
L 309.181006 90.273685 
L 310.231668 84.478051 
L 311.28233 81.247151 
L 312.332992 80.580986 
L 313.383654 78.149484 
L 314.434316 77.050312 
L 315.484978 77.350087 
L 316.53564 80.181287 
L 317.586302 73.919337 
L 318.636964 74.518886 
L 319.687626 75.984449 
L 320.738288 80.31452 
L 321.78895 75.418208 
L 322.839612 76.250914 
L 324.940936 78.316026 
L 325.991598 75.085126 
L 327.042259 75.784599 
L 328.092921 79.914821 
L 329.143583 73.886029 
L 330.194245 72.653624 
L 331.244907 76.617305 
L 332.295569 71.188061 
L 333.346231 73.819413 
L 334.396893 69.522649 
L 335.447555 74.951893 
L 336.498217 73.053323 
L 337.548879 70.854979 
L 338.599541 76.750538 
L 339.650203 68.656635 
L 340.700865 68.989717 
L 341.751527 69.722499 
L 342.802189 69.056334 
L 343.852851 71.78761 
L 344.903513 66.225133 
L 345.954175 67.290997 
L 347.004837 68.756559 
L 348.055499 68.55671 
L 349.106161 65.192577 
L 350.156823 66.491599 
L 351.207485 64.426488 
L 352.258147 63.393932 
L 353.308808 64.826187 
L 354.35947 65.32581 
L 355.410132 64.126713 
L 356.460794 63.893556 
L 357.511456 66.624832 
L 358.562118 62.161527 
L 359.61278 68.090395 
L 360.663442 64.992728 
L 361.714104 63.793631 
L 362.764766 64.19333 
L 363.815428 62.960925 
L 364.86609 59.26371 
L 365.916752 59.563484 
L 366.967414 59.696717 
L 368.018076 59.26371 
L 369.068738 61.895061 
L 370.1194 59.596792 
L 371.170062 58.464312 
L 372.220724 60.762581 
L 373.271386 57.465065 
L 374.322048 59.363635 
L 375.37271 59.6301 
L 376.423372 56.565742 
L 377.474034 56.7989 
L 379.575357 56.765591 
L 380.626019 55.633111 
L 382.727343 56.965441 
L 383.778005 56.59905 
L 384.828667 54.400706 
L 385.879329 56.03281 
L 386.929991 56.399201 
L 387.980653 54.667172 
L 389.031315 54.800405 
L 390.081977 57.098674 
L 391.132639 54.367398 
L 392.183301 57.16529 
L 393.233963 54.800405 
L 394.284625 54.100932 
L 395.335287 53.568 
L 396.385949 55.766344 
L 398.487273 55.666419 
L 398.487273 55.666419 
" style="fill:none;stroke:#ff7f0e;stroke-linecap:square;stroke-width:1.5;"/>
   </g>
   <g id="line2d_21">
    <path clip-path="url(#p360774dcef)" d="M 73.832727 281.990681 
L 75.934051 268.439485 
L 76.984713 264.705455 
L 78.035375 263.548432 
L 79.086037 251.43475 
L 80.136699 243.247934 
L 81.187361 238.391942 
L 82.238023 235.306547 
L 83.288685 230.380433 
L 84.339347 251.487342 
L 85.390009 237.26998 
L 86.440671 232.378928 
L 87.491333 232.536704 
L 88.541995 228.101448 
L 89.592657 219.669203 
L 90.643319 222.509169 
L 91.693981 221.685228 
L 93.795305 203.470878 
L 94.845966 200.665973 
L 95.896628 196.633922 
L 96.94729 189.095741 
L 97.997952 185.133813 
L 99.048614 185.32665 
L 101.149938 177.998836 
L 102.2006 174.650481 
L 103.251262 173.212967 
L 104.301924 174.0895 
L 105.352586 205.890108 
L 106.403248 195.249 
L 107.45391 202.839774 
L 108.504572 197.002066 
L 109.555234 189.919681 
L 110.605896 187.500451 
L 111.656558 182.486684 
L 112.70722 189.937212 
L 113.757882 182.802235 
L 114.808544 182.521745 
L 115.859206 180.628434 
L 116.909868 172.616925 
L 117.96053 175.737381 
L 119.011192 170.35547 
L 120.061853 165.674785 
L 121.112515 169.478938 
L 122.163177 167.988832 
L 123.213839 158.592401 
L 124.264501 167.848587 
L 125.315163 152.859877 
L 126.365825 161.467428 
L 127.416487 155.559598 
L 128.467149 153.035183 
L 129.517811 152.68457 
L 130.568473 146.356004 
L 131.619135 148.179192 
L 132.669797 143.551099 
L 133.720459 141.44742 
L 134.771121 145.19898 
L 135.821783 137.205002 
L 136.872445 138.50227 
L 137.923107 136.100571 
L 140.024431 135.785019 
L 141.075093 131.665315 
L 142.125755 133.40085 
L 143.176417 131.980867 
L 144.227079 132.086051 
L 145.277741 130.841374 
L 146.328402 129.947311 
L 147.379064 168.427098 
L 148.429726 172.266312 
L 149.480388 167.690811 
L 150.53105 159.591648 
L 151.581712 159.889669 
L 152.632374 163.325678 
L 153.683036 155.62972 
L 154.733698 159.749424 
L 155.78436 155.033678 
L 156.835022 154.420105 
L 157.885684 203.032611 
L 158.936346 157.961297 
L 159.987008 155.051209 
L 161.03767 158.785238 
L 162.088332 147.548088 
L 164.189656 145.46194 
L 165.240318 145.672308 
L 166.29098 151.895691 
L 167.341642 145.339226 
L 168.392304 154.034431 
L 169.442966 141.622727 
L 170.493628 143.480976 
L 171.544289 149.581644 
L 172.594951 154.525289 
L 173.645613 150.721137 
L 174.696275 145.602186 
L 175.746937 141.850625 
L 176.797599 140.465704 
L 177.848261 149.932257 
L 178.898923 144.725653 
L 179.949585 137.643268 
L 181.000247 141.990871 
L 182.050909 132.506786 
L 183.101571 135.381814 
L 184.152233 132.647032 
L 185.202895 135.416875 
L 186.253557 132.366541 
L 187.304219 131.454947 
L 188.354881 129.38633 
L 189.405543 123.566152 
L 190.456205 128.807818 
L 191.506867 151.299648 
L 192.557529 124.057011 
L 193.608191 125.932791 
L 194.658853 135.977856 
L 195.709515 121.602719 
L 196.760177 122.70715 
L 197.810838 120.165205 
L 198.8615 121.883209 
L 199.912162 121.497535 
L 200.962824 118.797814 
L 202.013486 118.990651 
L 203.064148 117.220055 
L 204.11481 115.133907 
L 205.165472 116.904503 
L 206.216134 114.345028 
L 207.266796 114.117129 
L 208.317458 112.223818 
L 209.36812 109.085831 
L 210.418782 114.590457 
L 211.469444 108.559912 
L 212.520106 112.714677 
L 214.62143 107.43795 
L 215.672092 108.875463 
L 216.722754 111.645307 
L 217.773416 105.84266 
L 218.824078 104.808351 
L 219.87474 105.053781 
L 220.925402 105.001189 
L 221.976064 102.038508 
L 223.026726 103.072817 
L 224.077387 103.16047 
L 225.128049 103.861696 
L 226.178711 102.844918 
L 227.229373 104.054533 
L 228.280035 103.861696 
L 230.381359 102.266406 
L 231.432021 149.248562 
L 232.482683 140.202744 
L 233.533345 143.621222 
L 234.584007 148.65252 
L 235.634669 142.131116 
L 236.685331 144.077019 
L 237.735993 141.44742 
L 238.786655 138.379556 
L 239.837317 138.607454 
L 240.887979 130.841374 
L 241.938641 141.16693 
L 242.989303 136.62649 
L 244.039965 136.223285 
L 245.090627 137.95882 
L 246.141289 132.997645 
L 247.191951 139.221027 
L 248.242613 131.402355 
L 249.293274 134.627996 
L 250.343936 144.865898 
L 251.394598 135.907733 
L 252.44526 133.926769 
L 253.495922 137.012165 
L 254.546584 131.419886 
L 255.597246 130.858905 
L 256.647908 134.22479 
L 257.69857 130.929027 
L 258.749232 129.333738 
L 259.799894 128.983125 
L 260.850556 131.349763 
L 261.901218 126.318465 
L 262.95188 126.756731 
L 264.002542 126.634017 
L 265.053204 129.351268 
L 266.103866 129.64929 
L 267.154528 126.98463 
L 268.20519 131.875683 
L 269.255852 130.245332 
L 270.306514 129.842127 
L 271.357176 127.843632 
L 272.407838 124.30244 
L 273.4585 150.615953 
L 274.509162 123.390846 
L 275.559823 129.719412 
L 276.610485 122.496782 
L 277.661147 126.949569 
L 278.711809 125.932791 
L 279.762471 122.303945 
L 280.813133 126.371057 
L 281.863795 121.181983 
L 282.914457 122.268884 
L 283.965119 125.827607 
L 285.015781 123.601214 
L 286.066443 120.778778 
L 287.117105 118.640038 
L 288.167767 126.844385 
L 289.218429 122.356537 
L 290.269091 120.498288 
L 291.319753 126.809323 
L 292.370415 122.566905 
L 293.421077 122.672089 
L 294.471739 121.269636 
L 295.522401 118.710161 
L 296.573063 120.270389 
L 297.623725 113.924292 
L 298.674387 122.005924 
L 299.725049 111.294694 
L 300.775711 120.130144 
L 301.826372 116.378584 
L 302.877034 116.518829 
L 303.927696 114.309966 
L 304.978358 121.550127 
L 306.02902 113.678863 
L 307.079682 112.784799 
L 308.130344 118.797814 
L 309.181006 123.986888 
L 310.231668 116.466237 
L 311.28233 113.626271 
L 312.332992 115.48452 
L 313.383654 111.049265 
L 314.434316 107.157459 
L 315.484978 113.661332 
L 316.53564 113.117882 
L 317.586302 106.982153 
L 318.636964 105.439455 
L 319.687626 110.277916 
L 320.738288 108.682626 
L 321.78895 106.298457 
L 322.839612 111.20704 
L 324.940936 107.630787 
L 325.991598 106.38611 
L 327.042259 107.297704 
L 328.092921 113.924292 
L 329.143583 103.791573 
L 330.194245 105.281679 
L 331.244907 109.909772 
L 332.295569 104.580453 
L 333.346231 105.334271 
L 334.396893 103.633798 
L 335.447555 109.59422 
L 336.498217 104.913535 
L 337.548879 102.459244 
L 338.599541 111.031734 
L 339.650203 103.353307 
L 340.700865 101.775548 
L 341.751527 101.337282 
L 342.802189 100.320504 
L 343.852851 101.933324 
L 344.903513 99.198542 
L 345.954175 99.391379 
L 347.004837 101.652834 
L 348.055499 100.47828 
L 349.106161 98.146703 
L 350.156823 100.776301 
L 351.207485 95.429451 
L 353.308808 96.183269 
L 354.35947 97.603252 
L 355.410132 96.025493 
L 356.460794 95.201552 
L 357.511456 96.270922 
L 358.562118 93.203058 
L 359.61278 98.865459 
L 360.663442 97.918804 
L 361.714104 93.991937 
L 362.764766 97.182517 
L 363.815428 95.043777 
L 364.86609 92.010973 
L 365.916752 92.256402 
L 366.967414 91.64283 
L 368.018076 92.133688 
L 369.068738 92.361586 
L 370.1194 91.607768 
L 372.220724 90.363092 
L 373.271386 91.467523 
L 374.322048 91.362339 
L 375.37271 92.221341 
L 376.423372 89.25866 
L 377.474034 89.171007 
L 378.524695 88.662618 
L 379.575357 91.222094 
L 380.626019 85.945367 
L 381.676681 87.698432 
L 382.727343 88.750271 
L 384.828667 86.120673 
L 385.879329 87.260166 
L 386.929991 86.366102 
L 387.980653 86.138204 
L 389.031315 85.401916 
L 390.081977 88.031515 
L 391.132639 85.910305 
L 392.183301 88.154229 
L 393.233963 85.384386 
L 395.335287 86.03302 
L 396.385949 87.084859 
L 397.436611 86.734246 
L 398.487273 87.067329 
L 398.487273 87.067329 
" style="fill:none;stroke:#2ca02c;stroke-linecap:square;stroke-width:1.5;"/>
   </g>
   <g id="patch_3">
    <path d="M 57.6 307.584 
L 57.6 41.472 
" style="fill:none;stroke:#000000;stroke-linecap:square;stroke-linejoin:miter;stroke-width:0.8;"/>
   </g>
   <g id="patch_4">
    <path d="M 414.72 307.584 
L 414.72 41.472 
" style="fill:none;stroke:#000000;stroke-linecap:square;stroke-linejoin:miter;stroke-width:0.8;"/>
   </g>
   <g id="patch_5">
    <path d="M 57.6 307.584 
L 414.72 307.584 
" style="fill:none;stroke:#000000;stroke-linecap:square;stroke-linejoin:miter;stroke-width:0.8;"/>
   </g>
   <g id="patch_6">
    <path d="M 57.6 41.472 
L 414.72 41.472 
" style="fill:none;stroke:#000000;stroke-linecap:square;stroke-linejoin:miter;stroke-width:0.8;"/>
   </g>
   <g id="text_21">
    <!-- Training and Validation Accuracy -->
    <g transform="translate(138.4575 35.472)scale(0.12 -0.12)">
     <defs>
      <path d="M -19 4666 
L 3928 4666 
L 3928 4134 
L 2272 4134 
L 2272 0 
L 1638 0 
L 1638 4134 
L -19 4134 
L -19 4666 
z
" id="DejaVuSans-54" transform="scale(0.015625)"/>
      <path d="M 603 3500 
L 1178 3500 
L 1178 0 
L 603 0 
L 603 3500 
z
M 603 4863 
L 1178 4863 
L 1178 4134 
L 603 4134 
L 603 4863 
z
" id="DejaVuSans-69" transform="scale(0.015625)"/>
      <path d="M 3513 2113 
L 3513 0 
L 2938 0 
L 2938 2094 
Q 2938 2591 2744 2837 
Q 2550 3084 2163 3084 
Q 1697 3084 1428 2787 
Q 1159 2491 1159 1978 
L 1159 0 
L 581 0 
L 581 3500 
L 1159 3500 
L 1159 2956 
Q 1366 3272 1645 3428 
Q 1925 3584 2291 3584 
Q 2894 3584 3203 3211 
Q 3513 2838 3513 2113 
z
" id="DejaVuSans-6e" transform="scale(0.015625)"/>
      <path d="M 2906 1791 
Q 2906 2416 2648 2759 
Q 2391 3103 1925 3103 
Q 1463 3103 1205 2759 
Q 947 2416 947 1791 
Q 947 1169 1205 825 
Q 1463 481 1925 481 
Q 2391 481 2648 825 
Q 2906 1169 2906 1791 
z
M 3481 434 
Q 3481 -459 3084 -895 
Q 2688 -1331 1869 -1331 
Q 1566 -1331 1297 -1286 
Q 1028 -1241 775 -1147 
L 775 -588 
Q 1028 -725 1275 -790 
Q 1522 -856 1778 -856 
Q 2344 -856 2625 -561 
Q 2906 -266 2906 331 
L 2906 616 
Q 2728 306 2450 153 
Q 2172 0 1784 0 
Q 1141 0 747 490 
Q 353 981 353 1791 
Q 353 2603 747 3093 
Q 1141 3584 1784 3584 
Q 2172 3584 2450 3431 
Q 2728 3278 2906 2969 
L 2906 3500 
L 3481 3500 
L 3481 434 
z
" id="DejaVuSans-67" transform="scale(0.015625)"/>
      <path id="DejaVuSans-20" transform="scale(0.015625)"/>
      <path d="M 2906 2969 
L 2906 4863 
L 3481 4863 
L 3481 0 
L 2906 0 
L 2906 525 
Q 2725 213 2448 61 
Q 2172 -91 1784 -91 
Q 1150 -91 751 415 
Q 353 922 353 1747 
Q 353 2572 751 3078 
Q 1150 3584 1784 3584 
Q 2172 3584 2448 3432 
Q 2725 3281 2906 2969 
z
M 947 1747 
Q 947 1113 1208 752 
Q 1469 391 1925 391 
Q 2381 391 2643 752 
Q 2906 1113 2906 1747 
Q 2906 2381 2643 2742 
Q 2381 3103 1925 3103 
Q 1469 3103 1208 2742 
Q 947 2381 947 1747 
z
" id="DejaVuSans-64" transform="scale(0.015625)"/>
      <path d="M 1831 0 
L 50 4666 
L 709 4666 
L 2188 738 
L 3669 4666 
L 4325 4666 
L 2547 0 
L 1831 0 
z
" id="DejaVuSans-56" transform="scale(0.015625)"/>
      <path d="M 603 4863 
L 1178 4863 
L 1178 0 
L 603 0 
L 603 4863 
z
" id="DejaVuSans-6c" transform="scale(0.015625)"/>
      <path d="M 1172 4494 
L 1172 3500 
L 2356 3500 
L 2356 3053 
L 1172 3053 
L 1172 1153 
Q 1172 725 1289 603 
Q 1406 481 1766 481 
L 2356 481 
L 2356 0 
L 1766 0 
Q 1100 0 847 248 
Q 594 497 594 1153 
L 594 3053 
L 172 3053 
L 172 3500 
L 594 3500 
L 594 4494 
L 1172 4494 
z
" id="DejaVuSans-74" transform="scale(0.015625)"/>
     </defs>
     <use xlink:href="#DejaVuSans-54"/>
     <use x="46.333984" xlink:href="#DejaVuSans-72"/>
     <use x="87.447266" xlink:href="#DejaVuSans-61"/>
     <use x="148.726562" xlink:href="#DejaVuSans-69"/>
     <use x="176.509766" xlink:href="#DejaVuSans-6e"/>
     <use x="239.888672" xlink:href="#DejaVuSans-69"/>
     <use x="267.671875" xlink:href="#DejaVuSans-6e"/>
     <use x="331.050781" xlink:href="#DejaVuSans-67"/>
     <use x="394.527344" xlink:href="#DejaVuSans-20"/>
     <use x="426.314453" xlink:href="#DejaVuSans-61"/>
     <use x="487.59375" xlink:href="#DejaVuSans-6e"/>
     <use x="550.972656" xlink:href="#DejaVuSans-64"/>
     <use x="614.449219" xlink:href="#DejaVuSans-20"/>
     <use x="646.236328" xlink:href="#DejaVuSans-56"/>
     <use x="706.894531" xlink:href="#DejaVuSans-61"/>
     <use x="768.173828" xlink:href="#DejaVuSans-6c"/>
     <use x="795.957031" xlink:href="#DejaVuSans-69"/>
     <use x="823.740234" xlink:href="#DejaVuSans-64"/>
     <use x="887.216797" xlink:href="#DejaVuSans-61"/>
     <use x="948.496094" xlink:href="#DejaVuSans-74"/>
     <use x="987.705078" xlink:href="#DejaVuSans-69"/>
     <use x="1015.488281" xlink:href="#DejaVuSans-6f"/>
     <use x="1076.669922" xlink:href="#DejaVuSans-6e"/>
     <use x="1140.048828" xlink:href="#DejaVuSans-20"/>
     <use x="1171.835938" xlink:href="#DejaVuSans-41"/>
     <use x="1238.494141" xlink:href="#DejaVuSans-63"/>
     <use x="1293.474609" xlink:href="#DejaVuSans-63"/>
     <use x="1348.455078" xlink:href="#DejaVuSans-75"/>
     <use x="1411.833984" xlink:href="#DejaVuSans-72"/>
     <use x="1452.947266" xlink:href="#DejaVuSans-61"/>
     <use x="1514.226562" xlink:href="#DejaVuSans-63"/>
     <use x="1569.207031" xlink:href="#DejaVuSans-79"/>
    </g>
   </g>
   <g id="legend_1">
    <g id="patch_7">
     <path d="M 239.893438 302.584 
L 407.72 302.584 
Q 409.72 302.584 409.72 300.584 
L 409.72 257.549625 
Q 409.72 255.549625 407.72 255.549625 
L 239.893438 255.549625 
Q 237.893438 255.549625 237.893438 257.549625 
L 237.893438 300.584 
Q 237.893438 302.584 239.893438 302.584 
z
" style="fill:#ffffff;opacity:0.8;stroke:#cccccc;stroke-linejoin:miter;"/>
    </g>
    <g id="line2d_22">
     <path d="M 241.893438 263.648062 
L 261.893438 263.648062 
" style="fill:none;stroke:#1f77b4;stroke-linecap:square;stroke-width:1.5;"/>
    </g>
    <g id="line2d_23"/>
    <g id="text_22">
     <!-- Train Accuracy -->
     <g transform="translate(269.893438 267.148062)scale(0.1 -0.1)">
      <use xlink:href="#DejaVuSans-54"/>
      <use x="46.333984" xlink:href="#DejaVuSans-72"/>
      <use x="87.447266" xlink:href="#DejaVuSans-61"/>
      <use x="148.726562" xlink:href="#DejaVuSans-69"/>
      <use x="176.509766" xlink:href="#DejaVuSans-6e"/>
      <use x="239.888672" xlink:href="#DejaVuSans-20"/>
      <use x="271.675781" xlink:href="#DejaVuSans-41"/>
      <use x="338.333984" xlink:href="#DejaVuSans-63"/>
      <use x="393.314453" xlink:href="#DejaVuSans-63"/>
      <use x="448.294922" xlink:href="#DejaVuSans-75"/>
      <use x="511.673828" xlink:href="#DejaVuSans-72"/>
      <use x="552.787109" xlink:href="#DejaVuSans-61"/>
      <use x="614.066406" xlink:href="#DejaVuSans-63"/>
      <use x="669.046875" xlink:href="#DejaVuSans-79"/>
     </g>
    </g>
    <g id="line2d_24">
     <path d="M 241.893438 278.326188 
L 261.893438 278.326188 
" style="fill:none;stroke:#ff7f0e;stroke-linecap:square;stroke-width:1.5;"/>
    </g>
    <g id="line2d_25"/>
    <g id="text_23">
     <!-- Validation Accuracy -->
     <g transform="translate(269.893438 281.826188)scale(0.1 -0.1)">
      <use xlink:href="#DejaVuSans-56"/>
      <use x="60.658203" xlink:href="#DejaVuSans-61"/>
      <use x="121.9375" xlink:href="#DejaVuSans-6c"/>
      <use x="149.720703" xlink:href="#DejaVuSans-69"/>
      <use x="177.503906" xlink:href="#DejaVuSans-64"/>
      <use x="240.980469" xlink:href="#DejaVuSans-61"/>
      <use x="302.259766" xlink:href="#DejaVuSans-74"/>
      <use x="341.46875" xlink:href="#DejaVuSans-69"/>
      <use x="369.251953" xlink:href="#DejaVuSans-6f"/>
      <use x="430.433594" xlink:href="#DejaVuSans-6e"/>
      <use x="493.8125" xlink:href="#DejaVuSans-20"/>
      <use x="525.599609" xlink:href="#DejaVuSans-41"/>
      <use x="592.257812" xlink:href="#DejaVuSans-63"/>
      <use x="647.238281" xlink:href="#DejaVuSans-63"/>
      <use x="702.21875" xlink:href="#DejaVuSans-75"/>
      <use x="765.597656" xlink:href="#DejaVuSans-72"/>
      <use x="806.710938" xlink:href="#DejaVuSans-61"/>
      <use x="867.990234" xlink:href="#DejaVuSans-63"/>
      <use x="922.970703" xlink:href="#DejaVuSans-79"/>
     </g>
    </g>
    <g id="line2d_26">
     <path d="M 241.893438 293.004312 
L 261.893438 293.004312 
" style="fill:none;stroke:#2ca02c;stroke-linecap:square;stroke-width:1.5;"/>
    </g>
    <g id="line2d_27"/>
    <g id="text_24">
     <!-- Robust Validation Accuracy -->
     <g transform="translate(269.893438 296.504312)scale(0.1 -0.1)">
      <defs>
       <path d="M 2841 2188 
Q 3044 2119 3236 1894 
Q 3428 1669 3622 1275 
L 4263 0 
L 3584 0 
L 2988 1197 
Q 2756 1666 2539 1819 
Q 2322 1972 1947 1972 
L 1259 1972 
L 1259 0 
L 628 0 
L 628 4666 
L 2053 4666 
Q 2853 4666 3247 4331 
Q 3641 3997 3641 3322 
Q 3641 2881 3436 2590 
Q 3231 2300 2841 2188 
z
M 1259 4147 
L 1259 2491 
L 2053 2491 
Q 2509 2491 2742 2702 
Q 2975 2913 2975 3322 
Q 2975 3731 2742 3939 
Q 2509 4147 2053 4147 
L 1259 4147 
z
" id="DejaVuSans-52" transform="scale(0.015625)"/>
       <path d="M 3116 1747 
Q 3116 2381 2855 2742 
Q 2594 3103 2138 3103 
Q 1681 3103 1420 2742 
Q 1159 2381 1159 1747 
Q 1159 1113 1420 752 
Q 1681 391 2138 391 
Q 2594 391 2855 752 
Q 3116 1113 3116 1747 
z
M 1159 2969 
Q 1341 3281 1617 3432 
Q 1894 3584 2278 3584 
Q 2916 3584 3314 3078 
Q 3713 2572 3713 1747 
Q 3713 922 3314 415 
Q 2916 -91 2278 -91 
Q 1894 -91 1617 61 
Q 1341 213 1159 525 
L 1159 0 
L 581 0 
L 581 4863 
L 1159 4863 
L 1159 2969 
z
" id="DejaVuSans-62" transform="scale(0.015625)"/>
      </defs>
      <use xlink:href="#DejaVuSans-52"/>
      <use x="64.982422" xlink:href="#DejaVuSans-6f"/>
      <use x="126.164062" xlink:href="#DejaVuSans-62"/>
      <use x="189.640625" xlink:href="#DejaVuSans-75"/>
      <use x="253.019531" xlink:href="#DejaVuSans-73"/>
      <use x="305.119141" xlink:href="#DejaVuSans-74"/>
      <use x="344.328125" xlink:href="#DejaVuSans-20"/>
      <use x="376.115234" xlink:href="#DejaVuSans-56"/>
      <use x="436.773438" xlink:href="#DejaVuSans-61"/>
      <use x="498.052734" xlink:href="#DejaVuSans-6c"/>
      <use x="525.835938" xlink:href="#DejaVuSans-69"/>
      <use x="553.619141" xlink:href="#DejaVuSans-64"/>
      <use x="617.095703" xlink:href="#DejaVuSans-61"/>
      <use x="678.375" xlink:href="#DejaVuSans-74"/>
      <use x="717.583984" xlink:href="#DejaVuSans-69"/>
      <use x="745.367188" xlink:href="#DejaVuSans-6f"/>
      <use x="806.548828" xlink:href="#DejaVuSans-6e"/>
      <use x="869.927734" xlink:href="#DejaVuSans-20"/>
      <use x="901.714844" xlink:href="#DejaVuSans-41"/>
      <use x="968.373047" xlink:href="#DejaVuSans-63"/>
      <use x="1023.353516" xlink:href="#DejaVuSans-63"/>
      <use x="1078.333984" xlink:href="#DejaVuSans-75"/>
      <use x="1141.712891" xlink:href="#DejaVuSans-72"/>
      <use x="1182.826172" xlink:href="#DejaVuSans-61"/>
      <use x="1244.105469" xlink:href="#DejaVuSans-63"/>
      <use x="1299.085938" xlink:href="#DejaVuSans-79"/>
     </g>
    </g>
   </g>
  </g>
 </g>
 <defs>
  <clipPath id="p360774dcef">
   <rect height="266.112" width="357.12" x="57.6" y="41.472"/>
  </clipPath>
 </defs>
</svg>
