<?xml version="1.0" encoding="utf-8" standalone="no"?>
<!DOCTYPE svg PUBLIC "-//W3C//DTD SVG 1.1//EN"
  "http://www.w3.org/Graphics/SVG/1.1/DTD/svg11.dtd">
<svg height="345.6pt" version="1.1" viewBox="0 0 460.8 345.6" width="460.8pt" xmlns="http://www.w3.org/2000/svg" xmlns:xlink="http://www.w3.org/1999/xlink">
 <metadata>
  <rdf:RDF xmlns:cc="http://creativecommons.org/ns#" xmlns:dc="http://purl.org/dc/elements/1.1/" xmlns:rdf="http://www.w3.org/1999/02/22-rdf-syntax-ns#">
   <cc:Work>
    <dc:type rdf:resource="http://purl.org/dc/dcmitype/StillImage"/>
    <dc:date>2024-03-12T12:24:28.020288</dc:date>
    <dc:format>image/svg+xml</dc:format>
    <dc:creator>
     <cc:Agent>
      <dc:title>Matplotlib v3.4.3, https://matplotlib.org/</dc:title>
     </cc:Agent>
    </dc:creator>
   </cc:Work>
  </rdf:RDF>
 </metadata>
 <defs>
  <style type="text/css">*{stroke-linecap:butt;stroke-linejoin:round;}</style>
 </defs>
 <g id="figure_1">
  <g id="patch_1">
   <path d="M 0 345.6 
L 460.8 345.6 
L 460.8 0 
L 0 0 
z
" style="fill:#ffffff;"/>
  </g>
  <g id="axes_1">
   <g id="patch_2">
    <path d="M 57.6 307.584 
L 414.72 307.584 
L 414.72 41.472 
L 57.6 41.472 
z
" style="fill:#ffffff;"/>
   </g>
   <g id="matplotlib.axis_1">
    <g id="xtick_1">
     <g id="line2d_1">
      <defs>
       <path d="M 0 0 
L 0 3.5 
" id="mde702beb91" style="stroke:#000000;stroke-width:0.8;"/>
      </defs>
      <g>
       <use style="stroke:#000000;stroke-width:0.8;" x="73.832727" xlink:href="#mde702beb91" y="307.584"/>
      </g>
     </g>
     <g id="text_1">
      <!-- 1 -->
      <g transform="translate(70.651477 322.182437)scale(0.1 -0.1)">
       <defs>
        <path d="M 794 531 
L 1825 531 
L 1825 4091 
L 703 3866 
L 703 4441 
L 1819 4666 
L 2450 4666 
L 2450 531 
L 3481 531 
L 3481 0 
L 794 0 
L 794 531 
z
" id="DejaVuSans-31" transform="scale(0.015625)"/>
       </defs>
       <use xlink:href="#DejaVuSans-31"/>
      </g>
     </g>
    </g>
    <g id="xtick_2">
     <g id="line2d_2">
      <g>
       <use style="stroke:#000000;stroke-width:0.8;" x="109.423199" xlink:href="#mde702beb91" y="307.584"/>
      </g>
     </g>
     <g id="text_2">
      <!-- 42 -->
      <g transform="translate(103.060699 322.182437)scale(0.1 -0.1)">
       <defs>
        <path d="M 2419 4116 
L 825 1625 
L 2419 1625 
L 2419 4116 
z
M 2253 4666 
L 3047 4666 
L 3047 1625 
L 3713 1625 
L 3713 1100 
L 3047 1100 
L 3047 0 
L 2419 0 
L 2419 1100 
L 313 1100 
L 313 1709 
L 2253 4666 
z
" id="DejaVuSans-34" transform="scale(0.015625)"/>
        <path d="M 1228 531 
L 3431 531 
L 3431 0 
L 469 0 
L 469 531 
Q 828 903 1448 1529 
Q 2069 2156 2228 2338 
Q 2531 2678 2651 2914 
Q 2772 3150 2772 3378 
Q 2772 3750 2511 3984 
Q 2250 4219 1831 4219 
Q 1534 4219 1204 4116 
Q 875 4013 500 3803 
L 500 4441 
Q 881 4594 1212 4672 
Q 1544 4750 1819 4750 
Q 2544 4750 2975 4387 
Q 3406 4025 3406 3419 
Q 3406 3131 3298 2873 
Q 3191 2616 2906 2266 
Q 2828 2175 2409 1742 
Q 1991 1309 1228 531 
z
" id="DejaVuSans-32" transform="scale(0.015625)"/>
       </defs>
       <use xlink:href="#DejaVuSans-34"/>
       <use x="63.623047" xlink:href="#DejaVuSans-32"/>
      </g>
     </g>
    </g>
    <g id="xtick_3">
     <g id="line2d_3">
      <g>
       <use style="stroke:#000000;stroke-width:0.8;" x="145.881731" xlink:href="#mde702beb91" y="307.584"/>
      </g>
     </g>
     <g id="text_3">
      <!-- 84 -->
      <g transform="translate(139.519231 322.182437)scale(0.1 -0.1)">
       <defs>
        <path d="M 2034 2216 
Q 1584 2216 1326 1975 
Q 1069 1734 1069 1313 
Q 1069 891 1326 650 
Q 1584 409 2034 409 
Q 2484 409 2743 651 
Q 3003 894 3003 1313 
Q 3003 1734 2745 1975 
Q 2488 2216 2034 2216 
z
M 1403 2484 
Q 997 2584 770 2862 
Q 544 3141 544 3541 
Q 544 4100 942 4425 
Q 1341 4750 2034 4750 
Q 2731 4750 3128 4425 
Q 3525 4100 3525 3541 
Q 3525 3141 3298 2862 
Q 3072 2584 2669 2484 
Q 3125 2378 3379 2068 
Q 3634 1759 3634 1313 
Q 3634 634 3220 271 
Q 2806 -91 2034 -91 
Q 1263 -91 848 271 
Q 434 634 434 1313 
Q 434 1759 690 2068 
Q 947 2378 1403 2484 
z
M 1172 3481 
Q 1172 3119 1398 2916 
Q 1625 2713 2034 2713 
Q 2441 2713 2670 2916 
Q 2900 3119 2900 3481 
Q 2900 3844 2670 4047 
Q 2441 4250 2034 4250 
Q 1625 4250 1398 4047 
Q 1172 3844 1172 3481 
z
" id="DejaVuSans-38" transform="scale(0.015625)"/>
       </defs>
       <use xlink:href="#DejaVuSans-38"/>
       <use x="63.623047" xlink:href="#DejaVuSans-34"/>
      </g>
     </g>
    </g>
    <g id="xtick_4">
     <g id="line2d_4">
      <g>
       <use style="stroke:#000000;stroke-width:0.8;" x="181.472202" xlink:href="#mde702beb91" y="307.584"/>
      </g>
     </g>
     <g id="text_4">
      <!-- 125 -->
      <g transform="translate(171.928452 322.182437)scale(0.1 -0.1)">
       <defs>
        <path d="M 691 4666 
L 3169 4666 
L 3169 4134 
L 1269 4134 
L 1269 2991 
Q 1406 3038 1543 3061 
Q 1681 3084 1819 3084 
Q 2600 3084 3056 2656 
Q 3513 2228 3513 1497 
Q 3513 744 3044 326 
Q 2575 -91 1722 -91 
Q 1428 -91 1123 -41 
Q 819 9 494 109 
L 494 744 
Q 775 591 1075 516 
Q 1375 441 1709 441 
Q 2250 441 2565 725 
Q 2881 1009 2881 1497 
Q 2881 1984 2565 2268 
Q 2250 2553 1709 2553 
Q 1456 2553 1204 2497 
Q 953 2441 691 2322 
L 691 4666 
z
" id="DejaVuSans-35" transform="scale(0.015625)"/>
       </defs>
       <use xlink:href="#DejaVuSans-31"/>
       <use x="63.623047" xlink:href="#DejaVuSans-32"/>
       <use x="127.246094" xlink:href="#DejaVuSans-35"/>
      </g>
     </g>
    </g>
    <g id="xtick_5">
     <g id="line2d_5">
      <g>
       <use style="stroke:#000000;stroke-width:0.8;" x="217.930734" xlink:href="#mde702beb91" y="307.584"/>
      </g>
     </g>
     <g id="text_5">
      <!-- 167 -->
      <g transform="translate(208.386984 322.182437)scale(0.1 -0.1)">
       <defs>
        <path d="M 2113 2584 
Q 1688 2584 1439 2293 
Q 1191 2003 1191 1497 
Q 1191 994 1439 701 
Q 1688 409 2113 409 
Q 2538 409 2786 701 
Q 3034 994 3034 1497 
Q 3034 2003 2786 2293 
Q 2538 2584 2113 2584 
z
M 3366 4563 
L 3366 3988 
Q 3128 4100 2886 4159 
Q 2644 4219 2406 4219 
Q 1781 4219 1451 3797 
Q 1122 3375 1075 2522 
Q 1259 2794 1537 2939 
Q 1816 3084 2150 3084 
Q 2853 3084 3261 2657 
Q 3669 2231 3669 1497 
Q 3669 778 3244 343 
Q 2819 -91 2113 -91 
Q 1303 -91 875 529 
Q 447 1150 447 2328 
Q 447 3434 972 4092 
Q 1497 4750 2381 4750 
Q 2619 4750 2861 4703 
Q 3103 4656 3366 4563 
z
" id="DejaVuSans-36" transform="scale(0.015625)"/>
        <path d="M 525 4666 
L 3525 4666 
L 3525 4397 
L 1831 0 
L 1172 0 
L 2766 4134 
L 525 4134 
L 525 4666 
z
" id="DejaVuSans-37" transform="scale(0.015625)"/>
       </defs>
       <use xlink:href="#DejaVuSans-31"/>
       <use x="63.623047" xlink:href="#DejaVuSans-36"/>
       <use x="127.246094" xlink:href="#DejaVuSans-37"/>
      </g>
     </g>
    </g>
    <g id="xtick_6">
     <g id="line2d_6">
      <g>
       <use style="stroke:#000000;stroke-width:0.8;" x="253.521206" xlink:href="#mde702beb91" y="307.584"/>
      </g>
     </g>
     <g id="text_6">
      <!-- 208 -->
      <g transform="translate(243.977456 322.182437)scale(0.1 -0.1)">
       <defs>
        <path d="M 2034 4250 
Q 1547 4250 1301 3770 
Q 1056 3291 1056 2328 
Q 1056 1369 1301 889 
Q 1547 409 2034 409 
Q 2525 409 2770 889 
Q 3016 1369 3016 2328 
Q 3016 3291 2770 3770 
Q 2525 4250 2034 4250 
z
M 2034 4750 
Q 2819 4750 3233 4129 
Q 3647 3509 3647 2328 
Q 3647 1150 3233 529 
Q 2819 -91 2034 -91 
Q 1250 -91 836 529 
Q 422 1150 422 2328 
Q 422 3509 836 4129 
Q 1250 4750 2034 4750 
z
" id="DejaVuSans-30" transform="scale(0.015625)"/>
       </defs>
       <use xlink:href="#DejaVuSans-32"/>
       <use x="63.623047" xlink:href="#DejaVuSans-30"/>
       <use x="127.246094" xlink:href="#DejaVuSans-38"/>
      </g>
     </g>
    </g>
    <g id="xtick_7">
     <g id="line2d_7">
      <g>
       <use style="stroke:#000000;stroke-width:0.8;" x="289.979737" xlink:href="#mde702beb91" y="307.584"/>
      </g>
     </g>
     <g id="text_7">
      <!-- 250 -->
      <g transform="translate(280.435987 322.182437)scale(0.1 -0.1)">
       <use xlink:href="#DejaVuSans-32"/>
       <use x="63.623047" xlink:href="#DejaVuSans-35"/>
       <use x="127.246094" xlink:href="#DejaVuSans-30"/>
      </g>
     </g>
    </g>
    <g id="xtick_8">
     <g id="line2d_8">
      <g>
       <use style="stroke:#000000;stroke-width:0.8;" x="325.570209" xlink:href="#mde702beb91" y="307.584"/>
      </g>
     </g>
     <g id="text_8">
      <!-- 291 -->
      <g transform="translate(316.026459 322.182437)scale(0.1 -0.1)">
       <defs>
        <path d="M 703 97 
L 703 672 
Q 941 559 1184 500 
Q 1428 441 1663 441 
Q 2288 441 2617 861 
Q 2947 1281 2994 2138 
Q 2813 1869 2534 1725 
Q 2256 1581 1919 1581 
Q 1219 1581 811 2004 
Q 403 2428 403 3163 
Q 403 3881 828 4315 
Q 1253 4750 1959 4750 
Q 2769 4750 3195 4129 
Q 3622 3509 3622 2328 
Q 3622 1225 3098 567 
Q 2575 -91 1691 -91 
Q 1453 -91 1209 -44 
Q 966 3 703 97 
z
M 1959 2075 
Q 2384 2075 2632 2365 
Q 2881 2656 2881 3163 
Q 2881 3666 2632 3958 
Q 2384 4250 1959 4250 
Q 1534 4250 1286 3958 
Q 1038 3666 1038 3163 
Q 1038 2656 1286 2365 
Q 1534 2075 1959 2075 
z
" id="DejaVuSans-39" transform="scale(0.015625)"/>
       </defs>
       <use xlink:href="#DejaVuSans-32"/>
       <use x="63.623047" xlink:href="#DejaVuSans-39"/>
       <use x="127.246094" xlink:href="#DejaVuSans-31"/>
      </g>
     </g>
    </g>
    <g id="xtick_9">
     <g id="line2d_9">
      <g>
       <use style="stroke:#000000;stroke-width:0.8;" x="362.028741" xlink:href="#mde702beb91" y="307.584"/>
      </g>
     </g>
     <g id="text_9">
      <!-- 333 -->
      <g transform="translate(352.484991 322.182437)scale(0.1 -0.1)">
       <defs>
        <path d="M 2597 2516 
Q 3050 2419 3304 2112 
Q 3559 1806 3559 1356 
Q 3559 666 3084 287 
Q 2609 -91 1734 -91 
Q 1441 -91 1130 -33 
Q 819 25 488 141 
L 488 750 
Q 750 597 1062 519 
Q 1375 441 1716 441 
Q 2309 441 2620 675 
Q 2931 909 2931 1356 
Q 2931 1769 2642 2001 
Q 2353 2234 1838 2234 
L 1294 2234 
L 1294 2753 
L 1863 2753 
Q 2328 2753 2575 2939 
Q 2822 3125 2822 3475 
Q 2822 3834 2567 4026 
Q 2313 4219 1838 4219 
Q 1578 4219 1281 4162 
Q 984 4106 628 3988 
L 628 4550 
Q 988 4650 1302 4700 
Q 1616 4750 1894 4750 
Q 2613 4750 3031 4423 
Q 3450 4097 3450 3541 
Q 3450 3153 3228 2886 
Q 3006 2619 2597 2516 
z
" id="DejaVuSans-33" transform="scale(0.015625)"/>
       </defs>
       <use xlink:href="#DejaVuSans-33"/>
       <use x="63.623047" xlink:href="#DejaVuSans-33"/>
       <use x="127.246094" xlink:href="#DejaVuSans-33"/>
      </g>
     </g>
    </g>
    <g id="xtick_10">
     <g id="line2d_10">
      <g>
       <use style="stroke:#000000;stroke-width:0.8;" x="398.487273" xlink:href="#mde702beb91" y="307.584"/>
      </g>
     </g>
     <g id="text_10">
      <!-- 375 -->
      <g transform="translate(388.943523 322.182437)scale(0.1 -0.1)">
       <use xlink:href="#DejaVuSans-33"/>
       <use x="63.623047" xlink:href="#DejaVuSans-37"/>
       <use x="127.246094" xlink:href="#DejaVuSans-35"/>
      </g>
     </g>
    </g>
    <g id="text_11">
     <!-- Epochs -->
     <g transform="translate(218.244375 335.860562)scale(0.1 -0.1)">
      <defs>
       <path d="M 628 4666 
L 3578 4666 
L 3578 4134 
L 1259 4134 
L 1259 2753 
L 3481 2753 
L 3481 2222 
L 1259 2222 
L 1259 531 
L 3634 531 
L 3634 0 
L 628 0 
L 628 4666 
z
" id="DejaVuSans-45" transform="scale(0.015625)"/>
       <path d="M 1159 525 
L 1159 -1331 
L 581 -1331 
L 581 3500 
L 1159 3500 
L 1159 2969 
Q 1341 3281 1617 3432 
Q 1894 3584 2278 3584 
Q 2916 3584 3314 3078 
Q 3713 2572 3713 1747 
Q 3713 922 3314 415 
Q 2916 -91 2278 -91 
Q 1894 -91 1617 61 
Q 1341 213 1159 525 
z
M 3116 1747 
Q 3116 2381 2855 2742 
Q 2594 3103 2138 3103 
Q 1681 3103 1420 2742 
Q 1159 2381 1159 1747 
Q 1159 1113 1420 752 
Q 1681 391 2138 391 
Q 2594 391 2855 752 
Q 3116 1113 3116 1747 
z
" id="DejaVuSans-70" transform="scale(0.015625)"/>
       <path d="M 1959 3097 
Q 1497 3097 1228 2736 
Q 959 2375 959 1747 
Q 959 1119 1226 758 
Q 1494 397 1959 397 
Q 2419 397 2687 759 
Q 2956 1122 2956 1747 
Q 2956 2369 2687 2733 
Q 2419 3097 1959 3097 
z
M 1959 3584 
Q 2709 3584 3137 3096 
Q 3566 2609 3566 1747 
Q 3566 888 3137 398 
Q 2709 -91 1959 -91 
Q 1206 -91 779 398 
Q 353 888 353 1747 
Q 353 2609 779 3096 
Q 1206 3584 1959 3584 
z
" id="DejaVuSans-6f" transform="scale(0.015625)"/>
       <path d="M 3122 3366 
L 3122 2828 
Q 2878 2963 2633 3030 
Q 2388 3097 2138 3097 
Q 1578 3097 1268 2742 
Q 959 2388 959 1747 
Q 959 1106 1268 751 
Q 1578 397 2138 397 
Q 2388 397 2633 464 
Q 2878 531 3122 666 
L 3122 134 
Q 2881 22 2623 -34 
Q 2366 -91 2075 -91 
Q 1284 -91 818 406 
Q 353 903 353 1747 
Q 353 2603 823 3093 
Q 1294 3584 2113 3584 
Q 2378 3584 2631 3529 
Q 2884 3475 3122 3366 
z
" id="DejaVuSans-63" transform="scale(0.015625)"/>
       <path d="M 3513 2113 
L 3513 0 
L 2938 0 
L 2938 2094 
Q 2938 2591 2744 2837 
Q 2550 3084 2163 3084 
Q 1697 3084 1428 2787 
Q 1159 2491 1159 1978 
L 1159 0 
L 581 0 
L 581 4863 
L 1159 4863 
L 1159 2956 
Q 1366 3272 1645 3428 
Q 1925 3584 2291 3584 
Q 2894 3584 3203 3211 
Q 3513 2838 3513 2113 
z
" id="DejaVuSans-68" transform="scale(0.015625)"/>
       <path d="M 2834 3397 
L 2834 2853 
Q 2591 2978 2328 3040 
Q 2066 3103 1784 3103 
Q 1356 3103 1142 2972 
Q 928 2841 928 2578 
Q 928 2378 1081 2264 
Q 1234 2150 1697 2047 
L 1894 2003 
Q 2506 1872 2764 1633 
Q 3022 1394 3022 966 
Q 3022 478 2636 193 
Q 2250 -91 1575 -91 
Q 1294 -91 989 -36 
Q 684 19 347 128 
L 347 722 
Q 666 556 975 473 
Q 1284 391 1588 391 
Q 1994 391 2212 530 
Q 2431 669 2431 922 
Q 2431 1156 2273 1281 
Q 2116 1406 1581 1522 
L 1381 1569 
Q 847 1681 609 1914 
Q 372 2147 372 2553 
Q 372 3047 722 3315 
Q 1072 3584 1716 3584 
Q 2034 3584 2315 3537 
Q 2597 3491 2834 3397 
z
" id="DejaVuSans-73" transform="scale(0.015625)"/>
      </defs>
      <use xlink:href="#DejaVuSans-45"/>
      <use x="63.183594" xlink:href="#DejaVuSans-70"/>
      <use x="126.660156" xlink:href="#DejaVuSans-6f"/>
      <use x="187.841797" xlink:href="#DejaVuSans-63"/>
      <use x="242.822266" xlink:href="#DejaVuSans-68"/>
      <use x="306.201172" xlink:href="#DejaVuSans-73"/>
     </g>
    </g>
   </g>
   <g id="matplotlib.axis_2">
    <g id="ytick_1">
     <g id="line2d_11">
      <defs>
       <path d="M 0 0 
L -3.5 0 
" id="m3b088f2f08" style="stroke:#000000;stroke-width:0.8;"/>
      </defs>
      <g>
       <use style="stroke:#000000;stroke-width:0.8;" x="57.6" xlink:href="#m3b088f2f08" y="303.184926"/>
      </g>
     </g>
     <g id="text_12">
      <!-- 0 -->
      <g transform="translate(44.2375 306.984145)scale(0.1 -0.1)">
       <use xlink:href="#DejaVuSans-30"/>
      </g>
     </g>
    </g>
    <g id="ytick_2">
     <g id="line2d_12">
      <g>
       <use style="stroke:#000000;stroke-width:0.8;" x="57.6" xlink:href="#m3b088f2f08" y="270.872055"/>
      </g>
     </g>
     <g id="text_13">
      <!-- 10 -->
      <g transform="translate(37.875 274.671274)scale(0.1 -0.1)">
       <use xlink:href="#DejaVuSans-31"/>
       <use x="63.623047" xlink:href="#DejaVuSans-30"/>
      </g>
     </g>
    </g>
    <g id="ytick_3">
     <g id="line2d_13">
      <g>
       <use style="stroke:#000000;stroke-width:0.8;" x="57.6" xlink:href="#m3b088f2f08" y="238.559184"/>
      </g>
     </g>
     <g id="text_14">
      <!-- 20 -->
      <g transform="translate(37.875 242.358403)scale(0.1 -0.1)">
       <use xlink:href="#DejaVuSans-32"/>
       <use x="63.623047" xlink:href="#DejaVuSans-30"/>
      </g>
     </g>
    </g>
    <g id="ytick_4">
     <g id="line2d_14">
      <g>
       <use style="stroke:#000000;stroke-width:0.8;" x="57.6" xlink:href="#m3b088f2f08" y="206.246314"/>
      </g>
     </g>
     <g id="text_15">
      <!-- 30 -->
      <g transform="translate(37.875 210.045533)scale(0.1 -0.1)">
       <use xlink:href="#DejaVuSans-33"/>
       <use x="63.623047" xlink:href="#DejaVuSans-30"/>
      </g>
     </g>
    </g>
    <g id="ytick_5">
     <g id="line2d_15">
      <g>
       <use style="stroke:#000000;stroke-width:0.8;" x="57.6" xlink:href="#m3b088f2f08" y="173.933443"/>
      </g>
     </g>
     <g id="text_16">
      <!-- 40 -->
      <g transform="translate(37.875 177.732662)scale(0.1 -0.1)">
       <use xlink:href="#DejaVuSans-34"/>
       <use x="63.623047" xlink:href="#DejaVuSans-30"/>
      </g>
     </g>
    </g>
    <g id="ytick_6">
     <g id="line2d_16">
      <g>
       <use style="stroke:#000000;stroke-width:0.8;" x="57.6" xlink:href="#m3b088f2f08" y="141.620573"/>
      </g>
     </g>
     <g id="text_17">
      <!-- 50 -->
      <g transform="translate(37.875 145.419791)scale(0.1 -0.1)">
       <use xlink:href="#DejaVuSans-35"/>
       <use x="63.623047" xlink:href="#DejaVuSans-30"/>
      </g>
     </g>
    </g>
    <g id="ytick_7">
     <g id="line2d_17">
      <g>
       <use style="stroke:#000000;stroke-width:0.8;" x="57.6" xlink:href="#m3b088f2f08" y="109.307702"/>
      </g>
     </g>
     <g id="text_18">
      <!-- 60 -->
      <g transform="translate(37.875 113.106921)scale(0.1 -0.1)">
       <use xlink:href="#DejaVuSans-36"/>
       <use x="63.623047" xlink:href="#DejaVuSans-30"/>
      </g>
     </g>
    </g>
    <g id="ytick_8">
     <g id="line2d_18">
      <g>
       <use style="stroke:#000000;stroke-width:0.8;" x="57.6" xlink:href="#m3b088f2f08" y="76.994831"/>
      </g>
     </g>
     <g id="text_19">
      <!-- 70 -->
      <g transform="translate(37.875 80.79405)scale(0.1 -0.1)">
       <use xlink:href="#DejaVuSans-37"/>
       <use x="63.623047" xlink:href="#DejaVuSans-30"/>
      </g>
     </g>
    </g>
    <g id="ytick_9">
     <g id="line2d_19">
      <g>
       <use style="stroke:#000000;stroke-width:0.8;" x="57.6" xlink:href="#m3b088f2f08" y="44.681961"/>
      </g>
     </g>
     <g id="text_20">
      <!-- 80 -->
      <g transform="translate(37.875 48.481179)scale(0.1 -0.1)">
       <use xlink:href="#DejaVuSans-38"/>
       <use x="63.623047" xlink:href="#DejaVuSans-30"/>
      </g>
     </g>
    </g>
    <g id="text_21">
     <!-- Accuracy -->
     <g transform="translate(31.795312 197.356125)rotate(-90)scale(0.1 -0.1)">
      <defs>
       <path d="M 2188 4044 
L 1331 1722 
L 3047 1722 
L 2188 4044 
z
M 1831 4666 
L 2547 4666 
L 4325 0 
L 3669 0 
L 3244 1197 
L 1141 1197 
L 716 0 
L 50 0 
L 1831 4666 
z
" id="DejaVuSans-41" transform="scale(0.015625)"/>
       <path d="M 544 1381 
L 544 3500 
L 1119 3500 
L 1119 1403 
Q 1119 906 1312 657 
Q 1506 409 1894 409 
Q 2359 409 2629 706 
Q 2900 1003 2900 1516 
L 2900 3500 
L 3475 3500 
L 3475 0 
L 2900 0 
L 2900 538 
Q 2691 219 2414 64 
Q 2138 -91 1772 -91 
Q 1169 -91 856 284 
Q 544 659 544 1381 
z
M 1991 3584 
L 1991 3584 
z
" id="DejaVuSans-75" transform="scale(0.015625)"/>
       <path d="M 2631 2963 
Q 2534 3019 2420 3045 
Q 2306 3072 2169 3072 
Q 1681 3072 1420 2755 
Q 1159 2438 1159 1844 
L 1159 0 
L 581 0 
L 581 3500 
L 1159 3500 
L 1159 2956 
Q 1341 3275 1631 3429 
Q 1922 3584 2338 3584 
Q 2397 3584 2469 3576 
Q 2541 3569 2628 3553 
L 2631 2963 
z
" id="DejaVuSans-72" transform="scale(0.015625)"/>
       <path d="M 2194 1759 
Q 1497 1759 1228 1600 
Q 959 1441 959 1056 
Q 959 750 1161 570 
Q 1363 391 1709 391 
Q 2188 391 2477 730 
Q 2766 1069 2766 1631 
L 2766 1759 
L 2194 1759 
z
M 3341 1997 
L 3341 0 
L 2766 0 
L 2766 531 
Q 2569 213 2275 61 
Q 1981 -91 1556 -91 
Q 1019 -91 701 211 
Q 384 513 384 1019 
Q 384 1609 779 1909 
Q 1175 2209 1959 2209 
L 2766 2209 
L 2766 2266 
Q 2766 2663 2505 2880 
Q 2244 3097 1772 3097 
Q 1472 3097 1187 3025 
Q 903 2953 641 2809 
L 641 3341 
Q 956 3463 1253 3523 
Q 1550 3584 1831 3584 
Q 2591 3584 2966 3190 
Q 3341 2797 3341 1997 
z
" id="DejaVuSans-61" transform="scale(0.015625)"/>
       <path d="M 2059 -325 
Q 1816 -950 1584 -1140 
Q 1353 -1331 966 -1331 
L 506 -1331 
L 506 -850 
L 844 -850 
Q 1081 -850 1212 -737 
Q 1344 -625 1503 -206 
L 1606 56 
L 191 3500 
L 800 3500 
L 1894 763 
L 2988 3500 
L 3597 3500 
L 2059 -325 
z
" id="DejaVuSans-79" transform="scale(0.015625)"/>
      </defs>
      <use xlink:href="#DejaVuSans-41"/>
      <use x="66.658203" xlink:href="#DejaVuSans-63"/>
      <use x="121.638672" xlink:href="#DejaVuSans-63"/>
      <use x="176.619141" xlink:href="#DejaVuSans-75"/>
      <use x="239.998047" xlink:href="#DejaVuSans-72"/>
      <use x="281.111328" xlink:href="#DejaVuSans-61"/>
      <use x="342.390625" xlink:href="#DejaVuSans-63"/>
      <use x="397.371094" xlink:href="#DejaVuSans-79"/>
     </g>
    </g>
   </g>
   <g id="line2d_20">
    <path clip-path="url(#p73abf5d9c6)" d="M 73.832727 295.488 
L 74.700788 291.397191 
L 75.568848 288.859661 
L 76.436908 285.520449 
L 77.304968 284.620212 
L 78.173029 284.699702 
L 79.041089 281.436102 
L 79.909149 282.119196 
L 80.77721 278.0174 
L 81.64527 278.21774 
L 82.51333 274.042917 
L 83.38139 276.51162 
L 84.249451 270.370236 
L 85.117511 267.578404 
L 85.985571 268.594967 
L 86.853632 261.744639 
L 87.721692 259.730577 
L 88.589752 261.165269 
L 89.457812 257.529101 
L 91.193933 256.779443 
L 92.061993 247.483999 
L 92.930053 248.205546 
L 93.798114 246.391824 
L 94.666174 251.228092 
L 95.534234 269.066735 
L 96.402295 263.976489 
L 97.270355 264.013002 
L 98.138415 257.421176 
L 99.006475 254.343052 
L 99.874536 257.892944 
L 100.742596 253.444755 
L 101.610656 251.45202 
L 102.478717 253.827985 
L 105.082897 245.922318 
L 105.950958 247.854628 
L 106.819018 243.589329 
L 107.687078 241.943311 
L 108.555139 236.469511 
L 110.291259 240.370967 
L 111.159319 233.173598 
L 112.02738 240.959061 
L 112.89544 232.361576 
L 113.7635 232.969058 
L 114.631561 228.994575 
L 115.499621 226.502283 
L 116.367681 225.347421 
L 117.235741 230.351715 
L 118.103802 223.430298 
L 118.971862 226.687436 
L 119.839922 219.91692 
L 120.707982 222.913293 
L 121.576043 217.745495 
L 122.444103 219.71658 
L 123.312163 218.426004 
L 124.180224 213.385196 
L 125.048284 213.073054 
L 125.916344 213.040741 
L 126.784404 211.750165 
L 127.652465 206.614681 
L 128.520525 208.019321 
L 129.388585 201.248482 
L 130.256646 206.629868 
L 131.124706 201.371271 
L 131.992766 204.40448 
L 132.860826 205.66242 
L 133.728887 205.309241 
L 134.596947 195.716519 
L 135.465007 198.797228 
L 136.333068 205.432029 
L 137.201128 201.976814 
L 138.069188 201.334757 
L 138.937248 231.437428 
L 139.805309 230.827684 
L 140.673369 224.987779 
L 141.541429 220.935745 
L 142.40949 223.227697 
L 143.27755 221.562615 
L 144.14561 225.410108 
L 145.01367 224.822014 
L 145.881731 220.662055 
L 146.749791 221.791067 
L 147.617851 220.399351 
L 148.485912 220.563177 
L 149.353972 218.568181 
L 150.222032 215.371469 
L 151.090092 220.190287 
L 151.958153 211.955029 
L 152.826213 213.855025 
L 153.694273 220.993908 
L 154.562333 216.971925 
L 155.430394 219.880083 
L 156.298454 213.376795 
L 157.166514 213.936777 
L 158.034575 211.530438 
L 158.902635 206.843133 
L 159.770695 212.040981 
L 160.638755 215.588934 
L 161.506816 210.270236 
L 162.374876 223.697526 
L 163.242936 213.105367 
L 164.110997 212.611949 
L 164.979057 202.125453 
L 166.715177 211.698464 
L 167.583238 209.496989 
L 168.451298 208.051634 
L 169.319358 217.118625 
L 171.055479 208.792568 
L 171.923539 210.746527 
L 172.791599 214.979513 
L 173.65966 205.828508 
L 174.52772 199.005969 
L 175.39578 201.914127 
L 176.263841 201.29372 
L 177.131901 202.190079 
L 177.999961 204.053239 
L 178.868021 193.118564 
L 179.736082 199.260271 
L 180.604142 196.239987 
L 181.472202 203.846437 
L 182.340263 199.286121 
L 183.208323 190.059828 
L 184.076383 202.922289 
L 184.944443 194.38329 
L 185.812504 207.579866 
L 186.680564 201.356407 
L 187.548624 186.641126 
L 188.416684 196.61934 
L 189.284745 195.955634 
L 190.152805 196.080685 
L 191.020865 188.273895 
L 191.888926 199.5834 
L 192.756986 199.447686 
L 193.625046 191.423431 
L 194.493106 194.680568 
L 195.361167 196.384426 
L 196.229227 191.634434 
L 197.097287 189.307907 
L 197.965348 182.476966 
L 198.833408 189.531835 
L 199.701468 189.570611 
L 200.569528 186.30281 
L 201.437589 176.658388 
L 203.173709 192.690095 
L 204.04177 183.545553 
L 204.90983 184.146572 
L 205.77789 174.27596 
L 206.64595 184.945669 
L 207.514011 177.862688 
L 208.382071 182.746132 
L 209.250131 183.090911 
L 210.118192 179.458944 
L 210.986252 180.521068 
L 211.854312 184.928544 
L 212.722372 180.60702 
L 213.590433 169.920185 
L 214.458493 167.684134 
L 215.326553 183.506777 
L 216.194614 180.006001 
L 217.062674 181.08105 
L 217.930734 171.008159 
L 218.798794 180.195678 
L 220.534915 169.691733 
L 221.402975 182.642731 
L 222.271035 176.337521 
L 223.139096 179.000101 
L 224.007156 177.785137 
L 224.875216 177.698862 
L 225.743277 211.237683 
L 226.611337 204.958 
L 227.479397 210.888704 
L 228.347457 207.807995 
L 229.215518 215.713985 
L 230.083578 208.488827 
L 230.951638 208.529864 
L 231.819699 213.52091 
L 233.555819 202.926813 
L 234.423879 209.186785 
L 235.29194 201.13668 
L 236.16 207.864219 
L 237.02806 207.110037 
L 237.896121 191.278992 
L 238.764181 211.860029 
L 239.632241 202.956864 
L 240.500301 203.516846 
L 241.368362 203.364006 
L 242.236422 209.520577 
L 243.104482 206.026586 
L 243.972543 208.193811 
L 244.840603 205.578407 
L 245.708663 210.401749 
L 246.576723 197.476601 
L 247.444784 203.956301 
L 248.312844 207.812519 
L 250.048965 197.304373 
L 250.917025 203.32103 
L 251.785085 201.36707 
L 252.653145 202.526133 
L 253.521206 196.726942 
L 254.389266 201.56741 
L 255.257326 200.313671 
L 256.125386 204.051301 
L 256.993447 196.033185 
L 257.861507 193.737032 
L 258.729567 212.525674 
L 259.597628 198.265035 
L 260.465688 198.652789 
L 261.333748 196.853932 
L 262.201808 197.454951 
L 263.069869 195.891008 
L 263.937929 200.160831 
L 264.805989 191.173329 
L 265.67405 201.306645 
L 266.54211 193.648495 
L 267.41017 200.766051 
L 268.27823 196.606415 
L 269.146291 206.61048 
L 270.014351 194.098936 
L 270.882411 206.987248 
L 271.750472 189.650423 
L 272.618532 192.308803 
L 273.486592 200.158569 
L 274.354652 200.548585 
L 275.222713 193.224227 
L 276.090773 200.281358 
L 276.958833 188.749864 
L 277.826894 198.209134 
L 278.694954 195.986008 
L 279.563014 189.169931 
L 280.431074 194.098936 
L 281.299135 190.649861 
L 282.167195 197.741566 
L 283.035255 203.053802 
L 283.903316 188.554048 
L 284.771376 203.124891 
L 285.639436 190.016528 
L 286.507496 199.572737 
L 287.375557 190.47117 
L 288.243617 195.621842 
L 289.111677 192.769585 
L 289.979737 196.490089 
L 290.847798 203.006302 
L 291.715858 198.387824 
L 292.583918 184.631265 
L 293.451979 186.113134 
L 294.320039 186.746466 
L 295.188099 194.402677 
L 296.056159 185.057795 
L 296.92422 194.984309 
L 297.79228 185.800991 
L 298.66034 185.113696 
L 299.528401 183.052135 
L 300.396461 189.820712 
L 301.264521 200.753126 
L 302.132581 186.154171 
L 303.000642 194.249514 
L 303.868702 195.955634 
L 304.736762 186.604289 
L 305.604823 189.911188 
L 306.472883 187.526498 
L 307.340943 182.446915 
L 308.209003 174.207133 
L 309.077064 175.604988 
L 309.945124 190.811425 
L 310.813184 188.943741 
L 311.681245 191.79826 
L 312.549305 184.822881 
L 313.417365 184.335926 
L 314.285425 184.508476 
L 315.153486 180.605082 
L 316.021546 187.924916 
L 316.889606 180.925948 
L 317.757667 187.177519 
L 318.625727 185.889205 
L 319.493787 185.940906 
L 320.361847 185.07072 
L 321.229908 194.633068 
L 322.097968 177.782875 
L 322.966028 173.207373 
L 323.834088 189.301444 
L 324.702149 185.484325 
L 325.570209 183.11256 
L 326.438269 172.791829 
L 327.30633 184.59249 
L 328.17439 179.885474 
L 329.04245 184.521402 
L 329.91051 175.297046 
L 330.778571 183.922321 
L 331.646631 190.102804 
L 332.514691 172.423463 
L 333.382752 181.626168 
L 334.250812 180.025389 
L 335.118872 168.72687 
L 335.986932 172.533326 
L 336.854993 183.556216 
L 337.723053 173.739566 
L 338.591113 186.865054 
L 339.459174 178.810425 
L 340.327234 179.84896 
L 341.195294 181.998736 
L 342.063354 178.188079 
L 342.931415 185.908593 
L 343.799475 172.750792 
L 344.667535 176.036042 
L 345.535596 173.315298 
L 346.403656 182.343514 
L 348.139776 171.984008 
L 349.007837 176.171756 
L 349.875897 157.328828 
L 350.743957 182.584568 
L 351.612018 180.613483 
L 352.480078 167.951361 
L 353.348138 174.12732 
L 354.216198 175.48026 
L 355.084259 172.69683 
L 355.952319 169.123026 
L 356.820379 173.487526 
L 357.688439 183.952695 
L 358.5565 171.835368 
L 360.29262 158.390952 
L 361.160681 169.747957 
L 362.028741 177.371533 
L 363.764861 159.487328 
L 364.632922 171.811457 
L 365.500982 170.105337 
L 366.369042 176.055429 
L 367.237103 178.252705 
L 368.105163 165.124955 
L 369.841283 156.081552 
L 370.709344 156.206602 
L 371.577404 165.413509 
L 372.445464 151.447886 
L 373.313525 166.656585 
L 374.181585 168.293878 
L 375.049645 176.216994 
L 375.917705 161.040608 
L 376.785766 177.916651 
L 377.653826 165.124955 
L 379.389947 157.083251 
L 380.258007 158.003198 
L 381.126067 153.507508 
L 381.994127 166.365769 
L 382.862188 168.429592 
L 383.730248 161.891406 
L 384.598308 169.377328 
L 385.466368 167.770409 
L 386.334429 157.391515 
L 387.202489 157.608981 
L 388.070549 166.449782 
L 388.93861 156.359442 
L 389.80667 157.477468 
L 390.67473 160.665778 
L 391.54279 161.630964 
L 392.410851 147.251736 
L 393.278911 157.964423 
L 394.146971 165.504092 
L 395.015032 158.513741 
L 395.883092 148.335187 
L 396.751152 150.9116 
L 397.619212 154.522025 
L 398.487273 160.370654 
L 398.487273 160.370654 
" style="fill:none;stroke:#1f77b4;stroke-linecap:square;stroke-width:1.5;"/>
   </g>
   <g id="line2d_21">
    <path clip-path="url(#p73abf5d9c6)" d="M 73.832727 285.832914 
L 74.700788 273.747901 
L 75.568848 277.948574 
L 76.436908 269.159473 
L 77.304968 271.841441 
L 78.173029 266.639069 
L 79.041089 265.831247 
L 79.909149 251.419707 
L 81.64527 248.123794 
L 82.51333 244.860194 
L 83.38139 243.923121 
L 84.249451 232.258175 
L 85.117511 233.130622 
L 85.985571 226.700361 
L 86.853632 218.816021 
L 87.721692 219.753094 
L 88.589752 209.186785 
L 89.457812 209.219098 
L 90.325873 203.370468 
L 91.193933 201.011629 
L 92.061993 199.525237 
L 92.930053 197.780342 
L 93.798114 193.805859 
L 94.666174 192.868785 
L 95.534234 230.804096 
L 96.402295 224.632337 
L 97.270355 213.581335 
L 98.138415 212.030318 
L 99.006475 205.696995 
L 99.874536 202.853462 
L 100.742596 213.549023 
L 101.610656 207.991209 
L 102.478717 198.071158 
L 103.346777 203.079653 
L 104.214837 194.38749 
L 105.082897 187.601787 
L 105.950958 182.108599 
L 106.819018 179.620508 
L 107.687078 186.212334 
L 108.555139 190.833075 
L 109.423199 185.727641 
L 110.291259 165.402845 
L 111.159319 161.299111 
L 112.02738 166.436857 
L 112.89544 158.681768 
L 113.7635 158.81102 
L 114.631561 154.965788 
L 115.499621 153.931776 
L 116.367681 161.040608 
L 117.235741 148.34165 
L 118.103802 139.520236 
L 118.971862 136.870581 
L 119.839922 138.066157 
L 120.707982 133.833171 
L 121.576043 136.902893 
L 122.444103 141.394382 
L 123.312163 131.894398 
L 124.180224 129.470933 
L 125.048284 120.294078 
L 125.916344 118.904624 
L 126.784404 116.513472 
L 127.652465 118.904624 
L 128.520525 114.413135 
L 129.388585 116.804288 
L 130.256646 110.729468 
L 131.124706 109.210763 
L 131.992766 107.982874 
L 132.860826 105.850225 
L 133.728887 107.885936 
L 135.465007 103.329821 
L 136.333068 105.01009 
L 137.201128 103.329821 
L 138.069188 105.559409 
L 138.937248 150.538925 
L 140.673369 160.491289 
L 141.541429 140.683499 
L 142.40949 140.231119 
L 143.27755 138.712414 
L 144.14561 139.746426 
L 145.01367 126.013456 
L 145.881731 132.896097 
L 146.749791 143.268529 
L 147.617851 140.845064 
L 148.485912 132.863785 
L 149.353972 126.756652 
L 150.222032 139.875678 
L 151.090092 128.630799 
L 151.958153 132.055963 
L 152.826213 122.91142 
L 153.694273 122.135912 
L 154.562333 135.481127 
L 155.430394 124.720941 
L 156.298454 121.360403 
L 157.166514 114.80089 
L 158.034575 122.038973 
L 158.902635 116.125718 
L 159.770695 119.680133 
L 160.638755 121.457341 
L 161.506816 115.414834 
L 162.374876 118.161428 
L 163.242936 117.418232 
L 164.110997 125.819579 
L 164.979057 109.727769 
L 165.847117 108.402941 
L 166.715177 114.090007 
L 167.583238 116.416533 
L 168.451298 106.754985 
L 169.319358 124.947131 
L 170.187419 105.430157 
L 171.923539 115.350209 
L 172.791599 105.107029 
L 173.65966 106.528795 
L 174.52772 101.423361 
L 175.39578 102.683563 
L 176.263841 100.357037 
L 177.131901 134.673305 
L 177.999961 102.037306 
L 178.868021 105.753286 
L 179.736082 100.292411 
L 180.604142 100.292411 
L 181.472202 97.255001 
L 182.340263 97.093437 
L 183.208323 96.350241 
L 184.076383 92.18188 
L 184.944443 96.802621 
L 185.812504 96.964185 
L 186.680564 93.959088 
L 187.548624 89.273722 
L 188.416684 90.59855 
L 189.284745 92.214193 
L 190.152805 93.442082 
L 191.020865 88.175084 
L 191.888926 89.564538 
L 192.756986 85.299239 
L 193.625046 92.763512 
L 194.493106 83.780534 
L 195.361167 81.163192 
L 196.229227 90.469298 
L 197.097287 80.290744 
L 197.965348 83.069651 
L 198.833408 80.743124 
L 199.701468 79.030542 
L 200.569528 77.899592 
L 201.437589 78.642788 
L 202.305649 77.867279 
L 203.173709 75.152998 
L 204.04177 75.766942 
L 204.90983 74.765243 
L 205.77789 74.894495 
L 206.64595 74.603679 
L 207.514011 73.860483 
L 208.382071 74.118986 
L 209.250131 71.437017 
L 210.118192 72.147901 
L 210.986252 71.501643 
L 211.854312 73.020348 
L 212.722372 71.049263 
L 213.590433 69.368994 
L 214.458493 68.787362 
L 216.194614 69.336681 
L 217.062674 68.076479 
L 217.930734 68.981239 
L 218.798794 68.399608 
L 219.666855 68.302669 
L 220.534915 68.431921 
L 221.402975 68.334982 
L 222.271035 67.817976 
L 223.139096 67.07478 
L 224.007156 68.561172 
L 224.875216 67.688724 
L 225.743277 117.030478 
L 226.611337 109.17845 
L 227.479397 126.885904 
L 228.347457 110.729468 
L 229.215518 116.190343 
L 230.083578 106.011789 
L 230.951638 104.590023 
L 231.819699 106.496482 
L 232.687759 125.658014 
L 233.555819 124.656315 
L 234.423879 114.607013 
L 235.29194 120.391017 
L 236.16 102.101932 
L 237.02806 102.360435 
L 237.896121 114.154632 
L 238.764181 100.874043 
L 239.632241 107.498181 
L 240.500301 120.487955 
L 241.368362 119.680133 
L 242.236422 95.057726 
L 243.972543 117.127417 
L 244.840603 112.44205 
L 245.708663 110.050898 
L 246.576723 102.166557 
L 247.444784 107.982874 
L 248.312844 105.23628 
L 249.180904 104.686961 
L 250.048965 121.425028 
L 250.917025 98.902958 
L 251.785085 127.532161 
L 252.653145 100.098534 
L 253.521206 99.646154 
L 254.389266 98.547516 
L 255.257326 99.840031 
L 256.125386 93.959088 
L 256.993447 97.57813 
L 257.861507 104.396146 
L 258.729567 102.263496 
L 259.597628 94.185278 
L 260.465688 100.744791 
L 261.333748 96.124051 
L 262.201808 96.285615 
L 263.069869 94.217591 
L 263.937929 94.476094 
L 264.805989 104.525397 
L 265.67405 95.510106 
L 266.54211 91.697187 
L 267.41017 108.467567 
L 268.27823 93.732898 
L 269.146291 92.311132 
L 270.014351 91.341746 
L 270.882411 92.601948 
L 271.750472 99.646154 
L 272.618532 92.149568 
L 273.486592 102.263496 
L 274.354652 92.343445 
L 275.222713 101.584926 
L 276.090773 93.312831 
L 276.958833 99.129148 
L 277.826894 93.571334 
L 278.694954 91.600249 
L 279.563014 91.600249 
L 280.431074 88.078146 
L 281.299135 85.2023 
L 282.167195 87.593453 
L 283.035255 95.154665 
L 283.903316 88.821342 
L 284.771376 97.255001 
L 285.639436 95.574732 
L 286.507496 88.789029 
L 287.375557 88.627465 
L 288.243617 90.533924 
L 289.111677 85.751619 
L 289.979737 88.724403 
L 290.847798 111.957357 
L 291.715858 84.362166 
L 292.583918 84.039037 
L 293.451979 86.624067 
L 294.320039 90.760114 
L 295.188099 83.037338 
L 296.056159 83.909786 
L 296.92422 92.311132 
L 297.79228 84.006724 
L 298.66034 83.84516 
L 300.396461 86.236312 
L 302.132581 78.739726 
L 303.000642 80.904689 
L 303.868702 82.261829 
L 304.736762 88.336649 
L 305.604823 86.850257 
L 306.472883 80.840063 
L 307.340943 80.35537 
L 308.209003 117.61211 
L 309.077064 83.748221 
L 309.945124 79.579861 
L 310.813184 78.933603 
L 312.549305 83.942098 
L 313.417365 82.100265 
L 314.285425 78.545849 
L 315.153486 82.197203 
L 316.021546 77.124083 
L 316.889606 76.800954 
L 317.757667 79.999928 
L 318.625727 78.319659 
L 319.493787 77.447211 
L 320.361847 77.673402 
L 321.229908 80.775437 
L 322.097968 92.795825 
L 322.966028 73.37579 
L 323.834088 73.860483 
L 324.702149 74.700617 
L 325.570209 77.931904 
L 326.438269 73.505041 
L 327.30633 75.443813 
L 328.17439 73.925109 
L 329.04245 74.50674 
L 329.91051 73.1496 
L 330.778571 70.403006 
L 331.646631 73.408103 
L 332.514691 74.345176 
L 333.382752 72.632594 
L 335.118872 70.176816 
L 335.986932 71.437017 
L 336.854993 70.79076 
L 337.723053 69.304368 
L 338.591113 69.465932 
L 339.459174 67.817976 
L 340.327234 70.176816 
L 341.195294 68.593485 
L 342.063354 71.889398 
L 342.931415 69.142804 
L 343.799475 70.273754 
L 344.667535 67.591786 
L 345.535596 67.333283 
L 346.403656 67.75335 
L 347.271716 67.914915 
L 348.139776 62.938732 
L 349.007837 64.392812 
L 349.875897 66.460835 
L 350.743957 63.746554 
L 351.612018 64.101996 
L 352.480078 63.714241 
L 353.348138 65.717639 
L 354.216198 61.969346 
L 355.084259 63.100297 
L 355.952319 62.518665 
L 356.820379 62.647917 
L 357.688439 61.193837 
L 358.5565 60.0952 
L 359.42456 59.675133 
L 360.29262 60.0952 
L 361.160681 60.870709 
L 362.028741 59.093501 
L 362.896801 60.256764 
L 363.764861 59.901323 
L 364.632922 57.897925 
L 365.500982 59.64282 
L 366.369042 59.836697 
L 367.237103 56.476158 
L 368.105163 58.964249 
L 368.973223 58.156428 
L 369.841283 58.253366 
L 370.709344 59.028875 
L 371.577404 57.51017 
L 372.445464 56.411533 
L 373.313525 56.185343 
L 374.181585 56.8316 
L 375.049645 55.280582 
L 375.917705 56.702348 
L 376.785766 57.025477 
L 377.653826 55.603711 
L 378.521886 57.380919 
L 379.389947 56.37922 
L 380.258007 55.862214 
L 381.126067 55.92684 
L 381.994127 55.539085 
L 382.862188 54.537386 
L 383.730248 54.731263 
L 384.598308 54.69895 
L 385.466368 54.892828 
L 386.334429 54.602012 
L 387.202489 55.119018 
L 388.070549 54.440448 
L 388.93861 55.022079 
L 389.80667 54.149632 
L 391.54279 54.214257 
L 392.410851 54.892828 
L 393.278911 54.181945 
L 394.146971 54.537386 
L 395.015032 53.568 
L 396.751152 54.634325 
L 397.619212 54.117319 
L 398.487273 54.117319 
L 398.487273 54.117319 
" style="fill:none;stroke:#ff7f0e;stroke-linecap:square;stroke-width:1.5;"/>
   </g>
   <g id="line2d_22">
    <path clip-path="url(#p73abf5d9c6)" d="M 73.832727 287.215582 
L 74.700788 276.858338 
L 75.568848 280.225662 
L 76.436908 273.575996 
L 77.304968 274.7496 
L 78.173029 268.797246 
L 79.041089 267.521857 
L 79.909149 256.637266 
L 80.77721 257.045701 
L 81.64527 255.361877 
L 82.51333 250.259998 
L 83.38139 251.144078 
L 84.249451 241.433414 
L 85.117511 240.787157 
L 85.985571 238.593113 
L 86.853632 228.593249 
L 87.721692 229.681546 
L 88.589752 221.875403 
L 89.457812 220.225831 
L 90.325873 218.048913 
L 92.061993 212.079756 
L 93.798114 208.219015 
L 94.666174 207.181771 
L 95.534234 241.467343 
L 96.402295 234.324583 
L 97.270355 224.851742 
L 98.138415 221.552274 
L 99.006475 220.463977 
L 99.874536 218.916514 
L 100.742596 226.008219 
L 101.610656 221.807546 
L 102.478717 213.134125 
L 103.346777 219.137534 
L 104.214837 205.481145 
L 105.082897 200.957343 
L 105.950958 199.987957 
L 106.819018 196.501398 
L 107.687078 199.885848 
L 108.555139 204.256487 
L 109.423199 206.858643 
L 110.291259 184.188579 
L 111.159319 176.14429 
L 112.02738 185.515022 
L 112.89544 176.909782 
L 113.7635 178.950339 
L 114.631561 173.746352 
L 115.499621 176.297453 
L 116.367681 182.385844 
L 117.235741 166.399374 
L 118.103802 164.375619 
L 118.971862 161.705607 
L 119.839922 157.555988 
L 120.707982 158.69534 
L 121.576043 158.76352 
L 122.444103 162.419721 
L 123.312163 155.191978 
L 124.180224 149.154641 
L 125.048284 140.651186 
L 125.916344 144.154548 
L 126.784404 137.589865 
L 127.652465 144.783679 
L 128.520525 140.259878 
L 129.388585 140.430166 
L 130.256646 136.110259 
L 131.124706 136.178439 
L 131.992766 132.147731 
L 132.860826 133.950466 
L 133.728887 133.916538 
L 134.596947 131.025505 
L 135.465007 129.783722 
L 136.333068 130.617071 
L 137.201128 129.579828 
L 138.069188 131.059434 
L 138.937248 167.709015 
L 139.805309 180.99122 
L 140.673369 178.559354 
L 141.541429 162.555758 
L 142.40949 165.668134 
L 143.27755 162.351864 
L 144.14561 163.54227 
L 145.01367 151.688617 
L 145.881731 156.824748 
L 146.749791 164.698748 
L 147.617851 167.862178 
L 148.485912 154.069429 
L 149.353972 149.851953 
L 150.222032 158.542177 
L 151.090092 157.334968 
L 151.958153 158.423265 
L 152.826213 149.664862 
L 153.694273 147.028778 
L 154.562333 159.477634 
L 155.430394 149.120713 
L 156.298454 149.069659 
L 157.166514 145.277097 
L 158.034575 146.739577 
L 158.902635 143.593273 
L 159.770695 143.763562 
L 160.638755 150.532139 
L 161.506816 145.157862 
L 162.374876 141.688753 
L 164.110997 152.79404 
L 164.979057 141.059298 
L 165.847117 134.001521 
L 166.715177 145.787317 
L 167.583238 143.270145 
L 168.451298 133.559481 
L 169.319358 153.048989 
L 170.187419 129.341682 
L 171.055479 136.110259 
L 171.923539 138.763469 
L 172.791599 130.940199 
L 173.65966 137.947245 
L 174.52772 130.175031 
L 175.39578 128.593316 
L 176.263841 129.579828 
L 177.131901 151.55258 
L 177.999961 128.559387 
L 178.868021 135.327964 
L 179.736082 133.219226 
L 180.604142 127.759967 
L 181.472202 123.219362 
L 182.340263 127.420035 
L 183.208323 121.416627 
L 184.076383 121.399501 
L 184.944443 128.066293 
L 185.812504 126.552435 
L 186.680564 120.055932 
L 187.548624 121.297393 
L 188.416684 122.794125 
L 189.284745 121.195284 
L 190.152805 127.91313 
L 191.020865 116.790716 
L 191.888926 122.130741 
L 192.756986 111.99484 
L 193.625046 120.396187 
L 195.361167 112.556115 
L 196.229227 123.831368 
L 197.097287 109.137736 
L 197.965348 110.719128 
L 198.833408 110.141051 
L 199.701468 107.266821 
L 200.569528 108.83141 
L 201.437589 106.280632 
L 202.305649 106.773727 
L 203.173709 102.896182 
L 204.04177 104.732846 
L 204.90983 103.168256 
L 205.77789 104.460771 
L 206.64595 104.409717 
L 207.514011 105.345175 
L 208.382071 104.766774 
L 209.250131 99.10362 
L 210.986252 101.144501 
L 211.854312 101.076321 
L 212.722372 97.828231 
L 213.590433 97.385868 
L 214.458493 97.86216 
L 215.326553 97.300885 
L 216.194614 97.930017 
L 217.062674 96.348625 
L 217.930734 96.518591 
L 218.798794 95.123967 
L 219.666855 97.147722 
L 220.534915 96.178336 
L 221.402975 94.817964 
L 222.271035 94.817964 
L 223.139096 95.379239 
L 224.007156 95.123967 
L 224.875216 95.038984 
L 225.743277 147.998164 
L 226.611337 142.453921 
L 227.479397 155.174852 
L 228.347457 141.654501 
L 229.215518 146.450377 
L 230.083578 132.930026 
L 230.951638 133.423444 
L 231.819699 137.725902 
L 232.687759 157.538862 
L 233.555819 155.787181 
L 234.423879 143.678256 
L 235.29194 148.406275 
L 236.16 128.967499 
L 237.02806 133.372389 
L 237.896121 142.572833 
L 238.764181 129.392736 
L 239.632241 138.780594 
L 240.500301 154.069429 
L 241.368362 152.352 
L 242.236422 119.749929 
L 243.104482 137.725902 
L 243.972543 144.902914 
L 244.840603 142.079738 
L 246.576723 129.171716 
L 247.444784 138.66136 
L 248.312844 135.294036 
L 249.180904 136.875751 
L 250.048965 152.709057 
L 250.917025 130.923397 
L 251.785085 157.35177 
L 252.653145 132.862169 
L 253.521206 126.637741 
L 254.389266 131.280454 
L 255.257326 127.607127 
L 256.125386 125.481263 
L 256.993447 123.712456 
L 257.861507 127.538947 
L 258.729567 133.780501 
L 259.597628 119.64782 
L 260.465688 133.151046 
L 261.333748 122.607033 
L 262.201808 126.263558 
L 263.069869 123.814565 
L 263.937929 126.161449 
L 264.805989 134.647778 
L 265.67405 129.545899 
L 266.54211 119.477855 
L 267.41017 132.606897 
L 268.27823 123.576419 
L 269.146291 121.688701 
L 270.014351 120.617207 
L 270.882411 120.022004 
L 271.750472 126.807706 
L 272.618532 121.229536 
L 273.486592 132.845043 
L 274.354652 120.039129 
L 275.222713 131.603583 
L 276.090773 122.130741 
L 276.958833 132.675077 
L 277.826894 125.685157 
L 278.694954 120.209095 
L 279.563014 122.74307 
L 280.431074 122.45387 
L 281.299135 115.396093 
L 282.167195 118.508469 
L 283.035255 126.331415 
L 283.903316 119.222583 
L 284.771376 129.426665 
L 285.639436 122.096813 
L 286.507496 117.624065 
L 287.375557 116.178388 
L 288.243617 124.239803 
L 289.111677 114.256741 
L 289.979737 119.528909 
L 290.847798 139.766783 
L 291.715858 112.964226 
L 292.583918 116.059476 
L 293.451979 115.940242 
L 294.320039 119.052617 
L 295.188099 112.096949 
L 296.056159 112.011643 
L 296.92422 117.215954 
L 297.79228 109.630831 
L 298.66034 114.987981 
L 299.528401 118.015051 
L 300.396461 116.824645 
L 301.264521 112.249789 
L 302.132581 110.379197 
L 303.000642 110.447054 
L 303.868702 114.596673 
L 304.736762 120.209095 
L 305.604823 114.749836 
L 306.472883 111.41644 
L 307.340943 111.212546 
L 308.209003 142.828105 
L 309.077064 112.675026 
L 309.945124 108.814607 
L 310.813184 111.127563 
L 311.681245 110.498108 
L 312.549305 112.50506 
L 313.417365 112.43688 
L 314.285425 106.552707 
L 315.153486 113.134192 
L 316.021546 105.22594 
L 316.889606 106.02536 
L 317.757667 108.117296 
L 318.625727 108.066241 
L 319.493787 104.834954 
L 320.361847 107.964133 
L 321.229908 109.817922 
L 322.097968 125.464137 
L 322.966028 103.270365 
L 323.834088 101.17843 
L 324.702149 105.361977 
L 325.570209 110.719128 
L 326.438269 107.538895 
L 327.30633 108.763553 
L 328.17439 108.542533 
L 329.04245 107.283947 
L 329.91051 107.777041 
L 330.778571 104.7839 
L 331.646631 107.607075 
L 332.514691 107.402858 
L 333.382752 104.596808 
L 334.250812 104.528951 
L 335.118872 103.015093 
L 335.986932 116.756788 
L 336.854993 103.287168 
L 337.723053 102.096762 
L 338.591113 102.334908 
L 339.459174 100.634281 
L 340.327234 101.382647 
L 341.195294 100.039078 
L 342.063354 104.545754 
L 342.931415 103.559565 
L 343.799475 102.947236 
L 344.667535 100.804247 
L 346.403656 101.603667 
L 347.271716 105.566195 
L 348.139776 95.413167 
L 349.007837 96.756737 
L 349.875897 99.630967 
L 350.743957 96.212588 
L 351.612018 95.226076 
L 352.480078 95.123967 
L 353.348138 99.783806 
L 354.216198 93.797524 
L 355.084259 94.971127 
L 355.952319 95.226076 
L 356.820379 96.705682 
L 357.688439 93.644361 
L 358.5565 92.692101 
L 359.42456 93.338358 
L 361.160681 91.994789 
L 362.028741 89.562922 
L 362.896801 94.018544 
L 363.764861 92.300792 
L 364.632922 90.889366 
L 365.500982 92.4029 
L 366.369042 90.260234 
L 367.237103 89.103756 
L 368.105163 91.110386 
L 368.973223 88.661393 
L 369.841283 89.681834 
L 370.709344 89.851799 
L 371.577404 88.083316 
L 372.445464 87.164984 
L 373.313525 88.848485 
L 375.049645 84.613883 
L 375.917705 87.40313 
L 376.785766 88.236156 
L 377.653826 84.222574 
L 378.521886 86.722621 
L 379.389947 87.011821 
L 380.258007 86.943641 
L 381.126067 87.640953 
L 381.994127 87.028947 
L 382.862188 86.654764 
L 383.730248 84.767046 
L 385.466368 86.688692 
L 386.334429 85.26014 
L 387.202489 86.110615 
L 388.070549 85.685378 
L 388.93861 86.348438 
L 389.80667 84.579954 
L 390.67473 85.073049 
L 391.54279 84.324683 
L 392.410851 86.450547 
L 393.278911 80.226118 
L 394.146971 81.331559 
L 395.015032 80.056051 
L 395.883092 80.124078 
L 396.751152 81.246525 
L 397.619212 79.681902 
L 398.487273 80.804349 
L 398.487273 80.804349 
" style="fill:none;stroke:#2ca02c;stroke-linecap:square;stroke-width:1.5;"/>
   </g>
   <g id="patch_3">
    <path d="M 57.6 307.584 
L 57.6 41.472 
" style="fill:none;stroke:#000000;stroke-linecap:square;stroke-linejoin:miter;stroke-width:0.8;"/>
   </g>
   <g id="patch_4">
    <path d="M 414.72 307.584 
L 414.72 41.472 
" style="fill:none;stroke:#000000;stroke-linecap:square;stroke-linejoin:miter;stroke-width:0.8;"/>
   </g>
   <g id="patch_5">
    <path d="M 57.6 307.584 
L 414.72 307.584 
" style="fill:none;stroke:#000000;stroke-linecap:square;stroke-linejoin:miter;stroke-width:0.8;"/>
   </g>
   <g id="patch_6">
    <path d="M 57.6 41.472 
L 414.72 41.472 
" style="fill:none;stroke:#000000;stroke-linecap:square;stroke-linejoin:miter;stroke-width:0.8;"/>
   </g>
   <g id="text_22">
    <!-- Training and Validation Accuracy -->
    <g transform="translate(138.4575 35.472)scale(0.12 -0.12)">
     <defs>
      <path d="M -19 4666 
L 3928 4666 
L 3928 4134 
L 2272 4134 
L 2272 0 
L 1638 0 
L 1638 4134 
L -19 4134 
L -19 4666 
z
" id="DejaVuSans-54" transform="scale(0.015625)"/>
      <path d="M 603 3500 
L 1178 3500 
L 1178 0 
L 603 0 
L 603 3500 
z
M 603 4863 
L 1178 4863 
L 1178 4134 
L 603 4134 
L 603 4863 
z
" id="DejaVuSans-69" transform="scale(0.015625)"/>
      <path d="M 3513 2113 
L 3513 0 
L 2938 0 
L 2938 2094 
Q 2938 2591 2744 2837 
Q 2550 3084 2163 3084 
Q 1697 3084 1428 2787 
Q 1159 2491 1159 1978 
L 1159 0 
L 581 0 
L 581 3500 
L 1159 3500 
L 1159 2956 
Q 1366 3272 1645 3428 
Q 1925 3584 2291 3584 
Q 2894 3584 3203 3211 
Q 3513 2838 3513 2113 
z
" id="DejaVuSans-6e" transform="scale(0.015625)"/>
      <path d="M 2906 1791 
Q 2906 2416 2648 2759 
Q 2391 3103 1925 3103 
Q 1463 3103 1205 2759 
Q 947 2416 947 1791 
Q 947 1169 1205 825 
Q 1463 481 1925 481 
Q 2391 481 2648 825 
Q 2906 1169 2906 1791 
z
M 3481 434 
Q 3481 -459 3084 -895 
Q 2688 -1331 1869 -1331 
Q 1566 -1331 1297 -1286 
Q 1028 -1241 775 -1147 
L 775 -588 
Q 1028 -725 1275 -790 
Q 1522 -856 1778 -856 
Q 2344 -856 2625 -561 
Q 2906 -266 2906 331 
L 2906 616 
Q 2728 306 2450 153 
Q 2172 0 1784 0 
Q 1141 0 747 490 
Q 353 981 353 1791 
Q 353 2603 747 3093 
Q 1141 3584 1784 3584 
Q 2172 3584 2450 3431 
Q 2728 3278 2906 2969 
L 2906 3500 
L 3481 3500 
L 3481 434 
z
" id="DejaVuSans-67" transform="scale(0.015625)"/>
      <path id="DejaVuSans-20" transform="scale(0.015625)"/>
      <path d="M 2906 2969 
L 2906 4863 
L 3481 4863 
L 3481 0 
L 2906 0 
L 2906 525 
Q 2725 213 2448 61 
Q 2172 -91 1784 -91 
Q 1150 -91 751 415 
Q 353 922 353 1747 
Q 353 2572 751 3078 
Q 1150 3584 1784 3584 
Q 2172 3584 2448 3432 
Q 2725 3281 2906 2969 
z
M 947 1747 
Q 947 1113 1208 752 
Q 1469 391 1925 391 
Q 2381 391 2643 752 
Q 2906 1113 2906 1747 
Q 2906 2381 2643 2742 
Q 2381 3103 1925 3103 
Q 1469 3103 1208 2742 
Q 947 2381 947 1747 
z
" id="DejaVuSans-64" transform="scale(0.015625)"/>
      <path d="M 1831 0 
L 50 4666 
L 709 4666 
L 2188 738 
L 3669 4666 
L 4325 4666 
L 2547 0 
L 1831 0 
z
" id="DejaVuSans-56" transform="scale(0.015625)"/>
      <path d="M 603 4863 
L 1178 4863 
L 1178 0 
L 603 0 
L 603 4863 
z
" id="DejaVuSans-6c" transform="scale(0.015625)"/>
      <path d="M 1172 4494 
L 1172 3500 
L 2356 3500 
L 2356 3053 
L 1172 3053 
L 1172 1153 
Q 1172 725 1289 603 
Q 1406 481 1766 481 
L 2356 481 
L 2356 0 
L 1766 0 
Q 1100 0 847 248 
Q 594 497 594 1153 
L 594 3053 
L 172 3053 
L 172 3500 
L 594 3500 
L 594 4494 
L 1172 4494 
z
" id="DejaVuSans-74" transform="scale(0.015625)"/>
     </defs>
     <use xlink:href="#DejaVuSans-54"/>
     <use x="46.333984" xlink:href="#DejaVuSans-72"/>
     <use x="87.447266" xlink:href="#DejaVuSans-61"/>
     <use x="148.726562" xlink:href="#DejaVuSans-69"/>
     <use x="176.509766" xlink:href="#DejaVuSans-6e"/>
     <use x="239.888672" xlink:href="#DejaVuSans-69"/>
     <use x="267.671875" xlink:href="#DejaVuSans-6e"/>
     <use x="331.050781" xlink:href="#DejaVuSans-67"/>
     <use x="394.527344" xlink:href="#DejaVuSans-20"/>
     <use x="426.314453" xlink:href="#DejaVuSans-61"/>
     <use x="487.59375" xlink:href="#DejaVuSans-6e"/>
     <use x="550.972656" xlink:href="#DejaVuSans-64"/>
     <use x="614.449219" xlink:href="#DejaVuSans-20"/>
     <use x="646.236328" xlink:href="#DejaVuSans-56"/>
     <use x="706.894531" xlink:href="#DejaVuSans-61"/>
     <use x="768.173828" xlink:href="#DejaVuSans-6c"/>
     <use x="795.957031" xlink:href="#DejaVuSans-69"/>
     <use x="823.740234" xlink:href="#DejaVuSans-64"/>
     <use x="887.216797" xlink:href="#DejaVuSans-61"/>
     <use x="948.496094" xlink:href="#DejaVuSans-74"/>
     <use x="987.705078" xlink:href="#DejaVuSans-69"/>
     <use x="1015.488281" xlink:href="#DejaVuSans-6f"/>
     <use x="1076.669922" xlink:href="#DejaVuSans-6e"/>
     <use x="1140.048828" xlink:href="#DejaVuSans-20"/>
     <use x="1171.835938" xlink:href="#DejaVuSans-41"/>
     <use x="1238.494141" xlink:href="#DejaVuSans-63"/>
     <use x="1293.474609" xlink:href="#DejaVuSans-63"/>
     <use x="1348.455078" xlink:href="#DejaVuSans-75"/>
     <use x="1411.833984" xlink:href="#DejaVuSans-72"/>
     <use x="1452.947266" xlink:href="#DejaVuSans-61"/>
     <use x="1514.226562" xlink:href="#DejaVuSans-63"/>
     <use x="1569.207031" xlink:href="#DejaVuSans-79"/>
    </g>
   </g>
   <g id="legend_1">
    <g id="patch_7">
     <path d="M 239.893438 302.584 
L 407.72 302.584 
Q 409.72 302.584 409.72 300.584 
L 409.72 257.549625 
Q 409.72 255.549625 407.72 255.549625 
L 239.893438 255.549625 
Q 237.893438 255.549625 237.893438 257.549625 
L 237.893438 300.584 
Q 237.893438 302.584 239.893438 302.584 
z
" style="fill:#ffffff;opacity:0.8;stroke:#cccccc;stroke-linejoin:miter;"/>
    </g>
    <g id="line2d_23">
     <path d="M 241.893438 263.648062 
L 261.893438 263.648062 
" style="fill:none;stroke:#1f77b4;stroke-linecap:square;stroke-width:1.5;"/>
    </g>
    <g id="line2d_24"/>
    <g id="text_23">
     <!-- Train Accuracy -->
     <g transform="translate(269.893438 267.148062)scale(0.1 -0.1)">
      <use xlink:href="#DejaVuSans-54"/>
      <use x="46.333984" xlink:href="#DejaVuSans-72"/>
      <use x="87.447266" xlink:href="#DejaVuSans-61"/>
      <use x="148.726562" xlink:href="#DejaVuSans-69"/>
      <use x="176.509766" xlink:href="#DejaVuSans-6e"/>
      <use x="239.888672" xlink:href="#DejaVuSans-20"/>
      <use x="271.675781" xlink:href="#DejaVuSans-41"/>
      <use x="338.333984" xlink:href="#DejaVuSans-63"/>
      <use x="393.314453" xlink:href="#DejaVuSans-63"/>
      <use x="448.294922" xlink:href="#DejaVuSans-75"/>
      <use x="511.673828" xlink:href="#DejaVuSans-72"/>
      <use x="552.787109" xlink:href="#DejaVuSans-61"/>
      <use x="614.066406" xlink:href="#DejaVuSans-63"/>
      <use x="669.046875" xlink:href="#DejaVuSans-79"/>
     </g>
    </g>
    <g id="line2d_25">
     <path d="M 241.893438 278.326188 
L 261.893438 278.326188 
" style="fill:none;stroke:#ff7f0e;stroke-linecap:square;stroke-width:1.5;"/>
    </g>
    <g id="line2d_26"/>
    <g id="text_24">
     <!-- Validation Accuracy -->
     <g transform="translate(269.893438 281.826188)scale(0.1 -0.1)">
      <use xlink:href="#DejaVuSans-56"/>
      <use x="60.658203" xlink:href="#DejaVuSans-61"/>
      <use x="121.9375" xlink:href="#DejaVuSans-6c"/>
      <use x="149.720703" xlink:href="#DejaVuSans-69"/>
      <use x="177.503906" xlink:href="#DejaVuSans-64"/>
      <use x="240.980469" xlink:href="#DejaVuSans-61"/>
      <use x="302.259766" xlink:href="#DejaVuSans-74"/>
      <use x="341.46875" xlink:href="#DejaVuSans-69"/>
      <use x="369.251953" xlink:href="#DejaVuSans-6f"/>
      <use x="430.433594" xlink:href="#DejaVuSans-6e"/>
      <use x="493.8125" xlink:href="#DejaVuSans-20"/>
      <use x="525.599609" xlink:href="#DejaVuSans-41"/>
      <use x="592.257812" xlink:href="#DejaVuSans-63"/>
      <use x="647.238281" xlink:href="#DejaVuSans-63"/>
      <use x="702.21875" xlink:href="#DejaVuSans-75"/>
      <use x="765.597656" xlink:href="#DejaVuSans-72"/>
      <use x="806.710938" xlink:href="#DejaVuSans-61"/>
      <use x="867.990234" xlink:href="#DejaVuSans-63"/>
      <use x="922.970703" xlink:href="#DejaVuSans-79"/>
     </g>
    </g>
    <g id="line2d_27">
     <path d="M 241.893438 293.004312 
L 261.893438 293.004312 
" style="fill:none;stroke:#2ca02c;stroke-linecap:square;stroke-width:1.5;"/>
    </g>
    <g id="line2d_28"/>
    <g id="text_25">
     <!-- Robust Validation Accuracy -->
     <g transform="translate(269.893438 296.504312)scale(0.1 -0.1)">
      <defs>
       <path d="M 2841 2188 
Q 3044 2119 3236 1894 
Q 3428 1669 3622 1275 
L 4263 0 
L 3584 0 
L 2988 1197 
Q 2756 1666 2539 1819 
Q 2322 1972 1947 1972 
L 1259 1972 
L 1259 0 
L 628 0 
L 628 4666 
L 2053 4666 
Q 2853 4666 3247 4331 
Q 3641 3997 3641 3322 
Q 3641 2881 3436 2590 
Q 3231 2300 2841 2188 
z
M 1259 4147 
L 1259 2491 
L 2053 2491 
Q 2509 2491 2742 2702 
Q 2975 2913 2975 3322 
Q 2975 3731 2742 3939 
Q 2509 4147 2053 4147 
L 1259 4147 
z
" id="DejaVuSans-52" transform="scale(0.015625)"/>
       <path d="M 3116 1747 
Q 3116 2381 2855 2742 
Q 2594 3103 2138 3103 
Q 1681 3103 1420 2742 
Q 1159 2381 1159 1747 
Q 1159 1113 1420 752 
Q 1681 391 2138 391 
Q 2594 391 2855 752 
Q 3116 1113 3116 1747 
z
M 1159 2969 
Q 1341 3281 1617 3432 
Q 1894 3584 2278 3584 
Q 2916 3584 3314 3078 
Q 3713 2572 3713 1747 
Q 3713 922 3314 415 
Q 2916 -91 2278 -91 
Q 1894 -91 1617 61 
Q 1341 213 1159 525 
L 1159 0 
L 581 0 
L 581 4863 
L 1159 4863 
L 1159 2969 
z
" id="DejaVuSans-62" transform="scale(0.015625)"/>
      </defs>
      <use xlink:href="#DejaVuSans-52"/>
      <use x="64.982422" xlink:href="#DejaVuSans-6f"/>
      <use x="126.164062" xlink:href="#DejaVuSans-62"/>
      <use x="189.640625" xlink:href="#DejaVuSans-75"/>
      <use x="253.019531" xlink:href="#DejaVuSans-73"/>
      <use x="305.119141" xlink:href="#DejaVuSans-74"/>
      <use x="344.328125" xlink:href="#DejaVuSans-20"/>
      <use x="376.115234" xlink:href="#DejaVuSans-56"/>
      <use x="436.773438" xlink:href="#DejaVuSans-61"/>
      <use x="498.052734" xlink:href="#DejaVuSans-6c"/>
      <use x="525.835938" xlink:href="#DejaVuSans-69"/>
      <use x="553.619141" xlink:href="#DejaVuSans-64"/>
      <use x="617.095703" xlink:href="#DejaVuSans-61"/>
      <use x="678.375" xlink:href="#DejaVuSans-74"/>
      <use x="717.583984" xlink:href="#DejaVuSans-69"/>
      <use x="745.367188" xlink:href="#DejaVuSans-6f"/>
      <use x="806.548828" xlink:href="#DejaVuSans-6e"/>
      <use x="869.927734" xlink:href="#DejaVuSans-20"/>
      <use x="901.714844" xlink:href="#DejaVuSans-41"/>
      <use x="968.373047" xlink:href="#DejaVuSans-63"/>
      <use x="1023.353516" xlink:href="#DejaVuSans-63"/>
      <use x="1078.333984" xlink:href="#DejaVuSans-75"/>
      <use x="1141.712891" xlink:href="#DejaVuSans-72"/>
      <use x="1182.826172" xlink:href="#DejaVuSans-61"/>
      <use x="1244.105469" xlink:href="#DejaVuSans-63"/>
      <use x="1299.085938" xlink:href="#DejaVuSans-79"/>
     </g>
    </g>
   </g>
  </g>
 </g>
 <defs>
  <clipPath id="p73abf5d9c6">
   <rect height="266.112" width="357.12" x="57.6" y="41.472"/>
  </clipPath>
 </defs>
</svg>
