<?xml version="1.0" encoding="utf-8" standalone="no"?>
<!DOCTYPE svg PUBLIC "-//W3C//DTD SVG 1.1//EN"
  "http://www.w3.org/Graphics/SVG/1.1/DTD/svg11.dtd">
<svg height="345.6pt" version="1.1" viewBox="0 0 460.8 345.6" width="460.8pt" xmlns="http://www.w3.org/2000/svg" xmlns:xlink="http://www.w3.org/1999/xlink">
 <metadata>
  <rdf:RDF xmlns:cc="http://creativecommons.org/ns#" xmlns:dc="http://purl.org/dc/elements/1.1/" xmlns:rdf="http://www.w3.org/1999/02/22-rdf-syntax-ns#">
   <cc:Work>
    <dc:type rdf:resource="http://purl.org/dc/dcmitype/StillImage"/>
    <dc:date>2024-03-05T01:28:20.024673</dc:date>
    <dc:format>image/svg+xml</dc:format>
    <dc:creator>
     <cc:Agent>
      <dc:title>Matplotlib v3.4.3, https://matplotlib.org/</dc:title>
     </cc:Agent>
    </dc:creator>
   </cc:Work>
  </rdf:RDF>
 </metadata>
 <defs>
  <style type="text/css">*{stroke-linecap:butt;stroke-linejoin:round;}</style>
 </defs>
 <g id="figure_1">
  <g id="patch_1">
   <path d="M 0 345.6 
L 460.8 345.6 
L 460.8 0 
L 0 0 
z
" style="fill:#ffffff;"/>
  </g>
  <g id="axes_1">
   <g id="patch_2">
    <path d="M 57.6 307.584 
L 414.72 307.584 
L 414.72 41.472 
L 57.6 41.472 
z
" style="fill:#ffffff;"/>
   </g>
   <g id="matplotlib.axis_1">
    <g id="xtick_1">
     <g id="line2d_1">
      <defs>
       <path d="M 0 0 
L 0 3.5 
" id="m881c946e52" style="stroke:#000000;stroke-width:0.8;"/>
      </defs>
      <g>
       <use style="stroke:#000000;stroke-width:0.8;" x="73.832727" xlink:href="#m881c946e52" y="307.584"/>
      </g>
     </g>
     <g id="text_1">
      <!-- 1 -->
      <g transform="translate(70.651477 322.182437)scale(0.1 -0.1)">
       <defs>
        <path d="M 794 531 
L 1825 531 
L 1825 4091 
L 703 3866 
L 703 4441 
L 1819 4666 
L 2450 4666 
L 2450 531 
L 3481 531 
L 3481 0 
L 794 0 
L 794 531 
z
" id="DejaVuSans-31" transform="scale(0.015625)"/>
       </defs>
       <use xlink:href="#DejaVuSans-31"/>
      </g>
     </g>
    </g>
    <g id="xtick_2">
     <g id="line2d_2">
      <g>
       <use style="stroke:#000000;stroke-width:0.8;" x="109.262733" xlink:href="#m881c946e52" y="307.584"/>
      </g>
     </g>
     <g id="text_2">
      <!-- 50 -->
      <g transform="translate(102.900233 322.182437)scale(0.1 -0.1)">
       <defs>
        <path d="M 691 4666 
L 3169 4666 
L 3169 4134 
L 1269 4134 
L 1269 2991 
Q 1406 3038 1543 3061 
Q 1681 3084 1819 3084 
Q 2600 3084 3056 2656 
Q 3513 2228 3513 1497 
Q 3513 744 3044 326 
Q 2575 -91 1722 -91 
Q 1428 -91 1123 -41 
Q 819 9 494 109 
L 494 744 
Q 775 591 1075 516 
Q 1375 441 1709 441 
Q 2250 441 2565 725 
Q 2881 1009 2881 1497 
Q 2881 1984 2565 2268 
Q 2250 2553 1709 2553 
Q 1456 2553 1204 2497 
Q 953 2441 691 2322 
L 691 4666 
z
" id="DejaVuSans-35" transform="scale(0.015625)"/>
        <path d="M 2034 4250 
Q 1547 4250 1301 3770 
Q 1056 3291 1056 2328 
Q 1056 1369 1301 889 
Q 1547 409 2034 409 
Q 2525 409 2770 889 
Q 3016 1369 3016 2328 
Q 3016 3291 2770 3770 
Q 2525 4250 2034 4250 
z
M 2034 4750 
Q 2819 4750 3233 4129 
Q 3647 3509 3647 2328 
Q 3647 1150 3233 529 
Q 2819 -91 2034 -91 
Q 1250 -91 836 529 
Q 422 1150 422 2328 
Q 422 3509 836 4129 
Q 1250 4750 2034 4750 
z
" id="DejaVuSans-30" transform="scale(0.015625)"/>
       </defs>
       <use xlink:href="#DejaVuSans-35"/>
       <use x="63.623047" xlink:href="#DejaVuSans-30"/>
      </g>
     </g>
    </g>
    <g id="xtick_3">
     <g id="line2d_3">
      <g>
       <use style="stroke:#000000;stroke-width:0.8;" x="145.415801" xlink:href="#m881c946e52" y="307.584"/>
      </g>
     </g>
     <g id="text_3">
      <!-- 100 -->
      <g transform="translate(135.872051 322.182437)scale(0.1 -0.1)">
       <use xlink:href="#DejaVuSans-31"/>
       <use x="63.623047" xlink:href="#DejaVuSans-30"/>
       <use x="127.246094" xlink:href="#DejaVuSans-30"/>
      </g>
     </g>
    </g>
    <g id="xtick_4">
     <g id="line2d_4">
      <g>
       <use style="stroke:#000000;stroke-width:0.8;" x="181.568868" xlink:href="#m881c946e52" y="307.584"/>
      </g>
     </g>
     <g id="text_4">
      <!-- 150 -->
      <g transform="translate(172.025118 322.182437)scale(0.1 -0.1)">
       <use xlink:href="#DejaVuSans-31"/>
       <use x="63.623047" xlink:href="#DejaVuSans-35"/>
       <use x="127.246094" xlink:href="#DejaVuSans-30"/>
      </g>
     </g>
    </g>
    <g id="xtick_5">
     <g id="line2d_5">
      <g>
       <use style="stroke:#000000;stroke-width:0.8;" x="217.721936" xlink:href="#m881c946e52" y="307.584"/>
      </g>
     </g>
     <g id="text_5">
      <!-- 200 -->
      <g transform="translate(208.178186 322.182437)scale(0.1 -0.1)">
       <defs>
        <path d="M 1228 531 
L 3431 531 
L 3431 0 
L 469 0 
L 469 531 
Q 828 903 1448 1529 
Q 2069 2156 2228 2338 
Q 2531 2678 2651 2914 
Q 2772 3150 2772 3378 
Q 2772 3750 2511 3984 
Q 2250 4219 1831 4219 
Q 1534 4219 1204 4116 
Q 875 4013 500 3803 
L 500 4441 
Q 881 4594 1212 4672 
Q 1544 4750 1819 4750 
Q 2544 4750 2975 4387 
Q 3406 4025 3406 3419 
Q 3406 3131 3298 2873 
Q 3191 2616 2906 2266 
Q 2828 2175 2409 1742 
Q 1991 1309 1228 531 
z
" id="DejaVuSans-32" transform="scale(0.015625)"/>
       </defs>
       <use xlink:href="#DejaVuSans-32"/>
       <use x="63.623047" xlink:href="#DejaVuSans-30"/>
       <use x="127.246094" xlink:href="#DejaVuSans-30"/>
      </g>
     </g>
    </g>
    <g id="xtick_6">
     <g id="line2d_6">
      <g>
       <use style="stroke:#000000;stroke-width:0.8;" x="253.875003" xlink:href="#m881c946e52" y="307.584"/>
      </g>
     </g>
     <g id="text_6">
      <!-- 250 -->
      <g transform="translate(244.331253 322.182437)scale(0.1 -0.1)">
       <use xlink:href="#DejaVuSans-32"/>
       <use x="63.623047" xlink:href="#DejaVuSans-35"/>
       <use x="127.246094" xlink:href="#DejaVuSans-30"/>
      </g>
     </g>
    </g>
    <g id="xtick_7">
     <g id="line2d_7">
      <g>
       <use style="stroke:#000000;stroke-width:0.8;" x="290.02807" xlink:href="#m881c946e52" y="307.584"/>
      </g>
     </g>
     <g id="text_7">
      <!-- 300 -->
      <g transform="translate(280.48432 322.182437)scale(0.1 -0.1)">
       <defs>
        <path d="M 2597 2516 
Q 3050 2419 3304 2112 
Q 3559 1806 3559 1356 
Q 3559 666 3084 287 
Q 2609 -91 1734 -91 
Q 1441 -91 1130 -33 
Q 819 25 488 141 
L 488 750 
Q 750 597 1062 519 
Q 1375 441 1716 441 
Q 2309 441 2620 675 
Q 2931 909 2931 1356 
Q 2931 1769 2642 2001 
Q 2353 2234 1838 2234 
L 1294 2234 
L 1294 2753 
L 1863 2753 
Q 2328 2753 2575 2939 
Q 2822 3125 2822 3475 
Q 2822 3834 2567 4026 
Q 2313 4219 1838 4219 
Q 1578 4219 1281 4162 
Q 984 4106 628 3988 
L 628 4550 
Q 988 4650 1302 4700 
Q 1616 4750 1894 4750 
Q 2613 4750 3031 4423 
Q 3450 4097 3450 3541 
Q 3450 3153 3228 2886 
Q 3006 2619 2597 2516 
z
" id="DejaVuSans-33" transform="scale(0.015625)"/>
       </defs>
       <use xlink:href="#DejaVuSans-33"/>
       <use x="63.623047" xlink:href="#DejaVuSans-30"/>
       <use x="127.246094" xlink:href="#DejaVuSans-30"/>
      </g>
     </g>
    </g>
    <g id="xtick_8">
     <g id="line2d_8">
      <g>
       <use style="stroke:#000000;stroke-width:0.8;" x="326.181138" xlink:href="#m881c946e52" y="307.584"/>
      </g>
     </g>
     <g id="text_8">
      <!-- 350 -->
      <g transform="translate(316.637388 322.182437)scale(0.1 -0.1)">
       <use xlink:href="#DejaVuSans-33"/>
       <use x="63.623047" xlink:href="#DejaVuSans-35"/>
       <use x="127.246094" xlink:href="#DejaVuSans-30"/>
      </g>
     </g>
    </g>
    <g id="xtick_9">
     <g id="line2d_9">
      <g>
       <use style="stroke:#000000;stroke-width:0.8;" x="362.334205" xlink:href="#m881c946e52" y="307.584"/>
      </g>
     </g>
     <g id="text_9">
      <!-- 400 -->
      <g transform="translate(352.790455 322.182437)scale(0.1 -0.1)">
       <defs>
        <path d="M 2419 4116 
L 825 1625 
L 2419 1625 
L 2419 4116 
z
M 2253 4666 
L 3047 4666 
L 3047 1625 
L 3713 1625 
L 3713 1100 
L 3047 1100 
L 3047 0 
L 2419 0 
L 2419 1100 
L 313 1100 
L 313 1709 
L 2253 4666 
z
" id="DejaVuSans-34" transform="scale(0.015625)"/>
       </defs>
       <use xlink:href="#DejaVuSans-34"/>
       <use x="63.623047" xlink:href="#DejaVuSans-30"/>
       <use x="127.246094" xlink:href="#DejaVuSans-30"/>
      </g>
     </g>
    </g>
    <g id="xtick_10">
     <g id="line2d_10">
      <g>
       <use style="stroke:#000000;stroke-width:0.8;" x="398.487273" xlink:href="#m881c946e52" y="307.584"/>
      </g>
     </g>
     <g id="text_10">
      <!-- 450 -->
      <g transform="translate(388.943523 322.182437)scale(0.1 -0.1)">
       <use xlink:href="#DejaVuSans-34"/>
       <use x="63.623047" xlink:href="#DejaVuSans-35"/>
       <use x="127.246094" xlink:href="#DejaVuSans-30"/>
      </g>
     </g>
    </g>
    <g id="text_11">
     <!-- Epochs -->
     <g transform="translate(218.244375 335.860562)scale(0.1 -0.1)">
      <defs>
       <path d="M 628 4666 
L 3578 4666 
L 3578 4134 
L 1259 4134 
L 1259 2753 
L 3481 2753 
L 3481 2222 
L 1259 2222 
L 1259 531 
L 3634 531 
L 3634 0 
L 628 0 
L 628 4666 
z
" id="DejaVuSans-45" transform="scale(0.015625)"/>
       <path d="M 1159 525 
L 1159 -1331 
L 581 -1331 
L 581 3500 
L 1159 3500 
L 1159 2969 
Q 1341 3281 1617 3432 
Q 1894 3584 2278 3584 
Q 2916 3584 3314 3078 
Q 3713 2572 3713 1747 
Q 3713 922 3314 415 
Q 2916 -91 2278 -91 
Q 1894 -91 1617 61 
Q 1341 213 1159 525 
z
M 3116 1747 
Q 3116 2381 2855 2742 
Q 2594 3103 2138 3103 
Q 1681 3103 1420 2742 
Q 1159 2381 1159 1747 
Q 1159 1113 1420 752 
Q 1681 391 2138 391 
Q 2594 391 2855 752 
Q 3116 1113 3116 1747 
z
" id="DejaVuSans-70" transform="scale(0.015625)"/>
       <path d="M 1959 3097 
Q 1497 3097 1228 2736 
Q 959 2375 959 1747 
Q 959 1119 1226 758 
Q 1494 397 1959 397 
Q 2419 397 2687 759 
Q 2956 1122 2956 1747 
Q 2956 2369 2687 2733 
Q 2419 3097 1959 3097 
z
M 1959 3584 
Q 2709 3584 3137 3096 
Q 3566 2609 3566 1747 
Q 3566 888 3137 398 
Q 2709 -91 1959 -91 
Q 1206 -91 779 398 
Q 353 888 353 1747 
Q 353 2609 779 3096 
Q 1206 3584 1959 3584 
z
" id="DejaVuSans-6f" transform="scale(0.015625)"/>
       <path d="M 3122 3366 
L 3122 2828 
Q 2878 2963 2633 3030 
Q 2388 3097 2138 3097 
Q 1578 3097 1268 2742 
Q 959 2388 959 1747 
Q 959 1106 1268 751 
Q 1578 397 2138 397 
Q 2388 397 2633 464 
Q 2878 531 3122 666 
L 3122 134 
Q 2881 22 2623 -34 
Q 2366 -91 2075 -91 
Q 1284 -91 818 406 
Q 353 903 353 1747 
Q 353 2603 823 3093 
Q 1294 3584 2113 3584 
Q 2378 3584 2631 3529 
Q 2884 3475 3122 3366 
z
" id="DejaVuSans-63" transform="scale(0.015625)"/>
       <path d="M 3513 2113 
L 3513 0 
L 2938 0 
L 2938 2094 
Q 2938 2591 2744 2837 
Q 2550 3084 2163 3084 
Q 1697 3084 1428 2787 
Q 1159 2491 1159 1978 
L 1159 0 
L 581 0 
L 581 4863 
L 1159 4863 
L 1159 2956 
Q 1366 3272 1645 3428 
Q 1925 3584 2291 3584 
Q 2894 3584 3203 3211 
Q 3513 2838 3513 2113 
z
" id="DejaVuSans-68" transform="scale(0.015625)"/>
       <path d="M 2834 3397 
L 2834 2853 
Q 2591 2978 2328 3040 
Q 2066 3103 1784 3103 
Q 1356 3103 1142 2972 
Q 928 2841 928 2578 
Q 928 2378 1081 2264 
Q 1234 2150 1697 2047 
L 1894 2003 
Q 2506 1872 2764 1633 
Q 3022 1394 3022 966 
Q 3022 478 2636 193 
Q 2250 -91 1575 -91 
Q 1294 -91 989 -36 
Q 684 19 347 128 
L 347 722 
Q 666 556 975 473 
Q 1284 391 1588 391 
Q 1994 391 2212 530 
Q 2431 669 2431 922 
Q 2431 1156 2273 1281 
Q 2116 1406 1581 1522 
L 1381 1569 
Q 847 1681 609 1914 
Q 372 2147 372 2553 
Q 372 3047 722 3315 
Q 1072 3584 1716 3584 
Q 2034 3584 2315 3537 
Q 2597 3491 2834 3397 
z
" id="DejaVuSans-73" transform="scale(0.015625)"/>
      </defs>
      <use xlink:href="#DejaVuSans-45"/>
      <use x="63.183594" xlink:href="#DejaVuSans-70"/>
      <use x="126.660156" xlink:href="#DejaVuSans-6f"/>
      <use x="187.841797" xlink:href="#DejaVuSans-63"/>
      <use x="242.822266" xlink:href="#DejaVuSans-68"/>
      <use x="306.201172" xlink:href="#DejaVuSans-73"/>
     </g>
    </g>
   </g>
   <g id="matplotlib.axis_2">
    <g id="ytick_1">
     <g id="line2d_11">
      <defs>
       <path d="M 0 0 
L -3.5 0 
" id="m014a747f7c" style="stroke:#000000;stroke-width:0.8;"/>
      </defs>
      <g>
       <use style="stroke:#000000;stroke-width:0.8;" x="57.6" xlink:href="#m014a747f7c" y="277.72218"/>
      </g>
     </g>
     <g id="text_12">
      <!-- 10 -->
      <g transform="translate(37.875 281.521399)scale(0.1 -0.1)">
       <use xlink:href="#DejaVuSans-31"/>
       <use x="63.623047" xlink:href="#DejaVuSans-30"/>
      </g>
     </g>
    </g>
    <g id="ytick_2">
     <g id="line2d_12">
      <g>
       <use style="stroke:#000000;stroke-width:0.8;" x="57.6" xlink:href="#m014a747f7c" y="245.700154"/>
      </g>
     </g>
     <g id="text_13">
      <!-- 20 -->
      <g transform="translate(37.875 249.499373)scale(0.1 -0.1)">
       <use xlink:href="#DejaVuSans-32"/>
       <use x="63.623047" xlink:href="#DejaVuSans-30"/>
      </g>
     </g>
    </g>
    <g id="ytick_3">
     <g id="line2d_13">
      <g>
       <use style="stroke:#000000;stroke-width:0.8;" x="57.6" xlink:href="#m014a747f7c" y="213.678129"/>
      </g>
     </g>
     <g id="text_14">
      <!-- 30 -->
      <g transform="translate(37.875 217.477347)scale(0.1 -0.1)">
       <use xlink:href="#DejaVuSans-33"/>
       <use x="63.623047" xlink:href="#DejaVuSans-30"/>
      </g>
     </g>
    </g>
    <g id="ytick_4">
     <g id="line2d_14">
      <g>
       <use style="stroke:#000000;stroke-width:0.8;" x="57.6" xlink:href="#m014a747f7c" y="181.656103"/>
      </g>
     </g>
     <g id="text_15">
      <!-- 40 -->
      <g transform="translate(37.875 185.455322)scale(0.1 -0.1)">
       <use xlink:href="#DejaVuSans-34"/>
       <use x="63.623047" xlink:href="#DejaVuSans-30"/>
      </g>
     </g>
    </g>
    <g id="ytick_5">
     <g id="line2d_15">
      <g>
       <use style="stroke:#000000;stroke-width:0.8;" x="57.6" xlink:href="#m014a747f7c" y="149.634077"/>
      </g>
     </g>
     <g id="text_16">
      <!-- 50 -->
      <g transform="translate(37.875 153.433296)scale(0.1 -0.1)">
       <use xlink:href="#DejaVuSans-35"/>
       <use x="63.623047" xlink:href="#DejaVuSans-30"/>
      </g>
     </g>
    </g>
    <g id="ytick_6">
     <g id="line2d_16">
      <g>
       <use style="stroke:#000000;stroke-width:0.8;" x="57.6" xlink:href="#m014a747f7c" y="117.612051"/>
      </g>
     </g>
     <g id="text_17">
      <!-- 60 -->
      <g transform="translate(37.875 121.41127)scale(0.1 -0.1)">
       <defs>
        <path d="M 2113 2584 
Q 1688 2584 1439 2293 
Q 1191 2003 1191 1497 
Q 1191 994 1439 701 
Q 1688 409 2113 409 
Q 2538 409 2786 701 
Q 3034 994 3034 1497 
Q 3034 2003 2786 2293 
Q 2538 2584 2113 2584 
z
M 3366 4563 
L 3366 3988 
Q 3128 4100 2886 4159 
Q 2644 4219 2406 4219 
Q 1781 4219 1451 3797 
Q 1122 3375 1075 2522 
Q 1259 2794 1537 2939 
Q 1816 3084 2150 3084 
Q 2853 3084 3261 2657 
Q 3669 2231 3669 1497 
Q 3669 778 3244 343 
Q 2819 -91 2113 -91 
Q 1303 -91 875 529 
Q 447 1150 447 2328 
Q 447 3434 972 4092 
Q 1497 4750 2381 4750 
Q 2619 4750 2861 4703 
Q 3103 4656 3366 4563 
z
" id="DejaVuSans-36" transform="scale(0.015625)"/>
       </defs>
       <use xlink:href="#DejaVuSans-36"/>
       <use x="63.623047" xlink:href="#DejaVuSans-30"/>
      </g>
     </g>
    </g>
    <g id="ytick_7">
     <g id="line2d_17">
      <g>
       <use style="stroke:#000000;stroke-width:0.8;" x="57.6" xlink:href="#m014a747f7c" y="85.590026"/>
      </g>
     </g>
     <g id="text_18">
      <!-- 70 -->
      <g transform="translate(37.875 89.389244)scale(0.1 -0.1)">
       <defs>
        <path d="M 525 4666 
L 3525 4666 
L 3525 4397 
L 1831 0 
L 1172 0 
L 2766 4134 
L 525 4134 
L 525 4666 
z
" id="DejaVuSans-37" transform="scale(0.015625)"/>
       </defs>
       <use xlink:href="#DejaVuSans-37"/>
       <use x="63.623047" xlink:href="#DejaVuSans-30"/>
      </g>
     </g>
    </g>
    <g id="ytick_8">
     <g id="line2d_18">
      <g>
       <use style="stroke:#000000;stroke-width:0.8;" x="57.6" xlink:href="#m014a747f7c" y="53.568"/>
      </g>
     </g>
     <g id="text_19">
      <!-- 80 -->
      <g transform="translate(37.875 57.367219)scale(0.1 -0.1)">
       <defs>
        <path d="M 2034 2216 
Q 1584 2216 1326 1975 
Q 1069 1734 1069 1313 
Q 1069 891 1326 650 
Q 1584 409 2034 409 
Q 2484 409 2743 651 
Q 3003 894 3003 1313 
Q 3003 1734 2745 1975 
Q 2488 2216 2034 2216 
z
M 1403 2484 
Q 997 2584 770 2862 
Q 544 3141 544 3541 
Q 544 4100 942 4425 
Q 1341 4750 2034 4750 
Q 2731 4750 3128 4425 
Q 3525 4100 3525 3541 
Q 3525 3141 3298 2862 
Q 3072 2584 2669 2484 
Q 3125 2378 3379 2068 
Q 3634 1759 3634 1313 
Q 3634 634 3220 271 
Q 2806 -91 2034 -91 
Q 1263 -91 848 271 
Q 434 634 434 1313 
Q 434 1759 690 2068 
Q 947 2378 1403 2484 
z
M 1172 3481 
Q 1172 3119 1398 2916 
Q 1625 2713 2034 2713 
Q 2441 2713 2670 2916 
Q 2900 3119 2900 3481 
Q 2900 3844 2670 4047 
Q 2441 4250 2034 4250 
Q 1625 4250 1398 4047 
Q 1172 3844 1172 3481 
z
" id="DejaVuSans-38" transform="scale(0.015625)"/>
       </defs>
       <use xlink:href="#DejaVuSans-38"/>
       <use x="63.623047" xlink:href="#DejaVuSans-30"/>
      </g>
     </g>
    </g>
    <g id="text_20">
     <!-- Accuracy -->
     <g transform="translate(31.795312 197.356125)rotate(-90)scale(0.1 -0.1)">
      <defs>
       <path d="M 2188 4044 
L 1331 1722 
L 3047 1722 
L 2188 4044 
z
M 1831 4666 
L 2547 4666 
L 4325 0 
L 3669 0 
L 3244 1197 
L 1141 1197 
L 716 0 
L 50 0 
L 1831 4666 
z
" id="DejaVuSans-41" transform="scale(0.015625)"/>
       <path d="M 544 1381 
L 544 3500 
L 1119 3500 
L 1119 1403 
Q 1119 906 1312 657 
Q 1506 409 1894 409 
Q 2359 409 2629 706 
Q 2900 1003 2900 1516 
L 2900 3500 
L 3475 3500 
L 3475 0 
L 2900 0 
L 2900 538 
Q 2691 219 2414 64 
Q 2138 -91 1772 -91 
Q 1169 -91 856 284 
Q 544 659 544 1381 
z
M 1991 3584 
L 1991 3584 
z
" id="DejaVuSans-75" transform="scale(0.015625)"/>
       <path d="M 2631 2963 
Q 2534 3019 2420 3045 
Q 2306 3072 2169 3072 
Q 1681 3072 1420 2755 
Q 1159 2438 1159 1844 
L 1159 0 
L 581 0 
L 581 3500 
L 1159 3500 
L 1159 2956 
Q 1341 3275 1631 3429 
Q 1922 3584 2338 3584 
Q 2397 3584 2469 3576 
Q 2541 3569 2628 3553 
L 2631 2963 
z
" id="DejaVuSans-72" transform="scale(0.015625)"/>
       <path d="M 2194 1759 
Q 1497 1759 1228 1600 
Q 959 1441 959 1056 
Q 959 750 1161 570 
Q 1363 391 1709 391 
Q 2188 391 2477 730 
Q 2766 1069 2766 1631 
L 2766 1759 
L 2194 1759 
z
M 3341 1997 
L 3341 0 
L 2766 0 
L 2766 531 
Q 2569 213 2275 61 
Q 1981 -91 1556 -91 
Q 1019 -91 701 211 
Q 384 513 384 1019 
Q 384 1609 779 1909 
Q 1175 2209 1959 2209 
L 2766 2209 
L 2766 2266 
Q 2766 2663 2505 2880 
Q 2244 3097 1772 3097 
Q 1472 3097 1187 3025 
Q 903 2953 641 2809 
L 641 3341 
Q 956 3463 1253 3523 
Q 1550 3584 1831 3584 
Q 2591 3584 2966 3190 
Q 3341 2797 3341 1997 
z
" id="DejaVuSans-61" transform="scale(0.015625)"/>
       <path d="M 2059 -325 
Q 1816 -950 1584 -1140 
Q 1353 -1331 966 -1331 
L 506 -1331 
L 506 -850 
L 844 -850 
Q 1081 -850 1212 -737 
Q 1344 -625 1503 -206 
L 1606 56 
L 191 3500 
L 800 3500 
L 1894 763 
L 2988 3500 
L 3597 3500 
L 2059 -325 
z
" id="DejaVuSans-79" transform="scale(0.015625)"/>
      </defs>
      <use xlink:href="#DejaVuSans-41"/>
      <use x="66.658203" xlink:href="#DejaVuSans-63"/>
      <use x="121.638672" xlink:href="#DejaVuSans-63"/>
      <use x="176.619141" xlink:href="#DejaVuSans-75"/>
      <use x="239.998047" xlink:href="#DejaVuSans-72"/>
      <use x="281.111328" xlink:href="#DejaVuSans-61"/>
      <use x="342.390625" xlink:href="#DejaVuSans-63"/>
      <use x="397.371094" xlink:href="#DejaVuSans-79"/>
     </g>
    </g>
   </g>
   <g id="line2d_19">
    <path clip-path="url(#pfbff9c627f)" d="M 73.832727 295.488 
L 74.555789 287.091825 
L 76.001911 274.545595 
L 76.724973 267.750521 
L 78.171095 257.035952 
L 78.894157 248.024953 
L 81.063341 233.762343 
L 81.786402 233.871218 
L 82.509463 227.357938 
L 83.232525 221.856554 
L 83.955586 221.241731 
L 84.678647 216.438427 
L 85.401709 216.438427 
L 86.12477 220.639717 
L 86.847832 206.537217 
L 87.570893 203.322206 
L 88.293954 202.720191 
L 89.017016 204.148374 
L 89.740077 192.883025 
L 90.463138 193.638745 
L 91.1862 192.735724 
L 92.632322 193.203245 
L 93.355384 187.701861 
L 94.078445 191.640571 
L 94.801506 194.573788 
L 95.524568 223.239906 
L 96.247629 214.356996 
L 96.97069 210.495139 
L 97.693752 211.449396 
L 98.416813 207.344172 
L 99.139874 205.42285 
L 99.862936 213.178585 
L 100.585997 199.357879 
L 101.309059 204.519829 
L 102.03212 198.32677 
L 102.755181 196.033992 
L 103.478243 191.301137 
L 104.201304 201.125495 
L 104.924365 196.309382 
L 105.647427 192.697297 
L 106.370488 195.496022 
L 107.093549 182.847322 
L 107.816611 184.979989 
L 108.539672 179.504223 
L 109.262733 183.141925 
L 109.985795 176.724711 
L 110.708856 177.102571 
L 111.431917 187.900398 
L 112.154979 183.756748 
L 112.87804 178.915018 
L 113.601101 165.811605 
L 114.324163 177.646945 
L 115.047224 181.105324 
L 115.770285 168.584712 
L 116.493347 169.372454 
L 117.216408 170.467607 
L 117.93947 167.95708 
L 118.662531 175.629558 
L 119.385592 160.893021 
L 120.108654 157.831716 
L 120.831715 157.722841 
L 121.554776 159.592927 
L 122.277838 163.006475 
L 123.000899 156.108931 
L 123.72396 163.064115 
L 124.447022 155.839946 
L 125.170083 167.540794 
L 125.893144 150.562716 
L 126.616206 161.847278 
L 127.339267 162.327608 
L 128.062328 152.323927 
L 128.78539 150.575525 
L 129.508451 147.591072 
L 130.231512 135.44832 
L 130.954574 149.659695 
L 131.677635 141.250711 
L 132.400696 152.586508 
L 133.123758 146.42547 
L 133.846819 152.02292 
L 134.569881 144.318421 
L 135.292942 158.574627 
L 136.016003 147.50141 
L 136.739065 148.63499 
L 137.462126 147.027484 
L 138.185187 148.718247 
L 138.908249 178.268173 
L 139.63131 180.733869 
L 140.354371 171.236136 
L 141.077433 174.15014 
L 141.800494 184.64696 
L 142.523555 173.919582 
L 143.246617 184.730217 
L 143.969678 179.030297 
L 144.692739 168.616734 
L 145.415801 168.520668 
L 146.138862 163.339504 
L 146.861923 167.124508 
L 147.584985 173.66981 
L 148.308046 164.229717 
L 149.031108 175.290124 
L 149.754169 163.646916 
L 150.47723 162.340417 
L 151.200292 158.21598 
L 151.923353 166.740243 
L 152.646414 172.933303 
L 153.369476 160.809764 
L 154.092537 161.232455 
L 154.815598 162.775917 
L 155.53866 155.116248 
L 156.984782 166.554516 
L 157.707844 156.787798 
L 158.430905 152.817067 
L 159.153966 167.745735 
L 159.877028 148.7951 
L 160.600089 163.11535 
L 161.32315 158.766759 
L 162.046212 156.557239 
L 162.769273 167.342257 
L 163.492334 153.867389 
L 164.215396 148.340387 
L 164.938457 162.103454 
L 165.661519 160.118088 
L 166.38458 143.556297 
L 167.107641 143.319334 
L 167.830703 147.309278 
L 168.553764 162.423674 
L 169.276825 158.920465 
L 169.999887 144.324825 
L 170.722948 138.73378 
L 171.446009 154.386146 
L 172.169071 149.704526 
L 173.615193 144.305612 
L 174.338255 150.735635 
L 175.061316 145.106163 
L 175.784377 142.537996 
L 176.507439 146.835352 
L 177.2305 143.761238 
L 177.953561 148.398027 
L 178.676623 134.763048 
L 179.399684 141.731041 
L 180.122745 130.65142 
L 180.845807 133.411719 
L 181.568868 132.086007 
L 182.29193 139.720058 
L 183.014991 150.043959 
L 183.738052 129.114363 
L 184.461114 149.121725 
L 185.184175 144.440105 
L 185.907236 138.964338 
L 186.630298 139.585566 
L 187.353359 132.48308 
L 188.07642 149.826209 
L 188.799482 142.525187 
L 189.522543 129.626716 
L 190.245604 126.309234 
L 190.968666 132.271735 
L 191.691727 130.504119 
L 192.414788 129.063128 
L 193.13785 130.177494 
L 193.860911 124.451956 
L 194.583972 120.077747 
L 195.307034 138.054913 
L 196.030095 123.632192 
L 196.753157 134.161034 
L 197.476218 133.123521 
L 198.199279 130.241538 
L 198.922341 134.884732 
L 199.645402 127.26349 
L 200.368463 125.918565 
L 201.091525 122.767598 
L 201.814586 128.057636 
L 202.537647 117.355875 
L 203.260709 119.1363 
L 203.98377 119.200344 
L 204.706831 114.954223 
L 205.429893 129.530649 
L 206.152954 119.83438 
L 206.876015 125.950587 
L 207.599077 128.28179 
L 208.322138 121.691658 
L 209.045199 113.340313 
L 209.768261 117.247 
L 210.491322 125.201272 
L 211.214383 108.376899 
L 211.937445 132.143647 
L 213.383568 117.272618 
L 214.106629 124.970713 
L 214.82969 127.795056 
L 215.552752 104.348528 
L 216.275813 114.096033 
L 216.998874 107.262533 
L 217.721936 117.394302 
L 218.444997 129.236047 
L 219.168058 113.660533 
L 219.89112 102.990795 
L 220.614181 117.022846 
L 221.337242 110.977088 
L 222.060304 101.735531 
L 222.783365 112.283586 
L 223.506426 109.600141 
L 224.229488 118.16283 
L 224.952549 111.700786 
L 225.67561 166.330361 
L 226.398672 159.746633 
L 227.121733 159.259898 
L 228.567856 152.580104 
L 229.290917 152.528868 
L 230.013979 156.243423 
L 230.73704 145.791434 
L 231.460101 149.672504 
L 232.183163 151.331245 
L 232.906224 153.342228 
L 233.629285 160.310221 
L 234.352347 151.356862 
L 235.075408 149.377901 
L 235.798469 150.908554 
L 236.521531 159.035744 
L 237.244592 147.783204 
L 237.967653 138.419964 
L 238.690715 160.489544 
L 239.413776 148.942401 
L 240.136837 150.204069 
L 240.859899 153.015603 
L 241.58296 151.113495 
L 242.306021 150.043959 
L 243.029083 134.064968 
L 243.752144 149.794187 
L 244.475206 138.913103 
L 245.198267 142.019239 
L 245.921328 153.553573 
L 246.64439 148.378814 
L 247.367451 139.572757 
L 248.090512 157.19768 
L 248.813574 151.139112 
L 249.536635 147.3413 
L 250.259696 145.733794 
L 250.982758 142.685298 
L 251.705819 146.732882 
L 252.42888 143.312929 
L 253.151942 148.718247 
L 253.875003 140.5078 
L 254.598064 149.646886 
L 255.321126 134.045755 
L 256.044187 141.833512 
L 256.767248 146.118059 
L 257.49031 141.935982 
L 258.213371 147.091528 
L 258.936432 156.550835 
L 259.659494 143.101584 
L 260.382555 140.61027 
L 261.105617 143.978987 
L 261.828678 148.449262 
L 262.551739 158.958891 
L 263.274801 142.083284 
L 263.997862 148.903975 
L 264.720923 142.621254 
L 265.443985 154.584682 
L 266.167046 142.646871 
L 266.890107 143.703598 
L 267.613169 148.500497 
L 268.33623 145.240655 
L 269.059291 150.761253 
L 269.782353 154.091543 
L 270.505414 135.537981 
L 271.228475 148.775887 
L 272.674598 135.217761 
L 273.397659 136.178422 
L 274.120721 151.664274 
L 274.843782 135.076864 
L 275.566843 133.482167 
L 276.289905 131.548037 
L 277.012966 138.829846 
L 277.736028 139.021978 
L 278.459089 140.270837 
L 279.18215 133.507785 
L 279.905212 136.850885 
L 280.628273 141.225093 
L 281.351334 137.44009 
L 282.074396 144.613024 
L 282.797457 129.889296 
L 283.520518 141.68621 
L 284.24358 144.798751 
L 284.966641 132.38061 
L 285.689702 128.973466 
L 286.412764 139.406242 
L 287.135825 130.689847 
L 287.858886 140.872851 
L 288.581948 133.264418 
L 289.305009 145.40717 
L 290.02807 143.165628 
L 290.751132 130.81153 
L 291.474193 125.015544 
L 292.197255 135.653261 
L 292.920316 138.016486 
L 293.643377 131.791404 
L 294.366439 128.390665 
L 295.0895 138.131766 
L 295.812561 133.828005 
L 296.535623 132.451058 
L 297.258684 138.272662 
L 297.981745 132.246117 
L 298.704807 139.124448 
L 299.427868 142.096092 
L 300.150929 140.719145 
L 300.873991 127.378769 
L 301.597052 135.083269 
L 302.320113 130.664229 
L 303.043175 127.513262 
L 303.766236 137.312002 
L 304.489297 133.738344 
L 305.212359 132.48308 
L 305.93542 122.383333 
L 306.658481 129.741995 
L 307.381543 119.39888 
L 308.104604 136.46662 
L 308.827666 122.312885 
L 309.550727 125.066779 
L 310.273788 136.075952 
L 310.99685 132.092411 
L 311.719911 125.726433 
L 312.442972 127.013718 
L 313.166034 142.467548 
L 313.889095 123.926795 
L 314.612156 118.32294 
L 315.335218 119.110682 
L 316.058279 130.203112 
L 316.78134 124.720941 
L 317.504402 123.76028 
L 318.227463 115.191186 
L 318.950524 135.589217 
L 319.673586 130.696251 
L 320.396647 120.795041 
L 321.119708 129.998171 
L 321.84277 121.518739 
L 322.565831 129.780421 
L 323.288892 134.558107 
L 324.011954 125.130823 
L 324.735015 111.521462 
L 325.458077 123.753876 
L 326.181138 128.333026 
L 326.904199 116.247913 
L 327.627261 127.750225 
L 328.350322 117.535199 
L 329.073383 111.188433 
L 329.796445 114.608385 
L 330.519506 133.040263 
L 331.242567 117.343066 
L 331.965629 110.25339 
L 332.68869 126.078675 
L 333.411751 116.542516 
L 334.134813 113.570872 
L 334.857874 113.551659 
L 335.580935 113.244247 
L 336.303997 111.591911 
L 337.027058 114.813326 
L 337.750119 107.928591 
L 338.473181 107.006357 
L 339.196242 118.764844 
L 339.919304 114.211312 
L 340.642365 107.051187 
L 341.365426 109.401604 
L 342.088488 123.139053 
L 342.811549 116.843523 
L 343.53461 114.429062 
L 344.257672 128.358643 
L 344.980733 107.992635 
L 345.703794 109.459244 
L 346.426856 112.898409 
L 347.149917 111.995388 
L 347.872978 98.744674 
L 348.59604 112.443697 
L 349.319101 111.976175 
L 350.042162 104.297293 
L 350.765224 116.356788 
L 351.488285 120.327519 
L 352.211346 109.388795 
L 352.934408 118.687992 
L 353.657469 119.815167 
L 354.38053 114.960628 
L 355.826653 103.061243 
L 356.549715 104.777624 
L 357.272776 102.171031 
L 357.995837 105.027395 
L 358.718899 110.906639 
L 359.44196 93.198459 
L 360.165021 104.11797 
L 360.888083 117.074081 
L 361.611144 106.180188 
L 362.334205 113.231438 
L 363.057267 97.425366 
L 363.780328 115.191186 
L 364.503389 95.997184 
L 365.226451 94.383274 
L 365.949512 106.897482 
L 366.672573 102.094178 
L 367.395635 101.96609 
L 368.118696 95.241464 
L 368.841757 102.279906 
L 369.564819 103.131691 
L 370.28788 96.925823 
L 371.010941 100.057577 
L 371.734003 100.140834 
L 372.457064 95.01731 
L 373.180126 96.740095 
L 373.903187 107.762076 
L 374.626248 93.653172 
L 375.34931 97.393344 
L 376.072371 98.603777 
L 376.795432 102.50406 
L 377.518494 97.156381 
L 378.241555 106.090527 
L 378.964616 110.150919 
L 379.687678 104.27808 
L 380.410739 88.72178 
L 381.1338 88.651331 
L 381.856862 91.744659 
L 382.579923 101.90845 
L 383.302984 92.525997 
L 384.026046 88.369538 
L 384.749107 92.999922 
L 385.472168 100.179261 
L 386.19523 100.307349 
L 386.918291 86.493047 
L 387.641353 99.007255 
L 388.364414 100.230496 
L 389.087475 96.52875 
L 389.810537 94.831582 
L 390.533598 94.47934 
L 391.256659 99.474776 
L 391.979721 111.124389 
L 392.702782 96.503132 
L 393.425843 96.36864 
L 394.148905 115.216804 
L 394.871966 91.321968 
L 395.595027 95.901118 
L 396.318089 106.090527 
L 397.04115 99.891062 
L 397.764211 100.377797 
L 398.487273 93.979796 
L 398.487273 93.979796 
" style="fill:none;stroke:#1f77b4;stroke-linecap:square;stroke-width:1.5;"/>
   </g>
   <g id="line2d_20">
    <path clip-path="url(#pfbff9c627f)" d="M 73.832727 290.178748 
L 74.555789 272.886854 
L 75.27885 273.175052 
L 76.001911 259.117383 
L 76.724973 240.768762 
L 77.448034 225.942565 
L 78.894157 215.695516 
L 79.617218 212.077027 
L 80.340279 215.087098 
L 81.063341 196.706455 
L 81.786402 194.016605 
L 82.509463 173.970817 
L 83.232525 182.040367 
L 83.955586 173.810707 
L 84.678647 173.010156 
L 85.401709 162.859174 
L 86.12477 159.688993 
L 86.847832 164.140055 
L 87.570893 148.032976 
L 88.293954 149.666099 
L 89.017016 155.36602 
L 89.740077 138.810632 
L 90.463138 139.451073 
L 91.1862 134.711813 
L 91.909261 135.60843 
L 92.632322 138.554456 
L 93.355384 136.184826 
L 94.078445 136.344937 
L 94.801506 139.290963 
L 95.524568 168.975381 
L 96.247629 161.962557 
L 96.97069 173.426442 
L 97.693752 153.700874 
L 98.416813 149.730143 
L 99.139874 143.165628 
L 99.862936 146.175698 
L 100.585997 137.401663 
L 101.309059 143.261694 
L 102.03212 133.270822 
L 102.755181 140.443756 
L 103.478243 137.593796 
L 104.201304 147.488601 
L 104.924365 124.368699 
L 105.647427 127.090571 
L 106.370488 125.425426 
L 107.093549 130.260752 
L 107.816611 116.363192 
L 108.539672 129.780421 
L 109.262733 120.365946 
L 109.985795 123.376016 
L 110.708856 110.759338 
L 111.431917 113.737386 
L 112.87804 114.730069 
L 113.601101 109.382391 
L 114.324163 105.89199 
L 115.047224 112.520549 
L 115.770285 101.665083 
L 116.493347 102.177435 
L 117.216408 103.52236 
L 117.93947 102.88192 
L 118.662531 97.82244 
L 119.385592 96.25336 
L 120.108654 94.011818 
L 120.831715 96.221338 
L 121.554776 91.35399 
L 122.277838 91.834321 
L 123.000899 90.361308 
L 123.72396 90.71355 
L 124.447022 91.482078 
L 125.893144 83.956902 
L 126.616206 84.917563 
L 127.339267 88.952338 
L 128.062328 82.611977 
L 128.78539 82.611977 
L 129.508451 80.402458 
L 130.231512 81.587273 
L 130.954574 80.562568 
L 133.123758 79.409775 
L 133.846819 79.537863 
L 134.569881 77.072167 
L 135.292942 78.417092 
L 136.739065 77.424409 
L 137.462126 78.481136 
L 138.185187 77.392387 
L 138.908249 123.536126 
L 139.63131 109.894743 
L 140.354371 117.804184 
L 141.800494 107.877356 
L 142.523555 112.616615 
L 143.246617 116.459259 
L 143.969678 113.449188 
L 144.692739 103.04203 
L 145.415801 100.768466 
L 146.138862 95.004501 
L 146.861923 107.140849 
L 147.584985 97.662329 
L 148.308046 96.157294 
L 149.031108 101.536995 
L 149.754169 105.475704 
L 150.47723 97.374131 
L 151.200292 93.659576 
L 151.923353 100.544312 
L 152.646414 98.206704 
L 153.369476 96.25336 
L 154.092537 93.371378 
L 154.815598 95.741008 
L 155.53866 91.03377 
L 156.261721 103.938646 
L 156.984782 93.467444 
L 157.707844 94.588215 
L 158.430905 88.0237 
L 159.153966 100.83251 
L 159.877028 92.730937 
L 160.600089 92.026453 
L 161.32315 94.716303 
L 162.046212 88.696162 
L 162.769273 93.947774 
L 163.492334 97.149977 
L 164.215396 86.422598 
L 164.938457 96.41347 
L 165.661519 91.546123 
L 166.38458 88.439986 
L 167.107641 83.76477 
L 167.830703 91.642189 
L 168.553764 87.319215 
L 169.276825 87.223149 
L 169.999887 93.56351 
L 170.722948 86.486642 
L 171.446009 85.782158 
L 172.169071 84.533299 
L 172.892132 86.45462 
L 173.615193 81.138964 
L 174.338255 87.767523 
L 175.061316 82.772087 
L 175.784377 84.309145 
L 176.507439 79.505841 
L 177.2305 77.008123 
L 177.953561 81.23503 
L 178.676623 83.668704 
L 179.399684 84.661387 
L 180.122745 82.259735 
L 180.845807 82.259735 
L 181.568868 81.55525 
L 182.29193 82.131647 
L 183.014991 79.505841 
L 183.738052 74.990735 
L 185.184175 82.291757 
L 185.907236 73.96603 
L 186.630298 74.190185 
L 187.353359 74.670515 
L 188.07642 80.338414 
L 188.799482 75.69522 
L 189.522543 72.428973 
L 190.245604 74.606471 
L 190.968666 77.584519 
L 191.691727 75.150845 
L 192.414788 70.63574 
L 193.13785 74.798603 
L 193.860911 70.091365 
L 194.583972 72.428973 
L 195.307034 68.938572 
L 196.030095 69.002616 
L 196.753157 68.650374 
L 197.476218 68.138022 
L 198.199279 69.034638 
L 198.922341 68.74644 
L 199.645402 68.842506 
L 200.368463 67.593647 
L 201.091525 72.813237 
L 201.814586 68.938572 
L 202.537647 67.529603 
L 203.260709 67.017251 
L 203.98377 66.761075 
L 204.706831 64.967841 
L 205.429893 64.039202 
L 206.152954 63.334718 
L 206.876015 64.327401 
L 208.322138 63.078542 
L 209.045199 62.598211 
L 209.768261 64.231335 
L 210.491322 61.893727 
L 211.214383 61.573506 
L 211.937445 62.213947 
L 212.660506 62.085859 
L 213.383568 62.726299 
L 214.106629 61.125198 
L 214.82969 62.790343 
L 215.552752 61.15722 
L 216.275813 62.374057 
L 216.998874 60.965088 
L 217.721936 61.061154 
L 218.444997 61.605528 
L 219.168058 60.612846 
L 219.89112 59.844317 
L 220.614181 60.196559 
L 221.337242 60.67689 
L 222.060304 59.396009 
L 222.783365 60.452736 
L 223.506426 60.452736 
L 224.229488 60.708912 
L 224.952549 60.612846 
L 225.67561 103.490338 
L 226.398672 101.344862 
L 227.121733 93.915752 
L 227.844794 93.56351 
L 228.567856 90.265241 
L 229.290917 102.401589 
L 230.013979 92.218585 
L 230.73704 94.652259 
L 231.460101 90.681528 
L 232.183163 90.585462 
L 232.906224 89.112449 
L 233.629285 99.487585 
L 234.352347 87.895612 
L 235.075408 92.218585 
L 235.798469 88.215832 
L 236.521531 93.211268 
L 237.244592 81.459184 
L 237.967653 87.031017 
L 238.690715 89.048405 
L 239.413776 95.77303 
L 240.136837 103.746514 
L 240.859899 83.220396 
L 241.58296 98.494902 
L 242.306021 93.627554 
L 243.029083 87.959656 
L 243.752144 91.546123 
L 245.198267 95.484832 
L 245.921328 93.595532 
L 246.64439 81.23503 
L 247.367451 93.595532 
L 248.090512 83.732748 
L 248.813574 88.696162 
L 249.536635 84.949585 
L 250.259696 82.900176 
L 250.982758 86.390576 
L 251.705819 89.304581 
L 252.42888 93.499466 
L 253.151942 82.96422 
L 253.875003 86.870907 
L 254.598064 84.437233 
L 255.321126 91.19388 
L 256.044187 92.859026 
L 257.49031 80.722678 
L 258.213371 92.538805 
L 258.936432 83.156352 
L 259.659494 91.450056 
L 260.382555 92.314651 
L 261.105617 88.568074 
L 261.828678 81.106942 
L 262.551739 82.419845 
L 263.274801 86.902929 
L 263.997862 81.811427 
L 264.720923 80.306391 
L 265.443985 82.772087 
L 266.167046 83.60466 
L 266.890107 83.572638 
L 267.613169 86.678775 
L 268.33623 82.868154 
L 269.059291 87.607413 
L 269.782353 79.858083 
L 270.505414 79.409775 
L 271.228475 86.166422 
L 271.951537 81.427162 
L 272.674598 80.210325 
L 273.397659 92.859026 
L 274.120721 78.993488 
L 274.843782 76.463748 
L 275.566843 87.159105 
L 276.289905 80.050215 
L 277.012966 85.49396 
L 277.736028 82.323779 
L 279.18215 79.505841 
L 279.905212 89.848955 
L 280.628273 86.998995 
L 281.351334 82.483889 
L 282.074396 79.697973 
L 282.797457 84.373189 
L 283.520518 82.387823 
L 284.24358 79.153599 
L 284.966641 85.942268 
L 285.689702 78.032828 
L 286.412764 79.249665 
L 287.135825 82.419845 
L 287.858886 77.232277 
L 288.581948 79.057532 
L 290.02807 85.077673 
L 290.751132 80.210325 
L 291.474193 78.673268 
L 292.197255 78.641246 
L 292.920316 86.710797 
L 293.643377 74.254229 
L 294.366439 76.463748 
L 295.812561 76.815991 
L 296.535623 74.254229 
L 297.258684 76.880035 
L 297.981745 74.542427 
L 298.704807 73.837942 
L 299.427868 80.850766 
L 300.150929 77.392387 
L 300.873991 76.17555 
L 301.597052 78.321026 
L 302.320113 77.936762 
L 303.043175 79.601907 
L 303.766236 90.105131 
L 304.489297 76.431726 
L 305.212359 83.188374 
L 305.93542 83.348484 
L 306.658481 78.961466 
L 307.381543 76.463748 
L 308.104604 78.54518 
L 308.827666 71.660445 
L 309.550727 74.926691 
L 310.273788 71.27618 
L 310.99685 75.727242 
L 311.719911 74.702537 
L 312.442972 77.040145 
L 313.166034 77.296321 
L 313.889095 75.599154 
L 314.612156 71.980665 
L 315.335218 78.513158 
L 316.058279 72.589083 
L 316.78134 78.160916 
L 317.504402 73.677832 
L 318.227463 76.623859 
L 318.950524 75.310955 
L 319.673586 70.47563 
L 320.396647 71.084048 
L 321.119708 72.076731 
L 321.84277 77.680585 
L 322.565831 67.753757 
L 323.288892 67.081295 
L 324.011954 69.579013 
L 324.735015 69.611035 
L 326.181138 74.062096 
L 326.904199 71.724489 
L 327.627261 65.768392 
L 328.350322 68.522286 
L 329.073383 72.140775 
L 329.796445 68.073978 
L 330.519506 65.704348 
L 331.242567 69.579013 
L 331.965629 67.94589 
L 332.68869 70.123387 
L 333.411751 67.113317 
L 334.134813 72.973348 
L 334.857874 67.849823 
L 335.580935 67.94589 
L 336.303997 66.440854 
L 337.027058 66.05659 
L 337.750119 64.647621 
L 338.473181 67.177361 
L 340.642365 62.726299 
L 341.365426 67.369493 
L 342.088488 69.386881 
L 342.811549 66.024568 
L 343.53461 64.807731 
L 344.257672 64.071224 
L 344.980733 66.152656 
L 345.703794 62.181925 
L 346.426856 64.00718 
L 347.149917 61.413396 
L 347.872978 66.697031 
L 348.59604 62.726299 
L 349.319101 63.911114 
L 350.042162 63.04652 
L 350.765224 60.100493 
L 351.488285 65.73637 
L 352.211346 64.967841 
L 352.934408 60.580824 
L 353.657469 61.349352 
L 354.38053 62.886409 
L 355.103592 63.68696 
L 355.826653 60.548802 
L 356.549715 61.349352 
L 357.272776 60.068471 
L 357.995837 62.438101 
L 358.718899 60.548802 
L 359.44196 61.31733 
L 360.165021 59.043766 
L 360.888083 62.790343 
L 361.611144 62.534167 
L 362.334205 58.723546 
L 363.057267 56.706159 
L 363.780328 59.684207 
L 364.503389 56.41796 
L 365.226451 58.915678 
L 366.672573 57.858951 
L 367.395635 60.708912 
L 368.118696 58.563436 
L 368.841757 59.043766 
L 369.564819 57.602775 
L 370.28788 58.659502 
L 371.010941 58.115128 
L 371.734003 56.866269 
L 372.457064 56.834247 
L 373.180126 55.905608 
L 373.903187 56.930313 
L 374.626248 55.361233 
L 375.34931 54.912925 
L 376.795432 57.346599 
L 377.518494 56.321894 
L 378.241555 54.752815 
L 378.964616 54.04833 
L 379.687678 56.225828 
L 380.410739 56.001674 
L 381.1338 55.649432 
L 381.856862 55.585388 
L 382.579923 56.25785 
L 384.026046 55.585388 
L 384.749107 55.361233 
L 385.472168 53.88822 
L 386.19523 55.809542 
L 386.918291 54.304507 
L 387.641353 54.432595 
L 388.364414 54.112374 
L 389.087475 55.521344 
L 389.810537 54.688771 
L 390.533598 54.400573 
L 391.979721 54.912925 
L 392.702782 54.112374 
L 393.425843 54.528661 
L 394.148905 53.920242 
L 394.871966 53.568 
L 395.595027 54.592705 
L 397.04115 54.528661 
L 397.764211 54.112374 
L 398.487273 54.560683 
L 398.487273 54.560683 
" style="fill:none;stroke:#ff7f0e;stroke-linecap:square;stroke-width:1.5;"/>
   </g>
   <g id="line2d_21">
    <path clip-path="url(#pfbff9c627f)" d="M 73.832727 291.609627 
L 74.555789 277.553643 
L 75.27885 277.469375 
L 77.448034 239.784506 
L 78.171095 232.672246 
L 78.894157 234.290201 
L 79.617218 230.666656 
L 80.340279 235.92501 
L 81.063341 215.801695 
L 81.786402 214.95901 
L 82.509463 199.453608 
L 83.232525 204.610839 
L 83.955586 201.981662 
L 84.678647 200.313146 
L 85.401709 191.785175 
L 86.12477 187.908825 
L 86.847832 190.066098 
L 87.570893 177.948289 
L 88.293954 180.91454 
L 89.017016 186.813334 
L 89.740077 169.352904 
L 90.463138 172.470838 
L 91.1862 168.813585 
L 91.909261 168.594487 
L 92.632322 170.734907 
L 93.355384 168.678756 
L 94.078445 168.072023 
L 94.801506 170.802322 
L 95.524568 194.987378 
L 96.247629 187.84141 
L 96.97069 202.487273 
L 97.693752 184.807744 
L 98.416813 181.959469 
L 99.862936 172.218032 
L 100.585997 169.521441 
L 101.309059 170.549516 
L 102.03212 162.324912 
L 102.755181 175.049453 
L 103.478243 167.9709 
L 104.201304 185.616722 
L 104.924365 155.280066 
L 105.647427 159.021587 
L 106.370488 155.212651 
L 107.093549 164.903527 
L 107.816611 148.892514 
L 108.539672 160.471005 
L 109.262733 158.650805 
L 109.985795 154.926138 
L 110.708856 149.667785 
L 111.431917 150.325079 
L 112.154979 148.100391 
L 112.87804 146.330752 
L 113.601101 142.825183 
L 114.324163 143.920674 
L 115.047224 147.999269 
L 115.770285 136.285949 
L 116.493347 135.830899 
L 117.216408 135.510678 
L 117.93947 135.392703 
L 118.662531 130.842204 
L 120.108654 125.415314 
L 120.831715 127.016415 
L 121.554776 126.291706 
L 122.277838 127.8591 
L 123.000899 120.713132 
L 123.72396 124.724312 
L 124.447022 126.81417 
L 125.170083 122.752429 
L 125.893144 120.207521 
L 126.616206 123.241187 
L 127.339267 120.443473 
L 128.062328 115.185119 
L 128.78539 116.078365 
L 129.508451 115.69073 
L 130.231512 112.58965 
L 130.954574 115.303095 
L 131.677635 116.162633 
L 132.400696 114.91546 
L 133.123758 114.157043 
L 133.846819 113.651432 
L 134.569881 111.662696 
L 135.292942 112.31999 
L 136.016003 113.297505 
L 136.739065 112.016624 
L 137.462126 113.010992 
L 138.185187 111.696404 
L 138.908249 151.100349 
L 139.63131 143.684722 
L 140.354371 143.819551 
L 141.077433 147.763317 
L 141.800494 144.274601 
L 142.523555 149.78576 
L 143.246617 151.437423 
L 143.969678 145.875703 
L 145.415801 132.527574 
L 146.138862 129.881543 
L 146.861923 144.695944 
L 147.584985 132.409598 
L 148.308046 136.892682 
L 149.031108 130.892765 
L 149.754169 144.308309 
L 150.47723 128.887175 
L 151.200292 123.089503 
L 151.923353 133.505088 
L 152.646414 134.212944 
L 153.369476 130.471423 
L 154.092537 129.005151 
L 154.815598 131.347815 
L 155.53866 126.797317 
L 156.261721 142.403841 
L 156.984782 131.73545 
L 157.707844 128.381564 
L 158.430905 122.432209 
L 159.153966 135.476971 
L 159.877028 128.111905 
L 160.600089 125.566997 
L 161.32315 132.156793 
L 162.046212 122.971527 
L 162.769273 132.05567 
L 163.492334 131.684889 
L 164.215396 122.16255 
L 164.938457 131.73545 
L 165.661519 123.241187 
L 166.38458 124.690605 
L 167.107641 118.134516 
L 167.830703 124.016457 
L 168.553764 125.71868 
L 169.276825 125.668119 
L 169.999887 133.201722 
L 170.722948 119.482812 
L 171.446009 124.94341 
L 172.169071 118.92664 
L 172.892132 126.375974 
L 173.615193 117.005318 
L 174.338255 121.303011 
L 175.061316 114.443556 
L 175.784377 117.527783 
L 176.507439 111.511013 
L 177.2305 110.196424 
L 177.953561 120.93223 
L 178.676623 124.926556 
L 180.845807 117.190709 
L 181.568868 118.522151 
L 182.29193 113.128968 
L 183.014991 116.280609 
L 183.738052 107.280735 
L 184.461114 109.303178 
L 185.184175 116.617683 
L 185.907236 109.505423 
L 186.630298 106.488611 
L 187.353359 111.511013 
L 188.07642 110.348108 
L 188.799482 112.404259 
L 189.522543 108.224542 
L 190.245604 110.937987 
L 190.968666 111.308769 
L 191.691727 114.241312 
L 192.414788 108.275103 
L 193.13785 114.612093 
L 193.860911 102.561699 
L 194.583972 108.089712 
L 195.307034 105.393121 
L 196.030095 100.674085 
L 196.753157 98.297714 
L 198.199279 105.477389 
L 198.922341 103.404384 
L 199.645402 102.763944 
L 200.368463 101.280818 
L 201.091525 110.027887 
L 201.814586 101.044867 
L 202.537647 101.280818 
L 203.260709 100.151621 
L 203.98377 101.938113 
L 204.706831 97.37076 
L 205.429893 98.028055 
L 206.152954 96.932564 
L 206.876015 98.837032 
L 207.599077 99.915669 
L 208.322138 97.05054 
L 209.045199 97.556151 
L 209.768261 97.18537 
L 210.491322 95.921342 
L 211.214383 96.544929 
L 211.937445 95.264048 
L 212.660506 95.04495 
L 213.383568 96.393246 
L 214.106629 92.921384 
L 214.82969 96.005611 
L 215.552752 94.202265 
L 216.275813 95.95505 
L 216.998874 94.370802 
L 217.721936 94.286534 
L 218.444997 94.5899 
L 219.168058 93.662947 
L 219.89112 93.258458 
L 220.614181 93.426995 
L 221.337242 92.955092 
L 222.060304 93.35958 
L 222.783365 93.62924 
L 223.506426 93.275312 
L 224.952549 93.747215 
L 225.67561 142.606085 
L 226.398672 141.57801 
L 227.121733 127.319781 
L 227.844794 126.881585 
L 228.567856 128.17932 
L 229.290917 139.858932 
L 230.013979 129.27481 
L 230.73704 126.274852 
L 231.460101 132.392744 
L 232.183163 125.651265 
L 232.906224 127.353489 
L 233.629285 136.690437 
L 234.352347 122.786137 
L 235.075408 130.488277 
L 235.798469 131.937695 
L 236.521531 131.111863 
L 237.244592 119.904154 
L 237.967653 124.016457 
L 238.690715 127.420904 
L 239.413776 138.476929 
L 240.136837 135.443264 
L 240.859899 118.623273 
L 241.58296 138.308392 
L 242.306021 129.038859 
L 243.029083 126.544511 
L 243.752144 124.606336 
L 244.475206 131.314108 
L 245.198267 131.87028 
L 245.921328 132.224207 
L 246.64439 118.185077 
L 247.367451 131.432084 
L 248.090512 119.786178 
L 248.813574 129.392786 
L 249.536635 124.184994 
L 250.259696 121.640085 
L 250.982758 124.319823 
L 251.705819 122.819844 
L 252.42888 132.898355 
L 253.151942 123.982749 
L 253.875003 125.465875 
L 254.598064 122.752429 
L 255.321126 130.555691 
L 256.044187 134.280359 
L 256.767248 123.679383 
L 257.49031 115.876121 
L 258.213371 133.050039 
L 258.936432 125.314191 
L 259.659494 130.252325 
L 260.382555 125.769241 
L 261.105617 129.257957 
L 261.828678 118.033394 
L 262.551739 121.960305 
L 263.274801 132.561281 
L 263.997862 123.763651 
L 264.720923 123.763651 
L 265.443985 120.359204 
L 266.167046 125.07824 
L 266.890107 124.370384 
L 267.613169 128.533248 
L 268.33623 119.449105 
L 269.059291 129.443347 
L 269.782353 116.449146 
L 270.505414 121.454695 
L 271.228475 132.628696 
L 271.951537 116.752513 
L 272.674598 119.819886 
L 273.397659 136.117412 
L 274.120721 115.791852 
L 274.843782 114.207605 
L 275.566843 123.173772 
L 276.289905 115.37051 
L 277.012966 122.331087 
L 277.736028 118.589566 
L 278.459089 118.47159 
L 279.18215 117.258124 
L 279.905212 128.887175 
L 280.628273 129.359079 
L 281.351334 122.954674 
L 282.074396 113.786262 
L 282.797457 125.39846 
L 283.520518 116.971611 
L 284.24358 120.106399 
L 284.966641 125.786095 
L 285.689702 122.870405 
L 286.412764 119.38169 
L 287.135825 121.977159 
L 287.858886 116.836781 
L 288.581948 114.544678 
L 290.02807 124.437799 
L 291.474193 115.589608 
L 292.197255 120.325497 
L 292.920316 128.297296 
L 293.643377 109.977326 
L 294.366439 109.657106 
L 295.0895 117.443514 
L 295.812561 112.488527 
L 296.535623 115.539047 
L 297.258684 114.443556 
L 297.981745 110.600913 
L 298.704807 108.291957 
L 299.427868 124.538921 
L 300.150929 115.319949 
L 300.873991 112.404259 
L 301.597052 116.752513 
L 302.320113 120.173814 
L 303.043175 122.48277 
L 303.766236 138.123002 
L 304.489297 115.471632 
L 305.212359 116.095219 
L 305.93542 128.31415 
L 306.658481 118.522151 
L 307.381543 112.741333 
L 308.104604 119.668203 
L 308.827666 103.353823 
L 309.550727 114.426703 
L 310.273788 108.072859 
L 310.99685 115.067143 
L 311.719911 113.027846 
L 312.442972 115.336802 
L 313.166034 117.173855 
L 313.889095 113.971653 
L 314.612156 108.140273 
L 315.335218 117.746881 
L 316.058279 114.864899 
L 316.78134 124.909703 
L 317.504402 113.128968 
L 318.227463 115.505339 
L 318.950524 112.893016 
L 319.673586 107.98859 
L 320.396647 108.494201 
L 321.119708 109.690814 
L 321.84277 117.392953 
L 322.565831 101.6516 
L 323.288892 103.724605 
L 324.011954 103.320116 
L 324.735015 102.511138 
L 325.458077 106.926807 
L 326.181138 107.870614 
L 326.904199 104.415606 
L 327.627261 98.567373 
L 328.350322 107.07849 
L 329.073383 113.179529 
L 329.796445 102.29204 
L 330.519506 101.483063 
L 331.242567 103.724605 
L 331.965629 102.74709 
L 332.68869 105.831317 
L 333.411751 103.943703 
L 334.134813 110.331254 
L 334.857874 103.994264 
L 335.580935 104.365045 
L 336.303997 103.303262 
L 337.027058 101.028013 
L 337.750119 103.370677 
L 338.473181 104.499875 
L 339.196242 101.381941 
L 339.919304 99.730278 
L 340.642365 97.741542 
L 341.365426 102.527992 
L 342.088488 103.252701 
L 342.811549 101.112281 
L 343.53461 99.865108 
L 344.257672 98.179738 
L 344.980733 108.376225 
L 345.703794 98.146031 
L 346.426856 101.483063 
L 347.149917 92.938238 
L 347.872978 101.432502 
L 348.59604 96.747174 
L 349.319101 98.584227 
L 350.042162 101.314526 
L 350.765224 90.696696 
L 351.488285 101.095428 
L 352.211346 99.342643 
L 352.934408 94.606754 
L 354.38053 96.308978 
L 355.103592 100.960598 
L 355.826653 96.86515 
L 356.549715 95.061804 
L 357.272776 93.780923 
L 357.995837 100.353865 
L 358.718899 94.320241 
L 359.44196 94.387656 
L 360.165021 93.241605 
L 360.888083 98.449397 
L 361.611144 98.685349 
L 362.334205 92.112407 
L 363.057267 91.522527 
L 363.780328 91.825894 
L 364.503389 87.191127 
L 365.226451 92.247236 
L 366.672573 89.533791 
L 367.395635 97.18537 
L 368.118696 90.730404 
L 368.841757 93.94946 
L 369.564819 89.095595 
L 370.28788 92.415773 
L 371.010941 92.516896 
L 371.734003 89.685474 
L 372.457064 89.331547 
L 373.180126 88.25291 
L 373.903187 89.3484 
L 374.626248 89.247278 
L 375.34931 87.241688 
L 376.072371 88.606838 
L 376.795432 91.252868 
L 377.518494 87.123712 
L 378.241555 89.011326 
L 378.964616 87.983251 
L 379.687678 89.634913 
L 380.410739 89.415815 
L 381.1338 87.47764 
L 381.856862 88.589984 
L 382.579923 90.764111 
L 383.302984 89.820304 
L 384.026046 87.679884 
L 384.749107 87.848421 
L 385.472168 86.870907 
L 386.19523 88.472008 
L 386.918291 87.359664 
L 387.641353 86.685516 
L 389.810537 88.168641 
L 390.533598 87.34281 
L 391.256659 87.679884 
L 391.979721 87.663031 
L 392.702782 87.123712 
L 393.425843 87.629323 
L 394.148905 86.584394 
L 394.871966 85.9271 
L 395.595027 86.854053 
L 396.318089 87.258542 
L 397.764211 87.073151 
L 398.487273 87.427079 
L 398.487273 87.427079 
" style="fill:none;stroke:#2ca02c;stroke-linecap:square;stroke-width:1.5;"/>
   </g>
   <g id="patch_3">
    <path d="M 57.6 307.584 
L 57.6 41.472 
" style="fill:none;stroke:#000000;stroke-linecap:square;stroke-linejoin:miter;stroke-width:0.8;"/>
   </g>
   <g id="patch_4">
    <path d="M 414.72 307.584 
L 414.72 41.472 
" style="fill:none;stroke:#000000;stroke-linecap:square;stroke-linejoin:miter;stroke-width:0.8;"/>
   </g>
   <g id="patch_5">
    <path d="M 57.6 307.584 
L 414.72 307.584 
" style="fill:none;stroke:#000000;stroke-linecap:square;stroke-linejoin:miter;stroke-width:0.8;"/>
   </g>
   <g id="patch_6">
    <path d="M 57.6 41.472 
L 414.72 41.472 
" style="fill:none;stroke:#000000;stroke-linecap:square;stroke-linejoin:miter;stroke-width:0.8;"/>
   </g>
   <g id="text_21">
    <!-- Training and Validation Accuracy -->
    <g transform="translate(138.4575 35.472)scale(0.12 -0.12)">
     <defs>
      <path d="M -19 4666 
L 3928 4666 
L 3928 4134 
L 2272 4134 
L 2272 0 
L 1638 0 
L 1638 4134 
L -19 4134 
L -19 4666 
z
" id="DejaVuSans-54" transform="scale(0.015625)"/>
      <path d="M 603 3500 
L 1178 3500 
L 1178 0 
L 603 0 
L 603 3500 
z
M 603 4863 
L 1178 4863 
L 1178 4134 
L 603 4134 
L 603 4863 
z
" id="DejaVuSans-69" transform="scale(0.015625)"/>
      <path d="M 3513 2113 
L 3513 0 
L 2938 0 
L 2938 2094 
Q 2938 2591 2744 2837 
Q 2550 3084 2163 3084 
Q 1697 3084 1428 2787 
Q 1159 2491 1159 1978 
L 1159 0 
L 581 0 
L 581 3500 
L 1159 3500 
L 1159 2956 
Q 1366 3272 1645 3428 
Q 1925 3584 2291 3584 
Q 2894 3584 3203 3211 
Q 3513 2838 3513 2113 
z
" id="DejaVuSans-6e" transform="scale(0.015625)"/>
      <path d="M 2906 1791 
Q 2906 2416 2648 2759 
Q 2391 3103 1925 3103 
Q 1463 3103 1205 2759 
Q 947 2416 947 1791 
Q 947 1169 1205 825 
Q 1463 481 1925 481 
Q 2391 481 2648 825 
Q 2906 1169 2906 1791 
z
M 3481 434 
Q 3481 -459 3084 -895 
Q 2688 -1331 1869 -1331 
Q 1566 -1331 1297 -1286 
Q 1028 -1241 775 -1147 
L 775 -588 
Q 1028 -725 1275 -790 
Q 1522 -856 1778 -856 
Q 2344 -856 2625 -561 
Q 2906 -266 2906 331 
L 2906 616 
Q 2728 306 2450 153 
Q 2172 0 1784 0 
Q 1141 0 747 490 
Q 353 981 353 1791 
Q 353 2603 747 3093 
Q 1141 3584 1784 3584 
Q 2172 3584 2450 3431 
Q 2728 3278 2906 2969 
L 2906 3500 
L 3481 3500 
L 3481 434 
z
" id="DejaVuSans-67" transform="scale(0.015625)"/>
      <path id="DejaVuSans-20" transform="scale(0.015625)"/>
      <path d="M 2906 2969 
L 2906 4863 
L 3481 4863 
L 3481 0 
L 2906 0 
L 2906 525 
Q 2725 213 2448 61 
Q 2172 -91 1784 -91 
Q 1150 -91 751 415 
Q 353 922 353 1747 
Q 353 2572 751 3078 
Q 1150 3584 1784 3584 
Q 2172 3584 2448 3432 
Q 2725 3281 2906 2969 
z
M 947 1747 
Q 947 1113 1208 752 
Q 1469 391 1925 391 
Q 2381 391 2643 752 
Q 2906 1113 2906 1747 
Q 2906 2381 2643 2742 
Q 2381 3103 1925 3103 
Q 1469 3103 1208 2742 
Q 947 2381 947 1747 
z
" id="DejaVuSans-64" transform="scale(0.015625)"/>
      <path d="M 1831 0 
L 50 4666 
L 709 4666 
L 2188 738 
L 3669 4666 
L 4325 4666 
L 2547 0 
L 1831 0 
z
" id="DejaVuSans-56" transform="scale(0.015625)"/>
      <path d="M 603 4863 
L 1178 4863 
L 1178 0 
L 603 0 
L 603 4863 
z
" id="DejaVuSans-6c" transform="scale(0.015625)"/>
      <path d="M 1172 4494 
L 1172 3500 
L 2356 3500 
L 2356 3053 
L 1172 3053 
L 1172 1153 
Q 1172 725 1289 603 
Q 1406 481 1766 481 
L 2356 481 
L 2356 0 
L 1766 0 
Q 1100 0 847 248 
Q 594 497 594 1153 
L 594 3053 
L 172 3053 
L 172 3500 
L 594 3500 
L 594 4494 
L 1172 4494 
z
" id="DejaVuSans-74" transform="scale(0.015625)"/>
     </defs>
     <use xlink:href="#DejaVuSans-54"/>
     <use x="46.333984" xlink:href="#DejaVuSans-72"/>
     <use x="87.447266" xlink:href="#DejaVuSans-61"/>
     <use x="148.726562" xlink:href="#DejaVuSans-69"/>
     <use x="176.509766" xlink:href="#DejaVuSans-6e"/>
     <use x="239.888672" xlink:href="#DejaVuSans-69"/>
     <use x="267.671875" xlink:href="#DejaVuSans-6e"/>
     <use x="331.050781" xlink:href="#DejaVuSans-67"/>
     <use x="394.527344" xlink:href="#DejaVuSans-20"/>
     <use x="426.314453" xlink:href="#DejaVuSans-61"/>
     <use x="487.59375" xlink:href="#DejaVuSans-6e"/>
     <use x="550.972656" xlink:href="#DejaVuSans-64"/>
     <use x="614.449219" xlink:href="#DejaVuSans-20"/>
     <use x="646.236328" xlink:href="#DejaVuSans-56"/>
     <use x="706.894531" xlink:href="#DejaVuSans-61"/>
     <use x="768.173828" xlink:href="#DejaVuSans-6c"/>
     <use x="795.957031" xlink:href="#DejaVuSans-69"/>
     <use x="823.740234" xlink:href="#DejaVuSans-64"/>
     <use x="887.216797" xlink:href="#DejaVuSans-61"/>
     <use x="948.496094" xlink:href="#DejaVuSans-74"/>
     <use x="987.705078" xlink:href="#DejaVuSans-69"/>
     <use x="1015.488281" xlink:href="#DejaVuSans-6f"/>
     <use x="1076.669922" xlink:href="#DejaVuSans-6e"/>
     <use x="1140.048828" xlink:href="#DejaVuSans-20"/>
     <use x="1171.835938" xlink:href="#DejaVuSans-41"/>
     <use x="1238.494141" xlink:href="#DejaVuSans-63"/>
     <use x="1293.474609" xlink:href="#DejaVuSans-63"/>
     <use x="1348.455078" xlink:href="#DejaVuSans-75"/>
     <use x="1411.833984" xlink:href="#DejaVuSans-72"/>
     <use x="1452.947266" xlink:href="#DejaVuSans-61"/>
     <use x="1514.226562" xlink:href="#DejaVuSans-63"/>
     <use x="1569.207031" xlink:href="#DejaVuSans-79"/>
    </g>
   </g>
   <g id="legend_1">
    <g id="patch_7">
     <path d="M 239.893438 302.584 
L 407.72 302.584 
Q 409.72 302.584 409.72 300.584 
L 409.72 257.549625 
Q 409.72 255.549625 407.72 255.549625 
L 239.893438 255.549625 
Q 237.893438 255.549625 237.893438 257.549625 
L 237.893438 300.584 
Q 237.893438 302.584 239.893438 302.584 
z
" style="fill:#ffffff;opacity:0.8;stroke:#cccccc;stroke-linejoin:miter;"/>
    </g>
    <g id="line2d_22">
     <path d="M 241.893438 263.648062 
L 261.893438 263.648062 
" style="fill:none;stroke:#1f77b4;stroke-linecap:square;stroke-width:1.5;"/>
    </g>
    <g id="line2d_23"/>
    <g id="text_22">
     <!-- Train Accuracy -->
     <g transform="translate(269.893438 267.148062)scale(0.1 -0.1)">
      <use xlink:href="#DejaVuSans-54"/>
      <use x="46.333984" xlink:href="#DejaVuSans-72"/>
      <use x="87.447266" xlink:href="#DejaVuSans-61"/>
      <use x="148.726562" xlink:href="#DejaVuSans-69"/>
      <use x="176.509766" xlink:href="#DejaVuSans-6e"/>
      <use x="239.888672" xlink:href="#DejaVuSans-20"/>
      <use x="271.675781" xlink:href="#DejaVuSans-41"/>
      <use x="338.333984" xlink:href="#DejaVuSans-63"/>
      <use x="393.314453" xlink:href="#DejaVuSans-63"/>
      <use x="448.294922" xlink:href="#DejaVuSans-75"/>
      <use x="511.673828" xlink:href="#DejaVuSans-72"/>
      <use x="552.787109" xlink:href="#DejaVuSans-61"/>
      <use x="614.066406" xlink:href="#DejaVuSans-63"/>
      <use x="669.046875" xlink:href="#DejaVuSans-79"/>
     </g>
    </g>
    <g id="line2d_24">
     <path d="M 241.893438 278.326188 
L 261.893438 278.326188 
" style="fill:none;stroke:#ff7f0e;stroke-linecap:square;stroke-width:1.5;"/>
    </g>
    <g id="line2d_25"/>
    <g id="text_23">
     <!-- Validation Accuracy -->
     <g transform="translate(269.893438 281.826188)scale(0.1 -0.1)">
      <use xlink:href="#DejaVuSans-56"/>
      <use x="60.658203" xlink:href="#DejaVuSans-61"/>
      <use x="121.9375" xlink:href="#DejaVuSans-6c"/>
      <use x="149.720703" xlink:href="#DejaVuSans-69"/>
      <use x="177.503906" xlink:href="#DejaVuSans-64"/>
      <use x="240.980469" xlink:href="#DejaVuSans-61"/>
      <use x="302.259766" xlink:href="#DejaVuSans-74"/>
      <use x="341.46875" xlink:href="#DejaVuSans-69"/>
      <use x="369.251953" xlink:href="#DejaVuSans-6f"/>
      <use x="430.433594" xlink:href="#DejaVuSans-6e"/>
      <use x="493.8125" xlink:href="#DejaVuSans-20"/>
      <use x="525.599609" xlink:href="#DejaVuSans-41"/>
      <use x="592.257812" xlink:href="#DejaVuSans-63"/>
      <use x="647.238281" xlink:href="#DejaVuSans-63"/>
      <use x="702.21875" xlink:href="#DejaVuSans-75"/>
      <use x="765.597656" xlink:href="#DejaVuSans-72"/>
      <use x="806.710938" xlink:href="#DejaVuSans-61"/>
      <use x="867.990234" xlink:href="#DejaVuSans-63"/>
      <use x="922.970703" xlink:href="#DejaVuSans-79"/>
     </g>
    </g>
    <g id="line2d_26">
     <path d="M 241.893438 293.004312 
L 261.893438 293.004312 
" style="fill:none;stroke:#2ca02c;stroke-linecap:square;stroke-width:1.5;"/>
    </g>
    <g id="line2d_27"/>
    <g id="text_24">
     <!-- Robust Validation Accuracy -->
     <g transform="translate(269.893438 296.504312)scale(0.1 -0.1)">
      <defs>
       <path d="M 2841 2188 
Q 3044 2119 3236 1894 
Q 3428 1669 3622 1275 
L 4263 0 
L 3584 0 
L 2988 1197 
Q 2756 1666 2539 1819 
Q 2322 1972 1947 1972 
L 1259 1972 
L 1259 0 
L 628 0 
L 628 4666 
L 2053 4666 
Q 2853 4666 3247 4331 
Q 3641 3997 3641 3322 
Q 3641 2881 3436 2590 
Q 3231 2300 2841 2188 
z
M 1259 4147 
L 1259 2491 
L 2053 2491 
Q 2509 2491 2742 2702 
Q 2975 2913 2975 3322 
Q 2975 3731 2742 3939 
Q 2509 4147 2053 4147 
L 1259 4147 
z
" id="DejaVuSans-52" transform="scale(0.015625)"/>
       <path d="M 3116 1747 
Q 3116 2381 2855 2742 
Q 2594 3103 2138 3103 
Q 1681 3103 1420 2742 
Q 1159 2381 1159 1747 
Q 1159 1113 1420 752 
Q 1681 391 2138 391 
Q 2594 391 2855 752 
Q 3116 1113 3116 1747 
z
M 1159 2969 
Q 1341 3281 1617 3432 
Q 1894 3584 2278 3584 
Q 2916 3584 3314 3078 
Q 3713 2572 3713 1747 
Q 3713 922 3314 415 
Q 2916 -91 2278 -91 
Q 1894 -91 1617 61 
Q 1341 213 1159 525 
L 1159 0 
L 581 0 
L 581 4863 
L 1159 4863 
L 1159 2969 
z
" id="DejaVuSans-62" transform="scale(0.015625)"/>
      </defs>
      <use xlink:href="#DejaVuSans-52"/>
      <use x="64.982422" xlink:href="#DejaVuSans-6f"/>
      <use x="126.164062" xlink:href="#DejaVuSans-62"/>
      <use x="189.640625" xlink:href="#DejaVuSans-75"/>
      <use x="253.019531" xlink:href="#DejaVuSans-73"/>
      <use x="305.119141" xlink:href="#DejaVuSans-74"/>
      <use x="344.328125" xlink:href="#DejaVuSans-20"/>
      <use x="376.115234" xlink:href="#DejaVuSans-56"/>
      <use x="436.773438" xlink:href="#DejaVuSans-61"/>
      <use x="498.052734" xlink:href="#DejaVuSans-6c"/>
      <use x="525.835938" xlink:href="#DejaVuSans-69"/>
      <use x="553.619141" xlink:href="#DejaVuSans-64"/>
      <use x="617.095703" xlink:href="#DejaVuSans-61"/>
      <use x="678.375" xlink:href="#DejaVuSans-74"/>
      <use x="717.583984" xlink:href="#DejaVuSans-69"/>
      <use x="745.367188" xlink:href="#DejaVuSans-6f"/>
      <use x="806.548828" xlink:href="#DejaVuSans-6e"/>
      <use x="869.927734" xlink:href="#DejaVuSans-20"/>
      <use x="901.714844" xlink:href="#DejaVuSans-41"/>
      <use x="968.373047" xlink:href="#DejaVuSans-63"/>
      <use x="1023.353516" xlink:href="#DejaVuSans-63"/>
      <use x="1078.333984" xlink:href="#DejaVuSans-75"/>
      <use x="1141.712891" xlink:href="#DejaVuSans-72"/>
      <use x="1182.826172" xlink:href="#DejaVuSans-61"/>
      <use x="1244.105469" xlink:href="#DejaVuSans-63"/>
      <use x="1299.085938" xlink:href="#DejaVuSans-79"/>
     </g>
    </g>
   </g>
  </g>
 </g>
 <defs>
  <clipPath id="pfbff9c627f">
   <rect height="266.112" width="357.12" x="57.6" y="41.472"/>
  </clipPath>
 </defs>
</svg>
