<?xml version="1.0" encoding="utf-8" standalone="no"?>
<!DOCTYPE svg PUBLIC "-//W3C//DTD SVG 1.1//EN"
  "http://www.w3.org/Graphics/SVG/1.1/DTD/svg11.dtd">
<svg height="345.6pt" version="1.1" viewBox="0 0 460.8 345.6" width="460.8pt" xmlns="http://www.w3.org/2000/svg" xmlns:xlink="http://www.w3.org/1999/xlink">
 <metadata>
  <rdf:RDF xmlns:cc="http://creativecommons.org/ns#" xmlns:dc="http://purl.org/dc/elements/1.1/" xmlns:rdf="http://www.w3.org/1999/02/22-rdf-syntax-ns#">
   <cc:Work>
    <dc:type rdf:resource="http://purl.org/dc/dcmitype/StillImage"/>
    <dc:date>2024-02-14T19:47:45.705777</dc:date>
    <dc:format>image/svg+xml</dc:format>
    <dc:creator>
     <cc:Agent>
      <dc:title>Matplotlib v3.4.3, https://matplotlib.org/</dc:title>
     </cc:Agent>
    </dc:creator>
   </cc:Work>
  </rdf:RDF>
 </metadata>
 <defs>
  <style type="text/css">*{stroke-linecap:butt;stroke-linejoin:round;}</style>
 </defs>
 <g id="figure_1">
  <g id="patch_1">
   <path d="M 0 345.6 
L 460.8 345.6 
L 460.8 0 
L 0 0 
z
" style="fill:#ffffff;"/>
  </g>
  <g id="axes_1">
   <g id="patch_2">
    <path d="M 57.6 307.584 
L 414.72 307.584 
L 414.72 41.472 
L 57.6 41.472 
z
" style="fill:#ffffff;"/>
   </g>
   <g id="matplotlib.axis_1">
    <g id="xtick_1">
     <g id="line2d_1">
      <defs>
       <path d="M 0 0 
L 0 3.5 
" id="m4749871d37" style="stroke:#000000;stroke-width:0.8;"/>
      </defs>
      <g>
       <use style="stroke:#000000;stroke-width:0.8;" x="73.832727" xlink:href="#m4749871d37" y="307.584"/>
      </g>
     </g>
     <g id="text_1">
      <!-- 1 -->
      <g transform="translate(70.651477 322.182437)scale(0.1 -0.1)">
       <defs>
        <path d="M 794 531 
L 1825 531 
L 1825 4091 
L 703 3866 
L 703 4441 
L 1819 4666 
L 2450 4666 
L 2450 531 
L 3481 531 
L 3481 0 
L 794 0 
L 794 531 
z
" id="DejaVuSans-31" transform="scale(0.015625)"/>
       </defs>
       <use xlink:href="#DejaVuSans-31"/>
      </g>
     </g>
    </g>
    <g id="xtick_2">
     <g id="line2d_2">
      <g>
       <use style="stroke:#000000;stroke-width:0.8;" x="109.724185" xlink:href="#m4749871d37" y="307.584"/>
      </g>
     </g>
     <g id="text_2">
      <!-- 23 -->
      <g transform="translate(103.361685 322.182437)scale(0.1 -0.1)">
       <defs>
        <path d="M 1228 531 
L 3431 531 
L 3431 0 
L 469 0 
L 469 531 
Q 828 903 1448 1529 
Q 2069 2156 2228 2338 
Q 2531 2678 2651 2914 
Q 2772 3150 2772 3378 
Q 2772 3750 2511 3984 
Q 2250 4219 1831 4219 
Q 1534 4219 1204 4116 
Q 875 4013 500 3803 
L 500 4441 
Q 881 4594 1212 4672 
Q 1544 4750 1819 4750 
Q 2544 4750 2975 4387 
Q 3406 4025 3406 3419 
Q 3406 3131 3298 2873 
Q 3191 2616 2906 2266 
Q 2828 2175 2409 1742 
Q 1991 1309 1228 531 
z
" id="DejaVuSans-32" transform="scale(0.015625)"/>
        <path d="M 2597 2516 
Q 3050 2419 3304 2112 
Q 3559 1806 3559 1356 
Q 3559 666 3084 287 
Q 2609 -91 1734 -91 
Q 1441 -91 1130 -33 
Q 819 25 488 141 
L 488 750 
Q 750 597 1062 519 
Q 1375 441 1716 441 
Q 2309 441 2620 675 
Q 2931 909 2931 1356 
Q 2931 1769 2642 2001 
Q 2353 2234 1838 2234 
L 1294 2234 
L 1294 2753 
L 1863 2753 
Q 2328 2753 2575 2939 
Q 2822 3125 2822 3475 
Q 2822 3834 2567 4026 
Q 2313 4219 1838 4219 
Q 1578 4219 1281 4162 
Q 984 4106 628 3988 
L 628 4550 
Q 988 4650 1302 4700 
Q 1616 4750 1894 4750 
Q 2613 4750 3031 4423 
Q 3450 4097 3450 3541 
Q 3450 3153 3228 2886 
Q 3006 2619 2597 2516 
z
" id="DejaVuSans-33" transform="scale(0.015625)"/>
       </defs>
       <use xlink:href="#DejaVuSans-32"/>
       <use x="63.623047" xlink:href="#DejaVuSans-33"/>
      </g>
     </g>
    </g>
    <g id="xtick_3">
     <g id="line2d_3">
      <g>
       <use style="stroke:#000000;stroke-width:0.8;" x="145.615642" xlink:href="#m4749871d37" y="307.584"/>
      </g>
     </g>
     <g id="text_3">
      <!-- 45 -->
      <g transform="translate(139.253142 322.182437)scale(0.1 -0.1)">
       <defs>
        <path d="M 2419 4116 
L 825 1625 
L 2419 1625 
L 2419 4116 
z
M 2253 4666 
L 3047 4666 
L 3047 1625 
L 3713 1625 
L 3713 1100 
L 3047 1100 
L 3047 0 
L 2419 0 
L 2419 1100 
L 313 1100 
L 313 1709 
L 2253 4666 
z
" id="DejaVuSans-34" transform="scale(0.015625)"/>
        <path d="M 691 4666 
L 3169 4666 
L 3169 4134 
L 1269 4134 
L 1269 2991 
Q 1406 3038 1543 3061 
Q 1681 3084 1819 3084 
Q 2600 3084 3056 2656 
Q 3513 2228 3513 1497 
Q 3513 744 3044 326 
Q 2575 -91 1722 -91 
Q 1428 -91 1123 -41 
Q 819 9 494 109 
L 494 744 
Q 775 591 1075 516 
Q 1375 441 1709 441 
Q 2250 441 2565 725 
Q 2881 1009 2881 1497 
Q 2881 1984 2565 2268 
Q 2250 2553 1709 2553 
Q 1456 2553 1204 2497 
Q 953 2441 691 2322 
L 691 4666 
z
" id="DejaVuSans-35" transform="scale(0.015625)"/>
       </defs>
       <use xlink:href="#DejaVuSans-34"/>
       <use x="63.623047" xlink:href="#DejaVuSans-35"/>
      </g>
     </g>
    </g>
    <g id="xtick_4">
     <g id="line2d_4">
      <g>
       <use style="stroke:#000000;stroke-width:0.8;" x="181.507099" xlink:href="#m4749871d37" y="307.584"/>
      </g>
     </g>
     <g id="text_4">
      <!-- 67 -->
      <g transform="translate(175.144599 322.182437)scale(0.1 -0.1)">
       <defs>
        <path d="M 2113 2584 
Q 1688 2584 1439 2293 
Q 1191 2003 1191 1497 
Q 1191 994 1439 701 
Q 1688 409 2113 409 
Q 2538 409 2786 701 
Q 3034 994 3034 1497 
Q 3034 2003 2786 2293 
Q 2538 2584 2113 2584 
z
M 3366 4563 
L 3366 3988 
Q 3128 4100 2886 4159 
Q 2644 4219 2406 4219 
Q 1781 4219 1451 3797 
Q 1122 3375 1075 2522 
Q 1259 2794 1537 2939 
Q 1816 3084 2150 3084 
Q 2853 3084 3261 2657 
Q 3669 2231 3669 1497 
Q 3669 778 3244 343 
Q 2819 -91 2113 -91 
Q 1303 -91 875 529 
Q 447 1150 447 2328 
Q 447 3434 972 4092 
Q 1497 4750 2381 4750 
Q 2619 4750 2861 4703 
Q 3103 4656 3366 4563 
z
" id="DejaVuSans-36" transform="scale(0.015625)"/>
        <path d="M 525 4666 
L 3525 4666 
L 3525 4397 
L 1831 0 
L 1172 0 
L 2766 4134 
L 525 4134 
L 525 4666 
z
" id="DejaVuSans-37" transform="scale(0.015625)"/>
       </defs>
       <use xlink:href="#DejaVuSans-36"/>
       <use x="63.623047" xlink:href="#DejaVuSans-37"/>
      </g>
     </g>
    </g>
    <g id="xtick_5">
     <g id="line2d_5">
      <g>
       <use style="stroke:#000000;stroke-width:0.8;" x="217.398556" xlink:href="#m4749871d37" y="307.584"/>
      </g>
     </g>
     <g id="text_5">
      <!-- 89 -->
      <g transform="translate(211.036056 322.182437)scale(0.1 -0.1)">
       <defs>
        <path d="M 2034 2216 
Q 1584 2216 1326 1975 
Q 1069 1734 1069 1313 
Q 1069 891 1326 650 
Q 1584 409 2034 409 
Q 2484 409 2743 651 
Q 3003 894 3003 1313 
Q 3003 1734 2745 1975 
Q 2488 2216 2034 2216 
z
M 1403 2484 
Q 997 2584 770 2862 
Q 544 3141 544 3541 
Q 544 4100 942 4425 
Q 1341 4750 2034 4750 
Q 2731 4750 3128 4425 
Q 3525 4100 3525 3541 
Q 3525 3141 3298 2862 
Q 3072 2584 2669 2484 
Q 3125 2378 3379 2068 
Q 3634 1759 3634 1313 
Q 3634 634 3220 271 
Q 2806 -91 2034 -91 
Q 1263 -91 848 271 
Q 434 634 434 1313 
Q 434 1759 690 2068 
Q 947 2378 1403 2484 
z
M 1172 3481 
Q 1172 3119 1398 2916 
Q 1625 2713 2034 2713 
Q 2441 2713 2670 2916 
Q 2900 3119 2900 3481 
Q 2900 3844 2670 4047 
Q 2441 4250 2034 4250 
Q 1625 4250 1398 4047 
Q 1172 3844 1172 3481 
z
" id="DejaVuSans-38" transform="scale(0.015625)"/>
        <path d="M 703 97 
L 703 672 
Q 941 559 1184 500 
Q 1428 441 1663 441 
Q 2288 441 2617 861 
Q 2947 1281 2994 2138 
Q 2813 1869 2534 1725 
Q 2256 1581 1919 1581 
Q 1219 1581 811 2004 
Q 403 2428 403 3163 
Q 403 3881 828 4315 
Q 1253 4750 1959 4750 
Q 2769 4750 3195 4129 
Q 3622 3509 3622 2328 
Q 3622 1225 3098 567 
Q 2575 -91 1691 -91 
Q 1453 -91 1209 -44 
Q 966 3 703 97 
z
M 1959 2075 
Q 2384 2075 2632 2365 
Q 2881 2656 2881 3163 
Q 2881 3666 2632 3958 
Q 2384 4250 1959 4250 
Q 1534 4250 1286 3958 
Q 1038 3666 1038 3163 
Q 1038 2656 1286 2365 
Q 1534 2075 1959 2075 
z
" id="DejaVuSans-39" transform="scale(0.015625)"/>
       </defs>
       <use xlink:href="#DejaVuSans-38"/>
       <use x="63.623047" xlink:href="#DejaVuSans-39"/>
      </g>
     </g>
    </g>
    <g id="xtick_6">
     <g id="line2d_6">
      <g>
       <use style="stroke:#000000;stroke-width:0.8;" x="253.290014" xlink:href="#m4749871d37" y="307.584"/>
      </g>
     </g>
     <g id="text_6">
      <!-- 111 -->
      <g transform="translate(243.746264 322.182437)scale(0.1 -0.1)">
       <use xlink:href="#DejaVuSans-31"/>
       <use x="63.623047" xlink:href="#DejaVuSans-31"/>
       <use x="127.246094" xlink:href="#DejaVuSans-31"/>
      </g>
     </g>
    </g>
    <g id="xtick_7">
     <g id="line2d_7">
      <g>
       <use style="stroke:#000000;stroke-width:0.8;" x="289.181471" xlink:href="#m4749871d37" y="307.584"/>
      </g>
     </g>
     <g id="text_7">
      <!-- 133 -->
      <g transform="translate(279.637721 322.182437)scale(0.1 -0.1)">
       <use xlink:href="#DejaVuSans-31"/>
       <use x="63.623047" xlink:href="#DejaVuSans-33"/>
       <use x="127.246094" xlink:href="#DejaVuSans-33"/>
      </g>
     </g>
    </g>
    <g id="xtick_8">
     <g id="line2d_8">
      <g>
       <use style="stroke:#000000;stroke-width:0.8;" x="325.072928" xlink:href="#m4749871d37" y="307.584"/>
      </g>
     </g>
     <g id="text_8">
      <!-- 155 -->
      <g transform="translate(315.529178 322.182437)scale(0.1 -0.1)">
       <use xlink:href="#DejaVuSans-31"/>
       <use x="63.623047" xlink:href="#DejaVuSans-35"/>
       <use x="127.246094" xlink:href="#DejaVuSans-35"/>
      </g>
     </g>
    </g>
    <g id="xtick_9">
     <g id="line2d_9">
      <g>
       <use style="stroke:#000000;stroke-width:0.8;" x="360.964386" xlink:href="#m4749871d37" y="307.584"/>
      </g>
     </g>
     <g id="text_9">
      <!-- 177 -->
      <g transform="translate(351.420636 322.182437)scale(0.1 -0.1)">
       <use xlink:href="#DejaVuSans-31"/>
       <use x="63.623047" xlink:href="#DejaVuSans-37"/>
       <use x="127.246094" xlink:href="#DejaVuSans-37"/>
      </g>
     </g>
    </g>
    <g id="xtick_10">
     <g id="line2d_10">
      <g>
       <use style="stroke:#000000;stroke-width:0.8;" x="398.487273" xlink:href="#m4749871d37" y="307.584"/>
      </g>
     </g>
     <g id="text_10">
      <!-- 200 -->
      <g transform="translate(388.943523 322.182437)scale(0.1 -0.1)">
       <defs>
        <path d="M 2034 4250 
Q 1547 4250 1301 3770 
Q 1056 3291 1056 2328 
Q 1056 1369 1301 889 
Q 1547 409 2034 409 
Q 2525 409 2770 889 
Q 3016 1369 3016 2328 
Q 3016 3291 2770 3770 
Q 2525 4250 2034 4250 
z
M 2034 4750 
Q 2819 4750 3233 4129 
Q 3647 3509 3647 2328 
Q 3647 1150 3233 529 
Q 2819 -91 2034 -91 
Q 1250 -91 836 529 
Q 422 1150 422 2328 
Q 422 3509 836 4129 
Q 1250 4750 2034 4750 
z
" id="DejaVuSans-30" transform="scale(0.015625)"/>
       </defs>
       <use xlink:href="#DejaVuSans-32"/>
       <use x="63.623047" xlink:href="#DejaVuSans-30"/>
       <use x="127.246094" xlink:href="#DejaVuSans-30"/>
      </g>
     </g>
    </g>
    <g id="text_11">
     <!-- Epochs -->
     <g transform="translate(218.244375 335.860562)scale(0.1 -0.1)">
      <defs>
       <path d="M 628 4666 
L 3578 4666 
L 3578 4134 
L 1259 4134 
L 1259 2753 
L 3481 2753 
L 3481 2222 
L 1259 2222 
L 1259 531 
L 3634 531 
L 3634 0 
L 628 0 
L 628 4666 
z
" id="DejaVuSans-45" transform="scale(0.015625)"/>
       <path d="M 1159 525 
L 1159 -1331 
L 581 -1331 
L 581 3500 
L 1159 3500 
L 1159 2969 
Q 1341 3281 1617 3432 
Q 1894 3584 2278 3584 
Q 2916 3584 3314 3078 
Q 3713 2572 3713 1747 
Q 3713 922 3314 415 
Q 2916 -91 2278 -91 
Q 1894 -91 1617 61 
Q 1341 213 1159 525 
z
M 3116 1747 
Q 3116 2381 2855 2742 
Q 2594 3103 2138 3103 
Q 1681 3103 1420 2742 
Q 1159 2381 1159 1747 
Q 1159 1113 1420 752 
Q 1681 391 2138 391 
Q 2594 391 2855 752 
Q 3116 1113 3116 1747 
z
" id="DejaVuSans-70" transform="scale(0.015625)"/>
       <path d="M 1959 3097 
Q 1497 3097 1228 2736 
Q 959 2375 959 1747 
Q 959 1119 1226 758 
Q 1494 397 1959 397 
Q 2419 397 2687 759 
Q 2956 1122 2956 1747 
Q 2956 2369 2687 2733 
Q 2419 3097 1959 3097 
z
M 1959 3584 
Q 2709 3584 3137 3096 
Q 3566 2609 3566 1747 
Q 3566 888 3137 398 
Q 2709 -91 1959 -91 
Q 1206 -91 779 398 
Q 353 888 353 1747 
Q 353 2609 779 3096 
Q 1206 3584 1959 3584 
z
" id="DejaVuSans-6f" transform="scale(0.015625)"/>
       <path d="M 3122 3366 
L 3122 2828 
Q 2878 2963 2633 3030 
Q 2388 3097 2138 3097 
Q 1578 3097 1268 2742 
Q 959 2388 959 1747 
Q 959 1106 1268 751 
Q 1578 397 2138 397 
Q 2388 397 2633 464 
Q 2878 531 3122 666 
L 3122 134 
Q 2881 22 2623 -34 
Q 2366 -91 2075 -91 
Q 1284 -91 818 406 
Q 353 903 353 1747 
Q 353 2603 823 3093 
Q 1294 3584 2113 3584 
Q 2378 3584 2631 3529 
Q 2884 3475 3122 3366 
z
" id="DejaVuSans-63" transform="scale(0.015625)"/>
       <path d="M 3513 2113 
L 3513 0 
L 2938 0 
L 2938 2094 
Q 2938 2591 2744 2837 
Q 2550 3084 2163 3084 
Q 1697 3084 1428 2787 
Q 1159 2491 1159 1978 
L 1159 0 
L 581 0 
L 581 4863 
L 1159 4863 
L 1159 2956 
Q 1366 3272 1645 3428 
Q 1925 3584 2291 3584 
Q 2894 3584 3203 3211 
Q 3513 2838 3513 2113 
z
" id="DejaVuSans-68" transform="scale(0.015625)"/>
       <path d="M 2834 3397 
L 2834 2853 
Q 2591 2978 2328 3040 
Q 2066 3103 1784 3103 
Q 1356 3103 1142 2972 
Q 928 2841 928 2578 
Q 928 2378 1081 2264 
Q 1234 2150 1697 2047 
L 1894 2003 
Q 2506 1872 2764 1633 
Q 3022 1394 3022 966 
Q 3022 478 2636 193 
Q 2250 -91 1575 -91 
Q 1294 -91 989 -36 
Q 684 19 347 128 
L 347 722 
Q 666 556 975 473 
Q 1284 391 1588 391 
Q 1994 391 2212 530 
Q 2431 669 2431 922 
Q 2431 1156 2273 1281 
Q 2116 1406 1581 1522 
L 1381 1569 
Q 847 1681 609 1914 
Q 372 2147 372 2553 
Q 372 3047 722 3315 
Q 1072 3584 1716 3584 
Q 2034 3584 2315 3537 
Q 2597 3491 2834 3397 
z
" id="DejaVuSans-73" transform="scale(0.015625)"/>
      </defs>
      <use xlink:href="#DejaVuSans-45"/>
      <use x="63.183594" xlink:href="#DejaVuSans-70"/>
      <use x="126.660156" xlink:href="#DejaVuSans-6f"/>
      <use x="187.841797" xlink:href="#DejaVuSans-63"/>
      <use x="242.822266" xlink:href="#DejaVuSans-68"/>
      <use x="306.201172" xlink:href="#DejaVuSans-73"/>
     </g>
    </g>
   </g>
   <g id="matplotlib.axis_2">
    <g id="ytick_1">
     <g id="line2d_11">
      <defs>
       <path d="M 0 0 
L -3.5 0 
" id="m9a179e6615" style="stroke:#000000;stroke-width:0.8;"/>
      </defs>
      <g>
       <use style="stroke:#000000;stroke-width:0.8;" x="57.6" xlink:href="#m9a179e6615" y="303.428469"/>
      </g>
     </g>
     <g id="text_12">
      <!-- 0 -->
      <g transform="translate(44.2375 307.227687)scale(0.1 -0.1)">
       <use xlink:href="#DejaVuSans-30"/>
      </g>
     </g>
    </g>
    <g id="ytick_2">
     <g id="line2d_12">
      <g>
       <use style="stroke:#000000;stroke-width:0.8;" x="57.6" xlink:href="#m9a179e6615" y="267.248268"/>
      </g>
     </g>
     <g id="text_13">
      <!-- 10 -->
      <g transform="translate(37.875 271.047486)scale(0.1 -0.1)">
       <use xlink:href="#DejaVuSans-31"/>
       <use x="63.623047" xlink:href="#DejaVuSans-30"/>
      </g>
     </g>
    </g>
    <g id="ytick_3">
     <g id="line2d_13">
      <g>
       <use style="stroke:#000000;stroke-width:0.8;" x="57.6" xlink:href="#m9a179e6615" y="231.068067"/>
      </g>
     </g>
     <g id="text_14">
      <!-- 20 -->
      <g transform="translate(37.875 234.867285)scale(0.1 -0.1)">
       <use xlink:href="#DejaVuSans-32"/>
       <use x="63.623047" xlink:href="#DejaVuSans-30"/>
      </g>
     </g>
    </g>
    <g id="ytick_4">
     <g id="line2d_14">
      <g>
       <use style="stroke:#000000;stroke-width:0.8;" x="57.6" xlink:href="#m9a179e6615" y="194.887865"/>
      </g>
     </g>
     <g id="text_15">
      <!-- 30 -->
      <g transform="translate(37.875 198.687084)scale(0.1 -0.1)">
       <use xlink:href="#DejaVuSans-33"/>
       <use x="63.623047" xlink:href="#DejaVuSans-30"/>
      </g>
     </g>
    </g>
    <g id="ytick_5">
     <g id="line2d_15">
      <g>
       <use style="stroke:#000000;stroke-width:0.8;" x="57.6" xlink:href="#m9a179e6615" y="158.707664"/>
      </g>
     </g>
     <g id="text_16">
      <!-- 40 -->
      <g transform="translate(37.875 162.506883)scale(0.1 -0.1)">
       <use xlink:href="#DejaVuSans-34"/>
       <use x="63.623047" xlink:href="#DejaVuSans-30"/>
      </g>
     </g>
    </g>
    <g id="ytick_6">
     <g id="line2d_16">
      <g>
       <use style="stroke:#000000;stroke-width:0.8;" x="57.6" xlink:href="#m9a179e6615" y="122.527463"/>
      </g>
     </g>
     <g id="text_17">
      <!-- 50 -->
      <g transform="translate(37.875 126.326682)scale(0.1 -0.1)">
       <use xlink:href="#DejaVuSans-35"/>
       <use x="63.623047" xlink:href="#DejaVuSans-30"/>
      </g>
     </g>
    </g>
    <g id="ytick_7">
     <g id="line2d_17">
      <g>
       <use style="stroke:#000000;stroke-width:0.8;" x="57.6" xlink:href="#m9a179e6615" y="86.347262"/>
      </g>
     </g>
     <g id="text_18">
      <!-- 60 -->
      <g transform="translate(37.875 90.146481)scale(0.1 -0.1)">
       <use xlink:href="#DejaVuSans-36"/>
       <use x="63.623047" xlink:href="#DejaVuSans-30"/>
      </g>
     </g>
    </g>
    <g id="ytick_8">
     <g id="line2d_18">
      <g>
       <use style="stroke:#000000;stroke-width:0.8;" x="57.6" xlink:href="#m9a179e6615" y="50.167061"/>
      </g>
     </g>
     <g id="text_19">
      <!-- 70 -->
      <g transform="translate(37.875 53.96628)scale(0.1 -0.1)">
       <use xlink:href="#DejaVuSans-37"/>
       <use x="63.623047" xlink:href="#DejaVuSans-30"/>
      </g>
     </g>
    </g>
    <g id="text_20">
     <!-- Accuracy -->
     <g transform="translate(31.795312 197.356125)rotate(-90)scale(0.1 -0.1)">
      <defs>
       <path d="M 2188 4044 
L 1331 1722 
L 3047 1722 
L 2188 4044 
z
M 1831 4666 
L 2547 4666 
L 4325 0 
L 3669 0 
L 3244 1197 
L 1141 1197 
L 716 0 
L 50 0 
L 1831 4666 
z
" id="DejaVuSans-41" transform="scale(0.015625)"/>
       <path d="M 544 1381 
L 544 3500 
L 1119 3500 
L 1119 1403 
Q 1119 906 1312 657 
Q 1506 409 1894 409 
Q 2359 409 2629 706 
Q 2900 1003 2900 1516 
L 2900 3500 
L 3475 3500 
L 3475 0 
L 2900 0 
L 2900 538 
Q 2691 219 2414 64 
Q 2138 -91 1772 -91 
Q 1169 -91 856 284 
Q 544 659 544 1381 
z
M 1991 3584 
L 1991 3584 
z
" id="DejaVuSans-75" transform="scale(0.015625)"/>
       <path d="M 2631 2963 
Q 2534 3019 2420 3045 
Q 2306 3072 2169 3072 
Q 1681 3072 1420 2755 
Q 1159 2438 1159 1844 
L 1159 0 
L 581 0 
L 581 3500 
L 1159 3500 
L 1159 2956 
Q 1341 3275 1631 3429 
Q 1922 3584 2338 3584 
Q 2397 3584 2469 3576 
Q 2541 3569 2628 3553 
L 2631 2963 
z
" id="DejaVuSans-72" transform="scale(0.015625)"/>
       <path d="M 2194 1759 
Q 1497 1759 1228 1600 
Q 959 1441 959 1056 
Q 959 750 1161 570 
Q 1363 391 1709 391 
Q 2188 391 2477 730 
Q 2766 1069 2766 1631 
L 2766 1759 
L 2194 1759 
z
M 3341 1997 
L 3341 0 
L 2766 0 
L 2766 531 
Q 2569 213 2275 61 
Q 1981 -91 1556 -91 
Q 1019 -91 701 211 
Q 384 513 384 1019 
Q 384 1609 779 1909 
Q 1175 2209 1959 2209 
L 2766 2209 
L 2766 2266 
Q 2766 2663 2505 2880 
Q 2244 3097 1772 3097 
Q 1472 3097 1187 3025 
Q 903 2953 641 2809 
L 641 3341 
Q 956 3463 1253 3523 
Q 1550 3584 1831 3584 
Q 2591 3584 2966 3190 
Q 3341 2797 3341 1997 
z
" id="DejaVuSans-61" transform="scale(0.015625)"/>
       <path d="M 2059 -325 
Q 1816 -950 1584 -1140 
Q 1353 -1331 966 -1331 
L 506 -1331 
L 506 -850 
L 844 -850 
Q 1081 -850 1212 -737 
Q 1344 -625 1503 -206 
L 1606 56 
L 191 3500 
L 800 3500 
L 1894 763 
L 2988 3500 
L 3597 3500 
L 2059 -325 
z
" id="DejaVuSans-79" transform="scale(0.015625)"/>
      </defs>
      <use xlink:href="#DejaVuSans-41"/>
      <use x="66.658203" xlink:href="#DejaVuSans-63"/>
      <use x="121.638672" xlink:href="#DejaVuSans-63"/>
      <use x="176.619141" xlink:href="#DejaVuSans-75"/>
      <use x="239.998047" xlink:href="#DejaVuSans-72"/>
      <use x="281.111328" xlink:href="#DejaVuSans-61"/>
      <use x="342.390625" xlink:href="#DejaVuSans-63"/>
      <use x="397.371094" xlink:href="#DejaVuSans-79"/>
     </g>
    </g>
   </g>
   <g id="line2d_19">
    <path clip-path="url(#p79730f8f95)" d="M 73.832727 295.488 
L 75.464157 292.407979 
L 77.095587 289.655752 
L 78.727017 289.897074 
L 80.358447 288.97086 
L 81.989877 289.470147 
L 83.621307 287.62749 
L 85.252736 285.145528 
L 86.884166 285.335836 
L 88.515596 281.361079 
L 90.147026 283.109668 
L 91.778456 279.192437 
L 93.409886 281.397259 
L 95.041316 281.628812 
L 96.672746 276.568287 
L 98.304175 280.335732 
L 99.935605 277.067574 
L 101.567035 280.162067 
L 103.198465 275.212615 
L 106.461325 279.006833 
L 108.092755 269.358659 
L 109.724185 270.321052 
L 111.355614 271.821445 
L 112.987044 274.838874 
L 114.618474 272.585933 
L 116.249904 274.356592 
L 117.881334 267.091607 
L 121.144194 271.199146 
L 122.775624 268.847433 
L 124.407053 272.685066 
L 126.038483 269.894126 
L 127.669913 268.777605 
L 129.301343 266.708097 
L 130.932773 261.782525 
L 132.564203 261.850182 
L 134.195633 265.772115 
L 135.827063 264.339379 
L 137.458492 264.397268 
L 139.089922 263.661724 
L 140.721352 265.559738 
L 142.352782 268.266017 
L 143.984212 265.87342 
L 145.615642 262.501425 
L 147.247072 260.533222 
L 148.878502 265.17876 
L 150.509931 261.7174 
L 152.141361 267.858628 
L 153.772791 256.854781 
L 155.404221 260.14718 
L 157.035651 261.413487 
L 158.667081 261.500319 
L 160.298511 255.51141 
L 161.929941 261.032509 
L 163.56137 262.802806 
L 165.1928 261.126578 
L 166.82423 262.629141 
L 168.45566 259.930098 
L 170.08709 261.097633 
L 171.71852 252.313081 
L 173.34995 250.110792 
L 174.98138 257.843948 
L 176.61281 261.131281 
L 178.244239 256.842842 
L 179.875669 259.086014 
L 181.507099 264.218899 
L 183.138529 258.227458 
L 184.769959 254.151035 
L 186.401389 265.118339 
L 188.032819 255.272621 
L 189.664249 264.197191 
L 191.295678 255.926397 
L 192.927108 253.270771 
L 194.558538 252.219012 
L 196.189968 255.089187 
L 197.821398 258.555251 
L 199.452828 251.333683 
L 201.084258 253.338066 
L 202.715688 252.163656 
L 204.347117 258.003141 
L 205.978547 252.030875 
L 207.609977 253.12605 
L 209.241407 257.052687 
L 210.872837 254.385121 
L 212.504267 242.1175 
L 214.135697 257.670283 
L 215.767127 254.394528 
L 217.398556 250.272517 
L 219.029986 264.401971 
L 220.661416 252.759183 
L 222.292846 255.841736 
L 223.924276 254.82869 
L 225.555706 248.000401 
L 227.187136 242.915997 
L 228.818566 260.48257 
L 230.449995 244.452208 
L 232.081425 248.253662 
L 233.712855 249.833651 
L 235.344285 245.766997 
L 236.975715 245.47249 
L 238.607145 244.896139 
L 240.238575 256.054113 
L 241.870005 248.350263 
L 243.501434 245.228997 
L 245.132864 245.984078 
L 246.764294 247.638599 
L 248.395724 238.562072 
L 250.027154 245.094045 
L 251.658584 245.996018 
L 253.290014 248.916845 
L 254.921444 249.208819 
L 256.552873 255.238973 
L 258.184303 246.319107 
L 259.815733 246.977586 
L 261.447163 247.078891 
L 263.078593 250.388294 
L 264.710023 253.05586 
L 266.341453 240.752421 
L 267.972883 248.195774 
L 269.604312 241.249175 
L 271.235742 236.999087 
L 272.867172 243.803497 
L 274.498602 241.08745 
L 276.130032 234.915107 
L 277.761462 239.756018 
L 279.392892 237.50561 
L 281.024322 245.417134 
L 282.655751 239.676422 
L 284.287181 237.402134 
L 285.918611 240.35661 
L 287.550041 242.903696 
L 289.181471 236.241835 
L 290.812901 237.341713 
L 292.444331 253.743284 
L 294.075761 242.797688 
L 295.70719 240.745185 
L 297.33862 241.072978 
L 298.97005 237.327241 
L 300.60148 248.28731 
L 302.23291 239.010706 
L 303.86434 242.616787 
L 305.49577 240.15183 
L 307.1272 235.443338 
L 308.75863 240.211889 
L 310.390059 235.870265 
L 312.021489 234.107203 
L 313.652919 229.857115 
L 315.284349 241.270883 
L 316.915779 245.899416 
L 318.547209 235.197313 
L 320.178639 240.38085 
L 321.810069 235.465046 
L 323.441498 224.570102 
L 325.072928 234.430293 
L 326.704358 221.338125 
L 328.335788 240.872901 
L 329.967218 226.663851 
L 331.598648 225.778521 
L 333.230078 243.581713 
L 334.861508 230.255097 
L 336.492937 227.476458 
L 338.124367 228.026397 
L 339.755797 227.052064 
L 341.387227 238.041077 
L 343.018657 230.662848 
L 344.650087 222.640612 
L 346.281517 226.48295 
L 347.912947 224.90296 
L 349.544376 233.916534 
L 351.175806 232.828957 
L 352.807236 226.454006 
L 354.438666 235.942625 
L 356.070096 232.433146 
L 357.701526 241.642454 
L 359.332956 242.720624 
L 360.964386 222.956465 
L 362.595815 234.367701 
L 364.227245 226.909876 
L 365.858675 238.361995 
L 367.490105 226.584254 
L 369.121535 221.678219 
L 370.752965 228.964911 
L 372.384395 231.868734 
L 374.015825 238.164089 
L 375.647254 224.577338 
L 377.278684 228.576336 
L 378.910114 236.649586 
L 380.541544 225.969191 
L 382.172974 233.086922 
L 383.804404 222.040021 
L 385.435834 220.36126 
L 388.698693 229.044387 
L 390.330123 213.662978 
L 391.961553 212.652344 
L 393.592983 230.5929 
L 395.224413 243.234262 
L 396.855843 226.321224 
L 398.487273 233.800878 
L 398.487273 233.800878 
" style="fill:none;stroke:#1f77b4;stroke-linecap:square;stroke-width:1.5;"/>
   </g>
   <g id="line2d_20">
    <path clip-path="url(#p79730f8f95)" d="M 73.832727 279.694257 
L 75.464157 274.737569 
L 77.095587 278.53649 
L 78.727017 268.876377 
L 80.358447 263.340806 
L 81.989877 261.242354 
L 83.621307 264.281491 
L 85.252736 249.339068 
L 86.884166 255.706783 
L 88.515596 256.538928 
L 90.147026 250.496835 
L 91.778456 235.699132 
L 93.409886 242.826632 
L 95.041316 243.694957 
L 96.672746 229.9103 
L 98.304175 229.512318 
L 99.935605 237.399602 
L 101.567035 238.267927 
L 103.198465 229.83794 
L 104.829895 228.861074 
L 106.461325 219.598943 
L 108.092755 218.585897 
L 109.724185 206.067548 
L 111.355614 211.675479 
L 112.987044 207.550936 
L 114.618474 209.432306 
L 116.249904 203.715835 
L 117.881334 215.51058 
L 119.512764 195.539109 
L 121.144194 189.388475 
L 122.775624 209.504667 
L 124.407053 185.987536 
L 126.038483 187.543285 
L 127.669913 189.424655 
L 129.301343 197.601381 
L 130.932773 201.617383 
L 132.564203 188.230708 
L 134.195633 180.017803 
L 135.827063 170.936572 
L 137.458492 183.744364 
L 139.089922 191.088944 
L 140.721352 167.354732 
L 142.352782 171.117473 
L 143.984212 174.482232 
L 145.615642 182.767498 
L 147.247072 166.88439 
L 148.878502 162.144783 
L 150.509931 170.50241 
L 152.141361 174.301331 
L 153.772791 168.838121 
L 155.404221 182.007714 
L 157.035651 166.594948 
L 158.667081 168.982841 
L 160.298511 173.939529 
L 161.929941 152.882652 
L 163.56137 151.037462 
L 165.1928 164.170875 
L 166.82423 170.357689 
L 168.45566 163.23019 
L 170.08709 170.249149 
L 171.71852 146.840558 
L 173.34995 157.83934 
L 174.98138 164.062334 
L 176.61281 153.461535 
L 178.244239 152.050507 
L 179.875669 137.397526 
L 181.507099 149.734974 
L 183.138529 132.875001 
L 184.769959 156.283591 
L 186.401389 152.231408 
L 188.032819 146.116954 
L 189.664249 169.272283 
L 191.295678 139.568338 
L 192.927108 135.805597 
L 194.558538 135.660876 
L 196.189968 156.753934 
L 197.821398 142.028592 
L 199.452828 129.293161 
L 201.084258 141.594429 
L 202.715688 145.140089 
L 204.347117 133.381524 
L 205.978547 146.804378 
L 207.609977 138.736193 
L 209.241407 132.73028 
L 210.872837 146.587297 
L 212.504267 127.556511 
L 214.135697 119.271245 
L 215.767127 147.20236 
L 217.398556 124.083212 
L 219.029986 121.405877 
L 220.661416 136.927183 
L 222.292846 120.790814 
L 223.924276 122.057121 
L 225.555706 125.711321 
L 227.187136 143.4758 
L 228.818566 125.204798 
L 230.449995 118.837083 
L 232.081425 138.989455 
L 233.712855 113.627134 
L 235.344285 113.735674 
L 236.975715 114.603999 
L 238.607145 108.815167 
L 240.238575 117.824037 
L 241.870005 120.790814 
L 243.501434 113.663314 
L 245.132864 119.886309 
L 246.764294 109.719672 
L 248.395724 113.048251 
L 250.027154 109.574951 
L 251.658584 107.946842 
L 253.290014 105.77603 
L 254.921444 102.953974 
L 256.552873 98.069647 
L 258.184303 104.509723 
L 259.815733 105.450408 
L 261.447163 104.835345 
L 263.078593 115.472324 
L 264.710023 101.796208 
L 266.341453 103.89466 
L 267.972883 99.010333 
L 269.604312 109.574951 
L 271.235742 93.945104 
L 272.867172 110.334736 
L 274.498602 91.665752 
L 276.130032 94.126005 
L 277.761462 101.181145 
L 279.392892 99.010333 
L 281.024322 90.110003 
L 282.655751 96.6948 
L 284.287181 91.919013 
L 285.918611 93.836564 
L 287.550041 86.094001 
L 289.181471 111.890484 
L 290.812901 106.210193 
L 292.444331 92.425536 
L 294.075761 91.991374 
L 295.70719 87.215587 
L 297.33862 88.698975 
L 298.97005 92.280815 
L 300.60148 90.037643 
L 302.23291 85.044775 
L 303.86434 88.879876 
L 305.49577 89.060777 
L 307.1272 84.972415 
L 308.75863 90.978328 
L 310.390059 83.380486 
L 312.021489 89.5673 
L 313.652919 83.669927 
L 315.284349 91.195409 
L 316.915779 79.943367 
L 318.547209 74.588697 
L 320.178639 84.429712 
L 321.810069 81.462935 
L 323.441498 70.717415 
L 325.072928 81.028773 
L 326.704358 68.257162 
L 328.335788 77.048951 
L 329.967218 75.09522 
L 331.598648 69.378748 
L 333.230078 79.147402 
L 334.861508 68.076261 
L 336.492937 70.427974 
L 338.124367 74.226895 
L 339.755797 74.769598 
L 341.387227 73.032948 
L 343.018657 68.438063 
L 344.650087 71.54956 
L 346.281517 64.675322 
L 347.912947 62.106527 
L 349.544376 67.171756 
L 351.175806 66.846134 
L 352.807236 58.99503 
L 354.438666 66.629053 
L 356.070096 58.126705 
L 357.701526 63.445195 
L 359.332956 66.013989 
L 360.964386 65.905449 
L 362.595815 59.139751 
L 364.227245 57.837264 
L 365.858675 65.507466 
L 367.490105 59.718634 
L 369.121535 55.37701 
L 370.752965 63.191933 
L 372.384395 58.850309 
L 374.015825 56.426236 
L 375.647254 59.899535 
L 377.278684 56.932759 
L 378.910114 57.041299 
L 380.541544 53.748901 
L 382.172974 55.630271 
L 383.804404 53.60418 
L 385.435834 59.103571 
L 387.067264 58.814129 
L 388.698693 56.064434 
L 390.330123 53.568 
L 391.961553 56.100614 
L 393.592983 57.909624 
L 395.224413 55.485551 
L 396.855843 54.110703 
L 398.487273 53.965982 
L 398.487273 53.965982 
" style="fill:none;stroke:#ff7f0e;stroke-linecap:square;stroke-width:1.5;"/>
   </g>
   <g id="line2d_21">
    <path clip-path="url(#p79730f8f95)" d="M 73.832727 283.738841 
L 75.464157 277.854855 
L 77.095587 278.368976 
L 80.358447 265.781884 
L 81.989877 266.372345 
L 83.621307 267.762388 
L 85.252736 257.308119 
L 86.884166 259.212283 
L 88.515596 261.554589 
L 90.147026 258.412701 
L 91.778456 245.482982 
L 93.409886 252.033408 
L 95.041316 256.71802 
L 96.672746 238.037459 
L 98.304175 236.609426 
L 99.935605 249.729452 
L 101.567035 248.986673 
L 103.198465 239.979974 
L 104.829895 242.017281 
L 106.461325 228.059321 
L 108.092755 228.535452 
L 109.724185 218.233502 
L 111.355614 223.92718 
L 112.987044 223.184763 
L 114.618474 225.564696 
L 116.249904 215.453415 
L 117.881334 225.431553 
L 119.512764 213.416108 
L 121.144194 208.636342 
L 122.775624 223.641718 
L 124.407053 203.47596 
L 126.038483 203.494773 
L 127.669913 205.875069 
L 129.301343 213.949043 
L 130.932773 216.177019 
L 132.564203 206.579859 
L 135.827063 189.936967 
L 137.458492 201.343137 
L 139.089922 207.779595 
L 140.721352 193.021691 
L 142.352782 192.488395 
L 143.984212 196.449403 
L 145.615642 199.953094 
L 147.247072 189.879802 
L 148.878502 186.661573 
L 150.509931 190.679384 
L 152.141361 195.287657 
L 153.772791 189.365681 
L 155.404221 202.143081 
L 157.035651 187.70899 
L 158.667081 192.774218 
L 160.298511 199.153149 
L 161.929941 181.139389 
L 163.56137 176.512303 
L 165.1928 190.07011 
L 166.82423 193.726119 
L 168.45566 184.357618 
L 170.08709 194.564053 
L 171.71852 174.207986 
L 174.98138 191.974274 
L 176.61281 177.083227 
L 178.244239 175.445711 
L 179.875669 165.220101 
L 181.507099 180.949081 
L 183.138529 165.486749 
L 184.769959 180.530114 
L 186.401389 174.664942 
L 188.032819 173.312888 
L 189.664249 194.259415 
L 191.295678 169.809197 
L 192.927108 164.306189 
L 194.558538 164.191859 
L 196.189968 184.071794 
L 197.821398 173.312888 
L 199.452828 157.660248 
L 201.084258 167.238594 
L 202.715688 172.57047 
L 204.347117 159.107456 
L 205.978547 180.35862 
L 207.609977 165.124947 
L 209.241407 165.33443 
L 210.872837 173.446393 
L 212.504267 156.09871 
L 214.135697 148.31056 
L 215.767127 175.712359 
L 217.398556 157.565094 
L 219.029986 152.48069 
L 220.661416 163.9632 
L 222.292846 153.794755 
L 223.924276 156.91783 
L 225.555706 153.547282 
L 227.187136 175.67437 
L 230.449995 144.159244 
L 232.081425 173.065415 
L 233.712855 146.863352 
L 235.344285 147.092011 
L 236.975715 141.950442 
L 238.607145 144.902023 
L 240.238575 152.328371 
L 241.870005 151.681108 
L 243.501434 146.120934 
L 245.132864 155.222787 
L 246.764294 141.303179 
L 248.395724 144.749705 
L 250.027154 143.892957 
L 251.658584 133.591007 
L 253.290014 138.503916 
L 254.921444 135.761819 
L 256.552873 131.305865 
L 258.184303 133.438688 
L 259.815733 138.960872 
L 261.447163 136.504599 
L 263.078593 145.492484 
L 264.710023 130.73458 
L 266.341453 136.047281 
L 267.972883 134.219457 
L 269.604312 141.950442 
L 271.235742 131.877151 
L 272.867172 146.025418 
L 274.498602 123.917507 
L 276.130032 129.039899 
L 277.761462 138.065774 
L 281.024322 124.469616 
L 282.655751 126.697593 
L 284.287181 124.603121 
L 285.918611 124.831418 
L 287.550041 120.947112 
L 289.181471 143.950122 
L 290.812901 139.303499 
L 292.444331 123.936682 
L 294.075761 126.659604 
L 295.70719 117.995531 
L 297.33862 125.49822 
L 298.97005 122.20365 
L 300.60148 123.365397 
L 302.23291 118.395323 
L 303.86434 119.975674 
L 305.49577 121.76587 
L 307.1272 124.12699 
L 308.75863 126.107494 
L 310.390059 120.413816 
L 312.021489 125.117242 
L 313.652919 116.14817 
L 315.284349 122.242001 
L 316.915779 115.59606 
L 318.547209 105.770241 
L 320.178639 119.404388 
L 321.810069 113.920555 
L 323.441498 107.217449 
L 325.072928 115.348588 
L 326.704358 104.227879 
L 328.335788 109.483415 
L 329.967218 113.310919 
L 331.598648 103.142473 
L 333.230078 111.806546 
L 334.861508 105.675087 
L 336.492937 103.618605 
L 338.124367 108.188526 
L 339.755797 109.978722 
L 341.387227 107.693581 
L 343.018657 102.209386 
L 344.650087 107.484097 
L 346.281517 103.389946 
L 347.912947 101.028826 
L 349.544376 105.29411 
L 352.807236 93.33583 
L 354.438666 98.439047 
L 356.070096 93.88794 
L 357.701526 101.580936 
L 359.332956 106.513021 
L 360.964386 103.656594 
L 362.595815 96.268235 
L 365.858675 101.238309 
L 367.490105 97.124982 
L 369.121535 94.668708 
L 370.752965 101.143155 
L 372.384395 98.933992 
L 374.015825 94.897367 
L 375.647254 96.915861 
L 377.278684 96.477718 
L 378.910114 96.173081 
L 380.541544 93.069182 
L 382.172974 93.450159 
L 383.804404 91.659963 
L 385.435834 96.153906 
L 387.067264 93.602345 
L 388.698693 91.736208 
L 390.330123 87.79447 
L 393.592983 93.240543 
L 395.224413 89.489227 
L 396.855843 89.508269 
L 398.487273 90.612717 
L 398.487273 90.612717 
" style="fill:none;stroke:#2ca02c;stroke-linecap:square;stroke-width:1.5;"/>
   </g>
   <g id="patch_3">
    <path d="M 57.6 307.584 
L 57.6 41.472 
" style="fill:none;stroke:#000000;stroke-linecap:square;stroke-linejoin:miter;stroke-width:0.8;"/>
   </g>
   <g id="patch_4">
    <path d="M 414.72 307.584 
L 414.72 41.472 
" style="fill:none;stroke:#000000;stroke-linecap:square;stroke-linejoin:miter;stroke-width:0.8;"/>
   </g>
   <g id="patch_5">
    <path d="M 57.6 307.584 
L 414.72 307.584 
" style="fill:none;stroke:#000000;stroke-linecap:square;stroke-linejoin:miter;stroke-width:0.8;"/>
   </g>
   <g id="patch_6">
    <path d="M 57.6 41.472 
L 414.72 41.472 
" style="fill:none;stroke:#000000;stroke-linecap:square;stroke-linejoin:miter;stroke-width:0.8;"/>
   </g>
   <g id="text_21">
    <!-- Training and Validation Accuracy -->
    <g transform="translate(138.4575 35.472)scale(0.12 -0.12)">
     <defs>
      <path d="M -19 4666 
L 3928 4666 
L 3928 4134 
L 2272 4134 
L 2272 0 
L 1638 0 
L 1638 4134 
L -19 4134 
L -19 4666 
z
" id="DejaVuSans-54" transform="scale(0.015625)"/>
      <path d="M 603 3500 
L 1178 3500 
L 1178 0 
L 603 0 
L 603 3500 
z
M 603 4863 
L 1178 4863 
L 1178 4134 
L 603 4134 
L 603 4863 
z
" id="DejaVuSans-69" transform="scale(0.015625)"/>
      <path d="M 3513 2113 
L 3513 0 
L 2938 0 
L 2938 2094 
Q 2938 2591 2744 2837 
Q 2550 3084 2163 3084 
Q 1697 3084 1428 2787 
Q 1159 2491 1159 1978 
L 1159 0 
L 581 0 
L 581 3500 
L 1159 3500 
L 1159 2956 
Q 1366 3272 1645 3428 
Q 1925 3584 2291 3584 
Q 2894 3584 3203 3211 
Q 3513 2838 3513 2113 
z
" id="DejaVuSans-6e" transform="scale(0.015625)"/>
      <path d="M 2906 1791 
Q 2906 2416 2648 2759 
Q 2391 3103 1925 3103 
Q 1463 3103 1205 2759 
Q 947 2416 947 1791 
Q 947 1169 1205 825 
Q 1463 481 1925 481 
Q 2391 481 2648 825 
Q 2906 1169 2906 1791 
z
M 3481 434 
Q 3481 -459 3084 -895 
Q 2688 -1331 1869 -1331 
Q 1566 -1331 1297 -1286 
Q 1028 -1241 775 -1147 
L 775 -588 
Q 1028 -725 1275 -790 
Q 1522 -856 1778 -856 
Q 2344 -856 2625 -561 
Q 2906 -266 2906 331 
L 2906 616 
Q 2728 306 2450 153 
Q 2172 0 1784 0 
Q 1141 0 747 490 
Q 353 981 353 1791 
Q 353 2603 747 3093 
Q 1141 3584 1784 3584 
Q 2172 3584 2450 3431 
Q 2728 3278 2906 2969 
L 2906 3500 
L 3481 3500 
L 3481 434 
z
" id="DejaVuSans-67" transform="scale(0.015625)"/>
      <path id="DejaVuSans-20" transform="scale(0.015625)"/>
      <path d="M 2906 2969 
L 2906 4863 
L 3481 4863 
L 3481 0 
L 2906 0 
L 2906 525 
Q 2725 213 2448 61 
Q 2172 -91 1784 -91 
Q 1150 -91 751 415 
Q 353 922 353 1747 
Q 353 2572 751 3078 
Q 1150 3584 1784 3584 
Q 2172 3584 2448 3432 
Q 2725 3281 2906 2969 
z
M 947 1747 
Q 947 1113 1208 752 
Q 1469 391 1925 391 
Q 2381 391 2643 752 
Q 2906 1113 2906 1747 
Q 2906 2381 2643 2742 
Q 2381 3103 1925 3103 
Q 1469 3103 1208 2742 
Q 947 2381 947 1747 
z
" id="DejaVuSans-64" transform="scale(0.015625)"/>
      <path d="M 1831 0 
L 50 4666 
L 709 4666 
L 2188 738 
L 3669 4666 
L 4325 4666 
L 2547 0 
L 1831 0 
z
" id="DejaVuSans-56" transform="scale(0.015625)"/>
      <path d="M 603 4863 
L 1178 4863 
L 1178 0 
L 603 0 
L 603 4863 
z
" id="DejaVuSans-6c" transform="scale(0.015625)"/>
      <path d="M 1172 4494 
L 1172 3500 
L 2356 3500 
L 2356 3053 
L 1172 3053 
L 1172 1153 
Q 1172 725 1289 603 
Q 1406 481 1766 481 
L 2356 481 
L 2356 0 
L 1766 0 
Q 1100 0 847 248 
Q 594 497 594 1153 
L 594 3053 
L 172 3053 
L 172 3500 
L 594 3500 
L 594 4494 
L 1172 4494 
z
" id="DejaVuSans-74" transform="scale(0.015625)"/>
     </defs>
     <use xlink:href="#DejaVuSans-54"/>
     <use x="46.333984" xlink:href="#DejaVuSans-72"/>
     <use x="87.447266" xlink:href="#DejaVuSans-61"/>
     <use x="148.726562" xlink:href="#DejaVuSans-69"/>
     <use x="176.509766" xlink:href="#DejaVuSans-6e"/>
     <use x="239.888672" xlink:href="#DejaVuSans-69"/>
     <use x="267.671875" xlink:href="#DejaVuSans-6e"/>
     <use x="331.050781" xlink:href="#DejaVuSans-67"/>
     <use x="394.527344" xlink:href="#DejaVuSans-20"/>
     <use x="426.314453" xlink:href="#DejaVuSans-61"/>
     <use x="487.59375" xlink:href="#DejaVuSans-6e"/>
     <use x="550.972656" xlink:href="#DejaVuSans-64"/>
     <use x="614.449219" xlink:href="#DejaVuSans-20"/>
     <use x="646.236328" xlink:href="#DejaVuSans-56"/>
     <use x="706.894531" xlink:href="#DejaVuSans-61"/>
     <use x="768.173828" xlink:href="#DejaVuSans-6c"/>
     <use x="795.957031" xlink:href="#DejaVuSans-69"/>
     <use x="823.740234" xlink:href="#DejaVuSans-64"/>
     <use x="887.216797" xlink:href="#DejaVuSans-61"/>
     <use x="948.496094" xlink:href="#DejaVuSans-74"/>
     <use x="987.705078" xlink:href="#DejaVuSans-69"/>
     <use x="1015.488281" xlink:href="#DejaVuSans-6f"/>
     <use x="1076.669922" xlink:href="#DejaVuSans-6e"/>
     <use x="1140.048828" xlink:href="#DejaVuSans-20"/>
     <use x="1171.835938" xlink:href="#DejaVuSans-41"/>
     <use x="1238.494141" xlink:href="#DejaVuSans-63"/>
     <use x="1293.474609" xlink:href="#DejaVuSans-63"/>
     <use x="1348.455078" xlink:href="#DejaVuSans-75"/>
     <use x="1411.833984" xlink:href="#DejaVuSans-72"/>
     <use x="1452.947266" xlink:href="#DejaVuSans-61"/>
     <use x="1514.226562" xlink:href="#DejaVuSans-63"/>
     <use x="1569.207031" xlink:href="#DejaVuSans-79"/>
    </g>
   </g>
   <g id="legend_1">
    <g id="patch_7">
     <path d="M 64.6 93.506375 
L 232.426562 93.506375 
Q 234.426562 93.506375 234.426562 91.506375 
L 234.426562 48.472 
Q 234.426562 46.472 232.426562 46.472 
L 64.6 46.472 
Q 62.6 46.472 62.6 48.472 
L 62.6 91.506375 
Q 62.6 93.506375 64.6 93.506375 
z
" style="fill:#ffffff;opacity:0.8;stroke:#cccccc;stroke-linejoin:miter;"/>
    </g>
    <g id="line2d_22">
     <path d="M 66.6 54.570438 
L 86.6 54.570438 
" style="fill:none;stroke:#1f77b4;stroke-linecap:square;stroke-width:1.5;"/>
    </g>
    <g id="line2d_23"/>
    <g id="text_22">
     <!-- Train Accuracy -->
     <g transform="translate(94.6 58.070438)scale(0.1 -0.1)">
      <use xlink:href="#DejaVuSans-54"/>
      <use x="46.333984" xlink:href="#DejaVuSans-72"/>
      <use x="87.447266" xlink:href="#DejaVuSans-61"/>
      <use x="148.726562" xlink:href="#DejaVuSans-69"/>
      <use x="176.509766" xlink:href="#DejaVuSans-6e"/>
      <use x="239.888672" xlink:href="#DejaVuSans-20"/>
      <use x="271.675781" xlink:href="#DejaVuSans-41"/>
      <use x="338.333984" xlink:href="#DejaVuSans-63"/>
      <use x="393.314453" xlink:href="#DejaVuSans-63"/>
      <use x="448.294922" xlink:href="#DejaVuSans-75"/>
      <use x="511.673828" xlink:href="#DejaVuSans-72"/>
      <use x="552.787109" xlink:href="#DejaVuSans-61"/>
      <use x="614.066406" xlink:href="#DejaVuSans-63"/>
      <use x="669.046875" xlink:href="#DejaVuSans-79"/>
     </g>
    </g>
    <g id="line2d_24">
     <path d="M 66.6 69.248563 
L 86.6 69.248563 
" style="fill:none;stroke:#ff7f0e;stroke-linecap:square;stroke-width:1.5;"/>
    </g>
    <g id="line2d_25"/>
    <g id="text_23">
     <!-- Validation Accuracy -->
     <g transform="translate(94.6 72.748563)scale(0.1 -0.1)">
      <use xlink:href="#DejaVuSans-56"/>
      <use x="60.658203" xlink:href="#DejaVuSans-61"/>
      <use x="121.9375" xlink:href="#DejaVuSans-6c"/>
      <use x="149.720703" xlink:href="#DejaVuSans-69"/>
      <use x="177.503906" xlink:href="#DejaVuSans-64"/>
      <use x="240.980469" xlink:href="#DejaVuSans-61"/>
      <use x="302.259766" xlink:href="#DejaVuSans-74"/>
      <use x="341.46875" xlink:href="#DejaVuSans-69"/>
      <use x="369.251953" xlink:href="#DejaVuSans-6f"/>
      <use x="430.433594" xlink:href="#DejaVuSans-6e"/>
      <use x="493.8125" xlink:href="#DejaVuSans-20"/>
      <use x="525.599609" xlink:href="#DejaVuSans-41"/>
      <use x="592.257812" xlink:href="#DejaVuSans-63"/>
      <use x="647.238281" xlink:href="#DejaVuSans-63"/>
      <use x="702.21875" xlink:href="#DejaVuSans-75"/>
      <use x="765.597656" xlink:href="#DejaVuSans-72"/>
      <use x="806.710938" xlink:href="#DejaVuSans-61"/>
      <use x="867.990234" xlink:href="#DejaVuSans-63"/>
      <use x="922.970703" xlink:href="#DejaVuSans-79"/>
     </g>
    </g>
    <g id="line2d_26">
     <path d="M 66.6 83.926688 
L 86.6 83.926688 
" style="fill:none;stroke:#2ca02c;stroke-linecap:square;stroke-width:1.5;"/>
    </g>
    <g id="line2d_27"/>
    <g id="text_24">
     <!-- Robust Validation Accuracy -->
     <g transform="translate(94.6 87.426688)scale(0.1 -0.1)">
      <defs>
       <path d="M 2841 2188 
Q 3044 2119 3236 1894 
Q 3428 1669 3622 1275 
L 4263 0 
L 3584 0 
L 2988 1197 
Q 2756 1666 2539 1819 
Q 2322 1972 1947 1972 
L 1259 1972 
L 1259 0 
L 628 0 
L 628 4666 
L 2053 4666 
Q 2853 4666 3247 4331 
Q 3641 3997 3641 3322 
Q 3641 2881 3436 2590 
Q 3231 2300 2841 2188 
z
M 1259 4147 
L 1259 2491 
L 2053 2491 
Q 2509 2491 2742 2702 
Q 2975 2913 2975 3322 
Q 2975 3731 2742 3939 
Q 2509 4147 2053 4147 
L 1259 4147 
z
" id="DejaVuSans-52" transform="scale(0.015625)"/>
       <path d="M 3116 1747 
Q 3116 2381 2855 2742 
Q 2594 3103 2138 3103 
Q 1681 3103 1420 2742 
Q 1159 2381 1159 1747 
Q 1159 1113 1420 752 
Q 1681 391 2138 391 
Q 2594 391 2855 752 
Q 3116 1113 3116 1747 
z
M 1159 2969 
Q 1341 3281 1617 3432 
Q 1894 3584 2278 3584 
Q 2916 3584 3314 3078 
Q 3713 2572 3713 1747 
Q 3713 922 3314 415 
Q 2916 -91 2278 -91 
Q 1894 -91 1617 61 
Q 1341 213 1159 525 
L 1159 0 
L 581 0 
L 581 4863 
L 1159 4863 
L 1159 2969 
z
" id="DejaVuSans-62" transform="scale(0.015625)"/>
      </defs>
      <use xlink:href="#DejaVuSans-52"/>
      <use x="64.982422" xlink:href="#DejaVuSans-6f"/>
      <use x="126.164062" xlink:href="#DejaVuSans-62"/>
      <use x="189.640625" xlink:href="#DejaVuSans-75"/>
      <use x="253.019531" xlink:href="#DejaVuSans-73"/>
      <use x="305.119141" xlink:href="#DejaVuSans-74"/>
      <use x="344.328125" xlink:href="#DejaVuSans-20"/>
      <use x="376.115234" xlink:href="#DejaVuSans-56"/>
      <use x="436.773438" xlink:href="#DejaVuSans-61"/>
      <use x="498.052734" xlink:href="#DejaVuSans-6c"/>
      <use x="525.835938" xlink:href="#DejaVuSans-69"/>
      <use x="553.619141" xlink:href="#DejaVuSans-64"/>
      <use x="617.095703" xlink:href="#DejaVuSans-61"/>
      <use x="678.375" xlink:href="#DejaVuSans-74"/>
      <use x="717.583984" xlink:href="#DejaVuSans-69"/>
      <use x="745.367188" xlink:href="#DejaVuSans-6f"/>
      <use x="806.548828" xlink:href="#DejaVuSans-6e"/>
      <use x="869.927734" xlink:href="#DejaVuSans-20"/>
      <use x="901.714844" xlink:href="#DejaVuSans-41"/>
      <use x="968.373047" xlink:href="#DejaVuSans-63"/>
      <use x="1023.353516" xlink:href="#DejaVuSans-63"/>
      <use x="1078.333984" xlink:href="#DejaVuSans-75"/>
      <use x="1141.712891" xlink:href="#DejaVuSans-72"/>
      <use x="1182.826172" xlink:href="#DejaVuSans-61"/>
      <use x="1244.105469" xlink:href="#DejaVuSans-63"/>
      <use x="1299.085938" xlink:href="#DejaVuSans-79"/>
     </g>
    </g>
   </g>
  </g>
 </g>
 <defs>
  <clipPath id="p79730f8f95">
   <rect height="266.112" width="357.12" x="57.6" y="41.472"/>
  </clipPath>
 </defs>
</svg>
