<?xml version="1.0" encoding="utf-8" standalone="no"?>
<!DOCTYPE svg PUBLIC "-//W3C//DTD SVG 1.1//EN"
  "http://www.w3.org/Graphics/SVG/1.1/DTD/svg11.dtd">
<svg xmlns:xlink="http://www.w3.org/1999/xlink" width="460.8pt" height="345.6pt" viewBox="0 0 460.8 345.6" xmlns="http://www.w3.org/2000/svg" version="1.1">
 <metadata>
  <rdf:RDF xmlns:dc="http://purl.org/dc/elements/1.1/" xmlns:cc="http://creativecommons.org/ns#" xmlns:rdf="http://www.w3.org/1999/02/22-rdf-syntax-ns#">
   <cc:Work>
    <dc:type rdf:resource="http://purl.org/dc/dcmitype/StillImage"/>
    <dc:date>2024-08-13T13:26:51.676218</dc:date>
    <dc:format>image/svg+xml</dc:format>
    <dc:creator>
     <cc:Agent>
      <dc:title>Matplotlib v3.9.1, https://matplotlib.org/</dc:title>
     </cc:Agent>
    </dc:creator>
   </cc:Work>
  </rdf:RDF>
 </metadata>
 <defs>
  <style type="text/css">*{stroke-linejoin: round; stroke-linecap: butt}</style>
 </defs>
 <g id="figure_1">
  <g id="patch_1">
   <path d="M 0 345.6 
L 460.8 345.6 
L 460.8 0 
L 0 0 
z
" style="fill: #ffffff"/>
  </g>
  <g id="axes_1">
   <g id="patch_2">
    <path d="M 57.6 307.584 
L 414.72 307.584 
L 414.72 41.472 
L 57.6 41.472 
z
" style="fill: #ffffff"/>
   </g>
   <g id="matplotlib.axis_1">
    <g id="xtick_1">
     <g id="line2d_1">
      <defs>
       <path id="m867e01300a" d="M 0 0 
L 0 3.5 
" style="stroke: #000000; stroke-width: 0.8"/>
      </defs>
      <g>
       <use xlink:href="#m867e01300a" x="73.832727" y="307.584" style="stroke: #000000; stroke-width: 0.8"/>
      </g>
     </g>
     <g id="text_1">
      <!-- 1 -->
      <g transform="translate(70.651477 322.182437) scale(0.1 -0.1)">
       <defs>
        <path id="DejaVuSans-31" d="M 794 531 
L 1825 531 
L 1825 4091 
L 703 3866 
L 703 4441 
L 1819 4666 
L 2450 4666 
L 2450 531 
L 3481 531 
L 3481 0 
L 794 0 
L 794 531 
z
" transform="scale(0.015625)"/>
       </defs>
       <use xlink:href="#DejaVuSans-31"/>
      </g>
     </g>
    </g>
    <g id="xtick_2">
     <g id="line2d_2">
      <g>
       <use xlink:href="#m867e01300a" x="109.036232" y="307.584" style="stroke: #000000; stroke-width: 0.8"/>
      </g>
     </g>
     <g id="text_2">
      <!-- 28 -->
      <g transform="translate(102.673732 322.182437) scale(0.1 -0.1)">
       <defs>
        <path id="DejaVuSans-32" d="M 1228 531 
L 3431 531 
L 3431 0 
L 469 0 
L 469 531 
Q 828 903 1448 1529 
Q 2069 2156 2228 2338 
Q 2531 2678 2651 2914 
Q 2772 3150 2772 3378 
Q 2772 3750 2511 3984 
Q 2250 4219 1831 4219 
Q 1534 4219 1204 4116 
Q 875 4013 500 3803 
L 500 4441 
Q 881 4594 1212 4672 
Q 1544 4750 1819 4750 
Q 2544 4750 2975 4387 
Q 3406 4025 3406 3419 
Q 3406 3131 3298 2873 
Q 3191 2616 2906 2266 
Q 2828 2175 2409 1742 
Q 1991 1309 1228 531 
z
" transform="scale(0.015625)"/>
        <path id="DejaVuSans-38" d="M 2034 2216 
Q 1584 2216 1326 1975 
Q 1069 1734 1069 1313 
Q 1069 891 1326 650 
Q 1584 409 2034 409 
Q 2484 409 2743 651 
Q 3003 894 3003 1313 
Q 3003 1734 2745 1975 
Q 2488 2216 2034 2216 
z
M 1403 2484 
Q 997 2584 770 2862 
Q 544 3141 544 3541 
Q 544 4100 942 4425 
Q 1341 4750 2034 4750 
Q 2731 4750 3128 4425 
Q 3525 4100 3525 3541 
Q 3525 3141 3298 2862 
Q 3072 2584 2669 2484 
Q 3125 2378 3379 2068 
Q 3634 1759 3634 1313 
Q 3634 634 3220 271 
Q 2806 -91 2034 -91 
Q 1263 -91 848 271 
Q 434 634 434 1313 
Q 434 1759 690 2068 
Q 947 2378 1403 2484 
z
M 1172 3481 
Q 1172 3119 1398 2916 
Q 1625 2713 2034 2713 
Q 2441 2713 2670 2916 
Q 2900 3119 2900 3481 
Q 2900 3844 2670 4047 
Q 2441 4250 2034 4250 
Q 1625 4250 1398 4047 
Q 1172 3844 1172 3481 
z
" transform="scale(0.015625)"/>
       </defs>
       <use xlink:href="#DejaVuSans-32"/>
       <use xlink:href="#DejaVuSans-38" x="63.623047"/>
      </g>
     </g>
    </g>
    <g id="xtick_3">
     <g id="line2d_3">
      <g>
       <use xlink:href="#m867e01300a" x="145.543571" y="307.584" style="stroke: #000000; stroke-width: 0.8"/>
      </g>
     </g>
     <g id="text_3">
      <!-- 56 -->
      <g transform="translate(139.181071 322.182437) scale(0.1 -0.1)">
       <defs>
        <path id="DejaVuSans-35" d="M 691 4666 
L 3169 4666 
L 3169 4134 
L 1269 4134 
L 1269 2991 
Q 1406 3038 1543 3061 
Q 1681 3084 1819 3084 
Q 2600 3084 3056 2656 
Q 3513 2228 3513 1497 
Q 3513 744 3044 326 
Q 2575 -91 1722 -91 
Q 1428 -91 1123 -41 
Q 819 9 494 109 
L 494 744 
Q 775 591 1075 516 
Q 1375 441 1709 441 
Q 2250 441 2565 725 
Q 2881 1009 2881 1497 
Q 2881 1984 2565 2268 
Q 2250 2553 1709 2553 
Q 1456 2553 1204 2497 
Q 953 2441 691 2322 
L 691 4666 
z
" transform="scale(0.015625)"/>
        <path id="DejaVuSans-36" d="M 2113 2584 
Q 1688 2584 1439 2293 
Q 1191 2003 1191 1497 
Q 1191 994 1439 701 
Q 1688 409 2113 409 
Q 2538 409 2786 701 
Q 3034 994 3034 1497 
Q 3034 2003 2786 2293 
Q 2538 2584 2113 2584 
z
M 3366 4563 
L 3366 3988 
Q 3128 4100 2886 4159 
Q 2644 4219 2406 4219 
Q 1781 4219 1451 3797 
Q 1122 3375 1075 2522 
Q 1259 2794 1537 2939 
Q 1816 3084 2150 3084 
Q 2853 3084 3261 2657 
Q 3669 2231 3669 1497 
Q 3669 778 3244 343 
Q 2819 -91 2113 -91 
Q 1303 -91 875 529 
Q 447 1150 447 2328 
Q 447 3434 972 4092 
Q 1497 4750 2381 4750 
Q 2619 4750 2861 4703 
Q 3103 4656 3366 4563 
z
" transform="scale(0.015625)"/>
       </defs>
       <use xlink:href="#DejaVuSans-35"/>
       <use xlink:href="#DejaVuSans-36" x="63.623047"/>
      </g>
     </g>
    </g>
    <g id="xtick_4">
     <g id="line2d_4">
      <g>
       <use xlink:href="#m867e01300a" x="182.050909" y="307.584" style="stroke: #000000; stroke-width: 0.8"/>
      </g>
     </g>
     <g id="text_4">
      <!-- 84 -->
      <g transform="translate(175.688409 322.182437) scale(0.1 -0.1)">
       <defs>
        <path id="DejaVuSans-34" d="M 2419 4116 
L 825 1625 
L 2419 1625 
L 2419 4116 
z
M 2253 4666 
L 3047 4666 
L 3047 1625 
L 3713 1625 
L 3713 1100 
L 3047 1100 
L 3047 0 
L 2419 0 
L 2419 1100 
L 313 1100 
L 313 1709 
L 2253 4666 
z
" transform="scale(0.015625)"/>
       </defs>
       <use xlink:href="#DejaVuSans-38"/>
       <use xlink:href="#DejaVuSans-34" x="63.623047"/>
      </g>
     </g>
    </g>
    <g id="xtick_5">
     <g id="line2d_5">
      <g>
       <use xlink:href="#m867e01300a" x="217.254414" y="307.584" style="stroke: #000000; stroke-width: 0.8"/>
      </g>
     </g>
     <g id="text_5">
      <!-- 111 -->
      <g transform="translate(207.710664 322.182437) scale(0.1 -0.1)">
       <use xlink:href="#DejaVuSans-31"/>
       <use xlink:href="#DejaVuSans-31" x="63.623047"/>
       <use xlink:href="#DejaVuSans-31" x="127.246094"/>
      </g>
     </g>
    </g>
    <g id="xtick_6">
     <g id="line2d_6">
      <g>
       <use xlink:href="#m867e01300a" x="253.761752" y="307.584" style="stroke: #000000; stroke-width: 0.8"/>
      </g>
     </g>
     <g id="text_6">
      <!-- 139 -->
      <g transform="translate(244.218002 322.182437) scale(0.1 -0.1)">
       <defs>
        <path id="DejaVuSans-33" d="M 2597 2516 
Q 3050 2419 3304 2112 
Q 3559 1806 3559 1356 
Q 3559 666 3084 287 
Q 2609 -91 1734 -91 
Q 1441 -91 1130 -33 
Q 819 25 488 141 
L 488 750 
Q 750 597 1062 519 
Q 1375 441 1716 441 
Q 2309 441 2620 675 
Q 2931 909 2931 1356 
Q 2931 1769 2642 2001 
Q 2353 2234 1838 2234 
L 1294 2234 
L 1294 2753 
L 1863 2753 
Q 2328 2753 2575 2939 
Q 2822 3125 2822 3475 
Q 2822 3834 2567 4026 
Q 2313 4219 1838 4219 
Q 1578 4219 1281 4162 
Q 984 4106 628 3988 
L 628 4550 
Q 988 4650 1302 4700 
Q 1616 4750 1894 4750 
Q 2613 4750 3031 4423 
Q 3450 4097 3450 3541 
Q 3450 3153 3228 2886 
Q 3006 2619 2597 2516 
z
" transform="scale(0.015625)"/>
        <path id="DejaVuSans-39" d="M 703 97 
L 703 672 
Q 941 559 1184 500 
Q 1428 441 1663 441 
Q 2288 441 2617 861 
Q 2947 1281 2994 2138 
Q 2813 1869 2534 1725 
Q 2256 1581 1919 1581 
Q 1219 1581 811 2004 
Q 403 2428 403 3163 
Q 403 3881 828 4315 
Q 1253 4750 1959 4750 
Q 2769 4750 3195 4129 
Q 3622 3509 3622 2328 
Q 3622 1225 3098 567 
Q 2575 -91 1691 -91 
Q 1453 -91 1209 -44 
Q 966 3 703 97 
z
M 1959 2075 
Q 2384 2075 2632 2365 
Q 2881 2656 2881 3163 
Q 2881 3666 2632 3958 
Q 2384 4250 1959 4250 
Q 1534 4250 1286 3958 
Q 1038 3666 1038 3163 
Q 1038 2656 1286 2365 
Q 1534 2075 1959 2075 
z
" transform="scale(0.015625)"/>
       </defs>
       <use xlink:href="#DejaVuSans-31"/>
       <use xlink:href="#DejaVuSans-33" x="63.623047"/>
       <use xlink:href="#DejaVuSans-39" x="127.246094"/>
      </g>
     </g>
    </g>
    <g id="xtick_7">
     <g id="line2d_7">
      <g>
       <use xlink:href="#m867e01300a" x="290.269091" y="307.584" style="stroke: #000000; stroke-width: 0.8"/>
      </g>
     </g>
     <g id="text_7">
      <!-- 167 -->
      <g transform="translate(280.725341 322.182437) scale(0.1 -0.1)">
       <defs>
        <path id="DejaVuSans-37" d="M 525 4666 
L 3525 4666 
L 3525 4397 
L 1831 0 
L 1172 0 
L 2766 4134 
L 525 4134 
L 525 4666 
z
" transform="scale(0.015625)"/>
       </defs>
       <use xlink:href="#DejaVuSans-31"/>
       <use xlink:href="#DejaVuSans-36" x="63.623047"/>
       <use xlink:href="#DejaVuSans-37" x="127.246094"/>
      </g>
     </g>
    </g>
    <g id="xtick_8">
     <g id="line2d_8">
      <g>
       <use xlink:href="#m867e01300a" x="325.472596" y="307.584" style="stroke: #000000; stroke-width: 0.8"/>
      </g>
     </g>
     <g id="text_8">
      <!-- 194 -->
      <g transform="translate(315.928846 322.182437) scale(0.1 -0.1)">
       <use xlink:href="#DejaVuSans-31"/>
       <use xlink:href="#DejaVuSans-39" x="63.623047"/>
       <use xlink:href="#DejaVuSans-34" x="127.246094"/>
      </g>
     </g>
    </g>
    <g id="xtick_9">
     <g id="line2d_9">
      <g>
       <use xlink:href="#m867e01300a" x="361.979934" y="307.584" style="stroke: #000000; stroke-width: 0.8"/>
      </g>
     </g>
     <g id="text_9">
      <!-- 222 -->
      <g transform="translate(352.436184 322.182437) scale(0.1 -0.1)">
       <use xlink:href="#DejaVuSans-32"/>
       <use xlink:href="#DejaVuSans-32" x="63.623047"/>
       <use xlink:href="#DejaVuSans-32" x="127.246094"/>
      </g>
     </g>
    </g>
    <g id="xtick_10">
     <g id="line2d_10">
      <g>
       <use xlink:href="#m867e01300a" x="398.487273" y="307.584" style="stroke: #000000; stroke-width: 0.8"/>
      </g>
     </g>
     <g id="text_10">
      <!-- 250 -->
      <g transform="translate(388.943523 322.182437) scale(0.1 -0.1)">
       <defs>
        <path id="DejaVuSans-30" d="M 2034 4250 
Q 1547 4250 1301 3770 
Q 1056 3291 1056 2328 
Q 1056 1369 1301 889 
Q 1547 409 2034 409 
Q 2525 409 2770 889 
Q 3016 1369 3016 2328 
Q 3016 3291 2770 3770 
Q 2525 4250 2034 4250 
z
M 2034 4750 
Q 2819 4750 3233 4129 
Q 3647 3509 3647 2328 
Q 3647 1150 3233 529 
Q 2819 -91 2034 -91 
Q 1250 -91 836 529 
Q 422 1150 422 2328 
Q 422 3509 836 4129 
Q 1250 4750 2034 4750 
z
" transform="scale(0.015625)"/>
       </defs>
       <use xlink:href="#DejaVuSans-32"/>
       <use xlink:href="#DejaVuSans-35" x="63.623047"/>
       <use xlink:href="#DejaVuSans-30" x="127.246094"/>
      </g>
     </g>
    </g>
    <g id="text_11">
     <!-- Epochs -->
     <g transform="translate(218.244375 335.860562) scale(0.1 -0.1)">
      <defs>
       <path id="DejaVuSans-45" d="M 628 4666 
L 3578 4666 
L 3578 4134 
L 1259 4134 
L 1259 2753 
L 3481 2753 
L 3481 2222 
L 1259 2222 
L 1259 531 
L 3634 531 
L 3634 0 
L 628 0 
L 628 4666 
z
" transform="scale(0.015625)"/>
       <path id="DejaVuSans-70" d="M 1159 525 
L 1159 -1331 
L 581 -1331 
L 581 3500 
L 1159 3500 
L 1159 2969 
Q 1341 3281 1617 3432 
Q 1894 3584 2278 3584 
Q 2916 3584 3314 3078 
Q 3713 2572 3713 1747 
Q 3713 922 3314 415 
Q 2916 -91 2278 -91 
Q 1894 -91 1617 61 
Q 1341 213 1159 525 
z
M 3116 1747 
Q 3116 2381 2855 2742 
Q 2594 3103 2138 3103 
Q 1681 3103 1420 2742 
Q 1159 2381 1159 1747 
Q 1159 1113 1420 752 
Q 1681 391 2138 391 
Q 2594 391 2855 752 
Q 3116 1113 3116 1747 
z
" transform="scale(0.015625)"/>
       <path id="DejaVuSans-6f" d="M 1959 3097 
Q 1497 3097 1228 2736 
Q 959 2375 959 1747 
Q 959 1119 1226 758 
Q 1494 397 1959 397 
Q 2419 397 2687 759 
Q 2956 1122 2956 1747 
Q 2956 2369 2687 2733 
Q 2419 3097 1959 3097 
z
M 1959 3584 
Q 2709 3584 3137 3096 
Q 3566 2609 3566 1747 
Q 3566 888 3137 398 
Q 2709 -91 1959 -91 
Q 1206 -91 779 398 
Q 353 888 353 1747 
Q 353 2609 779 3096 
Q 1206 3584 1959 3584 
z
" transform="scale(0.015625)"/>
       <path id="DejaVuSans-63" d="M 3122 3366 
L 3122 2828 
Q 2878 2963 2633 3030 
Q 2388 3097 2138 3097 
Q 1578 3097 1268 2742 
Q 959 2388 959 1747 
Q 959 1106 1268 751 
Q 1578 397 2138 397 
Q 2388 397 2633 464 
Q 2878 531 3122 666 
L 3122 134 
Q 2881 22 2623 -34 
Q 2366 -91 2075 -91 
Q 1284 -91 818 406 
Q 353 903 353 1747 
Q 353 2603 823 3093 
Q 1294 3584 2113 3584 
Q 2378 3584 2631 3529 
Q 2884 3475 3122 3366 
z
" transform="scale(0.015625)"/>
       <path id="DejaVuSans-68" d="M 3513 2113 
L 3513 0 
L 2938 0 
L 2938 2094 
Q 2938 2591 2744 2837 
Q 2550 3084 2163 3084 
Q 1697 3084 1428 2787 
Q 1159 2491 1159 1978 
L 1159 0 
L 581 0 
L 581 4863 
L 1159 4863 
L 1159 2956 
Q 1366 3272 1645 3428 
Q 1925 3584 2291 3584 
Q 2894 3584 3203 3211 
Q 3513 2838 3513 2113 
z
" transform="scale(0.015625)"/>
       <path id="DejaVuSans-73" d="M 2834 3397 
L 2834 2853 
Q 2591 2978 2328 3040 
Q 2066 3103 1784 3103 
Q 1356 3103 1142 2972 
Q 928 2841 928 2578 
Q 928 2378 1081 2264 
Q 1234 2150 1697 2047 
L 1894 2003 
Q 2506 1872 2764 1633 
Q 3022 1394 3022 966 
Q 3022 478 2636 193 
Q 2250 -91 1575 -91 
Q 1294 -91 989 -36 
Q 684 19 347 128 
L 347 722 
Q 666 556 975 473 
Q 1284 391 1588 391 
Q 1994 391 2212 530 
Q 2431 669 2431 922 
Q 2431 1156 2273 1281 
Q 2116 1406 1581 1522 
L 1381 1569 
Q 847 1681 609 1914 
Q 372 2147 372 2553 
Q 372 3047 722 3315 
Q 1072 3584 1716 3584 
Q 2034 3584 2315 3537 
Q 2597 3491 2834 3397 
z
" transform="scale(0.015625)"/>
      </defs>
      <use xlink:href="#DejaVuSans-45"/>
      <use xlink:href="#DejaVuSans-70" x="63.183594"/>
      <use xlink:href="#DejaVuSans-6f" x="126.660156"/>
      <use xlink:href="#DejaVuSans-63" x="187.841797"/>
      <use xlink:href="#DejaVuSans-68" x="242.822266"/>
      <use xlink:href="#DejaVuSans-73" x="306.201172"/>
     </g>
    </g>
   </g>
   <g id="matplotlib.axis_2">
    <g id="ytick_1">
     <g id="line2d_11">
      <defs>
       <path id="m75bedcc52a" d="M 0 0 
L -3.5 0 
" style="stroke: #000000; stroke-width: 0.8"/>
      </defs>
      <g>
       <use xlink:href="#m75bedcc52a" x="57.6" y="282.297829" style="stroke: #000000; stroke-width: 0.8"/>
      </g>
     </g>
     <g id="text_12">
      <!-- 10 -->
      <g transform="translate(37.875 286.097048) scale(0.1 -0.1)">
       <use xlink:href="#DejaVuSans-31"/>
       <use xlink:href="#DejaVuSans-30" x="63.623047"/>
      </g>
     </g>
    </g>
    <g id="ytick_2">
     <g id="line2d_12">
      <g>
       <use xlink:href="#m75bedcc52a" x="57.6" y="251.623014" style="stroke: #000000; stroke-width: 0.8"/>
      </g>
     </g>
     <g id="text_13">
      <!-- 20 -->
      <g transform="translate(37.875 255.422233) scale(0.1 -0.1)">
       <use xlink:href="#DejaVuSans-32"/>
       <use xlink:href="#DejaVuSans-30" x="63.623047"/>
      </g>
     </g>
    </g>
    <g id="ytick_3">
     <g id="line2d_13">
      <g>
       <use xlink:href="#m75bedcc52a" x="57.6" y="220.948198" style="stroke: #000000; stroke-width: 0.8"/>
      </g>
     </g>
     <g id="text_14">
      <!-- 30 -->
      <g transform="translate(37.875 224.747417) scale(0.1 -0.1)">
       <use xlink:href="#DejaVuSans-33"/>
       <use xlink:href="#DejaVuSans-30" x="63.623047"/>
      </g>
     </g>
    </g>
    <g id="ytick_4">
     <g id="line2d_14">
      <g>
       <use xlink:href="#m75bedcc52a" x="57.6" y="190.273383" style="stroke: #000000; stroke-width: 0.8"/>
      </g>
     </g>
     <g id="text_15">
      <!-- 40 -->
      <g transform="translate(37.875 194.072602) scale(0.1 -0.1)">
       <use xlink:href="#DejaVuSans-34"/>
       <use xlink:href="#DejaVuSans-30" x="63.623047"/>
      </g>
     </g>
    </g>
    <g id="ytick_5">
     <g id="line2d_15">
      <g>
       <use xlink:href="#m75bedcc52a" x="57.6" y="159.598567" style="stroke: #000000; stroke-width: 0.8"/>
      </g>
     </g>
     <g id="text_16">
      <!-- 50 -->
      <g transform="translate(37.875 163.397786) scale(0.1 -0.1)">
       <use xlink:href="#DejaVuSans-35"/>
       <use xlink:href="#DejaVuSans-30" x="63.623047"/>
      </g>
     </g>
    </g>
    <g id="ytick_6">
     <g id="line2d_16">
      <g>
       <use xlink:href="#m75bedcc52a" x="57.6" y="128.923752" style="stroke: #000000; stroke-width: 0.8"/>
      </g>
     </g>
     <g id="text_17">
      <!-- 60 -->
      <g transform="translate(37.875 132.722971) scale(0.1 -0.1)">
       <use xlink:href="#DejaVuSans-36"/>
       <use xlink:href="#DejaVuSans-30" x="63.623047"/>
      </g>
     </g>
    </g>
    <g id="ytick_7">
     <g id="line2d_17">
      <g>
       <use xlink:href="#m75bedcc52a" x="57.6" y="98.248936" style="stroke: #000000; stroke-width: 0.8"/>
      </g>
     </g>
     <g id="text_18">
      <!-- 70 -->
      <g transform="translate(37.875 102.048155) scale(0.1 -0.1)">
       <use xlink:href="#DejaVuSans-37"/>
       <use xlink:href="#DejaVuSans-30" x="63.623047"/>
      </g>
     </g>
    </g>
    <g id="ytick_8">
     <g id="line2d_18">
      <g>
       <use xlink:href="#m75bedcc52a" x="57.6" y="67.574121" style="stroke: #000000; stroke-width: 0.8"/>
      </g>
     </g>
     <g id="text_19">
      <!-- 80 -->
      <g transform="translate(37.875 71.37334) scale(0.1 -0.1)">
       <use xlink:href="#DejaVuSans-38"/>
       <use xlink:href="#DejaVuSans-30" x="63.623047"/>
      </g>
     </g>
    </g>
    <g id="text_20">
     <!-- Accuracy -->
     <g transform="translate(31.795312 197.356125) rotate(-90) scale(0.1 -0.1)">
      <defs>
       <path id="DejaVuSans-41" d="M 2188 4044 
L 1331 1722 
L 3047 1722 
L 2188 4044 
z
M 1831 4666 
L 2547 4666 
L 4325 0 
L 3669 0 
L 3244 1197 
L 1141 1197 
L 716 0 
L 50 0 
L 1831 4666 
z
" transform="scale(0.015625)"/>
       <path id="DejaVuSans-75" d="M 544 1381 
L 544 3500 
L 1119 3500 
L 1119 1403 
Q 1119 906 1312 657 
Q 1506 409 1894 409 
Q 2359 409 2629 706 
Q 2900 1003 2900 1516 
L 2900 3500 
L 3475 3500 
L 3475 0 
L 2900 0 
L 2900 538 
Q 2691 219 2414 64 
Q 2138 -91 1772 -91 
Q 1169 -91 856 284 
Q 544 659 544 1381 
z
M 1991 3584 
L 1991 3584 
z
" transform="scale(0.015625)"/>
       <path id="DejaVuSans-72" d="M 2631 2963 
Q 2534 3019 2420 3045 
Q 2306 3072 2169 3072 
Q 1681 3072 1420 2755 
Q 1159 2438 1159 1844 
L 1159 0 
L 581 0 
L 581 3500 
L 1159 3500 
L 1159 2956 
Q 1341 3275 1631 3429 
Q 1922 3584 2338 3584 
Q 2397 3584 2469 3576 
Q 2541 3569 2628 3553 
L 2631 2963 
z
" transform="scale(0.015625)"/>
       <path id="DejaVuSans-61" d="M 2194 1759 
Q 1497 1759 1228 1600 
Q 959 1441 959 1056 
Q 959 750 1161 570 
Q 1363 391 1709 391 
Q 2188 391 2477 730 
Q 2766 1069 2766 1631 
L 2766 1759 
L 2194 1759 
z
M 3341 1997 
L 3341 0 
L 2766 0 
L 2766 531 
Q 2569 213 2275 61 
Q 1981 -91 1556 -91 
Q 1019 -91 701 211 
Q 384 513 384 1019 
Q 384 1609 779 1909 
Q 1175 2209 1959 2209 
L 2766 2209 
L 2766 2266 
Q 2766 2663 2505 2880 
Q 2244 3097 1772 3097 
Q 1472 3097 1187 3025 
Q 903 2953 641 2809 
L 641 3341 
Q 956 3463 1253 3523 
Q 1550 3584 1831 3584 
Q 2591 3584 2966 3190 
Q 3341 2797 3341 1997 
z
" transform="scale(0.015625)"/>
       <path id="DejaVuSans-79" d="M 2059 -325 
Q 1816 -950 1584 -1140 
Q 1353 -1331 966 -1331 
L 506 -1331 
L 506 -850 
L 844 -850 
Q 1081 -850 1212 -737 
Q 1344 -625 1503 -206 
L 1606 56 
L 191 3500 
L 800 3500 
L 1894 763 
L 2988 3500 
L 3597 3500 
L 2059 -325 
z
" transform="scale(0.015625)"/>
      </defs>
      <use xlink:href="#DejaVuSans-41"/>
      <use xlink:href="#DejaVuSans-63" x="66.658203"/>
      <use xlink:href="#DejaVuSans-63" x="121.638672"/>
      <use xlink:href="#DejaVuSans-75" x="176.619141"/>
      <use xlink:href="#DejaVuSans-72" x="239.998047"/>
      <use xlink:href="#DejaVuSans-61" x="281.111328"/>
      <use xlink:href="#DejaVuSans-63" x="342.390625"/>
      <use xlink:href="#DejaVuSans-79" x="397.371094"/>
     </g>
    </g>
   </g>
   <g id="line2d_19">
    <path d="M 73.832727 293.991069 
L 76.440394 262.242635 
L 77.744228 245.63529 
L 79.048061 235.500331 
L 80.351895 197.126137 
L 81.655728 184.181364 
L 82.959562 173.150701 
L 84.263395 163.31022 
L 85.567229 159.727402 
L 86.871062 150.76422 
L 88.174896 147.954407 
L 89.478729 145.764225 
L 90.782563 139.199815 
L 92.086396 137.751964 
L 93.39023 133.224361 
L 94.694064 130.506572 
L 95.997897 127.058723 
L 97.301731 121.7029 
L 98.605564 122.396151 
L 99.909398 118.506584 
L 101.213231 116.273458 
L 102.517065 114.647693 
L 103.820898 109.856286 
L 105.124732 107.868558 
L 106.428565 107.604755 
L 107.732399 105.383898 
L 109.036232 106.261198 
L 110.340066 106.500462 
L 111.643899 103.954452 
L 112.947733 130.598597 
L 114.251566 131.69062 
L 115.5554 128.733568 
L 116.859233 128.837862 
L 118.163067 126.390012 
L 119.4669 125.91762 
L 120.770734 124.727437 
L 122.074567 117.396156 
L 123.378401 118.310266 
L 124.682234 116.985114 
L 125.986068 115.10168 
L 127.289901 112.340947 
L 128.593735 113.463645 
L 129.897568 109.776532 
L 131.201402 111.917634 
L 132.505235 107.733589 
L 133.809069 111.101684 
L 135.112903 107.666105 
L 136.416736 106.365492 
L 137.72057 107.948313 
L 139.024403 103.015803 
L 140.328237 102.844024 
L 141.63207 102.457521 
L 142.935904 100.04648 
L 144.239737 96.862435 
L 145.543571 98.163047 
L 146.847404 93.095567 
L 148.151238 97.555685 
L 149.455071 94.954461 
L 150.758905 92.966733 
L 152.062738 93.831763 
L 153.366572 90.328699 
L 154.670405 90.371644 
L 155.974239 88.905387 
L 157.278072 87.831769 
L 158.581906 88.328701 
L 159.885739 86.739745 
L 161.189573 83.525025 
L 162.493406 86.610911 
L 163.79724 82.390057 
L 165.101073 79.463679 
L 166.404907 83.598644 
L 167.70874 84.488214 
L 169.012574 81.383923 
L 170.316407 79.696808 
L 171.620241 80.322574 
L 172.924074 78.414601 
L 174.227908 76.071045 
L 175.531742 75.801106 
L 176.835575 77.739755 
L 178.139409 77.68454 
L 179.443242 73.156937 
L 180.747076 73.298041 
L 182.050909 72.518901 
L 183.354743 72.586386 
L 184.658576 70.954485 
L 185.96241 70.862461 
L 187.266243 70.574118 
L 188.570077 74.291905 
L 189.87391 70.831786 
L 191.177744 97.040349 
L 192.481577 100.94832 
L 193.785411 98.764273 
L 195.089244 101.831755 
L 196.393078 100.451388 
L 197.696911 100.653842 
L 199.000745 97.776544 
L 200.304578 97.469796 
L 201.608412 94.917651 
L 202.912245 94.880842 
L 204.216079 94.531149 
L 205.519912 93.561824 
L 206.823746 94.752007 
L 208.127579 91.960599 
L 209.431413 93.745873 
L 210.735246 92.077163 
L 212.03908 92.058759 
L 213.342913 90.678392 
L 214.646747 89.764282 
L 215.950581 93.488205 
L 217.254414 91.015815 
L 218.558248 90.365509 
L 219.862081 91.113974 
L 221.165915 89.322565 
L 222.469748 91.537287 
L 223.773582 89.696798 
L 225.077415 90.101705 
L 226.381249 88.782688 
L 227.685082 88.555695 
L 228.988916 90.291889 
L 230.292749 88.56183 
L 231.596583 86.298028 
L 232.900416 86.463672 
L 234.20425 84.770422 
L 235.508083 83.905393 
L 236.811917 85.402324 
L 238.11575 83.659994 
L 239.419584 83.414595 
L 240.723417 81.666131 
L 242.027251 83.586374 
L 243.331084 83.727479 
L 244.634918 82.328707 
L 245.938751 81.390058 
L 247.242585 81.745886 
L 248.546418 82.365517 
L 249.850252 83.50662 
L 251.154085 81.199874 
L 252.457919 77.248958 
L 253.761752 77.66 
L 255.065586 79.212146 
L 256.369419 79.966746 
L 257.673253 75.586383 
L 258.977087 78.064908 
L 260.28092 76.684541 
L 261.584754 75.819511 
L 262.888587 74.488224 
L 264.192421 77.856319 
L 265.496254 75.886996 
L 266.800088 78.794968 
L 268.103921 77.365522 
L 269.407755 72.868594 
L 270.711588 72.218288 
L 272.015422 74.206016 
L 273.319255 71.482092 
L 274.623089 71.347123 
L 275.926922 72.794974 
L 277.230756 69.475959 
L 278.534589 73.886998 
L 279.838423 71.365528 
L 281.142256 71.592522 
L 282.44609 71.255099 
L 283.749923 68.899273 
L 286.35759 67.67228 
L 287.661424 66.598662 
L 288.965257 67.273508 
L 290.269091 68.083323 
L 291.572924 65.169215 
L 292.876758 68.279642 
L 294.180591 63.666149 
L 295.484425 64.506639 
L 296.788258 65.893141 
L 298.092092 66.248969 
L 299.395926 65.267375 
L 300.699759 63.291917 
L 302.003593 64.150811 
L 303.307426 62.150813 
L 304.61126 60.408484 
L 305.915093 59.42689 
L 307.218927 62.193758 
L 308.52276 60.954496 
L 309.826594 59.31646 
L 311.130427 60.083331 
L 312.434261 59.567994 
L 313.738094 60.782717 
L 315.041928 59.494374 
L 316.345761 58.837933 
L 317.649595 59.518914 
L 318.953428 57.095604 
L 320.257262 58.617075 
L 321.561095 56.06493 
L 322.864929 56.598672 
L 324.168762 56.874745 
L 325.472596 54.089472 
L 326.776429 55.942231 
L 328.080263 55.696832 
L 329.384096 55.696832 
L 330.68793 57.390082 
L 331.991763 55.512783 
L 333.295597 58.51278 
L 334.59943 54.101742 
L 335.903264 53.623215 
L 337.207097 54.887017 
L 338.510931 53.568 
L 339.814765 54.518919 
L 342.422432 55.549593 
L 343.726265 55.880881 
L 345.030099 54.948367 
L 346.333932 57.469837 
L 347.637766 80.684537 
L 348.941599 83.009688 
L 350.245433 83.451405 
L 351.549266 84.880852 
L 352.8531 83.169197 
L 354.156933 84.715208 
L 355.460767 84.770422 
L 356.7646 85.807231 
L 359.372267 84.561834 
L 360.676101 87.034224 
L 361.979934 86.236679 
L 364.587601 83.439135 
L 365.891435 83.966742 
L 367.195268 85.807231 
L 368.499102 82.917663 
L 369.802935 82.880854 
L 371.106769 84.531159 
L 372.410602 83.021958 
L 373.714436 81.291898 
L 375.018269 82.794964 
L 376.322103 80.163065 
L 377.625936 81.893125 
L 378.92977 81.187604 
L 380.233604 80.24282 
L 381.537437 82.273492 
L 382.841271 81.230549 
L 385.448938 80.113985 
L 386.752771 80.831776 
L 388.056605 80.880856 
L 389.360438 79.837912 
L 390.664272 77.868589 
L 393.271939 80.083311 
L 394.575772 79.408465 
L 395.879606 77.69681 
L 397.183439 78.390061 
L 398.487273 76.91767 
L 398.487273 76.91767 
" clip-path="url(#pd04c300d27)" style="fill: none; stroke: #1f77b4; stroke-width: 1.5; stroke-linecap: square"/>
   </g>
   <g id="line2d_20">
    <path d="M 73.832727 285.48801 
L 75.136561 260.211962 
L 76.440394 245.027928 
L 77.744228 233.095425 
L 79.048061 210.825509 
L 80.351895 209.506492 
L 81.655728 197.38994 
L 82.959562 171.009599 
L 84.263395 174.383828 
L 85.567229 164.90531 
L 86.871062 151.439066 
L 88.174896 146.899194 
L 89.478729 146.592446 
L 90.782563 138.709018 
L 92.086396 135.825585 
L 93.39023 131.837859 
L 94.694064 128.647678 
L 97.301731 119.813332 
L 98.605564 124.015781 
L 99.909398 119.23051 
L 101.213231 115.058735 
L 102.517065 113.709043 
L 103.820898 111.347082 
L 105.124732 109.721317 
L 106.428565 107.666105 
L 107.732399 107.972853 
L 109.036232 105.856291 
L 110.340066 106.408437 
L 111.643899 105.764266 
L 112.947733 135.641536 
L 114.251566 131.070989 
L 115.5554 137.205952 
L 116.859233 133.187551 
L 118.163067 133.524974 
L 119.4669 123.801058 
L 120.770734 121.469772 
L 122.074567 122.144618 
L 123.378401 124.629278 
L 124.682234 121.255048 
L 125.986068 115.733581 
L 127.289901 111.469782 
L 128.593735 117.205972 
L 129.897568 111.561806 
L 131.201402 109.874691 
L 132.505235 109.874691 
L 133.809069 104.046476 
L 135.112903 103.064882 
L 136.416736 106.408437 
L 137.72057 104.874696 
L 139.024403 104.353225 
L 140.328237 100.150775 
L 141.63207 102.54341 
L 142.935904 101.255068 
L 144.239737 95.764276 
L 145.543571 96.224398 
L 148.151238 96.316423 
L 149.455071 94.844032 
L 150.758905 92.758144 
L 152.062738 94.445259 
L 153.366572 90.273484 
L 154.670405 92.850169 
L 155.974239 93.034218 
L 157.278072 89.077166 
L 158.581906 89.936061 
L 159.885739 88.003548 
L 161.189573 86.316433 
L 162.493406 85.15079 
L 163.79724 84.26122 
L 165.101073 83.095577 
L 166.404907 82.942203 
L 167.70874 81.77656 
L 169.012574 82.72748 
L 170.316407 81.531162 
L 171.620241 79.752023 
L 172.924074 79.506624 
L 174.227908 79.506624 
L 175.531742 78.709079 
L 176.835575 78.310306 
L 178.139409 77.604785 
L 179.443242 77.052639 
L 180.747076 77.175338 
L 182.050909 76.439142 
L 183.354743 75.97902 
L 184.658576 75.672272 
L 185.96241 76.071045 
L 187.266243 75.273499 
L 188.570077 76.347118 
L 189.87391 75.273499 
L 191.177744 104.077151 
L 192.481577 103.064882 
L 195.089244 101.592491 
L 196.393078 103.43298 
L 197.696911 102.267337 
L 199.000745 98.126237 
L 200.304578 99.35323 
L 201.608412 96.377773 
L 202.912245 100.88697 
L 204.216079 98.279611 
L 205.519912 97.205993 
L 206.823746 99.35323 
L 208.127579 96.561821 
L 209.431413 98.40231 
L 210.735246 93.647714 
L 212.03908 97.63544 
L 213.342913 93.954462 
L 214.646747 92.696795 
L 215.950581 91.991274 
L 217.254414 96.653846 
L 218.558248 93.095567 
L 219.862081 94.199861 
L 221.165915 93.739738 
L 222.469748 89.629313 
L 223.773582 93.310291 
L 225.077415 91.715201 
L 226.381249 89.874712 
L 227.685082 89.475939 
L 228.988916 93.647714 
L 230.292749 87.972873 
L 231.596583 91.377778 
L 232.900416 89.230541 
L 234.20425 85.948335 
L 235.508083 87.390052 
L 236.811917 86.101709 
L 238.11575 87.6968 
L 239.419584 87.451401 
L 240.723417 83.187602 
L 242.027251 88.126247 
L 243.331084 84.537294 
L 244.634918 86.408457 
L 245.938751 86.347108 
L 247.242585 84.629318 
L 248.546418 84.353245 
L 249.850252 83.49435 
L 251.154085 79.844047 
L 252.457919 81.101714 
L 253.761752 81.531162 
L 255.065586 81.77656 
L 256.369419 82.482081 
L 257.673253 81.347113 
L 258.977087 82.021959 
L 260.28092 81.224414 
L 261.584754 80.94834 
L 262.888587 81.347113 
L 264.192421 80.334844 
L 265.496254 78.218282 
L 266.800088 78.218282 
L 268.103921 78.003558 
L 269.407755 78.218282 
L 270.711588 77.420737 
L 272.015422 77.942208 
L 273.319255 77.543436 
L 274.623089 77.451411 
L 275.926922 77.144663 
L 277.230756 74.475954 
L 278.534589 76.745891 
L 279.838423 75.825646 
L 281.142256 73.831783 
L 282.44609 74.905402 
L 283.749923 74.966751 
L 285.053757 76.439142 
L 286.35759 73.586385 
L 287.661424 71.89927 
L 288.965257 73.617059 
L 290.269091 72.420742 
L 291.572924 72.359392 
L 292.876758 70.641602 
L 294.180591 71.807245 
L 295.484425 69.997431 
L 296.788258 71.715221 
L 298.092092 70.94835 
L 299.395926 69.997431 
L 300.699759 70.856326 
L 302.003593 68.801113 
L 303.307426 69.997431 
L 304.61126 70.212155 
L 305.915093 68.739764 
L 307.218927 68.46369 
L 308.52276 69.41461 
L 309.826594 67.144673 
L 311.130427 67.880869 
L 313.738094 66.623201 
L 315.041928 66.377803 
L 316.345761 66.92995 
L 317.649595 66.500502 
L 318.953428 65.948356 
L 320.257262 65.120136 
L 321.561095 66.193754 
L 322.864929 64.905412 
L 324.168762 64.966761 
L 325.472596 65.27351 
L 326.776429 65.181485 
L 328.080263 64.567989 
L 329.384096 64.32259 
L 331.991763 64.997436 
L 334.59943 64.506639 
L 335.903264 64.107867 
L 337.207097 64.32259 
L 338.510931 63.709094 
L 339.814765 64.138541 
L 341.118598 63.801118 
L 343.726265 64.353265 
L 345.030099 63.678419 
L 346.333932 63.862468 
L 347.637766 88.40232 
L 348.941599 89.567963 
L 350.245433 89.046492 
L 351.549266 91.163054 
L 352.8531 89.383915 
L 354.156933 88.40232 
L 355.460767 92.482071 
L 358.068434 87.604775 
L 359.372267 88.801093 
L 360.676101 87.727475 
L 361.979934 88.46367 
L 363.283768 87.328702 
L 364.587601 87.942198 
L 365.891435 89.29189 
L 367.195268 90.856306 
L 368.499102 91.807225 
L 369.802935 89.475939 
L 371.106769 85.488213 
L 372.410602 87.482076 
L 373.714436 86.531157 
L 375.018269 86.163059 
L 376.322103 84.874717 
L 377.625936 85.733612 
L 378.92977 84.26122 
L 380.233604 83.709074 
L 382.841271 88.46367 
L 384.145104 87.052629 
L 385.448938 84.230546 
L 386.752771 84.690668 
L 388.056605 90.917655 
L 389.360438 85.273489 
L 390.664272 85.610912 
L 391.968105 87.972873 
L 393.271939 85.304164 
L 394.575772 81.500487 
L 395.879606 82.021959 
L 397.183439 84.936066 
L 398.487273 82.758154 
L 398.487273 82.758154 
" clip-path="url(#pd04c300d27)" style="fill: none; stroke: #ff7f0e; stroke-width: 1.5; stroke-linecap: square"/>
   </g>
   <g id="line2d_21">
    <path d="M 73.832727 284.275741 
L 75.136561 267.235575 
L 76.440394 234.159535 
L 77.744228 237.047262 
L 79.048061 214.24207 
L 80.351895 231.377636 
L 81.655728 205.039625 
L 82.959562 196.18626 
L 84.263395 199.909569 
L 85.567229 193.605281 
L 86.871062 190.157125 
L 88.174896 178.289039 
L 89.478729 177.178304 
L 90.782563 179.145787 
L 92.086396 172.8734 
L 93.39023 165.828622 
L 94.694064 164.009299 
L 95.997897 159.672494 
L 97.301731 166.67494 
L 98.605564 167.870338 
L 99.909398 162.655619 
L 101.213231 159.439978 
L 102.517065 157.588753 
L 103.820898 157.05992 
L 105.124732 157.514827 
L 106.428565 154.362683 
L 107.732399 153.992438 
L 109.036232 152.078023 
L 110.340066 153.029862 
L 111.643899 151.45379 
L 112.947733 174.036896 
L 114.251566 177.030451 
L 115.5554 174.713889 
L 116.859233 177.083212 
L 118.163067 185.354983 
L 119.4669 169.097331 
L 120.770734 160.349487 
L 122.074567 160.793965 
L 123.378401 164.538133 
L 124.682234 164.432611 
L 125.986068 160.328321 
L 127.289901 159.810224 
L 128.593735 160.360223 
L 129.897568 157.789673 
L 131.201402 158.20225 
L 132.505235 157.482925 
L 133.809069 154.013604 
L 135.112903 154.119432 
L 136.416736 153.209617 
L 137.72057 152.035692 
L 139.024403 153.770352 
L 140.328237 150.269129 
L 141.63207 144.684165 
L 142.935904 150.872196 
L 144.239737 146.070053 
L 145.543571 145.731403 
L 146.847404 141.183249 
L 148.151238 143.584166 
L 149.455071 143.182326 
L 150.758905 145.562078 
L 152.062738 144.663 
L 153.366572 144.430485 
L 154.670405 143.838154 
L 155.974239 138.771288 
L 157.278072 139.279263 
L 158.581906 138.316687 
L 159.885739 141.82834 
L 161.189573 135.957794 
L 162.493406 135.873131 
L 163.79724 135.111476 
L 165.101073 140.072513 
L 166.404907 134.455648 
L 167.70874 134.043378 
L 169.012574 140.897359 
L 170.316407 138.813619 
L 171.620241 136.37037 
L 172.924074 134.699206 
L 174.227908 135.767303 
L 175.531742 135.397058 
L 176.835575 133.366385 
L 178.139409 134.128041 
L 179.443242 133.123134 
L 180.747076 133.00657 
L 182.050909 132.245221 
L 183.354743 132.699822 
L 184.658576 131.039394 
L 185.96241 131.187246 
L 187.266243 130.605652 
L 188.570077 131.4624 
L 189.87391 131.409332 
L 191.177744 147.878641 
L 192.481577 143.975577 
L 193.785411 149.782626 
L 195.089244 156.732006 
L 196.393078 157.768508 
L 197.696911 151.781704 
L 199.000745 141.913002 
L 200.304578 151.496122 
L 201.608412 142.949504 
L 202.912245 146.641218 
L 204.216079 145.562078 
L 205.519912 149.719129 
L 206.823746 146.154409 
L 208.127579 145.837232 
L 209.431413 151.210539 
L 210.735246 148.0268 
L 212.03908 149.761461 
L 213.342913 145.05441 
L 214.646747 139.036011 
L 215.950581 145.94306 
L 217.254414 146.048888 
L 218.558248 144.187233 
L 219.862081 145.615146 
L 221.165915 148.746124 
L 222.469748 140.580182 
L 223.773582 144.017908 
L 225.077415 145.212999 
L 226.381249 145.318827 
L 227.685082 140.918525 
L 228.988916 141.341837 
L 230.292749 136.740615 
L 231.596583 139.332023 
L 232.900416 137.205952 
L 234.20425 140.13601 
L 235.508083 144.536313 
L 236.811917 136.782946 
L 238.11575 135.143377 
L 239.419584 136.951964 
L 240.723417 133.017306 
L 242.027251 140.611777 
L 243.331084 135.02712 
L 244.634918 138.242454 
L 245.938751 131.927736 
L 247.242585 138.390613 
L 248.546418 133.842152 
L 249.850252 135.344297 
L 251.154085 132.435405 
L 252.457919 137.597363 
L 253.761752 134.244299 
L 255.065586 134.519145 
L 256.369419 133.577735 
L 257.673253 135.873131 
L 258.977087 132.625895 
L 260.28092 137.354111 
L 261.584754 131.821908 
L 262.888587 134.87896 
L 264.192421 129.135408 
L 265.496254 131.4624 
L 266.800088 127.273753 
L 268.103921 129.336328 
L 269.407755 126.892772 
L 270.711588 131.874976 
L 272.015422 131.451663 
L 273.319255 131.4624 
L 274.623089 129.537248 
L 275.926922 126.935103 
L 277.230756 130.870069 
L 278.534589 125.26394 
L 279.838423 125.200443 
L 281.142256 130.203505 
L 282.44609 129.812401 
L 283.749923 131.451663 
L 286.35759 127.030502 
L 287.661424 125.475596 
L 288.965257 124.332959 
L 290.269091 123.624371 
L 291.572924 124.650443 
L 292.876758 125.3167 
L 294.180591 128.003507 
L 295.484425 125.644614 
L 296.788258 127.506269 
L 298.092092 130.330499 
L 299.395926 124.597683 
L 300.699759 123.148298 
L 302.003593 126.268846 
L 303.307426 125.285105 
L 304.61126 124.047376 
L 305.915093 123.560874 
L 307.218927 121.953207 
L 308.52276 122.788789 
L 309.826594 120.482963 
L 311.130427 120.958729 
L 312.434261 122.513636 
L 313.738094 122.979279 
L 315.041928 122.069464 
L 316.345761 120.429895 
L 317.649595 121.709955 
L 318.953428 123.455046 
L 320.257262 121.720385 
L 321.561095 118.853823 
L 322.864929 118.356891 
L 324.168762 119.245234 
L 325.472596 120.429895 
L 326.776429 118.695235 
L 328.080263 120.334803 
L 329.384096 121.043392 
L 330.68793 118.695235 
L 331.991763 121.498299 
L 333.295597 118.737566 
L 334.59943 119.435725 
L 335.903264 119.869466 
L 337.207097 119.752902 
L 338.510931 119.795233 
L 339.814765 120.176215 
L 341.118598 119.277136 
L 342.422432 119.827135 
L 345.030099 119.551982 
L 346.333932 118.779897 
L 347.637766 137.438774 
L 348.941599 142.420671 
L 350.245433 139.628205 
L 351.549266 141.870639 
L 352.8531 142.515868 
L 354.156933 139.554162 
L 355.460767 146.143959 
L 356.7646 145.58335 
L 358.068434 137.205952 
L 359.372267 134.339443 
L 360.676101 132.234516 
L 361.979934 137.322305 
L 363.283768 144.134229 
L 364.587601 143.129365 
L 365.891435 146.260311 
L 367.195268 139.956108 
L 368.499102 146.831498 
L 369.802935 141.775442 
L 371.106769 139.77629 
L 372.410602 138.464677 
L 373.714436 136.581878 
L 375.018269 139.871488 
L 376.322103 138.316592 
L 377.625936 132.202784 
L 378.92977 141.754287 
L 380.233604 127.09384 
L 381.537437 132.107586 
L 382.841271 135.534703 
L 384.145104 135.301998 
L 385.448938 132.81628 
L 386.752771 137.755983 
L 388.056605 137.004979 
L 389.360438 134.529839 
L 390.664272 133.662482 
L 391.968105 129.960349 
L 393.271939 138.115619 
L 394.575772 131.441202 
L 395.879606 134.783699 
L 397.183439 132.350869 
L 398.487273 132.583575 
L 398.487273 132.583575 
" clip-path="url(#pd04c300d27)" style="fill: none; stroke: #2ca02c; stroke-width: 1.5; stroke-linecap: square"/>
   </g>
   <g id="line2d_22">
    <path d="M 73.832727 295.488 
L 75.136561 289.353037 
L 76.440394 279.843844 
L 77.744228 275.48802 
L 79.048061 268.064715 
L 80.351895 263.279444 
L 81.655728 262.573923 
L 82.959562 247.451239 
L 84.263395 243.06474 
L 85.567229 239.445112 
L 86.871062 229.75187 
L 88.174896 233.862296 
L 89.478729 220.549426 
L 90.782563 232.144506 
L 93.39023 217.604643 
L 94.694064 219.567832 
L 95.997897 212.850047 
L 97.301731 211.224282 
L 98.605564 213.708942 
L 99.909398 206.254962 
L 101.213231 210.396062 
L 103.820898 200.518771 
L 105.124732 203.371529 
L 106.428565 203.494228 
L 107.732399 205.794839 
L 109.036232 198.893006 
L 110.340066 203.156805 
L 111.643899 199.537177 
L 112.947733 207.083182 
L 114.251566 222.665988 
L 115.5554 213.739617 
L 116.859233 217.635318 
L 118.163067 216.439 
L 119.4669 215.518756 
L 120.770734 211.346981 
L 122.074567 201.009568 
L 123.378401 212.4206 
L 124.682234 211.561705 
L 125.986068 204.813245 
L 127.289901 196.316321 
L 128.593735 202.205886 
L 129.897568 198.21816 
L 131.201402 195.702825 
L 132.505235 194.13841 
L 133.809069 192.880742 
L 135.112903 190.058659 
L 136.416736 194.13841 
L 137.72057 187.083202 
L 139.024403 187.144552 
L 140.328237 186.653755 
L 141.63207 188.432894 
L 142.935904 186.469706 
L 144.239737 181.868483 
L 145.543571 178.310205 
L 146.847404 186.193632 
L 148.151238 184.046395 
L 149.455071 176.991188 
L 150.758905 181.408361 
L 153.366572 171.347022 
L 154.670405 178.156831 
L 155.974239 169.843956 
L 157.278072 176.316342 
L 158.581906 170.426777 
L 159.885739 181.070938 
L 161.189573 172.297941 
L 162.493406 167.942117 
L 163.79724 170.150704 
L 165.101073 166.469726 
L 166.404907 169.04641 
L 167.70874 168.27954 
L 169.012574 167.021873 
L 170.316407 171.254997 
L 171.620241 162.972797 
L 172.924074 163.954391 
L 174.227908 162.850098 
L 175.531742 162.236601 
L 176.835575 169.445183 
L 178.139409 163.31022 
L 179.443242 159.506543 
L 180.747076 161.929853 
L 182.050909 163.218196 
L 183.354743 162.512675 
L 184.658576 161.500406 
L 185.96241 163.187521 
L 187.266243 162.512675 
L 188.570077 156.040289 
L 189.87391 161.009609 
L 191.177744 185.058664 
L 192.481577 190.488107 
L 193.785411 186.592405 
L 195.089244 184.445168 
L 196.393078 196.899143 
L 197.696911 184.598542 
L 199.000745 185.027989 
L 200.304578 179.261124 
L 201.608412 187.359275 
L 202.912245 187.144552 
L 204.216079 182.175232 
L 205.519912 196.162947 
L 206.823746 186.101608 
L 208.127579 183.800997 
L 209.431413 184.96664 
L 210.735246 178.494254 
L 212.03908 188.156821 
L 213.342913 183.494249 
L 214.646747 179.475848 
L 215.950581 183.463574 
L 217.254414 177.574009 
L 218.558248 185.825535 
L 219.862081 178.831677 
L 221.165915 181.745784 
L 223.773582 186.684429 
L 225.077415 186.040258 
L 226.381249 183.402224 
L 227.685082 187.512649 
L 228.988916 180.212043 
L 230.292749 174.751926 
L 231.596583 180.978914 
L 232.900416 182.696703 
L 234.20425 172.758063 
L 235.508083 176.62309 
L 236.811917 177.236586 
L 238.11575 174.015731 
L 239.419584 172.758063 
L 240.723417 176.101618 
L 242.027251 177.45131 
L 243.331084 171.101623 
L 244.634918 180.76419 
L 245.938751 182.451305 
L 247.242585 172.942112 
L 248.546418 179.813271 
L 249.850252 176.960513 
L 251.154085 172.205916 
L 252.457919 178.923701 
L 253.761752 172.758063 
L 255.065586 172.880762 
L 256.369419 183.095476 
L 257.673253 173.24886 
L 258.977087 172.359291 
L 260.28092 178.893026 
L 261.584754 170.426777 
L 262.888587 174.07708 
L 264.192421 168.770337 
L 265.496254 168.586288 
L 266.800088 167.942117 
L 268.103921 176.162968 
L 269.407755 162.696724 
L 270.711588 170.089354 
L 272.015422 174.015731 
L 273.319255 165.396107 
L 274.623089 173.432909 
L 275.926922 169.87463 
L 277.230756 170.426777 
L 278.534589 170.702851 
L 279.838423 171.776469 
L 281.142256 170.426777 
L 282.44609 168.064816 
L 283.749923 163.126171 
L 285.053757 165.334758 
L 286.35759 159.23047 
L 287.661424 170.150704 
L 288.965257 159.598567 
L 290.269091 158.156851 
L 291.572924 162.666049 
L 292.876758 152.297961 
L 294.180591 167.51267 
L 295.484425 159.10777 
L 296.788258 161.807154 
L 298.092092 163.24887 
L 299.395926 158.371575 
L 300.699759 159.905315 
L 302.003593 156.224338 
L 303.307426 158.463599 
L 304.61126 154.874646 
L 307.218927 159.99734 
L 308.52276 165.426782 
L 309.826594 164.291814 
L 311.130427 153.739678 
L 312.434261 157.482005 
L 313.738094 152.54336 
L 315.041928 156.929858 
L 316.345761 156.991208 
L 317.649595 154.843971 
L 318.953428 155.948264 
L 320.257262 155.304093 
L 321.561095 155.242743 
L 322.864929 155.488142 
L 324.168762 160.242738 
L 325.472596 157.911452 
L 326.776429 157.666054 
L 328.080263 153.954401 
L 329.384096 159.353169 
L 330.68793 155.334768 
L 331.991763 154.721272 
L 333.295597 152.635384 
L 334.59943 157.052558 
L 335.903264 156.347037 
L 337.207097 159.10777 
L 338.510931 154.230475 
L 339.814765 153.24888 
L 341.118598 154.567898 
L 342.422432 158.463599 
L 343.726265 154.782621 
L 345.030099 157.144582 
L 346.333932 153.187531 
L 347.637766 185.917559 
L 348.941599 188.770317 
L 350.245433 177.819408 
L 351.549266 172.972787 
L 352.8531 179.751921 
L 354.156933 178.064806 
L 355.460767 184.506517 
L 356.7646 181.193637 
L 358.068434 179.629222 
L 359.372267 185.549461 
L 360.676101 170.488127 
L 361.979934 186.653755 
L 364.587601 178.893026 
L 365.891435 189.506512 
L 367.195268 182.819403 
L 368.499102 184.291794 
L 369.802935 178.034131 
L 371.106769 179.813271 
L 372.410602 168.003467 
L 373.714436 176.101618 
L 375.018269 174.843951 
L 376.322103 175.549471 
L 377.625936 175.027999 
L 378.92977 179.751921 
L 380.233604 175.457447 
L 381.537437 170.120029 
L 382.841271 181.070938 
L 384.145104 177.083212 
L 385.448938 181.009589 
L 386.752771 175.212048 
L 388.056605 178.27953 
L 389.360438 182.48198 
L 390.664272 187.911422 
L 391.968105 181.623085 
L 394.575772 185.948234 
L 395.879606 186.653755 
L 397.183439 174.690577 
L 398.487273 180.150694 
L 398.487273 180.150694 
" clip-path="url(#pd04c300d27)" style="fill: none; stroke: #d62728; stroke-width: 1.5; stroke-linecap: square"/>
   </g>
   <g id="line2d_23">
    <path d="M 73.832727 285.48801 
L 75.136561 260.211962 
L 76.440394 245.027928 
L 77.744228 233.095425 
L 79.048061 210.825509 
L 80.351895 209.506492 
L 81.655728 197.38994 
L 82.959562 171.009599 
L 84.263395 174.383828 
L 85.567229 164.90531 
L 86.871062 151.439066 
L 88.174896 146.899194 
L 89.478729 146.592446 
L 90.782563 138.709018 
L 92.086396 135.825585 
L 93.39023 131.837859 
L 94.694064 128.647678 
L 97.301731 119.813332 
L 98.605564 124.015781 
L 99.909398 119.23051 
L 101.213231 115.058735 
L 102.517065 113.709043 
L 103.820898 111.347082 
L 105.124732 109.721317 
L 106.428565 107.666105 
L 107.732399 107.972853 
L 109.036232 105.856291 
L 110.340066 106.408437 
L 111.643899 105.764266 
L 112.947733 135.641536 
L 114.251566 131.070989 
L 115.5554 137.205952 
L 116.859233 133.187551 
L 118.163067 133.524974 
L 119.4669 123.801058 
L 120.770734 121.469772 
L 122.074567 122.144618 
L 123.378401 124.629278 
L 124.682234 121.255048 
L 125.986068 115.733581 
L 127.289901 111.469782 
L 128.593735 117.205972 
L 129.897568 111.561806 
L 131.201402 109.874691 
L 132.505235 109.874691 
L 133.809069 104.046476 
L 135.112903 103.064882 
L 136.416736 106.408437 
L 137.72057 104.874696 
L 139.024403 104.353225 
L 140.328237 100.150775 
L 141.63207 102.54341 
L 142.935904 101.255068 
L 144.239737 95.764276 
L 145.543571 96.224398 
L 148.151238 96.316423 
L 149.455071 94.844032 
L 150.758905 92.758144 
L 152.062738 94.445259 
L 153.366572 90.273484 
L 154.670405 92.850169 
L 155.974239 93.034218 
L 157.278072 89.077166 
L 158.581906 89.936061 
L 159.885739 88.003548 
L 161.189573 86.316433 
L 162.493406 85.15079 
L 163.79724 84.26122 
L 165.101073 83.095577 
L 166.404907 82.942203 
L 167.70874 81.77656 
L 169.012574 82.72748 
L 170.316407 81.531162 
L 171.620241 79.752023 
L 172.924074 79.506624 
L 174.227908 79.506624 
L 175.531742 78.709079 
L 176.835575 78.310306 
L 178.139409 77.604785 
L 179.443242 77.052639 
L 180.747076 77.175338 
L 182.050909 76.439142 
L 183.354743 75.97902 
L 184.658576 75.672272 
L 185.96241 76.071045 
L 187.266243 75.273499 
L 188.570077 76.347118 
L 189.87391 75.273499 
L 191.177744 104.077151 
L 192.481577 103.064882 
L 195.089244 101.592491 
L 196.393078 103.43298 
L 197.696911 102.267337 
L 199.000745 98.126237 
L 200.304578 99.35323 
L 201.608412 96.377773 
L 202.912245 100.88697 
L 204.216079 98.279611 
L 205.519912 97.205993 
L 206.823746 99.35323 
L 208.127579 96.561821 
L 209.431413 98.40231 
L 210.735246 93.647714 
L 212.03908 97.63544 
L 213.342913 93.954462 
L 214.646747 92.696795 
L 215.950581 91.991274 
L 217.254414 96.653846 
L 218.558248 93.095567 
L 219.862081 94.199861 
L 221.165915 93.739738 
L 222.469748 89.629313 
L 223.773582 93.310291 
L 225.077415 91.715201 
L 226.381249 89.874712 
L 227.685082 89.475939 
L 228.988916 93.647714 
L 230.292749 87.972873 
L 231.596583 91.377778 
L 232.900416 89.230541 
L 234.20425 85.948335 
L 235.508083 87.390052 
L 236.811917 86.101709 
L 238.11575 87.6968 
L 239.419584 87.451401 
L 240.723417 83.187602 
L 242.027251 88.126247 
L 243.331084 84.537294 
L 244.634918 86.408457 
L 245.938751 86.347108 
L 247.242585 84.629318 
L 248.546418 84.353245 
L 249.850252 83.49435 
L 251.154085 79.844047 
L 252.457919 81.101714 
L 253.761752 81.531162 
L 255.065586 81.77656 
L 256.369419 82.482081 
L 257.673253 81.347113 
L 258.977087 82.021959 
L 260.28092 81.224414 
L 261.584754 80.94834 
L 262.888587 81.347113 
L 264.192421 80.334844 
L 265.496254 78.218282 
L 266.800088 78.218282 
L 268.103921 78.003558 
L 269.407755 78.218282 
L 270.711588 77.420737 
L 272.015422 77.942208 
L 273.319255 77.543436 
L 274.623089 77.451411 
L 275.926922 77.144663 
L 277.230756 74.475954 
L 278.534589 76.745891 
L 279.838423 75.825646 
L 281.142256 73.831783 
L 282.44609 74.905402 
L 283.749923 74.966751 
L 285.053757 76.439142 
L 286.35759 73.586385 
L 287.661424 71.89927 
L 288.965257 73.617059 
L 290.269091 72.420742 
L 291.572924 72.359392 
L 292.876758 70.641602 
L 294.180591 71.807245 
L 295.484425 69.997431 
L 296.788258 71.715221 
L 298.092092 70.94835 
L 299.395926 69.997431 
L 300.699759 70.856326 
L 302.003593 68.801113 
L 303.307426 69.997431 
L 304.61126 70.212155 
L 305.915093 68.739764 
L 307.218927 68.46369 
L 308.52276 69.41461 
L 309.826594 67.144673 
L 311.130427 67.880869 
L 313.738094 66.623201 
L 315.041928 66.377803 
L 316.345761 66.92995 
L 317.649595 66.500502 
L 318.953428 65.948356 
L 320.257262 65.120136 
L 321.561095 66.193754 
L 322.864929 64.905412 
L 324.168762 64.966761 
L 325.472596 65.27351 
L 326.776429 65.181485 
L 328.080263 64.567989 
L 329.384096 64.32259 
L 331.991763 64.997436 
L 334.59943 64.506639 
L 335.903264 64.107867 
L 337.207097 64.32259 
L 338.510931 63.709094 
L 339.814765 64.138541 
L 341.118598 63.801118 
L 343.726265 64.353265 
L 345.030099 63.678419 
L 346.333932 63.862468 
L 347.637766 88.40232 
L 348.941599 89.567963 
L 350.245433 89.046492 
L 351.549266 91.163054 
L 352.8531 89.383915 
L 354.156933 88.40232 
L 355.460767 92.482071 
L 358.068434 87.604775 
L 359.372267 88.801093 
L 360.676101 87.727475 
L 361.979934 88.46367 
L 363.283768 87.328702 
L 364.587601 87.942198 
L 365.891435 89.29189 
L 367.195268 90.856306 
L 368.499102 91.807225 
L 369.802935 89.475939 
L 371.106769 85.488213 
L 372.410602 87.482076 
L 373.714436 86.531157 
L 375.018269 86.163059 
L 376.322103 84.874717 
L 377.625936 85.733612 
L 378.92977 84.26122 
L 380.233604 83.709074 
L 382.841271 88.46367 
L 384.145104 87.052629 
L 385.448938 84.230546 
L 386.752771 84.690668 
L 388.056605 90.917655 
L 389.360438 85.273489 
L 390.664272 85.610912 
L 391.968105 87.972873 
L 393.271939 85.304164 
L 394.575772 81.500487 
L 395.879606 82.021959 
L 397.183439 84.936066 
L 398.487273 82.758154 
L 398.487273 82.758154 
" clip-path="url(#pd04c300d27)" style="fill: none; stroke: #9467bd; stroke-width: 1.5; stroke-linecap: square"/>
   </g>
   <g id="line2d_24">
    <path d="M 73.832727 284.275741 
L 75.136561 267.235575 
L 76.440394 234.159535 
L 77.744228 237.047262 
L 79.048061 214.24207 
L 80.351895 231.377636 
L 81.655728 205.039625 
L 82.959562 196.18626 
L 84.263395 199.909569 
L 85.567229 193.605281 
L 86.871062 190.157125 
L 88.174896 178.289039 
L 89.478729 177.178304 
L 90.782563 179.145787 
L 92.086396 172.8734 
L 93.39023 165.828622 
L 94.694064 164.009299 
L 95.997897 159.672494 
L 97.301731 166.67494 
L 98.605564 167.870338 
L 99.909398 162.655619 
L 101.213231 159.439978 
L 102.517065 157.588753 
L 103.820898 157.05992 
L 105.124732 157.514827 
L 106.428565 154.362683 
L 107.732399 153.992438 
L 109.036232 152.078023 
L 110.340066 153.029862 
L 111.643899 151.45379 
L 112.947733 174.036896 
L 114.251566 177.030451 
L 115.5554 174.713889 
L 116.859233 177.083212 
L 118.163067 185.354983 
L 119.4669 169.097331 
L 120.770734 160.349487 
L 122.074567 160.793965 
L 123.378401 164.538133 
L 124.682234 164.432611 
L 125.986068 160.328321 
L 127.289901 159.810224 
L 128.593735 160.360223 
L 129.897568 157.789673 
L 131.201402 158.20225 
L 132.505235 157.482925 
L 133.809069 154.013604 
L 135.112903 154.119432 
L 136.416736 153.209617 
L 137.72057 152.035692 
L 139.024403 153.770352 
L 140.328237 150.269129 
L 141.63207 144.684165 
L 142.935904 150.872196 
L 144.239737 146.070053 
L 145.543571 145.731403 
L 146.847404 141.183249 
L 148.151238 143.584166 
L 149.455071 143.182326 
L 150.758905 145.562078 
L 152.062738 144.663 
L 153.366572 144.430485 
L 154.670405 143.838154 
L 155.974239 138.771288 
L 157.278072 139.279263 
L 158.581906 138.316687 
L 159.885739 141.82834 
L 161.189573 135.957794 
L 162.493406 135.873131 
L 163.79724 135.111476 
L 165.101073 140.072513 
L 166.404907 134.455648 
L 167.70874 134.043378 
L 169.012574 140.897359 
L 170.316407 138.813619 
L 171.620241 136.37037 
L 172.924074 134.699206 
L 174.227908 135.767303 
L 175.531742 135.397058 
L 176.835575 133.366385 
L 178.139409 134.128041 
L 179.443242 133.123134 
L 180.747076 133.00657 
L 182.050909 132.245221 
L 183.354743 132.699822 
L 184.658576 131.039394 
L 185.96241 131.187246 
L 187.266243 130.605652 
L 188.570077 131.4624 
L 189.87391 131.409332 
L 191.177744 147.878641 
L 192.481577 143.975577 
L 193.785411 149.782626 
L 195.089244 156.732006 
L 196.393078 157.768508 
L 197.696911 151.781704 
L 199.000745 141.913002 
L 200.304578 151.496122 
L 201.608412 142.949504 
L 202.912245 146.641218 
L 204.216079 145.562078 
L 205.519912 149.719129 
L 206.823746 146.154409 
L 208.127579 145.837232 
L 209.431413 151.210539 
L 210.735246 148.0268 
L 212.03908 149.761461 
L 213.342913 145.05441 
L 214.646747 139.036011 
L 215.950581 145.94306 
L 217.254414 146.048888 
L 218.558248 144.187233 
L 219.862081 145.615146 
L 221.165915 148.746124 
L 222.469748 140.580182 
L 223.773582 144.017908 
L 225.077415 145.212999 
L 226.381249 145.318827 
L 227.685082 140.918525 
L 228.988916 141.341837 
L 230.292749 136.740615 
L 231.596583 139.332023 
L 232.900416 137.205952 
L 234.20425 140.13601 
L 235.508083 144.536313 
L 236.811917 136.782946 
L 238.11575 135.143377 
L 239.419584 136.951964 
L 240.723417 133.017306 
L 242.027251 140.611777 
L 243.331084 135.02712 
L 244.634918 138.242454 
L 245.938751 131.927736 
L 247.242585 138.390613 
L 248.546418 133.842152 
L 249.850252 135.344297 
L 251.154085 132.435405 
L 252.457919 137.597363 
L 253.761752 134.244299 
L 255.065586 134.519145 
L 256.369419 133.577735 
L 257.673253 135.873131 
L 258.977087 132.625895 
L 260.28092 137.354111 
L 261.584754 131.821908 
L 262.888587 134.87896 
L 264.192421 129.135408 
L 265.496254 131.4624 
L 266.800088 127.273753 
L 268.103921 129.336328 
L 269.407755 126.892772 
L 270.711588 131.874976 
L 272.015422 131.451663 
L 273.319255 131.4624 
L 274.623089 129.537248 
L 275.926922 126.935103 
L 277.230756 130.870069 
L 278.534589 125.26394 
L 279.838423 125.200443 
L 281.142256 130.203505 
L 282.44609 129.812401 
L 283.749923 131.451663 
L 286.35759 127.030502 
L 287.661424 125.475596 
L 288.965257 124.332959 
L 290.269091 123.624371 
L 291.572924 124.650443 
L 292.876758 125.3167 
L 294.180591 128.003507 
L 295.484425 125.644614 
L 296.788258 127.506269 
L 298.092092 130.330499 
L 299.395926 124.597683 
L 300.699759 123.148298 
L 302.003593 126.268846 
L 303.307426 125.285105 
L 304.61126 124.047376 
L 305.915093 123.560874 
L 307.218927 121.953207 
L 308.52276 122.788789 
L 309.826594 120.482963 
L 311.130427 120.958729 
L 312.434261 122.513636 
L 313.738094 122.979279 
L 315.041928 122.069464 
L 316.345761 120.429895 
L 317.649595 121.709955 
L 318.953428 123.455046 
L 320.257262 121.720385 
L 321.561095 118.853823 
L 322.864929 118.356891 
L 324.168762 119.245234 
L 325.472596 120.429895 
L 326.776429 118.695235 
L 328.080263 120.334803 
L 329.384096 121.043392 
L 330.68793 118.695235 
L 331.991763 121.498299 
L 333.295597 118.737566 
L 334.59943 119.435725 
L 335.903264 119.869466 
L 337.207097 119.752902 
L 338.510931 119.795233 
L 339.814765 120.176215 
L 341.118598 119.277136 
L 342.422432 119.827135 
L 345.030099 119.551982 
L 346.333932 118.779897 
L 347.637766 137.438774 
L 348.941599 142.420671 
L 350.245433 139.628205 
L 351.549266 141.870639 
L 352.8531 142.515868 
L 354.156933 139.554162 
L 355.460767 146.143959 
L 356.7646 145.58335 
L 358.068434 137.205952 
L 359.372267 134.339443 
L 360.676101 132.234516 
L 361.979934 137.322305 
L 363.283768 144.134229 
L 364.587601 143.129365 
L 365.891435 146.260311 
L 367.195268 139.956108 
L 368.499102 146.831498 
L 369.802935 141.775442 
L 371.106769 139.77629 
L 372.410602 138.464677 
L 373.714436 136.581878 
L 375.018269 139.871488 
L 376.322103 138.316592 
L 377.625936 132.202784 
L 378.92977 141.754287 
L 380.233604 127.09384 
L 381.537437 132.107586 
L 382.841271 135.534703 
L 384.145104 135.301998 
L 385.448938 132.81628 
L 386.752771 137.755983 
L 388.056605 137.004979 
L 389.360438 134.529839 
L 390.664272 133.662482 
L 391.968105 129.960349 
L 393.271939 138.115619 
L 394.575772 131.441202 
L 395.879606 134.783699 
L 397.183439 132.350869 
L 398.487273 132.583575 
L 398.487273 132.583575 
" clip-path="url(#pd04c300d27)" style="fill: none; stroke: #8c564b; stroke-width: 1.5; stroke-linecap: square"/>
   </g>
   <g id="line2d_25">
    <path d="M 73.832727 295.488 
L 75.136561 289.353037 
L 76.440394 279.843844 
L 77.744228 275.48802 
L 79.048061 268.064715 
L 80.351895 263.279444 
L 81.655728 262.573923 
L 82.959562 247.451239 
L 84.263395 243.06474 
L 85.567229 239.445112 
L 86.871062 229.75187 
L 88.174896 233.862296 
L 89.478729 220.549426 
L 90.782563 232.144506 
L 93.39023 217.604643 
L 94.694064 219.567832 
L 95.997897 212.850047 
L 97.301731 211.224282 
L 98.605564 213.708942 
L 99.909398 206.254962 
L 101.213231 210.396062 
L 103.820898 200.518771 
L 105.124732 203.371529 
L 106.428565 203.494228 
L 107.732399 205.794839 
L 109.036232 198.893006 
L 110.340066 203.156805 
L 111.643899 199.537177 
L 112.947733 207.083182 
L 114.251566 222.665988 
L 115.5554 213.739617 
L 116.859233 217.635318 
L 118.163067 216.439 
L 119.4669 215.518756 
L 120.770734 211.346981 
L 122.074567 201.009568 
L 123.378401 212.4206 
L 124.682234 211.561705 
L 125.986068 204.813245 
L 127.289901 196.316321 
L 128.593735 202.205886 
L 129.897568 198.21816 
L 131.201402 195.702825 
L 132.505235 194.13841 
L 133.809069 192.880742 
L 135.112903 190.058659 
L 136.416736 194.13841 
L 137.72057 187.083202 
L 139.024403 187.144552 
L 140.328237 186.653755 
L 141.63207 188.432894 
L 142.935904 186.469706 
L 144.239737 181.868483 
L 145.543571 178.310205 
L 146.847404 186.193632 
L 148.151238 184.046395 
L 149.455071 176.991188 
L 150.758905 181.408361 
L 153.366572 171.347022 
L 154.670405 178.156831 
L 155.974239 169.843956 
L 157.278072 176.316342 
L 158.581906 170.426777 
L 159.885739 181.070938 
L 161.189573 172.297941 
L 162.493406 167.942117 
L 163.79724 170.150704 
L 165.101073 166.469726 
L 166.404907 169.04641 
L 167.70874 168.27954 
L 169.012574 167.021873 
L 170.316407 171.254997 
L 171.620241 162.972797 
L 172.924074 163.954391 
L 174.227908 162.850098 
L 175.531742 162.236601 
L 176.835575 169.445183 
L 178.139409 163.31022 
L 179.443242 159.506543 
L 180.747076 161.929853 
L 182.050909 163.218196 
L 183.354743 162.512675 
L 184.658576 161.500406 
L 185.96241 163.187521 
L 187.266243 162.512675 
L 188.570077 156.040289 
L 189.87391 161.009609 
L 191.177744 185.058664 
L 192.481577 190.488107 
L 193.785411 186.592405 
L 195.089244 184.445168 
L 196.393078 196.899143 
L 197.696911 184.598542 
L 199.000745 185.027989 
L 200.304578 179.261124 
L 201.608412 187.359275 
L 202.912245 187.144552 
L 204.216079 182.175232 
L 205.519912 196.162947 
L 206.823746 186.101608 
L 208.127579 183.800997 
L 209.431413 184.96664 
L 210.735246 178.494254 
L 212.03908 188.156821 
L 213.342913 183.494249 
L 214.646747 179.475848 
L 215.950581 183.463574 
L 217.254414 177.574009 
L 218.558248 185.825535 
L 219.862081 178.831677 
L 221.165915 181.745784 
L 223.773582 186.684429 
L 225.077415 186.040258 
L 226.381249 183.402224 
L 227.685082 187.512649 
L 228.988916 180.212043 
L 230.292749 174.751926 
L 231.596583 180.978914 
L 232.900416 182.696703 
L 234.20425 172.758063 
L 235.508083 176.62309 
L 236.811917 177.236586 
L 238.11575 174.015731 
L 239.419584 172.758063 
L 240.723417 176.101618 
L 242.027251 177.45131 
L 243.331084 171.101623 
L 244.634918 180.76419 
L 245.938751 182.451305 
L 247.242585 172.942112 
L 248.546418 179.813271 
L 249.850252 176.960513 
L 251.154085 172.205916 
L 252.457919 178.923701 
L 253.761752 172.758063 
L 255.065586 172.880762 
L 256.369419 183.095476 
L 257.673253 173.24886 
L 258.977087 172.359291 
L 260.28092 178.893026 
L 261.584754 170.426777 
L 262.888587 174.07708 
L 264.192421 168.770337 
L 265.496254 168.586288 
L 266.800088 167.942117 
L 268.103921 176.162968 
L 269.407755 162.696724 
L 270.711588 170.089354 
L 272.015422 174.015731 
L 273.319255 165.396107 
L 274.623089 173.432909 
L 275.926922 169.87463 
L 277.230756 170.426777 
L 278.534589 170.702851 
L 279.838423 171.776469 
L 281.142256 170.426777 
L 282.44609 168.064816 
L 283.749923 163.126171 
L 285.053757 165.334758 
L 286.35759 159.23047 
L 287.661424 170.150704 
L 288.965257 159.598567 
L 290.269091 158.156851 
L 291.572924 162.666049 
L 292.876758 152.297961 
L 294.180591 167.51267 
L 295.484425 159.10777 
L 296.788258 161.807154 
L 298.092092 163.24887 
L 299.395926 158.371575 
L 300.699759 159.905315 
L 302.003593 156.224338 
L 303.307426 158.463599 
L 304.61126 154.874646 
L 307.218927 159.99734 
L 308.52276 165.426782 
L 309.826594 164.291814 
L 311.130427 153.739678 
L 312.434261 157.482005 
L 313.738094 152.54336 
L 315.041928 156.929858 
L 316.345761 156.991208 
L 317.649595 154.843971 
L 318.953428 155.948264 
L 320.257262 155.304093 
L 321.561095 155.242743 
L 322.864929 155.488142 
L 324.168762 160.242738 
L 325.472596 157.911452 
L 326.776429 157.666054 
L 328.080263 153.954401 
L 329.384096 159.353169 
L 330.68793 155.334768 
L 331.991763 154.721272 
L 333.295597 152.635384 
L 334.59943 157.052558 
L 335.903264 156.347037 
L 337.207097 159.10777 
L 338.510931 154.230475 
L 339.814765 153.24888 
L 341.118598 154.567898 
L 342.422432 158.463599 
L 343.726265 154.782621 
L 345.030099 157.144582 
L 346.333932 153.187531 
L 347.637766 185.917559 
L 348.941599 188.770317 
L 350.245433 177.819408 
L 351.549266 172.972787 
L 352.8531 179.751921 
L 354.156933 178.064806 
L 355.460767 184.506517 
L 356.7646 181.193637 
L 358.068434 179.629222 
L 359.372267 185.549461 
L 360.676101 170.488127 
L 361.979934 186.653755 
L 364.587601 178.893026 
L 365.891435 189.506512 
L 367.195268 182.819403 
L 368.499102 184.291794 
L 369.802935 178.034131 
L 371.106769 179.813271 
L 372.410602 168.003467 
L 373.714436 176.101618 
L 375.018269 174.843951 
L 376.322103 175.549471 
L 377.625936 175.027999 
L 378.92977 179.751921 
L 380.233604 175.457447 
L 381.537437 170.120029 
L 382.841271 181.070938 
L 384.145104 177.083212 
L 385.448938 181.009589 
L 386.752771 175.212048 
L 388.056605 178.27953 
L 389.360438 182.48198 
L 390.664272 187.911422 
L 391.968105 181.623085 
L 394.575772 185.948234 
L 395.879606 186.653755 
L 397.183439 174.690577 
L 398.487273 180.150694 
L 398.487273 180.150694 
" clip-path="url(#pd04c300d27)" style="fill: none; stroke: #e377c2; stroke-width: 1.5; stroke-linecap: square"/>
   </g>
   <g id="patch_3">
    <path d="M 57.6 307.584 
L 57.6 41.472 
" style="fill: none; stroke: #000000; stroke-width: 0.8; stroke-linejoin: miter; stroke-linecap: square"/>
   </g>
   <g id="patch_4">
    <path d="M 414.72 307.584 
L 414.72 41.472 
" style="fill: none; stroke: #000000; stroke-width: 0.8; stroke-linejoin: miter; stroke-linecap: square"/>
   </g>
   <g id="patch_5">
    <path d="M 57.6 307.584 
L 414.72 307.584 
" style="fill: none; stroke: #000000; stroke-width: 0.8; stroke-linejoin: miter; stroke-linecap: square"/>
   </g>
   <g id="patch_6">
    <path d="M 57.6 41.472 
L 414.72 41.472 
" style="fill: none; stroke: #000000; stroke-width: 0.8; stroke-linejoin: miter; stroke-linecap: square"/>
   </g>
   <g id="text_21">
    <!-- Training and Validation Accuracy -->
    <g transform="translate(138.4575 35.472) scale(0.12 -0.12)">
     <defs>
      <path id="DejaVuSans-54" d="M -19 4666 
L 3928 4666 
L 3928 4134 
L 2272 4134 
L 2272 0 
L 1638 0 
L 1638 4134 
L -19 4134 
L -19 4666 
z
" transform="scale(0.015625)"/>
      <path id="DejaVuSans-69" d="M 603 3500 
L 1178 3500 
L 1178 0 
L 603 0 
L 603 3500 
z
M 603 4863 
L 1178 4863 
L 1178 4134 
L 603 4134 
L 603 4863 
z
" transform="scale(0.015625)"/>
      <path id="DejaVuSans-6e" d="M 3513 2113 
L 3513 0 
L 2938 0 
L 2938 2094 
Q 2938 2591 2744 2837 
Q 2550 3084 2163 3084 
Q 1697 3084 1428 2787 
Q 1159 2491 1159 1978 
L 1159 0 
L 581 0 
L 581 3500 
L 1159 3500 
L 1159 2956 
Q 1366 3272 1645 3428 
Q 1925 3584 2291 3584 
Q 2894 3584 3203 3211 
Q 3513 2838 3513 2113 
z
" transform="scale(0.015625)"/>
      <path id="DejaVuSans-67" d="M 2906 1791 
Q 2906 2416 2648 2759 
Q 2391 3103 1925 3103 
Q 1463 3103 1205 2759 
Q 947 2416 947 1791 
Q 947 1169 1205 825 
Q 1463 481 1925 481 
Q 2391 481 2648 825 
Q 2906 1169 2906 1791 
z
M 3481 434 
Q 3481 -459 3084 -895 
Q 2688 -1331 1869 -1331 
Q 1566 -1331 1297 -1286 
Q 1028 -1241 775 -1147 
L 775 -588 
Q 1028 -725 1275 -790 
Q 1522 -856 1778 -856 
Q 2344 -856 2625 -561 
Q 2906 -266 2906 331 
L 2906 616 
Q 2728 306 2450 153 
Q 2172 0 1784 0 
Q 1141 0 747 490 
Q 353 981 353 1791 
Q 353 2603 747 3093 
Q 1141 3584 1784 3584 
Q 2172 3584 2450 3431 
Q 2728 3278 2906 2969 
L 2906 3500 
L 3481 3500 
L 3481 434 
z
" transform="scale(0.015625)"/>
      <path id="DejaVuSans-20" transform="scale(0.015625)"/>
      <path id="DejaVuSans-64" d="M 2906 2969 
L 2906 4863 
L 3481 4863 
L 3481 0 
L 2906 0 
L 2906 525 
Q 2725 213 2448 61 
Q 2172 -91 1784 -91 
Q 1150 -91 751 415 
Q 353 922 353 1747 
Q 353 2572 751 3078 
Q 1150 3584 1784 3584 
Q 2172 3584 2448 3432 
Q 2725 3281 2906 2969 
z
M 947 1747 
Q 947 1113 1208 752 
Q 1469 391 1925 391 
Q 2381 391 2643 752 
Q 2906 1113 2906 1747 
Q 2906 2381 2643 2742 
Q 2381 3103 1925 3103 
Q 1469 3103 1208 2742 
Q 947 2381 947 1747 
z
" transform="scale(0.015625)"/>
      <path id="DejaVuSans-56" d="M 1831 0 
L 50 4666 
L 709 4666 
L 2188 738 
L 3669 4666 
L 4325 4666 
L 2547 0 
L 1831 0 
z
" transform="scale(0.015625)"/>
      <path id="DejaVuSans-6c" d="M 603 4863 
L 1178 4863 
L 1178 0 
L 603 0 
L 603 4863 
z
" transform="scale(0.015625)"/>
      <path id="DejaVuSans-74" d="M 1172 4494 
L 1172 3500 
L 2356 3500 
L 2356 3053 
L 1172 3053 
L 1172 1153 
Q 1172 725 1289 603 
Q 1406 481 1766 481 
L 2356 481 
L 2356 0 
L 1766 0 
Q 1100 0 847 248 
Q 594 497 594 1153 
L 594 3053 
L 172 3053 
L 172 3500 
L 594 3500 
L 594 4494 
L 1172 4494 
z
" transform="scale(0.015625)"/>
     </defs>
     <use xlink:href="#DejaVuSans-54"/>
     <use xlink:href="#DejaVuSans-72" x="46.333984"/>
     <use xlink:href="#DejaVuSans-61" x="87.447266"/>
     <use xlink:href="#DejaVuSans-69" x="148.726562"/>
     <use xlink:href="#DejaVuSans-6e" x="176.509766"/>
     <use xlink:href="#DejaVuSans-69" x="239.888672"/>
     <use xlink:href="#DejaVuSans-6e" x="267.671875"/>
     <use xlink:href="#DejaVuSans-67" x="331.050781"/>
     <use xlink:href="#DejaVuSans-20" x="394.527344"/>
     <use xlink:href="#DejaVuSans-61" x="426.314453"/>
     <use xlink:href="#DejaVuSans-6e" x="487.59375"/>
     <use xlink:href="#DejaVuSans-64" x="550.972656"/>
     <use xlink:href="#DejaVuSans-20" x="614.449219"/>
     <use xlink:href="#DejaVuSans-56" x="646.236328"/>
     <use xlink:href="#DejaVuSans-61" x="706.894531"/>
     <use xlink:href="#DejaVuSans-6c" x="768.173828"/>
     <use xlink:href="#DejaVuSans-69" x="795.957031"/>
     <use xlink:href="#DejaVuSans-64" x="823.740234"/>
     <use xlink:href="#DejaVuSans-61" x="887.216797"/>
     <use xlink:href="#DejaVuSans-74" x="948.496094"/>
     <use xlink:href="#DejaVuSans-69" x="987.705078"/>
     <use xlink:href="#DejaVuSans-6f" x="1015.488281"/>
     <use xlink:href="#DejaVuSans-6e" x="1076.669922"/>
     <use xlink:href="#DejaVuSans-20" x="1140.048828"/>
     <use xlink:href="#DejaVuSans-41" x="1171.835938"/>
     <use xlink:href="#DejaVuSans-63" x="1238.494141"/>
     <use xlink:href="#DejaVuSans-63" x="1293.474609"/>
     <use xlink:href="#DejaVuSans-75" x="1348.455078"/>
     <use xlink:href="#DejaVuSans-72" x="1411.833984"/>
     <use xlink:href="#DejaVuSans-61" x="1452.947266"/>
     <use xlink:href="#DejaVuSans-63" x="1514.226562"/>
     <use xlink:href="#DejaVuSans-79" x="1569.207031"/>
    </g>
   </g>
   <g id="legend_1">
    <g id="patch_7">
     <path d="M 192.291875 302.584 
L 407.72 302.584 
Q 409.72 302.584 409.72 300.584 
L 409.72 198.837125 
Q 409.72 196.837125 407.72 196.837125 
L 192.291875 196.837125 
Q 190.291875 196.837125 190.291875 198.837125 
L 190.291875 300.584 
Q 190.291875 302.584 192.291875 302.584 
z
" style="fill: #ffffff; opacity: 0.8; stroke: #cccccc; stroke-linejoin: miter"/>
    </g>
    <g id="line2d_26">
     <path d="M 194.291875 204.935563 
L 204.291875 204.935563 
L 214.291875 204.935563 
" style="fill: none; stroke: #1f77b4; stroke-width: 1.5; stroke-linecap: square"/>
    </g>
    <g id="text_22">
     <!-- Train Accuracy -->
     <g transform="translate(222.291875 208.435563) scale(0.1 -0.1)">
      <use xlink:href="#DejaVuSans-54"/>
      <use xlink:href="#DejaVuSans-72" x="46.333984"/>
      <use xlink:href="#DejaVuSans-61" x="87.447266"/>
      <use xlink:href="#DejaVuSans-69" x="148.726562"/>
      <use xlink:href="#DejaVuSans-6e" x="176.509766"/>
      <use xlink:href="#DejaVuSans-20" x="239.888672"/>
      <use xlink:href="#DejaVuSans-41" x="271.675781"/>
      <use xlink:href="#DejaVuSans-63" x="338.333984"/>
      <use xlink:href="#DejaVuSans-63" x="393.314453"/>
      <use xlink:href="#DejaVuSans-75" x="448.294922"/>
      <use xlink:href="#DejaVuSans-72" x="511.673828"/>
      <use xlink:href="#DejaVuSans-61" x="552.787109"/>
      <use xlink:href="#DejaVuSans-63" x="614.066406"/>
      <use xlink:href="#DejaVuSans-79" x="669.046875"/>
     </g>
    </g>
    <g id="line2d_27">
     <path d="M 194.291875 219.613688 
L 204.291875 219.613688 
L 214.291875 219.613688 
" style="fill: none; stroke: #ff7f0e; stroke-width: 1.5; stroke-linecap: square"/>
    </g>
    <g id="text_23">
     <!-- Validation Accuracy -->
     <g transform="translate(222.291875 223.113688) scale(0.1 -0.1)">
      <use xlink:href="#DejaVuSans-56"/>
      <use xlink:href="#DejaVuSans-61" x="60.658203"/>
      <use xlink:href="#DejaVuSans-6c" x="121.9375"/>
      <use xlink:href="#DejaVuSans-69" x="149.720703"/>
      <use xlink:href="#DejaVuSans-64" x="177.503906"/>
      <use xlink:href="#DejaVuSans-61" x="240.980469"/>
      <use xlink:href="#DejaVuSans-74" x="302.259766"/>
      <use xlink:href="#DejaVuSans-69" x="341.46875"/>
      <use xlink:href="#DejaVuSans-6f" x="369.251953"/>
      <use xlink:href="#DejaVuSans-6e" x="430.433594"/>
      <use xlink:href="#DejaVuSans-20" x="493.8125"/>
      <use xlink:href="#DejaVuSans-41" x="525.599609"/>
      <use xlink:href="#DejaVuSans-63" x="592.257812"/>
      <use xlink:href="#DejaVuSans-63" x="647.238281"/>
      <use xlink:href="#DejaVuSans-75" x="702.21875"/>
      <use xlink:href="#DejaVuSans-72" x="765.597656"/>
      <use xlink:href="#DejaVuSans-61" x="806.710938"/>
      <use xlink:href="#DejaVuSans-63" x="867.990234"/>
      <use xlink:href="#DejaVuSans-79" x="922.970703"/>
     </g>
    </g>
    <g id="line2d_28">
     <path d="M 194.291875 234.291812 
L 204.291875 234.291812 
L 214.291875 234.291812 
" style="fill: none; stroke: #2ca02c; stroke-width: 1.5; stroke-linecap: square"/>
    </g>
    <g id="text_24">
     <!-- Robust Validation Accuracy -->
     <g transform="translate(222.291875 237.791812) scale(0.1 -0.1)">
      <defs>
       <path id="DejaVuSans-52" d="M 2841 2188 
Q 3044 2119 3236 1894 
Q 3428 1669 3622 1275 
L 4263 0 
L 3584 0 
L 2988 1197 
Q 2756 1666 2539 1819 
Q 2322 1972 1947 1972 
L 1259 1972 
L 1259 0 
L 628 0 
L 628 4666 
L 2053 4666 
Q 2853 4666 3247 4331 
Q 3641 3997 3641 3322 
Q 3641 2881 3436 2590 
Q 3231 2300 2841 2188 
z
M 1259 4147 
L 1259 2491 
L 2053 2491 
Q 2509 2491 2742 2702 
Q 2975 2913 2975 3322 
Q 2975 3731 2742 3939 
Q 2509 4147 2053 4147 
L 1259 4147 
z
" transform="scale(0.015625)"/>
       <path id="DejaVuSans-62" d="M 3116 1747 
Q 3116 2381 2855 2742 
Q 2594 3103 2138 3103 
Q 1681 3103 1420 2742 
Q 1159 2381 1159 1747 
Q 1159 1113 1420 752 
Q 1681 391 2138 391 
Q 2594 391 2855 752 
Q 3116 1113 3116 1747 
z
M 1159 2969 
Q 1341 3281 1617 3432 
Q 1894 3584 2278 3584 
Q 2916 3584 3314 3078 
Q 3713 2572 3713 1747 
Q 3713 922 3314 415 
Q 2916 -91 2278 -91 
Q 1894 -91 1617 61 
Q 1341 213 1159 525 
L 1159 0 
L 581 0 
L 581 4863 
L 1159 4863 
L 1159 2969 
z
" transform="scale(0.015625)"/>
      </defs>
      <use xlink:href="#DejaVuSans-52"/>
      <use xlink:href="#DejaVuSans-6f" x="64.982422"/>
      <use xlink:href="#DejaVuSans-62" x="126.164062"/>
      <use xlink:href="#DejaVuSans-75" x="189.640625"/>
      <use xlink:href="#DejaVuSans-73" x="253.019531"/>
      <use xlink:href="#DejaVuSans-74" x="305.119141"/>
      <use xlink:href="#DejaVuSans-20" x="344.328125"/>
      <use xlink:href="#DejaVuSans-56" x="376.115234"/>
      <use xlink:href="#DejaVuSans-61" x="436.773438"/>
      <use xlink:href="#DejaVuSans-6c" x="498.052734"/>
      <use xlink:href="#DejaVuSans-69" x="525.835938"/>
      <use xlink:href="#DejaVuSans-64" x="553.619141"/>
      <use xlink:href="#DejaVuSans-61" x="617.095703"/>
      <use xlink:href="#DejaVuSans-74" x="678.375"/>
      <use xlink:href="#DejaVuSans-69" x="717.583984"/>
      <use xlink:href="#DejaVuSans-6f" x="745.367188"/>
      <use xlink:href="#DejaVuSans-6e" x="806.548828"/>
      <use xlink:href="#DejaVuSans-20" x="869.927734"/>
      <use xlink:href="#DejaVuSans-41" x="901.714844"/>
      <use xlink:href="#DejaVuSans-63" x="968.373047"/>
      <use xlink:href="#DejaVuSans-63" x="1023.353516"/>
      <use xlink:href="#DejaVuSans-75" x="1078.333984"/>
      <use xlink:href="#DejaVuSans-72" x="1141.712891"/>
      <use xlink:href="#DejaVuSans-61" x="1182.826172"/>
      <use xlink:href="#DejaVuSans-63" x="1244.105469"/>
      <use xlink:href="#DejaVuSans-79" x="1299.085938"/>
     </g>
    </g>
    <g id="line2d_29">
     <path d="M 194.291875 248.969938 
L 204.291875 248.969938 
L 214.291875 248.969938 
" style="fill: none; stroke: #d62728; stroke-width: 1.5; stroke-linecap: square"/>
    </g>
    <g id="text_25">
     <!-- Adversarial Validation Accuracy -->
     <g transform="translate(222.291875 252.469938) scale(0.1 -0.1)">
      <defs>
       <path id="DejaVuSans-76" d="M 191 3500 
L 800 3500 
L 1894 563 
L 2988 3500 
L 3597 3500 
L 2284 0 
L 1503 0 
L 191 3500 
z
" transform="scale(0.015625)"/>
       <path id="DejaVuSans-65" d="M 3597 1894 
L 3597 1613 
L 953 1613 
Q 991 1019 1311 708 
Q 1631 397 2203 397 
Q 2534 397 2845 478 
Q 3156 559 3463 722 
L 3463 178 
Q 3153 47 2828 -22 
Q 2503 -91 2169 -91 
Q 1331 -91 842 396 
Q 353 884 353 1716 
Q 353 2575 817 3079 
Q 1281 3584 2069 3584 
Q 2775 3584 3186 3129 
Q 3597 2675 3597 1894 
z
M 3022 2063 
Q 3016 2534 2758 2815 
Q 2500 3097 2075 3097 
Q 1594 3097 1305 2825 
Q 1016 2553 972 2059 
L 3022 2063 
z
" transform="scale(0.015625)"/>
      </defs>
      <use xlink:href="#DejaVuSans-41"/>
      <use xlink:href="#DejaVuSans-64" x="66.658203"/>
      <use xlink:href="#DejaVuSans-76" x="130.134766"/>
      <use xlink:href="#DejaVuSans-65" x="189.314453"/>
      <use xlink:href="#DejaVuSans-72" x="250.837891"/>
      <use xlink:href="#DejaVuSans-73" x="291.951172"/>
      <use xlink:href="#DejaVuSans-61" x="344.050781"/>
      <use xlink:href="#DejaVuSans-72" x="405.330078"/>
      <use xlink:href="#DejaVuSans-69" x="446.443359"/>
      <use xlink:href="#DejaVuSans-61" x="474.226562"/>
      <use xlink:href="#DejaVuSans-6c" x="535.505859"/>
      <use xlink:href="#DejaVuSans-20" x="563.289062"/>
      <use xlink:href="#DejaVuSans-56" x="595.076172"/>
      <use xlink:href="#DejaVuSans-61" x="655.734375"/>
      <use xlink:href="#DejaVuSans-6c" x="717.013672"/>
      <use xlink:href="#DejaVuSans-69" x="744.796875"/>
      <use xlink:href="#DejaVuSans-64" x="772.580078"/>
      <use xlink:href="#DejaVuSans-61" x="836.056641"/>
      <use xlink:href="#DejaVuSans-74" x="897.335938"/>
      <use xlink:href="#DejaVuSans-69" x="936.544922"/>
      <use xlink:href="#DejaVuSans-6f" x="964.328125"/>
      <use xlink:href="#DejaVuSans-6e" x="1025.509766"/>
      <use xlink:href="#DejaVuSans-20" x="1088.888672"/>
      <use xlink:href="#DejaVuSans-41" x="1120.675781"/>
      <use xlink:href="#DejaVuSans-63" x="1187.333984"/>
      <use xlink:href="#DejaVuSans-63" x="1242.314453"/>
      <use xlink:href="#DejaVuSans-75" x="1297.294922"/>
      <use xlink:href="#DejaVuSans-72" x="1360.673828"/>
      <use xlink:href="#DejaVuSans-61" x="1401.787109"/>
      <use xlink:href="#DejaVuSans-63" x="1463.066406"/>
      <use xlink:href="#DejaVuSans-79" x="1518.046875"/>
     </g>
    </g>
    <g id="line2d_30">
     <path d="M 194.291875 263.648063 
L 204.291875 263.648063 
L 214.291875 263.648063 
" style="fill: none; stroke: #9467bd; stroke-width: 1.5; stroke-linecap: square"/>
    </g>
    <g id="text_26">
     <!-- SWA Validation Accuracy -->
     <g transform="translate(222.291875 267.148063) scale(0.1 -0.1)">
      <defs>
       <path id="DejaVuSans-53" d="M 3425 4513 
L 3425 3897 
Q 3066 4069 2747 4153 
Q 2428 4238 2131 4238 
Q 1616 4238 1336 4038 
Q 1056 3838 1056 3469 
Q 1056 3159 1242 3001 
Q 1428 2844 1947 2747 
L 2328 2669 
Q 3034 2534 3370 2195 
Q 3706 1856 3706 1288 
Q 3706 609 3251 259 
Q 2797 -91 1919 -91 
Q 1588 -91 1214 -16 
Q 841 59 441 206 
L 441 856 
Q 825 641 1194 531 
Q 1563 422 1919 422 
Q 2459 422 2753 634 
Q 3047 847 3047 1241 
Q 3047 1584 2836 1778 
Q 2625 1972 2144 2069 
L 1759 2144 
Q 1053 2284 737 2584 
Q 422 2884 422 3419 
Q 422 4038 858 4394 
Q 1294 4750 2059 4750 
Q 2388 4750 2728 4690 
Q 3069 4631 3425 4513 
z
" transform="scale(0.015625)"/>
       <path id="DejaVuSans-57" d="M 213 4666 
L 850 4666 
L 1831 722 
L 2809 4666 
L 3519 4666 
L 4500 722 
L 5478 4666 
L 6119 4666 
L 4947 0 
L 4153 0 
L 3169 4050 
L 2175 0 
L 1381 0 
L 213 4666 
z
" transform="scale(0.015625)"/>
      </defs>
      <use xlink:href="#DejaVuSans-53"/>
      <use xlink:href="#DejaVuSans-57" x="63.476562"/>
      <use xlink:href="#DejaVuSans-41" x="156.853516"/>
      <use xlink:href="#DejaVuSans-20" x="225.261719"/>
      <use xlink:href="#DejaVuSans-56" x="257.048828"/>
      <use xlink:href="#DejaVuSans-61" x="317.707031"/>
      <use xlink:href="#DejaVuSans-6c" x="378.986328"/>
      <use xlink:href="#DejaVuSans-69" x="406.769531"/>
      <use xlink:href="#DejaVuSans-64" x="434.552734"/>
      <use xlink:href="#DejaVuSans-61" x="498.029297"/>
      <use xlink:href="#DejaVuSans-74" x="559.308594"/>
      <use xlink:href="#DejaVuSans-69" x="598.517578"/>
      <use xlink:href="#DejaVuSans-6f" x="626.300781"/>
      <use xlink:href="#DejaVuSans-6e" x="687.482422"/>
      <use xlink:href="#DejaVuSans-20" x="750.861328"/>
      <use xlink:href="#DejaVuSans-41" x="782.648438"/>
      <use xlink:href="#DejaVuSans-63" x="849.306641"/>
      <use xlink:href="#DejaVuSans-63" x="904.287109"/>
      <use xlink:href="#DejaVuSans-75" x="959.267578"/>
      <use xlink:href="#DejaVuSans-72" x="1022.646484"/>
      <use xlink:href="#DejaVuSans-61" x="1063.759766"/>
      <use xlink:href="#DejaVuSans-63" x="1125.039062"/>
      <use xlink:href="#DejaVuSans-79" x="1180.019531"/>
     </g>
    </g>
    <g id="line2d_31">
     <path d="M 194.291875 278.326188 
L 204.291875 278.326188 
L 214.291875 278.326188 
" style="fill: none; stroke: #8c564b; stroke-width: 1.5; stroke-linecap: square"/>
    </g>
    <g id="text_27">
     <!-- SWA Robust Validation Accuracy -->
     <g transform="translate(222.291875 281.826188) scale(0.1 -0.1)">
      <use xlink:href="#DejaVuSans-53"/>
      <use xlink:href="#DejaVuSans-57" x="63.476562"/>
      <use xlink:href="#DejaVuSans-41" x="156.853516"/>
      <use xlink:href="#DejaVuSans-20" x="225.261719"/>
      <use xlink:href="#DejaVuSans-52" x="257.048828"/>
      <use xlink:href="#DejaVuSans-6f" x="322.03125"/>
      <use xlink:href="#DejaVuSans-62" x="383.212891"/>
      <use xlink:href="#DejaVuSans-75" x="446.689453"/>
      <use xlink:href="#DejaVuSans-73" x="510.068359"/>
      <use xlink:href="#DejaVuSans-74" x="562.167969"/>
      <use xlink:href="#DejaVuSans-20" x="601.376953"/>
      <use xlink:href="#DejaVuSans-56" x="633.164062"/>
      <use xlink:href="#DejaVuSans-61" x="693.822266"/>
      <use xlink:href="#DejaVuSans-6c" x="755.101562"/>
      <use xlink:href="#DejaVuSans-69" x="782.884766"/>
      <use xlink:href="#DejaVuSans-64" x="810.667969"/>
      <use xlink:href="#DejaVuSans-61" x="874.144531"/>
      <use xlink:href="#DejaVuSans-74" x="935.423828"/>
      <use xlink:href="#DejaVuSans-69" x="974.632812"/>
      <use xlink:href="#DejaVuSans-6f" x="1002.416016"/>
      <use xlink:href="#DejaVuSans-6e" x="1063.597656"/>
      <use xlink:href="#DejaVuSans-20" x="1126.976562"/>
      <use xlink:href="#DejaVuSans-41" x="1158.763672"/>
      <use xlink:href="#DejaVuSans-63" x="1225.421875"/>
      <use xlink:href="#DejaVuSans-63" x="1280.402344"/>
      <use xlink:href="#DejaVuSans-75" x="1335.382812"/>
      <use xlink:href="#DejaVuSans-72" x="1398.761719"/>
      <use xlink:href="#DejaVuSans-61" x="1439.875"/>
      <use xlink:href="#DejaVuSans-63" x="1501.154297"/>
      <use xlink:href="#DejaVuSans-79" x="1556.134766"/>
     </g>
    </g>
    <g id="line2d_32">
     <path d="M 194.291875 293.004312 
L 204.291875 293.004312 
L 214.291875 293.004312 
" style="fill: none; stroke: #e377c2; stroke-width: 1.5; stroke-linecap: square"/>
    </g>
    <g id="text_28">
     <!-- SWA Adversarial Validation Accuracy -->
     <g transform="translate(222.291875 296.504312) scale(0.1 -0.1)">
      <use xlink:href="#DejaVuSans-53"/>
      <use xlink:href="#DejaVuSans-57" x="63.476562"/>
      <use xlink:href="#DejaVuSans-41" x="156.853516"/>
      <use xlink:href="#DejaVuSans-20" x="225.261719"/>
      <use xlink:href="#DejaVuSans-41" x="257.048828"/>
      <use xlink:href="#DejaVuSans-64" x="323.707031"/>
      <use xlink:href="#DejaVuSans-76" x="387.183594"/>
      <use xlink:href="#DejaVuSans-65" x="446.363281"/>
      <use xlink:href="#DejaVuSans-72" x="507.886719"/>
      <use xlink:href="#DejaVuSans-73" x="549"/>
      <use xlink:href="#DejaVuSans-61" x="601.099609"/>
      <use xlink:href="#DejaVuSans-72" x="662.378906"/>
      <use xlink:href="#DejaVuSans-69" x="703.492188"/>
      <use xlink:href="#DejaVuSans-61" x="731.275391"/>
      <use xlink:href="#DejaVuSans-6c" x="792.554688"/>
      <use xlink:href="#DejaVuSans-20" x="820.337891"/>
      <use xlink:href="#DejaVuSans-56" x="852.125"/>
      <use xlink:href="#DejaVuSans-61" x="912.783203"/>
      <use xlink:href="#DejaVuSans-6c" x="974.0625"/>
      <use xlink:href="#DejaVuSans-69" x="1001.845703"/>
      <use xlink:href="#DejaVuSans-64" x="1029.628906"/>
      <use xlink:href="#DejaVuSans-61" x="1093.105469"/>
      <use xlink:href="#DejaVuSans-74" x="1154.384766"/>
      <use xlink:href="#DejaVuSans-69" x="1193.59375"/>
      <use xlink:href="#DejaVuSans-6f" x="1221.376953"/>
      <use xlink:href="#DejaVuSans-6e" x="1282.558594"/>
      <use xlink:href="#DejaVuSans-20" x="1345.9375"/>
      <use xlink:href="#DejaVuSans-41" x="1377.724609"/>
      <use xlink:href="#DejaVuSans-63" x="1444.382812"/>
      <use xlink:href="#DejaVuSans-63" x="1499.363281"/>
      <use xlink:href="#DejaVuSans-75" x="1554.34375"/>
      <use xlink:href="#DejaVuSans-72" x="1617.722656"/>
      <use xlink:href="#DejaVuSans-61" x="1658.835938"/>
      <use xlink:href="#DejaVuSans-63" x="1720.115234"/>
      <use xlink:href="#DejaVuSans-79" x="1775.095703"/>
     </g>
    </g>
   </g>
  </g>
 </g>
 <defs>
  <clipPath id="pd04c300d27">
   <rect x="57.6" y="41.472" width="357.12" height="266.112"/>
  </clipPath>
 </defs>
</svg>
