<?xml version="1.0" encoding="utf-8" standalone="no"?>
<!DOCTYPE svg PUBLIC "-//W3C//DTD SVG 1.1//EN"
  "http://www.w3.org/Graphics/SVG/1.1/DTD/svg11.dtd">
<svg height="345.6pt" version="1.1" viewBox="0 0 460.8 345.6" width="460.8pt" xmlns="http://www.w3.org/2000/svg" xmlns:xlink="http://www.w3.org/1999/xlink">
 <metadata>
  <rdf:RDF xmlns:cc="http://creativecommons.org/ns#" xmlns:dc="http://purl.org/dc/elements/1.1/" xmlns:rdf="http://www.w3.org/1999/02/22-rdf-syntax-ns#">
   <cc:Work>
    <dc:type rdf:resource="http://purl.org/dc/dcmitype/StillImage"/>
    <dc:date>2024-02-07T15:30:42.397875</dc:date>
    <dc:format>image/svg+xml</dc:format>
    <dc:creator>
     <cc:Agent>
      <dc:title>Matplotlib v3.4.3, https://matplotlib.org/</dc:title>
     </cc:Agent>
    </dc:creator>
   </cc:Work>
  </rdf:RDF>
 </metadata>
 <defs>
  <style type="text/css">*{stroke-linecap:butt;stroke-linejoin:round;}</style>
 </defs>
 <g id="figure_1">
  <g id="patch_1">
   <path d="M 0 345.6 
L 460.8 345.6 
L 460.8 0 
L 0 0 
z
" style="fill:#ffffff;"/>
  </g>
  <g id="axes_1">
   <g id="patch_2">
    <path d="M 57.6 307.584 
L 414.72 307.584 
L 414.72 41.472 
L 57.6 41.472 
z
" style="fill:#ffffff;"/>
   </g>
   <g id="matplotlib.axis_1">
    <g id="xtick_1">
     <g id="line2d_1">
      <defs>
       <path d="M 0 0 
L 0 3.5 
" id="md455bdb622" style="stroke:#000000;stroke-width:0.8;"/>
      </defs>
      <g>
       <use style="stroke:#000000;stroke-width:0.8;" x="73.832727" xlink:href="#md455bdb622" y="307.584"/>
      </g>
     </g>
     <g id="text_1">
      <!-- 1 -->
      <g transform="translate(70.651477 322.182437)scale(0.1 -0.1)">
       <defs>
        <path d="M 794 531 
L 1825 531 
L 1825 4091 
L 703 3866 
L 703 4441 
L 1819 4666 
L 2450 4666 
L 2450 531 
L 3481 531 
L 3481 0 
L 794 0 
L 794 531 
z
" id="DejaVuSans-31" transform="scale(0.015625)"/>
       </defs>
       <use xlink:href="#DejaVuSans-31"/>
      </g>
     </g>
    </g>
    <g id="xtick_2">
     <g id="line2d_2">
      <g>
       <use style="stroke:#000000;stroke-width:0.8;" x="109.710992" xlink:href="#md455bdb622" y="307.584"/>
      </g>
     </g>
     <g id="text_2">
      <!-- 42 -->
      <g transform="translate(103.348492 322.182437)scale(0.1 -0.1)">
       <defs>
        <path d="M 2419 4116 
L 825 1625 
L 2419 1625 
L 2419 4116 
z
M 2253 4666 
L 3047 4666 
L 3047 1625 
L 3713 1625 
L 3713 1100 
L 3047 1100 
L 3047 0 
L 2419 0 
L 2419 1100 
L 313 1100 
L 313 1709 
L 2253 4666 
z
" id="DejaVuSans-34" transform="scale(0.015625)"/>
        <path d="M 1228 531 
L 3431 531 
L 3431 0 
L 469 0 
L 469 531 
Q 828 903 1448 1529 
Q 2069 2156 2228 2338 
Q 2531 2678 2651 2914 
Q 2772 3150 2772 3378 
Q 2772 3750 2511 3984 
Q 2250 4219 1831 4219 
Q 1534 4219 1204 4116 
Q 875 4013 500 3803 
L 500 4441 
Q 881 4594 1212 4672 
Q 1544 4750 1819 4750 
Q 2544 4750 2975 4387 
Q 3406 4025 3406 3419 
Q 3406 3131 3298 2873 
Q 3191 2616 2906 2266 
Q 2828 2175 2409 1742 
Q 1991 1309 1228 531 
z
" id="DejaVuSans-32" transform="scale(0.015625)"/>
       </defs>
       <use xlink:href="#DejaVuSans-34"/>
       <use x="63.623047" xlink:href="#DejaVuSans-32"/>
      </g>
     </g>
    </g>
    <g id="xtick_3">
     <g id="line2d_3">
      <g>
       <use style="stroke:#000000;stroke-width:0.8;" x="145.589258" xlink:href="#md455bdb622" y="307.584"/>
      </g>
     </g>
     <g id="text_3">
      <!-- 83 -->
      <g transform="translate(139.226758 322.182437)scale(0.1 -0.1)">
       <defs>
        <path d="M 2034 2216 
Q 1584 2216 1326 1975 
Q 1069 1734 1069 1313 
Q 1069 891 1326 650 
Q 1584 409 2034 409 
Q 2484 409 2743 651 
Q 3003 894 3003 1313 
Q 3003 1734 2745 1975 
Q 2488 2216 2034 2216 
z
M 1403 2484 
Q 997 2584 770 2862 
Q 544 3141 544 3541 
Q 544 4100 942 4425 
Q 1341 4750 2034 4750 
Q 2731 4750 3128 4425 
Q 3525 4100 3525 3541 
Q 3525 3141 3298 2862 
Q 3072 2584 2669 2484 
Q 3125 2378 3379 2068 
Q 3634 1759 3634 1313 
Q 3634 634 3220 271 
Q 2806 -91 2034 -91 
Q 1263 -91 848 271 
Q 434 634 434 1313 
Q 434 1759 690 2068 
Q 947 2378 1403 2484 
z
M 1172 3481 
Q 1172 3119 1398 2916 
Q 1625 2713 2034 2713 
Q 2441 2713 2670 2916 
Q 2900 3119 2900 3481 
Q 2900 3844 2670 4047 
Q 2441 4250 2034 4250 
Q 1625 4250 1398 4047 
Q 1172 3844 1172 3481 
z
" id="DejaVuSans-38" transform="scale(0.015625)"/>
        <path d="M 2597 2516 
Q 3050 2419 3304 2112 
Q 3559 1806 3559 1356 
Q 3559 666 3084 287 
Q 2609 -91 1734 -91 
Q 1441 -91 1130 -33 
Q 819 25 488 141 
L 488 750 
Q 750 597 1062 519 
Q 1375 441 1716 441 
Q 2309 441 2620 675 
Q 2931 909 2931 1356 
Q 2931 1769 2642 2001 
Q 2353 2234 1838 2234 
L 1294 2234 
L 1294 2753 
L 1863 2753 
Q 2328 2753 2575 2939 
Q 2822 3125 2822 3475 
Q 2822 3834 2567 4026 
Q 2313 4219 1838 4219 
Q 1578 4219 1281 4162 
Q 984 4106 628 3988 
L 628 4550 
Q 988 4650 1302 4700 
Q 1616 4750 1894 4750 
Q 2613 4750 3031 4423 
Q 3450 4097 3450 3541 
Q 3450 3153 3228 2886 
Q 3006 2619 2597 2516 
z
" id="DejaVuSans-33" transform="scale(0.015625)"/>
       </defs>
       <use xlink:href="#DejaVuSans-38"/>
       <use x="63.623047" xlink:href="#DejaVuSans-33"/>
      </g>
     </g>
    </g>
    <g id="xtick_4">
     <g id="line2d_4">
      <g>
       <use style="stroke:#000000;stroke-width:0.8;" x="181.467523" xlink:href="#md455bdb622" y="307.584"/>
      </g>
     </g>
     <g id="text_4">
      <!-- 124 -->
      <g transform="translate(171.923773 322.182437)scale(0.1 -0.1)">
       <use xlink:href="#DejaVuSans-31"/>
       <use x="63.623047" xlink:href="#DejaVuSans-32"/>
       <use x="127.246094" xlink:href="#DejaVuSans-34"/>
      </g>
     </g>
    </g>
    <g id="xtick_5">
     <g id="line2d_5">
      <g>
       <use style="stroke:#000000;stroke-width:0.8;" x="217.345788" xlink:href="#md455bdb622" y="307.584"/>
      </g>
     </g>
     <g id="text_5">
      <!-- 165 -->
      <g transform="translate(207.802038 322.182437)scale(0.1 -0.1)">
       <defs>
        <path d="M 2113 2584 
Q 1688 2584 1439 2293 
Q 1191 2003 1191 1497 
Q 1191 994 1439 701 
Q 1688 409 2113 409 
Q 2538 409 2786 701 
Q 3034 994 3034 1497 
Q 3034 2003 2786 2293 
Q 2538 2584 2113 2584 
z
M 3366 4563 
L 3366 3988 
Q 3128 4100 2886 4159 
Q 2644 4219 2406 4219 
Q 1781 4219 1451 3797 
Q 1122 3375 1075 2522 
Q 1259 2794 1537 2939 
Q 1816 3084 2150 3084 
Q 2853 3084 3261 2657 
Q 3669 2231 3669 1497 
Q 3669 778 3244 343 
Q 2819 -91 2113 -91 
Q 1303 -91 875 529 
Q 447 1150 447 2328 
Q 447 3434 972 4092 
Q 1497 4750 2381 4750 
Q 2619 4750 2861 4703 
Q 3103 4656 3366 4563 
z
" id="DejaVuSans-36" transform="scale(0.015625)"/>
        <path d="M 691 4666 
L 3169 4666 
L 3169 4134 
L 1269 4134 
L 1269 2991 
Q 1406 3038 1543 3061 
Q 1681 3084 1819 3084 
Q 2600 3084 3056 2656 
Q 3513 2228 3513 1497 
Q 3513 744 3044 326 
Q 2575 -91 1722 -91 
Q 1428 -91 1123 -41 
Q 819 9 494 109 
L 494 744 
Q 775 591 1075 516 
Q 1375 441 1709 441 
Q 2250 441 2565 725 
Q 2881 1009 2881 1497 
Q 2881 1984 2565 2268 
Q 2250 2553 1709 2553 
Q 1456 2553 1204 2497 
Q 953 2441 691 2322 
L 691 4666 
z
" id="DejaVuSans-35" transform="scale(0.015625)"/>
       </defs>
       <use xlink:href="#DejaVuSans-31"/>
       <use x="63.623047" xlink:href="#DejaVuSans-36"/>
       <use x="127.246094" xlink:href="#DejaVuSans-35"/>
      </g>
     </g>
    </g>
    <g id="xtick_6">
     <g id="line2d_6">
      <g>
       <use style="stroke:#000000;stroke-width:0.8;" x="254.099133" xlink:href="#md455bdb622" y="307.584"/>
      </g>
     </g>
     <g id="text_6">
      <!-- 207 -->
      <g transform="translate(244.555383 322.182437)scale(0.1 -0.1)">
       <defs>
        <path d="M 2034 4250 
Q 1547 4250 1301 3770 
Q 1056 3291 1056 2328 
Q 1056 1369 1301 889 
Q 1547 409 2034 409 
Q 2525 409 2770 889 
Q 3016 1369 3016 2328 
Q 3016 3291 2770 3770 
Q 2525 4250 2034 4250 
z
M 2034 4750 
Q 2819 4750 3233 4129 
Q 3647 3509 3647 2328 
Q 3647 1150 3233 529 
Q 2819 -91 2034 -91 
Q 1250 -91 836 529 
Q 422 1150 422 2328 
Q 422 3509 836 4129 
Q 1250 4750 2034 4750 
z
" id="DejaVuSans-30" transform="scale(0.015625)"/>
        <path d="M 525 4666 
L 3525 4666 
L 3525 4397 
L 1831 0 
L 1172 0 
L 2766 4134 
L 525 4134 
L 525 4666 
z
" id="DejaVuSans-37" transform="scale(0.015625)"/>
       </defs>
       <use xlink:href="#DejaVuSans-32"/>
       <use x="63.623047" xlink:href="#DejaVuSans-30"/>
       <use x="127.246094" xlink:href="#DejaVuSans-37"/>
      </g>
     </g>
    </g>
    <g id="xtick_7">
     <g id="line2d_7">
      <g>
       <use style="stroke:#000000;stroke-width:0.8;" x="289.977398" xlink:href="#md455bdb622" y="307.584"/>
      </g>
     </g>
     <g id="text_7">
      <!-- 248 -->
      <g transform="translate(280.433648 322.182437)scale(0.1 -0.1)">
       <use xlink:href="#DejaVuSans-32"/>
       <use x="63.623047" xlink:href="#DejaVuSans-34"/>
       <use x="127.246094" xlink:href="#DejaVuSans-38"/>
      </g>
     </g>
    </g>
    <g id="xtick_8">
     <g id="line2d_8">
      <g>
       <use style="stroke:#000000;stroke-width:0.8;" x="325.855663" xlink:href="#md455bdb622" y="307.584"/>
      </g>
     </g>
     <g id="text_8">
      <!-- 289 -->
      <g transform="translate(316.311913 322.182437)scale(0.1 -0.1)">
       <defs>
        <path d="M 703 97 
L 703 672 
Q 941 559 1184 500 
Q 1428 441 1663 441 
Q 2288 441 2617 861 
Q 2947 1281 2994 2138 
Q 2813 1869 2534 1725 
Q 2256 1581 1919 1581 
Q 1219 1581 811 2004 
Q 403 2428 403 3163 
Q 403 3881 828 4315 
Q 1253 4750 1959 4750 
Q 2769 4750 3195 4129 
Q 3622 3509 3622 2328 
Q 3622 1225 3098 567 
Q 2575 -91 1691 -91 
Q 1453 -91 1209 -44 
Q 966 3 703 97 
z
M 1959 2075 
Q 2384 2075 2632 2365 
Q 2881 2656 2881 3163 
Q 2881 3666 2632 3958 
Q 2384 4250 1959 4250 
Q 1534 4250 1286 3958 
Q 1038 3666 1038 3163 
Q 1038 2656 1286 2365 
Q 1534 2075 1959 2075 
z
" id="DejaVuSans-39" transform="scale(0.015625)"/>
       </defs>
       <use xlink:href="#DejaVuSans-32"/>
       <use x="63.623047" xlink:href="#DejaVuSans-38"/>
       <use x="127.246094" xlink:href="#DejaVuSans-39"/>
      </g>
     </g>
    </g>
    <g id="xtick_9">
     <g id="line2d_9">
      <g>
       <use style="stroke:#000000;stroke-width:0.8;" x="361.733928" xlink:href="#md455bdb622" y="307.584"/>
      </g>
     </g>
     <g id="text_9">
      <!-- 330 -->
      <g transform="translate(352.190178 322.182437)scale(0.1 -0.1)">
       <use xlink:href="#DejaVuSans-33"/>
       <use x="63.623047" xlink:href="#DejaVuSans-33"/>
       <use x="127.246094" xlink:href="#DejaVuSans-30"/>
      </g>
     </g>
    </g>
    <g id="xtick_10">
     <g id="line2d_10">
      <g>
       <use style="stroke:#000000;stroke-width:0.8;" x="398.487273" xlink:href="#md455bdb622" y="307.584"/>
      </g>
     </g>
     <g id="text_10">
      <!-- 372 -->
      <g transform="translate(388.943523 322.182437)scale(0.1 -0.1)">
       <use xlink:href="#DejaVuSans-33"/>
       <use x="63.623047" xlink:href="#DejaVuSans-37"/>
       <use x="127.246094" xlink:href="#DejaVuSans-32"/>
      </g>
     </g>
    </g>
    <g id="text_11">
     <!-- Epochs -->
     <g transform="translate(218.244375 335.860562)scale(0.1 -0.1)">
      <defs>
       <path d="M 628 4666 
L 3578 4666 
L 3578 4134 
L 1259 4134 
L 1259 2753 
L 3481 2753 
L 3481 2222 
L 1259 2222 
L 1259 531 
L 3634 531 
L 3634 0 
L 628 0 
L 628 4666 
z
" id="DejaVuSans-45" transform="scale(0.015625)"/>
       <path d="M 1159 525 
L 1159 -1331 
L 581 -1331 
L 581 3500 
L 1159 3500 
L 1159 2969 
Q 1341 3281 1617 3432 
Q 1894 3584 2278 3584 
Q 2916 3584 3314 3078 
Q 3713 2572 3713 1747 
Q 3713 922 3314 415 
Q 2916 -91 2278 -91 
Q 1894 -91 1617 61 
Q 1341 213 1159 525 
z
M 3116 1747 
Q 3116 2381 2855 2742 
Q 2594 3103 2138 3103 
Q 1681 3103 1420 2742 
Q 1159 2381 1159 1747 
Q 1159 1113 1420 752 
Q 1681 391 2138 391 
Q 2594 391 2855 752 
Q 3116 1113 3116 1747 
z
" id="DejaVuSans-70" transform="scale(0.015625)"/>
       <path d="M 1959 3097 
Q 1497 3097 1228 2736 
Q 959 2375 959 1747 
Q 959 1119 1226 758 
Q 1494 397 1959 397 
Q 2419 397 2687 759 
Q 2956 1122 2956 1747 
Q 2956 2369 2687 2733 
Q 2419 3097 1959 3097 
z
M 1959 3584 
Q 2709 3584 3137 3096 
Q 3566 2609 3566 1747 
Q 3566 888 3137 398 
Q 2709 -91 1959 -91 
Q 1206 -91 779 398 
Q 353 888 353 1747 
Q 353 2609 779 3096 
Q 1206 3584 1959 3584 
z
" id="DejaVuSans-6f" transform="scale(0.015625)"/>
       <path d="M 3122 3366 
L 3122 2828 
Q 2878 2963 2633 3030 
Q 2388 3097 2138 3097 
Q 1578 3097 1268 2742 
Q 959 2388 959 1747 
Q 959 1106 1268 751 
Q 1578 397 2138 397 
Q 2388 397 2633 464 
Q 2878 531 3122 666 
L 3122 134 
Q 2881 22 2623 -34 
Q 2366 -91 2075 -91 
Q 1284 -91 818 406 
Q 353 903 353 1747 
Q 353 2603 823 3093 
Q 1294 3584 2113 3584 
Q 2378 3584 2631 3529 
Q 2884 3475 3122 3366 
z
" id="DejaVuSans-63" transform="scale(0.015625)"/>
       <path d="M 3513 2113 
L 3513 0 
L 2938 0 
L 2938 2094 
Q 2938 2591 2744 2837 
Q 2550 3084 2163 3084 
Q 1697 3084 1428 2787 
Q 1159 2491 1159 1978 
L 1159 0 
L 581 0 
L 581 4863 
L 1159 4863 
L 1159 2956 
Q 1366 3272 1645 3428 
Q 1925 3584 2291 3584 
Q 2894 3584 3203 3211 
Q 3513 2838 3513 2113 
z
" id="DejaVuSans-68" transform="scale(0.015625)"/>
       <path d="M 2834 3397 
L 2834 2853 
Q 2591 2978 2328 3040 
Q 2066 3103 1784 3103 
Q 1356 3103 1142 2972 
Q 928 2841 928 2578 
Q 928 2378 1081 2264 
Q 1234 2150 1697 2047 
L 1894 2003 
Q 2506 1872 2764 1633 
Q 3022 1394 3022 966 
Q 3022 478 2636 193 
Q 2250 -91 1575 -91 
Q 1294 -91 989 -36 
Q 684 19 347 128 
L 347 722 
Q 666 556 975 473 
Q 1284 391 1588 391 
Q 1994 391 2212 530 
Q 2431 669 2431 922 
Q 2431 1156 2273 1281 
Q 2116 1406 1581 1522 
L 1381 1569 
Q 847 1681 609 1914 
Q 372 2147 372 2553 
Q 372 3047 722 3315 
Q 1072 3584 1716 3584 
Q 2034 3584 2315 3537 
Q 2597 3491 2834 3397 
z
" id="DejaVuSans-73" transform="scale(0.015625)"/>
      </defs>
      <use xlink:href="#DejaVuSans-45"/>
      <use x="63.183594" xlink:href="#DejaVuSans-70"/>
      <use x="126.660156" xlink:href="#DejaVuSans-6f"/>
      <use x="187.841797" xlink:href="#DejaVuSans-63"/>
      <use x="242.822266" xlink:href="#DejaVuSans-68"/>
      <use x="306.201172" xlink:href="#DejaVuSans-73"/>
     </g>
    </g>
   </g>
   <g id="matplotlib.axis_2">
    <g id="ytick_1">
     <g id="line2d_11">
      <defs>
       <path d="M 0 0 
L -3.5 0 
" id="mc0e97c49c3" style="stroke:#000000;stroke-width:0.8;"/>
      </defs>
      <g>
       <use style="stroke:#000000;stroke-width:0.8;" x="57.6" xlink:href="#mc0e97c49c3" y="304.052335"/>
      </g>
     </g>
     <g id="text_12">
      <!-- 0 -->
      <g transform="translate(44.2375 307.851554)scale(0.1 -0.1)">
       <use xlink:href="#DejaVuSans-30"/>
      </g>
     </g>
    </g>
    <g id="ytick_2">
     <g id="line2d_12">
      <g>
       <use style="stroke:#000000;stroke-width:0.8;" x="57.6" xlink:href="#mc0e97c49c3" y="271.839843"/>
      </g>
     </g>
     <g id="text_13">
      <!-- 10 -->
      <g transform="translate(37.875 275.639062)scale(0.1 -0.1)">
       <use xlink:href="#DejaVuSans-31"/>
       <use x="63.623047" xlink:href="#DejaVuSans-30"/>
      </g>
     </g>
    </g>
    <g id="ytick_3">
     <g id="line2d_13">
      <g>
       <use style="stroke:#000000;stroke-width:0.8;" x="57.6" xlink:href="#mc0e97c49c3" y="239.627352"/>
      </g>
     </g>
     <g id="text_14">
      <!-- 20 -->
      <g transform="translate(37.875 243.426571)scale(0.1 -0.1)">
       <use xlink:href="#DejaVuSans-32"/>
       <use x="63.623047" xlink:href="#DejaVuSans-30"/>
      </g>
     </g>
    </g>
    <g id="ytick_4">
     <g id="line2d_14">
      <g>
       <use style="stroke:#000000;stroke-width:0.8;" x="57.6" xlink:href="#mc0e97c49c3" y="207.41486"/>
      </g>
     </g>
     <g id="text_15">
      <!-- 30 -->
      <g transform="translate(37.875 211.214079)scale(0.1 -0.1)">
       <use xlink:href="#DejaVuSans-33"/>
       <use x="63.623047" xlink:href="#DejaVuSans-30"/>
      </g>
     </g>
    </g>
    <g id="ytick_5">
     <g id="line2d_15">
      <g>
       <use style="stroke:#000000;stroke-width:0.8;" x="57.6" xlink:href="#mc0e97c49c3" y="175.202369"/>
      </g>
     </g>
     <g id="text_16">
      <!-- 40 -->
      <g transform="translate(37.875 179.001587)scale(0.1 -0.1)">
       <use xlink:href="#DejaVuSans-34"/>
       <use x="63.623047" xlink:href="#DejaVuSans-30"/>
      </g>
     </g>
    </g>
    <g id="ytick_6">
     <g id="line2d_16">
      <g>
       <use style="stroke:#000000;stroke-width:0.8;" x="57.6" xlink:href="#mc0e97c49c3" y="142.989877"/>
      </g>
     </g>
     <g id="text_17">
      <!-- 50 -->
      <g transform="translate(37.875 146.789096)scale(0.1 -0.1)">
       <use xlink:href="#DejaVuSans-35"/>
       <use x="63.623047" xlink:href="#DejaVuSans-30"/>
      </g>
     </g>
    </g>
    <g id="ytick_7">
     <g id="line2d_17">
      <g>
       <use style="stroke:#000000;stroke-width:0.8;" x="57.6" xlink:href="#mc0e97c49c3" y="110.777385"/>
      </g>
     </g>
     <g id="text_18">
      <!-- 60 -->
      <g transform="translate(37.875 114.576604)scale(0.1 -0.1)">
       <use xlink:href="#DejaVuSans-36"/>
       <use x="63.623047" xlink:href="#DejaVuSans-30"/>
      </g>
     </g>
    </g>
    <g id="ytick_8">
     <g id="line2d_18">
      <g>
       <use style="stroke:#000000;stroke-width:0.8;" x="57.6" xlink:href="#mc0e97c49c3" y="78.564894"/>
      </g>
     </g>
     <g id="text_19">
      <!-- 70 -->
      <g transform="translate(37.875 82.364112)scale(0.1 -0.1)">
       <use xlink:href="#DejaVuSans-37"/>
       <use x="63.623047" xlink:href="#DejaVuSans-30"/>
      </g>
     </g>
    </g>
    <g id="ytick_9">
     <g id="line2d_19">
      <g>
       <use style="stroke:#000000;stroke-width:0.8;" x="57.6" xlink:href="#mc0e97c49c3" y="46.352402"/>
      </g>
     </g>
     <g id="text_20">
      <!-- 80 -->
      <g transform="translate(37.875 50.151621)scale(0.1 -0.1)">
       <use xlink:href="#DejaVuSans-38"/>
       <use x="63.623047" xlink:href="#DejaVuSans-30"/>
      </g>
     </g>
    </g>
    <g id="text_21">
     <!-- Accuracy -->
     <g transform="translate(31.795312 197.356125)rotate(-90)scale(0.1 -0.1)">
      <defs>
       <path d="M 2188 4044 
L 1331 1722 
L 3047 1722 
L 2188 4044 
z
M 1831 4666 
L 2547 4666 
L 4325 0 
L 3669 0 
L 3244 1197 
L 1141 1197 
L 716 0 
L 50 0 
L 1831 4666 
z
" id="DejaVuSans-41" transform="scale(0.015625)"/>
       <path d="M 544 1381 
L 544 3500 
L 1119 3500 
L 1119 1403 
Q 1119 906 1312 657 
Q 1506 409 1894 409 
Q 2359 409 2629 706 
Q 2900 1003 2900 1516 
L 2900 3500 
L 3475 3500 
L 3475 0 
L 2900 0 
L 2900 538 
Q 2691 219 2414 64 
Q 2138 -91 1772 -91 
Q 1169 -91 856 284 
Q 544 659 544 1381 
z
M 1991 3584 
L 1991 3584 
z
" id="DejaVuSans-75" transform="scale(0.015625)"/>
       <path d="M 2631 2963 
Q 2534 3019 2420 3045 
Q 2306 3072 2169 3072 
Q 1681 3072 1420 2755 
Q 1159 2438 1159 1844 
L 1159 0 
L 581 0 
L 581 3500 
L 1159 3500 
L 1159 2956 
Q 1341 3275 1631 3429 
Q 1922 3584 2338 3584 
Q 2397 3584 2469 3576 
Q 2541 3569 2628 3553 
L 2631 2963 
z
" id="DejaVuSans-72" transform="scale(0.015625)"/>
       <path d="M 2194 1759 
Q 1497 1759 1228 1600 
Q 959 1441 959 1056 
Q 959 750 1161 570 
Q 1363 391 1709 391 
Q 2188 391 2477 730 
Q 2766 1069 2766 1631 
L 2766 1759 
L 2194 1759 
z
M 3341 1997 
L 3341 0 
L 2766 0 
L 2766 531 
Q 2569 213 2275 61 
Q 1981 -91 1556 -91 
Q 1019 -91 701 211 
Q 384 513 384 1019 
Q 384 1609 779 1909 
Q 1175 2209 1959 2209 
L 2766 2209 
L 2766 2266 
Q 2766 2663 2505 2880 
Q 2244 3097 1772 3097 
Q 1472 3097 1187 3025 
Q 903 2953 641 2809 
L 641 3341 
Q 956 3463 1253 3523 
Q 1550 3584 1831 3584 
Q 2591 3584 2966 3190 
Q 3341 2797 3341 1997 
z
" id="DejaVuSans-61" transform="scale(0.015625)"/>
       <path d="M 2059 -325 
Q 1816 -950 1584 -1140 
Q 1353 -1331 966 -1331 
L 506 -1331 
L 506 -850 
L 844 -850 
Q 1081 -850 1212 -737 
Q 1344 -625 1503 -206 
L 1606 56 
L 191 3500 
L 800 3500 
L 1894 763 
L 2988 3500 
L 3597 3500 
L 2059 -325 
z
" id="DejaVuSans-79" transform="scale(0.015625)"/>
      </defs>
      <use xlink:href="#DejaVuSans-41"/>
      <use x="66.658203" xlink:href="#DejaVuSans-63"/>
      <use x="121.638672" xlink:href="#DejaVuSans-63"/>
      <use x="176.619141" xlink:href="#DejaVuSans-75"/>
      <use x="239.998047" xlink:href="#DejaVuSans-72"/>
      <use x="281.111328" xlink:href="#DejaVuSans-61"/>
      <use x="342.390625" xlink:href="#DejaVuSans-63"/>
      <use x="397.371094" xlink:href="#DejaVuSans-79"/>
     </g>
    </g>
   </g>
   <g id="line2d_20">
    <path clip-path="url(#pc94e4db83b)" d="M 73.832727 295.488 
L 74.707807 291.936251 
L 75.582887 290.660636 
L 76.457966 288.306869 
L 77.333046 288.832899 
L 78.208125 283.586773 
L 79.083205 283.906643 
L 79.958285 278.685964 
L 80.833364 280.711164 
L 81.708444 272.718278 
L 82.583524 268.442392 
L 83.458603 267.480527 
L 84.333683 278.713989 
L 85.208763 277.361065 
L 86.083842 278.434707 
L 86.958922 273.47205 
L 87.834001 269.587224 
L 88.709081 273.254938 
L 89.584161 271.502579 
L 90.45924 274.850745 
L 91.33432 264.969885 
L 92.2094 265.37383 
L 93.959559 258.102182 
L 94.834639 265.043008 
L 95.709718 258.312852 
L 96.584798 261.639114 
L 97.459877 252.608986 
L 98.334957 244.77072 
L 99.210037 248.030625 
L 100.085116 253.463583 
L 100.960196 242.064871 
L 101.835276 253.038378 
L 102.710355 239.730432 
L 103.585435 241.749189 
L 104.460515 248.034812 
L 105.335594 262.783946 
L 106.210674 257.052055 
L 107.085753 252.767794 
L 107.960833 256.246743 
L 108.835913 250.369251 
L 109.710992 251.309856 
L 110.586072 254.103646 
L 111.461152 255.75518 
L 113.211311 244.341006 
L 114.086391 251.440639 
L 114.96147 244.688901 
L 115.83655 234.333873 
L 116.71163 239.14191 
L 117.586709 238.944447 
L 118.461789 241.399039 
L 119.336868 241.358129 
L 120.211948 240.084769 
L 121.087028 235.326018 
L 121.962107 224.229781 
L 122.837187 228.333652 
L 123.712267 223.974336 
L 124.587346 231.067526 
L 125.462426 235.914218 
L 126.337506 237.138293 
L 127.212585 230.610109 
L 128.087665 230.173952 
L 128.962744 238.824294 
L 129.837824 219.230402 
L 130.712904 226.381575 
L 131.587983 236.33749 
L 132.463063 220.692849 
L 133.338143 231.587114 
L 134.213222 236.674433 
L 135.088302 230.687419 
L 135.963382 206.323823 
L 136.838461 231.537829 
L 137.713541 214.153713 
L 138.58862 234.114828 
L 139.4637 225.54405 
L 140.33878 219.887537 
L 141.213859 222.595641 
L 142.088939 223.493081 
L 142.964019 202.705394 
L 143.839098 223.134556 
L 144.714178 213.067186 
L 145.589258 218.33264 
L 146.464337 212.938336 
L 147.339417 236.732415 
L 148.214496 248.298955 
L 149.089576 227.401745 
L 149.964656 228.365865 
L 150.839735 228.398077 
L 151.714815 236.635778 
L 152.589895 239.215032 
L 153.464974 231.260801 
L 154.340054 235.194913 
L 156.090213 217.061535 
L 156.965293 231.686006 
L 157.840372 223.768176 
L 158.715452 229.766142 
L 159.590532 230.489634 
L 160.465611 207.333363 
L 162.215771 219.988362 
L 163.09085 212.697709 
L 163.96593 214.041936 
L 164.84101 206.227186 
L 165.716089 223.125859 
L 166.591169 214.389831 
L 169.216408 219.18756 
L 170.091487 207.431933 
L 170.966567 216.541625 
L 171.841647 204.023851 
L 172.716726 214.572476 
L 173.591806 232.875614 
L 174.466886 214.550893 
L 175.341965 222.273516 
L 176.217045 222.077986 
L 177.092124 205.039833 
L 177.967204 223.224751 
L 178.842284 218.596782 
L 179.717363 211.915912 
L 180.592443 221.266232 
L 181.467523 217.727045 
L 182.342602 205.877358 
L 183.217682 207.303083 
L 184.092762 224.528391 
L 184.967841 214.727096 
L 185.842921 212.055714 
L 186.718 218.309125 
L 187.59308 192.850626 
L 188.46816 195.481098 
L 189.343239 201.326699 
L 190.218319 205.679573 
L 191.093399 219.23459 
L 191.968478 211.190164 
L 192.843558 213.352589 
L 194.593717 199.71382 
L 195.468797 212.076974 
L 196.343877 191.662952 
L 197.218956 195.410231 
L 198.094036 219.406604 
L 198.969115 198.648875 
L 199.844195 210.878669 
L 201.594354 207.372018 
L 202.469434 204.258036 
L 203.344514 199.179092 
L 204.219593 215.193211 
L 205.094673 208.261082 
L 205.969753 206.583778 
L 206.844832 187.711445 
L 207.719912 211.868881 
L 208.594991 209.84787 
L 209.470071 198.395363 
L 210.345151 208.982642 
L 211.22023 188.068038 
L 212.09531 184.208981 
L 212.97039 196.92003 
L 213.845469 201.878499 
L 214.720549 208.48657 
L 215.595629 201.212989 
L 216.470708 192.079459 
L 217.345788 204.623004 
L 218.220867 205.349073 
L 219.095947 211.553199 
L 219.971027 203.091944 
L 220.846106 197.671548 
L 221.721186 207.498613 
L 222.596266 203.036216 
L 223.471345 197.602935 
L 224.346425 181.412937 
L 225.221505 210.198019 
L 226.096584 204.270921 
L 226.971664 195.629276 
L 227.846743 203.130599 
L 228.721823 191.817572 
L 229.596903 195.073288 
L 230.471982 188.25487 
L 231.347062 219.00717 
L 232.222142 217.993442 
L 233.097221 199.954447 
L 233.972301 209.946762 
L 234.847381 208.62605 
L 235.72246 206.426903 
L 236.59754 218.081383 
L 237.472619 199.608807 
L 238.347699 203.137041 
L 239.222779 217.855895 
L 240.097858 210.640297 
L 240.972938 218.315567 
L 241.848018 214.888158 
L 242.723097 197.890593 
L 243.598177 201.305117 
L 244.473257 202.396154 
L 245.348336 183.418809 
L 246.223416 190.140267 
L 247.098495 194.823964 
L 247.973575 208.86861 
L 248.848655 206.345405 
L 249.723734 200.968174 
L 250.598814 225.365915 
L 251.473894 184.844534 
L 252.348973 198.251373 
L 254.099133 219.247475 
L 254.974212 208.712057 
L 255.849292 212.732176 
L 256.724371 220.632612 
L 257.599451 209.953205 
L 258.474531 224.343491 
L 259.34961 207.522128 
L 260.22469 204.777623 
L 261.09977 197.54914 
L 261.974849 182.357729 
L 262.849929 210.084309 
L 263.725009 222.387226 
L 264.600088 203.858601 
L 265.475168 198.612153 
L 266.350247 192.397397 
L 267.225327 198.144105 
L 268.100407 210.526587 
L 268.975486 192.298504 
L 269.850566 213.941111 
L 270.725646 210.189322 
L 272.475805 191.190394 
L 273.350885 217.83238 
L 274.225964 192.614187 
L 275.101044 218.850295 
L 275.976123 169.623165 
L 276.851203 202.282444 
L 277.726283 184.679284 
L 278.601362 197.237968 
L 279.476442 193.804116 
L 280.351522 193.367959 
L 281.226601 209.731905 
L 282.101681 206.97677 
L 282.976761 197.82198 
L 283.85184 212.843631 
L 284.72692 209.892967 
L 285.602 206.276793 
L 286.477079 203.300359 
L 287.352159 200.856397 
L 288.227238 196.84272 
L 289.102318 205.482111 
L 289.977398 191.853972 
L 290.852477 197.66736 
L 291.727557 202.720534 
L 292.602637 201.625309 
L 293.477716 196.859793 
L 294.352796 219.629837 
L 295.227876 193.041646 
L 296.102955 194.005766 
L 296.978035 200.727547 
L 297.853114 202.868711 
L 298.728194 207.63616 
L 299.603274 184.962753 
L 300.478353 185.583488 
L 301.353433 183.968354 
L 302.228513 198.397617 
L 303.103592 186.560493 
L 303.978672 193.273576 
L 304.853752 195.212768 
L 305.728831 205.636731 
L 306.603911 205.589378 
L 307.47899 194.104659 
L 308.35407 203.826389 
L 309.22915 202.864201 
L 310.104229 188.86272 
L 310.979309 181.629727 
L 311.854389 193.121211 
L 312.729468 201.356657 
L 313.604548 187.619318 
L 314.479628 202.817171 
L 315.354707 199.235142 
L 316.229787 175.223951 
L 317.104866 204.627513 
L 317.979946 201.934549 
L 318.855026 191.551174 
L 319.730105 185.235593 
L 320.605185 198.60571 
L 321.480265 193.926524 
L 322.355344 202.593617 
L 323.230424 202.681879 
L 324.105504 181.513762 
L 324.980583 195.616391 
L 325.855663 205.718228 
L 326.730742 204.569531 
L 327.605822 196.965128 
L 328.480902 191.559872 
L 329.355981 183.989936 
L 330.231061 198.474927 
L 331.106141 210.623224 
L 331.98122 193.941341 
L 332.8563 193.340256 
L 333.73138 195.648603 
L 334.606459 180.64628 
L 335.481539 193.872729 
L 336.356618 201.107654 
L 337.231698 192.687309 
L 338.106778 176.031196 
L 338.981857 196.344393 
L 339.856937 188.742245 
L 340.732017 198.10545 
L 341.607096 176.628416 
L 342.482176 193.462664 
L 343.357256 195.511378 
L 344.232335 188.99157 
L 345.107415 195.354503 
L 345.982494 189.279227 
L 346.857574 185.763878 
L 347.732654 205.497251 
L 348.607733 196.675215 
L 349.482813 194.081144 
L 350.357893 182.278487 
L 351.232972 191.517029 
L 352.108052 167.467183 
L 352.983132 193.219781 
L 353.858211 194.731836 
L 354.733291 188.433005 
L 355.60837 197.274368 
L 356.48345 193.606331 
L 357.35853 193.436894 
L 358.233609 194.727326 
L 359.108689 189.257645 
L 359.983769 182.684364 
L 360.858848 171.637412 
L 361.733928 206.059681 
L 362.609008 183.783776 
L 363.484087 189.648705 
L 364.359167 196.481941 
L 365.234247 198.962302 
L 366.109326 166.940831 
L 366.984406 186.768908 
L 367.859485 163.601684 
L 368.734565 171.493744 
L 369.609645 201.290299 
L 370.484724 158.114608 
L 371.359804 181.337882 
L 372.234884 177.789998 
L 373.109963 181.049902 
L 373.985043 193.073859 
L 374.860123 197.929248 
L 375.735202 173.059271 
L 376.610282 196.62593 
L 377.485361 193.685896 
L 378.360441 193.505506 
L 379.235521 193.831819 
L 380.1106 187.848993 
L 380.98568 178.863962 
L 381.86076 198.186948 
L 382.735839 174.676339 
L 383.610919 179.076565 
L 384.485999 188.828252 
L 385.361078 199.939307 
L 386.236158 199.492842 
L 387.111237 199.467072 
L 387.986317 192.266292 
L 388.861397 171.025375 
L 390.611556 209.489345 
L 391.486636 189.835537 
L 392.361715 207.79078 
L 393.236795 178.554723 
L 394.111875 182.100029 
L 394.986954 179.84741 
L 395.862034 188.98502 
L 396.737113 190.483975 
L 397.612193 172.685499 
L 398.487273 204.204349 
L 398.487273 204.204349 
" style="fill:none;stroke:#1f77b4;stroke-linecap:square;stroke-width:1.5;"/>
   </g>
   <g id="line2d_21">
    <path clip-path="url(#pc94e4db83b)" d="M 73.832727 282.856516 
L 74.707807 272.902856 
L 75.582887 271.227806 
L 77.333046 260.565471 
L 78.208125 249.903137 
L 79.083205 248.518 
L 80.833364 237.40469 
L 81.708444 229.351567 
L 82.583524 225.711555 
L 83.458603 223.617743 
L 84.333683 243.879401 
L 86.083842 229.899179 
L 86.958922 219.011357 
L 87.834001 224.390843 
L 88.709081 222.458094 
L 89.584161 213.728509 
L 91.33432 208.413447 
L 92.2094 195.560663 
L 93.084479 188.28064 
L 93.959559 182.256904 
L 94.834639 184.866116 
L 95.709718 184.866116 
L 96.584798 171.562357 
L 97.459877 171.304657 
L 98.334957 168.695445 
L 99.210037 159.57931 
L 100.085116 157.743198 
L 100.960196 154.199824 
L 101.835276 151.526187 
L 102.710355 151.912737 
L 103.585435 149.2391 
L 104.460515 149.432375 
L 105.335594 202.840686 
L 106.210674 179.454417 
L 107.085753 198.524212 
L 107.960833 169.371908 
L 108.835913 194.851988 
L 109.710992 167.342521 
L 110.586072 158.773998 
L 111.461152 167.471371 
L 112.336231 157.292223 
L 113.211311 166.666058 
L 114.086391 173.591744 
L 114.96147 147.499626 
L 115.83655 155.552749 
L 116.71163 187.958515 
L 117.586709 144.278377 
L 118.461789 138.190216 
L 119.336868 137.707028 
L 120.211948 126.561506 
L 121.087028 151.139637 
L 121.962107 128.300981 
L 122.837187 146.339976 
L 123.712267 128.043281 
L 124.587346 125.981681 
L 125.462426 126.368231 
L 126.337506 129.396205 
L 127.212585 117.670858 
L 128.087665 110.229773 
L 128.962744 110.97066 
L 129.837824 109.81101 
L 130.712904 106.138786 
L 131.587983 116.221296 
L 132.463063 105.011349 
L 134.213222 102.69205 
L 135.963382 97.248139 
L 136.838461 97.280351 
L 137.713541 97.505839 
L 140.33878 92.545115 
L 141.213859 93.962465 
L 142.088939 92.931665 
L 142.964019 93.994677 
L 143.839098 93.060515 
L 144.714178 93.833615 
L 145.589258 93.25379 
L 146.464337 91.385465 
L 147.339417 143.247577 
L 148.214496 134.582417 
L 149.089576 145.566876 
L 149.964656 137.384903 
L 150.839735 123.211407 
L 151.714815 119.055996 
L 152.589895 123.694594 
L 153.464974 112.871197 
L 154.340054 111.421635 
L 155.215134 128.172131 
L 156.090213 121.56857 
L 156.965293 118.927146 
L 157.840372 126.593719 
L 158.715452 106.783036 
L 159.590532 107.910473 
L 160.465611 135.581004 
L 161.340691 138.705615 
L 162.215771 107.137374 
L 163.96593 119.700245 
L 165.716089 101.983375 
L 166.591169 130.845767 
L 167.466248 104.850287 
L 168.341328 101.14585 
L 169.216408 93.704765 
L 170.091487 105.591174 
L 170.966567 101.983375 
L 171.841647 103.755062 
L 172.716726 103.143025 
L 173.591806 112.935622 
L 174.466886 105.720024 
L 175.341965 87.230054 
L 176.217045 91.546528 
L 177.092124 91.031128 
L 177.967204 90.93449 
L 178.842284 91.06334 
L 179.717363 85.393942 
L 180.592443 86.167042 
L 181.467523 100.694875 
L 182.342602 85.973767 
L 183.217682 90.580153 
L 184.092762 87.423329 
L 184.967841 94.155739 
L 185.842921 87.004566 
L 186.718 92.029715 
L 188.46816 78.919231 
L 189.343239 81.077468 
L 190.218319 80.304368 
L 191.093399 92.577327 
L 191.968478 82.559242 
L 192.843558 84.395355 
L 193.718638 79.499056 
L 194.593717 76.986481 
L 195.468797 75.601344 
L 196.343877 75.794619 
L 197.218956 80.433218 
L 198.094036 81.302955 
L 198.969115 80.690918 
L 199.844195 79.176931 
L 201.594354 74.11957 
L 202.469434 78.629319 
L 203.344514 75.826832 
L 204.219593 77.405244 
L 205.094673 72.734433 
L 205.969753 71.381508 
L 206.844832 71.703633 
L 207.719912 70.705046 
L 208.594991 68.289109 
L 209.470071 71.02717 
L 210.345151 75.536919 
L 211.22023 68.740084 
L 212.09531 67.161671 
L 212.97039 66.646272 
L 213.845469 68.095834 
L 214.720549 68.740084 
L 215.595629 68.579021 
L 216.470708 66.807334 
L 217.345788 68.031409 
L 218.220867 66.742909 
L 219.095947 66.678484 
L 219.971027 67.805921 
L 220.846106 67.193884 
L 221.721186 67.709284 
L 223.471345 66.646272 
L 224.346425 66.098659 
L 225.221505 65.840959 
L 226.096584 65.293347 
L 226.971664 67.322734 
L 227.846743 66.098659 
L 228.721823 65.454409 
L 229.596903 66.968397 
L 230.471982 66.807334 
L 231.347062 145.083689 
L 232.222142 94.059102 
L 233.097221 94.799989 
L 233.972301 106.557549 
L 234.847381 95.412027 
L 235.72246 91.353253 
L 236.59754 113.547659 
L 237.472619 99.213101 
L 238.347699 94.961052 
L 239.222779 92.545115 
L 240.097858 98.021238 
L 240.972938 92.673965 
L 241.848018 99.277526 
L 242.723097 108.844636 
L 243.598177 101.983375 
L 244.473257 93.318215 
L 245.348336 95.991852 
L 246.223416 111.196148 
L 247.098495 89.549353 
L 247.973575 119.474758 
L 248.848655 102.112225 
L 249.723734 89.452716 
L 250.598814 81.947205 
L 251.473894 90.483515 
L 252.348973 103.3363 
L 253.224053 78.113919 
L 254.099133 106.299849 
L 254.974212 77.759581 
L 255.849292 88.325279 
L 256.724371 85.522792 
L 257.599451 79.982243 
L 258.474531 84.491992 
L 259.34961 78.371619 
L 260.22469 81.689505 
L 261.09977 87.358904 
L 261.974849 85.973767 
L 262.849929 88.905103 
L 263.725009 82.462605 
L 264.600088 74.860457 
L 265.475168 84.298717 
L 266.350247 82.365968 
L 267.225327 89.742628 
L 268.975486 77.340819 
L 269.850566 84.524204 
L 270.725646 72.508945 
L 271.600725 76.277807 
L 272.475805 76.148957 
L 273.350885 82.430393 
L 274.225964 89.807053 
L 275.101044 76.148957 
L 275.976123 90.258028 
L 276.851203 75.665769 
L 277.726283 73.410895 
L 278.601362 80.819768 
L 279.476442 100.984788 
L 280.351522 86.360317 
L 281.226601 76.599932 
L 282.101681 87.906516 
L 282.976761 73.08877 
L 283.85184 73.73302 
L 284.72692 72.670008 
L 285.602 68.675659 
L 287.352159 77.759581 
L 288.227238 78.403831 
L 289.102318 77.727369 
L 289.977398 73.249832 
L 290.852477 74.667182 
L 291.727557 75.697982 
L 292.602637 72.122395 
L 293.477716 79.499056 
L 294.352796 71.091595 
L 295.227876 71.123808 
L 296.102955 74.280632 
L 296.978035 68.836721 
L 297.853114 72.541158 
L 298.728194 81.077468 
L 299.603274 70.318496 
L 300.478353 70.157433 
L 301.353433 66.517422 
L 302.228513 67.966984 
L 303.103592 66.614059 
L 303.978672 69.545396 
L 304.853752 87.165629 
L 305.728831 66.195297 
L 306.603911 68.482384 
L 307.47899 66.581847 
L 308.35407 72.476733 
L 309.22915 69.094421 
L 310.104229 69.835308 
L 310.979309 67.387159 
L 311.854389 75.150369 
L 312.729468 65.873172 
L 313.604548 69.545396 
L 314.479628 63.39281 
L 315.354707 73.73302 
L 316.229787 74.50612 
L 317.104866 65.873172 
L 317.979946 62.297585 
L 318.855026 62.49086 
L 319.730105 65.647684 
L 320.605185 65.744322 
L 321.480265 67.580434 
L 322.355344 63.328385 
L 323.230424 61.97546 
L 324.105504 64.584672 
L 324.980583 61.621123 
L 325.855663 66.034234 
L 326.730742 64.906797 
L 327.605822 59.237399 
L 328.480902 61.878823 
L 329.355981 63.586085 
L 330.231061 64.713522 
L 331.106141 60.880236 
L 331.98122 68.836721 
L 332.8563 61.814398 
L 333.73138 61.073511 
L 334.606459 62.329798 
L 335.481539 59.591736 
L 336.356618 60.042711 
L 337.231698 59.366248 
L 338.106778 62.297585 
L 338.981857 61.041298 
L 339.856937 58.883061 
L 340.732017 61.298998 
L 341.607096 58.883061 
L 342.482176 61.363423 
L 343.357256 59.881648 
L 344.232335 57.658986 
L 345.107415 59.623948 
L 345.982494 58.850849 
L 346.857574 58.593149 
L 347.732654 61.33121 
L 348.607733 57.562349 
L 349.482813 56.338274 
L 350.357893 57.079162 
L 351.232972 59.011911 
L 352.108052 57.304649 
L 352.983132 57.530136 
L 353.858211 57.111374 
L 354.733291 57.884474 
L 355.60837 58.174386 
L 356.48345 59.334036 
L 357.35853 55.436325 
L 358.233609 55.790662 
L 359.108689 55.951724 
L 360.858848 54.759862 
L 361.733928 55.436325 
L 362.609008 54.953137 
L 363.484087 54.147825 
L 364.359167 56.467124 
L 365.234247 55.532962 
L 366.109326 54.276675 
L 366.984406 54.534375 
L 367.859485 54.244462 
L 368.734565 55.307475 
L 369.609645 55.983937 
L 370.484724 56.241637 
L 371.359804 55.532962 
L 372.234884 54.46995 
L 373.109963 54.8565 
L 373.985043 54.566587 
L 374.860123 54.534375 
L 375.735202 55.146412 
L 376.610282 54.21225 
L 377.485361 54.663225 
L 378.360441 53.600212 
L 380.98568 53.986762 
L 381.86076 53.568 
L 382.735839 55.178625 
L 383.610919 53.761275 
L 384.485999 55.500749 
L 385.361078 53.8257 
L 386.236158 53.986762 
L 387.986317 53.8257 
L 388.861397 53.95455 
L 389.736476 53.95455 
L 390.611556 54.8565 
L 391.486636 54.534375 
L 392.361715 54.405525 
L 393.236795 53.8257 
L 394.111875 53.8257 
L 395.862034 54.147825 
L 396.737113 53.922337 
L 397.612193 53.568 
L 398.487273 54.147825 
L 398.487273 54.147825 
" style="fill:none;stroke:#ff7f0e;stroke-linecap:square;stroke-width:1.5;"/>
   </g>
   <g id="line2d_22">
    <path clip-path="url(#pc94e4db83b)" d="M 73.832727 284.521257 
L 74.707807 278.282342 
L 76.457966 269.669688 
L 77.333046 266.261928 
L 78.208125 258.32767 
L 79.083205 254.122973 
L 79.958285 251.78338 
L 80.833364 245.713902 
L 81.708444 241.64482 
L 82.583524 236.643509 
L 83.458603 236.219592 
L 84.333683 257.242431 
L 85.208763 246.832642 
L 86.083842 242.390861 
L 86.958922 230.353698 
L 87.834001 233.693489 
L 88.709081 234.422457 
L 89.584161 227.471324 
L 90.45924 225.335314 
L 91.33432 228.99723 
L 92.2094 214.654296 
L 93.084479 209.296714 
L 93.959559 201.955809 
L 94.834639 203.583184 
L 95.709718 204.210684 
L 96.584798 195.496238 
L 98.334957 194.580759 
L 99.210037 187.494011 
L 100.085116 185.798668 
L 100.960196 186.036074 
L 101.835276 180.797034 
L 102.710355 183.526721 
L 103.585435 178.389795 
L 104.460515 177.999701 
L 105.335594 225.318241 
L 106.210674 200.66731 
L 107.085753 214.196556 
L 107.960833 194.055051 
L 108.835913 208.194725 
L 109.710992 190.884698 
L 110.586072 185.27296 
L 111.461152 194.30953 
L 112.336231 179.627398 
L 113.211311 201.51482 
L 114.086391 199.20905 
L 114.96147 177.643753 
L 115.83655 185.001731 
L 116.71163 211.941682 
L 117.586709 178.08442 
L 118.461789 173.880046 
L 120.211948 159.875987 
L 121.087028 184.747574 
L 121.962107 158.367154 
L 122.837187 178.830461 
L 123.712267 162.300299 
L 124.587346 160.842362 
L 125.462426 154.111562 
L 126.337506 160.282831 
L 127.212585 149.279688 
L 128.087665 146.465283 
L 128.962744 147.381084 
L 129.837824 147.906469 
L 130.712904 141.701377 
L 131.587983 148.499824 
L 132.463063 138.700461 
L 133.338143 140.785898 
L 134.213222 139.61594 
L 135.088302 136.00492 
L 135.963382 132.986932 
L 136.838461 131.291588 
L 137.713541 131.39338 
L 138.58862 132.885462 
L 139.4637 132.054702 
L 140.33878 130.715307 
L 141.213859 131.817296 
L 142.088939 130.053984 
L 142.964019 131.39338 
L 143.839098 130.020161 
L 144.714178 130.850921 
L 145.589258 129.91837 
L 146.464337 128.578974 
L 147.339417 187.646698 
L 148.214496 162.571528 
L 149.089576 179.678294 
L 149.964656 163.114309 
L 151.714815 150.788843 
L 152.589895 158.316258 
L 153.464974 148.652511 
L 154.340054 150.025729 
L 155.215134 158.146821 
L 156.090213 159.367352 
L 156.965293 156.078456 
L 157.840372 161.36807 
L 158.715452 144.973522 
L 159.590532 147.550521 
L 160.465611 168.234162 
L 161.340691 176.168743 
L 162.215771 147.346938 
L 163.09085 146.940095 
L 163.96593 152.755416 
L 164.84101 150.381677 
L 165.716089 141.752273 
L 166.591169 164.555174 
L 167.466248 145.363293 
L 168.341328 141.209815 
L 169.216408 132.020557 
L 170.091487 143.702095 
L 170.966567 136.937472 
L 171.841647 140.599388 
L 172.716726 138.429232 
L 173.591806 150.110448 
L 174.466886 144.413991 
L 175.341965 128.358641 
L 176.217045 131.359557 
L 177.092124 130.342286 
L 177.967204 129.019963 
L 178.842284 130.850921 
L 179.717363 126.374996 
L 180.592443 127.409339 
L 181.467523 137.429034 
L 182.342602 126.832735 
L 183.217682 128.562224 
L 184.092762 128.189203 
L 184.967841 139.683909 
L 185.842921 129.494453 
L 186.718 128.324818 
L 187.59308 124.84909 
L 188.46816 122.017934 
L 189.343239 123.069028 
L 190.218319 120.13608 
L 191.093399 130.884745 
L 191.968478 119.152633 
L 192.843558 121.475476 
L 193.718638 115.558363 
L 194.593717 118.270977 
L 195.468797 117.338425 
L 196.343877 117.915029 
L 197.218956 119.627445 
L 198.094036 122.577465 
L 198.969115 123.051955 
L 199.844195 119.237352 
L 200.719275 117.151915 
L 201.594354 116.779217 
L 202.469434 118.898476 
L 203.344514 115.948456 
L 204.219593 115.558363 
L 205.094673 111.828479 
L 205.969753 112.743958 
L 206.844832 113.371457 
L 208.594991 109.370344 
L 209.470071 110.45526 
L 210.345151 114.88029 
L 211.22023 109.675396 
L 212.09531 108.963178 
L 212.97039 106.386178 
L 213.845469 107.166043 
L 214.720549 107.216938 
L 215.595629 108.403969 
L 216.470708 107.081324 
L 217.345788 108.047699 
L 219.095947 107.776469 
L 219.971027 108.013876 
L 220.846106 108.742844 
L 222.596266 107.793542 
L 223.471345 106.572689 
L 224.346425 106.996605 
L 225.221505 106.471219 
L 226.096584 106.233813 
L 226.971664 106.86099 
L 227.846743 106.454147 
L 228.721823 106.335605 
L 229.596903 107.556136 
L 230.471982 107.708823 
L 231.347062 188.070293 
L 232.222142 132.342682 
L 233.097221 137.530826 
L 233.972301 148.635438 
L 234.847381 134.885858 
L 235.72246 134.275431 
L 236.59754 149.008459 
L 238.347699 135.19091 
L 239.222779 135.106192 
L 240.097858 136.089639 
L 240.972938 134.173962 
L 241.848018 138.531024 
L 242.723097 148.296563 
L 243.598177 137.95442 
L 244.473257 131.851119 
L 245.348336 134.784067 
L 246.223416 153.16226 
L 247.098495 126.595329 
L 247.973575 158.112675 
L 248.848655 141.854064 
L 249.723734 131.39338 
L 250.598814 122.696007 
L 252.348973 142.328554 
L 253.224053 117.219884 
L 254.099133 158.994331 
L 254.974212 115.931384 
L 255.849292 127.002173 
L 256.724371 123.848892 
L 257.599451 115.948456 
L 258.474531 121.695809 
L 259.34961 118.338945 
L 260.22469 119.94957 
L 261.09977 130.071057 
L 261.974849 126.78184 
L 262.849929 131.495171 
L 263.725009 122.950164 
L 264.600088 118.321873 
L 265.475168 124.696725 
L 266.350247 118.237154 
L 267.225327 130.325214 
L 268.975486 117.83031 
L 269.850566 126.883631 
L 270.725646 110.285823 
L 271.600725 119.017018 
L 272.475805 119.847779 
L 273.350885 124.696725 
L 274.225964 131.037432 
L 275.101044 118.643998 
L 275.976123 129.765683 
L 276.851203 120.254622 
L 277.726283 116.3553 
L 278.601362 120.915945 
L 279.476442 146.702689 
L 280.351522 130.342286 
L 281.226601 120.678539 
L 282.101681 125.357725 
L 282.976761 114.524342 
L 283.85184 110.404365 
L 284.72692 115.931384 
L 285.602 114.846467 
L 286.477079 114.947936 
L 287.352159 118.135363 
L 288.227238 124.713475 
L 289.102318 118.152435 
L 289.977398 115.863415 
L 290.852477 117.762342 
L 291.727557 123.492944 
L 292.602637 117.135165 
L 293.477716 121.509299 
L 294.352796 110.539979 
L 295.227876 114.23604 
L 296.102955 115.778697 
L 296.978035 113.981562 
L 297.853114 111.811728 
L 298.728194 122.119726 
L 299.603274 111.370739 
L 300.478353 113.557967 
L 301.353433 105.691355 
L 302.228513 108.047699 
L 303.978672 110.760313 
L 304.853752 132.461546 
L 305.728831 104.351959 
L 306.603911 107.912084 
L 307.47899 105.996407 
L 308.35407 114.69378 
L 309.22915 108.013876 
L 310.104229 111.235125 
L 310.979309 111.404562 
L 311.854389 115.066801 
L 312.729468 104.962064 
L 313.604548 109.319448 
L 314.479628 104.809699 
L 315.354707 116.084071 
L 316.229787 116.948654 
L 317.104866 107.861188 
L 317.979946 102.876949 
L 318.855026 105.589563 
L 319.730105 105.623387 
L 320.605185 105.962584 
L 321.480265 106.081126 
L 322.355344 106.776272 
L 323.230424 104.792626 
L 324.105504 106.979855 
L 324.980583 102.012044 
L 325.855663 108.251282 
L 326.730742 104.148377 
L 327.605822 105.131824 
L 328.480902 103.266721 
L 329.355981 102.910773 
L 330.231061 105.572491 
L 331.106141 100.75769 
L 331.98122 110.133135 
L 332.8563 102.2327 
L 333.73138 103.06346 
L 334.606459 104.843522 
L 335.481539 101.13071 
L 336.356618 103.148179 
L 337.231698 99.163816 
L 338.106778 102.097085 
L 338.981857 98.570461 
L 339.856937 100.706794 
L 340.732017 101.13071 
L 341.607096 99.706596 
L 342.482176 100.520284 
L 343.357256 99.689523 
L 344.232335 97.34993 
L 345.107415 97.926212 
L 345.982494 98.333055 
L 346.857574 100.13019 
L 347.732654 99.46919 
L 348.607733 98.265409 
L 349.482813 96.51917 
L 350.357893 98.248337 
L 351.232972 98.434847 
L 352.108052 97.248139 
L 352.983132 97.231066 
L 353.858211 98.892586 
L 354.733291 96.97691 
L 355.60837 97.790597 
L 356.48345 100.58793 
L 357.35853 98.146545 
L 358.233609 98.231586 
L 359.108689 98.112722 
L 360.858848 97.010733 
L 361.733928 97.587336 
L 362.609008 97.078701 
L 363.484087 95.315389 
L 364.359167 98.367201 
L 365.234247 95.891671 
L 366.109326 95.569546 
L 366.984406 96.417379 
L 367.859485 95.908743 
L 368.734565 96.603889 
L 369.609645 97.095451 
L 370.484724 95.569546 
L 371.359804 96.654785 
L 372.234884 96.790399 
L 373.109963 96.383555 
L 373.985043 94.976192 
L 374.860123 96.213796 
L 375.735202 96.756576 
L 376.610282 95.196847 
L 377.485361 95.128879 
L 378.360441 96.298837 
L 379.235521 94.637316 
L 380.1106 95.586618 
L 380.98568 95.654587 
L 381.86076 95.095056 
L 382.735839 94.315191 
L 383.610919 94.671139 
L 384.485999 95.739306 
L 385.361078 94.043962 
L 386.236158 93.75566 
L 387.111237 93.806556 
L 387.986317 95.68841 
L 389.736476 95.264493 
L 390.611556 94.331942 
L 391.486636 94.162504 
L 393.236795 94.637316 
L 394.111875 95.518972 
L 394.986954 93.959074 
L 395.862034 94.145567 
L 396.737113 95.162804 
L 398.487273 95.196712 
L 398.487273 95.196712 
" style="fill:none;stroke:#2ca02c;stroke-linecap:square;stroke-width:1.5;"/>
   </g>
   <g id="patch_3">
    <path d="M 57.6 307.584 
L 57.6 41.472 
" style="fill:none;stroke:#000000;stroke-linecap:square;stroke-linejoin:miter;stroke-width:0.8;"/>
   </g>
   <g id="patch_4">
    <path d="M 414.72 307.584 
L 414.72 41.472 
" style="fill:none;stroke:#000000;stroke-linecap:square;stroke-linejoin:miter;stroke-width:0.8;"/>
   </g>
   <g id="patch_5">
    <path d="M 57.6 307.584 
L 414.72 307.584 
" style="fill:none;stroke:#000000;stroke-linecap:square;stroke-linejoin:miter;stroke-width:0.8;"/>
   </g>
   <g id="patch_6">
    <path d="M 57.6 41.472 
L 414.72 41.472 
" style="fill:none;stroke:#000000;stroke-linecap:square;stroke-linejoin:miter;stroke-width:0.8;"/>
   </g>
   <g id="text_22">
    <!-- Training and Validation Accuracy -->
    <g transform="translate(138.4575 35.472)scale(0.12 -0.12)">
     <defs>
      <path d="M -19 4666 
L 3928 4666 
L 3928 4134 
L 2272 4134 
L 2272 0 
L 1638 0 
L 1638 4134 
L -19 4134 
L -19 4666 
z
" id="DejaVuSans-54" transform="scale(0.015625)"/>
      <path d="M 603 3500 
L 1178 3500 
L 1178 0 
L 603 0 
L 603 3500 
z
M 603 4863 
L 1178 4863 
L 1178 4134 
L 603 4134 
L 603 4863 
z
" id="DejaVuSans-69" transform="scale(0.015625)"/>
      <path d="M 3513 2113 
L 3513 0 
L 2938 0 
L 2938 2094 
Q 2938 2591 2744 2837 
Q 2550 3084 2163 3084 
Q 1697 3084 1428 2787 
Q 1159 2491 1159 1978 
L 1159 0 
L 581 0 
L 581 3500 
L 1159 3500 
L 1159 2956 
Q 1366 3272 1645 3428 
Q 1925 3584 2291 3584 
Q 2894 3584 3203 3211 
Q 3513 2838 3513 2113 
z
" id="DejaVuSans-6e" transform="scale(0.015625)"/>
      <path d="M 2906 1791 
Q 2906 2416 2648 2759 
Q 2391 3103 1925 3103 
Q 1463 3103 1205 2759 
Q 947 2416 947 1791 
Q 947 1169 1205 825 
Q 1463 481 1925 481 
Q 2391 481 2648 825 
Q 2906 1169 2906 1791 
z
M 3481 434 
Q 3481 -459 3084 -895 
Q 2688 -1331 1869 -1331 
Q 1566 -1331 1297 -1286 
Q 1028 -1241 775 -1147 
L 775 -588 
Q 1028 -725 1275 -790 
Q 1522 -856 1778 -856 
Q 2344 -856 2625 -561 
Q 2906 -266 2906 331 
L 2906 616 
Q 2728 306 2450 153 
Q 2172 0 1784 0 
Q 1141 0 747 490 
Q 353 981 353 1791 
Q 353 2603 747 3093 
Q 1141 3584 1784 3584 
Q 2172 3584 2450 3431 
Q 2728 3278 2906 2969 
L 2906 3500 
L 3481 3500 
L 3481 434 
z
" id="DejaVuSans-67" transform="scale(0.015625)"/>
      <path id="DejaVuSans-20" transform="scale(0.015625)"/>
      <path d="M 2906 2969 
L 2906 4863 
L 3481 4863 
L 3481 0 
L 2906 0 
L 2906 525 
Q 2725 213 2448 61 
Q 2172 -91 1784 -91 
Q 1150 -91 751 415 
Q 353 922 353 1747 
Q 353 2572 751 3078 
Q 1150 3584 1784 3584 
Q 2172 3584 2448 3432 
Q 2725 3281 2906 2969 
z
M 947 1747 
Q 947 1113 1208 752 
Q 1469 391 1925 391 
Q 2381 391 2643 752 
Q 2906 1113 2906 1747 
Q 2906 2381 2643 2742 
Q 2381 3103 1925 3103 
Q 1469 3103 1208 2742 
Q 947 2381 947 1747 
z
" id="DejaVuSans-64" transform="scale(0.015625)"/>
      <path d="M 1831 0 
L 50 4666 
L 709 4666 
L 2188 738 
L 3669 4666 
L 4325 4666 
L 2547 0 
L 1831 0 
z
" id="DejaVuSans-56" transform="scale(0.015625)"/>
      <path d="M 603 4863 
L 1178 4863 
L 1178 0 
L 603 0 
L 603 4863 
z
" id="DejaVuSans-6c" transform="scale(0.015625)"/>
      <path d="M 1172 4494 
L 1172 3500 
L 2356 3500 
L 2356 3053 
L 1172 3053 
L 1172 1153 
Q 1172 725 1289 603 
Q 1406 481 1766 481 
L 2356 481 
L 2356 0 
L 1766 0 
Q 1100 0 847 248 
Q 594 497 594 1153 
L 594 3053 
L 172 3053 
L 172 3500 
L 594 3500 
L 594 4494 
L 1172 4494 
z
" id="DejaVuSans-74" transform="scale(0.015625)"/>
     </defs>
     <use xlink:href="#DejaVuSans-54"/>
     <use x="46.333984" xlink:href="#DejaVuSans-72"/>
     <use x="87.447266" xlink:href="#DejaVuSans-61"/>
     <use x="148.726562" xlink:href="#DejaVuSans-69"/>
     <use x="176.509766" xlink:href="#DejaVuSans-6e"/>
     <use x="239.888672" xlink:href="#DejaVuSans-69"/>
     <use x="267.671875" xlink:href="#DejaVuSans-6e"/>
     <use x="331.050781" xlink:href="#DejaVuSans-67"/>
     <use x="394.527344" xlink:href="#DejaVuSans-20"/>
     <use x="426.314453" xlink:href="#DejaVuSans-61"/>
     <use x="487.59375" xlink:href="#DejaVuSans-6e"/>
     <use x="550.972656" xlink:href="#DejaVuSans-64"/>
     <use x="614.449219" xlink:href="#DejaVuSans-20"/>
     <use x="646.236328" xlink:href="#DejaVuSans-56"/>
     <use x="706.894531" xlink:href="#DejaVuSans-61"/>
     <use x="768.173828" xlink:href="#DejaVuSans-6c"/>
     <use x="795.957031" xlink:href="#DejaVuSans-69"/>
     <use x="823.740234" xlink:href="#DejaVuSans-64"/>
     <use x="887.216797" xlink:href="#DejaVuSans-61"/>
     <use x="948.496094" xlink:href="#DejaVuSans-74"/>
     <use x="987.705078" xlink:href="#DejaVuSans-69"/>
     <use x="1015.488281" xlink:href="#DejaVuSans-6f"/>
     <use x="1076.669922" xlink:href="#DejaVuSans-6e"/>
     <use x="1140.048828" xlink:href="#DejaVuSans-20"/>
     <use x="1171.835938" xlink:href="#DejaVuSans-41"/>
     <use x="1238.494141" xlink:href="#DejaVuSans-63"/>
     <use x="1293.474609" xlink:href="#DejaVuSans-63"/>
     <use x="1348.455078" xlink:href="#DejaVuSans-75"/>
     <use x="1411.833984" xlink:href="#DejaVuSans-72"/>
     <use x="1452.947266" xlink:href="#DejaVuSans-61"/>
     <use x="1514.226562" xlink:href="#DejaVuSans-63"/>
     <use x="1569.207031" xlink:href="#DejaVuSans-79"/>
    </g>
   </g>
   <g id="legend_1">
    <g id="patch_7">
     <path d="M 239.893438 302.584 
L 407.72 302.584 
Q 409.72 302.584 409.72 300.584 
L 409.72 257.549625 
Q 409.72 255.549625 407.72 255.549625 
L 239.893438 255.549625 
Q 237.893438 255.549625 237.893438 257.549625 
L 237.893438 300.584 
Q 237.893438 302.584 239.893438 302.584 
z
" style="fill:#ffffff;opacity:0.8;stroke:#cccccc;stroke-linejoin:miter;"/>
    </g>
    <g id="line2d_23">
     <path d="M 241.893438 263.648062 
L 261.893438 263.648062 
" style="fill:none;stroke:#1f77b4;stroke-linecap:square;stroke-width:1.5;"/>
    </g>
    <g id="line2d_24"/>
    <g id="text_23">
     <!-- Train Accuracy -->
     <g transform="translate(269.893438 267.148062)scale(0.1 -0.1)">
      <use xlink:href="#DejaVuSans-54"/>
      <use x="46.333984" xlink:href="#DejaVuSans-72"/>
      <use x="87.447266" xlink:href="#DejaVuSans-61"/>
      <use x="148.726562" xlink:href="#DejaVuSans-69"/>
      <use x="176.509766" xlink:href="#DejaVuSans-6e"/>
      <use x="239.888672" xlink:href="#DejaVuSans-20"/>
      <use x="271.675781" xlink:href="#DejaVuSans-41"/>
      <use x="338.333984" xlink:href="#DejaVuSans-63"/>
      <use x="393.314453" xlink:href="#DejaVuSans-63"/>
      <use x="448.294922" xlink:href="#DejaVuSans-75"/>
      <use x="511.673828" xlink:href="#DejaVuSans-72"/>
      <use x="552.787109" xlink:href="#DejaVuSans-61"/>
      <use x="614.066406" xlink:href="#DejaVuSans-63"/>
      <use x="669.046875" xlink:href="#DejaVuSans-79"/>
     </g>
    </g>
    <g id="line2d_25">
     <path d="M 241.893438 278.326188 
L 261.893438 278.326188 
" style="fill:none;stroke:#ff7f0e;stroke-linecap:square;stroke-width:1.5;"/>
    </g>
    <g id="line2d_26"/>
    <g id="text_24">
     <!-- Validation Accuracy -->
     <g transform="translate(269.893438 281.826188)scale(0.1 -0.1)">
      <use xlink:href="#DejaVuSans-56"/>
      <use x="60.658203" xlink:href="#DejaVuSans-61"/>
      <use x="121.9375" xlink:href="#DejaVuSans-6c"/>
      <use x="149.720703" xlink:href="#DejaVuSans-69"/>
      <use x="177.503906" xlink:href="#DejaVuSans-64"/>
      <use x="240.980469" xlink:href="#DejaVuSans-61"/>
      <use x="302.259766" xlink:href="#DejaVuSans-74"/>
      <use x="341.46875" xlink:href="#DejaVuSans-69"/>
      <use x="369.251953" xlink:href="#DejaVuSans-6f"/>
      <use x="430.433594" xlink:href="#DejaVuSans-6e"/>
      <use x="493.8125" xlink:href="#DejaVuSans-20"/>
      <use x="525.599609" xlink:href="#DejaVuSans-41"/>
      <use x="592.257812" xlink:href="#DejaVuSans-63"/>
      <use x="647.238281" xlink:href="#DejaVuSans-63"/>
      <use x="702.21875" xlink:href="#DejaVuSans-75"/>
      <use x="765.597656" xlink:href="#DejaVuSans-72"/>
      <use x="806.710938" xlink:href="#DejaVuSans-61"/>
      <use x="867.990234" xlink:href="#DejaVuSans-63"/>
      <use x="922.970703" xlink:href="#DejaVuSans-79"/>
     </g>
    </g>
    <g id="line2d_27">
     <path d="M 241.893438 293.004312 
L 261.893438 293.004312 
" style="fill:none;stroke:#2ca02c;stroke-linecap:square;stroke-width:1.5;"/>
    </g>
    <g id="line2d_28"/>
    <g id="text_25">
     <!-- Robust Validation Accuracy -->
     <g transform="translate(269.893438 296.504312)scale(0.1 -0.1)">
      <defs>
       <path d="M 2841 2188 
Q 3044 2119 3236 1894 
Q 3428 1669 3622 1275 
L 4263 0 
L 3584 0 
L 2988 1197 
Q 2756 1666 2539 1819 
Q 2322 1972 1947 1972 
L 1259 1972 
L 1259 0 
L 628 0 
L 628 4666 
L 2053 4666 
Q 2853 4666 3247 4331 
Q 3641 3997 3641 3322 
Q 3641 2881 3436 2590 
Q 3231 2300 2841 2188 
z
M 1259 4147 
L 1259 2491 
L 2053 2491 
Q 2509 2491 2742 2702 
Q 2975 2913 2975 3322 
Q 2975 3731 2742 3939 
Q 2509 4147 2053 4147 
L 1259 4147 
z
" id="DejaVuSans-52" transform="scale(0.015625)"/>
       <path d="M 3116 1747 
Q 3116 2381 2855 2742 
Q 2594 3103 2138 3103 
Q 1681 3103 1420 2742 
Q 1159 2381 1159 1747 
Q 1159 1113 1420 752 
Q 1681 391 2138 391 
Q 2594 391 2855 752 
Q 3116 1113 3116 1747 
z
M 1159 2969 
Q 1341 3281 1617 3432 
Q 1894 3584 2278 3584 
Q 2916 3584 3314 3078 
Q 3713 2572 3713 1747 
Q 3713 922 3314 415 
Q 2916 -91 2278 -91 
Q 1894 -91 1617 61 
Q 1341 213 1159 525 
L 1159 0 
L 581 0 
L 581 4863 
L 1159 4863 
L 1159 2969 
z
" id="DejaVuSans-62" transform="scale(0.015625)"/>
      </defs>
      <use xlink:href="#DejaVuSans-52"/>
      <use x="64.982422" xlink:href="#DejaVuSans-6f"/>
      <use x="126.164062" xlink:href="#DejaVuSans-62"/>
      <use x="189.640625" xlink:href="#DejaVuSans-75"/>
      <use x="253.019531" xlink:href="#DejaVuSans-73"/>
      <use x="305.119141" xlink:href="#DejaVuSans-74"/>
      <use x="344.328125" xlink:href="#DejaVuSans-20"/>
      <use x="376.115234" xlink:href="#DejaVuSans-56"/>
      <use x="436.773438" xlink:href="#DejaVuSans-61"/>
      <use x="498.052734" xlink:href="#DejaVuSans-6c"/>
      <use x="525.835938" xlink:href="#DejaVuSans-69"/>
      <use x="553.619141" xlink:href="#DejaVuSans-64"/>
      <use x="617.095703" xlink:href="#DejaVuSans-61"/>
      <use x="678.375" xlink:href="#DejaVuSans-74"/>
      <use x="717.583984" xlink:href="#DejaVuSans-69"/>
      <use x="745.367188" xlink:href="#DejaVuSans-6f"/>
      <use x="806.548828" xlink:href="#DejaVuSans-6e"/>
      <use x="869.927734" xlink:href="#DejaVuSans-20"/>
      <use x="901.714844" xlink:href="#DejaVuSans-41"/>
      <use x="968.373047" xlink:href="#DejaVuSans-63"/>
      <use x="1023.353516" xlink:href="#DejaVuSans-63"/>
      <use x="1078.333984" xlink:href="#DejaVuSans-75"/>
      <use x="1141.712891" xlink:href="#DejaVuSans-72"/>
      <use x="1182.826172" xlink:href="#DejaVuSans-61"/>
      <use x="1244.105469" xlink:href="#DejaVuSans-63"/>
      <use x="1299.085938" xlink:href="#DejaVuSans-79"/>
     </g>
    </g>
   </g>
  </g>
 </g>
 <defs>
  <clipPath id="pc94e4db83b">
   <rect height="266.112" width="357.12" x="57.6" y="41.472"/>
  </clipPath>
 </defs>
</svg>
