<?xml version="1.0" encoding="utf-8" standalone="no"?>
<!DOCTYPE svg PUBLIC "-//W3C//DTD SVG 1.1//EN"
  "http://www.w3.org/Graphics/SVG/1.1/DTD/svg11.dtd">
<svg xmlns:xlink="http://www.w3.org/1999/xlink" width="460.8pt" height="345.6pt" viewBox="0 0 460.8 345.6" xmlns="http://www.w3.org/2000/svg" version="1.1">
 <metadata>
  <rdf:RDF xmlns:dc="http://purl.org/dc/elements/1.1/" xmlns:cc="http://creativecommons.org/ns#" xmlns:rdf="http://www.w3.org/1999/02/22-rdf-syntax-ns#">
   <cc:Work>
    <dc:type rdf:resource="http://purl.org/dc/dcmitype/StillImage"/>
    <dc:date>2024-08-29T14:22:19.694145</dc:date>
    <dc:format>image/svg+xml</dc:format>
    <dc:creator>
     <cc:Agent>
      <dc:title>Matplotlib v3.9.1, https://matplotlib.org/</dc:title>
     </cc:Agent>
    </dc:creator>
   </cc:Work>
  </rdf:RDF>
 </metadata>
 <defs>
  <style type="text/css">*{stroke-linejoin: round; stroke-linecap: butt}</style>
 </defs>
 <g id="figure_1">
  <g id="patch_1">
   <path d="M 0 345.6 
L 460.8 345.6 
L 460.8 0 
L 0 0 
z
" style="fill: #ffffff"/>
  </g>
  <g id="axes_1">
   <g id="patch_2">
    <path d="M 57.6 307.584 
L 414.72 307.584 
L 414.72 41.472 
L 57.6 41.472 
z
" style="fill: #ffffff"/>
   </g>
   <g id="matplotlib.axis_1">
    <g id="xtick_1">
     <g id="line2d_1">
      <defs>
       <path id="mc1c290c6d4" d="M 0 0 
L 0 3.5 
" style="stroke: #000000; stroke-width: 0.8"/>
      </defs>
      <g>
       <use xlink:href="#mc1c290c6d4" x="73.832727" y="307.584" style="stroke: #000000; stroke-width: 0.8"/>
      </g>
     </g>
     <g id="text_1">
      <!-- 1 -->
      <g transform="translate(70.651477 322.182437) scale(0.1 -0.1)">
       <defs>
        <path id="DejaVuSans-31" d="M 794 531 
L 1825 531 
L 1825 4091 
L 703 3866 
L 703 4441 
L 1819 4666 
L 2450 4666 
L 2450 531 
L 3481 531 
L 3481 0 
L 794 0 
L 794 531 
z
" transform="scale(0.015625)"/>
       </defs>
       <use xlink:href="#DejaVuSans-31"/>
      </g>
     </g>
    </g>
    <g id="xtick_2">
     <g id="line2d_2">
      <g>
       <use xlink:href="#mc1c290c6d4" x="109.262733" y="307.584" style="stroke: #000000; stroke-width: 0.8"/>
      </g>
     </g>
     <g id="text_2">
      <!-- 50 -->
      <g transform="translate(102.900233 322.182437) scale(0.1 -0.1)">
       <defs>
        <path id="DejaVuSans-35" d="M 691 4666 
L 3169 4666 
L 3169 4134 
L 1269 4134 
L 1269 2991 
Q 1406 3038 1543 3061 
Q 1681 3084 1819 3084 
Q 2600 3084 3056 2656 
Q 3513 2228 3513 1497 
Q 3513 744 3044 326 
Q 2575 -91 1722 -91 
Q 1428 -91 1123 -41 
Q 819 9 494 109 
L 494 744 
Q 775 591 1075 516 
Q 1375 441 1709 441 
Q 2250 441 2565 725 
Q 2881 1009 2881 1497 
Q 2881 1984 2565 2268 
Q 2250 2553 1709 2553 
Q 1456 2553 1204 2497 
Q 953 2441 691 2322 
L 691 4666 
z
" transform="scale(0.015625)"/>
        <path id="DejaVuSans-30" d="M 2034 4250 
Q 1547 4250 1301 3770 
Q 1056 3291 1056 2328 
Q 1056 1369 1301 889 
Q 1547 409 2034 409 
Q 2525 409 2770 889 
Q 3016 1369 3016 2328 
Q 3016 3291 2770 3770 
Q 2525 4250 2034 4250 
z
M 2034 4750 
Q 2819 4750 3233 4129 
Q 3647 3509 3647 2328 
Q 3647 1150 3233 529 
Q 2819 -91 2034 -91 
Q 1250 -91 836 529 
Q 422 1150 422 2328 
Q 422 3509 836 4129 
Q 1250 4750 2034 4750 
z
" transform="scale(0.015625)"/>
       </defs>
       <use xlink:href="#DejaVuSans-35"/>
       <use xlink:href="#DejaVuSans-30" x="63.623047"/>
      </g>
     </g>
    </g>
    <g id="xtick_3">
     <g id="line2d_3">
      <g>
       <use xlink:href="#mc1c290c6d4" x="145.415801" y="307.584" style="stroke: #000000; stroke-width: 0.8"/>
      </g>
     </g>
     <g id="text_3">
      <!-- 100 -->
      <g transform="translate(135.872051 322.182437) scale(0.1 -0.1)">
       <use xlink:href="#DejaVuSans-31"/>
       <use xlink:href="#DejaVuSans-30" x="63.623047"/>
       <use xlink:href="#DejaVuSans-30" x="127.246094"/>
      </g>
     </g>
    </g>
    <g id="xtick_4">
     <g id="line2d_4">
      <g>
       <use xlink:href="#mc1c290c6d4" x="181.568868" y="307.584" style="stroke: #000000; stroke-width: 0.8"/>
      </g>
     </g>
     <g id="text_4">
      <!-- 150 -->
      <g transform="translate(172.025118 322.182437) scale(0.1 -0.1)">
       <use xlink:href="#DejaVuSans-31"/>
       <use xlink:href="#DejaVuSans-35" x="63.623047"/>
       <use xlink:href="#DejaVuSans-30" x="127.246094"/>
      </g>
     </g>
    </g>
    <g id="xtick_5">
     <g id="line2d_5">
      <g>
       <use xlink:href="#mc1c290c6d4" x="217.721936" y="307.584" style="stroke: #000000; stroke-width: 0.8"/>
      </g>
     </g>
     <g id="text_5">
      <!-- 200 -->
      <g transform="translate(208.178186 322.182437) scale(0.1 -0.1)">
       <defs>
        <path id="DejaVuSans-32" d="M 1228 531 
L 3431 531 
L 3431 0 
L 469 0 
L 469 531 
Q 828 903 1448 1529 
Q 2069 2156 2228 2338 
Q 2531 2678 2651 2914 
Q 2772 3150 2772 3378 
Q 2772 3750 2511 3984 
Q 2250 4219 1831 4219 
Q 1534 4219 1204 4116 
Q 875 4013 500 3803 
L 500 4441 
Q 881 4594 1212 4672 
Q 1544 4750 1819 4750 
Q 2544 4750 2975 4387 
Q 3406 4025 3406 3419 
Q 3406 3131 3298 2873 
Q 3191 2616 2906 2266 
Q 2828 2175 2409 1742 
Q 1991 1309 1228 531 
z
" transform="scale(0.015625)"/>
       </defs>
       <use xlink:href="#DejaVuSans-32"/>
       <use xlink:href="#DejaVuSans-30" x="63.623047"/>
       <use xlink:href="#DejaVuSans-30" x="127.246094"/>
      </g>
     </g>
    </g>
    <g id="xtick_6">
     <g id="line2d_6">
      <g>
       <use xlink:href="#mc1c290c6d4" x="253.875003" y="307.584" style="stroke: #000000; stroke-width: 0.8"/>
      </g>
     </g>
     <g id="text_6">
      <!-- 250 -->
      <g transform="translate(244.331253 322.182437) scale(0.1 -0.1)">
       <use xlink:href="#DejaVuSans-32"/>
       <use xlink:href="#DejaVuSans-35" x="63.623047"/>
       <use xlink:href="#DejaVuSans-30" x="127.246094"/>
      </g>
     </g>
    </g>
    <g id="xtick_7">
     <g id="line2d_7">
      <g>
       <use xlink:href="#mc1c290c6d4" x="290.02807" y="307.584" style="stroke: #000000; stroke-width: 0.8"/>
      </g>
     </g>
     <g id="text_7">
      <!-- 300 -->
      <g transform="translate(280.48432 322.182437) scale(0.1 -0.1)">
       <defs>
        <path id="DejaVuSans-33" d="M 2597 2516 
Q 3050 2419 3304 2112 
Q 3559 1806 3559 1356 
Q 3559 666 3084 287 
Q 2609 -91 1734 -91 
Q 1441 -91 1130 -33 
Q 819 25 488 141 
L 488 750 
Q 750 597 1062 519 
Q 1375 441 1716 441 
Q 2309 441 2620 675 
Q 2931 909 2931 1356 
Q 2931 1769 2642 2001 
Q 2353 2234 1838 2234 
L 1294 2234 
L 1294 2753 
L 1863 2753 
Q 2328 2753 2575 2939 
Q 2822 3125 2822 3475 
Q 2822 3834 2567 4026 
Q 2313 4219 1838 4219 
Q 1578 4219 1281 4162 
Q 984 4106 628 3988 
L 628 4550 
Q 988 4650 1302 4700 
Q 1616 4750 1894 4750 
Q 2613 4750 3031 4423 
Q 3450 4097 3450 3541 
Q 3450 3153 3228 2886 
Q 3006 2619 2597 2516 
z
" transform="scale(0.015625)"/>
       </defs>
       <use xlink:href="#DejaVuSans-33"/>
       <use xlink:href="#DejaVuSans-30" x="63.623047"/>
       <use xlink:href="#DejaVuSans-30" x="127.246094"/>
      </g>
     </g>
    </g>
    <g id="xtick_8">
     <g id="line2d_8">
      <g>
       <use xlink:href="#mc1c290c6d4" x="326.181138" y="307.584" style="stroke: #000000; stroke-width: 0.8"/>
      </g>
     </g>
     <g id="text_8">
      <!-- 350 -->
      <g transform="translate(316.637388 322.182437) scale(0.1 -0.1)">
       <use xlink:href="#DejaVuSans-33"/>
       <use xlink:href="#DejaVuSans-35" x="63.623047"/>
       <use xlink:href="#DejaVuSans-30" x="127.246094"/>
      </g>
     </g>
    </g>
    <g id="xtick_9">
     <g id="line2d_9">
      <g>
       <use xlink:href="#mc1c290c6d4" x="362.334205" y="307.584" style="stroke: #000000; stroke-width: 0.8"/>
      </g>
     </g>
     <g id="text_9">
      <!-- 400 -->
      <g transform="translate(352.790455 322.182437) scale(0.1 -0.1)">
       <defs>
        <path id="DejaVuSans-34" d="M 2419 4116 
L 825 1625 
L 2419 1625 
L 2419 4116 
z
M 2253 4666 
L 3047 4666 
L 3047 1625 
L 3713 1625 
L 3713 1100 
L 3047 1100 
L 3047 0 
L 2419 0 
L 2419 1100 
L 313 1100 
L 313 1709 
L 2253 4666 
z
" transform="scale(0.015625)"/>
       </defs>
       <use xlink:href="#DejaVuSans-34"/>
       <use xlink:href="#DejaVuSans-30" x="63.623047"/>
       <use xlink:href="#DejaVuSans-30" x="127.246094"/>
      </g>
     </g>
    </g>
    <g id="xtick_10">
     <g id="line2d_10">
      <g>
       <use xlink:href="#mc1c290c6d4" x="398.487273" y="307.584" style="stroke: #000000; stroke-width: 0.8"/>
      </g>
     </g>
     <g id="text_10">
      <!-- 450 -->
      <g transform="translate(388.943523 322.182437) scale(0.1 -0.1)">
       <use xlink:href="#DejaVuSans-34"/>
       <use xlink:href="#DejaVuSans-35" x="63.623047"/>
       <use xlink:href="#DejaVuSans-30" x="127.246094"/>
      </g>
     </g>
    </g>
    <g id="text_11">
     <!-- Epochs -->
     <g transform="translate(218.244375 335.860562) scale(0.1 -0.1)">
      <defs>
       <path id="DejaVuSans-45" d="M 628 4666 
L 3578 4666 
L 3578 4134 
L 1259 4134 
L 1259 2753 
L 3481 2753 
L 3481 2222 
L 1259 2222 
L 1259 531 
L 3634 531 
L 3634 0 
L 628 0 
L 628 4666 
z
" transform="scale(0.015625)"/>
       <path id="DejaVuSans-70" d="M 1159 525 
L 1159 -1331 
L 581 -1331 
L 581 3500 
L 1159 3500 
L 1159 2969 
Q 1341 3281 1617 3432 
Q 1894 3584 2278 3584 
Q 2916 3584 3314 3078 
Q 3713 2572 3713 1747 
Q 3713 922 3314 415 
Q 2916 -91 2278 -91 
Q 1894 -91 1617 61 
Q 1341 213 1159 525 
z
M 3116 1747 
Q 3116 2381 2855 2742 
Q 2594 3103 2138 3103 
Q 1681 3103 1420 2742 
Q 1159 2381 1159 1747 
Q 1159 1113 1420 752 
Q 1681 391 2138 391 
Q 2594 391 2855 752 
Q 3116 1113 3116 1747 
z
" transform="scale(0.015625)"/>
       <path id="DejaVuSans-6f" d="M 1959 3097 
Q 1497 3097 1228 2736 
Q 959 2375 959 1747 
Q 959 1119 1226 758 
Q 1494 397 1959 397 
Q 2419 397 2687 759 
Q 2956 1122 2956 1747 
Q 2956 2369 2687 2733 
Q 2419 3097 1959 3097 
z
M 1959 3584 
Q 2709 3584 3137 3096 
Q 3566 2609 3566 1747 
Q 3566 888 3137 398 
Q 2709 -91 1959 -91 
Q 1206 -91 779 398 
Q 353 888 353 1747 
Q 353 2609 779 3096 
Q 1206 3584 1959 3584 
z
" transform="scale(0.015625)"/>
       <path id="DejaVuSans-63" d="M 3122 3366 
L 3122 2828 
Q 2878 2963 2633 3030 
Q 2388 3097 2138 3097 
Q 1578 3097 1268 2742 
Q 959 2388 959 1747 
Q 959 1106 1268 751 
Q 1578 397 2138 397 
Q 2388 397 2633 464 
Q 2878 531 3122 666 
L 3122 134 
Q 2881 22 2623 -34 
Q 2366 -91 2075 -91 
Q 1284 -91 818 406 
Q 353 903 353 1747 
Q 353 2603 823 3093 
Q 1294 3584 2113 3584 
Q 2378 3584 2631 3529 
Q 2884 3475 3122 3366 
z
" transform="scale(0.015625)"/>
       <path id="DejaVuSans-68" d="M 3513 2113 
L 3513 0 
L 2938 0 
L 2938 2094 
Q 2938 2591 2744 2837 
Q 2550 3084 2163 3084 
Q 1697 3084 1428 2787 
Q 1159 2491 1159 1978 
L 1159 0 
L 581 0 
L 581 4863 
L 1159 4863 
L 1159 2956 
Q 1366 3272 1645 3428 
Q 1925 3584 2291 3584 
Q 2894 3584 3203 3211 
Q 3513 2838 3513 2113 
z
" transform="scale(0.015625)"/>
       <path id="DejaVuSans-73" d="M 2834 3397 
L 2834 2853 
Q 2591 2978 2328 3040 
Q 2066 3103 1784 3103 
Q 1356 3103 1142 2972 
Q 928 2841 928 2578 
Q 928 2378 1081 2264 
Q 1234 2150 1697 2047 
L 1894 2003 
Q 2506 1872 2764 1633 
Q 3022 1394 3022 966 
Q 3022 478 2636 193 
Q 2250 -91 1575 -91 
Q 1294 -91 989 -36 
Q 684 19 347 128 
L 347 722 
Q 666 556 975 473 
Q 1284 391 1588 391 
Q 1994 391 2212 530 
Q 2431 669 2431 922 
Q 2431 1156 2273 1281 
Q 2116 1406 1581 1522 
L 1381 1569 
Q 847 1681 609 1914 
Q 372 2147 372 2553 
Q 372 3047 722 3315 
Q 1072 3584 1716 3584 
Q 2034 3584 2315 3537 
Q 2597 3491 2834 3397 
z
" transform="scale(0.015625)"/>
      </defs>
      <use xlink:href="#DejaVuSans-45"/>
      <use xlink:href="#DejaVuSans-70" x="63.183594"/>
      <use xlink:href="#DejaVuSans-6f" x="126.660156"/>
      <use xlink:href="#DejaVuSans-63" x="187.841797"/>
      <use xlink:href="#DejaVuSans-68" x="242.822266"/>
      <use xlink:href="#DejaVuSans-73" x="306.201172"/>
     </g>
    </g>
   </g>
   <g id="matplotlib.axis_2">
    <g id="ytick_1">
     <g id="line2d_11">
      <defs>
       <path id="m43a9d2253c" d="M 0 0 
L -3.5 0 
" style="stroke: #000000; stroke-width: 0.8"/>
      </defs>
      <g>
       <use xlink:href="#m43a9d2253c" x="57.6" y="284.771992" style="stroke: #000000; stroke-width: 0.8"/>
      </g>
     </g>
     <g id="text_12">
      <!-- 10 -->
      <g transform="translate(37.875 288.571211) scale(0.1 -0.1)">
       <use xlink:href="#DejaVuSans-31"/>
       <use xlink:href="#DejaVuSans-30" x="63.623047"/>
      </g>
     </g>
    </g>
    <g id="ytick_2">
     <g id="line2d_12">
      <g>
       <use xlink:href="#m43a9d2253c" x="57.6" y="254.889093" style="stroke: #000000; stroke-width: 0.8"/>
      </g>
     </g>
     <g id="text_13">
      <!-- 20 -->
      <g transform="translate(37.875 258.688312) scale(0.1 -0.1)">
       <use xlink:href="#DejaVuSans-32"/>
       <use xlink:href="#DejaVuSans-30" x="63.623047"/>
      </g>
     </g>
    </g>
    <g id="ytick_3">
     <g id="line2d_13">
      <g>
       <use xlink:href="#m43a9d2253c" x="57.6" y="225.006194" style="stroke: #000000; stroke-width: 0.8"/>
      </g>
     </g>
     <g id="text_14">
      <!-- 30 -->
      <g transform="translate(37.875 228.805412) scale(0.1 -0.1)">
       <use xlink:href="#DejaVuSans-33"/>
       <use xlink:href="#DejaVuSans-30" x="63.623047"/>
      </g>
     </g>
    </g>
    <g id="ytick_4">
     <g id="line2d_14">
      <g>
       <use xlink:href="#m43a9d2253c" x="57.6" y="195.123294" style="stroke: #000000; stroke-width: 0.8"/>
      </g>
     </g>
     <g id="text_15">
      <!-- 40 -->
      <g transform="translate(37.875 198.922513) scale(0.1 -0.1)">
       <use xlink:href="#DejaVuSans-34"/>
       <use xlink:href="#DejaVuSans-30" x="63.623047"/>
      </g>
     </g>
    </g>
    <g id="ytick_5">
     <g id="line2d_15">
      <g>
       <use xlink:href="#m43a9d2253c" x="57.6" y="165.240395" style="stroke: #000000; stroke-width: 0.8"/>
      </g>
     </g>
     <g id="text_16">
      <!-- 50 -->
      <g transform="translate(37.875 169.039614) scale(0.1 -0.1)">
       <use xlink:href="#DejaVuSans-35"/>
       <use xlink:href="#DejaVuSans-30" x="63.623047"/>
      </g>
     </g>
    </g>
    <g id="ytick_6">
     <g id="line2d_16">
      <g>
       <use xlink:href="#m43a9d2253c" x="57.6" y="135.357496" style="stroke: #000000; stroke-width: 0.8"/>
      </g>
     </g>
     <g id="text_17">
      <!-- 60 -->
      <g transform="translate(37.875 139.156714) scale(0.1 -0.1)">
       <defs>
        <path id="DejaVuSans-36" d="M 2113 2584 
Q 1688 2584 1439 2293 
Q 1191 2003 1191 1497 
Q 1191 994 1439 701 
Q 1688 409 2113 409 
Q 2538 409 2786 701 
Q 3034 994 3034 1497 
Q 3034 2003 2786 2293 
Q 2538 2584 2113 2584 
z
M 3366 4563 
L 3366 3988 
Q 3128 4100 2886 4159 
Q 2644 4219 2406 4219 
Q 1781 4219 1451 3797 
Q 1122 3375 1075 2522 
Q 1259 2794 1537 2939 
Q 1816 3084 2150 3084 
Q 2853 3084 3261 2657 
Q 3669 2231 3669 1497 
Q 3669 778 3244 343 
Q 2819 -91 2113 -91 
Q 1303 -91 875 529 
Q 447 1150 447 2328 
Q 447 3434 972 4092 
Q 1497 4750 2381 4750 
Q 2619 4750 2861 4703 
Q 3103 4656 3366 4563 
z
" transform="scale(0.015625)"/>
       </defs>
       <use xlink:href="#DejaVuSans-36"/>
       <use xlink:href="#DejaVuSans-30" x="63.623047"/>
      </g>
     </g>
    </g>
    <g id="ytick_7">
     <g id="line2d_17">
      <g>
       <use xlink:href="#m43a9d2253c" x="57.6" y="105.474596" style="stroke: #000000; stroke-width: 0.8"/>
      </g>
     </g>
     <g id="text_18">
      <!-- 70 -->
      <g transform="translate(37.875 109.273815) scale(0.1 -0.1)">
       <defs>
        <path id="DejaVuSans-37" d="M 525 4666 
L 3525 4666 
L 3525 4397 
L 1831 0 
L 1172 0 
L 2766 4134 
L 525 4134 
L 525 4666 
z
" transform="scale(0.015625)"/>
       </defs>
       <use xlink:href="#DejaVuSans-37"/>
       <use xlink:href="#DejaVuSans-30" x="63.623047"/>
      </g>
     </g>
    </g>
    <g id="ytick_8">
     <g id="line2d_18">
      <g>
       <use xlink:href="#m43a9d2253c" x="57.6" y="75.591697" style="stroke: #000000; stroke-width: 0.8"/>
      </g>
     </g>
     <g id="text_19">
      <!-- 80 -->
      <g transform="translate(37.875 79.390916) scale(0.1 -0.1)">
       <defs>
        <path id="DejaVuSans-38" d="M 2034 2216 
Q 1584 2216 1326 1975 
Q 1069 1734 1069 1313 
Q 1069 891 1326 650 
Q 1584 409 2034 409 
Q 2484 409 2743 651 
Q 3003 894 3003 1313 
Q 3003 1734 2745 1975 
Q 2488 2216 2034 2216 
z
M 1403 2484 
Q 997 2584 770 2862 
Q 544 3141 544 3541 
Q 544 4100 942 4425 
Q 1341 4750 2034 4750 
Q 2731 4750 3128 4425 
Q 3525 4100 3525 3541 
Q 3525 3141 3298 2862 
Q 3072 2584 2669 2484 
Q 3125 2378 3379 2068 
Q 3634 1759 3634 1313 
Q 3634 634 3220 271 
Q 2806 -91 2034 -91 
Q 1263 -91 848 271 
Q 434 634 434 1313 
Q 434 1759 690 2068 
Q 947 2378 1403 2484 
z
M 1172 3481 
Q 1172 3119 1398 2916 
Q 1625 2713 2034 2713 
Q 2441 2713 2670 2916 
Q 2900 3119 2900 3481 
Q 2900 3844 2670 4047 
Q 2441 4250 2034 4250 
Q 1625 4250 1398 4047 
Q 1172 3844 1172 3481 
z
" transform="scale(0.015625)"/>
       </defs>
       <use xlink:href="#DejaVuSans-38"/>
       <use xlink:href="#DejaVuSans-30" x="63.623047"/>
      </g>
     </g>
    </g>
    <g id="ytick_9">
     <g id="line2d_19">
      <g>
       <use xlink:href="#m43a9d2253c" x="57.6" y="45.708797" style="stroke: #000000; stroke-width: 0.8"/>
      </g>
     </g>
     <g id="text_20">
      <!-- 90 -->
      <g transform="translate(37.875 49.508016) scale(0.1 -0.1)">
       <defs>
        <path id="DejaVuSans-39" d="M 703 97 
L 703 672 
Q 941 559 1184 500 
Q 1428 441 1663 441 
Q 2288 441 2617 861 
Q 2947 1281 2994 2138 
Q 2813 1869 2534 1725 
Q 2256 1581 1919 1581 
Q 1219 1581 811 2004 
Q 403 2428 403 3163 
Q 403 3881 828 4315 
Q 1253 4750 1959 4750 
Q 2769 4750 3195 4129 
Q 3622 3509 3622 2328 
Q 3622 1225 3098 567 
Q 2575 -91 1691 -91 
Q 1453 -91 1209 -44 
Q 966 3 703 97 
z
M 1959 2075 
Q 2384 2075 2632 2365 
Q 2881 2656 2881 3163 
Q 2881 3666 2632 3958 
Q 2384 4250 1959 4250 
Q 1534 4250 1286 3958 
Q 1038 3666 1038 3163 
Q 1038 2656 1286 2365 
Q 1534 2075 1959 2075 
z
" transform="scale(0.015625)"/>
       </defs>
       <use xlink:href="#DejaVuSans-39"/>
       <use xlink:href="#DejaVuSans-30" x="63.623047"/>
      </g>
     </g>
    </g>
    <g id="text_21">
     <!-- Accuracy -->
     <g transform="translate(31.795312 197.356125) rotate(-90) scale(0.1 -0.1)">
      <defs>
       <path id="DejaVuSans-41" d="M 2188 4044 
L 1331 1722 
L 3047 1722 
L 2188 4044 
z
M 1831 4666 
L 2547 4666 
L 4325 0 
L 3669 0 
L 3244 1197 
L 1141 1197 
L 716 0 
L 50 0 
L 1831 4666 
z
" transform="scale(0.015625)"/>
       <path id="DejaVuSans-75" d="M 544 1381 
L 544 3500 
L 1119 3500 
L 1119 1403 
Q 1119 906 1312 657 
Q 1506 409 1894 409 
Q 2359 409 2629 706 
Q 2900 1003 2900 1516 
L 2900 3500 
L 3475 3500 
L 3475 0 
L 2900 0 
L 2900 538 
Q 2691 219 2414 64 
Q 2138 -91 1772 -91 
Q 1169 -91 856 284 
Q 544 659 544 1381 
z
M 1991 3584 
L 1991 3584 
z
" transform="scale(0.015625)"/>
       <path id="DejaVuSans-72" d="M 2631 2963 
Q 2534 3019 2420 3045 
Q 2306 3072 2169 3072 
Q 1681 3072 1420 2755 
Q 1159 2438 1159 1844 
L 1159 0 
L 581 0 
L 581 3500 
L 1159 3500 
L 1159 2956 
Q 1341 3275 1631 3429 
Q 1922 3584 2338 3584 
Q 2397 3584 2469 3576 
Q 2541 3569 2628 3553 
L 2631 2963 
z
" transform="scale(0.015625)"/>
       <path id="DejaVuSans-61" d="M 2194 1759 
Q 1497 1759 1228 1600 
Q 959 1441 959 1056 
Q 959 750 1161 570 
Q 1363 391 1709 391 
Q 2188 391 2477 730 
Q 2766 1069 2766 1631 
L 2766 1759 
L 2194 1759 
z
M 3341 1997 
L 3341 0 
L 2766 0 
L 2766 531 
Q 2569 213 2275 61 
Q 1981 -91 1556 -91 
Q 1019 -91 701 211 
Q 384 513 384 1019 
Q 384 1609 779 1909 
Q 1175 2209 1959 2209 
L 2766 2209 
L 2766 2266 
Q 2766 2663 2505 2880 
Q 2244 3097 1772 3097 
Q 1472 3097 1187 3025 
Q 903 2953 641 2809 
L 641 3341 
Q 956 3463 1253 3523 
Q 1550 3584 1831 3584 
Q 2591 3584 2966 3190 
Q 3341 2797 3341 1997 
z
" transform="scale(0.015625)"/>
       <path id="DejaVuSans-79" d="M 2059 -325 
Q 1816 -950 1584 -1140 
Q 1353 -1331 966 -1331 
L 506 -1331 
L 506 -850 
L 844 -850 
Q 1081 -850 1212 -737 
Q 1344 -625 1503 -206 
L 1606 56 
L 191 3500 
L 800 3500 
L 1894 763 
L 2988 3500 
L 3597 3500 
L 2059 -325 
z
" transform="scale(0.015625)"/>
      </defs>
      <use xlink:href="#DejaVuSans-41"/>
      <use xlink:href="#DejaVuSans-63" x="66.658203"/>
      <use xlink:href="#DejaVuSans-63" x="121.638672"/>
      <use xlink:href="#DejaVuSans-75" x="176.619141"/>
      <use xlink:href="#DejaVuSans-72" x="239.998047"/>
      <use xlink:href="#DejaVuSans-61" x="281.111328"/>
      <use xlink:href="#DejaVuSans-63" x="342.390625"/>
      <use xlink:href="#DejaVuSans-79" x="397.371094"/>
     </g>
    </g>
   </g>
   <g id="line2d_20">
    <path d="M 73.832727 295.488 
L 76.001911 249.964391 
L 77.448034 226.524245 
L 78.894157 210.590683 
L 79.617218 203.43074 
L 81.786402 185.716158 
L 83.232525 177.695587 
L 85.401709 165.222465 
L 86.12477 162.311871 
L 86.847832 158.03264 
L 87.570893 155.2356 
L 88.293954 151.249221 
L 89.017016 149.037887 
L 90.463138 143.127049 
L 91.1862 141.346029 
L 91.909261 138.710357 
L 92.632322 138.387622 
L 93.355384 137.580783 
L 94.078445 135.847575 
L 94.801506 136.038826 
L 95.524568 165.670709 
L 96.247629 165.401763 
L 96.97069 164.702503 
L 98.416813 159.478972 
L 99.862936 155.516499 
L 100.585997 151.530121 
L 101.309059 149.773006 
L 102.03212 149.581756 
L 102.755181 146.240847 
L 104.201304 141.72853 
L 104.924365 141.393841 
L 105.647427 138.692427 
L 106.370488 138.429458 
L 107.093549 135.674254 
L 107.816611 133.678077 
L 109.262733 130.516466 
L 109.985795 128.042162 
L 110.708856 127.761263 
L 112.87804 124.510003 
L 113.601101 121.204954 
L 114.324163 120.093311 
L 115.047224 117.146857 
L 115.770285 117.081114 
L 116.493347 115.126773 
L 117.216408 113.805949 
L 117.93947 112.096647 
L 118.662531 111.313715 
L 119.385592 109.676132 
L 120.108654 109.042614 
L 120.831715 106.735655 
L 122.277838 103.699552 
L 123.000899 102.145641 
L 123.72396 99.581688 
L 125.170083 98.344536 
L 125.893144 97.011759 
L 126.616206 94.985699 
L 127.339267 94.680893 
L 128.062328 93.569249 
L 128.78539 92.899872 
L 129.508451 92.009362 
L 130.231512 90.049044 
L 130.954574 89.469315 
L 131.677635 89.056931 
L 133.123758 87.000988 
L 133.846819 85.542702 
L 134.569881 86.331611 
L 135.292942 86.212079 
L 136.016003 85.781766 
L 136.739065 84.472895 
L 137.462126 84.574496 
L 138.185187 85.291686 
L 138.908249 118.252524 
L 139.63131 122.495896 
L 140.354371 122.065582 
L 141.077433 122.20902 
L 141.800494 122.968045 
L 142.523555 121.306556 
L 143.246617 120.362257 
L 143.969678 119.668973 
L 144.692739 118.736627 
L 145.415801 118.820299 
L 146.138862 117.720608 
L 146.861923 117.045255 
L 147.584985 116.166698 
L 148.308046 116.411737 
L 149.754169 113.90755 
L 150.47723 113.501143 
L 151.200292 111.522895 
L 151.923353 110.285743 
L 152.646414 109.873359 
L 153.369476 109.634296 
L 154.092537 110.29172 
L 155.53866 106.84921 
L 156.261721 107.30343 
L 156.984782 107.130109 
L 157.707844 105.976629 
L 158.430905 105.624011 
L 159.153966 104.243421 
L 159.877028 103.61588 
L 160.600089 103.520255 
L 161.32315 99.007937 
L 162.046212 97.651253 
L 162.769273 96.617305 
L 163.492334 96.001717 
L 164.215396 96.192968 
L 164.938457 95.613239 
L 166.38458 93.30628 
L 167.107641 92.959638 
L 167.830703 92.32612 
L 168.553764 90.329943 
L 169.276825 87.574739 
L 169.999887 85.506843 
L 172.169071 85.088482 
L 172.892132 84.466918 
L 173.615193 83.403087 
L 174.338255 82.775546 
L 175.061316 82.345232 
L 175.784377 78.968464 
L 177.2305 77.295022 
L 177.953561 76.177402 
L 178.676623 76.296933 
L 179.399684 75.137477 
L 180.122745 74.898414 
L 180.845807 73.792746 
L 181.568868 73.475988 
L 182.29193 73.499894 
L 183.014991 83.331368 
L 183.738052 81.394956 
L 184.461114 80.582141 
L 185.184175 80.970619 
L 186.630298 79.004324 
L 187.353359 78.78319 
L 188.799482 75.442282 
L 189.522543 75.424353 
L 190.245604 74.127435 
L 190.968666 78.484361 
L 191.691727 78.179556 
L 193.13785 76.099706 
L 193.860911 75.316774 
L 194.583972 74.802788 
L 195.307034 73.464034 
L 196.030095 73.368409 
L 196.753157 72.669149 
L 197.476218 73.607472 
L 198.199279 71.384185 
L 198.922341 71.557505 
L 199.645402 71.258676 
L 200.368463 69.66293 
L 201.091525 69.166873 
L 201.814586 68.007417 
L 202.537647 68.049253 
L 203.260709 67.027258 
L 203.98377 67.690658 
L 204.706831 67.397806 
L 205.429893 67.481478 
L 206.152954 66.226396 
L 206.876015 66.005263 
L 207.599077 64.929478 
L 208.322138 65.353816 
L 209.045199 64.260101 
L 209.768261 63.770022 
L 210.491322 64.212289 
L 211.214383 64.050921 
L 212.660506 64.403539 
L 213.383568 63.172364 
L 214.106629 62.825722 
L 214.82969 62.192205 
L 215.552752 62.431268 
L 216.275813 61.110444 
L 216.998874 61.594547 
L 218.444997 61.265835 
L 219.168058 61.176186 
L 219.89112 61.307671 
L 220.614181 61.755914 
L 221.337242 61.176186 
L 222.060304 61.911305 
L 222.783365 61.79775 
L 223.506426 61.947165 
L 224.952549 61.247905 
L 225.67561 93.808312 
L 226.398672 100.908489 
L 227.121733 102.067946 
L 227.844794 101.793023 
L 228.567856 100.699309 
L 229.290917 101.757163 
L 230.013979 100.292901 
L 230.73704 100.986185 
L 231.460101 100.920442 
L 232.183163 99.462157 
L 232.906224 100.878606 
L 233.629285 100.322784 
L 234.352347 99.342625 
L 235.798469 98.278794 
L 236.521531 98.816686 
L 237.244592 96.934064 
L 237.967653 98.236958 
L 238.690715 96.706954 
L 239.413776 96.766719 
L 240.136837 97.232893 
L 240.859899 96.073436 
L 241.58296 95.971834 
L 243.029083 95.242691 
L 243.752144 95.278551 
L 244.475206 93.736593 
L 245.198267 95.858279 
L 245.921328 94.256556 
L 246.64439 93.509483 
L 247.367451 93.485577 
L 248.090512 92.929755 
L 248.813574 93.4796 
L 249.536635 92.595067 
L 250.259696 92.176706 
L 250.982758 93.001474 
L 251.705819 91.668697 
L 252.42888 91.901783 
L 253.151942 90.748303 
L 253.875003 90.652678 
L 254.598064 89.570917 
L 255.321126 91.423657 
L 256.044187 91.178617 
L 256.767248 90.485334 
L 257.49031 90.132716 
L 258.213371 88.680407 
L 258.936432 89.009119 
L 259.659494 89.194393 
L 260.382555 88.034936 
L 261.105617 87.688294 
L 261.828678 88.590758 
L 262.551739 88.614664 
L 263.274801 87.688294 
L 263.997862 86.445166 
L 264.720923 87.240051 
L 265.443985 87.072707 
L 266.167046 87.222121 
L 266.890107 84.640239 
L 268.33623 82.92496 
L 269.059291 83.199883 
L 269.782353 83.146094 
L 270.505414 82.464764 
L 271.228475 82.566366 
L 271.951537 81.400932 
L 272.674598 82.339255 
L 273.397659 82.542459 
L 274.120721 81.269448 
L 274.843782 81.269448 
L 275.566843 80.869017 
L 276.289905 80.743509 
L 277.012966 80.809251 
L 277.736028 80.516399 
L 278.459089 80.67179 
L 279.18215 79.739443 
L 279.905212 79.51831 
L 280.628273 79.117879 
L 281.351334 79.864951 
L 282.074396 79.225457 
L 282.797457 79.315106 
L 283.520518 79.637841 
L 284.24358 79.578076 
L 286.412764 78.340924 
L 287.135825 77.271116 
L 287.858886 78.466432 
L 288.581948 76.619669 
L 289.305009 78.173579 
L 290.02807 78.639753 
L 290.751132 77.803031 
L 291.474193 77.486273 
L 292.197255 76.356699 
L 292.920316 77.067912 
L 293.643377 76.207285 
L 294.366439 75.944315 
L 295.0895 76.027987 
L 295.812561 76.864708 
L 296.535623 76.027987 
L 297.258684 76.30291 
L 298.704807 75.011969 
L 299.427868 74.605561 
L 300.150929 73.816653 
L 300.873991 74.306732 
L 301.597052 73.224971 
L 302.320113 74.593608 
L 303.043175 74.438217 
L 303.766236 74.605561 
L 304.489297 73.589543 
L 305.212359 73.440128 
L 305.93542 71.999772 
L 306.658481 73.057627 
L 307.381543 71.527623 
L 308.104604 68.324176 
L 309.550727 66.549131 
L 310.273788 66.543155 
L 310.99685 66.208466 
L 311.719911 66.525225 
L 312.442972 66.435576 
L 313.166034 65.640691 
L 313.889095 65.592879 
L 314.612156 65.210378 
L 315.335218 64.600766 
L 316.058279 64.319867 
L 316.78134 63.662443 
L 317.504402 63.542912 
L 318.227463 62.98709 
L 318.950524 63.052832 
L 319.673586 63.375568 
L 320.396647 62.491034 
L 321.84277 61.881423 
L 322.565831 62.443221 
L 323.288892 61.546734 
L 324.011954 61.702125 
L 324.735015 62.413338 
L 325.458077 61.492945 
L 326.181138 61.182163 
L 326.904199 61.044701 
L 327.627261 60.411184 
L 328.350322 59.592393 
L 329.073383 60.20798 
L 329.796445 58.928992 
L 330.519506 60.261769 
L 331.242567 60.339465 
L 331.965629 59.29954 
L 332.68869 59.425048 
L 333.411751 57.667934 
L 334.134813 58.82739 
L 334.857874 57.757582 
L 335.580935 57.817348 
L 336.303997 57.285433 
L 337.027058 58.158013 
L 337.750119 57.076252 
L 338.473181 58.050435 
L 339.196242 57.751606 
L 339.919304 56.586173 
L 340.642365 56.10207 
L 341.365426 55.408787 
L 342.088488 55.241442 
L 342.811549 54.745386 
L 343.53461 55.582107 
L 344.257672 55.719569 
L 344.980733 55.689686 
L 346.426856 54.47644 
L 347.149917 53.932571 
L 347.872978 53.986361 
L 348.59604 53.568 
L 349.319101 59.233798 
L 350.765224 59.365282 
L 351.488285 59.903175 
L 352.211346 59.185985 
L 352.934408 58.630163 
L 355.103592 59.96294 
L 355.826653 59.377236 
L 356.549715 59.592393 
L 357.995837 58.289498 
L 358.718899 59.747784 
L 359.44196 58.88118 
L 360.165021 59.293564 
L 360.888083 60.028683 
L 361.611144 59.024617 
L 362.334205 58.779578 
L 363.057267 58.743718 
L 363.780328 59.066453 
L 364.503389 58.534538 
L 365.226451 58.952898 
L 365.949512 58.223756 
L 366.672573 59.395165 
L 367.395635 58.217779 
L 368.118696 58.074341 
L 368.841757 58.3911 
L 369.564819 57.811372 
L 370.28788 59.203915 
L 371.734003 59.401142 
L 372.457064 58.737742 
L 373.180126 58.761648 
L 373.903187 58.648093 
L 374.626248 58.833367 
L 375.34931 59.203915 
L 376.072371 58.63614 
L 376.795432 58.307428 
L 377.518494 58.707859 
L 378.241555 58.84532 
L 378.964616 58.570397 
L 379.687678 59.454931 
L 380.410739 58.839343 
L 381.856862 58.331334 
L 382.579923 59.275634 
L 383.302984 57.835278 
L 384.749107 59.036571 
L 386.19523 58.40903 
L 386.918291 58.211803 
L 388.364414 58.660046 
L 389.087475 58.403053 
L 389.810537 58.307428 
L 390.533598 58.528561 
L 391.256659 59.466884 
L 391.979721 58.540514 
L 392.702782 58.343287 
L 394.148905 58.869226 
L 395.595027 58.068365 
L 396.318089 58.773601 
L 397.04115 58.666023 
L 397.764211 58.426959 
L 398.487273 59.209891 
L 398.487273 59.209891 
" clip-path="url(#p4f52dd14cb)" style="fill: none; stroke: #1f77b4; stroke-width: 1.5; stroke-linecap: square"/>
   </g>
   <g id="line2d_21">
    <path d="M 73.832727 281.843468 
L 74.555789 263.525251 
L 75.27885 241.830266 
L 76.724973 218.58137 
L 77.448034 202.683668 
L 78.171095 196.079547 
L 78.894157 182.124233 
L 79.617218 178.418753 
L 80.340279 166.764423 
L 81.063341 158.725923 
L 81.786402 160.698194 
L 83.232525 142.499508 
L 83.955586 141.662787 
L 84.678647 136.2241 
L 85.401709 136.283865 
L 86.12477 128.663726 
L 86.847832 128.066068 
L 87.570893 123.523867 
L 88.293954 123.792813 
L 89.017016 119.250613 
L 89.740077 118.50354 
L 90.463138 115.425602 
L 91.1862 114.349817 
L 91.909261 113.064853 
L 92.632322 113.124618 
L 93.355384 112.646492 
L 94.078445 111.690239 
L 94.801506 111.241996 
L 95.524568 144.591311 
L 96.97069 132.548503 
L 97.693752 133.504756 
L 98.416813 132.30944 
L 99.139874 132.369206 
L 99.862936 125.167427 
L 100.585997 122.657263 
L 101.309059 124.6893 
L 102.755181 115.216421 
L 103.478243 115.51525 
L 104.201304 118.08518 
L 104.924365 118.742603 
L 105.647427 111.869537 
L 106.370488 110.375392 
L 107.093549 114.558998 
L 108.539672 106.311317 
L 109.262733 106.221669 
L 109.985795 106.400966 
L 110.708856 105.026353 
L 111.431917 103.293145 
L 112.154979 100.035908 
L 113.601101 101.29099 
L 114.324163 97.914223 
L 115.047224 100.543918 
L 115.770285 96.987853 
L 116.493347 98.81071 
L 117.216408 94.597221 
L 117.93947 95.732771 
L 118.662531 95.015581 
L 119.385592 95.792537 
L 120.108654 94.836284 
L 121.554776 92.415769 
L 122.277838 90.353849 
L 123.000899 90.831975 
L 123.72396 91.100922 
L 124.447022 88.172397 
L 125.170083 89.337831 
L 125.893144 89.009119 
L 126.616206 87.843686 
L 127.339267 87.873568 
L 128.062328 87.246028 
L 128.78539 86.080594 
L 129.508451 86.678252 
L 130.231512 84.108323 
L 130.954574 86.050712 
L 131.677635 84.377269 
L 132.400696 85.094459 
L 133.123758 84.79563 
L 133.846819 83.958909 
L 134.569881 84.855396 
L 135.292942 83.630197 
L 136.016003 83.749728 
L 136.739065 84.287621 
L 137.462126 84.138206 
L 138.185187 83.510665 
L 138.908249 105.534362 
L 139.63131 108.343355 
L 140.354371 102.844901 
L 141.077433 105.086118 
L 141.800494 101.948414 
L 142.523555 104.697641 
L 143.246617 100.693332 
L 143.969678 102.336892 
L 144.692739 100.274972 
L 145.415801 100.573801 
L 146.138862 100.723215 
L 146.861923 106.430849 
L 147.584985 102.038063 
L 148.308046 103.323027 
L 149.031108 103.35291 
L 149.754169 98.09352 
L 150.47723 100.753098 
L 151.200292 101.29099 
L 151.923353 98.033754 
L 152.646414 93.700734 
L 153.369476 96.74879 
L 154.092537 97.37633 
L 154.815598 99.587665 
L 155.53866 99.169304 
L 156.261721 95.433942 
L 156.984782 95.404059 
L 158.430905 96.689024 
L 159.153966 95.31441 
L 159.877028 99.079656 
L 160.600089 96.091366 
L 161.32315 93.700734 
L 162.046212 93.103076 
L 162.769273 93.700734 
L 163.492334 94.059329 
L 164.215396 95.971834 
L 164.938457 96.74879 
L 165.661519 93.04331 
L 166.38458 91.728462 
L 167.107641 90.084903 
L 167.830703 93.730617 
L 168.553764 92.804247 
L 169.276825 92.684715 
L 169.999887 92.774364 
L 170.722948 91.847994 
L 171.446009 92.11694 
L 172.169071 93.7605 
L 172.892132 93.073193 
L 173.615193 91.579048 
L 174.338255 94.447806 
L 175.784377 92.32612 
L 176.507439 88.740173 
L 177.2305 90.563029 
L 177.953561 90.144669 
L 178.676623 90.144669 
L 179.399684 92.83413 
L 180.122745 89.098767 
L 180.845807 89.756191 
L 181.568868 88.501109 
L 182.29193 90.533146 
L 183.014991 90.77221 
L 183.738052 89.098767 
L 184.461114 89.397596 
L 185.184175 88.560875 
L 185.907236 85.064576 
L 187.353359 88.20228 
L 188.07642 84.705981 
L 189.522543 84.347386 
L 190.245604 84.79563 
L 190.968666 83.719845 
L 191.691727 83.570431 
L 192.414788 83.271602 
L 193.13785 82.345232 
L 193.860911 86.319658 
L 194.583972 83.241719 
L 195.307034 81.777457 
L 196.030095 83.391134 
L 197.476218 83.86926 
L 198.199279 82.285466 
L 198.922341 82.494647 
L 199.645402 81.777457 
L 200.368463 80.821204 
L 201.091525 82.285466 
L 201.814586 78.938582 
L 202.537647 81.568277 
L 203.260709 79.835069 
L 203.98377 80.641907 
L 204.706831 80.193663 
L 205.429893 78.848933 
L 206.152954 80.372961 
L 206.876015 80.612024 
L 207.599077 79.327059 
L 208.322138 78.878816 
L 209.045199 79.53624 
L 209.768261 79.506357 
L 210.491322 78.311041 
L 211.214383 78.878816 
L 211.937445 77.922563 
L 212.660506 78.131743 
L 213.383568 78.579987 
L 214.106629 78.550104 
L 214.82969 78.221392 
L 215.552752 77.324905 
L 216.998874 78.221392 
L 217.721936 78.012212 
L 218.444997 77.17549 
L 219.168058 76.846779 
L 219.89112 77.295022 
L 221.337242 77.026076 
L 222.060304 76.816896 
L 222.783365 77.235256 
L 223.506426 76.96631 
L 224.229488 76.906544 
L 224.952549 76.368652 
L 225.67561 97.077501 
L 226.398672 110.494923 
L 227.844794 97.286682 
L 228.567856 96.987853 
L 229.290917 98.511881 
L 230.013979 103.771271 
L 230.73704 99.796845 
L 231.460101 100.006026 
L 232.183163 99.378485 
L 232.906224 97.88434 
L 233.629285 100.274972 
L 234.352347 99.468133 
L 235.075408 94.68687 
L 235.798469 98.362466 
L 236.521531 101.231224 
L 237.244592 98.780827 
L 237.967653 95.82242 
L 238.690715 98.900358 
L 239.413776 96.420078 
L 240.136837 94.716752 
L 240.859899 96.539609 
L 241.58296 96.330429 
L 242.306021 97.316565 
L 243.029083 92.684715 
L 243.752144 93.909914 
L 244.475206 95.792537 
L 245.198267 94.89605 
L 245.921328 100.603684 
L 246.64439 95.613239 
L 247.367451 93.790383 
L 248.090512 92.893896 
L 248.813574 96.300546 
L 249.536635 94.746635 
L 250.259696 93.909914 
L 250.982758 98.481998 
L 251.705819 94.985699 
L 252.42888 95.045464 
L 253.151942 94.985699 
L 253.875003 95.852303 
L 254.598064 91.160687 
L 255.321126 96.181014 
L 256.044187 96.449961 
L 256.767248 97.734925 
L 257.49031 97.645277 
L 258.213371 93.700734 
L 258.936432 94.537455 
L 259.659494 92.296238 
L 260.382555 89.487245 
L 261.105617 95.762654 
L 261.828678 93.551319 
L 262.551739 93.820265 
L 263.274801 91.429633 
L 263.997862 87.754037 
L 264.720923 91.369868 
L 265.443985 93.103076 
L 266.167046 92.385886 
L 266.890107 90.234318 
L 267.613169 92.923778 
L 268.33623 97.197033 
L 269.059291 93.670851 
L 269.782353 96.987853 
L 270.505414 95.254645 
L 271.228475 91.549165 
L 271.951537 93.073193 
L 272.674598 97.226916 
L 273.397659 92.296238 
L 274.120721 95.224762 
L 274.843782 91.549165 
L 275.566843 91.429633 
L 276.289905 97.88434 
L 277.012966 94.388041 
L 277.736028 93.670851 
L 278.459089 92.535301 
L 279.18215 93.7605 
L 279.905212 89.547011 
L 280.628273 93.700734 
L 281.351334 90.891741 
L 282.074396 91.19057 
L 282.797457 91.011273 
L 283.520518 91.788228 
L 284.24358 90.084903 
L 284.966641 90.443498 
L 285.689702 92.236472 
L 286.412764 91.459516 
L 287.135825 88.530992 
L 287.858886 92.475535 
L 288.581948 95.164996 
L 289.305009 90.353849 
L 290.02807 89.756191 
L 290.751132 91.69858 
L 291.474193 90.2642 
L 292.197255 100.962278 
L 292.920316 90.533146 
L 293.643377 88.142515 
L 294.366439 91.100922 
L 295.0895 89.188416 
L 295.812561 90.353849 
L 296.535623 87.754037 
L 297.258684 86.977081 
L 297.981745 90.443498 
L 298.704807 86.887433 
L 299.427868 90.025137 
L 300.150929 83.779611 
L 300.873991 90.742327 
L 301.597052 87.395442 
L 302.320113 89.248182 
L 303.043175 87.096613 
L 303.766236 86.678252 
L 304.489297 88.441344 
L 305.93542 88.262046 
L 306.658481 88.262046 
L 307.381543 85.393288 
L 308.104604 87.634505 
L 308.827666 85.453054 
L 309.550727 85.184108 
L 310.273788 86.409306 
L 310.99685 87.335676 
L 311.719911 86.588604 
L 312.442972 86.349541 
L 313.166034 85.961063 
L 313.889095 84.705981 
L 314.612156 87.754037 
L 315.335218 85.990946 
L 316.058279 83.839377 
L 316.78134 84.646215 
L 317.504402 85.841531 
L 318.227463 85.333522 
L 318.950524 85.602468 
L 319.673586 84.347386 
L 320.396647 87.634505 
L 321.119708 84.317503 
L 321.84277 84.945044 
L 322.565831 82.853241 
L 323.288892 85.094459 
L 324.011954 84.855396 
L 324.735015 84.227855 
L 325.458077 82.046403 
L 326.181138 84.407152 
L 326.904199 82.106169 
L 327.627261 84.227855 
L 328.350322 82.853241 
L 329.073383 82.464764 
L 329.796445 84.437035 
L 330.519506 81.030385 
L 331.242567 83.15207 
L 331.965629 82.673944 
L 332.68869 84.197972 
L 333.411751 88.291929 
L 334.134813 83.421016 
L 334.857874 81.926871 
L 335.580935 81.747574 
L 336.303997 81.329213 
L 337.027058 81.956754 
L 337.750119 82.434881 
L 338.473181 81.359096 
L 339.196242 81.359096 
L 339.919304 79.805186 
L 340.642365 82.285466 
L 341.365426 79.685654 
L 342.088488 82.136052 
L 342.811549 80.343078 
L 343.53461 82.136052 
L 344.257672 79.147762 
L 344.980733 80.731556 
L 345.703794 81.120033 
L 346.426856 79.984483 
L 347.149917 81.448745 
L 347.872978 81.628042 
L 348.59604 80.791321 
L 349.319101 77.414554 
L 350.042162 79.864951 
L 350.765224 78.370806 
L 351.488285 79.984483 
L 352.211346 78.60987 
L 352.934408 79.864951 
L 353.657469 78.81905 
L 354.38053 78.968464 
L 355.103592 81.179799 
L 355.826653 79.117879 
L 356.549715 80.432727 
L 357.272776 78.998347 
L 357.995837 78.848933 
L 358.718899 80.582141 
L 359.44196 77.743266 
L 360.165021 78.251275 
L 361.611144 78.191509 
L 362.334205 80.253429 
L 363.057267 77.982329 
L 363.780328 80.044249 
L 364.503389 79.02823 
L 365.226451 78.968464 
L 365.949512 78.579987 
L 366.672573 79.715537 
L 368.118696 78.281158 
L 368.841757 77.384671 
L 369.564819 78.490338 
L 371.010941 78.81905 
L 371.734003 78.042095 
L 372.457064 80.343078 
L 373.180126 79.177645 
L 373.903187 79.775303 
L 374.626248 80.731556 
L 375.34931 80.133898 
L 376.072371 78.221392 
L 376.795432 78.161626 
L 378.241555 81.538394 
L 378.964616 79.476474 
L 379.687678 80.343078 
L 380.410739 79.655771 
L 381.1338 83.271602 
L 381.856862 79.984483 
L 382.579923 80.552258 
L 383.302984 79.356942 
L 384.026046 78.938582 
L 384.749107 81.657925 
L 385.472168 80.283312 
L 386.19523 78.370806 
L 386.918291 79.835069 
L 387.641353 78.281158 
L 388.364414 79.207528 
L 389.087475 78.460455 
L 389.810537 79.207528 
L 390.533598 79.566122 
L 391.256659 80.432727 
L 392.702782 79.416708 
L 393.425843 78.729401 
L 394.148905 78.938582 
L 394.871966 79.267293 
L 396.318089 79.685654 
L 397.04115 80.16378 
L 397.764211 78.789167 
L 398.487273 79.9546 
L 398.487273 79.9546 
" clip-path="url(#p4f52dd14cb)" style="fill: none; stroke: #ff7f0e; stroke-width: 1.5; stroke-linecap: square"/>
   </g>
   <g id="line2d_22">
    <path d="M 73.832727 285.452127 
L 74.555789 269.768685 
L 75.27885 248.830036 
L 76.001911 239.823928 
L 76.724973 222.636181 
L 77.448034 218.102347 
L 78.171095 217.844458 
L 78.894157 205.674946 
L 79.617218 206.283063 
L 80.340279 190.949849 
L 81.063341 183.118736 
L 81.786402 182.170552 
L 82.509463 186.529271 
L 83.232525 181.68615 
L 83.955586 180.089208 
L 84.678647 176.894726 
L 85.401709 168.671848 
L 86.12477 167.888617 
L 86.847832 158.089118 
L 87.570893 157.305887 
L 88.293954 163.241229 
L 89.017016 159.335833 
L 89.740077 160.778579 
L 90.463138 153.472808 
L 91.1862 156.017934 
L 91.909261 154.183722 
L 92.632322 154.348676 
L 93.355384 152.019901 
L 94.078445 152.772054 
L 94.801506 152.308271 
L 95.524568 174.906019 
L 96.247629 175.039894 
L 96.97069 171.886651 
L 97.693752 171.216975 
L 98.416813 176.863946 
L 99.139874 167.692884 
L 99.862936 167.466073 
L 100.585997 165.93069 
L 101.309059 168.898361 
L 102.03212 164.498402 
L 102.755181 158.810491 
L 103.478243 159.181338 
L 104.201304 165.281633 
L 104.924365 160.520989 
L 105.647427 156.533116 
L 106.370488 160.994931 
L 107.093549 160.345875 
L 107.816611 155.203924 
L 108.539672 151.277909 
L 109.262733 148.032028 
L 109.985795 149.484935 
L 110.708856 158.006641 
L 111.431917 157.75951 
L 112.154979 154.286818 
L 112.87804 146.712997 
L 113.601101 151.133575 
L 114.324163 151.174813 
L 115.047224 151.80325 
L 115.770285 148.516131 
L 116.493347 149.855782 
L 117.216408 143.487736 
L 118.662531 143.848423 
L 119.385592 144.569796 
L 120.108654 140.787816 
L 120.831715 144.157412 
L 122.277838 139.654358 
L 123.000899 136.944277 
L 124.447022 137.294804 
L 125.170083 139.139176 
L 125.893144 137.263726 
L 126.616206 139.31429 
L 127.339267 137.3979 
L 128.062328 138.387024 
L 128.78539 135.831438 
L 130.231512 135.23378 
L 130.954574 135.759421 
L 131.677635 132.431063 
L 132.400696 134.471169 
L 133.123758 133.141977 
L 133.846819 133.60576 
L 134.569881 132.554778 
L 135.292942 134.069543 
L 136.016003 132.771131 
L 136.739065 132.23533 
L 137.462126 132.637255 
L 138.185187 132.24549 
L 138.908249 159.583263 
L 139.63131 157.450222 
L 140.354371 156.95566 
L 141.077433 152.019901 
L 141.800494 148.536751 
L 142.523555 150.546376 
L 143.246617 146.919189 
L 143.969678 150.494678 
L 144.692739 150.896603 
L 145.415801 154.966953 
L 146.138862 142.199783 
L 146.861923 162.901162 
L 147.584985 146.836712 
L 148.308046 155.760344 
L 149.031108 154.554569 
L 149.754169 150.618393 
L 150.47723 143.570213 
L 151.200292 153.009025 
L 151.923353 148.382256 
L 152.646414 147.516847 
L 153.369476 143.549594 
L 154.092537 141.262058 
L 154.815598 143.487736 
L 155.53866 146.640979 
L 156.261721 152.267033 
L 156.984782 147.125082 
L 157.707844 144.507938 
L 158.430905 149.289202 
L 159.153966 137.284345 
L 159.877028 140.200617 
L 160.600089 145.260091 
L 161.32315 144.353145 
L 162.046212 146.022702 
L 162.769273 148.361637 
L 163.492334 147.537466 
L 164.215396 143.312622 
L 164.938457 147.805217 
L 165.661519 139.170255 
L 166.38458 144.404842 
L 167.107641 143.168288 
L 167.830703 143.66285 
L 168.553764 140.035663 
L 169.999887 137.356661 
L 170.722948 148.907896 
L 171.446009 147.825836 
L 172.169071 141.127883 
L 172.892132 142.436754 
L 173.615193 135.068827 
L 174.338255 137.645031 
L 175.061316 143.260925 
L 175.784377 142.230562 
L 176.507439 143.209526 
L 177.2305 143.683469 
L 177.953561 140.808435 
L 178.676623 137.3979 
L 179.399684 142.663267 
L 180.122745 135.676944 
L 180.845807 141.519648 
L 181.568868 139.221653 
L 182.29193 139.03608 
L 183.014991 135.718182 
L 183.738052 138.50028 
L 184.461114 134.821695 
L 185.184175 135.027887 
L 185.907236 135.718182 
L 186.630298 138.046956 
L 187.353359 130.638089 
L 188.07642 135.913915 
L 188.799482 136.861801 
L 189.522543 130.823662 
L 190.245604 131.091413 
L 190.968666 137.418519 
L 191.691727 136.60421 
L 192.414788 134.461009 
L 193.13785 134.883553 
L 193.860911 134.605343 
L 194.583972 129.422154 
L 195.307034 127.412828 
L 196.030095 133.038881 
L 196.753157 131.575815 
L 197.476218 133.141977 
L 198.199279 129.102706 
L 198.922341 134.399151 
L 199.645402 131.349003 
L 200.368463 130.112449 
L 201.091525 133.873511 
L 201.814586 127.392209 
L 202.537647 129.751762 
L 203.260709 130.555612 
L 203.98377 131.740768 
L 204.706831 128.742019 
L 205.429893 128.247457 
L 206.152954 129.81362 
L 206.876015 129.030688 
L 207.599077 130.566071 
L 208.322138 129.648965 
L 209.045199 130.926459 
L 209.768261 127.536543 
L 210.491322 127.309732 
L 211.214383 126.54712 
L 211.937445 126.361846 
L 212.660506 127.082921 
L 213.383568 127.144778 
L 214.106629 128.236998 
L 214.82969 126.454483 
L 215.552752 126.176274 
L 216.275813 127.113999 
L 216.998874 126.845949 
L 217.721936 127.886771 
L 218.444997 127.680579 
L 219.168058 126.722234 
L 219.89112 128.051724 
L 220.614181 127.896931 
L 222.783365 127.144778 
L 223.506426 127.484846 
L 224.229488 127.289113 
L 224.952549 127.474686 
L 225.67561 141.076485 
L 226.398672 161.973895 
L 227.121733 148.27916 
L 227.844794 153.678701 
L 228.567856 151.906346 
L 229.290917 141.48857 
L 230.73704 151.453023 
L 231.460101 162.293343 
L 232.183163 148.670925 
L 232.906224 146.166738 
L 233.629285 148.124665 
L 234.352347 156.831945 
L 235.075408 146.579122 
L 235.798469 148.248381 
L 236.521531 147.980331 
L 237.244592 149.175647 
L 237.967653 146.012243 
L 238.690715 147.485769 
L 239.413776 145.393966 
L 240.136837 143.879202 
L 240.859899 148.155744 
L 241.58296 151.607517 
L 243.029083 142.756203 
L 243.752144 144.683052 
L 244.475206 150.855365 
L 245.198267 149.907479 
L 245.921328 146.877951 
L 246.64439 141.632904 
L 247.367451 147.341435 
L 248.090512 141.364855 
L 248.813574 155.852981 
L 249.536635 143.92044 
L 250.259696 142.426295 
L 250.982758 149.402458 
L 251.705819 144.981881 
L 252.42888 143.776106 
L 253.151942 141.715381 
L 253.875003 149.371679 
L 254.598064 140.839513 
L 255.321126 140.499446 
L 256.044187 150.082593 
L 256.767248 149.526173 
L 257.49031 139.767913 
L 258.213371 149.484935 
L 258.936432 135.748962 
L 259.659494 148.073267 
L 260.382555 136.253983 
L 261.105617 138.098355 
L 262.551739 137.006135 
L 263.274801 145.095137 
L 263.997862 135.604926 
L 264.720923 141.406093 
L 265.443985 137.11969 
L 266.167046 144.219269 
L 266.890107 138.799109 
L 267.613169 135.594467 
L 268.33623 143.600992 
L 269.059291 145.404425 
L 269.782353 145.620777 
L 270.505414 140.818894 
L 271.228475 138.933283 
L 271.951537 137.531775 
L 272.674598 144.312205 
L 273.397659 140.076902 
L 274.120721 144.044156 
L 274.843782 144.044156 
L 275.566843 144.590415 
L 276.289905 151.54566 
L 277.012966 142.673726 
L 277.736028 146.043322 
L 278.459089 135.244239 
L 279.18215 142.962096 
L 279.905212 141.993591 
L 280.628273 137.573014 
L 281.351334 135.831438 
L 282.074396 136.573431 
L 282.797457 135.584307 
L 283.520518 136.377698 
L 284.966641 144.775689 
L 285.689702 143.127049 
L 286.412764 143.837964 
L 287.135825 139.706055 
L 287.858886 139.932567 
L 288.581948 145.517681 
L 289.305009 147.671342 
L 290.02807 141.251599 
L 290.751132 141.828637 
L 291.474193 143.188907 
L 292.197255 147.496228 
L 292.920316 140.11814 
L 293.643377 136.223203 
L 294.366439 138.057117 
L 295.0895 137.9337 
L 295.812561 143.848423 
L 296.535623 130.246623 
L 297.258684 136.130267 
L 297.981745 144.930184 
L 298.704807 136.748544 
L 299.427868 141.107264 
L 300.150929 131.936501 
L 300.873991 141.921573 
L 301.597052 147.207559 
L 303.043175 137.9337 
L 303.766236 138.830187 
L 304.489297 139.0567 
L 305.212359 140.829054 
L 305.93542 140.983848 
L 306.658481 137.006135 
L 307.381543 136.748544 
L 308.104604 132.163117 
L 308.827666 132.19403 
L 309.550727 129.648831 
L 310.273788 139.139228 
L 310.99685 138.654919 
L 311.719911 132.616512 
L 312.442972 136.975294 
L 313.166034 132.626817 
L 313.889095 135.151407 
L 314.612156 140.149064 
L 315.335218 139.314404 
L 316.058279 133.296606 
L 316.78134 137.325645 
L 317.504402 143.436183 
L 318.227463 127.897075 
L 318.950524 139.221664 
L 319.673586 132.224943 
L 320.396647 139.252577 
L 321.119708 137.129861 
L 321.84277 131.926114 
L 322.565831 131.122367 
L 323.288892 135.079275 
L 324.735015 131.843679 
L 325.458077 131.82307 
L 326.181138 132.65773 
L 326.904199 131.740634 
L 327.627261 139.335012 
L 328.350322 135.800587 
L 329.073383 130.194967 
L 330.519506 139.572015 
L 331.242567 137.995434 
L 331.965629 134.265224 
L 332.68869 134.831969 
L 333.411751 134.584662 
L 334.134813 133.646957 
L 334.857874 131.524241 
L 335.580935 133.564522 
L 336.303997 127.649768 
L 337.027058 135.295669 
L 337.750119 128.937824 
L 338.473181 130.905974 
L 339.196242 134.059135 
L 339.919304 128.669909 
L 340.642365 134.419791 
L 341.365426 130.184663 
L 342.088488 132.503163 
L 342.811549 136.686769 
L 343.53461 134.357964 
L 344.257672 130.050705 
L 344.980733 129.422133 
L 345.703794 136.130329 
L 346.426856 131.926114 
L 347.149917 132.884428 
L 347.872978 131.781852 
L 348.59604 131.194499 
L 349.319101 127.165459 
L 350.042162 131.070845 
L 350.765224 128.319558 
L 351.488285 129.628222 
L 352.211346 126.268972 
L 352.934408 130.143445 
L 353.657469 127.598246 
L 354.38053 133.018386 
L 355.103592 131.843679 
L 355.826653 130.998714 
L 356.549715 126.165928 
L 357.272776 128.638995 
L 357.995837 129.040869 
L 358.718899 131.462414 
L 359.44196 128.917215 
L 360.165021 128.875998 
L 360.888083 124.651174 
L 361.611144 130.720494 
L 362.334205 132.111594 
L 363.057267 129.720962 
L 363.780328 128.989347 
L 364.503389 133.018386 
L 365.226451 131.565459 
L 365.949512 128.103164 
L 366.672573 134.955622 
L 367.395635 133.822133 
L 368.118696 131.009018 
L 368.841757 127.072719 
L 369.564819 129.380916 
L 371.010941 128.474124 
L 371.734003 125.506443 
L 372.457064 128.989347 
L 373.180126 130.813234 
L 373.903187 129.174827 
L 374.626248 132.307379 
L 375.34931 129.76218 
L 376.072371 131.658199 
L 376.795432 131.472719 
L 377.518494 132.049768 
L 378.241555 137.181383 
L 378.964616 132.668035 
L 379.687678 132.369206 
L 380.410739 128.072251 
L 381.1338 136.614638 
L 381.856862 135.223538 
L 382.579923 130.359838 
L 383.302984 129.143913 
L 384.026046 127.155155 
L 384.749107 127.732204 
L 385.472168 132.84321 
L 386.19523 129.030564 
L 386.918291 132.297074 
L 387.641353 127.752813 
L 388.364414 131.122367 
L 389.087475 124.259605 
L 389.810537 124.486303 
L 390.533598 129.154218 
L 391.256659 128.989347 
L 391.979721 126.949066 
L 392.702782 128.855389 
L 393.425843 135.172015 
L 394.148905 128.535951 
L 394.871966 130.452578 
L 395.595027 129.720962 
L 396.318089 133.894264 
L 397.04115 133.49239 
L 397.764211 129.607614 
L 398.487273 128.134077 
L 398.487273 128.134077 
" clip-path="url(#p4f52dd14cb)" style="fill: none; stroke: #2ca02c; stroke-width: 1.5; stroke-linecap: square"/>
   </g>
   <g id="line2d_23">
    <path d="M 73.832727 294.782764 
L 74.555789 288.238409 
L 75.27885 286.624732 
L 76.001911 281.574522 
L 76.724973 281.484873 
L 77.448034 275.030167 
L 78.171095 269.681128 
L 78.894157 263.10689 
L 79.617218 257.63832 
L 80.340279 255.516634 
L 81.063341 248.105675 
L 81.786402 242.995699 
L 82.509463 240.186706 
L 83.232525 239.618931 
L 83.955586 227.904835 
L 84.678647 236.421461 
L 85.401709 227.157762 
L 86.12477 221.270831 
L 86.847832 219.50774 
L 87.570893 216.698748 
L 88.293954 212.156547 
L 89.017016 206.20985 
L 89.740077 211.140528 
L 90.463138 206.448913 
L 91.1862 207.13622 
L 91.909261 204.386993 
L 92.632322 205.881138 
L 93.355384 202.384839 
L 94.801506 204.177813 
L 95.524568 219.985866 
L 96.247629 220.64329 
L 96.97069 217.206757 
L 97.693752 218.850316 
L 98.416813 221.988021 
L 99.139874 217.625117 
L 99.862936 220.22493 
L 100.585997 208.06259 
L 102.03212 212.784088 
L 102.755181 200.651631 
L 103.478243 200.621748 
L 104.201304 203.042263 
L 104.924365 202.623902 
L 105.647427 195.720952 
L 106.370488 194.794582 
L 107.093549 191.089103 
L 107.816611 192.224653 
L 108.539672 186.995146 
L 109.262733 184.514865 
L 110.708856 187.114677 
L 111.431917 186.666434 
L 112.154979 183.02072 
L 112.87804 181.436926 
L 113.601101 178.777348 
L 114.324163 184.903343 
L 115.047224 174.862688 
L 116.493347 182.333413 
L 117.216408 173.667372 
L 117.93947 175.400581 
L 118.662531 170.589434 
L 119.385592 172.20311 
L 120.108654 174.862688 
L 120.831715 171.187092 
L 121.554776 168.647045 
L 122.277838 163.895664 
L 123.000899 164.792151 
L 123.72396 164.194493 
L 124.447022 163.268124 
L 125.170083 164.015196 
L 125.893144 161.47515 
L 126.616206 160.75796 
L 127.339267 161.833744 
L 128.062328 162.162456 
L 128.78539 162.192339 
L 129.508451 159.174166 
L 130.231512 158.964986 
L 130.954574 160.04077 
L 131.677635 155.797399 
L 132.400696 159.353464 
L 133.123758 157.440958 
L 133.846819 157.680021 
L 134.569881 158.994869 
L 135.292942 158.964986 
L 136.739065 154.78138 
L 137.462126 158.576508 
L 138.185187 157.739787 
L 138.908249 181.377161 
L 139.63131 182.512711 
L 140.354371 183.379315 
L 141.077433 183.409198 
L 141.800494 179.31524 
L 142.523555 183.857441 
L 143.246617 176.326951 
L 143.969678 179.643952 
L 144.692739 180.839268 
L 145.415801 181.705872 
L 146.138862 176.476365 
L 146.861923 187.592804 
L 147.584985 171.426155 
L 148.308046 181.16798 
L 149.031108 179.434772 
L 149.754169 175.340815 
L 150.47723 181.466809 
L 151.200292 181.287512 
L 152.646414 172.9203 
L 153.369476 170.948029 
L 154.092537 167.66091 
L 154.815598 175.310932 
L 155.53866 181.616224 
L 156.261721 177.940627 
L 156.984782 184.514865 
L 157.707844 173.458192 
L 158.430905 174.175382 
L 159.153966 170.499785 
L 159.877028 171.515804 
L 161.32315 167.720676 
L 162.769273 170.679083 
L 163.492334 170.380254 
L 164.215396 170.888263 
L 164.938457 174.504094 
L 165.661519 170.948029 
L 166.38458 173.517958 
L 167.107641 165.509341 
L 167.830703 168.168919 
L 168.553764 161.68433 
L 169.276825 169.125172 
L 169.999887 171.456038 
L 170.722948 170.230839 
L 171.446009 176.147653 
L 172.169071 166.854071 
L 172.892132 167.362081 
L 173.615193 166.136882 
L 174.338255 165.270278 
L 175.061316 162.072808 
L 175.784377 168.07927 
L 176.507439 160.130419 
L 177.2305 167.511495 
L 177.953561 160.459131 
L 178.676623 164.314025 
L 179.399684 167.332198 
L 180.122745 167.272432 
L 180.845807 166.52536 
L 181.568868 161.086672 
L 182.29193 165.09098 
L 183.014991 162.311871 
L 183.738052 170.350371 
L 184.461114 158.90522 
L 185.184175 164.343908 
L 185.907236 157.351309 
L 186.630298 163.626718 
L 187.353359 166.913837 
L 188.07642 158.456977 
L 188.799482 160.459131 
L 189.522543 161.445267 
L 190.245604 160.877492 
L 190.968666 161.773979 
L 191.691727 161.116555 
L 192.414788 160.638428 
L 193.13785 163.178475 
L 193.860911 165.150746 
L 194.583972 164.762268 
L 195.307034 157.082363 
L 196.030095 162.162456 
L 196.753157 161.265969 
L 197.476218 159.891356 
L 198.199279 160.369482 
L 198.922341 162.909529 
L 199.645402 158.815572 
L 200.368463 156.63412 
L 201.091525 159.771824 
L 201.814586 158.128265 
L 202.537647 155.289389 
L 203.260709 159.233932 
L 203.98377 160.04077 
L 204.706831 159.861473 
L 206.152954 157.590373 
L 206.876015 159.323581 
L 207.599077 162.909529 
L 208.322138 158.456977 
L 209.768261 164.702503 
L 210.491322 161.923393 
L 211.214383 161.086672 
L 211.937445 157.97885 
L 212.660506 162.162456 
L 213.383568 160.160302 
L 214.106629 161.146438 
L 214.82969 158.935103 
L 215.552752 159.443112 
L 216.275813 162.521051 
L 216.998874 160.070653 
L 217.721936 160.578663 
L 218.444997 159.263815 
L 219.168058 159.712059 
L 219.89112 158.964986 
L 220.614181 161.415384 
L 221.337242 161.863627 
L 222.060304 159.263815 
L 222.783365 157.680021 
L 224.229488 161.744096 
L 224.952549 160.96714 
L 226.398672 189.445543 
L 227.121733 177.163672 
L 227.844794 174.653508 
L 228.567856 169.991776 
L 229.290917 174.623625 
L 230.013979 185.889478 
L 230.73704 188.818002 
L 231.460101 180.211727 
L 232.183163 178.866997 
L 232.906224 177.103906 
L 233.629285 180.361142 
L 234.352347 176.595897 
L 235.075408 177.163672 
L 235.798469 165.539224 
L 236.521531 177.940627 
L 237.244592 176.386716 
L 237.967653 170.14119 
L 238.690715 188.041047 
L 239.413776 175.549995 
L 240.136837 172.591588 
L 240.859899 176.356833 
L 241.58296 172.262876 
L 242.306021 180.092196 
L 243.029083 175.520112 
L 243.752144 176.506248 
L 244.475206 174.892571 
L 245.198267 169.93201 
L 245.921328 187.622686 
L 246.64439 168.647045 
L 247.367451 175.938473 
L 248.090512 165.509341 
L 248.813574 181.018566 
L 249.536635 178.837114 
L 250.259696 166.226531 
L 250.982758 178.060159 
L 252.42888 172.262876 
L 253.151942 176.297068 
L 253.875003 171.844516 
L 254.598064 170.768731 
L 256.767248 179.972664 
L 257.49031 168.766577 
L 258.213371 174.175382 
L 258.936432 167.750558 
L 259.659494 176.267185 
L 260.382555 170.977912 
L 261.105617 174.862688 
L 261.828678 169.543532 
L 262.551739 182.333413 
L 263.274801 166.226531 
L 263.997862 160.130419 
L 264.720923 167.780441 
L 265.443985 180.03243 
L 266.167046 173.816787 
L 266.890107 174.145499 
L 267.613169 173.249012 
L 268.33623 181.257629 
L 269.059291 176.984374 
L 269.782353 181.795521 
L 270.505414 171.78475 
L 271.228475 169.782596 
L 271.951537 170.619317 
L 272.674598 174.384562 
L 273.397659 171.724984 
L 274.120721 175.729293 
L 274.843782 169.513649 
L 275.566843 173.517958 
L 276.289905 171.754867 
L 277.012966 182.871305 
L 277.736028 178.568168 
L 278.459089 173.189246 
L 279.18215 171.57557 
L 279.905212 169.00564 
L 280.628273 176.595897 
L 281.351334 172.412291 
L 282.074396 173.607607 
L 282.797457 165.300161 
L 283.520518 175.430464 
L 284.24358 162.909529 
L 284.966641 166.555242 
L 285.689702 174.922454 
L 286.412764 186.128542 
L 287.135825 169.304469 
L 287.858886 178.508402 
L 288.581948 176.894726 
L 289.305009 174.145499 
L 290.02807 170.290605 
L 290.751132 169.244703 
L 291.474193 179.853133 
L 292.197255 187.503155 
L 292.920316 174.623625 
L 293.643377 173.249012 
L 294.366439 178.239456 
L 295.0895 173.488075 
L 295.812561 176.058004 
L 296.535623 163.626718 
L 297.258684 169.334352 
L 297.981745 165.240395 
L 298.704807 162.281988 
L 299.427868 176.326951 
L 300.150929 164.045079 
L 300.873991 165.359926 
L 301.597052 174.324796 
L 302.320113 172.9203 
L 303.043175 165.359926 
L 303.766236 165.718521 
L 304.489297 161.086672 
L 305.212359 170.320488 
L 305.93542 168.07927 
L 306.658481 162.670466 
L 307.381543 169.812478 
L 308.104604 168.019505 
L 308.827666 158.188031 
L 309.550727 168.258568 
L 310.273788 167.840207 
L 310.99685 173.84667 
L 311.719911 169.842361 
L 312.442972 163.447421 
L 313.166034 164.642737 
L 313.889095 167.959739 
L 314.612156 174.504094 
L 315.335218 162.281988 
L 316.058279 160.578663 
L 316.78134 166.854071 
L 317.504402 163.208358 
L 318.227463 158.785689 
L 318.950524 170.798614 
L 319.673586 171.934164 
L 320.396647 168.318334 
L 321.119708 166.077116 
L 321.84277 162.311871 
L 322.565831 162.969295 
L 323.288892 173.189246 
L 324.011954 165.838053 
L 324.735015 167.421847 
L 325.458077 158.337445 
L 326.904199 170.350371 
L 327.627261 175.520112 
L 328.350322 168.676928 
L 329.073383 164.164611 
L 329.796445 169.603298 
L 330.519506 166.077116 
L 331.242567 164.67262 
L 331.965629 164.373791 
L 334.134813 173.069715 
L 334.857874 162.222222 
L 335.580935 169.364235 
L 336.303997 165.419692 
L 337.027058 164.134728 
L 337.750119 157.351309 
L 338.473181 162.252105 
L 339.196242 161.206203 
L 339.919304 157.142129 
L 340.642365 164.463439 
L 341.365426 164.792151 
L 342.088488 162.042925 
L 342.811549 167.899973 
L 343.53461 165.927702 
L 344.257672 161.265969 
L 344.980733 166.106999 
L 346.426856 160.249951 
L 347.149917 164.463439 
L 347.872978 167.302315 
L 348.59604 166.256413 
L 349.319101 160.518897 
L 350.042162 166.764423 
L 350.765224 157.411075 
L 351.488285 172.143345 
L 352.211346 159.712059 
L 352.934408 163.507187 
L 353.657469 161.355618 
L 354.38053 158.636274 
L 355.103592 159.62241 
L 355.826653 162.730231 
L 356.549715 161.983159 
L 357.272776 163.088826 
L 358.718899 157.829436 
L 359.44196 157.440958 
L 360.165021 158.576508 
L 360.888083 167.391964 
L 362.334205 157.321427 
L 363.057267 155.408921 
L 363.780328 162.849763 
L 364.503389 168.019505 
L 365.226451 161.47515 
L 365.949512 157.082363 
L 366.672573 167.601144 
L 367.395635 158.247796 
L 368.118696 160.249951 
L 368.841757 158.337445 
L 369.564819 162.311871 
L 370.28788 158.666157 
L 371.010941 166.52536 
L 371.734003 155.677867 
L 372.457064 167.391964 
L 373.180126 160.698194 
L 373.903187 162.81988 
L 374.626248 162.311871 
L 375.34931 162.252105 
L 376.072371 161.68433 
L 376.795432 155.050326 
L 377.518494 164.8818 
L 378.241555 172.830651 
L 378.964616 165.628873 
L 379.687678 164.194493 
L 380.410739 162.222222 
L 381.1338 168.497631 
L 381.856862 162.939412 
L 382.579923 163.268124 
L 383.302984 165.867936 
L 384.026046 160.429248 
L 384.749107 167.123018 
L 385.472168 159.502878 
L 386.19523 158.845454 
L 386.918291 166.824189 
L 387.641353 159.383347 
L 388.364414 172.890417 
L 389.087475 167.959739 
L 389.810537 164.433557 
L 390.533598 166.435711 
L 391.256659 167.511495 
L 391.979721 165.658755 
L 392.702782 168.258568 
L 393.425843 165.927702 
L 394.871966 153.944659 
L 395.595027 162.311871 
L 396.318089 156.215759 
L 397.04115 160.578663 
L 397.764211 157.799553 
L 398.487273 157.709904 
L 398.487273 157.709904 
" clip-path="url(#p4f52dd14cb)" style="fill: none; stroke: #d62728; stroke-width: 1.5; stroke-linecap: square"/>
   </g>
   <g id="line2d_24">
    <path d="M 351.488285 80.283312 
L 352.211346 79.625888 
L 352.934408 79.386825 
L 353.657469 78.400689 
L 354.38053 81.209682 
L 355.103592 79.356942 
L 355.826653 80.641907 
L 356.549715 78.579987 
L 357.995837 81.747574 
L 358.718899 77.713383 
L 359.44196 81.80734 
L 360.165021 82.2257 
L 360.888083 80.223546 
L 361.611144 82.703827 
L 362.334205 83.211836 
L 363.057267 81.896989 
L 363.780328 82.106169 
L 364.503389 83.331368 
L 365.226451 83.15207 
L 365.949512 81.060267 
L 366.672573 81.747574 
L 367.395635 84.407152 
L 368.118696 82.046403 
L 368.841757 85.512819 
L 369.564819 84.945044 
L 370.28788 81.717691 
L 371.010941 86.14036 
L 371.734003 86.020829 
L 372.457064 83.929026 
L 373.180126 82.913007 
L 373.903187 85.243873 
L 374.626248 84.885279 
L 375.34931 85.154225 
L 376.072371 87.694271 
L 376.795432 86.738018 
L 377.518494 86.558721 
L 378.241555 87.9931 
L 378.964616 86.498955 
L 380.410739 91.250336 
L 381.1338 86.678252 
L 381.856862 89.158533 
L 382.579923 92.624949 
L 383.302984 93.820265 
L 384.026046 89.068884 
L 384.749107 93.342139 
L 386.19523 89.905606 
L 386.918291 98.481998 
L 387.641353 95.702888 
L 388.364414 96.928087 
L 389.087475 95.374176 
L 389.810537 98.541764 
L 390.533598 91.280219 
L 391.256659 93.372022 
L 391.979721 98.033754 
L 392.702782 95.015581 
L 393.425843 93.96968 
L 394.148905 93.730617 
L 394.871966 100.006026 
L 395.595027 96.330429 
L 396.318089 101.171459 
L 397.04115 99.677314 
L 397.764211 96.629258 
L 398.487273 100.693332 
L 398.487273 100.693332 
" clip-path="url(#p4f52dd14cb)" style="fill: none; stroke: #9467bd; stroke-width: 1.5; stroke-linecap: square"/>
   </g>
   <g id="line2d_25">
    <path d="M 350.765224 129.597309 
L 351.488285 129.607614 
L 352.211346 129.999183 
L 352.934408 131.318152 
L 353.657469 128.948129 
L 354.38053 132.905037 
L 355.103592 129.999183 
L 355.826653 127.639464 
L 356.549715 128.1856 
L 357.272776 128.999651 
L 357.995837 129.607614 
L 358.718899 126.001057 
L 359.44196 127.206677 
L 360.165021 131.586068 
L 360.888083 130.782321 
L 361.611144 135.862413 
L 363.057267 129.648831 
L 363.780328 131.874592 
L 364.503389 133.275997 
L 365.226451 134.430095 
L 365.949512 130.720494 
L 366.672573 130.030096 
L 367.395635 134.728924 
L 368.118696 132.451641 
L 368.841757 137.861476 
L 369.564819 138.016043 
L 370.28788 130.565927 
L 371.010941 139.963584 
L 371.734003 135.048362 
L 372.457064 137.232905 
L 373.180126 135.27506 
L 373.903187 136.346723 
L 374.626248 134.316746 
L 375.34931 134.471313 
L 376.072371 140.097542 
L 376.795432 134.4404 
L 377.518494 135.512062 
L 378.241555 135.872718 
L 378.964616 134.99684 
L 379.687678 135.501758 
L 380.410739 139.510188 
L 381.1338 136.800118 
L 381.856862 136.779509 
L 382.579923 141.313467 
L 383.302984 139.087706 
L 384.026046 135.769673 
L 384.749107 139.201055 
L 385.472168 136.995903 
L 386.19523 139.231968 
L 388.364414 144.250234 
L 389.087475 143.673185 
L 389.810537 146.105035 
L 390.533598 137.42869 
L 391.256659 139.541101 
L 391.979721 139.118619 
L 392.702782 146.579039 
L 393.425843 140.767331 
L 394.148905 140.767331 
L 394.871966 150.12377 
L 395.595027 146.486299 
L 396.318089 146.393559 
L 397.04115 145.394028 
L 397.764211 142.962178 
L 398.487273 148.887236 
L 398.487273 148.887236 
" clip-path="url(#p4f52dd14cb)" style="fill: none; stroke: #8c564b; stroke-width: 1.5; stroke-linecap: square"/>
   </g>
   <g id="line2d_26">
    <path d="M 350.765224 159.712059 
L 351.488285 163.447421 
L 352.211346 160.937257 
L 352.934408 172.053696 
L 353.657469 159.323581 
L 354.38053 173.816787 
L 355.103592 172.800768 
L 355.826653 160.429248 
L 356.549715 158.576508 
L 357.272776 156.185876 
L 357.995837 165.957584 
L 358.718899 158.217914 
L 359.44196 165.061097 
L 360.165021 175.490229 
L 360.888083 172.830651 
L 361.611144 173.667372 
L 362.334205 184.216036 
L 363.057267 166.52536 
L 363.780328 178.358988 
L 364.503389 181.078332 
L 365.226451 194.615285 
L 365.949512 164.403674 
L 366.672573 172.352525 
L 367.395635 172.412291 
L 368.118696 173.547841 
L 368.841757 177.731447 
L 369.564819 179.912898 
L 370.28788 193.12114 
L 371.010941 184.574631 
L 371.734003 191.746527 
L 372.457064 184.514865 
L 373.180126 186.21819 
L 373.903187 181.735755 
L 374.626248 197.543809 
L 375.34931 191.029337 
L 376.072371 198.470179 
L 376.795432 188.459408 
L 377.518494 199.127603 
L 378.241555 193.12114 
L 378.964616 185.680298 
L 379.687678 182.363296 
L 380.410739 203.968632 
L 381.1338 186.93538 
L 381.856862 193.12114 
L 382.579923 195.989898 
L 383.302984 218.073361 
L 384.026046 198.619593 
L 384.749107 190.939688 
L 385.472168 192.164887 
L 386.19523 187.891633 
L 386.918291 208.092473 
L 387.641353 206.00067 
L 388.364414 228.711673 
L 389.087475 226.739402 
L 389.810537 229.697809 
L 390.533598 216.160855 
L 391.256659 209.736032 
L 391.979721 234.688253 
L 392.702782 212.425493 
L 393.425843 217.923946 
L 394.148905 201.966478 
L 394.871966 223.332751 
L 395.595027 219.687038 
L 396.318089 236.540993 
L 397.04115 221.629426 
L 397.764211 212.18643 
L 398.487273 224.737247 
L 398.487273 224.737247 
" clip-path="url(#p4f52dd14cb)" style="fill: none; stroke: #e377c2; stroke-width: 1.5; stroke-linecap: square"/>
   </g>
   <g id="patch_3">
    <path d="M 57.6 307.584 
L 57.6 41.472 
" style="fill: none; stroke: #000000; stroke-width: 0.8; stroke-linejoin: miter; stroke-linecap: square"/>
   </g>
   <g id="patch_4">
    <path d="M 414.72 307.584 
L 414.72 41.472 
" style="fill: none; stroke: #000000; stroke-width: 0.8; stroke-linejoin: miter; stroke-linecap: square"/>
   </g>
   <g id="patch_5">
    <path d="M 57.6 307.584 
L 414.72 307.584 
" style="fill: none; stroke: #000000; stroke-width: 0.8; stroke-linejoin: miter; stroke-linecap: square"/>
   </g>
   <g id="patch_6">
    <path d="M 57.6 41.472 
L 414.72 41.472 
" style="fill: none; stroke: #000000; stroke-width: 0.8; stroke-linejoin: miter; stroke-linecap: square"/>
   </g>
   <g id="text_22">
    <!-- Learning Curves -->
    <g transform="translate(187.37625 35.472) scale(0.12 -0.12)">
     <defs>
      <path id="DejaVuSans-4c" d="M 628 4666 
L 1259 4666 
L 1259 531 
L 3531 531 
L 3531 0 
L 628 0 
L 628 4666 
z
" transform="scale(0.015625)"/>
      <path id="DejaVuSans-65" d="M 3597 1894 
L 3597 1613 
L 953 1613 
Q 991 1019 1311 708 
Q 1631 397 2203 397 
Q 2534 397 2845 478 
Q 3156 559 3463 722 
L 3463 178 
Q 3153 47 2828 -22 
Q 2503 -91 2169 -91 
Q 1331 -91 842 396 
Q 353 884 353 1716 
Q 353 2575 817 3079 
Q 1281 3584 2069 3584 
Q 2775 3584 3186 3129 
Q 3597 2675 3597 1894 
z
M 3022 2063 
Q 3016 2534 2758 2815 
Q 2500 3097 2075 3097 
Q 1594 3097 1305 2825 
Q 1016 2553 972 2059 
L 3022 2063 
z
" transform="scale(0.015625)"/>
      <path id="DejaVuSans-6e" d="M 3513 2113 
L 3513 0 
L 2938 0 
L 2938 2094 
Q 2938 2591 2744 2837 
Q 2550 3084 2163 3084 
Q 1697 3084 1428 2787 
Q 1159 2491 1159 1978 
L 1159 0 
L 581 0 
L 581 3500 
L 1159 3500 
L 1159 2956 
Q 1366 3272 1645 3428 
Q 1925 3584 2291 3584 
Q 2894 3584 3203 3211 
Q 3513 2838 3513 2113 
z
" transform="scale(0.015625)"/>
      <path id="DejaVuSans-69" d="M 603 3500 
L 1178 3500 
L 1178 0 
L 603 0 
L 603 3500 
z
M 603 4863 
L 1178 4863 
L 1178 4134 
L 603 4134 
L 603 4863 
z
" transform="scale(0.015625)"/>
      <path id="DejaVuSans-67" d="M 2906 1791 
Q 2906 2416 2648 2759 
Q 2391 3103 1925 3103 
Q 1463 3103 1205 2759 
Q 947 2416 947 1791 
Q 947 1169 1205 825 
Q 1463 481 1925 481 
Q 2391 481 2648 825 
Q 2906 1169 2906 1791 
z
M 3481 434 
Q 3481 -459 3084 -895 
Q 2688 -1331 1869 -1331 
Q 1566 -1331 1297 -1286 
Q 1028 -1241 775 -1147 
L 775 -588 
Q 1028 -725 1275 -790 
Q 1522 -856 1778 -856 
Q 2344 -856 2625 -561 
Q 2906 -266 2906 331 
L 2906 616 
Q 2728 306 2450 153 
Q 2172 0 1784 0 
Q 1141 0 747 490 
Q 353 981 353 1791 
Q 353 2603 747 3093 
Q 1141 3584 1784 3584 
Q 2172 3584 2450 3431 
Q 2728 3278 2906 2969 
L 2906 3500 
L 3481 3500 
L 3481 434 
z
" transform="scale(0.015625)"/>
      <path id="DejaVuSans-20" transform="scale(0.015625)"/>
      <path id="DejaVuSans-43" d="M 4122 4306 
L 4122 3641 
Q 3803 3938 3442 4084 
Q 3081 4231 2675 4231 
Q 1875 4231 1450 3742 
Q 1025 3253 1025 2328 
Q 1025 1406 1450 917 
Q 1875 428 2675 428 
Q 3081 428 3442 575 
Q 3803 722 4122 1019 
L 4122 359 
Q 3791 134 3420 21 
Q 3050 -91 2638 -91 
Q 1578 -91 968 557 
Q 359 1206 359 2328 
Q 359 3453 968 4101 
Q 1578 4750 2638 4750 
Q 3056 4750 3426 4639 
Q 3797 4528 4122 4306 
z
" transform="scale(0.015625)"/>
      <path id="DejaVuSans-76" d="M 191 3500 
L 800 3500 
L 1894 563 
L 2988 3500 
L 3597 3500 
L 2284 0 
L 1503 0 
L 191 3500 
z
" transform="scale(0.015625)"/>
     </defs>
     <use xlink:href="#DejaVuSans-4c"/>
     <use xlink:href="#DejaVuSans-65" x="53.962891"/>
     <use xlink:href="#DejaVuSans-61" x="115.486328"/>
     <use xlink:href="#DejaVuSans-72" x="176.765625"/>
     <use xlink:href="#DejaVuSans-6e" x="216.128906"/>
     <use xlink:href="#DejaVuSans-69" x="279.507812"/>
     <use xlink:href="#DejaVuSans-6e" x="307.291016"/>
     <use xlink:href="#DejaVuSans-67" x="370.669922"/>
     <use xlink:href="#DejaVuSans-20" x="434.146484"/>
     <use xlink:href="#DejaVuSans-43" x="465.933594"/>
     <use xlink:href="#DejaVuSans-75" x="535.757812"/>
     <use xlink:href="#DejaVuSans-72" x="599.136719"/>
     <use xlink:href="#DejaVuSans-76" x="640.25"/>
     <use xlink:href="#DejaVuSans-65" x="699.429688"/>
     <use xlink:href="#DejaVuSans-73" x="760.953125"/>
    </g>
   </g>
   <g id="legend_1">
    <g id="patch_7">
     <path d="M 128.445937 302.584 
L 343.874063 302.584 
Q 345.874063 302.584 345.874063 300.584 
L 345.874063 198.837125 
Q 345.874063 196.837125 343.874063 196.837125 
L 128.445937 196.837125 
Q 126.445937 196.837125 126.445937 198.837125 
L 126.445937 300.584 
Q 126.445937 302.584 128.445937 302.584 
z
" style="fill: #ffffff; opacity: 0.8; stroke: #cccccc; stroke-linejoin: miter"/>
    </g>
    <g id="line2d_27">
     <path d="M 130.445937 204.935563 
L 140.445937 204.935563 
L 150.445937 204.935563 
" style="fill: none; stroke: #1f77b4; stroke-width: 1.5; stroke-linecap: square"/>
    </g>
    <g id="text_23">
     <!-- Train Accuracy -->
     <g transform="translate(158.445937 208.435563) scale(0.1 -0.1)">
      <defs>
       <path id="DejaVuSans-54" d="M -19 4666 
L 3928 4666 
L 3928 4134 
L 2272 4134 
L 2272 0 
L 1638 0 
L 1638 4134 
L -19 4134 
L -19 4666 
z
" transform="scale(0.015625)"/>
      </defs>
      <use xlink:href="#DejaVuSans-54"/>
      <use xlink:href="#DejaVuSans-72" x="46.333984"/>
      <use xlink:href="#DejaVuSans-61" x="87.447266"/>
      <use xlink:href="#DejaVuSans-69" x="148.726562"/>
      <use xlink:href="#DejaVuSans-6e" x="176.509766"/>
      <use xlink:href="#DejaVuSans-20" x="239.888672"/>
      <use xlink:href="#DejaVuSans-41" x="271.675781"/>
      <use xlink:href="#DejaVuSans-63" x="338.333984"/>
      <use xlink:href="#DejaVuSans-63" x="393.314453"/>
      <use xlink:href="#DejaVuSans-75" x="448.294922"/>
      <use xlink:href="#DejaVuSans-72" x="511.673828"/>
      <use xlink:href="#DejaVuSans-61" x="552.787109"/>
      <use xlink:href="#DejaVuSans-63" x="614.066406"/>
      <use xlink:href="#DejaVuSans-79" x="669.046875"/>
     </g>
    </g>
    <g id="line2d_28">
     <path d="M 130.445937 219.613688 
L 140.445937 219.613688 
L 150.445937 219.613688 
" style="fill: none; stroke: #ff7f0e; stroke-width: 1.5; stroke-linecap: square"/>
    </g>
    <g id="text_24">
     <!-- Validation Accuracy -->
     <g transform="translate(158.445937 223.113688) scale(0.1 -0.1)">
      <defs>
       <path id="DejaVuSans-56" d="M 1831 0 
L 50 4666 
L 709 4666 
L 2188 738 
L 3669 4666 
L 4325 4666 
L 2547 0 
L 1831 0 
z
" transform="scale(0.015625)"/>
       <path id="DejaVuSans-6c" d="M 603 4863 
L 1178 4863 
L 1178 0 
L 603 0 
L 603 4863 
z
" transform="scale(0.015625)"/>
       <path id="DejaVuSans-64" d="M 2906 2969 
L 2906 4863 
L 3481 4863 
L 3481 0 
L 2906 0 
L 2906 525 
Q 2725 213 2448 61 
Q 2172 -91 1784 -91 
Q 1150 -91 751 415 
Q 353 922 353 1747 
Q 353 2572 751 3078 
Q 1150 3584 1784 3584 
Q 2172 3584 2448 3432 
Q 2725 3281 2906 2969 
z
M 947 1747 
Q 947 1113 1208 752 
Q 1469 391 1925 391 
Q 2381 391 2643 752 
Q 2906 1113 2906 1747 
Q 2906 2381 2643 2742 
Q 2381 3103 1925 3103 
Q 1469 3103 1208 2742 
Q 947 2381 947 1747 
z
" transform="scale(0.015625)"/>
       <path id="DejaVuSans-74" d="M 1172 4494 
L 1172 3500 
L 2356 3500 
L 2356 3053 
L 1172 3053 
L 1172 1153 
Q 1172 725 1289 603 
Q 1406 481 1766 481 
L 2356 481 
L 2356 0 
L 1766 0 
Q 1100 0 847 248 
Q 594 497 594 1153 
L 594 3053 
L 172 3053 
L 172 3500 
L 594 3500 
L 594 4494 
L 1172 4494 
z
" transform="scale(0.015625)"/>
      </defs>
      <use xlink:href="#DejaVuSans-56"/>
      <use xlink:href="#DejaVuSans-61" x="60.658203"/>
      <use xlink:href="#DejaVuSans-6c" x="121.9375"/>
      <use xlink:href="#DejaVuSans-69" x="149.720703"/>
      <use xlink:href="#DejaVuSans-64" x="177.503906"/>
      <use xlink:href="#DejaVuSans-61" x="240.980469"/>
      <use xlink:href="#DejaVuSans-74" x="302.259766"/>
      <use xlink:href="#DejaVuSans-69" x="341.46875"/>
      <use xlink:href="#DejaVuSans-6f" x="369.251953"/>
      <use xlink:href="#DejaVuSans-6e" x="430.433594"/>
      <use xlink:href="#DejaVuSans-20" x="493.8125"/>
      <use xlink:href="#DejaVuSans-41" x="525.599609"/>
      <use xlink:href="#DejaVuSans-63" x="592.257812"/>
      <use xlink:href="#DejaVuSans-63" x="647.238281"/>
      <use xlink:href="#DejaVuSans-75" x="702.21875"/>
      <use xlink:href="#DejaVuSans-72" x="765.597656"/>
      <use xlink:href="#DejaVuSans-61" x="806.710938"/>
      <use xlink:href="#DejaVuSans-63" x="867.990234"/>
      <use xlink:href="#DejaVuSans-79" x="922.970703"/>
     </g>
    </g>
    <g id="line2d_29">
     <path d="M 130.445937 234.291812 
L 140.445937 234.291812 
L 150.445937 234.291812 
" style="fill: none; stroke: #2ca02c; stroke-width: 1.5; stroke-linecap: square"/>
    </g>
    <g id="text_25">
     <!-- Robust Validation Accuracy -->
     <g transform="translate(158.445937 237.791812) scale(0.1 -0.1)">
      <defs>
       <path id="DejaVuSans-52" d="M 2841 2188 
Q 3044 2119 3236 1894 
Q 3428 1669 3622 1275 
L 4263 0 
L 3584 0 
L 2988 1197 
Q 2756 1666 2539 1819 
Q 2322 1972 1947 1972 
L 1259 1972 
L 1259 0 
L 628 0 
L 628 4666 
L 2053 4666 
Q 2853 4666 3247 4331 
Q 3641 3997 3641 3322 
Q 3641 2881 3436 2590 
Q 3231 2300 2841 2188 
z
M 1259 4147 
L 1259 2491 
L 2053 2491 
Q 2509 2491 2742 2702 
Q 2975 2913 2975 3322 
Q 2975 3731 2742 3939 
Q 2509 4147 2053 4147 
L 1259 4147 
z
" transform="scale(0.015625)"/>
       <path id="DejaVuSans-62" d="M 3116 1747 
Q 3116 2381 2855 2742 
Q 2594 3103 2138 3103 
Q 1681 3103 1420 2742 
Q 1159 2381 1159 1747 
Q 1159 1113 1420 752 
Q 1681 391 2138 391 
Q 2594 391 2855 752 
Q 3116 1113 3116 1747 
z
M 1159 2969 
Q 1341 3281 1617 3432 
Q 1894 3584 2278 3584 
Q 2916 3584 3314 3078 
Q 3713 2572 3713 1747 
Q 3713 922 3314 415 
Q 2916 -91 2278 -91 
Q 1894 -91 1617 61 
Q 1341 213 1159 525 
L 1159 0 
L 581 0 
L 581 4863 
L 1159 4863 
L 1159 2969 
z
" transform="scale(0.015625)"/>
      </defs>
      <use xlink:href="#DejaVuSans-52"/>
      <use xlink:href="#DejaVuSans-6f" x="64.982422"/>
      <use xlink:href="#DejaVuSans-62" x="126.164062"/>
      <use xlink:href="#DejaVuSans-75" x="189.640625"/>
      <use xlink:href="#DejaVuSans-73" x="253.019531"/>
      <use xlink:href="#DejaVuSans-74" x="305.119141"/>
      <use xlink:href="#DejaVuSans-20" x="344.328125"/>
      <use xlink:href="#DejaVuSans-56" x="376.115234"/>
      <use xlink:href="#DejaVuSans-61" x="436.773438"/>
      <use xlink:href="#DejaVuSans-6c" x="498.052734"/>
      <use xlink:href="#DejaVuSans-69" x="525.835938"/>
      <use xlink:href="#DejaVuSans-64" x="553.619141"/>
      <use xlink:href="#DejaVuSans-61" x="617.095703"/>
      <use xlink:href="#DejaVuSans-74" x="678.375"/>
      <use xlink:href="#DejaVuSans-69" x="717.583984"/>
      <use xlink:href="#DejaVuSans-6f" x="745.367188"/>
      <use xlink:href="#DejaVuSans-6e" x="806.548828"/>
      <use xlink:href="#DejaVuSans-20" x="869.927734"/>
      <use xlink:href="#DejaVuSans-41" x="901.714844"/>
      <use xlink:href="#DejaVuSans-63" x="968.373047"/>
      <use xlink:href="#DejaVuSans-63" x="1023.353516"/>
      <use xlink:href="#DejaVuSans-75" x="1078.333984"/>
      <use xlink:href="#DejaVuSans-72" x="1141.712891"/>
      <use xlink:href="#DejaVuSans-61" x="1182.826172"/>
      <use xlink:href="#DejaVuSans-63" x="1244.105469"/>
      <use xlink:href="#DejaVuSans-79" x="1299.085938"/>
     </g>
    </g>
    <g id="line2d_30">
     <path d="M 130.445937 248.969938 
L 140.445937 248.969938 
L 150.445937 248.969938 
" style="fill: none; stroke: #d62728; stroke-width: 1.5; stroke-linecap: square"/>
    </g>
    <g id="text_26">
     <!-- Adversarial Validation Accuracy -->
     <g transform="translate(158.445937 252.469938) scale(0.1 -0.1)">
      <use xlink:href="#DejaVuSans-41"/>
      <use xlink:href="#DejaVuSans-64" x="66.658203"/>
      <use xlink:href="#DejaVuSans-76" x="130.134766"/>
      <use xlink:href="#DejaVuSans-65" x="189.314453"/>
      <use xlink:href="#DejaVuSans-72" x="250.837891"/>
      <use xlink:href="#DejaVuSans-73" x="291.951172"/>
      <use xlink:href="#DejaVuSans-61" x="344.050781"/>
      <use xlink:href="#DejaVuSans-72" x="405.330078"/>
      <use xlink:href="#DejaVuSans-69" x="446.443359"/>
      <use xlink:href="#DejaVuSans-61" x="474.226562"/>
      <use xlink:href="#DejaVuSans-6c" x="535.505859"/>
      <use xlink:href="#DejaVuSans-20" x="563.289062"/>
      <use xlink:href="#DejaVuSans-56" x="595.076172"/>
      <use xlink:href="#DejaVuSans-61" x="655.734375"/>
      <use xlink:href="#DejaVuSans-6c" x="717.013672"/>
      <use xlink:href="#DejaVuSans-69" x="744.796875"/>
      <use xlink:href="#DejaVuSans-64" x="772.580078"/>
      <use xlink:href="#DejaVuSans-61" x="836.056641"/>
      <use xlink:href="#DejaVuSans-74" x="897.335938"/>
      <use xlink:href="#DejaVuSans-69" x="936.544922"/>
      <use xlink:href="#DejaVuSans-6f" x="964.328125"/>
      <use xlink:href="#DejaVuSans-6e" x="1025.509766"/>
      <use xlink:href="#DejaVuSans-20" x="1088.888672"/>
      <use xlink:href="#DejaVuSans-41" x="1120.675781"/>
      <use xlink:href="#DejaVuSans-63" x="1187.333984"/>
      <use xlink:href="#DejaVuSans-63" x="1242.314453"/>
      <use xlink:href="#DejaVuSans-75" x="1297.294922"/>
      <use xlink:href="#DejaVuSans-72" x="1360.673828"/>
      <use xlink:href="#DejaVuSans-61" x="1401.787109"/>
      <use xlink:href="#DejaVuSans-63" x="1463.066406"/>
      <use xlink:href="#DejaVuSans-79" x="1518.046875"/>
     </g>
    </g>
    <g id="line2d_31">
     <path d="M 130.445937 263.648063 
L 140.445937 263.648063 
L 150.445937 263.648063 
" style="fill: none; stroke: #9467bd; stroke-width: 1.5; stroke-linecap: square"/>
    </g>
    <g id="text_27">
     <!-- SWA Validation Accuracy -->
     <g transform="translate(158.445937 267.148063) scale(0.1 -0.1)">
      <defs>
       <path id="DejaVuSans-53" d="M 3425 4513 
L 3425 3897 
Q 3066 4069 2747 4153 
Q 2428 4238 2131 4238 
Q 1616 4238 1336 4038 
Q 1056 3838 1056 3469 
Q 1056 3159 1242 3001 
Q 1428 2844 1947 2747 
L 2328 2669 
Q 3034 2534 3370 2195 
Q 3706 1856 3706 1288 
Q 3706 609 3251 259 
Q 2797 -91 1919 -91 
Q 1588 -91 1214 -16 
Q 841 59 441 206 
L 441 856 
Q 825 641 1194 531 
Q 1563 422 1919 422 
Q 2459 422 2753 634 
Q 3047 847 3047 1241 
Q 3047 1584 2836 1778 
Q 2625 1972 2144 2069 
L 1759 2144 
Q 1053 2284 737 2584 
Q 422 2884 422 3419 
Q 422 4038 858 4394 
Q 1294 4750 2059 4750 
Q 2388 4750 2728 4690 
Q 3069 4631 3425 4513 
z
" transform="scale(0.015625)"/>
       <path id="DejaVuSans-57" d="M 213 4666 
L 850 4666 
L 1831 722 
L 2809 4666 
L 3519 4666 
L 4500 722 
L 5478 4666 
L 6119 4666 
L 4947 0 
L 4153 0 
L 3169 4050 
L 2175 0 
L 1381 0 
L 213 4666 
z
" transform="scale(0.015625)"/>
      </defs>
      <use xlink:href="#DejaVuSans-53"/>
      <use xlink:href="#DejaVuSans-57" x="63.476562"/>
      <use xlink:href="#DejaVuSans-41" x="156.853516"/>
      <use xlink:href="#DejaVuSans-20" x="225.261719"/>
      <use xlink:href="#DejaVuSans-56" x="257.048828"/>
      <use xlink:href="#DejaVuSans-61" x="317.707031"/>
      <use xlink:href="#DejaVuSans-6c" x="378.986328"/>
      <use xlink:href="#DejaVuSans-69" x="406.769531"/>
      <use xlink:href="#DejaVuSans-64" x="434.552734"/>
      <use xlink:href="#DejaVuSans-61" x="498.029297"/>
      <use xlink:href="#DejaVuSans-74" x="559.308594"/>
      <use xlink:href="#DejaVuSans-69" x="598.517578"/>
      <use xlink:href="#DejaVuSans-6f" x="626.300781"/>
      <use xlink:href="#DejaVuSans-6e" x="687.482422"/>
      <use xlink:href="#DejaVuSans-20" x="750.861328"/>
      <use xlink:href="#DejaVuSans-41" x="782.648438"/>
      <use xlink:href="#DejaVuSans-63" x="849.306641"/>
      <use xlink:href="#DejaVuSans-63" x="904.287109"/>
      <use xlink:href="#DejaVuSans-75" x="959.267578"/>
      <use xlink:href="#DejaVuSans-72" x="1022.646484"/>
      <use xlink:href="#DejaVuSans-61" x="1063.759766"/>
      <use xlink:href="#DejaVuSans-63" x="1125.039062"/>
      <use xlink:href="#DejaVuSans-79" x="1180.019531"/>
     </g>
    </g>
    <g id="line2d_32">
     <path d="M 130.445937 278.326188 
L 140.445937 278.326188 
L 150.445937 278.326188 
" style="fill: none; stroke: #8c564b; stroke-width: 1.5; stroke-linecap: square"/>
    </g>
    <g id="text_28">
     <!-- SWA Robust Validation Accuracy -->
     <g transform="translate(158.445937 281.826188) scale(0.1 -0.1)">
      <use xlink:href="#DejaVuSans-53"/>
      <use xlink:href="#DejaVuSans-57" x="63.476562"/>
      <use xlink:href="#DejaVuSans-41" x="156.853516"/>
      <use xlink:href="#DejaVuSans-20" x="225.261719"/>
      <use xlink:href="#DejaVuSans-52" x="257.048828"/>
      <use xlink:href="#DejaVuSans-6f" x="322.03125"/>
      <use xlink:href="#DejaVuSans-62" x="383.212891"/>
      <use xlink:href="#DejaVuSans-75" x="446.689453"/>
      <use xlink:href="#DejaVuSans-73" x="510.068359"/>
      <use xlink:href="#DejaVuSans-74" x="562.167969"/>
      <use xlink:href="#DejaVuSans-20" x="601.376953"/>
      <use xlink:href="#DejaVuSans-56" x="633.164062"/>
      <use xlink:href="#DejaVuSans-61" x="693.822266"/>
      <use xlink:href="#DejaVuSans-6c" x="755.101562"/>
      <use xlink:href="#DejaVuSans-69" x="782.884766"/>
      <use xlink:href="#DejaVuSans-64" x="810.667969"/>
      <use xlink:href="#DejaVuSans-61" x="874.144531"/>
      <use xlink:href="#DejaVuSans-74" x="935.423828"/>
      <use xlink:href="#DejaVuSans-69" x="974.632812"/>
      <use xlink:href="#DejaVuSans-6f" x="1002.416016"/>
      <use xlink:href="#DejaVuSans-6e" x="1063.597656"/>
      <use xlink:href="#DejaVuSans-20" x="1126.976562"/>
      <use xlink:href="#DejaVuSans-41" x="1158.763672"/>
      <use xlink:href="#DejaVuSans-63" x="1225.421875"/>
      <use xlink:href="#DejaVuSans-63" x="1280.402344"/>
      <use xlink:href="#DejaVuSans-75" x="1335.382812"/>
      <use xlink:href="#DejaVuSans-72" x="1398.761719"/>
      <use xlink:href="#DejaVuSans-61" x="1439.875"/>
      <use xlink:href="#DejaVuSans-63" x="1501.154297"/>
      <use xlink:href="#DejaVuSans-79" x="1556.134766"/>
     </g>
    </g>
    <g id="line2d_33">
     <path d="M 130.445937 293.004312 
L 140.445937 293.004312 
L 150.445937 293.004312 
" style="fill: none; stroke: #e377c2; stroke-width: 1.5; stroke-linecap: square"/>
    </g>
    <g id="text_29">
     <!-- SWA Adversarial Validation Accuracy -->
     <g transform="translate(158.445937 296.504312) scale(0.1 -0.1)">
      <use xlink:href="#DejaVuSans-53"/>
      <use xlink:href="#DejaVuSans-57" x="63.476562"/>
      <use xlink:href="#DejaVuSans-41" x="156.853516"/>
      <use xlink:href="#DejaVuSans-20" x="225.261719"/>
      <use xlink:href="#DejaVuSans-41" x="257.048828"/>
      <use xlink:href="#DejaVuSans-64" x="323.707031"/>
      <use xlink:href="#DejaVuSans-76" x="387.183594"/>
      <use xlink:href="#DejaVuSans-65" x="446.363281"/>
      <use xlink:href="#DejaVuSans-72" x="507.886719"/>
      <use xlink:href="#DejaVuSans-73" x="549"/>
      <use xlink:href="#DejaVuSans-61" x="601.099609"/>
      <use xlink:href="#DejaVuSans-72" x="662.378906"/>
      <use xlink:href="#DejaVuSans-69" x="703.492188"/>
      <use xlink:href="#DejaVuSans-61" x="731.275391"/>
      <use xlink:href="#DejaVuSans-6c" x="792.554688"/>
      <use xlink:href="#DejaVuSans-20" x="820.337891"/>
      <use xlink:href="#DejaVuSans-56" x="852.125"/>
      <use xlink:href="#DejaVuSans-61" x="912.783203"/>
      <use xlink:href="#DejaVuSans-6c" x="974.0625"/>
      <use xlink:href="#DejaVuSans-69" x="1001.845703"/>
      <use xlink:href="#DejaVuSans-64" x="1029.628906"/>
      <use xlink:href="#DejaVuSans-61" x="1093.105469"/>
      <use xlink:href="#DejaVuSans-74" x="1154.384766"/>
      <use xlink:href="#DejaVuSans-69" x="1193.59375"/>
      <use xlink:href="#DejaVuSans-6f" x="1221.376953"/>
      <use xlink:href="#DejaVuSans-6e" x="1282.558594"/>
      <use xlink:href="#DejaVuSans-20" x="1345.9375"/>
      <use xlink:href="#DejaVuSans-41" x="1377.724609"/>
      <use xlink:href="#DejaVuSans-63" x="1444.382812"/>
      <use xlink:href="#DejaVuSans-63" x="1499.363281"/>
      <use xlink:href="#DejaVuSans-75" x="1554.34375"/>
      <use xlink:href="#DejaVuSans-72" x="1617.722656"/>
      <use xlink:href="#DejaVuSans-61" x="1658.835938"/>
      <use xlink:href="#DejaVuSans-63" x="1720.115234"/>
      <use xlink:href="#DejaVuSans-79" x="1775.095703"/>
     </g>
    </g>
   </g>
  </g>
 </g>
 <defs>
  <clipPath id="p4f52dd14cb">
   <rect x="57.6" y="41.472" width="357.12" height="266.112"/>
  </clipPath>
 </defs>
</svg>
