<?xml version="1.0" encoding="utf-8" standalone="no"?>
<!DOCTYPE svg PUBLIC "-//W3C//DTD SVG 1.1//EN"
  "http://www.w3.org/Graphics/SVG/1.1/DTD/svg11.dtd">
<svg xmlns:xlink="http://www.w3.org/1999/xlink" width="460.8pt" height="345.6pt" viewBox="0 0 460.8 345.6" xmlns="http://www.w3.org/2000/svg" version="1.1">
 <metadata>
  <rdf:RDF xmlns:dc="http://purl.org/dc/elements/1.1/" xmlns:cc="http://creativecommons.org/ns#" xmlns:rdf="http://www.w3.org/1999/02/22-rdf-syntax-ns#">
   <cc:Work>
    <dc:type rdf:resource="http://purl.org/dc/dcmitype/StillImage"/>
    <dc:date>2024-08-29T18:50:17.148272</dc:date>
    <dc:format>image/svg+xml</dc:format>
    <dc:creator>
     <cc:Agent>
      <dc:title>Matplotlib v3.9.1, https://matplotlib.org/</dc:title>
     </cc:Agent>
    </dc:creator>
   </cc:Work>
  </rdf:RDF>
 </metadata>
 <defs>
  <style type="text/css">*{stroke-linejoin: round; stroke-linecap: butt}</style>
 </defs>
 <g id="figure_1">
  <g id="patch_1">
   <path d="M 0 345.6 
L 460.8 345.6 
L 460.8 0 
L 0 0 
z
" style="fill: #ffffff"/>
  </g>
  <g id="axes_1">
   <g id="patch_2">
    <path d="M 57.6 307.584 
L 414.72 307.584 
L 414.72 41.472 
L 57.6 41.472 
z
" style="fill: #ffffff"/>
   </g>
   <g id="matplotlib.axis_1">
    <g id="xtick_1">
     <g id="line2d_1">
      <defs>
       <path id="m511dc27ae3" d="M 0 0 
L 0 3.5 
" style="stroke: #000000; stroke-width: 0.8"/>
      </defs>
      <g>
       <use xlink:href="#m511dc27ae3" x="73.832727" y="307.584" style="stroke: #000000; stroke-width: 0.8"/>
      </g>
     </g>
     <g id="text_1">
      <!-- 1 -->
      <g transform="translate(70.651477 322.182437) scale(0.1 -0.1)">
       <defs>
        <path id="DejaVuSans-31" d="M 794 531 
L 1825 531 
L 1825 4091 
L 703 3866 
L 703 4441 
L 1819 4666 
L 2450 4666 
L 2450 531 
L 3481 531 
L 3481 0 
L 794 0 
L 794 531 
z
" transform="scale(0.015625)"/>
       </defs>
       <use xlink:href="#DejaVuSans-31"/>
      </g>
     </g>
    </g>
    <g id="xtick_2">
     <g id="line2d_2">
      <g>
       <use xlink:href="#m511dc27ae3" x="109.262733" y="307.584" style="stroke: #000000; stroke-width: 0.8"/>
      </g>
     </g>
     <g id="text_2">
      <!-- 50 -->
      <g transform="translate(102.900233 322.182437) scale(0.1 -0.1)">
       <defs>
        <path id="DejaVuSans-35" d="M 691 4666 
L 3169 4666 
L 3169 4134 
L 1269 4134 
L 1269 2991 
Q 1406 3038 1543 3061 
Q 1681 3084 1819 3084 
Q 2600 3084 3056 2656 
Q 3513 2228 3513 1497 
Q 3513 744 3044 326 
Q 2575 -91 1722 -91 
Q 1428 -91 1123 -41 
Q 819 9 494 109 
L 494 744 
Q 775 591 1075 516 
Q 1375 441 1709 441 
Q 2250 441 2565 725 
Q 2881 1009 2881 1497 
Q 2881 1984 2565 2268 
Q 2250 2553 1709 2553 
Q 1456 2553 1204 2497 
Q 953 2441 691 2322 
L 691 4666 
z
" transform="scale(0.015625)"/>
        <path id="DejaVuSans-30" d="M 2034 4250 
Q 1547 4250 1301 3770 
Q 1056 3291 1056 2328 
Q 1056 1369 1301 889 
Q 1547 409 2034 409 
Q 2525 409 2770 889 
Q 3016 1369 3016 2328 
Q 3016 3291 2770 3770 
Q 2525 4250 2034 4250 
z
M 2034 4750 
Q 2819 4750 3233 4129 
Q 3647 3509 3647 2328 
Q 3647 1150 3233 529 
Q 2819 -91 2034 -91 
Q 1250 -91 836 529 
Q 422 1150 422 2328 
Q 422 3509 836 4129 
Q 1250 4750 2034 4750 
z
" transform="scale(0.015625)"/>
       </defs>
       <use xlink:href="#DejaVuSans-35"/>
       <use xlink:href="#DejaVuSans-30" x="63.623047"/>
      </g>
     </g>
    </g>
    <g id="xtick_3">
     <g id="line2d_3">
      <g>
       <use xlink:href="#m511dc27ae3" x="145.415801" y="307.584" style="stroke: #000000; stroke-width: 0.8"/>
      </g>
     </g>
     <g id="text_3">
      <!-- 100 -->
      <g transform="translate(135.872051 322.182437) scale(0.1 -0.1)">
       <use xlink:href="#DejaVuSans-31"/>
       <use xlink:href="#DejaVuSans-30" x="63.623047"/>
       <use xlink:href="#DejaVuSans-30" x="127.246094"/>
      </g>
     </g>
    </g>
    <g id="xtick_4">
     <g id="line2d_4">
      <g>
       <use xlink:href="#m511dc27ae3" x="181.568868" y="307.584" style="stroke: #000000; stroke-width: 0.8"/>
      </g>
     </g>
     <g id="text_4">
      <!-- 150 -->
      <g transform="translate(172.025118 322.182437) scale(0.1 -0.1)">
       <use xlink:href="#DejaVuSans-31"/>
       <use xlink:href="#DejaVuSans-35" x="63.623047"/>
       <use xlink:href="#DejaVuSans-30" x="127.246094"/>
      </g>
     </g>
    </g>
    <g id="xtick_5">
     <g id="line2d_5">
      <g>
       <use xlink:href="#m511dc27ae3" x="217.721936" y="307.584" style="stroke: #000000; stroke-width: 0.8"/>
      </g>
     </g>
     <g id="text_5">
      <!-- 200 -->
      <g transform="translate(208.178186 322.182437) scale(0.1 -0.1)">
       <defs>
        <path id="DejaVuSans-32" d="M 1228 531 
L 3431 531 
L 3431 0 
L 469 0 
L 469 531 
Q 828 903 1448 1529 
Q 2069 2156 2228 2338 
Q 2531 2678 2651 2914 
Q 2772 3150 2772 3378 
Q 2772 3750 2511 3984 
Q 2250 4219 1831 4219 
Q 1534 4219 1204 4116 
Q 875 4013 500 3803 
L 500 4441 
Q 881 4594 1212 4672 
Q 1544 4750 1819 4750 
Q 2544 4750 2975 4387 
Q 3406 4025 3406 3419 
Q 3406 3131 3298 2873 
Q 3191 2616 2906 2266 
Q 2828 2175 2409 1742 
Q 1991 1309 1228 531 
z
" transform="scale(0.015625)"/>
       </defs>
       <use xlink:href="#DejaVuSans-32"/>
       <use xlink:href="#DejaVuSans-30" x="63.623047"/>
       <use xlink:href="#DejaVuSans-30" x="127.246094"/>
      </g>
     </g>
    </g>
    <g id="xtick_6">
     <g id="line2d_6">
      <g>
       <use xlink:href="#m511dc27ae3" x="253.875003" y="307.584" style="stroke: #000000; stroke-width: 0.8"/>
      </g>
     </g>
     <g id="text_6">
      <!-- 250 -->
      <g transform="translate(244.331253 322.182437) scale(0.1 -0.1)">
       <use xlink:href="#DejaVuSans-32"/>
       <use xlink:href="#DejaVuSans-35" x="63.623047"/>
       <use xlink:href="#DejaVuSans-30" x="127.246094"/>
      </g>
     </g>
    </g>
    <g id="xtick_7">
     <g id="line2d_7">
      <g>
       <use xlink:href="#m511dc27ae3" x="290.02807" y="307.584" style="stroke: #000000; stroke-width: 0.8"/>
      </g>
     </g>
     <g id="text_7">
      <!-- 300 -->
      <g transform="translate(280.48432 322.182437) scale(0.1 -0.1)">
       <defs>
        <path id="DejaVuSans-33" d="M 2597 2516 
Q 3050 2419 3304 2112 
Q 3559 1806 3559 1356 
Q 3559 666 3084 287 
Q 2609 -91 1734 -91 
Q 1441 -91 1130 -33 
Q 819 25 488 141 
L 488 750 
Q 750 597 1062 519 
Q 1375 441 1716 441 
Q 2309 441 2620 675 
Q 2931 909 2931 1356 
Q 2931 1769 2642 2001 
Q 2353 2234 1838 2234 
L 1294 2234 
L 1294 2753 
L 1863 2753 
Q 2328 2753 2575 2939 
Q 2822 3125 2822 3475 
Q 2822 3834 2567 4026 
Q 2313 4219 1838 4219 
Q 1578 4219 1281 4162 
Q 984 4106 628 3988 
L 628 4550 
Q 988 4650 1302 4700 
Q 1616 4750 1894 4750 
Q 2613 4750 3031 4423 
Q 3450 4097 3450 3541 
Q 3450 3153 3228 2886 
Q 3006 2619 2597 2516 
z
" transform="scale(0.015625)"/>
       </defs>
       <use xlink:href="#DejaVuSans-33"/>
       <use xlink:href="#DejaVuSans-30" x="63.623047"/>
       <use xlink:href="#DejaVuSans-30" x="127.246094"/>
      </g>
     </g>
    </g>
    <g id="xtick_8">
     <g id="line2d_8">
      <g>
       <use xlink:href="#m511dc27ae3" x="326.181138" y="307.584" style="stroke: #000000; stroke-width: 0.8"/>
      </g>
     </g>
     <g id="text_8">
      <!-- 350 -->
      <g transform="translate(316.637388 322.182437) scale(0.1 -0.1)">
       <use xlink:href="#DejaVuSans-33"/>
       <use xlink:href="#DejaVuSans-35" x="63.623047"/>
       <use xlink:href="#DejaVuSans-30" x="127.246094"/>
      </g>
     </g>
    </g>
    <g id="xtick_9">
     <g id="line2d_9">
      <g>
       <use xlink:href="#m511dc27ae3" x="362.334205" y="307.584" style="stroke: #000000; stroke-width: 0.8"/>
      </g>
     </g>
     <g id="text_9">
      <!-- 400 -->
      <g transform="translate(352.790455 322.182437) scale(0.1 -0.1)">
       <defs>
        <path id="DejaVuSans-34" d="M 2419 4116 
L 825 1625 
L 2419 1625 
L 2419 4116 
z
M 2253 4666 
L 3047 4666 
L 3047 1625 
L 3713 1625 
L 3713 1100 
L 3047 1100 
L 3047 0 
L 2419 0 
L 2419 1100 
L 313 1100 
L 313 1709 
L 2253 4666 
z
" transform="scale(0.015625)"/>
       </defs>
       <use xlink:href="#DejaVuSans-34"/>
       <use xlink:href="#DejaVuSans-30" x="63.623047"/>
       <use xlink:href="#DejaVuSans-30" x="127.246094"/>
      </g>
     </g>
    </g>
    <g id="xtick_10">
     <g id="line2d_10">
      <g>
       <use xlink:href="#m511dc27ae3" x="398.487273" y="307.584" style="stroke: #000000; stroke-width: 0.8"/>
      </g>
     </g>
     <g id="text_10">
      <!-- 450 -->
      <g transform="translate(388.943523 322.182437) scale(0.1 -0.1)">
       <use xlink:href="#DejaVuSans-34"/>
       <use xlink:href="#DejaVuSans-35" x="63.623047"/>
       <use xlink:href="#DejaVuSans-30" x="127.246094"/>
      </g>
     </g>
    </g>
    <g id="text_11">
     <!-- Epochs -->
     <g transform="translate(218.244375 335.860562) scale(0.1 -0.1)">
      <defs>
       <path id="DejaVuSans-45" d="M 628 4666 
L 3578 4666 
L 3578 4134 
L 1259 4134 
L 1259 2753 
L 3481 2753 
L 3481 2222 
L 1259 2222 
L 1259 531 
L 3634 531 
L 3634 0 
L 628 0 
L 628 4666 
z
" transform="scale(0.015625)"/>
       <path id="DejaVuSans-70" d="M 1159 525 
L 1159 -1331 
L 581 -1331 
L 581 3500 
L 1159 3500 
L 1159 2969 
Q 1341 3281 1617 3432 
Q 1894 3584 2278 3584 
Q 2916 3584 3314 3078 
Q 3713 2572 3713 1747 
Q 3713 922 3314 415 
Q 2916 -91 2278 -91 
Q 1894 -91 1617 61 
Q 1341 213 1159 525 
z
M 3116 1747 
Q 3116 2381 2855 2742 
Q 2594 3103 2138 3103 
Q 1681 3103 1420 2742 
Q 1159 2381 1159 1747 
Q 1159 1113 1420 752 
Q 1681 391 2138 391 
Q 2594 391 2855 752 
Q 3116 1113 3116 1747 
z
" transform="scale(0.015625)"/>
       <path id="DejaVuSans-6f" d="M 1959 3097 
Q 1497 3097 1228 2736 
Q 959 2375 959 1747 
Q 959 1119 1226 758 
Q 1494 397 1959 397 
Q 2419 397 2687 759 
Q 2956 1122 2956 1747 
Q 2956 2369 2687 2733 
Q 2419 3097 1959 3097 
z
M 1959 3584 
Q 2709 3584 3137 3096 
Q 3566 2609 3566 1747 
Q 3566 888 3137 398 
Q 2709 -91 1959 -91 
Q 1206 -91 779 398 
Q 353 888 353 1747 
Q 353 2609 779 3096 
Q 1206 3584 1959 3584 
z
" transform="scale(0.015625)"/>
       <path id="DejaVuSans-63" d="M 3122 3366 
L 3122 2828 
Q 2878 2963 2633 3030 
Q 2388 3097 2138 3097 
Q 1578 3097 1268 2742 
Q 959 2388 959 1747 
Q 959 1106 1268 751 
Q 1578 397 2138 397 
Q 2388 397 2633 464 
Q 2878 531 3122 666 
L 3122 134 
Q 2881 22 2623 -34 
Q 2366 -91 2075 -91 
Q 1284 -91 818 406 
Q 353 903 353 1747 
Q 353 2603 823 3093 
Q 1294 3584 2113 3584 
Q 2378 3584 2631 3529 
Q 2884 3475 3122 3366 
z
" transform="scale(0.015625)"/>
       <path id="DejaVuSans-68" d="M 3513 2113 
L 3513 0 
L 2938 0 
L 2938 2094 
Q 2938 2591 2744 2837 
Q 2550 3084 2163 3084 
Q 1697 3084 1428 2787 
Q 1159 2491 1159 1978 
L 1159 0 
L 581 0 
L 581 4863 
L 1159 4863 
L 1159 2956 
Q 1366 3272 1645 3428 
Q 1925 3584 2291 3584 
Q 2894 3584 3203 3211 
Q 3513 2838 3513 2113 
z
" transform="scale(0.015625)"/>
       <path id="DejaVuSans-73" d="M 2834 3397 
L 2834 2853 
Q 2591 2978 2328 3040 
Q 2066 3103 1784 3103 
Q 1356 3103 1142 2972 
Q 928 2841 928 2578 
Q 928 2378 1081 2264 
Q 1234 2150 1697 2047 
L 1894 2003 
Q 2506 1872 2764 1633 
Q 3022 1394 3022 966 
Q 3022 478 2636 193 
Q 2250 -91 1575 -91 
Q 1294 -91 989 -36 
Q 684 19 347 128 
L 347 722 
Q 666 556 975 473 
Q 1284 391 1588 391 
Q 1994 391 2212 530 
Q 2431 669 2431 922 
Q 2431 1156 2273 1281 
Q 2116 1406 1581 1522 
L 1381 1569 
Q 847 1681 609 1914 
Q 372 2147 372 2553 
Q 372 3047 722 3315 
Q 1072 3584 1716 3584 
Q 2034 3584 2315 3537 
Q 2597 3491 2834 3397 
z
" transform="scale(0.015625)"/>
      </defs>
      <use xlink:href="#DejaVuSans-45"/>
      <use xlink:href="#DejaVuSans-70" x="63.183594"/>
      <use xlink:href="#DejaVuSans-6f" x="126.660156"/>
      <use xlink:href="#DejaVuSans-63" x="187.841797"/>
      <use xlink:href="#DejaVuSans-68" x="242.822266"/>
      <use xlink:href="#DejaVuSans-73" x="306.201172"/>
     </g>
    </g>
   </g>
   <g id="matplotlib.axis_2">
    <g id="ytick_1">
     <g id="line2d_11">
      <defs>
       <path id="m8de9583082" d="M 0 0 
L -3.5 0 
" style="stroke: #000000; stroke-width: 0.8"/>
      </defs>
      <g>
       <use xlink:href="#m8de9583082" x="57.6" y="284.167852" style="stroke: #000000; stroke-width: 0.8"/>
      </g>
     </g>
     <g id="text_12">
      <!-- 10 -->
      <g transform="translate(37.875 287.96707) scale(0.1 -0.1)">
       <use xlink:href="#DejaVuSans-31"/>
       <use xlink:href="#DejaVuSans-30" x="63.623047"/>
      </g>
     </g>
    </g>
    <g id="ytick_2">
     <g id="line2d_12">
      <g>
       <use xlink:href="#m8de9583082" x="57.6" y="254.061074" style="stroke: #000000; stroke-width: 0.8"/>
      </g>
     </g>
     <g id="text_13">
      <!-- 20 -->
      <g transform="translate(37.875 257.860293) scale(0.1 -0.1)">
       <use xlink:href="#DejaVuSans-32"/>
       <use xlink:href="#DejaVuSans-30" x="63.623047"/>
      </g>
     </g>
    </g>
    <g id="ytick_3">
     <g id="line2d_13">
      <g>
       <use xlink:href="#m8de9583082" x="57.6" y="223.954297" style="stroke: #000000; stroke-width: 0.8"/>
      </g>
     </g>
     <g id="text_14">
      <!-- 30 -->
      <g transform="translate(37.875 227.753515) scale(0.1 -0.1)">
       <use xlink:href="#DejaVuSans-33"/>
       <use xlink:href="#DejaVuSans-30" x="63.623047"/>
      </g>
     </g>
    </g>
    <g id="ytick_4">
     <g id="line2d_14">
      <g>
       <use xlink:href="#m8de9583082" x="57.6" y="193.847519" style="stroke: #000000; stroke-width: 0.8"/>
      </g>
     </g>
     <g id="text_15">
      <!-- 40 -->
      <g transform="translate(37.875 197.646738) scale(0.1 -0.1)">
       <use xlink:href="#DejaVuSans-34"/>
       <use xlink:href="#DejaVuSans-30" x="63.623047"/>
      </g>
     </g>
    </g>
    <g id="ytick_5">
     <g id="line2d_15">
      <g>
       <use xlink:href="#m8de9583082" x="57.6" y="163.740742" style="stroke: #000000; stroke-width: 0.8"/>
      </g>
     </g>
     <g id="text_16">
      <!-- 50 -->
      <g transform="translate(37.875 167.53996) scale(0.1 -0.1)">
       <use xlink:href="#DejaVuSans-35"/>
       <use xlink:href="#DejaVuSans-30" x="63.623047"/>
      </g>
     </g>
    </g>
    <g id="ytick_6">
     <g id="line2d_16">
      <g>
       <use xlink:href="#m8de9583082" x="57.6" y="133.633964" style="stroke: #000000; stroke-width: 0.8"/>
      </g>
     </g>
     <g id="text_17">
      <!-- 60 -->
      <g transform="translate(37.875 137.433183) scale(0.1 -0.1)">
       <defs>
        <path id="DejaVuSans-36" d="M 2113 2584 
Q 1688 2584 1439 2293 
Q 1191 2003 1191 1497 
Q 1191 994 1439 701 
Q 1688 409 2113 409 
Q 2538 409 2786 701 
Q 3034 994 3034 1497 
Q 3034 2003 2786 2293 
Q 2538 2584 2113 2584 
z
M 3366 4563 
L 3366 3988 
Q 3128 4100 2886 4159 
Q 2644 4219 2406 4219 
Q 1781 4219 1451 3797 
Q 1122 3375 1075 2522 
Q 1259 2794 1537 2939 
Q 1816 3084 2150 3084 
Q 2853 3084 3261 2657 
Q 3669 2231 3669 1497 
Q 3669 778 3244 343 
Q 2819 -91 2113 -91 
Q 1303 -91 875 529 
Q 447 1150 447 2328 
Q 447 3434 972 4092 
Q 1497 4750 2381 4750 
Q 2619 4750 2861 4703 
Q 3103 4656 3366 4563 
z
" transform="scale(0.015625)"/>
       </defs>
       <use xlink:href="#DejaVuSans-36"/>
       <use xlink:href="#DejaVuSans-30" x="63.623047"/>
      </g>
     </g>
    </g>
    <g id="ytick_7">
     <g id="line2d_17">
      <g>
       <use xlink:href="#m8de9583082" x="57.6" y="103.527187" style="stroke: #000000; stroke-width: 0.8"/>
      </g>
     </g>
     <g id="text_18">
      <!-- 70 -->
      <g transform="translate(37.875 107.326405) scale(0.1 -0.1)">
       <defs>
        <path id="DejaVuSans-37" d="M 525 4666 
L 3525 4666 
L 3525 4397 
L 1831 0 
L 1172 0 
L 2766 4134 
L 525 4134 
L 525 4666 
z
" transform="scale(0.015625)"/>
       </defs>
       <use xlink:href="#DejaVuSans-37"/>
       <use xlink:href="#DejaVuSans-30" x="63.623047"/>
      </g>
     </g>
    </g>
    <g id="ytick_8">
     <g id="line2d_18">
      <g>
       <use xlink:href="#m8de9583082" x="57.6" y="73.420409" style="stroke: #000000; stroke-width: 0.8"/>
      </g>
     </g>
     <g id="text_19">
      <!-- 80 -->
      <g transform="translate(37.875 77.219628) scale(0.1 -0.1)">
       <defs>
        <path id="DejaVuSans-38" d="M 2034 2216 
Q 1584 2216 1326 1975 
Q 1069 1734 1069 1313 
Q 1069 891 1326 650 
Q 1584 409 2034 409 
Q 2484 409 2743 651 
Q 3003 894 3003 1313 
Q 3003 1734 2745 1975 
Q 2488 2216 2034 2216 
z
M 1403 2484 
Q 997 2584 770 2862 
Q 544 3141 544 3541 
Q 544 4100 942 4425 
Q 1341 4750 2034 4750 
Q 2731 4750 3128 4425 
Q 3525 4100 3525 3541 
Q 3525 3141 3298 2862 
Q 3072 2584 2669 2484 
Q 3125 2378 3379 2068 
Q 3634 1759 3634 1313 
Q 3634 634 3220 271 
Q 2806 -91 2034 -91 
Q 1263 -91 848 271 
Q 434 634 434 1313 
Q 434 1759 690 2068 
Q 947 2378 1403 2484 
z
M 1172 3481 
Q 1172 3119 1398 2916 
Q 1625 2713 2034 2713 
Q 2441 2713 2670 2916 
Q 2900 3119 2900 3481 
Q 2900 3844 2670 4047 
Q 2441 4250 2034 4250 
Q 1625 4250 1398 4047 
Q 1172 3844 1172 3481 
z
" transform="scale(0.015625)"/>
       </defs>
       <use xlink:href="#DejaVuSans-38"/>
       <use xlink:href="#DejaVuSans-30" x="63.623047"/>
      </g>
     </g>
    </g>
    <g id="ytick_9">
     <g id="line2d_19">
      <g>
       <use xlink:href="#m8de9583082" x="57.6" y="43.313632" style="stroke: #000000; stroke-width: 0.8"/>
      </g>
     </g>
     <g id="text_20">
      <!-- 90 -->
      <g transform="translate(37.875 47.11285) scale(0.1 -0.1)">
       <defs>
        <path id="DejaVuSans-39" d="M 703 97 
L 703 672 
Q 941 559 1184 500 
Q 1428 441 1663 441 
Q 2288 441 2617 861 
Q 2947 1281 2994 2138 
Q 2813 1869 2534 1725 
Q 2256 1581 1919 1581 
Q 1219 1581 811 2004 
Q 403 2428 403 3163 
Q 403 3881 828 4315 
Q 1253 4750 1959 4750 
Q 2769 4750 3195 4129 
Q 3622 3509 3622 2328 
Q 3622 1225 3098 567 
Q 2575 -91 1691 -91 
Q 1453 -91 1209 -44 
Q 966 3 703 97 
z
M 1959 2075 
Q 2384 2075 2632 2365 
Q 2881 2656 2881 3163 
Q 2881 3666 2632 3958 
Q 2384 4250 1959 4250 
Q 1534 4250 1286 3958 
Q 1038 3666 1038 3163 
Q 1038 2656 1286 2365 
Q 1534 2075 1959 2075 
z
" transform="scale(0.015625)"/>
       </defs>
       <use xlink:href="#DejaVuSans-39"/>
       <use xlink:href="#DejaVuSans-30" x="63.623047"/>
      </g>
     </g>
    </g>
    <g id="text_21">
     <!-- Accuracy -->
     <g transform="translate(31.795312 197.356125) rotate(-90) scale(0.1 -0.1)">
      <defs>
       <path id="DejaVuSans-41" d="M 2188 4044 
L 1331 1722 
L 3047 1722 
L 2188 4044 
z
M 1831 4666 
L 2547 4666 
L 4325 0 
L 3669 0 
L 3244 1197 
L 1141 1197 
L 716 0 
L 50 0 
L 1831 4666 
z
" transform="scale(0.015625)"/>
       <path id="DejaVuSans-75" d="M 544 1381 
L 544 3500 
L 1119 3500 
L 1119 1403 
Q 1119 906 1312 657 
Q 1506 409 1894 409 
Q 2359 409 2629 706 
Q 2900 1003 2900 1516 
L 2900 3500 
L 3475 3500 
L 3475 0 
L 2900 0 
L 2900 538 
Q 2691 219 2414 64 
Q 2138 -91 1772 -91 
Q 1169 -91 856 284 
Q 544 659 544 1381 
z
M 1991 3584 
L 1991 3584 
z
" transform="scale(0.015625)"/>
       <path id="DejaVuSans-72" d="M 2631 2963 
Q 2534 3019 2420 3045 
Q 2306 3072 2169 3072 
Q 1681 3072 1420 2755 
Q 1159 2438 1159 1844 
L 1159 0 
L 581 0 
L 581 3500 
L 1159 3500 
L 1159 2956 
Q 1341 3275 1631 3429 
Q 1922 3584 2338 3584 
Q 2397 3584 2469 3576 
Q 2541 3569 2628 3553 
L 2631 2963 
z
" transform="scale(0.015625)"/>
       <path id="DejaVuSans-61" d="M 2194 1759 
Q 1497 1759 1228 1600 
Q 959 1441 959 1056 
Q 959 750 1161 570 
Q 1363 391 1709 391 
Q 2188 391 2477 730 
Q 2766 1069 2766 1631 
L 2766 1759 
L 2194 1759 
z
M 3341 1997 
L 3341 0 
L 2766 0 
L 2766 531 
Q 2569 213 2275 61 
Q 1981 -91 1556 -91 
Q 1019 -91 701 211 
Q 384 513 384 1019 
Q 384 1609 779 1909 
Q 1175 2209 1959 2209 
L 2766 2209 
L 2766 2266 
Q 2766 2663 2505 2880 
Q 2244 3097 1772 3097 
Q 1472 3097 1187 3025 
Q 903 2953 641 2809 
L 641 3341 
Q 956 3463 1253 3523 
Q 1550 3584 1831 3584 
Q 2591 3584 2966 3190 
Q 3341 2797 3341 1997 
z
" transform="scale(0.015625)"/>
       <path id="DejaVuSans-79" d="M 2059 -325 
Q 1816 -950 1584 -1140 
Q 1353 -1331 966 -1331 
L 506 -1331 
L 506 -850 
L 844 -850 
Q 1081 -850 1212 -737 
Q 1344 -625 1503 -206 
L 1606 56 
L 191 3500 
L 800 3500 
L 1894 763 
L 2988 3500 
L 3597 3500 
L 2059 -325 
z
" transform="scale(0.015625)"/>
      </defs>
      <use xlink:href="#DejaVuSans-41"/>
      <use xlink:href="#DejaVuSans-63" x="66.658203"/>
      <use xlink:href="#DejaVuSans-63" x="121.638672"/>
      <use xlink:href="#DejaVuSans-75" x="176.619141"/>
      <use xlink:href="#DejaVuSans-72" x="239.998047"/>
      <use xlink:href="#DejaVuSans-61" x="281.111328"/>
      <use xlink:href="#DejaVuSans-63" x="342.390625"/>
      <use xlink:href="#DejaVuSans-79" x="397.371094"/>
     </g>
    </g>
   </g>
   <g id="line2d_20">
    <path d="M 73.832727 295.488 
L 76.001911 248.906794 
L 77.448034 224.484176 
L 78.171095 214.850007 
L 79.617218 200.266284 
L 80.340279 193.064743 
L 81.063341 188.903986 
L 81.786402 183.135528 
L 82.509463 178.74596 
L 83.232525 173.254483 
L 83.955586 170.039079 
L 86.847832 154.251085 
L 91.1862 137.975361 
L 91.909261 136.933667 
L 93.355384 133.314832 
L 94.801506 133.65805 
L 95.524568 162.632812 
L 96.247629 163.927404 
L 96.97069 161.494776 
L 97.693752 158.44797 
L 98.416813 156.611457 
L 99.139874 155.082032 
L 99.862936 151.74018 
L 100.585997 150.734614 
L 101.309059 147.850384 
L 102.03212 146.308917 
L 102.755181 143.322325 
L 103.478243 142.635891 
L 104.201304 139.625213 
L 104.924365 137.565909 
L 105.647427 138.36675 
L 106.370488 134.248142 
L 107.093549 133.796541 
L 107.816611 130.707585 
L 109.262733 128.371299 
L 109.985795 126.378231 
L 110.708856 125.625561 
L 111.431917 123.072507 
L 112.154979 121.338356 
L 112.87804 120.134085 
L 115.047224 115.13636 
L 115.770285 114.564331 
L 116.493347 112.788031 
L 117.216408 110.536044 
L 117.93947 109.632841 
L 118.662531 108.476741 
L 119.385592 106.333138 
L 120.108654 105.261337 
L 120.831715 103.382674 
L 121.554776 102.557748 
L 122.277838 100.962089 
L 123.000899 99.035255 
L 124.447022 96.52435 
L 125.170083 96.554457 
L 125.893144 94.013445 
L 126.616206 92.285316 
L 127.339267 91.165344 
L 128.062328 90.328375 
L 128.78539 88.401542 
L 129.508451 88.010153 
L 130.231512 87.167164 
L 130.954574 87.901769 
L 131.677635 86.071277 
L 132.400696 84.854963 
L 133.123758 84.43949 
L 133.846819 83.325539 
L 134.569881 81.880414 
L 135.292942 83.572414 
L 136.016003 81.531175 
L 136.739065 82.253738 
L 137.462126 82.006862 
L 138.185187 81.573324 
L 138.908249 115.9372 
L 139.63131 118.598639 
L 140.354371 120.453217 
L 141.077433 120.176235 
L 141.800494 119.050241 
L 142.523555 119.182711 
L 143.246617 117.027066 
L 144.692739 116.15999 
L 145.415801 116.533314 
L 146.138862 114.365627 
L 146.861923 113.992302 
L 147.584985 113.80564 
L 149.031108 111.035817 
L 149.754169 110.150678 
L 150.47723 111.059902 
L 151.200292 109.078876 
L 151.923353 107.778264 
L 152.646414 107.989011 
L 153.369476 107.880627 
L 154.092537 107.188171 
L 154.815598 105.183059 
L 155.53866 105.875515 
L 156.261721 103.924596 
L 156.984782 102.900966 
L 158.430905 102.702261 
L 159.153966 101.847228 
L 159.877028 101.49799 
L 160.600089 99.757818 
L 161.32315 99.667498 
L 162.046212 98.800423 
L 162.769273 97.313148 
L 163.492334 96.957888 
L 164.215396 96.30156 
L 164.938457 94.946755 
L 165.661519 95.59104 
L 166.38458 95.518784 
L 167.107641 94.43494 
L 167.830703 92.833259 
L 168.553764 92.863366 
L 169.999887 91.309856 
L 170.722948 91.641031 
L 171.446009 90.165799 
L 172.169071 89.214425 
L 172.892132 89.100019 
L 173.615193 89.304745 
L 174.338255 87.811449 
L 175.061316 85.709996 
L 175.784377 85.95085 
L 176.507439 85.661825 
L 177.2305 85.589569 
L 177.953561 84.415404 
L 179.399684 82.657168 
L 180.122745 82.536741 
L 180.845807 82.253738 
L 181.568868 80.929039 
L 182.29193 80.363032 
L 183.014991 80.037879 
L 183.738052 79.345423 
L 184.461114 79.809067 
L 185.907236 76.683984 
L 186.630298 77.304183 
L 187.353359 75.756695 
L 188.07642 75.166602 
L 188.799482 75.184666 
L 189.522543 74.931769 
L 190.245604 73.697391 
L 190.968666 73.167512 
L 191.691727 72.360651 
L 192.414788 71.37917 
L 193.13785 71.252721 
L 193.860911 70.04845 
L 194.583972 70.987781 
L 195.307034 69.343951 
L 196.030095 69.325887 
L 196.753157 67.953018 
L 197.476218 67.814527 
L 198.199279 68.00721 
L 198.922341 66.802939 
L 199.645402 66.369402 
L 200.368463 65.098896 
L 201.091525 65.351793 
L 201.814586 64.623209 
L 202.537647 64.147522 
L 203.260709 63.527322 
L 203.98377 63.539365 
L 204.706831 62.353158 
L 205.429893 61.907577 
L 206.152954 62.774653 
L 206.876015 61.907577 
L 207.599077 60.450409 
L 208.322138 60.72137 
L 209.045199 60.72137 
L 209.768261 60.606965 
L 210.491322 59.908487 
L 211.214383 60.179448 
L 211.937445 59.402693 
L 212.660506 59.679676 
L 214.106629 57.620372 
L 214.82969 59.11969 
L 215.552752 58.077995 
L 216.275813 57.277155 
L 216.998874 57.313283 
L 217.721936 57.554137 
L 219.168058 56.891788 
L 219.89112 56.994151 
L 220.614181 57.632415 
L 221.337242 56.915874 
L 222.060304 56.825553 
L 222.783365 58.228529 
L 223.506426 56.452229 
L 224.229488 57.066408 
L 224.952549 56.566635 
L 225.67561 88.576161 
L 226.398672 95.512762 
L 227.121733 95.825873 
L 227.844794 97.403468 
L 228.567856 96.729076 
L 229.290917 97.361319 
L 230.013979 96.572521 
L 230.73704 97.1024 
L 231.460101 96.367795 
L 232.183163 95.801787 
L 232.906224 95.759638 
L 233.629285 94.844392 
L 234.352347 94.410854 
L 235.075408 94.651709 
L 235.798469 92.875409 
L 236.521531 93.712377 
L 237.244592 93.453459 
L 237.967653 93.983338 
L 238.690715 91.869842 
L 239.413776 93.080135 
L 240.136837 92.068547 
L 240.859899 91.388134 
L 241.58296 91.568775 
L 242.306021 91.924035 
L 243.029083 91.478454 
L 243.752144 90.454824 
L 244.475206 89.666026 
L 245.198267 89.539578 
L 245.921328 89.828603 
L 246.64439 89.991179 
L 247.367451 89.641941 
L 248.090512 88.732716 
L 248.813574 88.226922 
L 249.536635 88.612289 
L 250.259696 87.925854 
L 250.982758 88.443691 
L 251.705819 88.124559 
L 252.42888 87.943919 
L 253.151942 86.97448 
L 253.875003 86.420516 
L 254.598064 86.30611 
L 255.321126 85.800316 
L 256.044187 86.79384 
L 256.767248 85.01754 
L 257.49031 85.565483 
L 258.213371 84.957326 
L 258.936432 85.192159 
L 259.659494 85.661825 
L 260.382555 84.04208 
L 261.105617 84.590024 
L 261.828678 85.3728 
L 262.551739 84.319063 
L 263.274801 82.879959 
L 263.997862 83.488115 
L 264.720923 83.482094 
L 265.443985 83.066621 
L 266.890107 82.091161 
L 268.33623 81.37462 
L 269.059291 81.976755 
L 269.782353 80.224541 
L 270.505414 81.398705 
L 271.228475 80.53163 
L 271.951537 81.356556 
L 272.674598 81.10968 
L 274.120721 79.923473 
L 274.843782 80.320882 
L 275.566843 80.049921 
L 276.289905 80.055943 
L 277.012966 79.297252 
L 277.736028 79.592298 
L 278.459089 78.544583 
L 279.18215 78.484369 
L 279.905212 78.725223 
L 280.628273 78.002661 
L 281.351334 78.243515 
L 282.074396 77.394504 
L 282.797457 78.231472 
L 283.520518 78.207387 
L 284.24358 75.847015 
L 284.966641 76.17819 
L 285.689702 75.919272 
L 286.412764 76.130019 
L 287.135825 74.498232 
L 287.858886 75.678417 
L 289.305009 75.533905 
L 290.02807 75.24488 
L 290.751132 73.932224 
L 291.474193 74.100822 
L 292.197255 73.998459 
L 292.920316 74.419954 
L 293.643377 74.299527 
L 294.366439 72.824295 
L 295.0895 73.510729 
L 295.812561 72.372693 
L 296.535623 71.993348 
L 297.258684 72.709889 
L 297.981745 72.282373 
L 298.704807 72.396779 
L 299.427868 71.812707 
L 300.150929 71.607981 
L 300.873991 70.31339 
L 301.597052 69.988236 
L 302.320113 71.589917 
L 303.043175 68.621389 
L 303.766236 69.940066 
L 304.489297 70.066514 
L 305.212359 69.524592 
L 305.93542 69.24761 
L 306.658481 69.163311 
L 307.381543 69.343951 
L 308.104604 69.109119 
L 308.827666 67.706143 
L 309.550727 68.248065 
L 310.273788 68.157744 
L 310.99685 67.242498 
L 311.719911 68.04936 
L 312.442972 67.128093 
L 313.166034 67.537545 
L 313.889095 66.254996 
L 314.612156 66.814982 
L 316.058279 66.550042 
L 316.78134 66.05027 
L 317.504402 65.845544 
L 318.227463 64.797828 
L 318.950524 64.888148 
L 319.673586 64.67138 
L 320.396647 65.032661 
L 321.84277 64.599123 
L 322.565831 63.713984 
L 323.288892 63.364745 
L 324.011954 62.323051 
L 324.735015 62.642183 
L 325.458077 62.587991 
L 326.181138 62.846909 
L 326.904199 62.551862 
L 327.627261 62.696375 
L 328.350322 62.154453 
L 329.796445 61.763065 
L 330.519506 61.166951 
L 331.242567 61.11878 
L 331.965629 60.938139 
L 332.68869 59.836231 
L 334.134813 59.613441 
L 334.857874 59.860316 
L 335.580935 59.071519 
L 336.303997 59.438822 
L 337.027058 58.812601 
L 337.750119 57.83112 
L 338.473181 58.336914 
L 339.196242 57.939504 
L 339.919304 56.777382 
L 340.642365 57.794992 
L 341.365426 57.313283 
L 342.088488 57.638436 
L 342.811549 56.572656 
L 343.53461 56.915874 
L 344.257672 57.036301 
L 344.980733 56.133097 
L 345.703794 55.43462 
L 346.426856 56.313738 
L 347.149917 56.404058 
L 347.872978 54.826463 
L 348.59604 54.754207 
L 349.319101 55.819987 
L 350.042162 54.27852 
L 350.765224 54.519374 
L 351.488285 54.435075 
L 352.211346 54.802378 
L 352.934408 54.952912 
L 353.657469 55.223873 
L 355.103592 53.640256 
L 355.826653 54.940869 
L 356.549715 54.230349 
L 357.272776 55.374407 
L 357.995837 54.808399 
L 358.718899 54.983019 
L 359.44196 54.579588 
L 360.165021 54.404968 
L 360.888083 54.850549 
L 361.611144 55.868158 
L 363.057267 54.091858 
L 363.780328 54.218306 
L 364.503389 55.061296 
L 365.226451 55.115488 
L 365.949512 54.50131 
L 366.672573 54.760228 
L 367.395635 54.880655 
L 368.118696 54.50131 
L 368.841757 54.296584 
L 369.564819 53.65832 
L 370.28788 54.681951 
L 371.010941 54.41099 
L 371.734003 54.525396 
L 372.457064 54.802378 
L 373.180126 54.073794 
L 373.903187 54.200242 
L 374.626248 54.140029 
L 375.34931 53.736598 
L 376.072371 55.037211 
L 376.795432 54.230349 
L 377.518494 54.037666 
L 378.241555 54.983019 
L 378.964616 54.85657 
L 379.687678 54.609695 
L 380.410739 55.073339 
L 381.1338 53.929281 
L 381.856862 54.272499 
L 382.579923 53.989495 
L 383.302984 54.772271 
L 384.026046 54.302605 
L 385.472168 54.374862 
L 386.19523 54.097879 
L 386.918291 54.718079 
L 387.641353 54.091858 
L 389.087475 54.760228 
L 389.810537 54.417011 
L 390.533598 54.495289 
L 391.256659 54.772271 
L 391.979721 54.158093 
L 392.702782 54.693993 
L 393.425843 54.59163 
L 394.148905 54.7241 
L 394.871966 53.568 
L 395.595027 54.886677 
L 396.318089 54.134007 
L 397.04115 54.212285 
L 397.764211 55.30215 
L 398.487273 54.663887 
L 398.487273 54.663887 
" clip-path="url(#p9e5ea0959f)" style="fill: none; stroke: #1f77b4; stroke-width: 1.5; stroke-linecap: square"/>
   </g>
   <g id="line2d_21">
    <path d="M 73.832727 281.217387 
L 75.27885 247.678437 
L 76.001911 220.070522 
L 76.724973 212.032013 
L 77.448034 200.079622 
L 78.171095 200.29037 
L 78.894157 179.155412 
L 79.617218 169.159962 
L 80.340279 167.835263 
L 81.063341 160.760171 
L 81.786402 149.500236 
L 82.509463 146.790626 
L 83.232525 140.58863 
L 83.955586 136.433894 
L 84.678647 134.175886 
L 85.401709 132.911401 
L 86.12477 123.307339 
L 86.847832 121.079438 
L 87.570893 121.892321 
L 88.293954 119.00207 
L 89.017016 115.058082 
L 89.740077 114.546267 
L 91.1862 110.391532 
L 91.909261 109.337795 
L 93.355384 107.591602 
L 94.078445 107.441068 
L 94.801506 107.410961 
L 95.524568 139.775747 
L 96.247629 136.704855 
L 96.97069 142.244502 
L 97.693752 130.412539 
L 98.416813 129.689976 
L 99.139874 127.191114 
L 99.862936 123.247126 
L 100.585997 114.937655 
L 101.309059 118.038653 
L 102.03212 118.791323 
L 102.755181 114.847335 
L 103.478243 114.455947 
L 104.924365 109.548542 
L 105.647427 108.253951 
L 106.370488 108.344271 
L 107.093549 104.791671 
L 107.816611 104.370176 
L 108.539672 103.406759 
L 109.262733 106.838932 
L 109.985795 104.249749 
L 110.708856 101.178858 
L 111.431917 98.92085 
L 112.87804 100.396082 
L 113.601101 97.746685 
L 114.324163 97.867112 
L 115.047224 93.531736 
L 115.770285 95.488677 
L 117.216408 92.026398 
L 117.93947 91.183408 
L 118.662531 93.381203 
L 119.385592 90.129671 
L 120.108654 89.377001 
L 120.831715 90.189884 
L 121.554776 88.835079 
L 122.277838 89.226467 
L 123.000899 88.985613 
L 123.72396 88.052303 
L 124.447022 86.787818 
L 125.170083 84.048102 
L 125.893144 85.162052 
L 126.616206 83.867461 
L 127.339267 83.626607 
L 128.062328 83.867461 
L 128.78539 82.332015 
L 129.508451 81.278278 
L 130.231512 82.181481 
L 130.954574 81.007317 
L 131.677635 81.037424 
L 132.400696 80.465395 
L 133.123758 81.037424 
L 133.846819 79.772939 
L 135.292942 80.435288 
L 136.016003 80.585822 
L 136.739065 79.95358 
L 137.462126 80.344968 
L 138.185187 80.284754 
L 138.908249 100.426189 
L 139.63131 101.991741 
L 140.354371 106.026049 
L 141.077433 101.510033 
L 141.800494 102.684197 
L 142.523555 99.553092 
L 143.246617 98.649889 
L 143.969678 99.071384 
L 144.692739 97.505831 
L 145.415801 96.331667 
L 146.138862 98.017646 
L 146.861923 95.037075 
L 148.308046 97.264977 
L 149.031108 94.013445 
L 149.754169 93.230669 
L 150.47723 95.729531 
L 151.200292 96.452094 
L 152.646414 93.411309 
L 153.369476 96.241346 
L 154.092537 95.819852 
L 154.815598 96.241346 
L 155.53866 97.23487 
L 156.261721 96.331667 
L 156.984782 94.194086 
L 157.707844 94.796221 
L 158.430905 90.460845 
L 159.153966 94.133872 
L 159.877028 92.779067 
L 160.600089 88.26305 
L 161.32315 89.557642 
L 162.046212 89.557642 
L 162.769273 93.471523 
L 163.492334 90.731806 
L 164.215396 88.654439 
L 165.661519 86.848032 
L 166.38458 89.437215 
L 167.107641 89.407108 
L 167.830703 88.022196 
L 168.553764 87.359847 
L 169.276825 88.052303 
L 169.999887 91.213515 
L 170.722948 87.480274 
L 171.446009 86.968459 
L 172.169071 86.095362 
L 172.892132 84.258849 
L 173.615193 87.600701 
L 174.338255 86.727605 
L 175.061316 83.566393 
L 175.784377 86.245896 
L 176.507439 84.349169 
L 177.2305 84.921198 
L 177.953561 82.482549 
L 178.676623 85.46312 
L 179.399684 81.579346 
L 180.122745 85.3728 
L 180.845807 82.813724 
L 181.568868 82.091161 
L 182.29193 82.000841 
L 183.014991 84.43949 
L 183.738052 83.927674 
L 184.461114 81.699773 
L 185.184175 83.175005 
L 185.907236 82.84383 
L 186.630298 81.458919 
L 187.353359 80.555715 
L 188.07642 82.392229 
L 189.522543 80.88689 
L 190.245604 80.525609 
L 190.968666 79.291231 
L 191.691727 79.983687 
L 192.414788 78.08696 
L 193.860911 79.923473 
L 194.583972 77.936426 
L 195.307034 76.912795 
L 196.030095 78.568668 
L 196.753157 76.973009 
L 197.476218 77.213863 
L 198.199279 76.973009 
L 198.922341 75.798845 
L 199.645402 75.618204 
L 200.368463 75.889165 
L 201.091525 74.835428 
L 201.814586 74.805321 
L 202.537647 76.431087 
L 203.260709 75.347243 
L 203.98377 76.009592 
L 204.706831 74.203185 
L 205.429893 75.317136 
L 206.152954 74.925748 
L 206.876015 74.233292 
L 207.599077 74.775214 
L 208.322138 73.029021 
L 209.045199 72.998914 
L 209.768261 72.75806 
L 210.491322 72.938701 
L 211.214383 72.968807 
L 211.937445 71.82475 
L 212.660506 72.095711 
L 213.383568 73.119341 
L 214.106629 72.426885 
L 214.82969 72.155924 
L 215.552752 72.517206 
L 216.275813 72.125818 
L 216.998874 72.456992 
L 217.721936 72.276352 
L 218.444997 72.456992 
L 219.168058 72.396779 
L 219.89112 71.614002 
L 220.614181 71.764536 
L 221.337242 71.614002 
L 222.060304 71.82475 
L 222.783365 71.704323 
L 224.952549 71.945177 
L 225.67561 95.398357 
L 226.398672 100.847683 
L 227.121733 97.475724 
L 227.844794 101.118644 
L 228.567856 94.013445 
L 229.290917 99.282131 
L 230.013979 99.703626 
L 230.73704 93.893018 
L 231.460101 90.641486 
L 232.183163 95.488677 
L 232.906224 95.880065 
L 233.629285 93.953231 
L 235.075408 97.957433 
L 235.798469 93.230669 
L 236.521531 95.037075 
L 237.244592 93.080135 
L 237.967653 93.983338 
L 238.690715 95.789745 
L 239.413776 91.635009 
L 240.136837 101.058431 
L 240.859899 89.918923 
L 241.58296 92.899494 
L 242.306021 94.645687 
L 243.029083 89.467322 
L 243.752144 89.918923 
L 244.475206 96.632735 
L 245.198267 91.002767 
L 245.921328 89.497428 
L 246.64439 94.133872 
L 247.367451 95.006969 
L 248.090512 98.288607 
L 248.813574 91.845757 
L 249.536635 93.59195 
L 250.259696 91.454369 
L 250.982758 89.85871 
L 251.705819 89.346894 
L 252.42888 90.581272 
L 253.151942 93.050028 
L 253.875003 92.56832 
L 254.598064 91.785543 
L 255.321126 98.107967 
L 256.044187 89.316788 
L 256.767248 89.467322 
L 257.49031 87.570595 
L 258.213371 91.153301 
L 258.936432 92.417786 
L 259.659494 90.159777 
L 261.105617 89.136147 
L 261.828678 95.127396 
L 263.274801 90.310311 
L 263.997862 91.093087 
L 264.720923 95.729531 
L 265.443985 89.708176 
L 266.167046 92.086611 
L 266.890107 90.942554 
L 267.613169 90.460845 
L 268.33623 91.032874 
L 269.059291 90.942554 
L 269.782353 90.310311 
L 270.505414 86.667391 
L 271.228475 91.002767 
L 271.951537 89.166254 
L 272.674598 88.383478 
L 273.397659 91.303835 
L 274.120721 91.966184 
L 274.843782 93.170455 
L 275.566843 89.407108 
L 276.289905 89.045827 
L 277.012966 91.484476 
L 277.736028 89.467322 
L 278.459089 89.10604 
L 279.18215 91.90597 
L 279.905212 86.787818 
L 280.628273 90.189884 
L 281.351334 85.944829 
L 282.074396 90.430738 
L 282.797457 88.534011 
L 283.520518 87.841556 
L 284.24358 87.450167 
L 284.966641 88.383478 
L 285.689702 86.39643 
L 286.412764 86.998566 
L 287.135825 90.189884 
L 287.858886 88.022196 
L 288.581948 88.744759 
L 289.305009 87.299634 
L 290.02807 87.209313 
L 290.751132 87.570595 
L 291.474193 84.198635 
L 292.197255 84.951305 
L 292.920316 84.409383 
L 293.643377 88.443691 
L 294.366439 88.413584 
L 295.0895 84.228742 
L 295.812561 88.08241 
L 296.535623 85.914722 
L 297.258684 86.998566 
L 297.981745 85.824401 
L 298.704807 86.155576 
L 299.427868 83.536286 
L 300.150929 85.974935 
L 300.873991 83.716927 
L 301.597052 87.23942 
L 302.320113 84.860985 
L 303.043175 83.807247 
L 303.766236 90.189884 
L 304.489297 84.499703 
L 305.212359 83.68682 
L 305.93542 85.041625 
L 306.658481 85.162052 
L 307.381543 84.379276 
L 308.104604 85.613654 
L 308.827666 85.914722 
L 309.550727 86.757712 
L 310.273788 83.355646 
L 310.99685 84.52981 
L 311.719911 83.897568 
L 313.166034 81.519132 
L 313.889095 83.054578 
L 314.612156 81.609453 
L 316.058279 83.325539 
L 316.78134 82.602976 
L 317.504402 84.168529 
L 318.227463 82.030947 
L 318.950524 82.512656 
L 319.673586 81.308385 
L 320.396647 83.295432 
L 321.119708 82.783617 
L 321.84277 82.061054 
L 322.565831 80.224541 
L 323.288892 80.79657 
L 324.011954 78.478348 
L 324.735015 78.929949 
L 325.458077 80.88689 
L 326.181138 80.344968 
L 326.904199 78.929949 
L 327.627261 80.013793 
L 328.350322 78.478348 
L 329.073383 78.207387 
L 329.796445 80.375075 
L 330.519506 79.742832 
L 331.242567 78.779415 
L 331.965629 80.88689 
L 332.68869 78.929949 
L 333.411751 79.592298 
L 334.134813 77.575144 
L 334.857874 78.237493 
L 335.580935 76.702048 
L 336.303997 79.351444 
L 337.027058 77.665465 
L 337.750119 76.942902 
L 339.196242 78.568668 
L 339.919304 77.635358 
L 340.642365 78.056853 
L 341.365426 77.42461 
L 342.088488 79.471871 
L 342.811549 75.889165 
L 343.53461 78.026746 
L 344.980733 76.130019 
L 345.703794 76.942902 
L 346.426856 75.256923 
L 347.149917 77.274077 
L 347.872978 74.684894 
L 348.59604 76.551514 
L 349.319101 76.40098 
L 350.042162 73.992438 
L 350.765224 75.497777 
L 351.488285 75.076282 
L 352.211346 76.130019 
L 352.934408 74.323612 
L 353.657469 76.611728 
L 354.38053 75.016068 
L 355.103592 76.551514 
L 356.549715 77.846105 
L 357.272776 74.745107 
L 357.995837 77.123543 
L 358.718899 75.016068 
L 359.44196 78.17728 
L 360.165021 77.183756 
L 360.888083 75.738631 
L 361.611144 75.588097 
L 363.057267 75.768738 
L 363.780328 76.671941 
L 365.226451 75.588097 
L 366.672573 76.431087 
L 367.395635 75.618204 
L 368.118696 77.274077 
L 368.841757 77.484824 
L 369.564819 77.003116 
L 370.28788 74.564467 
L 371.010941 75.407456 
L 371.734003 77.785892 
L 372.457064 76.099912 
L 373.180126 75.708524 
L 373.903187 75.016068 
L 374.626248 76.792368 
L 375.34931 77.274077 
L 376.072371 77.24397 
L 376.795432 78.056853 
L 377.518494 75.949378 
L 378.241555 77.24397 
L 378.964616 74.745107 
L 379.687678 78.17728 
L 380.410739 75.859058 
L 381.1338 76.912795 
L 381.856862 75.979485 
L 382.579923 77.906319 
L 383.302984 76.250446 
L 384.026046 76.461194 
L 384.749107 77.364397 
L 385.472168 75.828951 
L 386.19523 77.815999 
L 386.918291 75.859058 
L 387.641353 77.364397 
L 388.364414 75.497777 
L 389.087475 76.671941 
L 389.810537 74.955855 
L 390.533598 74.835428 
L 391.256659 76.250446 
L 391.979721 76.702048 
L 392.702782 75.317136 
L 393.425843 75.55799 
L 394.148905 75.618204 
L 394.871966 76.099912 
L 395.595027 77.514931 
L 396.318089 76.130019 
L 397.04115 78.327814 
L 397.764211 77.123543 
L 398.487273 76.702048 
L 398.487273 76.702048 
" clip-path="url(#p9e5ea0959f)" style="fill: none; stroke: #ff7f0e; stroke-width: 1.5; stroke-linecap: square"/>
   </g>
   <g id="line2d_22">
    <path d="M 73.832727 284.250946 
L 74.555789 272.810329 
L 76.001911 227.743598 
L 77.448034 219.417517 
L 78.171095 211.143344 
L 78.894157 198.996816 
L 79.617218 197.927507 
L 80.340279 192.736683 
L 81.063341 192.165692 
L 81.786402 182.375799 
L 82.509463 175.20208 
L 83.232525 176.39597 
L 83.955586 171.506214 
L 84.678647 172.575524 
L 86.12477 165.028066 
L 86.847832 162.84792 
L 87.570893 159.463503 
L 88.293954 161.934335 
L 89.017016 154.345351 
L 89.740077 153.930085 
L 90.463138 155.092829 
L 91.909261 154.148099 
L 92.632322 151.583832 
L 93.355384 150.327653 
L 94.801506 150.535286 
L 95.524568 179.354739 
L 96.247629 177.081159 
L 96.97069 177.413371 
L 97.693752 161.14533 
L 98.416813 171.007895 
L 99.139874 161.114185 
L 99.862936 178.171232 
L 100.585997 161.695557 
L 101.309059 162.505326 
L 102.03212 162.079678 
L 102.755181 157.376792 
L 103.478243 155.933743 
L 104.201304 161.830518 
L 104.924365 159.702281 
L 105.647427 155.072066 
L 106.370488 158.425338 
L 107.093549 149.102619 
L 107.816611 155.643057 
L 108.539672 150.016204 
L 109.262733 156.587787 
L 109.985795 147.887966 
L 110.708856 151.262001 
L 111.431917 146.569497 
L 112.154979 148.334377 
L 112.87804 146.486444 
L 113.601101 144.285534 
L 114.324163 150.400325 
L 115.047224 141.274857 
L 115.770285 147.296212 
L 116.493347 142.780195 
L 117.216408 142.043099 
L 117.93947 138.471812 
L 118.662531 141.710886 
L 120.108654 135.544187 
L 120.831715 137.983874 
L 121.554776 137.734715 
L 122.277838 141.222948 
L 123.000899 141.918519 
L 123.72396 140.849209 
L 124.447022 136.437009 
L 125.170083 135.128921 
L 126.616206 135.523424 
L 127.339267 135.481897 
L 128.062328 135.990598 
L 128.78539 134.557931 
L 129.508451 132.232442 
L 130.231512 132.969539 
L 131.677635 129.751228 
L 132.400696 131.702978 
L 133.123758 131.52649 
L 133.846819 131.734123 
L 134.569881 131.775649 
L 136.016003 132.232442 
L 136.739065 132.15977 
L 138.185187 131.059316 
L 138.908249 150.410706 
L 140.354371 156.836946 
L 141.077433 152.611616 
L 141.800494 146.818656 
L 142.523555 146.413772 
L 143.246617 148.199415 
L 143.969678 148.220179 
L 144.692739 146.268429 
L 145.415801 152.455891 
L 146.138862 150.192692 
L 146.861923 150.753301 
L 147.584985 144.244008 
L 148.308046 147.846439 
L 149.031108 142.759432 
L 149.754169 142.541418 
L 150.47723 147.431174 
L 151.200292 142.396075 
L 151.923353 147.140487 
L 152.646414 142.93592 
L 153.369476 143.517292 
L 154.092537 145.033013 
L 154.815598 151.417726 
L 155.53866 142.645234 
L 156.261721 149.829334 
L 156.984782 143.029355 
L 157.707844 148.251324 
L 158.430905 143.371949 
L 159.153966 145.500187 
L 159.877028 140.278218 
L 160.600089 133.820834 
L 161.32315 138.980513 
L 162.046212 135.378081 
L 162.769273 146.143849 
L 163.492334 141.939282 
L 164.215396 140.880354 
L 164.938457 138.938986 
L 165.661519 134.942052 
L 166.38458 134.817472 
L 167.107641 136.717313 
L 167.830703 140.558523 
L 169.276825 139.271199 
L 169.999887 144.088283 
L 170.722948 138.700208 
L 171.446009 139.520358 
L 172.169071 132.97992 
L 172.892132 133.696254 
L 173.615193 141.202185 
L 174.338255 135.139303 
L 175.061316 133.914269 
L 175.784377 141.098369 
L 176.507439 134.225718 
L 177.2305 137.807386 
L 177.953561 135.315791 
L 178.676623 140.444325 
L 179.399684 132.429693 
L 180.122745 137.246777 
L 180.845807 136.810748 
L 181.568868 129.927716 
L 182.29193 131.993664 
L 183.014991 133.062974 
L 183.738052 132.263587 
L 184.461114 132.585418 
L 185.184175 131.848321 
L 185.907236 132.91763 
L 186.630298 130.3326 
L 187.353359 133.125263 
L 188.07642 132.045572 
L 188.799482 132.460838 
L 189.522543 129.429397 
L 190.245604 130.64405 
L 190.968666 130.789393 
L 191.691727 129.180237 
L 192.414788 128.256271 
L 193.13785 132.388166 
L 193.860911 129.014131 
L 194.583972 130.446798 
L 195.307034 125.089868 
L 196.030095 126.67826 
L 196.753157 125.930782 
L 197.476218 123.989414 
L 198.199279 124.103612 
L 198.922341 123.875216 
L 199.645402 121.653543 
L 200.368463 125.03796 
L 201.091525 121.819649 
L 201.814586 121.591253 
L 202.537647 123.532621 
L 203.260709 124.518878 
L 203.98377 124.145138 
L 204.706831 123.376896 
L 205.429893 123.885597 
L 206.152954 123.511858 
L 206.876015 120.200112 
L 207.599077 121.767741 
L 208.322138 122.691708 
L 209.768261 121.601635 
L 210.491322 121.684688 
L 211.214383 123.854452 
L 211.937445 123.45995 
L 212.660506 121.290185 
L 213.383568 121.591253 
L 214.106629 121.414765 
L 214.82969 121.996137 
L 215.552752 121.487437 
L 216.275813 121.954611 
L 216.998874 121.549727 
L 218.444997 122.037664 
L 219.168058 121.601635 
L 221.337242 121.705451 
L 222.060304 121.217514 
L 222.783365 121.404383 
L 223.506426 121.373239 
L 224.229488 121.196751 
L 224.952549 121.684688 
L 225.67561 143.403094 
L 226.398672 155.508095 
L 227.121733 146.818656 
L 227.844794 151.033605 
L 228.567856 143.091645 
L 229.290917 147.908729 
L 230.013979 146.797893 
L 230.73704 137.921584 
L 231.460101 138.938986 
L 232.183163 142.707524 
L 232.906224 147.971019 
L 233.629285 150.223837 
L 234.352347 150.068112 
L 235.798469 147.088579 
L 236.521531 139.333489 
L 237.244592 141.23333 
L 237.967653 147.233922 
L 238.690715 142.904775 
L 239.413776 141.087987 
L 240.136837 152.269021 
L 240.859899 140.797301 
L 241.58296 143.205843 
L 242.306021 146.756366 
L 243.029083 139.395778 
L 243.752144 137.433647 
L 244.475206 147.628425 
L 245.198267 144.337443 
L 245.921328 141.866611 
L 246.64439 145.780492 
L 247.367451 146.953618 
L 248.090512 144.846143 
L 248.813574 142.136533 
L 249.536635 145.167974 
L 250.259696 144.430877 
L 250.982758 142.385693 
L 251.705819 139.489213 
L 252.42888 142.458364 
L 253.151942 142.904775 
L 253.875003 140.392417 
L 255.321126 141.274857 
L 256.044187 136.706932 
L 256.767248 141.222948 
L 257.49031 137.547845 
L 258.213371 139.759136 
L 258.936432 138.720971 
L 259.659494 144.856525 
L 260.382555 142.292258 
L 261.105617 143.828742 
L 261.828678 143.330423 
L 262.551739 143.870268 
L 263.274801 138.669063 
L 263.997862 139.665701 
L 264.720923 150.088875 
L 265.443985 137.911203 
L 266.167046 145.136829 
L 266.890107 144.939578 
L 267.613169 140.444325 
L 268.33623 145.344462 
L 269.059291 142.717906 
L 269.782353 143.724925 
L 270.505414 143.704162 
L 271.228475 136.69655 
L 271.951537 140.932262 
L 272.674598 134.371061 
L 273.397659 143.340804 
L 274.120721 143.631491 
L 274.843782 140.672721 
L 275.566843 140.683103 
L 276.289905 140.392417 
L 277.012966 134.350298 
L 277.736028 138.502957 
L 278.459089 138.139599 
L 279.18215 143.870268 
L 279.905212 133.405568 
L 280.628273 143.974085 
L 281.351334 134.2361 
L 282.074396 141.451345 
L 282.797457 140.548141 
L 283.520518 143.018973 
L 284.24358 133.1045 
L 284.966641 134.454114 
L 285.689702 129.69932 
L 286.412764 135.855637 
L 287.135825 133.966177 
L 287.858886 134.153046 
L 288.581948 140.869972 
L 289.305009 138.845551 
L 290.02807 139.966769 
L 290.751132 135.81411 
L 291.474193 130.342982 
L 292.197255 134.069993 
L 292.920316 133.997322 
L 293.643377 139.686465 
L 295.0895 131.879466 
L 295.812561 139.613793 
L 296.535623 137.39212 
L 297.258684 132.543891 
L 297.981745 142.105388 
L 298.704807 132.180533 
L 299.427868 130.934736 
L 300.150929 137.464792 
L 300.873991 131.619925 
L 301.597052 136.437009 
L 302.320113 132.450456 
L 303.043175 125.017197 
L 303.766236 137.89044 
L 304.489297 132.336258 
L 305.212359 135.855637 
L 305.93542 132.066335 
L 306.658481 135.077013 
L 307.381543 132.388166 
L 308.104604 134.2361 
L 308.827666 134.547549 
L 309.550727 139.478832 
L 310.273788 137.900821 
L 310.99685 133.613201 
L 311.719911 136.00098 
L 312.442972 130.965881 
L 313.166034 134.661747 
L 313.889095 131.391528 
L 314.612156 132.22206 
L 315.335218 135.762202 
L 316.058279 131.4642 
L 316.78134 136.530444 
L 317.504402 132.357021 
L 318.227463 130.612905 
L 318.950524 130.70634 
L 319.673586 128.50543 
L 320.396647 131.225422 
L 321.119708 135.834873 
L 321.84277 126.23185 
L 322.565831 128.982986 
L 323.288892 125.453226 
L 324.011954 123.750636 
L 324.735015 128.827261 
L 325.458077 127.425739 
L 326.181138 130.342982 
L 326.904199 125.806202 
L 327.627261 133.062974 
L 328.350322 127.892913 
L 329.073383 132.242823 
L 329.796445 129.938098 
L 330.519506 130.51947 
L 331.242567 131.27733 
L 331.965629 128.162836 
L 332.68869 130.280692 
L 333.411751 127.861768 
L 334.134813 127.861768 
L 334.857874 130.862064 
L 335.580935 124.456588 
L 336.303997 131.671833 
L 337.027058 130.685576 
L 337.750119 134.391824 
L 338.473181 124.840709 
L 339.196242 132.512746 
L 339.919304 127.955203 
L 340.642365 127.218106 
L 341.365426 126.792458 
L 342.088488 126.699024 
L 342.811549 124.757656 
L 343.53461 125.775057 
L 344.257672 130.135349 
L 344.980733 123.761017 
L 345.703794 127.052 
L 346.426856 122.421785 
L 347.149917 127.539937 
L 347.872978 121.248659 
L 348.59604 125.110632 
L 349.319101 125.390936 
L 350.042162 126.159178 
L 350.765224 126.283758 
L 351.488285 121.757359 
L 352.211346 127.218106 
L 352.934408 127.550319 
L 353.657469 130.529852 
L 354.38053 129.460542 
L 355.103592 129.377489 
L 355.826653 131.131987 
L 356.549715 128.681918 
L 357.272776 129.252909 
L 357.995837 127.633372 
L 358.718899 123.947887 
L 359.44196 128.308179 
L 360.165021 130.301455 
L 360.888083 124.674602 
L 361.611144 122.525601 
L 362.334205 124.134757 
L 363.057267 128.733827 
L 363.780328 128.650773 
L 365.226451 126.356429 
L 365.949512 129.294435 
L 366.672573 126.242231 
L 367.395635 125.754294 
L 368.118696 128.277034 
L 368.841757 127.228488 
L 369.564819 129.657793 
L 370.28788 125.754294 
L 371.010941 122.712471 
L 371.734003 125.10025 
L 372.457064 123.034302 
L 373.180126 126.387574 
L 373.903187 127.488029 
L 374.626248 130.353364 
L 375.34931 127.311541 
L 376.072371 129.138711 
L 376.795432 127.87215 
L 377.518494 131.028171 
L 378.241555 127.903295 
L 378.964616 129.834281 
L 379.687678 130.477943 
L 381.1338 124.529259 
L 381.856862 129.834281 
L 382.579923 125.121013 
L 383.302984 125.806202 
L 384.026046 124.456588 
L 384.749107 127.591845 
L 385.472168 125.951545 
L 386.19523 123.823307 
L 386.918291 125.910018 
L 387.641353 127.124671 
L 388.364414 122.39064 
L 389.087475 126.968946 
L 389.810537 126.80284 
L 390.533598 122.826669 
L 391.256659 124.34239 
L 391.979721 125.172921 
L 392.702782 125.525897 
L 393.425843 127.155816 
L 394.148905 128.142073 
L 394.871966 124.861472 
L 395.595027 127.861768 
L 396.318089 126.844367 
L 397.04115 124.944525 
L 397.764211 129.855044 
L 398.487273 127.103908 
L 398.487273 127.103908 
" clip-path="url(#p9e5ea0959f)" style="fill: none; stroke: #2ca02c; stroke-width: 1.5; stroke-linecap: square"/>
   </g>
   <g id="line2d_23">
    <path d="M 73.832727 293.982661 
L 74.555789 287.931199 
L 75.27885 286.215113 
L 76.001911 283.836677 
L 76.724973 279.23034 
L 77.448034 273.81112 
L 78.171095 270.950976 
L 78.894157 256.830898 
L 79.617218 259.540508 
L 80.340279 250.357941 
L 81.063341 247.678437 
L 81.786402 244.366692 
L 82.509463 244.818293 
L 83.232525 238.796938 
L 83.955586 229.192876 
L 84.678647 230.246613 
L 85.401709 224.917714 
L 86.12477 222.388744 
L 86.847832 215.283545 
L 87.570893 211.098703 
L 88.293954 213.145964 
L 89.017016 206.703113 
L 89.740077 207.184822 
L 90.463138 203.812862 
L 91.1862 203.331154 
L 91.909261 201.314 
L 92.632322 202.187096 
L 94.078445 200.982825 
L 94.801506 200.982825 
L 95.524568 225.549956 
L 96.247629 221.064046 
L 96.97069 220.28127 
L 97.693752 220.522124 
L 98.416813 213.898633 
L 99.139874 213.717992 
L 99.862936 210.46646 
L 101.309059 201.705388 
L 102.03212 204.414998 
L 102.755181 199.989302 
L 103.478243 203.752649 
L 104.201304 195.834566 
L 104.924365 200.711864 
L 105.647427 197.490439 
L 106.370488 200.651651 
L 107.093549 189.933638 
L 107.816611 190.234706 
L 108.539672 184.333777 
L 109.262733 193.847519 
L 109.985795 194.780829 
L 110.708856 185.748796 
L 111.431917 187.013281 
L 112.154979 183.28004 
L 112.87804 184.755272 
L 113.601101 179.998401 
L 114.324163 184.905806 
L 115.047224 179.787654 
L 115.770285 178.914557 
L 116.493347 177.318898 
L 117.216408 174.03726 
L 117.93947 173.405017 
L 118.662531 175.90388 
L 119.385592 174.157687 
L 120.108654 167.925584 
L 120.831715 167.714836 
L 121.554776 169.400816 
L 123.000899 166.179391 
L 123.72396 169.310495 
L 124.447022 165.24608 
L 125.170083 160.519316 
L 125.893144 162.175189 
L 126.616206 161.42252 
L 127.339267 165.095547 
L 128.062328 164.764372 
L 128.78539 161.994549 
L 129.508451 160.57953 
L 130.231512 159.435472 
L 130.954574 161.271986 
L 131.677635 162.626791 
L 132.400696 160.57953 
L 133.123758 159.676327 
L 133.846819 159.375259 
L 134.569881 160.067715 
L 135.292942 159.947288 
L 136.016003 159.64622 
L 136.739065 161.964442 
L 137.462126 161.723588 
L 138.185187 160.699957 
L 138.908249 186.170291 
L 139.63131 177.619966 
L 140.354371 181.925235 
L 141.077433 182.105876 
L 141.800494 178.191995 
L 142.523555 185.658476 
L 143.246617 186.260611 
L 143.969678 177.529646 
L 144.692739 180.239256 
L 145.415801 182.226303 
L 146.138862 175.632919 
L 146.861923 175.90388 
L 147.584985 183.791855 
L 148.308046 177.047937 
L 149.031108 172.893202 
L 149.754169 175.361958 
L 150.47723 180.088722 
L 151.200292 178.191995 
L 151.923353 176.626442 
L 152.646414 178.222102 
L 153.369476 180.209149 
L 154.092537 180.48011 
L 154.815598 181.744595 
L 155.53866 180.269362 
L 156.261721 177.288791 
L 156.984782 181.3231 
L 157.707844 186.381038 
L 158.430905 179.877974 
L 159.153966 175.301744 
L 159.877028 177.559752 
L 160.600089 168.768573 
L 161.32315 173.585658 
L 162.046212 167.142807 
L 162.769273 173.28459 
L 163.492334 170.6653 
L 164.215396 169.159962 
L 164.938457 171.448077 
L 165.661519 167.985797 
L 166.38458 173.736192 
L 167.107641 170.454553 
L 167.830703 170.48466 
L 168.553764 166.93206 
L 169.276825 173.043736 
L 169.999887 173.344804 
L 170.722948 172.170639 
L 171.446009 167.594409 
L 172.892132 165.276187 
L 173.615193 167.383662 
L 174.338255 162.867645 
L 175.061316 165.15576 
L 175.784377 167.95569 
L 176.507439 165.426721 
L 177.2305 166.299818 
L 177.953561 164.734265 
L 178.676623 167.443875 
L 179.399684 163.108499 
L 180.122745 174.488861 
L 180.845807 162.897752 
L 181.568868 164.613838 
L 182.29193 167.353555 
L 183.014991 163.529994 
L 183.738052 168.919107 
L 184.461114 162.897752 
L 185.184175 161.934335 
L 185.907236 168.738467 
L 186.630298 164.403091 
L 187.353359 162.114976 
L 188.799482 171.568504 
L 189.522543 160.820384 
L 190.245604 166.570779 
L 190.968666 169.220175 
L 191.691727 160.850491 
L 192.414788 168.106224 
L 193.13785 163.19882 
L 193.860911 165.727789 
L 194.583972 159.044084 
L 195.307034 164.22245 
L 196.030095 164.854692 
L 196.753157 160.188142 
L 197.476218 163.710635 
L 198.199279 164.493411 
L 198.922341 160.188142 
L 199.645402 163.861169 
L 200.368463 161.964442 
L 201.091525 161.42252 
L 201.814586 157.418318 
L 202.537647 158.562376 
L 203.260709 161.151559 
L 203.98377 162.717111 
L 204.706831 160.097822 
L 205.429893 160.428996 
L 206.152954 163.409567 
L 206.876015 159.044084 
L 207.599077 161.302093 
L 208.322138 160.097822 
L 209.045199 158.562376 
L 209.768261 159.465579 
L 210.491322 164.433198 
L 211.214383 158.923657 
L 211.937445 159.826861 
L 212.660506 163.770848 
L 214.106629 160.248355 
L 215.552752 164.102023 
L 216.275813 162.145082 
L 216.998874 161.994549 
L 217.721936 161.031132 
L 218.444997 160.549423 
L 219.168058 161.51284 
L 219.89112 160.66985 
L 220.614181 160.850491 
L 221.337242 162.235403 
L 222.783365 160.820384 
L 223.506426 159.224725 
L 224.229488 161.723588 
L 224.952549 163.349354 
L 225.67561 183.701535 
L 226.398672 186.531572 
L 227.121733 178.553276 
L 227.844794 181.684381 
L 228.567856 169.491136 
L 229.290917 175.632919 
L 230.013979 179.847868 
L 230.73704 182.557478 
L 231.460101 169.280389 
L 232.183163 181.563954 
L 232.906224 182.708011 
L 233.629285 172.381387 
L 234.352347 181.714488 
L 235.075408 179.336052 
L 235.798469 172.923309 
L 236.521531 174.2179 
L 237.244592 170.123378 
L 237.967653 181.41342 
L 238.690715 180.179042 
L 239.413776 169.491136 
L 240.136837 176.686656 
L 240.859899 173.134056 
L 241.58296 176.475909 
L 243.029083 171.056689 
L 243.752144 172.983522 
L 244.475206 175.602812 
L 245.198267 177.258685 
L 245.921328 175.392065 
L 246.64439 180.540323 
L 247.367451 174.820036 
L 248.090512 183.039186 
L 248.813574 179.215625 
L 249.536635 177.740393 
L 250.259696 179.215625 
L 250.982758 170.906155 
L 251.705819 172.893202 
L 252.42888 168.046011 
L 253.151942 177.017831 
L 253.875003 179.847868 
L 254.598064 183.611215 
L 255.321126 178.101674 
L 256.044187 171.297543 
L 256.767248 170.213699 
L 257.49031 170.093272 
L 258.213371 168.70836 
L 258.936432 163.228926 
L 259.659494 174.518968 
L 260.382555 170.785728 
L 261.105617 172.381387 
L 261.828678 185.387515 
L 262.551739 173.706085 
L 263.274801 168.587933 
L 263.997862 178.041461 
L 264.720923 174.518968 
L 265.443985 170.243806 
L 266.167046 175.121104 
L 266.890107 175.121104 
L 267.613169 180.239256 
L 269.059291 163.37946 
L 269.782353 171.478183 
L 270.505414 174.669502 
L 271.228475 169.73199 
L 271.951537 177.108151 
L 272.674598 171.357756 
L 273.397659 177.288791 
L 274.120721 179.275839 
L 274.843782 173.946939 
L 275.566843 178.583383 
L 276.289905 172.35128 
L 277.012966 181.624167 
L 277.736028 169.340602 
L 278.459089 166.661099 
L 279.18215 178.071568 
L 279.905212 171.026582 
L 280.628273 173.886726 
L 281.351334 168.587933 
L 282.797457 172.411494 
L 283.520518 170.635194 
L 284.24358 161.181666 
L 284.966641 162.626791 
L 285.689702 174.308221 
L 287.135825 168.70836 
L 287.858886 171.899678 
L 288.581948 177.469432 
L 289.305009 165.336401 
L 290.02807 175.181317 
L 290.751132 164.372984 
L 291.474193 162.536471 
L 292.197255 165.607362 
L 292.920316 165.185867 
L 293.643377 168.497612 
L 294.366439 175.933987 
L 295.0895 162.777325 
L 295.812561 166.299818 
L 296.535623 177.589859 
L 297.258684 170.514767 
L 297.981745 178.523169 
L 298.704807 166.239604 
L 299.427868 165.757896 
L 300.150929 182.045662 
L 300.873991 166.269711 
L 301.597052 162.084869 
L 302.320113 160.037608 
L 303.043175 163.560101 
L 303.766236 173.766299 
L 304.489297 161.573054 
L 305.212359 172.26096 
L 305.93542 169.882524 
L 306.658481 170.605087 
L 307.381543 159.044084 
L 308.104604 170.033058 
L 308.827666 177.740393 
L 309.550727 174.338327 
L 310.273788 161.663374 
L 310.99685 163.078393 
L 311.719911 158.592483 
L 313.166034 178.372635 
L 313.889095 155.16031 
L 314.612156 166.179391 
L 315.335218 157.568852 
L 316.058279 170.213699 
L 316.78134 171.056689 
L 317.504402 161.51284 
L 318.227463 160.639744 
L 318.950524 169.461029 
L 319.673586 172.592134 
L 320.396647 174.639395 
L 321.84277 163.740742 
L 322.565831 166.901953 
L 323.288892 157.147357 
L 324.011954 164.583731 
L 324.735015 159.706433 
L 325.458077 170.183592 
L 326.181138 164.31277 
L 326.904199 164.22245 
L 327.627261 164.975119 
L 328.350322 159.345152 
L 329.073383 165.125653 
L 329.796445 160.609637 
L 330.519506 165.426721 
L 331.242567 165.125653 
L 331.965629 167.564302 
L 332.68869 165.818109 
L 333.411751 170.213699 
L 334.134813 162.536471 
L 334.857874 163.800955 
L 335.580935 166.480458 
L 336.303997 173.344804 
L 337.027058 162.536471 
L 337.750119 167.624516 
L 338.473181 161.783801 
L 339.196242 169.159962 
L 339.919304 158.592483 
L 340.642365 168.106224 
L 341.365426 167.323448 
L 342.088488 165.577255 
L 342.811549 158.502162 
L 343.53461 169.039534 
L 344.257672 168.768573 
L 344.980733 153.38401 
L 345.703794 165.667575 
L 346.426856 160.790277 
L 347.149917 166.811633 
L 347.872978 157.839813 
L 348.59604 167.293341 
L 349.319101 160.158035 
L 350.042162 170.334126 
L 350.765224 166.179391 
L 351.488285 166.84174 
L 352.211346 164.914906 
L 352.934408 160.549423 
L 353.657469 167.443875 
L 354.38053 167.985797 
L 355.103592 161.573054 
L 355.826653 164.403091 
L 356.549715 169.159962 
L 357.272776 162.897752 
L 357.995837 164.13213 
L 358.718899 166.570779 
L 359.44196 172.020105 
L 360.165021 173.28459 
L 361.611144 162.566577 
L 362.334205 162.175189 
L 363.057267 167.985797 
L 363.780328 175.000676 
L 364.503389 156.786076 
L 365.226451 159.465579 
L 365.949512 167.654623 
L 366.672573 164.31277 
L 367.395635 162.476257 
L 368.118696 174.639395 
L 368.841757 168.828787 
L 369.564819 166.962167 
L 370.28788 161.904228 
L 371.734003 158.110774 
L 372.457064 162.566577 
L 373.180126 169.73199 
L 373.903187 154.528068 
L 374.626248 162.084869 
L 375.34931 168.347079 
L 376.072371 170.876048 
L 376.795432 162.084869 
L 377.518494 163.951489 
L 378.241555 161.271986 
L 379.687678 170.966368 
L 380.410739 164.975119 
L 381.1338 163.349354 
L 381.856862 161.241879 
L 382.579923 170.424446 
L 383.302984 164.854692 
L 384.026046 163.469781 
L 384.749107 170.334126 
L 385.472168 169.491136 
L 386.19523 163.409567 
L 386.918291 160.278462 
L 387.641353 160.790277 
L 388.364414 168.587933 
L 389.087475 156.09362 
L 389.810537 165.125653 
L 390.533598 159.5559 
L 391.256659 166.540672 
L 391.979721 160.850491 
L 392.702782 165.125653 
L 393.425843 166.390138 
L 394.148905 161.031132 
L 395.595027 168.046011 
L 396.318089 168.347079 
L 397.04115 164.13213 
L 397.764211 172.020105 
L 398.487273 163.349354 
L 398.487273 163.349354 
" clip-path="url(#p9e5ea0959f)" style="fill: none; stroke: #d62728; stroke-width: 1.5; stroke-linecap: square"/>
   </g>
   <g id="line2d_24">
    <path d="M 350.765224 73.540836 
L 351.488285 75.828951 
L 352.211346 76.671941 
L 352.934408 74.203185 
L 353.657469 74.112865 
L 354.38053 76.099912 
L 355.103592 76.762261 
L 355.826653 77.003116 
L 356.549715 77.725678 
L 357.272776 76.852582 
L 357.995837 78.869736 
L 358.718899 78.779415 
L 359.44196 78.869736 
L 360.165021 78.297707 
L 360.888083 78.357921 
L 361.611144 81.699773 
L 362.334205 78.207387 
L 363.057267 75.55799 
L 363.780328 76.190233 
L 364.503389 77.695571 
L 365.226451 77.906319 
L 365.949512 81.097637 
L 366.672573 79.682619 
L 367.395635 81.278278 
L 368.118696 78.207387 
L 368.841757 79.983687 
L 369.564819 80.314861 
L 370.28788 78.117066 
L 371.010941 79.772939 
L 371.734003 78.207387 
L 372.457064 78.357921 
L 373.180126 78.628882 
L 373.903187 81.248171 
L 374.626248 83.054578 
L 375.34931 80.947103 
L 376.072371 82.84383 
L 376.795432 82.964258 
L 377.518494 85.342693 
L 378.241555 83.716927 
L 378.964616 83.385752 
L 379.687678 82.602976 
L 380.410739 84.981412 
L 381.1338 87.961983 
L 381.856862 85.312586 
L 382.579923 87.751235 
L 383.302984 87.871662 
L 384.026046 91.183408 
L 384.749107 85.703974 
L 385.472168 86.848032 
L 386.19523 84.499703 
L 386.918291 89.738282 
L 387.641353 89.768389 
L 388.364414 88.473798 
L 389.087475 97.415511 
L 389.810537 92.56832 
L 390.533598 91.153301 
L 391.256659 94.133872 
L 391.979721 98.288607 
L 392.702782 97.957433 
L 393.425843 97.264977 
L 394.148905 101.389605 
L 394.871966 96.753162 
L 395.595027 95.789745 
L 396.318089 95.187609 
L 397.04115 96.030599 
L 397.764211 98.619782 
L 398.487273 96.843482 
L 398.487273 96.843482 
" clip-path="url(#p9e5ea0959f)" style="fill: none; stroke: #9467bd; stroke-width: 1.5; stroke-linecap: square"/>
   </g>
   <g id="line2d_25">
    <path d="M 350.765224 126.096888 
L 351.488285 122.878577 
L 352.211346 125.110632 
L 352.934408 121.238277 
L 353.657469 124.228192 
L 354.38053 126.543299 
L 355.103592 126.958565 
L 355.826653 130.986644 
L 356.549715 125.307883 
L 357.272776 129.720083 
L 357.995837 130.3326 
L 358.718899 129.63703 
L 359.44196 133.820834 
L 360.165021 128.432759 
L 360.888083 129.086803 
L 361.611144 132.751524 
L 362.334205 132.637326 
L 363.057267 127.913676 
L 363.780328 129.740846 
L 364.503389 125.484371 
L 365.226451 124.736892 
L 365.949512 129.958861 
L 366.672573 133.364041 
L 367.395635 131.225422 
L 368.118696 129.57474 
L 368.841757 131.630306 
L 369.564819 126.262994 
M 371.010941 124.747274 
L 371.734003 125.401318 
L 372.457064 123.511858 
L 374.626248 133.052592 
L 375.34931 132.03519 
L 376.072371 132.938394 
L 376.795432 131.889847 
L 377.518494 132.180533 
L 378.241555 129.221764 
L 378.964616 131.370765 
L 379.687678 129.51245 
L 380.410739 135.741439 
L 381.1338 133.935032 
L 381.856862 135.191211 
L 383.302984 137.049526 
L 384.026046 139.333489 
L 384.749107 134.547549 
L 385.472168 136.82113 
L 386.19523 131.131987 
L 386.918291 135.772583 
L 387.641353 134.080375 
L 388.364414 130.27031 
L 389.087475 139.115474 
L 389.810537 136.956091 
L 390.533598 137.589372 
L 391.256659 137.288304 
L 391.979721 139.634556 
L 392.702782 138.938986 
L 393.425843 138.855933 
L 394.871966 142.531036 
L 395.595027 144.306298 
L 396.318089 141.752412 
L 397.04115 144.960341 
L 397.764211 141.9289 
L 398.487273 143.133171 
L 398.487273 143.133171 
" clip-path="url(#p9e5ea0959f)" style="fill: none; stroke: #8c564b; stroke-width: 1.5; stroke-linecap: square"/>
   </g>
   <g id="line2d_26">
    <path d="M 350.765224 165.06544 
L 351.488285 172.110426 
L 352.211346 173.28459 
L 352.934408 164.041809 
L 353.657469 160.699957 
L 354.38053 171.056689 
L 355.103592 167.805157 
L 355.826653 178.011354 
L 356.549715 167.142807 
L 357.272776 170.033058 
L 357.995837 171.41797 
L 358.718899 173.766299 
L 359.44196 178.70381 
L 360.165021 171.929785 
L 360.888083 174.007153 
L 361.611144 167.02238 
L 362.334205 170.063165 
L 363.057267 181.804808 
L 363.780328 170.424446 
L 364.503389 175.813559 
L 365.226451 172.923309 
L 365.949512 186.381038 
L 366.672573 181.624167 
L 367.395635 191.529297 
L 368.118696 182.286517 
L 368.841757 180.540323 
L 369.564819 182.467157 
L 370.28788 174.067366 
L 371.010941 174.2179 
L 371.734003 188.127231 
L 372.457064 170.635194 
L 373.180126 194.991577 
L 373.903187 197.068944 
L 374.626248 188.217552 
L 375.34931 185.387515 
L 376.072371 195.714139 
L 376.795432 199.236632 
L 377.518494 196.797983 
L 378.241555 191.830365 
L 378.964616 195.954994 
L 379.687678 193.365811 
L 380.410739 199.086098 
L 381.1338 201.193573 
L 381.856862 186.892854 
L 382.579923 202.458057 
L 383.302984 205.137561 
L 384.026046 220.492017 
L 384.749107 198.423749 
L 385.472168 216.126534 
L 386.19523 197.911934 
L 386.918291 211.279343 
L 387.641353 216.367389 
L 388.364414 213.868526 
L 389.087475 234.130387 
L 389.810537 226.182198 
L 390.533598 220.190949 
L 391.256659 221.575861 
L 391.979721 239.007685 
L 392.702782 226.6338 
L 393.425843 232.715369 
L 394.148905 236.659357 
L 394.871966 217.66198 
L 395.595027 223.382268 
L 396.318089 214.079274 
L 397.764211 235.575513 
L 398.487273 227.898284 
L 398.487273 227.898284 
" clip-path="url(#p9e5ea0959f)" style="fill: none; stroke: #e377c2; stroke-width: 1.5; stroke-linecap: square"/>
   </g>
   <g id="patch_3">
    <path d="M 57.6 307.584 
L 57.6 41.472 
" style="fill: none; stroke: #000000; stroke-width: 0.8; stroke-linejoin: miter; stroke-linecap: square"/>
   </g>
   <g id="patch_4">
    <path d="M 414.72 307.584 
L 414.72 41.472 
" style="fill: none; stroke: #000000; stroke-width: 0.8; stroke-linejoin: miter; stroke-linecap: square"/>
   </g>
   <g id="patch_5">
    <path d="M 57.6 307.584 
L 414.72 307.584 
" style="fill: none; stroke: #000000; stroke-width: 0.8; stroke-linejoin: miter; stroke-linecap: square"/>
   </g>
   <g id="patch_6">
    <path d="M 57.6 41.472 
L 414.72 41.472 
" style="fill: none; stroke: #000000; stroke-width: 0.8; stroke-linejoin: miter; stroke-linecap: square"/>
   </g>
   <g id="text_22">
    <!-- Learning Curves -->
    <g transform="translate(187.37625 35.472) scale(0.12 -0.12)">
     <defs>
      <path id="DejaVuSans-4c" d="M 628 4666 
L 1259 4666 
L 1259 531 
L 3531 531 
L 3531 0 
L 628 0 
L 628 4666 
z
" transform="scale(0.015625)"/>
      <path id="DejaVuSans-65" d="M 3597 1894 
L 3597 1613 
L 953 1613 
Q 991 1019 1311 708 
Q 1631 397 2203 397 
Q 2534 397 2845 478 
Q 3156 559 3463 722 
L 3463 178 
Q 3153 47 2828 -22 
Q 2503 -91 2169 -91 
Q 1331 -91 842 396 
Q 353 884 353 1716 
Q 353 2575 817 3079 
Q 1281 3584 2069 3584 
Q 2775 3584 3186 3129 
Q 3597 2675 3597 1894 
z
M 3022 2063 
Q 3016 2534 2758 2815 
Q 2500 3097 2075 3097 
Q 1594 3097 1305 2825 
Q 1016 2553 972 2059 
L 3022 2063 
z
" transform="scale(0.015625)"/>
      <path id="DejaVuSans-6e" d="M 3513 2113 
L 3513 0 
L 2938 0 
L 2938 2094 
Q 2938 2591 2744 2837 
Q 2550 3084 2163 3084 
Q 1697 3084 1428 2787 
Q 1159 2491 1159 1978 
L 1159 0 
L 581 0 
L 581 3500 
L 1159 3500 
L 1159 2956 
Q 1366 3272 1645 3428 
Q 1925 3584 2291 3584 
Q 2894 3584 3203 3211 
Q 3513 2838 3513 2113 
z
" transform="scale(0.015625)"/>
      <path id="DejaVuSans-69" d="M 603 3500 
L 1178 3500 
L 1178 0 
L 603 0 
L 603 3500 
z
M 603 4863 
L 1178 4863 
L 1178 4134 
L 603 4134 
L 603 4863 
z
" transform="scale(0.015625)"/>
      <path id="DejaVuSans-67" d="M 2906 1791 
Q 2906 2416 2648 2759 
Q 2391 3103 1925 3103 
Q 1463 3103 1205 2759 
Q 947 2416 947 1791 
Q 947 1169 1205 825 
Q 1463 481 1925 481 
Q 2391 481 2648 825 
Q 2906 1169 2906 1791 
z
M 3481 434 
Q 3481 -459 3084 -895 
Q 2688 -1331 1869 -1331 
Q 1566 -1331 1297 -1286 
Q 1028 -1241 775 -1147 
L 775 -588 
Q 1028 -725 1275 -790 
Q 1522 -856 1778 -856 
Q 2344 -856 2625 -561 
Q 2906 -266 2906 331 
L 2906 616 
Q 2728 306 2450 153 
Q 2172 0 1784 0 
Q 1141 0 747 490 
Q 353 981 353 1791 
Q 353 2603 747 3093 
Q 1141 3584 1784 3584 
Q 2172 3584 2450 3431 
Q 2728 3278 2906 2969 
L 2906 3500 
L 3481 3500 
L 3481 434 
z
" transform="scale(0.015625)"/>
      <path id="DejaVuSans-20" transform="scale(0.015625)"/>
      <path id="DejaVuSans-43" d="M 4122 4306 
L 4122 3641 
Q 3803 3938 3442 4084 
Q 3081 4231 2675 4231 
Q 1875 4231 1450 3742 
Q 1025 3253 1025 2328 
Q 1025 1406 1450 917 
Q 1875 428 2675 428 
Q 3081 428 3442 575 
Q 3803 722 4122 1019 
L 4122 359 
Q 3791 134 3420 21 
Q 3050 -91 2638 -91 
Q 1578 -91 968 557 
Q 359 1206 359 2328 
Q 359 3453 968 4101 
Q 1578 4750 2638 4750 
Q 3056 4750 3426 4639 
Q 3797 4528 4122 4306 
z
" transform="scale(0.015625)"/>
      <path id="DejaVuSans-76" d="M 191 3500 
L 800 3500 
L 1894 563 
L 2988 3500 
L 3597 3500 
L 2284 0 
L 1503 0 
L 191 3500 
z
" transform="scale(0.015625)"/>
     </defs>
     <use xlink:href="#DejaVuSans-4c"/>
     <use xlink:href="#DejaVuSans-65" x="53.962891"/>
     <use xlink:href="#DejaVuSans-61" x="115.486328"/>
     <use xlink:href="#DejaVuSans-72" x="176.765625"/>
     <use xlink:href="#DejaVuSans-6e" x="216.128906"/>
     <use xlink:href="#DejaVuSans-69" x="279.507812"/>
     <use xlink:href="#DejaVuSans-6e" x="307.291016"/>
     <use xlink:href="#DejaVuSans-67" x="370.669922"/>
     <use xlink:href="#DejaVuSans-20" x="434.146484"/>
     <use xlink:href="#DejaVuSans-43" x="465.933594"/>
     <use xlink:href="#DejaVuSans-75" x="535.757812"/>
     <use xlink:href="#DejaVuSans-72" x="599.136719"/>
     <use xlink:href="#DejaVuSans-76" x="640.25"/>
     <use xlink:href="#DejaVuSans-65" x="699.429688"/>
     <use xlink:href="#DejaVuSans-73" x="760.953125"/>
    </g>
   </g>
   <g id="legend_1">
    <g id="patch_7">
     <path d="M 128.445937 302.584 
L 343.874063 302.584 
Q 345.874063 302.584 345.874063 300.584 
L 345.874063 198.837125 
Q 345.874063 196.837125 343.874063 196.837125 
L 128.445937 196.837125 
Q 126.445937 196.837125 126.445937 198.837125 
L 126.445937 300.584 
Q 126.445937 302.584 128.445937 302.584 
z
" style="fill: #ffffff; opacity: 0.8; stroke: #cccccc; stroke-linejoin: miter"/>
    </g>
    <g id="line2d_27">
     <path d="M 130.445937 204.935563 
L 140.445937 204.935563 
L 150.445937 204.935563 
" style="fill: none; stroke: #1f77b4; stroke-width: 1.5; stroke-linecap: square"/>
    </g>
    <g id="text_23">
     <!-- Train Accuracy -->
     <g transform="translate(158.445937 208.435563) scale(0.1 -0.1)">
      <defs>
       <path id="DejaVuSans-54" d="M -19 4666 
L 3928 4666 
L 3928 4134 
L 2272 4134 
L 2272 0 
L 1638 0 
L 1638 4134 
L -19 4134 
L -19 4666 
z
" transform="scale(0.015625)"/>
      </defs>
      <use xlink:href="#DejaVuSans-54"/>
      <use xlink:href="#DejaVuSans-72" x="46.333984"/>
      <use xlink:href="#DejaVuSans-61" x="87.447266"/>
      <use xlink:href="#DejaVuSans-69" x="148.726562"/>
      <use xlink:href="#DejaVuSans-6e" x="176.509766"/>
      <use xlink:href="#DejaVuSans-20" x="239.888672"/>
      <use xlink:href="#DejaVuSans-41" x="271.675781"/>
      <use xlink:href="#DejaVuSans-63" x="338.333984"/>
      <use xlink:href="#DejaVuSans-63" x="393.314453"/>
      <use xlink:href="#DejaVuSans-75" x="448.294922"/>
      <use xlink:href="#DejaVuSans-72" x="511.673828"/>
      <use xlink:href="#DejaVuSans-61" x="552.787109"/>
      <use xlink:href="#DejaVuSans-63" x="614.066406"/>
      <use xlink:href="#DejaVuSans-79" x="669.046875"/>
     </g>
    </g>
    <g id="line2d_28">
     <path d="M 130.445937 219.613688 
L 140.445937 219.613688 
L 150.445937 219.613688 
" style="fill: none; stroke: #ff7f0e; stroke-width: 1.5; stroke-linecap: square"/>
    </g>
    <g id="text_24">
     <!-- Validation Accuracy -->
     <g transform="translate(158.445937 223.113688) scale(0.1 -0.1)">
      <defs>
       <path id="DejaVuSans-56" d="M 1831 0 
L 50 4666 
L 709 4666 
L 2188 738 
L 3669 4666 
L 4325 4666 
L 2547 0 
L 1831 0 
z
" transform="scale(0.015625)"/>
       <path id="DejaVuSans-6c" d="M 603 4863 
L 1178 4863 
L 1178 0 
L 603 0 
L 603 4863 
z
" transform="scale(0.015625)"/>
       <path id="DejaVuSans-64" d="M 2906 2969 
L 2906 4863 
L 3481 4863 
L 3481 0 
L 2906 0 
L 2906 525 
Q 2725 213 2448 61 
Q 2172 -91 1784 -91 
Q 1150 -91 751 415 
Q 353 922 353 1747 
Q 353 2572 751 3078 
Q 1150 3584 1784 3584 
Q 2172 3584 2448 3432 
Q 2725 3281 2906 2969 
z
M 947 1747 
Q 947 1113 1208 752 
Q 1469 391 1925 391 
Q 2381 391 2643 752 
Q 2906 1113 2906 1747 
Q 2906 2381 2643 2742 
Q 2381 3103 1925 3103 
Q 1469 3103 1208 2742 
Q 947 2381 947 1747 
z
" transform="scale(0.015625)"/>
       <path id="DejaVuSans-74" d="M 1172 4494 
L 1172 3500 
L 2356 3500 
L 2356 3053 
L 1172 3053 
L 1172 1153 
Q 1172 725 1289 603 
Q 1406 481 1766 481 
L 2356 481 
L 2356 0 
L 1766 0 
Q 1100 0 847 248 
Q 594 497 594 1153 
L 594 3053 
L 172 3053 
L 172 3500 
L 594 3500 
L 594 4494 
L 1172 4494 
z
" transform="scale(0.015625)"/>
      </defs>
      <use xlink:href="#DejaVuSans-56"/>
      <use xlink:href="#DejaVuSans-61" x="60.658203"/>
      <use xlink:href="#DejaVuSans-6c" x="121.9375"/>
      <use xlink:href="#DejaVuSans-69" x="149.720703"/>
      <use xlink:href="#DejaVuSans-64" x="177.503906"/>
      <use xlink:href="#DejaVuSans-61" x="240.980469"/>
      <use xlink:href="#DejaVuSans-74" x="302.259766"/>
      <use xlink:href="#DejaVuSans-69" x="341.46875"/>
      <use xlink:href="#DejaVuSans-6f" x="369.251953"/>
      <use xlink:href="#DejaVuSans-6e" x="430.433594"/>
      <use xlink:href="#DejaVuSans-20" x="493.8125"/>
      <use xlink:href="#DejaVuSans-41" x="525.599609"/>
      <use xlink:href="#DejaVuSans-63" x="592.257812"/>
      <use xlink:href="#DejaVuSans-63" x="647.238281"/>
      <use xlink:href="#DejaVuSans-75" x="702.21875"/>
      <use xlink:href="#DejaVuSans-72" x="765.597656"/>
      <use xlink:href="#DejaVuSans-61" x="806.710938"/>
      <use xlink:href="#DejaVuSans-63" x="867.990234"/>
      <use xlink:href="#DejaVuSans-79" x="922.970703"/>
     </g>
    </g>
    <g id="line2d_29">
     <path d="M 130.445937 234.291812 
L 140.445937 234.291812 
L 150.445937 234.291812 
" style="fill: none; stroke: #2ca02c; stroke-width: 1.5; stroke-linecap: square"/>
    </g>
    <g id="text_25">
     <!-- Robust Validation Accuracy -->
     <g transform="translate(158.445937 237.791812) scale(0.1 -0.1)">
      <defs>
       <path id="DejaVuSans-52" d="M 2841 2188 
Q 3044 2119 3236 1894 
Q 3428 1669 3622 1275 
L 4263 0 
L 3584 0 
L 2988 1197 
Q 2756 1666 2539 1819 
Q 2322 1972 1947 1972 
L 1259 1972 
L 1259 0 
L 628 0 
L 628 4666 
L 2053 4666 
Q 2853 4666 3247 4331 
Q 3641 3997 3641 3322 
Q 3641 2881 3436 2590 
Q 3231 2300 2841 2188 
z
M 1259 4147 
L 1259 2491 
L 2053 2491 
Q 2509 2491 2742 2702 
Q 2975 2913 2975 3322 
Q 2975 3731 2742 3939 
Q 2509 4147 2053 4147 
L 1259 4147 
z
" transform="scale(0.015625)"/>
       <path id="DejaVuSans-62" d="M 3116 1747 
Q 3116 2381 2855 2742 
Q 2594 3103 2138 3103 
Q 1681 3103 1420 2742 
Q 1159 2381 1159 1747 
Q 1159 1113 1420 752 
Q 1681 391 2138 391 
Q 2594 391 2855 752 
Q 3116 1113 3116 1747 
z
M 1159 2969 
Q 1341 3281 1617 3432 
Q 1894 3584 2278 3584 
Q 2916 3584 3314 3078 
Q 3713 2572 3713 1747 
Q 3713 922 3314 415 
Q 2916 -91 2278 -91 
Q 1894 -91 1617 61 
Q 1341 213 1159 525 
L 1159 0 
L 581 0 
L 581 4863 
L 1159 4863 
L 1159 2969 
z
" transform="scale(0.015625)"/>
      </defs>
      <use xlink:href="#DejaVuSans-52"/>
      <use xlink:href="#DejaVuSans-6f" x="64.982422"/>
      <use xlink:href="#DejaVuSans-62" x="126.164062"/>
      <use xlink:href="#DejaVuSans-75" x="189.640625"/>
      <use xlink:href="#DejaVuSans-73" x="253.019531"/>
      <use xlink:href="#DejaVuSans-74" x="305.119141"/>
      <use xlink:href="#DejaVuSans-20" x="344.328125"/>
      <use xlink:href="#DejaVuSans-56" x="376.115234"/>
      <use xlink:href="#DejaVuSans-61" x="436.773438"/>
      <use xlink:href="#DejaVuSans-6c" x="498.052734"/>
      <use xlink:href="#DejaVuSans-69" x="525.835938"/>
      <use xlink:href="#DejaVuSans-64" x="553.619141"/>
      <use xlink:href="#DejaVuSans-61" x="617.095703"/>
      <use xlink:href="#DejaVuSans-74" x="678.375"/>
      <use xlink:href="#DejaVuSans-69" x="717.583984"/>
      <use xlink:href="#DejaVuSans-6f" x="745.367188"/>
      <use xlink:href="#DejaVuSans-6e" x="806.548828"/>
      <use xlink:href="#DejaVuSans-20" x="869.927734"/>
      <use xlink:href="#DejaVuSans-41" x="901.714844"/>
      <use xlink:href="#DejaVuSans-63" x="968.373047"/>
      <use xlink:href="#DejaVuSans-63" x="1023.353516"/>
      <use xlink:href="#DejaVuSans-75" x="1078.333984"/>
      <use xlink:href="#DejaVuSans-72" x="1141.712891"/>
      <use xlink:href="#DejaVuSans-61" x="1182.826172"/>
      <use xlink:href="#DejaVuSans-63" x="1244.105469"/>
      <use xlink:href="#DejaVuSans-79" x="1299.085938"/>
     </g>
    </g>
    <g id="line2d_30">
     <path d="M 130.445937 248.969938 
L 140.445937 248.969938 
L 150.445937 248.969938 
" style="fill: none; stroke: #d62728; stroke-width: 1.5; stroke-linecap: square"/>
    </g>
    <g id="text_26">
     <!-- Adversarial Validation Accuracy -->
     <g transform="translate(158.445937 252.469938) scale(0.1 -0.1)">
      <use xlink:href="#DejaVuSans-41"/>
      <use xlink:href="#DejaVuSans-64" x="66.658203"/>
      <use xlink:href="#DejaVuSans-76" x="130.134766"/>
      <use xlink:href="#DejaVuSans-65" x="189.314453"/>
      <use xlink:href="#DejaVuSans-72" x="250.837891"/>
      <use xlink:href="#DejaVuSans-73" x="291.951172"/>
      <use xlink:href="#DejaVuSans-61" x="344.050781"/>
      <use xlink:href="#DejaVuSans-72" x="405.330078"/>
      <use xlink:href="#DejaVuSans-69" x="446.443359"/>
      <use xlink:href="#DejaVuSans-61" x="474.226562"/>
      <use xlink:href="#DejaVuSans-6c" x="535.505859"/>
      <use xlink:href="#DejaVuSans-20" x="563.289062"/>
      <use xlink:href="#DejaVuSans-56" x="595.076172"/>
      <use xlink:href="#DejaVuSans-61" x="655.734375"/>
      <use xlink:href="#DejaVuSans-6c" x="717.013672"/>
      <use xlink:href="#DejaVuSans-69" x="744.796875"/>
      <use xlink:href="#DejaVuSans-64" x="772.580078"/>
      <use xlink:href="#DejaVuSans-61" x="836.056641"/>
      <use xlink:href="#DejaVuSans-74" x="897.335938"/>
      <use xlink:href="#DejaVuSans-69" x="936.544922"/>
      <use xlink:href="#DejaVuSans-6f" x="964.328125"/>
      <use xlink:href="#DejaVuSans-6e" x="1025.509766"/>
      <use xlink:href="#DejaVuSans-20" x="1088.888672"/>
      <use xlink:href="#DejaVuSans-41" x="1120.675781"/>
      <use xlink:href="#DejaVuSans-63" x="1187.333984"/>
      <use xlink:href="#DejaVuSans-63" x="1242.314453"/>
      <use xlink:href="#DejaVuSans-75" x="1297.294922"/>
      <use xlink:href="#DejaVuSans-72" x="1360.673828"/>
      <use xlink:href="#DejaVuSans-61" x="1401.787109"/>
      <use xlink:href="#DejaVuSans-63" x="1463.066406"/>
      <use xlink:href="#DejaVuSans-79" x="1518.046875"/>
     </g>
    </g>
    <g id="line2d_31">
     <path d="M 130.445937 263.648063 
L 140.445937 263.648063 
L 150.445937 263.648063 
" style="fill: none; stroke: #9467bd; stroke-width: 1.5; stroke-linecap: square"/>
    </g>
    <g id="text_27">
     <!-- SWA Validation Accuracy -->
     <g transform="translate(158.445937 267.148063) scale(0.1 -0.1)">
      <defs>
       <path id="DejaVuSans-53" d="M 3425 4513 
L 3425 3897 
Q 3066 4069 2747 4153 
Q 2428 4238 2131 4238 
Q 1616 4238 1336 4038 
Q 1056 3838 1056 3469 
Q 1056 3159 1242 3001 
Q 1428 2844 1947 2747 
L 2328 2669 
Q 3034 2534 3370 2195 
Q 3706 1856 3706 1288 
Q 3706 609 3251 259 
Q 2797 -91 1919 -91 
Q 1588 -91 1214 -16 
Q 841 59 441 206 
L 441 856 
Q 825 641 1194 531 
Q 1563 422 1919 422 
Q 2459 422 2753 634 
Q 3047 847 3047 1241 
Q 3047 1584 2836 1778 
Q 2625 1972 2144 2069 
L 1759 2144 
Q 1053 2284 737 2584 
Q 422 2884 422 3419 
Q 422 4038 858 4394 
Q 1294 4750 2059 4750 
Q 2388 4750 2728 4690 
Q 3069 4631 3425 4513 
z
" transform="scale(0.015625)"/>
       <path id="DejaVuSans-57" d="M 213 4666 
L 850 4666 
L 1831 722 
L 2809 4666 
L 3519 4666 
L 4500 722 
L 5478 4666 
L 6119 4666 
L 4947 0 
L 4153 0 
L 3169 4050 
L 2175 0 
L 1381 0 
L 213 4666 
z
" transform="scale(0.015625)"/>
      </defs>
      <use xlink:href="#DejaVuSans-53"/>
      <use xlink:href="#DejaVuSans-57" x="63.476562"/>
      <use xlink:href="#DejaVuSans-41" x="156.853516"/>
      <use xlink:href="#DejaVuSans-20" x="225.261719"/>
      <use xlink:href="#DejaVuSans-56" x="257.048828"/>
      <use xlink:href="#DejaVuSans-61" x="317.707031"/>
      <use xlink:href="#DejaVuSans-6c" x="378.986328"/>
      <use xlink:href="#DejaVuSans-69" x="406.769531"/>
      <use xlink:href="#DejaVuSans-64" x="434.552734"/>
      <use xlink:href="#DejaVuSans-61" x="498.029297"/>
      <use xlink:href="#DejaVuSans-74" x="559.308594"/>
      <use xlink:href="#DejaVuSans-69" x="598.517578"/>
      <use xlink:href="#DejaVuSans-6f" x="626.300781"/>
      <use xlink:href="#DejaVuSans-6e" x="687.482422"/>
      <use xlink:href="#DejaVuSans-20" x="750.861328"/>
      <use xlink:href="#DejaVuSans-41" x="782.648438"/>
      <use xlink:href="#DejaVuSans-63" x="849.306641"/>
      <use xlink:href="#DejaVuSans-63" x="904.287109"/>
      <use xlink:href="#DejaVuSans-75" x="959.267578"/>
      <use xlink:href="#DejaVuSans-72" x="1022.646484"/>
      <use xlink:href="#DejaVuSans-61" x="1063.759766"/>
      <use xlink:href="#DejaVuSans-63" x="1125.039062"/>
      <use xlink:href="#DejaVuSans-79" x="1180.019531"/>
     </g>
    </g>
    <g id="line2d_32">
     <path d="M 130.445937 278.326188 
L 140.445937 278.326188 
L 150.445937 278.326188 
" style="fill: none; stroke: #8c564b; stroke-width: 1.5; stroke-linecap: square"/>
    </g>
    <g id="text_28">
     <!-- SWA Robust Validation Accuracy -->
     <g transform="translate(158.445937 281.826188) scale(0.1 -0.1)">
      <use xlink:href="#DejaVuSans-53"/>
      <use xlink:href="#DejaVuSans-57" x="63.476562"/>
      <use xlink:href="#DejaVuSans-41" x="156.853516"/>
      <use xlink:href="#DejaVuSans-20" x="225.261719"/>
      <use xlink:href="#DejaVuSans-52" x="257.048828"/>
      <use xlink:href="#DejaVuSans-6f" x="322.03125"/>
      <use xlink:href="#DejaVuSans-62" x="383.212891"/>
      <use xlink:href="#DejaVuSans-75" x="446.689453"/>
      <use xlink:href="#DejaVuSans-73" x="510.068359"/>
      <use xlink:href="#DejaVuSans-74" x="562.167969"/>
      <use xlink:href="#DejaVuSans-20" x="601.376953"/>
      <use xlink:href="#DejaVuSans-56" x="633.164062"/>
      <use xlink:href="#DejaVuSans-61" x="693.822266"/>
      <use xlink:href="#DejaVuSans-6c" x="755.101562"/>
      <use xlink:href="#DejaVuSans-69" x="782.884766"/>
      <use xlink:href="#DejaVuSans-64" x="810.667969"/>
      <use xlink:href="#DejaVuSans-61" x="874.144531"/>
      <use xlink:href="#DejaVuSans-74" x="935.423828"/>
      <use xlink:href="#DejaVuSans-69" x="974.632812"/>
      <use xlink:href="#DejaVuSans-6f" x="1002.416016"/>
      <use xlink:href="#DejaVuSans-6e" x="1063.597656"/>
      <use xlink:href="#DejaVuSans-20" x="1126.976562"/>
      <use xlink:href="#DejaVuSans-41" x="1158.763672"/>
      <use xlink:href="#DejaVuSans-63" x="1225.421875"/>
      <use xlink:href="#DejaVuSans-63" x="1280.402344"/>
      <use xlink:href="#DejaVuSans-75" x="1335.382812"/>
      <use xlink:href="#DejaVuSans-72" x="1398.761719"/>
      <use xlink:href="#DejaVuSans-61" x="1439.875"/>
      <use xlink:href="#DejaVuSans-63" x="1501.154297"/>
      <use xlink:href="#DejaVuSans-79" x="1556.134766"/>
     </g>
    </g>
    <g id="line2d_33">
     <path d="M 130.445937 293.004312 
L 140.445937 293.004312 
L 150.445937 293.004312 
" style="fill: none; stroke: #e377c2; stroke-width: 1.5; stroke-linecap: square"/>
    </g>
    <g id="text_29">
     <!-- SWA Adversarial Validation Accuracy -->
     <g transform="translate(158.445937 296.504312) scale(0.1 -0.1)">
      <use xlink:href="#DejaVuSans-53"/>
      <use xlink:href="#DejaVuSans-57" x="63.476562"/>
      <use xlink:href="#DejaVuSans-41" x="156.853516"/>
      <use xlink:href="#DejaVuSans-20" x="225.261719"/>
      <use xlink:href="#DejaVuSans-41" x="257.048828"/>
      <use xlink:href="#DejaVuSans-64" x="323.707031"/>
      <use xlink:href="#DejaVuSans-76" x="387.183594"/>
      <use xlink:href="#DejaVuSans-65" x="446.363281"/>
      <use xlink:href="#DejaVuSans-72" x="507.886719"/>
      <use xlink:href="#DejaVuSans-73" x="549"/>
      <use xlink:href="#DejaVuSans-61" x="601.099609"/>
      <use xlink:href="#DejaVuSans-72" x="662.378906"/>
      <use xlink:href="#DejaVuSans-69" x="703.492188"/>
      <use xlink:href="#DejaVuSans-61" x="731.275391"/>
      <use xlink:href="#DejaVuSans-6c" x="792.554688"/>
      <use xlink:href="#DejaVuSans-20" x="820.337891"/>
      <use xlink:href="#DejaVuSans-56" x="852.125"/>
      <use xlink:href="#DejaVuSans-61" x="912.783203"/>
      <use xlink:href="#DejaVuSans-6c" x="974.0625"/>
      <use xlink:href="#DejaVuSans-69" x="1001.845703"/>
      <use xlink:href="#DejaVuSans-64" x="1029.628906"/>
      <use xlink:href="#DejaVuSans-61" x="1093.105469"/>
      <use xlink:href="#DejaVuSans-74" x="1154.384766"/>
      <use xlink:href="#DejaVuSans-69" x="1193.59375"/>
      <use xlink:href="#DejaVuSans-6f" x="1221.376953"/>
      <use xlink:href="#DejaVuSans-6e" x="1282.558594"/>
      <use xlink:href="#DejaVuSans-20" x="1345.9375"/>
      <use xlink:href="#DejaVuSans-41" x="1377.724609"/>
      <use xlink:href="#DejaVuSans-63" x="1444.382812"/>
      <use xlink:href="#DejaVuSans-63" x="1499.363281"/>
      <use xlink:href="#DejaVuSans-75" x="1554.34375"/>
      <use xlink:href="#DejaVuSans-72" x="1617.722656"/>
      <use xlink:href="#DejaVuSans-61" x="1658.835938"/>
      <use xlink:href="#DejaVuSans-63" x="1720.115234"/>
      <use xlink:href="#DejaVuSans-79" x="1775.095703"/>
     </g>
    </g>
   </g>
  </g>
 </g>
 <defs>
  <clipPath id="p9e5ea0959f">
   <rect x="57.6" y="41.472" width="357.12" height="266.112"/>
  </clipPath>
 </defs>
</svg>
