<?xml version="1.0" encoding="utf-8" standalone="no"?>
<!DOCTYPE svg PUBLIC "-//W3C//DTD SVG 1.1//EN"
  "http://www.w3.org/Graphics/SVG/1.1/DTD/svg11.dtd">
<svg xmlns:xlink="http://www.w3.org/1999/xlink" width="460.8pt" height="345.6pt" viewBox="0 0 460.8 345.6" xmlns="http://www.w3.org/2000/svg" version="1.1">
 <metadata>
  <rdf:RDF xmlns:dc="http://purl.org/dc/elements/1.1/" xmlns:cc="http://creativecommons.org/ns#" xmlns:rdf="http://www.w3.org/1999/02/22-rdf-syntax-ns#">
   <cc:Work>
    <dc:type rdf:resource="http://purl.org/dc/dcmitype/StillImage"/>
    <dc:date>2024-08-26T20:55:03.015032</dc:date>
    <dc:format>image/svg+xml</dc:format>
    <dc:creator>
     <cc:Agent>
      <dc:title>Matplotlib v3.9.1, https://matplotlib.org/</dc:title>
     </cc:Agent>
    </dc:creator>
   </cc:Work>
  </rdf:RDF>
 </metadata>
 <defs>
  <style type="text/css">*{stroke-linejoin: round; stroke-linecap: butt}</style>
 </defs>
 <g id="figure_1">
  <g id="patch_1">
   <path d="M 0 345.6 
L 460.8 345.6 
L 460.8 0 
L 0 0 
z
" style="fill: #ffffff"/>
  </g>
  <g id="axes_1">
   <g id="patch_2">
    <path d="M 57.6 307.584 
L 414.72 307.584 
L 414.72 41.472 
L 57.6 41.472 
z
" style="fill: #ffffff"/>
   </g>
   <g id="matplotlib.axis_1">
    <g id="xtick_1">
     <g id="line2d_1">
      <defs>
       <path id="m8b6d7aadc8" d="M 0 0 
L 0 3.5 
" style="stroke: #000000; stroke-width: 0.8"/>
      </defs>
      <g>
       <use xlink:href="#m8b6d7aadc8" x="73.832727" y="307.584" style="stroke: #000000; stroke-width: 0.8"/>
      </g>
     </g>
     <g id="text_1">
      <!-- 1 -->
      <g transform="translate(70.651477 322.182437) scale(0.1 -0.1)">
       <defs>
        <path id="DejaVuSans-31" d="M 794 531 
L 1825 531 
L 1825 4091 
L 703 3866 
L 703 4441 
L 1819 4666 
L 2450 4666 
L 2450 531 
L 3481 531 
L 3481 0 
L 794 0 
L 794 531 
z
" transform="scale(0.015625)"/>
       </defs>
       <use xlink:href="#DejaVuSans-31"/>
      </g>
     </g>
    </g>
    <g id="xtick_2">
     <g id="line2d_2">
      <g>
       <use xlink:href="#m8b6d7aadc8" x="109.262733" y="307.584" style="stroke: #000000; stroke-width: 0.8"/>
      </g>
     </g>
     <g id="text_2">
      <!-- 50 -->
      <g transform="translate(102.900233 322.182437) scale(0.1 -0.1)">
       <defs>
        <path id="DejaVuSans-35" d="M 691 4666 
L 3169 4666 
L 3169 4134 
L 1269 4134 
L 1269 2991 
Q 1406 3038 1543 3061 
Q 1681 3084 1819 3084 
Q 2600 3084 3056 2656 
Q 3513 2228 3513 1497 
Q 3513 744 3044 326 
Q 2575 -91 1722 -91 
Q 1428 -91 1123 -41 
Q 819 9 494 109 
L 494 744 
Q 775 591 1075 516 
Q 1375 441 1709 441 
Q 2250 441 2565 725 
Q 2881 1009 2881 1497 
Q 2881 1984 2565 2268 
Q 2250 2553 1709 2553 
Q 1456 2553 1204 2497 
Q 953 2441 691 2322 
L 691 4666 
z
" transform="scale(0.015625)"/>
        <path id="DejaVuSans-30" d="M 2034 4250 
Q 1547 4250 1301 3770 
Q 1056 3291 1056 2328 
Q 1056 1369 1301 889 
Q 1547 409 2034 409 
Q 2525 409 2770 889 
Q 3016 1369 3016 2328 
Q 3016 3291 2770 3770 
Q 2525 4250 2034 4250 
z
M 2034 4750 
Q 2819 4750 3233 4129 
Q 3647 3509 3647 2328 
Q 3647 1150 3233 529 
Q 2819 -91 2034 -91 
Q 1250 -91 836 529 
Q 422 1150 422 2328 
Q 422 3509 836 4129 
Q 1250 4750 2034 4750 
z
" transform="scale(0.015625)"/>
       </defs>
       <use xlink:href="#DejaVuSans-35"/>
       <use xlink:href="#DejaVuSans-30" x="63.623047"/>
      </g>
     </g>
    </g>
    <g id="xtick_3">
     <g id="line2d_3">
      <g>
       <use xlink:href="#m8b6d7aadc8" x="145.415801" y="307.584" style="stroke: #000000; stroke-width: 0.8"/>
      </g>
     </g>
     <g id="text_3">
      <!-- 100 -->
      <g transform="translate(135.872051 322.182437) scale(0.1 -0.1)">
       <use xlink:href="#DejaVuSans-31"/>
       <use xlink:href="#DejaVuSans-30" x="63.623047"/>
       <use xlink:href="#DejaVuSans-30" x="127.246094"/>
      </g>
     </g>
    </g>
    <g id="xtick_4">
     <g id="line2d_4">
      <g>
       <use xlink:href="#m8b6d7aadc8" x="181.568868" y="307.584" style="stroke: #000000; stroke-width: 0.8"/>
      </g>
     </g>
     <g id="text_4">
      <!-- 150 -->
      <g transform="translate(172.025118 322.182437) scale(0.1 -0.1)">
       <use xlink:href="#DejaVuSans-31"/>
       <use xlink:href="#DejaVuSans-35" x="63.623047"/>
       <use xlink:href="#DejaVuSans-30" x="127.246094"/>
      </g>
     </g>
    </g>
    <g id="xtick_5">
     <g id="line2d_5">
      <g>
       <use xlink:href="#m8b6d7aadc8" x="217.721936" y="307.584" style="stroke: #000000; stroke-width: 0.8"/>
      </g>
     </g>
     <g id="text_5">
      <!-- 200 -->
      <g transform="translate(208.178186 322.182437) scale(0.1 -0.1)">
       <defs>
        <path id="DejaVuSans-32" d="M 1228 531 
L 3431 531 
L 3431 0 
L 469 0 
L 469 531 
Q 828 903 1448 1529 
Q 2069 2156 2228 2338 
Q 2531 2678 2651 2914 
Q 2772 3150 2772 3378 
Q 2772 3750 2511 3984 
Q 2250 4219 1831 4219 
Q 1534 4219 1204 4116 
Q 875 4013 500 3803 
L 500 4441 
Q 881 4594 1212 4672 
Q 1544 4750 1819 4750 
Q 2544 4750 2975 4387 
Q 3406 4025 3406 3419 
Q 3406 3131 3298 2873 
Q 3191 2616 2906 2266 
Q 2828 2175 2409 1742 
Q 1991 1309 1228 531 
z
" transform="scale(0.015625)"/>
       </defs>
       <use xlink:href="#DejaVuSans-32"/>
       <use xlink:href="#DejaVuSans-30" x="63.623047"/>
       <use xlink:href="#DejaVuSans-30" x="127.246094"/>
      </g>
     </g>
    </g>
    <g id="xtick_6">
     <g id="line2d_6">
      <g>
       <use xlink:href="#m8b6d7aadc8" x="253.875003" y="307.584" style="stroke: #000000; stroke-width: 0.8"/>
      </g>
     </g>
     <g id="text_6">
      <!-- 250 -->
      <g transform="translate(244.331253 322.182437) scale(0.1 -0.1)">
       <use xlink:href="#DejaVuSans-32"/>
       <use xlink:href="#DejaVuSans-35" x="63.623047"/>
       <use xlink:href="#DejaVuSans-30" x="127.246094"/>
      </g>
     </g>
    </g>
    <g id="xtick_7">
     <g id="line2d_7">
      <g>
       <use xlink:href="#m8b6d7aadc8" x="290.02807" y="307.584" style="stroke: #000000; stroke-width: 0.8"/>
      </g>
     </g>
     <g id="text_7">
      <!-- 300 -->
      <g transform="translate(280.48432 322.182437) scale(0.1 -0.1)">
       <defs>
        <path id="DejaVuSans-33" d="M 2597 2516 
Q 3050 2419 3304 2112 
Q 3559 1806 3559 1356 
Q 3559 666 3084 287 
Q 2609 -91 1734 -91 
Q 1441 -91 1130 -33 
Q 819 25 488 141 
L 488 750 
Q 750 597 1062 519 
Q 1375 441 1716 441 
Q 2309 441 2620 675 
Q 2931 909 2931 1356 
Q 2931 1769 2642 2001 
Q 2353 2234 1838 2234 
L 1294 2234 
L 1294 2753 
L 1863 2753 
Q 2328 2753 2575 2939 
Q 2822 3125 2822 3475 
Q 2822 3834 2567 4026 
Q 2313 4219 1838 4219 
Q 1578 4219 1281 4162 
Q 984 4106 628 3988 
L 628 4550 
Q 988 4650 1302 4700 
Q 1616 4750 1894 4750 
Q 2613 4750 3031 4423 
Q 3450 4097 3450 3541 
Q 3450 3153 3228 2886 
Q 3006 2619 2597 2516 
z
" transform="scale(0.015625)"/>
       </defs>
       <use xlink:href="#DejaVuSans-33"/>
       <use xlink:href="#DejaVuSans-30" x="63.623047"/>
       <use xlink:href="#DejaVuSans-30" x="127.246094"/>
      </g>
     </g>
    </g>
    <g id="xtick_8">
     <g id="line2d_8">
      <g>
       <use xlink:href="#m8b6d7aadc8" x="326.181138" y="307.584" style="stroke: #000000; stroke-width: 0.8"/>
      </g>
     </g>
     <g id="text_8">
      <!-- 350 -->
      <g transform="translate(316.637388 322.182437) scale(0.1 -0.1)">
       <use xlink:href="#DejaVuSans-33"/>
       <use xlink:href="#DejaVuSans-35" x="63.623047"/>
       <use xlink:href="#DejaVuSans-30" x="127.246094"/>
      </g>
     </g>
    </g>
    <g id="xtick_9">
     <g id="line2d_9">
      <g>
       <use xlink:href="#m8b6d7aadc8" x="362.334205" y="307.584" style="stroke: #000000; stroke-width: 0.8"/>
      </g>
     </g>
     <g id="text_9">
      <!-- 400 -->
      <g transform="translate(352.790455 322.182437) scale(0.1 -0.1)">
       <defs>
        <path id="DejaVuSans-34" d="M 2419 4116 
L 825 1625 
L 2419 1625 
L 2419 4116 
z
M 2253 4666 
L 3047 4666 
L 3047 1625 
L 3713 1625 
L 3713 1100 
L 3047 1100 
L 3047 0 
L 2419 0 
L 2419 1100 
L 313 1100 
L 313 1709 
L 2253 4666 
z
" transform="scale(0.015625)"/>
       </defs>
       <use xlink:href="#DejaVuSans-34"/>
       <use xlink:href="#DejaVuSans-30" x="63.623047"/>
       <use xlink:href="#DejaVuSans-30" x="127.246094"/>
      </g>
     </g>
    </g>
    <g id="xtick_10">
     <g id="line2d_10">
      <g>
       <use xlink:href="#m8b6d7aadc8" x="398.487273" y="307.584" style="stroke: #000000; stroke-width: 0.8"/>
      </g>
     </g>
     <g id="text_10">
      <!-- 450 -->
      <g transform="translate(388.943523 322.182437) scale(0.1 -0.1)">
       <use xlink:href="#DejaVuSans-34"/>
       <use xlink:href="#DejaVuSans-35" x="63.623047"/>
       <use xlink:href="#DejaVuSans-30" x="127.246094"/>
      </g>
     </g>
    </g>
    <g id="text_11">
     <!-- Epochs -->
     <g transform="translate(218.244375 335.860562) scale(0.1 -0.1)">
      <defs>
       <path id="DejaVuSans-45" d="M 628 4666 
L 3578 4666 
L 3578 4134 
L 1259 4134 
L 1259 2753 
L 3481 2753 
L 3481 2222 
L 1259 2222 
L 1259 531 
L 3634 531 
L 3634 0 
L 628 0 
L 628 4666 
z
" transform="scale(0.015625)"/>
       <path id="DejaVuSans-70" d="M 1159 525 
L 1159 -1331 
L 581 -1331 
L 581 3500 
L 1159 3500 
L 1159 2969 
Q 1341 3281 1617 3432 
Q 1894 3584 2278 3584 
Q 2916 3584 3314 3078 
Q 3713 2572 3713 1747 
Q 3713 922 3314 415 
Q 2916 -91 2278 -91 
Q 1894 -91 1617 61 
Q 1341 213 1159 525 
z
M 3116 1747 
Q 3116 2381 2855 2742 
Q 2594 3103 2138 3103 
Q 1681 3103 1420 2742 
Q 1159 2381 1159 1747 
Q 1159 1113 1420 752 
Q 1681 391 2138 391 
Q 2594 391 2855 752 
Q 3116 1113 3116 1747 
z
" transform="scale(0.015625)"/>
       <path id="DejaVuSans-6f" d="M 1959 3097 
Q 1497 3097 1228 2736 
Q 959 2375 959 1747 
Q 959 1119 1226 758 
Q 1494 397 1959 397 
Q 2419 397 2687 759 
Q 2956 1122 2956 1747 
Q 2956 2369 2687 2733 
Q 2419 3097 1959 3097 
z
M 1959 3584 
Q 2709 3584 3137 3096 
Q 3566 2609 3566 1747 
Q 3566 888 3137 398 
Q 2709 -91 1959 -91 
Q 1206 -91 779 398 
Q 353 888 353 1747 
Q 353 2609 779 3096 
Q 1206 3584 1959 3584 
z
" transform="scale(0.015625)"/>
       <path id="DejaVuSans-63" d="M 3122 3366 
L 3122 2828 
Q 2878 2963 2633 3030 
Q 2388 3097 2138 3097 
Q 1578 3097 1268 2742 
Q 959 2388 959 1747 
Q 959 1106 1268 751 
Q 1578 397 2138 397 
Q 2388 397 2633 464 
Q 2878 531 3122 666 
L 3122 134 
Q 2881 22 2623 -34 
Q 2366 -91 2075 -91 
Q 1284 -91 818 406 
Q 353 903 353 1747 
Q 353 2603 823 3093 
Q 1294 3584 2113 3584 
Q 2378 3584 2631 3529 
Q 2884 3475 3122 3366 
z
" transform="scale(0.015625)"/>
       <path id="DejaVuSans-68" d="M 3513 2113 
L 3513 0 
L 2938 0 
L 2938 2094 
Q 2938 2591 2744 2837 
Q 2550 3084 2163 3084 
Q 1697 3084 1428 2787 
Q 1159 2491 1159 1978 
L 1159 0 
L 581 0 
L 581 4863 
L 1159 4863 
L 1159 2956 
Q 1366 3272 1645 3428 
Q 1925 3584 2291 3584 
Q 2894 3584 3203 3211 
Q 3513 2838 3513 2113 
z
" transform="scale(0.015625)"/>
       <path id="DejaVuSans-73" d="M 2834 3397 
L 2834 2853 
Q 2591 2978 2328 3040 
Q 2066 3103 1784 3103 
Q 1356 3103 1142 2972 
Q 928 2841 928 2578 
Q 928 2378 1081 2264 
Q 1234 2150 1697 2047 
L 1894 2003 
Q 2506 1872 2764 1633 
Q 3022 1394 3022 966 
Q 3022 478 2636 193 
Q 2250 -91 1575 -91 
Q 1294 -91 989 -36 
Q 684 19 347 128 
L 347 722 
Q 666 556 975 473 
Q 1284 391 1588 391 
Q 1994 391 2212 530 
Q 2431 669 2431 922 
Q 2431 1156 2273 1281 
Q 2116 1406 1581 1522 
L 1381 1569 
Q 847 1681 609 1914 
Q 372 2147 372 2553 
Q 372 3047 722 3315 
Q 1072 3584 1716 3584 
Q 2034 3584 2315 3537 
Q 2597 3491 2834 3397 
z
" transform="scale(0.015625)"/>
      </defs>
      <use xlink:href="#DejaVuSans-45"/>
      <use xlink:href="#DejaVuSans-70" x="63.183594"/>
      <use xlink:href="#DejaVuSans-6f" x="126.660156"/>
      <use xlink:href="#DejaVuSans-63" x="187.841797"/>
      <use xlink:href="#DejaVuSans-68" x="242.822266"/>
      <use xlink:href="#DejaVuSans-73" x="306.201172"/>
     </g>
    </g>
   </g>
   <g id="matplotlib.axis_2">
    <g id="ytick_1">
     <g id="line2d_11">
      <defs>
       <path id="m49d4981966" d="M 0 0 
L -3.5 0 
" style="stroke: #000000; stroke-width: 0.8"/>
      </defs>
      <g>
       <use xlink:href="#m49d4981966" x="57.6" y="284.2139" style="stroke: #000000; stroke-width: 0.8"/>
      </g>
     </g>
     <g id="text_12">
      <!-- 10 -->
      <g transform="translate(37.875 288.013119) scale(0.1 -0.1)">
       <use xlink:href="#DejaVuSans-31"/>
       <use xlink:href="#DejaVuSans-30" x="63.623047"/>
      </g>
     </g>
    </g>
    <g id="ytick_2">
     <g id="line2d_12">
      <g>
       <use xlink:href="#m49d4981966" x="57.6" y="252.879548" style="stroke: #000000; stroke-width: 0.8"/>
      </g>
     </g>
     <g id="text_13">
      <!-- 20 -->
      <g transform="translate(37.875 256.678767) scale(0.1 -0.1)">
       <use xlink:href="#DejaVuSans-32"/>
       <use xlink:href="#DejaVuSans-30" x="63.623047"/>
      </g>
     </g>
    </g>
    <g id="ytick_3">
     <g id="line2d_13">
      <g>
       <use xlink:href="#m49d4981966" x="57.6" y="221.545196" style="stroke: #000000; stroke-width: 0.8"/>
      </g>
     </g>
     <g id="text_14">
      <!-- 30 -->
      <g transform="translate(37.875 225.344414) scale(0.1 -0.1)">
       <use xlink:href="#DejaVuSans-33"/>
       <use xlink:href="#DejaVuSans-30" x="63.623047"/>
      </g>
     </g>
    </g>
    <g id="ytick_4">
     <g id="line2d_14">
      <g>
       <use xlink:href="#m49d4981966" x="57.6" y="190.210843" style="stroke: #000000; stroke-width: 0.8"/>
      </g>
     </g>
     <g id="text_15">
      <!-- 40 -->
      <g transform="translate(37.875 194.010062) scale(0.1 -0.1)">
       <use xlink:href="#DejaVuSans-34"/>
       <use xlink:href="#DejaVuSans-30" x="63.623047"/>
      </g>
     </g>
    </g>
    <g id="ytick_5">
     <g id="line2d_15">
      <g>
       <use xlink:href="#m49d4981966" x="57.6" y="158.876491" style="stroke: #000000; stroke-width: 0.8"/>
      </g>
     </g>
     <g id="text_16">
      <!-- 50 -->
      <g transform="translate(37.875 162.67571) scale(0.1 -0.1)">
       <use xlink:href="#DejaVuSans-35"/>
       <use xlink:href="#DejaVuSans-30" x="63.623047"/>
      </g>
     </g>
    </g>
    <g id="ytick_6">
     <g id="line2d_16">
      <g>
       <use xlink:href="#m49d4981966" x="57.6" y="127.542139" style="stroke: #000000; stroke-width: 0.8"/>
      </g>
     </g>
     <g id="text_17">
      <!-- 60 -->
      <g transform="translate(37.875 131.341358) scale(0.1 -0.1)">
       <defs>
        <path id="DejaVuSans-36" d="M 2113 2584 
Q 1688 2584 1439 2293 
Q 1191 2003 1191 1497 
Q 1191 994 1439 701 
Q 1688 409 2113 409 
Q 2538 409 2786 701 
Q 3034 994 3034 1497 
Q 3034 2003 2786 2293 
Q 2538 2584 2113 2584 
z
M 3366 4563 
L 3366 3988 
Q 3128 4100 2886 4159 
Q 2644 4219 2406 4219 
Q 1781 4219 1451 3797 
Q 1122 3375 1075 2522 
Q 1259 2794 1537 2939 
Q 1816 3084 2150 3084 
Q 2853 3084 3261 2657 
Q 3669 2231 3669 1497 
Q 3669 778 3244 343 
Q 2819 -91 2113 -91 
Q 1303 -91 875 529 
Q 447 1150 447 2328 
Q 447 3434 972 4092 
Q 1497 4750 2381 4750 
Q 2619 4750 2861 4703 
Q 3103 4656 3366 4563 
z
" transform="scale(0.015625)"/>
       </defs>
       <use xlink:href="#DejaVuSans-36"/>
       <use xlink:href="#DejaVuSans-30" x="63.623047"/>
      </g>
     </g>
    </g>
    <g id="ytick_7">
     <g id="line2d_17">
      <g>
       <use xlink:href="#m49d4981966" x="57.6" y="96.207787" style="stroke: #000000; stroke-width: 0.8"/>
      </g>
     </g>
     <g id="text_18">
      <!-- 70 -->
      <g transform="translate(37.875 100.007005) scale(0.1 -0.1)">
       <defs>
        <path id="DejaVuSans-37" d="M 525 4666 
L 3525 4666 
L 3525 4397 
L 1831 0 
L 1172 0 
L 2766 4134 
L 525 4134 
L 525 4666 
z
" transform="scale(0.015625)"/>
       </defs>
       <use xlink:href="#DejaVuSans-37"/>
       <use xlink:href="#DejaVuSans-30" x="63.623047"/>
      </g>
     </g>
    </g>
    <g id="ytick_8">
     <g id="line2d_18">
      <g>
       <use xlink:href="#m49d4981966" x="57.6" y="64.873434" style="stroke: #000000; stroke-width: 0.8"/>
      </g>
     </g>
     <g id="text_19">
      <!-- 80 -->
      <g transform="translate(37.875 68.672653) scale(0.1 -0.1)">
       <defs>
        <path id="DejaVuSans-38" d="M 2034 2216 
Q 1584 2216 1326 1975 
Q 1069 1734 1069 1313 
Q 1069 891 1326 650 
Q 1584 409 2034 409 
Q 2484 409 2743 651 
Q 3003 894 3003 1313 
Q 3003 1734 2745 1975 
Q 2488 2216 2034 2216 
z
M 1403 2484 
Q 997 2584 770 2862 
Q 544 3141 544 3541 
Q 544 4100 942 4425 
Q 1341 4750 2034 4750 
Q 2731 4750 3128 4425 
Q 3525 4100 3525 3541 
Q 3525 3141 3298 2862 
Q 3072 2584 2669 2484 
Q 3125 2378 3379 2068 
Q 3634 1759 3634 1313 
Q 3634 634 3220 271 
Q 2806 -91 2034 -91 
Q 1263 -91 848 271 
Q 434 634 434 1313 
Q 434 1759 690 2068 
Q 947 2378 1403 2484 
z
M 1172 3481 
Q 1172 3119 1398 2916 
Q 1625 2713 2034 2713 
Q 2441 2713 2670 2916 
Q 2900 3119 2900 3481 
Q 2900 3844 2670 4047 
Q 2441 4250 2034 4250 
Q 1625 4250 1398 4047 
Q 1172 3844 1172 3481 
z
" transform="scale(0.015625)"/>
       </defs>
       <use xlink:href="#DejaVuSans-38"/>
       <use xlink:href="#DejaVuSans-30" x="63.623047"/>
      </g>
     </g>
    </g>
    <g id="text_20">
     <!-- Accuracy -->
     <g transform="translate(31.795312 197.356125) rotate(-90) scale(0.1 -0.1)">
      <defs>
       <path id="DejaVuSans-41" d="M 2188 4044 
L 1331 1722 
L 3047 1722 
L 2188 4044 
z
M 1831 4666 
L 2547 4666 
L 4325 0 
L 3669 0 
L 3244 1197 
L 1141 1197 
L 716 0 
L 50 0 
L 1831 4666 
z
" transform="scale(0.015625)"/>
       <path id="DejaVuSans-75" d="M 544 1381 
L 544 3500 
L 1119 3500 
L 1119 1403 
Q 1119 906 1312 657 
Q 1506 409 1894 409 
Q 2359 409 2629 706 
Q 2900 1003 2900 1516 
L 2900 3500 
L 3475 3500 
L 3475 0 
L 2900 0 
L 2900 538 
Q 2691 219 2414 64 
Q 2138 -91 1772 -91 
Q 1169 -91 856 284 
Q 544 659 544 1381 
z
M 1991 3584 
L 1991 3584 
z
" transform="scale(0.015625)"/>
       <path id="DejaVuSans-72" d="M 2631 2963 
Q 2534 3019 2420 3045 
Q 2306 3072 2169 3072 
Q 1681 3072 1420 2755 
Q 1159 2438 1159 1844 
L 1159 0 
L 581 0 
L 581 3500 
L 1159 3500 
L 1159 2956 
Q 1341 3275 1631 3429 
Q 1922 3584 2338 3584 
Q 2397 3584 2469 3576 
Q 2541 3569 2628 3553 
L 2631 2963 
z
" transform="scale(0.015625)"/>
       <path id="DejaVuSans-61" d="M 2194 1759 
Q 1497 1759 1228 1600 
Q 959 1441 959 1056 
Q 959 750 1161 570 
Q 1363 391 1709 391 
Q 2188 391 2477 730 
Q 2766 1069 2766 1631 
L 2766 1759 
L 2194 1759 
z
M 3341 1997 
L 3341 0 
L 2766 0 
L 2766 531 
Q 2569 213 2275 61 
Q 1981 -91 1556 -91 
Q 1019 -91 701 211 
Q 384 513 384 1019 
Q 384 1609 779 1909 
Q 1175 2209 1959 2209 
L 2766 2209 
L 2766 2266 
Q 2766 2663 2505 2880 
Q 2244 3097 1772 3097 
Q 1472 3097 1187 3025 
Q 903 2953 641 2809 
L 641 3341 
Q 956 3463 1253 3523 
Q 1550 3584 1831 3584 
Q 2591 3584 2966 3190 
Q 3341 2797 3341 1997 
z
" transform="scale(0.015625)"/>
       <path id="DejaVuSans-79" d="M 2059 -325 
Q 1816 -950 1584 -1140 
Q 1353 -1331 966 -1331 
L 506 -1331 
L 506 -850 
L 844 -850 
Q 1081 -850 1212 -737 
Q 1344 -625 1503 -206 
L 1606 56 
L 191 3500 
L 800 3500 
L 1894 763 
L 2988 3500 
L 3597 3500 
L 2059 -325 
z
" transform="scale(0.015625)"/>
      </defs>
      <use xlink:href="#DejaVuSans-41"/>
      <use xlink:href="#DejaVuSans-63" x="66.658203"/>
      <use xlink:href="#DejaVuSans-63" x="121.638672"/>
      <use xlink:href="#DejaVuSans-75" x="176.619141"/>
      <use xlink:href="#DejaVuSans-72" x="239.998047"/>
      <use xlink:href="#DejaVuSans-61" x="281.111328"/>
      <use xlink:href="#DejaVuSans-63" x="342.390625"/>
      <use xlink:href="#DejaVuSans-79" x="397.371094"/>
     </g>
    </g>
   </g>
   <g id="line2d_19">
    <path d="M 73.832727 295.488 
L 74.555789 279.626551 
L 76.724973 241.950126 
L 77.448034 231.791529 
L 81.063341 199.391809 
L 81.786402 193.688956 
L 83.232525 183.793568 
L 83.955586 180.453326 
L 84.678647 174.951014 
L 85.401709 172.738808 
L 86.12477 167.875717 
L 86.847832 163.770917 
L 87.570893 162.053794 
L 89.740077 152.553219 
L 90.463138 149.902333 
L 91.1862 148.987369 
L 91.909261 146.060741 
L 92.632322 146.587158 
L 93.355384 143.585327 
L 94.078445 142.726766 
L 94.801506 143.297051 
L 95.524568 171.729842 
L 96.247629 172.563336 
L 96.97069 171.598238 
L 97.693752 168.433468 
L 99.139874 163.369837 
L 99.862936 160.543479 
L 100.585997 159.628516 
L 101.309059 157.203237 
L 102.03212 155.423445 
L 102.755181 153.098436 
L 103.478243 149.52632 
L 104.924365 146.969437 
L 105.647427 145.841401 
L 106.370488 143.090244 
L 107.093549 141.730333 
L 108.539672 137.475128 
L 109.262733 136.472429 
L 110.708856 134.065951 
L 112.154979 129.585139 
L 113.601101 127.341599 
L 114.324163 126.846516 
L 115.047224 124.571642 
L 115.770285 120.849121 
L 116.493347 121.582345 
L 117.216408 119.301204 
L 117.93947 118.003962 
L 118.662531 115.428278 
L 120.108654 113.159671 
L 120.831715 99.679633 
L 121.554776 99.128148 
L 123.000899 94.070784 
L 123.72396 94.252523 
L 125.893144 89.665174 
L 127.339267 88.079656 
L 128.062328 98.56413 
L 129.508451 96.677802 
L 130.231512 95.255222 
L 131.677635 94.484397 
L 132.400696 92.980348 
L 133.123758 90.949882 
L 133.846819 92.046585 
L 134.569881 90.931082 
L 135.292942 91.451232 
L 136.016003 90.335729 
L 136.739065 89.85318 
L 137.462126 90.410931 
L 138.185187 90.197858 
L 138.908249 124.421237 
L 139.63131 128.851915 
L 140.354371 129.453534 
L 141.077433 128.657642 
L 141.800494 125.699679 
L 142.523555 125.110593 
L 143.246617 125.355001 
L 143.969678 123.932421 
L 144.692739 124.239498 
L 146.138862 120.49191 
L 146.861923 120.792719 
L 147.584985 119.808821 
L 148.308046 120.41044 
L 149.031108 117.62795 
L 150.47723 116.00483 
L 151.200292 115.860692 
L 152.646414 113.366478 
L 153.369476 112.658321 
L 154.092537 112.532984 
L 154.815598 110.646656 
L 155.53866 111.975233 
L 156.261721 110.527586 
L 156.984782 110.352113 
L 158.430905 108.697659 
L 159.153966 107.124675 
L 159.877028 109.205276 
L 160.600089 109.261678 
L 161.32315 108.923267 
L 162.769273 105.8337 
L 163.492334 106.986804 
L 164.215396 105.351151 
L 164.938457 104.373519 
L 165.661519 103.822034 
L 166.38458 102.687731 
L 167.107641 102.223982 
L 167.830703 101.503292 
L 168.553764 99.830038 
L 169.276825 100.462992 
L 169.999887 97.94371 
L 170.722948 97.755704 
L 171.446009 98.006378 
L 172.169071 96.972345 
L 172.892132 96.84074 
L 173.615193 96.282989 
L 174.338255 95.305357 
L 175.061316 94.65987 
L 175.784377 93.43783 
L 176.507439 92.673272 
L 177.2305 91.614171 
L 177.953561 91.864845 
L 178.676623 91.820977 
L 179.399684 89.370631 
L 180.122745 88.198726 
L 180.845807 89.821846 
L 181.568868 88.255128 
L 182.29193 86.105591 
L 183.014991 86.393867 
L 183.738052 84.820883 
L 184.461114 85.059024 
L 185.184175 84.52634 
L 185.907236 83.166429 
L 186.630298 82.68388 
L 187.353359 81.856653 
L 188.07642 81.537043 
L 188.799482 79.732184 
L 189.522543 79.92019 
L 190.245604 78.641749 
L 191.691727 77.75812 
L 192.414788 76.793022 
L 193.13785 76.41701 
L 193.860911 76.323007 
L 194.583972 74.687353 
L 195.307034 75.351642 
L 196.753157 72.594219 
L 197.476218 72.694489 
L 198.199279 71.253108 
L 198.922341 70.920964 
L 199.645402 70.081204 
L 200.368463 69.799194 
L 201.091525 69.761593 
L 202.537647 67.568189 
L 203.260709 67.40525 
L 203.98377 68.997035 
L 204.706831 65.167977 
L 205.429893 65.688127 
L 206.152954 65.907468 
L 206.876015 65.76333 
L 207.599077 64.96117 
L 208.322138 65.005039 
L 209.045199 63.789266 
L 209.768261 63.131244 
L 210.491322 63.09991 
L 211.214383 63.206447 
L 211.937445 61.946806 
L 212.660506 61.244916 
L 213.383568 62.423088 
L 214.106629 61.219849 
L 214.82969 60.931573 
L 215.552752 60.405156 
L 216.275813 60.549294 
L 216.998874 60.93784 
L 217.721936 59.458858 
L 218.444997 60.511692 
L 219.168058 60.279818 
L 219.89112 59.389923 
L 220.614181 59.490193 
L 221.337242 59.972742 
L 222.060304 58.957509 
L 222.783365 60.605696 
L 224.229488 58.713101 
L 224.952549 58.89484 
L 225.67561 94.647336 
L 226.398672 101.045811 
L 227.121733 103.27055 
L 227.844794 104.317117 
L 228.567856 103.746832 
L 229.290917 104.147911 
L 230.013979 102.405721 
L 230.73704 102.217715 
L 231.460101 103.007341 
L 232.906224 101.540893 
L 233.629285 102.781734 
L 234.352347 100.945541 
L 235.075408 100.249918 
L 235.798469 100.951807 
L 236.521531 99.967909 
L 237.244592 100.663531 
L 237.967653 100.419123 
L 238.690715 99.397624 
L 239.413776 98.770937 
L 240.136837 98.98401 
L 240.859899 98.56413 
L 241.58296 98.645599 
L 242.306021 97.96251 
L 243.029083 97.96251 
L 243.752144 96.157652 
L 244.475206 96.978612 
L 245.198267 97.611566 
L 245.921328 94.948146 
L 246.64439 96.6214 
L 247.367451 95.969645 
L 248.090512 96.477262 
L 248.813574 95.587366 
L 249.536635 96.182719 
L 250.259696 93.964247 
L 250.982758 95.248955 
L 251.705819 94.471863 
L 252.42888 94.616001 
L 253.151942 94.183587 
L 253.875003 92.829943 
L 254.598064 93.412762 
L 255.321126 91.971382 
L 256.044187 90.89348 
L 256.767248 92.761008 
L 257.49031 91.006284 
L 258.213371 92.322327 
L 258.936432 91.300827 
L 259.659494 91.933781 
L 260.382555 90.830812 
L 261.105617 90.147723 
L 261.828678 89.044754 
L 262.551739 89.65264 
L 263.274801 88.756478 
L 263.997862 89.176358 
L 264.720923 89.790511 
L 265.443985 88.223794 
L 266.167046 87.484303 
L 266.890107 87.897916 
L 267.613169 87.064423 
L 268.33623 86.005321 
L 269.059291 87.058156 
L 269.782353 86.638275 
L 270.505414 86.46907 
L 271.228475 87.058156 
L 271.951537 86.544272 
L 272.674598 86.682143 
L 273.397659 85.535306 
L 274.120721 85.435036 
L 274.843782 85.02769 
L 275.566843 84.413536 
L 276.289905 84.620343 
L 277.012966 83.880852 
L 277.736028 83.341902 
L 278.459089 83.818184 
L 279.18215 83.630178 
L 279.905212 82.238932 
L 280.628273 82.439472 
L 281.351334 82.082261 
L 282.074396 82.144929 
L 282.797457 80.590745 
L 283.520518 82.351736 
L 284.24358 81.273834 
L 284.966641 81.750116 
L 285.689702 80.853954 
L 286.412764 81.14223 
L 287.135825 81.023159 
L 287.858886 80.371405 
L 288.581948 79.255902 
L 289.305009 79.224568 
L 290.02807 79.550445 
L 290.751132 78.585347 
L 291.474193 78.735752 
L 292.197255 77.827056 
L 292.920316 78.829755 
L 293.643377 78.447476 
L 294.366439 76.040997 
L 295.0895 76.310473 
L 295.812561 76.022197 
L 296.535623 75.859258 
L 297.258684 76.918359 
L 297.981745 75.545915 
L 298.704807 75.489513 
L 299.427868 76.166335 
L 300.150929 74.599617 
L 300.873991 75.527114 
L 303.043175 73.484114 
L 303.766236 73.496648 
L 304.489297 72.957697 
L 305.212359 74.098268 
L 305.93542 72.399946 
L 306.658481 72.681955 
L 307.381543 72.0302 
L 308.104604 72.005133 
L 308.827666 70.845762 
L 309.550727 70.952299 
L 310.273788 70.582553 
L 310.99685 70.776826 
L 311.719911 69.435716 
L 312.442972 69.64879 
L 313.166034 69.485851 
L 313.889095 68.796495 
L 314.612156 69.122372 
L 315.335218 68.658624 
L 316.058279 68.370348 
L 316.78134 67.894066 
L 317.504402 68.000603 
L 318.227463 66.672026 
L 318.950524 68.207409 
L 319.673586 67.229778 
L 320.396647 67.511787 
L 321.119708 66.540422 
L 321.84277 66.352416 
L 323.288892 65.099042 
L 324.735015 64.484888 
L 325.458077 64.885968 
L 326.181138 64.8421 
L 326.904199 63.450855 
L 327.627261 63.945937 
L 328.350322 64.146477 
L 329.073383 63.695263 
L 329.796445 63.72033 
L 331.242567 61.414122 
L 331.965629 61.834002 
L 332.68869 61.608395 
L 333.411751 60.787435 
L 334.134813 62.285217 
L 334.857874 60.674631 
L 335.580935 60.311153 
L 336.303997 60.467824 
L 337.027058 61.050643 
L 337.750119 60.03541 
L 338.473181 59.402456 
L 339.196242 59.120447 
L 339.919304 58.468693 
L 340.642365 58.312021 
L 341.365426 58.763236 
L 342.088488 57.810671 
L 342.811549 57.898407 
L 344.257672 56.745303 
L 344.980733 56.970911 
L 345.703794 56.087282 
L 346.426856 56.175018 
L 347.149917 56.970911 
L 347.872978 56.087282 
L 348.59604 56.187552 
L 349.319101 54.733638 
L 350.042162 55.059515 
L 350.765224 54.902843 
L 351.488285 54.106951 
L 352.211346 54.6083 
L 352.934408 54.482963 
L 353.657469 54.633368 
L 354.38053 55.498196 
L 355.103592 55.385392 
L 355.826653 55.059515 
L 356.549715 55.391659 
L 357.272776 55.874208 
L 357.995837 53.718405 
L 358.718899 55.103383 
L 359.44196 54.482963 
L 360.165021 55.203653 
L 360.888083 55.10965 
L 361.611144 55.51073 
L 362.334205 54.915377 
L 363.057267 55.159785 
L 365.226451 55.09085 
L 365.949512 54.777506 
L 366.672573 55.479395 
L 367.395635 55.780205 
L 368.118696 55.761405 
L 368.841757 54.539365 
L 369.564819 54.70857 
L 370.28788 54.320024 
L 371.010941 54.921644 
L 371.734003 53.568 
L 372.457064 54.282423 
L 373.180126 53.96908 
L 373.903187 54.79004 
L 374.626248 53.98788 
L 375.34931 54.796307 
L 376.072371 54.696037 
L 376.795432 54.445362 
L 377.518494 54.752439 
L 378.241555 53.593067 
L 378.964616 54.89031 
L 379.687678 54.213488 
L 381.1338 54.821374 
L 381.856862 54.18842 
L 382.579923 54.106951 
L 383.302984 54.752439 
L 384.026046 54.257356 
L 384.749107 54.902843 
L 385.472168 55.128451 
L 386.19523 54.269889 
L 386.918291 54.858975 
L 387.641353 54.79004 
L 388.364414 55.491929 
L 389.087475 53.875077 
L 389.810537 54.771239 
L 390.533598 53.918945 
L 391.256659 54.395227 
L 391.979721 55.686202 
L 393.425843 55.886742 
L 394.148905 55.147251 
L 394.871966 55.247521 
L 395.595027 54.000414 
L 396.318089 54.627101 
L 397.04115 53.893877 
L 397.764211 54.90911 
L 398.487273 54.526831 
L 398.487273 54.526831 
" clip-path="url(#p00655e6134)" style="fill: none; stroke: #1f77b4; stroke-width: 1.5; stroke-linecap: square"/>
   </g>
   <g id="line2d_20">
    <path d="M 73.832727 283.399207 
L 74.555789 262.6872 
L 76.001911 234.862295 
L 78.171095 189.8975 
L 78.894157 183.943973 
L 80.340279 174.073652 
L 82.509463 151.951599 
L 83.232525 154.865694 
L 83.955586 139.511861 
L 84.678647 139.041846 
L 85.401709 132.054286 
L 86.12477 130.299562 
L 86.847832 132.837644 
L 87.570893 124.972722 
L 88.293954 121.713949 
L 89.017016 124.283366 
L 89.740077 119.927891 
L 90.463138 116.982462 
L 91.1862 115.447079 
L 91.909261 113.097002 
L 92.632322 114.88306 
L 93.355384 112.752325 
L 94.078445 112.376312 
L 94.801506 112.313644 
L 95.524568 139.135849 
L 96.247629 145.246048 
L 96.97069 140.107214 
L 97.693752 136.973779 
L 99.139874 128.607507 
L 99.862936 120.021894 
L 100.585997 121.43194 
L 101.309059 120.2099 
L 102.755181 115.133735 
L 103.478243 121.055928 
L 104.201304 111.404947 
L 104.924365 117.139134 
L 105.647427 106.234779 
L 106.370488 111.749625 
L 107.816611 108.710193 
L 108.539672 107.926834 
L 109.985795 101.534626 
L 110.708856 100.657265 
L 111.431917 101.34662 
L 112.154979 97.868507 
L 112.87804 97.805839 
L 113.601101 95.80044 
L 114.324163 95.831774 
L 115.047224 94.35906 
L 115.770285 93.293692 
L 116.493347 91.789643 
L 117.216408 93.168354 
L 117.93947 91.852312 
L 118.662531 90.191591 
L 119.385592 87.026821 
L 120.108654 87.246162 
L 120.831715 87.778846 
L 121.554776 88.593539 
L 122.277838 87.434168 
L 123.000899 86.682143 
L 123.72396 85.679444 
L 124.447022 84.958754 
L 125.170083 85.084091 
L 125.893144 84.676745 
L 126.616206 81.950656 
L 127.339267 82.890687 
L 128.062328 80.477942 
L 128.78539 79.631914 
L 129.508451 80.791285 
L 130.231512 79.475242 
L 130.954574 80.227267 
L 131.677635 78.221868 
L 132.400696 79.506577 
L 133.123758 78.409874 
L 133.846819 78.002528 
L 134.569881 78.033862 
L 135.292942 78.723218 
L 136.016003 77.845856 
L 136.739065 77.595181 
L 137.462126 77.720519 
L 138.185187 78.002528 
L 138.908249 103.195347 
L 139.63131 102.850669 
L 140.354371 96.865808 
L 141.077433 101.189949 
L 141.800494 95.393093 
L 142.523555 102.192648 
L 143.969678 99.40389 
L 144.692739 99.717234 
L 145.415801 97.116483 
L 146.861923 95.017081 
L 147.584985 96.207787 
L 148.308046 93.732373 
L 149.031108 95.048416 
L 149.754169 94.139719 
L 150.47723 94.139719 
L 151.200292 94.703738 
L 151.923353 90.316928 
L 152.646414 94.829075 
L 153.369476 94.515732 
L 154.092537 89.188892 
L 154.815598 93.168354 
L 155.53866 92.604336 
L 156.261721 90.755609 
L 156.984782 92.949014 
L 157.707844 92.729673 
L 158.430905 89.53357 
L 159.153966 90.97495 
L 159.877028 91.225625 
L 160.600089 87.778846 
L 161.32315 88.906882 
L 162.046212 87.465502 
L 162.769273 87.214827 
L 163.492334 88.562205 
L 164.215396 86.901484 
L 164.938457 85.898785 
L 165.661519 86.180794 
L 166.38458 86.180794 
L 167.107641 88.092189 
L 167.830703 86.619475 
L 168.553764 83.48604 
L 169.276825 83.956055 
L 169.999887 85.554107 
L 170.722948 85.554107 
L 171.446009 80.665948 
L 172.169071 85.460104 
L 172.892132 81.981991 
L 173.615193 83.768049 
L 174.338255 83.611377 
L 175.061316 84.050058 
L 175.784377 82.890687 
L 176.507439 83.047359 
L 177.2305 79.913923 
L 177.953561 80.289936 
L 178.676623 83.830717 
L 179.399684 79.976592 
L 180.122745 79.945258 
L 180.845807 84.238064 
L 181.568868 80.070595 
L 182.29193 77.344506 
L 183.014991 80.164598 
L 183.738052 79.506577 
L 184.461114 79.569245 
L 185.184175 80.227267 
L 185.907236 77.031163 
L 186.630298 79.631914 
L 187.353359 76.93716 
L 188.07642 80.164598 
L 188.799482 75.777789 
L 189.522543 79.412574 
L 190.245604 77.219169 
L 190.968666 77.062497 
L 191.691727 75.683786 
L 192.414788 75.683786 
L 193.13785 76.247804 
L 193.860911 74.900427 
L 194.583972 76.93716 
L 195.307034 74.148403 
L 196.030095 73.55305 
L 196.753157 73.678387 
L 197.476218 74.179737 
L 198.199279 73.741056 
L 198.922341 73.114369 
L 199.645402 72.675688 
L 200.368463 72.989032 
L 201.091525 72.83236 
L 201.814586 71.860995 
L 202.537647 71.10897 
L 203.260709 73.490381 
L 203.98377 72.487682 
L 204.706831 72.957697 
L 205.429893 72.080335 
L 206.152954 71.986332 
L 206.876015 70.88963 
L 207.599077 70.450949 
L 208.322138 71.61032 
L 209.045199 70.983633 
L 209.768261 70.88963 
L 210.491322 71.140305 
L 211.214383 70.795627 
L 211.937445 70.826961 
L 212.660506 71.704323 
L 213.383568 70.325612 
L 214.106629 70.325612 
L 214.82969 71.296977 
L 215.552752 70.450949 
L 216.275813 69.949599 
L 216.998874 70.325612 
L 217.721936 69.886931 
L 218.444997 70.294277 
L 219.168058 69.66759 
L 219.89112 70.356946 
L 220.614181 70.764293 
L 221.337242 69.886931 
L 222.783365 70.482283 
L 223.506426 69.479584 
L 224.229488 70.325612 
L 224.952549 70.16894 
L 225.67561 94.923078 
L 226.398672 92.792342 
L 227.121733 91.852312 
L 227.844794 95.07975 
L 228.567856 94.202388 
L 229.290917 89.282895 
L 230.013979 90.348263 
L 230.73704 91.19429 
L 231.460101 92.353661 
L 232.183163 91.350962 
L 232.906224 88.781545 
L 233.629285 87.778846 
L 234.352347 96.991145 
L 235.075408 94.202388 
L 235.798469 90.4736 
L 236.521531 88.217527 
L 237.244592 89.878247 
L 237.967653 90.379597 
L 238.690715 84.676745 
L 240.136837 91.068953 
L 240.859899 89.188892 
L 241.58296 87.904183 
L 242.306021 87.340165 
L 243.029083 90.128922 
L 243.752144 88.844214 
L 244.475206 83.862052 
L 245.198267 84.739414 
L 245.921328 90.222925 
L 246.64439 89.314229 
L 247.367451 84.394736 
L 248.090512 89.909582 
L 248.813574 87.183493 
L 249.536635 89.502235 
L 250.259696 88.53087 
L 250.982758 85.961453 
L 251.705819 90.880947 
L 252.42888 89.439566 
L 253.151942 90.849612 
L 253.875003 91.444965 
L 254.598064 89.345563 
L 255.321126 92.855011 
L 256.044187 89.03222 
L 256.767248 87.622174 
L 257.49031 85.240763 
L 258.213371 91.726974 
L 258.936432 86.3688 
L 259.659494 84.896085 
L 260.382555 90.786944 
L 261.105617 87.778846 
L 261.828678 83.987389 
L 262.551739 90.786944 
L 263.274801 83.48604 
L 263.997862 87.214827 
L 264.720923 88.468202 
L 265.443985 84.488739 
L 266.167046 87.778846 
L 266.890107 85.710779 
L 267.613169 88.562205 
L 268.33623 87.340165 
L 269.059291 86.807481 
L 269.782353 84.520073 
L 270.505414 88.53087 
L 271.228475 82.859352 
L 272.674598 86.3688 
L 273.397659 85.773447 
L 274.120721 87.183493 
L 274.843782 84.833417 
L 275.566843 83.987389 
L 276.289905 85.334766 
L 277.012966 86.149459 
L 277.736028 81.355304 
L 278.459089 86.337466 
L 279.18215 84.739414 
L 279.905212 80.916623 
L 280.628273 83.016024 
L 281.351334 86.306131 
L 282.074396 83.768049 
L 282.797457 82.358003 
L 283.520518 84.708079 
L 284.24358 85.491438 
L 284.966641 83.20403 
L 285.689702 83.266699 
L 286.412764 84.958754 
L 287.135825 81.76265 
L 287.858886 81.668647 
L 288.581948 81.919322 
L 289.305009 85.898785 
L 290.02807 79.381239 
L 290.751132 84.050058 
L 291.474193 81.856653 
L 292.197255 82.264 
L 292.920316 83.736714 
L 293.643377 80.853954 
L 294.366439 81.637313 
L 295.0895 84.92742 
L 295.812561 83.141362 
L 296.535623 81.699981 
L 297.258684 81.135963 
L 297.981745 83.799383 
L 298.704807 81.417972 
L 299.427868 81.825319 
L 300.150929 83.956055 
L 302.320113 80.101929 
L 303.043175 79.945258 
L 303.766236 80.352604 
L 304.489297 80.32127 
L 305.212359 80.759951 
L 305.93542 82.922021 
L 306.658481 79.067896 
L 307.381543 79.224568 
L 308.827666 78.315871 
L 309.550727 81.574644 
L 310.99685 79.81992 
L 311.719911 79.09923 
L 312.442972 79.694583 
L 313.166034 77.971194 
L 313.889095 79.09923 
L 314.612156 79.224568 
L 315.335218 78.284537 
L 316.058279 78.503878 
L 316.78134 74.99443 
L 317.504402 78.754552 
L 318.950524 75.903126 
L 319.673586 79.193233 
L 321.119708 76.310473 
L 322.565831 78.629215 
L 323.288892 74.712421 
L 324.011954 77.062497 
L 324.735015 76.874491 
L 325.458077 75.965795 
L 326.181138 76.843157 
L 326.904199 78.472543 
L 327.627261 75.903126 
L 328.350322 77.501178 
L 329.073383 76.561148 
L 329.796445 74.555749 
L 330.519506 75.683786 
L 331.242567 73.803725 
L 331.965629 76.122467 
L 332.68869 72.675688 
L 333.411751 73.584384 
L 334.134813 74.681087 
L 334.857874 74.399077 
L 335.580935 73.991731 
L 336.303997 74.179737 
L 337.027058 75.683786 
L 337.750119 73.490381 
L 338.473181 75.871792 
L 339.196242 74.242406 
L 339.919304 72.989032 
L 340.642365 72.895028 
L 341.365426 72.644354 
L 342.088488 72.049001 
L 342.811549 71.986332 
L 343.53461 73.929062 
L 344.257672 73.647053 
L 344.980733 73.083035 
L 346.426856 72.519016 
L 347.149917 72.33101 
L 347.872978 71.265642 
L 348.59604 71.82966 
L 349.319101 73.365044 
L 350.042162 72.049001 
L 350.765224 71.171639 
L 352.211346 71.82966 
L 352.934408 72.017667 
L 353.657469 70.576286 
L 354.38053 72.456348 
L 355.103592 71.422314 
L 355.826653 71.766992 
L 357.272776 73.177038 
L 357.995837 71.516317 
L 358.718899 71.077636 
L 359.44196 71.766992 
L 360.165021 72.299676 
L 360.888083 71.296977 
L 361.611144 72.519016 
L 362.334205 71.046302 
L 363.057267 71.171639 
L 363.780328 72.456348 
L 364.503389 72.83236 
L 365.226451 73.521716 
L 365.949512 71.892329 
L 366.672573 71.892329 
L 367.395635 72.049001 
L 368.118696 71.202973 
L 368.841757 71.641654 
L 369.564819 70.952299 
L 370.28788 72.205673 
L 371.010941 72.519016 
L 371.734003 72.11167 
L 372.457064 72.550351 
L 373.180126 71.014967 
L 373.903187 72.487682 
L 374.626248 71.672989 
L 375.34931 71.516317 
L 376.072371 73.365044 
L 376.795432 71.735657 
L 377.518494 73.584384 
L 378.241555 72.049001 
L 378.964616 72.738357 
L 379.687678 72.550351 
L 380.410739 71.234308 
L 381.1338 72.017667 
L 381.856862 72.456348 
L 382.579923 73.929062 
L 383.302984 73.271041 
L 384.026046 72.11167 
L 384.749107 73.208372 
L 386.19523 72.017667 
L 386.918291 73.177038 
L 387.641353 70.544952 
L 388.364414 72.237007 
L 389.810537 71.077636 
L 390.533598 72.487682 
L 391.256659 71.516317 
L 391.979721 72.080335 
L 392.702782 70.983633 
L 393.425843 70.952299 
L 394.148905 72.769691 
L 394.871966 72.519016 
L 395.595027 71.10897 
L 396.318089 72.957697 
L 397.04115 72.644354 
L 397.764211 71.422314 
L 398.487273 73.929062 
L 398.487273 73.929062 
" clip-path="url(#p00655e6134)" style="fill: none; stroke: #ff7f0e; stroke-width: 1.5; stroke-linecap: square"/>
   </g>
   <g id="line2d_21">
    <path d="M 73.832727 283.727591 
L 74.555789 265.996734 
L 75.27885 238.39023 
L 76.001911 223.868324 
L 76.724973 236.25072 
L 77.448034 210.761792 
L 78.171095 199.935146 
L 78.894157 198.595603 
L 79.617218 190.956288 
L 80.340279 187.660854 
L 81.063341 188.427919 
L 81.786402 180.432332 
L 82.509463 181.156156 
L 83.232525 177.039762 
L 83.955586 165.240498 
L 84.678647 165.002984 
L 85.401709 160.389314 
L 86.12477 157.720253 
L 86.847832 156.359089 
L 87.570893 151.075177 
L 89.017016 156.07802 
L 90.463138 149.314187 
L 91.1862 149.670772 
L 91.909261 144.268103 
L 92.632322 146.094269 
L 93.355384 146.396645 
L 94.078445 145.737684 
L 94.801506 145.467582 
L 95.524568 180.291954 
L 96.247629 166.483218 
L 96.97069 163.576644 
L 98.416813 168.36328 
L 99.139874 169.821894 
L 99.862936 154.003373 
L 100.585997 147.887847 
L 101.309059 153.52803 
L 102.03212 154.705889 
L 102.755181 153.895269 
L 103.478243 158.908765 
L 104.201304 151.323972 
L 104.924365 156.99643 
L 105.647427 156.056399 
L 106.370488 153.614513 
L 107.093549 146.126543 
L 107.816611 144.829928 
L 108.539672 141.620977 
L 109.262733 152.091037 
L 109.985795 152.91231 
L 110.708856 144.754412 
L 111.431917 139.6654 
L 112.154979 141.588702 
L 112.87804 145.262342 
L 113.601101 140.345982 
L 114.324163 138.325543 
L 115.047224 138.768611 
L 115.770285 136.07793 
L 116.493347 140.616084 
L 117.216408 138.120303 
L 117.93947 134.414076 
L 118.662531 128.29855 
L 119.385592 131.842465 
L 120.108654 137.914749 
L 120.831715 132.101827 
L 121.554776 130.308206 
L 122.277838 133.603715 
L 123.000899 129.962447 
L 123.72396 133.646935 
L 124.447022 131.291456 
L 125.170083 130.38384 
L 125.893144 126.753378 
L 126.616206 133.560495 
L 127.339267 132.242292 
L 128.062328 128.017557 
L 129.508451 128.935977 
L 130.954574 123.771212 
L 131.677635 123.306599 
L 132.400696 123.911676 
L 133.123758 123.987311 
L 133.846819 124.711242 
L 134.569881 124.07375 
L 135.292942 125.089415 
L 136.016003 123.511893 
L 136.739065 123.587527 
L 137.462126 124.09536 
L 138.185187 124.041335 
L 138.908249 148.157982 
L 139.63131 145.110986 
L 140.354371 146.839778 
L 141.077433 142.906776 
L 141.800494 141.275229 
L 142.523555 143.933247 
L 143.246617 144.667983 
L 143.969678 147.077487 
L 145.415801 140.951081 
L 146.138862 143.565878 
L 146.861923 137.061299 
L 148.308046 143.414609 
L 149.031108 141.512938 
L 149.754169 144.776033 
L 150.47723 141.253619 
L 151.200292 142.593433 
L 151.923353 134.197987 
L 152.646414 145.726868 
L 153.369476 146.148261 
L 154.092537 138.628017 
L 154.815598 138.573992 
L 155.53866 144.376249 
L 156.261721 142.009966 
L 156.984782 143.792782 
L 157.707844 137.428667 
L 158.430905 140.400028 
L 159.153966 137.87167 
L 159.877028 133.754985 
L 160.600089 131.280651 
L 161.32315 134.878699 
L 162.046212 135.829535 
L 162.769273 135.235263 
L 164.215396 134.597771 
L 164.938457 128.968392 
L 165.661519 141.188789 
L 166.38458 133.992693 
L 167.107641 129.767958 
L 168.553764 137.136934 
L 169.276825 137.482692 
L 169.999887 131.550775 
L 170.722948 133.290372 
L 171.446009 127.855482 
L 172.169071 128.168826 
L 172.892132 125.489198 
L 173.615193 130.5135 
L 174.338255 127.844677 
L 175.784377 131.43192 
L 176.507439 127.531334 
L 177.2305 125.899787 
L 177.953561 129.962447 
L 178.676623 132.307121 
L 179.399684 127.001891 
L 180.122745 127.315235 
L 180.845807 128.741488 
L 181.568868 123.198549 
L 182.29193 125.532418 
L 183.014991 122.636692 
L 183.738052 127.466504 
L 184.461114 124.668022 
L 185.184175 130.988918 
L 185.907236 121.718271 
L 186.630298 125.586443 
L 187.353359 124.700437 
L 188.07642 129.011612 
L 188.799482 127.596164 
L 189.522543 118.930594 
L 190.245604 124.732852 
L 190.968666 122.939231 
L 191.691727 126.115886 
L 192.414788 123.717187 
L 193.860911 127.001891 
L 194.583972 128.633439 
L 195.307034 126.342789 
L 196.030095 122.615082 
L 196.753157 123.533503 
L 197.476218 122.053225 
L 198.199279 121.901955 
L 199.645402 120.086724 
L 200.368463 123.306599 
L 201.091525 117.558366 
L 201.814586 119.665331 
L 202.537647 117.871709 
L 203.260709 121.880345 
L 203.98377 116.542701 
L 204.706831 120.075919 
L 205.429893 121.988395 
L 206.152954 121.232049 
L 206.876015 117.78527 
L 207.599077 119.708551 
L 208.322138 119.935455 
L 209.045199 117.147778 
L 209.768261 117.223412 
L 210.491322 118.995424 
L 211.214383 119.265548 
L 211.937445 121.307683 
L 212.660506 119.88143 
L 213.383568 120.356848 
L 214.106629 118.509201 
L 214.82969 119.027839 
L 215.552752 119.146693 
L 216.275813 119.643721 
L 216.998874 118.509201 
L 217.721936 119.449232 
L 218.444997 119.114279 
L 219.168058 119.049449 
L 219.89112 118.865765 
L 220.614181 119.287158 
L 221.337242 118.433567 
L 222.060304 119.708551 
L 222.783365 118.660471 
L 223.506426 118.303907 
L 224.229488 118.952204 
L 224.952549 118.217468 
L 225.67561 143.987271 
L 226.398672 147.304391 
L 227.121733 141.113155 
L 227.844794 138.541577 
L 228.567856 134.360062 
L 229.290917 138.130989 
L 230.013979 137.9365 
L 230.73704 143.144485 
L 231.460101 142.733897 
L 232.183163 143.371389 
L 232.906224 130.286596 
L 234.352347 144.008881 
L 235.075408 138.012134 
L 235.798469 141.729037 
L 236.521531 140.929471 
L 237.967653 136.164488 
L 238.690715 132.101827 
L 239.413776 132.371951 
L 240.136837 144.948912 
L 240.859899 138.379503 
L 241.58296 135.937584 
L 242.306021 135.181238 
L 243.029083 137.158543 
L 243.752144 136.585881 
L 244.475206 127.455699 
L 245.198267 140.119099 
L 245.921328 140.129904 
L 246.64439 141.026715 
L 247.367451 135.354117 
L 248.813574 140.259564 
L 249.536635 139.492412 
L 250.259696 141.307644 
L 250.982758 133.938669 
L 251.705819 139.297923 
L 252.42888 130.113717 
L 253.151942 140.205539 
L 253.875003 137.385447 
L 254.598064 133.852229 
L 255.321126 149.767919 
L 256.044187 137.763621 
L 256.767248 131.593995 
L 257.49031 130.686379 
L 258.213371 141.08074 
L 258.936432 133.809009 
L 259.659494 133.61452 
L 260.382555 135.321702 
L 261.105617 134.64099 
L 261.828678 138.519967 
L 262.551739 137.180153 
L 263.274801 131.831704 
L 263.997862 133.031053 
L 264.720923 133.809009 
L 265.443985 135.289287 
L 266.167046 141.026715 
L 266.890107 133.095883 
L 267.613169 137.612351 
L 268.33623 137.623156 
L 269.059291 134.554551 
L 269.782353 125.348734 
L 270.505414 138.844116 
L 271.228475 132.750124 
L 271.951537 135.526996 
L 272.674598 132.371951 
L 273.397659 135.494581 
L 274.120721 142.809532 
L 274.843782 129.270931 
L 275.566843 130.578329 
L 276.289905 135.81873 
L 277.012966 134.295232 
L 277.736028 124.473533 
L 278.459089 130.740404 
L 279.18215 128.503779 
L 279.905212 125.294709 
L 280.628273 130.481085 
L 281.351334 133.72257 
L 282.074396 130.124522 
L 282.797457 121.167219 
L 283.520518 128.114801 
L 284.24358 133.182322 
L 284.966641 129.821983 
L 285.689702 132.231487 
L 286.412764 122.896011 
L 287.135825 127.099136 
L 287.858886 130.589134 
L 288.581948 129.37898 
L 289.305009 127.380065 
L 290.02807 127.401674 
L 290.751132 135.300092 
L 291.474193 129.616689 
L 292.197255 132.436781 
L 292.920316 133.236347 
L 293.643377 132.814954 
L 294.366439 131.032137 
L 295.812561 128.568609 
L 296.535623 122.528642 
L 297.258684 132.912198 
L 297.981745 125.089415 
L 298.704807 136.726345 
L 299.427868 124.981366 
L 300.150929 134.81387 
L 300.873991 129.044027 
L 302.320113 129.249321 
L 303.043175 124.646412 
L 303.766236 124.268239 
L 304.489297 125.618858 
L 305.212359 131.291456 
L 305.93542 133.852229 
L 306.658481 127.174771 
L 307.381543 130.999722 
L 308.104604 129.551859 
L 308.827666 129.33576 
L 309.550727 132.998638 
L 310.273788 124.430313 
L 310.99685 132.004583 
L 311.719911 127.790653 
L 312.442972 126.029446 
L 313.166034 125.445979 
L 313.889095 129.767958 
L 314.612156 121.437343 
L 315.335218 121.621027 
L 316.058279 124.397899 
L 316.78134 119.351987 
L 317.504402 125.554028 
L 318.227463 125.694493 
L 318.950524 124.300654 
L 319.673586 129.087247 
L 320.396647 127.336845 
L 321.119708 126.774987 
L 321.84277 127.552944 
L 322.565831 125.629663 
L 323.288892 123.263379 
L 324.011954 122.690717 
L 324.735015 131.928948 
L 325.458077 125.554028 
L 326.181138 129.951642 
L 326.904199 125.25149 
L 327.627261 128.979197 
L 328.350322 128.028362 
L 329.073383 130.459475 
L 329.796445 127.585359 
L 330.519506 130.016472 
L 331.242567 123.749602 
L 331.965629 118.584836 
L 332.68869 119.017034 
L 334.134813 121.210439 
L 334.857874 123.166134 
L 335.580935 120.097529 
L 336.303997 121.577807 
L 337.027058 127.228795 
L 337.750119 120.356848 
L 338.473181 118.617251 
L 339.196242 123.641552 
L 339.919304 120.281213 
L 340.642365 118.217468 
L 341.365426 121.069974 
L 342.088488 119.092669 
L 342.811549 117.644805 
L 343.53461 119.654526 
L 344.257672 122.053225 
L 344.980733 120.119139 
L 345.703794 121.275268 
L 346.426856 121.134804 
L 347.149917 121.437343 
L 347.872978 114.857129 
L 348.59604 119.373597 
L 349.319101 118.293102 
L 350.042162 120.961925 
L 350.765224 122.269324 
L 351.488285 119.83821 
L 352.211346 119.978674 
L 352.934408 121.167219 
L 353.657469 118.714495 
L 354.38053 121.394123 
L 355.103592 122.950035 
L 355.826653 121.448148 
L 356.549715 120.778241 
L 357.272776 123.598332 
L 357.995837 121.847931 
L 358.718899 120.529727 
L 359.44196 122.852791 
L 360.165021 121.286073 
L 360.888083 123.058085 
L 361.611144 116.67236 
L 362.334205 121.95598 
L 363.057267 122.128859 
L 363.780328 121.826321 
L 364.503389 124.505948 
L 365.226451 122.658302 
L 365.949512 117.925734 
L 366.672573 119.676136 
L 367.395635 119.351987 
L 368.118696 115.775549 
L 368.841757 119.276353 
L 369.564819 119.686941 
L 370.28788 121.577807 
L 371.010941 119.892235 
L 371.734003 118.919789 
L 372.457064 117.147778 
L 373.180126 118.74691 
L 373.903187 122.139664 
L 374.626248 120.810656 
L 376.072371 121.588612 
L 376.795432 121.005145 
L 377.518494 120.92951 
L 378.241555 121.664247 
L 378.964616 123.771212 
L 379.687678 122.323348 
L 380.410739 121.93437 
L 381.1338 124.16019 
L 381.856862 122.139664 
L 382.579923 125.662078 
L 383.302984 120.119139 
L 384.026046 120.670191 
L 384.749107 120.605362 
L 385.472168 122.690717 
L 386.19523 121.188829 
L 386.918291 122.971645 
L 387.641353 122.690717 
L 388.364414 122.269324 
L 389.087475 125.921396 
L 389.810537 121.858736 
L 390.533598 118.520006 
L 391.256659 122.355763 
L 391.979721 121.426538 
L 392.702782 123.295794 
L 393.425843 122.993255 
L 394.148905 118.70369 
L 394.871966 121.080779 
L 395.595027 125.337929 
L 396.318089 124.13858 
L 397.04115 126.375204 
L 397.764211 119.200718 
L 398.487273 126.342789 
L 398.487273 126.342789 
" clip-path="url(#p00655e6134)" style="fill: none; stroke: #2ca02c; stroke-width: 1.5; stroke-linecap: square"/>
   </g>
   <g id="line2d_22">
    <path d="M 73.832727 293.112856 
L 74.555789 289.070725 
L 75.27885 282.27117 
L 76.001911 280.767121 
L 76.724973 276.850327 
L 77.448034 266.980006 
L 78.171095 265.413289 
L 79.617218 260.995145 
L 80.340279 255.480299 
L 81.063341 240.815822 
L 81.786402 248.43007 
L 82.509463 237.619718 
L 83.232525 241.348506 
L 83.955586 231.321513 
L 84.678647 227.060042 
L 85.401709 228.532756 
L 86.12477 221.513861 
L 86.847832 216.625702 
L 87.570893 213.711607 
L 88.293954 212.050887 
L 89.017016 211.549537 
L 89.740077 208.76078 
L 90.463138 203.151931 
L 91.1862 205.157329 
L 91.909261 202.493909 
L 92.632322 202.963925 
L 93.355384 204.624645 
L 94.078445 202.556578 
L 94.801506 202.368572 
L 95.524568 225.148646 
L 96.247629 229.848799 
L 96.97069 224.302619 
L 97.693752 224.333953 
L 99.139874 214.651638 
L 99.862936 207.570074 
L 100.585997 209.324798 
L 101.309059 207.444737 
L 102.03212 202.149232 
L 102.755181 205.502007 
L 103.478243 205.502007 
L 104.201304 206.912053 
L 104.924365 202.775919 
L 105.647427 192.874263 
L 106.370488 201.177867 
L 107.093549 187.892101 
L 107.816611 193.50095 
L 108.539672 194.597653 
L 109.262733 189.020138 
L 109.985795 195.036334 
L 110.708856 185.698697 
L 111.431917 182.565261 
L 112.154979 181.90724 
L 112.87804 176.611734 
L 113.601101 175.233023 
L 114.324163 171.942916 
L 115.047224 177.144418 
L 115.770285 167.775447 
L 116.493347 174.606336 
L 117.216408 173.41563 
L 117.93947 167.242763 
L 118.662531 172.412931 
L 119.385592 167.86945 
L 120.108654 164.360003 
L 120.831715 167.963453 
L 121.554776 160.443209 
L 122.277838 163.54531 
L 123.000899 158.782488 
L 123.72396 162.166598 
L 124.447022 161.351905 
L 125.170083 154.458347 
L 125.893144 158.093132 
L 126.616206 156.965096 
L 127.339267 154.583685 
L 128.062328 156.463746 
L 128.78539 154.270341 
L 129.508451 156.683086 
L 130.231512 157.059099 
L 130.954574 158.500479 
L 131.677635 154.395679 
L 132.400696 155.0537 
L 133.123758 154.239007 
L 133.846819 154.677688 
L 134.569881 154.145004 
L 135.292942 153.988332 
L 136.016003 154.019666 
L 136.739065 154.55235 
L 137.462126 154.207673 
L 138.185187 154.11367 
L 138.908249 175.452363 
L 139.63131 180.497194 
L 140.354371 178.272455 
L 141.077433 184.100645 
L 141.800494 177.30109 
L 143.246617 187.986104 
L 143.969678 182.753267 
L 144.692739 179.901841 
L 145.415801 178.805139 
L 146.138862 173.728974 
L 146.861923 181.781903 
L 147.584985 178.867808 
L 148.308046 176.5804 
L 149.031108 171.942916 
L 150.47723 178.02178 
L 151.200292 175.985047 
L 151.923353 168.840815 
L 152.646414 175.828376 
L 153.369476 175.922379 
L 154.092537 173.070953 
L 154.815598 173.728974 
L 155.53866 171.566904 
L 156.261721 172.600937 
L 156.984782 167.368101 
L 157.707844 173.446965 
L 158.430905 168.214128 
L 159.153966 169.498836 
L 159.877028 166.177395 
L 160.600089 169.122824 
L 161.32315 171.472901 
L 162.046212 163.639313 
L 163.492334 172.412931 
L 164.215396 164.328668 
L 164.938457 168.026122 
L 165.661519 163.169297 
L 166.38458 166.052058 
L 167.107641 163.827319 
L 167.830703 156.369743 
L 168.553764 161.539911 
L 169.276825 161.351905 
L 169.999887 165.018024 
L 170.722948 169.749511 
L 171.446009 165.300033 
L 172.169071 165.582042 
L 172.892132 160.756552 
L 173.615193 164.704681 
L 174.338255 157.435111 
L 175.061316 158.093132 
L 175.784377 160.443209 
L 176.507439 158.030464 
L 177.2305 156.181737 
L 177.953561 160.662549 
L 178.676623 156.620418 
L 180.122745 160.537212 
L 180.845807 161.978592 
L 181.568868 159.377841 
L 182.29193 158.249804 
L 183.014991 161.038561 
L 183.738052 153.706323 
L 184.461114 159.189835 
L 185.184175 158.719819 
L 185.907236 152.108271 
L 186.630298 160.067196 
L 187.353359 158.21847 
L 188.07642 154.270341 
L 188.799482 153.392979 
L 189.522543 154.458347 
L 190.245604 157.623117 
L 191.691727 153.267642 
L 192.414788 160.223868 
L 193.13785 152.39028 
L 193.860911 152.672289 
L 194.583972 154.803025 
L 195.307034 149.664191 
L 196.030095 153.862995 
L 196.753157 150.572888 
L 197.476218 151.638256 
L 198.199279 154.082335 
L 198.922341 151.199575 
L 199.645402 155.649053 
L 200.368463 146.875434 
L 201.091525 148.316814 
L 201.814586 150.792228 
L 202.537647 151.011569 
L 203.260709 153.988332 
L 203.98377 149.695526 
L 204.706831 152.766292 
L 205.429893 150.980234 
L 206.152954 151.136906 
L 206.876015 149.00617 
L 207.599077 151.481584 
L 208.322138 149.194176 
L 209.045199 152.233608 
L 209.768261 151.857596 
L 210.491322 151.105572 
L 211.214383 152.108271 
L 211.937445 151.418915 
L 212.660506 152.045602 
L 213.383568 153.956998 
L 214.106629 150.854897 
L 214.82969 150.917566 
L 215.552752 150.572888 
L 216.275813 151.45025 
L 217.721936 149.820863 
L 218.444997 151.293578 
L 219.89112 149.476185 
L 220.614181 151.387581 
L 221.337242 151.606921 
L 222.060304 150.854897 
L 222.783365 151.700924 
L 223.506426 149.538854 
L 224.229488 150.071538 
L 224.952549 153.173639 
L 225.67561 161.163899 
L 226.398672 171.692241 
L 227.121733 170.658207 
L 227.844794 176.298391 
L 228.567856 178.617133 
L 229.290917 170.783545 
L 230.013979 177.207087 
L 230.73704 166.052058 
L 231.460101 168.026122 
L 232.183163 177.175753 
L 232.906224 166.42807 
L 233.629285 168.715478 
L 234.352347 173.634971 
L 235.075408 168.433468 
L 235.798469 166.240064 
L 237.244592 168.276797 
L 237.967653 170.689542 
L 238.690715 158.406476 
L 239.413776 161.665248 
L 240.136837 179.557164 
L 240.859899 169.561505 
L 241.58296 169.530171 
L 242.306021 162.949957 
L 243.029083 164.924021 
L 243.752144 162.197932 
L 244.475206 153.894329 
L 245.198267 165.613377 
L 245.921328 167.054757 
L 246.64439 167.587441 
L 247.367451 158.155801 
L 248.090512 169.59284 
L 248.813574 166.271398 
L 249.536635 167.556107 
L 250.259696 164.360003 
L 250.982758 159.127166 
L 251.705819 175.64037 
L 252.42888 158.563148 
L 253.151942 166.772748 
L 253.875003 172.69494 
L 254.598064 170.062855 
L 255.321126 174.261658 
L 256.044187 171.598238 
L 256.767248 172.506934 
L 257.49031 163.106629 
L 258.213371 173.854311 
L 258.936432 157.153102 
L 259.659494 164.767349 
L 260.382555 164.892687 
L 261.105617 175.170354 
L 261.828678 160.975893 
L 262.551739 170.376198 
L 263.274801 169.467502 
L 263.997862 166.490739 
L 264.720923 165.519374 
L 265.443985 158.625816 
L 266.167046 168.151459 
L 266.890107 156.965096 
L 267.613169 165.958055 
L 269.059291 171.817579 
L 269.782353 165.268699 
L 270.505414 171.535569 
L 271.228475 158.845157 
L 271.951537 167.556107 
L 272.674598 164.830018 
L 273.397659 171.128223 
L 274.120721 172.287594 
L 274.843782 160.537212 
L 275.566843 164.736015 
L 277.012966 158.43781 
L 278.459089 168.151459 
L 279.18215 168.245462 
L 279.905212 162.166598 
L 280.628273 161.947258 
L 281.351334 168.934818 
L 282.074396 158.187135 
L 282.797457 159.847856 
L 283.520518 166.083392 
L 284.24358 162.448607 
L 284.966641 164.516674 
L 285.689702 158.688485 
L 286.412764 166.898085 
L 287.135825 155.931062 
L 287.858886 155.680387 
L 288.581948 156.119068 
L 289.305009 165.425371 
L 290.02807 154.489682 
L 290.751132 167.994788 
L 291.474193 163.889987 
L 292.197255 165.770049 
L 292.920316 164.704681 
L 293.643377 153.925663 
L 294.366439 158.093132 
L 295.0895 164.109328 
L 295.812561 158.93916 
L 296.535623 166.020723 
L 297.258684 161.195233 
L 297.981745 164.422671 
L 298.704807 163.200632 
L 299.427868 154.959697 
L 300.150929 161.226567 
L 300.873991 157.779789 
L 301.597052 163.388638 
L 302.320113 155.805725 
L 303.043175 153.768992 
L 303.766236 165.456705 
L 304.489297 155.022366 
L 305.212359 167.744113 
L 305.93542 167.274097 
L 306.658481 158.907825 
L 307.381543 162.197932 
L 308.104604 156.683086 
L 308.827666 161.257902 
L 309.550727 166.584742 
L 310.273788 161.60258 
L 310.99685 165.676045 
L 311.719911 158.531813 
L 312.442972 158.782488 
L 313.166034 161.571245 
L 313.889095 150.917566 
L 314.612156 156.27574 
L 315.335218 154.803025 
L 316.058279 152.452949 
L 316.78134 152.672289 
L 317.504402 163.952656 
L 318.227463 164.736015 
L 318.950524 150.635556 
L 319.673586 157.529114 
L 320.396647 155.680387 
L 321.119708 152.076937 
L 321.84277 152.515618 
L 322.565831 155.680387 
L 323.288892 152.045602 
L 324.011954 153.392979 
L 324.735015 163.388638 
L 325.458077 163.98399 
L 326.181138 156.839758 
L 326.904199 157.027764 
L 327.627261 158.719819 
L 328.350322 150.917566 
L 329.073383 163.04396 
L 329.796445 156.150402 
L 330.519506 159.189835 
L 331.242567 157.529114 
L 331.965629 154.928363 
L 332.68869 150.259544 
L 333.411751 155.77439 
L 334.134813 160.067196 
L 334.857874 154.991031 
L 335.580935 152.672289 
L 337.027058 162.605279 
L 337.750119 155.586384 
L 338.473181 161.351905 
L 339.196242 162.918622 
L 339.919304 151.105572 
L 341.365426 159.87919 
L 342.088488 154.677688 
L 343.53461 155.837059 
L 344.257672 159.1585 
L 344.980733 150.290879 
L 345.703794 155.304375 
L 346.426856 151.794927 
L 347.149917 152.922964 
L 347.872978 148.880833 
L 349.319101 152.609621 
L 350.042162 157.779789 
L 350.765224 151.920265 
L 351.488285 153.61232 
L 352.211346 159.847856 
L 352.934408 161.351905 
L 353.657469 153.142305 
L 354.38053 159.597181 
L 355.103592 154.991031 
L 355.826653 151.136906 
L 356.549715 152.014268 
L 357.272776 156.871093 
L 357.995837 152.296277 
L 358.718899 158.281138 
L 359.44196 154.145004 
L 360.165021 153.768992 
L 360.888083 154.55235 
L 361.611144 157.748454 
L 362.334205 158.907825 
L 363.057267 153.016967 
L 363.780328 149.789529 
L 364.503389 153.61232 
L 365.226451 153.925663 
L 365.949512 156.401077 
L 366.672573 162.260601 
L 368.118696 150.44755 
L 368.841757 149.695526 
L 369.564819 159.973193 
L 370.28788 153.956998 
L 371.010941 162.918622 
L 371.734003 157.372442 
L 372.457064 155.273041 
L 373.180126 157.435111 
L 374.626248 152.703624 
L 375.34931 155.649053 
L 376.072371 159.471844 
L 376.795432 155.711721 
L 377.518494 153.424314 
L 378.241555 162.636613 
L 378.964616 154.583685 
L 379.687678 162.041261 
L 380.410739 154.709022 
L 381.1338 151.042903 
L 381.856862 158.406476 
L 382.579923 160.067196 
L 383.302984 157.623117 
L 384.026046 161.978592 
L 384.749107 151.544253 
L 385.472168 162.009926 
L 386.19523 151.387581 
L 386.918291 151.544253 
L 387.641353 151.011569 
L 388.364414 153.956998 
L 389.087475 155.116369 
L 389.810537 149.068839 
L 390.533598 160.568546 
L 391.256659 157.21577 
L 391.979721 152.358946 
L 392.702782 152.672289 
L 393.425843 155.0537 
L 394.148905 155.147703 
L 394.871966 163.419972 
L 395.595027 150.510219 
L 396.318089 157.435111 
L 397.04115 157.842457 
L 397.764211 158.594482 
L 398.487273 161.696583 
L 398.487273 161.696583 
" clip-path="url(#p00655e6134)" style="fill: none; stroke: #d62728; stroke-width: 1.5; stroke-linecap: square"/>
   </g>
   <g id="line2d_23">
    <path d="M 351.488285 70.356946 
L 352.211346 71.547651 
L 352.934408 71.202973 
L 353.657469 71.892329 
L 354.38053 71.077636 
L 355.103592 71.860995 
L 355.826653 72.989032 
L 356.549715 73.490381 
L 357.272776 74.555749 
L 357.995837 72.926363 
L 358.718899 74.555749 
L 359.44196 74.305074 
L 360.165021 72.83236 
L 360.888083 74.618418 
L 361.611144 76.749154 
L 362.334205 76.153801 
L 363.057267 75.401777 
L 363.780328 74.837758 
L 364.503389 74.743755 
L 365.226451 75.965795 
L 365.949512 75.71512 
L 366.672573 77.43851 
L 367.395635 78.566546 
L 368.118696 76.811823 
L 369.564819 77.1565 
L 370.28788 79.537911 
L 371.010941 76.93716 
L 371.734003 76.341807 
L 372.457064 78.065197 
L 373.180126 80.195933 
L 373.903187 77.689184 
L 374.626248 79.81992 
L 375.34931 78.848555 
L 376.072371 79.725917 
L 376.795432 82.013325 
L 377.518494 86.525472 
L 378.241555 79.318571 
L 378.964616 82.514675 
L 379.687678 81.511975 
L 380.410739 83.078693 
L 381.1338 81.104629 
L 381.856862 80.634613 
L 382.579923 81.919322 
L 383.302984 86.086791 
L 384.026046 84.582742 
L 384.749107 86.462803 
L 385.472168 84.238064 
L 386.19523 86.055456 
L 386.918291 84.708079 
L 387.641353 87.120824 
L 388.364414 90.630272 
L 389.087475 91.037618 
L 390.533598 95.643768 
L 391.256659 93.199689 
L 391.979721 93.011683 
L 392.702782 95.267756 
L 393.425843 91.852312 
L 394.148905 90.97495 
L 394.871966 96.489796 
L 396.318089 90.567603 
L 397.04115 91.664305 
L 397.764211 94.108385 
L 398.487273 92.63567 
L 398.487273 92.63567 
" clip-path="url(#p00655e6134)" style="fill: none; stroke: #9467bd; stroke-width: 1.5; stroke-linecap: square"/>
   </g>
   <g id="line2d_24">
    <path d="M 351.488285 120.216383 
L 352.211346 120.789046 
L 352.934408 119.200718 
L 353.657469 118.70369 
L 354.38053 120.205578 
L 355.103592 123.436258 
L 355.826653 123.684772 
L 356.549715 121.307683 
L 357.272776 125.067805 
L 357.995837 119.600501 
L 358.718899 125.824152 
L 359.44196 121.005145 
L 360.165021 123.717187 
L 360.888083 121.772296 
L 361.611144 121.426538 
L 362.334205 125.20827 
L 363.057267 126.558888 
L 364.503389 117.136973 
L 365.226451 123.760407 
L 365.949512 121.491367 
L 366.672573 124.797682 
L 367.395635 129.44381 
L 368.118696 125.18666 
L 368.841757 127.401674 
L 369.564819 125.986226 
L 370.28788 124.214214 
L 371.010941 123.706382 
L 372.457064 126.105081 
L 373.180126 129.141271 
L 373.903187 128.514584 
L 374.626248 127.466504 
L 375.34931 130.956503 
L 376.072371 131.183407 
L 376.795432 135.980804 
L 377.518494 134.81387 
L 378.241555 127.585359 
L 378.964616 135.148823 
L 379.687678 131.485945 
L 380.410739 133.247152 
L 381.1338 125.921396 
L 381.856862 127.995947 
L 383.302984 134.997554 
L 384.026046 136.542661 
L 384.749107 136.8452 
L 385.472168 134.165573 
L 386.19523 136.348172 
L 386.918291 136.348172 
L 387.641353 134.295232 
L 388.364414 138.509162 
L 389.087475 138.757676 
L 389.810537 138.85492 
L 390.533598 144.927302 
L 391.256659 140.875446 
L 391.979721 143.695538 
L 392.702782 141.955941 
L 393.425843 142.960801 
L 394.148905 140.454053 
L 394.871966 145.132596 
L 395.595027 144.052101 
L 396.318089 141.999161 
L 397.04115 142.12882 
L 397.764211 144.235785 
L 398.487273 137.190958 
L 398.487273 137.190958 
" clip-path="url(#p00655e6134)" style="fill: none; stroke: #8c564b; stroke-width: 1.5; stroke-linecap: square"/>
   </g>
   <g id="line2d_25">
    <path d="M 351.488285 151.230909 
L 352.211346 156.808424 
L 352.934408 154.677688 
L 353.657469 156.401077 
L 354.38053 147.533456 
L 355.103592 155.55505 
L 355.826653 152.985633 
L 356.549715 154.959697 
L 357.272776 167.524772 
L 357.995837 164.610678 
L 358.718899 166.177395 
L 359.44196 173.070953 
L 360.888083 161.132564 
L 361.611144 159.753853 
L 362.334205 162.197932 
L 363.057267 165.989389 
L 363.780328 155.367044 
L 364.503389 165.300033 
L 365.226451 170.407533 
L 365.949512 181.969909 
L 366.672573 167.712778 
L 367.395635 168.026122 
L 368.118696 165.456705 
L 368.841757 179.400492 
L 369.564819 178.867808 
L 370.28788 171.535569 
L 371.010941 185.29135 
L 371.734003 163.451306 
L 372.457064 162.761951 
L 373.180126 172.036919 
L 373.903187 174.324327 
L 374.626248 180.998544 
L 375.34931 182.815936 
L 376.072371 179.337823 
L 376.795432 188.894801 
L 377.518494 191.714892 
L 378.241555 183.599295 
L 378.964616 197.104401 
L 379.687678 177.959112 
L 380.410739 197.950428 
L 381.856862 176.329725 
L 382.579923 179.149817 
L 383.302984 193.751625 
L 384.026046 197.825091 
L 384.749107 210.233494 
L 385.472168 194.440981 
L 386.19523 192.05957 
L 386.918291 199.673818 
L 387.641353 202.556578 
L 388.364414 207.3194 
L 389.087475 199.297805 
L 389.810537 222.07788 
L 390.533598 224.208615 
L 391.256659 194.973665 
L 391.979721 209.011455 
L 392.702782 216.375027 
L 393.425843 202.462575 
L 394.148905 209.387467 
L 394.871966 214.08762 
L 395.595027 195.913695 
L 396.318089 200.04983 
L 397.04115 202.587912 
L 397.764211 214.463632 
L 398.487273 197.574416 
L 398.487273 197.574416 
" clip-path="url(#p00655e6134)" style="fill: none; stroke: #e377c2; stroke-width: 1.5; stroke-linecap: square"/>
   </g>
   <g id="patch_3">
    <path d="M 57.6 307.584 
L 57.6 41.472 
" style="fill: none; stroke: #000000; stroke-width: 0.8; stroke-linejoin: miter; stroke-linecap: square"/>
   </g>
   <g id="patch_4">
    <path d="M 414.72 307.584 
L 414.72 41.472 
" style="fill: none; stroke: #000000; stroke-width: 0.8; stroke-linejoin: miter; stroke-linecap: square"/>
   </g>
   <g id="patch_5">
    <path d="M 57.6 307.584 
L 414.72 307.584 
" style="fill: none; stroke: #000000; stroke-width: 0.8; stroke-linejoin: miter; stroke-linecap: square"/>
   </g>
   <g id="patch_6">
    <path d="M 57.6 41.472 
L 414.72 41.472 
" style="fill: none; stroke: #000000; stroke-width: 0.8; stroke-linejoin: miter; stroke-linecap: square"/>
   </g>
   <g id="text_21">
    <!-- Learning Curves -->
    <g transform="translate(187.37625 35.472) scale(0.12 -0.12)">
     <defs>
      <path id="DejaVuSans-4c" d="M 628 4666 
L 1259 4666 
L 1259 531 
L 3531 531 
L 3531 0 
L 628 0 
L 628 4666 
z
" transform="scale(0.015625)"/>
      <path id="DejaVuSans-65" d="M 3597 1894 
L 3597 1613 
L 953 1613 
Q 991 1019 1311 708 
Q 1631 397 2203 397 
Q 2534 397 2845 478 
Q 3156 559 3463 722 
L 3463 178 
Q 3153 47 2828 -22 
Q 2503 -91 2169 -91 
Q 1331 -91 842 396 
Q 353 884 353 1716 
Q 353 2575 817 3079 
Q 1281 3584 2069 3584 
Q 2775 3584 3186 3129 
Q 3597 2675 3597 1894 
z
M 3022 2063 
Q 3016 2534 2758 2815 
Q 2500 3097 2075 3097 
Q 1594 3097 1305 2825 
Q 1016 2553 972 2059 
L 3022 2063 
z
" transform="scale(0.015625)"/>
      <path id="DejaVuSans-6e" d="M 3513 2113 
L 3513 0 
L 2938 0 
L 2938 2094 
Q 2938 2591 2744 2837 
Q 2550 3084 2163 3084 
Q 1697 3084 1428 2787 
Q 1159 2491 1159 1978 
L 1159 0 
L 581 0 
L 581 3500 
L 1159 3500 
L 1159 2956 
Q 1366 3272 1645 3428 
Q 1925 3584 2291 3584 
Q 2894 3584 3203 3211 
Q 3513 2838 3513 2113 
z
" transform="scale(0.015625)"/>
      <path id="DejaVuSans-69" d="M 603 3500 
L 1178 3500 
L 1178 0 
L 603 0 
L 603 3500 
z
M 603 4863 
L 1178 4863 
L 1178 4134 
L 603 4134 
L 603 4863 
z
" transform="scale(0.015625)"/>
      <path id="DejaVuSans-67" d="M 2906 1791 
Q 2906 2416 2648 2759 
Q 2391 3103 1925 3103 
Q 1463 3103 1205 2759 
Q 947 2416 947 1791 
Q 947 1169 1205 825 
Q 1463 481 1925 481 
Q 2391 481 2648 825 
Q 2906 1169 2906 1791 
z
M 3481 434 
Q 3481 -459 3084 -895 
Q 2688 -1331 1869 -1331 
Q 1566 -1331 1297 -1286 
Q 1028 -1241 775 -1147 
L 775 -588 
Q 1028 -725 1275 -790 
Q 1522 -856 1778 -856 
Q 2344 -856 2625 -561 
Q 2906 -266 2906 331 
L 2906 616 
Q 2728 306 2450 153 
Q 2172 0 1784 0 
Q 1141 0 747 490 
Q 353 981 353 1791 
Q 353 2603 747 3093 
Q 1141 3584 1784 3584 
Q 2172 3584 2450 3431 
Q 2728 3278 2906 2969 
L 2906 3500 
L 3481 3500 
L 3481 434 
z
" transform="scale(0.015625)"/>
      <path id="DejaVuSans-20" transform="scale(0.015625)"/>
      <path id="DejaVuSans-43" d="M 4122 4306 
L 4122 3641 
Q 3803 3938 3442 4084 
Q 3081 4231 2675 4231 
Q 1875 4231 1450 3742 
Q 1025 3253 1025 2328 
Q 1025 1406 1450 917 
Q 1875 428 2675 428 
Q 3081 428 3442 575 
Q 3803 722 4122 1019 
L 4122 359 
Q 3791 134 3420 21 
Q 3050 -91 2638 -91 
Q 1578 -91 968 557 
Q 359 1206 359 2328 
Q 359 3453 968 4101 
Q 1578 4750 2638 4750 
Q 3056 4750 3426 4639 
Q 3797 4528 4122 4306 
z
" transform="scale(0.015625)"/>
      <path id="DejaVuSans-76" d="M 191 3500 
L 800 3500 
L 1894 563 
L 2988 3500 
L 3597 3500 
L 2284 0 
L 1503 0 
L 191 3500 
z
" transform="scale(0.015625)"/>
     </defs>
     <use xlink:href="#DejaVuSans-4c"/>
     <use xlink:href="#DejaVuSans-65" x="53.962891"/>
     <use xlink:href="#DejaVuSans-61" x="115.486328"/>
     <use xlink:href="#DejaVuSans-72" x="176.765625"/>
     <use xlink:href="#DejaVuSans-6e" x="216.128906"/>
     <use xlink:href="#DejaVuSans-69" x="279.507812"/>
     <use xlink:href="#DejaVuSans-6e" x="307.291016"/>
     <use xlink:href="#DejaVuSans-67" x="370.669922"/>
     <use xlink:href="#DejaVuSans-20" x="434.146484"/>
     <use xlink:href="#DejaVuSans-43" x="465.933594"/>
     <use xlink:href="#DejaVuSans-75" x="535.757812"/>
     <use xlink:href="#DejaVuSans-72" x="599.136719"/>
     <use xlink:href="#DejaVuSans-76" x="640.25"/>
     <use xlink:href="#DejaVuSans-65" x="699.429688"/>
     <use xlink:href="#DejaVuSans-73" x="760.953125"/>
    </g>
   </g>
   <g id="legend_1">
    <g id="patch_7">
     <path d="M 128.445937 302.584 
L 343.874063 302.584 
Q 345.874063 302.584 345.874063 300.584 
L 345.874063 198.837125 
Q 345.874063 196.837125 343.874063 196.837125 
L 128.445937 196.837125 
Q 126.445937 196.837125 126.445937 198.837125 
L 126.445937 300.584 
Q 126.445937 302.584 128.445937 302.584 
z
" style="fill: #ffffff; opacity: 0.8; stroke: #cccccc; stroke-linejoin: miter"/>
    </g>
    <g id="line2d_26">
     <path d="M 130.445937 204.935563 
L 140.445937 204.935563 
L 150.445937 204.935563 
" style="fill: none; stroke: #1f77b4; stroke-width: 1.5; stroke-linecap: square"/>
    </g>
    <g id="text_22">
     <!-- Train Accuracy -->
     <g transform="translate(158.445937 208.435563) scale(0.1 -0.1)">
      <defs>
       <path id="DejaVuSans-54" d="M -19 4666 
L 3928 4666 
L 3928 4134 
L 2272 4134 
L 2272 0 
L 1638 0 
L 1638 4134 
L -19 4134 
L -19 4666 
z
" transform="scale(0.015625)"/>
      </defs>
      <use xlink:href="#DejaVuSans-54"/>
      <use xlink:href="#DejaVuSans-72" x="46.333984"/>
      <use xlink:href="#DejaVuSans-61" x="87.447266"/>
      <use xlink:href="#DejaVuSans-69" x="148.726562"/>
      <use xlink:href="#DejaVuSans-6e" x="176.509766"/>
      <use xlink:href="#DejaVuSans-20" x="239.888672"/>
      <use xlink:href="#DejaVuSans-41" x="271.675781"/>
      <use xlink:href="#DejaVuSans-63" x="338.333984"/>
      <use xlink:href="#DejaVuSans-63" x="393.314453"/>
      <use xlink:href="#DejaVuSans-75" x="448.294922"/>
      <use xlink:href="#DejaVuSans-72" x="511.673828"/>
      <use xlink:href="#DejaVuSans-61" x="552.787109"/>
      <use xlink:href="#DejaVuSans-63" x="614.066406"/>
      <use xlink:href="#DejaVuSans-79" x="669.046875"/>
     </g>
    </g>
    <g id="line2d_27">
     <path d="M 130.445937 219.613688 
L 140.445937 219.613688 
L 150.445937 219.613688 
" style="fill: none; stroke: #ff7f0e; stroke-width: 1.5; stroke-linecap: square"/>
    </g>
    <g id="text_23">
     <!-- Validation Accuracy -->
     <g transform="translate(158.445937 223.113688) scale(0.1 -0.1)">
      <defs>
       <path id="DejaVuSans-56" d="M 1831 0 
L 50 4666 
L 709 4666 
L 2188 738 
L 3669 4666 
L 4325 4666 
L 2547 0 
L 1831 0 
z
" transform="scale(0.015625)"/>
       <path id="DejaVuSans-6c" d="M 603 4863 
L 1178 4863 
L 1178 0 
L 603 0 
L 603 4863 
z
" transform="scale(0.015625)"/>
       <path id="DejaVuSans-64" d="M 2906 2969 
L 2906 4863 
L 3481 4863 
L 3481 0 
L 2906 0 
L 2906 525 
Q 2725 213 2448 61 
Q 2172 -91 1784 -91 
Q 1150 -91 751 415 
Q 353 922 353 1747 
Q 353 2572 751 3078 
Q 1150 3584 1784 3584 
Q 2172 3584 2448 3432 
Q 2725 3281 2906 2969 
z
M 947 1747 
Q 947 1113 1208 752 
Q 1469 391 1925 391 
Q 2381 391 2643 752 
Q 2906 1113 2906 1747 
Q 2906 2381 2643 2742 
Q 2381 3103 1925 3103 
Q 1469 3103 1208 2742 
Q 947 2381 947 1747 
z
" transform="scale(0.015625)"/>
       <path id="DejaVuSans-74" d="M 1172 4494 
L 1172 3500 
L 2356 3500 
L 2356 3053 
L 1172 3053 
L 1172 1153 
Q 1172 725 1289 603 
Q 1406 481 1766 481 
L 2356 481 
L 2356 0 
L 1766 0 
Q 1100 0 847 248 
Q 594 497 594 1153 
L 594 3053 
L 172 3053 
L 172 3500 
L 594 3500 
L 594 4494 
L 1172 4494 
z
" transform="scale(0.015625)"/>
      </defs>
      <use xlink:href="#DejaVuSans-56"/>
      <use xlink:href="#DejaVuSans-61" x="60.658203"/>
      <use xlink:href="#DejaVuSans-6c" x="121.9375"/>
      <use xlink:href="#DejaVuSans-69" x="149.720703"/>
      <use xlink:href="#DejaVuSans-64" x="177.503906"/>
      <use xlink:href="#DejaVuSans-61" x="240.980469"/>
      <use xlink:href="#DejaVuSans-74" x="302.259766"/>
      <use xlink:href="#DejaVuSans-69" x="341.46875"/>
      <use xlink:href="#DejaVuSans-6f" x="369.251953"/>
      <use xlink:href="#DejaVuSans-6e" x="430.433594"/>
      <use xlink:href="#DejaVuSans-20" x="493.8125"/>
      <use xlink:href="#DejaVuSans-41" x="525.599609"/>
      <use xlink:href="#DejaVuSans-63" x="592.257812"/>
      <use xlink:href="#DejaVuSans-63" x="647.238281"/>
      <use xlink:href="#DejaVuSans-75" x="702.21875"/>
      <use xlink:href="#DejaVuSans-72" x="765.597656"/>
      <use xlink:href="#DejaVuSans-61" x="806.710938"/>
      <use xlink:href="#DejaVuSans-63" x="867.990234"/>
      <use xlink:href="#DejaVuSans-79" x="922.970703"/>
     </g>
    </g>
    <g id="line2d_28">
     <path d="M 130.445937 234.291812 
L 140.445937 234.291812 
L 150.445937 234.291812 
" style="fill: none; stroke: #2ca02c; stroke-width: 1.5; stroke-linecap: square"/>
    </g>
    <g id="text_24">
     <!-- Robust Validation Accuracy -->
     <g transform="translate(158.445937 237.791812) scale(0.1 -0.1)">
      <defs>
       <path id="DejaVuSans-52" d="M 2841 2188 
Q 3044 2119 3236 1894 
Q 3428 1669 3622 1275 
L 4263 0 
L 3584 0 
L 2988 1197 
Q 2756 1666 2539 1819 
Q 2322 1972 1947 1972 
L 1259 1972 
L 1259 0 
L 628 0 
L 628 4666 
L 2053 4666 
Q 2853 4666 3247 4331 
Q 3641 3997 3641 3322 
Q 3641 2881 3436 2590 
Q 3231 2300 2841 2188 
z
M 1259 4147 
L 1259 2491 
L 2053 2491 
Q 2509 2491 2742 2702 
Q 2975 2913 2975 3322 
Q 2975 3731 2742 3939 
Q 2509 4147 2053 4147 
L 1259 4147 
z
" transform="scale(0.015625)"/>
       <path id="DejaVuSans-62" d="M 3116 1747 
Q 3116 2381 2855 2742 
Q 2594 3103 2138 3103 
Q 1681 3103 1420 2742 
Q 1159 2381 1159 1747 
Q 1159 1113 1420 752 
Q 1681 391 2138 391 
Q 2594 391 2855 752 
Q 3116 1113 3116 1747 
z
M 1159 2969 
Q 1341 3281 1617 3432 
Q 1894 3584 2278 3584 
Q 2916 3584 3314 3078 
Q 3713 2572 3713 1747 
Q 3713 922 3314 415 
Q 2916 -91 2278 -91 
Q 1894 -91 1617 61 
Q 1341 213 1159 525 
L 1159 0 
L 581 0 
L 581 4863 
L 1159 4863 
L 1159 2969 
z
" transform="scale(0.015625)"/>
      </defs>
      <use xlink:href="#DejaVuSans-52"/>
      <use xlink:href="#DejaVuSans-6f" x="64.982422"/>
      <use xlink:href="#DejaVuSans-62" x="126.164062"/>
      <use xlink:href="#DejaVuSans-75" x="189.640625"/>
      <use xlink:href="#DejaVuSans-73" x="253.019531"/>
      <use xlink:href="#DejaVuSans-74" x="305.119141"/>
      <use xlink:href="#DejaVuSans-20" x="344.328125"/>
      <use xlink:href="#DejaVuSans-56" x="376.115234"/>
      <use xlink:href="#DejaVuSans-61" x="436.773438"/>
      <use xlink:href="#DejaVuSans-6c" x="498.052734"/>
      <use xlink:href="#DejaVuSans-69" x="525.835938"/>
      <use xlink:href="#DejaVuSans-64" x="553.619141"/>
      <use xlink:href="#DejaVuSans-61" x="617.095703"/>
      <use xlink:href="#DejaVuSans-74" x="678.375"/>
      <use xlink:href="#DejaVuSans-69" x="717.583984"/>
      <use xlink:href="#DejaVuSans-6f" x="745.367188"/>
      <use xlink:href="#DejaVuSans-6e" x="806.548828"/>
      <use xlink:href="#DejaVuSans-20" x="869.927734"/>
      <use xlink:href="#DejaVuSans-41" x="901.714844"/>
      <use xlink:href="#DejaVuSans-63" x="968.373047"/>
      <use xlink:href="#DejaVuSans-63" x="1023.353516"/>
      <use xlink:href="#DejaVuSans-75" x="1078.333984"/>
      <use xlink:href="#DejaVuSans-72" x="1141.712891"/>
      <use xlink:href="#DejaVuSans-61" x="1182.826172"/>
      <use xlink:href="#DejaVuSans-63" x="1244.105469"/>
      <use xlink:href="#DejaVuSans-79" x="1299.085938"/>
     </g>
    </g>
    <g id="line2d_29">
     <path d="M 130.445937 248.969938 
L 140.445937 248.969938 
L 150.445937 248.969938 
" style="fill: none; stroke: #d62728; stroke-width: 1.5; stroke-linecap: square"/>
    </g>
    <g id="text_25">
     <!-- Adversarial Validation Accuracy -->
     <g transform="translate(158.445937 252.469938) scale(0.1 -0.1)">
      <use xlink:href="#DejaVuSans-41"/>
      <use xlink:href="#DejaVuSans-64" x="66.658203"/>
      <use xlink:href="#DejaVuSans-76" x="130.134766"/>
      <use xlink:href="#DejaVuSans-65" x="189.314453"/>
      <use xlink:href="#DejaVuSans-72" x="250.837891"/>
      <use xlink:href="#DejaVuSans-73" x="291.951172"/>
      <use xlink:href="#DejaVuSans-61" x="344.050781"/>
      <use xlink:href="#DejaVuSans-72" x="405.330078"/>
      <use xlink:href="#DejaVuSans-69" x="446.443359"/>
      <use xlink:href="#DejaVuSans-61" x="474.226562"/>
      <use xlink:href="#DejaVuSans-6c" x="535.505859"/>
      <use xlink:href="#DejaVuSans-20" x="563.289062"/>
      <use xlink:href="#DejaVuSans-56" x="595.076172"/>
      <use xlink:href="#DejaVuSans-61" x="655.734375"/>
      <use xlink:href="#DejaVuSans-6c" x="717.013672"/>
      <use xlink:href="#DejaVuSans-69" x="744.796875"/>
      <use xlink:href="#DejaVuSans-64" x="772.580078"/>
      <use xlink:href="#DejaVuSans-61" x="836.056641"/>
      <use xlink:href="#DejaVuSans-74" x="897.335938"/>
      <use xlink:href="#DejaVuSans-69" x="936.544922"/>
      <use xlink:href="#DejaVuSans-6f" x="964.328125"/>
      <use xlink:href="#DejaVuSans-6e" x="1025.509766"/>
      <use xlink:href="#DejaVuSans-20" x="1088.888672"/>
      <use xlink:href="#DejaVuSans-41" x="1120.675781"/>
      <use xlink:href="#DejaVuSans-63" x="1187.333984"/>
      <use xlink:href="#DejaVuSans-63" x="1242.314453"/>
      <use xlink:href="#DejaVuSans-75" x="1297.294922"/>
      <use xlink:href="#DejaVuSans-72" x="1360.673828"/>
      <use xlink:href="#DejaVuSans-61" x="1401.787109"/>
      <use xlink:href="#DejaVuSans-63" x="1463.066406"/>
      <use xlink:href="#DejaVuSans-79" x="1518.046875"/>
     </g>
    </g>
    <g id="line2d_30">
     <path d="M 130.445937 263.648063 
L 140.445937 263.648063 
L 150.445937 263.648063 
" style="fill: none; stroke: #9467bd; stroke-width: 1.5; stroke-linecap: square"/>
    </g>
    <g id="text_26">
     <!-- SWA Validation Accuracy -->
     <g transform="translate(158.445937 267.148063) scale(0.1 -0.1)">
      <defs>
       <path id="DejaVuSans-53" d="M 3425 4513 
L 3425 3897 
Q 3066 4069 2747 4153 
Q 2428 4238 2131 4238 
Q 1616 4238 1336 4038 
Q 1056 3838 1056 3469 
Q 1056 3159 1242 3001 
Q 1428 2844 1947 2747 
L 2328 2669 
Q 3034 2534 3370 2195 
Q 3706 1856 3706 1288 
Q 3706 609 3251 259 
Q 2797 -91 1919 -91 
Q 1588 -91 1214 -16 
Q 841 59 441 206 
L 441 856 
Q 825 641 1194 531 
Q 1563 422 1919 422 
Q 2459 422 2753 634 
Q 3047 847 3047 1241 
Q 3047 1584 2836 1778 
Q 2625 1972 2144 2069 
L 1759 2144 
Q 1053 2284 737 2584 
Q 422 2884 422 3419 
Q 422 4038 858 4394 
Q 1294 4750 2059 4750 
Q 2388 4750 2728 4690 
Q 3069 4631 3425 4513 
z
" transform="scale(0.015625)"/>
       <path id="DejaVuSans-57" d="M 213 4666 
L 850 4666 
L 1831 722 
L 2809 4666 
L 3519 4666 
L 4500 722 
L 5478 4666 
L 6119 4666 
L 4947 0 
L 4153 0 
L 3169 4050 
L 2175 0 
L 1381 0 
L 213 4666 
z
" transform="scale(0.015625)"/>
      </defs>
      <use xlink:href="#DejaVuSans-53"/>
      <use xlink:href="#DejaVuSans-57" x="63.476562"/>
      <use xlink:href="#DejaVuSans-41" x="156.853516"/>
      <use xlink:href="#DejaVuSans-20" x="225.261719"/>
      <use xlink:href="#DejaVuSans-56" x="257.048828"/>
      <use xlink:href="#DejaVuSans-61" x="317.707031"/>
      <use xlink:href="#DejaVuSans-6c" x="378.986328"/>
      <use xlink:href="#DejaVuSans-69" x="406.769531"/>
      <use xlink:href="#DejaVuSans-64" x="434.552734"/>
      <use xlink:href="#DejaVuSans-61" x="498.029297"/>
      <use xlink:href="#DejaVuSans-74" x="559.308594"/>
      <use xlink:href="#DejaVuSans-69" x="598.517578"/>
      <use xlink:href="#DejaVuSans-6f" x="626.300781"/>
      <use xlink:href="#DejaVuSans-6e" x="687.482422"/>
      <use xlink:href="#DejaVuSans-20" x="750.861328"/>
      <use xlink:href="#DejaVuSans-41" x="782.648438"/>
      <use xlink:href="#DejaVuSans-63" x="849.306641"/>
      <use xlink:href="#DejaVuSans-63" x="904.287109"/>
      <use xlink:href="#DejaVuSans-75" x="959.267578"/>
      <use xlink:href="#DejaVuSans-72" x="1022.646484"/>
      <use xlink:href="#DejaVuSans-61" x="1063.759766"/>
      <use xlink:href="#DejaVuSans-63" x="1125.039062"/>
      <use xlink:href="#DejaVuSans-79" x="1180.019531"/>
     </g>
    </g>
    <g id="line2d_31">
     <path d="M 130.445937 278.326188 
L 140.445937 278.326188 
L 150.445937 278.326188 
" style="fill: none; stroke: #8c564b; stroke-width: 1.5; stroke-linecap: square"/>
    </g>
    <g id="text_27">
     <!-- SWA Robust Validation Accuracy -->
     <g transform="translate(158.445937 281.826188) scale(0.1 -0.1)">
      <use xlink:href="#DejaVuSans-53"/>
      <use xlink:href="#DejaVuSans-57" x="63.476562"/>
      <use xlink:href="#DejaVuSans-41" x="156.853516"/>
      <use xlink:href="#DejaVuSans-20" x="225.261719"/>
      <use xlink:href="#DejaVuSans-52" x="257.048828"/>
      <use xlink:href="#DejaVuSans-6f" x="322.03125"/>
      <use xlink:href="#DejaVuSans-62" x="383.212891"/>
      <use xlink:href="#DejaVuSans-75" x="446.689453"/>
      <use xlink:href="#DejaVuSans-73" x="510.068359"/>
      <use xlink:href="#DejaVuSans-74" x="562.167969"/>
      <use xlink:href="#DejaVuSans-20" x="601.376953"/>
      <use xlink:href="#DejaVuSans-56" x="633.164062"/>
      <use xlink:href="#DejaVuSans-61" x="693.822266"/>
      <use xlink:href="#DejaVuSans-6c" x="755.101562"/>
      <use xlink:href="#DejaVuSans-69" x="782.884766"/>
      <use xlink:href="#DejaVuSans-64" x="810.667969"/>
      <use xlink:href="#DejaVuSans-61" x="874.144531"/>
      <use xlink:href="#DejaVuSans-74" x="935.423828"/>
      <use xlink:href="#DejaVuSans-69" x="974.632812"/>
      <use xlink:href="#DejaVuSans-6f" x="1002.416016"/>
      <use xlink:href="#DejaVuSans-6e" x="1063.597656"/>
      <use xlink:href="#DejaVuSans-20" x="1126.976562"/>
      <use xlink:href="#DejaVuSans-41" x="1158.763672"/>
      <use xlink:href="#DejaVuSans-63" x="1225.421875"/>
      <use xlink:href="#DejaVuSans-63" x="1280.402344"/>
      <use xlink:href="#DejaVuSans-75" x="1335.382812"/>
      <use xlink:href="#DejaVuSans-72" x="1398.761719"/>
      <use xlink:href="#DejaVuSans-61" x="1439.875"/>
      <use xlink:href="#DejaVuSans-63" x="1501.154297"/>
      <use xlink:href="#DejaVuSans-79" x="1556.134766"/>
     </g>
    </g>
    <g id="line2d_32">
     <path d="M 130.445937 293.004312 
L 140.445937 293.004312 
L 150.445937 293.004312 
" style="fill: none; stroke: #e377c2; stroke-width: 1.5; stroke-linecap: square"/>
    </g>
    <g id="text_28">
     <!-- SWA Adversarial Validation Accuracy -->
     <g transform="translate(158.445937 296.504312) scale(0.1 -0.1)">
      <use xlink:href="#DejaVuSans-53"/>
      <use xlink:href="#DejaVuSans-57" x="63.476562"/>
      <use xlink:href="#DejaVuSans-41" x="156.853516"/>
      <use xlink:href="#DejaVuSans-20" x="225.261719"/>
      <use xlink:href="#DejaVuSans-41" x="257.048828"/>
      <use xlink:href="#DejaVuSans-64" x="323.707031"/>
      <use xlink:href="#DejaVuSans-76" x="387.183594"/>
      <use xlink:href="#DejaVuSans-65" x="446.363281"/>
      <use xlink:href="#DejaVuSans-72" x="507.886719"/>
      <use xlink:href="#DejaVuSans-73" x="549"/>
      <use xlink:href="#DejaVuSans-61" x="601.099609"/>
      <use xlink:href="#DejaVuSans-72" x="662.378906"/>
      <use xlink:href="#DejaVuSans-69" x="703.492188"/>
      <use xlink:href="#DejaVuSans-61" x="731.275391"/>
      <use xlink:href="#DejaVuSans-6c" x="792.554688"/>
      <use xlink:href="#DejaVuSans-20" x="820.337891"/>
      <use xlink:href="#DejaVuSans-56" x="852.125"/>
      <use xlink:href="#DejaVuSans-61" x="912.783203"/>
      <use xlink:href="#DejaVuSans-6c" x="974.0625"/>
      <use xlink:href="#DejaVuSans-69" x="1001.845703"/>
      <use xlink:href="#DejaVuSans-64" x="1029.628906"/>
      <use xlink:href="#DejaVuSans-61" x="1093.105469"/>
      <use xlink:href="#DejaVuSans-74" x="1154.384766"/>
      <use xlink:href="#DejaVuSans-69" x="1193.59375"/>
      <use xlink:href="#DejaVuSans-6f" x="1221.376953"/>
      <use xlink:href="#DejaVuSans-6e" x="1282.558594"/>
      <use xlink:href="#DejaVuSans-20" x="1345.9375"/>
      <use xlink:href="#DejaVuSans-41" x="1377.724609"/>
      <use xlink:href="#DejaVuSans-63" x="1444.382812"/>
      <use xlink:href="#DejaVuSans-63" x="1499.363281"/>
      <use xlink:href="#DejaVuSans-75" x="1554.34375"/>
      <use xlink:href="#DejaVuSans-72" x="1617.722656"/>
      <use xlink:href="#DejaVuSans-61" x="1658.835938"/>
      <use xlink:href="#DejaVuSans-63" x="1720.115234"/>
      <use xlink:href="#DejaVuSans-79" x="1775.095703"/>
     </g>
    </g>
   </g>
  </g>
 </g>
 <defs>
  <clipPath id="p00655e6134">
   <rect x="57.6" y="41.472" width="357.12" height="266.112"/>
  </clipPath>
 </defs>
</svg>
