<?xml version="1.0" encoding="utf-8" standalone="no"?>
<!DOCTYPE svg PUBLIC "-//W3C//DTD SVG 1.1//EN"
  "http://www.w3.org/Graphics/SVG/1.1/DTD/svg11.dtd">
<svg xmlns:xlink="http://www.w3.org/1999/xlink" width="460.8pt" height="345.6pt" viewBox="0 0 460.8 345.6" xmlns="http://www.w3.org/2000/svg" version="1.1">
 <metadata>
  <rdf:RDF xmlns:dc="http://purl.org/dc/elements/1.1/" xmlns:cc="http://creativecommons.org/ns#" xmlns:rdf="http://www.w3.org/1999/02/22-rdf-syntax-ns#">
   <cc:Work>
    <dc:type rdf:resource="http://purl.org/dc/dcmitype/StillImage"/>
    <dc:date>2024-08-19T15:06:46.553609</dc:date>
    <dc:format>image/svg+xml</dc:format>
    <dc:creator>
     <cc:Agent>
      <dc:title>Matplotlib v3.9.1, https://matplotlib.org/</dc:title>
     </cc:Agent>
    </dc:creator>
   </cc:Work>
  </rdf:RDF>
 </metadata>
 <defs>
  <style type="text/css">*{stroke-linejoin: round; stroke-linecap: butt}</style>
 </defs>
 <g id="figure_1">
  <g id="patch_1">
   <path d="M 0 345.6 
L 460.8 345.6 
L 460.8 0 
L 0 0 
z
" style="fill: #ffffff"/>
  </g>
  <g id="axes_1">
   <g id="patch_2">
    <path d="M 57.6 307.584 
L 414.72 307.584 
L 414.72 41.472 
L 57.6 41.472 
z
" style="fill: #ffffff"/>
   </g>
   <g id="matplotlib.axis_1">
    <g id="xtick_1">
     <g id="line2d_1">
      <defs>
       <path id="m898081d901" d="M 0 0 
L 0 3.5 
" style="stroke: #000000; stroke-width: 0.8"/>
      </defs>
      <g>
       <use xlink:href="#m898081d901" x="73.832727" y="307.584" style="stroke: #000000; stroke-width: 0.8"/>
      </g>
     </g>
     <g id="text_1">
      <!-- 1 -->
      <g transform="translate(70.651477 322.182437) scale(0.1 -0.1)">
       <defs>
        <path id="DejaVuSans-31" d="M 794 531 
L 1825 531 
L 1825 4091 
L 703 3866 
L 703 4441 
L 1819 4666 
L 2450 4666 
L 2450 531 
L 3481 531 
L 3481 0 
L 794 0 
L 794 531 
z
" transform="scale(0.015625)"/>
       </defs>
       <use xlink:href="#DejaVuSans-31"/>
      </g>
     </g>
    </g>
    <g id="xtick_2">
     <g id="line2d_2">
      <g>
       <use xlink:href="#m898081d901" x="109.262733" y="307.584" style="stroke: #000000; stroke-width: 0.8"/>
      </g>
     </g>
     <g id="text_2">
      <!-- 50 -->
      <g transform="translate(102.900233 322.182437) scale(0.1 -0.1)">
       <defs>
        <path id="DejaVuSans-35" d="M 691 4666 
L 3169 4666 
L 3169 4134 
L 1269 4134 
L 1269 2991 
Q 1406 3038 1543 3061 
Q 1681 3084 1819 3084 
Q 2600 3084 3056 2656 
Q 3513 2228 3513 1497 
Q 3513 744 3044 326 
Q 2575 -91 1722 -91 
Q 1428 -91 1123 -41 
Q 819 9 494 109 
L 494 744 
Q 775 591 1075 516 
Q 1375 441 1709 441 
Q 2250 441 2565 725 
Q 2881 1009 2881 1497 
Q 2881 1984 2565 2268 
Q 2250 2553 1709 2553 
Q 1456 2553 1204 2497 
Q 953 2441 691 2322 
L 691 4666 
z
" transform="scale(0.015625)"/>
        <path id="DejaVuSans-30" d="M 2034 4250 
Q 1547 4250 1301 3770 
Q 1056 3291 1056 2328 
Q 1056 1369 1301 889 
Q 1547 409 2034 409 
Q 2525 409 2770 889 
Q 3016 1369 3016 2328 
Q 3016 3291 2770 3770 
Q 2525 4250 2034 4250 
z
M 2034 4750 
Q 2819 4750 3233 4129 
Q 3647 3509 3647 2328 
Q 3647 1150 3233 529 
Q 2819 -91 2034 -91 
Q 1250 -91 836 529 
Q 422 1150 422 2328 
Q 422 3509 836 4129 
Q 1250 4750 2034 4750 
z
" transform="scale(0.015625)"/>
       </defs>
       <use xlink:href="#DejaVuSans-35"/>
       <use xlink:href="#DejaVuSans-30" x="63.623047"/>
      </g>
     </g>
    </g>
    <g id="xtick_3">
     <g id="line2d_3">
      <g>
       <use xlink:href="#m898081d901" x="145.415801" y="307.584" style="stroke: #000000; stroke-width: 0.8"/>
      </g>
     </g>
     <g id="text_3">
      <!-- 100 -->
      <g transform="translate(135.872051 322.182437) scale(0.1 -0.1)">
       <use xlink:href="#DejaVuSans-31"/>
       <use xlink:href="#DejaVuSans-30" x="63.623047"/>
       <use xlink:href="#DejaVuSans-30" x="127.246094"/>
      </g>
     </g>
    </g>
    <g id="xtick_4">
     <g id="line2d_4">
      <g>
       <use xlink:href="#m898081d901" x="181.568868" y="307.584" style="stroke: #000000; stroke-width: 0.8"/>
      </g>
     </g>
     <g id="text_4">
      <!-- 150 -->
      <g transform="translate(172.025118 322.182437) scale(0.1 -0.1)">
       <use xlink:href="#DejaVuSans-31"/>
       <use xlink:href="#DejaVuSans-35" x="63.623047"/>
       <use xlink:href="#DejaVuSans-30" x="127.246094"/>
      </g>
     </g>
    </g>
    <g id="xtick_5">
     <g id="line2d_5">
      <g>
       <use xlink:href="#m898081d901" x="217.721936" y="307.584" style="stroke: #000000; stroke-width: 0.8"/>
      </g>
     </g>
     <g id="text_5">
      <!-- 200 -->
      <g transform="translate(208.178186 322.182437) scale(0.1 -0.1)">
       <defs>
        <path id="DejaVuSans-32" d="M 1228 531 
L 3431 531 
L 3431 0 
L 469 0 
L 469 531 
Q 828 903 1448 1529 
Q 2069 2156 2228 2338 
Q 2531 2678 2651 2914 
Q 2772 3150 2772 3378 
Q 2772 3750 2511 3984 
Q 2250 4219 1831 4219 
Q 1534 4219 1204 4116 
Q 875 4013 500 3803 
L 500 4441 
Q 881 4594 1212 4672 
Q 1544 4750 1819 4750 
Q 2544 4750 2975 4387 
Q 3406 4025 3406 3419 
Q 3406 3131 3298 2873 
Q 3191 2616 2906 2266 
Q 2828 2175 2409 1742 
Q 1991 1309 1228 531 
z
" transform="scale(0.015625)"/>
       </defs>
       <use xlink:href="#DejaVuSans-32"/>
       <use xlink:href="#DejaVuSans-30" x="63.623047"/>
       <use xlink:href="#DejaVuSans-30" x="127.246094"/>
      </g>
     </g>
    </g>
    <g id="xtick_6">
     <g id="line2d_6">
      <g>
       <use xlink:href="#m898081d901" x="253.875003" y="307.584" style="stroke: #000000; stroke-width: 0.8"/>
      </g>
     </g>
     <g id="text_6">
      <!-- 250 -->
      <g transform="translate(244.331253 322.182437) scale(0.1 -0.1)">
       <use xlink:href="#DejaVuSans-32"/>
       <use xlink:href="#DejaVuSans-35" x="63.623047"/>
       <use xlink:href="#DejaVuSans-30" x="127.246094"/>
      </g>
     </g>
    </g>
    <g id="xtick_7">
     <g id="line2d_7">
      <g>
       <use xlink:href="#m898081d901" x="290.02807" y="307.584" style="stroke: #000000; stroke-width: 0.8"/>
      </g>
     </g>
     <g id="text_7">
      <!-- 300 -->
      <g transform="translate(280.48432 322.182437) scale(0.1 -0.1)">
       <defs>
        <path id="DejaVuSans-33" d="M 2597 2516 
Q 3050 2419 3304 2112 
Q 3559 1806 3559 1356 
Q 3559 666 3084 287 
Q 2609 -91 1734 -91 
Q 1441 -91 1130 -33 
Q 819 25 488 141 
L 488 750 
Q 750 597 1062 519 
Q 1375 441 1716 441 
Q 2309 441 2620 675 
Q 2931 909 2931 1356 
Q 2931 1769 2642 2001 
Q 2353 2234 1838 2234 
L 1294 2234 
L 1294 2753 
L 1863 2753 
Q 2328 2753 2575 2939 
Q 2822 3125 2822 3475 
Q 2822 3834 2567 4026 
Q 2313 4219 1838 4219 
Q 1578 4219 1281 4162 
Q 984 4106 628 3988 
L 628 4550 
Q 988 4650 1302 4700 
Q 1616 4750 1894 4750 
Q 2613 4750 3031 4423 
Q 3450 4097 3450 3541 
Q 3450 3153 3228 2886 
Q 3006 2619 2597 2516 
z
" transform="scale(0.015625)"/>
       </defs>
       <use xlink:href="#DejaVuSans-33"/>
       <use xlink:href="#DejaVuSans-30" x="63.623047"/>
       <use xlink:href="#DejaVuSans-30" x="127.246094"/>
      </g>
     </g>
    </g>
    <g id="xtick_8">
     <g id="line2d_8">
      <g>
       <use xlink:href="#m898081d901" x="326.181138" y="307.584" style="stroke: #000000; stroke-width: 0.8"/>
      </g>
     </g>
     <g id="text_8">
      <!-- 350 -->
      <g transform="translate(316.637388 322.182437) scale(0.1 -0.1)">
       <use xlink:href="#DejaVuSans-33"/>
       <use xlink:href="#DejaVuSans-35" x="63.623047"/>
       <use xlink:href="#DejaVuSans-30" x="127.246094"/>
      </g>
     </g>
    </g>
    <g id="xtick_9">
     <g id="line2d_9">
      <g>
       <use xlink:href="#m898081d901" x="362.334205" y="307.584" style="stroke: #000000; stroke-width: 0.8"/>
      </g>
     </g>
     <g id="text_9">
      <!-- 400 -->
      <g transform="translate(352.790455 322.182437) scale(0.1 -0.1)">
       <defs>
        <path id="DejaVuSans-34" d="M 2419 4116 
L 825 1625 
L 2419 1625 
L 2419 4116 
z
M 2253 4666 
L 3047 4666 
L 3047 1625 
L 3713 1625 
L 3713 1100 
L 3047 1100 
L 3047 0 
L 2419 0 
L 2419 1100 
L 313 1100 
L 313 1709 
L 2253 4666 
z
" transform="scale(0.015625)"/>
       </defs>
       <use xlink:href="#DejaVuSans-34"/>
       <use xlink:href="#DejaVuSans-30" x="63.623047"/>
       <use xlink:href="#DejaVuSans-30" x="127.246094"/>
      </g>
     </g>
    </g>
    <g id="xtick_10">
     <g id="line2d_10">
      <g>
       <use xlink:href="#m898081d901" x="398.487273" y="307.584" style="stroke: #000000; stroke-width: 0.8"/>
      </g>
     </g>
     <g id="text_10">
      <!-- 450 -->
      <g transform="translate(388.943523 322.182437) scale(0.1 -0.1)">
       <use xlink:href="#DejaVuSans-34"/>
       <use xlink:href="#DejaVuSans-35" x="63.623047"/>
       <use xlink:href="#DejaVuSans-30" x="127.246094"/>
      </g>
     </g>
    </g>
    <g id="text_11">
     <!-- Epochs -->
     <g transform="translate(218.244375 335.860562) scale(0.1 -0.1)">
      <defs>
       <path id="DejaVuSans-45" d="M 628 4666 
L 3578 4666 
L 3578 4134 
L 1259 4134 
L 1259 2753 
L 3481 2753 
L 3481 2222 
L 1259 2222 
L 1259 531 
L 3634 531 
L 3634 0 
L 628 0 
L 628 4666 
z
" transform="scale(0.015625)"/>
       <path id="DejaVuSans-70" d="M 1159 525 
L 1159 -1331 
L 581 -1331 
L 581 3500 
L 1159 3500 
L 1159 2969 
Q 1341 3281 1617 3432 
Q 1894 3584 2278 3584 
Q 2916 3584 3314 3078 
Q 3713 2572 3713 1747 
Q 3713 922 3314 415 
Q 2916 -91 2278 -91 
Q 1894 -91 1617 61 
Q 1341 213 1159 525 
z
M 3116 1747 
Q 3116 2381 2855 2742 
Q 2594 3103 2138 3103 
Q 1681 3103 1420 2742 
Q 1159 2381 1159 1747 
Q 1159 1113 1420 752 
Q 1681 391 2138 391 
Q 2594 391 2855 752 
Q 3116 1113 3116 1747 
z
" transform="scale(0.015625)"/>
       <path id="DejaVuSans-6f" d="M 1959 3097 
Q 1497 3097 1228 2736 
Q 959 2375 959 1747 
Q 959 1119 1226 758 
Q 1494 397 1959 397 
Q 2419 397 2687 759 
Q 2956 1122 2956 1747 
Q 2956 2369 2687 2733 
Q 2419 3097 1959 3097 
z
M 1959 3584 
Q 2709 3584 3137 3096 
Q 3566 2609 3566 1747 
Q 3566 888 3137 398 
Q 2709 -91 1959 -91 
Q 1206 -91 779 398 
Q 353 888 353 1747 
Q 353 2609 779 3096 
Q 1206 3584 1959 3584 
z
" transform="scale(0.015625)"/>
       <path id="DejaVuSans-63" d="M 3122 3366 
L 3122 2828 
Q 2878 2963 2633 3030 
Q 2388 3097 2138 3097 
Q 1578 3097 1268 2742 
Q 959 2388 959 1747 
Q 959 1106 1268 751 
Q 1578 397 2138 397 
Q 2388 397 2633 464 
Q 2878 531 3122 666 
L 3122 134 
Q 2881 22 2623 -34 
Q 2366 -91 2075 -91 
Q 1284 -91 818 406 
Q 353 903 353 1747 
Q 353 2603 823 3093 
Q 1294 3584 2113 3584 
Q 2378 3584 2631 3529 
Q 2884 3475 3122 3366 
z
" transform="scale(0.015625)"/>
       <path id="DejaVuSans-68" d="M 3513 2113 
L 3513 0 
L 2938 0 
L 2938 2094 
Q 2938 2591 2744 2837 
Q 2550 3084 2163 3084 
Q 1697 3084 1428 2787 
Q 1159 2491 1159 1978 
L 1159 0 
L 581 0 
L 581 4863 
L 1159 4863 
L 1159 2956 
Q 1366 3272 1645 3428 
Q 1925 3584 2291 3584 
Q 2894 3584 3203 3211 
Q 3513 2838 3513 2113 
z
" transform="scale(0.015625)"/>
       <path id="DejaVuSans-73" d="M 2834 3397 
L 2834 2853 
Q 2591 2978 2328 3040 
Q 2066 3103 1784 3103 
Q 1356 3103 1142 2972 
Q 928 2841 928 2578 
Q 928 2378 1081 2264 
Q 1234 2150 1697 2047 
L 1894 2003 
Q 2506 1872 2764 1633 
Q 3022 1394 3022 966 
Q 3022 478 2636 193 
Q 2250 -91 1575 -91 
Q 1294 -91 989 -36 
Q 684 19 347 128 
L 347 722 
Q 666 556 975 473 
Q 1284 391 1588 391 
Q 1994 391 2212 530 
Q 2431 669 2431 922 
Q 2431 1156 2273 1281 
Q 2116 1406 1581 1522 
L 1381 1569 
Q 847 1681 609 1914 
Q 372 2147 372 2553 
Q 372 3047 722 3315 
Q 1072 3584 1716 3584 
Q 2034 3584 2315 3537 
Q 2597 3491 2834 3397 
z
" transform="scale(0.015625)"/>
      </defs>
      <use xlink:href="#DejaVuSans-45"/>
      <use xlink:href="#DejaVuSans-70" x="63.183594"/>
      <use xlink:href="#DejaVuSans-6f" x="126.660156"/>
      <use xlink:href="#DejaVuSans-63" x="187.841797"/>
      <use xlink:href="#DejaVuSans-68" x="242.822266"/>
      <use xlink:href="#DejaVuSans-73" x="306.201172"/>
     </g>
    </g>
   </g>
   <g id="matplotlib.axis_2">
    <g id="ytick_1">
     <g id="line2d_11">
      <defs>
       <path id="m869d7bf83f" d="M 0 0 
L -3.5 0 
" style="stroke: #000000; stroke-width: 0.8"/>
      </defs>
      <g>
       <use xlink:href="#m869d7bf83f" x="57.6" y="285.303917" style="stroke: #000000; stroke-width: 0.8"/>
      </g>
     </g>
     <g id="text_12">
      <!-- 10 -->
      <g transform="translate(37.875 289.103136) scale(0.1 -0.1)">
       <use xlink:href="#DejaVuSans-31"/>
       <use xlink:href="#DejaVuSans-30" x="63.623047"/>
      </g>
     </g>
    </g>
    <g id="ytick_2">
     <g id="line2d_12">
      <g>
       <use xlink:href="#m869d7bf83f" x="57.6" y="255.280089" style="stroke: #000000; stroke-width: 0.8"/>
      </g>
     </g>
     <g id="text_13">
      <!-- 20 -->
      <g transform="translate(37.875 259.079308) scale(0.1 -0.1)">
       <use xlink:href="#DejaVuSans-32"/>
       <use xlink:href="#DejaVuSans-30" x="63.623047"/>
      </g>
     </g>
    </g>
    <g id="ytick_3">
     <g id="line2d_13">
      <g>
       <use xlink:href="#m869d7bf83f" x="57.6" y="225.256261" style="stroke: #000000; stroke-width: 0.8"/>
      </g>
     </g>
     <g id="text_14">
      <!-- 30 -->
      <g transform="translate(37.875 229.055479) scale(0.1 -0.1)">
       <use xlink:href="#DejaVuSans-33"/>
       <use xlink:href="#DejaVuSans-30" x="63.623047"/>
      </g>
     </g>
    </g>
    <g id="ytick_4">
     <g id="line2d_14">
      <g>
       <use xlink:href="#m869d7bf83f" x="57.6" y="195.232432" style="stroke: #000000; stroke-width: 0.8"/>
      </g>
     </g>
     <g id="text_15">
      <!-- 40 -->
      <g transform="translate(37.875 199.031651) scale(0.1 -0.1)">
       <use xlink:href="#DejaVuSans-34"/>
       <use xlink:href="#DejaVuSans-30" x="63.623047"/>
      </g>
     </g>
    </g>
    <g id="ytick_5">
     <g id="line2d_15">
      <g>
       <use xlink:href="#m869d7bf83f" x="57.6" y="165.208604" style="stroke: #000000; stroke-width: 0.8"/>
      </g>
     </g>
     <g id="text_16">
      <!-- 50 -->
      <g transform="translate(37.875 169.007822) scale(0.1 -0.1)">
       <use xlink:href="#DejaVuSans-35"/>
       <use xlink:href="#DejaVuSans-30" x="63.623047"/>
      </g>
     </g>
    </g>
    <g id="ytick_6">
     <g id="line2d_16">
      <g>
       <use xlink:href="#m869d7bf83f" x="57.6" y="135.184775" style="stroke: #000000; stroke-width: 0.8"/>
      </g>
     </g>
     <g id="text_17">
      <!-- 60 -->
      <g transform="translate(37.875 138.983994) scale(0.1 -0.1)">
       <defs>
        <path id="DejaVuSans-36" d="M 2113 2584 
Q 1688 2584 1439 2293 
Q 1191 2003 1191 1497 
Q 1191 994 1439 701 
Q 1688 409 2113 409 
Q 2538 409 2786 701 
Q 3034 994 3034 1497 
Q 3034 2003 2786 2293 
Q 2538 2584 2113 2584 
z
M 3366 4563 
L 3366 3988 
Q 3128 4100 2886 4159 
Q 2644 4219 2406 4219 
Q 1781 4219 1451 3797 
Q 1122 3375 1075 2522 
Q 1259 2794 1537 2939 
Q 1816 3084 2150 3084 
Q 2853 3084 3261 2657 
Q 3669 2231 3669 1497 
Q 3669 778 3244 343 
Q 2819 -91 2113 -91 
Q 1303 -91 875 529 
Q 447 1150 447 2328 
Q 447 3434 972 4092 
Q 1497 4750 2381 4750 
Q 2619 4750 2861 4703 
Q 3103 4656 3366 4563 
z
" transform="scale(0.015625)"/>
       </defs>
       <use xlink:href="#DejaVuSans-36"/>
       <use xlink:href="#DejaVuSans-30" x="63.623047"/>
      </g>
     </g>
    </g>
    <g id="ytick_7">
     <g id="line2d_17">
      <g>
       <use xlink:href="#m869d7bf83f" x="57.6" y="105.160947" style="stroke: #000000; stroke-width: 0.8"/>
      </g>
     </g>
     <g id="text_18">
      <!-- 70 -->
      <g transform="translate(37.875 108.960166) scale(0.1 -0.1)">
       <defs>
        <path id="DejaVuSans-37" d="M 525 4666 
L 3525 4666 
L 3525 4397 
L 1831 0 
L 1172 0 
L 2766 4134 
L 525 4134 
L 525 4666 
z
" transform="scale(0.015625)"/>
       </defs>
       <use xlink:href="#DejaVuSans-37"/>
       <use xlink:href="#DejaVuSans-30" x="63.623047"/>
      </g>
     </g>
    </g>
    <g id="ytick_8">
     <g id="line2d_18">
      <g>
       <use xlink:href="#m869d7bf83f" x="57.6" y="75.137118" style="stroke: #000000; stroke-width: 0.8"/>
      </g>
     </g>
     <g id="text_19">
      <!-- 80 -->
      <g transform="translate(37.875 78.936337) scale(0.1 -0.1)">
       <defs>
        <path id="DejaVuSans-38" d="M 2034 2216 
Q 1584 2216 1326 1975 
Q 1069 1734 1069 1313 
Q 1069 891 1326 650 
Q 1584 409 2034 409 
Q 2484 409 2743 651 
Q 3003 894 3003 1313 
Q 3003 1734 2745 1975 
Q 2488 2216 2034 2216 
z
M 1403 2484 
Q 997 2584 770 2862 
Q 544 3141 544 3541 
Q 544 4100 942 4425 
Q 1341 4750 2034 4750 
Q 2731 4750 3128 4425 
Q 3525 4100 3525 3541 
Q 3525 3141 3298 2862 
Q 3072 2584 2669 2484 
Q 3125 2378 3379 2068 
Q 3634 1759 3634 1313 
Q 3634 634 3220 271 
Q 2806 -91 2034 -91 
Q 1263 -91 848 271 
Q 434 634 434 1313 
Q 434 1759 690 2068 
Q 947 2378 1403 2484 
z
M 1172 3481 
Q 1172 3119 1398 2916 
Q 1625 2713 2034 2713 
Q 2441 2713 2670 2916 
Q 2900 3119 2900 3481 
Q 2900 3844 2670 4047 
Q 2441 4250 2034 4250 
Q 1625 4250 1398 4047 
Q 1172 3844 1172 3481 
z
" transform="scale(0.015625)"/>
       </defs>
       <use xlink:href="#DejaVuSans-38"/>
       <use xlink:href="#DejaVuSans-30" x="63.623047"/>
      </g>
     </g>
    </g>
    <g id="ytick_9">
     <g id="line2d_19">
      <g>
       <use xlink:href="#m869d7bf83f" x="57.6" y="45.11329" style="stroke: #000000; stroke-width: 0.8"/>
      </g>
     </g>
     <g id="text_20">
      <!-- 90 -->
      <g transform="translate(37.875 48.912509) scale(0.1 -0.1)">
       <defs>
        <path id="DejaVuSans-39" d="M 703 97 
L 703 672 
Q 941 559 1184 500 
Q 1428 441 1663 441 
Q 2288 441 2617 861 
Q 2947 1281 2994 2138 
Q 2813 1869 2534 1725 
Q 2256 1581 1919 1581 
Q 1219 1581 811 2004 
Q 403 2428 403 3163 
Q 403 3881 828 4315 
Q 1253 4750 1959 4750 
Q 2769 4750 3195 4129 
Q 3622 3509 3622 2328 
Q 3622 1225 3098 567 
Q 2575 -91 1691 -91 
Q 1453 -91 1209 -44 
Q 966 3 703 97 
z
M 1959 2075 
Q 2384 2075 2632 2365 
Q 2881 2656 2881 3163 
Q 2881 3666 2632 3958 
Q 2384 4250 1959 4250 
Q 1534 4250 1286 3958 
Q 1038 3666 1038 3163 
Q 1038 2656 1286 2365 
Q 1534 2075 1959 2075 
z
" transform="scale(0.015625)"/>
       </defs>
       <use xlink:href="#DejaVuSans-39"/>
       <use xlink:href="#DejaVuSans-30" x="63.623047"/>
      </g>
     </g>
    </g>
    <g id="text_21">
     <!-- Accuracy -->
     <g transform="translate(31.795312 197.356125) rotate(-90) scale(0.1 -0.1)">
      <defs>
       <path id="DejaVuSans-41" d="M 2188 4044 
L 1331 1722 
L 3047 1722 
L 2188 4044 
z
M 1831 4666 
L 2547 4666 
L 4325 0 
L 3669 0 
L 3244 1197 
L 1141 1197 
L 716 0 
L 50 0 
L 1831 4666 
z
" transform="scale(0.015625)"/>
       <path id="DejaVuSans-75" d="M 544 1381 
L 544 3500 
L 1119 3500 
L 1119 1403 
Q 1119 906 1312 657 
Q 1506 409 1894 409 
Q 2359 409 2629 706 
Q 2900 1003 2900 1516 
L 2900 3500 
L 3475 3500 
L 3475 0 
L 2900 0 
L 2900 538 
Q 2691 219 2414 64 
Q 2138 -91 1772 -91 
Q 1169 -91 856 284 
Q 544 659 544 1381 
z
M 1991 3584 
L 1991 3584 
z
" transform="scale(0.015625)"/>
       <path id="DejaVuSans-72" d="M 2631 2963 
Q 2534 3019 2420 3045 
Q 2306 3072 2169 3072 
Q 1681 3072 1420 2755 
Q 1159 2438 1159 1844 
L 1159 0 
L 581 0 
L 581 3500 
L 1159 3500 
L 1159 2956 
Q 1341 3275 1631 3429 
Q 1922 3584 2338 3584 
Q 2397 3584 2469 3576 
Q 2541 3569 2628 3553 
L 2631 2963 
z
" transform="scale(0.015625)"/>
       <path id="DejaVuSans-61" d="M 2194 1759 
Q 1497 1759 1228 1600 
Q 959 1441 959 1056 
Q 959 750 1161 570 
Q 1363 391 1709 391 
Q 2188 391 2477 730 
Q 2766 1069 2766 1631 
L 2766 1759 
L 2194 1759 
z
M 3341 1997 
L 3341 0 
L 2766 0 
L 2766 531 
Q 2569 213 2275 61 
Q 1981 -91 1556 -91 
Q 1019 -91 701 211 
Q 384 513 384 1019 
Q 384 1609 779 1909 
Q 1175 2209 1959 2209 
L 2766 2209 
L 2766 2266 
Q 2766 2663 2505 2880 
Q 2244 3097 1772 3097 
Q 1472 3097 1187 3025 
Q 903 2953 641 2809 
L 641 3341 
Q 956 3463 1253 3523 
Q 1550 3584 1831 3584 
Q 2591 3584 2966 3190 
Q 3341 2797 3341 1997 
z
" transform="scale(0.015625)"/>
       <path id="DejaVuSans-79" d="M 2059 -325 
Q 1816 -950 1584 -1140 
Q 1353 -1331 966 -1331 
L 506 -1331 
L 506 -850 
L 844 -850 
Q 1081 -850 1212 -737 
Q 1344 -625 1503 -206 
L 1606 56 
L 191 3500 
L 800 3500 
L 1894 763 
L 2988 3500 
L 3597 3500 
L 2059 -325 
z
" transform="scale(0.015625)"/>
      </defs>
      <use xlink:href="#DejaVuSans-41"/>
      <use xlink:href="#DejaVuSans-63" x="66.658203"/>
      <use xlink:href="#DejaVuSans-63" x="121.638672"/>
      <use xlink:href="#DejaVuSans-75" x="176.619141"/>
      <use xlink:href="#DejaVuSans-72" x="239.998047"/>
      <use xlink:href="#DejaVuSans-61" x="281.111328"/>
      <use xlink:href="#DejaVuSans-63" x="342.390625"/>
      <use xlink:href="#DejaVuSans-79" x="397.371094"/>
     </g>
    </g>
   </g>
   <g id="line2d_20">
    <path d="M 73.832727 295.488 
L 76.724973 238.436721 
L 78.171095 219.233481 
L 79.617218 204.557833 
L 80.340279 199.519835 
L 81.063341 193.058707 
L 82.509463 183.318977 
L 83.232525 180.016356 
L 83.955586 174.79221 
L 84.678647 172.558437 
L 85.401709 168.445172 
L 86.847832 162.248254 
L 87.570893 158.711447 
L 88.293954 155.931241 
L 89.017016 151.811971 
L 89.740077 150.713099 
L 90.463138 147.818802 
L 91.1862 146.599835 
L 91.909261 143.39329 
L 92.632322 142.270399 
L 93.355384 141.597865 
L 94.078445 139.316054 
L 94.801506 140.348874 
L 95.524568 168.295053 
L 96.247629 169.159739 
L 97.693752 166.397547 
L 98.416813 163.028874 
L 99.139874 160.711034 
L 99.862936 158.951638 
L 101.309059 154.634211 
L 102.03212 153.391225 
L 102.755181 150.863218 
L 103.478243 149.181884 
L 104.201304 146.755959 
L 104.924365 144.972543 
L 105.647427 144.786396 
L 107.093549 140.83526 
L 107.816611 139.478183 
L 108.539672 137.796848 
L 109.262733 135.551066 
L 109.985795 134.764442 
L 111.431917 131.131558 
L 112.87804 128.321328 
L 113.601101 127.720851 
L 114.324163 124.340168 
L 115.047224 123.757706 
L 115.770285 121.806157 
L 116.493347 120.485109 
L 117.216408 118.305379 
L 117.93947 117.278564 
L 118.662531 115.885458 
L 119.385592 113.981948 
L 120.831715 111.970351 
L 121.554776 110.733369 
L 122.277838 108.079263 
L 123.000899 106.6141 
L 123.72396 105.929557 
L 124.447022 103.545665 
L 125.170083 103.935975 
L 125.893144 101.203806 
L 127.339267 99.402376 
L 128.78539 96.448032 
L 129.508451 96.141789 
L 130.231512 96.291908 
L 130.954574 93.451654 
L 131.677635 92.496896 
L 132.400696 92.827158 
L 133.123758 92.424839 
L 133.846819 90.59939 
L 134.569881 90.034942 
L 135.292942 91.247905 
L 137.462126 89.782742 
L 138.185187 88.833989 
L 138.908249 122.394624 
L 139.63131 127.354561 
L 140.354371 126.59796 
L 141.077433 128.189223 
L 141.800494 126.970256 
L 142.523555 125.210859 
L 143.246617 124.54433 
L 143.969678 125.102774 
L 145.415801 123.079168 
L 146.138862 122.778929 
L 146.861923 121.788143 
L 147.584985 121.223695 
L 148.308046 119.93267 
L 149.031108 119.410256 
L 149.754169 118.083203 
L 150.47723 117.939088 
L 152.646414 115.429096 
L 153.369476 115.59723 
L 154.092537 114.744553 
L 154.815598 113.693719 
L 155.53866 113.6697 
L 156.261721 112.282599 
L 156.984782 111.513989 
L 157.707844 111.574037 
L 158.430905 109.880693 
L 159.153966 110.19294 
L 159.877028 108.259406 
L 160.600089 108.877897 
L 161.32315 107.676944 
L 162.046212 107.851082 
L 162.769273 106.34989 
L 163.492334 105.887523 
L 164.215396 104.506427 
L 164.938457 102.747031 
L 165.661519 103.683774 
L 166.38458 102.290669 
L 167.107641 102.212607 
L 168.553764 99.774672 
L 169.276825 100.60333 
L 169.999887 98.765871 
L 170.722948 98.723838 
L 171.446009 97.624966 
L 172.169071 97.408794 
L 172.892132 96.027698 
L 173.615193 96.405998 
L 174.338255 95.33715 
L 175.061316 94.478469 
L 176.507439 93.601773 
L 177.2305 92.316753 
L 177.953561 91.626205 
L 179.399684 90.659438 
L 180.122745 90.371209 
L 180.845807 88.815975 
L 181.568868 88.894037 
L 182.29193 87.488921 
L 183.014991 86.978516 
L 183.738052 86.666268 
L 184.461114 86.203902 
L 185.184175 85.062996 
L 185.907236 85.519358 
L 186.630298 83.988143 
L 187.353359 83.982138 
L 188.07642 82.486952 
L 188.799482 81.62827 
L 189.522543 81.508175 
L 190.245604 82.00657 
L 190.968666 79.706745 
L 192.414788 78.709954 
L 193.860911 78.739978 
L 195.307034 75.803647 
L 196.030095 76.223981 
L 196.753157 75.863695 
L 197.476218 75.323266 
L 198.199279 74.602694 
L 198.922341 74.20638 
L 199.645402 72.416959 
L 200.368463 71.426173 
L 201.091525 72.230812 
L 201.814586 71.966602 
L 202.537647 70.753639 
L 203.260709 70.081106 
L 203.98377 71.486221 
L 204.706831 69.660772 
L 205.429893 69.762853 
L 206.152954 69.186396 
L 206.876015 67.300899 
L 207.599077 68.754052 
L 208.322138 67.036689 
L 209.045199 67.499056 
L 209.768261 66.021884 
L 210.491322 67.072718 
L 211.214383 65.619565 
L 211.937445 65.667603 
L 212.660506 65.34935 
L 213.383568 65.895784 
L 214.106629 64.84495 
L 214.82969 64.196435 
L 215.552752 64.550716 
L 216.275813 64.646793 
L 216.998874 63.992273 
L 217.721936 63.764092 
L 218.444997 64.136388 
L 219.168058 63.373782 
L 219.89112 63.451844 
L 220.614181 62.67723 
L 221.337242 63.752083 
L 222.060304 63.523902 
L 222.783365 63.69804 
L 223.506426 63.722059 
L 224.229488 62.959454 
L 224.952549 62.965458 
L 225.67561 94.544521 
L 226.398672 103.089303 
L 227.121733 103.455593 
L 227.844794 103.191384 
L 228.567856 103.55167 
L 229.290917 103.563679 
L 230.013979 103.978008 
L 231.460101 103.725808 
L 232.183163 102.278659 
L 232.906224 103.533655 
L 233.629285 102.969207 
L 234.352347 101.492035 
L 235.075408 101.852321 
L 235.798469 101.468016 
L 236.521531 100.585315 
L 237.244592 100.987635 
L 237.967653 100.915577 
L 238.690715 99.456419 
L 239.413776 99.678596 
L 240.859899 98.207428 
L 241.58296 99.132162 
L 242.306021 97.372766 
L 243.029083 98.063314 
L 243.752144 97.00047 
L 244.475206 98.195419 
L 245.198267 97.90719 
L 245.921328 97.132575 
L 246.64439 96.556118 
L 247.367451 97.739056 
L 248.090512 97.00047 
L 248.813574 95.595355 
L 249.536635 97.066523 
L 250.259696 94.922821 
L 250.982758 95.805522 
L 251.705819 94.472464 
L 252.42888 94.466459 
L 253.151942 95.07294 
L 253.875003 94.634593 
L 255.321126 92.689048 
L 256.044187 92.689048 
L 256.767248 93.865983 
L 257.49031 92.64101 
L 258.213371 92.562948 
L 258.936432 91.88441 
L 259.659494 92.406824 
L 260.382555 92.442853 
L 261.105617 91.650224 
L 261.828678 91.374005 
L 262.551739 90.521328 
L 263.274801 91.169843 
L 263.997862 90.299152 
L 264.720923 89.932861 
L 265.443985 90.263123 
L 266.167046 90.08298 
L 266.890107 90.389223 
L 267.613169 88.605808 
L 269.059291 89.524537 
L 269.782353 89.080184 
L 270.505414 87.813179 
L 271.228475 87.849207 
L 271.951537 88.227508 
L 272.674598 86.834402 
L 273.397659 86.666268 
L 274.120721 87.428874 
L 275.566843 85.249144 
L 276.289905 85.195101 
L 277.012966 86.299978 
L 278.459089 85.117039 
L 279.18215 84.870844 
L 279.905212 84.906872 
L 281.351334 84.276372 
L 282.074396 83.753957 
L 282.797457 83.922091 
L 283.520518 83.687905 
L 284.24358 83.66989 
L 284.966641 83.219533 
L 285.689702 82.450923 
L 286.412764 82.312813 
L 287.135825 82.53499 
L 287.858886 81.598246 
L 288.581948 80.967746 
L 289.305009 81.177913 
L 290.02807 80.361264 
L 290.751132 81.045808 
L 291.474193 81.141884 
L 292.197255 79.70074 
L 292.920316 80.511384 
L 293.643377 79.286411 
L 294.366439 79.364473 
L 295.0895 78.469763 
L 295.812561 79.160311 
L 296.535623 78.848064 
L 297.258684 78.265601 
L 297.981745 78.139501 
L 298.704807 77.875292 
L 299.427868 79.622678 
L 300.150929 77.917325 
L 300.873991 77.539025 
L 301.597052 78.109477 
L 302.320113 77.827253 
L 303.043175 76.428143 
L 303.766236 76.302043 
L 304.489297 75.845681 
L 305.212359 76.019819 
L 305.93542 75.053052 
L 306.658481 76.308048 
L 307.381543 75.065061 
L 308.104604 74.632718 
L 308.827666 75.311257 
L 309.550727 73.774037 
L 310.273788 73.852098 
L 310.99685 74.056261 
L 311.719911 73.281646 
L 312.442972 73.449779 
L 313.166034 72.753226 
L 313.889095 72.717198 
L 314.612156 73.383727 
L 315.335218 73.155546 
L 316.058279 71.546268 
L 316.78134 70.783663 
L 317.504402 71.095911 
L 318.227463 70.61553 
L 318.950524 71.330097 
L 319.673586 68.0575 
L 320.396647 67.967428 
L 321.119708 68.003457 
L 321.84277 67.745252 
L 322.565831 65.799708 
L 323.288892 66.316118 
L 324.011954 66.093941 
L 324.735015 66.00387 
L 325.458077 64.424616 
L 326.904199 64.310526 
L 327.627261 63.361773 
L 328.350322 63.499882 
L 329.073383 64.604759 
L 329.796445 63.385792 
L 330.519506 62.857373 
L 331.242567 63.656006 
L 331.965629 62.617182 
L 332.68869 62.154815 
L 333.411751 62.082758 
L 334.134813 61.434243 
L 334.857874 61.932639 
L 335.580935 61.842567 
L 336.303997 61.019914 
L 337.027058 60.911828 
L 337.750119 59.975085 
L 338.473181 59.518723 
L 339.196242 59.800947 
L 339.919304 59.668842 
L 340.642365 59.356594 
L 341.365426 59.482694 
L 342.088488 57.981503 
L 342.811549 58.81016 
L 343.53461 59.08638 
L 344.257672 57.837388 
L 344.980733 58.161646 
L 345.703794 57.513131 
L 346.426856 57.41105 
L 347.149917 56.330192 
L 347.872978 56.39024 
L 348.59604 56.822583 
L 349.319101 56.384235 
L 350.042162 55.549573 
L 350.765224 56.198087 
L 351.488285 60.647619 
L 352.211346 61.043933 
L 352.934408 60.155228 
L 353.657469 61.14001 
L 354.38053 60.809747 
L 355.103592 60.971876 
L 355.826653 60.935847 
L 356.549715 60.557547 
L 357.272776 59.897023 
L 357.995837 60.335371 
L 358.718899 61.188048 
L 359.44196 60.809747 
L 360.165021 61.055943 
L 360.888083 59.812956 
L 361.611144 60.353385 
L 362.334205 61.146014 
L 364.503389 61.0019 
L 365.226451 60.071161 
L 365.949512 59.85499 
L 366.672573 60.887809 
L 367.395635 53.568 
L 368.118696 60.479485 
L 368.841757 61.146014 
L 369.564819 60.311352 
L 370.28788 60.61159 
L 371.010941 60.323361 
L 371.734003 59.860994 
L 372.457064 59.758913 
L 373.903187 60.635609 
L 374.626248 60.743695 
L 375.34931 60.269319 
L 376.072371 60.653624 
L 376.795432 59.704871 
L 378.964616 60.809747 
L 379.687678 60.185252 
L 380.410739 60.713671 
L 381.1338 60.779724 
L 381.856862 60.3714 
L 382.579923 61.073957 
L 383.302984 59.915037 
L 384.026046 60.569557 
L 384.749107 60.317357 
L 385.472168 60.287333 
L 386.19523 61.0019 
L 386.918291 59.945061 
L 387.641353 60.491495 
L 389.087475 59.692861 
L 389.810537 59.96908 
L 390.533598 60.635609 
L 391.256659 60.503504 
L 391.979721 59.440661 
L 392.702782 60.599581 
L 393.425843 60.329366 
L 394.148905 60.575562 
L 394.871966 60.401423 
L 395.595027 60.059152 
L 396.318089 59.885014 
L 397.04115 60.467476 
L 397.764211 60.761709 
L 398.487273 60.545538 
L 398.487273 60.545538 
" clip-path="url(#p2fbe74cb65)" style="fill: none; stroke: #1f77b4; stroke-width: 1.5; stroke-linecap: square"/>
   </g>
   <g id="line2d_21">
    <path d="M 73.832727 283.382392 
L 74.555789 268.520597 
L 75.27885 243.931082 
L 76.001911 228.618929 
L 76.724973 219.972067 
L 77.448034 201.657531 
L 78.171095 199.585887 
L 78.894157 183.222901 
L 79.617218 172.08406 
L 80.340279 168.691368 
L 81.063341 168.421153 
L 81.786402 166.739819 
L 82.509463 158.993671 
L 83.232525 146.683902 
L 83.955586 142.960947 
L 84.678647 141.579851 
L 85.401709 134.794465 
L 86.12477 133.893751 
L 86.847832 130.83132 
L 87.570893 132.692797 
L 88.293954 123.715673 
L 89.017016 124.436245 
L 89.740077 119.69248 
L 90.463138 117.921074 
L 91.1862 118.52155 
L 91.909261 114.798596 
L 92.632322 115.639263 
L 93.355384 113.507571 
L 94.078445 114.168095 
L 94.801506 113.65769 
L 95.524568 143.351257 
L 96.247629 135.875323 
L 96.97069 137.376515 
L 97.693752 132.032273 
L 98.416813 132.002249 
L 99.139874 128.039104 
L 99.862936 130.741249 
L 100.585997 126.537913 
L 101.309059 126.718056 
L 102.03212 120.443075 
L 102.755181 120.022742 
L 103.478243 119.182075 
L 104.201304 117.530764 
L 104.924365 118.851813 
L 105.647427 116.209716 
L 106.370488 115.158882 
L 107.093549 112.396689 
L 107.816611 112.516785 
L 108.539672 108.973973 
L 109.262733 109.994783 
L 109.985795 106.481995 
L 110.708856 107.562853 
L 111.431917 105.251018 
L 112.154979 107.652925 
L 112.87804 102.668969 
L 113.601101 101.618135 
L 114.324163 103.209398 
L 115.047224 100.657373 
L 115.770285 99.996848 
L 116.493347 97.564918 
L 117.216408 100.267063 
L 117.93947 96.093751 
L 118.662531 98.585728 
L 119.385592 94.202249 
L 120.108654 94.83275 
L 120.831715 95.253083 
L 121.554776 92.370796 
L 122.277838 93.331558 
L 123.000899 93.001296 
L 123.72396 90.59939 
L 124.447022 91.109795 
L 125.893144 90.59939 
L 126.616206 88.617817 
L 127.339267 87.476912 
L 128.062328 87.807174 
L 128.78539 87.326793 
L 129.508451 87.987317 
L 130.231512 88.047365 
L 130.954574 86.636245 
L 131.677635 85.855625 
L 133.123758 85.435292 
L 133.846819 85.585411 
L 134.569881 86.336006 
L 135.292942 85.675482 
L 138.185187 85.165077 
L 138.908249 106.421948 
L 139.63131 102.849112 
L 140.354371 106.722186 
L 141.077433 104.710589 
L 141.800494 106.451971 
L 142.523555 103.269446 
L 143.246617 105.130923 
L 143.969678 99.966824 
L 144.692739 100.297087 
L 145.415801 104.95078 
L 146.138862 99.546491 
L 146.861923 102.51885 
L 147.584985 97.65499 
L 148.308046 102.488826 
L 149.031108 97.865156 
L 149.754169 98.765871 
L 150.47723 98.946014 
L 151.200292 101.407968 
L 151.923353 98.465633 
L 152.646414 98.765871 
L 154.092537 95.763488 
L 154.815598 97.294704 
L 155.53866 98.135371 
L 156.261721 97.865156 
L 156.984782 96.994465 
L 157.707844 95.85356 
L 158.430905 95.22306 
L 159.153966 95.973655 
L 159.877028 95.583346 
L 160.600089 92.550939 
L 161.32315 91.530129 
L 162.046212 95.283107 
L 162.769273 97.504871 
L 163.492334 91.860391 
L 164.215396 92.40082 
L 164.938457 93.361582 
L 166.38458 93.091368 
L 167.107641 98.765871 
L 167.830703 89.638627 
L 168.553764 91.169843 
L 169.276825 91.860391 
L 169.999887 88.017341 
L 170.722948 95.433226 
L 171.446009 91.800343 
L 172.169071 89.998913 
L 172.892132 91.560153 
L 173.615193 90.569366 
L 174.338255 91.650224 
L 175.061316 90.959676 
L 175.784377 88.948079 
L 176.507439 89.458485 
L 177.2305 88.918056 
L 177.953561 89.96889 
L 178.676623 91.349986 
L 179.399684 86.876435 
L 180.122745 88.858008 
L 180.845807 87.807174 
L 181.568868 85.73553 
L 182.29193 86.75634 
L 183.738052 87.506936 
L 184.461114 88.677865 
L 185.184175 87.897245 
L 185.907236 83.874052 
L 186.630298 84.95491 
L 187.353359 85.555387 
L 188.07642 85.044982 
L 188.799482 86.245935 
L 189.522543 84.744743 
L 190.245604 84.864839 
L 190.968666 85.375244 
L 191.691727 86.245935 
L 192.414788 85.014958 
L 193.13785 85.225125 
L 193.860911 84.864839 
L 194.583972 83.123457 
L 196.030095 81.772384 
L 196.753157 83.423695 
L 197.476218 82.252766 
L 198.199279 81.772384 
L 198.922341 84.264362 
L 199.645402 83.783981 
L 200.368463 82.042599 
L 201.091525 80.781598 
L 201.814586 82.553004 
L 202.537647 81.442122 
L 203.260709 80.061026 
L 203.98377 80.271193 
L 205.429893 81.081836 
L 206.152954 80.211145 
L 206.876015 80.391288 
L 207.599077 80.241169 
L 208.322138 80.48136 
L 209.045199 78.649906 
L 209.768261 80.031002 
L 210.491322 78.259597 
L 211.214383 78.619882 
L 211.937445 78.529811 
L 212.660506 78.980168 
L 213.383568 79.010192 
L 214.106629 78.830049 
L 214.82969 79.550621 
L 215.552752 78.139501 
L 216.275813 78.019406 
L 216.998874 77.719168 
L 217.721936 77.629096 
L 218.444997 77.899311 
L 219.168058 77.809239 
L 220.614181 77.478977 
L 221.337242 77.539025 
L 222.060304 77.869287 
L 222.783365 77.779215 
L 223.506426 77.418929 
L 224.229488 77.719168 
L 224.952549 77.599072 
L 225.67561 95.643393 
L 226.398672 97.084537 
L 227.121733 102.428778 
L 227.844794 97.745061 
L 229.290917 101.407968 
L 230.013979 98.795895 
L 230.73704 104.620518 
L 231.460101 104.740613 
L 232.183163 99.516467 
L 232.906224 99.396372 
L 233.629285 94.772702 
L 234.352347 99.726634 
L 235.075408 95.132988 
L 235.798469 97.685014 
L 236.521531 99.036086 
L 237.244592 98.225442 
L 237.967653 99.606539 
L 238.690715 98.105347 
L 239.413776 94.682631 
L 240.136837 94.262297 
L 240.859899 97.234656 
L 241.58296 98.165395 
L 243.029083 92.40082 
L 243.752144 103.990017 
L 244.475206 96.063727 
L 245.198267 99.726634 
L 245.921328 96.574132 
L 246.64439 94.922821 
L 247.367451 96.934418 
L 248.090512 94.322345 
L 248.813574 95.163012 
L 249.536635 96.273894 
L 250.259696 96.303917 
L 250.982758 94.652607 
L 251.705819 95.583346 
L 252.42888 97.294704 
L 253.151942 93.001296 
L 253.875003 94.652607 
L 254.598064 99.186205 
L 255.321126 95.012893 
L 256.044187 91.740295 
L 256.767248 93.391606 
L 257.49031 93.541725 
L 258.213371 98.225442 
L 258.936432 96.093751 
L 259.659494 96.934418 
L 260.382555 98.525681 
L 261.105617 94.112178 
L 261.828678 95.763488 
L 262.551739 91.470081 
L 263.274801 91.440057 
L 263.997862 94.262297 
L 264.720923 93.181439 
L 265.443985 94.382392 
L 266.167046 90.088985 
L 266.890107 94.952845 
L 267.613169 91.920438 
L 268.33623 91.019724 
L 269.059291 92.881201 
L 269.782353 94.082154 
L 270.505414 91.710272 
L 271.228475 91.710272 
L 271.951537 93.091368 
L 272.674598 92.130605 
L 273.397659 91.590176 
L 274.120721 93.781916 
L 274.843782 93.962059 
L 275.566843 90.239104 
L 276.289905 92.190653 
L 277.012966 89.878818 
L 277.736028 95.313131 
L 278.459089 91.289938 
L 279.18215 90.719485 
L 279.905212 89.338389 
L 280.628273 90.9897 
L 281.351334 95.433226 
L 282.074396 89.758723 
L 282.797457 92.911225 
L 283.520518 90.749509 
L 284.24358 95.193036 
L 284.966641 96.273894 
L 285.689702 93.301535 
L 286.412764 90.839581 
L 287.135825 91.680248 
L 287.858886 94.05213 
L 288.581948 88.257531 
L 290.02807 92.761106 
L 290.751132 93.271511 
L 291.474193 89.458485 
L 292.197255 95.132988 
L 292.920316 89.008127 
L 293.643377 89.728699 
L 294.366439 95.012893 
L 295.0895 90.719485 
L 295.812561 89.518532 
L 296.535623 92.070558 
L 297.258684 88.437674 
L 297.981745 89.488508 
L 298.704807 87.566983 
L 299.427868 88.527746 
L 300.150929 90.659438 
L 300.873991 89.57858 
L 301.597052 89.548556 
L 302.320113 87.717102 
L 303.043175 89.788747 
L 304.489297 89.848794 
L 305.212359 89.038151 
L 305.93542 89.368413 
L 306.658481 87.987317 
L 307.381543 91.860391 
L 308.104604 88.677865 
L 308.827666 89.668651 
L 309.550727 91.169843 
L 310.273788 87.116626 
L 310.99685 87.176674 
L 311.719911 85.645458 
L 312.442972 91.019724 
L 313.166034 86.245935 
L 313.889095 86.035768 
L 314.612156 86.426078 
L 315.335218 86.275959 
L 316.058279 84.924886 
L 316.78134 84.32441 
L 317.504402 87.837198 
L 318.227463 87.807174 
L 318.950524 86.396054 
L 319.673586 89.18827 
L 320.396647 85.585411 
L 321.119708 87.236721 
L 321.84277 86.486125 
L 322.565831 87.687079 
L 323.288892 85.315196 
L 324.011954 85.34522 
L 324.735015 86.215911 
L 325.458077 84.804791 
L 326.181138 84.504553 
L 326.904199 85.225125 
L 327.627261 84.95491 
L 329.073383 85.285172 
L 329.796445 85.014958 
L 330.519506 84.444505 
L 331.242567 83.453719 
L 331.965629 84.174291 
L 332.68869 83.753957 
L 333.411751 83.483743 
L 334.134813 82.102647 
L 334.857874 83.844029 
L 335.580935 85.225125 
L 336.303997 85.555387 
L 337.027058 86.245935 
L 337.750119 81.231956 
L 338.473181 80.241169 
L 339.196242 82.312813 
L 339.919304 82.673099 
L 340.642365 80.841646 
L 341.365426 82.883266 
L 342.088488 80.241169 
L 342.811549 81.021789 
L 343.53461 82.703123 
L 344.257672 81.952527 
L 344.980733 80.181122 
L 345.703794 82.312813 
L 347.149917 80.781598 
L 347.872978 81.412098 
L 348.59604 78.529811 
L 349.319101 79.880883 
L 350.042162 82.553004 
L 350.765224 79.940931 
L 351.488285 81.412098 
L 352.211346 79.100264 
L 352.934408 81.171908 
L 353.657469 80.511384 
L 354.38053 80.601455 
L 355.103592 80.09105 
L 355.826653 81.021789 
L 356.549715 81.50217 
L 357.272776 82.13267 
L 357.995837 79.490573 
L 358.718899 82.13267 
L 359.44196 81.261979 
L 360.165021 80.87167 
L 360.888083 81.412098 
L 361.611144 80.511384 
L 362.334205 80.631479 
L 364.503389 79.760788 
L 365.226451 80.181122 
L 366.672573 82.222742 
L 367.395635 83.723933 
L 368.118696 79.580645 
L 368.841757 82.222742 
L 369.564819 80.121074 
L 370.28788 81.50217 
L 371.010941 81.352051 
L 371.734003 79.250383 
L 372.457064 80.511384 
L 373.180126 81.081836 
L 373.903187 83.753957 
L 374.626248 80.451336 
L 375.34931 81.141884 
L 376.072371 81.051813 
L 376.795432 81.592241 
L 377.518494 79.670716 
L 378.241555 81.231956 
L 378.964616 80.751574 
L 379.687678 79.640693 
L 380.410739 80.72155 
L 381.1338 78.589859 
L 381.856862 81.952527 
L 382.579923 79.46055 
L 383.302984 82.643075 
L 384.026046 82.192718 
L 384.749107 83.333624 
L 385.472168 80.691527 
L 386.19523 80.121074 
L 386.918291 80.931717 
L 387.641353 81.382075 
L 388.364414 80.691527 
L 389.087475 80.301217 
L 389.810537 80.271193 
L 390.533598 79.550621 
L 391.979721 83.423695 
L 392.702782 79.46055 
L 393.425843 81.322027 
L 394.148905 80.781598 
L 394.871966 80.72155 
L 396.318089 80.181122 
L 397.04115 81.922504 
L 397.764211 81.021789 
L 398.487273 82.012575 
L 398.487273 82.012575 
" clip-path="url(#p2fbe74cb65)" style="fill: none; stroke: #ff7f0e; stroke-width: 1.5; stroke-linecap: square"/>
   </g>
   <g id="line2d_22">
    <path d="M 73.832727 285.832037 
L 74.555789 277.10441 
L 75.27885 245.57939 
L 76.001911 235.888899 
L 76.724973 228.74533 
L 77.448034 217.822661 
L 78.171095 215.835083 
L 78.894157 206.268891 
L 79.617218 194.435299 
L 80.340279 187.736683 
L 81.063341 196.433385 
L 81.786402 196.164071 
L 83.232525 170.954564 
L 84.678647 177.125061 
L 85.401709 166.264542 
L 86.12477 166.357916 
L 86.847832 169.121909 
L 87.570893 162.744548 
L 88.293954 161.005268 
L 89.017016 158.375481 
L 89.740077 159.359061 
L 90.463138 154.016921 
L 91.1862 156.771007 
L 91.909261 155.911425 
L 92.632322 154.224086 
L 93.355384 152.132626 
L 94.078445 151.625523 
L 94.801506 151.780747 
L 95.524568 172.393606 
L 96.247629 171.700056 
L 96.97069 168.469792 
L 97.693752 168.614807 
L 98.416813 171.016713 
L 99.139874 162.019773 
L 99.862936 170.923339 
L 100.585997 160.011479 
L 101.309059 167.040958 
L 102.03212 161.025984 
L 102.755181 156.108381 
L 103.478243 159.88718 
L 104.201304 154.462175 
L 104.924365 160.984551 
L 105.647427 159.504076 
L 106.370488 158.862167 
L 107.093549 156.98838 
L 107.816611 158.520496 
L 108.539672 155.01071 
L 109.262733 153.09549 
L 109.985795 148.084813 
L 110.708856 146.956218 
L 111.431917 150.341705 
L 112.154979 146.831919 
L 112.87804 147.070008 
L 113.601101 142.12118 
L 114.324163 149.606421 
L 115.047224 144.595744 
L 115.770285 143.146194 
L 116.493347 141.034318 
L 117.216408 144.647385 
L 117.93947 140.444049 
L 118.662531 142.576942 
L 119.385592 140.154319 
L 120.108654 137.089787 
L 120.831715 140.734079 
L 121.554776 137.741905 
L 122.277838 139.067156 
L 123.000899 144.181716 
L 123.72396 136.147639 
L 124.447022 132.503347 
L 125.170083 135.723102 
L 125.893144 135.153851 
L 126.616206 135.961191 
L 127.339267 131.416184 
L 128.062328 134.045971 
L 128.78539 132.762153 
L 129.508451 132.979525 
L 130.231512 134.366926 
L 130.954574 133.259047 
L 131.677635 130.712125 
L 132.400696 131.778572 
L 133.846819 132.492839 
L 134.569881 132.875943 
L 135.292942 132.016661 
L 136.016003 132.358332 
L 136.739065 131.716423 
L 137.462126 132.172184 
L 138.185187 132.016661 
L 138.908249 149.627137 
L 139.63131 153.023133 
L 140.354371 152.143134 
L 141.077433 147.484337 
L 141.800494 159.038106 
L 142.523555 143.788103 
L 143.246617 152.453581 
L 143.969678 148.964812 
L 144.692739 142.628583 
L 145.415801 149.306183 
L 146.138862 146.70762 
L 146.861923 148.198604 
L 147.584985 142.048823 
L 148.308046 152.143134 
L 149.031108 145.568817 
L 149.754169 145.268578 
L 150.47723 154.72098 
L 151.200292 144.09885 
L 151.923353 150.010241 
L 152.646414 144.595744 
L 153.369476 145.983145 
L 154.092537 141.614078 
L 154.815598 141.945241 
L 155.53866 137.959277 
L 156.261721 152.950475 
L 156.984782 147.618844 
L 157.707844 145.5481 
L 158.430905 136.282146 
L 159.153966 146.749053 
L 159.877028 145.496459 
L 160.600089 136.334087 
L 161.32315 135.122626 
L 162.046212 146.283384 
L 162.769273 150.590002 
L 163.492334 140.661422 
L 164.215396 144.523087 
L 164.938457 147.670485 
L 165.661519 142.980763 
L 166.38458 143.198135 
L 167.830703 146.01407 
L 168.553764 139.97838 
L 169.276825 145.517176 
L 169.999887 139.719274 
L 170.722948 142.038615 
L 171.446009 142.783806 
L 172.169071 144.916699 
L 172.892132 137.752413 
L 173.615193 143.912402 
L 174.338255 144.233357 
L 175.061316 134.718805 
L 175.784377 133.486928 
L 176.507439 137.762621 
L 177.2305 139.201663 
L 177.953561 137.369309 
L 178.676623 138.829068 
L 179.399684 136.178564 
L 180.122745 135.091701 
L 180.845807 134.232419 
L 181.568868 138.725485 
L 182.29193 137.089787 
L 183.014991 138.487396 
L 183.738052 137.503816 
L 184.461114 139.284529 
L 185.184175 139.750499 
L 185.907236 133.797374 
L 186.630298 136.075282 
L 187.353359 134.097612 
L 188.799482 137.938561 
L 189.522543 133.031466 
L 190.245604 133.310988 
L 190.968666 132.285975 
L 191.691727 138.187158 
L 193.13785 134.377134 
L 193.860911 135.433373 
L 194.583972 133.952898 
L 195.307034 130.815708 
L 196.030095 128.465743 
L 196.753157 133.165973 
L 197.476218 133.849315 
L 198.199279 129.2938 
L 198.922341 137.079279 
L 199.645402 133.373137 
L 200.368463 136.054566 
L 201.091525 127.513087 
L 201.814586 133.859523 
L 202.537647 132.43099 
L 203.260709 133.248839 
L 203.98377 133.714508 
L 204.706831 133.000241 
L 205.429893 129.956426 
L 206.152954 132.07881 
L 206.876015 130.691409 
L 207.599077 130.867649 
L 208.322138 129.914993 
L 209.045199 131.230037 
L 209.768261 127.08855 
L 210.491322 127.616669 
L 211.214383 129.500964 
L 211.937445 130.391171 
L 212.660506 128.631174 
L 213.383568 130.463828 
L 214.82969 129.200726 
L 215.552752 129.387174 
L 216.275813 128.65189 
L 216.998874 128.941921 
L 218.444997 128.382877 
L 219.168058 128.755473 
L 219.89112 129.40789 
L 220.614181 128.755473 
L 222.060304 128.641682 
L 222.783365 129.387174 
L 223.506426 128.921204 
L 224.229488 129.024786 
L 224.952549 128.952129 
L 225.67561 143.933118 
L 226.398672 143.281001 
L 227.121733 155.745994 
L 227.844794 143.798612 
L 228.567856 152.557163 
L 229.290917 158.986465 
L 230.013979 145.268578 
L 230.73704 149.896451 
L 231.460101 157.909811 
L 232.183163 145.693115 
L 232.906224 146.945709 
L 233.629285 146.01407 
L 234.352347 156.874289 
L 235.075408 143.529298 
L 235.798469 138.321665 
L 236.521531 150.631434 
L 237.244592 144.730251 
L 237.967653 147.028575 
L 238.690715 147.225231 
L 239.413776 146.107144 
L 240.136837 146.863144 
L 240.859899 148.86123 
L 241.58296 147.328813 
L 242.306021 147.504753 
L 243.029083 139.005007 
L 243.752144 153.871906 
L 244.475206 150.807374 
L 245.198267 152.51573 
L 245.921328 143.384283 
L 246.64439 143.477657 
L 247.367451 142.649299 
L 248.090512 145.289295 
L 248.813574 143.891685 
L 249.536635 143.436224 
L 250.259696 141.469063 
L 250.982758 153.695967 
L 251.705819 146.914785 
L 252.42888 149.471914 
L 253.151942 137.576473 
L 253.875003 145.102847 
L 254.598064 144.989056 
L 255.321126 148.446901 
L 256.044187 142.29742 
L 256.767248 142.556226 
L 257.49031 138.187158 
L 258.213371 149.202901 
L 258.936432 144.295506 
L 259.659494 152.018836 
L 261.105617 145.423801 
L 261.828678 148.664573 
L 262.551739 149.710003 
L 263.274801 140.454558 
L 263.997862 141.375989 
L 264.720923 150.165765 
L 265.443985 138.746202 
L 266.167046 137.358801 
L 266.890107 139.533126 
L 267.613169 138.321665 
L 268.33623 145.786189 
L 269.059291 144.191924 
L 269.782353 143.16691 
L 270.505414 137.565965 
L 271.228475 138.704769 
L 271.951537 142.928821 
L 272.674598 138.725485 
L 273.397659 144.978848 
L 274.120721 138.715277 
L 274.843782 142.93933 
L 275.566843 134.780955 
L 276.289905 142.318137 
L 277.012966 146.645471 
L 278.459089 141.075751 
L 279.18215 133.01075 
L 279.905212 137.555757 
L 280.628273 138.497604 
L 282.074396 145.455026 
L 283.520518 133.88024 
L 284.24358 142.400702 
L 284.966641 146.562905 
L 285.689702 138.528829 
L 286.412764 137.493608 
L 287.135825 138.207875 
L 287.858886 135.992416 
L 288.581948 132.700003 
L 289.305009 141.624286 
L 290.02807 139.450261 
L 290.751132 144.254073 
L 291.474193 138.653128 
L 292.197255 140.982376 
L 292.920316 136.468594 
L 293.643377 136.520235 
L 294.366439 146.521473 
L 295.0895 139.988588 
L 295.812561 140.071454 
L 297.258684 134.128837 
L 297.981745 136.08549 
L 298.704807 132.120243 
L 300.150929 144.057417 
L 300.873991 134.180478 
L 301.597052 134.667164 
L 302.320113 134.294268 
L 303.043175 139.667633 
L 303.766236 131.820005 
L 304.489297 141.748585 
L 305.212359 143.187627 
L 305.93542 141.075751 
L 306.658481 135.39194 
L 307.381543 137.773129 
L 308.104604 139.688349 
L 308.827666 139.564051 
L 309.550727 137.638322 
L 310.273788 138.787635 
L 310.99685 136.178564 
L 311.719911 131.250753 
L 312.442972 137.037846 
L 313.166034 129.832127 
L 313.889095 128.620966 
L 314.612156 129.863352 
L 315.335218 129.138577 
L 316.058279 131.830513 
L 316.78134 129.573322 
L 317.504402 130.753558 
L 318.227463 131.03308 
L 318.950524 133.890748 
L 319.673586 138.042143 
L 320.396647 134.687881 
L 321.119708 132.316899 
L 321.84277 136.561668 
L 322.565831 134.718805 
L 323.288892 135.588596 
L 324.011954 138.394322 
L 324.735015 135.350507 
L 325.458077 135.598804 
L 326.181138 132.907168 
L 326.904199 132.337616 
L 328.350322 134.532658 
L 329.073383 133.828599 
L 329.796445 137.182861 
L 330.519506 129.242159 
L 331.242567 124.510704 
L 331.965629 125.742882 
L 332.68869 133.797374 
L 333.411751 129.645979 
L 334.134813 134.563582 
L 334.857874 136.789549 
L 335.580935 130.070516 
L 336.303997 129.842635 
L 337.027058 135.164059 
L 337.750119 129.418098 
L 338.473181 124.955957 
L 339.196242 130.463828 
L 339.919304 128.009981 
L 340.642365 123.941452 
L 341.365426 131.416184 
L 342.088488 127.823833 
L 342.811549 127.979056 
L 343.53461 130.794991 
L 344.257672 128.703832 
L 344.980733 124.272615 
L 345.703794 128.475951 
L 346.426856 127.171415 
L 347.149917 124.904316 
L 347.872978 127.233565 
L 349.319101 125.628791 
L 350.042162 131.447409 
L 350.765224 130.101441 
L 351.488285 128.051414 
L 352.211346 126.767895 
L 352.934408 129.459531 
L 353.657469 129.635471 
L 354.38053 126.62288 
L 355.826653 126.125986 
L 356.549715 125.390702 
L 357.272776 130.567411 
L 357.995837 124.407122 
L 358.718899 127.099058 
L 359.44196 130.267172 
L 360.165021 128.993562 
L 360.888083 122.50241 
L 361.611144 125.028315 
L 362.334205 124.469271 
L 363.057267 129.18001 
L 363.780328 125.17333 
L 364.503389 124.738585 
L 365.226451 125.918821 
L 365.949512 126.674521 
L 366.672573 129.086936 
L 367.395635 132.420512 
L 368.118696 121.259931 
L 368.841757 129.966841 
L 369.564819 127.48211 
L 370.28788 125.929154 
L 371.010941 126.954105 
L 371.734003 126.467512 
L 372.457064 128.91083 
L 373.180126 125.846329 
L 373.903187 136.178667 
L 374.626248 126.498571 
L 375.34931 124.210548 
L 376.072371 131.229912 
L 376.795432 133.580053 
L 377.518494 129.946135 
L 378.241555 130.091077 
L 378.964616 128.610592 
L 379.687678 125.515032 
L 380.410739 126.022331 
L 381.1338 129.801192 
L 381.856862 123.56866 
L 382.579923 125.939507 
L 383.302984 128.869418 
L 384.026046 126.4261 
L 384.749107 129.935782 
L 385.472168 126.829868 
L 386.19523 126.912693 
L 386.918291 127.523522 
L 388.364414 125.069851 
L 389.087475 126.66422 
L 389.810537 125.152675 
L 390.533598 125.835976 
L 391.979721 130.33955 
L 392.702782 125.463267 
L 393.425843 130.877909 
L 394.148905 126.591748 
L 394.871966 126.90234 
L 395.595027 127.523522 
L 396.318089 123.661837 
L 397.04115 130.753672 
L 397.764211 121.76723 
L 398.487273 129.89437 
L 398.487273 129.89437 
" clip-path="url(#p2fbe74cb65)" style="fill: none; stroke: #2ca02c; stroke-width: 1.5; stroke-linecap: square"/>
   </g>
   <g id="line2d_23">
    <path d="M 73.832727 294.401137 
L 74.555789 289.927587 
L 75.27885 283.532512 
L 76.001911 282.871987 
L 76.724973 273.354434 
L 77.448034 270.89248 
L 78.171095 267.649906 
L 78.894157 256.030685 
L 79.617218 254.979851 
L 80.340279 246.993512 
L 81.063341 252.337754 
L 81.786402 246.03275 
L 82.509463 243.180486 
L 83.232525 242.1897 
L 83.955586 232.642122 
L 84.678647 226.156975 
L 85.401709 223.394783 
L 86.12477 224.265474 
L 87.570893 217.209875 
L 88.293954 214.177468 
L 89.017016 214.267539 
L 89.740077 204.870081 
L 90.463138 206.341249 
L 91.1862 205.740772 
L 91.909261 203.158723 
L 92.632322 202.558246 
L 93.355384 201.357293 
L 94.078445 201.357293 
L 94.801506 199.916149 
L 95.524568 219.311542 
L 96.247629 221.353163 
L 96.97069 218.320756 
L 97.693752 220.122186 
L 98.416813 213.156658 
L 99.139874 214.50773 
L 99.862936 210.934894 
L 100.585997 210.844823 
L 101.309059 210.154275 
L 102.755181 201.057055 
L 103.478243 200.636721 
L 104.924365 194.541884 
L 106.370488 197.3341 
L 107.093549 187.156022 
L 107.816611 190.008286 
L 108.539672 190.518691 
L 109.262733 188.116785 
L 109.985795 183.162853 
L 110.708856 183.553163 
L 111.431917 184.243711 
L 112.154979 182.081995 
L 112.87804 176.467539 
L 113.601101 173.044823 
L 114.324163 179.590017 
L 115.047224 171.873894 
L 115.770285 174.005585 
L 116.493347 168.901535 
L 117.216408 173.915514 
L 117.93947 168.060867 
L 118.662531 170.04244 
L 119.385592 164.968413 
L 120.108654 166.679771 
L 120.831715 168.901535 
L 121.554776 163.827508 
L 122.277838 162.326316 
L 123.000899 164.097722 
L 123.72396 159.92441 
L 124.447022 161.245458 
L 125.170083 159.233862 
L 125.893144 158.543314 
L 126.616206 158.153004 
L 127.339267 154.249906 
L 128.062328 157.552527 
L 129.508451 155.000502 
L 130.231512 155.450859 
L 130.954574 154.400025 
L 131.677635 151.757929 
L 132.400696 151.878024 
L 133.123758 151.187476 
L 133.846819 152.748715 
L 134.569881 152.62862 
L 135.292942 151.727905 
L 136.016003 152.148238 
L 136.739065 152.23831 
L 137.462126 150.707095 
L 138.185187 153.199072 
L 138.908249 179.019565 
L 139.63131 176.737754 
L 140.354371 176.407492 
L 141.077433 180.670875 
L 141.800494 180.911066 
L 142.523555 177.698516 
L 143.246617 181.841805 
L 143.969678 173.675323 
L 144.692739 173.975562 
L 145.415801 181.631638 
L 146.138862 176.437515 
L 146.861923 173.765395 
L 147.584985 168.871511 
L 148.308046 176.767778 
L 149.031108 170.342678 
L 149.754169 180.700899 
L 150.47723 174.035609 
L 151.200292 176.557611 
L 151.923353 172.504394 
L 152.646414 173.555228 
L 153.369476 170.402726 
L 154.092537 162.536483 
L 154.815598 169.772226 
L 155.53866 163.197007 
L 156.261721 168.24101 
L 157.707844 168.301058 
L 158.430905 168.24101 
L 159.153966 174.335847 
L 159.877028 171.393512 
L 160.600089 166.049271 
L 161.32315 163.737436 
L 162.046212 166.499628 
L 162.769273 169.982392 
L 163.492334 164.758246 
L 164.215396 171.123298 
L 164.938457 167.010033 
L 165.661519 164.307889 
L 166.38458 170.012416 
L 167.107641 173.405109 
L 167.830703 159.954434 
L 168.553764 161.005268 
L 169.276825 164.518056 
L 169.999887 156.291527 
L 170.722948 174.065633 
L 171.446009 165.959199 
L 172.892132 162.386364 
L 173.615193 161.57572 
L 174.338255 170.162535 
L 175.061316 163.917579 
L 175.784377 159.023695 
L 176.507439 161.875959 
L 177.953561 159.474052 
L 178.676623 160.614958 
L 179.399684 161.305506 
L 180.122745 161.305506 
L 180.845807 162.326316 
L 181.568868 158.753481 
L 182.29193 158.9036 
L 183.014991 163.136959 
L 183.738052 158.9036 
L 184.461114 162.716626 
L 185.907236 155.961264 
L 186.630298 156.651813 
L 187.353359 157.762694 
L 188.07642 156.261503 
L 188.799482 157.672623 
L 189.522543 154.309954 
L 190.245604 155.540931 
L 190.968666 155.69105 
L 191.691727 160.584934 
L 192.414788 155.69105 
L 193.13785 164.578103 
L 193.860911 157.822742 
L 194.583972 155.871193 
L 195.307034 158.633385 
L 196.030095 158.9036 
L 196.753157 160.644982 
L 197.476218 157.282313 
L 198.199279 154.610192 
L 199.645402 161.155387 
L 200.368463 159.894386 
L 201.091525 157.342361 
L 201.814586 160.344743 
L 202.537647 162.326316 
L 203.260709 154.009716 
L 203.98377 158.393195 
L 204.706831 158.032909 
L 205.429893 155.631002 
L 206.152954 152.448477 
L 206.876015 158.062932 
L 207.599077 155.420836 
L 208.322138 155.540931 
L 209.045199 157.462456 
L 209.768261 156.231479 
L 210.491322 155.901217 
L 211.214383 157.942837 
L 211.937445 159.444029 
L 212.660506 156.861979 
L 213.383568 158.51329 
L 214.106629 159.624172 
L 214.82969 158.843552 
L 215.552752 156.982075 
L 216.275813 156.952051 
L 216.998874 159.804315 
L 217.721936 160.434815 
L 218.444997 159.684219 
L 219.168058 157.762694 
L 219.89112 157.402408 
L 220.614181 158.333147 
L 221.337242 159.053719 
L 222.060304 159.14379 
L 222.783365 157.972861 
L 223.506426 159.173814 
L 224.229488 155.420836 
L 224.952549 160.284696 
L 225.67561 163.407174 
L 226.398672 163.016864 
L 227.121733 175.086443 
L 227.844794 164.638151 
L 228.567856 167.790653 
L 229.290917 183.913449 
L 230.013979 177.548397 
L 230.73704 172.324251 
L 232.183163 179.590017 
L 232.906224 170.943155 
L 233.629285 169.321868 
L 234.352347 173.435133 
L 235.075408 168.24101 
L 235.798469 167.160153 
L 236.521531 168.871511 
L 237.244592 176.947921 
L 237.967653 171.693751 
L 238.690715 171.243393 
L 239.413776 167.820677 
L 240.136837 167.61051 
L 240.859899 170.372702 
L 241.58296 171.093274 
L 242.306021 165.869128 
L 243.029083 165.598913 
L 243.752144 179.650065 
L 244.475206 168.120915 
L 245.198267 169.321868 
L 245.921328 169.081678 
L 246.64439 168.120915 
L 247.367451 171.183346 
L 248.090512 168.391129 
L 248.813574 166.679771 
L 249.536635 171.033226 
L 250.259696 164.548079 
L 250.982758 174.876276 
L 251.705819 167.040057 
L 252.42888 173.705347 
L 253.151942 172.894704 
L 253.875003 167.550462 
L 254.598064 175.957134 
L 256.044187 161.96603 
L 256.767248 164.728222 
L 257.49031 169.892321 
L 258.213371 172.984775 
L 258.936432 173.525204 
L 259.659494 176.407492 
L 260.382555 178.329017 
L 261.105617 178.479136 
L 262.551739 162.146173 
L 263.274801 168.210986 
L 263.997862 173.044823 
L 264.720923 175.266586 
L 265.443985 170.883107 
L 266.167046 163.407174 
L 266.890107 167.430367 
L 267.613169 168.331082 
L 268.33623 161.425601 
L 269.059291 161.695816 
L 269.782353 162.536483 
L 270.505414 159.5341 
L 271.228475 168.601296 
L 271.951537 173.765395 
L 272.674598 177.548397 
L 273.397659 172.954751 
L 274.120721 167.460391 
L 274.843782 177.068016 
L 275.566843 165.088508 
L 276.289905 166.919962 
L 277.736028 165.929176 
L 278.459089 169.772226 
L 279.18215 164.007651 
L 279.905212 162.896769 
L 280.628273 173.104871 
L 281.351334 174.786205 
L 282.074396 163.647365 
L 282.797457 169.562059 
L 283.520518 158.363171 
L 284.24358 177.72854 
L 284.966641 166.529652 
L 285.689702 162.206221 
L 286.412764 161.785887 
L 287.858886 169.02163 
L 288.581948 154.370002 
L 289.305009 168.721392 
L 290.02807 162.326316 
L 290.751132 172.294227 
L 291.474193 164.758246 
L 292.197255 172.984775 
L 292.920316 158.092956 
L 293.643377 160.524886 
L 294.366439 177.638469 
L 295.0895 172.294227 
L 295.812561 159.323933 
L 296.535623 172.324251 
L 297.258684 157.642599 
L 297.981745 174.185728 
L 298.704807 160.074529 
L 299.427868 161.845935 
L 300.150929 172.024013 
L 300.873991 161.515673 
L 301.597052 168.210986 
L 302.320113 163.106936 
L 303.043175 174.185728 
L 303.766236 166.049271 
L 304.489297 164.488032 
L 305.212359 163.437198 
L 305.93542 163.287079 
L 306.658481 161.365554 
L 308.104604 174.606062 
L 308.827666 165.628937 
L 309.550727 174.185728 
L 310.273788 166.409557 
L 310.99685 162.056102 
L 311.719911 167.580486 
L 312.442972 169.02163 
L 313.166034 159.053719 
L 313.889095 168.601296 
L 314.612156 162.656578 
L 315.335218 168.120915 
L 316.058279 167.550462 
L 316.78134 170.132512 
L 317.504402 165.478818 
L 318.227463 164.247841 
L 318.950524 160.284696 
L 319.673586 172.834656 
L 320.396647 164.427984 
L 321.119708 168.421153 
L 321.84277 168.090891 
L 322.565831 171.363488 
L 323.288892 160.644982 
L 324.735015 170.913131 
L 325.458077 164.277865 
L 326.181138 161.815911 
L 327.627261 167.010033 
L 328.350322 159.083743 
L 329.073383 168.271034 
L 329.796445 163.046888 
L 330.519506 163.317102 
L 331.242567 162.476435 
L 331.965629 154.790335 
L 332.68869 165.41877 
L 333.411751 168.150939 
L 334.134813 167.2202 
L 334.857874 159.173814 
L 335.580935 159.594148 
L 336.303997 176.107253 
L 337.027058 160.074529 
L 337.750119 162.446411 
L 338.473181 159.203838 
L 339.196242 164.668175 
L 339.919304 167.430367 
L 340.642365 157.432432 
L 341.365426 164.217817 
L 342.088488 158.963647 
L 342.811549 162.026078 
L 343.53461 160.795101 
L 344.257672 162.686602 
L 344.980733 160.885172 
L 345.703794 162.386364 
L 346.426856 171.153322 
L 347.149917 166.859914 
L 347.872978 163.887555 
L 348.59604 166.109319 
L 349.319101 158.723457 
L 350.042162 170.192559 
L 350.765224 160.524886 
L 351.488285 167.970796 
L 352.211346 151.577786 
L 352.934408 158.032909 
L 353.657469 165.959199 
L 354.38053 165.80908 
L 355.103592 157.402408 
L 355.826653 158.693433 
L 356.549715 152.658643 
L 357.272776 161.605744 
L 357.995837 160.795101 
L 358.718899 157.462456 
L 359.44196 159.954434 
L 360.165021 155.30074 
L 360.888083 156.741884 
L 361.611144 156.441646 
L 362.334205 154.790335 
L 363.057267 163.797484 
L 363.780328 156.351574 
L 364.503389 160.855149 
L 365.226451 161.936006 
L 365.949512 156.621789 
L 366.672573 161.275482 
L 367.395635 171.183346 
L 368.118696 161.905983 
L 368.841757 166.019247 
L 369.564819 157.942837 
L 370.28788 158.273099 
L 371.010941 157.702647 
L 371.734003 162.74665 
L 372.457064 158.573338 
L 373.180126 157.042122 
L 373.903187 169.441963 
L 374.626248 161.305506 
L 375.34931 160.254672 
L 376.072371 162.026078 
L 376.795432 159.383981 
L 377.518494 160.284696 
L 378.241555 169.26182 
L 378.964616 156.982075 
L 379.687678 160.254672 
L 380.410739 165.088508 
L 381.1338 161.365554 
L 381.856862 171.123298 
L 382.579923 167.640534 
L 383.302984 158.603361 
L 384.026046 158.032909 
L 384.749107 164.127746 
L 385.472168 161.395577 
L 386.19523 168.210986 
L 386.918291 168.751415 
L 387.641353 166.949986 
L 388.364414 163.797484 
L 389.087475 155.180645 
L 389.810537 169.081678 
L 390.533598 176.017182 
L 391.979721 158.573338 
L 392.702782 160.675006 
L 393.425843 156.741884 
L 394.148905 159.864362 
L 394.871966 160.55491 
L 395.595027 164.518056 
L 396.318089 158.963647 
L 397.04115 166.109319 
L 397.764211 168.901535 
L 398.487273 164.698199 
L 398.487273 164.698199 
" clip-path="url(#p2fbe74cb65)" style="fill: none; stroke: #d62728; stroke-width: 1.5; stroke-linecap: square"/>
   </g>
   <g id="line2d_24">
    <path d="M 351.488285 81.772384 
L 352.211346 79.760788 
L 353.657469 81.862456 
L 354.38053 83.783981 
L 355.103592 81.382075 
L 355.826653 80.361264 
L 356.549715 82.943314 
L 357.272776 81.712337 
L 357.995837 83.783981 
L 358.718899 82.252766 
L 359.44196 83.333624 
L 360.165021 80.421312 
L 360.888083 80.691527 
L 361.611144 83.513766 
L 362.334205 83.453719 
L 363.057267 83.243552 
L 363.780328 81.862456 
L 364.503389 84.804791 
L 365.226451 84.504553 
L 365.949512 82.583028 
L 366.672573 86.786364 
L 367.395635 86.36603 
L 368.118696 87.476912 
L 368.841757 86.36603 
L 369.564819 83.54379 
L 370.28788 85.405268 
L 371.010941 91.319962 
L 371.734003 88.047365 
L 372.457064 85.945697 
L 373.180126 87.38684 
L 373.903187 86.155863 
L 374.626248 85.165077 
L 375.34931 88.16746 
L 376.072371 87.657055 
L 376.795432 85.97572 
L 377.518494 89.548556 
L 378.241555 87.116626 
L 378.964616 86.36603 
L 379.687678 89.698675 
L 380.410739 86.966507 
L 381.856862 92.881201 
L 382.579923 92.490891 
L 383.302984 90.9897 
L 384.026046 88.017341 
L 384.749107 89.338389 
L 385.472168 92.791129 
L 386.19523 95.523298 
L 386.918291 98.91599 
L 387.641353 98.045299 
L 388.364414 95.883584 
L 389.087475 92.671034 
L 389.810537 96.24387 
L 391.256659 95.102964 
L 391.979721 97.985252 
L 392.702782 92.160629 
L 394.148905 109.244187 
L 394.871966 102.849112 
L 395.595027 101.49804 
L 396.318089 98.105347 
L 397.04115 99.906777 
L 397.764211 107.983187 
L 398.487273 104.260232 
L 398.487273 104.260232 
" clip-path="url(#p2fbe74cb65)" style="fill: none; stroke: #9467bd; stroke-width: 1.5; stroke-linecap: square"/>
   </g>
   <g id="line2d_25">
    <path d="M 351.488285 130.567411 
L 352.211346 127.20264 
L 352.934408 128.165504 
L 353.657469 131.61284 
L 354.38053 131.38526 
L 355.103592 131.478334 
L 355.826653 127.968848 
L 356.549715 130.660485 
L 357.272776 131.757855 
L 357.995837 135.775044 
L 358.718899 128.558817 
L 359.44196 129.200726 
L 360.165021 127.430221 
L 360.888083 126.074044 
L 361.611144 125.256195 
L 362.334205 124.138108 
L 363.057267 123.475482 
L 363.780328 123.579064 
L 364.503389 129.024786 
L 365.226451 127.834041 
L 365.949512 125.090464 
L 367.395635 131.830389 
L 368.118696 132.285923 
L 368.841757 131.530151 
L 369.564819 126.436453 
L 370.28788 128.237883 
L 371.010941 134.7603 
L 371.734003 133.983822 
L 372.457064 132.482631 
L 373.180126 132.472278 
L 373.903187 132.058156 
L 374.626248 125.929154 
L 375.34931 130.432728 
L 376.072371 130.815791 
L 376.795432 126.788456 
L 377.518494 133.735349 
L 378.241555 127.409639 
L 378.964616 129.438836 
L 379.687678 135.422895 
L 380.410739 130.805437 
L 381.1338 129.428483 
L 381.856862 133.983822 
L 382.579923 134.190883 
L 383.302984 134.242648 
L 384.026046 131.56121 
L 384.749107 133.828526 
L 385.472168 135.081245 
L 386.19523 141.127423 
L 386.918291 143.477564 
L 387.641353 140.64083 
L 389.087475 132.130627 
L 389.810537 140.599417 
L 390.533598 138.70481 
L 391.256659 140.454475 
L 391.979721 141.790017 
L 392.702782 135.557485 
L 393.425843 139.212109 
L 394.148905 149.999982 
L 394.871966 144.719929 
L 395.595027 143.726037 
L 396.318089 137.617741 
L 397.04115 141.479426 
L 397.764211 149.989629 
L 398.487273 143.632859 
L 398.487273 143.632859 
" clip-path="url(#p2fbe74cb65)" style="fill: none; stroke: #8c564b; stroke-width: 1.5; stroke-linecap: square"/>
   </g>
   <g id="line2d_26">
    <path d="M 351.488285 168.871511 
L 352.211346 151.908048 
L 352.934408 152.958882 
L 353.657469 155.000502 
L 354.38053 158.813528 
L 355.103592 156.171431 
L 355.826653 151.607809 
L 356.549715 170.642917 
L 357.272776 164.488032 
L 357.995837 168.060867 
L 358.718899 159.684219 
L 359.44196 166.079295 
L 360.165021 165.749033 
L 360.888083 161.33553 
L 361.611144 175.716944 
L 362.334205 164.39796 
L 363.057267 175.837039 
L 363.780328 171.993989 
L 364.503389 179.860232 
L 365.226451 183.673258 
L 365.949512 170.402726 
L 366.672573 182.232114 
L 367.395635 191.209239 
L 368.118696 182.98271 
L 369.564819 169.441963 
L 370.28788 180.040375 
L 371.010941 202.258008 
L 371.734003 198.414958 
L 372.457064 177.878659 
L 373.180126 187.246094 
L 373.903187 183.102805 
L 374.626248 187.516308 
L 375.34931 195.502647 
L 376.072371 184.603997 
L 376.795432 186.585569 
L 377.518494 204.299628 
L 378.241555 179.439898 
L 378.964616 182.472305 
L 379.687678 188.957452 
L 380.410739 188.266904 
L 381.1338 196.793671 
L 381.856862 201.627508 
L 382.579923 189.197643 
L 383.302984 200.696769 
L 384.026046 171.753798 
L 384.749107 184.603997 
L 385.472168 205.200343 
L 386.19523 204.659914 
L 386.918291 211.355228 
L 387.641353 216.93966 
L 388.364414 218.410828 
L 389.087475 191.569525 
L 389.810537 209.043393 
L 390.533598 188.86738 
L 391.256659 191.719644 
L 391.979721 199.075482 
L 392.702782 198.35491 
L 393.425843 201.147126 
L 394.148905 216.489303 
L 394.871966 189.497881 
L 395.595027 188.717261 
L 397.04115 205.290415 
L 397.764211 228.588905 
L 398.487273 222.19383 
L 398.487273 222.19383 
" clip-path="url(#p2fbe74cb65)" style="fill: none; stroke: #e377c2; stroke-width: 1.5; stroke-linecap: square"/>
   </g>
   <g id="patch_3">
    <path d="M 57.6 307.584 
L 57.6 41.472 
" style="fill: none; stroke: #000000; stroke-width: 0.8; stroke-linejoin: miter; stroke-linecap: square"/>
   </g>
   <g id="patch_4">
    <path d="M 414.72 307.584 
L 414.72 41.472 
" style="fill: none; stroke: #000000; stroke-width: 0.8; stroke-linejoin: miter; stroke-linecap: square"/>
   </g>
   <g id="patch_5">
    <path d="M 57.6 307.584 
L 414.72 307.584 
" style="fill: none; stroke: #000000; stroke-width: 0.8; stroke-linejoin: miter; stroke-linecap: square"/>
   </g>
   <g id="patch_6">
    <path d="M 57.6 41.472 
L 414.72 41.472 
" style="fill: none; stroke: #000000; stroke-width: 0.8; stroke-linejoin: miter; stroke-linecap: square"/>
   </g>
   <g id="text_22">
    <!-- Learning Curves -->
    <g transform="translate(187.37625 35.472) scale(0.12 -0.12)">
     <defs>
      <path id="DejaVuSans-4c" d="M 628 4666 
L 1259 4666 
L 1259 531 
L 3531 531 
L 3531 0 
L 628 0 
L 628 4666 
z
" transform="scale(0.015625)"/>
      <path id="DejaVuSans-65" d="M 3597 1894 
L 3597 1613 
L 953 1613 
Q 991 1019 1311 708 
Q 1631 397 2203 397 
Q 2534 397 2845 478 
Q 3156 559 3463 722 
L 3463 178 
Q 3153 47 2828 -22 
Q 2503 -91 2169 -91 
Q 1331 -91 842 396 
Q 353 884 353 1716 
Q 353 2575 817 3079 
Q 1281 3584 2069 3584 
Q 2775 3584 3186 3129 
Q 3597 2675 3597 1894 
z
M 3022 2063 
Q 3016 2534 2758 2815 
Q 2500 3097 2075 3097 
Q 1594 3097 1305 2825 
Q 1016 2553 972 2059 
L 3022 2063 
z
" transform="scale(0.015625)"/>
      <path id="DejaVuSans-6e" d="M 3513 2113 
L 3513 0 
L 2938 0 
L 2938 2094 
Q 2938 2591 2744 2837 
Q 2550 3084 2163 3084 
Q 1697 3084 1428 2787 
Q 1159 2491 1159 1978 
L 1159 0 
L 581 0 
L 581 3500 
L 1159 3500 
L 1159 2956 
Q 1366 3272 1645 3428 
Q 1925 3584 2291 3584 
Q 2894 3584 3203 3211 
Q 3513 2838 3513 2113 
z
" transform="scale(0.015625)"/>
      <path id="DejaVuSans-69" d="M 603 3500 
L 1178 3500 
L 1178 0 
L 603 0 
L 603 3500 
z
M 603 4863 
L 1178 4863 
L 1178 4134 
L 603 4134 
L 603 4863 
z
" transform="scale(0.015625)"/>
      <path id="DejaVuSans-67" d="M 2906 1791 
Q 2906 2416 2648 2759 
Q 2391 3103 1925 3103 
Q 1463 3103 1205 2759 
Q 947 2416 947 1791 
Q 947 1169 1205 825 
Q 1463 481 1925 481 
Q 2391 481 2648 825 
Q 2906 1169 2906 1791 
z
M 3481 434 
Q 3481 -459 3084 -895 
Q 2688 -1331 1869 -1331 
Q 1566 -1331 1297 -1286 
Q 1028 -1241 775 -1147 
L 775 -588 
Q 1028 -725 1275 -790 
Q 1522 -856 1778 -856 
Q 2344 -856 2625 -561 
Q 2906 -266 2906 331 
L 2906 616 
Q 2728 306 2450 153 
Q 2172 0 1784 0 
Q 1141 0 747 490 
Q 353 981 353 1791 
Q 353 2603 747 3093 
Q 1141 3584 1784 3584 
Q 2172 3584 2450 3431 
Q 2728 3278 2906 2969 
L 2906 3500 
L 3481 3500 
L 3481 434 
z
" transform="scale(0.015625)"/>
      <path id="DejaVuSans-20" transform="scale(0.015625)"/>
      <path id="DejaVuSans-43" d="M 4122 4306 
L 4122 3641 
Q 3803 3938 3442 4084 
Q 3081 4231 2675 4231 
Q 1875 4231 1450 3742 
Q 1025 3253 1025 2328 
Q 1025 1406 1450 917 
Q 1875 428 2675 428 
Q 3081 428 3442 575 
Q 3803 722 4122 1019 
L 4122 359 
Q 3791 134 3420 21 
Q 3050 -91 2638 -91 
Q 1578 -91 968 557 
Q 359 1206 359 2328 
Q 359 3453 968 4101 
Q 1578 4750 2638 4750 
Q 3056 4750 3426 4639 
Q 3797 4528 4122 4306 
z
" transform="scale(0.015625)"/>
      <path id="DejaVuSans-76" d="M 191 3500 
L 800 3500 
L 1894 563 
L 2988 3500 
L 3597 3500 
L 2284 0 
L 1503 0 
L 191 3500 
z
" transform="scale(0.015625)"/>
     </defs>
     <use xlink:href="#DejaVuSans-4c"/>
     <use xlink:href="#DejaVuSans-65" x="53.962891"/>
     <use xlink:href="#DejaVuSans-61" x="115.486328"/>
     <use xlink:href="#DejaVuSans-72" x="176.765625"/>
     <use xlink:href="#DejaVuSans-6e" x="216.128906"/>
     <use xlink:href="#DejaVuSans-69" x="279.507812"/>
     <use xlink:href="#DejaVuSans-6e" x="307.291016"/>
     <use xlink:href="#DejaVuSans-67" x="370.669922"/>
     <use xlink:href="#DejaVuSans-20" x="434.146484"/>
     <use xlink:href="#DejaVuSans-43" x="465.933594"/>
     <use xlink:href="#DejaVuSans-75" x="535.757812"/>
     <use xlink:href="#DejaVuSans-72" x="599.136719"/>
     <use xlink:href="#DejaVuSans-76" x="640.25"/>
     <use xlink:href="#DejaVuSans-65" x="699.429688"/>
     <use xlink:href="#DejaVuSans-73" x="760.953125"/>
    </g>
   </g>
   <g id="legend_1">
    <g id="patch_7">
     <path d="M 128.445937 302.584 
L 343.874063 302.584 
Q 345.874063 302.584 345.874063 300.584 
L 345.874063 198.837125 
Q 345.874063 196.837125 343.874063 196.837125 
L 128.445937 196.837125 
Q 126.445937 196.837125 126.445937 198.837125 
L 126.445937 300.584 
Q 126.445937 302.584 128.445937 302.584 
z
" style="fill: #ffffff; opacity: 0.8; stroke: #cccccc; stroke-linejoin: miter"/>
    </g>
    <g id="line2d_27">
     <path d="M 130.445937 204.935563 
L 140.445937 204.935563 
L 150.445937 204.935563 
" style="fill: none; stroke: #1f77b4; stroke-width: 1.5; stroke-linecap: square"/>
    </g>
    <g id="text_23">
     <!-- Train Accuracy -->
     <g transform="translate(158.445937 208.435563) scale(0.1 -0.1)">
      <defs>
       <path id="DejaVuSans-54" d="M -19 4666 
L 3928 4666 
L 3928 4134 
L 2272 4134 
L 2272 0 
L 1638 0 
L 1638 4134 
L -19 4134 
L -19 4666 
z
" transform="scale(0.015625)"/>
      </defs>
      <use xlink:href="#DejaVuSans-54"/>
      <use xlink:href="#DejaVuSans-72" x="46.333984"/>
      <use xlink:href="#DejaVuSans-61" x="87.447266"/>
      <use xlink:href="#DejaVuSans-69" x="148.726562"/>
      <use xlink:href="#DejaVuSans-6e" x="176.509766"/>
      <use xlink:href="#DejaVuSans-20" x="239.888672"/>
      <use xlink:href="#DejaVuSans-41" x="271.675781"/>
      <use xlink:href="#DejaVuSans-63" x="338.333984"/>
      <use xlink:href="#DejaVuSans-63" x="393.314453"/>
      <use xlink:href="#DejaVuSans-75" x="448.294922"/>
      <use xlink:href="#DejaVuSans-72" x="511.673828"/>
      <use xlink:href="#DejaVuSans-61" x="552.787109"/>
      <use xlink:href="#DejaVuSans-63" x="614.066406"/>
      <use xlink:href="#DejaVuSans-79" x="669.046875"/>
     </g>
    </g>
    <g id="line2d_28">
     <path d="M 130.445937 219.613688 
L 140.445937 219.613688 
L 150.445937 219.613688 
" style="fill: none; stroke: #ff7f0e; stroke-width: 1.5; stroke-linecap: square"/>
    </g>
    <g id="text_24">
     <!-- Validation Accuracy -->
     <g transform="translate(158.445937 223.113688) scale(0.1 -0.1)">
      <defs>
       <path id="DejaVuSans-56" d="M 1831 0 
L 50 4666 
L 709 4666 
L 2188 738 
L 3669 4666 
L 4325 4666 
L 2547 0 
L 1831 0 
z
" transform="scale(0.015625)"/>
       <path id="DejaVuSans-6c" d="M 603 4863 
L 1178 4863 
L 1178 0 
L 603 0 
L 603 4863 
z
" transform="scale(0.015625)"/>
       <path id="DejaVuSans-64" d="M 2906 2969 
L 2906 4863 
L 3481 4863 
L 3481 0 
L 2906 0 
L 2906 525 
Q 2725 213 2448 61 
Q 2172 -91 1784 -91 
Q 1150 -91 751 415 
Q 353 922 353 1747 
Q 353 2572 751 3078 
Q 1150 3584 1784 3584 
Q 2172 3584 2448 3432 
Q 2725 3281 2906 2969 
z
M 947 1747 
Q 947 1113 1208 752 
Q 1469 391 1925 391 
Q 2381 391 2643 752 
Q 2906 1113 2906 1747 
Q 2906 2381 2643 2742 
Q 2381 3103 1925 3103 
Q 1469 3103 1208 2742 
Q 947 2381 947 1747 
z
" transform="scale(0.015625)"/>
       <path id="DejaVuSans-74" d="M 1172 4494 
L 1172 3500 
L 2356 3500 
L 2356 3053 
L 1172 3053 
L 1172 1153 
Q 1172 725 1289 603 
Q 1406 481 1766 481 
L 2356 481 
L 2356 0 
L 1766 0 
Q 1100 0 847 248 
Q 594 497 594 1153 
L 594 3053 
L 172 3053 
L 172 3500 
L 594 3500 
L 594 4494 
L 1172 4494 
z
" transform="scale(0.015625)"/>
      </defs>
      <use xlink:href="#DejaVuSans-56"/>
      <use xlink:href="#DejaVuSans-61" x="60.658203"/>
      <use xlink:href="#DejaVuSans-6c" x="121.9375"/>
      <use xlink:href="#DejaVuSans-69" x="149.720703"/>
      <use xlink:href="#DejaVuSans-64" x="177.503906"/>
      <use xlink:href="#DejaVuSans-61" x="240.980469"/>
      <use xlink:href="#DejaVuSans-74" x="302.259766"/>
      <use xlink:href="#DejaVuSans-69" x="341.46875"/>
      <use xlink:href="#DejaVuSans-6f" x="369.251953"/>
      <use xlink:href="#DejaVuSans-6e" x="430.433594"/>
      <use xlink:href="#DejaVuSans-20" x="493.8125"/>
      <use xlink:href="#DejaVuSans-41" x="525.599609"/>
      <use xlink:href="#DejaVuSans-63" x="592.257812"/>
      <use xlink:href="#DejaVuSans-63" x="647.238281"/>
      <use xlink:href="#DejaVuSans-75" x="702.21875"/>
      <use xlink:href="#DejaVuSans-72" x="765.597656"/>
      <use xlink:href="#DejaVuSans-61" x="806.710938"/>
      <use xlink:href="#DejaVuSans-63" x="867.990234"/>
      <use xlink:href="#DejaVuSans-79" x="922.970703"/>
     </g>
    </g>
    <g id="line2d_29">
     <path d="M 130.445937 234.291812 
L 140.445937 234.291812 
L 150.445937 234.291812 
" style="fill: none; stroke: #2ca02c; stroke-width: 1.5; stroke-linecap: square"/>
    </g>
    <g id="text_25">
     <!-- Robust Validation Accuracy -->
     <g transform="translate(158.445937 237.791812) scale(0.1 -0.1)">
      <defs>
       <path id="DejaVuSans-52" d="M 2841 2188 
Q 3044 2119 3236 1894 
Q 3428 1669 3622 1275 
L 4263 0 
L 3584 0 
L 2988 1197 
Q 2756 1666 2539 1819 
Q 2322 1972 1947 1972 
L 1259 1972 
L 1259 0 
L 628 0 
L 628 4666 
L 2053 4666 
Q 2853 4666 3247 4331 
Q 3641 3997 3641 3322 
Q 3641 2881 3436 2590 
Q 3231 2300 2841 2188 
z
M 1259 4147 
L 1259 2491 
L 2053 2491 
Q 2509 2491 2742 2702 
Q 2975 2913 2975 3322 
Q 2975 3731 2742 3939 
Q 2509 4147 2053 4147 
L 1259 4147 
z
" transform="scale(0.015625)"/>
       <path id="DejaVuSans-62" d="M 3116 1747 
Q 3116 2381 2855 2742 
Q 2594 3103 2138 3103 
Q 1681 3103 1420 2742 
Q 1159 2381 1159 1747 
Q 1159 1113 1420 752 
Q 1681 391 2138 391 
Q 2594 391 2855 752 
Q 3116 1113 3116 1747 
z
M 1159 2969 
Q 1341 3281 1617 3432 
Q 1894 3584 2278 3584 
Q 2916 3584 3314 3078 
Q 3713 2572 3713 1747 
Q 3713 922 3314 415 
Q 2916 -91 2278 -91 
Q 1894 -91 1617 61 
Q 1341 213 1159 525 
L 1159 0 
L 581 0 
L 581 4863 
L 1159 4863 
L 1159 2969 
z
" transform="scale(0.015625)"/>
      </defs>
      <use xlink:href="#DejaVuSans-52"/>
      <use xlink:href="#DejaVuSans-6f" x="64.982422"/>
      <use xlink:href="#DejaVuSans-62" x="126.164062"/>
      <use xlink:href="#DejaVuSans-75" x="189.640625"/>
      <use xlink:href="#DejaVuSans-73" x="253.019531"/>
      <use xlink:href="#DejaVuSans-74" x="305.119141"/>
      <use xlink:href="#DejaVuSans-20" x="344.328125"/>
      <use xlink:href="#DejaVuSans-56" x="376.115234"/>
      <use xlink:href="#DejaVuSans-61" x="436.773438"/>
      <use xlink:href="#DejaVuSans-6c" x="498.052734"/>
      <use xlink:href="#DejaVuSans-69" x="525.835938"/>
      <use xlink:href="#DejaVuSans-64" x="553.619141"/>
      <use xlink:href="#DejaVuSans-61" x="617.095703"/>
      <use xlink:href="#DejaVuSans-74" x="678.375"/>
      <use xlink:href="#DejaVuSans-69" x="717.583984"/>
      <use xlink:href="#DejaVuSans-6f" x="745.367188"/>
      <use xlink:href="#DejaVuSans-6e" x="806.548828"/>
      <use xlink:href="#DejaVuSans-20" x="869.927734"/>
      <use xlink:href="#DejaVuSans-41" x="901.714844"/>
      <use xlink:href="#DejaVuSans-63" x="968.373047"/>
      <use xlink:href="#DejaVuSans-63" x="1023.353516"/>
      <use xlink:href="#DejaVuSans-75" x="1078.333984"/>
      <use xlink:href="#DejaVuSans-72" x="1141.712891"/>
      <use xlink:href="#DejaVuSans-61" x="1182.826172"/>
      <use xlink:href="#DejaVuSans-63" x="1244.105469"/>
      <use xlink:href="#DejaVuSans-79" x="1299.085938"/>
     </g>
    </g>
    <g id="line2d_30">
     <path d="M 130.445937 248.969938 
L 140.445937 248.969938 
L 150.445937 248.969938 
" style="fill: none; stroke: #d62728; stroke-width: 1.5; stroke-linecap: square"/>
    </g>
    <g id="text_26">
     <!-- Adversarial Validation Accuracy -->
     <g transform="translate(158.445937 252.469938) scale(0.1 -0.1)">
      <use xlink:href="#DejaVuSans-41"/>
      <use xlink:href="#DejaVuSans-64" x="66.658203"/>
      <use xlink:href="#DejaVuSans-76" x="130.134766"/>
      <use xlink:href="#DejaVuSans-65" x="189.314453"/>
      <use xlink:href="#DejaVuSans-72" x="250.837891"/>
      <use xlink:href="#DejaVuSans-73" x="291.951172"/>
      <use xlink:href="#DejaVuSans-61" x="344.050781"/>
      <use xlink:href="#DejaVuSans-72" x="405.330078"/>
      <use xlink:href="#DejaVuSans-69" x="446.443359"/>
      <use xlink:href="#DejaVuSans-61" x="474.226562"/>
      <use xlink:href="#DejaVuSans-6c" x="535.505859"/>
      <use xlink:href="#DejaVuSans-20" x="563.289062"/>
      <use xlink:href="#DejaVuSans-56" x="595.076172"/>
      <use xlink:href="#DejaVuSans-61" x="655.734375"/>
      <use xlink:href="#DejaVuSans-6c" x="717.013672"/>
      <use xlink:href="#DejaVuSans-69" x="744.796875"/>
      <use xlink:href="#DejaVuSans-64" x="772.580078"/>
      <use xlink:href="#DejaVuSans-61" x="836.056641"/>
      <use xlink:href="#DejaVuSans-74" x="897.335938"/>
      <use xlink:href="#DejaVuSans-69" x="936.544922"/>
      <use xlink:href="#DejaVuSans-6f" x="964.328125"/>
      <use xlink:href="#DejaVuSans-6e" x="1025.509766"/>
      <use xlink:href="#DejaVuSans-20" x="1088.888672"/>
      <use xlink:href="#DejaVuSans-41" x="1120.675781"/>
      <use xlink:href="#DejaVuSans-63" x="1187.333984"/>
      <use xlink:href="#DejaVuSans-63" x="1242.314453"/>
      <use xlink:href="#DejaVuSans-75" x="1297.294922"/>
      <use xlink:href="#DejaVuSans-72" x="1360.673828"/>
      <use xlink:href="#DejaVuSans-61" x="1401.787109"/>
      <use xlink:href="#DejaVuSans-63" x="1463.066406"/>
      <use xlink:href="#DejaVuSans-79" x="1518.046875"/>
     </g>
    </g>
    <g id="line2d_31">
     <path d="M 130.445937 263.648063 
L 140.445937 263.648063 
L 150.445937 263.648063 
" style="fill: none; stroke: #9467bd; stroke-width: 1.5; stroke-linecap: square"/>
    </g>
    <g id="text_27">
     <!-- SWA Validation Accuracy -->
     <g transform="translate(158.445937 267.148063) scale(0.1 -0.1)">
      <defs>
       <path id="DejaVuSans-53" d="M 3425 4513 
L 3425 3897 
Q 3066 4069 2747 4153 
Q 2428 4238 2131 4238 
Q 1616 4238 1336 4038 
Q 1056 3838 1056 3469 
Q 1056 3159 1242 3001 
Q 1428 2844 1947 2747 
L 2328 2669 
Q 3034 2534 3370 2195 
Q 3706 1856 3706 1288 
Q 3706 609 3251 259 
Q 2797 -91 1919 -91 
Q 1588 -91 1214 -16 
Q 841 59 441 206 
L 441 856 
Q 825 641 1194 531 
Q 1563 422 1919 422 
Q 2459 422 2753 634 
Q 3047 847 3047 1241 
Q 3047 1584 2836 1778 
Q 2625 1972 2144 2069 
L 1759 2144 
Q 1053 2284 737 2584 
Q 422 2884 422 3419 
Q 422 4038 858 4394 
Q 1294 4750 2059 4750 
Q 2388 4750 2728 4690 
Q 3069 4631 3425 4513 
z
" transform="scale(0.015625)"/>
       <path id="DejaVuSans-57" d="M 213 4666 
L 850 4666 
L 1831 722 
L 2809 4666 
L 3519 4666 
L 4500 722 
L 5478 4666 
L 6119 4666 
L 4947 0 
L 4153 0 
L 3169 4050 
L 2175 0 
L 1381 0 
L 213 4666 
z
" transform="scale(0.015625)"/>
      </defs>
      <use xlink:href="#DejaVuSans-53"/>
      <use xlink:href="#DejaVuSans-57" x="63.476562"/>
      <use xlink:href="#DejaVuSans-41" x="156.853516"/>
      <use xlink:href="#DejaVuSans-20" x="225.261719"/>
      <use xlink:href="#DejaVuSans-56" x="257.048828"/>
      <use xlink:href="#DejaVuSans-61" x="317.707031"/>
      <use xlink:href="#DejaVuSans-6c" x="378.986328"/>
      <use xlink:href="#DejaVuSans-69" x="406.769531"/>
      <use xlink:href="#DejaVuSans-64" x="434.552734"/>
      <use xlink:href="#DejaVuSans-61" x="498.029297"/>
      <use xlink:href="#DejaVuSans-74" x="559.308594"/>
      <use xlink:href="#DejaVuSans-69" x="598.517578"/>
      <use xlink:href="#DejaVuSans-6f" x="626.300781"/>
      <use xlink:href="#DejaVuSans-6e" x="687.482422"/>
      <use xlink:href="#DejaVuSans-20" x="750.861328"/>
      <use xlink:href="#DejaVuSans-41" x="782.648438"/>
      <use xlink:href="#DejaVuSans-63" x="849.306641"/>
      <use xlink:href="#DejaVuSans-63" x="904.287109"/>
      <use xlink:href="#DejaVuSans-75" x="959.267578"/>
      <use xlink:href="#DejaVuSans-72" x="1022.646484"/>
      <use xlink:href="#DejaVuSans-61" x="1063.759766"/>
      <use xlink:href="#DejaVuSans-63" x="1125.039062"/>
      <use xlink:href="#DejaVuSans-79" x="1180.019531"/>
     </g>
    </g>
    <g id="line2d_32">
     <path d="M 130.445937 278.326188 
L 140.445937 278.326188 
L 150.445937 278.326188 
" style="fill: none; stroke: #8c564b; stroke-width: 1.5; stroke-linecap: square"/>
    </g>
    <g id="text_28">
     <!-- SWA Robust Validation Accuracy -->
     <g transform="translate(158.445937 281.826188) scale(0.1 -0.1)">
      <use xlink:href="#DejaVuSans-53"/>
      <use xlink:href="#DejaVuSans-57" x="63.476562"/>
      <use xlink:href="#DejaVuSans-41" x="156.853516"/>
      <use xlink:href="#DejaVuSans-20" x="225.261719"/>
      <use xlink:href="#DejaVuSans-52" x="257.048828"/>
      <use xlink:href="#DejaVuSans-6f" x="322.03125"/>
      <use xlink:href="#DejaVuSans-62" x="383.212891"/>
      <use xlink:href="#DejaVuSans-75" x="446.689453"/>
      <use xlink:href="#DejaVuSans-73" x="510.068359"/>
      <use xlink:href="#DejaVuSans-74" x="562.167969"/>
      <use xlink:href="#DejaVuSans-20" x="601.376953"/>
      <use xlink:href="#DejaVuSans-56" x="633.164062"/>
      <use xlink:href="#DejaVuSans-61" x="693.822266"/>
      <use xlink:href="#DejaVuSans-6c" x="755.101562"/>
      <use xlink:href="#DejaVuSans-69" x="782.884766"/>
      <use xlink:href="#DejaVuSans-64" x="810.667969"/>
      <use xlink:href="#DejaVuSans-61" x="874.144531"/>
      <use xlink:href="#DejaVuSans-74" x="935.423828"/>
      <use xlink:href="#DejaVuSans-69" x="974.632812"/>
      <use xlink:href="#DejaVuSans-6f" x="1002.416016"/>
      <use xlink:href="#DejaVuSans-6e" x="1063.597656"/>
      <use xlink:href="#DejaVuSans-20" x="1126.976562"/>
      <use xlink:href="#DejaVuSans-41" x="1158.763672"/>
      <use xlink:href="#DejaVuSans-63" x="1225.421875"/>
      <use xlink:href="#DejaVuSans-63" x="1280.402344"/>
      <use xlink:href="#DejaVuSans-75" x="1335.382812"/>
      <use xlink:href="#DejaVuSans-72" x="1398.761719"/>
      <use xlink:href="#DejaVuSans-61" x="1439.875"/>
      <use xlink:href="#DejaVuSans-63" x="1501.154297"/>
      <use xlink:href="#DejaVuSans-79" x="1556.134766"/>
     </g>
    </g>
    <g id="line2d_33">
     <path d="M 130.445937 293.004312 
L 140.445937 293.004312 
L 150.445937 293.004312 
" style="fill: none; stroke: #e377c2; stroke-width: 1.5; stroke-linecap: square"/>
    </g>
    <g id="text_29">
     <!-- SWA Adversarial Validation Accuracy -->
     <g transform="translate(158.445937 296.504312) scale(0.1 -0.1)">
      <use xlink:href="#DejaVuSans-53"/>
      <use xlink:href="#DejaVuSans-57" x="63.476562"/>
      <use xlink:href="#DejaVuSans-41" x="156.853516"/>
      <use xlink:href="#DejaVuSans-20" x="225.261719"/>
      <use xlink:href="#DejaVuSans-41" x="257.048828"/>
      <use xlink:href="#DejaVuSans-64" x="323.707031"/>
      <use xlink:href="#DejaVuSans-76" x="387.183594"/>
      <use xlink:href="#DejaVuSans-65" x="446.363281"/>
      <use xlink:href="#DejaVuSans-72" x="507.886719"/>
      <use xlink:href="#DejaVuSans-73" x="549"/>
      <use xlink:href="#DejaVuSans-61" x="601.099609"/>
      <use xlink:href="#DejaVuSans-72" x="662.378906"/>
      <use xlink:href="#DejaVuSans-69" x="703.492188"/>
      <use xlink:href="#DejaVuSans-61" x="731.275391"/>
      <use xlink:href="#DejaVuSans-6c" x="792.554688"/>
      <use xlink:href="#DejaVuSans-20" x="820.337891"/>
      <use xlink:href="#DejaVuSans-56" x="852.125"/>
      <use xlink:href="#DejaVuSans-61" x="912.783203"/>
      <use xlink:href="#DejaVuSans-6c" x="974.0625"/>
      <use xlink:href="#DejaVuSans-69" x="1001.845703"/>
      <use xlink:href="#DejaVuSans-64" x="1029.628906"/>
      <use xlink:href="#DejaVuSans-61" x="1093.105469"/>
      <use xlink:href="#DejaVuSans-74" x="1154.384766"/>
      <use xlink:href="#DejaVuSans-69" x="1193.59375"/>
      <use xlink:href="#DejaVuSans-6f" x="1221.376953"/>
      <use xlink:href="#DejaVuSans-6e" x="1282.558594"/>
      <use xlink:href="#DejaVuSans-20" x="1345.9375"/>
      <use xlink:href="#DejaVuSans-41" x="1377.724609"/>
      <use xlink:href="#DejaVuSans-63" x="1444.382812"/>
      <use xlink:href="#DejaVuSans-63" x="1499.363281"/>
      <use xlink:href="#DejaVuSans-75" x="1554.34375"/>
      <use xlink:href="#DejaVuSans-72" x="1617.722656"/>
      <use xlink:href="#DejaVuSans-61" x="1658.835938"/>
      <use xlink:href="#DejaVuSans-63" x="1720.115234"/>
      <use xlink:href="#DejaVuSans-79" x="1775.095703"/>
     </g>
    </g>
   </g>
  </g>
 </g>
 <defs>
  <clipPath id="p2fbe74cb65">
   <rect x="57.6" y="41.472" width="357.12" height="266.112"/>
  </clipPath>
 </defs>
</svg>
