<?xml version="1.0" encoding="utf-8" standalone="no"?>
<!DOCTYPE svg PUBLIC "-//W3C//DTD SVG 1.1//EN"
  "http://www.w3.org/Graphics/SVG/1.1/DTD/svg11.dtd">
<svg xmlns:xlink="http://www.w3.org/1999/xlink" width="460.8pt" height="345.6pt" viewBox="0 0 460.8 345.6" xmlns="http://www.w3.org/2000/svg" version="1.1">
 <metadata>
  <rdf:RDF xmlns:dc="http://purl.org/dc/elements/1.1/" xmlns:cc="http://creativecommons.org/ns#" xmlns:rdf="http://www.w3.org/1999/02/22-rdf-syntax-ns#">
   <cc:Work>
    <dc:type rdf:resource="http://purl.org/dc/dcmitype/StillImage"/>
    <dc:date>2024-08-27T01:22:10.153797</dc:date>
    <dc:format>image/svg+xml</dc:format>
    <dc:creator>
     <cc:Agent>
      <dc:title>Matplotlib v3.9.1, https://matplotlib.org/</dc:title>
     </cc:Agent>
    </dc:creator>
   </cc:Work>
  </rdf:RDF>
 </metadata>
 <defs>
  <style type="text/css">*{stroke-linejoin: round; stroke-linecap: butt}</style>
 </defs>
 <g id="figure_1">
  <g id="patch_1">
   <path d="M 0 345.6 
L 460.8 345.6 
L 460.8 0 
L 0 0 
z
" style="fill: #ffffff"/>
  </g>
  <g id="axes_1">
   <g id="patch_2">
    <path d="M 57.6 307.584 
L 414.72 307.584 
L 414.72 41.472 
L 57.6 41.472 
z
" style="fill: #ffffff"/>
   </g>
   <g id="matplotlib.axis_1">
    <g id="xtick_1">
     <g id="line2d_1">
      <defs>
       <path id="m1d26f1c2f6" d="M 0 0 
L 0 3.5 
" style="stroke: #000000; stroke-width: 0.8"/>
      </defs>
      <g>
       <use xlink:href="#m1d26f1c2f6" x="73.832727" y="307.584" style="stroke: #000000; stroke-width: 0.8"/>
      </g>
     </g>
     <g id="text_1">
      <!-- 1 -->
      <g transform="translate(70.651477 322.182437) scale(0.1 -0.1)">
       <defs>
        <path id="DejaVuSans-31" d="M 794 531 
L 1825 531 
L 1825 4091 
L 703 3866 
L 703 4441 
L 1819 4666 
L 2450 4666 
L 2450 531 
L 3481 531 
L 3481 0 
L 794 0 
L 794 531 
z
" transform="scale(0.015625)"/>
       </defs>
       <use xlink:href="#DejaVuSans-31"/>
      </g>
     </g>
    </g>
    <g id="xtick_2">
     <g id="line2d_2">
      <g>
       <use xlink:href="#m1d26f1c2f6" x="109.262733" y="307.584" style="stroke: #000000; stroke-width: 0.8"/>
      </g>
     </g>
     <g id="text_2">
      <!-- 50 -->
      <g transform="translate(102.900233 322.182437) scale(0.1 -0.1)">
       <defs>
        <path id="DejaVuSans-35" d="M 691 4666 
L 3169 4666 
L 3169 4134 
L 1269 4134 
L 1269 2991 
Q 1406 3038 1543 3061 
Q 1681 3084 1819 3084 
Q 2600 3084 3056 2656 
Q 3513 2228 3513 1497 
Q 3513 744 3044 326 
Q 2575 -91 1722 -91 
Q 1428 -91 1123 -41 
Q 819 9 494 109 
L 494 744 
Q 775 591 1075 516 
Q 1375 441 1709 441 
Q 2250 441 2565 725 
Q 2881 1009 2881 1497 
Q 2881 1984 2565 2268 
Q 2250 2553 1709 2553 
Q 1456 2553 1204 2497 
Q 953 2441 691 2322 
L 691 4666 
z
" transform="scale(0.015625)"/>
        <path id="DejaVuSans-30" d="M 2034 4250 
Q 1547 4250 1301 3770 
Q 1056 3291 1056 2328 
Q 1056 1369 1301 889 
Q 1547 409 2034 409 
Q 2525 409 2770 889 
Q 3016 1369 3016 2328 
Q 3016 3291 2770 3770 
Q 2525 4250 2034 4250 
z
M 2034 4750 
Q 2819 4750 3233 4129 
Q 3647 3509 3647 2328 
Q 3647 1150 3233 529 
Q 2819 -91 2034 -91 
Q 1250 -91 836 529 
Q 422 1150 422 2328 
Q 422 3509 836 4129 
Q 1250 4750 2034 4750 
z
" transform="scale(0.015625)"/>
       </defs>
       <use xlink:href="#DejaVuSans-35"/>
       <use xlink:href="#DejaVuSans-30" x="63.623047"/>
      </g>
     </g>
    </g>
    <g id="xtick_3">
     <g id="line2d_3">
      <g>
       <use xlink:href="#m1d26f1c2f6" x="145.415801" y="307.584" style="stroke: #000000; stroke-width: 0.8"/>
      </g>
     </g>
     <g id="text_3">
      <!-- 100 -->
      <g transform="translate(135.872051 322.182437) scale(0.1 -0.1)">
       <use xlink:href="#DejaVuSans-31"/>
       <use xlink:href="#DejaVuSans-30" x="63.623047"/>
       <use xlink:href="#DejaVuSans-30" x="127.246094"/>
      </g>
     </g>
    </g>
    <g id="xtick_4">
     <g id="line2d_4">
      <g>
       <use xlink:href="#m1d26f1c2f6" x="181.568868" y="307.584" style="stroke: #000000; stroke-width: 0.8"/>
      </g>
     </g>
     <g id="text_4">
      <!-- 150 -->
      <g transform="translate(172.025118 322.182437) scale(0.1 -0.1)">
       <use xlink:href="#DejaVuSans-31"/>
       <use xlink:href="#DejaVuSans-35" x="63.623047"/>
       <use xlink:href="#DejaVuSans-30" x="127.246094"/>
      </g>
     </g>
    </g>
    <g id="xtick_5">
     <g id="line2d_5">
      <g>
       <use xlink:href="#m1d26f1c2f6" x="217.721936" y="307.584" style="stroke: #000000; stroke-width: 0.8"/>
      </g>
     </g>
     <g id="text_5">
      <!-- 200 -->
      <g transform="translate(208.178186 322.182437) scale(0.1 -0.1)">
       <defs>
        <path id="DejaVuSans-32" d="M 1228 531 
L 3431 531 
L 3431 0 
L 469 0 
L 469 531 
Q 828 903 1448 1529 
Q 2069 2156 2228 2338 
Q 2531 2678 2651 2914 
Q 2772 3150 2772 3378 
Q 2772 3750 2511 3984 
Q 2250 4219 1831 4219 
Q 1534 4219 1204 4116 
Q 875 4013 500 3803 
L 500 4441 
Q 881 4594 1212 4672 
Q 1544 4750 1819 4750 
Q 2544 4750 2975 4387 
Q 3406 4025 3406 3419 
Q 3406 3131 3298 2873 
Q 3191 2616 2906 2266 
Q 2828 2175 2409 1742 
Q 1991 1309 1228 531 
z
" transform="scale(0.015625)"/>
       </defs>
       <use xlink:href="#DejaVuSans-32"/>
       <use xlink:href="#DejaVuSans-30" x="63.623047"/>
       <use xlink:href="#DejaVuSans-30" x="127.246094"/>
      </g>
     </g>
    </g>
    <g id="xtick_6">
     <g id="line2d_6">
      <g>
       <use xlink:href="#m1d26f1c2f6" x="253.875003" y="307.584" style="stroke: #000000; stroke-width: 0.8"/>
      </g>
     </g>
     <g id="text_6">
      <!-- 250 -->
      <g transform="translate(244.331253 322.182437) scale(0.1 -0.1)">
       <use xlink:href="#DejaVuSans-32"/>
       <use xlink:href="#DejaVuSans-35" x="63.623047"/>
       <use xlink:href="#DejaVuSans-30" x="127.246094"/>
      </g>
     </g>
    </g>
    <g id="xtick_7">
     <g id="line2d_7">
      <g>
       <use xlink:href="#m1d26f1c2f6" x="290.02807" y="307.584" style="stroke: #000000; stroke-width: 0.8"/>
      </g>
     </g>
     <g id="text_7">
      <!-- 300 -->
      <g transform="translate(280.48432 322.182437) scale(0.1 -0.1)">
       <defs>
        <path id="DejaVuSans-33" d="M 2597 2516 
Q 3050 2419 3304 2112 
Q 3559 1806 3559 1356 
Q 3559 666 3084 287 
Q 2609 -91 1734 -91 
Q 1441 -91 1130 -33 
Q 819 25 488 141 
L 488 750 
Q 750 597 1062 519 
Q 1375 441 1716 441 
Q 2309 441 2620 675 
Q 2931 909 2931 1356 
Q 2931 1769 2642 2001 
Q 2353 2234 1838 2234 
L 1294 2234 
L 1294 2753 
L 1863 2753 
Q 2328 2753 2575 2939 
Q 2822 3125 2822 3475 
Q 2822 3834 2567 4026 
Q 2313 4219 1838 4219 
Q 1578 4219 1281 4162 
Q 984 4106 628 3988 
L 628 4550 
Q 988 4650 1302 4700 
Q 1616 4750 1894 4750 
Q 2613 4750 3031 4423 
Q 3450 4097 3450 3541 
Q 3450 3153 3228 2886 
Q 3006 2619 2597 2516 
z
" transform="scale(0.015625)"/>
       </defs>
       <use xlink:href="#DejaVuSans-33"/>
       <use xlink:href="#DejaVuSans-30" x="63.623047"/>
       <use xlink:href="#DejaVuSans-30" x="127.246094"/>
      </g>
     </g>
    </g>
    <g id="xtick_8">
     <g id="line2d_8">
      <g>
       <use xlink:href="#m1d26f1c2f6" x="326.181138" y="307.584" style="stroke: #000000; stroke-width: 0.8"/>
      </g>
     </g>
     <g id="text_8">
      <!-- 350 -->
      <g transform="translate(316.637388 322.182437) scale(0.1 -0.1)">
       <use xlink:href="#DejaVuSans-33"/>
       <use xlink:href="#DejaVuSans-35" x="63.623047"/>
       <use xlink:href="#DejaVuSans-30" x="127.246094"/>
      </g>
     </g>
    </g>
    <g id="xtick_9">
     <g id="line2d_9">
      <g>
       <use xlink:href="#m1d26f1c2f6" x="362.334205" y="307.584" style="stroke: #000000; stroke-width: 0.8"/>
      </g>
     </g>
     <g id="text_9">
      <!-- 400 -->
      <g transform="translate(352.790455 322.182437) scale(0.1 -0.1)">
       <defs>
        <path id="DejaVuSans-34" d="M 2419 4116 
L 825 1625 
L 2419 1625 
L 2419 4116 
z
M 2253 4666 
L 3047 4666 
L 3047 1625 
L 3713 1625 
L 3713 1100 
L 3047 1100 
L 3047 0 
L 2419 0 
L 2419 1100 
L 313 1100 
L 313 1709 
L 2253 4666 
z
" transform="scale(0.015625)"/>
       </defs>
       <use xlink:href="#DejaVuSans-34"/>
       <use xlink:href="#DejaVuSans-30" x="63.623047"/>
       <use xlink:href="#DejaVuSans-30" x="127.246094"/>
      </g>
     </g>
    </g>
    <g id="xtick_10">
     <g id="line2d_10">
      <g>
       <use xlink:href="#m1d26f1c2f6" x="398.487273" y="307.584" style="stroke: #000000; stroke-width: 0.8"/>
      </g>
     </g>
     <g id="text_10">
      <!-- 450 -->
      <g transform="translate(388.943523 322.182437) scale(0.1 -0.1)">
       <use xlink:href="#DejaVuSans-34"/>
       <use xlink:href="#DejaVuSans-35" x="63.623047"/>
       <use xlink:href="#DejaVuSans-30" x="127.246094"/>
      </g>
     </g>
    </g>
    <g id="text_11">
     <!-- Epochs -->
     <g transform="translate(218.244375 335.860562) scale(0.1 -0.1)">
      <defs>
       <path id="DejaVuSans-45" d="M 628 4666 
L 3578 4666 
L 3578 4134 
L 1259 4134 
L 1259 2753 
L 3481 2753 
L 3481 2222 
L 1259 2222 
L 1259 531 
L 3634 531 
L 3634 0 
L 628 0 
L 628 4666 
z
" transform="scale(0.015625)"/>
       <path id="DejaVuSans-70" d="M 1159 525 
L 1159 -1331 
L 581 -1331 
L 581 3500 
L 1159 3500 
L 1159 2969 
Q 1341 3281 1617 3432 
Q 1894 3584 2278 3584 
Q 2916 3584 3314 3078 
Q 3713 2572 3713 1747 
Q 3713 922 3314 415 
Q 2916 -91 2278 -91 
Q 1894 -91 1617 61 
Q 1341 213 1159 525 
z
M 3116 1747 
Q 3116 2381 2855 2742 
Q 2594 3103 2138 3103 
Q 1681 3103 1420 2742 
Q 1159 2381 1159 1747 
Q 1159 1113 1420 752 
Q 1681 391 2138 391 
Q 2594 391 2855 752 
Q 3116 1113 3116 1747 
z
" transform="scale(0.015625)"/>
       <path id="DejaVuSans-6f" d="M 1959 3097 
Q 1497 3097 1228 2736 
Q 959 2375 959 1747 
Q 959 1119 1226 758 
Q 1494 397 1959 397 
Q 2419 397 2687 759 
Q 2956 1122 2956 1747 
Q 2956 2369 2687 2733 
Q 2419 3097 1959 3097 
z
M 1959 3584 
Q 2709 3584 3137 3096 
Q 3566 2609 3566 1747 
Q 3566 888 3137 398 
Q 2709 -91 1959 -91 
Q 1206 -91 779 398 
Q 353 888 353 1747 
Q 353 2609 779 3096 
Q 1206 3584 1959 3584 
z
" transform="scale(0.015625)"/>
       <path id="DejaVuSans-63" d="M 3122 3366 
L 3122 2828 
Q 2878 2963 2633 3030 
Q 2388 3097 2138 3097 
Q 1578 3097 1268 2742 
Q 959 2388 959 1747 
Q 959 1106 1268 751 
Q 1578 397 2138 397 
Q 2388 397 2633 464 
Q 2878 531 3122 666 
L 3122 134 
Q 2881 22 2623 -34 
Q 2366 -91 2075 -91 
Q 1284 -91 818 406 
Q 353 903 353 1747 
Q 353 2603 823 3093 
Q 1294 3584 2113 3584 
Q 2378 3584 2631 3529 
Q 2884 3475 3122 3366 
z
" transform="scale(0.015625)"/>
       <path id="DejaVuSans-68" d="M 3513 2113 
L 3513 0 
L 2938 0 
L 2938 2094 
Q 2938 2591 2744 2837 
Q 2550 3084 2163 3084 
Q 1697 3084 1428 2787 
Q 1159 2491 1159 1978 
L 1159 0 
L 581 0 
L 581 4863 
L 1159 4863 
L 1159 2956 
Q 1366 3272 1645 3428 
Q 1925 3584 2291 3584 
Q 2894 3584 3203 3211 
Q 3513 2838 3513 2113 
z
" transform="scale(0.015625)"/>
       <path id="DejaVuSans-73" d="M 2834 3397 
L 2834 2853 
Q 2591 2978 2328 3040 
Q 2066 3103 1784 3103 
Q 1356 3103 1142 2972 
Q 928 2841 928 2578 
Q 928 2378 1081 2264 
Q 1234 2150 1697 2047 
L 1894 2003 
Q 2506 1872 2764 1633 
Q 3022 1394 3022 966 
Q 3022 478 2636 193 
Q 2250 -91 1575 -91 
Q 1294 -91 989 -36 
Q 684 19 347 128 
L 347 722 
Q 666 556 975 473 
Q 1284 391 1588 391 
Q 1994 391 2212 530 
Q 2431 669 2431 922 
Q 2431 1156 2273 1281 
Q 2116 1406 1581 1522 
L 1381 1569 
Q 847 1681 609 1914 
Q 372 2147 372 2553 
Q 372 3047 722 3315 
Q 1072 3584 1716 3584 
Q 2034 3584 2315 3537 
Q 2597 3491 2834 3397 
z
" transform="scale(0.015625)"/>
      </defs>
      <use xlink:href="#DejaVuSans-45"/>
      <use xlink:href="#DejaVuSans-70" x="63.183594"/>
      <use xlink:href="#DejaVuSans-6f" x="126.660156"/>
      <use xlink:href="#DejaVuSans-63" x="187.841797"/>
      <use xlink:href="#DejaVuSans-68" x="242.822266"/>
      <use xlink:href="#DejaVuSans-73" x="306.201172"/>
     </g>
    </g>
   </g>
   <g id="matplotlib.axis_2">
    <g id="ytick_1">
     <g id="line2d_11">
      <defs>
       <path id="m4946aad3df" d="M 0 0 
L -3.5 0 
" style="stroke: #000000; stroke-width: 0.8"/>
      </defs>
      <g>
       <use xlink:href="#m4946aad3df" x="57.6" y="283.00723" style="stroke: #000000; stroke-width: 0.8"/>
      </g>
     </g>
     <g id="text_12">
      <!-- 10 -->
      <g transform="translate(37.875 286.806449) scale(0.1 -0.1)">
       <use xlink:href="#DejaVuSans-31"/>
       <use xlink:href="#DejaVuSans-30" x="63.623047"/>
      </g>
     </g>
    </g>
    <g id="ytick_2">
     <g id="line2d_12">
      <g>
       <use xlink:href="#m4946aad3df" x="57.6" y="250.67363" style="stroke: #000000; stroke-width: 0.8"/>
      </g>
     </g>
     <g id="text_13">
      <!-- 20 -->
      <g transform="translate(37.875 254.472848) scale(0.1 -0.1)">
       <use xlink:href="#DejaVuSans-32"/>
       <use xlink:href="#DejaVuSans-30" x="63.623047"/>
      </g>
     </g>
    </g>
    <g id="ytick_3">
     <g id="line2d_13">
      <g>
       <use xlink:href="#m4946aad3df" x="57.6" y="218.340029" style="stroke: #000000; stroke-width: 0.8"/>
      </g>
     </g>
     <g id="text_14">
      <!-- 30 -->
      <g transform="translate(37.875 222.139248) scale(0.1 -0.1)">
       <use xlink:href="#DejaVuSans-33"/>
       <use xlink:href="#DejaVuSans-30" x="63.623047"/>
      </g>
     </g>
    </g>
    <g id="ytick_4">
     <g id="line2d_14">
      <g>
       <use xlink:href="#m4946aad3df" x="57.6" y="186.006428" style="stroke: #000000; stroke-width: 0.8"/>
      </g>
     </g>
     <g id="text_15">
      <!-- 40 -->
      <g transform="translate(37.875 189.805647) scale(0.1 -0.1)">
       <use xlink:href="#DejaVuSans-34"/>
       <use xlink:href="#DejaVuSans-30" x="63.623047"/>
      </g>
     </g>
    </g>
    <g id="ytick_5">
     <g id="line2d_15">
      <g>
       <use xlink:href="#m4946aad3df" x="57.6" y="153.672828" style="stroke: #000000; stroke-width: 0.8"/>
      </g>
     </g>
     <g id="text_16">
      <!-- 50 -->
      <g transform="translate(37.875 157.472046) scale(0.1 -0.1)">
       <use xlink:href="#DejaVuSans-35"/>
       <use xlink:href="#DejaVuSans-30" x="63.623047"/>
      </g>
     </g>
    </g>
    <g id="ytick_6">
     <g id="line2d_16">
      <g>
       <use xlink:href="#m4946aad3df" x="57.6" y="121.339227" style="stroke: #000000; stroke-width: 0.8"/>
      </g>
     </g>
     <g id="text_17">
      <!-- 60 -->
      <g transform="translate(37.875 125.138446) scale(0.1 -0.1)">
       <defs>
        <path id="DejaVuSans-36" d="M 2113 2584 
Q 1688 2584 1439 2293 
Q 1191 2003 1191 1497 
Q 1191 994 1439 701 
Q 1688 409 2113 409 
Q 2538 409 2786 701 
Q 3034 994 3034 1497 
Q 3034 2003 2786 2293 
Q 2538 2584 2113 2584 
z
M 3366 4563 
L 3366 3988 
Q 3128 4100 2886 4159 
Q 2644 4219 2406 4219 
Q 1781 4219 1451 3797 
Q 1122 3375 1075 2522 
Q 1259 2794 1537 2939 
Q 1816 3084 2150 3084 
Q 2853 3084 3261 2657 
Q 3669 2231 3669 1497 
Q 3669 778 3244 343 
Q 2819 -91 2113 -91 
Q 1303 -91 875 529 
Q 447 1150 447 2328 
Q 447 3434 972 4092 
Q 1497 4750 2381 4750 
Q 2619 4750 2861 4703 
Q 3103 4656 3366 4563 
z
" transform="scale(0.015625)"/>
       </defs>
       <use xlink:href="#DejaVuSans-36"/>
       <use xlink:href="#DejaVuSans-30" x="63.623047"/>
      </g>
     </g>
    </g>
    <g id="ytick_7">
     <g id="line2d_17">
      <g>
       <use xlink:href="#m4946aad3df" x="57.6" y="89.005626" style="stroke: #000000; stroke-width: 0.8"/>
      </g>
     </g>
     <g id="text_18">
      <!-- 70 -->
      <g transform="translate(37.875 92.804845) scale(0.1 -0.1)">
       <defs>
        <path id="DejaVuSans-37" d="M 525 4666 
L 3525 4666 
L 3525 4397 
L 1831 0 
L 1172 0 
L 2766 4134 
L 525 4134 
L 525 4666 
z
" transform="scale(0.015625)"/>
       </defs>
       <use xlink:href="#DejaVuSans-37"/>
       <use xlink:href="#DejaVuSans-30" x="63.623047"/>
      </g>
     </g>
    </g>
    <g id="ytick_8">
     <g id="line2d_18">
      <g>
       <use xlink:href="#m4946aad3df" x="57.6" y="56.672026" style="stroke: #000000; stroke-width: 0.8"/>
      </g>
     </g>
     <g id="text_19">
      <!-- 80 -->
      <g transform="translate(37.875 60.471244) scale(0.1 -0.1)">
       <defs>
        <path id="DejaVuSans-38" d="M 2034 2216 
Q 1584 2216 1326 1975 
Q 1069 1734 1069 1313 
Q 1069 891 1326 650 
Q 1584 409 2034 409 
Q 2484 409 2743 651 
Q 3003 894 3003 1313 
Q 3003 1734 2745 1975 
Q 2488 2216 2034 2216 
z
M 1403 2484 
Q 997 2584 770 2862 
Q 544 3141 544 3541 
Q 544 4100 942 4425 
Q 1341 4750 2034 4750 
Q 2731 4750 3128 4425 
Q 3525 4100 3525 3541 
Q 3525 3141 3298 2862 
Q 3072 2584 2669 2484 
Q 3125 2378 3379 2068 
Q 3634 1759 3634 1313 
Q 3634 634 3220 271 
Q 2806 -91 2034 -91 
Q 1263 -91 848 271 
Q 434 634 434 1313 
Q 434 1759 690 2068 
Q 947 2378 1403 2484 
z
M 1172 3481 
Q 1172 3119 1398 2916 
Q 1625 2713 2034 2713 
Q 2441 2713 2670 2916 
Q 2900 3119 2900 3481 
Q 2900 3844 2670 4047 
Q 2441 4250 2034 4250 
Q 1625 4250 1398 4047 
Q 1172 3844 1172 3481 
z
" transform="scale(0.015625)"/>
       </defs>
       <use xlink:href="#DejaVuSans-38"/>
       <use xlink:href="#DejaVuSans-30" x="63.623047"/>
      </g>
     </g>
    </g>
    <g id="text_20">
     <!-- Accuracy -->
     <g transform="translate(31.795312 197.356125) rotate(-90) scale(0.1 -0.1)">
      <defs>
       <path id="DejaVuSans-41" d="M 2188 4044 
L 1331 1722 
L 3047 1722 
L 2188 4044 
z
M 1831 4666 
L 2547 4666 
L 4325 0 
L 3669 0 
L 3244 1197 
L 1141 1197 
L 716 0 
L 50 0 
L 1831 4666 
z
" transform="scale(0.015625)"/>
       <path id="DejaVuSans-75" d="M 544 1381 
L 544 3500 
L 1119 3500 
L 1119 1403 
Q 1119 906 1312 657 
Q 1506 409 1894 409 
Q 2359 409 2629 706 
Q 2900 1003 2900 1516 
L 2900 3500 
L 3475 3500 
L 3475 0 
L 2900 0 
L 2900 538 
Q 2691 219 2414 64 
Q 2138 -91 1772 -91 
Q 1169 -91 856 284 
Q 544 659 544 1381 
z
M 1991 3584 
L 1991 3584 
z
" transform="scale(0.015625)"/>
       <path id="DejaVuSans-72" d="M 2631 2963 
Q 2534 3019 2420 3045 
Q 2306 3072 2169 3072 
Q 1681 3072 1420 2755 
Q 1159 2438 1159 1844 
L 1159 0 
L 581 0 
L 581 3500 
L 1159 3500 
L 1159 2956 
Q 1341 3275 1631 3429 
Q 1922 3584 2338 3584 
Q 2397 3584 2469 3576 
Q 2541 3569 2628 3553 
L 2631 2963 
z
" transform="scale(0.015625)"/>
       <path id="DejaVuSans-61" d="M 2194 1759 
Q 1497 1759 1228 1600 
Q 959 1441 959 1056 
Q 959 750 1161 570 
Q 1363 391 1709 391 
Q 2188 391 2477 730 
Q 2766 1069 2766 1631 
L 2766 1759 
L 2194 1759 
z
M 3341 1997 
L 3341 0 
L 2766 0 
L 2766 531 
Q 2569 213 2275 61 
Q 1981 -91 1556 -91 
Q 1019 -91 701 211 
Q 384 513 384 1019 
Q 384 1609 779 1909 
Q 1175 2209 1959 2209 
L 2766 2209 
L 2766 2266 
Q 2766 2663 2505 2880 
Q 2244 3097 1772 3097 
Q 1472 3097 1187 3025 
Q 903 2953 641 2809 
L 641 3341 
Q 956 3463 1253 3523 
Q 1550 3584 1831 3584 
Q 2591 3584 2966 3190 
Q 3341 2797 3341 1997 
z
" transform="scale(0.015625)"/>
       <path id="DejaVuSans-79" d="M 2059 -325 
Q 1816 -950 1584 -1140 
Q 1353 -1331 966 -1331 
L 506 -1331 
L 506 -850 
L 844 -850 
Q 1081 -850 1212 -737 
Q 1344 -625 1503 -206 
L 1606 56 
L 191 3500 
L 800 3500 
L 1894 763 
L 2988 3500 
L 3597 3500 
L 2059 -325 
z
" transform="scale(0.015625)"/>
      </defs>
      <use xlink:href="#DejaVuSans-41"/>
      <use xlink:href="#DejaVuSans-63" x="66.658203"/>
      <use xlink:href="#DejaVuSans-63" x="121.638672"/>
      <use xlink:href="#DejaVuSans-75" x="176.619141"/>
      <use xlink:href="#DejaVuSans-72" x="239.998047"/>
      <use xlink:href="#DejaVuSans-61" x="281.111328"/>
      <use xlink:href="#DejaVuSans-63" x="342.390625"/>
      <use xlink:href="#DejaVuSans-79" x="397.371094"/>
     </g>
    </g>
   </g>
   <g id="line2d_19">
    <path d="M 73.832727 295.488 
L 74.555789 280.536943 
L 76.724973 248.875881 
L 77.448034 239.984141 
L 78.171095 233.950691 
L 79.617218 220.05371 
L 80.340279 213.444722 
L 83.232525 191.800609 
L 83.955586 188.709517 
L 84.678647 183.639609 
L 85.401709 180.664917 
L 86.12477 175.840744 
L 86.847832 172.807852 
L 87.570893 170.318165 
L 89.017016 163.903179 
L 90.463138 158.665136 
L 91.1862 158.167198 
L 92.632322 153.220157 
L 93.355384 151.700478 
L 94.078445 151.338342 
L 94.801506 151.93328 
L 95.524568 179.578508 
L 96.247629 179.71431 
L 96.97069 179.015904 
L 97.693752 175.207006 
L 98.416813 173.984796 
L 99.139874 171.714977 
L 99.862936 168.313482 
L 100.585997 167.640943 
L 101.309059 164.730919 
L 102.03212 162.89437 
L 103.478243 157.23599 
L 104.924365 153.96383 
L 105.647427 152.547618 
L 106.370488 149.223724 
L 107.093549 149.197857 
L 108.539672 143.895147 
L 109.262733 142.72467 
L 109.985795 142.524202 
L 110.708856 141.386059 
L 111.431917 139.355509 
L 112.154979 136.794688 
L 112.87804 135.281476 
L 113.601101 133.147458 
L 114.324163 132.183917 
L 115.770285 128.51082 
L 116.493347 125.846531 
L 117.216408 126.700138 
L 117.93947 123.964715 
L 118.662531 121.856565 
L 120.108654 119.560879 
L 120.831715 118.332202 
L 121.554776 115.797248 
L 122.277838 115.273443 
L 123.000899 114.0189 
L 124.447022 109.362861 
L 125.170083 108.81319 
L 125.893144 107.15771 
L 126.616206 107.636247 
L 128.062328 103.950217 
L 128.78539 103.542813 
L 129.508451 101.563997 
L 131.677635 98.847974 
L 132.400696 99.100176 
L 133.123758 97.903833 
L 133.846819 96.028484 
L 134.569881 97.231294 
L 135.292942 95.87975 
L 136.016003 95.401213 
L 137.462126 95.11021 
L 138.185187 95.672815 
L 138.908249 130.470236 
L 139.63131 133.328526 
L 140.354371 134.026932 
L 141.077433 133.444927 
L 141.800494 132.63012 
L 142.523555 131.511378 
L 143.246617 131.343243 
L 143.969678 130.2245 
L 144.692739 130.340901 
L 145.415801 129.480828 
L 146.138862 129.015224 
L 146.861923 127.818881 
L 147.584985 128.090483 
L 148.308046 126.053466 
L 149.031108 125.678396 
L 149.754169 124.068183 
L 151.200292 122.044099 
L 151.923353 122.134634 
L 153.369476 120.323952 
L 154.092537 120.285152 
L 154.815598 119.069408 
L 156.261721 117.23286 
L 156.984782 116.52152 
L 157.707844 116.573254 
L 158.430905 113.378694 
L 159.153966 114.581504 
L 159.877028 112.563888 
L 160.600089 113.314027 
L 162.046212 112.46042 
L 163.492334 110.42987 
L 164.215396 109.039525 
L 164.938457 109.311128 
L 165.661519 108.160051 
L 166.38458 105.857899 
L 167.107641 106.32997 
L 167.830703 105.340561 
L 168.553764 104.868491 
L 169.276825 103.012542 
L 169.999887 102.197735 
L 170.722948 102.611605 
L 171.446009 101.51873 
L 172.169071 101.169527 
L 172.892132 100.969059 
L 173.615193 99.09371 
L 174.338255 99.203644 
L 175.784377 97.114893 
L 176.507439 97.735698 
L 177.2305 95.174877 
L 177.953561 94.929142 
L 178.676623 93.51293 
L 179.399684 93.241328 
L 180.122745 92.374787 
L 180.845807 92.154919 
L 181.568868 91.728115 
L 182.29193 90.719307 
L 183.014991 90.085569 
L 183.738052 87.453613 
L 184.461114 88.850425 
L 185.184175 87.951551 
L 185.907236 87.44068 
L 186.630298 85.423063 
L 187.353359 86.949209 
L 188.07642 84.039185 
L 188.799482 82.868709 
L 190.245604 82.403105 
L 190.968666 81.8017 
L 191.691727 80.353155 
L 192.414788 79.881084 
L 193.13785 78.180337 
L 193.860911 77.643599 
L 194.583972 77.966935 
L 195.307034 77.714733 
L 196.030095 75.477248 
L 196.753157 75.516048 
L 197.476218 73.614832 
L 198.199279 74.798242 
L 198.922341 74.319705 
L 199.645402 71.771817 
L 200.368463 73.233296 
L 201.091525 71.235079 
L 201.814586 72.088686 
L 202.537647 70.433206 
L 203.260709 69.948202 
L 203.98377 68.861793 
L 204.706831 69.482598 
L 205.429893 68.635458 
L 206.152954 68.803593 
L 207.599077 66.003503 
L 208.322138 66.572574 
L 209.045199 65.518499 
L 209.768261 64.050553 
L 210.491322 65.486165 
L 211.214383 63.746617 
L 211.937445 64.102287 
L 213.383568 64.160488 
L 214.106629 63.66255 
L 214.82969 63.449148 
L 215.552752 61.890669 
L 216.275813 62.168738 
L 216.998874 60.830127 
L 217.721936 61.075862 
L 218.444997 61.6708 
L 219.168058 60.868927 
L 219.89112 61.696667 
L 220.614181 60.952994 
L 221.337242 60.972395 
L 222.060304 60.041187 
L 222.783365 60.642592 
L 223.506426 60.306322 
L 224.229488 60.752526 
L 224.952549 59.982986 
L 225.67561 99.313578 
L 226.398672 105.773832 
L 227.121733 107.228844 
L 227.844794 107.13831 
L 228.567856 109.020125 
L 229.290917 106.931374 
L 230.013979 106.452837 
L 230.73704 106.827907 
L 231.460101 105.63803 
L 232.183163 107.299978 
L 232.906224 107.151243 
L 233.629285 105.334095 
L 234.352347 104.971958 
L 235.075408 104.77149 
L 235.798469 104.862024 
L 236.521531 102.70214 
L 237.244592 104.571022 
L 237.967653 104.00195 
L 238.690715 104.428754 
L 239.413776 102.79914 
L 240.136837 103.141877 
L 241.58296 103.057809 
L 242.306021 101.880866 
L 243.029083 101.402329 
L 243.752144 100.277119 
L 244.475206 101.783865 
L 245.198267 100.121918 
L 245.921328 99.248911 
L 246.64439 100.302986 
L 247.367451 99.449379 
L 248.090512 98.951442 
L 248.813574 98.647506 
L 250.259696 96.927358 
L 250.982758 98.822107 
L 251.705819 97.625764 
L 252.42888 97.205427 
L 253.151942 97.050226 
L 253.875003 97.865033 
L 254.598064 96.183686 
L 255.321126 96.888558 
L 256.044187 95.394746 
L 256.767248 95.478813 
L 257.49031 95.045543 
L 258.213371 94.204869 
L 258.936432 95.310678 
L 259.659494 93.571131 
L 260.382555 93.803933 
L 261.105617 94.470005 
L 261.828678 94.424738 
L 262.551739 92.510589 
L 263.274801 91.721649 
L 263.997862 92.31012 
L 264.720923 92.497655 
L 265.443985 91.689315 
L 266.167046 91.954451 
L 266.890107 91.016776 
L 267.613169 89.303095 
L 268.33623 91.210778 
L 269.059291 89.406563 
L 269.782353 90.046768 
L 270.505414 90.104969 
L 271.228475 88.617623 
L 271.951537 88.333087 
L 272.674598 89.186694 
L 273.397659 88.391288 
L 274.120721 88.042085 
L 274.843782 88.216686 
L 276.289905 87.447147 
L 277.012966 87.02681 
L 278.459089 86.664674 
L 279.18215 85.338996 
L 279.905212 85.946868 
L 280.628273 85.364863 
L 281.351334 85.293729 
L 282.074396 85.798133 
L 282.797457 85.675265 
L 284.966641 82.98511 
L 285.689702 84.64059 
L 286.412764 81.769366 
L 287.135825 82.64884 
L 287.858886 83.993918 
L 288.581948 82.597107 
L 289.305009 82.461306 
L 290.02807 81.976302 
L 290.751132 83.107978 
L 291.474193 80.488956 
L 292.197255 79.467214 
L 292.920316 80.023352 
L 293.643377 79.39608 
L 294.366439 79.622415 
L 295.0895 78.98221 
L 295.812561 79.37668 
L 296.535623 78.419605 
L 297.258684 77.902268 
L 297.981745 77.565998 
L 298.704807 78.413139 
L 299.427868 78.245004 
L 300.150929 77.313796 
L 300.873991 77.106861 
L 301.597052 76.427856 
L 302.320113 76.983994 
L 303.043175 76.343788 
L 303.766236 76.136853 
L 304.489297 75.289713 
L 305.212359 73.795901 
L 305.93542 73.291496 
L 307.381543 74.500773 
L 308.104604 73.595432 
L 308.827666 73.459631 
L 309.550727 72.224488 
L 310.273788 72.547824 
L 310.99685 71.390281 
L 311.719911 72.302088 
L 312.442972 72.547824 
L 313.166034 71.694217 
L 313.889095 72.108087 
L 314.612156 69.611933 
L 315.335218 69.398531 
L 316.058279 69.896468 
L 316.78134 69.864135 
L 317.504402 70.006403 
L 318.227463 69.611933 
L 318.950524 67.917652 
L 319.673586 68.94586 
L 320.396647 68.43499 
L 321.119708 68.525524 
L 321.84277 68.066387 
L 322.565831 66.811843 
L 323.288892 67.018778 
L 324.011954 67.057578 
L 324.735015 66.527307 
L 325.458077 65.576699 
L 326.181138 65.841835 
L 326.904199 64.755426 
L 327.627261 65.292164 
L 328.350322 63.733684 
L 329.073383 64.121687 
L 329.796445 63.694884 
L 330.519506 63.66255 
L 331.242567 65.085229 
L 331.965629 63.22928 
L 332.68869 63.24868 
L 333.411751 61.502666 
L 334.134813 62.44034 
L 334.857874 61.632 
L 335.580935 61.392731 
L 336.303997 60.176988 
L 337.027058 61.399198 
L 337.750119 60.733126 
L 338.473181 58.696109 
L 339.196242 59.258714 
L 339.919304 57.94597 
L 340.642365 58.288706 
L 341.365426 58.392173 
L 342.088488 59.821318 
L 342.811549 57.764901 
L 343.53461 58.721976 
L 344.257672 57.357498 
L 344.980733 56.846627 
L 346.426856 56.439224 
L 347.872978 56.846627 
L 348.59604 55.456282 
L 349.319101 55.210547 
L 350.042162 55.391615 
L 350.765224 54.82901 
L 351.488285 54.913078 
L 352.211346 54.673809 
L 352.934408 55.281681 
L 353.657469 54.945411 
L 354.38053 54.913078 
L 355.826653 55.967153 
L 356.549715 55.372215 
L 357.272776 54.951878 
L 357.995837 56.090021 
L 358.718899 55.023012 
L 359.44196 54.479808 
L 360.165021 55.255814 
L 360.888083 55.462749 
L 361.611144 55.074746 
L 362.334205 56.064154 
L 363.057267 55.676151 
L 363.780328 54.072404 
L 364.503389 55.217014 
L 365.949512 54.628542 
L 366.672573 55.721418 
L 367.395635 56.096488 
L 368.118696 55.107079 
L 368.841757 53.671468 
L 369.564819 54.512141 
L 370.28788 55.928353 
L 371.010941 54.402207 
L 371.734003 55.301081 
L 372.457064 54.635009 
L 373.180126 54.221139 
L 373.903187 55.55975 
L 374.626248 54.473341 
L 375.34931 53.936603 
L 376.072371 55.120013 
L 376.795432 54.02067 
L 377.518494 54.544475 
L 378.241555 55.346348 
L 378.964616 55.398082 
L 379.687678 54.027137 
L 380.410739 54.298739 
L 381.1338 54.984212 
L 381.856862 55.346348 
L 382.579923 54.525075 
L 383.302984 55.727885 
L 384.026046 53.787868 
L 384.749107 55.18468 
L 385.472168 55.010079 
L 386.19523 54.706143 
L 386.918291 54.188805 
L 387.641353 54.647942 
L 388.364414 55.294614 
L 389.087475 54.162938 
L 389.810537 55.773152 
L 390.533598 54.667342 
L 391.256659 54.887211 
L 391.979721 53.568 
L 392.702782 55.391615 
L 393.425843 55.799018 
L 394.148905 54.641476 
L 394.871966 55.721418 
L 395.595027 54.040071 
L 396.318089 56.361623 
L 397.04115 54.162938 
L 397.764211 54.234072 
L 398.487273 54.744943 
L 398.487273 54.744943 
" clip-path="url(#pe05df375b2)" style="fill: none; stroke: #1f77b4; stroke-width: 1.5; stroke-linecap: square"/>
   </g>
   <g id="line2d_20">
    <path d="M 73.832727 279.644536 
L 74.555789 265.741087 
L 75.27885 256.105674 
L 76.001911 231.499804 
L 77.448034 214.39533 
L 78.171095 194.025161 
L 78.894157 188.205113 
L 79.617218 176.759018 
L 80.340279 172.717318 
L 81.063341 166.347599 
L 81.786402 155.289508 
L 82.509463 156.809187 
L 83.232525 154.060831 
L 83.955586 137.635362 
L 84.678647 138.120366 
L 85.401709 137.118024 
L 86.12477 132.170983 
L 86.847832 129.519628 
L 87.570893 124.831256 
L 88.293954 122.470903 
L 89.017016 119.237543 
L 89.740077 118.49387 
L 90.463138 116.553854 
L 91.1862 113.126492 
L 91.909261 113.320494 
L 92.632322 114.128834 
L 93.355384 112.803156 
L 94.078445 112.447487 
L 94.801506 112.641488 
L 95.524568 143.778746 
L 96.247629 137.150358 
L 96.97069 138.864038 
L 97.693752 130.392635 
L 98.416813 131.621312 
L 99.139874 133.205658 
L 99.862936 120.239885 
L 100.585997 122.988241 
L 101.309059 120.239885 
L 102.03212 113.870165 
L 102.755181 118.687872 
L 103.478243 116.004183 
L 104.201304 112.156484 
L 104.924365 113.611496 
L 105.647427 108.858457 
L 106.370488 108.535121 
L 107.093549 107.565113 
L 107.816611 105.851432 
L 108.539672 103.297078 
L 109.262733 105.366428 
L 109.985795 104.428754 
L 110.708856 100.257719 
L 111.431917 101.486396 
L 112.154979 97.153694 
L 112.87804 98.188369 
L 113.601101 93.920334 
L 114.324163 93.888 
L 115.047224 93.273662 
L 115.770285 89.910967 
L 116.493347 90.945642 
L 117.216408 86.968609 
L 117.93947 89.264295 
L 118.662531 86.354271 
L 119.385592 87.324279 
L 120.108654 84.64059 
L 120.831715 83.896917 
L 121.554776 81.568898 
L 123.000899 81.471897 
L 123.72396 80.825225 
L 124.447022 78.561873 
L 125.170083 77.591865 
L 125.893144 77.979868 
L 126.616206 78.594207 
L 127.339267 75.878184 
L 128.062328 76.880526 
L 128.78539 75.328513 
L 129.508451 76.136853 
L 130.231512 74.843509 
L 130.954574 74.94051 
L 131.677635 74.293838 
L 133.123758 73.744167 
L 133.846819 72.96816 
L 134.569881 72.903493 
L 135.292942 73.647166 
L 136.016003 73.000494 
L 136.739065 72.935827 
L 137.462126 73.097495 
L 138.185187 72.87116 
L 138.908249 97.47703 
L 139.63131 93.467663 
L 140.354371 98.73804 
L 141.077433 93.07966 
L 141.800494 97.994367 
L 142.523555 92.982659 
L 143.246617 95.375346 
L 143.969678 91.721649 
L 144.692739 89.943301 
L 145.415801 89.943301 
L 146.138862 89.361296 
L 146.861923 86.871609 
L 147.584985 89.102627 
L 148.308046 92.335987 
L 149.031108 88.552956 
L 149.754169 89.652298 
L 150.47723 92.562322 
L 151.200292 87.647615 
L 151.923353 89.619965 
L 152.646414 88.973293 
L 153.369476 85.998601 
L 154.092537 86.580606 
L 154.815598 84.317254 
L 155.53866 83.864584 
L 156.261721 82.732908 
L 156.984782 84.834592 
L 157.707844 82.150903 
L 158.430905 82.21557 
L 159.153966 83.444247 
L 159.877028 82.603573 
L 160.600089 82.474239 
L 161.32315 84.672924 
L 162.046212 82.409572 
L 162.769273 82.894576 
L 163.492334 81.180895 
L 164.215396 85.416597 
L 165.661519 80.178553 
L 166.38458 81.245562 
L 167.107641 78.788209 
L 167.830703 78.62654 
L 168.553764 78.949877 
L 169.276825 76.848192 
L 169.999887 80.501889 
L 170.722948 78.044536 
L 171.446009 78.885209 
L 172.892132 76.815859 
L 173.615193 78.044536 
L 174.338255 77.00986 
L 175.061316 77.042194 
L 175.784377 76.945193 
L 176.507439 78.62654 
L 177.2305 78.206204 
L 177.953561 75.199179 
L 178.676623 76.20152 
L 179.399684 76.524856 
L 180.122745 74.94051 
L 181.568868 73.420831 
L 182.29193 76.55719 
L 183.014991 73.129828 
L 183.738052 73.873501 
L 184.461114 72.418489 
L 185.184175 75.166845 
L 185.907236 74.681841 
L 186.630298 72.418489 
L 187.353359 72.06282 
L 188.07642 71.448481 
L 188.799482 74.423172 
L 189.522543 71.189812 
L 190.245604 71.642483 
L 190.968666 70.09047 
L 191.691727 70.44614 
L 192.414788 70.510807 
L 193.13785 71.092812 
L 193.860911 70.349139 
L 194.583972 68.732459 
L 195.307034 68.764792 
L 196.030095 71.836484 
L 196.753157 69.605466 
L 197.476218 68.82946 
L 198.199279 68.506123 
L 198.922341 67.018778 
L 199.645402 68.215121 
L 200.368463 69.185129 
L 201.091525 68.021119 
L 201.814586 66.307439 
L 202.537647 67.277447 
L 203.260709 66.760109 
L 205.429893 66.792443 
L 206.152954 65.887102 
L 206.876015 66.598441 
L 207.599077 64.367423 
L 208.322138 65.143429 
L 209.045199 64.626091 
L 209.768261 64.561424 
L 210.491322 64.044087 
L 211.214383 63.979419 
L 211.937445 65.111095 
L 213.383568 63.914752 
L 214.106629 64.399756 
L 215.552752 62.492074 
L 216.275813 63.914752 
L 216.998874 64.141087 
L 217.721936 63.591416 
L 218.444997 63.526749 
L 219.168058 63.138746 
L 219.89112 63.138746 
L 220.614181 63.688417 
L 221.337242 63.656083 
L 222.060304 63.203413 
L 222.783365 63.26808 
L 223.506426 63.171079 
L 224.229488 63.688417 
L 224.952549 62.621408 
L 225.67561 88.649957 
L 226.398672 85.8046 
L 227.121733 89.716966 
L 227.844794 90.913309 
L 228.567856 84.511256 
L 229.290917 89.813966 
L 230.013979 86.774608 
L 230.73704 84.478922 
L 231.460101 86.321937 
L 232.183163 83.02391 
L 232.906224 87.227278 
L 233.629285 86.515939 
L 234.352347 85.998601 
L 235.075408 79.434881 
L 235.798469 84.220253 
L 236.521531 86.386605 
L 237.244592 83.993918 
L 237.967653 88.003285 
L 238.690715 81.342563 
L 239.413776 82.150903 
L 240.136837 85.222595 
L 240.859899 84.769925 
L 241.58296 85.384263 
L 242.306021 79.628882 
L 243.029083 83.670582 
L 243.752144 81.374897 
L 244.475206 83.573581 
L 245.198267 83.056244 
L 245.921328 84.543589 
L 246.64439 82.862242 
L 247.367451 88.520622 
L 248.090512 85.901601 
L 248.813574 86.160269 
L 249.536635 82.797575 
L 250.982758 82.700574 
L 251.705819 82.474239 
L 252.42888 83.056244 
L 253.151942 81.892234 
L 253.875003 85.416597 
L 254.598064 79.305546 
L 255.321126 78.464872 
L 256.044187 77.915201 
L 256.767248 84.090919 
L 257.49031 83.896917 
L 258.213371 85.610598 
L 258.936432 82.668241 
L 259.659494 80.95456 
L 260.382555 82.57124 
L 261.105617 80.081553 
L 261.828678 78.303204 
L 262.551739 84.543589 
L 263.274801 80.307888 
L 263.997862 81.342563 
L 264.720923 82.086236 
L 265.443985 81.859901 
L 266.167046 81.213229 
L 266.890107 82.538906 
L 267.613169 78.044536 
L 268.33623 78.852876 
L 269.059291 82.862242 
L 269.782353 77.656532 
L 270.505414 82.053902 
L 271.228475 80.372555 
L 271.951537 77.462531 
L 272.674598 80.566557 
L 273.397659 76.783525 
L 274.120721 77.397864 
L 274.843782 88.520622 
L 275.566843 76.977527 
L 276.289905 79.693549 
L 277.012966 76.815859 
L 277.736028 75.39318 
L 278.459089 82.150903 
L 279.18215 85.8046 
L 279.905212 80.728225 
L 280.628273 78.303204 
L 281.351334 78.788209 
L 282.074396 78.949877 
L 282.797457 77.785867 
L 283.520518 78.723541 
L 284.24358 80.792892 
L 285.689702 76.783525 
L 286.412764 75.166845 
L 287.858886 81.698233 
L 288.581948 80.404889 
L 289.305009 76.007519 
L 290.02807 74.48784 
L 290.751132 75.457848 
L 291.474193 78.497206 
L 292.197255 79.693549 
L 292.920316 76.783525 
L 293.643377 75.457848 
L 294.366439 77.591865 
L 295.0895 76.751192 
L 295.812561 72.127487 
L 296.535623 76.266188 
L 297.258684 77.106861 
L 297.981745 76.718858 
L 298.704807 75.134512 
L 299.427868 79.531881 
L 300.150929 74.067503 
L 300.873991 75.005177 
L 301.597052 73.905835 
L 302.320113 75.878184 
L 303.043175 76.686524 
L 303.766236 75.651849 
L 305.212359 75.845851 
L 306.658481 73.129828 
L 307.381543 78.335538 
L 308.104604 76.266188 
L 308.827666 72.483156 
L 309.550727 73.873501 
L 310.273788 72.095153 
L 310.99685 71.577816 
L 311.719911 71.739484 
L 312.442972 73.097495 
L 313.166034 73.808834 
L 313.889095 76.718858 
L 314.612156 71.319147 
L 315.335218 73.517832 
L 316.058279 70.058136 
L 316.78134 73.356164 
L 317.504402 72.741825 
L 318.227463 72.386156 
L 318.950524 71.868818 
L 319.673586 73.388497 
L 320.396647 72.353822 
L 321.119708 69.864135 
L 321.84277 72.256821 
L 322.565831 71.125145 
L 323.288892 71.189812 
L 324.011954 70.219804 
L 324.735015 71.804151 
L 325.458077 68.82946 
L 326.181138 72.256821 
L 326.904199 71.610149 
L 327.627261 72.483156 
L 328.350322 71.577816 
L 329.073383 70.381472 
L 329.796445 70.931144 
L 330.519506 70.381472 
L 331.242567 69.346797 
L 332.68869 70.187471 
L 333.411751 69.540799 
L 334.134813 68.312122 
L 334.857874 68.861793 
L 335.580935 67.277447 
L 336.303997 68.215121 
L 337.027058 66.145771 
L 338.473181 67.212779 
L 339.196242 69.443798 
L 339.919304 67.859451 
L 340.642365 67.600783 
L 341.365426 68.700125 
L 342.088488 66.50144 
L 342.811549 66.663108 
L 343.53461 67.30978 
L 344.257672 65.337431 
L 344.980733 67.051111 
L 345.703794 67.439115 
L 346.426856 67.277447 
L 347.149917 63.979419 
L 347.872978 66.372106 
L 348.59604 66.566107 
L 349.319101 64.820093 
L 350.042162 67.30978 
L 350.765224 64.723092 
L 351.488285 65.984103 
L 352.211346 66.081103 
L 352.934408 66.533774 
L 353.657469 66.210438 
L 354.38053 66.113437 
L 355.103592 67.697783 
L 355.826653 65.596099 
L 356.549715 68.312122 
L 357.272776 66.50144 
L 357.995837 65.951769 
L 358.718899 67.859451 
L 359.44196 67.148112 
L 360.165021 67.051111 
L 360.888083 67.633116 
L 361.611144 67.859451 
L 362.334205 67.148112 
L 363.057267 67.30978 
L 363.780328 68.150454 
L 364.503389 65.628433 
L 365.226451 67.859451 
L 365.949512 65.272763 
L 366.672573 66.727775 
L 367.395635 65.984103 
L 368.118696 66.566107 
L 368.841757 67.471448 
L 369.564819 65.887102 
L 370.28788 68.376789 
L 371.010941 65.6931 
L 371.734003 67.633116 
L 372.457064 65.660767 
L 373.180126 67.827118 
L 373.903187 66.630775 
L 374.626248 67.115779 
L 375.34931 70.187471 
L 376.072371 67.697783 
L 376.795432 69.28213 
L 377.518494 66.242771 
L 378.241555 66.954111 
L 378.964616 67.924119 
L 379.687678 67.471448 
L 380.410739 67.277447 
L 381.1338 68.409123 
L 381.856862 67.115779 
L 382.579923 66.889443 
L 383.302984 67.30978 
L 384.026046 68.409123 
L 384.749107 66.50144 
L 385.472168 66.533774 
L 386.19523 68.441456 
L 386.918291 69.411464 
L 387.641353 67.794784 
L 388.364414 70.025803 
L 389.087475 66.824776 
L 389.810537 68.732459 
L 390.533598 68.667791 
L 391.256659 67.568449 
L 392.702782 69.799468 
L 393.425843 68.376789 
L 394.148905 68.797126 
L 394.871966 67.600783 
L 395.595027 67.30978 
L 396.318089 69.217463 
L 397.04115 68.506123 
L 397.764211 67.115779 
L 398.487273 68.506123 
L 398.487273 68.506123 
" clip-path="url(#pe05df375b2)" style="fill: none; stroke: #ff7f0e; stroke-width: 1.5; stroke-linecap: square"/>
   </g>
   <g id="line2d_21">
    <path d="M 73.832727 280.654637 
L 74.555789 265.156853 
L 75.27885 253.304916 
L 76.001911 228.463791 
L 76.724973 234.361885 
L 77.448034 217.916347 
L 78.171095 196.765713 
L 78.894157 193.733044 
L 79.617218 185.192513 
L 80.340279 180.632361 
L 81.063341 188.214033 
L 81.786402 177.343253 
L 82.509463 177.465898 
L 83.232525 170.642393 
L 83.955586 166.929604 
L 84.678647 159.727016 
L 85.401709 166.572819 
L 86.12477 156.928487 
L 86.847832 158.166083 
L 87.570893 153.594781 
L 88.293954 152.290287 
L 89.017016 152.858913 
L 89.740077 154.408696 
L 91.1862 144.953905 
L 91.909261 143.827804 
L 92.632322 144.15114 
L 93.355384 145.277241 
L 94.078445 144.519074 
L 94.801506 145.098849 
L 95.524568 171.87999 
L 96.247629 160.251043 
L 96.97069 163.685094 
L 97.693752 160.897715 
L 98.416813 160.30679 
L 99.139874 165.558213 
L 99.862936 152.267988 
L 100.585997 152.792016 
L 101.309059 148.744741 
L 102.03212 150.651308 
L 102.755181 159.749315 
L 103.478243 147.964275 
L 104.201304 147.718985 
L 104.924365 145.53368 
L 105.647427 143.816654 
L 106.370488 144.452177 
L 107.093549 147.674387 
L 107.816611 141.107321 
L 109.262733 149.268768 
L 109.985795 149.603254 
L 110.708856 136.201534 
L 111.431917 137.383383 
L 112.154979 146.091156 
L 112.87804 139.28995 
L 113.601101 138.353391 
L 114.324163 137.795915 
L 115.047224 136.647514 
L 115.770285 136.714412 
L 116.493347 133.670593 
L 117.216408 132.12081 
L 117.93947 136.669813 
L 118.662531 130.214243 
L 119.385592 128.842852 
L 120.108654 130.604476 
L 120.831715 128.285376 
L 121.554776 125.286156 
L 122.277838 131.619082 
L 123.000899 127.326518 
L 123.72396 126.088921 
L 124.447022 123.602579 
L 125.170083 123.557981 
L 125.893144 125.832482 
L 126.616206 124.059709 
L 127.339267 120.948994 
L 128.062328 121.885553 
L 128.78539 120.681405 
L 129.508451 121.406124 
L 130.231512 121.02704 
L 130.954574 121.606815 
L 131.677635 122.955907 
L 132.400696 123.089701 
L 133.123758 121.305778 
L 133.846819 120.792901 
L 134.569881 121.082788 
L 135.292942 121.673712 
L 136.016003 120.692555 
L 136.739065 120.436116 
L 137.462126 120.023584 
L 138.185187 119.432659 
L 138.908249 144.708616 
L 139.63131 129.968953 
L 140.354371 144.519074 
L 141.077433 133.681743 
L 141.800494 144.496775 
L 142.523555 141.062723 
L 143.246617 132.455296 
L 143.969678 139.223053 
L 144.692739 135.008535 
L 145.415801 136.023141 
L 146.138862 133.793238 
L 146.861923 135.030834 
L 147.584985 139.769379 
L 148.308046 139.256502 
L 149.031108 141.753993 
L 150.47723 132.722884 
L 151.200292 131.384942 
L 151.923353 131.953568 
L 152.646414 136.223833 
L 153.369476 124.561437 
L 154.092537 135.900497 
L 154.815598 135.008535 
L 155.53866 128.129283 
L 156.261721 124.672933 
L 156.984782 126.657547 
L 157.707844 131.20655 
L 158.430905 129.143889 
L 159.877028 131.217699 
L 160.600089 131.719428 
L 161.32315 126.289613 
L 162.046212 131.329195 
L 162.769273 126.835939 
L 163.492334 131.998166 
L 164.215396 124.204653 
L 164.938457 123.245794 
L 165.661519 129.266534 
L 166.38458 130.771719 
L 167.107641 123.100851 
L 167.830703 127.984339 
L 168.553764 125.698688 
L 169.276825 124.349597 
L 169.999887 127.7279 
L 170.722948 126.456855 
L 171.446009 129.913206 
L 172.169071 123.112 
L 172.892132 122.443029 
L 173.615193 123.35729 
L 174.338255 129.801711 
L 175.061316 122.342684 
L 175.784377 120.837499 
L 176.507439 127.716751 
L 177.2305 126.913986 
L 177.953561 120.324621 
L 178.676623 123.078552 
L 179.399684 120.045883 
L 180.122745 123.190047 
L 180.845807 121.328077 
L 181.568868 120.491864 
L 183.014991 124.829026 
L 183.738052 118.02782 
L 184.461114 120.213126 
L 185.184175 121.539918 
L 185.907236 119.956687 
L 186.630298 121.328077 
L 187.353359 122.275786 
L 188.07642 119.310015 
L 188.799482 122.978206 
L 189.522543 122.008198 
L 190.245604 119.945537 
L 190.968666 115.173544 
L 191.691727 123.502233 
L 192.414788 118.373455 
L 193.13785 118.864034 
L 193.860911 119.209669 
L 194.583972 115.96516 
L 195.307034 120.424967 
L 196.030095 119.276566 
L 196.753157 118.808286 
L 197.476218 118.585296 
L 198.199279 111.917885 
L 198.922341 113.456518 
L 199.645402 116.388841 
L 200.368463 117.938624 
L 201.091525 115.0286 
L 201.814586 113.779854 
L 202.537647 115.597225 
L 203.260709 114.950553 
L 203.98377 116.054356 
L 204.706831 114.225835 
L 205.429893 116.678729 
L 206.152954 114.10319 
L 206.876015 117.147008 
L 207.599077 112.999388 
L 208.322138 114.950553 
L 209.045199 113.289275 
L 209.768261 114.549171 
L 210.491322 113.991695 
L 211.214383 114.348479 
L 211.937445 114.203536 
L 212.660506 113.924798 
L 213.383568 112.7095 
L 214.106629 112.843295 
L 214.82969 111.549951 
L 215.552752 112.051679 
L 216.275813 111.906735 
L 216.998874 113.523415 
L 217.721936 112.95479 
L 218.444997 113.445369 
L 219.168058 113.601462 
L 220.614181 113.122033 
L 221.337242 112.921341 
L 222.060304 111.873287 
L 222.783365 112.988238 
L 224.229488 112.375015 
L 224.952549 112.397314 
L 225.67561 129.511823 
L 226.398672 127.694452 
L 227.121733 133.52565 
L 227.844794 140.259958 
L 228.567856 123.903616 
L 229.290917 138.420288 
L 230.013979 128.129283 
L 230.73704 132.655987 
L 231.460101 134.830143 
L 232.183163 125.107764 
L 232.906224 127.772499 
L 233.629285 136.491421 
L 234.352347 126.367659 
L 235.075408 123.390738 
L 235.798469 133.715191 
L 236.521531 124.082008 
L 237.244592 125.988576 
L 237.967653 133.347257 
L 238.690715 125.843632 
L 239.413776 126.534902 
L 240.136837 130.994709 
L 240.859899 126.624098 
L 241.58296 132.210006 
L 242.306021 122.866711 
L 243.029083 127.694452 
L 243.752144 125.397651 
L 244.475206 136.97085 
L 245.198267 128.876301 
L 245.921328 137.327635 
L 246.64439 129.500674 
L 247.367451 134.495658 
L 248.090512 133.012772 
L 248.813574 138.174998 
L 249.536635 125.18581 
L 250.259696 117.414597 
L 250.982758 131.106204 
L 251.705819 129.143889 
L 252.42888 137.171542 
L 253.151942 129.288833 
L 253.875003 133.648294 
L 254.598064 125.163511 
L 255.321126 130.069299 
L 256.044187 124.96282 
L 256.767248 125.799034 
L 257.49031 128.954347 
L 258.213371 136.74786 
L 258.936432 130.849765 
L 259.659494 130.325738 
L 260.382555 133.425304 
L 261.105617 127.594106 
L 261.828678 124.684082 
L 262.551739 131.485288 
L 263.274801 121.595666 
L 264.720923 126.980883 
L 265.443985 124.817876 
L 266.167046 131.384942 
L 266.890107 129.433777 
L 267.613169 121.484171 
L 268.33623 132.154259 
L 269.059291 126.401108 
L 269.782353 125.029717 
L 270.505414 126.367659 
L 271.228475 126.690995 
L 271.951537 132.711735 
L 272.674598 127.081228 
L 273.397659 122.554524 
L 274.120721 124.929372 
L 274.843782 140.081566 
L 275.566843 125.018568 
L 276.289905 124.316148 
L 277.736028 121.617965 
L 278.459089 132.444146 
L 279.18215 136.402225 
L 279.905212 126.947434 
L 280.628273 124.394195 
L 281.351334 129.054693 
L 282.074396 135.688656 
L 282.797457 128.486068 
L 283.520518 123.669476 
L 284.24358 127.493761 
L 284.966641 124.929372 
L 285.689702 126.300762 
L 286.412764 126.044323 
L 287.135825 127.828246 
L 287.858886 125.832482 
L 288.581948 131.864371 
L 289.305009 126.713294 
L 290.02807 125.163511 
L 290.751132 129.57872 
L 291.474193 126.847089 
L 292.197255 131.005859 
L 292.920316 124.349597 
L 293.643377 120.503013 
L 294.366439 124.059709 
L 295.0895 122.063946 
L 295.812561 120.525312 
L 296.535623 125.687539 
L 297.258684 126.289613 
L 297.981745 118.875184 
L 298.704807 130.403785 
L 299.427868 127.03663 
L 300.150929 121.50647 
L 300.873991 120.971293 
L 301.597052 121.629114 
L 302.320113 119.978986 
L 303.043175 131.552185 
L 303.766236 122.933608 
L 304.489297 121.818656 
L 305.212359 121.796357 
L 305.93542 121.651413 
L 306.658481 120.837499 
L 307.381543 121.617965 
L 308.104604 121.160835 
L 308.827666 117.213905 
L 309.550727 120.703704 
L 310.99685 117.470344 
L 311.719911 120.714854 
L 312.442972 116.600682 
L 313.166034 122.119693 
L 313.889095 123.468785 
L 314.612156 116.143552 
L 316.058279 119.822893 
L 316.78134 124.171204 
L 317.504402 118.674492 
L 318.227463 115.608375 
L 318.950524 117.135859 
L 319.673586 117.916325 
L 320.396647 124.461092 
L 321.119708 116.355393 
L 321.84277 118.206213 
L 322.565831 113.17778 
L 323.288892 112.453062 
L 324.011954 110.791783 
L 324.735015 116.243897 
L 325.458077 111.159718 
L 326.181138 114.716414 
L 326.904199 115.652973 
L 327.627261 119.231968 
L 328.350322 118.206213 
L 329.073383 112.118576 
L 329.796445 115.240441 
L 330.519506 120.11278 
L 331.242567 118.663343 
L 331.965629 116.143552 
L 333.411751 117.392298 
L 334.134813 114.11434 
L 334.857874 114.582619 
L 335.580935 112.598005 
L 336.303997 116.377692 
L 337.027058 113.233528 
L 337.750119 113.066285 
L 338.473181 114.426526 
L 339.196242 114.660666 
L 339.919304 109.788327 
L 340.642365 113.746406 
L 341.365426 113.813303 
L 342.088488 113.445369 
L 342.811549 114.359629 
L 343.53461 113.255827 
L 344.257672 111.126269 
L 344.980733 111.304661 
L 345.703794 114.493423 
L 346.426856 113.545714 
L 347.149917 113.41192 
L 347.872978 114.058592 
L 348.59604 112.653753 
L 349.319101 110.245457 
L 350.042162 112.776398 
L 351.488285 113.724107 
L 352.211346 111.895586 
L 352.934408 109.665682 
L 354.38053 112.330417 
L 355.103592 117.191606 
L 356.549715 111.159718 
L 357.272776 114.248134 
L 357.995837 111.940184 
L 358.718899 112.609155 
L 359.44196 111.627997 
L 360.165021 114.147788 
L 360.888083 115.786767 
L 361.611144 112.430762 
L 362.334205 113.456518 
L 363.057267 112.096277 
L 363.780328 112.598005 
L 364.503389 111.917885 
L 365.226451 117.79368 
L 365.949512 113.434219 
L 366.672573 115.184693 
L 367.395635 112.876743 
L 368.118696 111.460754 
L 368.841757 119.109323 
L 369.564819 111.873287 
L 370.28788 113.779854 
L 371.010941 116.745626 
L 371.734003 115.864814 
L 372.457064 111.5611 
L 373.180126 115.675272 
L 373.903187 114.57147 
L 374.626248 112.598005 
L 375.34931 111.32696 
L 376.072371 111.449605 
L 376.795432 114.638367 
L 377.518494 113.077435 
L 378.241555 115.26274 
L 378.964616 113.099734 
L 379.687678 112.854444 
L 380.410739 112.085127 
L 381.1338 111.761791 
L 381.856862 110.63569 
L 382.579923 113.791004 
L 383.302984 108.271992 
L 384.026046 112.296968 
L 384.749107 111.717193 
L 385.472168 112.48651 
L 386.19523 113.64606 
L 386.918291 115.474581 
L 387.641353 113.835602 
L 389.087475 106.554967 
L 389.810537 113.255827 
L 390.533598 109.844074 
L 391.256659 111.516502 
L 391.979721 116.779074 
L 392.702782 117.414597 
L 393.425843 111.037073 
L 394.148905 118.284259 
L 394.871966 113.333873 
L 395.595027 114.57147 
L 396.318089 114.616068 
L 397.04115 116.221598 
L 397.764211 111.003624 
L 398.487273 113.824452 
L 398.487273 113.824452 
" clip-path="url(#pe05df375b2)" style="fill: none; stroke: #2ca02c; stroke-width: 1.5; stroke-linecap: square"/>
   </g>
   <g id="line2d_22">
    <path d="M 73.832727 292.416308 
L 74.555789 286.757928 
L 76.001911 277.995522 
L 76.724973 276.766845 
L 77.448034 270.397126 
L 78.171095 266.872763 
L 78.894157 264.900414 
L 79.617218 260.82638 
L 80.340279 259.66237 
L 81.063341 247.343269 
L 81.786402 245.047583 
L 82.509463 238.483862 
L 83.232525 239.227535 
L 83.955586 234.280494 
L 84.678647 226.197094 
L 85.401709 232.502146 
L 86.12477 226.003092 
L 87.570893 219.827374 
L 88.293954 217.111352 
L 89.017016 212.713982 
L 89.740077 214.589331 
L 90.463138 207.993277 
L 91.1862 211.226637 
L 91.909261 209.836292 
L 92.632322 206.796933 
L 93.355384 209.18962 
L 94.801506 208.898617 
L 95.524568 229.010117 
L 96.247629 228.654447 
L 96.97069 226.649764 
L 97.693752 223.901408 
L 98.416813 218.857366 
L 99.139874 217.111352 
L 99.862936 209.318954 
L 100.585997 215.785674 
L 101.309059 208.02561 
L 102.03212 206.344263 
L 102.755181 208.348946 
L 103.478243 205.826925 
L 104.201304 198.099195 
L 104.924365 206.570598 
L 105.647427 194.801168 
L 106.370488 194.316164 
L 107.093549 190.112796 
L 107.816611 194.413164 
L 108.539672 192.279147 
L 109.262733 195.771176 
L 109.985795 191.794143 
L 110.708856 184.842419 
L 111.431917 186.620767 
L 112.154979 180.348048 
L 112.87804 184.163413 
L 113.601101 177.276356 
L 114.324163 181.867727 
L 115.047224 176.59735 
L 115.770285 174.948337 
L 116.493347 174.88367 
L 117.216408 172.038313 
L 117.93947 172.264648 
L 118.662531 170.777302 
L 119.385592 166.767936 
L 120.108654 169.904295 
L 121.554776 161.109556 
L 122.277838 167.155939 
L 123.000899 164.82792 
L 123.72396 161.756228 
L 124.447022 162.823237 
L 125.893144 162.014897 
L 126.616206 159.654544 
L 128.062328 157.067856 
L 128.78539 158.425867 
L 129.508451 155.839179 
L 130.231512 156.356516 
L 130.954574 154.739836 
L 131.677635 156.259516 
L 132.400696 154.901504 
L 133.123758 154.125498 
L 133.846819 156.097848 
L 134.569881 154.157832 
L 135.292942 154.287166 
L 136.016003 154.707503 
L 136.739065 154.254832 
L 137.462126 152.79982 
L 138.185187 155.515843 
L 138.908249 182.482066 
L 139.63131 175.33634 
L 140.354371 182.029395 
L 141.077433 184.680751 
L 141.800494 180.930053 
L 142.523555 169.968962 
L 143.246617 176.50035 
L 143.969678 175.595009 
L 144.692739 174.948337 
L 145.415801 176.338682 
L 146.138862 179.02237 
L 147.584985 172.264648 
L 148.308046 174.204664 
L 149.031108 170.356966 
L 149.754169 173.848994 
L 150.47723 170.227631 
L 151.200292 170.065963 
L 151.923353 175.595009 
L 152.646414 174.851336 
L 153.369476 166.153597 
L 154.092537 167.576276 
L 154.815598 163.760911 
L 155.53866 165.151256 
L 156.261721 164.439917 
L 156.984782 165.248257 
L 157.707844 167.317607 
L 159.153966 166.347599 
L 159.877028 168.772619 
L 160.600089 166.218265 
L 161.32315 167.673277 
L 162.046212 168.772619 
L 162.769273 159.686877 
L 163.492334 161.529893 
L 164.215396 165.765594 
L 164.938457 164.536917 
L 165.661519 166.864937 
L 166.38458 163.308241 
L 167.107641 160.915554 
L 167.830703 161.820895 
L 168.553764 159.072539 
L 169.999887 161.368225 
L 170.722948 161.109556 
L 171.446009 161.820895 
L 172.169071 161.885562 
L 172.892132 158.393533 
L 173.615193 155.806845 
L 174.338255 156.84152 
L 175.061316 163.566909 
L 175.784377 157.358858 
L 176.507439 161.044889 
L 177.2305 159.104872 
L 177.953561 158.4582 
L 178.676623 158.3612 
L 179.399684 161.788561 
L 180.122745 158.167198 
L 180.845807 160.107214 
L 181.568868 153.769828 
L 182.29193 161.562226 
L 183.014991 157.940863 
L 183.738052 157.55286 
L 184.461114 153.15549 
L 185.184175 153.543493 
L 185.907236 151.312475 
L 186.630298 152.735153 
L 187.353359 155.451176 
L 188.07642 152.508818 
L 188.799482 153.866829 
L 189.522543 151.021472 
L 190.245604 154.707503 
L 190.968666 147.885113 
L 191.691727 151.797479 
L 193.13785 152.864488 
L 193.860911 152.832154 
L 194.583972 149.631128 
L 195.307034 150.051464 
L 196.030095 151.89448 
L 196.753157 149.760462 
L 197.476218 152.217816 
L 198.199279 147.594111 
L 198.922341 152.79982 
L 199.645402 153.187824 
L 200.368463 150.665803 
L 201.091525 150.989139 
L 201.814586 152.508818 
L 202.537647 151.150807 
L 203.260709 146.818104 
L 203.98377 148.919788 
L 204.706831 151.53881 
L 205.429893 149.178457 
L 206.152954 151.053806 
L 206.876015 152.605819 
L 207.599077 150.795137 
L 208.322138 149.46946 
L 209.045199 149.243124 
L 209.768261 150.924472 
L 210.491322 149.598794 
L 211.214383 148.693453 
L 211.937445 148.855121 
L 212.660506 149.243124 
L 213.383568 151.571144 
L 214.106629 149.049123 
L 214.82969 149.307791 
L 215.552752 149.372459 
L 216.275813 151.18314 
L 216.998874 151.571144 
L 218.444997 149.534127 
L 219.168058 152.79982 
L 219.89112 152.735153 
L 220.614181 150.665803 
L 221.337242 151.021472 
L 222.060304 150.504135 
L 222.783365 149.372459 
L 223.506426 151.668144 
L 224.229488 148.176115 
L 224.952549 150.698136 
L 225.67561 170.453966 
L 226.398672 169.548626 
L 227.121733 172.426316 
L 227.844794 176.823686 
L 228.567856 160.43055 
L 230.013979 172.55565 
L 230.73704 158.684536 
L 231.460101 166.703269 
L 232.183163 159.363541 
L 232.906224 164.957254 
L 233.629285 169.257623 
L 234.352347 175.368674 
L 235.075408 159.460542 
L 235.798469 169.936629 
L 236.521531 165.409925 
L 237.244592 163.081905 
L 237.967653 158.878537 
L 238.690715 169.483958 
L 239.413776 159.913213 
L 240.136837 171.973646 
L 240.859899 163.502242 
L 241.58296 161.23889 
L 242.306021 162.693902 
L 243.029083 162.144231 
L 243.752144 159.751545 
L 244.475206 165.539259 
L 245.198267 172.717318 
L 245.921328 172.523317 
L 246.64439 156.809187 
L 247.367451 168.158281 
L 248.090512 157.067856 
L 248.813574 164.245915 
L 249.536635 166.4446 
L 250.259696 169.968962 
L 250.982758 168.158281 
L 251.705819 164.375249 
L 252.42888 171.229973 
L 253.151942 161.044889 
L 253.875003 170.421633 
L 254.598064 155.257174 
L 255.321126 159.007872 
L 256.044187 165.183589 
L 256.767248 161.335891 
L 257.49031 163.502242 
L 258.213371 162.984905 
L 258.936432 163.049572 
L 259.659494 166.670935 
L 260.382555 157.520526 
L 261.105617 154.190165 
L 261.828678 157.843862 
L 262.551739 164.375249 
L 263.997862 156.130181 
L 264.720923 167.026605 
L 265.443985 155.192507 
L 266.167046 170.195298 
L 266.890107 166.864937 
L 267.613169 164.342916 
L 268.33623 162.241232 
L 269.059291 164.82792 
L 269.782353 154.028497 
L 270.505414 166.703269 
L 271.228475 159.945546 
L 271.951537 170.84197 
L 272.674598 160.398217 
L 273.397659 159.395875 
L 274.120721 170.647968 
L 274.843782 167.058938 
L 275.566843 152.282483 
L 276.289905 153.899163 
L 277.012966 155.22484 
L 277.736028 158.619868 
L 278.459089 166.541601 
L 279.18215 161.626893 
L 279.905212 163.405241 
L 280.628273 157.455859 
L 281.351334 156.421184 
L 282.074396 151.829812 
L 282.797457 152.79982 
L 283.520518 162.079564 
L 284.24358 160.915554 
L 284.966641 153.381825 
L 285.689702 161.982563 
L 286.412764 160.495217 
L 287.135825 157.55286 
L 287.858886 162.887904 
L 288.581948 164.278249 
L 289.305009 154.933838 
L 290.02807 153.705161 
L 290.751132 159.298874 
L 291.474193 161.432892 
L 292.197255 159.880879 
L 292.920316 161.497559 
L 293.643377 156.421184 
L 294.366439 159.783878 
L 295.0895 152.993822 
L 295.812561 152.70282 
L 297.258684 165.054255 
L 297.981745 152.605819 
L 298.704807 160.883221 
L 299.427868 161.044889 
L 300.873991 151.247808 
L 301.597052 150.568802 
L 302.320113 148.661119 
L 303.043175 165.377591 
L 303.766236 150.213132 
L 304.489297 153.446492 
L 305.212359 155.257174 
L 305.93542 151.021472 
L 306.658481 156.421184 
L 307.381543 155.677511 
L 308.104604 156.453517 
L 308.827666 153.058489 
L 309.550727 158.846204 
L 310.273788 153.026156 
L 310.99685 150.989139 
L 311.719911 150.019131 
L 312.442972 152.832154 
L 313.166034 163.049572 
L 313.889095 159.686877 
L 314.612156 152.314816 
L 315.335218 161.206557 
L 316.058279 152.056148 
L 316.78134 153.96383 
L 317.504402 152.896821 
L 318.227463 145.557094 
L 318.950524 155.354175 
L 319.673586 153.60816 
L 320.396647 150.116132 
L 321.119708 158.619868 
L 321.84277 156.873854 
L 322.565831 146.527102 
L 323.288892 145.104423 
L 324.011954 151.862146 
L 324.735015 148.952122 
L 325.458077 143.584744 
L 326.181138 149.501793 
L 326.904199 152.993822 
L 327.627261 150.698136 
L 328.350322 147.94978 
L 329.073383 147.691111 
L 329.796445 153.381825 
L 330.519506 151.344808 
L 331.242567 147.464776 
L 331.965629 146.882771 
L 333.411751 154.222499 
L 334.134813 166.573934 
L 334.857874 152.541152 
L 335.580935 150.795137 
L 336.303997 154.901504 
L 337.027058 146.139099 
L 337.750119 147.852779 
L 338.473181 148.596452 
L 339.196242 153.672828 
L 339.919304 149.631128 
L 340.642365 148.628786 
L 341.365426 146.785771 
L 342.088488 155.321841 
L 342.811549 153.996164 
L 343.53461 158.555201 
L 344.257672 147.723445 
L 344.980733 150.051464 
L 345.703794 155.548176 
L 346.426856 149.243124 
L 347.149917 152.282483 
L 347.872978 148.822787 
L 348.59604 149.016789 
L 349.319101 155.160173 
L 350.042162 155.257174 
L 350.765224 154.157832 
L 352.211346 159.298874 
L 352.934408 154.448834 
L 353.657469 144.975089 
L 354.38053 154.513501 
L 355.103592 149.46946 
L 355.826653 155.93618 
L 356.549715 151.603477 
L 357.272776 152.670486 
L 357.995837 149.210791 
L 358.718899 154.739836 
L 359.44196 145.88043 
L 360.165021 154.254832 
L 360.888083 147.400109 
L 361.611144 155.806845 
L 362.334205 146.268433 
L 363.057267 152.34715 
L 363.780328 153.090823 
L 365.226451 151.215474 
L 365.949512 147.270775 
L 367.395635 156.194848 
L 368.118696 147.270775 
L 368.841757 157.908529 
L 369.564819 149.534127 
L 370.28788 159.880879 
L 371.010941 157.488192 
L 371.734003 154.384167 
L 372.457064 146.915105 
L 373.180126 149.695795 
L 373.903187 157.488192 
L 375.34931 142.453068 
L 376.072371 152.023814 
L 376.795432 152.670486 
L 377.518494 155.645177 
L 378.241555 153.96383 
L 378.964616 153.899163 
L 379.687678 155.677511 
L 380.410739 149.11379 
L 381.1338 159.460542 
L 381.856862 153.446492 
L 382.579923 156.615185 
L 383.302984 147.367775 
L 384.026046 156.679852 
L 384.749107 149.760462 
L 385.472168 148.855121 
L 386.19523 151.635811 
L 386.918291 157.391192 
L 387.641353 148.111448 
L 388.364414 158.684536 
L 389.087475 153.769828 
L 389.810537 157.455859 
L 390.533598 148.790454 
L 391.256659 146.915105 
L 391.979721 154.448834 
L 392.702782 160.365883 
L 393.425843 154.028497 
L 394.148905 156.84152 
L 394.871966 144.490085 
L 395.595027 152.79982 
L 396.318089 153.60816 
L 397.04115 156.647519 
L 397.764211 152.79982 
L 398.487273 153.220157 
L 398.487273 153.220157 
" clip-path="url(#pe05df375b2)" style="fill: none; stroke: #d62728; stroke-width: 1.5; stroke-linecap: square"/>
   </g>
   <g id="line2d_23">
    <path d="M 351.488285 65.014095 
L 352.211346 65.887102 
L 353.657469 66.339772 
L 354.38053 64.302755 
L 355.103592 67.794784 
L 355.826653 65.014095 
L 356.549715 69.055795 
L 357.272776 66.695442 
L 357.995837 69.443798 
L 358.718899 67.730117 
L 360.165021 69.799468 
L 360.888083 68.11812 
L 361.611144 68.82946 
L 362.334205 68.11812 
L 363.057267 66.727775 
L 363.780328 69.152796 
L 364.503389 68.150454 
L 365.226451 69.928802 
L 365.949512 67.083445 
L 366.672573 70.349139 
L 367.395635 70.963477 
L 368.118696 75.134512 
L 368.841757 71.416148 
L 369.564819 71.771817 
L 370.28788 73.550165 
L 371.010941 71.416148 
L 371.734003 73.065161 
L 372.457064 71.965819 
L 373.180126 71.383814 
L 373.903187 73.162162 
L 374.626248 74.326172 
L 375.34931 73.873501 
L 376.072371 75.490181 
L 376.795432 74.649508 
L 377.518494 81.859901 
L 378.241555 75.522515 
L 378.964616 76.363188 
L 379.687678 80.016885 
L 380.410739 79.143878 
L 381.1338 78.885209 
L 381.856862 79.079211 
L 382.579923 81.471897 
L 383.302984 81.795233 
L 384.749107 85.481264 
L 385.472168 82.991577 
L 386.918291 82.959243 
L 387.641353 79.855217 
L 388.364414 80.825225 
L 389.087475 78.885209 
L 389.810537 84.446589 
L 390.533598 88.132619 
L 391.256659 86.25727 
L 391.979721 83.314913 
L 392.702782 81.083894 
L 393.425843 82.441905 
L 394.148905 89.134961 
L 394.871966 88.488289 
L 395.595027 88.585289 
L 396.318089 87.744616 
L 397.04115 86.709941 
L 397.764211 84.866925 
L 398.487273 89.134961 
L 398.487273 89.134961 
" clip-path="url(#pe05df375b2)" style="fill: none; stroke: #9467bd; stroke-width: 1.5; stroke-linecap: square"/>
   </g>
   <g id="line2d_24">
    <path d="M 351.488285 111.471904 
L 352.211346 110.925578 
L 352.934408 111.471904 
L 353.657469 109.364645 
L 354.38053 109.398094 
L 355.103592 111.449605 
L 355.826653 111.048222 
L 356.549715 116.823672 
L 357.272776 115.062049 
L 357.995837 117.626438 
L 359.44196 117.247354 
L 360.165021 121.72946 
L 360.888083 113.222378 
L 361.611144 109.01901 
L 362.334205 111.460754 
L 363.057267 109.587636 
L 363.780328 113.17778 
L 364.503389 111.940184 
L 365.226451 112.653753 
L 365.949512 109.353496 
L 366.672573 118.574147 
L 367.395635 111.817539 
L 368.118696 112.832145 
L 368.841757 108.294292 
L 369.564819 113.857901 
L 370.28788 114.493423 
L 371.010941 112.408463 
L 371.734003 116.600682 
L 372.457064 113.857901 
L 373.180126 115.429983 
L 373.903187 112.453062 
L 374.626248 113.333873 
L 375.34931 114.861357 
L 376.072371 109.95557 
L 376.795432 110.691438 
L 377.518494 119.276566 
L 378.241555 112.062828 
L 378.964616 115.329637 
L 379.687678 121.551068 
L 380.410739 121.785208 
L 381.1338 121.684862 
L 381.856862 121.03819 
L 382.579923 124.416494 
L 383.302984 126.980883 
L 384.749107 133.726341 
L 385.472168 128.965497 
L 386.19523 129.645617 
L 386.918291 128.185031 
L 387.641353 122.788664 
L 388.364414 126.323061 
L 389.087475 118.919782 
L 389.810537 125.988576 
L 390.533598 127.293069 
L 391.256659 129.478375 
L 391.979721 129.667916 
L 392.702782 123.758672 
L 393.425843 124.851325 
L 394.148905 131.652531 
L 394.871966 126.668696 
L 395.595027 130.348037 
L 396.318089 128.820553 
L 397.04115 125.252708 
L 397.764211 120.257724 
L 398.487273 129.902056 
L 398.487273 129.902056 
" clip-path="url(#pe05df375b2)" style="fill: none; stroke: #8c564b; stroke-width: 1.5; stroke-linecap: square"/>
   </g>
   <g id="line2d_25">
    <path d="M 351.488285 153.478826 
L 352.211346 155.160173 
L 352.934408 164.407583 
L 353.657469 150.698136 
L 354.38053 161.756228 
L 355.103592 155.742178 
L 355.826653 162.04723 
L 356.549715 158.910871 
L 357.272776 150.180799 
L 357.995837 156.74452 
L 358.718899 157.423525 
L 359.44196 160.365883 
L 360.165021 160.495217 
L 360.888083 158.037864 
L 361.611144 158.167198 
L 362.334205 156.647519 
L 363.057267 147.303108 
L 363.780328 167.155939 
L 364.503389 163.243573 
L 365.226451 157.908529 
L 365.949512 165.28059 
L 366.672573 167.479275 
L 367.395635 162.144231 
L 368.118696 177.696693 
L 368.841757 176.274014 
L 369.564819 165.571593 
L 371.010941 173.428658 
L 371.734003 172.717318 
L 372.457064 184.066412 
L 373.180126 179.992379 
L 373.903187 178.860702 
L 374.626248 187.138104 
L 375.34931 175.498008 
L 376.072371 191.147471 
L 376.795432 170.13063 
L 377.518494 202.108561 
L 378.241555 178.21403 
L 378.964616 178.052362 
L 379.687678 184.292747 
L 380.410739 193.410823 
L 381.1338 184.616083 
L 381.856862 206.279596 
L 382.579923 191.761809 
L 383.302984 196.029844 
L 384.026046 198.6812 
L 384.749107 198.196196 
L 385.472168 192.570149 
L 386.19523 194.510165 
L 386.918291 197.775859 
L 387.641353 182.740735 
L 388.364414 196.320847 
L 389.087475 189.304455 
L 389.810537 203.563573 
L 390.533598 202.884568 
L 391.256659 200.265546 
L 391.979721 208.898617 
L 392.702782 195.641841 
L 393.425843 188.237447 
L 394.148905 203.078569 
L 394.871966 200.394881 
L 395.595027 210.870967 
L 396.318089 206.150261 
L 397.04115 212.487647 
L 397.764211 209.868626 
L 398.487273 214.621665 
L 398.487273 214.621665 
" clip-path="url(#pe05df375b2)" style="fill: none; stroke: #e377c2; stroke-width: 1.5; stroke-linecap: square"/>
   </g>
   <g id="patch_3">
    <path d="M 57.6 307.584 
L 57.6 41.472 
" style="fill: none; stroke: #000000; stroke-width: 0.8; stroke-linejoin: miter; stroke-linecap: square"/>
   </g>
   <g id="patch_4">
    <path d="M 414.72 307.584 
L 414.72 41.472 
" style="fill: none; stroke: #000000; stroke-width: 0.8; stroke-linejoin: miter; stroke-linecap: square"/>
   </g>
   <g id="patch_5">
    <path d="M 57.6 307.584 
L 414.72 307.584 
" style="fill: none; stroke: #000000; stroke-width: 0.8; stroke-linejoin: miter; stroke-linecap: square"/>
   </g>
   <g id="patch_6">
    <path d="M 57.6 41.472 
L 414.72 41.472 
" style="fill: none; stroke: #000000; stroke-width: 0.8; stroke-linejoin: miter; stroke-linecap: square"/>
   </g>
   <g id="text_21">
    <!-- Learning Curves -->
    <g transform="translate(187.37625 35.472) scale(0.12 -0.12)">
     <defs>
      <path id="DejaVuSans-4c" d="M 628 4666 
L 1259 4666 
L 1259 531 
L 3531 531 
L 3531 0 
L 628 0 
L 628 4666 
z
" transform="scale(0.015625)"/>
      <path id="DejaVuSans-65" d="M 3597 1894 
L 3597 1613 
L 953 1613 
Q 991 1019 1311 708 
Q 1631 397 2203 397 
Q 2534 397 2845 478 
Q 3156 559 3463 722 
L 3463 178 
Q 3153 47 2828 -22 
Q 2503 -91 2169 -91 
Q 1331 -91 842 396 
Q 353 884 353 1716 
Q 353 2575 817 3079 
Q 1281 3584 2069 3584 
Q 2775 3584 3186 3129 
Q 3597 2675 3597 1894 
z
M 3022 2063 
Q 3016 2534 2758 2815 
Q 2500 3097 2075 3097 
Q 1594 3097 1305 2825 
Q 1016 2553 972 2059 
L 3022 2063 
z
" transform="scale(0.015625)"/>
      <path id="DejaVuSans-6e" d="M 3513 2113 
L 3513 0 
L 2938 0 
L 2938 2094 
Q 2938 2591 2744 2837 
Q 2550 3084 2163 3084 
Q 1697 3084 1428 2787 
Q 1159 2491 1159 1978 
L 1159 0 
L 581 0 
L 581 3500 
L 1159 3500 
L 1159 2956 
Q 1366 3272 1645 3428 
Q 1925 3584 2291 3584 
Q 2894 3584 3203 3211 
Q 3513 2838 3513 2113 
z
" transform="scale(0.015625)"/>
      <path id="DejaVuSans-69" d="M 603 3500 
L 1178 3500 
L 1178 0 
L 603 0 
L 603 3500 
z
M 603 4863 
L 1178 4863 
L 1178 4134 
L 603 4134 
L 603 4863 
z
" transform="scale(0.015625)"/>
      <path id="DejaVuSans-67" d="M 2906 1791 
Q 2906 2416 2648 2759 
Q 2391 3103 1925 3103 
Q 1463 3103 1205 2759 
Q 947 2416 947 1791 
Q 947 1169 1205 825 
Q 1463 481 1925 481 
Q 2391 481 2648 825 
Q 2906 1169 2906 1791 
z
M 3481 434 
Q 3481 -459 3084 -895 
Q 2688 -1331 1869 -1331 
Q 1566 -1331 1297 -1286 
Q 1028 -1241 775 -1147 
L 775 -588 
Q 1028 -725 1275 -790 
Q 1522 -856 1778 -856 
Q 2344 -856 2625 -561 
Q 2906 -266 2906 331 
L 2906 616 
Q 2728 306 2450 153 
Q 2172 0 1784 0 
Q 1141 0 747 490 
Q 353 981 353 1791 
Q 353 2603 747 3093 
Q 1141 3584 1784 3584 
Q 2172 3584 2450 3431 
Q 2728 3278 2906 2969 
L 2906 3500 
L 3481 3500 
L 3481 434 
z
" transform="scale(0.015625)"/>
      <path id="DejaVuSans-20" transform="scale(0.015625)"/>
      <path id="DejaVuSans-43" d="M 4122 4306 
L 4122 3641 
Q 3803 3938 3442 4084 
Q 3081 4231 2675 4231 
Q 1875 4231 1450 3742 
Q 1025 3253 1025 2328 
Q 1025 1406 1450 917 
Q 1875 428 2675 428 
Q 3081 428 3442 575 
Q 3803 722 4122 1019 
L 4122 359 
Q 3791 134 3420 21 
Q 3050 -91 2638 -91 
Q 1578 -91 968 557 
Q 359 1206 359 2328 
Q 359 3453 968 4101 
Q 1578 4750 2638 4750 
Q 3056 4750 3426 4639 
Q 3797 4528 4122 4306 
z
" transform="scale(0.015625)"/>
      <path id="DejaVuSans-76" d="M 191 3500 
L 800 3500 
L 1894 563 
L 2988 3500 
L 3597 3500 
L 2284 0 
L 1503 0 
L 191 3500 
z
" transform="scale(0.015625)"/>
     </defs>
     <use xlink:href="#DejaVuSans-4c"/>
     <use xlink:href="#DejaVuSans-65" x="53.962891"/>
     <use xlink:href="#DejaVuSans-61" x="115.486328"/>
     <use xlink:href="#DejaVuSans-72" x="176.765625"/>
     <use xlink:href="#DejaVuSans-6e" x="216.128906"/>
     <use xlink:href="#DejaVuSans-69" x="279.507812"/>
     <use xlink:href="#DejaVuSans-6e" x="307.291016"/>
     <use xlink:href="#DejaVuSans-67" x="370.669922"/>
     <use xlink:href="#DejaVuSans-20" x="434.146484"/>
     <use xlink:href="#DejaVuSans-43" x="465.933594"/>
     <use xlink:href="#DejaVuSans-75" x="535.757812"/>
     <use xlink:href="#DejaVuSans-72" x="599.136719"/>
     <use xlink:href="#DejaVuSans-76" x="640.25"/>
     <use xlink:href="#DejaVuSans-65" x="699.429688"/>
     <use xlink:href="#DejaVuSans-73" x="760.953125"/>
    </g>
   </g>
   <g id="legend_1">
    <g id="patch_7">
     <path d="M 128.445937 302.584 
L 343.874063 302.584 
Q 345.874063 302.584 345.874063 300.584 
L 345.874063 198.837125 
Q 345.874063 196.837125 343.874063 196.837125 
L 128.445937 196.837125 
Q 126.445937 196.837125 126.445937 198.837125 
L 126.445937 300.584 
Q 126.445937 302.584 128.445937 302.584 
z
" style="fill: #ffffff; opacity: 0.8; stroke: #cccccc; stroke-linejoin: miter"/>
    </g>
    <g id="line2d_26">
     <path d="M 130.445937 204.935563 
L 140.445937 204.935563 
L 150.445937 204.935563 
" style="fill: none; stroke: #1f77b4; stroke-width: 1.5; stroke-linecap: square"/>
    </g>
    <g id="text_22">
     <!-- Train Accuracy -->
     <g transform="translate(158.445937 208.435563) scale(0.1 -0.1)">
      <defs>
       <path id="DejaVuSans-54" d="M -19 4666 
L 3928 4666 
L 3928 4134 
L 2272 4134 
L 2272 0 
L 1638 0 
L 1638 4134 
L -19 4134 
L -19 4666 
z
" transform="scale(0.015625)"/>
      </defs>
      <use xlink:href="#DejaVuSans-54"/>
      <use xlink:href="#DejaVuSans-72" x="46.333984"/>
      <use xlink:href="#DejaVuSans-61" x="87.447266"/>
      <use xlink:href="#DejaVuSans-69" x="148.726562"/>
      <use xlink:href="#DejaVuSans-6e" x="176.509766"/>
      <use xlink:href="#DejaVuSans-20" x="239.888672"/>
      <use xlink:href="#DejaVuSans-41" x="271.675781"/>
      <use xlink:href="#DejaVuSans-63" x="338.333984"/>
      <use xlink:href="#DejaVuSans-63" x="393.314453"/>
      <use xlink:href="#DejaVuSans-75" x="448.294922"/>
      <use xlink:href="#DejaVuSans-72" x="511.673828"/>
      <use xlink:href="#DejaVuSans-61" x="552.787109"/>
      <use xlink:href="#DejaVuSans-63" x="614.066406"/>
      <use xlink:href="#DejaVuSans-79" x="669.046875"/>
     </g>
    </g>
    <g id="line2d_27">
     <path d="M 130.445937 219.613688 
L 140.445937 219.613688 
L 150.445937 219.613688 
" style="fill: none; stroke: #ff7f0e; stroke-width: 1.5; stroke-linecap: square"/>
    </g>
    <g id="text_23">
     <!-- Validation Accuracy -->
     <g transform="translate(158.445937 223.113688) scale(0.1 -0.1)">
      <defs>
       <path id="DejaVuSans-56" d="M 1831 0 
L 50 4666 
L 709 4666 
L 2188 738 
L 3669 4666 
L 4325 4666 
L 2547 0 
L 1831 0 
z
" transform="scale(0.015625)"/>
       <path id="DejaVuSans-6c" d="M 603 4863 
L 1178 4863 
L 1178 0 
L 603 0 
L 603 4863 
z
" transform="scale(0.015625)"/>
       <path id="DejaVuSans-64" d="M 2906 2969 
L 2906 4863 
L 3481 4863 
L 3481 0 
L 2906 0 
L 2906 525 
Q 2725 213 2448 61 
Q 2172 -91 1784 -91 
Q 1150 -91 751 415 
Q 353 922 353 1747 
Q 353 2572 751 3078 
Q 1150 3584 1784 3584 
Q 2172 3584 2448 3432 
Q 2725 3281 2906 2969 
z
M 947 1747 
Q 947 1113 1208 752 
Q 1469 391 1925 391 
Q 2381 391 2643 752 
Q 2906 1113 2906 1747 
Q 2906 2381 2643 2742 
Q 2381 3103 1925 3103 
Q 1469 3103 1208 2742 
Q 947 2381 947 1747 
z
" transform="scale(0.015625)"/>
       <path id="DejaVuSans-74" d="M 1172 4494 
L 1172 3500 
L 2356 3500 
L 2356 3053 
L 1172 3053 
L 1172 1153 
Q 1172 725 1289 603 
Q 1406 481 1766 481 
L 2356 481 
L 2356 0 
L 1766 0 
Q 1100 0 847 248 
Q 594 497 594 1153 
L 594 3053 
L 172 3053 
L 172 3500 
L 594 3500 
L 594 4494 
L 1172 4494 
z
" transform="scale(0.015625)"/>
      </defs>
      <use xlink:href="#DejaVuSans-56"/>
      <use xlink:href="#DejaVuSans-61" x="60.658203"/>
      <use xlink:href="#DejaVuSans-6c" x="121.9375"/>
      <use xlink:href="#DejaVuSans-69" x="149.720703"/>
      <use xlink:href="#DejaVuSans-64" x="177.503906"/>
      <use xlink:href="#DejaVuSans-61" x="240.980469"/>
      <use xlink:href="#DejaVuSans-74" x="302.259766"/>
      <use xlink:href="#DejaVuSans-69" x="341.46875"/>
      <use xlink:href="#DejaVuSans-6f" x="369.251953"/>
      <use xlink:href="#DejaVuSans-6e" x="430.433594"/>
      <use xlink:href="#DejaVuSans-20" x="493.8125"/>
      <use xlink:href="#DejaVuSans-41" x="525.599609"/>
      <use xlink:href="#DejaVuSans-63" x="592.257812"/>
      <use xlink:href="#DejaVuSans-63" x="647.238281"/>
      <use xlink:href="#DejaVuSans-75" x="702.21875"/>
      <use xlink:href="#DejaVuSans-72" x="765.597656"/>
      <use xlink:href="#DejaVuSans-61" x="806.710938"/>
      <use xlink:href="#DejaVuSans-63" x="867.990234"/>
      <use xlink:href="#DejaVuSans-79" x="922.970703"/>
     </g>
    </g>
    <g id="line2d_28">
     <path d="M 130.445937 234.291812 
L 140.445937 234.291812 
L 150.445937 234.291812 
" style="fill: none; stroke: #2ca02c; stroke-width: 1.5; stroke-linecap: square"/>
    </g>
    <g id="text_24">
     <!-- Robust Validation Accuracy -->
     <g transform="translate(158.445937 237.791812) scale(0.1 -0.1)">
      <defs>
       <path id="DejaVuSans-52" d="M 2841 2188 
Q 3044 2119 3236 1894 
Q 3428 1669 3622 1275 
L 4263 0 
L 3584 0 
L 2988 1197 
Q 2756 1666 2539 1819 
Q 2322 1972 1947 1972 
L 1259 1972 
L 1259 0 
L 628 0 
L 628 4666 
L 2053 4666 
Q 2853 4666 3247 4331 
Q 3641 3997 3641 3322 
Q 3641 2881 3436 2590 
Q 3231 2300 2841 2188 
z
M 1259 4147 
L 1259 2491 
L 2053 2491 
Q 2509 2491 2742 2702 
Q 2975 2913 2975 3322 
Q 2975 3731 2742 3939 
Q 2509 4147 2053 4147 
L 1259 4147 
z
" transform="scale(0.015625)"/>
       <path id="DejaVuSans-62" d="M 3116 1747 
Q 3116 2381 2855 2742 
Q 2594 3103 2138 3103 
Q 1681 3103 1420 2742 
Q 1159 2381 1159 1747 
Q 1159 1113 1420 752 
Q 1681 391 2138 391 
Q 2594 391 2855 752 
Q 3116 1113 3116 1747 
z
M 1159 2969 
Q 1341 3281 1617 3432 
Q 1894 3584 2278 3584 
Q 2916 3584 3314 3078 
Q 3713 2572 3713 1747 
Q 3713 922 3314 415 
Q 2916 -91 2278 -91 
Q 1894 -91 1617 61 
Q 1341 213 1159 525 
L 1159 0 
L 581 0 
L 581 4863 
L 1159 4863 
L 1159 2969 
z
" transform="scale(0.015625)"/>
      </defs>
      <use xlink:href="#DejaVuSans-52"/>
      <use xlink:href="#DejaVuSans-6f" x="64.982422"/>
      <use xlink:href="#DejaVuSans-62" x="126.164062"/>
      <use xlink:href="#DejaVuSans-75" x="189.640625"/>
      <use xlink:href="#DejaVuSans-73" x="253.019531"/>
      <use xlink:href="#DejaVuSans-74" x="305.119141"/>
      <use xlink:href="#DejaVuSans-20" x="344.328125"/>
      <use xlink:href="#DejaVuSans-56" x="376.115234"/>
      <use xlink:href="#DejaVuSans-61" x="436.773438"/>
      <use xlink:href="#DejaVuSans-6c" x="498.052734"/>
      <use xlink:href="#DejaVuSans-69" x="525.835938"/>
      <use xlink:href="#DejaVuSans-64" x="553.619141"/>
      <use xlink:href="#DejaVuSans-61" x="617.095703"/>
      <use xlink:href="#DejaVuSans-74" x="678.375"/>
      <use xlink:href="#DejaVuSans-69" x="717.583984"/>
      <use xlink:href="#DejaVuSans-6f" x="745.367188"/>
      <use xlink:href="#DejaVuSans-6e" x="806.548828"/>
      <use xlink:href="#DejaVuSans-20" x="869.927734"/>
      <use xlink:href="#DejaVuSans-41" x="901.714844"/>
      <use xlink:href="#DejaVuSans-63" x="968.373047"/>
      <use xlink:href="#DejaVuSans-63" x="1023.353516"/>
      <use xlink:href="#DejaVuSans-75" x="1078.333984"/>
      <use xlink:href="#DejaVuSans-72" x="1141.712891"/>
      <use xlink:href="#DejaVuSans-61" x="1182.826172"/>
      <use xlink:href="#DejaVuSans-63" x="1244.105469"/>
      <use xlink:href="#DejaVuSans-79" x="1299.085938"/>
     </g>
    </g>
    <g id="line2d_29">
     <path d="M 130.445937 248.969938 
L 140.445937 248.969938 
L 150.445937 248.969938 
" style="fill: none; stroke: #d62728; stroke-width: 1.5; stroke-linecap: square"/>
    </g>
    <g id="text_25">
     <!-- Adversarial Validation Accuracy -->
     <g transform="translate(158.445937 252.469938) scale(0.1 -0.1)">
      <use xlink:href="#DejaVuSans-41"/>
      <use xlink:href="#DejaVuSans-64" x="66.658203"/>
      <use xlink:href="#DejaVuSans-76" x="130.134766"/>
      <use xlink:href="#DejaVuSans-65" x="189.314453"/>
      <use xlink:href="#DejaVuSans-72" x="250.837891"/>
      <use xlink:href="#DejaVuSans-73" x="291.951172"/>
      <use xlink:href="#DejaVuSans-61" x="344.050781"/>
      <use xlink:href="#DejaVuSans-72" x="405.330078"/>
      <use xlink:href="#DejaVuSans-69" x="446.443359"/>
      <use xlink:href="#DejaVuSans-61" x="474.226562"/>
      <use xlink:href="#DejaVuSans-6c" x="535.505859"/>
      <use xlink:href="#DejaVuSans-20" x="563.289062"/>
      <use xlink:href="#DejaVuSans-56" x="595.076172"/>
      <use xlink:href="#DejaVuSans-61" x="655.734375"/>
      <use xlink:href="#DejaVuSans-6c" x="717.013672"/>
      <use xlink:href="#DejaVuSans-69" x="744.796875"/>
      <use xlink:href="#DejaVuSans-64" x="772.580078"/>
      <use xlink:href="#DejaVuSans-61" x="836.056641"/>
      <use xlink:href="#DejaVuSans-74" x="897.335938"/>
      <use xlink:href="#DejaVuSans-69" x="936.544922"/>
      <use xlink:href="#DejaVuSans-6f" x="964.328125"/>
      <use xlink:href="#DejaVuSans-6e" x="1025.509766"/>
      <use xlink:href="#DejaVuSans-20" x="1088.888672"/>
      <use xlink:href="#DejaVuSans-41" x="1120.675781"/>
      <use xlink:href="#DejaVuSans-63" x="1187.333984"/>
      <use xlink:href="#DejaVuSans-63" x="1242.314453"/>
      <use xlink:href="#DejaVuSans-75" x="1297.294922"/>
      <use xlink:href="#DejaVuSans-72" x="1360.673828"/>
      <use xlink:href="#DejaVuSans-61" x="1401.787109"/>
      <use xlink:href="#DejaVuSans-63" x="1463.066406"/>
      <use xlink:href="#DejaVuSans-79" x="1518.046875"/>
     </g>
    </g>
    <g id="line2d_30">
     <path d="M 130.445937 263.648063 
L 140.445937 263.648063 
L 150.445937 263.648063 
" style="fill: none; stroke: #9467bd; stroke-width: 1.5; stroke-linecap: square"/>
    </g>
    <g id="text_26">
     <!-- SWA Validation Accuracy -->
     <g transform="translate(158.445937 267.148063) scale(0.1 -0.1)">
      <defs>
       <path id="DejaVuSans-53" d="M 3425 4513 
L 3425 3897 
Q 3066 4069 2747 4153 
Q 2428 4238 2131 4238 
Q 1616 4238 1336 4038 
Q 1056 3838 1056 3469 
Q 1056 3159 1242 3001 
Q 1428 2844 1947 2747 
L 2328 2669 
Q 3034 2534 3370 2195 
Q 3706 1856 3706 1288 
Q 3706 609 3251 259 
Q 2797 -91 1919 -91 
Q 1588 -91 1214 -16 
Q 841 59 441 206 
L 441 856 
Q 825 641 1194 531 
Q 1563 422 1919 422 
Q 2459 422 2753 634 
Q 3047 847 3047 1241 
Q 3047 1584 2836 1778 
Q 2625 1972 2144 2069 
L 1759 2144 
Q 1053 2284 737 2584 
Q 422 2884 422 3419 
Q 422 4038 858 4394 
Q 1294 4750 2059 4750 
Q 2388 4750 2728 4690 
Q 3069 4631 3425 4513 
z
" transform="scale(0.015625)"/>
       <path id="DejaVuSans-57" d="M 213 4666 
L 850 4666 
L 1831 722 
L 2809 4666 
L 3519 4666 
L 4500 722 
L 5478 4666 
L 6119 4666 
L 4947 0 
L 4153 0 
L 3169 4050 
L 2175 0 
L 1381 0 
L 213 4666 
z
" transform="scale(0.015625)"/>
      </defs>
      <use xlink:href="#DejaVuSans-53"/>
      <use xlink:href="#DejaVuSans-57" x="63.476562"/>
      <use xlink:href="#DejaVuSans-41" x="156.853516"/>
      <use xlink:href="#DejaVuSans-20" x="225.261719"/>
      <use xlink:href="#DejaVuSans-56" x="257.048828"/>
      <use xlink:href="#DejaVuSans-61" x="317.707031"/>
      <use xlink:href="#DejaVuSans-6c" x="378.986328"/>
      <use xlink:href="#DejaVuSans-69" x="406.769531"/>
      <use xlink:href="#DejaVuSans-64" x="434.552734"/>
      <use xlink:href="#DejaVuSans-61" x="498.029297"/>
      <use xlink:href="#DejaVuSans-74" x="559.308594"/>
      <use xlink:href="#DejaVuSans-69" x="598.517578"/>
      <use xlink:href="#DejaVuSans-6f" x="626.300781"/>
      <use xlink:href="#DejaVuSans-6e" x="687.482422"/>
      <use xlink:href="#DejaVuSans-20" x="750.861328"/>
      <use xlink:href="#DejaVuSans-41" x="782.648438"/>
      <use xlink:href="#DejaVuSans-63" x="849.306641"/>
      <use xlink:href="#DejaVuSans-63" x="904.287109"/>
      <use xlink:href="#DejaVuSans-75" x="959.267578"/>
      <use xlink:href="#DejaVuSans-72" x="1022.646484"/>
      <use xlink:href="#DejaVuSans-61" x="1063.759766"/>
      <use xlink:href="#DejaVuSans-63" x="1125.039062"/>
      <use xlink:href="#DejaVuSans-79" x="1180.019531"/>
     </g>
    </g>
    <g id="line2d_31">
     <path d="M 130.445937 278.326188 
L 140.445937 278.326188 
L 150.445937 278.326188 
" style="fill: none; stroke: #8c564b; stroke-width: 1.5; stroke-linecap: square"/>
    </g>
    <g id="text_27">
     <!-- SWA Robust Validation Accuracy -->
     <g transform="translate(158.445937 281.826188) scale(0.1 -0.1)">
      <use xlink:href="#DejaVuSans-53"/>
      <use xlink:href="#DejaVuSans-57" x="63.476562"/>
      <use xlink:href="#DejaVuSans-41" x="156.853516"/>
      <use xlink:href="#DejaVuSans-20" x="225.261719"/>
      <use xlink:href="#DejaVuSans-52" x="257.048828"/>
      <use xlink:href="#DejaVuSans-6f" x="322.03125"/>
      <use xlink:href="#DejaVuSans-62" x="383.212891"/>
      <use xlink:href="#DejaVuSans-75" x="446.689453"/>
      <use xlink:href="#DejaVuSans-73" x="510.068359"/>
      <use xlink:href="#DejaVuSans-74" x="562.167969"/>
      <use xlink:href="#DejaVuSans-20" x="601.376953"/>
      <use xlink:href="#DejaVuSans-56" x="633.164062"/>
      <use xlink:href="#DejaVuSans-61" x="693.822266"/>
      <use xlink:href="#DejaVuSans-6c" x="755.101562"/>
      <use xlink:href="#DejaVuSans-69" x="782.884766"/>
      <use xlink:href="#DejaVuSans-64" x="810.667969"/>
      <use xlink:href="#DejaVuSans-61" x="874.144531"/>
      <use xlink:href="#DejaVuSans-74" x="935.423828"/>
      <use xlink:href="#DejaVuSans-69" x="974.632812"/>
      <use xlink:href="#DejaVuSans-6f" x="1002.416016"/>
      <use xlink:href="#DejaVuSans-6e" x="1063.597656"/>
      <use xlink:href="#DejaVuSans-20" x="1126.976562"/>
      <use xlink:href="#DejaVuSans-41" x="1158.763672"/>
      <use xlink:href="#DejaVuSans-63" x="1225.421875"/>
      <use xlink:href="#DejaVuSans-63" x="1280.402344"/>
      <use xlink:href="#DejaVuSans-75" x="1335.382812"/>
      <use xlink:href="#DejaVuSans-72" x="1398.761719"/>
      <use xlink:href="#DejaVuSans-61" x="1439.875"/>
      <use xlink:href="#DejaVuSans-63" x="1501.154297"/>
      <use xlink:href="#DejaVuSans-79" x="1556.134766"/>
     </g>
    </g>
    <g id="line2d_32">
     <path d="M 130.445937 293.004312 
L 140.445937 293.004312 
L 150.445937 293.004312 
" style="fill: none; stroke: #e377c2; stroke-width: 1.5; stroke-linecap: square"/>
    </g>
    <g id="text_28">
     <!-- SWA Adversarial Validation Accuracy -->
     <g transform="translate(158.445937 296.504312) scale(0.1 -0.1)">
      <use xlink:href="#DejaVuSans-53"/>
      <use xlink:href="#DejaVuSans-57" x="63.476562"/>
      <use xlink:href="#DejaVuSans-41" x="156.853516"/>
      <use xlink:href="#DejaVuSans-20" x="225.261719"/>
      <use xlink:href="#DejaVuSans-41" x="257.048828"/>
      <use xlink:href="#DejaVuSans-64" x="323.707031"/>
      <use xlink:href="#DejaVuSans-76" x="387.183594"/>
      <use xlink:href="#DejaVuSans-65" x="446.363281"/>
      <use xlink:href="#DejaVuSans-72" x="507.886719"/>
      <use xlink:href="#DejaVuSans-73" x="549"/>
      <use xlink:href="#DejaVuSans-61" x="601.099609"/>
      <use xlink:href="#DejaVuSans-72" x="662.378906"/>
      <use xlink:href="#DejaVuSans-69" x="703.492188"/>
      <use xlink:href="#DejaVuSans-61" x="731.275391"/>
      <use xlink:href="#DejaVuSans-6c" x="792.554688"/>
      <use xlink:href="#DejaVuSans-20" x="820.337891"/>
      <use xlink:href="#DejaVuSans-56" x="852.125"/>
      <use xlink:href="#DejaVuSans-61" x="912.783203"/>
      <use xlink:href="#DejaVuSans-6c" x="974.0625"/>
      <use xlink:href="#DejaVuSans-69" x="1001.845703"/>
      <use xlink:href="#DejaVuSans-64" x="1029.628906"/>
      <use xlink:href="#DejaVuSans-61" x="1093.105469"/>
      <use xlink:href="#DejaVuSans-74" x="1154.384766"/>
      <use xlink:href="#DejaVuSans-69" x="1193.59375"/>
      <use xlink:href="#DejaVuSans-6f" x="1221.376953"/>
      <use xlink:href="#DejaVuSans-6e" x="1282.558594"/>
      <use xlink:href="#DejaVuSans-20" x="1345.9375"/>
      <use xlink:href="#DejaVuSans-41" x="1377.724609"/>
      <use xlink:href="#DejaVuSans-63" x="1444.382812"/>
      <use xlink:href="#DejaVuSans-63" x="1499.363281"/>
      <use xlink:href="#DejaVuSans-75" x="1554.34375"/>
      <use xlink:href="#DejaVuSans-72" x="1617.722656"/>
      <use xlink:href="#DejaVuSans-61" x="1658.835938"/>
      <use xlink:href="#DejaVuSans-63" x="1720.115234"/>
      <use xlink:href="#DejaVuSans-79" x="1775.095703"/>
     </g>
    </g>
   </g>
  </g>
 </g>
 <defs>
  <clipPath id="pe05df375b2">
   <rect x="57.6" y="41.472" width="357.12" height="266.112"/>
  </clipPath>
 </defs>
</svg>
