<?xml version="1.0" encoding="utf-8" standalone="no"?>
<!DOCTYPE svg PUBLIC "-//W3C//DTD SVG 1.1//EN"
  "http://www.w3.org/Graphics/SVG/1.1/DTD/svg11.dtd">
<svg xmlns:xlink="http://www.w3.org/1999/xlink" width="460.8pt" height="345.6pt" viewBox="0 0 460.8 345.6" xmlns="http://www.w3.org/2000/svg" version="1.1">
 <metadata>
  <rdf:RDF xmlns:dc="http://purl.org/dc/elements/1.1/" xmlns:cc="http://creativecommons.org/ns#" xmlns:rdf="http://www.w3.org/1999/02/22-rdf-syntax-ns#">
   <cc:Work>
    <dc:type rdf:resource="http://purl.org/dc/dcmitype/StillImage"/>
    <dc:date>2024-08-20T08:14:27.005144</dc:date>
    <dc:format>image/svg+xml</dc:format>
    <dc:creator>
     <cc:Agent>
      <dc:title>Matplotlib v3.9.1, https://matplotlib.org/</dc:title>
     </cc:Agent>
    </dc:creator>
   </cc:Work>
  </rdf:RDF>
 </metadata>
 <defs>
  <style type="text/css">*{stroke-linejoin: round; stroke-linecap: butt}</style>
 </defs>
 <g id="figure_1">
  <g id="patch_1">
   <path d="M 0 345.6 
L 460.8 345.6 
L 460.8 0 
L 0 0 
z
" style="fill: #ffffff"/>
  </g>
  <g id="axes_1">
   <g id="patch_2">
    <path d="M 57.6 307.584 
L 414.72 307.584 
L 414.72 41.472 
L 57.6 41.472 
z
" style="fill: #ffffff"/>
   </g>
   <g id="matplotlib.axis_1">
    <g id="xtick_1">
     <g id="line2d_1">
      <defs>
       <path id="m231142f380" d="M 0 0 
L 0 3.5 
" style="stroke: #000000; stroke-width: 0.8"/>
      </defs>
      <g>
       <use xlink:href="#m231142f380" x="73.832727" y="307.584" style="stroke: #000000; stroke-width: 0.8"/>
      </g>
     </g>
     <g id="text_1">
      <!-- 1 -->
      <g transform="translate(70.651477 322.182437) scale(0.1 -0.1)">
       <defs>
        <path id="DejaVuSans-31" d="M 794 531 
L 1825 531 
L 1825 4091 
L 703 3866 
L 703 4441 
L 1819 4666 
L 2450 4666 
L 2450 531 
L 3481 531 
L 3481 0 
L 794 0 
L 794 531 
z
" transform="scale(0.015625)"/>
       </defs>
       <use xlink:href="#DejaVuSans-31"/>
      </g>
     </g>
    </g>
    <g id="xtick_2">
     <g id="line2d_2">
      <g>
       <use xlink:href="#m231142f380" x="109.262733" y="307.584" style="stroke: #000000; stroke-width: 0.8"/>
      </g>
     </g>
     <g id="text_2">
      <!-- 50 -->
      <g transform="translate(102.900233 322.182437) scale(0.1 -0.1)">
       <defs>
        <path id="DejaVuSans-35" d="M 691 4666 
L 3169 4666 
L 3169 4134 
L 1269 4134 
L 1269 2991 
Q 1406 3038 1543 3061 
Q 1681 3084 1819 3084 
Q 2600 3084 3056 2656 
Q 3513 2228 3513 1497 
Q 3513 744 3044 326 
Q 2575 -91 1722 -91 
Q 1428 -91 1123 -41 
Q 819 9 494 109 
L 494 744 
Q 775 591 1075 516 
Q 1375 441 1709 441 
Q 2250 441 2565 725 
Q 2881 1009 2881 1497 
Q 2881 1984 2565 2268 
Q 2250 2553 1709 2553 
Q 1456 2553 1204 2497 
Q 953 2441 691 2322 
L 691 4666 
z
" transform="scale(0.015625)"/>
        <path id="DejaVuSans-30" d="M 2034 4250 
Q 1547 4250 1301 3770 
Q 1056 3291 1056 2328 
Q 1056 1369 1301 889 
Q 1547 409 2034 409 
Q 2525 409 2770 889 
Q 3016 1369 3016 2328 
Q 3016 3291 2770 3770 
Q 2525 4250 2034 4250 
z
M 2034 4750 
Q 2819 4750 3233 4129 
Q 3647 3509 3647 2328 
Q 3647 1150 3233 529 
Q 2819 -91 2034 -91 
Q 1250 -91 836 529 
Q 422 1150 422 2328 
Q 422 3509 836 4129 
Q 1250 4750 2034 4750 
z
" transform="scale(0.015625)"/>
       </defs>
       <use xlink:href="#DejaVuSans-35"/>
       <use xlink:href="#DejaVuSans-30" x="63.623047"/>
      </g>
     </g>
    </g>
    <g id="xtick_3">
     <g id="line2d_3">
      <g>
       <use xlink:href="#m231142f380" x="145.415801" y="307.584" style="stroke: #000000; stroke-width: 0.8"/>
      </g>
     </g>
     <g id="text_3">
      <!-- 100 -->
      <g transform="translate(135.872051 322.182437) scale(0.1 -0.1)">
       <use xlink:href="#DejaVuSans-31"/>
       <use xlink:href="#DejaVuSans-30" x="63.623047"/>
       <use xlink:href="#DejaVuSans-30" x="127.246094"/>
      </g>
     </g>
    </g>
    <g id="xtick_4">
     <g id="line2d_4">
      <g>
       <use xlink:href="#m231142f380" x="181.568868" y="307.584" style="stroke: #000000; stroke-width: 0.8"/>
      </g>
     </g>
     <g id="text_4">
      <!-- 150 -->
      <g transform="translate(172.025118 322.182437) scale(0.1 -0.1)">
       <use xlink:href="#DejaVuSans-31"/>
       <use xlink:href="#DejaVuSans-35" x="63.623047"/>
       <use xlink:href="#DejaVuSans-30" x="127.246094"/>
      </g>
     </g>
    </g>
    <g id="xtick_5">
     <g id="line2d_5">
      <g>
       <use xlink:href="#m231142f380" x="217.721936" y="307.584" style="stroke: #000000; stroke-width: 0.8"/>
      </g>
     </g>
     <g id="text_5">
      <!-- 200 -->
      <g transform="translate(208.178186 322.182437) scale(0.1 -0.1)">
       <defs>
        <path id="DejaVuSans-32" d="M 1228 531 
L 3431 531 
L 3431 0 
L 469 0 
L 469 531 
Q 828 903 1448 1529 
Q 2069 2156 2228 2338 
Q 2531 2678 2651 2914 
Q 2772 3150 2772 3378 
Q 2772 3750 2511 3984 
Q 2250 4219 1831 4219 
Q 1534 4219 1204 4116 
Q 875 4013 500 3803 
L 500 4441 
Q 881 4594 1212 4672 
Q 1544 4750 1819 4750 
Q 2544 4750 2975 4387 
Q 3406 4025 3406 3419 
Q 3406 3131 3298 2873 
Q 3191 2616 2906 2266 
Q 2828 2175 2409 1742 
Q 1991 1309 1228 531 
z
" transform="scale(0.015625)"/>
       </defs>
       <use xlink:href="#DejaVuSans-32"/>
       <use xlink:href="#DejaVuSans-30" x="63.623047"/>
       <use xlink:href="#DejaVuSans-30" x="127.246094"/>
      </g>
     </g>
    </g>
    <g id="xtick_6">
     <g id="line2d_6">
      <g>
       <use xlink:href="#m231142f380" x="253.875003" y="307.584" style="stroke: #000000; stroke-width: 0.8"/>
      </g>
     </g>
     <g id="text_6">
      <!-- 250 -->
      <g transform="translate(244.331253 322.182437) scale(0.1 -0.1)">
       <use xlink:href="#DejaVuSans-32"/>
       <use xlink:href="#DejaVuSans-35" x="63.623047"/>
       <use xlink:href="#DejaVuSans-30" x="127.246094"/>
      </g>
     </g>
    </g>
    <g id="xtick_7">
     <g id="line2d_7">
      <g>
       <use xlink:href="#m231142f380" x="290.02807" y="307.584" style="stroke: #000000; stroke-width: 0.8"/>
      </g>
     </g>
     <g id="text_7">
      <!-- 300 -->
      <g transform="translate(280.48432 322.182437) scale(0.1 -0.1)">
       <defs>
        <path id="DejaVuSans-33" d="M 2597 2516 
Q 3050 2419 3304 2112 
Q 3559 1806 3559 1356 
Q 3559 666 3084 287 
Q 2609 -91 1734 -91 
Q 1441 -91 1130 -33 
Q 819 25 488 141 
L 488 750 
Q 750 597 1062 519 
Q 1375 441 1716 441 
Q 2309 441 2620 675 
Q 2931 909 2931 1356 
Q 2931 1769 2642 2001 
Q 2353 2234 1838 2234 
L 1294 2234 
L 1294 2753 
L 1863 2753 
Q 2328 2753 2575 2939 
Q 2822 3125 2822 3475 
Q 2822 3834 2567 4026 
Q 2313 4219 1838 4219 
Q 1578 4219 1281 4162 
Q 984 4106 628 3988 
L 628 4550 
Q 988 4650 1302 4700 
Q 1616 4750 1894 4750 
Q 2613 4750 3031 4423 
Q 3450 4097 3450 3541 
Q 3450 3153 3228 2886 
Q 3006 2619 2597 2516 
z
" transform="scale(0.015625)"/>
       </defs>
       <use xlink:href="#DejaVuSans-33"/>
       <use xlink:href="#DejaVuSans-30" x="63.623047"/>
       <use xlink:href="#DejaVuSans-30" x="127.246094"/>
      </g>
     </g>
    </g>
    <g id="xtick_8">
     <g id="line2d_8">
      <g>
       <use xlink:href="#m231142f380" x="326.181138" y="307.584" style="stroke: #000000; stroke-width: 0.8"/>
      </g>
     </g>
     <g id="text_8">
      <!-- 350 -->
      <g transform="translate(316.637388 322.182437) scale(0.1 -0.1)">
       <use xlink:href="#DejaVuSans-33"/>
       <use xlink:href="#DejaVuSans-35" x="63.623047"/>
       <use xlink:href="#DejaVuSans-30" x="127.246094"/>
      </g>
     </g>
    </g>
    <g id="xtick_9">
     <g id="line2d_9">
      <g>
       <use xlink:href="#m231142f380" x="362.334205" y="307.584" style="stroke: #000000; stroke-width: 0.8"/>
      </g>
     </g>
     <g id="text_9">
      <!-- 400 -->
      <g transform="translate(352.790455 322.182437) scale(0.1 -0.1)">
       <defs>
        <path id="DejaVuSans-34" d="M 2419 4116 
L 825 1625 
L 2419 1625 
L 2419 4116 
z
M 2253 4666 
L 3047 4666 
L 3047 1625 
L 3713 1625 
L 3713 1100 
L 3047 1100 
L 3047 0 
L 2419 0 
L 2419 1100 
L 313 1100 
L 313 1709 
L 2253 4666 
z
" transform="scale(0.015625)"/>
       </defs>
       <use xlink:href="#DejaVuSans-34"/>
       <use xlink:href="#DejaVuSans-30" x="63.623047"/>
       <use xlink:href="#DejaVuSans-30" x="127.246094"/>
      </g>
     </g>
    </g>
    <g id="xtick_10">
     <g id="line2d_10">
      <g>
       <use xlink:href="#m231142f380" x="398.487273" y="307.584" style="stroke: #000000; stroke-width: 0.8"/>
      </g>
     </g>
     <g id="text_10">
      <!-- 450 -->
      <g transform="translate(388.943523 322.182437) scale(0.1 -0.1)">
       <use xlink:href="#DejaVuSans-34"/>
       <use xlink:href="#DejaVuSans-35" x="63.623047"/>
       <use xlink:href="#DejaVuSans-30" x="127.246094"/>
      </g>
     </g>
    </g>
    <g id="text_11">
     <!-- Epochs -->
     <g transform="translate(218.244375 335.860562) scale(0.1 -0.1)">
      <defs>
       <path id="DejaVuSans-45" d="M 628 4666 
L 3578 4666 
L 3578 4134 
L 1259 4134 
L 1259 2753 
L 3481 2753 
L 3481 2222 
L 1259 2222 
L 1259 531 
L 3634 531 
L 3634 0 
L 628 0 
L 628 4666 
z
" transform="scale(0.015625)"/>
       <path id="DejaVuSans-70" d="M 1159 525 
L 1159 -1331 
L 581 -1331 
L 581 3500 
L 1159 3500 
L 1159 2969 
Q 1341 3281 1617 3432 
Q 1894 3584 2278 3584 
Q 2916 3584 3314 3078 
Q 3713 2572 3713 1747 
Q 3713 922 3314 415 
Q 2916 -91 2278 -91 
Q 1894 -91 1617 61 
Q 1341 213 1159 525 
z
M 3116 1747 
Q 3116 2381 2855 2742 
Q 2594 3103 2138 3103 
Q 1681 3103 1420 2742 
Q 1159 2381 1159 1747 
Q 1159 1113 1420 752 
Q 1681 391 2138 391 
Q 2594 391 2855 752 
Q 3116 1113 3116 1747 
z
" transform="scale(0.015625)"/>
       <path id="DejaVuSans-6f" d="M 1959 3097 
Q 1497 3097 1228 2736 
Q 959 2375 959 1747 
Q 959 1119 1226 758 
Q 1494 397 1959 397 
Q 2419 397 2687 759 
Q 2956 1122 2956 1747 
Q 2956 2369 2687 2733 
Q 2419 3097 1959 3097 
z
M 1959 3584 
Q 2709 3584 3137 3096 
Q 3566 2609 3566 1747 
Q 3566 888 3137 398 
Q 2709 -91 1959 -91 
Q 1206 -91 779 398 
Q 353 888 353 1747 
Q 353 2609 779 3096 
Q 1206 3584 1959 3584 
z
" transform="scale(0.015625)"/>
       <path id="DejaVuSans-63" d="M 3122 3366 
L 3122 2828 
Q 2878 2963 2633 3030 
Q 2388 3097 2138 3097 
Q 1578 3097 1268 2742 
Q 959 2388 959 1747 
Q 959 1106 1268 751 
Q 1578 397 2138 397 
Q 2388 397 2633 464 
Q 2878 531 3122 666 
L 3122 134 
Q 2881 22 2623 -34 
Q 2366 -91 2075 -91 
Q 1284 -91 818 406 
Q 353 903 353 1747 
Q 353 2603 823 3093 
Q 1294 3584 2113 3584 
Q 2378 3584 2631 3529 
Q 2884 3475 3122 3366 
z
" transform="scale(0.015625)"/>
       <path id="DejaVuSans-68" d="M 3513 2113 
L 3513 0 
L 2938 0 
L 2938 2094 
Q 2938 2591 2744 2837 
Q 2550 3084 2163 3084 
Q 1697 3084 1428 2787 
Q 1159 2491 1159 1978 
L 1159 0 
L 581 0 
L 581 4863 
L 1159 4863 
L 1159 2956 
Q 1366 3272 1645 3428 
Q 1925 3584 2291 3584 
Q 2894 3584 3203 3211 
Q 3513 2838 3513 2113 
z
" transform="scale(0.015625)"/>
       <path id="DejaVuSans-73" d="M 2834 3397 
L 2834 2853 
Q 2591 2978 2328 3040 
Q 2066 3103 1784 3103 
Q 1356 3103 1142 2972 
Q 928 2841 928 2578 
Q 928 2378 1081 2264 
Q 1234 2150 1697 2047 
L 1894 2003 
Q 2506 1872 2764 1633 
Q 3022 1394 3022 966 
Q 3022 478 2636 193 
Q 2250 -91 1575 -91 
Q 1294 -91 989 -36 
Q 684 19 347 128 
L 347 722 
Q 666 556 975 473 
Q 1284 391 1588 391 
Q 1994 391 2212 530 
Q 2431 669 2431 922 
Q 2431 1156 2273 1281 
Q 2116 1406 1581 1522 
L 1381 1569 
Q 847 1681 609 1914 
Q 372 2147 372 2553 
Q 372 3047 722 3315 
Q 1072 3584 1716 3584 
Q 2034 3584 2315 3537 
Q 2597 3491 2834 3397 
z
" transform="scale(0.015625)"/>
      </defs>
      <use xlink:href="#DejaVuSans-45"/>
      <use xlink:href="#DejaVuSans-70" x="63.183594"/>
      <use xlink:href="#DejaVuSans-6f" x="126.660156"/>
      <use xlink:href="#DejaVuSans-63" x="187.841797"/>
      <use xlink:href="#DejaVuSans-68" x="242.822266"/>
      <use xlink:href="#DejaVuSans-73" x="306.201172"/>
     </g>
    </g>
   </g>
   <g id="matplotlib.axis_2">
    <g id="ytick_1">
     <g id="line2d_11">
      <defs>
       <path id="m9de0cc205a" d="M 0 0 
L -3.5 0 
" style="stroke: #000000; stroke-width: 0.8"/>
      </defs>
      <g>
       <use xlink:href="#m9de0cc205a" x="57.6" y="285.127608" style="stroke: #000000; stroke-width: 0.8"/>
      </g>
     </g>
     <g id="text_12">
      <!-- 10 -->
      <g transform="translate(37.875 288.926827) scale(0.1 -0.1)">
       <use xlink:href="#DejaVuSans-31"/>
       <use xlink:href="#DejaVuSans-30" x="63.623047"/>
      </g>
     </g>
    </g>
    <g id="ytick_2">
     <g id="line2d_12">
      <g>
       <use xlink:href="#m9de0cc205a" x="57.6" y="254.869453" style="stroke: #000000; stroke-width: 0.8"/>
      </g>
     </g>
     <g id="text_13">
      <!-- 20 -->
      <g transform="translate(37.875 258.668672) scale(0.1 -0.1)">
       <use xlink:href="#DejaVuSans-32"/>
       <use xlink:href="#DejaVuSans-30" x="63.623047"/>
      </g>
     </g>
    </g>
    <g id="ytick_3">
     <g id="line2d_13">
      <g>
       <use xlink:href="#m9de0cc205a" x="57.6" y="224.611298" style="stroke: #000000; stroke-width: 0.8"/>
      </g>
     </g>
     <g id="text_14">
      <!-- 30 -->
      <g transform="translate(37.875 228.410517) scale(0.1 -0.1)">
       <use xlink:href="#DejaVuSans-33"/>
       <use xlink:href="#DejaVuSans-30" x="63.623047"/>
      </g>
     </g>
    </g>
    <g id="ytick_4">
     <g id="line2d_14">
      <g>
       <use xlink:href="#m9de0cc205a" x="57.6" y="194.353143" style="stroke: #000000; stroke-width: 0.8"/>
      </g>
     </g>
     <g id="text_15">
      <!-- 40 -->
      <g transform="translate(37.875 198.152362) scale(0.1 -0.1)">
       <use xlink:href="#DejaVuSans-34"/>
       <use xlink:href="#DejaVuSans-30" x="63.623047"/>
      </g>
     </g>
    </g>
    <g id="ytick_5">
     <g id="line2d_15">
      <g>
       <use xlink:href="#m9de0cc205a" x="57.6" y="164.094988" style="stroke: #000000; stroke-width: 0.8"/>
      </g>
     </g>
     <g id="text_16">
      <!-- 50 -->
      <g transform="translate(37.875 167.894207) scale(0.1 -0.1)">
       <use xlink:href="#DejaVuSans-35"/>
       <use xlink:href="#DejaVuSans-30" x="63.623047"/>
      </g>
     </g>
    </g>
    <g id="ytick_6">
     <g id="line2d_16">
      <g>
       <use xlink:href="#m9de0cc205a" x="57.6" y="133.836833" style="stroke: #000000; stroke-width: 0.8"/>
      </g>
     </g>
     <g id="text_17">
      <!-- 60 -->
      <g transform="translate(37.875 137.636052) scale(0.1 -0.1)">
       <defs>
        <path id="DejaVuSans-36" d="M 2113 2584 
Q 1688 2584 1439 2293 
Q 1191 2003 1191 1497 
Q 1191 994 1439 701 
Q 1688 409 2113 409 
Q 2538 409 2786 701 
Q 3034 994 3034 1497 
Q 3034 2003 2786 2293 
Q 2538 2584 2113 2584 
z
M 3366 4563 
L 3366 3988 
Q 3128 4100 2886 4159 
Q 2644 4219 2406 4219 
Q 1781 4219 1451 3797 
Q 1122 3375 1075 2522 
Q 1259 2794 1537 2939 
Q 1816 3084 2150 3084 
Q 2853 3084 3261 2657 
Q 3669 2231 3669 1497 
Q 3669 778 3244 343 
Q 2819 -91 2113 -91 
Q 1303 -91 875 529 
Q 447 1150 447 2328 
Q 447 3434 972 4092 
Q 1497 4750 2381 4750 
Q 2619 4750 2861 4703 
Q 3103 4656 3366 4563 
z
" transform="scale(0.015625)"/>
       </defs>
       <use xlink:href="#DejaVuSans-36"/>
       <use xlink:href="#DejaVuSans-30" x="63.623047"/>
      </g>
     </g>
    </g>
    <g id="ytick_7">
     <g id="line2d_17">
      <g>
       <use xlink:href="#m9de0cc205a" x="57.6" y="103.578678" style="stroke: #000000; stroke-width: 0.8"/>
      </g>
     </g>
     <g id="text_18">
      <!-- 70 -->
      <g transform="translate(37.875 107.377897) scale(0.1 -0.1)">
       <defs>
        <path id="DejaVuSans-37" d="M 525 4666 
L 3525 4666 
L 3525 4397 
L 1831 0 
L 1172 0 
L 2766 4134 
L 525 4134 
L 525 4666 
z
" transform="scale(0.015625)"/>
       </defs>
       <use xlink:href="#DejaVuSans-37"/>
       <use xlink:href="#DejaVuSans-30" x="63.623047"/>
      </g>
     </g>
    </g>
    <g id="ytick_8">
     <g id="line2d_18">
      <g>
       <use xlink:href="#m9de0cc205a" x="57.6" y="73.320524" style="stroke: #000000; stroke-width: 0.8"/>
      </g>
     </g>
     <g id="text_19">
      <!-- 80 -->
      <g transform="translate(37.875 77.119742) scale(0.1 -0.1)">
       <defs>
        <path id="DejaVuSans-38" d="M 2034 2216 
Q 1584 2216 1326 1975 
Q 1069 1734 1069 1313 
Q 1069 891 1326 650 
Q 1584 409 2034 409 
Q 2484 409 2743 651 
Q 3003 894 3003 1313 
Q 3003 1734 2745 1975 
Q 2488 2216 2034 2216 
z
M 1403 2484 
Q 997 2584 770 2862 
Q 544 3141 544 3541 
Q 544 4100 942 4425 
Q 1341 4750 2034 4750 
Q 2731 4750 3128 4425 
Q 3525 4100 3525 3541 
Q 3525 3141 3298 2862 
Q 3072 2584 2669 2484 
Q 3125 2378 3379 2068 
Q 3634 1759 3634 1313 
Q 3634 634 3220 271 
Q 2806 -91 2034 -91 
Q 1263 -91 848 271 
Q 434 634 434 1313 
Q 434 1759 690 2068 
Q 947 2378 1403 2484 
z
M 1172 3481 
Q 1172 3119 1398 2916 
Q 1625 2713 2034 2713 
Q 2441 2713 2670 2916 
Q 2900 3119 2900 3481 
Q 2900 3844 2670 4047 
Q 2441 4250 2034 4250 
Q 1625 4250 1398 4047 
Q 1172 3844 1172 3481 
z
" transform="scale(0.015625)"/>
       </defs>
       <use xlink:href="#DejaVuSans-38"/>
       <use xlink:href="#DejaVuSans-30" x="63.623047"/>
      </g>
     </g>
    </g>
    <g id="ytick_9">
     <g id="line2d_19">
      <g>
       <use xlink:href="#m9de0cc205a" x="57.6" y="43.062369" style="stroke: #000000; stroke-width: 0.8"/>
      </g>
     </g>
     <g id="text_20">
      <!-- 90 -->
      <g transform="translate(37.875 46.861587) scale(0.1 -0.1)">
       <defs>
        <path id="DejaVuSans-39" d="M 703 97 
L 703 672 
Q 941 559 1184 500 
Q 1428 441 1663 441 
Q 2288 441 2617 861 
Q 2947 1281 2994 2138 
Q 2813 1869 2534 1725 
Q 2256 1581 1919 1581 
Q 1219 1581 811 2004 
Q 403 2428 403 3163 
Q 403 3881 828 4315 
Q 1253 4750 1959 4750 
Q 2769 4750 3195 4129 
Q 3622 3509 3622 2328 
Q 3622 1225 3098 567 
Q 2575 -91 1691 -91 
Q 1453 -91 1209 -44 
Q 966 3 703 97 
z
M 1959 2075 
Q 2384 2075 2632 2365 
Q 2881 2656 2881 3163 
Q 2881 3666 2632 3958 
Q 2384 4250 1959 4250 
Q 1534 4250 1286 3958 
Q 1038 3666 1038 3163 
Q 1038 2656 1286 2365 
Q 1534 2075 1959 2075 
z
" transform="scale(0.015625)"/>
       </defs>
       <use xlink:href="#DejaVuSans-39"/>
       <use xlink:href="#DejaVuSans-30" x="63.623047"/>
      </g>
     </g>
    </g>
    <g id="text_21">
     <!-- Accuracy -->
     <g transform="translate(31.795312 197.356125) rotate(-90) scale(0.1 -0.1)">
      <defs>
       <path id="DejaVuSans-41" d="M 2188 4044 
L 1331 1722 
L 3047 1722 
L 2188 4044 
z
M 1831 4666 
L 2547 4666 
L 4325 0 
L 3669 0 
L 3244 1197 
L 1141 1197 
L 716 0 
L 50 0 
L 1831 4666 
z
" transform="scale(0.015625)"/>
       <path id="DejaVuSans-75" d="M 544 1381 
L 544 3500 
L 1119 3500 
L 1119 1403 
Q 1119 906 1312 657 
Q 1506 409 1894 409 
Q 2359 409 2629 706 
Q 2900 1003 2900 1516 
L 2900 3500 
L 3475 3500 
L 3475 0 
L 2900 0 
L 2900 538 
Q 2691 219 2414 64 
Q 2138 -91 1772 -91 
Q 1169 -91 856 284 
Q 544 659 544 1381 
z
M 1991 3584 
L 1991 3584 
z
" transform="scale(0.015625)"/>
       <path id="DejaVuSans-72" d="M 2631 2963 
Q 2534 3019 2420 3045 
Q 2306 3072 2169 3072 
Q 1681 3072 1420 2755 
Q 1159 2438 1159 1844 
L 1159 0 
L 581 0 
L 581 3500 
L 1159 3500 
L 1159 2956 
Q 1341 3275 1631 3429 
Q 1922 3584 2338 3584 
Q 2397 3584 2469 3576 
Q 2541 3569 2628 3553 
L 2631 2963 
z
" transform="scale(0.015625)"/>
       <path id="DejaVuSans-61" d="M 2194 1759 
Q 1497 1759 1228 1600 
Q 959 1441 959 1056 
Q 959 750 1161 570 
Q 1363 391 1709 391 
Q 2188 391 2477 730 
Q 2766 1069 2766 1631 
L 2766 1759 
L 2194 1759 
z
M 3341 1997 
L 3341 0 
L 2766 0 
L 2766 531 
Q 2569 213 2275 61 
Q 1981 -91 1556 -91 
Q 1019 -91 701 211 
Q 384 513 384 1019 
Q 384 1609 779 1909 
Q 1175 2209 1959 2209 
L 2766 2209 
L 2766 2266 
Q 2766 2663 2505 2880 
Q 2244 3097 1772 3097 
Q 1472 3097 1187 3025 
Q 903 2953 641 2809 
L 641 3341 
Q 956 3463 1253 3523 
Q 1550 3584 1831 3584 
Q 2591 3584 2966 3190 
Q 3341 2797 3341 1997 
z
" transform="scale(0.015625)"/>
       <path id="DejaVuSans-79" d="M 2059 -325 
Q 1816 -950 1584 -1140 
Q 1353 -1331 966 -1331 
L 506 -1331 
L 506 -850 
L 844 -850 
Q 1081 -850 1212 -737 
Q 1344 -625 1503 -206 
L 1606 56 
L 191 3500 
L 800 3500 
L 1894 763 
L 2988 3500 
L 3597 3500 
L 2059 -325 
z
" transform="scale(0.015625)"/>
      </defs>
      <use xlink:href="#DejaVuSans-41"/>
      <use xlink:href="#DejaVuSans-63" x="66.658203"/>
      <use xlink:href="#DejaVuSans-63" x="121.638672"/>
      <use xlink:href="#DejaVuSans-75" x="176.619141"/>
      <use xlink:href="#DejaVuSans-72" x="239.998047"/>
      <use xlink:href="#DejaVuSans-61" x="281.111328"/>
      <use xlink:href="#DejaVuSans-63" x="342.390625"/>
      <use xlink:href="#DejaVuSans-79" x="397.371094"/>
     </g>
    </g>
   </g>
   <g id="line2d_20">
    <path d="M 73.832727 295.488 
L 76.724973 237.664666 
L 77.448034 225.646127 
L 78.894157 209.476169 
L 81.786402 184.979167 
L 82.509463 179.466131 
L 83.232525 176.815517 
L 84.678647 166.763757 
L 85.401709 163.816613 
L 86.12477 159.840692 
L 86.847832 157.153767 
L 87.570893 153.776957 
L 88.293954 151.065827 
L 89.017016 148.863033 
L 89.740077 144.626891 
L 90.463138 142.466459 
L 91.1862 141.122997 
L 91.909261 139.434592 
L 92.632322 136.923165 
L 93.355384 136.820287 
L 94.078445 135.077418 
L 94.801506 134.490409 
L 95.524568 164.464138 
L 96.247629 165.601844 
L 96.97069 163.332483 
L 97.693752 162.128208 
L 98.416813 158.575901 
L 100.585997 151.289737 
L 101.309059 149.770778 
L 102.755181 145.504378 
L 103.478243 143.700992 
L 104.924365 140.868828 
L 105.647427 138.526847 
L 107.093549 135.422361 
L 108.539672 131.458542 
L 109.262733 129.637001 
L 109.985795 127.137678 
L 111.431917 124.710974 
L 112.154979 123.403821 
L 112.87804 120.444574 
L 114.324163 117.914992 
L 115.047224 116.34762 
L 115.770285 115.179655 
L 117.216408 111.566831 
L 117.93947 111.058494 
L 118.662531 108.940423 
L 119.385592 107.960059 
L 120.108654 105.049225 
L 120.831715 105.376013 
L 121.554776 102.810121 
L 123.000899 100.238178 
L 123.72396 99.717738 
L 124.447022 98.059591 
L 125.170083 96.685871 
L 126.616206 93.296957 
L 127.339267 92.00796 
L 128.78539 89.962509 
L 129.508451 88.637202 
L 130.231512 87.069829 
L 130.954574 87.632631 
L 131.677635 86.36784 
L 132.400696 85.829245 
L 133.123758 84.818622 
L 133.846819 84.818622 
L 134.569881 84.122685 
L 135.292942 83.717226 
L 136.016003 83.723277 
L 136.739065 83.021288 
L 138.185187 83.535677 
L 138.908249 116.305258 
L 139.63131 121.497558 
L 140.354371 120.656381 
L 141.077433 120.571658 
L 141.800494 120.729001 
L 142.523555 119.530778 
L 143.246617 119.107163 
L 143.969678 118.931666 
L 144.692739 117.315881 
L 146.138862 116.523117 
L 146.861923 114.211394 
L 147.584985 114.538182 
L 148.308046 113.424682 
L 149.031108 113.666747 
L 149.754169 113.013171 
L 150.47723 112.190149 
L 151.200292 110.653035 
L 151.923353 108.801236 
L 152.646414 109.376141 
L 153.369476 109.460864 
L 154.092537 107.596961 
L 154.815598 107.566703 
L 155.53866 105.666491 
L 156.261721 106.090105 
L 156.984782 105.418374 
L 157.707844 103.996241 
L 158.430905 103.941776 
L 159.153966 102.967464 
L 159.877028 102.592263 
L 160.600089 101.738983 
L 161.32315 100.335004 
L 162.769273 99.0218 
L 163.492334 98.634496 
L 164.215396 97.006607 
L 164.938457 96.958194 
L 165.661519 97.284982 
L 167.830703 94.434664 
L 168.553764 94.089721 
L 169.999887 92.092683 
L 170.722948 90.985234 
L 171.446009 91.221248 
L 172.169071 91.094164 
L 172.892132 89.659927 
L 173.615193 89.387604 
L 174.338255 87.880748 
L 175.061316 87.40872 
L 175.784377 87.293739 
L 176.507439 85.950277 
L 177.2305 85.901864 
L 177.953561 85.036481 
L 178.676623 84.522092 
L 179.399684 83.293611 
L 180.122745 82.73081 
L 180.845807 82.416125 
L 181.568868 81.61731 
L 182.29193 81.205799 
L 183.014991 81.447864 
L 183.738052 80.903217 
L 184.461114 79.553703 
L 185.184175 78.482565 
L 185.907236 78.470461 
L 186.630298 77.641388 
L 187.353359 76.993864 
L 188.07642 76.007448 
L 188.799482 75.789589 
L 189.522543 74.663986 
L 190.245604 74.446127 
L 190.968666 73.042148 
L 191.691727 71.946803 
L 192.414788 72.30385 
L 193.13785 71.30533 
L 194.583972 71.093523 
L 195.307034 70.270502 
L 196.030095 69.647184 
L 196.753157 69.526151 
L 197.476218 68.255308 
L 198.199279 67.607784 
L 198.922341 67.287047 
L 199.645402 67.383874 
L 200.368463 66.693988 
L 201.091525 66.439819 
L 201.814586 65.060047 
L 202.537647 65.205286 
L 203.260709 64.043373 
L 203.98377 64.267284 
L 204.706831 64.182561 
L 205.429893 63.232455 
L 206.152954 63.268764 
L 206.876015 62.675705 
L 207.599077 61.659031 
L 208.322138 61.755857 
L 209.045199 61.54405 
L 209.768261 61.459327 
L 210.491322 59.970626 
L 211.937445 60.599995 
L 212.660506 59.873799 
L 213.383568 59.946419 
L 214.106629 59.498598 
L 214.82969 59.274688 
L 215.552752 58.475873 
L 216.275813 57.876761 
L 216.998874 58.173291 
L 217.721936 58.034104 
L 218.444997 57.46525 
L 219.168058 57.108204 
L 219.89112 58.022 
L 220.614181 58.112775 
L 222.060304 57.428941 
L 223.506426 57.568128 
L 224.229488 58.161188 
L 224.952549 57.707316 
L 225.67561 88.40724 
L 226.398672 96.195689 
L 227.121733 97.327344 
L 227.844794 97.157898 
L 228.567856 96.728232 
L 229.290917 97.763061 
L 230.013979 97.067123 
L 230.73704 96.576941 
L 231.460101 96.504322 
L 232.183163 95.729713 
L 232.906224 96.141224 
L 233.629285 95.759971 
L 234.352347 96.038346 
L 235.075408 95.493699 
L 235.798469 95.445286 
L 236.521531 95.045879 
L 237.244592 93.060944 
L 237.967653 94.525438 
L 238.690715 93.726623 
L 239.413776 93.635849 
L 240.136837 92.994376 
L 240.859899 92.982273 
L 242.306021 91.318074 
L 243.029083 92.322645 
L 243.752144 91.572243 
L 244.475206 91.003389 
L 245.198267 91.318074 
L 245.921328 90.573723 
L 246.64439 90.210626 
L 247.367451 90.906563 
L 248.090512 89.823321 
L 248.813574 89.054764 
L 249.536635 89.327087 
L 250.259696 89.248416 
L 250.982758 89.042661 
L 251.705819 88.59484 
L 252.42888 89.544946 
L 253.151942 87.323998 
L 253.875003 86.670421 
L 254.598064 87.263481 
L 255.321126 86.198394 
L 256.044187 86.730938 
L 256.767248 86.827764 
L 258.213371 85.677954 
L 258.936432 85.496405 
L 259.659494 85.054636 
L 260.382555 84.770209 
L 261.105617 85.932122 
L 261.828678 85.974484 
L 262.551739 84.842829 
L 263.274801 84.425266 
L 263.997862 83.112062 
L 265.443985 83.293611 
L 266.167046 83.505418 
L 266.890107 82.319299 
L 267.613169 83.523573 
L 268.33623 83.154424 
L 269.059291 81.756497 
L 269.782353 81.853323 
L 270.505414 81.611258 
L 271.228475 81.623361 
L 271.951537 81.459967 
L 272.674598 80.43119 
L 274.120721 81.066611 
L 274.843782 80.582481 
L 275.566843 80.255693 
L 277.012966 79.928905 
L 277.736028 80.69141 
L 278.459089 80.183073 
L 279.18215 79.432671 
L 279.905212 77.792679 
L 280.628273 78.863817 
L 281.351334 78.173932 
L 282.074396 77.732162 
L 282.797457 77.768472 
L 283.520518 78.004486 
L 284.24358 77.629285 
L 284.966641 76.939399 
L 285.689702 77.211722 
L 287.135825 75.86826 
L 287.858886 75.856157 
L 288.581948 76.328184 
L 289.305009 74.845535 
L 290.02807 75.468853 
L 290.751132 75.698814 
L 292.197255 73.695725 
L 292.920316 74.760812 
L 293.643377 74.282733 
L 294.366439 73.138975 
L 295.0895 73.556537 
L 295.812561 73.187388 
L 296.535623 73.368937 
L 297.258684 72.509605 
L 297.981745 73.411298 
L 298.704807 72.213075 
L 299.427868 72.721412 
L 300.150929 71.928648 
L 300.873991 71.323485 
L 301.597052 71.37795 
L 303.766236 70.258398 
L 304.489297 70.724374 
L 305.212359 70.470205 
L 305.93542 69.937662 
L 306.658481 69.15095 
L 307.381543 70.125262 
L 308.104604 69.066227 
L 308.827666 68.249257 
L 309.550727 68.793904 
L 310.273788 67.674352 
L 310.99685 67.813539 
L 311.719911 68.146379 
L 312.442972 67.517009 
L 313.166034 67.347564 
L 314.612156 66.312735 
L 315.335218 66.603213 
L 316.78134 65.92543 
L 317.504402 65.580487 
L 318.227463 65.489713 
L 318.950524 66.046463 
L 319.673586 65.078202 
L 320.396647 65.047944 
L 321.119708 64.176509 
L 321.84277 64.339903 
L 322.565831 63.631862 
L 323.288892 63.879979 
L 324.011954 63.038802 
L 325.458077 63.80736 
L 326.181138 62.95408 
L 326.904199 63.087216 
L 327.627261 62.32471 
L 328.350322 62.276297 
L 329.073383 62.082645 
L 329.796445 62.62124 
L 331.242567 60.236897 
L 331.965629 61.047816 
L 332.68869 60.630253 
L 333.411751 60.418446 
L 334.134813 59.395721 
L 334.857874 59.310998 
L 335.580935 58.61506 
L 336.303997 59.637786 
L 337.027058 58.681628 
L 337.750119 58.929745 
L 338.473181 57.858606 
L 339.196242 58.524286 
L 339.919304 58.457718 
L 340.642365 57.144514 
L 341.365426 57.671006 
L 342.088488 57.749677 
L 342.811549 57.410786 
L 343.53461 57.72547 
L 344.257672 56.297286 
L 345.703794 56.103633 
L 346.426856 56.375957 
L 347.149917 55.643709 
L 347.872978 56.382008 
L 349.319101 54.984082 
L 350.765224 55.813155 
L 352.211346 54.221576 
L 352.934408 55.298766 
L 353.657469 55.214044 
L 354.38053 53.568 
L 355.103592 54.94172 
L 355.826653 53.967408 
L 356.549715 56.043117 
L 357.995837 55.250353 
L 358.718899 55.528728 
L 359.44196 54.427332 
L 360.165021 55.262457 
L 360.888083 55.123269 
L 361.611144 54.663345 
L 362.334205 55.389541 
L 363.057267 54.203421 
L 363.780328 54.887256 
L 364.503389 54.136853 
L 365.226451 54.4939 
L 365.949512 53.882685 
L 366.672573 55.413747 
L 368.118696 54.875152 
L 368.841757 55.074856 
L 369.564819 54.427332 
L 370.28788 55.129321 
L 371.010941 55.189837 
L 371.734003 55.540832 
L 372.457064 55.123269 
L 373.180126 54.306299 
L 373.903187 54.881204 
L 374.626248 55.655813 
L 375.34931 54.100544 
L 376.072371 54.796481 
L 376.795432 54.445486 
L 378.241555 54.269989 
L 378.964616 54.554416 
L 379.687678 55.093011 
L 381.856862 54.971978 
L 382.579923 54.542313 
L 383.302984 54.778326 
L 384.026046 54.191318 
L 384.749107 54.90541 
L 385.472168 54.282092 
L 387.641353 54.6815 
L 388.364414 54.027924 
L 389.087475 54.209473 
L 389.810537 54.94172 
L 390.533598 54.875152 
L 391.256659 54.34866 
L 391.979721 54.524158 
L 392.702782 54.863049 
L 393.425843 54.239731 
L 394.148905 55.044598 
L 394.871966 54.602829 
L 395.595027 54.965927 
L 396.318089 54.760171 
L 397.04115 55.395593 
L 398.487273 54.639139 
L 398.487273 54.639139 
" clip-path="url(#p9d00e64c31)" style="fill: none; stroke: #1f77b4; stroke-width: 1.5; stroke-linecap: square"/>
   </g>
   <g id="line2d_21">
    <path d="M 73.832727 281.799211 
L 74.555789 271.571954 
L 75.27885 250.088664 
L 76.001911 237.955144 
L 77.448034 197.621024 
L 78.171095 191.871974 
L 78.894157 189.874936 
L 79.617218 179.193807 
L 80.340279 164.094988 
L 81.063341 158.557746 
L 81.786402 157.680259 
L 82.509463 146.605775 
L 83.232525 139.827948 
L 83.955586 150.236753 
L 84.678647 134.71432 
L 85.401709 134.71432 
L 86.12477 127.875977 
L 86.847832 124.123966 
L 87.570893 127.66417 
L 88.293954 122.066411 
L 89.017016 118.435432 
L 89.740077 116.83175 
L 90.463138 114.108516 
L 91.1862 113.019223 
L 91.909261 112.686383 
L 92.632322 111.143217 
L 94.078445 109.872375 
L 94.801506 109.600051 
L 95.524568 135.047159 
L 96.247629 137.588845 
L 96.97069 138.375557 
L 97.693752 133.382961 
L 99.139874 125.485583 
L 99.862936 119.46421 
L 100.585997 126.453844 
L 101.309059 124.184482 
L 102.03212 117.921044 
L 102.755181 119.433952 
L 103.478243 117.16459 
L 104.201304 111.960187 
L 104.924365 114.86497 
L 105.647427 112.746899 
L 106.370488 111.355024 
L 107.093549 110.538054 
L 107.816611 106.453203 
L 108.539672 107.845078 
L 109.262733 107.360948 
L 109.985795 106.301912 
L 110.708856 102.912999 
L 111.431917 101.763189 
L 112.154979 99.403053 
L 112.87804 97.557306 
L 113.601101 99.796409 
L 114.324163 98.555825 
L 115.047224 97.678338 
L 115.770285 94.894588 
L 116.493347 96.407496 
L 117.216408 95.560267 
L 117.93947 93.230389 
L 118.662531 94.04736 
L 119.385592 91.566191 
L 120.108654 88.600892 
L 120.831715 91.142577 
L 121.554776 89.206055 
L 122.277838 90.507155 
L 123.000899 88.782441 
L 123.72396 88.177278 
L 125.170083 85.665851 
L 125.893144 85.907916 
L 126.616206 85.786883 
L 127.339267 84.455525 
L 128.062328 83.729329 
L 128.78539 83.578038 
L 129.508451 83.668812 
L 130.954574 82.06513 
L 131.677635 83.729329 
L 132.400696 82.246679 
L 133.846819 81.671774 
L 134.569881 82.216421 
L 135.292942 81.732291 
L 136.016003 81.702032 
L 136.739065 82.367712 
L 137.462126 81.520483 
L 138.185187 82.458486 
L 138.908249 99.856925 
L 139.63131 105.091586 
L 140.354371 107.603013 
L 141.077433 102.489385 
L 141.800494 98.646599 
L 142.523555 103.820744 
L 143.246617 102.277578 
L 143.969678 101.823705 
L 144.692739 99.372795 
L 145.415801 102.73145 
L 146.138862 99.463569 
L 146.861923 98.767632 
L 147.584985 102.882741 
L 148.308046 97.920403 
L 149.031108 98.495308 
L 149.754169 97.527047 
L 150.47723 97.436273 
L 151.200292 98.162469 
L 151.923353 98.495308 
L 152.646414 98.011178 
L 153.369476 94.017101 
L 154.092537 96.135172 
L 154.815598 93.260648 
L 155.53866 91.899031 
L 156.261721 91.354384 
L 156.984782 92.837033 
L 157.707844 91.142577 
L 158.430905 93.411938 
L 159.153966 90.234832 
L 159.877028 91.626707 
L 160.600089 94.53149 
L 162.046212 91.172835 
L 162.769273 90.749221 
L 163.492334 90.93077 
L 164.215396 89.841476 
L 164.938457 93.986843 
L 165.661519 91.868772 
L 166.38458 94.440716 
L 167.107641 90.507155 
L 167.830703 91.989805 
L 168.553764 91.293868 
L 169.276825 91.777998 
L 169.999887 91.112319 
L 170.722948 90.144058 
L 171.446009 89.992767 
L 172.169071 88.268052 
L 172.892132 89.417862 
L 173.615193 87.81418 
L 174.338255 88.661408 
L 175.061316 87.087984 
L 176.507439 86.815661 
L 177.2305 86.089465 
L 177.953561 87.178758 
L 178.676623 85.151462 
L 179.399684 83.54778 
L 180.122745 84.909397 
L 180.845807 84.001652 
L 181.568868 84.848881 
L 182.29193 85.000171 
L 183.014991 82.488744 
L 184.461114 85.51456 
L 185.184175 85.333011 
L 185.907236 84.879139 
L 186.630298 85.756625 
L 187.353359 81.278418 
L 188.07642 85.211978 
L 188.799482 82.942617 
L 189.522543 82.428228 
L 190.245604 80.885062 
L 190.968666 81.006095 
L 191.691727 83.003133 
L 192.414788 82.216421 
L 193.13785 80.612739 
L 193.860911 80.43119 
L 194.583972 81.187644 
L 195.307034 78.857766 
L 196.030095 80.189125 
L 196.753157 78.827508 
L 198.199279 79.220864 
L 198.922341 78.918282 
L 199.645402 77.79873 
L 200.368463 78.192086 
L 201.091525 78.373635 
L 201.814586 76.739695 
L 202.537647 78.736733 
L 203.260709 78.192086 
L 203.98377 77.163309 
L 204.706831 76.890986 
L 205.429893 78.040796 
L 206.152954 76.951502 
L 206.876015 77.193567 
L 207.599077 76.648921 
L 208.322138 76.346339 
L 209.045199 76.376597 
L 209.768261 75.257045 
L 210.491322 75.771434 
L 211.214383 75.438594 
L 211.937445 75.499111 
L 212.660506 75.741176 
L 213.383568 75.408336 
L 214.106629 74.500592 
L 214.82969 74.833431 
L 215.552752 74.772915 
L 216.275813 75.408336 
L 216.998874 74.319043 
L 217.721936 74.349301 
L 218.444997 75.045238 
L 219.168058 75.226787 
L 219.89112 74.863689 
L 220.614181 75.075496 
L 222.060304 74.924206 
L 222.783365 74.046719 
L 224.229488 74.984722 
L 224.952549 75.136013 
L 225.67561 95.136653 
L 226.398672 100.915961 
L 227.121733 97.859887 
L 227.844794 96.468012 
L 228.567856 95.560267 
L 229.290917 96.316721 
L 230.013979 95.741816 
L 230.73704 95.408977 
L 231.460101 97.920403 
L 232.183163 93.684262 
L 232.906224 99.705635 
L 233.629285 93.169873 
L 234.352347 98.828148 
L 235.075408 96.437754 
L 235.798469 99.554344 
L 236.521531 92.776517 
L 237.244592 94.743297 
L 237.967653 94.259167 
L 238.690715 93.472455 
L 239.413776 99.826667 
L 240.136837 92.020063 
L 240.859899 97.587564 
L 241.58296 91.656965 
L 242.306021 90.628188 
L 243.029083 93.351422 
L 243.752144 95.227428 
L 244.475206 93.805294 
L 245.198267 101.2488 
L 245.921328 91.596449 
L 246.64439 94.834072 
L 247.367451 94.501232 
L 248.090512 92.262128 
L 248.813574 89.508636 
L 249.536635 98.344018 
L 250.259696 91.959547 
L 250.982758 90.628188 
L 251.705819 94.894588 
L 252.42888 89.901992 
L 253.151942 90.718963 
L 253.875003 95.560267 
L 254.598064 94.228909 
L 255.321126 95.923365 
L 256.044187 91.263609 
L 256.767248 91.626707 
L 257.49031 89.236313 
L 258.213371 90.537414 
L 258.936432 96.528528 
L 259.659494 95.34846 
L 260.382555 91.899031 
L 261.105617 93.321164 
L 261.828678 93.805294 
L 262.551739 95.620784 
L 263.274801 95.408977 
L 263.997862 93.38168 
L 264.720923 90.507155 
L 265.443985 91.535933 
L 266.167046 91.899031 
L 266.890107 93.109357 
L 267.613169 95.378718 
L 268.33623 88.661408 
L 269.059291 96.074656 
L 269.782353 89.841476 
L 270.505414 94.955104 
L 271.228475 90.144058 
L 271.951537 91.626707 
L 272.674598 90.26509 
L 273.397659 92.020063 
L 274.120721 92.020063 
L 274.843782 88.086503 
L 275.566843 87.209017 
L 276.289905 91.717482 
L 277.012966 90.295348 
L 277.736028 85.786883 
L 278.459089 90.476897 
L 279.18215 92.110838 
L 279.905212 90.839995 
L 280.628273 85.605334 
L 281.351334 93.351422 
L 282.074396 93.38168 
L 282.797457 85.302753 
L 283.520518 91.626707 
L 284.24358 89.145539 
L 284.966641 89.538895 
L 285.689702 90.113799 
L 286.412764 85.817141 
L 287.135825 88.842957 
L 287.858886 93.048841 
L 288.581948 92.89755 
L 289.305009 86.119723 
L 290.02807 92.988324 
L 290.751132 86.936693 
L 291.474193 85.8474 
L 292.197255 86.422305 
L 292.920316 89.054764 
L 293.643377 85.484302 
L 294.366439 92.867292 
L 295.0895 88.268052 
L 295.812561 86.210497 
L 296.535623 88.419343 
L 297.981745 86.301272 
L 298.704807 86.240756 
L 299.427868 85.000171 
L 300.150929 87.360307 
L 300.873991 84.092427 
L 301.597052 86.149981 
L 302.320113 84.425266 
L 303.043175 87.96547 
L 303.766236 86.634112 
L 304.489297 87.451082 
L 305.212359 82.39797 
L 305.93542 84.334492 
L 306.658481 84.273976 
L 307.381543 84.485783 
L 308.104604 82.276937 
L 308.827666 85.272495 
L 309.550727 85.635593 
L 310.273788 82.488744 
L 310.99685 83.063649 
L 311.719911 83.487264 
L 312.442972 83.21494 
L 313.166034 81.91384 
L 313.889095 84.36475 
L 314.612156 85.938174 
L 315.335218 82.73081 
L 316.058279 83.729329 
L 316.78134 83.668812 
L 317.504402 83.941136 
L 318.227463 83.335973 
L 318.950524 85.211978 
L 319.673586 81.91384 
L 320.396647 79.553703 
L 321.119708 81.369193 
L 321.84277 80.158867 
L 322.565831 84.001652 
L 323.288892 83.063649 
L 324.011954 80.76403 
L 324.735015 81.671774 
L 325.458077 81.550742 
L 326.181138 82.246679 
L 326.904199 80.370674 
L 327.627261 82.700552 
L 329.073383 77.738214 
L 329.796445 82.609777 
L 330.519506 83.063649 
L 331.242567 81.550742 
L 331.965629 79.402413 
L 332.68869 80.461448 
L 333.411751 79.886543 
L 334.134813 79.039315 
L 334.857874 80.582481 
L 335.580935 80.279899 
L 336.303997 78.46441 
L 337.027058 79.583962 
L 337.750119 77.193567 
L 338.473181 77.859247 
L 339.196242 76.890986 
L 339.919304 79.220864 
L 340.642365 77.072535 
L 341.365426 77.435633 
L 342.088488 77.556665 
L 342.811549 75.710918 
L 343.53461 76.134532 
L 344.257672 77.465891 
L 344.980733 75.075496 
L 345.703794 75.34782 
L 346.426856 77.163309 
L 347.149917 76.195048 
L 347.872978 75.468853 
L 348.59604 77.072535 
L 349.319101 76.225306 
L 350.042162 74.349301 
L 350.765224 74.076977 
L 351.488285 76.195048 
L 352.211346 75.01498 
L 352.934408 76.890986 
L 353.657469 76.98176 
L 354.38053 74.621624 
L 355.103592 75.257045 
L 355.826653 76.800211 
L 356.549715 76.346339 
L 357.272776 76.285823 
L 357.995837 76.951502 
L 358.718899 77.223825 
L 359.44196 75.68066 
L 360.165021 77.526407 
L 360.888083 75.952983 
L 361.611144 75.257045 
L 363.057267 78.615701 
L 363.780328 77.79873 
L 364.503389 76.467372 
L 365.226451 77.042277 
L 365.949512 75.226787 
L 366.672573 77.405374 
L 367.395635 76.467372 
L 368.118696 77.193567 
L 368.841757 75.499111 
L 369.564819 76.558146 
L 370.28788 76.376597 
L 371.010941 75.468853 
L 372.457064 74.68214 
L 373.180126 76.013499 
L 373.903187 74.772915 
L 374.626248 77.163309 
L 375.34931 73.653363 
L 376.072371 76.558146 
L 376.795432 77.102793 
L 377.518494 77.465891 
L 378.241555 76.860728 
L 378.964616 77.707956 
L 379.687678 77.496149 
L 380.410739 77.617182 
L 381.1338 76.527888 
L 381.856862 77.617182 
L 382.579923 75.499111 
L 383.302984 77.102793 
L 384.026046 76.890986 
L 384.749107 76.49763 
L 385.472168 75.922725 
L 386.19523 76.98176 
L 386.918291 77.465891 
L 387.641353 77.163309 
L 388.364414 77.496149 
L 389.087475 76.346339 
L 389.810537 78.373635 
L 390.533598 76.225306 
L 391.256659 78.010538 
L 391.979721 77.586923 
L 392.702782 77.375116 
L 393.425843 76.346339 
L 394.871966 78.434152 
L 395.595027 76.769953 
L 396.318089 76.49763 
L 397.04115 79.009057 
L 397.764211 76.921244 
L 398.487273 77.193567 
L 398.487273 77.193567 
" clip-path="url(#p9d00e64c31)" style="fill: none; stroke: #ff7f0e; stroke-width: 1.5; stroke-linecap: square"/>
   </g>
   <g id="line2d_22">
    <path d="M 73.832727 279.326389 
L 74.555789 275.361527 
L 75.27885 248.212659 
L 76.001911 242.202763 
L 76.724973 220.667304 
L 78.171095 203.931414 
L 78.894157 205.27738 
L 80.340279 188.541491 
L 81.063341 184.587063 
L 81.786402 182.35422 
L 82.509463 183.408038 
L 83.232525 175.593087 
L 83.955586 181.957733 
L 84.678647 167.976379 
L 85.401709 169.092801 
L 86.12477 166.859958 
L 86.847832 162.895096 
L 87.570893 165.242711 
L 89.017016 153.661142 
L 89.740077 154.44368 
L 90.463138 155.539234 
L 91.909261 151.522203 
L 92.632322 149.842354 
L 93.355384 149.195455 
L 94.078445 149.435434 
L 94.801506 149.132852 
L 95.524568 182.531595 
L 96.247629 172.94289 
L 96.97069 169.395382 
L 97.693752 171.930807 
L 98.416813 162.394271 
L 99.139874 172.775948 
L 99.862936 158.794594 
L 100.585997 168.33113 
L 101.309059 161.163077 
L 102.03212 162.623816 
L 102.755181 157.438194 
L 103.478243 157.521665 
L 104.201304 158.56505 
L 104.924365 155.580969 
L 105.647427 150.280575 
L 106.370488 161.95605 
L 107.093549 159.232816 
L 107.816611 150.791834 
L 108.539672 153.848951 
L 109.262733 152.836868 
L 109.985795 152.336043 
L 110.708856 150.656194 
L 111.431917 150.802268 
L 112.87804 145.49144 
L 113.601101 150.405782 
L 114.324163 149.748449 
L 115.047224 150.165803 
L 115.770285 147.546908 
L 116.493347 144.197643 
L 117.216408 149.977994 
L 117.93947 143.3212 
L 118.662531 149.435434 
L 119.385592 139.65892 
L 120.108654 138.43816 
L 120.831715 145.136689 
L 121.554776 142.225646 
L 122.277838 141.756123 
L 123.000899 139.429375 
L 123.72396 140.410157 
L 124.447022 138.855513 
L 125.170083 141.119658 
L 125.893144 139.11636 
L 126.616206 137.446944 
L 127.339267 138.281652 
L 128.062328 136.455729 
L 128.78539 138.010372 
L 129.508451 135.026292 
L 130.231512 137.175664 
L 130.954574 135.141064 
L 131.677635 137.019156 
L 132.400696 133.920304 
L 133.123758 133.586421 
L 133.846819 135.547984 
L 135.292942 135.641889 
L 136.016003 136.13228 
L 136.739065 135.652323 
L 137.462126 134.963689 
L 138.185187 135.913169 
L 138.908249 151.292659 
L 139.63131 155.445329 
L 140.354371 162.623816 
L 141.800494 145.960963 
L 142.523555 159.32672 
L 143.246617 150.7814 
L 143.969678 150.447517 
L 144.692739 152.064763 
L 145.415801 158.137262 
L 146.861923 146.910443 
L 147.584985 154.454114 
L 148.308046 150.165803 
L 149.031108 146.910443 
L 149.754169 153.337692 
L 150.47723 147.077385 
L 151.200292 146.315714 
L 151.923353 151.626542 
L 152.646414 154.892336 
L 153.369476 142.486492 
L 154.092537 153.337692 
L 154.815598 154.746262 
L 155.53866 152.982942 
L 156.261721 141.77699 
L 156.984782 142.423889 
L 157.707844 145.700117 
L 158.430905 138.135578 
L 159.153966 145.919228 
L 159.877028 147.202591 
L 160.600089 141.182261 
L 161.32315 144.646298 
L 162.046212 141.338769 
L 162.769273 143.884627 
L 163.492334 147.421701 
L 164.215396 144.051569 
L 164.938457 143.310766 
L 165.661519 143.769855 
L 166.38458 139.147661 
L 167.107641 139.638052 
L 167.830703 138.834646 
L 168.553764 139.022455 
L 169.276825 143.602914 
L 169.999887 139.711089 
L 170.722948 141.620483 
L 171.446009 141.9648 
L 172.169071 144.594129 
L 173.615193 136.560067 
L 174.338255 141.589181 
L 175.061316 137.666055 
L 175.784377 138.187747 
L 176.507439 143.133391 
L 177.2305 137.989504 
L 177.953561 139.053757 
L 178.676623 135.443646 
L 179.399684 139.085058 
L 180.122745 141.474409 
L 180.845807 131.46835 
L 181.568868 136.518332 
L 182.29193 133.63859 
L 183.014991 135.871433 
L 183.738052 136.549633 
L 184.461114 137.812129 
L 185.184175 141.244864 
L 185.907236 140.837944 
L 186.630298 140.96315 
L 187.353359 135.224535 
L 188.07642 140.712738 
L 188.799482 138.782477 
L 189.522543 136.017507 
L 190.245604 135.662756 
L 190.968666 129.684162 
L 191.691727 138.563366 
L 193.13785 131.290975 
L 193.860911 130.049347 
L 194.583972 132.219587 
L 195.307034 133.941172 
L 196.030095 129.684162 
L 196.753157 132.918655 
L 197.476218 133.210803 
L 198.199279 133.002126 
L 198.922341 133.022993 
L 199.645402 129.329412 
L 200.368463 132.845618 
L 201.091525 129.673729 
L 201.814586 131.416181 
L 202.537647 132.55347 
L 203.260709 130.498002 
L 203.98377 127.753901 
L 204.706831 127.513922 
L 205.429893 129.892839 
L 206.152954 127.899975 
L 206.876015 128.870322 
L 207.599077 128.901624 
L 208.322138 128.275593 
L 209.045199 130.049347 
L 209.768261 126.99223 
L 210.491322 129.152036 
L 211.214383 126.251427 
L 211.937445 127.639128 
L 212.660506 126.355765 
L 213.383568 127.138304 
L 214.106629 125.541925 
L 214.82969 127.472187 
L 215.552752 125.823639 
L 216.275813 127.659996 
L 216.998874 125.406285 
L 217.721936 126.074051 
L 218.444997 126.136655 
L 219.89112 126.606178 
L 220.614181 126.439236 
L 221.337242 126.574876 
L 222.060304 126.032316 
L 222.783365 125.834073 
L 223.506426 126.209691 
L 224.229488 126.898325 
L 224.952549 126.491405 
L 225.67561 149.529338 
L 226.398672 152.607323 
L 227.844794 144.416754 
L 228.567856 149.706714 
L 229.290917 149.258058 
L 230.013979 142.277815 
L 230.73704 140.441458 
L 231.460101 148.673763 
L 232.183163 140.107575 
L 232.906224 154.454114 
L 233.629285 144.646298 
L 234.352347 155.904419 
L 235.075408 148.277277 
L 235.798469 152.972508 
L 236.521531 142.298683 
L 237.244592 139.168529 
L 237.967653 143.195994 
L 238.690715 151.793483 
L 239.413776 148.506821 
L 240.136837 141.192695 
L 240.859899 149.800618 
L 241.58296 142.058704 
L 242.306021 145.387101 
L 243.029083 145.960963 
L 243.752144 145.992264 
L 244.475206 147.275628 
L 245.198267 160.119693 
L 245.921328 142.653434 
L 246.64439 154.360209 
L 247.367451 144.218511 
L 248.813574 136.048809 
L 249.536635 152.012594 
L 250.259696 140.994452 
L 250.982758 135.850566 
L 251.705819 142.006535 
L 252.42888 139.898898 
L 253.151942 141.568314 
L 253.875003 146.367883 
L 254.598064 145.710551 
L 255.321126 145.668815 
L 256.044187 139.961501 
L 256.767248 145.971397 
L 257.49031 137.822563 
L 258.213371 137.280003 
L 258.936432 151.835219 
L 259.659494 149.644111 
L 260.382555 139.752824 
L 261.105617 139.669354 
L 261.828678 142.110874 
L 262.551739 146.357449 
L 263.274801 146.910443 
L 263.997862 144.625431 
L 264.720923 140.723172 
L 265.443985 142.622132 
L 266.167046 144.980181 
L 266.890107 142.392587 
L 267.613169 145.178424 
L 268.33623 142.225646 
L 269.059291 142.799507 
L 269.782353 131.937873 
L 270.505414 143.842892 
L 271.228475 147.776452 
L 271.951537 144.844541 
L 272.674598 143.978532 
L 273.397659 140.462326 
L 274.120721 142.935147 
L 274.843782 135.641889 
L 275.566843 138.229483 
L 276.289905 136.685273 
L 277.012966 137.154796 
L 277.736028 138.020806 
L 278.459089 140.681437 
L 279.18215 147.275628 
L 279.905212 145.773154 
L 280.628273 134.890652 
L 281.351334 137.864298 
L 282.074396 138.834646 
L 282.797457 138.219049 
L 283.520518 142.976883 
L 284.24358 139.836295 
L 284.966641 138.918117 
L 285.689702 144.301981 
L 286.412764 140.671003 
L 287.135825 141.724821 
L 287.858886 144.228944 
L 288.581948 138.876381 
L 289.305009 134.848916 
L 290.02807 148.047732 
L 290.751132 139.377206 
L 291.474193 132.981258 
L 292.197255 136.476596 
L 292.920316 146.98348 
L 293.643377 132.647375 
L 294.366439 143.404671 
L 295.0895 141.307467 
L 295.812561 131.781366 
L 296.535623 138.646837 
L 297.258684 140.451892 
L 297.981745 137.634753 
L 298.704807 138.25035 
L 299.427868 137.175664 
L 300.150929 141.933498 
L 300.873991 132.699544 
L 301.597052 135.892301 
L 302.320113 136.841781 
L 303.043175 134.671541 
L 303.766236 134.525467 
L 304.489297 133.868135 
L 305.212359 137.196532 
L 305.93542 136.528766 
L 306.658481 132.28219 
L 307.381543 133.36731 
L 308.104604 132.021344 
L 308.827666 140.921415 
L 310.273788 133.722061 
L 310.99685 132.240455 
L 311.719911 137.551283 
L 312.442972 130.477135 
L 313.166034 129.360713 
L 313.889095 131.270107 
L 314.612156 135.109763 
L 315.335218 131.249239 
L 316.058279 129.97631 
L 316.78134 133.982907 
L 317.504402 134.942821 
L 318.227463 132.125682 
L 318.950524 136.111412 
L 319.673586 128.734682 
L 320.396647 132.668242 
L 321.119708 128.974661 
L 321.84277 128.536439 
L 322.565831 132.303058 
L 323.288892 128.713815 
L 324.011954 127.493055 
L 324.735015 135.67319 
L 325.458077 132.115249 
L 326.181138 131.217938 
L 326.904199 132.28219 
L 327.627261 135.443646 
L 328.350322 129.485919 
L 329.073383 135.370609 
L 329.796445 139.9302 
L 330.519506 135.391476 
L 331.242567 136.789612 
L 331.965629 127.054833 
L 332.68869 134.024643 
L 333.411751 131.969175 
L 334.134813 133.899436 
L 334.857874 131.530953 
L 335.580935 132.678676 
L 336.303997 129.475485 
L 337.027058 133.200369 
L 337.750119 126.011448 
L 338.473181 134.890652 
L 339.196242 127.607827 
L 339.919304 125.844507 
L 340.642365 128.411233 
L 341.365426 127.680864 
L 342.088488 131.937873 
L 342.811549 127.795636 
L 343.53461 127.482621 
L 344.257672 128.421667 
L 344.980733 126.470538 
L 345.703794 125.938411 
L 346.426856 129.725898 
L 347.149917 128.953793 
L 347.872978 129.538089 
L 348.59604 127.284378 
L 349.319101 129.402449 
L 350.042162 126.908759 
L 350.765224 125.990581 
L 352.211346 130.685812 
L 352.934408 128.400799 
L 353.657469 131.489218 
L 355.103592 132.14655 
L 355.826653 128.07735 
L 356.549715 126.825288 
L 357.272776 127.545224 
L 357.995837 125.990581 
L 358.718899 128.233858 
L 359.44196 132.501301 
L 360.165021 127.973012 
L 360.888083 129.339845 
L 361.611144 126.439236 
L 362.334205 129.725898 
L 363.057267 127.253076 
L 363.780328 128.609476 
L 364.503389 125.061968 
L 365.226451 126.115787 
L 365.949512 125.124571 
L 366.672573 129.131169 
L 367.395635 131.280541 
L 368.118696 129.204205 
L 368.841757 129.934575 
L 370.28788 125.051535 
L 371.010941 127.659996 
L 371.734003 128.369498 
L 372.457064 122.756088 
L 373.180126 127.659996 
L 373.903187 129.600692 
L 374.626248 130.143252 
L 375.34931 125.385418 
L 376.072371 126.981796 
L 376.795432 133.409046 
L 378.964616 127.899975 
L 379.687678 130.946658 
L 380.410739 129.70503 
L 381.1338 123.204744 
L 381.856862 126.950495 
L 382.579923 129.047698 
L 383.302984 125.625396 
L 384.026046 126.85659 
L 384.749107 127.837372 
L 385.472168 130.059781 
L 386.19523 130.310193 
L 386.918291 129.767633 
L 387.641353 127.743467 
L 388.364414 137.812129 
L 389.087475 128.223424 
L 389.810537 130.331061 
L 391.256659 124.321165 
L 391.979721 131.885704 
L 392.702782 129.548522 
L 393.425843 126.637479 
L 394.148905 126.99223 
L 394.871966 130.007612 
L 395.595027 123.60123 
L 396.318089 127.367848 
L 397.04115 129.058132 
L 397.764211 128.546873 
L 398.487273 125.802771 
L 398.487273 125.802771 
" clip-path="url(#p9d00e64c31)" style="fill: none; stroke: #2ca02c; stroke-width: 1.5; stroke-linecap: square"/>
   </g>
   <g id="line2d_23">
    <path d="M 73.832727 292.903954 
L 75.27885 287.336453 
L 76.001911 279.590365 
L 77.448034 271.81402 
L 78.171095 263.311478 
L 78.894157 261.707796 
L 79.617218 252.872415 
L 80.340279 248.908596 
L 81.063341 248.787564 
L 81.786402 249.090145 
L 83.232525 229.33157 
L 83.955586 229.210538 
L 84.678647 227.001692 
L 85.401709 227.213499 
L 86.12477 215.7154 
L 86.847832 212.205454 
L 87.570893 217.954504 
L 88.293954 210.178158 
L 89.017016 211.600291 
L 89.740077 207.182601 
L 90.463138 205.367111 
L 91.1862 202.28078 
L 91.909261 202.401812 
L 92.632322 200.162709 
L 93.355384 198.316961 
L 94.078445 198.801092 
L 94.801506 198.468252 
L 95.524568 214.384042 
L 96.247629 224.006135 
L 96.97069 223.824586 
L 97.693752 217.409857 
L 98.416813 206.940536 
L 99.139874 207.091826 
L 99.862936 208.877057 
L 100.585997 210.087384 
L 101.309059 208.241636 
L 102.03212 203.884462 
L 102.755181 208.241636 
L 104.201304 195.775276 
L 104.924365 198.861608 
L 105.647427 195.412179 
L 106.370488 190.086743 
L 107.093549 192.809977 
L 109.262733 187.242477 
L 109.985795 185.88086 
L 110.708856 184.035112 
L 111.431917 181.160588 
L 112.87804 179.526647 
L 113.601101 177.438835 
L 114.324163 176.379799 
L 115.047224 171.720043 
L 115.770285 174.201212 
L 116.493347 173.353984 
L 117.216408 168.421904 
L 117.93947 172.718562 
L 118.662531 171.145138 
L 119.385592 166.303834 
L 120.108654 165.063249 
L 120.831715 170.963589 
L 121.554776 163.368792 
L 122.277838 164.094988 
L 123.000899 164.488344 
L 123.72396 163.973956 
L 124.447022 164.609377 
L 126.616206 159.677298 
L 127.339267 160.040395 
L 128.062328 160.221944 
L 128.78539 157.407936 
L 129.508451 156.68174 
L 130.231512 158.951102 
L 130.954574 157.771034 
L 131.677635 159.46549 
L 132.400696 159.253683 
L 133.123758 157.922325 
L 133.846819 154.079539 
L 134.569881 156.076577 
L 135.292942 156.288384 
L 136.016003 156.923805 
L 136.739065 155.985803 
L 137.462126 155.925286 
L 138.185187 156.318642 
L 138.908249 179.64768 
L 139.63131 179.254324 
L 140.354371 182.491946 
L 141.077433 178.195288 
L 141.800494 180.94878 
L 142.523555 180.979039 
L 143.246617 181.644718 
L 143.969678 174.624826 
L 144.692739 180.101552 
L 145.415801 183.58124 
L 146.138862 176.652122 
L 146.861923 182.522205 
L 147.584985 179.587163 
L 148.308046 174.897149 
L 149.031108 179.345098 
L 149.754169 172.74882 
L 150.47723 178.16503 
L 151.200292 179.254324 
L 151.923353 175.593087 
L 152.646414 181.826267 
L 153.369476 175.835152 
L 154.092537 177.257286 
L 154.815598 174.110437 
L 155.53866 168.058806 
L 156.261721 169.299391 
L 156.984782 169.48094 
L 157.707844 165.880219 
L 158.430905 173.111918 
L 159.153966 166.243317 
L 159.877028 169.238875 
L 160.600089 169.904554 
L 161.32315 167.453643 
L 162.046212 171.054364 
L 162.769273 166.213059 
L 163.492334 160.252203 
L 164.215396 160.917882 
L 164.938457 173.505274 
L 165.661519 169.874296 
L 166.38458 173.384242 
L 167.107641 161.492787 
L 167.830703 169.692747 
L 169.276825 171.568752 
L 169.999887 165.244798 
L 170.722948 170.509717 
L 171.446009 162.249241 
L 172.169071 172.74882 
L 172.892132 165.517121 
L 173.615193 160.94814 
L 174.338255 168.512679 
L 175.061316 161.583561 
L 175.784377 165.123765 
L 176.507439 165.819703 
L 177.2305 162.854404 
L 177.953561 163.883181 
L 179.399684 159.647039 
L 180.122745 166.787964 
L 180.845807 166.36435 
L 181.568868 160.373235 
L 182.29193 160.978398 
L 183.014991 161.190205 
L 183.738052 156.379159 
L 184.461114 161.008656 
L 185.184175 163.126727 
L 185.907236 166.606415 
L 186.630298 166.122285 
L 187.353359 157.922325 
L 188.07642 158.224906 
L 188.799482 167.090546 
L 189.522543 161.492787 
L 190.245604 169.027067 
L 191.691727 155.925286 
L 192.414788 162.158466 
L 193.13785 159.79833 
L 193.860911 153.323085 
L 194.583972 164.427828 
L 195.307034 156.19761 
L 196.030095 157.892066 
L 196.753157 157.196129 
L 197.476218 161.008656 
L 198.199279 156.590966 
L 199.645402 155.773996 
L 200.368463 161.523045 
L 201.814586 155.199091 
L 202.537647 163.5806 
L 203.260709 155.622705 
L 203.98377 161.159947 
L 204.706831 159.011618 
L 205.429893 153.444118 
L 206.152954 155.622705 
L 206.876015 158.739295 
L 207.599077 157.680259 
L 208.322138 156.076577 
L 209.045199 158.073615 
L 209.768261 154.079539 
L 210.491322 156.560708 
L 211.214383 157.34742 
L 211.937445 157.589485 
L 212.660506 156.500191 
L 213.383568 157.044838 
L 214.106629 157.256645 
L 214.82969 158.951102 
L 215.552752 156.923805 
L 216.275813 156.258126 
L 216.998874 157.317161 
L 217.721936 157.952583 
L 218.444997 157.801292 
L 219.168058 156.742257 
L 219.89112 156.802773 
L 220.614181 159.253683 
L 221.337242 157.83155 
L 222.060304 155.86477 
L 222.783365 155.592447 
L 223.506426 156.076577 
L 224.229488 158.436713 
L 224.952549 156.954064 
L 226.398672 178.16503 
L 227.121733 185.88086 
L 227.844794 174.987924 
L 228.567856 174.534052 
L 229.290917 176.984962 
L 230.013979 165.577638 
L 230.73704 169.117842 
L 231.460101 179.526647 
L 232.183163 170.328168 
L 232.906224 173.868372 
L 233.629285 173.263209 
L 234.352347 186.304474 
L 235.075408 177.136253 
L 235.798469 183.399691 
L 236.521531 165.819703 
L 237.244592 168.512679 
L 237.967653 166.999771 
L 238.690715 166.878738 
L 239.413776 176.349541 
L 240.136837 165.002733 
L 240.859899 180.404134 
L 241.58296 165.335573 
L 242.306021 166.424866 
L 243.029083 166.273575 
L 243.752144 174.322245 
L 244.475206 174.473535 
L 245.198267 182.612979 
L 245.921328 168.240355 
L 246.64439 174.413019 
L 247.367451 172.022625 
L 248.090512 167.816741 
L 248.813574 172.446239 
L 249.536635 178.286063 
L 250.259696 169.390165 
L 250.982758 168.482421 
L 251.705819 171.568752 
L 252.42888 167.877258 
L 253.151942 173.89863 
L 253.875003 186.36499 
L 254.598064 177.650642 
L 255.321126 174.957666 
L 256.044187 169.753263 
L 256.767248 173.656565 
L 257.49031 159.737814 
L 258.213371 167.211578 
L 258.936432 183.641756 
L 259.659494 177.075737 
L 260.382555 168.633711 
L 261.105617 171.538494 
L 261.828678 163.520083 
L 262.551739 172.74882 
L 263.274801 171.992367 
L 263.997862 170.721524 
L 264.720923 158.255164 
L 266.167046 172.990886 
L 266.890107 166.152543 
L 267.613169 187.121444 
L 268.33623 167.816741 
L 269.059291 179.072775 
L 269.782353 177.257286 
L 270.505414 180.525166 
L 271.228475 173.384242 
L 271.951537 170.328168 
L 272.674598 171.568752 
L 273.397659 169.571714 
L 274.120721 170.812299 
L 274.843782 159.193167 
L 275.566843 162.400532 
L 276.289905 169.96507 
L 277.012966 168.089065 
L 277.736028 155.925286 
L 278.459089 164.004214 
L 279.18215 169.571714 
L 280.628273 159.889105 
L 281.351334 180.192327 
L 282.074396 169.632231 
L 282.797457 163.973956 
L 283.520518 180.585683 
L 284.24358 165.275056 
L 284.966641 179.31484 
L 285.689702 168.936293 
L 286.412764 161.038915 
L 287.135825 163.035953 
L 287.858886 172.022625 
L 288.581948 171.810818 
L 289.305009 164.39757 
L 290.02807 178.316321 
L 290.751132 165.456605 
L 291.474193 166.243317 
L 292.197255 166.515641 
L 293.643377 163.520083 
L 294.366439 179.738454 
L 295.0895 168.875777 
L 295.812561 161.886143 
L 296.535623 167.030029 
L 297.258684 157.922325 
L 297.981745 165.184282 
L 298.704807 168.512679 
L 299.427868 161.220463 
L 300.150929 165.759187 
L 300.873991 168.119323 
L 301.597052 163.701632 
L 302.320113 163.399051 
L 303.043175 163.24776 
L 303.766236 162.279499 
L 304.489297 157.49871 
L 305.212359 153.928248 
L 305.93542 165.789445 
L 306.658481 160.342977 
L 307.381543 160.524526 
L 308.104604 156.500191 
L 308.827666 168.906035 
L 309.550727 168.179839 
L 310.273788 160.94814 
L 310.99685 164.306795 
L 311.719911 163.156985 
L 312.442972 165.940736 
L 313.166034 153.595408 
L 313.889095 167.151062 
L 314.612156 171.538494 
L 315.335218 159.677298 
L 316.058279 161.069173 
L 316.78134 163.126727 
L 317.504402 167.99829 
L 318.227463 165.426347 
L 318.950524 166.878738 
L 319.673586 156.863289 
L 320.396647 164.306795 
L 321.119708 153.41386 
L 321.84277 159.041876 
L 322.565831 170.872815 
L 323.288892 164.760668 
L 324.735015 156.106835 
L 325.458077 156.076577 
L 326.181138 160.161428 
L 326.904199 162.491306 
L 327.627261 161.825627 
L 328.350322 152.778438 
L 329.073383 159.858847 
L 329.796445 165.396089 
L 330.519506 162.642597 
L 331.242567 165.819703 
L 331.965629 164.155505 
L 332.68869 161.976917 
L 333.411751 170.600491 
L 334.134813 165.093507 
L 334.857874 168.694228 
L 335.580935 159.79833 
L 336.303997 164.488344 
L 337.027058 165.365831 
L 337.750119 153.595408 
L 338.473181 165.789445 
L 339.196242 157.861808 
L 339.919304 161.129689 
L 340.642365 165.032991 
L 341.365426 160.94814 
L 342.088488 158.64852 
L 342.811549 157.83155 
L 343.53461 164.246279 
L 344.257672 160.13117 
L 344.980733 159.041876 
L 345.703794 155.773996 
L 346.426856 163.459567 
L 347.149917 163.73189 
L 347.872978 162.733371 
L 348.59604 169.723005 
L 349.319101 161.341496 
L 350.042162 158.16439 
L 350.765224 168.512679 
L 351.488285 164.669893 
L 352.934408 160.221944 
L 353.657469 159.3142 
L 354.38053 156.409417 
L 355.103592 161.946659 
L 355.826653 159.344458 
L 356.549715 159.223425 
L 357.272776 159.344458 
L 357.995837 166.84848 
L 358.718899 169.541456 
L 359.44196 164.306795 
L 360.165021 165.002733 
L 360.888083 155.108316 
L 361.611144 156.318642 
L 362.334205 159.374716 
L 363.057267 163.73189 
L 363.780328 166.061768 
L 364.503389 153.474376 
L 365.226451 162.067692 
L 365.949512 155.562189 
L 366.672573 161.916401 
L 367.395635 157.619743 
L 368.118696 169.96507 
L 368.841757 161.553303 
L 369.564819 162.551822 
L 370.28788 160.070654 
L 371.010941 156.288384 
L 371.734003 155.108316 
L 372.457064 156.711998 
L 373.180126 162.672855 
L 373.903187 163.156985 
L 374.626248 162.854404 
L 375.34931 158.073615 
L 376.072371 162.491306 
L 376.795432 158.890586 
L 377.518494 167.453643 
L 378.241555 165.184282 
L 378.964616 168.210097 
L 379.687678 163.701632 
L 380.410739 164.669893 
L 381.1338 162.521564 
L 381.856862 156.833031 
L 382.579923 165.940736 
L 383.302984 169.1481 
L 384.026046 164.094988 
L 384.749107 160.13117 
L 385.472168 154.926767 
L 386.19523 165.426347 
L 386.918291 155.501672 
L 387.641353 161.613819 
L 388.364414 172.083141 
L 389.087475 158.49723 
L 389.810537 169.511198 
L 390.533598 161.553303 
L 391.256659 158.436713 
L 391.979721 166.515641 
L 392.702782 166.787964 
L 393.425843 158.739295 
L 394.148905 168.482421 
L 394.871966 164.518602 
L 395.595027 161.492787 
L 396.318089 157.771034 
L 397.04115 164.004214 
L 397.764211 160.706075 
L 398.487273 157.982841 
L 398.487273 157.982841 
" clip-path="url(#p9d00e64c31)" style="fill: none; stroke: #d62728; stroke-width: 1.5; stroke-linecap: square"/>
   </g>
   <g id="line2d_24">
    <path d="M 351.488285 75.01498 
L 352.211346 76.49763 
L 352.934408 74.893948 
L 353.657469 75.952983 
L 354.38053 78.071054 
L 355.103592 76.437113 
L 355.826653 73.986203 
L 356.549715 76.709437 
L 357.272776 74.803173 
L 357.995837 75.529369 
L 358.718899 80.09835 
L 359.44196 76.195048 
L 360.165021 77.435633 
L 360.888083 79.947059 
L 361.611144 76.830469 
L 362.334205 80.09835 
L 363.057267 77.042277 
L 363.780328 77.707956 
L 364.503389 78.918282 
L 365.226451 76.951502 
L 365.949512 80.491706 
L 366.672573 78.494668 
L 367.395635 79.341896 
L 368.118696 80.703513 
L 368.841757 78.040796 
L 370.28788 84.03191 
L 371.010941 81.581 
L 371.734003 77.738214 
L 372.457064 81.187644 
L 373.180126 83.638554 
L 373.903187 84.969913 
L 374.626248 84.001652 
L 375.34931 81.399451 
L 376.072371 84.062169 
L 376.795432 86.210497 
L 377.518494 83.335973 
L 378.241555 83.063649 
L 378.964616 85.575076 
L 379.687678 84.485783 
L 380.410739 83.820103 
L 381.1338 90.658446 
L 381.856862 85.393527 
L 382.579923 85.877658 
L 383.302984 89.296829 
L 384.026046 85.8474 
L 384.749107 86.180239 
L 385.472168 90.023025 
L 386.19523 90.900512 
L 386.918291 93.411938 
L 387.641353 89.175797 
L 388.364414 87.783922 
L 389.087475 91.535933 
L 389.810537 89.629669 
L 390.533598 94.803813 
L 391.256659 101.339575 
L 391.979721 95.711558 
L 392.702782 94.501232 
L 393.425843 99.524086 
L 394.148905 95.287944 
L 394.871966 97.073175 
L 395.595027 96.437754 
L 396.318089 95.34846 
L 397.04115 93.835553 
L 397.764211 95.136653 
L 398.487273 95.499751 
L 398.487273 95.499751 
" clip-path="url(#p9d00e64c31)" style="fill: none; stroke: #9467bd; stroke-width: 1.5; stroke-linecap: square"/>
   </g>
   <g id="line2d_25">
    <path d="M 351.488285 126.021882 
L 352.211346 130.623209 
L 352.934408 127.722599 
L 353.657469 129.621559 
L 354.38053 129.517221 
L 355.103592 128.995529 
L 355.826653 130.258024 
L 356.549715 127.493055 
L 357.272776 127.420018 
L 357.995837 128.306895 
L 358.718899 133.941172 
L 359.44196 126.282728 
L 360.165021 131.635292 
L 360.888083 130.779716 
L 361.611144 129.444184 
L 362.334205 132.949956 
L 363.057267 130.821452 
L 363.780328 132.219587 
L 364.503389 131.457916 
L 365.226451 129.715464 
L 365.949512 132.063079 
L 366.672573 123.32995 
L 367.395635 133.388178 
L 368.118696 135.360175 
L 368.841757 133.555119 
L 369.564819 132.793449 
L 370.28788 137.593018 
L 371.010941 133.398612 
L 371.734003 130.779716 
L 372.457064 131.583122 
L 373.180126 132.198719 
L 373.903187 132.96039 
L 374.626248 132.365661 
L 375.34931 133.920304 
L 376.072371 134.504599 
L 376.795432 136.424427 
L 377.518494 135.72536 
L 378.241555 132.177852 
L 378.964616 138.292086 
L 379.687678 139.836295 
L 380.410739 137.123495 
L 381.1338 138.43816 
L 381.856862 135.391476 
L 382.579923 139.700655 
L 383.302984 139.418941 
L 384.026046 135.151498 
L 384.749107 135.683624 
L 385.472168 141.2866 
L 386.19523 140.618834 
L 386.918291 136.727009 
L 387.641353 139.888464 
L 388.364414 134.629806 
L 389.087475 141.808292 
L 389.810537 139.418941 
L 390.533598 148.548557 
L 391.256659 152.043895 
L 391.979721 145.595778 
L 392.702782 144.928012 
L 393.425843 150.927474 
L 394.148905 145.053218 
L 394.871966 149.237191 
L 395.595027 145.178424 
L 396.318089 144.573261 
L 397.04115 145.574911 
L 397.764211 142.91428 
L 398.487273 146.284412 
L 398.487273 146.284412 
" clip-path="url(#p9d00e64c31)" style="fill: none; stroke: #8c564b; stroke-width: 1.5; stroke-linecap: square"/>
   </g>
   <g id="line2d_26">
    <path d="M 351.488285 170.812299 
L 352.211346 173.4145 
L 352.934408 161.795368 
L 353.657469 174.201212 
L 354.38053 174.261728 
L 355.103592 168.573195 
L 355.826653 153.323085 
L 356.549715 182.76427 
L 357.272776 168.119323 
L 357.995837 170.449201 
L 358.718899 190.661648 
L 359.44196 169.813779 
L 360.165021 173.535533 
L 360.888083 169.48094 
L 362.334205 177.287544 
L 363.057267 172.446239 
L 363.780328 175.502313 
L 364.503389 172.658046 
L 365.949512 194.141336 
L 366.672573 163.187244 
L 367.395635 181.100071 
L 368.118696 176.077218 
L 368.841757 167.151062 
L 369.564819 188.059447 
L 370.28788 195.926567 
L 371.734003 177.227027 
L 372.457064 184.942857 
L 373.180126 199.254964 
L 373.903187 187.938414 
L 374.626248 198.528768 
L 375.34931 185.578278 
L 376.072371 197.68154 
L 376.795432 202.129489 
L 377.518494 195.109597 
L 378.241555 185.638794 
L 378.964616 200.041676 
L 379.687678 197.076377 
L 380.410739 197.590766 
L 381.1338 206.880019 
L 381.856862 197.530249 
L 382.579923 199.254964 
L 383.302984 207.51544 
L 384.026046 181.553944 
L 384.749107 187.84764 
L 385.472168 209.996609 
L 386.19523 210.63203 
L 386.918291 200.949421 
L 387.641353 202.855685 
L 388.364414 206.21434 
L 389.087475 222.069613 
L 389.810537 224.338975 
L 391.256659 233.991326 
L 391.979721 214.958947 
L 392.702782 223.643037 
L 393.425843 235.473976 
L 394.148905 228.877698 
L 394.871966 226.396529 
L 395.595027 221.857806 
L 396.318089 218.922765 
L 397.04115 230.330089 
L 397.764211 226.789885 
L 398.487273 216.169273 
L 398.487273 216.169273 
" clip-path="url(#p9d00e64c31)" style="fill: none; stroke: #e377c2; stroke-width: 1.5; stroke-linecap: square"/>
   </g>
   <g id="patch_3">
    <path d="M 57.6 307.584 
L 57.6 41.472 
" style="fill: none; stroke: #000000; stroke-width: 0.8; stroke-linejoin: miter; stroke-linecap: square"/>
   </g>
   <g id="patch_4">
    <path d="M 414.72 307.584 
L 414.72 41.472 
" style="fill: none; stroke: #000000; stroke-width: 0.8; stroke-linejoin: miter; stroke-linecap: square"/>
   </g>
   <g id="patch_5">
    <path d="M 57.6 307.584 
L 414.72 307.584 
" style="fill: none; stroke: #000000; stroke-width: 0.8; stroke-linejoin: miter; stroke-linecap: square"/>
   </g>
   <g id="patch_6">
    <path d="M 57.6 41.472 
L 414.72 41.472 
" style="fill: none; stroke: #000000; stroke-width: 0.8; stroke-linejoin: miter; stroke-linecap: square"/>
   </g>
   <g id="text_22">
    <!-- Learning Curves -->
    <g transform="translate(187.37625 35.472) scale(0.12 -0.12)">
     <defs>
      <path id="DejaVuSans-4c" d="M 628 4666 
L 1259 4666 
L 1259 531 
L 3531 531 
L 3531 0 
L 628 0 
L 628 4666 
z
" transform="scale(0.015625)"/>
      <path id="DejaVuSans-65" d="M 3597 1894 
L 3597 1613 
L 953 1613 
Q 991 1019 1311 708 
Q 1631 397 2203 397 
Q 2534 397 2845 478 
Q 3156 559 3463 722 
L 3463 178 
Q 3153 47 2828 -22 
Q 2503 -91 2169 -91 
Q 1331 -91 842 396 
Q 353 884 353 1716 
Q 353 2575 817 3079 
Q 1281 3584 2069 3584 
Q 2775 3584 3186 3129 
Q 3597 2675 3597 1894 
z
M 3022 2063 
Q 3016 2534 2758 2815 
Q 2500 3097 2075 3097 
Q 1594 3097 1305 2825 
Q 1016 2553 972 2059 
L 3022 2063 
z
" transform="scale(0.015625)"/>
      <path id="DejaVuSans-6e" d="M 3513 2113 
L 3513 0 
L 2938 0 
L 2938 2094 
Q 2938 2591 2744 2837 
Q 2550 3084 2163 3084 
Q 1697 3084 1428 2787 
Q 1159 2491 1159 1978 
L 1159 0 
L 581 0 
L 581 3500 
L 1159 3500 
L 1159 2956 
Q 1366 3272 1645 3428 
Q 1925 3584 2291 3584 
Q 2894 3584 3203 3211 
Q 3513 2838 3513 2113 
z
" transform="scale(0.015625)"/>
      <path id="DejaVuSans-69" d="M 603 3500 
L 1178 3500 
L 1178 0 
L 603 0 
L 603 3500 
z
M 603 4863 
L 1178 4863 
L 1178 4134 
L 603 4134 
L 603 4863 
z
" transform="scale(0.015625)"/>
      <path id="DejaVuSans-67" d="M 2906 1791 
Q 2906 2416 2648 2759 
Q 2391 3103 1925 3103 
Q 1463 3103 1205 2759 
Q 947 2416 947 1791 
Q 947 1169 1205 825 
Q 1463 481 1925 481 
Q 2391 481 2648 825 
Q 2906 1169 2906 1791 
z
M 3481 434 
Q 3481 -459 3084 -895 
Q 2688 -1331 1869 -1331 
Q 1566 -1331 1297 -1286 
Q 1028 -1241 775 -1147 
L 775 -588 
Q 1028 -725 1275 -790 
Q 1522 -856 1778 -856 
Q 2344 -856 2625 -561 
Q 2906 -266 2906 331 
L 2906 616 
Q 2728 306 2450 153 
Q 2172 0 1784 0 
Q 1141 0 747 490 
Q 353 981 353 1791 
Q 353 2603 747 3093 
Q 1141 3584 1784 3584 
Q 2172 3584 2450 3431 
Q 2728 3278 2906 2969 
L 2906 3500 
L 3481 3500 
L 3481 434 
z
" transform="scale(0.015625)"/>
      <path id="DejaVuSans-20" transform="scale(0.015625)"/>
      <path id="DejaVuSans-43" d="M 4122 4306 
L 4122 3641 
Q 3803 3938 3442 4084 
Q 3081 4231 2675 4231 
Q 1875 4231 1450 3742 
Q 1025 3253 1025 2328 
Q 1025 1406 1450 917 
Q 1875 428 2675 428 
Q 3081 428 3442 575 
Q 3803 722 4122 1019 
L 4122 359 
Q 3791 134 3420 21 
Q 3050 -91 2638 -91 
Q 1578 -91 968 557 
Q 359 1206 359 2328 
Q 359 3453 968 4101 
Q 1578 4750 2638 4750 
Q 3056 4750 3426 4639 
Q 3797 4528 4122 4306 
z
" transform="scale(0.015625)"/>
      <path id="DejaVuSans-76" d="M 191 3500 
L 800 3500 
L 1894 563 
L 2988 3500 
L 3597 3500 
L 2284 0 
L 1503 0 
L 191 3500 
z
" transform="scale(0.015625)"/>
     </defs>
     <use xlink:href="#DejaVuSans-4c"/>
     <use xlink:href="#DejaVuSans-65" x="53.962891"/>
     <use xlink:href="#DejaVuSans-61" x="115.486328"/>
     <use xlink:href="#DejaVuSans-72" x="176.765625"/>
     <use xlink:href="#DejaVuSans-6e" x="216.128906"/>
     <use xlink:href="#DejaVuSans-69" x="279.507812"/>
     <use xlink:href="#DejaVuSans-6e" x="307.291016"/>
     <use xlink:href="#DejaVuSans-67" x="370.669922"/>
     <use xlink:href="#DejaVuSans-20" x="434.146484"/>
     <use xlink:href="#DejaVuSans-43" x="465.933594"/>
     <use xlink:href="#DejaVuSans-75" x="535.757812"/>
     <use xlink:href="#DejaVuSans-72" x="599.136719"/>
     <use xlink:href="#DejaVuSans-76" x="640.25"/>
     <use xlink:href="#DejaVuSans-65" x="699.429688"/>
     <use xlink:href="#DejaVuSans-73" x="760.953125"/>
    </g>
   </g>
   <g id="legend_1">
    <g id="patch_7">
     <path d="M 128.445937 302.584 
L 343.874063 302.584 
Q 345.874063 302.584 345.874063 300.584 
L 345.874063 198.837125 
Q 345.874063 196.837125 343.874063 196.837125 
L 128.445937 196.837125 
Q 126.445937 196.837125 126.445937 198.837125 
L 126.445937 300.584 
Q 126.445937 302.584 128.445937 302.584 
z
" style="fill: #ffffff; opacity: 0.8; stroke: #cccccc; stroke-linejoin: miter"/>
    </g>
    <g id="line2d_27">
     <path d="M 130.445937 204.935563 
L 140.445937 204.935563 
L 150.445937 204.935563 
" style="fill: none; stroke: #1f77b4; stroke-width: 1.5; stroke-linecap: square"/>
    </g>
    <g id="text_23">
     <!-- Train Accuracy -->
     <g transform="translate(158.445937 208.435563) scale(0.1 -0.1)">
      <defs>
       <path id="DejaVuSans-54" d="M -19 4666 
L 3928 4666 
L 3928 4134 
L 2272 4134 
L 2272 0 
L 1638 0 
L 1638 4134 
L -19 4134 
L -19 4666 
z
" transform="scale(0.015625)"/>
      </defs>
      <use xlink:href="#DejaVuSans-54"/>
      <use xlink:href="#DejaVuSans-72" x="46.333984"/>
      <use xlink:href="#DejaVuSans-61" x="87.447266"/>
      <use xlink:href="#DejaVuSans-69" x="148.726562"/>
      <use xlink:href="#DejaVuSans-6e" x="176.509766"/>
      <use xlink:href="#DejaVuSans-20" x="239.888672"/>
      <use xlink:href="#DejaVuSans-41" x="271.675781"/>
      <use xlink:href="#DejaVuSans-63" x="338.333984"/>
      <use xlink:href="#DejaVuSans-63" x="393.314453"/>
      <use xlink:href="#DejaVuSans-75" x="448.294922"/>
      <use xlink:href="#DejaVuSans-72" x="511.673828"/>
      <use xlink:href="#DejaVuSans-61" x="552.787109"/>
      <use xlink:href="#DejaVuSans-63" x="614.066406"/>
      <use xlink:href="#DejaVuSans-79" x="669.046875"/>
     </g>
    </g>
    <g id="line2d_28">
     <path d="M 130.445937 219.613688 
L 140.445937 219.613688 
L 150.445937 219.613688 
" style="fill: none; stroke: #ff7f0e; stroke-width: 1.5; stroke-linecap: square"/>
    </g>
    <g id="text_24">
     <!-- Validation Accuracy -->
     <g transform="translate(158.445937 223.113688) scale(0.1 -0.1)">
      <defs>
       <path id="DejaVuSans-56" d="M 1831 0 
L 50 4666 
L 709 4666 
L 2188 738 
L 3669 4666 
L 4325 4666 
L 2547 0 
L 1831 0 
z
" transform="scale(0.015625)"/>
       <path id="DejaVuSans-6c" d="M 603 4863 
L 1178 4863 
L 1178 0 
L 603 0 
L 603 4863 
z
" transform="scale(0.015625)"/>
       <path id="DejaVuSans-64" d="M 2906 2969 
L 2906 4863 
L 3481 4863 
L 3481 0 
L 2906 0 
L 2906 525 
Q 2725 213 2448 61 
Q 2172 -91 1784 -91 
Q 1150 -91 751 415 
Q 353 922 353 1747 
Q 353 2572 751 3078 
Q 1150 3584 1784 3584 
Q 2172 3584 2448 3432 
Q 2725 3281 2906 2969 
z
M 947 1747 
Q 947 1113 1208 752 
Q 1469 391 1925 391 
Q 2381 391 2643 752 
Q 2906 1113 2906 1747 
Q 2906 2381 2643 2742 
Q 2381 3103 1925 3103 
Q 1469 3103 1208 2742 
Q 947 2381 947 1747 
z
" transform="scale(0.015625)"/>
       <path id="DejaVuSans-74" d="M 1172 4494 
L 1172 3500 
L 2356 3500 
L 2356 3053 
L 1172 3053 
L 1172 1153 
Q 1172 725 1289 603 
Q 1406 481 1766 481 
L 2356 481 
L 2356 0 
L 1766 0 
Q 1100 0 847 248 
Q 594 497 594 1153 
L 594 3053 
L 172 3053 
L 172 3500 
L 594 3500 
L 594 4494 
L 1172 4494 
z
" transform="scale(0.015625)"/>
      </defs>
      <use xlink:href="#DejaVuSans-56"/>
      <use xlink:href="#DejaVuSans-61" x="60.658203"/>
      <use xlink:href="#DejaVuSans-6c" x="121.9375"/>
      <use xlink:href="#DejaVuSans-69" x="149.720703"/>
      <use xlink:href="#DejaVuSans-64" x="177.503906"/>
      <use xlink:href="#DejaVuSans-61" x="240.980469"/>
      <use xlink:href="#DejaVuSans-74" x="302.259766"/>
      <use xlink:href="#DejaVuSans-69" x="341.46875"/>
      <use xlink:href="#DejaVuSans-6f" x="369.251953"/>
      <use xlink:href="#DejaVuSans-6e" x="430.433594"/>
      <use xlink:href="#DejaVuSans-20" x="493.8125"/>
      <use xlink:href="#DejaVuSans-41" x="525.599609"/>
      <use xlink:href="#DejaVuSans-63" x="592.257812"/>
      <use xlink:href="#DejaVuSans-63" x="647.238281"/>
      <use xlink:href="#DejaVuSans-75" x="702.21875"/>
      <use xlink:href="#DejaVuSans-72" x="765.597656"/>
      <use xlink:href="#DejaVuSans-61" x="806.710938"/>
      <use xlink:href="#DejaVuSans-63" x="867.990234"/>
      <use xlink:href="#DejaVuSans-79" x="922.970703"/>
     </g>
    </g>
    <g id="line2d_29">
     <path d="M 130.445937 234.291812 
L 140.445937 234.291812 
L 150.445937 234.291812 
" style="fill: none; stroke: #2ca02c; stroke-width: 1.5; stroke-linecap: square"/>
    </g>
    <g id="text_25">
     <!-- Robust Validation Accuracy -->
     <g transform="translate(158.445937 237.791812) scale(0.1 -0.1)">
      <defs>
       <path id="DejaVuSans-52" d="M 2841 2188 
Q 3044 2119 3236 1894 
Q 3428 1669 3622 1275 
L 4263 0 
L 3584 0 
L 2988 1197 
Q 2756 1666 2539 1819 
Q 2322 1972 1947 1972 
L 1259 1972 
L 1259 0 
L 628 0 
L 628 4666 
L 2053 4666 
Q 2853 4666 3247 4331 
Q 3641 3997 3641 3322 
Q 3641 2881 3436 2590 
Q 3231 2300 2841 2188 
z
M 1259 4147 
L 1259 2491 
L 2053 2491 
Q 2509 2491 2742 2702 
Q 2975 2913 2975 3322 
Q 2975 3731 2742 3939 
Q 2509 4147 2053 4147 
L 1259 4147 
z
" transform="scale(0.015625)"/>
       <path id="DejaVuSans-62" d="M 3116 1747 
Q 3116 2381 2855 2742 
Q 2594 3103 2138 3103 
Q 1681 3103 1420 2742 
Q 1159 2381 1159 1747 
Q 1159 1113 1420 752 
Q 1681 391 2138 391 
Q 2594 391 2855 752 
Q 3116 1113 3116 1747 
z
M 1159 2969 
Q 1341 3281 1617 3432 
Q 1894 3584 2278 3584 
Q 2916 3584 3314 3078 
Q 3713 2572 3713 1747 
Q 3713 922 3314 415 
Q 2916 -91 2278 -91 
Q 1894 -91 1617 61 
Q 1341 213 1159 525 
L 1159 0 
L 581 0 
L 581 4863 
L 1159 4863 
L 1159 2969 
z
" transform="scale(0.015625)"/>
      </defs>
      <use xlink:href="#DejaVuSans-52"/>
      <use xlink:href="#DejaVuSans-6f" x="64.982422"/>
      <use xlink:href="#DejaVuSans-62" x="126.164062"/>
      <use xlink:href="#DejaVuSans-75" x="189.640625"/>
      <use xlink:href="#DejaVuSans-73" x="253.019531"/>
      <use xlink:href="#DejaVuSans-74" x="305.119141"/>
      <use xlink:href="#DejaVuSans-20" x="344.328125"/>
      <use xlink:href="#DejaVuSans-56" x="376.115234"/>
      <use xlink:href="#DejaVuSans-61" x="436.773438"/>
      <use xlink:href="#DejaVuSans-6c" x="498.052734"/>
      <use xlink:href="#DejaVuSans-69" x="525.835938"/>
      <use xlink:href="#DejaVuSans-64" x="553.619141"/>
      <use xlink:href="#DejaVuSans-61" x="617.095703"/>
      <use xlink:href="#DejaVuSans-74" x="678.375"/>
      <use xlink:href="#DejaVuSans-69" x="717.583984"/>
      <use xlink:href="#DejaVuSans-6f" x="745.367188"/>
      <use xlink:href="#DejaVuSans-6e" x="806.548828"/>
      <use xlink:href="#DejaVuSans-20" x="869.927734"/>
      <use xlink:href="#DejaVuSans-41" x="901.714844"/>
      <use xlink:href="#DejaVuSans-63" x="968.373047"/>
      <use xlink:href="#DejaVuSans-63" x="1023.353516"/>
      <use xlink:href="#DejaVuSans-75" x="1078.333984"/>
      <use xlink:href="#DejaVuSans-72" x="1141.712891"/>
      <use xlink:href="#DejaVuSans-61" x="1182.826172"/>
      <use xlink:href="#DejaVuSans-63" x="1244.105469"/>
      <use xlink:href="#DejaVuSans-79" x="1299.085938"/>
     </g>
    </g>
    <g id="line2d_30">
     <path d="M 130.445937 248.969938 
L 140.445937 248.969938 
L 150.445937 248.969938 
" style="fill: none; stroke: #d62728; stroke-width: 1.5; stroke-linecap: square"/>
    </g>
    <g id="text_26">
     <!-- Adversarial Validation Accuracy -->
     <g transform="translate(158.445937 252.469938) scale(0.1 -0.1)">
      <use xlink:href="#DejaVuSans-41"/>
      <use xlink:href="#DejaVuSans-64" x="66.658203"/>
      <use xlink:href="#DejaVuSans-76" x="130.134766"/>
      <use xlink:href="#DejaVuSans-65" x="189.314453"/>
      <use xlink:href="#DejaVuSans-72" x="250.837891"/>
      <use xlink:href="#DejaVuSans-73" x="291.951172"/>
      <use xlink:href="#DejaVuSans-61" x="344.050781"/>
      <use xlink:href="#DejaVuSans-72" x="405.330078"/>
      <use xlink:href="#DejaVuSans-69" x="446.443359"/>
      <use xlink:href="#DejaVuSans-61" x="474.226562"/>
      <use xlink:href="#DejaVuSans-6c" x="535.505859"/>
      <use xlink:href="#DejaVuSans-20" x="563.289062"/>
      <use xlink:href="#DejaVuSans-56" x="595.076172"/>
      <use xlink:href="#DejaVuSans-61" x="655.734375"/>
      <use xlink:href="#DejaVuSans-6c" x="717.013672"/>
      <use xlink:href="#DejaVuSans-69" x="744.796875"/>
      <use xlink:href="#DejaVuSans-64" x="772.580078"/>
      <use xlink:href="#DejaVuSans-61" x="836.056641"/>
      <use xlink:href="#DejaVuSans-74" x="897.335938"/>
      <use xlink:href="#DejaVuSans-69" x="936.544922"/>
      <use xlink:href="#DejaVuSans-6f" x="964.328125"/>
      <use xlink:href="#DejaVuSans-6e" x="1025.509766"/>
      <use xlink:href="#DejaVuSans-20" x="1088.888672"/>
      <use xlink:href="#DejaVuSans-41" x="1120.675781"/>
      <use xlink:href="#DejaVuSans-63" x="1187.333984"/>
      <use xlink:href="#DejaVuSans-63" x="1242.314453"/>
      <use xlink:href="#DejaVuSans-75" x="1297.294922"/>
      <use xlink:href="#DejaVuSans-72" x="1360.673828"/>
      <use xlink:href="#DejaVuSans-61" x="1401.787109"/>
      <use xlink:href="#DejaVuSans-63" x="1463.066406"/>
      <use xlink:href="#DejaVuSans-79" x="1518.046875"/>
     </g>
    </g>
    <g id="line2d_31">
     <path d="M 130.445937 263.648063 
L 140.445937 263.648063 
L 150.445937 263.648063 
" style="fill: none; stroke: #9467bd; stroke-width: 1.5; stroke-linecap: square"/>
    </g>
    <g id="text_27">
     <!-- SWA Validation Accuracy -->
     <g transform="translate(158.445937 267.148063) scale(0.1 -0.1)">
      <defs>
       <path id="DejaVuSans-53" d="M 3425 4513 
L 3425 3897 
Q 3066 4069 2747 4153 
Q 2428 4238 2131 4238 
Q 1616 4238 1336 4038 
Q 1056 3838 1056 3469 
Q 1056 3159 1242 3001 
Q 1428 2844 1947 2747 
L 2328 2669 
Q 3034 2534 3370 2195 
Q 3706 1856 3706 1288 
Q 3706 609 3251 259 
Q 2797 -91 1919 -91 
Q 1588 -91 1214 -16 
Q 841 59 441 206 
L 441 856 
Q 825 641 1194 531 
Q 1563 422 1919 422 
Q 2459 422 2753 634 
Q 3047 847 3047 1241 
Q 3047 1584 2836 1778 
Q 2625 1972 2144 2069 
L 1759 2144 
Q 1053 2284 737 2584 
Q 422 2884 422 3419 
Q 422 4038 858 4394 
Q 1294 4750 2059 4750 
Q 2388 4750 2728 4690 
Q 3069 4631 3425 4513 
z
" transform="scale(0.015625)"/>
       <path id="DejaVuSans-57" d="M 213 4666 
L 850 4666 
L 1831 722 
L 2809 4666 
L 3519 4666 
L 4500 722 
L 5478 4666 
L 6119 4666 
L 4947 0 
L 4153 0 
L 3169 4050 
L 2175 0 
L 1381 0 
L 213 4666 
z
" transform="scale(0.015625)"/>
      </defs>
      <use xlink:href="#DejaVuSans-53"/>
      <use xlink:href="#DejaVuSans-57" x="63.476562"/>
      <use xlink:href="#DejaVuSans-41" x="156.853516"/>
      <use xlink:href="#DejaVuSans-20" x="225.261719"/>
      <use xlink:href="#DejaVuSans-56" x="257.048828"/>
      <use xlink:href="#DejaVuSans-61" x="317.707031"/>
      <use xlink:href="#DejaVuSans-6c" x="378.986328"/>
      <use xlink:href="#DejaVuSans-69" x="406.769531"/>
      <use xlink:href="#DejaVuSans-64" x="434.552734"/>
      <use xlink:href="#DejaVuSans-61" x="498.029297"/>
      <use xlink:href="#DejaVuSans-74" x="559.308594"/>
      <use xlink:href="#DejaVuSans-69" x="598.517578"/>
      <use xlink:href="#DejaVuSans-6f" x="626.300781"/>
      <use xlink:href="#DejaVuSans-6e" x="687.482422"/>
      <use xlink:href="#DejaVuSans-20" x="750.861328"/>
      <use xlink:href="#DejaVuSans-41" x="782.648438"/>
      <use xlink:href="#DejaVuSans-63" x="849.306641"/>
      <use xlink:href="#DejaVuSans-63" x="904.287109"/>
      <use xlink:href="#DejaVuSans-75" x="959.267578"/>
      <use xlink:href="#DejaVuSans-72" x="1022.646484"/>
      <use xlink:href="#DejaVuSans-61" x="1063.759766"/>
      <use xlink:href="#DejaVuSans-63" x="1125.039062"/>
      <use xlink:href="#DejaVuSans-79" x="1180.019531"/>
     </g>
    </g>
    <g id="line2d_32">
     <path d="M 130.445937 278.326188 
L 140.445937 278.326188 
L 150.445937 278.326188 
" style="fill: none; stroke: #8c564b; stroke-width: 1.5; stroke-linecap: square"/>
    </g>
    <g id="text_28">
     <!-- SWA Robust Validation Accuracy -->
     <g transform="translate(158.445937 281.826188) scale(0.1 -0.1)">
      <use xlink:href="#DejaVuSans-53"/>
      <use xlink:href="#DejaVuSans-57" x="63.476562"/>
      <use xlink:href="#DejaVuSans-41" x="156.853516"/>
      <use xlink:href="#DejaVuSans-20" x="225.261719"/>
      <use xlink:href="#DejaVuSans-52" x="257.048828"/>
      <use xlink:href="#DejaVuSans-6f" x="322.03125"/>
      <use xlink:href="#DejaVuSans-62" x="383.212891"/>
      <use xlink:href="#DejaVuSans-75" x="446.689453"/>
      <use xlink:href="#DejaVuSans-73" x="510.068359"/>
      <use xlink:href="#DejaVuSans-74" x="562.167969"/>
      <use xlink:href="#DejaVuSans-20" x="601.376953"/>
      <use xlink:href="#DejaVuSans-56" x="633.164062"/>
      <use xlink:href="#DejaVuSans-61" x="693.822266"/>
      <use xlink:href="#DejaVuSans-6c" x="755.101562"/>
      <use xlink:href="#DejaVuSans-69" x="782.884766"/>
      <use xlink:href="#DejaVuSans-64" x="810.667969"/>
      <use xlink:href="#DejaVuSans-61" x="874.144531"/>
      <use xlink:href="#DejaVuSans-74" x="935.423828"/>
      <use xlink:href="#DejaVuSans-69" x="974.632812"/>
      <use xlink:href="#DejaVuSans-6f" x="1002.416016"/>
      <use xlink:href="#DejaVuSans-6e" x="1063.597656"/>
      <use xlink:href="#DejaVuSans-20" x="1126.976562"/>
      <use xlink:href="#DejaVuSans-41" x="1158.763672"/>
      <use xlink:href="#DejaVuSans-63" x="1225.421875"/>
      <use xlink:href="#DejaVuSans-63" x="1280.402344"/>
      <use xlink:href="#DejaVuSans-75" x="1335.382812"/>
      <use xlink:href="#DejaVuSans-72" x="1398.761719"/>
      <use xlink:href="#DejaVuSans-61" x="1439.875"/>
      <use xlink:href="#DejaVuSans-63" x="1501.154297"/>
      <use xlink:href="#DejaVuSans-79" x="1556.134766"/>
     </g>
    </g>
    <g id="line2d_33">
     <path d="M 130.445937 293.004312 
L 140.445937 293.004312 
L 150.445937 293.004312 
" style="fill: none; stroke: #e377c2; stroke-width: 1.5; stroke-linecap: square"/>
    </g>
    <g id="text_29">
     <!-- SWA Adversarial Validation Accuracy -->
     <g transform="translate(158.445937 296.504312) scale(0.1 -0.1)">
      <use xlink:href="#DejaVuSans-53"/>
      <use xlink:href="#DejaVuSans-57" x="63.476562"/>
      <use xlink:href="#DejaVuSans-41" x="156.853516"/>
      <use xlink:href="#DejaVuSans-20" x="225.261719"/>
      <use xlink:href="#DejaVuSans-41" x="257.048828"/>
      <use xlink:href="#DejaVuSans-64" x="323.707031"/>
      <use xlink:href="#DejaVuSans-76" x="387.183594"/>
      <use xlink:href="#DejaVuSans-65" x="446.363281"/>
      <use xlink:href="#DejaVuSans-72" x="507.886719"/>
      <use xlink:href="#DejaVuSans-73" x="549"/>
      <use xlink:href="#DejaVuSans-61" x="601.099609"/>
      <use xlink:href="#DejaVuSans-72" x="662.378906"/>
      <use xlink:href="#DejaVuSans-69" x="703.492188"/>
      <use xlink:href="#DejaVuSans-61" x="731.275391"/>
      <use xlink:href="#DejaVuSans-6c" x="792.554688"/>
      <use xlink:href="#DejaVuSans-20" x="820.337891"/>
      <use xlink:href="#DejaVuSans-56" x="852.125"/>
      <use xlink:href="#DejaVuSans-61" x="912.783203"/>
      <use xlink:href="#DejaVuSans-6c" x="974.0625"/>
      <use xlink:href="#DejaVuSans-69" x="1001.845703"/>
      <use xlink:href="#DejaVuSans-64" x="1029.628906"/>
      <use xlink:href="#DejaVuSans-61" x="1093.105469"/>
      <use xlink:href="#DejaVuSans-74" x="1154.384766"/>
      <use xlink:href="#DejaVuSans-69" x="1193.59375"/>
      <use xlink:href="#DejaVuSans-6f" x="1221.376953"/>
      <use xlink:href="#DejaVuSans-6e" x="1282.558594"/>
      <use xlink:href="#DejaVuSans-20" x="1345.9375"/>
      <use xlink:href="#DejaVuSans-41" x="1377.724609"/>
      <use xlink:href="#DejaVuSans-63" x="1444.382812"/>
      <use xlink:href="#DejaVuSans-63" x="1499.363281"/>
      <use xlink:href="#DejaVuSans-75" x="1554.34375"/>
      <use xlink:href="#DejaVuSans-72" x="1617.722656"/>
      <use xlink:href="#DejaVuSans-61" x="1658.835938"/>
      <use xlink:href="#DejaVuSans-63" x="1720.115234"/>
      <use xlink:href="#DejaVuSans-79" x="1775.095703"/>
     </g>
    </g>
   </g>
  </g>
 </g>
 <defs>
  <clipPath id="p9d00e64c31">
   <rect x="57.6" y="41.472" width="357.12" height="266.112"/>
  </clipPath>
 </defs>
</svg>
