<?xml version="1.0" encoding="utf-8" standalone="no"?>
<!DOCTYPE svg PUBLIC "-//W3C//DTD SVG 1.1//EN"
  "http://www.w3.org/Graphics/SVG/1.1/DTD/svg11.dtd">
<svg xmlns:xlink="http://www.w3.org/1999/xlink" width="460.8pt" height="345.6pt" viewBox="0 0 460.8 345.6" xmlns="http://www.w3.org/2000/svg" version="1.1">
 <metadata>
  <rdf:RDF xmlns:dc="http://purl.org/dc/elements/1.1/" xmlns:cc="http://creativecommons.org/ns#" xmlns:rdf="http://www.w3.org/1999/02/22-rdf-syntax-ns#">
   <cc:Work>
    <dc:type rdf:resource="http://purl.org/dc/dcmitype/StillImage"/>
    <dc:date>2024-08-20T14:46:48.917962</dc:date>
    <dc:format>image/svg+xml</dc:format>
    <dc:creator>
     <cc:Agent>
      <dc:title>Matplotlib v3.9.1, https://matplotlib.org/</dc:title>
     </cc:Agent>
    </dc:creator>
   </cc:Work>
  </rdf:RDF>
 </metadata>
 <defs>
  <style type="text/css">*{stroke-linejoin: round; stroke-linecap: butt}</style>
 </defs>
 <g id="figure_1">
  <g id="patch_1">
   <path d="M 0 345.6 
L 460.8 345.6 
L 460.8 0 
L 0 0 
z
" style="fill: #ffffff"/>
  </g>
  <g id="axes_1">
   <g id="patch_2">
    <path d="M 57.6 307.584 
L 414.72 307.584 
L 414.72 41.472 
L 57.6 41.472 
z
" style="fill: #ffffff"/>
   </g>
   <g id="matplotlib.axis_1">
    <g id="xtick_1">
     <g id="line2d_1">
      <defs>
       <path id="mf4fad8535a" d="M 0 0 
L 0 3.5 
" style="stroke: #000000; stroke-width: 0.8"/>
      </defs>
      <g>
       <use xlink:href="#mf4fad8535a" x="73.832727" y="307.584" style="stroke: #000000; stroke-width: 0.8"/>
      </g>
     </g>
     <g id="text_1">
      <!-- 1 -->
      <g transform="translate(70.651477 322.182437) scale(0.1 -0.1)">
       <defs>
        <path id="DejaVuSans-31" d="M 794 531 
L 1825 531 
L 1825 4091 
L 703 3866 
L 703 4441 
L 1819 4666 
L 2450 4666 
L 2450 531 
L 3481 531 
L 3481 0 
L 794 0 
L 794 531 
z
" transform="scale(0.015625)"/>
       </defs>
       <use xlink:href="#DejaVuSans-31"/>
      </g>
     </g>
    </g>
    <g id="xtick_2">
     <g id="line2d_2">
      <g>
       <use xlink:href="#mf4fad8535a" x="109.262733" y="307.584" style="stroke: #000000; stroke-width: 0.8"/>
      </g>
     </g>
     <g id="text_2">
      <!-- 50 -->
      <g transform="translate(102.900233 322.182437) scale(0.1 -0.1)">
       <defs>
        <path id="DejaVuSans-35" d="M 691 4666 
L 3169 4666 
L 3169 4134 
L 1269 4134 
L 1269 2991 
Q 1406 3038 1543 3061 
Q 1681 3084 1819 3084 
Q 2600 3084 3056 2656 
Q 3513 2228 3513 1497 
Q 3513 744 3044 326 
Q 2575 -91 1722 -91 
Q 1428 -91 1123 -41 
Q 819 9 494 109 
L 494 744 
Q 775 591 1075 516 
Q 1375 441 1709 441 
Q 2250 441 2565 725 
Q 2881 1009 2881 1497 
Q 2881 1984 2565 2268 
Q 2250 2553 1709 2553 
Q 1456 2553 1204 2497 
Q 953 2441 691 2322 
L 691 4666 
z
" transform="scale(0.015625)"/>
        <path id="DejaVuSans-30" d="M 2034 4250 
Q 1547 4250 1301 3770 
Q 1056 3291 1056 2328 
Q 1056 1369 1301 889 
Q 1547 409 2034 409 
Q 2525 409 2770 889 
Q 3016 1369 3016 2328 
Q 3016 3291 2770 3770 
Q 2525 4250 2034 4250 
z
M 2034 4750 
Q 2819 4750 3233 4129 
Q 3647 3509 3647 2328 
Q 3647 1150 3233 529 
Q 2819 -91 2034 -91 
Q 1250 -91 836 529 
Q 422 1150 422 2328 
Q 422 3509 836 4129 
Q 1250 4750 2034 4750 
z
" transform="scale(0.015625)"/>
       </defs>
       <use xlink:href="#DejaVuSans-35"/>
       <use xlink:href="#DejaVuSans-30" x="63.623047"/>
      </g>
     </g>
    </g>
    <g id="xtick_3">
     <g id="line2d_3">
      <g>
       <use xlink:href="#mf4fad8535a" x="145.415801" y="307.584" style="stroke: #000000; stroke-width: 0.8"/>
      </g>
     </g>
     <g id="text_3">
      <!-- 100 -->
      <g transform="translate(135.872051 322.182437) scale(0.1 -0.1)">
       <use xlink:href="#DejaVuSans-31"/>
       <use xlink:href="#DejaVuSans-30" x="63.623047"/>
       <use xlink:href="#DejaVuSans-30" x="127.246094"/>
      </g>
     </g>
    </g>
    <g id="xtick_4">
     <g id="line2d_4">
      <g>
       <use xlink:href="#mf4fad8535a" x="181.568868" y="307.584" style="stroke: #000000; stroke-width: 0.8"/>
      </g>
     </g>
     <g id="text_4">
      <!-- 150 -->
      <g transform="translate(172.025118 322.182437) scale(0.1 -0.1)">
       <use xlink:href="#DejaVuSans-31"/>
       <use xlink:href="#DejaVuSans-35" x="63.623047"/>
       <use xlink:href="#DejaVuSans-30" x="127.246094"/>
      </g>
     </g>
    </g>
    <g id="xtick_5">
     <g id="line2d_5">
      <g>
       <use xlink:href="#mf4fad8535a" x="217.721936" y="307.584" style="stroke: #000000; stroke-width: 0.8"/>
      </g>
     </g>
     <g id="text_5">
      <!-- 200 -->
      <g transform="translate(208.178186 322.182437) scale(0.1 -0.1)">
       <defs>
        <path id="DejaVuSans-32" d="M 1228 531 
L 3431 531 
L 3431 0 
L 469 0 
L 469 531 
Q 828 903 1448 1529 
Q 2069 2156 2228 2338 
Q 2531 2678 2651 2914 
Q 2772 3150 2772 3378 
Q 2772 3750 2511 3984 
Q 2250 4219 1831 4219 
Q 1534 4219 1204 4116 
Q 875 4013 500 3803 
L 500 4441 
Q 881 4594 1212 4672 
Q 1544 4750 1819 4750 
Q 2544 4750 2975 4387 
Q 3406 4025 3406 3419 
Q 3406 3131 3298 2873 
Q 3191 2616 2906 2266 
Q 2828 2175 2409 1742 
Q 1991 1309 1228 531 
z
" transform="scale(0.015625)"/>
       </defs>
       <use xlink:href="#DejaVuSans-32"/>
       <use xlink:href="#DejaVuSans-30" x="63.623047"/>
       <use xlink:href="#DejaVuSans-30" x="127.246094"/>
      </g>
     </g>
    </g>
    <g id="xtick_6">
     <g id="line2d_6">
      <g>
       <use xlink:href="#mf4fad8535a" x="253.875003" y="307.584" style="stroke: #000000; stroke-width: 0.8"/>
      </g>
     </g>
     <g id="text_6">
      <!-- 250 -->
      <g transform="translate(244.331253 322.182437) scale(0.1 -0.1)">
       <use xlink:href="#DejaVuSans-32"/>
       <use xlink:href="#DejaVuSans-35" x="63.623047"/>
       <use xlink:href="#DejaVuSans-30" x="127.246094"/>
      </g>
     </g>
    </g>
    <g id="xtick_7">
     <g id="line2d_7">
      <g>
       <use xlink:href="#mf4fad8535a" x="290.02807" y="307.584" style="stroke: #000000; stroke-width: 0.8"/>
      </g>
     </g>
     <g id="text_7">
      <!-- 300 -->
      <g transform="translate(280.48432 322.182437) scale(0.1 -0.1)">
       <defs>
        <path id="DejaVuSans-33" d="M 2597 2516 
Q 3050 2419 3304 2112 
Q 3559 1806 3559 1356 
Q 3559 666 3084 287 
Q 2609 -91 1734 -91 
Q 1441 -91 1130 -33 
Q 819 25 488 141 
L 488 750 
Q 750 597 1062 519 
Q 1375 441 1716 441 
Q 2309 441 2620 675 
Q 2931 909 2931 1356 
Q 2931 1769 2642 2001 
Q 2353 2234 1838 2234 
L 1294 2234 
L 1294 2753 
L 1863 2753 
Q 2328 2753 2575 2939 
Q 2822 3125 2822 3475 
Q 2822 3834 2567 4026 
Q 2313 4219 1838 4219 
Q 1578 4219 1281 4162 
Q 984 4106 628 3988 
L 628 4550 
Q 988 4650 1302 4700 
Q 1616 4750 1894 4750 
Q 2613 4750 3031 4423 
Q 3450 4097 3450 3541 
Q 3450 3153 3228 2886 
Q 3006 2619 2597 2516 
z
" transform="scale(0.015625)"/>
       </defs>
       <use xlink:href="#DejaVuSans-33"/>
       <use xlink:href="#DejaVuSans-30" x="63.623047"/>
       <use xlink:href="#DejaVuSans-30" x="127.246094"/>
      </g>
     </g>
    </g>
    <g id="xtick_8">
     <g id="line2d_8">
      <g>
       <use xlink:href="#mf4fad8535a" x="326.181138" y="307.584" style="stroke: #000000; stroke-width: 0.8"/>
      </g>
     </g>
     <g id="text_8">
      <!-- 350 -->
      <g transform="translate(316.637388 322.182437) scale(0.1 -0.1)">
       <use xlink:href="#DejaVuSans-33"/>
       <use xlink:href="#DejaVuSans-35" x="63.623047"/>
       <use xlink:href="#DejaVuSans-30" x="127.246094"/>
      </g>
     </g>
    </g>
    <g id="xtick_9">
     <g id="line2d_9">
      <g>
       <use xlink:href="#mf4fad8535a" x="362.334205" y="307.584" style="stroke: #000000; stroke-width: 0.8"/>
      </g>
     </g>
     <g id="text_9">
      <!-- 400 -->
      <g transform="translate(352.790455 322.182437) scale(0.1 -0.1)">
       <defs>
        <path id="DejaVuSans-34" d="M 2419 4116 
L 825 1625 
L 2419 1625 
L 2419 4116 
z
M 2253 4666 
L 3047 4666 
L 3047 1625 
L 3713 1625 
L 3713 1100 
L 3047 1100 
L 3047 0 
L 2419 0 
L 2419 1100 
L 313 1100 
L 313 1709 
L 2253 4666 
z
" transform="scale(0.015625)"/>
       </defs>
       <use xlink:href="#DejaVuSans-34"/>
       <use xlink:href="#DejaVuSans-30" x="63.623047"/>
       <use xlink:href="#DejaVuSans-30" x="127.246094"/>
      </g>
     </g>
    </g>
    <g id="xtick_10">
     <g id="line2d_10">
      <g>
       <use xlink:href="#mf4fad8535a" x="398.487273" y="307.584" style="stroke: #000000; stroke-width: 0.8"/>
      </g>
     </g>
     <g id="text_10">
      <!-- 450 -->
      <g transform="translate(388.943523 322.182437) scale(0.1 -0.1)">
       <use xlink:href="#DejaVuSans-34"/>
       <use xlink:href="#DejaVuSans-35" x="63.623047"/>
       <use xlink:href="#DejaVuSans-30" x="127.246094"/>
      </g>
     </g>
    </g>
    <g id="text_11">
     <!-- Epochs -->
     <g transform="translate(218.244375 335.860562) scale(0.1 -0.1)">
      <defs>
       <path id="DejaVuSans-45" d="M 628 4666 
L 3578 4666 
L 3578 4134 
L 1259 4134 
L 1259 2753 
L 3481 2753 
L 3481 2222 
L 1259 2222 
L 1259 531 
L 3634 531 
L 3634 0 
L 628 0 
L 628 4666 
z
" transform="scale(0.015625)"/>
       <path id="DejaVuSans-70" d="M 1159 525 
L 1159 -1331 
L 581 -1331 
L 581 3500 
L 1159 3500 
L 1159 2969 
Q 1341 3281 1617 3432 
Q 1894 3584 2278 3584 
Q 2916 3584 3314 3078 
Q 3713 2572 3713 1747 
Q 3713 922 3314 415 
Q 2916 -91 2278 -91 
Q 1894 -91 1617 61 
Q 1341 213 1159 525 
z
M 3116 1747 
Q 3116 2381 2855 2742 
Q 2594 3103 2138 3103 
Q 1681 3103 1420 2742 
Q 1159 2381 1159 1747 
Q 1159 1113 1420 752 
Q 1681 391 2138 391 
Q 2594 391 2855 752 
Q 3116 1113 3116 1747 
z
" transform="scale(0.015625)"/>
       <path id="DejaVuSans-6f" d="M 1959 3097 
Q 1497 3097 1228 2736 
Q 959 2375 959 1747 
Q 959 1119 1226 758 
Q 1494 397 1959 397 
Q 2419 397 2687 759 
Q 2956 1122 2956 1747 
Q 2956 2369 2687 2733 
Q 2419 3097 1959 3097 
z
M 1959 3584 
Q 2709 3584 3137 3096 
Q 3566 2609 3566 1747 
Q 3566 888 3137 398 
Q 2709 -91 1959 -91 
Q 1206 -91 779 398 
Q 353 888 353 1747 
Q 353 2609 779 3096 
Q 1206 3584 1959 3584 
z
" transform="scale(0.015625)"/>
       <path id="DejaVuSans-63" d="M 3122 3366 
L 3122 2828 
Q 2878 2963 2633 3030 
Q 2388 3097 2138 3097 
Q 1578 3097 1268 2742 
Q 959 2388 959 1747 
Q 959 1106 1268 751 
Q 1578 397 2138 397 
Q 2388 397 2633 464 
Q 2878 531 3122 666 
L 3122 134 
Q 2881 22 2623 -34 
Q 2366 -91 2075 -91 
Q 1284 -91 818 406 
Q 353 903 353 1747 
Q 353 2603 823 3093 
Q 1294 3584 2113 3584 
Q 2378 3584 2631 3529 
Q 2884 3475 3122 3366 
z
" transform="scale(0.015625)"/>
       <path id="DejaVuSans-68" d="M 3513 2113 
L 3513 0 
L 2938 0 
L 2938 2094 
Q 2938 2591 2744 2837 
Q 2550 3084 2163 3084 
Q 1697 3084 1428 2787 
Q 1159 2491 1159 1978 
L 1159 0 
L 581 0 
L 581 4863 
L 1159 4863 
L 1159 2956 
Q 1366 3272 1645 3428 
Q 1925 3584 2291 3584 
Q 2894 3584 3203 3211 
Q 3513 2838 3513 2113 
z
" transform="scale(0.015625)"/>
       <path id="DejaVuSans-73" d="M 2834 3397 
L 2834 2853 
Q 2591 2978 2328 3040 
Q 2066 3103 1784 3103 
Q 1356 3103 1142 2972 
Q 928 2841 928 2578 
Q 928 2378 1081 2264 
Q 1234 2150 1697 2047 
L 1894 2003 
Q 2506 1872 2764 1633 
Q 3022 1394 3022 966 
Q 3022 478 2636 193 
Q 2250 -91 1575 -91 
Q 1294 -91 989 -36 
Q 684 19 347 128 
L 347 722 
Q 666 556 975 473 
Q 1284 391 1588 391 
Q 1994 391 2212 530 
Q 2431 669 2431 922 
Q 2431 1156 2273 1281 
Q 2116 1406 1581 1522 
L 1381 1569 
Q 847 1681 609 1914 
Q 372 2147 372 2553 
Q 372 3047 722 3315 
Q 1072 3584 1716 3584 
Q 2034 3584 2315 3537 
Q 2597 3491 2834 3397 
z
" transform="scale(0.015625)"/>
      </defs>
      <use xlink:href="#DejaVuSans-45"/>
      <use xlink:href="#DejaVuSans-70" x="63.183594"/>
      <use xlink:href="#DejaVuSans-6f" x="126.660156"/>
      <use xlink:href="#DejaVuSans-63" x="187.841797"/>
      <use xlink:href="#DejaVuSans-68" x="242.822266"/>
      <use xlink:href="#DejaVuSans-73" x="306.201172"/>
     </g>
    </g>
   </g>
   <g id="matplotlib.axis_2">
    <g id="ytick_1">
     <g id="line2d_11">
      <defs>
       <path id="mf66068aeca" d="M 0 0 
L -3.5 0 
" style="stroke: #000000; stroke-width: 0.8"/>
      </defs>
      <g>
       <use xlink:href="#mf66068aeca" x="57.6" y="284.798328" style="stroke: #000000; stroke-width: 0.8"/>
      </g>
     </g>
     <g id="text_12">
      <!-- 10 -->
      <g transform="translate(37.875 288.597546) scale(0.1 -0.1)">
       <use xlink:href="#DejaVuSans-31"/>
       <use xlink:href="#DejaVuSans-30" x="63.623047"/>
      </g>
     </g>
    </g>
    <g id="ytick_2">
     <g id="line2d_12">
      <g>
       <use xlink:href="#mf66068aeca" x="57.6" y="254.378088" style="stroke: #000000; stroke-width: 0.8"/>
      </g>
     </g>
     <g id="text_13">
      <!-- 20 -->
      <g transform="translate(37.875 258.177307) scale(0.1 -0.1)">
       <use xlink:href="#DejaVuSans-32"/>
       <use xlink:href="#DejaVuSans-30" x="63.623047"/>
      </g>
     </g>
    </g>
    <g id="ytick_3">
     <g id="line2d_13">
      <g>
       <use xlink:href="#mf66068aeca" x="57.6" y="223.957848" style="stroke: #000000; stroke-width: 0.8"/>
      </g>
     </g>
     <g id="text_14">
      <!-- 30 -->
      <g transform="translate(37.875 227.757067) scale(0.1 -0.1)">
       <use xlink:href="#DejaVuSans-33"/>
       <use xlink:href="#DejaVuSans-30" x="63.623047"/>
      </g>
     </g>
    </g>
    <g id="ytick_4">
     <g id="line2d_14">
      <g>
       <use xlink:href="#mf66068aeca" x="57.6" y="193.537608" style="stroke: #000000; stroke-width: 0.8"/>
      </g>
     </g>
     <g id="text_15">
      <!-- 40 -->
      <g transform="translate(37.875 197.336827) scale(0.1 -0.1)">
       <use xlink:href="#DejaVuSans-34"/>
       <use xlink:href="#DejaVuSans-30" x="63.623047"/>
      </g>
     </g>
    </g>
    <g id="ytick_5">
     <g id="line2d_15">
      <g>
       <use xlink:href="#mf66068aeca" x="57.6" y="163.117368" style="stroke: #000000; stroke-width: 0.8"/>
      </g>
     </g>
     <g id="text_16">
      <!-- 50 -->
      <g transform="translate(37.875 166.916587) scale(0.1 -0.1)">
       <use xlink:href="#DejaVuSans-35"/>
       <use xlink:href="#DejaVuSans-30" x="63.623047"/>
      </g>
     </g>
    </g>
    <g id="ytick_6">
     <g id="line2d_16">
      <g>
       <use xlink:href="#mf66068aeca" x="57.6" y="132.697128" style="stroke: #000000; stroke-width: 0.8"/>
      </g>
     </g>
     <g id="text_17">
      <!-- 60 -->
      <g transform="translate(37.875 136.496347) scale(0.1 -0.1)">
       <defs>
        <path id="DejaVuSans-36" d="M 2113 2584 
Q 1688 2584 1439 2293 
Q 1191 2003 1191 1497 
Q 1191 994 1439 701 
Q 1688 409 2113 409 
Q 2538 409 2786 701 
Q 3034 994 3034 1497 
Q 3034 2003 2786 2293 
Q 2538 2584 2113 2584 
z
M 3366 4563 
L 3366 3988 
Q 3128 4100 2886 4159 
Q 2644 4219 2406 4219 
Q 1781 4219 1451 3797 
Q 1122 3375 1075 2522 
Q 1259 2794 1537 2939 
Q 1816 3084 2150 3084 
Q 2853 3084 3261 2657 
Q 3669 2231 3669 1497 
Q 3669 778 3244 343 
Q 2819 -91 2113 -91 
Q 1303 -91 875 529 
Q 447 1150 447 2328 
Q 447 3434 972 4092 
Q 1497 4750 2381 4750 
Q 2619 4750 2861 4703 
Q 3103 4656 3366 4563 
z
" transform="scale(0.015625)"/>
       </defs>
       <use xlink:href="#DejaVuSans-36"/>
       <use xlink:href="#DejaVuSans-30" x="63.623047"/>
      </g>
     </g>
    </g>
    <g id="ytick_7">
     <g id="line2d_17">
      <g>
       <use xlink:href="#mf66068aeca" x="57.6" y="102.276888" style="stroke: #000000; stroke-width: 0.8"/>
      </g>
     </g>
     <g id="text_18">
      <!-- 70 -->
      <g transform="translate(37.875 106.076107) scale(0.1 -0.1)">
       <defs>
        <path id="DejaVuSans-37" d="M 525 4666 
L 3525 4666 
L 3525 4397 
L 1831 0 
L 1172 0 
L 2766 4134 
L 525 4134 
L 525 4666 
z
" transform="scale(0.015625)"/>
       </defs>
       <use xlink:href="#DejaVuSans-37"/>
       <use xlink:href="#DejaVuSans-30" x="63.623047"/>
      </g>
     </g>
    </g>
    <g id="ytick_8">
     <g id="line2d_18">
      <g>
       <use xlink:href="#mf66068aeca" x="57.6" y="71.856648" style="stroke: #000000; stroke-width: 0.8"/>
      </g>
     </g>
     <g id="text_19">
      <!-- 80 -->
      <g transform="translate(37.875 75.655867) scale(0.1 -0.1)">
       <defs>
        <path id="DejaVuSans-38" d="M 2034 2216 
Q 1584 2216 1326 1975 
Q 1069 1734 1069 1313 
Q 1069 891 1326 650 
Q 1584 409 2034 409 
Q 2484 409 2743 651 
Q 3003 894 3003 1313 
Q 3003 1734 2745 1975 
Q 2488 2216 2034 2216 
z
M 1403 2484 
Q 997 2584 770 2862 
Q 544 3141 544 3541 
Q 544 4100 942 4425 
Q 1341 4750 2034 4750 
Q 2731 4750 3128 4425 
Q 3525 4100 3525 3541 
Q 3525 3141 3298 2862 
Q 3072 2584 2669 2484 
Q 3125 2378 3379 2068 
Q 3634 1759 3634 1313 
Q 3634 634 3220 271 
Q 2806 -91 2034 -91 
Q 1263 -91 848 271 
Q 434 634 434 1313 
Q 434 1759 690 2068 
Q 947 2378 1403 2484 
z
M 1172 3481 
Q 1172 3119 1398 2916 
Q 1625 2713 2034 2713 
Q 2441 2713 2670 2916 
Q 2900 3119 2900 3481 
Q 2900 3844 2670 4047 
Q 2441 4250 2034 4250 
Q 1625 4250 1398 4047 
Q 1172 3844 1172 3481 
z
" transform="scale(0.015625)"/>
       </defs>
       <use xlink:href="#DejaVuSans-38"/>
       <use xlink:href="#DejaVuSans-30" x="63.623047"/>
      </g>
     </g>
    </g>
    <g id="text_20">
     <!-- Accuracy -->
     <g transform="translate(31.795312 197.356125) rotate(-90) scale(0.1 -0.1)">
      <defs>
       <path id="DejaVuSans-41" d="M 2188 4044 
L 1331 1722 
L 3047 1722 
L 2188 4044 
z
M 1831 4666 
L 2547 4666 
L 4325 0 
L 3669 0 
L 3244 1197 
L 1141 1197 
L 716 0 
L 50 0 
L 1831 4666 
z
" transform="scale(0.015625)"/>
       <path id="DejaVuSans-75" d="M 544 1381 
L 544 3500 
L 1119 3500 
L 1119 1403 
Q 1119 906 1312 657 
Q 1506 409 1894 409 
Q 2359 409 2629 706 
Q 2900 1003 2900 1516 
L 2900 3500 
L 3475 3500 
L 3475 0 
L 2900 0 
L 2900 538 
Q 2691 219 2414 64 
Q 2138 -91 1772 -91 
Q 1169 -91 856 284 
Q 544 659 544 1381 
z
M 1991 3584 
L 1991 3584 
z
" transform="scale(0.015625)"/>
       <path id="DejaVuSans-72" d="M 2631 2963 
Q 2534 3019 2420 3045 
Q 2306 3072 2169 3072 
Q 1681 3072 1420 2755 
Q 1159 2438 1159 1844 
L 1159 0 
L 581 0 
L 581 3500 
L 1159 3500 
L 1159 2956 
Q 1341 3275 1631 3429 
Q 1922 3584 2338 3584 
Q 2397 3584 2469 3576 
Q 2541 3569 2628 3553 
L 2631 2963 
z
" transform="scale(0.015625)"/>
       <path id="DejaVuSans-61" d="M 2194 1759 
Q 1497 1759 1228 1600 
Q 959 1441 959 1056 
Q 959 750 1161 570 
Q 1363 391 1709 391 
Q 2188 391 2477 730 
Q 2766 1069 2766 1631 
L 2766 1759 
L 2194 1759 
z
M 3341 1997 
L 3341 0 
L 2766 0 
L 2766 531 
Q 2569 213 2275 61 
Q 1981 -91 1556 -91 
Q 1019 -91 701 211 
Q 384 513 384 1019 
Q 384 1609 779 1909 
Q 1175 2209 1959 2209 
L 2766 2209 
L 2766 2266 
Q 2766 2663 2505 2880 
Q 2244 3097 1772 3097 
Q 1472 3097 1187 3025 
Q 903 2953 641 2809 
L 641 3341 
Q 956 3463 1253 3523 
Q 1550 3584 1831 3584 
Q 2591 3584 2966 3190 
Q 3341 2797 3341 1997 
z
" transform="scale(0.015625)"/>
       <path id="DejaVuSans-79" d="M 2059 -325 
Q 1816 -950 1584 -1140 
Q 1353 -1331 966 -1331 
L 506 -1331 
L 506 -850 
L 844 -850 
Q 1081 -850 1212 -737 
Q 1344 -625 1503 -206 
L 1606 56 
L 191 3500 
L 800 3500 
L 1894 763 
L 2988 3500 
L 3597 3500 
L 2059 -325 
z
" transform="scale(0.015625)"/>
      </defs>
      <use xlink:href="#DejaVuSans-41"/>
      <use xlink:href="#DejaVuSans-63" x="66.658203"/>
      <use xlink:href="#DejaVuSans-63" x="121.638672"/>
      <use xlink:href="#DejaVuSans-75" x="176.619141"/>
      <use xlink:href="#DejaVuSans-72" x="239.998047"/>
      <use xlink:href="#DejaVuSans-61" x="281.111328"/>
      <use xlink:href="#DejaVuSans-63" x="342.390625"/>
      <use xlink:href="#DejaVuSans-79" x="397.371094"/>
     </g>
    </g>
   </g>
   <g id="line2d_19">
    <path d="M 73.832727 295.488 
L 76.001911 249.005873 
L 77.448034 225.010388 
L 80.340279 195.527092 
L 81.786402 185.427572 
L 82.509463 179.300936 
L 83.232525 176.946409 
L 85.401709 163.494579 
L 86.12477 159.661629 
L 86.847832 157.593052 
L 87.570893 153.291631 
L 88.293954 151.308231 
L 89.017016 148.369636 
L 89.740077 144.524517 
L 90.463138 142.887908 
L 91.1862 140.655063 
L 91.909261 138.939361 
L 92.632322 137.576535 
L 93.355384 135.860833 
L 94.078445 135.562715 
L 94.801506 133.804425 
L 95.524568 164.042143 
L 96.247629 165.520567 
L 97.693752 161.693701 
L 99.139874 156.169385 
L 99.862936 154.173817 
L 100.585997 151.515088 
L 101.309059 149.963656 
L 102.03212 148.108022 
L 102.755181 145.759579 
L 103.478243 144.585358 
L 104.201304 142.316008 
L 104.924365 141.135703 
L 105.647427 138.489142 
L 106.370488 136.919457 
L 107.093549 134.571015 
L 109.262733 130.373022 
L 109.985795 127.951571 
L 110.708856 127.057216 
L 111.431917 125.542288 
L 112.154979 122.530684 
L 112.87804 121.879691 
L 113.601101 119.859787 
L 115.770285 115.600953 
L 117.93947 111.208271 
L 118.662531 109.529073 
L 119.385592 108.154079 
L 120.108654 105.896897 
L 120.831715 105.215483 
L 121.554776 102.964386 
L 122.277838 102.088283 
L 123.000899 100.226564 
L 124.447022 99.070595 
L 125.170083 96.320605 
L 125.893144 94.069507 
L 126.616206 93.765305 
L 127.339267 93.077808 
L 128.062328 91.575048 
L 128.78539 90.997063 
L 129.508451 88.721629 
L 130.231512 87.541324 
L 130.954574 87.02418 
L 131.677635 86.367103 
L 132.400696 85.880379 
L 133.123758 85.697857 
L 133.846819 84.608813 
L 134.569881 84.669653 
L 135.292942 83.19123 
L 136.016003 84.249854 
L 136.739065 83.325079 
L 137.462126 83.099969 
L 138.185187 83.866559 
L 138.908249 116.270199 
L 139.63131 121.776262 
L 141.077433 121.027924 
L 141.800494 121.557236 
L 142.523555 119.987552 
L 143.246617 120.121401 
L 144.692739 117.791211 
L 145.415801 116.957696 
L 146.138862 117.267982 
L 146.861923 115.272415 
L 147.584985 115.059473 
L 148.308046 114.207706 
L 149.031108 113.933924 
L 149.754169 112.498089 
L 150.47723 111.804507 
L 151.200292 110.186151 
L 151.923353 109.827192 
L 152.646414 109.80894 
L 153.369476 110.41126 
L 154.092537 107.716027 
L 154.815598 107.223219 
L 155.53866 106.146343 
L 156.261721 105.531854 
L 156.984782 105.251988 
L 157.707844 104.521902 
L 158.430905 104.613163 
L 159.153966 102.824452 
L 159.877028 102.368149 
L 160.600089 101.473794 
L 161.32315 101.114835 
L 162.769273 99.034091 
L 163.492334 98.304005 
L 164.938457 96.594387 
L 165.661519 97.987634 
L 166.38458 96.636976 
L 167.830703 94.927358 
L 168.553764 93.978247 
L 169.276825 93.594952 
L 169.999887 92.992631 
L 170.722948 91.240425 
L 172.169071 91.149164 
L 172.892132 89.847178 
L 173.615193 89.57948 
L 174.338255 87.456147 
L 175.061316 88.265326 
L 175.784377 86.890331 
L 176.507439 86.54354 
L 177.2305 85.600513 
L 178.676623 84.56014 
L 179.399684 83.70229 
L 180.122745 83.270322 
L 180.845807 81.901411 
L 181.568868 81.122653 
L 182.29193 80.994888 
L 183.014991 80.143122 
L 184.461114 80.374315 
L 185.184175 78.177974 
L 185.907236 78.378748 
L 186.630298 77.18019 
L 188.07642 76.431852 
L 188.799482 75.507077 
L 190.245604 74.387612 
L 190.968666 72.708415 
L 191.691727 73.760955 
L 192.414788 71.436849 
L 193.13785 71.029218 
L 193.860911 70.426897 
L 194.583972 70.615502 
L 195.307034 69.757652 
L 196.030095 68.486086 
L 196.753157 68.315732 
L 197.476218 67.494386 
L 198.199279 67.184099 
L 198.922341 66.697376 
L 199.645402 65.815189 
L 200.368463 65.675255 
L 201.091525 65.042514 
L 201.814586 64.105571 
L 202.537647 64.355017 
L 203.260709 63.965638 
L 203.98377 62.949602 
L 205.429893 62.377701 
L 206.152954 62.201264 
L 206.876015 61.008791 
L 207.599077 60.12052 
L 208.322138 60.954034 
L 209.045199 59.560787 
L 209.768261 59.998839 
L 210.491322 58.909794 
L 211.214383 59.822401 
L 211.937445 58.532583 
L 212.660506 58.277053 
L 213.383568 58.988887 
L 214.106629 58.149288 
L 214.82969 57.942431 
L 215.552752 58.13712 
L 216.998874 57.321858 
L 218.444997 57.358362 
L 219.168058 57.589556 
L 219.89112 57.510463 
L 220.614181 57.048075 
L 221.337242 57.048075 
L 222.060304 56.640444 
L 222.783365 56.482259 
L 223.506426 56.518763 
L 224.229488 56.926394 
L 224.952549 55.971199 
L 225.67561 88.36267 
L 226.398672 95.979898 
L 227.121733 97.762525 
L 227.844794 97.354893 
L 229.290917 97.081111 
L 230.013979 97.427902 
L 230.73704 95.754789 
L 231.460101 97.397482 
L 232.906224 96.509211 
L 233.629285 96.73432 
L 234.352347 94.732669 
L 235.075408 94.726585 
L 235.798469 92.706681 
L 236.521531 92.93179 
L 237.244592 93.978247 
L 237.967653 92.524159 
L 238.690715 92.505907 
L 239.413776 91.87925 
L 240.136837 91.605468 
L 240.859899 92.067856 
L 241.58296 92.347722 
L 242.306021 91.106576 
L 243.029083 90.279146 
L 243.752144 89.822842 
L 244.475206 90.236557 
L 245.198267 89.421295 
L 245.921328 89.993195 
L 246.64439 88.818974 
L 247.367451 88.210569 
L 248.090512 88.551276 
L 248.813574 90.06012 
L 249.536635 87.322298 
L 250.259696 87.50482 
L 251.705819 86.884247 
L 252.42888 87.164113 
L 253.151942 86.148077 
L 253.875003 87.516988 
L 254.598064 86.117657 
L 255.321126 86.409691 
L 256.044187 86.409691 
L 256.767248 85.588345 
L 257.49031 85.375403 
L 258.936432 83.933483 
L 259.659494 84.255938 
L 260.382555 83.416339 
L 261.105617 85.253722 
L 261.828678 84.578393 
L 262.551739 84.523636 
L 263.274801 82.74101 
L 264.720923 84.870427 
L 265.443985 84.462796 
L 266.167046 83.19123 
L 266.890107 84.693989 
L 267.613169 83.458928 
L 268.33623 84.347199 
L 269.059291 82.947868 
L 269.782353 82.716674 
L 270.505414 81.609377 
L 271.228475 83.02696 
L 271.951537 81.378183 
L 272.674598 82.272538 
L 273.397659 81.353847 
L 274.120721 81.17741 
L 274.843782 80.873207 
L 275.566843 80.392568 
L 276.289905 80.070113 
L 277.012966 80.495996 
L 277.736028 79.607725 
L 278.459089 80.532501 
L 279.18215 79.820667 
L 279.905212 79.619893 
L 280.628273 79.102749 
L 281.351334 79.559053 
L 282.074396 78.719454 
L 282.797457 78.098881 
L 283.520518 78.20231 
L 284.24358 77.861604 
L 287.135825 75.896456 
L 287.858886 76.541365 
L 288.581948 75.847784 
L 290.02807 76.480525 
L 291.474193 74.935177 
L 292.197255 75.148118 
L 292.920316 74.314604 
L 293.643377 74.557966 
L 294.366439 73.54193 
L 295.0895 73.882636 
L 295.812561 73.517593 
L 296.535623 74.034737 
L 297.258684 73.109962 
L 297.981745 72.799676 
L 298.704807 72.945693 
L 299.427868 72.501557 
L 300.150929 73.097794 
L 300.873991 71.576782 
L 301.597052 71.747135 
L 302.320113 72.233859 
L 303.043175 69.751568 
L 303.766236 69.952341 
L 305.212359 69.508206 
L 305.93542 70.098358 
L 306.658481 68.473918 
L 307.381543 68.626019 
L 308.104604 68.516506 
L 308.827666 67.780336 
L 309.550727 67.871597 
L 310.273788 68.285312 
L 310.99685 66.788636 
L 311.719911 66.301912 
L 312.442972 66.849477 
L 313.889095 66.837309 
L 314.612156 65.279792 
L 316.058279 65.96729 
L 317.504402 65.882113 
L 318.227463 66.362753 
L 318.950524 64.361101 
L 319.673586 65.450146 
L 320.396647 64.336765 
L 321.119708 63.825705 
L 321.84277 64.379353 
L 322.565831 64.628799 
L 323.288892 63.521503 
L 324.735015 62.341197 
L 325.458077 63.308561 
L 326.181138 61.799717 
L 326.904199 61.799717 
L 327.627261 61.17306 
L 328.350322 61.696288 
L 329.073383 61.422506 
L 329.796445 60.63158 
L 331.242567 60.619412 
L 331.965629 61.069631 
L 332.68869 59.621628 
L 333.411751 59.35393 
L 334.134813 59.244417 
L 334.857874 58.940214 
L 335.580935 59.007139 
L 336.303997 58.879374 
L 337.027058 58.538667 
L 337.750119 58.532583 
L 338.473181 58.039775 
L 339.919304 57.358362 
L 340.642365 57.327942 
L 341.365426 56.610024 
L 342.088488 57.285353 
L 342.811549 56.354494 
L 343.53461 56.877722 
L 344.257672 55.904274 
L 344.980733 56.494427 
L 345.703794 55.794762 
L 346.426856 55.89819 
L 347.149917 55.606156 
L 347.872978 54.869986 
L 348.59604 54.900407 
L 349.319101 55.29587 
L 350.042162 54.699633 
L 350.765224 53.568 
L 351.488285 54.626624 
L 352.211346 54.115564 
L 352.934408 54.194657 
L 354.38053 55.247197 
L 355.103592 53.920875 
L 355.826653 54.790894 
L 356.549715 54.279834 
L 357.272776 54.821314 
L 357.995837 55.003835 
L 358.718899 54.127732 
L 359.44196 54.547532 
L 360.165021 54.383262 
L 360.888083 54.748305 
L 361.611144 54.638792 
L 362.334205 55.624408 
L 363.057267 55.593988 
L 364.503389 54.225077 
L 365.949512 55.1316 
L 367.395635 55.241113 
L 368.118696 54.01822 
L 368.841757 55.022087 
L 369.564819 54.36501 
L 371.010941 54.218993 
L 371.734003 55.089012 
L 372.457064 55.034256 
L 373.180126 54.468439 
L 374.626248 54.584036 
L 375.34931 55.04034 
L 376.072371 54.27375 
L 376.795432 54.024304 
L 377.518494 54.687465 
L 378.241555 54.127732 
L 378.964616 55.186357 
L 379.687678 55.082928 
L 380.410739 54.206825 
L 381.1338 53.641009 
L 381.856862 54.584036 
L 382.579923 54.52928 
L 383.302984 54.882154 
L 384.026046 54.401515 
L 384.749107 55.095096 
L 385.472168 55.022087 
L 386.19523 55.624408 
L 386.918291 54.462355 
L 387.641353 53.957379 
L 388.364414 54.967331 
L 389.087475 53.695765 
L 389.810537 54.504943 
L 390.533598 54.298086 
L 391.256659 55.38713 
L 391.979721 54.681381 
L 392.702782 54.158153 
L 393.425843 53.914791 
L 394.148905 55.308038 
L 394.871966 54.371094 
L 395.595027 54.760473 
L 396.318089 54.030388 
L 397.04115 54.541448 
L 397.764211 54.152069 
L 398.487273 55.362794 
L 398.487273 55.362794 
" clip-path="url(#p87ec874af2)" style="fill: none; stroke: #1f77b4; stroke-width: 1.5; stroke-linecap: square"/>
   </g>
   <g id="line2d_20">
    <path d="M 73.832727 280.874117 
L 74.555789 268.188877 
L 75.27885 243.2747 
L 76.001911 237.799057 
L 76.724973 214.497153 
L 77.448034 196.822994 
L 78.171095 193.111725 
L 78.894157 185.111201 
L 79.617218 175.559246 
L 80.340279 159.5582 
L 81.063341 158.706433 
L 81.786402 154.417179 
L 82.509463 149.39784 
L 83.232525 137.929409 
L 83.955586 141.001854 
L 84.678647 133.974778 
L 85.401709 133.123011 
L 86.12477 126.734761 
L 86.847832 124.0882 
L 87.570893 125.517951 
L 88.293954 120.163989 
L 89.017016 116.51356 
L 89.740077 114.171202 
L 90.463138 113.045653 
L 91.1862 110.824976 
L 91.909261 110.09489 
L 92.632322 108.756399 
L 93.355384 109.091022 
L 94.078445 107.904633 
L 94.801506 107.296228 
L 95.524568 138.05109 
L 96.247629 139.754624 
L 96.97069 142.766227 
L 97.693752 129.563843 
L 98.416813 128.164512 
L 99.139874 122.901811 
L 99.862936 120.985336 
L 101.309059 125.152909 
L 102.03212 113.228175 
L 102.755181 119.099281 
L 103.478243 114.505825 
L 104.201304 113.258595 
L 104.924365 112.528509 
L 105.647427 109.091022 
L 106.370488 109.547326 
L 107.816611 106.809504 
L 108.539672 105.896897 
L 109.262733 102.915713 
L 109.985795 107.083286 
L 110.708856 103.067814 
L 111.431917 103.73706 
L 112.154979 99.174024 
L 112.87804 98.443938 
L 113.601101 99.143603 
L 114.324163 97.622591 
L 115.047224 97.774693 
L 115.770285 92.207789 
L 117.216408 95.067291 
L 117.93947 92.937875 
L 118.662531 91.660224 
L 119.385592 91.295182 
L 120.108654 89.80459 
L 120.831715 90.808458 
L 121.554776 89.743749 
L 122.277838 89.013664 
L 123.000899 90.747617 
L 123.72396 88.983243 
L 124.447022 86.580044 
L 125.170083 85.97164 
L 125.893144 85.728278 
L 126.616206 85.849959 
L 127.339267 83.598861 
L 128.062328 84.72441 
L 129.508451 84.389787 
L 130.231512 84.024744 
L 130.954574 82.442892 
L 131.677635 83.325079 
L 132.400696 82.990456 
L 133.123758 81.804067 
L 133.846819 82.442892 
L 134.569881 81.530285 
L 136.016003 82.442892 
L 136.739065 82.351631 
L 137.462126 82.473312 
L 138.185187 82.16911 
L 138.908249 106.140259 
L 139.63131 105.166811 
L 140.354371 105.501434 
L 141.077433 105.349332 
L 141.800494 100.603775 
L 142.523555 103.7979 
L 143.246617 100.177892 
L 143.969678 101.881425 
L 144.692739 98.261416 
L 145.415801 103.676219 
L 146.138862 98.535199 
L 146.861923 98.900242 
L 147.584985 98.018055 
L 148.308046 99.96495 
L 149.031108 96.101579 
L 149.754169 99.96495 
L 150.47723 95.675696 
L 151.200292 97.653012 
L 151.923353 96.284101 
L 152.646414 96.679564 
L 153.369476 95.158552 
L 154.092537 96.801245 
L 154.815598 94.033003 
L 155.53866 92.268629 
L 156.261721 93.485439 
L 156.984782 91.234341 
L 157.707844 91.538543 
L 158.430905 93.515859 
L 159.153966 91.14308 
L 159.877028 93.455019 
L 160.600089 94.033003 
L 161.32315 93.424598 
L 162.046212 90.656357 
L 162.769273 91.721065 
L 163.492334 88.739881 
L 164.215396 90.656357 
L 164.938457 91.08224 
L 165.661519 89.895851 
L 166.38458 88.466099 
L 167.107641 88.648621 
L 168.553764 87.918535 
L 169.276825 89.561228 
L 169.999887 88.344418 
L 171.446009 88.831142 
L 172.169071 87.705593 
L 172.892132 85.241554 
L 173.615193 85.241554 
L 174.338255 87.158029 
L 175.061316 87.979375 
L 175.784377 86.914667 
L 176.507439 87.31013 
L 177.2305 86.123741 
L 177.953561 86.580044 
L 178.676623 84.602729 
L 180.122745 84.876511 
L 180.845807 86.093321 
L 181.568868 84.81567 
L 182.29193 84.085585 
L 183.014991 86.275842 
L 183.738052 85.637017 
L 184.461114 83.172977 
L 185.184175 82.899195 
L 185.907236 81.499864 
L 186.630298 84.146425 
L 187.353359 82.594993 
L 188.07642 83.233818 
L 188.799482 81.165242 
L 189.522543 82.351631 
L 191.691727 81.347763 
L 192.414788 81.499864 
L 193.13785 80.495996 
L 193.860911 81.469444 
L 194.583972 80.769779 
L 195.307034 78.153638 
L 196.030095 82.26037 
L 196.753157 79.187926 
L 197.476218 77.758175 
L 198.199279 76.602206 
L 198.922341 77.241031 
L 199.645402 77.666914 
L 200.368463 77.21061 
L 201.091525 77.393132 
L 201.814586 78.153638 
L 202.537647 75.90254 
L 203.260709 78.397 
L 203.98377 76.298003 
L 204.706831 75.537497 
L 206.876015 77.393132 
L 207.599077 75.659178 
L 209.045199 74.077326 
L 209.768261 74.077326 
L 210.491322 73.925225 
L 211.214383 74.746571 
L 211.937445 74.199007 
L 212.660506 74.59447 
L 213.383568 73.073458 
L 214.106629 73.742703 
L 214.82969 72.556314 
L 215.552752 73.742703 
L 216.275813 73.955645 
L 216.998874 73.833964 
L 217.721936 73.073458 
L 218.444997 73.103878 
L 219.168058 73.012617 
L 219.89112 73.37766 
L 220.614181 72.647574 
L 221.337242 72.860516 
L 222.060304 72.951777 
L 222.783365 72.647574 
L 223.506426 72.586734 
L 224.229488 72.951777 
L 224.952549 72.921357 
L 225.67561 96.040739 
L 226.398672 100.907977 
L 227.121733 95.554015 
L 227.844794 96.588303 
L 228.567856 91.812326 
L 229.290917 97.044607 
L 230.013979 97.805113 
L 230.73704 97.50091 
L 231.460101 101.18176 
L 232.183163 97.196708 
L 232.906224 97.531331 
L 233.629285 94.519727 
L 234.352347 90.838878 
L 235.798469 97.37923 
L 236.521531 95.158552 
L 237.244592 90.778037 
L 237.967653 96.862085 
L 238.690715 98.565619 
L 240.136837 94.245945 
L 240.859899 95.401914 
L 241.58296 97.135868 
L 242.306021 93.515859 
L 243.029083 95.371494 
L 243.752144 98.596039 
L 244.475206 92.32947 
L 245.198267 93.272497 
L 245.921328 95.401914 
L 246.64439 94.489307 
L 247.367451 98.961082 
L 248.090512 95.888638 
L 248.813574 95.128132 
L 249.536635 94.610988 
L 250.259696 95.736537 
L 251.705819 91.994847 
L 252.42888 93.394178 
L 253.151942 88.192317 
L 253.875003 90.139212 
L 254.598064 95.158552 
L 255.321126 92.785773 
L 256.044187 91.599384 
L 256.767248 93.150816 
L 257.49031 89.77417 
L 258.213371 91.325602 
L 258.936432 89.378706 
L 259.659494 91.14308 
L 261.105617 91.356022 
L 261.828678 93.242077 
L 262.551739 89.135345 
L 263.274801 94.398046 
L 263.997862 86.823406 
L 264.720923 92.451151 
L 265.443985 92.724933 
L 266.167046 91.629804 
L 266.890107 91.05182 
L 267.613169 94.976031 
L 268.33623 89.196185 
L 269.059291 92.907454 
L 269.782353 90.930139 
L 270.505414 88.131477 
L 271.228475 90.565096 
L 271.951537 91.781905 
L 272.674598 91.021399 
L 273.397659 87.736013 
L 274.120721 87.827274 
L 274.843782 88.770302 
L 275.566843 88.709461 
L 276.289905 88.222737 
L 277.012966 92.664092 
L 277.736028 88.922403 
L 278.459089 90.382574 
L 279.18215 89.013664 
L 279.905212 90.808458 
L 280.628273 88.891983 
L 281.351334 88.344418 
L 282.074396 88.283578 
L 282.797457 93.880902 
L 283.520518 84.967772 
L 284.24358 88.800722 
L 284.966641 87.462231 
L 285.689702 87.31013 
L 286.412764 89.469967 
L 287.135825 89.104924 
L 287.858886 87.644753 
L 288.581948 86.671305 
L 289.305009 88.922403 
L 290.02807 86.945087 
L 290.751132 87.218869 
L 291.474193 89.622068 
L 292.197255 88.161897 
L 292.920316 88.800722 
L 293.643377 87.31013 
L 294.366439 84.085585 
L 295.0895 89.622068 
L 295.812561 86.701725 
L 296.535623 87.553492 
L 297.258684 86.245422 
L 297.981745 87.066768 
L 298.704807 84.389787 
L 299.427868 85.424075 
L 300.873991 86.367103 
L 301.597052 85.515336 
L 302.320113 85.059032 
L 303.043175 86.093321 
L 303.766236 83.750962 
L 304.489297 86.458363 
L 305.212359 83.233818 
L 305.93542 83.112137 
L 306.658481 81.408604 
L 307.381543 86.093321 
L 308.104604 86.427943 
L 308.827666 82.899195 
L 309.550727 85.089453 
L 310.99685 81.591125 
L 311.719911 82.868775 
L 312.442972 85.059032 
L 313.166034 82.382051 
L 313.889095 82.929616 
L 314.612156 85.424075 
L 315.335218 79.887592 
L 316.058279 82.807935 
L 316.78134 84.572309 
L 317.504402 84.72441 
L 318.227463 81.621545 
L 318.950524 81.925748 
L 319.673586 80.617677 
L 320.396647 85.059032 
L 321.119708 83.081717 
L 321.84277 85.849959 
L 322.565831 83.142557 
L 323.288892 81.925748 
L 324.011954 82.807935 
L 324.735015 82.108269 
L 325.458077 85.089453 
L 326.181138 80.435156 
L 326.904199 82.807935 
L 327.627261 80.648098 
L 328.350322 82.290791 
L 329.073383 78.974984 
L 329.796445 83.385919 
L 330.519506 81.560705 
L 331.242567 81.560705 
L 331.965629 80.648098 
L 332.68869 81.834487 
L 333.411751 78.031957 
L 334.134813 78.944564 
L 334.857874 81.165242 
L 335.580935 80.708938 
L 336.303997 77.849436 
L 337.027058 80.374315 
L 337.750119 77.362712 
L 339.196242 79.64423 
L 339.919304 78.609942 
L 340.642365 79.187926 
L 341.365426 79.035825 
L 342.088488 78.031957 
L 342.811549 76.723887 
L 343.53461 76.815147 
L 344.257672 75.720019 
L 344.980733 76.571785 
L 345.703794 74.776991 
L 346.426856 77.423552 
L 347.149917 76.754307 
L 347.872978 76.237163 
L 348.59604 76.936828 
L 349.319101 73.955645 
L 350.042162 77.666914 
L 350.765224 75.446237 
L 351.488285 76.906408 
L 352.934408 75.020353 
L 353.657469 75.598338 
L 354.38053 76.815147 
L 355.103592 76.632626 
L 356.549715 77.666914 
L 357.272776 75.507077 
L 357.995837 75.750439 
L 358.718899 76.845568 
L 359.44196 79.583389 
L 360.165021 75.8417 
L 360.888083 77.301871 
L 361.611144 76.298003 
L 362.334205 77.241031 
L 363.057267 73.621022 
L 363.780328 76.541365 
L 364.503389 76.328424 
L 365.226451 75.081194 
L 365.949512 78.609942 
L 366.672573 76.115482 
L 367.395635 77.301871 
L 368.118696 76.419684 
L 368.841757 78.062377 
L 369.564819 74.229427 
L 370.28788 77.819015 
L 371.010941 78.214478 
L 371.734003 77.11935 
L 372.457064 75.537497 
L 373.180126 76.784727 
L 373.903187 77.666914 
L 374.626248 75.628758 
L 375.34931 76.054641 
L 376.072371 76.875988 
L 376.795432 75.659178 
L 377.518494 76.389264 
L 378.241555 79.67465 
L 380.410739 74.929092 
L 381.1338 76.663046 
L 381.856862 76.632626 
L 382.579923 77.788595 
L 383.302984 75.050773 
L 384.026046 77.788595 
L 384.749107 74.56405 
L 385.472168 78.001537 
L 386.19523 77.301871 
L 386.918291 77.028089 
L 387.641353 77.028089 
L 388.364414 80.070113 
L 389.087475 77.575653 
L 389.810537 78.974984 
L 390.533598 76.358844 
L 391.256659 77.727755 
L 391.979721 78.670782 
L 392.702782 77.697334 
L 393.425843 77.14977 
L 394.148905 78.579521 
L 394.871966 76.206743 
L 395.595027 79.431288 
L 396.318089 78.670782 
L 397.04115 78.184058 
L 397.764211 79.70507 
L 398.487273 77.484393 
L 398.487273 77.484393 
" clip-path="url(#p87ec874af2)" style="fill: none; stroke: #ff7f0e; stroke-width: 1.5; stroke-linecap: square"/>
   </g>
   <g id="line2d_21">
    <path d="M 73.832727 283.94869 
L 74.555789 269.78746 
L 75.27885 241.423324 
L 76.001911 243.300862 
L 76.724973 218.975317 
L 77.448034 205.349179 
L 78.171095 205.139279 
L 78.894157 198.772019 
L 79.617218 195.740337 
L 80.340279 184.044364 
L 81.063341 183.645859 
L 81.786402 177.509184 
L 82.509463 186.876488 
L 83.232525 172.39037 
L 83.955586 178.348478 
L 84.678647 165.477674 
L 85.401709 168.823901 
L 86.12477 163.63147 
L 86.847832 157.421482 
L 87.570893 162.173428 
L 88.293954 156.855057 
L 89.740077 152.334001 
L 90.463138 151.421394 
L 91.1862 152.847799 
L 92.632322 147.655368 
L 93.355384 148.567976 
L 94.801506 148.494663 
L 95.524568 178.117588 
L 96.247629 176.995386 
L 96.97069 174.299544 
L 97.693752 164.113935 
L 98.416813 166.967049 
L 99.139874 177.435871 
L 99.862936 160.998294 
L 100.585997 163.012418 
L 101.309059 164.3865 
L 102.03212 160.736072 
L 102.755181 151.819899 
L 103.478243 151.65198 
L 104.201304 153.267599 
L 104.924365 155.701218 
L 105.647427 148.903815 
L 106.370488 152.606567 
L 107.093549 154.159216 
L 107.816611 150.330524 
L 108.539672 147.907248 
L 109.262733 142.001463 
L 109.985795 154.966873 
L 110.708856 147.655368 
L 111.431917 148.714905 
L 112.154979 140.365158 
L 112.87804 142.462938 
L 113.601101 143.98395 
L 114.324163 141.99112 
L 115.047224 146.050701 
L 115.770285 140.302188 
L 116.493347 139.452551 
L 117.216408 137.847579 
L 117.93947 138.634246 
L 118.662531 141.403705 
L 119.385592 137.837236 
L 120.108654 138.949096 
L 120.831715 137.753276 
L 121.554776 136.116667 
L 122.277838 136.053697 
L 123.000899 138.865136 
L 123.72396 140.176248 
L 124.447022 137.952529 
L 125.170083 138.854489 
L 125.893144 134.270463 
L 126.616206 134.417393 
L 127.339267 134.941838 
L 128.062328 132.865048 
L 128.78539 134.973475 
L 129.508451 133.23222 
L 130.231512 133.336866 
L 130.954574 131.218096 
L 131.677635 134.658625 
L 133.123758 130.410439 
L 133.846819 133.567755 
L 134.569881 132.760098 
L 135.292942 133.389493 
L 136.016003 133.599392 
L 137.462126 132.718118 
L 138.185187 133.536423 
L 138.908249 150.47715 
L 139.63131 155.596268 
L 140.354371 156.08938 
L 141.077433 153.582144 
L 141.800494 152.826809 
L 142.523555 151.819899 
L 143.246617 152.501617 
L 143.969678 149.543553 
L 144.692739 150.54012 
L 145.415801 153.813033 
L 146.138862 149.805775 
L 146.861923 147.309186 
L 147.584985 145.735851 
L 148.308046 151.714949 
L 149.031108 150.60309 
L 149.754169 150.60309 
L 150.47723 147.057611 
L 151.200292 142.725464 
L 151.923353 144.886214 
L 152.646414 148.242783 
L 153.369476 148.924805 
L 154.092537 145.945751 
L 155.53866 150.56111 
L 156.261721 146.847711 
L 156.984782 140.386148 
L 157.707844 143.333869 
L 158.430905 139.704126 
L 159.153966 140.952573 
L 159.877028 143.98395 
L 160.600089 137.155214 
L 161.32315 145.347689 
L 162.046212 139.714773 
L 162.769273 144.319789 
L 164.215396 138.256731 
L 164.938457 138.309054 
L 165.661519 140.90025 
L 166.38458 130.399792 
L 167.107641 135.151737 
L 167.830703 133.641068 
L 168.553764 138.487317 
L 169.276825 135.980385 
L 169.999887 135.382627 
L 170.722948 140.102935 
L 171.446009 140.039966 
L 172.169071 140.102935 
L 172.892132 136.525819 
L 173.615193 139.095721 
L 174.338255 140.71134 
L 175.061316 137.260164 
L 175.784377 140.616733 
L 176.507439 140.270855 
L 177.2305 134.585312 
L 177.953561 140.87926 
L 178.676623 143.921284 
L 179.399684 135.088767 
L 180.122745 134.753232 
L 181.568868 139.483884 
L 182.29193 132.025753 
L 183.014991 134.742585 
L 183.738052 136.651759 
L 184.461114 137.176204 
L 185.184175 131.501308 
L 185.907236 132.802078 
L 186.630298 132.697128 
L 187.353359 136.567799 
L 188.07642 131.102803 
L 188.799482 128.396315 
L 190.245604 132.340603 
L 190.968666 132.665795 
L 191.691727 133.200583 
L 192.414788 130.871914 
L 193.13785 133.29519 
L 193.860911 127.66197 
L 194.583972 130.787954 
L 195.307034 127.127182 
L 196.030095 132.854401 
L 196.753157 132.581835 
L 197.476218 130.053609 
L 198.199279 130.357812 
L 198.922341 128.302012 
L 199.645402 129.571144 
L 200.368463 129.833367 
L 201.091525 129.256599 
L 201.814586 132.382583 
L 202.537647 125.385928 
L 203.260709 128.490617 
L 203.98377 129.151649 
L 205.429893 127.955829 
L 206.152954 127.82989 
L 206.876015 127.420737 
L 207.599077 126.59209 
L 208.322138 125.48023 
L 209.045199 125.238998 
L 209.768261 124.45233 
L 210.491322 124.756533 
L 211.214383 125.280978 
L 211.937445 125.52221 
L 212.660506 126.770353 
L 213.383568 126.172595 
L 214.106629 125.752796 
L 214.82969 124.945138 
L 215.552752 125.794776 
L 216.275813 125.291321 
L 216.998874 126.602737 
L 217.721936 126.84397 
L 218.444997 126.40318 
L 219.168058 125.679483 
L 219.89112 126.287888 
L 220.614181 125.637503 
L 221.337242 126.077988 
L 222.060304 125.994332 
L 222.783365 126.098978 
L 223.506426 125.69013 
L 224.229488 126.749363 
L 224.952549 125.742453 
L 225.67561 142.106412 
L 226.398672 146.554156 
L 227.121733 146.963308 
L 227.844794 154.463418 
L 228.567856 141.256775 
L 229.290917 141.099503 
L 230.013979 147.424783 
L 230.73704 152.103112 
L 231.460101 146.753408 
L 232.183163 152.732507 
L 232.906224 142.620515 
L 233.629285 149.19737 
L 234.352347 141.71825 
L 235.075408 142.263685 
L 235.798469 150.120625 
L 236.521531 148.578623 
L 237.244592 143.197282 
L 237.967653 144.340779 
L 238.690715 147.508743 
L 239.413776 149.19737 
L 240.136837 154.075256 
L 240.859899 153.068346 
L 241.58296 149.312967 
L 242.306021 144.561022 
L 243.029083 144.907204 
L 243.752144 146.071691 
L 244.475206 146.994641 
L 245.198267 146.753408 
L 245.921328 145.725508 
L 246.64439 143.868657 
L 247.367451 152.984386 
L 248.090512 146.564499 
L 248.813574 150.277897 
L 249.536635 144.340779 
L 250.259696 146.994641 
L 250.982758 148.368723 
L 251.705819 146.921328 
L 252.42888 139.200671 
L 253.151942 134.05022 
L 253.875003 137.134224 
L 254.598064 144.770921 
L 255.321126 143.98395 
L 256.044187 131.669228 
L 256.767248 144.015587 
L 257.49031 139.536511 
L 258.213371 142.169382 
L 258.936432 141.477018 
L 259.659494 135.277677 
L 260.382555 139.68344 
L 261.105617 145.022497 
L 261.828678 139.012066 
L 262.551739 141.225138 
L 263.274801 145.903771 
L 263.997862 132.225006 
L 264.720923 142.83011 
L 265.443985 143.847667 
L 266.167046 147.508743 
L 266.890107 136.410527 
L 267.613169 142.284675 
L 268.33623 141.99112 
L 269.059291 146.302276 
L 269.782353 139.893036 
L 270.505414 132.476886 
L 271.228475 137.407094 
L 271.951537 149.417917 
L 272.674598 137.679659 
L 273.397659 136.735719 
L 274.120721 138.802166 
L 274.843782 140.417481 
L 276.289905 140.354511 
L 277.012966 141.109845 
L 277.736028 136.892992 
L 278.459089 144.330132 
L 279.18215 144.340779 
L 279.905212 139.263641 
L 280.628273 137.417437 
L 281.351334 138.739196 
L 282.074396 137.721639 
L 282.797457 142.169382 
L 283.520518 135.571232 
L 284.24358 138.109801 
L 284.966641 134.899858 
L 285.689702 139.788086 
L 286.412764 139.431561 
L 287.135825 139.221661 
L 287.858886 137.878912 
L 288.581948 135.718162 
L 289.305009 135.928062 
L 290.02807 135.41396 
L 290.751132 138.718206 
L 291.474193 140.354511 
L 292.197255 143.050353 
L 292.920316 136.599436 
L 293.643377 137.616689 
L 294.366439 131.501308 
L 295.0895 137.962872 
L 295.812561 131.448986 
L 296.535623 137.470064 
L 297.258684 138.109801 
L 297.981745 143.858314 
L 298.704807 138.256731 
L 300.150929 134.11319 
L 300.873991 138.676226 
L 301.597052 135.109757 
L 303.043175 139.683294 
L 303.766236 136.924492 
L 304.489297 139.200766 
L 305.212359 135.03634 
L 305.93542 137.501428 
L 306.658481 132.718108 
L 307.381543 135.82307 
L 308.104604 140.658839 
L 308.827666 134.323037 
L 309.550727 139.83015 
L 310.273788 137.889548 
L 310.99685 136.462944 
L 311.719911 137.595836 
L 312.442972 139.41056 
L 313.166034 137.606325 
L 313.889095 133.546797 
L 314.612156 141.487528 
L 315.335218 128.732007 
L 316.058279 128.259969 
L 316.78134 135.917478 
L 317.504402 134.22863 
L 318.227463 129.969796 
L 318.950524 133.672674 
L 319.673586 132.361456 
L 320.396647 139.546927 
L 321.119708 139.473499 
L 321.84277 137.511918 
L 322.565831 136.62029 
L 323.288892 128.595641 
L 324.011954 136.085313 
L 324.735015 131.81599 
L 325.458077 140.795206 
L 326.181138 132.434885 
L 326.904199 134.931442 
L 327.627261 128.165561 
L 328.350322 135.067809 
L 329.073383 128.343887 
L 329.796445 135.82307 
L 330.519506 133.546797 
L 331.242567 129.718043 
L 331.965629 130.924362 
L 332.68869 130.704078 
L 333.411751 131.658644 
L 334.134813 134.281079 
L 334.857874 135.875519 
L 335.580935 139.053909 
L 336.303997 128.648089 
L 337.027058 131.795011 
L 337.750119 131.522277 
L 338.473181 133.494348 
L 339.196242 129.120127 
L 339.919304 133.83002 
L 340.642365 129.80196 
L 341.365426 130.63065 
L 342.811549 127.116588 
L 343.53461 128.060664 
L 344.257672 126.707488 
L 344.980733 125.983696 
L 345.703794 127.672544 
L 346.426856 131.784521 
L 347.149917 127.263444 
L 347.872978 128.501233 
L 348.59604 127.085118 
L 349.319101 127.735482 
L 350.042162 131.43836 
L 350.765224 128.941802 
L 351.488285 124.116522 
L 352.211346 126.717977 
L 352.934408 126.392796 
L 353.657469 124.147992 
L 354.38053 127.378831 
L 355.103592 128.270459 
L 355.826653 128.511723 
L 356.549715 135.707683 
L 357.272776 125.092068 
L 357.995837 130.756527 
L 358.718899 128.868374 
L 359.44196 132.917413 
L 360.165021 127.955767 
L 360.888083 129.382371 
L 361.611144 123.036079 
L 362.334205 128.270459 
L 363.057267 124.567581 
L 363.780328 124.536112 
L 365.226451 122.784326 
L 365.949512 130.819465 
L 366.672573 121.588496 
L 367.395635 129.81245 
L 368.118696 129.644614 
L 368.841757 126.036145 
L 369.564819 123.843789 
L 370.28788 126.749447 
L 371.010941 133.137697 
L 371.734003 130.452324 
L 372.457064 126.403285 
L 373.180126 131.092198 
L 373.903187 132.980351 
L 374.626248 128.280948 
L 375.34931 129.099148 
L 376.072371 127.683033 
L 376.795432 127.315893 
L 377.518494 127.525687 
L 378.241555 132.854474 
L 379.687678 126.392796 
L 380.410739 125.773901 
L 381.1338 127.525687 
L 381.856862 126.676019 
L 382.579923 133.326512 
L 383.302984 125.81586 
L 384.026046 130.735547 
L 384.749107 127.200505 
L 385.472168 124.976681 
L 386.19523 124.924232 
L 386.918291 127.724992 
L 387.641353 127.609605 
L 388.364414 133.347492 
L 389.087475 125.836839 
L 389.810537 130.21106 
L 390.533598 130.326447 
L 391.256659 128.21801 
L 391.979721 129.172576 
L 392.702782 127.179526 
L 393.425843 127.997726 
L 394.148905 129.728532 
L 394.871966 127.4103 
L 395.595027 130.315958 
L 396.318089 131.595706 
L 397.04115 127.231975 
L 397.764211 134.354507 
L 398.487273 130.725057 
L 398.487273 130.725057 
" clip-path="url(#p87ec874af2)" style="fill: none; stroke: #2ca02c; stroke-width: 1.5; stroke-linecap: square"/>
   </g>
   <g id="line2d_22">
    <path d="M 73.832727 293.802719 
L 75.27885 284.920009 
L 76.724973 274.242504 
L 77.448034 268.64518 
L 78.171095 262.135249 
L 78.894157 261.678945 
L 80.340279 248.202779 
L 81.063341 246.073362 
L 81.786402 248.172359 
L 82.509463 240.415198 
L 83.232525 227.547436 
L 83.955586 227.638697 
L 84.678647 225.387599 
L 85.401709 228.216681 
L 86.12477 215.257659 
L 86.847832 216.018165 
L 87.570893 216.383208 
L 88.293954 211.850592 
L 90.463138 205.279821 
L 92.632322 200.868886 
L 93.355384 200.716785 
L 94.078445 201.264349 
L 94.801506 201.081827 
L 95.524568 217.539177 
L 96.247629 221.524229 
L 96.97069 227.364915 
L 97.693752 216.504889 
L 98.416813 211.60723 
L 99.139874 210.512102 
L 99.862936 206.101167 
L 100.585997 206.618311 
L 101.309059 210.481682 
L 102.03212 200.382162 
L 102.755181 204.336793 
L 103.478243 197.340138 
L 104.201304 196.001647 
L 104.924365 201.872754 
L 105.647427 195.667025 
L 106.370488 194.754418 
L 107.093549 189.552556 
L 107.816611 191.31693 
L 108.539672 190.738946 
L 109.262733 184.563637 
L 109.985795 188.122805 
L 110.708856 185.871707 
L 111.431917 185.324143 
L 112.154979 183.012205 
L 112.87804 178.084126 
L 113.601101 183.133886 
L 114.324163 177.749503 
L 115.047224 174.464117 
L 115.770285 175.985129 
L 116.493347 172.27386 
L 117.216408 173.703611 
L 117.93947 173.855713 
L 118.662531 168.288809 
L 119.385592 165.824769 
L 120.108654 165.824769 
L 120.831715 170.053183 
L 121.554776 163.512831 
L 122.277838 167.345781 
L 123.000899 166.098552 
L 123.72396 164.547119 
L 124.447022 163.938714 
L 125.170083 162.995687 
L 125.893144 162.417702 
L 126.616206 162.661064 
L 127.339267 159.953663 
L 128.062328 158.25013 
L 128.78539 157.580884 
L 129.508451 158.402231 
L 130.231512 157.976347 
L 130.954574 158.371811 
L 131.677635 157.611305 
L 132.400696 159.132317 
L 133.123758 158.706433 
L 133.846819 157.428783 
L 134.569881 158.858534 
L 135.292942 159.041056 
L 136.739065 156.820378 
L 137.462126 156.272814 
L 138.185187 158.037188 
L 138.908249 178.205807 
L 139.63131 181.278251 
L 140.354371 182.555901 
L 141.077433 182.464641 
L 141.800494 185.689186 
L 142.523555 179.787659 
L 143.246617 176.07639 
L 143.969678 179.8485 
L 144.692739 177.080258 
L 145.415801 177.201939 
L 146.138862 180.274383 
L 146.861923 181.764975 
L 147.584985 174.920421 
L 148.308046 179.574718 
L 149.031108 179.422617 
L 149.754169 182.555901 
L 150.47723 176.593534 
L 151.200292 180.548165 
L 151.923353 178.357908 
L 152.646414 175.285464 
L 153.369476 175.285464 
L 154.092537 175.559246 
L 154.815598 177.658243 
L 155.53866 170.813689 
L 156.261721 176.623955 
L 156.984782 171.878397 
L 157.707844 169.74898 
L 158.430905 174.79874 
L 159.153966 168.38007 
L 159.877028 169.475198 
L 160.600089 171.513354 
L 161.32315 166.646116 
L 162.046212 170.479066 
L 163.492334 162.661064 
L 164.215396 171.878397 
L 164.938457 167.832505 
L 165.661519 174.251176 
L 166.38458 166.676536 
L 167.107641 166.919898 
L 167.830703 168.41049 
L 168.553764 166.676536 
L 169.276825 169.840241 
L 169.999887 163.42157 
L 170.722948 169.201416 
L 171.446009 159.193157 
L 172.169071 164.273337 
L 172.892132 167.649984 
L 173.615193 166.706956 
L 174.338255 161.809298 
L 175.061316 160.409967 
L 175.784377 162.296022 
L 176.507439 166.189812 
L 177.2305 165.429306 
L 177.953561 166.220232 
L 178.676623 166.402754 
L 179.399684 157.094161 
L 180.122745 161.505095 
L 180.845807 165.216365 
L 181.568868 164.547119 
L 182.29193 161.170473 
L 183.014991 156.881219 
L 183.738052 165.642248 
L 184.461114 162.05266 
L 185.184175 157.702565 
L 185.907236 162.204761 
L 186.630298 159.892823 
L 187.353359 160.531648 
L 188.07642 158.037188 
L 188.799482 156.029452 
L 189.522543 156.97248 
L 190.245604 163.299889 
L 190.968666 157.428783 
L 191.691727 157.854666 
L 192.414788 163.938714 
L 193.13785 158.554332 
L 193.860911 164.57754 
L 194.583972 166.098552 
L 195.307034 156.698697 
L 196.030095 166.402754 
L 196.753157 159.58862 
L 197.476218 156.364075 
L 198.199279 158.736853 
L 198.922341 159.649461 
L 199.645402 157.520044 
L 200.368463 161.718037 
L 201.091525 160.501227 
L 201.814586 161.352994 
L 202.537647 158.797694 
L 203.260709 160.440387 
L 204.706831 158.493492 
L 205.429893 158.371811 
L 206.152954 157.580884 
L 206.876015 160.440387 
L 207.599077 160.318706 
L 208.322138 159.58862 
L 209.045199 156.759538 
L 209.768261 158.34139 
L 210.491322 160.257865 
L 211.214383 159.101896 
L 211.937445 159.466939 
L 212.660506 158.767274 
L 213.383568 162.478543 
L 214.106629 159.771142 
L 215.552752 157.824246 
L 216.275813 159.071476 
L 216.998874 159.61904 
L 217.721936 160.440387 
L 218.444997 159.831982 
L 219.168058 158.736853 
L 219.89112 159.984083 
L 220.614181 160.83585 
L 221.337242 159.497359 
L 222.060304 161.900558 
L 222.783365 159.649461 
L 223.506426 160.197025 
L 224.229488 159.58862 
L 224.952549 159.162737 
L 225.67561 174.464117 
L 227.121733 176.958577 
L 227.844794 176.411013 
L 228.567856 168.106287 
L 229.290917 182.555901 
L 230.013979 173.064786 
L 230.73704 170.539907 
L 231.460101 181.582454 
L 232.183163 169.444778 
L 232.906224 179.087994 
L 233.629285 169.74898 
L 234.352347 166.798217 
L 235.075408 162.478543 
L 235.798469 169.444778 
L 236.521531 169.992342 
L 237.244592 167.589143 
L 237.967653 178.205807 
L 238.690715 175.498406 
L 239.413776 175.954709 
L 240.136837 174.068654 
L 240.859899 167.041579 
L 241.58296 176.745635 
L 242.306021 168.288809 
L 243.029083 177.475721 
L 243.752144 173.247308 
L 244.475206 175.376725 
L 245.198267 162.965267 
L 245.921328 174.038234 
L 246.64439 174.707479 
L 247.367451 178.297068 
L 248.090512 171.939238 
L 248.813574 181.06531 
L 249.536635 180.791527 
L 250.259696 179.81808 
L 250.982758 166.341913 
L 251.705819 165.185944 
L 252.42888 168.593011 
L 253.151942 162.356862 
L 253.875003 171.239572 
L 254.598064 172.000078 
L 255.321126 169.475198 
L 256.044187 163.117368 
L 256.767248 161.930979 
L 257.49031 166.737377 
L 258.213371 167.2241 
L 258.936432 158.736853 
L 259.659494 168.227968 
L 260.382555 162.05266 
L 261.105617 172.760584 
L 262.551739 168.50175 
L 263.274801 175.194203 
L 263.997862 165.581407 
L 264.720923 169.627299 
L 265.443985 167.497883 
L 266.167046 170.692008 
L 266.890107 170.114023 
L 267.613169 179.970181 
L 268.33623 173.734032 
L 269.059291 166.250653 
L 269.782353 172.425961 
L 270.505414 163.512831 
L 271.228475 171.239572 
L 271.951537 173.734032 
L 272.674598 160.409967 
L 273.397659 162.752325 
L 274.120721 158.888955 
L 274.843782 161.413835 
L 275.566843 169.231836 
L 276.289905 168.136708 
L 277.012966 164.57754 
L 277.736028 164.63838 
L 278.459089 163.756193 
L 279.18215 170.570327 
L 279.905212 172.000078 
L 280.628273 162.204761 
L 281.351334 167.832505 
L 282.074396 166.615696 
L 282.797457 170.174864 
L 283.520518 162.600224 
L 284.24358 174.464117 
L 284.966641 153.991296 
L 285.689702 169.353517 
L 286.412764 171.908817 
L 287.135825 172.547642 
L 287.858886 160.166605 
L 288.581948 161.170473 
L 289.305009 165.338046 
L 290.02807 163.269469 
L 290.751132 167.649984 
L 291.474193 169.262256 
L 292.197255 169.566459 
L 292.920316 164.303757 
L 293.643377 165.550987 
L 294.366439 155.116845 
L 295.0895 170.844109 
L 295.812561 159.132317 
L 296.535623 166.798217 
L 297.258684 165.94645 
L 297.981745 164.151656 
L 298.704807 170.296545 
L 299.427868 165.88561 
L 300.150929 160.014504 
L 300.873991 162.813166 
L 301.597052 166.220232 
L 302.320113 163.999555 
L 303.043175 164.729641 
L 303.766236 162.387282 
L 304.489297 176.776056 
L 305.212359 162.417702 
L 305.93542 161.778877 
L 306.658481 164.242917 
L 307.381543 166.128972 
L 308.104604 169.170996 
L 308.827666 159.436519 
L 309.550727 168.866793 
L 310.273788 160.592488 
L 310.99685 160.592488 
L 311.719911 162.417702 
L 312.442972 163.604092 
L 313.166034 157.094161 
L 313.889095 160.136184 
L 314.612156 167.16326 
L 315.335218 158.706433 
L 316.058279 163.147788 
L 316.78134 159.679881 
L 317.504402 167.649984 
L 318.227463 162.874006 
L 318.950524 164.364598 
L 319.673586 160.531648 
L 320.396647 163.086948 
L 321.119708 174.281596 
L 321.84277 164.455859 
L 322.565831 162.874006 
L 323.288892 156.729118 
L 324.011954 168.562591 
L 324.735015 161.657196 
L 325.458077 166.494015 
L 326.181138 163.451991 
L 326.904199 167.041579 
L 327.627261 158.523912 
L 328.350322 163.39115 
L 329.073383 146.751279 
L 329.796445 173.156047 
L 330.519506 164.60796 
L 331.242567 165.672668 
L 331.965629 164.790481 
L 332.68869 163.208629 
L 333.411751 159.801562 
L 334.134813 170.022762 
L 335.580935 161.565936 
L 336.303997 159.345258 
L 337.027058 166.554855 
L 337.750119 157.672145 
L 338.473181 161.109632 
L 339.196242 162.782745 
L 339.919304 165.064263 
L 340.642365 159.041056 
L 341.365426 164.729641 
L 342.088488 166.554855 
L 342.811549 161.626776 
L 343.53461 161.505095 
L 344.257672 157.428783 
L 344.980733 161.292154 
L 345.703794 159.58862 
L 346.426856 165.703088 
L 347.149917 166.676536 
L 347.872978 155.208106 
L 348.59604 166.706956 
L 349.319101 153.778354 
L 350.042162 163.451991 
L 350.765224 158.098028 
L 351.488285 158.676013 
L 352.211346 159.740721 
L 352.934408 161.535516 
L 353.657469 161.870138 
L 354.38053 161.961399 
L 355.103592 164.57754 
L 355.826653 158.858534 
L 356.549715 160.075344 
L 357.272776 163.42157 
L 357.995837 174.220756 
L 358.718899 164.57754 
L 359.44196 167.710824 
L 360.165021 163.39115 
L 360.888083 160.927111 
L 361.611144 155.025584 
L 362.334205 159.923243 
L 363.057267 161.839718 
L 363.780328 166.828637 
L 364.503389 162.387282 
L 365.226451 160.653329 
L 365.949512 160.714169 
L 366.672573 162.874006 
L 367.395635 167.558723 
L 368.118696 167.710824 
L 368.841757 167.497883 
L 369.564819 167.771665 
L 370.28788 178.388328 
L 371.010941 160.075344 
L 371.734003 168.075867 
L 372.457064 159.193157 
L 373.180126 167.102419 
L 373.903187 167.923766 
L 374.626248 153.048269 
L 375.34931 175.224623 
L 376.072371 164.60796 
L 376.795432 161.687617 
L 377.518494 159.710301 
L 378.241555 174.342437 
L 379.687678 165.581407 
L 380.410739 164.364598 
L 381.1338 164.395018 
L 381.856862 164.6688 
L 382.579923 165.459726 
L 383.302984 157.580884 
L 384.026046 166.950318 
L 384.749107 155.694829 
L 385.472168 161.140052 
L 386.19523 170.904949 
L 386.918291 164.516699 
L 387.641353 163.573672 
L 388.364414 176.167651 
L 389.087475 161.505095 
L 389.810537 161.444255 
L 390.533598 163.634512 
L 391.256659 165.155524 
L 391.979721 165.550987 
L 392.702782 162.022239 
L 393.425843 160.014504 
L 394.148905 159.345258 
L 394.871966 157.06374 
L 395.595027 163.573672 
L 396.318089 163.36073 
L 397.04115 170.904949 
L 397.764211 162.691485 
L 398.487273 156.211974 
L 398.487273 156.211974 
" clip-path="url(#p87ec874af2)" style="fill: none; stroke: #d62728; stroke-width: 1.5; stroke-linecap: square"/>
   </g>
   <g id="line2d_23">
    <path d="M 351.488285 75.233295 
L 352.211346 75.233295 
L 352.934408 79.157506 
L 353.657469 78.123218 
L 354.38053 76.541365 
L 355.103592 78.822883 
L 356.549715 75.90254 
L 357.995837 79.613809 
L 358.718899 76.663046 
L 359.44196 77.058509 
L 360.165021 78.549101 
L 360.888083 78.062377 
L 361.611144 77.849436 
L 362.334205 78.549101 
L 363.057267 80.465576 
L 363.780328 79.583389 
L 364.503389 79.70507 
L 365.226451 81.134821 
L 365.949512 78.153638 
L 366.672573 80.769779 
L 367.395635 78.792463 
L 368.118696 79.309607 
L 368.841757 80.313475 
L 369.564819 82.108269 
L 370.28788 84.72441 
L 371.010941 80.404736 
L 371.734003 85.302394 
L 372.457064 85.332815 
L 373.180126 85.089453 
L 373.903187 86.275842 
L 374.626248 85.849959 
L 375.34931 86.397523 
L 376.072371 83.020876 
L 376.795432 86.610465 
L 377.518494 85.697857 
L 378.241555 85.728278 
L 378.964616 84.572309 
L 379.687678 85.484916 
L 380.410739 84.937351 
L 381.856862 93.515859 
L 382.579923 89.226605 
L 383.302984 88.161897 
L 384.026046 88.891983 
L 384.749107 85.576176 
L 385.472168 89.044084 
L 386.19523 98.413518 
L 386.918291 91.264761 
L 387.641353 91.05182 
L 388.364414 93.150816 
L 389.087475 95.736537 
L 389.810537 89.469967 
L 390.533598 94.428466 
L 391.256659 92.816194 
L 391.979721 93.181236 
L 392.702782 98.291837 
L 393.425843 98.170156 
L 394.148905 91.873166 
L 394.871966 100.755876 
L 395.595027 104.406305 
L 396.318089 98.778561 
L 397.04115 102.185627 
L 397.764211 95.371494 
L 398.487273 96.314521 
L 398.487273 96.314521 
" clip-path="url(#p87ec874af2)" style="fill: none; stroke: #9467bd; stroke-width: 1.5; stroke-linecap: square"/>
   </g>
   <g id="line2d_24">
    <path d="M 351.488285 126.959241 
L 352.211346 126.917282 
L 352.934408 133.588756 
L 353.657469 126.665529 
L 354.38053 129.560696 
L 355.103592 131.490808 
L 355.826653 128.815925 
L 356.549715 123.644484 
L 357.272776 129.298453 
L 357.995837 130.714568 
L 358.718899 128.553682 
L 359.44196 130.127142 
L 360.165021 128.931312 
L 360.888083 127.127077 
L 361.611144 128.522212 
L 362.334205 129.130617 
L 363.057267 133.106228 
L 363.780328 128.826415 
L 364.503389 129.42433 
L 365.226451 133.043289 
L 365.949512 129.665594 
L 367.395635 125.259904 
L 368.118696 125.501168 
L 368.841757 126.822875 
L 369.564819 133.085248 
L 370.28788 132.875454 
L 371.010941 134.994381 
L 371.734003 135.246134 
L 372.457064 135.277604 
L 373.180126 133.767081 
L 373.903187 136.746167 
L 374.626248 132.392926 
L 375.34931 135.739152 
L 376.072371 133.305533 
L 376.795432 131.920887 
L 377.518494 133.399941 
L 378.241555 128.721517 
L 379.687678 134.312548 
L 380.410739 132.550272 
L 381.1338 132.749577 
L 381.856862 139.064399 
L 382.579923 140.837165 
L 383.302984 133.83002 
L 384.026046 139.095868 
L 384.749107 134.029325 
L 385.472168 135.03634 
L 386.19523 146.543582 
L 386.918291 141.277734 
L 387.641353 134.469894 
L 388.364414 139.001461 
L 389.087475 141.854669 
L 389.810537 138.319628 
L 390.533598 144.424655 
L 391.256659 138.665789 
L 391.979721 139.588886 
L 392.702782 142.725318 
L 393.425843 144.582001 
L 394.148905 140.050434 
L 394.871966 144.508573 
L 395.595027 144.749837 
L 396.318089 137.627305 
L 397.04115 142.777766 
L 397.764211 140.784716 
L 398.487273 142.053974 
L 398.487273 142.053974 
" clip-path="url(#p87ec874af2)" style="fill: none; stroke: #8c564b; stroke-width: 1.5; stroke-linecap: square"/>
   </g>
   <g id="line2d_25">
    <path d="M 351.488285 153.534992 
L 352.211346 154.53886 
L 352.934408 160.83585 
L 353.657469 163.482411 
L 354.38053 155.907771 
L 355.103592 167.862925 
L 355.826653 155.208106 
L 356.549715 154.173817 
L 357.272776 167.832505 
L 357.995837 177.141099 
L 358.718899 157.367943 
L 359.44196 165.520567 
L 360.165021 171.635035 
L 360.888083 170.022762 
L 361.611144 177.506141 
L 362.334205 179.939761 
L 363.057267 192.929203 
L 363.780328 201.933594 
L 364.503389 183.012205 
L 365.226451 190.738946 
L 365.949512 183.894392 
L 366.672573 185.293723 
L 367.395635 182.829683 
L 368.118696 190.617265 
L 368.841757 188.122805 
L 369.564819 197.431399 
L 370.28788 202.176956 
L 371.010941 181.612874 
L 371.734003 204.762676 
L 372.457064 192.016596 
L 373.180126 196.30585 
L 373.903187 202.146536 
L 374.626248 201.538131 
L 375.34931 201.842333 
L 376.072371 181.491193 
L 376.795432 193.963491 
L 377.518494 199.043671 
L 378.241555 210.664203 
L 378.964616 193.355086 
L 379.687678 207.622179 
L 380.410739 199.743337 
L 381.856862 222.284735 
L 382.579923 224.840035 
L 383.302984 215.227239 
L 384.749107 205.523182 
L 385.472168 211.850592 
L 386.19523 239.745952 
L 386.918291 209.173611 
L 387.641353 217.387076 
L 388.364414 210.086218 
L 389.087475 220.642042 
L 389.810537 222.254314 
L 390.533598 225.47886 
L 391.256659 220.216158 
L 391.979721 205.279821 
L 392.702782 231.106604 
L 393.425843 223.075661 
L 394.148905 207.835121 
L 394.871966 229.950635 
L 395.595027 242.392513 
L 396.318089 228.03416 
L 397.04115 226.72609 
L 397.764211 207.074615 
L 398.487273 220.581201 
L 398.487273 220.581201 
" clip-path="url(#p87ec874af2)" style="fill: none; stroke: #e377c2; stroke-width: 1.5; stroke-linecap: square"/>
   </g>
   <g id="patch_3">
    <path d="M 57.6 307.584 
L 57.6 41.472 
" style="fill: none; stroke: #000000; stroke-width: 0.8; stroke-linejoin: miter; stroke-linecap: square"/>
   </g>
   <g id="patch_4">
    <path d="M 414.72 307.584 
L 414.72 41.472 
" style="fill: none; stroke: #000000; stroke-width: 0.8; stroke-linejoin: miter; stroke-linecap: square"/>
   </g>
   <g id="patch_5">
    <path d="M 57.6 307.584 
L 414.72 307.584 
" style="fill: none; stroke: #000000; stroke-width: 0.8; stroke-linejoin: miter; stroke-linecap: square"/>
   </g>
   <g id="patch_6">
    <path d="M 57.6 41.472 
L 414.72 41.472 
" style="fill: none; stroke: #000000; stroke-width: 0.8; stroke-linejoin: miter; stroke-linecap: square"/>
   </g>
   <g id="text_21">
    <!-- Learning Curves -->
    <g transform="translate(187.37625 35.472) scale(0.12 -0.12)">
     <defs>
      <path id="DejaVuSans-4c" d="M 628 4666 
L 1259 4666 
L 1259 531 
L 3531 531 
L 3531 0 
L 628 0 
L 628 4666 
z
" transform="scale(0.015625)"/>
      <path id="DejaVuSans-65" d="M 3597 1894 
L 3597 1613 
L 953 1613 
Q 991 1019 1311 708 
Q 1631 397 2203 397 
Q 2534 397 2845 478 
Q 3156 559 3463 722 
L 3463 178 
Q 3153 47 2828 -22 
Q 2503 -91 2169 -91 
Q 1331 -91 842 396 
Q 353 884 353 1716 
Q 353 2575 817 3079 
Q 1281 3584 2069 3584 
Q 2775 3584 3186 3129 
Q 3597 2675 3597 1894 
z
M 3022 2063 
Q 3016 2534 2758 2815 
Q 2500 3097 2075 3097 
Q 1594 3097 1305 2825 
Q 1016 2553 972 2059 
L 3022 2063 
z
" transform="scale(0.015625)"/>
      <path id="DejaVuSans-6e" d="M 3513 2113 
L 3513 0 
L 2938 0 
L 2938 2094 
Q 2938 2591 2744 2837 
Q 2550 3084 2163 3084 
Q 1697 3084 1428 2787 
Q 1159 2491 1159 1978 
L 1159 0 
L 581 0 
L 581 3500 
L 1159 3500 
L 1159 2956 
Q 1366 3272 1645 3428 
Q 1925 3584 2291 3584 
Q 2894 3584 3203 3211 
Q 3513 2838 3513 2113 
z
" transform="scale(0.015625)"/>
      <path id="DejaVuSans-69" d="M 603 3500 
L 1178 3500 
L 1178 0 
L 603 0 
L 603 3500 
z
M 603 4863 
L 1178 4863 
L 1178 4134 
L 603 4134 
L 603 4863 
z
" transform="scale(0.015625)"/>
      <path id="DejaVuSans-67" d="M 2906 1791 
Q 2906 2416 2648 2759 
Q 2391 3103 1925 3103 
Q 1463 3103 1205 2759 
Q 947 2416 947 1791 
Q 947 1169 1205 825 
Q 1463 481 1925 481 
Q 2391 481 2648 825 
Q 2906 1169 2906 1791 
z
M 3481 434 
Q 3481 -459 3084 -895 
Q 2688 -1331 1869 -1331 
Q 1566 -1331 1297 -1286 
Q 1028 -1241 775 -1147 
L 775 -588 
Q 1028 -725 1275 -790 
Q 1522 -856 1778 -856 
Q 2344 -856 2625 -561 
Q 2906 -266 2906 331 
L 2906 616 
Q 2728 306 2450 153 
Q 2172 0 1784 0 
Q 1141 0 747 490 
Q 353 981 353 1791 
Q 353 2603 747 3093 
Q 1141 3584 1784 3584 
Q 2172 3584 2450 3431 
Q 2728 3278 2906 2969 
L 2906 3500 
L 3481 3500 
L 3481 434 
z
" transform="scale(0.015625)"/>
      <path id="DejaVuSans-20" transform="scale(0.015625)"/>
      <path id="DejaVuSans-43" d="M 4122 4306 
L 4122 3641 
Q 3803 3938 3442 4084 
Q 3081 4231 2675 4231 
Q 1875 4231 1450 3742 
Q 1025 3253 1025 2328 
Q 1025 1406 1450 917 
Q 1875 428 2675 428 
Q 3081 428 3442 575 
Q 3803 722 4122 1019 
L 4122 359 
Q 3791 134 3420 21 
Q 3050 -91 2638 -91 
Q 1578 -91 968 557 
Q 359 1206 359 2328 
Q 359 3453 968 4101 
Q 1578 4750 2638 4750 
Q 3056 4750 3426 4639 
Q 3797 4528 4122 4306 
z
" transform="scale(0.015625)"/>
      <path id="DejaVuSans-76" d="M 191 3500 
L 800 3500 
L 1894 563 
L 2988 3500 
L 3597 3500 
L 2284 0 
L 1503 0 
L 191 3500 
z
" transform="scale(0.015625)"/>
     </defs>
     <use xlink:href="#DejaVuSans-4c"/>
     <use xlink:href="#DejaVuSans-65" x="53.962891"/>
     <use xlink:href="#DejaVuSans-61" x="115.486328"/>
     <use xlink:href="#DejaVuSans-72" x="176.765625"/>
     <use xlink:href="#DejaVuSans-6e" x="216.128906"/>
     <use xlink:href="#DejaVuSans-69" x="279.507812"/>
     <use xlink:href="#DejaVuSans-6e" x="307.291016"/>
     <use xlink:href="#DejaVuSans-67" x="370.669922"/>
     <use xlink:href="#DejaVuSans-20" x="434.146484"/>
     <use xlink:href="#DejaVuSans-43" x="465.933594"/>
     <use xlink:href="#DejaVuSans-75" x="535.757812"/>
     <use xlink:href="#DejaVuSans-72" x="599.136719"/>
     <use xlink:href="#DejaVuSans-76" x="640.25"/>
     <use xlink:href="#DejaVuSans-65" x="699.429688"/>
     <use xlink:href="#DejaVuSans-73" x="760.953125"/>
    </g>
   </g>
   <g id="legend_1">
    <g id="patch_7">
     <path d="M 128.445937 302.584 
L 343.874063 302.584 
Q 345.874063 302.584 345.874063 300.584 
L 345.874063 198.837125 
Q 345.874063 196.837125 343.874063 196.837125 
L 128.445937 196.837125 
Q 126.445937 196.837125 126.445937 198.837125 
L 126.445937 300.584 
Q 126.445937 302.584 128.445937 302.584 
z
" style="fill: #ffffff; opacity: 0.8; stroke: #cccccc; stroke-linejoin: miter"/>
    </g>
    <g id="line2d_26">
     <path d="M 130.445937 204.935563 
L 140.445937 204.935563 
L 150.445937 204.935563 
" style="fill: none; stroke: #1f77b4; stroke-width: 1.5; stroke-linecap: square"/>
    </g>
    <g id="text_22">
     <!-- Train Accuracy -->
     <g transform="translate(158.445937 208.435563) scale(0.1 -0.1)">
      <defs>
       <path id="DejaVuSans-54" d="M -19 4666 
L 3928 4666 
L 3928 4134 
L 2272 4134 
L 2272 0 
L 1638 0 
L 1638 4134 
L -19 4134 
L -19 4666 
z
" transform="scale(0.015625)"/>
      </defs>
      <use xlink:href="#DejaVuSans-54"/>
      <use xlink:href="#DejaVuSans-72" x="46.333984"/>
      <use xlink:href="#DejaVuSans-61" x="87.447266"/>
      <use xlink:href="#DejaVuSans-69" x="148.726562"/>
      <use xlink:href="#DejaVuSans-6e" x="176.509766"/>
      <use xlink:href="#DejaVuSans-20" x="239.888672"/>
      <use xlink:href="#DejaVuSans-41" x="271.675781"/>
      <use xlink:href="#DejaVuSans-63" x="338.333984"/>
      <use xlink:href="#DejaVuSans-63" x="393.314453"/>
      <use xlink:href="#DejaVuSans-75" x="448.294922"/>
      <use xlink:href="#DejaVuSans-72" x="511.673828"/>
      <use xlink:href="#DejaVuSans-61" x="552.787109"/>
      <use xlink:href="#DejaVuSans-63" x="614.066406"/>
      <use xlink:href="#DejaVuSans-79" x="669.046875"/>
     </g>
    </g>
    <g id="line2d_27">
     <path d="M 130.445937 219.613688 
L 140.445937 219.613688 
L 150.445937 219.613688 
" style="fill: none; stroke: #ff7f0e; stroke-width: 1.5; stroke-linecap: square"/>
    </g>
    <g id="text_23">
     <!-- Validation Accuracy -->
     <g transform="translate(158.445937 223.113688) scale(0.1 -0.1)">
      <defs>
       <path id="DejaVuSans-56" d="M 1831 0 
L 50 4666 
L 709 4666 
L 2188 738 
L 3669 4666 
L 4325 4666 
L 2547 0 
L 1831 0 
z
" transform="scale(0.015625)"/>
       <path id="DejaVuSans-6c" d="M 603 4863 
L 1178 4863 
L 1178 0 
L 603 0 
L 603 4863 
z
" transform="scale(0.015625)"/>
       <path id="DejaVuSans-64" d="M 2906 2969 
L 2906 4863 
L 3481 4863 
L 3481 0 
L 2906 0 
L 2906 525 
Q 2725 213 2448 61 
Q 2172 -91 1784 -91 
Q 1150 -91 751 415 
Q 353 922 353 1747 
Q 353 2572 751 3078 
Q 1150 3584 1784 3584 
Q 2172 3584 2448 3432 
Q 2725 3281 2906 2969 
z
M 947 1747 
Q 947 1113 1208 752 
Q 1469 391 1925 391 
Q 2381 391 2643 752 
Q 2906 1113 2906 1747 
Q 2906 2381 2643 2742 
Q 2381 3103 1925 3103 
Q 1469 3103 1208 2742 
Q 947 2381 947 1747 
z
" transform="scale(0.015625)"/>
       <path id="DejaVuSans-74" d="M 1172 4494 
L 1172 3500 
L 2356 3500 
L 2356 3053 
L 1172 3053 
L 1172 1153 
Q 1172 725 1289 603 
Q 1406 481 1766 481 
L 2356 481 
L 2356 0 
L 1766 0 
Q 1100 0 847 248 
Q 594 497 594 1153 
L 594 3053 
L 172 3053 
L 172 3500 
L 594 3500 
L 594 4494 
L 1172 4494 
z
" transform="scale(0.015625)"/>
      </defs>
      <use xlink:href="#DejaVuSans-56"/>
      <use xlink:href="#DejaVuSans-61" x="60.658203"/>
      <use xlink:href="#DejaVuSans-6c" x="121.9375"/>
      <use xlink:href="#DejaVuSans-69" x="149.720703"/>
      <use xlink:href="#DejaVuSans-64" x="177.503906"/>
      <use xlink:href="#DejaVuSans-61" x="240.980469"/>
      <use xlink:href="#DejaVuSans-74" x="302.259766"/>
      <use xlink:href="#DejaVuSans-69" x="341.46875"/>
      <use xlink:href="#DejaVuSans-6f" x="369.251953"/>
      <use xlink:href="#DejaVuSans-6e" x="430.433594"/>
      <use xlink:href="#DejaVuSans-20" x="493.8125"/>
      <use xlink:href="#DejaVuSans-41" x="525.599609"/>
      <use xlink:href="#DejaVuSans-63" x="592.257812"/>
      <use xlink:href="#DejaVuSans-63" x="647.238281"/>
      <use xlink:href="#DejaVuSans-75" x="702.21875"/>
      <use xlink:href="#DejaVuSans-72" x="765.597656"/>
      <use xlink:href="#DejaVuSans-61" x="806.710938"/>
      <use xlink:href="#DejaVuSans-63" x="867.990234"/>
      <use xlink:href="#DejaVuSans-79" x="922.970703"/>
     </g>
    </g>
    <g id="line2d_28">
     <path d="M 130.445937 234.291812 
L 140.445937 234.291812 
L 150.445937 234.291812 
" style="fill: none; stroke: #2ca02c; stroke-width: 1.5; stroke-linecap: square"/>
    </g>
    <g id="text_24">
     <!-- Robust Validation Accuracy -->
     <g transform="translate(158.445937 237.791812) scale(0.1 -0.1)">
      <defs>
       <path id="DejaVuSans-52" d="M 2841 2188 
Q 3044 2119 3236 1894 
Q 3428 1669 3622 1275 
L 4263 0 
L 3584 0 
L 2988 1197 
Q 2756 1666 2539 1819 
Q 2322 1972 1947 1972 
L 1259 1972 
L 1259 0 
L 628 0 
L 628 4666 
L 2053 4666 
Q 2853 4666 3247 4331 
Q 3641 3997 3641 3322 
Q 3641 2881 3436 2590 
Q 3231 2300 2841 2188 
z
M 1259 4147 
L 1259 2491 
L 2053 2491 
Q 2509 2491 2742 2702 
Q 2975 2913 2975 3322 
Q 2975 3731 2742 3939 
Q 2509 4147 2053 4147 
L 1259 4147 
z
" transform="scale(0.015625)"/>
       <path id="DejaVuSans-62" d="M 3116 1747 
Q 3116 2381 2855 2742 
Q 2594 3103 2138 3103 
Q 1681 3103 1420 2742 
Q 1159 2381 1159 1747 
Q 1159 1113 1420 752 
Q 1681 391 2138 391 
Q 2594 391 2855 752 
Q 3116 1113 3116 1747 
z
M 1159 2969 
Q 1341 3281 1617 3432 
Q 1894 3584 2278 3584 
Q 2916 3584 3314 3078 
Q 3713 2572 3713 1747 
Q 3713 922 3314 415 
Q 2916 -91 2278 -91 
Q 1894 -91 1617 61 
Q 1341 213 1159 525 
L 1159 0 
L 581 0 
L 581 4863 
L 1159 4863 
L 1159 2969 
z
" transform="scale(0.015625)"/>
      </defs>
      <use xlink:href="#DejaVuSans-52"/>
      <use xlink:href="#DejaVuSans-6f" x="64.982422"/>
      <use xlink:href="#DejaVuSans-62" x="126.164062"/>
      <use xlink:href="#DejaVuSans-75" x="189.640625"/>
      <use xlink:href="#DejaVuSans-73" x="253.019531"/>
      <use xlink:href="#DejaVuSans-74" x="305.119141"/>
      <use xlink:href="#DejaVuSans-20" x="344.328125"/>
      <use xlink:href="#DejaVuSans-56" x="376.115234"/>
      <use xlink:href="#DejaVuSans-61" x="436.773438"/>
      <use xlink:href="#DejaVuSans-6c" x="498.052734"/>
      <use xlink:href="#DejaVuSans-69" x="525.835938"/>
      <use xlink:href="#DejaVuSans-64" x="553.619141"/>
      <use xlink:href="#DejaVuSans-61" x="617.095703"/>
      <use xlink:href="#DejaVuSans-74" x="678.375"/>
      <use xlink:href="#DejaVuSans-69" x="717.583984"/>
      <use xlink:href="#DejaVuSans-6f" x="745.367188"/>
      <use xlink:href="#DejaVuSans-6e" x="806.548828"/>
      <use xlink:href="#DejaVuSans-20" x="869.927734"/>
      <use xlink:href="#DejaVuSans-41" x="901.714844"/>
      <use xlink:href="#DejaVuSans-63" x="968.373047"/>
      <use xlink:href="#DejaVuSans-63" x="1023.353516"/>
      <use xlink:href="#DejaVuSans-75" x="1078.333984"/>
      <use xlink:href="#DejaVuSans-72" x="1141.712891"/>
      <use xlink:href="#DejaVuSans-61" x="1182.826172"/>
      <use xlink:href="#DejaVuSans-63" x="1244.105469"/>
      <use xlink:href="#DejaVuSans-79" x="1299.085938"/>
     </g>
    </g>
    <g id="line2d_29">
     <path d="M 130.445937 248.969938 
L 140.445937 248.969938 
L 150.445937 248.969938 
" style="fill: none; stroke: #d62728; stroke-width: 1.5; stroke-linecap: square"/>
    </g>
    <g id="text_25">
     <!-- Adversarial Validation Accuracy -->
     <g transform="translate(158.445937 252.469938) scale(0.1 -0.1)">
      <use xlink:href="#DejaVuSans-41"/>
      <use xlink:href="#DejaVuSans-64" x="66.658203"/>
      <use xlink:href="#DejaVuSans-76" x="130.134766"/>
      <use xlink:href="#DejaVuSans-65" x="189.314453"/>
      <use xlink:href="#DejaVuSans-72" x="250.837891"/>
      <use xlink:href="#DejaVuSans-73" x="291.951172"/>
      <use xlink:href="#DejaVuSans-61" x="344.050781"/>
      <use xlink:href="#DejaVuSans-72" x="405.330078"/>
      <use xlink:href="#DejaVuSans-69" x="446.443359"/>
      <use xlink:href="#DejaVuSans-61" x="474.226562"/>
      <use xlink:href="#DejaVuSans-6c" x="535.505859"/>
      <use xlink:href="#DejaVuSans-20" x="563.289062"/>
      <use xlink:href="#DejaVuSans-56" x="595.076172"/>
      <use xlink:href="#DejaVuSans-61" x="655.734375"/>
      <use xlink:href="#DejaVuSans-6c" x="717.013672"/>
      <use xlink:href="#DejaVuSans-69" x="744.796875"/>
      <use xlink:href="#DejaVuSans-64" x="772.580078"/>
      <use xlink:href="#DejaVuSans-61" x="836.056641"/>
      <use xlink:href="#DejaVuSans-74" x="897.335938"/>
      <use xlink:href="#DejaVuSans-69" x="936.544922"/>
      <use xlink:href="#DejaVuSans-6f" x="964.328125"/>
      <use xlink:href="#DejaVuSans-6e" x="1025.509766"/>
      <use xlink:href="#DejaVuSans-20" x="1088.888672"/>
      <use xlink:href="#DejaVuSans-41" x="1120.675781"/>
      <use xlink:href="#DejaVuSans-63" x="1187.333984"/>
      <use xlink:href="#DejaVuSans-63" x="1242.314453"/>
      <use xlink:href="#DejaVuSans-75" x="1297.294922"/>
      <use xlink:href="#DejaVuSans-72" x="1360.673828"/>
      <use xlink:href="#DejaVuSans-61" x="1401.787109"/>
      <use xlink:href="#DejaVuSans-63" x="1463.066406"/>
      <use xlink:href="#DejaVuSans-79" x="1518.046875"/>
     </g>
    </g>
    <g id="line2d_30">
     <path d="M 130.445937 263.648063 
L 140.445937 263.648063 
L 150.445937 263.648063 
" style="fill: none; stroke: #9467bd; stroke-width: 1.5; stroke-linecap: square"/>
    </g>
    <g id="text_26">
     <!-- SWA Validation Accuracy -->
     <g transform="translate(158.445937 267.148063) scale(0.1 -0.1)">
      <defs>
       <path id="DejaVuSans-53" d="M 3425 4513 
L 3425 3897 
Q 3066 4069 2747 4153 
Q 2428 4238 2131 4238 
Q 1616 4238 1336 4038 
Q 1056 3838 1056 3469 
Q 1056 3159 1242 3001 
Q 1428 2844 1947 2747 
L 2328 2669 
Q 3034 2534 3370 2195 
Q 3706 1856 3706 1288 
Q 3706 609 3251 259 
Q 2797 -91 1919 -91 
Q 1588 -91 1214 -16 
Q 841 59 441 206 
L 441 856 
Q 825 641 1194 531 
Q 1563 422 1919 422 
Q 2459 422 2753 634 
Q 3047 847 3047 1241 
Q 3047 1584 2836 1778 
Q 2625 1972 2144 2069 
L 1759 2144 
Q 1053 2284 737 2584 
Q 422 2884 422 3419 
Q 422 4038 858 4394 
Q 1294 4750 2059 4750 
Q 2388 4750 2728 4690 
Q 3069 4631 3425 4513 
z
" transform="scale(0.015625)"/>
       <path id="DejaVuSans-57" d="M 213 4666 
L 850 4666 
L 1831 722 
L 2809 4666 
L 3519 4666 
L 4500 722 
L 5478 4666 
L 6119 4666 
L 4947 0 
L 4153 0 
L 3169 4050 
L 2175 0 
L 1381 0 
L 213 4666 
z
" transform="scale(0.015625)"/>
      </defs>
      <use xlink:href="#DejaVuSans-53"/>
      <use xlink:href="#DejaVuSans-57" x="63.476562"/>
      <use xlink:href="#DejaVuSans-41" x="156.853516"/>
      <use xlink:href="#DejaVuSans-20" x="225.261719"/>
      <use xlink:href="#DejaVuSans-56" x="257.048828"/>
      <use xlink:href="#DejaVuSans-61" x="317.707031"/>
      <use xlink:href="#DejaVuSans-6c" x="378.986328"/>
      <use xlink:href="#DejaVuSans-69" x="406.769531"/>
      <use xlink:href="#DejaVuSans-64" x="434.552734"/>
      <use xlink:href="#DejaVuSans-61" x="498.029297"/>
      <use xlink:href="#DejaVuSans-74" x="559.308594"/>
      <use xlink:href="#DejaVuSans-69" x="598.517578"/>
      <use xlink:href="#DejaVuSans-6f" x="626.300781"/>
      <use xlink:href="#DejaVuSans-6e" x="687.482422"/>
      <use xlink:href="#DejaVuSans-20" x="750.861328"/>
      <use xlink:href="#DejaVuSans-41" x="782.648438"/>
      <use xlink:href="#DejaVuSans-63" x="849.306641"/>
      <use xlink:href="#DejaVuSans-63" x="904.287109"/>
      <use xlink:href="#DejaVuSans-75" x="959.267578"/>
      <use xlink:href="#DejaVuSans-72" x="1022.646484"/>
      <use xlink:href="#DejaVuSans-61" x="1063.759766"/>
      <use xlink:href="#DejaVuSans-63" x="1125.039062"/>
      <use xlink:href="#DejaVuSans-79" x="1180.019531"/>
     </g>
    </g>
    <g id="line2d_31">
     <path d="M 130.445937 278.326188 
L 140.445937 278.326188 
L 150.445937 278.326188 
" style="fill: none; stroke: #8c564b; stroke-width: 1.5; stroke-linecap: square"/>
    </g>
    <g id="text_27">
     <!-- SWA Robust Validation Accuracy -->
     <g transform="translate(158.445937 281.826188) scale(0.1 -0.1)">
      <use xlink:href="#DejaVuSans-53"/>
      <use xlink:href="#DejaVuSans-57" x="63.476562"/>
      <use xlink:href="#DejaVuSans-41" x="156.853516"/>
      <use xlink:href="#DejaVuSans-20" x="225.261719"/>
      <use xlink:href="#DejaVuSans-52" x="257.048828"/>
      <use xlink:href="#DejaVuSans-6f" x="322.03125"/>
      <use xlink:href="#DejaVuSans-62" x="383.212891"/>
      <use xlink:href="#DejaVuSans-75" x="446.689453"/>
      <use xlink:href="#DejaVuSans-73" x="510.068359"/>
      <use xlink:href="#DejaVuSans-74" x="562.167969"/>
      <use xlink:href="#DejaVuSans-20" x="601.376953"/>
      <use xlink:href="#DejaVuSans-56" x="633.164062"/>
      <use xlink:href="#DejaVuSans-61" x="693.822266"/>
      <use xlink:href="#DejaVuSans-6c" x="755.101562"/>
      <use xlink:href="#DejaVuSans-69" x="782.884766"/>
      <use xlink:href="#DejaVuSans-64" x="810.667969"/>
      <use xlink:href="#DejaVuSans-61" x="874.144531"/>
      <use xlink:href="#DejaVuSans-74" x="935.423828"/>
      <use xlink:href="#DejaVuSans-69" x="974.632812"/>
      <use xlink:href="#DejaVuSans-6f" x="1002.416016"/>
      <use xlink:href="#DejaVuSans-6e" x="1063.597656"/>
      <use xlink:href="#DejaVuSans-20" x="1126.976562"/>
      <use xlink:href="#DejaVuSans-41" x="1158.763672"/>
      <use xlink:href="#DejaVuSans-63" x="1225.421875"/>
      <use xlink:href="#DejaVuSans-63" x="1280.402344"/>
      <use xlink:href="#DejaVuSans-75" x="1335.382812"/>
      <use xlink:href="#DejaVuSans-72" x="1398.761719"/>
      <use xlink:href="#DejaVuSans-61" x="1439.875"/>
      <use xlink:href="#DejaVuSans-63" x="1501.154297"/>
      <use xlink:href="#DejaVuSans-79" x="1556.134766"/>
     </g>
    </g>
    <g id="line2d_32">
     <path d="M 130.445937 293.004312 
L 140.445937 293.004312 
L 150.445937 293.004312 
" style="fill: none; stroke: #e377c2; stroke-width: 1.5; stroke-linecap: square"/>
    </g>
    <g id="text_28">
     <!-- SWA Adversarial Validation Accuracy -->
     <g transform="translate(158.445937 296.504312) scale(0.1 -0.1)">
      <use xlink:href="#DejaVuSans-53"/>
      <use xlink:href="#DejaVuSans-57" x="63.476562"/>
      <use xlink:href="#DejaVuSans-41" x="156.853516"/>
      <use xlink:href="#DejaVuSans-20" x="225.261719"/>
      <use xlink:href="#DejaVuSans-41" x="257.048828"/>
      <use xlink:href="#DejaVuSans-64" x="323.707031"/>
      <use xlink:href="#DejaVuSans-76" x="387.183594"/>
      <use xlink:href="#DejaVuSans-65" x="446.363281"/>
      <use xlink:href="#DejaVuSans-72" x="507.886719"/>
      <use xlink:href="#DejaVuSans-73" x="549"/>
      <use xlink:href="#DejaVuSans-61" x="601.099609"/>
      <use xlink:href="#DejaVuSans-72" x="662.378906"/>
      <use xlink:href="#DejaVuSans-69" x="703.492188"/>
      <use xlink:href="#DejaVuSans-61" x="731.275391"/>
      <use xlink:href="#DejaVuSans-6c" x="792.554688"/>
      <use xlink:href="#DejaVuSans-20" x="820.337891"/>
      <use xlink:href="#DejaVuSans-56" x="852.125"/>
      <use xlink:href="#DejaVuSans-61" x="912.783203"/>
      <use xlink:href="#DejaVuSans-6c" x="974.0625"/>
      <use xlink:href="#DejaVuSans-69" x="1001.845703"/>
      <use xlink:href="#DejaVuSans-64" x="1029.628906"/>
      <use xlink:href="#DejaVuSans-61" x="1093.105469"/>
      <use xlink:href="#DejaVuSans-74" x="1154.384766"/>
      <use xlink:href="#DejaVuSans-69" x="1193.59375"/>
      <use xlink:href="#DejaVuSans-6f" x="1221.376953"/>
      <use xlink:href="#DejaVuSans-6e" x="1282.558594"/>
      <use xlink:href="#DejaVuSans-20" x="1345.9375"/>
      <use xlink:href="#DejaVuSans-41" x="1377.724609"/>
      <use xlink:href="#DejaVuSans-63" x="1444.382812"/>
      <use xlink:href="#DejaVuSans-63" x="1499.363281"/>
      <use xlink:href="#DejaVuSans-75" x="1554.34375"/>
      <use xlink:href="#DejaVuSans-72" x="1617.722656"/>
      <use xlink:href="#DejaVuSans-61" x="1658.835938"/>
      <use xlink:href="#DejaVuSans-63" x="1720.115234"/>
      <use xlink:href="#DejaVuSans-79" x="1775.095703"/>
     </g>
    </g>
   </g>
  </g>
 </g>
 <defs>
  <clipPath id="p87ec874af2">
   <rect x="57.6" y="41.472" width="357.12" height="266.112"/>
  </clipPath>
 </defs>
</svg>
