<?xml version="1.0" encoding="utf-8" standalone="no"?>
<!DOCTYPE svg PUBLIC "-//W3C//DTD SVG 1.1//EN"
  "http://www.w3.org/Graphics/SVG/1.1/DTD/svg11.dtd">
<svg xmlns:xlink="http://www.w3.org/1999/xlink" width="460.8pt" height="345.6pt" viewBox="0 0 460.8 345.6" xmlns="http://www.w3.org/2000/svg" version="1.1">
 <metadata>
  <rdf:RDF xmlns:dc="http://purl.org/dc/elements/1.1/" xmlns:cc="http://creativecommons.org/ns#" xmlns:rdf="http://www.w3.org/1999/02/22-rdf-syntax-ns#">
   <cc:Work>
    <dc:type rdf:resource="http://purl.org/dc/dcmitype/StillImage"/>
    <dc:date>2024-08-20T00:13:21.582807</dc:date>
    <dc:format>image/svg+xml</dc:format>
    <dc:creator>
     <cc:Agent>
      <dc:title>Matplotlib v3.9.1, https://matplotlib.org/</dc:title>
     </cc:Agent>
    </dc:creator>
   </cc:Work>
  </rdf:RDF>
 </metadata>
 <defs>
  <style type="text/css">*{stroke-linejoin: round; stroke-linecap: butt}</style>
 </defs>
 <g id="figure_1">
  <g id="patch_1">
   <path d="M 0 345.6 
L 460.8 345.6 
L 460.8 0 
L 0 0 
z
" style="fill: #ffffff"/>
  </g>
  <g id="axes_1">
   <g id="patch_2">
    <path d="M 57.6 307.584 
L 414.72 307.584 
L 414.72 41.472 
L 57.6 41.472 
z
" style="fill: #ffffff"/>
   </g>
   <g id="matplotlib.axis_1">
    <g id="xtick_1">
     <g id="line2d_1">
      <defs>
       <path id="md6eee3bda9" d="M 0 0 
L 0 3.5 
" style="stroke: #000000; stroke-width: 0.8"/>
      </defs>
      <g>
       <use xlink:href="#md6eee3bda9" x="73.832727" y="307.584" style="stroke: #000000; stroke-width: 0.8"/>
      </g>
     </g>
     <g id="text_1">
      <!-- 1 -->
      <g transform="translate(70.651477 322.182437) scale(0.1 -0.1)">
       <defs>
        <path id="DejaVuSans-31" d="M 794 531 
L 1825 531 
L 1825 4091 
L 703 3866 
L 703 4441 
L 1819 4666 
L 2450 4666 
L 2450 531 
L 3481 531 
L 3481 0 
L 794 0 
L 794 531 
z
" transform="scale(0.015625)"/>
       </defs>
       <use xlink:href="#DejaVuSans-31"/>
      </g>
     </g>
    </g>
    <g id="xtick_2">
     <g id="line2d_2">
      <g>
       <use xlink:href="#md6eee3bda9" x="109.262733" y="307.584" style="stroke: #000000; stroke-width: 0.8"/>
      </g>
     </g>
     <g id="text_2">
      <!-- 50 -->
      <g transform="translate(102.900233 322.182437) scale(0.1 -0.1)">
       <defs>
        <path id="DejaVuSans-35" d="M 691 4666 
L 3169 4666 
L 3169 4134 
L 1269 4134 
L 1269 2991 
Q 1406 3038 1543 3061 
Q 1681 3084 1819 3084 
Q 2600 3084 3056 2656 
Q 3513 2228 3513 1497 
Q 3513 744 3044 326 
Q 2575 -91 1722 -91 
Q 1428 -91 1123 -41 
Q 819 9 494 109 
L 494 744 
Q 775 591 1075 516 
Q 1375 441 1709 441 
Q 2250 441 2565 725 
Q 2881 1009 2881 1497 
Q 2881 1984 2565 2268 
Q 2250 2553 1709 2553 
Q 1456 2553 1204 2497 
Q 953 2441 691 2322 
L 691 4666 
z
" transform="scale(0.015625)"/>
        <path id="DejaVuSans-30" d="M 2034 4250 
Q 1547 4250 1301 3770 
Q 1056 3291 1056 2328 
Q 1056 1369 1301 889 
Q 1547 409 2034 409 
Q 2525 409 2770 889 
Q 3016 1369 3016 2328 
Q 3016 3291 2770 3770 
Q 2525 4250 2034 4250 
z
M 2034 4750 
Q 2819 4750 3233 4129 
Q 3647 3509 3647 2328 
Q 3647 1150 3233 529 
Q 2819 -91 2034 -91 
Q 1250 -91 836 529 
Q 422 1150 422 2328 
Q 422 3509 836 4129 
Q 1250 4750 2034 4750 
z
" transform="scale(0.015625)"/>
       </defs>
       <use xlink:href="#DejaVuSans-35"/>
       <use xlink:href="#DejaVuSans-30" x="63.623047"/>
      </g>
     </g>
    </g>
    <g id="xtick_3">
     <g id="line2d_3">
      <g>
       <use xlink:href="#md6eee3bda9" x="145.415801" y="307.584" style="stroke: #000000; stroke-width: 0.8"/>
      </g>
     </g>
     <g id="text_3">
      <!-- 100 -->
      <g transform="translate(135.872051 322.182437) scale(0.1 -0.1)">
       <use xlink:href="#DejaVuSans-31"/>
       <use xlink:href="#DejaVuSans-30" x="63.623047"/>
       <use xlink:href="#DejaVuSans-30" x="127.246094"/>
      </g>
     </g>
    </g>
    <g id="xtick_4">
     <g id="line2d_4">
      <g>
       <use xlink:href="#md6eee3bda9" x="181.568868" y="307.584" style="stroke: #000000; stroke-width: 0.8"/>
      </g>
     </g>
     <g id="text_4">
      <!-- 150 -->
      <g transform="translate(172.025118 322.182437) scale(0.1 -0.1)">
       <use xlink:href="#DejaVuSans-31"/>
       <use xlink:href="#DejaVuSans-35" x="63.623047"/>
       <use xlink:href="#DejaVuSans-30" x="127.246094"/>
      </g>
     </g>
    </g>
    <g id="xtick_5">
     <g id="line2d_5">
      <g>
       <use xlink:href="#md6eee3bda9" x="217.721936" y="307.584" style="stroke: #000000; stroke-width: 0.8"/>
      </g>
     </g>
     <g id="text_5">
      <!-- 200 -->
      <g transform="translate(208.178186 322.182437) scale(0.1 -0.1)">
       <defs>
        <path id="DejaVuSans-32" d="M 1228 531 
L 3431 531 
L 3431 0 
L 469 0 
L 469 531 
Q 828 903 1448 1529 
Q 2069 2156 2228 2338 
Q 2531 2678 2651 2914 
Q 2772 3150 2772 3378 
Q 2772 3750 2511 3984 
Q 2250 4219 1831 4219 
Q 1534 4219 1204 4116 
Q 875 4013 500 3803 
L 500 4441 
Q 881 4594 1212 4672 
Q 1544 4750 1819 4750 
Q 2544 4750 2975 4387 
Q 3406 4025 3406 3419 
Q 3406 3131 3298 2873 
Q 3191 2616 2906 2266 
Q 2828 2175 2409 1742 
Q 1991 1309 1228 531 
z
" transform="scale(0.015625)"/>
       </defs>
       <use xlink:href="#DejaVuSans-32"/>
       <use xlink:href="#DejaVuSans-30" x="63.623047"/>
       <use xlink:href="#DejaVuSans-30" x="127.246094"/>
      </g>
     </g>
    </g>
    <g id="xtick_6">
     <g id="line2d_6">
      <g>
       <use xlink:href="#md6eee3bda9" x="253.875003" y="307.584" style="stroke: #000000; stroke-width: 0.8"/>
      </g>
     </g>
     <g id="text_6">
      <!-- 250 -->
      <g transform="translate(244.331253 322.182437) scale(0.1 -0.1)">
       <use xlink:href="#DejaVuSans-32"/>
       <use xlink:href="#DejaVuSans-35" x="63.623047"/>
       <use xlink:href="#DejaVuSans-30" x="127.246094"/>
      </g>
     </g>
    </g>
    <g id="xtick_7">
     <g id="line2d_7">
      <g>
       <use xlink:href="#md6eee3bda9" x="290.02807" y="307.584" style="stroke: #000000; stroke-width: 0.8"/>
      </g>
     </g>
     <g id="text_7">
      <!-- 300 -->
      <g transform="translate(280.48432 322.182437) scale(0.1 -0.1)">
       <defs>
        <path id="DejaVuSans-33" d="M 2597 2516 
Q 3050 2419 3304 2112 
Q 3559 1806 3559 1356 
Q 3559 666 3084 287 
Q 2609 -91 1734 -91 
Q 1441 -91 1130 -33 
Q 819 25 488 141 
L 488 750 
Q 750 597 1062 519 
Q 1375 441 1716 441 
Q 2309 441 2620 675 
Q 2931 909 2931 1356 
Q 2931 1769 2642 2001 
Q 2353 2234 1838 2234 
L 1294 2234 
L 1294 2753 
L 1863 2753 
Q 2328 2753 2575 2939 
Q 2822 3125 2822 3475 
Q 2822 3834 2567 4026 
Q 2313 4219 1838 4219 
Q 1578 4219 1281 4162 
Q 984 4106 628 3988 
L 628 4550 
Q 988 4650 1302 4700 
Q 1616 4750 1894 4750 
Q 2613 4750 3031 4423 
Q 3450 4097 3450 3541 
Q 3450 3153 3228 2886 
Q 3006 2619 2597 2516 
z
" transform="scale(0.015625)"/>
       </defs>
       <use xlink:href="#DejaVuSans-33"/>
       <use xlink:href="#DejaVuSans-30" x="63.623047"/>
       <use xlink:href="#DejaVuSans-30" x="127.246094"/>
      </g>
     </g>
    </g>
    <g id="xtick_8">
     <g id="line2d_8">
      <g>
       <use xlink:href="#md6eee3bda9" x="326.181138" y="307.584" style="stroke: #000000; stroke-width: 0.8"/>
      </g>
     </g>
     <g id="text_8">
      <!-- 350 -->
      <g transform="translate(316.637388 322.182437) scale(0.1 -0.1)">
       <use xlink:href="#DejaVuSans-33"/>
       <use xlink:href="#DejaVuSans-35" x="63.623047"/>
       <use xlink:href="#DejaVuSans-30" x="127.246094"/>
      </g>
     </g>
    </g>
    <g id="xtick_9">
     <g id="line2d_9">
      <g>
       <use xlink:href="#md6eee3bda9" x="362.334205" y="307.584" style="stroke: #000000; stroke-width: 0.8"/>
      </g>
     </g>
     <g id="text_9">
      <!-- 400 -->
      <g transform="translate(352.790455 322.182437) scale(0.1 -0.1)">
       <defs>
        <path id="DejaVuSans-34" d="M 2419 4116 
L 825 1625 
L 2419 1625 
L 2419 4116 
z
M 2253 4666 
L 3047 4666 
L 3047 1625 
L 3713 1625 
L 3713 1100 
L 3047 1100 
L 3047 0 
L 2419 0 
L 2419 1100 
L 313 1100 
L 313 1709 
L 2253 4666 
z
" transform="scale(0.015625)"/>
       </defs>
       <use xlink:href="#DejaVuSans-34"/>
       <use xlink:href="#DejaVuSans-30" x="63.623047"/>
       <use xlink:href="#DejaVuSans-30" x="127.246094"/>
      </g>
     </g>
    </g>
    <g id="xtick_10">
     <g id="line2d_10">
      <g>
       <use xlink:href="#md6eee3bda9" x="398.487273" y="307.584" style="stroke: #000000; stroke-width: 0.8"/>
      </g>
     </g>
     <g id="text_10">
      <!-- 450 -->
      <g transform="translate(388.943523 322.182437) scale(0.1 -0.1)">
       <use xlink:href="#DejaVuSans-34"/>
       <use xlink:href="#DejaVuSans-35" x="63.623047"/>
       <use xlink:href="#DejaVuSans-30" x="127.246094"/>
      </g>
     </g>
    </g>
    <g id="text_11">
     <!-- Epochs -->
     <g transform="translate(218.244375 335.860562) scale(0.1 -0.1)">
      <defs>
       <path id="DejaVuSans-45" d="M 628 4666 
L 3578 4666 
L 3578 4134 
L 1259 4134 
L 1259 2753 
L 3481 2753 
L 3481 2222 
L 1259 2222 
L 1259 531 
L 3634 531 
L 3634 0 
L 628 0 
L 628 4666 
z
" transform="scale(0.015625)"/>
       <path id="DejaVuSans-70" d="M 1159 525 
L 1159 -1331 
L 581 -1331 
L 581 3500 
L 1159 3500 
L 1159 2969 
Q 1341 3281 1617 3432 
Q 1894 3584 2278 3584 
Q 2916 3584 3314 3078 
Q 3713 2572 3713 1747 
Q 3713 922 3314 415 
Q 2916 -91 2278 -91 
Q 1894 -91 1617 61 
Q 1341 213 1159 525 
z
M 3116 1747 
Q 3116 2381 2855 2742 
Q 2594 3103 2138 3103 
Q 1681 3103 1420 2742 
Q 1159 2381 1159 1747 
Q 1159 1113 1420 752 
Q 1681 391 2138 391 
Q 2594 391 2855 752 
Q 3116 1113 3116 1747 
z
" transform="scale(0.015625)"/>
       <path id="DejaVuSans-6f" d="M 1959 3097 
Q 1497 3097 1228 2736 
Q 959 2375 959 1747 
Q 959 1119 1226 758 
Q 1494 397 1959 397 
Q 2419 397 2687 759 
Q 2956 1122 2956 1747 
Q 2956 2369 2687 2733 
Q 2419 3097 1959 3097 
z
M 1959 3584 
Q 2709 3584 3137 3096 
Q 3566 2609 3566 1747 
Q 3566 888 3137 398 
Q 2709 -91 1959 -91 
Q 1206 -91 779 398 
Q 353 888 353 1747 
Q 353 2609 779 3096 
Q 1206 3584 1959 3584 
z
" transform="scale(0.015625)"/>
       <path id="DejaVuSans-63" d="M 3122 3366 
L 3122 2828 
Q 2878 2963 2633 3030 
Q 2388 3097 2138 3097 
Q 1578 3097 1268 2742 
Q 959 2388 959 1747 
Q 959 1106 1268 751 
Q 1578 397 2138 397 
Q 2388 397 2633 464 
Q 2878 531 3122 666 
L 3122 134 
Q 2881 22 2623 -34 
Q 2366 -91 2075 -91 
Q 1284 -91 818 406 
Q 353 903 353 1747 
Q 353 2603 823 3093 
Q 1294 3584 2113 3584 
Q 2378 3584 2631 3529 
Q 2884 3475 3122 3366 
z
" transform="scale(0.015625)"/>
       <path id="DejaVuSans-68" d="M 3513 2113 
L 3513 0 
L 2938 0 
L 2938 2094 
Q 2938 2591 2744 2837 
Q 2550 3084 2163 3084 
Q 1697 3084 1428 2787 
Q 1159 2491 1159 1978 
L 1159 0 
L 581 0 
L 581 4863 
L 1159 4863 
L 1159 2956 
Q 1366 3272 1645 3428 
Q 1925 3584 2291 3584 
Q 2894 3584 3203 3211 
Q 3513 2838 3513 2113 
z
" transform="scale(0.015625)"/>
       <path id="DejaVuSans-73" d="M 2834 3397 
L 2834 2853 
Q 2591 2978 2328 3040 
Q 2066 3103 1784 3103 
Q 1356 3103 1142 2972 
Q 928 2841 928 2578 
Q 928 2378 1081 2264 
Q 1234 2150 1697 2047 
L 1894 2003 
Q 2506 1872 2764 1633 
Q 3022 1394 3022 966 
Q 3022 478 2636 193 
Q 2250 -91 1575 -91 
Q 1294 -91 989 -36 
Q 684 19 347 128 
L 347 722 
Q 666 556 975 473 
Q 1284 391 1588 391 
Q 1994 391 2212 530 
Q 2431 669 2431 922 
Q 2431 1156 2273 1281 
Q 2116 1406 1581 1522 
L 1381 1569 
Q 847 1681 609 1914 
Q 372 2147 372 2553 
Q 372 3047 722 3315 
Q 1072 3584 1716 3584 
Q 2034 3584 2315 3537 
Q 2597 3491 2834 3397 
z
" transform="scale(0.015625)"/>
      </defs>
      <use xlink:href="#DejaVuSans-45"/>
      <use xlink:href="#DejaVuSans-70" x="63.183594"/>
      <use xlink:href="#DejaVuSans-6f" x="126.660156"/>
      <use xlink:href="#DejaVuSans-63" x="187.841797"/>
      <use xlink:href="#DejaVuSans-68" x="242.822266"/>
      <use xlink:href="#DejaVuSans-73" x="306.201172"/>
     </g>
    </g>
   </g>
   <g id="matplotlib.axis_2">
    <g id="ytick_1">
     <g id="line2d_11">
      <defs>
       <path id="m3aee7ac87e" d="M 0 0 
L -3.5 0 
" style="stroke: #000000; stroke-width: 0.8"/>
      </defs>
      <g>
       <use xlink:href="#m3aee7ac87e" x="57.6" y="284.478841" style="stroke: #000000; stroke-width: 0.8"/>
      </g>
     </g>
     <g id="text_12">
      <!-- 10 -->
      <g transform="translate(37.875 288.27806) scale(0.1 -0.1)">
       <use xlink:href="#DejaVuSans-31"/>
       <use xlink:href="#DejaVuSans-30" x="63.623047"/>
      </g>
     </g>
    </g>
    <g id="ytick_2">
     <g id="line2d_12">
      <g>
       <use xlink:href="#m3aee7ac87e" x="57.6" y="253.880844" style="stroke: #000000; stroke-width: 0.8"/>
      </g>
     </g>
     <g id="text_13">
      <!-- 20 -->
      <g transform="translate(37.875 257.680063) scale(0.1 -0.1)">
       <use xlink:href="#DejaVuSans-32"/>
       <use xlink:href="#DejaVuSans-30" x="63.623047"/>
      </g>
     </g>
    </g>
    <g id="ytick_3">
     <g id="line2d_13">
      <g>
       <use xlink:href="#m3aee7ac87e" x="57.6" y="223.282848" style="stroke: #000000; stroke-width: 0.8"/>
      </g>
     </g>
     <g id="text_14">
      <!-- 30 -->
      <g transform="translate(37.875 227.082066) scale(0.1 -0.1)">
       <use xlink:href="#DejaVuSans-33"/>
       <use xlink:href="#DejaVuSans-30" x="63.623047"/>
      </g>
     </g>
    </g>
    <g id="ytick_4">
     <g id="line2d_14">
      <g>
       <use xlink:href="#m3aee7ac87e" x="57.6" y="192.684851" style="stroke: #000000; stroke-width: 0.8"/>
      </g>
     </g>
     <g id="text_15">
      <!-- 40 -->
      <g transform="translate(37.875 196.48407) scale(0.1 -0.1)">
       <use xlink:href="#DejaVuSans-34"/>
       <use xlink:href="#DejaVuSans-30" x="63.623047"/>
      </g>
     </g>
    </g>
    <g id="ytick_5">
     <g id="line2d_15">
      <g>
       <use xlink:href="#m3aee7ac87e" x="57.6" y="162.086855" style="stroke: #000000; stroke-width: 0.8"/>
      </g>
     </g>
     <g id="text_16">
      <!-- 50 -->
      <g transform="translate(37.875 165.886073) scale(0.1 -0.1)">
       <use xlink:href="#DejaVuSans-35"/>
       <use xlink:href="#DejaVuSans-30" x="63.623047"/>
      </g>
     </g>
    </g>
    <g id="ytick_6">
     <g id="line2d_16">
      <g>
       <use xlink:href="#m3aee7ac87e" x="57.6" y="131.488858" style="stroke: #000000; stroke-width: 0.8"/>
      </g>
     </g>
     <g id="text_17">
      <!-- 60 -->
      <g transform="translate(37.875 135.288077) scale(0.1 -0.1)">
       <defs>
        <path id="DejaVuSans-36" d="M 2113 2584 
Q 1688 2584 1439 2293 
Q 1191 2003 1191 1497 
Q 1191 994 1439 701 
Q 1688 409 2113 409 
Q 2538 409 2786 701 
Q 3034 994 3034 1497 
Q 3034 2003 2786 2293 
Q 2538 2584 2113 2584 
z
M 3366 4563 
L 3366 3988 
Q 3128 4100 2886 4159 
Q 2644 4219 2406 4219 
Q 1781 4219 1451 3797 
Q 1122 3375 1075 2522 
Q 1259 2794 1537 2939 
Q 1816 3084 2150 3084 
Q 2853 3084 3261 2657 
Q 3669 2231 3669 1497 
Q 3669 778 3244 343 
Q 2819 -91 2113 -91 
Q 1303 -91 875 529 
Q 447 1150 447 2328 
Q 447 3434 972 4092 
Q 1497 4750 2381 4750 
Q 2619 4750 2861 4703 
Q 3103 4656 3366 4563 
z
" transform="scale(0.015625)"/>
       </defs>
       <use xlink:href="#DejaVuSans-36"/>
       <use xlink:href="#DejaVuSans-30" x="63.623047"/>
      </g>
     </g>
    </g>
    <g id="ytick_7">
     <g id="line2d_17">
      <g>
       <use xlink:href="#m3aee7ac87e" x="57.6" y="100.890861" style="stroke: #000000; stroke-width: 0.8"/>
      </g>
     </g>
     <g id="text_18">
      <!-- 70 -->
      <g transform="translate(37.875 104.69008) scale(0.1 -0.1)">
       <defs>
        <path id="DejaVuSans-37" d="M 525 4666 
L 3525 4666 
L 3525 4397 
L 1831 0 
L 1172 0 
L 2766 4134 
L 525 4134 
L 525 4666 
z
" transform="scale(0.015625)"/>
       </defs>
       <use xlink:href="#DejaVuSans-37"/>
       <use xlink:href="#DejaVuSans-30" x="63.623047"/>
      </g>
     </g>
    </g>
    <g id="ytick_8">
     <g id="line2d_18">
      <g>
       <use xlink:href="#m3aee7ac87e" x="57.6" y="70.292865" style="stroke: #000000; stroke-width: 0.8"/>
      </g>
     </g>
     <g id="text_19">
      <!-- 80 -->
      <g transform="translate(37.875 74.092084) scale(0.1 -0.1)">
       <defs>
        <path id="DejaVuSans-38" d="M 2034 2216 
Q 1584 2216 1326 1975 
Q 1069 1734 1069 1313 
Q 1069 891 1326 650 
Q 1584 409 2034 409 
Q 2484 409 2743 651 
Q 3003 894 3003 1313 
Q 3003 1734 2745 1975 
Q 2488 2216 2034 2216 
z
M 1403 2484 
Q 997 2584 770 2862 
Q 544 3141 544 3541 
Q 544 4100 942 4425 
Q 1341 4750 2034 4750 
Q 2731 4750 3128 4425 
Q 3525 4100 3525 3541 
Q 3525 3141 3298 2862 
Q 3072 2584 2669 2484 
Q 3125 2378 3379 2068 
Q 3634 1759 3634 1313 
Q 3634 634 3220 271 
Q 2806 -91 2034 -91 
Q 1263 -91 848 271 
Q 434 634 434 1313 
Q 434 1759 690 2068 
Q 947 2378 1403 2484 
z
M 1172 3481 
Q 1172 3119 1398 2916 
Q 1625 2713 2034 2713 
Q 2441 2713 2670 2916 
Q 2900 3119 2900 3481 
Q 2900 3844 2670 4047 
Q 2441 4250 2034 4250 
Q 1625 4250 1398 4047 
Q 1172 3844 1172 3481 
z
" transform="scale(0.015625)"/>
       </defs>
       <use xlink:href="#DejaVuSans-38"/>
       <use xlink:href="#DejaVuSans-30" x="63.623047"/>
      </g>
     </g>
    </g>
    <g id="text_20">
     <!-- Accuracy -->
     <g transform="translate(31.795312 197.356125) rotate(-90) scale(0.1 -0.1)">
      <defs>
       <path id="DejaVuSans-41" d="M 2188 4044 
L 1331 1722 
L 3047 1722 
L 2188 4044 
z
M 1831 4666 
L 2547 4666 
L 4325 0 
L 3669 0 
L 3244 1197 
L 1141 1197 
L 716 0 
L 50 0 
L 1831 4666 
z
" transform="scale(0.015625)"/>
       <path id="DejaVuSans-75" d="M 544 1381 
L 544 3500 
L 1119 3500 
L 1119 1403 
Q 1119 906 1312 657 
Q 1506 409 1894 409 
Q 2359 409 2629 706 
Q 2900 1003 2900 1516 
L 2900 3500 
L 3475 3500 
L 3475 0 
L 2900 0 
L 2900 538 
Q 2691 219 2414 64 
Q 2138 -91 1772 -91 
Q 1169 -91 856 284 
Q 544 659 544 1381 
z
M 1991 3584 
L 1991 3584 
z
" transform="scale(0.015625)"/>
       <path id="DejaVuSans-72" d="M 2631 2963 
Q 2534 3019 2420 3045 
Q 2306 3072 2169 3072 
Q 1681 3072 1420 2755 
Q 1159 2438 1159 1844 
L 1159 0 
L 581 0 
L 581 3500 
L 1159 3500 
L 1159 2956 
Q 1341 3275 1631 3429 
Q 1922 3584 2338 3584 
Q 2397 3584 2469 3576 
Q 2541 3569 2628 3553 
L 2631 2963 
z
" transform="scale(0.015625)"/>
       <path id="DejaVuSans-61" d="M 2194 1759 
Q 1497 1759 1228 1600 
Q 959 1441 959 1056 
Q 959 750 1161 570 
Q 1363 391 1709 391 
Q 2188 391 2477 730 
Q 2766 1069 2766 1631 
L 2766 1759 
L 2194 1759 
z
M 3341 1997 
L 3341 0 
L 2766 0 
L 2766 531 
Q 2569 213 2275 61 
Q 1981 -91 1556 -91 
Q 1019 -91 701 211 
Q 384 513 384 1019 
Q 384 1609 779 1909 
Q 1175 2209 1959 2209 
L 2766 2209 
L 2766 2266 
Q 2766 2663 2505 2880 
Q 2244 3097 1772 3097 
Q 1472 3097 1187 3025 
Q 903 2953 641 2809 
L 641 3341 
Q 956 3463 1253 3523 
Q 1550 3584 1831 3584 
Q 2591 3584 2966 3190 
Q 3341 2797 3341 1997 
z
" transform="scale(0.015625)"/>
       <path id="DejaVuSans-79" d="M 2059 -325 
Q 1816 -950 1584 -1140 
Q 1353 -1331 966 -1331 
L 506 -1331 
L 506 -850 
L 844 -850 
Q 1081 -850 1212 -737 
Q 1344 -625 1503 -206 
L 1606 56 
L 191 3500 
L 800 3500 
L 1894 763 
L 2988 3500 
L 3597 3500 
L 2059 -325 
z
" transform="scale(0.015625)"/>
      </defs>
      <use xlink:href="#DejaVuSans-41"/>
      <use xlink:href="#DejaVuSans-63" x="66.658203"/>
      <use xlink:href="#DejaVuSans-63" x="121.638672"/>
      <use xlink:href="#DejaVuSans-75" x="176.619141"/>
      <use xlink:href="#DejaVuSans-72" x="239.998047"/>
      <use xlink:href="#DejaVuSans-61" x="281.111328"/>
      <use xlink:href="#DejaVuSans-63" x="342.390625"/>
      <use xlink:href="#DejaVuSans-79" x="397.371094"/>
     </g>
    </g>
   </g>
   <g id="line2d_19">
    <path d="M 73.832727 295.488 
L 76.001911 250.141769 
L 76.724973 239.573221 
L 77.448034 227.346262 
L 78.171095 220.320962 
L 78.894157 211.826958 
L 80.340279 198.400557 
L 82.509463 182.214217 
L 83.232525 179.276809 
L 86.12477 162.729413 
L 87.570893 156.560856 
L 88.293954 154.718857 
L 89.740077 147.326381 
L 90.463138 146.096342 
L 91.1862 143.954482 
L 91.909261 142.442941 
L 92.632322 140.331679 
L 93.355384 139.903307 
L 94.078445 138.281613 
L 94.801506 137.014856 
L 95.524568 166.774468 
L 96.247629 168.922447 
L 96.97069 166.395053 
L 97.693752 165.134415 
L 99.139874 158.421215 
L 99.862936 156.573096 
L 100.585997 154.039582 
L 101.309059 151.92832 
L 102.03212 150.741117 
L 102.755181 148.342235 
L 104.924365 142.993705 
L 105.647427 142.020688 
L 106.370488 139.523892 
L 107.093549 138.844616 
L 107.816611 135.27077 
L 109.985795 130.497483 
L 110.708856 130.014035 
L 111.431917 126.060773 
L 112.87804 124.610428 
L 113.601101 122.29722 
L 114.324163 120.969267 
L 115.047224 118.692776 
L 115.770285 118.0135 
L 116.493347 116.624351 
L 117.216408 116.061348 
L 117.93947 114.678319 
L 118.662531 112.144805 
L 119.385592 111.581801 
L 120.108654 110.045782 
L 120.831715 108.2405 
L 121.554776 107.243006 
L 123.000899 104.415751 
L 123.72396 101.998509 
L 124.447022 98.039128 
L 125.170083 97.739268 
L 125.893144 96.215488 
L 126.616206 95.217993 
L 127.339267 93.535103 
L 128.062328 91.540114 
L 128.78539 90.98323 
L 129.508451 89.863344 
L 130.231512 88.510912 
L 130.954574 86.828022 
L 131.677635 90.077529 
L 132.400696 89.012719 
L 133.123758 88.149856 
L 133.846819 89.012719 
L 134.569881 88.119258 
L 135.292942 88.045823 
L 136.016003 87.097285 
L 136.739065 86.503683 
L 137.462126 87.085045 
L 138.185187 86.913697 
L 138.908249 119.782065 
L 139.63131 124.818495 
L 140.354371 125.461053 
L 141.077433 124.182056 
L 142.523555 123.031572 
L 143.246617 122.866343 
L 144.692739 120.859114 
L 146.138862 119.469965 
L 146.861923 119.298616 
L 149.031108 116.80182 
L 150.47723 114.409056 
L 151.200292 113.925608 
L 151.923353 114.20711 
L 152.646414 112.928113 
L 153.369476 113.032147 
L 154.815598 109.849955 
L 155.53866 110.015184 
L 156.261721 109.066646 
L 157.707844 107.769291 
L 159.153966 105.425485 
L 159.877028 105.823259 
L 160.600089 104.642176 
L 161.32315 104.42799 
L 162.046212 102.690024 
L 162.769273 102.28613 
L 163.492334 102.488077 
L 164.215396 100.817426 
L 164.938457 101.282516 
L 165.661519 99.6853 
L 166.38458 99.422158 
L 167.107641 99.464995 
L 167.830703 98.804078 
L 168.553764 97.200743 
L 169.276825 96.013541 
L 169.999887 95.842192 
L 170.722948 95.462777 
L 171.446009 94.759023 
L 172.169071 93.363754 
L 172.892132 93.669734 
L 173.615193 91.325928 
L 174.338255 91.693104 
L 175.061316 90.946513 
L 175.784377 90.573217 
L 176.507439 89.826626 
L 177.2305 87.788799 
L 178.676623 88.627184 
L 179.399684 87.256394 
L 180.122745 85.34096 
L 180.845807 85.383797 
L 181.568868 85.151252 
L 182.29193 85.524548 
L 183.014991 82.305638 
L 183.738052 83.027751 
L 185.184175 81.240828 
L 185.907236 80.665586 
L 186.630298 79.643613 
L 187.353359 79.918995 
L 188.07642 78.988816 
L 188.799482 78.682836 
L 189.522543 78.040278 
L 190.245604 76.834717 
L 190.968666 75.965733 
L 191.691727 75.335415 
L 192.414788 73.334306 
L 193.13785 73.664764 
L 193.860911 72.65503 
L 194.583972 73.744319 
L 195.307034 72.752944 
L 196.030095 72.300093 
L 196.753157 70.868107 
L 197.476218 70.910944 
L 198.199279 69.576872 
L 198.922341 69.442241 
L 199.645402 68.818041 
L 200.368463 68.622214 
L 201.814586 67.496208 
L 202.537647 67.288142 
L 203.260709 65.978547 
L 204.706831 65.898993 
L 205.429893 64.528202 
L 206.152954 64.650594 
L 208.322138 63.249206 
L 209.045199 63.341 
L 209.768261 62.037525 
L 210.491322 62.637246 
L 211.214383 61.645871 
L 211.937445 62.386343 
L 212.660506 60.709572 
L 213.383568 60.9054 
L 214.106629 60.795247 
L 214.82969 61.070629 
L 215.552752 60.372994 
L 216.275813 59.98746 
L 216.998874 59.161314 
L 217.721936 59.277586 
L 218.444997 58.843095 
L 219.168058 59.308184 
L 219.89112 57.99859 
L 220.614181 58.855334 
L 221.337242 59.387739 
L 222.060304 58.824736 
L 223.506426 59.803872 
L 224.229488 59.240869 
L 224.952549 59.155194 
L 225.67561 93.229123 
L 226.398672 98.657208 
L 227.121733 100.027998 
L 227.844794 99.881128 
L 228.567856 100.572642 
L 229.290917 99.703659 
L 230.013979 100.707273 
L 230.73704 99.593506 
L 231.460101 99.826051 
L 232.183163 99.030503 
L 232.906224 99.299766 
L 233.629285 98.687806 
L 234.352347 99.134536 
L 235.075408 97.482245 
L 235.798469 99.024384 
L 236.521531 97.990171 
L 237.244592 98.173759 
L 237.967653 98.149281 
L 238.690715 96.582664 
L 239.413776 95.511734 
L 240.136837 96.619381 
L 240.859899 94.863056 
L 241.58296 95.456657 
L 243.029083 94.214379 
L 243.752144 94.575435 
L 244.475206 94.532598 
L 245.198267 93.755409 
L 245.921328 92.81299 
L 247.367451 91.937888 
L 248.090512 92.580446 
L 248.813574 92.029682 
L 249.536635 91.656386 
L 250.982758 91.417722 
L 251.705819 91.656386 
L 252.42888 90.622174 
L 253.151942 90.903675 
L 253.875003 89.942898 
L 254.598064 89.545124 
L 255.321126 90.06529 
L 256.044187 89.563483 
L 256.767248 90.359031 
L 257.49031 89.343178 
L 258.213371 89.575722 
L 258.936432 87.849995 
L 259.659494 88.229411 
L 260.382555 87.299231 
L 261.105617 87.238035 
L 261.828678 87.464461 
L 262.551739 87.513417 
L 263.274801 86.466966 
L 263.997862 86.050833 
L 264.720923 87.238035 
L 265.443985 86.913697 
L 266.167046 85.053338 
L 266.890107 85.769332 
L 267.613169 85.108415 
L 268.33623 85.555146 
L 269.059291 85.243046 
L 269.782353 84.57601 
L 270.505414 83.596874 
L 271.228475 83.976289 
L 272.674598 82.923718 
L 273.397659 82.685054 
L 274.120721 82.74013 
L 274.843782 83.272535 
L 275.566843 82.201605 
L 276.289905 82.782967 
L 277.012966 82.097572 
L 277.736028 81.246948 
L 278.459089 81.124556 
L 279.18215 82.379074 
L 280.628273 80.989925 
L 281.351334 81.399938 
L 282.797457 79.582417 
L 284.966641 78.77463 
L 285.689702 78.805228 
L 286.412764 77.569069 
L 287.135825 77.758776 
L 287.858886 77.832211 
L 288.581948 77.299806 
L 289.305009 77.507873 
L 290.02807 77.195773 
L 290.751132 77.556829 
L 291.474193 75.990212 
L 292.197255 76.47366 
L 292.920316 76.051408 
L 293.643377 75.366013 
L 294.366439 75.604677 
L 295.0895 75.396611 
L 295.812561 74.117614 
L 296.535623 75.659754 
L 297.258684 74.809129 
L 297.981745 73.395502 
L 298.704807 74.148212 
L 299.427868 73.57297 
L 300.150929 73.995223 
L 300.873991 73.713721 
L 301.597052 72.801901 
L 302.320113 73.640286 
L 303.043175 73.462817 
L 303.766236 72.128745 
L 304.489297 71.957396 
L 305.212359 72.098147 
L 305.93542 71.74321 
L 306.658481 70.764074 
L 307.381543 70.953782 
L 308.104604 70.445855 
L 308.827666 69.631948 
L 309.550727 70.647802 
L 310.273788 70.329583 
L 310.99685 69.735981 
L 311.719911 68.977151 
L 312.442972 69.130141 
L 313.889095 68.432507 
L 314.612156 68.677291 
L 315.335218 66.884248 
L 316.058279 67.135152 
L 316.78134 67.104554 
L 317.504402 67.588002 
L 318.227463 65.850036 
L 318.950524 66.523192 
L 319.673586 66.627225 
L 320.396647 65.721524 
L 321.119708 65.280913 
L 321.84277 66.24169 
L 322.565831 65.856155 
L 323.288892 64.069232 
L 324.011954 64.473126 
L 324.735015 64.228342 
L 325.458077 63.481751 
L 326.181138 63.267565 
L 326.904199 63.665339 
L 327.627261 63.683698 
L 328.350322 62.594409 
L 329.073383 62.918748 
L 329.796445 62.680083 
L 330.519506 62.159917 
L 331.242567 62.790236 
L 331.965629 61.376609 
L 332.68869 61.19914 
L 333.411751 61.529599 
L 334.134813 60.709572 
L 334.857874 60.764649 
L 335.580935 60.207765 
L 336.303997 60.268961 
L 337.750119 59.504011 
L 338.473181 59.748795 
L 339.196242 58.720703 
L 339.919304 59.106237 
L 340.642365 58.732942 
L 341.365426 58.059786 
L 342.088488 58.016949 
L 342.811549 57.092889 
L 343.53461 57.631414 
L 344.257672 57.472304 
L 344.980733 57.515142 
L 345.703794 56.493168 
L 346.426856 57.099009 
L 347.149917 57.062291 
L 347.872978 56.897062 
L 348.59604 55.679262 
L 349.319101 56.3157 
L 350.042162 55.452837 
L 350.765224 55.165215 
L 351.488285 56.101514 
L 352.211346 54.571614 
L 352.934408 54.424744 
L 353.657469 55.465076 
L 354.38053 55.287607 
L 355.103592 54.981627 
L 355.826653 56.101514 
L 356.549715 55.446717 
L 358.718899 55.838371 
L 359.44196 56.334059 
L 360.165021 54.883714 
L 360.888083 55.789415 
L 361.611144 55.973003 
L 362.334205 55.305966 
L 363.057267 56.30958 
L 363.780328 55.177455 
L 364.503389 55.024465 
L 365.226451 55.195813 
L 365.949512 54.767441 
L 367.395635 55.40388 
L 368.118696 55.189694 
L 368.841757 55.801654 
L 369.564819 55.477315 
L 370.28788 56.070916 
L 371.010941 54.553255 
L 371.734003 56.174949 
L 372.457064 55.287607 
L 373.180126 54.669528 
L 373.903187 55.428358 
L 375.34931 55.165215 
L 376.795432 55.483435 
L 377.518494 54.712365 
L 378.241555 55.312086 
L 378.964616 56.144351 
L 379.687678 55.361043 
L 380.410739 55.526272 
L 381.1338 55.208053 
L 381.856862 54.589973 
L 382.579923 55.734338 
L 383.302984 53.568 
L 384.026046 55.085661 
L 384.749107 55.208053 
L 385.472168 56.413614 
L 386.19523 55.648664 
L 386.918291 55.465076 
L 387.641353 56.046438 
L 388.364414 55.067302 
L 389.087475 55.458956 
L 389.810537 55.354923 
L 390.533598 54.810279 
L 391.256659 55.758817 
L 391.979721 55.195813 
L 392.702782 55.354923 
L 393.425843 54.583853 
L 394.148905 54.975508 
L 394.871966 54.265634 
L 395.595027 55.801654 
L 396.318089 55.305966 
L 397.04115 55.569109 
L 397.764211 54.999986 
L 398.487273 54.865355 
L 398.487273 54.865355 
" clip-path="url(#p7c4838f5ed)" style="fill: none; stroke: #1f77b4; stroke-width: 1.5; stroke-linecap: square"/>
   </g>
   <g id="line2d_20">
    <path d="M 73.832727 281.082463 
L 74.555789 267.527551 
L 75.27885 251.585995 
L 76.001911 238.306464 
L 77.448034 200.02837 
L 78.171095 204.679266 
L 79.617218 177.049275 
L 80.340279 166.064594 
L 81.063341 160.679347 
L 81.786402 156.212039 
L 83.232525 141.280217 
L 83.955586 144.003439 
L 84.678647 134.51806 
L 85.401709 134.334472 
L 86.12477 129.652978 
L 86.847832 129.561184 
L 87.570893 127.082747 
L 88.293954 126.990953 
L 89.017016 120.963147 
L 89.740077 116.098066 
L 91.1862 113.344246 
L 91.909261 111.232984 
L 92.632322 111.171788 
L 93.355384 111.355376 
L 94.078445 110.07026 
L 94.801506 110.039662 
L 95.524568 137.486065 
L 96.247629 140.790649 
L 96.97069 142.289951 
L 97.693752 133.324738 
L 98.416813 130.23434 
L 99.139874 124.543113 
L 99.862936 126.164807 
L 100.585997 124.390123 
L 101.309059 120.320589 
L 102.03212 117.933946 
L 102.755181 119.922815 
L 103.478243 115.975674 
L 104.201304 113.956206 
L 104.924365 114.904744 
L 105.647427 113.864412 
L 106.370488 116.159262 
L 107.093549 106.459697 
L 107.816611 110.52923 
L 108.539672 105.694747 
L 109.262733 106.949265 
L 109.985795 101.594615 
L 110.708856 105.266375 
L 111.431917 99.942324 
L 112.154979 100.676676 
L 112.87804 102.726741 
L 113.601101 100.340098 
L 114.324163 97.127308 
L 115.047224 98.106444 
L 117.216408 95.291428 
L 117.93947 96.423554 
L 118.662531 95.811594 
L 119.385592 91.436081 
L 120.108654 90.028573 
L 120.831715 92.751794 
L 121.554776 88.009105 
L 122.277838 89.233025 
L 123.000899 88.253889 
L 123.72396 89.171829 
L 124.447022 90.273357 
L 125.170083 87.060567 
L 126.616206 86.785185 
L 128.062328 85.224687 
L 128.78539 84.979903 
L 129.508451 84.582129 
L 130.231512 84.888109 
L 130.954574 83.633591 
L 131.677635 82.74625 
L 132.400696 83.174621 
L 133.123758 81.858908 
L 133.846819 82.929837 
L 134.569881 81.950702 
L 136.016003 81.277546 
L 136.739065 81.185752 
L 137.462126 81.461134 
L 138.185187 81.124556 
L 138.908249 104.899199 
L 139.63131 104.654415 
L 141.077433 101.747605 
L 141.800494 101.074449 
L 142.523555 100.248304 
L 143.246617 98.443022 
L 143.969678 97.922856 
L 144.692739 97.922856 
L 145.415801 98.443022 
L 146.138862 97.984052 
L 146.861923 95.56681 
L 147.584985 98.93259 
L 148.308046 97.310896 
L 149.031108 97.494484 
L 149.754169 98.045248 
L 150.47723 97.70867 
L 151.200292 95.811594 
L 151.923353 95.933986 
L 152.646414 95.41382 
L 153.369476 94.740664 
L 154.092537 96.209368 
L 154.815598 96.17877 
L 155.53866 95.077242 
L 156.261721 93.455548 
L 156.984782 94.95485 
L 157.707844 93.761528 
L 158.430905 90.242759 
L 159.153966 92.017442 
L 159.877028 89.967377 
L 160.600089 89.202427 
L 161.32315 92.262226 
L 162.046212 90.120367 
L 162.769273 92.017442 
L 163.492334 90.089769 
L 164.215396 89.967377 
L 164.938457 88.896447 
L 165.661519 86.968773 
L 166.38458 89.661397 
L 167.107641 88.559869 
L 167.830703 86.387411 
L 168.553764 88.682261 
L 169.276825 92.537608 
L 169.999887 89.875583 
L 170.722948 86.173225 
L 171.446009 87.672527 
L 172.169071 87.182959 
L 172.892132 85.347079 
L 173.615193 85.989637 
L 174.338255 87.060567 
L 175.061316 83.205219 
L 175.784377 85.316481 
L 176.507439 86.050833 
L 177.2305 87.060567 
L 177.953561 86.418009 
L 178.676623 85.010501 
L 179.399684 85.316481 
L 180.122745 83.725385 
L 180.845807 83.694787 
L 181.568868 84.245551 
L 182.29193 87.152361 
L 183.014991 85.041099 
L 183.738052 83.694787 
L 184.461114 84.612727 
L 185.184175 81.06336 
L 185.907236 83.144023 
L 186.630298 82.501466 
L 187.353359 81.36934 
L 188.07642 81.797712 
L 188.799482 80.543194 
L 189.522543 80.29841 
L 190.245604 80.940968 
L 190.968666 79.38047 
L 191.691727 80.29841 
L 192.414788 79.594656 
L 193.13785 79.38047 
L 193.860911 79.564058 
L 194.583972 78.15655 
L 195.307034 81.155154 
L 196.030095 79.564058 
L 196.753157 79.53346 
L 197.476218 78.034158 
L 198.922341 77.69758 
L 199.645402 78.217746 
L 200.368463 78.217746 
L 201.091525 76.718444 
L 201.814586 76.412464 
L 202.537647 75.922896 
L 203.260709 77.116218 
L 205.429893 76.075886 
L 206.152954 75.40273 
L 206.876015 76.106484 
L 207.599077 75.525122 
L 208.322138 74.668378 
L 209.045199 75.678112 
L 209.768261 75.433328 
L 210.491322 75.004956 
L 211.937445 73.750439 
L 212.660506 74.209408 
L 214.106629 73.842233 
L 214.82969 74.423594 
L 215.552752 74.545986 
L 216.275813 73.995223 
L 216.998874 74.209408 
L 217.721936 73.475057 
L 218.444997 73.475057 
L 219.89112 73.291469 
L 220.614181 73.475057 
L 221.337242 73.842233 
L 222.060304 73.138479 
L 222.783365 73.444459 
L 223.506426 73.169077 
L 224.952549 73.536253 
L 225.67561 100.860263 
L 226.398672 95.26083 
L 227.121733 96.668338 
L 227.844794 93.57794 
L 228.567856 99.08558 
L 229.290917 94.281694 
L 230.013979 95.138438 
L 230.73704 97.647474 
L 231.460101 97.372092 
L 232.183163 96.301162 
L 232.906224 96.117574 
L 233.629285 98.7796 
L 234.352347 93.73093 
L 235.075408 93.822724 
L 235.798469 93.210764 
L 236.521531 94.710066 
L 237.244592 94.404086 
L 237.967653 96.63774 
L 238.690715 91.099503 
L 239.413776 93.394352 
L 240.859899 95.322026 
L 241.58296 94.006312 
L 243.029083 90.977111 
L 243.752144 89.814387 
L 244.475206 92.751794 
L 245.198267 90.885317 
L 245.921328 90.487543 
L 246.64439 91.497277 
L 247.367451 91.436081 
L 248.090512 88.865849 
L 248.813574 92.415216 
L 249.536635 90.120367 
L 250.259696 91.038307 
L 250.982758 95.689202 
L 251.705819 93.853322 
L 252.42888 90.518141 
L 253.151942 91.803257 
L 253.875003 91.650267 
L 254.598064 90.915915 
L 255.321126 93.394352 
L 256.044187 90.701729 
L 256.767248 95.56681 
L 257.49031 90.548739 
L 258.213371 90.609935 
L 258.936432 93.057774 
L 259.659494 90.946513 
L 260.382555 101.319233 
L 261.105617 88.223291 
L 261.828678 93.700332 
L 262.551739 87.488939 
L 263.274801 89.630799 
L 263.997862 88.988241 
L 264.720923 91.680865 
L 265.443985 92.874186 
L 266.167046 91.374885 
L 266.890107 90.640533 
L 267.613169 92.445814 
L 268.33623 91.742061 
L 269.059291 90.640533 
L 269.782353 92.537608 
L 270.505414 90.854719 
L 271.228475 86.020235 
L 271.951537 87.335949 
L 272.674598 92.231628 
L 273.397659 88.835251 
L 274.120721 90.640533 
L 274.843782 89.569603 
L 275.566843 88.192693 
L 276.289905 90.334553 
L 277.012966 90.120367 
L 277.736028 92.415216 
L 278.459089 92.996578 
L 279.18215 88.804653 
L 279.905212 87.550135 
L 280.628273 90.579337 
L 281.351334 88.498673 
L 282.074396 88.835251 
L 282.797457 87.672527 
L 283.520518 85.255285 
L 284.24358 89.141231 
L 284.966641 90.059171 
L 285.689702 91.864452 
L 286.412764 89.355417 
L 287.135825 89.263623 
L 287.858886 90.120367 
L 288.581948 87.550135 
L 289.305009 91.558473 
L 290.02807 90.212161 
L 290.751132 87.274753 
L 291.474193 86.418009 
L 292.197255 87.641929 
L 292.920316 86.540401 
L 293.643377 87.366547 
L 294.366439 87.488939 
L 295.0895 86.785185 
L 295.812561 84.367943 
L 296.535623 92.415216 
L 297.981745 88.253889 
L 298.704807 85.194089 
L 299.427868 87.703125 
L 300.150929 86.876979 
L 300.873991 88.039703 
L 301.597052 84.429139 
L 302.320113 85.622461 
L 303.043175 85.897843 
L 303.766236 87.152361 
L 304.489297 88.712859 
L 305.212359 86.173225 
L 305.93542 85.591863 
L 306.658481 84.092561 
L 307.381543 88.192693 
L 308.104604 84.979903 
L 308.827666 85.897843 
L 309.550727 83.174621 
L 310.99685 85.438873 
L 311.719911 83.021631 
L 312.442972 81.797712 
L 313.166034 83.266415 
L 313.889095 85.194089 
L 314.612156 81.552928 
L 315.335218 85.622461 
L 316.058279 83.541797 
L 316.78134 82.59326 
L 317.504402 83.082827 
L 318.227463 80.787978 
L 318.950524 81.491732 
L 319.673586 79.594656 
L 320.396647 83.358209 
L 321.119708 83.388807 
L 321.84277 83.205219 
L 322.565831 81.797712 
L 323.288892 81.36934 
L 324.011954 80.359606 
L 324.735015 83.082827 
L 325.458077 79.349872 
L 326.904199 81.52233 
L 327.627261 79.99243 
L 328.350322 81.002164 
L 329.073383 81.36934 
L 329.796445 80.4514 
L 330.519506 80.787978 
L 331.242567 78.46253 
L 331.965629 80.237214 
L 332.68869 80.60439 
L 333.411751 79.07449 
L 334.134813 80.29841 
L 334.857874 78.523726 
L 335.580935 80.573792 
L 336.303997 77.269208 
L 337.027058 78.095354 
L 337.750119 80.4514 
L 338.473181 81.06336 
L 339.919304 77.69758 
L 340.642365 78.217746 
L 341.365426 77.54459 
L 342.088488 78.890902 
L 342.811549 77.605786 
L 343.53461 75.8617 
L 344.257672 76.075886 
L 344.980733 77.483394 
L 345.703794 76.718444 
L 346.426856 79.135686 
L 347.149917 75.586318 
L 348.59604 76.749042 
L 350.042162 76.137082 
L 350.765224 76.443062 
L 351.488285 77.605786 
L 352.211346 75.24974 
L 352.934408 75.188544 
L 353.657469 76.443062 
L 354.38053 76.198278 
L 355.103592 76.228876 
L 355.826653 76.993826 
L 356.549715 75.769906 
L 357.272776 74.94376 
L 357.995837 76.106484 
L 358.718899 75.953494 
L 359.44196 75.433328 
L 360.165021 76.504258 
L 360.888083 76.16768 
L 361.611144 77.08562 
L 363.057267 76.045288 
L 363.780328 76.993826 
L 364.503389 76.290072 
L 365.226451 76.687846 
L 365.949512 76.198278 
L 366.672573 78.034158 
L 367.395635 76.01469 
L 368.118696 76.045288 
L 368.841757 77.666982 
L 370.28788 75.984092 
L 371.010941 76.259474 
L 371.734003 77.789374 
L 372.457064 75.984092 
L 373.180126 76.075886 
L 373.903187 75.525122 
L 374.626248 78.401334 
L 375.34931 77.69758 
L 376.072371 76.16768 
L 376.795432 76.443062 
L 377.518494 77.299806 
L 378.241555 76.228876 
L 378.964616 77.85057 
L 379.687678 76.381866 
L 380.410739 76.871434 
L 381.1338 76.351268 
L 381.856862 76.963228 
L 382.579923 76.412464 
L 383.302984 77.116218 
L 384.026046 76.412464 
L 384.749107 75.433328 
L 385.472168 76.840836 
L 386.19523 77.08562 
L 386.918291 77.452796 
L 387.641353 77.024424 
L 388.364414 76.810238 
L 389.087475 76.810238 
L 389.810537 79.105088 
L 390.533598 78.187148 
L 391.256659 74.698976 
L 391.979721 77.636384 
L 392.702782 76.77964 
L 393.425843 80.053626 
L 394.148905 77.452796 
L 394.871966 77.85057 
L 395.595027 77.789374 
L 396.318089 76.687846 
L 397.04115 76.62665 
L 397.764211 78.125952 
L 398.487273 75.70871 
L 398.487273 75.70871 
" clip-path="url(#p7c4838f5ed)" style="fill: none; stroke: #ff7f0e; stroke-width: 1.5; stroke-linecap: square"/>
   </g>
   <g id="line2d_21">
    <path d="M 73.832727 283.79314 
L 74.555789 271.279477 
L 75.27885 252.583183 
L 76.001911 240.470354 
L 76.724973 218.186751 
L 77.448034 206.654366 
L 78.171095 210.189047 
L 79.617218 191.893587 
L 80.340279 186.480801 
L 81.063341 181.944036 
L 81.786402 178.736448 
L 82.509463 184.592293 
L 83.232525 166.391687 
L 83.955586 173.038796 
L 84.678647 162.466576 
L 85.401709 166.951018 
L 86.12477 161.042239 
L 86.847832 160.2932 
L 87.570893 158.805525 
L 88.293954 161.063352 
L 89.017016 154.627369 
L 89.740077 151.820615 
L 90.463138 151.430184 
L 91.1862 148.28624 
L 91.909261 149.932106 
L 92.632322 147.326075 
L 93.355384 146.323685 
L 94.078445 146.534505 
L 94.801506 146.207412 
L 95.524568 175.602602 
L 96.247629 175.486635 
L 96.97069 173.249922 
L 97.693752 166.022369 
L 98.416813 166.001256 
L 99.139874 174.748 
L 99.862936 165.948628 
L 100.585997 164.123151 
L 101.309059 163.205211 
L 102.03212 161.992001 
L 102.755181 155.270887 
L 103.478243 158.678871 
L 104.924365 149.383411 
L 105.647427 155.186479 
L 106.370488 153.223987 
L 107.093549 151.72574 
L 107.816611 157.011808 
L 108.539672 145.964876 
L 109.262733 144.192302 
L 109.985795 143.949628 
L 110.708856 140.372828 
L 111.431917 143.052791 
L 112.154979 150.09033 
L 112.87804 147.157142 
L 113.601101 143.042239 
L 114.324163 143.907424 
L 115.047224 145.321263 
L 115.770285 139.613154 
L 116.493347 139.486541 
L 117.216408 139.180561 
L 117.93947 144.561588 
L 118.662531 139.085602 
L 119.385592 134.580311 
L 120.108654 135.08676 
L 120.831715 137.872233 
L 122.277838 132.807737 
L 123.000899 132.997656 
L 123.72396 133.356391 
L 124.447022 136.036353 
L 125.893144 131.541613 
L 126.616206 135.28723 
L 127.339267 129.779591 
L 128.062328 129.410304 
L 128.78539 130.201632 
L 129.508451 131.20398 
L 130.231512 129.452509 
L 130.954574 128.819447 
L 131.677635 129.273141 
L 132.400696 126.793648 
L 133.123758 127.679935 
L 133.846819 127.236792 
L 134.569881 126.171137 
L 135.292942 127.205139 
L 136.016003 125.970668 
L 136.739065 126.50877 
L 137.462126 126.60373 
L 138.185187 126.434913 
L 138.908249 150.470167 
L 139.63131 149.014124 
L 140.354371 149.087982 
L 141.077433 140.889829 
L 141.800494 142.472484 
L 142.523555 145.891018 
L 143.246617 146.576836 
L 143.969678 142.22981 
L 144.692739 140.552196 
L 145.415801 139.803072 
L 146.138862 145.80661 
L 146.861923 138.009397 
L 147.584985 147.832409 
L 148.308046 139.950787 
L 149.031108 145.585039 
L 149.754169 141.660054 
L 150.47723 135.466598 
L 151.200292 140.742114 
L 151.923353 141.31187 
L 152.646414 142.525239 
L 153.369476 145.532283 
L 154.092537 146.281407 
L 154.815598 138.726867 
L 155.53866 140.847625 
L 156.261721 142.440831 
L 156.984782 137.080906 
L 157.707844 141.238013 
L 158.430905 133.577963 
L 159.153966 141.438482 
L 159.877028 131.826491 
L 160.600089 142.472484 
L 161.32315 140.467787 
L 162.046212 133.831187 
L 162.769273 141.670605 
L 163.492334 135.688169 
L 164.215396 138.062152 
L 164.938457 134.622515 
L 165.661519 138.093805 
L 166.38458 132.100818 
L 167.107641 141.966034 
L 167.830703 130.053918 
L 168.553764 132.132471 
L 169.276825 143.422077 
L 169.999887 141.522891 
L 170.722948 137.017599 
L 171.446009 140.868727 
L 172.892132 135.055107 
L 173.615193 138.294275 
L 174.338255 138.062152 
L 175.061316 134.928495 
L 175.784377 134.021106 
L 176.507439 136.490048 
L 177.2305 133.788983 
L 177.953561 134.928495 
L 178.676623 132.681125 
L 179.399684 136.764375 
L 180.122745 129.441958 
L 180.845807 131.604919 
L 181.568868 137.049253 
L 182.29193 138.55805 
L 183.014991 140.383379 
L 185.907236 126.498219 
L 186.630298 133.377493 
L 187.353359 120.157048 
L 188.07642 135.920292 
L 188.799482 131.689328 
L 189.522543 128.95661 
L 190.245604 136.268476 
L 190.968666 128.808896 
L 191.691727 133.113717 
L 192.414788 133.103166 
L 193.13785 132.206328 
L 193.860911 127.637731 
L 194.583972 125.68579 
L 195.307034 125.464218 
L 196.753157 133.915596 
L 197.476218 127.236792 
L 198.199279 130.971857 
L 198.922341 128.967161 
L 199.645402 131.024613 
L 200.368463 129.558019 
L 201.091525 131.626021 
L 202.537647 123.95542 
L 203.260709 124.936666 
L 203.98377 125.242646 
L 204.706831 128.492365 
L 205.429893 127.205139 
L 206.152954 128.049221 
L 206.876015 128.281344 
L 207.599077 126.276648 
L 208.322138 125.210993 
L 209.045199 127.690486 
L 209.768261 126.635383 
L 210.491322 124.968319 
L 211.214383 125.569728 
L 211.937445 126.878056 
L 212.660506 124.482972 
L 213.383568 126.09728 
L 214.106629 124.071482 
L 214.82969 126.783097 
L 215.552752 128.281344 
L 216.998874 126.044525 
L 217.721936 125.770198 
L 218.444997 126.20279 
L 219.168058 126.318852 
L 219.89112 125.89681 
L 220.614181 126.740893 
L 221.337242 126.456015 
L 222.060304 125.928463 
L 222.783365 125.812402 
L 224.229488 125.949566 
L 224.952549 125.464218 
L 225.67561 147.420918 
L 226.398672 143.728057 
L 227.121733 145.722202 
L 227.844794 136.51115 
L 228.567856 145.036385 
L 229.290917 137.323579 
L 230.013979 138.579152 
L 230.73704 143.073893 
L 231.460101 149.436166 
L 232.183163 142.905076 
L 232.906224 151.071576 
L 233.629285 145.19465 
L 234.352347 146.028182 
L 235.075408 140.320073 
L 235.798469 142.683504 
L 236.521531 146.133692 
L 237.244592 135.719822 
L 237.967653 145.310712 
L 238.690715 136.268476 
L 239.413776 144.118445 
L 240.136837 142.050442 
L 240.859899 148.35996 
L 241.58296 139.634256 
L 242.306021 140.689359 
L 243.029083 137.12311 
L 243.752144 138.610806 
L 244.475206 142.968382 
L 245.198267 141.227462 
L 245.921328 138.579152 
L 246.64439 137.924988 
L 247.367451 137.777274 
L 248.090512 135.329434 
L 248.813574 137.196967 
L 249.536635 136.806579 
L 250.259696 135.656516 
L 250.982758 147.399816 
L 251.705819 140.615502 
L 252.42888 132.617819 
L 253.151942 143.991832 
L 253.875003 145.50063 
L 254.598064 141.269666 
L 255.321126 140.552196 
L 256.044187 143.168852 
L 256.767248 141.1114 
L 257.49031 131.446654 
L 258.213371 144.508833 
L 258.936432 136.40564 
L 259.659494 137.344682 
L 260.382555 150.354106 
L 261.105617 142.187606 
L 261.828678 135.667067 
L 262.551739 130.79249 
L 263.274801 141.480687 
L 263.997862 141.385727 
L 264.720923 138.927337 
L 265.443985 139.581501 
L 266.167046 139.739766 
L 266.890107 130.950755 
L 267.613169 138.695214 
L 268.33623 141.776116 
L 269.059291 136.964844 
L 269.782353 145.521732 
L 270.505414 137.291926 
L 271.228475 132.491206 
L 271.951537 136.679966 
L 272.674598 133.03986 
L 273.397659 137.344682 
L 274.120721 139.971889 
L 274.843782 140.932033 
L 276.289905 135.456047 
L 277.012966 140.467787 
L 277.736028 137.376335 
L 278.459089 133.388044 
L 279.18215 130.28604 
L 279.905212 134.36929 
L 280.628273 126.055076 
L 281.351334 137.555702 
L 282.074396 137.260273 
L 282.797457 130.043366 
L 283.520518 136.943742 
L 284.966641 131.784287 
L 285.689702 146.218101 
L 286.412764 136.015251 
L 287.858886 142.73626 
L 288.581948 139.539296 
L 289.305009 138.220417 
L 290.751132 126.487668 
L 291.474193 138.072703 
L 292.197255 134.137167 
L 292.920316 133.704575 
L 293.643377 133.409146 
L 294.366439 136.468946 
L 295.0895 136.690517 
L 295.812561 131.478307 
L 296.535623 136.743273 
L 297.258684 142.968382 
L 297.981745 137.756172 
L 298.704807 133.704575 
L 299.427868 138.45254 
L 300.150929 140.488889 
L 300.873991 144.245057 
L 301.597052 142.250912 
L 302.320113 131.583817 
L 303.043175 132.4279 
L 303.766236 133.725677 
L 304.489297 138.663561 
L 305.212359 129.167631 
L 305.93542 134.253229 
L 306.658481 129.526366 
L 307.381543 140.39393 
L 308.104604 132.449002 
L 308.827666 135.709271 
L 309.550727 132.797186 
L 310.273788 133.641269 
L 310.99685 133.989453 
L 311.719911 134.485351 
L 312.442972 127.194587 
L 313.166034 135.540455 
L 313.889095 133.873392 
L 314.612156 130.750286 
L 315.335218 134.643617 
L 316.058279 130.79249 
L 316.78134 132.712778 
L 317.504402 132.480655 
L 318.227463 130.191081 
L 318.950524 131.151225 
L 319.673586 123.776053 
L 320.396647 136.162966 
L 321.119708 133.704575 
L 321.84277 135.107862 
L 322.565831 127.289547 
L 323.288892 132.754982 
L 324.011954 131.161776 
L 324.735015 133.082064 
L 325.458077 127.205139 
L 326.181138 133.208676 
L 326.904199 134.485351 
L 327.627261 124.314155 
L 329.073383 133.261432 
L 329.796445 127.690486 
L 330.519506 128.397405 
L 331.242567 133.018758 
L 331.965629 128.481814 
L 332.68869 133.113717 
L 333.411751 130.338795 
L 334.134813 135.18172 
L 334.857874 122.710398 
L 335.580935 123.005827 
L 336.303997 123.733849 
L 337.027058 128.703385 
L 337.750119 132.53341 
L 338.473181 132.237981 
L 339.196242 133.398595 
L 339.919304 122.900317 
L 340.642365 127.363404 
L 341.365426 130.001162 
L 342.088488 129.737387 
L 342.811549 131.235633 
L 343.53461 124.208645 
L 344.257672 125.738545 
L 344.980733 124.609584 
L 345.703794 127.806547 
L 346.426856 131.932001 
L 347.149917 128.861651 
L 347.872978 127.268445 
L 348.59604 124.989422 
L 349.319101 126.825301 
L 350.042162 126.255546 
L 350.765224 126.477117 
L 351.488285 126.107831 
L 352.211346 127.943711 
L 352.934408 131.362246 
L 353.657469 130.254387 
L 354.38053 127.152383 
L 355.103592 128.534569 
L 355.826653 129.178182 
L 356.549715 126.033974 
L 357.272776 125.189891 
L 357.995837 130.148877 
L 358.718899 129.853448 
L 359.44196 124.894462 
L 360.165021 122.921419 
L 360.888083 122.562684 
L 361.611144 128.735038 
L 362.334205 124.46187 
L 363.057267 123.733849 
L 363.780328 123.839359 
L 364.503389 119.914375 
L 365.226451 125.063279 
L 365.949512 127.025771 
L 366.672573 126.339954 
L 367.395635 121.570887 
L 368.118696 128.03867 
L 368.841757 124.15589 
L 369.564819 127.701037 
L 370.28788 128.777242 
L 371.010941 120.146497 
L 371.734003 121.866316 
L 372.457064 121.518132 
L 373.180126 117.603698 
L 373.903187 124.504074 
L 374.626248 124.588482 
L 375.34931 124.97887 
L 376.072371 122.7315 
L 376.795432 129.104325 
L 377.518494 129.241488 
L 378.241555 124.388013 
L 378.964616 124.715095 
L 379.687678 122.414969 
L 380.410739 128.555671 
L 381.1338 129.484162 
L 381.856862 127.236792 
L 382.579923 130.296591 
L 383.302984 125.633035 
L 384.026046 127.743241 
L 384.749107 121.475927 
L 385.472168 123.797155 
L 386.19523 122.974174 
L 386.918291 129.579121 
L 387.641353 127.711588 
L 388.364414 130.560367 
L 389.087475 127.278996 
L 389.810537 131.056266 
L 390.533598 125.538075 
L 391.256659 124.039829 
L 391.979721 126.793648 
L 392.702782 126.266097 
L 393.425843 126.213341 
L 394.148905 132.332941 
L 394.871966 126.899159 
L 395.595027 124.46187 
L 396.318089 128.703385 
L 397.04115 119.249659 
L 397.764211 129.863999 
L 398.487273 123.427869 
L 398.487273 123.427869 
" clip-path="url(#p7c4838f5ed)" style="fill: none; stroke: #2ca02c; stroke-width: 1.5; stroke-linecap: square"/>
   </g>
   <g id="line2d_22">
    <path d="M 73.832727 292.342526 
L 74.555789 289.282726 
L 75.27885 283.591499 
L 76.001911 282.122795 
L 76.724973 277.441302 
L 77.448034 270.43436 
L 78.171095 261.377353 
L 78.894157 267.741737 
L 79.617218 255.77792 
L 80.340279 246.384335 
L 81.063341 246.139551 
L 81.786402 247.485863 
L 82.509463 238.184072 
L 83.232525 227.107597 
L 83.955586 228.821085 
L 84.678647 222.885074 
L 85.401709 229.586035 
L 86.12477 217.775208 
L 86.847832 217.255042 
L 87.570893 216.337102 
L 88.293954 211.472021 
L 89.017016 208.901789 
L 89.740077 208.412221 
L 90.463138 205.780794 
L 91.1862 202.262024 
L 91.909261 204.77106 
L 92.632322 201.466476 
L 94.078445 201.527672 
L 94.801506 201.313486 
L 95.524568 218.66255 
L 96.247629 224.200788 
L 96.97069 227.841949 
L 97.693752 219.702882 
L 98.416813 218.35657 
L 99.139874 211.686207 
L 99.862936 213.491489 
L 100.585997 212.818333 
L 101.309059 204.985246 
L 102.03212 204.587472 
L 102.755181 202.200828 
L 103.478243 200.579134 
L 104.201304 197.733521 
L 104.924365 195.958837 
L 105.647427 196.264817 
L 106.370488 198.406677 
L 107.093549 191.093755 
L 107.816611 198.896244 
L 108.539672 188.309338 
L 109.262733 186.90183 
L 109.985795 183.260668 
L 110.708856 190.420599 
L 111.431917 182.862894 
L 112.154979 180.476251 
L 112.87804 183.138276 
L 113.601101 175.366385 
L 114.324163 177.447049 
L 115.047224 175.091003 
L 115.770285 170.654294 
L 116.493347 177.110471 
L 117.216408 176.161933 
L 117.93947 176.161933 
L 118.662531 172.061801 
L 119.385592 169.124394 
L 120.108654 170.501304 
L 120.831715 170.470706 
L 121.554776 167.594494 
L 122.277838 164.259312 
L 123.000899 165.697418 
L 123.72396 165.422036 
L 124.447022 163.402568 
L 125.170083 163.402568 
L 125.893144 161.107719 
L 126.616206 163.127186 
L 127.339267 163.06599 
L 128.062328 159.547221 
L 128.78539 158.231507 
L 129.508451 160.556955 
L 130.231512 159.118849 
L 130.954574 156.854597 
L 131.677635 156.762803 
L 132.400696 154.651541 
L 133.123758 156.303833 
L 133.846819 152.54028 
L 134.569881 153.91719 
L 135.292942 154.345561 
L 136.016003 154.039582 
L 136.739065 155.447089 
L 137.462126 156.456823 
L 138.185187 153.45822 
L 138.908249 183.474854 
L 139.63131 181.118808 
L 140.354371 185.06595 
L 141.077433 180.415055 
L 141.800494 178.426185 
L 142.523555 180.262065 
L 143.246617 178.211999 
L 143.969678 175.641767 
L 144.692739 177.569441 
L 145.415801 173.469309 
L 146.138862 178.517979 
L 146.861923 176.406717 
L 147.584985 172.214791 
L 148.308046 178.395587 
L 149.031108 180.721035 
L 149.754169 176.467913 
L 150.47723 174.234259 
L 151.200292 173.408113 
L 151.923353 179.374723 
L 152.646414 174.876817 
L 153.369476 174.509641 
L 154.092537 178.640371 
L 154.815598 176.467913 
L 155.53866 172.459575 
L 156.261721 172.245389 
L 156.984782 171.02147 
L 157.707844 166.462368 
L 158.430905 167.135524 
L 159.153966 170.40951 
L 159.877028 166.309378 
L 160.600089 171.817018 
L 161.32315 169.246786 
L 162.046212 163.922734 
L 162.769273 167.716886 
L 163.492334 168.787816 
L 164.215396 162.637619 
L 164.938457 170.807284 
L 165.661519 167.441504 
L 166.38458 167.19672 
L 167.107641 170.40951 
L 167.830703 166.921338 
L 168.553764 160.801739 
L 169.999887 165.544428 
L 170.722948 167.257916 
L 171.446009 171.755822 
L 172.892132 155.355295 
L 173.615193 164.167518 
L 174.338255 163.67795 
L 175.061316 161.474895 
L 175.784377 160.281573 
L 176.507439 156.120245 
L 177.2305 163.647352 
L 177.953561 164.59589 
L 178.676623 156.640411 
L 179.399684 165.238448 
L 180.122745 159.761407 
L 180.845807 156.609813 
L 181.568868 164.74888 
L 182.29193 166.003398 
L 183.014991 160.526357 
L 184.461114 160.465161 
L 185.184175 157.344165 
L 185.907236 153.30523 
L 186.630298 156.242637 
L 188.799482 160.189779 
L 189.522543 156.273235 
L 190.245604 153.335828 
L 190.968666 153.7642 
L 191.691727 158.078517 
L 192.414788 157.038185 
L 193.13785 156.242637 
L 193.860911 158.170311 
L 194.583972 156.885195 
L 195.307034 157.741939 
L 196.030095 161.046523 
L 196.753157 165.636222 
L 197.476218 158.782271 
L 198.199279 157.650145 
L 198.922341 162.331639 
L 199.645402 161.138317 
L 200.368463 159.210643 
L 201.091525 160.403965 
L 201.814586 157.038185 
L 202.537647 155.538883 
L 203.260709 158.139713 
L 203.98377 159.027055 
L 204.706831 160.373367 
L 205.429893 159.363633 
L 206.152954 157.711341 
L 206.876015 161.077121 
L 207.599077 157.129979 
L 208.322138 161.077121 
L 209.045199 159.853201 
L 209.768261 159.608417 
L 210.491322 162.637619 
L 211.214383 160.189779 
L 212.660506 158.323301 
L 213.383568 159.333035 
L 214.106629 159.394231 
L 214.82969 163.127186 
L 215.552752 159.822603 
L 216.275813 159.210643 
L 217.721936 159.577819 
L 218.444997 158.139713 
L 219.168058 160.618151 
L 219.89112 159.027055 
L 220.614181 161.352503 
L 221.337242 159.853201 
L 222.060304 160.312171 
L 222.783365 160.618151 
L 223.506426 161.077121 
L 224.229488 161.964463 
L 224.952549 161.750277 
L 225.67561 169.858746 
L 226.398672 170.072932 
L 227.121733 183.413658 
L 227.844794 167.319112 
L 228.567856 175.794757 
L 229.290917 169.002002 
L 230.73704 178.517979 
L 231.460101 172.337183 
L 232.183163 170.225922 
L 232.906224 180.598643 
L 233.629285 165.544428 
L 234.352347 169.858746 
L 235.075408 172.673761 
L 235.798469 170.929676 
L 236.521531 180.139673 
L 237.244592 167.074328 
L 237.967653 170.623696 
L 238.690715 165.422036 
L 239.413776 174.111867 
L 240.136837 185.953292 
L 240.859899 180.109075 
L 241.58296 178.670969 
L 242.306021 169.613962 
L 243.029083 168.481836 
L 243.752144 162.851805 
L 244.475206 163.953332 
L 245.198267 165.483232 
L 245.921328 171.664028 
L 246.64439 166.73775 
L 247.367451 176.529109 
L 248.090512 171.419244 
L 248.813574 170.470706 
L 249.536635 167.19672 
L 250.259696 167.288514 
L 250.982758 170.929676 
L 251.705819 169.919942 
L 252.42888 165.269046 
L 253.151942 170.776686 
L 254.598064 165.024262 
L 255.321126 167.410906 
L 256.044187 177.355255 
L 256.767248 168.849012 
L 257.49031 169.093796 
L 258.213371 163.06599 
L 258.936432 169.277384 
L 259.659494 162.637619 
L 260.382555 172.826751 
L 261.105617 172.428977 
L 261.828678 180.721035 
L 262.551739 166.676554 
L 263.274801 172.551369 
L 263.997862 172.581967 
L 264.720923 177.936617 
L 265.443985 177.967215 
L 266.167046 162.974196 
L 266.890107 166.523564 
L 267.613169 166.982534 
L 268.33623 164.320508 
L 269.059291 166.768348 
L 269.782353 177.844823 
L 271.228475 164.963066 
L 271.951537 163.494362 
L 272.674598 169.063198 
L 273.397659 164.718282 
L 274.120721 166.033996 
L 274.843782 166.217584 
L 275.566843 163.555558 
L 276.289905 169.675158 
L 277.012966 171.602832 
L 277.736028 177.355255 
L 278.459089 172.490173 
L 279.18215 162.821207 
L 279.905212 161.627885 
L 280.628273 162.484629 
L 281.351334 161.811473 
L 282.074396 167.380308 
L 282.797457 168.757218 
L 283.520518 162.331639 
L 284.24358 161.903267 
L 284.966641 170.531902 
L 285.689702 169.95054 
L 286.412764 164.198116 
L 287.135825 170.440108 
L 287.858886 170.501304 
L 288.581948 164.198116 
L 289.305009 169.583364 
L 290.02807 167.716886 
L 290.751132 171.449842 
L 291.474193 158.139713 
L 292.197255 166.339976 
L 292.920316 169.79755 
L 293.643377 160.373367 
L 294.366439 170.164726 
L 295.0895 159.914397 
L 295.812561 160.924131 
L 296.535623 176.712697 
L 297.258684 171.878213 
L 297.981745 171.358048 
L 298.704807 167.288514 
L 299.427868 167.013132 
L 300.150929 168.634826 
L 300.873991 158.292703 
L 301.597052 168.298248 
L 302.320113 160.679347 
L 303.043175 161.750277 
L 303.766236 164.626488 
L 304.489297 174.356651 
L 305.212359 168.451238 
L 305.93542 166.156388 
L 306.658481 157.527753 
L 307.381543 172.153595 
L 308.104604 166.554162 
L 308.827666 173.071535 
L 309.550727 161.872669 
L 310.273788 166.217584 
L 310.99685 157.772537 
L 311.719911 170.440108 
L 312.442972 167.594494 
L 313.166034 167.563896 
L 313.889095 173.958877 
L 314.612156 163.52496 
L 315.335218 162.148051 
L 316.058279 163.555558 
L 316.78134 160.862935 
L 317.504402 167.5027 
L 318.227463 162.178649 
L 318.950524 166.095192 
L 319.673586 159.210643 
L 320.396647 168.237052 
L 321.119708 165.146654 
L 321.84277 168.696022 
L 322.565831 165.9728 
L 323.288892 166.217584 
L 324.011954 159.700211 
L 324.735015 163.280176 
L 325.458077 157.405361 
L 326.181138 156.823999 
L 326.904199 163.67795 
L 328.350322 157.986723 
L 329.073383 161.658483 
L 329.796445 164.045126 
L 330.519506 156.487421 
L 331.242567 165.146654 
L 331.965629 166.676554 
L 332.68869 168.757218 
L 333.411751 158.506889 
L 334.134813 162.698815 
L 334.857874 167.686288 
L 335.580935 169.736354 
L 336.303997 159.241241 
L 337.027058 161.903267 
L 337.750119 168.818414 
L 338.473181 167.166122 
L 339.196242 162.056257 
L 339.919304 167.288514 
L 340.642365 155.079913 
L 341.365426 173.193927 
L 342.088488 155.661275 
L 342.811549 163.739146 
L 343.53461 159.210643 
L 344.257672 170.011736 
L 344.980733 164.473498 
L 345.703794 168.72662 
L 346.426856 163.433166 
L 347.149917 160.587553 
L 347.872978 167.34971 
L 348.59604 159.577819 
L 349.319101 162.760011 
L 350.042162 157.986723 
L 350.765224 156.823999 
L 351.488285 166.554162 
L 352.211346 164.718282 
L 352.934408 159.730809 
L 353.657469 166.860142 
L 354.38053 161.842071 
L 355.103592 152.111908 
L 355.826653 169.124394 
L 356.549715 160.924131 
L 357.272776 162.056257 
L 357.995837 161.199513 
L 358.718899 164.473498 
L 359.44196 164.167518 
L 360.165021 160.801739 
L 360.888083 161.383101 
L 361.611144 163.98393 
L 362.334205 167.013132 
L 363.057267 160.097985 
L 364.503389 162.056257 
L 365.226451 163.67795 
L 365.949512 172.887947 
L 366.672573 160.924131 
L 367.395635 167.441504 
L 368.118696 166.339976 
L 368.841757 158.200909 
L 369.564819 157.160577 
L 370.28788 163.035392 
L 371.010941 162.423433 
L 371.734003 165.36084 
L 372.457064 158.445693 
L 373.180126 162.117453 
L 373.903187 156.854597 
L 374.626248 167.747484 
L 375.34931 164.657086 
L 376.072371 166.217584 
L 376.795432 164.810076 
L 377.518494 158.568085 
L 378.241555 164.871272 
L 378.964616 163.52496 
L 379.687678 163.647352 
L 380.410739 171.17446 
L 381.1338 164.626488 
L 381.856862 163.708548 
L 382.579923 171.541636 
L 384.026046 160.465161 
L 384.749107 163.127186 
L 385.472168 161.474895 
L 386.19523 166.707152 
L 386.918291 167.410906 
L 387.641353 164.28991 
L 388.364414 156.456823 
L 389.087475 163.586156 
L 389.810537 167.135524 
L 390.533598 163.494362 
L 391.256659 162.056257 
L 391.979721 158.415095 
L 392.702782 161.872669 
L 393.425843 154.804531 
L 394.148905 169.369178 
L 394.871966 175.702963 
L 395.595027 165.605624 
L 396.318089 162.576423 
L 397.04115 162.056257 
L 397.764211 168.206454 
L 398.487273 162.117453 
L 398.487273 162.117453 
" clip-path="url(#p7c4838f5ed)" style="fill: none; stroke: #d62728; stroke-width: 1.5; stroke-linecap: square"/>
   </g>
   <g id="line2d_23">
    <path d="M 351.488285 77.575188 
L 352.211346 78.00356 
L 352.934408 76.228876 
L 353.657469 77.3916 
L 354.38053 77.208012 
L 355.103592 76.075886 
L 355.826653 78.125952 
L 356.549715 77.08562 
L 357.272776 78.248344 
L 357.995837 75.586318 
L 359.44196 78.707314 
L 360.165021 77.23861 
L 360.888083 75.219142 
L 362.334205 81.614124 
L 363.057267 80.4514 
L 363.780328 78.523726 
L 364.503389 78.401334 
L 365.226451 78.584922 
L 365.949512 77.177414 
L 366.672573 79.931234 
L 368.118696 82.532064 
L 368.841757 80.206616 
L 369.564819 80.14542 
L 370.28788 79.043892 
L 371.010941 79.83944 
L 371.734003 80.14542 
L 372.457064 81.21635 
L 373.180126 87.305351 
L 373.903187 87.947909 
L 374.626248 85.744853 
L 375.34931 85.194089 
L 376.072371 86.876979 
L 376.795432 81.338742 
L 377.518494 87.978507 
L 378.241555 86.050833 
L 378.964616 85.010501 
L 379.687678 86.356813 
L 380.410739 86.968773 
L 381.1338 86.418009 
L 381.856862 81.644722 
L 382.579923 86.938175 
L 383.302984 88.774055 
L 384.026046 89.783789 
L 384.749107 88.774055 
L 385.472168 88.468075 
L 386.19523 86.479205 
L 387.641353 95.842192 
L 388.364414 88.376281 
L 389.810537 97.40269 
L 390.533598 86.723989 
L 391.256659 89.018839 
L 391.979721 91.772659 
L 392.702782 90.548739 
L 393.425843 98.045248 
L 394.871966 94.49588 
L 395.595027 98.749002 
L 396.318089 97.647474 
L 397.04115 102.787937 
L 397.764211 98.228836 
L 398.487273 97.616876 
L 398.487273 97.616876 
" clip-path="url(#p7c4838f5ed)" style="fill: none; stroke: #9467bd; stroke-width: 1.5; stroke-linecap: square"/>
   </g>
   <g id="line2d_24">
    <path d="M 351.488285 124.662339 
L 352.211346 128.302446 
L 352.934408 125.48532 
L 353.657469 127.046873 
L 354.38053 124.810054 
L 355.103592 123.227399 
L 355.826653 128.312997 
L 356.549715 124.198094 
L 357.272776 132.892145 
L 357.995837 126.951914 
L 358.718899 126.266097 
L 359.44196 125.242646 
L 360.165021 127.880405 
L 360.888083 123.923767 
L 361.611144 127.753792 
L 362.334205 126.983567 
L 363.057267 130.634224 
L 363.780328 125.348157 
L 364.503389 125.48532 
L 365.226451 122.710398 
L 365.949512 128.101976 
L 366.672573 129.06212 
L 367.395635 122.52048 
L 368.118696 129.705733 
L 368.841757 121.729152 
L 369.564819 125.759647 
L 370.28788 129.030467 
L 371.010941 124.56738 
L 371.734003 130.518163 
L 372.457064 125.939015 
L 373.180126 132.100818 
L 373.903187 135.730373 
L 374.626248 129.811244 
L 375.34931 132.83939 
L 376.072371 137.165314 
L 376.795432 126.477117 
L 377.518494 135.456047 
L 378.241555 134.485351 
L 378.964616 134.031657 
L 379.687678 131.119572 
L 380.410739 132.596717 
L 381.1338 129.125427 
L 381.856862 127.985915 
L 382.579923 127.099628 
L 383.302984 130.950755 
L 384.026046 133.029309 
L 384.749107 133.008207 
L 385.472168 131.066817 
L 386.19523 132.280186 
L 386.918291 135.719822 
L 387.641353 139.855827 
L 388.364414 129.98006 
L 389.810537 137.460743 
L 390.533598 132.12192 
L 391.256659 128.682283 
L 391.979721 134.801882 
L 392.702782 132.902697 
L 393.425843 136.774926 
L 394.148905 136.859334 
L 394.871966 134.970699 
L 395.595027 136.458395 
L 396.318089 134.295433 
L 397.04115 144.223955 
L 397.764211 137.566253 
L 398.487273 133.9578 
L 398.487273 133.9578 
" clip-path="url(#p7c4838f5ed)" style="fill: none; stroke: #8c564b; stroke-width: 1.5; stroke-linecap: square"/>
   </g>
   <g id="line2d_25">
    <path d="M 351.488285 168.604228 
L 352.211346 162.056257 
L 352.934408 170.776686 
L 353.657469 161.413699 
L 354.38053 181.210602 
L 355.103592 168.665424 
L 355.826653 160.250975 
L 356.549715 168.481836 
L 357.272776 161.230111 
L 357.995837 159.547221 
L 358.718899 159.792005 
L 359.44196 168.26765 
L 360.165021 161.474895 
L 360.888083 156.059049 
L 361.611144 173.622299 
L 362.334205 174.540239 
L 363.057267 187.789172 
L 363.780328 192.470665 
L 364.503389 176.835089 
L 365.226451 184.239804 
L 365.949512 186.718242 
L 366.672573 197.917109 
L 368.118696 193.878173 
L 368.841757 198.070099 
L 369.564819 185.37193 
L 370.28788 192.042293 
L 371.010941 182.556914 
L 372.457064 210.186905 
L 373.180126 217.683414 
L 373.903187 215.082585 
L 374.626248 220.314842 
L 375.34931 197.733521 
L 376.072371 193.602791 
L 376.795432 180.109075 
L 377.518494 210.615277 
L 378.241555 213.889263 
L 378.964616 206.821126 
L 379.687678 214.409429 
L 380.410739 209.024181 
L 381.1338 200.364948 
L 381.856862 187.330202 
L 382.579923 218.019992 
L 383.302984 221.232782 
L 384.026046 220.284244 
L 384.749107 208.595809 
L 385.472168 217.622218 
L 386.19523 223.40524 
L 386.918291 211.900393 
L 387.641353 238.887826 
L 388.364414 219.488696 
L 389.087475 231.024141 
L 389.810537 239.989354 
L 390.533598 202.17023 
L 391.256659 211.104845 
L 391.979721 221.783546 
L 392.702782 210.095111 
L 393.425843 230.259191 
L 394.148905 227.658361 
L 394.871966 231.421915 
L 395.595027 242.284204 
L 396.318089 240.387128 
L 397.04115 237.572112 
L 397.764211 236.134006 
L 398.487273 235.950418 
L 398.487273 235.950418 
" clip-path="url(#p7c4838f5ed)" style="fill: none; stroke: #e377c2; stroke-width: 1.5; stroke-linecap: square"/>
   </g>
   <g id="patch_3">
    <path d="M 57.6 307.584 
L 57.6 41.472 
" style="fill: none; stroke: #000000; stroke-width: 0.8; stroke-linejoin: miter; stroke-linecap: square"/>
   </g>
   <g id="patch_4">
    <path d="M 414.72 307.584 
L 414.72 41.472 
" style="fill: none; stroke: #000000; stroke-width: 0.8; stroke-linejoin: miter; stroke-linecap: square"/>
   </g>
   <g id="patch_5">
    <path d="M 57.6 307.584 
L 414.72 307.584 
" style="fill: none; stroke: #000000; stroke-width: 0.8; stroke-linejoin: miter; stroke-linecap: square"/>
   </g>
   <g id="patch_6">
    <path d="M 57.6 41.472 
L 414.72 41.472 
" style="fill: none; stroke: #000000; stroke-width: 0.8; stroke-linejoin: miter; stroke-linecap: square"/>
   </g>
   <g id="text_21">
    <!-- Learning Curves -->
    <g transform="translate(187.37625 35.472) scale(0.12 -0.12)">
     <defs>
      <path id="DejaVuSans-4c" d="M 628 4666 
L 1259 4666 
L 1259 531 
L 3531 531 
L 3531 0 
L 628 0 
L 628 4666 
z
" transform="scale(0.015625)"/>
      <path id="DejaVuSans-65" d="M 3597 1894 
L 3597 1613 
L 953 1613 
Q 991 1019 1311 708 
Q 1631 397 2203 397 
Q 2534 397 2845 478 
Q 3156 559 3463 722 
L 3463 178 
Q 3153 47 2828 -22 
Q 2503 -91 2169 -91 
Q 1331 -91 842 396 
Q 353 884 353 1716 
Q 353 2575 817 3079 
Q 1281 3584 2069 3584 
Q 2775 3584 3186 3129 
Q 3597 2675 3597 1894 
z
M 3022 2063 
Q 3016 2534 2758 2815 
Q 2500 3097 2075 3097 
Q 1594 3097 1305 2825 
Q 1016 2553 972 2059 
L 3022 2063 
z
" transform="scale(0.015625)"/>
      <path id="DejaVuSans-6e" d="M 3513 2113 
L 3513 0 
L 2938 0 
L 2938 2094 
Q 2938 2591 2744 2837 
Q 2550 3084 2163 3084 
Q 1697 3084 1428 2787 
Q 1159 2491 1159 1978 
L 1159 0 
L 581 0 
L 581 3500 
L 1159 3500 
L 1159 2956 
Q 1366 3272 1645 3428 
Q 1925 3584 2291 3584 
Q 2894 3584 3203 3211 
Q 3513 2838 3513 2113 
z
" transform="scale(0.015625)"/>
      <path id="DejaVuSans-69" d="M 603 3500 
L 1178 3500 
L 1178 0 
L 603 0 
L 603 3500 
z
M 603 4863 
L 1178 4863 
L 1178 4134 
L 603 4134 
L 603 4863 
z
" transform="scale(0.015625)"/>
      <path id="DejaVuSans-67" d="M 2906 1791 
Q 2906 2416 2648 2759 
Q 2391 3103 1925 3103 
Q 1463 3103 1205 2759 
Q 947 2416 947 1791 
Q 947 1169 1205 825 
Q 1463 481 1925 481 
Q 2391 481 2648 825 
Q 2906 1169 2906 1791 
z
M 3481 434 
Q 3481 -459 3084 -895 
Q 2688 -1331 1869 -1331 
Q 1566 -1331 1297 -1286 
Q 1028 -1241 775 -1147 
L 775 -588 
Q 1028 -725 1275 -790 
Q 1522 -856 1778 -856 
Q 2344 -856 2625 -561 
Q 2906 -266 2906 331 
L 2906 616 
Q 2728 306 2450 153 
Q 2172 0 1784 0 
Q 1141 0 747 490 
Q 353 981 353 1791 
Q 353 2603 747 3093 
Q 1141 3584 1784 3584 
Q 2172 3584 2450 3431 
Q 2728 3278 2906 2969 
L 2906 3500 
L 3481 3500 
L 3481 434 
z
" transform="scale(0.015625)"/>
      <path id="DejaVuSans-20" transform="scale(0.015625)"/>
      <path id="DejaVuSans-43" d="M 4122 4306 
L 4122 3641 
Q 3803 3938 3442 4084 
Q 3081 4231 2675 4231 
Q 1875 4231 1450 3742 
Q 1025 3253 1025 2328 
Q 1025 1406 1450 917 
Q 1875 428 2675 428 
Q 3081 428 3442 575 
Q 3803 722 4122 1019 
L 4122 359 
Q 3791 134 3420 21 
Q 3050 -91 2638 -91 
Q 1578 -91 968 557 
Q 359 1206 359 2328 
Q 359 3453 968 4101 
Q 1578 4750 2638 4750 
Q 3056 4750 3426 4639 
Q 3797 4528 4122 4306 
z
" transform="scale(0.015625)"/>
      <path id="DejaVuSans-76" d="M 191 3500 
L 800 3500 
L 1894 563 
L 2988 3500 
L 3597 3500 
L 2284 0 
L 1503 0 
L 191 3500 
z
" transform="scale(0.015625)"/>
     </defs>
     <use xlink:href="#DejaVuSans-4c"/>
     <use xlink:href="#DejaVuSans-65" x="53.962891"/>
     <use xlink:href="#DejaVuSans-61" x="115.486328"/>
     <use xlink:href="#DejaVuSans-72" x="176.765625"/>
     <use xlink:href="#DejaVuSans-6e" x="216.128906"/>
     <use xlink:href="#DejaVuSans-69" x="279.507812"/>
     <use xlink:href="#DejaVuSans-6e" x="307.291016"/>
     <use xlink:href="#DejaVuSans-67" x="370.669922"/>
     <use xlink:href="#DejaVuSans-20" x="434.146484"/>
     <use xlink:href="#DejaVuSans-43" x="465.933594"/>
     <use xlink:href="#DejaVuSans-75" x="535.757812"/>
     <use xlink:href="#DejaVuSans-72" x="599.136719"/>
     <use xlink:href="#DejaVuSans-76" x="640.25"/>
     <use xlink:href="#DejaVuSans-65" x="699.429688"/>
     <use xlink:href="#DejaVuSans-73" x="760.953125"/>
    </g>
   </g>
   <g id="legend_1">
    <g id="patch_7">
     <path d="M 128.445937 302.584 
L 343.874063 302.584 
Q 345.874063 302.584 345.874063 300.584 
L 345.874063 198.837125 
Q 345.874063 196.837125 343.874063 196.837125 
L 128.445937 196.837125 
Q 126.445937 196.837125 126.445937 198.837125 
L 126.445937 300.584 
Q 126.445937 302.584 128.445937 302.584 
z
" style="fill: #ffffff; opacity: 0.8; stroke: #cccccc; stroke-linejoin: miter"/>
    </g>
    <g id="line2d_26">
     <path d="M 130.445937 204.935563 
L 140.445937 204.935563 
L 150.445937 204.935563 
" style="fill: none; stroke: #1f77b4; stroke-width: 1.5; stroke-linecap: square"/>
    </g>
    <g id="text_22">
     <!-- Train Accuracy -->
     <g transform="translate(158.445937 208.435563) scale(0.1 -0.1)">
      <defs>
       <path id="DejaVuSans-54" d="M -19 4666 
L 3928 4666 
L 3928 4134 
L 2272 4134 
L 2272 0 
L 1638 0 
L 1638 4134 
L -19 4134 
L -19 4666 
z
" transform="scale(0.015625)"/>
      </defs>
      <use xlink:href="#DejaVuSans-54"/>
      <use xlink:href="#DejaVuSans-72" x="46.333984"/>
      <use xlink:href="#DejaVuSans-61" x="87.447266"/>
      <use xlink:href="#DejaVuSans-69" x="148.726562"/>
      <use xlink:href="#DejaVuSans-6e" x="176.509766"/>
      <use xlink:href="#DejaVuSans-20" x="239.888672"/>
      <use xlink:href="#DejaVuSans-41" x="271.675781"/>
      <use xlink:href="#DejaVuSans-63" x="338.333984"/>
      <use xlink:href="#DejaVuSans-63" x="393.314453"/>
      <use xlink:href="#DejaVuSans-75" x="448.294922"/>
      <use xlink:href="#DejaVuSans-72" x="511.673828"/>
      <use xlink:href="#DejaVuSans-61" x="552.787109"/>
      <use xlink:href="#DejaVuSans-63" x="614.066406"/>
      <use xlink:href="#DejaVuSans-79" x="669.046875"/>
     </g>
    </g>
    <g id="line2d_27">
     <path d="M 130.445937 219.613688 
L 140.445937 219.613688 
L 150.445937 219.613688 
" style="fill: none; stroke: #ff7f0e; stroke-width: 1.5; stroke-linecap: square"/>
    </g>
    <g id="text_23">
     <!-- Validation Accuracy -->
     <g transform="translate(158.445937 223.113688) scale(0.1 -0.1)">
      <defs>
       <path id="DejaVuSans-56" d="M 1831 0 
L 50 4666 
L 709 4666 
L 2188 738 
L 3669 4666 
L 4325 4666 
L 2547 0 
L 1831 0 
z
" transform="scale(0.015625)"/>
       <path id="DejaVuSans-6c" d="M 603 4863 
L 1178 4863 
L 1178 0 
L 603 0 
L 603 4863 
z
" transform="scale(0.015625)"/>
       <path id="DejaVuSans-64" d="M 2906 2969 
L 2906 4863 
L 3481 4863 
L 3481 0 
L 2906 0 
L 2906 525 
Q 2725 213 2448 61 
Q 2172 -91 1784 -91 
Q 1150 -91 751 415 
Q 353 922 353 1747 
Q 353 2572 751 3078 
Q 1150 3584 1784 3584 
Q 2172 3584 2448 3432 
Q 2725 3281 2906 2969 
z
M 947 1747 
Q 947 1113 1208 752 
Q 1469 391 1925 391 
Q 2381 391 2643 752 
Q 2906 1113 2906 1747 
Q 2906 2381 2643 2742 
Q 2381 3103 1925 3103 
Q 1469 3103 1208 2742 
Q 947 2381 947 1747 
z
" transform="scale(0.015625)"/>
       <path id="DejaVuSans-74" d="M 1172 4494 
L 1172 3500 
L 2356 3500 
L 2356 3053 
L 1172 3053 
L 1172 1153 
Q 1172 725 1289 603 
Q 1406 481 1766 481 
L 2356 481 
L 2356 0 
L 1766 0 
Q 1100 0 847 248 
Q 594 497 594 1153 
L 594 3053 
L 172 3053 
L 172 3500 
L 594 3500 
L 594 4494 
L 1172 4494 
z
" transform="scale(0.015625)"/>
      </defs>
      <use xlink:href="#DejaVuSans-56"/>
      <use xlink:href="#DejaVuSans-61" x="60.658203"/>
      <use xlink:href="#DejaVuSans-6c" x="121.9375"/>
      <use xlink:href="#DejaVuSans-69" x="149.720703"/>
      <use xlink:href="#DejaVuSans-64" x="177.503906"/>
      <use xlink:href="#DejaVuSans-61" x="240.980469"/>
      <use xlink:href="#DejaVuSans-74" x="302.259766"/>
      <use xlink:href="#DejaVuSans-69" x="341.46875"/>
      <use xlink:href="#DejaVuSans-6f" x="369.251953"/>
      <use xlink:href="#DejaVuSans-6e" x="430.433594"/>
      <use xlink:href="#DejaVuSans-20" x="493.8125"/>
      <use xlink:href="#DejaVuSans-41" x="525.599609"/>
      <use xlink:href="#DejaVuSans-63" x="592.257812"/>
      <use xlink:href="#DejaVuSans-63" x="647.238281"/>
      <use xlink:href="#DejaVuSans-75" x="702.21875"/>
      <use xlink:href="#DejaVuSans-72" x="765.597656"/>
      <use xlink:href="#DejaVuSans-61" x="806.710938"/>
      <use xlink:href="#DejaVuSans-63" x="867.990234"/>
      <use xlink:href="#DejaVuSans-79" x="922.970703"/>
     </g>
    </g>
    <g id="line2d_28">
     <path d="M 130.445937 234.291812 
L 140.445937 234.291812 
L 150.445937 234.291812 
" style="fill: none; stroke: #2ca02c; stroke-width: 1.5; stroke-linecap: square"/>
    </g>
    <g id="text_24">
     <!-- Robust Validation Accuracy -->
     <g transform="translate(158.445937 237.791812) scale(0.1 -0.1)">
      <defs>
       <path id="DejaVuSans-52" d="M 2841 2188 
Q 3044 2119 3236 1894 
Q 3428 1669 3622 1275 
L 4263 0 
L 3584 0 
L 2988 1197 
Q 2756 1666 2539 1819 
Q 2322 1972 1947 1972 
L 1259 1972 
L 1259 0 
L 628 0 
L 628 4666 
L 2053 4666 
Q 2853 4666 3247 4331 
Q 3641 3997 3641 3322 
Q 3641 2881 3436 2590 
Q 3231 2300 2841 2188 
z
M 1259 4147 
L 1259 2491 
L 2053 2491 
Q 2509 2491 2742 2702 
Q 2975 2913 2975 3322 
Q 2975 3731 2742 3939 
Q 2509 4147 2053 4147 
L 1259 4147 
z
" transform="scale(0.015625)"/>
       <path id="DejaVuSans-62" d="M 3116 1747 
Q 3116 2381 2855 2742 
Q 2594 3103 2138 3103 
Q 1681 3103 1420 2742 
Q 1159 2381 1159 1747 
Q 1159 1113 1420 752 
Q 1681 391 2138 391 
Q 2594 391 2855 752 
Q 3116 1113 3116 1747 
z
M 1159 2969 
Q 1341 3281 1617 3432 
Q 1894 3584 2278 3584 
Q 2916 3584 3314 3078 
Q 3713 2572 3713 1747 
Q 3713 922 3314 415 
Q 2916 -91 2278 -91 
Q 1894 -91 1617 61 
Q 1341 213 1159 525 
L 1159 0 
L 581 0 
L 581 4863 
L 1159 4863 
L 1159 2969 
z
" transform="scale(0.015625)"/>
      </defs>
      <use xlink:href="#DejaVuSans-52"/>
      <use xlink:href="#DejaVuSans-6f" x="64.982422"/>
      <use xlink:href="#DejaVuSans-62" x="126.164062"/>
      <use xlink:href="#DejaVuSans-75" x="189.640625"/>
      <use xlink:href="#DejaVuSans-73" x="253.019531"/>
      <use xlink:href="#DejaVuSans-74" x="305.119141"/>
      <use xlink:href="#DejaVuSans-20" x="344.328125"/>
      <use xlink:href="#DejaVuSans-56" x="376.115234"/>
      <use xlink:href="#DejaVuSans-61" x="436.773438"/>
      <use xlink:href="#DejaVuSans-6c" x="498.052734"/>
      <use xlink:href="#DejaVuSans-69" x="525.835938"/>
      <use xlink:href="#DejaVuSans-64" x="553.619141"/>
      <use xlink:href="#DejaVuSans-61" x="617.095703"/>
      <use xlink:href="#DejaVuSans-74" x="678.375"/>
      <use xlink:href="#DejaVuSans-69" x="717.583984"/>
      <use xlink:href="#DejaVuSans-6f" x="745.367188"/>
      <use xlink:href="#DejaVuSans-6e" x="806.548828"/>
      <use xlink:href="#DejaVuSans-20" x="869.927734"/>
      <use xlink:href="#DejaVuSans-41" x="901.714844"/>
      <use xlink:href="#DejaVuSans-63" x="968.373047"/>
      <use xlink:href="#DejaVuSans-63" x="1023.353516"/>
      <use xlink:href="#DejaVuSans-75" x="1078.333984"/>
      <use xlink:href="#DejaVuSans-72" x="1141.712891"/>
      <use xlink:href="#DejaVuSans-61" x="1182.826172"/>
      <use xlink:href="#DejaVuSans-63" x="1244.105469"/>
      <use xlink:href="#DejaVuSans-79" x="1299.085938"/>
     </g>
    </g>
    <g id="line2d_29">
     <path d="M 130.445937 248.969938 
L 140.445937 248.969938 
L 150.445937 248.969938 
" style="fill: none; stroke: #d62728; stroke-width: 1.5; stroke-linecap: square"/>
    </g>
    <g id="text_25">
     <!-- Adversarial Validation Accuracy -->
     <g transform="translate(158.445937 252.469938) scale(0.1 -0.1)">
      <use xlink:href="#DejaVuSans-41"/>
      <use xlink:href="#DejaVuSans-64" x="66.658203"/>
      <use xlink:href="#DejaVuSans-76" x="130.134766"/>
      <use xlink:href="#DejaVuSans-65" x="189.314453"/>
      <use xlink:href="#DejaVuSans-72" x="250.837891"/>
      <use xlink:href="#DejaVuSans-73" x="291.951172"/>
      <use xlink:href="#DejaVuSans-61" x="344.050781"/>
      <use xlink:href="#DejaVuSans-72" x="405.330078"/>
      <use xlink:href="#DejaVuSans-69" x="446.443359"/>
      <use xlink:href="#DejaVuSans-61" x="474.226562"/>
      <use xlink:href="#DejaVuSans-6c" x="535.505859"/>
      <use xlink:href="#DejaVuSans-20" x="563.289062"/>
      <use xlink:href="#DejaVuSans-56" x="595.076172"/>
      <use xlink:href="#DejaVuSans-61" x="655.734375"/>
      <use xlink:href="#DejaVuSans-6c" x="717.013672"/>
      <use xlink:href="#DejaVuSans-69" x="744.796875"/>
      <use xlink:href="#DejaVuSans-64" x="772.580078"/>
      <use xlink:href="#DejaVuSans-61" x="836.056641"/>
      <use xlink:href="#DejaVuSans-74" x="897.335938"/>
      <use xlink:href="#DejaVuSans-69" x="936.544922"/>
      <use xlink:href="#DejaVuSans-6f" x="964.328125"/>
      <use xlink:href="#DejaVuSans-6e" x="1025.509766"/>
      <use xlink:href="#DejaVuSans-20" x="1088.888672"/>
      <use xlink:href="#DejaVuSans-41" x="1120.675781"/>
      <use xlink:href="#DejaVuSans-63" x="1187.333984"/>
      <use xlink:href="#DejaVuSans-63" x="1242.314453"/>
      <use xlink:href="#DejaVuSans-75" x="1297.294922"/>
      <use xlink:href="#DejaVuSans-72" x="1360.673828"/>
      <use xlink:href="#DejaVuSans-61" x="1401.787109"/>
      <use xlink:href="#DejaVuSans-63" x="1463.066406"/>
      <use xlink:href="#DejaVuSans-79" x="1518.046875"/>
     </g>
    </g>
    <g id="line2d_30">
     <path d="M 130.445937 263.648063 
L 140.445937 263.648063 
L 150.445937 263.648063 
" style="fill: none; stroke: #9467bd; stroke-width: 1.5; stroke-linecap: square"/>
    </g>
    <g id="text_26">
     <!-- SWA Validation Accuracy -->
     <g transform="translate(158.445937 267.148063) scale(0.1 -0.1)">
      <defs>
       <path id="DejaVuSans-53" d="M 3425 4513 
L 3425 3897 
Q 3066 4069 2747 4153 
Q 2428 4238 2131 4238 
Q 1616 4238 1336 4038 
Q 1056 3838 1056 3469 
Q 1056 3159 1242 3001 
Q 1428 2844 1947 2747 
L 2328 2669 
Q 3034 2534 3370 2195 
Q 3706 1856 3706 1288 
Q 3706 609 3251 259 
Q 2797 -91 1919 -91 
Q 1588 -91 1214 -16 
Q 841 59 441 206 
L 441 856 
Q 825 641 1194 531 
Q 1563 422 1919 422 
Q 2459 422 2753 634 
Q 3047 847 3047 1241 
Q 3047 1584 2836 1778 
Q 2625 1972 2144 2069 
L 1759 2144 
Q 1053 2284 737 2584 
Q 422 2884 422 3419 
Q 422 4038 858 4394 
Q 1294 4750 2059 4750 
Q 2388 4750 2728 4690 
Q 3069 4631 3425 4513 
z
" transform="scale(0.015625)"/>
       <path id="DejaVuSans-57" d="M 213 4666 
L 850 4666 
L 1831 722 
L 2809 4666 
L 3519 4666 
L 4500 722 
L 5478 4666 
L 6119 4666 
L 4947 0 
L 4153 0 
L 3169 4050 
L 2175 0 
L 1381 0 
L 213 4666 
z
" transform="scale(0.015625)"/>
      </defs>
      <use xlink:href="#DejaVuSans-53"/>
      <use xlink:href="#DejaVuSans-57" x="63.476562"/>
      <use xlink:href="#DejaVuSans-41" x="156.853516"/>
      <use xlink:href="#DejaVuSans-20" x="225.261719"/>
      <use xlink:href="#DejaVuSans-56" x="257.048828"/>
      <use xlink:href="#DejaVuSans-61" x="317.707031"/>
      <use xlink:href="#DejaVuSans-6c" x="378.986328"/>
      <use xlink:href="#DejaVuSans-69" x="406.769531"/>
      <use xlink:href="#DejaVuSans-64" x="434.552734"/>
      <use xlink:href="#DejaVuSans-61" x="498.029297"/>
      <use xlink:href="#DejaVuSans-74" x="559.308594"/>
      <use xlink:href="#DejaVuSans-69" x="598.517578"/>
      <use xlink:href="#DejaVuSans-6f" x="626.300781"/>
      <use xlink:href="#DejaVuSans-6e" x="687.482422"/>
      <use xlink:href="#DejaVuSans-20" x="750.861328"/>
      <use xlink:href="#DejaVuSans-41" x="782.648438"/>
      <use xlink:href="#DejaVuSans-63" x="849.306641"/>
      <use xlink:href="#DejaVuSans-63" x="904.287109"/>
      <use xlink:href="#DejaVuSans-75" x="959.267578"/>
      <use xlink:href="#DejaVuSans-72" x="1022.646484"/>
      <use xlink:href="#DejaVuSans-61" x="1063.759766"/>
      <use xlink:href="#DejaVuSans-63" x="1125.039062"/>
      <use xlink:href="#DejaVuSans-79" x="1180.019531"/>
     </g>
    </g>
    <g id="line2d_31">
     <path d="M 130.445937 278.326188 
L 140.445937 278.326188 
L 150.445937 278.326188 
" style="fill: none; stroke: #8c564b; stroke-width: 1.5; stroke-linecap: square"/>
    </g>
    <g id="text_27">
     <!-- SWA Robust Validation Accuracy -->
     <g transform="translate(158.445937 281.826188) scale(0.1 -0.1)">
      <use xlink:href="#DejaVuSans-53"/>
      <use xlink:href="#DejaVuSans-57" x="63.476562"/>
      <use xlink:href="#DejaVuSans-41" x="156.853516"/>
      <use xlink:href="#DejaVuSans-20" x="225.261719"/>
      <use xlink:href="#DejaVuSans-52" x="257.048828"/>
      <use xlink:href="#DejaVuSans-6f" x="322.03125"/>
      <use xlink:href="#DejaVuSans-62" x="383.212891"/>
      <use xlink:href="#DejaVuSans-75" x="446.689453"/>
      <use xlink:href="#DejaVuSans-73" x="510.068359"/>
      <use xlink:href="#DejaVuSans-74" x="562.167969"/>
      <use xlink:href="#DejaVuSans-20" x="601.376953"/>
      <use xlink:href="#DejaVuSans-56" x="633.164062"/>
      <use xlink:href="#DejaVuSans-61" x="693.822266"/>
      <use xlink:href="#DejaVuSans-6c" x="755.101562"/>
      <use xlink:href="#DejaVuSans-69" x="782.884766"/>
      <use xlink:href="#DejaVuSans-64" x="810.667969"/>
      <use xlink:href="#DejaVuSans-61" x="874.144531"/>
      <use xlink:href="#DejaVuSans-74" x="935.423828"/>
      <use xlink:href="#DejaVuSans-69" x="974.632812"/>
      <use xlink:href="#DejaVuSans-6f" x="1002.416016"/>
      <use xlink:href="#DejaVuSans-6e" x="1063.597656"/>
      <use xlink:href="#DejaVuSans-20" x="1126.976562"/>
      <use xlink:href="#DejaVuSans-41" x="1158.763672"/>
      <use xlink:href="#DejaVuSans-63" x="1225.421875"/>
      <use xlink:href="#DejaVuSans-63" x="1280.402344"/>
      <use xlink:href="#DejaVuSans-75" x="1335.382812"/>
      <use xlink:href="#DejaVuSans-72" x="1398.761719"/>
      <use xlink:href="#DejaVuSans-61" x="1439.875"/>
      <use xlink:href="#DejaVuSans-63" x="1501.154297"/>
      <use xlink:href="#DejaVuSans-79" x="1556.134766"/>
     </g>
    </g>
    <g id="line2d_32">
     <path d="M 130.445937 293.004312 
L 140.445937 293.004312 
L 150.445937 293.004312 
" style="fill: none; stroke: #e377c2; stroke-width: 1.5; stroke-linecap: square"/>
    </g>
    <g id="text_28">
     <!-- SWA Adversarial Validation Accuracy -->
     <g transform="translate(158.445937 296.504312) scale(0.1 -0.1)">
      <use xlink:href="#DejaVuSans-53"/>
      <use xlink:href="#DejaVuSans-57" x="63.476562"/>
      <use xlink:href="#DejaVuSans-41" x="156.853516"/>
      <use xlink:href="#DejaVuSans-20" x="225.261719"/>
      <use xlink:href="#DejaVuSans-41" x="257.048828"/>
      <use xlink:href="#DejaVuSans-64" x="323.707031"/>
      <use xlink:href="#DejaVuSans-76" x="387.183594"/>
      <use xlink:href="#DejaVuSans-65" x="446.363281"/>
      <use xlink:href="#DejaVuSans-72" x="507.886719"/>
      <use xlink:href="#DejaVuSans-73" x="549"/>
      <use xlink:href="#DejaVuSans-61" x="601.099609"/>
      <use xlink:href="#DejaVuSans-72" x="662.378906"/>
      <use xlink:href="#DejaVuSans-69" x="703.492188"/>
      <use xlink:href="#DejaVuSans-61" x="731.275391"/>
      <use xlink:href="#DejaVuSans-6c" x="792.554688"/>
      <use xlink:href="#DejaVuSans-20" x="820.337891"/>
      <use xlink:href="#DejaVuSans-56" x="852.125"/>
      <use xlink:href="#DejaVuSans-61" x="912.783203"/>
      <use xlink:href="#DejaVuSans-6c" x="974.0625"/>
      <use xlink:href="#DejaVuSans-69" x="1001.845703"/>
      <use xlink:href="#DejaVuSans-64" x="1029.628906"/>
      <use xlink:href="#DejaVuSans-61" x="1093.105469"/>
      <use xlink:href="#DejaVuSans-74" x="1154.384766"/>
      <use xlink:href="#DejaVuSans-69" x="1193.59375"/>
      <use xlink:href="#DejaVuSans-6f" x="1221.376953"/>
      <use xlink:href="#DejaVuSans-6e" x="1282.558594"/>
      <use xlink:href="#DejaVuSans-20" x="1345.9375"/>
      <use xlink:href="#DejaVuSans-41" x="1377.724609"/>
      <use xlink:href="#DejaVuSans-63" x="1444.382812"/>
      <use xlink:href="#DejaVuSans-63" x="1499.363281"/>
      <use xlink:href="#DejaVuSans-75" x="1554.34375"/>
      <use xlink:href="#DejaVuSans-72" x="1617.722656"/>
      <use xlink:href="#DejaVuSans-61" x="1658.835938"/>
      <use xlink:href="#DejaVuSans-63" x="1720.115234"/>
      <use xlink:href="#DejaVuSans-79" x="1775.095703"/>
     </g>
    </g>
   </g>
  </g>
 </g>
 <defs>
  <clipPath id="p7c4838f5ed">
   <rect x="57.6" y="41.472" width="357.12" height="266.112"/>
  </clipPath>
 </defs>
</svg>
