<?xml version="1.0" encoding="utf-8" standalone="no"?>
<!DOCTYPE svg PUBLIC "-//W3C//DTD SVG 1.1//EN"
  "http://www.w3.org/Graphics/SVG/1.1/DTD/svg11.dtd">
<svg xmlns:xlink="http://www.w3.org/1999/xlink" width="460.8pt" height="345.6pt" viewBox="0 0 460.8 345.6" xmlns="http://www.w3.org/2000/svg" version="1.1">
 <metadata>
  <rdf:RDF xmlns:dc="http://purl.org/dc/elements/1.1/" xmlns:cc="http://creativecommons.org/ns#" xmlns:rdf="http://www.w3.org/1999/02/22-rdf-syntax-ns#">
   <cc:Work>
    <dc:type rdf:resource="http://purl.org/dc/dcmitype/StillImage"/>
    <dc:date>2024-08-27T14:25:58.972637</dc:date>
    <dc:format>image/svg+xml</dc:format>
    <dc:creator>
     <cc:Agent>
      <dc:title>Matplotlib v3.9.1, https://matplotlib.org/</dc:title>
     </cc:Agent>
    </dc:creator>
   </cc:Work>
  </rdf:RDF>
 </metadata>
 <defs>
  <style type="text/css">*{stroke-linejoin: round; stroke-linecap: butt}</style>
 </defs>
 <g id="figure_1">
  <g id="patch_1">
   <path d="M 0 345.6 
L 460.8 345.6 
L 460.8 0 
L 0 0 
z
" style="fill: #ffffff"/>
  </g>
  <g id="axes_1">
   <g id="patch_2">
    <path d="M 57.6 307.584 
L 414.72 307.584 
L 414.72 41.472 
L 57.6 41.472 
z
" style="fill: #ffffff"/>
   </g>
   <g id="matplotlib.axis_1">
    <g id="xtick_1">
     <g id="line2d_1">
      <defs>
       <path id="m8b3837a126" d="M 0 0 
L 0 3.5 
" style="stroke: #000000; stroke-width: 0.8"/>
      </defs>
      <g>
       <use xlink:href="#m8b3837a126" x="73.832727" y="307.584" style="stroke: #000000; stroke-width: 0.8"/>
      </g>
     </g>
     <g id="text_1">
      <!-- 1 -->
      <g transform="translate(70.651477 322.182437) scale(0.1 -0.1)">
       <defs>
        <path id="DejaVuSans-31" d="M 794 531 
L 1825 531 
L 1825 4091 
L 703 3866 
L 703 4441 
L 1819 4666 
L 2450 4666 
L 2450 531 
L 3481 531 
L 3481 0 
L 794 0 
L 794 531 
z
" transform="scale(0.015625)"/>
       </defs>
       <use xlink:href="#DejaVuSans-31"/>
      </g>
     </g>
    </g>
    <g id="xtick_2">
     <g id="line2d_2">
      <g>
       <use xlink:href="#m8b3837a126" x="109.262733" y="307.584" style="stroke: #000000; stroke-width: 0.8"/>
      </g>
     </g>
     <g id="text_2">
      <!-- 50 -->
      <g transform="translate(102.900233 322.182437) scale(0.1 -0.1)">
       <defs>
        <path id="DejaVuSans-35" d="M 691 4666 
L 3169 4666 
L 3169 4134 
L 1269 4134 
L 1269 2991 
Q 1406 3038 1543 3061 
Q 1681 3084 1819 3084 
Q 2600 3084 3056 2656 
Q 3513 2228 3513 1497 
Q 3513 744 3044 326 
Q 2575 -91 1722 -91 
Q 1428 -91 1123 -41 
Q 819 9 494 109 
L 494 744 
Q 775 591 1075 516 
Q 1375 441 1709 441 
Q 2250 441 2565 725 
Q 2881 1009 2881 1497 
Q 2881 1984 2565 2268 
Q 2250 2553 1709 2553 
Q 1456 2553 1204 2497 
Q 953 2441 691 2322 
L 691 4666 
z
" transform="scale(0.015625)"/>
        <path id="DejaVuSans-30" d="M 2034 4250 
Q 1547 4250 1301 3770 
Q 1056 3291 1056 2328 
Q 1056 1369 1301 889 
Q 1547 409 2034 409 
Q 2525 409 2770 889 
Q 3016 1369 3016 2328 
Q 3016 3291 2770 3770 
Q 2525 4250 2034 4250 
z
M 2034 4750 
Q 2819 4750 3233 4129 
Q 3647 3509 3647 2328 
Q 3647 1150 3233 529 
Q 2819 -91 2034 -91 
Q 1250 -91 836 529 
Q 422 1150 422 2328 
Q 422 3509 836 4129 
Q 1250 4750 2034 4750 
z
" transform="scale(0.015625)"/>
       </defs>
       <use xlink:href="#DejaVuSans-35"/>
       <use xlink:href="#DejaVuSans-30" x="63.623047"/>
      </g>
     </g>
    </g>
    <g id="xtick_3">
     <g id="line2d_3">
      <g>
       <use xlink:href="#m8b3837a126" x="145.415801" y="307.584" style="stroke: #000000; stroke-width: 0.8"/>
      </g>
     </g>
     <g id="text_3">
      <!-- 100 -->
      <g transform="translate(135.872051 322.182437) scale(0.1 -0.1)">
       <use xlink:href="#DejaVuSans-31"/>
       <use xlink:href="#DejaVuSans-30" x="63.623047"/>
       <use xlink:href="#DejaVuSans-30" x="127.246094"/>
      </g>
     </g>
    </g>
    <g id="xtick_4">
     <g id="line2d_4">
      <g>
       <use xlink:href="#m8b3837a126" x="181.568868" y="307.584" style="stroke: #000000; stroke-width: 0.8"/>
      </g>
     </g>
     <g id="text_4">
      <!-- 150 -->
      <g transform="translate(172.025118 322.182437) scale(0.1 -0.1)">
       <use xlink:href="#DejaVuSans-31"/>
       <use xlink:href="#DejaVuSans-35" x="63.623047"/>
       <use xlink:href="#DejaVuSans-30" x="127.246094"/>
      </g>
     </g>
    </g>
    <g id="xtick_5">
     <g id="line2d_5">
      <g>
       <use xlink:href="#m8b3837a126" x="217.721936" y="307.584" style="stroke: #000000; stroke-width: 0.8"/>
      </g>
     </g>
     <g id="text_5">
      <!-- 200 -->
      <g transform="translate(208.178186 322.182437) scale(0.1 -0.1)">
       <defs>
        <path id="DejaVuSans-32" d="M 1228 531 
L 3431 531 
L 3431 0 
L 469 0 
L 469 531 
Q 828 903 1448 1529 
Q 2069 2156 2228 2338 
Q 2531 2678 2651 2914 
Q 2772 3150 2772 3378 
Q 2772 3750 2511 3984 
Q 2250 4219 1831 4219 
Q 1534 4219 1204 4116 
Q 875 4013 500 3803 
L 500 4441 
Q 881 4594 1212 4672 
Q 1544 4750 1819 4750 
Q 2544 4750 2975 4387 
Q 3406 4025 3406 3419 
Q 3406 3131 3298 2873 
Q 3191 2616 2906 2266 
Q 2828 2175 2409 1742 
Q 1991 1309 1228 531 
z
" transform="scale(0.015625)"/>
       </defs>
       <use xlink:href="#DejaVuSans-32"/>
       <use xlink:href="#DejaVuSans-30" x="63.623047"/>
       <use xlink:href="#DejaVuSans-30" x="127.246094"/>
      </g>
     </g>
    </g>
    <g id="xtick_6">
     <g id="line2d_6">
      <g>
       <use xlink:href="#m8b3837a126" x="253.875003" y="307.584" style="stroke: #000000; stroke-width: 0.8"/>
      </g>
     </g>
     <g id="text_6">
      <!-- 250 -->
      <g transform="translate(244.331253 322.182437) scale(0.1 -0.1)">
       <use xlink:href="#DejaVuSans-32"/>
       <use xlink:href="#DejaVuSans-35" x="63.623047"/>
       <use xlink:href="#DejaVuSans-30" x="127.246094"/>
      </g>
     </g>
    </g>
    <g id="xtick_7">
     <g id="line2d_7">
      <g>
       <use xlink:href="#m8b3837a126" x="290.02807" y="307.584" style="stroke: #000000; stroke-width: 0.8"/>
      </g>
     </g>
     <g id="text_7">
      <!-- 300 -->
      <g transform="translate(280.48432 322.182437) scale(0.1 -0.1)">
       <defs>
        <path id="DejaVuSans-33" d="M 2597 2516 
Q 3050 2419 3304 2112 
Q 3559 1806 3559 1356 
Q 3559 666 3084 287 
Q 2609 -91 1734 -91 
Q 1441 -91 1130 -33 
Q 819 25 488 141 
L 488 750 
Q 750 597 1062 519 
Q 1375 441 1716 441 
Q 2309 441 2620 675 
Q 2931 909 2931 1356 
Q 2931 1769 2642 2001 
Q 2353 2234 1838 2234 
L 1294 2234 
L 1294 2753 
L 1863 2753 
Q 2328 2753 2575 2939 
Q 2822 3125 2822 3475 
Q 2822 3834 2567 4026 
Q 2313 4219 1838 4219 
Q 1578 4219 1281 4162 
Q 984 4106 628 3988 
L 628 4550 
Q 988 4650 1302 4700 
Q 1616 4750 1894 4750 
Q 2613 4750 3031 4423 
Q 3450 4097 3450 3541 
Q 3450 3153 3228 2886 
Q 3006 2619 2597 2516 
z
" transform="scale(0.015625)"/>
       </defs>
       <use xlink:href="#DejaVuSans-33"/>
       <use xlink:href="#DejaVuSans-30" x="63.623047"/>
       <use xlink:href="#DejaVuSans-30" x="127.246094"/>
      </g>
     </g>
    </g>
    <g id="xtick_8">
     <g id="line2d_8">
      <g>
       <use xlink:href="#m8b3837a126" x="326.181138" y="307.584" style="stroke: #000000; stroke-width: 0.8"/>
      </g>
     </g>
     <g id="text_8">
      <!-- 350 -->
      <g transform="translate(316.637388 322.182437) scale(0.1 -0.1)">
       <use xlink:href="#DejaVuSans-33"/>
       <use xlink:href="#DejaVuSans-35" x="63.623047"/>
       <use xlink:href="#DejaVuSans-30" x="127.246094"/>
      </g>
     </g>
    </g>
    <g id="xtick_9">
     <g id="line2d_9">
      <g>
       <use xlink:href="#m8b3837a126" x="362.334205" y="307.584" style="stroke: #000000; stroke-width: 0.8"/>
      </g>
     </g>
     <g id="text_9">
      <!-- 400 -->
      <g transform="translate(352.790455 322.182437) scale(0.1 -0.1)">
       <defs>
        <path id="DejaVuSans-34" d="M 2419 4116 
L 825 1625 
L 2419 1625 
L 2419 4116 
z
M 2253 4666 
L 3047 4666 
L 3047 1625 
L 3713 1625 
L 3713 1100 
L 3047 1100 
L 3047 0 
L 2419 0 
L 2419 1100 
L 313 1100 
L 313 1709 
L 2253 4666 
z
" transform="scale(0.015625)"/>
       </defs>
       <use xlink:href="#DejaVuSans-34"/>
       <use xlink:href="#DejaVuSans-30" x="63.623047"/>
       <use xlink:href="#DejaVuSans-30" x="127.246094"/>
      </g>
     </g>
    </g>
    <g id="xtick_10">
     <g id="line2d_10">
      <g>
       <use xlink:href="#m8b3837a126" x="398.487273" y="307.584" style="stroke: #000000; stroke-width: 0.8"/>
      </g>
     </g>
     <g id="text_10">
      <!-- 450 -->
      <g transform="translate(388.943523 322.182437) scale(0.1 -0.1)">
       <use xlink:href="#DejaVuSans-34"/>
       <use xlink:href="#DejaVuSans-35" x="63.623047"/>
       <use xlink:href="#DejaVuSans-30" x="127.246094"/>
      </g>
     </g>
    </g>
    <g id="text_11">
     <!-- Epochs -->
     <g transform="translate(218.244375 335.860562) scale(0.1 -0.1)">
      <defs>
       <path id="DejaVuSans-45" d="M 628 4666 
L 3578 4666 
L 3578 4134 
L 1259 4134 
L 1259 2753 
L 3481 2753 
L 3481 2222 
L 1259 2222 
L 1259 531 
L 3634 531 
L 3634 0 
L 628 0 
L 628 4666 
z
" transform="scale(0.015625)"/>
       <path id="DejaVuSans-70" d="M 1159 525 
L 1159 -1331 
L 581 -1331 
L 581 3500 
L 1159 3500 
L 1159 2969 
Q 1341 3281 1617 3432 
Q 1894 3584 2278 3584 
Q 2916 3584 3314 3078 
Q 3713 2572 3713 1747 
Q 3713 922 3314 415 
Q 2916 -91 2278 -91 
Q 1894 -91 1617 61 
Q 1341 213 1159 525 
z
M 3116 1747 
Q 3116 2381 2855 2742 
Q 2594 3103 2138 3103 
Q 1681 3103 1420 2742 
Q 1159 2381 1159 1747 
Q 1159 1113 1420 752 
Q 1681 391 2138 391 
Q 2594 391 2855 752 
Q 3116 1113 3116 1747 
z
" transform="scale(0.015625)"/>
       <path id="DejaVuSans-6f" d="M 1959 3097 
Q 1497 3097 1228 2736 
Q 959 2375 959 1747 
Q 959 1119 1226 758 
Q 1494 397 1959 397 
Q 2419 397 2687 759 
Q 2956 1122 2956 1747 
Q 2956 2369 2687 2733 
Q 2419 3097 1959 3097 
z
M 1959 3584 
Q 2709 3584 3137 3096 
Q 3566 2609 3566 1747 
Q 3566 888 3137 398 
Q 2709 -91 1959 -91 
Q 1206 -91 779 398 
Q 353 888 353 1747 
Q 353 2609 779 3096 
Q 1206 3584 1959 3584 
z
" transform="scale(0.015625)"/>
       <path id="DejaVuSans-63" d="M 3122 3366 
L 3122 2828 
Q 2878 2963 2633 3030 
Q 2388 3097 2138 3097 
Q 1578 3097 1268 2742 
Q 959 2388 959 1747 
Q 959 1106 1268 751 
Q 1578 397 2138 397 
Q 2388 397 2633 464 
Q 2878 531 3122 666 
L 3122 134 
Q 2881 22 2623 -34 
Q 2366 -91 2075 -91 
Q 1284 -91 818 406 
Q 353 903 353 1747 
Q 353 2603 823 3093 
Q 1294 3584 2113 3584 
Q 2378 3584 2631 3529 
Q 2884 3475 3122 3366 
z
" transform="scale(0.015625)"/>
       <path id="DejaVuSans-68" d="M 3513 2113 
L 3513 0 
L 2938 0 
L 2938 2094 
Q 2938 2591 2744 2837 
Q 2550 3084 2163 3084 
Q 1697 3084 1428 2787 
Q 1159 2491 1159 1978 
L 1159 0 
L 581 0 
L 581 4863 
L 1159 4863 
L 1159 2956 
Q 1366 3272 1645 3428 
Q 1925 3584 2291 3584 
Q 2894 3584 3203 3211 
Q 3513 2838 3513 2113 
z
" transform="scale(0.015625)"/>
       <path id="DejaVuSans-73" d="M 2834 3397 
L 2834 2853 
Q 2591 2978 2328 3040 
Q 2066 3103 1784 3103 
Q 1356 3103 1142 2972 
Q 928 2841 928 2578 
Q 928 2378 1081 2264 
Q 1234 2150 1697 2047 
L 1894 2003 
Q 2506 1872 2764 1633 
Q 3022 1394 3022 966 
Q 3022 478 2636 193 
Q 2250 -91 1575 -91 
Q 1294 -91 989 -36 
Q 684 19 347 128 
L 347 722 
Q 666 556 975 473 
Q 1284 391 1588 391 
Q 1994 391 2212 530 
Q 2431 669 2431 922 
Q 2431 1156 2273 1281 
Q 2116 1406 1581 1522 
L 1381 1569 
Q 847 1681 609 1914 
Q 372 2147 372 2553 
Q 372 3047 722 3315 
Q 1072 3584 1716 3584 
Q 2034 3584 2315 3537 
Q 2597 3491 2834 3397 
z
" transform="scale(0.015625)"/>
      </defs>
      <use xlink:href="#DejaVuSans-45"/>
      <use xlink:href="#DejaVuSans-70" x="63.183594"/>
      <use xlink:href="#DejaVuSans-6f" x="126.660156"/>
      <use xlink:href="#DejaVuSans-63" x="187.841797"/>
      <use xlink:href="#DejaVuSans-68" x="242.822266"/>
      <use xlink:href="#DejaVuSans-73" x="306.201172"/>
     </g>
    </g>
   </g>
   <g id="matplotlib.axis_2">
    <g id="ytick_1">
     <g id="line2d_11">
      <defs>
       <path id="m6ccb563569" d="M 0 0 
L -3.5 0 
" style="stroke: #000000; stroke-width: 0.8"/>
      </defs>
      <g>
       <use xlink:href="#m6ccb563569" x="57.6" y="282.105458" style="stroke: #000000; stroke-width: 0.8"/>
      </g>
     </g>
     <g id="text_12">
      <!-- 10 -->
      <g transform="translate(37.875 285.904677) scale(0.1 -0.1)">
       <use xlink:href="#DejaVuSans-31"/>
       <use xlink:href="#DejaVuSans-30" x="63.623047"/>
      </g>
     </g>
    </g>
    <g id="ytick_2">
     <g id="line2d_12">
      <g>
       <use xlink:href="#m6ccb563569" x="57.6" y="250.764611" style="stroke: #000000; stroke-width: 0.8"/>
      </g>
     </g>
     <g id="text_13">
      <!-- 20 -->
      <g transform="translate(37.875 254.56383) scale(0.1 -0.1)">
       <use xlink:href="#DejaVuSans-32"/>
       <use xlink:href="#DejaVuSans-30" x="63.623047"/>
      </g>
     </g>
    </g>
    <g id="ytick_3">
     <g id="line2d_13">
      <g>
       <use xlink:href="#m6ccb563569" x="57.6" y="219.423764" style="stroke: #000000; stroke-width: 0.8"/>
      </g>
     </g>
     <g id="text_14">
      <!-- 30 -->
      <g transform="translate(37.875 223.222982) scale(0.1 -0.1)">
       <use xlink:href="#DejaVuSans-33"/>
       <use xlink:href="#DejaVuSans-30" x="63.623047"/>
      </g>
     </g>
    </g>
    <g id="ytick_4">
     <g id="line2d_14">
      <g>
       <use xlink:href="#m6ccb563569" x="57.6" y="188.082916" style="stroke: #000000; stroke-width: 0.8"/>
      </g>
     </g>
     <g id="text_15">
      <!-- 40 -->
      <g transform="translate(37.875 191.882135) scale(0.1 -0.1)">
       <use xlink:href="#DejaVuSans-34"/>
       <use xlink:href="#DejaVuSans-30" x="63.623047"/>
      </g>
     </g>
    </g>
    <g id="ytick_5">
     <g id="line2d_15">
      <g>
       <use xlink:href="#m6ccb563569" x="57.6" y="156.742069" style="stroke: #000000; stroke-width: 0.8"/>
      </g>
     </g>
     <g id="text_16">
      <!-- 50 -->
      <g transform="translate(37.875 160.541288) scale(0.1 -0.1)">
       <use xlink:href="#DejaVuSans-35"/>
       <use xlink:href="#DejaVuSans-30" x="63.623047"/>
      </g>
     </g>
    </g>
    <g id="ytick_6">
     <g id="line2d_16">
      <g>
       <use xlink:href="#m6ccb563569" x="57.6" y="125.401222" style="stroke: #000000; stroke-width: 0.8"/>
      </g>
     </g>
     <g id="text_17">
      <!-- 60 -->
      <g transform="translate(37.875 129.200441) scale(0.1 -0.1)">
       <defs>
        <path id="DejaVuSans-36" d="M 2113 2584 
Q 1688 2584 1439 2293 
Q 1191 2003 1191 1497 
Q 1191 994 1439 701 
Q 1688 409 2113 409 
Q 2538 409 2786 701 
Q 3034 994 3034 1497 
Q 3034 2003 2786 2293 
Q 2538 2584 2113 2584 
z
M 3366 4563 
L 3366 3988 
Q 3128 4100 2886 4159 
Q 2644 4219 2406 4219 
Q 1781 4219 1451 3797 
Q 1122 3375 1075 2522 
Q 1259 2794 1537 2939 
Q 1816 3084 2150 3084 
Q 2853 3084 3261 2657 
Q 3669 2231 3669 1497 
Q 3669 778 3244 343 
Q 2819 -91 2113 -91 
Q 1303 -91 875 529 
Q 447 1150 447 2328 
Q 447 3434 972 4092 
Q 1497 4750 2381 4750 
Q 2619 4750 2861 4703 
Q 3103 4656 3366 4563 
z
" transform="scale(0.015625)"/>
       </defs>
       <use xlink:href="#DejaVuSans-36"/>
       <use xlink:href="#DejaVuSans-30" x="63.623047"/>
      </g>
     </g>
    </g>
    <g id="ytick_7">
     <g id="line2d_17">
      <g>
       <use xlink:href="#m6ccb563569" x="57.6" y="94.060375" style="stroke: #000000; stroke-width: 0.8"/>
      </g>
     </g>
     <g id="text_18">
      <!-- 70 -->
      <g transform="translate(37.875 97.859593) scale(0.1 -0.1)">
       <defs>
        <path id="DejaVuSans-37" d="M 525 4666 
L 3525 4666 
L 3525 4397 
L 1831 0 
L 1172 0 
L 2766 4134 
L 525 4134 
L 525 4666 
z
" transform="scale(0.015625)"/>
       </defs>
       <use xlink:href="#DejaVuSans-37"/>
       <use xlink:href="#DejaVuSans-30" x="63.623047"/>
      </g>
     </g>
    </g>
    <g id="ytick_8">
     <g id="line2d_18">
      <g>
       <use xlink:href="#m6ccb563569" x="57.6" y="62.719527" style="stroke: #000000; stroke-width: 0.8"/>
      </g>
     </g>
     <g id="text_19">
      <!-- 80 -->
      <g transform="translate(37.875 66.518746) scale(0.1 -0.1)">
       <defs>
        <path id="DejaVuSans-38" d="M 2034 2216 
Q 1584 2216 1326 1975 
Q 1069 1734 1069 1313 
Q 1069 891 1326 650 
Q 1584 409 2034 409 
Q 2484 409 2743 651 
Q 3003 894 3003 1313 
Q 3003 1734 2745 1975 
Q 2488 2216 2034 2216 
z
M 1403 2484 
Q 997 2584 770 2862 
Q 544 3141 544 3541 
Q 544 4100 942 4425 
Q 1341 4750 2034 4750 
Q 2731 4750 3128 4425 
Q 3525 4100 3525 3541 
Q 3525 3141 3298 2862 
Q 3072 2584 2669 2484 
Q 3125 2378 3379 2068 
Q 3634 1759 3634 1313 
Q 3634 634 3220 271 
Q 2806 -91 2034 -91 
Q 1263 -91 848 271 
Q 434 634 434 1313 
Q 434 1759 690 2068 
Q 947 2378 1403 2484 
z
M 1172 3481 
Q 1172 3119 1398 2916 
Q 1625 2713 2034 2713 
Q 2441 2713 2670 2916 
Q 2900 3119 2900 3481 
Q 2900 3844 2670 4047 
Q 2441 4250 2034 4250 
Q 1625 4250 1398 4047 
Q 1172 3844 1172 3481 
z
" transform="scale(0.015625)"/>
       </defs>
       <use xlink:href="#DejaVuSans-38"/>
       <use xlink:href="#DejaVuSans-30" x="63.623047"/>
      </g>
     </g>
    </g>
    <g id="text_20">
     <!-- Accuracy -->
     <g transform="translate(31.795312 197.356125) rotate(-90) scale(0.1 -0.1)">
      <defs>
       <path id="DejaVuSans-41" d="M 2188 4044 
L 1331 1722 
L 3047 1722 
L 2188 4044 
z
M 1831 4666 
L 2547 4666 
L 4325 0 
L 3669 0 
L 3244 1197 
L 1141 1197 
L 716 0 
L 50 0 
L 1831 4666 
z
" transform="scale(0.015625)"/>
       <path id="DejaVuSans-75" d="M 544 1381 
L 544 3500 
L 1119 3500 
L 1119 1403 
Q 1119 906 1312 657 
Q 1506 409 1894 409 
Q 2359 409 2629 706 
Q 2900 1003 2900 1516 
L 2900 3500 
L 3475 3500 
L 3475 0 
L 2900 0 
L 2900 538 
Q 2691 219 2414 64 
Q 2138 -91 1772 -91 
Q 1169 -91 856 284 
Q 544 659 544 1381 
z
M 1991 3584 
L 1991 3584 
z
" transform="scale(0.015625)"/>
       <path id="DejaVuSans-72" d="M 2631 2963 
Q 2534 3019 2420 3045 
Q 2306 3072 2169 3072 
Q 1681 3072 1420 2755 
Q 1159 2438 1159 1844 
L 1159 0 
L 581 0 
L 581 3500 
L 1159 3500 
L 1159 2956 
Q 1341 3275 1631 3429 
Q 1922 3584 2338 3584 
Q 2397 3584 2469 3576 
Q 2541 3569 2628 3553 
L 2631 2963 
z
" transform="scale(0.015625)"/>
       <path id="DejaVuSans-61" d="M 2194 1759 
Q 1497 1759 1228 1600 
Q 959 1441 959 1056 
Q 959 750 1161 570 
Q 1363 391 1709 391 
Q 2188 391 2477 730 
Q 2766 1069 2766 1631 
L 2766 1759 
L 2194 1759 
z
M 3341 1997 
L 3341 0 
L 2766 0 
L 2766 531 
Q 2569 213 2275 61 
Q 1981 -91 1556 -91 
Q 1019 -91 701 211 
Q 384 513 384 1019 
Q 384 1609 779 1909 
Q 1175 2209 1959 2209 
L 2766 2209 
L 2766 2266 
Q 2766 2663 2505 2880 
Q 2244 3097 1772 3097 
Q 1472 3097 1187 3025 
Q 903 2953 641 2809 
L 641 3341 
Q 956 3463 1253 3523 
Q 1550 3584 1831 3584 
Q 2591 3584 2966 3190 
Q 3341 2797 3341 1997 
z
" transform="scale(0.015625)"/>
       <path id="DejaVuSans-79" d="M 2059 -325 
Q 1816 -950 1584 -1140 
Q 1353 -1331 966 -1331 
L 506 -1331 
L 506 -850 
L 844 -850 
Q 1081 -850 1212 -737 
Q 1344 -625 1503 -206 
L 1606 56 
L 191 3500 
L 800 3500 
L 1894 763 
L 2988 3500 
L 3597 3500 
L 2059 -325 
z
" transform="scale(0.015625)"/>
      </defs>
      <use xlink:href="#DejaVuSans-41"/>
      <use xlink:href="#DejaVuSans-63" x="66.658203"/>
      <use xlink:href="#DejaVuSans-63" x="121.638672"/>
      <use xlink:href="#DejaVuSans-75" x="176.619141"/>
      <use xlink:href="#DejaVuSans-72" x="239.998047"/>
      <use xlink:href="#DejaVuSans-61" x="281.111328"/>
      <use xlink:href="#DejaVuSans-63" x="342.390625"/>
      <use xlink:href="#DejaVuSans-79" x="397.371094"/>
     </g>
    </g>
   </g>
   <g id="line2d_19">
    <path d="M 73.832727 295.488 
L 74.555789 283.114634 
L 76.001911 264.454293 
L 77.448034 245.179672 
L 78.894157 228.105178 
L 79.617218 225.704469 
L 80.340279 219.875072 
L 81.063341 218.602634 
L 82.509463 209.175307 
L 83.232525 207.583192 
L 83.955586 197.974088 
L 84.678647 198.155865 
L 85.401709 190.765693 
L 86.12477 187.462368 
L 86.847832 185.362531 
L 87.570893 180.724086 
L 88.293954 177.076011 
L 89.017016 178.58664 
L 89.740077 176.01669 
L 90.463138 171.979989 
L 91.1862 170.600992 
L 91.909261 169.974175 
L 92.632322 174.618888 
L 93.355384 165.893597 
L 94.078445 160.973084 
L 94.801506 167.842997 
L 95.524568 190.834643 
L 96.247629 193.003429 
L 96.97069 187.224177 
L 97.693752 192.063204 
L 98.416813 184.585278 
L 99.139874 183.450739 
L 99.862936 180.805572 
L 100.585997 182.993163 
L 101.309059 183.801757 
L 102.03212 172.174302 
L 102.755181 169.290944 
L 103.478243 176.474267 
L 104.201304 175.960277 
L 104.924365 170.582187 
L 105.647427 174.963638 
L 106.370488 168.413401 
L 107.093549 167.379153 
L 107.816611 161.66885 
L 108.539672 170.412947 
L 109.262733 152.742977 
L 109.985795 159.387237 
L 110.708856 163.298574 
L 112.154979 152.717904 
L 112.87804 152.849536 
L 113.601101 148.881785 
L 114.324163 153.940197 
L 115.047224 152.072283 
L 115.770285 146.56883 
L 116.493347 150.624336 
L 117.216408 147.095356 
L 117.93947 144.337362 
L 118.662531 148.173482 
L 119.385592 141.773681 
L 120.108654 141.253422 
L 120.831715 146.393321 
L 122.277838 138.639596 
L 123.000899 139.937107 
L 123.72396 131.042574 
L 124.447022 138.783764 
L 125.170083 134.370972 
L 125.893144 134.396045 
L 126.616206 130.13369 
L 127.339267 130.735434 
L 128.062328 134.032491 
L 128.78539 133.512233 
L 129.508451 125.908944 
L 130.231512 127.933562 
L 130.954574 127.457182 
L 131.677635 127.507327 
L 132.400696 121.721806 
L 133.123758 125.802385 
L 133.846819 127.262868 
L 134.569881 126.755147 
L 135.292942 118.813376 
L 136.016003 117.979709 
L 136.739065 122.505328 
L 137.462126 120.004328 
L 138.185187 126.792756 
L 138.908249 153.432476 
L 139.63131 155.287854 
L 140.354371 154.755059 
L 141.077433 151.959456 
L 141.800494 153.470085 
L 142.523555 157.619613 
L 143.246617 155.726626 
L 143.969678 154.99325 
L 144.692739 152.247792 
L 145.415801 150.455095 
L 146.138862 150.699554 
L 146.861923 141.454004 
L 147.584985 151.213544 
L 148.308046 148.298845 
L 149.031108 148.129604 
L 149.754169 148.806567 
L 150.47723 144.813743 
L 151.200292 141.579367 
L 151.923353 145.766504 
L 152.646414 141.291031 
L 153.369476 143.998881 
L 154.092537 140.8836 
L 154.815598 142.206184 
L 155.53866 141.184473 
L 156.261721 143.133873 
L 156.984782 140.85226 
L 157.707844 133.18002 
L 158.430905 132.101895 
L 159.153966 140.990159 
L 159.877028 129.632236 
L 160.600089 135.593265 
L 161.32315 138.476623 
L 162.046212 138.595719 
L 162.769273 131.957727 
L 163.492334 139.122245 
L 164.215396 136.959726 
L 164.938457 134.383509 
L 165.661519 137.454912 
L 166.38458 139.673844 
L 167.107641 135.16703 
L 167.830703 140.018593 
L 168.553764 129.7576 
L 169.999887 135.530584 
L 170.722948 131.362251 
L 171.446009 126.096989 
L 172.169071 143.265505 
L 172.892132 123.827911 
L 173.615193 121.251694 
L 174.338255 126.147134 
L 175.061316 126.617247 
L 175.784377 122.229528 
L 176.507439 121.840902 
L 177.2305 118.681744 
L 177.953561 120.844263 
L 178.676623 127.281673 
L 179.399684 119.709724 
L 180.122745 125.037668 
L 180.845807 121.64032 
L 181.568868 116.74488 
L 182.29193 124.974986 
L 183.014991 121.70927 
L 183.738052 116.870243 
L 184.461114 114.657579 
L 185.184175 121.934924 
L 185.907236 111.799294 
L 186.630298 117.459451 
L 187.353359 114.82682 
L 188.07642 118.750694 
L 188.799482 132.064286 
L 189.522543 109.843625 
L 190.245604 114.657579 
L 190.968666 113.485432 
L 191.691727 106.433741 
L 192.414788 108.307924 
L 193.13785 111.912121 
L 193.860911 109.335904 
L 194.583972 108.671478 
L 195.307034 100.221985 
L 196.030095 107.229799 
L 196.753157 101.387865 
L 197.476218 102.177654 
L 198.199279 101.431742 
L 199.645402 106.928927 
L 200.368463 109.354708 
L 201.091525 99.952454 
L 201.814586 104.296295 
L 202.537647 97.219532 
L 203.260709 103.738428 
L 203.98377 106.822368 
L 204.706831 97.313555 
L 205.429893 100.610612 
L 206.152954 92.907031 
L 206.876015 107.010413 
L 207.599077 102.854616 
L 208.322138 96.479888 
L 209.045199 103.431288 
L 209.768261 99.200274 
L 210.491322 105.556197 
L 211.214383 93.402217 
L 211.937445 101.732614 
L 213.383568 91.101799 
L 214.106629 92.418114 
L 214.82969 100.34108 
L 215.552752 98.335266 
L 216.275813 104.716263 
L 216.998874 93.866061 
L 217.721936 106.16421 
L 218.444997 95.470713 
L 219.168058 105.487248 
L 219.89112 91.879052 
L 220.614181 96.348257 
L 221.337242 98.893133 
L 222.060304 89.672656 
L 222.783365 86.519767 
L 223.506426 98.178562 
L 224.229488 91.471621 
L 224.952549 95.125963 
L 225.67561 134.784672 
L 226.398672 133.562379 
L 227.121733 131.224351 
L 227.844794 135.016594 
L 228.567856 123.878057 
L 229.290917 136.26396 
L 230.013979 130.484707 
L 230.73704 129.143319 
L 231.460101 134.477531 
L 232.183163 126.203548 
L 232.906224 129.531946 
L 233.629285 126.980801 
L 234.352347 130.196372 
L 235.075408 128.28458 
L 235.798469 129.143319 
L 236.521531 129.111978 
L 237.244592 127.638958 
L 237.967653 123.48943 
L 238.690715 132.42784 
L 239.413776 125.0314 
L 240.136837 127.883417 
L 240.859899 130.121154 
L 241.58296 128.109071 
L 242.306021 132.227258 
L 243.029083 123.533307 
L 243.752144 125.846262 
L 244.475206 122.46145 
L 245.198267 122.455182 
L 245.921328 122.969172 
L 247.367451 128.955274 
L 248.090512 123.93447 
L 248.813574 126.974532 
L 249.536635 130.841993 
L 250.259696 124.028493 
L 250.982758 123.771498 
L 251.705819 123.677475 
L 252.42888 126.567101 
L 253.151942 127.90849 
L 253.875003 114.651311 
L 254.598064 127.63269 
L 255.321126 123.796571 
L 256.044187 130.597534 
L 256.767248 114.551021 
L 257.49031 129.005419 
L 258.213371 117.290211 
L 258.936432 120.574731 
L 259.659494 127.801931 
L 260.382555 118.224168 
L 261.105617 122.793663 
L 261.828678 116.067918 
L 262.551739 122.919027 
L 263.274801 118.261777 
L 263.997862 124.617701 
L 264.720923 120.81919 
L 265.443985 126.015503 
L 266.167046 124.812014 
L 266.890107 120.731436 
L 267.613169 120.430564 
L 268.33623 117.434379 
L 269.059291 125.018864 
L 269.782353 114.037031 
L 270.505414 120.154764 
L 271.228475 114.287757 
L 271.951537 114.500875 
L 272.674598 113.968081 
L 273.397659 120.581 
L 274.120721 113.830181 
L 274.843782 118.468627 
L 275.566843 116.625785 
L 276.289905 115.290665 
L 277.012966 115.848532 
L 278.459089 113.25351 
L 279.18215 118.813376 
L 280.628273 103.21817 
L 281.351334 114.030763 
L 282.074396 122.887686 
L 282.797457 118.261777 
L 283.520518 109.755871 
L 284.24358 120.424295 
L 284.966641 108.702818 
L 285.689702 114.037031 
L 286.412764 109.994061 
L 287.858886 111.141136 
L 288.581948 116.293572 
L 289.305009 112.589084 
L 290.02807 125.927748 
L 290.751132 109.260686 
L 291.474193 107.405307 
L 292.197255 107.424112 
L 292.920316 113.134414 
L 293.643377 105.34308 
L 294.366439 107.718716 
L 295.0895 106.239428 
L 295.812561 107.236067 
L 296.535623 111.222623 
L 297.258684 107.493062 
L 297.981745 111.003237 
L 298.704807 109.473803 
L 299.427868 102.954907 
L 300.150929 104.753872 
L 300.873991 104.847894 
L 301.597052 105.061012 
L 302.320113 118.982616 
L 303.043175 109.93138 
L 303.766236 108.640137 
L 304.489297 107.975711 
L 305.212359 105.123694 
L 305.93542 105.662756 
L 306.658481 107.267408 
L 307.381543 112.501329 
L 308.104604 110.896678 
L 308.827666 113.128146 
L 309.550727 103.744696 
L 310.273788 113.278582 
L 310.99685 106.740881 
L 311.719911 108.000784 
L 312.442972 106.126601 
L 313.166034 97.720986 
L 313.889095 110.175838 
L 314.612156 105.06728 
L 315.335218 102.146313 
L 316.058279 110.708633 
L 316.78134 105.831997 
L 317.504402 103.650674 
L 318.227463 98.774038 
L 318.950524 108.076002 
L 319.673586 97.57055 
L 320.396647 101.626055 
L 321.119708 93.132686 
L 321.84277 91.653398 
L 322.565831 95.082086 
L 323.288892 95.30774 
L 324.011954 100.710902 
L 324.735015 99.676654 
L 325.458077 101.632323 
L 326.181138 93.97262 
L 326.904199 88.93928 
L 327.627261 103.782305 
L 328.350322 98.297657 
L 329.073383 99.018497 
L 329.796445 90.61915 
L 330.519506 101.569642 
L 331.242567 99.626509 
L 331.965629 99.845895 
L 332.68869 93.08254 
L 333.411751 91.81637 
L 334.134813 101.193551 
L 334.857874 83.824454 
L 335.580935 93.076272 
L 336.303997 99.720532 
L 337.027058 100.071549 
L 337.750119 85.75505 
L 338.473181 91.039117 
L 339.196242 94.398856 
L 339.919304 91.23343 
L 340.642365 91.791297 
L 341.365426 99.802018 
L 342.088488 93.602798 
L 342.811549 91.421475 
L 344.257672 98.999692 
L 344.980733 98.147221 
L 345.703794 88.130686 
L 346.426856 87.422383 
L 347.149917 91.13314 
L 347.872978 87.115243 
L 348.59604 97.846349 
L 349.319101 91.446548 
L 350.042162 93.276853 
L 350.765224 87.861155 
L 351.488285 88.099346 
L 352.211346 89.641315 
L 352.934408 93.258049 
L 353.657469 90.023674 
L 354.38053 93.019859 
L 355.103592 83.648945 
L 355.826653 96.40467 
L 356.549715 80.853342 
L 357.995837 92.342896 
L 358.718899 87.253143 
L 359.44196 89.823092 
L 360.165021 94.405124 
L 360.888083 84.633048 
L 361.611144 88.068005 
L 362.334205 88.676017 
L 363.057267 84.701998 
L 363.780328 89.472075 
L 364.503389 79.975798 
L 365.226451 79.775216 
L 365.949512 80.784392 
L 366.672573 77.318094 
L 367.395635 85.084356 
L 368.118696 77.217803 
L 368.841757 82.733792 
L 370.28788 85.824 
L 371.010941 81.661935 
L 371.734003 84.607975 
L 372.457064 83.811918 
L 373.180126 83.918476 
L 373.903187 80.06982 
L 374.626248 77.487335 
L 375.34931 80.552469 
L 376.072371 84.413662 
L 376.795432 79.24869 
L 377.518494 88.400218 
L 378.241555 87.986518 
L 378.964616 76.910663 
L 379.687678 91.020312 
L 380.410739 87.271947 
L 381.1338 87.391042 
L 381.856862 72.942912 
L 382.579923 85.58581 
L 383.302984 77.800743 
L 384.026046 75.769856 
L 384.749107 84.539025 
L 385.472168 78.603069 
L 386.19523 86.012045 
L 386.918291 76.88559 
L 387.641353 79.236154 
L 388.364414 86.638862 
L 389.087475 83.235246 
L 389.810537 82.157121 
L 390.533598 80.72171 
L 391.256659 75.224525 
L 391.979721 83.492241 
L 392.702782 76.13341 
L 393.425843 77.017222 
L 394.148905 79.649853 
L 394.871966 91.634593 
L 395.595027 80.408302 
L 396.318089 79.856703 
L 397.04115 84.18174 
L 397.764211 79.211081 
L 398.487273 77.324362 
L 398.487273 77.324362 
" clip-path="url(#pdadc9e6c8c)" style="fill: none; stroke: #1f77b4; stroke-width: 1.5; stroke-linecap: square"/>
   </g>
   <g id="line2d_20">
    <path d="M 73.832727 283.29641 
L 74.555789 267.657328 
L 75.27885 246.721642 
L 76.001911 234.09128 
L 76.724973 213.719729 
L 77.448034 215.036045 
L 78.171095 202.969819 
L 78.894157 187.11135 
L 79.617218 178.712003 
L 80.340279 177.552392 
L 81.063341 163.605715 
L 81.786402 163.166943 
L 83.232525 150.567922 
L 83.955586 149.75306 
L 84.678647 139.473262 
L 85.401709 134.082637 
L 86.12477 134.082637 
L 86.847832 130.384417 
L 87.570893 122.047751 
L 88.293954 122.047751 
L 89.740077 116.500421 
L 90.463138 117.377965 
L 91.1862 113.617063 
L 91.909261 113.178291 
L 92.632322 110.263593 
L 93.355384 110.232252 
L 94.078445 108.790573 
L 94.801506 109.918843 
L 95.524568 144.644502 
L 96.247629 139.191195 
L 96.97069 138.627059 
L 97.693752 135.116885 
L 98.416813 129.663577 
L 99.139874 129.882963 
L 99.862936 121.201548 
L 100.585997 122.643227 
L 101.309059 123.050658 
L 102.755181 115.372151 
L 103.478243 117.315283 
L 104.924365 111.987339 
L 105.647427 106.032578 
L 106.370488 104.24615 
L 107.093549 108.195097 
L 107.816611 107.474257 
L 108.539672 102.02095 
L 109.262733 105.437102 
L 109.985795 100.892679 
L 110.708856 97.94664 
L 111.431917 97.695913 
L 112.154979 94.812555 
L 112.87804 94.373783 
L 113.601101 94.342442 
L 114.324163 91.239698 
L 115.047224 94.593169 
L 115.770285 92.05456 
L 116.493347 91.991879 
L 117.216408 89.45327 
L 117.93947 89.139862 
L 118.662531 85.284937 
L 119.385592 85.661028 
L 120.108654 85.284937 
L 120.831715 83.561191 
L 121.554776 83.843258 
L 122.277838 83.15376 
L 123.000899 80.834537 
L 123.72396 82.307557 
L 124.447022 82.714988 
L 125.170083 78.577996 
L 125.893144 78.076543 
L 126.616206 76.88559 
L 127.339267 74.597709 
L 128.062328 77.951179 
L 128.78539 76.196092 
L 129.508451 74.817094 
L 130.231512 74.2843 
L 130.954574 75.75732 
L 131.677635 74.346982 
L 132.400696 74.503686 
L 133.846819 73.53212 
L 134.569881 74.096255 
L 135.292942 73.438097 
L 136.016003 73.438097 
L 136.739065 73.124689 
L 137.462126 73.030666 
L 138.185187 73.18737 
L 138.908249 101.425474 
L 139.63131 104.778944 
L 140.354371 101.582178 
L 141.077433 102.835812 
L 141.800494 98.385412 
L 142.523555 96.787028 
L 143.246617 99.012229 
L 143.969678 93.558921 
L 144.692739 91.490425 
L 145.415801 95.063282 
L 146.138862 94.279761 
L 146.861923 86.13114 
L 147.584985 90.644222 
L 148.308046 91.521766 
L 149.031108 90.299473 
L 149.754169 88.168295 
L 150.47723 89.609974 
L 151.200292 87.22807 
L 151.923353 91.051653 
L 152.646414 88.638408 
L 153.369476 86.663935 
L 154.092537 85.410301 
L 154.815598 86.444549 
L 155.53866 85.159574 
L 156.261721 87.071366 
L 156.984782 83.90594 
L 157.707844 86.883321 
L 158.430905 81.994148 
L 159.153966 83.937281 
L 159.877028 82.80901 
L 160.600089 81.962808 
L 161.32315 83.52985 
L 162.046212 81.994148 
L 162.769273 82.746329 
L 163.492334 81.868785 
L 164.215396 79.956993 
L 164.938457 76.572182 
L 165.661519 77.449726 
L 166.38458 82.558284 
L 167.107641 78.35861 
L 167.830703 79.45554 
L 168.553764 75.287207 
L 169.276825 77.794475 
L 169.999887 78.107883 
L 170.722948 77.731793 
L 171.446009 81.241968 
L 172.169071 77.763134 
L 173.615193 76.13341 
L 174.338255 77.355703 
L 175.061316 75.976706 
L 175.784377 76.196092 
L 177.2305 71.996418 
L 177.953561 74.723072 
L 178.676623 72.341168 
L 179.399684 74.535027 
L 180.122745 73.469438 
L 180.845807 70.178649 
L 181.568868 72.43519 
L 182.29193 71.212897 
L 183.014991 71.557646 
L 183.738052 69.238424 
L 184.461114 67.734063 
L 185.907236 70.930829 
L 186.630298 70.272672 
L 187.353359 70.178649 
L 188.07642 67.546018 
L 189.522543 66.51177 
L 190.245604 67.577359 
L 190.968666 67.26395 
L 191.691727 67.483336 
L 192.414788 67.922108 
L 193.13785 66.981883 
L 193.860911 65.602885 
L 194.583972 66.261043 
L 195.307034 64.223888 
L 196.030095 65.195454 
L 197.476218 63.722435 
L 198.199279 64.067184 
L 198.922341 63.973161 
L 199.645402 62.468801 
L 200.368463 64.599978 
L 201.091525 62.280756 
L 201.814586 63.534389 
L 202.537647 61.591257 
L 203.260709 61.403212 
L 203.98377 61.089803 
L 204.706831 60.901758 
L 205.429893 61.058462 
L 206.152954 61.058462 
L 206.876015 60.306282 
L 207.599077 61.121144 
L 208.322138 60.557009 
L 209.045199 61.371871 
L 209.768261 59.773488 
L 210.491322 60.149578 
L 211.214383 60.055555 
L 211.937445 59.397398 
L 212.660506 59.021307 
L 213.383568 58.457172 
L 214.106629 59.303375 
L 214.82969 58.770581 
L 215.552752 58.645217 
L 216.275813 58.895944 
L 216.998874 58.175105 
L 217.721936 58.269127 
L 218.444997 58.582536 
L 219.168058 57.924378 
L 221.337242 58.269127 
L 222.060304 57.767674 
L 222.783365 57.955719 
L 223.506426 57.64231 
L 224.229488 57.767674 
L 224.952549 57.673651 
L 225.67561 83.435827 
L 226.398672 86.663935 
L 227.121733 81.147946 
L 227.844794 87.102707 
L 228.567856 81.68074 
L 229.290917 86.444549 
L 230.013979 78.7347 
L 230.73704 84.28203 
L 232.183163 81.586717 
L 232.906224 81.022582 
L 233.629285 86.601253 
L 234.352347 79.267495 
L 235.075408 81.586717 
L 235.798469 82.77767 
L 236.521531 78.577996 
L 237.244592 78.985427 
L 237.967653 79.768948 
L 238.690715 75.725979 
L 239.413776 80.646492 
L 240.136837 79.706267 
L 240.859899 78.389951 
L 241.58296 78.076543 
L 242.306021 76.88559 
L 243.029083 78.828723 
L 243.752144 78.985427 
L 244.475206 82.401579 
L 245.198267 77.669112 
L 245.921328 79.298836 
L 246.64439 77.167658 
L 247.367451 79.706267 
L 248.813574 76.196092 
L 249.536635 77.763134 
L 250.982758 74.409663 
L 251.705819 76.070728 
L 252.42888 78.640678 
L 253.151942 76.728886 
L 254.598064 79.298836 
L 256.044187 75.694638 
L 256.767248 75.099162 
L 257.49031 77.575089 
L 258.213371 74.848435 
L 258.936432 73.375415 
L 259.659494 75.193185 
L 260.382555 77.355703 
L 261.105617 74.817094 
L 261.828678 75.851342 
L 262.551739 76.415478 
L 263.274801 74.942458 
L 263.997862 70.554739 
L 264.720923 75.537934 
L 265.443985 77.794475 
L 266.167046 72.936644 
L 266.890107 70.805466 
L 267.613169 71.996418 
L 268.33623 72.497872 
L 269.059291 74.190277 
L 269.782353 73.845528 
L 270.505414 74.723072 
L 271.228475 74.785754 
L 271.951537 70.304012 
L 272.674598 75.318548 
L 273.397659 69.11306 
L 274.120721 74.127596 
L 274.843782 73.814187 
L 275.566843 74.127596 
L 276.289905 76.85425 
L 277.012966 69.45781 
L 277.736028 73.814187 
L 278.459089 73.751506 
L 279.18215 69.45781 
L 279.905212 70.554739 
L 280.628273 71.432283 
L 281.351334 73.751506 
L 282.074396 69.583173 
L 282.797457 69.363787 
L 283.520518 72.685917 
L 284.24358 66.386407 
L 284.966641 74.033573 
L 285.689702 71.902396 
L 286.412764 72.623235 
L 287.135825 70.648762 
L 287.858886 70.021945 
L 288.581948 72.341168 
L 289.305009 69.865241 
L 290.02807 69.363787 
L 290.751132 70.084627 
L 291.474193 69.426469 
L 292.197255 70.241331 
L 292.920316 69.8339 
L 293.643377 70.460717 
L 295.812561 66.825178 
L 296.535623 72.43519 
L 297.981745 66.731156 
L 298.704807 70.492058 
L 299.427868 69.551832 
L 300.150929 68.862333 
L 300.873991 68.329539 
L 301.597052 66.229702 
L 302.320113 65.634226 
L 303.043175 67.326632 
L 303.766236 67.702722 
L 304.489297 66.543111 
L 305.212359 69.050379 
L 305.93542 65.853612 
L 306.658481 68.141494 
L 307.381543 67.577359 
L 308.104604 69.865241 
L 308.827666 68.392221 
L 309.550727 67.859426 
L 310.273788 66.355066 
L 310.99685 66.88786 
L 311.719911 65.696908 
L 312.442972 66.699815 
L 313.166034 69.081719 
L 313.889095 68.987697 
L 314.612156 64.474615 
L 315.335218 66.323725 
L 316.058279 65.320818 
L 316.78134 66.386407 
L 317.504402 65.696908 
L 318.227463 64.004502 
L 318.950524 66.574452 
L 320.396647 63.471708 
L 321.119708 64.756682 
L 322.565831 62.844891 
L 323.288892 64.223888 
L 324.735015 62.782209 
L 325.458077 62.43746 
L 326.904199 64.255229 
L 327.627261 64.631319 
L 328.350322 65.508863 
L 329.073383 64.129866 
L 329.796445 65.289477 
L 330.519506 59.303375 
L 331.242567 60.995781 
L 331.965629 63.440367 
L 333.411751 62.594164 
L 334.134813 61.403212 
L 334.857874 61.152485 
L 335.580935 60.462986 
L 336.303997 61.277848 
L 337.027058 62.312096 
L 337.750119 61.622598 
L 338.473181 60.337623 
L 339.196242 62.468801 
L 339.919304 59.554102 
L 340.642365 60.400305 
L 341.365426 62.312096 
L 342.811549 59.303375 
L 343.53461 60.776395 
L 344.257672 60.651031 
L 344.980733 59.616784 
L 347.149917 60.901758 
L 347.872978 60.58835 
L 348.59604 59.49142 
L 349.319101 59.710806 
L 350.042162 58.39449 
L 350.765224 58.582536 
L 351.488285 57.485606 
L 352.211346 58.488513 
L 353.657469 59.209353 
L 354.38053 59.052648 
L 355.103592 56.733426 
L 355.826653 57.579628 
L 356.549715 57.579628 
L 357.272776 59.083989 
L 357.995837 58.206445 
L 358.718899 56.263313 
L 359.44196 56.89013 
L 360.165021 56.702085 
L 360.888083 55.636496 
L 361.611144 57.924378 
L 362.334205 56.451358 
L 363.057267 57.736333 
L 363.780328 56.733426 
L 365.949512 56.388676 
L 367.395635 56.639403 
L 368.118696 56.075268 
L 368.841757 55.949904 
L 369.564819 56.608062 
L 370.28788 55.730518 
L 371.010941 55.385769 
L 371.734003 55.479792 
L 372.457064 56.54538 
L 373.180126 56.075268 
L 373.903187 54.915656 
L 374.626248 55.636496 
L 375.34931 56.137949 
L 376.072371 56.294654 
L 376.795432 56.670744 
L 377.518494 54.852975 
L 378.241555 54.884316 
L 378.964616 54.633589 
L 379.687678 55.354428 
L 380.410739 55.636496 
L 381.1338 54.288839 
L 381.856862 53.724704 
L 382.579923 55.135042 
L 383.302984 54.915656 
L 384.026046 54.539566 
L 384.749107 54.915656 
L 385.472168 55.009679 
L 386.19523 54.288839 
L 386.918291 54.508225 
L 387.641353 54.382862 
L 388.364414 54.038113 
L 389.087475 54.351521 
L 390.533598 53.787386 
L 391.256659 54.602248 
L 391.979721 53.881408 
L 392.702782 54.633589 
L 393.425843 53.94409 
L 394.148905 54.288839 
L 394.871966 53.787386 
L 395.595027 54.226158 
L 396.318089 53.568 
L 397.764211 54.32018 
L 398.487273 54.382862 
L 398.487273 54.382862 
" clip-path="url(#pdadc9e6c8c)" style="fill: none; stroke: #ff7f0e; stroke-width: 1.5; stroke-linecap: square"/>
   </g>
   <g id="line2d_21">
    <path d="M 73.832727 280.95995 
L 74.555789 268.477593 
L 75.27885 242.605183 
L 76.001911 237.039481 
L 76.724973 226.383593 
L 77.448034 221.1313 
L 78.171095 213.987748 
L 79.617218 190.211933 
L 80.340279 203.202173 
L 81.063341 190.438884 
L 81.786402 189.228478 
L 82.509463 181.987662 
L 83.232525 173.125767 
L 83.955586 182.538829 
L 84.678647 183.619548 
L 85.401709 172.120699 
L 86.12477 173.720163 
L 86.847832 165.420242 
L 87.570893 165.474278 
L 88.293954 163.291226 
L 89.017016 165.247327 
L 89.740077 156.796105 
L 90.463138 158.536063 
L 91.1862 154.47256 
L 91.909261 154.569824 
L 93.355384 154.35368 
L 94.078445 153.975429 
L 94.801506 154.883233 
L 95.524568 179.696538 
L 96.247629 176.389538 
L 96.97069 177.816087 
L 97.693752 180.096404 
L 98.416813 168.867735 
L 99.139874 173.125767 
L 99.862936 163.896428 
L 100.585997 171.375003 
L 101.309059 159.908575 
L 102.03212 153.878164 
L 102.755181 154.494174 
L 103.478243 164.523245 
L 104.201304 154.213187 
L 104.924365 159.714046 
L 105.647427 146.637348 
L 106.370488 155.51005 
L 107.093549 149.447217 
L 107.816611 151.219596 
L 108.539672 148.258426 
L 109.262733 150.722465 
L 109.985795 152.116592 
L 110.708856 145.805194 
L 111.431917 142.82241 
L 112.87804 140.455636 
L 113.601101 142.74676 
L 114.324163 142.465773 
L 115.047224 148.658292 
L 115.770285 140.13142 
L 116.493347 141.071646 
L 117.216408 140.153035 
L 117.93947 135.36545 
L 118.662531 135.268185 
L 119.385592 130.67513 
L 120.108654 135.592401 
L 121.554776 132.977061 
L 122.277838 132.490738 
L 123.000899 134.792669 
L 123.72396 131.604548 
L 124.447022 134.500875 
L 125.170083 128.32997 
L 125.893144 127.98414 
L 126.616206 129.281003 
L 128.062328 126.665663 
L 128.78539 128.956787 
L 129.508451 126.233375 
L 130.231512 126.557591 
L 130.954574 130.232035 
L 131.677635 125.747052 
L 132.400696 124.558261 
L 133.123758 124.763598 
L 133.846819 122.688618 
L 134.569881 124.655526 
L 135.292942 124.071938 
L 136.016003 124.190817 
L 136.739065 124.082745 
L 137.462126 123.012833 
L 138.185187 123.618036 
L 138.908249 149.058158 
L 139.63131 151.035874 
L 140.354371 149.987576 
L 141.077433 151.187174 
L 141.800494 147.85856 
L 142.523555 146.561697 
L 143.246617 150.257756 
L 143.969678 137.472852 
L 144.692739 142.55223 
L 145.415801 140.379985 
L 146.138862 140.531286 
L 146.861923 140.542093 
L 147.584985 136.121953 
L 148.308046 148.236812 
L 149.031108 140.531286 
L 149.754169 143.816671 
L 150.47723 132.285401 
L 151.200292 137.613345 
L 151.923353 145.913266 
L 152.646414 142.584652 
L 153.369476 138.088861 
L 154.092537 138.272584 
L 154.815598 140.20707 
L 155.53866 139.147966 
L 156.261721 138.607607 
L 156.984782 138.964244 
L 157.707844 140.153035 
L 158.430905 129.000016 
L 159.153966 137.28913 
L 159.877028 133.355313 
L 160.600089 133.809215 
L 161.32315 135.895002 
L 162.046212 136.954107 
L 162.769273 135.354643 
L 163.492334 136.521819 
L 164.215396 133.420156 
L 164.938457 133.863251 
L 165.661519 133.312084 
L 166.38458 135.505943 
L 167.107641 129.075666 
L 167.830703 132.966254 
L 168.553764 127.822032 
L 169.276825 129.44311 
L 169.999887 128.956787 
L 170.722948 138.575185 
L 171.446009 134.392803 
L 172.169071 131.809885 
L 172.892132 132.544774 
L 173.615193 133.733564 
L 174.338255 129.659254 
L 175.061316 133.874058 
L 176.507439 125.63898 
L 177.2305 128.05979 
L 177.953561 125.476872 
L 178.676623 126.60082 
L 179.399684 126.017232 
L 180.122745 126.395483 
L 181.568868 124.071938 
L 182.29193 123.520771 
L 183.014991 120.883817 
L 183.738052 127.173601 
L 184.461114 124.385346 
L 185.184175 121.132382 
L 185.907236 124.666333 
L 186.630298 124.158395 
L 187.353359 126.233375 
L 188.07642 115.447801 
L 188.799482 117.976683 
L 189.522543 119.770677 
L 190.245604 116.388027 
L 190.968666 117.166144 
L 191.691727 115.707174 
L 192.414788 120.084085 
L 193.13785 118.884487 
L 193.860911 114.25901 
L 194.583972 114.972285 
L 195.307034 115.101971 
L 196.030095 116.236726 
L 196.753157 119.803098 
L 197.476218 118.625115 
L 198.199279 115.274886 
L 199.645402 117.695696 
L 201.091525 112.746004 
L 201.814586 115.350536 
L 202.537647 114.831791 
L 203.260709 115.609909 
L 203.98377 113.286363 
L 204.706831 110.562952 
L 205.429893 113.643001 
L 206.152954 115.101971 
L 206.876015 114.204974 
L 207.599077 112.540667 
L 208.322138 113.675422 
L 209.045199 114.572419 
L 209.768261 111.384298 
L 210.491322 112.983762 
L 211.214383 113.470086 
L 211.937445 111.784164 
L 212.660506 113.556543 
L 213.383568 111.103311 
L 214.106629 112.400174 
L 214.82969 111.211383 
L 215.552752 110.671024 
L 216.275813 110.552145 
L 216.998874 111.41672 
L 217.721936 110.616988 
L 218.444997 110.854746 
L 219.168058 112.302909 
L 219.89112 111.589635 
L 220.614181 112.497439 
L 221.337242 111.773357 
L 222.060304 110.562952 
L 222.783365 110.357615 
L 223.506426 111.773357 
L 224.229488 112.086765 
L 224.952549 112.054344 
L 225.67561 142.584652 
L 226.398672 136.47859 
L 227.121733 135.008813 
L 227.844794 138.153705 
L 228.567856 135.300607 
L 229.290917 127.98414 
L 230.013979 130.048313 
L 230.73704 136.219218 
L 231.460101 131.539705 
L 232.183163 136.878456 
L 232.906224 136.424554 
L 233.629285 141.70927 
L 234.352347 132.425895 
L 235.075408 134.014551 
L 235.798469 136.716348 
L 236.521531 131.842306 
L 237.244592 129.486339 
L 237.967653 132.739303 
L 238.690715 129.29181 
L 239.413776 134.176659 
L 240.136837 136.813613 
L 240.859899 131.172261 
L 241.58296 135.246571 
L 242.306021 128.848715 
L 243.752144 126.849385 
L 244.475206 137.310744 
L 245.198267 138.510342 
L 245.921328 135.938231 
L 246.64439 130.123963 
L 247.367451 129.356653 
L 248.090512 135.992267 
L 248.813574 127.735575 
L 249.536635 131.885535 
L 250.259696 126.481941 
L 250.982758 129.043245 
L 251.705819 132.350244 
L 252.42888 130.556251 
L 253.151942 125.455258 
L 253.875003 125.476872 
L 254.598064 127.195215 
L 255.321126 125.919967 
L 256.044187 126.190147 
L 256.767248 123.564 
L 258.213371 125.574137 
L 258.936432 124.558261 
L 259.659494 126.871 
L 260.382555 130.426565 
L 261.105617 131.312754 
L 261.828678 128.989209 
L 262.551739 131.410019 
L 263.274801 127.270866 
L 263.997862 120.732516 
L 264.720923 128.902751 
L 265.443985 132.080065 
L 266.890107 117.403902 
L 267.613169 126.352255 
L 268.33623 125.012163 
L 269.059291 125.444451 
L 269.782353 119.446461 
L 270.505414 126.017232 
L 271.228475 125.087813 
L 271.951537 128.373199 
L 272.674598 129.972663 
L 273.397659 121.586284 
L 274.120721 132.242172 
L 274.843782 126.687277 
L 275.566843 128.178669 
L 276.289905 122.645389 
L 277.012966 113.848337 
L 277.736028 121.899693 
L 278.459089 127.746382 
L 279.905212 117.825383 
L 280.628273 123.844987 
L 281.351334 127.400552 
L 282.074396 117.674082 
L 282.797457 120.559601 
L 283.520518 125.412029 
L 284.24358 118.819644 
L 284.966641 130.621094 
L 285.689702 121.856464 
L 286.412764 123.29382 
L 287.135825 122.083415 
L 287.858886 124.709562 
L 288.581948 123.564 
L 289.305009 123.63965 
L 290.02807 122.634582 
L 290.751132 121.391755 
L 291.474193 116.87435 
L 292.197255 126.06046 
L 292.920316 123.056062 
L 293.643377 127.0223 
L 294.366439 121.770007 
L 295.0895 123.920637 
L 295.812561 118.052334 
L 296.535623 128.654186 
L 297.258684 117.349866 
L 297.981745 112.129994 
L 298.704807 127.854454 
L 299.427868 117.068879 
L 300.873991 120.991889 
L 301.597052 112.270488 
L 302.320113 119.284353 
L 303.043175 119.414039 
L 303.766236 114.550804 
L 304.489297 116.506906 
L 305.212359 125.487679 
L 305.93542 119.089824 
L 306.658481 115.739595 
L 307.381543 119.241124 
L 308.104604 125.703823 
L 308.827666 127.551852 
L 309.550727 117.706504 
L 310.273788 115.674752 
L 310.99685 118.398164 
L 311.719911 118.149598 
L 312.442972 109.406583 
L 313.166034 125.887545 
L 313.889095 115.944932 
L 314.612156 116.409641 
L 315.335218 120.440722 
L 316.058279 118.4522 
L 316.78134 119.662605 
L 317.504402 118.668343 
L 318.227463 113.556543 
L 318.950524 116.161076 
L 319.673586 117.166144 
L 320.396647 111.589635 
L 321.119708 117.674082 
L 321.84277 115.696366 
L 322.565831 106.920929 
L 323.288892 112.821654 
L 324.011954 114.918249 
L 324.735015 114.334661 
L 325.458077 114.918249 
L 326.181138 114.842599 
L 326.904199 116.042196 
L 327.627261 117.922647 
L 328.350322 116.085425 
L 329.073383 116.333991 
L 329.796445 117.403902 
L 330.519506 114.669684 
L 331.242567 114.302239 
L 331.965629 117.403902 
L 332.68869 112.021922 
L 333.411751 111.816586 
L 334.134813 111.438334 
L 334.857874 110.249543 
L 335.580935 108.509586 
L 336.303997 109.719991 
L 337.027058 113.805108 
L 337.750119 109.903713 
L 338.473181 109.41739 
L 339.196242 110.411651 
L 339.919304 112.151609 
L 340.642365 113.297171 
L 341.365426 115.242465 
L 342.088488 111.189769 
L 342.811549 110.238736 
L 343.53461 107.83954 
L 344.257672 111.600442 
L 344.980733 110.671024 
L 345.703794 109.482233 
L 346.426856 110.173893 
L 347.149917 115.06955 
L 347.872978 110.465687 
L 348.59604 108.088106 
L 349.319101 109.49304 
L 350.042162 104.921599 
L 350.765224 106.693978 
L 351.488285 110.941203 
L 352.934408 113.297171 
L 353.657469 110.843939 
L 354.38053 110.984432 
L 355.103592 110.400844 
L 355.826653 109.039138 
L 356.549715 107.083037 
L 357.272776 109.093174 
L 357.995837 109.611919 
L 358.718899 104.835142 
L 359.44196 108.358285 
L 360.165021 106.899315 
L 360.888083 104.002988 
L 361.611144 106.845279 
L 362.334205 108.671694 
L 363.057267 108.18537 
L 363.780328 108.423128 
L 364.503389 106.023933 
L 365.226451 105.008057 
L 365.949512 104.835142 
L 366.672573 105.040478 
L 367.395635 106.693978 
L 368.118696 103.970567 
L 368.841757 105.137743 
L 369.564819 104.024603 
L 370.28788 103.559894 
L 371.010941 103.430207 
L 371.734003 105.105322 
L 372.457064 106.207655 
L 373.180126 104.737877 
L 373.903187 105.451152 
L 374.626248 105.526802 
L 375.34931 105.397116 
L 376.072371 105.861825 
L 376.795432 106.53187 
L 377.518494 107.861155 
L 378.241555 102.511596 
L 378.964616 104.402854 
L 379.687678 104.262361 
L 380.410739 106.553485 
L 381.1338 104.781106 
L 381.856862 104.543348 
L 382.579923 104.824335 
L 383.302984 104.759491 
L 384.026046 104.435276 
L 384.749107 105.289044 
L 386.19523 104.65142 
L 386.918291 104.521733 
L 387.641353 104.759491 
L 388.364414 104.316397 
L 389.087475 104.30559 
L 390.533598 103.538279 
L 391.256659 104.348818 
L 391.979721 104.759491 
L 392.702782 105.742946 
L 393.425843 103.667965 
L 394.148905 103.559894 
L 394.871966 103.105992 
L 396.318089 102.792583 
L 397.04115 103.613929 
L 397.764211 103.484243 
L 398.487273 103.505858 
L 398.487273 103.505858 
" clip-path="url(#pdadc9e6c8c)" style="fill: none; stroke: #2ca02c; stroke-width: 1.5; stroke-linecap: square"/>
   </g>
   <g id="line2d_22">
    <path d="M 73.832727 292.51062 
L 74.555789 287.746811 
L 75.27885 288.781059 
L 76.001911 287.872174 
L 76.724973 284.111272 
L 77.448034 275.304494 
L 78.171095 282.669593 
L 78.894157 274.176224 
L 79.617218 270.289959 
L 80.340279 263.269609 
L 81.063341 260.135524 
L 81.786402 253.898696 
L 82.509463 255.935851 
L 83.232525 253.428583 
L 83.955586 242.929399 
L 84.678647 239.63861 
L 85.401709 253.741991 
L 86.12477 240.35945 
L 86.847832 237.977545 
L 87.570893 220.081921 
L 88.293954 221.49226 
L 89.017016 226.914226 
L 90.463138 211.14978 
L 91.1862 223.560756 
L 91.909261 214.127161 
L 92.632322 220.113262 
L 93.355384 214.659955 
L 94.078445 216.289679 
L 94.801506 218.608902 
L 95.524568 230.957195 
L 96.247629 234.153962 
L 96.97069 232.430215 
L 97.693752 232.054125 
L 98.416813 243.180126 
L 99.139874 240.829562 
L 99.862936 215.22409 
L 100.585997 228.261883 
L 101.309059 219.110355 
L 102.03212 218.859628 
L 102.755181 207.670946 
L 103.478243 220.269967 
L 104.201304 197.704557 
L 105.647427 210.554304 
L 106.370488 195.918128 
L 107.816611 213.124253 
L 108.539672 201.308754 
L 109.262733 205.132337 
L 109.985795 203.75334 
L 110.708856 199.208917 
L 111.431917 198.331373 
L 112.154979 194.50779 
L 112.87804 184.384696 
L 113.601101 186.296488 
L 114.324163 195.448016 
L 115.047224 194.852539 
L 115.770285 196.168855 
L 116.493347 192.000522 
L 117.216408 186.453192 
L 117.93947 191.937841 
L 118.662531 185.074195 
L 119.385592 186.860623 
L 120.108654 193.191475 
L 120.831715 187.675485 
L 121.554776 186.296488 
L 122.277838 191.405046 
L 123.000899 184.290674 
L 123.72396 184.478719 
L 124.447022 188.020235 
L 125.170083 180.874522 
L 125.893144 181.658043 
L 126.616206 174.575011 
L 127.339267 177.959823 
L 128.062328 175.045124 
L 128.78539 178.24189 
L 129.508451 175.765963 
L 130.231512 172.569197 
L 130.954574 177.615073 
L 131.677635 172.193107 
L 132.400696 169.560476 
L 133.123758 169.748521 
L 133.846819 173.572104 
L 134.569881 170.218634 
L 135.292942 170.155952 
L 136.016003 174.261603 
L 136.739065 172.443834 
L 137.462126 169.184386 
L 138.185187 177.019597 
L 138.908249 204.536861 
L 139.63131 212.027324 
L 140.354371 205.727813 
L 141.077433 213.280958 
L 141.800494 204.348816 
L 142.523555 190.966274 
L 143.246617 200.305847 
L 143.969678 191.56175 
L 145.415801 200.650596 
L 146.138862 201.308754 
L 146.861923 184.635423 
L 147.584985 197.07774 
L 148.308046 200.838641 
L 149.031108 196.482264 
L 149.754169 198.080647 
L 150.47723 204.787588 
L 151.200292 189.399232 
L 151.923353 186.578556 
L 152.646414 181.56402 
L 153.369476 197.015058 
L 154.092537 189.838004 
L 154.815598 200.368529 
L 155.53866 187.362077 
L 156.261721 195.573379 
L 156.984782 197.610534 
L 157.707844 195.416675 
L 158.430905 185.199558 
L 159.153966 205.22636 
L 159.877028 187.706826 
L 160.600089 193.41086 
L 161.32315 180.623795 
L 162.046212 188.96046 
L 162.769273 181.250612 
L 163.492334 183.256426 
L 164.215396 186.515874 
L 164.938457 188.521688 
L 165.661519 172.036403 
L 166.38458 187.581463 
L 167.107641 181.219271 
L 167.830703 185.199558 
L 168.553764 181.658043 
L 169.276825 181.219271 
L 169.999887 190.026049 
L 170.722948 171.660312 
L 171.446009 176.204735 
L 172.169071 176.612166 
L 173.615193 171.56629 
L 175.061316 187.644145 
L 175.784377 187.236714 
L 176.507439 167.523321 
L 177.2305 163.198284 
L 177.953561 173.384059 
L 178.676623 174.825738 
L 179.399684 171.472267 
L 180.122745 183.507153 
L 180.845807 167.805388 
L 181.568868 174.575011 
L 182.29193 163.825101 
L 183.014991 173.4154 
L 183.738052 166.520414 
L 184.461114 161.56856 
L 185.184175 167.14723 
L 185.907236 158.089726 
L 186.630298 169.497794 
L 187.353359 167.303935 
L 188.07642 169.967907 
L 188.799482 173.227355 
L 189.522543 156.867433 
L 190.245604 172.31847 
L 190.968666 164.295213 
L 191.691727 174.763056 
L 192.414788 169.027681 
L 193.13785 174.951101 
L 193.860911 156.930114 
L 194.583972 172.66322 
L 195.307034 169.497794 
L 196.030095 162.790853 
L 196.753157 173.854172 
L 197.476218 160.126881 
L 198.199279 160.377607 
L 198.922341 167.11589 
L 199.645402 168.212819 
L 200.368463 165.172757 
L 201.091525 159.813472 
L 201.814586 161.317833 
L 202.537647 153.169213 
L 203.260709 153.733348 
L 203.98377 161.286492 
L 204.706831 149.408311 
L 205.429893 157.243523 
L 206.152954 151.664852 
L 207.599077 169.309749 
L 208.322138 161.819286 
L 209.045199 173.885513 
L 209.768261 152.134965 
L 210.491322 163.354988 
L 211.214383 164.984712 
L 211.937445 165.423484 
L 212.660506 157.838999 
L 213.383568 151.790215 
L 214.106629 165.423484 
L 214.82969 153.952734 
L 215.552752 151.382784 
L 216.275813 154.704914 
L 216.998874 151.821556 
L 217.721936 159.500064 
L 218.444997 156.209275 
L 219.168058 149.094902 
L 219.89112 158.810565 
L 220.614181 160.596993 
L 221.337242 162.728171 
L 222.060304 147.966632 
L 222.783365 160.408948 
L 223.506426 161.599901 
L 224.229488 161.098447 
L 224.952549 154.673573 
L 225.67561 176.800211 
L 226.398672 190.80957 
L 227.121733 168.181478 
L 227.844794 190.026049 
L 228.567856 174.355625 
L 229.290917 190.182753 
L 230.013979 188.58437 
L 230.73704 204.254794 
L 231.460101 198.20601 
L 232.183163 180.43575 
L 232.906224 186.327829 
L 233.629285 194.006337 
L 234.352347 179.683569 
L 235.075408 187.268054 
L 235.798469 189.367891 
L 236.521531 173.290037 
L 237.244592 174.355625 
L 237.967653 173.4154 
L 239.413776 187.800849 
L 240.136837 179.025412 
L 240.859899 185.074195 
L 241.58296 173.572104 
L 242.306021 176.267417 
L 243.029083 168.400864 
L 243.752144 190.182753 
L 244.475206 175.26451 
L 245.198267 177.144961 
L 245.921328 177.8658 
L 247.367451 174.51233 
L 248.090512 176.580825 
L 248.813574 180.43575 
L 249.536635 179.840274 
L 250.259696 182.66095 
L 250.982758 176.643507 
L 251.705819 182.943017 
L 252.42888 183.005699 
L 253.151942 174.637693 
L 253.875003 172.443834 
L 254.598064 179.746251 
L 255.321126 172.537856 
L 256.044187 185.324922 
L 256.767248 177.207642 
L 257.49031 191.122979 
L 258.213371 188.741074 
L 258.936432 168.463546 
L 259.659494 185.387604 
L 260.382555 180.498431 
L 261.105617 179.464183 
L 261.828678 164.765326 
L 262.551739 183.162403 
L 263.274801 174.292944 
L 263.997862 174.575011 
L 264.720923 180.968544 
L 265.443985 180.749158 
L 266.167046 175.076465 
L 266.890107 170.908132 
L 267.613169 174.51233 
L 268.33623 179.777592 
L 269.059291 172.66322 
L 269.782353 167.397957 
L 270.505414 178.053845 
L 271.228475 179.808933 
L 271.951537 166.614436 
L 272.674598 167.021867 
L 273.397659 170.500701 
L 274.120721 176.298758 
L 274.843782 166.39505 
L 275.566843 180.905862 
L 276.289905 205.508428 
L 277.012966 169.435112 
L 277.736028 172.882606 
L 278.459089 183.068381 
L 279.18215 177.583733 
L 279.905212 162.226717 
L 280.628273 163.07292 
L 281.351334 161.693923 
L 282.074396 156.460002 
L 282.797457 168.588909 
L 283.520518 168.338183 
L 284.24358 179.307479 
L 284.966641 178.24189 
L 285.689702 163.229625 
L 286.412764 185.544308 
L 287.135825 160.84772 
L 287.858886 165.830915 
L 288.581948 177.646414 
L 289.305009 173.79149 
L 290.02807 173.728808 
L 290.751132 186.829283 
L 291.474193 167.272594 
L 292.197255 183.75788 
L 292.920316 184.13397 
L 293.643377 166.238346 
L 294.366439 169.905225 
L 295.0895 169.71718 
L 295.812561 167.774047 
L 296.535623 177.615073 
L 297.258684 172.913946 
L 297.981745 162.070013 
L 298.704807 171.064836 
L 299.427868 165.360802 
L 300.150929 156.02123 
L 300.873991 180.310386 
L 301.597052 165.768233 
L 302.320113 175.421214 
L 303.043175 165.235439 
L 303.766236 173.885513 
L 304.489297 158.497157 
L 305.212359 167.429298 
L 305.93542 181.658043 
L 306.658481 172.757242 
L 307.381543 175.859986 
L 308.104604 178.335913 
L 308.827666 167.429298 
L 309.550727 177.552392 
L 310.273788 177.834459 
L 311.719911 180.028319 
L 312.442972 179.746251 
L 313.166034 186.578556 
L 313.889095 173.603445 
L 314.612156 187.48744 
L 315.335218 162.508785 
L 316.058279 171.911039 
L 316.78134 174.136239 
L 317.504402 174.669034 
L 318.227463 156.428661 
L 318.950524 175.703282 
L 319.673586 177.991164 
L 320.396647 169.842543 
L 321.119708 163.041579 
L 321.84277 184.039947 
L 322.565831 164.483258 
L 323.288892 168.839636 
L 324.011954 182.128155 
L 324.735015 169.403771 
L 325.458077 169.090363 
L 326.181138 169.403771 
L 326.904199 166.990526 
L 327.627261 175.045124 
L 328.350322 162.195377 
L 329.073383 176.204735 
L 329.796445 185.356263 
L 330.519506 156.240616 
L 331.242567 154.830277 
L 331.965629 162.289399 
L 332.68869 179.119434 
L 333.411751 170.061929 
L 334.134813 164.075827 
L 334.857874 167.241253 
L 335.580935 162.289399 
L 336.303997 162.947557 
L 337.027058 174.575011 
L 337.750119 174.575011 
L 338.473181 156.146593 
L 339.196242 171.378245 
L 339.919304 160.502971 
L 340.642365 160.252244 
L 341.365426 180.968544 
L 342.088488 163.605715 
L 342.811549 158.559838 
L 343.53461 167.366616 
L 344.257672 172.913946 
L 344.980733 172.193107 
L 345.703794 180.153682 
L 346.426856 170.249974 
L 347.149917 163.260965 
L 347.872978 159.531405 
L 348.59604 162.226717 
L 349.319101 159.594086 
L 350.042162 175.045124 
L 350.765224 162.414763 
L 351.488285 173.007969 
L 352.211346 177.677755 
L 352.934408 163.574374 
L 353.657469 167.962092 
L 354.38053 170.312656 
L 355.103592 161.129788 
L 355.826653 159.029951 
L 356.549715 171.127518 
L 357.272776 158.779224 
L 357.995837 164.138509 
L 358.718899 151.821556 
L 359.44196 162.665489 
L 360.165021 168.432205 
L 360.888083 160.753698 
L 361.611144 174.386966 
L 362.334205 166.112983 
L 363.057267 168.933659 
L 363.780328 156.115252 
L 364.503389 168.588909 
L 365.226451 154.579551 
L 365.949512 163.480351 
L 366.672573 158.277771 
L 367.395635 168.776955 
L 368.118696 164.608622 
L 368.841757 158.027044 
L 369.564819 168.933659 
L 370.28788 166.01896 
L 371.010941 155.64514 
L 371.734003 171.346904 
L 372.457064 165.329461 
L 373.180126 165.26678 
L 373.903187 158.183748 
L 374.626248 159.907495 
L 375.34931 168.494887 
L 376.072371 172.475175 
L 376.795432 179.432843 
L 377.518494 162.634148 
L 378.241555 166.802481 
L 378.964616 167.021867 
L 379.687678 161.004424 
L 380.410739 171.1902 
L 381.1338 161.067106 
L 381.856862 155.175027 
L 382.579923 170.594724 
L 383.302984 153.106531 
L 384.026046 155.018323 
L 384.749107 166.865163 
L 385.472168 165.172757 
L 386.19523 167.14723 
L 386.918291 166.865163 
L 387.641353 165.392143 
L 388.364414 162.132695 
L 389.087475 169.623157 
L 389.810537 162.947557 
L 390.533598 164.608622 
L 391.256659 161.317833 
L 391.979721 161.004424 
L 392.702782 162.947557 
L 393.425843 161.975991 
L 394.871966 172.475175 
L 396.318089 158.434475 
L 397.04115 167.49198 
L 397.764211 164.859349 
L 398.487273 161.725264 
L 398.487273 161.725264 
" clip-path="url(#pdadc9e6c8c)" style="fill: none; stroke: #d62728; stroke-width: 1.5; stroke-linecap: square"/>
   </g>
   <g id="patch_3">
    <path d="M 57.6 307.584 
L 57.6 41.472 
" style="fill: none; stroke: #000000; stroke-width: 0.8; stroke-linejoin: miter; stroke-linecap: square"/>
   </g>
   <g id="patch_4">
    <path d="M 414.72 307.584 
L 414.72 41.472 
" style="fill: none; stroke: #000000; stroke-width: 0.8; stroke-linejoin: miter; stroke-linecap: square"/>
   </g>
   <g id="patch_5">
    <path d="M 57.6 307.584 
L 414.72 307.584 
" style="fill: none; stroke: #000000; stroke-width: 0.8; stroke-linejoin: miter; stroke-linecap: square"/>
   </g>
   <g id="patch_6">
    <path d="M 57.6 41.472 
L 414.72 41.472 
" style="fill: none; stroke: #000000; stroke-width: 0.8; stroke-linejoin: miter; stroke-linecap: square"/>
   </g>
   <g id="text_21">
    <!-- Learning Curves -->
    <g transform="translate(187.37625 35.472) scale(0.12 -0.12)">
     <defs>
      <path id="DejaVuSans-4c" d="M 628 4666 
L 1259 4666 
L 1259 531 
L 3531 531 
L 3531 0 
L 628 0 
L 628 4666 
z
" transform="scale(0.015625)"/>
      <path id="DejaVuSans-65" d="M 3597 1894 
L 3597 1613 
L 953 1613 
Q 991 1019 1311 708 
Q 1631 397 2203 397 
Q 2534 397 2845 478 
Q 3156 559 3463 722 
L 3463 178 
Q 3153 47 2828 -22 
Q 2503 -91 2169 -91 
Q 1331 -91 842 396 
Q 353 884 353 1716 
Q 353 2575 817 3079 
Q 1281 3584 2069 3584 
Q 2775 3584 3186 3129 
Q 3597 2675 3597 1894 
z
M 3022 2063 
Q 3016 2534 2758 2815 
Q 2500 3097 2075 3097 
Q 1594 3097 1305 2825 
Q 1016 2553 972 2059 
L 3022 2063 
z
" transform="scale(0.015625)"/>
      <path id="DejaVuSans-6e" d="M 3513 2113 
L 3513 0 
L 2938 0 
L 2938 2094 
Q 2938 2591 2744 2837 
Q 2550 3084 2163 3084 
Q 1697 3084 1428 2787 
Q 1159 2491 1159 1978 
L 1159 0 
L 581 0 
L 581 3500 
L 1159 3500 
L 1159 2956 
Q 1366 3272 1645 3428 
Q 1925 3584 2291 3584 
Q 2894 3584 3203 3211 
Q 3513 2838 3513 2113 
z
" transform="scale(0.015625)"/>
      <path id="DejaVuSans-69" d="M 603 3500 
L 1178 3500 
L 1178 0 
L 603 0 
L 603 3500 
z
M 603 4863 
L 1178 4863 
L 1178 4134 
L 603 4134 
L 603 4863 
z
" transform="scale(0.015625)"/>
      <path id="DejaVuSans-67" d="M 2906 1791 
Q 2906 2416 2648 2759 
Q 2391 3103 1925 3103 
Q 1463 3103 1205 2759 
Q 947 2416 947 1791 
Q 947 1169 1205 825 
Q 1463 481 1925 481 
Q 2391 481 2648 825 
Q 2906 1169 2906 1791 
z
M 3481 434 
Q 3481 -459 3084 -895 
Q 2688 -1331 1869 -1331 
Q 1566 -1331 1297 -1286 
Q 1028 -1241 775 -1147 
L 775 -588 
Q 1028 -725 1275 -790 
Q 1522 -856 1778 -856 
Q 2344 -856 2625 -561 
Q 2906 -266 2906 331 
L 2906 616 
Q 2728 306 2450 153 
Q 2172 0 1784 0 
Q 1141 0 747 490 
Q 353 981 353 1791 
Q 353 2603 747 3093 
Q 1141 3584 1784 3584 
Q 2172 3584 2450 3431 
Q 2728 3278 2906 2969 
L 2906 3500 
L 3481 3500 
L 3481 434 
z
" transform="scale(0.015625)"/>
      <path id="DejaVuSans-20" transform="scale(0.015625)"/>
      <path id="DejaVuSans-43" d="M 4122 4306 
L 4122 3641 
Q 3803 3938 3442 4084 
Q 3081 4231 2675 4231 
Q 1875 4231 1450 3742 
Q 1025 3253 1025 2328 
Q 1025 1406 1450 917 
Q 1875 428 2675 428 
Q 3081 428 3442 575 
Q 3803 722 4122 1019 
L 4122 359 
Q 3791 134 3420 21 
Q 3050 -91 2638 -91 
Q 1578 -91 968 557 
Q 359 1206 359 2328 
Q 359 3453 968 4101 
Q 1578 4750 2638 4750 
Q 3056 4750 3426 4639 
Q 3797 4528 4122 4306 
z
" transform="scale(0.015625)"/>
      <path id="DejaVuSans-76" d="M 191 3500 
L 800 3500 
L 1894 563 
L 2988 3500 
L 3597 3500 
L 2284 0 
L 1503 0 
L 191 3500 
z
" transform="scale(0.015625)"/>
     </defs>
     <use xlink:href="#DejaVuSans-4c"/>
     <use xlink:href="#DejaVuSans-65" x="53.962891"/>
     <use xlink:href="#DejaVuSans-61" x="115.486328"/>
     <use xlink:href="#DejaVuSans-72" x="176.765625"/>
     <use xlink:href="#DejaVuSans-6e" x="216.128906"/>
     <use xlink:href="#DejaVuSans-69" x="279.507812"/>
     <use xlink:href="#DejaVuSans-6e" x="307.291016"/>
     <use xlink:href="#DejaVuSans-67" x="370.669922"/>
     <use xlink:href="#DejaVuSans-20" x="434.146484"/>
     <use xlink:href="#DejaVuSans-43" x="465.933594"/>
     <use xlink:href="#DejaVuSans-75" x="535.757812"/>
     <use xlink:href="#DejaVuSans-72" x="599.136719"/>
     <use xlink:href="#DejaVuSans-76" x="640.25"/>
     <use xlink:href="#DejaVuSans-65" x="699.429688"/>
     <use xlink:href="#DejaVuSans-73" x="760.953125"/>
    </g>
   </g>
   <g id="legend_1">
    <g id="patch_7">
     <path d="M 217.996562 302.584 
L 407.72 302.584 
Q 409.72 302.584 409.72 300.584 
L 409.72 242.8715 
Q 409.72 240.8715 407.72 240.8715 
L 217.996562 240.8715 
Q 215.996562 240.8715 215.996562 242.8715 
L 215.996562 300.584 
Q 215.996562 302.584 217.996562 302.584 
z
" style="fill: #ffffff; opacity: 0.8; stroke: #cccccc; stroke-linejoin: miter"/>
    </g>
    <g id="line2d_23">
     <path d="M 219.996562 248.969937 
L 229.996562 248.969937 
L 239.996562 248.969937 
" style="fill: none; stroke: #1f77b4; stroke-width: 1.5; stroke-linecap: square"/>
    </g>
    <g id="text_22">
     <!-- Train Accuracy -->
     <g transform="translate(247.996562 252.469937) scale(0.1 -0.1)">
      <defs>
       <path id="DejaVuSans-54" d="M -19 4666 
L 3928 4666 
L 3928 4134 
L 2272 4134 
L 2272 0 
L 1638 0 
L 1638 4134 
L -19 4134 
L -19 4666 
z
" transform="scale(0.015625)"/>
      </defs>
      <use xlink:href="#DejaVuSans-54"/>
      <use xlink:href="#DejaVuSans-72" x="46.333984"/>
      <use xlink:href="#DejaVuSans-61" x="87.447266"/>
      <use xlink:href="#DejaVuSans-69" x="148.726562"/>
      <use xlink:href="#DejaVuSans-6e" x="176.509766"/>
      <use xlink:href="#DejaVuSans-20" x="239.888672"/>
      <use xlink:href="#DejaVuSans-41" x="271.675781"/>
      <use xlink:href="#DejaVuSans-63" x="338.333984"/>
      <use xlink:href="#DejaVuSans-63" x="393.314453"/>
      <use xlink:href="#DejaVuSans-75" x="448.294922"/>
      <use xlink:href="#DejaVuSans-72" x="511.673828"/>
      <use xlink:href="#DejaVuSans-61" x="552.787109"/>
      <use xlink:href="#DejaVuSans-63" x="614.066406"/>
      <use xlink:href="#DejaVuSans-79" x="669.046875"/>
     </g>
    </g>
    <g id="line2d_24">
     <path d="M 219.996562 263.648062 
L 229.996562 263.648062 
L 239.996562 263.648062 
" style="fill: none; stroke: #ff7f0e; stroke-width: 1.5; stroke-linecap: square"/>
    </g>
    <g id="text_23">
     <!-- Validation Accuracy -->
     <g transform="translate(247.996562 267.148062) scale(0.1 -0.1)">
      <defs>
       <path id="DejaVuSans-56" d="M 1831 0 
L 50 4666 
L 709 4666 
L 2188 738 
L 3669 4666 
L 4325 4666 
L 2547 0 
L 1831 0 
z
" transform="scale(0.015625)"/>
       <path id="DejaVuSans-6c" d="M 603 4863 
L 1178 4863 
L 1178 0 
L 603 0 
L 603 4863 
z
" transform="scale(0.015625)"/>
       <path id="DejaVuSans-64" d="M 2906 2969 
L 2906 4863 
L 3481 4863 
L 3481 0 
L 2906 0 
L 2906 525 
Q 2725 213 2448 61 
Q 2172 -91 1784 -91 
Q 1150 -91 751 415 
Q 353 922 353 1747 
Q 353 2572 751 3078 
Q 1150 3584 1784 3584 
Q 2172 3584 2448 3432 
Q 2725 3281 2906 2969 
z
M 947 1747 
Q 947 1113 1208 752 
Q 1469 391 1925 391 
Q 2381 391 2643 752 
Q 2906 1113 2906 1747 
Q 2906 2381 2643 2742 
Q 2381 3103 1925 3103 
Q 1469 3103 1208 2742 
Q 947 2381 947 1747 
z
" transform="scale(0.015625)"/>
       <path id="DejaVuSans-74" d="M 1172 4494 
L 1172 3500 
L 2356 3500 
L 2356 3053 
L 1172 3053 
L 1172 1153 
Q 1172 725 1289 603 
Q 1406 481 1766 481 
L 2356 481 
L 2356 0 
L 1766 0 
Q 1100 0 847 248 
Q 594 497 594 1153 
L 594 3053 
L 172 3053 
L 172 3500 
L 594 3500 
L 594 4494 
L 1172 4494 
z
" transform="scale(0.015625)"/>
      </defs>
      <use xlink:href="#DejaVuSans-56"/>
      <use xlink:href="#DejaVuSans-61" x="60.658203"/>
      <use xlink:href="#DejaVuSans-6c" x="121.9375"/>
      <use xlink:href="#DejaVuSans-69" x="149.720703"/>
      <use xlink:href="#DejaVuSans-64" x="177.503906"/>
      <use xlink:href="#DejaVuSans-61" x="240.980469"/>
      <use xlink:href="#DejaVuSans-74" x="302.259766"/>
      <use xlink:href="#DejaVuSans-69" x="341.46875"/>
      <use xlink:href="#DejaVuSans-6f" x="369.251953"/>
      <use xlink:href="#DejaVuSans-6e" x="430.433594"/>
      <use xlink:href="#DejaVuSans-20" x="493.8125"/>
      <use xlink:href="#DejaVuSans-41" x="525.599609"/>
      <use xlink:href="#DejaVuSans-63" x="592.257812"/>
      <use xlink:href="#DejaVuSans-63" x="647.238281"/>
      <use xlink:href="#DejaVuSans-75" x="702.21875"/>
      <use xlink:href="#DejaVuSans-72" x="765.597656"/>
      <use xlink:href="#DejaVuSans-61" x="806.710938"/>
      <use xlink:href="#DejaVuSans-63" x="867.990234"/>
      <use xlink:href="#DejaVuSans-79" x="922.970703"/>
     </g>
    </g>
    <g id="line2d_25">
     <path d="M 219.996562 278.326187 
L 229.996562 278.326187 
L 239.996562 278.326187 
" style="fill: none; stroke: #2ca02c; stroke-width: 1.5; stroke-linecap: square"/>
    </g>
    <g id="text_24">
     <!-- Robust Validation Accuracy -->
     <g transform="translate(247.996562 281.826187) scale(0.1 -0.1)">
      <defs>
       <path id="DejaVuSans-52" d="M 2841 2188 
Q 3044 2119 3236 1894 
Q 3428 1669 3622 1275 
L 4263 0 
L 3584 0 
L 2988 1197 
Q 2756 1666 2539 1819 
Q 2322 1972 1947 1972 
L 1259 1972 
L 1259 0 
L 628 0 
L 628 4666 
L 2053 4666 
Q 2853 4666 3247 4331 
Q 3641 3997 3641 3322 
Q 3641 2881 3436 2590 
Q 3231 2300 2841 2188 
z
M 1259 4147 
L 1259 2491 
L 2053 2491 
Q 2509 2491 2742 2702 
Q 2975 2913 2975 3322 
Q 2975 3731 2742 3939 
Q 2509 4147 2053 4147 
L 1259 4147 
z
" transform="scale(0.015625)"/>
       <path id="DejaVuSans-62" d="M 3116 1747 
Q 3116 2381 2855 2742 
Q 2594 3103 2138 3103 
Q 1681 3103 1420 2742 
Q 1159 2381 1159 1747 
Q 1159 1113 1420 752 
Q 1681 391 2138 391 
Q 2594 391 2855 752 
Q 3116 1113 3116 1747 
z
M 1159 2969 
Q 1341 3281 1617 3432 
Q 1894 3584 2278 3584 
Q 2916 3584 3314 3078 
Q 3713 2572 3713 1747 
Q 3713 922 3314 415 
Q 2916 -91 2278 -91 
Q 1894 -91 1617 61 
Q 1341 213 1159 525 
L 1159 0 
L 581 0 
L 581 4863 
L 1159 4863 
L 1159 2969 
z
" transform="scale(0.015625)"/>
      </defs>
      <use xlink:href="#DejaVuSans-52"/>
      <use xlink:href="#DejaVuSans-6f" x="64.982422"/>
      <use xlink:href="#DejaVuSans-62" x="126.164062"/>
      <use xlink:href="#DejaVuSans-75" x="189.640625"/>
      <use xlink:href="#DejaVuSans-73" x="253.019531"/>
      <use xlink:href="#DejaVuSans-74" x="305.119141"/>
      <use xlink:href="#DejaVuSans-20" x="344.328125"/>
      <use xlink:href="#DejaVuSans-56" x="376.115234"/>
      <use xlink:href="#DejaVuSans-61" x="436.773438"/>
      <use xlink:href="#DejaVuSans-6c" x="498.052734"/>
      <use xlink:href="#DejaVuSans-69" x="525.835938"/>
      <use xlink:href="#DejaVuSans-64" x="553.619141"/>
      <use xlink:href="#DejaVuSans-61" x="617.095703"/>
      <use xlink:href="#DejaVuSans-74" x="678.375"/>
      <use xlink:href="#DejaVuSans-69" x="717.583984"/>
      <use xlink:href="#DejaVuSans-6f" x="745.367188"/>
      <use xlink:href="#DejaVuSans-6e" x="806.548828"/>
      <use xlink:href="#DejaVuSans-20" x="869.927734"/>
      <use xlink:href="#DejaVuSans-41" x="901.714844"/>
      <use xlink:href="#DejaVuSans-63" x="968.373047"/>
      <use xlink:href="#DejaVuSans-63" x="1023.353516"/>
      <use xlink:href="#DejaVuSans-75" x="1078.333984"/>
      <use xlink:href="#DejaVuSans-72" x="1141.712891"/>
      <use xlink:href="#DejaVuSans-61" x="1182.826172"/>
      <use xlink:href="#DejaVuSans-63" x="1244.105469"/>
      <use xlink:href="#DejaVuSans-79" x="1299.085938"/>
     </g>
    </g>
    <g id="line2d_26">
     <path d="M 219.996562 293.004312 
L 229.996562 293.004312 
L 239.996562 293.004312 
" style="fill: none; stroke: #d62728; stroke-width: 1.5; stroke-linecap: square"/>
    </g>
    <g id="text_25">
     <!-- Adversarial Validation Accuracy -->
     <g transform="translate(247.996562 296.504312) scale(0.1 -0.1)">
      <use xlink:href="#DejaVuSans-41"/>
      <use xlink:href="#DejaVuSans-64" x="66.658203"/>
      <use xlink:href="#DejaVuSans-76" x="130.134766"/>
      <use xlink:href="#DejaVuSans-65" x="189.314453"/>
      <use xlink:href="#DejaVuSans-72" x="250.837891"/>
      <use xlink:href="#DejaVuSans-73" x="291.951172"/>
      <use xlink:href="#DejaVuSans-61" x="344.050781"/>
      <use xlink:href="#DejaVuSans-72" x="405.330078"/>
      <use xlink:href="#DejaVuSans-69" x="446.443359"/>
      <use xlink:href="#DejaVuSans-61" x="474.226562"/>
      <use xlink:href="#DejaVuSans-6c" x="535.505859"/>
      <use xlink:href="#DejaVuSans-20" x="563.289062"/>
      <use xlink:href="#DejaVuSans-56" x="595.076172"/>
      <use xlink:href="#DejaVuSans-61" x="655.734375"/>
      <use xlink:href="#DejaVuSans-6c" x="717.013672"/>
      <use xlink:href="#DejaVuSans-69" x="744.796875"/>
      <use xlink:href="#DejaVuSans-64" x="772.580078"/>
      <use xlink:href="#DejaVuSans-61" x="836.056641"/>
      <use xlink:href="#DejaVuSans-74" x="897.335938"/>
      <use xlink:href="#DejaVuSans-69" x="936.544922"/>
      <use xlink:href="#DejaVuSans-6f" x="964.328125"/>
      <use xlink:href="#DejaVuSans-6e" x="1025.509766"/>
      <use xlink:href="#DejaVuSans-20" x="1088.888672"/>
      <use xlink:href="#DejaVuSans-41" x="1120.675781"/>
      <use xlink:href="#DejaVuSans-63" x="1187.333984"/>
      <use xlink:href="#DejaVuSans-63" x="1242.314453"/>
      <use xlink:href="#DejaVuSans-75" x="1297.294922"/>
      <use xlink:href="#DejaVuSans-72" x="1360.673828"/>
      <use xlink:href="#DejaVuSans-61" x="1401.787109"/>
      <use xlink:href="#DejaVuSans-63" x="1463.066406"/>
      <use xlink:href="#DejaVuSans-79" x="1518.046875"/>
     </g>
    </g>
   </g>
  </g>
 </g>
 <defs>
  <clipPath id="pdadc9e6c8c">
   <rect x="57.6" y="41.472" width="357.12" height="266.112"/>
  </clipPath>
 </defs>
</svg>
