<?xml version="1.0" encoding="utf-8" standalone="no"?>
<!DOCTYPE svg PUBLIC "-//W3C//DTD SVG 1.1//EN"
  "http://www.w3.org/Graphics/SVG/1.1/DTD/svg11.dtd">
<svg height="345.6pt" version="1.1" viewBox="0 0 460.8 345.6" width="460.8pt" xmlns="http://www.w3.org/2000/svg" xmlns:xlink="http://www.w3.org/1999/xlink">
 <metadata>
  <rdf:RDF xmlns:cc="http://creativecommons.org/ns#" xmlns:dc="http://purl.org/dc/elements/1.1/" xmlns:rdf="http://www.w3.org/1999/02/22-rdf-syntax-ns#">
   <cc:Work>
    <dc:type rdf:resource="http://purl.org/dc/dcmitype/StillImage"/>
    <dc:date>2024-01-17T13:43:14.244238</dc:date>
    <dc:format>image/svg+xml</dc:format>
    <dc:creator>
     <cc:Agent>
      <dc:title>Matplotlib v3.4.3, https://matplotlib.org/</dc:title>
     </cc:Agent>
    </dc:creator>
   </cc:Work>
  </rdf:RDF>
 </metadata>
 <defs>
  <style type="text/css">*{stroke-linecap:butt;stroke-linejoin:round;}</style>
 </defs>
 <g id="figure_1">
  <g id="patch_1">
   <path d="M 0 345.6 
L 460.8 345.6 
L 460.8 0 
L 0 0 
z
" style="fill:#ffffff;"/>
  </g>
  <g id="axes_1">
   <g id="patch_2">
    <path d="M 57.6 307.584 
L 414.72 307.584 
L 414.72 41.472 
L 57.6 41.472 
z
" style="fill:#ffffff;"/>
   </g>
   <g id="matplotlib.axis_1">
    <g id="xtick_1">
     <g id="line2d_1">
      <defs>
       <path d="M 0 0 
L 0 3.5 
" id="m66eba5653d" style="stroke:#000000;stroke-width:0.8;"/>
      </defs>
      <g>
       <use style="stroke:#000000;stroke-width:0.8;" x="73.832727" xlink:href="#m66eba5653d" y="307.584"/>
      </g>
     </g>
     <g id="text_1">
      <!-- 1 -->
      <g transform="translate(70.651477 322.182437)scale(0.1 -0.1)">
       <defs>
        <path d="M 794 531 
L 1825 531 
L 1825 4091 
L 703 3866 
L 703 4441 
L 1819 4666 
L 2450 4666 
L 2450 531 
L 3481 531 
L 3481 0 
L 794 0 
L 794 531 
z
" id="DejaVuSans-31" transform="scale(0.015625)"/>
       </defs>
       <use xlink:href="#DejaVuSans-31"/>
      </g>
     </g>
    </g>
    <g id="xtick_2">
     <g id="line2d_2">
      <g>
       <use style="stroke:#000000;stroke-width:0.8;" x="109.555234" xlink:href="#m66eba5653d" y="307.584"/>
      </g>
     </g>
     <g id="text_2">
      <!-- 35 -->
      <g transform="translate(103.192734 322.182437)scale(0.1 -0.1)">
       <defs>
        <path d="M 2597 2516 
Q 3050 2419 3304 2112 
Q 3559 1806 3559 1356 
Q 3559 666 3084 287 
Q 2609 -91 1734 -91 
Q 1441 -91 1130 -33 
Q 819 25 488 141 
L 488 750 
Q 750 597 1062 519 
Q 1375 441 1716 441 
Q 2309 441 2620 675 
Q 2931 909 2931 1356 
Q 2931 1769 2642 2001 
Q 2353 2234 1838 2234 
L 1294 2234 
L 1294 2753 
L 1863 2753 
Q 2328 2753 2575 2939 
Q 2822 3125 2822 3475 
Q 2822 3834 2567 4026 
Q 2313 4219 1838 4219 
Q 1578 4219 1281 4162 
Q 984 4106 628 3988 
L 628 4550 
Q 988 4650 1302 4700 
Q 1616 4750 1894 4750 
Q 2613 4750 3031 4423 
Q 3450 4097 3450 3541 
Q 3450 3153 3228 2886 
Q 3006 2619 2597 2516 
z
" id="DejaVuSans-33" transform="scale(0.015625)"/>
        <path d="M 691 4666 
L 3169 4666 
L 3169 4134 
L 1269 4134 
L 1269 2991 
Q 1406 3038 1543 3061 
Q 1681 3084 1819 3084 
Q 2600 3084 3056 2656 
Q 3513 2228 3513 1497 
Q 3513 744 3044 326 
Q 2575 -91 1722 -91 
Q 1428 -91 1123 -41 
Q 819 9 494 109 
L 494 744 
Q 775 591 1075 516 
Q 1375 441 1709 441 
Q 2250 441 2565 725 
Q 2881 1009 2881 1497 
Q 2881 1984 2565 2268 
Q 2250 2553 1709 2553 
Q 1456 2553 1204 2497 
Q 953 2441 691 2322 
L 691 4666 
z
" id="DejaVuSans-35" transform="scale(0.015625)"/>
       </defs>
       <use xlink:href="#DejaVuSans-33"/>
       <use x="63.623047" xlink:href="#DejaVuSans-35"/>
      </g>
     </g>
    </g>
    <g id="xtick_3">
     <g id="line2d_3">
      <g>
       <use style="stroke:#000000;stroke-width:0.8;" x="145.277741" xlink:href="#m66eba5653d" y="307.584"/>
      </g>
     </g>
     <g id="text_3">
      <!-- 69 -->
      <g transform="translate(138.915241 322.182437)scale(0.1 -0.1)">
       <defs>
        <path d="M 2113 2584 
Q 1688 2584 1439 2293 
Q 1191 2003 1191 1497 
Q 1191 994 1439 701 
Q 1688 409 2113 409 
Q 2538 409 2786 701 
Q 3034 994 3034 1497 
Q 3034 2003 2786 2293 
Q 2538 2584 2113 2584 
z
M 3366 4563 
L 3366 3988 
Q 3128 4100 2886 4159 
Q 2644 4219 2406 4219 
Q 1781 4219 1451 3797 
Q 1122 3375 1075 2522 
Q 1259 2794 1537 2939 
Q 1816 3084 2150 3084 
Q 2853 3084 3261 2657 
Q 3669 2231 3669 1497 
Q 3669 778 3244 343 
Q 2819 -91 2113 -91 
Q 1303 -91 875 529 
Q 447 1150 447 2328 
Q 447 3434 972 4092 
Q 1497 4750 2381 4750 
Q 2619 4750 2861 4703 
Q 3103 4656 3366 4563 
z
" id="DejaVuSans-36" transform="scale(0.015625)"/>
        <path d="M 703 97 
L 703 672 
Q 941 559 1184 500 
Q 1428 441 1663 441 
Q 2288 441 2617 861 
Q 2947 1281 2994 2138 
Q 2813 1869 2534 1725 
Q 2256 1581 1919 1581 
Q 1219 1581 811 2004 
Q 403 2428 403 3163 
Q 403 3881 828 4315 
Q 1253 4750 1959 4750 
Q 2769 4750 3195 4129 
Q 3622 3509 3622 2328 
Q 3622 1225 3098 567 
Q 2575 -91 1691 -91 
Q 1453 -91 1209 -44 
Q 966 3 703 97 
z
M 1959 2075 
Q 2384 2075 2632 2365 
Q 2881 2656 2881 3163 
Q 2881 3666 2632 3958 
Q 2384 4250 1959 4250 
Q 1534 4250 1286 3958 
Q 1038 3666 1038 3163 
Q 1038 2656 1286 2365 
Q 1534 2075 1959 2075 
z
" id="DejaVuSans-39" transform="scale(0.015625)"/>
       </defs>
       <use xlink:href="#DejaVuSans-36"/>
       <use x="63.623047" xlink:href="#DejaVuSans-39"/>
      </g>
     </g>
    </g>
    <g id="xtick_4">
     <g id="line2d_4">
      <g>
       <use style="stroke:#000000;stroke-width:0.8;" x="182.050909" xlink:href="#m66eba5653d" y="307.584"/>
      </g>
     </g>
     <g id="text_4">
      <!-- 104 -->
      <g transform="translate(172.507159 322.182437)scale(0.1 -0.1)">
       <defs>
        <path d="M 2034 4250 
Q 1547 4250 1301 3770 
Q 1056 3291 1056 2328 
Q 1056 1369 1301 889 
Q 1547 409 2034 409 
Q 2525 409 2770 889 
Q 3016 1369 3016 2328 
Q 3016 3291 2770 3770 
Q 2525 4250 2034 4250 
z
M 2034 4750 
Q 2819 4750 3233 4129 
Q 3647 3509 3647 2328 
Q 3647 1150 3233 529 
Q 2819 -91 2034 -91 
Q 1250 -91 836 529 
Q 422 1150 422 2328 
Q 422 3509 836 4129 
Q 1250 4750 2034 4750 
z
" id="DejaVuSans-30" transform="scale(0.015625)"/>
        <path d="M 2419 4116 
L 825 1625 
L 2419 1625 
L 2419 4116 
z
M 2253 4666 
L 3047 4666 
L 3047 1625 
L 3713 1625 
L 3713 1100 
L 3047 1100 
L 3047 0 
L 2419 0 
L 2419 1100 
L 313 1100 
L 313 1709 
L 2253 4666 
z
" id="DejaVuSans-34" transform="scale(0.015625)"/>
       </defs>
       <use xlink:href="#DejaVuSans-31"/>
       <use x="63.623047" xlink:href="#DejaVuSans-30"/>
       <use x="127.246094" xlink:href="#DejaVuSans-34"/>
      </g>
     </g>
    </g>
    <g id="xtick_5">
     <g id="line2d_5">
      <g>
       <use style="stroke:#000000;stroke-width:0.8;" x="217.773416" xlink:href="#m66eba5653d" y="307.584"/>
      </g>
     </g>
     <g id="text_5">
      <!-- 138 -->
      <g transform="translate(208.229666 322.182437)scale(0.1 -0.1)">
       <defs>
        <path d="M 2034 2216 
Q 1584 2216 1326 1975 
Q 1069 1734 1069 1313 
Q 1069 891 1326 650 
Q 1584 409 2034 409 
Q 2484 409 2743 651 
Q 3003 894 3003 1313 
Q 3003 1734 2745 1975 
Q 2488 2216 2034 2216 
z
M 1403 2484 
Q 997 2584 770 2862 
Q 544 3141 544 3541 
Q 544 4100 942 4425 
Q 1341 4750 2034 4750 
Q 2731 4750 3128 4425 
Q 3525 4100 3525 3541 
Q 3525 3141 3298 2862 
Q 3072 2584 2669 2484 
Q 3125 2378 3379 2068 
Q 3634 1759 3634 1313 
Q 3634 634 3220 271 
Q 2806 -91 2034 -91 
Q 1263 -91 848 271 
Q 434 634 434 1313 
Q 434 1759 690 2068 
Q 947 2378 1403 2484 
z
M 1172 3481 
Q 1172 3119 1398 2916 
Q 1625 2713 2034 2713 
Q 2441 2713 2670 2916 
Q 2900 3119 2900 3481 
Q 2900 3844 2670 4047 
Q 2441 4250 2034 4250 
Q 1625 4250 1398 4047 
Q 1172 3844 1172 3481 
z
" id="DejaVuSans-38" transform="scale(0.015625)"/>
       </defs>
       <use xlink:href="#DejaVuSans-31"/>
       <use x="63.623047" xlink:href="#DejaVuSans-33"/>
       <use x="127.246094" xlink:href="#DejaVuSans-38"/>
      </g>
     </g>
    </g>
    <g id="xtick_6">
     <g id="line2d_6">
      <g>
       <use style="stroke:#000000;stroke-width:0.8;" x="253.495922" xlink:href="#m66eba5653d" y="307.584"/>
      </g>
     </g>
     <g id="text_6">
      <!-- 172 -->
      <g transform="translate(243.952172 322.182437)scale(0.1 -0.1)">
       <defs>
        <path d="M 525 4666 
L 3525 4666 
L 3525 4397 
L 1831 0 
L 1172 0 
L 2766 4134 
L 525 4134 
L 525 4666 
z
" id="DejaVuSans-37" transform="scale(0.015625)"/>
        <path d="M 1228 531 
L 3431 531 
L 3431 0 
L 469 0 
L 469 531 
Q 828 903 1448 1529 
Q 2069 2156 2228 2338 
Q 2531 2678 2651 2914 
Q 2772 3150 2772 3378 
Q 2772 3750 2511 3984 
Q 2250 4219 1831 4219 
Q 1534 4219 1204 4116 
Q 875 4013 500 3803 
L 500 4441 
Q 881 4594 1212 4672 
Q 1544 4750 1819 4750 
Q 2544 4750 2975 4387 
Q 3406 4025 3406 3419 
Q 3406 3131 3298 2873 
Q 3191 2616 2906 2266 
Q 2828 2175 2409 1742 
Q 1991 1309 1228 531 
z
" id="DejaVuSans-32" transform="scale(0.015625)"/>
       </defs>
       <use xlink:href="#DejaVuSans-31"/>
       <use x="63.623047" xlink:href="#DejaVuSans-37"/>
       <use x="127.246094" xlink:href="#DejaVuSans-32"/>
      </g>
     </g>
    </g>
    <g id="xtick_7">
     <g id="line2d_7">
      <g>
       <use style="stroke:#000000;stroke-width:0.8;" x="290.269091" xlink:href="#m66eba5653d" y="307.584"/>
      </g>
     </g>
     <g id="text_7">
      <!-- 207 -->
      <g transform="translate(280.725341 322.182437)scale(0.1 -0.1)">
       <use xlink:href="#DejaVuSans-32"/>
       <use x="63.623047" xlink:href="#DejaVuSans-30"/>
       <use x="127.246094" xlink:href="#DejaVuSans-37"/>
      </g>
     </g>
    </g>
    <g id="xtick_8">
     <g id="line2d_8">
      <g>
       <use style="stroke:#000000;stroke-width:0.8;" x="325.991598" xlink:href="#m66eba5653d" y="307.584"/>
      </g>
     </g>
     <g id="text_8">
      <!-- 241 -->
      <g transform="translate(316.447848 322.182437)scale(0.1 -0.1)">
       <use xlink:href="#DejaVuSans-32"/>
       <use x="63.623047" xlink:href="#DejaVuSans-34"/>
       <use x="127.246094" xlink:href="#DejaVuSans-31"/>
      </g>
     </g>
    </g>
    <g id="xtick_9">
     <g id="line2d_9">
      <g>
       <use style="stroke:#000000;stroke-width:0.8;" x="361.714104" xlink:href="#m66eba5653d" y="307.584"/>
      </g>
     </g>
     <g id="text_9">
      <!-- 275 -->
      <g transform="translate(352.170354 322.182437)scale(0.1 -0.1)">
       <use xlink:href="#DejaVuSans-32"/>
       <use x="63.623047" xlink:href="#DejaVuSans-37"/>
       <use x="127.246094" xlink:href="#DejaVuSans-35"/>
      </g>
     </g>
    </g>
    <g id="xtick_10">
     <g id="line2d_10">
      <g>
       <use style="stroke:#000000;stroke-width:0.8;" x="398.487273" xlink:href="#m66eba5653d" y="307.584"/>
      </g>
     </g>
     <g id="text_10">
      <!-- 310 -->
      <g transform="translate(388.943523 322.182437)scale(0.1 -0.1)">
       <use xlink:href="#DejaVuSans-33"/>
       <use x="63.623047" xlink:href="#DejaVuSans-31"/>
       <use x="127.246094" xlink:href="#DejaVuSans-30"/>
      </g>
     </g>
    </g>
    <g id="text_11">
     <!-- Epochs -->
     <g transform="translate(218.244375 335.860562)scale(0.1 -0.1)">
      <defs>
       <path d="M 628 4666 
L 3578 4666 
L 3578 4134 
L 1259 4134 
L 1259 2753 
L 3481 2753 
L 3481 2222 
L 1259 2222 
L 1259 531 
L 3634 531 
L 3634 0 
L 628 0 
L 628 4666 
z
" id="DejaVuSans-45" transform="scale(0.015625)"/>
       <path d="M 1159 525 
L 1159 -1331 
L 581 -1331 
L 581 3500 
L 1159 3500 
L 1159 2969 
Q 1341 3281 1617 3432 
Q 1894 3584 2278 3584 
Q 2916 3584 3314 3078 
Q 3713 2572 3713 1747 
Q 3713 922 3314 415 
Q 2916 -91 2278 -91 
Q 1894 -91 1617 61 
Q 1341 213 1159 525 
z
M 3116 1747 
Q 3116 2381 2855 2742 
Q 2594 3103 2138 3103 
Q 1681 3103 1420 2742 
Q 1159 2381 1159 1747 
Q 1159 1113 1420 752 
Q 1681 391 2138 391 
Q 2594 391 2855 752 
Q 3116 1113 3116 1747 
z
" id="DejaVuSans-70" transform="scale(0.015625)"/>
       <path d="M 1959 3097 
Q 1497 3097 1228 2736 
Q 959 2375 959 1747 
Q 959 1119 1226 758 
Q 1494 397 1959 397 
Q 2419 397 2687 759 
Q 2956 1122 2956 1747 
Q 2956 2369 2687 2733 
Q 2419 3097 1959 3097 
z
M 1959 3584 
Q 2709 3584 3137 3096 
Q 3566 2609 3566 1747 
Q 3566 888 3137 398 
Q 2709 -91 1959 -91 
Q 1206 -91 779 398 
Q 353 888 353 1747 
Q 353 2609 779 3096 
Q 1206 3584 1959 3584 
z
" id="DejaVuSans-6f" transform="scale(0.015625)"/>
       <path d="M 3122 3366 
L 3122 2828 
Q 2878 2963 2633 3030 
Q 2388 3097 2138 3097 
Q 1578 3097 1268 2742 
Q 959 2388 959 1747 
Q 959 1106 1268 751 
Q 1578 397 2138 397 
Q 2388 397 2633 464 
Q 2878 531 3122 666 
L 3122 134 
Q 2881 22 2623 -34 
Q 2366 -91 2075 -91 
Q 1284 -91 818 406 
Q 353 903 353 1747 
Q 353 2603 823 3093 
Q 1294 3584 2113 3584 
Q 2378 3584 2631 3529 
Q 2884 3475 3122 3366 
z
" id="DejaVuSans-63" transform="scale(0.015625)"/>
       <path d="M 3513 2113 
L 3513 0 
L 2938 0 
L 2938 2094 
Q 2938 2591 2744 2837 
Q 2550 3084 2163 3084 
Q 1697 3084 1428 2787 
Q 1159 2491 1159 1978 
L 1159 0 
L 581 0 
L 581 4863 
L 1159 4863 
L 1159 2956 
Q 1366 3272 1645 3428 
Q 1925 3584 2291 3584 
Q 2894 3584 3203 3211 
Q 3513 2838 3513 2113 
z
" id="DejaVuSans-68" transform="scale(0.015625)"/>
       <path d="M 2834 3397 
L 2834 2853 
Q 2591 2978 2328 3040 
Q 2066 3103 1784 3103 
Q 1356 3103 1142 2972 
Q 928 2841 928 2578 
Q 928 2378 1081 2264 
Q 1234 2150 1697 2047 
L 1894 2003 
Q 2506 1872 2764 1633 
Q 3022 1394 3022 966 
Q 3022 478 2636 193 
Q 2250 -91 1575 -91 
Q 1294 -91 989 -36 
Q 684 19 347 128 
L 347 722 
Q 666 556 975 473 
Q 1284 391 1588 391 
Q 1994 391 2212 530 
Q 2431 669 2431 922 
Q 2431 1156 2273 1281 
Q 2116 1406 1581 1522 
L 1381 1569 
Q 847 1681 609 1914 
Q 372 2147 372 2553 
Q 372 3047 722 3315 
Q 1072 3584 1716 3584 
Q 2034 3584 2315 3537 
Q 2597 3491 2834 3397 
z
" id="DejaVuSans-73" transform="scale(0.015625)"/>
      </defs>
      <use xlink:href="#DejaVuSans-45"/>
      <use x="63.183594" xlink:href="#DejaVuSans-70"/>
      <use x="126.660156" xlink:href="#DejaVuSans-6f"/>
      <use x="187.841797" xlink:href="#DejaVuSans-63"/>
      <use x="242.822266" xlink:href="#DejaVuSans-68"/>
      <use x="306.201172" xlink:href="#DejaVuSans-73"/>
     </g>
    </g>
   </g>
   <g id="matplotlib.axis_2">
    <g id="ytick_1">
     <g id="line2d_11">
      <defs>
       <path d="M 0 0 
L -3.5 0 
" id="m2fec647f2c" style="stroke:#000000;stroke-width:0.8;"/>
      </defs>
      <g>
       <use style="stroke:#000000;stroke-width:0.8;" x="57.6" xlink:href="#m2fec647f2c" y="283.671393"/>
      </g>
     </g>
     <g id="text_12">
      <!-- 30 -->
      <g transform="translate(37.875 287.470612)scale(0.1 -0.1)">
       <use xlink:href="#DejaVuSans-33"/>
       <use x="63.623047" xlink:href="#DejaVuSans-30"/>
      </g>
     </g>
    </g>
    <g id="ytick_2">
     <g id="line2d_12">
      <g>
       <use style="stroke:#000000;stroke-width:0.8;" x="57.6" xlink:href="#m2fec647f2c" y="247.667107"/>
      </g>
     </g>
     <g id="text_13">
      <!-- 40 -->
      <g transform="translate(37.875 251.466326)scale(0.1 -0.1)">
       <use xlink:href="#DejaVuSans-34"/>
       <use x="63.623047" xlink:href="#DejaVuSans-30"/>
      </g>
     </g>
    </g>
    <g id="ytick_3">
     <g id="line2d_13">
      <g>
       <use style="stroke:#000000;stroke-width:0.8;" x="57.6" xlink:href="#m2fec647f2c" y="211.662821"/>
      </g>
     </g>
     <g id="text_14">
      <!-- 50 -->
      <g transform="translate(37.875 215.46204)scale(0.1 -0.1)">
       <use xlink:href="#DejaVuSans-35"/>
       <use x="63.623047" xlink:href="#DejaVuSans-30"/>
      </g>
     </g>
    </g>
    <g id="ytick_4">
     <g id="line2d_14">
      <g>
       <use style="stroke:#000000;stroke-width:0.8;" x="57.6" xlink:href="#m2fec647f2c" y="175.658535"/>
      </g>
     </g>
     <g id="text_15">
      <!-- 60 -->
      <g transform="translate(37.875 179.457753)scale(0.1 -0.1)">
       <use xlink:href="#DejaVuSans-36"/>
       <use x="63.623047" xlink:href="#DejaVuSans-30"/>
      </g>
     </g>
    </g>
    <g id="ytick_5">
     <g id="line2d_15">
      <g>
       <use style="stroke:#000000;stroke-width:0.8;" x="57.6" xlink:href="#m2fec647f2c" y="139.654248"/>
      </g>
     </g>
     <g id="text_16">
      <!-- 70 -->
      <g transform="translate(37.875 143.453467)scale(0.1 -0.1)">
       <use xlink:href="#DejaVuSans-37"/>
       <use x="63.623047" xlink:href="#DejaVuSans-30"/>
      </g>
     </g>
    </g>
    <g id="ytick_6">
     <g id="line2d_16">
      <g>
       <use style="stroke:#000000;stroke-width:0.8;" x="57.6" xlink:href="#m2fec647f2c" y="103.649962"/>
      </g>
     </g>
     <g id="text_17">
      <!-- 80 -->
      <g transform="translate(37.875 107.449181)scale(0.1 -0.1)">
       <use xlink:href="#DejaVuSans-38"/>
       <use x="63.623047" xlink:href="#DejaVuSans-30"/>
      </g>
     </g>
    </g>
    <g id="ytick_7">
     <g id="line2d_17">
      <g>
       <use style="stroke:#000000;stroke-width:0.8;" x="57.6" xlink:href="#m2fec647f2c" y="67.645676"/>
      </g>
     </g>
     <g id="text_18">
      <!-- 90 -->
      <g transform="translate(37.875 71.444895)scale(0.1 -0.1)">
       <use xlink:href="#DejaVuSans-39"/>
       <use x="63.623047" xlink:href="#DejaVuSans-30"/>
      </g>
     </g>
    </g>
    <g id="text_19">
     <!-- Accuracy -->
     <g transform="translate(31.795312 197.356125)rotate(-90)scale(0.1 -0.1)">
      <defs>
       <path d="M 2188 4044 
L 1331 1722 
L 3047 1722 
L 2188 4044 
z
M 1831 4666 
L 2547 4666 
L 4325 0 
L 3669 0 
L 3244 1197 
L 1141 1197 
L 716 0 
L 50 0 
L 1831 4666 
z
" id="DejaVuSans-41" transform="scale(0.015625)"/>
       <path d="M 544 1381 
L 544 3500 
L 1119 3500 
L 1119 1403 
Q 1119 906 1312 657 
Q 1506 409 1894 409 
Q 2359 409 2629 706 
Q 2900 1003 2900 1516 
L 2900 3500 
L 3475 3500 
L 3475 0 
L 2900 0 
L 2900 538 
Q 2691 219 2414 64 
Q 2138 -91 1772 -91 
Q 1169 -91 856 284 
Q 544 659 544 1381 
z
M 1991 3584 
L 1991 3584 
z
" id="DejaVuSans-75" transform="scale(0.015625)"/>
       <path d="M 2631 2963 
Q 2534 3019 2420 3045 
Q 2306 3072 2169 3072 
Q 1681 3072 1420 2755 
Q 1159 2438 1159 1844 
L 1159 0 
L 581 0 
L 581 3500 
L 1159 3500 
L 1159 2956 
Q 1341 3275 1631 3429 
Q 1922 3584 2338 3584 
Q 2397 3584 2469 3576 
Q 2541 3569 2628 3553 
L 2631 2963 
z
" id="DejaVuSans-72" transform="scale(0.015625)"/>
       <path d="M 2194 1759 
Q 1497 1759 1228 1600 
Q 959 1441 959 1056 
Q 959 750 1161 570 
Q 1363 391 1709 391 
Q 2188 391 2477 730 
Q 2766 1069 2766 1631 
L 2766 1759 
L 2194 1759 
z
M 3341 1997 
L 3341 0 
L 2766 0 
L 2766 531 
Q 2569 213 2275 61 
Q 1981 -91 1556 -91 
Q 1019 -91 701 211 
Q 384 513 384 1019 
Q 384 1609 779 1909 
Q 1175 2209 1959 2209 
L 2766 2209 
L 2766 2266 
Q 2766 2663 2505 2880 
Q 2244 3097 1772 3097 
Q 1472 3097 1187 3025 
Q 903 2953 641 2809 
L 641 3341 
Q 956 3463 1253 3523 
Q 1550 3584 1831 3584 
Q 2591 3584 2966 3190 
Q 3341 2797 3341 1997 
z
" id="DejaVuSans-61" transform="scale(0.015625)"/>
       <path d="M 2059 -325 
Q 1816 -950 1584 -1140 
Q 1353 -1331 966 -1331 
L 506 -1331 
L 506 -850 
L 844 -850 
Q 1081 -850 1212 -737 
Q 1344 -625 1503 -206 
L 1606 56 
L 191 3500 
L 800 3500 
L 1894 763 
L 2988 3500 
L 3597 3500 
L 2059 -325 
z
" id="DejaVuSans-79" transform="scale(0.015625)"/>
      </defs>
      <use xlink:href="#DejaVuSans-41"/>
      <use x="66.658203" xlink:href="#DejaVuSans-63"/>
      <use x="121.638672" xlink:href="#DejaVuSans-63"/>
      <use x="176.619141" xlink:href="#DejaVuSans-75"/>
      <use x="239.998047" xlink:href="#DejaVuSans-72"/>
      <use x="281.111328" xlink:href="#DejaVuSans-61"/>
      <use x="342.390625" xlink:href="#DejaVuSans-63"/>
      <use x="397.371094" xlink:href="#DejaVuSans-79"/>
     </g>
    </g>
   </g>
   <g id="line2d_18">
    <path clip-path="url(#pfc9a7ae5b4)" d="M 73.832727 295.488 
L 74.883389 252.203647 
L 75.934051 225.632484 
L 76.984713 208.163204 
L 79.086037 183.370653 
L 80.136699 175.262487 
L 81.187361 166.117399 
L 82.238023 160.680752 
L 83.288685 156.079404 
L 84.339347 180.634327 
L 85.390009 173.995137 
L 86.440671 166.21101 
L 87.491333 160.795965 
L 89.592657 152.176539 
L 90.643319 150.765171 
L 91.693981 144.630041 
L 93.795305 139.258201 
L 94.845966 136.514675 
L 95.896628 133.20228 
L 96.94729 131.294053 
L 97.997952 127.830441 
L 100.099276 122.545012 
L 101.149938 121.709712 
L 102.2006 119.686271 
L 103.251262 119.182211 
L 104.301924 116.928343 
L 105.352586 141.980125 
L 107.45391 138.221278 
L 108.504572 138.257282 
L 109.555234 135.247324 
L 110.605896 133.547921 
L 111.656558 131.430869 
L 112.70722 129.976296 
L 113.757882 130.408348 
L 114.808544 126.822321 
L 115.859206 128.046466 
L 117.96053 124.323623 
L 119.011192 123.236294 
L 120.061853 120.917618 
L 121.112515 120.809605 
L 122.163177 118.67095 
L 123.213839 118.102083 
L 124.264501 117.353193 
L 125.315163 115.185735 
L 126.365825 114.379239 
L 127.416487 112.780649 
L 128.467149 112.355799 
L 129.517811 110.087529 
L 130.568473 109.612272 
L 131.619135 107.552827 
L 132.669797 106.926352 
L 133.720459 105.356565 
L 134.771121 104.773296 
L 135.821783 103.390731 
L 136.872445 102.289 
L 137.923107 101.957761 
L 138.973769 99.869512 
L 140.024431 100.366371 
L 142.125755 98.285323 
L 143.176417 98.126905 
L 144.227079 98.998208 
L 145.277741 98.67417 
L 146.328402 98.666969 
L 147.379064 122.833046 
L 148.429726 123.927576 
L 149.480388 124.107598 
L 150.53105 121.630503 
L 151.581712 121.889734 
L 153.683036 119.304626 
L 154.733698 119.383835 
L 155.78436 118.742959 
L 156.835022 117.468407 
L 157.885684 117.353193 
L 158.936346 116.496291 
L 159.987008 117.439604 
L 161.03767 116.748321 
L 162.088332 116.273065 
L 163.138994 113.939987 
L 164.189656 114.609667 
L 165.240318 114.062402 
L 166.29098 112.694239 
L 167.341642 112.082166 
L 168.392304 113.241504 
L 169.442966 111.621311 
L 170.493628 110.757208 
L 172.594951 110.627593 
L 173.645613 109.25943 
L 174.696275 110.260349 
L 175.746937 110.231546 
L 176.797599 107.718446 
L 177.848261 108.186502 
L 178.898923 107.185583 
L 179.949585 106.760732 
L 181.000247 105.759813 
L 182.050909 105.457377 
L 183.101571 104.499663 
L 184.152233 104.802099 
L 185.202895 104.074813 
L 186.253557 103.851586 
L 187.304219 102.476222 
L 188.354881 102.721052 
L 189.405543 101.10806 
L 190.456205 101.338487 
L 191.506867 99.991927 
L 192.557529 98.393336 
L 193.608191 98.904597 
L 194.658853 98.918999 
L 195.709515 98.162909 
L 196.760177 97.846071 
L 197.810838 96.290686 
L 198.8615 96.247481 
L 199.912162 95.498592 
L 200.962824 94.929724 
L 202.013486 93.691177 
L 203.064148 93.813591 
L 204.11481 93.539959 
L 205.165472 92.222202 
L 207.266796 91.28609 
L 208.317458 90.198761 
L 209.36812 89.622692 
L 210.418782 90.004338 
L 211.469444 89.997137 
L 215.672092 87.41923 
L 216.722754 86.756751 
L 217.773416 86.972777 
L 218.824078 86.007862 
L 219.87474 86.353503 
L 220.925402 85.56861 
L 223.026726 85.122156 
L 224.077387 85.56861 
L 225.128049 84.682904 
L 226.178711 84.286857 
L 227.229373 85.028545 
L 228.280035 85.158161 
L 229.330697 84.510084 
L 230.381359 85.201366 
L 231.432021 111.455691 
L 233.533345 112.334196 
L 234.584007 112.305393 
L 235.634669 111.563704 
L 236.685331 112.074965 
L 237.735993 111.534901 
L 239.837317 109.821097 
L 240.887979 111.801333 
L 241.938641 110.166738 
L 242.989303 109.626674 
L 244.039965 109.331439 
L 245.090627 109.288233 
L 246.141289 108.985797 
L 247.191951 107.862464 
L 248.242613 108.481737 
L 249.293274 107.019963 
L 250.343936 108.697763 
L 251.394598 108.366524 
L 252.44526 107.034365 
L 253.495922 105.961437 
L 254.546584 106.40789 
L 255.597246 106.271074 
L 256.647908 105.39257 
L 257.69857 106.91195 
L 258.749232 106.436694 
L 259.799894 105.406971 
L 260.850556 106.818339 
L 261.901218 104.787698 
L 262.95188 104.830903 
L 264.002542 105.363766 
L 265.053204 104.787698 
L 266.103866 104.766095 
L 267.154528 104.406052 
L 268.20519 105.169343 
L 269.255852 104.283638 
L 270.306514 103.937996 
L 271.357176 103.246714 
L 272.407838 103.664364 
L 273.4585 103.001885 
L 274.509162 105.306159 
L 275.559823 102.980282 
L 276.610485 101.720132 
L 277.661147 102.346607 
L 278.711809 102.742654 
L 279.762471 101.806543 
L 280.813133 100.589598 
L 281.863795 100.647205 
L 282.914457 101.187269 
L 283.965119 101.396094 
L 285.015781 100.676008 
L 286.066443 101.432098 
L 287.117105 100.402376 
L 288.167767 100.301564 
L 289.218429 99.502268 
L 290.269091 101.626521 
L 291.319753 99.919918 
L 292.370415 99.819106 
L 293.421077 99.199832 
L 294.471739 99.754298 
L 295.522401 98.695772 
L 296.573063 98.832589 
L 297.623725 99.279042 
L 298.674387 97.824469 
L 299.725049 97.522033 
L 300.775711 98.292524 
L 301.826372 96.542716 
L 302.877034 97.118785 
L 303.927696 95.556199 
L 304.978358 95.700216 
L 306.02902 95.491391 
L 307.079682 96.261883 
L 308.130344 94.692096 
L 309.181006 96.103464 
L 310.231668 94.584083 
L 311.28233 94.173634 
L 312.332992 95.412181 
L 313.383654 93.640771 
L 314.434316 93.100706 
L 315.484978 93.655172 
L 316.53564 92.827074 
L 317.586302 92.37342 
L 318.636964 94.195237 
L 319.687626 92.582245 
L 320.738288 92.135791 
L 321.78895 92.092586 
L 322.839612 90.594808 
L 323.890274 91.682137 
L 324.940936 90.566005 
L 325.991598 90.890043 
L 327.042259 90.515599 
L 328.092921 90.566005 
L 329.143583 89.975534 
L 330.194245 88.614572 
L 331.244907 88.542564 
L 332.295569 88.751388 
L 333.346231 88.420149 
L 334.396893 87.959294 
L 335.447555 88.232927 
L 336.498217 88.132115 
L 337.548879 86.303097 
L 338.599541 86.83596 
L 339.650203 86.259892 
L 340.700865 86.871965 
L 342.802189 84.906131 
L 343.852851 85.964657 
L 344.903513 84.769314 
L 345.954175 85.460597 
L 347.004837 84.243652 
L 348.055499 84.171643 
L 349.106161 84.855725 
L 350.156823 83.624378 
L 351.207485 83.926814 
L 352.258147 83.105916 
L 353.308808 82.601856 
L 354.35947 82.637861 
L 355.410132 83.437156 
L 356.460794 81.939378 
L 357.511456 81.197689 
L 358.562118 81.017668 
L 359.61278 80.225574 
L 360.663442 80.758437 
L 362.764766 79.908736 
L 363.815428 80.679228 
L 364.86609 79.728714 
L 365.916752 80.225574 
L 366.967414 78.108521 
L 368.018076 79.181449 
L 369.068738 79.253458 
L 370.1194 76.956384 
L 371.170062 78.360551 
L 372.220724 78.26694 
L 373.271386 77.546855 
L 374.322048 78.713393 
L 375.37271 76.884376 
L 376.423372 75.991469 
L 377.474034 77.222816 
L 378.524695 76.553136 
L 380.626019 76.653948 
L 381.676681 76.430722 
L 382.727343 77.309226 
L 383.778005 74.882537 
L 384.828667 75.74664 
L 385.879329 76.337111 
L 386.929991 77.122004 
L 389.031315 75.235379 
L 390.081977 76.157089 
L 391.132639 76.013072 
L 392.183301 76.085081 
L 393.233963 75.595422 
L 394.284625 76.157089 
L 395.335287 74.983349 
L 396.385949 75.278585 
L 397.436611 75.710636 
L 398.487273 75.141768 
L 398.487273 75.141768 
" style="fill:none;stroke:#1f77b4;stroke-linecap:square;stroke-width:1.5;"/>
   </g>
   <g id="line2d_19">
    <path clip-path="url(#pfc9a7ae5b4)" d="M 73.832727 254.291896 
L 75.934051 197.909183 
L 76.984713 182.535353 
L 78.035375 191.356403 
L 79.086037 158.520494 
L 80.136699 138.970167 
L 81.187361 128.384907 
L 82.238023 135.153713 
L 83.288685 120.751998 
L 84.339347 175.586526 
L 85.390009 167.341544 
L 86.440671 140.662368 
L 87.491333 124.892491 
L 88.541995 136.377858 
L 89.592657 126.72871 
L 90.643319 111.750927 
L 91.693981 109.482657 
L 92.744643 114.199218 
L 93.795305 103.001885 
L 94.845966 98.897396 
L 95.896628 95.585002 
L 96.94729 88.168119 
L 97.997952 88.240128 
L 99.048614 92.380621 
L 100.099276 87.08799 
L 101.149938 84.639699 
L 102.2006 82.911493 
L 103.251262 82.371429 
L 104.301924 82.119399 
L 105.352586 107.466416 
L 106.403248 106.242271 
L 107.45391 111.210862 
L 108.504572 106.386288 
L 109.555234 105.954236 
L 110.605896 100.085538 
L 111.656558 90.544402 
L 112.70722 91.408505 
L 113.757882 88.132115 
L 114.808544 100.877632 
L 115.859206 85.503802 
L 116.909868 94.288848 
L 117.96053 80.53521 
L 119.011192 87.123995 
L 120.061853 84.423673 
L 121.112515 80.751236 
L 122.163177 82.839485 
L 123.213839 84.279656 
L 124.264501 79.815125 
L 125.315163 78.122923 
L 126.365825 74.306469 
L 127.416487 75.710636 
L 128.467149 72.866297 
L 129.517811 75.99867 
L 130.568473 72.398242 
L 131.619135 71.46213 
L 132.669797 70.778049 
L 133.720459 68.43777 
L 134.771121 72.758285 
L 135.821783 67.249629 
L 136.872445 68.797813 
L 137.923107 67.861702 
L 138.973769 68.257749 
L 142.125755 65.629436 
L 143.176417 65.269393 
L 144.227079 64.621316 
L 145.277741 64.945354 
L 146.328402 64.477299 
L 147.379064 83.451558 
L 148.429726 93.964809 
L 149.480388 84.387669 
L 150.53105 89.752308 
L 151.581712 85.32378 
L 152.632374 83.739592 
L 153.683036 78.26694 
L 154.733698 89.788312 
L 155.78436 86.475918 
L 156.835022 79.095039 
L 157.885684 75.818649 
L 158.936346 79.707112 
L 159.987008 76.178692 
L 161.03767 85.57581 
L 162.088332 84.963738 
L 163.138994 78.554975 
L 164.189656 81.507326 
L 165.240318 73.586383 
L 166.29098 84.855725 
L 167.341642 83.019506 
L 168.392304 74.414482 
L 169.442966 71.498135 
L 170.493628 83.019506 
L 171.544289 71.642152 
L 172.594951 77.438842 
L 173.645613 70.20198 
L 174.696275 77.978906 
L 175.746937 78.590979 
L 176.797599 71.2101 
L 177.848261 72.97431 
L 178.898923 68.6898 
L 179.949585 69.733925 
L 181.000247 69.69792 
L 182.050909 72.074203 
L 183.101571 69.19386 
L 184.152233 74.018435 
L 185.202895 67.141616 
L 186.253557 70.309993 
L 187.304219 69.049843 
L 188.354881 66.92559 
L 189.405543 66.709564 
L 190.456205 68.365762 
L 191.506867 68.005719 
L 192.557529 69.373882 
L 193.608191 67.93371 
L 194.658853 64.945354 
L 195.709515 65.053367 
L 196.760177 64.945354 
L 197.810838 63.577192 
L 198.8615 60.37281 
L 199.912162 63.505183 
L 200.962824 61.848986 
L 203.064148 60.804862 
L 204.11481 60.660844 
L 205.165472 60.87687 
L 206.216134 59.220673 
L 207.266796 62.38905 
L 208.317458 61.164904 
L 209.36812 61.236913 
L 210.418782 59.760737 
L 211.469444 60.336806 
L 212.520106 58.968643 
L 213.570768 58.176549 
L 215.672092 58.140544 
L 217.773416 57.492467 
L 218.824078 58.140544 
L 219.87474 58.032531 
L 220.925402 57.564476 
L 221.976064 57.85251 
L 223.026726 57.276441 
L 225.128049 56.736377 
L 228.280035 57.060416 
L 229.330697 57.132424 
L 230.381359 57.024411 
L 231.432021 88.420149 
L 232.482683 82.443438 
L 233.533345 82.947498 
L 234.584007 80.247176 
L 235.634669 77.222816 
L 236.685331 74.558499 
L 237.735993 74.594503 
L 238.786655 79.707112 
L 239.837317 74.342473 
L 240.887979 84.963738 
L 241.938641 73.766405 
L 242.989303 72.362237 
L 244.039965 70.021959 
L 245.090627 77.294825 
L 246.141289 76.214696 
L 247.191951 77.798885 
L 248.242613 67.789693 
L 249.293274 73.334353 
L 250.343936 76.934782 
L 251.394598 72.902302 
L 252.44526 71.2101 
L 253.495922 72.614267 
L 254.546584 83.703588 
L 255.597246 71.174096 
L 256.647908 90.400385 
L 257.69857 73.622387 
L 258.749232 77.150807 
L 259.799894 78.51897 
L 260.850556 75.566619 
L 261.901218 67.033603 
L 262.95188 72.578263 
L 264.002542 72.830293 
L 265.053204 70.237985 
L 266.103866 72.650272 
L 267.154528 71.498135 
L 268.20519 69.589907 
L 269.255852 70.814053 
L 270.306514 66.817577 
L 271.357176 74.270465 
L 272.407838 68.617792 
L 273.4585 68.617792 
L 274.509162 67.573667 
L 276.610485 70.598027 
L 277.661147 67.897706 
L 278.711809 64.441294 
L 279.762471 66.709564 
L 280.813133 69.733925 
L 281.863795 70.850057 
L 282.914457 67.393646 
L 283.965119 67.069607 
L 285.015781 63.433174 
L 286.066443 67.285633 
L 287.117105 65.053367 
L 288.167767 66.961594 
L 289.218429 66.601552 
L 290.269091 66.025483 
L 291.319753 67.789693 
L 292.370415 64.333282 
L 293.421077 67.249629 
L 294.471739 63.793217 
L 295.522401 66.385526 
L 296.573063 67.249629 
L 297.623725 63.39717 
L 298.674387 68.041723 
L 299.725049 64.729329 
L 300.775711 66.385526 
L 301.826372 64.765333 
L 302.877034 67.717684 
L 303.927696 66.385526 
L 304.978358 63.289157 
L 306.02902 66.601552 
L 307.079682 64.621316 
L 308.130344 64.513303 
L 309.181006 63.757213 
L 310.231668 65.737449 
L 311.28233 63.433174 
L 312.332992 63.001123 
L 313.383654 66.349522 
L 314.434316 64.369286 
L 315.484978 61.092896 
L 316.53564 60.192789 
L 317.586302 65.989479 
L 318.636964 63.253153 
L 319.687626 61.344926 
L 320.738288 61.344926 
L 321.78895 59.292682 
L 322.839612 63.90123 
L 323.890274 62.497063 
L 325.991598 62.209029 
L 327.042259 63.181144 
L 328.092921 60.228793 
L 329.143583 62.677084 
L 330.194245 58.788622 
L 331.244907 60.516827 
L 332.295569 59.328686 
L 333.346231 59.400694 
L 334.396893 58.212553 
L 335.447555 59.076656 
L 336.498217 58.932639 
L 337.548879 59.184669 
L 338.599541 59.86875 
L 339.650203 58.35657 
L 340.700865 59.436699 
L 341.751527 60.084776 
L 342.802189 60.588836 
L 343.852851 57.528471 
L 344.903513 56.772381 
L 345.954175 56.808386 
L 347.004837 57.708493 
L 348.055499 56.34033 
L 349.106161 58.068536 
L 350.156823 57.024411 
L 351.207485 57.060416 
L 352.258147 58.10454 
L 353.308808 56.628364 
L 354.35947 56.664369 
L 355.410132 55.764261 
L 356.460794 57.240437 
L 357.511456 56.772381 
L 358.562118 55.908279 
L 360.663442 55.692253 
L 361.714104 56.0883 
L 363.815428 54.57612 
L 364.86609 55.404219 
L 365.916752 54.684133 
L 366.967414 54.684133 
L 368.018076 55.548236 
L 369.068738 54.864154 
L 370.1194 54.504111 
L 371.170062 55.188193 
L 372.220724 54.036056 
L 373.271386 54.648129 
L 374.322048 54.936163 
L 375.37271 54.360094 
L 376.423372 53.604004 
L 377.474034 54.144069 
L 378.524695 53.568 
L 379.575357 54.180073 
L 380.626019 54.648129 
L 381.676681 53.676013 
L 382.727343 54.036056 
L 383.778005 53.640009 
L 384.828667 54.108064 
L 385.879329 53.928043 
L 386.929991 54.648129 
L 387.980653 54.540116 
L 389.031315 54.180073 
L 390.081977 54.036056 
L 391.132639 53.568 
L 392.183301 53.928043 
L 393.233963 53.928043 
L 394.284625 53.568 
L 395.335287 54.07206 
L 396.385949 53.568 
L 397.436611 54.000051 
L 398.487273 54.000051 
L 398.487273 54.000051 
" style="fill:none;stroke:#ff7f0e;stroke-linecap:square;stroke-width:1.5;"/>
   </g>
   <g id="patch_3">
    <path d="M 57.6 307.584 
L 57.6 41.472 
" style="fill:none;stroke:#000000;stroke-linecap:square;stroke-linejoin:miter;stroke-width:0.8;"/>
   </g>
   <g id="patch_4">
    <path d="M 414.72 307.584 
L 414.72 41.472 
" style="fill:none;stroke:#000000;stroke-linecap:square;stroke-linejoin:miter;stroke-width:0.8;"/>
   </g>
   <g id="patch_5">
    <path d="M 57.6 307.584 
L 414.72 307.584 
" style="fill:none;stroke:#000000;stroke-linecap:square;stroke-linejoin:miter;stroke-width:0.8;"/>
   </g>
   <g id="patch_6">
    <path d="M 57.6 41.472 
L 414.72 41.472 
" style="fill:none;stroke:#000000;stroke-linecap:square;stroke-linejoin:miter;stroke-width:0.8;"/>
   </g>
   <g id="text_20">
    <!-- Training and Validation Accuracy -->
    <g transform="translate(138.4575 35.472)scale(0.12 -0.12)">
     <defs>
      <path d="M -19 4666 
L 3928 4666 
L 3928 4134 
L 2272 4134 
L 2272 0 
L 1638 0 
L 1638 4134 
L -19 4134 
L -19 4666 
z
" id="DejaVuSans-54" transform="scale(0.015625)"/>
      <path d="M 603 3500 
L 1178 3500 
L 1178 0 
L 603 0 
L 603 3500 
z
M 603 4863 
L 1178 4863 
L 1178 4134 
L 603 4134 
L 603 4863 
z
" id="DejaVuSans-69" transform="scale(0.015625)"/>
      <path d="M 3513 2113 
L 3513 0 
L 2938 0 
L 2938 2094 
Q 2938 2591 2744 2837 
Q 2550 3084 2163 3084 
Q 1697 3084 1428 2787 
Q 1159 2491 1159 1978 
L 1159 0 
L 581 0 
L 581 3500 
L 1159 3500 
L 1159 2956 
Q 1366 3272 1645 3428 
Q 1925 3584 2291 3584 
Q 2894 3584 3203 3211 
Q 3513 2838 3513 2113 
z
" id="DejaVuSans-6e" transform="scale(0.015625)"/>
      <path d="M 2906 1791 
Q 2906 2416 2648 2759 
Q 2391 3103 1925 3103 
Q 1463 3103 1205 2759 
Q 947 2416 947 1791 
Q 947 1169 1205 825 
Q 1463 481 1925 481 
Q 2391 481 2648 825 
Q 2906 1169 2906 1791 
z
M 3481 434 
Q 3481 -459 3084 -895 
Q 2688 -1331 1869 -1331 
Q 1566 -1331 1297 -1286 
Q 1028 -1241 775 -1147 
L 775 -588 
Q 1028 -725 1275 -790 
Q 1522 -856 1778 -856 
Q 2344 -856 2625 -561 
Q 2906 -266 2906 331 
L 2906 616 
Q 2728 306 2450 153 
Q 2172 0 1784 0 
Q 1141 0 747 490 
Q 353 981 353 1791 
Q 353 2603 747 3093 
Q 1141 3584 1784 3584 
Q 2172 3584 2450 3431 
Q 2728 3278 2906 2969 
L 2906 3500 
L 3481 3500 
L 3481 434 
z
" id="DejaVuSans-67" transform="scale(0.015625)"/>
      <path id="DejaVuSans-20" transform="scale(0.015625)"/>
      <path d="M 2906 2969 
L 2906 4863 
L 3481 4863 
L 3481 0 
L 2906 0 
L 2906 525 
Q 2725 213 2448 61 
Q 2172 -91 1784 -91 
Q 1150 -91 751 415 
Q 353 922 353 1747 
Q 353 2572 751 3078 
Q 1150 3584 1784 3584 
Q 2172 3584 2448 3432 
Q 2725 3281 2906 2969 
z
M 947 1747 
Q 947 1113 1208 752 
Q 1469 391 1925 391 
Q 2381 391 2643 752 
Q 2906 1113 2906 1747 
Q 2906 2381 2643 2742 
Q 2381 3103 1925 3103 
Q 1469 3103 1208 2742 
Q 947 2381 947 1747 
z
" id="DejaVuSans-64" transform="scale(0.015625)"/>
      <path d="M 1831 0 
L 50 4666 
L 709 4666 
L 2188 738 
L 3669 4666 
L 4325 4666 
L 2547 0 
L 1831 0 
z
" id="DejaVuSans-56" transform="scale(0.015625)"/>
      <path d="M 603 4863 
L 1178 4863 
L 1178 0 
L 603 0 
L 603 4863 
z
" id="DejaVuSans-6c" transform="scale(0.015625)"/>
      <path d="M 1172 4494 
L 1172 3500 
L 2356 3500 
L 2356 3053 
L 1172 3053 
L 1172 1153 
Q 1172 725 1289 603 
Q 1406 481 1766 481 
L 2356 481 
L 2356 0 
L 1766 0 
Q 1100 0 847 248 
Q 594 497 594 1153 
L 594 3053 
L 172 3053 
L 172 3500 
L 594 3500 
L 594 4494 
L 1172 4494 
z
" id="DejaVuSans-74" transform="scale(0.015625)"/>
     </defs>
     <use xlink:href="#DejaVuSans-54"/>
     <use x="46.333984" xlink:href="#DejaVuSans-72"/>
     <use x="87.447266" xlink:href="#DejaVuSans-61"/>
     <use x="148.726562" xlink:href="#DejaVuSans-69"/>
     <use x="176.509766" xlink:href="#DejaVuSans-6e"/>
     <use x="239.888672" xlink:href="#DejaVuSans-69"/>
     <use x="267.671875" xlink:href="#DejaVuSans-6e"/>
     <use x="331.050781" xlink:href="#DejaVuSans-67"/>
     <use x="394.527344" xlink:href="#DejaVuSans-20"/>
     <use x="426.314453" xlink:href="#DejaVuSans-61"/>
     <use x="487.59375" xlink:href="#DejaVuSans-6e"/>
     <use x="550.972656" xlink:href="#DejaVuSans-64"/>
     <use x="614.449219" xlink:href="#DejaVuSans-20"/>
     <use x="646.236328" xlink:href="#DejaVuSans-56"/>
     <use x="706.894531" xlink:href="#DejaVuSans-61"/>
     <use x="768.173828" xlink:href="#DejaVuSans-6c"/>
     <use x="795.957031" xlink:href="#DejaVuSans-69"/>
     <use x="823.740234" xlink:href="#DejaVuSans-64"/>
     <use x="887.216797" xlink:href="#DejaVuSans-61"/>
     <use x="948.496094" xlink:href="#DejaVuSans-74"/>
     <use x="987.705078" xlink:href="#DejaVuSans-69"/>
     <use x="1015.488281" xlink:href="#DejaVuSans-6f"/>
     <use x="1076.669922" xlink:href="#DejaVuSans-6e"/>
     <use x="1140.048828" xlink:href="#DejaVuSans-20"/>
     <use x="1171.835938" xlink:href="#DejaVuSans-41"/>
     <use x="1238.494141" xlink:href="#DejaVuSans-63"/>
     <use x="1293.474609" xlink:href="#DejaVuSans-63"/>
     <use x="1348.455078" xlink:href="#DejaVuSans-75"/>
     <use x="1411.833984" xlink:href="#DejaVuSans-72"/>
     <use x="1452.947266" xlink:href="#DejaVuSans-61"/>
     <use x="1514.226562" xlink:href="#DejaVuSans-63"/>
     <use x="1569.207031" xlink:href="#DejaVuSans-79"/>
    </g>
   </g>
   <g id="legend_1">
    <g id="patch_7">
     <path d="M 277.504375 302.584 
L 407.72 302.584 
Q 409.72 302.584 409.72 300.584 
L 409.72 272.22775 
Q 409.72 270.22775 407.72 270.22775 
L 277.504375 270.22775 
Q 275.504375 270.22775 275.504375 272.22775 
L 275.504375 300.584 
Q 275.504375 302.584 277.504375 302.584 
z
" style="fill:#ffffff;opacity:0.8;stroke:#cccccc;stroke-linejoin:miter;"/>
    </g>
    <g id="line2d_20">
     <path d="M 279.504375 278.326187 
L 299.504375 278.326187 
" style="fill:none;stroke:#1f77b4;stroke-linecap:square;stroke-width:1.5;"/>
    </g>
    <g id="line2d_21"/>
    <g id="text_21">
     <!-- Train Accuracy -->
     <g transform="translate(307.504375 281.826187)scale(0.1 -0.1)">
      <use xlink:href="#DejaVuSans-54"/>
      <use x="46.333984" xlink:href="#DejaVuSans-72"/>
      <use x="87.447266" xlink:href="#DejaVuSans-61"/>
      <use x="148.726562" xlink:href="#DejaVuSans-69"/>
      <use x="176.509766" xlink:href="#DejaVuSans-6e"/>
      <use x="239.888672" xlink:href="#DejaVuSans-20"/>
      <use x="271.675781" xlink:href="#DejaVuSans-41"/>
      <use x="338.333984" xlink:href="#DejaVuSans-63"/>
      <use x="393.314453" xlink:href="#DejaVuSans-63"/>
      <use x="448.294922" xlink:href="#DejaVuSans-75"/>
      <use x="511.673828" xlink:href="#DejaVuSans-72"/>
      <use x="552.787109" xlink:href="#DejaVuSans-61"/>
      <use x="614.066406" xlink:href="#DejaVuSans-63"/>
      <use x="669.046875" xlink:href="#DejaVuSans-79"/>
     </g>
    </g>
    <g id="line2d_22">
     <path d="M 279.504375 293.004312 
L 299.504375 293.004312 
" style="fill:none;stroke:#ff7f0e;stroke-linecap:square;stroke-width:1.5;"/>
    </g>
    <g id="line2d_23"/>
    <g id="text_22">
     <!-- Validation Accuracy -->
     <g transform="translate(307.504375 296.504312)scale(0.1 -0.1)">
      <use xlink:href="#DejaVuSans-56"/>
      <use x="60.658203" xlink:href="#DejaVuSans-61"/>
      <use x="121.9375" xlink:href="#DejaVuSans-6c"/>
      <use x="149.720703" xlink:href="#DejaVuSans-69"/>
      <use x="177.503906" xlink:href="#DejaVuSans-64"/>
      <use x="240.980469" xlink:href="#DejaVuSans-61"/>
      <use x="302.259766" xlink:href="#DejaVuSans-74"/>
      <use x="341.46875" xlink:href="#DejaVuSans-69"/>
      <use x="369.251953" xlink:href="#DejaVuSans-6f"/>
      <use x="430.433594" xlink:href="#DejaVuSans-6e"/>
      <use x="493.8125" xlink:href="#DejaVuSans-20"/>
      <use x="525.599609" xlink:href="#DejaVuSans-41"/>
      <use x="592.257812" xlink:href="#DejaVuSans-63"/>
      <use x="647.238281" xlink:href="#DejaVuSans-63"/>
      <use x="702.21875" xlink:href="#DejaVuSans-75"/>
      <use x="765.597656" xlink:href="#DejaVuSans-72"/>
      <use x="806.710938" xlink:href="#DejaVuSans-61"/>
      <use x="867.990234" xlink:href="#DejaVuSans-63"/>
      <use x="922.970703" xlink:href="#DejaVuSans-79"/>
     </g>
    </g>
   </g>
  </g>
 </g>
 <defs>
  <clipPath id="pfc9a7ae5b4">
   <rect height="266.112" width="357.12" x="57.6" y="41.472"/>
  </clipPath>
 </defs>
</svg>
