<?xml version="1.0" encoding="utf-8" standalone="no"?>
<!DOCTYPE svg PUBLIC "-//W3C//DTD SVG 1.1//EN"
  "http://www.w3.org/Graphics/SVG/1.1/DTD/svg11.dtd">
<svg height="345.6pt" version="1.1" viewBox="0 0 460.8 345.6" width="460.8pt" xmlns="http://www.w3.org/2000/svg" xmlns:xlink="http://www.w3.org/1999/xlink">
 <metadata>
  <rdf:RDF xmlns:cc="http://creativecommons.org/ns#" xmlns:dc="http://purl.org/dc/elements/1.1/" xmlns:rdf="http://www.w3.org/1999/02/22-rdf-syntax-ns#">
   <cc:Work>
    <dc:type rdf:resource="http://purl.org/dc/dcmitype/StillImage"/>
    <dc:date>2024-01-16T13:17:28.110842</dc:date>
    <dc:format>image/svg+xml</dc:format>
    <dc:creator>
     <cc:Agent>
      <dc:title>Matplotlib v3.4.3, https://matplotlib.org/</dc:title>
     </cc:Agent>
    </dc:creator>
   </cc:Work>
  </rdf:RDF>
 </metadata>
 <defs>
  <style type="text/css">*{stroke-linecap:butt;stroke-linejoin:round;}</style>
 </defs>
 <g id="figure_1">
  <g id="patch_1">
   <path d="M 0 345.6 
L 460.8 345.6 
L 460.8 0 
L 0 0 
z
" style="fill:#ffffff;"/>
  </g>
  <g id="axes_1">
   <g id="patch_2">
    <path d="M 57.6 307.584 
L 414.72 307.584 
L 414.72 41.472 
L 57.6 41.472 
z
" style="fill:#ffffff;"/>
   </g>
   <g id="matplotlib.axis_1">
    <g id="xtick_1">
     <g id="line2d_1">
      <defs>
       <path d="M 0 0 
L 0 3.5 
" id="m27cd1abc4b" style="stroke:#000000;stroke-width:0.8;"/>
      </defs>
      <g>
       <use style="stroke:#000000;stroke-width:0.8;" x="73.832727" xlink:href="#m27cd1abc4b" y="307.584"/>
      </g>
     </g>
     <g id="text_1">
      <!-- 1 -->
      <g transform="translate(70.651477 322.182437)scale(0.1 -0.1)">
       <defs>
        <path d="M 794 531 
L 1825 531 
L 1825 4091 
L 703 3866 
L 703 4441 
L 1819 4666 
L 2450 4666 
L 2450 531 
L 3481 531 
L 3481 0 
L 794 0 
L 794 531 
z
" id="DejaVuSans-31" transform="scale(0.015625)"/>
       </defs>
       <use xlink:href="#DejaVuSans-31"/>
      </g>
     </g>
    </g>
    <g id="xtick_2">
     <g id="line2d_2">
      <g>
       <use style="stroke:#000000;stroke-width:0.8;" x="109.555234" xlink:href="#m27cd1abc4b" y="307.584"/>
      </g>
     </g>
     <g id="text_2">
      <!-- 35 -->
      <g transform="translate(103.192734 322.182437)scale(0.1 -0.1)">
       <defs>
        <path d="M 2597 2516 
Q 3050 2419 3304 2112 
Q 3559 1806 3559 1356 
Q 3559 666 3084 287 
Q 2609 -91 1734 -91 
Q 1441 -91 1130 -33 
Q 819 25 488 141 
L 488 750 
Q 750 597 1062 519 
Q 1375 441 1716 441 
Q 2309 441 2620 675 
Q 2931 909 2931 1356 
Q 2931 1769 2642 2001 
Q 2353 2234 1838 2234 
L 1294 2234 
L 1294 2753 
L 1863 2753 
Q 2328 2753 2575 2939 
Q 2822 3125 2822 3475 
Q 2822 3834 2567 4026 
Q 2313 4219 1838 4219 
Q 1578 4219 1281 4162 
Q 984 4106 628 3988 
L 628 4550 
Q 988 4650 1302 4700 
Q 1616 4750 1894 4750 
Q 2613 4750 3031 4423 
Q 3450 4097 3450 3541 
Q 3450 3153 3228 2886 
Q 3006 2619 2597 2516 
z
" id="DejaVuSans-33" transform="scale(0.015625)"/>
        <path d="M 691 4666 
L 3169 4666 
L 3169 4134 
L 1269 4134 
L 1269 2991 
Q 1406 3038 1543 3061 
Q 1681 3084 1819 3084 
Q 2600 3084 3056 2656 
Q 3513 2228 3513 1497 
Q 3513 744 3044 326 
Q 2575 -91 1722 -91 
Q 1428 -91 1123 -41 
Q 819 9 494 109 
L 494 744 
Q 775 591 1075 516 
Q 1375 441 1709 441 
Q 2250 441 2565 725 
Q 2881 1009 2881 1497 
Q 2881 1984 2565 2268 
Q 2250 2553 1709 2553 
Q 1456 2553 1204 2497 
Q 953 2441 691 2322 
L 691 4666 
z
" id="DejaVuSans-35" transform="scale(0.015625)"/>
       </defs>
       <use xlink:href="#DejaVuSans-33"/>
       <use x="63.623047" xlink:href="#DejaVuSans-35"/>
      </g>
     </g>
    </g>
    <g id="xtick_3">
     <g id="line2d_3">
      <g>
       <use style="stroke:#000000;stroke-width:0.8;" x="145.277741" xlink:href="#m27cd1abc4b" y="307.584"/>
      </g>
     </g>
     <g id="text_3">
      <!-- 69 -->
      <g transform="translate(138.915241 322.182437)scale(0.1 -0.1)">
       <defs>
        <path d="M 2113 2584 
Q 1688 2584 1439 2293 
Q 1191 2003 1191 1497 
Q 1191 994 1439 701 
Q 1688 409 2113 409 
Q 2538 409 2786 701 
Q 3034 994 3034 1497 
Q 3034 2003 2786 2293 
Q 2538 2584 2113 2584 
z
M 3366 4563 
L 3366 3988 
Q 3128 4100 2886 4159 
Q 2644 4219 2406 4219 
Q 1781 4219 1451 3797 
Q 1122 3375 1075 2522 
Q 1259 2794 1537 2939 
Q 1816 3084 2150 3084 
Q 2853 3084 3261 2657 
Q 3669 2231 3669 1497 
Q 3669 778 3244 343 
Q 2819 -91 2113 -91 
Q 1303 -91 875 529 
Q 447 1150 447 2328 
Q 447 3434 972 4092 
Q 1497 4750 2381 4750 
Q 2619 4750 2861 4703 
Q 3103 4656 3366 4563 
z
" id="DejaVuSans-36" transform="scale(0.015625)"/>
        <path d="M 703 97 
L 703 672 
Q 941 559 1184 500 
Q 1428 441 1663 441 
Q 2288 441 2617 861 
Q 2947 1281 2994 2138 
Q 2813 1869 2534 1725 
Q 2256 1581 1919 1581 
Q 1219 1581 811 2004 
Q 403 2428 403 3163 
Q 403 3881 828 4315 
Q 1253 4750 1959 4750 
Q 2769 4750 3195 4129 
Q 3622 3509 3622 2328 
Q 3622 1225 3098 567 
Q 2575 -91 1691 -91 
Q 1453 -91 1209 -44 
Q 966 3 703 97 
z
M 1959 2075 
Q 2384 2075 2632 2365 
Q 2881 2656 2881 3163 
Q 2881 3666 2632 3958 
Q 2384 4250 1959 4250 
Q 1534 4250 1286 3958 
Q 1038 3666 1038 3163 
Q 1038 2656 1286 2365 
Q 1534 2075 1959 2075 
z
" id="DejaVuSans-39" transform="scale(0.015625)"/>
       </defs>
       <use xlink:href="#DejaVuSans-36"/>
       <use x="63.623047" xlink:href="#DejaVuSans-39"/>
      </g>
     </g>
    </g>
    <g id="xtick_4">
     <g id="line2d_4">
      <g>
       <use style="stroke:#000000;stroke-width:0.8;" x="182.050909" xlink:href="#m27cd1abc4b" y="307.584"/>
      </g>
     </g>
     <g id="text_4">
      <!-- 104 -->
      <g transform="translate(172.507159 322.182437)scale(0.1 -0.1)">
       <defs>
        <path d="M 2034 4250 
Q 1547 4250 1301 3770 
Q 1056 3291 1056 2328 
Q 1056 1369 1301 889 
Q 1547 409 2034 409 
Q 2525 409 2770 889 
Q 3016 1369 3016 2328 
Q 3016 3291 2770 3770 
Q 2525 4250 2034 4250 
z
M 2034 4750 
Q 2819 4750 3233 4129 
Q 3647 3509 3647 2328 
Q 3647 1150 3233 529 
Q 2819 -91 2034 -91 
Q 1250 -91 836 529 
Q 422 1150 422 2328 
Q 422 3509 836 4129 
Q 1250 4750 2034 4750 
z
" id="DejaVuSans-30" transform="scale(0.015625)"/>
        <path d="M 2419 4116 
L 825 1625 
L 2419 1625 
L 2419 4116 
z
M 2253 4666 
L 3047 4666 
L 3047 1625 
L 3713 1625 
L 3713 1100 
L 3047 1100 
L 3047 0 
L 2419 0 
L 2419 1100 
L 313 1100 
L 313 1709 
L 2253 4666 
z
" id="DejaVuSans-34" transform="scale(0.015625)"/>
       </defs>
       <use xlink:href="#DejaVuSans-31"/>
       <use x="63.623047" xlink:href="#DejaVuSans-30"/>
       <use x="127.246094" xlink:href="#DejaVuSans-34"/>
      </g>
     </g>
    </g>
    <g id="xtick_5">
     <g id="line2d_5">
      <g>
       <use style="stroke:#000000;stroke-width:0.8;" x="217.773416" xlink:href="#m27cd1abc4b" y="307.584"/>
      </g>
     </g>
     <g id="text_5">
      <!-- 138 -->
      <g transform="translate(208.229666 322.182437)scale(0.1 -0.1)">
       <defs>
        <path d="M 2034 2216 
Q 1584 2216 1326 1975 
Q 1069 1734 1069 1313 
Q 1069 891 1326 650 
Q 1584 409 2034 409 
Q 2484 409 2743 651 
Q 3003 894 3003 1313 
Q 3003 1734 2745 1975 
Q 2488 2216 2034 2216 
z
M 1403 2484 
Q 997 2584 770 2862 
Q 544 3141 544 3541 
Q 544 4100 942 4425 
Q 1341 4750 2034 4750 
Q 2731 4750 3128 4425 
Q 3525 4100 3525 3541 
Q 3525 3141 3298 2862 
Q 3072 2584 2669 2484 
Q 3125 2378 3379 2068 
Q 3634 1759 3634 1313 
Q 3634 634 3220 271 
Q 2806 -91 2034 -91 
Q 1263 -91 848 271 
Q 434 634 434 1313 
Q 434 1759 690 2068 
Q 947 2378 1403 2484 
z
M 1172 3481 
Q 1172 3119 1398 2916 
Q 1625 2713 2034 2713 
Q 2441 2713 2670 2916 
Q 2900 3119 2900 3481 
Q 2900 3844 2670 4047 
Q 2441 4250 2034 4250 
Q 1625 4250 1398 4047 
Q 1172 3844 1172 3481 
z
" id="DejaVuSans-38" transform="scale(0.015625)"/>
       </defs>
       <use xlink:href="#DejaVuSans-31"/>
       <use x="63.623047" xlink:href="#DejaVuSans-33"/>
       <use x="127.246094" xlink:href="#DejaVuSans-38"/>
      </g>
     </g>
    </g>
    <g id="xtick_6">
     <g id="line2d_6">
      <g>
       <use style="stroke:#000000;stroke-width:0.8;" x="253.495922" xlink:href="#m27cd1abc4b" y="307.584"/>
      </g>
     </g>
     <g id="text_6">
      <!-- 172 -->
      <g transform="translate(243.952172 322.182437)scale(0.1 -0.1)">
       <defs>
        <path d="M 525 4666 
L 3525 4666 
L 3525 4397 
L 1831 0 
L 1172 0 
L 2766 4134 
L 525 4134 
L 525 4666 
z
" id="DejaVuSans-37" transform="scale(0.015625)"/>
        <path d="M 1228 531 
L 3431 531 
L 3431 0 
L 469 0 
L 469 531 
Q 828 903 1448 1529 
Q 2069 2156 2228 2338 
Q 2531 2678 2651 2914 
Q 2772 3150 2772 3378 
Q 2772 3750 2511 3984 
Q 2250 4219 1831 4219 
Q 1534 4219 1204 4116 
Q 875 4013 500 3803 
L 500 4441 
Q 881 4594 1212 4672 
Q 1544 4750 1819 4750 
Q 2544 4750 2975 4387 
Q 3406 4025 3406 3419 
Q 3406 3131 3298 2873 
Q 3191 2616 2906 2266 
Q 2828 2175 2409 1742 
Q 1991 1309 1228 531 
z
" id="DejaVuSans-32" transform="scale(0.015625)"/>
       </defs>
       <use xlink:href="#DejaVuSans-31"/>
       <use x="63.623047" xlink:href="#DejaVuSans-37"/>
       <use x="127.246094" xlink:href="#DejaVuSans-32"/>
      </g>
     </g>
    </g>
    <g id="xtick_7">
     <g id="line2d_7">
      <g>
       <use style="stroke:#000000;stroke-width:0.8;" x="290.269091" xlink:href="#m27cd1abc4b" y="307.584"/>
      </g>
     </g>
     <g id="text_7">
      <!-- 207 -->
      <g transform="translate(280.725341 322.182437)scale(0.1 -0.1)">
       <use xlink:href="#DejaVuSans-32"/>
       <use x="63.623047" xlink:href="#DejaVuSans-30"/>
       <use x="127.246094" xlink:href="#DejaVuSans-37"/>
      </g>
     </g>
    </g>
    <g id="xtick_8">
     <g id="line2d_8">
      <g>
       <use style="stroke:#000000;stroke-width:0.8;" x="325.991598" xlink:href="#m27cd1abc4b" y="307.584"/>
      </g>
     </g>
     <g id="text_8">
      <!-- 241 -->
      <g transform="translate(316.447848 322.182437)scale(0.1 -0.1)">
       <use xlink:href="#DejaVuSans-32"/>
       <use x="63.623047" xlink:href="#DejaVuSans-34"/>
       <use x="127.246094" xlink:href="#DejaVuSans-31"/>
      </g>
     </g>
    </g>
    <g id="xtick_9">
     <g id="line2d_9">
      <g>
       <use style="stroke:#000000;stroke-width:0.8;" x="361.714104" xlink:href="#m27cd1abc4b" y="307.584"/>
      </g>
     </g>
     <g id="text_9">
      <!-- 275 -->
      <g transform="translate(352.170354 322.182437)scale(0.1 -0.1)">
       <use xlink:href="#DejaVuSans-32"/>
       <use x="63.623047" xlink:href="#DejaVuSans-37"/>
       <use x="127.246094" xlink:href="#DejaVuSans-35"/>
      </g>
     </g>
    </g>
    <g id="xtick_10">
     <g id="line2d_10">
      <g>
       <use style="stroke:#000000;stroke-width:0.8;" x="398.487273" xlink:href="#m27cd1abc4b" y="307.584"/>
      </g>
     </g>
     <g id="text_10">
      <!-- 310 -->
      <g transform="translate(388.943523 322.182437)scale(0.1 -0.1)">
       <use xlink:href="#DejaVuSans-33"/>
       <use x="63.623047" xlink:href="#DejaVuSans-31"/>
       <use x="127.246094" xlink:href="#DejaVuSans-30"/>
      </g>
     </g>
    </g>
    <g id="text_11">
     <!-- Epochs -->
     <g transform="translate(218.244375 335.860562)scale(0.1 -0.1)">
      <defs>
       <path d="M 628 4666 
L 3578 4666 
L 3578 4134 
L 1259 4134 
L 1259 2753 
L 3481 2753 
L 3481 2222 
L 1259 2222 
L 1259 531 
L 3634 531 
L 3634 0 
L 628 0 
L 628 4666 
z
" id="DejaVuSans-45" transform="scale(0.015625)"/>
       <path d="M 1159 525 
L 1159 -1331 
L 581 -1331 
L 581 3500 
L 1159 3500 
L 1159 2969 
Q 1341 3281 1617 3432 
Q 1894 3584 2278 3584 
Q 2916 3584 3314 3078 
Q 3713 2572 3713 1747 
Q 3713 922 3314 415 
Q 2916 -91 2278 -91 
Q 1894 -91 1617 61 
Q 1341 213 1159 525 
z
M 3116 1747 
Q 3116 2381 2855 2742 
Q 2594 3103 2138 3103 
Q 1681 3103 1420 2742 
Q 1159 2381 1159 1747 
Q 1159 1113 1420 752 
Q 1681 391 2138 391 
Q 2594 391 2855 752 
Q 3116 1113 3116 1747 
z
" id="DejaVuSans-70" transform="scale(0.015625)"/>
       <path d="M 1959 3097 
Q 1497 3097 1228 2736 
Q 959 2375 959 1747 
Q 959 1119 1226 758 
Q 1494 397 1959 397 
Q 2419 397 2687 759 
Q 2956 1122 2956 1747 
Q 2956 2369 2687 2733 
Q 2419 3097 1959 3097 
z
M 1959 3584 
Q 2709 3584 3137 3096 
Q 3566 2609 3566 1747 
Q 3566 888 3137 398 
Q 2709 -91 1959 -91 
Q 1206 -91 779 398 
Q 353 888 353 1747 
Q 353 2609 779 3096 
Q 1206 3584 1959 3584 
z
" id="DejaVuSans-6f" transform="scale(0.015625)"/>
       <path d="M 3122 3366 
L 3122 2828 
Q 2878 2963 2633 3030 
Q 2388 3097 2138 3097 
Q 1578 3097 1268 2742 
Q 959 2388 959 1747 
Q 959 1106 1268 751 
Q 1578 397 2138 397 
Q 2388 397 2633 464 
Q 2878 531 3122 666 
L 3122 134 
Q 2881 22 2623 -34 
Q 2366 -91 2075 -91 
Q 1284 -91 818 406 
Q 353 903 353 1747 
Q 353 2603 823 3093 
Q 1294 3584 2113 3584 
Q 2378 3584 2631 3529 
Q 2884 3475 3122 3366 
z
" id="DejaVuSans-63" transform="scale(0.015625)"/>
       <path d="M 3513 2113 
L 3513 0 
L 2938 0 
L 2938 2094 
Q 2938 2591 2744 2837 
Q 2550 3084 2163 3084 
Q 1697 3084 1428 2787 
Q 1159 2491 1159 1978 
L 1159 0 
L 581 0 
L 581 4863 
L 1159 4863 
L 1159 2956 
Q 1366 3272 1645 3428 
Q 1925 3584 2291 3584 
Q 2894 3584 3203 3211 
Q 3513 2838 3513 2113 
z
" id="DejaVuSans-68" transform="scale(0.015625)"/>
       <path d="M 2834 3397 
L 2834 2853 
Q 2591 2978 2328 3040 
Q 2066 3103 1784 3103 
Q 1356 3103 1142 2972 
Q 928 2841 928 2578 
Q 928 2378 1081 2264 
Q 1234 2150 1697 2047 
L 1894 2003 
Q 2506 1872 2764 1633 
Q 3022 1394 3022 966 
Q 3022 478 2636 193 
Q 2250 -91 1575 -91 
Q 1294 -91 989 -36 
Q 684 19 347 128 
L 347 722 
Q 666 556 975 473 
Q 1284 391 1588 391 
Q 1994 391 2212 530 
Q 2431 669 2431 922 
Q 2431 1156 2273 1281 
Q 2116 1406 1581 1522 
L 1381 1569 
Q 847 1681 609 1914 
Q 372 2147 372 2553 
Q 372 3047 722 3315 
Q 1072 3584 1716 3584 
Q 2034 3584 2315 3537 
Q 2597 3491 2834 3397 
z
" id="DejaVuSans-73" transform="scale(0.015625)"/>
      </defs>
      <use xlink:href="#DejaVuSans-45"/>
      <use x="63.183594" xlink:href="#DejaVuSans-70"/>
      <use x="126.660156" xlink:href="#DejaVuSans-6f"/>
      <use x="187.841797" xlink:href="#DejaVuSans-63"/>
      <use x="242.822266" xlink:href="#DejaVuSans-68"/>
      <use x="306.201172" xlink:href="#DejaVuSans-73"/>
     </g>
    </g>
   </g>
   <g id="matplotlib.axis_2">
    <g id="ytick_1">
     <g id="line2d_11">
      <defs>
       <path d="M 0 0 
L -3.5 0 
" id="m3bf61249a7" style="stroke:#000000;stroke-width:0.8;"/>
      </defs>
      <g>
       <use style="stroke:#000000;stroke-width:0.8;" x="57.6" xlink:href="#m3bf61249a7" y="278.052007"/>
      </g>
     </g>
     <g id="text_12">
      <!-- 30 -->
      <g transform="translate(37.875 281.851226)scale(0.1 -0.1)">
       <use xlink:href="#DejaVuSans-33"/>
       <use x="63.623047" xlink:href="#DejaVuSans-30"/>
      </g>
     </g>
    </g>
    <g id="ytick_2">
     <g id="line2d_12">
      <g>
       <use style="stroke:#000000;stroke-width:0.8;" x="57.6" xlink:href="#m3bf61249a7" y="242.827779"/>
      </g>
     </g>
     <g id="text_13">
      <!-- 40 -->
      <g transform="translate(37.875 246.626997)scale(0.1 -0.1)">
       <use xlink:href="#DejaVuSans-34"/>
       <use x="63.623047" xlink:href="#DejaVuSans-30"/>
      </g>
     </g>
    </g>
    <g id="ytick_3">
     <g id="line2d_13">
      <g>
       <use style="stroke:#000000;stroke-width:0.8;" x="57.6" xlink:href="#m3bf61249a7" y="207.60355"/>
      </g>
     </g>
     <g id="text_14">
      <!-- 50 -->
      <g transform="translate(37.875 211.402769)scale(0.1 -0.1)">
       <use xlink:href="#DejaVuSans-35"/>
       <use x="63.623047" xlink:href="#DejaVuSans-30"/>
      </g>
     </g>
    </g>
    <g id="ytick_4">
     <g id="line2d_14">
      <g>
       <use style="stroke:#000000;stroke-width:0.8;" x="57.6" xlink:href="#m3bf61249a7" y="172.379322"/>
      </g>
     </g>
     <g id="text_15">
      <!-- 60 -->
      <g transform="translate(37.875 176.178541)scale(0.1 -0.1)">
       <use xlink:href="#DejaVuSans-36"/>
       <use x="63.623047" xlink:href="#DejaVuSans-30"/>
      </g>
     </g>
    </g>
    <g id="ytick_5">
     <g id="line2d_15">
      <g>
       <use style="stroke:#000000;stroke-width:0.8;" x="57.6" xlink:href="#m3bf61249a7" y="137.155094"/>
      </g>
     </g>
     <g id="text_16">
      <!-- 70 -->
      <g transform="translate(37.875 140.954313)scale(0.1 -0.1)">
       <use xlink:href="#DejaVuSans-37"/>
       <use x="63.623047" xlink:href="#DejaVuSans-30"/>
      </g>
     </g>
    </g>
    <g id="ytick_6">
     <g id="line2d_16">
      <g>
       <use style="stroke:#000000;stroke-width:0.8;" x="57.6" xlink:href="#m3bf61249a7" y="101.930865"/>
      </g>
     </g>
     <g id="text_17">
      <!-- 80 -->
      <g transform="translate(37.875 105.730084)scale(0.1 -0.1)">
       <use xlink:href="#DejaVuSans-38"/>
       <use x="63.623047" xlink:href="#DejaVuSans-30"/>
      </g>
     </g>
    </g>
    <g id="ytick_7">
     <g id="line2d_17">
      <g>
       <use style="stroke:#000000;stroke-width:0.8;" x="57.6" xlink:href="#m3bf61249a7" y="66.706637"/>
      </g>
     </g>
     <g id="text_18">
      <!-- 90 -->
      <g transform="translate(37.875 70.505856)scale(0.1 -0.1)">
       <use xlink:href="#DejaVuSans-39"/>
       <use x="63.623047" xlink:href="#DejaVuSans-30"/>
      </g>
     </g>
    </g>
    <g id="text_19">
     <!-- Accuracy -->
     <g transform="translate(31.795312 197.356125)rotate(-90)scale(0.1 -0.1)">
      <defs>
       <path d="M 2188 4044 
L 1331 1722 
L 3047 1722 
L 2188 4044 
z
M 1831 4666 
L 2547 4666 
L 4325 0 
L 3669 0 
L 3244 1197 
L 1141 1197 
L 716 0 
L 50 0 
L 1831 4666 
z
" id="DejaVuSans-41" transform="scale(0.015625)"/>
       <path d="M 544 1381 
L 544 3500 
L 1119 3500 
L 1119 1403 
Q 1119 906 1312 657 
Q 1506 409 1894 409 
Q 2359 409 2629 706 
Q 2900 1003 2900 1516 
L 2900 3500 
L 3475 3500 
L 3475 0 
L 2900 0 
L 2900 538 
Q 2691 219 2414 64 
Q 2138 -91 1772 -91 
Q 1169 -91 856 284 
Q 544 659 544 1381 
z
M 1991 3584 
L 1991 3584 
z
" id="DejaVuSans-75" transform="scale(0.015625)"/>
       <path d="M 2631 2963 
Q 2534 3019 2420 3045 
Q 2306 3072 2169 3072 
Q 1681 3072 1420 2755 
Q 1159 2438 1159 1844 
L 1159 0 
L 581 0 
L 581 3500 
L 1159 3500 
L 1159 2956 
Q 1341 3275 1631 3429 
Q 1922 3584 2338 3584 
Q 2397 3584 2469 3576 
Q 2541 3569 2628 3553 
L 2631 2963 
z
" id="DejaVuSans-72" transform="scale(0.015625)"/>
       <path d="M 2194 1759 
Q 1497 1759 1228 1600 
Q 959 1441 959 1056 
Q 959 750 1161 570 
Q 1363 391 1709 391 
Q 2188 391 2477 730 
Q 2766 1069 2766 1631 
L 2766 1759 
L 2194 1759 
z
M 3341 1997 
L 3341 0 
L 2766 0 
L 2766 531 
Q 2569 213 2275 61 
Q 1981 -91 1556 -91 
Q 1019 -91 701 211 
Q 384 513 384 1019 
Q 384 1609 779 1909 
Q 1175 2209 1959 2209 
L 2766 2209 
L 2766 2266 
Q 2766 2663 2505 2880 
Q 2244 3097 1772 3097 
Q 1472 3097 1187 3025 
Q 903 2953 641 2809 
L 641 3341 
Q 956 3463 1253 3523 
Q 1550 3584 1831 3584 
Q 2591 3584 2966 3190 
Q 3341 2797 3341 1997 
z
" id="DejaVuSans-61" transform="scale(0.015625)"/>
       <path d="M 2059 -325 
Q 1816 -950 1584 -1140 
Q 1353 -1331 966 -1331 
L 506 -1331 
L 506 -850 
L 844 -850 
Q 1081 -850 1212 -737 
Q 1344 -625 1503 -206 
L 1606 56 
L 191 3500 
L 800 3500 
L 1894 763 
L 2988 3500 
L 3597 3500 
L 2059 -325 
z
" id="DejaVuSans-79" transform="scale(0.015625)"/>
      </defs>
      <use xlink:href="#DejaVuSans-41"/>
      <use x="66.658203" xlink:href="#DejaVuSans-63"/>
      <use x="121.638672" xlink:href="#DejaVuSans-63"/>
      <use x="176.619141" xlink:href="#DejaVuSans-75"/>
      <use x="239.998047" xlink:href="#DejaVuSans-72"/>
      <use x="281.111328" xlink:href="#DejaVuSans-61"/>
      <use x="342.390625" xlink:href="#DejaVuSans-63"/>
      <use x="397.371094" xlink:href="#DejaVuSans-79"/>
     </g>
    </g>
   </g>
   <g id="line2d_18">
    <path clip-path="url(#pddf6c0cf2b)" d="M 73.832727 295.488 
L 74.883389 275.438369 
L 75.934051 258.06578 
L 76.984713 258.875937 
L 78.035375 238.474064 
L 79.086037 225.025454 
L 80.136699 203.207567 
L 81.187361 199.382215 
L 82.238023 202.960997 
L 83.288685 191.935814 
L 84.339347 214.986549 
L 85.390009 216.930926 
L 86.440671 190.111199 
L 87.491333 178.86058 
L 88.541995 185.144582 
L 89.592657 173.513542 
L 90.643319 170.463124 
L 91.693981 161.438677 
L 92.744643 166.77867 
L 93.795305 163.12944 
L 94.845966 154.865836 
L 95.896628 134.37238 
L 96.94729 150.744601 
L 97.997952 133.414281 
L 99.048614 131.660114 
L 100.099276 130.427266 
L 101.149938 124.10804 
L 102.2006 132.442092 
L 103.251262 136.359026 
L 104.301924 127.750225 
L 105.352586 163.904373 
L 106.403248 144.678989 
L 107.45391 162.875825 
L 108.504572 142.086486 
L 109.555234 149.053838 
L 110.605896 146.482469 
L 111.656558 136.351981 
L 112.70722 136.351981 
L 113.757882 135.703856 
L 115.859206 122.790653 
L 116.909868 135.999739 
L 117.96053 129.236687 
L 119.011192 129.645288 
L 120.061853 124.826614 
L 121.112515 128.356082 
L 122.163177 129.715737 
L 123.213839 127.320489 
L 124.264501 114.442511 
L 125.315163 113.251932 
L 126.365825 122.692026 
L 127.416487 122.938595 
L 128.467149 110.962358 
L 129.517811 120.282688 
L 130.568473 112.272699 
L 131.619135 115.266758 
L 132.669797 114.808843 
L 133.720459 108.017612 
L 134.771121 106.411387 
L 135.821783 106.73545 
L 136.872445 104.847432 
L 137.923107 103.382104 
L 138.973769 93.843383 
L 140.024431 104.769938 
L 141.075093 94.104042 
L 142.125755 102.825561 
L 143.176417 107.806267 
L 144.227079 103.966826 
L 145.277741 104.896745 
L 146.328402 100.430313 
L 147.379064 125.298619 
L 148.429726 144.291522 
L 149.480388 130.413176 
L 150.53105 126.115821 
L 151.581712 128.384261 
L 152.632374 120.360182 
L 153.683036 122.677936 
L 154.733698 123.459914 
L 155.78436 122.607487 
L 156.835022 122.241156 
L 157.885684 120.620841 
L 158.936346 109.342043 
L 159.987008 115.527418 
L 161.03767 115.097682 
L 162.088332 111.525945 
L 163.138994 128.546292 
L 164.189656 123.290838 
L 165.240318 115.020189 
L 166.29098 118.331266 
L 167.341642 112.603807 
L 168.392304 116.238947 
L 169.442966 122.501815 
L 170.493628 107.552652 
L 171.544289 113.258977 
L 172.594951 117.838127 
L 173.645613 118.746912 
L 174.696275 113.14626 
L 175.746937 113.646444 
L 176.797599 123.452869 
L 178.898923 99.359497 
L 179.949585 115.985333 
L 181.000247 94.63945 
L 182.050909 103.311655 
L 183.101571 123.769887 
L 184.152233 105.904158 
L 185.202895 109.673151 
L 186.253557 114.357973 
L 187.304219 116.689817 
L 188.354881 117.070239 
L 189.405543 101.48704 
L 190.456205 96.47111 
L 191.506867 112.01204 
L 192.557529 109.757689 
L 193.608191 95.830029 
L 194.658853 97.8519 
L 195.709515 107.369486 
L 196.760177 99.535618 
L 197.810838 89.074022 
L 198.8615 97.062877 
L 199.912162 97.816676 
L 200.962824 92.061037 
L 202.013486 90.78592 
L 203.064148 93.441826 
L 204.11481 80.380683 
L 205.165472 90.264601 
L 206.216134 92.201934 
L 207.266796 101.959045 
L 208.317458 92.307606 
L 209.36812 95.562325 
L 210.418782 87.946847 
L 211.469444 89.764417 
L 212.520106 84.445559 
L 213.570768 90.468902 
L 214.62143 92.490772 
L 215.672092 93.470006 
L 216.722754 86.375846 
L 217.773416 92.596445 
L 218.824078 83.515639 
L 219.87474 89.017663 
L 220.925402 85.903842 
L 221.976064 86.044738 
L 223.026726 84.868249 
L 224.077387 81.613531 
L 225.128049 92.434414 
L 226.178711 80.26092 
L 227.229373 88.4893 
L 228.280035 84.572366 
L 229.330697 86.340622 
L 230.381359 85.657272 
L 231.432021 109.940855 
L 232.482683 118.655329 
L 233.533345 123.924874 
L 234.584007 108.306451 
L 235.634669 117.281584 
L 236.685331 120.45881 
L 237.735993 122.410232 
L 238.786655 111.370959 
L 239.837317 107.320172 
L 240.887979 110.095842 
L 241.938641 105.918248 
L 242.989303 116.837759 
L 244.039965 129.053521 
L 245.090627 104.445875 
L 246.141289 116.478472 
L 247.191951 112.857421 
L 248.242613 123.375376 
L 249.293274 105.488513 
L 250.343936 98.915672 
L 251.394598 103.635718 
L 252.44526 117.140687 
L 253.495922 111.835918 
L 254.546584 100.867094 
L 255.597246 102.311287 
L 256.647908 108.841859 
L 257.69857 109.511119 
L 258.749232 112.152937 
L 259.799894 104.241575 
L 260.850556 108.686872 
L 261.901218 115.562642 
L 262.95188 111.786605 
L 264.002542 112.829242 
L 265.053204 109.976079 
L 267.154528 119.331634 
L 269.255852 103.663897 
L 270.306514 103.847063 
L 271.357176 108.55302 
L 272.407838 102.38878 
L 273.4585 100.606434 
L 274.509162 110.328321 
L 275.559823 110.222649 
L 276.610485 104.079543 
L 277.661147 115.576732 
L 278.711809 102.691709 
L 279.762471 101.96609 
L 280.813133 99.401766 
L 281.863795 110.807371 
L 282.914457 97.957573 
L 283.965119 97.506702 
L 285.015781 106.319804 
L 286.066443 101.148888 
L 287.117105 105.988697 
L 288.167767 97.915303 
L 289.218429 91.109983 
L 290.269091 101.085484 
L 291.319753 91.828557 
L 292.370415 100.190789 
L 293.421077 94.942379 
L 294.471739 93.413647 
L 295.522401 101.451816 
L 296.573063 100.881183 
L 297.623725 96.513379 
L 298.674387 96.47111 
L 299.725049 101.000946 
L 300.775711 90.962041 
L 301.826372 93.209347 
L 302.877034 94.554912 
L 303.927696 103.854108 
L 304.978358 97.675779 
L 306.02902 106.756585 
L 307.079682 86.87603 
L 308.130344 108.299406 
L 309.181006 96.816308 
L 310.231668 95.505966 
L 311.28233 100.634614 
L 312.332992 108.792545 
L 313.383654 89.856 
L 314.434316 95.217128 
L 315.484978 86.143366 
L 316.53564 87.622784 
L 317.586302 86.784447 
L 318.636964 92.237158 
L 319.687626 87.545291 
L 320.738288 90.652068 
L 321.78895 85.74181 
L 322.839612 83.67767 
L 323.890274 88.221596 
L 324.940936 94.012459 
L 325.991598 103.07213 
L 327.042259 98.232321 
L 328.092921 88.214551 
L 329.143583 92.899373 
L 330.194245 93.653172 
L 331.244907 88.862677 
L 332.295569 80.359548 
L 333.346231 91.821512 
L 334.396893 82.804109 
L 335.447555 83.092948 
L 336.498217 84.5935 
L 337.548879 91.751063 
L 338.599541 78.401081 
L 339.650203 81.817831 
L 340.700865 87.862309 
L 341.751527 87.467797 
L 342.802189 88.580883 
L 343.852851 88.454076 
L 344.903513 75.350663 
L 345.954175 74.434833 
L 347.004837 82.155984 
L 348.055499 78.295408 
L 349.106161 71.095576 
L 350.156823 78.718099 
L 351.207485 74.181218 
L 352.258147 85.354344 
L 353.308808 72.617263 
L 354.35947 85.502285 
L 355.410132 90.046211 
L 356.460794 80.352503 
L 357.511456 93.04027 
L 358.562118 79.013983 
L 359.61278 74.956151 
L 360.663442 74.956151 
L 361.714104 79.063296 
L 362.764766 77.492296 
L 363.815428 81.40923 
L 364.86609 75.604277 
L 365.916752 81.521948 
L 366.967414 77.464116 
L 368.018076 80.105934 
L 369.068738 86.742178 
L 370.1194 74.378474 
L 371.170062 72.131168 
L 372.220724 74.061456 
L 373.271386 72.27911 
L 374.322048 73.63172 
L 375.37271 80.542714 
L 376.423372 70.165656 
L 377.474034 90.729561 
L 378.524695 76.372165 
L 379.575357 78.781503 
L 380.626019 76.083327 
L 381.676681 74.610954 
L 382.727343 65.797852 
L 383.778005 72.314334 
L 384.828667 67.523839 
L 385.879329 75.216811 
L 386.929991 80.091844 
L 387.980653 70.207925 
L 389.031315 70.250195 
L 390.081977 75.562008 
L 391.132639 71.328056 
L 392.183301 72.941326 
L 393.233963 69.75001 
L 394.284625 71.490087 
L 395.335287 73.575362 
L 396.385949 78.295408 
L 397.436611 72.617263 
L 398.487273 73.300613 
L 398.487273 73.300613 
" style="fill:none;stroke:#1f77b4;stroke-linecap:square;stroke-width:1.5;"/>
   </g>
   <g id="line2d_19">
    <path clip-path="url(#pddf6c0cf2b)" d="M 73.832727 286.505822 
L 74.883389 260.263772 
L 75.934051 247.160359 
L 76.984713 253.183702 
L 78.035375 235.712485 
L 79.086037 201.051844 
L 80.136699 174.880242 
L 81.187361 171.639613 
L 82.238023 178.719683 
L 83.288685 160.931448 
L 84.339347 191.717423 
L 85.390009 205.384424 
L 86.440671 179.77641 
L 87.491333 150.610749 
L 88.541995 175.021139 
L 89.592657 155.11945 
L 90.643319 161.847278 
L 91.693981 134.759846 
L 92.744643 137.648233 
L 93.795305 126.940068 
L 94.845966 126.200359 
L 95.896628 115.809211 
L 96.94729 111.864098 
L 97.997952 103.515956 
L 99.048614 98.54934 
L 100.099276 95.872298 
L 101.149938 99.183376 
L 102.2006 96.893801 
L 103.251262 95.907522 
L 104.301924 94.569002 
L 105.352586 152.301512 
L 106.403248 113.871879 
L 107.45391 128.525158 
L 108.504572 129.969351 
L 109.555234 121.762106 
L 110.605896 120.282688 
L 111.656558 101.754744 
L 112.70722 109.926765 
L 113.757882 134.935967 
L 114.808544 104.431786 
L 115.859206 107.355397 
L 116.909868 100.733242 
L 117.96053 103.058041 
L 119.011192 89.074022 
L 120.061853 85.622048 
L 121.112515 87.171914 
L 122.163177 88.968349 
L 123.213839 85.692496 
L 124.264501 79.246462 
L 125.315163 85.023236 
L 126.365825 97.844855 
L 127.416487 76.956888 
L 128.467149 81.853055 
L 129.517811 82.451867 
L 130.568473 79.246462 
L 131.619135 86.608326 
L 132.669797 76.745542 
L 133.720459 75.512694 
L 134.771121 73.293568 
L 135.821783 81.078122 
L 136.872445 72.342514 
L 137.923107 71.778926 
L 138.973769 69.98249 
L 140.024431 71.673253 
L 142.125755 67.833812 
L 143.176417 70.334733 
L 144.227079 68.467849 
L 145.277741 70.722199 
L 146.328402 68.009934 
L 147.379064 100.698017 
L 148.429726 90.236422 
L 149.480388 95.977971 
L 150.53105 97.492613 
L 151.581712 101.649072 
L 152.632374 104.255665 
L 153.683036 97.492613 
L 154.733698 88.369538 
L 155.78436 136.732403 
L 156.835022 98.936806 
L 157.885684 83.896061 
L 158.936346 85.023236 
L 159.987008 87.242362 
L 161.03767 81.042898 
L 162.088332 85.657272 
L 163.138994 88.686556 
L 164.189656 84.001733 
L 165.240318 83.508594 
L 166.29098 93.899741 
L 167.341642 94.287208 
L 168.392304 79.457808 
L 169.442966 78.612426 
L 170.493628 88.580883 
L 172.594951 80.197517 
L 173.645613 80.620207 
L 174.696275 80.373638 
L 175.746937 85.199357 
L 176.797599 77.837493 
L 177.848261 76.534197 
L 178.898923 74.526416 
L 179.949585 75.336573 
L 181.000247 71.426684 
L 182.050909 73.610586 
L 183.101571 79.598705 
L 184.152233 70.792648 
L 185.202895 71.602805 
L 186.253557 73.011774 
L 187.304219 69.665472 
L 188.354881 78.189736 
L 189.405543 68.820091 
L 191.506867 78.048839 
L 192.557529 75.019555 
L 193.608191 66.319171 
L 194.658853 69.98249 
L 195.709515 64.31139 
L 196.760177 64.98065 
L 197.810838 68.115606 
L 198.8615 63.853475 
L 199.912162 66.847534 
L 200.962824 65.861256 
L 202.013486 63.923923 
L 203.064148 65.156771 
L 204.11481 63.39556 
L 205.165472 62.23316 
L 206.216134 62.338833 
L 207.266796 65.015874 
L 208.317458 66.917983 
L 209.36812 62.585402 
L 210.418782 61.423003 
L 211.469444 62.057039 
L 212.520106 60.894639 
L 213.570768 59.908361 
L 214.62143 62.831972 
L 215.672092 59.591343 
L 216.722754 61.035536 
L 217.773416 61.493451 
L 218.824078 59.556119 
L 219.87474 60.577621 
L 220.925402 60.084482 
L 221.976064 61.070761 
L 223.026726 60.64807 
L 224.077387 58.851634 
L 225.128049 62.057039 
L 226.178711 60.295828 
L 228.280035 59.697016 
L 229.330697 58.851634 
L 230.381359 62.374057 
L 231.432021 94.674674 
L 232.482683 79.035117 
L 233.533345 78.858996 
L 234.584007 84.213079 
L 235.634669 82.346195 
L 236.685331 86.749223 
L 237.735993 86.361757 
L 239.837317 79.457808 
L 240.887979 75.336573 
L 241.938641 78.330632 
L 242.989303 72.624308 
L 244.039965 80.338414 
L 245.090627 75.900161 
L 246.141289 76.252403 
L 247.191951 95.273486 
L 248.242613 97.210819 
L 249.293274 70.510854 
L 250.343936 75.72404 
L 251.394598 75.829712 
L 252.44526 75.47747 
L 253.495922 73.434465 
L 254.546584 82.487091 
L 255.597246 76.604645 
L 256.647908 76.322851 
L 257.69857 70.264284 
L 258.749232 75.2309 
L 259.799894 76.076282 
L 260.850556 94.88602 
L 261.901218 74.772985 
L 262.95188 81.148571 
L 264.002542 75.336573 
L 265.053204 80.091844 
L 266.103866 83.402921 
L 267.154528 81.148571 
L 268.20519 77.273906 
L 269.255852 78.295408 
L 270.306514 70.792648 
L 271.357176 79.387359 
L 272.407838 72.835653 
L 273.4585 71.849374 
L 274.509162 78.330632 
L 275.559823 73.223119 
L 276.610485 77.06256 
L 277.661147 68.573521 
L 278.711809 68.291727 
L 279.762471 72.835653 
L 280.813133 69.630248 
L 281.863795 69.806369 
L 282.914457 67.763364 
L 283.965119 69.172333 
L 285.015781 67.023655 
L 286.066443 71.638029 
L 287.117105 71.109666 
L 288.167767 70.89832 
L 289.218429 68.538297 
L 290.269091 74.068501 
L 291.319753 70.546078 
L 292.370415 68.115606 
L 293.421077 75.794488 
L 294.471739 65.403341 
L 295.522401 71.356235 
L 296.573063 67.833812 
L 297.623725 67.235001 
L 298.674387 65.685135 
L 299.725049 69.383679 
L 301.826372 65.89648 
L 302.877034 70.299508 
L 303.927696 65.191995 
L 304.978358 66.988431 
L 306.02902 63.254663 
L 307.079682 70.686975 
L 308.130344 72.906101 
L 309.181006 66.354395 
L 310.231668 65.403341 
L 311.28233 64.205717 
L 312.332992 66.213498 
L 313.383654 63.783026 
L 314.434316 65.297668 
L 315.484978 62.831972 
L 316.53564 63.254663 
L 317.586302 63.888699 
L 318.636964 63.501232 
L 319.687626 62.796748 
L 320.738288 62.514954 
L 321.78895 62.761524 
L 322.839612 61.035536 
L 323.890274 62.937645 
L 324.940936 66.847534 
L 325.991598 61.070761 
L 327.042259 62.303609 
L 328.092921 61.634348 
L 329.143583 62.057039 
L 331.244907 61.458227 
L 332.295569 59.098204 
L 333.346231 57.689235 
L 334.396893 59.379998 
L 335.447555 61.599124 
L 336.498217 60.331052 
L 337.548879 62.021815 
L 338.599541 57.23132 
L 339.650203 59.06298 
L 340.700865 61.916142 
L 341.751527 59.344773 
L 342.802189 62.655851 
L 343.852851 57.407441 
L 344.903513 58.041477 
L 345.954175 60.436725 
L 347.004837 58.217598 
L 348.055499 58.56984 
L 349.106161 60.119706 
L 350.156823 57.477889 
L 351.207485 56.280266 
L 352.258147 60.225379 
L 353.308808 59.873137 
L 354.35947 57.407441 
L 355.410132 58.675513 
L 357.511456 57.266544 
L 358.562118 56.632508 
L 359.61278 55.434884 
L 360.663442 56.033696 
L 361.714104 57.513114 
L 362.764766 56.456387 
L 363.815428 56.104144 
L 364.86609 55.470108 
L 366.967414 55.575781 
L 368.018076 56.350714 
L 369.068738 56.738181 
L 370.1194 55.047418 
L 371.170062 55.012193 
L 372.220724 55.364436 
L 373.271386 55.293987 
L 374.322048 55.646229 
L 375.37271 55.575781 
L 376.423372 56.491611 
L 377.474034 55.258763 
L 378.524695 56.209817 
L 379.575357 54.871296 
L 380.626019 54.519054 
L 381.676681 54.413381 
L 382.727343 54.519054 
L 383.778005 55.012193 
L 384.828667 54.342933 
L 387.980653 54.906521 
L 389.031315 53.885018 
L 390.081977 54.976969 
L 391.132639 53.568 
L 392.183301 54.413381 
L 393.233963 54.800848 
L 394.284625 54.519054 
L 395.335287 53.849794 
L 396.385949 54.025915 
L 397.436611 54.448606 
L 398.487273 54.519054 
L 398.487273 54.519054 
" style="fill:none;stroke:#ff7f0e;stroke-linecap:square;stroke-width:1.5;"/>
   </g>
   <g id="patch_3">
    <path d="M 57.6 307.584 
L 57.6 41.472 
" style="fill:none;stroke:#000000;stroke-linecap:square;stroke-linejoin:miter;stroke-width:0.8;"/>
   </g>
   <g id="patch_4">
    <path d="M 414.72 307.584 
L 414.72 41.472 
" style="fill:none;stroke:#000000;stroke-linecap:square;stroke-linejoin:miter;stroke-width:0.8;"/>
   </g>
   <g id="patch_5">
    <path d="M 57.6 307.584 
L 414.72 307.584 
" style="fill:none;stroke:#000000;stroke-linecap:square;stroke-linejoin:miter;stroke-width:0.8;"/>
   </g>
   <g id="patch_6">
    <path d="M 57.6 41.472 
L 414.72 41.472 
" style="fill:none;stroke:#000000;stroke-linecap:square;stroke-linejoin:miter;stroke-width:0.8;"/>
   </g>
   <g id="text_20">
    <!-- Training and Validation Accuracy -->
    <g transform="translate(138.4575 35.472)scale(0.12 -0.12)">
     <defs>
      <path d="M -19 4666 
L 3928 4666 
L 3928 4134 
L 2272 4134 
L 2272 0 
L 1638 0 
L 1638 4134 
L -19 4134 
L -19 4666 
z
" id="DejaVuSans-54" transform="scale(0.015625)"/>
      <path d="M 603 3500 
L 1178 3500 
L 1178 0 
L 603 0 
L 603 3500 
z
M 603 4863 
L 1178 4863 
L 1178 4134 
L 603 4134 
L 603 4863 
z
" id="DejaVuSans-69" transform="scale(0.015625)"/>
      <path d="M 3513 2113 
L 3513 0 
L 2938 0 
L 2938 2094 
Q 2938 2591 2744 2837 
Q 2550 3084 2163 3084 
Q 1697 3084 1428 2787 
Q 1159 2491 1159 1978 
L 1159 0 
L 581 0 
L 581 3500 
L 1159 3500 
L 1159 2956 
Q 1366 3272 1645 3428 
Q 1925 3584 2291 3584 
Q 2894 3584 3203 3211 
Q 3513 2838 3513 2113 
z
" id="DejaVuSans-6e" transform="scale(0.015625)"/>
      <path d="M 2906 1791 
Q 2906 2416 2648 2759 
Q 2391 3103 1925 3103 
Q 1463 3103 1205 2759 
Q 947 2416 947 1791 
Q 947 1169 1205 825 
Q 1463 481 1925 481 
Q 2391 481 2648 825 
Q 2906 1169 2906 1791 
z
M 3481 434 
Q 3481 -459 3084 -895 
Q 2688 -1331 1869 -1331 
Q 1566 -1331 1297 -1286 
Q 1028 -1241 775 -1147 
L 775 -588 
Q 1028 -725 1275 -790 
Q 1522 -856 1778 -856 
Q 2344 -856 2625 -561 
Q 2906 -266 2906 331 
L 2906 616 
Q 2728 306 2450 153 
Q 2172 0 1784 0 
Q 1141 0 747 490 
Q 353 981 353 1791 
Q 353 2603 747 3093 
Q 1141 3584 1784 3584 
Q 2172 3584 2450 3431 
Q 2728 3278 2906 2969 
L 2906 3500 
L 3481 3500 
L 3481 434 
z
" id="DejaVuSans-67" transform="scale(0.015625)"/>
      <path id="DejaVuSans-20" transform="scale(0.015625)"/>
      <path d="M 2906 2969 
L 2906 4863 
L 3481 4863 
L 3481 0 
L 2906 0 
L 2906 525 
Q 2725 213 2448 61 
Q 2172 -91 1784 -91 
Q 1150 -91 751 415 
Q 353 922 353 1747 
Q 353 2572 751 3078 
Q 1150 3584 1784 3584 
Q 2172 3584 2448 3432 
Q 2725 3281 2906 2969 
z
M 947 1747 
Q 947 1113 1208 752 
Q 1469 391 1925 391 
Q 2381 391 2643 752 
Q 2906 1113 2906 1747 
Q 2906 2381 2643 2742 
Q 2381 3103 1925 3103 
Q 1469 3103 1208 2742 
Q 947 2381 947 1747 
z
" id="DejaVuSans-64" transform="scale(0.015625)"/>
      <path d="M 1831 0 
L 50 4666 
L 709 4666 
L 2188 738 
L 3669 4666 
L 4325 4666 
L 2547 0 
L 1831 0 
z
" id="DejaVuSans-56" transform="scale(0.015625)"/>
      <path d="M 603 4863 
L 1178 4863 
L 1178 0 
L 603 0 
L 603 4863 
z
" id="DejaVuSans-6c" transform="scale(0.015625)"/>
      <path d="M 1172 4494 
L 1172 3500 
L 2356 3500 
L 2356 3053 
L 1172 3053 
L 1172 1153 
Q 1172 725 1289 603 
Q 1406 481 1766 481 
L 2356 481 
L 2356 0 
L 1766 0 
Q 1100 0 847 248 
Q 594 497 594 1153 
L 594 3053 
L 172 3053 
L 172 3500 
L 594 3500 
L 594 4494 
L 1172 4494 
z
" id="DejaVuSans-74" transform="scale(0.015625)"/>
     </defs>
     <use xlink:href="#DejaVuSans-54"/>
     <use x="46.333984" xlink:href="#DejaVuSans-72"/>
     <use x="87.447266" xlink:href="#DejaVuSans-61"/>
     <use x="148.726562" xlink:href="#DejaVuSans-69"/>
     <use x="176.509766" xlink:href="#DejaVuSans-6e"/>
     <use x="239.888672" xlink:href="#DejaVuSans-69"/>
     <use x="267.671875" xlink:href="#DejaVuSans-6e"/>
     <use x="331.050781" xlink:href="#DejaVuSans-67"/>
     <use x="394.527344" xlink:href="#DejaVuSans-20"/>
     <use x="426.314453" xlink:href="#DejaVuSans-61"/>
     <use x="487.59375" xlink:href="#DejaVuSans-6e"/>
     <use x="550.972656" xlink:href="#DejaVuSans-64"/>
     <use x="614.449219" xlink:href="#DejaVuSans-20"/>
     <use x="646.236328" xlink:href="#DejaVuSans-56"/>
     <use x="706.894531" xlink:href="#DejaVuSans-61"/>
     <use x="768.173828" xlink:href="#DejaVuSans-6c"/>
     <use x="795.957031" xlink:href="#DejaVuSans-69"/>
     <use x="823.740234" xlink:href="#DejaVuSans-64"/>
     <use x="887.216797" xlink:href="#DejaVuSans-61"/>
     <use x="948.496094" xlink:href="#DejaVuSans-74"/>
     <use x="987.705078" xlink:href="#DejaVuSans-69"/>
     <use x="1015.488281" xlink:href="#DejaVuSans-6f"/>
     <use x="1076.669922" xlink:href="#DejaVuSans-6e"/>
     <use x="1140.048828" xlink:href="#DejaVuSans-20"/>
     <use x="1171.835938" xlink:href="#DejaVuSans-41"/>
     <use x="1238.494141" xlink:href="#DejaVuSans-63"/>
     <use x="1293.474609" xlink:href="#DejaVuSans-63"/>
     <use x="1348.455078" xlink:href="#DejaVuSans-75"/>
     <use x="1411.833984" xlink:href="#DejaVuSans-72"/>
     <use x="1452.947266" xlink:href="#DejaVuSans-61"/>
     <use x="1514.226562" xlink:href="#DejaVuSans-63"/>
     <use x="1569.207031" xlink:href="#DejaVuSans-79"/>
    </g>
   </g>
   <g id="legend_1">
    <g id="patch_7">
     <path d="M 277.504375 302.584 
L 407.72 302.584 
Q 409.72 302.584 409.72 300.584 
L 409.72 272.22775 
Q 409.72 270.22775 407.72 270.22775 
L 277.504375 270.22775 
Q 275.504375 270.22775 275.504375 272.22775 
L 275.504375 300.584 
Q 275.504375 302.584 277.504375 302.584 
z
" style="fill:#ffffff;opacity:0.8;stroke:#cccccc;stroke-linejoin:miter;"/>
    </g>
    <g id="line2d_20">
     <path d="M 279.504375 278.326187 
L 299.504375 278.326187 
" style="fill:none;stroke:#1f77b4;stroke-linecap:square;stroke-width:1.5;"/>
    </g>
    <g id="line2d_21"/>
    <g id="text_21">
     <!-- Train Accuracy -->
     <g transform="translate(307.504375 281.826187)scale(0.1 -0.1)">
      <use xlink:href="#DejaVuSans-54"/>
      <use x="46.333984" xlink:href="#DejaVuSans-72"/>
      <use x="87.447266" xlink:href="#DejaVuSans-61"/>
      <use x="148.726562" xlink:href="#DejaVuSans-69"/>
      <use x="176.509766" xlink:href="#DejaVuSans-6e"/>
      <use x="239.888672" xlink:href="#DejaVuSans-20"/>
      <use x="271.675781" xlink:href="#DejaVuSans-41"/>
      <use x="338.333984" xlink:href="#DejaVuSans-63"/>
      <use x="393.314453" xlink:href="#DejaVuSans-63"/>
      <use x="448.294922" xlink:href="#DejaVuSans-75"/>
      <use x="511.673828" xlink:href="#DejaVuSans-72"/>
      <use x="552.787109" xlink:href="#DejaVuSans-61"/>
      <use x="614.066406" xlink:href="#DejaVuSans-63"/>
      <use x="669.046875" xlink:href="#DejaVuSans-79"/>
     </g>
    </g>
    <g id="line2d_22">
     <path d="M 279.504375 293.004312 
L 299.504375 293.004312 
" style="fill:none;stroke:#ff7f0e;stroke-linecap:square;stroke-width:1.5;"/>
    </g>
    <g id="line2d_23"/>
    <g id="text_22">
     <!-- Validation Accuracy -->
     <g transform="translate(307.504375 296.504312)scale(0.1 -0.1)">
      <use xlink:href="#DejaVuSans-56"/>
      <use x="60.658203" xlink:href="#DejaVuSans-61"/>
      <use x="121.9375" xlink:href="#DejaVuSans-6c"/>
      <use x="149.720703" xlink:href="#DejaVuSans-69"/>
      <use x="177.503906" xlink:href="#DejaVuSans-64"/>
      <use x="240.980469" xlink:href="#DejaVuSans-61"/>
      <use x="302.259766" xlink:href="#DejaVuSans-74"/>
      <use x="341.46875" xlink:href="#DejaVuSans-69"/>
      <use x="369.251953" xlink:href="#DejaVuSans-6f"/>
      <use x="430.433594" xlink:href="#DejaVuSans-6e"/>
      <use x="493.8125" xlink:href="#DejaVuSans-20"/>
      <use x="525.599609" xlink:href="#DejaVuSans-41"/>
      <use x="592.257812" xlink:href="#DejaVuSans-63"/>
      <use x="647.238281" xlink:href="#DejaVuSans-63"/>
      <use x="702.21875" xlink:href="#DejaVuSans-75"/>
      <use x="765.597656" xlink:href="#DejaVuSans-72"/>
      <use x="806.710938" xlink:href="#DejaVuSans-61"/>
      <use x="867.990234" xlink:href="#DejaVuSans-63"/>
      <use x="922.970703" xlink:href="#DejaVuSans-79"/>
     </g>
    </g>
   </g>
  </g>
 </g>
 <defs>
  <clipPath id="pddf6c0cf2b">
   <rect height="266.112" width="357.12" x="57.6" y="41.472"/>
  </clipPath>
 </defs>
</svg>
