<?xml version="1.0" encoding="utf-8" standalone="no"?>
<!DOCTYPE svg PUBLIC "-//W3C//DTD SVG 1.1//EN"
  "http://www.w3.org/Graphics/SVG/1.1/DTD/svg11.dtd">
<svg height="345.6pt" version="1.1" viewBox="0 0 460.8 345.6" width="460.8pt" xmlns="http://www.w3.org/2000/svg" xmlns:xlink="http://www.w3.org/1999/xlink">
 <metadata>
  <rdf:RDF xmlns:cc="http://creativecommons.org/ns#" xmlns:dc="http://purl.org/dc/elements/1.1/" xmlns:rdf="http://www.w3.org/1999/02/22-rdf-syntax-ns#">
   <cc:Work>
    <dc:type rdf:resource="http://purl.org/dc/dcmitype/StillImage"/>
    <dc:date>2024-01-16T12:09:59.629410</dc:date>
    <dc:format>image/svg+xml</dc:format>
    <dc:creator>
     <cc:Agent>
      <dc:title>Matplotlib v3.4.3, https://matplotlib.org/</dc:title>
     </cc:Agent>
    </dc:creator>
   </cc:Work>
  </rdf:RDF>
 </metadata>
 <defs>
  <style type="text/css">*{stroke-linecap:butt;stroke-linejoin:round;}</style>
 </defs>
 <g id="figure_1">
  <g id="patch_1">
   <path d="M 0 345.6 
L 460.8 345.6 
L 460.8 0 
L 0 0 
z
" style="fill:#ffffff;"/>
  </g>
  <g id="axes_1">
   <g id="patch_2">
    <path d="M 57.6 307.584 
L 414.72 307.584 
L 414.72 41.472 
L 57.6 41.472 
z
" style="fill:#ffffff;"/>
   </g>
   <g id="matplotlib.axis_1">
    <g id="xtick_1">
     <g id="line2d_1">
      <defs>
       <path d="M 0 0 
L 0 3.5 
" id="m579a41c25e" style="stroke:#000000;stroke-width:0.8;"/>
      </defs>
      <g>
       <use style="stroke:#000000;stroke-width:0.8;" x="73.832727" xlink:href="#m579a41c25e" y="307.584"/>
      </g>
     </g>
     <g id="text_1">
      <!-- 1 -->
      <g transform="translate(70.651477 322.182437)scale(0.1 -0.1)">
       <defs>
        <path d="M 794 531 
L 1825 531 
L 1825 4091 
L 703 3866 
L 703 4441 
L 1819 4666 
L 2450 4666 
L 2450 531 
L 3481 531 
L 3481 0 
L 794 0 
L 794 531 
z
" id="DejaVuSans-31" transform="scale(0.015625)"/>
       </defs>
       <use xlink:href="#DejaVuSans-31"/>
      </g>
     </g>
    </g>
    <g id="xtick_2">
     <g id="line2d_2">
      <g>
       <use style="stroke:#000000;stroke-width:0.8;" x="109.640214" xlink:href="#m579a41c25e" y="307.584"/>
      </g>
     </g>
     <g id="text_2">
      <!-- 16 -->
      <g transform="translate(103.277714 322.182437)scale(0.1 -0.1)">
       <defs>
        <path d="M 2113 2584 
Q 1688 2584 1439 2293 
Q 1191 2003 1191 1497 
Q 1191 994 1439 701 
Q 1688 409 2113 409 
Q 2538 409 2786 701 
Q 3034 994 3034 1497 
Q 3034 2003 2786 2293 
Q 2538 2584 2113 2584 
z
M 3366 4563 
L 3366 3988 
Q 3128 4100 2886 4159 
Q 2644 4219 2406 4219 
Q 1781 4219 1451 3797 
Q 1122 3375 1075 2522 
Q 1259 2794 1537 2939 
Q 1816 3084 2150 3084 
Q 2853 3084 3261 2657 
Q 3669 2231 3669 1497 
Q 3669 778 3244 343 
Q 2819 -91 2113 -91 
Q 1303 -91 875 529 
Q 447 1150 447 2328 
Q 447 3434 972 4092 
Q 1497 4750 2381 4750 
Q 2619 4750 2861 4703 
Q 3103 4656 3366 4563 
z
" id="DejaVuSans-36" transform="scale(0.015625)"/>
       </defs>
       <use xlink:href="#DejaVuSans-31"/>
       <use x="63.623047" xlink:href="#DejaVuSans-36"/>
      </g>
     </g>
    </g>
    <g id="xtick_3">
     <g id="line2d_3">
      <g>
       <use style="stroke:#000000;stroke-width:0.8;" x="145.447701" xlink:href="#m579a41c25e" y="307.584"/>
      </g>
     </g>
     <g id="text_3">
      <!-- 31 -->
      <g transform="translate(139.085201 322.182437)scale(0.1 -0.1)">
       <defs>
        <path d="M 2597 2516 
Q 3050 2419 3304 2112 
Q 3559 1806 3559 1356 
Q 3559 666 3084 287 
Q 2609 -91 1734 -91 
Q 1441 -91 1130 -33 
Q 819 25 488 141 
L 488 750 
Q 750 597 1062 519 
Q 1375 441 1716 441 
Q 2309 441 2620 675 
Q 2931 909 2931 1356 
Q 2931 1769 2642 2001 
Q 2353 2234 1838 2234 
L 1294 2234 
L 1294 2753 
L 1863 2753 
Q 2328 2753 2575 2939 
Q 2822 3125 2822 3475 
Q 2822 3834 2567 4026 
Q 2313 4219 1838 4219 
Q 1578 4219 1281 4162 
Q 984 4106 628 3988 
L 628 4550 
Q 988 4650 1302 4700 
Q 1616 4750 1894 4750 
Q 2613 4750 3031 4423 
Q 3450 4097 3450 3541 
Q 3450 3153 3228 2886 
Q 3006 2619 2597 2516 
z
" id="DejaVuSans-33" transform="scale(0.015625)"/>
       </defs>
       <use xlink:href="#DejaVuSans-33"/>
       <use x="63.623047" xlink:href="#DejaVuSans-31"/>
      </g>
     </g>
    </g>
    <g id="xtick_4">
     <g id="line2d_4">
      <g>
       <use style="stroke:#000000;stroke-width:0.8;" x="181.255187" xlink:href="#m579a41c25e" y="307.584"/>
      </g>
     </g>
     <g id="text_4">
      <!-- 46 -->
      <g transform="translate(174.892687 322.182437)scale(0.1 -0.1)">
       <defs>
        <path d="M 2419 4116 
L 825 1625 
L 2419 1625 
L 2419 4116 
z
M 2253 4666 
L 3047 4666 
L 3047 1625 
L 3713 1625 
L 3713 1100 
L 3047 1100 
L 3047 0 
L 2419 0 
L 2419 1100 
L 313 1100 
L 313 1709 
L 2253 4666 
z
" id="DejaVuSans-34" transform="scale(0.015625)"/>
       </defs>
       <use xlink:href="#DejaVuSans-34"/>
       <use x="63.623047" xlink:href="#DejaVuSans-36"/>
      </g>
     </g>
    </g>
    <g id="xtick_5">
     <g id="line2d_5">
      <g>
       <use style="stroke:#000000;stroke-width:0.8;" x="217.062674" xlink:href="#m579a41c25e" y="307.584"/>
      </g>
     </g>
     <g id="text_5">
      <!-- 61 -->
      <g transform="translate(210.700174 322.182437)scale(0.1 -0.1)">
       <use xlink:href="#DejaVuSans-36"/>
       <use x="63.623047" xlink:href="#DejaVuSans-31"/>
      </g>
     </g>
    </g>
    <g id="xtick_6">
     <g id="line2d_6">
      <g>
       <use style="stroke:#000000;stroke-width:0.8;" x="252.87016" xlink:href="#m579a41c25e" y="307.584"/>
      </g>
     </g>
     <g id="text_6">
      <!-- 76 -->
      <g transform="translate(246.50766 322.182437)scale(0.1 -0.1)">
       <defs>
        <path d="M 525 4666 
L 3525 4666 
L 3525 4397 
L 1831 0 
L 1172 0 
L 2766 4134 
L 525 4134 
L 525 4666 
z
" id="DejaVuSans-37" transform="scale(0.015625)"/>
       </defs>
       <use xlink:href="#DejaVuSans-37"/>
       <use x="63.623047" xlink:href="#DejaVuSans-36"/>
      </g>
     </g>
    </g>
    <g id="xtick_7">
     <g id="line2d_7">
      <g>
       <use style="stroke:#000000;stroke-width:0.8;" x="288.677647" xlink:href="#m579a41c25e" y="307.584"/>
      </g>
     </g>
     <g id="text_7">
      <!-- 91 -->
      <g transform="translate(282.315147 322.182437)scale(0.1 -0.1)">
       <defs>
        <path d="M 703 97 
L 703 672 
Q 941 559 1184 500 
Q 1428 441 1663 441 
Q 2288 441 2617 861 
Q 2947 1281 2994 2138 
Q 2813 1869 2534 1725 
Q 2256 1581 1919 1581 
Q 1219 1581 811 2004 
Q 403 2428 403 3163 
Q 403 3881 828 4315 
Q 1253 4750 1959 4750 
Q 2769 4750 3195 4129 
Q 3622 3509 3622 2328 
Q 3622 1225 3098 567 
Q 2575 -91 1691 -91 
Q 1453 -91 1209 -44 
Q 966 3 703 97 
z
M 1959 2075 
Q 2384 2075 2632 2365 
Q 2881 2656 2881 3163 
Q 2881 3666 2632 3958 
Q 2384 4250 1959 4250 
Q 1534 4250 1286 3958 
Q 1038 3666 1038 3163 
Q 1038 2656 1286 2365 
Q 1534 2075 1959 2075 
z
" id="DejaVuSans-39" transform="scale(0.015625)"/>
       </defs>
       <use xlink:href="#DejaVuSans-39"/>
       <use x="63.623047" xlink:href="#DejaVuSans-31"/>
      </g>
     </g>
    </g>
    <g id="xtick_8">
     <g id="line2d_8">
      <g>
       <use style="stroke:#000000;stroke-width:0.8;" x="324.485134" xlink:href="#m579a41c25e" y="307.584"/>
      </g>
     </g>
     <g id="text_8">
      <!-- 106 -->
      <g transform="translate(314.941384 322.182437)scale(0.1 -0.1)">
       <defs>
        <path d="M 2034 4250 
Q 1547 4250 1301 3770 
Q 1056 3291 1056 2328 
Q 1056 1369 1301 889 
Q 1547 409 2034 409 
Q 2525 409 2770 889 
Q 3016 1369 3016 2328 
Q 3016 3291 2770 3770 
Q 2525 4250 2034 4250 
z
M 2034 4750 
Q 2819 4750 3233 4129 
Q 3647 3509 3647 2328 
Q 3647 1150 3233 529 
Q 2819 -91 2034 -91 
Q 1250 -91 836 529 
Q 422 1150 422 2328 
Q 422 3509 836 4129 
Q 1250 4750 2034 4750 
z
" id="DejaVuSans-30" transform="scale(0.015625)"/>
       </defs>
       <use xlink:href="#DejaVuSans-31"/>
       <use x="63.623047" xlink:href="#DejaVuSans-30"/>
       <use x="127.246094" xlink:href="#DejaVuSans-36"/>
      </g>
     </g>
    </g>
    <g id="xtick_9">
     <g id="line2d_9">
      <g>
       <use style="stroke:#000000;stroke-width:0.8;" x="360.29262" xlink:href="#m579a41c25e" y="307.584"/>
      </g>
     </g>
     <g id="text_9">
      <!-- 121 -->
      <g transform="translate(350.74887 322.182437)scale(0.1 -0.1)">
       <defs>
        <path d="M 1228 531 
L 3431 531 
L 3431 0 
L 469 0 
L 469 531 
Q 828 903 1448 1529 
Q 2069 2156 2228 2338 
Q 2531 2678 2651 2914 
Q 2772 3150 2772 3378 
Q 2772 3750 2511 3984 
Q 2250 4219 1831 4219 
Q 1534 4219 1204 4116 
Q 875 4013 500 3803 
L 500 4441 
Q 881 4594 1212 4672 
Q 1544 4750 1819 4750 
Q 2544 4750 2975 4387 
Q 3406 4025 3406 3419 
Q 3406 3131 3298 2873 
Q 3191 2616 2906 2266 
Q 2828 2175 2409 1742 
Q 1991 1309 1228 531 
z
" id="DejaVuSans-32" transform="scale(0.015625)"/>
       </defs>
       <use xlink:href="#DejaVuSans-31"/>
       <use x="63.623047" xlink:href="#DejaVuSans-32"/>
       <use x="127.246094" xlink:href="#DejaVuSans-31"/>
      </g>
     </g>
    </g>
    <g id="xtick_10">
     <g id="line2d_10">
      <g>
       <use style="stroke:#000000;stroke-width:0.8;" x="398.487273" xlink:href="#m579a41c25e" y="307.584"/>
      </g>
     </g>
     <g id="text_10">
      <!-- 137 -->
      <g transform="translate(388.943523 322.182437)scale(0.1 -0.1)">
       <use xlink:href="#DejaVuSans-31"/>
       <use x="63.623047" xlink:href="#DejaVuSans-33"/>
       <use x="127.246094" xlink:href="#DejaVuSans-37"/>
      </g>
     </g>
    </g>
    <g id="text_11">
     <!-- Epochs -->
     <g transform="translate(218.244375 335.860562)scale(0.1 -0.1)">
      <defs>
       <path d="M 628 4666 
L 3578 4666 
L 3578 4134 
L 1259 4134 
L 1259 2753 
L 3481 2753 
L 3481 2222 
L 1259 2222 
L 1259 531 
L 3634 531 
L 3634 0 
L 628 0 
L 628 4666 
z
" id="DejaVuSans-45" transform="scale(0.015625)"/>
       <path d="M 1159 525 
L 1159 -1331 
L 581 -1331 
L 581 3500 
L 1159 3500 
L 1159 2969 
Q 1341 3281 1617 3432 
Q 1894 3584 2278 3584 
Q 2916 3584 3314 3078 
Q 3713 2572 3713 1747 
Q 3713 922 3314 415 
Q 2916 -91 2278 -91 
Q 1894 -91 1617 61 
Q 1341 213 1159 525 
z
M 3116 1747 
Q 3116 2381 2855 2742 
Q 2594 3103 2138 3103 
Q 1681 3103 1420 2742 
Q 1159 2381 1159 1747 
Q 1159 1113 1420 752 
Q 1681 391 2138 391 
Q 2594 391 2855 752 
Q 3116 1113 3116 1747 
z
" id="DejaVuSans-70" transform="scale(0.015625)"/>
       <path d="M 1959 3097 
Q 1497 3097 1228 2736 
Q 959 2375 959 1747 
Q 959 1119 1226 758 
Q 1494 397 1959 397 
Q 2419 397 2687 759 
Q 2956 1122 2956 1747 
Q 2956 2369 2687 2733 
Q 2419 3097 1959 3097 
z
M 1959 3584 
Q 2709 3584 3137 3096 
Q 3566 2609 3566 1747 
Q 3566 888 3137 398 
Q 2709 -91 1959 -91 
Q 1206 -91 779 398 
Q 353 888 353 1747 
Q 353 2609 779 3096 
Q 1206 3584 1959 3584 
z
" id="DejaVuSans-6f" transform="scale(0.015625)"/>
       <path d="M 3122 3366 
L 3122 2828 
Q 2878 2963 2633 3030 
Q 2388 3097 2138 3097 
Q 1578 3097 1268 2742 
Q 959 2388 959 1747 
Q 959 1106 1268 751 
Q 1578 397 2138 397 
Q 2388 397 2633 464 
Q 2878 531 3122 666 
L 3122 134 
Q 2881 22 2623 -34 
Q 2366 -91 2075 -91 
Q 1284 -91 818 406 
Q 353 903 353 1747 
Q 353 2603 823 3093 
Q 1294 3584 2113 3584 
Q 2378 3584 2631 3529 
Q 2884 3475 3122 3366 
z
" id="DejaVuSans-63" transform="scale(0.015625)"/>
       <path d="M 3513 2113 
L 3513 0 
L 2938 0 
L 2938 2094 
Q 2938 2591 2744 2837 
Q 2550 3084 2163 3084 
Q 1697 3084 1428 2787 
Q 1159 2491 1159 1978 
L 1159 0 
L 581 0 
L 581 4863 
L 1159 4863 
L 1159 2956 
Q 1366 3272 1645 3428 
Q 1925 3584 2291 3584 
Q 2894 3584 3203 3211 
Q 3513 2838 3513 2113 
z
" id="DejaVuSans-68" transform="scale(0.015625)"/>
       <path d="M 2834 3397 
L 2834 2853 
Q 2591 2978 2328 3040 
Q 2066 3103 1784 3103 
Q 1356 3103 1142 2972 
Q 928 2841 928 2578 
Q 928 2378 1081 2264 
Q 1234 2150 1697 2047 
L 1894 2003 
Q 2506 1872 2764 1633 
Q 3022 1394 3022 966 
Q 3022 478 2636 193 
Q 2250 -91 1575 -91 
Q 1294 -91 989 -36 
Q 684 19 347 128 
L 347 722 
Q 666 556 975 473 
Q 1284 391 1588 391 
Q 1994 391 2212 530 
Q 2431 669 2431 922 
Q 2431 1156 2273 1281 
Q 2116 1406 1581 1522 
L 1381 1569 
Q 847 1681 609 1914 
Q 372 2147 372 2553 
Q 372 3047 722 3315 
Q 1072 3584 1716 3584 
Q 2034 3584 2315 3537 
Q 2597 3491 2834 3397 
z
" id="DejaVuSans-73" transform="scale(0.015625)"/>
      </defs>
      <use xlink:href="#DejaVuSans-45"/>
      <use x="63.183594" xlink:href="#DejaVuSans-70"/>
      <use x="126.660156" xlink:href="#DejaVuSans-6f"/>
      <use x="187.841797" xlink:href="#DejaVuSans-63"/>
      <use x="242.822266" xlink:href="#DejaVuSans-68"/>
      <use x="306.201172" xlink:href="#DejaVuSans-73"/>
     </g>
    </g>
   </g>
   <g id="matplotlib.axis_2">
    <g id="ytick_1">
     <g id="line2d_11">
      <defs>
       <path d="M 0 0 
L -3.5 0 
" id="ma8711d0219" style="stroke:#000000;stroke-width:0.8;"/>
      </defs>
      <g>
       <use style="stroke:#000000;stroke-width:0.8;" x="57.6" xlink:href="#ma8711d0219" y="277.606799"/>
      </g>
     </g>
     <g id="text_12">
      <!-- 30 -->
      <g transform="translate(37.875 281.406018)scale(0.1 -0.1)">
       <use xlink:href="#DejaVuSans-33"/>
       <use x="63.623047" xlink:href="#DejaVuSans-30"/>
      </g>
     </g>
    </g>
    <g id="ytick_2">
     <g id="line2d_12">
      <g>
       <use style="stroke:#000000;stroke-width:0.8;" x="57.6" xlink:href="#ma8711d0219" y="241.483162"/>
      </g>
     </g>
     <g id="text_13">
      <!-- 40 -->
      <g transform="translate(37.875 245.282381)scale(0.1 -0.1)">
       <use xlink:href="#DejaVuSans-34"/>
       <use x="63.623047" xlink:href="#DejaVuSans-30"/>
      </g>
     </g>
    </g>
    <g id="ytick_3">
     <g id="line2d_13">
      <g>
       <use style="stroke:#000000;stroke-width:0.8;" x="57.6" xlink:href="#ma8711d0219" y="205.359525"/>
      </g>
     </g>
     <g id="text_14">
      <!-- 50 -->
      <g transform="translate(37.875 209.158743)scale(0.1 -0.1)">
       <defs>
        <path d="M 691 4666 
L 3169 4666 
L 3169 4134 
L 1269 4134 
L 1269 2991 
Q 1406 3038 1543 3061 
Q 1681 3084 1819 3084 
Q 2600 3084 3056 2656 
Q 3513 2228 3513 1497 
Q 3513 744 3044 326 
Q 2575 -91 1722 -91 
Q 1428 -91 1123 -41 
Q 819 9 494 109 
L 494 744 
Q 775 591 1075 516 
Q 1375 441 1709 441 
Q 2250 441 2565 725 
Q 2881 1009 2881 1497 
Q 2881 1984 2565 2268 
Q 2250 2553 1709 2553 
Q 1456 2553 1204 2497 
Q 953 2441 691 2322 
L 691 4666 
z
" id="DejaVuSans-35" transform="scale(0.015625)"/>
       </defs>
       <use xlink:href="#DejaVuSans-35"/>
       <use x="63.623047" xlink:href="#DejaVuSans-30"/>
      </g>
     </g>
    </g>
    <g id="ytick_4">
     <g id="line2d_14">
      <g>
       <use style="stroke:#000000;stroke-width:0.8;" x="57.6" xlink:href="#ma8711d0219" y="169.235887"/>
      </g>
     </g>
     <g id="text_15">
      <!-- 60 -->
      <g transform="translate(37.875 173.035106)scale(0.1 -0.1)">
       <use xlink:href="#DejaVuSans-36"/>
       <use x="63.623047" xlink:href="#DejaVuSans-30"/>
      </g>
     </g>
    </g>
    <g id="ytick_5">
     <g id="line2d_15">
      <g>
       <use style="stroke:#000000;stroke-width:0.8;" x="57.6" xlink:href="#ma8711d0219" y="133.11225"/>
      </g>
     </g>
     <g id="text_16">
      <!-- 70 -->
      <g transform="translate(37.875 136.911468)scale(0.1 -0.1)">
       <use xlink:href="#DejaVuSans-37"/>
       <use x="63.623047" xlink:href="#DejaVuSans-30"/>
      </g>
     </g>
    </g>
    <g id="ytick_6">
     <g id="line2d_16">
      <g>
       <use style="stroke:#000000;stroke-width:0.8;" x="57.6" xlink:href="#ma8711d0219" y="96.988612"/>
      </g>
     </g>
     <g id="text_17">
      <!-- 80 -->
      <g transform="translate(37.875 100.787831)scale(0.1 -0.1)">
       <defs>
        <path d="M 2034 2216 
Q 1584 2216 1326 1975 
Q 1069 1734 1069 1313 
Q 1069 891 1326 650 
Q 1584 409 2034 409 
Q 2484 409 2743 651 
Q 3003 894 3003 1313 
Q 3003 1734 2745 1975 
Q 2488 2216 2034 2216 
z
M 1403 2484 
Q 997 2584 770 2862 
Q 544 3141 544 3541 
Q 544 4100 942 4425 
Q 1341 4750 2034 4750 
Q 2731 4750 3128 4425 
Q 3525 4100 3525 3541 
Q 3525 3141 3298 2862 
Q 3072 2584 2669 2484 
Q 3125 2378 3379 2068 
Q 3634 1759 3634 1313 
Q 3634 634 3220 271 
Q 2806 -91 2034 -91 
Q 1263 -91 848 271 
Q 434 634 434 1313 
Q 434 1759 690 2068 
Q 947 2378 1403 2484 
z
M 1172 3481 
Q 1172 3119 1398 2916 
Q 1625 2713 2034 2713 
Q 2441 2713 2670 2916 
Q 2900 3119 2900 3481 
Q 2900 3844 2670 4047 
Q 2441 4250 2034 4250 
Q 1625 4250 1398 4047 
Q 1172 3844 1172 3481 
z
" id="DejaVuSans-38" transform="scale(0.015625)"/>
       </defs>
       <use xlink:href="#DejaVuSans-38"/>
       <use x="63.623047" xlink:href="#DejaVuSans-30"/>
      </g>
     </g>
    </g>
    <g id="ytick_7">
     <g id="line2d_17">
      <g>
       <use style="stroke:#000000;stroke-width:0.8;" x="57.6" xlink:href="#ma8711d0219" y="60.864975"/>
      </g>
     </g>
     <g id="text_18">
      <!-- 90 -->
      <g transform="translate(37.875 64.664194)scale(0.1 -0.1)">
       <use xlink:href="#DejaVuSans-39"/>
       <use x="63.623047" xlink:href="#DejaVuSans-30"/>
      </g>
     </g>
    </g>
    <g id="text_19">
     <!-- Accuracy -->
     <g transform="translate(31.795312 197.356125)rotate(-90)scale(0.1 -0.1)">
      <defs>
       <path d="M 2188 4044 
L 1331 1722 
L 3047 1722 
L 2188 4044 
z
M 1831 4666 
L 2547 4666 
L 4325 0 
L 3669 0 
L 3244 1197 
L 1141 1197 
L 716 0 
L 50 0 
L 1831 4666 
z
" id="DejaVuSans-41" transform="scale(0.015625)"/>
       <path d="M 544 1381 
L 544 3500 
L 1119 3500 
L 1119 1403 
Q 1119 906 1312 657 
Q 1506 409 1894 409 
Q 2359 409 2629 706 
Q 2900 1003 2900 1516 
L 2900 3500 
L 3475 3500 
L 3475 0 
L 2900 0 
L 2900 538 
Q 2691 219 2414 64 
Q 2138 -91 1772 -91 
Q 1169 -91 856 284 
Q 544 659 544 1381 
z
M 1991 3584 
L 1991 3584 
z
" id="DejaVuSans-75" transform="scale(0.015625)"/>
       <path d="M 2631 2963 
Q 2534 3019 2420 3045 
Q 2306 3072 2169 3072 
Q 1681 3072 1420 2755 
Q 1159 2438 1159 1844 
L 1159 0 
L 581 0 
L 581 3500 
L 1159 3500 
L 1159 2956 
Q 1341 3275 1631 3429 
Q 1922 3584 2338 3584 
Q 2397 3584 2469 3576 
Q 2541 3569 2628 3553 
L 2631 2963 
z
" id="DejaVuSans-72" transform="scale(0.015625)"/>
       <path d="M 2194 1759 
Q 1497 1759 1228 1600 
Q 959 1441 959 1056 
Q 959 750 1161 570 
Q 1363 391 1709 391 
Q 2188 391 2477 730 
Q 2766 1069 2766 1631 
L 2766 1759 
L 2194 1759 
z
M 3341 1997 
L 3341 0 
L 2766 0 
L 2766 531 
Q 2569 213 2275 61 
Q 1981 -91 1556 -91 
Q 1019 -91 701 211 
Q 384 513 384 1019 
Q 384 1609 779 1909 
Q 1175 2209 1959 2209 
L 2766 2209 
L 2766 2266 
Q 2766 2663 2505 2880 
Q 2244 3097 1772 3097 
Q 1472 3097 1187 3025 
Q 903 2953 641 2809 
L 641 3341 
Q 956 3463 1253 3523 
Q 1550 3584 1831 3584 
Q 2591 3584 2966 3190 
Q 3341 2797 3341 1997 
z
" id="DejaVuSans-61" transform="scale(0.015625)"/>
       <path d="M 2059 -325 
Q 1816 -950 1584 -1140 
Q 1353 -1331 966 -1331 
L 506 -1331 
L 506 -850 
L 844 -850 
Q 1081 -850 1212 -737 
Q 1344 -625 1503 -206 
L 1606 56 
L 191 3500 
L 800 3500 
L 1894 763 
L 2988 3500 
L 3597 3500 
L 2059 -325 
z
" id="DejaVuSans-79" transform="scale(0.015625)"/>
      </defs>
      <use xlink:href="#DejaVuSans-41"/>
      <use x="66.658203" xlink:href="#DejaVuSans-63"/>
      <use x="121.638672" xlink:href="#DejaVuSans-63"/>
      <use x="176.619141" xlink:href="#DejaVuSans-75"/>
      <use x="239.998047" xlink:href="#DejaVuSans-72"/>
      <use x="281.111328" xlink:href="#DejaVuSans-61"/>
      <use x="342.390625" xlink:href="#DejaVuSans-63"/>
      <use x="397.371094" xlink:href="#DejaVuSans-79"/>
     </g>
    </g>
   </g>
   <g id="line2d_18">
    <path clip-path="url(#pb0bc1621d5)" d="M 73.832727 295.488 
L 76.219893 274.926426 
L 78.607059 257.110248 
L 80.994225 257.941091 
L 83.38139 237.01828 
L 85.768556 223.226276 
L 88.155722 200.851295 
L 90.542888 196.928268 
L 92.930053 200.598429 
L 95.317219 189.291731 
L 97.704385 212.931039 
L 100.091551 214.925064 
L 102.478717 187.420526 
L 104.865882 175.882636 
L 107.253048 182.327093 
L 109.640214 170.399068 
L 112.02738 167.270761 
L 114.414545 158.015885 
L 116.801711 163.492229 
L 119.188877 159.74982 
L 121.576043 151.275215 
L 123.963209 130.258482 
L 126.350374 147.048749 
L 128.73754 129.275919 
L 131.124706 127.476962 
L 133.511872 126.212635 
L 135.899037 119.732054 
L 138.286203 128.278907 
L 140.673369 132.295855 
L 143.060535 123.467238 
L 145.447701 160.54454 
L 147.834866 140.828259 
L 150.222032 159.48973 
L 152.609198 138.169559 
L 154.996364 145.314814 
L 157.383529 142.677789 
L 159.770695 132.288631 
L 162.157861 132.288631 
L 164.545027 131.623956 
L 166.932193 125.201173 
L 169.319358 118.38103 
L 171.706524 131.927394 
L 174.09369 124.991656 
L 176.480856 125.41069 
L 178.868021 120.468977 
L 181.255187 124.088565 
L 183.642353 125.482937 
L 186.029519 123.02653 
L 188.416684 109.819728 
L 190.80385 108.598749 
L 193.191016 118.279884 
L 195.578182 118.53275 
L 197.965348 106.250713 
L 200.352513 115.809027 
L 202.739679 107.594512 
L 205.126845 110.665021 
L 207.514011 110.195414 
L 209.901176 103.230777 
L 212.288342 101.583539 
L 214.675508 101.915876 
L 217.062674 99.979649 
L 219.44984 98.476906 
L 221.837005 88.694625 
L 224.224171 99.900177 
L 226.611337 88.96194 
L 228.998503 97.906153 
L 231.385668 103.014035 
L 233.772834 99.076558 
L 236.16 100.030222 
L 238.547166 95.449745 
L 240.934332 120.953033 
L 243.321497 140.430899 
L 245.708663 126.198185 
L 248.095829 121.791102 
L 250.482995 124.117464 
L 252.87016 115.888499 
L 255.257326 118.265435 
L 257.644492 119.067379 
L 260.031658 118.193187 
L 262.418824 117.817502 
L 264.805989 116.155814 
L 267.193155 104.589026 
L 269.580321 110.932336 
L 271.967487 110.491628 
L 274.354652 106.828691 
L 276.741818 124.283633 
L 279.128984 118.893986 
L 281.51615 110.412156 
L 283.903316 113.807778 
L 286.290481 107.934074 
L 288.677647 111.662034 
L 291.064813 118.084816 
L 293.451979 102.753945 
L 295.839144 108.605974 
L 298.22631 113.302047 
L 300.613476 114.234037 
L 303.000642 108.490378 
L 305.387807 109.003334 
L 307.774973 119.060155 
L 312.549305 94.351587 
L 314.936471 111.401944 
L 317.323636 89.511019 
L 319.710802 98.404659 
L 322.097968 119.385267 
L 324.485134 101.063359 
L 326.872299 104.928588 
L 329.259465 109.733032 
L 331.646631 112.124416 
L 334.033797 112.514552 
L 336.420963 96.533454 
L 338.808128 91.389448 
L 341.195294 107.327197 
L 343.58246 105.015284 
L 345.969626 90.731998 
L 348.356791 92.805495 
L 350.743957 102.566102 
L 353.131123 94.532205 
L 355.518289 83.803485 
L 357.905455 91.996326 
L 360.29262 92.769371 
L 362.679786 86.866769 
L 365.066952 85.559093 
L 367.454118 88.282816 
L 369.841283 74.888171 
L 372.228449 85.024463 
L 374.615615 87.011264 
L 377.002781 97.017511 
L 379.389947 87.119634 
L 381.777112 90.457459 
L 384.164278 82.647528 
L 386.551444 84.511508 
L 388.93861 79.056839 
L 391.325775 85.233981 
L 393.712941 87.307477 
L 396.100107 88.311714 
L 398.487273 81.036414 
L 398.487273 81.036414 
" style="fill:none;stroke:#1f77b4;stroke-linecap:square;stroke-width:1.5;"/>
   </g>
   <g id="line2d_19">
    <path clip-path="url(#pb0bc1621d5)" d="M 73.832727 286.276472 
L 76.219893 259.364363 
L 78.607059 245.926369 
L 80.994225 252.103511 
L 83.38139 234.186187 
L 85.768556 198.640528 
L 88.155722 171.800665 
L 90.542888 168.477291 
L 92.930053 175.738142 
L 95.317219 157.495705 
L 97.704385 189.067764 
L 100.091551 203.083735 
L 102.478717 176.821851 
L 104.865882 146.911479 
L 107.253048 171.94516 
L 109.640214 151.535305 
L 112.02738 158.43492 
L 114.414545 130.655842 
L 116.801711 133.617981 
L 119.188877 122.636395 
L 121.576043 121.877798 
L 123.963209 111.221325 
L 126.350374 107.175478 
L 128.73754 98.614176 
L 131.124706 93.520743 
L 133.511872 90.775347 
L 135.899037 94.170968 
L 138.286203 91.822932 
L 140.673369 90.81147 
L 143.060535 89.438772 
L 145.447701 148.645414 
L 147.834866 109.234525 
L 150.222032 124.261958 
L 152.609198 125.743028 
L 154.996364 117.32622 
L 157.383529 115.809027 
L 159.770695 96.807994 
L 162.157861 105.188678 
L 164.545027 130.836461 
L 166.932193 99.55339 
L 169.319358 102.551652 
L 171.706524 95.760409 
L 174.09369 98.144569 
L 176.480856 83.803485 
L 178.868021 80.263368 
L 181.255187 81.852808 
L 183.642353 83.695114 
L 186.029519 80.335615 
L 188.416684 73.72499 
L 190.80385 79.649266 
L 193.191016 92.79827 
L 195.578182 71.376953 
L 197.965348 76.398139 
L 200.352513 77.012241 
L 202.739679 73.72499 
L 205.126845 81.27483 
L 207.514011 71.160211 
L 209.901176 69.895884 
L 212.288342 67.620095 
L 214.675508 75.603419 
L 217.062674 66.644757 
L 219.44984 66.066779 
L 221.837005 64.224473 
L 224.224171 65.958408 
L 226.611337 64.079978 
L 228.998503 62.020931 
L 231.385668 64.585709 
L 233.772834 62.671157 
L 236.16 64.983069 
L 238.547166 62.201549 
L 240.934332 95.724285 
L 243.321497 84.995565 
L 245.708663 90.883717 
L 248.095829 92.437034 
L 250.482995 96.699623 
L 252.87016 99.372772 
L 255.257326 92.437034 
L 257.644492 83.081012 
L 260.031658 132.678766 
L 262.418824 93.918103 
L 264.805989 78.49331 
L 267.193155 79.649266 
L 269.580321 81.925055 
L 271.967487 75.567295 
L 274.354652 80.299492 
L 276.741818 83.406125 
L 279.128984 78.601681 
L 281.51615 78.09595 
L 283.903316 88.752423 
L 286.290481 89.149783 
L 288.677647 73.941732 
L 291.064813 73.074764 
L 293.451979 83.297754 
L 298.22631 74.700328 
L 300.613476 75.133812 
L 303.000642 74.880946 
L 305.387807 79.829884 
L 307.774973 72.280044 
L 310.162139 70.94347 
L 312.549305 68.884422 
L 314.936471 69.715266 
L 317.323636 65.705542 
L 319.710802 67.945208 
L 322.097968 74.086226 
L 324.485134 65.055317 
L 326.872299 65.88616 
L 329.259465 67.331106 
L 331.646631 63.89936 
L 334.033797 72.641281 
L 336.420963 63.032393 
L 338.808128 67.981331 
L 341.195294 72.496786 
L 343.58246 69.390153 
L 345.969626 60.467615 
L 348.356791 64.224473 
L 350.743957 58.408567 
L 353.131123 59.094917 
L 355.518289 62.30992 
L 357.905455 57.93896 
L 360.29262 61.009469 
L 362.679786 59.998007 
L 365.066952 58.011207 
L 367.454118 59.275535 
L 369.841283 57.469353 
L 372.228449 56.277273 
L 374.615615 56.385644 
L 377.002781 59.13104 
L 379.389947 61.081717 
L 381.777112 56.638509 
L 384.164278 55.446429 
L 386.551444 56.096655 
L 388.93861 54.904575 
L 391.325775 53.893113 
L 393.712941 56.891375 
L 396.100107 53.568 
L 398.487273 55.049069 
L 398.487273 55.049069 
" style="fill:none;stroke:#ff7f0e;stroke-linecap:square;stroke-width:1.5;"/>
   </g>
   <g id="patch_3">
    <path d="M 57.6 307.584 
L 57.6 41.472 
" style="fill:none;stroke:#000000;stroke-linecap:square;stroke-linejoin:miter;stroke-width:0.8;"/>
   </g>
   <g id="patch_4">
    <path d="M 414.72 307.584 
L 414.72 41.472 
" style="fill:none;stroke:#000000;stroke-linecap:square;stroke-linejoin:miter;stroke-width:0.8;"/>
   </g>
   <g id="patch_5">
    <path d="M 57.6 307.584 
L 414.72 307.584 
" style="fill:none;stroke:#000000;stroke-linecap:square;stroke-linejoin:miter;stroke-width:0.8;"/>
   </g>
   <g id="patch_6">
    <path d="M 57.6 41.472 
L 414.72 41.472 
" style="fill:none;stroke:#000000;stroke-linecap:square;stroke-linejoin:miter;stroke-width:0.8;"/>
   </g>
   <g id="text_20">
    <!-- Training and Validation Accuracy -->
    <g transform="translate(138.4575 35.472)scale(0.12 -0.12)">
     <defs>
      <path d="M -19 4666 
L 3928 4666 
L 3928 4134 
L 2272 4134 
L 2272 0 
L 1638 0 
L 1638 4134 
L -19 4134 
L -19 4666 
z
" id="DejaVuSans-54" transform="scale(0.015625)"/>
      <path d="M 603 3500 
L 1178 3500 
L 1178 0 
L 603 0 
L 603 3500 
z
M 603 4863 
L 1178 4863 
L 1178 4134 
L 603 4134 
L 603 4863 
z
" id="DejaVuSans-69" transform="scale(0.015625)"/>
      <path d="M 3513 2113 
L 3513 0 
L 2938 0 
L 2938 2094 
Q 2938 2591 2744 2837 
Q 2550 3084 2163 3084 
Q 1697 3084 1428 2787 
Q 1159 2491 1159 1978 
L 1159 0 
L 581 0 
L 581 3500 
L 1159 3500 
L 1159 2956 
Q 1366 3272 1645 3428 
Q 1925 3584 2291 3584 
Q 2894 3584 3203 3211 
Q 3513 2838 3513 2113 
z
" id="DejaVuSans-6e" transform="scale(0.015625)"/>
      <path d="M 2906 1791 
Q 2906 2416 2648 2759 
Q 2391 3103 1925 3103 
Q 1463 3103 1205 2759 
Q 947 2416 947 1791 
Q 947 1169 1205 825 
Q 1463 481 1925 481 
Q 2391 481 2648 825 
Q 2906 1169 2906 1791 
z
M 3481 434 
Q 3481 -459 3084 -895 
Q 2688 -1331 1869 -1331 
Q 1566 -1331 1297 -1286 
Q 1028 -1241 775 -1147 
L 775 -588 
Q 1028 -725 1275 -790 
Q 1522 -856 1778 -856 
Q 2344 -856 2625 -561 
Q 2906 -266 2906 331 
L 2906 616 
Q 2728 306 2450 153 
Q 2172 0 1784 0 
Q 1141 0 747 490 
Q 353 981 353 1791 
Q 353 2603 747 3093 
Q 1141 3584 1784 3584 
Q 2172 3584 2450 3431 
Q 2728 3278 2906 2969 
L 2906 3500 
L 3481 3500 
L 3481 434 
z
" id="DejaVuSans-67" transform="scale(0.015625)"/>
      <path id="DejaVuSans-20" transform="scale(0.015625)"/>
      <path d="M 2906 2969 
L 2906 4863 
L 3481 4863 
L 3481 0 
L 2906 0 
L 2906 525 
Q 2725 213 2448 61 
Q 2172 -91 1784 -91 
Q 1150 -91 751 415 
Q 353 922 353 1747 
Q 353 2572 751 3078 
Q 1150 3584 1784 3584 
Q 2172 3584 2448 3432 
Q 2725 3281 2906 2969 
z
M 947 1747 
Q 947 1113 1208 752 
Q 1469 391 1925 391 
Q 2381 391 2643 752 
Q 2906 1113 2906 1747 
Q 2906 2381 2643 2742 
Q 2381 3103 1925 3103 
Q 1469 3103 1208 2742 
Q 947 2381 947 1747 
z
" id="DejaVuSans-64" transform="scale(0.015625)"/>
      <path d="M 1831 0 
L 50 4666 
L 709 4666 
L 2188 738 
L 3669 4666 
L 4325 4666 
L 2547 0 
L 1831 0 
z
" id="DejaVuSans-56" transform="scale(0.015625)"/>
      <path d="M 603 4863 
L 1178 4863 
L 1178 0 
L 603 0 
L 603 4863 
z
" id="DejaVuSans-6c" transform="scale(0.015625)"/>
      <path d="M 1172 4494 
L 1172 3500 
L 2356 3500 
L 2356 3053 
L 1172 3053 
L 1172 1153 
Q 1172 725 1289 603 
Q 1406 481 1766 481 
L 2356 481 
L 2356 0 
L 1766 0 
Q 1100 0 847 248 
Q 594 497 594 1153 
L 594 3053 
L 172 3053 
L 172 3500 
L 594 3500 
L 594 4494 
L 1172 4494 
z
" id="DejaVuSans-74" transform="scale(0.015625)"/>
     </defs>
     <use xlink:href="#DejaVuSans-54"/>
     <use x="46.333984" xlink:href="#DejaVuSans-72"/>
     <use x="87.447266" xlink:href="#DejaVuSans-61"/>
     <use x="148.726562" xlink:href="#DejaVuSans-69"/>
     <use x="176.509766" xlink:href="#DejaVuSans-6e"/>
     <use x="239.888672" xlink:href="#DejaVuSans-69"/>
     <use x="267.671875" xlink:href="#DejaVuSans-6e"/>
     <use x="331.050781" xlink:href="#DejaVuSans-67"/>
     <use x="394.527344" xlink:href="#DejaVuSans-20"/>
     <use x="426.314453" xlink:href="#DejaVuSans-61"/>
     <use x="487.59375" xlink:href="#DejaVuSans-6e"/>
     <use x="550.972656" xlink:href="#DejaVuSans-64"/>
     <use x="614.449219" xlink:href="#DejaVuSans-20"/>
     <use x="646.236328" xlink:href="#DejaVuSans-56"/>
     <use x="706.894531" xlink:href="#DejaVuSans-61"/>
     <use x="768.173828" xlink:href="#DejaVuSans-6c"/>
     <use x="795.957031" xlink:href="#DejaVuSans-69"/>
     <use x="823.740234" xlink:href="#DejaVuSans-64"/>
     <use x="887.216797" xlink:href="#DejaVuSans-61"/>
     <use x="948.496094" xlink:href="#DejaVuSans-74"/>
     <use x="987.705078" xlink:href="#DejaVuSans-69"/>
     <use x="1015.488281" xlink:href="#DejaVuSans-6f"/>
     <use x="1076.669922" xlink:href="#DejaVuSans-6e"/>
     <use x="1140.048828" xlink:href="#DejaVuSans-20"/>
     <use x="1171.835938" xlink:href="#DejaVuSans-41"/>
     <use x="1238.494141" xlink:href="#DejaVuSans-63"/>
     <use x="1293.474609" xlink:href="#DejaVuSans-63"/>
     <use x="1348.455078" xlink:href="#DejaVuSans-75"/>
     <use x="1411.833984" xlink:href="#DejaVuSans-72"/>
     <use x="1452.947266" xlink:href="#DejaVuSans-61"/>
     <use x="1514.226562" xlink:href="#DejaVuSans-63"/>
     <use x="1569.207031" xlink:href="#DejaVuSans-79"/>
    </g>
   </g>
   <g id="legend_1">
    <g id="patch_7">
     <path d="M 277.504375 302.584 
L 407.72 302.584 
Q 409.72 302.584 409.72 300.584 
L 409.72 272.22775 
Q 409.72 270.22775 407.72 270.22775 
L 277.504375 270.22775 
Q 275.504375 270.22775 275.504375 272.22775 
L 275.504375 300.584 
Q 275.504375 302.584 277.504375 302.584 
z
" style="fill:#ffffff;opacity:0.8;stroke:#cccccc;stroke-linejoin:miter;"/>
    </g>
    <g id="line2d_20">
     <path d="M 279.504375 278.326187 
L 299.504375 278.326187 
" style="fill:none;stroke:#1f77b4;stroke-linecap:square;stroke-width:1.5;"/>
    </g>
    <g id="line2d_21"/>
    <g id="text_21">
     <!-- Train Accuracy -->
     <g transform="translate(307.504375 281.826187)scale(0.1 -0.1)">
      <use xlink:href="#DejaVuSans-54"/>
      <use x="46.333984" xlink:href="#DejaVuSans-72"/>
      <use x="87.447266" xlink:href="#DejaVuSans-61"/>
      <use x="148.726562" xlink:href="#DejaVuSans-69"/>
      <use x="176.509766" xlink:href="#DejaVuSans-6e"/>
      <use x="239.888672" xlink:href="#DejaVuSans-20"/>
      <use x="271.675781" xlink:href="#DejaVuSans-41"/>
      <use x="338.333984" xlink:href="#DejaVuSans-63"/>
      <use x="393.314453" xlink:href="#DejaVuSans-63"/>
      <use x="448.294922" xlink:href="#DejaVuSans-75"/>
      <use x="511.673828" xlink:href="#DejaVuSans-72"/>
      <use x="552.787109" xlink:href="#DejaVuSans-61"/>
      <use x="614.066406" xlink:href="#DejaVuSans-63"/>
      <use x="669.046875" xlink:href="#DejaVuSans-79"/>
     </g>
    </g>
    <g id="line2d_22">
     <path d="M 279.504375 293.004312 
L 299.504375 293.004312 
" style="fill:none;stroke:#ff7f0e;stroke-linecap:square;stroke-width:1.5;"/>
    </g>
    <g id="line2d_23"/>
    <g id="text_22">
     <!-- Validation Accuracy -->
     <g transform="translate(307.504375 296.504312)scale(0.1 -0.1)">
      <use xlink:href="#DejaVuSans-56"/>
      <use x="60.658203" xlink:href="#DejaVuSans-61"/>
      <use x="121.9375" xlink:href="#DejaVuSans-6c"/>
      <use x="149.720703" xlink:href="#DejaVuSans-69"/>
      <use x="177.503906" xlink:href="#DejaVuSans-64"/>
      <use x="240.980469" xlink:href="#DejaVuSans-61"/>
      <use x="302.259766" xlink:href="#DejaVuSans-74"/>
      <use x="341.46875" xlink:href="#DejaVuSans-69"/>
      <use x="369.251953" xlink:href="#DejaVuSans-6f"/>
      <use x="430.433594" xlink:href="#DejaVuSans-6e"/>
      <use x="493.8125" xlink:href="#DejaVuSans-20"/>
      <use x="525.599609" xlink:href="#DejaVuSans-41"/>
      <use x="592.257812" xlink:href="#DejaVuSans-63"/>
      <use x="647.238281" xlink:href="#DejaVuSans-63"/>
      <use x="702.21875" xlink:href="#DejaVuSans-75"/>
      <use x="765.597656" xlink:href="#DejaVuSans-72"/>
      <use x="806.710938" xlink:href="#DejaVuSans-61"/>
      <use x="867.990234" xlink:href="#DejaVuSans-63"/>
      <use x="922.970703" xlink:href="#DejaVuSans-79"/>
     </g>
    </g>
   </g>
  </g>
 </g>
 <defs>
  <clipPath id="pb0bc1621d5">
   <rect height="266.112" width="357.12" x="57.6" y="41.472"/>
  </clipPath>
 </defs>
</svg>
