<?xml version="1.0" encoding="utf-8" standalone="no"?>
<!DOCTYPE svg PUBLIC "-//W3C//DTD SVG 1.1//EN"
  "http://www.w3.org/Graphics/SVG/1.1/DTD/svg11.dtd">
<svg height="345.6pt" version="1.1" viewBox="0 0 460.8 345.6" width="460.8pt" xmlns="http://www.w3.org/2000/svg" xmlns:xlink="http://www.w3.org/1999/xlink">
 <metadata>
  <rdf:RDF xmlns:cc="http://creativecommons.org/ns#" xmlns:dc="http://purl.org/dc/elements/1.1/" xmlns:rdf="http://www.w3.org/1999/02/22-rdf-syntax-ns#">
   <cc:Work>
    <dc:type rdf:resource="http://purl.org/dc/dcmitype/StillImage"/>
    <dc:date>2024-01-16T19:34:22.606085</dc:date>
    <dc:format>image/svg+xml</dc:format>
    <dc:creator>
     <cc:Agent>
      <dc:title>Matplotlib v3.4.3, https://matplotlib.org/</dc:title>
     </cc:Agent>
    </dc:creator>
   </cc:Work>
  </rdf:RDF>
 </metadata>
 <defs>
  <style type="text/css">*{stroke-linecap:butt;stroke-linejoin:round;}</style>
 </defs>
 <g id="figure_1">
  <g id="patch_1">
   <path d="M 0 345.6 
L 460.8 345.6 
L 460.8 0 
L 0 0 
z
" style="fill:#ffffff;"/>
  </g>
  <g id="axes_1">
   <g id="patch_2">
    <path d="M 57.6 307.584 
L 414.72 307.584 
L 414.72 41.472 
L 57.6 41.472 
z
" style="fill:#ffffff;"/>
   </g>
   <g id="matplotlib.axis_1">
    <g id="xtick_1">
     <g id="line2d_1">
      <defs>
       <path d="M 0 0 
L 0 3.5 
" id="m97fcabffe9" style="stroke:#000000;stroke-width:0.8;"/>
      </defs>
      <g>
       <use style="stroke:#000000;stroke-width:0.8;" x="73.832727" xlink:href="#m97fcabffe9" y="307.584"/>
      </g>
     </g>
     <g id="text_1">
      <!-- 1 -->
      <g transform="translate(70.651477 322.182437)scale(0.1 -0.1)">
       <defs>
        <path d="M 794 531 
L 1825 531 
L 1825 4091 
L 703 3866 
L 703 4441 
L 1819 4666 
L 2450 4666 
L 2450 531 
L 3481 531 
L 3481 0 
L 794 0 
L 794 531 
z
" id="DejaVuSans-31" transform="scale(0.015625)"/>
       </defs>
       <use xlink:href="#DejaVuSans-31"/>
      </g>
     </g>
    </g>
    <g id="xtick_2">
     <g id="line2d_2">
      <g>
       <use style="stroke:#000000;stroke-width:0.8;" x="109.555234" xlink:href="#m97fcabffe9" y="307.584"/>
      </g>
     </g>
     <g id="text_2">
      <!-- 35 -->
      <g transform="translate(103.192734 322.182437)scale(0.1 -0.1)">
       <defs>
        <path d="M 2597 2516 
Q 3050 2419 3304 2112 
Q 3559 1806 3559 1356 
Q 3559 666 3084 287 
Q 2609 -91 1734 -91 
Q 1441 -91 1130 -33 
Q 819 25 488 141 
L 488 750 
Q 750 597 1062 519 
Q 1375 441 1716 441 
Q 2309 441 2620 675 
Q 2931 909 2931 1356 
Q 2931 1769 2642 2001 
Q 2353 2234 1838 2234 
L 1294 2234 
L 1294 2753 
L 1863 2753 
Q 2328 2753 2575 2939 
Q 2822 3125 2822 3475 
Q 2822 3834 2567 4026 
Q 2313 4219 1838 4219 
Q 1578 4219 1281 4162 
Q 984 4106 628 3988 
L 628 4550 
Q 988 4650 1302 4700 
Q 1616 4750 1894 4750 
Q 2613 4750 3031 4423 
Q 3450 4097 3450 3541 
Q 3450 3153 3228 2886 
Q 3006 2619 2597 2516 
z
" id="DejaVuSans-33" transform="scale(0.015625)"/>
        <path d="M 691 4666 
L 3169 4666 
L 3169 4134 
L 1269 4134 
L 1269 2991 
Q 1406 3038 1543 3061 
Q 1681 3084 1819 3084 
Q 2600 3084 3056 2656 
Q 3513 2228 3513 1497 
Q 3513 744 3044 326 
Q 2575 -91 1722 -91 
Q 1428 -91 1123 -41 
Q 819 9 494 109 
L 494 744 
Q 775 591 1075 516 
Q 1375 441 1709 441 
Q 2250 441 2565 725 
Q 2881 1009 2881 1497 
Q 2881 1984 2565 2268 
Q 2250 2553 1709 2553 
Q 1456 2553 1204 2497 
Q 953 2441 691 2322 
L 691 4666 
z
" id="DejaVuSans-35" transform="scale(0.015625)"/>
       </defs>
       <use xlink:href="#DejaVuSans-33"/>
       <use x="63.623047" xlink:href="#DejaVuSans-35"/>
      </g>
     </g>
    </g>
    <g id="xtick_3">
     <g id="line2d_3">
      <g>
       <use style="stroke:#000000;stroke-width:0.8;" x="145.277741" xlink:href="#m97fcabffe9" y="307.584"/>
      </g>
     </g>
     <g id="text_3">
      <!-- 69 -->
      <g transform="translate(138.915241 322.182437)scale(0.1 -0.1)">
       <defs>
        <path d="M 2113 2584 
Q 1688 2584 1439 2293 
Q 1191 2003 1191 1497 
Q 1191 994 1439 701 
Q 1688 409 2113 409 
Q 2538 409 2786 701 
Q 3034 994 3034 1497 
Q 3034 2003 2786 2293 
Q 2538 2584 2113 2584 
z
M 3366 4563 
L 3366 3988 
Q 3128 4100 2886 4159 
Q 2644 4219 2406 4219 
Q 1781 4219 1451 3797 
Q 1122 3375 1075 2522 
Q 1259 2794 1537 2939 
Q 1816 3084 2150 3084 
Q 2853 3084 3261 2657 
Q 3669 2231 3669 1497 
Q 3669 778 3244 343 
Q 2819 -91 2113 -91 
Q 1303 -91 875 529 
Q 447 1150 447 2328 
Q 447 3434 972 4092 
Q 1497 4750 2381 4750 
Q 2619 4750 2861 4703 
Q 3103 4656 3366 4563 
z
" id="DejaVuSans-36" transform="scale(0.015625)"/>
        <path d="M 703 97 
L 703 672 
Q 941 559 1184 500 
Q 1428 441 1663 441 
Q 2288 441 2617 861 
Q 2947 1281 2994 2138 
Q 2813 1869 2534 1725 
Q 2256 1581 1919 1581 
Q 1219 1581 811 2004 
Q 403 2428 403 3163 
Q 403 3881 828 4315 
Q 1253 4750 1959 4750 
Q 2769 4750 3195 4129 
Q 3622 3509 3622 2328 
Q 3622 1225 3098 567 
Q 2575 -91 1691 -91 
Q 1453 -91 1209 -44 
Q 966 3 703 97 
z
M 1959 2075 
Q 2384 2075 2632 2365 
Q 2881 2656 2881 3163 
Q 2881 3666 2632 3958 
Q 2384 4250 1959 4250 
Q 1534 4250 1286 3958 
Q 1038 3666 1038 3163 
Q 1038 2656 1286 2365 
Q 1534 2075 1959 2075 
z
" id="DejaVuSans-39" transform="scale(0.015625)"/>
       </defs>
       <use xlink:href="#DejaVuSans-36"/>
       <use x="63.623047" xlink:href="#DejaVuSans-39"/>
      </g>
     </g>
    </g>
    <g id="xtick_4">
     <g id="line2d_4">
      <g>
       <use style="stroke:#000000;stroke-width:0.8;" x="182.050909" xlink:href="#m97fcabffe9" y="307.584"/>
      </g>
     </g>
     <g id="text_4">
      <!-- 104 -->
      <g transform="translate(172.507159 322.182437)scale(0.1 -0.1)">
       <defs>
        <path d="M 2034 4250 
Q 1547 4250 1301 3770 
Q 1056 3291 1056 2328 
Q 1056 1369 1301 889 
Q 1547 409 2034 409 
Q 2525 409 2770 889 
Q 3016 1369 3016 2328 
Q 3016 3291 2770 3770 
Q 2525 4250 2034 4250 
z
M 2034 4750 
Q 2819 4750 3233 4129 
Q 3647 3509 3647 2328 
Q 3647 1150 3233 529 
Q 2819 -91 2034 -91 
Q 1250 -91 836 529 
Q 422 1150 422 2328 
Q 422 3509 836 4129 
Q 1250 4750 2034 4750 
z
" id="DejaVuSans-30" transform="scale(0.015625)"/>
        <path d="M 2419 4116 
L 825 1625 
L 2419 1625 
L 2419 4116 
z
M 2253 4666 
L 3047 4666 
L 3047 1625 
L 3713 1625 
L 3713 1100 
L 3047 1100 
L 3047 0 
L 2419 0 
L 2419 1100 
L 313 1100 
L 313 1709 
L 2253 4666 
z
" id="DejaVuSans-34" transform="scale(0.015625)"/>
       </defs>
       <use xlink:href="#DejaVuSans-31"/>
       <use x="63.623047" xlink:href="#DejaVuSans-30"/>
       <use x="127.246094" xlink:href="#DejaVuSans-34"/>
      </g>
     </g>
    </g>
    <g id="xtick_5">
     <g id="line2d_5">
      <g>
       <use style="stroke:#000000;stroke-width:0.8;" x="217.773416" xlink:href="#m97fcabffe9" y="307.584"/>
      </g>
     </g>
     <g id="text_5">
      <!-- 138 -->
      <g transform="translate(208.229666 322.182437)scale(0.1 -0.1)">
       <defs>
        <path d="M 2034 2216 
Q 1584 2216 1326 1975 
Q 1069 1734 1069 1313 
Q 1069 891 1326 650 
Q 1584 409 2034 409 
Q 2484 409 2743 651 
Q 3003 894 3003 1313 
Q 3003 1734 2745 1975 
Q 2488 2216 2034 2216 
z
M 1403 2484 
Q 997 2584 770 2862 
Q 544 3141 544 3541 
Q 544 4100 942 4425 
Q 1341 4750 2034 4750 
Q 2731 4750 3128 4425 
Q 3525 4100 3525 3541 
Q 3525 3141 3298 2862 
Q 3072 2584 2669 2484 
Q 3125 2378 3379 2068 
Q 3634 1759 3634 1313 
Q 3634 634 3220 271 
Q 2806 -91 2034 -91 
Q 1263 -91 848 271 
Q 434 634 434 1313 
Q 434 1759 690 2068 
Q 947 2378 1403 2484 
z
M 1172 3481 
Q 1172 3119 1398 2916 
Q 1625 2713 2034 2713 
Q 2441 2713 2670 2916 
Q 2900 3119 2900 3481 
Q 2900 3844 2670 4047 
Q 2441 4250 2034 4250 
Q 1625 4250 1398 4047 
Q 1172 3844 1172 3481 
z
" id="DejaVuSans-38" transform="scale(0.015625)"/>
       </defs>
       <use xlink:href="#DejaVuSans-31"/>
       <use x="63.623047" xlink:href="#DejaVuSans-33"/>
       <use x="127.246094" xlink:href="#DejaVuSans-38"/>
      </g>
     </g>
    </g>
    <g id="xtick_6">
     <g id="line2d_6">
      <g>
       <use style="stroke:#000000;stroke-width:0.8;" x="253.495922" xlink:href="#m97fcabffe9" y="307.584"/>
      </g>
     </g>
     <g id="text_6">
      <!-- 172 -->
      <g transform="translate(243.952172 322.182437)scale(0.1 -0.1)">
       <defs>
        <path d="M 525 4666 
L 3525 4666 
L 3525 4397 
L 1831 0 
L 1172 0 
L 2766 4134 
L 525 4134 
L 525 4666 
z
" id="DejaVuSans-37" transform="scale(0.015625)"/>
        <path d="M 1228 531 
L 3431 531 
L 3431 0 
L 469 0 
L 469 531 
Q 828 903 1448 1529 
Q 2069 2156 2228 2338 
Q 2531 2678 2651 2914 
Q 2772 3150 2772 3378 
Q 2772 3750 2511 3984 
Q 2250 4219 1831 4219 
Q 1534 4219 1204 4116 
Q 875 4013 500 3803 
L 500 4441 
Q 881 4594 1212 4672 
Q 1544 4750 1819 4750 
Q 2544 4750 2975 4387 
Q 3406 4025 3406 3419 
Q 3406 3131 3298 2873 
Q 3191 2616 2906 2266 
Q 2828 2175 2409 1742 
Q 1991 1309 1228 531 
z
" id="DejaVuSans-32" transform="scale(0.015625)"/>
       </defs>
       <use xlink:href="#DejaVuSans-31"/>
       <use x="63.623047" xlink:href="#DejaVuSans-37"/>
       <use x="127.246094" xlink:href="#DejaVuSans-32"/>
      </g>
     </g>
    </g>
    <g id="xtick_7">
     <g id="line2d_7">
      <g>
       <use style="stroke:#000000;stroke-width:0.8;" x="290.269091" xlink:href="#m97fcabffe9" y="307.584"/>
      </g>
     </g>
     <g id="text_7">
      <!-- 207 -->
      <g transform="translate(280.725341 322.182437)scale(0.1 -0.1)">
       <use xlink:href="#DejaVuSans-32"/>
       <use x="63.623047" xlink:href="#DejaVuSans-30"/>
       <use x="127.246094" xlink:href="#DejaVuSans-37"/>
      </g>
     </g>
    </g>
    <g id="xtick_8">
     <g id="line2d_8">
      <g>
       <use style="stroke:#000000;stroke-width:0.8;" x="325.991598" xlink:href="#m97fcabffe9" y="307.584"/>
      </g>
     </g>
     <g id="text_8">
      <!-- 241 -->
      <g transform="translate(316.447848 322.182437)scale(0.1 -0.1)">
       <use xlink:href="#DejaVuSans-32"/>
       <use x="63.623047" xlink:href="#DejaVuSans-34"/>
       <use x="127.246094" xlink:href="#DejaVuSans-31"/>
      </g>
     </g>
    </g>
    <g id="xtick_9">
     <g id="line2d_9">
      <g>
       <use style="stroke:#000000;stroke-width:0.8;" x="361.714104" xlink:href="#m97fcabffe9" y="307.584"/>
      </g>
     </g>
     <g id="text_9">
      <!-- 275 -->
      <g transform="translate(352.170354 322.182437)scale(0.1 -0.1)">
       <use xlink:href="#DejaVuSans-32"/>
       <use x="63.623047" xlink:href="#DejaVuSans-37"/>
       <use x="127.246094" xlink:href="#DejaVuSans-35"/>
      </g>
     </g>
    </g>
    <g id="xtick_10">
     <g id="line2d_10">
      <g>
       <use style="stroke:#000000;stroke-width:0.8;" x="398.487273" xlink:href="#m97fcabffe9" y="307.584"/>
      </g>
     </g>
     <g id="text_10">
      <!-- 310 -->
      <g transform="translate(388.943523 322.182437)scale(0.1 -0.1)">
       <use xlink:href="#DejaVuSans-33"/>
       <use x="63.623047" xlink:href="#DejaVuSans-31"/>
       <use x="127.246094" xlink:href="#DejaVuSans-30"/>
      </g>
     </g>
    </g>
    <g id="text_11">
     <!-- Epochs -->
     <g transform="translate(218.244375 335.860562)scale(0.1 -0.1)">
      <defs>
       <path d="M 628 4666 
L 3578 4666 
L 3578 4134 
L 1259 4134 
L 1259 2753 
L 3481 2753 
L 3481 2222 
L 1259 2222 
L 1259 531 
L 3634 531 
L 3634 0 
L 628 0 
L 628 4666 
z
" id="DejaVuSans-45" transform="scale(0.015625)"/>
       <path d="M 1159 525 
L 1159 -1331 
L 581 -1331 
L 581 3500 
L 1159 3500 
L 1159 2969 
Q 1341 3281 1617 3432 
Q 1894 3584 2278 3584 
Q 2916 3584 3314 3078 
Q 3713 2572 3713 1747 
Q 3713 922 3314 415 
Q 2916 -91 2278 -91 
Q 1894 -91 1617 61 
Q 1341 213 1159 525 
z
M 3116 1747 
Q 3116 2381 2855 2742 
Q 2594 3103 2138 3103 
Q 1681 3103 1420 2742 
Q 1159 2381 1159 1747 
Q 1159 1113 1420 752 
Q 1681 391 2138 391 
Q 2594 391 2855 752 
Q 3116 1113 3116 1747 
z
" id="DejaVuSans-70" transform="scale(0.015625)"/>
       <path d="M 1959 3097 
Q 1497 3097 1228 2736 
Q 959 2375 959 1747 
Q 959 1119 1226 758 
Q 1494 397 1959 397 
Q 2419 397 2687 759 
Q 2956 1122 2956 1747 
Q 2956 2369 2687 2733 
Q 2419 3097 1959 3097 
z
M 1959 3584 
Q 2709 3584 3137 3096 
Q 3566 2609 3566 1747 
Q 3566 888 3137 398 
Q 2709 -91 1959 -91 
Q 1206 -91 779 398 
Q 353 888 353 1747 
Q 353 2609 779 3096 
Q 1206 3584 1959 3584 
z
" id="DejaVuSans-6f" transform="scale(0.015625)"/>
       <path d="M 3122 3366 
L 3122 2828 
Q 2878 2963 2633 3030 
Q 2388 3097 2138 3097 
Q 1578 3097 1268 2742 
Q 959 2388 959 1747 
Q 959 1106 1268 751 
Q 1578 397 2138 397 
Q 2388 397 2633 464 
Q 2878 531 3122 666 
L 3122 134 
Q 2881 22 2623 -34 
Q 2366 -91 2075 -91 
Q 1284 -91 818 406 
Q 353 903 353 1747 
Q 353 2603 823 3093 
Q 1294 3584 2113 3584 
Q 2378 3584 2631 3529 
Q 2884 3475 3122 3366 
z
" id="DejaVuSans-63" transform="scale(0.015625)"/>
       <path d="M 3513 2113 
L 3513 0 
L 2938 0 
L 2938 2094 
Q 2938 2591 2744 2837 
Q 2550 3084 2163 3084 
Q 1697 3084 1428 2787 
Q 1159 2491 1159 1978 
L 1159 0 
L 581 0 
L 581 4863 
L 1159 4863 
L 1159 2956 
Q 1366 3272 1645 3428 
Q 1925 3584 2291 3584 
Q 2894 3584 3203 3211 
Q 3513 2838 3513 2113 
z
" id="DejaVuSans-68" transform="scale(0.015625)"/>
       <path d="M 2834 3397 
L 2834 2853 
Q 2591 2978 2328 3040 
Q 2066 3103 1784 3103 
Q 1356 3103 1142 2972 
Q 928 2841 928 2578 
Q 928 2378 1081 2264 
Q 1234 2150 1697 2047 
L 1894 2003 
Q 2506 1872 2764 1633 
Q 3022 1394 3022 966 
Q 3022 478 2636 193 
Q 2250 -91 1575 -91 
Q 1294 -91 989 -36 
Q 684 19 347 128 
L 347 722 
Q 666 556 975 473 
Q 1284 391 1588 391 
Q 1994 391 2212 530 
Q 2431 669 2431 922 
Q 2431 1156 2273 1281 
Q 2116 1406 1581 1522 
L 1381 1569 
Q 847 1681 609 1914 
Q 372 2147 372 2553 
Q 372 3047 722 3315 
Q 1072 3584 1716 3584 
Q 2034 3584 2315 3537 
Q 2597 3491 2834 3397 
z
" id="DejaVuSans-73" transform="scale(0.015625)"/>
      </defs>
      <use xlink:href="#DejaVuSans-45"/>
      <use x="63.183594" xlink:href="#DejaVuSans-70"/>
      <use x="126.660156" xlink:href="#DejaVuSans-6f"/>
      <use x="187.841797" xlink:href="#DejaVuSans-63"/>
      <use x="242.822266" xlink:href="#DejaVuSans-68"/>
      <use x="306.201172" xlink:href="#DejaVuSans-73"/>
     </g>
    </g>
   </g>
   <g id="matplotlib.axis_2">
    <g id="ytick_1">
     <g id="line2d_11">
      <defs>
       <path d="M 0 0 
L -3.5 0 
" id="m9e3c995754" style="stroke:#000000;stroke-width:0.8;"/>
      </defs>
      <g>
       <use style="stroke:#000000;stroke-width:0.8;" x="57.6" xlink:href="#m9e3c995754" y="302.373833"/>
      </g>
     </g>
     <g id="text_12">
      <!-- 20 -->
      <g transform="translate(37.875 306.173052)scale(0.1 -0.1)">
       <use xlink:href="#DejaVuSans-32"/>
       <use x="63.623047" xlink:href="#DejaVuSans-30"/>
      </g>
     </g>
    </g>
    <g id="ytick_2">
     <g id="line2d_12">
      <g>
       <use style="stroke:#000000;stroke-width:0.8;" x="57.6" xlink:href="#m9e3c995754" y="268.453474"/>
      </g>
     </g>
     <g id="text_13">
      <!-- 30 -->
      <g transform="translate(37.875 272.252693)scale(0.1 -0.1)">
       <use xlink:href="#DejaVuSans-33"/>
       <use x="63.623047" xlink:href="#DejaVuSans-30"/>
      </g>
     </g>
    </g>
    <g id="ytick_3">
     <g id="line2d_13">
      <g>
       <use style="stroke:#000000;stroke-width:0.8;" x="57.6" xlink:href="#m9e3c995754" y="234.533115"/>
      </g>
     </g>
     <g id="text_14">
      <!-- 40 -->
      <g transform="translate(37.875 238.332334)scale(0.1 -0.1)">
       <use xlink:href="#DejaVuSans-34"/>
       <use x="63.623047" xlink:href="#DejaVuSans-30"/>
      </g>
     </g>
    </g>
    <g id="ytick_4">
     <g id="line2d_14">
      <g>
       <use style="stroke:#000000;stroke-width:0.8;" x="57.6" xlink:href="#m9e3c995754" y="200.612756"/>
      </g>
     </g>
     <g id="text_15">
      <!-- 50 -->
      <g transform="translate(37.875 204.411975)scale(0.1 -0.1)">
       <use xlink:href="#DejaVuSans-35"/>
       <use x="63.623047" xlink:href="#DejaVuSans-30"/>
      </g>
     </g>
    </g>
    <g id="ytick_5">
     <g id="line2d_15">
      <g>
       <use style="stroke:#000000;stroke-width:0.8;" x="57.6" xlink:href="#m9e3c995754" y="166.692397"/>
      </g>
     </g>
     <g id="text_16">
      <!-- 60 -->
      <g transform="translate(37.875 170.491616)scale(0.1 -0.1)">
       <use xlink:href="#DejaVuSans-36"/>
       <use x="63.623047" xlink:href="#DejaVuSans-30"/>
      </g>
     </g>
    </g>
    <g id="ytick_6">
     <g id="line2d_16">
      <g>
       <use style="stroke:#000000;stroke-width:0.8;" x="57.6" xlink:href="#m9e3c995754" y="132.772038"/>
      </g>
     </g>
     <g id="text_17">
      <!-- 70 -->
      <g transform="translate(37.875 136.571257)scale(0.1 -0.1)">
       <use xlink:href="#DejaVuSans-37"/>
       <use x="63.623047" xlink:href="#DejaVuSans-30"/>
      </g>
     </g>
    </g>
    <g id="ytick_7">
     <g id="line2d_17">
      <g>
       <use style="stroke:#000000;stroke-width:0.8;" x="57.6" xlink:href="#m9e3c995754" y="98.851679"/>
      </g>
     </g>
     <g id="text_18">
      <!-- 80 -->
      <g transform="translate(37.875 102.650898)scale(0.1 -0.1)">
       <use xlink:href="#DejaVuSans-38"/>
       <use x="63.623047" xlink:href="#DejaVuSans-30"/>
      </g>
     </g>
    </g>
    <g id="ytick_8">
     <g id="line2d_18">
      <g>
       <use style="stroke:#000000;stroke-width:0.8;" x="57.6" xlink:href="#m9e3c995754" y="64.93132"/>
      </g>
     </g>
     <g id="text_19">
      <!-- 90 -->
      <g transform="translate(37.875 68.730539)scale(0.1 -0.1)">
       <use xlink:href="#DejaVuSans-39"/>
       <use x="63.623047" xlink:href="#DejaVuSans-30"/>
      </g>
     </g>
    </g>
    <g id="text_20">
     <!-- Accuracy -->
     <g transform="translate(31.795312 197.356125)rotate(-90)scale(0.1 -0.1)">
      <defs>
       <path d="M 2188 4044 
L 1331 1722 
L 3047 1722 
L 2188 4044 
z
M 1831 4666 
L 2547 4666 
L 4325 0 
L 3669 0 
L 3244 1197 
L 1141 1197 
L 716 0 
L 50 0 
L 1831 4666 
z
" id="DejaVuSans-41" transform="scale(0.015625)"/>
       <path d="M 544 1381 
L 544 3500 
L 1119 3500 
L 1119 1403 
Q 1119 906 1312 657 
Q 1506 409 1894 409 
Q 2359 409 2629 706 
Q 2900 1003 2900 1516 
L 2900 3500 
L 3475 3500 
L 3475 0 
L 2900 0 
L 2900 538 
Q 2691 219 2414 64 
Q 2138 -91 1772 -91 
Q 1169 -91 856 284 
Q 544 659 544 1381 
z
M 1991 3584 
L 1991 3584 
z
" id="DejaVuSans-75" transform="scale(0.015625)"/>
       <path d="M 2631 2963 
Q 2534 3019 2420 3045 
Q 2306 3072 2169 3072 
Q 1681 3072 1420 2755 
Q 1159 2438 1159 1844 
L 1159 0 
L 581 0 
L 581 3500 
L 1159 3500 
L 1159 2956 
Q 1341 3275 1631 3429 
Q 1922 3584 2338 3584 
Q 2397 3584 2469 3576 
Q 2541 3569 2628 3553 
L 2631 2963 
z
" id="DejaVuSans-72" transform="scale(0.015625)"/>
       <path d="M 2194 1759 
Q 1497 1759 1228 1600 
Q 959 1441 959 1056 
Q 959 750 1161 570 
Q 1363 391 1709 391 
Q 2188 391 2477 730 
Q 2766 1069 2766 1631 
L 2766 1759 
L 2194 1759 
z
M 3341 1997 
L 3341 0 
L 2766 0 
L 2766 531 
Q 2569 213 2275 61 
Q 1981 -91 1556 -91 
Q 1019 -91 701 211 
Q 384 513 384 1019 
Q 384 1609 779 1909 
Q 1175 2209 1959 2209 
L 2766 2209 
L 2766 2266 
Q 2766 2663 2505 2880 
Q 2244 3097 1772 3097 
Q 1472 3097 1187 3025 
Q 903 2953 641 2809 
L 641 3341 
Q 956 3463 1253 3523 
Q 1550 3584 1831 3584 
Q 2591 3584 2966 3190 
Q 3341 2797 3341 1997 
z
" id="DejaVuSans-61" transform="scale(0.015625)"/>
       <path d="M 2059 -325 
Q 1816 -950 1584 -1140 
Q 1353 -1331 966 -1331 
L 506 -1331 
L 506 -850 
L 844 -850 
Q 1081 -850 1212 -737 
Q 1344 -625 1503 -206 
L 1606 56 
L 191 3500 
L 800 3500 
L 1894 763 
L 2988 3500 
L 3597 3500 
L 2059 -325 
z
" id="DejaVuSans-79" transform="scale(0.015625)"/>
      </defs>
      <use xlink:href="#DejaVuSans-41"/>
      <use x="66.658203" xlink:href="#DejaVuSans-63"/>
      <use x="121.638672" xlink:href="#DejaVuSans-63"/>
      <use x="176.619141" xlink:href="#DejaVuSans-75"/>
      <use x="239.998047" xlink:href="#DejaVuSans-72"/>
      <use x="281.111328" xlink:href="#DejaVuSans-61"/>
      <use x="342.390625" xlink:href="#DejaVuSans-63"/>
      <use x="397.371094" xlink:href="#DejaVuSans-79"/>
     </g>
    </g>
   </g>
   <g id="line2d_19">
    <path clip-path="url(#pecb0e0fae1)" d="M 73.832727 295.488 
L 74.883389 272.171145 
L 76.984713 234.282104 
L 78.035375 221.053164 
L 79.086037 212.423825 
L 80.136699 207.973474 
L 81.187361 184.656619 
L 82.238023 185.687798 
L 83.288685 184.222439 
L 84.339347 203.65202 
L 85.390009 201.175834 
L 86.440671 183.347293 
L 87.491333 181.698764 
L 88.541995 175.559179 
L 89.592657 157.228617 
L 90.643319 162.560897 
L 91.693981 164.976027 
L 92.744643 162.126717 
L 93.795305 151.394315 
L 94.845966 148.524653 
L 95.896628 144.05395 
L 96.94729 120.153665 
L 97.997952 124.617584 
L 99.048614 129.990569 
L 100.099276 126.395011 
L 101.149938 120.038335 
L 102.2006 126.469635 
L 103.251262 124.271596 
L 104.301924 123.762791 
L 105.352586 158.755033 
L 106.403248 138.816646 
L 107.45391 151.401099 
L 108.504572 143.009202 
L 109.555234 140.72297 
L 110.605896 136.062313 
L 111.656558 145.722831 
L 112.70722 127.941779 
L 113.757882 132.473539 
L 114.808544 134.99043 
L 115.859206 138.816646 
L 116.909868 128.314903 
L 117.96053 135.831655 
L 119.011192 123.0776 
L 120.061853 126.761351 
L 121.112515 126.320386 
L 122.163177 122.623067 
L 124.264501 126.72743 
L 125.315163 116.212119 
L 126.365825 115.974676 
L 127.416487 118.708657 
L 128.467149 113.539195 
L 129.517811 113.389945 
L 130.568473 111.470053 
L 131.619135 113.702012 
L 132.669797 109.068491 
L 133.720459 114.990986 
L 134.771121 109.719762 
L 135.821783 109.740114 
L 136.872445 108.376516 
L 137.923107 103.220621 
L 138.973769 96.965707 
L 140.024431 105.35082 
L 141.075093 101.327865 
L 142.125755 101.58566 
L 143.176417 105.140514 
L 144.227079 97.243854 
L 145.277741 98.926304 
L 146.328402 96.409413 
L 147.379064 122.433113 
L 148.429726 126.557828 
L 149.480388 117.684262 
L 150.53105 119.271735 
L 151.581712 133.206219 
L 152.632374 129.461411 
L 153.683036 124.929651 
L 154.733698 130.445102 
L 155.78436 111.083361 
L 156.835022 115.76437 
L 157.885684 110.472794 
L 158.936346 117.745319 
L 159.987008 116.924446 
L 161.03767 110.83235 
L 162.088332 124.515823 
L 163.138994 111.768552 
L 164.189656 106.992565 
L 165.240318 113.790205 
L 166.29098 125.16031 
L 167.341642 117.942057 
L 168.392304 108.213698 
L 169.442966 108.172994 
L 170.493628 111.483621 
L 171.544289 100.622322 
L 173.645613 118.776498 
L 174.696275 110.988384 
L 175.746937 116.259607 
L 176.797599 115.187724 
L 177.848261 102.637191 
L 179.949585 100.690163 
L 181.000247 113.966591 
L 182.050909 93.709353 
L 183.101571 102.392965 
L 185.202895 96.056642 
L 186.253557 100.758003 
L 187.304219 108.044096 
L 188.354881 107.962688 
L 189.405543 92.48822 
L 190.456205 96.680776 
L 191.506867 95.968449 
L 192.557529 94.17067 
L 193.608191 98.173272 
L 194.658853 97.379536 
L 195.709515 87.108451 
L 196.760177 91.769108 
L 197.810838 97.196366 
L 198.8615 88.221039 
L 199.912162 89.930625 
L 200.962824 97.881557 
L 202.013486 93.397285 
L 203.064148 82.793781 
L 204.11481 87.332325 
L 205.165472 98.213976 
L 206.216134 97.888341 
L 207.266796 92.623901 
L 208.317458 79.394961 
L 209.36812 91.511314 
L 210.418782 88.261743 
L 211.469444 90.914315 
L 212.520106 80.555038 
L 213.570768 88.316016 
L 214.62143 91.674131 
L 215.672092 79.795222 
L 216.722754 86.199385 
L 217.773416 90.900747 
L 218.824078 95.00511 
L 219.87474 84.801867 
L 220.925402 80.127641 
L 221.976064 79.707029 
L 223.026726 89.577853 
L 224.077387 74.829281 
L 225.128049 87.216996 
L 226.178711 82.834486 
L 227.229373 75.690858 
L 228.280035 96.090562 
L 229.330697 81.477671 
L 230.381359 72.64481 
L 231.432021 102.711816 
L 233.533345 132.744902 
L 234.584007 103.648018 
L 235.634669 102.732168 
L 236.685331 107.555643 
L 237.735993 119.041077 
L 238.786655 119.509178 
L 239.837317 117.765671 
L 240.887979 108.41722 
L 241.938641 110.24892 
L 242.989303 109.651921 
L 244.039965 109.326286 
L 245.090627 102.277635 
L 246.141289 109.902932 
L 247.191951 114.461828 
L 249.293274 106.15134 
L 250.343936 96.83681 
L 251.394598 104.679197 
L 252.44526 114.26509 
L 253.495922 119.183542 
L 254.546584 101.198968 
L 255.597246 97.250638 
L 256.647908 104.326425 
L 257.69857 104.821662 
L 258.749232 101.056503 
L 259.799894 95.785279 
L 260.850556 108.56647 
L 261.901218 100.574833 
L 262.95188 124.79397 
L 264.002542 104.977696 
L 265.053204 96.558663 
L 266.103866 94.916918 
L 267.154528 107.630268 
L 268.20519 106.497328 
L 269.255852 101.334649 
L 270.306514 101.266809 
L 271.357176 100.703731 
L 272.407838 111.93137 
L 273.4585 100.011755 
L 274.509162 107.732029 
L 275.559823 98.614237 
L 276.610485 103.369871 
L 277.661147 111.985642 
L 278.711809 100.093164 
L 279.762471 98.607453 
L 280.813133 94.462385 
L 281.863795 97.630546 
L 282.914457 98.247897 
L 283.965119 97.040332 
L 285.015781 93.912875 
L 286.066443 101.300729 
L 287.117105 100.283118 
L 288.167767 100.764787 
L 289.218429 103.675154 
L 290.269091 97.657683 
L 291.319753 97.223502 
L 292.370415 94.42168 
L 293.421077 113.634172 
L 294.471739 99.564007 
L 295.522401 87.80721 
L 296.573063 104.204312 
L 297.623725 96.640072 
L 298.674387 100.717299 
L 299.725049 93.349797 
L 300.775711 95.622461 
L 301.826372 87.434086 
L 302.877034 100.846196 
L 303.927696 93.098786 
L 304.978358 78.411271 
L 306.02902 97.691603 
L 307.079682 102.922122 
L 308.130344 97.447376 
L 309.181006 87.210212 
L 310.231668 100.045676 
L 311.28233 77.766784 
L 312.332992 97.93583 
L 313.383654 91.911574 
L 314.434316 96.952139 
L 315.484978 78.777611 
L 316.53564 94.367408 
L 317.586302 99.265508 
L 318.636964 92.739231 
L 319.687626 88.309232 
L 320.738288 80.968866 
L 321.78895 91.267087 
L 322.839612 89.883136 
L 323.890274 82.556339 
L 324.940936 93.058082 
L 325.991598 92.800287 
L 327.042259 92.054039 
L 328.092921 88.913014 
L 329.143583 84.991821 
L 330.194245 90.561543 
L 331.244907 87.92254 
L 332.295569 83.560381 
L 333.346231 89.184377 
L 334.396893 80.086937 
L 335.447555 76.016494 
L 336.498217 88.010732 
L 337.548879 79.184655 
L 338.599541 81.423399 
L 339.650203 84.394822 
L 340.700865 75.087076 
L 341.751527 78.770827 
L 342.802189 75.392359 
L 343.852851 85.758421 
L 344.903513 81.803307 
L 345.954175 88.227823 
L 347.004837 75.412711 
L 349.106161 87.976812 
L 350.156823 69.82942 
L 351.207485 77.217274 
L 352.258147 97.20315 
L 353.308808 82.006829 
L 354.35947 73.241808 
L 355.410132 72.27847 
L 356.460794 71.790017 
L 357.511456 83.506109 
L 358.562118 68.574367 
L 359.61278 64.687094 
L 360.663442 73.391058 
L 361.714104 74.686815 
L 362.764766 69.727659 
L 363.815428 76.186095 
L 364.86609 88.790901 
L 365.916752 70.738486 
L 366.967414 73.424978 
L 368.018076 76.620276 
L 369.068738 74.6936 
L 370.1194 73.730261 
L 371.170062 67.9638 
L 372.220724 85.188559 
L 373.271386 85.371729 
L 374.322048 73.988056 
L 375.37271 68.906786 
L 376.423372 82.359601 
L 378.524695 65.08057 
L 379.575357 84.489799 
L 380.626019 64.592117 
L 381.676681 72.488776 
L 382.727343 76.898423 
L 383.778005 71.254075 
L 384.828667 72.760139 
L 385.879329 68.343708 
L 386.929991 78.967565 
L 387.980653 69.937965 
L 389.031315 72.088516 
L 390.081977 75.663722 
L 391.132639 66.260998 
L 392.183301 80.114073 
L 393.233963 74.632543 
L 394.284625 79.578131 
L 395.335287 77.135865 
L 396.385949 81.199524 
L 397.436611 75.582313 
L 398.487273 73.703125 
L 398.487273 73.703125 
" style="fill:none;stroke:#1f77b4;stroke-linecap:square;stroke-width:1.5;"/>
   </g>
   <g id="line2d_20">
    <path clip-path="url(#pecb0e0fae1)" d="M 73.832727 264.009907 
L 74.883389 252.578746 
L 75.934051 262.347809 
L 76.984713 213.773855 
L 78.035375 207.362907 
L 79.086037 185.043311 
L 80.136699 205.463367 
L 81.187361 183.109851 
L 82.238023 182.668886 
L 83.288685 187.349896 
L 84.339347 182.329683 
L 85.390009 172.831982 
L 86.440671 204.954562 
L 87.491333 152.242324 
L 88.541995 159.467361 
L 89.592657 153.463457 
L 90.643319 123.342178 
L 91.693981 147.459554 
L 92.744643 122.629851 
L 93.795305 132.873799 
L 94.845966 132.229312 
L 95.896628 113.878398 
L 96.94729 107.128247 
L 97.997952 126.700294 
L 99.048614 110.588123 
L 100.099276 99.224803 
L 101.149938 102.515078 
L 102.2006 98.648157 
L 103.251262 98.00367 
L 104.301924 97.528785 
L 105.352586 130.16017 
L 106.403248 117.338275 
L 107.45391 126.903816 
L 108.504572 114.488965 
L 109.555234 134.196693 
L 110.605896 114.590726 
L 111.656558 99.90321 
L 112.70722 113.980159 
L 113.757882 98.95344 
L 114.808544 115.167372 
L 115.859206 94.509873 
L 116.909868 95.527484 
L 117.96053 97.494865 
L 119.011192 85.792341 
L 120.061853 87.013474 
L 121.112515 86.64035 
L 122.163177 92.881696 
L 123.213839 90.982156 
L 124.264501 78.804747 
L 125.315163 80.229402 
L 126.365825 86.742111 
L 127.416487 77.583614 
L 128.467149 78.635145 
L 129.517811 75.751915 
L 130.568473 83.078712 
L 131.619135 75.989357 
L 132.669797 73.750614 
L 133.720459 75.684074 
L 134.771121 74.191578 
L 135.821783 71.613631 
L 136.872445 72.868684 
L 137.923107 72.46164 
L 138.973769 69.544489 
L 140.024431 72.190277 
L 141.075093 70.019374 
L 142.125755 73.682773 
L 143.176417 69.68017 
L 144.227079 69.307047 
L 145.277741 69.205285 
L 146.328402 69.781932 
L 147.379064 121.035594 
L 148.429726 102.922122 
L 149.480388 90.40551 
L 150.53105 86.165465 
L 151.581712 100.242414 
L 152.632374 91.558802 
L 153.683036 88.438129 
L 154.733698 88.166766 
L 155.78436 99.089122 
L 156.835022 92.237209 
L 157.885684 82.027181 
L 158.936346 75.650154 
L 159.987008 81.280933 
L 161.03767 83.553597 
L 162.088332 84.876491 
L 163.138994 80.670367 
L 164.189656 90.43943 
L 165.240318 82.400305 
L 166.29098 83.316155 
L 167.341642 74.462941 
L 168.392304 76.192879 
L 169.442966 77.278331 
L 170.493628 76.566003 
L 171.544289 77.583614 
L 172.594951 72.733003 
L 173.645613 81.755818 
L 174.696275 76.803446 
L 175.746937 80.602526 
L 176.797599 82.400305 
L 177.848261 75.412711 
L 178.898923 77.481853 
L 179.949585 72.46164 
L 181.000247 74.836065 
L 182.050909 73.716693 
L 183.101571 67.475347 
L 184.152233 73.173967 
L 185.202895 70.765622 
L 186.253557 66.016772 
L 187.304219 67.000462 
L 188.354881 70.5621 
L 189.405543 67.848471 
L 190.456205 73.988056 
L 191.506867 66.932621 
L 192.557529 72.665162 
L 193.608191 65.270524 
L 194.658853 71.240507 
L 195.709515 64.015471 
L 196.760177 62.963939 
L 197.810838 66.627338 
L 198.8615 66.79694 
L 199.912162 63.404904 
L 200.962824 62.353373 
L 202.013486 63.540586 
L 203.064148 63.03178 
L 204.11481 63.438824 
L 205.165472 63.472745 
L 206.216134 67.339666 
L 207.266796 61.674966 
L 208.317458 61.064399 
L 209.36812 60.759116 
L 210.418782 61.912408 
L 211.469444 61.742807 
L 212.520106 61.301842 
L 213.570768 59.334461 
L 214.62143 58.622133 
L 215.672092 58.927417 
L 216.722754 61.030479 
L 217.773416 58.723895 
L 218.824078 58.961337 
L 219.87474 59.537983 
L 220.925402 59.673665 
L 221.976064 58.723895 
L 223.026726 59.639744 
L 224.077387 58.486452 
L 225.128049 59.436222 
L 226.178711 59.130939 
L 227.229373 58.045487 
L 229.330697 58.791735 
L 230.381359 59.605824 
L 231.432021 80.636446 
L 232.482683 90.40551 
L 233.533345 87.115235 
L 234.584007 81.179172 
L 235.634669 73.750614 
L 236.685331 79.924119 
L 237.735993 81.280933 
L 238.786655 74.768224 
L 239.837317 92.542492 
L 240.887979 77.278331 
L 241.938641 77.821057 
L 242.989303 77.854977 
L 244.039965 76.464242 
L 245.090627 76.905207 
L 246.141289 85.622739 
L 247.191951 77.888897 
L 248.242613 75.480552 
L 249.293274 76.125039 
L 250.343936 73.954136 
L 251.394598 76.125039 
L 252.44526 102.7186 
L 253.495922 69.917613 
L 254.546584 73.547091 
L 255.597246 74.598623 
L 256.647908 76.769526 
L 257.69857 75.480552 
L 258.749232 76.328561 
L 259.799894 73.072206 
L 260.850556 75.684074 
L 262.95188 79.279632 
L 264.002542 74.293339 
L 267.154528 78.906508 
L 268.20519 78.363782 
L 269.255852 81.518376 
L 270.306514 65.81325 
L 271.357176 66.83086 
L 272.407838 77.549694 
L 273.4585 73.038286 
L 274.509162 71.274427 
L 275.559823 69.883693 
L 276.610485 70.188976 
L 277.661147 81.111331 
L 278.711809 71.308348 
L 279.762471 78.058499 
L 280.813133 76.464242 
L 281.863795 68.289436 
L 282.914457 68.425117 
L 283.965119 80.263322 
L 285.015781 69.171365 
L 286.066443 73.343569 
L 287.117105 69.205285 
L 288.167767 68.153754 
L 289.218429 65.507966 
L 290.269091 76.125039 
L 291.319753 66.898701 
L 292.370415 68.119834 
L 293.421077 80.772128 
L 294.471739 65.81325 
L 295.522401 65.779329 
L 296.573063 67.068303 
L 297.623725 64.659957 
L 298.674387 64.93132 
L 299.725049 73.988056 
L 300.775711 68.66256 
L 301.826372 67.068303 
L 302.877034 67.950232 
L 303.927696 67.373586 
L 304.978358 63.201382 
L 306.02902 63.03178 
L 307.079682 65.915011 
L 308.130344 63.235302 
L 309.181006 68.66256 
L 310.231668 66.661259 
L 311.28233 65.575807 
L 312.332992 67.271825 
L 313.383654 65.134842 
L 314.434316 64.151152 
L 315.484978 64.049391 
L 316.53564 61.09832 
L 317.586302 65.304444 
L 318.636964 62.04809 
L 319.687626 63.167462 
L 320.738288 63.201382 
L 321.78895 65.81325 
L 322.839612 61.946329 
L 323.890274 61.16616 
L 324.940936 59.029178 
L 325.991598 66.084612 
L 327.042259 62.014169 
L 328.092921 65.067002 
L 329.143583 61.09832 
L 330.194245 61.539284 
L 332.295569 58.554293 
L 333.346231 60.691275 
L 334.396893 60.962638 
L 335.447555 58.961337 
L 336.498217 59.911107 
L 337.548879 60.012868 
L 338.599541 60.928718 
L 339.650203 59.470142 
L 340.700865 60.385992 
L 341.751527 58.418611 
L 342.802189 59.063098 
L 343.852851 57.808045 
L 344.903513 56.858275 
L 345.954175 58.689974 
L 347.004837 59.877187 
L 348.055499 57.502762 
L 349.106161 58.689974 
L 350.156823 55.738903 
L 351.207485 56.451231 
L 352.258147 56.451231 
L 353.308808 59.741505 
L 354.35947 56.586912 
L 355.410132 55.569301 
L 356.460794 59.809346 
L 357.511456 55.230098 
L 358.562118 56.281629 
L 359.61278 56.010266 
L 360.663442 55.094416 
L 361.714104 56.519071 
L 362.764766 55.331859 
L 363.815428 56.824354 
L 364.86609 55.026575 
L 365.916752 55.060496 
L 366.967414 54.48385 
L 368.018076 54.958735 
L 369.068738 54.178566 
L 370.1194 54.585611 
L 371.170062 56.044186 
L 372.220724 55.738903 
L 373.271386 54.178566 
L 374.322048 53.60192 
L 375.37271 53.568 
L 376.423372 55.230098 
L 377.474034 54.246407 
L 378.524695 54.076805 
L 379.575357 54.382089 
L 380.626019 54.55169 
L 381.676681 54.449929 
L 382.727343 54.008965 
L 383.778005 54.823053 
L 384.828667 54.280328 
L 385.879329 54.348168 
L 386.929991 53.873283 
L 387.980653 53.703681 
L 389.031315 54.789133 
L 390.081977 54.348168 
L 391.132639 54.348168 
L 392.183301 54.890894 
L 393.233963 53.873283 
L 394.284625 54.755213 
L 395.335287 53.839363 
L 396.385949 53.635841 
L 397.436611 53.635841 
L 398.487273 53.941124 
L 398.487273 53.941124 
" style="fill:none;stroke:#ff7f0e;stroke-linecap:square;stroke-width:1.5;"/>
   </g>
   <g id="patch_3">
    <path d="M 57.6 307.584 
L 57.6 41.472 
" style="fill:none;stroke:#000000;stroke-linecap:square;stroke-linejoin:miter;stroke-width:0.8;"/>
   </g>
   <g id="patch_4">
    <path d="M 414.72 307.584 
L 414.72 41.472 
" style="fill:none;stroke:#000000;stroke-linecap:square;stroke-linejoin:miter;stroke-width:0.8;"/>
   </g>
   <g id="patch_5">
    <path d="M 57.6 307.584 
L 414.72 307.584 
" style="fill:none;stroke:#000000;stroke-linecap:square;stroke-linejoin:miter;stroke-width:0.8;"/>
   </g>
   <g id="patch_6">
    <path d="M 57.6 41.472 
L 414.72 41.472 
" style="fill:none;stroke:#000000;stroke-linecap:square;stroke-linejoin:miter;stroke-width:0.8;"/>
   </g>
   <g id="text_21">
    <!-- Training and Validation Accuracy -->
    <g transform="translate(138.4575 35.472)scale(0.12 -0.12)">
     <defs>
      <path d="M -19 4666 
L 3928 4666 
L 3928 4134 
L 2272 4134 
L 2272 0 
L 1638 0 
L 1638 4134 
L -19 4134 
L -19 4666 
z
" id="DejaVuSans-54" transform="scale(0.015625)"/>
      <path d="M 603 3500 
L 1178 3500 
L 1178 0 
L 603 0 
L 603 3500 
z
M 603 4863 
L 1178 4863 
L 1178 4134 
L 603 4134 
L 603 4863 
z
" id="DejaVuSans-69" transform="scale(0.015625)"/>
      <path d="M 3513 2113 
L 3513 0 
L 2938 0 
L 2938 2094 
Q 2938 2591 2744 2837 
Q 2550 3084 2163 3084 
Q 1697 3084 1428 2787 
Q 1159 2491 1159 1978 
L 1159 0 
L 581 0 
L 581 3500 
L 1159 3500 
L 1159 2956 
Q 1366 3272 1645 3428 
Q 1925 3584 2291 3584 
Q 2894 3584 3203 3211 
Q 3513 2838 3513 2113 
z
" id="DejaVuSans-6e" transform="scale(0.015625)"/>
      <path d="M 2906 1791 
Q 2906 2416 2648 2759 
Q 2391 3103 1925 3103 
Q 1463 3103 1205 2759 
Q 947 2416 947 1791 
Q 947 1169 1205 825 
Q 1463 481 1925 481 
Q 2391 481 2648 825 
Q 2906 1169 2906 1791 
z
M 3481 434 
Q 3481 -459 3084 -895 
Q 2688 -1331 1869 -1331 
Q 1566 -1331 1297 -1286 
Q 1028 -1241 775 -1147 
L 775 -588 
Q 1028 -725 1275 -790 
Q 1522 -856 1778 -856 
Q 2344 -856 2625 -561 
Q 2906 -266 2906 331 
L 2906 616 
Q 2728 306 2450 153 
Q 2172 0 1784 0 
Q 1141 0 747 490 
Q 353 981 353 1791 
Q 353 2603 747 3093 
Q 1141 3584 1784 3584 
Q 2172 3584 2450 3431 
Q 2728 3278 2906 2969 
L 2906 3500 
L 3481 3500 
L 3481 434 
z
" id="DejaVuSans-67" transform="scale(0.015625)"/>
      <path id="DejaVuSans-20" transform="scale(0.015625)"/>
      <path d="M 2906 2969 
L 2906 4863 
L 3481 4863 
L 3481 0 
L 2906 0 
L 2906 525 
Q 2725 213 2448 61 
Q 2172 -91 1784 -91 
Q 1150 -91 751 415 
Q 353 922 353 1747 
Q 353 2572 751 3078 
Q 1150 3584 1784 3584 
Q 2172 3584 2448 3432 
Q 2725 3281 2906 2969 
z
M 947 1747 
Q 947 1113 1208 752 
Q 1469 391 1925 391 
Q 2381 391 2643 752 
Q 2906 1113 2906 1747 
Q 2906 2381 2643 2742 
Q 2381 3103 1925 3103 
Q 1469 3103 1208 2742 
Q 947 2381 947 1747 
z
" id="DejaVuSans-64" transform="scale(0.015625)"/>
      <path d="M 1831 0 
L 50 4666 
L 709 4666 
L 2188 738 
L 3669 4666 
L 4325 4666 
L 2547 0 
L 1831 0 
z
" id="DejaVuSans-56" transform="scale(0.015625)"/>
      <path d="M 603 4863 
L 1178 4863 
L 1178 0 
L 603 0 
L 603 4863 
z
" id="DejaVuSans-6c" transform="scale(0.015625)"/>
      <path d="M 1172 4494 
L 1172 3500 
L 2356 3500 
L 2356 3053 
L 1172 3053 
L 1172 1153 
Q 1172 725 1289 603 
Q 1406 481 1766 481 
L 2356 481 
L 2356 0 
L 1766 0 
Q 1100 0 847 248 
Q 594 497 594 1153 
L 594 3053 
L 172 3053 
L 172 3500 
L 594 3500 
L 594 4494 
L 1172 4494 
z
" id="DejaVuSans-74" transform="scale(0.015625)"/>
     </defs>
     <use xlink:href="#DejaVuSans-54"/>
     <use x="46.333984" xlink:href="#DejaVuSans-72"/>
     <use x="87.447266" xlink:href="#DejaVuSans-61"/>
     <use x="148.726562" xlink:href="#DejaVuSans-69"/>
     <use x="176.509766" xlink:href="#DejaVuSans-6e"/>
     <use x="239.888672" xlink:href="#DejaVuSans-69"/>
     <use x="267.671875" xlink:href="#DejaVuSans-6e"/>
     <use x="331.050781" xlink:href="#DejaVuSans-67"/>
     <use x="394.527344" xlink:href="#DejaVuSans-20"/>
     <use x="426.314453" xlink:href="#DejaVuSans-61"/>
     <use x="487.59375" xlink:href="#DejaVuSans-6e"/>
     <use x="550.972656" xlink:href="#DejaVuSans-64"/>
     <use x="614.449219" xlink:href="#DejaVuSans-20"/>
     <use x="646.236328" xlink:href="#DejaVuSans-56"/>
     <use x="706.894531" xlink:href="#DejaVuSans-61"/>
     <use x="768.173828" xlink:href="#DejaVuSans-6c"/>
     <use x="795.957031" xlink:href="#DejaVuSans-69"/>
     <use x="823.740234" xlink:href="#DejaVuSans-64"/>
     <use x="887.216797" xlink:href="#DejaVuSans-61"/>
     <use x="948.496094" xlink:href="#DejaVuSans-74"/>
     <use x="987.705078" xlink:href="#DejaVuSans-69"/>
     <use x="1015.488281" xlink:href="#DejaVuSans-6f"/>
     <use x="1076.669922" xlink:href="#DejaVuSans-6e"/>
     <use x="1140.048828" xlink:href="#DejaVuSans-20"/>
     <use x="1171.835938" xlink:href="#DejaVuSans-41"/>
     <use x="1238.494141" xlink:href="#DejaVuSans-63"/>
     <use x="1293.474609" xlink:href="#DejaVuSans-63"/>
     <use x="1348.455078" xlink:href="#DejaVuSans-75"/>
     <use x="1411.833984" xlink:href="#DejaVuSans-72"/>
     <use x="1452.947266" xlink:href="#DejaVuSans-61"/>
     <use x="1514.226562" xlink:href="#DejaVuSans-63"/>
     <use x="1569.207031" xlink:href="#DejaVuSans-79"/>
    </g>
   </g>
   <g id="legend_1">
    <g id="patch_7">
     <path d="M 277.504375 302.584 
L 407.72 302.584 
Q 409.72 302.584 409.72 300.584 
L 409.72 272.22775 
Q 409.72 270.22775 407.72 270.22775 
L 277.504375 270.22775 
Q 275.504375 270.22775 275.504375 272.22775 
L 275.504375 300.584 
Q 275.504375 302.584 277.504375 302.584 
z
" style="fill:#ffffff;opacity:0.8;stroke:#cccccc;stroke-linejoin:miter;"/>
    </g>
    <g id="line2d_21">
     <path d="M 279.504375 278.326187 
L 299.504375 278.326187 
" style="fill:none;stroke:#1f77b4;stroke-linecap:square;stroke-width:1.5;"/>
    </g>
    <g id="line2d_22"/>
    <g id="text_22">
     <!-- Train Accuracy -->
     <g transform="translate(307.504375 281.826187)scale(0.1 -0.1)">
      <use xlink:href="#DejaVuSans-54"/>
      <use x="46.333984" xlink:href="#DejaVuSans-72"/>
      <use x="87.447266" xlink:href="#DejaVuSans-61"/>
      <use x="148.726562" xlink:href="#DejaVuSans-69"/>
      <use x="176.509766" xlink:href="#DejaVuSans-6e"/>
      <use x="239.888672" xlink:href="#DejaVuSans-20"/>
      <use x="271.675781" xlink:href="#DejaVuSans-41"/>
      <use x="338.333984" xlink:href="#DejaVuSans-63"/>
      <use x="393.314453" xlink:href="#DejaVuSans-63"/>
      <use x="448.294922" xlink:href="#DejaVuSans-75"/>
      <use x="511.673828" xlink:href="#DejaVuSans-72"/>
      <use x="552.787109" xlink:href="#DejaVuSans-61"/>
      <use x="614.066406" xlink:href="#DejaVuSans-63"/>
      <use x="669.046875" xlink:href="#DejaVuSans-79"/>
     </g>
    </g>
    <g id="line2d_23">
     <path d="M 279.504375 293.004312 
L 299.504375 293.004312 
" style="fill:none;stroke:#ff7f0e;stroke-linecap:square;stroke-width:1.5;"/>
    </g>
    <g id="line2d_24"/>
    <g id="text_23">
     <!-- Validation Accuracy -->
     <g transform="translate(307.504375 296.504312)scale(0.1 -0.1)">
      <use xlink:href="#DejaVuSans-56"/>
      <use x="60.658203" xlink:href="#DejaVuSans-61"/>
      <use x="121.9375" xlink:href="#DejaVuSans-6c"/>
      <use x="149.720703" xlink:href="#DejaVuSans-69"/>
      <use x="177.503906" xlink:href="#DejaVuSans-64"/>
      <use x="240.980469" xlink:href="#DejaVuSans-61"/>
      <use x="302.259766" xlink:href="#DejaVuSans-74"/>
      <use x="341.46875" xlink:href="#DejaVuSans-69"/>
      <use x="369.251953" xlink:href="#DejaVuSans-6f"/>
      <use x="430.433594" xlink:href="#DejaVuSans-6e"/>
      <use x="493.8125" xlink:href="#DejaVuSans-20"/>
      <use x="525.599609" xlink:href="#DejaVuSans-41"/>
      <use x="592.257812" xlink:href="#DejaVuSans-63"/>
      <use x="647.238281" xlink:href="#DejaVuSans-63"/>
      <use x="702.21875" xlink:href="#DejaVuSans-75"/>
      <use x="765.597656" xlink:href="#DejaVuSans-72"/>
      <use x="806.710938" xlink:href="#DejaVuSans-61"/>
      <use x="867.990234" xlink:href="#DejaVuSans-63"/>
      <use x="922.970703" xlink:href="#DejaVuSans-79"/>
     </g>
    </g>
   </g>
  </g>
 </g>
 <defs>
  <clipPath id="pecb0e0fae1">
   <rect height="266.112" width="357.12" x="57.6" y="41.472"/>
  </clipPath>
 </defs>
</svg>
