<?xml version="1.0" encoding="utf-8" standalone="no"?>
<!DOCTYPE svg PUBLIC "-//W3C//DTD SVG 1.1//EN"
  "http://www.w3.org/Graphics/SVG/1.1/DTD/svg11.dtd">
<svg height="345.6pt" version="1.1" viewBox="0 0 460.8 345.6" width="460.8pt" xmlns="http://www.w3.org/2000/svg" xmlns:xlink="http://www.w3.org/1999/xlink">
 <metadata>
  <rdf:RDF xmlns:cc="http://creativecommons.org/ns#" xmlns:dc="http://purl.org/dc/elements/1.1/" xmlns:rdf="http://www.w3.org/1999/02/22-rdf-syntax-ns#">
   <cc:Work>
    <dc:type rdf:resource="http://purl.org/dc/dcmitype/StillImage"/>
    <dc:date>2024-03-24T21:22:36.180454</dc:date>
    <dc:format>image/svg+xml</dc:format>
    <dc:creator>
     <cc:Agent>
      <dc:title>Matplotlib v3.4.3, https://matplotlib.org/</dc:title>
     </cc:Agent>
    </dc:creator>
   </cc:Work>
  </rdf:RDF>
 </metadata>
 <defs>
  <style type="text/css">*{stroke-linecap:butt;stroke-linejoin:round;}</style>
 </defs>
 <g id="figure_1">
  <g id="patch_1">
   <path d="M 0 345.6 
L 460.8 345.6 
L 460.8 0 
L 0 0 
z
" style="fill:#ffffff;"/>
  </g>
  <g id="axes_1">
   <g id="patch_2">
    <path d="M 57.6 307.584 
L 414.72 307.584 
L 414.72 41.472 
L 57.6 41.472 
z
" style="fill:#ffffff;"/>
   </g>
   <g id="matplotlib.axis_1">
    <g id="xtick_1">
     <g id="line2d_1">
      <defs>
       <path d="M 0 0 
L 0 3.5 
" id="mf3b06ce28d" style="stroke:#000000;stroke-width:0.8;"/>
      </defs>
      <g>
       <use style="stroke:#000000;stroke-width:0.8;" x="73.832727" xlink:href="#mf3b06ce28d" y="307.584"/>
      </g>
     </g>
     <g id="text_1">
      <!-- 1 -->
      <g transform="translate(70.651477 322.182437)scale(0.1 -0.1)">
       <defs>
        <path d="M 794 531 
L 1825 531 
L 1825 4091 
L 703 3866 
L 703 4441 
L 1819 4666 
L 2450 4666 
L 2450 531 
L 3481 531 
L 3481 0 
L 794 0 
L 794 531 
z
" id="DejaVuSans-31" transform="scale(0.015625)"/>
       </defs>
       <use xlink:href="#DejaVuSans-31"/>
      </g>
     </g>
    </g>
    <g id="xtick_2">
     <g id="line2d_2">
      <g>
       <use style="stroke:#000000;stroke-width:0.8;" x="109.423199" xlink:href="#mf3b06ce28d" y="307.584"/>
      </g>
     </g>
     <g id="text_2">
      <!-- 42 -->
      <g transform="translate(103.060699 322.182437)scale(0.1 -0.1)">
       <defs>
        <path d="M 2419 4116 
L 825 1625 
L 2419 1625 
L 2419 4116 
z
M 2253 4666 
L 3047 4666 
L 3047 1625 
L 3713 1625 
L 3713 1100 
L 3047 1100 
L 3047 0 
L 2419 0 
L 2419 1100 
L 313 1100 
L 313 1709 
L 2253 4666 
z
" id="DejaVuSans-34" transform="scale(0.015625)"/>
        <path d="M 1228 531 
L 3431 531 
L 3431 0 
L 469 0 
L 469 531 
Q 828 903 1448 1529 
Q 2069 2156 2228 2338 
Q 2531 2678 2651 2914 
Q 2772 3150 2772 3378 
Q 2772 3750 2511 3984 
Q 2250 4219 1831 4219 
Q 1534 4219 1204 4116 
Q 875 4013 500 3803 
L 500 4441 
Q 881 4594 1212 4672 
Q 1544 4750 1819 4750 
Q 2544 4750 2975 4387 
Q 3406 4025 3406 3419 
Q 3406 3131 3298 2873 
Q 3191 2616 2906 2266 
Q 2828 2175 2409 1742 
Q 1991 1309 1228 531 
z
" id="DejaVuSans-32" transform="scale(0.015625)"/>
       </defs>
       <use xlink:href="#DejaVuSans-34"/>
       <use x="63.623047" xlink:href="#DejaVuSans-32"/>
      </g>
     </g>
    </g>
    <g id="xtick_3">
     <g id="line2d_3">
      <g>
       <use style="stroke:#000000;stroke-width:0.8;" x="145.881731" xlink:href="#mf3b06ce28d" y="307.584"/>
      </g>
     </g>
     <g id="text_3">
      <!-- 84 -->
      <g transform="translate(139.519231 322.182437)scale(0.1 -0.1)">
       <defs>
        <path d="M 2034 2216 
Q 1584 2216 1326 1975 
Q 1069 1734 1069 1313 
Q 1069 891 1326 650 
Q 1584 409 2034 409 
Q 2484 409 2743 651 
Q 3003 894 3003 1313 
Q 3003 1734 2745 1975 
Q 2488 2216 2034 2216 
z
M 1403 2484 
Q 997 2584 770 2862 
Q 544 3141 544 3541 
Q 544 4100 942 4425 
Q 1341 4750 2034 4750 
Q 2731 4750 3128 4425 
Q 3525 4100 3525 3541 
Q 3525 3141 3298 2862 
Q 3072 2584 2669 2484 
Q 3125 2378 3379 2068 
Q 3634 1759 3634 1313 
Q 3634 634 3220 271 
Q 2806 -91 2034 -91 
Q 1263 -91 848 271 
Q 434 634 434 1313 
Q 434 1759 690 2068 
Q 947 2378 1403 2484 
z
M 1172 3481 
Q 1172 3119 1398 2916 
Q 1625 2713 2034 2713 
Q 2441 2713 2670 2916 
Q 2900 3119 2900 3481 
Q 2900 3844 2670 4047 
Q 2441 4250 2034 4250 
Q 1625 4250 1398 4047 
Q 1172 3844 1172 3481 
z
" id="DejaVuSans-38" transform="scale(0.015625)"/>
       </defs>
       <use xlink:href="#DejaVuSans-38"/>
       <use x="63.623047" xlink:href="#DejaVuSans-34"/>
      </g>
     </g>
    </g>
    <g id="xtick_4">
     <g id="line2d_4">
      <g>
       <use style="stroke:#000000;stroke-width:0.8;" x="181.472202" xlink:href="#mf3b06ce28d" y="307.584"/>
      </g>
     </g>
     <g id="text_4">
      <!-- 125 -->
      <g transform="translate(171.928452 322.182437)scale(0.1 -0.1)">
       <defs>
        <path d="M 691 4666 
L 3169 4666 
L 3169 4134 
L 1269 4134 
L 1269 2991 
Q 1406 3038 1543 3061 
Q 1681 3084 1819 3084 
Q 2600 3084 3056 2656 
Q 3513 2228 3513 1497 
Q 3513 744 3044 326 
Q 2575 -91 1722 -91 
Q 1428 -91 1123 -41 
Q 819 9 494 109 
L 494 744 
Q 775 591 1075 516 
Q 1375 441 1709 441 
Q 2250 441 2565 725 
Q 2881 1009 2881 1497 
Q 2881 1984 2565 2268 
Q 2250 2553 1709 2553 
Q 1456 2553 1204 2497 
Q 953 2441 691 2322 
L 691 4666 
z
" id="DejaVuSans-35" transform="scale(0.015625)"/>
       </defs>
       <use xlink:href="#DejaVuSans-31"/>
       <use x="63.623047" xlink:href="#DejaVuSans-32"/>
       <use x="127.246094" xlink:href="#DejaVuSans-35"/>
      </g>
     </g>
    </g>
    <g id="xtick_5">
     <g id="line2d_5">
      <g>
       <use style="stroke:#000000;stroke-width:0.8;" x="217.930734" xlink:href="#mf3b06ce28d" y="307.584"/>
      </g>
     </g>
     <g id="text_5">
      <!-- 167 -->
      <g transform="translate(208.386984 322.182437)scale(0.1 -0.1)">
       <defs>
        <path d="M 2113 2584 
Q 1688 2584 1439 2293 
Q 1191 2003 1191 1497 
Q 1191 994 1439 701 
Q 1688 409 2113 409 
Q 2538 409 2786 701 
Q 3034 994 3034 1497 
Q 3034 2003 2786 2293 
Q 2538 2584 2113 2584 
z
M 3366 4563 
L 3366 3988 
Q 3128 4100 2886 4159 
Q 2644 4219 2406 4219 
Q 1781 4219 1451 3797 
Q 1122 3375 1075 2522 
Q 1259 2794 1537 2939 
Q 1816 3084 2150 3084 
Q 2853 3084 3261 2657 
Q 3669 2231 3669 1497 
Q 3669 778 3244 343 
Q 2819 -91 2113 -91 
Q 1303 -91 875 529 
Q 447 1150 447 2328 
Q 447 3434 972 4092 
Q 1497 4750 2381 4750 
Q 2619 4750 2861 4703 
Q 3103 4656 3366 4563 
z
" id="DejaVuSans-36" transform="scale(0.015625)"/>
        <path d="M 525 4666 
L 3525 4666 
L 3525 4397 
L 1831 0 
L 1172 0 
L 2766 4134 
L 525 4134 
L 525 4666 
z
" id="DejaVuSans-37" transform="scale(0.015625)"/>
       </defs>
       <use xlink:href="#DejaVuSans-31"/>
       <use x="63.623047" xlink:href="#DejaVuSans-36"/>
       <use x="127.246094" xlink:href="#DejaVuSans-37"/>
      </g>
     </g>
    </g>
    <g id="xtick_6">
     <g id="line2d_6">
      <g>
       <use style="stroke:#000000;stroke-width:0.8;" x="253.521206" xlink:href="#mf3b06ce28d" y="307.584"/>
      </g>
     </g>
     <g id="text_6">
      <!-- 208 -->
      <g transform="translate(243.977456 322.182437)scale(0.1 -0.1)">
       <defs>
        <path d="M 2034 4250 
Q 1547 4250 1301 3770 
Q 1056 3291 1056 2328 
Q 1056 1369 1301 889 
Q 1547 409 2034 409 
Q 2525 409 2770 889 
Q 3016 1369 3016 2328 
Q 3016 3291 2770 3770 
Q 2525 4250 2034 4250 
z
M 2034 4750 
Q 2819 4750 3233 4129 
Q 3647 3509 3647 2328 
Q 3647 1150 3233 529 
Q 2819 -91 2034 -91 
Q 1250 -91 836 529 
Q 422 1150 422 2328 
Q 422 3509 836 4129 
Q 1250 4750 2034 4750 
z
" id="DejaVuSans-30" transform="scale(0.015625)"/>
       </defs>
       <use xlink:href="#DejaVuSans-32"/>
       <use x="63.623047" xlink:href="#DejaVuSans-30"/>
       <use x="127.246094" xlink:href="#DejaVuSans-38"/>
      </g>
     </g>
    </g>
    <g id="xtick_7">
     <g id="line2d_7">
      <g>
       <use style="stroke:#000000;stroke-width:0.8;" x="289.979737" xlink:href="#mf3b06ce28d" y="307.584"/>
      </g>
     </g>
     <g id="text_7">
      <!-- 250 -->
      <g transform="translate(280.435987 322.182437)scale(0.1 -0.1)">
       <use xlink:href="#DejaVuSans-32"/>
       <use x="63.623047" xlink:href="#DejaVuSans-35"/>
       <use x="127.246094" xlink:href="#DejaVuSans-30"/>
      </g>
     </g>
    </g>
    <g id="xtick_8">
     <g id="line2d_8">
      <g>
       <use style="stroke:#000000;stroke-width:0.8;" x="325.570209" xlink:href="#mf3b06ce28d" y="307.584"/>
      </g>
     </g>
     <g id="text_8">
      <!-- 291 -->
      <g transform="translate(316.026459 322.182437)scale(0.1 -0.1)">
       <defs>
        <path d="M 703 97 
L 703 672 
Q 941 559 1184 500 
Q 1428 441 1663 441 
Q 2288 441 2617 861 
Q 2947 1281 2994 2138 
Q 2813 1869 2534 1725 
Q 2256 1581 1919 1581 
Q 1219 1581 811 2004 
Q 403 2428 403 3163 
Q 403 3881 828 4315 
Q 1253 4750 1959 4750 
Q 2769 4750 3195 4129 
Q 3622 3509 3622 2328 
Q 3622 1225 3098 567 
Q 2575 -91 1691 -91 
Q 1453 -91 1209 -44 
Q 966 3 703 97 
z
M 1959 2075 
Q 2384 2075 2632 2365 
Q 2881 2656 2881 3163 
Q 2881 3666 2632 3958 
Q 2384 4250 1959 4250 
Q 1534 4250 1286 3958 
Q 1038 3666 1038 3163 
Q 1038 2656 1286 2365 
Q 1534 2075 1959 2075 
z
" id="DejaVuSans-39" transform="scale(0.015625)"/>
       </defs>
       <use xlink:href="#DejaVuSans-32"/>
       <use x="63.623047" xlink:href="#DejaVuSans-39"/>
       <use x="127.246094" xlink:href="#DejaVuSans-31"/>
      </g>
     </g>
    </g>
    <g id="xtick_9">
     <g id="line2d_9">
      <g>
       <use style="stroke:#000000;stroke-width:0.8;" x="362.028741" xlink:href="#mf3b06ce28d" y="307.584"/>
      </g>
     </g>
     <g id="text_9">
      <!-- 333 -->
      <g transform="translate(352.484991 322.182437)scale(0.1 -0.1)">
       <defs>
        <path d="M 2597 2516 
Q 3050 2419 3304 2112 
Q 3559 1806 3559 1356 
Q 3559 666 3084 287 
Q 2609 -91 1734 -91 
Q 1441 -91 1130 -33 
Q 819 25 488 141 
L 488 750 
Q 750 597 1062 519 
Q 1375 441 1716 441 
Q 2309 441 2620 675 
Q 2931 909 2931 1356 
Q 2931 1769 2642 2001 
Q 2353 2234 1838 2234 
L 1294 2234 
L 1294 2753 
L 1863 2753 
Q 2328 2753 2575 2939 
Q 2822 3125 2822 3475 
Q 2822 3834 2567 4026 
Q 2313 4219 1838 4219 
Q 1578 4219 1281 4162 
Q 984 4106 628 3988 
L 628 4550 
Q 988 4650 1302 4700 
Q 1616 4750 1894 4750 
Q 2613 4750 3031 4423 
Q 3450 4097 3450 3541 
Q 3450 3153 3228 2886 
Q 3006 2619 2597 2516 
z
" id="DejaVuSans-33" transform="scale(0.015625)"/>
       </defs>
       <use xlink:href="#DejaVuSans-33"/>
       <use x="63.623047" xlink:href="#DejaVuSans-33"/>
       <use x="127.246094" xlink:href="#DejaVuSans-33"/>
      </g>
     </g>
    </g>
    <g id="xtick_10">
     <g id="line2d_10">
      <g>
       <use style="stroke:#000000;stroke-width:0.8;" x="398.487273" xlink:href="#mf3b06ce28d" y="307.584"/>
      </g>
     </g>
     <g id="text_10">
      <!-- 375 -->
      <g transform="translate(388.943523 322.182437)scale(0.1 -0.1)">
       <use xlink:href="#DejaVuSans-33"/>
       <use x="63.623047" xlink:href="#DejaVuSans-37"/>
       <use x="127.246094" xlink:href="#DejaVuSans-35"/>
      </g>
     </g>
    </g>
    <g id="text_11">
     <!-- Epochs -->
     <g transform="translate(218.244375 335.860562)scale(0.1 -0.1)">
      <defs>
       <path d="M 628 4666 
L 3578 4666 
L 3578 4134 
L 1259 4134 
L 1259 2753 
L 3481 2753 
L 3481 2222 
L 1259 2222 
L 1259 531 
L 3634 531 
L 3634 0 
L 628 0 
L 628 4666 
z
" id="DejaVuSans-45" transform="scale(0.015625)"/>
       <path d="M 1159 525 
L 1159 -1331 
L 581 -1331 
L 581 3500 
L 1159 3500 
L 1159 2969 
Q 1341 3281 1617 3432 
Q 1894 3584 2278 3584 
Q 2916 3584 3314 3078 
Q 3713 2572 3713 1747 
Q 3713 922 3314 415 
Q 2916 -91 2278 -91 
Q 1894 -91 1617 61 
Q 1341 213 1159 525 
z
M 3116 1747 
Q 3116 2381 2855 2742 
Q 2594 3103 2138 3103 
Q 1681 3103 1420 2742 
Q 1159 2381 1159 1747 
Q 1159 1113 1420 752 
Q 1681 391 2138 391 
Q 2594 391 2855 752 
Q 3116 1113 3116 1747 
z
" id="DejaVuSans-70" transform="scale(0.015625)"/>
       <path d="M 1959 3097 
Q 1497 3097 1228 2736 
Q 959 2375 959 1747 
Q 959 1119 1226 758 
Q 1494 397 1959 397 
Q 2419 397 2687 759 
Q 2956 1122 2956 1747 
Q 2956 2369 2687 2733 
Q 2419 3097 1959 3097 
z
M 1959 3584 
Q 2709 3584 3137 3096 
Q 3566 2609 3566 1747 
Q 3566 888 3137 398 
Q 2709 -91 1959 -91 
Q 1206 -91 779 398 
Q 353 888 353 1747 
Q 353 2609 779 3096 
Q 1206 3584 1959 3584 
z
" id="DejaVuSans-6f" transform="scale(0.015625)"/>
       <path d="M 3122 3366 
L 3122 2828 
Q 2878 2963 2633 3030 
Q 2388 3097 2138 3097 
Q 1578 3097 1268 2742 
Q 959 2388 959 1747 
Q 959 1106 1268 751 
Q 1578 397 2138 397 
Q 2388 397 2633 464 
Q 2878 531 3122 666 
L 3122 134 
Q 2881 22 2623 -34 
Q 2366 -91 2075 -91 
Q 1284 -91 818 406 
Q 353 903 353 1747 
Q 353 2603 823 3093 
Q 1294 3584 2113 3584 
Q 2378 3584 2631 3529 
Q 2884 3475 3122 3366 
z
" id="DejaVuSans-63" transform="scale(0.015625)"/>
       <path d="M 3513 2113 
L 3513 0 
L 2938 0 
L 2938 2094 
Q 2938 2591 2744 2837 
Q 2550 3084 2163 3084 
Q 1697 3084 1428 2787 
Q 1159 2491 1159 1978 
L 1159 0 
L 581 0 
L 581 4863 
L 1159 4863 
L 1159 2956 
Q 1366 3272 1645 3428 
Q 1925 3584 2291 3584 
Q 2894 3584 3203 3211 
Q 3513 2838 3513 2113 
z
" id="DejaVuSans-68" transform="scale(0.015625)"/>
       <path d="M 2834 3397 
L 2834 2853 
Q 2591 2978 2328 3040 
Q 2066 3103 1784 3103 
Q 1356 3103 1142 2972 
Q 928 2841 928 2578 
Q 928 2378 1081 2264 
Q 1234 2150 1697 2047 
L 1894 2003 
Q 2506 1872 2764 1633 
Q 3022 1394 3022 966 
Q 3022 478 2636 193 
Q 2250 -91 1575 -91 
Q 1294 -91 989 -36 
Q 684 19 347 128 
L 347 722 
Q 666 556 975 473 
Q 1284 391 1588 391 
Q 1994 391 2212 530 
Q 2431 669 2431 922 
Q 2431 1156 2273 1281 
Q 2116 1406 1581 1522 
L 1381 1569 
Q 847 1681 609 1914 
Q 372 2147 372 2553 
Q 372 3047 722 3315 
Q 1072 3584 1716 3584 
Q 2034 3584 2315 3537 
Q 2597 3491 2834 3397 
z
" id="DejaVuSans-73" transform="scale(0.015625)"/>
      </defs>
      <use xlink:href="#DejaVuSans-45"/>
      <use x="63.183594" xlink:href="#DejaVuSans-70"/>
      <use x="126.660156" xlink:href="#DejaVuSans-6f"/>
      <use x="187.841797" xlink:href="#DejaVuSans-63"/>
      <use x="242.822266" xlink:href="#DejaVuSans-68"/>
      <use x="306.201172" xlink:href="#DejaVuSans-73"/>
     </g>
    </g>
   </g>
   <g id="matplotlib.axis_2">
    <g id="ytick_1">
     <g id="line2d_11">
      <defs>
       <path d="M 0 0 
L -3.5 0 
" id="m5eb2cd1ac1" style="stroke:#000000;stroke-width:0.8;"/>
      </defs>
      <g>
       <use style="stroke:#000000;stroke-width:0.8;" x="57.6" xlink:href="#m5eb2cd1ac1" y="287.927568"/>
      </g>
     </g>
     <g id="text_12">
      <!-- 10 -->
      <g transform="translate(37.875 291.726786)scale(0.1 -0.1)">
       <use xlink:href="#DejaVuSans-31"/>
       <use x="63.623047" xlink:href="#DejaVuSans-30"/>
      </g>
     </g>
    </g>
    <g id="ytick_2">
     <g id="line2d_12">
      <g>
       <use style="stroke:#000000;stroke-width:0.8;" x="57.6" xlink:href="#m5eb2cd1ac1" y="258.286563"/>
      </g>
     </g>
     <g id="text_13">
      <!-- 20 -->
      <g transform="translate(37.875 262.085782)scale(0.1 -0.1)">
       <use xlink:href="#DejaVuSans-32"/>
       <use x="63.623047" xlink:href="#DejaVuSans-30"/>
      </g>
     </g>
    </g>
    <g id="ytick_3">
     <g id="line2d_13">
      <g>
       <use style="stroke:#000000;stroke-width:0.8;" x="57.6" xlink:href="#m5eb2cd1ac1" y="228.645558"/>
      </g>
     </g>
     <g id="text_14">
      <!-- 30 -->
      <g transform="translate(37.875 232.444777)scale(0.1 -0.1)">
       <use xlink:href="#DejaVuSans-33"/>
       <use x="63.623047" xlink:href="#DejaVuSans-30"/>
      </g>
     </g>
    </g>
    <g id="ytick_4">
     <g id="line2d_14">
      <g>
       <use style="stroke:#000000;stroke-width:0.8;" x="57.6" xlink:href="#m5eb2cd1ac1" y="199.004554"/>
      </g>
     </g>
     <g id="text_15">
      <!-- 40 -->
      <g transform="translate(37.875 202.803772)scale(0.1 -0.1)">
       <use xlink:href="#DejaVuSans-34"/>
       <use x="63.623047" xlink:href="#DejaVuSans-30"/>
      </g>
     </g>
    </g>
    <g id="ytick_5">
     <g id="line2d_15">
      <g>
       <use style="stroke:#000000;stroke-width:0.8;" x="57.6" xlink:href="#m5eb2cd1ac1" y="169.363549"/>
      </g>
     </g>
     <g id="text_16">
      <!-- 50 -->
      <g transform="translate(37.875 173.162768)scale(0.1 -0.1)">
       <use xlink:href="#DejaVuSans-35"/>
       <use x="63.623047" xlink:href="#DejaVuSans-30"/>
      </g>
     </g>
    </g>
    <g id="ytick_6">
     <g id="line2d_16">
      <g>
       <use style="stroke:#000000;stroke-width:0.8;" x="57.6" xlink:href="#m5eb2cd1ac1" y="139.722544"/>
      </g>
     </g>
     <g id="text_17">
      <!-- 60 -->
      <g transform="translate(37.875 143.521763)scale(0.1 -0.1)">
       <use xlink:href="#DejaVuSans-36"/>
       <use x="63.623047" xlink:href="#DejaVuSans-30"/>
      </g>
     </g>
    </g>
    <g id="ytick_7">
     <g id="line2d_17">
      <g>
       <use style="stroke:#000000;stroke-width:0.8;" x="57.6" xlink:href="#m5eb2cd1ac1" y="110.08154"/>
      </g>
     </g>
     <g id="text_18">
      <!-- 70 -->
      <g transform="translate(37.875 113.880758)scale(0.1 -0.1)">
       <use xlink:href="#DejaVuSans-37"/>
       <use x="63.623047" xlink:href="#DejaVuSans-30"/>
      </g>
     </g>
    </g>
    <g id="ytick_8">
     <g id="line2d_18">
      <g>
       <use style="stroke:#000000;stroke-width:0.8;" x="57.6" xlink:href="#m5eb2cd1ac1" y="80.440535"/>
      </g>
     </g>
     <g id="text_19">
      <!-- 80 -->
      <g transform="translate(37.875 84.239754)scale(0.1 -0.1)">
       <use xlink:href="#DejaVuSans-38"/>
       <use x="63.623047" xlink:href="#DejaVuSans-30"/>
      </g>
     </g>
    </g>
    <g id="ytick_9">
     <g id="line2d_19">
      <g>
       <use style="stroke:#000000;stroke-width:0.8;" x="57.6" xlink:href="#m5eb2cd1ac1" y="50.79953"/>
      </g>
     </g>
     <g id="text_20">
      <!-- 90 -->
      <g transform="translate(37.875 54.598749)scale(0.1 -0.1)">
       <use xlink:href="#DejaVuSans-39"/>
       <use x="63.623047" xlink:href="#DejaVuSans-30"/>
      </g>
     </g>
    </g>
    <g id="text_21">
     <!-- Accuracy -->
     <g transform="translate(31.795312 197.356125)rotate(-90)scale(0.1 -0.1)">
      <defs>
       <path d="M 2188 4044 
L 1331 1722 
L 3047 1722 
L 2188 4044 
z
M 1831 4666 
L 2547 4666 
L 4325 0 
L 3669 0 
L 3244 1197 
L 1141 1197 
L 716 0 
L 50 0 
L 1831 4666 
z
" id="DejaVuSans-41" transform="scale(0.015625)"/>
       <path d="M 544 1381 
L 544 3500 
L 1119 3500 
L 1119 1403 
Q 1119 906 1312 657 
Q 1506 409 1894 409 
Q 2359 409 2629 706 
Q 2900 1003 2900 1516 
L 2900 3500 
L 3475 3500 
L 3475 0 
L 2900 0 
L 2900 538 
Q 2691 219 2414 64 
Q 2138 -91 1772 -91 
Q 1169 -91 856 284 
Q 544 659 544 1381 
z
M 1991 3584 
L 1991 3584 
z
" id="DejaVuSans-75" transform="scale(0.015625)"/>
       <path d="M 2631 2963 
Q 2534 3019 2420 3045 
Q 2306 3072 2169 3072 
Q 1681 3072 1420 2755 
Q 1159 2438 1159 1844 
L 1159 0 
L 581 0 
L 581 3500 
L 1159 3500 
L 1159 2956 
Q 1341 3275 1631 3429 
Q 1922 3584 2338 3584 
Q 2397 3584 2469 3576 
Q 2541 3569 2628 3553 
L 2631 2963 
z
" id="DejaVuSans-72" transform="scale(0.015625)"/>
       <path d="M 2194 1759 
Q 1497 1759 1228 1600 
Q 959 1441 959 1056 
Q 959 750 1161 570 
Q 1363 391 1709 391 
Q 2188 391 2477 730 
Q 2766 1069 2766 1631 
L 2766 1759 
L 2194 1759 
z
M 3341 1997 
L 3341 0 
L 2766 0 
L 2766 531 
Q 2569 213 2275 61 
Q 1981 -91 1556 -91 
Q 1019 -91 701 211 
Q 384 513 384 1019 
Q 384 1609 779 1909 
Q 1175 2209 1959 2209 
L 2766 2209 
L 2766 2266 
Q 2766 2663 2505 2880 
Q 2244 3097 1772 3097 
Q 1472 3097 1187 3025 
Q 903 2953 641 2809 
L 641 3341 
Q 956 3463 1253 3523 
Q 1550 3584 1831 3584 
Q 2591 3584 2966 3190 
Q 3341 2797 3341 1997 
z
" id="DejaVuSans-61" transform="scale(0.015625)"/>
       <path d="M 2059 -325 
Q 1816 -950 1584 -1140 
Q 1353 -1331 966 -1331 
L 506 -1331 
L 506 -850 
L 844 -850 
Q 1081 -850 1212 -737 
Q 1344 -625 1503 -206 
L 1606 56 
L 191 3500 
L 800 3500 
L 1894 763 
L 2988 3500 
L 3597 3500 
L 2059 -325 
z
" id="DejaVuSans-79" transform="scale(0.015625)"/>
      </defs>
      <use xlink:href="#DejaVuSans-41"/>
      <use x="66.658203" xlink:href="#DejaVuSans-63"/>
      <use x="121.638672" xlink:href="#DejaVuSans-63"/>
      <use x="176.619141" xlink:href="#DejaVuSans-75"/>
      <use x="239.998047" xlink:href="#DejaVuSans-72"/>
      <use x="281.111328" xlink:href="#DejaVuSans-61"/>
      <use x="342.390625" xlink:href="#DejaVuSans-63"/>
      <use x="397.371094" xlink:href="#DejaVuSans-79"/>
     </g>
    </g>
   </g>
   <g id="line2d_20">
    <path clip-path="url(#pc1c6b6bcc3)" d="M 73.832727 295.488 
L 74.700788 274.002224 
L 77.304968 231.212469 
L 78.173029 220.294699 
L 79.041089 213.190738 
L 80.77721 196.220275 
L 81.64527 190.687288 
L 82.51333 188.017621 
L 83.38139 171.379137 
L 84.249451 175.619777 
L 85.117511 169.373429 
L 85.985571 158.969437 
L 86.853632 157.01313 
L 87.721692 158.767878 
L 88.589752 151.069121 
L 89.457812 152.529434 
L 90.325873 152.074939 
L 91.193933 144.808941 
L 92.061993 139.236432 
L 92.930053 137.319647 
L 93.798114 137.803783 
L 94.666174 141.230283 
L 95.534234 172.667533 
L 96.402295 171.70914 
L 97.270355 164.091402 
L 98.138415 159.018838 
L 99.006475 158.686859 
L 99.874536 159.633395 
L 100.742596 154.491669 
L 101.610656 147.599147 
L 102.478717 148.838141 
L 103.346777 144.305044 
L 104.214837 146.935189 
L 105.082897 142.202508 
L 105.950958 136.292092 
L 106.819018 137.728693 
L 107.687078 141.801367 
L 108.555139 137.114136 
L 109.423199 127.818717 
L 110.291259 132.345886 
L 111.159319 130.45479 
L 112.02738 132.470378 
L 112.89544 125.583785 
L 113.7635 123.993051 
L 114.631561 119.323605 
L 115.499621 127.19428 
L 116.367681 119.693129 
L 117.235741 124.682698 
L 118.103802 120.760206 
L 118.971862 114.393318 
L 119.839922 121.876683 
L 120.707982 107.787326 
L 121.576043 108.182539 
L 122.444103 109.85034 
L 123.312163 106.882287 
L 124.180224 111.170352 
L 125.048284 102.890632 
L 125.916344 99.175626 
L 126.784404 102.311644 
L 127.652465 98.928618 
L 128.520525 98.387175 
L 129.388585 103.210755 
L 130.256646 103.242372 
L 131.124706 98.412864 
L 131.992766 103.432074 
L 132.860826 95.478405 
L 133.728887 96.970335 
L 135.465007 88.658997 
L 136.333068 93.407486 
L 137.201128 102.868895 
L 138.069188 96.013919 
L 138.937248 125.154978 
L 139.805309 129.286935 
L 140.673369 134.235006 
L 141.541429 128.075605 
L 142.40949 134.126323 
L 143.27755 125.724086 
L 144.14561 122.673038 
L 145.01367 127.899736 
L 145.881731 130.944855 
L 146.749791 122.625613 
L 147.617851 123.003042 
L 148.485912 121.758119 
L 149.353972 117.896884 
L 150.222032 121.036855 
L 151.090092 124.870425 
L 151.958153 111.747364 
L 152.826213 111.411433 
L 153.694273 117.681493 
L 154.562333 116.687531 
L 155.430394 116.019621 
L 156.298454 114.794459 
L 157.166514 115.818062 
L 158.034575 115.152127 
L 158.902635 113.958583 
L 159.770695 109.719919 
L 160.638755 113.679958 
L 161.506816 106.907976 
L 162.374876 112.830249 
L 163.242936 109.302969 
L 164.110997 110.945081 
L 164.979057 106.362581 
L 165.847117 106.117549 
L 166.715177 104.611786 
L 167.583238 106.696537 
L 168.451298 105.111731 
L 169.319358 101.054866 
L 170.187419 110.206032 
L 171.055479 102.335357 
L 171.923539 101.035105 
L 172.791599 107.253788 
L 173.65966 97.693576 
L 174.52772 97.608605 
L 175.39578 98.584782 
L 176.263841 101.647686 
L 177.131901 107.868345 
L 177.999961 104.273879 
L 179.736082 98.616399 
L 180.604142 97.409022 
L 181.472202 97.632318 
L 182.340263 89.625294 
L 183.208323 100.746599 
L 184.076383 97.420878 
L 184.944443 100.47983 
L 185.812504 93.950905 
L 186.680564 89.965178 
L 187.548624 91.828609 
L 188.416684 96.397276 
L 189.284745 87.43186 
L 190.152805 85.019082 
L 191.020865 92.634844 
L 191.888926 87.985159 
L 192.756986 84.08045 
L 193.625046 88.902054 
L 194.493106 80.029513 
L 195.361167 92.018311 
L 196.229227 86.232387 
L 197.097287 87.08012 
L 197.965348 83.590386 
L 198.833408 86.159273 
L 199.701468 87.558328 
L 200.569528 79.359626 
L 201.437589 86.831135 
L 202.305649 92.630892 
L 203.173709 77.397392 
L 204.04177 88.036536 
L 204.90983 83.292 
L 205.77789 83.343377 
L 206.64595 79.493999 
L 207.514011 74.300895 
L 208.382071 77.312421 
L 209.250131 73.415617 
L 210.118192 82.849361 
L 210.986252 77.515956 
L 211.854312 74.209996 
L 212.722372 68.267962 
L 213.590433 74.925332 
L 214.458493 77.964523 
L 215.326553 78.636386 
L 216.194614 74.787007 
L 217.062674 75.144675 
L 217.930734 79.733103 
L 218.798794 70.579961 
L 219.666855 78.436803 
L 220.534915 69.965404 
L 221.402975 78.968365 
L 222.271035 69.425938 
L 223.139096 67.762089 
L 224.007156 74.018317 
L 224.875216 83.726734 
L 226.611337 120.772062 
L 227.479397 116.343696 
L 228.347457 118.280241 
L 229.215518 119.159591 
L 230.083578 112.790727 
L 230.951638 115.766684 
L 231.819699 110.02621 
L 232.687759 118.088563 
L 233.555819 107.777445 
L 234.423879 110.077587 
L 235.29194 111.466763 
L 236.16 111.051788 
L 237.02806 108.206252 
L 238.764181 106.593781 
L 239.632241 104.198788 
L 240.500301 106.550308 
L 241.368362 114.430863 
L 242.236422 102.372902 
L 243.104482 103.945852 
L 243.972543 101.704992 
L 244.840603 98.134239 
L 245.708663 102.677217 
L 246.576723 106.060243 
L 247.444784 96.909077 
L 248.312844 103.068478 
L 249.180904 99.790183 
L 250.048965 97.288482 
L 250.917025 106.406055 
L 251.785085 103.451835 
L 252.653145 104.931909 
L 253.521206 102.094277 
L 254.389266 102.872847 
L 255.257326 99.71114 
L 256.125386 103.001292 
L 256.993447 96.972311 
L 257.861507 98.970115 
L 259.597628 103.764053 
L 260.465688 97.444591 
L 261.333748 109.883933 
L 262.201808 99.19341 
L 263.069869 95.436907 
L 263.937929 99.491797 
L 264.805989 98.406936 
L 265.67405 96.04356 
L 266.54211 94.666241 
L 267.41017 99.483892 
L 268.27823 96.662069 
L 269.146291 94.980436 
L 270.014351 96.715423 
L 270.882411 95.952661 
L 271.750472 96.745064 
L 272.618532 88.943551 
L 273.486592 92.221846 
L 274.354652 92.619036 
L 275.222713 101.013368 
L 276.090773 97.410998 
L 276.958833 97.223272 
L 277.826894 100.365218 
L 278.694954 98.565021 
L 279.563014 97.171894 
L 280.431074 98.454361 
L 281.299135 103.712676 
L 282.167195 91.856274 
L 283.035255 95.719485 
L 283.903316 92.245559 
L 284.771376 92.123043 
L 285.639436 97.262793 
L 286.507496 87.392338 
L 287.375557 90.834647 
L 288.243617 90.368295 
L 289.111677 98.746819 
L 289.979737 91.883939 
L 290.847798 88.896125 
L 291.715858 95.593016 
L 293.451979 92.433285 
L 294.320039 88.20055 
L 295.188099 87.615634 
L 296.056159 92.105258 
L 296.92422 94.207794 
L 297.79228 85.831246 
L 298.66034 97.950464 
L 299.528401 91.263454 
L 300.396461 89.830805 
L 301.264521 89.004809 
L 302.132581 93.725633 
L 303.000642 82.456123 
L 303.868702 96.195717 
L 305.604823 82.217019 
L 306.472883 84.600156 
L 307.340943 98.23897 
L 308.209003 86.831135 
L 309.077064 93.557667 
L 309.945124 89.071995 
L 310.813184 86.313406 
L 311.681245 78.972317 
L 312.549305 85.254234 
L 313.417365 87.680844 
L 314.285425 87.060359 
L 315.153486 89.403975 
L 316.889606 81.843542 
L 317.757667 87.726294 
L 318.625727 82.155761 
L 319.493787 86.627601 
L 320.361847 87.20066 
L 322.097968 78.407162 
L 322.966028 84.604108 
L 323.834088 81.217129 
L 324.702149 84.426262 
L 325.570209 77.567333 
L 326.438269 79.132379 
L 327.30633 84.374884 
L 328.17439 78.28267 
L 329.04245 80.669759 
L 329.91051 82.155761 
L 330.778571 78.090991 
L 331.646631 79.448549 
L 332.514691 75.322521 
L 333.382752 73.020403 
L 334.250812 77.95069 
L 335.118872 75.047848 
L 335.986932 75.478631 
L 336.854993 75.332402 
L 337.723053 82.88493 
L 338.591113 68.941801 
L 339.459174 78.586984 
L 340.327234 76.731457 
L 341.195294 80.163885 
L 342.063354 69.366656 
L 342.931415 81.420664 
L 343.799475 73.306933 
L 344.667535 71.807098 
L 345.535596 79.620467 
L 346.403656 71.154996 
L 347.271716 68.61575 
L 348.139776 78.861657 
L 349.007837 65.608176 
L 349.875897 74.960901 
L 350.743957 62.023591 
L 351.612018 72.206264 
L 352.480078 71.044336 
L 353.348138 70.376426 
L 355.084259 72.467105 
L 355.952319 72.674592 
L 356.820379 68.200776 
L 357.688439 65.507397 
L 358.5565 66.825433 
L 359.42456 70.771639 
L 360.29262 69.983188 
L 361.160681 66.987471 
L 362.028741 69.61564 
L 362.896801 70.33888 
L 363.764861 69.257972 
L 364.632922 65.497516 
L 365.500982 76.132709 
L 366.369042 77.484339 
L 367.237103 69.933787 
L 368.105163 80.296282 
L 368.973223 70.583913 
L 369.841283 66.092313 
L 370.709344 59.660214 
L 371.577404 64.47589 
L 372.445464 57.083423 
L 373.313525 66.54088 
L 374.181585 67.882629 
L 375.049645 64.853319 
L 375.917705 64.61619 
L 376.785766 68.690841 
L 377.653826 65.884825 
L 378.521886 71.332842 
L 379.389947 64.932361 
L 380.258007 66.26423 
L 381.126067 64.936313 
L 381.994127 62.489942 
L 382.862188 63.001744 
L 383.730248 69.220427 
L 384.598308 67.890533 
L 385.466368 63.100547 
L 386.334429 69.259948 
L 387.202489 60.764836 
L 388.070549 61.648138 
L 388.93861 59.22548 
L 390.67473 69.287613 
L 391.54279 63.790194 
L 392.410851 66.333393 
L 393.278911 64.736731 
L 394.146971 64.867151 
L 395.015032 59.764946 
L 395.883092 68.435928 
L 396.751152 53.568 
L 397.619212 66.015246 
L 398.487273 64.037203 
L 398.487273 64.037203 
" style="fill:none;stroke:#1f77b4;stroke-linecap:square;stroke-width:1.5;"/>
   </g>
   <g id="line2d_21">
    <path clip-path="url(#pc1c6b6bcc3)" d="M 73.832727 280.635881 
L 74.700788 256.152411 
L 75.568848 235.966887 
L 76.436908 227.370995 
L 77.304968 204.043524 
L 78.173029 199.508451 
L 79.041089 184.45082 
L 79.909149 174.580366 
L 80.77721 169.037498 
L 81.64527 157.388583 
L 82.51333 157.625711 
L 83.38139 149.296589 
L 84.249451 147.221718 
L 85.117511 138.596186 
L 85.985571 139.040801 
L 86.853632 131.92696 
L 87.721692 129.703885 
L 88.589752 126.947271 
L 89.457812 125.643067 
L 90.325873 118.795995 
L 91.193933 118.440303 
L 92.061993 118.64779 
L 92.930053 117.254663 
L 93.798114 116.513638 
L 94.666174 116.157946 
L 95.534234 152.557099 
L 96.402295 145.20613 
L 97.270355 135.958137 
L 98.138415 135.394958 
L 99.006475 134.090753 
L 99.874536 125.465221 
L 100.742596 125.613426 
L 102.478717 126.32481 
L 103.346777 121.582249 
L 104.214837 119.210969 
L 105.082897 118.736713 
L 105.950958 121.167275 
L 106.819018 114.379485 
L 107.687078 117.225022 
L 108.555139 113.994152 
L 109.423199 111.533949 
L 110.291259 110.852206 
L 111.159319 109.874053 
L 112.02738 111.385744 
L 112.89544 107.502772 
L 113.7635 108.658771 
L 114.631561 106.672824 
L 115.499621 105.190774 
L 116.367681 105.427902 
L 117.235741 104.331185 
L 118.103802 102.938057 
L 118.971862 101.989545 
L 119.839922 101.456007 
L 120.707982 100.06288 
L 121.576043 96.861651 
L 122.444103 98.28442 
L 123.312163 96.950574 
L 124.180224 94.520012 
L 125.048284 94.520012 
L 125.916344 92.563706 
L 126.784404 93.512218 
L 127.652465 92.652629 
L 128.520525 93.719705 
L 130.256646 89.569964 
L 131.124706 89.303195 
L 131.992766 89.599605 
L 132.860826 88.977144 
L 133.728887 88.176837 
L 134.596947 88.473247 
L 135.465007 88.117555 
L 136.333068 88.710375 
L 137.201128 89.569964 
L 138.069188 87.998991 
L 138.937248 117.106458 
L 139.805309 113.282768 
L 140.673369 115.179792 
L 141.541429 108.540207 
L 142.40949 107.265644 
L 143.27755 108.540207 
L 144.14561 106.969234 
L 145.01367 106.939593 
L 145.881731 105.872517 
L 146.749791 107.828823 
L 147.617851 108.540207 
L 148.485912 104.686877 
L 149.353972 104.331185 
L 150.222032 105.546466 
L 151.090092 106.139286 
L 151.958153 104.18298 
L 152.826213 100.448213 
L 153.694273 103.175185 
L 154.562333 100.95211 
L 155.430394 101.456007 
L 156.298454 102.552724 
L 157.166514 100.092521 
L 158.034575 99.114368 
L 158.902635 97.810164 
L 159.770695 106.376414 
L 160.638755 99.381137 
L 161.506816 99.855393 
L 162.374876 96.150267 
L 163.242936 96.268831 
L 164.110997 101.54493 
L 164.979057 97.069138 
L 165.847117 96.298472 
L 166.715177 98.254779 
L 167.583238 94.223602 
L 168.451298 99.144009 
L 169.319358 97.750882 
L 170.187419 97.158062 
L 171.055479 98.491907 
L 171.923539 96.772728 
L 172.791599 91.348425 
L 173.65966 94.342166 
L 174.52772 92.741552 
L 175.39578 96.565241 
L 176.263841 94.786781 
L 177.131901 92.504424 
L 177.999961 92.830475 
L 178.868021 91.49663 
L 179.736082 92.534065 
L 180.604142 94.016115 
L 181.472202 91.229861 
L 182.340263 90.577758 
L 183.208323 89.510682 
L 184.076383 90.04422 
L 184.944443 89.599605 
L 185.812504 89.540323 
L 186.680564 87.169043 
L 187.548624 89.125349 
L 188.416684 87.020838 
L 189.284745 90.222066 
L 190.152805 84.916327 
L 191.020865 88.058273 
L 191.888926 87.465453 
L 192.756986 85.746275 
L 193.625046 87.524735 
L 194.493106 87.169043 
L 195.361167 85.538788 
L 196.229227 84.975609 
L 197.097287 83.404635 
L 197.965348 85.272019 
L 198.833408 82.752533 
L 199.701468 83.286071 
L 200.569528 83.315712 
L 201.437589 83.819609 
L 202.305649 83.878891 
L 203.173709 81.566893 
L 204.04177 83.878891 
L 204.90983 84.323506 
L 205.77789 83.938173 
L 206.64595 82.426482 
L 207.514011 82.66361 
L 208.382071 82.100431 
L 209.250131 81.092637 
L 210.118192 80.914791 
L 210.986252 82.07079 
L 211.854312 80.321971 
L 212.722372 81.003714 
L 213.590433 79.017767 
L 215.326553 79.462382 
L 216.194614 79.966279 
L 217.062674 79.165972 
L 217.930734 79.165972 
L 218.798794 79.284536 
L 219.666855 80.736945 
L 220.534915 79.254895 
L 221.402975 79.788433 
L 222.271035 79.284536 
L 223.139096 78.958485 
L 224.007156 80.203407 
L 224.875216 79.195613 
L 225.743277 107.028516 
L 226.611337 109.399796 
L 227.479397 106.228209 
L 228.347457 103.708724 
L 229.215518 101.84134 
L 230.083578 105.813235 
L 230.951638 106.020722 
L 231.819699 102.048827 
L 232.687759 98.936522 
L 233.555819 100.892828 
L 234.423879 101.456007 
L 235.29194 104.094057 
L 236.16 100.270367 
L 237.02806 101.011392 
L 237.896121 100.477854 
L 238.764181 96.891292 
L 239.632241 98.432625 
L 240.500301 97.513754 
L 241.368362 97.839805 
L 242.236422 100.151803 
L 243.104482 97.632318 
L 243.972543 95.794575 
L 244.840603 100.863187 
L 245.708663 97.276626 
L 246.576723 98.87724 
L 247.444784 101.485648 
L 248.312844 98.314061 
L 249.180904 102.374878 
L 250.048965 96.031703 
L 250.917025 95.290678 
L 251.785085 97.543395 
L 252.653145 97.543395 
L 253.521206 98.432625 
L 254.389266 95.05355 
L 255.257326 95.379601 
L 256.125386 95.201755 
L 256.993447 94.905345 
L 257.861507 98.491907 
L 258.729567 99.232932 
L 259.597628 97.513754 
L 260.465688 93.393654 
L 261.333748 93.86791 
L 262.201808 96.683805 
L 263.069869 95.794575 
L 263.937929 93.778987 
L 264.805989 95.527806 
L 265.67405 94.193961 
L 266.54211 96.417036 
L 267.41017 95.290678 
L 268.27823 95.290678 
L 269.146291 95.438883 
L 270.014351 96.654164 
L 271.750472 94.905345 
L 272.618532 100.95211 
L 273.486592 96.83201 
L 274.354652 100.981751 
L 275.222713 97.098779 
L 276.090773 91.437348 
L 276.958833 97.750882 
L 277.826894 94.223602 
L 278.694954 93.690064 
L 279.563014 91.881963 
L 280.431074 91.704117 
L 281.299135 93.660423 
L 282.167195 93.956833 
L 283.035255 94.816422 
L 283.903316 93.334372 
L 284.771376 94.520012 
L 285.639436 91.289143 
L 286.507496 93.423295 
L 287.375557 92.119091 
L 288.243617 92.741552 
L 289.111677 89.599605 
L 289.979737 91.852322 
L 290.847798 89.866374 
L 291.715858 90.073861 
L 292.583918 91.466989 
L 294.320039 91.911604 
L 295.188099 92.326578 
L 296.056159 91.081656 
L 296.92422 92.148732 
L 297.79228 88.621452 
L 298.66034 89.125349 
L 299.528401 90.04422 
L 300.396461 87.791504 
L 301.264521 87.791504 
L 302.132581 89.392118 
L 303.000642 87.554376 
L 303.868702 88.532529 
L 304.736762 90.014579 
L 305.604823 87.465453 
L 306.472883 87.584017 
L 307.340943 86.931915 
L 308.209003 88.947503 
L 309.077064 92.415501 
L 309.945124 88.058273 
L 310.813184 88.117555 
L 311.681245 85.627711 
L 312.549305 86.19089 
L 313.417365 86.546582 
L 314.285425 87.821145 
L 315.153486 87.346889 
L 316.021546 85.953762 
L 316.889606 87.109761 
L 317.757667 84.353147 
L 319.493787 87.96935 
L 320.361847 86.724428 
L 321.229908 88.028632 
L 322.097968 85.59807 
L 322.966028 85.686993 
L 323.834088 88.502888 
L 324.702149 85.360942 
L 325.570209 86.754069 
L 326.438269 85.420224 
L 327.30633 83.878891 
L 328.17439 86.665146 
L 329.04245 85.123814 
L 329.91051 84.857045 
L 330.778571 84.768122 
L 331.646631 83.878891 
L 332.514691 83.582481 
L 333.382752 82.633969 
L 334.250812 85.00525 
L 335.118872 84.353147 
L 335.986932 82.041149 
L 336.854993 83.226789 
L 337.723053 82.782174 
L 338.591113 83.137866 
L 339.459174 82.989661 
L 340.327234 83.789968 
L 341.195294 83.048943 
L 342.063354 82.722892 
L 343.799475 80.974073 
L 344.667535 80.796227 
L 345.535596 82.574687 
L 346.403656 81.092637 
L 347.271716 80.29233 
L 348.139776 81.626175 
L 349.007837 81.655816 
L 349.875897 79.373459 
L 350.743957 81.626175 
L 351.612018 82.011508 
L 352.480078 81.18156 
L 353.348138 80.559099 
L 354.216198 79.314177 
L 355.084259 79.10669 
L 355.952319 80.262689 
L 356.820379 79.99592 
L 357.688439 79.521664 
L 358.5565 78.424947 
L 359.42456 78.187819 
L 360.29262 79.847715 
L 361.160681 79.165972 
L 362.028741 79.136331 
L 362.896801 77.772844 
L 363.764861 79.017767 
L 364.632922 79.729151 
L 365.500982 78.009972 
L 366.369042 78.632434 
L 367.237103 77.95069 
L 368.105163 78.039613 
L 368.973223 77.743203 
L 369.841283 78.839921 
L 370.709344 77.298588 
L 371.577404 78.454588 
L 372.445464 77.150383 
L 373.313525 77.95069 
L 374.181585 77.091101 
L 375.917705 76.824332 
L 376.785766 77.417152 
L 377.653826 76.024025 
L 378.521886 77.150383 
L 379.389947 75.964743 
L 380.258007 76.972537 
L 381.126067 76.231512 
L 382.862188 76.705768 
L 383.730248 76.853973 
L 384.598308 76.320435 
L 385.466368 76.083307 
L 386.334429 75.460846 
L 387.202489 76.083307 
L 388.070549 75.964743 
L 389.80667 75.312641 
L 390.67473 76.142589 
L 391.54279 75.57941 
L 392.410851 76.142589 
L 394.146971 75.223718 
L 395.883092 75.490487 
L 396.751152 76.112948 
L 397.619212 76.320435 
L 398.487273 75.549769 
L 398.487273 75.549769 
" style="fill:none;stroke:#ff7f0e;stroke-linecap:square;stroke-width:1.5;"/>
   </g>
   <g id="line2d_22">
    <path clip-path="url(#pc1c6b6bcc3)" d="M 73.832727 278.068034 
L 75.568848 236.477024 
L 76.436908 233.154111 
L 77.304968 207.538043 
L 78.173029 204.620744 
L 79.041089 190.096652 
L 79.909149 186.134117 
L 80.77721 185.432094 
L 81.64527 175.042141 
L 82.51333 166.945467 
L 83.38139 169.425951 
L 84.249451 166.74266 
L 85.117511 168.131107 
L 85.985571 161.594486 
L 86.853632 158.131168 
L 87.721692 152.468176 
L 88.589752 152.702184 
L 89.457812 148.614846 
L 90.325873 145.19833 
L 91.193933 144.589909 
L 92.061993 145.19833 
L 92.930053 143.794282 
L 93.798114 141.984621 
L 94.666174 142.062624 
L 95.534234 171.610025 
L 96.402295 162.936131 
L 97.270355 166.477451 
L 98.138415 160.190438 
L 99.006475 158.926795 
L 99.874536 151.454142 
L 100.742596 150.065695 
L 102.478717 157.397943 
L 103.346777 150.471309 
L 104.214837 147.210798 
L 105.082897 149.566478 
L 105.950958 148.926856 
L 106.819018 140.720978 
L 107.687078 144.480706 
L 108.555139 138.084489 
L 109.423199 142.733446 
L 110.291259 143.73188 
L 111.159319 139.59774 
L 112.02738 141.891018 
L 112.89544 139.628941 
L 113.7635 143.232663 
L 115.499621 133.950349 
L 116.367681 137.476068 
L 117.235741 132.5307 
L 118.103802 130.721039 
L 118.971862 130.065817 
L 119.839922 129.550999 
L 120.707982 131.157854 
L 121.576043 132.062685 
L 122.444103 126.040881 
L 123.312163 125.74447 
L 124.180224 123.732002 
L 125.048284 126.181285 
L 125.916344 125.604066 
L 126.784404 124.55883 
L 127.652465 122.078346 
L 128.520525 121.220317 
L 129.388585 119.301452 
L 130.256646 122.390357 
L 131.124706 121.797537 
L 131.992766 119.129846 
L 132.860826 119.223449 
L 133.728887 118.615029 
L 134.596947 118.802235 
L 135.465007 118.412222 
L 137.201128 118.693031 
L 138.069188 119.644664 
L 138.937248 142.624243 
L 139.805309 151.017327 
L 140.673369 147.663213 
L 141.541429 138.178092 
L 142.40949 142.296632 
L 143.27755 140.908184 
L 144.14561 136.212425 
L 145.01367 135.869214 
L 145.881731 137.304462 
L 146.749791 141.329399 
L 147.617851 137.897282 
L 148.485912 139.87855 
L 149.353972 139.940952 
L 150.222032 132.125087 
L 151.090092 132.936314 
L 151.958153 137.756878 
L 152.826213 126.150084 
L 153.694273 129.660203 
L 154.562333 134.558769 
L 155.430394 126.040881 
L 156.298454 137.335663 
L 157.166514 130.268624 
L 158.034575 136.150023 
L 158.902635 132.905113 
L 159.770695 142.608642 
L 160.638755 130.75224 
L 161.506816 132.593103 
L 162.374876 130.409029 
L 163.242936 129.301391 
L 164.110997 130.861444 
L 164.979057 133.794343 
L 165.847117 127.023714 
L 166.715177 128.209354 
L 167.583238 123.575997 
L 168.451298 132.125087 
L 169.319358 126.930111 
L 170.187419 125.167251 
L 171.055479 121.142314 
L 171.923539 132.437097 
L 172.791599 122.920775 
L 173.65966 125.058047 
L 174.52772 120.097079 
L 175.39578 124.090814 
L 176.263841 131.32946 
L 177.131901 124.964444 
L 177.999961 125.43246 
L 178.868021 124.870841 
L 179.736082 121.469926 
L 180.604142 126.430894 
L 181.472202 121.454325 
L 182.340263 119.644664 
L 183.208323 121.189116 
L 184.076383 122.234351 
L 184.944443 124.777238 
L 185.812504 126.540097 
L 186.680564 122.093947 
L 187.548624 121.813137 
L 188.416684 119.878672 
L 189.284745 127.678936 
L 190.152805 120.487092 
L 191.020865 119.660264 
L 191.888926 121.532328 
L 192.756986 119.644664 
L 193.625046 119.81627 
L 194.493106 116.056542 
L 195.361167 115.822534 
L 197.097287 115.682129 
L 197.965348 116.540158 
L 198.833408 113.544857 
L 199.701468 112.764831 
L 200.569528 115.323317 
L 201.437589 112.296815 
L 202.305649 115.12051 
L 203.173709 112.390418 
L 204.04177 116.243748 
L 204.90983 114.980106 
L 205.77789 114.621293 
L 206.64595 114.746098 
L 207.514011 115.182912 
L 208.382071 114.044074 
L 210.118192 111.064373 
L 210.986252 113.747664 
L 211.854312 111.329582 
L 212.722372 109.941135 
L 213.590433 109.566722 
L 214.458493 109.613524 
L 215.326553 109.80073 
L 216.194614 109.722727 
L 217.062674 112.140809 
L 217.930734 109.987936 
L 218.798794 112.125209 
L 219.666855 112.094008 
L 220.534915 111.126775 
L 221.402975 110.939569 
L 222.271035 110.128341 
L 223.139096 111.719595 
L 224.007156 111.984804 
L 224.875216 109.816331 
L 225.743277 145.900354 
L 226.611337 145.135928 
L 227.479397 143.341867 
L 228.347457 137.304462 
L 229.215518 135.728809 
L 230.083578 133.638338 
L 231.819699 143.669478 
L 232.687759 130.034616 
L 233.555819 127.756939 
L 234.423879 129.753806 
L 235.29194 139.285729 
L 236.16 131.235857 
L 237.896121 137.647674 
L 238.764181 131.095452 
L 239.632241 138.583706 
L 240.500301 128.209354 
L 241.368362 131.62587 
L 242.236422 129.909812 
L 243.104482 123.404391 
L 243.972543 129.691404 
L 244.840603 134.090753 
L 245.708663 127.741338 
L 246.576723 133.529134 
L 247.444784 131.095452 
L 248.312844 124.683635 
L 249.180904 139.831748 
L 250.048965 127.850542 
L 250.917025 126.196886 
L 251.785085 125.011246 
L 252.653145 131.891079 
L 253.521206 132.5307 
L 254.389266 131.407462 
L 255.257326 129.020582 
L 256.125386 130.518232 
L 256.993447 121.111113 
L 257.861507 125.479261 
L 258.729567 133.09232 
L 259.597628 131.438663 
L 260.465688 132.249891 
L 261.333748 128.755373 
L 262.201808 132.047084 
L 263.069869 123.217185 
L 263.937929 127.398127 
L 264.805989 125.572865 
L 265.67405 133.435531 
L 266.54211 133.513534 
L 267.41017 128.256156 
L 268.27823 131.235857 
L 269.146291 138.334097 
L 270.014351 137.429267 
L 270.882411 127.600933 
L 271.750472 126.103283 
L 272.618532 135.447999 
L 273.486592 127.647735 
L 274.354652 133.622737 
L 275.222713 133.934748 
L 276.090773 123.716402 
L 276.958833 134.246759 
L 277.826894 119.987875 
L 278.694954 130.14382 
L 279.563014 121.672732 
L 280.431074 119.161047 
L 281.299135 128.848976 
L 282.167195 124.652433 
L 283.035255 129.27019 
L 283.903316 117.117378 
L 284.771376 125.026846 
L 285.639436 121.657132 
L 286.507496 118.989441 
L 287.375557 124.777238 
L 288.243617 124.714836 
L 289.111677 118.895838 
L 289.979737 120.814703 
L 290.847798 124.792838 
L 291.715858 124.683635 
L 292.583918 119.441857 
L 293.451979 124.293621 
L 294.320039 126.196886 
L 295.188099 120.627497 
L 296.056159 127.101716 
L 296.92422 120.315486 
L 297.79228 116.88337 
L 298.66034 120.12828 
L 299.528401 128.178153 
L 300.396461 126.32169 
L 301.264521 118.973841 
L 302.132581 126.6025 
L 303.000642 120.284285 
L 303.868702 120.455891 
L 304.736762 119.192248 
L 305.604823 121.360722 
L 306.472883 121.345121 
L 307.340943 118.396621 
L 308.209003 115.869336 
L 309.077064 124.122015 
L 309.945124 120.268685 
L 310.813184 119.161047 
L 311.681245 119.582262 
L 312.549305 118.615029 
L 313.417365 116.508957 
L 314.285425 118.537026 
L 315.153486 118.178214 
L 316.021546 117.522992 
L 316.889606 110.643159 
L 317.757667 111.157976 
L 318.625727 122.062746 
L 319.493787 121.688333 
L 320.361847 124.886441 
L 321.229908 119.566661 
L 322.097968 123.388791 
L 322.966028 115.463722 
L 323.834088 120.502693 
L 324.702149 117.444989 
L 325.570209 118.412222 
L 326.438269 115.71333 
L 327.30633 117.070576 
L 328.17439 122.359156 
L 329.04245 110.877167 
L 329.91051 114.449688 
L 330.778571 112.390418 
L 331.646631 113.591659 
L 332.514691 118.989441 
L 333.382752 114.465288 
L 334.250812 114.730497 
L 335.118872 117.616595 
L 335.986932 114.558891 
L 336.854993 112.780431 
L 337.723053 116.072143 
L 338.591113 117.585394 
L 339.459174 111.313981 
L 340.327234 116.072143 
L 341.195294 113.482455 
L 342.063354 114.028473 
L 342.931415 113.264047 
L 343.799475 108.271878 
L 344.667535 113.482455 
L 345.535596 112.920836 
L 346.403656 108.100272 
L 347.271716 108.802296 
L 348.139776 111.111174 
L 349.007837 111.438786 
L 349.875897 108.880299 
L 350.743957 112.296815 
L 351.612018 114.090875 
L 352.480078 110.783563 
L 353.348138 110.767963 
L 354.216198 112.296815 
L 355.084259 109.020704 
L 355.952319 111.906801 
L 356.820379 105.947399 
L 357.688439 110.658759 
L 358.5565 103.90373 
L 359.42456 110.034738 
L 360.29262 109.816331 
L 361.160681 110.658759 
L 362.028741 109.738328 
L 362.896801 110.221944 
L 363.764861 108.084672 
L 364.632922 111.376383 
L 365.500982 109.738328 
L 366.369042 108.599489 
L 367.237103 108.724294 
L 368.105163 109.691526 
L 368.973223 107.023836 
L 369.841283 108.552688 
L 370.709344 107.757061 
L 371.577404 110.455952 
L 372.445464 110.237545 
L 373.313525 108.443484 
L 374.181585 108.03787 
L 375.049645 106.85223 
L 375.917705 108.131473 
L 376.785766 107.788262 
L 378.521886 108.63069 
L 379.389947 107.881865 
L 380.258007 108.006669 
L 381.126067 105.292177 
L 381.994127 105.853796 
L 382.862188 108.271878 
L 383.730248 107.913066 
L 384.598308 108.365481 
L 385.466368 106.867831 
L 386.334429 106.462217 
L 387.202489 106.415415 
L 388.93861 107.289045 
L 389.80667 107.257844 
L 390.67473 107.42945 
L 391.54279 107.008235 
L 392.410851 106.306212 
L 393.278911 106.633823 
L 394.146971 106.602622 
L 395.015032 106.415415 
L 395.883092 105.9786 
L 396.751152 106.83663 
L 397.619212 107.398249 
L 398.487273 106.633823 
L 398.487273 106.633823 
" style="fill:none;stroke:#2ca02c;stroke-linecap:square;stroke-width:1.5;"/>
   </g>
   <g id="line2d_23">
    <path clip-path="url(#pc1c6b6bcc3)" d="M 73.832727 292.788693 
L 74.700788 287.897927 
L 75.568848 282.206854 
L 76.436908 284.341006 
L 77.304968 281.969726 
L 78.173029 284.578134 
L 79.909149 280.339471 
L 80.77721 280.072701 
L 81.64527 274.678039 
L 82.51333 275.063372 
L 83.38139 272.810655 
L 84.249451 274.737321 
L 85.117511 273.759167 
L 85.985571 271.891784 
L 86.853632 269.69835 
L 87.721692 271.565733 
L 88.589752 267.208505 
L 89.457812 268.305223 
L 90.325873 268.80912 
L 91.193933 267.564198 
L 92.061993 267.860608 
L 92.930053 266.615685 
L 93.798114 267.208505 
L 94.666174 264.866866 
L 95.534234 273.996296 
L 96.402295 272.899578 
L 97.270355 270.054042 
L 98.138415 273.166347 
L 99.006475 264.570456 
L 99.874536 271.150759 
L 100.742596 269.99476 
L 101.610656 270.735785 
L 102.478717 269.164812 
L 103.346777 266.17107 
L 104.214837 265.311481 
L 105.082897 266.971377 
L 105.950958 261.487792 
L 106.819018 265.756096 
L 107.687078 263.029124 
L 108.555139 259.175793 
L 109.423199 264.511174 
L 110.291259 261.606356 
L 111.159319 256.923077 
L 112.02738 263.147688 
L 112.89544 259.620408 
L 113.7635 259.620408 
L 114.631561 260.065023 
L 115.499621 259.472203 
L 116.367681 259.738972 
L 117.235741 254.018258 
L 118.103802 250.787389 
L 118.971862 257.367692 
L 119.839922 249.720313 
L 120.707982 254.848206 
L 121.576043 251.913747 
L 122.444103 251.232004 
L 123.312163 251.232004 
L 124.180224 250.135287 
L 125.048284 250.402056 
L 125.916344 247.28975 
L 126.784404 246.489443 
L 127.652465 247.912211 
L 128.520525 242.398985 
L 129.388585 243.969958 
L 130.256646 247.645442 
L 131.124706 247.437955 
L 131.992766 248.001134 
L 132.860826 246.311597 
L 133.728887 247.200827 
L 134.596947 245.303803 
L 135.465007 245.896623 
L 136.333068 242.665754 
L 137.201128 241.806164 
L 138.069188 241.569036 
L 138.937248 265.87466 
L 139.805309 263.147688 
L 140.673369 260.954253 
L 141.541429 258.138358 
L 142.40949 261.043176 
L 143.27755 253.632925 
L 144.14561 261.843484 
L 145.01367 260.954253 
L 145.881731 257.456615 
L 146.749791 263.710867 
L 147.617851 259.264716 
L 148.485912 255.678155 
L 149.353972 255.856001 
L 150.222032 256.152411 
L 151.090092 251.528414 
L 151.958153 255.114976 
L 152.826213 256.71559 
L 153.694273 250.994876 
L 154.562333 256.478462 
L 155.430394 255.707796 
L 156.298454 249.364621 
L 157.166514 253.929335 
L 158.034575 255.203899 
L 158.902635 255.618873 
L 159.770695 249.838877 
L 160.638755 253.632925 
L 161.506816 254.759283 
L 162.374876 256.300616 
L 163.242936 248.47539 
L 164.110997 247.111904 
L 164.979057 249.898159 
L 165.847117 248.979288 
L 167.583238 249.601749 
L 168.451298 243.762471 
L 169.319358 251.380209 
L 170.187419 243.199292 
L 171.055479 245.689136 
L 171.923539 250.609543 
L 172.791599 247.556519 
L 173.65966 247.171186 
L 174.52772 250.490979 
L 175.39578 244.651701 
L 176.263841 252.59549 
L 177.131901 244.799906 
L 177.999961 244.473855 
L 178.868021 243.762471 
L 179.736082 239.108833 
L 181.472202 242.339703 
L 182.340263 247.793647 
L 183.208323 240.976216 
L 184.076383 239.879499 
L 184.944443 242.458267 
L 185.812504 242.428626 
L 186.680564 245.8077 
L 187.548624 236.94504 
L 188.416684 239.553448 
L 189.284745 237.626783 
L 190.152805 241.361549 
L 191.020865 243.228933 
L 191.888926 239.345961 
L 192.756986 244.02924 
L 193.625046 233.773452 
L 194.493106 232.913863 
L 196.229227 238.101039 
L 197.097287 236.411502 
L 197.965348 231.757864 
L 198.833408 234.810887 
L 199.701468 234.544118 
L 200.569528 229.86084 
L 201.437589 229.475506 
L 202.305649 233.091709 
L 203.173709 237.389655 
L 204.04177 229.149455 
L 204.90983 228.319507 
L 205.77789 230.987198 
L 206.64595 229.179096 
L 207.514011 227.904533 
L 208.382071 234.959092 
L 209.250131 227.785969 
L 210.118192 226.422483 
L 210.986252 229.59407 
L 211.854312 234.069862 
L 212.722372 227.993456 
L 213.590433 231.283608 
L 214.458493 227.81561 
L 215.326553 232.943504 
L 216.194614 229.29766 
L 217.062674 228.941968 
L 217.930734 230.038686 
L 218.798794 228.823404 
L 219.666855 223.10269 
L 220.534915 230.097968 
L 221.402975 227.608123 
L 222.271035 230.097968 
L 223.139096 233.565965 
L 224.007156 227.934174 
L 224.875216 224.347613 
L 225.743277 257.841948 
L 226.611337 255.915283 
L 227.479397 253.573643 
L 228.347457 246.430161 
L 229.215518 246.69693 
L 230.083578 257.071282 
L 230.951638 254.166463 
L 231.819699 253.929335 
L 232.687759 252.832618 
L 233.555819 252.180516 
L 234.423879 256.41918 
L 235.29194 245.303803 
L 236.16 245.066675 
L 237.02806 247.852929 
L 237.896121 254.700001 
L 238.764181 250.431697 
L 239.632241 253.810771 
L 240.500301 248.712519 
L 242.236422 246.074469 
L 243.104482 244.799906 
L 243.972543 253.247592 
L 244.840603 239.879499 
L 245.708663 244.859188 
L 246.576723 248.267903 
L 247.444784 253.751489 
L 248.312844 244.829547 
L 249.180904 255.144617 
L 250.048965 246.459802 
L 250.917025 248.920006 
L 251.785085 246.815494 
L 252.653145 249.661031 
L 253.521206 245.066675 
L 254.389266 246.726571 
L 255.257326 249.838877 
L 256.125386 243.228933 
L 256.993447 248.149339 
L 257.861507 242.695395 
L 258.729567 245.303803 
L 259.597628 249.03857 
L 260.465688 248.386467 
L 261.333748 247.052622 
L 262.201808 246.637648 
L 263.069869 247.022981 
L 263.937929 241.657959 
L 264.805989 243.703189 
L 265.67405 244.236727 
L 266.54211 246.163392 
L 267.41017 243.110369 
L 268.27823 245.185239 
L 269.146291 245.51129 
L 270.014351 247.941852 
L 270.882411 239.168115 
L 271.750472 244.740624 
L 272.618532 242.013651 
L 273.486592 242.962164 
L 274.354652 239.375602 
L 275.222713 247.200827 
L 276.090773 247.88257 
L 276.958833 239.375602 
L 277.826894 246.459802 
L 278.694954 249.33498 
L 279.563014 242.517549 
L 281.299135 244.888829 
L 282.167195 248.386467 
L 283.035255 245.600213 
L 283.903316 245.037034 
L 285.639436 246.548725 
L 286.507496 245.096316 
L 287.375557 237.478578 
L 288.243617 246.163392 
L 289.111677 242.369344 
L 289.979737 241.005857 
L 290.847798 239.968422 
L 291.715858 247.941852 
L 293.451979 235.285143 
L 294.320039 242.606472 
L 295.188099 244.592419 
L 296.056159 239.90914 
L 296.92422 237.745347 
L 297.79228 243.643907 
L 298.66034 240.531601 
L 299.528401 246.726571 
L 300.396461 244.62206 
L 301.264521 247.319391 
L 302.132581 244.681342 
L 303.868702 233.062068 
L 304.736762 243.762471 
L 305.604823 238.486372 
L 306.472883 238.456731 
L 307.340943 238.871705 
L 308.209003 237.715706 
L 309.077064 242.013651 
L 309.945124 237.53786 
L 310.813184 242.636113 
L 311.681245 240.620524 
L 312.549305 238.13068 
L 313.417365 239.434884 
L 314.285425 233.951298 
L 315.153486 244.296009 
L 316.021546 233.892016 
L 316.889606 235.907604 
L 317.757667 238.753141 
L 318.625727 229.534788 
L 319.493787 236.292938 
L 320.361847 234.514477 
L 321.229908 235.107297 
L 322.097968 238.249244 
L 322.966028 235.166579 
L 323.834088 228.200943 
L 324.702149 237.271091 
L 325.570209 231.402172 
L 326.438269 233.892016 
L 327.30633 232.736017 
L 328.17439 240.235191 
L 329.91051 228.378789 
L 330.778571 231.965351 
L 331.646631 228.230584 
L 332.514691 231.787505 
L 333.382752 234.01058 
L 334.250812 227.608123 
L 335.118872 229.475506 
L 335.986932 233.447401 
L 336.854993 232.469248 
L 337.723053 230.216532 
L 338.591113 234.751605 
L 339.459174 224.347613 
L 340.327234 234.158785 
L 341.195294 229.475506 
L 342.063354 233.328837 
L 342.931415 226.778175 
L 343.799475 234.247708 
L 344.667535 226.303919 
L 345.535596 230.246173 
L 346.403656 232.291402 
L 347.271716 230.424019 
L 348.139776 224.910792 
L 349.007837 228.853045 
L 349.875897 235.166579 
L 350.743957 231.757864 
L 351.612018 224.051203 
L 352.480078 224.347613 
L 353.348138 225.681458 
L 354.216198 231.04648 
L 355.084259 228.289866 
L 355.952319 229.801558 
L 356.820379 230.335096 
L 357.688439 223.695511 
L 358.5565 224.377254 
L 359.42456 228.497353 
L 360.29262 225.918586 
L 361.160681 227.756328 
L 362.028741 224.169767 
L 362.896801 229.356942 
L 363.764861 224.406895 
L 364.632922 223.754793 
L 365.500982 223.339819 
L 366.369042 217.233772 
L 367.237103 218.65654 
L 368.105163 226.837457 
L 368.973223 225.948227 
L 369.841283 219.54577 
L 371.577404 227.81561 
L 372.445464 227.5192 
L 373.313525 217.263413 
L 374.181585 227.133867 
L 375.917705 220.790692 
L 376.785766 220.672128 
L 377.653826 219.279001 
L 378.521886 217.500541 
L 379.389947 219.812539 
L 380.258007 218.65654 
L 381.126067 222.924844 
L 381.994127 225.859304 
L 382.862188 216.255618 
L 383.730248 215.573875 
L 385.466368 221.413153 
L 386.334429 218.864027 
L 387.202489 217.204131 
L 388.070549 219.308642 
L 388.93861 224.525459 
L 389.80667 224.821869 
L 390.67473 222.154178 
L 391.54279 225.385048 
L 392.410851 224.821869 
L 393.278911 223.132331 
L 394.146971 216.166695 
L 395.015032 216.344541 
L 395.883092 214.53644 
L 397.619212 225.296125 
L 398.487273 225.414689 
L 398.487273 225.414689 
" style="fill:none;stroke:#d62728;stroke-linecap:square;stroke-width:1.5;"/>
   </g>
   <g id="patch_3">
    <path d="M 57.6 307.584 
L 57.6 41.472 
" style="fill:none;stroke:#000000;stroke-linecap:square;stroke-linejoin:miter;stroke-width:0.8;"/>
   </g>
   <g id="patch_4">
    <path d="M 414.72 307.584 
L 414.72 41.472 
" style="fill:none;stroke:#000000;stroke-linecap:square;stroke-linejoin:miter;stroke-width:0.8;"/>
   </g>
   <g id="patch_5">
    <path d="M 57.6 307.584 
L 414.72 307.584 
" style="fill:none;stroke:#000000;stroke-linecap:square;stroke-linejoin:miter;stroke-width:0.8;"/>
   </g>
   <g id="patch_6">
    <path d="M 57.6 41.472 
L 414.72 41.472 
" style="fill:none;stroke:#000000;stroke-linecap:square;stroke-linejoin:miter;stroke-width:0.8;"/>
   </g>
   <g id="text_22">
    <!-- Training and Validation Accuracy -->
    <g transform="translate(138.4575 35.472)scale(0.12 -0.12)">
     <defs>
      <path d="M -19 4666 
L 3928 4666 
L 3928 4134 
L 2272 4134 
L 2272 0 
L 1638 0 
L 1638 4134 
L -19 4134 
L -19 4666 
z
" id="DejaVuSans-54" transform="scale(0.015625)"/>
      <path d="M 603 3500 
L 1178 3500 
L 1178 0 
L 603 0 
L 603 3500 
z
M 603 4863 
L 1178 4863 
L 1178 4134 
L 603 4134 
L 603 4863 
z
" id="DejaVuSans-69" transform="scale(0.015625)"/>
      <path d="M 3513 2113 
L 3513 0 
L 2938 0 
L 2938 2094 
Q 2938 2591 2744 2837 
Q 2550 3084 2163 3084 
Q 1697 3084 1428 2787 
Q 1159 2491 1159 1978 
L 1159 0 
L 581 0 
L 581 3500 
L 1159 3500 
L 1159 2956 
Q 1366 3272 1645 3428 
Q 1925 3584 2291 3584 
Q 2894 3584 3203 3211 
Q 3513 2838 3513 2113 
z
" id="DejaVuSans-6e" transform="scale(0.015625)"/>
      <path d="M 2906 1791 
Q 2906 2416 2648 2759 
Q 2391 3103 1925 3103 
Q 1463 3103 1205 2759 
Q 947 2416 947 1791 
Q 947 1169 1205 825 
Q 1463 481 1925 481 
Q 2391 481 2648 825 
Q 2906 1169 2906 1791 
z
M 3481 434 
Q 3481 -459 3084 -895 
Q 2688 -1331 1869 -1331 
Q 1566 -1331 1297 -1286 
Q 1028 -1241 775 -1147 
L 775 -588 
Q 1028 -725 1275 -790 
Q 1522 -856 1778 -856 
Q 2344 -856 2625 -561 
Q 2906 -266 2906 331 
L 2906 616 
Q 2728 306 2450 153 
Q 2172 0 1784 0 
Q 1141 0 747 490 
Q 353 981 353 1791 
Q 353 2603 747 3093 
Q 1141 3584 1784 3584 
Q 2172 3584 2450 3431 
Q 2728 3278 2906 2969 
L 2906 3500 
L 3481 3500 
L 3481 434 
z
" id="DejaVuSans-67" transform="scale(0.015625)"/>
      <path id="DejaVuSans-20" transform="scale(0.015625)"/>
      <path d="M 2906 2969 
L 2906 4863 
L 3481 4863 
L 3481 0 
L 2906 0 
L 2906 525 
Q 2725 213 2448 61 
Q 2172 -91 1784 -91 
Q 1150 -91 751 415 
Q 353 922 353 1747 
Q 353 2572 751 3078 
Q 1150 3584 1784 3584 
Q 2172 3584 2448 3432 
Q 2725 3281 2906 2969 
z
M 947 1747 
Q 947 1113 1208 752 
Q 1469 391 1925 391 
Q 2381 391 2643 752 
Q 2906 1113 2906 1747 
Q 2906 2381 2643 2742 
Q 2381 3103 1925 3103 
Q 1469 3103 1208 2742 
Q 947 2381 947 1747 
z
" id="DejaVuSans-64" transform="scale(0.015625)"/>
      <path d="M 1831 0 
L 50 4666 
L 709 4666 
L 2188 738 
L 3669 4666 
L 4325 4666 
L 2547 0 
L 1831 0 
z
" id="DejaVuSans-56" transform="scale(0.015625)"/>
      <path d="M 603 4863 
L 1178 4863 
L 1178 0 
L 603 0 
L 603 4863 
z
" id="DejaVuSans-6c" transform="scale(0.015625)"/>
      <path d="M 1172 4494 
L 1172 3500 
L 2356 3500 
L 2356 3053 
L 1172 3053 
L 1172 1153 
Q 1172 725 1289 603 
Q 1406 481 1766 481 
L 2356 481 
L 2356 0 
L 1766 0 
Q 1100 0 847 248 
Q 594 497 594 1153 
L 594 3053 
L 172 3053 
L 172 3500 
L 594 3500 
L 594 4494 
L 1172 4494 
z
" id="DejaVuSans-74" transform="scale(0.015625)"/>
     </defs>
     <use xlink:href="#DejaVuSans-54"/>
     <use x="46.333984" xlink:href="#DejaVuSans-72"/>
     <use x="87.447266" xlink:href="#DejaVuSans-61"/>
     <use x="148.726562" xlink:href="#DejaVuSans-69"/>
     <use x="176.509766" xlink:href="#DejaVuSans-6e"/>
     <use x="239.888672" xlink:href="#DejaVuSans-69"/>
     <use x="267.671875" xlink:href="#DejaVuSans-6e"/>
     <use x="331.050781" xlink:href="#DejaVuSans-67"/>
     <use x="394.527344" xlink:href="#DejaVuSans-20"/>
     <use x="426.314453" xlink:href="#DejaVuSans-61"/>
     <use x="487.59375" xlink:href="#DejaVuSans-6e"/>
     <use x="550.972656" xlink:href="#DejaVuSans-64"/>
     <use x="614.449219" xlink:href="#DejaVuSans-20"/>
     <use x="646.236328" xlink:href="#DejaVuSans-56"/>
     <use x="706.894531" xlink:href="#DejaVuSans-61"/>
     <use x="768.173828" xlink:href="#DejaVuSans-6c"/>
     <use x="795.957031" xlink:href="#DejaVuSans-69"/>
     <use x="823.740234" xlink:href="#DejaVuSans-64"/>
     <use x="887.216797" xlink:href="#DejaVuSans-61"/>
     <use x="948.496094" xlink:href="#DejaVuSans-74"/>
     <use x="987.705078" xlink:href="#DejaVuSans-69"/>
     <use x="1015.488281" xlink:href="#DejaVuSans-6f"/>
     <use x="1076.669922" xlink:href="#DejaVuSans-6e"/>
     <use x="1140.048828" xlink:href="#DejaVuSans-20"/>
     <use x="1171.835938" xlink:href="#DejaVuSans-41"/>
     <use x="1238.494141" xlink:href="#DejaVuSans-63"/>
     <use x="1293.474609" xlink:href="#DejaVuSans-63"/>
     <use x="1348.455078" xlink:href="#DejaVuSans-75"/>
     <use x="1411.833984" xlink:href="#DejaVuSans-72"/>
     <use x="1452.947266" xlink:href="#DejaVuSans-61"/>
     <use x="1514.226562" xlink:href="#DejaVuSans-63"/>
     <use x="1569.207031" xlink:href="#DejaVuSans-79"/>
    </g>
   </g>
   <g id="legend_1">
    <g id="patch_7">
     <path d="M 217.996562 205.38425 
L 407.72 205.38425 
Q 409.72 205.38425 409.72 203.38425 
L 409.72 145.67175 
Q 409.72 143.67175 407.72 143.67175 
L 217.996562 143.67175 
Q 215.996562 143.67175 215.996562 145.67175 
L 215.996562 203.38425 
Q 215.996562 205.38425 217.996562 205.38425 
z
" style="fill:#ffffff;opacity:0.8;stroke:#cccccc;stroke-linejoin:miter;"/>
    </g>
    <g id="line2d_24">
     <path d="M 219.996562 151.770188 
L 239.996562 151.770188 
" style="fill:none;stroke:#1f77b4;stroke-linecap:square;stroke-width:1.5;"/>
    </g>
    <g id="line2d_25"/>
    <g id="text_23">
     <!-- Train Accuracy -->
     <g transform="translate(247.996562 155.270188)scale(0.1 -0.1)">
      <use xlink:href="#DejaVuSans-54"/>
      <use x="46.333984" xlink:href="#DejaVuSans-72"/>
      <use x="87.447266" xlink:href="#DejaVuSans-61"/>
      <use x="148.726562" xlink:href="#DejaVuSans-69"/>
      <use x="176.509766" xlink:href="#DejaVuSans-6e"/>
      <use x="239.888672" xlink:href="#DejaVuSans-20"/>
      <use x="271.675781" xlink:href="#DejaVuSans-41"/>
      <use x="338.333984" xlink:href="#DejaVuSans-63"/>
      <use x="393.314453" xlink:href="#DejaVuSans-63"/>
      <use x="448.294922" xlink:href="#DejaVuSans-75"/>
      <use x="511.673828" xlink:href="#DejaVuSans-72"/>
      <use x="552.787109" xlink:href="#DejaVuSans-61"/>
      <use x="614.066406" xlink:href="#DejaVuSans-63"/>
      <use x="669.046875" xlink:href="#DejaVuSans-79"/>
     </g>
    </g>
    <g id="line2d_26">
     <path d="M 219.996562 166.448313 
L 239.996562 166.448313 
" style="fill:none;stroke:#ff7f0e;stroke-linecap:square;stroke-width:1.5;"/>
    </g>
    <g id="line2d_27"/>
    <g id="text_24">
     <!-- Validation Accuracy -->
     <g transform="translate(247.996562 169.948313)scale(0.1 -0.1)">
      <use xlink:href="#DejaVuSans-56"/>
      <use x="60.658203" xlink:href="#DejaVuSans-61"/>
      <use x="121.9375" xlink:href="#DejaVuSans-6c"/>
      <use x="149.720703" xlink:href="#DejaVuSans-69"/>
      <use x="177.503906" xlink:href="#DejaVuSans-64"/>
      <use x="240.980469" xlink:href="#DejaVuSans-61"/>
      <use x="302.259766" xlink:href="#DejaVuSans-74"/>
      <use x="341.46875" xlink:href="#DejaVuSans-69"/>
      <use x="369.251953" xlink:href="#DejaVuSans-6f"/>
      <use x="430.433594" xlink:href="#DejaVuSans-6e"/>
      <use x="493.8125" xlink:href="#DejaVuSans-20"/>
      <use x="525.599609" xlink:href="#DejaVuSans-41"/>
      <use x="592.257812" xlink:href="#DejaVuSans-63"/>
      <use x="647.238281" xlink:href="#DejaVuSans-63"/>
      <use x="702.21875" xlink:href="#DejaVuSans-75"/>
      <use x="765.597656" xlink:href="#DejaVuSans-72"/>
      <use x="806.710938" xlink:href="#DejaVuSans-61"/>
      <use x="867.990234" xlink:href="#DejaVuSans-63"/>
      <use x="922.970703" xlink:href="#DejaVuSans-79"/>
     </g>
    </g>
    <g id="line2d_28">
     <path d="M 219.996562 181.126438 
L 239.996562 181.126438 
" style="fill:none;stroke:#2ca02c;stroke-linecap:square;stroke-width:1.5;"/>
    </g>
    <g id="line2d_29"/>
    <g id="text_25">
     <!-- Robust Validation Accuracy -->
     <g transform="translate(247.996562 184.626438)scale(0.1 -0.1)">
      <defs>
       <path d="M 2841 2188 
Q 3044 2119 3236 1894 
Q 3428 1669 3622 1275 
L 4263 0 
L 3584 0 
L 2988 1197 
Q 2756 1666 2539 1819 
Q 2322 1972 1947 1972 
L 1259 1972 
L 1259 0 
L 628 0 
L 628 4666 
L 2053 4666 
Q 2853 4666 3247 4331 
Q 3641 3997 3641 3322 
Q 3641 2881 3436 2590 
Q 3231 2300 2841 2188 
z
M 1259 4147 
L 1259 2491 
L 2053 2491 
Q 2509 2491 2742 2702 
Q 2975 2913 2975 3322 
Q 2975 3731 2742 3939 
Q 2509 4147 2053 4147 
L 1259 4147 
z
" id="DejaVuSans-52" transform="scale(0.015625)"/>
       <path d="M 3116 1747 
Q 3116 2381 2855 2742 
Q 2594 3103 2138 3103 
Q 1681 3103 1420 2742 
Q 1159 2381 1159 1747 
Q 1159 1113 1420 752 
Q 1681 391 2138 391 
Q 2594 391 2855 752 
Q 3116 1113 3116 1747 
z
M 1159 2969 
Q 1341 3281 1617 3432 
Q 1894 3584 2278 3584 
Q 2916 3584 3314 3078 
Q 3713 2572 3713 1747 
Q 3713 922 3314 415 
Q 2916 -91 2278 -91 
Q 1894 -91 1617 61 
Q 1341 213 1159 525 
L 1159 0 
L 581 0 
L 581 4863 
L 1159 4863 
L 1159 2969 
z
" id="DejaVuSans-62" transform="scale(0.015625)"/>
      </defs>
      <use xlink:href="#DejaVuSans-52"/>
      <use x="64.982422" xlink:href="#DejaVuSans-6f"/>
      <use x="126.164062" xlink:href="#DejaVuSans-62"/>
      <use x="189.640625" xlink:href="#DejaVuSans-75"/>
      <use x="253.019531" xlink:href="#DejaVuSans-73"/>
      <use x="305.119141" xlink:href="#DejaVuSans-74"/>
      <use x="344.328125" xlink:href="#DejaVuSans-20"/>
      <use x="376.115234" xlink:href="#DejaVuSans-56"/>
      <use x="436.773438" xlink:href="#DejaVuSans-61"/>
      <use x="498.052734" xlink:href="#DejaVuSans-6c"/>
      <use x="525.835938" xlink:href="#DejaVuSans-69"/>
      <use x="553.619141" xlink:href="#DejaVuSans-64"/>
      <use x="617.095703" xlink:href="#DejaVuSans-61"/>
      <use x="678.375" xlink:href="#DejaVuSans-74"/>
      <use x="717.583984" xlink:href="#DejaVuSans-69"/>
      <use x="745.367188" xlink:href="#DejaVuSans-6f"/>
      <use x="806.548828" xlink:href="#DejaVuSans-6e"/>
      <use x="869.927734" xlink:href="#DejaVuSans-20"/>
      <use x="901.714844" xlink:href="#DejaVuSans-41"/>
      <use x="968.373047" xlink:href="#DejaVuSans-63"/>
      <use x="1023.353516" xlink:href="#DejaVuSans-63"/>
      <use x="1078.333984" xlink:href="#DejaVuSans-75"/>
      <use x="1141.712891" xlink:href="#DejaVuSans-72"/>
      <use x="1182.826172" xlink:href="#DejaVuSans-61"/>
      <use x="1244.105469" xlink:href="#DejaVuSans-63"/>
      <use x="1299.085938" xlink:href="#DejaVuSans-79"/>
     </g>
    </g>
    <g id="line2d_30">
     <path d="M 219.996562 195.804563 
L 239.996562 195.804563 
" style="fill:none;stroke:#d62728;stroke-linecap:square;stroke-width:1.5;"/>
    </g>
    <g id="line2d_31"/>
    <g id="text_26">
     <!-- Adversarial Validation Accuracy -->
     <g transform="translate(247.996562 199.304563)scale(0.1 -0.1)">
      <defs>
       <path d="M 191 3500 
L 800 3500 
L 1894 563 
L 2988 3500 
L 3597 3500 
L 2284 0 
L 1503 0 
L 191 3500 
z
" id="DejaVuSans-76" transform="scale(0.015625)"/>
       <path d="M 3597 1894 
L 3597 1613 
L 953 1613 
Q 991 1019 1311 708 
Q 1631 397 2203 397 
Q 2534 397 2845 478 
Q 3156 559 3463 722 
L 3463 178 
Q 3153 47 2828 -22 
Q 2503 -91 2169 -91 
Q 1331 -91 842 396 
Q 353 884 353 1716 
Q 353 2575 817 3079 
Q 1281 3584 2069 3584 
Q 2775 3584 3186 3129 
Q 3597 2675 3597 1894 
z
M 3022 2063 
Q 3016 2534 2758 2815 
Q 2500 3097 2075 3097 
Q 1594 3097 1305 2825 
Q 1016 2553 972 2059 
L 3022 2063 
z
" id="DejaVuSans-65" transform="scale(0.015625)"/>
      </defs>
      <use xlink:href="#DejaVuSans-41"/>
      <use x="66.658203" xlink:href="#DejaVuSans-64"/>
      <use x="130.134766" xlink:href="#DejaVuSans-76"/>
      <use x="189.314453" xlink:href="#DejaVuSans-65"/>
      <use x="250.837891" xlink:href="#DejaVuSans-72"/>
      <use x="291.951172" xlink:href="#DejaVuSans-73"/>
      <use x="344.050781" xlink:href="#DejaVuSans-61"/>
      <use x="405.330078" xlink:href="#DejaVuSans-72"/>
      <use x="446.443359" xlink:href="#DejaVuSans-69"/>
      <use x="474.226562" xlink:href="#DejaVuSans-61"/>
      <use x="535.505859" xlink:href="#DejaVuSans-6c"/>
      <use x="563.289062" xlink:href="#DejaVuSans-20"/>
      <use x="595.076172" xlink:href="#DejaVuSans-56"/>
      <use x="655.734375" xlink:href="#DejaVuSans-61"/>
      <use x="717.013672" xlink:href="#DejaVuSans-6c"/>
      <use x="744.796875" xlink:href="#DejaVuSans-69"/>
      <use x="772.580078" xlink:href="#DejaVuSans-64"/>
      <use x="836.056641" xlink:href="#DejaVuSans-61"/>
      <use x="897.335938" xlink:href="#DejaVuSans-74"/>
      <use x="936.544922" xlink:href="#DejaVuSans-69"/>
      <use x="964.328125" xlink:href="#DejaVuSans-6f"/>
      <use x="1025.509766" xlink:href="#DejaVuSans-6e"/>
      <use x="1088.888672" xlink:href="#DejaVuSans-20"/>
      <use x="1120.675781" xlink:href="#DejaVuSans-41"/>
      <use x="1187.333984" xlink:href="#DejaVuSans-63"/>
      <use x="1242.314453" xlink:href="#DejaVuSans-63"/>
      <use x="1297.294922" xlink:href="#DejaVuSans-75"/>
      <use x="1360.673828" xlink:href="#DejaVuSans-72"/>
      <use x="1401.787109" xlink:href="#DejaVuSans-61"/>
      <use x="1463.066406" xlink:href="#DejaVuSans-63"/>
      <use x="1518.046875" xlink:href="#DejaVuSans-79"/>
     </g>
    </g>
   </g>
  </g>
 </g>
 <defs>
  <clipPath id="pc1c6b6bcc3">
   <rect height="266.112" width="357.12" x="57.6" y="41.472"/>
  </clipPath>
 </defs>
</svg>
