<?xml version="1.0" encoding="utf-8" standalone="no"?>
<!DOCTYPE svg PUBLIC "-//W3C//DTD SVG 1.1//EN"
  "http://www.w3.org/Graphics/SVG/1.1/DTD/svg11.dtd">
<svg height="345.6pt" version="1.1" viewBox="0 0 460.8 345.6" width="460.8pt" xmlns="http://www.w3.org/2000/svg" xmlns:xlink="http://www.w3.org/1999/xlink">
 <metadata>
  <rdf:RDF xmlns:cc="http://creativecommons.org/ns#" xmlns:dc="http://purl.org/dc/elements/1.1/" xmlns:rdf="http://www.w3.org/1999/02/22-rdf-syntax-ns#">
   <cc:Work>
    <dc:type rdf:resource="http://purl.org/dc/dcmitype/StillImage"/>
    <dc:date>2024-03-23T22:03:05.309963</dc:date>
    <dc:format>image/svg+xml</dc:format>
    <dc:creator>
     <cc:Agent>
      <dc:title>Matplotlib v3.4.3, https://matplotlib.org/</dc:title>
     </cc:Agent>
    </dc:creator>
   </cc:Work>
  </rdf:RDF>
 </metadata>
 <defs>
  <style type="text/css">*{stroke-linecap:butt;stroke-linejoin:round;}</style>
 </defs>
 <g id="figure_1">
  <g id="patch_1">
   <path d="M 0 345.6 
L 460.8 345.6 
L 460.8 0 
L 0 0 
z
" style="fill:#ffffff;"/>
  </g>
  <g id="axes_1">
   <g id="patch_2">
    <path d="M 57.6 307.584 
L 414.72 307.584 
L 414.72 41.472 
L 57.6 41.472 
z
" style="fill:#ffffff;"/>
   </g>
   <g id="matplotlib.axis_1">
    <g id="xtick_1">
     <g id="line2d_1">
      <defs>
       <path d="M 0 0 
L 0 3.5 
" id="m1a1973ed5a" style="stroke:#000000;stroke-width:0.8;"/>
      </defs>
      <g>
       <use style="stroke:#000000;stroke-width:0.8;" x="73.832727" xlink:href="#m1a1973ed5a" y="307.584"/>
      </g>
     </g>
     <g id="text_1">
      <!-- 1 -->
      <g transform="translate(70.651477 322.182437)scale(0.1 -0.1)">
       <defs>
        <path d="M 794 531 
L 1825 531 
L 1825 4091 
L 703 3866 
L 703 4441 
L 1819 4666 
L 2450 4666 
L 2450 531 
L 3481 531 
L 3481 0 
L 794 0 
L 794 531 
z
" id="DejaVuSans-31" transform="scale(0.015625)"/>
       </defs>
       <use xlink:href="#DejaVuSans-31"/>
      </g>
     </g>
    </g>
    <g id="xtick_2">
     <g id="line2d_2">
      <g>
       <use style="stroke:#000000;stroke-width:0.8;" x="109.423199" xlink:href="#m1a1973ed5a" y="307.584"/>
      </g>
     </g>
     <g id="text_2">
      <!-- 42 -->
      <g transform="translate(103.060699 322.182437)scale(0.1 -0.1)">
       <defs>
        <path d="M 2419 4116 
L 825 1625 
L 2419 1625 
L 2419 4116 
z
M 2253 4666 
L 3047 4666 
L 3047 1625 
L 3713 1625 
L 3713 1100 
L 3047 1100 
L 3047 0 
L 2419 0 
L 2419 1100 
L 313 1100 
L 313 1709 
L 2253 4666 
z
" id="DejaVuSans-34" transform="scale(0.015625)"/>
        <path d="M 1228 531 
L 3431 531 
L 3431 0 
L 469 0 
L 469 531 
Q 828 903 1448 1529 
Q 2069 2156 2228 2338 
Q 2531 2678 2651 2914 
Q 2772 3150 2772 3378 
Q 2772 3750 2511 3984 
Q 2250 4219 1831 4219 
Q 1534 4219 1204 4116 
Q 875 4013 500 3803 
L 500 4441 
Q 881 4594 1212 4672 
Q 1544 4750 1819 4750 
Q 2544 4750 2975 4387 
Q 3406 4025 3406 3419 
Q 3406 3131 3298 2873 
Q 3191 2616 2906 2266 
Q 2828 2175 2409 1742 
Q 1991 1309 1228 531 
z
" id="DejaVuSans-32" transform="scale(0.015625)"/>
       </defs>
       <use xlink:href="#DejaVuSans-34"/>
       <use x="63.623047" xlink:href="#DejaVuSans-32"/>
      </g>
     </g>
    </g>
    <g id="xtick_3">
     <g id="line2d_3">
      <g>
       <use style="stroke:#000000;stroke-width:0.8;" x="145.881731" xlink:href="#m1a1973ed5a" y="307.584"/>
      </g>
     </g>
     <g id="text_3">
      <!-- 84 -->
      <g transform="translate(139.519231 322.182437)scale(0.1 -0.1)">
       <defs>
        <path d="M 2034 2216 
Q 1584 2216 1326 1975 
Q 1069 1734 1069 1313 
Q 1069 891 1326 650 
Q 1584 409 2034 409 
Q 2484 409 2743 651 
Q 3003 894 3003 1313 
Q 3003 1734 2745 1975 
Q 2488 2216 2034 2216 
z
M 1403 2484 
Q 997 2584 770 2862 
Q 544 3141 544 3541 
Q 544 4100 942 4425 
Q 1341 4750 2034 4750 
Q 2731 4750 3128 4425 
Q 3525 4100 3525 3541 
Q 3525 3141 3298 2862 
Q 3072 2584 2669 2484 
Q 3125 2378 3379 2068 
Q 3634 1759 3634 1313 
Q 3634 634 3220 271 
Q 2806 -91 2034 -91 
Q 1263 -91 848 271 
Q 434 634 434 1313 
Q 434 1759 690 2068 
Q 947 2378 1403 2484 
z
M 1172 3481 
Q 1172 3119 1398 2916 
Q 1625 2713 2034 2713 
Q 2441 2713 2670 2916 
Q 2900 3119 2900 3481 
Q 2900 3844 2670 4047 
Q 2441 4250 2034 4250 
Q 1625 4250 1398 4047 
Q 1172 3844 1172 3481 
z
" id="DejaVuSans-38" transform="scale(0.015625)"/>
       </defs>
       <use xlink:href="#DejaVuSans-38"/>
       <use x="63.623047" xlink:href="#DejaVuSans-34"/>
      </g>
     </g>
    </g>
    <g id="xtick_4">
     <g id="line2d_4">
      <g>
       <use style="stroke:#000000;stroke-width:0.8;" x="181.472202" xlink:href="#m1a1973ed5a" y="307.584"/>
      </g>
     </g>
     <g id="text_4">
      <!-- 125 -->
      <g transform="translate(171.928452 322.182437)scale(0.1 -0.1)">
       <defs>
        <path d="M 691 4666 
L 3169 4666 
L 3169 4134 
L 1269 4134 
L 1269 2991 
Q 1406 3038 1543 3061 
Q 1681 3084 1819 3084 
Q 2600 3084 3056 2656 
Q 3513 2228 3513 1497 
Q 3513 744 3044 326 
Q 2575 -91 1722 -91 
Q 1428 -91 1123 -41 
Q 819 9 494 109 
L 494 744 
Q 775 591 1075 516 
Q 1375 441 1709 441 
Q 2250 441 2565 725 
Q 2881 1009 2881 1497 
Q 2881 1984 2565 2268 
Q 2250 2553 1709 2553 
Q 1456 2553 1204 2497 
Q 953 2441 691 2322 
L 691 4666 
z
" id="DejaVuSans-35" transform="scale(0.015625)"/>
       </defs>
       <use xlink:href="#DejaVuSans-31"/>
       <use x="63.623047" xlink:href="#DejaVuSans-32"/>
       <use x="127.246094" xlink:href="#DejaVuSans-35"/>
      </g>
     </g>
    </g>
    <g id="xtick_5">
     <g id="line2d_5">
      <g>
       <use style="stroke:#000000;stroke-width:0.8;" x="217.930734" xlink:href="#m1a1973ed5a" y="307.584"/>
      </g>
     </g>
     <g id="text_5">
      <!-- 167 -->
      <g transform="translate(208.386984 322.182437)scale(0.1 -0.1)">
       <defs>
        <path d="M 2113 2584 
Q 1688 2584 1439 2293 
Q 1191 2003 1191 1497 
Q 1191 994 1439 701 
Q 1688 409 2113 409 
Q 2538 409 2786 701 
Q 3034 994 3034 1497 
Q 3034 2003 2786 2293 
Q 2538 2584 2113 2584 
z
M 3366 4563 
L 3366 3988 
Q 3128 4100 2886 4159 
Q 2644 4219 2406 4219 
Q 1781 4219 1451 3797 
Q 1122 3375 1075 2522 
Q 1259 2794 1537 2939 
Q 1816 3084 2150 3084 
Q 2853 3084 3261 2657 
Q 3669 2231 3669 1497 
Q 3669 778 3244 343 
Q 2819 -91 2113 -91 
Q 1303 -91 875 529 
Q 447 1150 447 2328 
Q 447 3434 972 4092 
Q 1497 4750 2381 4750 
Q 2619 4750 2861 4703 
Q 3103 4656 3366 4563 
z
" id="DejaVuSans-36" transform="scale(0.015625)"/>
        <path d="M 525 4666 
L 3525 4666 
L 3525 4397 
L 1831 0 
L 1172 0 
L 2766 4134 
L 525 4134 
L 525 4666 
z
" id="DejaVuSans-37" transform="scale(0.015625)"/>
       </defs>
       <use xlink:href="#DejaVuSans-31"/>
       <use x="63.623047" xlink:href="#DejaVuSans-36"/>
       <use x="127.246094" xlink:href="#DejaVuSans-37"/>
      </g>
     </g>
    </g>
    <g id="xtick_6">
     <g id="line2d_6">
      <g>
       <use style="stroke:#000000;stroke-width:0.8;" x="253.521206" xlink:href="#m1a1973ed5a" y="307.584"/>
      </g>
     </g>
     <g id="text_6">
      <!-- 208 -->
      <g transform="translate(243.977456 322.182437)scale(0.1 -0.1)">
       <defs>
        <path d="M 2034 4250 
Q 1547 4250 1301 3770 
Q 1056 3291 1056 2328 
Q 1056 1369 1301 889 
Q 1547 409 2034 409 
Q 2525 409 2770 889 
Q 3016 1369 3016 2328 
Q 3016 3291 2770 3770 
Q 2525 4250 2034 4250 
z
M 2034 4750 
Q 2819 4750 3233 4129 
Q 3647 3509 3647 2328 
Q 3647 1150 3233 529 
Q 2819 -91 2034 -91 
Q 1250 -91 836 529 
Q 422 1150 422 2328 
Q 422 3509 836 4129 
Q 1250 4750 2034 4750 
z
" id="DejaVuSans-30" transform="scale(0.015625)"/>
       </defs>
       <use xlink:href="#DejaVuSans-32"/>
       <use x="63.623047" xlink:href="#DejaVuSans-30"/>
       <use x="127.246094" xlink:href="#DejaVuSans-38"/>
      </g>
     </g>
    </g>
    <g id="xtick_7">
     <g id="line2d_7">
      <g>
       <use style="stroke:#000000;stroke-width:0.8;" x="289.979737" xlink:href="#m1a1973ed5a" y="307.584"/>
      </g>
     </g>
     <g id="text_7">
      <!-- 250 -->
      <g transform="translate(280.435987 322.182437)scale(0.1 -0.1)">
       <use xlink:href="#DejaVuSans-32"/>
       <use x="63.623047" xlink:href="#DejaVuSans-35"/>
       <use x="127.246094" xlink:href="#DejaVuSans-30"/>
      </g>
     </g>
    </g>
    <g id="xtick_8">
     <g id="line2d_8">
      <g>
       <use style="stroke:#000000;stroke-width:0.8;" x="325.570209" xlink:href="#m1a1973ed5a" y="307.584"/>
      </g>
     </g>
     <g id="text_8">
      <!-- 291 -->
      <g transform="translate(316.026459 322.182437)scale(0.1 -0.1)">
       <defs>
        <path d="M 703 97 
L 703 672 
Q 941 559 1184 500 
Q 1428 441 1663 441 
Q 2288 441 2617 861 
Q 2947 1281 2994 2138 
Q 2813 1869 2534 1725 
Q 2256 1581 1919 1581 
Q 1219 1581 811 2004 
Q 403 2428 403 3163 
Q 403 3881 828 4315 
Q 1253 4750 1959 4750 
Q 2769 4750 3195 4129 
Q 3622 3509 3622 2328 
Q 3622 1225 3098 567 
Q 2575 -91 1691 -91 
Q 1453 -91 1209 -44 
Q 966 3 703 97 
z
M 1959 2075 
Q 2384 2075 2632 2365 
Q 2881 2656 2881 3163 
Q 2881 3666 2632 3958 
Q 2384 4250 1959 4250 
Q 1534 4250 1286 3958 
Q 1038 3666 1038 3163 
Q 1038 2656 1286 2365 
Q 1534 2075 1959 2075 
z
" id="DejaVuSans-39" transform="scale(0.015625)"/>
       </defs>
       <use xlink:href="#DejaVuSans-32"/>
       <use x="63.623047" xlink:href="#DejaVuSans-39"/>
       <use x="127.246094" xlink:href="#DejaVuSans-31"/>
      </g>
     </g>
    </g>
    <g id="xtick_9">
     <g id="line2d_9">
      <g>
       <use style="stroke:#000000;stroke-width:0.8;" x="362.028741" xlink:href="#m1a1973ed5a" y="307.584"/>
      </g>
     </g>
     <g id="text_9">
      <!-- 333 -->
      <g transform="translate(352.484991 322.182437)scale(0.1 -0.1)">
       <defs>
        <path d="M 2597 2516 
Q 3050 2419 3304 2112 
Q 3559 1806 3559 1356 
Q 3559 666 3084 287 
Q 2609 -91 1734 -91 
Q 1441 -91 1130 -33 
Q 819 25 488 141 
L 488 750 
Q 750 597 1062 519 
Q 1375 441 1716 441 
Q 2309 441 2620 675 
Q 2931 909 2931 1356 
Q 2931 1769 2642 2001 
Q 2353 2234 1838 2234 
L 1294 2234 
L 1294 2753 
L 1863 2753 
Q 2328 2753 2575 2939 
Q 2822 3125 2822 3475 
Q 2822 3834 2567 4026 
Q 2313 4219 1838 4219 
Q 1578 4219 1281 4162 
Q 984 4106 628 3988 
L 628 4550 
Q 988 4650 1302 4700 
Q 1616 4750 1894 4750 
Q 2613 4750 3031 4423 
Q 3450 4097 3450 3541 
Q 3450 3153 3228 2886 
Q 3006 2619 2597 2516 
z
" id="DejaVuSans-33" transform="scale(0.015625)"/>
       </defs>
       <use xlink:href="#DejaVuSans-33"/>
       <use x="63.623047" xlink:href="#DejaVuSans-33"/>
       <use x="127.246094" xlink:href="#DejaVuSans-33"/>
      </g>
     </g>
    </g>
    <g id="xtick_10">
     <g id="line2d_10">
      <g>
       <use style="stroke:#000000;stroke-width:0.8;" x="398.487273" xlink:href="#m1a1973ed5a" y="307.584"/>
      </g>
     </g>
     <g id="text_10">
      <!-- 375 -->
      <g transform="translate(388.943523 322.182437)scale(0.1 -0.1)">
       <use xlink:href="#DejaVuSans-33"/>
       <use x="63.623047" xlink:href="#DejaVuSans-37"/>
       <use x="127.246094" xlink:href="#DejaVuSans-35"/>
      </g>
     </g>
    </g>
    <g id="text_11">
     <!-- Epochs -->
     <g transform="translate(218.244375 335.860562)scale(0.1 -0.1)">
      <defs>
       <path d="M 628 4666 
L 3578 4666 
L 3578 4134 
L 1259 4134 
L 1259 2753 
L 3481 2753 
L 3481 2222 
L 1259 2222 
L 1259 531 
L 3634 531 
L 3634 0 
L 628 0 
L 628 4666 
z
" id="DejaVuSans-45" transform="scale(0.015625)"/>
       <path d="M 1159 525 
L 1159 -1331 
L 581 -1331 
L 581 3500 
L 1159 3500 
L 1159 2969 
Q 1341 3281 1617 3432 
Q 1894 3584 2278 3584 
Q 2916 3584 3314 3078 
Q 3713 2572 3713 1747 
Q 3713 922 3314 415 
Q 2916 -91 2278 -91 
Q 1894 -91 1617 61 
Q 1341 213 1159 525 
z
M 3116 1747 
Q 3116 2381 2855 2742 
Q 2594 3103 2138 3103 
Q 1681 3103 1420 2742 
Q 1159 2381 1159 1747 
Q 1159 1113 1420 752 
Q 1681 391 2138 391 
Q 2594 391 2855 752 
Q 3116 1113 3116 1747 
z
" id="DejaVuSans-70" transform="scale(0.015625)"/>
       <path d="M 1959 3097 
Q 1497 3097 1228 2736 
Q 959 2375 959 1747 
Q 959 1119 1226 758 
Q 1494 397 1959 397 
Q 2419 397 2687 759 
Q 2956 1122 2956 1747 
Q 2956 2369 2687 2733 
Q 2419 3097 1959 3097 
z
M 1959 3584 
Q 2709 3584 3137 3096 
Q 3566 2609 3566 1747 
Q 3566 888 3137 398 
Q 2709 -91 1959 -91 
Q 1206 -91 779 398 
Q 353 888 353 1747 
Q 353 2609 779 3096 
Q 1206 3584 1959 3584 
z
" id="DejaVuSans-6f" transform="scale(0.015625)"/>
       <path d="M 3122 3366 
L 3122 2828 
Q 2878 2963 2633 3030 
Q 2388 3097 2138 3097 
Q 1578 3097 1268 2742 
Q 959 2388 959 1747 
Q 959 1106 1268 751 
Q 1578 397 2138 397 
Q 2388 397 2633 464 
Q 2878 531 3122 666 
L 3122 134 
Q 2881 22 2623 -34 
Q 2366 -91 2075 -91 
Q 1284 -91 818 406 
Q 353 903 353 1747 
Q 353 2603 823 3093 
Q 1294 3584 2113 3584 
Q 2378 3584 2631 3529 
Q 2884 3475 3122 3366 
z
" id="DejaVuSans-63" transform="scale(0.015625)"/>
       <path d="M 3513 2113 
L 3513 0 
L 2938 0 
L 2938 2094 
Q 2938 2591 2744 2837 
Q 2550 3084 2163 3084 
Q 1697 3084 1428 2787 
Q 1159 2491 1159 1978 
L 1159 0 
L 581 0 
L 581 4863 
L 1159 4863 
L 1159 2956 
Q 1366 3272 1645 3428 
Q 1925 3584 2291 3584 
Q 2894 3584 3203 3211 
Q 3513 2838 3513 2113 
z
" id="DejaVuSans-68" transform="scale(0.015625)"/>
       <path d="M 2834 3397 
L 2834 2853 
Q 2591 2978 2328 3040 
Q 2066 3103 1784 3103 
Q 1356 3103 1142 2972 
Q 928 2841 928 2578 
Q 928 2378 1081 2264 
Q 1234 2150 1697 2047 
L 1894 2003 
Q 2506 1872 2764 1633 
Q 3022 1394 3022 966 
Q 3022 478 2636 193 
Q 2250 -91 1575 -91 
Q 1294 -91 989 -36 
Q 684 19 347 128 
L 347 722 
Q 666 556 975 473 
Q 1284 391 1588 391 
Q 1994 391 2212 530 
Q 2431 669 2431 922 
Q 2431 1156 2273 1281 
Q 2116 1406 1581 1522 
L 1381 1569 
Q 847 1681 609 1914 
Q 372 2147 372 2553 
Q 372 3047 722 3315 
Q 1072 3584 1716 3584 
Q 2034 3584 2315 3537 
Q 2597 3491 2834 3397 
z
" id="DejaVuSans-73" transform="scale(0.015625)"/>
      </defs>
      <use xlink:href="#DejaVuSans-45"/>
      <use x="63.183594" xlink:href="#DejaVuSans-70"/>
      <use x="126.660156" xlink:href="#DejaVuSans-6f"/>
      <use x="187.841797" xlink:href="#DejaVuSans-63"/>
      <use x="242.822266" xlink:href="#DejaVuSans-68"/>
      <use x="306.201172" xlink:href="#DejaVuSans-73"/>
     </g>
    </g>
   </g>
   <g id="matplotlib.axis_2">
    <g id="ytick_1">
     <g id="line2d_11">
      <defs>
       <path d="M 0 0 
L -3.5 0 
" id="mf747035b62" style="stroke:#000000;stroke-width:0.8;"/>
      </defs>
      <g>
       <use style="stroke:#000000;stroke-width:0.8;" x="57.6" xlink:href="#mf747035b62" y="284.555569"/>
      </g>
     </g>
     <g id="text_12">
      <!-- 10 -->
      <g transform="translate(37.875 288.354787)scale(0.1 -0.1)">
       <use xlink:href="#DejaVuSans-31"/>
       <use x="63.623047" xlink:href="#DejaVuSans-30"/>
      </g>
     </g>
    </g>
    <g id="ytick_2">
     <g id="line2d_12">
      <g>
       <use style="stroke:#000000;stroke-width:0.8;" x="57.6" xlink:href="#mf747035b62" y="252.589395"/>
      </g>
     </g>
     <g id="text_13">
      <!-- 20 -->
      <g transform="translate(37.875 256.388614)scale(0.1 -0.1)">
       <use xlink:href="#DejaVuSans-32"/>
       <use x="63.623047" xlink:href="#DejaVuSans-30"/>
      </g>
     </g>
    </g>
    <g id="ytick_3">
     <g id="line2d_13">
      <g>
       <use style="stroke:#000000;stroke-width:0.8;" x="57.6" xlink:href="#mf747035b62" y="220.623222"/>
      </g>
     </g>
     <g id="text_14">
      <!-- 30 -->
      <g transform="translate(37.875 224.422441)scale(0.1 -0.1)">
       <use xlink:href="#DejaVuSans-33"/>
       <use x="63.623047" xlink:href="#DejaVuSans-30"/>
      </g>
     </g>
    </g>
    <g id="ytick_4">
     <g id="line2d_14">
      <g>
       <use style="stroke:#000000;stroke-width:0.8;" x="57.6" xlink:href="#mf747035b62" y="188.657049"/>
      </g>
     </g>
     <g id="text_15">
      <!-- 40 -->
      <g transform="translate(37.875 192.456267)scale(0.1 -0.1)">
       <use xlink:href="#DejaVuSans-34"/>
       <use x="63.623047" xlink:href="#DejaVuSans-30"/>
      </g>
     </g>
    </g>
    <g id="ytick_5">
     <g id="line2d_15">
      <g>
       <use style="stroke:#000000;stroke-width:0.8;" x="57.6" xlink:href="#mf747035b62" y="156.690875"/>
      </g>
     </g>
     <g id="text_16">
      <!-- 50 -->
      <g transform="translate(37.875 160.490094)scale(0.1 -0.1)">
       <use xlink:href="#DejaVuSans-35"/>
       <use x="63.623047" xlink:href="#DejaVuSans-30"/>
      </g>
     </g>
    </g>
    <g id="ytick_6">
     <g id="line2d_16">
      <g>
       <use style="stroke:#000000;stroke-width:0.8;" x="57.6" xlink:href="#mf747035b62" y="124.724702"/>
      </g>
     </g>
     <g id="text_17">
      <!-- 60 -->
      <g transform="translate(37.875 128.523921)scale(0.1 -0.1)">
       <use xlink:href="#DejaVuSans-36"/>
       <use x="63.623047" xlink:href="#DejaVuSans-30"/>
      </g>
     </g>
    </g>
    <g id="ytick_7">
     <g id="line2d_17">
      <g>
       <use style="stroke:#000000;stroke-width:0.8;" x="57.6" xlink:href="#mf747035b62" y="92.758529"/>
      </g>
     </g>
     <g id="text_18">
      <!-- 70 -->
      <g transform="translate(37.875 96.557747)scale(0.1 -0.1)">
       <use xlink:href="#DejaVuSans-37"/>
       <use x="63.623047" xlink:href="#DejaVuSans-30"/>
      </g>
     </g>
    </g>
    <g id="ytick_8">
     <g id="line2d_18">
      <g>
       <use style="stroke:#000000;stroke-width:0.8;" x="57.6" xlink:href="#mf747035b62" y="60.792355"/>
      </g>
     </g>
     <g id="text_19">
      <!-- 80 -->
      <g transform="translate(37.875 64.591574)scale(0.1 -0.1)">
       <use xlink:href="#DejaVuSans-38"/>
       <use x="63.623047" xlink:href="#DejaVuSans-30"/>
      </g>
     </g>
    </g>
    <g id="text_20">
     <!-- Accuracy -->
     <g transform="translate(31.795312 197.356125)rotate(-90)scale(0.1 -0.1)">
      <defs>
       <path d="M 2188 4044 
L 1331 1722 
L 3047 1722 
L 2188 4044 
z
M 1831 4666 
L 2547 4666 
L 4325 0 
L 3669 0 
L 3244 1197 
L 1141 1197 
L 716 0 
L 50 0 
L 1831 4666 
z
" id="DejaVuSans-41" transform="scale(0.015625)"/>
       <path d="M 544 1381 
L 544 3500 
L 1119 3500 
L 1119 1403 
Q 1119 906 1312 657 
Q 1506 409 1894 409 
Q 2359 409 2629 706 
Q 2900 1003 2900 1516 
L 2900 3500 
L 3475 3500 
L 3475 0 
L 2900 0 
L 2900 538 
Q 2691 219 2414 64 
Q 2138 -91 1772 -91 
Q 1169 -91 856 284 
Q 544 659 544 1381 
z
M 1991 3584 
L 1991 3584 
z
" id="DejaVuSans-75" transform="scale(0.015625)"/>
       <path d="M 2631 2963 
Q 2534 3019 2420 3045 
Q 2306 3072 2169 3072 
Q 1681 3072 1420 2755 
Q 1159 2438 1159 1844 
L 1159 0 
L 581 0 
L 581 3500 
L 1159 3500 
L 1159 2956 
Q 1341 3275 1631 3429 
Q 1922 3584 2338 3584 
Q 2397 3584 2469 3576 
Q 2541 3569 2628 3553 
L 2631 2963 
z
" id="DejaVuSans-72" transform="scale(0.015625)"/>
       <path d="M 2194 1759 
Q 1497 1759 1228 1600 
Q 959 1441 959 1056 
Q 959 750 1161 570 
Q 1363 391 1709 391 
Q 2188 391 2477 730 
Q 2766 1069 2766 1631 
L 2766 1759 
L 2194 1759 
z
M 3341 1997 
L 3341 0 
L 2766 0 
L 2766 531 
Q 2569 213 2275 61 
Q 1981 -91 1556 -91 
Q 1019 -91 701 211 
Q 384 513 384 1019 
Q 384 1609 779 1909 
Q 1175 2209 1959 2209 
L 2766 2209 
L 2766 2266 
Q 2766 2663 2505 2880 
Q 2244 3097 1772 3097 
Q 1472 3097 1187 3025 
Q 903 2953 641 2809 
L 641 3341 
Q 956 3463 1253 3523 
Q 1550 3584 1831 3584 
Q 2591 3584 2966 3190 
Q 3341 2797 3341 1997 
z
" id="DejaVuSans-61" transform="scale(0.015625)"/>
       <path d="M 2059 -325 
Q 1816 -950 1584 -1140 
Q 1353 -1331 966 -1331 
L 506 -1331 
L 506 -850 
L 844 -850 
Q 1081 -850 1212 -737 
Q 1344 -625 1503 -206 
L 1606 56 
L 191 3500 
L 800 3500 
L 1894 763 
L 2988 3500 
L 3597 3500 
L 2059 -325 
z
" id="DejaVuSans-79" transform="scale(0.015625)"/>
      </defs>
      <use xlink:href="#DejaVuSans-41"/>
      <use x="66.658203" xlink:href="#DejaVuSans-63"/>
      <use x="121.638672" xlink:href="#DejaVuSans-63"/>
      <use x="176.619141" xlink:href="#DejaVuSans-75"/>
      <use x="239.998047" xlink:href="#DejaVuSans-72"/>
      <use x="281.111328" xlink:href="#DejaVuSans-61"/>
      <use x="342.390625" xlink:href="#DejaVuSans-63"/>
      <use x="397.371094" xlink:href="#DejaVuSans-79"/>
     </g>
    </g>
   </g>
   <g id="line2d_19">
    <path clip-path="url(#pb82afb4f7f)" d="M 73.832727 295.488 
L 74.700788 274.179349 
L 77.304968 229.454517 
L 79.909149 200.435625 
L 81.64527 186.438596 
L 82.51333 186.295707 
L 83.38139 174.596088 
L 84.249451 175.672389 
L 85.117511 169.308883 
L 85.985571 156.782618 
L 86.853632 155.158737 
L 87.721692 147.79373 
L 88.589752 150.338238 
L 89.457812 144.639628 
L 90.325873 144.533181 
L 91.193933 139.318219 
L 92.061993 138.099349 
L 92.930053 132.483851 
L 93.798114 135.45255 
L 94.666174 135.574021 
L 95.534234 178.617433 
L 96.402295 164.942304 
L 97.270355 169.394233 
L 98.138415 163.663657 
L 99.006475 155.352452 
L 99.874536 157.138402 
L 100.742596 156.889066 
L 101.610656 153.494258 
L 102.478717 155.188465 
L 104.214837 144.965683 
L 105.082897 141.773221 
L 105.950958 139.135053 
L 106.819018 139.669847 
L 107.687078 139.143684 
L 108.555139 137.10616 
L 109.423199 138.135471 
L 110.291259 126.239899 
L 111.159319 124.705522 
L 112.02738 129.180786 
L 112.89544 131.527104 
L 113.7635 131.601585 
L 114.631561 127.73176 
L 115.499621 122.849247 
L 116.367681 119.880868 
L 117.235741 119.605959 
L 118.103802 117.061451 
L 118.971862 122.815362 
L 119.839922 110.045835 
L 120.707982 116.417652 
L 121.576043 117.711323 
L 122.444103 110.548663 
L 123.312163 110.301564 
L 124.180224 107.514114 
L 125.048284 104.134331 
L 125.916344 99.716499 
L 126.784404 93.003603 
L 127.652465 101.628076 
L 128.520525 101.866757 
L 129.388585 98.898165 
L 130.256646 102.324939 
L 131.124706 98.271628 
L 131.992766 98.205564 
L 132.860826 95.933835 
L 133.728887 94.220448 
L 134.596947 99.060127 
L 135.465007 89.206021 
L 136.333068 94.789446 
L 137.201128 92.183137 
L 138.069188 90.642368 
L 138.937248 132.852634 
L 139.805309 139.017844 
L 140.673369 134.962402 
L 141.541429 134.216524 
L 142.40949 129.843552 
L 143.27755 130.237801 
L 144.14561 122.401827 
L 145.01367 129.843552 
L 145.881731 128.599002 
L 146.749791 133.920304 
L 147.617851 121.51956 
L 148.485912 128.490317 
L 149.353972 130.331569 
L 150.222032 121.845615 
L 151.958153 128.96981 
L 152.826213 121.634638 
L 153.694273 117.958529 
L 154.562333 119.633556 
L 155.430394 115.614342 
L 156.298454 121.962825 
L 157.166514 115.919087 
L 158.034575 111.330875 
L 158.902635 117.596245 
L 159.770695 113.551459 
L 160.638755 112.498706 
L 161.506816 109.434216 
L 162.374876 108.799154 
L 163.242936 118.403924 
L 164.110997 111.659061 
L 164.979057 111.925446 
L 165.847117 109.391594 
L 166.715177 105.570571 
L 167.583238 107.518376 
L 168.451298 107.115603 
L 169.319358 111.863645 
L 170.187419 105.662207 
L 171.055479 105.259433 
L 171.923539 111.936101 
L 172.791599 102.949345 
L 173.65966 111.126292 
L 174.52772 110.077801 
L 175.39578 101.7943 
L 176.263841 103.367036 
L 177.131901 109.692076 
L 177.999961 99.447983 
L 178.868021 108.916364 
L 179.736082 97.333953 
L 180.604142 106.582833 
L 181.472202 104.846004 
L 182.340263 97.368051 
L 183.208323 98.179992 
L 184.076383 100.581717 
L 184.944443 98.748989 
L 185.812504 97.890165 
L 186.680564 99.953049 
L 187.548624 97.685581 
L 188.416684 95.874165 
L 189.284745 102.687222 
L 190.152805 89.438309 
L 191.020865 95.850723 
L 191.888926 101.144321 
L 192.756986 93.431949 
L 193.625046 92.119205 
L 194.493106 92.611484 
L 195.361167 93.596042 
L 196.229227 91.765446 
L 197.097287 80.285328 
L 197.965348 88.249167 
L 198.833408 92.362148 
L 199.701468 83.042943 
L 200.569528 86.759543 
L 201.437589 88.33441 
L 202.305649 93.900786 
L 203.173709 83.213429 
L 204.04177 80.737116 
L 204.90983 77.419027 
L 205.77789 85.489421 
L 206.64595 80.74351 
L 207.514011 80.937438 
L 208.382071 86.981175 
L 209.250131 79.965666 
L 210.118192 84.048812 
L 210.986252 80.174512 
L 211.854312 83.343425 
L 213.590433 79.232575 
L 214.458493 87.93803 
L 215.326553 79.336998 
L 216.194614 85.314672 
L 217.062674 82.838359 
L 217.930734 75.535154 
L 218.798794 78.912913 
L 219.666855 80.892685 
L 220.534915 77.97737 
L 221.402975 79.980584 
L 222.271035 80.963011 
L 223.139096 82.203298 
L 224.007156 79.24323 
L 224.875216 79.038647 
L 225.743277 114.834368 
L 226.611337 125.265996 
L 227.479397 118.629818 
L 228.347457 114.199307 
L 229.215518 120.771552 
L 230.083578 116.168423 
L 230.951638 113.574901 
L 231.819699 117.123146 
L 232.687759 116.669226 
L 233.555819 114.804533 
L 234.423879 111.987247 
L 235.29194 114.267501 
L 236.16 108.264254 
L 237.02806 114.64044 
L 237.896121 119.554706 
L 238.764181 114.85781 
L 239.632241 111.266943 
L 240.500301 114.484871 
L 241.368362 111.77414 
L 242.236422 105.108127 
L 243.104482 115.047476 
L 243.972543 106.947247 
L 244.840603 107.690994 
L 245.708663 108.641455 
L 246.576723 104.605192 
L 247.444784 106.233336 
L 248.312844 109.56208 
L 250.048965 109.545032 
L 250.917025 111.463002 
L 251.785085 103.015408 
L 252.653145 107.938199 
L 253.521206 117.184947 
L 254.389266 114.60208 
L 255.257326 106.529556 
L 256.125386 107.526901 
L 256.993447 107.714436 
L 257.861507 106.682994 
L 258.729567 108.686207 
L 259.597628 104.104389 
L 260.465688 106.090554 
L 261.333748 98.403755 
L 262.201808 107.637717 
L 263.937929 102.099044 
L 264.805989 102.035112 
L 265.67405 104.62011 
L 266.54211 106.776761 
L 267.41017 110.723518 
L 268.27823 104.021277 
L 269.146291 100.771383 
L 270.014351 101.263662 
L 270.882411 97.986063 
L 271.750472 106.953641 
L 272.618532 99.473556 
L 273.486592 104.389953 
L 274.354652 99.075044 
L 275.222713 102.90033 
L 276.090773 104.012753 
L 276.958833 107.364939 
L 277.826894 99.776169 
L 278.694954 101.6366 
L 279.563014 104.626503 
L 280.431074 99.539619 
L 281.299135 106.416609 
L 282.167195 94.702072 
L 283.035255 103.884888 
L 284.771376 94.889607 
L 285.639436 97.297725 
L 286.507496 100.21304 
L 287.375557 96.995112 
L 288.243617 100.52844 
L 289.111677 108.846038 
L 289.979737 97.495915 
L 290.847798 102.668042 
L 291.715858 99.072913 
L 292.583918 100.466638 
L 293.451979 99.605683 
L 294.320039 101.084651 
L 295.188099 104.409133 
L 296.056159 94.26307 
L 296.92422 93.998816 
L 297.79228 100.413362 
L 298.66034 100.479425 
L 299.528401 92.547552 
L 300.396461 98.578503 
L 301.264521 90.542207 
L 302.132581 95.831543 
L 303.000642 94.531586 
L 303.868702 98.812922 
L 304.736762 98.480474 
L 305.604823 94.591256 
L 306.472883 93.596042 
L 307.340943 90.878918 
L 308.209003 97.572634 
L 309.077064 92.016913 
L 309.945124 93.41277 
L 310.813184 97.585421 
L 311.681245 88.997175 
L 312.549305 87.087729 
L 313.417365 94.719121 
L 314.285425 96.63496 
L 315.153486 85.570402 
L 316.021546 89.382901 
L 316.889606 96.085142 
L 317.757667 87.281658 
L 318.625727 92.140516 
L 319.493787 86.938554 
L 320.361847 90.979078 
L 321.229908 82.054123 
L 322.097968 83.92734 
L 322.966028 88.272609 
L 323.834088 94.604042 
L 324.702149 89.659941 
L 325.570209 90.33123 
L 326.438269 95.332871 
L 327.30633 92.848034 
L 328.17439 84.300279 
L 329.04245 84.837311 
L 329.91051 92.598698 
L 330.778571 90.695645 
L 331.646631 84.566664 
L 332.514691 83.697184 
L 333.382752 94.425032 
L 334.250812 87.675907 
L 335.118872 86.003011 
L 335.986932 81.612989 
L 336.854993 85.502207 
L 337.723053 91.085632 
L 338.591113 80.730723 
L 340.327234 82.04986 
L 341.195294 87.192152 
L 342.063354 82.220347 
L 342.931415 81.031205 
L 343.799475 87.268871 
L 344.667535 83.818655 
L 345.535596 85.188939 
L 346.403656 80.869243 
L 347.271716 81.563975 
L 348.139776 79.805835 
L 349.007837 79.47978 
L 349.875897 76.500533 
L 350.743957 86.976913 
L 351.612018 79.63748 
L 352.480078 76.087104 
L 353.348138 78.307687 
L 354.216198 84.140448 
L 355.084259 77.781311 
L 355.952319 81.902816 
L 357.688439 77.713116 
L 358.5565 84.79682 
L 359.42456 72.950156 
L 360.29262 73.25277 
L 361.160681 74.71682 
L 362.028741 78.339653 
L 362.896801 75.737607 
L 363.764861 72.50263 
L 364.632922 82.271493 
L 365.500982 75.722689 
L 366.369042 76.49414 
L 367.237103 81.252837 
L 368.105163 72.681641 
L 368.973223 75.319915 
L 369.841283 75.343357 
L 370.709344 75.040744 
L 371.577404 69.34011 
L 372.445464 81.540533 
L 373.313525 66.752981 
L 374.181585 74.032744 
L 375.049645 74.816981 
L 375.917705 73.949632 
L 376.785766 67.394436 
L 377.653826 69.698131 
L 378.521886 67.822782 
L 379.389947 69.020448 
L 380.258007 74.782884 
L 381.126067 76.628397 
L 381.994127 79.047171 
L 382.862188 71.430698 
L 383.730248 72.270342 
L 384.598308 63.711932 
L 386.334429 73.348668 
L 387.202489 69.152575 
L 388.070549 70.914977 
L 388.93861 63.345387 
L 389.80667 68.683738 
L 390.67473 69.519121 
L 391.54279 65.40614 
L 392.410851 65.135493 
L 393.278911 74.277818 
L 394.146971 67.189852 
L 395.015032 67.871797 
L 395.883092 64.994841 
L 396.751152 66.927729 
L 397.619212 69.150444 
L 398.487273 67.14723 
L 398.487273 67.14723 
" style="fill:none;stroke:#1f77b4;stroke-linecap:square;stroke-width:1.5;"/>
   </g>
   <g id="line2d_20">
    <path clip-path="url(#pb82afb4f7f)" d="M 73.832727 269.33967 
L 74.700788 242.232355 
L 76.436908 204.192609 
L 77.304968 192.109395 
L 78.173029 172.641996 
L 79.041089 167.111848 
L 79.909149 154.772905 
L 80.77721 153.941784 
L 81.64527 141.379078 
L 82.51333 137.255442 
L 83.38139 128.177049 
L 84.249451 125.172228 
L 85.117511 115.262715 
L 85.985571 112.769353 
L 86.853632 108.102292 
L 87.721692 106.69578 
L 88.589752 102.092651 
L 89.457812 98.959966 
L 90.325873 97.297725 
L 91.193933 91.064321 
L 92.061993 91.447915 
L 92.930053 92.055273 
L 93.798114 89.817641 
L 94.666174 90.424998 
L 95.534234 127.793455 
L 96.402295 125.971383 
L 97.270355 116.157767 
L 98.138415 116.829057 
L 99.006475 107.494934 
L 99.874536 112.002165 
L 100.742596 107.239205 
L 101.610656 105.257302 
L 102.478717 103.627027 
L 103.346777 101.453328 
L 104.214837 96.466605 
L 105.082897 98.224744 
L 105.950958 96.786266 
L 106.819018 95.635484 
L 107.687078 88.98652 
L 108.555139 93.301953 
L 109.423199 89.466013 
L 111.159319 87.164448 
L 112.02738 87.260347 
L 112.89544 84.607154 
L 113.7635 86.621023 
L 114.631561 83.903899 
L 115.499621 81.762165 
L 116.367681 82.241658 
L 117.235741 80.835146 
L 118.103802 80.675315 
L 118.971862 78.62948 
L 119.839922 77.063137 
L 120.707982 76.87134 
L 121.576043 77.606562 
L 122.444103 74.825505 
L 123.312163 72.907535 
L 124.180224 73.003433 
L 125.048284 70.414173 
L 125.916344 71.596922 
L 126.784404 69.966647 
L 127.652465 71.469057 
L 128.520525 68.080643 
L 129.388585 68.783899 
L 130.256646 66.5143 
L 131.124706 67.217556 
L 131.992766 67.089691 
L 132.860826 65.874977 
L 133.728887 66.034808 
L 135.465007 65.938909 
L 136.333068 64.947958 
L 138.069188 65.171721 
L 138.937248 101.677091 
L 139.805309 98.192778 
L 140.673369 90.297133 
L 141.541429 87.89967 
L 142.40949 89.050452 
L 143.27755 86.81282 
L 144.14561 89.593877 
L 145.01367 84.415357 
L 145.881731 88.826689 
L 146.749791 82.561319 
L 147.617851 84.798951 
L 148.485912 81.6343 
L 149.353972 80.707281 
L 150.222032 89.082419 
L 151.090092 87.48411 
L 151.958153 84.830918 
L 152.826213 80.899078 
L 153.694273 83.680135 
L 154.562333 81.921996 
L 155.430394 81.921996 
L 156.298454 84.89485 
L 157.166514 83.648169 
L 158.034575 80.994977 
L 158.902635 77.478698 
L 159.770695 80.387619 
L 160.638755 80.675315 
L 161.506816 77.095104 
L 162.374876 79.04504 
L 163.242936 82.401488 
L 164.110997 78.565548 
L 164.979057 78.597514 
L 165.847117 79.30077 
L 166.715177 80.387619 
L 167.583238 80.835146 
L 168.451298 79.204871 
L 169.319358 76.551679 
L 170.187419 78.821277 
L 171.055479 73.770622 
L 171.923539 79.428634 
L 172.791599 76.168085 
L 173.65966 77.446732 
L 174.52772 80.963011 
L 175.39578 72.77967 
L 176.263841 76.775442 
L 177.131901 72.971467 
L 177.999961 72.747704 
L 178.868021 72.396076 
L 179.736082 74.95337 
L 180.604142 73.770622 
L 181.472202 70.542038 
L 182.340263 73.546858 
L 183.208323 71.596922 
L 184.076383 70.382207 
L 184.944443 70.765801 
L 185.812504 69.902715 
L 186.680564 70.765801 
L 187.548624 68.560135 
L 188.416684 69.966647 
L 189.284745 69.455188 
L 190.152805 66.578233 
L 191.020865 69.551087 
L 191.888926 67.984744 
L 192.756986 67.249522 
L 193.625046 66.961827 
L 194.493106 67.121658 
L 195.361167 66.897894 
L 196.229227 66.993793 
L 197.097287 64.915992 
L 197.965348 65.107789 
L 198.833408 64.692228 
L 199.701468 62.998021 
L 200.569528 63.221784 
L 201.437589 65.491383 
L 202.305649 64.436499 
L 203.173709 63.573412 
L 204.04177 63.285717 
L 204.90983 62.83819 
L 205.77789 63.445548 
L 206.64595 62.166901 
L 207.514011 61.495611 
L 208.382071 59.705505 
L 209.250131 62.039036 
L 210.118192 61.271848 
L 210.986252 60.184998 
L 213.590433 59.577641 
L 214.458493 59.002249 
L 215.326553 60.057133 
L 216.194614 59.289945 
L 217.062674 59.321911 
L 217.930734 58.650622 
L 218.798794 58.618655 
L 219.666855 59.481742 
L 220.534915 58.970283 
L 221.402975 59.41781 
L 222.271035 58.650622 
L 223.139096 58.426858 
L 224.007156 59.098148 
L 224.875216 59.289945 
L 225.743277 93.110156 
L 226.611337 85.598106 
L 227.479397 89.529945 
L 228.347457 86.621023 
L 229.215518 85.9817 
L 230.083578 87.164448 
L 230.951638 82.113793 
L 231.819699 80.419586 
L 232.687759 84.703053 
L 233.555819 80.739247 
L 234.423879 79.140939 
L 235.29194 80.099924 
L 236.16 82.465421 
L 237.02806 82.081827 
L 237.896121 78.501615 
L 238.764181 80.579416 
L 239.632241 83.104744 
L 240.500301 77.191002 
L 241.368362 79.140939 
L 242.236422 82.465421 
L 243.104482 77.574596 
L 243.972543 76.999205 
L 244.840603 77.894258 
L 245.708663 78.437683 
L 246.576723 85.022715 
L 247.444784 84.063729 
L 248.312844 82.753116 
L 249.180904 77.222968 
L 250.048965 80.451552 
L 250.917025 78.022123 
L 251.785085 74.250114 
L 252.653145 80.195822 
L 253.521206 81.378571 
L 254.389266 80.579416 
L 255.257326 79.396668 
L 256.125386 77.478698 
L 256.993447 76.647577 
L 257.861507 82.976879 
L 258.729567 74.761573 
L 259.597628 77.414765 
L 260.465688 76.87134 
L 261.333748 81.6343 
L 262.201808 76.487746 
L 263.069869 75.912355 
L 263.937929 78.693412 
L 264.805989 79.204871 
L 265.67405 71.373159 
L 266.54211 76.71151 
L 267.41017 77.95819 
L 268.27823 76.200051 
L 269.146291 78.725378 
L 270.014351 73.514892 
L 270.882411 78.917175 
L 271.750472 82.689184 
L 272.618532 70.925632 
L 273.486592 77.222968 
L 274.354652 75.017302 
L 275.222713 71.085463 
L 276.090773 74.729607 
L 276.958833 76.008254 
L 277.826894 71.27726 
L 278.694954 79.364702 
L 279.563014 74.058317 
L 280.431074 73.802588 
L 281.299135 74.441911 
L 282.167195 75.400896 
L 283.035255 74.377979 
L 283.903316 74.505844 
L 284.771376 72.491975 
L 285.639436 77.191002 
L 286.507496 71.27726 
L 287.375557 70.158444 
L 288.243617 74.186182 
L 289.111677 72.108381 
L 289.979737 72.428042 
L 290.847798 74.409945 
L 291.715858 73.099332 
L 292.583918 72.236245 
L 293.451979 71.021531 
L 294.320039 73.099332 
L 295.188099 72.076414 
L 296.056159 69.678951 
L 296.92422 69.10356 
L 297.79228 74.729607 
L 298.66034 68.528169 
L 299.528401 69.646985 
L 300.396461 73.738655 
L 301.264521 68.400304 
L 302.132581 69.710918 
L 303.000642 69.487154 
L 303.868702 72.268211 
L 304.736762 69.35929 
L 305.604823 68.943729 
L 306.472883 69.295357 
L 307.340943 67.569184 
L 308.209003 66.482334 
L 309.077064 68.560135 
L 309.945124 69.167493 
L 310.813184 71.501023 
L 311.681245 69.391256 
L 312.549305 67.888846 
L 313.417365 66.993793 
L 314.285425 66.482334 
L 315.153486 66.418402 
L 316.021546 67.217556 
L 316.889606 68.719966 
L 317.757667 65.01189 
L 318.625727 66.034808 
L 319.493787 70.222376 
L 320.361847 67.856879 
L 321.229908 66.130706 
L 322.097968 66.92986 
L 322.966028 65.843011 
L 323.834088 65.42745 
L 324.702149 66.92986 
L 325.570209 64.436499 
L 326.438269 64.915992 
L 327.30633 65.68318 
L 328.17439 65.619247 
L 329.04245 63.605378 
L 329.91051 64.372567 
L 330.778571 62.614427 
L 331.646631 63.125886 
L 332.514691 62.198867 
L 333.382752 62.998021 
L 334.250812 61.303814 
L 335.118872 63.381615 
L 335.986932 64.18077 
L 336.854993 62.742292 
L 337.723053 60.568592 
L 338.591113 61.623476 
L 339.459174 61.655442 
L 340.327234 61.143983 
L 341.195294 61.719374 
L 342.063354 61.431679 
L 342.931415 63.541446 
L 343.799475 60.280896 
L 344.667535 60.696457 
L 345.535596 63.253751 
L 346.403656 60.600558 
L 347.271716 60.856288 
L 348.139776 60.121066 
L 349.007837 58.874385 
L 349.875897 58.938317 
L 350.743957 59.321911 
L 351.612018 58.810452 
L 352.480078 59.993201 
L 353.348138 57.180178 
L 354.216198 60.216964 
L 355.084259 59.066182 
L 355.952319 59.321911 
L 356.820379 59.929268 
L 357.688439 57.947366 
L 358.5565 58.394892 
L 359.42456 59.449776 
L 360.29262 58.139163 
L 361.160681 58.618655 
L 362.028741 58.362926 
L 362.896801 56.860516 
L 363.764861 56.956414 
L 364.632922 57.435907 
L 365.500982 55.997429 
L 366.369042 56.764617 
L 367.237103 55.805632 
L 368.105163 56.860516 
L 368.973223 55.549903 
L 370.709344 55.549903 
L 371.577404 56.476922 
L 372.445464 55.997429 
L 373.313525 56.285125 
L 374.181585 55.709734 
L 375.049645 55.32614 
L 375.917705 55.581869 
L 376.785766 54.942545 
L 377.653826 55.454004 
L 378.521886 54.878613 
L 379.389947 55.358106 
L 380.258007 54.526985 
L 381.126067 55.390072 
L 383.730248 54.878613 
L 384.598308 54.782715 
L 385.466368 54.143391 
L 386.334429 55.358106 
L 387.202489 54.942545 
L 388.070549 54.207323 
L 388.93861 55.198275 
L 389.80667 54.015526 
L 390.67473 54.590918 
L 391.54279 54.846647 
L 392.410851 53.759797 
L 393.278911 54.335188 
L 394.146971 54.622884 
L 395.015032 54.590918 
L 395.883092 54.303222 
L 396.751152 53.568 
L 397.619212 54.431087 
L 398.487273 54.622884 
L 398.487273 54.622884 
" style="fill:none;stroke:#ff7f0e;stroke-linecap:square;stroke-width:1.5;"/>
   </g>
   <g id="line2d_21">
    <path clip-path="url(#pb82afb4f7f)" d="M 73.832727 265.308416 
L 74.700788 240.644276 
L 75.568848 225.485597 
L 76.436908 216.232029 
L 77.304968 199.407912 
L 78.173029 190.019767 
L 79.041089 186.21739 
L 79.909149 168.047178 
L 80.77721 172.11871 
L 81.64527 163.252252 
L 82.51333 168.888528 
L 83.38139 155.563748 
L 84.249451 158.457326 
L 85.117511 143.803393 
L 85.985571 141.414561 
L 86.853632 136.266089 
L 87.721692 137.073874 
L 88.589752 130.461671 
L 89.457812 133.389133 
L 90.325873 126.289446 
L 91.193933 124.118943 
L 92.061993 126.575224 
L 92.930053 124.590124 
L 93.798114 124.152827 
L 94.666174 122.099959 
L 95.534234 157.363763 
L 96.402295 152.215611 
L 97.270355 145.553221 
L 98.138415 152.888499 
L 99.874536 143.382718 
L 100.742596 142.02 
L 101.610656 138.857267 
L 102.478717 129.872854 
L 103.346777 138.873889 
L 104.214837 129.755219 
L 105.082897 126.289446 
L 105.950958 130.310471 
L 106.819018 131.656247 
L 107.687078 122.049773 
L 108.555139 130.512178 
L 109.423199 123.02538 
L 110.291259 118.701636 
L 112.02738 120.720619 
L 112.89544 114.697553 
L 113.7635 121.258929 
L 114.631561 117.826721 
L 115.499621 113.486035 
L 116.367681 109.952814 
L 117.235741 114.932824 
L 118.103802 116.918243 
L 118.971862 111.5345 
L 119.839922 113.839261 
L 120.707982 106.722632 
L 121.576043 115.656538 
L 122.444103 109.751107 
L 123.312163 107.513475 
L 124.180224 107.059236 
L 125.048284 103.64397 
L 125.916344 110.003438 
L 126.784404 104.720607 
L 127.652465 104.199054 
L 128.520525 101.338922 
L 129.388585 102.97088 
L 130.256646 102.011895 
L 131.124706 103.139123 
L 131.992766 102.600745 
L 132.860826 101.507165 
L 133.728887 100.043451 
L 134.596947 101.64176 
L 135.465007 100.514532 
L 136.333068 100.598653 
L 137.201128 100.144397 
L 138.069188 99.992978 
L 138.937248 130.360843 
L 139.805309 132.043273 
L 140.673369 122.72261 
L 141.541429 127.130577 
L 142.40949 124.001257 
L 143.27755 126.070646 
L 144.14561 124.52281 
L 145.01367 113.317825 
L 145.881731 120.888761 
L 146.749791 114.394581 
L 147.617851 121.864571 
L 149.353972 116.3462 
L 151.090092 127.500712 
L 151.958153 118.903493 
L 152.826213 115.774173 
L 153.694273 118.869845 
L 154.562333 119.256804 
L 155.430394 124.926594 
L 156.298454 125.952876 
L 158.902635 108.977155 
L 159.770695 115.218971 
L 160.638755 117.742617 
L 161.506816 116.93505 
L 162.374876 113.031812 
L 163.242936 117.658495 
L 164.110997 121.51126 
L 164.979057 110.390397 
L 165.847117 109.801546 
L 166.715177 114.798364 
L 167.583238 117.877211 
L 168.451298 119.862479 
L 169.319358 116.110659 
L 170.187419 115.151674 
L 171.055479 111.921408 
L 171.923539 114.394581 
L 172.791599 108.590197 
L 173.65966 111.736341 
L 174.52772 113.772081 
L 175.39578 107.950873 
L 176.263841 106.806821 
L 177.999961 109.852019 
L 178.868021 108.674318 
L 179.736082 107.092834 
L 180.604142 107.597563 
L 181.472202 102.297908 
L 182.340263 107.479793 
L 183.208323 113.788906 
L 184.076383 108.960331 
L 184.944443 106.285267 
L 185.812504 106.823645 
L 186.680564 106.369389 
L 187.548624 103.071826 
L 188.416684 107.025536 
L 189.284745 100.295816 
L 190.152805 106.268443 
L 191.020865 103.307366 
L 191.888926 98.663858 
L 192.756986 105.679592 
L 193.625046 103.055001 
L 194.493106 101.793179 
L 195.361167 103.357839 
L 196.229227 103.509257 
L 197.097287 99.521898 
L 197.965348 99.84156 
L 198.833408 99.95933 
L 200.569528 96.644942 
L 201.437589 103.761622 
L 202.305649 97.704873 
L 203.173709 96.914131 
L 204.04177 99.875208 
L 204.90983 101.237977 
L 205.77789 99.757438 
L 206.64595 101.221152 
L 207.514011 96.241159 
L 208.382071 95.298998 
L 209.250131 97.031901 
L 210.118192 100.295816 
L 210.986252 94.491432 
L 211.854312 94.659675 
L 212.722372 95.871024 
L 213.590433 94.710148 
L 214.458493 97.099198 
L 215.326553 95.029809 
L 216.194614 94.239067 
L 217.062674 94.205418 
L 217.930734 92.758529 
L 218.798794 93.07819 
L 219.666855 94.508256 
L 220.534915 92.37157 
L 221.402975 93.700689 
L 222.271035 93.145487 
L 223.139096 92.186502 
L 224.007156 92.573461 
L 224.875216 93.633392 
L 225.743277 132.22834 
L 226.611337 122.974975 
L 227.479397 133.43969 
L 228.347457 114.209513 
L 229.215518 124.505986 
L 230.083578 124.691053 
L 230.951638 114.394581 
L 231.819699 124.40504 
L 232.687759 121.780449 
L 233.555819 114.209513 
L 234.423879 120.80464 
L 235.29194 119.980249 
L 236.16 120.956058 
L 237.02806 112.880393 
L 237.896121 112.813096 
L 238.764181 118.869845 
L 239.632241 111.164315 
L 240.500301 114.562824 
L 241.368362 120.013897 
L 242.236422 122.436597 
L 243.104482 112.426137 
L 243.972543 115.387214 
L 244.840603 119.492344 
L 245.708663 110.457694 
L 246.576723 116.951874 
L 247.444784 115.875119 
L 248.312844 121.27572 
L 249.180904 111.76999 
L 250.048965 110.710059 
L 250.917025 113.166407 
L 251.785085 111.399855 
L 252.653145 117.708968 
L 253.521206 125.633214 
L 254.389266 116.093835 
L 255.257326 118.129576 
L 256.125386 109.58283 
L 256.993447 113.267352 
L 257.861507 113.856203 
L 258.729567 107.816279 
L 259.597628 113.031812 
L 260.465688 109.852019 
L 261.333748 110.79418 
L 262.201808 110.996072 
L 263.069869 115.690052 
L 263.937929 118.180049 
L 264.805989 117.473428 
L 265.67405 109.128574 
L 266.54211 113.704784 
L 267.41017 122.167408 
L 268.27823 113.671136 
L 270.014351 107.395671 
L 270.882411 118.079103 
L 271.750472 111.584922 
L 272.618532 101.826827 
L 273.486592 107.109658 
L 274.354652 104.501891 
L 275.222713 113.637487 
L 276.090773 111.012896 
L 276.958833 114.613297 
L 277.826894 107.261077 
L 278.694954 116.413497 
L 279.563014 115.303093 
L 280.431074 113.772081 
L 281.299135 107.042361 
L 282.167195 108.640669 
L 283.035255 111.971881 
L 283.903316 104.939323 
L 284.771376 105.763714 
L 285.639436 117.288361 
L 286.507496 104.485067 
L 287.375557 105.174863 
L 288.243617 108.977155 
L 289.111677 108.489251 
L 289.979737 111.399855 
L 290.847798 109.852019 
L 291.715858 107.984522 
L 292.583918 101.456693 
L 294.320039 111.702692 
L 295.188099 109.666952 
L 296.056159 102.348381 
L 297.79228 112.981339 
L 299.528401 102.449326 
L 300.396461 107.883576 
L 301.264521 101.927773 
L 302.132581 105.023445 
L 303.000642 103.08865 
L 303.868702 104.131757 
L 304.736762 104.922499 
L 305.604823 108.371481 
L 306.472883 109.128574 
L 307.340943 106.049727 
L 308.209003 98.041359 
L 309.077064 110.827829 
L 309.945124 100.800545 
L 310.813184 107.849927 
L 311.681245 107.631211 
L 312.549305 105.174863 
L 313.417365 104.249527 
L 314.285425 102.264259 
L 315.153486 107.54709 
L 316.889606 100.649126 
L 317.757667 102.785812 
L 318.625727 99.656492 
L 319.493787 101.153855 
L 320.361847 103.492433 
L 321.229908 104.972972 
L 322.097968 110.575464 
L 322.966028 103.761622 
L 323.834088 103.946689 
L 324.702149 102.802637 
L 325.570209 104.88885 
L 326.438269 100.009803 
L 327.30633 100.009803 
L 328.17439 103.374663 
L 329.04245 100.918315 
L 329.91051 107.614387 
L 330.778571 96.577645 
L 332.514691 103.458784 
L 333.382752 98.899399 
L 334.250812 103.038177 
L 335.118872 100.060276 
L 335.986932 99.656492 
L 336.854993 100.480883 
L 337.723053 99.202236 
L 338.591113 100.632302 
L 339.459174 101.742706 
L 340.327234 96.745888 
L 342.063354 99.925681 
L 342.931415 98.142305 
L 343.799475 99.84156 
L 344.667535 102.297908 
L 345.535596 100.093924 
L 346.403656 96.846834 
L 347.271716 99.118115 
L 348.139776 101.978246 
L 349.007837 100.615477 
L 349.875897 96.661767 
L 350.743957 95.416768 
L 351.612018 99.488249 
L 352.480078 96.224335 
L 353.348138 99.168588 
L 354.216198 96.173862 
L 355.084259 95.719606 
L 355.952319 96.358929 
L 356.820379 99.892032 
L 357.688439 94.811093 
L 358.5565 97.149671 
L 360.29262 97.402036 
L 361.160681 98.478791 
L 362.028741 99.875208 
L 362.896801 96.779537 
L 363.764861 94.222243 
L 364.632922 93.515622 
L 365.500982 95.332647 
L 366.369042 94.390486 
L 367.237103 93.953054 
L 368.105163 93.683865 
L 368.973223 95.702781 
L 369.841283 93.280082 
L 370.709344 94.255891 
L 371.577404 94.424134 
L 372.445464 93.81846 
L 373.313525 96.375753 
L 375.049645 92.674407 
L 375.917705 92.859474 
L 376.785766 90.975153 
L 377.653826 93.566095 
L 378.521886 94.205418 
L 379.389947 93.263258 
L 380.258007 93.549271 
L 381.994127 95.702781 
L 382.862188 94.726972 
L 383.730248 94.457783 
L 384.598308 93.734338 
L 385.466368 93.414676 
L 386.334429 94.356837 
L 387.202489 94.912039 
L 388.070549 93.919405 
L 388.93861 92.72488 
L 389.80667 93.246433 
L 390.67473 94.693323 
L 391.54279 93.81846 
L 392.410851 92.253799 
L 393.278911 93.095015 
L 395.015032 93.330555 
L 395.883092 93.179136 
L 396.751152 94.340013 
L 397.619212 93.868932 
L 398.487273 94.693323 
L 398.487273 94.693323 
" style="fill:none;stroke:#2ca02c;stroke-linecap:square;stroke-width:1.5;"/>
   </g>
   <g id="line2d_22">
    <path clip-path="url(#pb82afb4f7f)" d="M 73.832727 288.327577 
L 74.700788 286.281742 
L 75.568848 287.240727 
L 76.436908 283.085125 
L 77.304968 284.427704 
L 78.173029 284.267873 
L 79.041089 286.057979 
L 79.909149 283.884279 
L 80.77721 282.637598 
L 81.64527 277.267281 
L 82.51333 278.386097 
L 83.38139 279.792609 
L 84.249451 276.148465 
L 85.117511 274.294427 
L 85.985571 270.937979 
L 86.853632 270.778148 
L 87.721692 275.445209 
L 88.589752 268.444617 
L 89.457812 269.531467 
L 90.325873 269.691298 
L 91.193933 265.631594 
L 92.061993 265.248 
L 92.930053 262.083349 
L 93.798114 263.617725 
L 94.666174 260.229311 
L 95.534234 272.408423 
L 96.402295 274.678021 
L 97.270355 273.01578 
L 98.138415 277.299247 
L 99.006475 276.500093 
L 99.874536 271.960896 
L 100.742596 273.303476 
L 101.610656 270.714216 
L 102.478717 272.280558 
L 103.346777 264.704575 
L 104.214837 268.540516 
L 105.082897 266.270918 
L 105.950958 266.015188 
L 106.819018 261.316161 
L 107.687078 258.726901 
L 108.555139 259.366224 
L 109.423199 257.256457 
L 110.291259 257.032693 
L 111.159319 257.799882 
L 112.02738 252.589395 
L 112.89544 259.909649 
L 113.7635 255.082757 
L 114.631561 251.63041 
L 115.499621 254.667197 
L 116.367681 251.118951 
L 117.235741 249.840304 
L 118.103802 244.374089 
L 118.971862 246.196161 
L 119.839922 248.945252 
L 120.707982 243.702799 
L 121.576043 249.137049 
L 122.444103 246.547789 
L 123.312163 241.912693 
L 124.180224 243.734765 
L 125.048284 243.638867 
L 125.916344 240.442249 
L 126.784404 243.319205 
L 127.652465 236.798106 
L 128.520525 239.834892 
L 129.388585 235.199797 
L 130.256646 237.565294 
L 131.124706 237.1817 
L 131.992766 232.898233 
L 132.860826 235.231763 
L 133.728887 234.049015 
L 134.596947 235.998951 
L 135.465007 235.135865 
L 136.333068 234.656372 
L 137.201128 233.601488 
L 138.069188 235.103899 
L 138.937248 256.776964 
L 139.805309 258.055611 
L 140.673369 253.452482 
L 141.541429 252.461531 
L 142.40949 258.023645 
L 143.27755 254.89096 
L 144.14561 252.397598 
L 145.01367 258.119543 
L 145.881731 254.89096 
L 146.749791 250.703391 
L 147.617851 255.913877 
L 148.485912 238.939839 
L 149.353972 249.200981 
L 150.222032 248.146097 
L 151.090092 244.917514 
L 151.958153 244.917514 
L 152.826213 245.460939 
L 153.694273 245.62077 
L 154.562333 245.333074 
L 155.430394 252.173835 
L 156.298454 245.556837 
L 157.166514 248.593624 
L 158.034575 246.260093 
L 158.902635 247.698571 
L 159.770695 238.971805 
L 160.638755 233.537556 
L 161.506816 247.027281 
L 162.374876 247.155146 
L 163.242936 245.205209 
L 164.110997 240.729945 
L 164.979057 242.424152 
L 165.847117 235.359628 
L 166.715177 244.885548 
L 167.583238 247.314977 
L 168.451298 234.752271 
L 169.319358 236.062884 
L 170.187419 228.550833 
L 171.055479 240.889776 
L 172.791599 227.751679 
L 173.65966 235.966985 
L 174.52772 235.327662 
L 175.39578 236.606309 
L 176.263841 233.601488 
L 177.131901 235.839121 
L 177.999961 237.021869 
L 178.868021 234.144913 
L 179.736082 230.820431 
L 180.604142 229.222123 
L 181.472202 228.486901 
L 182.340263 235.327662 
L 183.208323 230.692567 
L 184.076383 230.468803 
L 184.944443 234.144913 
L 185.812504 227.080389 
L 186.680564 224.874723 
L 187.548624 225.386182 
L 188.416684 222.860854 
L 189.284745 217.170875 
L 190.152805 232.163011 
L 191.020865 225.801742 
L 191.888926 214.134089 
L 192.756986 228.199205 
L 193.625046 218.065928 
L 194.493106 223.084617 
L 195.361167 225.034554 
L 196.229227 220.111763 
L 197.097287 223.468211 
L 197.965348 218.577387 
L 198.833408 218.417556 
L 199.701468 223.723941 
L 200.569528 220.910918 
L 201.437589 209.243264 
L 202.305649 217.938063 
L 203.173709 213.878359 
L 204.04177 215.220939 
L 204.90983 216.21189 
L 205.77789 215.093074 
L 206.64595 212.12022 
L 207.514011 214.805378 
L 208.382071 216.435653 
L 209.250131 213.047239 
L 210.118192 217.490537 
L 210.986252 211.640727 
L 211.854312 212.056288 
L 212.722372 216.275822 
L 214.458493 212.695611 
L 215.326553 212.53578 
L 216.194614 208.763772 
L 217.062674 203.745082 
L 217.930734 210.138317 
L 218.798794 211.384998 
L 219.666855 210.873539 
L 220.534915 205.055696 
L 221.402975 211.065336 
L 222.271035 210.969438 
L 223.139096 211.225167 
L 224.007156 207.453159 
L 224.875216 206.334342 
L 225.743277 260.548973 
L 226.611337 252.205801 
L 227.479397 251.342715 
L 228.347457 245.460939 
L 229.215518 249.776372 
L 230.083578 255.498317 
L 230.951638 241.68893 
L 231.819699 250.831256 
L 232.687759 241.880727 
L 233.555819 239.643095 
L 234.423879 252.333666 
L 235.29194 240.250452 
L 236.16 240.410283 
L 237.02806 243.415104 
L 237.896121 244.342123 
L 238.764181 243.894596 
L 239.632241 241.465167 
L 240.500301 244.054427 
L 241.368362 241.848761 
L 242.236422 250.159966 
L 243.104482 245.684702 
L 243.972543 248.977218 
L 244.840603 236.957937 
L 245.708663 237.725125 
L 246.576723 238.01282 
L 247.444784 238.780008 
L 248.312844 246.164195 
L 249.180904 242.77578 
L 250.048965 234.368677 
L 250.917025 236.894004 
L 251.785085 245.588803 
L 252.653145 241.337302 
L 253.521206 234.752271 
L 254.389266 238.396414 
L 255.257326 242.839712 
L 256.125386 239.643095 
L 257.861507 240.634047 
L 258.729567 242.168423 
L 259.597628 237.725125 
L 260.465688 237.277598 
L 261.333748 234.464575 
L 262.201808 234.112947 
L 263.069869 239.067704 
L 263.937929 239.962757 
L 264.805989 243.574934 
L 265.67405 234.144913 
L 266.54211 233.953116 
L 267.41017 242.232355 
L 268.27823 237.884956 
L 269.146291 235.711256 
L 270.014351 237.149734 
L 270.882411 236.286647 
L 271.750472 231.395822 
L 272.618532 229.861446 
L 273.486592 242.999543 
L 274.354652 232.386774 
L 275.222713 234.368677 
L 276.090773 240.058655 
L 276.958833 235.359628 
L 278.694954 240.889776 
L 279.563014 238.652144 
L 280.431074 235.647323 
L 281.299135 235.391594 
L 282.167195 235.966985 
L 283.035255 230.277006 
L 283.903316 237.341531 
L 284.771376 235.903053 
L 285.639436 237.916922 
L 286.507496 229.733581 
L 287.375557 231.74745 
L 289.111677 235.071932 
L 289.979737 230.213074 
L 290.847798 235.519459 
L 291.715858 232.898233 
L 292.583918 236.734173 
L 293.451979 234.464575 
L 294.320039 230.50077 
L 295.188099 229.222123 
L 296.056159 231.33189 
L 296.92422 226.409099 
L 297.79228 227.080389 
L 298.66034 225.290283 
L 299.528401 233.24986 
L 300.396461 231.044195 
L 301.264521 230.149142 
L 302.132581 232.930199 
L 303.000642 223.084617 
L 303.868702 231.33189 
L 304.736762 234.880135 
L 305.604823 225.48208 
L 306.472883 229.062292 
L 307.340943 235.998951 
L 308.209003 228.678698 
L 309.077064 229.094258 
L 309.945124 225.386182 
L 310.813184 227.208254 
L 311.681245 227.176288 
L 312.549305 226.600896 
L 313.417365 227.208254 
L 314.285425 216.499586 
L 315.153486 226.856626 
L 316.021546 220.942884 
L 316.889606 222.860854 
L 317.757667 217.394638 
L 318.625727 229.381953 
L 319.493787 222.796922 
L 320.361847 223.660008 
L 321.229908 226.473032 
L 322.097968 217.97003 
L 322.966028 226.281235 
L 323.834088 227.463983 
L 324.702149 223.56411 
L 325.570209 227.495949 
L 326.438269 216.21189 
L 327.30633 224.523095 
L 328.17439 222.764956 
L 329.04245 223.691975 
L 329.91051 225.577979 
L 330.778571 224.459163 
L 331.646631 221.80597 
L 332.514691 226.121404 
L 333.382752 225.514047 
L 334.250812 224.555061 
L 335.118872 220.399459 
L 335.986932 220.143729 
L 336.854993 222.796922 
L 337.723053 228.902461 
L 338.591113 223.052651 
L 339.459174 224.746858 
L 342.063354 213.047239 
L 342.931415 215.668465 
L 343.799475 220.143729 
L 344.667535 217.266774 
L 345.535596 218.417556 
L 346.403656 216.851214 
L 347.271716 218.225759 
L 348.139776 222.0617 
L 349.007837 215.12504 
L 349.875897 212.375949 
L 350.743957 218.897049 
L 351.612018 213.175104 
L 352.480078 218.001996 
L 353.348138 215.5406 
L 354.216198 217.746266 
L 355.084259 217.906097 
L 355.952319 212.343983 
L 356.820379 211.896457 
L 357.688439 213.015273 
L 358.5565 206.078613 
L 359.42456 213.686562 
L 360.29262 214.198021 
L 361.160681 215.348803 
L 362.028741 208.987535 
L 362.896801 212.471848 
L 363.764861 213.942292 
L 364.632922 204.288507 
L 365.500982 210.585844 
L 366.369042 209.850622 
L 367.237103 214.03819 
L 368.105163 209.53096 
L 368.973223 207.197429 
L 369.841283 211.512863 
L 370.709344 209.594892 
L 371.577404 210.457979 
L 372.445464 203.169691 
L 374.181585 211.576795 
L 375.049645 205.695019 
L 375.917705 210.106351 
L 376.785766 209.914554 
L 377.653826 207.069564 
L 378.521886 207.229395 
L 379.389947 206.749903 
L 380.258007 209.658825 
L 381.126067 203.233624 
L 381.994127 205.567154 
L 382.862188 204.35244 
L 383.730248 204.288507 
L 384.598308 206.174512 
L 385.466368 206.622038 
L 386.334429 205.151594 
L 387.202489 207.261362 
L 388.070549 205.982715 
L 388.93861 202.658233 
L 389.80667 208.923603 
L 390.67473 203.936879 
L 391.54279 204.416372 
L 392.410851 205.695019 
L 393.278911 204.895865 
L 394.146971 205.343391 
L 395.015032 203.329522 
L 395.883092 206.334342 
L 396.751152 208.603941 
L 397.619212 205.311425 
L 398.487273 206.462207 
L 398.487273 206.462207 
" style="fill:none;stroke:#d62728;stroke-linecap:square;stroke-width:1.5;"/>
   </g>
   <g id="patch_3">
    <path d="M 57.6 307.584 
L 57.6 41.472 
" style="fill:none;stroke:#000000;stroke-linecap:square;stroke-linejoin:miter;stroke-width:0.8;"/>
   </g>
   <g id="patch_4">
    <path d="M 414.72 307.584 
L 414.72 41.472 
" style="fill:none;stroke:#000000;stroke-linecap:square;stroke-linejoin:miter;stroke-width:0.8;"/>
   </g>
   <g id="patch_5">
    <path d="M 57.6 307.584 
L 414.72 307.584 
" style="fill:none;stroke:#000000;stroke-linecap:square;stroke-linejoin:miter;stroke-width:0.8;"/>
   </g>
   <g id="patch_6">
    <path d="M 57.6 41.472 
L 414.72 41.472 
" style="fill:none;stroke:#000000;stroke-linecap:square;stroke-linejoin:miter;stroke-width:0.8;"/>
   </g>
   <g id="text_21">
    <!-- Training and Validation Accuracy -->
    <g transform="translate(138.4575 35.472)scale(0.12 -0.12)">
     <defs>
      <path d="M -19 4666 
L 3928 4666 
L 3928 4134 
L 2272 4134 
L 2272 0 
L 1638 0 
L 1638 4134 
L -19 4134 
L -19 4666 
z
" id="DejaVuSans-54" transform="scale(0.015625)"/>
      <path d="M 603 3500 
L 1178 3500 
L 1178 0 
L 603 0 
L 603 3500 
z
M 603 4863 
L 1178 4863 
L 1178 4134 
L 603 4134 
L 603 4863 
z
" id="DejaVuSans-69" transform="scale(0.015625)"/>
      <path d="M 3513 2113 
L 3513 0 
L 2938 0 
L 2938 2094 
Q 2938 2591 2744 2837 
Q 2550 3084 2163 3084 
Q 1697 3084 1428 2787 
Q 1159 2491 1159 1978 
L 1159 0 
L 581 0 
L 581 3500 
L 1159 3500 
L 1159 2956 
Q 1366 3272 1645 3428 
Q 1925 3584 2291 3584 
Q 2894 3584 3203 3211 
Q 3513 2838 3513 2113 
z
" id="DejaVuSans-6e" transform="scale(0.015625)"/>
      <path d="M 2906 1791 
Q 2906 2416 2648 2759 
Q 2391 3103 1925 3103 
Q 1463 3103 1205 2759 
Q 947 2416 947 1791 
Q 947 1169 1205 825 
Q 1463 481 1925 481 
Q 2391 481 2648 825 
Q 2906 1169 2906 1791 
z
M 3481 434 
Q 3481 -459 3084 -895 
Q 2688 -1331 1869 -1331 
Q 1566 -1331 1297 -1286 
Q 1028 -1241 775 -1147 
L 775 -588 
Q 1028 -725 1275 -790 
Q 1522 -856 1778 -856 
Q 2344 -856 2625 -561 
Q 2906 -266 2906 331 
L 2906 616 
Q 2728 306 2450 153 
Q 2172 0 1784 0 
Q 1141 0 747 490 
Q 353 981 353 1791 
Q 353 2603 747 3093 
Q 1141 3584 1784 3584 
Q 2172 3584 2450 3431 
Q 2728 3278 2906 2969 
L 2906 3500 
L 3481 3500 
L 3481 434 
z
" id="DejaVuSans-67" transform="scale(0.015625)"/>
      <path id="DejaVuSans-20" transform="scale(0.015625)"/>
      <path d="M 2906 2969 
L 2906 4863 
L 3481 4863 
L 3481 0 
L 2906 0 
L 2906 525 
Q 2725 213 2448 61 
Q 2172 -91 1784 -91 
Q 1150 -91 751 415 
Q 353 922 353 1747 
Q 353 2572 751 3078 
Q 1150 3584 1784 3584 
Q 2172 3584 2448 3432 
Q 2725 3281 2906 2969 
z
M 947 1747 
Q 947 1113 1208 752 
Q 1469 391 1925 391 
Q 2381 391 2643 752 
Q 2906 1113 2906 1747 
Q 2906 2381 2643 2742 
Q 2381 3103 1925 3103 
Q 1469 3103 1208 2742 
Q 947 2381 947 1747 
z
" id="DejaVuSans-64" transform="scale(0.015625)"/>
      <path d="M 1831 0 
L 50 4666 
L 709 4666 
L 2188 738 
L 3669 4666 
L 4325 4666 
L 2547 0 
L 1831 0 
z
" id="DejaVuSans-56" transform="scale(0.015625)"/>
      <path d="M 603 4863 
L 1178 4863 
L 1178 0 
L 603 0 
L 603 4863 
z
" id="DejaVuSans-6c" transform="scale(0.015625)"/>
      <path d="M 1172 4494 
L 1172 3500 
L 2356 3500 
L 2356 3053 
L 1172 3053 
L 1172 1153 
Q 1172 725 1289 603 
Q 1406 481 1766 481 
L 2356 481 
L 2356 0 
L 1766 0 
Q 1100 0 847 248 
Q 594 497 594 1153 
L 594 3053 
L 172 3053 
L 172 3500 
L 594 3500 
L 594 4494 
L 1172 4494 
z
" id="DejaVuSans-74" transform="scale(0.015625)"/>
     </defs>
     <use xlink:href="#DejaVuSans-54"/>
     <use x="46.333984" xlink:href="#DejaVuSans-72"/>
     <use x="87.447266" xlink:href="#DejaVuSans-61"/>
     <use x="148.726562" xlink:href="#DejaVuSans-69"/>
     <use x="176.509766" xlink:href="#DejaVuSans-6e"/>
     <use x="239.888672" xlink:href="#DejaVuSans-69"/>
     <use x="267.671875" xlink:href="#DejaVuSans-6e"/>
     <use x="331.050781" xlink:href="#DejaVuSans-67"/>
     <use x="394.527344" xlink:href="#DejaVuSans-20"/>
     <use x="426.314453" xlink:href="#DejaVuSans-61"/>
     <use x="487.59375" xlink:href="#DejaVuSans-6e"/>
     <use x="550.972656" xlink:href="#DejaVuSans-64"/>
     <use x="614.449219" xlink:href="#DejaVuSans-20"/>
     <use x="646.236328" xlink:href="#DejaVuSans-56"/>
     <use x="706.894531" xlink:href="#DejaVuSans-61"/>
     <use x="768.173828" xlink:href="#DejaVuSans-6c"/>
     <use x="795.957031" xlink:href="#DejaVuSans-69"/>
     <use x="823.740234" xlink:href="#DejaVuSans-64"/>
     <use x="887.216797" xlink:href="#DejaVuSans-61"/>
     <use x="948.496094" xlink:href="#DejaVuSans-74"/>
     <use x="987.705078" xlink:href="#DejaVuSans-69"/>
     <use x="1015.488281" xlink:href="#DejaVuSans-6f"/>
     <use x="1076.669922" xlink:href="#DejaVuSans-6e"/>
     <use x="1140.048828" xlink:href="#DejaVuSans-20"/>
     <use x="1171.835938" xlink:href="#DejaVuSans-41"/>
     <use x="1238.494141" xlink:href="#DejaVuSans-63"/>
     <use x="1293.474609" xlink:href="#DejaVuSans-63"/>
     <use x="1348.455078" xlink:href="#DejaVuSans-75"/>
     <use x="1411.833984" xlink:href="#DejaVuSans-72"/>
     <use x="1452.947266" xlink:href="#DejaVuSans-61"/>
     <use x="1514.226562" xlink:href="#DejaVuSans-63"/>
     <use x="1569.207031" xlink:href="#DejaVuSans-79"/>
    </g>
   </g>
   <g id="legend_1">
    <g id="patch_7">
     <path d="M 141.298281 205.38425 
L 331.021719 205.38425 
Q 333.021719 205.38425 333.021719 203.38425 
L 333.021719 145.67175 
Q 333.021719 143.67175 331.021719 143.67175 
L 141.298281 143.67175 
Q 139.298281 143.67175 139.298281 145.67175 
L 139.298281 203.38425 
Q 139.298281 205.38425 141.298281 205.38425 
z
" style="fill:#ffffff;opacity:0.8;stroke:#cccccc;stroke-linejoin:miter;"/>
    </g>
    <g id="line2d_23">
     <path d="M 143.298281 151.770188 
L 163.298281 151.770188 
" style="fill:none;stroke:#1f77b4;stroke-linecap:square;stroke-width:1.5;"/>
    </g>
    <g id="line2d_24"/>
    <g id="text_22">
     <!-- Train Accuracy -->
     <g transform="translate(171.298281 155.270188)scale(0.1 -0.1)">
      <use xlink:href="#DejaVuSans-54"/>
      <use x="46.333984" xlink:href="#DejaVuSans-72"/>
      <use x="87.447266" xlink:href="#DejaVuSans-61"/>
      <use x="148.726562" xlink:href="#DejaVuSans-69"/>
      <use x="176.509766" xlink:href="#DejaVuSans-6e"/>
      <use x="239.888672" xlink:href="#DejaVuSans-20"/>
      <use x="271.675781" xlink:href="#DejaVuSans-41"/>
      <use x="338.333984" xlink:href="#DejaVuSans-63"/>
      <use x="393.314453" xlink:href="#DejaVuSans-63"/>
      <use x="448.294922" xlink:href="#DejaVuSans-75"/>
      <use x="511.673828" xlink:href="#DejaVuSans-72"/>
      <use x="552.787109" xlink:href="#DejaVuSans-61"/>
      <use x="614.066406" xlink:href="#DejaVuSans-63"/>
      <use x="669.046875" xlink:href="#DejaVuSans-79"/>
     </g>
    </g>
    <g id="line2d_25">
     <path d="M 143.298281 166.448313 
L 163.298281 166.448313 
" style="fill:none;stroke:#ff7f0e;stroke-linecap:square;stroke-width:1.5;"/>
    </g>
    <g id="line2d_26"/>
    <g id="text_23">
     <!-- Validation Accuracy -->
     <g transform="translate(171.298281 169.948313)scale(0.1 -0.1)">
      <use xlink:href="#DejaVuSans-56"/>
      <use x="60.658203" xlink:href="#DejaVuSans-61"/>
      <use x="121.9375" xlink:href="#DejaVuSans-6c"/>
      <use x="149.720703" xlink:href="#DejaVuSans-69"/>
      <use x="177.503906" xlink:href="#DejaVuSans-64"/>
      <use x="240.980469" xlink:href="#DejaVuSans-61"/>
      <use x="302.259766" xlink:href="#DejaVuSans-74"/>
      <use x="341.46875" xlink:href="#DejaVuSans-69"/>
      <use x="369.251953" xlink:href="#DejaVuSans-6f"/>
      <use x="430.433594" xlink:href="#DejaVuSans-6e"/>
      <use x="493.8125" xlink:href="#DejaVuSans-20"/>
      <use x="525.599609" xlink:href="#DejaVuSans-41"/>
      <use x="592.257812" xlink:href="#DejaVuSans-63"/>
      <use x="647.238281" xlink:href="#DejaVuSans-63"/>
      <use x="702.21875" xlink:href="#DejaVuSans-75"/>
      <use x="765.597656" xlink:href="#DejaVuSans-72"/>
      <use x="806.710938" xlink:href="#DejaVuSans-61"/>
      <use x="867.990234" xlink:href="#DejaVuSans-63"/>
      <use x="922.970703" xlink:href="#DejaVuSans-79"/>
     </g>
    </g>
    <g id="line2d_27">
     <path d="M 143.298281 181.126438 
L 163.298281 181.126438 
" style="fill:none;stroke:#2ca02c;stroke-linecap:square;stroke-width:1.5;"/>
    </g>
    <g id="line2d_28"/>
    <g id="text_24">
     <!-- Robust Validation Accuracy -->
     <g transform="translate(171.298281 184.626438)scale(0.1 -0.1)">
      <defs>
       <path d="M 2841 2188 
Q 3044 2119 3236 1894 
Q 3428 1669 3622 1275 
L 4263 0 
L 3584 0 
L 2988 1197 
Q 2756 1666 2539 1819 
Q 2322 1972 1947 1972 
L 1259 1972 
L 1259 0 
L 628 0 
L 628 4666 
L 2053 4666 
Q 2853 4666 3247 4331 
Q 3641 3997 3641 3322 
Q 3641 2881 3436 2590 
Q 3231 2300 2841 2188 
z
M 1259 4147 
L 1259 2491 
L 2053 2491 
Q 2509 2491 2742 2702 
Q 2975 2913 2975 3322 
Q 2975 3731 2742 3939 
Q 2509 4147 2053 4147 
L 1259 4147 
z
" id="DejaVuSans-52" transform="scale(0.015625)"/>
       <path d="M 3116 1747 
Q 3116 2381 2855 2742 
Q 2594 3103 2138 3103 
Q 1681 3103 1420 2742 
Q 1159 2381 1159 1747 
Q 1159 1113 1420 752 
Q 1681 391 2138 391 
Q 2594 391 2855 752 
Q 3116 1113 3116 1747 
z
M 1159 2969 
Q 1341 3281 1617 3432 
Q 1894 3584 2278 3584 
Q 2916 3584 3314 3078 
Q 3713 2572 3713 1747 
Q 3713 922 3314 415 
Q 2916 -91 2278 -91 
Q 1894 -91 1617 61 
Q 1341 213 1159 525 
L 1159 0 
L 581 0 
L 581 4863 
L 1159 4863 
L 1159 2969 
z
" id="DejaVuSans-62" transform="scale(0.015625)"/>
      </defs>
      <use xlink:href="#DejaVuSans-52"/>
      <use x="64.982422" xlink:href="#DejaVuSans-6f"/>
      <use x="126.164062" xlink:href="#DejaVuSans-62"/>
      <use x="189.640625" xlink:href="#DejaVuSans-75"/>
      <use x="253.019531" xlink:href="#DejaVuSans-73"/>
      <use x="305.119141" xlink:href="#DejaVuSans-74"/>
      <use x="344.328125" xlink:href="#DejaVuSans-20"/>
      <use x="376.115234" xlink:href="#DejaVuSans-56"/>
      <use x="436.773438" xlink:href="#DejaVuSans-61"/>
      <use x="498.052734" xlink:href="#DejaVuSans-6c"/>
      <use x="525.835938" xlink:href="#DejaVuSans-69"/>
      <use x="553.619141" xlink:href="#DejaVuSans-64"/>
      <use x="617.095703" xlink:href="#DejaVuSans-61"/>
      <use x="678.375" xlink:href="#DejaVuSans-74"/>
      <use x="717.583984" xlink:href="#DejaVuSans-69"/>
      <use x="745.367188" xlink:href="#DejaVuSans-6f"/>
      <use x="806.548828" xlink:href="#DejaVuSans-6e"/>
      <use x="869.927734" xlink:href="#DejaVuSans-20"/>
      <use x="901.714844" xlink:href="#DejaVuSans-41"/>
      <use x="968.373047" xlink:href="#DejaVuSans-63"/>
      <use x="1023.353516" xlink:href="#DejaVuSans-63"/>
      <use x="1078.333984" xlink:href="#DejaVuSans-75"/>
      <use x="1141.712891" xlink:href="#DejaVuSans-72"/>
      <use x="1182.826172" xlink:href="#DejaVuSans-61"/>
      <use x="1244.105469" xlink:href="#DejaVuSans-63"/>
      <use x="1299.085938" xlink:href="#DejaVuSans-79"/>
     </g>
    </g>
    <g id="line2d_29">
     <path d="M 143.298281 195.804563 
L 163.298281 195.804563 
" style="fill:none;stroke:#d62728;stroke-linecap:square;stroke-width:1.5;"/>
    </g>
    <g id="line2d_30"/>
    <g id="text_25">
     <!-- Adversarial Validation Accuracy -->
     <g transform="translate(171.298281 199.304563)scale(0.1 -0.1)">
      <defs>
       <path d="M 191 3500 
L 800 3500 
L 1894 563 
L 2988 3500 
L 3597 3500 
L 2284 0 
L 1503 0 
L 191 3500 
z
" id="DejaVuSans-76" transform="scale(0.015625)"/>
       <path d="M 3597 1894 
L 3597 1613 
L 953 1613 
Q 991 1019 1311 708 
Q 1631 397 2203 397 
Q 2534 397 2845 478 
Q 3156 559 3463 722 
L 3463 178 
Q 3153 47 2828 -22 
Q 2503 -91 2169 -91 
Q 1331 -91 842 396 
Q 353 884 353 1716 
Q 353 2575 817 3079 
Q 1281 3584 2069 3584 
Q 2775 3584 3186 3129 
Q 3597 2675 3597 1894 
z
M 3022 2063 
Q 3016 2534 2758 2815 
Q 2500 3097 2075 3097 
Q 1594 3097 1305 2825 
Q 1016 2553 972 2059 
L 3022 2063 
z
" id="DejaVuSans-65" transform="scale(0.015625)"/>
      </defs>
      <use xlink:href="#DejaVuSans-41"/>
      <use x="66.658203" xlink:href="#DejaVuSans-64"/>
      <use x="130.134766" xlink:href="#DejaVuSans-76"/>
      <use x="189.314453" xlink:href="#DejaVuSans-65"/>
      <use x="250.837891" xlink:href="#DejaVuSans-72"/>
      <use x="291.951172" xlink:href="#DejaVuSans-73"/>
      <use x="344.050781" xlink:href="#DejaVuSans-61"/>
      <use x="405.330078" xlink:href="#DejaVuSans-72"/>
      <use x="446.443359" xlink:href="#DejaVuSans-69"/>
      <use x="474.226562" xlink:href="#DejaVuSans-61"/>
      <use x="535.505859" xlink:href="#DejaVuSans-6c"/>
      <use x="563.289062" xlink:href="#DejaVuSans-20"/>
      <use x="595.076172" xlink:href="#DejaVuSans-56"/>
      <use x="655.734375" xlink:href="#DejaVuSans-61"/>
      <use x="717.013672" xlink:href="#DejaVuSans-6c"/>
      <use x="744.796875" xlink:href="#DejaVuSans-69"/>
      <use x="772.580078" xlink:href="#DejaVuSans-64"/>
      <use x="836.056641" xlink:href="#DejaVuSans-61"/>
      <use x="897.335938" xlink:href="#DejaVuSans-74"/>
      <use x="936.544922" xlink:href="#DejaVuSans-69"/>
      <use x="964.328125" xlink:href="#DejaVuSans-6f"/>
      <use x="1025.509766" xlink:href="#DejaVuSans-6e"/>
      <use x="1088.888672" xlink:href="#DejaVuSans-20"/>
      <use x="1120.675781" xlink:href="#DejaVuSans-41"/>
      <use x="1187.333984" xlink:href="#DejaVuSans-63"/>
      <use x="1242.314453" xlink:href="#DejaVuSans-63"/>
      <use x="1297.294922" xlink:href="#DejaVuSans-75"/>
      <use x="1360.673828" xlink:href="#DejaVuSans-72"/>
      <use x="1401.787109" xlink:href="#DejaVuSans-61"/>
      <use x="1463.066406" xlink:href="#DejaVuSans-63"/>
      <use x="1518.046875" xlink:href="#DejaVuSans-79"/>
     </g>
    </g>
   </g>
  </g>
 </g>
 <defs>
  <clipPath id="pb82afb4f7f">
   <rect height="266.112" width="357.12" x="57.6" y="41.472"/>
  </clipPath>
 </defs>
</svg>
