<?xml version="1.0" encoding="utf-8" standalone="no"?>
<!DOCTYPE svg PUBLIC "-//W3C//DTD SVG 1.1//EN"
  "http://www.w3.org/Graphics/SVG/1.1/DTD/svg11.dtd">
<svg xmlns:xlink="http://www.w3.org/1999/xlink" width="460.8pt" height="345.6pt" viewBox="0 0 460.8 345.6" xmlns="http://www.w3.org/2000/svg" version="1.1">
 <metadata>
  <rdf:RDF xmlns:dc="http://purl.org/dc/elements/1.1/" xmlns:cc="http://creativecommons.org/ns#" xmlns:rdf="http://www.w3.org/1999/02/22-rdf-syntax-ns#">
   <cc:Work>
    <dc:type rdf:resource="http://purl.org/dc/dcmitype/StillImage"/>
    <dc:date>2024-08-26T17:03:37.565576</dc:date>
    <dc:format>image/svg+xml</dc:format>
    <dc:creator>
     <cc:Agent>
      <dc:title>Matplotlib v3.9.1, https://matplotlib.org/</dc:title>
     </cc:Agent>
    </dc:creator>
   </cc:Work>
  </rdf:RDF>
 </metadata>
 <defs>
  <style type="text/css">*{stroke-linejoin: round; stroke-linecap: butt}</style>
 </defs>
 <g id="figure_1">
  <g id="patch_1">
   <path d="M 0 345.6 
L 460.8 345.6 
L 460.8 0 
L 0 0 
z
" style="fill: #ffffff"/>
  </g>
  <g id="axes_1">
   <g id="patch_2">
    <path d="M 57.6 307.584 
L 414.72 307.584 
L 414.72 41.472 
L 57.6 41.472 
z
" style="fill: #ffffff"/>
   </g>
   <g id="matplotlib.axis_1">
    <g id="xtick_1">
     <g id="line2d_1">
      <defs>
       <path id="md17ff7d95a" d="M 0 0 
L 0 3.5 
" style="stroke: #000000; stroke-width: 0.8"/>
      </defs>
      <g>
       <use xlink:href="#md17ff7d95a" x="73.832727" y="307.584" style="stroke: #000000; stroke-width: 0.8"/>
      </g>
     </g>
     <g id="text_1">
      <!-- 1 -->
      <g transform="translate(70.651477 322.182437) scale(0.1 -0.1)">
       <defs>
        <path id="DejaVuSans-31" d="M 794 531 
L 1825 531 
L 1825 4091 
L 703 3866 
L 703 4441 
L 1819 4666 
L 2450 4666 
L 2450 531 
L 3481 531 
L 3481 0 
L 794 0 
L 794 531 
z
" transform="scale(0.015625)"/>
       </defs>
       <use xlink:href="#DejaVuSans-31"/>
      </g>
     </g>
    </g>
    <g id="xtick_2">
     <g id="line2d_2">
      <g>
       <use xlink:href="#md17ff7d95a" x="109.262733" y="307.584" style="stroke: #000000; stroke-width: 0.8"/>
      </g>
     </g>
     <g id="text_2">
      <!-- 50 -->
      <g transform="translate(102.900233 322.182437) scale(0.1 -0.1)">
       <defs>
        <path id="DejaVuSans-35" d="M 691 4666 
L 3169 4666 
L 3169 4134 
L 1269 4134 
L 1269 2991 
Q 1406 3038 1543 3061 
Q 1681 3084 1819 3084 
Q 2600 3084 3056 2656 
Q 3513 2228 3513 1497 
Q 3513 744 3044 326 
Q 2575 -91 1722 -91 
Q 1428 -91 1123 -41 
Q 819 9 494 109 
L 494 744 
Q 775 591 1075 516 
Q 1375 441 1709 441 
Q 2250 441 2565 725 
Q 2881 1009 2881 1497 
Q 2881 1984 2565 2268 
Q 2250 2553 1709 2553 
Q 1456 2553 1204 2497 
Q 953 2441 691 2322 
L 691 4666 
z
" transform="scale(0.015625)"/>
        <path id="DejaVuSans-30" d="M 2034 4250 
Q 1547 4250 1301 3770 
Q 1056 3291 1056 2328 
Q 1056 1369 1301 889 
Q 1547 409 2034 409 
Q 2525 409 2770 889 
Q 3016 1369 3016 2328 
Q 3016 3291 2770 3770 
Q 2525 4250 2034 4250 
z
M 2034 4750 
Q 2819 4750 3233 4129 
Q 3647 3509 3647 2328 
Q 3647 1150 3233 529 
Q 2819 -91 2034 -91 
Q 1250 -91 836 529 
Q 422 1150 422 2328 
Q 422 3509 836 4129 
Q 1250 4750 2034 4750 
z
" transform="scale(0.015625)"/>
       </defs>
       <use xlink:href="#DejaVuSans-35"/>
       <use xlink:href="#DejaVuSans-30" x="63.623047"/>
      </g>
     </g>
    </g>
    <g id="xtick_3">
     <g id="line2d_3">
      <g>
       <use xlink:href="#md17ff7d95a" x="145.415801" y="307.584" style="stroke: #000000; stroke-width: 0.8"/>
      </g>
     </g>
     <g id="text_3">
      <!-- 100 -->
      <g transform="translate(135.872051 322.182437) scale(0.1 -0.1)">
       <use xlink:href="#DejaVuSans-31"/>
       <use xlink:href="#DejaVuSans-30" x="63.623047"/>
       <use xlink:href="#DejaVuSans-30" x="127.246094"/>
      </g>
     </g>
    </g>
    <g id="xtick_4">
     <g id="line2d_4">
      <g>
       <use xlink:href="#md17ff7d95a" x="181.568868" y="307.584" style="stroke: #000000; stroke-width: 0.8"/>
      </g>
     </g>
     <g id="text_4">
      <!-- 150 -->
      <g transform="translate(172.025118 322.182437) scale(0.1 -0.1)">
       <use xlink:href="#DejaVuSans-31"/>
       <use xlink:href="#DejaVuSans-35" x="63.623047"/>
       <use xlink:href="#DejaVuSans-30" x="127.246094"/>
      </g>
     </g>
    </g>
    <g id="xtick_5">
     <g id="line2d_5">
      <g>
       <use xlink:href="#md17ff7d95a" x="217.721936" y="307.584" style="stroke: #000000; stroke-width: 0.8"/>
      </g>
     </g>
     <g id="text_5">
      <!-- 200 -->
      <g transform="translate(208.178186 322.182437) scale(0.1 -0.1)">
       <defs>
        <path id="DejaVuSans-32" d="M 1228 531 
L 3431 531 
L 3431 0 
L 469 0 
L 469 531 
Q 828 903 1448 1529 
Q 2069 2156 2228 2338 
Q 2531 2678 2651 2914 
Q 2772 3150 2772 3378 
Q 2772 3750 2511 3984 
Q 2250 4219 1831 4219 
Q 1534 4219 1204 4116 
Q 875 4013 500 3803 
L 500 4441 
Q 881 4594 1212 4672 
Q 1544 4750 1819 4750 
Q 2544 4750 2975 4387 
Q 3406 4025 3406 3419 
Q 3406 3131 3298 2873 
Q 3191 2616 2906 2266 
Q 2828 2175 2409 1742 
Q 1991 1309 1228 531 
z
" transform="scale(0.015625)"/>
       </defs>
       <use xlink:href="#DejaVuSans-32"/>
       <use xlink:href="#DejaVuSans-30" x="63.623047"/>
       <use xlink:href="#DejaVuSans-30" x="127.246094"/>
      </g>
     </g>
    </g>
    <g id="xtick_6">
     <g id="line2d_6">
      <g>
       <use xlink:href="#md17ff7d95a" x="253.875003" y="307.584" style="stroke: #000000; stroke-width: 0.8"/>
      </g>
     </g>
     <g id="text_6">
      <!-- 250 -->
      <g transform="translate(244.331253 322.182437) scale(0.1 -0.1)">
       <use xlink:href="#DejaVuSans-32"/>
       <use xlink:href="#DejaVuSans-35" x="63.623047"/>
       <use xlink:href="#DejaVuSans-30" x="127.246094"/>
      </g>
     </g>
    </g>
    <g id="xtick_7">
     <g id="line2d_7">
      <g>
       <use xlink:href="#md17ff7d95a" x="290.02807" y="307.584" style="stroke: #000000; stroke-width: 0.8"/>
      </g>
     </g>
     <g id="text_7">
      <!-- 300 -->
      <g transform="translate(280.48432 322.182437) scale(0.1 -0.1)">
       <defs>
        <path id="DejaVuSans-33" d="M 2597 2516 
Q 3050 2419 3304 2112 
Q 3559 1806 3559 1356 
Q 3559 666 3084 287 
Q 2609 -91 1734 -91 
Q 1441 -91 1130 -33 
Q 819 25 488 141 
L 488 750 
Q 750 597 1062 519 
Q 1375 441 1716 441 
Q 2309 441 2620 675 
Q 2931 909 2931 1356 
Q 2931 1769 2642 2001 
Q 2353 2234 1838 2234 
L 1294 2234 
L 1294 2753 
L 1863 2753 
Q 2328 2753 2575 2939 
Q 2822 3125 2822 3475 
Q 2822 3834 2567 4026 
Q 2313 4219 1838 4219 
Q 1578 4219 1281 4162 
Q 984 4106 628 3988 
L 628 4550 
Q 988 4650 1302 4700 
Q 1616 4750 1894 4750 
Q 2613 4750 3031 4423 
Q 3450 4097 3450 3541 
Q 3450 3153 3228 2886 
Q 3006 2619 2597 2516 
z
" transform="scale(0.015625)"/>
       </defs>
       <use xlink:href="#DejaVuSans-33"/>
       <use xlink:href="#DejaVuSans-30" x="63.623047"/>
       <use xlink:href="#DejaVuSans-30" x="127.246094"/>
      </g>
     </g>
    </g>
    <g id="xtick_8">
     <g id="line2d_8">
      <g>
       <use xlink:href="#md17ff7d95a" x="326.181138" y="307.584" style="stroke: #000000; stroke-width: 0.8"/>
      </g>
     </g>
     <g id="text_8">
      <!-- 350 -->
      <g transform="translate(316.637388 322.182437) scale(0.1 -0.1)">
       <use xlink:href="#DejaVuSans-33"/>
       <use xlink:href="#DejaVuSans-35" x="63.623047"/>
       <use xlink:href="#DejaVuSans-30" x="127.246094"/>
      </g>
     </g>
    </g>
    <g id="xtick_9">
     <g id="line2d_9">
      <g>
       <use xlink:href="#md17ff7d95a" x="362.334205" y="307.584" style="stroke: #000000; stroke-width: 0.8"/>
      </g>
     </g>
     <g id="text_9">
      <!-- 400 -->
      <g transform="translate(352.790455 322.182437) scale(0.1 -0.1)">
       <defs>
        <path id="DejaVuSans-34" d="M 2419 4116 
L 825 1625 
L 2419 1625 
L 2419 4116 
z
M 2253 4666 
L 3047 4666 
L 3047 1625 
L 3713 1625 
L 3713 1100 
L 3047 1100 
L 3047 0 
L 2419 0 
L 2419 1100 
L 313 1100 
L 313 1709 
L 2253 4666 
z
" transform="scale(0.015625)"/>
       </defs>
       <use xlink:href="#DejaVuSans-34"/>
       <use xlink:href="#DejaVuSans-30" x="63.623047"/>
       <use xlink:href="#DejaVuSans-30" x="127.246094"/>
      </g>
     </g>
    </g>
    <g id="xtick_10">
     <g id="line2d_10">
      <g>
       <use xlink:href="#md17ff7d95a" x="398.487273" y="307.584" style="stroke: #000000; stroke-width: 0.8"/>
      </g>
     </g>
     <g id="text_10">
      <!-- 450 -->
      <g transform="translate(388.943523 322.182437) scale(0.1 -0.1)">
       <use xlink:href="#DejaVuSans-34"/>
       <use xlink:href="#DejaVuSans-35" x="63.623047"/>
       <use xlink:href="#DejaVuSans-30" x="127.246094"/>
      </g>
     </g>
    </g>
    <g id="text_11">
     <!-- Epochs -->
     <g transform="translate(218.244375 335.860562) scale(0.1 -0.1)">
      <defs>
       <path id="DejaVuSans-45" d="M 628 4666 
L 3578 4666 
L 3578 4134 
L 1259 4134 
L 1259 2753 
L 3481 2753 
L 3481 2222 
L 1259 2222 
L 1259 531 
L 3634 531 
L 3634 0 
L 628 0 
L 628 4666 
z
" transform="scale(0.015625)"/>
       <path id="DejaVuSans-70" d="M 1159 525 
L 1159 -1331 
L 581 -1331 
L 581 3500 
L 1159 3500 
L 1159 2969 
Q 1341 3281 1617 3432 
Q 1894 3584 2278 3584 
Q 2916 3584 3314 3078 
Q 3713 2572 3713 1747 
Q 3713 922 3314 415 
Q 2916 -91 2278 -91 
Q 1894 -91 1617 61 
Q 1341 213 1159 525 
z
M 3116 1747 
Q 3116 2381 2855 2742 
Q 2594 3103 2138 3103 
Q 1681 3103 1420 2742 
Q 1159 2381 1159 1747 
Q 1159 1113 1420 752 
Q 1681 391 2138 391 
Q 2594 391 2855 752 
Q 3116 1113 3116 1747 
z
" transform="scale(0.015625)"/>
       <path id="DejaVuSans-6f" d="M 1959 3097 
Q 1497 3097 1228 2736 
Q 959 2375 959 1747 
Q 959 1119 1226 758 
Q 1494 397 1959 397 
Q 2419 397 2687 759 
Q 2956 1122 2956 1747 
Q 2956 2369 2687 2733 
Q 2419 3097 1959 3097 
z
M 1959 3584 
Q 2709 3584 3137 3096 
Q 3566 2609 3566 1747 
Q 3566 888 3137 398 
Q 2709 -91 1959 -91 
Q 1206 -91 779 398 
Q 353 888 353 1747 
Q 353 2609 779 3096 
Q 1206 3584 1959 3584 
z
" transform="scale(0.015625)"/>
       <path id="DejaVuSans-63" d="M 3122 3366 
L 3122 2828 
Q 2878 2963 2633 3030 
Q 2388 3097 2138 3097 
Q 1578 3097 1268 2742 
Q 959 2388 959 1747 
Q 959 1106 1268 751 
Q 1578 397 2138 397 
Q 2388 397 2633 464 
Q 2878 531 3122 666 
L 3122 134 
Q 2881 22 2623 -34 
Q 2366 -91 2075 -91 
Q 1284 -91 818 406 
Q 353 903 353 1747 
Q 353 2603 823 3093 
Q 1294 3584 2113 3584 
Q 2378 3584 2631 3529 
Q 2884 3475 3122 3366 
z
" transform="scale(0.015625)"/>
       <path id="DejaVuSans-68" d="M 3513 2113 
L 3513 0 
L 2938 0 
L 2938 2094 
Q 2938 2591 2744 2837 
Q 2550 3084 2163 3084 
Q 1697 3084 1428 2787 
Q 1159 2491 1159 1978 
L 1159 0 
L 581 0 
L 581 4863 
L 1159 4863 
L 1159 2956 
Q 1366 3272 1645 3428 
Q 1925 3584 2291 3584 
Q 2894 3584 3203 3211 
Q 3513 2838 3513 2113 
z
" transform="scale(0.015625)"/>
       <path id="DejaVuSans-73" d="M 2834 3397 
L 2834 2853 
Q 2591 2978 2328 3040 
Q 2066 3103 1784 3103 
Q 1356 3103 1142 2972 
Q 928 2841 928 2578 
Q 928 2378 1081 2264 
Q 1234 2150 1697 2047 
L 1894 2003 
Q 2506 1872 2764 1633 
Q 3022 1394 3022 966 
Q 3022 478 2636 193 
Q 2250 -91 1575 -91 
Q 1294 -91 989 -36 
Q 684 19 347 128 
L 347 722 
Q 666 556 975 473 
Q 1284 391 1588 391 
Q 1994 391 2212 530 
Q 2431 669 2431 922 
Q 2431 1156 2273 1281 
Q 2116 1406 1581 1522 
L 1381 1569 
Q 847 1681 609 1914 
Q 372 2147 372 2553 
Q 372 3047 722 3315 
Q 1072 3584 1716 3584 
Q 2034 3584 2315 3537 
Q 2597 3491 2834 3397 
z
" transform="scale(0.015625)"/>
      </defs>
      <use xlink:href="#DejaVuSans-45"/>
      <use xlink:href="#DejaVuSans-70" x="63.183594"/>
      <use xlink:href="#DejaVuSans-6f" x="126.660156"/>
      <use xlink:href="#DejaVuSans-63" x="187.841797"/>
      <use xlink:href="#DejaVuSans-68" x="242.822266"/>
      <use xlink:href="#DejaVuSans-73" x="306.201172"/>
     </g>
    </g>
   </g>
   <g id="matplotlib.axis_2">
    <g id="ytick_1">
     <g id="line2d_11">
      <defs>
       <path id="m8b47ee1a63" d="M 0 0 
L -3.5 0 
" style="stroke: #000000; stroke-width: 0.8"/>
      </defs>
      <g>
       <use xlink:href="#m8b47ee1a63" x="57.6" y="287.44026" style="stroke: #000000; stroke-width: 0.8"/>
      </g>
     </g>
     <g id="text_12">
      <!-- 10 -->
      <g transform="translate(37.875 291.239479) scale(0.1 -0.1)">
       <use xlink:href="#DejaVuSans-31"/>
       <use xlink:href="#DejaVuSans-30" x="63.623047"/>
      </g>
     </g>
    </g>
    <g id="ytick_2">
     <g id="line2d_12">
      <g>
       <use xlink:href="#m8b47ee1a63" x="57.6" y="255.28403" style="stroke: #000000; stroke-width: 0.8"/>
      </g>
     </g>
     <g id="text_13">
      <!-- 20 -->
      <g transform="translate(37.875 259.083249) scale(0.1 -0.1)">
       <use xlink:href="#DejaVuSans-32"/>
       <use xlink:href="#DejaVuSans-30" x="63.623047"/>
      </g>
     </g>
    </g>
    <g id="ytick_3">
     <g id="line2d_13">
      <g>
       <use xlink:href="#m8b47ee1a63" x="57.6" y="223.1278" style="stroke: #000000; stroke-width: 0.8"/>
      </g>
     </g>
     <g id="text_14">
      <!-- 30 -->
      <g transform="translate(37.875 226.927019) scale(0.1 -0.1)">
       <use xlink:href="#DejaVuSans-33"/>
       <use xlink:href="#DejaVuSans-30" x="63.623047"/>
      </g>
     </g>
    </g>
    <g id="ytick_4">
     <g id="line2d_14">
      <g>
       <use xlink:href="#m8b47ee1a63" x="57.6" y="190.971571" style="stroke: #000000; stroke-width: 0.8"/>
      </g>
     </g>
     <g id="text_15">
      <!-- 40 -->
      <g transform="translate(37.875 194.770789) scale(0.1 -0.1)">
       <use xlink:href="#DejaVuSans-34"/>
       <use xlink:href="#DejaVuSans-30" x="63.623047"/>
      </g>
     </g>
    </g>
    <g id="ytick_5">
     <g id="line2d_15">
      <g>
       <use xlink:href="#m8b47ee1a63" x="57.6" y="158.815341" style="stroke: #000000; stroke-width: 0.8"/>
      </g>
     </g>
     <g id="text_16">
      <!-- 50 -->
      <g transform="translate(37.875 162.614559) scale(0.1 -0.1)">
       <use xlink:href="#DejaVuSans-35"/>
       <use xlink:href="#DejaVuSans-30" x="63.623047"/>
      </g>
     </g>
    </g>
    <g id="ytick_6">
     <g id="line2d_16">
      <g>
       <use xlink:href="#m8b47ee1a63" x="57.6" y="126.659111" style="stroke: #000000; stroke-width: 0.8"/>
      </g>
     </g>
     <g id="text_17">
      <!-- 60 -->
      <g transform="translate(37.875 130.458329) scale(0.1 -0.1)">
       <defs>
        <path id="DejaVuSans-36" d="M 2113 2584 
Q 1688 2584 1439 2293 
Q 1191 2003 1191 1497 
Q 1191 994 1439 701 
Q 1688 409 2113 409 
Q 2538 409 2786 701 
Q 3034 994 3034 1497 
Q 3034 2003 2786 2293 
Q 2538 2584 2113 2584 
z
M 3366 4563 
L 3366 3988 
Q 3128 4100 2886 4159 
Q 2644 4219 2406 4219 
Q 1781 4219 1451 3797 
Q 1122 3375 1075 2522 
Q 1259 2794 1537 2939 
Q 1816 3084 2150 3084 
Q 2853 3084 3261 2657 
Q 3669 2231 3669 1497 
Q 3669 778 3244 343 
Q 2819 -91 2113 -91 
Q 1303 -91 875 529 
Q 447 1150 447 2328 
Q 447 3434 972 4092 
Q 1497 4750 2381 4750 
Q 2619 4750 2861 4703 
Q 3103 4656 3366 4563 
z
" transform="scale(0.015625)"/>
       </defs>
       <use xlink:href="#DejaVuSans-36"/>
       <use xlink:href="#DejaVuSans-30" x="63.623047"/>
      </g>
     </g>
    </g>
    <g id="ytick_7">
     <g id="line2d_17">
      <g>
       <use xlink:href="#m8b47ee1a63" x="57.6" y="94.502881" style="stroke: #000000; stroke-width: 0.8"/>
      </g>
     </g>
     <g id="text_18">
      <!-- 70 -->
      <g transform="translate(37.875 98.302099) scale(0.1 -0.1)">
       <defs>
        <path id="DejaVuSans-37" d="M 525 4666 
L 3525 4666 
L 3525 4397 
L 1831 0 
L 1172 0 
L 2766 4134 
L 525 4134 
L 525 4666 
z
" transform="scale(0.015625)"/>
       </defs>
       <use xlink:href="#DejaVuSans-37"/>
       <use xlink:href="#DejaVuSans-30" x="63.623047"/>
      </g>
     </g>
    </g>
    <g id="ytick_8">
     <g id="line2d_18">
      <g>
       <use xlink:href="#m8b47ee1a63" x="57.6" y="62.346651" style="stroke: #000000; stroke-width: 0.8"/>
      </g>
     </g>
     <g id="text_19">
      <!-- 80 -->
      <g transform="translate(37.875 66.14587) scale(0.1 -0.1)">
       <defs>
        <path id="DejaVuSans-38" d="M 2034 2216 
Q 1584 2216 1326 1975 
Q 1069 1734 1069 1313 
Q 1069 891 1326 650 
Q 1584 409 2034 409 
Q 2484 409 2743 651 
Q 3003 894 3003 1313 
Q 3003 1734 2745 1975 
Q 2488 2216 2034 2216 
z
M 1403 2484 
Q 997 2584 770 2862 
Q 544 3141 544 3541 
Q 544 4100 942 4425 
Q 1341 4750 2034 4750 
Q 2731 4750 3128 4425 
Q 3525 4100 3525 3541 
Q 3525 3141 3298 2862 
Q 3072 2584 2669 2484 
Q 3125 2378 3379 2068 
Q 3634 1759 3634 1313 
Q 3634 634 3220 271 
Q 2806 -91 2034 -91 
Q 1263 -91 848 271 
Q 434 634 434 1313 
Q 434 1759 690 2068 
Q 947 2378 1403 2484 
z
M 1172 3481 
Q 1172 3119 1398 2916 
Q 1625 2713 2034 2713 
Q 2441 2713 2670 2916 
Q 2900 3119 2900 3481 
Q 2900 3844 2670 4047 
Q 2441 4250 2034 4250 
Q 1625 4250 1398 4047 
Q 1172 3844 1172 3481 
z
" transform="scale(0.015625)"/>
       </defs>
       <use xlink:href="#DejaVuSans-38"/>
       <use xlink:href="#DejaVuSans-30" x="63.623047"/>
      </g>
     </g>
    </g>
    <g id="text_20">
     <!-- Accuracy -->
     <g transform="translate(31.795312 197.356125) rotate(-90) scale(0.1 -0.1)">
      <defs>
       <path id="DejaVuSans-41" d="M 2188 4044 
L 1331 1722 
L 3047 1722 
L 2188 4044 
z
M 1831 4666 
L 2547 4666 
L 4325 0 
L 3669 0 
L 3244 1197 
L 1141 1197 
L 716 0 
L 50 0 
L 1831 4666 
z
" transform="scale(0.015625)"/>
       <path id="DejaVuSans-75" d="M 544 1381 
L 544 3500 
L 1119 3500 
L 1119 1403 
Q 1119 906 1312 657 
Q 1506 409 1894 409 
Q 2359 409 2629 706 
Q 2900 1003 2900 1516 
L 2900 3500 
L 3475 3500 
L 3475 0 
L 2900 0 
L 2900 538 
Q 2691 219 2414 64 
Q 2138 -91 1772 -91 
Q 1169 -91 856 284 
Q 544 659 544 1381 
z
M 1991 3584 
L 1991 3584 
z
" transform="scale(0.015625)"/>
       <path id="DejaVuSans-72" d="M 2631 2963 
Q 2534 3019 2420 3045 
Q 2306 3072 2169 3072 
Q 1681 3072 1420 2755 
Q 1159 2438 1159 1844 
L 1159 0 
L 581 0 
L 581 3500 
L 1159 3500 
L 1159 2956 
Q 1341 3275 1631 3429 
Q 1922 3584 2338 3584 
Q 2397 3584 2469 3576 
Q 2541 3569 2628 3553 
L 2631 2963 
z
" transform="scale(0.015625)"/>
       <path id="DejaVuSans-61" d="M 2194 1759 
Q 1497 1759 1228 1600 
Q 959 1441 959 1056 
Q 959 750 1161 570 
Q 1363 391 1709 391 
Q 2188 391 2477 730 
Q 2766 1069 2766 1631 
L 2766 1759 
L 2194 1759 
z
M 3341 1997 
L 3341 0 
L 2766 0 
L 2766 531 
Q 2569 213 2275 61 
Q 1981 -91 1556 -91 
Q 1019 -91 701 211 
Q 384 513 384 1019 
Q 384 1609 779 1909 
Q 1175 2209 1959 2209 
L 2766 2209 
L 2766 2266 
Q 2766 2663 2505 2880 
Q 2244 3097 1772 3097 
Q 1472 3097 1187 3025 
Q 903 2953 641 2809 
L 641 3341 
Q 956 3463 1253 3523 
Q 1550 3584 1831 3584 
Q 2591 3584 2966 3190 
Q 3341 2797 3341 1997 
z
" transform="scale(0.015625)"/>
       <path id="DejaVuSans-79" d="M 2059 -325 
Q 1816 -950 1584 -1140 
Q 1353 -1331 966 -1331 
L 506 -1331 
L 506 -850 
L 844 -850 
Q 1081 -850 1212 -737 
Q 1344 -625 1503 -206 
L 1606 56 
L 191 3500 
L 800 3500 
L 1894 763 
L 2988 3500 
L 3597 3500 
L 2059 -325 
z
" transform="scale(0.015625)"/>
      </defs>
      <use xlink:href="#DejaVuSans-41"/>
      <use xlink:href="#DejaVuSans-63" x="66.658203"/>
      <use xlink:href="#DejaVuSans-63" x="121.638672"/>
      <use xlink:href="#DejaVuSans-75" x="176.619141"/>
      <use xlink:href="#DejaVuSans-72" x="239.998047"/>
      <use xlink:href="#DejaVuSans-61" x="281.111328"/>
      <use xlink:href="#DejaVuSans-63" x="342.390625"/>
      <use xlink:href="#DejaVuSans-79" x="397.371094"/>
     </g>
    </g>
   </g>
   <g id="line2d_19">
    <path d="M 73.832727 295.488 
L 74.555789 272.916256 
L 75.27885 254.025757 
L 76.001911 240.927238 
L 76.724973 225.71091 
L 77.448034 213.718888 
L 78.171095 207.133292 
L 78.894157 197.971017 
L 79.617218 191.788339 
L 80.340279 189.340285 
L 81.063341 181.581951 
L 81.786402 183.631268 
L 82.509463 171.208352 
L 83.232525 170.183533 
L 83.955586 168.605948 
L 84.678647 157.726209 
L 85.401709 165.825399 
L 86.12477 159.593521 
L 86.847832 154.332762 
L 87.570893 147.959397 
L 88.293954 151.477289 
L 89.017016 146.908853 
L 89.740077 141.570919 
L 90.463138 139.217083 
L 91.1862 139.058553 
L 91.909261 129.158614 
L 92.632322 131.259702 
L 93.355384 130.972226 
L 94.078445 129.501721 
L 94.801506 129.585328 
L 95.524568 169.686397 
L 96.247629 161.973082 
L 96.97069 162.071802 
L 97.693752 155.7113 
L 98.416813 151.200745 
L 99.139874 156.110037 
L 99.862936 155.749887 
L 100.585997 149.024733 
L 101.309059 149.884591 
L 102.03212 147.414992 
L 102.755181 147.146809 
L 103.478243 144.186507 
L 104.201304 144.087787 
L 104.924365 141.082144 
L 105.647427 142.008244 
L 106.370488 138.893591 
L 107.093549 131.742046 
L 107.816611 143.062968 
L 108.539672 136.15163 
L 109.262733 125.93238 
L 109.985795 131.546858 
L 110.708856 132.048495 
L 111.431917 124.787618 
L 112.154979 131.510521 
L 112.87804 123.928082 
L 113.601101 128.552148 
L 114.324163 123.059864 
L 115.047224 128.035397 
L 115.770285 120.725322 
L 116.493347 120.502157 
L 117.216408 117.093597 
L 117.93947 117.799105 
L 118.662531 114.043257 
L 119.385592 111.359176 
L 120.108654 111.813544 
L 120.831715 116.680068 
L 121.554776 110.165216 
L 123.000899 103.191494 
L 123.72396 113.140632 
L 124.447022 103.586051 
L 125.170083 106.383643 
L 125.893144 103.967424 
L 126.616206 102.209764 
L 127.339267 102.70497 
L 128.062328 97.040972 
L 128.78539 106.775949 
L 129.508451 100.018639 
L 130.231512 96.370193 
L 130.954574 94.777173 
L 131.677635 99.832133 
L 132.400696 96.481454 
L 133.123758 96.365691 
L 134.569881 95.197455 
L 135.292942 100.541821 
L 136.016003 92.659364 
L 136.739065 97.105284 
L 137.462126 104.700586 
L 138.185187 93.025945 
L 138.908249 131.488976 
L 139.63131 134.361492 
L 140.354371 132.751752 
L 141.077433 126.519874 
L 141.800494 127.390022 
L 142.523555 126.847868 
L 143.246617 126.03528 
L 143.969678 129.295922 
L 144.692739 131.810539 
L 145.415801 124.596932 
L 146.138862 124.309455 
L 146.861923 120.384465 
L 147.584985 121.23757 
L 148.308046 122.969826 
L 149.031108 128.224154 
L 149.754169 119.304016 
L 150.47723 118.673754 
L 151.200292 125.497306 
L 151.923353 119.316879 
L 152.646414 127.475879 
L 153.369476 115.736604 
L 154.092537 118.276946 
L 154.815598 118.540627 
L 155.53866 117.215791 
L 156.261721 119.349035 
L 156.984782 117.376572 
L 157.707844 117.233155 
L 158.430905 120.493797 
L 159.877028 114.589913 
L 160.600089 115.655249 
L 161.32315 113.434218 
L 162.046212 114.371251 
L 162.769273 114.6285 
L 163.492334 112.726781 
L 164.215396 115.402179 
L 164.938457 114.431061 
L 165.661519 110.514432 
L 166.38458 107.950616 
L 167.107641 111.815795 
L 167.830703 112.165333 
L 168.553764 111.998121 
L 169.276825 102.85932 
L 169.999887 105.159455 
L 170.722948 113.327138 
L 171.446009 110.478096 
L 172.169071 104.889343 
L 172.892132 105.967541 
L 173.615193 108.878966 
L 174.338255 107.817811 
L 175.061316 102.644838 
L 175.784377 101.77662 
L 176.507439 106.201317 
L 177.2305 105.64405 
L 177.953561 104.130456 
L 178.676623 103.225901 
L 180.122745 106.589443 
L 180.845807 105.045944 
L 181.568868 101.767938 
L 182.29193 102.001714 
L 183.014991 95.724817 
L 183.738052 100.629607 
L 185.184175 105.285829 
L 185.907236 98.119492 
L 186.630298 94.50063 
L 187.353359 99.116335 
L 188.07642 93.602506 
L 188.799482 95.133143 
L 189.522543 98.185734 
L 190.245604 93.439474 
L 190.968666 103.324299 
L 191.691727 90.429651 
L 193.13785 97.471865 
L 193.860911 86.170237 
L 194.583972 101.811027 
L 196.753157 89.418016 
L 197.476218 96.496567 
L 198.922341 89.820934 
L 199.645402 89.893928 
L 200.368463 91.567982 
L 201.091525 82.002789 
L 201.814586 86.943916 
L 202.537647 86.480866 
L 203.260709 85.651235 
L 203.98377 85.274043 
L 204.706831 91.036439 
L 205.429893 81.158045 
L 206.152954 85.342535 
L 206.876015 79.232852 
L 207.599077 77.099929 
L 208.322138 85.136736 
L 209.045199 86.167986 
L 209.768261 80.474082 
L 210.491322 83.559151 
L 211.214383 82.229812 
L 212.660506 81.087302 
L 213.383568 82.075463 
L 214.106629 80.840663 
L 214.82969 82.094756 
L 215.552752 81.13232 
L 216.275813 74.193006 
L 216.998874 87.940759 
L 217.721936 81.194382 
L 218.444997 71.318239 
L 219.168058 78.399041 
L 219.89112 79.83546 
L 220.614181 73.708411 
L 221.337242 82.442044 
L 222.060304 74.979869 
L 222.783365 81.569645 
L 223.506426 76.107266 
L 224.229488 83.803538 
L 224.952549 77.301549 
L 225.67561 117.003559 
L 227.121733 120.763909 
L 227.844794 117.522561 
L 228.567856 115.202811 
L 229.290917 116.302554 
L 230.013979 121.248182 
L 230.73704 115.325004 
L 231.460101 113.440649 
L 232.183163 110.782615 
L 232.906224 119.895691 
L 233.629285 112.124495 
L 234.352347 115.239469 
L 235.075408 113.764462 
L 235.798469 112.97985 
L 236.521531 113.993736 
L 237.244592 109.277704 
L 237.967653 119.151596 
L 238.690715 112.819069 
L 239.413776 110.801909 
L 240.136837 109.770659 
L 240.859899 114.675448 
L 241.58296 111.432171 
L 242.306021 111.252096 
L 243.029083 111.957282 
L 243.752144 111.809364 
L 244.475206 116.459155 
L 245.198267 108.703072 
L 245.921328 113.108475 
L 246.64439 120.534314 
L 247.367451 108.801791 
L 248.090512 110.917671 
L 248.813574 111.041794 
L 249.536635 109.847834 
L 250.259696 103.667406 
L 250.982758 104.940793 
L 251.705819 106.983678 
L 252.42888 105.819623 
L 253.151942 110.851108 
L 253.875003 112.988533 
L 254.598064 105.914162 
L 255.321126 107.185298 
L 256.044187 102.799188 
L 256.767248 104.479994 
L 257.49031 106.863735 
L 258.213371 113.151243 
L 258.936432 103.984788 
L 259.659494 104.074826 
L 260.382555 110.990344 
L 261.105617 105.337279 
L 261.828678 114.11593 
L 262.551739 101.937401 
L 263.274801 104.625662 
L 263.997862 106.087806 
L 264.720923 105.44661 
L 265.443985 107.018085 
L 266.167046 105.399662 
L 266.890107 100.891359 
L 267.613169 105.673955 
L 268.33623 107.96991 
L 269.059291 111.324769 
L 269.782353 104.117593 
L 270.505414 101.654426 
L 271.228475 105.748879 
L 271.951537 100.895539 
L 272.674598 102.39402 
L 273.397659 106.544424 
L 274.120721 101.843183 
L 274.843782 111.498413 
L 275.566843 99.266183 
L 276.289905 103.165769 
L 277.012966 95.22318 
L 277.736028 99.512821 
L 279.18215 105.303194 
L 279.905212 98.239435 
L 280.628273 95.343123 
L 281.351334 99.875222 
L 282.074396 94.865281 
L 282.797457 96.82038 
L 283.520518 90.903634 
L 284.24358 94.991655 
L 284.966641 97.937166 
L 285.689702 100.338272 
L 286.412764 93.62598 
L 287.135825 90.588503 
L 287.858886 95.553425 
L 288.581948 90.481101 
L 289.305009 92.421408 
L 290.02807 102.569914 
L 290.751132 97.59213 
L 291.474193 106.83576 
L 292.197255 94.547899 
L 292.920316 98.580291 
L 293.643377 104.734993 
L 294.366439 93.936931 
L 295.0895 109.539134 
L 296.535623 101.180765 
L 297.258684 97.632647 
L 297.981745 104.910888 
L 299.427868 98.798953 
L 300.150929 98.788341 
L 300.873991 101.152789 
L 301.597052 91.540327 
L 302.320113 96.929711 
L 303.043175 97.454823 
L 303.766236 95.78913 
L 304.489297 96.249929 
L 305.212359 101.56664 
L 305.93542 92.85005 
L 306.658481 96.436435 
L 307.381543 90.590432 
L 308.104604 88.744665 
L 308.827666 97.212686 
L 309.550727 98.31661 
L 310.273788 92.305646 
L 310.99685 95.450525 
L 311.719911 94.854348 
L 312.442972 94.074238 
L 313.166034 93.763287 
L 313.889095 95.227361 
L 314.612156 93.495426 
L 315.335218 95.264019 
L 316.058279 93.67743 
L 316.78134 86.429416 
L 317.504402 100.188102 
L 318.227463 94.144982 
L 318.950524 84.242792 
L 319.673586 91.317163 
L 320.396647 92.957131 
L 321.119708 86.39533 
L 321.84277 94.936025 
L 322.565831 86.886035 
L 323.288892 93.664568 
L 324.011954 88.020185 
L 324.735015 95.407435 
L 325.458077 88.202511 
L 326.181138 89.203534 
L 326.904199 86.172166 
L 327.627261 88.120834 
L 328.350322 85.175323 
L 329.073383 84.058537 
L 329.796445 85.636443 
L 330.519506 80.939383 
L 331.242567 85.552837 
L 331.965629 88.506709 
L 332.68869 90.744782 
L 333.411751 83.919301 
L 334.134813 80.617821 
L 334.857874 85.638373 
L 335.580935 80.171814 
L 336.303997 81.672545 
L 337.027058 86.210754 
L 337.750119 81.537489 
L 338.473181 91.233557 
L 339.196242 79.410997 
L 340.642365 87.462917 
L 341.365426 76.017229 
L 342.088488 92.007557 
L 344.257672 80.326164 
L 344.980733 87.426259 
L 345.703794 73.290488 
L 346.426856 77.507241 
L 347.149917 80.452752 
L 347.872978 82.287801 
L 348.59604 75.71078 
L 349.319101 72.38797 
L 350.042162 77.582273 
L 350.765224 72.023532 
L 351.488285 73.931469 
L 352.211346 77.908122 
L 352.934408 73.037525 
L 353.657469 83.361819 
L 354.38053 71.65052 
L 355.103592 74.964755 
L 355.826653 79.288696 
L 356.549715 67.570966 
L 357.272776 84.3801 
L 358.718899 76.386061 
L 359.44196 72.244338 
L 360.165021 79.498784 
L 360.888083 80.699283 
L 361.611144 77.412916 
L 362.334205 77.530823 
L 363.057267 79.940396 
L 363.780328 70.250652 
L 364.503389 75.912292 
L 365.226451 75.52213 
L 365.949512 74.338781 
L 366.672573 74.253031 
L 367.395635 80.223371 
L 368.118696 72.930338 
L 368.841757 71.982801 
L 369.564819 74.079387 
L 370.28788 74.435249 
L 371.010941 76.542554 
L 371.734003 75.19628 
L 372.457064 81.653251 
L 373.180126 76.658317 
L 373.903187 81.278095 
L 374.626248 80.435602 
L 375.34931 70.550777 
L 376.072371 76.941292 
L 376.795432 73.121132 
L 377.518494 81.829039 
L 378.241555 73.466275 
L 378.964616 70.334258 
L 379.687678 81.426014 
L 380.410739 76.855542 
L 381.1338 68.574241 
L 381.856862 75.241299 
L 382.579923 75.12768 
L 383.302984 78.300428 
L 384.026046 78.439772 
L 384.749107 75.277743 
L 385.472168 75.597161 
L 386.19523 72.203607 
L 386.918291 74.842562 
L 387.641353 70.666539 
L 388.364414 76.857685 
L 389.087475 67.701735 
L 389.810537 77.007748 
L 390.533598 77.36361 
L 391.256659 72.124288 
L 391.979721 72.420126 
L 392.702782 75.40208 
L 393.425843 76.478242 
L 394.148905 73.241181 
L 394.871966 71.10172 
L 395.595027 81.025133 
L 396.318089 74.210156 
L 397.04115 77.663735 
L 397.764211 74.628187 
L 398.487273 75.655042 
L 398.487273 75.655042 
" clip-path="url(#pe35637ea6b)" style="fill: none; stroke: #1f77b4; stroke-width: 1.5; stroke-linecap: square"/>
   </g>
   <g id="line2d_20">
    <path d="M 73.832727 273.934644 
L 75.27885 221.16627 
L 76.001911 195.216193 
L 76.724973 178.848672 
L 77.448034 173.189175 
L 78.171095 152.930751 
L 78.894157 149.972377 
L 79.617218 139.650228 
L 80.340279 135.084043 
L 81.063341 133.379763 
L 81.786402 124.858362 
L 82.509463 123.829362 
L 83.232525 115.500899 
L 84.678647 109.26259 
L 85.401709 106.979498 
L 86.12477 102.027439 
L 86.847832 98.233003 
L 87.570893 97.589879 
L 88.293954 93.8276 
L 89.017016 94.985224 
L 89.740077 91.898226 
L 91.1862 86.656761 
L 91.909261 85.20973 
L 92.632322 85.885011 
L 93.355384 84.148575 
L 94.078445 83.408981 
L 94.801506 83.730544 
L 95.524568 114.729149 
L 96.247629 115.468743 
L 96.97069 111.642151 
L 97.693752 115.500899 
L 98.416813 102.702719 
L 99.139874 106.432842 
L 99.862936 98.136535 
L 100.585997 97.49341 
L 101.309059 98.490253 
L 102.03212 94.374256 
L 102.755181 93.152319 
L 103.478243 95.210318 
L 104.201304 93.280944 
L 104.924365 91.769601 
L 105.647427 86.528136 
L 106.370488 87.750072 
L 107.093549 87.396354 
L 107.816611 91.544508 
L 108.539672 88.232416 
L 109.262733 84.148575 
L 109.985795 88.168103 
L 110.708856 83.666231 
L 111.431917 84.180731 
L 112.154979 86.91401 
L 112.87804 81.929795 
L 113.601101 80.257671 
L 114.324163 76.463236 
L 115.047224 77.749485 
L 115.770285 79.614546 
L 116.493347 77.813797 
L 117.216408 78.746328 
L 117.93947 75.562861 
L 118.662531 74.019362 
L 119.385592 74.758956 
L 120.108654 71.318239 
L 120.831715 72.700957 
L 121.554776 72.797426 
L 122.277838 72.057832 
L 123.000899 70.450021 
L 123.72396 70.771583 
L 124.447022 69.292396 
L 125.170083 68.424178 
L 125.893144 69.806896 
L 126.616206 69.421021 
L 127.339267 66.623429 
L 128.062328 66.012461 
L 128.78539 66.301867 
L 129.508451 67.137929 
L 130.231512 65.176399 
L 130.954574 65.112087 
L 131.677635 63.568588 
L 132.400696 63.6329 
L 133.123758 63.247025 
L 133.846819 63.343494 
L 135.292942 64.243868 
L 136.016003 62.893307 
L 136.739065 63.665056 
L 137.462126 63.793681 
L 138.185187 62.636057 
L 138.908249 91.737445 
L 139.63131 86.270886 
L 140.354371 84.180731 
L 141.077433 83.730544 
L 141.800494 89.968852 
L 142.523555 83.087419 
L 143.246617 85.627761 
L 143.969678 83.408981 
L 144.692739 84.502293 
L 145.415801 81.415295 
L 146.138862 85.306199 
L 146.861923 78.874953 
L 147.584985 80.35414 
L 148.308046 79.32514 
L 149.031108 80.611389 
L 150.47723 76.913423 
L 151.200292 82.026263 
L 151.923353 76.527548 
L 152.646414 76.463236 
L 154.092537 80.000421 
L 154.815598 77.717329 
L 155.53866 74.919737 
L 156.261721 76.688329 
L 156.984782 77.588704 
L 157.707844 75.337768 
L 158.430905 75.562861 
L 159.153966 75.980892 
L 159.877028 75.369924 
L 160.600089 73.247613 
L 161.32315 75.627174 
L 162.046212 74.308768 
L 162.769273 76.270298 
L 163.492334 74.726799 
L 164.938457 72.797426 
L 165.661519 72.057832 
L 166.38458 71.639801 
L 167.107641 72.122145 
L 167.830703 71.671957 
L 168.553764 70.996677 
L 169.276825 73.665644 
L 169.999887 70.771583 
L 170.722948 72.508019 
L 171.446009 70.353552 
L 172.169071 72.057832 
L 172.892132 69.710427 
L 173.615193 73.054675 
L 174.338255 69.935521 
L 175.061316 70.257083 
L 175.784377 72.122145 
L 176.507439 71.028833 
L 177.2305 68.970834 
L 177.953561 67.620272 
L 178.676623 68.713584 
L 179.399684 68.745741 
L 180.122745 65.208555 
L 180.845807 68.038303 
L 181.568868 67.973991 
L 182.29193 65.980305 
L 183.014991 66.205398 
L 183.738052 67.137929 
L 184.461114 66.687742 
L 185.184175 66.012461 
L 185.907236 64.179556 
L 186.630298 66.816367 
L 187.353359 66.752054 
L 188.07642 64.854837 
L 188.799482 64.050931 
L 189.522543 64.726212 
L 190.245604 63.472119 
L 190.968666 65.07993 
L 191.691727 63.343494 
L 192.414788 66.076773 
L 193.13785 61.960776 
L 193.860911 62.989775 
L 195.307034 63.279181 
L 196.030095 62.282338 
L 197.476218 62.732526 
L 198.922341 61.864307 
L 200.368463 58.584372 
L 201.091525 59.999246 
L 201.814586 58.905934 
L 202.537647 58.873778 
L 203.260709 58.970247 
L 203.98377 58.93809 
L 204.706831 58.584372 
L 205.429893 58.520059 
L 206.152954 58.102028 
L 206.876015 58.873778 
L 207.599077 58.102028 
L 208.322138 57.073029 
L 209.045199 57.716154 
L 209.768261 57.683997 
L 210.491322 57.201654 
L 211.214383 57.876935 
L 211.937445 57.105185 
L 212.660506 57.073029 
L 213.383568 56.558529 
L 214.106629 57.008717 
L 214.82969 55.78678 
L 215.552752 56.365592 
L 216.275813 56.462061 
L 216.998874 56.04403 
L 217.721936 56.590686 
L 219.168058 55.27228 
L 219.89112 55.52953 
L 220.614181 55.465218 
L 221.337242 56.783623 
L 222.060304 56.172655 
L 222.783365 54.918562 
L 223.506426 55.818936 
L 224.229488 56.140498 
L 224.952549 56.04403 
L 225.67561 86.849698 
L 226.398672 84.212887 
L 227.121733 78.328297 
L 227.844794 80.611389 
L 228.567856 79.228671 
L 229.290917 78.617703 
L 230.013979 75.787955 
L 230.73704 79.903952 
L 231.460101 74.758956 
L 232.183163 74.823268 
L 232.906224 79.550234 
L 233.629285 73.44055 
L 234.352347 79.389453 
L 235.075408 78.649859 
L 235.798469 76.816954 
L 236.521531 73.762112 
L 237.244592 77.074204 
L 237.967653 73.922894 
L 238.690715 79.035734 
L 239.413776 74.340925 
L 240.136837 76.045205 
L 240.859899 73.311925 
L 241.58296 72.797426 
L 242.306021 72.765269 
L 243.029083 72.122145 
L 244.475206 75.627174 
L 245.198267 73.279769 
L 246.64439 77.170673 
L 247.367451 70.417864 
L 248.090512 74.469549 
L 248.813574 71.575489 
L 249.536635 73.472706 
L 250.259696 73.151144 
L 250.982758 76.463236 
L 251.705819 73.537019 
L 252.42888 74.373081 
L 253.151942 74.791112 
L 253.875003 73.311925 
L 254.598064 75.305611 
L 255.321126 74.726799 
L 256.044187 71.73627 
L 256.767248 72.347238 
L 257.49031 72.636644 
L 258.213371 73.922894 
L 258.936432 71.671957 
L 259.659494 71.864895 
L 260.382555 71.47902 
L 261.105617 71.414708 
L 261.828678 71.961364 
L 262.551739 71.382551 
L 263.274801 72.958207 
L 264.720923 71.511176 
L 265.443985 71.864895 
L 266.167046 68.552803 
L 266.890107 68.649272 
L 267.613169 72.508019 
L 268.33623 72.604488 
L 269.059291 73.086832 
L 269.782353 70.096302 
L 270.505414 72.765269 
L 271.228475 69.839052 
L 271.951537 68.102616 
L 272.674598 69.099459 
L 273.397659 70.835895 
L 274.120721 68.938678 
L 274.843782 71.607645 
L 275.566843 71.253926 
L 276.289905 70.482177 
L 277.012966 67.973991 
L 277.736028 69.613959 
L 278.459089 70.610802 
L 279.18215 72.829582 
L 279.905212 70.257083 
L 280.628273 72.733113 
L 281.351334 71.157458 
L 282.074396 68.263397 
L 282.797457 68.649272 
L 283.520518 68.745741 
L 284.24358 70.096302 
L 284.966641 71.832739 
L 285.689702 71.832739 
L 286.412764 69.806896 
L 287.135825 73.151144 
L 287.858886 71.768426 
L 288.581948 69.228084 
L 289.305009 69.26024 
L 290.02807 70.610802 
L 290.751132 68.617116 
L 291.474193 72.315082 
L 292.197255 68.134772 
L 292.920316 69.51749 
L 293.643377 68.263397 
L 294.366439 69.099459 
L 295.0895 67.105773 
L 295.812561 69.646115 
L 296.535623 68.038303 
L 297.258684 67.137929 
L 297.981745 68.07046 
L 298.704807 66.591273 
L 299.427868 67.105773 
L 300.150929 65.497961 
L 300.873991 65.33718 
L 301.597052 66.398336 
L 302.320113 65.59443 
L 303.043175 65.015618 
L 303.766236 64.211712 
L 304.489297 67.588116 
L 305.212359 65.658742 
L 305.93542 67.363023 
L 306.658481 64.1474 
L 307.381543 65.401493 
L 308.104604 64.629743 
L 308.827666 67.523804 
L 309.550727 65.915992 
L 310.273788 66.462648 
L 310.99685 63.729369 
L 311.719911 65.112087 
L 312.442972 65.176399 
L 313.166034 63.054088 
L 313.889095 65.658742 
L 314.612156 64.308181 
L 315.335218 63.279181 
L 316.058279 64.404649 
L 316.78134 66.141086 
L 317.504402 66.494804 
L 318.227463 65.562274 
L 318.950524 63.729369 
L 319.673586 63.343494 
L 320.396647 64.694056 
L 321.119708 62.539588 
L 321.84277 65.883836 
L 322.565831 64.050931 
L 323.288892 62.700369 
L 324.011954 63.472119 
L 324.735015 62.764682 
L 325.458077 64.661899 
L 326.181138 62.86115 
L 326.904199 65.723055 
L 327.627261 60.706683 
L 328.350322 62.732526 
L 329.073383 61.92862 
L 329.796445 60.449433 
L 330.519506 60.192183 
L 331.242567 61.703526 
L 331.965629 60.449433 
L 332.68869 61.028245 
L 333.411751 61.92862 
L 334.134813 61.092558 
L 334.857874 63.1184 
L 335.580935 60.963933 
L 336.303997 59.70984 
L 337.027058 60.513746 
L 337.750119 60.996089 
L 338.473181 61.15687 
L 339.196242 59.356121 
L 339.919304 59.902777 
L 340.642365 59.163184 
L 341.365426 59.902777 
L 342.088488 59.806309 
L 342.811549 59.549059 
L 343.53461 59.774152 
L 344.257672 60.770996 
L 344.980733 59.934934 
L 345.703794 58.584372 
L 346.426856 58.648684 
L 347.872978 58.359278 
L 348.59604 59.838465 
L 349.319101 58.455747 
L 350.042162 60.706683 
L 350.765224 58.487903 
L 351.488285 58.648684 
L 352.211346 58.359278 
L 352.934408 59.227496 
L 353.657469 57.876935 
L 354.38053 57.651841 
L 355.103592 59.034559 
L 355.826653 57.74831 
L 356.549715 57.74831 
L 357.272776 57.394591 
L 357.995837 58.166341 
L 358.718899 57.523216 
L 359.44196 58.712997 
L 360.165021 57.23381 
L 360.888083 57.973404 
L 361.611144 56.04403 
L 362.334205 55.143655 
L 363.057267 55.143655 
L 363.780328 57.330279 
L 365.226451 56.687154 
L 365.949512 55.111499 
L 366.672573 55.175811 
L 367.395635 55.368749 
L 368.118696 55.915405 
L 369.564819 55.818936 
L 370.28788 56.204811 
L 371.734003 56.236967 
L 372.457064 56.687154 
L 373.180126 55.722467 
L 373.903187 55.01503 
L 375.34931 57.040873 
L 376.072371 56.140498 
L 377.518494 56.526373 
L 378.241555 56.140498 
L 378.964616 56.429904 
L 379.687678 55.851092 
L 380.410739 55.722467 
L 381.1338 56.429904 
L 381.856862 55.368749 
L 382.579923 55.143655 
L 383.302984 55.336593 
L 384.026046 57.23381 
L 384.749107 56.04403 
L 385.472168 55.368749 
L 386.19523 56.719311 
L 386.918291 56.108342 
L 387.641353 56.622842 
L 388.364414 56.30128 
L 389.087475 57.362435 
L 389.810537 56.30128 
L 390.533598 54.693468 
L 391.256659 56.462061 
L 391.979721 55.625999 
L 392.702782 55.52953 
L 393.425843 55.979717 
L 394.148905 55.722467 
L 394.871966 56.751467 
L 395.595027 56.397748 
L 396.318089 55.658155 
L 397.04115 55.433061 
L 397.764211 55.851092 
L 398.487273 55.851092 
L 398.487273 55.851092 
" clip-path="url(#pe35637ea6b)" style="fill: none; stroke: #ff7f0e; stroke-width: 1.5; stroke-linecap: square"/>
   </g>
   <g id="line2d_21">
    <path d="M 73.832727 277.926518 
L 74.555789 252.545284 
L 76.001911 209.55562 
L 76.724973 195.861568 
L 77.448034 195.872502 
L 78.171095 186.159069 
L 78.894157 170.114397 
L 79.617218 174.99314 
L 80.340279 167.220336 
L 81.063341 169.515648 
L 81.786402 161.997843 
L 83.232525 148.968781 
L 83.955586 153.393157 
L 84.678647 151.120033 
L 85.401709 147.383158 
L 86.12477 144.677533 
L 87.570893 134.942234 
L 88.293954 139.3441 
L 89.017016 132.968485 
L 89.740077 135.784727 
L 90.463138 131.715356 
L 91.1862 131.648793 
L 92.632322 125.927235 
L 93.355384 126.415045 
L 94.078445 124.352866 
L 94.801506 126.093483 
L 95.524568 154.89003 
L 96.247629 162.707209 
L 96.97069 152.184404 
L 97.693752 158.249713 
L 98.416813 138.490352 
L 99.139874 153.537217 
L 99.862936 144.955041 
L 100.585997 149.745033 
L 101.309059 143.424726 
L 102.03212 142.227228 
L 103.478243 137.725356 
L 104.201304 142.083168 
L 104.924365 139.00035 
L 105.647427 133.522858 
L 106.370488 140.585974 
L 107.093549 127.546301 
L 107.816611 137.747543 
L 108.539672 133.555979 
L 109.262733 131.493478 
L 109.985795 139.521603 
L 110.708856 125.749732 
L 111.431917 131.748799 
L 112.154979 136.638475 
L 112.87804 126.171301 
L 113.601101 122.988799 
L 114.324163 122.401304 
L 115.047224 126.725674 
L 115.770285 127.346611 
L 116.493347 128.477545 
L 117.216408 121.281303 
L 117.93947 123.332549 
L 118.662531 117.688487 
L 119.385592 124.075679 
L 120.108654 123.454421 
L 120.831715 121.037237 
L 121.554776 119.174427 
L 122.277838 118.89724 
L 123.000899 116.402238 
L 123.72396 116.912557 
L 124.447022 112.344122 
L 125.170083 115.74818 
L 125.893144 115.182552 
L 126.616206 111.290684 
L 127.339267 111.035685 
L 128.062328 111.822869 
L 128.78539 114.107248 
L 129.508451 112.05568 
L 130.231512 109.583188 
L 130.954574 112.565678 
L 131.677635 110.53662 
L 133.123758 109.90475 
L 133.846819 108.950996 
L 134.569881 110.370372 
L 136.016003 109.228183 
L 136.739065 109.483182 
L 137.462126 108.396623 
L 138.185187 108.81787 
L 138.908249 137.492545 
L 139.63131 137.181915 
L 140.354371 130.872541 
L 141.077433 132.768794 
L 141.800494 135.108482 
L 142.523555 131.016923 
L 143.246617 138.412856 
L 143.969678 133.30098 
L 144.692739 140.996287 
L 145.415801 128.422237 
L 146.138862 135.585359 
L 146.861923 125.727545 
L 147.584985 127.446295 
L 148.308046 128.555364 
L 149.031108 128.355673 
L 149.754169 126.958485 
L 150.47723 120.4163 
L 151.200292 128.887859 
L 151.923353 123.532239 
L 152.646414 119.340674 
L 153.369476 131.515666 
L 154.092537 127.025049 
L 154.815598 129.198488 
L 155.53866 124.230672 
L 156.261721 125.195359 
L 156.984782 128.311298 
L 157.707844 125.816296 
L 158.430905 124.885051 
L 159.153966 129.065361 
L 159.877028 123.022241 
L 160.600089 125.505988 
L 161.32315 127.590677 
L 162.046212 119.695679 
L 162.769273 127.557234 
L 163.492334 128.011923 
L 164.215396 126.537239 
L 164.938457 122.10193 
L 165.661519 115.226928 
L 166.38458 109.727248 
L 167.107641 117.777238 
L 167.830703 119.861927 
L 168.553764 118.531302 
L 169.276825 124.230672 
L 169.999887 123.255052 
L 170.722948 122.534109 
L 171.446009 119.119118 
L 172.169071 122.256923 
L 172.892132 118.231927 
L 173.615193 120.449743 
L 174.338255 113.962866 
L 175.061316 126.171301 
L 175.784377 119.107863 
L 176.507439 117.156302 
L 177.2305 120.737862 
L 177.953561 115.792556 
L 178.676623 108.940063 
L 179.399684 116.490989 
L 180.122745 118.852864 
L 180.845807 110.625371 
L 181.568868 120.638178 
L 182.29193 115.792556 
L 183.014991 113.974121 
L 183.738052 115.626308 
L 184.461114 111.323805 
L 185.184175 110.348185 
L 185.907236 111.944741 
L 186.630298 111.955996 
L 187.353359 111.279429 
L 188.07642 108.429744 
L 188.799482 112.809744 
L 189.522543 114.605991 
L 190.245604 112.820999 
L 190.968666 114.317871 
L 191.691727 113.619116 
L 192.414788 111.966929 
L 193.13785 112.521303 
L 193.860911 112.332867 
L 194.583972 113.441935 
L 195.307034 112.066935 
L 196.030095 109.450061 
L 196.753157 107.442869 
L 197.476218 111.290684 
L 198.199279 110.359118 
L 198.922341 112.155686 
L 199.645402 108.751306 
L 200.368463 108.451932 
L 201.091525 111.090993 
L 201.814586 106.06819 
L 202.537647 106.556 
L 203.260709 110.093186 
L 203.98377 105.790682 
L 204.706831 105.557871 
L 205.429893 109.460994 
L 206.876015 105.912876 
L 207.599077 107.731311 
L 208.322138 106.522558 
L 209.045199 106.999435 
L 209.768261 107.298809 
L 210.491322 106.090057 
L 211.214383 106.289747 
L 211.937445 104.460379 
L 212.660506 103.029748 
L 213.383568 105.580059 
L 214.106629 103.706315 
L 214.82969 103.961314 
L 215.552752 102.220376 
L 216.275813 104.548809 
L 216.998874 105.480374 
L 217.721936 103.684127 
L 218.444997 103.029748 
L 219.168058 104.127562 
L 219.89112 104.438191 
L 220.614181 105.181 
L 221.337242 103.628497 
L 222.060304 104.792874 
L 222.783365 105.092249 
L 223.506426 103.162875 
L 224.229488 103.883496 
L 224.952549 104.138817 
L 225.67561 141.262541 
L 226.398672 128.333486 
L 227.121733 127.235672 
L 227.844794 128.710357 
L 228.567856 135.895666 
L 229.290917 129.919109 
L 230.013979 126.404112 
L 230.73704 135.352226 
L 231.460101 121.181618 
L 232.183163 124.707549 
L 232.906224 129.95223 
L 233.629285 121.203485 
L 234.352347 129.996606 
L 235.075408 121.857864 
L 235.798469 124.009116 
L 236.521531 121.059425 
L 237.244592 127.058169 
L 238.690715 123.665366 
L 239.413776 120.549427 
L 240.136837 123.532239 
L 240.859899 124.618798 
L 241.58296 119.340674 
L 242.306021 121.913173 
L 243.029083 123.554427 
L 243.752144 118.486926 
L 244.475206 122.345674 
L 245.198267 121.514114 
L 246.64439 134.53192 
L 247.367451 119.595673 
L 248.090512 122.87786 
L 248.813574 117.256307 
L 249.536635 119.473801 
L 250.259696 119.540364 
L 250.982758 125.472546 
L 251.705819 118.985991 
L 252.42888 121.913173 
L 253.151942 122.556297 
L 253.875003 122.93349 
L 254.598064 120.981928 
L 255.321126 124.474738 
L 256.044187 115.160364 
L 256.767248 119.961611 
L 257.49031 120.693487 
L 258.213371 124.264115 
L 258.936432 117.156302 
L 259.659494 116.768176 
L 261.105617 124.341611 
L 261.828678 115.925683 
L 262.551739 123.543172 
L 263.274801 119.640049 
L 263.997862 126.093483 
L 264.720923 125.528176 
L 265.443985 115.193807 
L 266.167046 121.236927 
L 266.890107 113.796619 
L 267.613169 121.125988 
L 268.33623 117.910365 
L 269.059291 119.551619 
L 269.782353 117.211932 
L 270.505414 120.771305 
L 271.228475 115.226928 
L 271.951537 111.845057 
L 273.397659 119.850994 
L 274.120721 111.157557 
L 274.843782 120.626923 
L 275.566843 120.56036 
L 276.289905 116.790364 
L 277.012966 111.590058 
L 278.459089 115.349121 
L 279.18215 118.741925 
L 279.905212 118.875052 
L 280.628273 119.92849 
L 281.351334 112.521303 
L 282.074396 108.81787 
L 282.797457 116.09193 
L 283.520518 114.583803 
L 284.24358 118.298491 
L 284.966641 115.06068 
L 285.689702 119.92849 
L 286.412764 120.815681 
L 287.135825 120.061617 
L 287.858886 115.393497 
L 288.581948 106.921938 
L 289.305009 115.371309 
L 290.02807 118.365054 
L 290.751132 112.122244 
L 291.474193 119.917235 
L 292.197255 112.931616 
L 292.920316 113.075998 
L 293.643377 116.735055 
L 294.366439 118.75318 
L 295.0895 115.415363 
L 295.812561 115.836931 
L 296.535623 109.782556 
L 297.258684 108.651622 
L 298.704807 111.002242 
L 299.427868 118.043492 
L 300.150929 113.031622 
L 300.873991 113.818806 
L 301.597052 116.424426 
L 302.320113 110.026622 
L 303.043175 108.884433 
L 303.766236 111.02443 
L 304.489297 116.480056 
L 305.212359 111.578803 
L 306.658481 117.855056 
L 307.381543 115.925683 
L 308.104604 112.066935 
L 308.827666 118.220994 
L 309.550727 116.069743 
L 310.273788 117.954741 
L 310.99685 107.542875 
L 311.719911 113.408493 
L 312.442972 114.783493 
L 313.166034 115.249116 
L 313.889095 116.313808 
L 314.612156 106.755369 
L 315.335218 111.102248 
L 316.058279 112.477249 
L 316.78134 109.738181 
L 317.504402 120.005987 
L 318.227463 110.126307 
L 318.950524 113.707867 
L 319.673586 116.335996 
L 320.396647 114.284429 
L 321.119708 109.671617 
L 321.84277 116.502244 
L 322.565831 111.501307 
L 323.288892 108.319126 
L 324.011954 114.872245 
L 324.735015 110.303809 
L 325.458077 113.752243 
L 326.181138 108.596313 
L 326.904199 107.853183 
L 327.627261 105.935064 
L 328.350322 109.061935 
L 329.073383 115.271303 
L 329.796445 110.037555 
L 330.519506 106.422874 
L 331.242567 106.289747 
L 331.965629 106.467249 
L 332.68869 106.966314 
L 333.411751 111.22412 
L 334.134813 109.095056 
L 334.857874 104.659747 
L 335.580935 102.575059 
L 336.303997 103.994435 
L 337.027058 104.892559 
L 337.750119 104.216313 
L 338.473181 106.855375 
L 339.196242 101.799129 
L 339.919304 103.684127 
L 340.642365 102.564126 
L 341.365426 107.465057 
L 342.088488 107.18787 
L 342.811549 105.169745 
L 343.53461 101.222568 
L 344.257672 106.301001 
L 344.980733 106.079123 
L 345.703794 99.869645 
L 346.426856 103.739481 
L 347.149917 103.739481 
L 347.872978 101.388749 
L 348.59604 106.544834 
L 349.319101 103.861452 
L 350.042162 104.205191 
L 350.765224 99.415022 
L 351.488285 102.264729 
L 352.211346 102.66391 
L 352.934408 102.719352 
L 353.657469 104.637637 
L 354.38053 98.439247 
L 355.103592 100.956303 
L 355.826653 100.457327 
L 356.549715 102.608468 
L 357.272776 105.147702 
L 357.995837 104.293898 
L 358.718899 100.446239 
L 359.44196 102.46432 
L 360.165021 103.506625 
L 360.888083 102.73044 
L 361.611144 103.761657 
L 362.334205 100.446239 
L 363.057267 102.53085 
L 363.780328 103.927983 
L 364.503389 100.534946 
L 365.949512 102.741529 
L 366.672573 102.741529 
L 367.395635 98.494689 
L 368.118696 99.769849 
L 368.841757 100.180119 
L 369.564819 102.431055 
L 370.28788 105.302939 
L 371.010941 99.337404 
L 371.734003 100.579299 
L 372.457064 102.963296 
L 373.180126 102.974384 
L 373.903187 104.792874 
L 374.626248 102.841324 
L 375.34931 101.954255 
L 376.072371 98.572307 
L 376.795432 101.887725 
L 377.518494 101.067187 
L 378.241555 101.92099 
L 378.964616 100.645829 
L 379.687678 95.234712 
L 380.410739 103.395742 
L 381.1338 101.166982 
L 381.856862 104.08322 
L 382.579923 100.756713 
L 383.302984 101.399838 
L 384.026046 100.834332 
L 384.749107 101.98752 
L 385.472168 103.961248 
L 386.19523 100.246649 
L 386.918291 99.858556 
L 387.641353 105.657766 
L 388.364414 101.333307 
L 389.087475 103.584244 
L 389.810537 100.291002 
L 390.533598 103.484448 
L 391.256659 102.874589 
L 391.979721 105.513617 
L 392.702782 105.214232 
L 393.425843 103.717304 
L 394.148905 103.706215 
L 394.871966 102.686087 
L 395.595027 102.930031 
L 396.318089 103.3403 
L 397.04115 104.127573 
L 397.764211 98.672102 
L 398.487273 100.490592 
L 398.487273 100.490592 
" clip-path="url(#pe35637ea6b)" style="fill: none; stroke: #2ca02c; stroke-width: 1.5; stroke-linecap: square"/>
   </g>
   <g id="line2d_22">
    <path d="M 73.832727 288.951603 
L 74.555789 286.379105 
L 75.27885 289.015916 
L 76.001911 287.568885 
L 76.724973 283.002701 
L 77.448034 286.282636 
L 78.171095 280.269421 
L 78.894157 278.758078 
L 79.617218 283.25995 
L 80.340279 277.246735 
L 81.063341 280.751765 
L 81.786402 279.561984 
L 83.232525 269.850803 
L 83.955586 266.763804 
L 84.678647 273.420144 
L 85.401709 263.548181 
L 86.12477 266.603023 
L 86.847832 267.439085 
L 87.570893 260.525496 
L 88.293954 261.007839 
L 89.017016 257.342029 
L 89.740077 255.412655 
L 90.463138 257.663591 
L 91.1862 255.862843 
L 91.909261 256.827529 
L 92.632322 251.971939 
L 93.355384 252.64722 
L 94.078445 252.840157 
L 94.801506 253.290344 
L 95.524568 273.9668 
L 96.247629 270.719021 
L 96.97069 268.468085 
L 97.693752 270.526083 
L 98.416813 268.918272 
L 99.139874 265.702649 
L 100.585997 264.223462 
L 101.309059 267.149679 
L 102.03212 264.834431 
L 102.755181 261.586651 
L 103.478243 262.744276 
L 104.201304 259.496497 
L 104.924365 260.075309 
L 105.647427 262.261932 
L 106.370488 255.830686 
L 107.093549 264.577181 
L 107.816611 258.628278 
L 108.539672 256.956154 
L 109.262733 253.708375 
L 109.985795 255.476968 
L 110.708856 257.631435 
L 111.431917 256.087936 
L 112.154979 243.932881 
L 112.87804 250.331971 
L 113.601101 254.705218 
L 114.324163 253.869156 
L 115.047224 242.164289 
L 115.770285 238.466322 
L 116.493347 240.331383 
L 117.216408 246.569692 
L 117.93947 245.669318 
L 118.662531 240.331383 
L 120.831715 231.809983 
L 121.554776 231.327639 
L 122.277838 240.299227 
L 123.000899 237.855354 
L 123.72396 231.48842 
L 124.447022 232.099389 
L 125.170083 227.083017 
L 125.893144 230.170015 
L 126.616206 226.214799 
L 127.339267 224.028175 
L 128.062328 224.671299 
L 128.78539 226.729298 
L 129.508451 224.735612 
L 130.231512 224.478362 
L 130.954574 227.083017 
L 131.677635 227.693985 
L 132.400696 220.105115 
L 133.123758 219.269053 
L 133.846819 220.265896 
L 134.569881 221.970176 
L 135.292942 216.985961 
L 136.016003 223.770925 
L 136.739065 219.236897 
L 137.462126 212.902119 
L 138.185187 217.371835 
L 138.908249 247.888098 
L 139.63131 254.255031 
L 140.354371 245.830099 
L 141.077433 252.38997 
L 141.800494 251.393127 
L 142.523555 253.869156 
L 143.246617 246.087349 
L 143.969678 248.081035 
L 144.692739 254.673062 
L 145.415801 245.797943 
L 146.138862 248.724159 
L 146.861923 247.18066 
L 147.584985 244.672475 
L 148.308046 247.69516 
L 149.031108 246.441067 
L 149.754169 247.116348 
L 150.47723 240.974508 
L 151.200292 241.81057 
L 151.923353 241.55332 
L 152.646414 241.649789 
L 153.369476 246.183817 
L 154.092537 237.019292 
L 154.815598 241.199602 
L 155.53866 233.996606 
L 156.261721 243.579163 
L 156.984782 242.710944 
L 157.707844 230.716671 
L 158.430905 230.620202 
L 159.153966 238.787884 
L 159.877028 238.080447 
L 160.600089 233.996606 
L 161.32315 236.922823 
L 162.046212 234.253856 
L 162.769273 241.81057 
L 163.492334 231.906451 
L 164.215396 229.912765 
L 164.938457 233.224857 
L 165.661519 233.96445 
L 166.38458 233.739356 
L 167.107641 232.292326 
L 167.830703 231.777826 
L 168.553764 236.987136 
L 169.276825 230.845296 
L 169.999887 230.588046 
L 170.722948 218.143585 
L 171.446009 222.420363 
L 172.169071 221.777239 
L 172.892132 230.909608 
L 173.615193 224.124644 
L 174.338255 230.266484 
L 175.061316 229.52689 
L 176.507439 224.317581 
L 177.2305 221.616458 
L 177.953561 226.504205 
L 178.676623 224.799924 
L 179.399684 219.140428 
L 180.122745 220.683927 
L 180.845807 222.581145 
L 181.568868 226.472048 
L 182.29193 223.417207 
L 183.014991 215.79618 
L 183.738052 215.506774 
L 184.461114 217.339679 
L 185.184175 223.835238 
L 185.907236 219.751396 
L 186.630298 218.304366 
L 187.353359 208.946903 
L 188.799482 223.031332 
L 189.522543 216.857336 
L 190.245604 217.24321 
L 190.968666 226.150486 
L 191.691727 220.716083 
L 192.414788 208.110841 
L 193.13785 205.023843 
L 193.860911 223.481519 
L 194.583972 198.946316 
L 195.307034 212.612713 
L 196.030095 207.499873 
L 196.753157 209.268465 
L 197.476218 205.152468 
L 198.199279 202.194095 
L 198.922341 204.059156 
L 199.645402 199.33219 
L 200.368463 208.271622 
L 201.091525 220.169427 
L 201.814586 195.602068 
L 202.537647 204.573656 
L 203.260709 200.940002 
L 203.98377 203.448188 
L 204.706831 207.532029 
L 205.429893 209.847277 
L 206.152954 207.499873 
L 206.876015 202.515657 
L 207.599077 204.091312 
L 208.322138 203.126625 
L 209.045199 200.457658 
L 209.768261 206.599498 
L 210.491322 203.351719 
L 211.214383 196.534598 
L 211.937445 195.216193 
L 212.660506 199.428659 
L 213.383568 187.402229 
L 214.106629 187.209292 
L 214.82969 205.570499 
L 215.552752 191.904101 
L 216.275813 197.788691 
L 216.998874 193.286819 
L 217.721936 195.344818 
L 218.444997 199.460815 
L 219.168058 200.36119 
L 219.89112 204.091312 
L 220.614181 201.454501 
L 221.337242 185.730105 
L 222.060304 196.824004 
L 222.783365 201.325877 
L 224.229488 190.328446 
L 224.952549 184.443856 
L 225.67561 242.807413 
L 227.121733 252.840157 
L 227.844794 239.463165 
L 228.567856 241.939195 
L 229.290917 242.421538 
L 230.013979 233.482106 
L 231.460101 244.929724 
L 232.183163 249.077878 
L 232.906224 244.704631 
L 234.352347 235.089918 
L 235.075408 244.061506 
L 235.798469 238.530635 
L 236.521531 248.306128 
L 237.244592 242.807413 
L 237.967653 238.337697 
L 238.690715 238.723572 
L 239.413776 238.65926 
L 240.136837 243.064663 
L 240.859899 244.994037 
L 241.58296 237.019292 
L 242.306021 234.318168 
L 243.029083 238.980822 
L 243.752144 241.199602 
L 244.475206 232.581732 
L 245.198267 238.65926 
L 245.921328 237.019292 
L 246.64439 230.073546 
L 247.367451 234.639731 
L 248.090512 233.803669 
L 248.813574 241.392539 
L 249.536635 237.694573 
L 250.982758 244.318756 
L 252.42888 232.356638 
L 253.875003 241.167445 
L 254.598064 231.327639 
L 255.321126 232.967607 
L 256.044187 235.379324 
L 256.767248 234.993449 
L 257.49031 238.048291 
L 258.213371 231.906451 
L 258.936432 240.556477 
L 259.659494 227.147329 
L 260.382555 227.693985 
L 261.105617 230.009234 
L 261.828678 234.864824 
L 262.551739 233.771513 
L 263.274801 231.134702 
L 263.997862 238.176916 
L 264.720923 228.07986 
L 265.443985 233.128388 
L 266.167046 233.353482 
L 266.890107 234.060919 
L 267.613169 229.816296 
L 268.33623 228.948078 
L 269.059291 234.671887 
L 269.782353 233.096232 
L 270.505414 232.903294 
L 271.228475 225.250112 
L 271.951537 232.388795 
L 272.674598 236.826354 
L 273.397659 229.52689 
L 274.120721 232.581732 
L 274.843782 243.482694 
L 276.289905 227.115173 
L 277.012966 230.684514 
L 277.736028 224.574831 
L 279.18215 233.160544 
L 279.905212 231.842139 
L 280.628273 224.928549 
L 281.351334 222.291738 
L 282.074396 233.514263 
L 282.797457 238.498478 
L 283.520518 224.928549 
L 284.24358 226.568517 
L 284.966641 228.883766 
L 285.689702 233.610731 
L 286.412764 228.562203 
L 287.135825 226.664986 
L 287.858886 223.095644 
L 289.305009 238.080447 
L 290.02807 227.243798 
L 290.751132 229.494734 
L 291.474193 241.424695 
L 292.920316 225.217955 
L 293.643377 221.519989 
L 294.366439 236.279699 
L 295.0895 213.0629 
L 295.812561 221.777239 
L 296.535623 222.516832 
L 297.258684 222.259582 
L 297.981745 222.227426 
L 298.704807 221.359208 
L 299.427868 227.404579 
L 300.150929 219.654928 
L 300.873991 220.780396 
L 301.597052 229.108859 
L 302.320113 218.175741 
L 303.043175 218.01496 
L 303.766236 223.224269 
L 304.489297 225.025018 
L 305.212359 224.028175 
L 305.93542 219.97649 
L 306.658481 225.957549 
L 307.381543 219.494146 
L 308.104604 216.085586 
L 308.827666 231.070389 
L 309.550727 218.368678 
L 310.273788 226.729298 
L 310.99685 219.687084 
L 311.719911 210.136684 
L 312.442972 210.16884 
L 313.166034 216.471461 
L 313.889095 207.17831 
L 314.612156 211.776651 
L 315.335218 219.622771 
L 316.058279 216.503617 
L 316.78134 220.201584 
L 317.504402 214.188369 
L 318.227463 213.866806 
L 318.950524 221.712926 
L 319.673586 219.912177 
L 320.396647 220.458833 
L 321.119708 223.577988 
L 321.84277 207.146154 
L 322.565831 213.673869 
L 323.288892 222.934863 
L 324.011954 217.661241 
L 324.735015 209.300622 
L 325.458077 205.924217 
L 326.181138 208.303778 
L 326.904199 217.050273 
L 327.627261 218.111429 
L 328.350322 214.574243 
L 329.073383 214.799337 
L 329.796445 217.178898 
L 331.242567 209.332778 
L 331.965629 216.889492 
L 332.68869 221.101958 
L 333.411751 215.474618 
L 334.134813 214.574243 
L 335.580935 210.619027 
L 336.303997 221.42352 
L 337.027058 214.34915 
L 337.750119 211.326464 
L 338.473181 221.455677 
L 339.196242 214.316993 
L 339.919304 205.73128 
L 340.642365 206.406561 
L 341.365426 222.645457 
L 342.088488 195.023255 
L 342.811549 210.490402 
L 343.53461 207.660654 
L 344.257672 207.17831 
L 344.980733 210.16884 
L 345.703794 210.200996 
L 346.426856 204.573656 
L 347.872978 216.149899 
L 348.59604 209.686496 
L 350.042162 202.161939 
L 350.765224 206.631655 
L 351.488285 217.275367 
L 352.211346 207.371248 
L 352.934408 203.158782 
L 353.657469 214.638556 
L 354.38053 208.432403 
L 355.103592 199.621596 
L 355.826653 200.650596 
L 356.549715 216.085586 
L 357.272776 192.064882 
L 357.995837 206.728123 
L 358.718899 201.068627 
L 359.44196 199.814534 
L 360.165021 204.316406 
L 360.888083 194.315818 
L 361.611144 199.010628 
L 362.334205 196.277348 
L 363.057267 205.184624 
L 363.780328 211.712339 
L 364.503389 192.322132 
L 365.226451 198.078097 
L 365.949512 197.402817 
L 366.672573 199.428659 
L 367.395635 200.972158 
L 368.118696 204.187781 
L 368.841757 203.801906 
L 369.564819 195.087568 
L 370.28788 197.660066 
L 371.010941 201.936845 
L 371.734003 200.489815 
L 372.457064 203.898375 
L 373.180126 201.229408 
L 373.903187 201.454501 
L 374.626248 194.540912 
L 375.34931 194.122881 
L 376.072371 189.52454 
L 376.795432 191.357445 
L 377.518494 212.033901 
L 378.241555 199.107097 
L 378.964616 203.416032 
L 379.687678 197.88516 
L 380.410739 196.952629 
L 381.1338 206.406561 
L 381.856862 205.634811 
L 382.579923 207.242623 
L 383.302984 201.80822 
L 384.026046 188.013197 
L 384.749107 199.557284 
L 385.472168 208.979059 
L 386.19523 200.039627 
L 386.918291 197.788691 
L 387.641353 187.723791 
L 388.364414 199.685909 
L 389.087475 198.463972 
L 389.810537 204.734437 
L 390.533598 202.676438 
L 391.256659 202.998001 
L 391.979721 208.271622 
L 392.702782 197.049098 
L 393.425843 189.685321 
L 394.148905 211.326464 
L 394.871966 206.599498 
L 395.595027 200.136096 
L 396.318089 201.743908 
L 397.04115 191.904101 
L 397.764211 203.094469 
L 398.487273 198.431816 
L 398.487273 198.431816 
" clip-path="url(#pe35637ea6b)" style="fill: none; stroke: #d62728; stroke-width: 1.5; stroke-linecap: square"/>
   </g>
   <g id="line2d_23">
    <path d="M 368.118696 55.336593 
L 368.841757 55.175811 
L 369.564819 54.822093 
L 370.28788 53.760937 
L 371.010941 53.568 
L 371.734003 55.01503 
L 372.457064 54.178968 
L 373.180126 54.243281 
L 373.903187 53.696625 
L 374.626248 54.854249 
L 375.34931 54.33975 
L 376.072371 54.822093 
L 376.795432 54.018187 
L 377.518494 53.696625 
L 378.241555 54.33975 
L 378.964616 56.236967 
L 379.687678 55.52953 
L 380.410739 56.494217 
L 381.1338 55.497374 
L 381.856862 54.693468 
L 382.579923 54.822093 
M 384.026046 57.265966 
L 385.472168 54.0825 
L 386.19523 57.265966 
L 386.918291 56.880092 
L 387.641353 56.140498 
L 388.364414 54.918562 
L 389.087475 57.651841 
L 389.810537 56.783623 
L 390.533598 55.400905 
L 391.256659 57.073029 
L 391.979721 57.008717 
L 392.702782 57.49106 
L 393.425843 57.23381 
L 394.148905 57.619685 
L 394.871966 57.23381 
L 395.595027 57.716154 
L 396.318089 58.584372 
L 397.04115 58.327122 
L 397.764211 56.880092 
L 398.487273 58.616528 
L 398.487273 58.616528 
" clip-path="url(#pe35637ea6b)" style="fill: none; stroke: #9467bd; stroke-width: 1.5; stroke-linecap: square"/>
   </g>
   <g id="line2d_24">
    <path d="M 368.118696 98.904958 
L 368.841757 97.685239 
L 369.564819 99.326315 
L 370.28788 96.831435 
L 371.010941 97.130821 
L 371.734003 98.328363 
L 372.457064 96.642933 
L 373.180126 96.376813 
L 373.903187 98.716456 
L 374.626248 99.714408 
L 375.34931 101.266777 
L 376.072371 99.703319 
L 376.795432 96.05525 
L 377.518494 95.500833 
L 378.241555 98.55013 
L 378.964616 103.140709 
L 379.687678 98.539042 
L 380.410739 98.527954 
L 381.1338 99.204343 
L 381.856862 99.137813 
L 383.302984 95.766953 
L 384.026046 99.448287 
L 384.749107 98.649926 
L 385.472168 99.392845 
L 386.19523 97.485648 
L 386.918291 96.875789 
L 387.641353 98.084419 
L 388.364414 96.809259 
L 389.087475 99.071283 
L 389.810537 98.15095 
L 390.533598 102.065139 
L 391.256659 103.650774 
L 391.979721 102.66391 
L 392.702782 100.767801 
L 393.425843 101.58834 
L 394.148905 103.185063 
L 394.871966 103.007649 
L 395.595027 103.129621 
L 396.318089 103.384653 
L 397.04115 102.264729 
L 397.764211 98.705367 
L 398.487273 101.444191 
L 398.487273 101.444191 
" clip-path="url(#pe35637ea6b)" style="fill: none; stroke: #8c564b; stroke-width: 1.5; stroke-linecap: square"/>
   </g>
   <g id="line2d_25">
    <path d="M 368.118696 204.445031 
L 368.841757 201.165095 
L 369.564819 193.093882 
L 370.28788 195.280505 
L 371.010941 198.592597 
L 371.734003 194.444443 
L 372.457064 198.045941 
L 373.180126 190.457071 
L 373.903187 196.727536 
L 374.626248 184.926199 
L 375.34931 188.07751 
L 376.072371 180.23139 
L 376.795432 178.720047 
L 377.518494 203.287407 
L 378.241555 187.337917 
L 378.964616 192.482913 
L 379.687678 184.025825 
L 380.410739 181.839201 
L 381.856862 193.865631 
L 383.302984 187.337917 
L 384.026046 175.761674 
L 384.749107 186.630479 
L 385.472168 190.264133 
L 386.19523 185.890886 
L 386.918291 180.167077 
L 387.641353 176.694204 
L 388.364414 183.993669 
L 389.087475 182.546638 
L 389.810537 183.929356 
L 390.533598 188.817103 
L 391.256659 187.402229 
L 391.979721 186.887729 
L 392.702782 185.183449 
L 393.425843 180.456483 
L 394.148905 192.482913 
L 394.871966 190.907258 
L 395.595027 184.283075 
L 396.318089 185.537168 
L 397.04115 181.93567 
L 397.764211 181.099608 
L 398.487273 185.697949 
L 398.487273 185.697949 
" clip-path="url(#pe35637ea6b)" style="fill: none; stroke: #e377c2; stroke-width: 1.5; stroke-linecap: square"/>
   </g>
   <g id="patch_3">
    <path d="M 57.6 307.584 
L 57.6 41.472 
" style="fill: none; stroke: #000000; stroke-width: 0.8; stroke-linejoin: miter; stroke-linecap: square"/>
   </g>
   <g id="patch_4">
    <path d="M 414.72 307.584 
L 414.72 41.472 
" style="fill: none; stroke: #000000; stroke-width: 0.8; stroke-linejoin: miter; stroke-linecap: square"/>
   </g>
   <g id="patch_5">
    <path d="M 57.6 307.584 
L 414.72 307.584 
" style="fill: none; stroke: #000000; stroke-width: 0.8; stroke-linejoin: miter; stroke-linecap: square"/>
   </g>
   <g id="patch_6">
    <path d="M 57.6 41.472 
L 414.72 41.472 
" style="fill: none; stroke: #000000; stroke-width: 0.8; stroke-linejoin: miter; stroke-linecap: square"/>
   </g>
   <g id="text_21">
    <!-- Learning Curves -->
    <g transform="translate(187.37625 35.472) scale(0.12 -0.12)">
     <defs>
      <path id="DejaVuSans-4c" d="M 628 4666 
L 1259 4666 
L 1259 531 
L 3531 531 
L 3531 0 
L 628 0 
L 628 4666 
z
" transform="scale(0.015625)"/>
      <path id="DejaVuSans-65" d="M 3597 1894 
L 3597 1613 
L 953 1613 
Q 991 1019 1311 708 
Q 1631 397 2203 397 
Q 2534 397 2845 478 
Q 3156 559 3463 722 
L 3463 178 
Q 3153 47 2828 -22 
Q 2503 -91 2169 -91 
Q 1331 -91 842 396 
Q 353 884 353 1716 
Q 353 2575 817 3079 
Q 1281 3584 2069 3584 
Q 2775 3584 3186 3129 
Q 3597 2675 3597 1894 
z
M 3022 2063 
Q 3016 2534 2758 2815 
Q 2500 3097 2075 3097 
Q 1594 3097 1305 2825 
Q 1016 2553 972 2059 
L 3022 2063 
z
" transform="scale(0.015625)"/>
      <path id="DejaVuSans-6e" d="M 3513 2113 
L 3513 0 
L 2938 0 
L 2938 2094 
Q 2938 2591 2744 2837 
Q 2550 3084 2163 3084 
Q 1697 3084 1428 2787 
Q 1159 2491 1159 1978 
L 1159 0 
L 581 0 
L 581 3500 
L 1159 3500 
L 1159 2956 
Q 1366 3272 1645 3428 
Q 1925 3584 2291 3584 
Q 2894 3584 3203 3211 
Q 3513 2838 3513 2113 
z
" transform="scale(0.015625)"/>
      <path id="DejaVuSans-69" d="M 603 3500 
L 1178 3500 
L 1178 0 
L 603 0 
L 603 3500 
z
M 603 4863 
L 1178 4863 
L 1178 4134 
L 603 4134 
L 603 4863 
z
" transform="scale(0.015625)"/>
      <path id="DejaVuSans-67" d="M 2906 1791 
Q 2906 2416 2648 2759 
Q 2391 3103 1925 3103 
Q 1463 3103 1205 2759 
Q 947 2416 947 1791 
Q 947 1169 1205 825 
Q 1463 481 1925 481 
Q 2391 481 2648 825 
Q 2906 1169 2906 1791 
z
M 3481 434 
Q 3481 -459 3084 -895 
Q 2688 -1331 1869 -1331 
Q 1566 -1331 1297 -1286 
Q 1028 -1241 775 -1147 
L 775 -588 
Q 1028 -725 1275 -790 
Q 1522 -856 1778 -856 
Q 2344 -856 2625 -561 
Q 2906 -266 2906 331 
L 2906 616 
Q 2728 306 2450 153 
Q 2172 0 1784 0 
Q 1141 0 747 490 
Q 353 981 353 1791 
Q 353 2603 747 3093 
Q 1141 3584 1784 3584 
Q 2172 3584 2450 3431 
Q 2728 3278 2906 2969 
L 2906 3500 
L 3481 3500 
L 3481 434 
z
" transform="scale(0.015625)"/>
      <path id="DejaVuSans-20" transform="scale(0.015625)"/>
      <path id="DejaVuSans-43" d="M 4122 4306 
L 4122 3641 
Q 3803 3938 3442 4084 
Q 3081 4231 2675 4231 
Q 1875 4231 1450 3742 
Q 1025 3253 1025 2328 
Q 1025 1406 1450 917 
Q 1875 428 2675 428 
Q 3081 428 3442 575 
Q 3803 722 4122 1019 
L 4122 359 
Q 3791 134 3420 21 
Q 3050 -91 2638 -91 
Q 1578 -91 968 557 
Q 359 1206 359 2328 
Q 359 3453 968 4101 
Q 1578 4750 2638 4750 
Q 3056 4750 3426 4639 
Q 3797 4528 4122 4306 
z
" transform="scale(0.015625)"/>
      <path id="DejaVuSans-76" d="M 191 3500 
L 800 3500 
L 1894 563 
L 2988 3500 
L 3597 3500 
L 2284 0 
L 1503 0 
L 191 3500 
z
" transform="scale(0.015625)"/>
     </defs>
     <use xlink:href="#DejaVuSans-4c"/>
     <use xlink:href="#DejaVuSans-65" x="53.962891"/>
     <use xlink:href="#DejaVuSans-61" x="115.486328"/>
     <use xlink:href="#DejaVuSans-72" x="176.765625"/>
     <use xlink:href="#DejaVuSans-6e" x="216.128906"/>
     <use xlink:href="#DejaVuSans-69" x="279.507812"/>
     <use xlink:href="#DejaVuSans-6e" x="307.291016"/>
     <use xlink:href="#DejaVuSans-67" x="370.669922"/>
     <use xlink:href="#DejaVuSans-20" x="434.146484"/>
     <use xlink:href="#DejaVuSans-43" x="465.933594"/>
     <use xlink:href="#DejaVuSans-75" x="535.757812"/>
     <use xlink:href="#DejaVuSans-72" x="599.136719"/>
     <use xlink:href="#DejaVuSans-76" x="640.25"/>
     <use xlink:href="#DejaVuSans-65" x="699.429688"/>
     <use xlink:href="#DejaVuSans-73" x="760.953125"/>
    </g>
   </g>
   <g id="legend_1">
    <g id="patch_7">
     <path d="M 128.445937 227.401437 
L 343.874063 227.401437 
Q 345.874063 227.401437 345.874063 225.401437 
L 345.874063 123.654562 
Q 345.874063 121.654562 343.874063 121.654562 
L 128.445937 121.654562 
Q 126.445937 121.654562 126.445937 123.654562 
L 126.445937 225.401437 
Q 126.445937 227.401437 128.445937 227.401437 
z
" style="fill: #ffffff; opacity: 0.8; stroke: #cccccc; stroke-linejoin: miter"/>
    </g>
    <g id="line2d_26">
     <path d="M 130.445937 129.753 
L 140.445937 129.753 
L 150.445937 129.753 
" style="fill: none; stroke: #1f77b4; stroke-width: 1.5; stroke-linecap: square"/>
    </g>
    <g id="text_22">
     <!-- Train Accuracy -->
     <g transform="translate(158.445937 133.253) scale(0.1 -0.1)">
      <defs>
       <path id="DejaVuSans-54" d="M -19 4666 
L 3928 4666 
L 3928 4134 
L 2272 4134 
L 2272 0 
L 1638 0 
L 1638 4134 
L -19 4134 
L -19 4666 
z
" transform="scale(0.015625)"/>
      </defs>
      <use xlink:href="#DejaVuSans-54"/>
      <use xlink:href="#DejaVuSans-72" x="46.333984"/>
      <use xlink:href="#DejaVuSans-61" x="87.447266"/>
      <use xlink:href="#DejaVuSans-69" x="148.726562"/>
      <use xlink:href="#DejaVuSans-6e" x="176.509766"/>
      <use xlink:href="#DejaVuSans-20" x="239.888672"/>
      <use xlink:href="#DejaVuSans-41" x="271.675781"/>
      <use xlink:href="#DejaVuSans-63" x="338.333984"/>
      <use xlink:href="#DejaVuSans-63" x="393.314453"/>
      <use xlink:href="#DejaVuSans-75" x="448.294922"/>
      <use xlink:href="#DejaVuSans-72" x="511.673828"/>
      <use xlink:href="#DejaVuSans-61" x="552.787109"/>
      <use xlink:href="#DejaVuSans-63" x="614.066406"/>
      <use xlink:href="#DejaVuSans-79" x="669.046875"/>
     </g>
    </g>
    <g id="line2d_27">
     <path d="M 130.445937 144.431125 
L 140.445937 144.431125 
L 150.445937 144.431125 
" style="fill: none; stroke: #ff7f0e; stroke-width: 1.5; stroke-linecap: square"/>
    </g>
    <g id="text_23">
     <!-- Validation Accuracy -->
     <g transform="translate(158.445937 147.931125) scale(0.1 -0.1)">
      <defs>
       <path id="DejaVuSans-56" d="M 1831 0 
L 50 4666 
L 709 4666 
L 2188 738 
L 3669 4666 
L 4325 4666 
L 2547 0 
L 1831 0 
z
" transform="scale(0.015625)"/>
       <path id="DejaVuSans-6c" d="M 603 4863 
L 1178 4863 
L 1178 0 
L 603 0 
L 603 4863 
z
" transform="scale(0.015625)"/>
       <path id="DejaVuSans-64" d="M 2906 2969 
L 2906 4863 
L 3481 4863 
L 3481 0 
L 2906 0 
L 2906 525 
Q 2725 213 2448 61 
Q 2172 -91 1784 -91 
Q 1150 -91 751 415 
Q 353 922 353 1747 
Q 353 2572 751 3078 
Q 1150 3584 1784 3584 
Q 2172 3584 2448 3432 
Q 2725 3281 2906 2969 
z
M 947 1747 
Q 947 1113 1208 752 
Q 1469 391 1925 391 
Q 2381 391 2643 752 
Q 2906 1113 2906 1747 
Q 2906 2381 2643 2742 
Q 2381 3103 1925 3103 
Q 1469 3103 1208 2742 
Q 947 2381 947 1747 
z
" transform="scale(0.015625)"/>
       <path id="DejaVuSans-74" d="M 1172 4494 
L 1172 3500 
L 2356 3500 
L 2356 3053 
L 1172 3053 
L 1172 1153 
Q 1172 725 1289 603 
Q 1406 481 1766 481 
L 2356 481 
L 2356 0 
L 1766 0 
Q 1100 0 847 248 
Q 594 497 594 1153 
L 594 3053 
L 172 3053 
L 172 3500 
L 594 3500 
L 594 4494 
L 1172 4494 
z
" transform="scale(0.015625)"/>
      </defs>
      <use xlink:href="#DejaVuSans-56"/>
      <use xlink:href="#DejaVuSans-61" x="60.658203"/>
      <use xlink:href="#DejaVuSans-6c" x="121.9375"/>
      <use xlink:href="#DejaVuSans-69" x="149.720703"/>
      <use xlink:href="#DejaVuSans-64" x="177.503906"/>
      <use xlink:href="#DejaVuSans-61" x="240.980469"/>
      <use xlink:href="#DejaVuSans-74" x="302.259766"/>
      <use xlink:href="#DejaVuSans-69" x="341.46875"/>
      <use xlink:href="#DejaVuSans-6f" x="369.251953"/>
      <use xlink:href="#DejaVuSans-6e" x="430.433594"/>
      <use xlink:href="#DejaVuSans-20" x="493.8125"/>
      <use xlink:href="#DejaVuSans-41" x="525.599609"/>
      <use xlink:href="#DejaVuSans-63" x="592.257812"/>
      <use xlink:href="#DejaVuSans-63" x="647.238281"/>
      <use xlink:href="#DejaVuSans-75" x="702.21875"/>
      <use xlink:href="#DejaVuSans-72" x="765.597656"/>
      <use xlink:href="#DejaVuSans-61" x="806.710938"/>
      <use xlink:href="#DejaVuSans-63" x="867.990234"/>
      <use xlink:href="#DejaVuSans-79" x="922.970703"/>
     </g>
    </g>
    <g id="line2d_28">
     <path d="M 130.445937 159.10925 
L 140.445937 159.10925 
L 150.445937 159.10925 
" style="fill: none; stroke: #2ca02c; stroke-width: 1.5; stroke-linecap: square"/>
    </g>
    <g id="text_24">
     <!-- Robust Validation Accuracy -->
     <g transform="translate(158.445937 162.60925) scale(0.1 -0.1)">
      <defs>
       <path id="DejaVuSans-52" d="M 2841 2188 
Q 3044 2119 3236 1894 
Q 3428 1669 3622 1275 
L 4263 0 
L 3584 0 
L 2988 1197 
Q 2756 1666 2539 1819 
Q 2322 1972 1947 1972 
L 1259 1972 
L 1259 0 
L 628 0 
L 628 4666 
L 2053 4666 
Q 2853 4666 3247 4331 
Q 3641 3997 3641 3322 
Q 3641 2881 3436 2590 
Q 3231 2300 2841 2188 
z
M 1259 4147 
L 1259 2491 
L 2053 2491 
Q 2509 2491 2742 2702 
Q 2975 2913 2975 3322 
Q 2975 3731 2742 3939 
Q 2509 4147 2053 4147 
L 1259 4147 
z
" transform="scale(0.015625)"/>
       <path id="DejaVuSans-62" d="M 3116 1747 
Q 3116 2381 2855 2742 
Q 2594 3103 2138 3103 
Q 1681 3103 1420 2742 
Q 1159 2381 1159 1747 
Q 1159 1113 1420 752 
Q 1681 391 2138 391 
Q 2594 391 2855 752 
Q 3116 1113 3116 1747 
z
M 1159 2969 
Q 1341 3281 1617 3432 
Q 1894 3584 2278 3584 
Q 2916 3584 3314 3078 
Q 3713 2572 3713 1747 
Q 3713 922 3314 415 
Q 2916 -91 2278 -91 
Q 1894 -91 1617 61 
Q 1341 213 1159 525 
L 1159 0 
L 581 0 
L 581 4863 
L 1159 4863 
L 1159 2969 
z
" transform="scale(0.015625)"/>
      </defs>
      <use xlink:href="#DejaVuSans-52"/>
      <use xlink:href="#DejaVuSans-6f" x="64.982422"/>
      <use xlink:href="#DejaVuSans-62" x="126.164062"/>
      <use xlink:href="#DejaVuSans-75" x="189.640625"/>
      <use xlink:href="#DejaVuSans-73" x="253.019531"/>
      <use xlink:href="#DejaVuSans-74" x="305.119141"/>
      <use xlink:href="#DejaVuSans-20" x="344.328125"/>
      <use xlink:href="#DejaVuSans-56" x="376.115234"/>
      <use xlink:href="#DejaVuSans-61" x="436.773438"/>
      <use xlink:href="#DejaVuSans-6c" x="498.052734"/>
      <use xlink:href="#DejaVuSans-69" x="525.835938"/>
      <use xlink:href="#DejaVuSans-64" x="553.619141"/>
      <use xlink:href="#DejaVuSans-61" x="617.095703"/>
      <use xlink:href="#DejaVuSans-74" x="678.375"/>
      <use xlink:href="#DejaVuSans-69" x="717.583984"/>
      <use xlink:href="#DejaVuSans-6f" x="745.367188"/>
      <use xlink:href="#DejaVuSans-6e" x="806.548828"/>
      <use xlink:href="#DejaVuSans-20" x="869.927734"/>
      <use xlink:href="#DejaVuSans-41" x="901.714844"/>
      <use xlink:href="#DejaVuSans-63" x="968.373047"/>
      <use xlink:href="#DejaVuSans-63" x="1023.353516"/>
      <use xlink:href="#DejaVuSans-75" x="1078.333984"/>
      <use xlink:href="#DejaVuSans-72" x="1141.712891"/>
      <use xlink:href="#DejaVuSans-61" x="1182.826172"/>
      <use xlink:href="#DejaVuSans-63" x="1244.105469"/>
      <use xlink:href="#DejaVuSans-79" x="1299.085938"/>
     </g>
    </g>
    <g id="line2d_29">
     <path d="M 130.445937 173.787375 
L 140.445937 173.787375 
L 150.445937 173.787375 
" style="fill: none; stroke: #d62728; stroke-width: 1.5; stroke-linecap: square"/>
    </g>
    <g id="text_25">
     <!-- Adversarial Validation Accuracy -->
     <g transform="translate(158.445937 177.287375) scale(0.1 -0.1)">
      <use xlink:href="#DejaVuSans-41"/>
      <use xlink:href="#DejaVuSans-64" x="66.658203"/>
      <use xlink:href="#DejaVuSans-76" x="130.134766"/>
      <use xlink:href="#DejaVuSans-65" x="189.314453"/>
      <use xlink:href="#DejaVuSans-72" x="250.837891"/>
      <use xlink:href="#DejaVuSans-73" x="291.951172"/>
      <use xlink:href="#DejaVuSans-61" x="344.050781"/>
      <use xlink:href="#DejaVuSans-72" x="405.330078"/>
      <use xlink:href="#DejaVuSans-69" x="446.443359"/>
      <use xlink:href="#DejaVuSans-61" x="474.226562"/>
      <use xlink:href="#DejaVuSans-6c" x="535.505859"/>
      <use xlink:href="#DejaVuSans-20" x="563.289062"/>
      <use xlink:href="#DejaVuSans-56" x="595.076172"/>
      <use xlink:href="#DejaVuSans-61" x="655.734375"/>
      <use xlink:href="#DejaVuSans-6c" x="717.013672"/>
      <use xlink:href="#DejaVuSans-69" x="744.796875"/>
      <use xlink:href="#DejaVuSans-64" x="772.580078"/>
      <use xlink:href="#DejaVuSans-61" x="836.056641"/>
      <use xlink:href="#DejaVuSans-74" x="897.335938"/>
      <use xlink:href="#DejaVuSans-69" x="936.544922"/>
      <use xlink:href="#DejaVuSans-6f" x="964.328125"/>
      <use xlink:href="#DejaVuSans-6e" x="1025.509766"/>
      <use xlink:href="#DejaVuSans-20" x="1088.888672"/>
      <use xlink:href="#DejaVuSans-41" x="1120.675781"/>
      <use xlink:href="#DejaVuSans-63" x="1187.333984"/>
      <use xlink:href="#DejaVuSans-63" x="1242.314453"/>
      <use xlink:href="#DejaVuSans-75" x="1297.294922"/>
      <use xlink:href="#DejaVuSans-72" x="1360.673828"/>
      <use xlink:href="#DejaVuSans-61" x="1401.787109"/>
      <use xlink:href="#DejaVuSans-63" x="1463.066406"/>
      <use xlink:href="#DejaVuSans-79" x="1518.046875"/>
     </g>
    </g>
    <g id="line2d_30">
     <path d="M 130.445937 188.4655 
L 140.445937 188.4655 
L 150.445937 188.4655 
" style="fill: none; stroke: #9467bd; stroke-width: 1.5; stroke-linecap: square"/>
    </g>
    <g id="text_26">
     <!-- SWA Validation Accuracy -->
     <g transform="translate(158.445937 191.9655) scale(0.1 -0.1)">
      <defs>
       <path id="DejaVuSans-53" d="M 3425 4513 
L 3425 3897 
Q 3066 4069 2747 4153 
Q 2428 4238 2131 4238 
Q 1616 4238 1336 4038 
Q 1056 3838 1056 3469 
Q 1056 3159 1242 3001 
Q 1428 2844 1947 2747 
L 2328 2669 
Q 3034 2534 3370 2195 
Q 3706 1856 3706 1288 
Q 3706 609 3251 259 
Q 2797 -91 1919 -91 
Q 1588 -91 1214 -16 
Q 841 59 441 206 
L 441 856 
Q 825 641 1194 531 
Q 1563 422 1919 422 
Q 2459 422 2753 634 
Q 3047 847 3047 1241 
Q 3047 1584 2836 1778 
Q 2625 1972 2144 2069 
L 1759 2144 
Q 1053 2284 737 2584 
Q 422 2884 422 3419 
Q 422 4038 858 4394 
Q 1294 4750 2059 4750 
Q 2388 4750 2728 4690 
Q 3069 4631 3425 4513 
z
" transform="scale(0.015625)"/>
       <path id="DejaVuSans-57" d="M 213 4666 
L 850 4666 
L 1831 722 
L 2809 4666 
L 3519 4666 
L 4500 722 
L 5478 4666 
L 6119 4666 
L 4947 0 
L 4153 0 
L 3169 4050 
L 2175 0 
L 1381 0 
L 213 4666 
z
" transform="scale(0.015625)"/>
      </defs>
      <use xlink:href="#DejaVuSans-53"/>
      <use xlink:href="#DejaVuSans-57" x="63.476562"/>
      <use xlink:href="#DejaVuSans-41" x="156.853516"/>
      <use xlink:href="#DejaVuSans-20" x="225.261719"/>
      <use xlink:href="#DejaVuSans-56" x="257.048828"/>
      <use xlink:href="#DejaVuSans-61" x="317.707031"/>
      <use xlink:href="#DejaVuSans-6c" x="378.986328"/>
      <use xlink:href="#DejaVuSans-69" x="406.769531"/>
      <use xlink:href="#DejaVuSans-64" x="434.552734"/>
      <use xlink:href="#DejaVuSans-61" x="498.029297"/>
      <use xlink:href="#DejaVuSans-74" x="559.308594"/>
      <use xlink:href="#DejaVuSans-69" x="598.517578"/>
      <use xlink:href="#DejaVuSans-6f" x="626.300781"/>
      <use xlink:href="#DejaVuSans-6e" x="687.482422"/>
      <use xlink:href="#DejaVuSans-20" x="750.861328"/>
      <use xlink:href="#DejaVuSans-41" x="782.648438"/>
      <use xlink:href="#DejaVuSans-63" x="849.306641"/>
      <use xlink:href="#DejaVuSans-63" x="904.287109"/>
      <use xlink:href="#DejaVuSans-75" x="959.267578"/>
      <use xlink:href="#DejaVuSans-72" x="1022.646484"/>
      <use xlink:href="#DejaVuSans-61" x="1063.759766"/>
      <use xlink:href="#DejaVuSans-63" x="1125.039062"/>
      <use xlink:href="#DejaVuSans-79" x="1180.019531"/>
     </g>
    </g>
    <g id="line2d_31">
     <path d="M 130.445937 203.143625 
L 140.445937 203.143625 
L 150.445937 203.143625 
" style="fill: none; stroke: #8c564b; stroke-width: 1.5; stroke-linecap: square"/>
    </g>
    <g id="text_27">
     <!-- SWA Robust Validation Accuracy -->
     <g transform="translate(158.445937 206.643625) scale(0.1 -0.1)">
      <use xlink:href="#DejaVuSans-53"/>
      <use xlink:href="#DejaVuSans-57" x="63.476562"/>
      <use xlink:href="#DejaVuSans-41" x="156.853516"/>
      <use xlink:href="#DejaVuSans-20" x="225.261719"/>
      <use xlink:href="#DejaVuSans-52" x="257.048828"/>
      <use xlink:href="#DejaVuSans-6f" x="322.03125"/>
      <use xlink:href="#DejaVuSans-62" x="383.212891"/>
      <use xlink:href="#DejaVuSans-75" x="446.689453"/>
      <use xlink:href="#DejaVuSans-73" x="510.068359"/>
      <use xlink:href="#DejaVuSans-74" x="562.167969"/>
      <use xlink:href="#DejaVuSans-20" x="601.376953"/>
      <use xlink:href="#DejaVuSans-56" x="633.164062"/>
      <use xlink:href="#DejaVuSans-61" x="693.822266"/>
      <use xlink:href="#DejaVuSans-6c" x="755.101562"/>
      <use xlink:href="#DejaVuSans-69" x="782.884766"/>
      <use xlink:href="#DejaVuSans-64" x="810.667969"/>
      <use xlink:href="#DejaVuSans-61" x="874.144531"/>
      <use xlink:href="#DejaVuSans-74" x="935.423828"/>
      <use xlink:href="#DejaVuSans-69" x="974.632812"/>
      <use xlink:href="#DejaVuSans-6f" x="1002.416016"/>
      <use xlink:href="#DejaVuSans-6e" x="1063.597656"/>
      <use xlink:href="#DejaVuSans-20" x="1126.976562"/>
      <use xlink:href="#DejaVuSans-41" x="1158.763672"/>
      <use xlink:href="#DejaVuSans-63" x="1225.421875"/>
      <use xlink:href="#DejaVuSans-63" x="1280.402344"/>
      <use xlink:href="#DejaVuSans-75" x="1335.382812"/>
      <use xlink:href="#DejaVuSans-72" x="1398.761719"/>
      <use xlink:href="#DejaVuSans-61" x="1439.875"/>
      <use xlink:href="#DejaVuSans-63" x="1501.154297"/>
      <use xlink:href="#DejaVuSans-79" x="1556.134766"/>
     </g>
    </g>
    <g id="line2d_32">
     <path d="M 130.445937 217.82175 
L 140.445937 217.82175 
L 150.445937 217.82175 
" style="fill: none; stroke: #e377c2; stroke-width: 1.5; stroke-linecap: square"/>
    </g>
    <g id="text_28">
     <!-- SWA Adversarial Validation Accuracy -->
     <g transform="translate(158.445937 221.32175) scale(0.1 -0.1)">
      <use xlink:href="#DejaVuSans-53"/>
      <use xlink:href="#DejaVuSans-57" x="63.476562"/>
      <use xlink:href="#DejaVuSans-41" x="156.853516"/>
      <use xlink:href="#DejaVuSans-20" x="225.261719"/>
      <use xlink:href="#DejaVuSans-41" x="257.048828"/>
      <use xlink:href="#DejaVuSans-64" x="323.707031"/>
      <use xlink:href="#DejaVuSans-76" x="387.183594"/>
      <use xlink:href="#DejaVuSans-65" x="446.363281"/>
      <use xlink:href="#DejaVuSans-72" x="507.886719"/>
      <use xlink:href="#DejaVuSans-73" x="549"/>
      <use xlink:href="#DejaVuSans-61" x="601.099609"/>
      <use xlink:href="#DejaVuSans-72" x="662.378906"/>
      <use xlink:href="#DejaVuSans-69" x="703.492188"/>
      <use xlink:href="#DejaVuSans-61" x="731.275391"/>
      <use xlink:href="#DejaVuSans-6c" x="792.554688"/>
      <use xlink:href="#DejaVuSans-20" x="820.337891"/>
      <use xlink:href="#DejaVuSans-56" x="852.125"/>
      <use xlink:href="#DejaVuSans-61" x="912.783203"/>
      <use xlink:href="#DejaVuSans-6c" x="974.0625"/>
      <use xlink:href="#DejaVuSans-69" x="1001.845703"/>
      <use xlink:href="#DejaVuSans-64" x="1029.628906"/>
      <use xlink:href="#DejaVuSans-61" x="1093.105469"/>
      <use xlink:href="#DejaVuSans-74" x="1154.384766"/>
      <use xlink:href="#DejaVuSans-69" x="1193.59375"/>
      <use xlink:href="#DejaVuSans-6f" x="1221.376953"/>
      <use xlink:href="#DejaVuSans-6e" x="1282.558594"/>
      <use xlink:href="#DejaVuSans-20" x="1345.9375"/>
      <use xlink:href="#DejaVuSans-41" x="1377.724609"/>
      <use xlink:href="#DejaVuSans-63" x="1444.382812"/>
      <use xlink:href="#DejaVuSans-63" x="1499.363281"/>
      <use xlink:href="#DejaVuSans-75" x="1554.34375"/>
      <use xlink:href="#DejaVuSans-72" x="1617.722656"/>
      <use xlink:href="#DejaVuSans-61" x="1658.835938"/>
      <use xlink:href="#DejaVuSans-63" x="1720.115234"/>
      <use xlink:href="#DejaVuSans-79" x="1775.095703"/>
     </g>
    </g>
   </g>
  </g>
 </g>
 <defs>
  <clipPath id="pe35637ea6b">
   <rect x="57.6" y="41.472" width="357.12" height="266.112"/>
  </clipPath>
 </defs>
</svg>
