<?xml version="1.0" encoding="utf-8" standalone="no"?>
<!DOCTYPE svg PUBLIC "-//W3C//DTD SVG 1.1//EN"
  "http://www.w3.org/Graphics/SVG/1.1/DTD/svg11.dtd">
<svg xmlns:xlink="http://www.w3.org/1999/xlink" width="460.8pt" height="345.6pt" viewBox="0 0 460.8 345.6" xmlns="http://www.w3.org/2000/svg" version="1.1">
 <metadata>
  <rdf:RDF xmlns:dc="http://purl.org/dc/elements/1.1/" xmlns:cc="http://creativecommons.org/ns#" xmlns:rdf="http://www.w3.org/1999/02/22-rdf-syntax-ns#">
   <cc:Work>
    <dc:type rdf:resource="http://purl.org/dc/dcmitype/StillImage"/>
    <dc:date>2024-08-21T19:20:09.655321</dc:date>
    <dc:format>image/svg+xml</dc:format>
    <dc:creator>
     <cc:Agent>
      <dc:title>Matplotlib v3.9.1, https://matplotlib.org/</dc:title>
     </cc:Agent>
    </dc:creator>
   </cc:Work>
  </rdf:RDF>
 </metadata>
 <defs>
  <style type="text/css">*{stroke-linejoin: round; stroke-linecap: butt}</style>
 </defs>
 <g id="figure_1">
  <g id="patch_1">
   <path d="M 0 345.6 
L 460.8 345.6 
L 460.8 0 
L 0 0 
z
" style="fill: #ffffff"/>
  </g>
  <g id="axes_1">
   <g id="patch_2">
    <path d="M 57.6 307.584 
L 414.72 307.584 
L 414.72 41.472 
L 57.6 41.472 
z
" style="fill: #ffffff"/>
   </g>
   <g id="matplotlib.axis_1">
    <g id="xtick_1">
     <g id="line2d_1">
      <defs>
       <path id="mde6bd4394c" d="M 0 0 
L 0 3.5 
" style="stroke: #000000; stroke-width: 0.8"/>
      </defs>
      <g>
       <use xlink:href="#mde6bd4394c" x="73.832727" y="307.584" style="stroke: #000000; stroke-width: 0.8"/>
      </g>
     </g>
     <g id="text_1">
      <!-- 1 -->
      <g transform="translate(70.651477 322.182437) scale(0.1 -0.1)">
       <defs>
        <path id="DejaVuSans-31" d="M 794 531 
L 1825 531 
L 1825 4091 
L 703 3866 
L 703 4441 
L 1819 4666 
L 2450 4666 
L 2450 531 
L 3481 531 
L 3481 0 
L 794 0 
L 794 531 
z
" transform="scale(0.015625)"/>
       </defs>
       <use xlink:href="#DejaVuSans-31"/>
      </g>
     </g>
    </g>
    <g id="xtick_2">
     <g id="line2d_2">
      <g>
       <use xlink:href="#mde6bd4394c" x="109.262733" y="307.584" style="stroke: #000000; stroke-width: 0.8"/>
      </g>
     </g>
     <g id="text_2">
      <!-- 50 -->
      <g transform="translate(102.900233 322.182437) scale(0.1 -0.1)">
       <defs>
        <path id="DejaVuSans-35" d="M 691 4666 
L 3169 4666 
L 3169 4134 
L 1269 4134 
L 1269 2991 
Q 1406 3038 1543 3061 
Q 1681 3084 1819 3084 
Q 2600 3084 3056 2656 
Q 3513 2228 3513 1497 
Q 3513 744 3044 326 
Q 2575 -91 1722 -91 
Q 1428 -91 1123 -41 
Q 819 9 494 109 
L 494 744 
Q 775 591 1075 516 
Q 1375 441 1709 441 
Q 2250 441 2565 725 
Q 2881 1009 2881 1497 
Q 2881 1984 2565 2268 
Q 2250 2553 1709 2553 
Q 1456 2553 1204 2497 
Q 953 2441 691 2322 
L 691 4666 
z
" transform="scale(0.015625)"/>
        <path id="DejaVuSans-30" d="M 2034 4250 
Q 1547 4250 1301 3770 
Q 1056 3291 1056 2328 
Q 1056 1369 1301 889 
Q 1547 409 2034 409 
Q 2525 409 2770 889 
Q 3016 1369 3016 2328 
Q 3016 3291 2770 3770 
Q 2525 4250 2034 4250 
z
M 2034 4750 
Q 2819 4750 3233 4129 
Q 3647 3509 3647 2328 
Q 3647 1150 3233 529 
Q 2819 -91 2034 -91 
Q 1250 -91 836 529 
Q 422 1150 422 2328 
Q 422 3509 836 4129 
Q 1250 4750 2034 4750 
z
" transform="scale(0.015625)"/>
       </defs>
       <use xlink:href="#DejaVuSans-35"/>
       <use xlink:href="#DejaVuSans-30" x="63.623047"/>
      </g>
     </g>
    </g>
    <g id="xtick_3">
     <g id="line2d_3">
      <g>
       <use xlink:href="#mde6bd4394c" x="145.415801" y="307.584" style="stroke: #000000; stroke-width: 0.8"/>
      </g>
     </g>
     <g id="text_3">
      <!-- 100 -->
      <g transform="translate(135.872051 322.182437) scale(0.1 -0.1)">
       <use xlink:href="#DejaVuSans-31"/>
       <use xlink:href="#DejaVuSans-30" x="63.623047"/>
       <use xlink:href="#DejaVuSans-30" x="127.246094"/>
      </g>
     </g>
    </g>
    <g id="xtick_4">
     <g id="line2d_4">
      <g>
       <use xlink:href="#mde6bd4394c" x="181.568868" y="307.584" style="stroke: #000000; stroke-width: 0.8"/>
      </g>
     </g>
     <g id="text_4">
      <!-- 150 -->
      <g transform="translate(172.025118 322.182437) scale(0.1 -0.1)">
       <use xlink:href="#DejaVuSans-31"/>
       <use xlink:href="#DejaVuSans-35" x="63.623047"/>
       <use xlink:href="#DejaVuSans-30" x="127.246094"/>
      </g>
     </g>
    </g>
    <g id="xtick_5">
     <g id="line2d_5">
      <g>
       <use xlink:href="#mde6bd4394c" x="217.721936" y="307.584" style="stroke: #000000; stroke-width: 0.8"/>
      </g>
     </g>
     <g id="text_5">
      <!-- 200 -->
      <g transform="translate(208.178186 322.182437) scale(0.1 -0.1)">
       <defs>
        <path id="DejaVuSans-32" d="M 1228 531 
L 3431 531 
L 3431 0 
L 469 0 
L 469 531 
Q 828 903 1448 1529 
Q 2069 2156 2228 2338 
Q 2531 2678 2651 2914 
Q 2772 3150 2772 3378 
Q 2772 3750 2511 3984 
Q 2250 4219 1831 4219 
Q 1534 4219 1204 4116 
Q 875 4013 500 3803 
L 500 4441 
Q 881 4594 1212 4672 
Q 1544 4750 1819 4750 
Q 2544 4750 2975 4387 
Q 3406 4025 3406 3419 
Q 3406 3131 3298 2873 
Q 3191 2616 2906 2266 
Q 2828 2175 2409 1742 
Q 1991 1309 1228 531 
z
" transform="scale(0.015625)"/>
       </defs>
       <use xlink:href="#DejaVuSans-32"/>
       <use xlink:href="#DejaVuSans-30" x="63.623047"/>
       <use xlink:href="#DejaVuSans-30" x="127.246094"/>
      </g>
     </g>
    </g>
    <g id="xtick_6">
     <g id="line2d_6">
      <g>
       <use xlink:href="#mde6bd4394c" x="253.875003" y="307.584" style="stroke: #000000; stroke-width: 0.8"/>
      </g>
     </g>
     <g id="text_6">
      <!-- 250 -->
      <g transform="translate(244.331253 322.182437) scale(0.1 -0.1)">
       <use xlink:href="#DejaVuSans-32"/>
       <use xlink:href="#DejaVuSans-35" x="63.623047"/>
       <use xlink:href="#DejaVuSans-30" x="127.246094"/>
      </g>
     </g>
    </g>
    <g id="xtick_7">
     <g id="line2d_7">
      <g>
       <use xlink:href="#mde6bd4394c" x="290.02807" y="307.584" style="stroke: #000000; stroke-width: 0.8"/>
      </g>
     </g>
     <g id="text_7">
      <!-- 300 -->
      <g transform="translate(280.48432 322.182437) scale(0.1 -0.1)">
       <defs>
        <path id="DejaVuSans-33" d="M 2597 2516 
Q 3050 2419 3304 2112 
Q 3559 1806 3559 1356 
Q 3559 666 3084 287 
Q 2609 -91 1734 -91 
Q 1441 -91 1130 -33 
Q 819 25 488 141 
L 488 750 
Q 750 597 1062 519 
Q 1375 441 1716 441 
Q 2309 441 2620 675 
Q 2931 909 2931 1356 
Q 2931 1769 2642 2001 
Q 2353 2234 1838 2234 
L 1294 2234 
L 1294 2753 
L 1863 2753 
Q 2328 2753 2575 2939 
Q 2822 3125 2822 3475 
Q 2822 3834 2567 4026 
Q 2313 4219 1838 4219 
Q 1578 4219 1281 4162 
Q 984 4106 628 3988 
L 628 4550 
Q 988 4650 1302 4700 
Q 1616 4750 1894 4750 
Q 2613 4750 3031 4423 
Q 3450 4097 3450 3541 
Q 3450 3153 3228 2886 
Q 3006 2619 2597 2516 
z
" transform="scale(0.015625)"/>
       </defs>
       <use xlink:href="#DejaVuSans-33"/>
       <use xlink:href="#DejaVuSans-30" x="63.623047"/>
       <use xlink:href="#DejaVuSans-30" x="127.246094"/>
      </g>
     </g>
    </g>
    <g id="xtick_8">
     <g id="line2d_8">
      <g>
       <use xlink:href="#mde6bd4394c" x="326.181138" y="307.584" style="stroke: #000000; stroke-width: 0.8"/>
      </g>
     </g>
     <g id="text_8">
      <!-- 350 -->
      <g transform="translate(316.637388 322.182437) scale(0.1 -0.1)">
       <use xlink:href="#DejaVuSans-33"/>
       <use xlink:href="#DejaVuSans-35" x="63.623047"/>
       <use xlink:href="#DejaVuSans-30" x="127.246094"/>
      </g>
     </g>
    </g>
    <g id="xtick_9">
     <g id="line2d_9">
      <g>
       <use xlink:href="#mde6bd4394c" x="362.334205" y="307.584" style="stroke: #000000; stroke-width: 0.8"/>
      </g>
     </g>
     <g id="text_9">
      <!-- 400 -->
      <g transform="translate(352.790455 322.182437) scale(0.1 -0.1)">
       <defs>
        <path id="DejaVuSans-34" d="M 2419 4116 
L 825 1625 
L 2419 1625 
L 2419 4116 
z
M 2253 4666 
L 3047 4666 
L 3047 1625 
L 3713 1625 
L 3713 1100 
L 3047 1100 
L 3047 0 
L 2419 0 
L 2419 1100 
L 313 1100 
L 313 1709 
L 2253 4666 
z
" transform="scale(0.015625)"/>
       </defs>
       <use xlink:href="#DejaVuSans-34"/>
       <use xlink:href="#DejaVuSans-30" x="63.623047"/>
       <use xlink:href="#DejaVuSans-30" x="127.246094"/>
      </g>
     </g>
    </g>
    <g id="xtick_10">
     <g id="line2d_10">
      <g>
       <use xlink:href="#mde6bd4394c" x="398.487273" y="307.584" style="stroke: #000000; stroke-width: 0.8"/>
      </g>
     </g>
     <g id="text_10">
      <!-- 450 -->
      <g transform="translate(388.943523 322.182437) scale(0.1 -0.1)">
       <use xlink:href="#DejaVuSans-34"/>
       <use xlink:href="#DejaVuSans-35" x="63.623047"/>
       <use xlink:href="#DejaVuSans-30" x="127.246094"/>
      </g>
     </g>
    </g>
    <g id="text_11">
     <!-- Epochs -->
     <g transform="translate(218.244375 335.860562) scale(0.1 -0.1)">
      <defs>
       <path id="DejaVuSans-45" d="M 628 4666 
L 3578 4666 
L 3578 4134 
L 1259 4134 
L 1259 2753 
L 3481 2753 
L 3481 2222 
L 1259 2222 
L 1259 531 
L 3634 531 
L 3634 0 
L 628 0 
L 628 4666 
z
" transform="scale(0.015625)"/>
       <path id="DejaVuSans-70" d="M 1159 525 
L 1159 -1331 
L 581 -1331 
L 581 3500 
L 1159 3500 
L 1159 2969 
Q 1341 3281 1617 3432 
Q 1894 3584 2278 3584 
Q 2916 3584 3314 3078 
Q 3713 2572 3713 1747 
Q 3713 922 3314 415 
Q 2916 -91 2278 -91 
Q 1894 -91 1617 61 
Q 1341 213 1159 525 
z
M 3116 1747 
Q 3116 2381 2855 2742 
Q 2594 3103 2138 3103 
Q 1681 3103 1420 2742 
Q 1159 2381 1159 1747 
Q 1159 1113 1420 752 
Q 1681 391 2138 391 
Q 2594 391 2855 752 
Q 3116 1113 3116 1747 
z
" transform="scale(0.015625)"/>
       <path id="DejaVuSans-6f" d="M 1959 3097 
Q 1497 3097 1228 2736 
Q 959 2375 959 1747 
Q 959 1119 1226 758 
Q 1494 397 1959 397 
Q 2419 397 2687 759 
Q 2956 1122 2956 1747 
Q 2956 2369 2687 2733 
Q 2419 3097 1959 3097 
z
M 1959 3584 
Q 2709 3584 3137 3096 
Q 3566 2609 3566 1747 
Q 3566 888 3137 398 
Q 2709 -91 1959 -91 
Q 1206 -91 779 398 
Q 353 888 353 1747 
Q 353 2609 779 3096 
Q 1206 3584 1959 3584 
z
" transform="scale(0.015625)"/>
       <path id="DejaVuSans-63" d="M 3122 3366 
L 3122 2828 
Q 2878 2963 2633 3030 
Q 2388 3097 2138 3097 
Q 1578 3097 1268 2742 
Q 959 2388 959 1747 
Q 959 1106 1268 751 
Q 1578 397 2138 397 
Q 2388 397 2633 464 
Q 2878 531 3122 666 
L 3122 134 
Q 2881 22 2623 -34 
Q 2366 -91 2075 -91 
Q 1284 -91 818 406 
Q 353 903 353 1747 
Q 353 2603 823 3093 
Q 1294 3584 2113 3584 
Q 2378 3584 2631 3529 
Q 2884 3475 3122 3366 
z
" transform="scale(0.015625)"/>
       <path id="DejaVuSans-68" d="M 3513 2113 
L 3513 0 
L 2938 0 
L 2938 2094 
Q 2938 2591 2744 2837 
Q 2550 3084 2163 3084 
Q 1697 3084 1428 2787 
Q 1159 2491 1159 1978 
L 1159 0 
L 581 0 
L 581 4863 
L 1159 4863 
L 1159 2956 
Q 1366 3272 1645 3428 
Q 1925 3584 2291 3584 
Q 2894 3584 3203 3211 
Q 3513 2838 3513 2113 
z
" transform="scale(0.015625)"/>
       <path id="DejaVuSans-73" d="M 2834 3397 
L 2834 2853 
Q 2591 2978 2328 3040 
Q 2066 3103 1784 3103 
Q 1356 3103 1142 2972 
Q 928 2841 928 2578 
Q 928 2378 1081 2264 
Q 1234 2150 1697 2047 
L 1894 2003 
Q 2506 1872 2764 1633 
Q 3022 1394 3022 966 
Q 3022 478 2636 193 
Q 2250 -91 1575 -91 
Q 1294 -91 989 -36 
Q 684 19 347 128 
L 347 722 
Q 666 556 975 473 
Q 1284 391 1588 391 
Q 1994 391 2212 530 
Q 2431 669 2431 922 
Q 2431 1156 2273 1281 
Q 2116 1406 1581 1522 
L 1381 1569 
Q 847 1681 609 1914 
Q 372 2147 372 2553 
Q 372 3047 722 3315 
Q 1072 3584 1716 3584 
Q 2034 3584 2315 3537 
Q 2597 3491 2834 3397 
z
" transform="scale(0.015625)"/>
      </defs>
      <use xlink:href="#DejaVuSans-45"/>
      <use xlink:href="#DejaVuSans-70" x="63.183594"/>
      <use xlink:href="#DejaVuSans-6f" x="126.660156"/>
      <use xlink:href="#DejaVuSans-63" x="187.841797"/>
      <use xlink:href="#DejaVuSans-68" x="242.822266"/>
      <use xlink:href="#DejaVuSans-73" x="306.201172"/>
     </g>
    </g>
   </g>
   <g id="matplotlib.axis_2">
    <g id="ytick_1">
     <g id="line2d_11">
      <defs>
       <path id="mf1dd9f7c6a" d="M 0 0 
L -3.5 0 
" style="stroke: #000000; stroke-width: 0.8"/>
      </defs>
      <g>
       <use xlink:href="#mf1dd9f7c6a" x="57.6" y="286.473515" style="stroke: #000000; stroke-width: 0.8"/>
      </g>
     </g>
     <g id="text_12">
      <!-- 10 -->
      <g transform="translate(37.875 290.272734) scale(0.1 -0.1)">
       <use xlink:href="#DejaVuSans-31"/>
       <use xlink:href="#DejaVuSans-30" x="63.623047"/>
      </g>
     </g>
    </g>
    <g id="ytick_2">
     <g id="line2d_12">
      <g>
       <use xlink:href="#mf1dd9f7c6a" x="57.6" y="254.339752" style="stroke: #000000; stroke-width: 0.8"/>
      </g>
     </g>
     <g id="text_13">
      <!-- 20 -->
      <g transform="translate(37.875 258.138971) scale(0.1 -0.1)">
       <use xlink:href="#DejaVuSans-32"/>
       <use xlink:href="#DejaVuSans-30" x="63.623047"/>
      </g>
     </g>
    </g>
    <g id="ytick_3">
     <g id="line2d_13">
      <g>
       <use xlink:href="#mf1dd9f7c6a" x="57.6" y="222.205989" style="stroke: #000000; stroke-width: 0.8"/>
      </g>
     </g>
     <g id="text_14">
      <!-- 30 -->
      <g transform="translate(37.875 226.005208) scale(0.1 -0.1)">
       <use xlink:href="#DejaVuSans-33"/>
       <use xlink:href="#DejaVuSans-30" x="63.623047"/>
      </g>
     </g>
    </g>
    <g id="ytick_4">
     <g id="line2d_14">
      <g>
       <use xlink:href="#mf1dd9f7c6a" x="57.6" y="190.072226" style="stroke: #000000; stroke-width: 0.8"/>
      </g>
     </g>
     <g id="text_15">
      <!-- 40 -->
      <g transform="translate(37.875 193.871445) scale(0.1 -0.1)">
       <use xlink:href="#DejaVuSans-34"/>
       <use xlink:href="#DejaVuSans-30" x="63.623047"/>
      </g>
     </g>
    </g>
    <g id="ytick_5">
     <g id="line2d_15">
      <g>
       <use xlink:href="#mf1dd9f7c6a" x="57.6" y="157.938463" style="stroke: #000000; stroke-width: 0.8"/>
      </g>
     </g>
     <g id="text_16">
      <!-- 50 -->
      <g transform="translate(37.875 161.737682) scale(0.1 -0.1)">
       <use xlink:href="#DejaVuSans-35"/>
       <use xlink:href="#DejaVuSans-30" x="63.623047"/>
      </g>
     </g>
    </g>
    <g id="ytick_6">
     <g id="line2d_16">
      <g>
       <use xlink:href="#mf1dd9f7c6a" x="57.6" y="125.8047" style="stroke: #000000; stroke-width: 0.8"/>
      </g>
     </g>
     <g id="text_17">
      <!-- 60 -->
      <g transform="translate(37.875 129.603918) scale(0.1 -0.1)">
       <defs>
        <path id="DejaVuSans-36" d="M 2113 2584 
Q 1688 2584 1439 2293 
Q 1191 2003 1191 1497 
Q 1191 994 1439 701 
Q 1688 409 2113 409 
Q 2538 409 2786 701 
Q 3034 994 3034 1497 
Q 3034 2003 2786 2293 
Q 2538 2584 2113 2584 
z
M 3366 4563 
L 3366 3988 
Q 3128 4100 2886 4159 
Q 2644 4219 2406 4219 
Q 1781 4219 1451 3797 
Q 1122 3375 1075 2522 
Q 1259 2794 1537 2939 
Q 1816 3084 2150 3084 
Q 2853 3084 3261 2657 
Q 3669 2231 3669 1497 
Q 3669 778 3244 343 
Q 2819 -91 2113 -91 
Q 1303 -91 875 529 
Q 447 1150 447 2328 
Q 447 3434 972 4092 
Q 1497 4750 2381 4750 
Q 2619 4750 2861 4703 
Q 3103 4656 3366 4563 
z
" transform="scale(0.015625)"/>
       </defs>
       <use xlink:href="#DejaVuSans-36"/>
       <use xlink:href="#DejaVuSans-30" x="63.623047"/>
      </g>
     </g>
    </g>
    <g id="ytick_7">
     <g id="line2d_17">
      <g>
       <use xlink:href="#mf1dd9f7c6a" x="57.6" y="93.670936" style="stroke: #000000; stroke-width: 0.8"/>
      </g>
     </g>
     <g id="text_18">
      <!-- 70 -->
      <g transform="translate(37.875 97.470155) scale(0.1 -0.1)">
       <defs>
        <path id="DejaVuSans-37" d="M 525 4666 
L 3525 4666 
L 3525 4397 
L 1831 0 
L 1172 0 
L 2766 4134 
L 525 4134 
L 525 4666 
z
" transform="scale(0.015625)"/>
       </defs>
       <use xlink:href="#DejaVuSans-37"/>
       <use xlink:href="#DejaVuSans-30" x="63.623047"/>
      </g>
     </g>
    </g>
    <g id="ytick_8">
     <g id="line2d_18">
      <g>
       <use xlink:href="#mf1dd9f7c6a" x="57.6" y="61.537173" style="stroke: #000000; stroke-width: 0.8"/>
      </g>
     </g>
     <g id="text_19">
      <!-- 80 -->
      <g transform="translate(37.875 65.336392) scale(0.1 -0.1)">
       <defs>
        <path id="DejaVuSans-38" d="M 2034 2216 
Q 1584 2216 1326 1975 
Q 1069 1734 1069 1313 
Q 1069 891 1326 650 
Q 1584 409 2034 409 
Q 2484 409 2743 651 
Q 3003 894 3003 1313 
Q 3003 1734 2745 1975 
Q 2488 2216 2034 2216 
z
M 1403 2484 
Q 997 2584 770 2862 
Q 544 3141 544 3541 
Q 544 4100 942 4425 
Q 1341 4750 2034 4750 
Q 2731 4750 3128 4425 
Q 3525 4100 3525 3541 
Q 3525 3141 3298 2862 
Q 3072 2584 2669 2484 
Q 3125 2378 3379 2068 
Q 3634 1759 3634 1313 
Q 3634 634 3220 271 
Q 2806 -91 2034 -91 
Q 1263 -91 848 271 
Q 434 634 434 1313 
Q 434 1759 690 2068 
Q 947 2378 1403 2484 
z
M 1172 3481 
Q 1172 3119 1398 2916 
Q 1625 2713 2034 2713 
Q 2441 2713 2670 2916 
Q 2900 3119 2900 3481 
Q 2900 3844 2670 4047 
Q 2441 4250 2034 4250 
Q 1625 4250 1398 4047 
Q 1172 3844 1172 3481 
z
" transform="scale(0.015625)"/>
       </defs>
       <use xlink:href="#DejaVuSans-38"/>
       <use xlink:href="#DejaVuSans-30" x="63.623047"/>
      </g>
     </g>
    </g>
    <g id="text_20">
     <!-- Accuracy -->
     <g transform="translate(31.795312 197.356125) rotate(-90) scale(0.1 -0.1)">
      <defs>
       <path id="DejaVuSans-41" d="M 2188 4044 
L 1331 1722 
L 3047 1722 
L 2188 4044 
z
M 1831 4666 
L 2547 4666 
L 4325 0 
L 3669 0 
L 3244 1197 
L 1141 1197 
L 716 0 
L 50 0 
L 1831 4666 
z
" transform="scale(0.015625)"/>
       <path id="DejaVuSans-75" d="M 544 1381 
L 544 3500 
L 1119 3500 
L 1119 1403 
Q 1119 906 1312 657 
Q 1506 409 1894 409 
Q 2359 409 2629 706 
Q 2900 1003 2900 1516 
L 2900 3500 
L 3475 3500 
L 3475 0 
L 2900 0 
L 2900 538 
Q 2691 219 2414 64 
Q 2138 -91 1772 -91 
Q 1169 -91 856 284 
Q 544 659 544 1381 
z
M 1991 3584 
L 1991 3584 
z
" transform="scale(0.015625)"/>
       <path id="DejaVuSans-72" d="M 2631 2963 
Q 2534 3019 2420 3045 
Q 2306 3072 2169 3072 
Q 1681 3072 1420 2755 
Q 1159 2438 1159 1844 
L 1159 0 
L 581 0 
L 581 3500 
L 1159 3500 
L 1159 2956 
Q 1341 3275 1631 3429 
Q 1922 3584 2338 3584 
Q 2397 3584 2469 3576 
Q 2541 3569 2628 3553 
L 2631 2963 
z
" transform="scale(0.015625)"/>
       <path id="DejaVuSans-61" d="M 2194 1759 
Q 1497 1759 1228 1600 
Q 959 1441 959 1056 
Q 959 750 1161 570 
Q 1363 391 1709 391 
Q 2188 391 2477 730 
Q 2766 1069 2766 1631 
L 2766 1759 
L 2194 1759 
z
M 3341 1997 
L 3341 0 
L 2766 0 
L 2766 531 
Q 2569 213 2275 61 
Q 1981 -91 1556 -91 
Q 1019 -91 701 211 
Q 384 513 384 1019 
Q 384 1609 779 1909 
Q 1175 2209 1959 2209 
L 2766 2209 
L 2766 2266 
Q 2766 2663 2505 2880 
Q 2244 3097 1772 3097 
Q 1472 3097 1187 3025 
Q 903 2953 641 2809 
L 641 3341 
Q 956 3463 1253 3523 
Q 1550 3584 1831 3584 
Q 2591 3584 2966 3190 
Q 3341 2797 3341 1997 
z
" transform="scale(0.015625)"/>
       <path id="DejaVuSans-79" d="M 2059 -325 
Q 1816 -950 1584 -1140 
Q 1353 -1331 966 -1331 
L 506 -1331 
L 506 -850 
L 844 -850 
Q 1081 -850 1212 -737 
Q 1344 -625 1503 -206 
L 1606 56 
L 191 3500 
L 800 3500 
L 1894 763 
L 2988 3500 
L 3597 3500 
L 2059 -325 
z
" transform="scale(0.015625)"/>
      </defs>
      <use xlink:href="#DejaVuSans-41"/>
      <use xlink:href="#DejaVuSans-63" x="66.658203"/>
      <use xlink:href="#DejaVuSans-63" x="121.638672"/>
      <use xlink:href="#DejaVuSans-75" x="176.619141"/>
      <use xlink:href="#DejaVuSans-72" x="239.998047"/>
      <use xlink:href="#DejaVuSans-61" x="281.111328"/>
      <use xlink:href="#DejaVuSans-63" x="342.390625"/>
      <use xlink:href="#DejaVuSans-79" x="397.371094"/>
     </g>
    </g>
   </g>
   <g id="line2d_19">
    <path d="M 73.832727 295.488 
L 76.001911 239.474673 
L 76.724973 228.57715 
L 77.448034 215.241639 
L 78.171095 211.99163 
L 78.894157 202.527273 
L 81.063341 182.951384 
L 81.786402 174.669549 
L 82.509463 174.046154 
L 83.232525 175.969681 
L 83.955586 167.349478 
L 84.678647 165.438483 
L 85.401709 162.312832 
L 86.12477 157.122265 
L 86.847832 156.443279 
L 87.570893 160.71482 
L 89.017016 144.0525 
L 89.740077 141.670102 
L 90.463138 143.150505 
L 91.1862 135.511345 
L 91.909261 132.522905 
L 92.632322 132.143727 
L 93.355384 133.118344 
L 94.078445 139.317911 
L 94.801506 134.722783 
L 95.524568 165.346259 
L 96.247629 165.648317 
L 96.97069 161.24824 
L 97.693752 161.668229 
L 98.416813 154.369366 
L 99.139874 156.109088 
L 99.862936 154.682349 
L 100.585997 148.405339 
L 101.309059 145.611951 
L 102.03212 145.954818 
L 103.478243 142.715735 
L 104.924365 144.530007 
L 105.647427 138.139887 
L 106.370488 138.769709 
L 107.093549 139.761357 
L 107.816611 133.998809 
L 108.539672 134.615777 
L 109.262733 132.666222 
L 109.985795 127.531247 
L 110.708856 133.797331 
L 111.431917 126.717298 
L 112.154979 131.569497 
L 112.87804 129.375725 
L 113.601101 129.973413 
L 114.324163 125.419094 
L 115.047224 117.625693 
L 115.770285 122.137273 
L 116.493347 115.729801 
L 117.216408 119.060787 
L 117.93947 117.3728 
L 118.662531 119.966959 
L 119.385592 112.242002 
L 120.108654 116.440921 
L 120.831715 109.078112 
L 121.554776 106.565252 
L 122.277838 109.735569 
L 123.000899 103.339022 
L 123.72396 112.368609 
L 124.447022 108.120526 
L 125.170083 105.213384 
L 125.893144 104.065245 
L 126.616206 100.232651 
L 127.339267 93.628199 
L 128.062328 99.200193 
L 128.78539 106.652977 
L 129.508451 98.617287 
L 130.231512 99.390746 
L 130.954574 91.226521 
L 131.677635 96.149414 
L 132.400696 89.544961 
L 133.123758 87.105045 
L 133.846819 90.838988 
L 134.569881 85.553948 
L 135.292942 95.410337 
L 136.016003 92.010585 
L 136.739065 89.461413 
L 137.462126 89.354408 
L 138.185187 87.391999 
L 138.908249 118.915221 
L 139.63131 129.058886 
L 140.354371 137.04509 
L 141.077433 129.529967 
L 141.800494 130.59488 
L 142.523555 131.044752 
L 143.246617 128.131184 
L 143.969678 130.309853 
L 144.692739 137.486287 
L 146.138862 124.422948 
L 146.861923 124.332973 
L 147.584985 128.246866 
L 148.308046 121.659444 
L 149.031108 120.455392 
L 149.754169 120.667475 
L 150.47723 122.497171 
L 151.200292 129.157215 
L 152.646414 119.039578 
L 153.369476 119.772228 
L 154.092537 117.775436 
L 154.815598 120.425508 
L 155.53866 114.161673 
L 156.261721 118.994591 
L 156.984782 112.634034 
L 157.707844 117.822673 
L 158.430905 111.383067 
L 159.153966 110.511278 
L 159.877028 114.026711 
L 160.600089 109.152984 
L 161.32315 117.514189 
L 162.046212 114.394964 
L 162.769273 112.938341 
L 163.492334 112.246501 
L 164.215396 109.015772 
L 164.938457 102.8869 
L 165.661519 108.396876 
L 166.38458 104.259975 
L 167.107641 108.765129 
L 167.830703 102.323595 
L 168.553764 101.38079 
L 169.276825 105.097703 
L 169.999887 100.018319 
L 170.722948 109.16166 
L 171.446009 106.001625 
L 172.169071 104.050142 
L 172.892132 103.651683 
L 174.338255 97.723968 
L 175.061316 102.130792 
L 175.784377 95.395555 
L 176.507439 94.296581 
L 177.2305 97.893313 
L 177.953561 92.494841 
L 178.676623 102.047244 
L 179.399684 98.88946 
L 180.122745 96.365995 
L 180.845807 96.376599 
L 181.568868 93.533725 
L 182.29193 92.044968 
L 183.014991 97.479751 
L 183.738052 108.15041 
L 184.461114 90.963024 
L 185.184175 94.864063 
L 185.907236 88.143929 
L 186.630298 86.382999 
L 187.353359 90.249655 
L 188.07642 84.806195 
L 188.799482 94.221388 
L 189.522543 90.802355 
L 190.245604 88.364688 
L 190.968666 87.98551 
L 191.691727 85.324834 
L 192.414788 81.905802 
L 193.13785 87.846049 
L 193.860911 97.678981 
L 194.583972 94.41419 
L 195.307034 95.313936 
L 196.030095 96.490031 
L 196.753157 92.651332 
L 197.476218 96.093822 
L 198.199279 104.611519 
L 199.645402 89.073559 
L 200.368463 90.832561 
L 201.091525 93.46753 
L 201.814586 86.939877 
L 202.537647 86.087368 
L 203.260709 85.96526 
L 203.98377 87.801062 
L 204.706831 95.48553 
L 205.429893 89.572918 
L 206.152954 84.969113 
L 206.876015 85.691159 
L 207.599077 84.037234 
L 208.322138 85.802342 
L 209.045199 79.51505 
L 209.768261 85.903242 
L 210.491322 85.66738 
L 211.214383 79.898406 
L 211.937445 78.546538 
L 212.660506 80.68022 
L 213.383568 81.260877 
L 214.106629 79.178609 
L 214.82969 82.848285 
L 215.552752 85.371749 
L 216.275813 78.788827 
L 216.998874 81.680865 
L 217.721936 72.139066 
L 218.444997 77.224876 
L 219.168058 71.395812 
L 219.89112 69.131346 
L 220.614181 72.674736 
L 221.337242 67.852422 
L 222.060304 78.180213 
L 222.783365 74.367221 
L 223.506426 72.464902 
L 224.229488 71.877818 
L 224.952549 69.971322 
L 225.67561 101.38079 
L 226.398672 113.236221 
L 227.121733 123.066903 
L 227.844794 119.011622 
L 229.290917 120.813362 
L 230.013979 118.28315 
L 230.73704 120.461819 
L 231.460101 128.25747 
L 232.183163 121.858673 
L 232.906224 114.450877 
L 233.629285 115.108334 
L 234.352347 118.745876 
L 235.075408 112.387889 
L 235.798469 111.817837 
L 236.521531 111.839366 
L 237.244592 113.788922 
L 237.967653 121.509379 
L 239.413776 111.093863 
L 240.136837 112.458584 
L 240.859899 110.264812 
L 241.58296 113.643034 
L 242.306021 107.542118 
L 243.029083 112.614754 
L 243.752144 113.186735 
L 244.475206 108.054009 
L 245.198267 107.105099 
L 245.921328 108.919371 
L 247.367451 108.2105 
L 248.090512 111.149454 
L 248.813574 113.13982 
L 249.536635 107.426436 
L 250.259696 110.232678 
L 250.982758 111.980755 
L 251.705819 106.631447 
L 252.42888 108.030551 
L 253.151942 107.475601 
L 253.875003 104.020258 
L 254.598064 112.503571 
L 255.321126 104.870517 
L 256.044187 111.888531 
L 256.767248 110.472717 
L 257.49031 112.745538 
L 258.213371 108.422583 
L 258.936432 101.967874 
L 259.659494 107.473352 
L 260.382555 101.972051 
L 261.105617 106.134659 
L 261.828678 106.190251 
L 262.551739 110.146881 
L 263.274801 101.929314 
L 263.997862 111.700227 
L 264.720923 110.254208 
L 265.443985 103.37951 
L 266.167046 110.234927 
L 266.890107 106.252269 
L 267.613169 103.218841 
L 268.33623 106.689288 
L 269.059291 109.272842 
L 270.505414 98.128853 
L 271.228475 107.469174 
L 271.951537 105.601239 
L 272.674598 107.818468 
L 273.397659 105.781188 
L 274.120721 102.706951 
L 274.843782 101.38304 
L 275.566843 102.169353 
L 276.289905 98.990038 
L 277.012966 104.343523 
L 277.736028 98.077439 
L 278.459089 97.14556 
L 279.18215 101.08516 
L 279.905212 95.834503 
L 280.628273 105.489735 
L 282.074396 100.671919 
L 282.797457 100.746791 
L 283.520518 97.614713 
L 284.24358 91.74516 
L 284.966641 98.69023 
L 285.689702 106.742951 
L 286.412764 99.605078 
L 287.135825 101.468837 
L 287.858886 102.732658 
L 288.581948 99.746467 
L 289.305009 102.805601 
L 290.02807 111.434481 
L 291.474193 97.813943 
L 292.197255 98.979434 
L 292.920316 102.302065 
L 293.643377 96.209504 
L 295.0895 96.335789 
L 295.812561 98.257388 
L 296.535623 106.322963 
L 297.258684 100.785352 
L 297.981745 96.288874 
L 298.704807 97.139133 
L 299.427868 95.753204 
L 300.150929 98.428983 
L 300.873991 92.644905 
L 301.597052 97.985537 
L 302.320113 98.180267 
L 303.043175 92.6147 
L 303.766236 91.241624 
L 304.489297 92.989701 
L 305.212359 93.96239 
L 305.93542 92.289185 
L 306.658481 96.072293 
L 307.381543 98.390422 
L 308.104604 91.790147 
L 308.827666 94.722674 
L 309.550727 96.680906 
L 310.273788 90.826134 
L 310.99685 92.229094 
L 311.719911 91.372408 
L 312.442972 87.966229 
L 313.166034 96.839325 
L 313.889095 89.262184 
L 314.612156 96.663554 
L 315.335218 94.817148 
L 316.058279 96.481677 
L 316.78134 92.224917 
L 317.504402 84.902596 
L 318.227463 89.896183 
L 318.950524 84.602788 
L 319.673586 89.25158 
L 320.396647 89.347981 
L 321.119708 93.786618 
L 321.84277 85.635246 
L 322.565831 95.007701 
L 323.288892 93.422542 
L 324.011954 86.305878 
L 324.735015 93.786618 
L 325.458077 88.97298 
L 326.181138 86.132356 
L 326.904199 89.977803 
L 327.627261 92.224917 
L 328.350322 86.961407 
L 329.073383 80.575464 
L 329.796445 89.977803 
L 330.519506 87.694056 
L 331.242567 90.206917 
L 331.965629 87.850548 
L 332.68869 84.673483 
L 333.411751 82.567757 
L 334.134813 84.285628 
L 334.857874 87.143605 
L 335.580935 83.658056 
L 336.303997 85.791738 
L 337.027058 83.780164 
L 337.750119 78.812284 
L 338.473181 85.920273 
L 339.196242 79.300718 
L 339.919304 82.844108 
L 340.642365 85.802342 
L 341.365426 84.090898 
L 342.088488 80.408368 
L 342.811549 80.791724 
L 343.53461 85.065515 
L 344.257672 84.885566 
L 344.980733 74.48483 
L 345.703794 80.577392 
L 346.426856 77.537538 
L 347.149917 79.007336 
L 347.872978 78.16736 
L 348.59604 82.578361 
L 349.319101 78.975203 
L 350.042162 70.219716 
L 350.765224 74.304881 
L 351.488285 81.145196 
L 352.211346 79.874948 
L 352.934408 79.442106 
L 353.657469 77.012794 
L 354.38053 83.225214 
L 355.103592 74.238686 
L 355.826653 80.718781 
L 356.549715 82.151946 
L 357.272776 79.677647 
L 357.995837 84.407737 
L 358.718899 79.602775 
L 359.44196 73.910921 
L 360.165021 85.988718 
L 360.888083 84.071617 
L 361.611144 79.180859 
L 363.057267 84.347968 
L 363.780328 82.344749 
L 364.503389 79.53433 
L 365.226451 75.755399 
L 365.949512 81.153872 
L 367.395635 77.19692 
L 368.118696 81.687292 
L 368.841757 79.482916 
L 369.564819 86.402279 
L 370.28788 79.380088 
L 371.010941 73.915099 
L 371.734003 81.929259 
L 372.457064 80.296864 
L 373.180126 77.282717 
L 373.903187 82.263451 
L 374.626248 78.681607 
L 375.34931 75.965233 
L 376.072371 79.939108 
L 376.795432 74.930526 
L 377.518494 82.925406 
L 378.241555 83.015381 
L 378.964616 88.173921 
L 379.687678 82.636202 
L 380.410739 80.800293 
L 381.1338 72.93609 
L 382.579923 88.645216 
L 383.302984 80.948108 
L 384.026046 83.634491 
L 384.749107 81.145196 
L 385.472168 80.830285 
L 386.19523 84.583508 
L 386.918291 94.270767 
L 387.641353 88.623793 
L 388.364414 79.926255 
L 389.087475 79.906975 
L 389.810537 85.905277 
L 390.533598 80.22617 
L 391.256659 78.510227 
L 391.979721 80.586068 
L 392.702782 82.179903 
L 393.425843 86.151636 
L 394.148905 83.960113 
L 394.871966 80.545365 
L 395.595027 83.407412 
L 396.318089 81.023087 
L 397.04115 82.56765 
L 397.764211 77.522649 
L 398.487273 82.083501 
L 398.487273 82.083501 
" clip-path="url(#p2a92a572ae)" style="fill: none; stroke: #1f77b4; stroke-width: 1.5; stroke-linecap: square"/>
   </g>
   <g id="line2d_20">
    <path d="M 73.832727 277.604597 
L 74.555789 244.635356 
L 75.27885 220.085161 
L 76.001911 208.774076 
L 76.724973 185.702034 
L 77.448034 170.020758 
L 78.171095 160.798368 
L 78.894157 155.27136 
L 79.617218 144.795754 
L 80.340279 139.590084 
L 81.063341 146.081104 
L 81.786402 122.591323 
L 82.509463 119.859953 
L 83.232525 116.678711 
L 83.955586 118.703138 
L 84.678647 111.344506 
L 85.401709 111.151704 
L 86.12477 105.206957 
L 86.847832 106.685111 
L 87.570893 102.829059 
L 88.293954 97.751924 
L 89.017016 96.466574 
L 89.740077 91.646509 
L 91.909261 85.958833 
L 92.632322 85.958833 
L 93.355384 84.834152 
L 94.078445 85.059088 
L 94.801506 85.541094 
L 95.524568 117.86766 
L 96.247629 126.383107 
L 96.97069 110.573296 
L 98.416813 103.921607 
L 99.139874 107.35992 
L 99.862936 100.676097 
L 100.585997 97.880459 
L 101.309059 99.67995 
L 102.03212 98.715937 
L 102.755181 96.884313 
L 103.478243 97.494854 
L 104.201304 96.627243 
L 104.924365 93.831605 
L 105.647427 88.722337 
L 106.370488 86.376572 
L 107.093549 90.618229 
L 107.816611 87.115649 
L 108.539672 84.255744 
L 109.262733 87.694056 
L 109.985795 86.95498 
L 110.708856 85.958833 
L 111.431917 84.544948 
L 112.154979 81.652909 
L 112.87804 82.777591 
L 113.601101 81.845712 
L 114.324163 77.957526 
L 115.047224 78.568068 
L 115.770285 76.929246 
L 116.493347 76.318704 
L 117.216408 74.005073 
L 117.93947 75.611762 
L 118.662531 74.133608 
L 119.385592 74.551347 
L 120.108654 71.819977 
L 120.831715 70.598894 
L 121.554776 71.49864 
L 122.277838 70.566761 
L 123.000899 71.691442 
L 123.72396 69.570614 
L 124.447022 69.602748 
L 125.170083 68.188862 
L 126.616206 66.29297 
L 127.339267 66.710709 
L 128.062328 66.228703 
L 128.78539 64.686282 
L 129.508451 64.654148 
L 130.231512 63.368798 
L 130.954574 62.983193 
L 131.677635 61.922778 
L 132.400696 61.794243 
L 133.123758 62.147715 
L 134.569881 61.665708 
L 135.292942 60.444625 
L 136.016003 61.376504 
L 136.739065 62.01918 
L 137.462126 61.472906 
L 138.185187 61.344371 
L 138.908249 90.168356 
L 139.63131 83.034661 
L 140.354371 87.372719 
L 141.077433 90.168356 
L 141.800494 84.930553 
L 142.523555 86.95498 
L 143.246617 84.577081 
L 143.969678 85.766031 
L 144.692739 84.352145 
L 145.415801 84.866285 
L 146.138862 83.066795 
L 146.861923 82.456253 
L 147.584985 81.010234 
L 148.308046 80.46396 
L 149.031108 78.5038 
L 149.754169 78.310998 
L 150.47723 77.828991 
L 151.200292 77.764724 
L 151.923353 81.138769 
L 152.646414 78.857272 
L 153.369476 79.917686 
L 154.092537 77.828991 
L 155.53866 75.386825 
L 156.261721 77.636189 
L 156.984782 77.47552 
L 157.707844 74.551347 
L 158.430905 72.976793 
L 159.153966 75.51536 
L 159.877028 75.933099 
L 160.600089 76.511507 
L 161.32315 72.912525 
L 162.046212 75.900965 
L 162.769273 73.523067 
L 163.492334 73.073194 
L 164.215396 73.651602 
L 164.938457 73.940806 
L 165.661519 72.559054 
L 166.38458 74.776284 
L 167.830703 69.891952 
L 168.553764 73.105328 
L 169.276825 73.201729 
L 169.999887 75.033354 
L 170.722948 70.888098 
L 171.446009 74.422812 
L 172.169071 72.430519 
L 172.892132 74.358545 
L 173.615193 71.562907 
L 174.338255 73.780137 
L 175.061316 71.884245 
L 175.784377 67.835391 
L 176.507439 71.980646 
L 177.2305 70.72743 
L 177.953561 72.848258 
L 178.676623 69.088608 
L 179.399684 72.205583 
L 180.122745 71.305837 
L 180.845807 71.145168 
L 181.568868 70.277557 
L 182.29193 68.381665 
L 183.738052 68.381665 
L 184.461114 68.992206 
L 185.184175 67.771123 
L 185.907236 66.132301 
L 186.630298 68.895805 
L 187.353359 66.100168 
L 188.07642 69.506347 
L 188.799482 66.646442 
L 189.522543 68.156728 
L 190.245604 68.542334 
L 191.691727 65.682429 
L 192.414788 65.489626 
L 193.13785 64.107874 
L 193.860911 65.682429 
L 194.583972 64.879085 
L 195.307034 64.332811 
L 196.030095 62.051313 
L 196.753157 63.786537 
L 197.476218 62.886791 
L 198.199279 63.015326 
L 198.922341 61.729976 
L 199.645402 62.27625 
L 200.368463 61.633575 
L 201.091525 60.05902 
L 201.814586 59.866218 
L 202.537647 59.54488 
L 203.260709 60.57316 
L 203.98377 60.508893 
L 204.706831 59.223542 
L 205.429893 60.57316 
L 206.152954 59.319944 
L 207.599077 58.613001 
L 208.322138 58.837937 
L 209.045199 58.195262 
L 209.768261 59.159275 
L 210.491322 57.841791 
L 211.214383 57.295517 
L 211.937445 58.034593 
L 212.660506 57.970326 
L 213.383568 58.645135 
L 214.106629 56.395771 
L 214.82969 58.323797 
L 215.552752 57.520453 
L 216.998874 56.974179 
L 219.168058 56.331504 
L 219.89112 56.845644 
L 220.614181 56.010166 
L 221.337242 56.81351 
L 222.060304 56.202969 
L 222.783365 56.717109 
L 224.229488 56.749243 
L 224.952549 57.199115 
L 225.67561 83.70947 
L 226.398672 81.299438 
L 227.121733 81.427973 
L 227.844794 83.934406 
L 228.567856 81.909979 
L 229.290917 80.624629 
L 230.013979 80.945966 
L 230.73704 82.520521 
L 232.183163 76.222303 
L 232.906224 77.98966 
L 233.629285 75.900965 
L 234.352347 75.643895 
L 235.075408 76.864978 
L 235.798469 74.069341 
L 236.521531 75.386825 
L 237.244592 73.876538 
L 237.967653 76.125902 
L 238.690715 74.679882 
L 239.413776 73.587334 
L 240.136837 76.061634 
L 240.859899 73.523067 
L 241.58296 76.254437 
L 242.306021 72.462653 
L 243.029083 73.523067 
L 243.752144 73.844405 
L 244.475206 72.976793 
L 245.198267 75.483226 
L 245.921328 75.643895 
L 246.64439 76.897112 
L 247.367451 72.623322 
L 248.090512 75.547494 
L 249.536635 73.812271 
L 250.259696 72.559054 
L 250.982758 76.929246 
L 252.42888 74.262143 
L 253.875003 75.836698 
L 255.321126 71.948513 
L 256.044187 74.422812 
L 256.767248 74.390679 
L 257.49031 71.916379 
L 258.213371 73.330264 
L 258.936432 69.827684 
L 259.659494 72.237716 
L 260.382555 71.434372 
L 261.105617 70.181156 
L 261.828678 72.591188 
L 262.551739 72.26985 
L 263.274801 70.373958 
L 263.997862 74.037207 
L 264.720923 72.01278 
L 265.443985 70.406092 
L 266.167046 71.948513 
L 266.890107 68.285264 
L 267.613169 68.606601 
L 268.33623 70.052621 
L 269.059291 71.080901 
L 269.782353 66.774977 
L 270.505414 71.530774 
L 271.228475 72.78399 
L 271.951537 69.02434 
L 272.674598 68.413799 
L 273.397659 69.924085 
L 274.120721 71.016633 
L 274.843782 70.952366 
L 275.566843 71.980646 
L 276.289905 72.205583 
L 277.736028 68.060327 
L 279.18215 70.149022 
L 279.905212 74.647749 
L 280.628273 68.960073 
L 281.351334 70.373958 
L 282.074396 69.056474 
L 282.797457 69.02434 
L 283.520518 69.731283 
L 284.24358 69.506347 
L 284.966641 68.638735 
L 285.689702 69.859818 
L 286.412764 68.285264 
L 287.135825 67.353384 
L 287.858886 68.285264 
L 288.581948 69.570614 
L 289.305009 69.924085 
L 290.02807 69.185009 
L 290.751132 70.309691 
L 291.474193 67.353384 
L 292.197255 67.160582 
L 292.920316 68.703002 
L 293.643377 67.032047 
L 294.366439 65.875231 
L 295.0895 67.546187 
L 295.812561 67.353384 
L 296.535623 68.25313 
L 297.258684 67.835391 
L 297.981745 68.478066 
L 298.704807 66.421505 
L 299.427868 68.124595 
L 300.150929 67.610455 
L 300.873991 65.200422 
L 301.597052 66.710709 
L 302.320113 69.02434 
L 303.043175 66.742843 
L 303.766236 66.325104 
L 304.489297 66.485773 
L 305.212359 66.774977 
L 305.93542 64.718416 
L 306.658481 65.714562 
L 307.381543 67.289117 
L 308.104604 64.461346 
L 309.550727 66.357238 
L 310.273788 66.678575 
L 310.99685 66.228703 
L 311.719911 64.557747 
L 312.442972 66.003766 
L 313.166034 64.332811 
L 313.889095 65.296824 
L 314.612156 65.296824 
L 315.335218 67.642588 
L 316.058279 63.625868 
L 316.78134 64.364944 
L 317.504402 63.272396 
L 318.950524 63.04746 
L 319.673586 61.633575 
L 321.119708 63.722269 
L 321.84277 63.722269 
L 322.565831 66.260836 
L 324.011954 62.01918 
L 324.735015 64.140008 
L 325.458077 60.862364 
L 326.181138 60.508893 
L 326.904199 62.661855 
L 327.627261 63.079594 
L 328.350322 60.508893 
L 329.073383 62.469052 
L 329.796445 60.990899 
L 330.519506 59.930485 
L 331.242567 61.987046 
L 331.965629 62.822524 
L 332.68869 59.255676 
L 333.411751 61.280103 
L 334.134813 61.50504 
L 334.857874 59.80195 
L 335.580935 60.637428 
L 336.303997 61.023033 
L 337.027058 60.862364 
L 337.750119 60.476759 
L 338.473181 60.862364 
L 339.196242 60.669562 
L 339.919304 60.187555 
L 341.365426 58.741536 
L 342.088488 62.661855 
L 342.811549 60.605294 
L 343.53461 57.552587 
L 344.257672 58.259529 
L 344.980733 59.127141 
L 345.703794 58.002459 
L 346.426856 58.420198 
L 347.149917 59.159275 
L 347.872978 57.58472 
L 348.59604 58.002459 
L 349.319101 58.677268 
L 350.042162 58.77367 
L 350.765224 58.195262 
L 351.488285 57.006313 
L 352.211346 56.588574 
L 352.934408 56.877778 
L 353.657469 57.970326 
L 354.38053 56.588574 
L 355.103592 58.580867 
L 356.549715 57.488319 
L 357.272776 59.962619 
L 357.995837 57.938192 
L 358.718899 59.737683 
L 359.44196 58.677268 
L 360.165021 58.227396 
L 360.888083 58.355931 
L 361.611144 60.219689 
L 362.334205 58.548733 
L 363.057267 58.613001 
L 363.780328 59.28781 
L 364.503389 58.323797 
L 365.226451 59.769816 
L 365.949512 58.677268 
L 366.672573 58.130994 
L 367.395635 58.163128 
L 368.118696 59.930485 
L 368.841757 59.448479 
L 370.28788 58.966472 
L 371.010941 58.452332 
L 371.734003 59.512746 
L 372.457064 59.223542 
L 373.180126 60.541027 
L 373.903187 60.476759 
L 374.626248 58.195262 
L 375.34931 59.127141 
L 376.072371 59.28781 
L 376.795432 60.091154 
L 377.518494 59.866218 
L 378.964616 60.862364 
L 379.687678 59.416345 
L 380.410739 60.091154 
L 381.856862 59.609147 
L 382.579923 58.741536 
L 383.302984 60.508893 
L 384.026046 59.255676 
L 384.749107 60.123288 
L 385.472168 59.737683 
L 386.19523 60.83023 
L 386.918291 59.416345 
L 387.641353 61.312237 
L 388.364414 58.645135 
L 389.087475 59.352077 
L 389.810537 59.255676 
L 390.533598 59.416345 
L 391.256659 58.195262 
L 391.979721 59.737683 
L 392.702782 61.697842 
L 393.425843 59.319944 
L 394.148905 60.541027 
L 395.595027 59.609147 
L 396.318089 59.898351 
L 397.04115 57.648988 
L 397.764211 58.837937 
L 398.487273 60.798097 
L 398.487273 60.798097 
" clip-path="url(#p2a92a572ae)" style="fill: none; stroke: #ff7f0e; stroke-width: 1.5; stroke-linecap: square"/>
   </g>
   <g id="line2d_21">
    <path d="M 73.832727 279.658908 
L 74.555789 241.054048 
L 75.27885 223.590954 
L 76.001911 221.508044 
L 76.724973 203.934089 
L 77.448034 189.318689 
L 78.171095 194.98098 
L 78.894157 184.476452 
L 79.617218 175.678549 
L 80.340279 171.379373 
L 81.063341 171.368126 
L 81.786402 156.309602 
L 82.509463 158.503696 
L 83.232525 159.933005 
L 83.955586 154.946809 
L 84.678647 150.835937 
L 85.401709 148.708361 
L 86.12477 145.871592 
L 86.847832 145.716707 
L 87.570893 143.611303 
L 88.293954 143.223449 
L 89.017016 140.309238 
L 89.740077 139.64439 
L 90.463138 134.58043 
L 91.1862 132.331067 
L 91.909261 129.173282 
L 92.632322 131.422645 
L 93.355384 130.059531 
L 94.078445 129.993014 
L 94.801506 130.746551 
L 95.524568 152.575338 
L 96.247629 170.248907 
L 96.97069 159.146371 
L 97.693752 151.899565 
L 98.416813 150.82469 
L 99.139874 155.212556 
L 99.862936 140.176204 
L 100.585997 149.494995 
L 101.309059 146.891196 
L 102.03212 144.852309 
L 102.755181 147.566969 
L 103.478243 146.315038 
L 104.201304 143.987911 
L 104.924365 143.522614 
L 105.647427 132.098418 
L 106.370488 134.913015 
L 107.093549 145.173647 
L 107.816611 137.007172 
L 108.539672 130.547322 
L 109.262733 132.031902 
L 109.985795 132.541864 
L 110.708856 128.408498 
L 111.431917 137.904668 
L 112.154979 130.536075 
L 112.87804 127.743651 
L 113.601101 127.134395 
L 114.324163 131.145652 
L 115.047224 127.112222 
L 115.770285 124.929376 
L 116.493347 121.749097 
L 117.216408 122.181296 
L 117.93947 128.86287 
L 120.108654 119.433217 
L 120.831715 120.120237 
L 121.554776 123.544411 
L 122.277838 121.08425 
L 123.000899 116.25326 
L 123.72396 117.760333 
L 124.447022 116.629868 
L 125.170083 118.436106 
L 125.893144 116.186743 
L 126.616206 114.413923 
L 127.339267 116.607695 
L 128.062328 115.710199 
L 128.78539 115.554993 
L 129.508451 116.685459 
L 130.231512 110.247459 
L 130.954574 112.685127 
L 131.677635 110.934479 
L 132.400696 109.626957 
L 133.123758 113.028637 
L 133.846819 112.696374 
L 134.569881 109.239102 
L 135.292942 110.491355 
L 136.016003 110.901382 
L 136.739065 110.923554 
L 137.462126 109.981713 
L 138.185187 110.347395 
L 138.908249 138.879928 
L 139.63131 130.968274 
L 140.354371 142.259436 
L 141.077433 141.838483 
L 141.800494 135.234352 
L 142.523555 135.733068 
L 143.246617 128.630221 
L 143.969678 131.92104 
L 144.692739 130.09295 
L 145.415801 135.489173 
L 146.138862 142.625118 
L 146.861923 124.386315 
L 147.584985 135.887953 
L 148.308046 122.358675 
L 149.031108 123.05662 
L 149.754169 125.671666 
L 150.47723 131.145652 
L 151.200292 129.693849 
L 151.923353 125.073335 
L 152.646414 128.17585 
L 153.369476 124.707653 
L 154.092537 125.826872 
L 154.815598 129.20638 
L 155.53866 125.162024 
L 156.261721 129.926819 
L 157.707844 123.367032 
L 158.430905 118.314319 
L 159.153966 125.46119 
L 159.877028 126.735615 
L 160.600089 121.261628 
L 161.32315 123.355786 
L 162.046212 122.3696 
L 162.769273 120.264517 
L 163.492334 119.843244 
L 164.215396 123.544411 
L 164.938457 119.909761 
L 165.661519 119.987524 
L 166.38458 121.882131 
L 167.107641 121.2838 
L 167.830703 117.372479 
L 169.276825 124.818514 
L 169.999887 118.42486 
L 170.722948 121.128594 
L 171.446009 118.480451 
L 172.169071 118.646583 
L 172.892132 120.951537 
L 173.615193 119.677112 
L 174.338255 120.242345 
L 175.061316 117.981735 
L 175.784377 116.231088 
L 176.507439 119.278332 
L 177.2305 120.275443 
L 177.953561 116.020611 
L 178.676623 118.690927 
L 179.399684 119.012265 
L 180.122745 118.325245 
L 180.845807 117.272543 
L 181.568868 118.081671 
L 182.29193 114.181275 
L 183.014991 115.51097 
L 183.738052 115.876331 
L 184.461114 117.715989 
L 185.184175 113.59387 
L 185.907236 111.676769 
L 186.630298 113.626967 
L 187.353359 113.671312 
L 188.07642 112.242002 
L 188.799482 116.364121 
L 189.522543 114.24747 
L 190.245604 114.291815 
L 190.968666 114.203447 
L 191.691727 113.604795 
L 192.414788 108.208572 
L 193.13785 108.951183 
L 193.860911 110.568797 
L 194.583972 109.604784 
L 195.307034 107.04533 
L 196.030095 108.352853 
L 196.753157 111.267064 
L 197.476218 108.07586 
L 198.199279 109.095143 
L 199.645402 109.582612 
L 200.368463 105.804324 
L 201.091525 107.909407 
L 201.814586 104.463382 
L 202.537647 105.03954 
L 203.260709 107.765448 
L 203.98377 107.809792 
L 204.706831 110.491355 
L 205.429893 105.72656 
L 206.152954 105.892692 
L 206.876015 103.155859 
L 207.599077 103.964666 
L 208.322138 103.133687 
L 209.045199 104.541146 
L 209.768261 105.061713 
L 210.491322 101.693452 
L 211.214383 103.244548 
L 211.937445 102.446667 
L 212.660506 101.826164 
L 213.383568 104.507727 
L 214.106629 102.679316 
L 214.82969 104.119872 
L 215.552752 102.446667 
L 216.275813 102.945383 
L 216.998874 100.95084 
L 217.721936 101.58259 
L 218.444997 99.687662 
L 219.168058 101.305597 
L 220.614181 100.55206 
L 221.337242 100.98426 
L 222.060304 100.252895 
L 222.783365 99.986828 
L 223.506426 101.43831 
L 224.229488 100.585158 
L 224.952549 100.817807 
L 225.67561 132.453175 
L 226.398672 123.223073 
L 227.121733 128.098408 
L 227.844794 136.697081 
L 228.567856 128.741083 
L 229.290917 128.209269 
L 230.013979 127.289601 
L 230.73704 128.12058 
L 231.460101 126.214726 
L 232.183163 125.06241 
L 232.906224 128.962806 
L 233.629285 120.009697 
L 234.352347 130.314352 
L 235.075408 124.497177 
L 235.798469 116.496834 
L 236.521531 124.386315 
L 237.244592 122.558226 
L 237.967653 130.724379 
L 239.413776 117.560783 
L 240.136837 125.184197 
L 240.859899 123.854502 
L 241.58296 131.090061 
L 242.306021 120.807257 
L 243.029083 127.245256 
L 243.752144 127.100976 
L 244.475206 120.751987 
L 245.198267 122.801799 
L 245.921328 123.278343 
L 246.64439 124.951548 
L 247.367451 117.394651 
L 248.090512 124.596791 
L 248.813574 122.768702 
L 250.259696 114.203447 
L 250.982758 125.793774 
L 251.705819 131.500088 
L 252.42888 125.028991 
L 253.151942 120.463747 
L 253.875003 122.425192 
L 254.598064 117.383404 
L 255.321126 118.247803 
L 256.044187 123.865748 
L 256.767248 118.059499 
L 257.49031 121.339071 
L 258.213371 121.206358 
L 258.936432 118.635657 
L 259.659494 122.757455 
L 260.382555 114.546957 
L 261.105617 117.106411 
L 261.828678 125.128927 
L 262.551739 121.328145 
L 263.274801 118.680002 
L 263.997862 123.023522 
L 264.720923 120.042795 
L 265.443985 127.067878 
L 266.167046 122.469536 
L 266.890107 113.616042 
L 267.613169 120.009697 
L 268.33623 118.945748 
L 269.059291 121.57204 
L 269.782353 112.086796 
L 270.505414 120.452821 
L 271.228475 122.136952 
L 271.951537 120.663297 
L 272.674598 114.868295 
L 273.397659 117.361232 
L 274.120721 118.535721 
L 274.843782 124.918129 
L 275.566843 116.607695 
L 276.289905 121.316898 
L 277.012966 119.477562 
L 277.736028 115.322345 
L 278.459089 114.779605 
L 279.18215 119.688359 
L 279.905212 120.098065 
L 280.628273 116.319777 
L 281.351334 113.361221 
L 282.074396 113.93738 
L 282.797457 115.654929 
L 284.966641 117.106411 
L 285.689702 117.93739 
L 286.412764 123.134384 
L 287.135825 113.172917 
L 287.858886 116.153645 
L 288.581948 114.003896 
L 289.305009 113.050809 
L 290.02807 116.951205 
L 290.751132 115.821061 
L 291.474193 117.815603 
L 292.197255 111.411023 
L 292.920316 118.469204 
L 293.643377 110.358321 
L 294.366439 109.47175 
L 295.0895 112.707299 
L 295.812561 114.24747 
L 296.535623 121.97082 
L 297.258684 112.940269 
L 297.981745 114.713089 
L 298.704807 112.352864 
L 299.427868 116.94028 
L 300.150929 116.541178 
L 300.873991 108.408123 
L 301.597052 116.740729 
L 302.320113 112.452478 
L 303.043175 112.108968 
L 303.766236 111.111858 
L 304.489297 114.701842 
L 305.212359 112.951194 
L 305.93542 110.136598 
L 306.658481 115.244902 
L 307.381543 113.604795 
L 308.104604 111.100611 
L 308.827666 109.593859 
L 310.99685 118.591312 
L 311.719911 108.552082 
L 312.442972 113.682559 
L 313.166034 111.067513 
L 313.889095 111.333581 
L 314.612156 110.967898 
L 315.335218 111.255817 
L 316.058279 112.264174 
L 316.78134 111.1893 
L 317.504402 109.0177 
L 318.227463 112.153313 
L 318.950524 105.970456 
L 319.673586 107.355421 
L 320.396647 112.16456 
L 321.119708 114.380504 
L 321.84277 111.765458 
L 322.565831 110.912307 
L 323.288892 113.837765 
L 324.011954 117.793431 
L 324.735015 107.820718 
L 326.181138 111.089685 
L 326.904199 104.430284 
L 327.627261 113.715657 
L 328.350322 107.73235 
L 329.073383 108.108958 
L 329.796445 108.341606 
L 330.519506 104.840311 
L 331.242567 104.829064 
L 331.965629 104.618588 
L 332.68869 107.366668 
L 333.411751 112.064624 
L 334.134813 105.870841 
L 334.857874 104.751622 
L 335.580935 105.394297 
L 336.303997 110.646561 
L 337.750119 102.601873 
L 338.473181 108.906839 
L 339.196242 106.867952 
L 339.919304 107.056255 
L 340.642365 108.67419 
L 341.365426 101.316523 
L 342.088488 109.228177 
L 342.811549 107.344495 
L 343.53461 104.164217 
L 344.257672 105.770905 
L 344.980733 104.851237 
L 345.703794 103.455025 
L 346.426856 103.167106 
L 347.149917 103.998085 
L 347.872978 101.715303 
L 348.59604 106.369236 
L 349.319101 104.64076 
L 350.042162 104.408112 
L 350.765224 107.1006 
L 351.488285 104.330348 
L 352.211346 104.252906 
L 352.934408 105.715635 
L 353.657469 105.194747 
L 354.38053 104.031183 
L 355.103592 104.596416 
L 355.826653 103.920643 
L 356.549715 104.419038 
L 357.272776 104.252906 
L 357.995837 103.421927 
L 358.718899 104.995196 
L 359.44196 105.615699 
L 360.165021 103.133687 
L 360.888083 103.06717 
L 361.611144 110.15877 
L 362.334205 101.649107 
L 363.057267 105.338706 
L 363.780328 106.336138 
L 364.503389 104.142044 
L 365.226451 103.178032 
L 365.949512 101.349942 
L 366.672573 103.288893 
L 367.395635 101.903928 
L 368.118696 105.804324 
L 368.841757 104.485554 
L 370.28788 103.554961 
L 371.010941 102.989728 
L 371.734003 110.890135 
L 372.457064 104.341595 
L 373.180126 106.834699 
L 373.903187 102.446778 
L 374.626248 100.097689 
L 375.34931 108.053566 
L 376.072371 100.684961 
L 376.795432 102.30273 
L 377.518494 101.715458 
L 378.241555 105.106124 
L 378.964616 106.291749 
L 379.687678 99.56582 
L 380.410739 109.638093 
L 381.1338 104.153192 
L 381.856862 107.621422 
L 382.579923 105.793122 
L 383.302984 109.759979 
L 384.026046 99.189079 
L 384.749107 101.981392 
L 385.472168 103.233501 
L 386.19523 102.65731 
L 386.918291 104.740464 
L 387.641353 106.081217 
L 388.364414 105.095043 
L 389.087475 112.253116 
L 389.810537 102.779196 
L 390.533598 101.881667 
L 391.256659 106.723893 
L 391.979721 103.344307 
L 392.702782 103.222421 
L 393.425843 105.261252 
L 394.148905 103.056211 
L 394.871966 108.241936 
L 395.595027 104.275078 
L 396.318089 107.987082 
L 397.04115 99.864996 
L 397.764211 111.067491 
L 398.487273 105.272333 
L 398.487273 105.272333 
" clip-path="url(#p2a92a572ae)" style="fill: none; stroke: #2ca02c; stroke-width: 1.5; stroke-linecap: square"/>
   </g>
   <g id="line2d_22">
    <path d="M 73.832727 290.77944 
L 74.555789 284.609757 
L 76.001911 288.465809 
L 76.724973 285.348834 
L 77.448034 280.496635 
L 78.171095 284.674025 
L 78.894157 279.918228 
L 79.617218 280.271699 
L 80.340279 276.512049 
L 81.063341 275.805106 
L 81.786402 274.680424 
L 82.509463 273.202271 
L 83.232525 272.527462 
L 84.678647 264.526155 
L 85.401709 272.720265 
L 86.12477 265.650837 
L 86.847832 266.389913 
L 87.570893 261.634116 
L 88.293954 261.280645 
L 89.017016 263.208671 
L 89.740077 257.456727 
L 90.463138 258.902747 
L 91.1862 254.91816 
L 91.909261 254.757491 
L 92.632322 255.721504 
L 93.355384 255.753638 
L 94.078445 254.339752 
L 94.801506 253.536408 
L 95.524568 270.438768 
L 96.247629 268.446474 
L 96.97069 269.699691 
L 97.693752 268.864213 
L 98.416813 271.627717 
L 99.139874 263.722811 
L 99.862936 263.240805 
L 100.585997 263.080136 
L 101.309059 267.771665 
L 102.03212 263.337206 
L 102.755181 262.051855 
L 103.478243 264.429754 
L 104.201304 259.609689 
L 104.924365 262.630263 
L 105.647427 260.252365 
L 106.370488 259.256218 
L 107.093549 259.19195 
L 107.816611 260.89504 
L 108.539672 255.592969 
L 109.262733 252.733064 
L 109.985795 254.436154 
L 110.708856 250.483701 
L 111.431917 255.496568 
L 112.154979 252.733064 
L 112.87804 247.013254 
L 113.601101 250.098096 
L 114.324163 246.756184 
L 115.047224 252.508128 
L 115.770285 241.903986 
L 116.493347 245.824305 
L 117.216408 238.722743 
L 117.93947 240.682903 
L 118.662531 234.416819 
L 119.385592 241.068508 
L 120.108654 237.598062 
L 120.831715 238.208603 
L 121.554776 233.99908 
L 122.277838 232.938666 
L 123.000899 233.870545 
L 123.72396 232.681596 
L 124.447022 229.821691 
L 125.170083 228.311404 
L 125.893144 228.825544 
L 126.616206 231.042774 
L 127.339267 223.427072 
L 128.062328 224.166149 
L 128.78539 223.330671 
L 129.508451 226.319111 
L 130.231512 221.659715 
L 130.954574 223.555607 
L 131.677635 221.01704 
L 132.400696 227.411659 
L 133.123758 220.342231 
L 133.846819 221.852518 
L 134.569881 224.069747 
L 135.292942 223.619875 
L 136.016003 219.603154 
L 136.739065 216.903918 
L 137.462126 223.427072 
L 138.185187 222.880798 
L 138.908249 253.986281 
L 139.63131 250.515834 
L 140.354371 256.942587 
L 141.077433 254.821759 
L 141.800494 245.631502 
L 142.523555 257.874466 
L 143.246617 249.069815 
L 143.969678 245.406566 
L 144.692739 242.385992 
L 145.415801 252.540262 
L 146.138862 253.504274 
L 146.861923 249.648223 
L 147.584985 246.756184 
L 148.308046 247.816598 
L 149.031108 249.19835 
L 149.754169 243.639209 
L 150.47723 244.763891 
L 151.200292 242.225324 
L 151.923353 241.711183 
L 152.646414 248.234337 
L 153.369476 239.590355 
L 154.092537 244.66749 
L 154.815598 237.533794 
L 155.53866 246.017108 
L 156.261721 236.47338 
L 156.984782 246.402713 
L 157.707844 236.184176 
L 158.430905 239.011947 
L 159.153966 236.21631 
L 159.877028 232.810131 
L 160.600089 241.229177 
L 161.32315 235.252297 
L 162.046212 234.416819 
L 162.769273 231.813984 
L 163.492334 232.263857 
L 164.215396 238.305004 
L 164.938457 233.934813 
L 165.661519 232.038921 
L 166.38458 237.24459 
L 167.107641 229.339685 
L 167.830703 233.934813 
L 168.553764 227.700863 
L 169.276825 228.697009 
L 169.999887 233.645609 
L 171.446009 224.616021 
L 172.169071 223.973346 
L 172.892132 224.423219 
L 173.615193 230.689303 
L 174.338255 231.878252 
L 175.061316 223.619875 
L 175.784377 228.954079 
L 176.507439 222.655862 
L 177.2305 226.73685 
L 177.953561 227.797264 
L 178.676623 225.644302 
L 179.399684 219.892358 
L 180.122745 219.346084 
L 180.845807 221.884651 
L 181.568868 228.921946 
L 182.29193 217.675128 
L 183.014991 215.393631 
L 183.738052 217.128855 
L 184.461114 221.434779 
L 185.184175 212.726529 
L 185.907236 226.126308 
L 186.630298 218.382071 
L 187.353359 216.807517 
L 188.07642 220.406498 
L 188.799482 218.992613 
L 189.522543 214.076147 
L 190.245604 213.851211 
L 190.968666 215.200829 
L 191.691727 226.608315 
L 192.414788 209.352484 
L 193.13785 210.894904 
L 193.860911 208.002866 
L 194.583972 214.847357 
L 195.307034 202.668661 
L 196.030095 210.669968 
L 197.476218 205.078693 
L 198.199279 200.258629 
L 198.922341 211.409045 
L 199.645402 209.32035 
L 200.368463 208.227802 
L 201.091525 211.473312 
L 201.814586 204.532419 
L 202.537647 202.122387 
L 203.260709 202.154521 
L 203.98377 199.037546 
L 204.706831 201.543979 
L 205.429893 196.466845 
L 206.152954 203.85761 
L 206.876015 196.177641 
L 207.599077 206.84605 
L 208.322138 195.502832 
L 209.045199 209.06328 
L 209.768261 191.518245 
L 210.491322 194.699488 
L 211.214383 205.882037 
L 211.937445 192.83573 
L 212.660506 193.86401 
L 213.383568 187.758595 
L 214.106629 201.351177 
L 214.82969 187.308722 
L 215.552752 199.519552 
L 216.275813 199.005412 
L 216.998874 198.844743 
L 217.721936 199.391017 
L 218.444997 193.028532 
L 219.168058 207.745796 
L 219.89112 197.077386 
L 220.614181 196.498979 
L 221.337242 201.029839 
L 222.060304 200.451431 
L 222.783365 195.438564 
L 223.506426 192.803596 
L 224.229488 199.84089 
L 224.952549 200.065826 
L 225.67561 238.080068 
L 226.398672 240.040228 
L 227.121733 243.73561 
L 227.844794 238.979813 
L 228.567856 239.71889 
L 229.290917 243.799878 
L 230.013979 239.333285 
L 230.73704 240.425833 
L 231.460101 230.785704 
L 232.183163 238.658476 
L 232.906224 244.66749 
L 233.629285 240.554368 
L 234.352347 237.533794 
L 235.075408 241.67905 
L 236.521531 238.208603 
L 237.244592 235.477233 
L 237.967653 240.393699 
L 238.690715 234.191883 
L 239.413776 237.083921 
L 240.136837 230.625035 
L 240.859899 244.731757 
L 241.58296 236.634049 
L 242.306021 241.068508 
L 243.029083 229.853825 
L 243.752144 240.265164 
L 244.475206 230.785704 
L 245.198267 242.900133 
L 245.921328 236.119909 
L 246.64439 231.52478 
L 247.367451 239.172616 
L 248.090512 228.472073 
L 248.813574 237.083921 
L 249.536635 230.946373 
L 250.259696 229.46822 
L 250.982758 233.163602 
L 251.705819 240.554368 
L 252.42888 232.360258 
L 253.151942 236.055641 
L 253.875003 234.288284 
L 254.598064 233.774144 
L 255.321126 237.983667 
L 256.044187 233.420672 
L 256.767248 220.75997 
L 257.49031 240.811438 
L 258.213371 231.171309 
L 258.936432 234.673889 
L 259.659494 226.608315 
L 260.382555 236.280577 
L 261.105617 238.047934 
L 261.828678 224.680289 
L 262.551739 224.198282 
L 263.274801 236.280577 
L 263.997862 219.860224 
L 264.720923 233.002934 
L 265.443985 238.080068 
L 266.167046 230.23943 
L 266.890107 229.789557 
L 267.613169 238.433539 
L 268.33623 226.961786 
L 269.059291 226.833251 
L 269.782353 237.75873 
L 270.505414 222.173855 
L 271.228475 235.284431 
L 271.951537 225.708569 
L 272.674598 235.316564 
L 273.397659 225.226563 
L 274.120721 233.517074 
L 274.843782 238.176469 
L 275.566843 229.275417 
L 276.289905 232.938666 
L 277.012966 231.460513 
L 277.736028 228.0222 
L 278.459089 231.492647 
L 279.18215 227.122455 
L 279.905212 230.817838 
L 280.628273 232.649462 
L 281.351334 229.532487 
L 282.074396 218.896211 
L 282.797457 226.190576 
L 283.520518 230.143029 
L 284.24358 222.880798 
L 284.966641 224.00548 
L 286.412764 231.235577 
L 287.135825 221.756116 
L 287.858886 226.672582 
L 288.581948 222.366658 
L 289.305009 222.205989 
L 290.02807 218.992613 
L 290.751132 227.122455 
L 291.474193 232.553061 
L 292.197255 229.500353 
L 292.920316 222.173855 
L 293.643377 225.29083 
L 294.366439 224.808824 
L 295.0895 223.009333 
L 295.812561 218.735543 
L 296.535623 220.213696 
L 297.258684 217.739396 
L 297.981745 222.527327 
L 298.704807 214.52602 
L 299.427868 225.965639 
L 300.150929 218.28567 
L 300.873991 224.487486 
L 301.597052 211.955319 
L 302.320113 227.283124 
L 303.043175 221.209842 
L 303.766236 222.752263 
L 304.489297 212.56586 
L 305.212359 209.159681 
L 305.93542 220.952772 
L 306.658481 213.304937 
L 307.381543 222.430925 
L 308.104604 220.695702 
L 308.827666 224.00548 
L 309.550727 218.671275 
L 310.273788 227.636595 
L 310.99685 225.03376 
L 311.719911 222.977199 
L 312.442972 215.972039 
L 313.166034 222.463059 
L 313.889095 220.149428 
L 314.612156 212.597994 
L 315.335218 207.585127 
L 316.058279 226.833251 
L 316.78134 213.112134 
L 317.504402 222.077454 
L 318.227463 206.84605 
L 318.950524 215.747103 
L 319.673586 215.457899 
L 320.396647 219.442485 
L 321.119708 207.070987 
L 321.84277 220.053027 
L 322.565831 204.564553 
L 323.288892 212.951465 
L 324.011954 218.060734 
L 324.735015 210.316497 
L 325.458077 215.618568 
L 326.181138 220.053027 
L 326.904199 203.279203 
L 327.627261 212.340924 
L 328.350322 223.266403 
L 329.073383 209.32035 
L 329.796445 218.157135 
L 330.519506 201.383311 
L 331.242567 221.241976 
L 331.965629 202.475859 
L 332.68869 215.072294 
L 333.411751 216.004173 
L 334.134813 203.0864 
L 334.857874 211.28051 
L 335.580935 212.212389 
L 336.303997 214.78309 
L 337.027058 207.681528 
L 337.750119 209.705955 
L 338.473181 212.244523 
L 339.196242 201.801049 
L 339.919304 215.907772 
L 340.642365 211.055573 
L 341.365426 209.866624 
L 342.088488 206.685381 
L 342.811549 199.744489 
L 343.53461 203.0864 
L 344.257672 200.001559 
L 344.980733 201.865317 
L 345.703794 212.437325 
L 346.426856 202.668661 
L 347.149917 206.428311 
L 347.872978 209.288216 
L 348.59604 201.897451 
L 349.319101 207.135254 
L 350.042162 200.162228 
L 350.765224 202.122387 
L 351.488285 203.375604 
L 352.211346 200.387164 
L 352.934408 215.200829 
L 353.657469 214.172548 
L 354.38053 202.379457 
L 355.103592 215.81137 
L 355.826653 202.668661 
L 356.549715 205.432165 
L 357.272776 200.065826 
L 357.995837 202.893597 
L 358.718899 200.258629 
L 359.44196 202.411591 
L 360.165021 206.171241 
L 360.888083 202.475859 
L 361.611144 200.258629 
L 362.334205 205.207228 
L 363.057267 200.86917 
L 363.780328 200.997705 
L 365.226451 208.163535 
L 365.949512 208.613407 
L 366.672573 206.33191 
L 367.395635 210.445032 
L 368.118696 202.31519 
L 368.841757 206.010572 
L 369.564819 207.745796 
L 370.28788 206.396178 
L 371.010941 212.501593 
L 371.734003 209.223949 
L 372.457064 191.775315 
L 373.180126 209.06328 
L 373.903187 197.238055 
L 374.626248 207.295923 
L 375.34931 209.06328 
L 376.072371 204.307483 
L 376.795432 208.613407 
L 377.518494 204.950158 
L 378.241555 204.532419 
L 378.964616 198.362737 
L 379.687678 206.07484 
L 380.410739 209.898758 
L 381.1338 204.146814 
L 381.856862 209.83449 
L 382.579923 202.540126 
L 383.302984 210.637834 
L 384.026046 206.139108 
L 384.749107 206.84605 
L 385.472168 208.517006 
L 386.19523 201.576113 
L 387.641353 207.328057 
L 388.364414 210.252229 
L 389.087475 207.038853 
L 389.810537 215.875638 
L 390.533598 209.191815 
L 391.256659 210.605701 
L 391.979721 207.617261 
L 392.702782 203.118534 
L 393.425843 208.613407 
L 394.148905 200.483565 
L 394.871966 207.070987 
L 395.595027 206.07484 
L 396.318089 213.883344 
L 397.04115 207.424458 
L 397.764211 212.30879 
L 398.487273 203.054266 
L 398.487273 203.054266 
" clip-path="url(#p2a92a572ae)" style="fill: none; stroke: #d62728; stroke-width: 1.5; stroke-linecap: square"/>
   </g>
   <g id="line2d_23">
    <path d="M 351.488285 55.238956 
L 352.211346 54.08214 
L 352.934408 53.568 
L 353.657469 55.014019 
L 354.38053 55.271089 
L 355.103592 54.981886 
L 355.826653 54.307077 
L 356.549715 54.885484 
L 357.272776 54.917618 
L 357.995837 54.628414 
L 358.718899 54.885484 
L 359.44196 54.33921 
L 360.165021 55.463892 
L 360.888083 54.371344 
L 361.611144 55.817363 
L 362.334205 55.174688 
L 363.057267 56.363637 
L 363.780328 55.849497 
L 364.503389 54.981886 
L 365.226451 55.592427 
L 365.949512 53.921471 
L 366.672573 56.877778 
L 367.395635 56.0423 
L 368.118696 56.0423 
L 368.841757 58.098861 
L 369.564819 55.945898 
L 370.28788 56.652841 
L 371.010941 59.384211 
L 371.734003 58.066727 
L 372.457064 57.970326 
L 373.180126 57.456185 
L 373.903187 59.641281 
L 374.626248 61.280103 
L 375.34931 60.83023 
L 376.072371 60.57316 
L 376.795432 61.569307 
L 377.518494 59.994753 
L 378.241555 62.758256 
L 378.964616 59.834084 
L 379.687678 59.866218 
L 380.410739 62.308384 
L 381.1338 58.805803 
M 382.579923 62.758256 
L 383.302984 60.380358 
L 384.026046 62.726123 
L 384.749107 62.244116 
M 386.19523 62.211982 
L 386.918291 63.175995 
L 387.641353 62.565454 
L 388.364414 63.625868 
L 389.087475 63.5616 
L 389.810537 62.083447 
L 390.533598 62.918925 
L 391.256659 63.400932 
L 391.979721 63.5616 
L 392.702782 65.875231 
L 393.425843 61.987046 
L 394.148905 67.99606 
L 394.871966 63.272396 
L 395.595027 67.321251 
L 396.318089 64.140008 
L 397.04115 65.907365 
L 397.764211 64.364944 
L 398.487273 66.421505 
L 398.487273 66.421505 
" clip-path="url(#p2a92a572ae)" style="fill: none; stroke: #9467bd; stroke-width: 1.5; stroke-linecap: square"/>
   </g>
   <g id="line2d_24">
    <path d="M 351.488285 102.524431 
L 352.934408 103.044998 
L 353.657469 100.385929 
L 354.38053 99.344152 
L 355.103592 99.842868 
L 355.826653 97.781809 
L 356.549715 98.014457 
L 357.272776 98.468829 
L 357.995837 98.103146 
L 358.718899 99.056234 
L 359.44196 99.067159 
L 360.165021 99.887213 
L 360.888083 98.357967 
L 361.611144 97.759636 
L 363.057267 99.521531 
L 363.780328 96.995174 
L 364.503389 97.238748 
L 365.226451 96.729107 
L 365.949512 99.698909 
L 366.672573 99.133676 
L 367.395635 101.660033 
L 368.118696 97.626603 
L 368.841757 99.067159 
L 369.564819 98.214008 
L 370.28788 98.557518 
L 371.010941 104.363767 
L 371.734003 101.660033 
L 373.180126 102.136521 
L 373.903187 104.230756 
L 374.626248 103.831854 
L 375.34931 105.959331 
L 376.072371 104.895592 
L 376.795432 102.745954 
L 377.518494 103.344307 
L 378.241555 103.222421 
L 378.964616 102.347052 
L 379.687678 99.93148 
L 380.410739 104.529932 
L 381.1338 102.424617 
L 381.856862 101.671135 
L 382.579923 104.541013 
L 383.302984 100.274979 
L 384.026046 104.48561 
L 384.749107 103.322146 
L 385.472168 98.790177 
L 386.19523 102.85676 
L 386.918291 104.097789 
L 387.641353 102.468939 
L 388.364414 102.513262 
L 389.087475 102.757035 
L 389.810537 103.898338 
L 390.533598 103.277824 
L 391.256659 105.272333 
L 391.979721 104.108869 
L 392.702782 108.120049 
L 393.425843 106.025814 
L 394.148905 109.017578 
L 394.871966 106.480119 
L 395.595027 108.13113 
L 397.04115 106.834699 
L 397.764211 106.424716 
L 398.487273 108.585435 
L 398.487273 108.585435 
" clip-path="url(#p2a92a572ae)" style="fill: none; stroke: #8c564b; stroke-width: 1.5; stroke-linecap: square"/>
   </g>
   <g id="line2d_25">
    <path d="M 351.488285 198.555539 
L 352.211346 195.567099 
L 352.934408 210.445032 
L 353.657469 208.966879 
L 354.38053 195.020825 
L 355.103592 203.696942 
L 355.826653 195.213628 
L 356.549715 197.62366 
L 357.272776 189.108213 
L 357.995837 195.374297 
L 358.718899 195.952705 
L 359.44196 191.935984 
L 360.165021 196.723915 
L 360.888083 191.968118 
L 361.611144 186.216174 
L 362.334205 193.542672 
L 363.057267 182.745728 
L 363.780328 191.068373 
L 364.503389 191.100506 
L 365.226451 193.478405 
L 365.949512 194.410284 
L 366.672573 194.313883 
L 367.395635 195.695634 
L 368.118696 180.046492 
L 368.841757 191.229041 
L 369.564819 193.124933 
L 370.28788 187.533659 
L 371.010941 196.370444 
L 371.734003 190.747035 
L 372.457064 186.923117 
L 373.180126 188.465538 
L 373.903187 187.597926 
L 374.626248 199.230348 
L 376.072371 188.1442 
L 376.795432 190.072226 
L 377.518494 192.932131 
L 378.241555 184.962958 
L 378.964616 179.564485 
L 379.687678 187.405124 
L 380.410739 190.779169 
L 381.1338 188.851143 
L 381.856862 193.285602 
L 382.579923 190.425697 
L 383.302984 191.518245 
L 384.026046 190.87557 
L 384.749107 194.410284 
L 385.472168 188.337003 
L 386.19523 188.337003 
L 386.918291 194.667354 
L 388.364414 188.529805 
L 389.087475 191.164774 
L 389.810537 197.495125 
L 390.533598 197.655794 
L 391.256659 194.988692 
L 391.979721 190.747035 
L 392.702782 199.84089 
L 393.425843 192.867863 
L 394.148905 194.281749 
L 394.871966 190.522099 
L 395.595027 189.558086 
L 396.318089 198.491272 
L 397.04115 192.514392 
L 397.764211 197.655794 
L 398.487273 190.6185 
L 398.487273 190.6185 
" clip-path="url(#p2a92a572ae)" style="fill: none; stroke: #e377c2; stroke-width: 1.5; stroke-linecap: square"/>
   </g>
   <g id="patch_3">
    <path d="M 57.6 307.584 
L 57.6 41.472 
" style="fill: none; stroke: #000000; stroke-width: 0.8; stroke-linejoin: miter; stroke-linecap: square"/>
   </g>
   <g id="patch_4">
    <path d="M 414.72 307.584 
L 414.72 41.472 
" style="fill: none; stroke: #000000; stroke-width: 0.8; stroke-linejoin: miter; stroke-linecap: square"/>
   </g>
   <g id="patch_5">
    <path d="M 57.6 307.584 
L 414.72 307.584 
" style="fill: none; stroke: #000000; stroke-width: 0.8; stroke-linejoin: miter; stroke-linecap: square"/>
   </g>
   <g id="patch_6">
    <path d="M 57.6 41.472 
L 414.72 41.472 
" style="fill: none; stroke: #000000; stroke-width: 0.8; stroke-linejoin: miter; stroke-linecap: square"/>
   </g>
   <g id="text_21">
    <!-- Learning Curves -->
    <g transform="translate(187.37625 35.472) scale(0.12 -0.12)">
     <defs>
      <path id="DejaVuSans-4c" d="M 628 4666 
L 1259 4666 
L 1259 531 
L 3531 531 
L 3531 0 
L 628 0 
L 628 4666 
z
" transform="scale(0.015625)"/>
      <path id="DejaVuSans-65" d="M 3597 1894 
L 3597 1613 
L 953 1613 
Q 991 1019 1311 708 
Q 1631 397 2203 397 
Q 2534 397 2845 478 
Q 3156 559 3463 722 
L 3463 178 
Q 3153 47 2828 -22 
Q 2503 -91 2169 -91 
Q 1331 -91 842 396 
Q 353 884 353 1716 
Q 353 2575 817 3079 
Q 1281 3584 2069 3584 
Q 2775 3584 3186 3129 
Q 3597 2675 3597 1894 
z
M 3022 2063 
Q 3016 2534 2758 2815 
Q 2500 3097 2075 3097 
Q 1594 3097 1305 2825 
Q 1016 2553 972 2059 
L 3022 2063 
z
" transform="scale(0.015625)"/>
      <path id="DejaVuSans-6e" d="M 3513 2113 
L 3513 0 
L 2938 0 
L 2938 2094 
Q 2938 2591 2744 2837 
Q 2550 3084 2163 3084 
Q 1697 3084 1428 2787 
Q 1159 2491 1159 1978 
L 1159 0 
L 581 0 
L 581 3500 
L 1159 3500 
L 1159 2956 
Q 1366 3272 1645 3428 
Q 1925 3584 2291 3584 
Q 2894 3584 3203 3211 
Q 3513 2838 3513 2113 
z
" transform="scale(0.015625)"/>
      <path id="DejaVuSans-69" d="M 603 3500 
L 1178 3500 
L 1178 0 
L 603 0 
L 603 3500 
z
M 603 4863 
L 1178 4863 
L 1178 4134 
L 603 4134 
L 603 4863 
z
" transform="scale(0.015625)"/>
      <path id="DejaVuSans-67" d="M 2906 1791 
Q 2906 2416 2648 2759 
Q 2391 3103 1925 3103 
Q 1463 3103 1205 2759 
Q 947 2416 947 1791 
Q 947 1169 1205 825 
Q 1463 481 1925 481 
Q 2391 481 2648 825 
Q 2906 1169 2906 1791 
z
M 3481 434 
Q 3481 -459 3084 -895 
Q 2688 -1331 1869 -1331 
Q 1566 -1331 1297 -1286 
Q 1028 -1241 775 -1147 
L 775 -588 
Q 1028 -725 1275 -790 
Q 1522 -856 1778 -856 
Q 2344 -856 2625 -561 
Q 2906 -266 2906 331 
L 2906 616 
Q 2728 306 2450 153 
Q 2172 0 1784 0 
Q 1141 0 747 490 
Q 353 981 353 1791 
Q 353 2603 747 3093 
Q 1141 3584 1784 3584 
Q 2172 3584 2450 3431 
Q 2728 3278 2906 2969 
L 2906 3500 
L 3481 3500 
L 3481 434 
z
" transform="scale(0.015625)"/>
      <path id="DejaVuSans-20" transform="scale(0.015625)"/>
      <path id="DejaVuSans-43" d="M 4122 4306 
L 4122 3641 
Q 3803 3938 3442 4084 
Q 3081 4231 2675 4231 
Q 1875 4231 1450 3742 
Q 1025 3253 1025 2328 
Q 1025 1406 1450 917 
Q 1875 428 2675 428 
Q 3081 428 3442 575 
Q 3803 722 4122 1019 
L 4122 359 
Q 3791 134 3420 21 
Q 3050 -91 2638 -91 
Q 1578 -91 968 557 
Q 359 1206 359 2328 
Q 359 3453 968 4101 
Q 1578 4750 2638 4750 
Q 3056 4750 3426 4639 
Q 3797 4528 4122 4306 
z
" transform="scale(0.015625)"/>
      <path id="DejaVuSans-76" d="M 191 3500 
L 800 3500 
L 1894 563 
L 2988 3500 
L 3597 3500 
L 2284 0 
L 1503 0 
L 191 3500 
z
" transform="scale(0.015625)"/>
     </defs>
     <use xlink:href="#DejaVuSans-4c"/>
     <use xlink:href="#DejaVuSans-65" x="53.962891"/>
     <use xlink:href="#DejaVuSans-61" x="115.486328"/>
     <use xlink:href="#DejaVuSans-72" x="176.765625"/>
     <use xlink:href="#DejaVuSans-6e" x="216.128906"/>
     <use xlink:href="#DejaVuSans-69" x="279.507812"/>
     <use xlink:href="#DejaVuSans-6e" x="307.291016"/>
     <use xlink:href="#DejaVuSans-67" x="370.669922"/>
     <use xlink:href="#DejaVuSans-20" x="434.146484"/>
     <use xlink:href="#DejaVuSans-43" x="465.933594"/>
     <use xlink:href="#DejaVuSans-75" x="535.757812"/>
     <use xlink:href="#DejaVuSans-72" x="599.136719"/>
     <use xlink:href="#DejaVuSans-76" x="640.25"/>
     <use xlink:href="#DejaVuSans-65" x="699.429688"/>
     <use xlink:href="#DejaVuSans-73" x="760.953125"/>
    </g>
   </g>
   <g id="legend_1">
    <g id="patch_7">
     <path d="M 128.445937 227.401437 
L 343.874063 227.401437 
Q 345.874063 227.401437 345.874063 225.401437 
L 345.874063 123.654562 
Q 345.874063 121.654562 343.874063 121.654562 
L 128.445937 121.654562 
Q 126.445937 121.654562 126.445937 123.654562 
L 126.445937 225.401437 
Q 126.445937 227.401437 128.445937 227.401437 
z
" style="fill: #ffffff; opacity: 0.8; stroke: #cccccc; stroke-linejoin: miter"/>
    </g>
    <g id="line2d_26">
     <path d="M 130.445937 129.753 
L 140.445937 129.753 
L 150.445937 129.753 
" style="fill: none; stroke: #1f77b4; stroke-width: 1.5; stroke-linecap: square"/>
    </g>
    <g id="text_22">
     <!-- Train Accuracy -->
     <g transform="translate(158.445937 133.253) scale(0.1 -0.1)">
      <defs>
       <path id="DejaVuSans-54" d="M -19 4666 
L 3928 4666 
L 3928 4134 
L 2272 4134 
L 2272 0 
L 1638 0 
L 1638 4134 
L -19 4134 
L -19 4666 
z
" transform="scale(0.015625)"/>
      </defs>
      <use xlink:href="#DejaVuSans-54"/>
      <use xlink:href="#DejaVuSans-72" x="46.333984"/>
      <use xlink:href="#DejaVuSans-61" x="87.447266"/>
      <use xlink:href="#DejaVuSans-69" x="148.726562"/>
      <use xlink:href="#DejaVuSans-6e" x="176.509766"/>
      <use xlink:href="#DejaVuSans-20" x="239.888672"/>
      <use xlink:href="#DejaVuSans-41" x="271.675781"/>
      <use xlink:href="#DejaVuSans-63" x="338.333984"/>
      <use xlink:href="#DejaVuSans-63" x="393.314453"/>
      <use xlink:href="#DejaVuSans-75" x="448.294922"/>
      <use xlink:href="#DejaVuSans-72" x="511.673828"/>
      <use xlink:href="#DejaVuSans-61" x="552.787109"/>
      <use xlink:href="#DejaVuSans-63" x="614.066406"/>
      <use xlink:href="#DejaVuSans-79" x="669.046875"/>
     </g>
    </g>
    <g id="line2d_27">
     <path d="M 130.445937 144.431125 
L 140.445937 144.431125 
L 150.445937 144.431125 
" style="fill: none; stroke: #ff7f0e; stroke-width: 1.5; stroke-linecap: square"/>
    </g>
    <g id="text_23">
     <!-- Validation Accuracy -->
     <g transform="translate(158.445937 147.931125) scale(0.1 -0.1)">
      <defs>
       <path id="DejaVuSans-56" d="M 1831 0 
L 50 4666 
L 709 4666 
L 2188 738 
L 3669 4666 
L 4325 4666 
L 2547 0 
L 1831 0 
z
" transform="scale(0.015625)"/>
       <path id="DejaVuSans-6c" d="M 603 4863 
L 1178 4863 
L 1178 0 
L 603 0 
L 603 4863 
z
" transform="scale(0.015625)"/>
       <path id="DejaVuSans-64" d="M 2906 2969 
L 2906 4863 
L 3481 4863 
L 3481 0 
L 2906 0 
L 2906 525 
Q 2725 213 2448 61 
Q 2172 -91 1784 -91 
Q 1150 -91 751 415 
Q 353 922 353 1747 
Q 353 2572 751 3078 
Q 1150 3584 1784 3584 
Q 2172 3584 2448 3432 
Q 2725 3281 2906 2969 
z
M 947 1747 
Q 947 1113 1208 752 
Q 1469 391 1925 391 
Q 2381 391 2643 752 
Q 2906 1113 2906 1747 
Q 2906 2381 2643 2742 
Q 2381 3103 1925 3103 
Q 1469 3103 1208 2742 
Q 947 2381 947 1747 
z
" transform="scale(0.015625)"/>
       <path id="DejaVuSans-74" d="M 1172 4494 
L 1172 3500 
L 2356 3500 
L 2356 3053 
L 1172 3053 
L 1172 1153 
Q 1172 725 1289 603 
Q 1406 481 1766 481 
L 2356 481 
L 2356 0 
L 1766 0 
Q 1100 0 847 248 
Q 594 497 594 1153 
L 594 3053 
L 172 3053 
L 172 3500 
L 594 3500 
L 594 4494 
L 1172 4494 
z
" transform="scale(0.015625)"/>
      </defs>
      <use xlink:href="#DejaVuSans-56"/>
      <use xlink:href="#DejaVuSans-61" x="60.658203"/>
      <use xlink:href="#DejaVuSans-6c" x="121.9375"/>
      <use xlink:href="#DejaVuSans-69" x="149.720703"/>
      <use xlink:href="#DejaVuSans-64" x="177.503906"/>
      <use xlink:href="#DejaVuSans-61" x="240.980469"/>
      <use xlink:href="#DejaVuSans-74" x="302.259766"/>
      <use xlink:href="#DejaVuSans-69" x="341.46875"/>
      <use xlink:href="#DejaVuSans-6f" x="369.251953"/>
      <use xlink:href="#DejaVuSans-6e" x="430.433594"/>
      <use xlink:href="#DejaVuSans-20" x="493.8125"/>
      <use xlink:href="#DejaVuSans-41" x="525.599609"/>
      <use xlink:href="#DejaVuSans-63" x="592.257812"/>
      <use xlink:href="#DejaVuSans-63" x="647.238281"/>
      <use xlink:href="#DejaVuSans-75" x="702.21875"/>
      <use xlink:href="#DejaVuSans-72" x="765.597656"/>
      <use xlink:href="#DejaVuSans-61" x="806.710938"/>
      <use xlink:href="#DejaVuSans-63" x="867.990234"/>
      <use xlink:href="#DejaVuSans-79" x="922.970703"/>
     </g>
    </g>
    <g id="line2d_28">
     <path d="M 130.445937 159.10925 
L 140.445937 159.10925 
L 150.445937 159.10925 
" style="fill: none; stroke: #2ca02c; stroke-width: 1.5; stroke-linecap: square"/>
    </g>
    <g id="text_24">
     <!-- Robust Validation Accuracy -->
     <g transform="translate(158.445937 162.60925) scale(0.1 -0.1)">
      <defs>
       <path id="DejaVuSans-52" d="M 2841 2188 
Q 3044 2119 3236 1894 
Q 3428 1669 3622 1275 
L 4263 0 
L 3584 0 
L 2988 1197 
Q 2756 1666 2539 1819 
Q 2322 1972 1947 1972 
L 1259 1972 
L 1259 0 
L 628 0 
L 628 4666 
L 2053 4666 
Q 2853 4666 3247 4331 
Q 3641 3997 3641 3322 
Q 3641 2881 3436 2590 
Q 3231 2300 2841 2188 
z
M 1259 4147 
L 1259 2491 
L 2053 2491 
Q 2509 2491 2742 2702 
Q 2975 2913 2975 3322 
Q 2975 3731 2742 3939 
Q 2509 4147 2053 4147 
L 1259 4147 
z
" transform="scale(0.015625)"/>
       <path id="DejaVuSans-62" d="M 3116 1747 
Q 3116 2381 2855 2742 
Q 2594 3103 2138 3103 
Q 1681 3103 1420 2742 
Q 1159 2381 1159 1747 
Q 1159 1113 1420 752 
Q 1681 391 2138 391 
Q 2594 391 2855 752 
Q 3116 1113 3116 1747 
z
M 1159 2969 
Q 1341 3281 1617 3432 
Q 1894 3584 2278 3584 
Q 2916 3584 3314 3078 
Q 3713 2572 3713 1747 
Q 3713 922 3314 415 
Q 2916 -91 2278 -91 
Q 1894 -91 1617 61 
Q 1341 213 1159 525 
L 1159 0 
L 581 0 
L 581 4863 
L 1159 4863 
L 1159 2969 
z
" transform="scale(0.015625)"/>
      </defs>
      <use xlink:href="#DejaVuSans-52"/>
      <use xlink:href="#DejaVuSans-6f" x="64.982422"/>
      <use xlink:href="#DejaVuSans-62" x="126.164062"/>
      <use xlink:href="#DejaVuSans-75" x="189.640625"/>
      <use xlink:href="#DejaVuSans-73" x="253.019531"/>
      <use xlink:href="#DejaVuSans-74" x="305.119141"/>
      <use xlink:href="#DejaVuSans-20" x="344.328125"/>
      <use xlink:href="#DejaVuSans-56" x="376.115234"/>
      <use xlink:href="#DejaVuSans-61" x="436.773438"/>
      <use xlink:href="#DejaVuSans-6c" x="498.052734"/>
      <use xlink:href="#DejaVuSans-69" x="525.835938"/>
      <use xlink:href="#DejaVuSans-64" x="553.619141"/>
      <use xlink:href="#DejaVuSans-61" x="617.095703"/>
      <use xlink:href="#DejaVuSans-74" x="678.375"/>
      <use xlink:href="#DejaVuSans-69" x="717.583984"/>
      <use xlink:href="#DejaVuSans-6f" x="745.367188"/>
      <use xlink:href="#DejaVuSans-6e" x="806.548828"/>
      <use xlink:href="#DejaVuSans-20" x="869.927734"/>
      <use xlink:href="#DejaVuSans-41" x="901.714844"/>
      <use xlink:href="#DejaVuSans-63" x="968.373047"/>
      <use xlink:href="#DejaVuSans-63" x="1023.353516"/>
      <use xlink:href="#DejaVuSans-75" x="1078.333984"/>
      <use xlink:href="#DejaVuSans-72" x="1141.712891"/>
      <use xlink:href="#DejaVuSans-61" x="1182.826172"/>
      <use xlink:href="#DejaVuSans-63" x="1244.105469"/>
      <use xlink:href="#DejaVuSans-79" x="1299.085938"/>
     </g>
    </g>
    <g id="line2d_29">
     <path d="M 130.445937 173.787375 
L 140.445937 173.787375 
L 150.445937 173.787375 
" style="fill: none; stroke: #d62728; stroke-width: 1.5; stroke-linecap: square"/>
    </g>
    <g id="text_25">
     <!-- Adversarial Validation Accuracy -->
     <g transform="translate(158.445937 177.287375) scale(0.1 -0.1)">
      <use xlink:href="#DejaVuSans-41"/>
      <use xlink:href="#DejaVuSans-64" x="66.658203"/>
      <use xlink:href="#DejaVuSans-76" x="130.134766"/>
      <use xlink:href="#DejaVuSans-65" x="189.314453"/>
      <use xlink:href="#DejaVuSans-72" x="250.837891"/>
      <use xlink:href="#DejaVuSans-73" x="291.951172"/>
      <use xlink:href="#DejaVuSans-61" x="344.050781"/>
      <use xlink:href="#DejaVuSans-72" x="405.330078"/>
      <use xlink:href="#DejaVuSans-69" x="446.443359"/>
      <use xlink:href="#DejaVuSans-61" x="474.226562"/>
      <use xlink:href="#DejaVuSans-6c" x="535.505859"/>
      <use xlink:href="#DejaVuSans-20" x="563.289062"/>
      <use xlink:href="#DejaVuSans-56" x="595.076172"/>
      <use xlink:href="#DejaVuSans-61" x="655.734375"/>
      <use xlink:href="#DejaVuSans-6c" x="717.013672"/>
      <use xlink:href="#DejaVuSans-69" x="744.796875"/>
      <use xlink:href="#DejaVuSans-64" x="772.580078"/>
      <use xlink:href="#DejaVuSans-61" x="836.056641"/>
      <use xlink:href="#DejaVuSans-74" x="897.335938"/>
      <use xlink:href="#DejaVuSans-69" x="936.544922"/>
      <use xlink:href="#DejaVuSans-6f" x="964.328125"/>
      <use xlink:href="#DejaVuSans-6e" x="1025.509766"/>
      <use xlink:href="#DejaVuSans-20" x="1088.888672"/>
      <use xlink:href="#DejaVuSans-41" x="1120.675781"/>
      <use xlink:href="#DejaVuSans-63" x="1187.333984"/>
      <use xlink:href="#DejaVuSans-63" x="1242.314453"/>
      <use xlink:href="#DejaVuSans-75" x="1297.294922"/>
      <use xlink:href="#DejaVuSans-72" x="1360.673828"/>
      <use xlink:href="#DejaVuSans-61" x="1401.787109"/>
      <use xlink:href="#DejaVuSans-63" x="1463.066406"/>
      <use xlink:href="#DejaVuSans-79" x="1518.046875"/>
     </g>
    </g>
    <g id="line2d_30">
     <path d="M 130.445937 188.4655 
L 140.445937 188.4655 
L 150.445937 188.4655 
" style="fill: none; stroke: #9467bd; stroke-width: 1.5; stroke-linecap: square"/>
    </g>
    <g id="text_26">
     <!-- SWA Validation Accuracy -->
     <g transform="translate(158.445937 191.9655) scale(0.1 -0.1)">
      <defs>
       <path id="DejaVuSans-53" d="M 3425 4513 
L 3425 3897 
Q 3066 4069 2747 4153 
Q 2428 4238 2131 4238 
Q 1616 4238 1336 4038 
Q 1056 3838 1056 3469 
Q 1056 3159 1242 3001 
Q 1428 2844 1947 2747 
L 2328 2669 
Q 3034 2534 3370 2195 
Q 3706 1856 3706 1288 
Q 3706 609 3251 259 
Q 2797 -91 1919 -91 
Q 1588 -91 1214 -16 
Q 841 59 441 206 
L 441 856 
Q 825 641 1194 531 
Q 1563 422 1919 422 
Q 2459 422 2753 634 
Q 3047 847 3047 1241 
Q 3047 1584 2836 1778 
Q 2625 1972 2144 2069 
L 1759 2144 
Q 1053 2284 737 2584 
Q 422 2884 422 3419 
Q 422 4038 858 4394 
Q 1294 4750 2059 4750 
Q 2388 4750 2728 4690 
Q 3069 4631 3425 4513 
z
" transform="scale(0.015625)"/>
       <path id="DejaVuSans-57" d="M 213 4666 
L 850 4666 
L 1831 722 
L 2809 4666 
L 3519 4666 
L 4500 722 
L 5478 4666 
L 6119 4666 
L 4947 0 
L 4153 0 
L 3169 4050 
L 2175 0 
L 1381 0 
L 213 4666 
z
" transform="scale(0.015625)"/>
      </defs>
      <use xlink:href="#DejaVuSans-53"/>
      <use xlink:href="#DejaVuSans-57" x="63.476562"/>
      <use xlink:href="#DejaVuSans-41" x="156.853516"/>
      <use xlink:href="#DejaVuSans-20" x="225.261719"/>
      <use xlink:href="#DejaVuSans-56" x="257.048828"/>
      <use xlink:href="#DejaVuSans-61" x="317.707031"/>
      <use xlink:href="#DejaVuSans-6c" x="378.986328"/>
      <use xlink:href="#DejaVuSans-69" x="406.769531"/>
      <use xlink:href="#DejaVuSans-64" x="434.552734"/>
      <use xlink:href="#DejaVuSans-61" x="498.029297"/>
      <use xlink:href="#DejaVuSans-74" x="559.308594"/>
      <use xlink:href="#DejaVuSans-69" x="598.517578"/>
      <use xlink:href="#DejaVuSans-6f" x="626.300781"/>
      <use xlink:href="#DejaVuSans-6e" x="687.482422"/>
      <use xlink:href="#DejaVuSans-20" x="750.861328"/>
      <use xlink:href="#DejaVuSans-41" x="782.648438"/>
      <use xlink:href="#DejaVuSans-63" x="849.306641"/>
      <use xlink:href="#DejaVuSans-63" x="904.287109"/>
      <use xlink:href="#DejaVuSans-75" x="959.267578"/>
      <use xlink:href="#DejaVuSans-72" x="1022.646484"/>
      <use xlink:href="#DejaVuSans-61" x="1063.759766"/>
      <use xlink:href="#DejaVuSans-63" x="1125.039062"/>
      <use xlink:href="#DejaVuSans-79" x="1180.019531"/>
     </g>
    </g>
    <g id="line2d_31">
     <path d="M 130.445937 203.143625 
L 140.445937 203.143625 
L 150.445937 203.143625 
" style="fill: none; stroke: #8c564b; stroke-width: 1.5; stroke-linecap: square"/>
    </g>
    <g id="text_27">
     <!-- SWA Robust Validation Accuracy -->
     <g transform="translate(158.445937 206.643625) scale(0.1 -0.1)">
      <use xlink:href="#DejaVuSans-53"/>
      <use xlink:href="#DejaVuSans-57" x="63.476562"/>
      <use xlink:href="#DejaVuSans-41" x="156.853516"/>
      <use xlink:href="#DejaVuSans-20" x="225.261719"/>
      <use xlink:href="#DejaVuSans-52" x="257.048828"/>
      <use xlink:href="#DejaVuSans-6f" x="322.03125"/>
      <use xlink:href="#DejaVuSans-62" x="383.212891"/>
      <use xlink:href="#DejaVuSans-75" x="446.689453"/>
      <use xlink:href="#DejaVuSans-73" x="510.068359"/>
      <use xlink:href="#DejaVuSans-74" x="562.167969"/>
      <use xlink:href="#DejaVuSans-20" x="601.376953"/>
      <use xlink:href="#DejaVuSans-56" x="633.164062"/>
      <use xlink:href="#DejaVuSans-61" x="693.822266"/>
      <use xlink:href="#DejaVuSans-6c" x="755.101562"/>
      <use xlink:href="#DejaVuSans-69" x="782.884766"/>
      <use xlink:href="#DejaVuSans-64" x="810.667969"/>
      <use xlink:href="#DejaVuSans-61" x="874.144531"/>
      <use xlink:href="#DejaVuSans-74" x="935.423828"/>
      <use xlink:href="#DejaVuSans-69" x="974.632812"/>
      <use xlink:href="#DejaVuSans-6f" x="1002.416016"/>
      <use xlink:href="#DejaVuSans-6e" x="1063.597656"/>
      <use xlink:href="#DejaVuSans-20" x="1126.976562"/>
      <use xlink:href="#DejaVuSans-41" x="1158.763672"/>
      <use xlink:href="#DejaVuSans-63" x="1225.421875"/>
      <use xlink:href="#DejaVuSans-63" x="1280.402344"/>
      <use xlink:href="#DejaVuSans-75" x="1335.382812"/>
      <use xlink:href="#DejaVuSans-72" x="1398.761719"/>
      <use xlink:href="#DejaVuSans-61" x="1439.875"/>
      <use xlink:href="#DejaVuSans-63" x="1501.154297"/>
      <use xlink:href="#DejaVuSans-79" x="1556.134766"/>
     </g>
    </g>
    <g id="line2d_32">
     <path d="M 130.445937 217.82175 
L 140.445937 217.82175 
L 150.445937 217.82175 
" style="fill: none; stroke: #e377c2; stroke-width: 1.5; stroke-linecap: square"/>
    </g>
    <g id="text_28">
     <!-- SWA Adversarial Validation Accuracy -->
     <g transform="translate(158.445937 221.32175) scale(0.1 -0.1)">
      <use xlink:href="#DejaVuSans-53"/>
      <use xlink:href="#DejaVuSans-57" x="63.476562"/>
      <use xlink:href="#DejaVuSans-41" x="156.853516"/>
      <use xlink:href="#DejaVuSans-20" x="225.261719"/>
      <use xlink:href="#DejaVuSans-41" x="257.048828"/>
      <use xlink:href="#DejaVuSans-64" x="323.707031"/>
      <use xlink:href="#DejaVuSans-76" x="387.183594"/>
      <use xlink:href="#DejaVuSans-65" x="446.363281"/>
      <use xlink:href="#DejaVuSans-72" x="507.886719"/>
      <use xlink:href="#DejaVuSans-73" x="549"/>
      <use xlink:href="#DejaVuSans-61" x="601.099609"/>
      <use xlink:href="#DejaVuSans-72" x="662.378906"/>
      <use xlink:href="#DejaVuSans-69" x="703.492188"/>
      <use xlink:href="#DejaVuSans-61" x="731.275391"/>
      <use xlink:href="#DejaVuSans-6c" x="792.554688"/>
      <use xlink:href="#DejaVuSans-20" x="820.337891"/>
      <use xlink:href="#DejaVuSans-56" x="852.125"/>
      <use xlink:href="#DejaVuSans-61" x="912.783203"/>
      <use xlink:href="#DejaVuSans-6c" x="974.0625"/>
      <use xlink:href="#DejaVuSans-69" x="1001.845703"/>
      <use xlink:href="#DejaVuSans-64" x="1029.628906"/>
      <use xlink:href="#DejaVuSans-61" x="1093.105469"/>
      <use xlink:href="#DejaVuSans-74" x="1154.384766"/>
      <use xlink:href="#DejaVuSans-69" x="1193.59375"/>
      <use xlink:href="#DejaVuSans-6f" x="1221.376953"/>
      <use xlink:href="#DejaVuSans-6e" x="1282.558594"/>
      <use xlink:href="#DejaVuSans-20" x="1345.9375"/>
      <use xlink:href="#DejaVuSans-41" x="1377.724609"/>
      <use xlink:href="#DejaVuSans-63" x="1444.382812"/>
      <use xlink:href="#DejaVuSans-63" x="1499.363281"/>
      <use xlink:href="#DejaVuSans-75" x="1554.34375"/>
      <use xlink:href="#DejaVuSans-72" x="1617.722656"/>
      <use xlink:href="#DejaVuSans-61" x="1658.835938"/>
      <use xlink:href="#DejaVuSans-63" x="1720.115234"/>
      <use xlink:href="#DejaVuSans-79" x="1775.095703"/>
     </g>
    </g>
   </g>
  </g>
 </g>
 <defs>
  <clipPath id="p2a92a572ae">
   <rect x="57.6" y="41.472" width="357.12" height="266.112"/>
  </clipPath>
 </defs>
</svg>
