<?xml version="1.0" encoding="utf-8" standalone="no"?>
<!DOCTYPE svg PUBLIC "-//W3C//DTD SVG 1.1//EN"
  "http://www.w3.org/Graphics/SVG/1.1/DTD/svg11.dtd">
<svg xmlns:xlink="http://www.w3.org/1999/xlink" width="460.8pt" height="345.6pt" viewBox="0 0 460.8 345.6" xmlns="http://www.w3.org/2000/svg" version="1.1">
 <metadata>
  <rdf:RDF xmlns:dc="http://purl.org/dc/elements/1.1/" xmlns:cc="http://creativecommons.org/ns#" xmlns:rdf="http://www.w3.org/1999/02/22-rdf-syntax-ns#">
   <cc:Work>
    <dc:type rdf:resource="http://purl.org/dc/dcmitype/StillImage"/>
    <dc:date>2024-08-16T16:46:13.543892</dc:date>
    <dc:format>image/svg+xml</dc:format>
    <dc:creator>
     <cc:Agent>
      <dc:title>Matplotlib v3.9.1, https://matplotlib.org/</dc:title>
     </cc:Agent>
    </dc:creator>
   </cc:Work>
  </rdf:RDF>
 </metadata>
 <defs>
  <style type="text/css">*{stroke-linejoin: round; stroke-linecap: butt}</style>
 </defs>
 <g id="figure_1">
  <g id="patch_1">
   <path d="M 0 345.6 
L 460.8 345.6 
L 460.8 0 
L 0 0 
z
" style="fill: #ffffff"/>
  </g>
  <g id="axes_1">
   <g id="patch_2">
    <path d="M 57.6 307.584 
L 414.72 307.584 
L 414.72 41.472 
L 57.6 41.472 
z
" style="fill: #ffffff"/>
   </g>
   <g id="matplotlib.axis_1">
    <g id="xtick_1">
     <g id="line2d_1">
      <defs>
       <path id="m185346621a" d="M 0 0 
L 0 3.5 
" style="stroke: #000000; stroke-width: 0.8"/>
      </defs>
      <g>
       <use xlink:href="#m185346621a" x="73.832727" y="307.584" style="stroke: #000000; stroke-width: 0.8"/>
      </g>
     </g>
     <g id="text_1">
      <!-- 1 -->
      <g transform="translate(70.651477 322.182437) scale(0.1 -0.1)">
       <defs>
        <path id="DejaVuSans-31" d="M 794 531 
L 1825 531 
L 1825 4091 
L 703 3866 
L 703 4441 
L 1819 4666 
L 2450 4666 
L 2450 531 
L 3481 531 
L 3481 0 
L 794 0 
L 794 531 
z
" transform="scale(0.015625)"/>
       </defs>
       <use xlink:href="#DejaVuSans-31"/>
      </g>
     </g>
    </g>
    <g id="xtick_2">
     <g id="line2d_2">
      <g>
       <use xlink:href="#m185346621a" x="109.262733" y="307.584" style="stroke: #000000; stroke-width: 0.8"/>
      </g>
     </g>
     <g id="text_2">
      <!-- 50 -->
      <g transform="translate(102.900233 322.182437) scale(0.1 -0.1)">
       <defs>
        <path id="DejaVuSans-35" d="M 691 4666 
L 3169 4666 
L 3169 4134 
L 1269 4134 
L 1269 2991 
Q 1406 3038 1543 3061 
Q 1681 3084 1819 3084 
Q 2600 3084 3056 2656 
Q 3513 2228 3513 1497 
Q 3513 744 3044 326 
Q 2575 -91 1722 -91 
Q 1428 -91 1123 -41 
Q 819 9 494 109 
L 494 744 
Q 775 591 1075 516 
Q 1375 441 1709 441 
Q 2250 441 2565 725 
Q 2881 1009 2881 1497 
Q 2881 1984 2565 2268 
Q 2250 2553 1709 2553 
Q 1456 2553 1204 2497 
Q 953 2441 691 2322 
L 691 4666 
z
" transform="scale(0.015625)"/>
        <path id="DejaVuSans-30" d="M 2034 4250 
Q 1547 4250 1301 3770 
Q 1056 3291 1056 2328 
Q 1056 1369 1301 889 
Q 1547 409 2034 409 
Q 2525 409 2770 889 
Q 3016 1369 3016 2328 
Q 3016 3291 2770 3770 
Q 2525 4250 2034 4250 
z
M 2034 4750 
Q 2819 4750 3233 4129 
Q 3647 3509 3647 2328 
Q 3647 1150 3233 529 
Q 2819 -91 2034 -91 
Q 1250 -91 836 529 
Q 422 1150 422 2328 
Q 422 3509 836 4129 
Q 1250 4750 2034 4750 
z
" transform="scale(0.015625)"/>
       </defs>
       <use xlink:href="#DejaVuSans-35"/>
       <use xlink:href="#DejaVuSans-30" x="63.623047"/>
      </g>
     </g>
    </g>
    <g id="xtick_3">
     <g id="line2d_3">
      <g>
       <use xlink:href="#m185346621a" x="145.415801" y="307.584" style="stroke: #000000; stroke-width: 0.8"/>
      </g>
     </g>
     <g id="text_3">
      <!-- 100 -->
      <g transform="translate(135.872051 322.182437) scale(0.1 -0.1)">
       <use xlink:href="#DejaVuSans-31"/>
       <use xlink:href="#DejaVuSans-30" x="63.623047"/>
       <use xlink:href="#DejaVuSans-30" x="127.246094"/>
      </g>
     </g>
    </g>
    <g id="xtick_4">
     <g id="line2d_4">
      <g>
       <use xlink:href="#m185346621a" x="181.568868" y="307.584" style="stroke: #000000; stroke-width: 0.8"/>
      </g>
     </g>
     <g id="text_4">
      <!-- 150 -->
      <g transform="translate(172.025118 322.182437) scale(0.1 -0.1)">
       <use xlink:href="#DejaVuSans-31"/>
       <use xlink:href="#DejaVuSans-35" x="63.623047"/>
       <use xlink:href="#DejaVuSans-30" x="127.246094"/>
      </g>
     </g>
    </g>
    <g id="xtick_5">
     <g id="line2d_5">
      <g>
       <use xlink:href="#m185346621a" x="217.721936" y="307.584" style="stroke: #000000; stroke-width: 0.8"/>
      </g>
     </g>
     <g id="text_5">
      <!-- 200 -->
      <g transform="translate(208.178186 322.182437) scale(0.1 -0.1)">
       <defs>
        <path id="DejaVuSans-32" d="M 1228 531 
L 3431 531 
L 3431 0 
L 469 0 
L 469 531 
Q 828 903 1448 1529 
Q 2069 2156 2228 2338 
Q 2531 2678 2651 2914 
Q 2772 3150 2772 3378 
Q 2772 3750 2511 3984 
Q 2250 4219 1831 4219 
Q 1534 4219 1204 4116 
Q 875 4013 500 3803 
L 500 4441 
Q 881 4594 1212 4672 
Q 1544 4750 1819 4750 
Q 2544 4750 2975 4387 
Q 3406 4025 3406 3419 
Q 3406 3131 3298 2873 
Q 3191 2616 2906 2266 
Q 2828 2175 2409 1742 
Q 1991 1309 1228 531 
z
" transform="scale(0.015625)"/>
       </defs>
       <use xlink:href="#DejaVuSans-32"/>
       <use xlink:href="#DejaVuSans-30" x="63.623047"/>
       <use xlink:href="#DejaVuSans-30" x="127.246094"/>
      </g>
     </g>
    </g>
    <g id="xtick_6">
     <g id="line2d_6">
      <g>
       <use xlink:href="#m185346621a" x="253.875003" y="307.584" style="stroke: #000000; stroke-width: 0.8"/>
      </g>
     </g>
     <g id="text_6">
      <!-- 250 -->
      <g transform="translate(244.331253 322.182437) scale(0.1 -0.1)">
       <use xlink:href="#DejaVuSans-32"/>
       <use xlink:href="#DejaVuSans-35" x="63.623047"/>
       <use xlink:href="#DejaVuSans-30" x="127.246094"/>
      </g>
     </g>
    </g>
    <g id="xtick_7">
     <g id="line2d_7">
      <g>
       <use xlink:href="#m185346621a" x="290.02807" y="307.584" style="stroke: #000000; stroke-width: 0.8"/>
      </g>
     </g>
     <g id="text_7">
      <!-- 300 -->
      <g transform="translate(280.48432 322.182437) scale(0.1 -0.1)">
       <defs>
        <path id="DejaVuSans-33" d="M 2597 2516 
Q 3050 2419 3304 2112 
Q 3559 1806 3559 1356 
Q 3559 666 3084 287 
Q 2609 -91 1734 -91 
Q 1441 -91 1130 -33 
Q 819 25 488 141 
L 488 750 
Q 750 597 1062 519 
Q 1375 441 1716 441 
Q 2309 441 2620 675 
Q 2931 909 2931 1356 
Q 2931 1769 2642 2001 
Q 2353 2234 1838 2234 
L 1294 2234 
L 1294 2753 
L 1863 2753 
Q 2328 2753 2575 2939 
Q 2822 3125 2822 3475 
Q 2822 3834 2567 4026 
Q 2313 4219 1838 4219 
Q 1578 4219 1281 4162 
Q 984 4106 628 3988 
L 628 4550 
Q 988 4650 1302 4700 
Q 1616 4750 1894 4750 
Q 2613 4750 3031 4423 
Q 3450 4097 3450 3541 
Q 3450 3153 3228 2886 
Q 3006 2619 2597 2516 
z
" transform="scale(0.015625)"/>
       </defs>
       <use xlink:href="#DejaVuSans-33"/>
       <use xlink:href="#DejaVuSans-30" x="63.623047"/>
       <use xlink:href="#DejaVuSans-30" x="127.246094"/>
      </g>
     </g>
    </g>
    <g id="xtick_8">
     <g id="line2d_8">
      <g>
       <use xlink:href="#m185346621a" x="326.181138" y="307.584" style="stroke: #000000; stroke-width: 0.8"/>
      </g>
     </g>
     <g id="text_8">
      <!-- 350 -->
      <g transform="translate(316.637388 322.182437) scale(0.1 -0.1)">
       <use xlink:href="#DejaVuSans-33"/>
       <use xlink:href="#DejaVuSans-35" x="63.623047"/>
       <use xlink:href="#DejaVuSans-30" x="127.246094"/>
      </g>
     </g>
    </g>
    <g id="xtick_9">
     <g id="line2d_9">
      <g>
       <use xlink:href="#m185346621a" x="362.334205" y="307.584" style="stroke: #000000; stroke-width: 0.8"/>
      </g>
     </g>
     <g id="text_9">
      <!-- 400 -->
      <g transform="translate(352.790455 322.182437) scale(0.1 -0.1)">
       <defs>
        <path id="DejaVuSans-34" d="M 2419 4116 
L 825 1625 
L 2419 1625 
L 2419 4116 
z
M 2253 4666 
L 3047 4666 
L 3047 1625 
L 3713 1625 
L 3713 1100 
L 3047 1100 
L 3047 0 
L 2419 0 
L 2419 1100 
L 313 1100 
L 313 1709 
L 2253 4666 
z
" transform="scale(0.015625)"/>
       </defs>
       <use xlink:href="#DejaVuSans-34"/>
       <use xlink:href="#DejaVuSans-30" x="63.623047"/>
       <use xlink:href="#DejaVuSans-30" x="127.246094"/>
      </g>
     </g>
    </g>
    <g id="xtick_10">
     <g id="line2d_10">
      <g>
       <use xlink:href="#m185346621a" x="398.487273" y="307.584" style="stroke: #000000; stroke-width: 0.8"/>
      </g>
     </g>
     <g id="text_10">
      <!-- 450 -->
      <g transform="translate(388.943523 322.182437) scale(0.1 -0.1)">
       <use xlink:href="#DejaVuSans-34"/>
       <use xlink:href="#DejaVuSans-35" x="63.623047"/>
       <use xlink:href="#DejaVuSans-30" x="127.246094"/>
      </g>
     </g>
    </g>
    <g id="text_11">
     <!-- Epochs -->
     <g transform="translate(218.244375 335.860562) scale(0.1 -0.1)">
      <defs>
       <path id="DejaVuSans-45" d="M 628 4666 
L 3578 4666 
L 3578 4134 
L 1259 4134 
L 1259 2753 
L 3481 2753 
L 3481 2222 
L 1259 2222 
L 1259 531 
L 3634 531 
L 3634 0 
L 628 0 
L 628 4666 
z
" transform="scale(0.015625)"/>
       <path id="DejaVuSans-70" d="M 1159 525 
L 1159 -1331 
L 581 -1331 
L 581 3500 
L 1159 3500 
L 1159 2969 
Q 1341 3281 1617 3432 
Q 1894 3584 2278 3584 
Q 2916 3584 3314 3078 
Q 3713 2572 3713 1747 
Q 3713 922 3314 415 
Q 2916 -91 2278 -91 
Q 1894 -91 1617 61 
Q 1341 213 1159 525 
z
M 3116 1747 
Q 3116 2381 2855 2742 
Q 2594 3103 2138 3103 
Q 1681 3103 1420 2742 
Q 1159 2381 1159 1747 
Q 1159 1113 1420 752 
Q 1681 391 2138 391 
Q 2594 391 2855 752 
Q 3116 1113 3116 1747 
z
" transform="scale(0.015625)"/>
       <path id="DejaVuSans-6f" d="M 1959 3097 
Q 1497 3097 1228 2736 
Q 959 2375 959 1747 
Q 959 1119 1226 758 
Q 1494 397 1959 397 
Q 2419 397 2687 759 
Q 2956 1122 2956 1747 
Q 2956 2369 2687 2733 
Q 2419 3097 1959 3097 
z
M 1959 3584 
Q 2709 3584 3137 3096 
Q 3566 2609 3566 1747 
Q 3566 888 3137 398 
Q 2709 -91 1959 -91 
Q 1206 -91 779 398 
Q 353 888 353 1747 
Q 353 2609 779 3096 
Q 1206 3584 1959 3584 
z
" transform="scale(0.015625)"/>
       <path id="DejaVuSans-63" d="M 3122 3366 
L 3122 2828 
Q 2878 2963 2633 3030 
Q 2388 3097 2138 3097 
Q 1578 3097 1268 2742 
Q 959 2388 959 1747 
Q 959 1106 1268 751 
Q 1578 397 2138 397 
Q 2388 397 2633 464 
Q 2878 531 3122 666 
L 3122 134 
Q 2881 22 2623 -34 
Q 2366 -91 2075 -91 
Q 1284 -91 818 406 
Q 353 903 353 1747 
Q 353 2603 823 3093 
Q 1294 3584 2113 3584 
Q 2378 3584 2631 3529 
Q 2884 3475 3122 3366 
z
" transform="scale(0.015625)"/>
       <path id="DejaVuSans-68" d="M 3513 2113 
L 3513 0 
L 2938 0 
L 2938 2094 
Q 2938 2591 2744 2837 
Q 2550 3084 2163 3084 
Q 1697 3084 1428 2787 
Q 1159 2491 1159 1978 
L 1159 0 
L 581 0 
L 581 4863 
L 1159 4863 
L 1159 2956 
Q 1366 3272 1645 3428 
Q 1925 3584 2291 3584 
Q 2894 3584 3203 3211 
Q 3513 2838 3513 2113 
z
" transform="scale(0.015625)"/>
       <path id="DejaVuSans-73" d="M 2834 3397 
L 2834 2853 
Q 2591 2978 2328 3040 
Q 2066 3103 1784 3103 
Q 1356 3103 1142 2972 
Q 928 2841 928 2578 
Q 928 2378 1081 2264 
Q 1234 2150 1697 2047 
L 1894 2003 
Q 2506 1872 2764 1633 
Q 3022 1394 3022 966 
Q 3022 478 2636 193 
Q 2250 -91 1575 -91 
Q 1294 -91 989 -36 
Q 684 19 347 128 
L 347 722 
Q 666 556 975 473 
Q 1284 391 1588 391 
Q 1994 391 2212 530 
Q 2431 669 2431 922 
Q 2431 1156 2273 1281 
Q 2116 1406 1581 1522 
L 1381 1569 
Q 847 1681 609 1914 
Q 372 2147 372 2553 
Q 372 3047 722 3315 
Q 1072 3584 1716 3584 
Q 2034 3584 2315 3537 
Q 2597 3491 2834 3397 
z
" transform="scale(0.015625)"/>
      </defs>
      <use xlink:href="#DejaVuSans-45"/>
      <use xlink:href="#DejaVuSans-70" x="63.183594"/>
      <use xlink:href="#DejaVuSans-6f" x="126.660156"/>
      <use xlink:href="#DejaVuSans-63" x="187.841797"/>
      <use xlink:href="#DejaVuSans-68" x="242.822266"/>
      <use xlink:href="#DejaVuSans-73" x="306.201172"/>
     </g>
    </g>
   </g>
   <g id="matplotlib.axis_2">
    <g id="ytick_1">
     <g id="line2d_11">
      <defs>
       <path id="mf25b50128d" d="M 0 0 
L -3.5 0 
" style="stroke: #000000; stroke-width: 0.8"/>
      </defs>
      <g>
       <use xlink:href="#mf25b50128d" x="57.6" y="286.632521" style="stroke: #000000; stroke-width: 0.8"/>
      </g>
     </g>
     <g id="text_12">
      <!-- 10 -->
      <g transform="translate(37.875 290.43174) scale(0.1 -0.1)">
       <use xlink:href="#DejaVuSans-31"/>
       <use xlink:href="#DejaVuSans-30" x="63.623047"/>
      </g>
     </g>
    </g>
    <g id="ytick_2">
     <g id="line2d_12">
      <g>
       <use xlink:href="#mf25b50128d" x="57.6" y="254.19487" style="stroke: #000000; stroke-width: 0.8"/>
      </g>
     </g>
     <g id="text_13">
      <!-- 20 -->
      <g transform="translate(37.875 257.994089) scale(0.1 -0.1)">
       <use xlink:href="#DejaVuSans-32"/>
       <use xlink:href="#DejaVuSans-30" x="63.623047"/>
      </g>
     </g>
    </g>
    <g id="ytick_3">
     <g id="line2d_13">
      <g>
       <use xlink:href="#mf25b50128d" x="57.6" y="221.75722" style="stroke: #000000; stroke-width: 0.8"/>
      </g>
     </g>
     <g id="text_14">
      <!-- 30 -->
      <g transform="translate(37.875 225.556438) scale(0.1 -0.1)">
       <use xlink:href="#DejaVuSans-33"/>
       <use xlink:href="#DejaVuSans-30" x="63.623047"/>
      </g>
     </g>
    </g>
    <g id="ytick_4">
     <g id="line2d_14">
      <g>
       <use xlink:href="#mf25b50128d" x="57.6" y="189.319569" style="stroke: #000000; stroke-width: 0.8"/>
      </g>
     </g>
     <g id="text_15">
      <!-- 40 -->
      <g transform="translate(37.875 193.118788) scale(0.1 -0.1)">
       <use xlink:href="#DejaVuSans-34"/>
       <use xlink:href="#DejaVuSans-30" x="63.623047"/>
      </g>
     </g>
    </g>
    <g id="ytick_5">
     <g id="line2d_15">
      <g>
       <use xlink:href="#mf25b50128d" x="57.6" y="156.881918" style="stroke: #000000; stroke-width: 0.8"/>
      </g>
     </g>
     <g id="text_16">
      <!-- 50 -->
      <g transform="translate(37.875 160.681137) scale(0.1 -0.1)">
       <use xlink:href="#DejaVuSans-35"/>
       <use xlink:href="#DejaVuSans-30" x="63.623047"/>
      </g>
     </g>
    </g>
    <g id="ytick_6">
     <g id="line2d_16">
      <g>
       <use xlink:href="#mf25b50128d" x="57.6" y="124.444267" style="stroke: #000000; stroke-width: 0.8"/>
      </g>
     </g>
     <g id="text_17">
      <!-- 60 -->
      <g transform="translate(37.875 128.243486) scale(0.1 -0.1)">
       <defs>
        <path id="DejaVuSans-36" d="M 2113 2584 
Q 1688 2584 1439 2293 
Q 1191 2003 1191 1497 
Q 1191 994 1439 701 
Q 1688 409 2113 409 
Q 2538 409 2786 701 
Q 3034 994 3034 1497 
Q 3034 2003 2786 2293 
Q 2538 2584 2113 2584 
z
M 3366 4563 
L 3366 3988 
Q 3128 4100 2886 4159 
Q 2644 4219 2406 4219 
Q 1781 4219 1451 3797 
Q 1122 3375 1075 2522 
Q 1259 2794 1537 2939 
Q 1816 3084 2150 3084 
Q 2853 3084 3261 2657 
Q 3669 2231 3669 1497 
Q 3669 778 3244 343 
Q 2819 -91 2113 -91 
Q 1303 -91 875 529 
Q 447 1150 447 2328 
Q 447 3434 972 4092 
Q 1497 4750 2381 4750 
Q 2619 4750 2861 4703 
Q 3103 4656 3366 4563 
z
" transform="scale(0.015625)"/>
       </defs>
       <use xlink:href="#DejaVuSans-36"/>
       <use xlink:href="#DejaVuSans-30" x="63.623047"/>
      </g>
     </g>
    </g>
    <g id="ytick_7">
     <g id="line2d_17">
      <g>
       <use xlink:href="#mf25b50128d" x="57.6" y="92.006616" style="stroke: #000000; stroke-width: 0.8"/>
      </g>
     </g>
     <g id="text_18">
      <!-- 70 -->
      <g transform="translate(37.875 95.805835) scale(0.1 -0.1)">
       <defs>
        <path id="DejaVuSans-37" d="M 525 4666 
L 3525 4666 
L 3525 4397 
L 1831 0 
L 1172 0 
L 2766 4134 
L 525 4134 
L 525 4666 
z
" transform="scale(0.015625)"/>
       </defs>
       <use xlink:href="#DejaVuSans-37"/>
       <use xlink:href="#DejaVuSans-30" x="63.623047"/>
      </g>
     </g>
    </g>
    <g id="ytick_8">
     <g id="line2d_18">
      <g>
       <use xlink:href="#mf25b50128d" x="57.6" y="59.568965" style="stroke: #000000; stroke-width: 0.8"/>
      </g>
     </g>
     <g id="text_19">
      <!-- 80 -->
      <g transform="translate(37.875 63.368184) scale(0.1 -0.1)">
       <defs>
        <path id="DejaVuSans-38" d="M 2034 2216 
Q 1584 2216 1326 1975 
Q 1069 1734 1069 1313 
Q 1069 891 1326 650 
Q 1584 409 2034 409 
Q 2484 409 2743 651 
Q 3003 894 3003 1313 
Q 3003 1734 2745 1975 
Q 2488 2216 2034 2216 
z
M 1403 2484 
Q 997 2584 770 2862 
Q 544 3141 544 3541 
Q 544 4100 942 4425 
Q 1341 4750 2034 4750 
Q 2731 4750 3128 4425 
Q 3525 4100 3525 3541 
Q 3525 3141 3298 2862 
Q 3072 2584 2669 2484 
Q 3125 2378 3379 2068 
Q 3634 1759 3634 1313 
Q 3634 634 3220 271 
Q 2806 -91 2034 -91 
Q 1263 -91 848 271 
Q 434 634 434 1313 
Q 434 1759 690 2068 
Q 947 2378 1403 2484 
z
M 1172 3481 
Q 1172 3119 1398 2916 
Q 1625 2713 2034 2713 
Q 2441 2713 2670 2916 
Q 2900 3119 2900 3481 
Q 2900 3844 2670 4047 
Q 2441 4250 2034 4250 
Q 1625 4250 1398 4047 
Q 1172 3844 1172 3481 
z
" transform="scale(0.015625)"/>
       </defs>
       <use xlink:href="#DejaVuSans-38"/>
       <use xlink:href="#DejaVuSans-30" x="63.623047"/>
      </g>
     </g>
    </g>
    <g id="text_20">
     <!-- Accuracy -->
     <g transform="translate(31.795312 197.356125) rotate(-90) scale(0.1 -0.1)">
      <defs>
       <path id="DejaVuSans-41" d="M 2188 4044 
L 1331 1722 
L 3047 1722 
L 2188 4044 
z
M 1831 4666 
L 2547 4666 
L 4325 0 
L 3669 0 
L 3244 1197 
L 1141 1197 
L 716 0 
L 50 0 
L 1831 4666 
z
" transform="scale(0.015625)"/>
       <path id="DejaVuSans-75" d="M 544 1381 
L 544 3500 
L 1119 3500 
L 1119 1403 
Q 1119 906 1312 657 
Q 1506 409 1894 409 
Q 2359 409 2629 706 
Q 2900 1003 2900 1516 
L 2900 3500 
L 3475 3500 
L 3475 0 
L 2900 0 
L 2900 538 
Q 2691 219 2414 64 
Q 2138 -91 1772 -91 
Q 1169 -91 856 284 
Q 544 659 544 1381 
z
M 1991 3584 
L 1991 3584 
z
" transform="scale(0.015625)"/>
       <path id="DejaVuSans-72" d="M 2631 2963 
Q 2534 3019 2420 3045 
Q 2306 3072 2169 3072 
Q 1681 3072 1420 2755 
Q 1159 2438 1159 1844 
L 1159 0 
L 581 0 
L 581 3500 
L 1159 3500 
L 1159 2956 
Q 1341 3275 1631 3429 
Q 1922 3584 2338 3584 
Q 2397 3584 2469 3576 
Q 2541 3569 2628 3553 
L 2631 2963 
z
" transform="scale(0.015625)"/>
       <path id="DejaVuSans-61" d="M 2194 1759 
Q 1497 1759 1228 1600 
Q 959 1441 959 1056 
Q 959 750 1161 570 
Q 1363 391 1709 391 
Q 2188 391 2477 730 
Q 2766 1069 2766 1631 
L 2766 1759 
L 2194 1759 
z
M 3341 1997 
L 3341 0 
L 2766 0 
L 2766 531 
Q 2569 213 2275 61 
Q 1981 -91 1556 -91 
Q 1019 -91 701 211 
Q 384 513 384 1019 
Q 384 1609 779 1909 
Q 1175 2209 1959 2209 
L 2766 2209 
L 2766 2266 
Q 2766 2663 2505 2880 
Q 2244 3097 1772 3097 
Q 1472 3097 1187 3025 
Q 903 2953 641 2809 
L 641 3341 
Q 956 3463 1253 3523 
Q 1550 3584 1831 3584 
Q 2591 3584 2966 3190 
Q 3341 2797 3341 1997 
z
" transform="scale(0.015625)"/>
       <path id="DejaVuSans-79" d="M 2059 -325 
Q 1816 -950 1584 -1140 
Q 1353 -1331 966 -1331 
L 506 -1331 
L 506 -850 
L 844 -850 
Q 1081 -850 1212 -737 
Q 1344 -625 1503 -206 
L 1606 56 
L 191 3500 
L 800 3500 
L 1894 763 
L 2988 3500 
L 3597 3500 
L 2059 -325 
z
" transform="scale(0.015625)"/>
      </defs>
      <use xlink:href="#DejaVuSans-41"/>
      <use xlink:href="#DejaVuSans-63" x="66.658203"/>
      <use xlink:href="#DejaVuSans-63" x="121.638672"/>
      <use xlink:href="#DejaVuSans-75" x="176.619141"/>
      <use xlink:href="#DejaVuSans-72" x="239.998047"/>
      <use xlink:href="#DejaVuSans-61" x="281.111328"/>
      <use xlink:href="#DejaVuSans-63" x="342.390625"/>
      <use xlink:href="#DejaVuSans-79" x="397.371094"/>
     </g>
    </g>
   </g>
   <g id="line2d_19">
    <path d="M 73.832727 295.267424 
L 76.001911 226.66828 
L 76.724973 209.210336 
L 77.448034 195.372434 
L 78.171095 186.458568 
L 78.894157 173.191569 
L 79.617218 163.791138 
L 83.232525 141.928161 
L 83.955586 139.547237 
L 84.678647 131.08101 
L 85.401709 130.743659 
L 86.12477 128.92715 
L 86.847832 124.664843 
L 87.570893 121.868718 
L 88.293954 121.200502 
L 89.017016 119.364531 
L 89.740077 118.423839 
L 90.463138 115.543376 
L 91.1862 113.162452 
L 91.909261 115.504451 
L 92.632322 112.974314 
L 93.355384 112.494237 
L 94.078445 105.922368 
L 94.801506 105.585017 
L 95.524568 132.618555 
L 96.247629 137.069001 
L 96.97069 132.255253 
L 97.693752 130.049493 
L 98.416813 135.953146 
L 99.139874 127.519356 
L 99.862936 129.45264 
L 100.585997 125.813136 
L 101.309059 119.877046 
L 102.03212 121.181039 
L 102.755181 118.222726 
L 103.478243 118.164338 
L 104.201304 115.017886 
L 104.924365 115.024373 
L 105.647427 110.846404 
L 106.370488 111.462719 
L 107.093549 111.469207 
L 107.816611 110.009512 
L 108.539672 114.84921 
L 109.262733 111.767633 
L 109.985795 105.351466 
L 110.708856 108.257879 
L 111.431917 101.906587 
L 112.154979 100.090079 
L 112.87804 106.986323 
L 113.601101 103.521982 
L 114.324163 101.484898 
L 115.047224 98.202208 
L 115.770285 100.369043 
L 116.493347 99.16885 
L 117.216408 96.606275 
L 117.93947 95.821284 
L 118.662531 94.38754 
L 119.385592 96.06781 
L 120.108654 93.265197 
L 120.831715 89.846269 
L 122.277838 92.454256 
L 123.000899 86.602504 
L 123.72396 91.1308 
L 124.447022 86.239202 
L 125.170083 83.780428 
L 125.893144 83.021387 
L 126.616206 84.760045 
L 127.339267 82.450484 
L 128.062328 80.91294 
L 128.78539 80.971327 
L 129.508451 83.430101 
L 130.231512 81.120541 
L 130.954574 80.095511 
L 131.677635 83.916666 
L 132.400696 78.525529 
L 133.123758 81.360579 
L 133.846819 79.777622 
L 134.569881 77.383723 
L 135.292942 81.088103 
L 136.016003 79.025068 
L 136.739065 75.573702 
L 137.462126 82.002845 
L 138.185187 79.427295 
L 138.908249 101.011308 
L 139.63131 103.437644 
L 140.354371 107.88809 
L 141.077433 105.675842 
L 141.800494 106.188357 
L 142.523555 101.205934 
L 143.246617 103.509007 
L 143.969678 99.279138 
L 144.692739 102.269889 
L 145.415801 102.724016 
L 146.138862 97.825931 
L 146.861923 100.648006 
L 147.584985 98.77311 
L 148.308046 97.69618 
L 149.031108 97.890806 
L 149.754169 98.967736 
L 150.47723 100.946433 
L 151.200292 98.941786 
L 151.923353 101.621136 
L 152.646414 94.841667 
L 153.369476 96.379212 
L 154.092537 95.873184 
L 154.815598 95.127118 
L 155.53866 95.120631 
L 156.261721 93.239247 
L 156.984782 96.14566 
L 157.707844 94.46539 
L 158.430905 90.060357 
L 159.153966 90.417171 
L 159.877028 94.880592 
L 160.600089 90.488534 
L 161.32315 93.563623 
L 162.046212 90.696135 
L 162.769273 93.239247 
L 163.492334 92.039054 
L 164.215396 89.65813 
L 164.938457 89.482967 
L 165.661519 88.853677 
L 166.38458 88.393062 
L 167.107641 94.089113 
L 167.830703 85.869413 
L 168.553764 86.920393 
L 169.276825 88.762851 
L 169.999887 85.039009 
L 170.722948 88.075173 
L 171.446009 86.310565 
L 172.169071 87.685921 
L 172.892132 88.50335 
L 173.615193 83.404151 
L 174.338255 84.228068 
L 175.061316 79.31052 
L 175.784377 88.386574 
L 177.2305 75.55424 
L 177.953561 80.54315 
L 178.676623 89.625693 
L 180.122745 82.346684 
L 180.845807 83.293863 
L 181.568868 89.482967 
L 182.29193 78.532016 
L 183.014991 77.325335 
L 183.738052 77.195585 
L 184.461114 78.78503 
L 185.184175 82.61916 
L 185.907236 77.922188 
L 186.630298 79.699772 
L 187.353359 79.615434 
L 188.07642 82.975974 
L 188.799482 73.45228 
L 189.522543 80.530175 
L 190.245604 73.848019 
L 190.968666 77.429136 
L 191.691727 71.369783 
L 192.414788 76.300306 
L 193.13785 70.19554 
L 193.860911 72.505101 
L 194.583972 72.972203 
L 195.307034 72.861915 
L 196.030095 74.736811 
L 196.753157 69.300261 
L 197.476218 73.445792 
L 198.199279 71.181644 
L 198.922341 66.54306 
L 199.645402 77.23451 
L 200.368463 74.036158 
L 201.091525 72.732164 
L 201.814586 69.027784 
L 202.537647 70.69508 
L 203.260709 68.820183 
L 203.98377 69.832238 
L 204.706831 72.920302 
L 205.429893 70.357728 
L 206.152954 65.874845 
L 206.876015 66.971237 
L 207.599077 66.692274 
L 208.322138 66.906362 
L 209.045199 66.354922 
L 209.768261 70.682105 
L 210.491322 67.379952 
L 211.214383 67.555115 
L 211.937445 61.502249 
L 212.660506 62.741368 
L 213.383568 65.375305 
L 214.106629 63.973998 
L 214.82969 67.821104 
L 215.552752 63.377146 
L 216.275813 59.867392 
L 216.998874 66.270584 
L 217.721936 65.829432 
L 218.444997 64.350275 
L 219.168058 65.699681 
L 219.89112 65.174191 
L 220.614181 68.898034 
L 221.337242 64.064824 
L 222.060304 62.306703 
L 222.783365 63.15657 
L 223.506426 60.204743 
L 224.229488 66.328972 
L 224.952549 65.822944 
L 225.67561 85.29851 
L 226.398672 92.571031 
L 227.121733 91.773065 
L 227.844794 88.406037 
L 228.567856 95.555295 
L 229.290917 89.982507 
L 230.013979 93.472798 
L 230.73704 87.750796 
L 231.460101 92.486693 
L 232.183163 92.330993 
L 234.352347 88.399549 
L 235.075408 90.216058 
L 235.798469 88.243849 
L 236.521531 91.221625 
L 237.244592 84.902771 
L 237.967653 91.65629 
L 238.690715 87.640508 
L 239.413776 87.42642 
L 240.136837 91.915791 
L 240.859899 85.765612 
L 241.58296 87.00473 
L 242.306021 85.077934 
L 243.029083 89.457017 
L 243.752144 87.166919 
L 244.475206 88.542275 
L 245.198267 88.697976 
L 245.921328 87.556171 
L 246.64439 87.205844 
L 247.367451 83.806378 
L 248.090512 89.165078 
L 248.813574 83.157625 
L 249.536635 84.974134 
L 250.259696 83.650677 
L 250.982758 87.653484 
L 251.705819 89.346729 
L 252.42888 86.200277 
L 253.151942 88.068685 
L 253.875003 85.097397 
L 254.598064 87.601583 
L 255.321126 87.458858 
L 256.044187 81.600618 
L 256.767248 81.023228 
L 257.49031 84.403231 
L 258.936432 85.103884 
L 259.659494 85.986188 
L 260.382555 81.652518 
L 261.105617 82.969487 
L 261.828678 86.077014 
L 262.551739 82.307759 
L 263.274801 85.596936 
L 263.997862 78.246565 
L 264.720923 82.716473 
L 265.443985 81.710906 
L 266.167046 83.216013 
L 266.890107 83.14465 
L 267.613169 80.91294 
L 268.33623 79.784109 
L 269.059291 77.422648 
L 269.782353 81.250291 
L 270.505414 85.973213 
L 271.228475 82.975974 
L 271.951537 80.809139 
L 272.674598 81.509792 
L 273.397659 78.155739 
L 274.120721 82.988949 
L 274.843782 83.443076 
L 275.566843 79.83601 
L 276.289905 79.96576 
L 277.012966 77.202072 
L 277.736028 80.951865 
L 278.459089 76.890671 
L 279.18215 75.800766 
L 279.905212 77.902726 
L 280.628273 82.950024 
L 281.351334 82.340196 
L 282.074396 77.169635 
L 282.797457 77.967601 
L 283.520518 81.775781 
L 284.24358 74.892512 
L 284.966641 79.544071 
L 285.689702 77.591324 
L 286.412764 77.18261 
L 287.135825 80.329062 
L 287.858886 78.765567 
L 288.581948 76.027829 
L 289.305009 78.330903 
L 290.02807 75.807253 
L 290.751132 78.551479 
L 291.474193 75.852666 
L 292.197255 74.263221 
L 292.920316 79.582996 
L 293.643377 78.681229 
L 294.366439 72.200187 
L 295.0895 72.887865 
L 295.812561 76.618195 
L 296.535623 76.942571 
L 297.258684 79.031556 
L 297.981745 75.1585 
L 298.704807 79.433783 
L 299.427868 79.634896 
L 300.150929 74.860074 
L 300.873991 74.146446 
L 301.597052 78.960193 
L 302.320113 80.296624 
L 303.043175 73.50418 
L 303.766236 74.062108 
L 304.489297 73.873969 
L 305.212359 71.019456 
L 305.93542 76.877696 
L 306.658481 67.678378 
L 307.381543 72.42725 
L 308.104604 73.076003 
L 308.827666 72.582951 
L 310.273788 68.781258 
L 311.719911 73.945332 
L 312.442972 73.40038 
L 313.166034 72.3494 
L 313.889095 75.716428 
L 314.612156 73.718269 
L 315.335218 72.82299 
L 316.78134 68.943447 
L 317.504402 63.954536 
L 318.227463 70.227977 
L 318.950524 69.566249 
L 319.673586 74.827636 
L 320.396647 70.013889 
L 321.119708 69.404061 
L 321.84277 71.116769 
L 322.565831 69.267823 
L 323.288892 66.750661 
L 324.011954 67.54214 
L 324.735015 70.156615 
L 325.458077 68.333619 
L 326.181138 67.224251 
L 326.904199 71.694159 
L 327.627261 67.120451 
L 328.350322 67.217763 
L 329.073383 69.09266 
L 329.796445 72.050973 
L 330.519506 67.191813 
L 331.965629 70.844293 
L 332.68869 68.709895 
L 333.411751 70.078764 
L 334.134813 68.379031 
L 334.857874 64.733039 
L 335.580935 62.728393 
L 336.303997 67.885979 
L 337.027058 64.499488 
L 337.750119 66.328972 
L 338.473181 61.943401 
L 339.196242 62.267778 
L 339.919304 61.00271 
L 340.642365 69.086172 
L 341.365426 66.594961 
L 342.088488 57.843282 
L 342.811549 62.961944 
L 343.53461 59.322439 
L 344.257672 61.839601 
L 344.980733 63.870198 
L 345.703794 62.767318 
L 346.426856 62.987894 
L 347.149917 64.992541 
L 347.872978 63.591234 
L 349.319101 65.174191 
L 350.042162 65.187167 
L 350.765224 69.319723 
L 351.488285 60.315031 
L 352.211346 61.210311 
L 352.934408 61.5801 
L 353.657469 62.20939 
L 354.38053 63.007356 
L 355.103592 63.610697 
L 355.826653 60.574533 
L 356.549715 64.077799 
L 357.272776 66.672811 
L 357.995837 60.00363 
L 358.718899 56.175987 
L 359.44196 62.63108 
L 360.165021 65.738607 
L 360.888083 63.584747 
L 361.611144 60.347469 
L 363.057267 63.403096 
L 363.780328 62.481866 
L 364.503389 60.315031 
L 365.226451 63.098182 
L 365.949512 63.656109 
L 366.672573 59.367852 
L 367.395635 58.50501 
L 368.118696 60.924859 
L 368.841757 67.607015 
L 369.564819 64.518951 
L 370.28788 63.292808 
L 371.010941 60.736721 
L 371.734003 60.801596 
L 372.457064 62.436454 
L 373.180126 61.567125 
L 373.903187 61.05461 
L 374.626248 62.07964 
L 375.34931 62.592154 
L 376.072371 61.242748 
L 376.795432 57.045316 
L 377.518494 60.989735 
L 378.241555 57.188042 
L 378.964616 59.101863 
L 379.687678 63.325245 
L 380.410739 65.822944 
L 381.1338 58.894262 
L 381.856862 62.890581 
L 382.579923 59.53004 
L 383.302984 61.885014 
L 384.026046 63.137107 
L 384.749107 62.442941 
L 385.472168 65.738607 
L 386.19523 58.167659 
L 386.918291 61.988814 
L 387.641353 64.681139 
L 388.364414 62.112077 
L 389.087475 57.447543 
L 389.810537 59.912805 
L 390.533598 59.179714 
L 391.256659 60.211231 
L 391.979721 66.9907 
L 392.702782 60.847009 
L 393.425843 64.31135 
L 394.148905 56.77284 
L 394.871966 64.3373 
L 395.595027 64.934153 
L 396.318089 62.514304 
L 397.04115 59.017525 
L 397.764211 64.499488 
L 398.487273 59.821979 
L 398.487273 59.821979 
" clip-path="url(#p0581a8097d)" style="fill: none; stroke: #1f77b4; stroke-width: 1.5; stroke-linecap: square"/>
   </g>
   <g id="line2d_20">
    <path d="M 73.832727 281.604685 
L 75.27885 232.429207 
L 76.001911 220.362401 
L 76.724973 217.086198 
L 77.448034 190.941451 
L 78.171095 179.134146 
L 78.894157 164.277702 
L 79.617218 162.169255 
L 80.340279 153.281339 
L 81.063341 151.46483 
L 81.786402 142.090349 
L 82.509463 140.01434 
L 83.232525 130.834484 
L 83.955586 131.256174 
L 84.678647 127.104154 
L 85.401709 124.411829 
L 86.12477 123.763076 
L 86.847832 116.886294 
L 87.570893 115.815852 
L 88.293954 111.598957 
L 89.017016 108.874195 
L 89.740077 109.101258 
L 90.463138 107.641564 
L 91.1862 104.430237 
L 91.909261 105.176302 
L 92.632322 103.00298 
L 93.355384 101.770349 
L 94.078445 100.79722 
L 94.801506 101.510848 
L 95.524568 139.884589 
L 96.247629 133.948499 
L 96.97069 130.639858 
L 97.693752 120.162497 
L 98.416813 119.481307 
L 99.139874 124.379392 
L 100.585997 113.318153 
L 102.03212 114.583221 
L 102.755181 112.572087 
L 103.478243 107.868628 
L 104.201304 108.452505 
L 104.924365 103.716608 
L 105.647427 106.214307 
L 106.370488 101.867662 
L 107.093549 102.159601 
L 107.816611 100.310655 
L 108.539672 96.450574 
L 109.262733 100.894533 
L 109.985795 95.866697 
L 110.708856 98.072457 
L 111.431917 92.36343 
L 112.154979 92.395868 
L 112.87804 95.217944 
L 113.601101 91.455176 
L 114.324163 90.287421 
L 115.047224 91.584927 
L 115.770285 88.568225 
L 116.493347 86.913905 
L 117.216408 86.29759 
L 117.93947 85.32446 
L 118.662531 83.248451 
L 119.385592 81.691443 
L 120.108654 85.032521 
L 120.831715 81.367067 
L 121.554776 79.582996 
L 122.277838 80.750751 
L 123.72396 78.220615 
L 124.447022 77.571862 
L 125.170083 77.539424 
L 125.893144 76.890671 
L 126.616206 78.025989 
L 127.339267 74.457847 
L 128.062328 75.074163 
L 128.78539 73.711781 
L 130.231512 73.517155 
L 130.954574 71.668209 
L 131.677635 72.544026 
L 132.400696 70.435578 
L 133.846819 70.500454 
L 134.569881 71.570896 
L 135.292942 70.857268 
L 136.016003 71.408708 
L 136.739065 70.630204 
L 137.462126 70.792393 
L 138.185187 70.69508 
L 138.908249 99.499714 
L 139.63131 94.698941 
L 140.354371 98.72121 
L 141.077433 97.650767 
L 141.800494 93.823125 
L 142.523555 99.597027 
L 143.246617 94.147501 
L 143.969678 96.255949 
L 144.692739 93.823125 
L 145.415801 96.191073 
L 146.138862 92.78512 
L 146.861923 94.115064 
L 147.584985 87.724846 
L 148.308046 92.558056 
L 149.031108 87.854597 
L 149.754169 91.617364 
L 150.47723 87.238282 
L 151.200292 85.973213 
L 151.923353 89.768418 
L 152.646414 89.216978 
L 153.369476 88.243849 
L 154.092537 90.190108 
L 154.815598 86.232714 
L 155.53866 86.102964 
L 156.261721 84.318893 
L 156.984782 84.77302 
L 157.707844 85.454211 
L 158.430905 83.248451 
L 159.153966 83.605265 
L 159.877028 85.19471 
L 160.600089 81.983382 
L 161.32315 85.129834 
L 162.046212 80.750751 
L 162.769273 83.378201 
L 163.492334 82.729448 
L 164.215396 80.069561 
L 164.938457 80.49125 
L 165.661519 81.431942 
L 166.38458 81.756319 
L 167.107641 80.880502 
L 167.830703 81.853632 
L 168.553764 80.296624 
L 169.276825 80.556126 
L 169.999887 75.755353 
L 170.722948 78.058426 
L 172.169071 76.987984 
L 172.892132 80.069561 
L 173.615193 74.457847 
L 174.338255 76.047292 
L 175.061316 77.247485 
L 175.784377 76.858233 
L 176.507439 76.858233 
L 177.2305 73.938845 
L 177.953561 75.690478 
L 178.676623 75.203913 
L 179.399684 74.101033 
L 180.122745 75.560727 
L 180.845807 69.689512 
L 181.568868 73.030591 
L 182.29193 71.862835 
L 183.014991 71.895273 
L 183.738052 71.635772 
L 184.461114 75.074163 
L 185.184175 72.284525 
L 185.907236 70.597767 
L 186.630298 71.311395 
L 187.353359 69.624637 
L 188.799482 66.997187 
L 189.522543 69.462449 
L 190.245604 67.613503 
L 190.968666 67.191813 
L 191.691727 66.932312 
L 192.414788 68.359569 
L 193.13785 65.829432 
L 193.860911 67.613503 
L 194.583972 65.829432 
L 195.307034 64.953615 
L 196.030095 66.088933 
L 196.753157 65.829432 
L 197.476218 63.331733 
L 198.199279 64.012924 
L 198.922341 63.78586 
L 199.645402 63.915611 
L 200.368463 63.558796 
L 201.091525 62.68298 
L 201.814586 61.450349 
L 202.537647 62.650542 
L 203.260709 61.320599 
L 203.98377 61.02866 
L 204.706831 61.255723 
L 205.429893 61.288161 
L 206.152954 58.790462 
L 206.876015 60.866471 
L 207.599077 60.023093 
L 208.322138 61.547662 
L 209.045199 59.860904 
L 209.768261 60.412344 
L 210.491322 60.379907 
L 211.214383 58.95265 
L 211.937445 58.40121 
L 212.660506 59.114838 
L 213.383568 58.303897 
L 214.106629 59.244589 
L 214.82969 58.141709 
L 216.275813 57.622706 
L 216.998874 57.720019 
L 217.721936 58.109271 
L 218.444997 57.330767 
L 219.168058 57.29833 
L 219.89112 57.84977 
L 220.614181 56.3252 
L 221.337242 57.201017 
L 222.060304 56.292763 
L 222.783365 57.168579 
L 223.506426 56.292763 
L 224.952549 57.103704 
L 225.67561 81.367067 
L 226.398672 85.648837 
L 227.121733 87.789722 
L 227.844794 85.74615 
L 228.567856 89.087228 
L 229.290917 81.886069 
L 230.013979 82.113133 
L 230.73704 84.189142 
L 231.460101 85.097397 
L 232.183163 82.988949 
L 232.906224 83.637702 
L 233.629285 82.372634 
L 234.352347 80.426375 
L 235.075408 79.063994 
L 235.798469 80.329062 
L 236.521531 81.918507 
L 237.244592 80.815627 
L 237.967653 77.8638 
L 238.690715 83.183575 
L 239.413776 82.599698 
L 240.136837 79.842497 
L 241.58296 78.739617 
L 242.306021 79.550558 
L 243.029083 78.317928 
L 243.752144 77.928676 
L 244.475206 79.063994 
L 245.198267 77.961113 
L 245.921328 78.350365 
L 246.64439 80.621001 
L 247.367451 78.869368 
L 248.090512 82.242883 
L 248.813574 77.636737 
L 249.536635 77.215047 
L 250.259696 81.334629 
L 250.982758 80.556126 
L 251.705819 78.901805 
L 252.42888 79.518121 
L 253.151942 79.550558 
L 253.875003 73.549593 
L 255.321126 79.93981 
L 256.044187 77.442111 
L 256.767248 75.593165 
L 257.49031 76.468981 
L 258.213371 77.150172 
L 258.936432 77.279923 
L 259.659494 74.97685 
L 260.382555 76.566294 
L 261.105617 73.484718 
L 261.828678 76.241918 
L 262.551739 77.442111 
L 263.274801 74.944412 
L 263.997862 74.879537 
L 264.720923 75.430977 
L 265.443985 78.772055 
L 266.167046 73.614468 
L 266.890107 77.279923 
L 267.613169 73.419842 
L 268.33623 73.095466 
L 269.059291 72.90084 
L 269.782353 72.219649 
L 270.505414 75.430977 
L 271.228475 72.544026 
L 271.951537 74.55516 
L 272.674598 73.873969 
L 273.397659 75.52829 
L 274.120721 74.749786 
L 274.843782 74.360534 
L 275.566843 74.587598 
L 276.289905 69.559762 
L 277.012966 74.97685 
L 277.736028 73.419842 
L 278.459089 73.127903 
L 279.18215 73.614468 
L 279.905212 71.862835 
L 280.628273 73.290092 
L 281.351334 73.322529 
L 282.074396 70.792393 
L 282.797457 70.69508 
L 283.520518 71.765522 
L 284.24358 69.689512 
L 284.966641 69.527324 
L 285.689702 73.322529 
L 286.412764 74.717348 
L 287.135825 69.494887 
L 288.581948 70.597767 
L 289.305009 68.521757 
L 290.02807 71.92771 
L 290.751132 68.716383 
L 291.474193 69.689512 
L 292.197255 70.370703 
L 292.920316 70.69508 
L 293.643377 66.867437 
L 294.366439 69.494887 
L 295.0895 69.365136 
L 295.812561 69.851701 
L 296.535623 71.278957 
L 297.258684 66.932312 
L 297.981745 66.802562 
L 298.704807 71.603334 
L 299.427868 69.105635 
L 300.150929 68.132505 
L 300.873991 65.796994 
L 301.597052 68.651508 
L 302.320113 66.672811 
L 303.766236 72.933278 
L 304.489297 66.056496 
L 305.212359 65.44018 
L 305.93542 67.710816 
L 306.658481 66.737686 
L 307.381543 66.997187 
L 308.104604 66.283559 
L 308.827666 67.029625 
L 309.550727 63.656109 
L 310.273788 66.445747 
L 310.99685 66.445747 
L 311.719911 64.629239 
L 312.442972 64.499488 
L 313.166034 63.915611 
L 313.889095 63.688547 
L 314.612156 65.050928 
L 315.335218 62.845168 
L 316.058279 63.039794 
L 316.78134 64.596801 
L 317.504402 63.78586 
L 318.227463 65.634806 
L 318.950524 62.391041 
L 319.673586 64.402175 
L 320.396647 61.385474 
L 321.119708 62.26129 
L 321.84277 64.596801 
L 322.565831 61.969352 
L 323.288892 62.163977 
L 324.011954 63.753422 
L 324.735015 61.936914 
L 325.458077 64.012924 
L 326.181138 61.70985 
L 326.904199 61.742288 
L 327.627261 60.671846 
L 328.350322 60.379907 
L 329.073383 61.093535 
L 329.796445 60.801596 
L 330.519506 59.244589 
L 331.242567 59.893342 
L 331.965629 61.612537 
L 332.68869 62.520792 
L 333.411751 60.866471 
L 334.134813 58.758024 
L 334.857874 60.509657 
L 335.580935 60.315031 
L 336.303997 59.666278 
L 337.027058 57.622706 
L 337.750119 58.044396 
L 338.473181 59.114838 
L 339.196242 56.519826 
L 339.919304 56.130574 
L 340.642365 57.363205 
L 341.365426 56.973953 
L 342.088488 57.622706 
L 342.811549 55.741323 
L 343.53461 56.74689 
L 344.257672 57.330767 
L 344.980733 57.363205 
L 345.703794 58.985088 
L 346.426856 56.74689 
L 347.149917 56.87664 
L 347.872978 55.741323 
L 349.319101 57.038829 
L 350.042162 55.806198 
L 350.765224 56.552264 
L 351.488285 54.995257 
L 352.211346 57.038829 
L 352.934408 57.330767 
L 353.657469 56.844203 
L 354.38053 58.141709 
L 355.103592 57.006391 
L 355.826653 56.19545 
L 356.549715 57.492956 
L 357.272776 56.000824 
L 357.995837 57.42808 
L 358.718899 56.000824 
L 359.44196 57.42808 
L 360.888083 55.935949 
L 361.611144 54.768193 
L 362.334205 54.443817 
L 363.057267 57.136142 
L 363.780328 54.768193 
L 364.503389 56.617139 
L 365.226451 54.897944 
L 365.949512 56.617139 
L 366.672573 54.638442 
L 367.395635 56.000824 
L 368.118696 56.909078 
L 368.841757 56.000824 
L 369.564819 56.74689 
L 370.28788 56.098137 
L 371.010941 54.833068 
L 371.734003 54.087002 
L 372.457064 57.460518 
L 373.180126 56.390076 
L 373.903187 54.508692 
L 374.626248 56.000824 
L 375.34931 56.292763 
L 376.072371 56.941516 
L 377.518494 54.216753 
L 378.241555 55.806198 
L 378.964616 57.006391 
L 379.687678 55.125007 
L 380.410739 56.584702 
L 381.1338 54.930381 
L 382.579923 56.422513 
L 383.302984 55.027694 
L 384.026046 57.622706 
L 385.472168 55.481821 
L 386.19523 55.481821 
L 387.641353 54.249191 
L 388.364414 56.163012 
L 389.810537 55.546697 
L 391.256659 55.871073 
L 392.702782 53.568 
L 393.425843 55.287195 
L 394.148905 55.708885 
L 394.871966 55.319633 
L 395.595027 54.54113 
L 397.04115 56.714452 
L 397.764211 56.3252 
L 398.487273 56.292763 
L 398.487273 56.292763 
" clip-path="url(#p0581a8097d)" style="fill: none; stroke: #ff7f0e; stroke-width: 1.5; stroke-linecap: square"/>
   </g>
   <g id="line2d_21">
    <path d="M 73.832727 285.502718 
L 74.555789 266.443003 
L 75.27885 232.808403 
L 76.001911 238.199865 
L 76.724973 228.513334 
L 77.448034 208.021496 
L 78.171095 201.332528 
L 78.894157 188.167383 
L 79.617218 199.878673 
L 80.340279 184.554478 
L 81.063341 182.22805 
L 81.786402 180.606167 
L 82.509463 176.020132 
L 83.232525 166.031606 
L 83.955586 168.660029 
L 84.678647 164.834657 
L 85.401709 168.693764 
L 86.12477 166.333601 
L 86.847832 159.208346 
L 88.293954 154.063086 
L 89.017016 148.503921 
L 89.740077 149.499433 
L 90.463138 146.378931 
L 91.1862 147.698819 
L 91.909261 147.911286 
L 92.632322 144.466083 
L 93.355384 145.41683 
L 94.078445 144.096942 
L 94.801506 144.220205 
L 95.524568 177.70916 
L 96.247629 174.353485 
L 96.97069 159.063026 
L 97.693752 171.366951 
L 98.416813 156.881918 
L 99.139874 167.250937 
L 99.862936 173.100743 
L 100.585997 153.056546 
L 101.309059 155.025187 
L 102.03212 159.499312 
L 102.755181 160.315768 
L 103.478243 153.973558 
L 104.201304 152.732169 
L 104.924365 151.020759 
L 105.647427 143.839712 
L 106.370488 152.049681 
L 107.093549 144.544582 
L 107.816611 151.557602 
L 108.539672 144.365526 
L 109.262733 148.011842 
L 109.985795 145.215392 
L 110.708856 143.604863 
L 111.431917 138.202372 
L 112.154979 142.877935 
L 112.87804 144.991897 
L 113.601101 146.233286 
L 114.324163 137.396945 
L 115.047224 138.67207 
L 115.770285 140.517772 
L 116.493347 137.016776 
L 117.216408 136.501991 
L 117.93947 132.419388 
L 118.662531 134.253737 
L 119.385592 134.611849 
L 120.108654 142.217829 
L 120.831715 132.173511 
L 121.554776 131.334349 
L 122.277838 133.683483 
L 123.000899 130.629803 
L 123.72396 128.806482 
L 124.447022 131.759606 
L 125.170083 131.278556 
L 125.893144 126.692521 
L 126.616206 133.448635 
L 127.339267 128.7841 
L 128.062328 127.822324 
L 128.78539 127.810971 
L 129.508451 126.21147 
L 130.231512 127.02825 
L 130.954574 124.544824 
L 131.677635 125.920829 
L 132.400696 124.544824 
L 133.123758 123.717339 
L 133.846819 126.121942 
L 134.569881 125.540335 
L 135.292942 124.791026 
L 136.016003 125.808919 
L 136.739065 125.148813 
L 137.462126 124.276564 
L 138.185187 123.873689 
L 138.908249 159.130172 
L 139.63131 148.862033 
L 140.354371 145.797324 
L 141.077433 152.049681 
L 141.800494 145.52874 
L 142.523555 146.334167 
L 143.246617 149.029736 
L 143.969678 154.354052 
L 144.692739 145.41683 
L 145.415801 150.629236 
L 146.861923 142.631734 
L 147.584985 136.289524 
L 148.308046 143.425807 
L 149.031108 141.211289 
L 149.754169 149.432287 
L 150.47723 134.343265 
L 151.200292 139.578053 
L 151.923353 140.126249 
L 152.646414 142.922699 
L 153.369476 136.009912 
L 154.092537 135.942766 
L 155.53866 141.803925 
L 156.261721 136.602872 
L 156.984782 139.477496 
L 157.707844 138.526749 
L 158.430905 134.712405 
L 159.153966 137.889025 
L 159.877028 132.833292 
L 160.600089 131.345702 
L 161.32315 139.678934 
L 162.046212 135.954119 
L 162.769273 134.578114 
L 163.492334 135.920384 
L 164.215396 136.311906 
L 164.938457 130.405983 
L 165.661519 131.949691 
L 166.38458 139.712345 
L 167.107641 134.634231 
L 167.830703 134.64526 
L 168.553764 136.401434 
L 169.276825 132.631855 
L 169.999887 127.743825 
L 170.722948 134.309854 
L 171.446009 136.658665 
L 172.169071 133.828804 
L 172.892132 127.822324 
L 173.615193 125.260723 
L 174.338255 129.220387 
L 175.061316 129.634291 
L 175.784377 130.98759 
L 176.507439 131.602932 
L 177.2305 127.844706 
L 177.953561 129.209358 
L 178.676623 129.611909 
L 179.399684 128.314403 
L 180.122745 128.090583 
L 180.845807 120.204991 
L 181.568868 127.755178 
L 182.29193 126.804431 
L 183.014991 127.274128 
L 183.738052 126.043768 
L 184.461114 126.200442 
L 185.184175 126.961104 
L 185.907236 127.285481 
L 186.630298 124.019334 
L 187.353359 124.2318 
L 188.07642 121.726316 
L 188.799482 120.42881 
L 189.522543 126.289969 
L 190.245604 125.160166 
L 190.968666 120.674688 
L 191.691727 119.209479 
L 192.414788 119.119951 
L 193.13785 120.506985 
L 193.860911 114.981556 
L 194.583972 119.187097 
L 195.307034 120.126816 
L 196.030095 120.182609 
L 196.753157 119.119951 
L 197.476218 116.413029 
L 198.199279 115.428871 
L 198.922341 114.780118 
L 200.368463 120.238401 
L 201.091525 115.194022 
L 201.814586 118.314524 
L 202.537647 115.999449 
L 203.260709 115.395136 
L 203.98377 118.806928 
L 204.706831 114.108983 
L 205.429893 113.795635 
L 206.152954 112.934415 
L 206.876015 116.435411 
L 207.599077 113.370702 
L 208.322138 117.196074 
L 209.045199 111.502618 
L 209.768261 114.489152 
L 210.491322 113.337291 
L 211.214383 112.777742 
L 211.937445 112.59901 
L 212.660506 112.207488 
L 213.383568 111.357297 
L 214.106629 113.135853 
L 214.82969 110.485048 
L 215.552752 110.384167 
L 216.275813 111.871758 
L 216.998874 110.529488 
L 217.721936 111.614527 
L 218.444997 111.357297 
L 219.168058 111.446825 
L 220.614181 110.518459 
L 221.337242 111.133801 
L 222.060304 110.8876 
L 222.783365 111.402061 
L 223.506426 111.25674 
L 224.229488 110.540841 
L 224.952549 111.413414 
L 225.67561 131.58055 
L 227.121733 142.877935 
L 227.844794 141.960599 
L 228.567856 140.305305 
L 229.290917 138.280547 
L 230.013979 143.884476 
L 230.73704 134.086034 
L 231.460101 140.327687 
L 232.183163 134.086034 
L 232.906224 132.598444 
L 233.629285 136.077057 
L 234.352347 137.083922 
L 235.075408 135.909355 
L 235.798469 129.846758 
L 236.521531 124.98111 
L 237.244592 138.806361 
L 237.967653 125.775184 
L 238.690715 140.428244 
L 239.413776 138.504367 
L 240.136837 133.012348 
L 240.859899 125.775184 
L 241.58296 134.567085 
L 242.306021 134.108416 
L 243.029083 131.166646 
L 243.752144 132.475505 
L 244.475206 134.388029 
L 245.198267 129.64532 
L 245.921328 129.902875 
L 246.64439 132.55368 
L 247.367451 133.370135 
L 248.090512 134.90249 
L 248.813574 132.296449 
L 249.536635 137.631794 
L 250.259696 133.616337 
L 250.982758 135.931737 
L 251.705819 131.401494 
L 252.42888 127.620886 
L 253.151942 131.815399 
L 253.875003 127.743825 
L 254.598064 130.640832 
L 255.321126 137.866643 
L 256.044187 133.157669 
L 256.767248 133.414899 
L 257.49031 129.075066 
L 258.213371 129.858111 
L 258.936432 120.014906 
L 259.659494 118.270085 
L 260.382555 129.175623 
L 261.105617 124.399503 
L 261.828678 132.620826 
L 262.551739 133.057112 
L 263.274801 129.11983 
L 263.997862 131.636343 
L 264.720923 122.811356 
L 265.443985 128.101937 
L 266.167046 130.417336 
L 267.613169 126.804431 
L 268.33623 127.106425 
L 269.059291 127.967645 
L 269.782353 120.887154 
L 270.505414 127.430802 
L 271.228475 121.334794 
L 271.951537 125.68598 
L 273.397659 121.949812 
L 274.120721 125.629863 
L 274.843782 127.128807 
L 275.566843 130.316455 
L 276.289905 123.63884 
L 277.012966 130.405983 
L 277.736028 125.674627 
L 278.459089 130.931797 
L 279.18215 126.535847 
L 279.905212 128.403931 
L 280.628273 125.786537 
L 281.351334 121.155738 
L 282.074396 120.686041 
L 282.797457 128.236228 
L 283.520518 128.325756 
L 284.24358 122.979058 
L 284.966641 121.40194 
L 285.689702 121.502497 
L 286.412764 125.607481 
L 287.135825 122.822385 
L 287.858886 123.38161 
L 289.305009 118.885102 
L 290.02807 123.694957 
L 290.751132 118.616519 
L 291.474193 124.332357 
L 292.197255 119.433299 
L 292.920316 124.287593 
L 293.643377 117.542833 
L 294.366439 122.699446 
L 295.0895 117.587596 
L 295.812561 115.316961 
L 296.535623 116.927815 
L 297.258684 119.489092 
L 297.981745 122.587536 
L 298.704807 122.945323 
L 299.427868 122.531419 
L 300.150929 123.180172 
L 300.873991 119.287654 
L 301.597052 120.562778 
L 302.320113 117.173692 
L 303.043175 126.155678 
L 303.766236 123.213907 
L 304.489297 116.480175 
L 305.212359 113.874134 
L 305.93542 120.137845 
L 306.658481 112.252252 
L 307.381543 120.999064 
L 308.827666 114.478123 
L 309.550727 118.907484 
L 310.273788 114.444388 
L 310.99685 115.003938 
L 311.719911 117.878562 
L 312.442972 119.970142 
L 313.166034 117.789034 
L 313.889095 119.131304 
L 314.612156 119.46671 
L 315.335218 121.905048 
L 316.058279 112.733302 
L 316.78134 120.686041 
L 317.504402 115.216404 
L 318.227463 120.216344 
L 318.950524 116.010478 
L 319.673586 113.874134 
L 320.396647 113.68405 
L 321.119708 121.558289 
L 321.84277 112.11796 
L 322.565831 115.898568 
L 323.288892 111.625881 
L 324.011954 118.079676 
L 324.735015 118.146822 
L 325.458077 114.131365 
L 326.181138 108.527436 
L 326.904199 114.634797 
L 327.627261 115.484664 
L 328.350322 113.874134 
L 329.073383 111.547381 
L 329.796445 111.36865 
L 330.519506 114.187158 
L 331.242567 115.02632 
L 331.965629 113.113471 
L 332.68869 114.645826 
L 333.411751 116.715024 
L 334.134813 113.415466 
L 334.857874 116.122388 
L 335.580935 113.180617 
L 336.303997 108.717521 
L 337.027058 111.715409 
L 337.750119 109.120396 
L 338.473181 108.974751 
L 339.196242 108.415526 
L 339.919304 109.299128 
L 340.642365 109.981616 
L 341.365426 107.520896 
L 342.088488 113.538405 
L 342.811549 104.936913 
L 343.53461 116.62582 
L 344.257672 111.323886 
L 344.980733 109.008487 
L 345.703794 110.126937 
L 346.426856 107.956858 
L 347.149917 105.306053 
L 347.872978 106.9727 
L 348.59604 104.903502 
L 349.319101 105.831867 
L 350.042162 108.035357 
L 350.765224 108.605611 
L 351.488285 110.99951 
L 352.211346 110.787043 
L 352.934408 107.901065 
L 353.657469 114.746383 
L 354.38053 111.782554 
L 355.103592 107.722009 
L 355.826653 110.384167 
L 356.549715 107.431368 
L 357.272776 106.312593 
L 357.995837 110.742279 
L 358.718899 106.245772 
L 359.44196 111.36865 
L 360.165021 108.661728 
L 360.888083 111.569763 
L 361.611144 109.098014 
L 362.334205 109.176189 
L 363.057267 111.424443 
L 363.780328 106.189655 
L 364.503389 105.059851 
L 365.226451 109.556358 
L 365.949512 106.726598 
L 366.672573 103.158457 
L 367.395635 108.258998 
L 368.118696 114.254371 
L 368.841757 108.963678 
L 369.564819 108.437964 
L 370.28788 105.261312 
L 371.010941 103.728912 
L 371.734003 105.328424 
L 372.457064 105.485019 
L 373.180126 106.726598 
L 373.903187 103.628244 
L 374.626248 102.722226 
L 375.34931 109.85851 
L 376.072371 108.561004 
L 376.795432 106.413407 
L 377.518494 109.791397 
L 378.241555 106.122587 
L 378.964616 110.932308 
L 379.687678 105.518576 
L 380.410739 107.778026 
L 381.1338 104.500705 
L 381.856862 109.29924 
L 382.579923 108.337296 
L 383.302984 110.037476 
L 384.026046 112.509449 
L 384.749107 109.545319 
L 385.472168 107.599059 
L 386.19523 113.784584 
L 386.918291 106.525261 
L 387.641353 106.178514 
L 388.364414 107.174014 
L 389.087475 109.209757 
L 389.810537 109.836139 
L 390.533598 103.39335 
L 391.256659 106.290368 
L 391.979721 107.688543 
L 392.702782 103.840766 
L 393.425843 110.473706 
L 394.148905 111.760027 
L 395.595027 108.393223 
L 396.318089 105.082345 
L 397.04115 108.225442 
L 397.764211 107.218756 
L 398.487273 103.471648 
L 398.487273 103.471648 
" clip-path="url(#p0581a8097d)" style="fill: none; stroke: #2ca02c; stroke-width: 1.5; stroke-linecap: square"/>
   </g>
   <g id="line2d_22">
    <path d="M 73.832727 295.488 
L 74.555789 291.952296 
L 75.27885 285.237702 
L 76.001911 273.884525 
L 76.724973 270.478571 
L 78.171095 252.4108 
L 78.894157 248.550719 
L 79.617218 232.980647 
L 80.340279 236.970478 
L 81.063341 214.556061 
L 81.786402 220.524589 
L 82.509463 216.599633 
L 83.232525 214.945313 
L 83.955586 206.316898 
L 84.678647 207.290027 
L 85.401709 196.780228 
L 86.12477 198.175047 
L 86.847832 192.628209 
L 87.570893 188.638378 
L 88.293954 182.994227 
L 89.017016 180.950655 
L 89.740077 185.751427 
L 90.463138 183.318603 
L 91.1862 179.101709 
L 91.909261 176.993261 
L 92.632322 176.214758 
L 93.355384 178.452956 
L 94.801506 175.306504 
L 95.524568 215.464315 
L 96.247629 210.047228 
L 96.97069 207.452216 
L 97.693752 203.138008 
L 98.416813 202.294629 
L 99.139874 200.251057 
L 99.862936 204.565265 
L 100.585997 181.826471 
L 101.309059 192.368708 
L 102.03212 191.849706 
L 102.755181 183.77273 
L 103.478243 196.163913 
L 104.201304 187.859874 
L 104.924365 187.308434 
L 105.647427 179.199022 
L 106.370488 175.371379 
L 107.093549 176.376946 
L 107.816611 181.891347 
L 108.539672 174.819939 
L 109.262733 179.945088 
L 109.985795 186.367743 
L 110.708856 179.426085 
L 111.431917 169.856978 
L 112.154979 182.5401 
L 112.87804 176.247195 
L 113.601101 174.236061 
L 115.047224 168.689223 
L 115.770285 169.986729 
L 116.493347 165.83471 
L 117.216408 167.813406 
L 117.93947 171.641049 
L 118.662531 174.365812 
L 119.385592 164.439891 
L 120.108654 168.916286 
L 120.831715 165.510333 
L 121.554776 161.066375 
L 122.277838 160.060808 
L 123.000899 167.845844 
L 124.447022 157.660422 
L 125.170083 156.817043 
L 125.893144 158.665989 
L 126.616206 162.039504 
L 127.339267 156.817043 
L 128.062328 160.969062 
L 128.78539 160.936624 
L 129.508451 158.114549 
L 130.231512 156.752167 
L 130.954574 154.027405 
L 131.677635 158.893052 
L 133.123758 157.757735 
L 134.569881 154.708595 
L 135.292942 158.244299 
L 136.016003 159.217429 
L 136.739065 155.714163 
L 137.462126 155.973664 
L 138.185187 158.114549 
L 138.908249 184.908048 
L 139.63131 180.33434 
L 140.354371 181.761596 
L 141.077433 180.918217 
L 141.800494 178.907083 
L 142.523555 185.329738 
L 143.246617 183.448354 
L 143.969678 177.447389 
L 144.692739 175.144315 
L 145.415801 182.896914 
L 146.138862 175.987694 
L 146.861923 177.642014 
L 147.584985 180.172151 
L 148.308046 177.901516 
L 149.031108 183.351041 
L 149.754169 193.471588 
L 150.47723 171.90055 
L 151.200292 184.389046 
L 151.923353 177.771765 
L 152.646414 173.068306 
L 153.369476 183.707855 
L 154.092537 183.026665 
L 155.53866 167.359279 
L 156.261721 181.761596 
L 156.984782 176.73376 
L 157.707844 177.512264 
L 158.430905 176.149883 
L 159.153966 179.199022 
L 159.877028 176.798636 
L 160.600089 176.18232 
L 161.32315 182.313036 
L 162.046212 167.748531 
L 162.769273 177.123012 
L 163.492334 169.467726 
L 164.215396 172.354677 
L 164.938457 167.424154 
L 165.661519 177.869078 
L 166.38458 173.652183 
L 167.107641 176.766198 
L 167.830703 176.020132 
L 168.553764 175.663318 
L 169.276825 177.382513 
L 169.999887 169.337976 
L 170.722948 167.780969 
L 172.169071 183.059102 
L 172.892132 170.830108 
L 173.615193 163.791138 
L 174.338255 170.019167 
L 175.061316 166.191524 
L 175.784377 166.645651 
L 176.507439 171.511298 
L 177.2305 161.261001 
L 177.953561 173.165619 
L 178.676623 169.305538 
L 179.399684 168.008032 
L 180.122745 169.305538 
L 180.845807 158.730864 
L 181.568868 173.295369 
L 182.29193 179.847775 
L 183.014991 160.774436 
L 183.738052 164.083076 
L 184.461114 168.981162 
L 185.184175 167.294404 
L 185.907236 162.169255 
L 186.630298 177.2852 
L 187.353359 165.575208 
L 188.07642 168.397284 
L 188.799482 166.353712 
L 189.522543 167.61878 
L 190.245604 170.278668 
L 190.968666 168.656785 
L 191.691727 166.710526 
L 192.414788 173.717059 
L 193.13785 165.83471 
L 193.860911 160.806874 
L 194.583972 157.692859 
L 195.307034 167.456592 
L 196.030095 167.229529 
L 196.753157 168.786536 
L 197.476218 155.714163 
L 198.199279 156.492666 
L 198.922341 158.763302 
L 199.645402 161.974629 
L 200.368463 162.818008 
L 201.091525 159.217429 
L 201.814586 163.304573 
L 202.537647 159.184991 
L 203.260709 167.164653 
L 203.98377 165.088644 
L 204.706831 160.255434 
L 205.429893 162.363881 
L 206.152954 163.985763 
L 206.876015 163.920888 
L 207.599077 161.196126 
L 208.322138 165.121081 
L 209.045199 159.736431 
L 209.768261 160.644685 
L 210.491322 157.498233 
L 211.214383 162.850446 
L 211.937445 158.730864 
L 212.660506 156.914356 
L 213.383568 152.9894 
L 214.106629 153.313776 
L 214.82969 159.736431 
L 215.552752 158.893052 
L 216.275813 158.665989 
L 216.998874 156.492666 
L 217.721936 161.0015 
L 218.444997 156.752167 
L 219.168058 154.741033 
L 219.89112 158.568676 
L 220.614181 160.709561 
L 221.337242 161.325876 
L 222.060304 155.422224 
L 222.783365 154.09228 
L 223.506426 159.249866 
L 224.229488 156.038539 
L 224.952549 157.206294 
L 225.67561 183.026665 
L 226.398672 177.2852 
L 227.121733 190.584637 
L 227.844794 191.947019 
L 229.290917 175.07944 
L 230.73704 180.269464 
L 231.460101 186.432618 
L 232.183163 182.11841 
L 232.906224 175.436254 
L 233.629285 172.581741 
L 234.352347 181.56697 
L 235.075408 186.010928 
L 235.798469 167.294404 
L 236.521531 168.008032 
L 237.244592 188.800566 
L 237.967653 176.766198 
L 238.690715 178.907083 
L 239.413776 186.465056 
L 240.859899 175.987694 
L 241.58296 183.740293 
L 243.029083 173.684621 
L 243.752144 178.680019 
L 244.475206 179.523398 
L 245.198267 176.571572 
L 245.921328 182.961789 
L 246.64439 174.430687 
L 247.367451 185.654114 
L 248.090512 183.707855 
L 248.813574 177.642014 
L 249.536635 172.776367 
L 250.259696 177.512264 
L 250.982758 179.231459 
L 251.705819 167.48903 
L 252.42888 185.84874 
L 253.151942 173.100743 
L 253.875003 173.587308 
L 254.598064 179.718024 
L 255.321126 179.101709 
L 256.044187 170.765233 
L 256.767248 166.710526 
L 257.49031 168.818973 
L 258.213371 173.749496 
L 258.936432 168.656785 
L 259.659494 170.927421 
L 260.382555 179.263897 
L 261.105617 166.288837 
L 261.828678 168.17022 
L 262.551739 194.866407 
L 263.274801 177.544702 
L 263.997862 171.835675 
L 264.720923 185.199987 
L 265.443985 177.350076 
L 266.167046 166.872714 
L 266.890107 167.424154 
L 267.613169 174.625313 
L 268.33623 163.304573 
L 269.059291 172.679054 
L 269.782353 179.945088 
L 270.505414 177.901516 
L 271.228475 174.333374 
L 271.951537 180.496528 
L 272.674598 170.603044 
L 273.397659 168.624348 
L 274.120721 164.018201 
L 274.843782 171.705924 
L 275.566843 183.351041 
L 276.289905 168.364846 
L 277.012966 180.269464 
L 277.736028 172.711492 
L 278.459089 172.419553 
L 279.18215 164.472328 
L 279.905212 182.11841 
L 280.628273 182.053535 
L 281.351334 178.096142 
L 282.074396 162.590944 
L 282.797457 172.224927 
L 283.520518 184.097107 
L 284.24358 170.24623 
L 284.966641 184.583672 
L 285.689702 164.212827 
L 286.412764 180.204589 
L 287.135825 161.390751 
L 287.858886 180.431652 
L 288.581948 172.581741 
L 289.305009 182.864476 
L 290.751132 155.7466 
L 291.474193 168.332409 
L 292.197255 159.898619 
L 292.920316 170.505731 
L 294.366439 168.397284 
L 295.0895 166.353712 
L 295.812561 174.333374 
L 296.535623 168.235096 
L 297.258684 160.385184 
L 297.981745 179.685586 
L 298.704807 174.625313 
L 299.427868 173.262932 
L 300.150929 162.266568 
L 300.873991 174.625313 
L 301.597052 173.230494 
L 302.320113 172.808805 
L 303.043175 167.164653 
L 303.766236 170.894983 
L 304.489297 160.806874 
L 305.212359 181.145281 
L 305.93542 163.077509 
L 306.658481 179.231459 
L 307.381543 170.538169 
L 308.104604 163.7587 
L 308.827666 169.921854 
L 309.550727 161.780003 
L 310.273788 156.070977 
L 310.99685 157.076544 
L 311.719911 166.061773 
L 312.442972 170.084042 
L 313.166034 150.394388 
L 314.612156 178.128579 
L 316.058279 167.391717 
L 316.78134 175.793068 
L 317.504402 161.780003 
L 318.227463 165.250832 
L 318.950524 167.294404 
L 319.673586 176.279633 
L 320.396647 168.364846 
L 321.119708 170.959858 
L 321.84277 156.460228 
L 322.565831 163.564074 
L 323.288892 163.628949 
L 324.011954 162.10438 
L 324.735015 175.598442 
L 325.458077 174.300936 
L 326.181138 159.801307 
L 326.904199 163.661387 
L 327.627261 164.764267 
L 328.350322 161.617815 
L 329.073383 163.499199 
L 329.796445 165.704959 
L 330.519506 176.73376 
L 331.242567 173.846809 
L 331.965629 168.916286 
L 332.68869 158.698426 
L 333.411751 170.79767 
L 334.134813 174.560438 
L 334.857874 174.365812 
L 336.303997 160.255434 
L 337.027058 176.73376 
L 337.750119 179.718024 
L 338.473181 168.429722 
L 339.196242 165.445458 
L 339.919304 160.417622 
L 340.642365 172.289802 
L 341.365426 161.390751 
L 342.088488 157.303607 
L 342.811549 160.709561 
L 343.53461 162.396319 
L 344.257672 161.293438 
L 344.980733 153.897654 
L 345.703794 158.438925 
L 346.426856 172.516866 
L 347.149917 159.152553 
L 347.872978 169.305538 
L 348.59604 162.720695 
L 349.319101 160.774436 
L 350.042162 171.34911 
L 350.765224 165.348145 
L 351.488285 164.277702 
L 352.211346 165.769834 
L 352.934408 173.100743 
L 353.657469 174.365812 
L 354.38053 163.823575 
L 355.826653 166.613213 
L 356.549715 158.730864 
L 357.272776 174.884814 
L 357.995837 161.423189 
L 358.718899 153.151588 
L 359.44196 162.266568 
L 360.165021 160.612248 
L 360.888083 162.947759 
L 361.611144 158.406488 
L 362.334205 169.662352 
L 363.057267 160.060808 
L 363.780328 160.060808 
L 364.503389 160.222996 
L 365.226451 157.40092 
L 365.949512 165.348145 
L 366.672573 162.623382 
L 367.395635 164.407453 
L 368.118696 163.401886 
L 368.841757 169.467726 
L 369.564819 167.878282 
L 370.28788 164.180389 
L 371.010941 164.86158 
L 371.734003 154.968097 
L 372.457064 162.169255 
L 373.180126 161.488064 
L 373.903187 158.568676 
L 374.626248 154.546407 
L 375.34931 165.932023 
L 376.072371 157.660422 
L 376.795432 157.498233 
L 377.518494 159.509368 
L 378.241555 150.264637 
L 378.964616 166.029335 
L 379.687678 163.077509 
L 380.410739 167.553905 
L 381.1338 156.330478 
L 381.856862 158.211862 
L 382.579923 172.776367 
L 383.302984 169.759665 
L 384.749107 167.424154 
L 385.472168 166.872714 
L 386.19523 167.845844 
L 386.918291 154.64372 
L 387.641353 169.69479 
L 388.364414 170.181355 
L 389.087475 167.910719 
L 389.810537 174.365812 
L 390.533598 166.710526 
L 391.256659 174.982127 
L 391.979721 172.224927 
L 392.702782 155.973664 
L 393.425843 164.018201 
L 394.148905 163.888451 
L 394.871966 166.742964 
L 395.595027 166.710526 
L 396.318089 169.759665 
L 397.04115 170.570607 
L 397.764211 160.936624 
L 398.487273 168.754098 
L 398.487273 168.754098 
" clip-path="url(#p0581a8097d)" style="fill: none; stroke: #d62728; stroke-width: 1.5; stroke-linecap: square"/>
   </g>
   <g id="line2d_23">
    <path d="M 351.488285 54.865506 
L 352.211346 55.77376 
L 353.657469 54.216753 
L 354.38053 54.638442 
L 355.103592 54.833068 
L 355.826653 55.806198 
L 356.549715 55.09257 
L 357.995837 55.125007 
L 358.718899 55.384508 
L 359.44196 55.935949 
L 360.165021 55.546697 
L 360.888083 55.64401 
L 361.611144 56.065699 
L 362.334205 55.287195 
L 363.057267 56.227887 
L 363.780328 53.957252 
L 364.503389 54.833068 
L 365.226451 56.130574 
L 365.949512 56.227887 
L 366.672573 54.314066 
L 367.395635 55.287195 
L 368.841757 55.546697 
L 369.564819 56.033261 
L 370.28788 55.125007 
L 371.010941 54.995257 
L 371.734003 55.64401 
L 372.457064 54.573567 
M 373.903187 56.714452 
L 374.626248 54.216753 
L 375.34931 54.800631 
L 376.072371 56.682014 
L 376.795432 55.481821 
L 377.518494 56.065699 
L 378.241555 55.287195 
L 378.964616 56.779327 
L 379.687678 55.189883 
L 380.410739 54.735755 
L 381.1338 57.265892 
L 381.856862 56.649577 
L 382.579923 57.168579 
L 384.026046 56.617139 
L 385.472168 56.811765 
L 386.19523 59.406777 
L 386.918291 56.390076 
L 387.641353 57.006391 
L 388.364414 56.19545 
L 389.087475 57.784895 
L 389.810537 58.628274 
L 390.533598 56.130574 
L 391.256659 58.206584 
L 391.979721 58.725586 
L 392.702782 58.076833 
L 393.425843 59.017525 
L 394.148905 59.212151 
L 394.871966 58.40121 
L 395.595027 58.563398 
L 396.318089 59.082401 
L 397.04115 61.547662 
L 397.764211 58.725586 
L 398.487273 59.666278 
L 398.487273 59.666278 
" clip-path="url(#p0581a8097d)" style="fill: none; stroke: #9467bd; stroke-width: 1.5; stroke-linecap: square"/>
   </g>
   <g id="line2d_24">
    <path d="M 351.488285 108.505054 
L 352.211346 109.310481 
L 352.934408 106.670705 
L 353.657469 105.059851 
L 354.38053 105.071205 
L 355.103592 105.66384 
L 356.549715 107.308105 
L 357.272776 103.113592 
L 357.995837 106.167273 
L 359.44196 105.854249 
L 360.165021 105.317082 
L 360.888083 105.719958 
L 361.611144 109.601122 
L 362.334205 106.816026 
L 363.057267 104.579125 
L 363.780328 105.708604 
L 364.503389 106.044334 
L 365.226451 107.923447 
L 365.949512 109.198571 
L 366.672573 107.442464 
L 367.395635 107.073346 
L 368.118696 109.086717 
L 368.841757 107.755655 
L 369.564819 109.097903 
L 370.28788 107.229941 
L 371.010941 108.258998 
L 371.734003 107.733284 
L 372.457064 105.406722 
L 373.180126 105.205385 
L 373.903187 107.565503 
L 374.626248 104.668485 
L 375.34931 105.686357 
L 376.072371 111.458021 
L 376.795432 106.603559 
L 377.518494 106.055475 
L 378.241555 106.312739 
L 378.964616 107.722099 
L 379.687678 110.496077 
L 380.410739 108.258998 
L 381.1338 111.99492 
L 381.856862 108.158329 
L 382.579923 107.576689 
L 383.302984 108.88538 
L 384.026046 107.241127 
L 384.749107 109.220942 
L 385.472168 107.386537 
L 386.19523 110.104588 
L 386.918291 109.623616 
L 387.641353 112.543005 
L 388.364414 111.379724 
L 389.087475 113.795769 
L 389.810537 114.444522 
L 390.533598 109.567689 
L 391.256659 114.556376 
L 391.979721 108.404408 
L 393.425843 108.493891 
L 394.148905 112.073218 
L 394.871966 106.413407 
L 395.595027 105.585688 
L 396.318089 108.359666 
L 397.04115 109.075532 
L 397.764211 105.697542 
L 398.487273 109.1762 
L 398.487273 109.1762 
" clip-path="url(#p0581a8097d)" style="fill: none; stroke: #8c564b; stroke-width: 1.5; stroke-linecap: square"/>
   </g>
   <g id="line2d_25">
    <path d="M 351.488285 163.7587 
L 352.211346 167.586343 
L 352.934408 170.051604 
L 353.657469 159.703994 
L 354.38053 162.623382 
L 355.103592 164.018201 
L 355.826653 166.483463 
L 356.549715 159.963495 
L 357.272776 163.174822 
L 357.995837 159.444492 
L 358.718899 153.865216 
L 359.44196 178.161017 
L 360.165021 163.888451 
L 360.888083 167.748531 
L 361.611144 161.942191 
L 362.334205 159.639118 
L 363.057267 166.742964 
L 363.780328 163.174822 
L 364.503389 162.461194 
L 365.226451 153.897654 
L 365.949512 163.888451 
L 366.672573 152.275772 
L 367.395635 155.357348 
L 368.118696 155.941226 
L 368.841757 155.130285 
L 369.564819 154.903221 
L 370.28788 156.589979 
L 371.010941 156.233165 
L 371.734003 161.293438 
L 372.457064 145.366552 
L 373.180126 156.979231 
L 373.903187 155.292473 
L 374.626248 156.654854 
L 375.34931 153.573278 
L 376.072371 158.990365 
L 376.795432 148.091315 
L 377.518494 157.887485 
L 378.241555 149.356383 
L 378.964616 158.990365 
L 379.687678 152.665023 
L 380.410739 159.671556 
L 381.1338 154.611282 
L 381.856862 161.261001 
L 383.302984 160.352747 
L 384.026046 156.103414 
L 384.749107 171.965426 
L 385.472168 166.061773 
L 386.19523 167.456592 
L 386.918291 161.066375 
L 387.641353 160.904187 
L 388.364414 178.128579 
L 389.087475 180.301902 
L 389.810537 176.73376 
L 390.533598 166.905152 
L 391.256659 164.018201 
L 391.979721 177.966391 
L 392.702782 173.652183 
L 394.148905 183.351041 
L 394.871966 168.624348 
L 396.318089 175.047002 
L 397.04115 172.095176 
L 397.764211 168.105345 
L 398.487273 176.312071 
L 398.487273 176.312071 
" clip-path="url(#p0581a8097d)" style="fill: none; stroke: #e377c2; stroke-width: 1.5; stroke-linecap: square"/>
   </g>
   <g id="patch_3">
    <path d="M 57.6 307.584 
L 57.6 41.472 
" style="fill: none; stroke: #000000; stroke-width: 0.8; stroke-linejoin: miter; stroke-linecap: square"/>
   </g>
   <g id="patch_4">
    <path d="M 414.72 307.584 
L 414.72 41.472 
" style="fill: none; stroke: #000000; stroke-width: 0.8; stroke-linejoin: miter; stroke-linecap: square"/>
   </g>
   <g id="patch_5">
    <path d="M 57.6 307.584 
L 414.72 307.584 
" style="fill: none; stroke: #000000; stroke-width: 0.8; stroke-linejoin: miter; stroke-linecap: square"/>
   </g>
   <g id="patch_6">
    <path d="M 57.6 41.472 
L 414.72 41.472 
" style="fill: none; stroke: #000000; stroke-width: 0.8; stroke-linejoin: miter; stroke-linecap: square"/>
   </g>
   <g id="text_21">
    <!-- Learning Curves -->
    <g transform="translate(187.37625 35.472) scale(0.12 -0.12)">
     <defs>
      <path id="DejaVuSans-4c" d="M 628 4666 
L 1259 4666 
L 1259 531 
L 3531 531 
L 3531 0 
L 628 0 
L 628 4666 
z
" transform="scale(0.015625)"/>
      <path id="DejaVuSans-65" d="M 3597 1894 
L 3597 1613 
L 953 1613 
Q 991 1019 1311 708 
Q 1631 397 2203 397 
Q 2534 397 2845 478 
Q 3156 559 3463 722 
L 3463 178 
Q 3153 47 2828 -22 
Q 2503 -91 2169 -91 
Q 1331 -91 842 396 
Q 353 884 353 1716 
Q 353 2575 817 3079 
Q 1281 3584 2069 3584 
Q 2775 3584 3186 3129 
Q 3597 2675 3597 1894 
z
M 3022 2063 
Q 3016 2534 2758 2815 
Q 2500 3097 2075 3097 
Q 1594 3097 1305 2825 
Q 1016 2553 972 2059 
L 3022 2063 
z
" transform="scale(0.015625)"/>
      <path id="DejaVuSans-6e" d="M 3513 2113 
L 3513 0 
L 2938 0 
L 2938 2094 
Q 2938 2591 2744 2837 
Q 2550 3084 2163 3084 
Q 1697 3084 1428 2787 
Q 1159 2491 1159 1978 
L 1159 0 
L 581 0 
L 581 3500 
L 1159 3500 
L 1159 2956 
Q 1366 3272 1645 3428 
Q 1925 3584 2291 3584 
Q 2894 3584 3203 3211 
Q 3513 2838 3513 2113 
z
" transform="scale(0.015625)"/>
      <path id="DejaVuSans-69" d="M 603 3500 
L 1178 3500 
L 1178 0 
L 603 0 
L 603 3500 
z
M 603 4863 
L 1178 4863 
L 1178 4134 
L 603 4134 
L 603 4863 
z
" transform="scale(0.015625)"/>
      <path id="DejaVuSans-67" d="M 2906 1791 
Q 2906 2416 2648 2759 
Q 2391 3103 1925 3103 
Q 1463 3103 1205 2759 
Q 947 2416 947 1791 
Q 947 1169 1205 825 
Q 1463 481 1925 481 
Q 2391 481 2648 825 
Q 2906 1169 2906 1791 
z
M 3481 434 
Q 3481 -459 3084 -895 
Q 2688 -1331 1869 -1331 
Q 1566 -1331 1297 -1286 
Q 1028 -1241 775 -1147 
L 775 -588 
Q 1028 -725 1275 -790 
Q 1522 -856 1778 -856 
Q 2344 -856 2625 -561 
Q 2906 -266 2906 331 
L 2906 616 
Q 2728 306 2450 153 
Q 2172 0 1784 0 
Q 1141 0 747 490 
Q 353 981 353 1791 
Q 353 2603 747 3093 
Q 1141 3584 1784 3584 
Q 2172 3584 2450 3431 
Q 2728 3278 2906 2969 
L 2906 3500 
L 3481 3500 
L 3481 434 
z
" transform="scale(0.015625)"/>
      <path id="DejaVuSans-20" transform="scale(0.015625)"/>
      <path id="DejaVuSans-43" d="M 4122 4306 
L 4122 3641 
Q 3803 3938 3442 4084 
Q 3081 4231 2675 4231 
Q 1875 4231 1450 3742 
Q 1025 3253 1025 2328 
Q 1025 1406 1450 917 
Q 1875 428 2675 428 
Q 3081 428 3442 575 
Q 3803 722 4122 1019 
L 4122 359 
Q 3791 134 3420 21 
Q 3050 -91 2638 -91 
Q 1578 -91 968 557 
Q 359 1206 359 2328 
Q 359 3453 968 4101 
Q 1578 4750 2638 4750 
Q 3056 4750 3426 4639 
Q 3797 4528 4122 4306 
z
" transform="scale(0.015625)"/>
      <path id="DejaVuSans-76" d="M 191 3500 
L 800 3500 
L 1894 563 
L 2988 3500 
L 3597 3500 
L 2284 0 
L 1503 0 
L 191 3500 
z
" transform="scale(0.015625)"/>
     </defs>
     <use xlink:href="#DejaVuSans-4c"/>
     <use xlink:href="#DejaVuSans-65" x="53.962891"/>
     <use xlink:href="#DejaVuSans-61" x="115.486328"/>
     <use xlink:href="#DejaVuSans-72" x="176.765625"/>
     <use xlink:href="#DejaVuSans-6e" x="216.128906"/>
     <use xlink:href="#DejaVuSans-69" x="279.507812"/>
     <use xlink:href="#DejaVuSans-6e" x="307.291016"/>
     <use xlink:href="#DejaVuSans-67" x="370.669922"/>
     <use xlink:href="#DejaVuSans-20" x="434.146484"/>
     <use xlink:href="#DejaVuSans-43" x="465.933594"/>
     <use xlink:href="#DejaVuSans-75" x="535.757812"/>
     <use xlink:href="#DejaVuSans-72" x="599.136719"/>
     <use xlink:href="#DejaVuSans-76" x="640.25"/>
     <use xlink:href="#DejaVuSans-65" x="699.429688"/>
     <use xlink:href="#DejaVuSans-73" x="760.953125"/>
    </g>
   </g>
   <g id="legend_1">
    <g id="patch_7">
     <path d="M 192.291875 302.584 
L 407.72 302.584 
Q 409.72 302.584 409.72 300.584 
L 409.72 198.837125 
Q 409.72 196.837125 407.72 196.837125 
L 192.291875 196.837125 
Q 190.291875 196.837125 190.291875 198.837125 
L 190.291875 300.584 
Q 190.291875 302.584 192.291875 302.584 
z
" style="fill: #ffffff; opacity: 0.8; stroke: #cccccc; stroke-linejoin: miter"/>
    </g>
    <g id="line2d_26">
     <path d="M 194.291875 204.935563 
L 204.291875 204.935563 
L 214.291875 204.935563 
" style="fill: none; stroke: #1f77b4; stroke-width: 1.5; stroke-linecap: square"/>
    </g>
    <g id="text_22">
     <!-- Train Accuracy -->
     <g transform="translate(222.291875 208.435563) scale(0.1 -0.1)">
      <defs>
       <path id="DejaVuSans-54" d="M -19 4666 
L 3928 4666 
L 3928 4134 
L 2272 4134 
L 2272 0 
L 1638 0 
L 1638 4134 
L -19 4134 
L -19 4666 
z
" transform="scale(0.015625)"/>
      </defs>
      <use xlink:href="#DejaVuSans-54"/>
      <use xlink:href="#DejaVuSans-72" x="46.333984"/>
      <use xlink:href="#DejaVuSans-61" x="87.447266"/>
      <use xlink:href="#DejaVuSans-69" x="148.726562"/>
      <use xlink:href="#DejaVuSans-6e" x="176.509766"/>
      <use xlink:href="#DejaVuSans-20" x="239.888672"/>
      <use xlink:href="#DejaVuSans-41" x="271.675781"/>
      <use xlink:href="#DejaVuSans-63" x="338.333984"/>
      <use xlink:href="#DejaVuSans-63" x="393.314453"/>
      <use xlink:href="#DejaVuSans-75" x="448.294922"/>
      <use xlink:href="#DejaVuSans-72" x="511.673828"/>
      <use xlink:href="#DejaVuSans-61" x="552.787109"/>
      <use xlink:href="#DejaVuSans-63" x="614.066406"/>
      <use xlink:href="#DejaVuSans-79" x="669.046875"/>
     </g>
    </g>
    <g id="line2d_27">
     <path d="M 194.291875 219.613688 
L 204.291875 219.613688 
L 214.291875 219.613688 
" style="fill: none; stroke: #ff7f0e; stroke-width: 1.5; stroke-linecap: square"/>
    </g>
    <g id="text_23">
     <!-- Validation Accuracy -->
     <g transform="translate(222.291875 223.113688) scale(0.1 -0.1)">
      <defs>
       <path id="DejaVuSans-56" d="M 1831 0 
L 50 4666 
L 709 4666 
L 2188 738 
L 3669 4666 
L 4325 4666 
L 2547 0 
L 1831 0 
z
" transform="scale(0.015625)"/>
       <path id="DejaVuSans-6c" d="M 603 4863 
L 1178 4863 
L 1178 0 
L 603 0 
L 603 4863 
z
" transform="scale(0.015625)"/>
       <path id="DejaVuSans-64" d="M 2906 2969 
L 2906 4863 
L 3481 4863 
L 3481 0 
L 2906 0 
L 2906 525 
Q 2725 213 2448 61 
Q 2172 -91 1784 -91 
Q 1150 -91 751 415 
Q 353 922 353 1747 
Q 353 2572 751 3078 
Q 1150 3584 1784 3584 
Q 2172 3584 2448 3432 
Q 2725 3281 2906 2969 
z
M 947 1747 
Q 947 1113 1208 752 
Q 1469 391 1925 391 
Q 2381 391 2643 752 
Q 2906 1113 2906 1747 
Q 2906 2381 2643 2742 
Q 2381 3103 1925 3103 
Q 1469 3103 1208 2742 
Q 947 2381 947 1747 
z
" transform="scale(0.015625)"/>
       <path id="DejaVuSans-74" d="M 1172 4494 
L 1172 3500 
L 2356 3500 
L 2356 3053 
L 1172 3053 
L 1172 1153 
Q 1172 725 1289 603 
Q 1406 481 1766 481 
L 2356 481 
L 2356 0 
L 1766 0 
Q 1100 0 847 248 
Q 594 497 594 1153 
L 594 3053 
L 172 3053 
L 172 3500 
L 594 3500 
L 594 4494 
L 1172 4494 
z
" transform="scale(0.015625)"/>
      </defs>
      <use xlink:href="#DejaVuSans-56"/>
      <use xlink:href="#DejaVuSans-61" x="60.658203"/>
      <use xlink:href="#DejaVuSans-6c" x="121.9375"/>
      <use xlink:href="#DejaVuSans-69" x="149.720703"/>
      <use xlink:href="#DejaVuSans-64" x="177.503906"/>
      <use xlink:href="#DejaVuSans-61" x="240.980469"/>
      <use xlink:href="#DejaVuSans-74" x="302.259766"/>
      <use xlink:href="#DejaVuSans-69" x="341.46875"/>
      <use xlink:href="#DejaVuSans-6f" x="369.251953"/>
      <use xlink:href="#DejaVuSans-6e" x="430.433594"/>
      <use xlink:href="#DejaVuSans-20" x="493.8125"/>
      <use xlink:href="#DejaVuSans-41" x="525.599609"/>
      <use xlink:href="#DejaVuSans-63" x="592.257812"/>
      <use xlink:href="#DejaVuSans-63" x="647.238281"/>
      <use xlink:href="#DejaVuSans-75" x="702.21875"/>
      <use xlink:href="#DejaVuSans-72" x="765.597656"/>
      <use xlink:href="#DejaVuSans-61" x="806.710938"/>
      <use xlink:href="#DejaVuSans-63" x="867.990234"/>
      <use xlink:href="#DejaVuSans-79" x="922.970703"/>
     </g>
    </g>
    <g id="line2d_28">
     <path d="M 194.291875 234.291812 
L 204.291875 234.291812 
L 214.291875 234.291812 
" style="fill: none; stroke: #2ca02c; stroke-width: 1.5; stroke-linecap: square"/>
    </g>
    <g id="text_24">
     <!-- Robust Validation Accuracy -->
     <g transform="translate(222.291875 237.791812) scale(0.1 -0.1)">
      <defs>
       <path id="DejaVuSans-52" d="M 2841 2188 
Q 3044 2119 3236 1894 
Q 3428 1669 3622 1275 
L 4263 0 
L 3584 0 
L 2988 1197 
Q 2756 1666 2539 1819 
Q 2322 1972 1947 1972 
L 1259 1972 
L 1259 0 
L 628 0 
L 628 4666 
L 2053 4666 
Q 2853 4666 3247 4331 
Q 3641 3997 3641 3322 
Q 3641 2881 3436 2590 
Q 3231 2300 2841 2188 
z
M 1259 4147 
L 1259 2491 
L 2053 2491 
Q 2509 2491 2742 2702 
Q 2975 2913 2975 3322 
Q 2975 3731 2742 3939 
Q 2509 4147 2053 4147 
L 1259 4147 
z
" transform="scale(0.015625)"/>
       <path id="DejaVuSans-62" d="M 3116 1747 
Q 3116 2381 2855 2742 
Q 2594 3103 2138 3103 
Q 1681 3103 1420 2742 
Q 1159 2381 1159 1747 
Q 1159 1113 1420 752 
Q 1681 391 2138 391 
Q 2594 391 2855 752 
Q 3116 1113 3116 1747 
z
M 1159 2969 
Q 1341 3281 1617 3432 
Q 1894 3584 2278 3584 
Q 2916 3584 3314 3078 
Q 3713 2572 3713 1747 
Q 3713 922 3314 415 
Q 2916 -91 2278 -91 
Q 1894 -91 1617 61 
Q 1341 213 1159 525 
L 1159 0 
L 581 0 
L 581 4863 
L 1159 4863 
L 1159 2969 
z
" transform="scale(0.015625)"/>
      </defs>
      <use xlink:href="#DejaVuSans-52"/>
      <use xlink:href="#DejaVuSans-6f" x="64.982422"/>
      <use xlink:href="#DejaVuSans-62" x="126.164062"/>
      <use xlink:href="#DejaVuSans-75" x="189.640625"/>
      <use xlink:href="#DejaVuSans-73" x="253.019531"/>
      <use xlink:href="#DejaVuSans-74" x="305.119141"/>
      <use xlink:href="#DejaVuSans-20" x="344.328125"/>
      <use xlink:href="#DejaVuSans-56" x="376.115234"/>
      <use xlink:href="#DejaVuSans-61" x="436.773438"/>
      <use xlink:href="#DejaVuSans-6c" x="498.052734"/>
      <use xlink:href="#DejaVuSans-69" x="525.835938"/>
      <use xlink:href="#DejaVuSans-64" x="553.619141"/>
      <use xlink:href="#DejaVuSans-61" x="617.095703"/>
      <use xlink:href="#DejaVuSans-74" x="678.375"/>
      <use xlink:href="#DejaVuSans-69" x="717.583984"/>
      <use xlink:href="#DejaVuSans-6f" x="745.367188"/>
      <use xlink:href="#DejaVuSans-6e" x="806.548828"/>
      <use xlink:href="#DejaVuSans-20" x="869.927734"/>
      <use xlink:href="#DejaVuSans-41" x="901.714844"/>
      <use xlink:href="#DejaVuSans-63" x="968.373047"/>
      <use xlink:href="#DejaVuSans-63" x="1023.353516"/>
      <use xlink:href="#DejaVuSans-75" x="1078.333984"/>
      <use xlink:href="#DejaVuSans-72" x="1141.712891"/>
      <use xlink:href="#DejaVuSans-61" x="1182.826172"/>
      <use xlink:href="#DejaVuSans-63" x="1244.105469"/>
      <use xlink:href="#DejaVuSans-79" x="1299.085938"/>
     </g>
    </g>
    <g id="line2d_29">
     <path d="M 194.291875 248.969938 
L 204.291875 248.969938 
L 214.291875 248.969938 
" style="fill: none; stroke: #d62728; stroke-width: 1.5; stroke-linecap: square"/>
    </g>
    <g id="text_25">
     <!-- Adversarial Validation Accuracy -->
     <g transform="translate(222.291875 252.469938) scale(0.1 -0.1)">
      <use xlink:href="#DejaVuSans-41"/>
      <use xlink:href="#DejaVuSans-64" x="66.658203"/>
      <use xlink:href="#DejaVuSans-76" x="130.134766"/>
      <use xlink:href="#DejaVuSans-65" x="189.314453"/>
      <use xlink:href="#DejaVuSans-72" x="250.837891"/>
      <use xlink:href="#DejaVuSans-73" x="291.951172"/>
      <use xlink:href="#DejaVuSans-61" x="344.050781"/>
      <use xlink:href="#DejaVuSans-72" x="405.330078"/>
      <use xlink:href="#DejaVuSans-69" x="446.443359"/>
      <use xlink:href="#DejaVuSans-61" x="474.226562"/>
      <use xlink:href="#DejaVuSans-6c" x="535.505859"/>
      <use xlink:href="#DejaVuSans-20" x="563.289062"/>
      <use xlink:href="#DejaVuSans-56" x="595.076172"/>
      <use xlink:href="#DejaVuSans-61" x="655.734375"/>
      <use xlink:href="#DejaVuSans-6c" x="717.013672"/>
      <use xlink:href="#DejaVuSans-69" x="744.796875"/>
      <use xlink:href="#DejaVuSans-64" x="772.580078"/>
      <use xlink:href="#DejaVuSans-61" x="836.056641"/>
      <use xlink:href="#DejaVuSans-74" x="897.335938"/>
      <use xlink:href="#DejaVuSans-69" x="936.544922"/>
      <use xlink:href="#DejaVuSans-6f" x="964.328125"/>
      <use xlink:href="#DejaVuSans-6e" x="1025.509766"/>
      <use xlink:href="#DejaVuSans-20" x="1088.888672"/>
      <use xlink:href="#DejaVuSans-41" x="1120.675781"/>
      <use xlink:href="#DejaVuSans-63" x="1187.333984"/>
      <use xlink:href="#DejaVuSans-63" x="1242.314453"/>
      <use xlink:href="#DejaVuSans-75" x="1297.294922"/>
      <use xlink:href="#DejaVuSans-72" x="1360.673828"/>
      <use xlink:href="#DejaVuSans-61" x="1401.787109"/>
      <use xlink:href="#DejaVuSans-63" x="1463.066406"/>
      <use xlink:href="#DejaVuSans-79" x="1518.046875"/>
     </g>
    </g>
    <g id="line2d_30">
     <path d="M 194.291875 263.648063 
L 204.291875 263.648063 
L 214.291875 263.648063 
" style="fill: none; stroke: #9467bd; stroke-width: 1.5; stroke-linecap: square"/>
    </g>
    <g id="text_26">
     <!-- SWA Validation Accuracy -->
     <g transform="translate(222.291875 267.148063) scale(0.1 -0.1)">
      <defs>
       <path id="DejaVuSans-53" d="M 3425 4513 
L 3425 3897 
Q 3066 4069 2747 4153 
Q 2428 4238 2131 4238 
Q 1616 4238 1336 4038 
Q 1056 3838 1056 3469 
Q 1056 3159 1242 3001 
Q 1428 2844 1947 2747 
L 2328 2669 
Q 3034 2534 3370 2195 
Q 3706 1856 3706 1288 
Q 3706 609 3251 259 
Q 2797 -91 1919 -91 
Q 1588 -91 1214 -16 
Q 841 59 441 206 
L 441 856 
Q 825 641 1194 531 
Q 1563 422 1919 422 
Q 2459 422 2753 634 
Q 3047 847 3047 1241 
Q 3047 1584 2836 1778 
Q 2625 1972 2144 2069 
L 1759 2144 
Q 1053 2284 737 2584 
Q 422 2884 422 3419 
Q 422 4038 858 4394 
Q 1294 4750 2059 4750 
Q 2388 4750 2728 4690 
Q 3069 4631 3425 4513 
z
" transform="scale(0.015625)"/>
       <path id="DejaVuSans-57" d="M 213 4666 
L 850 4666 
L 1831 722 
L 2809 4666 
L 3519 4666 
L 4500 722 
L 5478 4666 
L 6119 4666 
L 4947 0 
L 4153 0 
L 3169 4050 
L 2175 0 
L 1381 0 
L 213 4666 
z
" transform="scale(0.015625)"/>
      </defs>
      <use xlink:href="#DejaVuSans-53"/>
      <use xlink:href="#DejaVuSans-57" x="63.476562"/>
      <use xlink:href="#DejaVuSans-41" x="156.853516"/>
      <use xlink:href="#DejaVuSans-20" x="225.261719"/>
      <use xlink:href="#DejaVuSans-56" x="257.048828"/>
      <use xlink:href="#DejaVuSans-61" x="317.707031"/>
      <use xlink:href="#DejaVuSans-6c" x="378.986328"/>
      <use xlink:href="#DejaVuSans-69" x="406.769531"/>
      <use xlink:href="#DejaVuSans-64" x="434.552734"/>
      <use xlink:href="#DejaVuSans-61" x="498.029297"/>
      <use xlink:href="#DejaVuSans-74" x="559.308594"/>
      <use xlink:href="#DejaVuSans-69" x="598.517578"/>
      <use xlink:href="#DejaVuSans-6f" x="626.300781"/>
      <use xlink:href="#DejaVuSans-6e" x="687.482422"/>
      <use xlink:href="#DejaVuSans-20" x="750.861328"/>
      <use xlink:href="#DejaVuSans-41" x="782.648438"/>
      <use xlink:href="#DejaVuSans-63" x="849.306641"/>
      <use xlink:href="#DejaVuSans-63" x="904.287109"/>
      <use xlink:href="#DejaVuSans-75" x="959.267578"/>
      <use xlink:href="#DejaVuSans-72" x="1022.646484"/>
      <use xlink:href="#DejaVuSans-61" x="1063.759766"/>
      <use xlink:href="#DejaVuSans-63" x="1125.039062"/>
      <use xlink:href="#DejaVuSans-79" x="1180.019531"/>
     </g>
    </g>
    <g id="line2d_31">
     <path d="M 194.291875 278.326188 
L 204.291875 278.326188 
L 214.291875 278.326188 
" style="fill: none; stroke: #8c564b; stroke-width: 1.5; stroke-linecap: square"/>
    </g>
    <g id="text_27">
     <!-- SWA Robust Validation Accuracy -->
     <g transform="translate(222.291875 281.826188) scale(0.1 -0.1)">
      <use xlink:href="#DejaVuSans-53"/>
      <use xlink:href="#DejaVuSans-57" x="63.476562"/>
      <use xlink:href="#DejaVuSans-41" x="156.853516"/>
      <use xlink:href="#DejaVuSans-20" x="225.261719"/>
      <use xlink:href="#DejaVuSans-52" x="257.048828"/>
      <use xlink:href="#DejaVuSans-6f" x="322.03125"/>
      <use xlink:href="#DejaVuSans-62" x="383.212891"/>
      <use xlink:href="#DejaVuSans-75" x="446.689453"/>
      <use xlink:href="#DejaVuSans-73" x="510.068359"/>
      <use xlink:href="#DejaVuSans-74" x="562.167969"/>
      <use xlink:href="#DejaVuSans-20" x="601.376953"/>
      <use xlink:href="#DejaVuSans-56" x="633.164062"/>
      <use xlink:href="#DejaVuSans-61" x="693.822266"/>
      <use xlink:href="#DejaVuSans-6c" x="755.101562"/>
      <use xlink:href="#DejaVuSans-69" x="782.884766"/>
      <use xlink:href="#DejaVuSans-64" x="810.667969"/>
      <use xlink:href="#DejaVuSans-61" x="874.144531"/>
      <use xlink:href="#DejaVuSans-74" x="935.423828"/>
      <use xlink:href="#DejaVuSans-69" x="974.632812"/>
      <use xlink:href="#DejaVuSans-6f" x="1002.416016"/>
      <use xlink:href="#DejaVuSans-6e" x="1063.597656"/>
      <use xlink:href="#DejaVuSans-20" x="1126.976562"/>
      <use xlink:href="#DejaVuSans-41" x="1158.763672"/>
      <use xlink:href="#DejaVuSans-63" x="1225.421875"/>
      <use xlink:href="#DejaVuSans-63" x="1280.402344"/>
      <use xlink:href="#DejaVuSans-75" x="1335.382812"/>
      <use xlink:href="#DejaVuSans-72" x="1398.761719"/>
      <use xlink:href="#DejaVuSans-61" x="1439.875"/>
      <use xlink:href="#DejaVuSans-63" x="1501.154297"/>
      <use xlink:href="#DejaVuSans-79" x="1556.134766"/>
     </g>
    </g>
    <g id="line2d_32">
     <path d="M 194.291875 293.004312 
L 204.291875 293.004312 
L 214.291875 293.004312 
" style="fill: none; stroke: #e377c2; stroke-width: 1.5; stroke-linecap: square"/>
    </g>
    <g id="text_28">
     <!-- SWA Adversarial Validation Accuracy -->
     <g transform="translate(222.291875 296.504312) scale(0.1 -0.1)">
      <use xlink:href="#DejaVuSans-53"/>
      <use xlink:href="#DejaVuSans-57" x="63.476562"/>
      <use xlink:href="#DejaVuSans-41" x="156.853516"/>
      <use xlink:href="#DejaVuSans-20" x="225.261719"/>
      <use xlink:href="#DejaVuSans-41" x="257.048828"/>
      <use xlink:href="#DejaVuSans-64" x="323.707031"/>
      <use xlink:href="#DejaVuSans-76" x="387.183594"/>
      <use xlink:href="#DejaVuSans-65" x="446.363281"/>
      <use xlink:href="#DejaVuSans-72" x="507.886719"/>
      <use xlink:href="#DejaVuSans-73" x="549"/>
      <use xlink:href="#DejaVuSans-61" x="601.099609"/>
      <use xlink:href="#DejaVuSans-72" x="662.378906"/>
      <use xlink:href="#DejaVuSans-69" x="703.492188"/>
      <use xlink:href="#DejaVuSans-61" x="731.275391"/>
      <use xlink:href="#DejaVuSans-6c" x="792.554688"/>
      <use xlink:href="#DejaVuSans-20" x="820.337891"/>
      <use xlink:href="#DejaVuSans-56" x="852.125"/>
      <use xlink:href="#DejaVuSans-61" x="912.783203"/>
      <use xlink:href="#DejaVuSans-6c" x="974.0625"/>
      <use xlink:href="#DejaVuSans-69" x="1001.845703"/>
      <use xlink:href="#DejaVuSans-64" x="1029.628906"/>
      <use xlink:href="#DejaVuSans-61" x="1093.105469"/>
      <use xlink:href="#DejaVuSans-74" x="1154.384766"/>
      <use xlink:href="#DejaVuSans-69" x="1193.59375"/>
      <use xlink:href="#DejaVuSans-6f" x="1221.376953"/>
      <use xlink:href="#DejaVuSans-6e" x="1282.558594"/>
      <use xlink:href="#DejaVuSans-20" x="1345.9375"/>
      <use xlink:href="#DejaVuSans-41" x="1377.724609"/>
      <use xlink:href="#DejaVuSans-63" x="1444.382812"/>
      <use xlink:href="#DejaVuSans-63" x="1499.363281"/>
      <use xlink:href="#DejaVuSans-75" x="1554.34375"/>
      <use xlink:href="#DejaVuSans-72" x="1617.722656"/>
      <use xlink:href="#DejaVuSans-61" x="1658.835938"/>
      <use xlink:href="#DejaVuSans-63" x="1720.115234"/>
      <use xlink:href="#DejaVuSans-79" x="1775.095703"/>
     </g>
    </g>
   </g>
  </g>
 </g>
 <defs>
  <clipPath id="p0581a8097d">
   <rect x="57.6" y="41.472" width="357.12" height="266.112"/>
  </clipPath>
 </defs>
</svg>
