<?xml version="1.0" encoding="utf-8" standalone="no"?>
<!DOCTYPE svg PUBLIC "-//W3C//DTD SVG 1.1//EN"
  "http://www.w3.org/Graphics/SVG/1.1/DTD/svg11.dtd">
<svg xmlns:xlink="http://www.w3.org/1999/xlink" width="460.8pt" height="345.6pt" viewBox="0 0 460.8 345.6" xmlns="http://www.w3.org/2000/svg" version="1.1">
 <metadata>
  <rdf:RDF xmlns:dc="http://purl.org/dc/elements/1.1/" xmlns:cc="http://creativecommons.org/ns#" xmlns:rdf="http://www.w3.org/1999/02/22-rdf-syntax-ns#">
   <cc:Work>
    <dc:type rdf:resource="http://purl.org/dc/dcmitype/StillImage"/>
    <dc:date>2024-09-16T08:58:38.833607</dc:date>
    <dc:format>image/svg+xml</dc:format>
    <dc:creator>
     <cc:Agent>
      <dc:title>Matplotlib v3.9.1, https://matplotlib.org/</dc:title>
     </cc:Agent>
    </dc:creator>
   </cc:Work>
  </rdf:RDF>
 </metadata>
 <defs>
  <style type="text/css">*{stroke-linejoin: round; stroke-linecap: butt}</style>
 </defs>
 <g id="figure_1">
  <g id="patch_1">
   <path d="M 0 345.6 
L 460.8 345.6 
L 460.8 0 
L 0 0 
z
" style="fill: #ffffff"/>
  </g>
  <g id="axes_1">
   <g id="patch_2">
    <path d="M 57.6 307.584 
L 414.72 307.584 
L 414.72 41.472 
L 57.6 41.472 
z
" style="fill: #ffffff"/>
   </g>
   <g id="matplotlib.axis_1">
    <g id="xtick_1">
     <g id="line2d_1">
      <defs>
       <path id="mca24488247" d="M 0 0 
L 0 3.5 
" style="stroke: #000000; stroke-width: 0.8"/>
      </defs>
      <g>
       <use xlink:href="#mca24488247" x="73.832727" y="307.584" style="stroke: #000000; stroke-width: 0.8"/>
      </g>
     </g>
     <g id="text_1">
      <!-- 1 -->
      <g transform="translate(70.651477 322.182437) scale(0.1 -0.1)">
       <defs>
        <path id="DejaVuSans-31" d="M 794 531 
L 1825 531 
L 1825 4091 
L 703 3866 
L 703 4441 
L 1819 4666 
L 2450 4666 
L 2450 531 
L 3481 531 
L 3481 0 
L 794 0 
L 794 531 
z
" transform="scale(0.015625)"/>
       </defs>
       <use xlink:href="#DejaVuSans-31"/>
      </g>
     </g>
    </g>
    <g id="xtick_2">
     <g id="line2d_2">
      <g>
       <use xlink:href="#mca24488247" x="109.262733" y="307.584" style="stroke: #000000; stroke-width: 0.8"/>
      </g>
     </g>
     <g id="text_2">
      <!-- 50 -->
      <g transform="translate(102.900233 322.182437) scale(0.1 -0.1)">
       <defs>
        <path id="DejaVuSans-35" d="M 691 4666 
L 3169 4666 
L 3169 4134 
L 1269 4134 
L 1269 2991 
Q 1406 3038 1543 3061 
Q 1681 3084 1819 3084 
Q 2600 3084 3056 2656 
Q 3513 2228 3513 1497 
Q 3513 744 3044 326 
Q 2575 -91 1722 -91 
Q 1428 -91 1123 -41 
Q 819 9 494 109 
L 494 744 
Q 775 591 1075 516 
Q 1375 441 1709 441 
Q 2250 441 2565 725 
Q 2881 1009 2881 1497 
Q 2881 1984 2565 2268 
Q 2250 2553 1709 2553 
Q 1456 2553 1204 2497 
Q 953 2441 691 2322 
L 691 4666 
z
" transform="scale(0.015625)"/>
        <path id="DejaVuSans-30" d="M 2034 4250 
Q 1547 4250 1301 3770 
Q 1056 3291 1056 2328 
Q 1056 1369 1301 889 
Q 1547 409 2034 409 
Q 2525 409 2770 889 
Q 3016 1369 3016 2328 
Q 3016 3291 2770 3770 
Q 2525 4250 2034 4250 
z
M 2034 4750 
Q 2819 4750 3233 4129 
Q 3647 3509 3647 2328 
Q 3647 1150 3233 529 
Q 2819 -91 2034 -91 
Q 1250 -91 836 529 
Q 422 1150 422 2328 
Q 422 3509 836 4129 
Q 1250 4750 2034 4750 
z
" transform="scale(0.015625)"/>
       </defs>
       <use xlink:href="#DejaVuSans-35"/>
       <use xlink:href="#DejaVuSans-30" x="63.623047"/>
      </g>
     </g>
    </g>
    <g id="xtick_3">
     <g id="line2d_3">
      <g>
       <use xlink:href="#mca24488247" x="145.415801" y="307.584" style="stroke: #000000; stroke-width: 0.8"/>
      </g>
     </g>
     <g id="text_3">
      <!-- 100 -->
      <g transform="translate(135.872051 322.182437) scale(0.1 -0.1)">
       <use xlink:href="#DejaVuSans-31"/>
       <use xlink:href="#DejaVuSans-30" x="63.623047"/>
       <use xlink:href="#DejaVuSans-30" x="127.246094"/>
      </g>
     </g>
    </g>
    <g id="xtick_4">
     <g id="line2d_4">
      <g>
       <use xlink:href="#mca24488247" x="181.568868" y="307.584" style="stroke: #000000; stroke-width: 0.8"/>
      </g>
     </g>
     <g id="text_4">
      <!-- 150 -->
      <g transform="translate(172.025118 322.182437) scale(0.1 -0.1)">
       <use xlink:href="#DejaVuSans-31"/>
       <use xlink:href="#DejaVuSans-35" x="63.623047"/>
       <use xlink:href="#DejaVuSans-30" x="127.246094"/>
      </g>
     </g>
    </g>
    <g id="xtick_5">
     <g id="line2d_5">
      <g>
       <use xlink:href="#mca24488247" x="217.721936" y="307.584" style="stroke: #000000; stroke-width: 0.8"/>
      </g>
     </g>
     <g id="text_5">
      <!-- 200 -->
      <g transform="translate(208.178186 322.182437) scale(0.1 -0.1)">
       <defs>
        <path id="DejaVuSans-32" d="M 1228 531 
L 3431 531 
L 3431 0 
L 469 0 
L 469 531 
Q 828 903 1448 1529 
Q 2069 2156 2228 2338 
Q 2531 2678 2651 2914 
Q 2772 3150 2772 3378 
Q 2772 3750 2511 3984 
Q 2250 4219 1831 4219 
Q 1534 4219 1204 4116 
Q 875 4013 500 3803 
L 500 4441 
Q 881 4594 1212 4672 
Q 1544 4750 1819 4750 
Q 2544 4750 2975 4387 
Q 3406 4025 3406 3419 
Q 3406 3131 3298 2873 
Q 3191 2616 2906 2266 
Q 2828 2175 2409 1742 
Q 1991 1309 1228 531 
z
" transform="scale(0.015625)"/>
       </defs>
       <use xlink:href="#DejaVuSans-32"/>
       <use xlink:href="#DejaVuSans-30" x="63.623047"/>
       <use xlink:href="#DejaVuSans-30" x="127.246094"/>
      </g>
     </g>
    </g>
    <g id="xtick_6">
     <g id="line2d_6">
      <g>
       <use xlink:href="#mca24488247" x="253.875003" y="307.584" style="stroke: #000000; stroke-width: 0.8"/>
      </g>
     </g>
     <g id="text_6">
      <!-- 250 -->
      <g transform="translate(244.331253 322.182437) scale(0.1 -0.1)">
       <use xlink:href="#DejaVuSans-32"/>
       <use xlink:href="#DejaVuSans-35" x="63.623047"/>
       <use xlink:href="#DejaVuSans-30" x="127.246094"/>
      </g>
     </g>
    </g>
    <g id="xtick_7">
     <g id="line2d_7">
      <g>
       <use xlink:href="#mca24488247" x="290.02807" y="307.584" style="stroke: #000000; stroke-width: 0.8"/>
      </g>
     </g>
     <g id="text_7">
      <!-- 300 -->
      <g transform="translate(280.48432 322.182437) scale(0.1 -0.1)">
       <defs>
        <path id="DejaVuSans-33" d="M 2597 2516 
Q 3050 2419 3304 2112 
Q 3559 1806 3559 1356 
Q 3559 666 3084 287 
Q 2609 -91 1734 -91 
Q 1441 -91 1130 -33 
Q 819 25 488 141 
L 488 750 
Q 750 597 1062 519 
Q 1375 441 1716 441 
Q 2309 441 2620 675 
Q 2931 909 2931 1356 
Q 2931 1769 2642 2001 
Q 2353 2234 1838 2234 
L 1294 2234 
L 1294 2753 
L 1863 2753 
Q 2328 2753 2575 2939 
Q 2822 3125 2822 3475 
Q 2822 3834 2567 4026 
Q 2313 4219 1838 4219 
Q 1578 4219 1281 4162 
Q 984 4106 628 3988 
L 628 4550 
Q 988 4650 1302 4700 
Q 1616 4750 1894 4750 
Q 2613 4750 3031 4423 
Q 3450 4097 3450 3541 
Q 3450 3153 3228 2886 
Q 3006 2619 2597 2516 
z
" transform="scale(0.015625)"/>
       </defs>
       <use xlink:href="#DejaVuSans-33"/>
       <use xlink:href="#DejaVuSans-30" x="63.623047"/>
       <use xlink:href="#DejaVuSans-30" x="127.246094"/>
      </g>
     </g>
    </g>
    <g id="xtick_8">
     <g id="line2d_8">
      <g>
       <use xlink:href="#mca24488247" x="326.181138" y="307.584" style="stroke: #000000; stroke-width: 0.8"/>
      </g>
     </g>
     <g id="text_8">
      <!-- 350 -->
      <g transform="translate(316.637388 322.182437) scale(0.1 -0.1)">
       <use xlink:href="#DejaVuSans-33"/>
       <use xlink:href="#DejaVuSans-35" x="63.623047"/>
       <use xlink:href="#DejaVuSans-30" x="127.246094"/>
      </g>
     </g>
    </g>
    <g id="xtick_9">
     <g id="line2d_9">
      <g>
       <use xlink:href="#mca24488247" x="362.334205" y="307.584" style="stroke: #000000; stroke-width: 0.8"/>
      </g>
     </g>
     <g id="text_9">
      <!-- 400 -->
      <g transform="translate(352.790455 322.182437) scale(0.1 -0.1)">
       <defs>
        <path id="DejaVuSans-34" d="M 2419 4116 
L 825 1625 
L 2419 1625 
L 2419 4116 
z
M 2253 4666 
L 3047 4666 
L 3047 1625 
L 3713 1625 
L 3713 1100 
L 3047 1100 
L 3047 0 
L 2419 0 
L 2419 1100 
L 313 1100 
L 313 1709 
L 2253 4666 
z
" transform="scale(0.015625)"/>
       </defs>
       <use xlink:href="#DejaVuSans-34"/>
       <use xlink:href="#DejaVuSans-30" x="63.623047"/>
       <use xlink:href="#DejaVuSans-30" x="127.246094"/>
      </g>
     </g>
    </g>
    <g id="xtick_10">
     <g id="line2d_10">
      <g>
       <use xlink:href="#mca24488247" x="398.487273" y="307.584" style="stroke: #000000; stroke-width: 0.8"/>
      </g>
     </g>
     <g id="text_10">
      <!-- 450 -->
      <g transform="translate(388.943523 322.182437) scale(0.1 -0.1)">
       <use xlink:href="#DejaVuSans-34"/>
       <use xlink:href="#DejaVuSans-35" x="63.623047"/>
       <use xlink:href="#DejaVuSans-30" x="127.246094"/>
      </g>
     </g>
    </g>
    <g id="text_11">
     <!-- Epochs -->
     <g transform="translate(218.244375 335.860562) scale(0.1 -0.1)">
      <defs>
       <path id="DejaVuSans-45" d="M 628 4666 
L 3578 4666 
L 3578 4134 
L 1259 4134 
L 1259 2753 
L 3481 2753 
L 3481 2222 
L 1259 2222 
L 1259 531 
L 3634 531 
L 3634 0 
L 628 0 
L 628 4666 
z
" transform="scale(0.015625)"/>
       <path id="DejaVuSans-70" d="M 1159 525 
L 1159 -1331 
L 581 -1331 
L 581 3500 
L 1159 3500 
L 1159 2969 
Q 1341 3281 1617 3432 
Q 1894 3584 2278 3584 
Q 2916 3584 3314 3078 
Q 3713 2572 3713 1747 
Q 3713 922 3314 415 
Q 2916 -91 2278 -91 
Q 1894 -91 1617 61 
Q 1341 213 1159 525 
z
M 3116 1747 
Q 3116 2381 2855 2742 
Q 2594 3103 2138 3103 
Q 1681 3103 1420 2742 
Q 1159 2381 1159 1747 
Q 1159 1113 1420 752 
Q 1681 391 2138 391 
Q 2594 391 2855 752 
Q 3116 1113 3116 1747 
z
" transform="scale(0.015625)"/>
       <path id="DejaVuSans-6f" d="M 1959 3097 
Q 1497 3097 1228 2736 
Q 959 2375 959 1747 
Q 959 1119 1226 758 
Q 1494 397 1959 397 
Q 2419 397 2687 759 
Q 2956 1122 2956 1747 
Q 2956 2369 2687 2733 
Q 2419 3097 1959 3097 
z
M 1959 3584 
Q 2709 3584 3137 3096 
Q 3566 2609 3566 1747 
Q 3566 888 3137 398 
Q 2709 -91 1959 -91 
Q 1206 -91 779 398 
Q 353 888 353 1747 
Q 353 2609 779 3096 
Q 1206 3584 1959 3584 
z
" transform="scale(0.015625)"/>
       <path id="DejaVuSans-63" d="M 3122 3366 
L 3122 2828 
Q 2878 2963 2633 3030 
Q 2388 3097 2138 3097 
Q 1578 3097 1268 2742 
Q 959 2388 959 1747 
Q 959 1106 1268 751 
Q 1578 397 2138 397 
Q 2388 397 2633 464 
Q 2878 531 3122 666 
L 3122 134 
Q 2881 22 2623 -34 
Q 2366 -91 2075 -91 
Q 1284 -91 818 406 
Q 353 903 353 1747 
Q 353 2603 823 3093 
Q 1294 3584 2113 3584 
Q 2378 3584 2631 3529 
Q 2884 3475 3122 3366 
z
" transform="scale(0.015625)"/>
       <path id="DejaVuSans-68" d="M 3513 2113 
L 3513 0 
L 2938 0 
L 2938 2094 
Q 2938 2591 2744 2837 
Q 2550 3084 2163 3084 
Q 1697 3084 1428 2787 
Q 1159 2491 1159 1978 
L 1159 0 
L 581 0 
L 581 4863 
L 1159 4863 
L 1159 2956 
Q 1366 3272 1645 3428 
Q 1925 3584 2291 3584 
Q 2894 3584 3203 3211 
Q 3513 2838 3513 2113 
z
" transform="scale(0.015625)"/>
       <path id="DejaVuSans-73" d="M 2834 3397 
L 2834 2853 
Q 2591 2978 2328 3040 
Q 2066 3103 1784 3103 
Q 1356 3103 1142 2972 
Q 928 2841 928 2578 
Q 928 2378 1081 2264 
Q 1234 2150 1697 2047 
L 1894 2003 
Q 2506 1872 2764 1633 
Q 3022 1394 3022 966 
Q 3022 478 2636 193 
Q 2250 -91 1575 -91 
Q 1294 -91 989 -36 
Q 684 19 347 128 
L 347 722 
Q 666 556 975 473 
Q 1284 391 1588 391 
Q 1994 391 2212 530 
Q 2431 669 2431 922 
Q 2431 1156 2273 1281 
Q 2116 1406 1581 1522 
L 1381 1569 
Q 847 1681 609 1914 
Q 372 2147 372 2553 
Q 372 3047 722 3315 
Q 1072 3584 1716 3584 
Q 2034 3584 2315 3537 
Q 2597 3491 2834 3397 
z
" transform="scale(0.015625)"/>
      </defs>
      <use xlink:href="#DejaVuSans-45"/>
      <use xlink:href="#DejaVuSans-70" x="63.183594"/>
      <use xlink:href="#DejaVuSans-6f" x="126.660156"/>
      <use xlink:href="#DejaVuSans-63" x="187.841797"/>
      <use xlink:href="#DejaVuSans-68" x="242.822266"/>
      <use xlink:href="#DejaVuSans-73" x="306.201172"/>
     </g>
    </g>
   </g>
   <g id="matplotlib.axis_2">
    <g id="ytick_1">
     <g id="line2d_11">
      <defs>
       <path id="mfeedcc943d" d="M 0 0 
L -3.5 0 
" style="stroke: #000000; stroke-width: 0.8"/>
      </defs>
      <g>
       <use xlink:href="#mfeedcc943d" x="57.6" y="303.384113" style="stroke: #000000; stroke-width: 0.8"/>
      </g>
     </g>
     <g id="text_12">
      <!-- 20 -->
      <g transform="translate(37.875 307.183332) scale(0.1 -0.1)">
       <use xlink:href="#DejaVuSans-32"/>
       <use xlink:href="#DejaVuSans-30" x="63.623047"/>
      </g>
     </g>
    </g>
    <g id="ytick_2">
     <g id="line2d_12">
      <g>
       <use xlink:href="#mfeedcc943d" x="57.6" y="270.889821" style="stroke: #000000; stroke-width: 0.8"/>
      </g>
     </g>
     <g id="text_13">
      <!-- 30 -->
      <g transform="translate(37.875 274.68904) scale(0.1 -0.1)">
       <use xlink:href="#DejaVuSans-33"/>
       <use xlink:href="#DejaVuSans-30" x="63.623047"/>
      </g>
     </g>
    </g>
    <g id="ytick_3">
     <g id="line2d_13">
      <g>
       <use xlink:href="#mfeedcc943d" x="57.6" y="238.39553" style="stroke: #000000; stroke-width: 0.8"/>
      </g>
     </g>
     <g id="text_14">
      <!-- 40 -->
      <g transform="translate(37.875 242.194749) scale(0.1 -0.1)">
       <use xlink:href="#DejaVuSans-34"/>
       <use xlink:href="#DejaVuSans-30" x="63.623047"/>
      </g>
     </g>
    </g>
    <g id="ytick_4">
     <g id="line2d_14">
      <g>
       <use xlink:href="#mfeedcc943d" x="57.6" y="205.901238" style="stroke: #000000; stroke-width: 0.8"/>
      </g>
     </g>
     <g id="text_15">
      <!-- 50 -->
      <g transform="translate(37.875 209.700457) scale(0.1 -0.1)">
       <use xlink:href="#DejaVuSans-35"/>
       <use xlink:href="#DejaVuSans-30" x="63.623047"/>
      </g>
     </g>
    </g>
    <g id="ytick_5">
     <g id="line2d_15">
      <g>
       <use xlink:href="#mfeedcc943d" x="57.6" y="173.406947" style="stroke: #000000; stroke-width: 0.8"/>
      </g>
     </g>
     <g id="text_16">
      <!-- 60 -->
      <g transform="translate(37.875 177.206166) scale(0.1 -0.1)">
       <defs>
        <path id="DejaVuSans-36" d="M 2113 2584 
Q 1688 2584 1439 2293 
Q 1191 2003 1191 1497 
Q 1191 994 1439 701 
Q 1688 409 2113 409 
Q 2538 409 2786 701 
Q 3034 994 3034 1497 
Q 3034 2003 2786 2293 
Q 2538 2584 2113 2584 
z
M 3366 4563 
L 3366 3988 
Q 3128 4100 2886 4159 
Q 2644 4219 2406 4219 
Q 1781 4219 1451 3797 
Q 1122 3375 1075 2522 
Q 1259 2794 1537 2939 
Q 1816 3084 2150 3084 
Q 2853 3084 3261 2657 
Q 3669 2231 3669 1497 
Q 3669 778 3244 343 
Q 2819 -91 2113 -91 
Q 1303 -91 875 529 
Q 447 1150 447 2328 
Q 447 3434 972 4092 
Q 1497 4750 2381 4750 
Q 2619 4750 2861 4703 
Q 3103 4656 3366 4563 
z
" transform="scale(0.015625)"/>
       </defs>
       <use xlink:href="#DejaVuSans-36"/>
       <use xlink:href="#DejaVuSans-30" x="63.623047"/>
      </g>
     </g>
    </g>
    <g id="ytick_6">
     <g id="line2d_16">
      <g>
       <use xlink:href="#mfeedcc943d" x="57.6" y="140.912655" style="stroke: #000000; stroke-width: 0.8"/>
      </g>
     </g>
     <g id="text_17">
      <!-- 70 -->
      <g transform="translate(37.875 144.711874) scale(0.1 -0.1)">
       <defs>
        <path id="DejaVuSans-37" d="M 525 4666 
L 3525 4666 
L 3525 4397 
L 1831 0 
L 1172 0 
L 2766 4134 
L 525 4134 
L 525 4666 
z
" transform="scale(0.015625)"/>
       </defs>
       <use xlink:href="#DejaVuSans-37"/>
       <use xlink:href="#DejaVuSans-30" x="63.623047"/>
      </g>
     </g>
    </g>
    <g id="ytick_7">
     <g id="line2d_17">
      <g>
       <use xlink:href="#mfeedcc943d" x="57.6" y="108.418364" style="stroke: #000000; stroke-width: 0.8"/>
      </g>
     </g>
     <g id="text_18">
      <!-- 80 -->
      <g transform="translate(37.875 112.217583) scale(0.1 -0.1)">
       <defs>
        <path id="DejaVuSans-38" d="M 2034 2216 
Q 1584 2216 1326 1975 
Q 1069 1734 1069 1313 
Q 1069 891 1326 650 
Q 1584 409 2034 409 
Q 2484 409 2743 651 
Q 3003 894 3003 1313 
Q 3003 1734 2745 1975 
Q 2488 2216 2034 2216 
z
M 1403 2484 
Q 997 2584 770 2862 
Q 544 3141 544 3541 
Q 544 4100 942 4425 
Q 1341 4750 2034 4750 
Q 2731 4750 3128 4425 
Q 3525 4100 3525 3541 
Q 3525 3141 3298 2862 
Q 3072 2584 2669 2484 
Q 3125 2378 3379 2068 
Q 3634 1759 3634 1313 
Q 3634 634 3220 271 
Q 2806 -91 2034 -91 
Q 1263 -91 848 271 
Q 434 634 434 1313 
Q 434 1759 690 2068 
Q 947 2378 1403 2484 
z
M 1172 3481 
Q 1172 3119 1398 2916 
Q 1625 2713 2034 2713 
Q 2441 2713 2670 2916 
Q 2900 3119 2900 3481 
Q 2900 3844 2670 4047 
Q 2441 4250 2034 4250 
Q 1625 4250 1398 4047 
Q 1172 3844 1172 3481 
z
" transform="scale(0.015625)"/>
       </defs>
       <use xlink:href="#DejaVuSans-38"/>
       <use xlink:href="#DejaVuSans-30" x="63.623047"/>
      </g>
     </g>
    </g>
    <g id="ytick_8">
     <g id="line2d_18">
      <g>
       <use xlink:href="#mfeedcc943d" x="57.6" y="75.924073" style="stroke: #000000; stroke-width: 0.8"/>
      </g>
     </g>
     <g id="text_19">
      <!-- 90 -->
      <g transform="translate(37.875 79.723291) scale(0.1 -0.1)">
       <defs>
        <path id="DejaVuSans-39" d="M 703 97 
L 703 672 
Q 941 559 1184 500 
Q 1428 441 1663 441 
Q 2288 441 2617 861 
Q 2947 1281 2994 2138 
Q 2813 1869 2534 1725 
Q 2256 1581 1919 1581 
Q 1219 1581 811 2004 
Q 403 2428 403 3163 
Q 403 3881 828 4315 
Q 1253 4750 1959 4750 
Q 2769 4750 3195 4129 
Q 3622 3509 3622 2328 
Q 3622 1225 3098 567 
Q 2575 -91 1691 -91 
Q 1453 -91 1209 -44 
Q 966 3 703 97 
z
M 1959 2075 
Q 2384 2075 2632 2365 
Q 2881 2656 2881 3163 
Q 2881 3666 2632 3958 
Q 2384 4250 1959 4250 
Q 1534 4250 1286 3958 
Q 1038 3666 1038 3163 
Q 1038 2656 1286 2365 
Q 1534 2075 1959 2075 
z
" transform="scale(0.015625)"/>
       </defs>
       <use xlink:href="#DejaVuSans-39"/>
       <use xlink:href="#DejaVuSans-30" x="63.623047"/>
      </g>
     </g>
    </g>
    <g id="ytick_9">
     <g id="line2d_19">
      <g>
       <use xlink:href="#mfeedcc943d" x="57.6" y="43.429781" style="stroke: #000000; stroke-width: 0.8"/>
      </g>
     </g>
     <g id="text_20">
      <!-- 100 -->
      <g transform="translate(31.5125 47.229) scale(0.1 -0.1)">
       <use xlink:href="#DejaVuSans-31"/>
       <use xlink:href="#DejaVuSans-30" x="63.623047"/>
       <use xlink:href="#DejaVuSans-30" x="127.246094"/>
      </g>
     </g>
    </g>
    <g id="text_21">
     <!-- Accuracy -->
     <g transform="translate(25.432812 197.356125) rotate(-90) scale(0.1 -0.1)">
      <defs>
       <path id="DejaVuSans-41" d="M 2188 4044 
L 1331 1722 
L 3047 1722 
L 2188 4044 
z
M 1831 4666 
L 2547 4666 
L 4325 0 
L 3669 0 
L 3244 1197 
L 1141 1197 
L 716 0 
L 50 0 
L 1831 4666 
z
" transform="scale(0.015625)"/>
       <path id="DejaVuSans-75" d="M 544 1381 
L 544 3500 
L 1119 3500 
L 1119 1403 
Q 1119 906 1312 657 
Q 1506 409 1894 409 
Q 2359 409 2629 706 
Q 2900 1003 2900 1516 
L 2900 3500 
L 3475 3500 
L 3475 0 
L 2900 0 
L 2900 538 
Q 2691 219 2414 64 
Q 2138 -91 1772 -91 
Q 1169 -91 856 284 
Q 544 659 544 1381 
z
M 1991 3584 
L 1991 3584 
z
" transform="scale(0.015625)"/>
       <path id="DejaVuSans-72" d="M 2631 2963 
Q 2534 3019 2420 3045 
Q 2306 3072 2169 3072 
Q 1681 3072 1420 2755 
Q 1159 2438 1159 1844 
L 1159 0 
L 581 0 
L 581 3500 
L 1159 3500 
L 1159 2956 
Q 1341 3275 1631 3429 
Q 1922 3584 2338 3584 
Q 2397 3584 2469 3576 
Q 2541 3569 2628 3553 
L 2631 2963 
z
" transform="scale(0.015625)"/>
       <path id="DejaVuSans-61" d="M 2194 1759 
Q 1497 1759 1228 1600 
Q 959 1441 959 1056 
Q 959 750 1161 570 
Q 1363 391 1709 391 
Q 2188 391 2477 730 
Q 2766 1069 2766 1631 
L 2766 1759 
L 2194 1759 
z
M 3341 1997 
L 3341 0 
L 2766 0 
L 2766 531 
Q 2569 213 2275 61 
Q 1981 -91 1556 -91 
Q 1019 -91 701 211 
Q 384 513 384 1019 
Q 384 1609 779 1909 
Q 1175 2209 1959 2209 
L 2766 2209 
L 2766 2266 
Q 2766 2663 2505 2880 
Q 2244 3097 1772 3097 
Q 1472 3097 1187 3025 
Q 903 2953 641 2809 
L 641 3341 
Q 956 3463 1253 3523 
Q 1550 3584 1831 3584 
Q 2591 3584 2966 3190 
Q 3341 2797 3341 1997 
z
" transform="scale(0.015625)"/>
       <path id="DejaVuSans-79" d="M 2059 -325 
Q 1816 -950 1584 -1140 
Q 1353 -1331 966 -1331 
L 506 -1331 
L 506 -850 
L 844 -850 
Q 1081 -850 1212 -737 
Q 1344 -625 1503 -206 
L 1606 56 
L 191 3500 
L 800 3500 
L 1894 763 
L 2988 3500 
L 3597 3500 
L 2059 -325 
z
" transform="scale(0.015625)"/>
      </defs>
      <use xlink:href="#DejaVuSans-41"/>
      <use xlink:href="#DejaVuSans-63" x="66.658203"/>
      <use xlink:href="#DejaVuSans-63" x="121.638672"/>
      <use xlink:href="#DejaVuSans-75" x="176.619141"/>
      <use xlink:href="#DejaVuSans-72" x="239.998047"/>
      <use xlink:href="#DejaVuSans-61" x="281.111328"/>
      <use xlink:href="#DejaVuSans-63" x="342.390625"/>
      <use xlink:href="#DejaVuSans-79" x="397.371094"/>
     </g>
    </g>
   </g>
   <g id="line2d_20">
    <path d="M 73.832727 267.406433 
L 74.555789 206.492635 
L 75.27885 172.841546 
L 76.001911 156.347444 
L 76.724973 143.291238 
L 78.171095 129.455168 
L 79.617218 120.577728 
L 80.340279 117.120335 
L 81.063341 112.82459 
L 81.786402 112.08372 
L 82.509463 109.724635 
L 83.232525 107.859462 
L 83.955586 104.525548 
L 84.678647 102.543396 
L 86.12477 100.437766 
L 86.847832 97.084355 
L 87.570893 97.136346 
L 89.017016 92.366184 
L 89.740077 92.424674 
L 90.463138 90.637488 
L 91.1862 90.0006 
L 91.909261 88.317395 
L 92.632322 89.214238 
L 93.355384 88.23291 
L 94.078445 88.083436 
L 94.801506 86.484717 
L 95.524568 105.779828 
L 96.247629 105.077951 
L 96.97069 105.175434 
L 97.693752 103.641703 
L 99.139874 101.055158 
L 99.862936 99.339459 
L 100.585997 98.631083 
L 101.309059 97.240328 
L 102.03212 96.824401 
L 102.755181 96.954378 
L 103.478243 95.336162 
L 104.201304 95.089206 
L 104.924365 94.354835 
L 105.647427 93.152546 
L 106.370488 93.263026 
L 107.093549 91.618815 
L 107.816611 92.554651 
L 108.539672 91.066412 
L 109.262733 90.345039 
L 109.985795 90.020096 
L 110.708856 90.559501 
L 112.154979 87.920965 
L 112.87804 87.407555 
L 113.601101 87.160599 
L 114.324163 86.47172 
L 115.047224 86.75117 
L 115.770285 85.698355 
L 116.493347 85.477394 
L 117.216408 83.982657 
L 117.93947 84.015151 
L 118.662531 82.741375 
L 119.385592 82.065494 
L 120.108654 82.42943 
L 120.831715 81.727553 
L 122.277838 81.864029 
L 123.000899 79.712907 
L 123.72396 78.861556 
L 124.447022 78.985035 
L 125.170083 77.717757 
L 125.893144 78.224668 
L 126.616206 76.872906 
L 128.062328 78.068696 
L 128.78539 75.99556 
L 129.508451 74.448832 
L 130.231512 75.170205 
L 130.954574 75.521143 
L 131.677635 74.11739 
L 132.400696 73.818442 
L 133.123758 73.980914 
L 133.846819 73.09057 
L 134.569881 73.038579 
L 135.292942 73.337527 
L 136.016003 72.798122 
L 136.739065 73.363522 
L 137.462126 72.973591 
L 138.185187 72.369197 
L 138.908249 89.448197 
L 139.63131 91.397854 
L 140.354371 90.319044 
L 141.077433 90.514009 
L 141.800494 89.506686 
L 142.523555 90.046092 
L 143.246617 89.240233 
L 143.969678 89.025771 
L 144.692739 88.187418 
L 145.415801 86.822658 
L 146.138862 88.863299 
L 146.861923 86.406731 
L 147.584985 87.60902 
L 148.308046 86.608196 
L 149.754169 87.193093 
L 150.47723 86.257257 
L 151.200292 84.957486 
L 151.923353 85.737349 
L 152.646414 85.984305 
L 153.369476 85.074465 
L 154.092537 85.10046 
L 154.815598 84.918492 
L 155.53866 84.470071 
L 156.261721 85.431902 
L 156.984782 83.046821 
L 157.707844 83.573229 
L 158.430905 83.092313 
L 159.153966 83.898172 
L 159.877028 83.690208 
L 160.600089 83.248286 
L 161.32315 82.487919 
L 162.046212 83.50824 
L 164.215396 81.142656 
L 164.938457 82.357942 
L 165.661519 80.804715 
L 166.38458 82.305951 
L 167.107641 81.526088 
L 167.830703 79.992358 
L 168.553764 81.636569 
L 169.276825 80.817713 
L 169.999887 81.181649 
L 170.722948 80.902198 
L 171.446009 79.946866 
L 172.169071 79.97936 
L 172.892132 79.641419 
L 173.615193 79.595927 
L 174.338255 79.089017 
L 175.061316 79.264486 
L 175.784377 78.406636 
L 176.507439 78.933044 
L 177.2305 77.184851 
L 177.953561 76.788421 
L 178.676623 78.751076 
L 179.399684 76.957391 
L 180.122745 76.970389 
L 180.845807 77.405812 
L 181.568868 77.19135 
L 182.29193 77.275835 
L 184.461114 74.923248 
L 185.184175 75.664118 
L 185.907236 75.969565 
L 186.630298 75.560136 
L 187.353359 74.721784 
L 188.07642 74.422836 
L 188.799482 74.507321 
L 190.245604 73.83144 
L 190.968666 74.065399 
L 191.691727 73.175055 
L 192.414788 73.642973 
L 193.13785 72.414689 
L 193.860911 71.608831 
L 194.583972 72.947595 
L 195.307034 71.907778 
L 196.030095 72.057252 
L 196.753157 70.978441 
L 197.476218 71.823293 
L 198.199279 71.660821 
L 198.922341 71.186405 
L 200.368463 69.938624 
L 201.091525 70.711988 
L 201.814586 69.717663 
L 202.537647 70.068601 
L 203.260709 69.633178 
L 203.98377 68.944299 
L 204.706831 69.113269 
L 205.429893 68.664848 
L 206.152954 69.431713 
L 206.876015 67.858989 
L 207.599077 68.398395 
L 208.322138 68.372399 
L 209.045199 67.365076 
L 209.768261 67.378074 
L 210.491322 67.599035 
L 211.214383 66.305762 
L 211.937445 68.073452 
L 212.660506 67.196106 
L 213.383568 67.254596 
L 214.106629 66.682696 
L 214.82969 66.708691 
L 215.552752 66.409744 
L 216.275813 65.850842 
L 217.721936 65.889835 
L 218.444997 65.447913 
L 219.168058 66.104298 
L 220.614181 66.071803 
L 221.337242 65.441414 
L 222.060304 65.993817 
L 222.783365 66.110797 
L 223.506426 65.558394 
L 224.229488 65.395922 
L 224.952549 66.0913 
L 225.67561 83.924167 
L 226.398672 84.678035 
L 227.121733 84.847005 
L 227.844794 83.826684 
L 228.567856 84.151627 
L 229.290917 83.462748 
L 230.013979 84.125632 
L 230.73704 83.560231 
L 231.460101 83.787691 
L 232.183163 82.747874 
L 232.906224 82.195471 
L 233.629285 82.53991 
L 234.352347 82.585402 
L 236.521531 81.071168 
L 238.690715 81.766546 
L 239.413776 82.20197 
L 240.136837 80.401786 
L 240.859899 80.746225 
L 241.58296 81.649567 
L 242.306021 81.753548 
L 243.029083 81.155653 
L 243.752144 80.980184 
L 244.475206 80.213319 
L 245.198267 80.167827 
L 245.921328 80.921695 
L 246.64439 79.914372 
L 247.367451 80.694235 
L 248.090512 79.914372 
L 248.813574 79.7519 
L 249.536635 79.381465 
L 250.259696 80.024852 
L 250.982758 80.512266 
L 252.42888 79.764898 
L 253.151942 78.920046 
L 253.875003 79.283982 
L 254.598064 79.381465 
L 255.321126 79.01103 
L 256.044187 79.394463 
L 256.767248 78.848559 
L 257.49031 78.15968 
L 258.213371 78.263662 
L 258.936432 78.887552 
L 259.659494 78.601602 
L 260.382555 78.44563 
L 261.105617 78.133684 
L 261.828678 78.757575 
L 263.274801 77.548787 
L 263.997862 78.523616 
L 264.720923 78.0427 
L 266.167046 77.782746 
L 266.890107 77.828238 
L 267.613169 78.023204 
L 268.33623 77.334325 
L 269.059291 77.509794 
L 269.782353 78.15968 
L 270.505414 77.204348 
L 271.228475 77.009382 
L 272.674598 77.386316 
L 273.397659 77.19135 
L 274.120721 76.067047 
L 274.843782 78.27016 
L 275.566843 77.07437 
L 277.012966 76.327002 
L 277.736028 76.463478 
L 278.459089 76.84691 
L 279.18215 76.028054 
L 279.905212 76.463478 
L 280.628273 76.365995 
L 281.351334 75.924073 
L 282.074396 76.684439 
L 282.797457 76.541464 
L 283.520518 76.729931 
L 284.24358 76.073546 
L 284.966641 75.618626 
L 285.689702 76.047551 
L 286.412764 75.248191 
L 287.135825 75.729107 
L 287.858886 74.884255 
L 288.581948 74.890754 
L 289.305009 75.813592 
L 290.02807 75.072722 
L 290.751132 74.96874 
L 291.474193 75.475651 
L 292.197255 75.449656 
L 292.920316 74.845262 
L 293.643377 73.980914 
L 294.366439 73.850937 
L 295.0895 74.728283 
L 295.812561 75.228695 
L 296.535623 74.897253 
L 297.258684 74.149884 
L 297.981745 73.870433 
L 298.704807 74.149884 
L 299.427868 73.461005 
L 300.150929 73.88993 
L 300.873991 74.169381 
L 301.597052 73.616978 
L 302.320113 74.708786 
L 303.043175 73.363522 
L 303.766236 72.908602 
L 304.489297 73.006085 
L 305.212359 73.701463 
L 305.93542 72.895605 
L 306.658481 73.077573 
L 307.381543 73.09057 
L 308.104604 72.609655 
L 308.827666 72.616154 
L 309.550727 72.213224 
L 310.273788 73.422012 
L 310.99685 72.596657 
L 312.442972 72.317206 
L 313.166034 73.019083 
L 313.889095 71.719311 
L 314.612156 71.84279 
L 315.335218 71.641325 
L 316.058279 72.518671 
L 316.78134 71.465856 
L 317.504402 71.647824 
L 318.227463 71.218899 
L 318.950524 71.66732 
L 319.673586 71.179906 
L 320.396647 70.140089 
L 321.119708 71.342377 
L 321.84277 71.524345 
L 322.565831 70.224574 
L 323.288892 70.98494 
L 324.011954 70.166084 
L 324.735015 70.172583 
L 325.458077 70.315558 
L 326.181138 69.997114 
L 326.904199 69.444711 
L 327.627261 69.880134 
L 328.350322 69.295237 
L 329.073383 70.263567 
L 329.796445 69.548693 
L 330.519506 69.100271 
L 331.242567 70.114093 
L 331.965629 69.808647 
L 332.68869 69.366725 
L 333.411751 69.191255 
L 334.134813 69.639677 
L 335.580935 68.515374 
L 336.303997 68.723338 
L 337.027058 68.729836 
L 337.750119 68.19693 
L 338.473181 68.476381 
L 339.196242 67.982468 
L 339.919304 68.469882 
L 340.642365 67.988967 
L 341.365426 67.949973 
L 342.088488 67.436564 
L 342.811549 67.956472 
L 343.53461 66.806174 
L 344.257672 67.339081 
L 344.980733 67.51455 
L 345.703794 67.137616 
L 346.426856 66.435739 
L 347.149917 66.357753 
L 347.872978 67.319584 
L 348.59604 66.77368 
L 350.042162 66.435739 
L 350.765224 65.5194 
L 351.488285 66.578714 
L 352.211346 66.292765 
L 352.934408 66.767181 
L 353.657469 66.949149 
L 354.38053 66.539721 
L 355.103592 66.656701 
L 355.826653 66.591712 
L 356.549715 66.019812 
L 357.272776 67.027136 
L 357.995837 67.072628 
L 358.718899 67.235099 
L 359.44196 66.838669 
L 360.165021 66.799675 
L 360.888083 67.332582 
L 361.611144 66.221277 
L 362.334205 65.954824 
L 363.057267 66.247273 
L 363.780328 67.183108 
L 364.503389 66.864664 
L 365.949512 66.793177 
L 366.672573 66.305762 
L 367.395635 66.370751 
L 368.841757 66.955648 
L 369.564819 66.949149 
L 370.28788 66.143291 
L 371.010941 66.77368 
L 371.734003 66.71519 
L 372.457064 66.819172 
L 373.180126 67.280591 
L 373.903187 65.668874 
L 374.626248 67.124618 
L 375.34931 67.196106 
L 376.072371 66.708691 
L 376.795432 66.94265 
L 377.518494 66.71519 
L 378.241555 67.2286 
L 378.964616 66.819172 
L 379.687678 67.631529 
L 380.410739 66.331758 
L 381.856862 67.358577 
L 382.579923 66.572215 
L 384.026046 67.508051 
L 384.749107 67.046632 
L 385.472168 67.124618 
L 386.19523 66.292765 
L 386.918291 66.871163 
L 387.641353 66.539721 
L 388.364414 66.474733 
L 389.087475 67.475557 
L 389.810537 67.430065 
L 390.533598 67.144115 
L 391.256659 67.196106 
L 391.979721 66.767181 
L 392.702782 67.293589 
L 393.425843 66.448737 
L 394.148905 66.851666 
L 394.871966 66.695694 
L 395.595027 67.235099 
L 396.318089 66.825671 
L 397.04115 67.079126 
L 397.764211 67.183108 
L 398.487273 66.689195 
L 398.487273 66.689195 
" clip-path="url(#p858c19db43)" style="fill: none; stroke: #1f77b4; stroke-width: 1.5; stroke-linecap: square"/>
   </g>
   <g id="line2d_21">
    <path d="M 73.832727 209.053185 
L 74.555789 165.835777 
L 75.27885 162.651336 
L 76.724973 133.568946 
L 77.448034 131.684277 
L 78.171095 110.595482 
L 78.894157 105.071452 
L 79.617218 101.49708 
L 80.340279 92.138724 
L 81.063341 90.806458 
L 81.786402 86.224763 
L 82.509463 90.741469 
L 83.232525 85.282428 
L 83.955586 85.314923 
L 84.678647 83.917668 
L 85.401709 80.765722 
L 86.12477 82.780368 
L 86.847832 78.003707 
L 87.570893 76.96389 
L 88.293954 78.458627 
L 89.017016 76.314004 
L 89.740077 75.924073 
L 90.463138 72.804621 
L 91.1862 72.382195 
L 91.909261 70.010111 
L 92.632322 70.0751 
L 93.355384 69.587686 
L 94.078445 69.750157 
L 94.801506 69.685169 
L 95.524568 90.449021 
L 96.247629 86.452223 
L 96.97069 85.21744 
L 97.693752 80.505768 
L 98.416813 79.368467 
L 99.139874 80.050848 
L 99.862936 82.130482 
L 100.585997 75.306681 
L 101.309059 80.440779 
L 102.03212 76.541464 
L 102.755181 79.205996 
L 103.478243 76.606453 
L 104.201304 76.411487 
L 104.924365 75.729107 
L 105.647427 72.512172 
L 106.370488 74.006909 
L 107.093549 76.50897 
L 107.816611 76.378993 
L 108.539672 75.014232 
L 109.262733 72.804621 
L 109.985795 71.504849 
L 110.708856 70.595009 
L 111.431917 72.3497 
L 112.154979 70.367549 
L 112.87804 69.880134 
L 113.601101 70.952446 
L 114.324163 70.367549 
L 115.047224 70.724986 
L 115.770285 66.045808 
L 116.493347 69.457709 
L 117.216408 67.378074 
L 117.93947 67.053131 
L 118.662531 66.338257 
L 119.385592 64.388599 
L 120.108654 65.103473 
L 120.831715 64.291116 
L 121.554776 64.388599 
L 122.277838 63.933679 
L 123.000899 64.551071 
L 123.72396 62.601413 
L 124.447022 62.893862 
L 125.170083 63.023839 
L 125.893144 62.568919 
L 126.616206 62.601413 
L 127.339267 60.716744 
L 128.062328 61.659079 
L 128.78539 60.781733 
L 129.508451 61.886539 
L 130.231512 60.424296 
L 131.677635 60.066858 
L 132.400696 60.326813 
L 133.123758 59.579444 
L 133.846819 59.644433 
L 134.569881 59.481961 
L 135.292942 59.481961 
L 136.739065 59.09203 
L 137.462126 59.189512 
L 138.185187 59.09203 
L 138.908249 71.699815 
L 139.63131 73.487001 
L 140.354371 73.292035 
L 141.077433 69.84764 
L 141.800494 68.775328 
L 142.523555 71.2124 
L 143.246617 72.934598 
L 143.969678 71.992263 
L 144.692739 69.522697 
L 145.415801 75.079221 
L 146.138862 74.396841 
L 146.861923 70.595009 
L 147.584985 71.082423 
L 149.754169 69.262743 
L 150.47723 68.840317 
L 151.200292 69.067777 
L 151.923353 71.764803 
L 152.646414 69.912629 
L 154.092537 68.677846 
L 154.815598 70.335054 
L 155.53866 69.132766 
L 156.261721 67.053131 
L 156.984782 67.475557 
L 157.707844 66.923154 
L 158.430905 65.883336 
L 159.153966 66.143291 
L 159.877028 66.630705 
L 161.32315 65.948325 
L 162.046212 69.262743 
L 162.769273 63.576242 
L 163.492334 65.590888 
L 164.215396 65.038485 
L 164.938457 65.493405 
L 165.661519 64.843519 
L 166.38458 65.753359 
L 167.107641 63.901185 
L 167.830703 64.746036 
L 168.553764 66.143291 
L 169.276825 64.518576 
L 169.999887 63.543747 
L 170.722948 64.161139 
L 171.446009 64.128645 
L 172.169071 64.681048 
L 172.892132 64.128645 
L 173.615193 65.330934 
L 174.338255 62.113999 
L 175.061316 64.356105 
L 175.784377 63.251299 
L 176.507439 65.623382 
L 177.2305 61.886539 
L 177.953561 61.171664 
L 178.676623 62.601413 
L 179.399684 62.95885 
L 180.122745 62.828873 
L 180.845807 61.724067 
L 181.568868 61.171664 
L 182.29193 61.041687 
L 183.014991 64.486082 
L 183.738052 63.251299 
L 184.461114 61.301641 
L 185.184175 60.45679 
L 185.907236 63.121322 
L 186.630298 61.009193 
L 187.353359 61.171664 
L 188.07642 61.009193 
L 188.799482 62.146493 
L 189.522543 61.041687 
L 190.245604 59.514455 
L 190.968666 58.832075 
L 191.691727 61.009193 
L 192.414788 60.00187 
L 193.13785 59.969375 
L 193.860911 58.279672 
L 194.583972 59.676927 
L 195.307034 59.09203 
L 196.030095 59.676927 
L 196.753157 58.377155 
L 197.476218 60.294318 
L 198.199279 59.416972 
L 198.922341 59.839398 
L 199.645402 58.767087 
L 200.368463 58.377155 
L 202.537647 58.019718 
L 203.260709 58.214684 
L 203.98377 57.629786 
L 204.706831 58.279672 
L 205.429893 58.182189 
L 206.152954 57.077383 
L 206.876015 58.084707 
L 207.599077 57.759764 
L 208.322138 57.759764 
L 209.045199 56.654958 
L 211.214383 57.467315 
L 211.937445 57.402326 
L 212.660506 56.979901 
L 213.383568 56.167543 
L 214.82969 55.777612 
L 215.552752 56.330015 
L 216.275813 55.745118 
L 216.998874 55.972578 
L 217.721936 56.362509 
L 218.444997 56.135049 
L 219.168058 56.330015 
L 219.89112 56.135049 
L 221.337242 56.102555 
L 222.060304 56.102555 
L 222.783365 55.712623 
L 223.506426 56.037566 
L 224.229488 56.167543 
L 224.952549 56.005072 
L 225.67561 70.367549 
L 226.398672 67.34558 
L 227.121733 69.880134 
L 227.844794 70.432537 
L 228.567856 69.880134 
L 229.290917 67.280591 
L 230.013979 68.547868 
L 230.73704 66.858165 
L 231.460101 66.500728 
L 232.183163 70.010111 
L 232.906224 66.793177 
L 233.629285 64.356105 
L 234.352347 64.193633 
L 235.075408 70.0751 
L 235.798469 67.475557 
L 236.521531 67.150614 
L 237.244592 64.973496 
L 237.967653 66.338257 
L 238.690715 64.811025 
L 239.413776 66.045808 
L 240.136837 64.811025 
L 240.859899 65.460911 
L 241.58296 64.32361 
L 242.306021 67.475557 
L 243.029083 64.291116 
L 243.752144 67.085625 
L 244.475206 64.713542 
L 245.198267 68.287914 
L 245.921328 64.713542 
L 246.64439 68.677846 
L 247.367451 64.616059 
L 248.090512 63.153816 
L 248.813574 64.128645 
L 249.536635 63.283793 
L 250.259696 65.688371 
L 250.982758 65.103473 
L 251.705819 66.89066 
L 252.42888 63.381276 
L 253.151942 66.565717 
L 253.875003 67.605534 
L 254.598064 63.056333 
L 255.321126 65.070979 
L 256.044187 64.388599 
L 256.767248 63.283793 
L 258.213371 64.193633 
L 258.936432 63.706219 
L 259.659494 64.421093 
L 260.382555 64.388599 
L 261.105617 69.750157 
L 261.828678 63.738713 
L 262.551739 62.406447 
L 263.274801 63.608736 
L 263.997862 62.828873 
L 264.720923 63.023839 
L 265.443985 62.601413 
L 266.167046 64.518576 
L 266.890107 63.543747 
L 267.613169 64.518576 
L 268.33623 63.738713 
L 269.782353 64.031162 
L 270.505414 62.536424 
L 271.228475 62.926356 
L 271.951537 64.193633 
L 272.674598 64.226128 
L 273.397659 62.698896 
L 274.120721 63.738713 
L 274.843782 64.421093 
L 275.566843 63.511253 
L 276.289905 62.081504 
L 277.012966 61.529101 
L 277.736028 64.908508 
L 278.459089 62.471436 
L 279.18215 62.406447 
L 280.628273 63.803702 
L 281.351334 63.121322 
L 282.074396 63.478759 
L 282.797457 61.301641 
L 283.520518 60.554273 
L 284.24358 61.496607 
L 284.966641 61.984021 
L 285.689702 63.836196 
L 286.412764 61.334136 
L 287.135825 62.04901 
L 287.858886 61.529101 
L 289.305009 62.438942 
L 290.02807 60.131847 
L 291.474193 61.886539 
L 292.197255 60.814227 
L 292.920316 61.659079 
L 293.643377 60.68425 
L 294.366439 59.936881 
L 295.0895 60.814227 
L 295.812561 61.009193 
L 296.535623 59.871893 
L 297.258684 61.13917 
L 297.981745 58.539627 
L 298.704807 59.286995 
L 299.427868 60.521778 
L 300.150929 60.45679 
L 300.873991 60.651756 
L 301.597052 60.651756 
L 303.043175 59.611938 
L 303.766236 60.68425 
L 304.489297 60.651756 
L 305.212359 59.611938 
L 305.93542 59.514455 
L 306.658481 59.124524 
L 307.381543 59.351984 
L 308.104604 59.027041 
L 308.827666 60.554273 
L 309.550727 59.969375 
L 310.99685 59.871893 
L 311.719911 61.009193 
L 312.442972 59.449467 
L 313.166034 60.619261 
L 313.889095 59.709421 
L 314.612156 60.814227 
L 315.335218 58.539627 
L 316.058279 58.832075 
L 316.78134 60.099353 
L 317.504402 58.702098 
L 318.227463 57.564798 
L 318.950524 58.474638 
L 319.673586 59.579444 
L 320.396647 59.904387 
L 321.119708 58.442144 
L 321.84277 59.514455 
L 322.565831 59.31949 
L 323.288892 58.052212 
L 324.011954 59.189512 
L 324.735015 58.604615 
L 325.458077 58.279672 
L 326.181138 60.326813 
L 326.904199 58.702098 
L 327.627261 58.149695 
L 328.350322 59.157018 
L 329.073383 57.792258 
L 329.796445 57.597292 
L 330.519506 58.084707 
L 331.242567 56.752441 
L 331.965629 58.019718 
L 332.68869 58.637109 
L 333.411751 58.019718 
L 334.134813 58.572121 
L 334.857874 57.499809 
L 335.580935 57.694775 
L 336.303997 57.207361 
L 337.027058 58.084707 
L 337.750119 57.402326 
L 338.473181 57.954729 
L 339.196242 58.117201 
L 339.919304 56.037566 
L 340.642365 56.882418 
L 341.365426 56.882418 
L 342.088488 56.492486 
L 342.811549 56.784935 
L 343.53461 57.434821 
L 344.257672 55.745118 
L 344.980733 55.355186 
L 345.703794 56.200038 
L 346.426856 55.907589 
L 347.149917 55.875095 
L 347.872978 56.395003 
L 348.59604 56.622463 
L 349.319101 55.582646 
L 350.042162 56.492486 
L 350.765224 56.005072 
L 351.488285 56.135049 
L 352.211346 56.459992 
L 352.934408 56.395003 
L 353.657469 55.777612 
L 355.103592 56.362509 
L 355.826653 55.875095 
L 356.549715 56.882418 
L 357.272776 57.662281 
L 357.995837 56.459992 
L 358.718899 56.622463 
L 359.44196 57.467315 
L 360.888083 55.355186 
L 361.611144 56.654958 
L 362.334205 56.005072 
L 363.057267 56.492486 
L 363.780328 57.467315 
L 364.503389 57.337338 
L 365.226451 56.135049 
L 365.949512 55.875095 
L 366.672573 56.459992 
L 367.395635 55.940083 
L 368.118696 56.687452 
L 368.841757 56.622463 
L 369.564819 56.784935 
L 370.28788 56.362509 
L 371.010941 56.330015 
L 371.734003 55.810106 
L 372.457064 56.200038 
L 373.180126 56.395003 
L 373.903187 55.420175 
L 374.626248 56.29752 
L 375.34931 56.687452 
L 376.072371 56.330015 
L 376.795432 57.142372 
L 377.518494 56.687452 
L 378.241555 55.940083 
L 378.964616 56.395003 
L 379.687678 56.492486 
L 380.410739 56.29752 
L 381.1338 55.38768 
L 381.856862 56.622463 
L 383.302984 55.192715 
L 384.026046 55.972578 
L 384.749107 57.012395 
L 385.472168 56.102555 
L 386.19523 56.882418 
L 386.918291 55.810106 
L 387.641353 56.395003 
L 388.364414 56.687452 
L 389.087475 56.330015 
L 389.810537 56.459992 
L 390.533598 56.784935 
L 391.256659 56.037566 
L 391.979721 56.037566 
L 392.702782 57.142372 
L 393.425843 56.395003 
L 394.148905 57.564798 
L 394.871966 56.849923 
L 395.595027 57.369832 
L 397.04115 55.485163 
L 397.764211 56.29752 
L 398.487273 55.582646 
L 398.487273 55.582646 
" clip-path="url(#p858c19db43)" style="fill: none; stroke: #ff7f0e; stroke-width: 1.5; stroke-linecap: square"/>
   </g>
   <g id="line2d_22">
    <path d="M 73.832727 223.313629 
L 74.555789 197.766461 
L 75.27885 209.441996 
L 76.001911 181.55293 
L 76.724973 189.295535 
L 77.448034 179.087845 
L 78.171095 152.072764 
L 79.617218 147.646817 
L 80.340279 133.864756 
L 81.063341 136.542734 
L 81.786402 131.063524 
L 82.509463 136.408274 
L 83.232525 132.632214 
L 83.955586 136.419479 
L 84.678647 134.839584 
L 85.401709 126.12215 
L 86.12477 127.489152 
L 86.847832 120.934269 
L 87.570893 116.934109 
L 88.293954 119.275939 
L 89.017016 120.844629 
L 90.463138 112.20563 
L 91.1862 111.578154 
L 91.909261 109.897415 
L 92.632322 109.449217 
L 93.355384 108.698487 
L 94.078445 108.642463 
L 94.801506 108.22788 
L 95.524568 134.581871 
L 96.247629 136.990931 
L 96.97069 136.060922 
L 98.416813 119.522448 
L 99.139874 119.746546 
L 99.862936 136.934906 
L 100.585997 118.065807 
L 102.03212 117.359897 
L 102.755181 120.441252 
L 103.478243 121.068728 
L 104.201304 116.138559 
L 104.924365 115.006862 
L 105.647427 110.748989 
L 106.370488 115.107706 
L 107.093549 121.48331 
L 107.816611 116.900495 
L 108.539672 113.595041 
L 109.262733 114.177697 
L 109.985795 110.177538 
L 110.708856 108.127036 
L 111.431917 107.264256 
L 112.154979 114.726739 
L 112.87804 110.648145 
L 113.601101 118.536414 
L 114.324163 111.129957 
L 115.047224 110.52489 
L 115.770285 105.807616 
L 116.493347 109.897415 
L 117.216408 106.995338 
L 117.93947 102.827105 
L 118.662531 105.213755 
L 119.385592 104.664713 
L 120.831715 98.345134 
L 121.554776 98.188265 
L 122.277838 100.025873 
L 123.000899 101.392874 
L 123.72396 97.706453 
L 124.447022 97.247051 
L 125.170083 98.165855 
L 125.893144 97.471149 
L 126.616206 95.868845 
L 127.339267 97.896937 
L 128.062328 99.073454 
L 128.78539 94.109671 
L 129.508451 96.866083 
L 130.231512 94.132081 
L 130.954574 95.566311 
L 131.677635 92.395317 
L 132.400696 94.020031 
L 133.123758 93.269301 
L 133.846819 95.286188 
L 134.569881 94.053646 
L 135.292942 92.597006 
L 136.016003 91.420488 
L 136.739065 92.921948 
L 137.462126 91.87989 
L 138.185187 91.868685 
L 138.908249 116.273019 
L 140.354371 125.360215 
L 141.077433 110.222357 
L 141.800494 106.804854 
L 142.523555 114.121672 
L 143.246617 115.667952 
L 143.969678 114.200107 
L 144.692739 108.407159 
L 145.415801 119.488833 
L 146.138862 120.295588 
L 146.861923 109.269939 
L 147.584985 110.670555 
L 148.308046 111.746228 
L 149.031108 114.838788 
L 149.754169 102.88313 
L 150.47723 107.768478 
L 151.200292 103.981212 
L 151.923353 117.371102 
L 152.646414 108.037396 
L 153.369476 108.485594 
L 154.092537 108.698487 
L 154.815598 106.143764 
L 155.53866 110.63694 
L 156.261721 100.093102 
L 156.984782 108.127036 
L 157.707844 104.42941 
L 158.430905 103.465786 
L 159.153966 104.586279 
L 159.877028 113.70709 
L 161.32315 102.412523 
L 162.046212 106.72642 
L 162.769273 98.90538 
L 163.492334 103.185663 
L 164.215396 102.681441 
L 164.938457 107.275461 
L 165.661519 106.6816 
L 167.107641 97.661633 
L 167.830703 101.415284 
L 168.553764 103.801934 
L 169.276825 101.930711 
L 169.999887 97.807297 
L 170.722948 103.208072 
L 171.446009 98.692486 
L 172.169071 100.160332 
L 172.892132 100.530095 
L 173.615193 101.303235 
L 175.061316 92.563391 
L 175.784377 102.961564 
L 176.507439 101.336849 
L 177.2305 94.882811 
L 177.953561 91.386873 
L 178.676623 99.297553 
L 179.399684 99.947438 
L 180.122745 97.751272 
L 180.845807 94.748352 
L 181.568868 92.350497 
L 182.29193 92.160013 
L 183.014991 98.367544 
L 183.738052 97.852117 
L 184.461114 94.042441 
L 185.184175 91.08434 
L 185.907236 94.020031 
L 186.630298 94.849196 
L 187.353359 94.1769 
L 188.07642 97.101387 
L 188.799482 92.103989 
L 189.522543 94.132081 
L 190.245604 91.633382 
L 190.968666 90.423249 
L 191.691727 95.465467 
L 192.414788 92.798694 
L 193.13785 93.538219 
L 193.860911 92.966768 
L 194.583972 88.697691 
L 195.307034 87.823706 
L 196.030095 88.563231 
L 196.753157 86.714418 
L 197.476218 90.882652 
L 198.199279 87.935755 
L 198.922341 89.986257 
L 199.645402 91.442898 
L 200.368463 87.476353 
L 201.091525 88.0366 
L 201.814586 87.745272 
L 202.537647 87.15141 
L 203.260709 87.94696 
L 203.98377 87.599608 
L 204.706831 87.700452 
L 205.429893 86.344656 
L 206.152954 87.722862 
L 206.876015 86.456705 
L 207.599077 86.37827 
L 208.322138 85.806819 
L 209.045199 85.022474 
L 209.768261 84.753556 
L 210.491322 85.818024 
L 211.214383 86.355861 
L 211.937445 83.745112 
L 212.660506 83.778727 
L 213.383568 83.37535 
L 214.106629 84.05885 
L 214.82969 83.229686 
L 215.552752 82.994382 
L 216.275813 82.960767 
L 216.998874 82.478955 
L 217.721936 82.915948 
L 218.444997 82.299677 
L 219.168058 84.215719 
L 220.614181 83.050407 
L 221.337242 83.184866 
L 222.060304 82.53498 
L 222.783365 82.310882 
L 223.506426 83.039202 
L 224.229488 83.565833 
L 224.952549 82.568595 
L 225.67561 116.934109 
L 226.398672 112.754671 
L 227.121733 112.474548 
L 227.844794 117.404716 
L 228.567856 101.079136 
L 229.290917 104.843992 
L 230.013979 105.11291 
L 230.73704 107.297871 
L 231.460101 103.118433 
L 232.183163 100.059488 
L 232.906224 101.538538 
L 233.629285 97.695248 
L 234.352347 94.557868 
L 235.075408 109.06825 
L 235.798469 100.630939 
L 236.521531 99.74575 
L 237.244592 102.905539 
L 237.967653 99.107069 
L 238.690715 96.036918 
L 239.413776 105.034476 
L 240.136837 106.278223 
L 240.859899 97.661633 
L 242.306021 101.325645 
L 243.029083 97.034157 
L 243.752144 102.334088 
L 244.475206 94.053646 
L 245.198267 109.471627 
L 245.921328 100.507685 
L 246.64439 107.734863 
L 247.367451 97.706453 
L 248.090512 101.729022 
L 248.813574 96.182583 
L 249.536635 95.073295 
L 250.259696 105.561107 
L 250.982758 102.83831 
L 251.705819 107.320281 
L 252.42888 95.521492 
L 253.151942 103.835548 
L 253.875003 107.902937 
L 254.598064 96.754034 
L 255.321126 102.143604 
L 256.044187 97.269461 
L 256.767248 100.720578 
L 257.49031 100.5413 
L 258.213371 101.471309 
L 258.936432 99.252733 
L 259.659494 99.981053 
L 260.382555 98.06501 
L 261.105617 108.754512 
L 261.828678 96.698009 
L 262.551739 100.933472 
L 263.274801 98.625257 
L 263.997862 98.502003 
L 264.720923 96.765239 
L 265.443985 98.658872 
L 266.167046 105.482673 
L 266.890107 98.737306 
L 267.613169 98.322724 
L 268.33623 97.661633 
L 269.059291 99.039839 
L 269.782353 101.157571 
L 270.505414 97.504764 
L 271.228475 94.781967 
L 272.674598 95.207754 
L 273.397659 99.028634 
L 274.120721 99.857799 
L 274.843782 95.409442 
L 275.566843 101.303235 
L 276.289905 97.33669 
L 277.012966 96.56355 
L 277.736028 97.628018 
L 278.459089 96.60837 
L 279.18215 93.504605 
L 279.905212 100.608529 
L 280.628273 96.933313 
L 281.351334 90.893856 
L 282.074396 98.053806 
L 282.797457 96.989337 
L 283.520518 93.616654 
L 284.24358 96.787649 
L 284.966641 93.527015 
L 285.689702 98.86056 
L 286.412764 101.549743 
L 287.135825 88.630461 
L 287.858886 98.143445 
L 288.581948 105.056886 
L 289.305009 102.322883 
L 290.02807 92.496161 
L 290.751132 99.790569 
L 291.474193 98.602847 
L 292.197255 90.692168 
L 292.920316 95.678361 
L 293.643377 92.272063 
L 294.366439 92.182423 
L 295.0895 91.891095 
L 295.812561 96.238607 
L 296.535623 93.829548 
L 297.258684 94.031236 
L 297.981745 90.938676 
L 298.704807 93.44858 
L 299.427868 98.681281 
L 300.150929 87.678042 
L 300.873991 89.336371 
L 301.597052 88.238289 
L 302.320113 88.518412 
L 303.043175 93.964007 
L 303.766236 89.045043 
L 304.489297 96.350656 
L 305.212359 93.302916 
L 305.93542 92.193628 
L 306.658481 90.580118 
L 307.381543 90.624938 
L 308.104604 91.364463 
L 309.550727 96.944518 
L 310.273788 89.672519 
L 310.99685 95.992099 
L 311.719911 87.364304 
L 312.442972 89.403601 
L 313.166034 90.983496 
L 313.889095 94.501843 
L 314.612156 91.823865 
L 315.335218 94.26654 
L 316.058279 90.557709 
L 317.504402 90.154331 
L 318.227463 91.10675 
L 318.950524 87.868526 
L 319.673586 93.661474 
L 320.396647 89.930233 
L 321.119708 88.451182 
L 321.84277 95.185344 
L 322.565831 91.073135 
L 323.288892 90.187946 
L 324.011954 90.35602 
L 324.735015 88.204674 
L 325.458077 89.863003 
L 326.181138 93.661474 
L 326.904199 87.543583 
L 327.627261 90.389635 
L 328.350322 94.681122 
L 329.073383 84.865605 
L 329.796445 87.890936 
L 330.519506 88.731305 
L 331.242567 86.311041 
L 331.965629 88.776125 
L 332.68869 88.092624 
L 333.411751 85.582721 
L 334.134813 87.364304 
L 334.857874 87.061771 
L 335.580935 88.025395 
L 336.303997 89.448421 
L 337.027058 88.428772 
L 337.750119 84.910425 
L 338.473181 88.171059 
L 339.196242 86.703213 
L 339.919304 87.364304 
L 340.642365 83.677883 
L 341.365426 87.532378 
L 342.088488 84.350178 
L 342.811549 84.585482 
L 343.53461 86.411885 
L 344.257672 82.658234 
L 344.980733 86.255016 
L 345.703794 84.114875 
L 346.426856 82.983177 
L 347.149917 83.162456 
L 347.872978 84.94404 
L 348.59604 87.532378 
L 349.319101 81.201594 
L 350.042162 83.050407 
L 350.765224 83.184866 
L 351.488285 83.621858 
L 352.211346 82.523775 
L 352.934408 82.658234 
L 353.657469 82.949562 
L 354.38053 82.55739 
L 355.103592 87.913346 
L 355.826653 84.114875 
L 356.549715 86.411885 
L 357.272776 86.523935 
L 357.995837 85.123318 
L 358.718899 85.952483 
L 359.44196 84.327769 
L 360.165021 79.733748 
L 360.888083 80.125921 
L 361.611144 81.425692 
L 362.334205 83.991621 
L 363.057267 81.997144 
L 363.780328 83.689088 
L 364.503389 87.476353 
L 365.949512 80.327609 
L 366.672573 88.574436 
L 367.395635 84.753556 
L 368.118696 86.255016 
L 368.841757 84.518252 
L 369.564819 84.002826 
L 370.28788 80.910266 
L 371.010941 90.33361 
L 371.734003 86.086942 
L 372.457064 83.935596 
L 373.180126 85.414647 
L 373.903187 82.142808 
L 374.626248 82.210037 
L 375.34931 82.680644 
L 376.072371 84.439818 
L 376.795432 87.565993 
L 377.518494 83.666678 
L 378.241555 85.582721 
L 378.964616 84.607892 
L 379.687678 82.53498 
L 380.410739 83.857162 
L 381.1338 84.350178 
L 381.856862 88.652871 
L 382.579923 82.893538 
L 383.302984 83.072817 
L 384.026046 85.414647 
L 384.749107 84.204514 
L 385.472168 86.4455 
L 386.19523 85.64995 
L 386.918291 81.963529 
L 387.641353 83.845957 
L 388.364414 84.495843 
L 389.087475 84.327769 
L 389.810537 82.232447 
L 390.533598 88.171059 
L 391.256659 84.08126 
L 391.979721 81.05593 
L 392.702782 82.893538 
L 393.425843 87.711657 
L 394.148905 85.179343 
L 394.871966 91.330849 
L 395.595027 87.678042 
L 396.318089 86.221401 
L 397.04115 85.313802 
L 397.764211 86.198992 
L 398.487273 83.577038 
L 398.487273 83.577038 
" clip-path="url(#p858c19db43)" style="fill: none; stroke: #2ca02c; stroke-width: 1.5; stroke-linecap: square"/>
   </g>
   <g id="line2d_23">
    <path d="M 350.765224 55.8426 
L 351.488285 55.61514 
L 352.211346 55.550152 
L 352.934408 55.030243 
L 353.657469 55.225209 
L 354.38053 54.997749 
L 355.103592 54.965255 
L 356.549715 54.47784 
L 357.272776 54.47784 
L 357.995837 54.900266 
L 358.718899 54.510334 
L 359.44196 54.380357 
L 360.165021 55.030243 
L 360.888083 54.445346 
L 361.611144 54.900266 
L 362.334205 54.217886 
L 363.057267 54.315369 
L 363.780328 54.282874 
L 364.503389 54.087909 
L 365.949512 54.672806 
L 366.672573 54.47784 
L 367.395635 55.127726 
L 368.118696 54.770289 
L 368.841757 54.087909 
L 369.564819 54.510334 
L 370.28788 55.127726 
L 371.010941 54.575323 
L 371.734003 54.217886 
L 372.457064 54.672806 
L 373.180126 54.672806 
L 373.903187 53.957931 
L 374.626248 53.568 
L 375.34931 54.282874 
L 376.072371 54.217886 
L 376.795432 54.770289 
L 377.518494 54.47784 
L 378.241555 54.900266 
L 378.964616 54.542829 
L 379.687678 53.957931 
L 381.1338 54.607817 
L 381.856862 54.575323 
L 383.302984 54.120403 
L 384.026046 54.770289 
L 384.749107 53.990426 
L 385.472168 54.575323 
L 386.19523 54.412852 
L 386.918291 54.575323 
L 387.641353 55.030243 
L 388.364414 54.997749 
L 389.810537 55.225209 
L 390.533598 54.672806 
L 391.256659 54.867772 
L 391.979721 55.225209 
L 392.702782 54.672806 
L 393.425843 54.380357 
L 394.871966 55.225209 
L 395.595027 54.542829 
L 397.04115 55.38768 
L 397.764211 55.517657 
L 398.487273 55.452669 
L 398.487273 55.452669 
" clip-path="url(#p858c19db43)" style="fill: none; stroke: #d62728; stroke-width: 1.5; stroke-linecap: square"/>
   </g>
   <g id="line2d_24">
    <path d="M 350.765224 81.885094 
L 352.211346 81.201594 
L 352.934408 78.758919 
L 353.657469 79.128682 
L 354.38053 79.946642 
L 355.103592 79.744953 
L 355.826653 79.184707 
L 356.549715 80.305199 
L 357.272776 80.92147 
L 357.995837 80.484478 
L 358.718899 81.425692 
L 359.44196 78.355542 
L 360.165021 80.19315 
L 360.888083 79.016633 
L 361.611144 79.800978 
L 362.334205 77.414328 
L 363.057267 76.551549 
L 363.780328 77.492762 
L 364.503389 79.44242 
L 365.226451 80.697372 
L 366.672573 77.190229 
L 367.395635 79.543264 
L 368.118696 77.683246 
L 368.841757 77.694451 
L 369.564819 77.03336 
L 370.28788 79.857002 
L 371.010941 78.7141 
L 371.734003 76.674803 
L 372.457064 75.688769 
L 373.180126 79.027838 
L 373.903187 79.117477 
L 374.626248 77.16782 
L 375.34931 77.593607 
L 376.072371 78.62446 
L 376.795432 79.039043 
L 377.518494 78.053009 
L 378.241555 80.899061 
L 378.964616 78.030599 
L 379.687678 76.293835 
L 380.410739 74.153694 
L 381.1338 78.859764 
L 381.856862 77.761681 
L 382.579923 77.257459 
L 383.302984 77.907345 
L 384.026046 82.725464 
L 384.749107 78.299517 
L 385.472168 78.265903 
L 386.19523 81.05593 
L 386.918291 76.26022 
L 387.641353 78.747714 
L 388.364414 80.406044 
L 389.087475 81.123159 
L 389.810537 80.730987 
L 390.533598 79.991461 
L 391.256659 81.123159 
L 391.979721 80.23797 
L 392.702782 79.128682 
L 393.425843 76.775647 
L 394.148905 76.573958 
L 394.871966 80.271585 
L 395.595027 78.64687 
L 396.318089 78.568436 
L 397.04115 80.23797 
L 397.764211 81.336053 
L 398.487273 80.26038 
L 398.487273 80.26038 
" clip-path="url(#p858c19db43)" style="fill: none; stroke: #9467bd; stroke-width: 1.5; stroke-linecap: square"/>
   </g>
   <g id="patch_3">
    <path d="M 57.6 307.584 
L 57.6 41.472 
" style="fill: none; stroke: #000000; stroke-width: 0.8; stroke-linejoin: miter; stroke-linecap: square"/>
   </g>
   <g id="patch_4">
    <path d="M 414.72 307.584 
L 414.72 41.472 
" style="fill: none; stroke: #000000; stroke-width: 0.8; stroke-linejoin: miter; stroke-linecap: square"/>
   </g>
   <g id="patch_5">
    <path d="M 57.6 307.584 
L 414.72 307.584 
" style="fill: none; stroke: #000000; stroke-width: 0.8; stroke-linejoin: miter; stroke-linecap: square"/>
   </g>
   <g id="patch_6">
    <path d="M 57.6 41.472 
L 414.72 41.472 
" style="fill: none; stroke: #000000; stroke-width: 0.8; stroke-linejoin: miter; stroke-linecap: square"/>
   </g>
   <g id="text_22">
    <!-- Learning Curves -->
    <g transform="translate(187.37625 35.472) scale(0.12 -0.12)">
     <defs>
      <path id="DejaVuSans-4c" d="M 628 4666 
L 1259 4666 
L 1259 531 
L 3531 531 
L 3531 0 
L 628 0 
L 628 4666 
z
" transform="scale(0.015625)"/>
      <path id="DejaVuSans-65" d="M 3597 1894 
L 3597 1613 
L 953 1613 
Q 991 1019 1311 708 
Q 1631 397 2203 397 
Q 2534 397 2845 478 
Q 3156 559 3463 722 
L 3463 178 
Q 3153 47 2828 -22 
Q 2503 -91 2169 -91 
Q 1331 -91 842 396 
Q 353 884 353 1716 
Q 353 2575 817 3079 
Q 1281 3584 2069 3584 
Q 2775 3584 3186 3129 
Q 3597 2675 3597 1894 
z
M 3022 2063 
Q 3016 2534 2758 2815 
Q 2500 3097 2075 3097 
Q 1594 3097 1305 2825 
Q 1016 2553 972 2059 
L 3022 2063 
z
" transform="scale(0.015625)"/>
      <path id="DejaVuSans-6e" d="M 3513 2113 
L 3513 0 
L 2938 0 
L 2938 2094 
Q 2938 2591 2744 2837 
Q 2550 3084 2163 3084 
Q 1697 3084 1428 2787 
Q 1159 2491 1159 1978 
L 1159 0 
L 581 0 
L 581 3500 
L 1159 3500 
L 1159 2956 
Q 1366 3272 1645 3428 
Q 1925 3584 2291 3584 
Q 2894 3584 3203 3211 
Q 3513 2838 3513 2113 
z
" transform="scale(0.015625)"/>
      <path id="DejaVuSans-69" d="M 603 3500 
L 1178 3500 
L 1178 0 
L 603 0 
L 603 3500 
z
M 603 4863 
L 1178 4863 
L 1178 4134 
L 603 4134 
L 603 4863 
z
" transform="scale(0.015625)"/>
      <path id="DejaVuSans-67" d="M 2906 1791 
Q 2906 2416 2648 2759 
Q 2391 3103 1925 3103 
Q 1463 3103 1205 2759 
Q 947 2416 947 1791 
Q 947 1169 1205 825 
Q 1463 481 1925 481 
Q 2391 481 2648 825 
Q 2906 1169 2906 1791 
z
M 3481 434 
Q 3481 -459 3084 -895 
Q 2688 -1331 1869 -1331 
Q 1566 -1331 1297 -1286 
Q 1028 -1241 775 -1147 
L 775 -588 
Q 1028 -725 1275 -790 
Q 1522 -856 1778 -856 
Q 2344 -856 2625 -561 
Q 2906 -266 2906 331 
L 2906 616 
Q 2728 306 2450 153 
Q 2172 0 1784 0 
Q 1141 0 747 490 
Q 353 981 353 1791 
Q 353 2603 747 3093 
Q 1141 3584 1784 3584 
Q 2172 3584 2450 3431 
Q 2728 3278 2906 2969 
L 2906 3500 
L 3481 3500 
L 3481 434 
z
" transform="scale(0.015625)"/>
      <path id="DejaVuSans-20" transform="scale(0.015625)"/>
      <path id="DejaVuSans-43" d="M 4122 4306 
L 4122 3641 
Q 3803 3938 3442 4084 
Q 3081 4231 2675 4231 
Q 1875 4231 1450 3742 
Q 1025 3253 1025 2328 
Q 1025 1406 1450 917 
Q 1875 428 2675 428 
Q 3081 428 3442 575 
Q 3803 722 4122 1019 
L 4122 359 
Q 3791 134 3420 21 
Q 3050 -91 2638 -91 
Q 1578 -91 968 557 
Q 359 1206 359 2328 
Q 359 3453 968 4101 
Q 1578 4750 2638 4750 
Q 3056 4750 3426 4639 
Q 3797 4528 4122 4306 
z
" transform="scale(0.015625)"/>
      <path id="DejaVuSans-76" d="M 191 3500 
L 800 3500 
L 1894 563 
L 2988 3500 
L 3597 3500 
L 2284 0 
L 1503 0 
L 191 3500 
z
" transform="scale(0.015625)"/>
     </defs>
     <use xlink:href="#DejaVuSans-4c"/>
     <use xlink:href="#DejaVuSans-65" x="53.962891"/>
     <use xlink:href="#DejaVuSans-61" x="115.486328"/>
     <use xlink:href="#DejaVuSans-72" x="176.765625"/>
     <use xlink:href="#DejaVuSans-6e" x="216.128906"/>
     <use xlink:href="#DejaVuSans-69" x="279.507812"/>
     <use xlink:href="#DejaVuSans-6e" x="307.291016"/>
     <use xlink:href="#DejaVuSans-67" x="370.669922"/>
     <use xlink:href="#DejaVuSans-20" x="434.146484"/>
     <use xlink:href="#DejaVuSans-43" x="465.933594"/>
     <use xlink:href="#DejaVuSans-75" x="535.757812"/>
     <use xlink:href="#DejaVuSans-72" x="599.136719"/>
     <use xlink:href="#DejaVuSans-76" x="640.25"/>
     <use xlink:href="#DejaVuSans-65" x="699.429688"/>
     <use xlink:href="#DejaVuSans-73" x="760.953125"/>
    </g>
   </g>
   <g id="legend_1">
    <g id="patch_7">
     <path d="M 214.18875 302.584 
L 407.72 302.584 
Q 409.72 302.584 409.72 300.584 
L 409.72 228.193375 
Q 409.72 226.193375 407.72 226.193375 
L 214.18875 226.193375 
Q 212.18875 226.193375 212.18875 228.193375 
L 212.18875 300.584 
Q 212.18875 302.584 214.18875 302.584 
z
" style="fill: #ffffff; opacity: 0.8; stroke: #cccccc; stroke-linejoin: miter"/>
    </g>
    <g id="line2d_25">
     <path d="M 216.18875 234.291812 
L 226.18875 234.291812 
L 236.18875 234.291812 
" style="fill: none; stroke: #1f77b4; stroke-width: 1.5; stroke-linecap: square"/>
    </g>
    <g id="text_23">
     <!-- Train Accuracy -->
     <g transform="translate(244.18875 237.791812) scale(0.1 -0.1)">
      <defs>
       <path id="DejaVuSans-54" d="M -19 4666 
L 3928 4666 
L 3928 4134 
L 2272 4134 
L 2272 0 
L 1638 0 
L 1638 4134 
L -19 4134 
L -19 4666 
z
" transform="scale(0.015625)"/>
      </defs>
      <use xlink:href="#DejaVuSans-54"/>
      <use xlink:href="#DejaVuSans-72" x="46.333984"/>
      <use xlink:href="#DejaVuSans-61" x="87.447266"/>
      <use xlink:href="#DejaVuSans-69" x="148.726562"/>
      <use xlink:href="#DejaVuSans-6e" x="176.509766"/>
      <use xlink:href="#DejaVuSans-20" x="239.888672"/>
      <use xlink:href="#DejaVuSans-41" x="271.675781"/>
      <use xlink:href="#DejaVuSans-63" x="338.333984"/>
      <use xlink:href="#DejaVuSans-63" x="393.314453"/>
      <use xlink:href="#DejaVuSans-75" x="448.294922"/>
      <use xlink:href="#DejaVuSans-72" x="511.673828"/>
      <use xlink:href="#DejaVuSans-61" x="552.787109"/>
      <use xlink:href="#DejaVuSans-63" x="614.066406"/>
      <use xlink:href="#DejaVuSans-79" x="669.046875"/>
     </g>
    </g>
    <g id="line2d_26">
     <path d="M 216.18875 248.969937 
L 226.18875 248.969937 
L 236.18875 248.969937 
" style="fill: none; stroke: #ff7f0e; stroke-width: 1.5; stroke-linecap: square"/>
    </g>
    <g id="text_24">
     <!-- Validation Accuracy -->
     <g transform="translate(244.18875 252.469937) scale(0.1 -0.1)">
      <defs>
       <path id="DejaVuSans-56" d="M 1831 0 
L 50 4666 
L 709 4666 
L 2188 738 
L 3669 4666 
L 4325 4666 
L 2547 0 
L 1831 0 
z
" transform="scale(0.015625)"/>
       <path id="DejaVuSans-6c" d="M 603 4863 
L 1178 4863 
L 1178 0 
L 603 0 
L 603 4863 
z
" transform="scale(0.015625)"/>
       <path id="DejaVuSans-64" d="M 2906 2969 
L 2906 4863 
L 3481 4863 
L 3481 0 
L 2906 0 
L 2906 525 
Q 2725 213 2448 61 
Q 2172 -91 1784 -91 
Q 1150 -91 751 415 
Q 353 922 353 1747 
Q 353 2572 751 3078 
Q 1150 3584 1784 3584 
Q 2172 3584 2448 3432 
Q 2725 3281 2906 2969 
z
M 947 1747 
Q 947 1113 1208 752 
Q 1469 391 1925 391 
Q 2381 391 2643 752 
Q 2906 1113 2906 1747 
Q 2906 2381 2643 2742 
Q 2381 3103 1925 3103 
Q 1469 3103 1208 2742 
Q 947 2381 947 1747 
z
" transform="scale(0.015625)"/>
       <path id="DejaVuSans-74" d="M 1172 4494 
L 1172 3500 
L 2356 3500 
L 2356 3053 
L 1172 3053 
L 1172 1153 
Q 1172 725 1289 603 
Q 1406 481 1766 481 
L 2356 481 
L 2356 0 
L 1766 0 
Q 1100 0 847 248 
Q 594 497 594 1153 
L 594 3053 
L 172 3053 
L 172 3500 
L 594 3500 
L 594 4494 
L 1172 4494 
z
" transform="scale(0.015625)"/>
      </defs>
      <use xlink:href="#DejaVuSans-56"/>
      <use xlink:href="#DejaVuSans-61" x="60.658203"/>
      <use xlink:href="#DejaVuSans-6c" x="121.9375"/>
      <use xlink:href="#DejaVuSans-69" x="149.720703"/>
      <use xlink:href="#DejaVuSans-64" x="177.503906"/>
      <use xlink:href="#DejaVuSans-61" x="240.980469"/>
      <use xlink:href="#DejaVuSans-74" x="302.259766"/>
      <use xlink:href="#DejaVuSans-69" x="341.46875"/>
      <use xlink:href="#DejaVuSans-6f" x="369.251953"/>
      <use xlink:href="#DejaVuSans-6e" x="430.433594"/>
      <use xlink:href="#DejaVuSans-20" x="493.8125"/>
      <use xlink:href="#DejaVuSans-41" x="525.599609"/>
      <use xlink:href="#DejaVuSans-63" x="592.257812"/>
      <use xlink:href="#DejaVuSans-63" x="647.238281"/>
      <use xlink:href="#DejaVuSans-75" x="702.21875"/>
      <use xlink:href="#DejaVuSans-72" x="765.597656"/>
      <use xlink:href="#DejaVuSans-61" x="806.710938"/>
      <use xlink:href="#DejaVuSans-63" x="867.990234"/>
      <use xlink:href="#DejaVuSans-79" x="922.970703"/>
     </g>
    </g>
    <g id="line2d_27">
     <path d="M 216.18875 263.648062 
L 226.18875 263.648062 
L 236.18875 263.648062 
" style="fill: none; stroke: #2ca02c; stroke-width: 1.5; stroke-linecap: square"/>
    </g>
    <g id="text_25">
     <!-- Robust Validation Accuracy -->
     <g transform="translate(244.18875 267.148062) scale(0.1 -0.1)">
      <defs>
       <path id="DejaVuSans-52" d="M 2841 2188 
Q 3044 2119 3236 1894 
Q 3428 1669 3622 1275 
L 4263 0 
L 3584 0 
L 2988 1197 
Q 2756 1666 2539 1819 
Q 2322 1972 1947 1972 
L 1259 1972 
L 1259 0 
L 628 0 
L 628 4666 
L 2053 4666 
Q 2853 4666 3247 4331 
Q 3641 3997 3641 3322 
Q 3641 2881 3436 2590 
Q 3231 2300 2841 2188 
z
M 1259 4147 
L 1259 2491 
L 2053 2491 
Q 2509 2491 2742 2702 
Q 2975 2913 2975 3322 
Q 2975 3731 2742 3939 
Q 2509 4147 2053 4147 
L 1259 4147 
z
" transform="scale(0.015625)"/>
       <path id="DejaVuSans-62" d="M 3116 1747 
Q 3116 2381 2855 2742 
Q 2594 3103 2138 3103 
Q 1681 3103 1420 2742 
Q 1159 2381 1159 1747 
Q 1159 1113 1420 752 
Q 1681 391 2138 391 
Q 2594 391 2855 752 
Q 3116 1113 3116 1747 
z
M 1159 2969 
Q 1341 3281 1617 3432 
Q 1894 3584 2278 3584 
Q 2916 3584 3314 3078 
Q 3713 2572 3713 1747 
Q 3713 922 3314 415 
Q 2916 -91 2278 -91 
Q 1894 -91 1617 61 
Q 1341 213 1159 525 
L 1159 0 
L 581 0 
L 581 4863 
L 1159 4863 
L 1159 2969 
z
" transform="scale(0.015625)"/>
      </defs>
      <use xlink:href="#DejaVuSans-52"/>
      <use xlink:href="#DejaVuSans-6f" x="64.982422"/>
      <use xlink:href="#DejaVuSans-62" x="126.164062"/>
      <use xlink:href="#DejaVuSans-75" x="189.640625"/>
      <use xlink:href="#DejaVuSans-73" x="253.019531"/>
      <use xlink:href="#DejaVuSans-74" x="305.119141"/>
      <use xlink:href="#DejaVuSans-20" x="344.328125"/>
      <use xlink:href="#DejaVuSans-56" x="376.115234"/>
      <use xlink:href="#DejaVuSans-61" x="436.773438"/>
      <use xlink:href="#DejaVuSans-6c" x="498.052734"/>
      <use xlink:href="#DejaVuSans-69" x="525.835938"/>
      <use xlink:href="#DejaVuSans-64" x="553.619141"/>
      <use xlink:href="#DejaVuSans-61" x="617.095703"/>
      <use xlink:href="#DejaVuSans-74" x="678.375"/>
      <use xlink:href="#DejaVuSans-69" x="717.583984"/>
      <use xlink:href="#DejaVuSans-6f" x="745.367188"/>
      <use xlink:href="#DejaVuSans-6e" x="806.548828"/>
      <use xlink:href="#DejaVuSans-20" x="869.927734"/>
      <use xlink:href="#DejaVuSans-41" x="901.714844"/>
      <use xlink:href="#DejaVuSans-63" x="968.373047"/>
      <use xlink:href="#DejaVuSans-63" x="1023.353516"/>
      <use xlink:href="#DejaVuSans-75" x="1078.333984"/>
      <use xlink:href="#DejaVuSans-72" x="1141.712891"/>
      <use xlink:href="#DejaVuSans-61" x="1182.826172"/>
      <use xlink:href="#DejaVuSans-63" x="1244.105469"/>
      <use xlink:href="#DejaVuSans-79" x="1299.085938"/>
     </g>
    </g>
    <g id="line2d_28">
     <path d="M 216.18875 278.326188 
L 226.18875 278.326188 
L 236.18875 278.326188 
" style="fill: none; stroke: #d62728; stroke-width: 1.5; stroke-linecap: square"/>
    </g>
    <g id="text_26">
     <!-- SWA Validation Accuracy -->
     <g transform="translate(244.18875 281.826188) scale(0.1 -0.1)">
      <defs>
       <path id="DejaVuSans-53" d="M 3425 4513 
L 3425 3897 
Q 3066 4069 2747 4153 
Q 2428 4238 2131 4238 
Q 1616 4238 1336 4038 
Q 1056 3838 1056 3469 
Q 1056 3159 1242 3001 
Q 1428 2844 1947 2747 
L 2328 2669 
Q 3034 2534 3370 2195 
Q 3706 1856 3706 1288 
Q 3706 609 3251 259 
Q 2797 -91 1919 -91 
Q 1588 -91 1214 -16 
Q 841 59 441 206 
L 441 856 
Q 825 641 1194 531 
Q 1563 422 1919 422 
Q 2459 422 2753 634 
Q 3047 847 3047 1241 
Q 3047 1584 2836 1778 
Q 2625 1972 2144 2069 
L 1759 2144 
Q 1053 2284 737 2584 
Q 422 2884 422 3419 
Q 422 4038 858 4394 
Q 1294 4750 2059 4750 
Q 2388 4750 2728 4690 
Q 3069 4631 3425 4513 
z
" transform="scale(0.015625)"/>
       <path id="DejaVuSans-57" d="M 213 4666 
L 850 4666 
L 1831 722 
L 2809 4666 
L 3519 4666 
L 4500 722 
L 5478 4666 
L 6119 4666 
L 4947 0 
L 4153 0 
L 3169 4050 
L 2175 0 
L 1381 0 
L 213 4666 
z
" transform="scale(0.015625)"/>
      </defs>
      <use xlink:href="#DejaVuSans-53"/>
      <use xlink:href="#DejaVuSans-57" x="63.476562"/>
      <use xlink:href="#DejaVuSans-41" x="156.853516"/>
      <use xlink:href="#DejaVuSans-20" x="225.261719"/>
      <use xlink:href="#DejaVuSans-56" x="257.048828"/>
      <use xlink:href="#DejaVuSans-61" x="317.707031"/>
      <use xlink:href="#DejaVuSans-6c" x="378.986328"/>
      <use xlink:href="#DejaVuSans-69" x="406.769531"/>
      <use xlink:href="#DejaVuSans-64" x="434.552734"/>
      <use xlink:href="#DejaVuSans-61" x="498.029297"/>
      <use xlink:href="#DejaVuSans-74" x="559.308594"/>
      <use xlink:href="#DejaVuSans-69" x="598.517578"/>
      <use xlink:href="#DejaVuSans-6f" x="626.300781"/>
      <use xlink:href="#DejaVuSans-6e" x="687.482422"/>
      <use xlink:href="#DejaVuSans-20" x="750.861328"/>
      <use xlink:href="#DejaVuSans-41" x="782.648438"/>
      <use xlink:href="#DejaVuSans-63" x="849.306641"/>
      <use xlink:href="#DejaVuSans-63" x="904.287109"/>
      <use xlink:href="#DejaVuSans-75" x="959.267578"/>
      <use xlink:href="#DejaVuSans-72" x="1022.646484"/>
      <use xlink:href="#DejaVuSans-61" x="1063.759766"/>
      <use xlink:href="#DejaVuSans-63" x="1125.039062"/>
      <use xlink:href="#DejaVuSans-79" x="1180.019531"/>
     </g>
    </g>
    <g id="line2d_29">
     <path d="M 216.18875 293.004312 
L 226.18875 293.004312 
L 236.18875 293.004312 
" style="fill: none; stroke: #9467bd; stroke-width: 1.5; stroke-linecap: square"/>
    </g>
    <g id="text_27">
     <!-- SWA Robust Validation Accuracy -->
     <g transform="translate(244.18875 296.504312) scale(0.1 -0.1)">
      <use xlink:href="#DejaVuSans-53"/>
      <use xlink:href="#DejaVuSans-57" x="63.476562"/>
      <use xlink:href="#DejaVuSans-41" x="156.853516"/>
      <use xlink:href="#DejaVuSans-20" x="225.261719"/>
      <use xlink:href="#DejaVuSans-52" x="257.048828"/>
      <use xlink:href="#DejaVuSans-6f" x="322.03125"/>
      <use xlink:href="#DejaVuSans-62" x="383.212891"/>
      <use xlink:href="#DejaVuSans-75" x="446.689453"/>
      <use xlink:href="#DejaVuSans-73" x="510.068359"/>
      <use xlink:href="#DejaVuSans-74" x="562.167969"/>
      <use xlink:href="#DejaVuSans-20" x="601.376953"/>
      <use xlink:href="#DejaVuSans-56" x="633.164062"/>
      <use xlink:href="#DejaVuSans-61" x="693.822266"/>
      <use xlink:href="#DejaVuSans-6c" x="755.101562"/>
      <use xlink:href="#DejaVuSans-69" x="782.884766"/>
      <use xlink:href="#DejaVuSans-64" x="810.667969"/>
      <use xlink:href="#DejaVuSans-61" x="874.144531"/>
      <use xlink:href="#DejaVuSans-74" x="935.423828"/>
      <use xlink:href="#DejaVuSans-69" x="974.632812"/>
      <use xlink:href="#DejaVuSans-6f" x="1002.416016"/>
      <use xlink:href="#DejaVuSans-6e" x="1063.597656"/>
      <use xlink:href="#DejaVuSans-20" x="1126.976562"/>
      <use xlink:href="#DejaVuSans-41" x="1158.763672"/>
      <use xlink:href="#DejaVuSans-63" x="1225.421875"/>
      <use xlink:href="#DejaVuSans-63" x="1280.402344"/>
      <use xlink:href="#DejaVuSans-75" x="1335.382812"/>
      <use xlink:href="#DejaVuSans-72" x="1398.761719"/>
      <use xlink:href="#DejaVuSans-61" x="1439.875"/>
      <use xlink:href="#DejaVuSans-63" x="1501.154297"/>
      <use xlink:href="#DejaVuSans-79" x="1556.134766"/>
     </g>
    </g>
   </g>
  </g>
 </g>
 <defs>
  <clipPath id="p858c19db43">
   <rect x="57.6" y="41.472" width="357.12" height="266.112"/>
  </clipPath>
 </defs>
</svg>
