<?xml version="1.0" encoding="utf-8" standalone="no"?>
<!DOCTYPE svg PUBLIC "-//W3C//DTD SVG 1.1//EN"
  "http://www.w3.org/Graphics/SVG/1.1/DTD/svg11.dtd">
<svg height="345.6pt" version="1.1" viewBox="0 0 460.8 345.6" width="460.8pt" xmlns="http://www.w3.org/2000/svg" xmlns:xlink="http://www.w3.org/1999/xlink">
 <metadata>
  <rdf:RDF xmlns:cc="http://creativecommons.org/ns#" xmlns:dc="http://purl.org/dc/elements/1.1/" xmlns:rdf="http://www.w3.org/1999/02/22-rdf-syntax-ns#">
   <cc:Work>
    <dc:type rdf:resource="http://purl.org/dc/dcmitype/StillImage"/>
    <dc:date>2024-01-15T19:57:28.002222</dc:date>
    <dc:format>image/svg+xml</dc:format>
    <dc:creator>
     <cc:Agent>
      <dc:title>Matplotlib v3.4.3, https://matplotlib.org/</dc:title>
     </cc:Agent>
    </dc:creator>
   </cc:Work>
  </rdf:RDF>
 </metadata>
 <defs>
  <style type="text/css">*{stroke-linecap:butt;stroke-linejoin:round;}</style>
 </defs>
 <g id="figure_1">
  <g id="patch_1">
   <path d="M 0 345.6 
L 460.8 345.6 
L 460.8 0 
L 0 0 
z
" style="fill:#ffffff;"/>
  </g>
  <g id="axes_1">
   <g id="patch_2">
    <path d="M 57.6 307.584 
L 414.72 307.584 
L 414.72 41.472 
L 57.6 41.472 
z
" style="fill:#ffffff;"/>
   </g>
   <g id="matplotlib.axis_1">
    <g id="xtick_1">
     <g id="line2d_1">
      <defs>
       <path d="M 0 0 
L 0 3.5 
" id="mb183ec7983" style="stroke:#000000;stroke-width:0.8;"/>
      </defs>
      <g>
       <use style="stroke:#000000;stroke-width:0.8;" x="73.832727" xlink:href="#mb183ec7983" y="307.584"/>
      </g>
     </g>
     <g id="text_1">
      <!-- 1 -->
      <g transform="translate(70.651477 322.182437)scale(0.1 -0.1)">
       <defs>
        <path d="M 794 531 
L 1825 531 
L 1825 4091 
L 703 3866 
L 703 4441 
L 1819 4666 
L 2450 4666 
L 2450 531 
L 3481 531 
L 3481 0 
L 794 0 
L 794 531 
z
" id="DejaVuSans-31" transform="scale(0.015625)"/>
       </defs>
       <use xlink:href="#DejaVuSans-31"/>
      </g>
     </g>
    </g>
    <g id="xtick_2">
     <g id="line2d_2">
      <g>
       <use style="stroke:#000000;stroke-width:0.8;" x="109.555234" xlink:href="#mb183ec7983" y="307.584"/>
      </g>
     </g>
     <g id="text_2">
      <!-- 35 -->
      <g transform="translate(103.192734 322.182437)scale(0.1 -0.1)">
       <defs>
        <path d="M 2597 2516 
Q 3050 2419 3304 2112 
Q 3559 1806 3559 1356 
Q 3559 666 3084 287 
Q 2609 -91 1734 -91 
Q 1441 -91 1130 -33 
Q 819 25 488 141 
L 488 750 
Q 750 597 1062 519 
Q 1375 441 1716 441 
Q 2309 441 2620 675 
Q 2931 909 2931 1356 
Q 2931 1769 2642 2001 
Q 2353 2234 1838 2234 
L 1294 2234 
L 1294 2753 
L 1863 2753 
Q 2328 2753 2575 2939 
Q 2822 3125 2822 3475 
Q 2822 3834 2567 4026 
Q 2313 4219 1838 4219 
Q 1578 4219 1281 4162 
Q 984 4106 628 3988 
L 628 4550 
Q 988 4650 1302 4700 
Q 1616 4750 1894 4750 
Q 2613 4750 3031 4423 
Q 3450 4097 3450 3541 
Q 3450 3153 3228 2886 
Q 3006 2619 2597 2516 
z
" id="DejaVuSans-33" transform="scale(0.015625)"/>
        <path d="M 691 4666 
L 3169 4666 
L 3169 4134 
L 1269 4134 
L 1269 2991 
Q 1406 3038 1543 3061 
Q 1681 3084 1819 3084 
Q 2600 3084 3056 2656 
Q 3513 2228 3513 1497 
Q 3513 744 3044 326 
Q 2575 -91 1722 -91 
Q 1428 -91 1123 -41 
Q 819 9 494 109 
L 494 744 
Q 775 591 1075 516 
Q 1375 441 1709 441 
Q 2250 441 2565 725 
Q 2881 1009 2881 1497 
Q 2881 1984 2565 2268 
Q 2250 2553 1709 2553 
Q 1456 2553 1204 2497 
Q 953 2441 691 2322 
L 691 4666 
z
" id="DejaVuSans-35" transform="scale(0.015625)"/>
       </defs>
       <use xlink:href="#DejaVuSans-33"/>
       <use x="63.623047" xlink:href="#DejaVuSans-35"/>
      </g>
     </g>
    </g>
    <g id="xtick_3">
     <g id="line2d_3">
      <g>
       <use style="stroke:#000000;stroke-width:0.8;" x="145.277741" xlink:href="#mb183ec7983" y="307.584"/>
      </g>
     </g>
     <g id="text_3">
      <!-- 69 -->
      <g transform="translate(138.915241 322.182437)scale(0.1 -0.1)">
       <defs>
        <path d="M 2113 2584 
Q 1688 2584 1439 2293 
Q 1191 2003 1191 1497 
Q 1191 994 1439 701 
Q 1688 409 2113 409 
Q 2538 409 2786 701 
Q 3034 994 3034 1497 
Q 3034 2003 2786 2293 
Q 2538 2584 2113 2584 
z
M 3366 4563 
L 3366 3988 
Q 3128 4100 2886 4159 
Q 2644 4219 2406 4219 
Q 1781 4219 1451 3797 
Q 1122 3375 1075 2522 
Q 1259 2794 1537 2939 
Q 1816 3084 2150 3084 
Q 2853 3084 3261 2657 
Q 3669 2231 3669 1497 
Q 3669 778 3244 343 
Q 2819 -91 2113 -91 
Q 1303 -91 875 529 
Q 447 1150 447 2328 
Q 447 3434 972 4092 
Q 1497 4750 2381 4750 
Q 2619 4750 2861 4703 
Q 3103 4656 3366 4563 
z
" id="DejaVuSans-36" transform="scale(0.015625)"/>
        <path d="M 703 97 
L 703 672 
Q 941 559 1184 500 
Q 1428 441 1663 441 
Q 2288 441 2617 861 
Q 2947 1281 2994 2138 
Q 2813 1869 2534 1725 
Q 2256 1581 1919 1581 
Q 1219 1581 811 2004 
Q 403 2428 403 3163 
Q 403 3881 828 4315 
Q 1253 4750 1959 4750 
Q 2769 4750 3195 4129 
Q 3622 3509 3622 2328 
Q 3622 1225 3098 567 
Q 2575 -91 1691 -91 
Q 1453 -91 1209 -44 
Q 966 3 703 97 
z
M 1959 2075 
Q 2384 2075 2632 2365 
Q 2881 2656 2881 3163 
Q 2881 3666 2632 3958 
Q 2384 4250 1959 4250 
Q 1534 4250 1286 3958 
Q 1038 3666 1038 3163 
Q 1038 2656 1286 2365 
Q 1534 2075 1959 2075 
z
" id="DejaVuSans-39" transform="scale(0.015625)"/>
       </defs>
       <use xlink:href="#DejaVuSans-36"/>
       <use x="63.623047" xlink:href="#DejaVuSans-39"/>
      </g>
     </g>
    </g>
    <g id="xtick_4">
     <g id="line2d_4">
      <g>
       <use style="stroke:#000000;stroke-width:0.8;" x="182.050909" xlink:href="#mb183ec7983" y="307.584"/>
      </g>
     </g>
     <g id="text_4">
      <!-- 104 -->
      <g transform="translate(172.507159 322.182437)scale(0.1 -0.1)">
       <defs>
        <path d="M 2034 4250 
Q 1547 4250 1301 3770 
Q 1056 3291 1056 2328 
Q 1056 1369 1301 889 
Q 1547 409 2034 409 
Q 2525 409 2770 889 
Q 3016 1369 3016 2328 
Q 3016 3291 2770 3770 
Q 2525 4250 2034 4250 
z
M 2034 4750 
Q 2819 4750 3233 4129 
Q 3647 3509 3647 2328 
Q 3647 1150 3233 529 
Q 2819 -91 2034 -91 
Q 1250 -91 836 529 
Q 422 1150 422 2328 
Q 422 3509 836 4129 
Q 1250 4750 2034 4750 
z
" id="DejaVuSans-30" transform="scale(0.015625)"/>
        <path d="M 2419 4116 
L 825 1625 
L 2419 1625 
L 2419 4116 
z
M 2253 4666 
L 3047 4666 
L 3047 1625 
L 3713 1625 
L 3713 1100 
L 3047 1100 
L 3047 0 
L 2419 0 
L 2419 1100 
L 313 1100 
L 313 1709 
L 2253 4666 
z
" id="DejaVuSans-34" transform="scale(0.015625)"/>
       </defs>
       <use xlink:href="#DejaVuSans-31"/>
       <use x="63.623047" xlink:href="#DejaVuSans-30"/>
       <use x="127.246094" xlink:href="#DejaVuSans-34"/>
      </g>
     </g>
    </g>
    <g id="xtick_5">
     <g id="line2d_5">
      <g>
       <use style="stroke:#000000;stroke-width:0.8;" x="217.773416" xlink:href="#mb183ec7983" y="307.584"/>
      </g>
     </g>
     <g id="text_5">
      <!-- 138 -->
      <g transform="translate(208.229666 322.182437)scale(0.1 -0.1)">
       <defs>
        <path d="M 2034 2216 
Q 1584 2216 1326 1975 
Q 1069 1734 1069 1313 
Q 1069 891 1326 650 
Q 1584 409 2034 409 
Q 2484 409 2743 651 
Q 3003 894 3003 1313 
Q 3003 1734 2745 1975 
Q 2488 2216 2034 2216 
z
M 1403 2484 
Q 997 2584 770 2862 
Q 544 3141 544 3541 
Q 544 4100 942 4425 
Q 1341 4750 2034 4750 
Q 2731 4750 3128 4425 
Q 3525 4100 3525 3541 
Q 3525 3141 3298 2862 
Q 3072 2584 2669 2484 
Q 3125 2378 3379 2068 
Q 3634 1759 3634 1313 
Q 3634 634 3220 271 
Q 2806 -91 2034 -91 
Q 1263 -91 848 271 
Q 434 634 434 1313 
Q 434 1759 690 2068 
Q 947 2378 1403 2484 
z
M 1172 3481 
Q 1172 3119 1398 2916 
Q 1625 2713 2034 2713 
Q 2441 2713 2670 2916 
Q 2900 3119 2900 3481 
Q 2900 3844 2670 4047 
Q 2441 4250 2034 4250 
Q 1625 4250 1398 4047 
Q 1172 3844 1172 3481 
z
" id="DejaVuSans-38" transform="scale(0.015625)"/>
       </defs>
       <use xlink:href="#DejaVuSans-31"/>
       <use x="63.623047" xlink:href="#DejaVuSans-33"/>
       <use x="127.246094" xlink:href="#DejaVuSans-38"/>
      </g>
     </g>
    </g>
    <g id="xtick_6">
     <g id="line2d_6">
      <g>
       <use style="stroke:#000000;stroke-width:0.8;" x="253.495922" xlink:href="#mb183ec7983" y="307.584"/>
      </g>
     </g>
     <g id="text_6">
      <!-- 172 -->
      <g transform="translate(243.952172 322.182437)scale(0.1 -0.1)">
       <defs>
        <path d="M 525 4666 
L 3525 4666 
L 3525 4397 
L 1831 0 
L 1172 0 
L 2766 4134 
L 525 4134 
L 525 4666 
z
" id="DejaVuSans-37" transform="scale(0.015625)"/>
        <path d="M 1228 531 
L 3431 531 
L 3431 0 
L 469 0 
L 469 531 
Q 828 903 1448 1529 
Q 2069 2156 2228 2338 
Q 2531 2678 2651 2914 
Q 2772 3150 2772 3378 
Q 2772 3750 2511 3984 
Q 2250 4219 1831 4219 
Q 1534 4219 1204 4116 
Q 875 4013 500 3803 
L 500 4441 
Q 881 4594 1212 4672 
Q 1544 4750 1819 4750 
Q 2544 4750 2975 4387 
Q 3406 4025 3406 3419 
Q 3406 3131 3298 2873 
Q 3191 2616 2906 2266 
Q 2828 2175 2409 1742 
Q 1991 1309 1228 531 
z
" id="DejaVuSans-32" transform="scale(0.015625)"/>
       </defs>
       <use xlink:href="#DejaVuSans-31"/>
       <use x="63.623047" xlink:href="#DejaVuSans-37"/>
       <use x="127.246094" xlink:href="#DejaVuSans-32"/>
      </g>
     </g>
    </g>
    <g id="xtick_7">
     <g id="line2d_7">
      <g>
       <use style="stroke:#000000;stroke-width:0.8;" x="290.269091" xlink:href="#mb183ec7983" y="307.584"/>
      </g>
     </g>
     <g id="text_7">
      <!-- 207 -->
      <g transform="translate(280.725341 322.182437)scale(0.1 -0.1)">
       <use xlink:href="#DejaVuSans-32"/>
       <use x="63.623047" xlink:href="#DejaVuSans-30"/>
       <use x="127.246094" xlink:href="#DejaVuSans-37"/>
      </g>
     </g>
    </g>
    <g id="xtick_8">
     <g id="line2d_8">
      <g>
       <use style="stroke:#000000;stroke-width:0.8;" x="325.991598" xlink:href="#mb183ec7983" y="307.584"/>
      </g>
     </g>
     <g id="text_8">
      <!-- 241 -->
      <g transform="translate(316.447848 322.182437)scale(0.1 -0.1)">
       <use xlink:href="#DejaVuSans-32"/>
       <use x="63.623047" xlink:href="#DejaVuSans-34"/>
       <use x="127.246094" xlink:href="#DejaVuSans-31"/>
      </g>
     </g>
    </g>
    <g id="xtick_9">
     <g id="line2d_9">
      <g>
       <use style="stroke:#000000;stroke-width:0.8;" x="361.714104" xlink:href="#mb183ec7983" y="307.584"/>
      </g>
     </g>
     <g id="text_9">
      <!-- 275 -->
      <g transform="translate(352.170354 322.182437)scale(0.1 -0.1)">
       <use xlink:href="#DejaVuSans-32"/>
       <use x="63.623047" xlink:href="#DejaVuSans-37"/>
       <use x="127.246094" xlink:href="#DejaVuSans-35"/>
      </g>
     </g>
    </g>
    <g id="xtick_10">
     <g id="line2d_10">
      <g>
       <use style="stroke:#000000;stroke-width:0.8;" x="398.487273" xlink:href="#mb183ec7983" y="307.584"/>
      </g>
     </g>
     <g id="text_10">
      <!-- 310 -->
      <g transform="translate(388.943523 322.182437)scale(0.1 -0.1)">
       <use xlink:href="#DejaVuSans-33"/>
       <use x="63.623047" xlink:href="#DejaVuSans-31"/>
       <use x="127.246094" xlink:href="#DejaVuSans-30"/>
      </g>
     </g>
    </g>
    <g id="text_11">
     <!-- Epochs -->
     <g transform="translate(218.244375 335.860562)scale(0.1 -0.1)">
      <defs>
       <path d="M 628 4666 
L 3578 4666 
L 3578 4134 
L 1259 4134 
L 1259 2753 
L 3481 2753 
L 3481 2222 
L 1259 2222 
L 1259 531 
L 3634 531 
L 3634 0 
L 628 0 
L 628 4666 
z
" id="DejaVuSans-45" transform="scale(0.015625)"/>
       <path d="M 1159 525 
L 1159 -1331 
L 581 -1331 
L 581 3500 
L 1159 3500 
L 1159 2969 
Q 1341 3281 1617 3432 
Q 1894 3584 2278 3584 
Q 2916 3584 3314 3078 
Q 3713 2572 3713 1747 
Q 3713 922 3314 415 
Q 2916 -91 2278 -91 
Q 1894 -91 1617 61 
Q 1341 213 1159 525 
z
M 3116 1747 
Q 3116 2381 2855 2742 
Q 2594 3103 2138 3103 
Q 1681 3103 1420 2742 
Q 1159 2381 1159 1747 
Q 1159 1113 1420 752 
Q 1681 391 2138 391 
Q 2594 391 2855 752 
Q 3116 1113 3116 1747 
z
" id="DejaVuSans-70" transform="scale(0.015625)"/>
       <path d="M 1959 3097 
Q 1497 3097 1228 2736 
Q 959 2375 959 1747 
Q 959 1119 1226 758 
Q 1494 397 1959 397 
Q 2419 397 2687 759 
Q 2956 1122 2956 1747 
Q 2956 2369 2687 2733 
Q 2419 3097 1959 3097 
z
M 1959 3584 
Q 2709 3584 3137 3096 
Q 3566 2609 3566 1747 
Q 3566 888 3137 398 
Q 2709 -91 1959 -91 
Q 1206 -91 779 398 
Q 353 888 353 1747 
Q 353 2609 779 3096 
Q 1206 3584 1959 3584 
z
" id="DejaVuSans-6f" transform="scale(0.015625)"/>
       <path d="M 3122 3366 
L 3122 2828 
Q 2878 2963 2633 3030 
Q 2388 3097 2138 3097 
Q 1578 3097 1268 2742 
Q 959 2388 959 1747 
Q 959 1106 1268 751 
Q 1578 397 2138 397 
Q 2388 397 2633 464 
Q 2878 531 3122 666 
L 3122 134 
Q 2881 22 2623 -34 
Q 2366 -91 2075 -91 
Q 1284 -91 818 406 
Q 353 903 353 1747 
Q 353 2603 823 3093 
Q 1294 3584 2113 3584 
Q 2378 3584 2631 3529 
Q 2884 3475 3122 3366 
z
" id="DejaVuSans-63" transform="scale(0.015625)"/>
       <path d="M 3513 2113 
L 3513 0 
L 2938 0 
L 2938 2094 
Q 2938 2591 2744 2837 
Q 2550 3084 2163 3084 
Q 1697 3084 1428 2787 
Q 1159 2491 1159 1978 
L 1159 0 
L 581 0 
L 581 4863 
L 1159 4863 
L 1159 2956 
Q 1366 3272 1645 3428 
Q 1925 3584 2291 3584 
Q 2894 3584 3203 3211 
Q 3513 2838 3513 2113 
z
" id="DejaVuSans-68" transform="scale(0.015625)"/>
       <path d="M 2834 3397 
L 2834 2853 
Q 2591 2978 2328 3040 
Q 2066 3103 1784 3103 
Q 1356 3103 1142 2972 
Q 928 2841 928 2578 
Q 928 2378 1081 2264 
Q 1234 2150 1697 2047 
L 1894 2003 
Q 2506 1872 2764 1633 
Q 3022 1394 3022 966 
Q 3022 478 2636 193 
Q 2250 -91 1575 -91 
Q 1294 -91 989 -36 
Q 684 19 347 128 
L 347 722 
Q 666 556 975 473 
Q 1284 391 1588 391 
Q 1994 391 2212 530 
Q 2431 669 2431 922 
Q 2431 1156 2273 1281 
Q 2116 1406 1581 1522 
L 1381 1569 
Q 847 1681 609 1914 
Q 372 2147 372 2553 
Q 372 3047 722 3315 
Q 1072 3584 1716 3584 
Q 2034 3584 2315 3537 
Q 2597 3491 2834 3397 
z
" id="DejaVuSans-73" transform="scale(0.015625)"/>
      </defs>
      <use xlink:href="#DejaVuSans-45"/>
      <use x="63.183594" xlink:href="#DejaVuSans-70"/>
      <use x="126.660156" xlink:href="#DejaVuSans-6f"/>
      <use x="187.841797" xlink:href="#DejaVuSans-63"/>
      <use x="242.822266" xlink:href="#DejaVuSans-68"/>
      <use x="306.201172" xlink:href="#DejaVuSans-73"/>
     </g>
    </g>
   </g>
   <g id="matplotlib.axis_2">
    <g id="ytick_1">
     <g id="line2d_11">
      <defs>
       <path d="M 0 0 
L -3.5 0 
" id="m2db03cc8ce" style="stroke:#000000;stroke-width:0.8;"/>
      </defs>
      <g>
       <use style="stroke:#000000;stroke-width:0.8;" x="57.6" xlink:href="#m2db03cc8ce" y="276.268872"/>
      </g>
     </g>
     <g id="text_12">
      <!-- 30 -->
      <g transform="translate(37.875 280.068091)scale(0.1 -0.1)">
       <use xlink:href="#DejaVuSans-33"/>
       <use x="63.623047" xlink:href="#DejaVuSans-30"/>
      </g>
     </g>
    </g>
    <g id="ytick_2">
     <g id="line2d_12">
      <g>
       <use style="stroke:#000000;stroke-width:0.8;" x="57.6" xlink:href="#m2db03cc8ce" y="242.034587"/>
      </g>
     </g>
     <g id="text_13">
      <!-- 40 -->
      <g transform="translate(37.875 245.833806)scale(0.1 -0.1)">
       <use xlink:href="#DejaVuSans-34"/>
       <use x="63.623047" xlink:href="#DejaVuSans-30"/>
      </g>
     </g>
    </g>
    <g id="ytick_3">
     <g id="line2d_13">
      <g>
       <use style="stroke:#000000;stroke-width:0.8;" x="57.6" xlink:href="#m2db03cc8ce" y="207.800302"/>
      </g>
     </g>
     <g id="text_14">
      <!-- 50 -->
      <g transform="translate(37.875 211.599521)scale(0.1 -0.1)">
       <use xlink:href="#DejaVuSans-35"/>
       <use x="63.623047" xlink:href="#DejaVuSans-30"/>
      </g>
     </g>
    </g>
    <g id="ytick_4">
     <g id="line2d_14">
      <g>
       <use style="stroke:#000000;stroke-width:0.8;" x="57.6" xlink:href="#m2db03cc8ce" y="173.566017"/>
      </g>
     </g>
     <g id="text_15">
      <!-- 60 -->
      <g transform="translate(37.875 177.365235)scale(0.1 -0.1)">
       <use xlink:href="#DejaVuSans-36"/>
       <use x="63.623047" xlink:href="#DejaVuSans-30"/>
      </g>
     </g>
    </g>
    <g id="ytick_5">
     <g id="line2d_15">
      <g>
       <use style="stroke:#000000;stroke-width:0.8;" x="57.6" xlink:href="#m2db03cc8ce" y="139.331731"/>
      </g>
     </g>
     <g id="text_16">
      <!-- 70 -->
      <g transform="translate(37.875 143.13095)scale(0.1 -0.1)">
       <use xlink:href="#DejaVuSans-37"/>
       <use x="63.623047" xlink:href="#DejaVuSans-30"/>
      </g>
     </g>
    </g>
    <g id="ytick_6">
     <g id="line2d_16">
      <g>
       <use style="stroke:#000000;stroke-width:0.8;" x="57.6" xlink:href="#m2db03cc8ce" y="105.097446"/>
      </g>
     </g>
     <g id="text_17">
      <!-- 80 -->
      <g transform="translate(37.875 108.896665)scale(0.1 -0.1)">
       <use xlink:href="#DejaVuSans-38"/>
       <use x="63.623047" xlink:href="#DejaVuSans-30"/>
      </g>
     </g>
    </g>
    <g id="ytick_7">
     <g id="line2d_17">
      <g>
       <use style="stroke:#000000;stroke-width:0.8;" x="57.6" xlink:href="#m2db03cc8ce" y="70.863161"/>
      </g>
     </g>
     <g id="text_18">
      <!-- 90 -->
      <g transform="translate(37.875 74.66238)scale(0.1 -0.1)">
       <use xlink:href="#DejaVuSans-39"/>
       <use x="63.623047" xlink:href="#DejaVuSans-30"/>
      </g>
     </g>
    </g>
    <g id="text_19">
     <!-- Accuracy -->
     <g transform="translate(31.795312 197.356125)rotate(-90)scale(0.1 -0.1)">
      <defs>
       <path d="M 2188 4044 
L 1331 1722 
L 3047 1722 
L 2188 4044 
z
M 1831 4666 
L 2547 4666 
L 4325 0 
L 3669 0 
L 3244 1197 
L 1141 1197 
L 716 0 
L 50 0 
L 1831 4666 
z
" id="DejaVuSans-41" transform="scale(0.015625)"/>
       <path d="M 544 1381 
L 544 3500 
L 1119 3500 
L 1119 1403 
Q 1119 906 1312 657 
Q 1506 409 1894 409 
Q 2359 409 2629 706 
Q 2900 1003 2900 1516 
L 2900 3500 
L 3475 3500 
L 3475 0 
L 2900 0 
L 2900 538 
Q 2691 219 2414 64 
Q 2138 -91 1772 -91 
Q 1169 -91 856 284 
Q 544 659 544 1381 
z
M 1991 3584 
L 1991 3584 
z
" id="DejaVuSans-75" transform="scale(0.015625)"/>
       <path d="M 2631 2963 
Q 2534 3019 2420 3045 
Q 2306 3072 2169 3072 
Q 1681 3072 1420 2755 
Q 1159 2438 1159 1844 
L 1159 0 
L 581 0 
L 581 3500 
L 1159 3500 
L 1159 2956 
Q 1341 3275 1631 3429 
Q 1922 3584 2338 3584 
Q 2397 3584 2469 3576 
Q 2541 3569 2628 3553 
L 2631 2963 
z
" id="DejaVuSans-72" transform="scale(0.015625)"/>
       <path d="M 2194 1759 
Q 1497 1759 1228 1600 
Q 959 1441 959 1056 
Q 959 750 1161 570 
Q 1363 391 1709 391 
Q 2188 391 2477 730 
Q 2766 1069 2766 1631 
L 2766 1759 
L 2194 1759 
z
M 3341 1997 
L 3341 0 
L 2766 0 
L 2766 531 
Q 2569 213 2275 61 
Q 1981 -91 1556 -91 
Q 1019 -91 701 211 
Q 384 513 384 1019 
Q 384 1609 779 1909 
Q 1175 2209 1959 2209 
L 2766 2209 
L 2766 2266 
Q 2766 2663 2505 2880 
Q 2244 3097 1772 3097 
Q 1472 3097 1187 3025 
Q 903 2953 641 2809 
L 641 3341 
Q 956 3463 1253 3523 
Q 1550 3584 1831 3584 
Q 2591 3584 2966 3190 
Q 3341 2797 3341 1997 
z
" id="DejaVuSans-61" transform="scale(0.015625)"/>
       <path d="M 2059 -325 
Q 1816 -950 1584 -1140 
Q 1353 -1331 966 -1331 
L 506 -1331 
L 506 -850 
L 844 -850 
Q 1081 -850 1212 -737 
Q 1344 -625 1503 -206 
L 1606 56 
L 191 3500 
L 800 3500 
L 1894 763 
L 2988 3500 
L 3597 3500 
L 2059 -325 
z
" id="DejaVuSans-79" transform="scale(0.015625)"/>
      </defs>
      <use xlink:href="#DejaVuSans-41"/>
      <use x="66.658203" xlink:href="#DejaVuSans-63"/>
      <use x="121.638672" xlink:href="#DejaVuSans-63"/>
      <use x="176.619141" xlink:href="#DejaVuSans-75"/>
      <use x="239.998047" xlink:href="#DejaVuSans-72"/>
      <use x="281.111328" xlink:href="#DejaVuSans-61"/>
      <use x="342.390625" xlink:href="#DejaVuSans-63"/>
      <use x="397.371094" xlink:href="#DejaVuSans-79"/>
     </g>
    </g>
   </g>
   <g id="line2d_18">
    <path clip-path="url(#p0f26e6260e)" d="M 73.832727 295.488 
L 74.883389 267.792463 
L 75.934051 254.345236 
L 76.984713 231.24394 
L 78.035375 226.656546 
L 79.086037 210.908775 
L 80.136699 191.949828 
L 81.187361 191.354151 
L 82.238023 183.795221 
L 83.288685 168.89646 
L 84.339347 209.881746 
L 85.390009 200.837048 
L 86.440671 181.070172 
L 87.491333 172.374663 
L 88.541995 177.646743 
L 89.592657 159.933924 
L 90.643319 157.099325 
L 91.693981 164.021498 
L 93.795305 147.643816 
L 94.845966 131.724873 
L 95.896628 142.768854 
L 96.94729 135.107221 
L 97.997952 130.732079 
L 99.048614 134.12812 
L 100.099276 118.941791 
L 101.149938 125.418918 
L 102.2006 124.165943 
L 103.251262 118.394043 
L 104.301924 119.236206 
L 105.352586 152.183282 
L 106.403248 145.1721 
L 107.45391 157.523831 
L 108.504572 136.743619 
L 109.555234 131.450999 
L 110.605896 142.987953 
L 111.656558 136.15479 
L 112.70722 124.67261 
L 113.757882 121.516209 
L 114.808544 126.295316 
L 115.859206 137.222899 
L 116.909868 126.801983 
L 117.96053 109.547903 
L 119.011192 113.005566 
L 120.061853 123.419636 
L 121.112515 116.990437 
L 122.163177 116.901428 
L 123.213839 109.68484 
L 124.264501 108.514028 
L 125.315163 117.209536 
L 126.365825 107.733486 
L 127.416487 102.071135 
L 128.467149 101.947892 
L 129.517811 105.775285 
L 130.568473 103.043389 
L 131.619135 95.710405 
L 132.669797 99.01059 
L 133.720459 103.556903 
L 134.771121 102.4751 
L 135.821783 91.588597 
L 136.872445 94.443737 
L 137.923107 89.637243 
L 138.973769 95.724099 
L 140.024431 98.236895 
L 141.075093 87.809132 
L 142.125755 89.137422 
L 143.176417 88.514358 
L 144.227079 86.87796 
L 145.277741 87.323005 
L 146.328402 93.793285 
L 147.379064 124.124862 
L 148.429726 113.888811 
L 149.480388 116.593319 
L 150.53105 125.85027 
L 151.581712 108.712587 
L 152.632374 124.624682 
L 153.683036 102.317622 
L 154.733698 106.391502 
L 155.78436 104.008796 
L 156.835022 126.562343 
L 157.885684 119.742873 
L 158.936346 110.8625 
L 159.987008 107.918351 
L 161.03767 108.157991 
L 162.088332 103.78285 
L 163.138994 106.09024 
L 164.189656 98.373833 
L 165.240318 108.00736 
L 166.29098 105.309699 
L 167.341642 99.558339 
L 168.392304 102.865371 
L 169.442966 98.442301 
L 170.493628 115.223948 
L 171.544289 110.506463 
L 172.594951 97.730228 
L 173.645613 93.560492 
L 174.696275 105.159068 
L 175.746937 98.414914 
L 176.797599 103.495282 
L 177.848261 101.502846 
L 178.898923 100.510052 
L 179.949585 104.878347 
L 181.000247 101.694558 
L 182.050909 99.168068 
L 183.101571 89.288053 
L 184.152233 94.306799 
L 185.202895 91.027155 
L 186.253557 85.850931 
L 187.304219 101.804108 
L 188.354881 93.074365 
L 189.405543 91.657066 
L 190.456205 87.692736 
L 191.506867 92.677247 
L 192.557529 89.760486 
L 193.608191 91.08193 
L 194.658853 86.28913 
L 195.709515 89.349675 
L 196.760177 83.344981 
L 197.810838 87.02859 
L 198.8615 96.37455 
L 199.912162 87.644808 
L 200.962824 95.89527 
L 202.013486 85.385345 
L 203.064148 81.106059 
L 204.11481 79.045155 
L 205.165472 81.140293 
L 206.216134 82.283718 
L 207.266796 88.46643 
L 208.317458 81.510024 
L 209.36812 90.835443 
L 210.418782 71.931271 
L 211.469444 74.834338 
L 212.520106 83.351828 
L 213.570768 76.696683 
L 214.62143 71.808027 
L 215.672092 84.385704 
L 216.722754 74.78641 
L 217.773416 71.013792 
L 218.824078 77.757946 
L 219.87474 73.875778 
L 220.925402 73.362264 
L 221.976064 78.456325 
L 223.026726 76.826773 
L 224.077387 76.121547 
L 225.128049 63.331618 
L 226.178711 75.224609 
L 227.229373 66.864596 
L 228.280035 72.965146 
L 229.330697 67.309642 
L 230.381359 77.401909 
L 231.432021 99.791132 
L 232.482683 107.035107 
L 233.533345 106.364115 
L 234.584007 110.102499 
L 235.634669 104.823572 
L 236.685331 103.988255 
L 237.735993 108.692046 
L 238.786655 99.982844 
L 239.837317 105.206996 
L 240.887979 98.675094 
L 241.938641 100.770232 
L 242.989303 99.113293 
L 244.039965 102.920146 
L 245.090627 97.874012 
L 246.141289 96.59365 
L 247.191951 99.455636 
L 248.242613 93.046978 
L 249.293274 101.345368 
L 250.343936 102.577803 
L 251.394598 92.684094 
L 252.44526 94.717611 
L 253.495922 99.592573 
L 254.546584 103.283029 
L 255.597246 93.800132 
L 256.647908 93.971303 
L 257.69857 94.881935 
L 258.749232 102.112216 
L 259.799894 97.531669 
L 260.850556 99.613114 
L 261.901218 112.635836 
L 262.95188 87.61742 
L 264.002542 99.852754 
L 266.103866 89.000485 
L 267.154528 99.784285 
L 268.20519 103.508975 
L 269.255852 95.799414 
L 270.306514 92.095265 
L 271.357176 79.46966 
L 272.407838 99.085906 
L 273.4585 113.217819 
L 274.509162 97.819237 
L 275.559823 95.991126 
L 277.661147 80.845878 
L 278.711809 91.663913 
L 279.762471 93.163374 
L 280.813133 91.841931 
L 281.863795 82.899936 
L 282.914457 90.561569 
L 283.965119 79.243714 
L 285.015781 87.658501 
L 286.066443 107.418531 
L 287.117105 93.628961 
L 288.167767 99.524104 
L 289.218429 93.36878 
L 290.269091 92.64986 
L 291.319753 99.715816 
L 292.370415 83.824261 
L 293.421077 90.630037 
L 294.471739 88.959404 
L 295.522401 85.056696 
L 296.573063 84.61165 
L 297.623725 89.876883 
L 298.674387 87.658501 
L 299.725049 85.152552 
L 300.775711 79.23002 
L 301.826372 77.169116 
L 302.877034 89.418143 
L 303.927696 83.940658 
L 306.02902 89.390756 
L 307.079682 92.04049 
L 308.130344 81.729123 
L 309.181006 80.462454 
L 310.231668 74.245508 
L 311.28233 86.919041 
L 312.332992 88.692377 
L 313.383654 71.438297 
L 314.434316 81.448402 
L 315.484978 74.238661 
L 316.53564 73.143164 
L 317.586302 85.933093 
L 318.636964 70.055232 
L 319.687626 80.072184 
L 320.738288 100.085547 
L 321.78895 81.770204 
L 322.839612 75.272537 
L 323.890274 77.888036 
L 324.940936 79.052002 
L 325.991598 82.749305 
L 327.042259 89.144269 
L 328.092921 71.116495 
L 329.143583 71.499919 
L 330.194245 84.892371 
L 331.244907 79.257408 
L 332.295569 80.975969 
L 333.346231 67.645138 
L 334.396893 71.992892 
L 335.447555 70.616674 
L 336.498217 73.280101 
L 337.548879 79.141011 
L 338.599541 69.40478 
L 339.650203 77.080107 
L 340.700865 77.90173 
L 341.751527 62.571617 
L 342.802189 76.799386 
L 343.852851 76.436503 
L 344.903513 77.353981 
L 345.954175 74.943888 
L 347.004837 75.786051 
L 348.055499 79.976328 
L 349.106161 85.987868 
L 350.156823 73.177399 
L 351.207485 73.471813 
L 352.258147 72.793975 
L 353.308808 78.695965 
L 354.35947 72.821362 
L 355.410132 60.086208 
L 356.460794 71.253432 
L 357.511456 60.709272 
L 358.562118 68.68586 
L 359.61278 77.66209 
L 360.663442 74.9165 
L 361.714104 65.892343 
L 362.764766 77.141729 
L 363.815428 71.999739 
L 365.916752 64.824233 
L 366.967414 67.973787 
L 368.018076 72.095595 
L 369.068738 64.550359 
L 370.1194 61.982787 
L 371.170062 70.192169 
L 372.220724 62.599004 
L 373.271386 73.731994 
L 374.322048 69.322618 
L 375.37271 55.868544 
L 376.423372 58.23071 
L 377.474034 67.083696 
L 378.524695 64.331259 
L 379.575357 53.568 
L 380.626019 71.458837 
L 381.676681 65.057026 
L 382.727343 61.503507 
L 383.778005 69.219915 
L 384.828667 67.323336 
L 385.879329 62.482608 
L 386.929991 69.986763 
L 387.980653 69.38424 
L 389.031315 69.938835 
L 390.081977 62.893419 
L 391.132639 69.322618 
L 392.183301 82.044078 
L 393.233963 63.26315 
L 394.284625 67.877931 
L 395.335287 63.359006 
L 396.385949 60.983146 
L 397.436611 75.724429 
L 398.487273 65.522612 
L 398.487273 65.522612 
" style="fill:none;stroke:#1f77b4;stroke-linecap:square;stroke-width:1.5;"/>
   </g>
   <g id="line2d_19">
    <path clip-path="url(#p0f26e6260e)" d="M 73.832727 281.472484 
L 74.883389 248.710273 
L 75.934051 236.248993 
L 76.984713 253.674244 
L 78.035375 252.20217 
L 79.086037 188.663336 
L 80.136699 180.857919 
L 81.187361 185.719188 
L 82.238023 167.985828 
L 83.288685 182.740805 
L 84.339347 202.391285 
L 85.390009 196.605691 
L 86.440671 168.122765 
L 87.491333 151.484903 
L 88.541995 156.928154 
L 89.592657 145.802011 
L 90.643319 181.884948 
L 91.693981 141.043446 
L 92.744643 128.821806 
L 93.795305 132.108297 
L 94.845966 107.28844 
L 95.896628 110.848806 
L 96.94729 125.329909 
L 97.997952 109.034389 
L 99.048614 101.092035 
L 100.099276 100.407349 
L 101.149938 97.771309 
L 102.2006 101.263206 
L 103.251262 93.594726 
L 104.301924 93.115446 
L 105.352586 123.447023 
L 106.403248 119.373143 
L 107.45391 130.807394 
L 108.504572 184.760628 
L 109.555234 119.74972 
L 110.605896 107.185738 
L 111.656558 116.257823 
L 112.70722 146.041651 
L 113.757882 127.041623 
L 115.859206 103.385732 
L 116.909868 123.412789 
L 117.96053 90.102829 
L 119.011192 106.295646 
L 120.061853 98.182121 
L 121.112515 87.090212 
L 122.163177 91.403732 
L 123.213839 93.868601 
L 124.264501 97.668606 
L 125.315163 85.275795 
L 126.365825 84.591109 
L 127.416487 77.401909 
L 128.467149 74.149652 
L 129.517811 82.913629 
L 130.568473 73.328029 
L 131.619135 73.841544 
L 132.669797 70.623521 
L 133.720459 73.738841 
L 134.771121 71.000098 
L 135.821783 69.493789 
L 136.872445 70.246944 
L 137.923107 66.960452 
L 138.973769 65.693784 
L 140.024431 65.967658 
L 141.075093 66.686578 
L 142.125755 69.254149 
L 143.176417 66.241532 
L 144.227079 65.65955 
L 145.277741 66.515407 
L 146.328402 67.028921 
L 147.379064 94.450583 
L 148.429726 85.618138 
L 149.480388 98.010949 
L 150.53105 116.052417 
L 151.581712 101.434378 
L 152.632374 130.738926 
L 153.683036 79.729841 
L 154.733698 108.212766 
L 155.78436 80.654166 
L 156.835022 145.014623 
L 157.885684 94.929863 
L 158.936346 87.774898 
L 159.987008 77.881189 
L 161.03767 76.648755 
L 162.088332 78.155064 
L 163.138994 82.845161 
L 164.189656 94.724458 
L 165.240318 78.600109 
L 166.29098 126.801983 
L 167.341642 79.866778 
L 168.392304 78.702812 
L 169.442966 88.185709 
L 170.493628 86.679401 
L 171.544289 76.682989 
L 172.594951 72.540641 
L 173.645613 79.592904 
L 174.696275 92.499229 
L 175.746937 81.818132 
L 176.797599 81.236149 
L 177.848261 108.589343 
L 178.898923 79.250561 
L 179.949585 69.699195 
L 181.000247 83.598315 
L 182.050909 70.657755 
L 183.101571 77.641549 
L 184.152233 70.315412 
L 185.202895 76.203709 
L 186.253557 68.637932 
L 187.304219 68.29559 
L 188.354881 70.520818 
L 189.405543 69.219915 
L 190.456205 69.391087 
L 191.506867 71.171269 
L 192.557529 67.028921 
L 193.608191 78.805515 
L 194.658853 62.681167 
L 195.709515 67.131624 
L 196.760177 65.89919 
L 197.810838 64.255944 
L 198.8615 63.98207 
L 199.912162 60.284767 
L 200.962824 67.57667 
L 202.013486 65.796487 
L 203.064148 60.969452 
L 204.11481 62.373058 
L 205.165472 61.791075 
L 206.216134 61.82531 
L 207.266796 59.394675 
L 208.317458 58.573053 
L 209.36812 59.18927 
L 210.418782 59.18927 
L 211.469444 58.94963 
L 212.520106 59.326207 
L 213.570768 57.854133 
L 214.62143 57.237915 
L 215.672092 59.052332 
L 216.722754 56.450527 
L 218.824078 56.827104 
L 220.925402 56.724401 
L 223.026726 57.237915 
L 224.077387 58.675755 
L 225.128049 56.690167 
L 226.178711 58.675755 
L 227.229373 56.827104 
L 228.280035 56.108184 
L 229.330697 56.108184 
L 230.381359 55.663138 
L 231.432021 99.003743 
L 232.482683 83.974892 
L 233.533345 122.317292 
L 234.584007 86.782104 
L 235.634669 101.023566 
L 236.685331 80.448761 
L 237.735993 84.522641 
L 238.786655 92.499229 
L 239.837317 76.751458 
L 240.887979 74.731635 
L 241.938641 102.153298 
L 242.989303 79.592904 
L 244.039965 78.155064 
L 245.090627 77.059567 
L 246.141289 83.358675 
L 247.191951 95.511846 
L 248.242613 78.326235 
L 249.293274 78.531641 
L 250.343936 82.057772 
L 251.394598 71.787487 
L 252.44526 81.510024 
L 253.495922 75.176681 
L 254.546584 75.142447 
L 255.597246 82.742458 
L 256.647908 74.663167 
L 257.69857 74.628932 
L 258.749232 71.684784 
L 259.799894 70.246944 
L 260.850556 80.380292 
L 261.901218 88.254178 
L 262.95188 72.574875 
L 264.002542 68.946041 
L 265.053204 85.720841 
L 266.103866 71.445144 
L 267.154528 72.061361 
L 268.20519 69.254149 
L 269.255852 89.178503 
L 270.306514 79.661372 
L 271.357176 68.05595 
L 272.407838 74.937041 
L 273.4585 79.729841 
L 274.509162 80.380292 
L 275.559823 72.574875 
L 276.610485 73.293795 
L 277.661147 93.868601 
L 278.711809 76.888395 
L 279.762471 74.320824 
L 280.813133 67.542435 
L 281.863795 68.637932 
L 282.914457 73.328029 
L 283.965119 70.418115 
L 285.015781 66.891984 
L 286.066443 78.257767 
L 287.117105 70.691989 
L 288.167767 74.252355 
L 289.218429 71.376675 
L 290.269091 211.497605 
L 291.319753 81.749664 
L 292.370415 67.268561 
L 293.421077 75.073978 
L 294.471739 72.609109 
L 295.522401 67.439732 
L 296.573063 76.751458 
L 297.623725 65.693784 
L 298.674387 64.153241 
L 299.725049 69.836132 
L 300.775711 67.542435 
L 301.826372 63.605492 
L 302.877034 68.603698 
L 303.927696 72.027127 
L 304.978358 64.255944 
L 306.02902 64.837927 
L 307.079682 68.364058 
L 308.130344 62.407292 
L 309.181006 69.973069 
L 310.231668 64.050538 
L 311.28233 62.54423 
L 312.332992 64.906395 
L 313.383654 64.358647 
L 314.434316 64.872161 
L 316.53564 61.928012 
L 317.586302 71.000098 
L 318.636964 60.86675 
L 319.687626 62.818104 
L 320.738288 65.556847 
L 321.78895 62.749635 
L 322.839612 59.052332 
L 323.890274 63.091978 
L 324.940936 61.619904 
L 325.991598 59.839721 
L 327.042259 62.236121 
L 328.092921 60.284767 
L 329.143583 65.967658 
L 330.194245 59.291972 
L 331.244907 59.18927 
L 332.295569 60.38747 
L 333.346231 61.82531 
L 334.396893 59.018098 
L 335.447555 59.463144 
L 336.498217 61.414498 
L 337.548879 65.077567 
L 338.599541 60.661344 
L 339.650203 60.010892 
L 340.700865 58.436115 
L 341.751527 58.128007 
L 342.802189 58.504584 
L 343.852851 59.634315 
L 344.903513 61.209092 
L 345.954175 60.113595 
L 347.004837 60.113595 
L 348.055499 58.983864 
L 349.106161 58.162241 
L 350.156823 57.99107 
L 351.207485 58.093773 
L 352.258147 58.641521 
L 353.308808 56.005481 
L 354.35947 58.436115 
L 355.410132 58.573053 
L 356.460794 55.971247 
L 357.511456 55.560435 
L 358.562118 55.423498 
L 359.61278 56.655933 
L 361.714104 55.868544 
L 362.764766 56.827104 
L 363.815428 56.587464 
L 364.86609 55.457733 
L 365.916752 55.800075 
L 366.967414 54.738813 
L 368.018076 58.881161 
L 369.068738 57.75143 
L 370.1194 54.738813 
L 371.170062 56.79287 
L 372.220724 54.499173 
L 373.271386 55.937013 
L 374.322048 54.63611 
L 375.37271 54.088361 
L 376.423372 54.430704 
L 377.474034 55.697373 
L 378.524695 54.328001 
L 379.575357 54.15683 
L 380.626019 54.39647 
L 381.676681 54.430704 
L 382.727343 53.951424 
L 384.828667 55.046921 
L 385.879329 54.225298 
L 386.929991 56.07395 
L 387.980653 55.286561 
L 389.031315 55.800075 
L 390.081977 54.601875 
L 391.132639 54.533407 
L 392.183301 53.882955 
L 393.233963 54.909984 
L 394.284625 55.183858 
L 395.335287 55.081155 
L 397.436611 54.704578 
L 398.487273 53.780253 
L 398.487273 53.780253 
" style="fill:none;stroke:#ff7f0e;stroke-linecap:square;stroke-width:1.5;"/>
   </g>
   <g id="patch_3">
    <path d="M 57.6 307.584 
L 57.6 41.472 
" style="fill:none;stroke:#000000;stroke-linecap:square;stroke-linejoin:miter;stroke-width:0.8;"/>
   </g>
   <g id="patch_4">
    <path d="M 414.72 307.584 
L 414.72 41.472 
" style="fill:none;stroke:#000000;stroke-linecap:square;stroke-linejoin:miter;stroke-width:0.8;"/>
   </g>
   <g id="patch_5">
    <path d="M 57.6 307.584 
L 414.72 307.584 
" style="fill:none;stroke:#000000;stroke-linecap:square;stroke-linejoin:miter;stroke-width:0.8;"/>
   </g>
   <g id="patch_6">
    <path d="M 57.6 41.472 
L 414.72 41.472 
" style="fill:none;stroke:#000000;stroke-linecap:square;stroke-linejoin:miter;stroke-width:0.8;"/>
   </g>
   <g id="text_20">
    <!-- Training and Validation Accuracy -->
    <g transform="translate(138.4575 35.472)scale(0.12 -0.12)">
     <defs>
      <path d="M -19 4666 
L 3928 4666 
L 3928 4134 
L 2272 4134 
L 2272 0 
L 1638 0 
L 1638 4134 
L -19 4134 
L -19 4666 
z
" id="DejaVuSans-54" transform="scale(0.015625)"/>
      <path d="M 603 3500 
L 1178 3500 
L 1178 0 
L 603 0 
L 603 3500 
z
M 603 4863 
L 1178 4863 
L 1178 4134 
L 603 4134 
L 603 4863 
z
" id="DejaVuSans-69" transform="scale(0.015625)"/>
      <path d="M 3513 2113 
L 3513 0 
L 2938 0 
L 2938 2094 
Q 2938 2591 2744 2837 
Q 2550 3084 2163 3084 
Q 1697 3084 1428 2787 
Q 1159 2491 1159 1978 
L 1159 0 
L 581 0 
L 581 3500 
L 1159 3500 
L 1159 2956 
Q 1366 3272 1645 3428 
Q 1925 3584 2291 3584 
Q 2894 3584 3203 3211 
Q 3513 2838 3513 2113 
z
" id="DejaVuSans-6e" transform="scale(0.015625)"/>
      <path d="M 2906 1791 
Q 2906 2416 2648 2759 
Q 2391 3103 1925 3103 
Q 1463 3103 1205 2759 
Q 947 2416 947 1791 
Q 947 1169 1205 825 
Q 1463 481 1925 481 
Q 2391 481 2648 825 
Q 2906 1169 2906 1791 
z
M 3481 434 
Q 3481 -459 3084 -895 
Q 2688 -1331 1869 -1331 
Q 1566 -1331 1297 -1286 
Q 1028 -1241 775 -1147 
L 775 -588 
Q 1028 -725 1275 -790 
Q 1522 -856 1778 -856 
Q 2344 -856 2625 -561 
Q 2906 -266 2906 331 
L 2906 616 
Q 2728 306 2450 153 
Q 2172 0 1784 0 
Q 1141 0 747 490 
Q 353 981 353 1791 
Q 353 2603 747 3093 
Q 1141 3584 1784 3584 
Q 2172 3584 2450 3431 
Q 2728 3278 2906 2969 
L 2906 3500 
L 3481 3500 
L 3481 434 
z
" id="DejaVuSans-67" transform="scale(0.015625)"/>
      <path id="DejaVuSans-20" transform="scale(0.015625)"/>
      <path d="M 2906 2969 
L 2906 4863 
L 3481 4863 
L 3481 0 
L 2906 0 
L 2906 525 
Q 2725 213 2448 61 
Q 2172 -91 1784 -91 
Q 1150 -91 751 415 
Q 353 922 353 1747 
Q 353 2572 751 3078 
Q 1150 3584 1784 3584 
Q 2172 3584 2448 3432 
Q 2725 3281 2906 2969 
z
M 947 1747 
Q 947 1113 1208 752 
Q 1469 391 1925 391 
Q 2381 391 2643 752 
Q 2906 1113 2906 1747 
Q 2906 2381 2643 2742 
Q 2381 3103 1925 3103 
Q 1469 3103 1208 2742 
Q 947 2381 947 1747 
z
" id="DejaVuSans-64" transform="scale(0.015625)"/>
      <path d="M 1831 0 
L 50 4666 
L 709 4666 
L 2188 738 
L 3669 4666 
L 4325 4666 
L 2547 0 
L 1831 0 
z
" id="DejaVuSans-56" transform="scale(0.015625)"/>
      <path d="M 603 4863 
L 1178 4863 
L 1178 0 
L 603 0 
L 603 4863 
z
" id="DejaVuSans-6c" transform="scale(0.015625)"/>
      <path d="M 1172 4494 
L 1172 3500 
L 2356 3500 
L 2356 3053 
L 1172 3053 
L 1172 1153 
Q 1172 725 1289 603 
Q 1406 481 1766 481 
L 2356 481 
L 2356 0 
L 1766 0 
Q 1100 0 847 248 
Q 594 497 594 1153 
L 594 3053 
L 172 3053 
L 172 3500 
L 594 3500 
L 594 4494 
L 1172 4494 
z
" id="DejaVuSans-74" transform="scale(0.015625)"/>
     </defs>
     <use xlink:href="#DejaVuSans-54"/>
     <use x="46.333984" xlink:href="#DejaVuSans-72"/>
     <use x="87.447266" xlink:href="#DejaVuSans-61"/>
     <use x="148.726562" xlink:href="#DejaVuSans-69"/>
     <use x="176.509766" xlink:href="#DejaVuSans-6e"/>
     <use x="239.888672" xlink:href="#DejaVuSans-69"/>
     <use x="267.671875" xlink:href="#DejaVuSans-6e"/>
     <use x="331.050781" xlink:href="#DejaVuSans-67"/>
     <use x="394.527344" xlink:href="#DejaVuSans-20"/>
     <use x="426.314453" xlink:href="#DejaVuSans-61"/>
     <use x="487.59375" xlink:href="#DejaVuSans-6e"/>
     <use x="550.972656" xlink:href="#DejaVuSans-64"/>
     <use x="614.449219" xlink:href="#DejaVuSans-20"/>
     <use x="646.236328" xlink:href="#DejaVuSans-56"/>
     <use x="706.894531" xlink:href="#DejaVuSans-61"/>
     <use x="768.173828" xlink:href="#DejaVuSans-6c"/>
     <use x="795.957031" xlink:href="#DejaVuSans-69"/>
     <use x="823.740234" xlink:href="#DejaVuSans-64"/>
     <use x="887.216797" xlink:href="#DejaVuSans-61"/>
     <use x="948.496094" xlink:href="#DejaVuSans-74"/>
     <use x="987.705078" xlink:href="#DejaVuSans-69"/>
     <use x="1015.488281" xlink:href="#DejaVuSans-6f"/>
     <use x="1076.669922" xlink:href="#DejaVuSans-6e"/>
     <use x="1140.048828" xlink:href="#DejaVuSans-20"/>
     <use x="1171.835938" xlink:href="#DejaVuSans-41"/>
     <use x="1238.494141" xlink:href="#DejaVuSans-63"/>
     <use x="1293.474609" xlink:href="#DejaVuSans-63"/>
     <use x="1348.455078" xlink:href="#DejaVuSans-75"/>
     <use x="1411.833984" xlink:href="#DejaVuSans-72"/>
     <use x="1452.947266" xlink:href="#DejaVuSans-61"/>
     <use x="1514.226562" xlink:href="#DejaVuSans-63"/>
     <use x="1569.207031" xlink:href="#DejaVuSans-79"/>
    </g>
   </g>
   <g id="legend_1">
    <g id="patch_7">
     <path d="M 277.504375 302.584 
L 407.72 302.584 
Q 409.72 302.584 409.72 300.584 
L 409.72 272.22775 
Q 409.72 270.22775 407.72 270.22775 
L 277.504375 270.22775 
Q 275.504375 270.22775 275.504375 272.22775 
L 275.504375 300.584 
Q 275.504375 302.584 277.504375 302.584 
z
" style="fill:#ffffff;opacity:0.8;stroke:#cccccc;stroke-linejoin:miter;"/>
    </g>
    <g id="line2d_20">
     <path d="M 279.504375 278.326187 
L 299.504375 278.326187 
" style="fill:none;stroke:#1f77b4;stroke-linecap:square;stroke-width:1.5;"/>
    </g>
    <g id="line2d_21"/>
    <g id="text_21">
     <!-- Train Accuracy -->
     <g transform="translate(307.504375 281.826187)scale(0.1 -0.1)">
      <use xlink:href="#DejaVuSans-54"/>
      <use x="46.333984" xlink:href="#DejaVuSans-72"/>
      <use x="87.447266" xlink:href="#DejaVuSans-61"/>
      <use x="148.726562" xlink:href="#DejaVuSans-69"/>
      <use x="176.509766" xlink:href="#DejaVuSans-6e"/>
      <use x="239.888672" xlink:href="#DejaVuSans-20"/>
      <use x="271.675781" xlink:href="#DejaVuSans-41"/>
      <use x="338.333984" xlink:href="#DejaVuSans-63"/>
      <use x="393.314453" xlink:href="#DejaVuSans-63"/>
      <use x="448.294922" xlink:href="#DejaVuSans-75"/>
      <use x="511.673828" xlink:href="#DejaVuSans-72"/>
      <use x="552.787109" xlink:href="#DejaVuSans-61"/>
      <use x="614.066406" xlink:href="#DejaVuSans-63"/>
      <use x="669.046875" xlink:href="#DejaVuSans-79"/>
     </g>
    </g>
    <g id="line2d_22">
     <path d="M 279.504375 293.004312 
L 299.504375 293.004312 
" style="fill:none;stroke:#ff7f0e;stroke-linecap:square;stroke-width:1.5;"/>
    </g>
    <g id="line2d_23"/>
    <g id="text_22">
     <!-- Validation Accuracy -->
     <g transform="translate(307.504375 296.504312)scale(0.1 -0.1)">
      <use xlink:href="#DejaVuSans-56"/>
      <use x="60.658203" xlink:href="#DejaVuSans-61"/>
      <use x="121.9375" xlink:href="#DejaVuSans-6c"/>
      <use x="149.720703" xlink:href="#DejaVuSans-69"/>
      <use x="177.503906" xlink:href="#DejaVuSans-64"/>
      <use x="240.980469" xlink:href="#DejaVuSans-61"/>
      <use x="302.259766" xlink:href="#DejaVuSans-74"/>
      <use x="341.46875" xlink:href="#DejaVuSans-69"/>
      <use x="369.251953" xlink:href="#DejaVuSans-6f"/>
      <use x="430.433594" xlink:href="#DejaVuSans-6e"/>
      <use x="493.8125" xlink:href="#DejaVuSans-20"/>
      <use x="525.599609" xlink:href="#DejaVuSans-41"/>
      <use x="592.257812" xlink:href="#DejaVuSans-63"/>
      <use x="647.238281" xlink:href="#DejaVuSans-63"/>
      <use x="702.21875" xlink:href="#DejaVuSans-75"/>
      <use x="765.597656" xlink:href="#DejaVuSans-72"/>
      <use x="806.710938" xlink:href="#DejaVuSans-61"/>
      <use x="867.990234" xlink:href="#DejaVuSans-63"/>
      <use x="922.970703" xlink:href="#DejaVuSans-79"/>
     </g>
    </g>
   </g>
  </g>
 </g>
 <defs>
  <clipPath id="p0f26e6260e">
   <rect height="266.112" width="357.12" x="57.6" y="41.472"/>
  </clipPath>
 </defs>
</svg>
