<?xml version="1.0" encoding="utf-8" standalone="no"?>
<!DOCTYPE svg PUBLIC "-//W3C//DTD SVG 1.1//EN"
  "http://www.w3.org/Graphics/SVG/1.1/DTD/svg11.dtd">
<svg height="345.6pt" version="1.1" viewBox="0 0 460.8 345.6" width="460.8pt" xmlns="http://www.w3.org/2000/svg" xmlns:xlink="http://www.w3.org/1999/xlink">
 <metadata>
  <rdf:RDF xmlns:cc="http://creativecommons.org/ns#" xmlns:dc="http://purl.org/dc/elements/1.1/" xmlns:rdf="http://www.w3.org/1999/02/22-rdf-syntax-ns#">
   <cc:Work>
    <dc:type rdf:resource="http://purl.org/dc/dcmitype/StillImage"/>
    <dc:date>2024-01-19T20:22:48.043650</dc:date>
    <dc:format>image/svg+xml</dc:format>
    <dc:creator>
     <cc:Agent>
      <dc:title>Matplotlib v3.4.3, https://matplotlib.org/</dc:title>
     </cc:Agent>
    </dc:creator>
   </cc:Work>
  </rdf:RDF>
 </metadata>
 <defs>
  <style type="text/css">*{stroke-linecap:butt;stroke-linejoin:round;}</style>
 </defs>
 <g id="figure_1">
  <g id="patch_1">
   <path d="M 0 345.6 
L 460.8 345.6 
L 460.8 0 
L 0 0 
z
" style="fill:#ffffff;"/>
  </g>
  <g id="axes_1">
   <g id="patch_2">
    <path d="M 57.6 307.584 
L 414.72 307.584 
L 414.72 41.472 
L 57.6 41.472 
z
" style="fill:#ffffff;"/>
   </g>
   <g id="matplotlib.axis_1">
    <g id="xtick_1">
     <g id="line2d_1">
      <defs>
       <path d="M 0 0 
L 0 3.5 
" id="m276687f17a" style="stroke:#000000;stroke-width:0.8;"/>
      </defs>
      <g>
       <use style="stroke:#000000;stroke-width:0.8;" x="73.832727" xlink:href="#m276687f17a" y="307.584"/>
      </g>
     </g>
     <g id="text_1">
      <!-- 1 -->
      <g transform="translate(70.651477 322.182437)scale(0.1 -0.1)">
       <defs>
        <path d="M 794 531 
L 1825 531 
L 1825 4091 
L 703 3866 
L 703 4441 
L 1819 4666 
L 2450 4666 
L 2450 531 
L 3481 531 
L 3481 0 
L 794 0 
L 794 531 
z
" id="DejaVuSans-31" transform="scale(0.015625)"/>
       </defs>
       <use xlink:href="#DejaVuSans-31"/>
      </g>
     </g>
    </g>
    <g id="xtick_2">
     <g id="line2d_2">
      <g>
       <use style="stroke:#000000;stroke-width:0.8;" x="109.710992" xlink:href="#m276687f17a" y="307.584"/>
      </g>
     </g>
     <g id="text_2">
      <!-- 42 -->
      <g transform="translate(103.348492 322.182437)scale(0.1 -0.1)">
       <defs>
        <path d="M 2419 4116 
L 825 1625 
L 2419 1625 
L 2419 4116 
z
M 2253 4666 
L 3047 4666 
L 3047 1625 
L 3713 1625 
L 3713 1100 
L 3047 1100 
L 3047 0 
L 2419 0 
L 2419 1100 
L 313 1100 
L 313 1709 
L 2253 4666 
z
" id="DejaVuSans-34" transform="scale(0.015625)"/>
        <path d="M 1228 531 
L 3431 531 
L 3431 0 
L 469 0 
L 469 531 
Q 828 903 1448 1529 
Q 2069 2156 2228 2338 
Q 2531 2678 2651 2914 
Q 2772 3150 2772 3378 
Q 2772 3750 2511 3984 
Q 2250 4219 1831 4219 
Q 1534 4219 1204 4116 
Q 875 4013 500 3803 
L 500 4441 
Q 881 4594 1212 4672 
Q 1544 4750 1819 4750 
Q 2544 4750 2975 4387 
Q 3406 4025 3406 3419 
Q 3406 3131 3298 2873 
Q 3191 2616 2906 2266 
Q 2828 2175 2409 1742 
Q 1991 1309 1228 531 
z
" id="DejaVuSans-32" transform="scale(0.015625)"/>
       </defs>
       <use xlink:href="#DejaVuSans-34"/>
       <use x="63.623047" xlink:href="#DejaVuSans-32"/>
      </g>
     </g>
    </g>
    <g id="xtick_3">
     <g id="line2d_3">
      <g>
       <use style="stroke:#000000;stroke-width:0.8;" x="145.589258" xlink:href="#m276687f17a" y="307.584"/>
      </g>
     </g>
     <g id="text_3">
      <!-- 83 -->
      <g transform="translate(139.226758 322.182437)scale(0.1 -0.1)">
       <defs>
        <path d="M 2034 2216 
Q 1584 2216 1326 1975 
Q 1069 1734 1069 1313 
Q 1069 891 1326 650 
Q 1584 409 2034 409 
Q 2484 409 2743 651 
Q 3003 894 3003 1313 
Q 3003 1734 2745 1975 
Q 2488 2216 2034 2216 
z
M 1403 2484 
Q 997 2584 770 2862 
Q 544 3141 544 3541 
Q 544 4100 942 4425 
Q 1341 4750 2034 4750 
Q 2731 4750 3128 4425 
Q 3525 4100 3525 3541 
Q 3525 3141 3298 2862 
Q 3072 2584 2669 2484 
Q 3125 2378 3379 2068 
Q 3634 1759 3634 1313 
Q 3634 634 3220 271 
Q 2806 -91 2034 -91 
Q 1263 -91 848 271 
Q 434 634 434 1313 
Q 434 1759 690 2068 
Q 947 2378 1403 2484 
z
M 1172 3481 
Q 1172 3119 1398 2916 
Q 1625 2713 2034 2713 
Q 2441 2713 2670 2916 
Q 2900 3119 2900 3481 
Q 2900 3844 2670 4047 
Q 2441 4250 2034 4250 
Q 1625 4250 1398 4047 
Q 1172 3844 1172 3481 
z
" id="DejaVuSans-38" transform="scale(0.015625)"/>
        <path d="M 2597 2516 
Q 3050 2419 3304 2112 
Q 3559 1806 3559 1356 
Q 3559 666 3084 287 
Q 2609 -91 1734 -91 
Q 1441 -91 1130 -33 
Q 819 25 488 141 
L 488 750 
Q 750 597 1062 519 
Q 1375 441 1716 441 
Q 2309 441 2620 675 
Q 2931 909 2931 1356 
Q 2931 1769 2642 2001 
Q 2353 2234 1838 2234 
L 1294 2234 
L 1294 2753 
L 1863 2753 
Q 2328 2753 2575 2939 
Q 2822 3125 2822 3475 
Q 2822 3834 2567 4026 
Q 2313 4219 1838 4219 
Q 1578 4219 1281 4162 
Q 984 4106 628 3988 
L 628 4550 
Q 988 4650 1302 4700 
Q 1616 4750 1894 4750 
Q 2613 4750 3031 4423 
Q 3450 4097 3450 3541 
Q 3450 3153 3228 2886 
Q 3006 2619 2597 2516 
z
" id="DejaVuSans-33" transform="scale(0.015625)"/>
       </defs>
       <use xlink:href="#DejaVuSans-38"/>
       <use x="63.623047" xlink:href="#DejaVuSans-33"/>
      </g>
     </g>
    </g>
    <g id="xtick_4">
     <g id="line2d_4">
      <g>
       <use style="stroke:#000000;stroke-width:0.8;" x="181.467523" xlink:href="#m276687f17a" y="307.584"/>
      </g>
     </g>
     <g id="text_4">
      <!-- 124 -->
      <g transform="translate(171.923773 322.182437)scale(0.1 -0.1)">
       <use xlink:href="#DejaVuSans-31"/>
       <use x="63.623047" xlink:href="#DejaVuSans-32"/>
       <use x="127.246094" xlink:href="#DejaVuSans-34"/>
      </g>
     </g>
    </g>
    <g id="xtick_5">
     <g id="line2d_5">
      <g>
       <use style="stroke:#000000;stroke-width:0.8;" x="217.345788" xlink:href="#m276687f17a" y="307.584"/>
      </g>
     </g>
     <g id="text_5">
      <!-- 165 -->
      <g transform="translate(207.802038 322.182437)scale(0.1 -0.1)">
       <defs>
        <path d="M 2113 2584 
Q 1688 2584 1439 2293 
Q 1191 2003 1191 1497 
Q 1191 994 1439 701 
Q 1688 409 2113 409 
Q 2538 409 2786 701 
Q 3034 994 3034 1497 
Q 3034 2003 2786 2293 
Q 2538 2584 2113 2584 
z
M 3366 4563 
L 3366 3988 
Q 3128 4100 2886 4159 
Q 2644 4219 2406 4219 
Q 1781 4219 1451 3797 
Q 1122 3375 1075 2522 
Q 1259 2794 1537 2939 
Q 1816 3084 2150 3084 
Q 2853 3084 3261 2657 
Q 3669 2231 3669 1497 
Q 3669 778 3244 343 
Q 2819 -91 2113 -91 
Q 1303 -91 875 529 
Q 447 1150 447 2328 
Q 447 3434 972 4092 
Q 1497 4750 2381 4750 
Q 2619 4750 2861 4703 
Q 3103 4656 3366 4563 
z
" id="DejaVuSans-36" transform="scale(0.015625)"/>
        <path d="M 691 4666 
L 3169 4666 
L 3169 4134 
L 1269 4134 
L 1269 2991 
Q 1406 3038 1543 3061 
Q 1681 3084 1819 3084 
Q 2600 3084 3056 2656 
Q 3513 2228 3513 1497 
Q 3513 744 3044 326 
Q 2575 -91 1722 -91 
Q 1428 -91 1123 -41 
Q 819 9 494 109 
L 494 744 
Q 775 591 1075 516 
Q 1375 441 1709 441 
Q 2250 441 2565 725 
Q 2881 1009 2881 1497 
Q 2881 1984 2565 2268 
Q 2250 2553 1709 2553 
Q 1456 2553 1204 2497 
Q 953 2441 691 2322 
L 691 4666 
z
" id="DejaVuSans-35" transform="scale(0.015625)"/>
       </defs>
       <use xlink:href="#DejaVuSans-31"/>
       <use x="63.623047" xlink:href="#DejaVuSans-36"/>
       <use x="127.246094" xlink:href="#DejaVuSans-35"/>
      </g>
     </g>
    </g>
    <g id="xtick_6">
     <g id="line2d_6">
      <g>
       <use style="stroke:#000000;stroke-width:0.8;" x="254.099133" xlink:href="#m276687f17a" y="307.584"/>
      </g>
     </g>
     <g id="text_6">
      <!-- 207 -->
      <g transform="translate(244.555383 322.182437)scale(0.1 -0.1)">
       <defs>
        <path d="M 2034 4250 
Q 1547 4250 1301 3770 
Q 1056 3291 1056 2328 
Q 1056 1369 1301 889 
Q 1547 409 2034 409 
Q 2525 409 2770 889 
Q 3016 1369 3016 2328 
Q 3016 3291 2770 3770 
Q 2525 4250 2034 4250 
z
M 2034 4750 
Q 2819 4750 3233 4129 
Q 3647 3509 3647 2328 
Q 3647 1150 3233 529 
Q 2819 -91 2034 -91 
Q 1250 -91 836 529 
Q 422 1150 422 2328 
Q 422 3509 836 4129 
Q 1250 4750 2034 4750 
z
" id="DejaVuSans-30" transform="scale(0.015625)"/>
        <path d="M 525 4666 
L 3525 4666 
L 3525 4397 
L 1831 0 
L 1172 0 
L 2766 4134 
L 525 4134 
L 525 4666 
z
" id="DejaVuSans-37" transform="scale(0.015625)"/>
       </defs>
       <use xlink:href="#DejaVuSans-32"/>
       <use x="63.623047" xlink:href="#DejaVuSans-30"/>
       <use x="127.246094" xlink:href="#DejaVuSans-37"/>
      </g>
     </g>
    </g>
    <g id="xtick_7">
     <g id="line2d_7">
      <g>
       <use style="stroke:#000000;stroke-width:0.8;" x="289.977398" xlink:href="#m276687f17a" y="307.584"/>
      </g>
     </g>
     <g id="text_7">
      <!-- 248 -->
      <g transform="translate(280.433648 322.182437)scale(0.1 -0.1)">
       <use xlink:href="#DejaVuSans-32"/>
       <use x="63.623047" xlink:href="#DejaVuSans-34"/>
       <use x="127.246094" xlink:href="#DejaVuSans-38"/>
      </g>
     </g>
    </g>
    <g id="xtick_8">
     <g id="line2d_8">
      <g>
       <use style="stroke:#000000;stroke-width:0.8;" x="325.855663" xlink:href="#m276687f17a" y="307.584"/>
      </g>
     </g>
     <g id="text_8">
      <!-- 289 -->
      <g transform="translate(316.311913 322.182437)scale(0.1 -0.1)">
       <defs>
        <path d="M 703 97 
L 703 672 
Q 941 559 1184 500 
Q 1428 441 1663 441 
Q 2288 441 2617 861 
Q 2947 1281 2994 2138 
Q 2813 1869 2534 1725 
Q 2256 1581 1919 1581 
Q 1219 1581 811 2004 
Q 403 2428 403 3163 
Q 403 3881 828 4315 
Q 1253 4750 1959 4750 
Q 2769 4750 3195 4129 
Q 3622 3509 3622 2328 
Q 3622 1225 3098 567 
Q 2575 -91 1691 -91 
Q 1453 -91 1209 -44 
Q 966 3 703 97 
z
M 1959 2075 
Q 2384 2075 2632 2365 
Q 2881 2656 2881 3163 
Q 2881 3666 2632 3958 
Q 2384 4250 1959 4250 
Q 1534 4250 1286 3958 
Q 1038 3666 1038 3163 
Q 1038 2656 1286 2365 
Q 1534 2075 1959 2075 
z
" id="DejaVuSans-39" transform="scale(0.015625)"/>
       </defs>
       <use xlink:href="#DejaVuSans-32"/>
       <use x="63.623047" xlink:href="#DejaVuSans-38"/>
       <use x="127.246094" xlink:href="#DejaVuSans-39"/>
      </g>
     </g>
    </g>
    <g id="xtick_9">
     <g id="line2d_9">
      <g>
       <use style="stroke:#000000;stroke-width:0.8;" x="361.733928" xlink:href="#m276687f17a" y="307.584"/>
      </g>
     </g>
     <g id="text_9">
      <!-- 330 -->
      <g transform="translate(352.190178 322.182437)scale(0.1 -0.1)">
       <use xlink:href="#DejaVuSans-33"/>
       <use x="63.623047" xlink:href="#DejaVuSans-33"/>
       <use x="127.246094" xlink:href="#DejaVuSans-30"/>
      </g>
     </g>
    </g>
    <g id="xtick_10">
     <g id="line2d_10">
      <g>
       <use style="stroke:#000000;stroke-width:0.8;" x="398.487273" xlink:href="#m276687f17a" y="307.584"/>
      </g>
     </g>
     <g id="text_10">
      <!-- 372 -->
      <g transform="translate(388.943523 322.182437)scale(0.1 -0.1)">
       <use xlink:href="#DejaVuSans-33"/>
       <use x="63.623047" xlink:href="#DejaVuSans-37"/>
       <use x="127.246094" xlink:href="#DejaVuSans-32"/>
      </g>
     </g>
    </g>
    <g id="text_11">
     <!-- Epochs -->
     <g transform="translate(218.244375 335.860562)scale(0.1 -0.1)">
      <defs>
       <path d="M 628 4666 
L 3578 4666 
L 3578 4134 
L 1259 4134 
L 1259 2753 
L 3481 2753 
L 3481 2222 
L 1259 2222 
L 1259 531 
L 3634 531 
L 3634 0 
L 628 0 
L 628 4666 
z
" id="DejaVuSans-45" transform="scale(0.015625)"/>
       <path d="M 1159 525 
L 1159 -1331 
L 581 -1331 
L 581 3500 
L 1159 3500 
L 1159 2969 
Q 1341 3281 1617 3432 
Q 1894 3584 2278 3584 
Q 2916 3584 3314 3078 
Q 3713 2572 3713 1747 
Q 3713 922 3314 415 
Q 2916 -91 2278 -91 
Q 1894 -91 1617 61 
Q 1341 213 1159 525 
z
M 3116 1747 
Q 3116 2381 2855 2742 
Q 2594 3103 2138 3103 
Q 1681 3103 1420 2742 
Q 1159 2381 1159 1747 
Q 1159 1113 1420 752 
Q 1681 391 2138 391 
Q 2594 391 2855 752 
Q 3116 1113 3116 1747 
z
" id="DejaVuSans-70" transform="scale(0.015625)"/>
       <path d="M 1959 3097 
Q 1497 3097 1228 2736 
Q 959 2375 959 1747 
Q 959 1119 1226 758 
Q 1494 397 1959 397 
Q 2419 397 2687 759 
Q 2956 1122 2956 1747 
Q 2956 2369 2687 2733 
Q 2419 3097 1959 3097 
z
M 1959 3584 
Q 2709 3584 3137 3096 
Q 3566 2609 3566 1747 
Q 3566 888 3137 398 
Q 2709 -91 1959 -91 
Q 1206 -91 779 398 
Q 353 888 353 1747 
Q 353 2609 779 3096 
Q 1206 3584 1959 3584 
z
" id="DejaVuSans-6f" transform="scale(0.015625)"/>
       <path d="M 3122 3366 
L 3122 2828 
Q 2878 2963 2633 3030 
Q 2388 3097 2138 3097 
Q 1578 3097 1268 2742 
Q 959 2388 959 1747 
Q 959 1106 1268 751 
Q 1578 397 2138 397 
Q 2388 397 2633 464 
Q 2878 531 3122 666 
L 3122 134 
Q 2881 22 2623 -34 
Q 2366 -91 2075 -91 
Q 1284 -91 818 406 
Q 353 903 353 1747 
Q 353 2603 823 3093 
Q 1294 3584 2113 3584 
Q 2378 3584 2631 3529 
Q 2884 3475 3122 3366 
z
" id="DejaVuSans-63" transform="scale(0.015625)"/>
       <path d="M 3513 2113 
L 3513 0 
L 2938 0 
L 2938 2094 
Q 2938 2591 2744 2837 
Q 2550 3084 2163 3084 
Q 1697 3084 1428 2787 
Q 1159 2491 1159 1978 
L 1159 0 
L 581 0 
L 581 4863 
L 1159 4863 
L 1159 2956 
Q 1366 3272 1645 3428 
Q 1925 3584 2291 3584 
Q 2894 3584 3203 3211 
Q 3513 2838 3513 2113 
z
" id="DejaVuSans-68" transform="scale(0.015625)"/>
       <path d="M 2834 3397 
L 2834 2853 
Q 2591 2978 2328 3040 
Q 2066 3103 1784 3103 
Q 1356 3103 1142 2972 
Q 928 2841 928 2578 
Q 928 2378 1081 2264 
Q 1234 2150 1697 2047 
L 1894 2003 
Q 2506 1872 2764 1633 
Q 3022 1394 3022 966 
Q 3022 478 2636 193 
Q 2250 -91 1575 -91 
Q 1294 -91 989 -36 
Q 684 19 347 128 
L 347 722 
Q 666 556 975 473 
Q 1284 391 1588 391 
Q 1994 391 2212 530 
Q 2431 669 2431 922 
Q 2431 1156 2273 1281 
Q 2116 1406 1581 1522 
L 1381 1569 
Q 847 1681 609 1914 
Q 372 2147 372 2553 
Q 372 3047 722 3315 
Q 1072 3584 1716 3584 
Q 2034 3584 2315 3537 
Q 2597 3491 2834 3397 
z
" id="DejaVuSans-73" transform="scale(0.015625)"/>
      </defs>
      <use xlink:href="#DejaVuSans-45"/>
      <use x="63.183594" xlink:href="#DejaVuSans-70"/>
      <use x="126.660156" xlink:href="#DejaVuSans-6f"/>
      <use x="187.841797" xlink:href="#DejaVuSans-63"/>
      <use x="242.822266" xlink:href="#DejaVuSans-68"/>
      <use x="306.201172" xlink:href="#DejaVuSans-73"/>
     </g>
    </g>
   </g>
   <g id="matplotlib.axis_2">
    <g id="ytick_1">
     <g id="line2d_11">
      <defs>
       <path d="M 0 0 
L -3.5 0 
" id="me399ec16b6" style="stroke:#000000;stroke-width:0.8;"/>
      </defs>
      <g>
       <use style="stroke:#000000;stroke-width:0.8;" x="57.6" xlink:href="#me399ec16b6" y="299.818832"/>
      </g>
     </g>
     <g id="text_12">
      <!-- 20 -->
      <g transform="translate(37.875 303.61805)scale(0.1 -0.1)">
       <use xlink:href="#DejaVuSans-32"/>
       <use x="63.623047" xlink:href="#DejaVuSans-30"/>
      </g>
     </g>
    </g>
    <g id="ytick_2">
     <g id="line2d_12">
      <g>
       <use style="stroke:#000000;stroke-width:0.8;" x="57.6" xlink:href="#me399ec16b6" y="267.207147"/>
      </g>
     </g>
     <g id="text_13">
      <!-- 30 -->
      <g transform="translate(37.875 271.006366)scale(0.1 -0.1)">
       <use xlink:href="#DejaVuSans-33"/>
       <use x="63.623047" xlink:href="#DejaVuSans-30"/>
      </g>
     </g>
    </g>
    <g id="ytick_3">
     <g id="line2d_13">
      <g>
       <use style="stroke:#000000;stroke-width:0.8;" x="57.6" xlink:href="#me399ec16b6" y="234.595462"/>
      </g>
     </g>
     <g id="text_14">
      <!-- 40 -->
      <g transform="translate(37.875 238.394681)scale(0.1 -0.1)">
       <use xlink:href="#DejaVuSans-34"/>
       <use x="63.623047" xlink:href="#DejaVuSans-30"/>
      </g>
     </g>
    </g>
    <g id="ytick_4">
     <g id="line2d_14">
      <g>
       <use style="stroke:#000000;stroke-width:0.8;" x="57.6" xlink:href="#me399ec16b6" y="201.983777"/>
      </g>
     </g>
     <g id="text_15">
      <!-- 50 -->
      <g transform="translate(37.875 205.782996)scale(0.1 -0.1)">
       <use xlink:href="#DejaVuSans-35"/>
       <use x="63.623047" xlink:href="#DejaVuSans-30"/>
      </g>
     </g>
    </g>
    <g id="ytick_5">
     <g id="line2d_15">
      <g>
       <use style="stroke:#000000;stroke-width:0.8;" x="57.6" xlink:href="#me399ec16b6" y="169.372093"/>
      </g>
     </g>
     <g id="text_16">
      <!-- 60 -->
      <g transform="translate(37.875 173.171311)scale(0.1 -0.1)">
       <use xlink:href="#DejaVuSans-36"/>
       <use x="63.623047" xlink:href="#DejaVuSans-30"/>
      </g>
     </g>
    </g>
    <g id="ytick_6">
     <g id="line2d_16">
      <g>
       <use style="stroke:#000000;stroke-width:0.8;" x="57.6" xlink:href="#me399ec16b6" y="136.760408"/>
      </g>
     </g>
     <g id="text_17">
      <!-- 70 -->
      <g transform="translate(37.875 140.559627)scale(0.1 -0.1)">
       <use xlink:href="#DejaVuSans-37"/>
       <use x="63.623047" xlink:href="#DejaVuSans-30"/>
      </g>
     </g>
    </g>
    <g id="ytick_7">
     <g id="line2d_17">
      <g>
       <use style="stroke:#000000;stroke-width:0.8;" x="57.6" xlink:href="#me399ec16b6" y="104.148723"/>
      </g>
     </g>
     <g id="text_18">
      <!-- 80 -->
      <g transform="translate(37.875 107.947942)scale(0.1 -0.1)">
       <use xlink:href="#DejaVuSans-38"/>
       <use x="63.623047" xlink:href="#DejaVuSans-30"/>
      </g>
     </g>
    </g>
    <g id="ytick_8">
     <g id="line2d_18">
      <g>
       <use style="stroke:#000000;stroke-width:0.8;" x="57.6" xlink:href="#me399ec16b6" y="71.537038"/>
      </g>
     </g>
     <g id="text_19">
      <!-- 90 -->
      <g transform="translate(37.875 75.336257)scale(0.1 -0.1)">
       <use xlink:href="#DejaVuSans-39"/>
       <use x="63.623047" xlink:href="#DejaVuSans-30"/>
      </g>
     </g>
    </g>
    <g id="text_20">
     <!-- Accuracy -->
     <g transform="translate(31.795312 197.356125)rotate(-90)scale(0.1 -0.1)">
      <defs>
       <path d="M 2188 4044 
L 1331 1722 
L 3047 1722 
L 2188 4044 
z
M 1831 4666 
L 2547 4666 
L 4325 0 
L 3669 0 
L 3244 1197 
L 1141 1197 
L 716 0 
L 50 0 
L 1831 4666 
z
" id="DejaVuSans-41" transform="scale(0.015625)"/>
       <path d="M 544 1381 
L 544 3500 
L 1119 3500 
L 1119 1403 
Q 1119 906 1312 657 
Q 1506 409 1894 409 
Q 2359 409 2629 706 
Q 2900 1003 2900 1516 
L 2900 3500 
L 3475 3500 
L 3475 0 
L 2900 0 
L 2900 538 
Q 2691 219 2414 64 
Q 2138 -91 1772 -91 
Q 1169 -91 856 284 
Q 544 659 544 1381 
z
M 1991 3584 
L 1991 3584 
z
" id="DejaVuSans-75" transform="scale(0.015625)"/>
       <path d="M 2631 2963 
Q 2534 3019 2420 3045 
Q 2306 3072 2169 3072 
Q 1681 3072 1420 2755 
Q 1159 2438 1159 1844 
L 1159 0 
L 581 0 
L 581 3500 
L 1159 3500 
L 1159 2956 
Q 1341 3275 1631 3429 
Q 1922 3584 2338 3584 
Q 2397 3584 2469 3576 
Q 2541 3569 2628 3553 
L 2631 2963 
z
" id="DejaVuSans-72" transform="scale(0.015625)"/>
       <path d="M 2194 1759 
Q 1497 1759 1228 1600 
Q 959 1441 959 1056 
Q 959 750 1161 570 
Q 1363 391 1709 391 
Q 2188 391 2477 730 
Q 2766 1069 2766 1631 
L 2766 1759 
L 2194 1759 
z
M 3341 1997 
L 3341 0 
L 2766 0 
L 2766 531 
Q 2569 213 2275 61 
Q 1981 -91 1556 -91 
Q 1019 -91 701 211 
Q 384 513 384 1019 
Q 384 1609 779 1909 
Q 1175 2209 1959 2209 
L 2766 2209 
L 2766 2266 
Q 2766 2663 2505 2880 
Q 2244 3097 1772 3097 
Q 1472 3097 1187 3025 
Q 903 2953 641 2809 
L 641 3341 
Q 956 3463 1253 3523 
Q 1550 3584 1831 3584 
Q 2591 3584 2966 3190 
Q 3341 2797 3341 1997 
z
" id="DejaVuSans-61" transform="scale(0.015625)"/>
       <path d="M 2059 -325 
Q 1816 -950 1584 -1140 
Q 1353 -1331 966 -1331 
L 506 -1331 
L 506 -850 
L 844 -850 
Q 1081 -850 1212 -737 
Q 1344 -625 1503 -206 
L 1606 56 
L 191 3500 
L 800 3500 
L 1894 763 
L 2988 3500 
L 3597 3500 
L 2059 -325 
z
" id="DejaVuSans-79" transform="scale(0.015625)"/>
      </defs>
      <use xlink:href="#DejaVuSans-41"/>
      <use x="66.658203" xlink:href="#DejaVuSans-63"/>
      <use x="121.638672" xlink:href="#DejaVuSans-63"/>
      <use x="176.619141" xlink:href="#DejaVuSans-75"/>
      <use x="239.998047" xlink:href="#DejaVuSans-72"/>
      <use x="281.111328" xlink:href="#DejaVuSans-61"/>
      <use x="342.390625" xlink:href="#DejaVuSans-63"/>
      <use x="397.371094" xlink:href="#DejaVuSans-79"/>
     </g>
    </g>
   </g>
   <g id="line2d_19">
    <path clip-path="url(#p26152b5736)" d="M 73.832727 295.488 
L 74.707807 275.105697 
L 75.582887 260.286947 
L 76.457966 248.638054 
L 77.333046 239.839421 
L 78.208125 226.683867 
L 79.083205 219.29406 
L 79.958285 214.121846 
L 80.833364 206.223296 
L 81.708444 196.426746 
L 82.583524 197.77687 
L 83.458603 191.476293 
L 84.333683 212.941303 
L 85.208763 213.286987 
L 86.083842 201.729406 
L 86.958922 203.907867 
L 87.834001 190.152258 
L 88.709081 191.319756 
L 89.584161 189.089117 
L 90.45924 183.851681 
L 91.33432 182.527646 
L 92.2094 169.293825 
L 93.084479 167.676285 
L 93.959559 168.537234 
L 94.834639 161.434409 
L 95.709718 160.743041 
L 96.584798 167.571928 
L 97.459877 162.38667 
L 98.334957 163.378065 
L 99.210037 153.079295 
L 100.085116 157.038353 
L 100.960196 149.446353 
L 102.710355 153.242353 
L 103.585435 149.426786 
L 104.460515 143.921934 
L 105.335594 170.748306 
L 106.210674 175.953131 
L 107.085753 163.697659 
L 107.960833 164.049866 
L 108.835913 169.743866 
L 109.710992 166.013089 
L 110.586072 168.97423 
L 111.461152 160.312567 
L 112.336231 160.625639 
L 113.211311 160.534326 
L 114.086391 158.381955 
L 114.96147 159.164635 
L 115.83655 157.527529 
L 116.71163 159.973405 
L 117.586709 149.674635 
L 118.461789 150.150766 
L 119.336868 146.511302 
L 120.211948 146.146051 
L 121.087028 154.298972 
L 121.962107 153.783707 
L 122.837187 151.409577 
L 123.712267 150.685597 
L 124.587346 143.537116 
L 125.462426 146.556958 
L 127.212585 131.96649 
L 128.087665 148.891955 
L 128.962744 140.034621 
L 129.837824 139.480222 
L 130.712904 140.823824 
L 131.587983 128.842291 
L 132.463063 135.892937 
L 133.338143 140.262903 
L 134.213222 138.717109 
L 135.088302 136.512559 
L 135.963382 124.2897 
L 136.838461 129.866298 
L 137.713541 131.281645 
L 138.58862 130.844648 
L 139.4637 135.98425 
L 140.33878 124.674517 
L 141.213859 121.211157 
L 142.088939 120.200194 
L 142.964019 120.474132 
L 143.839098 116.736833 
L 144.714178 127.250841 
L 145.589258 126.57904 
L 146.464337 121.928614 
L 147.339417 150.007274 
L 148.214496 152.59012 
L 149.089576 154.090257 
L 149.964656 149.100669 
L 150.839735 150.313824 
L 151.714815 142.402229 
L 152.589895 136.212532 
L 153.464974 146.485212 
L 154.340054 142.754436 
L 155.215134 140.934704 
L 156.090213 140.269425 
L 156.965293 139.206284 
L 157.840372 148.128841 
L 158.715452 138.221411 
L 159.590532 146.765673 
L 160.465611 138.299679 
L 161.340691 140.641198 
L 162.215771 132.964408 
L 163.09085 135.332016 
L 163.96593 132.879617 
L 164.84101 134.262353 
L 165.716089 130.329384 
L 166.591169 137.810504 
L 167.466248 131.633851 
L 168.341328 137.027824 
L 169.216408 134.47759 
L 170.091487 135.664655 
L 170.966567 129.011872 
L 171.841647 135.45594 
L 172.716726 134.099294 
L 173.591806 133.029631 
L 174.466886 131.392525 
L 175.341965 127.316064 
L 176.217045 134.934154 
L 177.092124 123.246126 
L 177.967204 124.902799 
L 178.842284 122.678682 
L 179.717363 129.977177 
L 180.592443 135.416806 
L 181.467523 116.241136 
L 182.342602 127.348676 
L 183.217682 131.079452 
L 184.092762 124.602772 
L 184.967841 131.444703 
L 185.842921 132.501322 
L 186.718 129.514092 
L 187.59308 128.86838 
L 189.343239 120.780682 
L 190.218319 124.054895 
L 191.093399 128.698799 
L 191.968478 119.37838 
L 192.843558 120.428476 
L 193.718638 114.988847 
L 195.468797 118.608744 
L 196.343877 116.097644 
L 197.218956 120.46761 
L 198.094036 118.941383 
L 198.969115 114.284435 
L 199.844195 119.319679 
L 200.719275 121.745988 
L 201.594354 118.536998 
L 202.469434 117.226009 
L 203.344514 111.695067 
L 204.219593 111.179802 
L 205.094673 114.297479 
L 205.969753 120.715459 
L 206.844832 107.859933 
L 207.719912 118.002167 
L 208.594991 118.256538 
L 209.470071 115.497589 
L 210.345151 108.18605 
L 211.22023 117.656483 
L 212.09531 107.664263 
L 212.97039 106.124991 
L 213.845469 112.771253 
L 214.720549 111.081967 
L 215.595629 113.123459 
L 216.470708 108.629569 
L 217.345788 98.109039 
L 218.220867 113.253905 
L 219.095947 112.673417 
L 219.971027 97.535073 
L 220.846106 108.740448 
L 221.721186 107.781665 
L 222.596266 110.775417 
L 223.471345 106.496764 
L 224.346425 112.497314 
L 225.221505 104.592242 
L 226.096584 98.36341 
L 226.971664 114.995369 
L 227.846743 101.755025 
L 228.721823 98.102517 
L 229.596903 110.3906 
L 230.471982 115.901974 
L 231.347062 132.905707 
L 232.222142 132.279562 
L 233.097221 129.116229 
L 233.972301 132.507844 
L 234.847381 125.907239 
L 235.72246 126.311624 
L 236.59754 128.900992 
L 237.472619 123.911404 
L 238.347699 131.777342 
L 239.222779 127.700882 
L 240.097858 130.994662 
L 240.972938 131.731686 
L 241.848018 136.440813 
L 242.723097 130.668545 
L 243.598177 121.491617 
L 244.473257 124.491892 
L 245.348336 128.092222 
L 246.223416 120.506744 
L 247.098495 127.622614 
L 247.973575 131.783865 
L 248.848655 123.878792 
L 249.723734 131.816476 
L 250.598814 124.146208 
L 251.473894 125.18326 
L 252.348973 121.289425 
L 253.224053 124.400579 
L 254.099133 129.422779 
L 254.974212 126.415981 
L 255.849292 117.597782 
L 256.724371 128.927081 
L 257.599451 132.018669 
L 258.474531 116.234613 
L 259.34961 122.633026 
L 260.22469 122.156895 
L 261.09977 123.950538 
L 261.974849 128.627054 
L 262.849929 123.291782 
L 263.725009 122.86783 
L 264.600088 123.944016 
L 265.475168 120.408909 
L 266.350247 121.367693 
L 267.225327 121.609019 
L 268.100407 130.648978 
L 268.975486 122.417789 
L 269.850566 119.254455 
L 270.725646 116.789012 
L 271.600725 125.287617 
L 272.475805 124.589727 
L 273.350885 115.491067 
L 274.225964 121.139411 
L 275.101044 120.108882 
L 275.976123 121.426394 
L 276.851203 118.797892 
L 277.726283 123.461363 
L 278.601362 118.837026 
L 279.476442 119.280545 
L 280.351522 125.228916 
L 281.226601 119.750153 
L 282.101681 124.126641 
L 282.976761 122.959143 
L 283.85184 119.052263 
L 284.72692 116.332449 
L 285.602 119.665363 
L 286.477079 114.473582 
L 287.352159 115.706304 
L 288.227238 113.664813 
L 289.102318 118.236971 
L 289.977398 119.287067 
L 290.852477 112.614716 
L 291.727557 109.249191 
L 292.602637 111.884215 
L 293.477716 112.947356 
L 294.352796 113.703947 
L 295.227876 122.319954 
L 296.102955 112.640806 
L 296.978035 118.113047 
L 297.853114 119.287067 
L 298.728194 110.540613 
L 299.603274 119.789287 
L 300.478353 112.914744 
L 301.353433 115.55629 
L 302.228513 105.746696 
L 303.103592 115.445411 
L 303.978672 105.648861 
L 304.853752 112.392957 
L 305.728831 114.056153 
L 306.603911 114.812744 
L 307.47899 115.784572 
L 308.35407 108.036036 
L 309.22915 117.773885 
L 310.104229 119.306634 
L 310.979309 119.776242 
L 311.854389 117.134696 
L 312.729468 106.203259 
L 313.604548 122.235163 
L 314.479628 108.512167 
L 315.354707 107.025074 
L 316.229787 105.903232 
L 317.104866 103.816084 
L 317.979946 113.345218 
L 318.855026 107.859933 
L 319.730105 107.85341 
L 320.605185 108.544778 
L 321.480265 107.07073 
L 322.355344 114.780132 
L 323.230424 108.238228 
L 324.105504 109.223101 
L 324.980583 109.953603 
L 325.855663 112.490792 
L 326.730742 100.698407 
L 327.605822 116.071555 
L 328.480902 104.566153 
L 329.355981 110.958043 
L 330.231061 107.762098 
L 331.106141 111.995094 
L 331.98122 106.033678 
L 332.8563 114.127899 
L 333.73138 107.031596 
L 334.606459 104.25308 
L 335.481539 106.392407 
L 336.356618 100.430991 
L 337.231698 102.811644 
L 338.106778 114.036586 
L 338.981857 113.436531 
L 339.856937 111.78638 
L 340.732017 104.200902 
L 341.607096 103.953053 
L 342.482176 104.729211 
L 343.357256 111.271115 
L 344.232335 109.960125 
L 345.107415 107.455548 
L 345.982494 99.615699 
L 346.857574 104.957493 
L 347.732654 101.435431 
L 348.607733 101.037568 
L 350.357893 98.304709 
L 351.232972 99.596132 
L 352.108052 102.994269 
L 352.983132 107.833843 
L 353.858211 98.304709 
L 354.733291 103.392132 
L 355.60837 101.552833 
L 356.48345 107.931679 
L 357.35853 95.48706 
L 358.233609 95.610984 
L 359.108689 106.105424 
L 359.983769 99.550476 
L 360.858848 109.105699 
L 361.733928 96.426276 
L 362.609008 102.935568 
L 363.484087 96.641513 
L 364.359167 101.259328 
L 365.234247 97.46985 
L 366.109326 100.144008 
L 366.984406 97.626386 
L 367.859485 99.420029 
L 368.734565 88.527726 
L 369.609645 98.148173 
L 370.484724 99.504819 
L 371.359804 101.115836 
L 372.234884 90.66053 
L 373.109963 97.404627 
L 373.985043 93.041183 
L 374.860123 96.693692 
L 375.735202 97.763355 
L 376.610282 101.474565 
L 378.360441 93.093362 
L 379.235521 104.011754 
L 380.1106 95.467493 
L 380.98568 100.085307 
L 381.86076 92.995527 
L 382.735839 101.598489 
L 383.610919 89.310407 
L 384.485999 95.943623 
L 385.361078 97.893802 
L 386.236158 98.037293 
L 387.111237 93.119451 
L 387.986317 100.548393 
L 388.861397 99.126524 
L 389.736476 105.824964 
L 390.611556 91.482345 
L 391.486636 95.937101 
L 392.361715 89.695224 
L 393.236795 93.497747 
L 394.111875 91.462778 
L 394.986954 89.969163 
L 395.862034 93.876042 
L 396.737113 92.565053 
L 397.612193 99.074345 
L 398.487273 92.643321 
L 398.487273 92.643321 
" style="fill:none;stroke:#1f77b4;stroke-linecap:square;stroke-width:1.5;"/>
   </g>
   <g id="line2d_20">
    <path clip-path="url(#p26152b5736)" d="M 73.832727 260.586975 
L 74.707807 229.508039 
L 76.457966 209.158348 
L 77.333046 207.364705 
L 79.083205 177.720684 
L 79.958285 169.209034 
L 80.833364 164.643398 
L 81.708444 152.218346 
L 82.583524 137.510477 
L 83.458603 139.499789 
L 84.333683 216.36553 
L 85.208763 159.001577 
L 86.083842 149.707247 
L 86.958922 179.318656 
L 87.834001 145.826456 
L 88.709081 196.537626 
L 89.584161 139.336731 
L 90.45924 127.955253 
L 91.33432 129.129274 
L 92.2094 123.226559 
L 93.084479 165.491302 
L 93.959559 118.921816 
L 94.834639 124.204909 
L 95.709718 114.030064 
L 96.584798 112.660373 
L 97.459877 101.474565 
L 98.334957 101.865905 
L 99.210037 95.441403 
L 100.085116 96.093637 
L 100.960196 94.365218 
L 101.835276 95.408792 
L 102.710355 94.528276 
L 103.585435 94.299994 
L 104.460515 93.223809 
L 105.335594 143.152298 
L 106.210674 123.878792 
L 107.085753 125.5746 
L 107.960833 107.866455 
L 108.835913 115.856318 
L 109.710992 116.899892 
L 110.586072 106.268483 
L 111.461152 104.507452 
L 112.336231 106.333706 
L 113.211311 101.115836 
L 114.086391 116.0846 
L 114.96147 101.441953 
L 115.83655 105.192297 
L 116.71163 103.789995 
L 117.586709 99.876592 
L 118.461789 91.364943 
L 119.336868 90.35398 
L 120.211948 111.192847 
L 121.087028 109.692709 
L 121.962107 97.430716 
L 122.837187 100.594049 
L 123.712267 89.082125 
L 124.587346 85.984015 
L 125.462426 92.180235 
L 126.337506 96.713259 
L 127.212585 79.005114 
L 128.087665 83.929479 
L 128.962744 82.135836 
L 129.837824 84.059925 
L 130.712904 78.744221 
L 131.587983 78.255045 
L 132.463063 76.98319 
L 133.338143 81.45099 
L 134.213222 74.537313 
L 135.088302 75.0591 
L 136.838461 73.461128 
L 137.713541 72.319719 
L 138.58862 76.037451 
L 139.4637 70.754358 
L 140.33878 70.819581 
L 141.213859 69.547726 
L 142.088939 71.17831 
L 142.964019 69.743396 
L 143.839098 69.906454 
L 144.714178 69.612949 
L 145.589258 69.091162 
L 146.464337 69.482502 
L 147.339417 101.96374 
L 148.214496 108.812194 
L 149.089576 86.179685 
L 149.964656 86.244908 
L 150.839735 92.408517 
L 151.714815 89.37563 
L 152.589895 85.527451 
L 153.464974 91.169273 
L 154.340054 88.136386 
L 155.215134 87.418929 
L 156.090213 80.896592 
L 156.965293 89.701747 
L 157.840372 82.038001 
L 158.715452 85.723121 
L 159.590532 100.430991 
L 160.465611 83.799032 
L 161.340691 85.429616 
L 162.215771 85.657898 
L 163.09085 80.570475 
L 163.96593 82.951128 
L 164.84101 82.885905 
L 165.716089 85.331781 
L 167.466248 79.037726 
L 168.341328 79.592124 
L 169.216408 78.972502 
L 170.091487 82.98374 
L 170.966567 74.145973 
L 171.841647 78.222434 
L 172.716726 83.17941 
L 173.591806 76.78752 
L 174.466886 77.96154 
L 175.341965 83.603362 
L 176.217045 74.211196 
L 177.092124 70.917416 
L 177.967204 74.145973 
L 178.842284 75.124324 
L 179.717363 76.657073 
L 181.467523 73.200234 
L 182.342602 70.493464 
L 183.217682 72.906729 
L 184.092762 72.221884 
L 184.967841 72.35233 
L 185.842921 75.646111 
L 186.718 72.939341 
L 187.59308 74.113361 
L 188.46816 68.634598 
L 189.343239 67.656248 
L 190.218319 71.634873 
L 191.093399 69.05855 
L 191.968478 68.504152 
L 192.843558 67.134461 
L 193.718638 67.68886 
L 194.593717 67.330131 
L 195.468797 67.101849 
L 196.343877 68.928104 
L 197.218956 64.851643 
L 198.094036 68.830268 
L 198.969115 68.0802 
L 199.844195 64.329856 
L 200.719275 66.253945 
L 201.594354 63.645011 
L 202.469434 64.753808 
L 203.344514 65.210371 
L 204.219593 63.808069 
L 205.094673 64.297244 
L 205.969753 62.47099 
L 206.844832 64.003739 
L 207.719912 63.351505 
L 208.594991 61.296969 
L 209.470071 62.86233 
L 210.345151 62.112261 
L 211.22023 62.014426 
L 212.09531 61.68831 
L 212.97039 62.340543 
L 213.845469 62.536213 
L 214.720549 61.101299 
L 215.595629 60.742571 
L 216.470708 60.709959 
L 217.345788 61.916591 
L 218.220867 59.862055 
L 219.971027 60.253395 
L 220.846106 60.057725 
L 222.596266 58.883705 
L 223.471345 59.633773 
L 224.346425 59.731608 
L 225.221505 59.079375 
L 226.096584 59.862055 
L 226.971664 58.753258 
L 228.721823 59.014151 
L 229.596903 60.481677 
L 230.471982 59.698997 
L 231.347062 92.441128 
L 232.222142 74.896042 
L 233.097221 84.679547 
L 233.972301 74.798207 
L 234.847381 79.005114 
L 235.72246 76.722296 
L 236.59754 82.592399 
L 237.472619 80.113911 
L 238.347699 72.971952 
L 239.222779 74.700372 
L 240.097858 75.776557 
L 240.972938 79.950853 
L 241.848018 74.765595 
L 242.723097 81.581437 
L 243.598177 76.591849 
L 244.473257 75.0591 
L 245.348336 71.602262 
L 246.223416 71.015251 
L 247.098495 73.298069 
L 247.973575 82.559788 
L 249.723734 68.895492 
L 250.598814 72.319719 
L 251.473894 70.036901 
L 252.348973 82.690235 
L 253.224053 72.450165 
L 254.099133 70.134736 
L 254.974212 80.700922 
L 255.849292 74.47209 
L 256.724371 78.091987 
L 257.599451 72.776282 
L 258.474531 74.113361 
L 259.34961 73.819856 
L 260.22469 78.809444 
L 261.09977 74.537313 
L 261.974849 74.113361 
L 262.849929 69.873842 
L 263.725009 72.319719 
L 264.600088 71.700097 
L 265.475168 67.949753 
L 266.350247 67.330131 
L 267.225327 70.036901 
L 268.100407 70.884805 
L 268.975486 72.613224 
L 269.850566 67.427966 
L 270.725646 69.743396 
L 271.600725 68.765045 
L 272.475805 71.145698 
L 273.350885 72.678447 
L 274.225964 69.05855 
L 275.101044 69.547726 
L 275.976123 68.112811 
L 276.851203 68.928104 
L 277.726283 75.0591 
L 278.601362 68.145423 
L 279.476442 65.601712 
L 280.351522 69.841231 
L 281.226601 67.330131 
L 282.101681 68.569375 
L 282.976761 66.482227 
L 283.85184 66.873567 
L 284.72692 66.025664 
L 285.602 66.873567 
L 286.477079 68.960715 
L 287.352159 66.840956 
L 288.227238 68.569375 
L 289.102318 71.210921 
L 289.977398 63.840681 
L 290.852477 67.525801 
L 291.727557 64.851643 
L 292.602637 68.145423 
L 293.477716 67.623636 
L 294.352796 64.78642 
L 295.227876 67.297519 
L 296.102955 65.406042 
L 296.978035 66.417004 
L 298.728194 65.76477 
L 299.603274 64.036351 
L 300.478353 63.710234 
L 301.353433 64.362468 
L 302.228513 66.319169 
L 303.103592 67.264908 
L 303.978672 64.78642 
L 304.853752 67.88453 
L 305.728831 65.438653 
L 306.603911 66.253945 
L 307.47899 64.362468 
L 308.35407 63.090612 
L 309.22915 66.906179 
L 310.104229 62.405767 
L 310.979309 65.210371 
L 311.854389 66.058275 
L 312.729468 60.807794 
L 313.604548 62.014426 
L 314.479628 61.101299 
L 315.354707 60.546901 
L 316.229787 62.112261 
L 317.104866 61.786145 
L 317.979946 60.546901 
L 318.855026 65.210371 
L 319.730105 61.655698 
L 320.605185 60.481677 
L 321.480265 60.416454 
L 322.355344 61.296969 
L 323.230424 60.873017 
L 324.105504 59.76422 
L 324.980583 62.047038 
L 325.855663 60.840406 
L 326.730742 61.557863 
L 327.605822 61.720921 
L 328.480902 60.579512 
L 329.355981 59.014151 
L 330.231061 59.144598 
L 331.106141 62.242708 
L 331.98122 59.829443 
L 332.8563 59.698997 
L 333.73138 59.992502 
L 334.606459 59.144598 
L 335.481539 63.155835 
L 336.356618 62.07965 
L 338.106778 57.840131 
L 338.981857 59.503327 
L 339.856937 58.883705 
L 340.732017 58.427141 
L 341.607096 58.622811 
L 342.482176 58.361918 
L 343.357256 57.742296 
L 344.232335 58.622811 
L 345.107415 58.492364 
L 345.982494 57.220509 
L 346.857574 57.807519 
L 347.732654 56.698722 
L 348.607733 57.024839 
L 349.482813 56.86178 
L 350.357893 56.47044 
L 351.232972 55.88343 
L 352.108052 56.600887 
L 352.983132 56.927004 
L 353.858211 56.307382 
L 354.733291 56.339993 
L 355.60837 55.068137 
L 356.48345 55.068137 
L 357.35853 55.916041 
L 359.108689 55.720371 
L 359.983769 56.209546 
L 360.858848 55.589924 
L 361.733928 55.329031 
L 362.609008 56.176935 
L 363.484087 56.47044 
L 364.359167 55.165973 
L 365.234247 55.002914 
L 366.109326 55.655148 
L 366.984406 55.100749 
L 367.859485 55.492089 
L 368.734565 55.068137 
L 369.609645 55.948653 
L 370.484724 55.263808 
L 371.359804 55.394254 
L 373.109963 54.513739 
L 373.985043 55.557313 
L 374.860123 54.644186 
L 375.735202 54.742021 
L 376.610282 55.068137 
L 377.485361 54.513739 
L 378.360441 54.644186 
L 379.235521 54.187622 
L 380.1106 53.95934 
L 380.98568 53.861505 
L 381.86076 54.187622 
L 382.735839 53.731058 
L 383.610919 53.600612 
L 384.485999 54.187622 
L 385.361078 54.578962 
L 386.236158 54.513739 
L 387.111237 54.578962 
L 387.986317 54.35068 
L 388.861397 53.95934 
L 389.736476 53.926729 
L 390.611556 53.698447 
L 392.361715 53.76367 
L 393.236795 54.252845 
L 394.986954 53.568 
L 395.862034 53.665835 
L 396.737113 53.894117 
L 397.612193 53.828893 
L 398.487273 53.894117 
L 398.487273 53.894117 
" style="fill:none;stroke:#ff7f0e;stroke-linecap:square;stroke-width:1.5;"/>
   </g>
   <g id="patch_3">
    <path d="M 57.6 307.584 
L 57.6 41.472 
" style="fill:none;stroke:#000000;stroke-linecap:square;stroke-linejoin:miter;stroke-width:0.8;"/>
   </g>
   <g id="patch_4">
    <path d="M 414.72 307.584 
L 414.72 41.472 
" style="fill:none;stroke:#000000;stroke-linecap:square;stroke-linejoin:miter;stroke-width:0.8;"/>
   </g>
   <g id="patch_5">
    <path d="M 57.6 307.584 
L 414.72 307.584 
" style="fill:none;stroke:#000000;stroke-linecap:square;stroke-linejoin:miter;stroke-width:0.8;"/>
   </g>
   <g id="patch_6">
    <path d="M 57.6 41.472 
L 414.72 41.472 
" style="fill:none;stroke:#000000;stroke-linecap:square;stroke-linejoin:miter;stroke-width:0.8;"/>
   </g>
   <g id="text_21">
    <!-- Training and Validation Accuracy -->
    <g transform="translate(138.4575 35.472)scale(0.12 -0.12)">
     <defs>
      <path d="M -19 4666 
L 3928 4666 
L 3928 4134 
L 2272 4134 
L 2272 0 
L 1638 0 
L 1638 4134 
L -19 4134 
L -19 4666 
z
" id="DejaVuSans-54" transform="scale(0.015625)"/>
      <path d="M 603 3500 
L 1178 3500 
L 1178 0 
L 603 0 
L 603 3500 
z
M 603 4863 
L 1178 4863 
L 1178 4134 
L 603 4134 
L 603 4863 
z
" id="DejaVuSans-69" transform="scale(0.015625)"/>
      <path d="M 3513 2113 
L 3513 0 
L 2938 0 
L 2938 2094 
Q 2938 2591 2744 2837 
Q 2550 3084 2163 3084 
Q 1697 3084 1428 2787 
Q 1159 2491 1159 1978 
L 1159 0 
L 581 0 
L 581 3500 
L 1159 3500 
L 1159 2956 
Q 1366 3272 1645 3428 
Q 1925 3584 2291 3584 
Q 2894 3584 3203 3211 
Q 3513 2838 3513 2113 
z
" id="DejaVuSans-6e" transform="scale(0.015625)"/>
      <path d="M 2906 1791 
Q 2906 2416 2648 2759 
Q 2391 3103 1925 3103 
Q 1463 3103 1205 2759 
Q 947 2416 947 1791 
Q 947 1169 1205 825 
Q 1463 481 1925 481 
Q 2391 481 2648 825 
Q 2906 1169 2906 1791 
z
M 3481 434 
Q 3481 -459 3084 -895 
Q 2688 -1331 1869 -1331 
Q 1566 -1331 1297 -1286 
Q 1028 -1241 775 -1147 
L 775 -588 
Q 1028 -725 1275 -790 
Q 1522 -856 1778 -856 
Q 2344 -856 2625 -561 
Q 2906 -266 2906 331 
L 2906 616 
Q 2728 306 2450 153 
Q 2172 0 1784 0 
Q 1141 0 747 490 
Q 353 981 353 1791 
Q 353 2603 747 3093 
Q 1141 3584 1784 3584 
Q 2172 3584 2450 3431 
Q 2728 3278 2906 2969 
L 2906 3500 
L 3481 3500 
L 3481 434 
z
" id="DejaVuSans-67" transform="scale(0.015625)"/>
      <path id="DejaVuSans-20" transform="scale(0.015625)"/>
      <path d="M 2906 2969 
L 2906 4863 
L 3481 4863 
L 3481 0 
L 2906 0 
L 2906 525 
Q 2725 213 2448 61 
Q 2172 -91 1784 -91 
Q 1150 -91 751 415 
Q 353 922 353 1747 
Q 353 2572 751 3078 
Q 1150 3584 1784 3584 
Q 2172 3584 2448 3432 
Q 2725 3281 2906 2969 
z
M 947 1747 
Q 947 1113 1208 752 
Q 1469 391 1925 391 
Q 2381 391 2643 752 
Q 2906 1113 2906 1747 
Q 2906 2381 2643 2742 
Q 2381 3103 1925 3103 
Q 1469 3103 1208 2742 
Q 947 2381 947 1747 
z
" id="DejaVuSans-64" transform="scale(0.015625)"/>
      <path d="M 1831 0 
L 50 4666 
L 709 4666 
L 2188 738 
L 3669 4666 
L 4325 4666 
L 2547 0 
L 1831 0 
z
" id="DejaVuSans-56" transform="scale(0.015625)"/>
      <path d="M 603 4863 
L 1178 4863 
L 1178 0 
L 603 0 
L 603 4863 
z
" id="DejaVuSans-6c" transform="scale(0.015625)"/>
      <path d="M 1172 4494 
L 1172 3500 
L 2356 3500 
L 2356 3053 
L 1172 3053 
L 1172 1153 
Q 1172 725 1289 603 
Q 1406 481 1766 481 
L 2356 481 
L 2356 0 
L 1766 0 
Q 1100 0 847 248 
Q 594 497 594 1153 
L 594 3053 
L 172 3053 
L 172 3500 
L 594 3500 
L 594 4494 
L 1172 4494 
z
" id="DejaVuSans-74" transform="scale(0.015625)"/>
     </defs>
     <use xlink:href="#DejaVuSans-54"/>
     <use x="46.333984" xlink:href="#DejaVuSans-72"/>
     <use x="87.447266" xlink:href="#DejaVuSans-61"/>
     <use x="148.726562" xlink:href="#DejaVuSans-69"/>
     <use x="176.509766" xlink:href="#DejaVuSans-6e"/>
     <use x="239.888672" xlink:href="#DejaVuSans-69"/>
     <use x="267.671875" xlink:href="#DejaVuSans-6e"/>
     <use x="331.050781" xlink:href="#DejaVuSans-67"/>
     <use x="394.527344" xlink:href="#DejaVuSans-20"/>
     <use x="426.314453" xlink:href="#DejaVuSans-61"/>
     <use x="487.59375" xlink:href="#DejaVuSans-6e"/>
     <use x="550.972656" xlink:href="#DejaVuSans-64"/>
     <use x="614.449219" xlink:href="#DejaVuSans-20"/>
     <use x="646.236328" xlink:href="#DejaVuSans-56"/>
     <use x="706.894531" xlink:href="#DejaVuSans-61"/>
     <use x="768.173828" xlink:href="#DejaVuSans-6c"/>
     <use x="795.957031" xlink:href="#DejaVuSans-69"/>
     <use x="823.740234" xlink:href="#DejaVuSans-64"/>
     <use x="887.216797" xlink:href="#DejaVuSans-61"/>
     <use x="948.496094" xlink:href="#DejaVuSans-74"/>
     <use x="987.705078" xlink:href="#DejaVuSans-69"/>
     <use x="1015.488281" xlink:href="#DejaVuSans-6f"/>
     <use x="1076.669922" xlink:href="#DejaVuSans-6e"/>
     <use x="1140.048828" xlink:href="#DejaVuSans-20"/>
     <use x="1171.835938" xlink:href="#DejaVuSans-41"/>
     <use x="1238.494141" xlink:href="#DejaVuSans-63"/>
     <use x="1293.474609" xlink:href="#DejaVuSans-63"/>
     <use x="1348.455078" xlink:href="#DejaVuSans-75"/>
     <use x="1411.833984" xlink:href="#DejaVuSans-72"/>
     <use x="1452.947266" xlink:href="#DejaVuSans-61"/>
     <use x="1514.226562" xlink:href="#DejaVuSans-63"/>
     <use x="1569.207031" xlink:href="#DejaVuSans-79"/>
    </g>
   </g>
   <g id="legend_1">
    <g id="patch_7">
     <path d="M 277.504375 302.584 
L 407.72 302.584 
Q 409.72 302.584 409.72 300.584 
L 409.72 272.22775 
Q 409.72 270.22775 407.72 270.22775 
L 277.504375 270.22775 
Q 275.504375 270.22775 275.504375 272.22775 
L 275.504375 300.584 
Q 275.504375 302.584 277.504375 302.584 
z
" style="fill:#ffffff;opacity:0.8;stroke:#cccccc;stroke-linejoin:miter;"/>
    </g>
    <g id="line2d_21">
     <path d="M 279.504375 278.326187 
L 299.504375 278.326187 
" style="fill:none;stroke:#1f77b4;stroke-linecap:square;stroke-width:1.5;"/>
    </g>
    <g id="line2d_22"/>
    <g id="text_22">
     <!-- Train Accuracy -->
     <g transform="translate(307.504375 281.826187)scale(0.1 -0.1)">
      <use xlink:href="#DejaVuSans-54"/>
      <use x="46.333984" xlink:href="#DejaVuSans-72"/>
      <use x="87.447266" xlink:href="#DejaVuSans-61"/>
      <use x="148.726562" xlink:href="#DejaVuSans-69"/>
      <use x="176.509766" xlink:href="#DejaVuSans-6e"/>
      <use x="239.888672" xlink:href="#DejaVuSans-20"/>
      <use x="271.675781" xlink:href="#DejaVuSans-41"/>
      <use x="338.333984" xlink:href="#DejaVuSans-63"/>
      <use x="393.314453" xlink:href="#DejaVuSans-63"/>
      <use x="448.294922" xlink:href="#DejaVuSans-75"/>
      <use x="511.673828" xlink:href="#DejaVuSans-72"/>
      <use x="552.787109" xlink:href="#DejaVuSans-61"/>
      <use x="614.066406" xlink:href="#DejaVuSans-63"/>
      <use x="669.046875" xlink:href="#DejaVuSans-79"/>
     </g>
    </g>
    <g id="line2d_23">
     <path d="M 279.504375 293.004312 
L 299.504375 293.004312 
" style="fill:none;stroke:#ff7f0e;stroke-linecap:square;stroke-width:1.5;"/>
    </g>
    <g id="line2d_24"/>
    <g id="text_23">
     <!-- Validation Accuracy -->
     <g transform="translate(307.504375 296.504312)scale(0.1 -0.1)">
      <use xlink:href="#DejaVuSans-56"/>
      <use x="60.658203" xlink:href="#DejaVuSans-61"/>
      <use x="121.9375" xlink:href="#DejaVuSans-6c"/>
      <use x="149.720703" xlink:href="#DejaVuSans-69"/>
      <use x="177.503906" xlink:href="#DejaVuSans-64"/>
      <use x="240.980469" xlink:href="#DejaVuSans-61"/>
      <use x="302.259766" xlink:href="#DejaVuSans-74"/>
      <use x="341.46875" xlink:href="#DejaVuSans-69"/>
      <use x="369.251953" xlink:href="#DejaVuSans-6f"/>
      <use x="430.433594" xlink:href="#DejaVuSans-6e"/>
      <use x="493.8125" xlink:href="#DejaVuSans-20"/>
      <use x="525.599609" xlink:href="#DejaVuSans-41"/>
      <use x="592.257812" xlink:href="#DejaVuSans-63"/>
      <use x="647.238281" xlink:href="#DejaVuSans-63"/>
      <use x="702.21875" xlink:href="#DejaVuSans-75"/>
      <use x="765.597656" xlink:href="#DejaVuSans-72"/>
      <use x="806.710938" xlink:href="#DejaVuSans-61"/>
      <use x="867.990234" xlink:href="#DejaVuSans-63"/>
      <use x="922.970703" xlink:href="#DejaVuSans-79"/>
     </g>
    </g>
   </g>
  </g>
 </g>
 <defs>
  <clipPath id="p26152b5736">
   <rect height="266.112" width="357.12" x="57.6" y="41.472"/>
  </clipPath>
 </defs>
</svg>
