<?xml version="1.0" encoding="utf-8" standalone="no"?>
<!DOCTYPE svg PUBLIC "-//W3C//DTD SVG 1.1//EN"
  "http://www.w3.org/Graphics/SVG/1.1/DTD/svg11.dtd">
<svg xmlns:xlink="http://www.w3.org/1999/xlink" width="460.8pt" height="345.6pt" viewBox="0 0 460.8 345.6" xmlns="http://www.w3.org/2000/svg" version="1.1">
 <metadata>
  <rdf:RDF xmlns:dc="http://purl.org/dc/elements/1.1/" xmlns:cc="http://creativecommons.org/ns#" xmlns:rdf="http://www.w3.org/1999/02/22-rdf-syntax-ns#">
   <cc:Work>
    <dc:type rdf:resource="http://purl.org/dc/dcmitype/StillImage"/>
    <dc:date>2024-09-03T07:37:43.300545</dc:date>
    <dc:format>image/svg+xml</dc:format>
    <dc:creator>
     <cc:Agent>
      <dc:title>Matplotlib v3.9.1, https://matplotlib.org/</dc:title>
     </cc:Agent>
    </dc:creator>
   </cc:Work>
  </rdf:RDF>
 </metadata>
 <defs>
  <style type="text/css">*{stroke-linejoin: round; stroke-linecap: butt}</style>
 </defs>
 <g id="figure_1">
  <g id="patch_1">
   <path d="M 0 345.6 
L 460.8 345.6 
L 460.8 0 
L 0 0 
z
" style="fill: #ffffff"/>
  </g>
  <g id="axes_1">
   <g id="patch_2">
    <path d="M 57.6 307.584 
L 414.72 307.584 
L 414.72 41.472 
L 57.6 41.472 
z
" style="fill: #ffffff"/>
   </g>
   <g id="matplotlib.axis_1">
    <g id="xtick_1">
     <g id="line2d_1">
      <defs>
       <path id="me6497b3552" d="M 0 0 
L 0 3.5 
" style="stroke: #000000; stroke-width: 0.8"/>
      </defs>
      <g>
       <use xlink:href="#me6497b3552" x="73.832727" y="307.584" style="stroke: #000000; stroke-width: 0.8"/>
      </g>
     </g>
     <g id="text_1">
      <!-- 1 -->
      <g transform="translate(70.651477 322.182437) scale(0.1 -0.1)">
       <defs>
        <path id="DejaVuSans-31" d="M 794 531 
L 1825 531 
L 1825 4091 
L 703 3866 
L 703 4441 
L 1819 4666 
L 2450 4666 
L 2450 531 
L 3481 531 
L 3481 0 
L 794 0 
L 794 531 
z
" transform="scale(0.015625)"/>
       </defs>
       <use xlink:href="#DejaVuSans-31"/>
      </g>
     </g>
    </g>
    <g id="xtick_2">
     <g id="line2d_2">
      <g>
       <use xlink:href="#me6497b3552" x="109.262733" y="307.584" style="stroke: #000000; stroke-width: 0.8"/>
      </g>
     </g>
     <g id="text_2">
      <!-- 50 -->
      <g transform="translate(102.900233 322.182437) scale(0.1 -0.1)">
       <defs>
        <path id="DejaVuSans-35" d="M 691 4666 
L 3169 4666 
L 3169 4134 
L 1269 4134 
L 1269 2991 
Q 1406 3038 1543 3061 
Q 1681 3084 1819 3084 
Q 2600 3084 3056 2656 
Q 3513 2228 3513 1497 
Q 3513 744 3044 326 
Q 2575 -91 1722 -91 
Q 1428 -91 1123 -41 
Q 819 9 494 109 
L 494 744 
Q 775 591 1075 516 
Q 1375 441 1709 441 
Q 2250 441 2565 725 
Q 2881 1009 2881 1497 
Q 2881 1984 2565 2268 
Q 2250 2553 1709 2553 
Q 1456 2553 1204 2497 
Q 953 2441 691 2322 
L 691 4666 
z
" transform="scale(0.015625)"/>
        <path id="DejaVuSans-30" d="M 2034 4250 
Q 1547 4250 1301 3770 
Q 1056 3291 1056 2328 
Q 1056 1369 1301 889 
Q 1547 409 2034 409 
Q 2525 409 2770 889 
Q 3016 1369 3016 2328 
Q 3016 3291 2770 3770 
Q 2525 4250 2034 4250 
z
M 2034 4750 
Q 2819 4750 3233 4129 
Q 3647 3509 3647 2328 
Q 3647 1150 3233 529 
Q 2819 -91 2034 -91 
Q 1250 -91 836 529 
Q 422 1150 422 2328 
Q 422 3509 836 4129 
Q 1250 4750 2034 4750 
z
" transform="scale(0.015625)"/>
       </defs>
       <use xlink:href="#DejaVuSans-35"/>
       <use xlink:href="#DejaVuSans-30" x="63.623047"/>
      </g>
     </g>
    </g>
    <g id="xtick_3">
     <g id="line2d_3">
      <g>
       <use xlink:href="#me6497b3552" x="145.415801" y="307.584" style="stroke: #000000; stroke-width: 0.8"/>
      </g>
     </g>
     <g id="text_3">
      <!-- 100 -->
      <g transform="translate(135.872051 322.182437) scale(0.1 -0.1)">
       <use xlink:href="#DejaVuSans-31"/>
       <use xlink:href="#DejaVuSans-30" x="63.623047"/>
       <use xlink:href="#DejaVuSans-30" x="127.246094"/>
      </g>
     </g>
    </g>
    <g id="xtick_4">
     <g id="line2d_4">
      <g>
       <use xlink:href="#me6497b3552" x="181.568868" y="307.584" style="stroke: #000000; stroke-width: 0.8"/>
      </g>
     </g>
     <g id="text_4">
      <!-- 150 -->
      <g transform="translate(172.025118 322.182437) scale(0.1 -0.1)">
       <use xlink:href="#DejaVuSans-31"/>
       <use xlink:href="#DejaVuSans-35" x="63.623047"/>
       <use xlink:href="#DejaVuSans-30" x="127.246094"/>
      </g>
     </g>
    </g>
    <g id="xtick_5">
     <g id="line2d_5">
      <g>
       <use xlink:href="#me6497b3552" x="217.721936" y="307.584" style="stroke: #000000; stroke-width: 0.8"/>
      </g>
     </g>
     <g id="text_5">
      <!-- 200 -->
      <g transform="translate(208.178186 322.182437) scale(0.1 -0.1)">
       <defs>
        <path id="DejaVuSans-32" d="M 1228 531 
L 3431 531 
L 3431 0 
L 469 0 
L 469 531 
Q 828 903 1448 1529 
Q 2069 2156 2228 2338 
Q 2531 2678 2651 2914 
Q 2772 3150 2772 3378 
Q 2772 3750 2511 3984 
Q 2250 4219 1831 4219 
Q 1534 4219 1204 4116 
Q 875 4013 500 3803 
L 500 4441 
Q 881 4594 1212 4672 
Q 1544 4750 1819 4750 
Q 2544 4750 2975 4387 
Q 3406 4025 3406 3419 
Q 3406 3131 3298 2873 
Q 3191 2616 2906 2266 
Q 2828 2175 2409 1742 
Q 1991 1309 1228 531 
z
" transform="scale(0.015625)"/>
       </defs>
       <use xlink:href="#DejaVuSans-32"/>
       <use xlink:href="#DejaVuSans-30" x="63.623047"/>
       <use xlink:href="#DejaVuSans-30" x="127.246094"/>
      </g>
     </g>
    </g>
    <g id="xtick_6">
     <g id="line2d_6">
      <g>
       <use xlink:href="#me6497b3552" x="253.875003" y="307.584" style="stroke: #000000; stroke-width: 0.8"/>
      </g>
     </g>
     <g id="text_6">
      <!-- 250 -->
      <g transform="translate(244.331253 322.182437) scale(0.1 -0.1)">
       <use xlink:href="#DejaVuSans-32"/>
       <use xlink:href="#DejaVuSans-35" x="63.623047"/>
       <use xlink:href="#DejaVuSans-30" x="127.246094"/>
      </g>
     </g>
    </g>
    <g id="xtick_7">
     <g id="line2d_7">
      <g>
       <use xlink:href="#me6497b3552" x="290.02807" y="307.584" style="stroke: #000000; stroke-width: 0.8"/>
      </g>
     </g>
     <g id="text_7">
      <!-- 300 -->
      <g transform="translate(280.48432 322.182437) scale(0.1 -0.1)">
       <defs>
        <path id="DejaVuSans-33" d="M 2597 2516 
Q 3050 2419 3304 2112 
Q 3559 1806 3559 1356 
Q 3559 666 3084 287 
Q 2609 -91 1734 -91 
Q 1441 -91 1130 -33 
Q 819 25 488 141 
L 488 750 
Q 750 597 1062 519 
Q 1375 441 1716 441 
Q 2309 441 2620 675 
Q 2931 909 2931 1356 
Q 2931 1769 2642 2001 
Q 2353 2234 1838 2234 
L 1294 2234 
L 1294 2753 
L 1863 2753 
Q 2328 2753 2575 2939 
Q 2822 3125 2822 3475 
Q 2822 3834 2567 4026 
Q 2313 4219 1838 4219 
Q 1578 4219 1281 4162 
Q 984 4106 628 3988 
L 628 4550 
Q 988 4650 1302 4700 
Q 1616 4750 1894 4750 
Q 2613 4750 3031 4423 
Q 3450 4097 3450 3541 
Q 3450 3153 3228 2886 
Q 3006 2619 2597 2516 
z
" transform="scale(0.015625)"/>
       </defs>
       <use xlink:href="#DejaVuSans-33"/>
       <use xlink:href="#DejaVuSans-30" x="63.623047"/>
       <use xlink:href="#DejaVuSans-30" x="127.246094"/>
      </g>
     </g>
    </g>
    <g id="xtick_8">
     <g id="line2d_8">
      <g>
       <use xlink:href="#me6497b3552" x="326.181138" y="307.584" style="stroke: #000000; stroke-width: 0.8"/>
      </g>
     </g>
     <g id="text_8">
      <!-- 350 -->
      <g transform="translate(316.637388 322.182437) scale(0.1 -0.1)">
       <use xlink:href="#DejaVuSans-33"/>
       <use xlink:href="#DejaVuSans-35" x="63.623047"/>
       <use xlink:href="#DejaVuSans-30" x="127.246094"/>
      </g>
     </g>
    </g>
    <g id="xtick_9">
     <g id="line2d_9">
      <g>
       <use xlink:href="#me6497b3552" x="362.334205" y="307.584" style="stroke: #000000; stroke-width: 0.8"/>
      </g>
     </g>
     <g id="text_9">
      <!-- 400 -->
      <g transform="translate(352.790455 322.182437) scale(0.1 -0.1)">
       <defs>
        <path id="DejaVuSans-34" d="M 2419 4116 
L 825 1625 
L 2419 1625 
L 2419 4116 
z
M 2253 4666 
L 3047 4666 
L 3047 1625 
L 3713 1625 
L 3713 1100 
L 3047 1100 
L 3047 0 
L 2419 0 
L 2419 1100 
L 313 1100 
L 313 1709 
L 2253 4666 
z
" transform="scale(0.015625)"/>
       </defs>
       <use xlink:href="#DejaVuSans-34"/>
       <use xlink:href="#DejaVuSans-30" x="63.623047"/>
       <use xlink:href="#DejaVuSans-30" x="127.246094"/>
      </g>
     </g>
    </g>
    <g id="xtick_10">
     <g id="line2d_10">
      <g>
       <use xlink:href="#me6497b3552" x="398.487273" y="307.584" style="stroke: #000000; stroke-width: 0.8"/>
      </g>
     </g>
     <g id="text_10">
      <!-- 450 -->
      <g transform="translate(388.943523 322.182437) scale(0.1 -0.1)">
       <use xlink:href="#DejaVuSans-34"/>
       <use xlink:href="#DejaVuSans-35" x="63.623047"/>
       <use xlink:href="#DejaVuSans-30" x="127.246094"/>
      </g>
     </g>
    </g>
    <g id="text_11">
     <!-- Epochs -->
     <g transform="translate(218.244375 335.860562) scale(0.1 -0.1)">
      <defs>
       <path id="DejaVuSans-45" d="M 628 4666 
L 3578 4666 
L 3578 4134 
L 1259 4134 
L 1259 2753 
L 3481 2753 
L 3481 2222 
L 1259 2222 
L 1259 531 
L 3634 531 
L 3634 0 
L 628 0 
L 628 4666 
z
" transform="scale(0.015625)"/>
       <path id="DejaVuSans-70" d="M 1159 525 
L 1159 -1331 
L 581 -1331 
L 581 3500 
L 1159 3500 
L 1159 2969 
Q 1341 3281 1617 3432 
Q 1894 3584 2278 3584 
Q 2916 3584 3314 3078 
Q 3713 2572 3713 1747 
Q 3713 922 3314 415 
Q 2916 -91 2278 -91 
Q 1894 -91 1617 61 
Q 1341 213 1159 525 
z
M 3116 1747 
Q 3116 2381 2855 2742 
Q 2594 3103 2138 3103 
Q 1681 3103 1420 2742 
Q 1159 2381 1159 1747 
Q 1159 1113 1420 752 
Q 1681 391 2138 391 
Q 2594 391 2855 752 
Q 3116 1113 3116 1747 
z
" transform="scale(0.015625)"/>
       <path id="DejaVuSans-6f" d="M 1959 3097 
Q 1497 3097 1228 2736 
Q 959 2375 959 1747 
Q 959 1119 1226 758 
Q 1494 397 1959 397 
Q 2419 397 2687 759 
Q 2956 1122 2956 1747 
Q 2956 2369 2687 2733 
Q 2419 3097 1959 3097 
z
M 1959 3584 
Q 2709 3584 3137 3096 
Q 3566 2609 3566 1747 
Q 3566 888 3137 398 
Q 2709 -91 1959 -91 
Q 1206 -91 779 398 
Q 353 888 353 1747 
Q 353 2609 779 3096 
Q 1206 3584 1959 3584 
z
" transform="scale(0.015625)"/>
       <path id="DejaVuSans-63" d="M 3122 3366 
L 3122 2828 
Q 2878 2963 2633 3030 
Q 2388 3097 2138 3097 
Q 1578 3097 1268 2742 
Q 959 2388 959 1747 
Q 959 1106 1268 751 
Q 1578 397 2138 397 
Q 2388 397 2633 464 
Q 2878 531 3122 666 
L 3122 134 
Q 2881 22 2623 -34 
Q 2366 -91 2075 -91 
Q 1284 -91 818 406 
Q 353 903 353 1747 
Q 353 2603 823 3093 
Q 1294 3584 2113 3584 
Q 2378 3584 2631 3529 
Q 2884 3475 3122 3366 
z
" transform="scale(0.015625)"/>
       <path id="DejaVuSans-68" d="M 3513 2113 
L 3513 0 
L 2938 0 
L 2938 2094 
Q 2938 2591 2744 2837 
Q 2550 3084 2163 3084 
Q 1697 3084 1428 2787 
Q 1159 2491 1159 1978 
L 1159 0 
L 581 0 
L 581 4863 
L 1159 4863 
L 1159 2956 
Q 1366 3272 1645 3428 
Q 1925 3584 2291 3584 
Q 2894 3584 3203 3211 
Q 3513 2838 3513 2113 
z
" transform="scale(0.015625)"/>
       <path id="DejaVuSans-73" d="M 2834 3397 
L 2834 2853 
Q 2591 2978 2328 3040 
Q 2066 3103 1784 3103 
Q 1356 3103 1142 2972 
Q 928 2841 928 2578 
Q 928 2378 1081 2264 
Q 1234 2150 1697 2047 
L 1894 2003 
Q 2506 1872 2764 1633 
Q 3022 1394 3022 966 
Q 3022 478 2636 193 
Q 2250 -91 1575 -91 
Q 1294 -91 989 -36 
Q 684 19 347 128 
L 347 722 
Q 666 556 975 473 
Q 1284 391 1588 391 
Q 1994 391 2212 530 
Q 2431 669 2431 922 
Q 2431 1156 2273 1281 
Q 2116 1406 1581 1522 
L 1381 1569 
Q 847 1681 609 1914 
Q 372 2147 372 2553 
Q 372 3047 722 3315 
Q 1072 3584 1716 3584 
Q 2034 3584 2315 3537 
Q 2597 3491 2834 3397 
z
" transform="scale(0.015625)"/>
      </defs>
      <use xlink:href="#DejaVuSans-45"/>
      <use xlink:href="#DejaVuSans-70" x="63.183594"/>
      <use xlink:href="#DejaVuSans-6f" x="126.660156"/>
      <use xlink:href="#DejaVuSans-63" x="187.841797"/>
      <use xlink:href="#DejaVuSans-68" x="242.822266"/>
      <use xlink:href="#DejaVuSans-73" x="306.201172"/>
     </g>
    </g>
   </g>
   <g id="matplotlib.axis_2">
    <g id="ytick_1">
     <g id="line2d_11">
      <defs>
       <path id="m70e7091ea9" d="M 0 0 
L -3.5 0 
" style="stroke: #000000; stroke-width: 0.8"/>
      </defs>
      <g>
       <use xlink:href="#m70e7091ea9" x="57.6" y="294.90045" style="stroke: #000000; stroke-width: 0.8"/>
      </g>
     </g>
     <g id="text_12">
      <!-- 10 -->
      <g transform="translate(37.875 298.699669) scale(0.1 -0.1)">
       <use xlink:href="#DejaVuSans-31"/>
       <use xlink:href="#DejaVuSans-30" x="63.623047"/>
      </g>
     </g>
    </g>
    <g id="ytick_2">
     <g id="line2d_12">
      <g>
       <use xlink:href="#m70e7091ea9" x="57.6" y="263.976779" style="stroke: #000000; stroke-width: 0.8"/>
      </g>
     </g>
     <g id="text_13">
      <!-- 20 -->
      <g transform="translate(37.875 267.775998) scale(0.1 -0.1)">
       <use xlink:href="#DejaVuSans-32"/>
       <use xlink:href="#DejaVuSans-30" x="63.623047"/>
      </g>
     </g>
    </g>
    <g id="ytick_3">
     <g id="line2d_13">
      <g>
       <use xlink:href="#m70e7091ea9" x="57.6" y="233.053109" style="stroke: #000000; stroke-width: 0.8"/>
      </g>
     </g>
     <g id="text_14">
      <!-- 30 -->
      <g transform="translate(37.875 236.852327) scale(0.1 -0.1)">
       <use xlink:href="#DejaVuSans-33"/>
       <use xlink:href="#DejaVuSans-30" x="63.623047"/>
      </g>
     </g>
    </g>
    <g id="ytick_4">
     <g id="line2d_14">
      <g>
       <use xlink:href="#m70e7091ea9" x="57.6" y="202.129438" style="stroke: #000000; stroke-width: 0.8"/>
      </g>
     </g>
     <g id="text_15">
      <!-- 40 -->
      <g transform="translate(37.875 205.928657) scale(0.1 -0.1)">
       <use xlink:href="#DejaVuSans-34"/>
       <use xlink:href="#DejaVuSans-30" x="63.623047"/>
      </g>
     </g>
    </g>
    <g id="ytick_5">
     <g id="line2d_15">
      <g>
       <use xlink:href="#m70e7091ea9" x="57.6" y="171.205767" style="stroke: #000000; stroke-width: 0.8"/>
      </g>
     </g>
     <g id="text_16">
      <!-- 50 -->
      <g transform="translate(37.875 175.004986) scale(0.1 -0.1)">
       <use xlink:href="#DejaVuSans-35"/>
       <use xlink:href="#DejaVuSans-30" x="63.623047"/>
      </g>
     </g>
    </g>
    <g id="ytick_6">
     <g id="line2d_16">
      <g>
       <use xlink:href="#m70e7091ea9" x="57.6" y="140.282096" style="stroke: #000000; stroke-width: 0.8"/>
      </g>
     </g>
     <g id="text_17">
      <!-- 60 -->
      <g transform="translate(37.875 144.081315) scale(0.1 -0.1)">
       <defs>
        <path id="DejaVuSans-36" d="M 2113 2584 
Q 1688 2584 1439 2293 
Q 1191 2003 1191 1497 
Q 1191 994 1439 701 
Q 1688 409 2113 409 
Q 2538 409 2786 701 
Q 3034 994 3034 1497 
Q 3034 2003 2786 2293 
Q 2538 2584 2113 2584 
z
M 3366 4563 
L 3366 3988 
Q 3128 4100 2886 4159 
Q 2644 4219 2406 4219 
Q 1781 4219 1451 3797 
Q 1122 3375 1075 2522 
Q 1259 2794 1537 2939 
Q 1816 3084 2150 3084 
Q 2853 3084 3261 2657 
Q 3669 2231 3669 1497 
Q 3669 778 3244 343 
Q 2819 -91 2113 -91 
Q 1303 -91 875 529 
Q 447 1150 447 2328 
Q 447 3434 972 4092 
Q 1497 4750 2381 4750 
Q 2619 4750 2861 4703 
Q 3103 4656 3366 4563 
z
" transform="scale(0.015625)"/>
       </defs>
       <use xlink:href="#DejaVuSans-36"/>
       <use xlink:href="#DejaVuSans-30" x="63.623047"/>
      </g>
     </g>
    </g>
    <g id="ytick_7">
     <g id="line2d_17">
      <g>
       <use xlink:href="#m70e7091ea9" x="57.6" y="109.358425" style="stroke: #000000; stroke-width: 0.8"/>
      </g>
     </g>
     <g id="text_18">
      <!-- 70 -->
      <g transform="translate(37.875 113.157644) scale(0.1 -0.1)">
       <defs>
        <path id="DejaVuSans-37" d="M 525 4666 
L 3525 4666 
L 3525 4397 
L 1831 0 
L 1172 0 
L 2766 4134 
L 525 4134 
L 525 4666 
z
" transform="scale(0.015625)"/>
       </defs>
       <use xlink:href="#DejaVuSans-37"/>
       <use xlink:href="#DejaVuSans-30" x="63.623047"/>
      </g>
     </g>
    </g>
    <g id="ytick_8">
     <g id="line2d_18">
      <g>
       <use xlink:href="#m70e7091ea9" x="57.6" y="78.434754" style="stroke: #000000; stroke-width: 0.8"/>
      </g>
     </g>
     <g id="text_19">
      <!-- 80 -->
      <g transform="translate(37.875 82.233973) scale(0.1 -0.1)">
       <defs>
        <path id="DejaVuSans-38" d="M 2034 2216 
Q 1584 2216 1326 1975 
Q 1069 1734 1069 1313 
Q 1069 891 1326 650 
Q 1584 409 2034 409 
Q 2484 409 2743 651 
Q 3003 894 3003 1313 
Q 3003 1734 2745 1975 
Q 2488 2216 2034 2216 
z
M 1403 2484 
Q 997 2584 770 2862 
Q 544 3141 544 3541 
Q 544 4100 942 4425 
Q 1341 4750 2034 4750 
Q 2731 4750 3128 4425 
Q 3525 4100 3525 3541 
Q 3525 3141 3298 2862 
Q 3072 2584 2669 2484 
Q 3125 2378 3379 2068 
Q 3634 1759 3634 1313 
Q 3634 634 3220 271 
Q 2806 -91 2034 -91 
Q 1263 -91 848 271 
Q 434 634 434 1313 
Q 434 1759 690 2068 
Q 947 2378 1403 2484 
z
M 1172 3481 
Q 1172 3119 1398 2916 
Q 1625 2713 2034 2713 
Q 2441 2713 2670 2916 
Q 2900 3119 2900 3481 
Q 2900 3844 2670 4047 
Q 2441 4250 2034 4250 
Q 1625 4250 1398 4047 
Q 1172 3844 1172 3481 
z
" transform="scale(0.015625)"/>
       </defs>
       <use xlink:href="#DejaVuSans-38"/>
       <use xlink:href="#DejaVuSans-30" x="63.623047"/>
      </g>
     </g>
    </g>
    <g id="ytick_9">
     <g id="line2d_19">
      <g>
       <use xlink:href="#m70e7091ea9" x="57.6" y="47.511084" style="stroke: #000000; stroke-width: 0.8"/>
      </g>
     </g>
     <g id="text_20">
      <!-- 90 -->
      <g transform="translate(37.875 51.310302) scale(0.1 -0.1)">
       <defs>
        <path id="DejaVuSans-39" d="M 703 97 
L 703 672 
Q 941 559 1184 500 
Q 1428 441 1663 441 
Q 2288 441 2617 861 
Q 2947 1281 2994 2138 
Q 2813 1869 2534 1725 
Q 2256 1581 1919 1581 
Q 1219 1581 811 2004 
Q 403 2428 403 3163 
Q 403 3881 828 4315 
Q 1253 4750 1959 4750 
Q 2769 4750 3195 4129 
Q 3622 3509 3622 2328 
Q 3622 1225 3098 567 
Q 2575 -91 1691 -91 
Q 1453 -91 1209 -44 
Q 966 3 703 97 
z
M 1959 2075 
Q 2384 2075 2632 2365 
Q 2881 2656 2881 3163 
Q 2881 3666 2632 3958 
Q 2384 4250 1959 4250 
Q 1534 4250 1286 3958 
Q 1038 3666 1038 3163 
Q 1038 2656 1286 2365 
Q 1534 2075 1959 2075 
z
" transform="scale(0.015625)"/>
       </defs>
       <use xlink:href="#DejaVuSans-39"/>
       <use xlink:href="#DejaVuSans-30" x="63.623047"/>
      </g>
     </g>
    </g>
    <g id="text_21">
     <!-- Accuracy -->
     <g transform="translate(31.795312 197.356125) rotate(-90) scale(0.1 -0.1)">
      <defs>
       <path id="DejaVuSans-41" d="M 2188 4044 
L 1331 1722 
L 3047 1722 
L 2188 4044 
z
M 1831 4666 
L 2547 4666 
L 4325 0 
L 3669 0 
L 3244 1197 
L 1141 1197 
L 716 0 
L 50 0 
L 1831 4666 
z
" transform="scale(0.015625)"/>
       <path id="DejaVuSans-75" d="M 544 1381 
L 544 3500 
L 1119 3500 
L 1119 1403 
Q 1119 906 1312 657 
Q 1506 409 1894 409 
Q 2359 409 2629 706 
Q 2900 1003 2900 1516 
L 2900 3500 
L 3475 3500 
L 3475 0 
L 2900 0 
L 2900 538 
Q 2691 219 2414 64 
Q 2138 -91 1772 -91 
Q 1169 -91 856 284 
Q 544 659 544 1381 
z
M 1991 3584 
L 1991 3584 
z
" transform="scale(0.015625)"/>
       <path id="DejaVuSans-72" d="M 2631 2963 
Q 2534 3019 2420 3045 
Q 2306 3072 2169 3072 
Q 1681 3072 1420 2755 
Q 1159 2438 1159 1844 
L 1159 0 
L 581 0 
L 581 3500 
L 1159 3500 
L 1159 2956 
Q 1341 3275 1631 3429 
Q 1922 3584 2338 3584 
Q 2397 3584 2469 3576 
Q 2541 3569 2628 3553 
L 2631 2963 
z
" transform="scale(0.015625)"/>
       <path id="DejaVuSans-61" d="M 2194 1759 
Q 1497 1759 1228 1600 
Q 959 1441 959 1056 
Q 959 750 1161 570 
Q 1363 391 1709 391 
Q 2188 391 2477 730 
Q 2766 1069 2766 1631 
L 2766 1759 
L 2194 1759 
z
M 3341 1997 
L 3341 0 
L 2766 0 
L 2766 531 
Q 2569 213 2275 61 
Q 1981 -91 1556 -91 
Q 1019 -91 701 211 
Q 384 513 384 1019 
Q 384 1609 779 1909 
Q 1175 2209 1959 2209 
L 2766 2209 
L 2766 2266 
Q 2766 2663 2505 2880 
Q 2244 3097 1772 3097 
Q 1472 3097 1187 3025 
Q 903 2953 641 2809 
L 641 3341 
Q 956 3463 1253 3523 
Q 1550 3584 1831 3584 
Q 2591 3584 2966 3190 
Q 3341 2797 3341 1997 
z
" transform="scale(0.015625)"/>
       <path id="DejaVuSans-79" d="M 2059 -325 
Q 1816 -950 1584 -1140 
Q 1353 -1331 966 -1331 
L 506 -1331 
L 506 -850 
L 844 -850 
Q 1081 -850 1212 -737 
Q 1344 -625 1503 -206 
L 1606 56 
L 191 3500 
L 800 3500 
L 1894 763 
L 2988 3500 
L 3597 3500 
L 2059 -325 
z
" transform="scale(0.015625)"/>
      </defs>
      <use xlink:href="#DejaVuSans-41"/>
      <use xlink:href="#DejaVuSans-63" x="66.658203"/>
      <use xlink:href="#DejaVuSans-63" x="121.638672"/>
      <use xlink:href="#DejaVuSans-75" x="176.619141"/>
      <use xlink:href="#DejaVuSans-72" x="239.998047"/>
      <use xlink:href="#DejaVuSans-61" x="281.111328"/>
      <use xlink:href="#DejaVuSans-63" x="342.390625"/>
      <use xlink:href="#DejaVuSans-79" x="397.371094"/>
     </g>
    </g>
   </g>
   <g id="line2d_20">
    <path d="M 73.832727 293.024311 
L 75.27885 208.008955 
L 76.001911 179.905523 
L 76.724973 163.206741 
L 77.448034 152.870195 
L 78.894157 136.911416 
L 79.617218 131.396798 
L 81.063341 122.329978 
L 81.786402 118.66243 
L 82.509463 116.002994 
L 83.232525 112.065174 
L 83.955586 109.092482 
L 84.678647 106.791761 
L 86.12477 100.473127 
L 86.847832 98.780365 
L 87.570893 96.747752 
L 88.293954 94.35828 
L 89.017016 93.07 
L 90.463138 88.979726 
L 91.1862 87.02937 
L 91.909261 86.351214 
L 92.632322 85.077159 
L 93.355384 84.118525 
L 94.801506 83.077325 
L 95.524568 110.376742 
L 96.247629 111.284042 
L 96.97069 110.051116 
L 97.693752 108.09674 
L 98.416813 106.746303 
L 99.139874 106.303167 
L 99.862936 104.919951 
L 100.585997 103.216984 
L 101.309059 102.021166 
L 102.03212 100.450243 
L 102.755181 99.738999 
L 103.478243 98.137153 
L 104.201304 97.805342 
L 104.924365 95.949922 
L 105.647427 95.069525 
L 106.370488 93.286466 
L 107.093549 93.609927 
L 107.816611 92.808077 
L 108.539672 91.630813 
L 111.431917 88.264462 
L 112.154979 87.786073 
L 112.87804 86.186391 
L 114.324163 84.693705 
L 115.047224 83.588803 
L 115.770285 82.927036 
L 116.493347 81.599174 
L 117.216408 81.160058 
L 117.93947 79.906721 
L 118.662531 79.459256 
L 119.385592 78.616276 
L 120.831715 76.601909 
L 121.554776 76.148568 
L 122.277838 74.546721 
L 123.000899 74.299332 
L 123.72396 73.719822 
L 125.170083 71.977892 
L 125.893144 71.454354 
L 126.616206 69.914355 
L 127.339267 69.654597 
L 128.062328 69.151469 
L 130.954574 65.889949 
L 131.677635 65.502475 
L 132.400696 65.702552 
L 133.123758 64.484159 
L 133.846819 64.527452 
L 136.016003 63.941758 
L 136.739065 63.541915 
L 137.462126 63.878055 
L 138.185187 63.344003 
L 138.908249 88.915714 
L 139.63131 91.583499 
L 140.354371 91.7978 
L 141.077433 91.746467 
L 141.800494 91.346315 
L 142.523555 90.810408 
L 143.246617 90.981415 
L 143.969678 89.732099 
L 144.692739 89.305353 
L 145.415801 88.722132 
L 146.138862 88.750891 
L 146.861923 88.076755 
L 147.584985 87.821016 
L 148.308046 86.936599 
L 149.031108 86.693539 
L 149.754169 86.934744 
L 150.47723 86.310086 
L 151.200292 85.940857 
L 151.923353 86.019403 
L 153.369476 85.066954 
L 154.092537 84.12873 
L 154.815598 84.559806 
L 155.53866 84.085437 
L 156.984782 83.534996 
L 157.707844 83.060936 
L 158.430905 82.788807 
L 159.153966 82.164149 
L 159.877028 82.535233 
L 160.600089 81.605358 
L 161.32315 81.496198 
L 162.046212 81.679575 
L 162.769273 80.568488 
L 163.492334 80.747845 
L 164.938457 80.500456 
L 165.661519 79.576766 
L 166.38458 79.331541 
L 167.107641 78.706883 
L 167.830703 79.302782 
L 168.553764 78.410016 
L 169.999887 77.566727 
L 170.722948 77.694751 
L 172.169071 77.278209 
L 172.892132 76.630977 
L 173.615193 75.769134 
L 174.338255 76.039098 
L 175.061316 75.196118 
L 175.784377 74.872348 
L 176.507439 75.253636 
L 177.2305 74.338296 
L 177.953561 73.932268 
L 178.676623 73.820943 
L 179.399684 73.285036 
L 180.122745 73.006723 
L 181.568868 72.839735 
L 182.29193 72.458137 
L 183.014991 70.971945 
L 183.738052 70.901748 
L 184.461114 70.5285 
L 185.184175 70.650339 
L 185.907236 70.608901 
L 186.630298 69.666966 
L 188.07642 69.596769 
L 188.799482 68.378377 
L 189.522543 68.258702 
L 190.245604 68.574124 
L 190.968666 67.689707 
L 193.13785 66.024158 
L 193.860911 65.63854 
L 194.583972 65.578857 
L 195.307034 64.818135 
L 196.030095 64.704645 
L 196.753157 63.933718 
L 197.476218 63.752196 
L 198.199279 63.40585 
L 198.922341 63.612111 
L 199.645402 63.146092 
L 200.368463 62.053558 
L 201.091525 62.496695 
L 201.814586 61.484563 
L 202.537647 61.430756 
L 203.260709 60.816612 
L 203.98377 60.507375 
L 204.706831 60.422644 
L 205.429893 59.927865 
L 206.876015 59.152918 
L 207.599077 58.641441 
L 208.322138 58.789874 
L 209.045199 58.140477 
L 209.768261 57.790112 
L 211.214383 57.49108 
L 211.937445 57.497265 
L 212.660506 56.610992 
L 213.383568 56.734687 
L 215.552752 56.080961 
L 216.275813 55.712041 
L 216.998874 55.473001 
L 217.721936 55.609065 
L 218.444997 55.299829 
L 219.168058 55.800792 
L 220.614181 54.976058 
L 221.337242 55.437748 
L 222.060304 55.163764 
L 222.783365 54.58642 
L 224.229488 54.842158 
L 224.952549 54.458705 
L 225.67561 83.625911 
L 226.398672 87.089362 
L 227.844794 86.441821 
L 228.567856 86.507997 
L 229.290917 85.427524 
L 230.013979 84.982223 
L 230.73704 85.297645 
L 231.460101 84.875227 
L 232.183163 84.314272 
L 233.629285 83.834027 
L 234.352347 83.271217 
L 235.075408 83.355638 
L 235.798469 83.034032 
L 236.521531 83.632096 
L 237.244592 83.265032 
L 237.967653 81.700294 
L 238.690715 82.050659 
L 239.413776 82.197238 
L 240.136837 81.80327 
L 240.859899 81.238604 
L 241.58296 81.485993 
L 242.306021 81.234274 
L 243.029083 81.399407 
L 243.752144 81.205515 
L 244.475206 81.500218 
L 245.198267 80.356042 
L 246.64439 80.440773 
L 248.813574 79.294433 
L 249.536635 79.958364 
L 250.259696 80.339653 
L 250.982758 79.851059 
L 251.705819 79.143834 
L 252.42888 79.601505 
L 253.151942 79.189292 
L 253.875003 78.923348 
L 254.598064 78.814188 
L 255.321126 79.158368 
L 256.044187 78.290341 
L 256.767248 78.642871 
L 257.49031 78.675959 
L 258.213371 78.597722 
L 258.936432 78.869851 
L 259.659494 78.230658 
L 260.382555 78.327449 
L 261.105617 77.882148 
L 261.828678 78.028727 
L 262.551739 77.535803 
L 263.274801 77.428807 
L 263.997862 77.546317 
L 264.720923 77.783193 
L 265.443985 77.03082 
L 266.167046 76.725603 
L 266.890107 76.806005 
L 267.613169 77.441074 
L 268.33623 77.158638 
L 269.059291 76.602012 
L 269.782353 76.358745 
L 270.505414 76.890633 
L 271.228475 76.183511 
L 271.951537 76.517487 
L 272.674598 76.292775 
L 274.120721 75.492883 
L 274.843782 75.342387 
L 275.566843 75.604208 
L 276.289905 75.119737 
L 277.012966 75.93406 
L 277.736028 74.911518 
L 278.459089 75.239309 
L 279.905212 74.556926 
L 280.628273 74.624958 
L 281.351334 75.261986 
L 282.074396 74.519818 
L 282.797457 74.58785 
L 283.520518 73.981746 
L 284.24358 73.732295 
L 284.966641 73.047851 
L 285.689702 73.196285 
L 287.135825 73.932268 
L 287.858886 73.754972 
L 288.581948 73.25607 
L 289.305009 73.148868 
L 290.02807 72.394331 
L 290.751132 72.495348 
L 291.474193 72.116018 
L 292.197255 72.134572 
L 292.920316 72.396392 
L 293.643377 71.967584 
L 294.366439 72.212912 
L 295.0895 71.371788 
L 295.812561 71.728441 
L 296.535623 70.96978 
L 297.258684 71.064613 
L 299.427868 70.759499 
L 300.150929 71.08729 
L 300.873991 70.227612 
L 301.597052 69.994654 
L 302.320113 70.332753 
L 303.043175 69.949299 
L 303.766236 69.749326 
L 304.489297 69.85859 
L 305.212359 69.392673 
L 305.93542 69.07519 
L 306.658481 68.908202 
L 307.381543 69.005096 
L 308.104604 69.386488 
L 308.827666 68.417547 
L 309.550727 68.720599 
L 310.273788 68.376315 
L 311.719911 68.22582 
L 312.442972 67.860921 
L 313.166034 67.351711 
L 313.889095 67.223893 
L 314.612156 67.213585 
L 315.335218 68.071202 
L 316.058279 66.3972 
L 317.504402 66.609543 
L 318.950524 66.353907 
L 319.673586 66.075594 
L 320.396647 66.102395 
L 321.119708 66.454924 
L 321.84277 65.277763 
L 322.565831 65.100468 
L 323.288892 65.318995 
L 324.735015 65.224162 
L 325.458077 64.653105 
L 326.181138 64.679906 
L 327.627261 63.974846 
L 329.073383 64.094418 
L 329.796445 63.73158 
L 330.519506 63.787242 
L 331.242567 63.49656 
L 331.965629 62.851286 
L 332.68869 62.515249 
L 333.411751 62.358569 
L 334.857874 62.410108 
L 337.027058 61.60197 
L 338.473181 61.498891 
L 339.196242 61.385504 
L 339.919304 60.816508 
L 340.642365 60.643336 
L 342.088488 60.729922 
L 342.811549 59.35485 
L 343.53461 60.045478 
L 344.980733 59.336295 
L 345.703794 59.38165 
L 346.426856 59.004381 
L 347.149917 58.781731 
L 347.872978 58.800285 
L 349.319101 58.095225 
L 350.042162 58.272521 
L 350.765224 57.639617 
L 351.488285 57.950915 
L 352.211346 57.720018 
L 353.657469 56.561411 
L 354.38053 56.91188 
L 355.103592 56.639751 
L 355.826653 56.761384 
L 356.549715 56.600581 
L 357.272776 56.71603 
L 357.995837 55.479083 
L 358.718899 55.5801 
L 359.44196 55.507945 
L 360.165021 55.215201 
L 360.888083 55.615147 
L 361.611144 54.943073 
L 362.334205 54.621466 
L 364.503389 54.697745 
L 365.226451 54.217397 
L 365.949512 54.326661 
L 366.672573 53.568 
L 367.395635 54.242136 
L 368.118696 53.963823 
L 369.564819 54.017424 
L 370.28788 54.095764 
L 371.010941 54.322538 
L 371.734003 54.048348 
L 372.457064 54.163796 
L 373.180126 54.097826 
L 373.903187 54.326661 
L 375.34931 54.14318 
L 376.072371 54.075148 
L 377.518494 54.415309 
L 378.241555 54.341092 
L 378.964616 53.815389 
L 379.687678 54.128749 
L 380.410739 54.213274 
L 381.856862 53.652525 
L 382.579923 54.050409 
L 383.302984 53.819513 
L 384.026046 53.970008 
L 384.749107 54.347277 
L 385.472168 54.3514 
L 386.19523 53.984439 
L 386.918291 54.056594 
L 387.641353 54.473033 
L 388.364414 54.225643 
L 389.087475 54.130811 
L 389.810537 54.190597 
L 390.533598 54.46891 
L 391.256659 53.9597 
L 391.979721 54.097826 
L 392.702782 54.440048 
L 393.425843 54.06484 
L 394.148905 54.365831 
L 394.871966 54.349338 
L 395.595027 53.638094 
L 396.318089 54.073087 
L 397.04115 53.980316 
L 397.764211 54.266875 
L 398.487273 53.912284 
L 398.487273 53.912284 
" clip-path="url(#pb859496561)" style="fill: none; stroke: #1f77b4; stroke-width: 1.5; stroke-linecap: square"/>
   </g>
   <g id="line2d_21">
    <path d="M 73.832727 266.852681 
L 75.27885 202.90253 
L 76.001911 181.688891 
L 76.724973 168.639102 
L 78.171095 148.56964 
L 78.894157 145.53912 
L 79.617218 138.921455 
L 80.340279 136.200172 
L 81.063341 136.911416 
L 81.786402 133.819049 
L 82.509463 123.057611 
L 83.232525 123.490543 
L 83.955586 120.274481 
L 84.678647 114.275289 
L 85.401709 110.935533 
L 86.12477 105.802203 
L 86.847832 110.502601 
L 87.570893 106.049593 
L 88.293954 102.833531 
L 89.017016 103.173691 
L 89.740077 100.63795 
L 90.463138 99.12269 
L 91.1862 98.473293 
L 91.909261 96.432331 
L 92.632322 97.205423 
L 93.355384 95.442773 
L 94.078445 95.504621 
L 94.801506 95.968476 
L 95.524568 122.439138 
L 96.247629 122.222672 
L 96.97069 121.325886 
L 97.693752 115.574083 
L 98.416813 113.162037 
L 99.139874 115.976091 
L 99.862936 116.439946 
L 100.585997 114.522678 
L 101.309059 111.121075 
L 102.03212 112.543563 
L 102.755181 109.203807 
L 103.478243 110.286135 
L 104.201304 108.55441 
L 104.924365 109.420273 
L 105.647427 112.110632 
L 106.370488 106.389753 
L 107.093549 104.843569 
L 107.816611 106.296982 
L 108.539672 106.018669 
L 109.985795 99.246385 
L 110.708856 102.678912 
L 111.431917 100.668874 
L 112.154979 100.978111 
L 112.87804 102.617065 
L 113.601101 99.741164 
L 114.324163 97.360041 
L 115.047224 98.937148 
L 115.770285 95.226308 
L 116.493347 95.690163 
L 117.93947 93.741972 
L 118.662531 95.102613 
L 119.385592 92.133941 
L 120.108654 92.72149 
L 120.831715 92.752414 
L 121.554776 89.93836 
L 122.277838 90.247597 
L 123.000899 87.619085 
L 123.72396 88.794184 
L 125.170083 87.248001 
L 125.893144 87.49539 
L 126.616206 87.959245 
L 127.339267 85.701817 
L 128.062328 86.196596 
L 128.78539 86.90784 
L 129.508451 83.166076 
L 130.231512 85.361657 
L 130.954574 83.351618 
L 131.677635 82.980534 
L 132.400696 82.423908 
L 133.123758 82.918687 
L 133.846819 82.733145 
L 134.569881 82.176519 
L 135.292942 82.238366 
L 136.739065 81.372503 
L 137.462126 81.527122 
L 138.185187 81.465274 
L 138.908249 108.028707 
L 139.63131 119.439542 
L 140.354371 105.060035 
L 141.077433 106.69899 
L 141.800494 108.863647 
L 142.523555 111.739548 
L 143.246617 107.935936 
L 143.969678 106.884532 
L 144.692739 113.007418 
L 145.415801 108.770876 
L 146.138862 105.338348 
L 146.861923 108.276097 
L 147.584985 103.699394 
L 148.308046 106.142364 
L 149.031108 111.986937 
L 149.754169 105.956822 
L 150.47723 107.193768 
L 151.200292 104.874493 
L 151.923353 105.276501 
L 152.646414 110.719067 
L 153.369476 104.534333 
L 154.092537 103.606623 
L 154.815598 99.37008 
L 155.53866 101.874897 
L 156.261721 102.895378 
L 156.984782 104.719875 
L 157.707844 100.205019 
L 158.430905 103.854012 
L 159.153966 102.74076 
L 159.877028 103.32831 
L 160.600089 99.895782 
L 161.32315 102.833531 
L 162.046212 102.555218 
L 162.769273 98.906225 
L 163.492334 93.432735 
L 164.215396 97.514659 
L 164.938457 97.081728 
L 165.661519 99.586545 
L 166.38458 99.37008 
L 167.107641 95.597392 
L 167.830703 95.782934 
L 168.553764 96.834339 
L 169.276825 98.380522 
L 169.999887 93.89659 
L 170.722948 96.586949 
L 171.446009 93.958437 
L 172.169071 95.721086 
L 172.892132 94.453216 
L 173.615193 96.33956 
L 174.338255 95.628315 
L 175.061316 93.339964 
L 175.784377 99.679316 
L 176.507439 93.741972 
L 177.2305 92.783338 
L 177.953561 99.864858 
L 178.676623 97.85482 
L 179.399684 93.123498 
L 180.122745 97.174499 
L 180.845807 92.566872 
L 182.29193 93.55643 
L 183.014991 90.86607 
L 183.738052 89.93836 
L 184.461114 91.608238 
L 185.184175 86.938764 
L 185.907236 89.319887 
L 186.630298 90.433139 
L 187.353359 89.752818 
L 188.07642 88.825108 
L 188.799482 89.536352 
L 189.522543 88.268482 
L 190.245604 92.257635 
L 190.968666 87.804627 
L 192.414788 87.031535 
L 193.13785 88.67049 
L 193.860911 84.990573 
L 194.583972 85.701817 
L 195.307034 85.918283 
L 196.030095 85.578122 
L 196.753157 83.258847 
L 197.476218 83.877321 
L 198.199279 84.12471 
L 198.922341 82.94961 
L 199.645402 84.743183 
L 200.368463 83.568084 
L 201.091525 83.908244 
L 201.814586 81.805435 
L 202.537647 83.908244 
L 203.260709 81.929129 
L 203.98377 80.321098 
L 204.706831 81.032343 
L 205.429893 81.465274 
L 206.152954 79.424312 
L 206.876015 79.640778 
L 207.599077 80.197404 
L 208.322138 79.393388 
L 209.045199 80.104633 
L 209.768261 77.970899 
L 210.491322 78.032747 
L 211.214383 78.774915 
L 211.937445 79.795396 
L 212.660506 77.785357 
L 213.383568 77.352426 
L 214.106629 77.13596 
L 214.82969 76.733953 
L 215.552752 77.72351 
L 216.275813 76.053632 
L 216.998874 77.259655 
L 218.444997 76.919495 
L 219.168058 77.166884 
L 219.89112 76.703029 
L 220.614181 77.414273 
L 221.337242 76.703029 
L 222.060304 76.486563 
L 222.783365 76.764876 
L 223.506426 77.661663 
L 224.229488 76.764876 
L 224.952549 77.012266 
L 225.67561 112.574487 
L 226.398672 118.882916 
L 227.121733 115.728702 
L 227.844794 105.152806 
L 228.567856 103.266462 
L 229.290917 105.585737 
L 230.013979 106.080516 
L 230.73704 116.996572 
L 231.460101 104.874493 
L 232.183163 110.347983 
L 232.906224 103.699394 
L 233.629285 103.049996 
L 234.352347 108.523486 
L 235.075408 104.472485 
L 235.798469 103.699394 
L 236.521531 104.93634 
L 237.244592 104.565256 
L 237.967653 102.307828 
L 238.690715 104.00863 
L 239.413776 103.884936 
L 240.136837 106.544371 
L 240.859899 104.101401 
L 241.58296 98.751606 
L 242.306021 101.843973 
L 243.029083 96.494178 
L 243.752144 101.936744 
L 244.475206 103.32831 
L 245.198267 100.730721 
L 245.921328 100.421484 
L 246.64439 98.566064 
L 247.367451 99.246385 
L 248.090512 111.368464 
L 248.813574 97.112652 
L 249.536635 98.658835 
L 250.259696 100.978111 
L 250.982758 95.721086 
L 251.705819 101.967668 
L 252.42888 99.493774 
L 253.151942 95.535544 
L 253.875003 97.174499 
L 254.598064 100.0504 
L 255.321126 97.792972 
L 256.044187 97.143575 
L 256.767248 99.617469 
L 257.49031 99.772087 
L 258.213371 96.246789 
L 258.936432 100.792569 
L 259.659494 102.462447 
L 260.382555 100.947187 
L 261.105617 99.988553 
L 261.828678 95.875705 
L 262.551739 101.132729 
L 263.274801 97.360041 
L 263.997862 97.978514 
L 264.720923 99.648393 
L 265.443985 100.0504 
L 266.167046 99.617469 
L 266.890107 97.329117 
L 267.613169 98.658835 
L 268.33623 103.823088 
L 269.059291 98.102209 
L 269.782353 96.741568 
L 270.505414 93.092574 
L 271.228475 95.473697 
L 271.951537 107.255616 
L 272.674598 93.463659 
L 273.397659 94.917071 
L 274.120721 95.659239 
L 274.843782 100.699797 
L 275.566843 94.48414 
L 276.289905 96.896186 
L 277.012966 96.215865 
L 277.736028 97.050804 
L 278.459089 95.16446 
L 279.18215 94.576911 
L 280.628273 96.33956 
L 281.351334 97.329117 
L 282.074396 101.472889 
L 282.797457 97.731125 
L 283.520518 90.618681 
L 284.24358 93.834743 
L 284.966641 94.762453 
L 285.689702 97.60743 
L 286.412764 93.154422 
L 287.135825 95.906629 
L 287.858886 97.390965 
L 288.581948 93.89659 
L 289.305009 95.968476 
L 290.02807 91.360849 
L 290.751132 94.8243 
L 291.474193 92.597796 
L 292.197255 95.350002 
L 292.920316 94.762453 
L 293.643377 91.144383 
L 294.366439 90.247597 
L 295.0895 96.834339 
L 295.812561 94.174903 
L 296.535623 89.629123 
L 297.258684 93.216269 
L 297.981745 93.772895 
L 298.704807 93.370888 
L 299.427868 97.421888 
L 300.150929 90.000207 
L 300.873991 90.092978 
L 301.597052 93.741972 
L 302.320113 92.257635 
L 303.043175 97.545583 
L 303.766236 94.545987 
L 304.489297 87.650008 
L 305.212359 91.515467 
L 305.93542 90.309444 
L 306.658481 90.000207 
L 307.381543 93.185345 
L 308.104604 89.567276 
L 308.827666 92.597796 
L 309.550727 89.35081 
L 310.273788 89.567276 
L 310.99685 89.660047 
L 311.719911 89.319887 
L 312.442972 94.082132 
L 313.166034 85.330733 
L 313.889095 90.371291 
L 314.612156 89.814665 
L 315.335218 89.752818 
L 316.058279 85.39258 
L 316.78134 90.340368 
L 318.227463 86.691375 
L 318.950524 87.433543 
L 319.673586 89.907436 
L 320.396647 87.031535 
L 321.119708 85.516275 
L 321.84277 90.835146 
L 322.565831 89.35081 
L 323.288892 89.288963 
L 324.011954 90.711452 
L 324.735015 85.763664 
L 325.458077 87.650008 
L 326.181138 88.299405 
L 326.904199 86.691375 
L 327.627261 85.454428 
L 328.350322 88.113863 
L 329.073383 87.433543 
L 329.796445 86.011054 
L 330.519506 84.897802 
L 331.242567 88.268482 
L 331.965629 84.774107 
L 332.68869 86.629527 
L 333.411751 84.743183 
L 334.134813 81.898206 
L 334.857874 85.176115 
L 335.580935 82.764068 
L 336.303997 83.939168 
L 337.027058 84.526718 
L 337.750119 85.454428 
L 338.473181 82.856839 
L 339.196242 82.702221 
L 339.919304 82.238366 
L 340.642365 81.619893 
L 341.365426 84.403023 
L 342.088488 80.75403 
L 342.811549 81.990977 
L 343.53461 82.980534 
L 344.257672 79.362465 
L 344.980733 81.558045 
L 345.703794 82.392984 
L 346.426856 79.084152 
L 347.872978 80.290175 
L 349.319101 79.176923 
L 350.042162 79.857243 
L 350.765224 79.950014 
L 351.488285 80.413869 
L 352.211346 77.970899 
L 352.934408 81.217885 
L 354.38053 78.06367 
L 355.103592 78.403831 
L 355.826653 78.094594 
L 356.549715 79.82632 
L 357.272776 77.507044 
L 357.995837 78.280136 
L 358.718899 77.352426 
L 359.44196 76.239174 
L 360.165021 77.074113 
L 360.888083 77.630739 
L 361.611144 75.342387 
L 362.334205 76.919495 
L 363.057267 78.032747 
L 363.780328 77.105037 
L 364.503389 75.527929 
L 365.226451 75.342387 
L 365.949512 75.311464 
L 366.672573 76.393792 
L 367.395635 76.022708 
L 368.118696 74.69299 
L 368.841757 75.064074 
L 369.564819 77.166884 
L 370.28788 76.239174 
L 371.010941 76.517487 
L 371.734003 76.579334 
L 372.457064 76.270098 
L 373.180126 77.259655 
L 373.903187 76.610258 
L 374.626248 76.919495 
L 375.34931 75.373311 
L 376.072371 75.435158 
L 376.795432 75.775319 
L 378.241555 77.754434 
L 379.687678 75.435158 
L 380.410739 76.115479 
L 381.1338 78.001823 
L 381.856862 76.146403 
L 382.579923 78.774915 
L 383.302984 75.837166 
L 384.026046 76.20825 
L 384.749107 77.012266 
L 385.472168 76.733953 
L 386.19523 75.713471 
L 386.918291 75.249616 
L 387.641353 75.991785 
L 388.364414 76.393792 
L 389.087475 75.6207 
L 389.810537 77.661663 
L 390.533598 75.064074 
L 391.256659 76.7958 
L 391.979721 76.610258 
L 392.702782 76.177327 
L 393.425843 76.362869 
L 394.148905 77.816281 
L 394.871966 78.001823 
L 395.595027 78.31106 
L 396.318089 76.919495 
L 397.04115 77.445197 
L 397.764211 77.197808 
L 398.487273 77.970899 
L 398.487273 77.970899 
" clip-path="url(#pb859496561)" style="fill: none; stroke: #ff7f0e; stroke-width: 1.5; stroke-linecap: square"/>
   </g>
   <g id="line2d_22">
    <path d="M 73.832727 271.036035 
L 74.555789 239.941666 
L 75.27885 217.20751 
L 76.001911 201.87339 
L 76.724973 193.321449 
L 77.448034 192.756473 
L 78.171095 178.48891 
L 78.894157 176.995915 
L 79.617218 180.077768 
L 80.340279 183.948484 
L 81.063341 178.520761 
L 81.786402 177.529039 
L 82.509463 170.246205 
L 83.232525 174.906093 
L 83.955586 160.872932 
L 84.678647 162.451276 
L 85.401709 161.459554 
L 86.12477 155.786606 
L 86.847832 164.135997 
L 87.570893 153.557937 
L 88.293954 152.832777 
L 89.017016 149.719073 
L 89.740077 148.898049 
L 90.463138 147.725114 
L 91.1862 150.006972 
L 91.909261 147.170653 
L 92.632322 146.999954 
L 94.078445 146.093582 
L 94.801506 147.298677 
L 95.524568 166.567216 
L 96.247629 162.397778 
L 96.97069 169.254483 
L 97.693752 168.977098 
L 98.416813 157.663364 
L 99.139874 157.663364 
L 99.862936 164.253198 
L 100.585997 160.958281 
L 101.309059 163.59205 
L 102.03212 160.425157 
L 102.755181 160.585032 
L 103.478243 152.32099 
L 104.201304 155.061446 
L 104.924365 153.110163 
L 105.647427 158.548399 
L 106.370488 152.704753 
L 107.093549 151.052192 
L 107.816611 154.432459 
L 108.539672 158.388524 
L 109.262733 153.931186 
L 109.985795 148.674162 
L 110.708856 145.848357 
L 112.154979 149.996458 
L 112.87804 153.963037 
L 113.601101 148.951238 
L 114.324163 148.418114 
L 115.047224 145.549634 
L 115.770285 144.270322 
L 116.493347 140.964582 
L 117.216408 144.280836 
L 117.93947 141.689742 
L 118.662531 143.854399 
L 119.385592 138.384001 
L 120.108654 143.491664 
L 120.831715 144.728611 
L 121.554776 144.142298 
L 122.277838 135.035586 
L 123.000899 136.102144 
L 123.72396 142.084328 
L 125.170083 133.329527 
L 125.893144 134.609149 
L 126.616206 136.784629 
L 127.339267 133.10564 
L 128.062328 131.324746 
L 128.78539 133.190989 
L 129.508451 132.689716 
L 130.954574 130.226646 
L 131.677635 131.985894 
L 132.400696 129.970598 
L 133.123758 130.791622 
L 133.846819 130.567734 
L 134.569881 130.791622 
L 135.292942 129.554675 
L 136.016003 129.927923 
L 136.739065 129.863911 
L 137.462126 128.872189 
L 138.185187 128.659125 
L 138.908249 158.740435 
L 139.63131 170.875193 
L 140.354371 151.969079 
L 141.077433 154.837559 
L 141.800494 164.466571 
L 142.523555 166.705754 
L 143.246617 158.207311 
L 143.969678 153.963037 
L 144.692739 161.44873 
L 145.415801 160.329293 
L 146.138862 155.253482 
L 146.861923 155.338831 
L 147.584985 150.892008 
L 148.308046 157.834062 
L 149.031108 167.025814 
L 149.754169 156.543618 
L 150.47723 158.335026 
L 151.200292 157.727376 
L 151.923353 151.79838 
L 152.646414 165.671358 
L 153.369476 148.951238 
L 154.092537 148.962061 
L 154.815598 148.151552 
L 155.53866 154.602848 
L 156.261721 153.803162 
L 156.984782 148.759511 
L 157.707844 156.628967 
L 158.430905 153.85666 
L 159.153966 154.86941 
L 159.877028 155.573233 
L 160.600089 149.569711 
L 162.046212 155.871956 
L 163.492334 143.395801 
L 164.215396 141.348344 
L 164.938457 151.638505 
L 165.661519 155.135972 
L 166.38458 151.606654 
L 167.107641 141.657581 
L 167.830703 149.975121 
L 168.553764 148.119701 
L 169.276825 141.508529 
L 169.999887 142.9907 
L 170.722948 152.20379 
L 171.446009 143.171913 
L 172.169071 142.777327 
L 172.892132 140.29261 
L 173.615193 140.260759 
L 174.338255 146.093582 
L 175.061316 143.790387 
L 175.784377 152.896789 
L 176.507439 145.357907 
L 177.2305 141.593569 
L 177.953561 150.78563 
L 178.676623 141.593569 
L 179.399684 141.647067 
L 180.122745 141.924143 
L 180.845807 134.321249 
L 181.568868 140.623184 
L 182.29193 142.127002 
L 183.014991 134.641309 
L 183.738052 143.374463 
L 184.461114 136.262019 
L 185.184175 136.976356 
L 185.907236 135.419658 
L 186.630298 141.028594 
L 187.353359 137.776351 
L 188.07642 137.253741 
L 188.799482 140.569996 
L 189.522543 139.738149 
L 190.245604 136.603107 
L 190.968666 137.456291 
L 191.691727 136.240682 
L 192.414788 135.707558 
L 193.13785 136.923167 
L 193.860911 131.079521 
L 194.583972 138.831776 
L 195.307034 135.099598 
L 196.030095 134.310735 
L 196.753157 136.038132 
L 197.476218 129.565498 
L 198.199279 134.43845 
L 199.645402 129.661361 
L 200.368463 131.783344 
L 201.814586 130.386521 
L 202.537647 131.900854 
L 203.260709 128.072503 
L 203.98377 130.183971 
L 204.706831 130.951806 
L 205.429893 130.589072 
L 206.152954 126.227906 
L 206.876015 128.754989 
L 207.599077 129.778562 
L 208.322138 126.718356 
L 209.045199 130.802445 
L 209.768261 129.352125 
L 210.491322 126.675681 
L 211.214383 128.467089 
L 211.937445 126.739693 
L 212.660506 126.387782 
L 213.383568 124.415161 
L 214.106629 123.9779 
L 214.82969 126.665167 
L 215.552752 126.473131 
L 216.275813 125.406883 
L 217.721936 124.660385 
L 218.444997 125.716119 
L 219.168058 126.376958 
L 219.89112 124.958799 
L 220.614181 125.054971 
L 221.337242 126.291918 
L 222.060304 125.577272 
L 222.783365 125.726634 
L 223.506426 126.942243 
L 224.229488 125.129497 
L 224.952549 125.51326 
L 225.67561 160.11592 
L 226.398672 173.700998 
L 227.121733 159.582796 
L 227.844794 156.490429 
L 228.567856 146.904091 
L 229.290917 161.075482 
L 230.013979 154.069724 
L 230.73704 170.949719 
L 231.460101 150.827996 
L 232.183163 158.601588 
L 232.906224 156.885015 
L 233.629285 146.562694 
L 234.352347 156.362405 
L 235.075408 151.446469 
L 235.798469 149.793908 
L 236.521531 158.175151 
L 237.244592 150.081807 
L 237.967653 148.748688 
L 238.690715 157.652541 
L 239.413776 158.900311 
L 240.136837 157.834062 
L 240.859899 149.484671 
L 241.58296 146.221606 
L 242.306021 149.815245 
L 243.029083 145.176695 
L 243.752144 156.181192 
L 244.475206 155.402843 
L 245.198267 150.103145 
L 245.921328 149.239447 
L 246.64439 145.347084 
L 248.090512 156.60763 
L 248.813574 142.127002 
L 249.536635 147.373203 
L 250.259696 148.215564 
L 250.982758 142.212042 
L 251.705819 154.816221 
L 252.42888 154.645523 
L 253.151942 143.2786 
L 253.875003 142.830516 
L 254.598064 147.19199 
L 255.321126 145.005996 
L 256.044187 148.055689 
L 256.767248 147.991677 
L 257.49031 145.880208 
L 258.213371 141.145794 
L 258.936432 150.774807 
L 259.659494 151.627991 
L 260.382555 150.689458 
L 261.105617 151.692003 
L 261.828678 144.184973 
L 262.551739 147.426392 
L 263.274801 153.899025 
L 263.997862 146.87193 
L 264.720923 151.499967 
L 265.443985 146.658866 
L 266.167046 154.730872 
L 266.890107 139.823498 
L 267.613169 141.497716 
L 268.33623 148.983377 
L 269.782353 145.12325 
L 270.505414 138.703923 
L 271.228475 144.73937 
L 271.951537 155.328061 
L 273.397659 137.434986 
L 274.120721 145.923 
L 274.843782 150.700174 
L 275.566843 134.875785 
L 276.289905 141.977566 
L 277.012966 145.485804 
L 277.736028 150.742828 
L 278.459089 144.61141 
L 279.18215 139.834236 
L 279.905212 139.002496 
L 280.628273 139.951533 
L 281.351334 143.310483 
L 282.074396 150.817471 
L 282.797457 148.610161 
L 283.520518 141.998893 
L 284.24358 148.343577 
L 284.966641 148.354241 
L 285.689702 151.403954 
L 286.412764 144.13156 
L 287.135825 141.95624 
L 288.581948 141.625676 
L 289.305009 144.06758 
L 290.02807 143.3638 
L 290.751132 146.78673 
L 291.474193 135.355635 
L 292.197255 139.343723 
L 292.920316 139.215763 
L 293.643377 135.270329 
L 294.366439 135.888802 
L 295.0895 132.103318 
L 295.812561 138.629279 
L 296.535623 130.087948 
L 297.258684 134.161342 
L 297.981745 139.205099 
L 298.704807 139.674286 
L 299.427868 151.052064 
L 300.150929 138.757239 
L 300.873991 136.869829 
L 301.597052 144.920647 
L 302.320113 132.231278 
L 303.043175 145.581774 
L 303.766236 144.728707 
L 304.489297 136.645899 
L 305.212359 141.678993 
L 305.93542 138.010806 
L 306.658481 133.190979 
L 307.381543 146.797394 
L 308.104604 142.56405 
L 308.827666 142.24415 
L 309.550727 138.352033 
L 310.273788 137.722896 
L 310.99685 131.388875 
L 311.719911 138.021469 
L 312.442972 142.969257 
L 313.166034 132.135308 
L 313.889095 139.556989 
L 314.612156 139.045149 
L 315.335218 143.705027 
L 316.058279 127.678034 
L 316.78134 144.654063 
L 317.504402 131.282242 
L 318.227463 134.705172 
L 318.950524 136.336662 
L 319.673586 137.200392 
L 320.396647 135.003745 
L 321.119708 127.955281 
L 321.84277 148.045004 
L 322.565831 134.267975 
L 323.288892 136.304672 
L 324.011954 135.995436 
L 324.735015 129.458811 
L 325.458077 132.743118 
L 326.181138 133.980065 
L 326.904199 130.930352 
L 327.627261 129.959988 
L 328.350322 134.001392 
L 329.796445 130.791728 
L 330.519506 128.723041 
L 331.242567 131.804745 
L 331.965629 133.820115 
L 332.68869 129.330851 
L 333.411751 129.170901 
L 334.134813 125.652001 
L 334.857874 129.736058 
L 335.580935 133.031029 
L 336.303997 129.768048 
L 337.027058 133.894759 
L 337.750119 130.386521 
L 338.473181 134.044045 
L 339.196242 129.640088 
L 339.919304 132.519188 
L 340.642365 130.013305 
L 341.365426 134.150679 
L 342.088488 126.846294 
L 342.811549 129.927998 
L 343.53461 131.154282 
L 344.257672 129.800038 
L 344.980733 124.628321 
L 345.703794 133.521542 
L 346.426856 131.058312 
L 347.149917 124.575004 
L 347.872978 132.327248 
L 349.319101 124.393727 
L 350.042162 127.016908 
L 350.765224 128.029924 
L 351.488285 127.006244 
L 352.211346 126.238484 
L 352.934408 131.282242 
L 353.657469 124.425717 
L 354.38053 120.78952 
L 355.103592 124.052501 
L 355.826653 122.29305 
L 356.549715 125.481387 
L 357.272776 122.815554 
L 357.995837 122.506317 
L 358.718899 123.199434 
L 359.44196 124.308421 
L 360.165021 122.751574 
L 361.611144 118.795477 
L 362.334205 122.06912 
L 363.057267 122.61295 
L 363.780328 123.348721 
L 364.503389 120.66156 
L 365.226451 119.92579 
L 365.949512 122.058457 
L 366.672573 122.559634 
L 367.395635 123.871224 
L 368.118696 119.44594 
L 368.841757 119.968443 
L 369.564819 123.391374 
L 370.28788 121.759884 
L 371.010941 120.618907 
L 371.734003 120.107067 
L 372.457064 122.10111 
L 373.180126 122.186417 
L 373.903187 121.194727 
L 374.626248 120.69355 
L 375.34931 121.216054 
L 376.072371 120.576253 
L 376.795432 121.248044 
L 377.518494 120.906817 
L 378.241555 123.018157 
L 378.964616 118.26231 
L 379.687678 120.30967 
L 380.410739 121.034777 
L 381.1338 120.544263 
L 381.856862 123.007494 
L 382.579923 126.974254 
L 383.302984 122.463664 
L 384.026046 122.271724 
L 384.749107 120.107067 
L 385.472168 121.898507 
L 386.19523 118.827467 
L 386.918291 117.9744 
L 388.364414 124.265767 
L 389.087475 120.682887 
L 389.810537 123.871224 
L 390.533598 120.288343 
L 391.256659 121.07743 
L 391.979721 124.351074 
L 392.702782 117.355926 
L 393.425843 121.62126 
L 394.148905 122.143764 
L 394.871966 122.922187 
L 395.595027 123.945867 
L 396.318089 122.463664 
L 397.04115 122.794227 
L 397.764211 121.674577 
L 398.487273 124.681637 
L 398.487273 124.681637 
" clip-path="url(#pb859496561)" style="fill: none; stroke: #2ca02c; stroke-width: 1.5; stroke-linecap: square"/>
   </g>
   <g id="line2d_23">
    <path d="M 73.832727 295.488 
L 74.555789 293.694427 
L 75.27885 291.406075 
L 76.001911 295.055069 
L 76.724973 291.436999 
L 77.448034 290.94222 
L 78.171095 289.767121 
L 79.617218 284.231784 
L 80.340279 283.984394 
L 81.063341 279.067531 
L 81.786402 278.789218 
L 83.232525 280.861104 
L 83.955586 274.67637 
L 84.678647 274.830988 
L 85.401709 274.459904 
L 86.12477 275.789622 
L 86.847832 270.13059 
L 87.570893 270.068743 
L 88.293954 267.130994 
L 89.017016 268.367941 
L 89.740077 266.357902 
L 90.463138 263.203688 
L 91.1862 262.987222 
L 91.909261 264.007703 
L 92.632322 264.749871 
L 93.355384 264.131398 
L 94.078445 263.018146 
L 94.801506 262.245054 
L 95.524568 280.644638 
L 96.247629 277.150263 
L 96.97069 279.345844 
L 97.693752 274.42898 
L 98.416813 273.408499 
L 99.139874 274.521751 
L 99.862936 270.687216 
L 100.585997 272.140629 
L 102.03212 270.254285 
L 102.755181 272.2334 
L 103.478243 273.84143 
L 104.201304 267.409307 
L 104.924365 270.47075 
L 105.647427 274.305285 
L 106.370488 265.8322 
L 107.093549 261.471962 
L 107.816611 264.966337 
L 108.539672 265.801276 
L 109.262733 265.028184 
L 109.985795 265.120955 
L 110.708856 257.884816 
L 111.431917 258.410519 
L 112.154979 263.853085 
L 113.601101 257.173572 
L 114.324163 259.059916 
L 115.047224 257.57558 
L 115.770285 258.008511 
L 116.493347 254.637831 
L 117.216408 257.637427 
L 117.93947 252.565945 
L 118.662531 254.390441 
L 119.385592 253.431808 
L 120.108654 250.679601 
L 120.831715 251.916548 
L 121.554776 246.566753 
L 122.277838 251.17438 
L 123.000899 247.618158 
L 123.72396 247.710929 
L 124.447022 246.937837 
L 125.170083 249.380807 
L 125.893144 244.247477 
L 126.616206 241.495271 
L 127.339267 246.195669 
L 128.062328 246.257516 
L 128.78539 245.298882 
L 129.508451 241.526194 
L 130.231512 244.309325 
L 130.954574 241.4025 
L 131.677635 246.504905 
L 132.400696 242.577599 
L 133.123758 243.072378 
L 133.846819 241.526194 
L 134.569881 240.938645 
L 135.292942 241.557118 
L 136.016003 242.794065 
L 136.739065 241.4025 
L 137.462126 240.722179 
L 138.185187 241.433423 
L 138.908249 262.430596 
L 139.63131 267.10007 
L 140.354371 266.203284 
L 141.077433 265.770352 
L 141.800494 263.543848 
L 142.523555 267.656696 
L 143.246617 260.760718 
L 143.969678 265.24465 
L 144.692739 265.430192 
L 145.415801 260.853489 
L 146.138862 260.265939 
L 146.861923 262.523367 
L 147.584985 259.77116 
L 148.308046 263.079993 
L 149.031108 268.337017 
L 149.754169 267.471154 
L 150.47723 259.956702 
L 151.200292 265.090032 
L 151.923353 262.708909 
L 152.646414 266.543444 
L 153.369476 259.214534 
L 154.092537 260.296863 
L 154.815598 255.689236 
L 155.53866 264.409711 
L 156.261721 260.482405 
L 156.984782 254.019357 
L 157.707844 255.782007 
L 158.430905 261.131802 
L 159.153966 252.967953 
L 159.877028 263.574772 
L 160.600089 261.317344 
L 161.32315 259.956702 
L 162.046212 256.802488 
L 162.769273 259.956702 
L 163.492334 256.647869 
L 164.215396 254.235823 
L 164.938457 261.410115 
L 165.661519 258.286824 
L 166.38458 257.761122 
L 167.107641 255.070762 
L 167.830703 255.070762 
L 168.553764 258.039435 
L 169.276825 257.297267 
L 169.999887 252.473174 
L 170.722948 253.648273 
L 171.446009 253.493655 
L 172.169071 250.432212 
L 172.892132 246.875989 
L 173.615193 250.679601 
L 174.338255 256.122167 
L 175.061316 250.092051 
L 175.784377 255.318152 
L 176.507439 253.95751 
L 177.2305 253.926586 
L 177.953561 255.503694 
L 178.676623 255.534617 
L 179.399684 250.24667 
L 180.122745 255.503694 
L 180.845807 247.030608 
L 181.568868 253.462731 
L 182.29193 250.988838 
L 183.014991 253.710121 
L 183.738052 253.586426 
L 184.461114 249.535425 
L 185.184175 253.215342 
L 185.907236 246.164745 
L 186.630298 254.235823 
L 187.353359 255.194457 
L 188.07642 252.720563 
L 188.799482 244.247477 
L 189.522543 256.802488 
L 190.245604 250.401288 
L 190.968666 247.339845 
L 191.691727 249.442654 
L 192.414788 248.793257 
L 193.13785 244.958722 
L 193.860911 242.763141 
L 194.583972 253.36996 
L 196.030095 244.494867 
L 196.753157 244.371172 
L 197.476218 245.484424 
L 198.199279 248.14386 
L 198.922341 244.52579 
L 199.645402 247.432616 
L 200.368463 246.504905 
L 201.091525 243.59808 
L 201.814586 242.237439 
L 202.537647 245.917356 
L 203.260709 240.753103 
L 203.98377 245.11334 
L 204.706831 240.072782 
L 205.429893 243.969164 
L 206.152954 241.928202 
L 206.876015 243.690851 
L 207.599077 238.650293 
L 208.322138 238.37198 
L 209.045199 243.907317 
L 209.768261 240.351095 
L 210.491322 238.279209 
L 211.214383 238.062743 
L 211.937445 238.000896 
L 213.383568 239.856316 
L 214.106629 238.650293 
L 214.82969 241.835431 
L 215.552752 239.949087 
L 216.275813 241.062339 
L 216.998874 238.928606 
L 217.721936 238.526598 
L 218.444997 239.547079 
L 219.168058 236.980415 
L 219.89112 236.51656 
L 220.614181 237.691659 
L 221.337242 238.062743 
L 222.060304 236.733025 
L 222.783365 238.897682 
L 223.506426 237.691659 
L 224.229488 238.248285 
L 224.952549 236.763949 
L 225.67561 266.296055 
L 226.398672 269.728582 
L 227.121733 269.481193 
L 227.844794 265.677581 
L 228.567856 266.203284 
L 229.290917 262.647062 
L 230.013979 265.770352 
L 230.73704 267.069147 
L 231.460101 264.626177 
L 232.183163 259.585618 
L 232.906224 261.193649 
L 233.629285 255.13261 
L 234.352347 255.225381 
L 235.075408 259.987626 
L 235.798469 257.792045 
L 237.244592 262.616138 
L 237.967653 258.441442 
L 238.690715 261.441038 
L 239.413776 257.266343 
L 240.136837 264.6571 
L 240.859899 255.627388 
L 241.58296 259.461923 
L 242.306021 256.493251 
L 243.029083 255.782007 
L 243.752144 264.595253 
L 244.475206 264.873566 
L 245.198267 260.111321 
L 245.921328 261.781199 
L 246.64439 255.534617 
L 247.367451 262.492443 
L 248.090512 260.296863 
L 248.813574 258.812526 
L 249.536635 254.173976 
L 250.259696 258.84345 
L 250.982758 257.390038 
L 251.705819 262.368749 
L 252.42888 262.677985 
L 253.151942 260.667947 
L 253.875003 257.884816 
L 254.598064 257.606503 
L 255.321126 253.555502 
L 256.044187 255.689236 
L 256.767248 257.451885 
L 257.49031 255.070762 
L 258.936432 264.780795 
L 259.659494 255.163533 
L 260.382555 252.875182 
L 261.105617 253.524579 
L 261.828678 253.61735 
L 262.551739 258.936221 
L 263.274801 253.431808 
L 263.997862 262.337825 
L 264.720923 256.926182 
L 265.443985 259.307305 
L 266.167046 260.94626 
L 266.890107 252.720563 
L 268.33623 255.596465 
L 269.059291 260.01855 
L 269.782353 251.267151 
L 270.505414 252.535021 
L 271.228475 256.214938 
L 271.951537 258.998068 
L 272.674598 252.040242 
L 274.120721 248.360326 
L 274.843782 259.894855 
L 275.566843 251.916548 
L 276.289905 253.36996 
L 277.736028 263.049069 
L 278.459089 261.131802 
L 279.18215 258.039435 
L 279.905212 250.555906 
L 280.628273 256.833411 
L 281.351334 254.699678 
L 282.074396 259.678389 
L 282.797457 255.318152 
L 283.520518 259.028992 
L 284.24358 260.420557 
L 284.966641 259.554695 
L 286.412764 248.978799 
L 287.135825 252.194861 
L 287.858886 256.214938 
L 288.581948 249.226188 
L 289.305009 255.318152 
L 290.02807 248.391249 
L 290.751132 256.307709 
L 291.474193 250.432212 
L 292.197255 255.81293 
L 293.643377 254.947068 
L 294.366439 245.762737 
L 295.0895 255.689236 
L 295.812561 256.833411 
L 296.535623 247.525387 
L 297.258684 249.226188 
L 297.981745 253.400884 
L 298.704807 247.772776 
L 299.427868 260.977183 
L 300.150929 244.433019 
L 300.873991 251.019761 
L 301.597052 255.565541 
L 302.320113 248.205707 
L 303.043175 255.349075 
L 303.766236 248.607715 
L 304.489297 248.576791 
L 305.212359 251.081609 
L 305.93542 244.000088 
L 306.658481 245.453501 
L 307.381543 245.515348 
L 308.104604 249.226188 
L 308.827666 243.134225 
L 309.550727 252.194861 
L 310.273788 252.10209 
L 310.99685 246.381211 
L 311.719911 243.196073 
L 312.442972 247.587234 
L 313.166034 240.47479 
L 313.889095 241.371576 
L 314.612156 244.494867 
L 315.335218 246.412134 
L 316.058279 244.587638 
L 316.78134 255.318152 
L 317.504402 251.452693 
L 318.227463 246.96876 
L 318.950524 243.443462 
L 319.673586 246.535829 
L 320.396647 253.586426 
L 321.119708 253.555502 
L 321.84277 252.720563 
L 322.565831 240.753103 
L 323.288892 248.205707 
L 324.011954 243.072378 
L 324.735015 249.813738 
L 325.458077 241.835431 
L 326.181138 239.547079 
L 326.904199 248.514944 
L 327.627261 247.865547 
L 328.350322 242.979607 
L 329.073383 241.000492 
L 329.796445 243.072378 
L 330.519506 246.937837 
L 331.242567 244.494867 
L 331.965629 250.463135 
L 332.68869 244.309325 
L 333.411751 246.010127 
L 334.134813 250.215746 
L 334.857874 247.247074 
L 335.580935 248.73141 
L 336.303997 246.102898 
L 337.027058 239.392461 
L 337.750119 253.277189 
L 338.473181 243.536233 
L 339.196242 242.67037 
L 339.919304 234.599292 
L 340.642365 245.484424 
L 341.365426 241.928202 
L 342.088488 239.454308 
L 342.811549 238.897682 
L 343.53461 243.041454 
L 344.257672 244.309325 
L 344.980733 240.103706 
L 345.703794 243.969164 
L 346.426856 245.979203 
L 347.149917 243.134225 
L 348.59604 240.81495 
L 349.319101 241.278805 
L 350.042162 243.226996 
L 350.765224 243.474386 
L 351.488285 241.495271 
L 352.211346 238.37198 
L 352.934408 244.278401 
L 353.657469 240.660332 
L 354.38053 233.8262 
L 355.103592 234.197284 
L 355.826653 235.094071 
L 356.549715 236.918567 
L 357.272776 241.247881 
L 357.995837 243.567157 
L 358.718899 237.135033 
L 359.44196 240.753103 
L 360.165021 243.041454 
L 360.888083 237.19688 
L 361.611144 241.000492 
L 362.334205 241.062339 
L 363.057267 240.041858 
L 363.780328 234.784834 
L 364.503389 238.464751 
L 365.226451 236.949491 
L 365.949512 244.927798 
L 366.672573 237.691659 
L 367.395635 240.505713 
L 368.118696 232.063551 
L 368.841757 236.392865 
L 369.564819 238.03182 
L 370.28788 244.123783 
L 371.010941 238.619369 
L 371.734003 237.537041 
L 372.457064 235.867163 
L 373.180126 239.330614 
L 373.903187 236.733025 
L 374.626248 237.135033 
L 375.34931 242.453905 
L 376.072371 239.021377 
L 376.795432 241.557118 
L 377.518494 237.104109 
L 378.241555 242.268363 
L 378.964616 238.650293 
L 379.687678 240.320171 
L 380.410739 242.515752 
L 381.1338 240.258324 
L 381.856862 241.773584 
L 382.579923 238.588446 
L 383.302984 240.753103 
L 384.026046 237.135033 
L 384.749107 245.175188 
L 385.472168 237.227804 
L 386.19523 243.041454 
L 386.918291 238.341056 
L 387.641353 239.29969 
L 388.364414 242.113744 
L 389.087475 243.072378 
L 389.810537 233.764353 
L 390.533598 237.289652 
L 391.256659 234.444674 
L 391.979721 244.061935 
L 392.702782 240.567561 
L 393.425843 242.144668 
L 394.148905 241.124187 
L 394.871966 237.506117 
L 395.595027 241.247881 
L 396.318089 236.825796 
L 397.04115 237.413346 
L 397.764211 242.824989 
L 398.487273 236.794873 
L 398.487273 236.794873 
" clip-path="url(#pb859496561)" style="fill: none; stroke: #d62728; stroke-width: 1.5; stroke-linecap: square"/>
   </g>
   <g id="line2d_24">
    <path d="M 367.395635 76.146403 
L 368.118696 75.960861 
L 368.841757 74.94038 
L 369.564819 75.86809 
L 370.28788 75.002227 
L 371.010941 76.393792 
L 371.734003 74.69299 
L 373.180126 75.466082 
L 373.903187 75.527929 
L 374.626248 78.527526 
L 375.34931 77.692586 
L 376.072371 75.373311 
L 376.795432 74.723914 
L 377.518494 76.517487 
L 378.241555 79.022304 
L 378.964616 76.548411 
L 379.687678 75.311464 
L 380.410739 75.899013 
L 381.1338 75.311464 
L 381.856862 77.352426 
L 382.579923 75.094998 
L 384.026046 77.847205 
L 384.749107 77.38335 
L 385.472168 79.022304 
L 386.19523 77.847205 
L 386.918291 80.692182 
L 387.641353 79.764472 
L 388.364414 81.68174 
L 389.087475 83.166076 
L 389.810537 80.104633 
L 390.533598 83.506237 
L 391.256659 84.031939 
L 391.979721 83.908244 
L 392.702782 85.63997 
L 393.425843 82.454832 
L 394.148905 84.433947 
L 394.871966 85.547199 
L 395.595027 91.11346 
L 396.318089 83.753626 
L 397.04115 85.176115 
L 397.764211 85.887359 
L 398.487273 89.505429 
L 398.487273 89.505429 
" clip-path="url(#pb859496561)" style="fill: none; stroke: #9467bd; stroke-width: 1.5; stroke-linecap: square"/>
   </g>
   <g id="line2d_25">
    <path d="M 367.395635 119.552573 
L 368.118696 123.007494 
L 368.841757 119.616553 
L 369.564819 117.75047 
L 370.28788 117.227966 
L 371.010941 119.584563 
L 371.734003 120.43763 
L 372.457064 120.608243 
L 373.180126 117.91042 
L 373.903187 117.633173 
L 374.626248 127.336808 
L 375.34931 119.584563 
L 376.072371 119.86181 
L 376.795432 117.17465 
L 378.241555 122.61295 
L 378.964616 121.65325 
L 379.687678 117.451896 
L 380.410739 116.21495 
L 381.1338 117.81445 
L 381.856862 120.235027 
L 382.579923 114.455499 
L 383.302984 118.77415 
L 384.026046 121.631924 
L 384.749107 119.76584 
L 385.472168 119.488593 
L 386.19523 119.41395 
L 386.918291 124.532351 
L 387.641353 121.439984 
L 388.364414 124.255104 
L 389.087475 125.289447 
L 389.810537 125.417407 
L 390.533598 128.243191 
L 391.256659 129.330851 
L 391.979721 128.968298 
L 392.702782 129.085595 
L 393.425843 126.046544 
L 394.148905 128.296508 
L 394.871966 131.388875 
L 395.595027 136.976462 
L 396.318089 126.718334 
L 397.04115 124.511024 
L 397.764211 130.813055 
L 398.487273 138.288053 
L 398.487273 138.288053 
" clip-path="url(#pb859496561)" style="fill: none; stroke: #8c564b; stroke-width: 1.5; stroke-linecap: square"/>
   </g>
   <g id="line2d_26">
    <path d="M 367.395635 234.104513 
L 368.118696 241.124187 
L 368.841757 239.485232 
L 369.564819 238.804911 
L 370.28788 234.135437 
L 371.010941 240.041858 
L 371.734003 232.496483 
L 372.457064 245.515348 
L 373.180126 236.300094 
L 373.903187 235.619773 
L 374.626248 247.494463 
L 375.34931 242.361134 
L 376.072371 239.88724 
L 376.795432 236.702102 
L 377.518494 243.752699 
L 378.241555 244.061935 
L 378.964616 243.752699 
L 379.687678 237.289652 
L 380.410739 243.134225 
L 381.1338 246.381211 
L 381.856862 249.102494 
L 382.579923 236.26917 
L 383.302984 242.020973 
L 384.026046 248.762333 
L 384.749107 246.906913 
L 385.472168 253.493655 
L 386.19523 251.17438 
L 386.918291 257.606503 
L 387.641353 254.29767 
L 388.364414 252.596869 
L 389.087475 267.316536 
L 389.810537 264.007703 
L 390.533598 264.966337 
L 391.256659 261.410115 
L 391.979721 257.204496 
L 392.702782 271.614926 
L 393.425843 258.286824 
L 394.148905 261.966741 
L 394.871966 263.543848 
L 395.595027 268.460712 
L 396.318089 260.235015 
L 397.04115 264.131398 
L 397.764211 257.853893 
L 398.487273 264.780795 
L 398.487273 264.780795 
" clip-path="url(#pb859496561)" style="fill: none; stroke: #e377c2; stroke-width: 1.5; stroke-linecap: square"/>
   </g>
   <g id="patch_3">
    <path d="M 57.6 307.584 
L 57.6 41.472 
" style="fill: none; stroke: #000000; stroke-width: 0.8; stroke-linejoin: miter; stroke-linecap: square"/>
   </g>
   <g id="patch_4">
    <path d="M 414.72 307.584 
L 414.72 41.472 
" style="fill: none; stroke: #000000; stroke-width: 0.8; stroke-linejoin: miter; stroke-linecap: square"/>
   </g>
   <g id="patch_5">
    <path d="M 57.6 307.584 
L 414.72 307.584 
" style="fill: none; stroke: #000000; stroke-width: 0.8; stroke-linejoin: miter; stroke-linecap: square"/>
   </g>
   <g id="patch_6">
    <path d="M 57.6 41.472 
L 414.72 41.472 
" style="fill: none; stroke: #000000; stroke-width: 0.8; stroke-linejoin: miter; stroke-linecap: square"/>
   </g>
   <g id="text_22">
    <!-- Learning Curves -->
    <g transform="translate(187.37625 35.472) scale(0.12 -0.12)">
     <defs>
      <path id="DejaVuSans-4c" d="M 628 4666 
L 1259 4666 
L 1259 531 
L 3531 531 
L 3531 0 
L 628 0 
L 628 4666 
z
" transform="scale(0.015625)"/>
      <path id="DejaVuSans-65" d="M 3597 1894 
L 3597 1613 
L 953 1613 
Q 991 1019 1311 708 
Q 1631 397 2203 397 
Q 2534 397 2845 478 
Q 3156 559 3463 722 
L 3463 178 
Q 3153 47 2828 -22 
Q 2503 -91 2169 -91 
Q 1331 -91 842 396 
Q 353 884 353 1716 
Q 353 2575 817 3079 
Q 1281 3584 2069 3584 
Q 2775 3584 3186 3129 
Q 3597 2675 3597 1894 
z
M 3022 2063 
Q 3016 2534 2758 2815 
Q 2500 3097 2075 3097 
Q 1594 3097 1305 2825 
Q 1016 2553 972 2059 
L 3022 2063 
z
" transform="scale(0.015625)"/>
      <path id="DejaVuSans-6e" d="M 3513 2113 
L 3513 0 
L 2938 0 
L 2938 2094 
Q 2938 2591 2744 2837 
Q 2550 3084 2163 3084 
Q 1697 3084 1428 2787 
Q 1159 2491 1159 1978 
L 1159 0 
L 581 0 
L 581 3500 
L 1159 3500 
L 1159 2956 
Q 1366 3272 1645 3428 
Q 1925 3584 2291 3584 
Q 2894 3584 3203 3211 
Q 3513 2838 3513 2113 
z
" transform="scale(0.015625)"/>
      <path id="DejaVuSans-69" d="M 603 3500 
L 1178 3500 
L 1178 0 
L 603 0 
L 603 3500 
z
M 603 4863 
L 1178 4863 
L 1178 4134 
L 603 4134 
L 603 4863 
z
" transform="scale(0.015625)"/>
      <path id="DejaVuSans-67" d="M 2906 1791 
Q 2906 2416 2648 2759 
Q 2391 3103 1925 3103 
Q 1463 3103 1205 2759 
Q 947 2416 947 1791 
Q 947 1169 1205 825 
Q 1463 481 1925 481 
Q 2391 481 2648 825 
Q 2906 1169 2906 1791 
z
M 3481 434 
Q 3481 -459 3084 -895 
Q 2688 -1331 1869 -1331 
Q 1566 -1331 1297 -1286 
Q 1028 -1241 775 -1147 
L 775 -588 
Q 1028 -725 1275 -790 
Q 1522 -856 1778 -856 
Q 2344 -856 2625 -561 
Q 2906 -266 2906 331 
L 2906 616 
Q 2728 306 2450 153 
Q 2172 0 1784 0 
Q 1141 0 747 490 
Q 353 981 353 1791 
Q 353 2603 747 3093 
Q 1141 3584 1784 3584 
Q 2172 3584 2450 3431 
Q 2728 3278 2906 2969 
L 2906 3500 
L 3481 3500 
L 3481 434 
z
" transform="scale(0.015625)"/>
      <path id="DejaVuSans-20" transform="scale(0.015625)"/>
      <path id="DejaVuSans-43" d="M 4122 4306 
L 4122 3641 
Q 3803 3938 3442 4084 
Q 3081 4231 2675 4231 
Q 1875 4231 1450 3742 
Q 1025 3253 1025 2328 
Q 1025 1406 1450 917 
Q 1875 428 2675 428 
Q 3081 428 3442 575 
Q 3803 722 4122 1019 
L 4122 359 
Q 3791 134 3420 21 
Q 3050 -91 2638 -91 
Q 1578 -91 968 557 
Q 359 1206 359 2328 
Q 359 3453 968 4101 
Q 1578 4750 2638 4750 
Q 3056 4750 3426 4639 
Q 3797 4528 4122 4306 
z
" transform="scale(0.015625)"/>
      <path id="DejaVuSans-76" d="M 191 3500 
L 800 3500 
L 1894 563 
L 2988 3500 
L 3597 3500 
L 2284 0 
L 1503 0 
L 191 3500 
z
" transform="scale(0.015625)"/>
     </defs>
     <use xlink:href="#DejaVuSans-4c"/>
     <use xlink:href="#DejaVuSans-65" x="53.962891"/>
     <use xlink:href="#DejaVuSans-61" x="115.486328"/>
     <use xlink:href="#DejaVuSans-72" x="176.765625"/>
     <use xlink:href="#DejaVuSans-6e" x="216.128906"/>
     <use xlink:href="#DejaVuSans-69" x="279.507812"/>
     <use xlink:href="#DejaVuSans-6e" x="307.291016"/>
     <use xlink:href="#DejaVuSans-67" x="370.669922"/>
     <use xlink:href="#DejaVuSans-20" x="434.146484"/>
     <use xlink:href="#DejaVuSans-43" x="465.933594"/>
     <use xlink:href="#DejaVuSans-75" x="535.757812"/>
     <use xlink:href="#DejaVuSans-72" x="599.136719"/>
     <use xlink:href="#DejaVuSans-76" x="640.25"/>
     <use xlink:href="#DejaVuSans-65" x="699.429688"/>
     <use xlink:href="#DejaVuSans-73" x="760.953125"/>
    </g>
   </g>
   <g id="legend_1">
    <g id="patch_7">
     <path d="M 192.291875 227.401437 
L 407.72 227.401437 
Q 409.72 227.401437 409.72 225.401437 
L 409.72 123.654562 
Q 409.72 121.654562 407.72 121.654562 
L 192.291875 121.654562 
Q 190.291875 121.654562 190.291875 123.654562 
L 190.291875 225.401437 
Q 190.291875 227.401437 192.291875 227.401437 
z
" style="fill: #ffffff; opacity: 0.8; stroke: #cccccc; stroke-linejoin: miter"/>
    </g>
    <g id="line2d_27">
     <path d="M 194.291875 129.753 
L 204.291875 129.753 
L 214.291875 129.753 
" style="fill: none; stroke: #1f77b4; stroke-width: 1.5; stroke-linecap: square"/>
    </g>
    <g id="text_23">
     <!-- Train Accuracy -->
     <g transform="translate(222.291875 133.253) scale(0.1 -0.1)">
      <defs>
       <path id="DejaVuSans-54" d="M -19 4666 
L 3928 4666 
L 3928 4134 
L 2272 4134 
L 2272 0 
L 1638 0 
L 1638 4134 
L -19 4134 
L -19 4666 
z
" transform="scale(0.015625)"/>
      </defs>
      <use xlink:href="#DejaVuSans-54"/>
      <use xlink:href="#DejaVuSans-72" x="46.333984"/>
      <use xlink:href="#DejaVuSans-61" x="87.447266"/>
      <use xlink:href="#DejaVuSans-69" x="148.726562"/>
      <use xlink:href="#DejaVuSans-6e" x="176.509766"/>
      <use xlink:href="#DejaVuSans-20" x="239.888672"/>
      <use xlink:href="#DejaVuSans-41" x="271.675781"/>
      <use xlink:href="#DejaVuSans-63" x="338.333984"/>
      <use xlink:href="#DejaVuSans-63" x="393.314453"/>
      <use xlink:href="#DejaVuSans-75" x="448.294922"/>
      <use xlink:href="#DejaVuSans-72" x="511.673828"/>
      <use xlink:href="#DejaVuSans-61" x="552.787109"/>
      <use xlink:href="#DejaVuSans-63" x="614.066406"/>
      <use xlink:href="#DejaVuSans-79" x="669.046875"/>
     </g>
    </g>
    <g id="line2d_28">
     <path d="M 194.291875 144.431125 
L 204.291875 144.431125 
L 214.291875 144.431125 
" style="fill: none; stroke: #ff7f0e; stroke-width: 1.5; stroke-linecap: square"/>
    </g>
    <g id="text_24">
     <!-- Validation Accuracy -->
     <g transform="translate(222.291875 147.931125) scale(0.1 -0.1)">
      <defs>
       <path id="DejaVuSans-56" d="M 1831 0 
L 50 4666 
L 709 4666 
L 2188 738 
L 3669 4666 
L 4325 4666 
L 2547 0 
L 1831 0 
z
" transform="scale(0.015625)"/>
       <path id="DejaVuSans-6c" d="M 603 4863 
L 1178 4863 
L 1178 0 
L 603 0 
L 603 4863 
z
" transform="scale(0.015625)"/>
       <path id="DejaVuSans-64" d="M 2906 2969 
L 2906 4863 
L 3481 4863 
L 3481 0 
L 2906 0 
L 2906 525 
Q 2725 213 2448 61 
Q 2172 -91 1784 -91 
Q 1150 -91 751 415 
Q 353 922 353 1747 
Q 353 2572 751 3078 
Q 1150 3584 1784 3584 
Q 2172 3584 2448 3432 
Q 2725 3281 2906 2969 
z
M 947 1747 
Q 947 1113 1208 752 
Q 1469 391 1925 391 
Q 2381 391 2643 752 
Q 2906 1113 2906 1747 
Q 2906 2381 2643 2742 
Q 2381 3103 1925 3103 
Q 1469 3103 1208 2742 
Q 947 2381 947 1747 
z
" transform="scale(0.015625)"/>
       <path id="DejaVuSans-74" d="M 1172 4494 
L 1172 3500 
L 2356 3500 
L 2356 3053 
L 1172 3053 
L 1172 1153 
Q 1172 725 1289 603 
Q 1406 481 1766 481 
L 2356 481 
L 2356 0 
L 1766 0 
Q 1100 0 847 248 
Q 594 497 594 1153 
L 594 3053 
L 172 3053 
L 172 3500 
L 594 3500 
L 594 4494 
L 1172 4494 
z
" transform="scale(0.015625)"/>
      </defs>
      <use xlink:href="#DejaVuSans-56"/>
      <use xlink:href="#DejaVuSans-61" x="60.658203"/>
      <use xlink:href="#DejaVuSans-6c" x="121.9375"/>
      <use xlink:href="#DejaVuSans-69" x="149.720703"/>
      <use xlink:href="#DejaVuSans-64" x="177.503906"/>
      <use xlink:href="#DejaVuSans-61" x="240.980469"/>
      <use xlink:href="#DejaVuSans-74" x="302.259766"/>
      <use xlink:href="#DejaVuSans-69" x="341.46875"/>
      <use xlink:href="#DejaVuSans-6f" x="369.251953"/>
      <use xlink:href="#DejaVuSans-6e" x="430.433594"/>
      <use xlink:href="#DejaVuSans-20" x="493.8125"/>
      <use xlink:href="#DejaVuSans-41" x="525.599609"/>
      <use xlink:href="#DejaVuSans-63" x="592.257812"/>
      <use xlink:href="#DejaVuSans-63" x="647.238281"/>
      <use xlink:href="#DejaVuSans-75" x="702.21875"/>
      <use xlink:href="#DejaVuSans-72" x="765.597656"/>
      <use xlink:href="#DejaVuSans-61" x="806.710938"/>
      <use xlink:href="#DejaVuSans-63" x="867.990234"/>
      <use xlink:href="#DejaVuSans-79" x="922.970703"/>
     </g>
    </g>
    <g id="line2d_29">
     <path d="M 194.291875 159.10925 
L 204.291875 159.10925 
L 214.291875 159.10925 
" style="fill: none; stroke: #2ca02c; stroke-width: 1.5; stroke-linecap: square"/>
    </g>
    <g id="text_25">
     <!-- Robust Validation Accuracy -->
     <g transform="translate(222.291875 162.60925) scale(0.1 -0.1)">
      <defs>
       <path id="DejaVuSans-52" d="M 2841 2188 
Q 3044 2119 3236 1894 
Q 3428 1669 3622 1275 
L 4263 0 
L 3584 0 
L 2988 1197 
Q 2756 1666 2539 1819 
Q 2322 1972 1947 1972 
L 1259 1972 
L 1259 0 
L 628 0 
L 628 4666 
L 2053 4666 
Q 2853 4666 3247 4331 
Q 3641 3997 3641 3322 
Q 3641 2881 3436 2590 
Q 3231 2300 2841 2188 
z
M 1259 4147 
L 1259 2491 
L 2053 2491 
Q 2509 2491 2742 2702 
Q 2975 2913 2975 3322 
Q 2975 3731 2742 3939 
Q 2509 4147 2053 4147 
L 1259 4147 
z
" transform="scale(0.015625)"/>
       <path id="DejaVuSans-62" d="M 3116 1747 
Q 3116 2381 2855 2742 
Q 2594 3103 2138 3103 
Q 1681 3103 1420 2742 
Q 1159 2381 1159 1747 
Q 1159 1113 1420 752 
Q 1681 391 2138 391 
Q 2594 391 2855 752 
Q 3116 1113 3116 1747 
z
M 1159 2969 
Q 1341 3281 1617 3432 
Q 1894 3584 2278 3584 
Q 2916 3584 3314 3078 
Q 3713 2572 3713 1747 
Q 3713 922 3314 415 
Q 2916 -91 2278 -91 
Q 1894 -91 1617 61 
Q 1341 213 1159 525 
L 1159 0 
L 581 0 
L 581 4863 
L 1159 4863 
L 1159 2969 
z
" transform="scale(0.015625)"/>
      </defs>
      <use xlink:href="#DejaVuSans-52"/>
      <use xlink:href="#DejaVuSans-6f" x="64.982422"/>
      <use xlink:href="#DejaVuSans-62" x="126.164062"/>
      <use xlink:href="#DejaVuSans-75" x="189.640625"/>
      <use xlink:href="#DejaVuSans-73" x="253.019531"/>
      <use xlink:href="#DejaVuSans-74" x="305.119141"/>
      <use xlink:href="#DejaVuSans-20" x="344.328125"/>
      <use xlink:href="#DejaVuSans-56" x="376.115234"/>
      <use xlink:href="#DejaVuSans-61" x="436.773438"/>
      <use xlink:href="#DejaVuSans-6c" x="498.052734"/>
      <use xlink:href="#DejaVuSans-69" x="525.835938"/>
      <use xlink:href="#DejaVuSans-64" x="553.619141"/>
      <use xlink:href="#DejaVuSans-61" x="617.095703"/>
      <use xlink:href="#DejaVuSans-74" x="678.375"/>
      <use xlink:href="#DejaVuSans-69" x="717.583984"/>
      <use xlink:href="#DejaVuSans-6f" x="745.367188"/>
      <use xlink:href="#DejaVuSans-6e" x="806.548828"/>
      <use xlink:href="#DejaVuSans-20" x="869.927734"/>
      <use xlink:href="#DejaVuSans-41" x="901.714844"/>
      <use xlink:href="#DejaVuSans-63" x="968.373047"/>
      <use xlink:href="#DejaVuSans-63" x="1023.353516"/>
      <use xlink:href="#DejaVuSans-75" x="1078.333984"/>
      <use xlink:href="#DejaVuSans-72" x="1141.712891"/>
      <use xlink:href="#DejaVuSans-61" x="1182.826172"/>
      <use xlink:href="#DejaVuSans-63" x="1244.105469"/>
      <use xlink:href="#DejaVuSans-79" x="1299.085938"/>
     </g>
    </g>
    <g id="line2d_30">
     <path d="M 194.291875 173.787375 
L 204.291875 173.787375 
L 214.291875 173.787375 
" style="fill: none; stroke: #d62728; stroke-width: 1.5; stroke-linecap: square"/>
    </g>
    <g id="text_26">
     <!-- Adversarial Validation Accuracy -->
     <g transform="translate(222.291875 177.287375) scale(0.1 -0.1)">
      <use xlink:href="#DejaVuSans-41"/>
      <use xlink:href="#DejaVuSans-64" x="66.658203"/>
      <use xlink:href="#DejaVuSans-76" x="130.134766"/>
      <use xlink:href="#DejaVuSans-65" x="189.314453"/>
      <use xlink:href="#DejaVuSans-72" x="250.837891"/>
      <use xlink:href="#DejaVuSans-73" x="291.951172"/>
      <use xlink:href="#DejaVuSans-61" x="344.050781"/>
      <use xlink:href="#DejaVuSans-72" x="405.330078"/>
      <use xlink:href="#DejaVuSans-69" x="446.443359"/>
      <use xlink:href="#DejaVuSans-61" x="474.226562"/>
      <use xlink:href="#DejaVuSans-6c" x="535.505859"/>
      <use xlink:href="#DejaVuSans-20" x="563.289062"/>
      <use xlink:href="#DejaVuSans-56" x="595.076172"/>
      <use xlink:href="#DejaVuSans-61" x="655.734375"/>
      <use xlink:href="#DejaVuSans-6c" x="717.013672"/>
      <use xlink:href="#DejaVuSans-69" x="744.796875"/>
      <use xlink:href="#DejaVuSans-64" x="772.580078"/>
      <use xlink:href="#DejaVuSans-61" x="836.056641"/>
      <use xlink:href="#DejaVuSans-74" x="897.335938"/>
      <use xlink:href="#DejaVuSans-69" x="936.544922"/>
      <use xlink:href="#DejaVuSans-6f" x="964.328125"/>
      <use xlink:href="#DejaVuSans-6e" x="1025.509766"/>
      <use xlink:href="#DejaVuSans-20" x="1088.888672"/>
      <use xlink:href="#DejaVuSans-41" x="1120.675781"/>
      <use xlink:href="#DejaVuSans-63" x="1187.333984"/>
      <use xlink:href="#DejaVuSans-63" x="1242.314453"/>
      <use xlink:href="#DejaVuSans-75" x="1297.294922"/>
      <use xlink:href="#DejaVuSans-72" x="1360.673828"/>
      <use xlink:href="#DejaVuSans-61" x="1401.787109"/>
      <use xlink:href="#DejaVuSans-63" x="1463.066406"/>
      <use xlink:href="#DejaVuSans-79" x="1518.046875"/>
     </g>
    </g>
    <g id="line2d_31">
     <path d="M 194.291875 188.4655 
L 204.291875 188.4655 
L 214.291875 188.4655 
" style="fill: none; stroke: #9467bd; stroke-width: 1.5; stroke-linecap: square"/>
    </g>
    <g id="text_27">
     <!-- SWA Validation Accuracy -->
     <g transform="translate(222.291875 191.9655) scale(0.1 -0.1)">
      <defs>
       <path id="DejaVuSans-53" d="M 3425 4513 
L 3425 3897 
Q 3066 4069 2747 4153 
Q 2428 4238 2131 4238 
Q 1616 4238 1336 4038 
Q 1056 3838 1056 3469 
Q 1056 3159 1242 3001 
Q 1428 2844 1947 2747 
L 2328 2669 
Q 3034 2534 3370 2195 
Q 3706 1856 3706 1288 
Q 3706 609 3251 259 
Q 2797 -91 1919 -91 
Q 1588 -91 1214 -16 
Q 841 59 441 206 
L 441 856 
Q 825 641 1194 531 
Q 1563 422 1919 422 
Q 2459 422 2753 634 
Q 3047 847 3047 1241 
Q 3047 1584 2836 1778 
Q 2625 1972 2144 2069 
L 1759 2144 
Q 1053 2284 737 2584 
Q 422 2884 422 3419 
Q 422 4038 858 4394 
Q 1294 4750 2059 4750 
Q 2388 4750 2728 4690 
Q 3069 4631 3425 4513 
z
" transform="scale(0.015625)"/>
       <path id="DejaVuSans-57" d="M 213 4666 
L 850 4666 
L 1831 722 
L 2809 4666 
L 3519 4666 
L 4500 722 
L 5478 4666 
L 6119 4666 
L 4947 0 
L 4153 0 
L 3169 4050 
L 2175 0 
L 1381 0 
L 213 4666 
z
" transform="scale(0.015625)"/>
      </defs>
      <use xlink:href="#DejaVuSans-53"/>
      <use xlink:href="#DejaVuSans-57" x="63.476562"/>
      <use xlink:href="#DejaVuSans-41" x="156.853516"/>
      <use xlink:href="#DejaVuSans-20" x="225.261719"/>
      <use xlink:href="#DejaVuSans-56" x="257.048828"/>
      <use xlink:href="#DejaVuSans-61" x="317.707031"/>
      <use xlink:href="#DejaVuSans-6c" x="378.986328"/>
      <use xlink:href="#DejaVuSans-69" x="406.769531"/>
      <use xlink:href="#DejaVuSans-64" x="434.552734"/>
      <use xlink:href="#DejaVuSans-61" x="498.029297"/>
      <use xlink:href="#DejaVuSans-74" x="559.308594"/>
      <use xlink:href="#DejaVuSans-69" x="598.517578"/>
      <use xlink:href="#DejaVuSans-6f" x="626.300781"/>
      <use xlink:href="#DejaVuSans-6e" x="687.482422"/>
      <use xlink:href="#DejaVuSans-20" x="750.861328"/>
      <use xlink:href="#DejaVuSans-41" x="782.648438"/>
      <use xlink:href="#DejaVuSans-63" x="849.306641"/>
      <use xlink:href="#DejaVuSans-63" x="904.287109"/>
      <use xlink:href="#DejaVuSans-75" x="959.267578"/>
      <use xlink:href="#DejaVuSans-72" x="1022.646484"/>
      <use xlink:href="#DejaVuSans-61" x="1063.759766"/>
      <use xlink:href="#DejaVuSans-63" x="1125.039062"/>
      <use xlink:href="#DejaVuSans-79" x="1180.019531"/>
     </g>
    </g>
    <g id="line2d_32">
     <path d="M 194.291875 203.143625 
L 204.291875 203.143625 
L 214.291875 203.143625 
" style="fill: none; stroke: #8c564b; stroke-width: 1.5; stroke-linecap: square"/>
    </g>
    <g id="text_28">
     <!-- SWA Robust Validation Accuracy -->
     <g transform="translate(222.291875 206.643625) scale(0.1 -0.1)">
      <use xlink:href="#DejaVuSans-53"/>
      <use xlink:href="#DejaVuSans-57" x="63.476562"/>
      <use xlink:href="#DejaVuSans-41" x="156.853516"/>
      <use xlink:href="#DejaVuSans-20" x="225.261719"/>
      <use xlink:href="#DejaVuSans-52" x="257.048828"/>
      <use xlink:href="#DejaVuSans-6f" x="322.03125"/>
      <use xlink:href="#DejaVuSans-62" x="383.212891"/>
      <use xlink:href="#DejaVuSans-75" x="446.689453"/>
      <use xlink:href="#DejaVuSans-73" x="510.068359"/>
      <use xlink:href="#DejaVuSans-74" x="562.167969"/>
      <use xlink:href="#DejaVuSans-20" x="601.376953"/>
      <use xlink:href="#DejaVuSans-56" x="633.164062"/>
      <use xlink:href="#DejaVuSans-61" x="693.822266"/>
      <use xlink:href="#DejaVuSans-6c" x="755.101562"/>
      <use xlink:href="#DejaVuSans-69" x="782.884766"/>
      <use xlink:href="#DejaVuSans-64" x="810.667969"/>
      <use xlink:href="#DejaVuSans-61" x="874.144531"/>
      <use xlink:href="#DejaVuSans-74" x="935.423828"/>
      <use xlink:href="#DejaVuSans-69" x="974.632812"/>
      <use xlink:href="#DejaVuSans-6f" x="1002.416016"/>
      <use xlink:href="#DejaVuSans-6e" x="1063.597656"/>
      <use xlink:href="#DejaVuSans-20" x="1126.976562"/>
      <use xlink:href="#DejaVuSans-41" x="1158.763672"/>
      <use xlink:href="#DejaVuSans-63" x="1225.421875"/>
      <use xlink:href="#DejaVuSans-63" x="1280.402344"/>
      <use xlink:href="#DejaVuSans-75" x="1335.382812"/>
      <use xlink:href="#DejaVuSans-72" x="1398.761719"/>
      <use xlink:href="#DejaVuSans-61" x="1439.875"/>
      <use xlink:href="#DejaVuSans-63" x="1501.154297"/>
      <use xlink:href="#DejaVuSans-79" x="1556.134766"/>
     </g>
    </g>
    <g id="line2d_33">
     <path d="M 194.291875 217.82175 
L 204.291875 217.82175 
L 214.291875 217.82175 
" style="fill: none; stroke: #e377c2; stroke-width: 1.5; stroke-linecap: square"/>
    </g>
    <g id="text_29">
     <!-- SWA Adversarial Validation Accuracy -->
     <g transform="translate(222.291875 221.32175) scale(0.1 -0.1)">
      <use xlink:href="#DejaVuSans-53"/>
      <use xlink:href="#DejaVuSans-57" x="63.476562"/>
      <use xlink:href="#DejaVuSans-41" x="156.853516"/>
      <use xlink:href="#DejaVuSans-20" x="225.261719"/>
      <use xlink:href="#DejaVuSans-41" x="257.048828"/>
      <use xlink:href="#DejaVuSans-64" x="323.707031"/>
      <use xlink:href="#DejaVuSans-76" x="387.183594"/>
      <use xlink:href="#DejaVuSans-65" x="446.363281"/>
      <use xlink:href="#DejaVuSans-72" x="507.886719"/>
      <use xlink:href="#DejaVuSans-73" x="549"/>
      <use xlink:href="#DejaVuSans-61" x="601.099609"/>
      <use xlink:href="#DejaVuSans-72" x="662.378906"/>
      <use xlink:href="#DejaVuSans-69" x="703.492188"/>
      <use xlink:href="#DejaVuSans-61" x="731.275391"/>
      <use xlink:href="#DejaVuSans-6c" x="792.554688"/>
      <use xlink:href="#DejaVuSans-20" x="820.337891"/>
      <use xlink:href="#DejaVuSans-56" x="852.125"/>
      <use xlink:href="#DejaVuSans-61" x="912.783203"/>
      <use xlink:href="#DejaVuSans-6c" x="974.0625"/>
      <use xlink:href="#DejaVuSans-69" x="1001.845703"/>
      <use xlink:href="#DejaVuSans-64" x="1029.628906"/>
      <use xlink:href="#DejaVuSans-61" x="1093.105469"/>
      <use xlink:href="#DejaVuSans-74" x="1154.384766"/>
      <use xlink:href="#DejaVuSans-69" x="1193.59375"/>
      <use xlink:href="#DejaVuSans-6f" x="1221.376953"/>
      <use xlink:href="#DejaVuSans-6e" x="1282.558594"/>
      <use xlink:href="#DejaVuSans-20" x="1345.9375"/>
      <use xlink:href="#DejaVuSans-41" x="1377.724609"/>
      <use xlink:href="#DejaVuSans-63" x="1444.382812"/>
      <use xlink:href="#DejaVuSans-63" x="1499.363281"/>
      <use xlink:href="#DejaVuSans-75" x="1554.34375"/>
      <use xlink:href="#DejaVuSans-72" x="1617.722656"/>
      <use xlink:href="#DejaVuSans-61" x="1658.835938"/>
      <use xlink:href="#DejaVuSans-63" x="1720.115234"/>
      <use xlink:href="#DejaVuSans-79" x="1775.095703"/>
     </g>
    </g>
   </g>
  </g>
 </g>
 <defs>
  <clipPath id="pb859496561">
   <rect x="57.6" y="41.472" width="357.12" height="266.112"/>
  </clipPath>
 </defs>
</svg>
