<?xml version="1.0" encoding="utf-8" standalone="no"?>
<!DOCTYPE svg PUBLIC "-//W3C//DTD SVG 1.1//EN"
  "http://www.w3.org/Graphics/SVG/1.1/DTD/svg11.dtd">
<svg xmlns:xlink="http://www.w3.org/1999/xlink" width="460.8pt" height="345.6pt" viewBox="0 0 460.8 345.6" xmlns="http://www.w3.org/2000/svg" version="1.1">
 <metadata>
  <rdf:RDF xmlns:dc="http://purl.org/dc/elements/1.1/" xmlns:cc="http://creativecommons.org/ns#" xmlns:rdf="http://www.w3.org/1999/02/22-rdf-syntax-ns#">
   <cc:Work>
    <dc:type rdf:resource="http://purl.org/dc/dcmitype/StillImage"/>
    <dc:date>2024-09-03T09:48:43.345907</dc:date>
    <dc:format>image/svg+xml</dc:format>
    <dc:creator>
     <cc:Agent>
      <dc:title>Matplotlib v3.9.1, https://matplotlib.org/</dc:title>
     </cc:Agent>
    </dc:creator>
   </cc:Work>
  </rdf:RDF>
 </metadata>
 <defs>
  <style type="text/css">*{stroke-linejoin: round; stroke-linecap: butt}</style>
 </defs>
 <g id="figure_1">
  <g id="patch_1">
   <path d="M 0 345.6 
L 460.8 345.6 
L 460.8 0 
L 0 0 
z
" style="fill: #ffffff"/>
  </g>
  <g id="axes_1">
   <g id="patch_2">
    <path d="M 57.6 307.584 
L 414.72 307.584 
L 414.72 41.472 
L 57.6 41.472 
z
" style="fill: #ffffff"/>
   </g>
   <g id="matplotlib.axis_1">
    <g id="xtick_1">
     <g id="line2d_1">
      <defs>
       <path id="mdb18e947d9" d="M 0 0 
L 0 3.5 
" style="stroke: #000000; stroke-width: 0.8"/>
      </defs>
      <g>
       <use xlink:href="#mdb18e947d9" x="73.832727" y="307.584" style="stroke: #000000; stroke-width: 0.8"/>
      </g>
     </g>
     <g id="text_1">
      <!-- 1 -->
      <g transform="translate(70.651477 322.182437) scale(0.1 -0.1)">
       <defs>
        <path id="DejaVuSans-31" d="M 794 531 
L 1825 531 
L 1825 4091 
L 703 3866 
L 703 4441 
L 1819 4666 
L 2450 4666 
L 2450 531 
L 3481 531 
L 3481 0 
L 794 0 
L 794 531 
z
" transform="scale(0.015625)"/>
       </defs>
       <use xlink:href="#DejaVuSans-31"/>
      </g>
     </g>
    </g>
    <g id="xtick_2">
     <g id="line2d_2">
      <g>
       <use xlink:href="#mdb18e947d9" x="109.262733" y="307.584" style="stroke: #000000; stroke-width: 0.8"/>
      </g>
     </g>
     <g id="text_2">
      <!-- 50 -->
      <g transform="translate(102.900233 322.182437) scale(0.1 -0.1)">
       <defs>
        <path id="DejaVuSans-35" d="M 691 4666 
L 3169 4666 
L 3169 4134 
L 1269 4134 
L 1269 2991 
Q 1406 3038 1543 3061 
Q 1681 3084 1819 3084 
Q 2600 3084 3056 2656 
Q 3513 2228 3513 1497 
Q 3513 744 3044 326 
Q 2575 -91 1722 -91 
Q 1428 -91 1123 -41 
Q 819 9 494 109 
L 494 744 
Q 775 591 1075 516 
Q 1375 441 1709 441 
Q 2250 441 2565 725 
Q 2881 1009 2881 1497 
Q 2881 1984 2565 2268 
Q 2250 2553 1709 2553 
Q 1456 2553 1204 2497 
Q 953 2441 691 2322 
L 691 4666 
z
" transform="scale(0.015625)"/>
        <path id="DejaVuSans-30" d="M 2034 4250 
Q 1547 4250 1301 3770 
Q 1056 3291 1056 2328 
Q 1056 1369 1301 889 
Q 1547 409 2034 409 
Q 2525 409 2770 889 
Q 3016 1369 3016 2328 
Q 3016 3291 2770 3770 
Q 2525 4250 2034 4250 
z
M 2034 4750 
Q 2819 4750 3233 4129 
Q 3647 3509 3647 2328 
Q 3647 1150 3233 529 
Q 2819 -91 2034 -91 
Q 1250 -91 836 529 
Q 422 1150 422 2328 
Q 422 3509 836 4129 
Q 1250 4750 2034 4750 
z
" transform="scale(0.015625)"/>
       </defs>
       <use xlink:href="#DejaVuSans-35"/>
       <use xlink:href="#DejaVuSans-30" x="63.623047"/>
      </g>
     </g>
    </g>
    <g id="xtick_3">
     <g id="line2d_3">
      <g>
       <use xlink:href="#mdb18e947d9" x="145.415801" y="307.584" style="stroke: #000000; stroke-width: 0.8"/>
      </g>
     </g>
     <g id="text_3">
      <!-- 100 -->
      <g transform="translate(135.872051 322.182437) scale(0.1 -0.1)">
       <use xlink:href="#DejaVuSans-31"/>
       <use xlink:href="#DejaVuSans-30" x="63.623047"/>
       <use xlink:href="#DejaVuSans-30" x="127.246094"/>
      </g>
     </g>
    </g>
    <g id="xtick_4">
     <g id="line2d_4">
      <g>
       <use xlink:href="#mdb18e947d9" x="181.568868" y="307.584" style="stroke: #000000; stroke-width: 0.8"/>
      </g>
     </g>
     <g id="text_4">
      <!-- 150 -->
      <g transform="translate(172.025118 322.182437) scale(0.1 -0.1)">
       <use xlink:href="#DejaVuSans-31"/>
       <use xlink:href="#DejaVuSans-35" x="63.623047"/>
       <use xlink:href="#DejaVuSans-30" x="127.246094"/>
      </g>
     </g>
    </g>
    <g id="xtick_5">
     <g id="line2d_5">
      <g>
       <use xlink:href="#mdb18e947d9" x="217.721936" y="307.584" style="stroke: #000000; stroke-width: 0.8"/>
      </g>
     </g>
     <g id="text_5">
      <!-- 200 -->
      <g transform="translate(208.178186 322.182437) scale(0.1 -0.1)">
       <defs>
        <path id="DejaVuSans-32" d="M 1228 531 
L 3431 531 
L 3431 0 
L 469 0 
L 469 531 
Q 828 903 1448 1529 
Q 2069 2156 2228 2338 
Q 2531 2678 2651 2914 
Q 2772 3150 2772 3378 
Q 2772 3750 2511 3984 
Q 2250 4219 1831 4219 
Q 1534 4219 1204 4116 
Q 875 4013 500 3803 
L 500 4441 
Q 881 4594 1212 4672 
Q 1544 4750 1819 4750 
Q 2544 4750 2975 4387 
Q 3406 4025 3406 3419 
Q 3406 3131 3298 2873 
Q 3191 2616 2906 2266 
Q 2828 2175 2409 1742 
Q 1991 1309 1228 531 
z
" transform="scale(0.015625)"/>
       </defs>
       <use xlink:href="#DejaVuSans-32"/>
       <use xlink:href="#DejaVuSans-30" x="63.623047"/>
       <use xlink:href="#DejaVuSans-30" x="127.246094"/>
      </g>
     </g>
    </g>
    <g id="xtick_6">
     <g id="line2d_6">
      <g>
       <use xlink:href="#mdb18e947d9" x="253.875003" y="307.584" style="stroke: #000000; stroke-width: 0.8"/>
      </g>
     </g>
     <g id="text_6">
      <!-- 250 -->
      <g transform="translate(244.331253 322.182437) scale(0.1 -0.1)">
       <use xlink:href="#DejaVuSans-32"/>
       <use xlink:href="#DejaVuSans-35" x="63.623047"/>
       <use xlink:href="#DejaVuSans-30" x="127.246094"/>
      </g>
     </g>
    </g>
    <g id="xtick_7">
     <g id="line2d_7">
      <g>
       <use xlink:href="#mdb18e947d9" x="290.02807" y="307.584" style="stroke: #000000; stroke-width: 0.8"/>
      </g>
     </g>
     <g id="text_7">
      <!-- 300 -->
      <g transform="translate(280.48432 322.182437) scale(0.1 -0.1)">
       <defs>
        <path id="DejaVuSans-33" d="M 2597 2516 
Q 3050 2419 3304 2112 
Q 3559 1806 3559 1356 
Q 3559 666 3084 287 
Q 2609 -91 1734 -91 
Q 1441 -91 1130 -33 
Q 819 25 488 141 
L 488 750 
Q 750 597 1062 519 
Q 1375 441 1716 441 
Q 2309 441 2620 675 
Q 2931 909 2931 1356 
Q 2931 1769 2642 2001 
Q 2353 2234 1838 2234 
L 1294 2234 
L 1294 2753 
L 1863 2753 
Q 2328 2753 2575 2939 
Q 2822 3125 2822 3475 
Q 2822 3834 2567 4026 
Q 2313 4219 1838 4219 
Q 1578 4219 1281 4162 
Q 984 4106 628 3988 
L 628 4550 
Q 988 4650 1302 4700 
Q 1616 4750 1894 4750 
Q 2613 4750 3031 4423 
Q 3450 4097 3450 3541 
Q 3450 3153 3228 2886 
Q 3006 2619 2597 2516 
z
" transform="scale(0.015625)"/>
       </defs>
       <use xlink:href="#DejaVuSans-33"/>
       <use xlink:href="#DejaVuSans-30" x="63.623047"/>
       <use xlink:href="#DejaVuSans-30" x="127.246094"/>
      </g>
     </g>
    </g>
    <g id="xtick_8">
     <g id="line2d_8">
      <g>
       <use xlink:href="#mdb18e947d9" x="326.181138" y="307.584" style="stroke: #000000; stroke-width: 0.8"/>
      </g>
     </g>
     <g id="text_8">
      <!-- 350 -->
      <g transform="translate(316.637388 322.182437) scale(0.1 -0.1)">
       <use xlink:href="#DejaVuSans-33"/>
       <use xlink:href="#DejaVuSans-35" x="63.623047"/>
       <use xlink:href="#DejaVuSans-30" x="127.246094"/>
      </g>
     </g>
    </g>
    <g id="xtick_9">
     <g id="line2d_9">
      <g>
       <use xlink:href="#mdb18e947d9" x="362.334205" y="307.584" style="stroke: #000000; stroke-width: 0.8"/>
      </g>
     </g>
     <g id="text_9">
      <!-- 400 -->
      <g transform="translate(352.790455 322.182437) scale(0.1 -0.1)">
       <defs>
        <path id="DejaVuSans-34" d="M 2419 4116 
L 825 1625 
L 2419 1625 
L 2419 4116 
z
M 2253 4666 
L 3047 4666 
L 3047 1625 
L 3713 1625 
L 3713 1100 
L 3047 1100 
L 3047 0 
L 2419 0 
L 2419 1100 
L 313 1100 
L 313 1709 
L 2253 4666 
z
" transform="scale(0.015625)"/>
       </defs>
       <use xlink:href="#DejaVuSans-34"/>
       <use xlink:href="#DejaVuSans-30" x="63.623047"/>
       <use xlink:href="#DejaVuSans-30" x="127.246094"/>
      </g>
     </g>
    </g>
    <g id="xtick_10">
     <g id="line2d_10">
      <g>
       <use xlink:href="#mdb18e947d9" x="398.487273" y="307.584" style="stroke: #000000; stroke-width: 0.8"/>
      </g>
     </g>
     <g id="text_10">
      <!-- 450 -->
      <g transform="translate(388.943523 322.182437) scale(0.1 -0.1)">
       <use xlink:href="#DejaVuSans-34"/>
       <use xlink:href="#DejaVuSans-35" x="63.623047"/>
       <use xlink:href="#DejaVuSans-30" x="127.246094"/>
      </g>
     </g>
    </g>
    <g id="text_11">
     <!-- Epochs -->
     <g transform="translate(218.244375 335.860562) scale(0.1 -0.1)">
      <defs>
       <path id="DejaVuSans-45" d="M 628 4666 
L 3578 4666 
L 3578 4134 
L 1259 4134 
L 1259 2753 
L 3481 2753 
L 3481 2222 
L 1259 2222 
L 1259 531 
L 3634 531 
L 3634 0 
L 628 0 
L 628 4666 
z
" transform="scale(0.015625)"/>
       <path id="DejaVuSans-70" d="M 1159 525 
L 1159 -1331 
L 581 -1331 
L 581 3500 
L 1159 3500 
L 1159 2969 
Q 1341 3281 1617 3432 
Q 1894 3584 2278 3584 
Q 2916 3584 3314 3078 
Q 3713 2572 3713 1747 
Q 3713 922 3314 415 
Q 2916 -91 2278 -91 
Q 1894 -91 1617 61 
Q 1341 213 1159 525 
z
M 3116 1747 
Q 3116 2381 2855 2742 
Q 2594 3103 2138 3103 
Q 1681 3103 1420 2742 
Q 1159 2381 1159 1747 
Q 1159 1113 1420 752 
Q 1681 391 2138 391 
Q 2594 391 2855 752 
Q 3116 1113 3116 1747 
z
" transform="scale(0.015625)"/>
       <path id="DejaVuSans-6f" d="M 1959 3097 
Q 1497 3097 1228 2736 
Q 959 2375 959 1747 
Q 959 1119 1226 758 
Q 1494 397 1959 397 
Q 2419 397 2687 759 
Q 2956 1122 2956 1747 
Q 2956 2369 2687 2733 
Q 2419 3097 1959 3097 
z
M 1959 3584 
Q 2709 3584 3137 3096 
Q 3566 2609 3566 1747 
Q 3566 888 3137 398 
Q 2709 -91 1959 -91 
Q 1206 -91 779 398 
Q 353 888 353 1747 
Q 353 2609 779 3096 
Q 1206 3584 1959 3584 
z
" transform="scale(0.015625)"/>
       <path id="DejaVuSans-63" d="M 3122 3366 
L 3122 2828 
Q 2878 2963 2633 3030 
Q 2388 3097 2138 3097 
Q 1578 3097 1268 2742 
Q 959 2388 959 1747 
Q 959 1106 1268 751 
Q 1578 397 2138 397 
Q 2388 397 2633 464 
Q 2878 531 3122 666 
L 3122 134 
Q 2881 22 2623 -34 
Q 2366 -91 2075 -91 
Q 1284 -91 818 406 
Q 353 903 353 1747 
Q 353 2603 823 3093 
Q 1294 3584 2113 3584 
Q 2378 3584 2631 3529 
Q 2884 3475 3122 3366 
z
" transform="scale(0.015625)"/>
       <path id="DejaVuSans-68" d="M 3513 2113 
L 3513 0 
L 2938 0 
L 2938 2094 
Q 2938 2591 2744 2837 
Q 2550 3084 2163 3084 
Q 1697 3084 1428 2787 
Q 1159 2491 1159 1978 
L 1159 0 
L 581 0 
L 581 4863 
L 1159 4863 
L 1159 2956 
Q 1366 3272 1645 3428 
Q 1925 3584 2291 3584 
Q 2894 3584 3203 3211 
Q 3513 2838 3513 2113 
z
" transform="scale(0.015625)"/>
       <path id="DejaVuSans-73" d="M 2834 3397 
L 2834 2853 
Q 2591 2978 2328 3040 
Q 2066 3103 1784 3103 
Q 1356 3103 1142 2972 
Q 928 2841 928 2578 
Q 928 2378 1081 2264 
Q 1234 2150 1697 2047 
L 1894 2003 
Q 2506 1872 2764 1633 
Q 3022 1394 3022 966 
Q 3022 478 2636 193 
Q 2250 -91 1575 -91 
Q 1294 -91 989 -36 
Q 684 19 347 128 
L 347 722 
Q 666 556 975 473 
Q 1284 391 1588 391 
Q 1994 391 2212 530 
Q 2431 669 2431 922 
Q 2431 1156 2273 1281 
Q 2116 1406 1581 1522 
L 1381 1569 
Q 847 1681 609 1914 
Q 372 2147 372 2553 
Q 372 3047 722 3315 
Q 1072 3584 1716 3584 
Q 2034 3584 2315 3537 
Q 2597 3491 2834 3397 
z
" transform="scale(0.015625)"/>
      </defs>
      <use xlink:href="#DejaVuSans-45"/>
      <use xlink:href="#DejaVuSans-70" x="63.183594"/>
      <use xlink:href="#DejaVuSans-6f" x="126.660156"/>
      <use xlink:href="#DejaVuSans-63" x="187.841797"/>
      <use xlink:href="#DejaVuSans-68" x="242.822266"/>
      <use xlink:href="#DejaVuSans-73" x="306.201172"/>
     </g>
    </g>
   </g>
   <g id="matplotlib.axis_2">
    <g id="ytick_1">
     <g id="line2d_11">
      <defs>
       <path id="me122a58a3c" d="M 0 0 
L -3.5 0 
" style="stroke: #000000; stroke-width: 0.8"/>
      </defs>
      <g>
       <use xlink:href="#me122a58a3c" x="57.6" y="284.819321" style="stroke: #000000; stroke-width: 0.8"/>
      </g>
     </g>
     <g id="text_12">
      <!-- 10 -->
      <g transform="translate(37.875 288.61854) scale(0.1 -0.1)">
       <use xlink:href="#DejaVuSans-31"/>
       <use xlink:href="#DejaVuSans-30" x="63.623047"/>
      </g>
     </g>
    </g>
    <g id="ytick_2">
     <g id="line2d_12">
      <g>
       <use xlink:href="#me122a58a3c" x="57.6" y="253.984989" style="stroke: #000000; stroke-width: 0.8"/>
      </g>
     </g>
     <g id="text_13">
      <!-- 20 -->
      <g transform="translate(37.875 257.784208) scale(0.1 -0.1)">
       <use xlink:href="#DejaVuSans-32"/>
       <use xlink:href="#DejaVuSans-30" x="63.623047"/>
      </g>
     </g>
    </g>
    <g id="ytick_3">
     <g id="line2d_13">
      <g>
       <use xlink:href="#me122a58a3c" x="57.6" y="223.150658" style="stroke: #000000; stroke-width: 0.8"/>
      </g>
     </g>
     <g id="text_14">
      <!-- 30 -->
      <g transform="translate(37.875 226.949876) scale(0.1 -0.1)">
       <use xlink:href="#DejaVuSans-33"/>
       <use xlink:href="#DejaVuSans-30" x="63.623047"/>
      </g>
     </g>
    </g>
    <g id="ytick_4">
     <g id="line2d_14">
      <g>
       <use xlink:href="#me122a58a3c" x="57.6" y="192.316326" style="stroke: #000000; stroke-width: 0.8"/>
      </g>
     </g>
     <g id="text_15">
      <!-- 40 -->
      <g transform="translate(37.875 196.115545) scale(0.1 -0.1)">
       <use xlink:href="#DejaVuSans-34"/>
       <use xlink:href="#DejaVuSans-30" x="63.623047"/>
      </g>
     </g>
    </g>
    <g id="ytick_5">
     <g id="line2d_15">
      <g>
       <use xlink:href="#me122a58a3c" x="57.6" y="161.481994" style="stroke: #000000; stroke-width: 0.8"/>
      </g>
     </g>
     <g id="text_16">
      <!-- 50 -->
      <g transform="translate(37.875 165.281213) scale(0.1 -0.1)">
       <use xlink:href="#DejaVuSans-35"/>
       <use xlink:href="#DejaVuSans-30" x="63.623047"/>
      </g>
     </g>
    </g>
    <g id="ytick_6">
     <g id="line2d_16">
      <g>
       <use xlink:href="#me122a58a3c" x="57.6" y="130.647662" style="stroke: #000000; stroke-width: 0.8"/>
      </g>
     </g>
     <g id="text_17">
      <!-- 60 -->
      <g transform="translate(37.875 134.446881) scale(0.1 -0.1)">
       <defs>
        <path id="DejaVuSans-36" d="M 2113 2584 
Q 1688 2584 1439 2293 
Q 1191 2003 1191 1497 
Q 1191 994 1439 701 
Q 1688 409 2113 409 
Q 2538 409 2786 701 
Q 3034 994 3034 1497 
Q 3034 2003 2786 2293 
Q 2538 2584 2113 2584 
z
M 3366 4563 
L 3366 3988 
Q 3128 4100 2886 4159 
Q 2644 4219 2406 4219 
Q 1781 4219 1451 3797 
Q 1122 3375 1075 2522 
Q 1259 2794 1537 2939 
Q 1816 3084 2150 3084 
Q 2853 3084 3261 2657 
Q 3669 2231 3669 1497 
Q 3669 778 3244 343 
Q 2819 -91 2113 -91 
Q 1303 -91 875 529 
Q 447 1150 447 2328 
Q 447 3434 972 4092 
Q 1497 4750 2381 4750 
Q 2619 4750 2861 4703 
Q 3103 4656 3366 4563 
z
" transform="scale(0.015625)"/>
       </defs>
       <use xlink:href="#DejaVuSans-36"/>
       <use xlink:href="#DejaVuSans-30" x="63.623047"/>
      </g>
     </g>
    </g>
    <g id="ytick_7">
     <g id="line2d_17">
      <g>
       <use xlink:href="#me122a58a3c" x="57.6" y="99.813331" style="stroke: #000000; stroke-width: 0.8"/>
      </g>
     </g>
     <g id="text_18">
      <!-- 70 -->
      <g transform="translate(37.875 103.61255) scale(0.1 -0.1)">
       <defs>
        <path id="DejaVuSans-37" d="M 525 4666 
L 3525 4666 
L 3525 4397 
L 1831 0 
L 1172 0 
L 2766 4134 
L 525 4134 
L 525 4666 
z
" transform="scale(0.015625)"/>
       </defs>
       <use xlink:href="#DejaVuSans-37"/>
       <use xlink:href="#DejaVuSans-30" x="63.623047"/>
      </g>
     </g>
    </g>
    <g id="ytick_8">
     <g id="line2d_18">
      <g>
       <use xlink:href="#me122a58a3c" x="57.6" y="68.978999" style="stroke: #000000; stroke-width: 0.8"/>
      </g>
     </g>
     <g id="text_19">
      <!-- 80 -->
      <g transform="translate(37.875 72.778218) scale(0.1 -0.1)">
       <defs>
        <path id="DejaVuSans-38" d="M 2034 2216 
Q 1584 2216 1326 1975 
Q 1069 1734 1069 1313 
Q 1069 891 1326 650 
Q 1584 409 2034 409 
Q 2484 409 2743 651 
Q 3003 894 3003 1313 
Q 3003 1734 2745 1975 
Q 2488 2216 2034 2216 
z
M 1403 2484 
Q 997 2584 770 2862 
Q 544 3141 544 3541 
Q 544 4100 942 4425 
Q 1341 4750 2034 4750 
Q 2731 4750 3128 4425 
Q 3525 4100 3525 3541 
Q 3525 3141 3298 2862 
Q 3072 2584 2669 2484 
Q 3125 2378 3379 2068 
Q 3634 1759 3634 1313 
Q 3634 634 3220 271 
Q 2806 -91 2034 -91 
Q 1263 -91 848 271 
Q 434 634 434 1313 
Q 434 1759 690 2068 
Q 947 2378 1403 2484 
z
M 1172 3481 
Q 1172 3119 1398 2916 
Q 1625 2713 2034 2713 
Q 2441 2713 2670 2916 
Q 2900 3119 2900 3481 
Q 2900 3844 2670 4047 
Q 2441 4250 2034 4250 
Q 1625 4250 1398 4047 
Q 1172 3844 1172 3481 
z
" transform="scale(0.015625)"/>
       </defs>
       <use xlink:href="#DejaVuSans-38"/>
       <use xlink:href="#DejaVuSans-30" x="63.623047"/>
      </g>
     </g>
    </g>
    <g id="text_20">
     <!-- Accuracy -->
     <g transform="translate(31.795312 197.356125) rotate(-90) scale(0.1 -0.1)">
      <defs>
       <path id="DejaVuSans-41" d="M 2188 4044 
L 1331 1722 
L 3047 1722 
L 2188 4044 
z
M 1831 4666 
L 2547 4666 
L 4325 0 
L 3669 0 
L 3244 1197 
L 1141 1197 
L 716 0 
L 50 0 
L 1831 4666 
z
" transform="scale(0.015625)"/>
       <path id="DejaVuSans-75" d="M 544 1381 
L 544 3500 
L 1119 3500 
L 1119 1403 
Q 1119 906 1312 657 
Q 1506 409 1894 409 
Q 2359 409 2629 706 
Q 2900 1003 2900 1516 
L 2900 3500 
L 3475 3500 
L 3475 0 
L 2900 0 
L 2900 538 
Q 2691 219 2414 64 
Q 2138 -91 1772 -91 
Q 1169 -91 856 284 
Q 544 659 544 1381 
z
M 1991 3584 
L 1991 3584 
z
" transform="scale(0.015625)"/>
       <path id="DejaVuSans-72" d="M 2631 2963 
Q 2534 3019 2420 3045 
Q 2306 3072 2169 3072 
Q 1681 3072 1420 2755 
Q 1159 2438 1159 1844 
L 1159 0 
L 581 0 
L 581 3500 
L 1159 3500 
L 1159 2956 
Q 1341 3275 1631 3429 
Q 1922 3584 2338 3584 
Q 2397 3584 2469 3576 
Q 2541 3569 2628 3553 
L 2631 2963 
z
" transform="scale(0.015625)"/>
       <path id="DejaVuSans-61" d="M 2194 1759 
Q 1497 1759 1228 1600 
Q 959 1441 959 1056 
Q 959 750 1161 570 
Q 1363 391 1709 391 
Q 2188 391 2477 730 
Q 2766 1069 2766 1631 
L 2766 1759 
L 2194 1759 
z
M 3341 1997 
L 3341 0 
L 2766 0 
L 2766 531 
Q 2569 213 2275 61 
Q 1981 -91 1556 -91 
Q 1019 -91 701 211 
Q 384 513 384 1019 
Q 384 1609 779 1909 
Q 1175 2209 1959 2209 
L 2766 2209 
L 2766 2266 
Q 2766 2663 2505 2880 
Q 2244 3097 1772 3097 
Q 1472 3097 1187 3025 
Q 903 2953 641 2809 
L 641 3341 
Q 956 3463 1253 3523 
Q 1550 3584 1831 3584 
Q 2591 3584 2966 3190 
Q 3341 2797 3341 1997 
z
" transform="scale(0.015625)"/>
       <path id="DejaVuSans-79" d="M 2059 -325 
Q 1816 -950 1584 -1140 
Q 1353 -1331 966 -1331 
L 506 -1331 
L 506 -850 
L 844 -850 
Q 1081 -850 1212 -737 
Q 1344 -625 1503 -206 
L 1606 56 
L 191 3500 
L 800 3500 
L 1894 763 
L 2988 3500 
L 3597 3500 
L 2059 -325 
z
" transform="scale(0.015625)"/>
      </defs>
      <use xlink:href="#DejaVuSans-41"/>
      <use xlink:href="#DejaVuSans-63" x="66.658203"/>
      <use xlink:href="#DejaVuSans-63" x="121.638672"/>
      <use xlink:href="#DejaVuSans-75" x="176.619141"/>
      <use xlink:href="#DejaVuSans-72" x="239.998047"/>
      <use xlink:href="#DejaVuSans-61" x="281.111328"/>
      <use xlink:href="#DejaVuSans-63" x="342.390625"/>
      <use xlink:href="#DejaVuSans-79" x="397.371094"/>
     </g>
    </g>
   </g>
   <g id="line2d_19">
    <path d="M 73.832727 294.945316 
L 74.555789 273.256447 
L 76.001911 225.555736 
L 76.724973 208.054169 
L 77.448034 194.117051 
L 78.171095 182.813185 
L 78.894157 173.575219 
L 81.063341 153.051888 
L 81.786402 147.477041 
L 83.232525 140.631819 
L 83.955586 135.167976 
L 84.678647 133.003405 
L 85.401709 130.289984 
L 86.12477 126.36169 
L 86.847832 124.345125 
L 88.293954 117.666409 
L 89.017016 116.624208 
L 89.740077 113.115261 
L 90.463138 111.487209 
L 91.1862 110.630014 
L 91.909261 108.064598 
L 92.632322 107.70692 
L 93.355384 107.639084 
L 94.801506 105.782857 
L 95.524568 131.412354 
L 96.247629 133.163744 
L 96.97069 130.678497 
L 97.693752 129.401955 
L 98.416813 126.713202 
L 99.139874 124.69047 
L 99.862936 123.962779 
L 100.585997 121.323361 
L 101.309059 119.325296 
L 102.03212 119.491801 
L 102.755181 118.079589 
L 103.478243 115.662177 
L 104.201304 113.738115 
L 104.924365 112.788418 
L 105.647427 112.295068 
L 106.370488 109.809821 
L 107.093549 110.414174 
L 107.816611 106.831225 
L 108.539672 107.164235 
L 109.262733 104.962664 
L 109.985795 104.993498 
L 110.708856 103.852628 
L 111.431917 103.131105 
L 112.154979 101.484552 
L 112.87804 99.449486 
L 113.601101 98.376451 
L 114.324163 98.086608 
L 115.047224 96.742231 
L 115.770285 94.176815 
L 116.493347 94.182982 
L 117.216408 92.813937 
L 120.108654 89.255656 
L 120.831715 88.435462 
L 121.554776 87.300759 
L 122.277838 85.894713 
L 123.000899 85.167023 
L 123.72396 83.890482 
L 124.447022 84.186491 
L 125.170083 83.390966 
L 125.893144 82.262429 
L 126.616206 80.455537 
L 127.339267 80.01769 
L 128.062328 79.098827 
L 128.78539 77.896288 
L 129.508451 77.04526 
L 130.231512 77.415272 
L 130.954574 76.718416 
L 131.677635 75.70705 
L 132.400696 75.485043 
L 133.123758 74.745019 
L 133.846819 73.634983 
L 134.569881 74.140666 
L 135.292942 73.881658 
L 136.016003 73.301972 
L 136.739065 73.832323 
L 137.462126 74.103665 
L 138.185187 73.382142 
L 138.908249 96.68673 
L 139.63131 100.843197 
L 140.354371 101.385882 
L 141.077433 100.713693 
L 141.800494 101.23171 
L 142.523555 100.399183 
L 143.246617 100.423851 
L 143.969678 100.941867 
L 144.692739 98.308615 
L 145.415801 97.784432 
L 146.138862 98.518289 
L 146.861923 97.796765 
L 147.584985 95.447189 
L 148.308046 96.026875 
L 149.031108 95.835702 
L 149.754169 94.941506 
L 150.47723 95.940539 
L 151.200292 93.948641 
L 151.923353 94.32482 
L 152.646414 92.462426 
L 153.369476 93.31962 
L 154.092537 93.960975 
L 154.815598 93.350455 
L 155.53866 91.96291 
L 156.261721 91.839573 
L 156.984782 90.143684 
L 157.707844 90.994712 
L 158.430905 90.593866 
L 159.153966 89.835341 
L 159.877028 88.256623 
L 160.600089 88.06545 
L 161.32315 88.928812 
L 162.046212 89.015148 
L 162.769273 86.875245 
L 163.492334 86.406563 
L 164.215396 86.813576 
L 164.938457 85.752875 
L 165.661519 84.926515 
L 166.38458 84.901848 
L 167.107641 85.142356 
L 167.830703 85.080687 
L 168.553764 84.494835 
L 169.276825 82.601607 
L 169.999887 83.526637 
L 170.722948 82.922284 
L 172.892132 80.227363 
L 173.615193 80.060858 
L 174.338255 80.196529 
L 175.061316 79.925187 
L 175.784377 80.01769 
L 176.507439 79.549008 
L 177.2305 79.456505 
L 178.676623 77.088428 
L 179.399684 77.168598 
L 180.122745 77.396772 
L 180.845807 77.051427 
L 181.568868 76.132564 
L 182.29193 76.391572 
L 183.014991 74.627849 
L 183.738052 73.789155 
L 184.461114 74.510678 
L 185.184175 74.004995 
L 185.907236 74.085164 
L 186.630298 72.469445 
L 187.353359 72.777789 
L 188.07642 71.871259 
L 188.799482 71.519748 
L 190.245604 69.94103 
L 190.968666 70.415879 
L 191.691727 69.447681 
L 192.414788 69.595686 
L 193.13785 68.664489 
L 193.860911 68.035468 
L 194.583972 67.87513 
L 196.030095 66.63559 
L 196.753157 66.24091 
L 197.476218 65.519387 
L 198.199279 65.204877 
L 198.922341 64.730028 
L 199.645402 65.00137 
L 200.368463 63.983837 
L 201.091525 63.885167 
L 201.814586 63.354817 
L 202.537647 63.404152 
L 203.260709 63.058807 
L 203.98377 63.027973 
L 204.706831 61.819267 
L 205.429893 60.246716 
L 206.152954 62.146111 
L 206.876015 61.18408 
L 208.322138 60.166547 
L 209.045199 59.993875 
L 209.768261 59.617696 
L 210.491322 58.982509 
L 211.214383 58.09448 
L 211.937445 58.513827 
L 212.660506 58.248652 
L 213.383568 57.58263 
L 214.106629 58.544661 
L 214.82969 58.532327 
L 215.552752 56.87344 
L 216.275813 57.36679 
L 216.998874 57.107781 
L 217.721936 56.645266 
L 218.444997 56.904275 
L 219.168058 57.675133 
L 219.89112 56.700768 
L 220.614181 56.250587 
L 222.060304 56.373924 
L 222.783365 56.768604 
L 224.229488 56.176584 
L 224.952549 56.663767 
L 225.67561 81.004388 
L 226.398672 85.820711 
L 227.121733 87.855777 
L 227.844794 87.584435 
L 228.567856 87.054084 
L 229.290917 87.387095 
L 230.013979 86.585402 
L 230.73704 87.621436 
L 231.460101 86.29556 
L 232.183163 86.030384 
L 232.906224 87.097252 
L 233.629285 86.653238 
L 234.352347 86.603903 
L 235.798469 85.395197 
L 236.521531 86.721073 
L 237.244592 84.803178 
L 238.690715 84.507168 
L 239.413776 85.98105 
L 240.136837 84.525669 
L 240.859899 84.766177 
L 241.58296 84.254327 
L 242.306021 83.279962 
L 243.029083 84.019986 
L 243.752144 83.797979 
L 244.475206 82.465936 
L 245.198267 83.076455 
L 245.921328 83.871981 
L 247.367451 83.600639 
L 248.090512 82.169926 
L 248.813574 81.3744 
L 249.536635 82.071256 
L 250.259696 82.490603 
L 251.705819 81.121559 
L 252.42888 81.651909 
L 253.151942 80.424703 
L 253.875003 80.831716 
L 254.598064 80.726879 
L 255.321126 81.608741 
L 256.044187 81.244896 
L 256.767248 80.350701 
L 257.49031 80.54804 
L 258.936432 80.64671 
L 259.659494 80.326033 
L 260.382555 79.555175 
L 261.105617 79.518174 
L 261.828678 80.480205 
L 262.551739 79.555175 
L 263.274801 79.808016 
L 263.997862 79.148162 
L 264.720923 79.401003 
L 265.443985 78.371136 
L 266.167046 77.637279 
L 266.890107 78.062793 
L 267.613169 77.631112 
L 268.33623 77.396772 
L 269.059291 77.692781 
L 269.782353 78.161463 
L 270.505414 77.137763 
L 271.228475 76.447074 
L 272.674598 76.53341 
L 273.397659 76.280569 
L 274.120721 76.43474 
L 274.843782 76.854087 
L 275.566843 76.878755 
L 276.289905 75.725551 
L 277.012966 75.873556 
L 277.736028 75.546712 
L 278.459089 75.867389 
L 279.18215 75.725551 
L 279.905212 74.436676 
L 280.628273 75.121198 
L 281.351334 74.954692 
L 282.074396 74.27017 
L 282.797457 74.541512 
L 283.520518 74.288671 
L 284.24358 75.010194 
L 284.966641 73.628816 
L 285.689702 72.777789 
L 286.412764 73.264971 
L 287.135825 72.074766 
L 287.858886 72.870292 
L 288.581948 73.369808 
L 290.02807 72.1056 
L 290.751132 72.426277 
L 291.474193 71.840425 
L 292.197255 71.649252 
L 292.920316 72.1056 
L 293.643377 71.057233 
L 294.366439 71.0634 
L 295.0895 71.871259 
L 295.812561 71.421078 
L 296.535623 70.058201 
L 297.258684 71.408744 
L 297.981745 70.878394 
L 299.427868 70.33571 
L 300.150929 70.773557 
L 300.873991 70.391211 
L 301.597052 69.515516 
L 303.043175 69.74369 
L 303.766236 69.028334 
L 304.489297 68.066303 
L 305.93542 67.825795 
L 306.658481 68.245142 
L 307.381543 67.850462 
L 308.104604 67.714791 
L 308.827666 68.084803 
L 309.550727 66.647924 
L 310.273788 66.75276 
L 311.719911 66.672591 
L 313.166034 65.759895 
L 313.889095 66.117573 
L 314.612156 65.778395 
L 315.335218 66.080572 
L 316.058279 65.143208 
L 316.78134 65.278879 
L 318.227463 64.791697 
L 318.950524 64.711527 
L 319.673586 64.933535 
L 320.396647 62.997139 
L 321.119708 63.940669 
L 321.84277 63.76183 
L 322.565831 63.175978 
L 323.288892 63.169811 
L 324.011954 62.923136 
L 324.735015 63.576824 
L 326.181138 61.30125 
L 326.904199 62.596292 
L 327.627261 62.30645 
L 328.350322 61.541758 
L 329.073383 62.300283 
L 329.796445 61.48009 
L 330.519506 61.566426 
L 331.242567 61.165579 
L 331.965629 60.222049 
L 332.68869 60.57356 
L 333.411751 60.499558 
L 334.134813 59.7472 
L 334.857874 59.84587 
L 335.580935 60.080211 
L 336.303997 58.816003 
L 337.027058 58.482992 
L 337.750119 58.439824 
L 338.473181 58.532327 
L 339.196242 58.285653 
L 339.919304 57.761469 
L 341.365426 57.958809 
L 342.088488 56.706935 
L 342.811549 56.429426 
L 343.53461 57.46546 
L 344.257672 57.508628 
L 344.980733 56.164251 
L 345.703794 56.410925 
L 346.426856 55.603066 
L 347.872978 55.12205 
L 350.042162 54.967879 
L 350.765224 54.437528 
L 351.488285 54.875376 
L 352.211346 54.943211 
L 352.934408 54.671869 
L 353.657469 54.875376 
L 354.38053 54.246355 
L 355.103592 55.208386 
L 357.272776 54.536198 
L 357.995837 54.363526 
L 358.718899 54.320358 
L 359.44196 54.431361 
L 360.165021 54.752038 
L 360.888083 54.042849 
L 361.611144 55.214553 
L 362.334205 54.369693 
L 363.057267 54.974046 
L 363.780328 55.257721 
L 364.503389 54.745871 
L 365.226451 54.523864 
L 365.949512 54.6102 
L 366.672573 54.246355 
L 367.395635 54.400527 
L 368.118696 55.22072 
L 368.841757 54.110684 
L 369.564819 54.585533 
L 370.28788 54.530031 
L 371.010941 54.78904 
L 371.734003 54.369693 
L 372.457064 54.234022 
L 373.180126 53.814675 
L 373.903187 54.604034 
L 374.626248 54.246355 
L 375.34931 54.653368 
L 376.072371 54.634868 
L 376.795432 54.215521 
L 377.518494 55.085049 
L 378.241555 53.568 
L 378.964616 54.523864 
L 379.687678 53.709838 
L 380.410739 54.69037 
L 381.1338 53.78384 
L 381.856862 54.123018 
L 382.579923 54.715037 
L 383.302984 54.246355 
L 384.026046 55.448894 
L 384.749107 54.579366 
L 385.472168 54.234022 
L 386.19523 54.517697 
L 386.918291 54.012014 
L 387.641353 54.363526 
L 388.364414 53.999681 
L 389.087475 54.949378 
L 390.533598 54.209354 
L 391.979721 54.419028 
L 392.702782 54.604034 
L 393.425843 54.542365 
L 394.148905 54.937044 
L 395.595027 53.839342 
L 396.318089 54.049016 
L 397.04115 54.856875 
L 397.764211 54.314191 
L 398.487273 54.449862 
L 398.487273 54.449862 
" clip-path="url(#p316c15d64b)" style="fill: none; stroke: #1f77b4; stroke-width: 1.5; stroke-linecap: square"/>
   </g>
   <g id="line2d_20">
    <path d="M 73.832727 283.894291 
L 74.555789 266.380391 
L 75.27885 241.497085 
L 76.001911 220.591408 
L 76.724973 205.451751 
L 77.448034 193.76554 
L 78.171095 187.629508 
L 78.894157 172.05817 
L 79.617218 172.089004 
L 80.340279 164.503759 
L 81.063341 164.65793 
L 81.786402 143.320573 
L 82.509463 150.443303 
L 83.955586 137.246209 
L 84.678647 134.162776 
L 85.401709 128.427591 
L 86.12477 126.300022 
L 87.570893 120.287327 
L 88.293954 118.807279 
L 89.017016 116.093858 
L 89.740077 114.922153 
L 90.463138 114.305467 
L 91.1862 111.098696 
L 91.909261 110.173666 
L 92.632322 110.111998 
L 93.355384 109.248636 
L 94.801506 109.156133 
L 95.524568 140.514649 
L 96.247629 134.409451 
L 96.97069 137.46205 
L 97.693752 129.475958 
L 98.416813 132.682728 
L 99.139874 131.171846 
L 99.862936 124.573299 
L 100.585997 127.163383 
L 101.309059 120.873179 
L 102.03212 129.475958 
L 102.755181 121.150688 
L 103.478243 119.208125 
L 104.201304 113.997123 
L 104.924365 111.992892 
L 105.647427 113.041259 
L 106.370488 112.856253 
L 107.093549 109.957826 
L 107.816611 108.84779 
L 108.539672 106.381043 
L 109.262733 108.015263 
L 109.985795 104.130137 
L 110.708856 104.376812 
L 111.431917 105.795191 
L 112.154979 101.755894 
L 112.87804 103.328445 
L 113.601101 101.725059 
L 115.047224 96.822401 
L 115.770285 95.959039 
L 116.493347 96.359886 
L 117.216408 97.932437 
L 117.93947 96.791566 
L 118.662531 92.382257 
L 119.385592 89.977179 
L 120.108654 89.021315 
L 120.831715 89.823007 
L 121.554776 90.963878 
L 122.277838 87.818776 
L 123.000899 87.109586 
L 123.72396 85.475366 
L 124.447022 85.07452 
L 125.170083 84.827846 
L 125.893144 84.797011 
L 126.616206 84.14949 
L 127.339267 83.995319 
L 128.062328 84.026153 
L 128.78539 82.330265 
L 129.508451 81.713578 
L 130.231512 80.94272 
L 130.954574 81.281897 
L 131.677635 79.986855 
L 132.400696 80.01769 
L 133.123758 79.740181 
L 134.569881 79.863518 
L 135.292942 79.370169 
L 136.739065 79.123494 
L 137.462126 78.599311 
L 138.185187 78.475973 
L 138.908249 108.076932 
L 139.63131 101.817562 
L 140.354371 106.041866 
L 141.077433 101.170041 
L 141.800494 102.896764 
L 142.523555 100.800029 
L 143.246617 101.01587 
L 143.969678 103.205107 
L 144.692739 100.954201 
L 145.415801 99.628325 
L 146.138862 99.412484 
L 146.861923 99.751662 
L 147.584985 96.205714 
L 148.308046 100.892532 
L 149.754169 94.509826 
L 150.47723 91.827239 
L 151.200292 96.544892 
L 151.923353 95.712365 
L 153.369476 98.703295 
L 154.092537 94.7565 
L 154.815598 94.509826 
L 155.53866 93.677299 
L 156.261721 89.452995 
L 156.984782 92.382257 
L 157.707844 94.602329 
L 158.430905 93.122281 
L 159.153966 92.413091 
L 159.877028 92.90644 
L 160.600089 90.6247 
L 161.32315 90.902209 
L 162.046212 94.602329 
L 162.769273 91.395558 
L 163.492334 92.536428 
L 164.215396 88.497131 
L 164.938457 87.84961 
L 165.661519 90.069682 
L 166.38458 88.959646 
L 167.107641 88.712971 
L 167.830703 85.907047 
L 168.553764 92.382257 
L 169.276825 86.369562 
L 169.999887 86.862911 
L 170.722948 88.06545 
L 171.446009 84.334496 
L 172.169071 87.109586 
L 172.892132 84.118656 
L 173.615193 83.00862 
L 174.338255 82.546105 
L 175.061316 83.686975 
L 175.784377 80.850217 
L 176.507439 83.995319 
L 177.2305 81.86775 
L 177.953561 83.101123 
L 178.676623 82.977786 
L 179.399684 81.528572 
L 180.122745 83.964484 
L 180.845807 83.686975 
L 181.568868 80.757714 
L 182.29193 79.277666 
L 183.014991 80.326033 
L 183.738052 79.52434 
L 185.184175 79.246831 
L 185.907236 79.401003 
L 186.630298 77.828452 
L 187.353359 81.806081 
L 188.07642 77.427606 
L 188.799482 77.581778 
L 189.522543 76.564245 
L 190.245604 77.119263 
L 190.968666 75.022528 
L 191.691727 74.745019 
L 192.414788 74.190001 
L 193.13785 73.388308 
L 193.860911 75.423374 
L 194.583972 74.529179 
L 195.307034 73.203302 
L 196.030095 74.621682 
L 196.753157 72.679119 
L 197.476218 72.61745 
L 198.199279 72.987462 
L 198.922341 72.555781 
L 200.368463 71.445746 
L 201.091525 71.538249 
L 201.814586 72.093267 
L 202.537647 70.274041 
L 203.260709 71.353243 
L 203.98377 69.996532 
L 204.706831 70.859893 
L 205.429893 69.965698 
L 206.152954 69.84236 
L 207.599077 68.516484 
L 208.322138 69.873195 
L 209.045199 68.547318 
L 209.768261 69.534017 
L 210.491322 68.238975 
L 211.214383 67.930632 
L 211.937445 68.362312 
L 212.660506 67.406448 
L 213.383568 66.758927 
L 214.106629 67.252276 
L 214.82969 68.238975 
L 215.552752 67.221442 
L 216.275813 65.895566 
L 216.998874 67.868963 
L 217.721936 67.190608 
L 218.444997 67.283111 
L 219.168058 67.498951 
L 222.060304 66.265578 
L 222.783365 66.820596 
L 223.506426 66.943933 
L 224.229488 66.882264 
L 224.952549 66.419749 
L 225.67561 98.333283 
L 226.398672 92.659766 
L 227.121733 94.201482 
L 227.844794 95.404021 
L 228.567856 90.40886 
L 229.290917 93.245618 
L 230.013979 100.245011 
L 230.73704 96.514057 
L 231.460101 94.725666 
L 232.183163 92.104748 
L 232.906224 90.963878 
L 233.629285 90.655534 
L 234.352347 94.571494 
L 235.075408 93.153115 
L 235.798469 91.364724 
L 236.521531 92.443925 
L 237.244592 86.431231 
L 237.967653 89.668836 
L 238.690715 89.607167 
L 239.413776 93.954808 
L 240.859899 88.312125 
L 241.58296 89.576333 
L 242.306021 89.823007 
L 243.029083 89.113818 
L 243.752144 87.664604 
L 244.475206 89.144652 
L 245.198267 91.796404 
L 245.921328 88.188788 
L 246.64439 94.108979 
L 247.367451 90.254688 
L 248.813574 86.338728 
L 249.536635 89.391327 
L 250.259696 90.038848 
L 250.982758 88.497131 
L 251.705819 92.659766 
L 252.42888 89.607167 
L 253.151942 88.5588 
L 253.875003 84.426999 
L 254.598064 84.334496 
L 255.321126 86.986249 
L 256.044187 85.136189 
L 256.767248 84.735343 
L 257.49031 83.902816 
L 258.213371 82.638608 
L 258.936432 89.48383 
L 259.659494 90.84054 
L 260.382555 84.026153 
L 261.105617 85.752875 
L 261.828678 86.307893 
L 262.551739 83.779478 
L 263.274801 85.413698 
L 263.997862 83.22446 
L 264.720923 85.352029 
L 265.443985 88.805474 
L 266.167046 87.047917 
L 266.890107 88.435462 
L 267.613169 93.39979 
L 268.33623 84.85868 
L 269.059291 82.79278 
L 269.782353 86.986249 
L 270.505414 84.14949 
L 271.228475 85.537035 
L 271.951537 82.330265 
L 272.674598 81.312732 
L 274.120721 84.735343 
L 274.843782 80.94272 
L 275.566843 85.629538 
L 277.736028 80.326033 
L 278.459089 85.043686 
L 279.18215 81.220229 
L 279.905212 82.515271 
L 280.628273 85.567869 
L 281.351334 83.440301 
L 282.074396 79.3085 
L 282.797457 80.634376 
L 283.520518 80.356867 
L 284.24358 79.771015 
L 284.966641 83.841147 
L 286.412764 80.511039 
L 287.135825 81.497738 
L 287.858886 79.956021 
L 288.581948 81.929418 
L 289.305009 81.004388 
L 290.02807 82.08359 
L 290.751132 79.616843 
L 291.474193 81.466903 
L 292.197255 77.705115 
L 292.920316 76.810919 
L 293.643377 80.511039 
L 294.366439 80.757714 
L 295.0895 79.185163 
L 295.812561 78.691814 
L 296.535623 79.061825 
L 297.258684 77.95179 
L 297.981745 79.647678 
L 298.704807 80.480205 
L 299.427868 81.929418 
L 300.150929 78.352636 
L 300.873991 77.304269 
L 301.597052 76.009227 
L 302.320113 75.515877 
L 303.043175 76.286736 
L 303.766236 82.823614 
L 304.489297 79.771015 
L 305.212359 80.202696 
L 305.93542 76.53341 
L 306.658481 76.348404 
L 307.381543 77.150097 
L 308.104604 75.022528 
L 308.827666 80.541873 
L 309.550727 73.54248 
L 310.273788 74.159167 
L 310.99685 75.361706 
L 311.719911 77.396772 
L 312.442972 74.035829 
L 313.166034 78.136796 
L 313.889095 75.60838 
L 314.612156 75.485043 
L 315.335218 75.145865 
L 316.058279 73.264971 
L 316.78134 74.375007 
L 317.504402 71.939095 
L 318.227463 74.837522 
L 319.673586 73.264971 
L 320.396647 72.987462 
L 321.119708 71.939095 
L 321.84277 72.216604 
L 322.565831 72.61745 
L 323.288892 73.665817 
L 324.011954 73.54248 
L 324.735015 72.247438 
L 325.458077 72.83329 
L 326.181138 71.69242 
L 326.904199 74.035829 
L 327.627261 74.868356 
L 328.350322 70.366544 
L 329.073383 72.709953 
L 329.796445 71.199071 
L 330.519506 70.76739 
L 331.242567 72.18577 
L 331.965629 70.76739 
L 332.68869 68.824827 
L 333.411751 68.732324 
L 334.134813 68.824827 
L 334.857874 71.168237 
L 335.580935 68.177306 
L 336.303997 70.582384 
L 337.027058 69.318177 
L 337.750119 69.719023 
L 338.473181 68.269809 
L 339.196242 71.291574 
L 339.919304 69.040668 
L 340.642365 67.838129 
L 341.365426 68.177306 
L 342.088488 68.115638 
L 342.811549 68.547318 
L 344.257672 66.85143 
L 344.980733 66.63559 
L 345.703794 68.608987 
L 347.149917 66.481418 
L 347.872978 67.06727 
L 348.59604 66.481418 
L 349.319101 68.115638 
L 350.042162 65.895566 
L 350.765224 66.080572 
L 351.488285 65.741394 
L 352.211346 66.974767 
L 352.934408 66.419749 
L 353.657469 66.666424 
L 354.38053 68.300644 
L 355.103592 67.56062 
L 355.826653 68.300644 
L 356.549715 68.454815 
L 357.272776 67.06727 
L 357.995837 66.63559 
L 358.718899 67.437282 
L 359.44196 67.745626 
L 360.888083 67.961466 
L 361.611144 65.217211 
L 362.334205 67.283111 
L 363.057267 67.930632 
L 363.780328 67.406448 
L 364.503389 66.573921 
L 365.226451 68.547318 
L 365.949512 67.807294 
L 366.672573 67.622288 
L 367.395635 65.49472 
L 368.118696 68.516484 
L 368.841757 68.732324 
L 369.564819 68.670656 
L 370.28788 67.745626 
L 371.010941 65.803063 
L 372.457064 67.283111 
L 373.180126 66.080572 
L 373.903187 65.463885 
L 374.626248 66.234743 
L 375.34931 66.173075 
L 376.072371 65.803063 
L 376.795432 69.287342 
L 377.518494 66.666424 
L 378.241555 67.221442 
L 378.964616 66.203909 
L 379.687678 67.098105 
L 380.410739 68.331478 
L 381.1338 65.49472 
L 381.856862 66.296412 
L 382.579923 68.177306 
L 384.026046 66.080572 
L 384.749107 67.283111 
L 385.472168 66.358081 
L 386.19523 68.608987 
L 386.918291 68.763159 
L 387.641353 65.9264 
L 388.364414 68.393147 
L 389.810537 67.190608 
L 390.533598 68.948165 
L 391.256659 67.221442 
L 391.979721 67.807294 
L 392.702782 67.56062 
L 393.425843 68.454815 
L 394.148905 67.098105 
L 394.871966 69.441514 
L 396.318089 66.265578 
L 397.04115 67.653123 
L 397.764211 67.498951 
L 398.487273 65.648891 
L 398.487273 65.648891 
" clip-path="url(#p316c15d64b)" style="fill: none; stroke: #ff7f0e; stroke-width: 1.5; stroke-linecap: square"/>
   </g>
   <g id="line2d_21">
    <path d="M 73.832727 286.137797 
L 75.27885 245.000482 
L 76.001911 223.129382 
L 76.724973 214.357631 
L 77.448034 218.653162 
L 78.171095 203.959061 
L 78.894157 192.497015 
L 79.617218 195.155243 
L 80.340279 185.511497 
L 81.063341 193.454113 
L 81.786402 177.515847 
L 82.509463 178.653634 
L 83.232525 177.186228 
L 83.955586 170.317572 
L 84.678647 168.75458 
L 85.401709 165.798801 
L 86.12477 165.543492 
L 86.847832 166.660004 
L 87.570893 158.940937 
L 88.293954 160.514413 
L 89.017016 156.059469 
L 89.740077 155.910539 
L 90.463138 154.060479 
L 91.1862 156.144571 
L 91.909261 151.115184 
L 92.632322 153.348206 
L 93.355384 151.678835 
L 94.078445 150.80684 
L 94.801506 150.55184 
L 95.524568 180.631039 
L 96.247629 178.164293 
L 96.97069 171.168291 
L 97.693752 171.412807 
L 98.416813 174.974789 
L 99.139874 171.253394 
L 99.862936 166.713347 
L 100.585997 172.688732 
L 101.309059 169.286164 
L 102.03212 174.793792 
L 102.755181 171.944391 
L 103.478243 164.831219 
L 104.201304 161.365132 
L 104.924365 159.419177 
L 105.647427 154.113514 
L 106.370488 159.823416 
L 107.093549 155.495817 
L 107.816611 157.090877 
L 108.539672 155.240817 
L 109.262733 157.175671 
L 109.985795 152.4019 
L 110.708856 151.157735 
L 111.431917 151.540697 
L 112.87804 158.462388 
L 113.601101 149.754465 
L 114.324163 149.371502 
L 115.047224 146.713274 
L 115.770285 146.522102 
L 116.493347 150.455946 
L 117.216408 145.448142 
L 117.93947 146.522102 
L 118.662531 143.566322 
L 119.385592 143.247187 
L 120.108654 141.131335 
L 120.831715 144.820971 
L 121.554776 145.95845 
L 122.277838 135.698018 
L 123.000899 142.534914 
L 123.72396 136.123531 
L 124.447022 143.417393 
L 125.893144 131.881036 
L 126.616206 138.462624 
L 127.339267 137.112388 
L 128.062328 138.016143 
L 128.78539 135.389674 
L 129.508451 136.197842 
L 130.231512 136.506186 
L 130.954574 133.794923 
L 131.677635 132.625377 
L 132.400696 131.08366 
L 133.123758 132.072517 
L 133.846819 131.828001 
L 134.569881 133.954336 
L 136.016003 132.497722 
L 136.739065 132.63586 
L 137.462126 131.423763 
L 138.185187 132.104276 
L 138.908249 156.65488 
L 139.63131 157.101361 
L 140.354371 152.072281 
L 141.077433 148.191472 
L 141.800494 152.720727 
L 142.523555 150.647427 
L 143.246617 154.613338 
L 143.969678 153.20976 
L 144.692739 155.963574 
L 145.415801 154.039203 
L 146.138862 157.037534 
L 146.861923 151.115184 
L 147.584985 146.830445 
L 148.308046 143.406601 
L 149.754169 146.320137 
L 150.47723 143.576806 
L 151.200292 150.721737 
L 151.923353 148.776091 
L 152.646414 148.521091 
L 153.369476 148.393437 
L 154.092537 150.264773 
L 154.815598 148.287059 
L 155.53866 147.617029 
L 156.261721 145.682174 
L 156.984782 145.597072 
L 157.707844 149.446121 
L 158.430905 141.248197 
L 159.153966 145.363039 
L 159.877028 147.563994 
L 160.600089 140.695338 
L 162.046212 149.137778 
L 162.769273 149.116502 
L 163.492334 143.70446 
L 164.215396 140.716614 
L 164.938457 138.951656 
L 165.661519 145.852071 
L 166.38458 142.96012 
L 167.107641 143.449152 
L 167.830703 139.058035 
L 168.553764 141.344092 
L 169.276825 138.898621 
L 169.999887 138.313694 
L 170.722948 142.088125 
L 171.446009 143.087774 
L 172.169071 142.077641 
L 172.892132 135.538604 
L 173.615193 137.175907 
L 174.338255 136.346772 
L 175.061316 137.707799 
L 175.784377 136.325496 
L 176.507439 137.441699 
L 177.2305 129.052911 
L 177.953561 137.271802 
L 178.676623 138.664589 
L 179.399684 128.957016 
L 180.122745 135.570672 
L 180.845807 129.754392 
L 181.568868 137.303561 
L 182.29193 132.455171 
L 183.014991 132.859101 
L 183.738052 128.648673 
L 184.461114 136.314704 
L 185.184175 137.122872 
L 185.907236 138.207316 
L 186.630298 133.220787 
L 187.353359 129.169773 
L 188.07642 127.436575 
L 188.799482 130.594627 
L 189.522543 128.840154 
L 190.245604 133.18872 
L 190.968666 127.702367 
L 191.691727 126.904991 
L 192.414788 125.53348 
L 193.13785 128.840154 
L 193.860911 128.723292 
L 194.583972 129.339978 
L 195.307034 127.479127 
L 196.030095 130.977282 
L 197.476218 121.769533 
L 198.199279 126.245753 
L 198.922341 122.90732 
L 199.645402 123.194388 
L 200.368463 122.875252 
L 201.091525 124.416969 
L 201.814586 124.140693 
L 202.537647 125.363275 
L 203.260709 123.747247 
L 203.98377 124.438245 
L 204.706831 121.939739 
L 205.429893 123.289974 
L 206.876015 121.237949 
L 207.599077 119.791819 
L 208.322138 120.270368 
L 209.045199 124.204212 
L 209.768261 124.108626 
L 210.491322 122.343669 
L 211.214383 119.791819 
L 211.937445 119.281511 
L 212.660506 121.492949 
L 213.383568 119.004927 
L 214.106629 121.323052 
L 214.82969 119.600338 
L 215.552752 119.983301 
L 216.275813 119.727992 
L 216.998874 120.929606 
L 217.721936 120.376747 
L 218.444997 120.567919 
L 219.168058 121.078536 
L 220.614181 120.440574 
L 221.337242 121.110295 
L 222.060304 121.131571 
L 222.783365 121.025193 
L 223.506426 121.620604 
L 224.229488 120.249092 
L 224.952549 120.897538 
L 225.67561 145.03342 
L 226.398672 133.965128 
L 227.121733 145.947966 
L 227.844794 151.561973 
L 228.567856 139.164413 
L 229.290917 145.618347 
L 230.013979 143.640633 
L 230.73704 145.756485 
L 231.460101 149.477881 
L 232.183163 146.862204 
L 232.906224 144.810179 
L 233.629285 141.567333 
L 234.352347 146.872996 
L 235.798469 144.725077 
L 236.521531 144.321147 
L 237.244592 139.419413 
L 237.967653 139.143138 
L 238.690715 139.887478 
L 239.413776 145.735209 
L 240.136837 146.266793 
L 240.859899 139.238724 
L 241.58296 148.978056 
L 242.306021 144.608215 
L 243.029083 138.047902 
L 243.752144 144.161733 
L 244.475206 148.287059 
L 245.198267 141.599092 
L 245.921328 136.474426 
L 246.64439 148.935505 
L 247.367451 142.545398 
L 248.090512 140.333959 
L 248.813574 133.933061 
L 249.536635 134.996228 
L 250.259696 144.002012 
L 250.982758 137.441699 
L 251.705819 152.189143 
L 252.42888 135.485569 
L 253.151942 139.494032 
L 253.875003 140.812508 
L 254.598064 137.218459 
L 255.321126 134.985745 
L 256.044187 135.474777 
L 256.767248 137.473767 
L 257.49031 128.627397 
L 258.936432 145.224901 
L 259.659494 142.917568 
L 260.382555 135.910775 
L 261.105617 132.040449 
L 261.828678 135.241053 
L 262.551739 140.206305 
L 263.274801 140.025616 
L 263.997862 134.943193 
L 264.720923 136.570013 
L 265.443985 136.378531 
L 266.167046 139.685205 
L 267.613169 142.098917 
L 268.33623 139.345102 
L 269.059291 141.503506 
L 269.782353 146.968583 
L 270.505414 141.269473 
L 271.228475 141.322816 
L 271.951537 139.642654 
L 272.674598 133.124893 
L 273.397659 139.472757 
L 274.120721 132.327517 
L 274.843782 133.231271 
L 275.566843 137.516318 
L 276.289905 137.420732 
L 277.012966 131.583176 
L 277.736028 138.228591 
L 278.459089 138.845278 
L 279.18215 135.432226 
L 279.905212 137.282286 
L 280.628273 133.220787 
L 281.351334 132.317033 
L 282.074396 128.095813 
L 282.797457 136.219118 
L 283.520518 139.759824 
L 284.24358 132.997547 
L 284.966641 143.470428 
L 285.689702 129.297427 
L 286.412764 131.392003 
L 287.135825 145.363039 
L 287.858886 133.56089 
L 288.581948 138.600762 
L 289.305009 133.146168 
L 290.02807 131.296108 
L 290.751132 130.456181 
L 291.474193 128.882705 
L 292.197255 125.863099 
L 292.920316 130.637179 
L 293.643377 131.157971 
L 294.366439 134.953985 
L 295.0895 131.359936 
L 295.812561 137.122872 
L 296.535623 130.902971 
L 297.258684 132.976271 
L 297.981745 134.049923 
L 298.704807 129.361254 
L 299.427868 135.166434 
L 300.150929 134.252196 
L 300.873991 121.928947 
L 301.597052 126.075548 
L 302.320113 129.212324 
L 303.043175 125.745929 
L 303.766236 133.752371 
L 304.489297 132.965479 
L 305.212359 132.550757 
L 305.93542 132.891168 
L 306.658481 126.468994 
L 307.381543 122.737115 
L 308.104604 125.650342 
L 308.827666 129.095462 
L 309.550727 127.426092 
L 310.273788 128.276502 
L 310.99685 130.105287 
L 311.719911 128.1914 
L 312.442972 126.681751 
L 313.166034 129.265359 
L 313.889095 130.126562 
L 314.612156 132.26369 
L 315.335218 125.841824 
L 316.058279 122.205531 
L 316.78134 124.767864 
L 317.504402 121.886395 
L 318.227463 127.043129 
L 318.950524 127.372748 
L 319.673586 128.393673 
L 320.396647 121.354812 
L 321.119708 125.256896 
L 321.84277 118.165 
L 322.565831 121.854636 
L 323.288892 122.705047 
L 324.011954 124.374418 
L 324.735015 119.036995 
L 325.458077 119.887406 
L 326.181138 120.918814 
L 326.904199 126.734786 
L 327.627261 125.16131 
L 328.350322 118.71786 
L 329.073383 120.887055 
L 329.796445 123.736455 
L 330.519506 118.877581 
L 331.242567 128.095813 
L 331.965629 119.526027 
L 332.68869 120.674298 
L 333.411751 114.932637 
L 334.134813 123.16232 
L 334.857874 121.790809 
L 335.580935 123.279182 
L 336.303997 122.152187 
L 337.027058 120.727641 
L 337.750119 121.46119 
L 338.473181 124.342658 
L 339.196242 119.664165 
L 339.919304 119.855646 
L 340.642365 118.898857 
L 341.365426 117.697243 
L 342.088488 119.419649 
L 342.811549 119.951233 
L 343.53461 118.271378 
L 344.257672 124.693553 
L 344.980733 115.464529 
L 345.703794 122.683771 
L 347.149917 117.154867 
L 347.872978 117.325073 
L 348.59604 111.54086 
L 349.319101 117.399384 
L 350.042162 115.613151 
L 350.765224 114.698913 
L 351.488285 118.813754 
L 352.211346 119.38789 
L 352.934408 113.678296 
L 353.657469 119.547303 
L 354.38053 116.942419 
L 355.103592 120.716849 
L 355.826653 123.396353 
L 356.549715 120.217025 
L 357.272776 115.921494 
L 357.995837 115.220013 
L 358.718899 114.943429 
L 359.44196 114.348018 
L 360.165021 116.410835 
L 360.888083 116.665835 
L 361.611144 111.913031 
L 362.334205 119.791819 
L 363.057267 114.815775 
L 363.780328 115.336875 
L 364.503389 113.497299 
L 365.226451 117.718519 
L 365.949512 115.932286 
L 366.672573 118.707376 
L 367.395635 115.985321 
L 368.118696 121.492949 
L 368.841757 121.705706 
L 369.564819 116.697902 
L 370.28788 118.409516 
L 371.010941 112.338545 
L 371.734003 118.484135 
L 372.457064 115.794148 
L 373.180126 118.484135 
L 373.903187 111.509101 
L 374.626248 111.966374 
L 375.34931 117.282521 
L 376.072371 120.514884 
L 376.795432 118.920133 
L 377.518494 114.890394 
L 378.241555 116.899867 
L 378.964616 112.189615 
L 379.687678 117.080557 
L 381.1338 113.518575 
L 381.856862 113.476023 
L 382.579923 112.019409 
L 383.302984 116.952902 
L 384.026046 117.665484 
L 384.749107 119.749268 
L 385.472168 118.356481 
L 386.19523 119.430441 
L 386.918291 118.452068 
L 388.364414 122.492598 
L 389.810537 118.760411 
L 390.533598 118.111965 
L 391.256659 116.134251 
L 391.979721 118.515895 
L 392.702782 118.9411 
L 393.425843 116.16601 
L 394.148905 116.46387 
L 394.871966 119.058271 
L 395.595027 119.813095 
L 396.318089 114.199088 
L 397.04115 118.611789 
L 397.764211 118.53717 
L 398.487273 117.027394 
L 398.487273 117.027394 
" clip-path="url(#p316c15d64b)" style="fill: none; stroke: #2ca02c; stroke-width: 1.5; stroke-linecap: square"/>
   </g>
   <g id="line2d_22">
    <path d="M 73.832727 295.488 
L 77.448034 265.73287 
L 78.894157 244.95053 
L 79.617218 240.942067 
L 80.340279 240.325381 
L 81.063341 235.792734 
L 81.786402 235.823568 
L 82.509463 231.445093 
L 83.232525 229.595033 
L 83.955586 219.851384 
L 84.678647 224.569037 
L 85.401709 214.085364 
L 86.12477 216.397939 
L 86.847832 213.561181 
L 87.570893 206.65429 
L 88.293954 206.345947 
L 89.017016 206.530953 
L 89.740077 208.226841 
L 90.463138 205.575089 
L 91.1862 202.059975 
L 91.909261 203.231679 
L 92.632322 201.042442 
L 93.355384 201.350785 
L 94.078445 200.240749 
L 94.801506 199.96324 
L 95.524568 222.59564 
L 96.247629 222.657308 
L 96.97069 217.137963 
L 97.693752 215.41124 
L 98.416813 217.199632 
L 99.139874 222.533971 
L 99.862936 206.345947 
L 100.585997 208.905196 
L 101.309059 206.808462 
L 102.03212 203.725029 
L 102.755181 205.51342 
L 103.478243 198.60653 
L 104.201304 195.83144 
L 104.924365 204.958402 
L 105.647427 198.051512 
L 106.370488 200.055743 
L 107.093549 201.134945 
L 107.816611 196.910641 
L 108.539672 196.108949 
L 109.262733 195.553931 
L 110.708856 188.21536 
L 111.431917 192.686338 
L 112.154979 185.902785 
L 112.87804 184.700246 
L 113.601101 188.246194 
L 114.324163 187.598673 
L 115.047224 185.871951 
L 115.770285 179.489244 
L 116.493347 180.722617 
L 117.216408 188.369532 
L 117.93947 181.832653 
L 118.662531 179.735919 
L 119.385592 175.573284 
L 120.108654 170.20811 
L 120.831715 175.819959 
L 121.554776 174.555751 
L 122.277838 176.251639 
L 123.000899 174.864094 
L 123.72396 172.644022 
L 124.447022 167.92637 
L 125.170083 168.419719 
L 125.893144 174.524917 
L 126.616206 167.371352 
L 127.339267 167.957204 
L 128.062328 170.146441 
L 128.78539 169.098074 
L 129.508451 165.336286 
L 130.231512 167.895535 
L 130.954574 164.010409 
L 131.677635 167.741364 
L 132.400696 165.798801 
L 133.123758 165.58296 
L 133.846819 164.257084 
L 134.569881 165.952972 
L 135.292942 166.662162 
L 136.016003 166.446322 
L 136.739065 165.644629 
L 137.462126 163.702066 
L 138.185187 164.44209 
L 138.908249 195.060582 
L 139.63131 186.611975 
L 140.354371 190.466266 
L 141.077433 189.726242 
L 141.800494 178.903392 
L 142.523555 186.211128 
L 143.246617 184.607743 
L 143.969678 186.426969 
L 144.692739 186.550306 
L 145.415801 185.995288 
L 146.138862 187.475336 
L 146.861923 186.3653 
L 147.584985 180.568446 
L 148.308046 187.50617 
L 149.031108 188.554538 
L 149.754169 178.53338 
L 150.47723 176.991663 
L 151.200292 188.647041 
L 151.923353 189.202058 
L 152.646414 193.827208 
L 153.369476 182.356837 
L 154.092537 179.828422 
L 154.815598 187.968685 
L 155.53866 182.66518 
L 156.261721 188.153691 
L 156.984782 178.595048 
L 157.707844 181.370138 
L 158.430905 186.858649 
L 159.153966 181.925156 
L 159.877028 178.595048 
L 160.600089 182.110162 
L 161.32315 178.379208 
L 162.046212 177.238338 
L 162.769273 183.713547 
L 163.492334 175.54245 
L 164.938457 179.735919 
L 165.661519 174.648254 
L 166.38458 175.419112 
L 167.107641 180.352605 
L 167.830703 176.220805 
L 168.553764 184.607743 
L 169.276825 175.449947 
L 169.999887 174.586585 
L 170.722948 175.850793 
L 171.446009 175.881627 
L 172.169071 175.234106 
L 172.892132 167.248014 
L 173.615193 169.591423 
L 174.338255 172.736525 
L 175.061316 173.90823 
L 175.784377 163.578729 
L 176.507439 177.207503 
L 177.2305 168.049707 
L 177.953561 169.807264 
L 178.676623 172.644022 
L 179.399684 165.675463 
L 180.122745 172.9832 
L 180.845807 167.710529 
L 181.568868 165.860469 
L 182.29193 170.516453 
L 183.014991 167.21718 
L 183.738052 162.499527 
L 184.461114 167.833867 
L 185.184175 162.900373 
L 185.907236 166.692996 
L 186.630298 162.838705 
L 187.353359 169.252246 
L 188.07642 162.869539 
L 188.799482 164.257084 
L 189.522543 163.856238 
L 190.245604 166.415487 
L 191.691727 157.165188 
L 192.414788 155.654306 
L 193.13785 157.96688 
L 193.860911 156.641004 
L 194.583972 160.649467 
L 196.030095 161.636166 
L 196.753157 156.702673 
L 197.476218 154.821779 
L 198.199279 156.641004 
L 198.922341 157.473531 
L 199.645402 157.997715 
L 200.368463 156.209324 
L 201.091525 154.790944 
L 201.814586 159.539431 
L 202.537647 157.011016 
L 203.260709 149.024924 
L 203.98377 155.068453 
L 204.706831 155.746809 
L 205.429893 154.266761 
L 206.152954 154.945116 
L 207.599077 151.183327 
L 208.322138 152.940884 
L 209.045199 155.870146 
L 209.768261 152.848381 
L 210.491322 153.773411 
L 211.214383 151.121659 
L 211.937445 153.680908 
L 212.660506 152.971719 
L 213.383568 151.615008 
L 214.82969 152.20086 
L 215.552752 153.12589 
L 216.275813 152.663375 
L 216.998874 148.747415 
L 217.721936 150.073291 
L 218.444997 153.557571 
L 219.168058 153.711743 
L 219.89112 152.139192 
L 220.614181 152.015854 
L 221.337242 151.368333 
L 222.060304 153.218393 
L 222.783365 151.98502 
L 223.506426 153.83508 
L 224.952549 149.857451 
L 225.67561 187.259496 
L 226.398672 177.300006 
L 227.121733 188.246194 
L 227.844794 189.171224 
L 228.567856 185.810282 
L 229.290917 184.052725 
L 230.013979 190.127088 
L 230.73704 184.823583 
L 231.460101 184.052725 
L 232.183163 184.823583 
L 232.906224 175.850793 
L 233.629285 171.595655 
L 234.352347 175.295775 
L 235.075408 175.789124 
L 235.798469 173.661555 
L 236.521531 177.423344 
L 237.244592 179.859256 
L 238.690715 173.106537 
L 239.413776 184.546074 
L 240.136837 181.061795 
L 240.859899 180.537611 
L 241.58296 169.098074 
L 242.306021 185.008589 
L 243.029083 171.472318 
L 243.752144 181.709316 
L 244.475206 177.115 
L 245.198267 183.836885 
L 245.921328 177.485012 
L 246.64439 184.576909 
L 247.367451 171.873164 
L 248.090512 177.053332 
L 248.813574 172.674857 
L 249.536635 174.740757 
L 250.259696 186.272797 
L 250.982758 180.722617 
L 251.705819 183.096861 
L 252.42888 176.498314 
L 253.151942 175.604118 
L 253.875003 175.97413 
L 254.598064 167.741364 
L 255.321126 171.718992 
L 256.044187 170.053938 
L 256.767248 174.216573 
L 257.49031 169.313915 
L 258.213371 173.630721 
L 258.936432 181.832653 
L 259.659494 172.613188 
L 260.382555 174.709923 
L 261.105617 174.555751 
L 261.828678 180.321771 
L 262.551739 182.140997 
L 263.274801 173.661555 
L 263.997862 173.014034 
L 264.720923 174.894929 
L 265.443985 168.327216 
L 266.167046 175.018266 
L 266.890107 187.07449 
L 267.613169 182.264334 
L 268.33623 171.996501 
L 269.059291 167.587192 
L 269.782353 177.145835 
L 270.505414 173.877396 
L 271.228475 169.529755 
L 271.951537 175.110769 
L 272.674598 157.504365 
L 273.397659 174.894929 
L 274.120721 173.19904 
L 274.843782 177.855024 
L 275.566843 180.876789 
L 276.289905 165.58296 
L 277.012966 169.745595 
L 277.736028 168.296382 
L 278.459089 171.533986 
L 279.18215 171.595655 
L 279.905212 170.300613 
L 280.628273 180.876789 
L 281.351334 172.890697 
L 282.074396 168.543056 
L 282.797457 173.353212 
L 283.520518 175.018266 
L 284.24358 173.877396 
L 284.966641 175.203272 
L 285.689702 172.551519 
L 286.412764 173.538218 
L 287.135825 170.732294 
L 287.858886 161.204485 
L 288.581948 170.146441 
L 289.305009 171.318146 
L 290.02807 164.627096 
L 290.751132 170.701459 
L 291.474193 172.644022 
L 292.197255 163.547894 
L 292.920316 166.723831 
L 293.643377 172.212342 
L 294.366439 171.379815 
L 295.0895 170.238944 
L 295.812561 171.379815 
L 296.535623 160.74197 
L 297.258684 160.649467 
L 297.981745 178.379208 
L 298.704807 165.737132 
L 299.427868 168.111376 
L 300.150929 175.234106 
L 300.873991 167.957204 
L 301.597052 164.534593 
L 302.320113 166.662162 
L 303.043175 156.332661 
L 303.766236 165.829635 
L 304.489297 162.962042 
L 305.212359 168.666394 
L 305.93542 160.31029 
L 306.658481 161.697835 
L 307.381543 162.437859 
L 308.104604 158.151886 
L 308.827666 171.533986 
L 309.550727 161.296988 
L 310.273788 165.644629 
L 310.99685 161.636166 
L 311.719911 161.728669 
L 312.442972 168.450553 
L 313.166034 163.239551 
L 313.889095 167.772198 
L 314.612156 162.684533 
L 315.335218 155.160956 
L 316.058279 161.697835 
L 316.78134 153.095056 
L 318.227463 161.574497 
L 318.950524 156.548501 
L 319.673586 170.20811 
L 320.396647 161.636166 
L 321.119708 163.702066 
L 321.84277 157.96688 
L 322.565831 154.698441 
L 323.288892 160.495296 
L 324.011954 167.710529 
L 324.735015 159.416094 
L 325.458077 164.010409 
L 326.181138 161.45116 
L 326.904199 163.7329 
L 327.627261 160.834473 
L 328.350322 158.953579 
L 329.073383 158.275224 
L 329.796445 158.89191 
L 330.519506 154.297595 
L 331.242567 164.781268 
L 331.965629 164.873771 
L 332.68869 157.75104 
L 333.411751 155.777643 
L 334.134813 159.446928 
L 334.857874 164.565427 
L 335.580935 154.390098 
L 336.303997 158.830242 
L 337.027058 156.671838 
L 337.750119 153.958417 
L 338.473181 163.270385 
L 339.196242 161.821172 
L 339.919304 159.446928 
L 340.642365 149.425771 
L 341.365426 154.420932 
L 342.088488 156.548501 
L 342.811549 149.117427 
L 343.53461 154.174258 
L 344.257672 150.165794 
L 344.980733 152.509204 
L 345.703794 156.949347 
L 347.149917 154.883447 
L 347.872978 154.97595 
L 348.59604 152.385866 
L 349.319101 157.165188 
L 350.042162 149.302433 
L 350.765224 150.720812 
L 351.488285 156.363495 
L 352.211346 153.773411 
L 352.934408 157.196022 
L 353.657469 150.042457 
L 354.38053 153.403399 
L 355.103592 156.085986 
L 355.826653 154.205092 
L 356.549715 149.487439 
L 357.272776 157.504365 
L 357.995837 154.729276 
L 358.718899 149.364102 
L 359.44196 155.191791 
L 360.165021 155.222625 
L 360.888083 155.715974 
L 361.611144 158.737739 
L 362.334205 148.99409 
L 363.057267 152.077523 
L 363.780328 153.310896 
L 364.503389 147.606545 
L 365.226451 160.094449 
L 365.949512 157.103519 
L 366.672573 153.465068 
L 367.395635 152.69421 
L 368.118696 156.486832 
L 369.564819 161.790338 
L 370.28788 157.96688 
L 371.010941 158.491064 
L 371.734003 153.61924 
L 372.457064 152.355032 
L 373.180126 157.627703 
L 373.903187 149.179096 
L 374.626248 159.292757 
L 375.34931 155.160956 
L 376.072371 160.711136 
L 376.795432 157.874377 
L 377.518494 154.482601 
L 378.241555 162.037012 
L 378.964616 151.430002 
L 379.687678 154.790944 
L 380.410739 153.958417 
L 381.1338 154.05092 
L 381.856862 152.293363 
L 382.579923 153.680908 
L 383.302984 154.575104 
L 384.026046 152.478369 
L 384.749107 152.077523 
L 385.472168 151.399168 
L 386.918291 148.963256 
L 387.641353 148.839918 
L 388.364414 157.072685 
L 389.810537 156.024318 
L 390.533598 153.187559 
L 391.256659 147.544876 
L 391.979721 158.336892 
L 392.702782 156.764341 
L 393.425843 157.226856 
L 394.148905 156.579335 
L 394.871966 157.381028 
L 395.595027 146.681515 
L 396.318089 145.663982 
L 397.04115 155.654306 
L 397.764211 151.152493 
L 398.487273 148.747415 
L 398.487273 148.747415 
" clip-path="url(#p316c15d64b)" style="fill: none; stroke: #d62728; stroke-width: 1.5; stroke-linecap: square"/>
   </g>
   <g id="line2d_23">
    <path d="M 350.765224 66.573921 
L 351.488285 64.353849 
L 352.211346 66.913099 
L 352.934408 67.036436 
L 353.657469 67.807294 
L 354.38053 68.084803 
L 355.103592 68.793993 
L 355.826653 66.327246 
L 356.549715 65.803063 
L 357.272776 68.70149 
L 357.995837 67.159773 
L 358.718899 68.516484 
L 359.44196 68.516484 
L 360.165021 66.758927 
L 360.888083 72.40161 
L 361.611144 70.921562 
L 363.057267 69.225674 
L 363.780328 70.150704 
L 364.503389 67.9923 
L 365.226451 70.119869 
L 365.949512 69.873195 
L 366.672573 67.868963 
L 367.395635 70.798225 
L 368.118696 71.47658 
L 368.841757 69.749857 
L 369.564819 70.705722 
L 370.28788 70.582384 
L 371.010941 76.903422 
L 371.734003 79.185163 
L 372.457064 73.573314 
L 373.180126 76.009227 
L 373.903187 77.335103 
L 374.626248 73.604149 
L 375.34931 70.829059 
L 376.072371 78.290967 
L 376.795432 74.68335 
L 377.518494 77.180931 
L 378.241555 78.722648 
L 378.964616 74.991694 
L 379.687678 75.515877 
L 380.410739 77.612612 
L 381.1338 82.268596 
L 381.856862 76.255901 
L 382.579923 78.753482 
L 383.302984 75.762552 
L 384.026046 77.766784 
L 384.749107 85.012852 
L 385.472168 79.925187 
L 386.19523 78.044293 
L 386.918291 81.220229 
L 387.641353 77.982624 
L 388.364414 84.488668 
L 389.087475 79.401003 
L 389.810537 85.352029 
L 390.533598 84.982017 
L 391.256659 86.92458 
L 391.979721 84.396165 
L 392.702782 88.250456 
L 393.425843 89.237155 
L 394.148905 88.435462 
L 394.871966 88.527965 
L 395.595027 83.039454 
L 396.318089 92.90644 
L 397.04115 94.509826 
L 397.764211 94.078145 
L 398.487273 95.064844 
L 398.487273 95.064844 
" clip-path="url(#p316c15d64b)" style="fill: none; stroke: #9467bd; stroke-width: 1.5; stroke-linecap: square"/>
   </g>
   <g id="line2d_24">
    <path d="M 350.765224 113.933296 
L 351.488285 113.146404 
L 352.211346 117.484486 
L 352.934408 116.112975 
L 353.657469 116.602008 
L 354.38053 117.53783 
L 355.103592 117.750278 
L 355.826653 112.104512 
L 356.549715 117.154867 
L 357.272776 113.252783 
L 357.995837 117.665484 
L 358.718899 118.600997 
L 359.44196 119.260235 
L 360.165021 121.184606 
L 360.888083 127.277162 
L 361.611144 123.577042 
L 362.334205 122.705047 
L 363.057267 121.323052 
L 363.780328 121.152847 
L 364.503389 122.779666 
L 365.226451 123.534491 
L 365.949512 121.429122 
L 366.672573 113.412196 
L 367.395635 119.834371 
L 368.118696 119.834371 
L 368.841757 117.654692 
L 369.564819 119.738784 
L 370.28788 118.877581 
L 371.734003 130.5308 
L 373.180126 124.438245 
L 373.903187 127.277162 
L 374.626248 122.279842 
L 375.34931 120.142714 
L 376.072371 134.156301 
L 376.795432 127.149508 
L 377.518494 127.808746 
L 378.241555 131.604452 
L 378.964616 125.193069 
L 379.687678 131.689555 
L 380.410739 132.550757 
L 381.1338 136.825013 
L 381.856862 129.60577 
L 382.579923 127.139024 
L 383.302984 129.435565 
L 384.026046 127.766194 
L 384.749107 142.056365 
L 385.472168 134.677401 
L 386.19523 130.860419 
L 386.918291 134.294747 
L 387.641353 130.56256 
L 388.364414 136.250877 
L 389.087475 130.073527 
L 389.810537 135.517329 
L 390.533598 136.63384 
L 391.256659 139.908446 
L 391.979721 133.582166 
L 392.702782 141.365368 
L 394.148905 142.885809 
L 394.871966 139.674721 
L 395.595027 132.699687 
L 396.318089 149.573467 
L 397.04115 149.690637 
L 397.764211 148.690988 
L 398.487273 144.533744 
L 398.487273 144.533744 
" clip-path="url(#p316c15d64b)" style="fill: none; stroke: #8c564b; stroke-width: 1.5; stroke-linecap: square"/>
   </g>
   <g id="line2d_25">
    <path d="M 350.765224 147.884054 
L 351.488285 155.068453 
L 352.211346 159.631934 
L 352.934408 158.799407 
L 353.657469 157.226856 
L 354.38053 157.504365 
L 355.103592 157.226856 
L 355.826653 153.495902 
L 356.549715 156.671838 
L 357.272776 169.221412 
L 357.995837 166.600493 
L 358.718899 161.296988 
L 359.44196 164.688765 
L 360.165021 156.301827 
L 360.888083 164.472924 
L 361.611144 165.182114 
L 362.334205 168.913068 
L 363.057267 167.648861 
L 363.780328 164.22625 
L 364.503389 163.671232 
L 365.226451 159.662769 
L 365.949512 166.107144 
L 366.672573 159.107751 
L 367.395635 164.072078 
L 368.118696 177.577515 
L 368.841757 170.177276 
L 369.564819 188.4312 
L 370.28788 181.092629 
L 371.010941 187.475336 
L 371.734003 188.986218 
L 372.457064 170.269779 
L 373.180126 181.52431 
L 373.903187 186.796981 
L 374.626248 183.035192 
L 375.34931 179.89009 
L 376.072371 188.523703 
L 376.795432 186.087791 
L 377.518494 200.364087 
L 378.241555 201.782466 
L 378.964616 187.444502 
L 379.687678 191.607136 
L 380.410739 189.787911 
L 381.1338 197.619831 
L 381.856862 188.307863 
L 382.579923 202.553324 
L 383.302984 186.642809 
L 384.026046 201.134945 
L 384.749107 204.310881 
L 385.472168 192.162154 
L 386.19523 188.986218 
L 386.918291 183.80605 
L 387.641353 199.284885 
L 388.364414 211.741955 
L 389.087475 197.342322 
L 389.810537 209.799392 
L 390.533598 214.27037 
L 391.256659 216.12043 
L 391.979721 209.42938 
L 392.702782 221.67061 
L 393.425843 204.865899 
L 394.148905 218.710514 
L 394.871966 221.300598 
L 395.595027 203.139176 
L 396.318089 234.436023 
L 397.04115 232.770969 
L 397.764211 226.974115 
L 398.487273 237.149444 
L 398.487273 237.149444 
" clip-path="url(#p316c15d64b)" style="fill: none; stroke: #e377c2; stroke-width: 1.5; stroke-linecap: square"/>
   </g>
   <g id="patch_3">
    <path d="M 57.6 307.584 
L 57.6 41.472 
" style="fill: none; stroke: #000000; stroke-width: 0.8; stroke-linejoin: miter; stroke-linecap: square"/>
   </g>
   <g id="patch_4">
    <path d="M 414.72 307.584 
L 414.72 41.472 
" style="fill: none; stroke: #000000; stroke-width: 0.8; stroke-linejoin: miter; stroke-linecap: square"/>
   </g>
   <g id="patch_5">
    <path d="M 57.6 307.584 
L 414.72 307.584 
" style="fill: none; stroke: #000000; stroke-width: 0.8; stroke-linejoin: miter; stroke-linecap: square"/>
   </g>
   <g id="patch_6">
    <path d="M 57.6 41.472 
L 414.72 41.472 
" style="fill: none; stroke: #000000; stroke-width: 0.8; stroke-linejoin: miter; stroke-linecap: square"/>
   </g>
   <g id="text_21">
    <!-- Learning Curves -->
    <g transform="translate(187.37625 35.472) scale(0.12 -0.12)">
     <defs>
      <path id="DejaVuSans-4c" d="M 628 4666 
L 1259 4666 
L 1259 531 
L 3531 531 
L 3531 0 
L 628 0 
L 628 4666 
z
" transform="scale(0.015625)"/>
      <path id="DejaVuSans-65" d="M 3597 1894 
L 3597 1613 
L 953 1613 
Q 991 1019 1311 708 
Q 1631 397 2203 397 
Q 2534 397 2845 478 
Q 3156 559 3463 722 
L 3463 178 
Q 3153 47 2828 -22 
Q 2503 -91 2169 -91 
Q 1331 -91 842 396 
Q 353 884 353 1716 
Q 353 2575 817 3079 
Q 1281 3584 2069 3584 
Q 2775 3584 3186 3129 
Q 3597 2675 3597 1894 
z
M 3022 2063 
Q 3016 2534 2758 2815 
Q 2500 3097 2075 3097 
Q 1594 3097 1305 2825 
Q 1016 2553 972 2059 
L 3022 2063 
z
" transform="scale(0.015625)"/>
      <path id="DejaVuSans-6e" d="M 3513 2113 
L 3513 0 
L 2938 0 
L 2938 2094 
Q 2938 2591 2744 2837 
Q 2550 3084 2163 3084 
Q 1697 3084 1428 2787 
Q 1159 2491 1159 1978 
L 1159 0 
L 581 0 
L 581 3500 
L 1159 3500 
L 1159 2956 
Q 1366 3272 1645 3428 
Q 1925 3584 2291 3584 
Q 2894 3584 3203 3211 
Q 3513 2838 3513 2113 
z
" transform="scale(0.015625)"/>
      <path id="DejaVuSans-69" d="M 603 3500 
L 1178 3500 
L 1178 0 
L 603 0 
L 603 3500 
z
M 603 4863 
L 1178 4863 
L 1178 4134 
L 603 4134 
L 603 4863 
z
" transform="scale(0.015625)"/>
      <path id="DejaVuSans-67" d="M 2906 1791 
Q 2906 2416 2648 2759 
Q 2391 3103 1925 3103 
Q 1463 3103 1205 2759 
Q 947 2416 947 1791 
Q 947 1169 1205 825 
Q 1463 481 1925 481 
Q 2391 481 2648 825 
Q 2906 1169 2906 1791 
z
M 3481 434 
Q 3481 -459 3084 -895 
Q 2688 -1331 1869 -1331 
Q 1566 -1331 1297 -1286 
Q 1028 -1241 775 -1147 
L 775 -588 
Q 1028 -725 1275 -790 
Q 1522 -856 1778 -856 
Q 2344 -856 2625 -561 
Q 2906 -266 2906 331 
L 2906 616 
Q 2728 306 2450 153 
Q 2172 0 1784 0 
Q 1141 0 747 490 
Q 353 981 353 1791 
Q 353 2603 747 3093 
Q 1141 3584 1784 3584 
Q 2172 3584 2450 3431 
Q 2728 3278 2906 2969 
L 2906 3500 
L 3481 3500 
L 3481 434 
z
" transform="scale(0.015625)"/>
      <path id="DejaVuSans-20" transform="scale(0.015625)"/>
      <path id="DejaVuSans-43" d="M 4122 4306 
L 4122 3641 
Q 3803 3938 3442 4084 
Q 3081 4231 2675 4231 
Q 1875 4231 1450 3742 
Q 1025 3253 1025 2328 
Q 1025 1406 1450 917 
Q 1875 428 2675 428 
Q 3081 428 3442 575 
Q 3803 722 4122 1019 
L 4122 359 
Q 3791 134 3420 21 
Q 3050 -91 2638 -91 
Q 1578 -91 968 557 
Q 359 1206 359 2328 
Q 359 3453 968 4101 
Q 1578 4750 2638 4750 
Q 3056 4750 3426 4639 
Q 3797 4528 4122 4306 
z
" transform="scale(0.015625)"/>
      <path id="DejaVuSans-76" d="M 191 3500 
L 800 3500 
L 1894 563 
L 2988 3500 
L 3597 3500 
L 2284 0 
L 1503 0 
L 191 3500 
z
" transform="scale(0.015625)"/>
     </defs>
     <use xlink:href="#DejaVuSans-4c"/>
     <use xlink:href="#DejaVuSans-65" x="53.962891"/>
     <use xlink:href="#DejaVuSans-61" x="115.486328"/>
     <use xlink:href="#DejaVuSans-72" x="176.765625"/>
     <use xlink:href="#DejaVuSans-6e" x="216.128906"/>
     <use xlink:href="#DejaVuSans-69" x="279.507812"/>
     <use xlink:href="#DejaVuSans-6e" x="307.291016"/>
     <use xlink:href="#DejaVuSans-67" x="370.669922"/>
     <use xlink:href="#DejaVuSans-20" x="434.146484"/>
     <use xlink:href="#DejaVuSans-43" x="465.933594"/>
     <use xlink:href="#DejaVuSans-75" x="535.757812"/>
     <use xlink:href="#DejaVuSans-72" x="599.136719"/>
     <use xlink:href="#DejaVuSans-76" x="640.25"/>
     <use xlink:href="#DejaVuSans-65" x="699.429688"/>
     <use xlink:href="#DejaVuSans-73" x="760.953125"/>
    </g>
   </g>
   <g id="legend_1">
    <g id="patch_7">
     <path d="M 128.445937 302.584 
L 343.874063 302.584 
Q 345.874063 302.584 345.874063 300.584 
L 345.874063 198.837125 
Q 345.874063 196.837125 343.874063 196.837125 
L 128.445937 196.837125 
Q 126.445937 196.837125 126.445937 198.837125 
L 126.445937 300.584 
Q 126.445937 302.584 128.445937 302.584 
z
" style="fill: #ffffff; opacity: 0.8; stroke: #cccccc; stroke-linejoin: miter"/>
    </g>
    <g id="line2d_26">
     <path d="M 130.445937 204.935563 
L 140.445937 204.935563 
L 150.445937 204.935563 
" style="fill: none; stroke: #1f77b4; stroke-width: 1.5; stroke-linecap: square"/>
    </g>
    <g id="text_22">
     <!-- Train Accuracy -->
     <g transform="translate(158.445937 208.435563) scale(0.1 -0.1)">
      <defs>
       <path id="DejaVuSans-54" d="M -19 4666 
L 3928 4666 
L 3928 4134 
L 2272 4134 
L 2272 0 
L 1638 0 
L 1638 4134 
L -19 4134 
L -19 4666 
z
" transform="scale(0.015625)"/>
      </defs>
      <use xlink:href="#DejaVuSans-54"/>
      <use xlink:href="#DejaVuSans-72" x="46.333984"/>
      <use xlink:href="#DejaVuSans-61" x="87.447266"/>
      <use xlink:href="#DejaVuSans-69" x="148.726562"/>
      <use xlink:href="#DejaVuSans-6e" x="176.509766"/>
      <use xlink:href="#DejaVuSans-20" x="239.888672"/>
      <use xlink:href="#DejaVuSans-41" x="271.675781"/>
      <use xlink:href="#DejaVuSans-63" x="338.333984"/>
      <use xlink:href="#DejaVuSans-63" x="393.314453"/>
      <use xlink:href="#DejaVuSans-75" x="448.294922"/>
      <use xlink:href="#DejaVuSans-72" x="511.673828"/>
      <use xlink:href="#DejaVuSans-61" x="552.787109"/>
      <use xlink:href="#DejaVuSans-63" x="614.066406"/>
      <use xlink:href="#DejaVuSans-79" x="669.046875"/>
     </g>
    </g>
    <g id="line2d_27">
     <path d="M 130.445937 219.613688 
L 140.445937 219.613688 
L 150.445937 219.613688 
" style="fill: none; stroke: #ff7f0e; stroke-width: 1.5; stroke-linecap: square"/>
    </g>
    <g id="text_23">
     <!-- Validation Accuracy -->
     <g transform="translate(158.445937 223.113688) scale(0.1 -0.1)">
      <defs>
       <path id="DejaVuSans-56" d="M 1831 0 
L 50 4666 
L 709 4666 
L 2188 738 
L 3669 4666 
L 4325 4666 
L 2547 0 
L 1831 0 
z
" transform="scale(0.015625)"/>
       <path id="DejaVuSans-6c" d="M 603 4863 
L 1178 4863 
L 1178 0 
L 603 0 
L 603 4863 
z
" transform="scale(0.015625)"/>
       <path id="DejaVuSans-64" d="M 2906 2969 
L 2906 4863 
L 3481 4863 
L 3481 0 
L 2906 0 
L 2906 525 
Q 2725 213 2448 61 
Q 2172 -91 1784 -91 
Q 1150 -91 751 415 
Q 353 922 353 1747 
Q 353 2572 751 3078 
Q 1150 3584 1784 3584 
Q 2172 3584 2448 3432 
Q 2725 3281 2906 2969 
z
M 947 1747 
Q 947 1113 1208 752 
Q 1469 391 1925 391 
Q 2381 391 2643 752 
Q 2906 1113 2906 1747 
Q 2906 2381 2643 2742 
Q 2381 3103 1925 3103 
Q 1469 3103 1208 2742 
Q 947 2381 947 1747 
z
" transform="scale(0.015625)"/>
       <path id="DejaVuSans-74" d="M 1172 4494 
L 1172 3500 
L 2356 3500 
L 2356 3053 
L 1172 3053 
L 1172 1153 
Q 1172 725 1289 603 
Q 1406 481 1766 481 
L 2356 481 
L 2356 0 
L 1766 0 
Q 1100 0 847 248 
Q 594 497 594 1153 
L 594 3053 
L 172 3053 
L 172 3500 
L 594 3500 
L 594 4494 
L 1172 4494 
z
" transform="scale(0.015625)"/>
      </defs>
      <use xlink:href="#DejaVuSans-56"/>
      <use xlink:href="#DejaVuSans-61" x="60.658203"/>
      <use xlink:href="#DejaVuSans-6c" x="121.9375"/>
      <use xlink:href="#DejaVuSans-69" x="149.720703"/>
      <use xlink:href="#DejaVuSans-64" x="177.503906"/>
      <use xlink:href="#DejaVuSans-61" x="240.980469"/>
      <use xlink:href="#DejaVuSans-74" x="302.259766"/>
      <use xlink:href="#DejaVuSans-69" x="341.46875"/>
      <use xlink:href="#DejaVuSans-6f" x="369.251953"/>
      <use xlink:href="#DejaVuSans-6e" x="430.433594"/>
      <use xlink:href="#DejaVuSans-20" x="493.8125"/>
      <use xlink:href="#DejaVuSans-41" x="525.599609"/>
      <use xlink:href="#DejaVuSans-63" x="592.257812"/>
      <use xlink:href="#DejaVuSans-63" x="647.238281"/>
      <use xlink:href="#DejaVuSans-75" x="702.21875"/>
      <use xlink:href="#DejaVuSans-72" x="765.597656"/>
      <use xlink:href="#DejaVuSans-61" x="806.710938"/>
      <use xlink:href="#DejaVuSans-63" x="867.990234"/>
      <use xlink:href="#DejaVuSans-79" x="922.970703"/>
     </g>
    </g>
    <g id="line2d_28">
     <path d="M 130.445937 234.291812 
L 140.445937 234.291812 
L 150.445937 234.291812 
" style="fill: none; stroke: #2ca02c; stroke-width: 1.5; stroke-linecap: square"/>
    </g>
    <g id="text_24">
     <!-- Robust Validation Accuracy -->
     <g transform="translate(158.445937 237.791812) scale(0.1 -0.1)">
      <defs>
       <path id="DejaVuSans-52" d="M 2841 2188 
Q 3044 2119 3236 1894 
Q 3428 1669 3622 1275 
L 4263 0 
L 3584 0 
L 2988 1197 
Q 2756 1666 2539 1819 
Q 2322 1972 1947 1972 
L 1259 1972 
L 1259 0 
L 628 0 
L 628 4666 
L 2053 4666 
Q 2853 4666 3247 4331 
Q 3641 3997 3641 3322 
Q 3641 2881 3436 2590 
Q 3231 2300 2841 2188 
z
M 1259 4147 
L 1259 2491 
L 2053 2491 
Q 2509 2491 2742 2702 
Q 2975 2913 2975 3322 
Q 2975 3731 2742 3939 
Q 2509 4147 2053 4147 
L 1259 4147 
z
" transform="scale(0.015625)"/>
       <path id="DejaVuSans-62" d="M 3116 1747 
Q 3116 2381 2855 2742 
Q 2594 3103 2138 3103 
Q 1681 3103 1420 2742 
Q 1159 2381 1159 1747 
Q 1159 1113 1420 752 
Q 1681 391 2138 391 
Q 2594 391 2855 752 
Q 3116 1113 3116 1747 
z
M 1159 2969 
Q 1341 3281 1617 3432 
Q 1894 3584 2278 3584 
Q 2916 3584 3314 3078 
Q 3713 2572 3713 1747 
Q 3713 922 3314 415 
Q 2916 -91 2278 -91 
Q 1894 -91 1617 61 
Q 1341 213 1159 525 
L 1159 0 
L 581 0 
L 581 4863 
L 1159 4863 
L 1159 2969 
z
" transform="scale(0.015625)"/>
      </defs>
      <use xlink:href="#DejaVuSans-52"/>
      <use xlink:href="#DejaVuSans-6f" x="64.982422"/>
      <use xlink:href="#DejaVuSans-62" x="126.164062"/>
      <use xlink:href="#DejaVuSans-75" x="189.640625"/>
      <use xlink:href="#DejaVuSans-73" x="253.019531"/>
      <use xlink:href="#DejaVuSans-74" x="305.119141"/>
      <use xlink:href="#DejaVuSans-20" x="344.328125"/>
      <use xlink:href="#DejaVuSans-56" x="376.115234"/>
      <use xlink:href="#DejaVuSans-61" x="436.773438"/>
      <use xlink:href="#DejaVuSans-6c" x="498.052734"/>
      <use xlink:href="#DejaVuSans-69" x="525.835938"/>
      <use xlink:href="#DejaVuSans-64" x="553.619141"/>
      <use xlink:href="#DejaVuSans-61" x="617.095703"/>
      <use xlink:href="#DejaVuSans-74" x="678.375"/>
      <use xlink:href="#DejaVuSans-69" x="717.583984"/>
      <use xlink:href="#DejaVuSans-6f" x="745.367188"/>
      <use xlink:href="#DejaVuSans-6e" x="806.548828"/>
      <use xlink:href="#DejaVuSans-20" x="869.927734"/>
      <use xlink:href="#DejaVuSans-41" x="901.714844"/>
      <use xlink:href="#DejaVuSans-63" x="968.373047"/>
      <use xlink:href="#DejaVuSans-63" x="1023.353516"/>
      <use xlink:href="#DejaVuSans-75" x="1078.333984"/>
      <use xlink:href="#DejaVuSans-72" x="1141.712891"/>
      <use xlink:href="#DejaVuSans-61" x="1182.826172"/>
      <use xlink:href="#DejaVuSans-63" x="1244.105469"/>
      <use xlink:href="#DejaVuSans-79" x="1299.085938"/>
     </g>
    </g>
    <g id="line2d_29">
     <path d="M 130.445937 248.969938 
L 140.445937 248.969938 
L 150.445937 248.969938 
" style="fill: none; stroke: #d62728; stroke-width: 1.5; stroke-linecap: square"/>
    </g>
    <g id="text_25">
     <!-- Adversarial Validation Accuracy -->
     <g transform="translate(158.445937 252.469938) scale(0.1 -0.1)">
      <use xlink:href="#DejaVuSans-41"/>
      <use xlink:href="#DejaVuSans-64" x="66.658203"/>
      <use xlink:href="#DejaVuSans-76" x="130.134766"/>
      <use xlink:href="#DejaVuSans-65" x="189.314453"/>
      <use xlink:href="#DejaVuSans-72" x="250.837891"/>
      <use xlink:href="#DejaVuSans-73" x="291.951172"/>
      <use xlink:href="#DejaVuSans-61" x="344.050781"/>
      <use xlink:href="#DejaVuSans-72" x="405.330078"/>
      <use xlink:href="#DejaVuSans-69" x="446.443359"/>
      <use xlink:href="#DejaVuSans-61" x="474.226562"/>
      <use xlink:href="#DejaVuSans-6c" x="535.505859"/>
      <use xlink:href="#DejaVuSans-20" x="563.289062"/>
      <use xlink:href="#DejaVuSans-56" x="595.076172"/>
      <use xlink:href="#DejaVuSans-61" x="655.734375"/>
      <use xlink:href="#DejaVuSans-6c" x="717.013672"/>
      <use xlink:href="#DejaVuSans-69" x="744.796875"/>
      <use xlink:href="#DejaVuSans-64" x="772.580078"/>
      <use xlink:href="#DejaVuSans-61" x="836.056641"/>
      <use xlink:href="#DejaVuSans-74" x="897.335938"/>
      <use xlink:href="#DejaVuSans-69" x="936.544922"/>
      <use xlink:href="#DejaVuSans-6f" x="964.328125"/>
      <use xlink:href="#DejaVuSans-6e" x="1025.509766"/>
      <use xlink:href="#DejaVuSans-20" x="1088.888672"/>
      <use xlink:href="#DejaVuSans-41" x="1120.675781"/>
      <use xlink:href="#DejaVuSans-63" x="1187.333984"/>
      <use xlink:href="#DejaVuSans-63" x="1242.314453"/>
      <use xlink:href="#DejaVuSans-75" x="1297.294922"/>
      <use xlink:href="#DejaVuSans-72" x="1360.673828"/>
      <use xlink:href="#DejaVuSans-61" x="1401.787109"/>
      <use xlink:href="#DejaVuSans-63" x="1463.066406"/>
      <use xlink:href="#DejaVuSans-79" x="1518.046875"/>
     </g>
    </g>
    <g id="line2d_30">
     <path d="M 130.445937 263.648063 
L 140.445937 263.648063 
L 150.445937 263.648063 
" style="fill: none; stroke: #9467bd; stroke-width: 1.5; stroke-linecap: square"/>
    </g>
    <g id="text_26">
     <!-- SWA Validation Accuracy -->
     <g transform="translate(158.445937 267.148063) scale(0.1 -0.1)">
      <defs>
       <path id="DejaVuSans-53" d="M 3425 4513 
L 3425 3897 
Q 3066 4069 2747 4153 
Q 2428 4238 2131 4238 
Q 1616 4238 1336 4038 
Q 1056 3838 1056 3469 
Q 1056 3159 1242 3001 
Q 1428 2844 1947 2747 
L 2328 2669 
Q 3034 2534 3370 2195 
Q 3706 1856 3706 1288 
Q 3706 609 3251 259 
Q 2797 -91 1919 -91 
Q 1588 -91 1214 -16 
Q 841 59 441 206 
L 441 856 
Q 825 641 1194 531 
Q 1563 422 1919 422 
Q 2459 422 2753 634 
Q 3047 847 3047 1241 
Q 3047 1584 2836 1778 
Q 2625 1972 2144 2069 
L 1759 2144 
Q 1053 2284 737 2584 
Q 422 2884 422 3419 
Q 422 4038 858 4394 
Q 1294 4750 2059 4750 
Q 2388 4750 2728 4690 
Q 3069 4631 3425 4513 
z
" transform="scale(0.015625)"/>
       <path id="DejaVuSans-57" d="M 213 4666 
L 850 4666 
L 1831 722 
L 2809 4666 
L 3519 4666 
L 4500 722 
L 5478 4666 
L 6119 4666 
L 4947 0 
L 4153 0 
L 3169 4050 
L 2175 0 
L 1381 0 
L 213 4666 
z
" transform="scale(0.015625)"/>
      </defs>
      <use xlink:href="#DejaVuSans-53"/>
      <use xlink:href="#DejaVuSans-57" x="63.476562"/>
      <use xlink:href="#DejaVuSans-41" x="156.853516"/>
      <use xlink:href="#DejaVuSans-20" x="225.261719"/>
      <use xlink:href="#DejaVuSans-56" x="257.048828"/>
      <use xlink:href="#DejaVuSans-61" x="317.707031"/>
      <use xlink:href="#DejaVuSans-6c" x="378.986328"/>
      <use xlink:href="#DejaVuSans-69" x="406.769531"/>
      <use xlink:href="#DejaVuSans-64" x="434.552734"/>
      <use xlink:href="#DejaVuSans-61" x="498.029297"/>
      <use xlink:href="#DejaVuSans-74" x="559.308594"/>
      <use xlink:href="#DejaVuSans-69" x="598.517578"/>
      <use xlink:href="#DejaVuSans-6f" x="626.300781"/>
      <use xlink:href="#DejaVuSans-6e" x="687.482422"/>
      <use xlink:href="#DejaVuSans-20" x="750.861328"/>
      <use xlink:href="#DejaVuSans-41" x="782.648438"/>
      <use xlink:href="#DejaVuSans-63" x="849.306641"/>
      <use xlink:href="#DejaVuSans-63" x="904.287109"/>
      <use xlink:href="#DejaVuSans-75" x="959.267578"/>
      <use xlink:href="#DejaVuSans-72" x="1022.646484"/>
      <use xlink:href="#DejaVuSans-61" x="1063.759766"/>
      <use xlink:href="#DejaVuSans-63" x="1125.039062"/>
      <use xlink:href="#DejaVuSans-79" x="1180.019531"/>
     </g>
    </g>
    <g id="line2d_31">
     <path d="M 130.445937 278.326188 
L 140.445937 278.326188 
L 150.445937 278.326188 
" style="fill: none; stroke: #8c564b; stroke-width: 1.5; stroke-linecap: square"/>
    </g>
    <g id="text_27">
     <!-- SWA Robust Validation Accuracy -->
     <g transform="translate(158.445937 281.826188) scale(0.1 -0.1)">
      <use xlink:href="#DejaVuSans-53"/>
      <use xlink:href="#DejaVuSans-57" x="63.476562"/>
      <use xlink:href="#DejaVuSans-41" x="156.853516"/>
      <use xlink:href="#DejaVuSans-20" x="225.261719"/>
      <use xlink:href="#DejaVuSans-52" x="257.048828"/>
      <use xlink:href="#DejaVuSans-6f" x="322.03125"/>
      <use xlink:href="#DejaVuSans-62" x="383.212891"/>
      <use xlink:href="#DejaVuSans-75" x="446.689453"/>
      <use xlink:href="#DejaVuSans-73" x="510.068359"/>
      <use xlink:href="#DejaVuSans-74" x="562.167969"/>
      <use xlink:href="#DejaVuSans-20" x="601.376953"/>
      <use xlink:href="#DejaVuSans-56" x="633.164062"/>
      <use xlink:href="#DejaVuSans-61" x="693.822266"/>
      <use xlink:href="#DejaVuSans-6c" x="755.101562"/>
      <use xlink:href="#DejaVuSans-69" x="782.884766"/>
      <use xlink:href="#DejaVuSans-64" x="810.667969"/>
      <use xlink:href="#DejaVuSans-61" x="874.144531"/>
      <use xlink:href="#DejaVuSans-74" x="935.423828"/>
      <use xlink:href="#DejaVuSans-69" x="974.632812"/>
      <use xlink:href="#DejaVuSans-6f" x="1002.416016"/>
      <use xlink:href="#DejaVuSans-6e" x="1063.597656"/>
      <use xlink:href="#DejaVuSans-20" x="1126.976562"/>
      <use xlink:href="#DejaVuSans-41" x="1158.763672"/>
      <use xlink:href="#DejaVuSans-63" x="1225.421875"/>
      <use xlink:href="#DejaVuSans-63" x="1280.402344"/>
      <use xlink:href="#DejaVuSans-75" x="1335.382812"/>
      <use xlink:href="#DejaVuSans-72" x="1398.761719"/>
      <use xlink:href="#DejaVuSans-61" x="1439.875"/>
      <use xlink:href="#DejaVuSans-63" x="1501.154297"/>
      <use xlink:href="#DejaVuSans-79" x="1556.134766"/>
     </g>
    </g>
    <g id="line2d_32">
     <path d="M 130.445937 293.004312 
L 140.445937 293.004312 
L 150.445937 293.004312 
" style="fill: none; stroke: #e377c2; stroke-width: 1.5; stroke-linecap: square"/>
    </g>
    <g id="text_28">
     <!-- SWA Adversarial Validation Accuracy -->
     <g transform="translate(158.445937 296.504312) scale(0.1 -0.1)">
      <use xlink:href="#DejaVuSans-53"/>
      <use xlink:href="#DejaVuSans-57" x="63.476562"/>
      <use xlink:href="#DejaVuSans-41" x="156.853516"/>
      <use xlink:href="#DejaVuSans-20" x="225.261719"/>
      <use xlink:href="#DejaVuSans-41" x="257.048828"/>
      <use xlink:href="#DejaVuSans-64" x="323.707031"/>
      <use xlink:href="#DejaVuSans-76" x="387.183594"/>
      <use xlink:href="#DejaVuSans-65" x="446.363281"/>
      <use xlink:href="#DejaVuSans-72" x="507.886719"/>
      <use xlink:href="#DejaVuSans-73" x="549"/>
      <use xlink:href="#DejaVuSans-61" x="601.099609"/>
      <use xlink:href="#DejaVuSans-72" x="662.378906"/>
      <use xlink:href="#DejaVuSans-69" x="703.492188"/>
      <use xlink:href="#DejaVuSans-61" x="731.275391"/>
      <use xlink:href="#DejaVuSans-6c" x="792.554688"/>
      <use xlink:href="#DejaVuSans-20" x="820.337891"/>
      <use xlink:href="#DejaVuSans-56" x="852.125"/>
      <use xlink:href="#DejaVuSans-61" x="912.783203"/>
      <use xlink:href="#DejaVuSans-6c" x="974.0625"/>
      <use xlink:href="#DejaVuSans-69" x="1001.845703"/>
      <use xlink:href="#DejaVuSans-64" x="1029.628906"/>
      <use xlink:href="#DejaVuSans-61" x="1093.105469"/>
      <use xlink:href="#DejaVuSans-74" x="1154.384766"/>
      <use xlink:href="#DejaVuSans-69" x="1193.59375"/>
      <use xlink:href="#DejaVuSans-6f" x="1221.376953"/>
      <use xlink:href="#DejaVuSans-6e" x="1282.558594"/>
      <use xlink:href="#DejaVuSans-20" x="1345.9375"/>
      <use xlink:href="#DejaVuSans-41" x="1377.724609"/>
      <use xlink:href="#DejaVuSans-63" x="1444.382812"/>
      <use xlink:href="#DejaVuSans-63" x="1499.363281"/>
      <use xlink:href="#DejaVuSans-75" x="1554.34375"/>
      <use xlink:href="#DejaVuSans-72" x="1617.722656"/>
      <use xlink:href="#DejaVuSans-61" x="1658.835938"/>
      <use xlink:href="#DejaVuSans-63" x="1720.115234"/>
      <use xlink:href="#DejaVuSans-79" x="1775.095703"/>
     </g>
    </g>
   </g>
  </g>
 </g>
 <defs>
  <clipPath id="p316c15d64b">
   <rect x="57.6" y="41.472" width="357.12" height="266.112"/>
  </clipPath>
 </defs>
</svg>
