<?xml version="1.0" encoding="utf-8" standalone="no"?>
<!DOCTYPE svg PUBLIC "-//W3C//DTD SVG 1.1//EN"
  "http://www.w3.org/Graphics/SVG/1.1/DTD/svg11.dtd">
<svg xmlns:xlink="http://www.w3.org/1999/xlink" width="460.8pt" height="345.6pt" viewBox="0 0 460.8 345.6" xmlns="http://www.w3.org/2000/svg" version="1.1">
 <metadata>
  <rdf:RDF xmlns:dc="http://purl.org/dc/elements/1.1/" xmlns:cc="http://creativecommons.org/ns#" xmlns:rdf="http://www.w3.org/1999/02/22-rdf-syntax-ns#">
   <cc:Work>
    <dc:type rdf:resource="http://purl.org/dc/dcmitype/StillImage"/>
    <dc:date>2024-08-28T22:55:52.356766</dc:date>
    <dc:format>image/svg+xml</dc:format>
    <dc:creator>
     <cc:Agent>
      <dc:title>Matplotlib v3.9.1, https://matplotlib.org/</dc:title>
     </cc:Agent>
    </dc:creator>
   </cc:Work>
  </rdf:RDF>
 </metadata>
 <defs>
  <style type="text/css">*{stroke-linejoin: round; stroke-linecap: butt}</style>
 </defs>
 <g id="figure_1">
  <g id="patch_1">
   <path d="M 0 345.6 
L 460.8 345.6 
L 460.8 0 
L 0 0 
z
" style="fill: #ffffff"/>
  </g>
  <g id="axes_1">
   <g id="patch_2">
    <path d="M 57.6 307.584 
L 414.72 307.584 
L 414.72 41.472 
L 57.6 41.472 
z
" style="fill: #ffffff"/>
   </g>
   <g id="matplotlib.axis_1">
    <g id="xtick_1">
     <g id="line2d_1">
      <defs>
       <path id="m1032b5f34a" d="M 0 0 
L 0 3.5 
" style="stroke: #000000; stroke-width: 0.8"/>
      </defs>
      <g>
       <use xlink:href="#m1032b5f34a" x="73.832727" y="307.584" style="stroke: #000000; stroke-width: 0.8"/>
      </g>
     </g>
     <g id="text_1">
      <!-- 1 -->
      <g transform="translate(70.651477 322.182437) scale(0.1 -0.1)">
       <defs>
        <path id="DejaVuSans-31" d="M 794 531 
L 1825 531 
L 1825 4091 
L 703 3866 
L 703 4441 
L 1819 4666 
L 2450 4666 
L 2450 531 
L 3481 531 
L 3481 0 
L 794 0 
L 794 531 
z
" transform="scale(0.015625)"/>
       </defs>
       <use xlink:href="#DejaVuSans-31"/>
      </g>
     </g>
    </g>
    <g id="xtick_2">
     <g id="line2d_2">
      <g>
       <use xlink:href="#m1032b5f34a" x="109.262733" y="307.584" style="stroke: #000000; stroke-width: 0.8"/>
      </g>
     </g>
     <g id="text_2">
      <!-- 50 -->
      <g transform="translate(102.900233 322.182437) scale(0.1 -0.1)">
       <defs>
        <path id="DejaVuSans-35" d="M 691 4666 
L 3169 4666 
L 3169 4134 
L 1269 4134 
L 1269 2991 
Q 1406 3038 1543 3061 
Q 1681 3084 1819 3084 
Q 2600 3084 3056 2656 
Q 3513 2228 3513 1497 
Q 3513 744 3044 326 
Q 2575 -91 1722 -91 
Q 1428 -91 1123 -41 
Q 819 9 494 109 
L 494 744 
Q 775 591 1075 516 
Q 1375 441 1709 441 
Q 2250 441 2565 725 
Q 2881 1009 2881 1497 
Q 2881 1984 2565 2268 
Q 2250 2553 1709 2553 
Q 1456 2553 1204 2497 
Q 953 2441 691 2322 
L 691 4666 
z
" transform="scale(0.015625)"/>
        <path id="DejaVuSans-30" d="M 2034 4250 
Q 1547 4250 1301 3770 
Q 1056 3291 1056 2328 
Q 1056 1369 1301 889 
Q 1547 409 2034 409 
Q 2525 409 2770 889 
Q 3016 1369 3016 2328 
Q 3016 3291 2770 3770 
Q 2525 4250 2034 4250 
z
M 2034 4750 
Q 2819 4750 3233 4129 
Q 3647 3509 3647 2328 
Q 3647 1150 3233 529 
Q 2819 -91 2034 -91 
Q 1250 -91 836 529 
Q 422 1150 422 2328 
Q 422 3509 836 4129 
Q 1250 4750 2034 4750 
z
" transform="scale(0.015625)"/>
       </defs>
       <use xlink:href="#DejaVuSans-35"/>
       <use xlink:href="#DejaVuSans-30" x="63.623047"/>
      </g>
     </g>
    </g>
    <g id="xtick_3">
     <g id="line2d_3">
      <g>
       <use xlink:href="#m1032b5f34a" x="145.415801" y="307.584" style="stroke: #000000; stroke-width: 0.8"/>
      </g>
     </g>
     <g id="text_3">
      <!-- 100 -->
      <g transform="translate(135.872051 322.182437) scale(0.1 -0.1)">
       <use xlink:href="#DejaVuSans-31"/>
       <use xlink:href="#DejaVuSans-30" x="63.623047"/>
       <use xlink:href="#DejaVuSans-30" x="127.246094"/>
      </g>
     </g>
    </g>
    <g id="xtick_4">
     <g id="line2d_4">
      <g>
       <use xlink:href="#m1032b5f34a" x="181.568868" y="307.584" style="stroke: #000000; stroke-width: 0.8"/>
      </g>
     </g>
     <g id="text_4">
      <!-- 150 -->
      <g transform="translate(172.025118 322.182437) scale(0.1 -0.1)">
       <use xlink:href="#DejaVuSans-31"/>
       <use xlink:href="#DejaVuSans-35" x="63.623047"/>
       <use xlink:href="#DejaVuSans-30" x="127.246094"/>
      </g>
     </g>
    </g>
    <g id="xtick_5">
     <g id="line2d_5">
      <g>
       <use xlink:href="#m1032b5f34a" x="217.721936" y="307.584" style="stroke: #000000; stroke-width: 0.8"/>
      </g>
     </g>
     <g id="text_5">
      <!-- 200 -->
      <g transform="translate(208.178186 322.182437) scale(0.1 -0.1)">
       <defs>
        <path id="DejaVuSans-32" d="M 1228 531 
L 3431 531 
L 3431 0 
L 469 0 
L 469 531 
Q 828 903 1448 1529 
Q 2069 2156 2228 2338 
Q 2531 2678 2651 2914 
Q 2772 3150 2772 3378 
Q 2772 3750 2511 3984 
Q 2250 4219 1831 4219 
Q 1534 4219 1204 4116 
Q 875 4013 500 3803 
L 500 4441 
Q 881 4594 1212 4672 
Q 1544 4750 1819 4750 
Q 2544 4750 2975 4387 
Q 3406 4025 3406 3419 
Q 3406 3131 3298 2873 
Q 3191 2616 2906 2266 
Q 2828 2175 2409 1742 
Q 1991 1309 1228 531 
z
" transform="scale(0.015625)"/>
       </defs>
       <use xlink:href="#DejaVuSans-32"/>
       <use xlink:href="#DejaVuSans-30" x="63.623047"/>
       <use xlink:href="#DejaVuSans-30" x="127.246094"/>
      </g>
     </g>
    </g>
    <g id="xtick_6">
     <g id="line2d_6">
      <g>
       <use xlink:href="#m1032b5f34a" x="253.875003" y="307.584" style="stroke: #000000; stroke-width: 0.8"/>
      </g>
     </g>
     <g id="text_6">
      <!-- 250 -->
      <g transform="translate(244.331253 322.182437) scale(0.1 -0.1)">
       <use xlink:href="#DejaVuSans-32"/>
       <use xlink:href="#DejaVuSans-35" x="63.623047"/>
       <use xlink:href="#DejaVuSans-30" x="127.246094"/>
      </g>
     </g>
    </g>
    <g id="xtick_7">
     <g id="line2d_7">
      <g>
       <use xlink:href="#m1032b5f34a" x="290.02807" y="307.584" style="stroke: #000000; stroke-width: 0.8"/>
      </g>
     </g>
     <g id="text_7">
      <!-- 300 -->
      <g transform="translate(280.48432 322.182437) scale(0.1 -0.1)">
       <defs>
        <path id="DejaVuSans-33" d="M 2597 2516 
Q 3050 2419 3304 2112 
Q 3559 1806 3559 1356 
Q 3559 666 3084 287 
Q 2609 -91 1734 -91 
Q 1441 -91 1130 -33 
Q 819 25 488 141 
L 488 750 
Q 750 597 1062 519 
Q 1375 441 1716 441 
Q 2309 441 2620 675 
Q 2931 909 2931 1356 
Q 2931 1769 2642 2001 
Q 2353 2234 1838 2234 
L 1294 2234 
L 1294 2753 
L 1863 2753 
Q 2328 2753 2575 2939 
Q 2822 3125 2822 3475 
Q 2822 3834 2567 4026 
Q 2313 4219 1838 4219 
Q 1578 4219 1281 4162 
Q 984 4106 628 3988 
L 628 4550 
Q 988 4650 1302 4700 
Q 1616 4750 1894 4750 
Q 2613 4750 3031 4423 
Q 3450 4097 3450 3541 
Q 3450 3153 3228 2886 
Q 3006 2619 2597 2516 
z
" transform="scale(0.015625)"/>
       </defs>
       <use xlink:href="#DejaVuSans-33"/>
       <use xlink:href="#DejaVuSans-30" x="63.623047"/>
       <use xlink:href="#DejaVuSans-30" x="127.246094"/>
      </g>
     </g>
    </g>
    <g id="xtick_8">
     <g id="line2d_8">
      <g>
       <use xlink:href="#m1032b5f34a" x="326.181138" y="307.584" style="stroke: #000000; stroke-width: 0.8"/>
      </g>
     </g>
     <g id="text_8">
      <!-- 350 -->
      <g transform="translate(316.637388 322.182437) scale(0.1 -0.1)">
       <use xlink:href="#DejaVuSans-33"/>
       <use xlink:href="#DejaVuSans-35" x="63.623047"/>
       <use xlink:href="#DejaVuSans-30" x="127.246094"/>
      </g>
     </g>
    </g>
    <g id="xtick_9">
     <g id="line2d_9">
      <g>
       <use xlink:href="#m1032b5f34a" x="362.334205" y="307.584" style="stroke: #000000; stroke-width: 0.8"/>
      </g>
     </g>
     <g id="text_9">
      <!-- 400 -->
      <g transform="translate(352.790455 322.182437) scale(0.1 -0.1)">
       <defs>
        <path id="DejaVuSans-34" d="M 2419 4116 
L 825 1625 
L 2419 1625 
L 2419 4116 
z
M 2253 4666 
L 3047 4666 
L 3047 1625 
L 3713 1625 
L 3713 1100 
L 3047 1100 
L 3047 0 
L 2419 0 
L 2419 1100 
L 313 1100 
L 313 1709 
L 2253 4666 
z
" transform="scale(0.015625)"/>
       </defs>
       <use xlink:href="#DejaVuSans-34"/>
       <use xlink:href="#DejaVuSans-30" x="63.623047"/>
       <use xlink:href="#DejaVuSans-30" x="127.246094"/>
      </g>
     </g>
    </g>
    <g id="xtick_10">
     <g id="line2d_10">
      <g>
       <use xlink:href="#m1032b5f34a" x="398.487273" y="307.584" style="stroke: #000000; stroke-width: 0.8"/>
      </g>
     </g>
     <g id="text_10">
      <!-- 450 -->
      <g transform="translate(388.943523 322.182437) scale(0.1 -0.1)">
       <use xlink:href="#DejaVuSans-34"/>
       <use xlink:href="#DejaVuSans-35" x="63.623047"/>
       <use xlink:href="#DejaVuSans-30" x="127.246094"/>
      </g>
     </g>
    </g>
    <g id="text_11">
     <!-- Epochs -->
     <g transform="translate(218.244375 335.860562) scale(0.1 -0.1)">
      <defs>
       <path id="DejaVuSans-45" d="M 628 4666 
L 3578 4666 
L 3578 4134 
L 1259 4134 
L 1259 2753 
L 3481 2753 
L 3481 2222 
L 1259 2222 
L 1259 531 
L 3634 531 
L 3634 0 
L 628 0 
L 628 4666 
z
" transform="scale(0.015625)"/>
       <path id="DejaVuSans-70" d="M 1159 525 
L 1159 -1331 
L 581 -1331 
L 581 3500 
L 1159 3500 
L 1159 2969 
Q 1341 3281 1617 3432 
Q 1894 3584 2278 3584 
Q 2916 3584 3314 3078 
Q 3713 2572 3713 1747 
Q 3713 922 3314 415 
Q 2916 -91 2278 -91 
Q 1894 -91 1617 61 
Q 1341 213 1159 525 
z
M 3116 1747 
Q 3116 2381 2855 2742 
Q 2594 3103 2138 3103 
Q 1681 3103 1420 2742 
Q 1159 2381 1159 1747 
Q 1159 1113 1420 752 
Q 1681 391 2138 391 
Q 2594 391 2855 752 
Q 3116 1113 3116 1747 
z
" transform="scale(0.015625)"/>
       <path id="DejaVuSans-6f" d="M 1959 3097 
Q 1497 3097 1228 2736 
Q 959 2375 959 1747 
Q 959 1119 1226 758 
Q 1494 397 1959 397 
Q 2419 397 2687 759 
Q 2956 1122 2956 1747 
Q 2956 2369 2687 2733 
Q 2419 3097 1959 3097 
z
M 1959 3584 
Q 2709 3584 3137 3096 
Q 3566 2609 3566 1747 
Q 3566 888 3137 398 
Q 2709 -91 1959 -91 
Q 1206 -91 779 398 
Q 353 888 353 1747 
Q 353 2609 779 3096 
Q 1206 3584 1959 3584 
z
" transform="scale(0.015625)"/>
       <path id="DejaVuSans-63" d="M 3122 3366 
L 3122 2828 
Q 2878 2963 2633 3030 
Q 2388 3097 2138 3097 
Q 1578 3097 1268 2742 
Q 959 2388 959 1747 
Q 959 1106 1268 751 
Q 1578 397 2138 397 
Q 2388 397 2633 464 
Q 2878 531 3122 666 
L 3122 134 
Q 2881 22 2623 -34 
Q 2366 -91 2075 -91 
Q 1284 -91 818 406 
Q 353 903 353 1747 
Q 353 2603 823 3093 
Q 1294 3584 2113 3584 
Q 2378 3584 2631 3529 
Q 2884 3475 3122 3366 
z
" transform="scale(0.015625)"/>
       <path id="DejaVuSans-68" d="M 3513 2113 
L 3513 0 
L 2938 0 
L 2938 2094 
Q 2938 2591 2744 2837 
Q 2550 3084 2163 3084 
Q 1697 3084 1428 2787 
Q 1159 2491 1159 1978 
L 1159 0 
L 581 0 
L 581 4863 
L 1159 4863 
L 1159 2956 
Q 1366 3272 1645 3428 
Q 1925 3584 2291 3584 
Q 2894 3584 3203 3211 
Q 3513 2838 3513 2113 
z
" transform="scale(0.015625)"/>
       <path id="DejaVuSans-73" d="M 2834 3397 
L 2834 2853 
Q 2591 2978 2328 3040 
Q 2066 3103 1784 3103 
Q 1356 3103 1142 2972 
Q 928 2841 928 2578 
Q 928 2378 1081 2264 
Q 1234 2150 1697 2047 
L 1894 2003 
Q 2506 1872 2764 1633 
Q 3022 1394 3022 966 
Q 3022 478 2636 193 
Q 2250 -91 1575 -91 
Q 1294 -91 989 -36 
Q 684 19 347 128 
L 347 722 
Q 666 556 975 473 
Q 1284 391 1588 391 
Q 1994 391 2212 530 
Q 2431 669 2431 922 
Q 2431 1156 2273 1281 
Q 2116 1406 1581 1522 
L 1381 1569 
Q 847 1681 609 1914 
Q 372 2147 372 2553 
Q 372 3047 722 3315 
Q 1072 3584 1716 3584 
Q 2034 3584 2315 3537 
Q 2597 3491 2834 3397 
z
" transform="scale(0.015625)"/>
      </defs>
      <use xlink:href="#DejaVuSans-45"/>
      <use xlink:href="#DejaVuSans-70" x="63.183594"/>
      <use xlink:href="#DejaVuSans-6f" x="126.660156"/>
      <use xlink:href="#DejaVuSans-63" x="187.841797"/>
      <use xlink:href="#DejaVuSans-68" x="242.822266"/>
      <use xlink:href="#DejaVuSans-73" x="306.201172"/>
     </g>
    </g>
   </g>
   <g id="matplotlib.axis_2">
    <g id="ytick_1">
     <g id="line2d_11">
      <defs>
       <path id="mc1f38cfbea" d="M 0 0 
L -3.5 0 
" style="stroke: #000000; stroke-width: 0.8"/>
      </defs>
      <g>
       <use xlink:href="#mc1f38cfbea" x="57.6" y="284.736134" style="stroke: #000000; stroke-width: 0.8"/>
      </g>
     </g>
     <g id="text_12">
      <!-- 10 -->
      <g transform="translate(37.875 288.535352) scale(0.1 -0.1)">
       <use xlink:href="#DejaVuSans-31"/>
       <use xlink:href="#DejaVuSans-30" x="63.623047"/>
      </g>
     </g>
    </g>
    <g id="ytick_2">
     <g id="line2d_12">
      <g>
       <use xlink:href="#mc1f38cfbea" x="57.6" y="254.686199" style="stroke: #000000; stroke-width: 0.8"/>
      </g>
     </g>
     <g id="text_13">
      <!-- 20 -->
      <g transform="translate(37.875 258.485418) scale(0.1 -0.1)">
       <use xlink:href="#DejaVuSans-32"/>
       <use xlink:href="#DejaVuSans-30" x="63.623047"/>
      </g>
     </g>
    </g>
    <g id="ytick_3">
     <g id="line2d_13">
      <g>
       <use xlink:href="#mc1f38cfbea" x="57.6" y="224.636265" style="stroke: #000000; stroke-width: 0.8"/>
      </g>
     </g>
     <g id="text_14">
      <!-- 30 -->
      <g transform="translate(37.875 228.435484) scale(0.1 -0.1)">
       <use xlink:href="#DejaVuSans-33"/>
       <use xlink:href="#DejaVuSans-30" x="63.623047"/>
      </g>
     </g>
    </g>
    <g id="ytick_4">
     <g id="line2d_14">
      <g>
       <use xlink:href="#mc1f38cfbea" x="57.6" y="194.586331" style="stroke: #000000; stroke-width: 0.8"/>
      </g>
     </g>
     <g id="text_15">
      <!-- 40 -->
      <g transform="translate(37.875 198.38555) scale(0.1 -0.1)">
       <use xlink:href="#DejaVuSans-34"/>
       <use xlink:href="#DejaVuSans-30" x="63.623047"/>
      </g>
     </g>
    </g>
    <g id="ytick_5">
     <g id="line2d_15">
      <g>
       <use xlink:href="#mc1f38cfbea" x="57.6" y="164.536397" style="stroke: #000000; stroke-width: 0.8"/>
      </g>
     </g>
     <g id="text_16">
      <!-- 50 -->
      <g transform="translate(37.875 168.335616) scale(0.1 -0.1)">
       <use xlink:href="#DejaVuSans-35"/>
       <use xlink:href="#DejaVuSans-30" x="63.623047"/>
      </g>
     </g>
    </g>
    <g id="ytick_6">
     <g id="line2d_16">
      <g>
       <use xlink:href="#mc1f38cfbea" x="57.6" y="134.486463" style="stroke: #000000; stroke-width: 0.8"/>
      </g>
     </g>
     <g id="text_17">
      <!-- 60 -->
      <g transform="translate(37.875 138.285681) scale(0.1 -0.1)">
       <defs>
        <path id="DejaVuSans-36" d="M 2113 2584 
Q 1688 2584 1439 2293 
Q 1191 2003 1191 1497 
Q 1191 994 1439 701 
Q 1688 409 2113 409 
Q 2538 409 2786 701 
Q 3034 994 3034 1497 
Q 3034 2003 2786 2293 
Q 2538 2584 2113 2584 
z
M 3366 4563 
L 3366 3988 
Q 3128 4100 2886 4159 
Q 2644 4219 2406 4219 
Q 1781 4219 1451 3797 
Q 1122 3375 1075 2522 
Q 1259 2794 1537 2939 
Q 1816 3084 2150 3084 
Q 2853 3084 3261 2657 
Q 3669 2231 3669 1497 
Q 3669 778 3244 343 
Q 2819 -91 2113 -91 
Q 1303 -91 875 529 
Q 447 1150 447 2328 
Q 447 3434 972 4092 
Q 1497 4750 2381 4750 
Q 2619 4750 2861 4703 
Q 3103 4656 3366 4563 
z
" transform="scale(0.015625)"/>
       </defs>
       <use xlink:href="#DejaVuSans-36"/>
       <use xlink:href="#DejaVuSans-30" x="63.623047"/>
      </g>
     </g>
    </g>
    <g id="ytick_7">
     <g id="line2d_17">
      <g>
       <use xlink:href="#mc1f38cfbea" x="57.6" y="104.436529" style="stroke: #000000; stroke-width: 0.8"/>
      </g>
     </g>
     <g id="text_18">
      <!-- 70 -->
      <g transform="translate(37.875 108.235747) scale(0.1 -0.1)">
       <defs>
        <path id="DejaVuSans-37" d="M 525 4666 
L 3525 4666 
L 3525 4397 
L 1831 0 
L 1172 0 
L 2766 4134 
L 525 4134 
L 525 4666 
z
" transform="scale(0.015625)"/>
       </defs>
       <use xlink:href="#DejaVuSans-37"/>
       <use xlink:href="#DejaVuSans-30" x="63.623047"/>
      </g>
     </g>
    </g>
    <g id="ytick_8">
     <g id="line2d_18">
      <g>
       <use xlink:href="#mc1f38cfbea" x="57.6" y="74.386594" style="stroke: #000000; stroke-width: 0.8"/>
      </g>
     </g>
     <g id="text_19">
      <!-- 80 -->
      <g transform="translate(37.875 78.185813) scale(0.1 -0.1)">
       <defs>
        <path id="DejaVuSans-38" d="M 2034 2216 
Q 1584 2216 1326 1975 
Q 1069 1734 1069 1313 
Q 1069 891 1326 650 
Q 1584 409 2034 409 
Q 2484 409 2743 651 
Q 3003 894 3003 1313 
Q 3003 1734 2745 1975 
Q 2488 2216 2034 2216 
z
M 1403 2484 
Q 997 2584 770 2862 
Q 544 3141 544 3541 
Q 544 4100 942 4425 
Q 1341 4750 2034 4750 
Q 2731 4750 3128 4425 
Q 3525 4100 3525 3541 
Q 3525 3141 3298 2862 
Q 3072 2584 2669 2484 
Q 3125 2378 3379 2068 
Q 3634 1759 3634 1313 
Q 3634 634 3220 271 
Q 2806 -91 2034 -91 
Q 1263 -91 848 271 
Q 434 634 434 1313 
Q 434 1759 690 2068 
Q 947 2378 1403 2484 
z
M 1172 3481 
Q 1172 3119 1398 2916 
Q 1625 2713 2034 2713 
Q 2441 2713 2670 2916 
Q 2900 3119 2900 3481 
Q 2900 3844 2670 4047 
Q 2441 4250 2034 4250 
Q 1625 4250 1398 4047 
Q 1172 3844 1172 3481 
z
" transform="scale(0.015625)"/>
       </defs>
       <use xlink:href="#DejaVuSans-38"/>
       <use xlink:href="#DejaVuSans-30" x="63.623047"/>
      </g>
     </g>
    </g>
    <g id="ytick_9">
     <g id="line2d_19">
      <g>
       <use xlink:href="#mc1f38cfbea" x="57.6" y="44.33666" style="stroke: #000000; stroke-width: 0.8"/>
      </g>
     </g>
     <g id="text_20">
      <!-- 90 -->
      <g transform="translate(37.875 48.135879) scale(0.1 -0.1)">
       <defs>
        <path id="DejaVuSans-39" d="M 703 97 
L 703 672 
Q 941 559 1184 500 
Q 1428 441 1663 441 
Q 2288 441 2617 861 
Q 2947 1281 2994 2138 
Q 2813 1869 2534 1725 
Q 2256 1581 1919 1581 
Q 1219 1581 811 2004 
Q 403 2428 403 3163 
Q 403 3881 828 4315 
Q 1253 4750 1959 4750 
Q 2769 4750 3195 4129 
Q 3622 3509 3622 2328 
Q 3622 1225 3098 567 
Q 2575 -91 1691 -91 
Q 1453 -91 1209 -44 
Q 966 3 703 97 
z
M 1959 2075 
Q 2384 2075 2632 2365 
Q 2881 2656 2881 3163 
Q 2881 3666 2632 3958 
Q 2384 4250 1959 4250 
Q 1534 4250 1286 3958 
Q 1038 3666 1038 3163 
Q 1038 2656 1286 2365 
Q 1534 2075 1959 2075 
z
" transform="scale(0.015625)"/>
       </defs>
       <use xlink:href="#DejaVuSans-39"/>
       <use xlink:href="#DejaVuSans-30" x="63.623047"/>
      </g>
     </g>
    </g>
    <g id="text_21">
     <!-- Accuracy -->
     <g transform="translate(31.795312 197.356125) rotate(-90) scale(0.1 -0.1)">
      <defs>
       <path id="DejaVuSans-41" d="M 2188 4044 
L 1331 1722 
L 3047 1722 
L 2188 4044 
z
M 1831 4666 
L 2547 4666 
L 4325 0 
L 3669 0 
L 3244 1197 
L 1141 1197 
L 716 0 
L 50 0 
L 1831 4666 
z
" transform="scale(0.015625)"/>
       <path id="DejaVuSans-75" d="M 544 1381 
L 544 3500 
L 1119 3500 
L 1119 1403 
Q 1119 906 1312 657 
Q 1506 409 1894 409 
Q 2359 409 2629 706 
Q 2900 1003 2900 1516 
L 2900 3500 
L 3475 3500 
L 3475 0 
L 2900 0 
L 2900 538 
Q 2691 219 2414 64 
Q 2138 -91 1772 -91 
Q 1169 -91 856 284 
Q 544 659 544 1381 
z
M 1991 3584 
L 1991 3584 
z
" transform="scale(0.015625)"/>
       <path id="DejaVuSans-72" d="M 2631 2963 
Q 2534 3019 2420 3045 
Q 2306 3072 2169 3072 
Q 1681 3072 1420 2755 
Q 1159 2438 1159 1844 
L 1159 0 
L 581 0 
L 581 3500 
L 1159 3500 
L 1159 2956 
Q 1341 3275 1631 3429 
Q 1922 3584 2338 3584 
Q 2397 3584 2469 3576 
Q 2541 3569 2628 3553 
L 2631 2963 
z
" transform="scale(0.015625)"/>
       <path id="DejaVuSans-61" d="M 2194 1759 
Q 1497 1759 1228 1600 
Q 959 1441 959 1056 
Q 959 750 1161 570 
Q 1363 391 1709 391 
Q 2188 391 2477 730 
Q 2766 1069 2766 1631 
L 2766 1759 
L 2194 1759 
z
M 3341 1997 
L 3341 0 
L 2766 0 
L 2766 531 
Q 2569 213 2275 61 
Q 1981 -91 1556 -91 
Q 1019 -91 701 211 
Q 384 513 384 1019 
Q 384 1609 779 1909 
Q 1175 2209 1959 2209 
L 2766 2209 
L 2766 2266 
Q 2766 2663 2505 2880 
Q 2244 3097 1772 3097 
Q 1472 3097 1187 3025 
Q 903 2953 641 2809 
L 641 3341 
Q 956 3463 1253 3523 
Q 1550 3584 1831 3584 
Q 2591 3584 2966 3190 
Q 3341 2797 3341 1997 
z
" transform="scale(0.015625)"/>
       <path id="DejaVuSans-79" d="M 2059 -325 
Q 1816 -950 1584 -1140 
Q 1353 -1331 966 -1331 
L 506 -1331 
L 506 -850 
L 844 -850 
Q 1081 -850 1212 -737 
Q 1344 -625 1503 -206 
L 1606 56 
L 191 3500 
L 800 3500 
L 1894 763 
L 2988 3500 
L 3597 3500 
L 2059 -325 
z
" transform="scale(0.015625)"/>
      </defs>
      <use xlink:href="#DejaVuSans-41"/>
      <use xlink:href="#DejaVuSans-63" x="66.658203"/>
      <use xlink:href="#DejaVuSans-63" x="121.638672"/>
      <use xlink:href="#DejaVuSans-75" x="176.619141"/>
      <use xlink:href="#DejaVuSans-72" x="239.998047"/>
      <use xlink:href="#DejaVuSans-61" x="281.111328"/>
      <use xlink:href="#DejaVuSans-63" x="342.390625"/>
      <use xlink:href="#DejaVuSans-79" x="397.371094"/>
     </g>
    </g>
   </g>
   <g id="line2d_20">
    <path d="M 73.832727 295.488 
L 74.555789 277.17557 
L 76.001911 235.917011 
L 76.724973 217.069692 
L 78.894157 183.419776 
L 79.617218 166.615852 
L 80.340279 158.021571 
L 81.786402 146.716786 
L 82.509463 143.255034 
L 83.232525 137.461406 
L 83.955586 132.995986 
L 84.678647 129.840743 
L 85.401709 127.725228 
L 86.12477 123.464147 
L 88.293954 115.494904 
L 89.017016 113.385399 
L 89.740077 110.716965 
L 90.463138 109.815467 
L 91.1862 107.255212 
L 91.909261 106.690274 
L 93.355384 103.132361 
L 94.078445 103.91967 
L 94.801506 103.030192 
L 95.524568 127.574978 
L 96.247629 129.341914 
L 96.97069 127.695178 
L 97.693752 125.501532 
L 98.416813 124.443775 
L 99.139874 123.115568 
L 99.862936 120.603393 
L 101.309059 117.075531 
L 102.03212 116.468522 
L 102.755181 115.440814 
L 103.478243 112.135322 
L 104.201304 112.74233 
L 104.924365 110.025816 
L 106.370488 106.936683 
L 107.093549 106.822493 
L 107.816611 105.908975 
L 108.539672 104.676928 
L 109.262733 102.867922 
L 109.985795 103.036202 
L 110.708856 100.674277 
L 111.431917 100.746397 
L 112.87804 97.038235 
L 113.601101 96.797835 
L 114.324163 96.365116 
L 115.047224 94.063291 
L 115.770285 93.233913 
L 116.493347 92.098026 
L 118.662531 90.01256 
L 119.385592 89.062982 
L 120.108654 87.332106 
L 120.831715 86.340458 
L 121.554776 86.027939 
L 122.277838 84.573522 
L 123.000899 83.443645 
L 123.72396 83.305415 
L 124.447022 81.676708 
L 125.170083 81.544489 
L 125.893144 80.74516 
L 126.616206 79.308774 
L 127.339267 79.050344 
L 128.062328 78.142836 
L 128.78539 77.878397 
L 131.677635 73.713476 
L 132.400696 74.885423 
L 133.123758 73.364897 
L 133.846819 73.815646 
L 135.292942 72.962228 
L 136.016003 73.467066 
L 136.739065 72.649708 
L 137.462126 72.02467 
L 138.185187 72.222999 
L 138.908249 94.81454 
L 139.63131 98.138062 
L 140.354371 99.17779 
L 141.077433 98.402502 
L 141.800494 98.624871 
L 142.523555 97.957763 
L 143.246617 98.318362 
L 143.969678 97.669283 
L 144.692739 97.494994 
L 146.138862 96.635566 
L 146.861923 95.625888 
L 147.584985 94.303691 
L 148.308046 94.333741 
L 149.031108 92.747104 
L 149.754169 93.798852 
L 151.200292 92.146105 
L 151.923353 92.218225 
L 152.646414 91.310717 
L 153.369476 91.340767 
L 154.092537 90.553459 
L 154.815598 90.529419 
L 155.53866 90.781838 
L 156.261721 87.891035 
L 156.984782 88.131434 
L 157.707844 88.666323 
L 158.430905 88.023255 
L 159.153966 87.007567 
L 159.877028 87.290036 
L 160.600089 86.466668 
L 161.32315 86.232278 
L 162.046212 86.436618 
L 163.492334 85.73345 
L 164.215396 84.579532 
L 164.938457 84.128783 
L 165.661519 83.317435 
L 166.38458 83.756164 
L 167.107641 84.417262 
L 167.830703 83.563844 
L 168.553764 81.965188 
L 169.276825 81.730798 
L 169.999887 81.201919 
L 170.722948 81.712768 
L 171.446009 80.582891 
L 172.169071 80.210272 
L 172.892132 79.579223 
L 173.615193 78.257026 
L 174.338255 78.876055 
L 175.784377 77.986577 
L 176.507439 77.631987 
L 177.2305 77.403608 
L 177.953561 77.349518 
L 178.676623 77.487748 
L 179.399684 75.288092 
L 180.122745 75.690762 
L 180.845807 75.252032 
L 181.568868 75.041683 
L 182.29193 75.234003 
L 183.014991 73.094447 
L 183.738052 73.947865 
L 184.461114 73.479086 
L 185.184175 72.613648 
L 185.907236 72.703798 
L 186.630298 72.174919 
L 187.353359 71.95856 
L 188.07642 71.051052 
L 188.799482 70.558233 
L 189.522543 69.296136 
L 190.245604 69.794964 
L 190.968666 69.278106 
L 191.691727 68.262418 
L 193.13785 67.30683 
L 193.860911 67.787629 
L 194.583972 67.40299 
L 195.307034 66.333212 
L 196.753157 65.305504 
L 197.476218 65.702163 
L 198.922341 63.911187 
L 199.645402 63.442408 
L 200.368463 64.187647 
L 201.091525 63.784978 
L 201.814586 62.450761 
L 202.537647 62.63707 
L 203.260709 61.783652 
L 204.706831 60.924224 
L 205.429893 60.948264 
L 206.152954 61.308863 
L 208.322138 59.590007 
L 209.045199 59.415717 
L 209.768261 59.403697 
L 211.937445 58.23175 
L 212.660506 58.24377 
L 213.383568 58.09352 
L 214.82969 57.155962 
L 215.552752 57.246112 
L 216.275813 56.633093 
L 216.998874 56.669153 
L 217.721936 56.224414 
L 218.444997 56.518904 
L 219.168058 56.548953 
L 219.89112 57.023742 
L 220.614181 56.518904 
L 222.060304 55.947955 
L 222.783365 55.557306 
L 223.506426 56.176334 
L 224.229488 55.515236 
L 224.952549 56.350624 
L 225.67561 80.156182 
L 226.398672 85.33679 
L 227.121733 85.36684 
L 227.844794 86.124099 
L 228.567856 85.6433 
L 229.290917 86.094049 
L 230.013979 84.837961 
L 230.73704 85.769509 
L 231.460101 85.222601 
L 232.183163 84.447312 
L 232.906224 85.68537 
L 233.629285 84.579532 
L 234.352347 84.002573 
L 235.075408 84.886041 
L 235.798469 83.924443 
L 237.244592 84.315093 
L 237.967653 84.597562 
L 238.690715 82.890726 
L 239.413776 84.321103 
L 240.136837 82.920776 
L 240.859899 82.554166 
L 241.58296 83.191225 
L 242.306021 82.716436 
L 243.029083 82.800576 
L 243.752144 82.367857 
L 244.475206 83.022945 
L 245.198267 82.121447 
L 245.921328 81.556509 
L 247.367451 81.748828 
L 248.090512 81.742818 
L 248.813574 80.486731 
L 249.536635 81.219949 
L 250.259696 80.85935 
L 250.982758 79.729473 
L 251.705819 80.468701 
L 252.42888 80.312441 
L 253.151942 79.549173 
L 253.875003 80.474711 
L 254.598064 79.639323 
L 255.321126 80.060022 
L 256.044187 79.230644 
L 256.767248 79.639323 
L 257.49031 79.140494 
L 258.213371 78.503435 
L 258.936432 79.338824 
L 259.659494 77.686077 
L 260.382555 78.539495 
L 261.105617 77.686077 
L 261.828678 77.722137 
L 262.551739 77.349518 
L 263.274801 78.118796 
L 263.997862 78.413286 
L 264.720923 77.241338 
L 265.443985 77.583907 
L 266.167046 77.607947 
L 266.890107 76.988919 
L 267.613169 76.676399 
L 268.33623 76.718469 
L 269.059291 76.34585 
L 269.782353 76.928819 
L 270.505414 76.24969 
L 271.228475 75.324152 
L 271.951537 75.949191 
L 272.674598 75.684752 
L 273.397659 75.690762 
L 274.120721 75.450362 
L 274.843782 75.065723 
L 275.566843 75.498442 
L 276.289905 74.446694 
L 277.012966 74.152205 
L 277.736028 74.753204 
L 278.459089 74.386594 
L 279.18215 74.356544 
L 279.905212 73.623326 
L 280.628273 73.106467 
L 281.351334 73.563226 
L 282.074396 72.439359 
L 282.797457 73.455046 
L 284.24358 72.162899 
L 284.966641 72.0427 
L 285.689702 72.637688 
L 286.412764 72.739858 
L 287.135825 71.83836 
L 287.858886 71.95255 
L 288.581948 70.990952 
L 289.305009 71.73018 
L 290.02807 72.703798 
L 290.751132 71.73619 
L 291.474193 70.365913 
L 292.197255 71.159231 
L 292.920316 70.930852 
L 293.643377 70.456063 
L 295.0895 70.534193 
L 295.812561 70.293793 
L 297.258684 70.203644 
L 297.981745 69.470425 
L 298.704807 69.266086 
L 299.427868 70.137534 
L 300.150929 70.311823 
L 300.873991 68.947556 
L 301.597052 68.683117 
L 302.320113 67.931869 
L 303.043175 67.889799 
L 303.766236 68.701147 
L 304.489297 68.580947 
L 305.212359 67.42102 
L 305.93542 67.000321 
L 306.658481 67.14456 
L 307.381543 67.04239 
L 308.104604 67.46309 
L 308.827666 66.940221 
L 309.550727 66.170942 
L 310.273788 66.657751 
L 310.99685 65.323534 
L 311.719911 66.032713 
L 312.442972 65.624034 
L 313.166034 65.618024 
L 313.889095 65.786303 
L 314.612156 64.283807 
L 315.335218 64.698496 
L 316.058279 63.827048 
L 316.78134 64.343906 
L 317.504402 63.772958 
L 318.227463 63.827048 
L 318.950524 64.307846 
L 319.673586 64.241737 
L 320.396647 63.262109 
L 321.119708 63.658768 
L 321.84277 63.490488 
L 322.565831 63.093829 
L 323.288892 62.438741 
L 324.011954 62.8955 
L 324.735015 61.699512 
L 326.181138 62.354601 
L 326.904199 60.779984 
L 327.627261 61.879812 
L 328.350322 60.713874 
L 329.073383 60.028736 
L 329.796445 60.365295 
L 330.519506 60.455445 
L 331.242567 60.245095 
L 331.965629 60.197015 
L 332.68869 60.016716 
L 333.411751 58.958958 
L 334.134813 59.127238 
L 335.580935 58.616389 
L 337.027058 58.844768 
L 337.750119 58.802699 
L 338.473181 58.03342 
L 339.196242 57.089852 
L 339.919304 57.288182 
L 341.365426 56.729253 
L 342.088488 56.975663 
L 342.811549 56.530924 
L 343.53461 57.823071 
L 344.257672 56.080174 
L 344.980733 55.767655 
L 345.703794 56.428754 
L 347.149917 55.479176 
L 348.59604 54.782017 
L 349.319101 55.443116 
L 350.765224 53.568 
L 351.488285 54.072839 
L 352.211346 54.896207 
L 353.657469 54.481518 
L 354.38053 55.491196 
L 355.103592 54.769997 
L 355.826653 55.244786 
L 356.549715 55.358976 
L 357.272776 54.782017 
L 357.995837 54.992367 
L 358.718899 54.679848 
L 359.44196 54.547628 
L 360.165021 54.890197 
L 360.888083 54.048799 
L 361.611144 54.517578 
L 362.334205 54.325258 
L 363.057267 54.697878 
L 363.780328 54.721917 
L 364.503389 54.114909 
L 365.226451 54.259148 
L 365.949512 54.271168 
L 366.672573 54.661818 
L 367.395635 54.018749 
L 368.118696 54.493538 
L 368.841757 54.247129 
L 369.564819 55.094537 
L 370.28788 53.70623 
L 371.010941 54.517578 
L 371.734003 54.457478 
L 372.457064 53.802389 
L 373.180126 54.457478 
L 373.903187 54.721917 
L 374.626248 54.367328 
L 375.34931 54.619748 
L 376.072371 54.355308 
L 376.795432 54.493538 
L 377.518494 55.076507 
L 378.241555 54.277178 
L 378.964616 54.042789 
L 379.687678 54.962317 
L 381.1338 54.409398 
L 381.856862 54.541618 
L 382.579923 54.427428 
L 383.302984 53.796379 
L 384.026046 54.661818 
L 384.749107 54.433438 
L 385.472168 54.667828 
L 386.19523 55.130597 
L 386.918291 54.938277 
L 387.641353 54.223089 
L 388.364414 54.505558 
L 389.087475 54.259148 
L 389.810537 54.553638 
L 390.533598 54.487528 
L 391.256659 53.862489 
L 391.979721 54.331268 
L 392.702782 53.904559 
L 393.425843 54.896207 
L 394.148905 54.223089 
L 394.871966 53.73027 
L 395.595027 54.241119 
L 396.318089 54.000719 
L 397.04115 54.860147 
L 397.764211 54.271168 
L 398.487273 54.403388 
L 398.487273 54.403388 
" clip-path="url(#pd3508896b2)" style="fill: none; stroke: #1f77b4; stroke-width: 1.5; stroke-linecap: square"/>
   </g>
   <g id="line2d_21">
    <path d="M 73.832727 283.564186 
L 74.555789 268.17862 
L 75.27885 246.362368 
L 76.001911 230.766452 
L 76.724973 218.536129 
L 77.448034 195.487829 
L 78.171095 187.795046 
L 78.894157 182.806757 
L 79.617218 169.584786 
L 80.340279 165.648244 
L 81.063341 156.873664 
L 81.786402 154.19922 
L 82.509463 150.593227 
L 83.232525 143.531493 
L 83.955586 138.062405 
L 84.678647 136.980607 
L 85.401709 133.254415 
L 86.12477 126.072481 
L 86.847832 127.905527 
L 87.570893 123.818736 
L 88.293954 122.947288 
L 89.017016 119.882195 
L 89.740077 119.461496 
L 90.463138 116.666852 
L 91.1862 115.705254 
L 91.909261 112.129312 
L 92.632322 112.009112 
L 93.355384 111.017464 
L 94.078445 110.686915 
L 94.801506 110.987414 
L 95.524568 148.700082 
L 96.247629 144.312791 
L 97.693752 129.708523 
L 98.416813 129.137574 
L 99.139874 127.605028 
L 99.862936 127.995677 
L 100.585997 128.115877 
L 101.309059 120.483193 
L 102.03212 118.860497 
L 102.755181 122.586689 
L 103.478243 118.800397 
L 104.201304 114.112607 
L 104.924365 115.224455 
L 105.647427 113.331309 
L 106.370488 113.09091 
L 107.093549 113.631808 
L 107.816611 108.853869 
L 108.539672 108.34302 
L 109.262733 109.725317 
L 109.985795 107.381422 
L 110.708856 106.660224 
L 111.431917 106.269575 
L 112.154979 103.474931 
L 112.87804 105.969075 
L 113.601101 104.436529 
L 114.324163 103.294631 
L 115.047224 101.611835 
L 115.770285 99.08764 
L 117.216408 95.872297 
L 117.93947 97.525044 
L 119.385592 94.5501 
L 120.108654 92.146105 
L 120.831715 93.919052 
L 121.554776 91.875656 
L 122.277838 90.703709 
L 123.000899 91.545107 
L 123.72396 92.176155 
L 124.447022 90.07266 
L 125.170083 88.359814 
L 125.893144 88.810563 
L 126.616206 88.449964 
L 127.339267 85.985869 
L 128.062328 86.226268 
L 128.78539 85.925769 
L 129.508451 84.513422 
L 130.231512 84.453322 
L 130.954574 84.273023 
L 131.677635 83.521774 
L 132.400696 82.950826 
L 133.123758 82.920776 
L 133.846819 82.349827 
L 134.569881 82.409927 
L 135.292942 82.169527 
L 136.016003 82.289727 
L 136.739065 82.139477 
L 137.462126 81.538479 
L 138.185187 81.748828 
L 138.908249 106.720324 
L 139.63131 108.46322 
L 140.354371 103.294631 
L 141.077433 108.34302 
L 141.800494 105.067577 
L 142.523555 105.097627 
L 143.246617 103.294631 
L 143.969678 106.389774 
L 144.692739 104.526678 
L 145.415801 105.127677 
L 146.138862 99.35809 
L 146.861923 102.573433 
L 147.584985 104.827178 
L 148.308046 101.371435 
L 149.031108 102.573433 
L 149.754169 103.354731 
L 150.47723 97.975793 
L 151.200292 99.688639 
L 151.923353 101.822184 
L 152.646414 101.281285 
L 153.369476 101.191136 
L 154.092537 99.748739 
L 154.815598 96.292996 
L 155.53866 97.705343 
L 156.261721 96.863945 
L 156.984782 96.563446 
L 157.707844 96.413196 
L 158.430905 98.877291 
L 159.153966 97.675293 
L 159.877028 95.631898 
L 160.600089 91.875656 
L 161.32315 96.984145 
L 162.046212 93.858952 
L 162.769273 93.017554 
L 163.492334 91.665307 
L 164.215396 90.914058 
L 164.938457 96.202847 
L 165.661519 99.20784 
L 166.38458 93.618552 
L 167.107641 91.304707 
L 167.830703 89.98251 
L 168.553764 90.313059 
L 169.276825 89.682011 
L 169.999887 92.236255 
L 170.722948 90.433259 
L 171.446009 90.733759 
L 172.169071 88.840613 
L 172.892132 88.389864 
L 173.615193 88.870663 
L 174.338255 86.406568 
L 175.061316 91.605207 
L 175.784377 88.600213 
L 176.507439 88.029265 
L 177.2305 90.613559 
L 177.953561 88.810563 
L 178.676623 85.234621 
L 179.399684 89.081012 
L 180.122745 84.904071 
L 180.845807 84.663672 
L 181.568868 82.860676 
L 182.29193 87.578515 
L 183.014991 86.917417 
L 183.738052 85.955819 
L 184.461114 87.187866 
L 185.184175 81.17788 
L 185.907236 82.289727 
L 186.630298 80.216282 
L 187.353359 83.401575 
L 188.07642 81.959178 
L 188.799482 80.96753 
L 189.522543 80.96753 
L 190.245604 80.126132 
L 190.968666 83.221275 
L 191.691727 80.516781 
L 192.414788 78.623635 
L 193.13785 78.082736 
L 193.860911 78.864035 
L 194.583972 81.08773 
L 195.307034 77.902437 
L 196.030095 77.121138 
L 196.753157 77.030989 
L 197.476218 77.181238 
L 198.922341 76.970889 
L 199.645402 77.511788 
L 201.091525 77.361538 
L 202.537647 74.626994 
L 203.260709 76.18959 
L 203.98377 73.755546 
L 204.706831 74.025995 
L 205.429893 74.506794 
L 206.876015 73.635346 
L 207.599077 73.124497 
L 208.322138 73.485096 
L 209.045199 73.575246 
L 209.768261 72.523498 
L 211.214383 72.553548 
L 211.937445 72.673748 
L 212.660506 72.493449 
L 213.383568 71.441701 
L 214.106629 71.8624 
L 214.82969 71.9225 
L 215.552752 71.7422 
L 216.275813 71.83235 
L 216.998874 72.192949 
L 217.721936 71.77225 
L 218.444997 71.77225 
L 219.168058 71.291451 
L 219.89112 71.291451 
L 220.614181 70.990952 
L 221.337242 71.622 
L 222.060304 71.471751 
L 224.952549 71.622 
L 225.67561 96.353096 
L 226.398672 99.448239 
L 227.121733 97.615194 
L 227.844794 98.306342 
L 228.567856 100.499987 
L 229.290917 100.079288 
L 230.013979 99.808839 
L 230.73704 96.803845 
L 231.460101 95.631898 
L 232.183163 99.05759 
L 232.906224 98.877291 
L 233.629285 94.49 
L 234.352347 93.257953 
L 235.075408 92.566805 
L 235.798469 96.232897 
L 236.521531 93.919052 
L 237.244592 101.521685 
L 237.967653 93.588502 
L 238.690715 91.244607 
L 239.413776 96.863945 
L 240.136837 97.014195 
L 240.859899 95.962447 
L 241.58296 97.014195 
L 242.306021 93.528402 
L 243.029083 97.374794 
L 243.752144 93.047604 
L 244.475206 96.022547 
L 245.198267 92.206205 
L 245.921328 96.863945 
L 246.64439 92.446605 
L 248.090512 97.705343 
L 248.813574 96.323046 
L 249.536635 95.211199 
L 250.259696 96.262946 
L 251.705819 90.19286 
L 252.42888 92.476655 
L 253.151942 91.244607 
L 253.875003 92.296355 
L 254.598064 92.086006 
L 255.321126 92.146105 
L 256.044187 90.04261 
L 256.767248 89.351462 
L 257.49031 89.98251 
L 258.213371 85.71542 
L 258.936432 91.244607 
L 259.659494 88.660313 
L 260.382555 92.326405 
L 261.105617 91.184508 
L 261.828678 100.229538 
L 262.551739 89.261312 
L 263.274801 94.369801 
L 263.997862 95.421548 
L 264.720923 88.149464 
L 265.443985 93.558452 
L 266.167046 94.4299 
L 266.890107 90.493359 
L 267.613169 89.591861 
L 268.33623 89.501711 
L 269.059291 91.665307 
L 269.782353 88.480014 
L 270.505414 91.124408 
L 271.228475 91.394857 
L 271.951537 90.343109 
L 272.674598 88.029265 
L 273.397659 93.348103 
L 274.120721 88.570163 
L 274.843782 89.321412 
L 275.566843 88.480014 
L 276.289905 85.41492 
L 277.012966 85.264671 
L 277.736028 86.376518 
L 278.459089 85.62527 
L 279.18215 87.668665 
L 279.905212 92.266305 
L 280.628273 88.840613 
L 281.351334 91.214558 
L 282.074396 85.50507 
L 282.797457 86.767167 
L 283.520518 88.570163 
L 284.24358 86.707067 
L 284.966641 85.65532 
L 285.689702 87.788865 
L 286.412764 86.045969 
L 287.135825 87.879015 
L 288.581948 85.47502 
L 289.305009 85.68537 
L 290.02807 89.321412 
L 290.751132 85.47502 
L 291.474193 82.950826 
L 292.197255 87.247966 
L 292.920316 85.32477 
L 293.643377 85.114421 
L 294.366439 83.371525 
L 295.0895 84.723772 
L 295.812561 86.616918 
L 296.535623 83.852324 
L 297.258684 82.289727 
L 297.981745 83.311425 
L 298.704807 82.620276 
L 299.427868 82.920776 
L 300.150929 83.762174 
L 300.873991 84.182873 
L 301.597052 82.379877 
L 302.320113 85.174521 
L 303.043175 84.603572 
L 303.766236 82.800576 
L 304.489297 82.019278 
L 305.212359 80.126132 
L 305.93542 80.84733 
L 306.658481 84.393222 
L 307.381543 79.885732 
L 308.104604 79.224634 
L 308.827666 82.560176 
L 309.550727 80.126132 
L 310.273788 81.899078 
L 310.99685 80.84733 
L 311.719911 83.461675 
L 312.442972 82.109427 
L 313.166034 81.959178 
L 313.889095 82.980876 
L 314.612156 79.855682 
L 315.335218 82.409927 
L 316.058279 81.598579 
L 316.78134 83.281375 
L 317.504402 78.383236 
L 318.227463 76.27974 
L 318.950524 75.618642 
L 319.673586 78.924134 
L 320.396647 81.688728 
L 321.119708 78.833985 
L 321.84277 78.623635 
L 322.565831 77.601937 
L 323.288892 76.970889 
L 324.011954 78.142836 
L 325.458077 78.353186 
L 326.181138 75.618642 
L 327.627261 79.885732 
L 328.350322 77.752187 
L 329.073383 76.910789 
L 329.796445 78.713785 
L 331.242567 77.872387 
L 331.965629 75.949191 
L 332.68869 77.091088 
L 333.411751 77.361538 
L 334.134813 75.949191 
L 334.857874 77.932487 
L 335.580935 75.798941 
L 336.303997 76.61029 
L 337.027058 74.777244 
L 337.750119 80.84733 
L 338.473181 73.665396 
L 339.196242 76.129491 
L 339.919304 76.159541 
L 340.642365 73.214647 
L 342.088488 72.793948 
L 342.811549 73.455046 
L 343.53461 75.468392 
L 344.257672 74.566894 
L 344.980733 72.643698 
L 345.703794 74.386594 
L 346.426856 71.531851 
L 347.149917 71.9826 
L 347.872978 72.854048 
L 348.59604 72.884098 
L 349.319101 71.8624 
L 350.042162 71.8624 
L 350.765224 72.283099 
L 351.488285 71.7422 
L 352.211346 70.990952 
L 352.934408 72.583598 
L 353.657469 73.034347 
L 354.38053 73.124497 
L 355.103592 74.807293 
L 355.826653 74.476744 
L 356.549715 73.575246 
L 357.272776 72.493449 
L 357.995837 72.343199 
L 358.718899 75.258042 
L 359.44196 73.905795 
L 360.888083 72.373249 
L 361.611144 74.025995 
L 362.334205 72.313149 
L 363.057267 72.914148 
L 363.780328 73.184597 
L 364.503389 72.763898 
L 365.226451 72.132849 
L 365.949512 73.905795 
L 366.672573 72.793948 
L 367.395635 72.914148 
L 368.118696 72.102799 
L 368.841757 72.01265 
L 369.564819 72.854048 
L 370.28788 71.6821 
L 371.010941 72.944198 
L 371.734003 72.673748 
L 372.457064 73.274747 
L 373.180126 72.0427 
L 373.903187 72.703798 
L 374.626248 72.553548 
L 375.34931 72.944198 
L 376.072371 75.828991 
L 376.795432 73.545196 
L 377.518494 73.184597 
L 378.241555 71.441701 
L 378.964616 74.086095 
L 379.687678 73.725496 
L 380.410739 74.687094 
L 381.1338 73.244697 
L 381.856862 71.081102 
L 382.579923 74.236345 
L 383.302984 73.304797 
L 384.026046 73.665396 
L 384.749107 71.6821 
L 385.472168 72.944198 
L 386.19523 72.0427 
L 386.918291 72.974247 
L 387.641353 71.7422 
L 388.364414 72.823998 
L 389.087475 72.463399 
L 389.810537 73.815646 
L 391.256659 71.441701 
L 391.979721 72.523498 
L 392.702782 74.296445 
L 393.425843 74.326495 
L 394.148905 74.236345 
L 394.871966 74.446694 
L 395.595027 72.733848 
L 396.318089 69.458405 
L 397.764211 74.476744 
L 398.487273 72.854048 
L 398.487273 72.854048 
" clip-path="url(#pd3508896b2)" style="fill: none; stroke: #ff7f0e; stroke-width: 1.5; stroke-linecap: square"/>
   </g>
   <g id="line2d_22">
    <path d="M 73.832727 281.834812 
L 74.555789 268.623058 
L 75.27885 243.919909 
L 76.001911 226.304638 
L 76.724973 217.714563 
L 77.448034 210.554265 
L 78.171095 208.119018 
L 78.894157 204.036434 
L 79.617218 198.182106 
L 80.340279 186.348442 
L 81.063341 189.861279 
L 81.786402 188.369 
L 83.232525 173.572112 
L 83.955586 172.825972 
L 84.678647 166.287707 
L 85.401709 173.136989 
L 86.12477 163.645116 
L 86.847832 173.416753 
L 87.570893 161.531403 
L 88.293954 160.122062 
L 89.017016 155.977274 
L 89.740077 155.915071 
L 90.463138 157.231258 
L 91.1862 156.412698 
L 91.909261 153.179625 
L 92.632322 154.433309 
L 93.355384 152.050048 
L 94.078445 153.324766 
L 94.801506 152.568109 
L 95.524568 171.655226 
L 96.247629 183.685417 
L 96.97069 168.743388 
L 97.693752 172.235491 
L 98.416813 170.318305 
L 99.139874 167.810938 
L 99.862936 172.390849 
L 100.585997 170.173464 
L 101.309059 166.028677 
L 102.03212 156.226088 
L 102.755181 164.277366 
L 103.478243 159.168878 
L 104.924365 166.080363 
L 105.647427 152.236658 
L 106.370488 161.199953 
L 107.093549 153.842827 
L 109.262733 153.884296 
L 109.985795 151.677129 
L 110.708856 155.117245 
L 111.431917 153.998185 
L 112.154979 147.604761 
L 112.87804 154.785794 
L 113.601101 152.278127 
L 114.324163 145.086877 
L 115.047224 153.20036 
L 115.770285 146.029844 
L 116.493347 150.485348 
L 117.216408 145.967641 
L 117.93947 143.988552 
L 118.662531 147.076484 
L 119.385592 146.050579 
L 120.108654 143.750256 
L 120.831715 141.833071 
L 122.277838 144.796595 
L 123.000899 142.06115 
L 123.72396 142.278711 
L 124.447022 141.025028 
L 125.170083 139.532779 
L 125.893144 139.356624 
L 126.616206 139.926537 
L 127.339267 134.911307 
L 128.062328 135.273978 
L 128.78539 140.641518 
L 129.508451 138.009558 
L 130.231512 137.284215 
L 130.954574 137.346387 
L 131.677635 136.610682 
L 132.400696 134.009809 
L 133.123758 134.641893 
L 133.846819 134.558997 
L 134.569881 135.481219 
L 135.292942 134.103067 
L 136.016003 135.077099 
L 136.739065 134.994203 
L 137.462126 133.667861 
L 138.185187 134.42429 
L 138.908249 158.308807 
L 139.63131 158.163738 
L 140.354371 153.262491 
L 141.077433 158.547134 
L 141.800494 146.050506 
L 143.246617 152.164114 
L 143.969678 154.112178 
L 144.692739 158.816547 
L 145.415801 155.749382 
L 146.138862 150.651255 
L 146.861923 153.179594 
L 147.584985 151.811804 
L 148.308046 149.573602 
L 149.031108 151.262616 
L 149.754169 156.764862 
L 150.47723 146.299195 
L 151.200292 146.77585 
L 151.923353 149.780843 
L 152.646414 148.723914 
L 153.369476 146.102317 
L 154.092537 144.340769 
L 154.815598 149.438895 
L 155.53866 149.138396 
L 156.261721 141.719171 
L 156.984782 146.247385 
L 157.707844 147.325038 
L 158.430905 142.589583 
L 159.153966 147.604813 
L 159.877028 146.195575 
L 160.600089 139.967985 
L 161.32315 154.340143 
L 162.046212 146.578971 
L 163.492334 146.82766 
L 164.215396 143.18022 
L 164.938457 145.045388 
L 165.661519 146.496074 
L 166.38458 145.781093 
L 167.107641 143.853753 
L 167.830703 141.501568 
L 168.553764 138.714178 
L 169.276825 140.786587 
L 169.999887 147.148883 
L 170.722948 140.04052 
L 171.446009 142.112929 
L 172.169071 145.656749 
L 172.892132 138.548385 
L 173.615193 135.729908 
L 174.338255 143.190582 
L 175.061316 140.910931 
L 175.784377 136.279097 
L 176.507439 141.118172 
L 177.953561 136.95263 
L 178.676623 131.678348 
L 179.399684 137.10806 
L 180.122745 133.698947 
L 180.845807 132.175726 
L 181.568868 132.123916 
L 183.014991 140.517174 
L 183.738052 137.439646 
L 184.461114 140.755501 
L 185.184175 132.869984 
L 185.907236 139.346262 
L 186.630298 133.502068 
L 187.353359 140.817673 
L 188.07642 135.149634 
L 188.799482 134.507187 
L 189.522543 128.383217 
L 190.245604 134.932031 
L 190.968666 129.502318 
L 191.691727 132.268985 
L 192.414788 130.67323 
L 193.13785 125.264242 
L 193.860911 128.683717 
L 194.583972 137.885214 
L 195.307034 133.139397 
L 196.030095 132.09283 
L 196.753157 126.010309 
L 197.476218 129.699197 
L 198.199279 132.331157 
L 198.922341 127.201944 
L 199.645402 130.911557 
L 200.368463 126.766738 
L 201.091525 128.124166 
L 201.814586 125.233155 
L 203.260709 127.979098 
L 203.98377 122.756626 
L 204.706831 124.922294 
L 205.429893 125.575103 
L 206.152954 123.088212 
L 206.876015 124.652881 
L 207.599077 122.901695 
L 208.322138 125.036277 
L 209.045199 126.010309 
L 209.768261 124.383468 
L 210.491322 124.611433 
L 211.214383 124.165865 
L 211.937445 124.04152 
L 212.660506 125.430034 
L 213.383568 124.207313 
L 214.106629 124.49745 
L 214.82969 123.554504 
L 215.552752 123.140022 
L 216.275813 123.108936 
L 216.998874 124.49745 
L 217.721936 123.222918 
L 218.444997 124.559622 
L 219.168058 123.958624 
L 219.89112 123.18147 
L 220.614181 122.798075 
L 222.060304 123.036402 
L 222.783365 123.336901 
L 223.506426 123.378349 
L 224.952549 122.72554 
L 225.67561 147.252504 
L 226.398672 152.060493 
L 227.121733 148.868983 
L 227.844794 148.081467 
L 228.567856 147.625537 
L 229.290917 149.646136 
L 230.013979 155.38671 
L 231.460101 150.039894 
L 232.183163 151.853252 
L 232.906224 150.153877 
L 233.629285 146.402816 
L 234.352347 137.398198 
L 235.075408 145.035026 
L 235.798469 143.947011 
L 236.521531 146.516798 
L 237.244592 152.65113 
L 237.967653 144.589458 
L 238.690715 141.750257 
L 239.413776 149.397447 
L 240.136837 147.055625 
L 240.859899 146.599695 
L 241.58296 148.392329 
L 242.306021 140.289209 
L 243.029083 145.96761 
L 243.752144 140.817673 
L 244.475206 146.87947 
L 245.198267 145.314801 
L 245.921328 147.760244 
L 246.64439 148.444139 
L 247.367451 151.314426 
L 248.090512 149.749757 
L 248.813574 145.501318 
L 249.536635 145.832903 
L 250.259696 145.573852 
L 250.982758 145.998696 
L 251.705819 138.548385 
L 252.42888 142.703565 
L 253.151942 138.496575 
L 253.875003 138.890332 
L 254.598064 138.714178 
L 255.321126 144.900319 
L 256.044187 140.24776 
L 256.767248 144.288958 
L 257.49031 139.097573 
L 258.213371 145.812179 
L 258.936432 136.942268 
L 259.659494 140.859121 
L 260.382555 150.164239 
L 261.105617 140.745139 
L 261.828678 155.987709 
L 262.551739 137.86449 
L 263.274801 140.734777 
L 263.997862 146.661867 
L 264.720923 143.801942 
L 265.443985 138.133903 
L 266.167046 148.19545 
L 266.890107 141.087086 
L 267.613169 143.480719 
L 268.33623 146.630781 
L 269.059291 144.340769 
L 269.782353 141.605189 
L 270.505414 148.060743 
L 271.228475 149.874101 
L 271.951537 146.195575 
L 272.674598 133.0565 
L 273.397659 148.050381 
L 274.120721 136.983716 
L 274.843782 141.40831 
L 275.566843 139.512055 
L 276.289905 139.74002 
L 277.012966 135.253254 
L 277.736028 141.51193 
L 278.459089 136.248011 
L 279.18215 137.719421 
L 279.905212 146.558247 
L 280.628273 140.589708 
L 281.351334 142.392704 
L 282.074396 134.579721 
L 282.797457 138.82816 
L 283.520518 141.688085 
L 284.24358 133.626413 
L 284.966641 141.128534 
L 285.689702 144.962491 
L 286.412764 133.377724 
L 287.135825 140.962742 
L 287.858886 135.937149 
L 288.581948 137.833404 
L 289.305009 133.781844 
L 290.02807 140.620794 
L 290.751132 135.750632 
L 291.474193 136.102942 
L 292.197255 132.621294 
L 292.920316 136.351631 
L 293.643377 136.403441 
L 294.366439 137.139147 
L 295.0895 132.631656 
L 295.812561 136.983716 
L 296.535623 138.942143 
L 297.258684 137.315301 
L 297.981745 138.983591 
L 298.704807 136.258373 
L 299.427868 135.387961 
L 300.150929 133.274103 
L 300.873991 136.631406 
L 301.597052 133.129035 
L 303.043175 136.361993 
L 303.766236 135.294702 
L 304.489297 138.900694 
L 305.93542 134.082343 
L 306.658481 132.382967 
L 307.381543 131.595452 
L 308.104604 128.010184 
L 308.827666 139.025039 
L 309.550727 135.356875 
L 310.273788 129.574853 
L 310.99685 127.844391 
L 311.719911 134.745514 
L 312.442972 135.626288 
L 313.166034 130.072231 
L 313.889095 133.51243 
L 314.612156 124.49745 
L 315.335218 135.833529 
L 316.058279 130.072231 
L 316.78134 130.579971 
L 317.504402 129.678473 
L 318.227463 130.569609 
L 318.950524 124.95338 
L 319.673586 130.2173 
L 320.396647 137.035526 
L 321.84277 128.061994 
L 322.565831 128.09308 
L 324.011954 126.528411 
L 324.735015 130.818298 
L 325.458077 124.797949 
L 326.181138 125.792706 
L 327.627261 132.942518 
L 328.350322 123.875727 
L 329.073383 127.025789 
L 329.796445 132.289709 
L 330.519506 125.088087 
L 331.242567 129.616301 
L 331.965629 125.595827 
L 332.68869 129.139647 
L 333.411751 123.844641 
L 334.134813 126.072481 
L 334.857874 133.657499 
L 335.580935 124.528536 
L 336.303997 124.84976 
L 337.027058 126.901445 
L 337.750119 129.81318 
L 338.473181 125.025914 
L 339.196242 126.404067 
L 339.919304 124.435278 
L 340.642365 125.326414 
L 341.365426 124.020796 
L 342.088488 124.984466 
L 342.811549 122.207438 
L 343.53461 127.865115 
L 344.257672 123.399073 
L 344.980733 122.694454 
L 345.703794 125.595827 
L 346.426856 120.09358 
L 347.149917 120.974354 
L 347.872978 124.673605 
L 348.59604 123.564866 
L 349.319101 123.005315 
L 350.042162 121.627163 
L 350.765224 122.704816 
L 351.488285 122.248886 
L 352.211346 120.269735 
L 352.934408 125.606189 
L 353.657469 126.714928 
L 354.38053 123.098574 
L 355.103592 121.098699 
L 355.826653 129.015302 
L 356.549715 122.932781 
L 357.272776 123.046764 
L 357.995837 124.383468 
L 358.718899 126.559497 
L 359.44196 122.373231 
L 360.165021 126.7771 
L 360.888083 125.295328 
L 362.334205 120.684217 
L 363.057267 120.725665 
L 363.780328 125.927413 
L 364.503389 122.26961 
L 365.226451 122.331782 
L 365.949512 127.253754 
L 366.672573 121.109061 
L 367.395635 122.145266 
L 368.118696 123.554504 
L 368.841757 122.611558 
L 370.28788 119.471858 
L 371.010941 123.202194 
L 371.734003 122.57011 
L 372.457064 122.456127 
L 373.180126 118.870859 
L 373.903187 120.083218 
L 374.626248 118.974479 
L 375.34931 120.34227 
L 376.072371 129.046388 
L 376.795432 125.637275 
L 377.518494 116.477226 
L 378.241555 121.088337 
L 378.964616 124.321295 
L 379.687678 121.699698 
L 380.410739 125.025914 
L 381.1338 124.228037 
L 381.856862 125.077725 
L 382.579923 123.575228 
L 383.302984 124.994828 
L 384.026046 124.84976 
L 384.749107 123.834279 
L 385.472168 121.140147 
L 386.19523 118.912307 
L 386.918291 121.502819 
L 387.641353 123.243643 
L 388.364414 120.974354 
L 389.087475 120.518424 
L 389.810537 123.222918 
L 390.533598 121.689336 
L 391.256659 121.71006 
L 391.979721 121.513181 
L 392.702782 124.932656 
L 393.425843 123.02604 
L 394.148905 120.7982 
L 394.871966 123.419797 
L 395.595027 121.368112 
L 396.318089 118.539274 
L 397.764211 123.18147 
L 398.487273 122.694454 
L 398.487273 122.694454 
" clip-path="url(#pd3508896b2)" style="fill: none; stroke: #2ca02c; stroke-width: 1.5; stroke-linecap: square"/>
   </g>
   <g id="line2d_23">
    <path d="M 73.832727 294.472312 
L 74.555789 289.784522 
L 75.27885 283.383887 
L 76.001911 278.966546 
L 76.724973 277.0734 
L 77.448034 271.123513 
L 78.894157 248.916612 
L 79.617218 243.387424 
L 80.340279 244.739671 
L 81.063341 236.836538 
L 81.786402 244.739671 
L 82.509463 238.579435 
L 83.232525 226.92006 
L 83.955586 221.751472 
L 84.678647 221.450972 
L 85.401709 211.143845 
L 86.12477 216.883382 
L 86.847832 213.938489 
L 87.570893 209.551198 
L 89.017016 204.623009 
L 89.740077 212.255692 
L 90.463138 204.893458 
L 91.1862 200.355918 
L 91.909261 203.330862 
L 92.632322 198.312523 
L 93.355384 199.093821 
L 94.801506 198.643072 
L 95.524568 228.092008 
L 96.247629 218.626278 
L 96.97069 213.668039 
L 97.693752 214.870037 
L 99.139874 210.993595 
L 99.862936 207.838352 
L 100.585997 211.143845 
L 101.309059 205.614657 
L 102.03212 203.931861 
L 102.755181 199.81502 
L 103.478243 204.14221 
L 104.201304 202.910163 
L 104.924365 203.150562 
L 105.647427 194.315882 
L 106.370488 192.963635 
L 107.093549 195.397679 
L 107.816611 194.736581 
L 108.539672 187.434447 
L 109.262733 192.572985 
L 109.985795 186.683198 
L 110.708856 187.073848 
L 111.431917 192.873485 
L 112.154979 194.496181 
L 112.87804 189.748292 
L 113.601101 188.876844 
L 114.324163 189.207393 
L 115.047224 187.103897 
L 115.770285 180.793411 
L 116.493347 184.850152 
L 117.216408 182.596407 
L 117.93947 182.896907 
L 118.662531 182.506258 
L 120.108654 176.97707 
L 120.831715 174.332675 
L 121.554776 176.225821 
L 122.277838 182.265858 
L 123.000899 176.225821 
L 123.72396 173.070578 
L 124.447022 174.332675 
L 125.170083 172.619829 
L 125.893144 172.07893 
L 126.616206 172.709979 
L 127.339267 169.975435 
L 128.062328 172.37943 
L 128.78539 170.876933 
L 129.508451 171.958731 
L 130.231512 170.005485 
L 130.954574 171.297632 
L 131.677635 170.816833 
L 132.400696 172.07893 
L 133.123758 172.830179 
L 133.846819 168.683288 
L 134.569881 170.876933 
L 135.292942 169.735036 
L 136.016003 170.035535 
L 137.462126 169.134037 
L 138.185187 169.043887 
L 138.908249 190.739939 
L 139.63131 191.551288 
L 140.354371 186.0822 
L 141.077433 191.611388 
L 141.800494 185.511251 
L 142.523555 190.138941 
L 143.246617 187.344297 
L 143.969678 197.350925 
L 144.692739 186.923598 
L 145.415801 194.94693 
L 146.138862 191.220738 
L 146.861923 192.993685 
L 147.584985 191.791687 
L 148.308046 187.614746 
L 149.031108 198.282473 
L 149.754169 189.778342 
L 150.47723 185.240802 
L 151.923353 190.43944 
L 152.646414 190.108891 
L 153.369476 178.629816 
L 154.815598 187.434447 
L 155.53866 190.229091 
L 156.261721 185.601401 
L 156.984782 186.412749 
L 157.707844 191.010389 
L 158.430905 182.776707 
L 159.153966 181.845159 
L 159.877028 187.554646 
L 160.600089 184.008754 
L 161.32315 181.664859 
L 162.046212 193.955282 
L 162.769273 191.461138 
L 163.492334 187.133947 
L 164.215396 185.7817 
L 164.938457 187.073848 
L 165.661519 193.714883 
L 166.38458 180.432812 
L 167.107641 188.906893 
L 167.830703 177.908618 
L 168.553764 179.921963 
L 169.276825 180.973711 
L 169.999887 178.810116 
L 170.722948 177.728318 
L 171.446009 187.194047 
L 172.169071 189.718242 
L 172.892132 178.209117 
L 173.615193 176.105622 
L 174.338255 185.7817 
L 175.061316 183.497905 
L 175.784377 181.755009 
L 176.507439 183.828455 
L 177.2305 183.167356 
L 177.953561 174.392775 
L 178.676623 169.795135 
L 179.399684 176.91697 
L 180.122745 178.179067 
L 180.845807 174.152376 
L 181.568868 173.611477 
L 182.29193 173.911976 
L 183.014991 181.995409 
L 183.738052 184.369353 
L 184.461114 179.020465 
L 185.184175 177.848518 
L 185.907236 169.735036 
L 186.630298 169.464586 
L 187.353359 177.968717 
L 188.07642 173.280928 
L 188.799482 173.701627 
L 189.522543 169.043887 
L 190.245604 171.598131 
L 190.968666 173.280928 
L 191.691727 173.010478 
L 192.414788 173.881926 
L 193.13785 170.155735 
L 193.860911 172.07893 
L 194.583972 172.649879 
L 195.307034 170.245884 
L 196.030095 167.270941 
L 196.753157 170.095635 
L 197.476218 170.275934 
L 198.199279 170.756733 
L 198.922341 173.851876 
L 199.645402 169.494636 
L 200.368463 171.568081 
L 201.091525 168.803488 
L 201.814586 170.516334 
L 202.537647 167.000491 
L 203.260709 170.366084 
L 203.98377 165.047246 
L 204.706831 171.447882 
L 205.429893 163.634899 
L 206.152954 166.038894 
L 206.876015 167.030541 
L 207.599077 170.005485 
L 208.322138 168.202489 
L 209.045199 170.636534 
L 209.768261 167.78179 
L 210.491322 164.326047 
L 211.937445 167.240891 
L 212.660506 168.112339 
L 213.383568 164.175798 
L 214.106629 169.103987 
L 214.82969 167.75174 
L 215.552752 169.344386 
L 216.275813 167.962089 
L 216.998874 164.987146 
L 217.721936 165.858594 
L 218.444997 168.653238 
L 219.168058 163.965448 
L 219.89112 167.992139 
L 220.614181 167.300991 
L 221.337242 168.412838 
L 222.060304 164.686647 
L 222.783365 167.180791 
L 223.506426 167.030541 
L 224.229488 165.107346 
L 224.952549 164.356097 
L 225.67561 187.524597 
L 226.398672 177.698268 
L 227.121733 193.654783 
L 227.844794 194.526231 
L 228.567856 196.299177 
L 229.290917 191.310888 
L 230.013979 194.706531 
L 230.73704 191.401038 
L 231.460101 198.192323 
L 232.183163 198.582972 
L 232.906224 187.885196 
L 233.629285 191.310888 
L 234.352347 177.127319 
L 235.075408 186.953648 
L 235.798469 186.292549 
L 236.521531 189.357643 
L 237.244592 196.178978 
L 237.967653 190.70989 
L 238.690715 177.247519 
L 239.413776 191.851787 
L 240.136837 176.526321 
L 240.859899 184.159004 
L 241.58296 183.497905 
L 242.306021 186.0221 
L 243.029083 190.018741 
L 243.752144 181.785059 
L 244.475206 190.199041 
L 245.198267 176.61647 
L 245.921328 189.477842 
L 246.64439 192.212386 
L 247.367451 183.257506 
L 248.090512 188.756644 
L 248.813574 182.476208 
L 249.536635 191.130589 
L 250.259696 187.103897 
L 250.982758 184.369353 
L 251.705819 186.412749 
L 252.42888 191.761637 
L 253.151942 184.068854 
L 253.875003 191.881837 
L 254.598064 184.369353 
L 255.321126 189.117243 
L 256.044187 177.247519 
L 256.767248 184.489553 
L 257.49031 183.678205 
L 258.213371 187.795046 
L 258.936432 181.755009 
L 259.659494 177.487919 
L 260.382555 183.828455 
L 261.105617 173.371078 
L 261.828678 194.195682 
L 262.551739 188.185695 
L 263.274801 187.584696 
L 263.997862 181.54466 
L 264.720923 185.240802 
L 265.443985 190.800039 
L 266.167046 188.846794 
L 266.890107 179.140665 
L 267.613169 192.002037 
L 268.33623 180.102263 
L 269.059291 176.556371 
L 269.782353 193.083834 
L 270.505414 186.352649 
L 271.228475 182.626457 
L 271.951537 184.760003 
L 272.674598 175.955372 
L 273.397659 188.876844 
L 274.120721 169.644886 
L 274.843782 177.758368 
L 275.566843 181.24416 
L 276.289905 182.536307 
L 277.736028 174.753375 
L 278.459089 188.696544 
L 279.18215 175.835172 
L 279.905212 174.963724 
L 280.628273 181.15401 
L 281.351334 179.381064 
L 282.074396 178.689916 
L 282.797457 182.325958 
L 283.520518 177.487919 
L 284.24358 183.888554 
L 284.966641 183.407756 
L 285.689702 189.267493 
L 286.412764 176.73667 
L 287.135825 185.9019 
L 287.858886 170.666583 
L 288.581948 167.180791 
L 289.305009 176.015472 
L 290.02807 183.047156 
L 290.751132 169.885285 
L 291.474193 177.367719 
L 292.197255 176.466221 
L 292.920316 168.352739 
L 293.643377 186.1423 
L 294.366439 177.758368 
L 295.0895 182.115608 
L 295.812561 188.095545 
L 296.535623 181.093911 
L 297.258684 183.558005 
L 297.981745 170.095635 
L 298.704807 179.591414 
L 299.427868 183.738305 
L 300.150929 166.068944 
L 300.873991 191.731587 
L 301.597052 176.285921 
L 302.320113 188.576344 
L 303.043175 189.808392 
L 303.766236 172.28928 
L 304.489297 174.603125 
L 305.93542 166.850242 
L 306.658481 179.711614 
L 307.381543 173.341028 
L 308.104604 171.057233 
L 308.827666 175.684922 
L 309.550727 174.482925 
L 310.273788 171.117332 
L 310.99685 164.596497 
L 311.719911 160.810205 
L 312.442972 179.591414 
L 313.166034 165.618195 
L 313.889095 177.668218 
L 314.612156 161.501354 
L 315.335218 177.908618 
L 316.058279 175.534673 
L 316.78134 169.584786 
L 317.504402 171.507982 
L 318.227463 171.538032 
L 318.950524 160.509706 
L 319.673586 167.992139 
L 320.396647 161.050605 
L 321.119708 165.858594 
L 321.84277 169.795135 
L 322.565831 164.836896 
L 323.288892 166.459593 
L 324.011954 173.701627 
L 324.735015 175.113974 
L 325.458077 174.963724 
L 326.181138 165.347745 
L 327.627261 175.504623 
L 328.350322 167.78179 
L 329.073383 167.932039 
L 329.796445 163.0339 
L 330.519506 174.242526 
L 331.242567 160.690005 
L 331.965629 170.005485 
L 332.68869 168.022189 
L 333.411751 164.776796 
L 334.134813 169.644886 
L 334.857874 171.958731 
L 335.580935 169.224187 
L 336.303997 169.043887 
L 337.027058 170.576434 
L 337.750119 169.314336 
L 338.473181 162.883651 
L 339.196242 164.265947 
L 339.919304 166.189143 
L 340.642365 170.486284 
L 341.365426 155.431267 
L 342.088488 160.269306 
L 342.811549 166.038894 
L 344.257672 160.690005 
L 344.980733 170.967083 
L 345.703794 161.321054 
L 346.426856 166.519693 
L 347.149917 162.192502 
L 347.872978 169.855235 
L 348.59604 166.880292 
L 349.319101 159.608208 
L 350.042162 165.828544 
L 350.765224 160.840255 
L 351.488285 161.140754 
L 352.211346 156.633264 
L 352.934408 166.068944 
L 353.657469 166.489643 
L 354.38053 163.094 
L 355.103592 167.270941 
L 355.826653 169.043887 
L 356.549715 163.24425 
L 357.272776 163.24425 
L 357.995837 161.080654 
L 358.718899 167.63154 
L 359.44196 170.426184 
L 360.165021 156.603214 
L 360.888083 170.005485 
L 361.611144 164.085648 
L 362.334205 167.300991 
L 363.057267 168.653238 
L 363.780328 161.561453 
L 364.503389 165.648244 
L 365.226451 163.544749 
L 365.949512 165.137396 
L 366.672573 162.9738 
L 368.118696 160.870305 
L 368.841757 163.454599 
L 369.564819 159.698357 
L 370.28788 169.254237 
L 371.010941 158.34611 
L 371.734003 156.422915 
L 372.457064 156.002216 
L 373.180126 166.459593 
L 374.626248 162.733401 
L 375.34931 166.519693 
L 376.072371 161.861953 
L 376.795432 160.539756 
L 377.518494 153.297722 
L 378.241555 159.608208 
L 378.964616 160.389506 
L 379.687678 154.289369 
L 380.410739 155.281017 
L 381.1338 155.040618 
L 381.856862 161.922053 
L 382.579923 160.179156 
L 383.302984 159.367808 
L 384.026046 161.140754 
L 384.749107 166.159093 
L 385.472168 157.594862 
L 386.918291 157.294363 
L 387.641353 164.235898 
L 388.364414 158.70671 
L 389.087475 163.484649 
L 389.810537 165.618195 
L 390.533598 164.145748 
L 391.256659 161.801853 
L 391.979721 159.968807 
L 392.702782 159.638258 
L 393.425843 164.626547 
L 394.148905 160.449606 
L 394.871966 158.225911 
L 395.595027 156.783514 
L 396.318089 166.038894 
L 397.04115 155.761816 
L 398.487273 145.214289 
L 398.487273 145.214289 
" clip-path="url(#pd3508896b2)" style="fill: none; stroke: #d62728; stroke-width: 1.5; stroke-linecap: square"/>
   </g>
   <g id="line2d_24">
    <path d="M 350.765224 71.171251 
L 351.488285 71.95255 
L 352.211346 70.810652 
L 352.934408 72.643698 
L 353.657469 72.433349 
L 354.38053 71.321501 
L 355.103592 74.626994 
M 356.549715 74.236345 
L 357.272776 73.965895 
L 357.995837 77.601937 
L 358.718899 72.914148 
L 359.44196 75.768891 
L 360.165021 74.657044 
L 360.888083 76.24969 
L 361.611144 73.364897 
L 362.334205 75.197943 
L 363.057267 76.640339 
L 363.780328 77.000939 
L 364.503389 75.919141 
L 365.226451 75.167893 
L 365.949512 76.730489 
L 366.672573 76.910789 
L 367.395635 75.438342 
L 368.118696 77.962537 
L 368.841757 74.687094 
L 369.564819 82.890726 
L 371.010941 77.361538 
L 371.734003 78.623635 
L 372.457064 82.860676 
L 373.180126 79.434983 
L 374.626248 78.894085 
L 375.34931 76.069391 
L 376.072371 80.005932 
L 376.795432 78.894085 
L 377.518494 78.022636 
L 378.241555 79.404933 
L 378.964616 82.890726 
L 379.687678 79.194584 
L 380.410739 81.05768 
L 381.1338 81.808928 
L 381.856862 85.835619 
L 382.579923 81.05768 
L 383.302984 81.478379 
L 384.026046 83.401575 
L 384.749107 83.071025 
L 385.472168 83.040975 
L 386.19523 86.707067 
L 386.918291 88.690363 
L 387.641353 85.56517 
L 388.364414 82.950826 
L 389.087475 86.767167 
L 389.810537 83.101075 
L 390.533598 91.034258 
L 391.979721 86.286368 
L 392.702782 89.561811 
L 393.425843 86.887367 
L 394.148905 83.521774 
L 394.871966 88.900713 
L 395.595027 86.376518 
L 396.318089 91.004208 
L 397.04115 88.329764 
L 397.764211 88.930763 
L 398.487273 95.000849 
L 398.487273 95.000849 
" clip-path="url(#pd3508896b2)" style="fill: none; stroke: #9467bd; stroke-width: 1.5; stroke-linecap: square"/>
   </g>
   <g id="line2d_25">
    <path d="M 350.765224 120.580597 
L 351.488285 123.347263 
L 352.211346 118.705066 
L 352.934408 119.803443 
L 353.657469 124.383468 
L 354.38053 124.373106 
L 355.103592 126.67348 
L 355.826653 124.932656 
L 356.549715 125.274604 
L 357.272776 124.559622 
L 357.995837 131.12916 
L 358.718899 118.767239 
L 359.44196 122.808437 
L 360.165021 124.259123 
L 361.611144 121.326664 
L 362.334205 124.642519 
L 363.057267 125.336776 
L 363.780328 124.49745 
L 364.503389 126.683842 
L 365.226451 122.704816 
L 365.949512 126.16574 
L 366.672573 125.885964 
L 367.395635 125.316052 
L 368.118696 125.046639 
L 368.841757 126.445515 
L 369.564819 132.341519 
L 370.28788 133.118673 
L 371.010941 124.860122 
L 372.457064 132.54876 
L 373.180126 130.352006 
L 373.903187 123.595952 
L 374.626248 129.854628 
L 375.34931 126.973979 
L 376.072371 128.435028 
L 376.795432 126.352256 
L 377.518494 125.502569 
L 378.241555 125.471482 
L 378.964616 132.797449 
L 379.687678 126.808186 
L 380.410739 132.289709 
L 381.1338 134.662618 
L 381.856862 141.097448 
L 382.579923 129.025664 
L 383.302984 132.766363 
L 384.026046 131.046263 
L 384.749107 136.95263 
L 385.472168 133.926912 
L 386.19523 139.253004 
L 386.918291 136.569234 
L 387.641353 132.320795 
L 388.364414 133.91655 
L 389.087475 136.403441 
L 389.810537 133.502068 
L 390.533598 145.936524 
L 391.256659 139.004315 
L 391.979721 133.502068 
L 392.702782 140.828035 
L 393.425843 134.921669 
L 394.148905 131.781969 
L 394.871966 139.18047 
L 396.318089 136.071856 
L 397.04115 140.610432 
L 397.764211 143.418547 
L 398.487273 149.791205 
L 398.487273 149.791205 
" clip-path="url(#pd3508896b2)" style="fill: none; stroke: #8c564b; stroke-width: 1.5; stroke-linecap: square"/>
   </g>
   <g id="line2d_26">
    <path d="M 350.765224 161.200854 
L 351.488285 163.725049 
L 352.211346 164.175798 
L 353.657469 173.250878 
L 354.38053 172.860229 
L 355.103592 171.868581 
L 356.549715 181.785059 
L 357.272776 166.699992 
L 357.995837 187.704896 
L 358.718899 163.2142 
L 359.44196 181.003761 
L 360.165021 172.37943 
L 360.888083 184.459503 
L 361.611144 175.324323 
L 362.334205 178.689916 
L 363.057267 178.750016 
L 363.780328 190.52959 
L 364.503389 173.911976 
L 365.226451 181.27421 
L 365.949512 190.61974 
L 366.672573 183.588055 
L 367.395635 184.429453 
L 368.118696 183.347656 
L 368.841757 173.851876 
L 369.564819 200.836717 
L 370.28788 200.926867 
L 371.010941 185.391051 
L 371.734003 181.664859 
L 372.457064 197.921874 
L 373.180126 188.576344 
L 373.903187 196.810026 
L 374.626248 193.444434 
L 375.34931 197.471125 
L 376.072371 189.207393 
L 376.795432 188.426095 
L 377.518494 184.729953 
L 378.241555 204.02201 
L 378.964616 205.915156 
L 379.687678 193.895183 
L 380.410739 201.407666 
L 381.1338 204.472759 
L 381.856862 219.377527 
L 382.579923 207.237353 
L 383.302984 215.861684 
L 384.026046 206.726504 
L 384.749107 202.789963 
L 385.472168 200.626368 
L 386.19523 207.087104 
L 386.918291 229.113705 
L 387.641353 222.32242 
L 388.364414 213.848339 
L 389.087475 212.466042 
L 389.810537 200.596318 
L 390.533598 223.854967 
L 391.256659 228.422557 
L 391.979721 226.379161 
L 392.702782 216.162184 
L 393.425843 201.948565 
L 394.148905 197.080476 
L 394.871966 214.629637 
L 395.595027 206.426005 
L 396.318089 231.5778 
L 397.04115 216.823282 
L 397.764211 218.626278 
L 398.487273 233.771445 
L 398.487273 233.771445 
" clip-path="url(#pd3508896b2)" style="fill: none; stroke: #e377c2; stroke-width: 1.5; stroke-linecap: square"/>
   </g>
   <g id="patch_3">
    <path d="M 57.6 307.584 
L 57.6 41.472 
" style="fill: none; stroke: #000000; stroke-width: 0.8; stroke-linejoin: miter; stroke-linecap: square"/>
   </g>
   <g id="patch_4">
    <path d="M 414.72 307.584 
L 414.72 41.472 
" style="fill: none; stroke: #000000; stroke-width: 0.8; stroke-linejoin: miter; stroke-linecap: square"/>
   </g>
   <g id="patch_5">
    <path d="M 57.6 307.584 
L 414.72 307.584 
" style="fill: none; stroke: #000000; stroke-width: 0.8; stroke-linejoin: miter; stroke-linecap: square"/>
   </g>
   <g id="patch_6">
    <path d="M 57.6 41.472 
L 414.72 41.472 
" style="fill: none; stroke: #000000; stroke-width: 0.8; stroke-linejoin: miter; stroke-linecap: square"/>
   </g>
   <g id="text_22">
    <!-- Learning Curves -->
    <g transform="translate(187.37625 35.472) scale(0.12 -0.12)">
     <defs>
      <path id="DejaVuSans-4c" d="M 628 4666 
L 1259 4666 
L 1259 531 
L 3531 531 
L 3531 0 
L 628 0 
L 628 4666 
z
" transform="scale(0.015625)"/>
      <path id="DejaVuSans-65" d="M 3597 1894 
L 3597 1613 
L 953 1613 
Q 991 1019 1311 708 
Q 1631 397 2203 397 
Q 2534 397 2845 478 
Q 3156 559 3463 722 
L 3463 178 
Q 3153 47 2828 -22 
Q 2503 -91 2169 -91 
Q 1331 -91 842 396 
Q 353 884 353 1716 
Q 353 2575 817 3079 
Q 1281 3584 2069 3584 
Q 2775 3584 3186 3129 
Q 3597 2675 3597 1894 
z
M 3022 2063 
Q 3016 2534 2758 2815 
Q 2500 3097 2075 3097 
Q 1594 3097 1305 2825 
Q 1016 2553 972 2059 
L 3022 2063 
z
" transform="scale(0.015625)"/>
      <path id="DejaVuSans-6e" d="M 3513 2113 
L 3513 0 
L 2938 0 
L 2938 2094 
Q 2938 2591 2744 2837 
Q 2550 3084 2163 3084 
Q 1697 3084 1428 2787 
Q 1159 2491 1159 1978 
L 1159 0 
L 581 0 
L 581 3500 
L 1159 3500 
L 1159 2956 
Q 1366 3272 1645 3428 
Q 1925 3584 2291 3584 
Q 2894 3584 3203 3211 
Q 3513 2838 3513 2113 
z
" transform="scale(0.015625)"/>
      <path id="DejaVuSans-69" d="M 603 3500 
L 1178 3500 
L 1178 0 
L 603 0 
L 603 3500 
z
M 603 4863 
L 1178 4863 
L 1178 4134 
L 603 4134 
L 603 4863 
z
" transform="scale(0.015625)"/>
      <path id="DejaVuSans-67" d="M 2906 1791 
Q 2906 2416 2648 2759 
Q 2391 3103 1925 3103 
Q 1463 3103 1205 2759 
Q 947 2416 947 1791 
Q 947 1169 1205 825 
Q 1463 481 1925 481 
Q 2391 481 2648 825 
Q 2906 1169 2906 1791 
z
M 3481 434 
Q 3481 -459 3084 -895 
Q 2688 -1331 1869 -1331 
Q 1566 -1331 1297 -1286 
Q 1028 -1241 775 -1147 
L 775 -588 
Q 1028 -725 1275 -790 
Q 1522 -856 1778 -856 
Q 2344 -856 2625 -561 
Q 2906 -266 2906 331 
L 2906 616 
Q 2728 306 2450 153 
Q 2172 0 1784 0 
Q 1141 0 747 490 
Q 353 981 353 1791 
Q 353 2603 747 3093 
Q 1141 3584 1784 3584 
Q 2172 3584 2450 3431 
Q 2728 3278 2906 2969 
L 2906 3500 
L 3481 3500 
L 3481 434 
z
" transform="scale(0.015625)"/>
      <path id="DejaVuSans-20" transform="scale(0.015625)"/>
      <path id="DejaVuSans-43" d="M 4122 4306 
L 4122 3641 
Q 3803 3938 3442 4084 
Q 3081 4231 2675 4231 
Q 1875 4231 1450 3742 
Q 1025 3253 1025 2328 
Q 1025 1406 1450 917 
Q 1875 428 2675 428 
Q 3081 428 3442 575 
Q 3803 722 4122 1019 
L 4122 359 
Q 3791 134 3420 21 
Q 3050 -91 2638 -91 
Q 1578 -91 968 557 
Q 359 1206 359 2328 
Q 359 3453 968 4101 
Q 1578 4750 2638 4750 
Q 3056 4750 3426 4639 
Q 3797 4528 4122 4306 
z
" transform="scale(0.015625)"/>
      <path id="DejaVuSans-76" d="M 191 3500 
L 800 3500 
L 1894 563 
L 2988 3500 
L 3597 3500 
L 2284 0 
L 1503 0 
L 191 3500 
z
" transform="scale(0.015625)"/>
     </defs>
     <use xlink:href="#DejaVuSans-4c"/>
     <use xlink:href="#DejaVuSans-65" x="53.962891"/>
     <use xlink:href="#DejaVuSans-61" x="115.486328"/>
     <use xlink:href="#DejaVuSans-72" x="176.765625"/>
     <use xlink:href="#DejaVuSans-6e" x="216.128906"/>
     <use xlink:href="#DejaVuSans-69" x="279.507812"/>
     <use xlink:href="#DejaVuSans-6e" x="307.291016"/>
     <use xlink:href="#DejaVuSans-67" x="370.669922"/>
     <use xlink:href="#DejaVuSans-20" x="434.146484"/>
     <use xlink:href="#DejaVuSans-43" x="465.933594"/>
     <use xlink:href="#DejaVuSans-75" x="535.757812"/>
     <use xlink:href="#DejaVuSans-72" x="599.136719"/>
     <use xlink:href="#DejaVuSans-76" x="640.25"/>
     <use xlink:href="#DejaVuSans-65" x="699.429688"/>
     <use xlink:href="#DejaVuSans-73" x="760.953125"/>
    </g>
   </g>
   <g id="legend_1">
    <g id="patch_7">
     <path d="M 128.445937 302.584 
L 343.874063 302.584 
Q 345.874063 302.584 345.874063 300.584 
L 345.874063 198.837125 
Q 345.874063 196.837125 343.874063 196.837125 
L 128.445937 196.837125 
Q 126.445937 196.837125 126.445937 198.837125 
L 126.445937 300.584 
Q 126.445937 302.584 128.445937 302.584 
z
" style="fill: #ffffff; opacity: 0.8; stroke: #cccccc; stroke-linejoin: miter"/>
    </g>
    <g id="line2d_27">
     <path d="M 130.445937 204.935563 
L 140.445937 204.935563 
L 150.445937 204.935563 
" style="fill: none; stroke: #1f77b4; stroke-width: 1.5; stroke-linecap: square"/>
    </g>
    <g id="text_23">
     <!-- Train Accuracy -->
     <g transform="translate(158.445937 208.435563) scale(0.1 -0.1)">
      <defs>
       <path id="DejaVuSans-54" d="M -19 4666 
L 3928 4666 
L 3928 4134 
L 2272 4134 
L 2272 0 
L 1638 0 
L 1638 4134 
L -19 4134 
L -19 4666 
z
" transform="scale(0.015625)"/>
      </defs>
      <use xlink:href="#DejaVuSans-54"/>
      <use xlink:href="#DejaVuSans-72" x="46.333984"/>
      <use xlink:href="#DejaVuSans-61" x="87.447266"/>
      <use xlink:href="#DejaVuSans-69" x="148.726562"/>
      <use xlink:href="#DejaVuSans-6e" x="176.509766"/>
      <use xlink:href="#DejaVuSans-20" x="239.888672"/>
      <use xlink:href="#DejaVuSans-41" x="271.675781"/>
      <use xlink:href="#DejaVuSans-63" x="338.333984"/>
      <use xlink:href="#DejaVuSans-63" x="393.314453"/>
      <use xlink:href="#DejaVuSans-75" x="448.294922"/>
      <use xlink:href="#DejaVuSans-72" x="511.673828"/>
      <use xlink:href="#DejaVuSans-61" x="552.787109"/>
      <use xlink:href="#DejaVuSans-63" x="614.066406"/>
      <use xlink:href="#DejaVuSans-79" x="669.046875"/>
     </g>
    </g>
    <g id="line2d_28">
     <path d="M 130.445937 219.613688 
L 140.445937 219.613688 
L 150.445937 219.613688 
" style="fill: none; stroke: #ff7f0e; stroke-width: 1.5; stroke-linecap: square"/>
    </g>
    <g id="text_24">
     <!-- Validation Accuracy -->
     <g transform="translate(158.445937 223.113688) scale(0.1 -0.1)">
      <defs>
       <path id="DejaVuSans-56" d="M 1831 0 
L 50 4666 
L 709 4666 
L 2188 738 
L 3669 4666 
L 4325 4666 
L 2547 0 
L 1831 0 
z
" transform="scale(0.015625)"/>
       <path id="DejaVuSans-6c" d="M 603 4863 
L 1178 4863 
L 1178 0 
L 603 0 
L 603 4863 
z
" transform="scale(0.015625)"/>
       <path id="DejaVuSans-64" d="M 2906 2969 
L 2906 4863 
L 3481 4863 
L 3481 0 
L 2906 0 
L 2906 525 
Q 2725 213 2448 61 
Q 2172 -91 1784 -91 
Q 1150 -91 751 415 
Q 353 922 353 1747 
Q 353 2572 751 3078 
Q 1150 3584 1784 3584 
Q 2172 3584 2448 3432 
Q 2725 3281 2906 2969 
z
M 947 1747 
Q 947 1113 1208 752 
Q 1469 391 1925 391 
Q 2381 391 2643 752 
Q 2906 1113 2906 1747 
Q 2906 2381 2643 2742 
Q 2381 3103 1925 3103 
Q 1469 3103 1208 2742 
Q 947 2381 947 1747 
z
" transform="scale(0.015625)"/>
       <path id="DejaVuSans-74" d="M 1172 4494 
L 1172 3500 
L 2356 3500 
L 2356 3053 
L 1172 3053 
L 1172 1153 
Q 1172 725 1289 603 
Q 1406 481 1766 481 
L 2356 481 
L 2356 0 
L 1766 0 
Q 1100 0 847 248 
Q 594 497 594 1153 
L 594 3053 
L 172 3053 
L 172 3500 
L 594 3500 
L 594 4494 
L 1172 4494 
z
" transform="scale(0.015625)"/>
      </defs>
      <use xlink:href="#DejaVuSans-56"/>
      <use xlink:href="#DejaVuSans-61" x="60.658203"/>
      <use xlink:href="#DejaVuSans-6c" x="121.9375"/>
      <use xlink:href="#DejaVuSans-69" x="149.720703"/>
      <use xlink:href="#DejaVuSans-64" x="177.503906"/>
      <use xlink:href="#DejaVuSans-61" x="240.980469"/>
      <use xlink:href="#DejaVuSans-74" x="302.259766"/>
      <use xlink:href="#DejaVuSans-69" x="341.46875"/>
      <use xlink:href="#DejaVuSans-6f" x="369.251953"/>
      <use xlink:href="#DejaVuSans-6e" x="430.433594"/>
      <use xlink:href="#DejaVuSans-20" x="493.8125"/>
      <use xlink:href="#DejaVuSans-41" x="525.599609"/>
      <use xlink:href="#DejaVuSans-63" x="592.257812"/>
      <use xlink:href="#DejaVuSans-63" x="647.238281"/>
      <use xlink:href="#DejaVuSans-75" x="702.21875"/>
      <use xlink:href="#DejaVuSans-72" x="765.597656"/>
      <use xlink:href="#DejaVuSans-61" x="806.710938"/>
      <use xlink:href="#DejaVuSans-63" x="867.990234"/>
      <use xlink:href="#DejaVuSans-79" x="922.970703"/>
     </g>
    </g>
    <g id="line2d_29">
     <path d="M 130.445937 234.291812 
L 140.445937 234.291812 
L 150.445937 234.291812 
" style="fill: none; stroke: #2ca02c; stroke-width: 1.5; stroke-linecap: square"/>
    </g>
    <g id="text_25">
     <!-- Robust Validation Accuracy -->
     <g transform="translate(158.445937 237.791812) scale(0.1 -0.1)">
      <defs>
       <path id="DejaVuSans-52" d="M 2841 2188 
Q 3044 2119 3236 1894 
Q 3428 1669 3622 1275 
L 4263 0 
L 3584 0 
L 2988 1197 
Q 2756 1666 2539 1819 
Q 2322 1972 1947 1972 
L 1259 1972 
L 1259 0 
L 628 0 
L 628 4666 
L 2053 4666 
Q 2853 4666 3247 4331 
Q 3641 3997 3641 3322 
Q 3641 2881 3436 2590 
Q 3231 2300 2841 2188 
z
M 1259 4147 
L 1259 2491 
L 2053 2491 
Q 2509 2491 2742 2702 
Q 2975 2913 2975 3322 
Q 2975 3731 2742 3939 
Q 2509 4147 2053 4147 
L 1259 4147 
z
" transform="scale(0.015625)"/>
       <path id="DejaVuSans-62" d="M 3116 1747 
Q 3116 2381 2855 2742 
Q 2594 3103 2138 3103 
Q 1681 3103 1420 2742 
Q 1159 2381 1159 1747 
Q 1159 1113 1420 752 
Q 1681 391 2138 391 
Q 2594 391 2855 752 
Q 3116 1113 3116 1747 
z
M 1159 2969 
Q 1341 3281 1617 3432 
Q 1894 3584 2278 3584 
Q 2916 3584 3314 3078 
Q 3713 2572 3713 1747 
Q 3713 922 3314 415 
Q 2916 -91 2278 -91 
Q 1894 -91 1617 61 
Q 1341 213 1159 525 
L 1159 0 
L 581 0 
L 581 4863 
L 1159 4863 
L 1159 2969 
z
" transform="scale(0.015625)"/>
      </defs>
      <use xlink:href="#DejaVuSans-52"/>
      <use xlink:href="#DejaVuSans-6f" x="64.982422"/>
      <use xlink:href="#DejaVuSans-62" x="126.164062"/>
      <use xlink:href="#DejaVuSans-75" x="189.640625"/>
      <use xlink:href="#DejaVuSans-73" x="253.019531"/>
      <use xlink:href="#DejaVuSans-74" x="305.119141"/>
      <use xlink:href="#DejaVuSans-20" x="344.328125"/>
      <use xlink:href="#DejaVuSans-56" x="376.115234"/>
      <use xlink:href="#DejaVuSans-61" x="436.773438"/>
      <use xlink:href="#DejaVuSans-6c" x="498.052734"/>
      <use xlink:href="#DejaVuSans-69" x="525.835938"/>
      <use xlink:href="#DejaVuSans-64" x="553.619141"/>
      <use xlink:href="#DejaVuSans-61" x="617.095703"/>
      <use xlink:href="#DejaVuSans-74" x="678.375"/>
      <use xlink:href="#DejaVuSans-69" x="717.583984"/>
      <use xlink:href="#DejaVuSans-6f" x="745.367188"/>
      <use xlink:href="#DejaVuSans-6e" x="806.548828"/>
      <use xlink:href="#DejaVuSans-20" x="869.927734"/>
      <use xlink:href="#DejaVuSans-41" x="901.714844"/>
      <use xlink:href="#DejaVuSans-63" x="968.373047"/>
      <use xlink:href="#DejaVuSans-63" x="1023.353516"/>
      <use xlink:href="#DejaVuSans-75" x="1078.333984"/>
      <use xlink:href="#DejaVuSans-72" x="1141.712891"/>
      <use xlink:href="#DejaVuSans-61" x="1182.826172"/>
      <use xlink:href="#DejaVuSans-63" x="1244.105469"/>
      <use xlink:href="#DejaVuSans-79" x="1299.085938"/>
     </g>
    </g>
    <g id="line2d_30">
     <path d="M 130.445937 248.969938 
L 140.445937 248.969938 
L 150.445937 248.969938 
" style="fill: none; stroke: #d62728; stroke-width: 1.5; stroke-linecap: square"/>
    </g>
    <g id="text_26">
     <!-- Adversarial Validation Accuracy -->
     <g transform="translate(158.445937 252.469938) scale(0.1 -0.1)">
      <use xlink:href="#DejaVuSans-41"/>
      <use xlink:href="#DejaVuSans-64" x="66.658203"/>
      <use xlink:href="#DejaVuSans-76" x="130.134766"/>
      <use xlink:href="#DejaVuSans-65" x="189.314453"/>
      <use xlink:href="#DejaVuSans-72" x="250.837891"/>
      <use xlink:href="#DejaVuSans-73" x="291.951172"/>
      <use xlink:href="#DejaVuSans-61" x="344.050781"/>
      <use xlink:href="#DejaVuSans-72" x="405.330078"/>
      <use xlink:href="#DejaVuSans-69" x="446.443359"/>
      <use xlink:href="#DejaVuSans-61" x="474.226562"/>
      <use xlink:href="#DejaVuSans-6c" x="535.505859"/>
      <use xlink:href="#DejaVuSans-20" x="563.289062"/>
      <use xlink:href="#DejaVuSans-56" x="595.076172"/>
      <use xlink:href="#DejaVuSans-61" x="655.734375"/>
      <use xlink:href="#DejaVuSans-6c" x="717.013672"/>
      <use xlink:href="#DejaVuSans-69" x="744.796875"/>
      <use xlink:href="#DejaVuSans-64" x="772.580078"/>
      <use xlink:href="#DejaVuSans-61" x="836.056641"/>
      <use xlink:href="#DejaVuSans-74" x="897.335938"/>
      <use xlink:href="#DejaVuSans-69" x="936.544922"/>
      <use xlink:href="#DejaVuSans-6f" x="964.328125"/>
      <use xlink:href="#DejaVuSans-6e" x="1025.509766"/>
      <use xlink:href="#DejaVuSans-20" x="1088.888672"/>
      <use xlink:href="#DejaVuSans-41" x="1120.675781"/>
      <use xlink:href="#DejaVuSans-63" x="1187.333984"/>
      <use xlink:href="#DejaVuSans-63" x="1242.314453"/>
      <use xlink:href="#DejaVuSans-75" x="1297.294922"/>
      <use xlink:href="#DejaVuSans-72" x="1360.673828"/>
      <use xlink:href="#DejaVuSans-61" x="1401.787109"/>
      <use xlink:href="#DejaVuSans-63" x="1463.066406"/>
      <use xlink:href="#DejaVuSans-79" x="1518.046875"/>
     </g>
    </g>
    <g id="line2d_31">
     <path d="M 130.445937 263.648063 
L 140.445937 263.648063 
L 150.445937 263.648063 
" style="fill: none; stroke: #9467bd; stroke-width: 1.5; stroke-linecap: square"/>
    </g>
    <g id="text_27">
     <!-- SWA Validation Accuracy -->
     <g transform="translate(158.445937 267.148063) scale(0.1 -0.1)">
      <defs>
       <path id="DejaVuSans-53" d="M 3425 4513 
L 3425 3897 
Q 3066 4069 2747 4153 
Q 2428 4238 2131 4238 
Q 1616 4238 1336 4038 
Q 1056 3838 1056 3469 
Q 1056 3159 1242 3001 
Q 1428 2844 1947 2747 
L 2328 2669 
Q 3034 2534 3370 2195 
Q 3706 1856 3706 1288 
Q 3706 609 3251 259 
Q 2797 -91 1919 -91 
Q 1588 -91 1214 -16 
Q 841 59 441 206 
L 441 856 
Q 825 641 1194 531 
Q 1563 422 1919 422 
Q 2459 422 2753 634 
Q 3047 847 3047 1241 
Q 3047 1584 2836 1778 
Q 2625 1972 2144 2069 
L 1759 2144 
Q 1053 2284 737 2584 
Q 422 2884 422 3419 
Q 422 4038 858 4394 
Q 1294 4750 2059 4750 
Q 2388 4750 2728 4690 
Q 3069 4631 3425 4513 
z
" transform="scale(0.015625)"/>
       <path id="DejaVuSans-57" d="M 213 4666 
L 850 4666 
L 1831 722 
L 2809 4666 
L 3519 4666 
L 4500 722 
L 5478 4666 
L 6119 4666 
L 4947 0 
L 4153 0 
L 3169 4050 
L 2175 0 
L 1381 0 
L 213 4666 
z
" transform="scale(0.015625)"/>
      </defs>
      <use xlink:href="#DejaVuSans-53"/>
      <use xlink:href="#DejaVuSans-57" x="63.476562"/>
      <use xlink:href="#DejaVuSans-41" x="156.853516"/>
      <use xlink:href="#DejaVuSans-20" x="225.261719"/>
      <use xlink:href="#DejaVuSans-56" x="257.048828"/>
      <use xlink:href="#DejaVuSans-61" x="317.707031"/>
      <use xlink:href="#DejaVuSans-6c" x="378.986328"/>
      <use xlink:href="#DejaVuSans-69" x="406.769531"/>
      <use xlink:href="#DejaVuSans-64" x="434.552734"/>
      <use xlink:href="#DejaVuSans-61" x="498.029297"/>
      <use xlink:href="#DejaVuSans-74" x="559.308594"/>
      <use xlink:href="#DejaVuSans-69" x="598.517578"/>
      <use xlink:href="#DejaVuSans-6f" x="626.300781"/>
      <use xlink:href="#DejaVuSans-6e" x="687.482422"/>
      <use xlink:href="#DejaVuSans-20" x="750.861328"/>
      <use xlink:href="#DejaVuSans-41" x="782.648438"/>
      <use xlink:href="#DejaVuSans-63" x="849.306641"/>
      <use xlink:href="#DejaVuSans-63" x="904.287109"/>
      <use xlink:href="#DejaVuSans-75" x="959.267578"/>
      <use xlink:href="#DejaVuSans-72" x="1022.646484"/>
      <use xlink:href="#DejaVuSans-61" x="1063.759766"/>
      <use xlink:href="#DejaVuSans-63" x="1125.039062"/>
      <use xlink:href="#DejaVuSans-79" x="1180.019531"/>
     </g>
    </g>
    <g id="line2d_32">
     <path d="M 130.445937 278.326188 
L 140.445937 278.326188 
L 150.445937 278.326188 
" style="fill: none; stroke: #8c564b; stroke-width: 1.5; stroke-linecap: square"/>
    </g>
    <g id="text_28">
     <!-- SWA Robust Validation Accuracy -->
     <g transform="translate(158.445937 281.826188) scale(0.1 -0.1)">
      <use xlink:href="#DejaVuSans-53"/>
      <use xlink:href="#DejaVuSans-57" x="63.476562"/>
      <use xlink:href="#DejaVuSans-41" x="156.853516"/>
      <use xlink:href="#DejaVuSans-20" x="225.261719"/>
      <use xlink:href="#DejaVuSans-52" x="257.048828"/>
      <use xlink:href="#DejaVuSans-6f" x="322.03125"/>
      <use xlink:href="#DejaVuSans-62" x="383.212891"/>
      <use xlink:href="#DejaVuSans-75" x="446.689453"/>
      <use xlink:href="#DejaVuSans-73" x="510.068359"/>
      <use xlink:href="#DejaVuSans-74" x="562.167969"/>
      <use xlink:href="#DejaVuSans-20" x="601.376953"/>
      <use xlink:href="#DejaVuSans-56" x="633.164062"/>
      <use xlink:href="#DejaVuSans-61" x="693.822266"/>
      <use xlink:href="#DejaVuSans-6c" x="755.101562"/>
      <use xlink:href="#DejaVuSans-69" x="782.884766"/>
      <use xlink:href="#DejaVuSans-64" x="810.667969"/>
      <use xlink:href="#DejaVuSans-61" x="874.144531"/>
      <use xlink:href="#DejaVuSans-74" x="935.423828"/>
      <use xlink:href="#DejaVuSans-69" x="974.632812"/>
      <use xlink:href="#DejaVuSans-6f" x="1002.416016"/>
      <use xlink:href="#DejaVuSans-6e" x="1063.597656"/>
      <use xlink:href="#DejaVuSans-20" x="1126.976562"/>
      <use xlink:href="#DejaVuSans-41" x="1158.763672"/>
      <use xlink:href="#DejaVuSans-63" x="1225.421875"/>
      <use xlink:href="#DejaVuSans-63" x="1280.402344"/>
      <use xlink:href="#DejaVuSans-75" x="1335.382812"/>
      <use xlink:href="#DejaVuSans-72" x="1398.761719"/>
      <use xlink:href="#DejaVuSans-61" x="1439.875"/>
      <use xlink:href="#DejaVuSans-63" x="1501.154297"/>
      <use xlink:href="#DejaVuSans-79" x="1556.134766"/>
     </g>
    </g>
    <g id="line2d_33">
     <path d="M 130.445937 293.004312 
L 140.445937 293.004312 
L 150.445937 293.004312 
" style="fill: none; stroke: #e377c2; stroke-width: 1.5; stroke-linecap: square"/>
    </g>
    <g id="text_29">
     <!-- SWA Adversarial Validation Accuracy -->
     <g transform="translate(158.445937 296.504312) scale(0.1 -0.1)">
      <use xlink:href="#DejaVuSans-53"/>
      <use xlink:href="#DejaVuSans-57" x="63.476562"/>
      <use xlink:href="#DejaVuSans-41" x="156.853516"/>
      <use xlink:href="#DejaVuSans-20" x="225.261719"/>
      <use xlink:href="#DejaVuSans-41" x="257.048828"/>
      <use xlink:href="#DejaVuSans-64" x="323.707031"/>
      <use xlink:href="#DejaVuSans-76" x="387.183594"/>
      <use xlink:href="#DejaVuSans-65" x="446.363281"/>
      <use xlink:href="#DejaVuSans-72" x="507.886719"/>
      <use xlink:href="#DejaVuSans-73" x="549"/>
      <use xlink:href="#DejaVuSans-61" x="601.099609"/>
      <use xlink:href="#DejaVuSans-72" x="662.378906"/>
      <use xlink:href="#DejaVuSans-69" x="703.492188"/>
      <use xlink:href="#DejaVuSans-61" x="731.275391"/>
      <use xlink:href="#DejaVuSans-6c" x="792.554688"/>
      <use xlink:href="#DejaVuSans-20" x="820.337891"/>
      <use xlink:href="#DejaVuSans-56" x="852.125"/>
      <use xlink:href="#DejaVuSans-61" x="912.783203"/>
      <use xlink:href="#DejaVuSans-6c" x="974.0625"/>
      <use xlink:href="#DejaVuSans-69" x="1001.845703"/>
      <use xlink:href="#DejaVuSans-64" x="1029.628906"/>
      <use xlink:href="#DejaVuSans-61" x="1093.105469"/>
      <use xlink:href="#DejaVuSans-74" x="1154.384766"/>
      <use xlink:href="#DejaVuSans-69" x="1193.59375"/>
      <use xlink:href="#DejaVuSans-6f" x="1221.376953"/>
      <use xlink:href="#DejaVuSans-6e" x="1282.558594"/>
      <use xlink:href="#DejaVuSans-20" x="1345.9375"/>
      <use xlink:href="#DejaVuSans-41" x="1377.724609"/>
      <use xlink:href="#DejaVuSans-63" x="1444.382812"/>
      <use xlink:href="#DejaVuSans-63" x="1499.363281"/>
      <use xlink:href="#DejaVuSans-75" x="1554.34375"/>
      <use xlink:href="#DejaVuSans-72" x="1617.722656"/>
      <use xlink:href="#DejaVuSans-61" x="1658.835938"/>
      <use xlink:href="#DejaVuSans-63" x="1720.115234"/>
      <use xlink:href="#DejaVuSans-79" x="1775.095703"/>
     </g>
    </g>
   </g>
  </g>
 </g>
 <defs>
  <clipPath id="pd3508896b2">
   <rect x="57.6" y="41.472" width="357.12" height="266.112"/>
  </clipPath>
 </defs>
</svg>
