<?xml version="1.0" encoding="utf-8" standalone="no"?>
<!DOCTYPE svg PUBLIC "-//W3C//DTD SVG 1.1//EN"
  "http://www.w3.org/Graphics/SVG/1.1/DTD/svg11.dtd">
<svg xmlns:xlink="http://www.w3.org/1999/xlink" width="460.8pt" height="345.6pt" viewBox="0 0 460.8 345.6" xmlns="http://www.w3.org/2000/svg" version="1.1">
 <metadata>
  <rdf:RDF xmlns:dc="http://purl.org/dc/elements/1.1/" xmlns:cc="http://creativecommons.org/ns#" xmlns:rdf="http://www.w3.org/1999/02/22-rdf-syntax-ns#">
   <cc:Work>
    <dc:type rdf:resource="http://purl.org/dc/dcmitype/StillImage"/>
    <dc:date>2024-09-02T18:58:17.622513</dc:date>
    <dc:format>image/svg+xml</dc:format>
    <dc:creator>
     <cc:Agent>
      <dc:title>Matplotlib v3.9.1, https://matplotlib.org/</dc:title>
     </cc:Agent>
    </dc:creator>
   </cc:Work>
  </rdf:RDF>
 </metadata>
 <defs>
  <style type="text/css">*{stroke-linejoin: round; stroke-linecap: butt}</style>
 </defs>
 <g id="figure_1">
  <g id="patch_1">
   <path d="M 0 345.6 
L 460.8 345.6 
L 460.8 0 
L 0 0 
z
" style="fill: #ffffff"/>
  </g>
  <g id="axes_1">
   <g id="patch_2">
    <path d="M 57.6 307.584 
L 414.72 307.584 
L 414.72 41.472 
L 57.6 41.472 
z
" style="fill: #ffffff"/>
   </g>
   <g id="matplotlib.axis_1">
    <g id="xtick_1">
     <g id="line2d_1">
      <defs>
       <path id="mcfea15e124" d="M 0 0 
L 0 3.5 
" style="stroke: #000000; stroke-width: 0.8"/>
      </defs>
      <g>
       <use xlink:href="#mcfea15e124" x="73.832727" y="307.584" style="stroke: #000000; stroke-width: 0.8"/>
      </g>
     </g>
     <g id="text_1">
      <!-- 1 -->
      <g transform="translate(70.651477 322.182437) scale(0.1 -0.1)">
       <defs>
        <path id="DejaVuSans-31" d="M 794 531 
L 1825 531 
L 1825 4091 
L 703 3866 
L 703 4441 
L 1819 4666 
L 2450 4666 
L 2450 531 
L 3481 531 
L 3481 0 
L 794 0 
L 794 531 
z
" transform="scale(0.015625)"/>
       </defs>
       <use xlink:href="#DejaVuSans-31"/>
      </g>
     </g>
    </g>
    <g id="xtick_2">
     <g id="line2d_2">
      <g>
       <use xlink:href="#mcfea15e124" x="109.262733" y="307.584" style="stroke: #000000; stroke-width: 0.8"/>
      </g>
     </g>
     <g id="text_2">
      <!-- 50 -->
      <g transform="translate(102.900233 322.182437) scale(0.1 -0.1)">
       <defs>
        <path id="DejaVuSans-35" d="M 691 4666 
L 3169 4666 
L 3169 4134 
L 1269 4134 
L 1269 2991 
Q 1406 3038 1543 3061 
Q 1681 3084 1819 3084 
Q 2600 3084 3056 2656 
Q 3513 2228 3513 1497 
Q 3513 744 3044 326 
Q 2575 -91 1722 -91 
Q 1428 -91 1123 -41 
Q 819 9 494 109 
L 494 744 
Q 775 591 1075 516 
Q 1375 441 1709 441 
Q 2250 441 2565 725 
Q 2881 1009 2881 1497 
Q 2881 1984 2565 2268 
Q 2250 2553 1709 2553 
Q 1456 2553 1204 2497 
Q 953 2441 691 2322 
L 691 4666 
z
" transform="scale(0.015625)"/>
        <path id="DejaVuSans-30" d="M 2034 4250 
Q 1547 4250 1301 3770 
Q 1056 3291 1056 2328 
Q 1056 1369 1301 889 
Q 1547 409 2034 409 
Q 2525 409 2770 889 
Q 3016 1369 3016 2328 
Q 3016 3291 2770 3770 
Q 2525 4250 2034 4250 
z
M 2034 4750 
Q 2819 4750 3233 4129 
Q 3647 3509 3647 2328 
Q 3647 1150 3233 529 
Q 2819 -91 2034 -91 
Q 1250 -91 836 529 
Q 422 1150 422 2328 
Q 422 3509 836 4129 
Q 1250 4750 2034 4750 
z
" transform="scale(0.015625)"/>
       </defs>
       <use xlink:href="#DejaVuSans-35"/>
       <use xlink:href="#DejaVuSans-30" x="63.623047"/>
      </g>
     </g>
    </g>
    <g id="xtick_3">
     <g id="line2d_3">
      <g>
       <use xlink:href="#mcfea15e124" x="145.415801" y="307.584" style="stroke: #000000; stroke-width: 0.8"/>
      </g>
     </g>
     <g id="text_3">
      <!-- 100 -->
      <g transform="translate(135.872051 322.182437) scale(0.1 -0.1)">
       <use xlink:href="#DejaVuSans-31"/>
       <use xlink:href="#DejaVuSans-30" x="63.623047"/>
       <use xlink:href="#DejaVuSans-30" x="127.246094"/>
      </g>
     </g>
    </g>
    <g id="xtick_4">
     <g id="line2d_4">
      <g>
       <use xlink:href="#mcfea15e124" x="181.568868" y="307.584" style="stroke: #000000; stroke-width: 0.8"/>
      </g>
     </g>
     <g id="text_4">
      <!-- 150 -->
      <g transform="translate(172.025118 322.182437) scale(0.1 -0.1)">
       <use xlink:href="#DejaVuSans-31"/>
       <use xlink:href="#DejaVuSans-35" x="63.623047"/>
       <use xlink:href="#DejaVuSans-30" x="127.246094"/>
      </g>
     </g>
    </g>
    <g id="xtick_5">
     <g id="line2d_5">
      <g>
       <use xlink:href="#mcfea15e124" x="217.721936" y="307.584" style="stroke: #000000; stroke-width: 0.8"/>
      </g>
     </g>
     <g id="text_5">
      <!-- 200 -->
      <g transform="translate(208.178186 322.182437) scale(0.1 -0.1)">
       <defs>
        <path id="DejaVuSans-32" d="M 1228 531 
L 3431 531 
L 3431 0 
L 469 0 
L 469 531 
Q 828 903 1448 1529 
Q 2069 2156 2228 2338 
Q 2531 2678 2651 2914 
Q 2772 3150 2772 3378 
Q 2772 3750 2511 3984 
Q 2250 4219 1831 4219 
Q 1534 4219 1204 4116 
Q 875 4013 500 3803 
L 500 4441 
Q 881 4594 1212 4672 
Q 1544 4750 1819 4750 
Q 2544 4750 2975 4387 
Q 3406 4025 3406 3419 
Q 3406 3131 3298 2873 
Q 3191 2616 2906 2266 
Q 2828 2175 2409 1742 
Q 1991 1309 1228 531 
z
" transform="scale(0.015625)"/>
       </defs>
       <use xlink:href="#DejaVuSans-32"/>
       <use xlink:href="#DejaVuSans-30" x="63.623047"/>
       <use xlink:href="#DejaVuSans-30" x="127.246094"/>
      </g>
     </g>
    </g>
    <g id="xtick_6">
     <g id="line2d_6">
      <g>
       <use xlink:href="#mcfea15e124" x="253.875003" y="307.584" style="stroke: #000000; stroke-width: 0.8"/>
      </g>
     </g>
     <g id="text_6">
      <!-- 250 -->
      <g transform="translate(244.331253 322.182437) scale(0.1 -0.1)">
       <use xlink:href="#DejaVuSans-32"/>
       <use xlink:href="#DejaVuSans-35" x="63.623047"/>
       <use xlink:href="#DejaVuSans-30" x="127.246094"/>
      </g>
     </g>
    </g>
    <g id="xtick_7">
     <g id="line2d_7">
      <g>
       <use xlink:href="#mcfea15e124" x="290.02807" y="307.584" style="stroke: #000000; stroke-width: 0.8"/>
      </g>
     </g>
     <g id="text_7">
      <!-- 300 -->
      <g transform="translate(280.48432 322.182437) scale(0.1 -0.1)">
       <defs>
        <path id="DejaVuSans-33" d="M 2597 2516 
Q 3050 2419 3304 2112 
Q 3559 1806 3559 1356 
Q 3559 666 3084 287 
Q 2609 -91 1734 -91 
Q 1441 -91 1130 -33 
Q 819 25 488 141 
L 488 750 
Q 750 597 1062 519 
Q 1375 441 1716 441 
Q 2309 441 2620 675 
Q 2931 909 2931 1356 
Q 2931 1769 2642 2001 
Q 2353 2234 1838 2234 
L 1294 2234 
L 1294 2753 
L 1863 2753 
Q 2328 2753 2575 2939 
Q 2822 3125 2822 3475 
Q 2822 3834 2567 4026 
Q 2313 4219 1838 4219 
Q 1578 4219 1281 4162 
Q 984 4106 628 3988 
L 628 4550 
Q 988 4650 1302 4700 
Q 1616 4750 1894 4750 
Q 2613 4750 3031 4423 
Q 3450 4097 3450 3541 
Q 3450 3153 3228 2886 
Q 3006 2619 2597 2516 
z
" transform="scale(0.015625)"/>
       </defs>
       <use xlink:href="#DejaVuSans-33"/>
       <use xlink:href="#DejaVuSans-30" x="63.623047"/>
       <use xlink:href="#DejaVuSans-30" x="127.246094"/>
      </g>
     </g>
    </g>
    <g id="xtick_8">
     <g id="line2d_8">
      <g>
       <use xlink:href="#mcfea15e124" x="326.181138" y="307.584" style="stroke: #000000; stroke-width: 0.8"/>
      </g>
     </g>
     <g id="text_8">
      <!-- 350 -->
      <g transform="translate(316.637388 322.182437) scale(0.1 -0.1)">
       <use xlink:href="#DejaVuSans-33"/>
       <use xlink:href="#DejaVuSans-35" x="63.623047"/>
       <use xlink:href="#DejaVuSans-30" x="127.246094"/>
      </g>
     </g>
    </g>
    <g id="xtick_9">
     <g id="line2d_9">
      <g>
       <use xlink:href="#mcfea15e124" x="362.334205" y="307.584" style="stroke: #000000; stroke-width: 0.8"/>
      </g>
     </g>
     <g id="text_9">
      <!-- 400 -->
      <g transform="translate(352.790455 322.182437) scale(0.1 -0.1)">
       <defs>
        <path id="DejaVuSans-34" d="M 2419 4116 
L 825 1625 
L 2419 1625 
L 2419 4116 
z
M 2253 4666 
L 3047 4666 
L 3047 1625 
L 3713 1625 
L 3713 1100 
L 3047 1100 
L 3047 0 
L 2419 0 
L 2419 1100 
L 313 1100 
L 313 1709 
L 2253 4666 
z
" transform="scale(0.015625)"/>
       </defs>
       <use xlink:href="#DejaVuSans-34"/>
       <use xlink:href="#DejaVuSans-30" x="63.623047"/>
       <use xlink:href="#DejaVuSans-30" x="127.246094"/>
      </g>
     </g>
    </g>
    <g id="xtick_10">
     <g id="line2d_10">
      <g>
       <use xlink:href="#mcfea15e124" x="398.487273" y="307.584" style="stroke: #000000; stroke-width: 0.8"/>
      </g>
     </g>
     <g id="text_10">
      <!-- 450 -->
      <g transform="translate(388.943523 322.182437) scale(0.1 -0.1)">
       <use xlink:href="#DejaVuSans-34"/>
       <use xlink:href="#DejaVuSans-35" x="63.623047"/>
       <use xlink:href="#DejaVuSans-30" x="127.246094"/>
      </g>
     </g>
    </g>
    <g id="text_11">
     <!-- Epochs -->
     <g transform="translate(218.244375 335.860562) scale(0.1 -0.1)">
      <defs>
       <path id="DejaVuSans-45" d="M 628 4666 
L 3578 4666 
L 3578 4134 
L 1259 4134 
L 1259 2753 
L 3481 2753 
L 3481 2222 
L 1259 2222 
L 1259 531 
L 3634 531 
L 3634 0 
L 628 0 
L 628 4666 
z
" transform="scale(0.015625)"/>
       <path id="DejaVuSans-70" d="M 1159 525 
L 1159 -1331 
L 581 -1331 
L 581 3500 
L 1159 3500 
L 1159 2969 
Q 1341 3281 1617 3432 
Q 1894 3584 2278 3584 
Q 2916 3584 3314 3078 
Q 3713 2572 3713 1747 
Q 3713 922 3314 415 
Q 2916 -91 2278 -91 
Q 1894 -91 1617 61 
Q 1341 213 1159 525 
z
M 3116 1747 
Q 3116 2381 2855 2742 
Q 2594 3103 2138 3103 
Q 1681 3103 1420 2742 
Q 1159 2381 1159 1747 
Q 1159 1113 1420 752 
Q 1681 391 2138 391 
Q 2594 391 2855 752 
Q 3116 1113 3116 1747 
z
" transform="scale(0.015625)"/>
       <path id="DejaVuSans-6f" d="M 1959 3097 
Q 1497 3097 1228 2736 
Q 959 2375 959 1747 
Q 959 1119 1226 758 
Q 1494 397 1959 397 
Q 2419 397 2687 759 
Q 2956 1122 2956 1747 
Q 2956 2369 2687 2733 
Q 2419 3097 1959 3097 
z
M 1959 3584 
Q 2709 3584 3137 3096 
Q 3566 2609 3566 1747 
Q 3566 888 3137 398 
Q 2709 -91 1959 -91 
Q 1206 -91 779 398 
Q 353 888 353 1747 
Q 353 2609 779 3096 
Q 1206 3584 1959 3584 
z
" transform="scale(0.015625)"/>
       <path id="DejaVuSans-63" d="M 3122 3366 
L 3122 2828 
Q 2878 2963 2633 3030 
Q 2388 3097 2138 3097 
Q 1578 3097 1268 2742 
Q 959 2388 959 1747 
Q 959 1106 1268 751 
Q 1578 397 2138 397 
Q 2388 397 2633 464 
Q 2878 531 3122 666 
L 3122 134 
Q 2881 22 2623 -34 
Q 2366 -91 2075 -91 
Q 1284 -91 818 406 
Q 353 903 353 1747 
Q 353 2603 823 3093 
Q 1294 3584 2113 3584 
Q 2378 3584 2631 3529 
Q 2884 3475 3122 3366 
z
" transform="scale(0.015625)"/>
       <path id="DejaVuSans-68" d="M 3513 2113 
L 3513 0 
L 2938 0 
L 2938 2094 
Q 2938 2591 2744 2837 
Q 2550 3084 2163 3084 
Q 1697 3084 1428 2787 
Q 1159 2491 1159 1978 
L 1159 0 
L 581 0 
L 581 4863 
L 1159 4863 
L 1159 2956 
Q 1366 3272 1645 3428 
Q 1925 3584 2291 3584 
Q 2894 3584 3203 3211 
Q 3513 2838 3513 2113 
z
" transform="scale(0.015625)"/>
       <path id="DejaVuSans-73" d="M 2834 3397 
L 2834 2853 
Q 2591 2978 2328 3040 
Q 2066 3103 1784 3103 
Q 1356 3103 1142 2972 
Q 928 2841 928 2578 
Q 928 2378 1081 2264 
Q 1234 2150 1697 2047 
L 1894 2003 
Q 2506 1872 2764 1633 
Q 3022 1394 3022 966 
Q 3022 478 2636 193 
Q 2250 -91 1575 -91 
Q 1294 -91 989 -36 
Q 684 19 347 128 
L 347 722 
Q 666 556 975 473 
Q 1284 391 1588 391 
Q 1994 391 2212 530 
Q 2431 669 2431 922 
Q 2431 1156 2273 1281 
Q 2116 1406 1581 1522 
L 1381 1569 
Q 847 1681 609 1914 
Q 372 2147 372 2553 
Q 372 3047 722 3315 
Q 1072 3584 1716 3584 
Q 2034 3584 2315 3537 
Q 2597 3491 2834 3397 
z
" transform="scale(0.015625)"/>
      </defs>
      <use xlink:href="#DejaVuSans-45"/>
      <use xlink:href="#DejaVuSans-70" x="63.183594"/>
      <use xlink:href="#DejaVuSans-6f" x="126.660156"/>
      <use xlink:href="#DejaVuSans-63" x="187.841797"/>
      <use xlink:href="#DejaVuSans-68" x="242.822266"/>
      <use xlink:href="#DejaVuSans-73" x="306.201172"/>
     </g>
    </g>
   </g>
   <g id="matplotlib.axis_2">
    <g id="ytick_1">
     <g id="line2d_11">
      <defs>
       <path id="m48dce6ba2a" d="M 0 0 
L -3.5 0 
" style="stroke: #000000; stroke-width: 0.8"/>
      </defs>
      <g>
       <use xlink:href="#m48dce6ba2a" x="57.6" y="283.144494" style="stroke: #000000; stroke-width: 0.8"/>
      </g>
     </g>
     <g id="text_12">
      <!-- 10 -->
      <g transform="translate(37.875 286.943712) scale(0.1 -0.1)">
       <use xlink:href="#DejaVuSans-31"/>
       <use xlink:href="#DejaVuSans-30" x="63.623047"/>
      </g>
     </g>
    </g>
    <g id="ytick_2">
     <g id="line2d_12">
      <g>
       <use xlink:href="#m48dce6ba2a" x="57.6" y="251.331333" style="stroke: #000000; stroke-width: 0.8"/>
      </g>
     </g>
     <g id="text_13">
      <!-- 20 -->
      <g transform="translate(37.875 255.130552) scale(0.1 -0.1)">
       <use xlink:href="#DejaVuSans-32"/>
       <use xlink:href="#DejaVuSans-30" x="63.623047"/>
      </g>
     </g>
    </g>
    <g id="ytick_3">
     <g id="line2d_13">
      <g>
       <use xlink:href="#m48dce6ba2a" x="57.6" y="219.518172" style="stroke: #000000; stroke-width: 0.8"/>
      </g>
     </g>
     <g id="text_14">
      <!-- 30 -->
      <g transform="translate(37.875 223.317391) scale(0.1 -0.1)">
       <use xlink:href="#DejaVuSans-33"/>
       <use xlink:href="#DejaVuSans-30" x="63.623047"/>
      </g>
     </g>
    </g>
    <g id="ytick_4">
     <g id="line2d_14">
      <g>
       <use xlink:href="#m48dce6ba2a" x="57.6" y="187.705011" style="stroke: #000000; stroke-width: 0.8"/>
      </g>
     </g>
     <g id="text_15">
      <!-- 40 -->
      <g transform="translate(37.875 191.50423) scale(0.1 -0.1)">
       <use xlink:href="#DejaVuSans-34"/>
       <use xlink:href="#DejaVuSans-30" x="63.623047"/>
      </g>
     </g>
    </g>
    <g id="ytick_5">
     <g id="line2d_15">
      <g>
       <use xlink:href="#m48dce6ba2a" x="57.6" y="155.89185" style="stroke: #000000; stroke-width: 0.8"/>
      </g>
     </g>
     <g id="text_16">
      <!-- 50 -->
      <g transform="translate(37.875 159.691069) scale(0.1 -0.1)">
       <use xlink:href="#DejaVuSans-35"/>
       <use xlink:href="#DejaVuSans-30" x="63.623047"/>
      </g>
     </g>
    </g>
    <g id="ytick_6">
     <g id="line2d_16">
      <g>
       <use xlink:href="#m48dce6ba2a" x="57.6" y="124.07869" style="stroke: #000000; stroke-width: 0.8"/>
      </g>
     </g>
     <g id="text_17">
      <!-- 60 -->
      <g transform="translate(37.875 127.877908) scale(0.1 -0.1)">
       <defs>
        <path id="DejaVuSans-36" d="M 2113 2584 
Q 1688 2584 1439 2293 
Q 1191 2003 1191 1497 
Q 1191 994 1439 701 
Q 1688 409 2113 409 
Q 2538 409 2786 701 
Q 3034 994 3034 1497 
Q 3034 2003 2786 2293 
Q 2538 2584 2113 2584 
z
M 3366 4563 
L 3366 3988 
Q 3128 4100 2886 4159 
Q 2644 4219 2406 4219 
Q 1781 4219 1451 3797 
Q 1122 3375 1075 2522 
Q 1259 2794 1537 2939 
Q 1816 3084 2150 3084 
Q 2853 3084 3261 2657 
Q 3669 2231 3669 1497 
Q 3669 778 3244 343 
Q 2819 -91 2113 -91 
Q 1303 -91 875 529 
Q 447 1150 447 2328 
Q 447 3434 972 4092 
Q 1497 4750 2381 4750 
Q 2619 4750 2861 4703 
Q 3103 4656 3366 4563 
z
" transform="scale(0.015625)"/>
       </defs>
       <use xlink:href="#DejaVuSans-36"/>
       <use xlink:href="#DejaVuSans-30" x="63.623047"/>
      </g>
     </g>
    </g>
    <g id="ytick_7">
     <g id="line2d_17">
      <g>
       <use xlink:href="#m48dce6ba2a" x="57.6" y="92.265529" style="stroke: #000000; stroke-width: 0.8"/>
      </g>
     </g>
     <g id="text_18">
      <!-- 70 -->
      <g transform="translate(37.875 96.064748) scale(0.1 -0.1)">
       <defs>
        <path id="DejaVuSans-37" d="M 525 4666 
L 3525 4666 
L 3525 4397 
L 1831 0 
L 1172 0 
L 2766 4134 
L 525 4134 
L 525 4666 
z
" transform="scale(0.015625)"/>
       </defs>
       <use xlink:href="#DejaVuSans-37"/>
       <use xlink:href="#DejaVuSans-30" x="63.623047"/>
      </g>
     </g>
    </g>
    <g id="ytick_8">
     <g id="line2d_18">
      <g>
       <use xlink:href="#m48dce6ba2a" x="57.6" y="60.452368" style="stroke: #000000; stroke-width: 0.8"/>
      </g>
     </g>
     <g id="text_19">
      <!-- 80 -->
      <g transform="translate(37.875 64.251587) scale(0.1 -0.1)">
       <defs>
        <path id="DejaVuSans-38" d="M 2034 2216 
Q 1584 2216 1326 1975 
Q 1069 1734 1069 1313 
Q 1069 891 1326 650 
Q 1584 409 2034 409 
Q 2484 409 2743 651 
Q 3003 894 3003 1313 
Q 3003 1734 2745 1975 
Q 2488 2216 2034 2216 
z
M 1403 2484 
Q 997 2584 770 2862 
Q 544 3141 544 3541 
Q 544 4100 942 4425 
Q 1341 4750 2034 4750 
Q 2731 4750 3128 4425 
Q 3525 4100 3525 3541 
Q 3525 3141 3298 2862 
Q 3072 2584 2669 2484 
Q 3125 2378 3379 2068 
Q 3634 1759 3634 1313 
Q 3634 634 3220 271 
Q 2806 -91 2034 -91 
Q 1263 -91 848 271 
Q 434 634 434 1313 
Q 434 1759 690 2068 
Q 947 2378 1403 2484 
z
M 1172 3481 
Q 1172 3119 1398 2916 
Q 1625 2713 2034 2713 
Q 2441 2713 2670 2916 
Q 2900 3119 2900 3481 
Q 2900 3844 2670 4047 
Q 2441 4250 2034 4250 
Q 1625 4250 1398 4047 
Q 1172 3844 1172 3481 
z
" transform="scale(0.015625)"/>
       </defs>
       <use xlink:href="#DejaVuSans-38"/>
       <use xlink:href="#DejaVuSans-30" x="63.623047"/>
      </g>
     </g>
    </g>
    <g id="text_20">
     <!-- Accuracy -->
     <g transform="translate(31.795312 197.356125) rotate(-90) scale(0.1 -0.1)">
      <defs>
       <path id="DejaVuSans-41" d="M 2188 4044 
L 1331 1722 
L 3047 1722 
L 2188 4044 
z
M 1831 4666 
L 2547 4666 
L 4325 0 
L 3669 0 
L 3244 1197 
L 1141 1197 
L 716 0 
L 50 0 
L 1831 4666 
z
" transform="scale(0.015625)"/>
       <path id="DejaVuSans-75" d="M 544 1381 
L 544 3500 
L 1119 3500 
L 1119 1403 
Q 1119 906 1312 657 
Q 1506 409 1894 409 
Q 2359 409 2629 706 
Q 2900 1003 2900 1516 
L 2900 3500 
L 3475 3500 
L 3475 0 
L 2900 0 
L 2900 538 
Q 2691 219 2414 64 
Q 2138 -91 1772 -91 
Q 1169 -91 856 284 
Q 544 659 544 1381 
z
M 1991 3584 
L 1991 3584 
z
" transform="scale(0.015625)"/>
       <path id="DejaVuSans-72" d="M 2631 2963 
Q 2534 3019 2420 3045 
Q 2306 3072 2169 3072 
Q 1681 3072 1420 2755 
Q 1159 2438 1159 1844 
L 1159 0 
L 581 0 
L 581 3500 
L 1159 3500 
L 1159 2956 
Q 1341 3275 1631 3429 
Q 1922 3584 2338 3584 
Q 2397 3584 2469 3576 
Q 2541 3569 2628 3553 
L 2631 2963 
z
" transform="scale(0.015625)"/>
       <path id="DejaVuSans-61" d="M 2194 1759 
Q 1497 1759 1228 1600 
Q 959 1441 959 1056 
Q 959 750 1161 570 
Q 1363 391 1709 391 
Q 2188 391 2477 730 
Q 2766 1069 2766 1631 
L 2766 1759 
L 2194 1759 
z
M 3341 1997 
L 3341 0 
L 2766 0 
L 2766 531 
Q 2569 213 2275 61 
Q 1981 -91 1556 -91 
Q 1019 -91 701 211 
Q 384 513 384 1019 
Q 384 1609 779 1909 
Q 1175 2209 1959 2209 
L 2766 2209 
L 2766 2266 
Q 2766 2663 2505 2880 
Q 2244 3097 1772 3097 
Q 1472 3097 1187 3025 
Q 903 2953 641 2809 
L 641 3341 
Q 956 3463 1253 3523 
Q 1550 3584 1831 3584 
Q 2591 3584 2966 3190 
Q 3341 2797 3341 1997 
z
" transform="scale(0.015625)"/>
       <path id="DejaVuSans-79" d="M 2059 -325 
Q 1816 -950 1584 -1140 
Q 1353 -1331 966 -1331 
L 506 -1331 
L 506 -850 
L 844 -850 
Q 1081 -850 1212 -737 
Q 1344 -625 1503 -206 
L 1606 56 
L 191 3500 
L 800 3500 
L 1894 763 
L 2988 3500 
L 3597 3500 
L 2059 -325 
z
" transform="scale(0.015625)"/>
      </defs>
      <use xlink:href="#DejaVuSans-41"/>
      <use xlink:href="#DejaVuSans-63" x="66.658203"/>
      <use xlink:href="#DejaVuSans-63" x="121.638672"/>
      <use xlink:href="#DejaVuSans-75" x="176.619141"/>
      <use xlink:href="#DejaVuSans-72" x="239.998047"/>
      <use xlink:href="#DejaVuSans-61" x="281.111328"/>
      <use xlink:href="#DejaVuSans-63" x="342.390625"/>
      <use xlink:href="#DejaVuSans-79" x="397.371094"/>
     </g>
    </g>
   </g>
   <g id="line2d_19">
    <path d="M 73.832727 295.488 
L 75.27885 256.974988 
L 76.001911 235.342038 
L 76.724973 218.315635 
L 78.171095 193.138699 
L 78.894157 183.200268 
L 81.063341 162.578977 
L 82.509463 151.374382 
L 83.232525 147.951285 
L 83.955586 143.115685 
L 84.678647 139.25993 
L 85.401709 136.98847 
L 86.12477 132.738232 
L 86.847832 130.065926 
L 87.570893 126.292886 
L 88.293954 123.588767 
L 89.017016 122.07446 
L 89.740077 118.237793 
L 90.463138 118.034189 
L 91.1862 117.302486 
L 91.909261 114.585642 
L 92.632322 112.64504 
L 93.355384 111.385238 
L 94.078445 111.690645 
L 94.801506 109.724591 
L 95.524568 138.400975 
L 96.247629 139.005425 
L 96.97069 136.326757 
L 97.693752 135.976812 
L 98.416813 132.700056 
L 99.862936 130.021388 
L 101.309059 124.988546 
L 102.03212 124.613151 
L 102.755181 122.583471 
L 104.201304 119.357617 
L 104.924365 117.149783 
L 105.647427 115.30462 
L 106.370488 114.375676 
L 107.093549 113.822127 
L 107.816611 111.779722 
L 108.539672 111.760634 
L 109.262733 109.851844 
L 109.985795 108.776559 
L 110.708856 108.58568 
L 111.431917 105.9261 
L 112.154979 104.819002 
L 112.87804 102.744784 
L 113.601101 102.636619 
L 114.324163 101.370455 
L 115.047224 100.549676 
L 116.493347 97.050228 
L 117.216408 97.024778 
L 117.93947 95.682262 
L 118.662531 94.988735 
L 119.385592 93.143572 
L 120.108654 92.698188 
L 120.831715 90.318563 
L 121.554776 91.113892 
L 122.277838 88.295246 
L 123.000899 88.59429 
L 124.447022 85.69293 
L 125.170083 85.438424 
L 125.893144 83.943206 
L 126.616206 82.785207 
L 127.339267 82.810657 
L 128.78539 81.385428 
L 129.508451 79.005803 
L 130.231512 80.615549 
L 130.954574 78.662221 
L 131.677635 78.337727 
L 132.400696 77.427871 
L 133.123758 75.964465 
L 133.846819 75.926289 
L 134.569881 76.422575 
L 135.292942 76.238058 
L 136.739065 75.595433 
L 137.462126 76.912497 
L 138.185187 75.748136 
L 138.908249 99.792523 
L 139.63131 104.997156 
L 140.354371 105.518892 
L 141.077433 104.093662 
L 141.800494 103.610102 
L 143.246617 104.481783 
L 143.969678 102.452103 
L 144.692739 102.108521 
L 145.415801 102.942026 
L 146.138862 101.580422 
L 146.861923 101.427719 
L 147.584985 100.823269 
L 148.308046 99.557105 
L 149.754169 98.411831 
L 150.47723 99.270787 
L 151.200292 97.775568 
L 151.923353 97.909184 
L 153.369476 95.612273 
L 154.092537 96.503042 
L 154.815598 96.439415 
L 156.261721 94.568802 
L 157.707844 94.180681 
L 159.153966 92.373694 
L 159.877028 91.890134 
L 160.600089 91.247508 
L 161.32315 91.171156 
L 162.046212 89.555047 
L 162.769273 89.822278 
L 163.492334 89.714113 
L 164.215396 89.866816 
L 165.661519 87.239049 
L 166.38458 88.072554 
L 167.107641 87.633533 
L 167.830703 88.479763 
L 168.553764 86.335556 
L 169.276825 85.769281 
L 169.999887 84.87215 
L 170.722948 85.533864 
L 171.446009 84.859425 
L 172.169071 83.650525 
L 172.892132 83.714151 
L 173.615193 82.168032 
L 175.061316 82.81702 
L 175.784377 82.467075 
L 176.507439 82.619778 
L 177.2305 81.678109 
L 177.953561 81.12456 
L 178.676623 79.31121 
L 179.399684 80.418308 
L 180.122745 78.051409 
L 180.845807 79.521177 
L 181.568868 78.8531 
L 182.29193 79.304847 
L 183.014991 77.243354 
L 183.738052 77.020662 
L 184.461114 76.238058 
L 185.184175 76.613454 
L 185.907236 75.474543 
L 186.630298 75.073697 
L 187.353359 74.539236 
L 188.07642 74.373807 
L 189.522543 73.17127 
L 190.245604 73.387599 
L 190.968666 71.548798 
L 191.691727 71.192491 
L 192.414788 70.269909 
L 193.13785 70.670755 
L 193.860911 69.468218 
L 194.583972 69.945415 
L 195.307034 68.405658 
L 196.753157 67.928461 
L 197.476218 67.508527 
L 198.199279 66.344165 
L 199.645402 66.465055 
L 200.368463 65.555199 
L 201.091525 65.752441 
L 201.814586 64.829859 
L 202.537647 64.199958 
L 203.260709 64.66443 
L 203.98377 64.212684 
L 204.706831 62.692015 
L 205.429893 63.353728 
L 206.152954 62.456597 
L 206.876015 62.22118 
L 207.599077 62.469322 
L 208.322138 61.075906 
L 209.045199 61.336774 
L 209.768261 60.974104 
L 210.491322 60.127874 
L 211.214383 60.541445 
L 211.937445 59.542512 
L 212.660506 59.122578 
L 213.383568 58.13637 
L 214.106629 59.434347 
L 214.82969 58.88716 
L 215.552752 57.856414 
L 216.275813 58.441776 
L 216.998874 58.365425 
L 217.721936 57.945491 
L 218.444997 57.881865 
L 219.168058 58.575392 
L 219.89112 57.366491 
L 220.614181 56.972008 
L 221.337242 58.422688 
L 222.060304 57.640085 
L 222.783365 57.538282 
L 224.229488 56.049427 
L 224.952549 57.907315 
L 225.67561 84.929414 
L 226.398672 89.542322 
L 227.121733 89.790465 
L 228.567856 90.725772 
L 229.290917 90.274025 
L 230.013979 89.179652 
L 230.73704 90.051333 
L 231.460101 90.172223 
L 232.906224 88.816982 
L 233.629285 89.039674 
L 234.352347 88.696092 
L 235.075408 87.595357 
L 235.798469 89.357806 
L 236.521531 88.842433 
L 237.244592 88.11073 
L 237.967653 86.628237 
L 239.413776 89.332355 
L 240.136837 87.690796 
L 240.859899 87.353577 
L 241.58296 86.170127 
L 242.306021 86.850929 
L 243.029083 86.602786 
L 244.475206 86.990907 
L 245.198267 85.71838 
L 245.921328 85.801095 
L 246.64439 85.648391 
L 247.367451 85.858358 
L 248.813574 84.598557 
L 249.536635 85.667479 
L 250.259696 84.75126 
L 250.982758 84.089546 
L 251.705819 84.579469 
L 252.42888 84.274063 
L 253.151942 84.134085 
L 253.875003 83.084251 
L 254.598064 82.645229 
L 255.321126 82.880646 
L 256.044187 83.370569 
L 256.767248 82.810657 
L 257.49031 83.122426 
L 258.213371 83.020624 
L 258.936432 82.543427 
L 259.659494 81.856263 
L 260.382555 82.365273 
L 261.105617 82.428899 
L 261.828678 80.704626 
L 262.551739 81.792636 
L 263.274801 81.919889 
L 263.997862 81.582669 
L 264.720923 80.978219 
L 265.443985 81.277263 
L 266.167046 81.321801 
L 266.890107 79.705693 
L 267.613169 81.12456 
L 268.33623 79.483001 
L 269.059291 80.271967 
L 269.782353 80.730077 
L 270.505414 79.19032 
L 271.228475 79.57844 
L 271.951537 79.782045 
L 272.674598 79.622979 
L 273.397659 77.822354 
L 274.120721 78.630408 
L 274.843782 77.656925 
L 275.566843 78.662221 
L 276.289905 78.566782 
L 277.012966 78.299551 
L 277.736028 78.566782 
L 278.459089 76.766157 
L 279.18215 78.401353 
L 279.905212 77.370607 
L 280.628273 77.230629 
L 281.351334 78.235925 
L 282.074396 76.276234 
L 282.797457 77.236992 
L 283.520518 76.371674 
L 284.24358 76.301685 
L 284.966641 76.855234 
L 285.689702 75.646334 
L 286.412764 76.327135 
L 287.135825 76.174432 
L 287.858886 74.86373 
L 288.581948 74.265642 
L 289.305009 75.760861 
L 290.02807 74.462884 
L 290.751132 74.361082 
L 291.474193 74.98462 
L 292.197255 74.88918 
L 293.643377 73.642104 
L 294.366439 72.617721 
L 295.0895 73.222171 
L 295.812561 73.508489 
L 296.535623 73.063105 
L 297.258684 73.55939 
L 297.981745 71.898743 
L 298.704807 72.134161 
L 299.427868 71.860567 
L 300.150929 71.905106 
L 300.873991 72.465018 
L 301.597052 71.224304 
L 303.043175 70.893447 
L 303.766236 71.497897 
L 304.489297 70.352624 
L 305.212359 70.524415 
L 305.93542 69.856338 
L 306.658481 70.257184 
L 307.381543 70.282635 
L 308.104604 69.442767 
L 308.827666 69.843613 
L 309.550727 69.156449 
L 310.273788 68.793779 
L 310.99685 69.366416 
L 311.719911 68.488372 
L 312.442972 67.788483 
L 313.166034 68.106614 
L 313.889095 67.489439 
L 314.612156 67.044055 
L 315.335218 67.629417 
L 316.78134 66.878626 
L 317.504402 65.650638 
L 318.227463 67.330373 
L 319.673586 66.388704 
L 320.396647 65.300694 
L 321.119708 66.070572 
L 323.288892 64.817134 
L 324.011954 65.147991 
L 324.735015 64.568991 
L 325.458077 63.780025 
L 326.181138 63.296465 
L 326.904199 64.098156 
L 327.627261 62.863806 
L 328.350322 62.952882 
L 329.073383 63.347366 
L 330.519506 62.202092 
L 331.242567 62.889256 
L 331.965629 61.330411 
L 332.68869 63.048322 
L 333.411751 61.794883 
L 334.134813 60.878664 
L 334.857874 61.527653 
L 336.303997 60.140599 
L 337.027058 60.057885 
L 337.750119 60.115148 
L 338.473181 59.822467 
L 339.196242 59.211655 
L 339.919304 58.365425 
L 340.642365 58.906248 
L 341.365426 58.384513 
L 342.088488 58.435414 
L 342.811549 57.423755 
L 343.53461 58.670831 
L 344.980733 57.29014 
L 345.703794 57.385579 
L 346.426856 56.596613 
L 347.149917 56.602976 
L 347.872978 56.774767 
L 348.59604 55.973075 
L 349.319101 56.074877 
L 350.042162 55.674031 
L 350.765224 55.457702 
L 351.488285 56.125778 
L 352.211346 55.852185 
L 352.934408 56.749316 
L 353.657469 55.343174 
L 354.38053 56.246668 
L 355.826653 55.610405 
L 356.549715 55.13957 
L 357.272776 55.572229 
L 357.995837 54.885065 
L 358.718899 54.878702 
L 359.44196 55.9858 
L 360.165021 55.330449 
L 360.888083 55.896723 
L 361.611144 55.909449 
L 362.334205 55.11412 
L 363.057267 56.265756 
L 363.780328 56.431184 
L 364.503389 55.83946 
L 365.226451 55.578592 
L 365.949512 55.133208 
L 366.672573 55.635855 
L 367.395635 55.464064 
L 368.118696 55.444976 
L 368.841757 55.693119 
L 369.564819 55.228647 
L 370.28788 55.425889 
L 371.010941 56.284844 
L 371.734003 55.196834 
L 372.457064 55.724932 
L 373.180126 55.9858 
L 373.903187 55.724932 
L 374.626248 55.763108 
L 375.34931 54.795988 
L 376.072371 53.568 
L 376.795432 55.642218 
L 377.518494 54.929603 
L 378.241555 55.177746 
L 378.964616 55.642218 
L 379.687678 54.853252 
L 380.410739 55.928537 
L 381.1338 55.196834 
L 381.856862 56.373921 
L 382.579923 56.246668 
L 383.302984 55.120482 
L 384.026046 54.89779 
L 384.749107 55.165021 
L 385.472168 56.132141 
L 386.19523 54.955054 
L 386.918291 55.890361 
L 387.641353 55.082306 
L 388.364414 55.565866 
L 389.087475 55.406801 
L 389.810537 56.380283 
L 390.533598 55.3559 
L 391.256659 54.99323 
L 391.979721 55.648581 
L 392.702782 54.662373 
L 393.425843 56.291207 
L 394.871966 55.801284 
L 395.595027 54.923241 
L 396.318089 56.189404 
L 397.04115 55.177746 
L 397.764211 56.431184 
L 398.487273 54.376054 
L 398.487273 54.376054 
" clip-path="url(#pa6cd4ea66c)" style="fill: none; stroke: #1f77b4; stroke-width: 1.5; stroke-linecap: square"/>
   </g>
   <g id="line2d_20">
    <path d="M 73.832727 280.949386 
L 74.555789 264.597421 
L 76.001911 222.508609 
L 76.724973 219.231854 
L 77.448034 206.347523 
L 78.171095 181.596884 
L 78.894157 177.5248 
L 79.617218 176.665844 
L 80.340279 159.932122 
L 81.063341 155.160148 
L 81.786402 149.561031 
L 82.509463 145.838892 
L 83.232525 138.617304 
L 83.955586 136.422196 
L 84.678647 132.922748 
L 85.401709 126.687369 
L 86.12477 123.98325 
L 86.847832 123.919624 
L 87.570893 125.510282 
L 89.017016 112.244194 
L 89.740077 117.207047 
L 90.463138 114.630181 
L 91.1862 106.358759 
L 91.909261 109.476449 
L 92.632322 106.231506 
L 93.355384 105.086233 
L 94.078445 105.404364 
L 94.801506 105.467991 
L 95.524568 135.117856 
L 96.247629 130.091377 
L 96.97069 132.763682 
L 97.693752 124.333195 
L 98.416813 128.214401 
L 99.139874 129.136982 
L 99.862936 120.833747 
L 100.585997 121.024626 
L 101.309059 115.011939 
L 102.03212 120.992813 
L 102.755181 112.975896 
L 103.478243 113.357654 
L 104.201304 112.371446 
L 104.924365 110.589909 
L 105.647427 110.971667 
L 106.370488 107.440407 
L 107.093549 107.567659 
L 107.816611 104.736288 
L 108.539672 103.082003 
L 109.262733 100.886895 
L 109.985795 100.473324 
L 110.708856 102.795685 
L 111.431917 97.991898 
L 112.154979 97.673766 
L 112.87804 94.397011 
L 113.601101 93.410803 
L 114.324163 95.065087 
L 115.047224 92.647287 
L 115.770285 89.116026 
L 116.493347 91.183881 
L 117.216408 86.380094 
L 117.93947 88.320697 
L 118.662531 86.030149 
L 119.385592 87.875313 
L 120.108654 85.203007 
L 120.831715 83.835041 
L 121.554776 83.357844 
L 122.277838 81.830812 
L 123.000899 81.51268 
L 124.447022 79.69933 
L 125.893144 79.285759 
L 126.616206 76.963398 
L 127.339267 76.040817 
L 128.062328 76.327135 
L 128.78539 77.217904 
L 129.508451 74.577411 
L 130.231512 74.450159 
L 130.954574 72.732248 
L 131.677635 72.95494 
L 132.400696 73.591203 
L 133.123758 72.668622 
L 133.846819 72.891314 
L 135.292942 71.936919 
L 136.016003 71.777853 
L 136.739065 71.491535 
L 137.462126 71.364282 
L 138.185187 71.046151 
L 138.908249 96.846624 
L 139.63131 98.341843 
L 140.354371 95.955855 
L 141.077433 96.40124 
L 141.800494 94.174318 
L 142.523555 106.072441 
L 143.246617 96.464866 
L 143.969678 98.373656 
L 144.692739 95.574098 
L 145.415801 95.70135 
L 146.138862 93.410803 
L 146.861923 95.224153 
L 147.584985 94.142505 
L 148.308046 90.547618 
L 149.031108 93.983439 
L 149.754169 94.651516 
L 150.47723 86.221028 
L 151.200292 90.706684 
L 151.923353 89.784102 
L 153.369476 87.111797 
L 154.092537 88.034378 
L 154.815598 87.74806 
L 155.53866 89.911355 
L 156.261721 84.089546 
L 156.984782 87.302676 
L 157.707844 89.815915 
L 158.430905 88.384323 
L 159.153966 90.16586 
L 159.877028 90.324926 
L 160.600089 83.707789 
L 161.32315 91.565639 
L 162.046212 83.42147 
L 162.769273 81.162736 
L 163.492334 85.457512 
L 164.215396 84.948502 
L 164.938457 82.308009 
L 165.661519 83.135152 
L 166.38458 84.598557 
L 167.107641 81.862625 
L 167.830703 82.371636 
L 168.553764 77.88598 
L 169.276825 79.731143 
L 169.999887 82.435262 
L 170.722948 82.626141 
L 171.446009 79.031254 
L 172.169071 83.039712 
L 172.892132 78.840375 
L 173.615193 78.776749 
L 174.338255 75.659059 
L 175.061316 80.335593 
L 175.784377 75.37274 
L 176.507439 76.327135 
L 177.2305 74.86373 
L 177.953561 77.822354 
L 178.676623 73.909335 
L 180.122745 75.881751 
L 180.845807 74.990982 
L 181.568868 71.364282 
L 182.29193 73.304885 
L 183.014991 72.95494 
L 183.738052 74.16384 
L 184.461114 69.996316 
L 185.184175 75.499993 
L 185.907236 72.064172 
L 186.630298 69.391866 
L 187.353359 72.414116 
L 188.799482 70.059943 
L 189.522543 69.169174 
L 190.245604 70.409887 
L 190.968666 69.773624 
L 191.691727 68.819229 
L 192.414788 69.010108 
L 193.13785 68.469285 
L 193.860911 67.101319 
L 194.583972 68.214779 
L 195.307034 66.496869 
L 196.030095 67.833021 
L 196.753157 67.801208 
L 197.476218 66.21055 
L 198.199279 64.30176 
L 198.922341 63.69731 
L 199.645402 65.637913 
L 200.368463 64.524453 
L 201.091525 63.729124 
L 201.814586 64.938024 
L 202.537647 63.538245 
L 203.98377 62.392971 
L 204.706831 62.774729 
L 205.429893 62.456597 
L 206.152954 62.011213 
L 206.876015 60.325115 
L 207.599077 61.597642 
L 208.322138 61.27951 
L 209.045199 61.184071 
L 209.768261 61.343136 
L 210.491322 60.643247 
L 211.214383 61.438576 
L 211.937445 60.802313 
L 212.660506 60.420555 
L 214.106629 59.370721 
L 216.275813 59.307094 
L 216.998874 59.020776 
L 217.721936 59.275281 
L 218.444997 58.607205 
L 219.168058 58.16182 
L 219.89112 58.639018 
L 220.614181 58.670831 
L 221.337242 58.320886 
L 222.783365 58.670831 
L 223.506426 58.734457 
L 224.229488 58.575392 
L 224.952549 58.988963 
L 225.67561 87.588994 
L 226.398672 85.616578 
L 227.121733 90.77031 
L 227.844794 88.066192 
L 228.567856 83.866854 
L 229.290917 85.171194 
L 230.013979 85.107568 
L 230.73704 88.988773 
L 231.460101 85.457512 
L 232.183163 79.922022 
L 232.906224 85.489326 
L 233.629285 83.294217 
L 234.352347 83.357844 
L 235.075408 82.753394 
L 235.798469 82.498888 
L 236.521531 83.707789 
L 237.967653 83.580536 
L 238.690715 85.203007 
L 239.413776 83.612349 
L 240.136837 83.071525 
L 240.859899 80.30378 
L 241.58296 78.744935 
L 242.306021 81.894438 
L 243.029083 79.922022 
L 243.752144 79.126693 
L 244.475206 82.848833 
L 245.198267 85.648391 
L 245.921328 90.674871 
L 246.64439 84.566744 
L 247.367451 85.998336 
L 248.090512 79.444825 
L 248.813574 81.894438 
L 249.536635 87.079984 
L 250.259696 85.298447 
L 250.982758 84.280425 
L 251.705819 86.570973 
L 252.42888 84.853062 
L 253.151942 80.876417 
L 253.875003 80.176528 
L 256.044187 76.645267 
L 256.767248 78.299551 
L 257.49031 75.340927 
L 258.213371 76.804333 
L 258.936432 78.013233 
L 259.659494 77.98142 
L 260.382555 79.635704 
L 261.105617 80.590099 
L 261.828678 82.308009 
L 262.551739 78.363178 
L 263.274801 78.49043 
L 263.997862 80.494659 
L 264.720923 76.168069 
L 265.443985 79.063067 
L 266.167046 74.990982 
L 266.890107 75.913564 
L 267.613169 78.808562 
L 268.33623 80.971857 
L 269.059291 74.450159 
L 269.782353 77.37697 
L 270.505414 75.595433 
L 271.228475 75.118235 
L 271.951537 80.685538 
L 272.674598 74.609225 
L 273.397659 78.58587 
L 274.120721 75.659059 
L 274.843782 74.927356 
L 275.566843 75.754498 
L 276.289905 73.941148 
L 277.012966 73.941148 
L 277.736028 75.531806 
L 278.459089 73.432138 
L 279.905212 74.386532 
L 280.628273 75.913564 
L 281.351334 74.322906 
L 282.074396 73.018567 
L 282.797457 74.195653 
L 283.520518 73.55939 
L 284.24358 74.513785 
L 284.966641 74.641038 
L 285.689702 72.827688 
L 286.412764 75.37274 
L 287.135825 73.05038 
L 287.858886 76.836146 
L 288.581948 72.795874 
L 289.305009 77.726914 
L 290.02807 72.318677 
L 290.751132 74.195653 
L 291.474193 71.014337 
L 292.197255 74.513785 
L 292.920316 70.887085 
L 293.643377 70.600766 
L 294.366439 72.000545 
L 295.0895 69.996316 
L 295.812561 71.173403 
L 296.535623 72.891314 
L 297.258684 70.632579 
L 297.981745 67.705769 
L 298.704807 71.650601 
L 299.427868 73.591203 
L 300.150929 68.978295 
L 300.873991 70.696206 
L 301.597052 69.041921 
L 302.320113 67.737582 
L 303.043175 69.83725 
L 303.766236 67.737582 
L 304.489297 70.568953 
L 305.212359 68.596537 
L 305.93542 69.010108 
L 306.658481 67.610329 
L 307.381543 67.610329 
L 308.104604 69.550932 
L 309.550727 69.200987 
L 310.273788 68.11934 
L 310.99685 67.864834 
L 311.719911 65.796979 
L 312.442972 70.409887 
L 313.889095 65.287968 
L 314.612156 64.30176 
L 315.335218 64.492639 
L 316.058279 66.496869 
L 316.78134 67.51489 
L 317.504402 65.733353 
L 318.227463 65.987858 
L 318.950524 67.960274 
L 320.396647 67.610329 
L 321.119708 64.874397 
L 321.84277 66.465055 
L 322.565831 63.251926 
L 323.288892 67.642142 
L 324.011954 63.124674 
L 324.735015 64.651705 
L 325.458077 64.619892 
L 326.181138 63.061047 
L 326.904199 66.592308 
L 327.627261 66.115111 
L 328.350322 61.184071 
L 329.073383 63.506431 
L 329.796445 62.997421 
L 330.519506 62.043026 
L 331.242567 59.657039 
L 331.965629 62.233905 
L 332.68869 61.9794 
L 333.411751 61.502202 
L 334.134813 63.251926 
L 334.857874 62.520223 
L 335.580935 62.170279 
L 336.303997 61.438576 
L 337.027058 62.456597 
L 337.750119 62.679289 
L 338.473181 60.388742 
L 339.196242 61.184071 
L 339.919304 61.215884 
L 340.642365 59.816105 
L 341.365426 60.325115 
L 342.088488 61.406763 
L 342.811549 61.120444 
L 343.53461 60.452368 
L 344.980733 57.525557 
L 345.703794 60.356929 
L 347.149917 59.084402 
L 347.872978 57.55737 
L 348.59604 56.634789 
L 349.319101 56.475723 
L 350.042162 57.620997 
L 350.765224 57.970941 
L 351.488285 57.430118 
L 352.211346 58.734457 
L 352.934408 59.020776 
L 353.657469 58.734457 
L 354.38053 56.571162 
L 355.103592 58.25726 
L 355.826653 57.811876 
L 356.549715 60.452368 
L 357.272776 59.307094 
L 357.995837 58.639018 
L 358.718899 59.148028 
L 359.44196 57.589184 
L 360.165021 56.95292 
L 360.888083 57.239239 
L 361.611144 57.875502 
L 362.334205 59.784292 
L 363.057267 58.639018 
L 363.780328 58.76627 
L 364.503389 57.398305 
L 365.226451 58.86171 
L 365.949512 57.175612 
L 366.672573 58.352699 
L 367.395635 58.066381 
L 368.118696 59.911544 
L 368.841757 58.543578 
L 369.564819 58.511765 
L 370.28788 58.925336 
L 371.010941 57.589184 
L 371.734003 57.65281 
L 372.457064 58.86171 
L 373.180126 58.384513 
L 373.903187 58.479952 
L 374.626248 59.847918 
L 376.072371 57.875502 
L 376.795432 58.76627 
L 377.518494 57.493744 
L 378.241555 60.293302 
L 378.964616 58.893523 
L 379.687678 58.16182 
L 380.410739 60.356929 
L 381.1338 57.780062 
L 381.856862 57.461931 
L 382.579923 60.388742 
L 383.302984 57.780062 
L 384.026046 57.239239 
L 384.749107 59.275281 
L 385.472168 58.098194 
L 386.19523 59.370721 
L 386.918291 59.307094 
L 387.641353 59.020776 
L 388.364414 56.698415 
L 389.087475 59.720665 
L 389.810537 59.084402 
L 390.533598 58.130007 
L 391.256659 58.193634 
L 391.979721 57.684623 
L 392.702782 58.066381 
L 393.425843 59.434347 
L 394.148905 57.875502 
L 394.871966 59.148028 
L 395.595027 57.175612 
L 396.318089 59.338907 
L 397.04115 59.243468 
L 397.764211 60.07061 
L 398.487273 59.084402 
L 398.487273 59.084402 
" clip-path="url(#pa6cd4ea66c)" style="fill: none; stroke: #ff7f0e; stroke-width: 1.5; stroke-linecap: square"/>
   </g>
   <g id="line2d_21">
    <path d="M 73.832727 280.917572 
L 74.555789 273.556643 
L 75.27885 235.962395 
L 76.724973 220.395897 
L 77.448034 219.112236 
L 78.171095 196.140907 
L 78.894157 194.528298 
L 79.617218 203.030047 
L 80.340279 185.072154 
L 81.063341 183.163364 
L 81.786402 173.575514 
L 82.509463 179.345829 
L 83.232525 167.871151 
L 83.955586 167.805331 
L 84.678647 173.224538 
L 85.401709 163.121117 
L 86.12477 162.155752 
L 86.847832 160.214052 
L 87.570893 159.928831 
L 88.293954 156.944976 
L 89.017016 144.943735 
L 89.740077 152.403373 
L 90.463138 149.101386 
L 91.1862 146.545363 
L 91.909261 147.510728 
L 92.632322 149.375637 
L 93.355384 146.962225 
L 94.078445 146.720884 
L 94.801506 146.687974 
L 95.524568 167.980852 
L 96.247629 162.210602 
L 96.97069 169.922551 
L 97.693752 162.397093 
L 98.416813 158.524664 
L 99.139874 162.451944 
L 99.862936 160.587034 
L 100.585997 164.437524 
L 101.309059 154.575444 
L 102.755181 161.442698 
L 103.478243 155.661479 
L 104.201304 153.160307 
L 104.924365 159.884951 
L 105.647427 147.499758 
L 106.370488 154.553504 
L 107.093549 149.123326 
L 107.816611 147.115806 
L 108.539672 147.97147 
L 109.262733 146.347902 
L 109.985795 148.333482 
L 110.708856 147.006105 
L 111.431917 142.914275 
L 112.154979 135.103595 
L 112.87804 142.365772 
L 113.601101 138.570133 
L 114.324163 143.276287 
L 115.047224 137.91193 
L 115.770285 140.226611 
L 116.493347 133.512937 
L 117.216408 132.350111 
L 117.93947 134.566063 
L 118.662531 134.620913 
L 119.385592 136.705223 
L 120.108654 134.796434 
L 120.831715 135.652098 
L 121.554776 128.357011 
L 122.277838 129.596627 
L 123.000899 128.280221 
L 123.72396 128.214401 
L 124.447022 127.413586 
L 125.170083 128.247311 
L 125.893144 126.020389 
L 126.616206 125.888749 
L 127.339267 129.596627 
L 128.062328 126.887024 
L 128.78539 127.720748 
L 129.508451 127.479407 
L 130.231512 122.455121 
L 130.954574 123.058474 
L 131.677635 124.08966 
L 132.400696 123.157205 
L 133.123758 123.091385 
L 133.846819 123.749588 
L 134.569881 123.530187 
L 135.292942 122.049229 
L 136.016003 123.519217 
L 136.739065 122.948774 
L 137.462126 121.226475 
L 138.185187 121.785948 
L 138.908249 145.404477 
L 139.63131 150.538463 
L 140.354371 140.588623 
L 141.077433 144.461053 
L 141.800494 134.09435 
L 142.523555 156.934006 
L 143.246617 145.810369 
L 143.969678 141.367497 
L 144.692739 139.568408 
L 145.415801 151.470918 
L 146.138862 142.793604 
L 146.861923 142.749724 
L 147.584985 148.958775 
L 148.308046 139.765869 
L 149.031108 137.91193 
L 149.754169 143.791879 
L 150.47723 138.603043 
L 151.200292 140.643473 
L 151.923353 141.016455 
L 152.646414 138.789534 
L 153.369476 143.90158 
L 154.092537 138.943115 
L 154.815598 141.685629 
L 155.53866 136.782014 
L 156.261721 136.880744 
L 156.984782 138.624983 
L 157.707844 138.943115 
L 158.430905 131.97713 
L 159.153966 142.826514 
L 159.877028 138.548193 
L 160.600089 135.421727 
L 161.32315 143.309197 
L 162.046212 138.701774 
L 162.769273 131.878399 
L 163.492334 138.493342 
L 164.215396 132.10877 
L 164.938457 131.549297 
L 165.661519 139.864599 
L 166.38458 134.456362 
L 167.830703 140.391162 
L 168.553764 129.695358 
L 169.276825 132.481752 
L 169.999887 132.975405 
L 170.722948 138.438492 
L 171.446009 134.588003 
L 172.169071 135.004865 
L 172.892132 133.326446 
L 173.615193 126.17397 
L 174.338255 130.14513 
L 175.061316 133.436147 
L 175.784377 128.378951 
L 176.507439 129.146855 
L 177.2305 125.877779 
L 177.953561 138.05454 
L 178.676623 126.349491 
L 179.399684 124.15548 
L 180.122745 129.146855 
L 180.845807 123.760558 
L 181.568868 123.793468 
L 182.29193 133.501967 
L 183.014991 122.499002 
L 183.738052 124.24324 
L 184.461114 118.692392 
L 185.184175 130.671693 
L 185.907236 125.658378 
L 186.630298 118.835003 
L 187.353359 130.13416 
L 188.07642 125.899719 
L 188.799482 129.234616 
L 190.968666 117.277255 
L 191.691727 123.815408 
L 192.414788 121.182595 
L 193.13785 125.186665 
L 193.860911 118.19874 
L 194.583972 127.018664 
L 195.307034 122.345421 
L 196.030095 123.124295 
L 196.753157 121.292296 
L 197.476218 117.759938 
L 198.199279 120.743793 
L 198.922341 117.057854 
L 199.645402 118.637542 
L 200.368463 117.244345 
L 201.091525 119.076344 
L 201.814586 117.880608 
L 202.537647 114.699292 
L 203.260709 116.520321 
L 203.98377 116.695842 
L 204.706831 115.522046 
L 205.429893 118.14389 
L 206.152954 114.830933 
L 206.876015 115.543986 
L 207.599077 115.192945 
L 208.322138 113.646167 
L 209.045199 113.744897 
L 209.768261 116.651962 
L 210.491322 113.569376 
L 211.214383 114.710262 
L 211.937445 114.699292 
L 212.660506 115.905998 
L 213.383568 113.920418 
L 214.106629 114.885783 
L 214.82969 113.613257 
L 215.552752 113.218335 
L 216.275813 113.602287 
L 216.998874 113.064754 
L 217.721936 111.375365 
L 218.444997 113.569376 
L 219.168058 112.439461 
L 220.614181 112.933113 
L 221.337242 112.439461 
L 222.060304 112.36267 
L 222.783365 112.614982 
L 223.506426 113.042814 
L 224.229488 112.669832 
L 224.952549 113.042814 
L 225.67561 133.490997 
L 226.398672 141.762419 
L 227.121733 141.696599 
L 227.844794 140.336312 
L 228.567856 138.614013 
L 229.290917 135.849559 
L 230.013979 136.957535 
L 230.73704 146.391782 
L 231.460101 135.026805 
L 232.183163 128.883574 
L 232.906224 143.429867 
L 233.629285 138.01066 
L 234.352347 142.475473 
L 235.075408 138.504313 
L 235.798469 132.273321 
L 236.521531 128.708053 
L 237.244592 134.291811 
L 237.967653 132.756003 
L 238.690715 133.128985 
L 239.413776 137.023355 
L 240.136837 135.410757 
L 240.859899 130.11222 
L 241.58296 130.803334 
L 242.306021 134.08338 
L 243.029083 133.490997 
L 243.752144 126.744413 
L 244.475206 132.229441 
L 245.198267 136.255451 
L 245.921328 143.221436 
L 246.64439 135.915379 
L 247.367451 137.330517 
L 248.090512 132.10877 
L 248.813574 133.271596 
L 249.536635 143.682179 
L 250.259696 136.134781 
L 250.982758 138.109391 
L 251.705819 142.947185 
L 252.42888 125.274426 
L 253.151942 131.450567 
L 253.875003 126.525012 
L 254.598064 129.333346 
L 255.321126 129.640508 
L 256.044187 126.481132 
L 256.767248 138.482372 
L 257.49031 131.779669 
L 258.213371 137.670588 
L 258.936432 135.794709 
L 259.659494 135.739859 
L 260.382555 126.865084 
L 261.105617 126.799263 
L 261.828678 129.991549 
L 262.551739 130.16707 
L 263.274801 134.160171 
L 263.997862 136.11284 
L 264.720923 132.712123 
L 265.443985 126.678593 
L 266.167046 129.739238 
L 266.890107 128.17052 
L 267.613169 138.592073 
L 269.059291 129.081035 
L 269.782353 131.165345 
L 270.505414 129.300436 
L 271.228475 129.936699 
L 271.951537 137.538948 
L 272.674598 124.001899 
L 273.397659 130.814304 
L 274.120721 129.201705 
L 274.843782 124.627192 
L 275.566843 126.10815 
L 276.289905 128.587382 
L 277.012966 126.371431 
L 277.736028 129.651478 
L 278.459089 125.285396 
L 279.18215 125.570617 
L 279.905212 131.231166 
L 280.628273 126.689563 
L 281.351334 126.316581 
L 282.074396 125.559647 
L 282.797457 127.654928 
L 283.520518 126.941874 
L 284.24358 132.0978 
L 284.966641 128.324101 
L 285.689702 126.821203 
L 286.412764 120.974164 
L 287.135825 124.901444 
L 287.858886 131.845489 
L 288.581948 133.96271 
L 289.305009 138.08745 
L 290.02807 127.128365 
L 290.751132 125.208605 
L 291.474193 122.707433 
L 292.197255 125.811958 
L 292.920316 124.320031 
L 293.643377 125.285396 
L 294.366439 124.693013 
L 295.0895 121.467816 
L 295.812561 130.03543 
L 296.535623 122.586762 
L 297.258684 125.888749 
L 297.981745 121.884679 
L 298.704807 124.374881 
L 299.427868 129.322376 
L 300.150929 125.055025 
L 300.873991 126.656653 
L 301.597052 117.858668 
L 302.320113 120.908344 
L 303.043175 123.420486 
L 303.766236 121.248415 
L 304.489297 121.160655 
L 305.93542 132.06489 
L 306.658481 121.445876 
L 308.827666 128.554472 
L 309.550727 124.309061 
L 310.273788 118.13292 
L 310.99685 122.597732 
L 311.719911 124.627192 
L 312.442972 127.764628 
L 313.166034 123.146235 
L 313.889095 116.640992 
L 314.612156 115.796298 
L 315.335218 116.564202 
L 316.058279 117.847698 
L 316.78134 117.529566 
L 317.504402 121.873708 
L 318.227463 120.381781 
L 318.950524 126.865084 
L 319.673586 123.431456 
L 320.396647 120.864463 
L 321.119708 119.635817 
L 321.84277 120.853493 
L 322.565831 117.343076 
L 323.288892 125.197635 
L 324.011954 112.878263 
L 324.735015 121.226475 
L 325.458077 121.050954 
L 326.181138 113.119604 
L 326.904199 116.32286 
L 327.627261 120.10753 
L 328.350322 113.360945 
L 329.073383 115.006454 
L 329.796445 115.543986 
L 330.519506 115.094214 
L 331.242567 113.108634 
L 331.965629 114.743172 
L 332.68869 118.988584 
L 333.411751 117.430836 
L 334.134813 117.705087 
L 334.857874 118.791123 
L 335.580935 117.507626 
L 336.303997 115.763388 
L 337.027058 116.24607 
L 337.750119 115.774358 
L 338.473181 113.602287 
L 339.196242 117.244345 
L 340.642365 110.706192 
L 341.365426 112.593042 
L 342.088488 116.410621 
L 342.811549 118.856943 
L 344.257672 115.225855 
L 344.980733 112.428491 
L 346.426856 118.26456 
L 347.149917 113.284155 
L 347.872978 107.118984 
L 348.59604 113.547436 
L 349.319101 112.625952 
L 350.765224 110.091869 
L 351.488285 113.415796 
L 352.211346 112.614982 
L 352.934408 111.397306 
L 353.657469 114.2934 
L 354.38053 109.258145 
L 355.103592 114.17273 
L 355.826653 117.705087 
L 356.549715 114.063029 
L 357.272776 112.439461 
L 357.995837 110.080899 
L 358.718899 110.848803 
L 359.44196 110.936563 
L 360.165021 113.196395 
L 360.888083 114.655412 
L 361.611144 114.446981 
L 362.334205 113.273185 
L 363.057267 110.662312 
L 363.780328 112.922143 
L 364.503389 109.280085 
L 365.226451 117.386956 
L 365.949512 113.569376 
L 366.672573 113.152514 
L 367.395635 112.987964 
L 368.118696 112.27491 
L 368.841757 113.042814 
L 369.564819 113.196395 
L 370.28788 114.008179 
L 371.010941 111.803198 
L 371.734003 110.508731 
L 372.457064 120.842523 
L 373.180126 110.113809 
L 373.903187 111.221785 
L 374.626248 109.005833 
L 375.34931 107.601666 
L 376.795432 114.721232 
L 377.518494 110.135749 
L 378.241555 113.755867 
L 378.964616 111.013354 
L 379.687678 109.477546 
L 380.410739 116.421591 
L 381.1338 112.406551 
L 381.856862 110.991413 
L 382.579923 113.196395 
L 383.302984 113.679077 
L 384.026046 113.273185 
L 384.749107 114.31534 
L 385.472168 112.27491 
L 386.19523 116.27898 
L 386.918291 115.006454 
L 387.641353 114.863843 
L 388.364414 113.020874 
L 389.087475 114.995484 
L 389.810537 115.489136 
L 390.533598 114.984514 
L 391.256659 112.077449 
L 391.979721 114.19467 
L 392.702782 113.218335 
L 393.425843 111.474096 
L 394.148905 108.457331 
L 394.871966 115.401376 
L 396.318089 118.18777 
L 397.04115 114.403101 
L 397.764211 114.436011 
L 398.487273 113.766837 
L 398.487273 113.766837 
" clip-path="url(#pa6cd4ea66c)" style="fill: none; stroke: #2ca02c; stroke-width: 1.5; stroke-linecap: square"/>
   </g>
   <g id="line2d_22">
    <path d="M 73.832727 293.038387 
L 74.555789 292.020365 
L 76.001911 275.25483 
L 76.724973 276.431917 
L 77.448034 266.219892 
L 78.894157 253.399188 
L 79.617218 256.771383 
L 80.340279 243.85524 
L 81.063341 235.424752 
L 81.786402 236.379147 
L 82.509463 231.384481 
L 83.232525 235.80651 
L 84.678647 219.104601 
L 85.401709 215.000703 
L 86.12477 217.545756 
L 86.847832 216.305043 
L 87.570893 214.650758 
L 88.293954 211.723948 
L 89.017016 210.13329 
L 89.740077 209.210708 
L 90.463138 213.282792 
L 91.1862 205.679447 
L 91.909261 206.31571 
L 92.632322 207.683676 
L 93.355384 205.743073 
L 94.078445 204.279668 
L 94.801506 206.124831 
L 95.524568 223.240312 
L 96.247629 219.613611 
L 96.97069 219.613611 
L 97.693752 212.614716 
L 98.416813 219.89993 
L 99.139874 211.374003 
L 100.585997 201.130165 
L 101.309059 204.184228 
L 102.03212 204.5978 
L 102.755181 202.402691 
L 104.201304 201.702802 
L 104.924365 204.311481 
L 105.647427 191.999788 
L 106.370488 189.263856 
L 107.093549 195.84918 
L 107.816611 199.921265 
L 108.539672 194.831159 
L 109.262733 185.032706 
L 109.985795 189.295669 
L 110.708856 186.750616 
L 111.431917 190.090998 
L 112.154979 189.868306 
L 112.87804 187.005122 
L 113.601101 177.652052 
L 114.324163 182.201334 
L 115.047224 177.238481 
L 115.770285 178.542821 
L 116.493347 181.469632 
L 117.216408 180.674303 
L 117.93947 174.438923 
L 118.662531 174.693428 
L 119.385592 176.570405 
L 120.108654 174.375297 
L 120.831715 173.739034 
L 121.554776 169.348817 
L 122.277838 167.821786 
L 123.000899 170.016894 
L 123.72396 166.199315 
L 124.447022 163.049812 
L 125.170083 169.157938 
L 125.893144 165.881183 
L 126.616206 165.722117 
L 127.339267 163.749701 
L 128.062328 162.63624 
L 128.78539 164.799535 
L 129.508451 160.663825 
L 130.231512 160.950143 
L 130.954574 161.52278 
L 131.677635 161.141022 
L 132.400696 157.132564 
L 133.123758 159.073166 
L 133.846819 157.737014 
L 134.569881 158.150585 
L 135.292942 156.973498 
L 136.016003 158.977727 
L 136.739065 158.246024 
L 137.462126 159.391298 
L 138.185187 158.373277 
L 138.908249 188.50034 
L 139.63131 190.186438 
L 140.354371 183.028477 
L 141.077433 178.956392 
L 141.800494 187.068748 
L 142.523555 190.250064 
L 143.246617 179.84716 
L 143.969678 178.988205 
L 144.692739 187.164187 
L 145.415801 179.210897 
L 146.138862 179.910787 
L 146.861923 187.196001 
L 147.584985 178.256502 
L 148.308046 178.415568 
L 149.031108 178.001997 
L 150.47723 177.5248 
L 151.200292 183.346608 
L 151.923353 177.842931 
L 152.646414 183.537487 
L 154.092537 171.575739 
L 154.815598 178.161063 
L 155.53866 176.983976 
L 156.261721 175.202439 
L 156.984782 182.773971 
L 157.707844 174.661615 
L 158.430905 169.539696 
L 159.153966 178.288316 
L 159.877028 173.357276 
L 160.600089 171.925683 
L 161.32315 173.929913 
L 162.046212 172.752826 
L 162.769273 176.697658 
L 163.492334 168.903433 
L 164.215396 176.156834 
L 164.938457 176.761284 
L 165.661519 177.747492 
L 166.38458 170.17596 
L 167.107641 174.979747 
L 167.830703 170.17596 
L 168.553764 167.503654 
L 169.276825 167.853599 
L 169.999887 161.936351 
L 170.722948 176.538592 
L 171.446009 167.66272 
L 172.169071 170.844036 
L 172.892132 169.285191 
L 173.615193 170.207773 
L 174.338255 166.262941 
L 175.061316 175.329692 
L 175.784377 164.767722 
L 176.507439 161.52278 
L 177.2305 166.390193 
L 177.953561 161.618219 
L 178.676623 166.549259 
L 179.399684 162.668054 
L 180.122745 165.881183 
L 180.845807 156.687179 
L 181.568868 163.367943 
L 183.014991 159.836682 
L 183.738052 158.786848 
L 184.461114 161.809098 
L 185.184175 161.999977 
L 185.907236 157.068937 
L 186.630298 159.61399 
L 187.353359 160.695638 
L 188.07642 163.463383 
L 188.799482 154.905642 
L 189.522543 153.823995 
L 190.245604 157.418882 
L 191.691727 157.100751 
L 192.414788 154.046687 
L 193.13785 160.441132 
L 193.860911 152.8696 
L 194.583972 153.823995 
L 195.307034 153.187732 
L 196.030095 152.8696 
L 196.753157 153.155919 
L 197.476218 149.942789 
L 198.199279 149.529218 
L 198.922341 148.861142 
L 199.645402 148.797516 
L 200.368463 151.597074 
L 201.091525 152.933226 
L 201.814586 152.96504 
L 203.260709 146.602407 
L 203.98377 147.874934 
L 204.706831 148.224879 
L 205.429893 146.538781 
L 206.152954 148.447571 
L 206.876015 145.807078 
L 207.599077 146.761473 
L 208.322138 148.924768 
L 209.045199 147.652242 
L 209.768261 151.119876 
L 210.491322 148.54301 
L 211.214383 147.33411 
L 211.937445 147.493176 
L 212.660506 149.274713 
L 213.383568 147.556802 
L 214.106629 145.42532 
L 214.82969 147.588615 
L 215.552752 151.565261 
L 216.275813 147.874934 
L 216.998874 146.188836 
L 217.721936 144.184607 
L 218.444997 145.966144 
L 219.168058 147.33411 
L 219.89112 147.524989 
L 220.614181 146.061584 
L 221.337242 145.711639 
L 222.060304 145.997957 
L 222.783365 149.020208 
L 223.506426 147.42955 
L 224.229488 147.302297 
L 224.952549 143.70741 
L 225.67561 169.698762 
L 226.398672 176.029581 
L 227.121733 174.820681 
L 227.844794 180.578863 
L 228.567856 172.180189 
L 229.290917 174.343484 
L 230.013979 172.49832 
L 230.73704 180.896995 
L 231.460101 176.156834 
L 232.183163 160.759264 
L 232.906224 171.480299 
L 233.629285 172.561947 
L 234.352347 163.463383 
L 235.075408 174.788868 
L 235.798469 173.10277 
L 236.521531 170.048707 
L 237.244592 173.929913 
L 237.967653 169.889641 
L 238.690715 177.556613 
L 239.413776 176.125021 
L 240.136837 169.380631 
L 240.859899 169.57151 
L 241.58296 163.177064 
L 242.306021 166.581072 
L 243.029083 174.979747 
L 243.752144 167.726346 
L 244.475206 171.798431 
L 245.198267 179.497216 
L 245.921328 180.896995 
L 246.64439 173.134584 
L 247.367451 173.039144 
L 248.090512 171.321233 
L 248.813574 166.581072 
L 249.536635 177.111229 
L 250.259696 166.231128 
L 251.705819 177.42936 
L 252.42888 167.471841 
L 253.151942 173.230023 
L 253.875003 180.006226 
L 254.598064 159.70943 
L 255.321126 168.394423 
L 256.044187 164.576843 
L 256.767248 169.348817 
L 257.49031 163.463383 
L 258.213371 173.166397 
L 258.936432 165.976622 
L 259.659494 164.163272 
L 260.382555 166.485633 
L 261.105617 172.307441 
L 261.828678 169.730575 
L 262.551739 167.917225 
L 263.274801 171.003102 
L 263.997862 165.372172 
L 264.720923 161.650033 
L 265.443985 169.730575 
L 266.167046 164.576843 
L 266.890107 169.826015 
L 267.613169 173.993539 
L 268.33623 170.303212 
L 269.059291 164.099646 
L 269.782353 165.085854 
L 270.505414 164.672283 
L 271.228475 161.077396 
L 271.951537 169.698762 
L 272.674598 160.600198 
L 273.397659 166.96283 
L 274.120721 157.482508 
L 274.843782 168.489862 
L 275.566843 162.922559 
L 276.289905 162.954372 
L 277.736028 165.785743 
L 278.459089 163.208877 
L 279.18215 165.817557 
L 279.905212 165.944809 
L 280.628273 164.513217 
L 281.351334 166.135688 
L 282.074396 157.037124 
L 282.797457 160.186627 
L 283.520518 165.403985 
L 284.24358 168.553488 
L 284.966641 163.177064 
L 285.689702 166.294754 
L 286.412764 156.050916 
L 287.135825 163.304317 
L 287.858886 163.017998 
L 288.581948 162.159043 
L 289.305009 168.712554 
L 290.02807 155.700971 
L 290.751132 163.495196 
L 291.474193 158.914101 
L 292.197255 161.681846 
L 292.920316 152.678721 
L 293.643377 171.353047 
L 294.366439 160.504759 
L 295.0895 164.735909 
L 295.812561 163.399756 
L 296.535623 158.214211 
L 297.258684 157.355256 
L 297.981745 161.872725 
L 298.704807 161.172835 
L 299.427868 161.172835 
L 300.150929 161.395527 
L 300.873991 160.345693 
L 301.597052 156.305421 
L 302.320113 173.10277 
L 303.043175 163.527009 
L 303.766236 157.768827 
L 304.489297 162.73168 
L 305.212359 155.319214 
L 305.93542 162.954372 
L 306.658481 154.333006 
L 307.381543 153.251358 
L 308.104604 156.082729 
L 308.827666 155.160148 
L 309.550727 160.21844 
L 310.273788 156.209982 
L 310.99685 157.959706 
L 311.719911 154.523884 
L 312.442972 166.549259 
L 313.166034 152.901413 
L 313.889095 154.396632 
L 314.612156 152.615095 
L 315.335218 155.38284 
L 316.058279 155.669158 
L 316.78134 155.510092 
L 318.227463 161.204648 
L 318.950524 153.442237 
L 319.673586 163.495196 
L 320.396647 154.842016 
L 321.119708 153.887621 
L 321.84277 161.172835 
L 322.565831 150.769932 
L 324.011954 160.695638 
L 324.735015 151.215316 
L 325.458077 156.718993 
L 326.181138 150.738118 
L 326.904199 153.378611 
L 327.627261 157.450695 
L 328.350322 143.039333 
L 329.073383 143.039333 
L 329.796445 147.970373 
L 330.519506 151.438008 
L 331.242567 153.951248 
L 331.965629 150.388174 
L 332.68869 152.042458 
L 333.411751 146.347902 
L 334.134813 146.920539 
L 334.857874 145.934331 
L 335.580935 145.298068 
L 336.303997 149.879163 
L 337.027058 144.439113 
L 337.750119 147.715868 
L 338.473181 146.8251 
L 339.196242 149.879163 
L 339.919304 147.270484 
L 340.642365 147.015979 
L 341.365426 146.029771 
L 342.811549 150.419987 
L 343.53461 147.461363 
L 344.980733 144.757244 
L 345.703794 145.997957 
L 346.426856 147.874934 
L 347.872978 144.470926 
L 348.59604 150.801745 
L 349.319101 142.275818 
L 350.042162 143.643783 
L 350.765224 148.765702 
L 351.488285 140.939665 
L 352.211346 142.434883 
L 352.934408 141.766807 
L 354.38053 145.616199 
L 355.103592 145.552573 
L 355.826653 151.565261 
L 357.272776 149.879163 
L 357.995837 149.561031 
L 358.718899 145.679826 
L 359.44196 146.697847 
L 360.165021 149.497405 
L 361.611144 143.452905 
L 362.334205 149.052021 
L 363.057267 143.134773 
L 363.780328 146.093397 
L 364.503389 144.725431 
L 365.226451 147.811308 
L 365.949512 145.393507 
L 366.672573 143.866476 
L 367.395635 150.706305 
L 368.118696 145.011749 
L 368.841757 152.296963 
L 369.564819 154.937456 
L 370.28788 159.773056 
L 371.010941 145.679826 
L 371.734003 147.206858 
L 372.457064 153.887621 
L 373.180126 142.212191 
L 373.903187 146.379715 
L 374.626248 145.393507 
L 375.34931 152.96504 
L 376.072371 143.580157 
L 376.795432 142.562136 
L 377.518494 147.843121 
L 378.241555 147.079605 
L 378.964616 150.260921 
L 379.687678 142.371257 
L 380.410739 151.406195 
L 381.1338 142.880268 
L 381.856862 147.556802 
L 382.579923 151.374382 
L 383.302984 144.979936 
L 384.026046 147.620429 
L 384.749107 147.175044 
L 385.472168 141.480489 
L 386.19523 146.538781 
L 386.918291 147.111418 
L 387.641353 153.442237 
L 388.364414 149.401966 
L 389.087475 143.325652 
L 390.533598 154.269379 
L 391.256659 144.152794 
L 391.979721 144.470926 
L 392.702782 147.111418 
L 393.425843 143.61197 
L 394.871966 146.634221 
L 395.595027 148.415758 
L 396.318089 142.371257 
L 397.04115 146.697847 
L 397.764211 144.629991 
L 398.487273 148.702076 
L 398.487273 148.702076 
" clip-path="url(#pa6cd4ea66c)" style="fill: none; stroke: #d62728; stroke-width: 1.5; stroke-linecap: square"/>
   </g>
   <g id="line2d_23">
    <path d="M 350.765224 57.843689 
L 351.488285 56.634789 
L 352.211346 56.284844 
L 352.934408 58.193634 
L 353.657469 58.607205 
L 354.38053 58.670831 
L 355.103592 56.95292 
M 356.549715 57.302865 
L 357.272776 59.402534 
L 357.995837 58.002755 
L 358.718899 59.911544 
L 359.44196 58.925336 
L 360.165021 60.420555 
L 360.888083 59.148028 
L 361.611144 59.847918 
L 362.334205 59.052589 
L 363.057267 58.511765 
L 363.780328 56.34847 
L 364.503389 61.693081 
L 365.226451 58.798084 
L 365.949512 59.593413 
L 366.672573 60.897752 
L 367.395635 60.67506 
L 368.118696 62.297531 
L 368.841757 61.152258 
L 369.564819 61.470389 
L 370.28788 60.7705 
L 371.010941 60.961379 
L 371.734003 61.724894 
L 373.903187 65.033463 
L 374.626248 64.874397 
L 375.34931 61.724894 
L 376.072371 64.778958 
L 376.795432 62.711102 
L 377.518494 62.806542 
L 378.241555 64.874397 
L 378.964616 74.545598 
L 380.410739 63.665497 
L 381.1338 66.465055 
L 381.856862 68.0239 
L 382.579923 64.906211 
L 383.302984 70.632579 
L 384.026046 66.846813 
L 384.749107 71.14159 
L 385.472168 71.364282 
L 386.19523 72.159611 
L 386.918291 71.332469 
L 387.641353 67.578516 
L 388.364414 69.93269 
L 389.087475 70.505327 
L 389.810537 67.133132 
L 390.533598 69.869064 
L 391.256659 74.577411 
L 391.979721 69.869064 
L 392.702782 70.918898 
L 394.148905 76.963398 
L 394.871966 70.4417 
L 395.595027 74.068401 
L 396.318089 67.005879 
L 397.04115 78.363178 
L 397.764211 79.063067 
L 398.487273 78.458617 
L 398.487273 78.458617 
" clip-path="url(#pa6cd4ea66c)" style="fill: none; stroke: #9467bd; stroke-width: 1.5; stroke-linecap: square"/>
   </g>
   <g id="line2d_24">
    <path d="M 350.765224 111.616707 
L 352.211346 109.005833 
L 352.934408 112.033569 
L 353.657469 112.614982 
L 354.38053 111.869018 
L 355.103592 110.837833 
L 355.826653 115.171005 
L 356.549715 110.662312 
L 357.272776 110.508731 
L 357.995837 114.776083 
L 358.718899 118.27553 
L 359.44196 113.953328 
L 360.165021 114.17273 
L 360.888083 113.953328 
L 361.611144 112.132299 
L 362.334205 114.24952 
L 363.057267 114.787053 
L 363.780328 108.950983 
L 364.503389 113.591317 
L 365.226451 108.3586 
L 365.949512 114.381161 
L 366.672573 117.343076 
L 367.395635 117.672177 
L 368.118696 119.493206 
L 368.841757 116.355771 
L 369.564819 119.723578 
L 370.28788 115.247795 
L 371.010941 116.421591 
L 371.734003 119.471266 
L 372.457064 116.662932 
L 373.180126 123.069444 
L 373.903187 117.781878 
L 374.626248 122.22475 
L 375.34931 118.001279 
L 376.072371 121.577517 
L 376.795432 119.515147 
L 377.518494 119.778428 
L 378.241555 119.515147 
L 378.964616 131.637058 
L 380.410739 117.716057 
L 381.1338 124.352941 
L 381.856862 127.270976 
L 382.579923 120.787673 
L 383.302984 126.06427 
L 384.026046 117.913518 
L 384.749107 123.892199 
L 385.472168 126.557922 
L 386.19523 122.871984 
L 386.918291 125.713228 
L 387.641353 123.782498 
L 388.364414 126.535982 
L 389.087475 125.702258 
L 389.810537 124.693013 
L 390.533598 122.466091 
L 391.256659 127.929179 
L 391.979721 120.656032 
L 392.702782 125.406066 
L 393.425843 128.488652 
L 394.148905 134.445392 
L 394.871966 120.414691 
L 395.595027 129.399166 
L 396.318089 120.787673 
L 397.04115 134.08338 
L 397.764211 136.683283 
L 398.487273 135.498517 
L 398.487273 135.498517 
" clip-path="url(#pa6cd4ea66c)" style="fill: none; stroke: #8c564b; stroke-width: 1.5; stroke-linecap: square"/>
   </g>
   <g id="line2d_25">
    <path d="M 350.765224 144.757244 
L 351.488285 142.49851 
L 352.211346 143.834662 
L 352.934408 146.157023 
L 353.657469 144.979936 
L 354.38053 150.35636 
L 355.103592 143.484718 
L 355.826653 139.730765 
L 356.549715 147.238671 
L 357.272776 150.483613 
L 357.995837 157.132564 
L 358.718899 148.956581 
L 359.44196 159.00954 
L 360.165021 149.815537 
L 360.888083 146.920539 
L 361.611144 150.992624 
L 362.334205 137.026646 
L 363.057267 145.648013 
L 363.780328 151.692513 
L 364.503389 159.295859 
L 365.226451 155.478279 
L 365.949512 162.349922 
L 366.672573 158.436903 
L 367.395635 161.204648 
L 368.118696 166.676512 
L 368.841757 158.50053 
L 369.564819 166.199315 
L 370.28788 162.763493 
L 371.010941 166.199315 
L 371.734003 170.303212 
L 372.457064 169.157938 
L 373.180126 173.548155 
L 373.903187 171.225794 
L 374.626248 172.561947 
L 375.34931 166.771951 
L 376.072371 176.347713 
L 376.795432 179.306337 
L 377.518494 179.974413 
L 378.241555 183.06029 
L 378.964616 187.29144 
L 379.687678 179.719908 
L 380.410739 169.666949 
L 381.1338 168.807994 
L 381.856862 182.742158 
L 382.579923 165.75393 
L 383.302984 187.100561 
L 384.026046 175.234252 
L 384.749107 179.878974 
L 385.472168 196.485444 
L 386.19523 192.954183 
L 386.918291 191.395338 
L 387.641353 198.489673 
L 388.364414 187.100561 
L 389.087475 179.051831 
L 389.810537 188.59578 
L 390.533598 195.817367 
L 391.256659 199.953078 
L 391.979721 199.66676 
L 392.702782 190.981767 
L 393.425843 202.307252 
L 394.148905 210.069663 
L 394.871966 193.145062 
L 395.595027 203.420713 
L 396.318089 198.903244 
L 397.04115 205.997579 
L 397.764211 210.483234 
L 398.487273 212.741969 
L 398.487273 212.741969 
" clip-path="url(#pa6cd4ea66c)" style="fill: none; stroke: #e377c2; stroke-width: 1.5; stroke-linecap: square"/>
   </g>
   <g id="patch_3">
    <path d="M 57.6 307.584 
L 57.6 41.472 
" style="fill: none; stroke: #000000; stroke-width: 0.8; stroke-linejoin: miter; stroke-linecap: square"/>
   </g>
   <g id="patch_4">
    <path d="M 414.72 307.584 
L 414.72 41.472 
" style="fill: none; stroke: #000000; stroke-width: 0.8; stroke-linejoin: miter; stroke-linecap: square"/>
   </g>
   <g id="patch_5">
    <path d="M 57.6 307.584 
L 414.72 307.584 
" style="fill: none; stroke: #000000; stroke-width: 0.8; stroke-linejoin: miter; stroke-linecap: square"/>
   </g>
   <g id="patch_6">
    <path d="M 57.6 41.472 
L 414.72 41.472 
" style="fill: none; stroke: #000000; stroke-width: 0.8; stroke-linejoin: miter; stroke-linecap: square"/>
   </g>
   <g id="text_21">
    <!-- Learning Curves -->
    <g transform="translate(187.37625 35.472) scale(0.12 -0.12)">
     <defs>
      <path id="DejaVuSans-4c" d="M 628 4666 
L 1259 4666 
L 1259 531 
L 3531 531 
L 3531 0 
L 628 0 
L 628 4666 
z
" transform="scale(0.015625)"/>
      <path id="DejaVuSans-65" d="M 3597 1894 
L 3597 1613 
L 953 1613 
Q 991 1019 1311 708 
Q 1631 397 2203 397 
Q 2534 397 2845 478 
Q 3156 559 3463 722 
L 3463 178 
Q 3153 47 2828 -22 
Q 2503 -91 2169 -91 
Q 1331 -91 842 396 
Q 353 884 353 1716 
Q 353 2575 817 3079 
Q 1281 3584 2069 3584 
Q 2775 3584 3186 3129 
Q 3597 2675 3597 1894 
z
M 3022 2063 
Q 3016 2534 2758 2815 
Q 2500 3097 2075 3097 
Q 1594 3097 1305 2825 
Q 1016 2553 972 2059 
L 3022 2063 
z
" transform="scale(0.015625)"/>
      <path id="DejaVuSans-6e" d="M 3513 2113 
L 3513 0 
L 2938 0 
L 2938 2094 
Q 2938 2591 2744 2837 
Q 2550 3084 2163 3084 
Q 1697 3084 1428 2787 
Q 1159 2491 1159 1978 
L 1159 0 
L 581 0 
L 581 3500 
L 1159 3500 
L 1159 2956 
Q 1366 3272 1645 3428 
Q 1925 3584 2291 3584 
Q 2894 3584 3203 3211 
Q 3513 2838 3513 2113 
z
" transform="scale(0.015625)"/>
      <path id="DejaVuSans-69" d="M 603 3500 
L 1178 3500 
L 1178 0 
L 603 0 
L 603 3500 
z
M 603 4863 
L 1178 4863 
L 1178 4134 
L 603 4134 
L 603 4863 
z
" transform="scale(0.015625)"/>
      <path id="DejaVuSans-67" d="M 2906 1791 
Q 2906 2416 2648 2759 
Q 2391 3103 1925 3103 
Q 1463 3103 1205 2759 
Q 947 2416 947 1791 
Q 947 1169 1205 825 
Q 1463 481 1925 481 
Q 2391 481 2648 825 
Q 2906 1169 2906 1791 
z
M 3481 434 
Q 3481 -459 3084 -895 
Q 2688 -1331 1869 -1331 
Q 1566 -1331 1297 -1286 
Q 1028 -1241 775 -1147 
L 775 -588 
Q 1028 -725 1275 -790 
Q 1522 -856 1778 -856 
Q 2344 -856 2625 -561 
Q 2906 -266 2906 331 
L 2906 616 
Q 2728 306 2450 153 
Q 2172 0 1784 0 
Q 1141 0 747 490 
Q 353 981 353 1791 
Q 353 2603 747 3093 
Q 1141 3584 1784 3584 
Q 2172 3584 2450 3431 
Q 2728 3278 2906 2969 
L 2906 3500 
L 3481 3500 
L 3481 434 
z
" transform="scale(0.015625)"/>
      <path id="DejaVuSans-20" transform="scale(0.015625)"/>
      <path id="DejaVuSans-43" d="M 4122 4306 
L 4122 3641 
Q 3803 3938 3442 4084 
Q 3081 4231 2675 4231 
Q 1875 4231 1450 3742 
Q 1025 3253 1025 2328 
Q 1025 1406 1450 917 
Q 1875 428 2675 428 
Q 3081 428 3442 575 
Q 3803 722 4122 1019 
L 4122 359 
Q 3791 134 3420 21 
Q 3050 -91 2638 -91 
Q 1578 -91 968 557 
Q 359 1206 359 2328 
Q 359 3453 968 4101 
Q 1578 4750 2638 4750 
Q 3056 4750 3426 4639 
Q 3797 4528 4122 4306 
z
" transform="scale(0.015625)"/>
      <path id="DejaVuSans-76" d="M 191 3500 
L 800 3500 
L 1894 563 
L 2988 3500 
L 3597 3500 
L 2284 0 
L 1503 0 
L 191 3500 
z
" transform="scale(0.015625)"/>
     </defs>
     <use xlink:href="#DejaVuSans-4c"/>
     <use xlink:href="#DejaVuSans-65" x="53.962891"/>
     <use xlink:href="#DejaVuSans-61" x="115.486328"/>
     <use xlink:href="#DejaVuSans-72" x="176.765625"/>
     <use xlink:href="#DejaVuSans-6e" x="216.128906"/>
     <use xlink:href="#DejaVuSans-69" x="279.507812"/>
     <use xlink:href="#DejaVuSans-6e" x="307.291016"/>
     <use xlink:href="#DejaVuSans-67" x="370.669922"/>
     <use xlink:href="#DejaVuSans-20" x="434.146484"/>
     <use xlink:href="#DejaVuSans-43" x="465.933594"/>
     <use xlink:href="#DejaVuSans-75" x="535.757812"/>
     <use xlink:href="#DejaVuSans-72" x="599.136719"/>
     <use xlink:href="#DejaVuSans-76" x="640.25"/>
     <use xlink:href="#DejaVuSans-65" x="699.429688"/>
     <use xlink:href="#DejaVuSans-73" x="760.953125"/>
    </g>
   </g>
   <g id="legend_1">
    <g id="patch_7">
     <path d="M 128.445937 302.584 
L 343.874063 302.584 
Q 345.874063 302.584 345.874063 300.584 
L 345.874063 198.837125 
Q 345.874063 196.837125 343.874063 196.837125 
L 128.445937 196.837125 
Q 126.445937 196.837125 126.445937 198.837125 
L 126.445937 300.584 
Q 126.445937 302.584 128.445937 302.584 
z
" style="fill: #ffffff; opacity: 0.8; stroke: #cccccc; stroke-linejoin: miter"/>
    </g>
    <g id="line2d_26">
     <path d="M 130.445937 204.935563 
L 140.445937 204.935563 
L 150.445937 204.935563 
" style="fill: none; stroke: #1f77b4; stroke-width: 1.5; stroke-linecap: square"/>
    </g>
    <g id="text_22">
     <!-- Train Accuracy -->
     <g transform="translate(158.445937 208.435563) scale(0.1 -0.1)">
      <defs>
       <path id="DejaVuSans-54" d="M -19 4666 
L 3928 4666 
L 3928 4134 
L 2272 4134 
L 2272 0 
L 1638 0 
L 1638 4134 
L -19 4134 
L -19 4666 
z
" transform="scale(0.015625)"/>
      </defs>
      <use xlink:href="#DejaVuSans-54"/>
      <use xlink:href="#DejaVuSans-72" x="46.333984"/>
      <use xlink:href="#DejaVuSans-61" x="87.447266"/>
      <use xlink:href="#DejaVuSans-69" x="148.726562"/>
      <use xlink:href="#DejaVuSans-6e" x="176.509766"/>
      <use xlink:href="#DejaVuSans-20" x="239.888672"/>
      <use xlink:href="#DejaVuSans-41" x="271.675781"/>
      <use xlink:href="#DejaVuSans-63" x="338.333984"/>
      <use xlink:href="#DejaVuSans-63" x="393.314453"/>
      <use xlink:href="#DejaVuSans-75" x="448.294922"/>
      <use xlink:href="#DejaVuSans-72" x="511.673828"/>
      <use xlink:href="#DejaVuSans-61" x="552.787109"/>
      <use xlink:href="#DejaVuSans-63" x="614.066406"/>
      <use xlink:href="#DejaVuSans-79" x="669.046875"/>
     </g>
    </g>
    <g id="line2d_27">
     <path d="M 130.445937 219.613688 
L 140.445937 219.613688 
L 150.445937 219.613688 
" style="fill: none; stroke: #ff7f0e; stroke-width: 1.5; stroke-linecap: square"/>
    </g>
    <g id="text_23">
     <!-- Validation Accuracy -->
     <g transform="translate(158.445937 223.113688) scale(0.1 -0.1)">
      <defs>
       <path id="DejaVuSans-56" d="M 1831 0 
L 50 4666 
L 709 4666 
L 2188 738 
L 3669 4666 
L 4325 4666 
L 2547 0 
L 1831 0 
z
" transform="scale(0.015625)"/>
       <path id="DejaVuSans-6c" d="M 603 4863 
L 1178 4863 
L 1178 0 
L 603 0 
L 603 4863 
z
" transform="scale(0.015625)"/>
       <path id="DejaVuSans-64" d="M 2906 2969 
L 2906 4863 
L 3481 4863 
L 3481 0 
L 2906 0 
L 2906 525 
Q 2725 213 2448 61 
Q 2172 -91 1784 -91 
Q 1150 -91 751 415 
Q 353 922 353 1747 
Q 353 2572 751 3078 
Q 1150 3584 1784 3584 
Q 2172 3584 2448 3432 
Q 2725 3281 2906 2969 
z
M 947 1747 
Q 947 1113 1208 752 
Q 1469 391 1925 391 
Q 2381 391 2643 752 
Q 2906 1113 2906 1747 
Q 2906 2381 2643 2742 
Q 2381 3103 1925 3103 
Q 1469 3103 1208 2742 
Q 947 2381 947 1747 
z
" transform="scale(0.015625)"/>
       <path id="DejaVuSans-74" d="M 1172 4494 
L 1172 3500 
L 2356 3500 
L 2356 3053 
L 1172 3053 
L 1172 1153 
Q 1172 725 1289 603 
Q 1406 481 1766 481 
L 2356 481 
L 2356 0 
L 1766 0 
Q 1100 0 847 248 
Q 594 497 594 1153 
L 594 3053 
L 172 3053 
L 172 3500 
L 594 3500 
L 594 4494 
L 1172 4494 
z
" transform="scale(0.015625)"/>
      </defs>
      <use xlink:href="#DejaVuSans-56"/>
      <use xlink:href="#DejaVuSans-61" x="60.658203"/>
      <use xlink:href="#DejaVuSans-6c" x="121.9375"/>
      <use xlink:href="#DejaVuSans-69" x="149.720703"/>
      <use xlink:href="#DejaVuSans-64" x="177.503906"/>
      <use xlink:href="#DejaVuSans-61" x="240.980469"/>
      <use xlink:href="#DejaVuSans-74" x="302.259766"/>
      <use xlink:href="#DejaVuSans-69" x="341.46875"/>
      <use xlink:href="#DejaVuSans-6f" x="369.251953"/>
      <use xlink:href="#DejaVuSans-6e" x="430.433594"/>
      <use xlink:href="#DejaVuSans-20" x="493.8125"/>
      <use xlink:href="#DejaVuSans-41" x="525.599609"/>
      <use xlink:href="#DejaVuSans-63" x="592.257812"/>
      <use xlink:href="#DejaVuSans-63" x="647.238281"/>
      <use xlink:href="#DejaVuSans-75" x="702.21875"/>
      <use xlink:href="#DejaVuSans-72" x="765.597656"/>
      <use xlink:href="#DejaVuSans-61" x="806.710938"/>
      <use xlink:href="#DejaVuSans-63" x="867.990234"/>
      <use xlink:href="#DejaVuSans-79" x="922.970703"/>
     </g>
    </g>
    <g id="line2d_28">
     <path d="M 130.445937 234.291812 
L 140.445937 234.291812 
L 150.445937 234.291812 
" style="fill: none; stroke: #2ca02c; stroke-width: 1.5; stroke-linecap: square"/>
    </g>
    <g id="text_24">
     <!-- Robust Validation Accuracy -->
     <g transform="translate(158.445937 237.791812) scale(0.1 -0.1)">
      <defs>
       <path id="DejaVuSans-52" d="M 2841 2188 
Q 3044 2119 3236 1894 
Q 3428 1669 3622 1275 
L 4263 0 
L 3584 0 
L 2988 1197 
Q 2756 1666 2539 1819 
Q 2322 1972 1947 1972 
L 1259 1972 
L 1259 0 
L 628 0 
L 628 4666 
L 2053 4666 
Q 2853 4666 3247 4331 
Q 3641 3997 3641 3322 
Q 3641 2881 3436 2590 
Q 3231 2300 2841 2188 
z
M 1259 4147 
L 1259 2491 
L 2053 2491 
Q 2509 2491 2742 2702 
Q 2975 2913 2975 3322 
Q 2975 3731 2742 3939 
Q 2509 4147 2053 4147 
L 1259 4147 
z
" transform="scale(0.015625)"/>
       <path id="DejaVuSans-62" d="M 3116 1747 
Q 3116 2381 2855 2742 
Q 2594 3103 2138 3103 
Q 1681 3103 1420 2742 
Q 1159 2381 1159 1747 
Q 1159 1113 1420 752 
Q 1681 391 2138 391 
Q 2594 391 2855 752 
Q 3116 1113 3116 1747 
z
M 1159 2969 
Q 1341 3281 1617 3432 
Q 1894 3584 2278 3584 
Q 2916 3584 3314 3078 
Q 3713 2572 3713 1747 
Q 3713 922 3314 415 
Q 2916 -91 2278 -91 
Q 1894 -91 1617 61 
Q 1341 213 1159 525 
L 1159 0 
L 581 0 
L 581 4863 
L 1159 4863 
L 1159 2969 
z
" transform="scale(0.015625)"/>
      </defs>
      <use xlink:href="#DejaVuSans-52"/>
      <use xlink:href="#DejaVuSans-6f" x="64.982422"/>
      <use xlink:href="#DejaVuSans-62" x="126.164062"/>
      <use xlink:href="#DejaVuSans-75" x="189.640625"/>
      <use xlink:href="#DejaVuSans-73" x="253.019531"/>
      <use xlink:href="#DejaVuSans-74" x="305.119141"/>
      <use xlink:href="#DejaVuSans-20" x="344.328125"/>
      <use xlink:href="#DejaVuSans-56" x="376.115234"/>
      <use xlink:href="#DejaVuSans-61" x="436.773438"/>
      <use xlink:href="#DejaVuSans-6c" x="498.052734"/>
      <use xlink:href="#DejaVuSans-69" x="525.835938"/>
      <use xlink:href="#DejaVuSans-64" x="553.619141"/>
      <use xlink:href="#DejaVuSans-61" x="617.095703"/>
      <use xlink:href="#DejaVuSans-74" x="678.375"/>
      <use xlink:href="#DejaVuSans-69" x="717.583984"/>
      <use xlink:href="#DejaVuSans-6f" x="745.367188"/>
      <use xlink:href="#DejaVuSans-6e" x="806.548828"/>
      <use xlink:href="#DejaVuSans-20" x="869.927734"/>
      <use xlink:href="#DejaVuSans-41" x="901.714844"/>
      <use xlink:href="#DejaVuSans-63" x="968.373047"/>
      <use xlink:href="#DejaVuSans-63" x="1023.353516"/>
      <use xlink:href="#DejaVuSans-75" x="1078.333984"/>
      <use xlink:href="#DejaVuSans-72" x="1141.712891"/>
      <use xlink:href="#DejaVuSans-61" x="1182.826172"/>
      <use xlink:href="#DejaVuSans-63" x="1244.105469"/>
      <use xlink:href="#DejaVuSans-79" x="1299.085938"/>
     </g>
    </g>
    <g id="line2d_29">
     <path d="M 130.445937 248.969938 
L 140.445937 248.969938 
L 150.445937 248.969938 
" style="fill: none; stroke: #d62728; stroke-width: 1.5; stroke-linecap: square"/>
    </g>
    <g id="text_25">
     <!-- Adversarial Validation Accuracy -->
     <g transform="translate(158.445937 252.469938) scale(0.1 -0.1)">
      <use xlink:href="#DejaVuSans-41"/>
      <use xlink:href="#DejaVuSans-64" x="66.658203"/>
      <use xlink:href="#DejaVuSans-76" x="130.134766"/>
      <use xlink:href="#DejaVuSans-65" x="189.314453"/>
      <use xlink:href="#DejaVuSans-72" x="250.837891"/>
      <use xlink:href="#DejaVuSans-73" x="291.951172"/>
      <use xlink:href="#DejaVuSans-61" x="344.050781"/>
      <use xlink:href="#DejaVuSans-72" x="405.330078"/>
      <use xlink:href="#DejaVuSans-69" x="446.443359"/>
      <use xlink:href="#DejaVuSans-61" x="474.226562"/>
      <use xlink:href="#DejaVuSans-6c" x="535.505859"/>
      <use xlink:href="#DejaVuSans-20" x="563.289062"/>
      <use xlink:href="#DejaVuSans-56" x="595.076172"/>
      <use xlink:href="#DejaVuSans-61" x="655.734375"/>
      <use xlink:href="#DejaVuSans-6c" x="717.013672"/>
      <use xlink:href="#DejaVuSans-69" x="744.796875"/>
      <use xlink:href="#DejaVuSans-64" x="772.580078"/>
      <use xlink:href="#DejaVuSans-61" x="836.056641"/>
      <use xlink:href="#DejaVuSans-74" x="897.335938"/>
      <use xlink:href="#DejaVuSans-69" x="936.544922"/>
      <use xlink:href="#DejaVuSans-6f" x="964.328125"/>
      <use xlink:href="#DejaVuSans-6e" x="1025.509766"/>
      <use xlink:href="#DejaVuSans-20" x="1088.888672"/>
      <use xlink:href="#DejaVuSans-41" x="1120.675781"/>
      <use xlink:href="#DejaVuSans-63" x="1187.333984"/>
      <use xlink:href="#DejaVuSans-63" x="1242.314453"/>
      <use xlink:href="#DejaVuSans-75" x="1297.294922"/>
      <use xlink:href="#DejaVuSans-72" x="1360.673828"/>
      <use xlink:href="#DejaVuSans-61" x="1401.787109"/>
      <use xlink:href="#DejaVuSans-63" x="1463.066406"/>
      <use xlink:href="#DejaVuSans-79" x="1518.046875"/>
     </g>
    </g>
    <g id="line2d_30">
     <path d="M 130.445937 263.648063 
L 140.445937 263.648063 
L 150.445937 263.648063 
" style="fill: none; stroke: #9467bd; stroke-width: 1.5; stroke-linecap: square"/>
    </g>
    <g id="text_26">
     <!-- SWA Validation Accuracy -->
     <g transform="translate(158.445937 267.148063) scale(0.1 -0.1)">
      <defs>
       <path id="DejaVuSans-53" d="M 3425 4513 
L 3425 3897 
Q 3066 4069 2747 4153 
Q 2428 4238 2131 4238 
Q 1616 4238 1336 4038 
Q 1056 3838 1056 3469 
Q 1056 3159 1242 3001 
Q 1428 2844 1947 2747 
L 2328 2669 
Q 3034 2534 3370 2195 
Q 3706 1856 3706 1288 
Q 3706 609 3251 259 
Q 2797 -91 1919 -91 
Q 1588 -91 1214 -16 
Q 841 59 441 206 
L 441 856 
Q 825 641 1194 531 
Q 1563 422 1919 422 
Q 2459 422 2753 634 
Q 3047 847 3047 1241 
Q 3047 1584 2836 1778 
Q 2625 1972 2144 2069 
L 1759 2144 
Q 1053 2284 737 2584 
Q 422 2884 422 3419 
Q 422 4038 858 4394 
Q 1294 4750 2059 4750 
Q 2388 4750 2728 4690 
Q 3069 4631 3425 4513 
z
" transform="scale(0.015625)"/>
       <path id="DejaVuSans-57" d="M 213 4666 
L 850 4666 
L 1831 722 
L 2809 4666 
L 3519 4666 
L 4500 722 
L 5478 4666 
L 6119 4666 
L 4947 0 
L 4153 0 
L 3169 4050 
L 2175 0 
L 1381 0 
L 213 4666 
z
" transform="scale(0.015625)"/>
      </defs>
      <use xlink:href="#DejaVuSans-53"/>
      <use xlink:href="#DejaVuSans-57" x="63.476562"/>
      <use xlink:href="#DejaVuSans-41" x="156.853516"/>
      <use xlink:href="#DejaVuSans-20" x="225.261719"/>
      <use xlink:href="#DejaVuSans-56" x="257.048828"/>
      <use xlink:href="#DejaVuSans-61" x="317.707031"/>
      <use xlink:href="#DejaVuSans-6c" x="378.986328"/>
      <use xlink:href="#DejaVuSans-69" x="406.769531"/>
      <use xlink:href="#DejaVuSans-64" x="434.552734"/>
      <use xlink:href="#DejaVuSans-61" x="498.029297"/>
      <use xlink:href="#DejaVuSans-74" x="559.308594"/>
      <use xlink:href="#DejaVuSans-69" x="598.517578"/>
      <use xlink:href="#DejaVuSans-6f" x="626.300781"/>
      <use xlink:href="#DejaVuSans-6e" x="687.482422"/>
      <use xlink:href="#DejaVuSans-20" x="750.861328"/>
      <use xlink:href="#DejaVuSans-41" x="782.648438"/>
      <use xlink:href="#DejaVuSans-63" x="849.306641"/>
      <use xlink:href="#DejaVuSans-63" x="904.287109"/>
      <use xlink:href="#DejaVuSans-75" x="959.267578"/>
      <use xlink:href="#DejaVuSans-72" x="1022.646484"/>
      <use xlink:href="#DejaVuSans-61" x="1063.759766"/>
      <use xlink:href="#DejaVuSans-63" x="1125.039062"/>
      <use xlink:href="#DejaVuSans-79" x="1180.019531"/>
     </g>
    </g>
    <g id="line2d_31">
     <path d="M 130.445937 278.326188 
L 140.445937 278.326188 
L 150.445937 278.326188 
" style="fill: none; stroke: #8c564b; stroke-width: 1.5; stroke-linecap: square"/>
    </g>
    <g id="text_27">
     <!-- SWA Robust Validation Accuracy -->
     <g transform="translate(158.445937 281.826188) scale(0.1 -0.1)">
      <use xlink:href="#DejaVuSans-53"/>
      <use xlink:href="#DejaVuSans-57" x="63.476562"/>
      <use xlink:href="#DejaVuSans-41" x="156.853516"/>
      <use xlink:href="#DejaVuSans-20" x="225.261719"/>
      <use xlink:href="#DejaVuSans-52" x="257.048828"/>
      <use xlink:href="#DejaVuSans-6f" x="322.03125"/>
      <use xlink:href="#DejaVuSans-62" x="383.212891"/>
      <use xlink:href="#DejaVuSans-75" x="446.689453"/>
      <use xlink:href="#DejaVuSans-73" x="510.068359"/>
      <use xlink:href="#DejaVuSans-74" x="562.167969"/>
      <use xlink:href="#DejaVuSans-20" x="601.376953"/>
      <use xlink:href="#DejaVuSans-56" x="633.164062"/>
      <use xlink:href="#DejaVuSans-61" x="693.822266"/>
      <use xlink:href="#DejaVuSans-6c" x="755.101562"/>
      <use xlink:href="#DejaVuSans-69" x="782.884766"/>
      <use xlink:href="#DejaVuSans-64" x="810.667969"/>
      <use xlink:href="#DejaVuSans-61" x="874.144531"/>
      <use xlink:href="#DejaVuSans-74" x="935.423828"/>
      <use xlink:href="#DejaVuSans-69" x="974.632812"/>
      <use xlink:href="#DejaVuSans-6f" x="1002.416016"/>
      <use xlink:href="#DejaVuSans-6e" x="1063.597656"/>
      <use xlink:href="#DejaVuSans-20" x="1126.976562"/>
      <use xlink:href="#DejaVuSans-41" x="1158.763672"/>
      <use xlink:href="#DejaVuSans-63" x="1225.421875"/>
      <use xlink:href="#DejaVuSans-63" x="1280.402344"/>
      <use xlink:href="#DejaVuSans-75" x="1335.382812"/>
      <use xlink:href="#DejaVuSans-72" x="1398.761719"/>
      <use xlink:href="#DejaVuSans-61" x="1439.875"/>
      <use xlink:href="#DejaVuSans-63" x="1501.154297"/>
      <use xlink:href="#DejaVuSans-79" x="1556.134766"/>
     </g>
    </g>
    <g id="line2d_32">
     <path d="M 130.445937 293.004312 
L 140.445937 293.004312 
L 150.445937 293.004312 
" style="fill: none; stroke: #e377c2; stroke-width: 1.5; stroke-linecap: square"/>
    </g>
    <g id="text_28">
     <!-- SWA Adversarial Validation Accuracy -->
     <g transform="translate(158.445937 296.504312) scale(0.1 -0.1)">
      <use xlink:href="#DejaVuSans-53"/>
      <use xlink:href="#DejaVuSans-57" x="63.476562"/>
      <use xlink:href="#DejaVuSans-41" x="156.853516"/>
      <use xlink:href="#DejaVuSans-20" x="225.261719"/>
      <use xlink:href="#DejaVuSans-41" x="257.048828"/>
      <use xlink:href="#DejaVuSans-64" x="323.707031"/>
      <use xlink:href="#DejaVuSans-76" x="387.183594"/>
      <use xlink:href="#DejaVuSans-65" x="446.363281"/>
      <use xlink:href="#DejaVuSans-72" x="507.886719"/>
      <use xlink:href="#DejaVuSans-73" x="549"/>
      <use xlink:href="#DejaVuSans-61" x="601.099609"/>
      <use xlink:href="#DejaVuSans-72" x="662.378906"/>
      <use xlink:href="#DejaVuSans-69" x="703.492188"/>
      <use xlink:href="#DejaVuSans-61" x="731.275391"/>
      <use xlink:href="#DejaVuSans-6c" x="792.554688"/>
      <use xlink:href="#DejaVuSans-20" x="820.337891"/>
      <use xlink:href="#DejaVuSans-56" x="852.125"/>
      <use xlink:href="#DejaVuSans-61" x="912.783203"/>
      <use xlink:href="#DejaVuSans-6c" x="974.0625"/>
      <use xlink:href="#DejaVuSans-69" x="1001.845703"/>
      <use xlink:href="#DejaVuSans-64" x="1029.628906"/>
      <use xlink:href="#DejaVuSans-61" x="1093.105469"/>
      <use xlink:href="#DejaVuSans-74" x="1154.384766"/>
      <use xlink:href="#DejaVuSans-69" x="1193.59375"/>
      <use xlink:href="#DejaVuSans-6f" x="1221.376953"/>
      <use xlink:href="#DejaVuSans-6e" x="1282.558594"/>
      <use xlink:href="#DejaVuSans-20" x="1345.9375"/>
      <use xlink:href="#DejaVuSans-41" x="1377.724609"/>
      <use xlink:href="#DejaVuSans-63" x="1444.382812"/>
      <use xlink:href="#DejaVuSans-63" x="1499.363281"/>
      <use xlink:href="#DejaVuSans-75" x="1554.34375"/>
      <use xlink:href="#DejaVuSans-72" x="1617.722656"/>
      <use xlink:href="#DejaVuSans-61" x="1658.835938"/>
      <use xlink:href="#DejaVuSans-63" x="1720.115234"/>
      <use xlink:href="#DejaVuSans-79" x="1775.095703"/>
     </g>
    </g>
   </g>
  </g>
 </g>
 <defs>
  <clipPath id="pa6cd4ea66c">
   <rect x="57.6" y="41.472" width="357.12" height="266.112"/>
  </clipPath>
 </defs>
</svg>
