<?xml version="1.0" encoding="utf-8" standalone="no"?>
<!DOCTYPE svg PUBLIC "-//W3C//DTD SVG 1.1//EN"
  "http://www.w3.org/Graphics/SVG/1.1/DTD/svg11.dtd">
<svg xmlns:xlink="http://www.w3.org/1999/xlink" width="460.8pt" height="345.6pt" viewBox="0 0 460.8 345.6" xmlns="http://www.w3.org/2000/svg" version="1.1">
 <metadata>
  <rdf:RDF xmlns:dc="http://purl.org/dc/elements/1.1/" xmlns:cc="http://creativecommons.org/ns#" xmlns:rdf="http://www.w3.org/1999/02/22-rdf-syntax-ns#">
   <cc:Work>
    <dc:type rdf:resource="http://purl.org/dc/dcmitype/StillImage"/>
    <dc:date>2024-09-20T01:33:53.249848</dc:date>
    <dc:format>image/svg+xml</dc:format>
    <dc:creator>
     <cc:Agent>
      <dc:title>Matplotlib v3.9.1, https://matplotlib.org/</dc:title>
     </cc:Agent>
    </dc:creator>
   </cc:Work>
  </rdf:RDF>
 </metadata>
 <defs>
  <style type="text/css">*{stroke-linejoin: round; stroke-linecap: butt}</style>
 </defs>
 <g id="figure_1">
  <g id="patch_1">
   <path d="M 0 345.6 
L 460.8 345.6 
L 460.8 0 
L 0 0 
z
" style="fill: #ffffff"/>
  </g>
  <g id="axes_1">
   <g id="patch_2">
    <path d="M 57.6 307.584 
L 414.72 307.584 
L 414.72 41.472 
L 57.6 41.472 
z
" style="fill: #ffffff"/>
   </g>
   <g id="matplotlib.axis_1">
    <g id="xtick_1">
     <g id="line2d_1">
      <defs>
       <path id="mce1bd7c8cf" d="M 0 0 
L 0 3.5 
" style="stroke: #000000; stroke-width: 0.8"/>
      </defs>
      <g>
       <use xlink:href="#mce1bd7c8cf" x="73.832727" y="307.584" style="stroke: #000000; stroke-width: 0.8"/>
      </g>
     </g>
     <g id="text_1">
      <!-- 1 -->
      <g transform="translate(70.651477 322.182437) scale(0.1 -0.1)">
       <defs>
        <path id="DejaVuSans-31" d="M 794 531 
L 1825 531 
L 1825 4091 
L 703 3866 
L 703 4441 
L 1819 4666 
L 2450 4666 
L 2450 531 
L 3481 531 
L 3481 0 
L 794 0 
L 794 531 
z
" transform="scale(0.015625)"/>
       </defs>
       <use xlink:href="#DejaVuSans-31"/>
      </g>
     </g>
    </g>
    <g id="xtick_2">
     <g id="line2d_2">
      <g>
       <use xlink:href="#mce1bd7c8cf" x="109.262733" y="307.584" style="stroke: #000000; stroke-width: 0.8"/>
      </g>
     </g>
     <g id="text_2">
      <!-- 50 -->
      <g transform="translate(102.900233 322.182437) scale(0.1 -0.1)">
       <defs>
        <path id="DejaVuSans-35" d="M 691 4666 
L 3169 4666 
L 3169 4134 
L 1269 4134 
L 1269 2991 
Q 1406 3038 1543 3061 
Q 1681 3084 1819 3084 
Q 2600 3084 3056 2656 
Q 3513 2228 3513 1497 
Q 3513 744 3044 326 
Q 2575 -91 1722 -91 
Q 1428 -91 1123 -41 
Q 819 9 494 109 
L 494 744 
Q 775 591 1075 516 
Q 1375 441 1709 441 
Q 2250 441 2565 725 
Q 2881 1009 2881 1497 
Q 2881 1984 2565 2268 
Q 2250 2553 1709 2553 
Q 1456 2553 1204 2497 
Q 953 2441 691 2322 
L 691 4666 
z
" transform="scale(0.015625)"/>
        <path id="DejaVuSans-30" d="M 2034 4250 
Q 1547 4250 1301 3770 
Q 1056 3291 1056 2328 
Q 1056 1369 1301 889 
Q 1547 409 2034 409 
Q 2525 409 2770 889 
Q 3016 1369 3016 2328 
Q 3016 3291 2770 3770 
Q 2525 4250 2034 4250 
z
M 2034 4750 
Q 2819 4750 3233 4129 
Q 3647 3509 3647 2328 
Q 3647 1150 3233 529 
Q 2819 -91 2034 -91 
Q 1250 -91 836 529 
Q 422 1150 422 2328 
Q 422 3509 836 4129 
Q 1250 4750 2034 4750 
z
" transform="scale(0.015625)"/>
       </defs>
       <use xlink:href="#DejaVuSans-35"/>
       <use xlink:href="#DejaVuSans-30" x="63.623047"/>
      </g>
     </g>
    </g>
    <g id="xtick_3">
     <g id="line2d_3">
      <g>
       <use xlink:href="#mce1bd7c8cf" x="145.415801" y="307.584" style="stroke: #000000; stroke-width: 0.8"/>
      </g>
     </g>
     <g id="text_3">
      <!-- 100 -->
      <g transform="translate(135.872051 322.182437) scale(0.1 -0.1)">
       <use xlink:href="#DejaVuSans-31"/>
       <use xlink:href="#DejaVuSans-30" x="63.623047"/>
       <use xlink:href="#DejaVuSans-30" x="127.246094"/>
      </g>
     </g>
    </g>
    <g id="xtick_4">
     <g id="line2d_4">
      <g>
       <use xlink:href="#mce1bd7c8cf" x="181.568868" y="307.584" style="stroke: #000000; stroke-width: 0.8"/>
      </g>
     </g>
     <g id="text_4">
      <!-- 150 -->
      <g transform="translate(172.025118 322.182437) scale(0.1 -0.1)">
       <use xlink:href="#DejaVuSans-31"/>
       <use xlink:href="#DejaVuSans-35" x="63.623047"/>
       <use xlink:href="#DejaVuSans-30" x="127.246094"/>
      </g>
     </g>
    </g>
    <g id="xtick_5">
     <g id="line2d_5">
      <g>
       <use xlink:href="#mce1bd7c8cf" x="217.721936" y="307.584" style="stroke: #000000; stroke-width: 0.8"/>
      </g>
     </g>
     <g id="text_5">
      <!-- 200 -->
      <g transform="translate(208.178186 322.182437) scale(0.1 -0.1)">
       <defs>
        <path id="DejaVuSans-32" d="M 1228 531 
L 3431 531 
L 3431 0 
L 469 0 
L 469 531 
Q 828 903 1448 1529 
Q 2069 2156 2228 2338 
Q 2531 2678 2651 2914 
Q 2772 3150 2772 3378 
Q 2772 3750 2511 3984 
Q 2250 4219 1831 4219 
Q 1534 4219 1204 4116 
Q 875 4013 500 3803 
L 500 4441 
Q 881 4594 1212 4672 
Q 1544 4750 1819 4750 
Q 2544 4750 2975 4387 
Q 3406 4025 3406 3419 
Q 3406 3131 3298 2873 
Q 3191 2616 2906 2266 
Q 2828 2175 2409 1742 
Q 1991 1309 1228 531 
z
" transform="scale(0.015625)"/>
       </defs>
       <use xlink:href="#DejaVuSans-32"/>
       <use xlink:href="#DejaVuSans-30" x="63.623047"/>
       <use xlink:href="#DejaVuSans-30" x="127.246094"/>
      </g>
     </g>
    </g>
    <g id="xtick_6">
     <g id="line2d_6">
      <g>
       <use xlink:href="#mce1bd7c8cf" x="253.875003" y="307.584" style="stroke: #000000; stroke-width: 0.8"/>
      </g>
     </g>
     <g id="text_6">
      <!-- 250 -->
      <g transform="translate(244.331253 322.182437) scale(0.1 -0.1)">
       <use xlink:href="#DejaVuSans-32"/>
       <use xlink:href="#DejaVuSans-35" x="63.623047"/>
       <use xlink:href="#DejaVuSans-30" x="127.246094"/>
      </g>
     </g>
    </g>
    <g id="xtick_7">
     <g id="line2d_7">
      <g>
       <use xlink:href="#mce1bd7c8cf" x="290.02807" y="307.584" style="stroke: #000000; stroke-width: 0.8"/>
      </g>
     </g>
     <g id="text_7">
      <!-- 300 -->
      <g transform="translate(280.48432 322.182437) scale(0.1 -0.1)">
       <defs>
        <path id="DejaVuSans-33" d="M 2597 2516 
Q 3050 2419 3304 2112 
Q 3559 1806 3559 1356 
Q 3559 666 3084 287 
Q 2609 -91 1734 -91 
Q 1441 -91 1130 -33 
Q 819 25 488 141 
L 488 750 
Q 750 597 1062 519 
Q 1375 441 1716 441 
Q 2309 441 2620 675 
Q 2931 909 2931 1356 
Q 2931 1769 2642 2001 
Q 2353 2234 1838 2234 
L 1294 2234 
L 1294 2753 
L 1863 2753 
Q 2328 2753 2575 2939 
Q 2822 3125 2822 3475 
Q 2822 3834 2567 4026 
Q 2313 4219 1838 4219 
Q 1578 4219 1281 4162 
Q 984 4106 628 3988 
L 628 4550 
Q 988 4650 1302 4700 
Q 1616 4750 1894 4750 
Q 2613 4750 3031 4423 
Q 3450 4097 3450 3541 
Q 3450 3153 3228 2886 
Q 3006 2619 2597 2516 
z
" transform="scale(0.015625)"/>
       </defs>
       <use xlink:href="#DejaVuSans-33"/>
       <use xlink:href="#DejaVuSans-30" x="63.623047"/>
       <use xlink:href="#DejaVuSans-30" x="127.246094"/>
      </g>
     </g>
    </g>
    <g id="xtick_8">
     <g id="line2d_8">
      <g>
       <use xlink:href="#mce1bd7c8cf" x="326.181138" y="307.584" style="stroke: #000000; stroke-width: 0.8"/>
      </g>
     </g>
     <g id="text_8">
      <!-- 350 -->
      <g transform="translate(316.637388 322.182437) scale(0.1 -0.1)">
       <use xlink:href="#DejaVuSans-33"/>
       <use xlink:href="#DejaVuSans-35" x="63.623047"/>
       <use xlink:href="#DejaVuSans-30" x="127.246094"/>
      </g>
     </g>
    </g>
    <g id="xtick_9">
     <g id="line2d_9">
      <g>
       <use xlink:href="#mce1bd7c8cf" x="362.334205" y="307.584" style="stroke: #000000; stroke-width: 0.8"/>
      </g>
     </g>
     <g id="text_9">
      <!-- 400 -->
      <g transform="translate(352.790455 322.182437) scale(0.1 -0.1)">
       <defs>
        <path id="DejaVuSans-34" d="M 2419 4116 
L 825 1625 
L 2419 1625 
L 2419 4116 
z
M 2253 4666 
L 3047 4666 
L 3047 1625 
L 3713 1625 
L 3713 1100 
L 3047 1100 
L 3047 0 
L 2419 0 
L 2419 1100 
L 313 1100 
L 313 1709 
L 2253 4666 
z
" transform="scale(0.015625)"/>
       </defs>
       <use xlink:href="#DejaVuSans-34"/>
       <use xlink:href="#DejaVuSans-30" x="63.623047"/>
       <use xlink:href="#DejaVuSans-30" x="127.246094"/>
      </g>
     </g>
    </g>
    <g id="xtick_10">
     <g id="line2d_10">
      <g>
       <use xlink:href="#mce1bd7c8cf" x="398.487273" y="307.584" style="stroke: #000000; stroke-width: 0.8"/>
      </g>
     </g>
     <g id="text_10">
      <!-- 450 -->
      <g transform="translate(388.943523 322.182437) scale(0.1 -0.1)">
       <use xlink:href="#DejaVuSans-34"/>
       <use xlink:href="#DejaVuSans-35" x="63.623047"/>
       <use xlink:href="#DejaVuSans-30" x="127.246094"/>
      </g>
     </g>
    </g>
    <g id="text_11">
     <!-- Epochs -->
     <g transform="translate(218.244375 335.860562) scale(0.1 -0.1)">
      <defs>
       <path id="DejaVuSans-45" d="M 628 4666 
L 3578 4666 
L 3578 4134 
L 1259 4134 
L 1259 2753 
L 3481 2753 
L 3481 2222 
L 1259 2222 
L 1259 531 
L 3634 531 
L 3634 0 
L 628 0 
L 628 4666 
z
" transform="scale(0.015625)"/>
       <path id="DejaVuSans-70" d="M 1159 525 
L 1159 -1331 
L 581 -1331 
L 581 3500 
L 1159 3500 
L 1159 2969 
Q 1341 3281 1617 3432 
Q 1894 3584 2278 3584 
Q 2916 3584 3314 3078 
Q 3713 2572 3713 1747 
Q 3713 922 3314 415 
Q 2916 -91 2278 -91 
Q 1894 -91 1617 61 
Q 1341 213 1159 525 
z
M 3116 1747 
Q 3116 2381 2855 2742 
Q 2594 3103 2138 3103 
Q 1681 3103 1420 2742 
Q 1159 2381 1159 1747 
Q 1159 1113 1420 752 
Q 1681 391 2138 391 
Q 2594 391 2855 752 
Q 3116 1113 3116 1747 
z
" transform="scale(0.015625)"/>
       <path id="DejaVuSans-6f" d="M 1959 3097 
Q 1497 3097 1228 2736 
Q 959 2375 959 1747 
Q 959 1119 1226 758 
Q 1494 397 1959 397 
Q 2419 397 2687 759 
Q 2956 1122 2956 1747 
Q 2956 2369 2687 2733 
Q 2419 3097 1959 3097 
z
M 1959 3584 
Q 2709 3584 3137 3096 
Q 3566 2609 3566 1747 
Q 3566 888 3137 398 
Q 2709 -91 1959 -91 
Q 1206 -91 779 398 
Q 353 888 353 1747 
Q 353 2609 779 3096 
Q 1206 3584 1959 3584 
z
" transform="scale(0.015625)"/>
       <path id="DejaVuSans-63" d="M 3122 3366 
L 3122 2828 
Q 2878 2963 2633 3030 
Q 2388 3097 2138 3097 
Q 1578 3097 1268 2742 
Q 959 2388 959 1747 
Q 959 1106 1268 751 
Q 1578 397 2138 397 
Q 2388 397 2633 464 
Q 2878 531 3122 666 
L 3122 134 
Q 2881 22 2623 -34 
Q 2366 -91 2075 -91 
Q 1284 -91 818 406 
Q 353 903 353 1747 
Q 353 2603 823 3093 
Q 1294 3584 2113 3584 
Q 2378 3584 2631 3529 
Q 2884 3475 3122 3366 
z
" transform="scale(0.015625)"/>
       <path id="DejaVuSans-68" d="M 3513 2113 
L 3513 0 
L 2938 0 
L 2938 2094 
Q 2938 2591 2744 2837 
Q 2550 3084 2163 3084 
Q 1697 3084 1428 2787 
Q 1159 2491 1159 1978 
L 1159 0 
L 581 0 
L 581 4863 
L 1159 4863 
L 1159 2956 
Q 1366 3272 1645 3428 
Q 1925 3584 2291 3584 
Q 2894 3584 3203 3211 
Q 3513 2838 3513 2113 
z
" transform="scale(0.015625)"/>
       <path id="DejaVuSans-73" d="M 2834 3397 
L 2834 2853 
Q 2591 2978 2328 3040 
Q 2066 3103 1784 3103 
Q 1356 3103 1142 2972 
Q 928 2841 928 2578 
Q 928 2378 1081 2264 
Q 1234 2150 1697 2047 
L 1894 2003 
Q 2506 1872 2764 1633 
Q 3022 1394 3022 966 
Q 3022 478 2636 193 
Q 2250 -91 1575 -91 
Q 1294 -91 989 -36 
Q 684 19 347 128 
L 347 722 
Q 666 556 975 473 
Q 1284 391 1588 391 
Q 1994 391 2212 530 
Q 2431 669 2431 922 
Q 2431 1156 2273 1281 
Q 2116 1406 1581 1522 
L 1381 1569 
Q 847 1681 609 1914 
Q 372 2147 372 2553 
Q 372 3047 722 3315 
Q 1072 3584 1716 3584 
Q 2034 3584 2315 3537 
Q 2597 3491 2834 3397 
z
" transform="scale(0.015625)"/>
      </defs>
      <use xlink:href="#DejaVuSans-45"/>
      <use xlink:href="#DejaVuSans-70" x="63.183594"/>
      <use xlink:href="#DejaVuSans-6f" x="126.660156"/>
      <use xlink:href="#DejaVuSans-63" x="187.841797"/>
      <use xlink:href="#DejaVuSans-68" x="242.822266"/>
      <use xlink:href="#DejaVuSans-73" x="306.201172"/>
     </g>
    </g>
   </g>
   <g id="matplotlib.axis_2">
    <g id="ytick_1">
     <g id="line2d_11">
      <defs>
       <path id="m33e881f7b9" d="M 0 0 
L -3.5 0 
" style="stroke: #000000; stroke-width: 0.8"/>
      </defs>
      <g>
       <use xlink:href="#m33e881f7b9" x="57.6" y="286.737614" style="stroke: #000000; stroke-width: 0.8"/>
      </g>
     </g>
     <g id="text_12">
      <!-- 10 -->
      <g transform="translate(37.875 290.536833) scale(0.1 -0.1)">
       <use xlink:href="#DejaVuSans-31"/>
       <use xlink:href="#DejaVuSans-30" x="63.623047"/>
      </g>
     </g>
    </g>
    <g id="ytick_2">
     <g id="line2d_12">
      <g>
       <use xlink:href="#m33e881f7b9" x="57.6" y="257.075288" style="stroke: #000000; stroke-width: 0.8"/>
      </g>
     </g>
     <g id="text_13">
      <!-- 20 -->
      <g transform="translate(37.875 260.874506) scale(0.1 -0.1)">
       <use xlink:href="#DejaVuSans-32"/>
       <use xlink:href="#DejaVuSans-30" x="63.623047"/>
      </g>
     </g>
    </g>
    <g id="ytick_3">
     <g id="line2d_13">
      <g>
       <use xlink:href="#m33e881f7b9" x="57.6" y="227.412961" style="stroke: #000000; stroke-width: 0.8"/>
      </g>
     </g>
     <g id="text_14">
      <!-- 30 -->
      <g transform="translate(37.875 231.21218) scale(0.1 -0.1)">
       <use xlink:href="#DejaVuSans-33"/>
       <use xlink:href="#DejaVuSans-30" x="63.623047"/>
      </g>
     </g>
    </g>
    <g id="ytick_4">
     <g id="line2d_14">
      <g>
       <use xlink:href="#m33e881f7b9" x="57.6" y="197.750635" style="stroke: #000000; stroke-width: 0.8"/>
      </g>
     </g>
     <g id="text_15">
      <!-- 40 -->
      <g transform="translate(37.875 201.549854) scale(0.1 -0.1)">
       <use xlink:href="#DejaVuSans-34"/>
       <use xlink:href="#DejaVuSans-30" x="63.623047"/>
      </g>
     </g>
    </g>
    <g id="ytick_5">
     <g id="line2d_15">
      <g>
       <use xlink:href="#m33e881f7b9" x="57.6" y="168.088309" style="stroke: #000000; stroke-width: 0.8"/>
      </g>
     </g>
     <g id="text_16">
      <!-- 50 -->
      <g transform="translate(37.875 171.887528) scale(0.1 -0.1)">
       <use xlink:href="#DejaVuSans-35"/>
       <use xlink:href="#DejaVuSans-30" x="63.623047"/>
      </g>
     </g>
    </g>
    <g id="ytick_6">
     <g id="line2d_16">
      <g>
       <use xlink:href="#m33e881f7b9" x="57.6" y="138.425983" style="stroke: #000000; stroke-width: 0.8"/>
      </g>
     </g>
     <g id="text_17">
      <!-- 60 -->
      <g transform="translate(37.875 142.225202) scale(0.1 -0.1)">
       <defs>
        <path id="DejaVuSans-36" d="M 2113 2584 
Q 1688 2584 1439 2293 
Q 1191 2003 1191 1497 
Q 1191 994 1439 701 
Q 1688 409 2113 409 
Q 2538 409 2786 701 
Q 3034 994 3034 1497 
Q 3034 2003 2786 2293 
Q 2538 2584 2113 2584 
z
M 3366 4563 
L 3366 3988 
Q 3128 4100 2886 4159 
Q 2644 4219 2406 4219 
Q 1781 4219 1451 3797 
Q 1122 3375 1075 2522 
Q 1259 2794 1537 2939 
Q 1816 3084 2150 3084 
Q 2853 3084 3261 2657 
Q 3669 2231 3669 1497 
Q 3669 778 3244 343 
Q 2819 -91 2113 -91 
Q 1303 -91 875 529 
Q 447 1150 447 2328 
Q 447 3434 972 4092 
Q 1497 4750 2381 4750 
Q 2619 4750 2861 4703 
Q 3103 4656 3366 4563 
z
" transform="scale(0.015625)"/>
       </defs>
       <use xlink:href="#DejaVuSans-36"/>
       <use xlink:href="#DejaVuSans-30" x="63.623047"/>
      </g>
     </g>
    </g>
    <g id="ytick_7">
     <g id="line2d_17">
      <g>
       <use xlink:href="#m33e881f7b9" x="57.6" y="108.763657" style="stroke: #000000; stroke-width: 0.8"/>
      </g>
     </g>
     <g id="text_18">
      <!-- 70 -->
      <g transform="translate(37.875 112.562875) scale(0.1 -0.1)">
       <defs>
        <path id="DejaVuSans-37" d="M 525 4666 
L 3525 4666 
L 3525 4397 
L 1831 0 
L 1172 0 
L 2766 4134 
L 525 4134 
L 525 4666 
z
" transform="scale(0.015625)"/>
       </defs>
       <use xlink:href="#DejaVuSans-37"/>
       <use xlink:href="#DejaVuSans-30" x="63.623047"/>
      </g>
     </g>
    </g>
    <g id="ytick_8">
     <g id="line2d_18">
      <g>
       <use xlink:href="#m33e881f7b9" x="57.6" y="79.10133" style="stroke: #000000; stroke-width: 0.8"/>
      </g>
     </g>
     <g id="text_19">
      <!-- 80 -->
      <g transform="translate(37.875 82.900549) scale(0.1 -0.1)">
       <defs>
        <path id="DejaVuSans-38" d="M 2034 2216 
Q 1584 2216 1326 1975 
Q 1069 1734 1069 1313 
Q 1069 891 1326 650 
Q 1584 409 2034 409 
Q 2484 409 2743 651 
Q 3003 894 3003 1313 
Q 3003 1734 2745 1975 
Q 2488 2216 2034 2216 
z
M 1403 2484 
Q 997 2584 770 2862 
Q 544 3141 544 3541 
Q 544 4100 942 4425 
Q 1341 4750 2034 4750 
Q 2731 4750 3128 4425 
Q 3525 4100 3525 3541 
Q 3525 3141 3298 2862 
Q 3072 2584 2669 2484 
Q 3125 2378 3379 2068 
Q 3634 1759 3634 1313 
Q 3634 634 3220 271 
Q 2806 -91 2034 -91 
Q 1263 -91 848 271 
Q 434 634 434 1313 
Q 434 1759 690 2068 
Q 947 2378 1403 2484 
z
M 1172 3481 
Q 1172 3119 1398 2916 
Q 1625 2713 2034 2713 
Q 2441 2713 2670 2916 
Q 2900 3119 2900 3481 
Q 2900 3844 2670 4047 
Q 2441 4250 2034 4250 
Q 1625 4250 1398 4047 
Q 1172 3844 1172 3481 
z
" transform="scale(0.015625)"/>
       </defs>
       <use xlink:href="#DejaVuSans-38"/>
       <use xlink:href="#DejaVuSans-30" x="63.623047"/>
      </g>
     </g>
    </g>
    <g id="ytick_9">
     <g id="line2d_19">
      <g>
       <use xlink:href="#m33e881f7b9" x="57.6" y="49.439004" style="stroke: #000000; stroke-width: 0.8"/>
      </g>
     </g>
     <g id="text_20">
      <!-- 90 -->
      <g transform="translate(37.875 53.238223) scale(0.1 -0.1)">
       <defs>
        <path id="DejaVuSans-39" d="M 703 97 
L 703 672 
Q 941 559 1184 500 
Q 1428 441 1663 441 
Q 2288 441 2617 861 
Q 2947 1281 2994 2138 
Q 2813 1869 2534 1725 
Q 2256 1581 1919 1581 
Q 1219 1581 811 2004 
Q 403 2428 403 3163 
Q 403 3881 828 4315 
Q 1253 4750 1959 4750 
Q 2769 4750 3195 4129 
Q 3622 3509 3622 2328 
Q 3622 1225 3098 567 
Q 2575 -91 1691 -91 
Q 1453 -91 1209 -44 
Q 966 3 703 97 
z
M 1959 2075 
Q 2384 2075 2632 2365 
Q 2881 2656 2881 3163 
Q 2881 3666 2632 3958 
Q 2384 4250 1959 4250 
Q 1534 4250 1286 3958 
Q 1038 3666 1038 3163 
Q 1038 2656 1286 2365 
Q 1534 2075 1959 2075 
z
" transform="scale(0.015625)"/>
       </defs>
       <use xlink:href="#DejaVuSans-39"/>
       <use xlink:href="#DejaVuSans-30" x="63.623047"/>
      </g>
     </g>
    </g>
    <g id="text_21">
     <!-- Accuracy -->
     <g transform="translate(31.795312 197.356125) rotate(-90) scale(0.1 -0.1)">
      <defs>
       <path id="DejaVuSans-41" d="M 2188 4044 
L 1331 1722 
L 3047 1722 
L 2188 4044 
z
M 1831 4666 
L 2547 4666 
L 4325 0 
L 3669 0 
L 3244 1197 
L 1141 1197 
L 716 0 
L 50 0 
L 1831 4666 
z
" transform="scale(0.015625)"/>
       <path id="DejaVuSans-75" d="M 544 1381 
L 544 3500 
L 1119 3500 
L 1119 1403 
Q 1119 906 1312 657 
Q 1506 409 1894 409 
Q 2359 409 2629 706 
Q 2900 1003 2900 1516 
L 2900 3500 
L 3475 3500 
L 3475 0 
L 2900 0 
L 2900 538 
Q 2691 219 2414 64 
Q 2138 -91 1772 -91 
Q 1169 -91 856 284 
Q 544 659 544 1381 
z
M 1991 3584 
L 1991 3584 
z
" transform="scale(0.015625)"/>
       <path id="DejaVuSans-72" d="M 2631 2963 
Q 2534 3019 2420 3045 
Q 2306 3072 2169 3072 
Q 1681 3072 1420 2755 
Q 1159 2438 1159 1844 
L 1159 0 
L 581 0 
L 581 3500 
L 1159 3500 
L 1159 2956 
Q 1341 3275 1631 3429 
Q 1922 3584 2338 3584 
Q 2397 3584 2469 3576 
Q 2541 3569 2628 3553 
L 2631 2963 
z
" transform="scale(0.015625)"/>
       <path id="DejaVuSans-61" d="M 2194 1759 
Q 1497 1759 1228 1600 
Q 959 1441 959 1056 
Q 959 750 1161 570 
Q 1363 391 1709 391 
Q 2188 391 2477 730 
Q 2766 1069 2766 1631 
L 2766 1759 
L 2194 1759 
z
M 3341 1997 
L 3341 0 
L 2766 0 
L 2766 531 
Q 2569 213 2275 61 
Q 1981 -91 1556 -91 
Q 1019 -91 701 211 
Q 384 513 384 1019 
Q 384 1609 779 1909 
Q 1175 2209 1959 2209 
L 2766 2209 
L 2766 2266 
Q 2766 2663 2505 2880 
Q 2244 3097 1772 3097 
Q 1472 3097 1187 3025 
Q 903 2953 641 2809 
L 641 3341 
Q 956 3463 1253 3523 
Q 1550 3584 1831 3584 
Q 2591 3584 2966 3190 
Q 3341 2797 3341 1997 
z
" transform="scale(0.015625)"/>
       <path id="DejaVuSans-79" d="M 2059 -325 
Q 1816 -950 1584 -1140 
Q 1353 -1331 966 -1331 
L 506 -1331 
L 506 -850 
L 844 -850 
Q 1081 -850 1212 -737 
Q 1344 -625 1503 -206 
L 1606 56 
L 191 3500 
L 800 3500 
L 1894 763 
L 2988 3500 
L 3597 3500 
L 2059 -325 
z
" transform="scale(0.015625)"/>
      </defs>
      <use xlink:href="#DejaVuSans-41"/>
      <use xlink:href="#DejaVuSans-63" x="66.658203"/>
      <use xlink:href="#DejaVuSans-63" x="121.638672"/>
      <use xlink:href="#DejaVuSans-75" x="176.619141"/>
      <use xlink:href="#DejaVuSans-72" x="239.998047"/>
      <use xlink:href="#DejaVuSans-61" x="281.111328"/>
      <use xlink:href="#DejaVuSans-63" x="342.390625"/>
      <use xlink:href="#DejaVuSans-79" x="397.371094"/>
     </g>
    </g>
   </g>
   <g id="line2d_20">
    <path d="M 73.832727 291.554776 
L 76.001911 211.033425 
L 76.724973 193.188569 
L 77.448034 179.781198 
L 78.894157 159.990494 
L 81.063341 142.810075 
L 81.786402 137.886128 
L 84.678647 123.582955 
L 85.401709 119.305647 
L 86.12477 117.60303 
L 86.847832 115.520734 
L 87.570893 111.741754 
L 88.293954 109.386565 
L 89.017016 108.289059 
L 89.740077 105.542328 
L 90.463138 103.679534 
L 91.1862 102.819326 
L 91.909261 101.063317 
L 92.632322 99.010684 
L 94.078445 99.497146 
L 94.801506 99.117468 
L 95.524568 122.621895 
L 96.247629 125.671183 
L 96.97069 122.301542 
L 97.693752 120.640452 
L 98.416813 121.120982 
L 99.139874 117.656422 
L 99.862936 115.46141 
L 101.309059 112.898585 
L 102.03212 112.572299 
L 103.478243 110.389152 
L 104.201304 107.861922 
L 104.924365 107.950909 
L 105.647427 106.444063 
L 106.370488 103.780386 
L 107.093549 103.329518 
L 107.816611 102.481176 
L 108.539672 100.434475 
L 109.262733 99.621728 
L 109.985795 99.099671 
L 110.708856 98.405572 
L 111.431917 97.468243 
L 112.154979 95.819017 
L 112.87804 95.528327 
L 113.601101 93.262125 
L 114.324163 93.279922 
L 115.047224 92.372255 
L 115.770285 90.31369 
L 116.493347 89.797565 
L 117.93947 88.296652 
L 118.662531 86.499115 
L 119.385592 87.549161 
L 120.108654 85.282959 
L 120.831715 83.615936 
L 121.554776 84.025277 
L 122.277838 82.648945 
L 123.000899 81.711615 
L 123.72396 80.246296 
L 124.447022 80.382743 
L 125.170083 78.514016 
L 125.893144 78.288583 
L 127.339267 77.46397 
L 128.78539 74.717239 
L 129.508451 73.904491 
L 130.231512 73.483286 
L 130.954574 73.293447 
L 131.677635 72.551889 
L 132.400696 72.166279 
L 133.123758 72.498497 
L 133.846819 71.211152 
L 135.292942 70.867069 
L 136.016003 71.596762 
L 136.739065 71.359463 
L 138.185187 70.24416 
L 138.908249 91.921388 
L 139.63131 95.925802 
L 141.077433 96.898726 
L 142.523555 96.317345 
L 143.246617 92.929907 
L 143.969678 94.098603 
L 144.692739 94.976607 
L 146.138862 91.962915 
L 146.861923 93.624005 
L 147.584985 92.657013 
L 149.031108 91.268817 
L 149.754169 92.271403 
L 150.47723 91.013721 
L 151.200292 90.420474 
L 151.923353 90.295892 
L 152.646414 88.94329 
L 154.092537 88.878033 
L 154.815598 88.611072 
L 155.53866 87.133888 
L 156.984782 87.549161 
L 157.707844 87.489836 
L 159.153966 85.229567 
L 159.877028 85.443136 
L 160.600089 85.336351 
L 161.32315 84.155791 
L 162.046212 84.743105 
L 162.769273 84.75497 
L 163.492334 84.292237 
L 164.215396 83.390503 
L 164.938457 82.803189 
L 166.38458 81.931116 
L 167.107641 80.359013 
L 167.830703 81.207356 
L 169.276825 80.934462 
L 169.999887 79.083533 
L 170.722948 79.415751 
L 171.446009 79.617455 
L 172.169071 78.834369 
L 172.892132 78.430962 
L 175.061316 77.659741 
L 175.784377 75.209633 
L 176.507439 76.508843 
L 177.2305 76.728344 
L 177.953561 75.221498 
L 179.399684 73.963815 
L 180.122745 74.123992 
L 180.845807 73.311244 
L 181.568868 74.248574 
L 182.29193 72.878174 
L 183.014991 72.973094 
L 183.738052 72.130684 
L 184.461114 70.997583 
L 185.907236 70.950123 
L 186.630298 70.113646 
L 187.353359 70.184835 
L 188.07642 68.855963 
L 188.799482 69.300898 
L 189.522543 68.630529 
L 190.245604 68.612732 
L 190.968666 67.26013 
L 191.691727 67.094021 
L 192.414788 67.900836 
L 193.13785 66.738073 
L 194.583972 66.038042 
L 196.030095 64.780359 
L 196.753157 65.088847 
L 197.476218 62.970957 
L 198.199279 64.721035 
L 198.922341 63.872692 
L 199.645402 62.620942 
L 200.368463 62.193804 
L 201.091525 62.282791 
L 202.537647 61.345462 
L 203.260709 61.149691 
L 203.98377 60.336943 
L 204.706831 60.384403 
L 205.429893 60.295416 
L 206.152954 59.808953 
L 207.599077 59.340289 
L 209.045199 58.100403 
L 209.768261 58.18939 
L 210.491322 57.987687 
L 211.214383 58.503811 
L 211.937445 57.969889 
L 212.660506 57.702928 
L 213.383568 57.115614 
L 214.106629 58.379229 
L 214.82969 56.468976 
L 215.552752 56.884248 
L 216.275813 55.869797 
L 216.998874 56.237609 
L 217.721936 55.988446 
L 219.168058 55.774877 
L 219.89112 56.077433 
L 220.614181 55.697755 
L 222.060304 56.136757 
L 222.783365 55.727417 
L 223.506426 55.66216 
L 224.952549 56.391853 
L 225.67561 79.285237 
L 226.398672 83.254056 
L 227.121733 85.063458 
L 227.844794 84.114264 
L 228.567856 84.179521 
L 229.290917 84.642253 
L 230.013979 84.090534 
L 230.73704 85.033796 
L 231.460101 84.885484 
L 232.183163 82.690472 
L 233.629285 83.50322 
L 234.352347 83.426098 
L 235.075408 82.310794 
L 235.798469 82.198077 
L 236.521531 82.601485 
L 237.244592 81.972644 
L 237.967653 82.92777 
L 238.690715 81.978576 
L 239.413776 81.996373 
L 240.136837 81.331937 
L 240.859899 81.474316 
L 241.58296 80.341216 
L 242.306021 79.641185 
L 243.029083 80.49546 
L 243.752144 79.908146 
L 244.475206 81.403127 
L 245.198267 79.902213 
L 245.921328 79.457278 
L 246.64439 79.94374 
L 247.367451 78.721653 
L 248.090512 79.569995 
L 248.813574 79.303034 
L 249.536635 79.724239 
L 250.259696 79.433548 
L 250.982758 79.890348 
L 251.705819 78.35384 
L 252.42888 77.321591 
L 253.151942 79.285237 
L 253.875003 78.318245 
L 254.598064 79.291169 
L 255.321126 78.28265 
L 256.044187 76.912251 
L 256.767248 77.677539 
L 257.49031 78.199596 
L 258.213371 76.829196 
L 258.936432 76.835129 
L 259.659494 76.609695 
L 260.382555 76.063908 
L 261.105617 75.773217 
L 261.828678 76.508843 
L 262.551739 76.55037 
L 263.274801 76.98344 
L 263.997862 75.808812 
L 264.720923 75.399472 
L 265.443985 76.016448 
L 266.167046 74.966402 
L 266.890107 75.624906 
L 267.613169 74.129925 
L 269.059291 75.090984 
L 269.782353 74.254506 
L 270.505414 74.462143 
L 271.228475 75.001997 
L 271.951537 74.972335 
L 272.674598 73.607868 
L 273.397659 74.313831 
L 274.843782 74.592657 
L 275.566843 74.301966 
L 276.289905 73.234122 
L 277.736028 72.901904 
L 278.459089 73.210392 
L 279.18215 73.222257 
L 279.905212 73.097676 
L 280.628273 73.222257 
L 281.351334 71.845925 
L 282.074396 72.575619 
L 282.797457 73.607868 
L 283.520518 72.717998 
L 284.24358 72.106954 
L 284.966641 72.000169 
L 285.689702 71.573032 
L 286.412764 71.727276 
L 287.135825 70.410269 
L 287.858886 71.353531 
L 288.581948 72.083224 
L 289.305009 70.807744 
L 290.02807 70.62977 
L 290.751132 70.178903 
L 291.474193 70.416201 
L 292.197255 70.24416 
L 292.920316 70.285687 
L 293.643377 68.399163 
L 294.366439 69.911942 
L 295.0895 68.719516 
L 295.812561 68.167797 
L 296.535623 69.259371 
L 297.258684 68.92122 
L 297.981745 68.132202 
L 298.704807 68.660192 
L 299.427868 68.44069 
L 300.150929 68.654259 
L 300.873991 68.262716 
L 301.597052 68.589002 
L 302.320113 68.594934 
L 303.043175 68.049148 
L 303.766236 66.880452 
L 304.489297 66.655018 
L 305.212359 66.660951 
L 305.93542 65.782946 
L 306.658481 66.690613 
L 307.381543 65.765149 
L 308.104604 65.57531 
L 308.827666 65.848203 
L 309.550727 65.699891 
L 310.273788 66.251611 
L 310.99685 65.314281 
L 311.719911 65.622769 
L 312.442972 64.738832 
L 313.166034 64.092193 
L 313.889095 64.525263 
L 314.612156 64.371019 
L 315.335218 65.11851 
L 316.058279 63.451487 
L 317.504402 63.398095 
L 318.227463 63.700651 
L 318.950524 62.537887 
L 319.673586 62.787051 
L 320.396647 63.932017 
L 321.84277 62.146345 
L 322.565831 62.270927 
L 323.288892 62.146345 
L 324.011954 62.407373 
L 324.735015 60.823405 
L 325.458077 61.926844 
L 326.904199 61.618355 
L 327.627261 61.588693 
L 328.350322 60.76408 
L 329.073383 60.586106 
L 329.796445 59.304694 
L 330.519506 60.853067 
L 331.965629 59.524195 
L 332.68869 59.975062 
L 333.411751 59.417411 
L 334.134813 59.476735 
L 334.857874 58.71738 
L 336.303997 58.883489 
L 337.027058 58.343635 
L 337.750119 58.575001 
L 338.473181 58.18939 
L 339.196242 56.682544 
L 339.919304 56.866451 
L 340.642365 55.917256 
L 341.365426 56.718139 
L 342.088488 56.581692 
L 342.811549 56.172352 
L 343.53461 56.314731 
L 346.426856 55.923189 
L 347.149917 55.246888 
L 347.872978 56.107095 
L 348.59604 56.029973 
L 349.319101 55.146036 
L 350.042162 54.576519 
L 350.765224 54.629911 
L 351.488285 55.140103 
L 352.211346 55.009589 
L 354.38053 54.137517 
L 355.103592 54.202774 
L 355.826653 55.086711 
L 356.549715 54.226504 
L 357.272776 54.659574 
L 357.995837 55.608768 
L 358.718899 54.446005 
L 359.44196 55.288415 
L 360.165021 54.730763 
L 360.888083 55.466389 
L 361.611144 55.110441 
L 363.057267 54.084124 
L 363.780328 54.38668 
L 364.503389 54.4816 
L 365.226451 55.537578 
L 365.949512 54.558722 
L 366.672573 54.534992 
L 368.118696 53.876488 
L 368.841757 54.529059 
L 369.564819 54.184976 
L 370.28788 54.303626 
L 371.010941 54.902805 
L 371.734003 54.902805 
L 372.457064 53.829028 
L 373.180126 54.647709 
L 373.903187 55.092644 
L 374.626248 54.50533 
L 375.34931 53.568 
L 376.795432 54.558722 
L 377.518494 55.134171 
L 378.241555 54.184976 
L 378.964616 54.754493 
L 379.687678 54.807885 
L 380.410739 54.398545 
L 381.1338 54.202774 
L 381.856862 54.944332 
L 382.579923 54.297693 
L 383.302984 54.86721 
L 384.026046 54.902805 
L 384.749107 54.113787 
L 386.19523 54.268031 
L 386.918291 55.009589 
L 387.641353 54.671439 
L 388.364414 54.778223 
L 389.087475 54.701101 
L 389.810537 55.021454 
L 390.533598 54.50533 
L 391.256659 54.683303 
L 391.979721 55.104508 
L 392.702782 54.090057 
L 394.148905 55.460456 
L 394.871966 55.098576 
L 395.595027 54.540924 
L 396.318089 54.629911 
L 397.04115 55.590971 
L 397.764211 54.368883 
L 398.487273 54.742628 
L 398.487273 54.742628 
" clip-path="url(#pbcc2879943)" style="fill: none; stroke: #1f77b4; stroke-width: 1.5; stroke-linecap: square"/>
   </g>
   <g id="line2d_21">
    <path d="M 73.832727 280.538188 
L 74.555789 254.227704 
L 76.001911 214.124239 
L 76.724973 202.971205 
L 77.448034 187.48747 
L 78.894157 168.829867 
L 79.617218 167.4654 
L 80.340279 162.808415 
L 81.063341 149.163745 
L 82.509463 140.146398 
L 83.232525 142.044787 
L 83.955586 138.781931 
L 84.678647 130.595129 
L 85.401709 128.489104 
L 86.12477 128.044169 
L 86.847832 122.615963 
L 87.570893 119.056484 
L 88.293954 119.501419 
L 89.017016 119.323445 
L 89.740077 113.806252 
L 90.463138 112.530772 
L 91.1862 112.530772 
L 91.909261 111.61124 
L 92.632322 110.988331 
L 93.355384 109.356903 
L 94.078445 109.297578 
L 94.801506 108.822981 
L 95.524568 137.091178 
L 96.247629 138.159022 
L 96.97069 135.608062 
L 97.693752 135.222452 
L 98.416813 132.90879 
L 99.139874 126.768689 
L 99.862936 130.120531 
L 100.585997 128.103493 
L 101.309059 126.650039 
L 102.03212 120.836223 
L 102.755181 120.272639 
L 103.478243 120.183652 
L 104.201304 114.874096 
L 104.924365 115.94194 
L 106.370488 114.814771 
L 107.816611 111.759552 
L 108.539672 110.751032 
L 109.262733 109.178929 
L 109.985795 108.793319 
L 110.708856 108.051761 
L 111.431917 106.568644 
L 112.154979 109.327241 
L 112.87804 107.606826 
L 113.601101 104.72958 
L 114.324163 102.56423 
L 115.047224 101.615036 
L 115.770285 100.962465 
L 116.493347 100.606517 
L 117.216408 99.538673 
L 117.93947 97.254674 
L 118.662531 97.225012 
L 119.385592 99.034414 
L 120.108654 94.377428 
L 120.831715 97.343661 
L 121.554776 94.52574 
L 122.277838 95.860545 
L 123.000899 93.279922 
L 123.72396 94.229117 
L 124.447022 92.508702 
L 125.170083 92.034105 
L 125.893144 90.639975 
L 126.616206 91.618832 
L 127.339267 91.08491 
L 128.062328 89.661119 
L 128.78539 90.432339 
L 129.508451 88.563612 
L 130.954574 87.64408 
L 131.677635 86.932185 
L 132.400696 87.169483 
L 133.123758 86.961847 
L 133.846819 85.923665 
L 134.569881 86.309276 
L 135.292942 86.87286 
L 136.739065 85.538055 
L 137.462126 85.59738 
L 138.185187 86.131302 
L 138.908249 109.475552 
L 139.63131 109.920487 
L 140.354371 111.284954 
L 141.077433 108.971293 
L 141.800494 110.276435 
L 142.523555 105.471138 
L 143.969678 105.026203 
L 144.692739 103.216802 
L 145.415801 106.301684 
L 146.138862 104.610931 
L 146.861923 102.148958 
L 147.584985 104.314308 
L 148.308046 100.90314 
L 149.031108 103.83971 
L 149.754169 105.055866 
L 150.47723 102.593893 
L 151.200292 101.585374 
L 151.923353 102.089633 
L 152.646414 102.445581 
L 153.369476 104.877892 
L 154.092537 104.254983 
L 154.815598 106.064385 
L 155.53866 104.047347 
L 156.261721 99.746309 
L 156.984782 101.733685 
L 157.707844 100.191244 
L 158.430905 99.983608 
L 159.153966 97.225012 
L 159.877028 98.055557 
L 160.600089 96.780077 
L 162.046212 98.144544 
L 162.769273 100.51753 
L 163.492334 99.064076 
L 164.215396 96.127506 
L 164.938457 94.229117 
L 165.661519 96.809739 
L 166.38458 94.852026 
L 167.107641 93.695195 
L 167.830703 97.017375 
L 168.553764 94.318104 
L 169.276825 93.784182 
L 169.999887 95.356285 
L 170.722948 93.042624 
L 171.446009 95.326623 
L 172.169071 96.216493 
L 172.892132 92.716338 
L 173.615193 91.826468 
L 174.338255 95.445272 
L 175.061316 92.419715 
L 175.784377 91.58917 
L 176.507439 91.173897 
L 177.2305 93.101948 
L 177.953561 90.788287 
L 178.676623 91.08491 
L 179.399684 90.165378 
L 180.122745 91.025586 
L 180.845807 90.165378 
L 181.568868 86.902522 
L 182.29193 92.034105 
L 183.014991 89.216184 
L 183.738052 85.360081 
L 184.461114 89.839092 
L 185.184175 85.953328 
L 185.907236 85.59738 
L 186.630298 88.207665 
L 188.07642 87.199145 
L 188.799482 84.559198 
L 189.522543 85.478731 
L 190.968666 83.965952 
L 191.691727 83.965952 
L 192.414788 83.224394 
L 193.860911 83.016757 
L 194.583972 83.313381 
L 195.307034 81.800602 
L 196.030095 82.008238 
L 196.753157 82.838783 
L 197.476218 81.889589 
L 198.199279 81.65229 
L 198.922341 81.088706 
L 199.645402 82.423511 
L 200.368463 79.931876 
L 201.091525 81.503979 
L 201.814586 79.249642 
L 202.537647 78.211461 
L 203.260709 79.60559 
L 203.98377 79.130993 
L 204.706831 78.033487 
L 205.429893 78.686058 
L 206.152954 78.982681 
L 206.876015 77.143617 
L 207.599077 76.787669 
L 208.322138 77.529227 
L 209.045199 77.173279 
L 209.768261 77.974162 
L 210.491322 77.321591 
L 211.214383 77.024968 
L 211.937445 77.380915 
L 212.660506 76.906318 
L 213.383568 76.906318 
L 214.106629 75.986786 
L 214.82969 76.698682 
L 215.552752 76.16476 
L 216.275813 76.105435 
L 216.998874 75.452864 
L 217.721936 75.808812 
L 218.444997 75.927461 
L 219.168058 75.927461 
L 219.89112 75.690163 
L 221.337242 76.16476 
L 222.060304 75.868137 
L 222.783365 75.334215 
L 223.506426 75.660501 
L 224.229488 76.194422 
L 224.952549 76.016448 
L 225.67561 101.110776 
L 226.398672 98.055557 
L 227.121733 99.746309 
L 227.844794 103.365113 
L 228.567856 104.84823 
L 229.290917 96.780077 
L 230.013979 101.852335 
L 230.73704 98.767453 
L 231.460101 101.526049 
L 232.183163 100.636179 
L 232.906224 100.873478 
L 233.629285 104.521944 
L 234.352347 100.843815 
L 235.075408 94.763039 
L 235.798469 96.898726 
L 236.521531 100.547192 
L 237.244592 99.301375 
L 237.967653 96.097843 
L 238.690715 97.847921 
L 239.413776 98.797115 
L 240.136837 97.432648 
L 240.859899 96.453791 
L 241.58296 95.919869 
L 242.306021 96.661427 
L 243.029083 99.123401 
L 243.752144 94.852026 
L 244.475206 96.839401 
L 245.198267 100.13192 
L 245.921328 101.644698 
L 246.64439 93.309585 
L 247.367451 97.047038 
L 248.090512 97.610622 
L 248.813574 96.750414 
L 249.536635 95.652908 
L 250.259696 98.292855 
L 250.982758 96.216493 
L 251.705819 95.178311 
L 252.42888 94.792701 
L 253.151942 97.373323 
L 253.875003 93.932493 
L 254.598064 93.012961 
L 255.321126 96.780077 
L 256.044187 94.14013 
L 256.767248 97.284336 
L 257.49031 92.775663 
L 258.213371 96.038519 
L 258.936432 96.246155 
L 259.659494 94.941013 
L 260.382555 92.419715 
L 261.105617 92.834987 
L 261.828678 92.775663 
L 262.551739 94.703714 
L 263.274801 89.868755 
L 263.997862 91.440858 
L 264.720923 89.127197 
L 265.443985 92.953637 
L 266.167046 94.52574 
L 266.890107 91.648494 
L 267.613169 93.517221 
L 268.33623 91.796806 
L 269.059291 92.330728 
L 269.782353 93.724857 
L 270.505414 94.051143 
L 271.228475 94.555402 
L 271.951537 93.606208 
L 272.674598 91.58917 
L 273.397659 91.707819 
L 274.120721 90.966261 
L 274.843782 94.14013 
L 275.566843 90.6993 
L 276.289905 92.657013 
L 277.012966 89.305171 
L 277.736028 89.186521 
L 278.459089 92.063767 
L 279.18215 92.004442 
L 279.905212 92.86465 
L 280.628273 88.800911 
L 281.351334 89.601794 
L 282.074396 90.076391 
L 282.797457 90.6993 
L 283.520518 88.889898 
L 284.966641 89.898417 
L 285.689702 85.98299 
L 286.412764 91.47052 
L 287.135825 91.707819 
L 287.858886 88.059353 
L 288.581948 86.309276 
L 289.305009 90.254365 
L 290.02807 88.178002 
L 290.751132 90.521326 
L 291.474193 92.152754 
L 292.197255 87.703405 
L 292.920316 90.135716 
L 293.643377 85.478731 
L 294.366439 87.940704 
L 295.0895 88.593275 
L 295.812561 86.665224 
L 296.535623 86.902522 
L 297.981745 85.716029 
L 298.704807 92.063767 
L 299.427868 87.021171 
L 300.150929 85.745691 
L 300.873991 87.199145 
L 301.597052 85.033796 
L 302.320113 84.20325 
L 303.043175 90.165378 
L 303.766236 83.669329 
L 304.489297 84.262575 
L 305.212359 84.499874 
L 305.93542 83.906627 
L 306.658481 85.716029 
L 307.381543 86.160964 
L 308.104604 85.360081 
L 308.827666 84.292237 
L 309.550727 83.758316 
L 310.273788 83.728653 
L 310.99685 83.580342 
L 311.719911 86.398263 
L 312.442972 83.135407 
L 313.166034 82.838783 
L 313.889095 83.254056 
L 314.612156 82.957433 
L 315.335218 83.04642 
L 316.058279 82.15655 
L 316.78134 84.529536 
L 317.504402 81.148031 
L 318.227463 84.796497 
L 318.950524 81.681953 
L 319.673586 87.288132 
L 320.396647 82.54216 
L 321.119708 83.669329 
L 321.84277 82.838783 
L 322.565831 82.215875 
L 323.288892 84.025277 
L 324.011954 81.118369 
L 324.735015 81.296343 
L 325.458077 82.334524 
L 326.181138 80.970057 
L 326.904199 82.334524 
L 327.627261 81.296343 
L 328.350322 80.554784 
L 329.073383 80.258161 
L 329.796445 83.698991 
L 330.519506 80.465797 
L 331.242567 80.436135 
L 331.965629 79.457278 
L 332.68869 78.745382 
L 333.411751 79.724239 
L 334.134813 80.940395 
L 334.857874 80.88107 
L 335.580935 82.601485 
L 336.303997 78.419097 
L 337.027058 79.486941 
L 337.750119 79.10133 
L 338.473181 77.855513 
L 339.196242 78.686058 
L 339.919304 77.410578 
L 340.642365 78.063149 
L 341.365426 79.130993 
L 342.088488 76.313072 
L 342.811549 78.092811 
L 343.53461 78.241123 
L 344.257672 77.707201 
L 344.980733 76.876656 
L 345.703794 77.44024 
L 346.426856 76.342734 
L 347.149917 77.914837 
L 347.872978 78.122474 
L 348.59604 78.686058 
L 349.319101 77.499565 
L 350.042162 75.541851 
L 350.765224 76.66902 
L 351.488285 77.499565 
L 352.211346 77.232604 
L 352.934408 76.431721 
L 353.657469 78.211461 
L 354.38053 77.202942 
L 355.103592 78.270785 
L 355.826653 76.758007 
L 356.549715 77.974162 
L 357.272776 78.033487 
L 357.995837 77.321591 
L 358.718899 77.499565 
L 359.44196 76.935981 
L 360.165021 77.469902 
L 360.888083 76.016448 
L 361.611144 77.05463 
L 362.334205 77.766526 
L 363.057267 77.529227 
L 363.780328 78.389435 
L 364.503389 77.558889 
L 365.226451 77.143617 
L 365.949512 75.749488 
L 366.672573 76.580033 
L 367.395635 76.046111 
L 368.841757 76.342734 
L 369.564819 78.092811 
L 370.28788 76.520708 
L 371.010941 77.588552 
L 371.734003 77.291928 
L 372.457064 78.300448 
L 373.180126 76.016448 
L 373.903187 77.82585 
L 374.626248 78.656395 
L 375.34931 80.49546 
L 376.072371 77.558889 
L 376.795432 77.647876 
L 377.518494 77.232604 
L 378.241555 75.601176 
L 378.964616 76.758007 
L 379.687678 77.588552 
L 380.410739 79.249642 
L 381.1338 77.647876 
L 381.856862 76.520708 
L 382.579923 79.635252 
L 383.302984 76.520708 
L 384.026046 79.249642 
L 384.749107 78.597071 
L 385.472168 78.775045 
L 386.19523 79.397954 
L 386.918291 76.046111 
L 387.641353 76.105435 
L 388.364414 79.190317 
L 389.087475 78.982681 
L 389.810537 76.639357 
L 390.533598 77.588552 
L 391.256659 77.44024 
L 391.979721 78.686058 
L 392.702782 77.677539 
L 393.425843 76.965643 
L 394.148905 78.804707 
L 394.871966 78.686058 
L 395.595027 78.804707 
L 396.318089 76.609695 
L 397.04115 76.66902 
L 397.764211 77.380915 
L 398.487273 79.902213 
L 398.487273 79.902213 
" clip-path="url(#pbcc2879943)" style="fill: none; stroke: #ff7f0e; stroke-width: 1.5; stroke-linecap: square"/>
   </g>
   <g id="line2d_22">
    <path d="M 73.832727 288.251415 
L 74.555789 274.269208 
L 76.001911 234.726259 
L 76.724973 218.309696 
L 78.171095 201.790849 
L 78.894157 197.576753 
L 79.617218 196.001581 
L 80.340279 196.574371 
L 81.786402 177.488198 
L 82.509463 182.285312 
L 83.232525 182.970614 
L 83.955586 177.365457 
L 84.678647 170.440838 
L 85.401709 168.456531 
L 86.12477 170.655634 
L 86.847832 163.424164 
L 87.570893 160.672727 
L 88.293954 163.393479 
L 89.017016 160.099938 
L 89.740077 160.754555 
L 90.463138 157.890606 
L 91.1862 158.095174 
L 91.909261 158.596365 
L 92.632322 154.781176 
L 93.355384 154.464096 
L 94.078445 154.586836 
L 94.801506 154.014047 
L 95.524568 177.723451 
L 96.247629 171.862584 
L 96.97069 173.693466 
L 97.693752 179.595246 
L 98.416813 175.831199 
L 99.139874 168.180364 
L 99.862936 179.983925 
L 100.585997 178.705376 
L 102.03212 167.515519 
L 102.755181 168.149679 
L 103.478243 165.009564 
L 104.201304 163.127541 
L 104.924365 163.996954 
L 105.647427 168.712241 
L 106.370488 166.022175 
L 107.093549 161.746708 
L 107.816611 154.402725 
L 108.539672 160.048796 
L 109.262733 155.394879 
L 109.985795 154.05496 
L 110.708856 154.985744 
L 111.431917 154.668663 
L 112.154979 157.849692 
L 112.87804 153.431028 
L 113.601101 153.73788 
L 114.324163 157.962205 
L 115.047224 153.154862 
L 115.770285 152.490017 
L 116.493347 149.851093 
L 117.216408 151.651289 
L 117.93947 148.869167 
L 118.662531 144.757355 
L 119.385592 152.326363 
L 120.108654 147.283767 
L 120.831715 146.843946 
L 121.554776 145.565398 
L 122.277838 145.473342 
L 123.000899 143.223097 
L 123.72396 143.356066 
L 124.447022 141.218333 
L 125.170083 145.115349 
L 125.893144 143.979998 
L 126.616206 138.876032 
L 127.339267 138.906717 
L 128.062328 137.99639 
L 128.78539 140.072753 
L 129.508451 138.610094 
L 130.231512 139.418136 
L 130.954574 138.651007 
L 131.677635 137.321317 
L 132.400696 138.333927 
L 133.123758 137.525885 
L 133.846819 137.055379 
L 134.569881 136.185966 
L 135.292942 137.566798 
L 136.016003 137.065607 
L 136.739065 136.768984 
L 138.185187 136.973552 
L 138.908249 163.628732 
L 139.63131 162.442239 
L 140.354371 157.195075 
L 141.077433 153.533312 
L 141.800494 166.05286 
L 142.523555 153.553769 
L 143.246617 154.852774 
L 143.969678 152.285449 
L 144.692739 158.023575 
L 145.415801 154.934602 
L 146.138862 159.302123 
L 146.861923 149.759037 
L 147.584985 156.806397 
L 148.308046 150.168173 
L 149.031108 155.394879 
L 149.754169 158.146316 
L 150.47723 151.825172 
L 151.200292 158.964587 
L 151.923353 152.674128 
L 152.646414 154.014047 
L 153.369476 157.839464 
L 154.092537 150.648907 
L 154.815598 154.402725 
L 155.53866 150.955759 
L 156.261721 148.21455 
L 156.984782 153.666281 
L 157.707844 150.280685 
L 158.430905 149.605611 
L 159.153966 152.111566 
L 159.877028 145.463114 
L 160.600089 149.534013 
L 161.32315 152.950294 
L 162.046212 149.002136 
L 162.769273 147.877014 
L 163.492334 150.423882 
L 164.215396 153.962905 
L 164.938457 146.659835 
L 165.661519 146.782576 
L 166.38458 149.902235 
L 167.107641 145.197176 
L 167.830703 146.905317 
L 168.553764 145.780194 
L 169.276825 145.99499 
L 169.999887 143.090128 
L 170.722948 147.416736 
L 171.446009 146.046132 
L 172.169071 151.671746 
L 172.892132 139.663618 
L 173.615193 149.319216 
L 174.338255 149.452185 
L 175.061316 141.791123 
L 175.784377 147.038286 
L 176.507439 146.751891 
L 177.2305 147.222397 
L 177.953561 144.378905 
L 178.676623 145.350602 
L 179.399684 143.008301 
L 180.122745 146.281385 
L 180.845807 141.975234 
L 181.568868 138.896489 
L 182.29193 143.898171 
L 183.014991 142.588937 
L 183.738052 140.09321 
L 184.461114 148.40889 
L 185.184175 138.978316 
L 185.907236 139.39768 
L 186.630298 142.803733 
L 187.353359 137.505428 
L 188.07642 138.241872 
L 188.799482 138.262329 
L 189.522543 142.588937 
L 190.245604 139.8375 
L 190.968666 140.553488 
L 191.691727 139.305624 
L 192.414788 135.510892 
L 193.13785 140.287549 
L 193.860911 135.316553 
L 194.583972 136.738299 
L 195.307034 130.601266 
L 196.030095 138.047532 
L 196.753157 135.193812 
L 197.476218 137.096292 
L 198.199279 135.65409 
L 198.922341 134.743763 
L 199.645402 135.920028 
L 200.368463 138.098674 
L 201.091525 137.126977 
L 201.814586 134.19143 
L 202.537647 130.335328 
L 203.260709 132.053697 
L 203.98377 131.808216 
L 204.706831 131.951413 
L 205.429893 133.270875 
L 206.152954 130.151217 
L 206.876015 131.603648 
L 207.599077 131.726388 
L 208.322138 130.724006 
L 209.045199 132.053697 
L 209.768261 134.007319 
L 210.491322 132.09461 
L 211.214383 129.650026 
L 212.660506 132.319635 
L 213.383568 131.572963 
L 214.82969 131.000173 
L 215.552752 129.271575 
L 216.275813 130.263729 
L 217.721936 131.644561 
L 218.444997 131.920728 
L 219.89112 130.539895 
L 220.614181 129.629569 
L 221.337242 130.437611 
L 222.060304 130.263729 
L 222.783365 130.693321 
L 223.506426 130.458068 
L 224.229488 130.345556 
L 224.952549 130.683093 
L 225.67561 152.346819 
L 226.398672 154.760719 
L 227.121733 158.514537 
L 227.844794 159.087327 
L 228.567856 161.746708 
L 229.290917 149.513556 
L 230.013979 157.225761 
L 230.73704 150.05566 
L 231.460101 152.510474 
L 232.183163 154.545923 
L 232.906224 155.0062 
L 233.629285 156.458631 
L 234.352347 157.338273 
L 235.075408 146.445039 
L 235.798469 149.779494 
L 236.521531 160.509073 
L 237.244592 153.891306 
L 237.967653 153.021893 
L 238.690715 155.435793 
L 239.413776 153.829936 
L 240.136837 155.722187 
L 240.859899 150.536395 
L 241.58296 158.708877 
L 242.306021 155.875613 
L 243.029083 151.211468 
L 243.752144 151.8354 
L 244.475206 148.889624 
L 245.198267 156.857539 
L 245.921328 150.577308 
L 246.64439 150.526166 
L 247.367451 155.497163 
L 248.090512 153.267374 
L 248.813574 154.320898 
L 249.536635 144.931238 
L 250.259696 154.065189 
L 250.982758 150.597765 
L 251.705819 151.0069 
L 252.42888 153.594683 
L 253.151942 146.352984 
L 253.875003 146.404126 
L 254.598064 149.513556 
L 255.321126 145.309688 
L 256.044187 153.298059 
L 256.767248 151.641061 
L 257.49031 140.901253 
L 258.213371 150.792104 
L 258.936432 150.045432 
L 259.659494 146.005219 
L 260.382555 149.902235 
L 261.105617 148.071353 
L 261.828678 144.78804 
L 262.551739 151.528548 
L 263.274801 143.100356 
L 263.997862 144.491417 
L 264.720923 147.191712 
L 265.443985 146.209786 
L 266.167046 149.370358 
L 266.890107 149.339673 
L 267.613169 156.346119 
L 268.33623 149.820407 
L 269.059291 146.076817 
L 269.782353 152.479788 
L 270.505414 153.553769 
L 271.228475 144.215251 
L 271.951537 153.79925 
L 272.674598 144.603929 
L 273.397659 146.62915 
L 274.120721 145.442657 
L 274.843782 143.212869 
L 276.289905 149.002136 
L 277.012966 148.552087 
L 277.736028 139.551106 
L 278.459089 147.253082 
L 279.18215 142.865103 
L 279.905212 145.084664 
L 280.628273 141.545641 
L 281.351334 146.179101 
L 282.074396 144.481189 
L 282.797457 145.790422 
L 283.520518 148.971451 
L 284.24358 143.20264 
L 284.966641 141.862721 
L 285.689702 142.865103 
L 286.412764 150.648907 
L 287.135825 141.177419 
L 287.858886 143.427665 
L 288.581948 134.907417 
L 289.305009 146.833718 
L 290.02807 143.151498 
L 290.751132 137.791823 
L 291.474193 143.570862 
L 292.197255 144.921009 
L 292.920316 148.357748 
L 293.643377 140.870568 
L 294.366439 140.584173 
L 295.0895 142.486653 
L 295.812561 141.279703 
L 296.535623 142.169573 
L 297.258684 131.797987 
L 297.981745 140.543259 
L 298.704807 150.812561 
L 299.427868 142.394597 
L 300.150929 140.696685 
L 300.873991 137.648625 
L 301.597052 141.637697 
L 302.320113 139.060143 
L 303.043175 147.232625 
L 303.766236 140.72737 
L 304.489297 140.78874 
L 305.212359 138.415754 
L 305.93542 140.062525 
L 306.658481 143.51972 
L 307.381543 135.224497 
L 308.104604 142.609394 
L 308.827666 132.565116 
L 309.550727 134.170973 
L 310.273788 137.658854 
L 310.99685 139.101056 
L 311.719911 141.576326 
L 312.442972 139.285167 
L 313.166034 134.641479 
L 313.889095 131.439994 
L 314.612156 136.421219 
L 315.335218 138.436211 
L 316.058279 136.953095 
L 316.78134 144.276621 
L 317.504402 136.042768 
L 318.227463 143.468578 
L 318.950524 136.022312 
L 319.673586 142.466196 
L 320.396647 136.308706 
L 321.119708 137.311088 
L 321.84277 140.226179 
L 322.565831 136.687157 
L 323.288892 140.175037 
L 324.011954 134.027776 
L 324.735015 132.104839 
L 325.458077 133.17882 
L 326.181138 130.488753 
L 326.904199 136.963323 
L 327.627261 132.401462 
L 328.350322 130.008019 
L 329.073383 131.593419 
L 329.796445 138.2521 
L 330.519506 137.536113 
L 331.242567 135.848429 
L 331.965629 135.193812 
L 332.68869 132.800369 
L 333.411751 133.598183 
L 334.857874 127.502064 
L 335.580935 133.864122 
L 336.303997 125.957577 
L 337.027058 134.232344 
L 337.750119 129.332946 
L 338.473181 128.719242 
L 339.196242 131.235426 
L 339.919304 124.474461 
L 340.642365 132.92311 
L 341.365426 133.403844 
L 342.088488 130.018248 
L 342.811549 132.084382 
L 343.53461 131.562734 
L 344.257672 128.238508 
L 344.980733 129.026094 
L 345.703794 130.560352 
L 346.426856 127.931656 
L 347.149917 131.77753 
L 347.872978 132.646943 
L 348.59604 126.601966 
L 349.319101 132.810598 
L 350.042162 126.203059 
L 350.765224 128.709014 
L 351.488285 127.266811 
L 352.211346 131.920728 
L 352.934408 128.125996 
L 353.657469 131.030858 
L 354.38053 128.473761 
L 355.103592 130.437611 
L 355.826653 131.235426 
L 356.549715 127.665718 
L 357.272776 129.210205 
L 357.995837 128.381705 
L 358.718899 132.340092 
L 359.44196 126.786077 
L 360.165021 126.479225 
L 360.888083 131.235426 
L 361.611144 126.724707 
L 362.334205 129.885279 
L 363.057267 132.145752 
L 363.780328 129.067007 
L 364.503389 127.97257 
L 365.226451 130.079618 
L 365.949512 123.390252 
L 366.672573 131.419537 
L 367.395635 125.037022 
L 368.118696 128.657872 
L 368.841757 126.141688 
L 369.564819 129.537513 
L 370.28788 127.860058 
L 371.734003 131.184284 
L 372.457064 131.296796 
L 373.180126 131.951413 
L 373.903187 130.938803 
L 374.626248 131.235426 
L 375.34931 135.224497 
L 376.072371 129.721624 
L 376.795432 128.698785 
L 377.518494 124.188066 
L 378.241555 129.30226 
L 378.964616 129.435229 
L 379.687678 126.82699 
L 380.410739 129.026094 
L 381.1338 129.159063 
L 381.856862 125.395016 
L 382.579923 130.151217 
L 383.302984 129.680711 
L 384.026046 132.473061 
L 384.749107 130.273957 
L 385.472168 131.000173 
L 386.19523 131.450222 
L 386.918291 128.473761 
L 387.641353 128.60673 
L 388.364414 132.749227 
L 389.087475 135.684775 
L 389.810537 131.071772 
L 390.533598 134.109603 
L 391.256659 131.491135 
L 391.979721 132.023012 
L 392.702782 128.054397 
L 393.425843 131.133142 
L 394.148905 128.98518 
L 394.871966 135.39838 
L 395.595027 132.953795 
L 396.318089 129.322717 
L 397.04115 130.406926 
L 397.764211 130.028476 
L 398.487273 132.360548 
L 398.487273 132.360548 
" clip-path="url(#pbcc2879943)" style="fill: none; stroke: #2ca02c; stroke-width: 1.5; stroke-linecap: square"/>
   </g>
   <g id="line2d_23">
    <path d="M 73.832727 295.488 
L 74.555789 292.314131 
L 76.001911 274.368424 
L 76.724973 270.630971 
L 77.448034 260.486455 
L 78.171095 258.588066 
L 78.894157 246.01124 
L 79.617218 249.778355 
L 80.340279 241.650878 
L 81.063341 227.383299 
L 81.786402 227.620598 
L 82.509463 225.306936 
L 83.955586 217.238783 
L 84.678647 205.818788 
L 85.401709 211.335981 
L 86.12477 212.997071 
L 86.847832 203.6831 
L 87.570893 208.132449 
L 88.293954 200.004972 
L 89.017016 204.157698 
L 89.740077 196.089545 
L 90.463138 195.703935 
L 91.1862 192.500403 
L 91.909261 193.360611 
L 92.632322 193.657234 
L 93.355384 192.559728 
L 94.078445 192.648715 
L 94.801506 190.216404 
L 95.524568 217.179459 
L 96.247629 224.980651 
L 96.97069 221.243198 
L 97.693752 220.827925 
L 98.416813 217.476082 
L 99.139874 214.658161 
L 99.862936 218.454939 
L 100.585997 209.229955 
L 101.309059 206.35271 
L 102.03212 198.551518 
L 102.755181 198.254895 
L 103.478243 203.80175 
L 104.201304 198.076921 
L 104.924365 200.36092 
L 105.647427 203.208503 
L 106.370488 190.691002 
L 107.093549 199.915985 
L 107.816611 193.330949 
L 108.539672 196.178532 
L 109.262733 192.648715 
L 109.985795 186.419627 
L 110.708856 193.805546 
L 111.431917 185.470432 
L 112.154979 194.517442 
L 112.87804 188.76295 
L 113.601101 184.254277 
L 114.324163 184.254277 
L 115.047224 185.084822 
L 115.770285 182.38555 
L 116.493347 181.851628 
L 117.93947 177.817552 
L 118.662531 179.508305 
L 119.385592 179.537967 
L 120.108654 175.859838 
L 120.831715 172.863944 
L 121.554776 175.23693 
L 122.277838 179.152357 
L 123.000899 173.813138 
L 123.72396 178.292149 
L 124.447022 174.584358 
L 125.170083 173.8428 
L 125.893144 173.753813 
L 126.616206 171.588463 
L 127.339267 172.863944 
L 128.062328 172.537658 
L 128.78539 171.202853 
L 129.508451 167.702699 
L 130.231512 172.211372 
L 130.954574 167.4654 
L 131.677635 168.206958 
L 132.400696 167.317089 
L 133.123758 165.863635 
L 133.846819 165.774648 
L 134.569881 166.605193 
L 135.292942 170.787581 
L 136.016003 165.715323 
L 136.739065 168.325608 
L 137.462126 164.91444 
L 138.185187 165.952621 
L 138.908249 189.26721 
L 139.63131 194.250481 
L 140.354371 197.454012 
L 141.077433 198.907466 
L 141.800494 189.385859 
L 142.523555 191.699521 
L 143.246617 188.703626 
L 143.969678 190.15708 
L 144.692739 195.852246 
L 145.415801 192.144456 
L 146.138862 189.474846 
L 146.861923 189.682482 
L 147.584985 195.436974 
L 148.308046 185.470432 
L 149.031108 188.8816 
L 149.754169 189.890119 
L 150.47723 190.453703 
L 151.200292 188.318015 
L 151.923353 185.411107 
L 152.646414 196.890428 
L 153.369476 191.373235 
L 154.092537 188.851937 
L 154.815598 188.584976 
L 155.53866 187.10186 
L 156.261721 193.004663 
L 156.984782 182.711836 
L 157.707844 189.445184 
L 158.430905 187.428146 
L 159.153966 191.788508 
L 159.877028 183.483056 
L 160.600089 181.821966 
L 161.32315 181.347369 
L 162.046212 188.051055 
L 162.769273 198.017596 
L 163.492334 188.169704 
L 164.215396 182.860147 
L 164.938457 189.712145 
L 165.661519 187.932405 
L 166.38458 184.432251 
L 167.107641 183.334745 
L 167.830703 189.178223 
L 168.553764 184.105965 
L 169.276825 182.177914 
L 169.999887 186.152666 
L 170.722948 178.94472 
L 172.169071 196.119207 
L 172.892132 189.830794 
L 173.615193 190.097755 
L 174.338255 194.665753 
L 175.061316 180.576148 
L 175.784377 177.075994 
L 176.507439 179.241344 
L 177.2305 190.661339 
L 177.953561 182.118589 
L 178.676623 186.419627 
L 179.399684 184.076303 
L 180.122745 180.546486 
L 180.845807 174.436047 
L 181.568868 176.215786 
L 182.29193 179.44898 
L 183.014991 185.173809 
L 183.738052 179.033707 
L 184.461114 180.487161 
L 185.184175 173.190229 
L 185.907236 177.461604 
L 186.630298 184.906848 
L 187.353359 179.508305 
L 188.07642 175.889501 
L 188.799482 177.580253 
L 189.522543 177.135318 
L 190.245604 173.872463 
L 190.968666 178.855733 
L 191.691727 178.796409 
L 192.414788 173.546177 
L 193.13785 177.580253 
L 194.583972 175.563215 
L 195.307034 170.728256 
L 196.030095 181.317706 
L 196.753157 172.448671 
L 197.476218 173.96145 
L 198.199279 173.486852 
L 198.922341 171.855424 
L 199.645402 175.533553 
L 200.368463 175.058956 
L 201.091525 172.419009 
L 201.814586 170.817243 
L 202.537647 170.52062 
L 203.260709 169.304464 
L 203.98377 171.736775 
L 204.706831 171.321503 
L 205.429893 169.423114 
L 206.152954 170.90623 
L 206.876015 171.7961 
L 207.599077 171.440152 
L 208.322138 166.931478 
L 209.768261 171.202853 
L 210.491322 169.719737 
L 211.214383 166.516206 
L 211.937445 166.308569 
L 212.660506 171.914749 
L 213.383568 168.859529 
L 214.106629 168.028984 
L 214.82969 171.113866 
L 215.552752 161.681247 
L 216.275813 170.431633 
L 216.998874 167.435738 
L 217.721936 167.880673 
L 218.444997 168.473919 
L 219.168058 171.054542 
L 219.89112 168.117971 
L 220.614181 165.952621 
L 221.337242 162.630441 
L 222.783365 168.622231 
L 223.506426 166.160258 
L 224.229488 168.681556 
L 224.952549 168.206958 
L 225.67561 184.521238 
L 226.398672 188.525652 
L 227.121733 190.809651 
L 227.844794 204.217022 
L 228.567856 203.950061 
L 229.290917 191.106274 
L 230.013979 193.59791 
L 231.460101 197.839622 
L 232.183163 182.978797 
L 233.629285 202.377958 
L 234.352347 196.208194 
L 235.075408 180.190538 
L 235.798469 188.495989 
L 236.521531 194.903052 
L 237.967653 188.495989 
L 238.690715 195.525961 
L 239.413776 199.441388 
L 240.136837 189.118898 
L 240.859899 193.360611 
L 241.58296 201.903361 
L 242.306021 189.623158 
L 243.029083 193.894533 
L 243.752144 189.979106 
L 244.475206 193.301286 
L 245.198267 199.47105 
L 245.921328 197.038739 
L 246.64439 190.868976 
L 247.367451 185.82638 
L 248.090512 194.280143 
L 248.813574 190.750326 
L 249.536635 193.034325 
L 250.259696 207.331567 
L 250.982758 200.509232 
L 251.705819 189.860456 
L 252.42888 185.173809 
L 253.151942 203.920399 
L 253.875003 178.796409 
L 254.598064 183.690693 
L 255.321126 180.902434 
L 256.044187 182.919472 
L 256.767248 196.14887 
L 257.49031 188.169704 
L 258.213371 187.012873 
L 258.936432 194.695416 
L 259.659494 178.351474 
L 260.382555 194.665753 
L 261.105617 191.907157 
L 261.828678 187.339159 
L 262.551739 189.65282 
L 263.274801 186.034016 
L 263.997862 181.792304 
L 264.720923 181.139733 
L 265.443985 178.321812 
L 266.167046 190.513028 
L 266.890107 176.542072 
L 267.613169 185.44077 
L 268.33623 189.504508 
L 269.059291 186.478951 
L 269.782353 200.538894 
L 270.505414 186.983211 
L 271.228475 190.779989 
L 271.951537 188.703626 
L 272.674598 185.529757 
L 273.397659 181.377031 
L 274.120721 182.682173 
L 274.843782 182.593186 
L 275.566843 184.5509 
L 276.289905 191.373235 
L 277.012966 182.415213 
L 277.736028 181.49568 
L 278.459089 187.190847 
L 279.18215 196.712454 
L 279.905212 186.538276 
L 280.628273 180.961759 
L 281.351334 180.160876 
L 282.074396 186.656925 
L 282.797457 177.609916 
L 283.520518 179.83459 
L 284.24358 175.385241 
L 284.966641 188.970587 
L 285.689702 179.508305 
L 286.412764 186.745912 
L 287.135825 184.254277 
L 287.858886 181.021083 
L 288.581948 178.855733 
L 289.305009 190.453703 
L 290.02807 177.313292 
L 290.751132 180.932096 
L 291.474193 191.936819 
L 292.197255 199.797336 
L 292.920316 180.902434 
L 293.643377 179.508305 
L 294.366439 172.715632 
L 295.0895 181.940615 
L 295.812561 178.470123 
L 296.535623 181.584667 
L 297.258684 178.410798 
L 297.981745 178.885396 
L 298.704807 190.750326 
L 299.427868 189.890119 
L 300.150929 187.428146 
L 300.873991 171.558801 
L 301.597052 183.453394 
L 302.320113 181.347369 
L 303.043175 190.54269 
L 303.766236 181.49568 
L 304.489297 176.601397 
L 305.212359 173.130904 
L 305.93542 172.656307 
L 306.658481 178.855733 
L 307.381543 175.533553 
L 308.104604 182.296563 
L 308.827666 178.1735 
L 309.550727 184.521238 
L 310.273788 189.563833 
L 310.99685 175.592878 
L 311.719911 177.105656 
L 312.442972 175.029293 
L 313.166034 175.296254 
L 313.889095 176.453085 
L 314.612156 177.28363 
L 315.335218 176.126799 
L 316.058279 174.228411 
L 316.78134 176.126799 
L 317.504402 178.94472 
L 318.227463 180.605811 
L 318.950524 175.355579 
L 319.673586 183.216095 
L 320.396647 175.533553 
L 321.119708 174.34706 
L 321.84277 178.94472 
L 322.565831 175.770851 
L 323.288892 169.215477 
L 324.011954 175.741189 
L 324.735015 174.614021 
L 325.458077 175.147943 
L 326.181138 169.897711 
L 326.904199 176.037812 
L 327.627261 176.39376 
L 328.350322 169.185815 
L 329.073383 176.39376 
L 329.796445 185.707731 
L 330.519506 173.041917 
L 331.242567 173.427528 
L 331.965629 188.792613 
L 333.411751 170.312983 
L 334.134813 170.194334 
L 334.857874 174.73267 
L 335.580935 174.139424 
L 336.303997 169.007841 
L 337.027058 170.194334 
L 338.473181 167.168777 
L 339.196242 168.651893 
L 339.919304 167.376413 
L 340.642365 166.427219 
L 341.365426 171.766437 
L 342.088488 167.07979 
L 342.811549 174.465709 
L 343.53461 171.054542 
L 344.257672 172.152048 
L 344.980733 168.206958 
L 345.703794 168.770542 
L 346.426856 164.558492 
L 347.149917 169.452776 
L 347.872978 171.618126 
L 348.59604 160.227793 
L 349.319101 171.024879 
L 350.042162 166.990803 
L 350.765224 165.270388 
L 351.488285 159.30826 
L 352.211346 170.639269 
L 352.934408 164.02457 
L 353.657469 171.647788 
L 354.38053 170.490957 
L 355.103592 172.923268 
L 355.826653 171.529139 
L 356.549715 157.587846 
L 357.272776 169.096828 
L 357.995837 162.660103 
L 358.718899 176.720046 
L 359.44196 169.452776 
L 360.165021 166.634855 
L 360.888083 172.330022 
L 361.611144 165.211063 
L 362.334205 175.088618 
L 363.057267 168.859529 
L 363.780328 168.295945 
L 364.503389 172.270697 
L 365.226451 171.7961 
L 365.949512 166.18992 
L 366.672573 168.918854 
L 367.395635 167.702699 
L 368.118696 173.575839 
L 368.841757 163.668622 
L 369.564819 173.783476 
L 370.28788 169.304464 
L 371.010941 167.613712 
L 371.734003 162.215168 
L 373.903187 176.453085 
L 374.626248 172.774957 
L 376.072371 169.185815 
L 376.795432 165.655998 
L 377.518494 167.435738 
L 378.241555 169.957036 
L 378.964616 174.880982 
L 379.687678 167.020465 
L 380.410739 173.101242 
L 381.1338 170.431633 
L 381.856862 168.829867 
L 382.579923 174.999631 
L 383.302984 171.67745 
L 384.026046 173.07158 
L 384.749107 168.533244 
L 385.472168 168.325608 
L 386.19523 169.482438 
L 386.918291 171.440152 
L 387.641353 170.787581 
L 388.364414 166.783167 
L 389.087475 172.478333 
L 390.533598 165.30005 
L 391.256659 168.978179 
L 391.979721 167.139115 
L 392.702782 167.880673 
L 393.425843 170.52062 
L 394.148905 165.982284 
L 394.871966 174.614021 
L 395.595027 165.537349 
L 396.318089 166.990803 
L 397.04115 171.618126 
L 397.764211 178.262487 
L 398.487273 166.753504 
L 398.487273 166.753504 
" clip-path="url(#pbcc2879943)" style="fill: none; stroke: #d62728; stroke-width: 1.5; stroke-linecap: square"/>
   </g>
   <g id="line2d_24">
    <path d="M 350.765224 74.740968 
L 351.488285 76.461383 
L 352.211346 75.423202 
L 352.934408 75.897799 
L 353.657469 75.660501 
L 354.38053 74.948605 
L 355.103592 74.800293 
L 355.826653 77.05463 
L 356.549715 77.558889 
L 357.272776 75.749488 
L 357.995837 75.423202 
L 358.718899 76.313072 
L 359.44196 76.253747 
L 360.165021 76.580033 
L 360.888083 76.342734 
L 361.611144 76.935981 
L 362.334205 75.304553 
L 363.057267 76.342734 
L 363.780328 76.935981 
L 364.503389 78.033487 
L 365.226451 76.105435 
L 365.949512 76.609695 
L 366.672573 75.838475 
L 367.395635 77.202942 
L 368.118696 76.431721 
L 368.841757 76.728344 
L 369.564819 79.190317 
L 370.28788 76.906318 
L 371.010941 77.499565 
L 371.734003 76.609695 
L 372.457064 76.698682 
L 373.180126 75.957124 
L 373.903187 77.024968 
L 374.626248 77.499565 
L 375.34931 80.050525 
L 376.072371 78.804707 
L 376.795432 79.872551 
L 377.518494 78.359772 
L 378.241555 80.614109 
L 378.964616 78.597071 
L 379.687678 78.092811 
L 380.410739 79.368291 
L 381.1338 80.88107 
L 381.856862 79.457278 
L 382.579923 77.647876 
L 383.302984 78.122474 
L 384.026046 80.999719 
L 384.749107 78.864032 
L 385.472168 77.469902 
L 386.19523 81.237018 
L 386.918291 82.126888 
L 387.641353 80.198836 
L 388.364414 79.783564 
L 389.087475 78.656395 
L 389.810537 81.622628 
L 390.533598 81.563303 
L 391.256659 78.33011 
L 391.979721 81.326005 
L 392.702782 82.601485 
L 393.425843 85.152445 
L 394.148905 82.809121 
L 394.871966 80.851408 
L 395.595027 82.809121 
L 396.318089 88.385638 
L 397.04115 86.427925 
L 397.764211 83.165069 
L 398.487273 86.813535 
L 398.487273 86.813535 
" clip-path="url(#pbcc2879943)" style="fill: none; stroke: #9467bd; stroke-width: 1.5; stroke-linecap: square"/>
   </g>
   <g id="line2d_25">
    <path d="M 350.765224 126.090546 
L 351.488285 127.890743 
L 352.211346 127.215669 
L 352.934408 128.60673 
L 353.657469 127.502064 
L 354.38053 125.456386 
L 355.103592 124.791541 
L 355.826653 130.161445 
L 356.549715 131.000173 
L 357.272776 126.172374 
L 357.995837 126.366713 
L 358.718899 126.70425 
L 359.44196 127.645261 
L 360.165021 124.638115 
L 360.888083 129.077236 
L 361.611144 126.397398 
L 362.334205 126.919046 
L 363.057267 130.048933 
L 363.780328 127.379323 
L 364.503389 128.473761 
L 365.226451 127.379323 
L 365.949512 128.115767 
L 366.672573 127.686175 
L 367.395635 130.570581 
L 368.118696 130.233044 
L 368.841757 132.227579 
L 370.28788 126.683793 
L 371.010941 126.141688 
L 371.734003 126.100775 
L 372.457064 123.461851 
L 373.903187 129.609112 
L 374.626248 122.96066 
L 375.34931 125.231362 
L 376.072371 126.203059 
L 376.795432 128.54536 
L 377.518494 124.116467 
L 378.241555 126.540596 
L 378.964616 125.947349 
L 379.687678 124.341492 
L 380.410739 123.645962 
L 381.1338 129.803451 
L 381.856862 124.934739 
L 382.579923 122.889061 
L 383.302984 126.213287 
L 384.026046 124.586973 
L 384.749107 125.783695 
L 385.472168 125.845065 
L 386.19523 129.772766 
L 386.918291 129.793223 
L 387.641353 126.049633 
L 388.364414 127.481607 
L 389.087475 125.302961 
L 389.810537 125.783695 
L 390.533598 125.077936 
L 391.256659 121.43663 
L 391.979721 125.937121 
L 392.702782 128.023712 
L 393.425843 128.974952 
L 394.148905 127.225898 
L 394.871966 126.151917 
L 395.595027 124.372177 
L 396.318089 129.946649 
L 397.04115 131.439994 
L 397.764211 130.734235 
L 398.487273 128.647644 
L 398.487273 128.647644 
" clip-path="url(#pbcc2879943)" style="fill: none; stroke: #8c564b; stroke-width: 1.5; stroke-linecap: square"/>
   </g>
   <g id="line2d_26">
    <path d="M 350.765224 160.227793 
L 351.488285 158.774339 
L 352.211346 170.787581 
L 352.934408 161.325299 
L 353.657469 159.159949 
L 354.38053 166.456881 
L 355.103592 171.084204 
L 355.826653 174.940306 
L 356.549715 167.584049 
L 357.272776 169.067166 
L 357.995837 169.12649 
L 358.718899 175.652202 
L 359.44196 170.609607 
L 360.165021 172.507996 
L 360.888083 172.033398 
L 361.611144 165.982284 
L 362.334205 165.4187 
L 363.057267 173.96145 
L 363.780328 174.821657 
L 364.503389 172.834281 
L 365.226451 173.219891 
L 365.949512 169.067166 
L 366.672573 172.448671 
L 367.395635 181.288044 
L 368.118696 186.093341 
L 368.841757 185.381445 
L 369.564819 187.784094 
L 370.28788 180.190538 
L 371.010941 175.741189 
L 371.734003 179.745603 
L 372.457064 172.063061 
L 373.180126 178.084513 
L 373.903187 194.042844 
L 374.626248 181.851628 
L 375.34931 179.419318 
L 376.072371 181.851628 
L 376.795432 177.906539 
L 377.518494 189.237548 
L 378.241555 185.114484 
L 378.964616 190.868976 
L 379.687678 181.288044 
L 380.410739 181.940615 
L 381.1338 204.988243 
L 381.856862 184.283939 
L 382.579923 189.178223 
L 383.302984 190.691002 
L 384.026046 190.513028 
L 384.749107 189.949443 
L 385.472168 185.707731 
L 386.19523 189.741807 
L 386.918291 198.343882 
L 387.641353 177.075994 
L 388.364414 189.385859 
L 389.087475 185.203471 
L 389.810537 195.170013 
L 390.533598 190.54269 
L 391.256659 191.877495 
L 391.979721 194.013182 
L 392.702782 204.18736 
L 393.425843 200.954166 
L 394.148905 204.602633 
L 394.871966 197.542999 
L 395.595027 198.907466 
L 396.318089 212.463149 
L 397.04115 207.746839 
L 397.764211 196.267519 
L 398.487273 210.149488 
L 398.487273 210.149488 
" clip-path="url(#pbcc2879943)" style="fill: none; stroke: #e377c2; stroke-width: 1.5; stroke-linecap: square"/>
   </g>
   <g id="patch_3">
    <path d="M 57.6 307.584 
L 57.6 41.472 
" style="fill: none; stroke: #000000; stroke-width: 0.8; stroke-linejoin: miter; stroke-linecap: square"/>
   </g>
   <g id="patch_4">
    <path d="M 414.72 307.584 
L 414.72 41.472 
" style="fill: none; stroke: #000000; stroke-width: 0.8; stroke-linejoin: miter; stroke-linecap: square"/>
   </g>
   <g id="patch_5">
    <path d="M 57.6 307.584 
L 414.72 307.584 
" style="fill: none; stroke: #000000; stroke-width: 0.8; stroke-linejoin: miter; stroke-linecap: square"/>
   </g>
   <g id="patch_6">
    <path d="M 57.6 41.472 
L 414.72 41.472 
" style="fill: none; stroke: #000000; stroke-width: 0.8; stroke-linejoin: miter; stroke-linecap: square"/>
   </g>
   <g id="text_22">
    <!-- Learning Curves -->
    <g transform="translate(187.37625 35.472) scale(0.12 -0.12)">
     <defs>
      <path id="DejaVuSans-4c" d="M 628 4666 
L 1259 4666 
L 1259 531 
L 3531 531 
L 3531 0 
L 628 0 
L 628 4666 
z
" transform="scale(0.015625)"/>
      <path id="DejaVuSans-65" d="M 3597 1894 
L 3597 1613 
L 953 1613 
Q 991 1019 1311 708 
Q 1631 397 2203 397 
Q 2534 397 2845 478 
Q 3156 559 3463 722 
L 3463 178 
Q 3153 47 2828 -22 
Q 2503 -91 2169 -91 
Q 1331 -91 842 396 
Q 353 884 353 1716 
Q 353 2575 817 3079 
Q 1281 3584 2069 3584 
Q 2775 3584 3186 3129 
Q 3597 2675 3597 1894 
z
M 3022 2063 
Q 3016 2534 2758 2815 
Q 2500 3097 2075 3097 
Q 1594 3097 1305 2825 
Q 1016 2553 972 2059 
L 3022 2063 
z
" transform="scale(0.015625)"/>
      <path id="DejaVuSans-6e" d="M 3513 2113 
L 3513 0 
L 2938 0 
L 2938 2094 
Q 2938 2591 2744 2837 
Q 2550 3084 2163 3084 
Q 1697 3084 1428 2787 
Q 1159 2491 1159 1978 
L 1159 0 
L 581 0 
L 581 3500 
L 1159 3500 
L 1159 2956 
Q 1366 3272 1645 3428 
Q 1925 3584 2291 3584 
Q 2894 3584 3203 3211 
Q 3513 2838 3513 2113 
z
" transform="scale(0.015625)"/>
      <path id="DejaVuSans-69" d="M 603 3500 
L 1178 3500 
L 1178 0 
L 603 0 
L 603 3500 
z
M 603 4863 
L 1178 4863 
L 1178 4134 
L 603 4134 
L 603 4863 
z
" transform="scale(0.015625)"/>
      <path id="DejaVuSans-67" d="M 2906 1791 
Q 2906 2416 2648 2759 
Q 2391 3103 1925 3103 
Q 1463 3103 1205 2759 
Q 947 2416 947 1791 
Q 947 1169 1205 825 
Q 1463 481 1925 481 
Q 2391 481 2648 825 
Q 2906 1169 2906 1791 
z
M 3481 434 
Q 3481 -459 3084 -895 
Q 2688 -1331 1869 -1331 
Q 1566 -1331 1297 -1286 
Q 1028 -1241 775 -1147 
L 775 -588 
Q 1028 -725 1275 -790 
Q 1522 -856 1778 -856 
Q 2344 -856 2625 -561 
Q 2906 -266 2906 331 
L 2906 616 
Q 2728 306 2450 153 
Q 2172 0 1784 0 
Q 1141 0 747 490 
Q 353 981 353 1791 
Q 353 2603 747 3093 
Q 1141 3584 1784 3584 
Q 2172 3584 2450 3431 
Q 2728 3278 2906 2969 
L 2906 3500 
L 3481 3500 
L 3481 434 
z
" transform="scale(0.015625)"/>
      <path id="DejaVuSans-20" transform="scale(0.015625)"/>
      <path id="DejaVuSans-43" d="M 4122 4306 
L 4122 3641 
Q 3803 3938 3442 4084 
Q 3081 4231 2675 4231 
Q 1875 4231 1450 3742 
Q 1025 3253 1025 2328 
Q 1025 1406 1450 917 
Q 1875 428 2675 428 
Q 3081 428 3442 575 
Q 3803 722 4122 1019 
L 4122 359 
Q 3791 134 3420 21 
Q 3050 -91 2638 -91 
Q 1578 -91 968 557 
Q 359 1206 359 2328 
Q 359 3453 968 4101 
Q 1578 4750 2638 4750 
Q 3056 4750 3426 4639 
Q 3797 4528 4122 4306 
z
" transform="scale(0.015625)"/>
      <path id="DejaVuSans-76" d="M 191 3500 
L 800 3500 
L 1894 563 
L 2988 3500 
L 3597 3500 
L 2284 0 
L 1503 0 
L 191 3500 
z
" transform="scale(0.015625)"/>
     </defs>
     <use xlink:href="#DejaVuSans-4c"/>
     <use xlink:href="#DejaVuSans-65" x="53.962891"/>
     <use xlink:href="#DejaVuSans-61" x="115.486328"/>
     <use xlink:href="#DejaVuSans-72" x="176.765625"/>
     <use xlink:href="#DejaVuSans-6e" x="216.128906"/>
     <use xlink:href="#DejaVuSans-69" x="279.507812"/>
     <use xlink:href="#DejaVuSans-6e" x="307.291016"/>
     <use xlink:href="#DejaVuSans-67" x="370.669922"/>
     <use xlink:href="#DejaVuSans-20" x="434.146484"/>
     <use xlink:href="#DejaVuSans-43" x="465.933594"/>
     <use xlink:href="#DejaVuSans-75" x="535.757812"/>
     <use xlink:href="#DejaVuSans-72" x="599.136719"/>
     <use xlink:href="#DejaVuSans-76" x="640.25"/>
     <use xlink:href="#DejaVuSans-65" x="699.429688"/>
     <use xlink:href="#DejaVuSans-73" x="760.953125"/>
    </g>
   </g>
   <g id="legend_1">
    <g id="patch_7">
     <path d="M 128.445937 302.584 
L 343.874063 302.584 
Q 345.874063 302.584 345.874063 300.584 
L 345.874063 198.837125 
Q 345.874063 196.837125 343.874063 196.837125 
L 128.445937 196.837125 
Q 126.445937 196.837125 126.445937 198.837125 
L 126.445937 300.584 
Q 126.445937 302.584 128.445937 302.584 
z
" style="fill: #ffffff; opacity: 0.8; stroke: #cccccc; stroke-linejoin: miter"/>
    </g>
    <g id="line2d_27">
     <path d="M 130.445937 204.935563 
L 140.445937 204.935563 
L 150.445937 204.935563 
" style="fill: none; stroke: #1f77b4; stroke-width: 1.5; stroke-linecap: square"/>
    </g>
    <g id="text_23">
     <!-- Train Accuracy -->
     <g transform="translate(158.445937 208.435563) scale(0.1 -0.1)">
      <defs>
       <path id="DejaVuSans-54" d="M -19 4666 
L 3928 4666 
L 3928 4134 
L 2272 4134 
L 2272 0 
L 1638 0 
L 1638 4134 
L -19 4134 
L -19 4666 
z
" transform="scale(0.015625)"/>
      </defs>
      <use xlink:href="#DejaVuSans-54"/>
      <use xlink:href="#DejaVuSans-72" x="46.333984"/>
      <use xlink:href="#DejaVuSans-61" x="87.447266"/>
      <use xlink:href="#DejaVuSans-69" x="148.726562"/>
      <use xlink:href="#DejaVuSans-6e" x="176.509766"/>
      <use xlink:href="#DejaVuSans-20" x="239.888672"/>
      <use xlink:href="#DejaVuSans-41" x="271.675781"/>
      <use xlink:href="#DejaVuSans-63" x="338.333984"/>
      <use xlink:href="#DejaVuSans-63" x="393.314453"/>
      <use xlink:href="#DejaVuSans-75" x="448.294922"/>
      <use xlink:href="#DejaVuSans-72" x="511.673828"/>
      <use xlink:href="#DejaVuSans-61" x="552.787109"/>
      <use xlink:href="#DejaVuSans-63" x="614.066406"/>
      <use xlink:href="#DejaVuSans-79" x="669.046875"/>
     </g>
    </g>
    <g id="line2d_28">
     <path d="M 130.445937 219.613688 
L 140.445937 219.613688 
L 150.445937 219.613688 
" style="fill: none; stroke: #ff7f0e; stroke-width: 1.5; stroke-linecap: square"/>
    </g>
    <g id="text_24">
     <!-- Validation Accuracy -->
     <g transform="translate(158.445937 223.113688) scale(0.1 -0.1)">
      <defs>
       <path id="DejaVuSans-56" d="M 1831 0 
L 50 4666 
L 709 4666 
L 2188 738 
L 3669 4666 
L 4325 4666 
L 2547 0 
L 1831 0 
z
" transform="scale(0.015625)"/>
       <path id="DejaVuSans-6c" d="M 603 4863 
L 1178 4863 
L 1178 0 
L 603 0 
L 603 4863 
z
" transform="scale(0.015625)"/>
       <path id="DejaVuSans-64" d="M 2906 2969 
L 2906 4863 
L 3481 4863 
L 3481 0 
L 2906 0 
L 2906 525 
Q 2725 213 2448 61 
Q 2172 -91 1784 -91 
Q 1150 -91 751 415 
Q 353 922 353 1747 
Q 353 2572 751 3078 
Q 1150 3584 1784 3584 
Q 2172 3584 2448 3432 
Q 2725 3281 2906 2969 
z
M 947 1747 
Q 947 1113 1208 752 
Q 1469 391 1925 391 
Q 2381 391 2643 752 
Q 2906 1113 2906 1747 
Q 2906 2381 2643 2742 
Q 2381 3103 1925 3103 
Q 1469 3103 1208 2742 
Q 947 2381 947 1747 
z
" transform="scale(0.015625)"/>
       <path id="DejaVuSans-74" d="M 1172 4494 
L 1172 3500 
L 2356 3500 
L 2356 3053 
L 1172 3053 
L 1172 1153 
Q 1172 725 1289 603 
Q 1406 481 1766 481 
L 2356 481 
L 2356 0 
L 1766 0 
Q 1100 0 847 248 
Q 594 497 594 1153 
L 594 3053 
L 172 3053 
L 172 3500 
L 594 3500 
L 594 4494 
L 1172 4494 
z
" transform="scale(0.015625)"/>
      </defs>
      <use xlink:href="#DejaVuSans-56"/>
      <use xlink:href="#DejaVuSans-61" x="60.658203"/>
      <use xlink:href="#DejaVuSans-6c" x="121.9375"/>
      <use xlink:href="#DejaVuSans-69" x="149.720703"/>
      <use xlink:href="#DejaVuSans-64" x="177.503906"/>
      <use xlink:href="#DejaVuSans-61" x="240.980469"/>
      <use xlink:href="#DejaVuSans-74" x="302.259766"/>
      <use xlink:href="#DejaVuSans-69" x="341.46875"/>
      <use xlink:href="#DejaVuSans-6f" x="369.251953"/>
      <use xlink:href="#DejaVuSans-6e" x="430.433594"/>
      <use xlink:href="#DejaVuSans-20" x="493.8125"/>
      <use xlink:href="#DejaVuSans-41" x="525.599609"/>
      <use xlink:href="#DejaVuSans-63" x="592.257812"/>
      <use xlink:href="#DejaVuSans-63" x="647.238281"/>
      <use xlink:href="#DejaVuSans-75" x="702.21875"/>
      <use xlink:href="#DejaVuSans-72" x="765.597656"/>
      <use xlink:href="#DejaVuSans-61" x="806.710938"/>
      <use xlink:href="#DejaVuSans-63" x="867.990234"/>
      <use xlink:href="#DejaVuSans-79" x="922.970703"/>
     </g>
    </g>
    <g id="line2d_29">
     <path d="M 130.445937 234.291812 
L 140.445937 234.291812 
L 150.445937 234.291812 
" style="fill: none; stroke: #2ca02c; stroke-width: 1.5; stroke-linecap: square"/>
    </g>
    <g id="text_25">
     <!-- Robust Validation Accuracy -->
     <g transform="translate(158.445937 237.791812) scale(0.1 -0.1)">
      <defs>
       <path id="DejaVuSans-52" d="M 2841 2188 
Q 3044 2119 3236 1894 
Q 3428 1669 3622 1275 
L 4263 0 
L 3584 0 
L 2988 1197 
Q 2756 1666 2539 1819 
Q 2322 1972 1947 1972 
L 1259 1972 
L 1259 0 
L 628 0 
L 628 4666 
L 2053 4666 
Q 2853 4666 3247 4331 
Q 3641 3997 3641 3322 
Q 3641 2881 3436 2590 
Q 3231 2300 2841 2188 
z
M 1259 4147 
L 1259 2491 
L 2053 2491 
Q 2509 2491 2742 2702 
Q 2975 2913 2975 3322 
Q 2975 3731 2742 3939 
Q 2509 4147 2053 4147 
L 1259 4147 
z
" transform="scale(0.015625)"/>
       <path id="DejaVuSans-62" d="M 3116 1747 
Q 3116 2381 2855 2742 
Q 2594 3103 2138 3103 
Q 1681 3103 1420 2742 
Q 1159 2381 1159 1747 
Q 1159 1113 1420 752 
Q 1681 391 2138 391 
Q 2594 391 2855 752 
Q 3116 1113 3116 1747 
z
M 1159 2969 
Q 1341 3281 1617 3432 
Q 1894 3584 2278 3584 
Q 2916 3584 3314 3078 
Q 3713 2572 3713 1747 
Q 3713 922 3314 415 
Q 2916 -91 2278 -91 
Q 1894 -91 1617 61 
Q 1341 213 1159 525 
L 1159 0 
L 581 0 
L 581 4863 
L 1159 4863 
L 1159 2969 
z
" transform="scale(0.015625)"/>
      </defs>
      <use xlink:href="#DejaVuSans-52"/>
      <use xlink:href="#DejaVuSans-6f" x="64.982422"/>
      <use xlink:href="#DejaVuSans-62" x="126.164062"/>
      <use xlink:href="#DejaVuSans-75" x="189.640625"/>
      <use xlink:href="#DejaVuSans-73" x="253.019531"/>
      <use xlink:href="#DejaVuSans-74" x="305.119141"/>
      <use xlink:href="#DejaVuSans-20" x="344.328125"/>
      <use xlink:href="#DejaVuSans-56" x="376.115234"/>
      <use xlink:href="#DejaVuSans-61" x="436.773438"/>
      <use xlink:href="#DejaVuSans-6c" x="498.052734"/>
      <use xlink:href="#DejaVuSans-69" x="525.835938"/>
      <use xlink:href="#DejaVuSans-64" x="553.619141"/>
      <use xlink:href="#DejaVuSans-61" x="617.095703"/>
      <use xlink:href="#DejaVuSans-74" x="678.375"/>
      <use xlink:href="#DejaVuSans-69" x="717.583984"/>
      <use xlink:href="#DejaVuSans-6f" x="745.367188"/>
      <use xlink:href="#DejaVuSans-6e" x="806.548828"/>
      <use xlink:href="#DejaVuSans-20" x="869.927734"/>
      <use xlink:href="#DejaVuSans-41" x="901.714844"/>
      <use xlink:href="#DejaVuSans-63" x="968.373047"/>
      <use xlink:href="#DejaVuSans-63" x="1023.353516"/>
      <use xlink:href="#DejaVuSans-75" x="1078.333984"/>
      <use xlink:href="#DejaVuSans-72" x="1141.712891"/>
      <use xlink:href="#DejaVuSans-61" x="1182.826172"/>
      <use xlink:href="#DejaVuSans-63" x="1244.105469"/>
      <use xlink:href="#DejaVuSans-79" x="1299.085938"/>
     </g>
    </g>
    <g id="line2d_30">
     <path d="M 130.445937 248.969938 
L 140.445937 248.969938 
L 150.445937 248.969938 
" style="fill: none; stroke: #d62728; stroke-width: 1.5; stroke-linecap: square"/>
    </g>
    <g id="text_26">
     <!-- Adversarial Validation Accuracy -->
     <g transform="translate(158.445937 252.469938) scale(0.1 -0.1)">
      <use xlink:href="#DejaVuSans-41"/>
      <use xlink:href="#DejaVuSans-64" x="66.658203"/>
      <use xlink:href="#DejaVuSans-76" x="130.134766"/>
      <use xlink:href="#DejaVuSans-65" x="189.314453"/>
      <use xlink:href="#DejaVuSans-72" x="250.837891"/>
      <use xlink:href="#DejaVuSans-73" x="291.951172"/>
      <use xlink:href="#DejaVuSans-61" x="344.050781"/>
      <use xlink:href="#DejaVuSans-72" x="405.330078"/>
      <use xlink:href="#DejaVuSans-69" x="446.443359"/>
      <use xlink:href="#DejaVuSans-61" x="474.226562"/>
      <use xlink:href="#DejaVuSans-6c" x="535.505859"/>
      <use xlink:href="#DejaVuSans-20" x="563.289062"/>
      <use xlink:href="#DejaVuSans-56" x="595.076172"/>
      <use xlink:href="#DejaVuSans-61" x="655.734375"/>
      <use xlink:href="#DejaVuSans-6c" x="717.013672"/>
      <use xlink:href="#DejaVuSans-69" x="744.796875"/>
      <use xlink:href="#DejaVuSans-64" x="772.580078"/>
      <use xlink:href="#DejaVuSans-61" x="836.056641"/>
      <use xlink:href="#DejaVuSans-74" x="897.335938"/>
      <use xlink:href="#DejaVuSans-69" x="936.544922"/>
      <use xlink:href="#DejaVuSans-6f" x="964.328125"/>
      <use xlink:href="#DejaVuSans-6e" x="1025.509766"/>
      <use xlink:href="#DejaVuSans-20" x="1088.888672"/>
      <use xlink:href="#DejaVuSans-41" x="1120.675781"/>
      <use xlink:href="#DejaVuSans-63" x="1187.333984"/>
      <use xlink:href="#DejaVuSans-63" x="1242.314453"/>
      <use xlink:href="#DejaVuSans-75" x="1297.294922"/>
      <use xlink:href="#DejaVuSans-72" x="1360.673828"/>
      <use xlink:href="#DejaVuSans-61" x="1401.787109"/>
      <use xlink:href="#DejaVuSans-63" x="1463.066406"/>
      <use xlink:href="#DejaVuSans-79" x="1518.046875"/>
     </g>
    </g>
    <g id="line2d_31">
     <path d="M 130.445937 263.648063 
L 140.445937 263.648063 
L 150.445937 263.648063 
" style="fill: none; stroke: #9467bd; stroke-width: 1.5; stroke-linecap: square"/>
    </g>
    <g id="text_27">
     <!-- SWA Validation Accuracy -->
     <g transform="translate(158.445937 267.148063) scale(0.1 -0.1)">
      <defs>
       <path id="DejaVuSans-53" d="M 3425 4513 
L 3425 3897 
Q 3066 4069 2747 4153 
Q 2428 4238 2131 4238 
Q 1616 4238 1336 4038 
Q 1056 3838 1056 3469 
Q 1056 3159 1242 3001 
Q 1428 2844 1947 2747 
L 2328 2669 
Q 3034 2534 3370 2195 
Q 3706 1856 3706 1288 
Q 3706 609 3251 259 
Q 2797 -91 1919 -91 
Q 1588 -91 1214 -16 
Q 841 59 441 206 
L 441 856 
Q 825 641 1194 531 
Q 1563 422 1919 422 
Q 2459 422 2753 634 
Q 3047 847 3047 1241 
Q 3047 1584 2836 1778 
Q 2625 1972 2144 2069 
L 1759 2144 
Q 1053 2284 737 2584 
Q 422 2884 422 3419 
Q 422 4038 858 4394 
Q 1294 4750 2059 4750 
Q 2388 4750 2728 4690 
Q 3069 4631 3425 4513 
z
" transform="scale(0.015625)"/>
       <path id="DejaVuSans-57" d="M 213 4666 
L 850 4666 
L 1831 722 
L 2809 4666 
L 3519 4666 
L 4500 722 
L 5478 4666 
L 6119 4666 
L 4947 0 
L 4153 0 
L 3169 4050 
L 2175 0 
L 1381 0 
L 213 4666 
z
" transform="scale(0.015625)"/>
      </defs>
      <use xlink:href="#DejaVuSans-53"/>
      <use xlink:href="#DejaVuSans-57" x="63.476562"/>
      <use xlink:href="#DejaVuSans-41" x="156.853516"/>
      <use xlink:href="#DejaVuSans-20" x="225.261719"/>
      <use xlink:href="#DejaVuSans-56" x="257.048828"/>
      <use xlink:href="#DejaVuSans-61" x="317.707031"/>
      <use xlink:href="#DejaVuSans-6c" x="378.986328"/>
      <use xlink:href="#DejaVuSans-69" x="406.769531"/>
      <use xlink:href="#DejaVuSans-64" x="434.552734"/>
      <use xlink:href="#DejaVuSans-61" x="498.029297"/>
      <use xlink:href="#DejaVuSans-74" x="559.308594"/>
      <use xlink:href="#DejaVuSans-69" x="598.517578"/>
      <use xlink:href="#DejaVuSans-6f" x="626.300781"/>
      <use xlink:href="#DejaVuSans-6e" x="687.482422"/>
      <use xlink:href="#DejaVuSans-20" x="750.861328"/>
      <use xlink:href="#DejaVuSans-41" x="782.648438"/>
      <use xlink:href="#DejaVuSans-63" x="849.306641"/>
      <use xlink:href="#DejaVuSans-63" x="904.287109"/>
      <use xlink:href="#DejaVuSans-75" x="959.267578"/>
      <use xlink:href="#DejaVuSans-72" x="1022.646484"/>
      <use xlink:href="#DejaVuSans-61" x="1063.759766"/>
      <use xlink:href="#DejaVuSans-63" x="1125.039062"/>
      <use xlink:href="#DejaVuSans-79" x="1180.019531"/>
     </g>
    </g>
    <g id="line2d_32">
     <path d="M 130.445937 278.326188 
L 140.445937 278.326188 
L 150.445937 278.326188 
" style="fill: none; stroke: #8c564b; stroke-width: 1.5; stroke-linecap: square"/>
    </g>
    <g id="text_28">
     <!-- SWA Robust Validation Accuracy -->
     <g transform="translate(158.445937 281.826188) scale(0.1 -0.1)">
      <use xlink:href="#DejaVuSans-53"/>
      <use xlink:href="#DejaVuSans-57" x="63.476562"/>
      <use xlink:href="#DejaVuSans-41" x="156.853516"/>
      <use xlink:href="#DejaVuSans-20" x="225.261719"/>
      <use xlink:href="#DejaVuSans-52" x="257.048828"/>
      <use xlink:href="#DejaVuSans-6f" x="322.03125"/>
      <use xlink:href="#DejaVuSans-62" x="383.212891"/>
      <use xlink:href="#DejaVuSans-75" x="446.689453"/>
      <use xlink:href="#DejaVuSans-73" x="510.068359"/>
      <use xlink:href="#DejaVuSans-74" x="562.167969"/>
      <use xlink:href="#DejaVuSans-20" x="601.376953"/>
      <use xlink:href="#DejaVuSans-56" x="633.164062"/>
      <use xlink:href="#DejaVuSans-61" x="693.822266"/>
      <use xlink:href="#DejaVuSans-6c" x="755.101562"/>
      <use xlink:href="#DejaVuSans-69" x="782.884766"/>
      <use xlink:href="#DejaVuSans-64" x="810.667969"/>
      <use xlink:href="#DejaVuSans-61" x="874.144531"/>
      <use xlink:href="#DejaVuSans-74" x="935.423828"/>
      <use xlink:href="#DejaVuSans-69" x="974.632812"/>
      <use xlink:href="#DejaVuSans-6f" x="1002.416016"/>
      <use xlink:href="#DejaVuSans-6e" x="1063.597656"/>
      <use xlink:href="#DejaVuSans-20" x="1126.976562"/>
      <use xlink:href="#DejaVuSans-41" x="1158.763672"/>
      <use xlink:href="#DejaVuSans-63" x="1225.421875"/>
      <use xlink:href="#DejaVuSans-63" x="1280.402344"/>
      <use xlink:href="#DejaVuSans-75" x="1335.382812"/>
      <use xlink:href="#DejaVuSans-72" x="1398.761719"/>
      <use xlink:href="#DejaVuSans-61" x="1439.875"/>
      <use xlink:href="#DejaVuSans-63" x="1501.154297"/>
      <use xlink:href="#DejaVuSans-79" x="1556.134766"/>
     </g>
    </g>
    <g id="line2d_33">
     <path d="M 130.445937 293.004312 
L 140.445937 293.004312 
L 150.445937 293.004312 
" style="fill: none; stroke: #e377c2; stroke-width: 1.5; stroke-linecap: square"/>
    </g>
    <g id="text_29">
     <!-- SWA Adversarial Validation Accuracy -->
     <g transform="translate(158.445937 296.504312) scale(0.1 -0.1)">
      <use xlink:href="#DejaVuSans-53"/>
      <use xlink:href="#DejaVuSans-57" x="63.476562"/>
      <use xlink:href="#DejaVuSans-41" x="156.853516"/>
      <use xlink:href="#DejaVuSans-20" x="225.261719"/>
      <use xlink:href="#DejaVuSans-41" x="257.048828"/>
      <use xlink:href="#DejaVuSans-64" x="323.707031"/>
      <use xlink:href="#DejaVuSans-76" x="387.183594"/>
      <use xlink:href="#DejaVuSans-65" x="446.363281"/>
      <use xlink:href="#DejaVuSans-72" x="507.886719"/>
      <use xlink:href="#DejaVuSans-73" x="549"/>
      <use xlink:href="#DejaVuSans-61" x="601.099609"/>
      <use xlink:href="#DejaVuSans-72" x="662.378906"/>
      <use xlink:href="#DejaVuSans-69" x="703.492188"/>
      <use xlink:href="#DejaVuSans-61" x="731.275391"/>
      <use xlink:href="#DejaVuSans-6c" x="792.554688"/>
      <use xlink:href="#DejaVuSans-20" x="820.337891"/>
      <use xlink:href="#DejaVuSans-56" x="852.125"/>
      <use xlink:href="#DejaVuSans-61" x="912.783203"/>
      <use xlink:href="#DejaVuSans-6c" x="974.0625"/>
      <use xlink:href="#DejaVuSans-69" x="1001.845703"/>
      <use xlink:href="#DejaVuSans-64" x="1029.628906"/>
      <use xlink:href="#DejaVuSans-61" x="1093.105469"/>
      <use xlink:href="#DejaVuSans-74" x="1154.384766"/>
      <use xlink:href="#DejaVuSans-69" x="1193.59375"/>
      <use xlink:href="#DejaVuSans-6f" x="1221.376953"/>
      <use xlink:href="#DejaVuSans-6e" x="1282.558594"/>
      <use xlink:href="#DejaVuSans-20" x="1345.9375"/>
      <use xlink:href="#DejaVuSans-41" x="1377.724609"/>
      <use xlink:href="#DejaVuSans-63" x="1444.382812"/>
      <use xlink:href="#DejaVuSans-63" x="1499.363281"/>
      <use xlink:href="#DejaVuSans-75" x="1554.34375"/>
      <use xlink:href="#DejaVuSans-72" x="1617.722656"/>
      <use xlink:href="#DejaVuSans-61" x="1658.835938"/>
      <use xlink:href="#DejaVuSans-63" x="1720.115234"/>
      <use xlink:href="#DejaVuSans-79" x="1775.095703"/>
     </g>
    </g>
   </g>
  </g>
 </g>
 <defs>
  <clipPath id="pbcc2879943">
   <rect x="57.6" y="41.472" width="357.12" height="266.112"/>
  </clipPath>
 </defs>
</svg>
