<?xml version="1.0" encoding="utf-8" standalone="no"?>
<!DOCTYPE svg PUBLIC "-//W3C//DTD SVG 1.1//EN"
  "http://www.w3.org/Graphics/SVG/1.1/DTD/svg11.dtd">
<svg xmlns:xlink="http://www.w3.org/1999/xlink" width="460.8pt" height="345.6pt" viewBox="0 0 460.8 345.6" xmlns="http://www.w3.org/2000/svg" version="1.1">
 <metadata>
  <rdf:RDF xmlns:dc="http://purl.org/dc/elements/1.1/" xmlns:cc="http://creativecommons.org/ns#" xmlns:rdf="http://www.w3.org/1999/02/22-rdf-syntax-ns#">
   <cc:Work>
    <dc:type rdf:resource="http://purl.org/dc/dcmitype/StillImage"/>
    <dc:date>2024-09-05T08:37:18.588069</dc:date>
    <dc:format>image/svg+xml</dc:format>
    <dc:creator>
     <cc:Agent>
      <dc:title>Matplotlib v3.9.1, https://matplotlib.org/</dc:title>
     </cc:Agent>
    </dc:creator>
   </cc:Work>
  </rdf:RDF>
 </metadata>
 <defs>
  <style type="text/css">*{stroke-linejoin: round; stroke-linecap: butt}</style>
 </defs>
 <g id="figure_1">
  <g id="patch_1">
   <path d="M 0 345.6 
L 460.8 345.6 
L 460.8 0 
L 0 0 
z
" style="fill: #ffffff"/>
  </g>
  <g id="axes_1">
   <g id="patch_2">
    <path d="M 57.6 307.584 
L 414.72 307.584 
L 414.72 41.472 
L 57.6 41.472 
z
" style="fill: #ffffff"/>
   </g>
   <g id="matplotlib.axis_1">
    <g id="xtick_1">
     <g id="line2d_1">
      <defs>
       <path id="m257a689c11" d="M 0 0 
L 0 3.5 
" style="stroke: #000000; stroke-width: 0.8"/>
      </defs>
      <g>
       <use xlink:href="#m257a689c11" x="73.832727" y="307.584" style="stroke: #000000; stroke-width: 0.8"/>
      </g>
     </g>
     <g id="text_1">
      <!-- 1 -->
      <g transform="translate(70.651477 322.182437) scale(0.1 -0.1)">
       <defs>
        <path id="DejaVuSans-31" d="M 794 531 
L 1825 531 
L 1825 4091 
L 703 3866 
L 703 4441 
L 1819 4666 
L 2450 4666 
L 2450 531 
L 3481 531 
L 3481 0 
L 794 0 
L 794 531 
z
" transform="scale(0.015625)"/>
       </defs>
       <use xlink:href="#DejaVuSans-31"/>
      </g>
     </g>
    </g>
    <g id="xtick_2">
     <g id="line2d_2">
      <g>
       <use xlink:href="#m257a689c11" x="109.262733" y="307.584" style="stroke: #000000; stroke-width: 0.8"/>
      </g>
     </g>
     <g id="text_2">
      <!-- 50 -->
      <g transform="translate(102.900233 322.182437) scale(0.1 -0.1)">
       <defs>
        <path id="DejaVuSans-35" d="M 691 4666 
L 3169 4666 
L 3169 4134 
L 1269 4134 
L 1269 2991 
Q 1406 3038 1543 3061 
Q 1681 3084 1819 3084 
Q 2600 3084 3056 2656 
Q 3513 2228 3513 1497 
Q 3513 744 3044 326 
Q 2575 -91 1722 -91 
Q 1428 -91 1123 -41 
Q 819 9 494 109 
L 494 744 
Q 775 591 1075 516 
Q 1375 441 1709 441 
Q 2250 441 2565 725 
Q 2881 1009 2881 1497 
Q 2881 1984 2565 2268 
Q 2250 2553 1709 2553 
Q 1456 2553 1204 2497 
Q 953 2441 691 2322 
L 691 4666 
z
" transform="scale(0.015625)"/>
        <path id="DejaVuSans-30" d="M 2034 4250 
Q 1547 4250 1301 3770 
Q 1056 3291 1056 2328 
Q 1056 1369 1301 889 
Q 1547 409 2034 409 
Q 2525 409 2770 889 
Q 3016 1369 3016 2328 
Q 3016 3291 2770 3770 
Q 2525 4250 2034 4250 
z
M 2034 4750 
Q 2819 4750 3233 4129 
Q 3647 3509 3647 2328 
Q 3647 1150 3233 529 
Q 2819 -91 2034 -91 
Q 1250 -91 836 529 
Q 422 1150 422 2328 
Q 422 3509 836 4129 
Q 1250 4750 2034 4750 
z
" transform="scale(0.015625)"/>
       </defs>
       <use xlink:href="#DejaVuSans-35"/>
       <use xlink:href="#DejaVuSans-30" x="63.623047"/>
      </g>
     </g>
    </g>
    <g id="xtick_3">
     <g id="line2d_3">
      <g>
       <use xlink:href="#m257a689c11" x="145.415801" y="307.584" style="stroke: #000000; stroke-width: 0.8"/>
      </g>
     </g>
     <g id="text_3">
      <!-- 100 -->
      <g transform="translate(135.872051 322.182437) scale(0.1 -0.1)">
       <use xlink:href="#DejaVuSans-31"/>
       <use xlink:href="#DejaVuSans-30" x="63.623047"/>
       <use xlink:href="#DejaVuSans-30" x="127.246094"/>
      </g>
     </g>
    </g>
    <g id="xtick_4">
     <g id="line2d_4">
      <g>
       <use xlink:href="#m257a689c11" x="181.568868" y="307.584" style="stroke: #000000; stroke-width: 0.8"/>
      </g>
     </g>
     <g id="text_4">
      <!-- 150 -->
      <g transform="translate(172.025118 322.182437) scale(0.1 -0.1)">
       <use xlink:href="#DejaVuSans-31"/>
       <use xlink:href="#DejaVuSans-35" x="63.623047"/>
       <use xlink:href="#DejaVuSans-30" x="127.246094"/>
      </g>
     </g>
    </g>
    <g id="xtick_5">
     <g id="line2d_5">
      <g>
       <use xlink:href="#m257a689c11" x="217.721936" y="307.584" style="stroke: #000000; stroke-width: 0.8"/>
      </g>
     </g>
     <g id="text_5">
      <!-- 200 -->
      <g transform="translate(208.178186 322.182437) scale(0.1 -0.1)">
       <defs>
        <path id="DejaVuSans-32" d="M 1228 531 
L 3431 531 
L 3431 0 
L 469 0 
L 469 531 
Q 828 903 1448 1529 
Q 2069 2156 2228 2338 
Q 2531 2678 2651 2914 
Q 2772 3150 2772 3378 
Q 2772 3750 2511 3984 
Q 2250 4219 1831 4219 
Q 1534 4219 1204 4116 
Q 875 4013 500 3803 
L 500 4441 
Q 881 4594 1212 4672 
Q 1544 4750 1819 4750 
Q 2544 4750 2975 4387 
Q 3406 4025 3406 3419 
Q 3406 3131 3298 2873 
Q 3191 2616 2906 2266 
Q 2828 2175 2409 1742 
Q 1991 1309 1228 531 
z
" transform="scale(0.015625)"/>
       </defs>
       <use xlink:href="#DejaVuSans-32"/>
       <use xlink:href="#DejaVuSans-30" x="63.623047"/>
       <use xlink:href="#DejaVuSans-30" x="127.246094"/>
      </g>
     </g>
    </g>
    <g id="xtick_6">
     <g id="line2d_6">
      <g>
       <use xlink:href="#m257a689c11" x="253.875003" y="307.584" style="stroke: #000000; stroke-width: 0.8"/>
      </g>
     </g>
     <g id="text_6">
      <!-- 250 -->
      <g transform="translate(244.331253 322.182437) scale(0.1 -0.1)">
       <use xlink:href="#DejaVuSans-32"/>
       <use xlink:href="#DejaVuSans-35" x="63.623047"/>
       <use xlink:href="#DejaVuSans-30" x="127.246094"/>
      </g>
     </g>
    </g>
    <g id="xtick_7">
     <g id="line2d_7">
      <g>
       <use xlink:href="#m257a689c11" x="290.02807" y="307.584" style="stroke: #000000; stroke-width: 0.8"/>
      </g>
     </g>
     <g id="text_7">
      <!-- 300 -->
      <g transform="translate(280.48432 322.182437) scale(0.1 -0.1)">
       <defs>
        <path id="DejaVuSans-33" d="M 2597 2516 
Q 3050 2419 3304 2112 
Q 3559 1806 3559 1356 
Q 3559 666 3084 287 
Q 2609 -91 1734 -91 
Q 1441 -91 1130 -33 
Q 819 25 488 141 
L 488 750 
Q 750 597 1062 519 
Q 1375 441 1716 441 
Q 2309 441 2620 675 
Q 2931 909 2931 1356 
Q 2931 1769 2642 2001 
Q 2353 2234 1838 2234 
L 1294 2234 
L 1294 2753 
L 1863 2753 
Q 2328 2753 2575 2939 
Q 2822 3125 2822 3475 
Q 2822 3834 2567 4026 
Q 2313 4219 1838 4219 
Q 1578 4219 1281 4162 
Q 984 4106 628 3988 
L 628 4550 
Q 988 4650 1302 4700 
Q 1616 4750 1894 4750 
Q 2613 4750 3031 4423 
Q 3450 4097 3450 3541 
Q 3450 3153 3228 2886 
Q 3006 2619 2597 2516 
z
" transform="scale(0.015625)"/>
       </defs>
       <use xlink:href="#DejaVuSans-33"/>
       <use xlink:href="#DejaVuSans-30" x="63.623047"/>
       <use xlink:href="#DejaVuSans-30" x="127.246094"/>
      </g>
     </g>
    </g>
    <g id="xtick_8">
     <g id="line2d_8">
      <g>
       <use xlink:href="#m257a689c11" x="326.181138" y="307.584" style="stroke: #000000; stroke-width: 0.8"/>
      </g>
     </g>
     <g id="text_8">
      <!-- 350 -->
      <g transform="translate(316.637388 322.182437) scale(0.1 -0.1)">
       <use xlink:href="#DejaVuSans-33"/>
       <use xlink:href="#DejaVuSans-35" x="63.623047"/>
       <use xlink:href="#DejaVuSans-30" x="127.246094"/>
      </g>
     </g>
    </g>
    <g id="xtick_9">
     <g id="line2d_9">
      <g>
       <use xlink:href="#m257a689c11" x="362.334205" y="307.584" style="stroke: #000000; stroke-width: 0.8"/>
      </g>
     </g>
     <g id="text_9">
      <!-- 400 -->
      <g transform="translate(352.790455 322.182437) scale(0.1 -0.1)">
       <defs>
        <path id="DejaVuSans-34" d="M 2419 4116 
L 825 1625 
L 2419 1625 
L 2419 4116 
z
M 2253 4666 
L 3047 4666 
L 3047 1625 
L 3713 1625 
L 3713 1100 
L 3047 1100 
L 3047 0 
L 2419 0 
L 2419 1100 
L 313 1100 
L 313 1709 
L 2253 4666 
z
" transform="scale(0.015625)"/>
       </defs>
       <use xlink:href="#DejaVuSans-34"/>
       <use xlink:href="#DejaVuSans-30" x="63.623047"/>
       <use xlink:href="#DejaVuSans-30" x="127.246094"/>
      </g>
     </g>
    </g>
    <g id="xtick_10">
     <g id="line2d_10">
      <g>
       <use xlink:href="#m257a689c11" x="398.487273" y="307.584" style="stroke: #000000; stroke-width: 0.8"/>
      </g>
     </g>
     <g id="text_10">
      <!-- 450 -->
      <g transform="translate(388.943523 322.182437) scale(0.1 -0.1)">
       <use xlink:href="#DejaVuSans-34"/>
       <use xlink:href="#DejaVuSans-35" x="63.623047"/>
       <use xlink:href="#DejaVuSans-30" x="127.246094"/>
      </g>
     </g>
    </g>
    <g id="text_11">
     <!-- Epochs -->
     <g transform="translate(218.244375 335.860562) scale(0.1 -0.1)">
      <defs>
       <path id="DejaVuSans-45" d="M 628 4666 
L 3578 4666 
L 3578 4134 
L 1259 4134 
L 1259 2753 
L 3481 2753 
L 3481 2222 
L 1259 2222 
L 1259 531 
L 3634 531 
L 3634 0 
L 628 0 
L 628 4666 
z
" transform="scale(0.015625)"/>
       <path id="DejaVuSans-70" d="M 1159 525 
L 1159 -1331 
L 581 -1331 
L 581 3500 
L 1159 3500 
L 1159 2969 
Q 1341 3281 1617 3432 
Q 1894 3584 2278 3584 
Q 2916 3584 3314 3078 
Q 3713 2572 3713 1747 
Q 3713 922 3314 415 
Q 2916 -91 2278 -91 
Q 1894 -91 1617 61 
Q 1341 213 1159 525 
z
M 3116 1747 
Q 3116 2381 2855 2742 
Q 2594 3103 2138 3103 
Q 1681 3103 1420 2742 
Q 1159 2381 1159 1747 
Q 1159 1113 1420 752 
Q 1681 391 2138 391 
Q 2594 391 2855 752 
Q 3116 1113 3116 1747 
z
" transform="scale(0.015625)"/>
       <path id="DejaVuSans-6f" d="M 1959 3097 
Q 1497 3097 1228 2736 
Q 959 2375 959 1747 
Q 959 1119 1226 758 
Q 1494 397 1959 397 
Q 2419 397 2687 759 
Q 2956 1122 2956 1747 
Q 2956 2369 2687 2733 
Q 2419 3097 1959 3097 
z
M 1959 3584 
Q 2709 3584 3137 3096 
Q 3566 2609 3566 1747 
Q 3566 888 3137 398 
Q 2709 -91 1959 -91 
Q 1206 -91 779 398 
Q 353 888 353 1747 
Q 353 2609 779 3096 
Q 1206 3584 1959 3584 
z
" transform="scale(0.015625)"/>
       <path id="DejaVuSans-63" d="M 3122 3366 
L 3122 2828 
Q 2878 2963 2633 3030 
Q 2388 3097 2138 3097 
Q 1578 3097 1268 2742 
Q 959 2388 959 1747 
Q 959 1106 1268 751 
Q 1578 397 2138 397 
Q 2388 397 2633 464 
Q 2878 531 3122 666 
L 3122 134 
Q 2881 22 2623 -34 
Q 2366 -91 2075 -91 
Q 1284 -91 818 406 
Q 353 903 353 1747 
Q 353 2603 823 3093 
Q 1294 3584 2113 3584 
Q 2378 3584 2631 3529 
Q 2884 3475 3122 3366 
z
" transform="scale(0.015625)"/>
       <path id="DejaVuSans-68" d="M 3513 2113 
L 3513 0 
L 2938 0 
L 2938 2094 
Q 2938 2591 2744 2837 
Q 2550 3084 2163 3084 
Q 1697 3084 1428 2787 
Q 1159 2491 1159 1978 
L 1159 0 
L 581 0 
L 581 4863 
L 1159 4863 
L 1159 2956 
Q 1366 3272 1645 3428 
Q 1925 3584 2291 3584 
Q 2894 3584 3203 3211 
Q 3513 2838 3513 2113 
z
" transform="scale(0.015625)"/>
       <path id="DejaVuSans-73" d="M 2834 3397 
L 2834 2853 
Q 2591 2978 2328 3040 
Q 2066 3103 1784 3103 
Q 1356 3103 1142 2972 
Q 928 2841 928 2578 
Q 928 2378 1081 2264 
Q 1234 2150 1697 2047 
L 1894 2003 
Q 2506 1872 2764 1633 
Q 3022 1394 3022 966 
Q 3022 478 2636 193 
Q 2250 -91 1575 -91 
Q 1294 -91 989 -36 
Q 684 19 347 128 
L 347 722 
Q 666 556 975 473 
Q 1284 391 1588 391 
Q 1994 391 2212 530 
Q 2431 669 2431 922 
Q 2431 1156 2273 1281 
Q 2116 1406 1581 1522 
L 1381 1569 
Q 847 1681 609 1914 
Q 372 2147 372 2553 
Q 372 3047 722 3315 
Q 1072 3584 1716 3584 
Q 2034 3584 2315 3537 
Q 2597 3491 2834 3397 
z
" transform="scale(0.015625)"/>
      </defs>
      <use xlink:href="#DejaVuSans-45"/>
      <use xlink:href="#DejaVuSans-70" x="63.183594"/>
      <use xlink:href="#DejaVuSans-6f" x="126.660156"/>
      <use xlink:href="#DejaVuSans-63" x="187.841797"/>
      <use xlink:href="#DejaVuSans-68" x="242.822266"/>
      <use xlink:href="#DejaVuSans-73" x="306.201172"/>
     </g>
    </g>
   </g>
   <g id="matplotlib.axis_2">
    <g id="ytick_1">
     <g id="line2d_11">
      <defs>
       <path id="mb19046daba" d="M 0 0 
L -3.5 0 
" style="stroke: #000000; stroke-width: 0.8"/>
      </defs>
      <g>
       <use xlink:href="#mb19046daba" x="57.6" y="285.846544" style="stroke: #000000; stroke-width: 0.8"/>
      </g>
     </g>
     <g id="text_12">
      <!-- 10 -->
      <g transform="translate(37.875 289.645763) scale(0.1 -0.1)">
       <use xlink:href="#DejaVuSans-31"/>
       <use xlink:href="#DejaVuSans-30" x="63.623047"/>
      </g>
     </g>
    </g>
    <g id="ytick_2">
     <g id="line2d_12">
      <g>
       <use xlink:href="#mb19046daba" x="57.6" y="253.9708" style="stroke: #000000; stroke-width: 0.8"/>
      </g>
     </g>
     <g id="text_13">
      <!-- 20 -->
      <g transform="translate(37.875 257.770019) scale(0.1 -0.1)">
       <use xlink:href="#DejaVuSans-32"/>
       <use xlink:href="#DejaVuSans-30" x="63.623047"/>
      </g>
     </g>
    </g>
    <g id="ytick_3">
     <g id="line2d_13">
      <g>
       <use xlink:href="#mb19046daba" x="57.6" y="222.095057" style="stroke: #000000; stroke-width: 0.8"/>
      </g>
     </g>
     <g id="text_14">
      <!-- 30 -->
      <g transform="translate(37.875 225.894275) scale(0.1 -0.1)">
       <use xlink:href="#DejaVuSans-33"/>
       <use xlink:href="#DejaVuSans-30" x="63.623047"/>
      </g>
     </g>
    </g>
    <g id="ytick_4">
     <g id="line2d_14">
      <g>
       <use xlink:href="#mb19046daba" x="57.6" y="190.219313" style="stroke: #000000; stroke-width: 0.8"/>
      </g>
     </g>
     <g id="text_15">
      <!-- 40 -->
      <g transform="translate(37.875 194.018532) scale(0.1 -0.1)">
       <use xlink:href="#DejaVuSans-34"/>
       <use xlink:href="#DejaVuSans-30" x="63.623047"/>
      </g>
     </g>
    </g>
    <g id="ytick_5">
     <g id="line2d_15">
      <g>
       <use xlink:href="#mb19046daba" x="57.6" y="158.343569" style="stroke: #000000; stroke-width: 0.8"/>
      </g>
     </g>
     <g id="text_16">
      <!-- 50 -->
      <g transform="translate(37.875 162.142788) scale(0.1 -0.1)">
       <use xlink:href="#DejaVuSans-35"/>
       <use xlink:href="#DejaVuSans-30" x="63.623047"/>
      </g>
     </g>
    </g>
    <g id="ytick_6">
     <g id="line2d_16">
      <g>
       <use xlink:href="#mb19046daba" x="57.6" y="126.467826" style="stroke: #000000; stroke-width: 0.8"/>
      </g>
     </g>
     <g id="text_17">
      <!-- 60 -->
      <g transform="translate(37.875 130.267044) scale(0.1 -0.1)">
       <defs>
        <path id="DejaVuSans-36" d="M 2113 2584 
Q 1688 2584 1439 2293 
Q 1191 2003 1191 1497 
Q 1191 994 1439 701 
Q 1688 409 2113 409 
Q 2538 409 2786 701 
Q 3034 994 3034 1497 
Q 3034 2003 2786 2293 
Q 2538 2584 2113 2584 
z
M 3366 4563 
L 3366 3988 
Q 3128 4100 2886 4159 
Q 2644 4219 2406 4219 
Q 1781 4219 1451 3797 
Q 1122 3375 1075 2522 
Q 1259 2794 1537 2939 
Q 1816 3084 2150 3084 
Q 2853 3084 3261 2657 
Q 3669 2231 3669 1497 
Q 3669 778 3244 343 
Q 2819 -91 2113 -91 
Q 1303 -91 875 529 
Q 447 1150 447 2328 
Q 447 3434 972 4092 
Q 1497 4750 2381 4750 
Q 2619 4750 2861 4703 
Q 3103 4656 3366 4563 
z
" transform="scale(0.015625)"/>
       </defs>
       <use xlink:href="#DejaVuSans-36"/>
       <use xlink:href="#DejaVuSans-30" x="63.623047"/>
      </g>
     </g>
    </g>
    <g id="ytick_7">
     <g id="line2d_17">
      <g>
       <use xlink:href="#mb19046daba" x="57.6" y="94.592082" style="stroke: #000000; stroke-width: 0.8"/>
      </g>
     </g>
     <g id="text_18">
      <!-- 70 -->
      <g transform="translate(37.875 98.391301) scale(0.1 -0.1)">
       <defs>
        <path id="DejaVuSans-37" d="M 525 4666 
L 3525 4666 
L 3525 4397 
L 1831 0 
L 1172 0 
L 2766 4134 
L 525 4134 
L 525 4666 
z
" transform="scale(0.015625)"/>
       </defs>
       <use xlink:href="#DejaVuSans-37"/>
       <use xlink:href="#DejaVuSans-30" x="63.623047"/>
      </g>
     </g>
    </g>
    <g id="ytick_8">
     <g id="line2d_18">
      <g>
       <use xlink:href="#mb19046daba" x="57.6" y="62.716338" style="stroke: #000000; stroke-width: 0.8"/>
      </g>
     </g>
     <g id="text_19">
      <!-- 80 -->
      <g transform="translate(37.875 66.515557) scale(0.1 -0.1)">
       <defs>
        <path id="DejaVuSans-38" d="M 2034 2216 
Q 1584 2216 1326 1975 
Q 1069 1734 1069 1313 
Q 1069 891 1326 650 
Q 1584 409 2034 409 
Q 2484 409 2743 651 
Q 3003 894 3003 1313 
Q 3003 1734 2745 1975 
Q 2488 2216 2034 2216 
z
M 1403 2484 
Q 997 2584 770 2862 
Q 544 3141 544 3541 
Q 544 4100 942 4425 
Q 1341 4750 2034 4750 
Q 2731 4750 3128 4425 
Q 3525 4100 3525 3541 
Q 3525 3141 3298 2862 
Q 3072 2584 2669 2484 
Q 3125 2378 3379 2068 
Q 3634 1759 3634 1313 
Q 3634 634 3220 271 
Q 2806 -91 2034 -91 
Q 1263 -91 848 271 
Q 434 634 434 1313 
Q 434 1759 690 2068 
Q 947 2378 1403 2484 
z
M 1172 3481 
Q 1172 3119 1398 2916 
Q 1625 2713 2034 2713 
Q 2441 2713 2670 2916 
Q 2900 3119 2900 3481 
Q 2900 3844 2670 4047 
Q 2441 4250 2034 4250 
Q 1625 4250 1398 4047 
Q 1172 3844 1172 3481 
z
" transform="scale(0.015625)"/>
       </defs>
       <use xlink:href="#DejaVuSans-38"/>
       <use xlink:href="#DejaVuSans-30" x="63.623047"/>
      </g>
     </g>
    </g>
    <g id="text_20">
     <!-- Accuracy -->
     <g transform="translate(31.795312 197.356125) rotate(-90) scale(0.1 -0.1)">
      <defs>
       <path id="DejaVuSans-41" d="M 2188 4044 
L 1331 1722 
L 3047 1722 
L 2188 4044 
z
M 1831 4666 
L 2547 4666 
L 4325 0 
L 3669 0 
L 3244 1197 
L 1141 1197 
L 716 0 
L 50 0 
L 1831 4666 
z
" transform="scale(0.015625)"/>
       <path id="DejaVuSans-75" d="M 544 1381 
L 544 3500 
L 1119 3500 
L 1119 1403 
Q 1119 906 1312 657 
Q 1506 409 1894 409 
Q 2359 409 2629 706 
Q 2900 1003 2900 1516 
L 2900 3500 
L 3475 3500 
L 3475 0 
L 2900 0 
L 2900 538 
Q 2691 219 2414 64 
Q 2138 -91 1772 -91 
Q 1169 -91 856 284 
Q 544 659 544 1381 
z
M 1991 3584 
L 1991 3584 
z
" transform="scale(0.015625)"/>
       <path id="DejaVuSans-72" d="M 2631 2963 
Q 2534 3019 2420 3045 
Q 2306 3072 2169 3072 
Q 1681 3072 1420 2755 
Q 1159 2438 1159 1844 
L 1159 0 
L 581 0 
L 581 3500 
L 1159 3500 
L 1159 2956 
Q 1341 3275 1631 3429 
Q 1922 3584 2338 3584 
Q 2397 3584 2469 3576 
Q 2541 3569 2628 3553 
L 2631 2963 
z
" transform="scale(0.015625)"/>
       <path id="DejaVuSans-61" d="M 2194 1759 
Q 1497 1759 1228 1600 
Q 959 1441 959 1056 
Q 959 750 1161 570 
Q 1363 391 1709 391 
Q 2188 391 2477 730 
Q 2766 1069 2766 1631 
L 2766 1759 
L 2194 1759 
z
M 3341 1997 
L 3341 0 
L 2766 0 
L 2766 531 
Q 2569 213 2275 61 
Q 1981 -91 1556 -91 
Q 1019 -91 701 211 
Q 384 513 384 1019 
Q 384 1609 779 1909 
Q 1175 2209 1959 2209 
L 2766 2209 
L 2766 2266 
Q 2766 2663 2505 2880 
Q 2244 3097 1772 3097 
Q 1472 3097 1187 3025 
Q 903 2953 641 2809 
L 641 3341 
Q 956 3463 1253 3523 
Q 1550 3584 1831 3584 
Q 2591 3584 2966 3190 
Q 3341 2797 3341 1997 
z
" transform="scale(0.015625)"/>
       <path id="DejaVuSans-79" d="M 2059 -325 
Q 1816 -950 1584 -1140 
Q 1353 -1331 966 -1331 
L 506 -1331 
L 506 -850 
L 844 -850 
Q 1081 -850 1212 -737 
Q 1344 -625 1503 -206 
L 1606 56 
L 191 3500 
L 800 3500 
L 1894 763 
L 2988 3500 
L 3597 3500 
L 2059 -325 
z
" transform="scale(0.015625)"/>
      </defs>
      <use xlink:href="#DejaVuSans-41"/>
      <use xlink:href="#DejaVuSans-63" x="66.658203"/>
      <use xlink:href="#DejaVuSans-63" x="121.638672"/>
      <use xlink:href="#DejaVuSans-75" x="176.619141"/>
      <use xlink:href="#DejaVuSans-72" x="239.998047"/>
      <use xlink:href="#DejaVuSans-61" x="281.111328"/>
      <use xlink:href="#DejaVuSans-63" x="342.390625"/>
      <use xlink:href="#DejaVuSans-79" x="397.371094"/>
     </g>
    </g>
   </g>
   <g id="line2d_19">
    <path d="M 73.832727 295.488 
L 76.001911 243.194568 
L 76.724973 235.049359 
L 77.448034 223.739845 
L 78.171095 215.892037 
L 78.894157 210.17576 
L 79.617218 203.107632 
L 80.340279 197.884473 
L 81.063341 196.528479 
L 81.786402 190.232063 
L 82.509463 179.551458 
L 83.232525 176.138841 
L 83.955586 174.534216 
L 84.678647 174.4048 
L 85.401709 171.701737 
L 86.12477 165.862101 
L 86.847832 161.684147 
L 87.570893 163.146288 
L 88.293954 159.797103 
L 89.017016 155.42152 
L 89.740077 146.528187 
L 90.463138 148.991226 
L 91.1862 138.948136 
L 91.909261 138.865259 
L 92.632322 148.402481 
L 93.355384 143.294074 
L 94.078445 143.427953 
L 94.801506 139.36252 
L 95.524568 174.345193 
L 96.247629 173.805536 
L 97.693752 169.402221 
L 98.416813 162.661776 
L 99.862936 165.706866 
L 100.585997 163.29706 
L 101.309059 155.527985 
L 102.03212 153.02032 
L 102.755181 152.136406 
L 104.201304 154.375995 
L 104.924365 147.380545 
L 105.647427 151.600893 
L 106.370488 147.69484 
L 107.093549 147.361419 
L 107.816611 147.26133 
L 108.539672 143.859231 
L 109.262733 141.532302 
L 109.985795 142.537344 
L 110.708856 141.4558 
L 111.431917 137.845235 
L 112.154979 140.089287 
L 112.87804 137.800609 
L 113.601101 137.85161 
L 114.324163 141.196651 
L 115.047224 135.945441 
L 115.770285 134.083897 
L 116.493347 132.660326 
L 117.216408 136.825211 
L 117.93947 124.434153 
L 118.662531 122.005222 
L 119.385592 128.803361 
L 120.108654 119.982068 
L 120.831715 119.121423 
L 121.554776 121.127682 
L 122.277838 123.858159 
L 123.000899 120.675047 
L 123.72396 114.886412 
L 124.447022 116.681972 
L 125.170083 121.964739 
L 125.893144 116.879602 
L 126.616206 114.746158 
L 127.339267 118.260778 
L 128.062328 114.728946 
L 128.78539 112.185261 
L 129.508451 108.79177 
L 130.231512 112.776238 
L 130.954574 109.127421 
L 131.677635 109.239943 
L 132.400696 101.623871 
L 133.123758 100.996875 
L 133.846819 112.166136 
L 135.292942 104.543689 
L 136.016003 104.335541 
L 136.739065 115.740682 
L 137.462126 103.621524 
L 138.185187 102.985922 
L 138.908249 133.183089 
L 139.63131 147.010786 
L 140.354371 138.453105 
L 141.077433 145.340497 
L 141.800494 132.194834 
L 142.523555 140.214771 
L 143.246617 137.275828 
L 143.969678 137.120699 
L 144.692739 137.127074 
L 145.415801 135.684166 
L 146.138862 135.718166 
L 146.861923 138.759112 
L 147.584985 136.153802 
L 148.308046 127.07984 
L 149.031108 126.84821 
L 149.754169 128.501498 
L 150.47723 132.653845 
L 151.200292 133.459239 
L 151.923353 128.915883 
L 152.646414 127.589852 
L 153.369476 132.116207 
L 154.092537 132.305337 
L 154.815598 128.633251 
L 155.53866 122.153975 
L 156.261721 126.994838 
L 156.984782 117.198359 
L 157.707844 119.433912 
L 158.430905 130.541546 
L 159.153966 126.236195 
L 159.877028 126.973587 
L 160.600089 122.400481 
L 163.492334 125.088669 
L 164.215396 119.181031 
L 164.938457 122.853116 
L 165.661519 125.656057 
L 166.38458 124.908039 
L 167.107641 117.599994 
L 167.830703 115.188063 
L 168.553764 116.57572 
L 169.276825 118.352261 
L 169.999887 121.034074 
L 170.722948 114.767303 
L 171.446009 121.274205 
L 172.169071 116.885977 
L 172.892132 117.321612 
L 173.615193 118.796397 
L 175.061316 114.074537 
L 175.784377 116.17196 
L 176.507439 116.195336 
L 177.2305 113.058763 
L 177.953561 115.94883 
L 178.676623 114.114912 
L 179.399684 115.088185 
L 180.122745 119.38716 
L 180.845807 114.195664 
L 181.568868 113.698403 
L 182.29193 112.29162 
L 183.014991 118.184382 
L 183.738052 105.312957 
L 184.461114 103.632043 
L 185.184175 111.575478 
L 185.907236 102.998778 
L 186.630298 103.428038 
L 188.07642 109.104046 
L 188.799482 106.377607 
L 189.522543 100.907729 
L 190.245604 104.086804 
L 190.968666 109.764936 
L 191.691727 105.125953 
L 192.414788 104.462937 
L 193.13785 108.485656 
L 193.860911 104.921948 
L 195.307034 100.448719 
L 196.030095 104.57769 
L 196.753157 100.531596 
L 197.476218 101.632371 
L 198.199279 93.654935 
L 198.922341 93.238425 
L 199.645402 104.790195 
L 200.368463 100.384967 
L 201.091525 96.936012 
L 201.814586 96.262371 
L 202.537647 108.081897 
L 203.260709 95.112719 
L 203.98377 94.50283 
L 204.706831 86.629521 
L 205.429893 99.375569 
L 206.152954 91.51076 
L 206.876015 99.998208 
L 207.599077 93.023795 
L 208.322138 94.28395 
L 209.045199 88.695069 
L 209.768261 99.936582 
L 210.491322 92.044148 
L 211.214383 93.168299 
L 211.937445 96.003115 
L 212.660506 84.906106 
L 213.383568 88.225434 
L 214.106629 90.930622 
L 214.82969 90.067852 
L 215.552752 86.765524 
L 216.275813 86.37239 
L 216.998874 99.483946 
L 218.444997 90.703241 
L 219.168058 80.894012 
L 219.89112 88.335936 
L 220.614181 89.307084 
L 221.337242 80.874887 
L 222.060304 95.945739 
L 222.783365 84.774353 
L 223.506426 86.504143 
L 224.229488 90.080602 
L 224.952549 88.480439 
L 225.67561 121.09995 
L 226.398672 127.152092 
L 227.121733 128.752254 
L 227.844794 131.251312 
L 228.567856 128.471747 
L 229.290917 123.571383 
L 230.013979 123.341878 
L 230.73704 129.725527 
L 231.460101 126.331823 
L 232.183163 131.327814 
L 232.906224 124.912289 
L 233.629285 119.614541 
L 234.352347 121.631213 
L 235.075408 129.466271 
L 235.798469 124.047394 
L 236.521531 122.961494 
L 237.244592 123.820014 
L 237.967653 121.807592 
L 238.690715 123.817889 
L 240.136837 119.068403 
L 240.859899 118.496765 
L 241.58296 123.384379 
L 242.306021 122.638486 
L 243.029083 117.185609 
L 243.752144 120.762068 
L 244.475206 120.249931 
L 245.198267 123.718012 
L 245.921328 112.321371 
L 246.64439 117.427865 
L 247.367451 115.838328 
L 248.090512 120.581438 
L 248.813574 122.914743 
L 249.536635 119.306409 
L 250.259696 118.977026 
L 250.982758 114.703551 
L 251.705819 118.887774 
L 252.42888 114.797053 
L 253.151942 120.00555 
L 253.875003 109.699059 
L 254.598064 118.420263 
L 255.321126 124.990916 
L 256.044187 116.643721 
L 256.767248 116.509843 
L 258.213371 112.565751 
L 258.936432 120.141553 
L 259.659494 116.203836 
L 260.382555 120.101177 
L 261.105617 114.02141 
L 261.828678 121.765091 
L 262.551739 113.517774 
L 263.274801 118.28851 
L 263.997862 110.78071 
L 264.720923 116.021082 
L 265.443985 117.497991 
L 266.167046 113.041762 
L 266.890107 113.035387 
L 267.613169 107.707888 
L 268.33623 112.546626 
L 269.059291 118.235384 
L 269.782353 117.457615 
L 270.505414 114.918181 
L 271.228475 119.654917 
L 271.951537 116.354715 
L 272.674598 114.469796 
L 273.397659 118.460639 
L 274.120721 118.076005 
L 274.843782 116.707473 
L 275.566843 121.70984 
L 276.289905 117.827374 
L 277.012966 115.047809 
L 277.736028 116.161335 
L 278.459089 115.387817 
L 279.18215 105.359708 
L 279.905212 111.186594 
L 280.628273 110.672332 
L 281.351334 108.929792 
L 282.074396 112.657128 
L 282.797457 112.123741 
L 283.520518 109.998691 
L 284.24358 115.530196 
L 284.966641 112.748506 
L 285.689702 108.373029 
L 286.412764 115.103061 
L 287.135825 103.355786 
L 287.858886 112.650753 
L 288.581948 116.8116 
L 289.305009 114.701426 
L 290.02807 105.081327 
L 290.751132 104.020927 
L 291.474193 109.937065 
L 292.197255 102.845775 
L 292.920316 119.130029 
L 293.643377 115.241189 
L 294.366439 118.133381 
L 295.0895 111.250346 
L 295.812561 113.925783 
L 296.535623 104.477813 
L 297.258684 106.575237 
L 297.981745 109.346301 
L 299.427868 113.906658 
L 300.150929 105.183329 
L 300.873991 110.914588 
L 301.597052 105.43621 
L 302.320113 104.14843 
L 303.043175 107.046998 
L 303.766236 106.532736 
L 304.489297 107.35513 
L 305.212359 105.810219 
L 305.93542 108.753412 
L 307.381543 103.967801 
L 308.104604 106.808992 
L 309.550727 98.99306 
L 310.273788 104.016677 
L 310.99685 102.272011 
L 311.719911 103.330286 
L 312.442972 101.940503 
L 313.166034 105.703966 
L 313.889095 105.164204 
L 314.612156 96.708631 
L 315.335218 106.709115 
L 316.78134 94.500705 
L 317.504402 102.393139 
L 318.227463 106.957746 
L 318.950524 95.082969 
L 319.673586 101.987255 
L 320.396647 100.795102 
L 321.119708 96.993388 
L 321.84277 92.220527 
L 322.565831 103.185783 
L 323.288892 97.962411 
L 324.011954 104.424686 
L 324.735015 102.429265 
L 325.458077 106.666614 
L 326.181138 96.151868 
L 326.904199 103.9423 
L 327.627261 94.388077 
L 328.350322 100.353091 
L 329.073383 101.902253 
L 329.796445 102.794773 
L 330.519506 92.307654 
L 331.242567 94.857713 
L 331.965629 98.215292 
L 332.68869 95.701358 
L 333.411751 91.670139 
L 334.134813 98.846431 
L 334.857874 93.616684 
L 335.580935 94.158572 
L 336.303997 95.218972 
L 337.027058 95.527104 
L 337.750119 99.398944 
L 338.473181 97.303645 
L 339.196242 91.351381 
L 339.919304 94.653708 
L 340.642365 87.298912 
L 341.365426 91.680764 
L 342.088488 88.593067 
L 342.811549 91.323756 
L 343.53461 95.065968 
L 344.257672 95.839486 
L 344.980733 87.131033 
L 345.703794 94.29245 
L 346.426856 92.390531 
L 347.149917 89.887222 
L 347.872978 88.850198 
L 348.59604 91.236629 
L 349.319101 85.396993 
L 350.042162 95.097844 
L 350.765224 91.508635 
L 351.488285 89.362335 
L 352.211346 91.206878 
L 352.934408 86.043008 
L 353.657469 95.765109 
L 354.38053 85.280115 
L 355.826653 92.139775 
L 356.549715 87.373289 
L 357.272776 88.826823 
L 357.995837 86.878152 
L 358.718899 81.941662 
L 359.44196 90.637365 
L 360.165021 92.1589 
L 360.888083 81.157519 
L 361.611144 85.649873 
L 362.334205 79.417103 
L 363.057267 81.722782 
L 363.780328 97.201643 
L 364.503389 84.971983 
L 365.226451 94.626083 
L 365.949512 84.791353 
L 366.672573 84.155964 
L 367.395635 86.699648 
L 368.118696 83.435572 
L 368.841757 80.928013 
L 369.564819 87.394539 
L 370.28788 82.50055 
L 371.010941 89.103079 
L 371.734003 86.414891 
L 372.457064 77.955069 
L 373.180126 86.336264 
L 373.903187 88.752446 
L 374.626248 83.937083 
L 375.34931 81.333898 
L 376.072371 85.677499 
L 376.795432 84.661725 
L 377.518494 84.104962 
L 378.241555 88.618568 
L 378.964616 87.947052 
L 379.687678 87.609169 
L 381.1338 80.029117 
L 381.856862 82.220043 
L 382.579923 86.062133 
L 383.302984 79.07922 
L 384.026046 86.686898 
L 384.749107 84.570348 
L 385.472168 85.097361 
L 386.19523 87.991678 
L 386.918291 87.483791 
L 387.641353 90.006225 
L 388.364414 88.51869 
L 389.087475 85.892129 
L 389.810537 84.470471 
L 390.533598 86.038758 
L 391.256659 85.08461 
L 391.979721 89.205081 
L 392.702782 83.607701 
L 393.425843 93.710186 
L 394.148905 84.00296 
L 394.871966 88.410313 
L 395.595027 87.749422 
L 396.318089 84.017835 
L 397.04115 90.705366 
L 397.764211 75.611139 
L 398.487273 88.221183 
L 398.487273 88.221183 
" clip-path="url(#p515eed01dd)" style="fill: none; stroke: #1f77b4; stroke-width: 1.5; stroke-linecap: square"/>
   </g>
   <g id="line2d_20">
    <path d="M 73.832727 281.479567 
L 74.555789 250.050084 
L 76.001911 200.674557 
L 76.724973 193.375012 
L 77.448034 172.400772 
L 78.171095 170.551979 
L 78.894157 156.01664 
L 80.340279 140.461277 
L 81.063341 142.08694 
L 81.786402 132.747347 
L 82.509463 128.858506 
L 83.232525 121.303955 
L 83.955586 117.383239 
L 84.678647 116.299463 
L 85.401709 114.22754 
L 86.12477 106.800492 
L 86.847832 103.804172 
L 87.570893 104.696693 
L 88.293954 99.500947 
L 89.017016 97.875284 
L 89.740077 96.536502 
L 90.463138 95.707733 
L 91.1862 92.042023 
L 92.632322 91.181377 
L 93.355384 87.675046 
L 94.078445 88.344436 
L 94.801506 88.312561 
L 95.524568 120.698316 
L 96.247629 113.048138 
L 96.97069 110.56183 
L 97.693752 109.860563 
L 98.416813 115.438818 
L 99.139874 108.489906 
L 99.862936 106.73674 
L 100.585997 102.369763 
L 101.309059 103.166657 
L 102.03212 100.903479 
L 102.755181 99.214065 
L 103.478243 95.006467 
L 104.201304 99.883455 
L 104.924365 96.249621 
L 105.647427 91.818892 
L 106.370488 90.958247 
L 107.093549 96.377124 
L 107.816611 94.113946 
L 108.539672 87.770673 
L 109.262733 90.256981 
L 109.985795 86.017507 
L 110.708856 87.738797 
L 111.431917 85.69875 
L 112.154979 85.220613 
L 112.87804 81.841785 
L 113.601101 81.331773 
L 114.324163 83.435572 
L 115.047224 85.029359 
L 115.770285 80.98114 
L 116.493347 79.036719 
L 117.216408 83.467448 
L 118.662531 75.052251 
L 119.385592 78.048571 
L 120.108654 75.785393 
L 120.831715 75.020375 
L 121.554776 75.498512 
L 123.000899 72.310937 
L 123.72396 71.864677 
L 124.447022 71.832801 
L 125.170083 71.322789 
L 125.893144 71.800925 
L 126.616206 68.390221 
L 127.339267 69.155239 
L 128.062328 67.880209 
L 128.78539 66.127043 
L 129.508451 67.27457 
L 130.231512 65.99954 
L 130.954574 65.967664 
L 131.677635 65.680783 
L 132.400696 64.915765 
L 133.123758 65.521404 
L 133.846819 66.318297 
L 135.292942 65.425777 
L 136.016003 64.437629 
L 136.739065 63.991368 
L 137.462126 64.852013 
L 138.185187 63.608859 
L 138.908249 92.838916 
L 139.63131 91.500135 
L 141.077433 87.101282 
L 141.800494 88.886324 
L 142.523555 86.527519 
L 143.246617 82.92556 
L 143.969678 86.495643 
L 144.692739 83.754329 
L 145.415801 85.156862 
L 146.138862 85.156862 
L 146.861923 82.861808 
L 147.584985 85.69875 
L 148.308046 81.905536 
L 149.031108 79.769861 
L 149.754169 81.236145 
L 150.47723 82.160542 
L 151.200292 82.829933 
L 151.923353 80.088619 
L 152.646414 79.865488 
L 153.369476 81.076767 
L 154.092537 79.164222 
L 154.815598 82.383672 
L 155.53866 79.674234 
L 156.984782 77.442932 
L 157.707844 76.964796 
L 159.153966 79.068595 
L 159.877028 78.399204 
L 160.600089 76.391032 
L 161.32315 73.330961 
L 162.046212 76.837293 
L 162.769273 74.191606 
L 163.492334 73.044079 
L 164.215396 79.801737 
L 164.938457 76.136026 
L 165.661519 76.454784 
L 166.38458 72.502192 
L 167.107641 75.689766 
L 167.830703 75.084127 
L 168.553764 75.020375 
L 169.276825 72.725322 
L 169.999887 76.582287 
L 170.722948 73.171582 
L 171.446009 71.482168 
L 172.169071 71.099659 
L 172.892132 76.454784 
L 173.615193 75.498512 
L 174.338255 72.119683 
L 175.061316 70.143387 
L 175.784377 69.505872 
L 177.2305 68.677102 
L 177.953561 72.597819 
L 178.676623 71.259038 
L 179.399684 71.322789 
L 180.122745 71.004032 
L 180.845807 72.820949 
L 181.568868 68.900233 
L 182.29193 69.410245 
L 183.014991 73.554091 
L 183.738052 68.453972 
L 184.461114 67.72083 
L 185.184175 68.071463 
L 185.907236 69.952132 
L 186.630298 66.605179 
L 187.353359 67.115191 
L 188.07642 68.708978 
L 188.799482 67.27457 
L 189.522543 66.477676 
L 190.245604 66.700806 
L 190.968666 67.147067 
L 191.691727 67.242694 
L 192.414788 65.075143 
L 193.13785 66.509552 
L 194.583972 62.811966 
L 195.307034 64.27825 
L 196.753157 63.00322 
L 197.476218 62.684463 
L 198.199279 62.843841 
L 198.922341 62.397581 
L 199.645402 65.011392 
L 201.091525 61.090675 
L 201.814586 60.963173 
L 202.537647 62.843841 
L 203.260709 60.803794 
L 204.706831 61.345681 
L 205.429893 61.250054 
L 206.152954 59.528764 
L 206.876015 59.305634 
L 207.599077 59.305634 
L 208.322138 59.496888 
L 209.045199 60.771918 
L 209.768261 59.210007 
L 210.491322 58.317486 
L 211.214383 59.528764 
L 211.937445 59.33751 
L 212.660506 58.50874 
L 213.383568 58.476865 
L 214.106629 58.221859 
L 214.82969 59.273758 
L 215.552752 59.241882 
L 216.275813 57.934977 
L 216.998874 58.636243 
L 217.721936 57.138083 
L 218.444997 57.807474 
L 219.168058 56.819326 
L 219.89112 58.668119 
L 220.614181 57.807474 
L 221.337242 57.552468 
L 222.060304 58.221859 
L 222.783365 57.616219 
L 223.506426 56.500568 
L 224.229488 58.221859 
L 224.952549 57.648095 
L 225.67561 83.37182 
L 226.398672 83.786205 
L 227.121733 79.514855 
L 227.844794 82.511175 
L 228.567856 82.543051 
L 230.013979 79.48298 
L 230.73704 81.969288 
L 231.460101 82.798057 
L 232.183163 80.758009 
L 232.906224 75.912896 
L 233.629285 75.912896 
L 234.352347 75.65789 
L 235.075408 76.773541 
L 235.798469 79.196098 
L 236.521531 79.961116 
L 237.244592 77.37918 
L 237.967653 77.634186 
L 238.690715 79.387352 
L 239.413776 73.012204 
L 240.136837 80.630506 
L 240.859899 76.263529 
L 241.58296 74.701618 
L 242.306021 75.116003 
L 243.752144 73.617843 
L 244.475206 73.968476 
L 245.198267 72.629695 
L 245.921328 76.70979 
L 246.64439 77.602311 
L 247.367451 73.968476 
L 248.090512 75.43476 
L 248.813574 73.171582 
L 249.536635 72.852825 
L 250.259696 75.020375 
L 250.982758 72.406564 
L 251.705819 78.972968 
L 252.42888 73.585967 
L 253.151942 75.944772 
L 255.321126 73.840973 
L 256.044187 70.111511 
L 256.767248 72.884701 
L 257.49031 73.330961 
L 258.213371 74.350985 
L 258.936432 74.127855 
L 259.659494 71.386541 
L 260.382555 71.960304 
L 261.105617 75.721642 
L 261.828678 72.43844 
L 262.551739 73.458464 
L 263.274801 68.963984 
L 263.997862 70.525896 
L 264.720923 73.362837 
L 265.443985 72.757198 
L 266.167046 71.928428 
L 266.890107 68.900233 
L 267.613169 74.9885 
L 268.33623 75.243506 
L 269.059291 72.693446 
L 269.782353 72.374689 
L 270.505414 71.928428 
L 271.228475 71.960304 
L 271.951537 72.597819 
L 272.674598 72.597819 
L 273.397659 73.139707 
L 274.120721 68.836481 
L 274.843782 71.609671 
L 275.566843 69.21899 
L 276.289905 72.151559 
L 277.012966 68.868357 
L 277.736028 69.888381 
L 278.459089 69.792754 
L 279.18215 72.087807 
L 279.905212 69.697126 
L 280.628273 71.514044 
L 281.351334 67.402073 
L 282.074396 70.462144 
L 282.797457 68.77273 
L 283.520518 72.66157 
L 284.24358 74.255358 
L 284.966641 69.760878 
L 285.689702 68.007712 
L 286.412764 69.21899 
L 287.135825 69.824629 
L 287.858886 68.708978 
L 288.581948 69.984008 
L 289.305009 69.888381 
L 290.02807 69.187114 
L 290.751132 67.816457 
L 291.474193 69.091487 
L 292.197255 67.848333 
L 292.920316 68.390221 
L 293.643377 67.975836 
L 294.366439 69.21899 
L 295.0895 69.473996 
L 295.812561 68.836481 
L 296.535623 69.346493 
L 297.258684 66.573303 
L 297.981745 69.633375 
L 298.704807 68.99586 
L 299.427868 67.94396 
L 300.150929 68.740854 
L 301.597052 65.77641 
L 302.320113 65.489528 
L 303.043175 66.350173 
L 303.766236 67.975836 
L 304.489297 66.987688 
L 305.212359 65.712658 
L 305.93542 64.788262 
L 306.658481 67.338321 
L 307.381543 67.242694 
L 308.827666 64.820138 
L 309.550727 66.318297 
L 310.273788 66.350173 
L 310.99685 64.915765 
L 311.719911 67.465824 
L 312.442972 67.4977 
L 313.166034 67.848333 
L 313.889095 65.585155 
L 314.612156 65.298274 
L 315.335218 65.648907 
L 316.058279 65.298274 
L 316.78134 65.393901 
L 318.227463 64.405753 
L 318.950524 64.310126 
L 319.673586 65.266398 
L 320.396647 63.22635 
L 321.119708 63.895741 
L 321.84277 63.991368 
L 322.565831 61.919445 
L 323.288892 63.353853 
L 324.011954 62.333829 
L 325.458077 62.493208 
L 326.181138 63.576983 
L 326.904199 62.620711 
L 327.627261 62.525084 
L 328.350322 63.290102 
L 329.073383 62.78009 
L 329.796445 60.23003 
L 330.519506 62.652587 
L 331.242567 59.751894 
L 331.965629 62.206327 
L 332.68869 61.696315 
L 333.411751 62.429457 
L 334.134813 61.28193 
L 334.857874 61.441309 
L 335.580935 59.624391 
L 336.303997 60.708167 
L 337.027058 62.493208 
L 337.750119 59.975024 
L 338.473181 60.612539 
L 339.196242 60.676291 
L 339.919304 61.632563 
L 340.642365 59.78377 
L 341.365426 60.293782 
L 342.088488 61.313806 
L 342.811549 59.528764 
L 343.53461 59.528764 
L 344.257672 58.476865 
L 344.980733 59.210007 
L 345.703794 59.528764 
L 346.426856 58.158107 
L 347.149917 57.456841 
L 347.872978 59.273758 
L 348.59604 59.815646 
L 349.319101 58.126231 
L 350.042162 59.241882 
L 351.488285 57.648095 
L 352.934408 59.624391 
L 353.657469 59.146255 
L 354.38053 59.975024 
L 355.103592 58.827498 
L 355.826653 56.468693 
L 356.549715 58.349362 
L 357.272776 56.468693 
L 357.995837 57.616219 
L 358.718899 57.074332 
L 359.44196 57.169959 
L 360.165021 56.086184 
L 360.888083 55.926805 
L 361.611144 56.596196 
L 362.334205 56.118059 
L 363.057267 55.831178 
L 363.780328 56.978705 
L 364.503389 55.608048 
L 365.226451 56.468693 
L 365.949512 55.098036 
L 366.672573 55.926805 
L 367.395635 55.480545 
L 368.118696 57.106208 
L 368.841757 55.51242 
L 369.564819 57.074332 
L 370.28788 55.576172 
L 371.010941 55.639923 
L 372.457064 56.78745 
L 373.180126 56.404941 
L 373.903187 55.416793 
L 374.626248 56.054308 
L 375.34931 56.054308 
L 376.072371 56.946829 
L 376.795432 55.703675 
L 377.518494 56.883077 
L 378.241555 56.819326 
L 378.964616 55.51242 
L 379.687678 57.169959 
L 380.410739 55.767426 
L 381.1338 56.532444 
L 381.856862 56.404941 
L 382.579923 56.723699 
L 384.026046 56.851202 
L 384.749107 56.181811 
L 385.472168 55.831178 
L 386.19523 56.659947 
L 386.918291 57.297462 
L 387.641353 55.608048 
L 389.087475 57.074332 
L 389.810537 55.767426 
L 390.533598 55.353042 
L 391.256659 56.691823 
L 391.979721 56.277438 
L 393.425843 56.181811 
L 394.148905 56.309314 
L 395.595027 56.309314 
L 396.318089 57.329338 
L 397.04115 56.181811 
L 397.764211 56.78745 
L 398.487273 55.098036 
L 398.487273 55.098036 
" clip-path="url(#p515eed01dd)" style="fill: none; stroke: #ff7f0e; stroke-width: 1.5; stroke-linecap: square"/>
   </g>
   <g id="line2d_21">
    <path d="M 73.832727 280.504488 
L 74.555789 252.212215 
L 75.27885 233.647145 
L 76.001911 218.061181 
L 76.724973 216.071497 
L 77.448034 203.673108 
L 78.171095 203.035593 
L 78.894157 184.492517 
L 79.617218 180.129046 
L 80.340279 170.511178 
L 81.063341 179.68948 
L 81.786402 164.081203 
L 82.509463 161.629958 
L 83.232525 160.84964 
L 83.955586 155.013192 
L 84.678647 152.507121 
L 85.401709 155.25481 
L 86.12477 146.17596 
L 86.847832 140.185233 
L 87.570893 145.329341 
L 88.293954 137.085636 
L 89.017016 137.140781 
L 89.740077 135.722629 
L 90.463138 136.184509 
L 91.1862 135.393034 
L 91.909261 133.348524 
L 92.632322 132.886963 
L 93.355384 131.54595 
L 94.078445 130.710487 
L 94.801506 130.743638 
L 95.524568 167.675512 
L 96.247629 150.704229 
L 96.97069 150.330645 
L 97.693752 149.418361 
L 98.416813 165.565019 
L 99.139874 153.518219 
L 99.862936 150.682553 
L 100.585997 149.165586 
L 101.309059 147.132233 
L 102.03212 144.472202 
L 102.755181 143.317981 
L 103.478243 137.294741 
L 104.201304 147.209053 
L 105.647427 139.602863 
L 106.370488 140.053586 
L 107.093549 138.756562 
L 107.816611 140.822748 
L 108.539672 135.008294 
L 109.262733 142.032114 
L 109.985795 138.316677 
L 110.708856 132.722165 
L 111.431917 134.24997 
L 112.154979 130.04014 
L 112.87804 131.644765 
L 113.601101 137.448382 
L 114.324163 128.622307 
L 115.047224 137.723151 
L 115.770285 132.458234 
L 116.493347 126.215051 
L 117.216408 134.205981 
L 117.93947 129.930169 
L 118.662531 126.588635 
L 119.385592 130.941268 
L 120.108654 122.27999 
L 120.831715 126.731757 
L 121.554776 122.257996 
L 122.277838 126.039097 
L 123.000899 121.873256 
L 123.72396 117.037068 
L 124.447022 125.016842 
L 125.170083 117.169034 
L 125.893144 118.410913 
L 126.616206 115.640911 
L 127.339267 117.949352 
L 128.062328 117.245854 
L 128.78539 117.213022 
L 129.508451 115.652067 
L 130.231512 116.157616 
L 130.954574 111.365417 
L 131.677635 112.233712 
L 132.400696 111.673018 
L 133.123758 112.827239 
L 133.846819 115.212501 
L 134.569881 112.442498 
L 135.292942 112.420504 
L 136.016003 111.881804 
L 136.739065 111.62903 
L 137.462126 111.914955 
L 138.185187 113.145996 
L 138.908249 147.8794 
L 139.63131 144.911768 
L 140.354371 130.831615 
L 141.077433 135.162254 
L 141.800494 140.855877 
L 142.523555 142.658505 
L 143.246617 133.88718 
L 143.969678 132.755041 
L 144.692739 132.392317 
L 145.415801 137.580369 
L 146.138862 131.633894 
L 146.861923 132.425292 
L 147.584985 136.404264 
L 148.308046 130.062091 
L 149.031108 127.808805 
L 149.754169 129.743333 
L 150.47723 135.129235 
L 151.200292 142.460656 
L 151.923353 124.863047 
L 153.369476 129.886224 
L 154.092537 125.62147 
L 154.815598 136.052532 
L 155.53866 129.534492 
L 156.261721 124.643214 
L 156.984782 131.545961 
L 157.707844 124.676189 
L 158.430905 125.181804 
L 159.153966 129.325651 
L 159.877028 130.007132 
L 160.600089 129.259701 
L 161.32315 130.545723 
L 162.046212 130.534731 
L 162.769273 124.21454 
L 163.492334 125.236762 
L 164.215396 131.677861 
L 164.938457 123.346201 
L 165.661519 133.469498 
L 166.38458 123.785867 
L 167.107641 121.048949 
L 167.830703 126.819558 
L 168.553764 129.644408 
L 169.276825 124.643214 
L 169.999887 132.656117 
L 170.722948 123.027444 
L 171.446009 127.30319 
L 172.169071 122.829594 
L 172.892132 125.830311 
L 173.615193 126.445842 
L 174.338255 121.433657 
L 175.061316 123.434134 
L 175.784377 125.984194 
L 176.507439 120.389451 
L 177.2305 119.740945 
L 177.953561 118.674756 
L 178.676623 124.709164 
L 179.399684 125.984194 
L 180.122745 117.630551 
L 180.845807 122.499845 
L 181.568868 121.224815 
L 182.29193 121.081924 
L 183.014991 125.588495 
L 183.738052 120.796142 
L 184.461114 117.993275 
L 185.184175 122.950502 
L 186.630298 116.630312 
L 187.353359 117.135927 
L 188.07642 120.015736 
L 188.799482 119.70797 
L 189.522543 113.563645 
L 190.245604 119.499129 
L 190.968666 115.509165 
L 191.691727 118.158149 
L 192.414788 111.804984 
L 193.13785 115.794947 
L 193.860911 113.299846 
L 194.583972 117.080969 
L 195.307034 108.95815 
L 196.030095 114.552893 
L 196.753157 112.530432 
L 197.476218 111.695067 
L 198.199279 106.968664 
L 198.922341 111.431268 
L 199.645402 113.519679 
L 201.091525 107.122547 
L 201.814586 110.694828 
L 202.537647 109.881447 
L 203.260709 109.914422 
L 203.98377 109.595665 
L 204.706831 105.484793 
L 205.429893 105.561735 
L 206.152954 107.353371 
L 206.876015 105.539751 
L 207.599077 108.089811 
L 208.322138 105.990408 
L 209.045199 108.936167 
L 209.768261 106.100325 
L 210.491322 104.440588 
L 211.214383 104.176788 
L 211.937445 105.52876 
L 212.660506 105.253969 
L 213.383568 106.660898 
L 214.106629 105.363885 
L 214.82969 106.045366 
L 215.552752 104.18778 
L 216.275813 104.077864 
L 217.721936 106.1333 
L 218.444997 106.199249 
L 219.168058 102.945725 
L 219.89112 105.144052 
L 220.614181 103.242499 
L 221.337242 104.473563 
L 222.060304 105.012153 
L 222.783365 103.055642 
L 223.506426 104.506537 
L 224.229488 104.85827 
L 224.952549 104.407613 
L 225.67561 137.052771 
L 226.398672 140.031504 
L 227.121733 134.128996 
L 227.844794 135.656833 
L 229.290917 133.260657 
L 230.013979 124.928997 
L 230.73704 133.75528 
L 231.460101 134.788494 
L 232.183163 131.53497 
L 232.906224 129.435567 
L 233.629285 126.302951 
L 234.352347 128.633178 
L 235.075408 127.215257 
L 235.798469 125.214779 
L 236.521531 126.280968 
L 237.244592 130.919438 
L 237.967653 125.412629 
L 238.690715 133.546439 
L 240.136837 126.69865 
L 240.859899 127.281207 
L 241.58296 128.995902 
L 242.306021 131.765794 
L 243.029083 126.819558 
L 243.752144 130.018124 
L 245.198267 122.433895 
L 245.921328 124.137599 
L 246.64439 132.700083 
L 247.367451 124.81908 
L 248.090512 120.301518 
L 248.813574 129.72135 
L 249.536635 122.247038 
L 250.259696 125.456595 
L 250.982758 124.786105 
L 251.705819 129.138793 
L 252.42888 122.40092 
L 253.151942 125.005938 
L 253.875003 121.378698 
L 254.598064 122.016213 
L 255.321126 126.962449 
L 256.044187 119.77392 
L 256.767248 122.972486 
L 257.49031 117.707492 
L 258.213371 122.016213 
L 258.936432 127.36914 
L 259.659494 122.719678 
L 260.382555 120.708209 
L 261.105617 128.929952 
L 261.828678 116.267588 
L 262.551739 120.411434 
L 263.274801 120.675234 
L 263.997862 124.511315 
L 264.720923 120.257551 
L 265.443985 119.916811 
L 266.167046 122.983477 
L 266.890107 115.509165 
L 267.613169 119.147396 
L 268.33623 126.02816 
L 269.059291 117.674517 
L 269.782353 123.104385 
L 270.505414 121.653489 
L 271.228475 122.411912 
L 271.951537 125.676428 
L 272.674598 125.588495 
L 273.397659 118.56484 
L 274.120721 117.212868 
L 274.843782 121.224815 
L 275.566843 117.300801 
L 276.289905 127.77583 
L 277.012966 122.708686 
L 277.736028 121.400682 
L 278.459089 123.489092 
L 279.18215 124.071649 
L 279.905212 124.423381 
L 280.628273 115.454207 
L 281.351334 114.212152 
L 282.074396 117.795425 
L 282.797457 117.344768 
L 283.520518 123.80785 
L 284.24358 124.621231 
L 284.966641 122.697695 
L 285.689702 122.269021 
L 286.412764 118.630789 
L 287.135825 122.873561 
L 287.858886 123.796858 
L 288.581948 116.850144 
L 289.305009 119.499129 
L 290.02807 119.279296 
L 290.751132 119.70797 
L 291.474193 115.355282 
L 292.197255 112.882164 
L 292.920316 115.34429 
L 293.643377 114.113227 
L 294.366439 119.411196 
L 295.0895 119.499129 
L 295.812561 118.125174 
L 296.535623 117.234852 
L 297.258684 114.794709 
L 297.981745 117.6965 
L 298.704807 114.13521 
L 299.427868 115.794947 
L 300.150929 118.597814 
L 300.873991 119.279296 
L 301.597052 116.905103 
L 302.320113 116.872128 
L 303.043175 107.88097 
L 303.766236 120.928041 
L 305.212359 112.860181 
L 305.93542 112.288616 
L 306.658481 113.420754 
L 307.381543 115.355282 
L 308.104604 114.981566 
L 308.827666 109.925414 
L 309.550727 110.222188 
L 310.273788 109.210958 
L 310.99685 109.749548 
L 311.719911 116.388496 
L 312.442972 112.189691 
L 313.166034 117.146919 
L 313.889095 111.31036 
L 314.612156 117.190885 
L 315.335218 113.684553 
L 316.058279 116.190646 
L 316.78134 115.970814 
L 317.504402 113.409762 
L 318.227463 107.397338 
L 318.950524 107.891961 
L 319.673586 114.33306 
L 320.396647 107.869978 
L 321.119708 110.903669 
L 321.84277 109.43079 
L 322.565831 104.110839 
L 323.288892 110.442021 
L 324.011954 111.662092 
L 325.458077 103.748115 
L 326.181138 106.67189 
L 326.904199 113.069022 
L 327.627261 106.968664 
L 328.350322 110.10128 
L 329.073383 106.53999 
L 329.796445 105.297935 
L 330.519506 110.200205 
L 331.242567 104.209763 
L 331.965629 108.397577 
L 332.68869 104.836287 
L 333.411751 109.881447 
L 334.134813 101.70367 
L 334.857874 110.936644 
L 335.580935 107.14453 
L 336.303997 111.145485 
L 337.027058 109.068066 
L 337.750119 103.165558 
L 338.473181 107.573204 
L 339.196242 110.16723 
L 339.919304 109.56269 
L 340.642365 105.363885 
L 341.365426 105.792559 
L 342.088488 110.617887 
L 342.811549 104.462571 
L 343.53461 106.265199 
L 344.257672 103.660182 
L 344.980733 107.573204 
L 345.703794 99.098653 
L 346.426856 100.62649 
L 347.149917 108.496501 
L 347.872978 104.352655 
L 348.59604 103.286466 
L 349.319101 108.881209 
L 350.042162 102.407135 
L 350.765224 101.274997 
L 351.488285 106.199249 
L 352.211346 107.034614 
L 352.934408 106.715856 
L 353.657469 102.703909 
L 354.38053 108.133777 
L 355.103592 102.879775 
L 355.826653 102.055403 
L 357.272776 100.010958 
L 357.995837 101.549787 
L 358.718899 102.791842 
L 359.44196 99.472368 
L 360.165021 99.120636 
L 361.611144 102.198294 
L 362.334205 98.131389 
L 363.057267 98.241305 
L 363.780328 101.285988 
L 364.503389 103.297458 
L 365.226451 99.758151 
L 365.949512 98.615021 
L 366.672573 99.747159 
L 367.395635 98.988736 
L 368.118696 99.714184 
L 368.841757 100.15385 
L 369.564819 97.878581 
L 370.28788 99.934017 
L 371.010941 103.660182 
L 371.734003 102.209286 
L 372.457064 102.044411 
L 373.180126 102.550026 
L 373.903187 102.30821 
L 374.626248 98.14238 
L 375.34931 100.2198 
L 376.072371 99.131628 
L 376.795432 100.912273 
L 377.518494 99.120636 
L 378.241555 100.241783 
L 378.964616 98.889812 
L 379.687678 105.166036 
L 380.410739 100.802356 
L 381.1338 102.725892 
L 381.856862 101.472846 
L 382.579923 104.242738 
L 383.302984 100.362691 
L 384.026046 105.177027 
L 384.749107 103.693156 
L 385.472168 101.406896 
L 386.19523 100.571532 
L 386.918291 102.44011 
L 387.641353 101.483838 
L 388.364414 102.407135 
L 389.087475 101.615737 
L 389.810537 101.868545 
L 390.533598 97.933539 
L 391.256659 102.802834 
L 391.979721 100.307733 
L 392.702782 99.274519 
L 393.425843 101.154089 
L 394.148905 100.835331 
L 394.871966 104.275713 
L 395.595027 100.263766 
L 396.318089 100.989214 
L 397.04115 100.417649 
L 397.764211 103.297458 
L 398.487273 97.757673 
L 398.487273 97.757673 
" clip-path="url(#p515eed01dd)" style="fill: none; stroke: #2ca02c; stroke-width: 1.5; stroke-linecap: square"/>
   </g>
   <g id="line2d_22">
    <path d="M 73.832727 292.221693 
L 74.555789 285.942171 
L 75.27885 288.492231 
L 76.001911 292.157941 
L 76.724973 286.77094 
L 77.448034 288.300976 
L 78.171095 287.344704 
L 78.894157 284.571514 
L 79.617218 275.486927 
L 80.340279 277.973235 
L 81.063341 281.320188 
L 81.786402 275.646306 
L 82.509463 274.881288 
L 83.232525 271.725589 
L 83.955586 269.303033 
L 84.678647 268.888648 
L 85.401709 266.848601 
L 86.12477 267.645494 
L 86.847832 265.796701 
L 87.570893 260.505328 
L 88.293954 261.174718 
L 89.017016 259.262174 
L 89.740077 258.01902 
L 90.463138 259.676558 
L 91.1862 257.062747 
L 91.909261 255.0227 
L 92.632322 253.683919 
L 93.355384 254.448936 
L 94.078445 254.19393 
L 94.801506 253.173907 
L 95.524568 273.861264 
L 96.247629 275.582554 
L 96.97069 274.435028 
L 97.693752 273.67001 
L 98.416813 266.976104 
L 99.139874 268.283009 
L 99.862936 264.394168 
L 100.585997 263.884156 
L 101.309059 262.481624 
L 102.03212 263.501648 
L 102.755181 266.306713 
L 103.478243 264.553547 
L 104.201304 260.122819 
L 104.924365 258.050895 
L 105.647427 262.991636 
L 106.370488 258.369653 
L 107.093549 262.162866 
L 107.816611 255.915221 
L 108.539672 255.500836 
L 109.985795 251.388865 
L 110.708856 249.635699 
L 111.431917 254.831445 
L 112.154979 248.615675 
L 112.87804 250.846977 
L 113.601101 246.990012 
L 115.047224 243.324302 
L 115.770285 245.173095 
L 116.493347 239.849846 
L 117.216408 241.188627 
L 117.93947 241.475509 
L 118.662531 236.853526 
L 119.385592 230.988389 
L 120.108654 239.658591 
L 120.831715 234.016585 
L 121.554776 233.251567 
L 122.277838 233.219691 
L 123.000899 228.597708 
L 123.72396 231.020265 
L 124.447022 230.223371 
L 125.170083 226.366406 
L 125.893144 223.210708 
L 126.616206 225.059501 
L 127.339267 225.059501 
L 128.062328 224.453862 
L 128.78539 225.44201 
L 129.508451 220.94753 
L 130.231512 220.596897 
L 130.954574 218.429346 
L 132.400696 221.106909 
L 133.123758 220.023133 
L 133.846819 213.67986 
L 134.569881 217.919334 
L 136.016003 220.405642 
L 136.739065 215.018641 
L 137.462126 220.756275 
L 138.185187 222.350063 
L 138.908249 256.807741 
L 139.63131 246.001864 
L 140.354371 253.620167 
L 141.077433 249.157563 
L 142.523555 251.293238 
L 143.246617 247.914409 
L 143.969678 252.440765 
L 144.692739 245.268722 
L 145.415801 245.045592 
L 146.138862 245.842486 
L 146.861923 244.75871 
L 147.584985 244.376201 
L 148.308046 242.017396 
L 149.031108 240.901745 
L 149.754169 240.806118 
L 150.47723 241.921769 
L 151.200292 240.965497 
L 151.923353 241.666763 
L 152.646414 241.284254 
L 153.369476 235.164111 
L 154.092537 237.522916 
L 154.815598 246.129367 
L 155.53866 241.634887 
L 156.261721 233.984709 
L 156.984782 243.101172 
L 157.707844 242.559284 
L 158.430905 230.223371 
L 159.153966 240.646739 
L 159.877028 232.295295 
L 160.600089 239.180455 
L 161.32315 235.195987 
L 162.046212 232.709679 
L 162.769273 236.949153 
L 163.492334 236.439141 
L 164.215396 230.797135 
L 164.938457 234.399094 
L 165.661519 235.642248 
L 166.38458 235.54662 
L 167.107641 222.190684 
L 167.830703 233.219691 
L 168.553764 235.387242 
L 169.999887 218.779979 
L 170.722948 230.000241 
L 171.446009 227.896442 
L 172.169071 231.307146 
L 172.892132 231.562152 
L 173.615193 227.737063 
L 174.338255 222.158808 
L 175.061316 225.187004 
L 175.784377 221.202536 
L 176.507439 230.191495 
L 177.2305 231.912786 
L 177.953561 222.700696 
L 178.676623 227.768939 
L 179.399684 221.361914 
L 180.845807 217.313695 
L 181.568868 223.911974 
L 182.29193 218.716228 
L 183.014991 219.831879 
L 183.738052 224.071353 
L 185.184175 214.636133 
L 185.907236 226.557661 
L 186.630298 215.592405 
L 187.353359 218.39747 
L 188.07642 217.855583 
L 188.799482 209.950398 
L 189.522543 216.963062 
L 190.245604 217.664328 
L 190.968666 216.038665 
L 191.691727 212.755464 
L 192.414788 216.45305 
L 193.13785 216.739932 
L 193.860911 215.241772 
L 194.583972 214.763636 
L 195.307034 211.034174 
L 196.030095 205.997806 
L 196.753157 204.308392 
L 197.476218 212.372955 
L 198.199279 207.272836 
L 198.922341 206.571569 
L 199.645402 196.148201 
L 200.368463 208.324735 
L 201.091525 210.492286 
L 201.814586 208.484114 
L 202.537647 198.347628 
L 203.260709 209.026002 
L 203.98377 210.396659 
L 204.706831 196.976971 
L 205.429893 205.041534 
L 206.152954 206.890327 
L 206.876015 199.495154 
L 207.599077 202.905859 
L 208.322138 204.053386 
L 209.045199 206.699072 
L 209.768261 200.515178 
L 210.491322 203.734628 
L 211.214383 208.005978 
L 211.937445 203.479622 
L 212.660506 204.499646 
L 213.383568 203.097113 
L 214.106629 200.897687 
L 214.82969 191.334964 
L 216.275813 206.061558 
L 216.998874 190.187437 
L 217.721936 200.610805 
L 218.444997 197.35948 
L 219.168058 200.323924 
L 219.89112 195.574438 
L 220.614181 191.844976 
L 221.337242 204.24464 
L 222.060304 190.442443 
L 222.783365 194.745669 
L 223.506426 200.292048 
L 224.229488 203.192741 
L 224.952549 200.57893 
L 225.67561 248.647551 
L 226.398672 248.520048 
L 227.121733 238.734195 
L 228.567856 248.201291 
L 229.290917 236.82165 
L 230.013979 236.566644 
L 230.73704 234.399094 
L 231.460101 236.343514 
L 232.183163 247.5319 
L 232.906224 236.120384 
L 233.629285 239.021076 
L 234.352347 239.945473 
L 235.075408 239.276082 
L 235.798469 239.977349 
L 236.521531 245.842486 
L 237.244592 237.172283 
L 237.967653 243.196799 
L 238.690715 240.997373 
L 239.413776 230.797135 
L 240.136837 246.766882 
L 240.859899 244.08932 
L 241.58296 233.442821 
L 242.306021 233.761579 
L 243.029083 239.37171 
L 243.752144 239.339834 
L 244.475206 243.292426 
L 245.198267 227.513933 
L 245.921328 232.582176 
L 246.64439 239.499213 
L 247.367451 237.554792 
L 248.090512 229.713359 
L 248.813574 234.367218 
L 249.536635 232.582176 
L 250.259696 237.809798 
L 250.982758 239.339834 
L 251.705819 233.729703 
L 252.42888 235.801626 
L 253.151942 235.227863 
L 253.875003 228.725211 
L 254.598064 231.243395 
L 255.321126 235.419117 
L 256.044187 230.956513 
L 256.767248 236.439141 
L 257.49031 235.514745 
L 258.213371 239.658591 
L 258.936432 240.519236 
L 259.659494 231.817158 
L 260.382555 232.486549 
L 261.105617 237.522916 
L 261.828678 229.362726 
L 262.551739 227.450181 
L 263.274801 229.33085 
L 263.997862 237.746047 
L 264.720923 235.355366 
L 265.443985 234.526597 
L 266.167046 236.184135 
L 266.890107 236.024757 
L 267.613169 240.774242 
L 268.33623 242.846166 
L 269.059291 230.82901 
L 269.782353 230.60588 
L 270.505414 234.494721 
L 271.228475 231.339022 
L 271.951537 223.816347 
L 272.674598 234.430969 
L 273.397659 222.828199 
L 274.120721 240.455485 
L 274.843782 227.641436 
L 275.566843 230.478377 
L 276.289905 237.140408 
L 277.012966 227.737063 
L 277.736028 227.577684 
L 278.459089 229.426478 
L 279.18215 235.610372 
L 279.905212 233.82533 
L 280.628273 231.179644 
L 281.351334 234.016585 
L 282.074396 221.553169 
L 282.797457 223.625092 
L 283.520518 230.223371 
L 284.24358 222.796323 
L 284.966641 227.60956 
L 285.689702 233.82533 
L 286.412764 227.577684 
L 287.135825 232.964685 
L 287.858886 227.38643 
L 288.581948 223.370086 
L 289.305009 227.545809 
L 290.02807 233.761579 
L 290.751132 232.231543 
L 291.474193 224.198856 
L 292.197255 222.987577 
L 292.920316 222.541317 
L 293.643377 216.45305 
L 294.366439 212.914842 
L 295.0895 229.171472 
L 295.812561 228.087696 
L 296.535623 227.38643 
L 297.258684 227.992069 
L 297.981745 222.987577 
L 298.704807 229.808987 
L 299.427868 224.16698 
L 300.150929 229.681484 
L 300.873991 232.040289 
L 301.597052 229.585856 
L 302.320113 231.020265 
L 303.043175 223.370086 
L 303.766236 232.390922 
L 304.489297 223.720719 
L 305.212359 225.027625 
L 305.93542 210.68354 
L 306.658481 231.307146 
L 307.381543 220.437518 
L 308.104604 223.465714 
L 308.827666 221.266287 
L 309.550727 216.867435 
L 310.273788 222.923826 
L 310.99685 219.098737 
L 311.719911 218.046837 
L 312.442972 221.075033 
L 313.166034 219.800003 
L 313.889095 220.086885 
L 314.612156 221.425666 
L 315.335218 218.461222 
L 316.058279 220.246263 
L 316.78134 225.88827 
L 317.504402 213.106097 
L 318.227463 225.601388 
L 318.950524 221.744423 
L 319.673586 214.923014 
L 320.396647 223.210708 
L 321.119708 227.035797 
L 321.84277 222.796323 
L 322.565831 210.906671 
L 323.288892 224.772619 
L 324.011954 217.026813 
L 324.735015 218.39747 
L 325.458077 219.353743 
L 326.181138 228.820838 
L 326.904199 217.186192 
L 327.627261 226.238903 
L 328.350322 212.564209 
L 329.796445 212.022322 
L 330.519506 217.090565 
L 331.242567 217.632452 
L 331.965629 217.249944 
L 332.68869 210.556037 
L 333.411751 224.772619 
L 334.134813 219.640624 
L 334.857874 207.910351 
L 335.580935 211.289179 
L 336.303997 213.90299 
L 337.027058 208.643493 
L 337.750119 214.476754 
L 338.473181 210.842919 
L 339.196242 206.475942 
L 339.919304 212.341079 
L 340.642365 215.050517 
L 341.365426 213.169848 
L 342.088488 207.432214 
L 342.811549 211.703564 
L 343.53461 203.033362 
L 344.257672 205.487794 
L 345.703794 214.285499 
L 346.426856 211.257304 
L 347.149917 218.078713 
L 347.872978 209.18538 
L 348.59604 211.862943 
L 349.319101 212.659836 
L 350.042162 215.751784 
L 350.765224 207.081581 
L 351.488285 208.898499 
L 352.211346 207.719096 
L 352.934408 213.424854 
L 353.657469 205.455918 
L 354.38053 208.802871 
L 355.103592 198.921391 
L 355.826653 201.152693 
L 356.549715 207.400339 
L 357.272776 211.607937 
L 357.995837 207.846599 
L 358.718899 206.412191 
L 359.44196 206.7947 
L 360.165021 197.965119 
L 360.888083 211.95857 
L 361.611144 204.02151 
L 362.334205 207.68722 
L 363.057267 205.838427 
L 363.780328 206.922203 
L 364.503389 210.23728 
L 365.226451 206.125309 
L 365.949512 204.372143 
L 366.672573 203.989634 
L 367.395635 208.547866 
L 368.118696 205.073409 
L 368.841757 207.209084 
L 369.564819 197.104474 
L 370.28788 205.583421 
L 371.010941 205.073409 
L 371.734003 207.623469 
L 372.457064 207.559717 
L 373.180126 206.890327 
L 373.903187 203.957758 
L 374.626248 213.201724 
L 375.34931 211.321055 
L 376.072371 199.335776 
L 376.795432 206.635321 
L 377.518494 207.336587 
L 378.241555 201.120817 
L 378.964616 209.631641 
L 379.687678 204.945906 
L 380.410739 212.372955 
L 381.1338 206.826575 
L 381.856862 203.734628 
L 382.579923 205.424043 
L 384.026046 210.842919 
L 384.749107 210.842919 
L 385.472168 209.312883 
L 386.19523 198.315752 
L 387.641353 207.46409 
L 388.364414 204.627149 
L 389.087475 207.878475 
L 389.810537 206.539694 
L 390.533598 213.520482 
L 391.256659 209.281008 
L 391.979721 206.061558 
L 392.702782 215.688032 
L 393.425843 205.29654 
L 394.148905 205.806552 
L 394.871966 206.826575 
L 395.595027 200.068918 
L 396.318089 206.667197 
L 397.04115 208.643493 
L 397.764211 207.623469 
L 398.487273 199.909539 
L 398.487273 199.909539 
" clip-path="url(#p515eed01dd)" style="fill: none; stroke: #d62728; stroke-width: 1.5; stroke-linecap: square"/>
   </g>
   <g id="line2d_23">
    <path d="M 367.395635 55.193663 
L 368.841757 53.823006 
L 369.564819 56.34119 
L 370.28788 54.84303 
L 371.010941 54.301142 
L 371.734003 55.257414 
L 372.457064 55.384917 
L 374.626248 53.79113 
L 376.072371 54.938657 
L 377.518494 55.28929 
L 378.241555 54.811154 
L 378.964616 54.938657 
L 379.687678 53.982385 
L 380.410739 55.002408 
L 381.1338 54.683651 
L 381.856862 56.213687 
L 382.579923 54.460521 
L 383.302984 55.448669 
L 384.026046 53.568 
L 385.472168 55.703675 
L 386.19523 55.894929 
L 386.918291 56.628071 
L 387.641353 56.118059 
L 388.364414 56.34119 
L 389.087475 56.883077 
L 390.533598 57.488716 
L 391.256659 58.699995 
L 392.702782 57.01058 
L 393.425843 58.540616 
L 394.148905 58.668119 
L 395.595027 57.711847 
L 396.318089 58.763746 
L 397.04115 57.265586 
L 398.487273 58.349362 
L 398.487273 58.349362 
" clip-path="url(#p515eed01dd)" style="fill: none; stroke: #9467bd; stroke-width: 1.5; stroke-linecap: square"/>
   </g>
   <g id="line2d_24">
    <path d="M 367.395635 96.823384 
L 368.118696 96.317769 
L 368.841757 97.285033 
L 369.564819 96.636526 
L 371.010941 97.032225 
L 371.734003 97.691723 
L 372.457064 97.658748 
L 373.180126 98.757912 
L 374.626248 96.427685 
L 375.34931 96.669501 
L 376.072371 96.405702 
L 376.795432 99.61526 
L 377.518494 96.735451 
L 378.241555 98.647996 
L 378.964616 95.44943 
L 379.687678 96.966275 
L 380.410739 96.097936 
L 381.1338 96.042978 
L 381.856862 97.032225 
L 382.579923 94.207375 
L 383.302984 95.493396 
L 384.026046 95.779179 
L 384.749107 96.383719 
L 385.472168 95.669262 
L 386.19523 97.1971 
L 386.918291 98.241305 
L 387.641353 95.735212 
L 388.364414 96.39471 
L 389.087475 96.823384 
L 389.810537 98.043456 
L 391.256659 96.284794 
L 391.979721 96.119919 
L 393.425843 98.087422 
L 394.148905 100.142858 
L 394.871966 97.702715 
L 395.595027 99.428402 
L 396.318089 98.494113 
L 397.04115 97.142142 
L 397.764211 99.054686 
L 398.487273 97.80164 
L 398.487273 97.80164 
" clip-path="url(#p515eed01dd)" style="fill: none; stroke: #8c564b; stroke-width: 1.5; stroke-linecap: square"/>
   </g>
   <g id="line2d_25">
    <path d="M 367.395635 204.340267 
L 368.118696 201.598953 
L 368.841757 207.304712 
L 369.564819 198.315752 
L 370.28788 197.678237 
L 371.010941 198.698261 
L 371.734003 199.463279 
L 372.457064 197.933243 
L 373.180126 197.678237 
L 373.903187 196.403207 
L 375.34931 206.252812 
L 376.072371 189.422419 
L 376.795432 191.972479 
L 377.518494 197.072598 
L 378.241555 190.346816 
L 378.964616 194.713793 
L 379.687678 189.103662 
L 380.410739 195.25568 
L 381.1338 193.566266 
L 381.856862 190.187437 
L 382.579923 188.625526 
L 383.302984 190.410567 
L 384.026046 190.888704 
L 384.749107 188.59365 
L 385.472168 188.657401 
L 386.19523 183.621034 
L 386.918291 187.31862 
L 387.641353 188.37052 
L 388.364414 186.394224 
L 389.087475 194.267532 
L 389.810537 187.286745 
L 390.533598 194.203781 
L 391.256659 185.884212 
L 391.979721 183.302277 
L 392.702782 191.048082 
L 393.425843 182.250377 
L 394.148905 185.437951 
L 394.871966 186.808608 
L 395.595027 182.441631 
L 397.04115 186.202969 
L 397.764211 191.653721 
L 398.487273 187.924259 
L 398.487273 187.924259 
" clip-path="url(#p515eed01dd)" style="fill: none; stroke: #e377c2; stroke-width: 1.5; stroke-linecap: square"/>
   </g>
   <g id="patch_3">
    <path d="M 57.6 307.584 
L 57.6 41.472 
" style="fill: none; stroke: #000000; stroke-width: 0.8; stroke-linejoin: miter; stroke-linecap: square"/>
   </g>
   <g id="patch_4">
    <path d="M 414.72 307.584 
L 414.72 41.472 
" style="fill: none; stroke: #000000; stroke-width: 0.8; stroke-linejoin: miter; stroke-linecap: square"/>
   </g>
   <g id="patch_5">
    <path d="M 57.6 307.584 
L 414.72 307.584 
" style="fill: none; stroke: #000000; stroke-width: 0.8; stroke-linejoin: miter; stroke-linecap: square"/>
   </g>
   <g id="patch_6">
    <path d="M 57.6 41.472 
L 414.72 41.472 
" style="fill: none; stroke: #000000; stroke-width: 0.8; stroke-linejoin: miter; stroke-linecap: square"/>
   </g>
   <g id="text_21">
    <!-- Learning Curves -->
    <g transform="translate(187.37625 35.472) scale(0.12 -0.12)">
     <defs>
      <path id="DejaVuSans-4c" d="M 628 4666 
L 1259 4666 
L 1259 531 
L 3531 531 
L 3531 0 
L 628 0 
L 628 4666 
z
" transform="scale(0.015625)"/>
      <path id="DejaVuSans-65" d="M 3597 1894 
L 3597 1613 
L 953 1613 
Q 991 1019 1311 708 
Q 1631 397 2203 397 
Q 2534 397 2845 478 
Q 3156 559 3463 722 
L 3463 178 
Q 3153 47 2828 -22 
Q 2503 -91 2169 -91 
Q 1331 -91 842 396 
Q 353 884 353 1716 
Q 353 2575 817 3079 
Q 1281 3584 2069 3584 
Q 2775 3584 3186 3129 
Q 3597 2675 3597 1894 
z
M 3022 2063 
Q 3016 2534 2758 2815 
Q 2500 3097 2075 3097 
Q 1594 3097 1305 2825 
Q 1016 2553 972 2059 
L 3022 2063 
z
" transform="scale(0.015625)"/>
      <path id="DejaVuSans-6e" d="M 3513 2113 
L 3513 0 
L 2938 0 
L 2938 2094 
Q 2938 2591 2744 2837 
Q 2550 3084 2163 3084 
Q 1697 3084 1428 2787 
Q 1159 2491 1159 1978 
L 1159 0 
L 581 0 
L 581 3500 
L 1159 3500 
L 1159 2956 
Q 1366 3272 1645 3428 
Q 1925 3584 2291 3584 
Q 2894 3584 3203 3211 
Q 3513 2838 3513 2113 
z
" transform="scale(0.015625)"/>
      <path id="DejaVuSans-69" d="M 603 3500 
L 1178 3500 
L 1178 0 
L 603 0 
L 603 3500 
z
M 603 4863 
L 1178 4863 
L 1178 4134 
L 603 4134 
L 603 4863 
z
" transform="scale(0.015625)"/>
      <path id="DejaVuSans-67" d="M 2906 1791 
Q 2906 2416 2648 2759 
Q 2391 3103 1925 3103 
Q 1463 3103 1205 2759 
Q 947 2416 947 1791 
Q 947 1169 1205 825 
Q 1463 481 1925 481 
Q 2391 481 2648 825 
Q 2906 1169 2906 1791 
z
M 3481 434 
Q 3481 -459 3084 -895 
Q 2688 -1331 1869 -1331 
Q 1566 -1331 1297 -1286 
Q 1028 -1241 775 -1147 
L 775 -588 
Q 1028 -725 1275 -790 
Q 1522 -856 1778 -856 
Q 2344 -856 2625 -561 
Q 2906 -266 2906 331 
L 2906 616 
Q 2728 306 2450 153 
Q 2172 0 1784 0 
Q 1141 0 747 490 
Q 353 981 353 1791 
Q 353 2603 747 3093 
Q 1141 3584 1784 3584 
Q 2172 3584 2450 3431 
Q 2728 3278 2906 2969 
L 2906 3500 
L 3481 3500 
L 3481 434 
z
" transform="scale(0.015625)"/>
      <path id="DejaVuSans-20" transform="scale(0.015625)"/>
      <path id="DejaVuSans-43" d="M 4122 4306 
L 4122 3641 
Q 3803 3938 3442 4084 
Q 3081 4231 2675 4231 
Q 1875 4231 1450 3742 
Q 1025 3253 1025 2328 
Q 1025 1406 1450 917 
Q 1875 428 2675 428 
Q 3081 428 3442 575 
Q 3803 722 4122 1019 
L 4122 359 
Q 3791 134 3420 21 
Q 3050 -91 2638 -91 
Q 1578 -91 968 557 
Q 359 1206 359 2328 
Q 359 3453 968 4101 
Q 1578 4750 2638 4750 
Q 3056 4750 3426 4639 
Q 3797 4528 4122 4306 
z
" transform="scale(0.015625)"/>
      <path id="DejaVuSans-76" d="M 191 3500 
L 800 3500 
L 1894 563 
L 2988 3500 
L 3597 3500 
L 2284 0 
L 1503 0 
L 191 3500 
z
" transform="scale(0.015625)"/>
     </defs>
     <use xlink:href="#DejaVuSans-4c"/>
     <use xlink:href="#DejaVuSans-65" x="53.962891"/>
     <use xlink:href="#DejaVuSans-61" x="115.486328"/>
     <use xlink:href="#DejaVuSans-72" x="176.765625"/>
     <use xlink:href="#DejaVuSans-6e" x="216.128906"/>
     <use xlink:href="#DejaVuSans-69" x="279.507812"/>
     <use xlink:href="#DejaVuSans-6e" x="307.291016"/>
     <use xlink:href="#DejaVuSans-67" x="370.669922"/>
     <use xlink:href="#DejaVuSans-20" x="434.146484"/>
     <use xlink:href="#DejaVuSans-43" x="465.933594"/>
     <use xlink:href="#DejaVuSans-75" x="535.757812"/>
     <use xlink:href="#DejaVuSans-72" x="599.136719"/>
     <use xlink:href="#DejaVuSans-76" x="640.25"/>
     <use xlink:href="#DejaVuSans-65" x="699.429688"/>
     <use xlink:href="#DejaVuSans-73" x="760.953125"/>
    </g>
   </g>
   <g id="legend_1">
    <g id="patch_7">
     <path d="M 192.291875 302.584 
L 407.72 302.584 
Q 409.72 302.584 409.72 300.584 
L 409.72 198.837125 
Q 409.72 196.837125 407.72 196.837125 
L 192.291875 196.837125 
Q 190.291875 196.837125 190.291875 198.837125 
L 190.291875 300.584 
Q 190.291875 302.584 192.291875 302.584 
z
" style="fill: #ffffff; opacity: 0.8; stroke: #cccccc; stroke-linejoin: miter"/>
    </g>
    <g id="line2d_26">
     <path d="M 194.291875 204.935563 
L 204.291875 204.935563 
L 214.291875 204.935563 
" style="fill: none; stroke: #1f77b4; stroke-width: 1.5; stroke-linecap: square"/>
    </g>
    <g id="text_22">
     <!-- Train Accuracy -->
     <g transform="translate(222.291875 208.435563) scale(0.1 -0.1)">
      <defs>
       <path id="DejaVuSans-54" d="M -19 4666 
L 3928 4666 
L 3928 4134 
L 2272 4134 
L 2272 0 
L 1638 0 
L 1638 4134 
L -19 4134 
L -19 4666 
z
" transform="scale(0.015625)"/>
      </defs>
      <use xlink:href="#DejaVuSans-54"/>
      <use xlink:href="#DejaVuSans-72" x="46.333984"/>
      <use xlink:href="#DejaVuSans-61" x="87.447266"/>
      <use xlink:href="#DejaVuSans-69" x="148.726562"/>
      <use xlink:href="#DejaVuSans-6e" x="176.509766"/>
      <use xlink:href="#DejaVuSans-20" x="239.888672"/>
      <use xlink:href="#DejaVuSans-41" x="271.675781"/>
      <use xlink:href="#DejaVuSans-63" x="338.333984"/>
      <use xlink:href="#DejaVuSans-63" x="393.314453"/>
      <use xlink:href="#DejaVuSans-75" x="448.294922"/>
      <use xlink:href="#DejaVuSans-72" x="511.673828"/>
      <use xlink:href="#DejaVuSans-61" x="552.787109"/>
      <use xlink:href="#DejaVuSans-63" x="614.066406"/>
      <use xlink:href="#DejaVuSans-79" x="669.046875"/>
     </g>
    </g>
    <g id="line2d_27">
     <path d="M 194.291875 219.613688 
L 204.291875 219.613688 
L 214.291875 219.613688 
" style="fill: none; stroke: #ff7f0e; stroke-width: 1.5; stroke-linecap: square"/>
    </g>
    <g id="text_23">
     <!-- Validation Accuracy -->
     <g transform="translate(222.291875 223.113688) scale(0.1 -0.1)">
      <defs>
       <path id="DejaVuSans-56" d="M 1831 0 
L 50 4666 
L 709 4666 
L 2188 738 
L 3669 4666 
L 4325 4666 
L 2547 0 
L 1831 0 
z
" transform="scale(0.015625)"/>
       <path id="DejaVuSans-6c" d="M 603 4863 
L 1178 4863 
L 1178 0 
L 603 0 
L 603 4863 
z
" transform="scale(0.015625)"/>
       <path id="DejaVuSans-64" d="M 2906 2969 
L 2906 4863 
L 3481 4863 
L 3481 0 
L 2906 0 
L 2906 525 
Q 2725 213 2448 61 
Q 2172 -91 1784 -91 
Q 1150 -91 751 415 
Q 353 922 353 1747 
Q 353 2572 751 3078 
Q 1150 3584 1784 3584 
Q 2172 3584 2448 3432 
Q 2725 3281 2906 2969 
z
M 947 1747 
Q 947 1113 1208 752 
Q 1469 391 1925 391 
Q 2381 391 2643 752 
Q 2906 1113 2906 1747 
Q 2906 2381 2643 2742 
Q 2381 3103 1925 3103 
Q 1469 3103 1208 2742 
Q 947 2381 947 1747 
z
" transform="scale(0.015625)"/>
       <path id="DejaVuSans-74" d="M 1172 4494 
L 1172 3500 
L 2356 3500 
L 2356 3053 
L 1172 3053 
L 1172 1153 
Q 1172 725 1289 603 
Q 1406 481 1766 481 
L 2356 481 
L 2356 0 
L 1766 0 
Q 1100 0 847 248 
Q 594 497 594 1153 
L 594 3053 
L 172 3053 
L 172 3500 
L 594 3500 
L 594 4494 
L 1172 4494 
z
" transform="scale(0.015625)"/>
      </defs>
      <use xlink:href="#DejaVuSans-56"/>
      <use xlink:href="#DejaVuSans-61" x="60.658203"/>
      <use xlink:href="#DejaVuSans-6c" x="121.9375"/>
      <use xlink:href="#DejaVuSans-69" x="149.720703"/>
      <use xlink:href="#DejaVuSans-64" x="177.503906"/>
      <use xlink:href="#DejaVuSans-61" x="240.980469"/>
      <use xlink:href="#DejaVuSans-74" x="302.259766"/>
      <use xlink:href="#DejaVuSans-69" x="341.46875"/>
      <use xlink:href="#DejaVuSans-6f" x="369.251953"/>
      <use xlink:href="#DejaVuSans-6e" x="430.433594"/>
      <use xlink:href="#DejaVuSans-20" x="493.8125"/>
      <use xlink:href="#DejaVuSans-41" x="525.599609"/>
      <use xlink:href="#DejaVuSans-63" x="592.257812"/>
      <use xlink:href="#DejaVuSans-63" x="647.238281"/>
      <use xlink:href="#DejaVuSans-75" x="702.21875"/>
      <use xlink:href="#DejaVuSans-72" x="765.597656"/>
      <use xlink:href="#DejaVuSans-61" x="806.710938"/>
      <use xlink:href="#DejaVuSans-63" x="867.990234"/>
      <use xlink:href="#DejaVuSans-79" x="922.970703"/>
     </g>
    </g>
    <g id="line2d_28">
     <path d="M 194.291875 234.291812 
L 204.291875 234.291812 
L 214.291875 234.291812 
" style="fill: none; stroke: #2ca02c; stroke-width: 1.5; stroke-linecap: square"/>
    </g>
    <g id="text_24">
     <!-- Robust Validation Accuracy -->
     <g transform="translate(222.291875 237.791812) scale(0.1 -0.1)">
      <defs>
       <path id="DejaVuSans-52" d="M 2841 2188 
Q 3044 2119 3236 1894 
Q 3428 1669 3622 1275 
L 4263 0 
L 3584 0 
L 2988 1197 
Q 2756 1666 2539 1819 
Q 2322 1972 1947 1972 
L 1259 1972 
L 1259 0 
L 628 0 
L 628 4666 
L 2053 4666 
Q 2853 4666 3247 4331 
Q 3641 3997 3641 3322 
Q 3641 2881 3436 2590 
Q 3231 2300 2841 2188 
z
M 1259 4147 
L 1259 2491 
L 2053 2491 
Q 2509 2491 2742 2702 
Q 2975 2913 2975 3322 
Q 2975 3731 2742 3939 
Q 2509 4147 2053 4147 
L 1259 4147 
z
" transform="scale(0.015625)"/>
       <path id="DejaVuSans-62" d="M 3116 1747 
Q 3116 2381 2855 2742 
Q 2594 3103 2138 3103 
Q 1681 3103 1420 2742 
Q 1159 2381 1159 1747 
Q 1159 1113 1420 752 
Q 1681 391 2138 391 
Q 2594 391 2855 752 
Q 3116 1113 3116 1747 
z
M 1159 2969 
Q 1341 3281 1617 3432 
Q 1894 3584 2278 3584 
Q 2916 3584 3314 3078 
Q 3713 2572 3713 1747 
Q 3713 922 3314 415 
Q 2916 -91 2278 -91 
Q 1894 -91 1617 61 
Q 1341 213 1159 525 
L 1159 0 
L 581 0 
L 581 4863 
L 1159 4863 
L 1159 2969 
z
" transform="scale(0.015625)"/>
      </defs>
      <use xlink:href="#DejaVuSans-52"/>
      <use xlink:href="#DejaVuSans-6f" x="64.982422"/>
      <use xlink:href="#DejaVuSans-62" x="126.164062"/>
      <use xlink:href="#DejaVuSans-75" x="189.640625"/>
      <use xlink:href="#DejaVuSans-73" x="253.019531"/>
      <use xlink:href="#DejaVuSans-74" x="305.119141"/>
      <use xlink:href="#DejaVuSans-20" x="344.328125"/>
      <use xlink:href="#DejaVuSans-56" x="376.115234"/>
      <use xlink:href="#DejaVuSans-61" x="436.773438"/>
      <use xlink:href="#DejaVuSans-6c" x="498.052734"/>
      <use xlink:href="#DejaVuSans-69" x="525.835938"/>
      <use xlink:href="#DejaVuSans-64" x="553.619141"/>
      <use xlink:href="#DejaVuSans-61" x="617.095703"/>
      <use xlink:href="#DejaVuSans-74" x="678.375"/>
      <use xlink:href="#DejaVuSans-69" x="717.583984"/>
      <use xlink:href="#DejaVuSans-6f" x="745.367188"/>
      <use xlink:href="#DejaVuSans-6e" x="806.548828"/>
      <use xlink:href="#DejaVuSans-20" x="869.927734"/>
      <use xlink:href="#DejaVuSans-41" x="901.714844"/>
      <use xlink:href="#DejaVuSans-63" x="968.373047"/>
      <use xlink:href="#DejaVuSans-63" x="1023.353516"/>
      <use xlink:href="#DejaVuSans-75" x="1078.333984"/>
      <use xlink:href="#DejaVuSans-72" x="1141.712891"/>
      <use xlink:href="#DejaVuSans-61" x="1182.826172"/>
      <use xlink:href="#DejaVuSans-63" x="1244.105469"/>
      <use xlink:href="#DejaVuSans-79" x="1299.085938"/>
     </g>
    </g>
    <g id="line2d_29">
     <path d="M 194.291875 248.969938 
L 204.291875 248.969938 
L 214.291875 248.969938 
" style="fill: none; stroke: #d62728; stroke-width: 1.5; stroke-linecap: square"/>
    </g>
    <g id="text_25">
     <!-- Adversarial Validation Accuracy -->
     <g transform="translate(222.291875 252.469938) scale(0.1 -0.1)">
      <use xlink:href="#DejaVuSans-41"/>
      <use xlink:href="#DejaVuSans-64" x="66.658203"/>
      <use xlink:href="#DejaVuSans-76" x="130.134766"/>
      <use xlink:href="#DejaVuSans-65" x="189.314453"/>
      <use xlink:href="#DejaVuSans-72" x="250.837891"/>
      <use xlink:href="#DejaVuSans-73" x="291.951172"/>
      <use xlink:href="#DejaVuSans-61" x="344.050781"/>
      <use xlink:href="#DejaVuSans-72" x="405.330078"/>
      <use xlink:href="#DejaVuSans-69" x="446.443359"/>
      <use xlink:href="#DejaVuSans-61" x="474.226562"/>
      <use xlink:href="#DejaVuSans-6c" x="535.505859"/>
      <use xlink:href="#DejaVuSans-20" x="563.289062"/>
      <use xlink:href="#DejaVuSans-56" x="595.076172"/>
      <use xlink:href="#DejaVuSans-61" x="655.734375"/>
      <use xlink:href="#DejaVuSans-6c" x="717.013672"/>
      <use xlink:href="#DejaVuSans-69" x="744.796875"/>
      <use xlink:href="#DejaVuSans-64" x="772.580078"/>
      <use xlink:href="#DejaVuSans-61" x="836.056641"/>
      <use xlink:href="#DejaVuSans-74" x="897.335938"/>
      <use xlink:href="#DejaVuSans-69" x="936.544922"/>
      <use xlink:href="#DejaVuSans-6f" x="964.328125"/>
      <use xlink:href="#DejaVuSans-6e" x="1025.509766"/>
      <use xlink:href="#DejaVuSans-20" x="1088.888672"/>
      <use xlink:href="#DejaVuSans-41" x="1120.675781"/>
      <use xlink:href="#DejaVuSans-63" x="1187.333984"/>
      <use xlink:href="#DejaVuSans-63" x="1242.314453"/>
      <use xlink:href="#DejaVuSans-75" x="1297.294922"/>
      <use xlink:href="#DejaVuSans-72" x="1360.673828"/>
      <use xlink:href="#DejaVuSans-61" x="1401.787109"/>
      <use xlink:href="#DejaVuSans-63" x="1463.066406"/>
      <use xlink:href="#DejaVuSans-79" x="1518.046875"/>
     </g>
    </g>
    <g id="line2d_30">
     <path d="M 194.291875 263.648063 
L 204.291875 263.648063 
L 214.291875 263.648063 
" style="fill: none; stroke: #9467bd; stroke-width: 1.5; stroke-linecap: square"/>
    </g>
    <g id="text_26">
     <!-- SWA Validation Accuracy -->
     <g transform="translate(222.291875 267.148063) scale(0.1 -0.1)">
      <defs>
       <path id="DejaVuSans-53" d="M 3425 4513 
L 3425 3897 
Q 3066 4069 2747 4153 
Q 2428 4238 2131 4238 
Q 1616 4238 1336 4038 
Q 1056 3838 1056 3469 
Q 1056 3159 1242 3001 
Q 1428 2844 1947 2747 
L 2328 2669 
Q 3034 2534 3370 2195 
Q 3706 1856 3706 1288 
Q 3706 609 3251 259 
Q 2797 -91 1919 -91 
Q 1588 -91 1214 -16 
Q 841 59 441 206 
L 441 856 
Q 825 641 1194 531 
Q 1563 422 1919 422 
Q 2459 422 2753 634 
Q 3047 847 3047 1241 
Q 3047 1584 2836 1778 
Q 2625 1972 2144 2069 
L 1759 2144 
Q 1053 2284 737 2584 
Q 422 2884 422 3419 
Q 422 4038 858 4394 
Q 1294 4750 2059 4750 
Q 2388 4750 2728 4690 
Q 3069 4631 3425 4513 
z
" transform="scale(0.015625)"/>
       <path id="DejaVuSans-57" d="M 213 4666 
L 850 4666 
L 1831 722 
L 2809 4666 
L 3519 4666 
L 4500 722 
L 5478 4666 
L 6119 4666 
L 4947 0 
L 4153 0 
L 3169 4050 
L 2175 0 
L 1381 0 
L 213 4666 
z
" transform="scale(0.015625)"/>
      </defs>
      <use xlink:href="#DejaVuSans-53"/>
      <use xlink:href="#DejaVuSans-57" x="63.476562"/>
      <use xlink:href="#DejaVuSans-41" x="156.853516"/>
      <use xlink:href="#DejaVuSans-20" x="225.261719"/>
      <use xlink:href="#DejaVuSans-56" x="257.048828"/>
      <use xlink:href="#DejaVuSans-61" x="317.707031"/>
      <use xlink:href="#DejaVuSans-6c" x="378.986328"/>
      <use xlink:href="#DejaVuSans-69" x="406.769531"/>
      <use xlink:href="#DejaVuSans-64" x="434.552734"/>
      <use xlink:href="#DejaVuSans-61" x="498.029297"/>
      <use xlink:href="#DejaVuSans-74" x="559.308594"/>
      <use xlink:href="#DejaVuSans-69" x="598.517578"/>
      <use xlink:href="#DejaVuSans-6f" x="626.300781"/>
      <use xlink:href="#DejaVuSans-6e" x="687.482422"/>
      <use xlink:href="#DejaVuSans-20" x="750.861328"/>
      <use xlink:href="#DejaVuSans-41" x="782.648438"/>
      <use xlink:href="#DejaVuSans-63" x="849.306641"/>
      <use xlink:href="#DejaVuSans-63" x="904.287109"/>
      <use xlink:href="#DejaVuSans-75" x="959.267578"/>
      <use xlink:href="#DejaVuSans-72" x="1022.646484"/>
      <use xlink:href="#DejaVuSans-61" x="1063.759766"/>
      <use xlink:href="#DejaVuSans-63" x="1125.039062"/>
      <use xlink:href="#DejaVuSans-79" x="1180.019531"/>
     </g>
    </g>
    <g id="line2d_31">
     <path d="M 194.291875 278.326188 
L 204.291875 278.326188 
L 214.291875 278.326188 
" style="fill: none; stroke: #8c564b; stroke-width: 1.5; stroke-linecap: square"/>
    </g>
    <g id="text_27">
     <!-- SWA Robust Validation Accuracy -->
     <g transform="translate(222.291875 281.826188) scale(0.1 -0.1)">
      <use xlink:href="#DejaVuSans-53"/>
      <use xlink:href="#DejaVuSans-57" x="63.476562"/>
      <use xlink:href="#DejaVuSans-41" x="156.853516"/>
      <use xlink:href="#DejaVuSans-20" x="225.261719"/>
      <use xlink:href="#DejaVuSans-52" x="257.048828"/>
      <use xlink:href="#DejaVuSans-6f" x="322.03125"/>
      <use xlink:href="#DejaVuSans-62" x="383.212891"/>
      <use xlink:href="#DejaVuSans-75" x="446.689453"/>
      <use xlink:href="#DejaVuSans-73" x="510.068359"/>
      <use xlink:href="#DejaVuSans-74" x="562.167969"/>
      <use xlink:href="#DejaVuSans-20" x="601.376953"/>
      <use xlink:href="#DejaVuSans-56" x="633.164062"/>
      <use xlink:href="#DejaVuSans-61" x="693.822266"/>
      <use xlink:href="#DejaVuSans-6c" x="755.101562"/>
      <use xlink:href="#DejaVuSans-69" x="782.884766"/>
      <use xlink:href="#DejaVuSans-64" x="810.667969"/>
      <use xlink:href="#DejaVuSans-61" x="874.144531"/>
      <use xlink:href="#DejaVuSans-74" x="935.423828"/>
      <use xlink:href="#DejaVuSans-69" x="974.632812"/>
      <use xlink:href="#DejaVuSans-6f" x="1002.416016"/>
      <use xlink:href="#DejaVuSans-6e" x="1063.597656"/>
      <use xlink:href="#DejaVuSans-20" x="1126.976562"/>
      <use xlink:href="#DejaVuSans-41" x="1158.763672"/>
      <use xlink:href="#DejaVuSans-63" x="1225.421875"/>
      <use xlink:href="#DejaVuSans-63" x="1280.402344"/>
      <use xlink:href="#DejaVuSans-75" x="1335.382812"/>
      <use xlink:href="#DejaVuSans-72" x="1398.761719"/>
      <use xlink:href="#DejaVuSans-61" x="1439.875"/>
      <use xlink:href="#DejaVuSans-63" x="1501.154297"/>
      <use xlink:href="#DejaVuSans-79" x="1556.134766"/>
     </g>
    </g>
    <g id="line2d_32">
     <path d="M 194.291875 293.004312 
L 204.291875 293.004312 
L 214.291875 293.004312 
" style="fill: none; stroke: #e377c2; stroke-width: 1.5; stroke-linecap: square"/>
    </g>
    <g id="text_28">
     <!-- SWA Adversarial Validation Accuracy -->
     <g transform="translate(222.291875 296.504312) scale(0.1 -0.1)">
      <use xlink:href="#DejaVuSans-53"/>
      <use xlink:href="#DejaVuSans-57" x="63.476562"/>
      <use xlink:href="#DejaVuSans-41" x="156.853516"/>
      <use xlink:href="#DejaVuSans-20" x="225.261719"/>
      <use xlink:href="#DejaVuSans-41" x="257.048828"/>
      <use xlink:href="#DejaVuSans-64" x="323.707031"/>
      <use xlink:href="#DejaVuSans-76" x="387.183594"/>
      <use xlink:href="#DejaVuSans-65" x="446.363281"/>
      <use xlink:href="#DejaVuSans-72" x="507.886719"/>
      <use xlink:href="#DejaVuSans-73" x="549"/>
      <use xlink:href="#DejaVuSans-61" x="601.099609"/>
      <use xlink:href="#DejaVuSans-72" x="662.378906"/>
      <use xlink:href="#DejaVuSans-69" x="703.492188"/>
      <use xlink:href="#DejaVuSans-61" x="731.275391"/>
      <use xlink:href="#DejaVuSans-6c" x="792.554688"/>
      <use xlink:href="#DejaVuSans-20" x="820.337891"/>
      <use xlink:href="#DejaVuSans-56" x="852.125"/>
      <use xlink:href="#DejaVuSans-61" x="912.783203"/>
      <use xlink:href="#DejaVuSans-6c" x="974.0625"/>
      <use xlink:href="#DejaVuSans-69" x="1001.845703"/>
      <use xlink:href="#DejaVuSans-64" x="1029.628906"/>
      <use xlink:href="#DejaVuSans-61" x="1093.105469"/>
      <use xlink:href="#DejaVuSans-74" x="1154.384766"/>
      <use xlink:href="#DejaVuSans-69" x="1193.59375"/>
      <use xlink:href="#DejaVuSans-6f" x="1221.376953"/>
      <use xlink:href="#DejaVuSans-6e" x="1282.558594"/>
      <use xlink:href="#DejaVuSans-20" x="1345.9375"/>
      <use xlink:href="#DejaVuSans-41" x="1377.724609"/>
      <use xlink:href="#DejaVuSans-63" x="1444.382812"/>
      <use xlink:href="#DejaVuSans-63" x="1499.363281"/>
      <use xlink:href="#DejaVuSans-75" x="1554.34375"/>
      <use xlink:href="#DejaVuSans-72" x="1617.722656"/>
      <use xlink:href="#DejaVuSans-61" x="1658.835938"/>
      <use xlink:href="#DejaVuSans-63" x="1720.115234"/>
      <use xlink:href="#DejaVuSans-79" x="1775.095703"/>
     </g>
    </g>
   </g>
  </g>
 </g>
 <defs>
  <clipPath id="p515eed01dd">
   <rect x="57.6" y="41.472" width="357.12" height="266.112"/>
  </clipPath>
 </defs>
</svg>
