<?xml version="1.0" encoding="utf-8" standalone="no"?>
<!DOCTYPE svg PUBLIC "-//W3C//DTD SVG 1.1//EN"
  "http://www.w3.org/Graphics/SVG/1.1/DTD/svg11.dtd">
<svg xmlns:xlink="http://www.w3.org/1999/xlink" width="460.8pt" height="345.6pt" viewBox="0 0 460.8 345.6" xmlns="http://www.w3.org/2000/svg" version="1.1">
 <metadata>
  <rdf:RDF xmlns:dc="http://purl.org/dc/elements/1.1/" xmlns:cc="http://creativecommons.org/ns#" xmlns:rdf="http://www.w3.org/1999/02/22-rdf-syntax-ns#">
   <cc:Work>
    <dc:type rdf:resource="http://purl.org/dc/dcmitype/StillImage"/>
    <dc:date>2024-09-04T14:50:17.676706</dc:date>
    <dc:format>image/svg+xml</dc:format>
    <dc:creator>
     <cc:Agent>
      <dc:title>Matplotlib v3.9.1, https://matplotlib.org/</dc:title>
     </cc:Agent>
    </dc:creator>
   </cc:Work>
  </rdf:RDF>
 </metadata>
 <defs>
  <style type="text/css">*{stroke-linejoin: round; stroke-linecap: butt}</style>
 </defs>
 <g id="figure_1">
  <g id="patch_1">
   <path d="M 0 345.6 
L 460.8 345.6 
L 460.8 0 
L 0 0 
z
" style="fill: #ffffff"/>
  </g>
  <g id="axes_1">
   <g id="patch_2">
    <path d="M 57.6 307.584 
L 414.72 307.584 
L 414.72 41.472 
L 57.6 41.472 
z
" style="fill: #ffffff"/>
   </g>
   <g id="matplotlib.axis_1">
    <g id="xtick_1">
     <g id="line2d_1">
      <defs>
       <path id="me237f0fdf2" d="M 0 0 
L 0 3.5 
" style="stroke: #000000; stroke-width: 0.8"/>
      </defs>
      <g>
       <use xlink:href="#me237f0fdf2" x="73.832727" y="307.584" style="stroke: #000000; stroke-width: 0.8"/>
      </g>
     </g>
     <g id="text_1">
      <!-- 1 -->
      <g transform="translate(70.651477 322.182437) scale(0.1 -0.1)">
       <defs>
        <path id="DejaVuSans-31" d="M 794 531 
L 1825 531 
L 1825 4091 
L 703 3866 
L 703 4441 
L 1819 4666 
L 2450 4666 
L 2450 531 
L 3481 531 
L 3481 0 
L 794 0 
L 794 531 
z
" transform="scale(0.015625)"/>
       </defs>
       <use xlink:href="#DejaVuSans-31"/>
      </g>
     </g>
    </g>
    <g id="xtick_2">
     <g id="line2d_2">
      <g>
       <use xlink:href="#me237f0fdf2" x="109.262733" y="307.584" style="stroke: #000000; stroke-width: 0.8"/>
      </g>
     </g>
     <g id="text_2">
      <!-- 50 -->
      <g transform="translate(102.900233 322.182437) scale(0.1 -0.1)">
       <defs>
        <path id="DejaVuSans-35" d="M 691 4666 
L 3169 4666 
L 3169 4134 
L 1269 4134 
L 1269 2991 
Q 1406 3038 1543 3061 
Q 1681 3084 1819 3084 
Q 2600 3084 3056 2656 
Q 3513 2228 3513 1497 
Q 3513 744 3044 326 
Q 2575 -91 1722 -91 
Q 1428 -91 1123 -41 
Q 819 9 494 109 
L 494 744 
Q 775 591 1075 516 
Q 1375 441 1709 441 
Q 2250 441 2565 725 
Q 2881 1009 2881 1497 
Q 2881 1984 2565 2268 
Q 2250 2553 1709 2553 
Q 1456 2553 1204 2497 
Q 953 2441 691 2322 
L 691 4666 
z
" transform="scale(0.015625)"/>
        <path id="DejaVuSans-30" d="M 2034 4250 
Q 1547 4250 1301 3770 
Q 1056 3291 1056 2328 
Q 1056 1369 1301 889 
Q 1547 409 2034 409 
Q 2525 409 2770 889 
Q 3016 1369 3016 2328 
Q 3016 3291 2770 3770 
Q 2525 4250 2034 4250 
z
M 2034 4750 
Q 2819 4750 3233 4129 
Q 3647 3509 3647 2328 
Q 3647 1150 3233 529 
Q 2819 -91 2034 -91 
Q 1250 -91 836 529 
Q 422 1150 422 2328 
Q 422 3509 836 4129 
Q 1250 4750 2034 4750 
z
" transform="scale(0.015625)"/>
       </defs>
       <use xlink:href="#DejaVuSans-35"/>
       <use xlink:href="#DejaVuSans-30" x="63.623047"/>
      </g>
     </g>
    </g>
    <g id="xtick_3">
     <g id="line2d_3">
      <g>
       <use xlink:href="#me237f0fdf2" x="145.415801" y="307.584" style="stroke: #000000; stroke-width: 0.8"/>
      </g>
     </g>
     <g id="text_3">
      <!-- 100 -->
      <g transform="translate(135.872051 322.182437) scale(0.1 -0.1)">
       <use xlink:href="#DejaVuSans-31"/>
       <use xlink:href="#DejaVuSans-30" x="63.623047"/>
       <use xlink:href="#DejaVuSans-30" x="127.246094"/>
      </g>
     </g>
    </g>
    <g id="xtick_4">
     <g id="line2d_4">
      <g>
       <use xlink:href="#me237f0fdf2" x="181.568868" y="307.584" style="stroke: #000000; stroke-width: 0.8"/>
      </g>
     </g>
     <g id="text_4">
      <!-- 150 -->
      <g transform="translate(172.025118 322.182437) scale(0.1 -0.1)">
       <use xlink:href="#DejaVuSans-31"/>
       <use xlink:href="#DejaVuSans-35" x="63.623047"/>
       <use xlink:href="#DejaVuSans-30" x="127.246094"/>
      </g>
     </g>
    </g>
    <g id="xtick_5">
     <g id="line2d_5">
      <g>
       <use xlink:href="#me237f0fdf2" x="217.721936" y="307.584" style="stroke: #000000; stroke-width: 0.8"/>
      </g>
     </g>
     <g id="text_5">
      <!-- 200 -->
      <g transform="translate(208.178186 322.182437) scale(0.1 -0.1)">
       <defs>
        <path id="DejaVuSans-32" d="M 1228 531 
L 3431 531 
L 3431 0 
L 469 0 
L 469 531 
Q 828 903 1448 1529 
Q 2069 2156 2228 2338 
Q 2531 2678 2651 2914 
Q 2772 3150 2772 3378 
Q 2772 3750 2511 3984 
Q 2250 4219 1831 4219 
Q 1534 4219 1204 4116 
Q 875 4013 500 3803 
L 500 4441 
Q 881 4594 1212 4672 
Q 1544 4750 1819 4750 
Q 2544 4750 2975 4387 
Q 3406 4025 3406 3419 
Q 3406 3131 3298 2873 
Q 3191 2616 2906 2266 
Q 2828 2175 2409 1742 
Q 1991 1309 1228 531 
z
" transform="scale(0.015625)"/>
       </defs>
       <use xlink:href="#DejaVuSans-32"/>
       <use xlink:href="#DejaVuSans-30" x="63.623047"/>
       <use xlink:href="#DejaVuSans-30" x="127.246094"/>
      </g>
     </g>
    </g>
    <g id="xtick_6">
     <g id="line2d_6">
      <g>
       <use xlink:href="#me237f0fdf2" x="253.875003" y="307.584" style="stroke: #000000; stroke-width: 0.8"/>
      </g>
     </g>
     <g id="text_6">
      <!-- 250 -->
      <g transform="translate(244.331253 322.182437) scale(0.1 -0.1)">
       <use xlink:href="#DejaVuSans-32"/>
       <use xlink:href="#DejaVuSans-35" x="63.623047"/>
       <use xlink:href="#DejaVuSans-30" x="127.246094"/>
      </g>
     </g>
    </g>
    <g id="xtick_7">
     <g id="line2d_7">
      <g>
       <use xlink:href="#me237f0fdf2" x="290.02807" y="307.584" style="stroke: #000000; stroke-width: 0.8"/>
      </g>
     </g>
     <g id="text_7">
      <!-- 300 -->
      <g transform="translate(280.48432 322.182437) scale(0.1 -0.1)">
       <defs>
        <path id="DejaVuSans-33" d="M 2597 2516 
Q 3050 2419 3304 2112 
Q 3559 1806 3559 1356 
Q 3559 666 3084 287 
Q 2609 -91 1734 -91 
Q 1441 -91 1130 -33 
Q 819 25 488 141 
L 488 750 
Q 750 597 1062 519 
Q 1375 441 1716 441 
Q 2309 441 2620 675 
Q 2931 909 2931 1356 
Q 2931 1769 2642 2001 
Q 2353 2234 1838 2234 
L 1294 2234 
L 1294 2753 
L 1863 2753 
Q 2328 2753 2575 2939 
Q 2822 3125 2822 3475 
Q 2822 3834 2567 4026 
Q 2313 4219 1838 4219 
Q 1578 4219 1281 4162 
Q 984 4106 628 3988 
L 628 4550 
Q 988 4650 1302 4700 
Q 1616 4750 1894 4750 
Q 2613 4750 3031 4423 
Q 3450 4097 3450 3541 
Q 3450 3153 3228 2886 
Q 3006 2619 2597 2516 
z
" transform="scale(0.015625)"/>
       </defs>
       <use xlink:href="#DejaVuSans-33"/>
       <use xlink:href="#DejaVuSans-30" x="63.623047"/>
       <use xlink:href="#DejaVuSans-30" x="127.246094"/>
      </g>
     </g>
    </g>
    <g id="xtick_8">
     <g id="line2d_8">
      <g>
       <use xlink:href="#me237f0fdf2" x="326.181138" y="307.584" style="stroke: #000000; stroke-width: 0.8"/>
      </g>
     </g>
     <g id="text_8">
      <!-- 350 -->
      <g transform="translate(316.637388 322.182437) scale(0.1 -0.1)">
       <use xlink:href="#DejaVuSans-33"/>
       <use xlink:href="#DejaVuSans-35" x="63.623047"/>
       <use xlink:href="#DejaVuSans-30" x="127.246094"/>
      </g>
     </g>
    </g>
    <g id="xtick_9">
     <g id="line2d_9">
      <g>
       <use xlink:href="#me237f0fdf2" x="362.334205" y="307.584" style="stroke: #000000; stroke-width: 0.8"/>
      </g>
     </g>
     <g id="text_9">
      <!-- 400 -->
      <g transform="translate(352.790455 322.182437) scale(0.1 -0.1)">
       <defs>
        <path id="DejaVuSans-34" d="M 2419 4116 
L 825 1625 
L 2419 1625 
L 2419 4116 
z
M 2253 4666 
L 3047 4666 
L 3047 1625 
L 3713 1625 
L 3713 1100 
L 3047 1100 
L 3047 0 
L 2419 0 
L 2419 1100 
L 313 1100 
L 313 1709 
L 2253 4666 
z
" transform="scale(0.015625)"/>
       </defs>
       <use xlink:href="#DejaVuSans-34"/>
       <use xlink:href="#DejaVuSans-30" x="63.623047"/>
       <use xlink:href="#DejaVuSans-30" x="127.246094"/>
      </g>
     </g>
    </g>
    <g id="xtick_10">
     <g id="line2d_10">
      <g>
       <use xlink:href="#me237f0fdf2" x="398.487273" y="307.584" style="stroke: #000000; stroke-width: 0.8"/>
      </g>
     </g>
     <g id="text_10">
      <!-- 450 -->
      <g transform="translate(388.943523 322.182437) scale(0.1 -0.1)">
       <use xlink:href="#DejaVuSans-34"/>
       <use xlink:href="#DejaVuSans-35" x="63.623047"/>
       <use xlink:href="#DejaVuSans-30" x="127.246094"/>
      </g>
     </g>
    </g>
    <g id="text_11">
     <!-- Epochs -->
     <g transform="translate(218.244375 335.860562) scale(0.1 -0.1)">
      <defs>
       <path id="DejaVuSans-45" d="M 628 4666 
L 3578 4666 
L 3578 4134 
L 1259 4134 
L 1259 2753 
L 3481 2753 
L 3481 2222 
L 1259 2222 
L 1259 531 
L 3634 531 
L 3634 0 
L 628 0 
L 628 4666 
z
" transform="scale(0.015625)"/>
       <path id="DejaVuSans-70" d="M 1159 525 
L 1159 -1331 
L 581 -1331 
L 581 3500 
L 1159 3500 
L 1159 2969 
Q 1341 3281 1617 3432 
Q 1894 3584 2278 3584 
Q 2916 3584 3314 3078 
Q 3713 2572 3713 1747 
Q 3713 922 3314 415 
Q 2916 -91 2278 -91 
Q 1894 -91 1617 61 
Q 1341 213 1159 525 
z
M 3116 1747 
Q 3116 2381 2855 2742 
Q 2594 3103 2138 3103 
Q 1681 3103 1420 2742 
Q 1159 2381 1159 1747 
Q 1159 1113 1420 752 
Q 1681 391 2138 391 
Q 2594 391 2855 752 
Q 3116 1113 3116 1747 
z
" transform="scale(0.015625)"/>
       <path id="DejaVuSans-6f" d="M 1959 3097 
Q 1497 3097 1228 2736 
Q 959 2375 959 1747 
Q 959 1119 1226 758 
Q 1494 397 1959 397 
Q 2419 397 2687 759 
Q 2956 1122 2956 1747 
Q 2956 2369 2687 2733 
Q 2419 3097 1959 3097 
z
M 1959 3584 
Q 2709 3584 3137 3096 
Q 3566 2609 3566 1747 
Q 3566 888 3137 398 
Q 2709 -91 1959 -91 
Q 1206 -91 779 398 
Q 353 888 353 1747 
Q 353 2609 779 3096 
Q 1206 3584 1959 3584 
z
" transform="scale(0.015625)"/>
       <path id="DejaVuSans-63" d="M 3122 3366 
L 3122 2828 
Q 2878 2963 2633 3030 
Q 2388 3097 2138 3097 
Q 1578 3097 1268 2742 
Q 959 2388 959 1747 
Q 959 1106 1268 751 
Q 1578 397 2138 397 
Q 2388 397 2633 464 
Q 2878 531 3122 666 
L 3122 134 
Q 2881 22 2623 -34 
Q 2366 -91 2075 -91 
Q 1284 -91 818 406 
Q 353 903 353 1747 
Q 353 2603 823 3093 
Q 1294 3584 2113 3584 
Q 2378 3584 2631 3529 
Q 2884 3475 3122 3366 
z
" transform="scale(0.015625)"/>
       <path id="DejaVuSans-68" d="M 3513 2113 
L 3513 0 
L 2938 0 
L 2938 2094 
Q 2938 2591 2744 2837 
Q 2550 3084 2163 3084 
Q 1697 3084 1428 2787 
Q 1159 2491 1159 1978 
L 1159 0 
L 581 0 
L 581 4863 
L 1159 4863 
L 1159 2956 
Q 1366 3272 1645 3428 
Q 1925 3584 2291 3584 
Q 2894 3584 3203 3211 
Q 3513 2838 3513 2113 
z
" transform="scale(0.015625)"/>
       <path id="DejaVuSans-73" d="M 2834 3397 
L 2834 2853 
Q 2591 2978 2328 3040 
Q 2066 3103 1784 3103 
Q 1356 3103 1142 2972 
Q 928 2841 928 2578 
Q 928 2378 1081 2264 
Q 1234 2150 1697 2047 
L 1894 2003 
Q 2506 1872 2764 1633 
Q 3022 1394 3022 966 
Q 3022 478 2636 193 
Q 2250 -91 1575 -91 
Q 1294 -91 989 -36 
Q 684 19 347 128 
L 347 722 
Q 666 556 975 473 
Q 1284 391 1588 391 
Q 1994 391 2212 530 
Q 2431 669 2431 922 
Q 2431 1156 2273 1281 
Q 2116 1406 1581 1522 
L 1381 1569 
Q 847 1681 609 1914 
Q 372 2147 372 2553 
Q 372 3047 722 3315 
Q 1072 3584 1716 3584 
Q 2034 3584 2315 3537 
Q 2597 3491 2834 3397 
z
" transform="scale(0.015625)"/>
      </defs>
      <use xlink:href="#DejaVuSans-45"/>
      <use xlink:href="#DejaVuSans-70" x="63.183594"/>
      <use xlink:href="#DejaVuSans-6f" x="126.660156"/>
      <use xlink:href="#DejaVuSans-63" x="187.841797"/>
      <use xlink:href="#DejaVuSans-68" x="242.822266"/>
      <use xlink:href="#DejaVuSans-73" x="306.201172"/>
     </g>
    </g>
   </g>
   <g id="matplotlib.axis_2">
    <g id="ytick_1">
     <g id="line2d_11">
      <defs>
       <path id="mf188fae971" d="M 0 0 
L -3.5 0 
" style="stroke: #000000; stroke-width: 0.8"/>
      </defs>
      <g>
       <use xlink:href="#mf188fae971" x="57.6" y="262.464187" style="stroke: #000000; stroke-width: 0.8"/>
      </g>
     </g>
     <g id="text_12">
      <!-- 20 -->
      <g transform="translate(37.875 266.263405) scale(0.1 -0.1)">
       <use xlink:href="#DejaVuSans-32"/>
       <use xlink:href="#DejaVuSans-30" x="63.623047"/>
      </g>
     </g>
    </g>
    <g id="ytick_2">
     <g id="line2d_12">
      <g>
       <use xlink:href="#mf188fae971" x="57.6" y="203.702953" style="stroke: #000000; stroke-width: 0.8"/>
      </g>
     </g>
     <g id="text_13">
      <!-- 40 -->
      <g transform="translate(37.875 207.502171) scale(0.1 -0.1)">
       <use xlink:href="#DejaVuSans-34"/>
       <use xlink:href="#DejaVuSans-30" x="63.623047"/>
      </g>
     </g>
    </g>
    <g id="ytick_3">
     <g id="line2d_13">
      <g>
       <use xlink:href="#mf188fae971" x="57.6" y="144.941719" style="stroke: #000000; stroke-width: 0.8"/>
      </g>
     </g>
     <g id="text_14">
      <!-- 60 -->
      <g transform="translate(37.875 148.740937) scale(0.1 -0.1)">
       <defs>
        <path id="DejaVuSans-36" d="M 2113 2584 
Q 1688 2584 1439 2293 
Q 1191 2003 1191 1497 
Q 1191 994 1439 701 
Q 1688 409 2113 409 
Q 2538 409 2786 701 
Q 3034 994 3034 1497 
Q 3034 2003 2786 2293 
Q 2538 2584 2113 2584 
z
M 3366 4563 
L 3366 3988 
Q 3128 4100 2886 4159 
Q 2644 4219 2406 4219 
Q 1781 4219 1451 3797 
Q 1122 3375 1075 2522 
Q 1259 2794 1537 2939 
Q 1816 3084 2150 3084 
Q 2853 3084 3261 2657 
Q 3669 2231 3669 1497 
Q 3669 778 3244 343 
Q 2819 -91 2113 -91 
Q 1303 -91 875 529 
Q 447 1150 447 2328 
Q 447 3434 972 4092 
Q 1497 4750 2381 4750 
Q 2619 4750 2861 4703 
Q 3103 4656 3366 4563 
z
" transform="scale(0.015625)"/>
       </defs>
       <use xlink:href="#DejaVuSans-36"/>
       <use xlink:href="#DejaVuSans-30" x="63.623047"/>
      </g>
     </g>
    </g>
    <g id="ytick_4">
     <g id="line2d_14">
      <g>
       <use xlink:href="#mf188fae971" x="57.6" y="86.180485" style="stroke: #000000; stroke-width: 0.8"/>
      </g>
     </g>
     <g id="text_15">
      <!-- 80 -->
      <g transform="translate(37.875 89.979704) scale(0.1 -0.1)">
       <defs>
        <path id="DejaVuSans-38" d="M 2034 2216 
Q 1584 2216 1326 1975 
Q 1069 1734 1069 1313 
Q 1069 891 1326 650 
Q 1584 409 2034 409 
Q 2484 409 2743 651 
Q 3003 894 3003 1313 
Q 3003 1734 2745 1975 
Q 2488 2216 2034 2216 
z
M 1403 2484 
Q 997 2584 770 2862 
Q 544 3141 544 3541 
Q 544 4100 942 4425 
Q 1341 4750 2034 4750 
Q 2731 4750 3128 4425 
Q 3525 4100 3525 3541 
Q 3525 3141 3298 2862 
Q 3072 2584 2669 2484 
Q 3125 2378 3379 2068 
Q 3634 1759 3634 1313 
Q 3634 634 3220 271 
Q 2806 -91 2034 -91 
Q 1263 -91 848 271 
Q 434 634 434 1313 
Q 434 1759 690 2068 
Q 947 2378 1403 2484 
z
M 1172 3481 
Q 1172 3119 1398 2916 
Q 1625 2713 2034 2713 
Q 2441 2713 2670 2916 
Q 2900 3119 2900 3481 
Q 2900 3844 2670 4047 
Q 2441 4250 2034 4250 
Q 1625 4250 1398 4047 
Q 1172 3844 1172 3481 
z
" transform="scale(0.015625)"/>
       </defs>
       <use xlink:href="#DejaVuSans-38"/>
       <use xlink:href="#DejaVuSans-30" x="63.623047"/>
      </g>
     </g>
    </g>
    <g id="text_16">
     <!-- Accuracy -->
     <g transform="translate(31.795312 197.356125) rotate(-90) scale(0.1 -0.1)">
      <defs>
       <path id="DejaVuSans-41" d="M 2188 4044 
L 1331 1722 
L 3047 1722 
L 2188 4044 
z
M 1831 4666 
L 2547 4666 
L 4325 0 
L 3669 0 
L 3244 1197 
L 1141 1197 
L 716 0 
L 50 0 
L 1831 4666 
z
" transform="scale(0.015625)"/>
       <path id="DejaVuSans-75" d="M 544 1381 
L 544 3500 
L 1119 3500 
L 1119 1403 
Q 1119 906 1312 657 
Q 1506 409 1894 409 
Q 2359 409 2629 706 
Q 2900 1003 2900 1516 
L 2900 3500 
L 3475 3500 
L 3475 0 
L 2900 0 
L 2900 538 
Q 2691 219 2414 64 
Q 2138 -91 1772 -91 
Q 1169 -91 856 284 
Q 544 659 544 1381 
z
M 1991 3584 
L 1991 3584 
z
" transform="scale(0.015625)"/>
       <path id="DejaVuSans-72" d="M 2631 2963 
Q 2534 3019 2420 3045 
Q 2306 3072 2169 3072 
Q 1681 3072 1420 2755 
Q 1159 2438 1159 1844 
L 1159 0 
L 581 0 
L 581 3500 
L 1159 3500 
L 1159 2956 
Q 1341 3275 1631 3429 
Q 1922 3584 2338 3584 
Q 2397 3584 2469 3576 
Q 2541 3569 2628 3553 
L 2631 2963 
z
" transform="scale(0.015625)"/>
       <path id="DejaVuSans-61" d="M 2194 1759 
Q 1497 1759 1228 1600 
Q 959 1441 959 1056 
Q 959 750 1161 570 
Q 1363 391 1709 391 
Q 2188 391 2477 730 
Q 2766 1069 2766 1631 
L 2766 1759 
L 2194 1759 
z
M 3341 1997 
L 3341 0 
L 2766 0 
L 2766 531 
Q 2569 213 2275 61 
Q 1981 -91 1556 -91 
Q 1019 -91 701 211 
Q 384 513 384 1019 
Q 384 1609 779 1909 
Q 1175 2209 1959 2209 
L 2766 2209 
L 2766 2266 
Q 2766 2663 2505 2880 
Q 2244 3097 1772 3097 
Q 1472 3097 1187 3025 
Q 903 2953 641 2809 
L 641 3341 
Q 956 3463 1253 3523 
Q 1550 3584 1831 3584 
Q 2591 3584 2966 3190 
Q 3341 2797 3341 1997 
z
" transform="scale(0.015625)"/>
       <path id="DejaVuSans-79" d="M 2059 -325 
Q 1816 -950 1584 -1140 
Q 1353 -1331 966 -1331 
L 506 -1331 
L 506 -850 
L 844 -850 
Q 1081 -850 1212 -737 
Q 1344 -625 1503 -206 
L 1606 56 
L 191 3500 
L 800 3500 
L 1894 763 
L 2988 3500 
L 3597 3500 
L 2059 -325 
z
" transform="scale(0.015625)"/>
      </defs>
      <use xlink:href="#DejaVuSans-41"/>
      <use xlink:href="#DejaVuSans-63" x="66.658203"/>
      <use xlink:href="#DejaVuSans-63" x="121.638672"/>
      <use xlink:href="#DejaVuSans-75" x="176.619141"/>
      <use xlink:href="#DejaVuSans-72" x="239.998047"/>
      <use xlink:href="#DejaVuSans-61" x="281.111328"/>
      <use xlink:href="#DejaVuSans-63" x="342.390625"/>
      <use xlink:href="#DejaVuSans-79" x="397.371094"/>
     </g>
    </g>
   </g>
   <g id="line2d_15">
    <path d="M 73.832727 285.543543 
L 74.555789 236.562235 
L 75.27885 200.576855 
L 76.001911 176.48093 
L 76.724973 161.606405 
L 78.171095 145.006356 
L 78.894157 138.43685 
L 80.340279 129.062377 
L 81.786402 121.423416 
L 82.509463 119.147594 
L 84.678647 110.305791 
L 85.401709 108.425431 
L 86.12477 105.054593 
L 86.847832 103.988958 
L 87.570893 101.701383 
L 89.017016 98.399002 
L 89.740077 95.652796 
L 91.1862 93.063482 
L 91.909261 92.336605 
L 92.632322 90.716852 
L 93.355384 89.949137 
L 94.078445 89.602445 
L 94.801506 88.683713 
L 95.524568 114.432886 
L 96.247629 115.161525 
L 97.693752 112.356558 
L 98.416813 111.022678 
L 99.862936 109.56158 
L 100.585997 106.878248 
L 101.309059 105.732404 
L 102.03212 104.862738 
L 102.755181 103.769779 
L 103.478243 102.306624 
L 104.201304 102.613945 
L 104.924365 100.516169 
L 105.647427 100.226476 
L 106.370488 98.884664 
L 107.093549 99.023634 
L 107.816611 97.588097 
L 109.262733 95.607843 
L 109.985795 95.170954 
L 110.708856 94.271907 
L 111.431917 94.191698 
L 112.87804 91.343541 
L 113.601101 91.053848 
L 114.324163 90.274086 
L 115.047224 89.01072 
L 115.770285 89.151747 
L 116.493347 87.404775 
L 117.216408 87.179426 
L 117.93947 86.088523 
L 118.662531 85.216801 
L 119.385592 85.348132 
L 120.108654 83.369641 
L 120.831715 82.872227 
L 121.554776 82.966245 
L 122.277838 81.418768 
L 123.72396 79.871585 
L 125.893144 78.057626 
L 126.616206 76.543642 
L 127.339267 76.345911 
L 128.062328 75.893449 
L 128.78539 75.301724 
L 129.508451 74.087423 
L 130.231512 73.654646 
L 130.954574 72.732095 
L 131.677635 73.084662 
L 132.400696 72.920131 
L 133.123758 71.674393 
L 133.846819 72.073969 
L 134.569881 71.582138 
L 135.292942 71.969962 
L 136.016003 71.780163 
L 137.462126 71.159057 
L 138.185187 71.178742 
L 138.908249 94.463762 
L 139.63131 96.518643 
L 140.354371 97.078637 
L 141.077433 96.986676 
L 141.800494 96.530395 
L 142.523555 96.424625 
L 143.246617 95.505893 
L 143.969678 94.806634 
L 144.692739 94.636226 
L 145.415801 94.211089 
L 146.138862 94.697044 
L 146.861923 93.758627 
L 147.584985 93.192757 
L 148.308046 92.910703 
L 149.031108 92.164435 
L 149.754169 92.412995 
L 150.47723 91.931153 
L 151.200292 92.101561 
L 152.646414 90.924573 
L 153.369476 90.955716 
L 154.092537 89.856881 
L 154.815598 89.76492 
L 155.53866 89.911823 
L 156.261721 89.833377 
L 157.707844 88.644637 
L 158.430905 88.971643 
L 159.153966 88.481869 
L 159.877028 88.290013 
L 160.600089 87.696525 
L 161.32315 87.868989 
L 162.046212 87.353653 
L 162.769273 86.345016 
L 163.492334 87.083351 
L 164.215396 86.754288 
L 164.938457 86.648518 
L 165.661519 85.628129 
L 166.38458 85.622253 
L 167.107641 85.189477 
L 167.830703 85.892555 
L 168.553764 84.417648 
L 169.276825 84.023948 
L 169.999887 83.827979 
L 170.722948 84.740835 
L 171.446009 84.235488 
L 172.169071 83.45602 
L 172.892132 83.124901 
L 173.615193 82.037818 
L 175.061316 81.669679 
L 175.784377 81.783088 
L 177.2305 81.107334 
L 177.953561 81.123199 
L 178.676623 80.180963 
L 179.399684 80.114269 
L 180.122745 79.444391 
L 180.845807 79.996746 
L 181.568868 79.221098 
L 182.29193 79.469952 
L 183.014991 77.605164 
L 183.738052 77.879579 
L 184.461114 78.312356 
L 185.184175 77.517022 
L 186.630298 76.75724 
L 187.353359 76.782507 
L 188.07642 76.083248 
L 189.522543 75.282333 
L 190.245604 75.568206 
L 190.968666 74.766997 
L 191.691727 74.420305 
L 192.414788 74.353905 
L 193.13785 73.795673 
L 193.860911 73.020025 
L 194.583972 72.604583 
L 195.307034 72.67921 
L 196.030095 72.291386 
L 196.753157 71.680269 
L 197.476218 71.652651 
L 198.199279 71.27276 
L 198.922341 70.508864 
L 199.645402 70.593186 
L 200.368463 70.04465 
L 201.814586 69.402096 
L 202.537647 69.451162 
L 203.260709 68.524791 
L 203.98377 67.864608 
L 204.706831 68.469849 
L 205.429893 67.815543 
L 206.876015 67.310196 
L 207.599077 66.562165 
L 208.322138 66.123219 
L 209.045199 66.22517 
L 209.768261 65.984249 
L 210.491322 65.962801 
L 211.937445 65.004993 
L 214.106629 64.63656 
L 214.82969 64.853976 
L 215.552752 64.427076 
L 216.275813 64.164707 
L 217.721936 64.213479 
L 218.444997 63.712246 
L 219.168058 63.504525 
L 219.89112 63.859149 
L 220.614181 63.443707 
L 221.337242 63.537725 
L 222.060304 63.463392 
L 222.783365 62.534964 
L 223.506426 63.463392 
L 224.229488 63.308556 
L 224.952549 63.572981 
L 225.67561 88.924634 
L 226.398672 92.789067 
L 227.121733 91.878268 
L 227.844794 92.603088 
L 228.567856 91.974342 
L 229.290917 92.03898 
L 230.73704 90.840251 
L 232.183163 89.674722 
L 232.906224 89.892138 
L 233.629285 89.933271 
L 234.352347 89.694407 
L 235.075408 89.118547 
L 235.798469 89.453486 
L 236.521531 88.452488 
L 237.244592 89.032461 
L 237.967653 88.221556 
L 238.690715 87.796419 
L 239.413776 88.049092 
L 240.136837 87.863113 
L 240.859899 87.138293 
L 241.58296 87.972702 
L 242.306021 86.954076 
L 243.029083 87.432099 
L 243.752144 87.722086 
L 244.475206 87.727962 
L 245.198267 86.323568 
L 246.64439 86.777793 
L 247.367451 86.08441 
L 248.090512 86.44873 
L 248.813574 85.387208 
L 249.536635 86.013897 
L 250.259696 86.090286 
L 250.982758 86.053267 
L 251.705819 85.512663 
L 252.42888 85.800593 
L 253.151942 84.897433 
L 253.875003 84.734958 
L 254.598064 85.354008 
L 256.044187 85.061965 
L 256.767248 85.567311 
L 257.49031 84.919175 
L 258.213371 84.746711 
L 258.936432 84.723206 
L 259.659494 84.499914 
L 260.382555 84.523418 
L 261.105617 84.200231 
L 261.828678 84.041576 
L 262.551739 83.59881 
L 263.274801 83.978995 
L 263.997862 83.82034 
L 265.443985 83.679313 
L 266.167046 76.083248 
L 266.890107 75.027603 
L 267.613169 75.111925 
L 269.059291 74.298963 
L 269.782353 74.667102 
L 271.228475 73.744551 
L 271.951537 73.883815 
L 272.674598 73.721047 
L 273.397659 74.291031 
L 274.120721 73.971957 
L 276.289905 72.747667 
L 277.012966 72.831989 
L 277.736028 72.49705 
L 278.459089 72.581079 
L 279.18215 72.974779 
L 280.628273 71.66646 
L 281.351334 72.528194 
L 282.074396 71.942638 
L 282.797457 72.398919 
L 283.520518 71.52749 
L 284.24358 72.003456 
L 284.966641 71.545118 
L 285.689702 71.394102 
L 286.412764 71.043591 
L 287.135825 71.48812 
L 287.858886 71.658527 
L 288.581948 71.069152 
L 289.305009 70.677215 
L 290.02807 70.638138 
L 290.751132 70.820298 
L 291.474193 69.870423 
L 292.197255 70.111344 
L 292.920316 69.989708 
L 293.643377 69.735272 
L 294.366439 69.78992 
L 295.0895 70.115163 
L 295.812561 69.893927 
L 296.535623 69.368896 
L 297.258684 69.366839 
L 297.981745 68.84974 
L 298.704807 68.691085 
L 299.427868 69.560751 
L 300.873991 68.256252 
L 302.320113 68.567686 
L 303.043175 68.230985 
L 303.766236 67.598126 
L 304.489297 67.815543 
L 305.212359 67.22793 
L 305.93542 67.694201 
L 306.658481 67.200606 
L 307.381543 67.257311 
L 308.104604 67.061636 
L 308.827666 67.186797 
L 309.550727 66.605061 
L 310.273788 66.69144 
L 310.99685 66.327121 
L 311.719911 66.595366 
L 312.442972 65.931364 
L 313.166034 66.127234 
L 313.889095 66.191872 
L 314.612156 65.480861 
L 315.335218 65.63364 
L 316.058279 65.194889 
L 316.78134 65.394678 
L 317.504402 64.699336 
L 318.227463 65.155715 
L 318.950524 64.758098 
L 319.673586 64.499548 
L 321.119708 65.014688 
L 321.84277 64.262545 
L 322.565831 63.774826 
L 323.288892 64.246875 
L 324.011954 63.136288 
L 324.735015 63.925647 
L 325.458077 63.735652 
L 326.904199 62.411566 
L 328.350322 62.88949 
L 329.073383 62.574138 
L 329.796445 62.055081 
L 330.519506 62.233323 
L 331.965629 61.745605 
L 332.68869 61.820036 
L 333.411751 61.263763 
L 334.134813 61.504684 
L 334.857874 60.787797 
L 335.580935 61.469427 
L 336.303997 61.310772 
L 337.027058 60.235441 
L 337.750119 60.629142 
L 338.473181 60.50966 
L 339.919304 59.688962 
L 340.642365 60.309872 
L 341.365426 59.636077 
L 342.088488 59.528348 
L 342.811549 59.10135 
L 343.53461 58.833007 
L 344.257672 58.8428 
L 344.980733 59.173822 
L 345.703794 58.531366 
L 346.426856 58.210137 
L 347.149917 58.094574 
L 347.872978 58.527448 
L 348.59604 58.006432 
L 349.319101 57.687162 
L 350.042162 57.986845 
L 350.765224 57.215114 
L 351.488285 57.125013 
L 352.211346 57.363976 
L 352.934408 57.089757 
L 353.657469 56.269058 
L 354.38053 56.464929 
L 356.549715 55.9635 
L 357.272776 56.227925 
L 357.995837 55.828349 
L 359.44196 55.315167 
L 360.165021 55.319085 
L 360.888083 55.509079 
L 362.334205 54.149736 
L 363.057267 54.684463 
L 363.780328 54.494469 
L 364.503389 54.890128 
L 365.226451 54.433749 
L 367.395635 53.861806 
L 368.118696 54.271176 
L 368.841757 53.887269 
L 370.28788 54.130149 
L 371.010941 54.811779 
L 371.734003 54.320144 
L 372.457064 54.496427 
L 373.180126 53.928402 
L 373.903187 54.312309 
L 374.626248 54.373029 
L 376.072371 53.979329 
L 376.795432 54.112521 
L 377.518494 54.421997 
L 378.241555 53.797169 
L 378.964616 53.985205 
L 380.410739 54.036131 
L 381.1338 53.626761 
L 381.856862 54.208497 
L 382.579923 53.955824 
L 383.302984 54.418079 
L 384.026046 53.926444 
L 384.749107 54.222208 
L 385.472168 54.34169 
L 386.19523 54.596322 
L 386.918291 54.212415 
L 387.641353 54.337772 
L 388.364414 54.2653 
L 389.087475 54.478799 
L 389.810537 54.139943 
L 390.533598 54.032214 
L 391.256659 53.568 
L 391.979721 54.192828 
L 392.702782 54.41612 
L 393.425843 54.486634 
L 394.148905 54.165406 
L 394.871966 54.363235 
L 395.595027 54.008709 
L 396.318089 54.478799 
L 397.04115 54.733431 
L 397.764211 54.043966 
L 398.487273 53.938196 
L 398.487273 53.938196 
" clip-path="url(#p61b0403d46)" style="fill: none; stroke: #1f77b4; stroke-width: 1.5; stroke-linecap: square"/>
   </g>
   <g id="line2d_16">
    <path d="M 73.832727 259.144177 
L 74.555789 219.333441 
L 76.001911 179.493324 
L 77.448034 154.901748 
L 78.171095 151.552358 
L 78.894157 147.115884 
L 79.617218 139.594446 
L 80.340279 136.186295 
L 81.063341 135.01107 
L 81.786402 132.60186 
L 82.509463 127.548393 
L 83.232525 126.520072 
L 83.955586 124.786615 
L 84.678647 118.087835 
L 85.401709 117.206416 
L 86.12477 112.387995 
L 86.847832 114.914728 
L 88.293954 107.540193 
L 89.017016 107.716477 
L 89.740077 105.777356 
L 90.463138 105.277886 
L 91.1862 104.954699 
L 91.909261 103.280004 
L 92.632322 101.957876 
L 93.355384 102.104779 
L 94.078445 100.547607 
L 94.801506 100.69451 
L 95.524568 126.196885 
L 96.247629 125.550512 
L 96.97069 126.637594 
L 97.693752 120.350142 
L 98.416813 118.234738 
L 99.139874 126.167504 
L 99.862936 121.231561 
L 100.585997 117.412081 
L 101.309059 117.999693 
L 102.03212 116.795088 
L 102.755181 113.269414 
L 103.478243 113.357556 
L 104.201304 111.477196 
L 104.924365 111.535957 
L 105.647427 111.330293 
L 106.370488 109.185508 
L 107.093549 108.744799 
L 107.816611 108.039664 
L 108.539672 108.744799 
L 109.262733 106.9232 
L 109.985795 105.718595 
L 110.708856 104.925318 
L 111.431917 105.630453 
L 112.154979 104.249564 
L 112.87804 105.130983 
L 113.601101 101.135219 
L 114.324163 101.752212 
L 115.047224 102.574869 
L 115.770285 99.519285 
L 116.493347 98.549725 
L 117.216408 98.755389 
L 117.93947 98.255918 
L 118.662531 97.315739 
L 119.385592 98.285299 
L 120.108654 97.051313 
L 120.831715 96.463701 
L 121.554776 95.141573 
L 122.277838 95.170954 
L 123.000899 94.789006 
L 123.72396 95.317857 
L 124.447022 93.231833 
L 125.170083 92.556079 
L 125.893144 90.852003 
L 126.616206 91.704041 
L 127.339267 91.263332 
L 128.062328 91.057667 
L 128.78539 89.911823 
L 129.508451 89.735539 
L 130.231512 89.324211 
L 130.954574 88.178367 
L 131.677635 88.472173 
L 133.846819 87.620135 
L 134.569881 87.208806 
L 135.292942 87.179426 
L 136.016003 87.355709 
L 136.739065 86.973761 
L 137.462126 87.091284 
L 138.185187 86.239246 
L 138.908249 110.24321 
L 139.63131 108.774179 
L 140.354371 108.215948 
L 141.077433 110.360733 
L 141.800494 109.684978 
L 142.523555 111.065867 
L 143.969678 105.307266 
L 144.692739 109.038605 
L 145.415801 105.865498 
L 146.138862 108.039664 
L 146.861923 104.425848 
L 147.584985 105.659834 
L 148.308046 105.747976 
L 149.031108 110.096307 
L 149.754169 102.310444 
L 150.47723 105.542311 
L 151.200292 105.219125 
L 151.923353 107.011342 
L 152.646414 106.541252 
L 153.369476 108.509754 
L 154.092537 103.162481 
L 154.815598 105.571692 
L 155.53866 101.164599 
L 156.261721 103.338765 
L 156.984782 102.60425 
L 157.707844 98.255918 
L 158.430905 101.252741 
L 159.153966 100.518226 
L 159.877028 103.397526 
L 160.600089 102.721772 
L 161.32315 102.839295 
L 162.046212 101.047077 
L 162.769273 101.076458 
L 163.492334 101.429025 
L 164.215396 102.457347 
L 164.938457 100.459465 
L 165.661519 99.75433 
L 166.38458 100.606368 
L 167.107641 99.519285 
L 167.830703 101.164599 
L 168.553764 100.488845 
L 169.276825 101.047077 
L 169.999887 98.432202 
L 170.722948 99.343001 
L 171.446009 96.551843 
L 172.169071 99.196098 
L 172.892132 95.376618 
L 173.615193 96.40494 
L 174.338255 96.963171 
L 175.061316 97.256977 
L 175.784377 96.463701 
L 176.507439 95.405999 
L 177.2305 94.789006 
L 177.953561 95.611663 
L 178.676623 95.993611 
L 179.399684 95.141573 
L 180.122745 98.079635 
L 180.845807 94.700864 
L 181.568868 95.46476 
L 182.29193 94.847767 
L 183.014991 93.055549 
L 183.738052 93.55502 
L 185.184175 90.381913 
L 185.907236 91.17519 
L 187.353359 93.5844 
L 188.07642 92.526698 
L 188.799482 93.378736 
L 190.245604 93.819445 
L 190.968666 90.411294 
L 191.691727 91.762802 
L 192.414788 90.088107 
L 193.13785 90.23501 
L 193.860911 89.089166 
L 194.583972 89.882443 
L 195.307034 87.590754 
L 196.030095 87.502613 
L 196.753157 87.620135 
L 197.476218 88.295889 
L 198.199279 88.442792 
L 198.922341 86.768097 
L 199.645402 88.031464 
L 200.368463 87.85518 
L 201.091525 86.591813 
L 201.814586 86.004201 
L 202.537647 86.386149 
L 203.260709 85.387208 
L 203.98377 86.062962 
L 204.706831 85.093402 
L 205.429893 84.828976 
L 206.152954 83.947558 
L 206.876015 85.504731 
L 207.599077 84.123842 
L 208.322138 84.53517 
L 209.045199 84.740835 
L 209.768261 82.889856 
L 210.491322 83.124901 
L 211.214383 84.094461 
L 211.937445 83.213043 
L 212.660506 82.831094 
L 213.383568 82.713572 
L 214.106629 82.977998 
L 214.82969 81.68525 
L 216.275813 81.832154 
L 216.998874 81.979057 
L 217.721936 81.773392 
L 218.444997 82.243482 
L 219.168058 81.303302 
L 219.89112 82.15534 
L 220.614181 81.332683 
L 221.337242 82.449146 
L 222.060304 82.037818 
L 222.783365 81.450205 
L 223.506426 81.832154 
L 224.229488 81.097638 
L 224.952549 81.802773 
L 225.67561 105.277886 
L 226.398672 106.9232 
L 227.121733 109.156127 
L 228.567856 105.042841 
L 229.290917 105.571692 
L 230.013979 104.337706 
L 230.73704 108.597896 
L 231.460101 106.864439 
L 232.183163 102.898056 
L 232.906224 100.665129 
L 233.629285 104.719654 
L 234.352347 101.429025 
L 235.075408 103.955758 
L 235.798469 104.337706 
L 236.521531 102.251682 
L 237.244592 102.545488 
L 237.967653 101.340883 
L 238.690715 107.86338 
L 239.413776 102.839295 
L 240.136837 102.486727 
L 240.859899 105.95364 
L 241.58296 101.605309 
L 242.306021 102.192921 
L 243.029083 99.078576 
L 243.752144 99.137337 
L 244.475206 101.781592 
L 245.198267 101.781592 
L 245.921328 102.721772 
L 246.64439 97.87397 
L 248.090512 102.956817 
L 248.813574 100.459465 
L 249.536635 102.63363 
L 250.259696 100.018755 
L 250.982758 99.548666 
L 251.705819 101.076458 
L 252.42888 95.96423 
L 253.151942 102.398585 
L 253.875003 100.048136 
L 254.598064 100.958935 
L 255.321126 100.341942 
L 256.044187 99.049195 
L 256.767248 97.227597 
L 257.49031 99.107956 
L 258.213371 96.375559 
L 258.936432 102.310444 
L 259.659494 98.81415 
L 260.382555 99.019814 
L 261.105617 98.373441 
L 261.828678 98.520344 
L 262.551739 98.784769 
L 263.274801 97.550784 
L 263.997862 97.697687 
L 264.720923 99.842472 
L 265.443985 99.636807 
L 266.167046 100.518226 
L 266.890107 97.580164 
L 267.613169 101.340883 
L 268.33623 98.373441 
L 269.059291 97.580164 
L 269.782353 102.310444 
L 270.505414 97.84459 
L 271.228475 97.315739 
L 271.951537 98.373441 
L 272.674598 98.167777 
L 273.397659 96.140514 
L 274.120721 98.197157 
L 274.843782 98.109015 
L 275.566843 98.990434 
L 277.012966 96.757507 
L 277.736028 97.110074 
L 278.459089 97.932732 
L 279.18215 95.288476 
L 279.905212 98.755389 
L 280.628273 96.463701 
L 281.351334 98.197157 
L 282.074396 97.286358 
L 282.797457 99.578046 
L 283.520518 95.993611 
L 284.24358 96.199275 
L 284.966641 97.256977 
L 285.689702 95.817327 
L 287.858886 97.110074 
L 288.581948 94.789006 
L 289.305009 97.110074 
L 290.02807 95.053431 
L 290.751132 94.05449 
L 292.197255 95.817327 
L 292.920316 97.080694 
L 293.643377 94.818386 
L 294.366439 95.112192 
L 295.0895 93.378736 
L 295.812561 95.817327 
L 296.535623 93.349355 
L 297.258684 93.290594 
L 297.981745 96.728126 
L 298.704807 95.259095 
L 299.427868 94.377677 
L 300.150929 94.260154 
L 300.873991 93.143691 
L 301.597052 94.142632 
L 302.320113 94.553961 
L 303.766236 93.55502 
L 304.489297 94.05449 
L 305.212359 92.174131 
L 305.93542 92.350414 
L 306.658481 92.967407 
L 307.381543 93.055549 
L 308.104604 93.613781 
L 308.827666 93.525639 
L 309.550727 90.73448 
L 310.273788 93.08493 
L 310.99685 91.410235 
L 311.719911 91.997847 
L 312.442972 93.731303 
L 313.166034 92.467937 
L 313.889095 91.939086 
L 314.612156 92.262273 
L 315.335218 94.700864 
L 316.058279 91.67466 
L 316.78134 91.997847 
L 317.504402 90.499436 
L 318.227463 90.969525 
L 318.950524 91.586518 
L 319.673586 93.349355 
L 320.396647 90.822622 
L 321.119708 90.058726 
L 321.84277 89.735539 
L 322.565831 89.559256 
L 323.288892 90.352532 
L 324.011954 90.675719 
L 325.458077 89.382972 
L 326.181138 90.117487 
L 326.904199 91.557138 
L 328.350322 90.969525 
L 329.073383 89.471114 
L 329.796445 89.941204 
L 330.519506 89.353591 
L 331.242567 86.973761 
L 331.965629 89.970584 
L 332.68869 88.501554 
L 333.411751 87.473232 
L 334.134813 87.796419 
L 334.857874 88.971643 
L 335.580935 89.647398 
L 336.303997 88.912882 
L 337.027058 87.061903 
L 337.750119 87.620135 
L 338.473181 86.88562 
L 339.196242 86.621194 
L 339.919304 88.912882 
L 340.642365 87.85518 
L 341.365426 87.943322 
L 342.088488 86.503672 
L 342.811549 85.739776 
L 343.53461 86.826858 
L 344.257672 85.857298 
L 344.980733 85.563492 
L 345.703794 85.622253 
L 346.426856 84.711454 
L 347.149917 85.681014 
L 347.872978 85.47535 
L 349.319101 87.238187 
L 350.042162 85.387208 
L 350.765224 84.946499 
L 351.488285 83.154281 
L 352.211346 85.240305 
L 352.934408 85.710395 
L 353.657469 84.094461 
L 354.38053 85.328447 
L 355.103592 84.887738 
L 355.826653 83.947558 
L 356.549715 83.56561 
L 357.272776 83.741894 
L 357.995837 84.211983 
L 358.718899 84.417648 
L 359.44196 84.329506 
L 360.165021 84.06508 
L 360.888083 83.947558 
L 361.611144 83.947558 
L 362.334205 82.62543 
L 363.057267 82.742953 
L 363.780328 85.152163 
L 364.503389 82.302243 
L 365.226451 82.831094 
L 365.949512 82.302243 
L 366.672573 82.419766 
L 367.395635 82.272863 
L 368.841757 82.302243 
L 369.564819 82.742953 
L 370.28788 82.478527 
L 371.010941 82.713572 
L 371.734003 83.124901 
L 372.457064 82.507908 
L 373.180126 83.624371 
L 373.903187 83.301184 
L 374.626248 83.477468 
L 375.34931 82.831094 
L 376.072371 81.714631 
L 376.795432 83.036759 
L 377.518494 83.448087 
L 378.241555 83.213043 
L 378.964616 82.801714 
L 379.687678 81.979057 
L 380.410739 82.361005 
L 381.1338 83.448087 
L 381.856862 82.419766 
L 382.579923 83.594991 
L 383.302984 81.626489 
L 384.749107 82.977998 
L 385.472168 82.449146 
L 386.19523 82.919236 
L 386.918291 83.066139 
L 387.641353 83.330565 
L 388.364414 83.859416 
L 390.533598 82.919236 
L 391.256659 83.448087 
L 391.979721 82.977998 
L 392.702782 83.359946 
L 393.425843 84.094461 
L 394.871966 82.096579 
L 395.595027 83.154281 
L 396.318089 83.301184 
L 397.04115 84.417648 
L 397.764211 83.124901 
L 398.487273 82.948617 
L 398.487273 82.948617 
" clip-path="url(#p61b0403d46)" style="fill: none; stroke: #ff7f0e; stroke-width: 1.5; stroke-linecap: square"/>
   </g>
   <g id="line2d_17">
    <path d="M 73.832727 257.307301 
L 74.555789 233.397648 
L 75.27885 214.361065 
L 76.001911 199.903745 
L 76.724973 193.207021 
L 77.448034 188.56694 
L 78.171095 188.252861 
L 78.894157 186.915456 
L 79.617218 176.703047 
L 80.340279 181.728308 
L 81.063341 177.28067 
L 81.786402 178.699166 
L 82.509463 172.458136 
L 83.232525 175.922992 
L 83.955586 165.791967 
L 84.678647 164.383461 
L 85.401709 169.043814 
L 86.12477 159.814481 
L 86.847832 162.448453 
L 87.570893 159.257131 
L 88.293954 157.605646 
L 89.017016 153.634268 
L 90.463138 153.715359 
L 91.1862 154.120517 
L 91.909261 153.178281 
L 92.632322 151.010285 
L 93.355384 150.199968 
L 94.078445 150.432956 
L 94.801506 151.375192 
L 95.524568 177.422578 
L 96.247629 169.297369 
L 96.97069 173.056031 
L 97.693752 170.036879 
L 98.416813 165.589241 
L 99.139874 169.24654 
L 99.862936 169.104632 
L 100.585997 168.638655 
L 101.309059 169.651699 
L 102.03212 163.187963 
L 102.755181 159.388756 
L 103.478243 164.21129 
L 104.201304 160.239912 
L 104.924365 158.588428 
L 105.647427 150.108594 
L 106.370488 157.808372 
L 107.093549 151.121638 
L 107.816611 156.146898 
L 108.539672 158.689791 
L 109.262733 156.511512 
L 109.985795 158.213531 
L 110.708856 149.318549 
L 111.431917 152.92502 
L 112.154979 150.331593 
L 112.87804 156.319069 
L 113.601101 149.865616 
L 114.324163 150.655661 
L 115.047224 152.803678 
L 115.770285 146.451295 
L 116.493347 145.833127 
L 117.216408 149.439891 
L 117.93947 145.93449 
L 118.662531 143.188871 
L 119.385592 146.643738 
L 120.108654 147.748155 
L 121.554776 145.417979 
L 122.277838 143.634869 
L 123.000899 141.416045 
L 123.72396 145.316615 
L 124.447022 141.861749 
L 125.170083 141.243874 
L 125.893144 138.883142 
L 126.616206 140.960058 
L 127.339267 141.355227 
L 128.062328 139.146686 
L 128.78539 137.404121 
L 129.508451 140.271082 
L 130.231512 138.467994 
L 130.954574 136.066716 
L 131.677635 138.7618 
L 132.400696 138.032279 
L 133.123758 136.745408 
L 133.846819 135.19558 
L 134.569881 136.137523 
L 135.292942 134.911764 
L 136.016003 135.428569 
L 136.739065 135.337195 
L 137.462126 134.172254 
L 138.185187 134.486332 
L 138.908249 161.718932 
L 140.354371 149.541254 
L 141.077433 162.387635 
L 141.800494 158.314894 
L 142.523555 159.682562 
L 143.246617 163.876939 
L 143.969678 146.299397 
L 144.692739 154.211891 
L 145.415801 156.531785 
L 146.138862 157.575384 
L 146.861923 156.785045 
L 148.308046 151.010285 
L 149.031108 162.154647 
L 149.754169 152.793395 
L 150.47723 148.234404 
L 151.200292 151.030558 
L 151.923353 154.373778 
L 152.646414 154.029437 
L 153.369476 151.689271 
L 154.092537 148.497655 
L 154.815598 153.49236 
L 155.53866 153.087201 
L 156.261721 150.827832 
L 156.984782 147.595964 
L 157.707844 143.077519 
L 159.153966 151.486545 
L 160.600089 148.690392 
L 161.32315 149.733697 
L 162.046212 153.289927 
L 162.769273 152.134975 
L 163.492334 150.240219 
L 164.215396 149.814788 
L 164.938457 142.783712 
L 166.38458 148.406575 
L 167.107641 148.203849 
L 167.830703 145.205263 
L 168.553764 148.639563 
L 169.276825 145.043082 
L 169.999887 146.339942 
L 170.722948 146.552658 
L 171.446009 149.278004 
L 172.169071 150.280764 
L 172.892132 144.951708 
L 173.615193 140.635989 
L 174.338255 144.840356 
L 175.061316 143.88813 
L 175.784377 145.519342 
L 176.507439 141.679589 
L 177.2305 144.374379 
L 177.953561 142.226656 
L 178.676623 138.802051 
L 179.399684 143.999482 
L 180.122745 142.67236 
L 180.845807 144.222481 
L 181.568868 146.289114 
L 182.29193 147.160543 
L 183.014991 138.36663 
L 183.738052 141.264147 
L 184.461114 138.559074 
L 185.184175 135.418286 
L 185.907236 142.358281 
L 186.630298 139.521583 
L 187.353359 138.11337 
L 188.07642 139.643218 
L 188.799482 134.617958 
L 189.522543 137.282486 
L 190.245604 141.193046 
L 190.968666 137.130588 
L 191.691727 140.676535 
L 192.414788 137.758745 
L 193.13785 135.691819 
L 193.860911 138.021996 
L 194.583972 136.289715 
L 195.307034 133.554085 
L 196.030095 134.020356 
L 196.753157 137.039214 
L 197.476218 133.574358 
L 198.199279 135.823738 
L 199.645402 131.46718 
L 200.368463 135.104207 
L 201.091525 134.63823 
L 201.814586 130.859295 
L 202.537647 128.559381 
L 203.260709 129.673787 
L 203.98377 131.041749 
L 204.706831 131.690179 
L 205.429893 133.270562 
L 206.152954 129.704343 
L 206.876015 133.908709 
L 207.599077 133.260279 
L 208.322138 132.419406 
L 209.045199 133.655449 
L 209.768261 131.001204 
L 210.491322 131.619078 
L 211.214383 130.200876 
L 211.937445 130.008139 
L 212.660506 131.791248 
L 213.383568 130.980931 
L 214.106629 129.815696 
L 214.82969 127.789608 
L 215.552752 127.313349 
L 216.275813 129.369992 
L 216.998874 129.572718 
L 217.721936 127.779325 
L 219.168058 130.048684 
L 219.89112 128.12396 
L 220.614181 129.207811 
L 221.337242 129.977877 
L 222.060304 129.369992 
L 222.783365 129.005378 
L 223.506426 130.514954 
L 224.229488 128.458311 
L 224.952549 129.795423 
L 225.67561 149.693152 
L 226.398672 155.001936 
L 227.121733 150.047776 
L 227.844794 156.926954 
L 228.567856 153.188564 
L 229.290917 154.454869 
L 230.013979 153.604006 
L 230.73704 158.43653 
L 231.460101 150.514047 
L 232.183163 145.721774 
L 232.906224 153.441825 
L 233.629285 151.223001 
L 234.352347 153.117757 
L 235.075408 148.832006 
L 235.798469 150.453229 
L 236.521531 148.35604 
L 237.244592 149.09555 
L 237.967653 143.209144 
L 238.690715 155.366843 
L 239.413776 146.198034 
L 240.136837 147.352986 
L 240.859899 149.196913 
L 241.58296 146.714545 
L 242.306021 149.480436 
L 243.029083 143.958937 
L 243.752144 146.876726 
L 244.475206 152.519861 
L 245.198267 150.625399 
L 245.921328 147.048897 
L 246.64439 147.23135 
L 247.367451 144.030038 
L 248.090512 149.683163 
L 248.813574 144.496015 
L 249.536635 147.261906 
L 250.259696 145.478796 
L 250.982758 141.750396 
L 251.705819 151.243273 
L 252.42888 144.617651 
L 253.151942 144.779538 
L 253.875003 140.656262 
L 254.598064 144.617651 
L 255.321126 155.91391 
L 256.044187 142.662077 
L 256.767248 138.153915 
L 257.49031 148.041961 
L 258.213371 143.756505 
L 258.936432 153.289927 
L 259.659494 145.417979 
L 260.382555 154.252436 
L 261.105617 146.198034 
L 261.828678 144.607367 
L 262.551739 147.079452 
L 263.274801 146.086681 
L 263.997862 149.855333 
L 264.720923 145.407695 
L 265.443985 149.602072 
L 266.167046 148.335768 
L 266.890107 139.50131 
L 267.613169 140.088922 
L 268.33623 139.359402 
L 269.059291 148.315495 
L 269.782353 145.833127 
L 270.505414 142.743167 
L 271.228475 154.1308 
L 271.951537 152.540134 
L 273.397659 145.610422 
L 274.120721 140.109195 
L 274.843782 140.514354 
L 276.289905 146.390477 
L 277.012966 143.96922 
L 277.736028 148.710664 
L 278.459089 140.828432 
L 279.18215 145.75233 
L 280.628273 152.631214 
L 281.351334 141.497135 
L 282.074396 141.54767 
L 282.797457 152.854213 
L 283.520518 142.287474 
L 284.24358 140.645979 
L 284.966641 150.23023 
L 285.689702 142.75345 
L 286.412764 139.67348 
L 287.135825 149.267721 
L 287.858886 138.781779 
L 288.581948 143.857574 
L 289.305009 143.32079 
L 290.02807 142.419099 
L 290.751132 139.248049 
L 291.474193 141.598498 
L 292.197255 143.229416 
L 292.920316 146.137216 
L 294.366439 135.884262 
L 295.0895 140.757625 
L 295.812561 142.682349 
L 296.535623 137.110315 
L 297.258684 134.030345 
L 297.981745 141.800931 
L 298.704807 136.340249 
L 299.427868 141.010886 
L 300.150929 137.525757 
L 300.873991 140.382728 
L 301.597052 139.653208 
L 302.320113 139.937024 
L 303.043175 142.591269 
L 303.766236 136.532692 
L 304.489297 143.614596 
L 305.212359 139.136403 
L 305.93542 133.756812 
L 306.658481 133.432743 
L 307.381543 134.94232 
L 308.104604 140.15973 
L 308.827666 134.445787 
L 309.550727 135.641284 
L 310.273788 134.891491 
L 310.99685 132.166145 
L 311.719911 142.986439 
L 313.166034 136.573309 
L 314.612156 139.886226 
L 315.335218 138.53877 
L 316.058279 134.739553 
L 316.78134 138.427327 
L 317.504402 131.588735 
L 318.227463 142.824288 
L 318.950524 134.820603 
L 319.673586 137.23184 
L 320.396647 138.923758 
L 321.119708 136.603702 
L 321.84277 132.753828 
L 322.565831 133.736559 
L 324.011954 132.60186 
L 324.735015 134.050628 
L 325.458077 136.066746 
L 326.181138 136.350421 
L 326.904199 136.076877 
L 327.627261 133.250259 
L 328.350322 137.211577 
L 329.073383 135.469003 
L 330.519506 133.189472 
L 331.242567 135.671628 
L 331.965629 135.955302 
L 332.68869 135.61084 
L 333.411751 136.360552 
L 334.134813 129.92721 
L 334.857874 136.117402 
L 335.580935 139.936883 
L 336.303997 138.234833 
L 337.027058 134.131678 
L 337.750119 133.260391 
L 338.473181 131.973722 
L 339.196242 132.92606 
L 339.919304 137.049477 
L 340.642365 136.299765 
L 341.365426 138.741395 
L 342.088488 133.027372 
L 342.811549 134.628109 
L 343.53461 134.31404 
L 344.257672 130.312198 
L 344.980733 131.578604 
L 345.703794 131.436766 
L 346.426856 131.072041 
L 347.149917 133.716297 
L 347.872978 131.072041 
L 348.59604 134.334303 
L 349.319101 134.31404 
L 350.042162 133.179341 
L 350.765224 130.960598 
L 351.488285 136.401077 
L 352.211346 131.608997 
L 352.934408 132.27766 
L 354.38053 131.335454 
L 355.103592 130.200754 
L 355.826653 130.423641 
L 356.549715 129.197761 
L 357.272776 123.149406 
L 357.995837 128.174505 
L 358.718899 130.109573 
L 359.44196 128.650673 
L 360.888083 131.173354 
L 362.334205 130.180492 
L 363.057267 128.772248 
L 363.780328 131.14296 
L 364.503389 127.333611 
L 365.226451 130.200754 
L 365.949512 127.900961 
L 366.672573 127.364005 
L 367.395635 128.549361 
L 368.118696 128.508836 
L 368.841757 126.644686 
L 369.564819 125.874711 
L 370.28788 126.857442 
L 371.010941 131.771097 
L 371.734003 132.865272 
L 372.457064 128.600017 
L 373.180126 128.478442 
L 373.903187 127.799648 
L 374.626248 127.414661 
L 375.34931 131.527947 
L 376.072371 130.666791 
L 376.795432 131.558341 
L 377.518494 127.303217 
L 378.241555 126.827049 
L 378.964616 128.468311 
L 379.687678 128.954611 
L 380.410739 130.423641 
L 381.1338 130.200754 
L 381.856862 131.213879 
L 382.579923 129.025529 
L 383.302984 128.559492 
L 384.026046 128.721592 
L 385.472168 127.384267 
L 386.19523 130.545216 
L 386.918291 130.524954 
L 387.641353 132.490416 
L 388.364414 130.139967 
L 389.087475 131.578604 
L 389.810537 131.87241 
L 390.533598 132.642385 
L 391.979721 130.606004 
L 392.702782 131.284797 
L 393.425843 129.228154 
L 394.148905 129.673929 
L 394.871966 130.646529 
L 395.595027 132.145953 
L 396.318089 130.98086 
L 397.04115 133.554197 
L 397.764211 131.588735 
L 398.487273 131.54821 
L 398.487273 131.54821 
" clip-path="url(#p61b0403d46)" style="fill: none; stroke: #2ca02c; stroke-width: 1.5; stroke-linecap: square"/>
   </g>
   <g id="line2d_18">
    <path d="M 73.832727 293.196312 
L 74.555789 295.488 
L 75.27885 289.729399 
L 76.001911 291.991707 
L 78.171095 284.881597 
L 78.894157 284.323366 
L 79.617218 284.675933 
L 80.340279 278.476623 
L 81.063341 276.625644 
L 81.786402 277.771488 
L 82.509463 276.831308 
L 83.232525 276.978211 
L 83.955586 272.424216 
L 84.678647 273.452537 
L 85.401709 268.604735 
L 86.12477 273.364395 
L 86.847832 266.548092 
L 87.570893 266.694995 
L 88.293954 266.166144 
L 89.017016 264.021359 
L 89.740077 263.962598 
L 90.463138 259.908073 
L 91.1862 258.732848 
L 91.909261 258.115855 
L 92.632322 258.468423 
L 94.078445 258.674087 
L 94.801506 258.3509 
L 95.524568 274.686523 
L 96.247629 273.746343 
L 96.97069 276.596263 
L 97.693752 273.511299 
L 98.416813 273.540679 
L 99.139874 273.981388 
L 99.862936 268.487213 
L 100.585997 268.134646 
L 101.309059 272.62988 
L 102.03212 268.663497 
L 102.755181 268.017123 
L 103.478243 271.6897 
L 104.201304 269.104206 
L 104.924365 269.133587 
L 105.647427 268.751639 
L 106.370488 266.019241 
L 107.093549 268.134646 
L 107.816611 261.465246 
L 108.539672 263.786314 
L 109.262733 263.374986 
L 109.985795 265.519771 
L 110.708856 261.347723 
L 111.431917 258.879751 
L 112.154979 260.554446 
L 112.87804 260.407543 
L 113.601101 256.999392 
L 114.324163 255.706645 
L 115.047224 255.50098 
L 115.770285 256.44116 
L 116.493347 254.237614 
L 117.216408 258.527184 
L 117.93947 253.796905 
L 119.385592 251.005746 
L 120.108654 249.125386 
L 120.831715 252.562919 
L 121.554776 246.040422 
L 122.277838 252.416016 
L 123.000899 246.011041 
L 123.72396 248.185207 
L 124.447022 245.540951 
L 125.170083 248.273349 
L 125.893144 250.300611 
L 126.616206 247.626975 
L 127.339267 243.543069 
L 128.062328 245.100242 
L 128.78539 243.719353 
L 129.508451 243.10236 
L 130.231512 244.483249 
L 130.954574 243.983778 
L 131.677635 246.334228 
L 132.400696 242.661651 
L 133.123758 243.748734 
L 133.846819 243.778114 
L 134.569881 241.603949 
L 135.292942 242.808554 
L 136.016003 240.986956 
L 136.739065 242.691031 
L 137.462126 241.016336 
L 138.185187 242.955457 
L 138.908249 261.377104 
L 139.63131 264.403307 
L 140.354371 266.665615 
L 141.077433 265.108442 
L 141.800494 259.467364 
L 142.523555 261.994097 
L 143.246617 258.115855 
L 143.969678 263.345605 
L 144.692739 262.376045 
L 145.415801 260.054976 
L 146.138862 264.462068 
L 146.861923 259.496744 
L 147.584985 264.315165 
L 148.308046 261.20082 
L 149.031108 264.432688 
L 149.754169 259.849312 
L 150.47723 258.32152 
L 151.200292 265.49039 
L 151.923353 260.907014 
L 152.646414 263.492508 
L 153.369476 256.44116 
L 154.092537 262.023477 
L 154.815598 257.998333 
L 155.53866 262.934276 
L 156.261721 261.259581 
L 156.984782 256.558683 
L 157.707844 258.380281 
L 158.430905 260.73073 
L 159.877028 254.648942 
L 160.600089 257.998333 
L 161.32315 258.233378 
L 162.046212 258.027713 
L 162.769273 256.029831 
L 163.492334 260.319402 
L 164.215396 252.533538 
L 164.938457 263.698172 
L 165.661519 253.620621 
L 166.38458 253.59124 
L 167.107641 253.738143 
L 167.830703 253.738143 
L 168.553764 253.503098 
L 169.276825 252.680441 
L 169.999887 253.56186 
L 170.722948 254.178853 
L 171.446009 255.765406 
L 172.169071 255.265935 
L 172.892132 250.388753 
L 173.615193 248.420252 
L 174.338255 255.50098 
L 175.061316 252.327874 
L 175.784377 251.563978 
L 176.507439 252.915486 
L 177.2305 251.240791 
L 177.953561 251.505216 
L 178.676623 246.657415 
L 179.399684 247.127504 
L 180.122745 247.186266 
L 180.845807 245.188384 
L 181.568868 251.328933 
L 182.29193 246.833698 
L 183.014991 246.363608 
L 183.738052 245.159003 
L 184.461114 250.329992 
L 185.907236 244.336346 
L 186.630298 242.867315 
L 187.353359 248.449632 
L 188.07642 251.093888 
L 188.799482 241.897755 
L 189.522543 243.983778 
L 190.245604 246.569273 
L 190.968666 242.749793 
L 191.691727 245.247145 
L 192.414788 244.806436 
L 193.13785 240.928194 
L 193.860911 240.164298 
L 194.583972 246.980601 
L 195.307034 245.159003 
L 196.030095 241.163239 
L 196.753157 238.3427 
L 197.476218 245.335287 
L 198.199279 240.311201 
L 198.922341 242.250322 
L 199.645402 239.694208 
L 200.368463 241.868374 
L 201.091525 240.575627 
L 201.814586 239.694208 
L 202.537647 241.927135 
L 203.260709 242.749793 
L 203.98377 240.22306 
L 204.706831 239.341641 
L 205.429893 238.195797 
L 206.876015 238.577745 
L 207.599077 238.313319 
L 208.322138 237.314378 
L 209.045199 238.078274 
L 209.768261 236.668005 
L 210.491322 236.168534 
L 211.214383 235.345877 
L 211.937445 233.729943 
L 212.660506 235.228355 
L 213.383568 235.287116 
L 214.106629 235.96287 
L 214.82969 236.43296 
L 215.552752 235.434019 
L 216.275813 235.757206 
L 216.998874 235.140213 
L 217.721936 235.345877 
L 218.444997 235.052071 
L 219.168058 235.904109 
L 219.89112 232.319674 
L 220.614181 233.847466 
L 221.337242 234.405697 
L 222.060304 233.759324 
L 222.783365 235.316496 
L 223.506426 235.110832 
L 224.229488 236.579863 
L 224.952549 235.316496 
L 225.67561 259.408602 
L 226.398672 259.731789 
L 227.121733 262.17038 
L 227.844794 258.145236 
L 228.567856 262.993038 
L 229.290917 258.997274 
L 230.013979 262.493567 
L 230.73704 253.56186 
L 231.460101 261.230201 
L 232.183163 258.086475 
L 232.906224 258.850371 
L 233.629285 256.999392 
L 234.352347 254.795846 
L 235.075408 253.473718 
L 235.798469 254.266994 
L 236.521531 256.117973 
L 237.244592 259.467364 
L 237.967653 255.97107 
L 238.690715 261.582768 
L 239.413776 258.439042 
L 240.136837 259.996215 
L 240.859899 252.063448 
L 241.58296 266.401189 
L 242.306021 259.320461 
L 243.029083 253.708763 
L 243.752144 256.088593 
L 244.475206 263.169321 
L 245.198267 255.50098 
L 245.921328 254.854607 
L 246.64439 258.32152 
L 247.367451 254.854607 
L 248.090512 256.499921 
L 248.813574 253.885046 
L 249.536635 256.676205 
L 250.259696 254.707704 
L 250.982758 257.675146 
L 251.705819 257.263817 
L 252.42888 253.56186 
L 253.151942 259.79055 
L 253.875003 257.528243 
L 254.598064 256.176735 
L 255.321126 253.473718 
L 256.044187 258.762229 
L 256.767248 256.411779 
L 257.49031 254.53142 
L 258.213371 253.150531 
L 258.936432 258.644706 
L 259.659494 253.796905 
L 260.382555 254.942749 
L 261.105617 254.472659 
L 261.828678 249.742379 
L 262.551739 249.830521 
L 263.274801 250.976365 
L 263.997862 259.614267 
L 264.720923 257.234437 
L 265.443985 250.653179 
L 266.167046 253.532479 
L 266.890107 251.064507 
L 267.613169 255.00151 
L 268.33623 252.180971 
L 269.059291 254.120091 
L 269.782353 254.149472 
L 270.505414 253.679382 
L 271.228475 255.207174 
L 271.951537 255.912309 
L 272.674598 252.386635 
L 273.397659 255.853548 
L 274.120721 255.148413 
L 274.843782 256.793727 
L 275.566843 248.919722 
L 276.289905 247.421311 
L 277.012966 254.737084 
L 277.736028 250.565037 
L 278.459089 256.353018 
L 279.18215 251.975306 
L 279.905212 252.533538 
L 280.628273 251.975306 
L 281.351334 249.77176 
L 282.074396 249.712999 
L 282.797457 258.086475 
L 283.520518 250.065566 
L 284.24358 247.186266 
L 284.966641 249.859902 
L 285.689702 254.883987 
L 286.412764 248.860961 
L 287.135825 254.355136 
L 287.858886 253.708763 
L 288.581948 254.795846 
L 289.305009 247.568214 
L 290.02807 248.508393 
L 290.751132 247.156885 
L 291.474193 249.683618 
L 292.197255 249.801141 
L 292.920316 249.125386 
L 293.643377 250.271231 
L 294.366439 249.918663 
L 295.0895 247.744497 
L 295.812561 253.59124 
L 296.535623 245.98166 
L 297.258684 245.394048 
L 297.981745 249.389812 
L 298.704807 247.215646 
L 299.427868 247.773878 
L 300.150929 247.773878 
L 300.873991 244.571391 
L 301.597052 242.455986 
L 302.320113 247.685736 
L 303.043175 246.980601 
L 303.766236 243.983778 
L 304.489297 245.834757 
L 305.212359 242.16218 
L 305.93542 249.654238 
L 306.658481 247.156885 
L 307.381543 247.509453 
L 308.104604 246.040422 
L 308.827666 240.840052 
L 309.550727 251.064507 
L 310.273788 244.600771 
L 310.99685 243.161121 
L 311.719911 240.281821 
L 312.442972 242.16218 
L 313.166034 244.894578 
L 313.889095 246.569273 
L 314.612156 241.545187 
L 315.335218 246.774937 
L 316.058279 245.834757 
L 316.78134 245.247145 
L 317.504402 241.457045 
L 318.227463 244.571391 
L 318.950524 244.777055 
L 319.673586 245.100242 
L 320.396647 240.840052 
L 321.84277 242.16218 
L 322.565831 241.163239 
L 323.288892 241.339523 
L 324.011954 237.40252 
L 324.735015 239.077215 
L 325.458077 236.873669 
L 326.181138 240.516866 
L 326.904199 238.577745 
L 327.627261 235.228355 
L 328.350322 238.518984 
L 329.073383 237.079333 
L 330.519506 239.517925 
L 331.242567 239.165357 
L 331.965629 235.698444 
L 332.68869 235.874728 
L 333.411751 235.198974 
L 334.857874 238.166416 
L 335.580935 236.286057 
L 336.303997 238.078274 
L 337.027058 243.337405 
L 337.750119 240.369963 
L 338.473181 242.1328 
L 339.196242 236.873669 
L 339.919304 237.725707 
L 340.642365 240.605008 
L 341.365426 240.046776 
L 342.088488 235.228355 
L 342.811549 238.548364 
L 343.53461 239.165357 
L 344.257672 237.666946 
L 344.980733 238.636506 
L 345.703794 240.076156 
L 346.426856 236.550482 
L 347.149917 240.281821 
L 347.872978 238.078274 
L 348.59604 237.196856 
L 349.319101 238.930312 
L 350.042162 239.28288 
L 350.765224 236.139154 
L 351.488285 236.93243 
L 352.211346 236.462341 
L 352.934408 239.106596 
L 353.657469 236.374199 
L 354.38053 238.137036 
L 355.103592 232.231532 
L 355.826653 236.227296 
L 356.549715 234.317556 
L 357.272776 233.054189 
L 358.718899 233.641801 
L 359.44196 232.231532 
L 360.165021 230.057366 
L 360.888083 229.881082 
L 361.611144 231.732061 
L 362.334205 234.141272 
L 363.057267 233.289234 
L 363.780328 232.966047 
L 364.503389 233.524279 
L 365.226451 234.817026 
L 365.949512 235.345877 
L 366.672573 231.085688 
L 367.395635 229.734179 
L 368.118696 234.288175 
L 368.841757 231.614539 
L 369.564819 232.907286 
L 370.28788 229.557896 
L 371.010941 230.057366 
L 371.734003 232.290293 
L 372.457064 230.527456 
L 373.180126 231.379494 
L 373.903187 228.177007 
L 374.626248 230.968165 
L 375.34931 230.380553 
L 376.072371 231.908345 
L 376.795432 231.056307 
L 377.518494 232.466577 
L 378.241555 232.14339 
L 378.964616 231.614539 
L 379.687678 234.728884 
L 380.410739 229.528515 
L 381.1338 234.317556 
L 381.856862 233.700563 
L 382.579923 234.346936 
L 383.302984 234.640742 
L 384.026046 235.169593 
L 384.749107 233.906227 
L 385.472168 234.581981 
L 386.19523 236.697385 
L 387.641353 236.550482 
L 388.364414 232.466577 
L 389.087475 233.964988 
L 389.810537 232.907286 
L 390.533598 235.4634 
L 391.256659 233.524279 
L 391.979721 235.198974 
L 392.702782 232.672241 
L 394.148905 231.614539 
L 394.871966 230.73312 
L 395.595027 232.378435 
L 396.318089 234.611362 
L 397.04115 233.11295 
L 397.764211 232.995428 
L 398.487273 233.935607 
L 398.487273 233.935607 
" clip-path="url(#p61b0403d46)" style="fill: none; stroke: #d62728; stroke-width: 1.5; stroke-linecap: square"/>
   </g>
   <g id="line2d_19">
    <path d="M 367.395635 81.508967 
L 368.118696 82.537288 
L 368.841757 81.479586 
L 370.28788 81.508967 
L 371.010941 80.333742 
L 371.734003 81.273922 
L 372.457064 81.65587 
L 373.180126 81.538347 
L 373.903187 81.861534 
L 374.626248 81.949676 
L 375.34931 81.714631 
L 376.072371 80.186839 
L 376.795432 80.069316 
L 377.518494 80.921354 
L 378.241555 81.450205 
L 378.964616 81.215161 
L 379.687678 81.303302 
L 380.410739 81.744012 
L 381.1338 81.773392 
L 381.856862 82.361005 
L 382.579923 82.096579 
L 383.302984 83.888797 
L 384.026046 80.980116 
L 384.749107 82.15534 
L 385.472168 81.714631 
L 386.19523 83.154281 
L 386.918291 83.183662 
L 387.641353 84.123842 
L 388.364414 83.976939 
L 389.087475 83.066139 
L 389.810537 81.861534 
L 390.533598 82.214102 
L 391.256659 83.976939 
L 391.979721 83.594991 
L 392.702782 83.036759 
L 393.425843 83.477468 
L 394.148905 82.742953 
L 394.871966 85.357828 
L 395.595027 84.270745 
L 396.318089 85.47535 
L 397.04115 83.859416 
L 397.764211 85.827917 
L 398.487273 85.122783 
L 398.487273 85.122783 
" clip-path="url(#p61b0403d46)" style="fill: none; stroke: #9467bd; stroke-width: 1.5; stroke-linecap: square"/>
   </g>
   <g id="line2d_20">
    <path d="M 367.395635 127.445055 
L 368.118696 126.827049 
L 368.841757 125.834186 
L 369.564819 126.138124 
L 370.28788 123.8282 
L 371.734003 127.455186 
L 372.457064 127.060067 
L 373.180126 128.083323 
L 373.903187 124.122006 
L 374.626248 124.729881 
L 375.34931 124.699487 
L 376.072371 123.250718 
L 376.795432 123.007568 
L 377.518494 124.203056 
L 378.241555 124.294237 
L 378.964616 123.352031 
L 379.687678 125.064212 
L 380.410739 126.300224 
L 381.1338 126.057074 
L 381.856862 126.087468 
L 382.579923 124.669093 
L 383.302984 125.905105 
L 384.026046 122.977175 
L 384.749107 126.482586 
L 385.472168 122.723894 
L 386.19523 122.956912 
L 386.918291 125.003424 
L 387.641353 126.644686 
L 388.364414 126.482586 
L 389.810537 123.909249 
L 390.533598 124.699487 
L 391.256659 123.159537 
L 391.979721 125.226312 
L 392.702782 124.628568 
L 393.425843 125.398543 
L 394.148905 124.010562 
L 394.871966 126.442061 
L 395.595027 125.043949 
L 396.318089 124.821062 
L 397.04115 126.786524 
L 397.764211 129.167367 
L 398.487273 126.634555 
L 398.487273 126.634555 
" clip-path="url(#p61b0403d46)" style="fill: none; stroke: #8c564b; stroke-width: 1.5; stroke-linecap: square"/>
   </g>
   <g id="line2d_21">
    <path d="M 367.395635 229.117186 
L 368.118696 227.912581 
L 368.841757 228.970283 
L 369.564819 230.26303 
L 370.28788 225.121422 
L 371.010941 230.556837 
L 371.734003 230.880023 
L 372.457064 225.356467 
L 373.180126 222.535928 
L 373.903187 223.681772 
L 374.626248 223.946198 
L 375.34931 223.182302 
L 376.072371 224.974519 
L 376.795432 224.269385 
L 377.518494 226.090983 
L 378.241555 225.062661 
L 378.964616 227.736297 
L 379.687678 229.29347 
L 380.410739 227.236827 
L 381.1338 224.416288 
L 381.856862 225.767796 
L 382.579923 226.120363 
L 383.302984 227.971342 
L 384.026046 225.47399 
L 384.749107 221.860174 
L 385.472168 225.0039 
L 386.19523 226.884259 
L 386.918291 226.737356 
L 387.641353 224.680713 
L 388.364414 228.999664 
L 389.087475 228.118245 
L 389.810537 221.65451 
L 390.533598 228.588335 
L 391.256659 229.499134 
L 391.979721 231.467636 
L 392.702782 226.120363 
L 393.425843 223.799295 
L 394.148905 224.53381 
L 394.871966 229.910463 
L 395.595027 234.346936 
L 396.318089 236.462341 
L 397.04115 228.35329 
L 397.764211 229.322851 
L 398.487273 230.909404 
L 398.487273 230.909404 
" clip-path="url(#p61b0403d46)" style="fill: none; stroke: #e377c2; stroke-width: 1.5; stroke-linecap: square"/>
   </g>
   <g id="patch_3">
    <path d="M 57.6 307.584 
L 57.6 41.472 
" style="fill: none; stroke: #000000; stroke-width: 0.8; stroke-linejoin: miter; stroke-linecap: square"/>
   </g>
   <g id="patch_4">
    <path d="M 414.72 307.584 
L 414.72 41.472 
" style="fill: none; stroke: #000000; stroke-width: 0.8; stroke-linejoin: miter; stroke-linecap: square"/>
   </g>
   <g id="patch_5">
    <path d="M 57.6 307.584 
L 414.72 307.584 
" style="fill: none; stroke: #000000; stroke-width: 0.8; stroke-linejoin: miter; stroke-linecap: square"/>
   </g>
   <g id="patch_6">
    <path d="M 57.6 41.472 
L 414.72 41.472 
" style="fill: none; stroke: #000000; stroke-width: 0.8; stroke-linejoin: miter; stroke-linecap: square"/>
   </g>
   <g id="text_17">
    <!-- Learning Curves -->
    <g transform="translate(187.37625 35.472) scale(0.12 -0.12)">
     <defs>
      <path id="DejaVuSans-4c" d="M 628 4666 
L 1259 4666 
L 1259 531 
L 3531 531 
L 3531 0 
L 628 0 
L 628 4666 
z
" transform="scale(0.015625)"/>
      <path id="DejaVuSans-65" d="M 3597 1894 
L 3597 1613 
L 953 1613 
Q 991 1019 1311 708 
Q 1631 397 2203 397 
Q 2534 397 2845 478 
Q 3156 559 3463 722 
L 3463 178 
Q 3153 47 2828 -22 
Q 2503 -91 2169 -91 
Q 1331 -91 842 396 
Q 353 884 353 1716 
Q 353 2575 817 3079 
Q 1281 3584 2069 3584 
Q 2775 3584 3186 3129 
Q 3597 2675 3597 1894 
z
M 3022 2063 
Q 3016 2534 2758 2815 
Q 2500 3097 2075 3097 
Q 1594 3097 1305 2825 
Q 1016 2553 972 2059 
L 3022 2063 
z
" transform="scale(0.015625)"/>
      <path id="DejaVuSans-6e" d="M 3513 2113 
L 3513 0 
L 2938 0 
L 2938 2094 
Q 2938 2591 2744 2837 
Q 2550 3084 2163 3084 
Q 1697 3084 1428 2787 
Q 1159 2491 1159 1978 
L 1159 0 
L 581 0 
L 581 3500 
L 1159 3500 
L 1159 2956 
Q 1366 3272 1645 3428 
Q 1925 3584 2291 3584 
Q 2894 3584 3203 3211 
Q 3513 2838 3513 2113 
z
" transform="scale(0.015625)"/>
      <path id="DejaVuSans-69" d="M 603 3500 
L 1178 3500 
L 1178 0 
L 603 0 
L 603 3500 
z
M 603 4863 
L 1178 4863 
L 1178 4134 
L 603 4134 
L 603 4863 
z
" transform="scale(0.015625)"/>
      <path id="DejaVuSans-67" d="M 2906 1791 
Q 2906 2416 2648 2759 
Q 2391 3103 1925 3103 
Q 1463 3103 1205 2759 
Q 947 2416 947 1791 
Q 947 1169 1205 825 
Q 1463 481 1925 481 
Q 2391 481 2648 825 
Q 2906 1169 2906 1791 
z
M 3481 434 
Q 3481 -459 3084 -895 
Q 2688 -1331 1869 -1331 
Q 1566 -1331 1297 -1286 
Q 1028 -1241 775 -1147 
L 775 -588 
Q 1028 -725 1275 -790 
Q 1522 -856 1778 -856 
Q 2344 -856 2625 -561 
Q 2906 -266 2906 331 
L 2906 616 
Q 2728 306 2450 153 
Q 2172 0 1784 0 
Q 1141 0 747 490 
Q 353 981 353 1791 
Q 353 2603 747 3093 
Q 1141 3584 1784 3584 
Q 2172 3584 2450 3431 
Q 2728 3278 2906 2969 
L 2906 3500 
L 3481 3500 
L 3481 434 
z
" transform="scale(0.015625)"/>
      <path id="DejaVuSans-20" transform="scale(0.015625)"/>
      <path id="DejaVuSans-43" d="M 4122 4306 
L 4122 3641 
Q 3803 3938 3442 4084 
Q 3081 4231 2675 4231 
Q 1875 4231 1450 3742 
Q 1025 3253 1025 2328 
Q 1025 1406 1450 917 
Q 1875 428 2675 428 
Q 3081 428 3442 575 
Q 3803 722 4122 1019 
L 4122 359 
Q 3791 134 3420 21 
Q 3050 -91 2638 -91 
Q 1578 -91 968 557 
Q 359 1206 359 2328 
Q 359 3453 968 4101 
Q 1578 4750 2638 4750 
Q 3056 4750 3426 4639 
Q 3797 4528 4122 4306 
z
" transform="scale(0.015625)"/>
      <path id="DejaVuSans-76" d="M 191 3500 
L 800 3500 
L 1894 563 
L 2988 3500 
L 3597 3500 
L 2284 0 
L 1503 0 
L 191 3500 
z
" transform="scale(0.015625)"/>
     </defs>
     <use xlink:href="#DejaVuSans-4c"/>
     <use xlink:href="#DejaVuSans-65" x="53.962891"/>
     <use xlink:href="#DejaVuSans-61" x="115.486328"/>
     <use xlink:href="#DejaVuSans-72" x="176.765625"/>
     <use xlink:href="#DejaVuSans-6e" x="216.128906"/>
     <use xlink:href="#DejaVuSans-69" x="279.507812"/>
     <use xlink:href="#DejaVuSans-6e" x="307.291016"/>
     <use xlink:href="#DejaVuSans-67" x="370.669922"/>
     <use xlink:href="#DejaVuSans-20" x="434.146484"/>
     <use xlink:href="#DejaVuSans-43" x="465.933594"/>
     <use xlink:href="#DejaVuSans-75" x="535.757812"/>
     <use xlink:href="#DejaVuSans-72" x="599.136719"/>
     <use xlink:href="#DejaVuSans-76" x="640.25"/>
     <use xlink:href="#DejaVuSans-65" x="699.429688"/>
     <use xlink:href="#DejaVuSans-73" x="760.953125"/>
    </g>
   </g>
   <g id="legend_1">
    <g id="patch_7">
     <path d="M 64.6 302.584 
L 280.028125 302.584 
Q 282.028125 302.584 282.028125 300.584 
L 282.028125 198.837125 
Q 282.028125 196.837125 280.028125 196.837125 
L 64.6 196.837125 
Q 62.6 196.837125 62.6 198.837125 
L 62.6 300.584 
Q 62.6 302.584 64.6 302.584 
z
" style="fill: #ffffff; opacity: 0.8; stroke: #cccccc; stroke-linejoin: miter"/>
    </g>
    <g id="line2d_22">
     <path d="M 66.6 204.935563 
L 76.6 204.935563 
L 86.6 204.935563 
" style="fill: none; stroke: #1f77b4; stroke-width: 1.5; stroke-linecap: square"/>
    </g>
    <g id="text_18">
     <!-- Train Accuracy -->
     <g transform="translate(94.6 208.435563) scale(0.1 -0.1)">
      <defs>
       <path id="DejaVuSans-54" d="M -19 4666 
L 3928 4666 
L 3928 4134 
L 2272 4134 
L 2272 0 
L 1638 0 
L 1638 4134 
L -19 4134 
L -19 4666 
z
" transform="scale(0.015625)"/>
      </defs>
      <use xlink:href="#DejaVuSans-54"/>
      <use xlink:href="#DejaVuSans-72" x="46.333984"/>
      <use xlink:href="#DejaVuSans-61" x="87.447266"/>
      <use xlink:href="#DejaVuSans-69" x="148.726562"/>
      <use xlink:href="#DejaVuSans-6e" x="176.509766"/>
      <use xlink:href="#DejaVuSans-20" x="239.888672"/>
      <use xlink:href="#DejaVuSans-41" x="271.675781"/>
      <use xlink:href="#DejaVuSans-63" x="338.333984"/>
      <use xlink:href="#DejaVuSans-63" x="393.314453"/>
      <use xlink:href="#DejaVuSans-75" x="448.294922"/>
      <use xlink:href="#DejaVuSans-72" x="511.673828"/>
      <use xlink:href="#DejaVuSans-61" x="552.787109"/>
      <use xlink:href="#DejaVuSans-63" x="614.066406"/>
      <use xlink:href="#DejaVuSans-79" x="669.046875"/>
     </g>
    </g>
    <g id="line2d_23">
     <path d="M 66.6 219.613688 
L 76.6 219.613688 
L 86.6 219.613688 
" style="fill: none; stroke: #ff7f0e; stroke-width: 1.5; stroke-linecap: square"/>
    </g>
    <g id="text_19">
     <!-- Validation Accuracy -->
     <g transform="translate(94.6 223.113688) scale(0.1 -0.1)">
      <defs>
       <path id="DejaVuSans-56" d="M 1831 0 
L 50 4666 
L 709 4666 
L 2188 738 
L 3669 4666 
L 4325 4666 
L 2547 0 
L 1831 0 
z
" transform="scale(0.015625)"/>
       <path id="DejaVuSans-6c" d="M 603 4863 
L 1178 4863 
L 1178 0 
L 603 0 
L 603 4863 
z
" transform="scale(0.015625)"/>
       <path id="DejaVuSans-64" d="M 2906 2969 
L 2906 4863 
L 3481 4863 
L 3481 0 
L 2906 0 
L 2906 525 
Q 2725 213 2448 61 
Q 2172 -91 1784 -91 
Q 1150 -91 751 415 
Q 353 922 353 1747 
Q 353 2572 751 3078 
Q 1150 3584 1784 3584 
Q 2172 3584 2448 3432 
Q 2725 3281 2906 2969 
z
M 947 1747 
Q 947 1113 1208 752 
Q 1469 391 1925 391 
Q 2381 391 2643 752 
Q 2906 1113 2906 1747 
Q 2906 2381 2643 2742 
Q 2381 3103 1925 3103 
Q 1469 3103 1208 2742 
Q 947 2381 947 1747 
z
" transform="scale(0.015625)"/>
       <path id="DejaVuSans-74" d="M 1172 4494 
L 1172 3500 
L 2356 3500 
L 2356 3053 
L 1172 3053 
L 1172 1153 
Q 1172 725 1289 603 
Q 1406 481 1766 481 
L 2356 481 
L 2356 0 
L 1766 0 
Q 1100 0 847 248 
Q 594 497 594 1153 
L 594 3053 
L 172 3053 
L 172 3500 
L 594 3500 
L 594 4494 
L 1172 4494 
z
" transform="scale(0.015625)"/>
      </defs>
      <use xlink:href="#DejaVuSans-56"/>
      <use xlink:href="#DejaVuSans-61" x="60.658203"/>
      <use xlink:href="#DejaVuSans-6c" x="121.9375"/>
      <use xlink:href="#DejaVuSans-69" x="149.720703"/>
      <use xlink:href="#DejaVuSans-64" x="177.503906"/>
      <use xlink:href="#DejaVuSans-61" x="240.980469"/>
      <use xlink:href="#DejaVuSans-74" x="302.259766"/>
      <use xlink:href="#DejaVuSans-69" x="341.46875"/>
      <use xlink:href="#DejaVuSans-6f" x="369.251953"/>
      <use xlink:href="#DejaVuSans-6e" x="430.433594"/>
      <use xlink:href="#DejaVuSans-20" x="493.8125"/>
      <use xlink:href="#DejaVuSans-41" x="525.599609"/>
      <use xlink:href="#DejaVuSans-63" x="592.257812"/>
      <use xlink:href="#DejaVuSans-63" x="647.238281"/>
      <use xlink:href="#DejaVuSans-75" x="702.21875"/>
      <use xlink:href="#DejaVuSans-72" x="765.597656"/>
      <use xlink:href="#DejaVuSans-61" x="806.710938"/>
      <use xlink:href="#DejaVuSans-63" x="867.990234"/>
      <use xlink:href="#DejaVuSans-79" x="922.970703"/>
     </g>
    </g>
    <g id="line2d_24">
     <path d="M 66.6 234.291812 
L 76.6 234.291812 
L 86.6 234.291812 
" style="fill: none; stroke: #2ca02c; stroke-width: 1.5; stroke-linecap: square"/>
    </g>
    <g id="text_20">
     <!-- Robust Validation Accuracy -->
     <g transform="translate(94.6 237.791812) scale(0.1 -0.1)">
      <defs>
       <path id="DejaVuSans-52" d="M 2841 2188 
Q 3044 2119 3236 1894 
Q 3428 1669 3622 1275 
L 4263 0 
L 3584 0 
L 2988 1197 
Q 2756 1666 2539 1819 
Q 2322 1972 1947 1972 
L 1259 1972 
L 1259 0 
L 628 0 
L 628 4666 
L 2053 4666 
Q 2853 4666 3247 4331 
Q 3641 3997 3641 3322 
Q 3641 2881 3436 2590 
Q 3231 2300 2841 2188 
z
M 1259 4147 
L 1259 2491 
L 2053 2491 
Q 2509 2491 2742 2702 
Q 2975 2913 2975 3322 
Q 2975 3731 2742 3939 
Q 2509 4147 2053 4147 
L 1259 4147 
z
" transform="scale(0.015625)"/>
       <path id="DejaVuSans-62" d="M 3116 1747 
Q 3116 2381 2855 2742 
Q 2594 3103 2138 3103 
Q 1681 3103 1420 2742 
Q 1159 2381 1159 1747 
Q 1159 1113 1420 752 
Q 1681 391 2138 391 
Q 2594 391 2855 752 
Q 3116 1113 3116 1747 
z
M 1159 2969 
Q 1341 3281 1617 3432 
Q 1894 3584 2278 3584 
Q 2916 3584 3314 3078 
Q 3713 2572 3713 1747 
Q 3713 922 3314 415 
Q 2916 -91 2278 -91 
Q 1894 -91 1617 61 
Q 1341 213 1159 525 
L 1159 0 
L 581 0 
L 581 4863 
L 1159 4863 
L 1159 2969 
z
" transform="scale(0.015625)"/>
      </defs>
      <use xlink:href="#DejaVuSans-52"/>
      <use xlink:href="#DejaVuSans-6f" x="64.982422"/>
      <use xlink:href="#DejaVuSans-62" x="126.164062"/>
      <use xlink:href="#DejaVuSans-75" x="189.640625"/>
      <use xlink:href="#DejaVuSans-73" x="253.019531"/>
      <use xlink:href="#DejaVuSans-74" x="305.119141"/>
      <use xlink:href="#DejaVuSans-20" x="344.328125"/>
      <use xlink:href="#DejaVuSans-56" x="376.115234"/>
      <use xlink:href="#DejaVuSans-61" x="436.773438"/>
      <use xlink:href="#DejaVuSans-6c" x="498.052734"/>
      <use xlink:href="#DejaVuSans-69" x="525.835938"/>
      <use xlink:href="#DejaVuSans-64" x="553.619141"/>
      <use xlink:href="#DejaVuSans-61" x="617.095703"/>
      <use xlink:href="#DejaVuSans-74" x="678.375"/>
      <use xlink:href="#DejaVuSans-69" x="717.583984"/>
      <use xlink:href="#DejaVuSans-6f" x="745.367188"/>
      <use xlink:href="#DejaVuSans-6e" x="806.548828"/>
      <use xlink:href="#DejaVuSans-20" x="869.927734"/>
      <use xlink:href="#DejaVuSans-41" x="901.714844"/>
      <use xlink:href="#DejaVuSans-63" x="968.373047"/>
      <use xlink:href="#DejaVuSans-63" x="1023.353516"/>
      <use xlink:href="#DejaVuSans-75" x="1078.333984"/>
      <use xlink:href="#DejaVuSans-72" x="1141.712891"/>
      <use xlink:href="#DejaVuSans-61" x="1182.826172"/>
      <use xlink:href="#DejaVuSans-63" x="1244.105469"/>
      <use xlink:href="#DejaVuSans-79" x="1299.085938"/>
     </g>
    </g>
    <g id="line2d_25">
     <path d="M 66.6 248.969938 
L 76.6 248.969938 
L 86.6 248.969938 
" style="fill: none; stroke: #d62728; stroke-width: 1.5; stroke-linecap: square"/>
    </g>
    <g id="text_21">
     <!-- Adversarial Validation Accuracy -->
     <g transform="translate(94.6 252.469938) scale(0.1 -0.1)">
      <use xlink:href="#DejaVuSans-41"/>
      <use xlink:href="#DejaVuSans-64" x="66.658203"/>
      <use xlink:href="#DejaVuSans-76" x="130.134766"/>
      <use xlink:href="#DejaVuSans-65" x="189.314453"/>
      <use xlink:href="#DejaVuSans-72" x="250.837891"/>
      <use xlink:href="#DejaVuSans-73" x="291.951172"/>
      <use xlink:href="#DejaVuSans-61" x="344.050781"/>
      <use xlink:href="#DejaVuSans-72" x="405.330078"/>
      <use xlink:href="#DejaVuSans-69" x="446.443359"/>
      <use xlink:href="#DejaVuSans-61" x="474.226562"/>
      <use xlink:href="#DejaVuSans-6c" x="535.505859"/>
      <use xlink:href="#DejaVuSans-20" x="563.289062"/>
      <use xlink:href="#DejaVuSans-56" x="595.076172"/>
      <use xlink:href="#DejaVuSans-61" x="655.734375"/>
      <use xlink:href="#DejaVuSans-6c" x="717.013672"/>
      <use xlink:href="#DejaVuSans-69" x="744.796875"/>
      <use xlink:href="#DejaVuSans-64" x="772.580078"/>
      <use xlink:href="#DejaVuSans-61" x="836.056641"/>
      <use xlink:href="#DejaVuSans-74" x="897.335938"/>
      <use xlink:href="#DejaVuSans-69" x="936.544922"/>
      <use xlink:href="#DejaVuSans-6f" x="964.328125"/>
      <use xlink:href="#DejaVuSans-6e" x="1025.509766"/>
      <use xlink:href="#DejaVuSans-20" x="1088.888672"/>
      <use xlink:href="#DejaVuSans-41" x="1120.675781"/>
      <use xlink:href="#DejaVuSans-63" x="1187.333984"/>
      <use xlink:href="#DejaVuSans-63" x="1242.314453"/>
      <use xlink:href="#DejaVuSans-75" x="1297.294922"/>
      <use xlink:href="#DejaVuSans-72" x="1360.673828"/>
      <use xlink:href="#DejaVuSans-61" x="1401.787109"/>
      <use xlink:href="#DejaVuSans-63" x="1463.066406"/>
      <use xlink:href="#DejaVuSans-79" x="1518.046875"/>
     </g>
    </g>
    <g id="line2d_26">
     <path d="M 66.6 263.648063 
L 76.6 263.648063 
L 86.6 263.648063 
" style="fill: none; stroke: #9467bd; stroke-width: 1.5; stroke-linecap: square"/>
    </g>
    <g id="text_22">
     <!-- SWA Validation Accuracy -->
     <g transform="translate(94.6 267.148063) scale(0.1 -0.1)">
      <defs>
       <path id="DejaVuSans-53" d="M 3425 4513 
L 3425 3897 
Q 3066 4069 2747 4153 
Q 2428 4238 2131 4238 
Q 1616 4238 1336 4038 
Q 1056 3838 1056 3469 
Q 1056 3159 1242 3001 
Q 1428 2844 1947 2747 
L 2328 2669 
Q 3034 2534 3370 2195 
Q 3706 1856 3706 1288 
Q 3706 609 3251 259 
Q 2797 -91 1919 -91 
Q 1588 -91 1214 -16 
Q 841 59 441 206 
L 441 856 
Q 825 641 1194 531 
Q 1563 422 1919 422 
Q 2459 422 2753 634 
Q 3047 847 3047 1241 
Q 3047 1584 2836 1778 
Q 2625 1972 2144 2069 
L 1759 2144 
Q 1053 2284 737 2584 
Q 422 2884 422 3419 
Q 422 4038 858 4394 
Q 1294 4750 2059 4750 
Q 2388 4750 2728 4690 
Q 3069 4631 3425 4513 
z
" transform="scale(0.015625)"/>
       <path id="DejaVuSans-57" d="M 213 4666 
L 850 4666 
L 1831 722 
L 2809 4666 
L 3519 4666 
L 4500 722 
L 5478 4666 
L 6119 4666 
L 4947 0 
L 4153 0 
L 3169 4050 
L 2175 0 
L 1381 0 
L 213 4666 
z
" transform="scale(0.015625)"/>
      </defs>
      <use xlink:href="#DejaVuSans-53"/>
      <use xlink:href="#DejaVuSans-57" x="63.476562"/>
      <use xlink:href="#DejaVuSans-41" x="156.853516"/>
      <use xlink:href="#DejaVuSans-20" x="225.261719"/>
      <use xlink:href="#DejaVuSans-56" x="257.048828"/>
      <use xlink:href="#DejaVuSans-61" x="317.707031"/>
      <use xlink:href="#DejaVuSans-6c" x="378.986328"/>
      <use xlink:href="#DejaVuSans-69" x="406.769531"/>
      <use xlink:href="#DejaVuSans-64" x="434.552734"/>
      <use xlink:href="#DejaVuSans-61" x="498.029297"/>
      <use xlink:href="#DejaVuSans-74" x="559.308594"/>
      <use xlink:href="#DejaVuSans-69" x="598.517578"/>
      <use xlink:href="#DejaVuSans-6f" x="626.300781"/>
      <use xlink:href="#DejaVuSans-6e" x="687.482422"/>
      <use xlink:href="#DejaVuSans-20" x="750.861328"/>
      <use xlink:href="#DejaVuSans-41" x="782.648438"/>
      <use xlink:href="#DejaVuSans-63" x="849.306641"/>
      <use xlink:href="#DejaVuSans-63" x="904.287109"/>
      <use xlink:href="#DejaVuSans-75" x="959.267578"/>
      <use xlink:href="#DejaVuSans-72" x="1022.646484"/>
      <use xlink:href="#DejaVuSans-61" x="1063.759766"/>
      <use xlink:href="#DejaVuSans-63" x="1125.039062"/>
      <use xlink:href="#DejaVuSans-79" x="1180.019531"/>
     </g>
    </g>
    <g id="line2d_27">
     <path d="M 66.6 278.326188 
L 76.6 278.326188 
L 86.6 278.326188 
" style="fill: none; stroke: #8c564b; stroke-width: 1.5; stroke-linecap: square"/>
    </g>
    <g id="text_23">
     <!-- SWA Robust Validation Accuracy -->
     <g transform="translate(94.6 281.826188) scale(0.1 -0.1)">
      <use xlink:href="#DejaVuSans-53"/>
      <use xlink:href="#DejaVuSans-57" x="63.476562"/>
      <use xlink:href="#DejaVuSans-41" x="156.853516"/>
      <use xlink:href="#DejaVuSans-20" x="225.261719"/>
      <use xlink:href="#DejaVuSans-52" x="257.048828"/>
      <use xlink:href="#DejaVuSans-6f" x="322.03125"/>
      <use xlink:href="#DejaVuSans-62" x="383.212891"/>
      <use xlink:href="#DejaVuSans-75" x="446.689453"/>
      <use xlink:href="#DejaVuSans-73" x="510.068359"/>
      <use xlink:href="#DejaVuSans-74" x="562.167969"/>
      <use xlink:href="#DejaVuSans-20" x="601.376953"/>
      <use xlink:href="#DejaVuSans-56" x="633.164062"/>
      <use xlink:href="#DejaVuSans-61" x="693.822266"/>
      <use xlink:href="#DejaVuSans-6c" x="755.101562"/>
      <use xlink:href="#DejaVuSans-69" x="782.884766"/>
      <use xlink:href="#DejaVuSans-64" x="810.667969"/>
      <use xlink:href="#DejaVuSans-61" x="874.144531"/>
      <use xlink:href="#DejaVuSans-74" x="935.423828"/>
      <use xlink:href="#DejaVuSans-69" x="974.632812"/>
      <use xlink:href="#DejaVuSans-6f" x="1002.416016"/>
      <use xlink:href="#DejaVuSans-6e" x="1063.597656"/>
      <use xlink:href="#DejaVuSans-20" x="1126.976562"/>
      <use xlink:href="#DejaVuSans-41" x="1158.763672"/>
      <use xlink:href="#DejaVuSans-63" x="1225.421875"/>
      <use xlink:href="#DejaVuSans-63" x="1280.402344"/>
      <use xlink:href="#DejaVuSans-75" x="1335.382812"/>
      <use xlink:href="#DejaVuSans-72" x="1398.761719"/>
      <use xlink:href="#DejaVuSans-61" x="1439.875"/>
      <use xlink:href="#DejaVuSans-63" x="1501.154297"/>
      <use xlink:href="#DejaVuSans-79" x="1556.134766"/>
     </g>
    </g>
    <g id="line2d_28">
     <path d="M 66.6 293.004312 
L 76.6 293.004312 
L 86.6 293.004312 
" style="fill: none; stroke: #e377c2; stroke-width: 1.5; stroke-linecap: square"/>
    </g>
    <g id="text_24">
     <!-- SWA Adversarial Validation Accuracy -->
     <g transform="translate(94.6 296.504312) scale(0.1 -0.1)">
      <use xlink:href="#DejaVuSans-53"/>
      <use xlink:href="#DejaVuSans-57" x="63.476562"/>
      <use xlink:href="#DejaVuSans-41" x="156.853516"/>
      <use xlink:href="#DejaVuSans-20" x="225.261719"/>
      <use xlink:href="#DejaVuSans-41" x="257.048828"/>
      <use xlink:href="#DejaVuSans-64" x="323.707031"/>
      <use xlink:href="#DejaVuSans-76" x="387.183594"/>
      <use xlink:href="#DejaVuSans-65" x="446.363281"/>
      <use xlink:href="#DejaVuSans-72" x="507.886719"/>
      <use xlink:href="#DejaVuSans-73" x="549"/>
      <use xlink:href="#DejaVuSans-61" x="601.099609"/>
      <use xlink:href="#DejaVuSans-72" x="662.378906"/>
      <use xlink:href="#DejaVuSans-69" x="703.492188"/>
      <use xlink:href="#DejaVuSans-61" x="731.275391"/>
      <use xlink:href="#DejaVuSans-6c" x="792.554688"/>
      <use xlink:href="#DejaVuSans-20" x="820.337891"/>
      <use xlink:href="#DejaVuSans-56" x="852.125"/>
      <use xlink:href="#DejaVuSans-61" x="912.783203"/>
      <use xlink:href="#DejaVuSans-6c" x="974.0625"/>
      <use xlink:href="#DejaVuSans-69" x="1001.845703"/>
      <use xlink:href="#DejaVuSans-64" x="1029.628906"/>
      <use xlink:href="#DejaVuSans-61" x="1093.105469"/>
      <use xlink:href="#DejaVuSans-74" x="1154.384766"/>
      <use xlink:href="#DejaVuSans-69" x="1193.59375"/>
      <use xlink:href="#DejaVuSans-6f" x="1221.376953"/>
      <use xlink:href="#DejaVuSans-6e" x="1282.558594"/>
      <use xlink:href="#DejaVuSans-20" x="1345.9375"/>
      <use xlink:href="#DejaVuSans-41" x="1377.724609"/>
      <use xlink:href="#DejaVuSans-63" x="1444.382812"/>
      <use xlink:href="#DejaVuSans-63" x="1499.363281"/>
      <use xlink:href="#DejaVuSans-75" x="1554.34375"/>
      <use xlink:href="#DejaVuSans-72" x="1617.722656"/>
      <use xlink:href="#DejaVuSans-61" x="1658.835938"/>
      <use xlink:href="#DejaVuSans-63" x="1720.115234"/>
      <use xlink:href="#DejaVuSans-79" x="1775.095703"/>
     </g>
    </g>
   </g>
  </g>
 </g>
 <defs>
  <clipPath id="p61b0403d46">
   <rect x="57.6" y="41.472" width="357.12" height="266.112"/>
  </clipPath>
 </defs>
</svg>
