<?xml version="1.0" encoding="utf-8" standalone="no"?>
<!DOCTYPE svg PUBLIC "-//W3C//DTD SVG 1.1//EN"
  "http://www.w3.org/Graphics/SVG/1.1/DTD/svg11.dtd">
<svg height="345.6pt" version="1.1" viewBox="0 0 460.8 345.6" width="460.8pt" xmlns="http://www.w3.org/2000/svg" xmlns:xlink="http://www.w3.org/1999/xlink">
 <metadata>
  <rdf:RDF xmlns:cc="http://creativecommons.org/ns#" xmlns:dc="http://purl.org/dc/elements/1.1/" xmlns:rdf="http://www.w3.org/1999/02/22-rdf-syntax-ns#">
   <cc:Work>
    <dc:type rdf:resource="http://purl.org/dc/dcmitype/StillImage"/>
    <dc:date>2024-01-27T06:07:12.141404</dc:date>
    <dc:format>image/svg+xml</dc:format>
    <dc:creator>
     <cc:Agent>
      <dc:title>Matplotlib v3.4.3, https://matplotlib.org/</dc:title>
     </cc:Agent>
    </dc:creator>
   </cc:Work>
  </rdf:RDF>
 </metadata>
 <defs>
  <style type="text/css">*{stroke-linecap:butt;stroke-linejoin:round;}</style>
 </defs>
 <g id="figure_1">
  <g id="patch_1">
   <path d="M 0 345.6 
L 460.8 345.6 
L 460.8 0 
L 0 0 
z
" style="fill:#ffffff;"/>
  </g>
  <g id="axes_1">
   <g id="patch_2">
    <path d="M 57.6 307.584 
L 414.72 307.584 
L 414.72 41.472 
L 57.6 41.472 
z
" style="fill:#ffffff;"/>
   </g>
   <g id="matplotlib.axis_1">
    <g id="xtick_1">
     <g id="line2d_1">
      <defs>
       <path d="M 0 0 
L 0 3.5 
" id="m52be6b73d6" style="stroke:#000000;stroke-width:0.8;"/>
      </defs>
      <g>
       <use style="stroke:#000000;stroke-width:0.8;" x="73.832727" xlink:href="#m52be6b73d6" y="307.584"/>
      </g>
     </g>
     <g id="text_1">
      <!-- 1 -->
      <g transform="translate(70.651477 322.182437)scale(0.1 -0.1)">
       <defs>
        <path d="M 794 531 
L 1825 531 
L 1825 4091 
L 703 3866 
L 703 4441 
L 1819 4666 
L 2450 4666 
L 2450 531 
L 3481 531 
L 3481 0 
L 794 0 
L 794 531 
z
" id="DejaVuSans-31" transform="scale(0.015625)"/>
       </defs>
       <use xlink:href="#DejaVuSans-31"/>
      </g>
     </g>
    </g>
    <g id="xtick_2">
     <g id="line2d_2">
      <g>
       <use style="stroke:#000000;stroke-width:0.8;" x="109.710992" xlink:href="#m52be6b73d6" y="307.584"/>
      </g>
     </g>
     <g id="text_2">
      <!-- 42 -->
      <g transform="translate(103.348492 322.182437)scale(0.1 -0.1)">
       <defs>
        <path d="M 2419 4116 
L 825 1625 
L 2419 1625 
L 2419 4116 
z
M 2253 4666 
L 3047 4666 
L 3047 1625 
L 3713 1625 
L 3713 1100 
L 3047 1100 
L 3047 0 
L 2419 0 
L 2419 1100 
L 313 1100 
L 313 1709 
L 2253 4666 
z
" id="DejaVuSans-34" transform="scale(0.015625)"/>
        <path d="M 1228 531 
L 3431 531 
L 3431 0 
L 469 0 
L 469 531 
Q 828 903 1448 1529 
Q 2069 2156 2228 2338 
Q 2531 2678 2651 2914 
Q 2772 3150 2772 3378 
Q 2772 3750 2511 3984 
Q 2250 4219 1831 4219 
Q 1534 4219 1204 4116 
Q 875 4013 500 3803 
L 500 4441 
Q 881 4594 1212 4672 
Q 1544 4750 1819 4750 
Q 2544 4750 2975 4387 
Q 3406 4025 3406 3419 
Q 3406 3131 3298 2873 
Q 3191 2616 2906 2266 
Q 2828 2175 2409 1742 
Q 1991 1309 1228 531 
z
" id="DejaVuSans-32" transform="scale(0.015625)"/>
       </defs>
       <use xlink:href="#DejaVuSans-34"/>
       <use x="63.623047" xlink:href="#DejaVuSans-32"/>
      </g>
     </g>
    </g>
    <g id="xtick_3">
     <g id="line2d_3">
      <g>
       <use style="stroke:#000000;stroke-width:0.8;" x="145.589258" xlink:href="#m52be6b73d6" y="307.584"/>
      </g>
     </g>
     <g id="text_3">
      <!-- 83 -->
      <g transform="translate(139.226758 322.182437)scale(0.1 -0.1)">
       <defs>
        <path d="M 2034 2216 
Q 1584 2216 1326 1975 
Q 1069 1734 1069 1313 
Q 1069 891 1326 650 
Q 1584 409 2034 409 
Q 2484 409 2743 651 
Q 3003 894 3003 1313 
Q 3003 1734 2745 1975 
Q 2488 2216 2034 2216 
z
M 1403 2484 
Q 997 2584 770 2862 
Q 544 3141 544 3541 
Q 544 4100 942 4425 
Q 1341 4750 2034 4750 
Q 2731 4750 3128 4425 
Q 3525 4100 3525 3541 
Q 3525 3141 3298 2862 
Q 3072 2584 2669 2484 
Q 3125 2378 3379 2068 
Q 3634 1759 3634 1313 
Q 3634 634 3220 271 
Q 2806 -91 2034 -91 
Q 1263 -91 848 271 
Q 434 634 434 1313 
Q 434 1759 690 2068 
Q 947 2378 1403 2484 
z
M 1172 3481 
Q 1172 3119 1398 2916 
Q 1625 2713 2034 2713 
Q 2441 2713 2670 2916 
Q 2900 3119 2900 3481 
Q 2900 3844 2670 4047 
Q 2441 4250 2034 4250 
Q 1625 4250 1398 4047 
Q 1172 3844 1172 3481 
z
" id="DejaVuSans-38" transform="scale(0.015625)"/>
        <path d="M 2597 2516 
Q 3050 2419 3304 2112 
Q 3559 1806 3559 1356 
Q 3559 666 3084 287 
Q 2609 -91 1734 -91 
Q 1441 -91 1130 -33 
Q 819 25 488 141 
L 488 750 
Q 750 597 1062 519 
Q 1375 441 1716 441 
Q 2309 441 2620 675 
Q 2931 909 2931 1356 
Q 2931 1769 2642 2001 
Q 2353 2234 1838 2234 
L 1294 2234 
L 1294 2753 
L 1863 2753 
Q 2328 2753 2575 2939 
Q 2822 3125 2822 3475 
Q 2822 3834 2567 4026 
Q 2313 4219 1838 4219 
Q 1578 4219 1281 4162 
Q 984 4106 628 3988 
L 628 4550 
Q 988 4650 1302 4700 
Q 1616 4750 1894 4750 
Q 2613 4750 3031 4423 
Q 3450 4097 3450 3541 
Q 3450 3153 3228 2886 
Q 3006 2619 2597 2516 
z
" id="DejaVuSans-33" transform="scale(0.015625)"/>
       </defs>
       <use xlink:href="#DejaVuSans-38"/>
       <use x="63.623047" xlink:href="#DejaVuSans-33"/>
      </g>
     </g>
    </g>
    <g id="xtick_4">
     <g id="line2d_4">
      <g>
       <use style="stroke:#000000;stroke-width:0.8;" x="181.467523" xlink:href="#m52be6b73d6" y="307.584"/>
      </g>
     </g>
     <g id="text_4">
      <!-- 124 -->
      <g transform="translate(171.923773 322.182437)scale(0.1 -0.1)">
       <use xlink:href="#DejaVuSans-31"/>
       <use x="63.623047" xlink:href="#DejaVuSans-32"/>
       <use x="127.246094" xlink:href="#DejaVuSans-34"/>
      </g>
     </g>
    </g>
    <g id="xtick_5">
     <g id="line2d_5">
      <g>
       <use style="stroke:#000000;stroke-width:0.8;" x="217.345788" xlink:href="#m52be6b73d6" y="307.584"/>
      </g>
     </g>
     <g id="text_5">
      <!-- 165 -->
      <g transform="translate(207.802038 322.182437)scale(0.1 -0.1)">
       <defs>
        <path d="M 2113 2584 
Q 1688 2584 1439 2293 
Q 1191 2003 1191 1497 
Q 1191 994 1439 701 
Q 1688 409 2113 409 
Q 2538 409 2786 701 
Q 3034 994 3034 1497 
Q 3034 2003 2786 2293 
Q 2538 2584 2113 2584 
z
M 3366 4563 
L 3366 3988 
Q 3128 4100 2886 4159 
Q 2644 4219 2406 4219 
Q 1781 4219 1451 3797 
Q 1122 3375 1075 2522 
Q 1259 2794 1537 2939 
Q 1816 3084 2150 3084 
Q 2853 3084 3261 2657 
Q 3669 2231 3669 1497 
Q 3669 778 3244 343 
Q 2819 -91 2113 -91 
Q 1303 -91 875 529 
Q 447 1150 447 2328 
Q 447 3434 972 4092 
Q 1497 4750 2381 4750 
Q 2619 4750 2861 4703 
Q 3103 4656 3366 4563 
z
" id="DejaVuSans-36" transform="scale(0.015625)"/>
        <path d="M 691 4666 
L 3169 4666 
L 3169 4134 
L 1269 4134 
L 1269 2991 
Q 1406 3038 1543 3061 
Q 1681 3084 1819 3084 
Q 2600 3084 3056 2656 
Q 3513 2228 3513 1497 
Q 3513 744 3044 326 
Q 2575 -91 1722 -91 
Q 1428 -91 1123 -41 
Q 819 9 494 109 
L 494 744 
Q 775 591 1075 516 
Q 1375 441 1709 441 
Q 2250 441 2565 725 
Q 2881 1009 2881 1497 
Q 2881 1984 2565 2268 
Q 2250 2553 1709 2553 
Q 1456 2553 1204 2497 
Q 953 2441 691 2322 
L 691 4666 
z
" id="DejaVuSans-35" transform="scale(0.015625)"/>
       </defs>
       <use xlink:href="#DejaVuSans-31"/>
       <use x="63.623047" xlink:href="#DejaVuSans-36"/>
       <use x="127.246094" xlink:href="#DejaVuSans-35"/>
      </g>
     </g>
    </g>
    <g id="xtick_6">
     <g id="line2d_6">
      <g>
       <use style="stroke:#000000;stroke-width:0.8;" x="254.099133" xlink:href="#m52be6b73d6" y="307.584"/>
      </g>
     </g>
     <g id="text_6">
      <!-- 207 -->
      <g transform="translate(244.555383 322.182437)scale(0.1 -0.1)">
       <defs>
        <path d="M 2034 4250 
Q 1547 4250 1301 3770 
Q 1056 3291 1056 2328 
Q 1056 1369 1301 889 
Q 1547 409 2034 409 
Q 2525 409 2770 889 
Q 3016 1369 3016 2328 
Q 3016 3291 2770 3770 
Q 2525 4250 2034 4250 
z
M 2034 4750 
Q 2819 4750 3233 4129 
Q 3647 3509 3647 2328 
Q 3647 1150 3233 529 
Q 2819 -91 2034 -91 
Q 1250 -91 836 529 
Q 422 1150 422 2328 
Q 422 3509 836 4129 
Q 1250 4750 2034 4750 
z
" id="DejaVuSans-30" transform="scale(0.015625)"/>
        <path d="M 525 4666 
L 3525 4666 
L 3525 4397 
L 1831 0 
L 1172 0 
L 2766 4134 
L 525 4134 
L 525 4666 
z
" id="DejaVuSans-37" transform="scale(0.015625)"/>
       </defs>
       <use xlink:href="#DejaVuSans-32"/>
       <use x="63.623047" xlink:href="#DejaVuSans-30"/>
       <use x="127.246094" xlink:href="#DejaVuSans-37"/>
      </g>
     </g>
    </g>
    <g id="xtick_7">
     <g id="line2d_7">
      <g>
       <use style="stroke:#000000;stroke-width:0.8;" x="289.977398" xlink:href="#m52be6b73d6" y="307.584"/>
      </g>
     </g>
     <g id="text_7">
      <!-- 248 -->
      <g transform="translate(280.433648 322.182437)scale(0.1 -0.1)">
       <use xlink:href="#DejaVuSans-32"/>
       <use x="63.623047" xlink:href="#DejaVuSans-34"/>
       <use x="127.246094" xlink:href="#DejaVuSans-38"/>
      </g>
     </g>
    </g>
    <g id="xtick_8">
     <g id="line2d_8">
      <g>
       <use style="stroke:#000000;stroke-width:0.8;" x="325.855663" xlink:href="#m52be6b73d6" y="307.584"/>
      </g>
     </g>
     <g id="text_8">
      <!-- 289 -->
      <g transform="translate(316.311913 322.182437)scale(0.1 -0.1)">
       <defs>
        <path d="M 703 97 
L 703 672 
Q 941 559 1184 500 
Q 1428 441 1663 441 
Q 2288 441 2617 861 
Q 2947 1281 2994 2138 
Q 2813 1869 2534 1725 
Q 2256 1581 1919 1581 
Q 1219 1581 811 2004 
Q 403 2428 403 3163 
Q 403 3881 828 4315 
Q 1253 4750 1959 4750 
Q 2769 4750 3195 4129 
Q 3622 3509 3622 2328 
Q 3622 1225 3098 567 
Q 2575 -91 1691 -91 
Q 1453 -91 1209 -44 
Q 966 3 703 97 
z
M 1959 2075 
Q 2384 2075 2632 2365 
Q 2881 2656 2881 3163 
Q 2881 3666 2632 3958 
Q 2384 4250 1959 4250 
Q 1534 4250 1286 3958 
Q 1038 3666 1038 3163 
Q 1038 2656 1286 2365 
Q 1534 2075 1959 2075 
z
" id="DejaVuSans-39" transform="scale(0.015625)"/>
       </defs>
       <use xlink:href="#DejaVuSans-32"/>
       <use x="63.623047" xlink:href="#DejaVuSans-38"/>
       <use x="127.246094" xlink:href="#DejaVuSans-39"/>
      </g>
     </g>
    </g>
    <g id="xtick_9">
     <g id="line2d_9">
      <g>
       <use style="stroke:#000000;stroke-width:0.8;" x="361.733928" xlink:href="#m52be6b73d6" y="307.584"/>
      </g>
     </g>
     <g id="text_9">
      <!-- 330 -->
      <g transform="translate(352.190178 322.182437)scale(0.1 -0.1)">
       <use xlink:href="#DejaVuSans-33"/>
       <use x="63.623047" xlink:href="#DejaVuSans-33"/>
       <use x="127.246094" xlink:href="#DejaVuSans-30"/>
      </g>
     </g>
    </g>
    <g id="xtick_10">
     <g id="line2d_10">
      <g>
       <use style="stroke:#000000;stroke-width:0.8;" x="398.487273" xlink:href="#m52be6b73d6" y="307.584"/>
      </g>
     </g>
     <g id="text_10">
      <!-- 372 -->
      <g transform="translate(388.943523 322.182437)scale(0.1 -0.1)">
       <use xlink:href="#DejaVuSans-33"/>
       <use x="63.623047" xlink:href="#DejaVuSans-37"/>
       <use x="127.246094" xlink:href="#DejaVuSans-32"/>
      </g>
     </g>
    </g>
    <g id="text_11">
     <!-- Epochs -->
     <g transform="translate(218.244375 335.860562)scale(0.1 -0.1)">
      <defs>
       <path d="M 628 4666 
L 3578 4666 
L 3578 4134 
L 1259 4134 
L 1259 2753 
L 3481 2753 
L 3481 2222 
L 1259 2222 
L 1259 531 
L 3634 531 
L 3634 0 
L 628 0 
L 628 4666 
z
" id="DejaVuSans-45" transform="scale(0.015625)"/>
       <path d="M 1159 525 
L 1159 -1331 
L 581 -1331 
L 581 3500 
L 1159 3500 
L 1159 2969 
Q 1341 3281 1617 3432 
Q 1894 3584 2278 3584 
Q 2916 3584 3314 3078 
Q 3713 2572 3713 1747 
Q 3713 922 3314 415 
Q 2916 -91 2278 -91 
Q 1894 -91 1617 61 
Q 1341 213 1159 525 
z
M 3116 1747 
Q 3116 2381 2855 2742 
Q 2594 3103 2138 3103 
Q 1681 3103 1420 2742 
Q 1159 2381 1159 1747 
Q 1159 1113 1420 752 
Q 1681 391 2138 391 
Q 2594 391 2855 752 
Q 3116 1113 3116 1747 
z
" id="DejaVuSans-70" transform="scale(0.015625)"/>
       <path d="M 1959 3097 
Q 1497 3097 1228 2736 
Q 959 2375 959 1747 
Q 959 1119 1226 758 
Q 1494 397 1959 397 
Q 2419 397 2687 759 
Q 2956 1122 2956 1747 
Q 2956 2369 2687 2733 
Q 2419 3097 1959 3097 
z
M 1959 3584 
Q 2709 3584 3137 3096 
Q 3566 2609 3566 1747 
Q 3566 888 3137 398 
Q 2709 -91 1959 -91 
Q 1206 -91 779 398 
Q 353 888 353 1747 
Q 353 2609 779 3096 
Q 1206 3584 1959 3584 
z
" id="DejaVuSans-6f" transform="scale(0.015625)"/>
       <path d="M 3122 3366 
L 3122 2828 
Q 2878 2963 2633 3030 
Q 2388 3097 2138 3097 
Q 1578 3097 1268 2742 
Q 959 2388 959 1747 
Q 959 1106 1268 751 
Q 1578 397 2138 397 
Q 2388 397 2633 464 
Q 2878 531 3122 666 
L 3122 134 
Q 2881 22 2623 -34 
Q 2366 -91 2075 -91 
Q 1284 -91 818 406 
Q 353 903 353 1747 
Q 353 2603 823 3093 
Q 1294 3584 2113 3584 
Q 2378 3584 2631 3529 
Q 2884 3475 3122 3366 
z
" id="DejaVuSans-63" transform="scale(0.015625)"/>
       <path d="M 3513 2113 
L 3513 0 
L 2938 0 
L 2938 2094 
Q 2938 2591 2744 2837 
Q 2550 3084 2163 3084 
Q 1697 3084 1428 2787 
Q 1159 2491 1159 1978 
L 1159 0 
L 581 0 
L 581 4863 
L 1159 4863 
L 1159 2956 
Q 1366 3272 1645 3428 
Q 1925 3584 2291 3584 
Q 2894 3584 3203 3211 
Q 3513 2838 3513 2113 
z
" id="DejaVuSans-68" transform="scale(0.015625)"/>
       <path d="M 2834 3397 
L 2834 2853 
Q 2591 2978 2328 3040 
Q 2066 3103 1784 3103 
Q 1356 3103 1142 2972 
Q 928 2841 928 2578 
Q 928 2378 1081 2264 
Q 1234 2150 1697 2047 
L 1894 2003 
Q 2506 1872 2764 1633 
Q 3022 1394 3022 966 
Q 3022 478 2636 193 
Q 2250 -91 1575 -91 
Q 1294 -91 989 -36 
Q 684 19 347 128 
L 347 722 
Q 666 556 975 473 
Q 1284 391 1588 391 
Q 1994 391 2212 530 
Q 2431 669 2431 922 
Q 2431 1156 2273 1281 
Q 2116 1406 1581 1522 
L 1381 1569 
Q 847 1681 609 1914 
Q 372 2147 372 2553 
Q 372 3047 722 3315 
Q 1072 3584 1716 3584 
Q 2034 3584 2315 3537 
Q 2597 3491 2834 3397 
z
" id="DejaVuSans-73" transform="scale(0.015625)"/>
      </defs>
      <use xlink:href="#DejaVuSans-45"/>
      <use x="63.183594" xlink:href="#DejaVuSans-70"/>
      <use x="126.660156" xlink:href="#DejaVuSans-6f"/>
      <use x="187.841797" xlink:href="#DejaVuSans-63"/>
      <use x="242.822266" xlink:href="#DejaVuSans-68"/>
      <use x="306.201172" xlink:href="#DejaVuSans-73"/>
     </g>
    </g>
   </g>
   <g id="matplotlib.axis_2">
    <g id="ytick_1">
     <g id="line2d_11">
      <defs>
       <path d="M 0 0 
L -3.5 0 
" id="m7e91a22c60" style="stroke:#000000;stroke-width:0.8;"/>
      </defs>
      <g>
       <use style="stroke:#000000;stroke-width:0.8;" x="57.6" xlink:href="#m7e91a22c60" y="279.383116"/>
      </g>
     </g>
     <g id="text_12">
      <!-- 10 -->
      <g transform="translate(37.875 283.182335)scale(0.1 -0.1)">
       <use xlink:href="#DejaVuSans-31"/>
       <use x="63.623047" xlink:href="#DejaVuSans-30"/>
      </g>
     </g>
    </g>
    <g id="ytick_2">
     <g id="line2d_12">
      <g>
       <use style="stroke:#000000;stroke-width:0.8;" x="57.6" xlink:href="#m7e91a22c60" y="248.424093"/>
      </g>
     </g>
     <g id="text_13">
      <!-- 20 -->
      <g transform="translate(37.875 252.223312)scale(0.1 -0.1)">
       <use xlink:href="#DejaVuSans-32"/>
       <use x="63.623047" xlink:href="#DejaVuSans-30"/>
      </g>
     </g>
    </g>
    <g id="ytick_3">
     <g id="line2d_13">
      <g>
       <use style="stroke:#000000;stroke-width:0.8;" x="57.6" xlink:href="#m7e91a22c60" y="217.465069"/>
      </g>
     </g>
     <g id="text_14">
      <!-- 30 -->
      <g transform="translate(37.875 221.264288)scale(0.1 -0.1)">
       <use xlink:href="#DejaVuSans-33"/>
       <use x="63.623047" xlink:href="#DejaVuSans-30"/>
      </g>
     </g>
    </g>
    <g id="ytick_4">
     <g id="line2d_14">
      <g>
       <use style="stroke:#000000;stroke-width:0.8;" x="57.6" xlink:href="#m7e91a22c60" y="186.506046"/>
      </g>
     </g>
     <g id="text_15">
      <!-- 40 -->
      <g transform="translate(37.875 190.305265)scale(0.1 -0.1)">
       <use xlink:href="#DejaVuSans-34"/>
       <use x="63.623047" xlink:href="#DejaVuSans-30"/>
      </g>
     </g>
    </g>
    <g id="ytick_5">
     <g id="line2d_15">
      <g>
       <use style="stroke:#000000;stroke-width:0.8;" x="57.6" xlink:href="#m7e91a22c60" y="155.547023"/>
      </g>
     </g>
     <g id="text_16">
      <!-- 50 -->
      <g transform="translate(37.875 159.346242)scale(0.1 -0.1)">
       <use xlink:href="#DejaVuSans-35"/>
       <use x="63.623047" xlink:href="#DejaVuSans-30"/>
      </g>
     </g>
    </g>
    <g id="ytick_6">
     <g id="line2d_16">
      <g>
       <use style="stroke:#000000;stroke-width:0.8;" x="57.6" xlink:href="#m7e91a22c60" y="124.587999"/>
      </g>
     </g>
     <g id="text_17">
      <!-- 60 -->
      <g transform="translate(37.875 128.387218)scale(0.1 -0.1)">
       <use xlink:href="#DejaVuSans-36"/>
       <use x="63.623047" xlink:href="#DejaVuSans-30"/>
      </g>
     </g>
    </g>
    <g id="ytick_7">
     <g id="line2d_17">
      <g>
       <use style="stroke:#000000;stroke-width:0.8;" x="57.6" xlink:href="#m7e91a22c60" y="93.628976"/>
      </g>
     </g>
     <g id="text_18">
      <!-- 70 -->
      <g transform="translate(37.875 97.428195)scale(0.1 -0.1)">
       <use xlink:href="#DejaVuSans-37"/>
       <use x="63.623047" xlink:href="#DejaVuSans-30"/>
      </g>
     </g>
    </g>
    <g id="ytick_8">
     <g id="line2d_18">
      <g>
       <use style="stroke:#000000;stroke-width:0.8;" x="57.6" xlink:href="#m7e91a22c60" y="62.669953"/>
      </g>
     </g>
     <g id="text_19">
      <!-- 80 -->
      <g transform="translate(37.875 66.469172)scale(0.1 -0.1)">
       <use xlink:href="#DejaVuSans-38"/>
       <use x="63.623047" xlink:href="#DejaVuSans-30"/>
      </g>
     </g>
    </g>
    <g id="text_20">
     <!-- Accuracy -->
     <g transform="translate(31.795312 197.356125)rotate(-90)scale(0.1 -0.1)">
      <defs>
       <path d="M 2188 4044 
L 1331 1722 
L 3047 1722 
L 2188 4044 
z
M 1831 4666 
L 2547 4666 
L 4325 0 
L 3669 0 
L 3244 1197 
L 1141 1197 
L 716 0 
L 50 0 
L 1831 4666 
z
" id="DejaVuSans-41" transform="scale(0.015625)"/>
       <path d="M 544 1381 
L 544 3500 
L 1119 3500 
L 1119 1403 
Q 1119 906 1312 657 
Q 1506 409 1894 409 
Q 2359 409 2629 706 
Q 2900 1003 2900 1516 
L 2900 3500 
L 3475 3500 
L 3475 0 
L 2900 0 
L 2900 538 
Q 2691 219 2414 64 
Q 2138 -91 1772 -91 
Q 1169 -91 856 284 
Q 544 659 544 1381 
z
M 1991 3584 
L 1991 3584 
z
" id="DejaVuSans-75" transform="scale(0.015625)"/>
       <path d="M 2631 2963 
Q 2534 3019 2420 3045 
Q 2306 3072 2169 3072 
Q 1681 3072 1420 2755 
Q 1159 2438 1159 1844 
L 1159 0 
L 581 0 
L 581 3500 
L 1159 3500 
L 1159 2956 
Q 1341 3275 1631 3429 
Q 1922 3584 2338 3584 
Q 2397 3584 2469 3576 
Q 2541 3569 2628 3553 
L 2631 2963 
z
" id="DejaVuSans-72" transform="scale(0.015625)"/>
       <path d="M 2194 1759 
Q 1497 1759 1228 1600 
Q 959 1441 959 1056 
Q 959 750 1161 570 
Q 1363 391 1709 391 
Q 2188 391 2477 730 
Q 2766 1069 2766 1631 
L 2766 1759 
L 2194 1759 
z
M 3341 1997 
L 3341 0 
L 2766 0 
L 2766 531 
Q 2569 213 2275 61 
Q 1981 -91 1556 -91 
Q 1019 -91 701 211 
Q 384 513 384 1019 
Q 384 1609 779 1909 
Q 1175 2209 1959 2209 
L 2766 2209 
L 2766 2266 
Q 2766 2663 2505 2880 
Q 2244 3097 1772 3097 
Q 1472 3097 1187 3025 
Q 903 2953 641 2809 
L 641 3341 
Q 956 3463 1253 3523 
Q 1550 3584 1831 3584 
Q 2591 3584 2966 3190 
Q 3341 2797 3341 1997 
z
" id="DejaVuSans-61" transform="scale(0.015625)"/>
       <path d="M 2059 -325 
Q 1816 -950 1584 -1140 
Q 1353 -1331 966 -1331 
L 506 -1331 
L 506 -850 
L 844 -850 
Q 1081 -850 1212 -737 
Q 1344 -625 1503 -206 
L 1606 56 
L 191 3500 
L 800 3500 
L 1894 763 
L 2988 3500 
L 3597 3500 
L 2059 -325 
z
" id="DejaVuSans-79" transform="scale(0.015625)"/>
      </defs>
      <use xlink:href="#DejaVuSans-41"/>
      <use x="66.658203" xlink:href="#DejaVuSans-63"/>
      <use x="121.638672" xlink:href="#DejaVuSans-63"/>
      <use x="176.619141" xlink:href="#DejaVuSans-75"/>
      <use x="239.998047" xlink:href="#DejaVuSans-72"/>
      <use x="281.111328" xlink:href="#DejaVuSans-61"/>
      <use x="342.390625" xlink:href="#DejaVuSans-63"/>
      <use x="397.371094" xlink:href="#DejaVuSans-79"/>
     </g>
    </g>
   </g>
   <g id="line2d_19">
    <path clip-path="url(#p31b48f1cae)" d="M 73.832727 295.488 
L 75.582887 279.085909 
L 76.457966 272.052019 
L 77.333046 262.20705 
L 78.208125 254.665432 
L 79.083205 248.473627 
L 79.958285 240.046581 
L 80.833364 233.873352 
L 81.708444 228.492674 
L 82.583524 224.232712 
L 83.458603 218.994445 
L 84.333683 245.365341 
L 85.208763 236.857802 
L 86.083842 233.006499 
L 86.958922 223.663066 
L 87.834001 225.291511 
L 88.709081 216.276243 
L 89.584161 214.957389 
L 90.45924 208.920379 
L 91.33432 205.917354 
L 92.2094 205.824477 
L 93.084479 196.282906 
L 93.959559 192.468754 
L 94.834639 197.385047 
L 95.709718 185.738262 
L 96.584798 181.280163 
L 97.459877 175.992362 
L 98.334957 179.48454 
L 99.210037 174.890221 
L 100.085116 177.11927 
L 100.960196 177.986123 
L 101.835276 162.859544 
L 102.710355 166.240269 
L 103.585435 162.240364 
L 104.460515 160.51285 
L 105.335594 192.895989 
L 106.210674 188.877507 
L 107.085753 185.905441 
L 107.960833 187.533886 
L 108.835913 185.515357 
L 109.710992 184.091242 
L 110.586072 181.936494 
L 111.461152 179.013962 
L 112.336231 173.385612 
L 113.211311 175.602278 
L 114.086391 171.874812 
L 114.96147 164.983333 
L 115.83655 168.079235 
L 116.71163 164.135056 
L 117.586709 165.21243 
L 118.461789 161.484963 
L 119.336868 159.373558 
L 120.211948 153.800934 
L 121.087028 157.73273 
L 121.962107 156.178587 
L 122.837187 152.191065 
L 123.712267 151.175609 
L 124.587346 155.906147 
L 125.462426 153.225096 
L 126.337506 147.627705 
L 127.212585 139.126357 
L 128.087665 142.860015 
L 128.962744 142.129382 
L 129.837824 137.83227 
L 130.712904 135.095492 
L 131.587983 133.590883 
L 132.463063 137.411227 
L 133.338143 120.037023 
L 134.213222 133.083155 
L 135.088302 127.708669 
L 135.963382 112.85453 
L 136.838461 113.065051 
L 137.713541 126.482692 
L 138.58862 122.043168 
L 139.4637 120.33423 
L 140.33878 118.210441 
L 141.213859 117.733672 
L 142.088939 110.916495 
L 142.964019 119.7522 
L 143.839098 117.962768 
L 144.714178 118.947265 
L 145.589258 117.41789 
L 146.464337 107.158069 
L 147.339417 150.878402 
L 148.214496 155.107405 
L 149.089576 152.531614 
L 150.839735 148.314995 
L 151.714815 153.776167 
L 152.589895 146.44507 
L 153.464974 144.519419 
L 154.340054 134.742559 
L 155.215134 136.154291 
L 156.090213 150.054892 
L 156.965293 139.03348 
L 157.840372 138.977754 
L 158.715452 134.191489 
L 159.590532 143.671141 
L 160.465611 135.491768 
L 161.340691 141.398749 
L 162.215771 133.863323 
L 163.09085 139.807455 
L 163.96593 139.646468 
L 164.84101 142.39563 
L 165.716089 132.439208 
L 166.591169 130.83553 
L 167.466248 136.680594 
L 168.341328 126.606528 
L 169.216408 130.166815 
L 170.966567 121.659276 
L 171.841647 128.05541 
L 172.716726 119.417843 
L 173.591806 125.027618 
L 174.466886 128.693166 
L 175.341965 119.300198 
L 176.217045 120.33423 
L 177.092124 121.002945 
L 177.967204 107.059 
L 178.842284 118.736744 
L 179.717363 126.111183 
L 180.592443 123.151501 
L 181.467523 122.501361 
L 182.342602 108.730788 
L 183.217682 119.504528 
L 184.092762 114.482974 
L 184.967841 118.798662 
L 185.842921 116.879203 
L 186.718 111.801923 
L 187.59308 111.424223 
L 188.46816 112.953599 
L 189.343239 110.650247 
L 190.218319 106.532697 
L 191.093399 106.662725 
L 191.968478 103.684467 
L 192.843558 105.133349 
L 193.718638 110.148711 
L 194.593717 108.761747 
L 195.468797 108.514075 
L 196.343877 94.84257 
L 197.218956 101.597829 
L 198.094036 98.916777 
L 198.969115 103.802111 
L 199.844195 92.23582 
L 200.719275 93.64136 
L 201.594354 95.994246 
L 202.469434 95.672272 
L 203.344514 97.944664 
L 204.219593 97.721759 
L 205.094673 100.836237 
L 205.969753 94.991173 
L 206.844832 89.975811 
L 207.719912 88.972739 
L 209.470071 85.876837 
L 210.345151 97.065428 
L 211.22023 87.325719 
L 212.09531 88.824136 
L 212.97039 87.988242 
L 213.845469 90.780746 
L 214.720549 79.790293 
L 215.595629 89.238987 
L 216.470708 83.016223 
L 217.345788 88.105886 
L 218.220867 78.149465 
L 219.095947 83.059566 
L 219.971027 85.040943 
L 220.846106 79.245414 
L 221.721186 80.836708 
L 222.596266 83.734472 
L 223.471345 77.455982 
L 224.346425 88.229723 
L 225.221505 84.985217 
L 226.096584 86.731306 
L 226.971664 90.780746 
L 227.846743 72.64495 
L 228.721823 79.23303 
L 229.596903 91.560913 
L 230.471982 96.006629 
L 231.347062 120.074174 
L 232.222142 117.646986 
L 233.097221 119.3745 
L 233.972301 125.293865 
L 235.72246 112.58209 
L 236.59754 117.845124 
L 237.472619 120.321846 
L 238.347699 121.715002 
L 239.222779 115.356019 
L 240.097858 111.455182 
L 240.972938 106.322176 
L 241.848018 121.293959 
L 242.723097 116.786326 
L 243.598177 123.256761 
L 244.473257 112.2725 
L 245.348336 113.052667 
L 246.223416 110.613096 
L 247.098495 111.461374 
L 247.973575 111.374688 
L 248.848655 120.309462 
L 249.723734 103.6597 
L 250.598814 111.783347 
L 251.473894 117.114491 
L 252.348973 109.009419 
L 253.224053 113.653272 
L 254.099133 117.114491 
L 254.974212 110.483068 
L 255.849292 113.207463 
L 256.724371 107.387166 
L 257.599451 114.024781 
L 258.474531 107.492427 
L 259.34961 104.712307 
L 260.22469 112.130089 
L 261.09977 109.467613 
L 261.974849 110.662631 
L 262.849929 117.486 
L 263.725009 108.97846 
L 264.600088 104.959979 
L 265.475168 104.699923 
L 266.350247 106.526505 
L 267.225327 111.176551 
L 268.100407 106.761794 
L 268.975486 96.130465 
L 269.850566 111.628552 
L 270.725646 101.913611 
L 271.600725 93.70947 
L 272.475805 99.610259 
L 273.350885 102.167475 
L 274.225964 107.882511 
L 275.101044 91.418502 
L 275.976123 94.898296 
L 276.851203 102.49564 
L 277.726283 106.922781 
L 278.601362 103.430603 
L 279.476442 97.604115 
L 280.351522 103.412028 
L 281.226601 95.616545 
L 282.976761 101.882652 
L 283.85184 89.653838 
L 284.72692 95.851834 
L 285.602 94.749693 
L 286.477079 98.539077 
L 287.352159 96.093314 
L 288.227238 94.198622 
L 289.102318 87.325719 
L 289.977398 94.229581 
L 290.852477 88.972739 
L 291.727557 103.059095 
L 292.602637 101.139635 
L 293.477716 87.821063 
L 294.352796 93.294619 
L 295.227876 94.371993 
L 296.102955 101.486376 
L 296.978035 84.638476 
L 297.853114 92.012915 
L 298.728194 88.087311 
L 299.603274 97.740334 
L 300.478353 89.492851 
L 301.353433 93.907607 
L 302.228513 92.44015 
L 303.103592 95.158352 
L 303.978672 90.619759 
L 304.853752 90.27921 
L 305.728831 89.530001 
L 306.603911 89.721947 
L 307.47899 90.297785 
L 308.35407 103.096246 
L 309.22915 92.855001 
L 310.104229 92.848809 
L 310.979309 93.077906 
L 311.854389 87.932516 
L 312.729468 83.746856 
L 313.604548 91.059377 
L 314.479628 77.146392 
L 315.354707 87.530049 
L 316.229787 83.697321 
L 317.104866 81.15249 
L 317.979946 86.706539 
L 318.855026 78.47763 
L 319.730105 84.904723 
L 320.605185 85.44341 
L 321.480265 85.622973 
L 322.355344 82.093644 
L 323.230424 88.093503 
L 324.105504 84.062638 
L 324.980583 74.36008 
L 325.855663 85.653932 
L 326.730742 77.623161 
L 327.605822 83.944994 
L 328.480902 79.276373 
L 329.355981 77.96371 
L 331.106141 89.647646 
L 331.98122 78.137081 
L 332.8563 81.15249 
L 333.73138 72.001002 
L 334.606459 90.638335 
L 335.481539 73.096952 
L 336.356618 74.168134 
L 337.231698 78.551932 
L 338.106778 74.756356 
L 338.981857 79.57358 
L 339.856937 88.440244 
L 340.732017 72.762594 
L 341.607096 72.805937 
L 342.482176 73.994764 
L 343.357256 71.096999 
L 344.232335 74.706821 
L 345.107415 74.774931 
L 345.982494 71.592343 
L 346.857574 71.344671 
L 347.732654 70.366366 
L 348.607733 72.762594 
L 349.482813 80.440432 
L 350.357893 69.251841 
L 351.232972 77.579818 
L 352.108052 75.586057 
L 352.983132 69.821487 
L 353.858211 72.316785 
L 354.733291 77.815107 
L 355.60837 69.654309 
L 356.48345 72.824513 
L 357.35853 68.651236 
L 358.233609 75.239316 
L 359.108689 67.555287 
L 359.983769 74.143367 
L 360.858848 59.227309 
L 361.733928 68.911292 
L 362.609008 74.818274 
L 363.484087 77.808915 
L 364.359167 71.722371 
L 365.234247 72.446812 
L 366.109326 77.914176 
L 366.984406 80.39709 
L 367.859485 76.205238 
L 368.734565 66.88038 
L 369.609645 68.186851 
L 370.484724 75.394111 
L 371.359804 69.171348 
L 372.234884 76.836802 
L 373.109963 70.936012 
L 373.985043 67.134244 
L 374.860123 65.363388 
L 375.735202 65.54295 
L 376.610282 62.094115 
L 377.485361 61.56162 
L 378.360441 66.304542 
L 379.235521 67.877261 
L 380.1106 59.84649 
L 380.98568 62.998119 
L 381.86076 78.99155 
L 382.735839 71.840016 
L 383.610919 67.629588 
L 384.485999 71.06604 
L 385.361078 60.861946 
L 386.236158 70.403517 
L 387.111237 64.632755 
L 387.986317 64.781358 
L 388.861397 69.524281 
L 389.736476 69.654309 
L 390.611556 59.1592 
L 391.486636 72.880239 
L 392.361715 64.515111 
L 393.236795 63.877355 
L 394.111875 67.152819 
L 394.986954 73.957613 
L 395.862034 57.75366 
L 396.737113 65.134291 
L 397.612193 62.026005 
L 398.487273 61.821676 
L 398.487273 61.821676 
" style="fill:none;stroke:#1f77b4;stroke-linecap:square;stroke-width:1.5;"/>
   </g>
   <g id="line2d_20">
    <path clip-path="url(#p31b48f1cae)" d="M 73.832727 285.636839 
L 74.707807 279.785583 
L 75.582887 264.956211 
L 76.457966 247.773953 
L 77.333046 238.393369 
L 78.208125 232.604032 
L 79.083205 205.638723 
L 79.958285 214.92643 
L 80.833364 190.716473 
L 81.708444 180.809586 
L 82.583524 177.280257 
L 83.458603 173.007912 
L 84.333683 246.969019 
L 85.208763 211.42806 
L 86.083842 194.679228 
L 86.958922 200.128016 
L 87.834001 188.797014 
L 88.709081 198.177598 
L 89.584161 167.280493 
L 90.45924 168.487895 
L 91.33432 156.444834 
L 92.2094 162.450885 
L 93.084479 165.670623 
L 93.959559 151.491391 
L 94.834639 145.051914 
L 95.709718 137.312158 
L 96.584798 133.411321 
L 97.459877 124.309368 
L 98.334957 125.176221 
L 99.210037 118.55099 
L 100.085116 117.746055 
L 100.960196 111.956718 
L 101.835276 105.393405 
L 102.710355 107.77725 
L 103.585435 105.5482 
L 104.460515 103.96929 
L 105.335594 165.051443 
L 106.210674 140.09847 
L 107.085753 143.132454 
L 107.960833 143.689717 
L 108.835913 126.507459 
L 109.710992 135.640371 
L 110.586072 124.866631 
L 111.461152 122.792376 
L 112.336231 130.625009 
L 113.211311 130.036788 
L 114.086391 121.70881 
L 114.96147 114.588235 
L 115.83655 116.383858 
L 116.71163 116.97208 
L 117.586709 110.811234 
L 118.461789 107.065192 
L 119.336868 106.105463 
L 120.211948 99.913658 
L 121.087028 99.418314 
L 121.962107 100.718593 
L 122.837187 95.672272 
L 123.712267 96.074739 
L 124.587346 92.019107 
L 125.462426 91.802394 
L 126.337506 90.130607 
L 127.212585 87.901557 
L 128.087665 89.232795 
L 128.962744 84.465105 
L 129.837824 84.217433 
L 130.712904 81.183449 
L 131.587983 78.768645 
L 132.463063 81.988383 
L 133.338143 80.007006 
L 134.213222 76.818227 
L 135.088302 78.830563 
L 135.963382 75.610825 
L 136.838461 72.948349 
L 137.713541 73.474652 
L 138.58862 73.722324 
L 139.4637 71.338479 
L 140.33878 70.192996 
L 141.213859 68.737921 
L 142.088939 69.542856 
L 142.964019 69.790528 
L 144.714178 68.45929 
L 145.589258 69.573815 
L 146.464337 68.304495 
L 147.339417 121.584974 
L 148.214496 103.96929 
L 149.089576 100.316125 
L 149.964656 101.802158 
L 150.839735 108.984652 
L 151.714815 99.789822 
L 152.589895 97.467895 
L 153.464974 93.567058 
L 154.340054 96.291452 
L 155.215134 98.118035 
L 156.090213 90.564033 
L 156.965293 87.932516 
L 157.840372 95.796108 
L 158.715452 95.053091 
L 159.590532 86.570319 
L 160.465611 90.068688 
L 161.340691 89.047041 
L 162.215771 85.517712 
L 163.09085 85.177163 
L 163.96593 90.533074 
L 165.716089 83.443458 
L 166.591169 80.8429 
L 167.466248 83.938802 
L 168.341328 84.217433 
L 169.216408 86.663196 
L 170.091487 85.455794 
L 170.966567 79.263989 
L 171.841647 80.254678 
L 172.716726 80.161801 
L 173.591806 80.904818 
L 174.466886 80.409473 
L 175.341965 75.270275 
L 176.217045 77.468366 
L 177.092124 78.180424 
L 177.967204 81.926465 
L 178.842284 77.065899 
L 179.717363 74.898767 
L 180.592443 74.279587 
L 181.467523 78.242342 
L 182.342602 78.428096 
L 183.217682 73.505611 
L 184.092762 71.493275 
L 184.967841 75.703702 
L 185.842921 74.651095 
L 186.718 72.545881 
L 187.59308 74.434382 
L 188.46816 71.183684 
L 189.343239 70.316832 
L 190.218319 69.635733 
L 191.093399 72.26725 
L 191.968478 70.347791 
L 192.843558 69.511897 
L 193.718638 70.905053 
L 194.593717 67.375724 
L 195.468797 67.18997 
L 197.218956 66.075445 
L 198.094036 66.323118 
L 198.969115 68.087782 
L 199.844195 65.30147 
L 200.719275 67.809151 
L 201.594354 65.332429 
L 202.469434 66.663667 
L 203.344514 67.097093 
L 204.219593 64.465576 
L 205.094673 64.403658 
L 205.969753 63.629683 
L 206.844832 63.691601 
L 207.719912 62.329404 
L 208.594991 61.555428 
L 209.470071 62.577076 
L 210.345151 60.967207 
L 211.22023 60.688575 
L 212.09531 61.400633 
L 212.97039 61.369674 
L 214.720549 59.728846 
L 215.595629 60.038436 
L 216.470708 60.502821 
L 217.345788 60.069395 
L 218.220867 59.945559 
L 219.095947 58.088017 
L 219.971027 59.016788 
L 220.846106 58.459526 
L 221.721186 58.64528 
L 222.596266 59.140624 
L 223.471345 59.109665 
L 225.221505 58.33569 
L 226.096584 58.831034 
L 226.971664 58.057058 
L 227.846743 58.676239 
L 229.596903 58.366649 
L 230.471982 58.521444 
L 231.347062 89.944852 
L 232.222142 90.904582 
L 233.097221 82.607564 
L 233.972301 86.84895 
L 234.847381 89.944852 
L 235.72246 89.170877 
L 236.59754 86.941827 
L 237.472619 88.706491 
L 238.347699 79.635498 
L 239.222779 94.217198 
L 240.097858 83.226744 
L 240.972938 85.177163 
L 241.848018 79.914129 
L 242.723097 77.499325 
L 243.598177 83.195785 
L 244.473257 79.016317 
L 246.223416 82.700441 
L 247.098495 78.644809 
L 248.848655 80.904818 
L 249.723734 82.236056 
L 250.598814 80.347555 
L 251.473894 81.493039 
L 252.348973 80.50235 
L 253.224053 77.34453 
L 254.099133 81.46208 
L 254.974212 82.452769 
L 255.849292 76.353841 
L 256.724371 76.353841 
L 257.599451 81.493039 
L 258.474531 78.490014 
L 259.34961 77.746997 
L 260.22469 85.362917 
L 261.09977 78.61385 
L 261.974849 75.486989 
L 262.849929 79.821252 
L 263.725009 73.877119 
L 264.600088 79.57358 
L 265.475168 75.084521 
L 266.350247 76.106169 
L 267.225327 76.632472 
L 268.100407 76.973022 
L 268.975486 75.858497 
L 269.850566 76.849186 
L 270.725646 78.92344 
L 271.600725 76.942063 
L 272.475805 80.471391 
L 273.350885 75.579866 
L 274.225964 74.867808 
L 275.101044 76.849186 
L 275.976123 75.332193 
L 276.851203 75.76562 
L 277.726283 74.093832 
L 278.601362 77.685079 
L 279.476442 75.982333 
L 280.351522 73.629447 
L 281.226601 71.740947 
L 282.101681 73.84616 
L 283.85184 75.177398 
L 284.72692 78.706727 
L 285.602 74.836849 
L 286.477079 76.508636 
L 287.352159 72.453004 
L 288.227238 73.84616 
L 289.102318 70.223955 
L 289.977398 71.431356 
L 290.852477 69.759569 
L 291.727557 71.400397 
L 292.602637 69.511897 
L 293.477716 70.68834 
L 294.352796 70.347791 
L 295.227876 71.090807 
L 296.102955 68.892717 
L 296.978035 67.128052 
L 297.853114 71.214643 
L 298.728194 72.545881 
L 299.603274 70.131077 
L 300.478353 70.99793 
L 302.228513 69.883405 
L 303.103592 71.895742 
L 303.978672 69.852446 
L 304.853752 69.883405 
L 305.728831 68.521208 
L 306.603911 69.697651 
L 307.47899 69.666692 
L 308.35407 66.787503 
L 309.22915 67.18997 
L 310.104229 67.128052 
L 310.979309 66.694626 
L 311.854389 65.053798 
L 312.729468 68.211618 
L 313.604548 68.397372 
L 314.479628 66.973257 
L 315.354707 68.892717 
L 316.229787 65.332429 
L 317.104866 67.932987 
L 318.855026 63.598724 
L 319.730105 65.92065 
L 320.605185 65.022839 
L 321.480265 65.332429 
L 322.355344 64.496535 
L 323.230424 64.063109 
L 324.105504 64.310781 
L 324.980583 65.115716 
L 325.855663 63.010502 
L 326.730742 64.806125 
L 327.605822 65.92065 
L 328.480902 64.155986 
L 329.355981 61.060084 
L 330.231061 61.895977 
L 331.106141 62.329404 
L 331.98122 62.917625 
L 333.73138 62.948584 
L 334.606459 62.236527 
L 335.481539 61.988854 
L 337.231698 61.957895 
L 338.106778 62.205568 
L 338.981857 61.18392 
L 339.856937 61.245838 
L 340.732017 60.286108 
L 341.607096 62.45324 
L 342.482176 59.790764 
L 343.357256 62.11269 
L 344.232335 60.87433 
L 345.107415 61.307756 
L 345.982494 61.307756 
L 346.857574 60.069395 
L 347.732654 60.626657 
L 348.607733 59.450214 
L 349.482813 58.892952 
L 351.232972 59.635969 
L 352.108052 59.821723 
L 352.983132 58.088017 
L 353.858211 58.490485 
L 354.733291 58.088017 
L 355.60837 57.252124 
L 356.48345 59.481173 
L 357.35853 57.809386 
L 358.233609 58.026099 
L 359.108689 57.592673 
L 359.983769 57.314042 
L 360.858848 57.314042 
L 361.733928 57.035411 
L 362.609008 56.385271 
L 363.484087 56.509107 
L 364.359167 56.818697 
L 365.234247 56.230476 
L 366.984406 56.230476 
L 367.859485 55.704173 
L 368.734565 56.261435 
L 369.609645 54.83732 
L 370.484724 56.540066 
L 371.359804 55.023074 
L 372.234884 55.79705 
L 373.109963 55.611296 
L 374.860123 55.704173 
L 375.735202 56.323353 
L 376.610282 55.735132 
L 377.485361 54.403894 
L 378.360441 54.930197 
L 380.1106 54.682525 
L 380.98568 53.784713 
L 381.86076 54.125262 
L 382.735839 54.156221 
L 383.610919 54.868279 
L 384.485999 54.930197 
L 387.111237 54.620607 
L 387.986317 54.682525 
L 388.861397 54.249099 
L 389.736476 54.713484 
L 390.611556 54.775402 
L 391.486636 54.682525 
L 392.361715 53.568 
L 393.236795 54.52773 
L 394.111875 54.18718 
L 395.862034 54.589648 
L 396.737113 54.465812 
L 397.612193 54.18718 
L 398.487273 54.249099 
L 398.487273 54.249099 
" style="fill:none;stroke:#ff7f0e;stroke-linecap:square;stroke-width:1.5;"/>
   </g>
   <g id="line2d_21">
    <path clip-path="url(#p31b48f1cae)" d="M 73.832727 287.57911 
L 74.707807 285.020917 
L 76.457966 256.326791 
L 77.333046 249.84169 
L 78.208125 241.596813 
L 79.083205 223.673168 
L 79.958285 237.018137 
L 80.833364 214.434344 
L 81.708444 201.936675 
L 82.583524 199.150363 
L 83.458603 195.370103 
L 84.333683 258.396157 
L 85.208763 232.227635 
L 86.083842 214.41805 
L 86.958922 216.829595 
L 87.834001 206.466469 
L 88.709081 217.23695 
L 89.584161 195.304926 
L 90.45924 197.977179 
L 91.33432 184.74627 
L 92.2094 185.039566 
L 93.084479 195.484163 
L 93.959559 181.878487 
L 94.834639 174.709029 
L 95.709718 166.154562 
L 96.584798 163.303073 
L 97.459877 154.439016 
L 98.334957 157.909685 
L 99.210037 154.748606 
L 100.960196 144.548422 
L 101.835276 137.134551 
L 102.710355 140.246748 
L 103.585435 137.574495 
L 104.460515 137.05308 
L 105.335594 190.693661 
L 106.210674 168.223928 
L 107.085753 174.513498 
L 107.960833 172.607074 
L 108.835913 155.449257 
L 109.710992 169.65782 
L 110.586072 156.524676 
L 111.461152 150.78911 
L 112.336231 164.557728 
L 114.086391 153.379891 
L 114.96147 146.634083 
L 115.83655 141.159224 
L 116.71163 148.377565 
L 117.586709 141.436226 
L 118.461789 138.780268 
L 119.336868 139.806804 
L 120.211948 133.989766 
L 121.087028 130.128035 
L 121.962107 133.745353 
L 122.837187 131.219748 
L 124.587346 122.290514 
L 125.462426 125.190886 
L 126.337506 121.42692 
L 127.212585 122.795635 
L 128.087665 120.172265 
L 128.962744 120.221148 
L 129.837824 116.457182 
L 130.712904 114.029343 
L 131.587983 107.739773 
L 132.463063 115.903179 
L 133.338143 112.367332 
L 134.213222 105.800761 
L 135.088302 109.972082 
L 135.963382 105.719289 
L 136.838461 106.142939 
L 137.713541 105.100109 
L 138.58862 103.535864 
L 139.4637 103.601041 
L 141.213859 100.928788 
L 142.088939 101.09173 
L 142.964019 101.776088 
L 143.839098 101.026553 
L 144.714178 100.831023 
L 145.589258 101.336144 
L 146.464337 100.456256 
L 147.339417 152.695534 
L 148.214496 134.234179 
L 149.089576 132.588463 
L 149.964656 135.47254 
L 150.839735 141.273284 
L 151.714815 130.633156 
L 152.589895 132.523286 
L 153.464974 125.891537 
L 154.340054 133.761647 
L 155.215134 123.724406 
L 156.090213 124.001407 
L 156.965293 119.96044 
L 157.840372 130.013976 
L 158.715452 130.111741 
L 159.590532 120.644798 
L 160.465611 125.223474 
L 161.340691 124.196938 
L 162.215771 119.634556 
L 163.09085 116.212769 
L 163.96593 124.278409 
L 164.84101 118.982787 
L 166.591169 116.489771 
L 167.466248 116.962303 
L 168.341328 112.465098 
L 169.216408 121.084742 
L 170.091487 118.770962 
L 170.966567 112.693217 
L 171.841647 112.090331 
L 172.716726 112.465098 
L 173.591806 116.994892 
L 174.466886 114.420404 
L 175.341965 108.147129 
L 176.217045 110.363143 
L 177.092124 110.982323 
L 177.967204 116.522359 
L 178.842284 114.338933 
L 179.717363 106.094057 
L 180.592443 108.081952 
L 181.467523 110.721616 
L 182.342602 110.770499 
L 183.217682 105.263051 
L 184.092762 105.132697 
L 184.967841 110.623851 
L 185.842921 105.833349 
L 186.718 104.741636 
L 187.59308 106.305882 
L 188.46816 102.753741 
L 189.343239 104.725342 
L 190.218319 99.234189 
L 191.093399 104.676459 
L 191.968478 102.264914 
L 192.843558 102.900389 
L 193.718638 102.639681 
L 194.593717 100.211842 
L 195.468797 100.879905 
L 196.343877 99.348248 
L 197.218956 96.317523 
L 198.094036 96.69229 
L 198.969115 99.152718 
L 199.844195 97.327765 
L 200.719275 99.348248 
L 201.594354 95.437635 
L 202.469434 96.138286 
L 203.344514 99.31566 
L 204.219593 95.714637 
L 205.094673 94.411099 
L 205.969753 94.313334 
L 206.844832 93.563799 
L 207.719912 93.351974 
L 208.594991 90.744899 
L 209.470071 92.260261 
L 210.345151 90.777487 
L 211.22023 91.396668 
L 212.09531 91.755141 
L 213.845469 90.500485 
L 214.720549 87.844527 
L 215.595629 89.865011 
L 216.470708 89.294713 
L 217.345788 89.897599 
L 218.220867 89.262124 
L 219.095947 89.897599 
L 219.971027 87.795644 
L 220.846106 88.056352 
L 221.721186 87.567525 
L 222.596266 87.518643 
L 223.471345 87.730468 
L 224.346425 87.323112 
L 225.221505 88.121529 
L 226.096584 87.306818 
L 226.971664 87.746762 
L 227.846743 87.58382 
L 228.721823 88.121529 
L 229.596903 87.404583 
L 230.471982 87.437172 
L 231.347062 127.309135 
L 232.222142 125.793772 
L 233.097221 118.982787 
L 233.972301 120.514444 
L 234.847381 125.272357 
L 235.72246 118.086605 
L 236.59754 123.219285 
L 237.472619 123.202991 
L 238.347699 113.067984 
L 239.222779 129.91621 
L 240.097858 113.36128 
L 240.972938 118.412489 
L 241.848018 113.296103 
L 242.723097 110.053553 
L 243.598177 115.512117 
L 244.473257 116.71789 
L 245.348336 110.086141 
L 246.223416 117.174128 
L 247.098495 107.544242 
L 247.973575 112.285861 
L 248.848655 112.856159 
L 249.723734 117.060069 
L 250.598814 110.297966 
L 251.473894 111.862211 
L 252.348973 110.966029 
L 253.224053 112.008859 
L 254.099133 112.090331 
L 254.974212 111.78074 
L 255.849292 109.841728 
L 256.724371 109.727668 
L 257.599451 117.711837 
L 258.474531 111.194148 
L 259.34961 113.133161 
L 260.22469 118.363606 
L 261.09977 110.363143 
L 261.974849 110.754204 
L 262.849929 114.632229 
L 263.725009 105.751878 
L 264.600088 109.15737 
L 265.475168 105.165286 
L 266.350247 110.982323 
L 267.225327 111.601504 
L 268.100407 110.770499 
L 268.975486 109.743963 
L 269.850566 105.865937 
L 270.725646 111.813329 
L 271.600725 112.905042 
L 272.475805 112.155507 
L 273.350885 108.880369 
L 274.225964 106.843591 
L 275.101044 106.534001 
L 275.976123 107.18577 
L 276.851203 109.369195 
L 277.726283 109.189959 
L 278.601362 110.346849 
L 279.476442 113.687164 
L 280.351522 104.13875 
L 281.226601 102.704858 
L 282.101681 105.768172 
L 282.976761 103.649923 
L 284.72692 111.063795 
L 285.602 109.890611 
L 286.477079 106.908768 
L 287.352159 101.20579 
L 288.227238 108.049363 
L 289.102318 102.786329 
L 289.977398 103.796571 
L 290.852477 102.36268 
L 291.727557 101.93903 
L 292.602637 99.820781 
L 293.477716 106.419941 
L 294.352796 99.641544 
L 295.227876 103.063331 
L 296.102955 103.666217 
L 296.978035 100.635492 
L 297.853114 101.580557 
L 298.728194 105.654113 
L 299.603274 102.639681 
L 300.478353 101.922736 
L 301.353433 101.466497 
L 302.228513 101.82497 
L 303.103592 102.98186 
L 303.978672 102.346385 
L 304.853752 104.383163 
L 306.603911 97.507001 
L 307.47899 102.493033 
L 308.35407 98.940893 
L 310.104229 96.838938 
L 310.979309 99.038658 
L 311.854389 96.855232 
L 312.729468 98.517243 
L 313.604548 101.352438 
L 314.479628 96.936703 
L 315.354707 99.413425 
L 316.229787 96.3827 
L 317.104866 100.309608 
L 317.979946 99.560073 
L 318.855026 93.661565 
L 319.730105 93.905978 
L 320.605185 95.046574 
L 321.480265 97.083351 
L 322.355344 95.013985 
L 323.230424 97.507001 
L 324.105504 93.237915 
L 324.980583 94.443687 
L 325.855663 91.25002 
L 326.730742 96.203463 
L 327.605822 96.333817 
L 328.480902 94.036332 
L 329.355981 95.095456 
L 330.231061 95.176927 
L 331.106141 91.266314 
L 331.98122 92.113613 
L 332.8563 91.347785 
L 333.73138 92.17879 
L 334.606459 91.98326 
L 335.481539 91.901789 
L 336.356618 92.781677 
L 337.231698 89.930188 
L 338.106778 91.543316 
L 338.981857 91.25002 
L 339.856937 90.467897 
L 340.732017 88.740709 
L 341.607096 88.903652 
L 342.482176 88.561473 
L 343.357256 90.467897 
L 344.232335 88.023764 
L 345.107415 90.924135 
L 346.857574 87.844527 
L 347.732654 89.311007 
L 348.607733 87.991175 
L 349.482813 88.463708 
L 350.357893 88.040058 
L 351.232972 88.62665 
L 352.108052 86.492107 
L 352.983132 88.51259 
L 353.858211 87.991175 
L 354.733291 86.915756 
L 355.60837 87.192758 
L 356.48345 85.921809 
L 358.233609 86.117339 
L 359.108689 86.932051 
L 359.983769 84.830096 
L 360.858848 86.655049 
L 361.733928 84.976744 
L 362.609008 86.492107 
L 364.359167 83.298439 
L 365.234247 84.520506 
L 366.109326 84.145739 
L 366.984406 84.129444 
L 367.859485 83.26585 
L 368.734565 84.569388 
L 369.609645 84.308681 
L 370.484724 84.84639 
L 371.359804 84.194621 
L 372.234884 82.662964 
L 373.109963 83.086614 
L 373.985043 81.79937 
L 374.860123 84.047973 
L 375.735202 82.777024 
L 376.610282 83.640618 
L 377.485361 83.005143 
L 378.360441 83.559146 
L 379.235521 82.516316 
L 380.1106 82.418551 
L 380.98568 82.939966 
L 381.86076 82.728141 
L 382.735839 82.777024 
L 383.610919 82.53261 
L 384.485999 82.483728 
L 385.361078 83.200674 
L 386.236158 82.581493 
L 387.111237 82.206726 
L 387.986317 82.565199 
L 388.861397 82.418551 
L 389.736476 82.662964 
L 390.611556 81.79937 
L 391.486636 82.369668 
L 392.361715 82.206726 
L 393.236795 82.630376 
L 394.111875 81.815665 
L 394.986954 81.946018 
L 395.862034 82.255609 
L 396.737113 82.02749 
L 397.612193 82.369668 
L 398.487273 82.157843 
L 398.487273 82.157843 
" style="fill:none;stroke:#2ca02c;stroke-linecap:square;stroke-width:1.5;"/>
   </g>
   <g id="patch_3">
    <path d="M 57.6 307.584 
L 57.6 41.472 
" style="fill:none;stroke:#000000;stroke-linecap:square;stroke-linejoin:miter;stroke-width:0.8;"/>
   </g>
   <g id="patch_4">
    <path d="M 414.72 307.584 
L 414.72 41.472 
" style="fill:none;stroke:#000000;stroke-linecap:square;stroke-linejoin:miter;stroke-width:0.8;"/>
   </g>
   <g id="patch_5">
    <path d="M 57.6 307.584 
L 414.72 307.584 
" style="fill:none;stroke:#000000;stroke-linecap:square;stroke-linejoin:miter;stroke-width:0.8;"/>
   </g>
   <g id="patch_6">
    <path d="M 57.6 41.472 
L 414.72 41.472 
" style="fill:none;stroke:#000000;stroke-linecap:square;stroke-linejoin:miter;stroke-width:0.8;"/>
   </g>
   <g id="text_21">
    <!-- Training and Validation Accuracy -->
    <g transform="translate(138.4575 35.472)scale(0.12 -0.12)">
     <defs>
      <path d="M -19 4666 
L 3928 4666 
L 3928 4134 
L 2272 4134 
L 2272 0 
L 1638 0 
L 1638 4134 
L -19 4134 
L -19 4666 
z
" id="DejaVuSans-54" transform="scale(0.015625)"/>
      <path d="M 603 3500 
L 1178 3500 
L 1178 0 
L 603 0 
L 603 3500 
z
M 603 4863 
L 1178 4863 
L 1178 4134 
L 603 4134 
L 603 4863 
z
" id="DejaVuSans-69" transform="scale(0.015625)"/>
      <path d="M 3513 2113 
L 3513 0 
L 2938 0 
L 2938 2094 
Q 2938 2591 2744 2837 
Q 2550 3084 2163 3084 
Q 1697 3084 1428 2787 
Q 1159 2491 1159 1978 
L 1159 0 
L 581 0 
L 581 3500 
L 1159 3500 
L 1159 2956 
Q 1366 3272 1645 3428 
Q 1925 3584 2291 3584 
Q 2894 3584 3203 3211 
Q 3513 2838 3513 2113 
z
" id="DejaVuSans-6e" transform="scale(0.015625)"/>
      <path d="M 2906 1791 
Q 2906 2416 2648 2759 
Q 2391 3103 1925 3103 
Q 1463 3103 1205 2759 
Q 947 2416 947 1791 
Q 947 1169 1205 825 
Q 1463 481 1925 481 
Q 2391 481 2648 825 
Q 2906 1169 2906 1791 
z
M 3481 434 
Q 3481 -459 3084 -895 
Q 2688 -1331 1869 -1331 
Q 1566 -1331 1297 -1286 
Q 1028 -1241 775 -1147 
L 775 -588 
Q 1028 -725 1275 -790 
Q 1522 -856 1778 -856 
Q 2344 -856 2625 -561 
Q 2906 -266 2906 331 
L 2906 616 
Q 2728 306 2450 153 
Q 2172 0 1784 0 
Q 1141 0 747 490 
Q 353 981 353 1791 
Q 353 2603 747 3093 
Q 1141 3584 1784 3584 
Q 2172 3584 2450 3431 
Q 2728 3278 2906 2969 
L 2906 3500 
L 3481 3500 
L 3481 434 
z
" id="DejaVuSans-67" transform="scale(0.015625)"/>
      <path id="DejaVuSans-20" transform="scale(0.015625)"/>
      <path d="M 2906 2969 
L 2906 4863 
L 3481 4863 
L 3481 0 
L 2906 0 
L 2906 525 
Q 2725 213 2448 61 
Q 2172 -91 1784 -91 
Q 1150 -91 751 415 
Q 353 922 353 1747 
Q 353 2572 751 3078 
Q 1150 3584 1784 3584 
Q 2172 3584 2448 3432 
Q 2725 3281 2906 2969 
z
M 947 1747 
Q 947 1113 1208 752 
Q 1469 391 1925 391 
Q 2381 391 2643 752 
Q 2906 1113 2906 1747 
Q 2906 2381 2643 2742 
Q 2381 3103 1925 3103 
Q 1469 3103 1208 2742 
Q 947 2381 947 1747 
z
" id="DejaVuSans-64" transform="scale(0.015625)"/>
      <path d="M 1831 0 
L 50 4666 
L 709 4666 
L 2188 738 
L 3669 4666 
L 4325 4666 
L 2547 0 
L 1831 0 
z
" id="DejaVuSans-56" transform="scale(0.015625)"/>
      <path d="M 603 4863 
L 1178 4863 
L 1178 0 
L 603 0 
L 603 4863 
z
" id="DejaVuSans-6c" transform="scale(0.015625)"/>
      <path d="M 1172 4494 
L 1172 3500 
L 2356 3500 
L 2356 3053 
L 1172 3053 
L 1172 1153 
Q 1172 725 1289 603 
Q 1406 481 1766 481 
L 2356 481 
L 2356 0 
L 1766 0 
Q 1100 0 847 248 
Q 594 497 594 1153 
L 594 3053 
L 172 3053 
L 172 3500 
L 594 3500 
L 594 4494 
L 1172 4494 
z
" id="DejaVuSans-74" transform="scale(0.015625)"/>
     </defs>
     <use xlink:href="#DejaVuSans-54"/>
     <use x="46.333984" xlink:href="#DejaVuSans-72"/>
     <use x="87.447266" xlink:href="#DejaVuSans-61"/>
     <use x="148.726562" xlink:href="#DejaVuSans-69"/>
     <use x="176.509766" xlink:href="#DejaVuSans-6e"/>
     <use x="239.888672" xlink:href="#DejaVuSans-69"/>
     <use x="267.671875" xlink:href="#DejaVuSans-6e"/>
     <use x="331.050781" xlink:href="#DejaVuSans-67"/>
     <use x="394.527344" xlink:href="#DejaVuSans-20"/>
     <use x="426.314453" xlink:href="#DejaVuSans-61"/>
     <use x="487.59375" xlink:href="#DejaVuSans-6e"/>
     <use x="550.972656" xlink:href="#DejaVuSans-64"/>
     <use x="614.449219" xlink:href="#DejaVuSans-20"/>
     <use x="646.236328" xlink:href="#DejaVuSans-56"/>
     <use x="706.894531" xlink:href="#DejaVuSans-61"/>
     <use x="768.173828" xlink:href="#DejaVuSans-6c"/>
     <use x="795.957031" xlink:href="#DejaVuSans-69"/>
     <use x="823.740234" xlink:href="#DejaVuSans-64"/>
     <use x="887.216797" xlink:href="#DejaVuSans-61"/>
     <use x="948.496094" xlink:href="#DejaVuSans-74"/>
     <use x="987.705078" xlink:href="#DejaVuSans-69"/>
     <use x="1015.488281" xlink:href="#DejaVuSans-6f"/>
     <use x="1076.669922" xlink:href="#DejaVuSans-6e"/>
     <use x="1140.048828" xlink:href="#DejaVuSans-20"/>
     <use x="1171.835938" xlink:href="#DejaVuSans-41"/>
     <use x="1238.494141" xlink:href="#DejaVuSans-63"/>
     <use x="1293.474609" xlink:href="#DejaVuSans-63"/>
     <use x="1348.455078" xlink:href="#DejaVuSans-75"/>
     <use x="1411.833984" xlink:href="#DejaVuSans-72"/>
     <use x="1452.947266" xlink:href="#DejaVuSans-61"/>
     <use x="1514.226562" xlink:href="#DejaVuSans-63"/>
     <use x="1569.207031" xlink:href="#DejaVuSans-79"/>
    </g>
   </g>
   <g id="legend_1">
    <g id="patch_7">
     <path d="M 239.893438 302.584 
L 407.72 302.584 
Q 409.72 302.584 409.72 300.584 
L 409.72 257.549625 
Q 409.72 255.549625 407.72 255.549625 
L 239.893438 255.549625 
Q 237.893438 255.549625 237.893438 257.549625 
L 237.893438 300.584 
Q 237.893438 302.584 239.893438 302.584 
z
" style="fill:#ffffff;opacity:0.8;stroke:#cccccc;stroke-linejoin:miter;"/>
    </g>
    <g id="line2d_22">
     <path d="M 241.893438 263.648062 
L 261.893438 263.648062 
" style="fill:none;stroke:#1f77b4;stroke-linecap:square;stroke-width:1.5;"/>
    </g>
    <g id="line2d_23"/>
    <g id="text_22">
     <!-- Train Accuracy -->
     <g transform="translate(269.893438 267.148062)scale(0.1 -0.1)">
      <use xlink:href="#DejaVuSans-54"/>
      <use x="46.333984" xlink:href="#DejaVuSans-72"/>
      <use x="87.447266" xlink:href="#DejaVuSans-61"/>
      <use x="148.726562" xlink:href="#DejaVuSans-69"/>
      <use x="176.509766" xlink:href="#DejaVuSans-6e"/>
      <use x="239.888672" xlink:href="#DejaVuSans-20"/>
      <use x="271.675781" xlink:href="#DejaVuSans-41"/>
      <use x="338.333984" xlink:href="#DejaVuSans-63"/>
      <use x="393.314453" xlink:href="#DejaVuSans-63"/>
      <use x="448.294922" xlink:href="#DejaVuSans-75"/>
      <use x="511.673828" xlink:href="#DejaVuSans-72"/>
      <use x="552.787109" xlink:href="#DejaVuSans-61"/>
      <use x="614.066406" xlink:href="#DejaVuSans-63"/>
      <use x="669.046875" xlink:href="#DejaVuSans-79"/>
     </g>
    </g>
    <g id="line2d_24">
     <path d="M 241.893438 278.326188 
L 261.893438 278.326188 
" style="fill:none;stroke:#ff7f0e;stroke-linecap:square;stroke-width:1.5;"/>
    </g>
    <g id="line2d_25"/>
    <g id="text_23">
     <!-- Validation Accuracy -->
     <g transform="translate(269.893438 281.826188)scale(0.1 -0.1)">
      <use xlink:href="#DejaVuSans-56"/>
      <use x="60.658203" xlink:href="#DejaVuSans-61"/>
      <use x="121.9375" xlink:href="#DejaVuSans-6c"/>
      <use x="149.720703" xlink:href="#DejaVuSans-69"/>
      <use x="177.503906" xlink:href="#DejaVuSans-64"/>
      <use x="240.980469" xlink:href="#DejaVuSans-61"/>
      <use x="302.259766" xlink:href="#DejaVuSans-74"/>
      <use x="341.46875" xlink:href="#DejaVuSans-69"/>
      <use x="369.251953" xlink:href="#DejaVuSans-6f"/>
      <use x="430.433594" xlink:href="#DejaVuSans-6e"/>
      <use x="493.8125" xlink:href="#DejaVuSans-20"/>
      <use x="525.599609" xlink:href="#DejaVuSans-41"/>
      <use x="592.257812" xlink:href="#DejaVuSans-63"/>
      <use x="647.238281" xlink:href="#DejaVuSans-63"/>
      <use x="702.21875" xlink:href="#DejaVuSans-75"/>
      <use x="765.597656" xlink:href="#DejaVuSans-72"/>
      <use x="806.710938" xlink:href="#DejaVuSans-61"/>
      <use x="867.990234" xlink:href="#DejaVuSans-63"/>
      <use x="922.970703" xlink:href="#DejaVuSans-79"/>
     </g>
    </g>
    <g id="line2d_26">
     <path d="M 241.893438 293.004312 
L 261.893438 293.004312 
" style="fill:none;stroke:#2ca02c;stroke-linecap:square;stroke-width:1.5;"/>
    </g>
    <g id="line2d_27"/>
    <g id="text_24">
     <!-- Robust Validation Accuracy -->
     <g transform="translate(269.893438 296.504312)scale(0.1 -0.1)">
      <defs>
       <path d="M 2841 2188 
Q 3044 2119 3236 1894 
Q 3428 1669 3622 1275 
L 4263 0 
L 3584 0 
L 2988 1197 
Q 2756 1666 2539 1819 
Q 2322 1972 1947 1972 
L 1259 1972 
L 1259 0 
L 628 0 
L 628 4666 
L 2053 4666 
Q 2853 4666 3247 4331 
Q 3641 3997 3641 3322 
Q 3641 2881 3436 2590 
Q 3231 2300 2841 2188 
z
M 1259 4147 
L 1259 2491 
L 2053 2491 
Q 2509 2491 2742 2702 
Q 2975 2913 2975 3322 
Q 2975 3731 2742 3939 
Q 2509 4147 2053 4147 
L 1259 4147 
z
" id="DejaVuSans-52" transform="scale(0.015625)"/>
       <path d="M 3116 1747 
Q 3116 2381 2855 2742 
Q 2594 3103 2138 3103 
Q 1681 3103 1420 2742 
Q 1159 2381 1159 1747 
Q 1159 1113 1420 752 
Q 1681 391 2138 391 
Q 2594 391 2855 752 
Q 3116 1113 3116 1747 
z
M 1159 2969 
Q 1341 3281 1617 3432 
Q 1894 3584 2278 3584 
Q 2916 3584 3314 3078 
Q 3713 2572 3713 1747 
Q 3713 922 3314 415 
Q 2916 -91 2278 -91 
Q 1894 -91 1617 61 
Q 1341 213 1159 525 
L 1159 0 
L 581 0 
L 581 4863 
L 1159 4863 
L 1159 2969 
z
" id="DejaVuSans-62" transform="scale(0.015625)"/>
      </defs>
      <use xlink:href="#DejaVuSans-52"/>
      <use x="64.982422" xlink:href="#DejaVuSans-6f"/>
      <use x="126.164062" xlink:href="#DejaVuSans-62"/>
      <use x="189.640625" xlink:href="#DejaVuSans-75"/>
      <use x="253.019531" xlink:href="#DejaVuSans-73"/>
      <use x="305.119141" xlink:href="#DejaVuSans-74"/>
      <use x="344.328125" xlink:href="#DejaVuSans-20"/>
      <use x="376.115234" xlink:href="#DejaVuSans-56"/>
      <use x="436.773438" xlink:href="#DejaVuSans-61"/>
      <use x="498.052734" xlink:href="#DejaVuSans-6c"/>
      <use x="525.835938" xlink:href="#DejaVuSans-69"/>
      <use x="553.619141" xlink:href="#DejaVuSans-64"/>
      <use x="617.095703" xlink:href="#DejaVuSans-61"/>
      <use x="678.375" xlink:href="#DejaVuSans-74"/>
      <use x="717.583984" xlink:href="#DejaVuSans-69"/>
      <use x="745.367188" xlink:href="#DejaVuSans-6f"/>
      <use x="806.548828" xlink:href="#DejaVuSans-6e"/>
      <use x="869.927734" xlink:href="#DejaVuSans-20"/>
      <use x="901.714844" xlink:href="#DejaVuSans-41"/>
      <use x="968.373047" xlink:href="#DejaVuSans-63"/>
      <use x="1023.353516" xlink:href="#DejaVuSans-63"/>
      <use x="1078.333984" xlink:href="#DejaVuSans-75"/>
      <use x="1141.712891" xlink:href="#DejaVuSans-72"/>
      <use x="1182.826172" xlink:href="#DejaVuSans-61"/>
      <use x="1244.105469" xlink:href="#DejaVuSans-63"/>
      <use x="1299.085938" xlink:href="#DejaVuSans-79"/>
     </g>
    </g>
   </g>
  </g>
 </g>
 <defs>
  <clipPath id="p31b48f1cae">
   <rect height="266.112" width="357.12" x="57.6" y="41.472"/>
  </clipPath>
 </defs>
</svg>
