<?xml version="1.0" encoding="utf-8" standalone="no"?>
<!DOCTYPE svg PUBLIC "-//W3C//DTD SVG 1.1//EN"
  "http://www.w3.org/Graphics/SVG/1.1/DTD/svg11.dtd">
<svg height="345.6pt" version="1.1" viewBox="0 0 460.8 345.6" width="460.8pt" xmlns="http://www.w3.org/2000/svg" xmlns:xlink="http://www.w3.org/1999/xlink">
 <metadata>
  <rdf:RDF xmlns:cc="http://creativecommons.org/ns#" xmlns:dc="http://purl.org/dc/elements/1.1/" xmlns:rdf="http://www.w3.org/1999/02/22-rdf-syntax-ns#">
   <cc:Work>
    <dc:type rdf:resource="http://purl.org/dc/dcmitype/StillImage"/>
    <dc:date>2024-01-26T09:47:18.477334</dc:date>
    <dc:format>image/svg+xml</dc:format>
    <dc:creator>
     <cc:Agent>
      <dc:title>Matplotlib v3.4.3, https://matplotlib.org/</dc:title>
     </cc:Agent>
    </dc:creator>
   </cc:Work>
  </rdf:RDF>
 </metadata>
 <defs>
  <style type="text/css">*{stroke-linecap:butt;stroke-linejoin:round;}</style>
 </defs>
 <g id="figure_1">
  <g id="patch_1">
   <path d="M 0 345.6 
L 460.8 345.6 
L 460.8 0 
L 0 0 
z
" style="fill:#ffffff;"/>
  </g>
  <g id="axes_1">
   <g id="patch_2">
    <path d="M 57.6 307.584 
L 414.72 307.584 
L 414.72 41.472 
L 57.6 41.472 
z
" style="fill:#ffffff;"/>
   </g>
   <g id="matplotlib.axis_1">
    <g id="xtick_1">
     <g id="line2d_1">
      <defs>
       <path d="M 0 0 
L 0 3.5 
" id="m9bbd8098ca" style="stroke:#000000;stroke-width:0.8;"/>
      </defs>
      <g>
       <use style="stroke:#000000;stroke-width:0.8;" x="73.832727" xlink:href="#m9bbd8098ca" y="307.584"/>
      </g>
     </g>
     <g id="text_1">
      <!-- 1 -->
      <g transform="translate(70.651477 322.182437)scale(0.1 -0.1)">
       <defs>
        <path d="M 794 531 
L 1825 531 
L 1825 4091 
L 703 3866 
L 703 4441 
L 1819 4666 
L 2450 4666 
L 2450 531 
L 3481 531 
L 3481 0 
L 794 0 
L 794 531 
z
" id="DejaVuSans-31" transform="scale(0.015625)"/>
       </defs>
       <use xlink:href="#DejaVuSans-31"/>
      </g>
     </g>
    </g>
    <g id="xtick_2">
     <g id="line2d_2">
      <g>
       <use style="stroke:#000000;stroke-width:0.8;" x="109.710992" xlink:href="#m9bbd8098ca" y="307.584"/>
      </g>
     </g>
     <g id="text_2">
      <!-- 42 -->
      <g transform="translate(103.348492 322.182437)scale(0.1 -0.1)">
       <defs>
        <path d="M 2419 4116 
L 825 1625 
L 2419 1625 
L 2419 4116 
z
M 2253 4666 
L 3047 4666 
L 3047 1625 
L 3713 1625 
L 3713 1100 
L 3047 1100 
L 3047 0 
L 2419 0 
L 2419 1100 
L 313 1100 
L 313 1709 
L 2253 4666 
z
" id="DejaVuSans-34" transform="scale(0.015625)"/>
        <path d="M 1228 531 
L 3431 531 
L 3431 0 
L 469 0 
L 469 531 
Q 828 903 1448 1529 
Q 2069 2156 2228 2338 
Q 2531 2678 2651 2914 
Q 2772 3150 2772 3378 
Q 2772 3750 2511 3984 
Q 2250 4219 1831 4219 
Q 1534 4219 1204 4116 
Q 875 4013 500 3803 
L 500 4441 
Q 881 4594 1212 4672 
Q 1544 4750 1819 4750 
Q 2544 4750 2975 4387 
Q 3406 4025 3406 3419 
Q 3406 3131 3298 2873 
Q 3191 2616 2906 2266 
Q 2828 2175 2409 1742 
Q 1991 1309 1228 531 
z
" id="DejaVuSans-32" transform="scale(0.015625)"/>
       </defs>
       <use xlink:href="#DejaVuSans-34"/>
       <use x="63.623047" xlink:href="#DejaVuSans-32"/>
      </g>
     </g>
    </g>
    <g id="xtick_3">
     <g id="line2d_3">
      <g>
       <use style="stroke:#000000;stroke-width:0.8;" x="145.589258" xlink:href="#m9bbd8098ca" y="307.584"/>
      </g>
     </g>
     <g id="text_3">
      <!-- 83 -->
      <g transform="translate(139.226758 322.182437)scale(0.1 -0.1)">
       <defs>
        <path d="M 2034 2216 
Q 1584 2216 1326 1975 
Q 1069 1734 1069 1313 
Q 1069 891 1326 650 
Q 1584 409 2034 409 
Q 2484 409 2743 651 
Q 3003 894 3003 1313 
Q 3003 1734 2745 1975 
Q 2488 2216 2034 2216 
z
M 1403 2484 
Q 997 2584 770 2862 
Q 544 3141 544 3541 
Q 544 4100 942 4425 
Q 1341 4750 2034 4750 
Q 2731 4750 3128 4425 
Q 3525 4100 3525 3541 
Q 3525 3141 3298 2862 
Q 3072 2584 2669 2484 
Q 3125 2378 3379 2068 
Q 3634 1759 3634 1313 
Q 3634 634 3220 271 
Q 2806 -91 2034 -91 
Q 1263 -91 848 271 
Q 434 634 434 1313 
Q 434 1759 690 2068 
Q 947 2378 1403 2484 
z
M 1172 3481 
Q 1172 3119 1398 2916 
Q 1625 2713 2034 2713 
Q 2441 2713 2670 2916 
Q 2900 3119 2900 3481 
Q 2900 3844 2670 4047 
Q 2441 4250 2034 4250 
Q 1625 4250 1398 4047 
Q 1172 3844 1172 3481 
z
" id="DejaVuSans-38" transform="scale(0.015625)"/>
        <path d="M 2597 2516 
Q 3050 2419 3304 2112 
Q 3559 1806 3559 1356 
Q 3559 666 3084 287 
Q 2609 -91 1734 -91 
Q 1441 -91 1130 -33 
Q 819 25 488 141 
L 488 750 
Q 750 597 1062 519 
Q 1375 441 1716 441 
Q 2309 441 2620 675 
Q 2931 909 2931 1356 
Q 2931 1769 2642 2001 
Q 2353 2234 1838 2234 
L 1294 2234 
L 1294 2753 
L 1863 2753 
Q 2328 2753 2575 2939 
Q 2822 3125 2822 3475 
Q 2822 3834 2567 4026 
Q 2313 4219 1838 4219 
Q 1578 4219 1281 4162 
Q 984 4106 628 3988 
L 628 4550 
Q 988 4650 1302 4700 
Q 1616 4750 1894 4750 
Q 2613 4750 3031 4423 
Q 3450 4097 3450 3541 
Q 3450 3153 3228 2886 
Q 3006 2619 2597 2516 
z
" id="DejaVuSans-33" transform="scale(0.015625)"/>
       </defs>
       <use xlink:href="#DejaVuSans-38"/>
       <use x="63.623047" xlink:href="#DejaVuSans-33"/>
      </g>
     </g>
    </g>
    <g id="xtick_4">
     <g id="line2d_4">
      <g>
       <use style="stroke:#000000;stroke-width:0.8;" x="181.467523" xlink:href="#m9bbd8098ca" y="307.584"/>
      </g>
     </g>
     <g id="text_4">
      <!-- 124 -->
      <g transform="translate(171.923773 322.182437)scale(0.1 -0.1)">
       <use xlink:href="#DejaVuSans-31"/>
       <use x="63.623047" xlink:href="#DejaVuSans-32"/>
       <use x="127.246094" xlink:href="#DejaVuSans-34"/>
      </g>
     </g>
    </g>
    <g id="xtick_5">
     <g id="line2d_5">
      <g>
       <use style="stroke:#000000;stroke-width:0.8;" x="217.345788" xlink:href="#m9bbd8098ca" y="307.584"/>
      </g>
     </g>
     <g id="text_5">
      <!-- 165 -->
      <g transform="translate(207.802038 322.182437)scale(0.1 -0.1)">
       <defs>
        <path d="M 2113 2584 
Q 1688 2584 1439 2293 
Q 1191 2003 1191 1497 
Q 1191 994 1439 701 
Q 1688 409 2113 409 
Q 2538 409 2786 701 
Q 3034 994 3034 1497 
Q 3034 2003 2786 2293 
Q 2538 2584 2113 2584 
z
M 3366 4563 
L 3366 3988 
Q 3128 4100 2886 4159 
Q 2644 4219 2406 4219 
Q 1781 4219 1451 3797 
Q 1122 3375 1075 2522 
Q 1259 2794 1537 2939 
Q 1816 3084 2150 3084 
Q 2853 3084 3261 2657 
Q 3669 2231 3669 1497 
Q 3669 778 3244 343 
Q 2819 -91 2113 -91 
Q 1303 -91 875 529 
Q 447 1150 447 2328 
Q 447 3434 972 4092 
Q 1497 4750 2381 4750 
Q 2619 4750 2861 4703 
Q 3103 4656 3366 4563 
z
" id="DejaVuSans-36" transform="scale(0.015625)"/>
        <path d="M 691 4666 
L 3169 4666 
L 3169 4134 
L 1269 4134 
L 1269 2991 
Q 1406 3038 1543 3061 
Q 1681 3084 1819 3084 
Q 2600 3084 3056 2656 
Q 3513 2228 3513 1497 
Q 3513 744 3044 326 
Q 2575 -91 1722 -91 
Q 1428 -91 1123 -41 
Q 819 9 494 109 
L 494 744 
Q 775 591 1075 516 
Q 1375 441 1709 441 
Q 2250 441 2565 725 
Q 2881 1009 2881 1497 
Q 2881 1984 2565 2268 
Q 2250 2553 1709 2553 
Q 1456 2553 1204 2497 
Q 953 2441 691 2322 
L 691 4666 
z
" id="DejaVuSans-35" transform="scale(0.015625)"/>
       </defs>
       <use xlink:href="#DejaVuSans-31"/>
       <use x="63.623047" xlink:href="#DejaVuSans-36"/>
       <use x="127.246094" xlink:href="#DejaVuSans-35"/>
      </g>
     </g>
    </g>
    <g id="xtick_6">
     <g id="line2d_6">
      <g>
       <use style="stroke:#000000;stroke-width:0.8;" x="254.099133" xlink:href="#m9bbd8098ca" y="307.584"/>
      </g>
     </g>
     <g id="text_6">
      <!-- 207 -->
      <g transform="translate(244.555383 322.182437)scale(0.1 -0.1)">
       <defs>
        <path d="M 2034 4250 
Q 1547 4250 1301 3770 
Q 1056 3291 1056 2328 
Q 1056 1369 1301 889 
Q 1547 409 2034 409 
Q 2525 409 2770 889 
Q 3016 1369 3016 2328 
Q 3016 3291 2770 3770 
Q 2525 4250 2034 4250 
z
M 2034 4750 
Q 2819 4750 3233 4129 
Q 3647 3509 3647 2328 
Q 3647 1150 3233 529 
Q 2819 -91 2034 -91 
Q 1250 -91 836 529 
Q 422 1150 422 2328 
Q 422 3509 836 4129 
Q 1250 4750 2034 4750 
z
" id="DejaVuSans-30" transform="scale(0.015625)"/>
        <path d="M 525 4666 
L 3525 4666 
L 3525 4397 
L 1831 0 
L 1172 0 
L 2766 4134 
L 525 4134 
L 525 4666 
z
" id="DejaVuSans-37" transform="scale(0.015625)"/>
       </defs>
       <use xlink:href="#DejaVuSans-32"/>
       <use x="63.623047" xlink:href="#DejaVuSans-30"/>
       <use x="127.246094" xlink:href="#DejaVuSans-37"/>
      </g>
     </g>
    </g>
    <g id="xtick_7">
     <g id="line2d_7">
      <g>
       <use style="stroke:#000000;stroke-width:0.8;" x="289.977398" xlink:href="#m9bbd8098ca" y="307.584"/>
      </g>
     </g>
     <g id="text_7">
      <!-- 248 -->
      <g transform="translate(280.433648 322.182437)scale(0.1 -0.1)">
       <use xlink:href="#DejaVuSans-32"/>
       <use x="63.623047" xlink:href="#DejaVuSans-34"/>
       <use x="127.246094" xlink:href="#DejaVuSans-38"/>
      </g>
     </g>
    </g>
    <g id="xtick_8">
     <g id="line2d_8">
      <g>
       <use style="stroke:#000000;stroke-width:0.8;" x="325.855663" xlink:href="#m9bbd8098ca" y="307.584"/>
      </g>
     </g>
     <g id="text_8">
      <!-- 289 -->
      <g transform="translate(316.311913 322.182437)scale(0.1 -0.1)">
       <defs>
        <path d="M 703 97 
L 703 672 
Q 941 559 1184 500 
Q 1428 441 1663 441 
Q 2288 441 2617 861 
Q 2947 1281 2994 2138 
Q 2813 1869 2534 1725 
Q 2256 1581 1919 1581 
Q 1219 1581 811 2004 
Q 403 2428 403 3163 
Q 403 3881 828 4315 
Q 1253 4750 1959 4750 
Q 2769 4750 3195 4129 
Q 3622 3509 3622 2328 
Q 3622 1225 3098 567 
Q 2575 -91 1691 -91 
Q 1453 -91 1209 -44 
Q 966 3 703 97 
z
M 1959 2075 
Q 2384 2075 2632 2365 
Q 2881 2656 2881 3163 
Q 2881 3666 2632 3958 
Q 2384 4250 1959 4250 
Q 1534 4250 1286 3958 
Q 1038 3666 1038 3163 
Q 1038 2656 1286 2365 
Q 1534 2075 1959 2075 
z
" id="DejaVuSans-39" transform="scale(0.015625)"/>
       </defs>
       <use xlink:href="#DejaVuSans-32"/>
       <use x="63.623047" xlink:href="#DejaVuSans-38"/>
       <use x="127.246094" xlink:href="#DejaVuSans-39"/>
      </g>
     </g>
    </g>
    <g id="xtick_9">
     <g id="line2d_9">
      <g>
       <use style="stroke:#000000;stroke-width:0.8;" x="361.733928" xlink:href="#m9bbd8098ca" y="307.584"/>
      </g>
     </g>
     <g id="text_9">
      <!-- 330 -->
      <g transform="translate(352.190178 322.182437)scale(0.1 -0.1)">
       <use xlink:href="#DejaVuSans-33"/>
       <use x="63.623047" xlink:href="#DejaVuSans-33"/>
       <use x="127.246094" xlink:href="#DejaVuSans-30"/>
      </g>
     </g>
    </g>
    <g id="xtick_10">
     <g id="line2d_10">
      <g>
       <use style="stroke:#000000;stroke-width:0.8;" x="398.487273" xlink:href="#m9bbd8098ca" y="307.584"/>
      </g>
     </g>
     <g id="text_10">
      <!-- 372 -->
      <g transform="translate(388.943523 322.182437)scale(0.1 -0.1)">
       <use xlink:href="#DejaVuSans-33"/>
       <use x="63.623047" xlink:href="#DejaVuSans-37"/>
       <use x="127.246094" xlink:href="#DejaVuSans-32"/>
      </g>
     </g>
    </g>
    <g id="text_11">
     <!-- Epochs -->
     <g transform="translate(218.244375 335.860562)scale(0.1 -0.1)">
      <defs>
       <path d="M 628 4666 
L 3578 4666 
L 3578 4134 
L 1259 4134 
L 1259 2753 
L 3481 2753 
L 3481 2222 
L 1259 2222 
L 1259 531 
L 3634 531 
L 3634 0 
L 628 0 
L 628 4666 
z
" id="DejaVuSans-45" transform="scale(0.015625)"/>
       <path d="M 1159 525 
L 1159 -1331 
L 581 -1331 
L 581 3500 
L 1159 3500 
L 1159 2969 
Q 1341 3281 1617 3432 
Q 1894 3584 2278 3584 
Q 2916 3584 3314 3078 
Q 3713 2572 3713 1747 
Q 3713 922 3314 415 
Q 2916 -91 2278 -91 
Q 1894 -91 1617 61 
Q 1341 213 1159 525 
z
M 3116 1747 
Q 3116 2381 2855 2742 
Q 2594 3103 2138 3103 
Q 1681 3103 1420 2742 
Q 1159 2381 1159 1747 
Q 1159 1113 1420 752 
Q 1681 391 2138 391 
Q 2594 391 2855 752 
Q 3116 1113 3116 1747 
z
" id="DejaVuSans-70" transform="scale(0.015625)"/>
       <path d="M 1959 3097 
Q 1497 3097 1228 2736 
Q 959 2375 959 1747 
Q 959 1119 1226 758 
Q 1494 397 1959 397 
Q 2419 397 2687 759 
Q 2956 1122 2956 1747 
Q 2956 2369 2687 2733 
Q 2419 3097 1959 3097 
z
M 1959 3584 
Q 2709 3584 3137 3096 
Q 3566 2609 3566 1747 
Q 3566 888 3137 398 
Q 2709 -91 1959 -91 
Q 1206 -91 779 398 
Q 353 888 353 1747 
Q 353 2609 779 3096 
Q 1206 3584 1959 3584 
z
" id="DejaVuSans-6f" transform="scale(0.015625)"/>
       <path d="M 3122 3366 
L 3122 2828 
Q 2878 2963 2633 3030 
Q 2388 3097 2138 3097 
Q 1578 3097 1268 2742 
Q 959 2388 959 1747 
Q 959 1106 1268 751 
Q 1578 397 2138 397 
Q 2388 397 2633 464 
Q 2878 531 3122 666 
L 3122 134 
Q 2881 22 2623 -34 
Q 2366 -91 2075 -91 
Q 1284 -91 818 406 
Q 353 903 353 1747 
Q 353 2603 823 3093 
Q 1294 3584 2113 3584 
Q 2378 3584 2631 3529 
Q 2884 3475 3122 3366 
z
" id="DejaVuSans-63" transform="scale(0.015625)"/>
       <path d="M 3513 2113 
L 3513 0 
L 2938 0 
L 2938 2094 
Q 2938 2591 2744 2837 
Q 2550 3084 2163 3084 
Q 1697 3084 1428 2787 
Q 1159 2491 1159 1978 
L 1159 0 
L 581 0 
L 581 4863 
L 1159 4863 
L 1159 2956 
Q 1366 3272 1645 3428 
Q 1925 3584 2291 3584 
Q 2894 3584 3203 3211 
Q 3513 2838 3513 2113 
z
" id="DejaVuSans-68" transform="scale(0.015625)"/>
       <path d="M 2834 3397 
L 2834 2853 
Q 2591 2978 2328 3040 
Q 2066 3103 1784 3103 
Q 1356 3103 1142 2972 
Q 928 2841 928 2578 
Q 928 2378 1081 2264 
Q 1234 2150 1697 2047 
L 1894 2003 
Q 2506 1872 2764 1633 
Q 3022 1394 3022 966 
Q 3022 478 2636 193 
Q 2250 -91 1575 -91 
Q 1294 -91 989 -36 
Q 684 19 347 128 
L 347 722 
Q 666 556 975 473 
Q 1284 391 1588 391 
Q 1994 391 2212 530 
Q 2431 669 2431 922 
Q 2431 1156 2273 1281 
Q 2116 1406 1581 1522 
L 1381 1569 
Q 847 1681 609 1914 
Q 372 2147 372 2553 
Q 372 3047 722 3315 
Q 1072 3584 1716 3584 
Q 2034 3584 2315 3537 
Q 2597 3491 2834 3397 
z
" id="DejaVuSans-73" transform="scale(0.015625)"/>
      </defs>
      <use xlink:href="#DejaVuSans-45"/>
      <use x="63.183594" xlink:href="#DejaVuSans-70"/>
      <use x="126.660156" xlink:href="#DejaVuSans-6f"/>
      <use x="187.841797" xlink:href="#DejaVuSans-63"/>
      <use x="242.822266" xlink:href="#DejaVuSans-68"/>
      <use x="306.201172" xlink:href="#DejaVuSans-73"/>
     </g>
    </g>
   </g>
   <g id="matplotlib.axis_2">
    <g id="ytick_1">
     <g id="line2d_11">
      <defs>
       <path d="M 0 0 
L -3.5 0 
" id="m155c103e2d" style="stroke:#000000;stroke-width:0.8;"/>
      </defs>
      <g>
       <use style="stroke:#000000;stroke-width:0.8;" x="57.6" xlink:href="#m155c103e2d" y="249.883112"/>
      </g>
     </g>
     <g id="text_12">
      <!-- 20 -->
      <g transform="translate(37.875 253.682331)scale(0.1 -0.1)">
       <use xlink:href="#DejaVuSans-32"/>
       <use x="63.623047" xlink:href="#DejaVuSans-30"/>
      </g>
     </g>
    </g>
    <g id="ytick_2">
     <g id="line2d_12">
      <g>
       <use style="stroke:#000000;stroke-width:0.8;" x="57.6" xlink:href="#m155c103e2d" y="191.227308"/>
      </g>
     </g>
     <g id="text_13">
      <!-- 40 -->
      <g transform="translate(37.875 195.026526)scale(0.1 -0.1)">
       <use xlink:href="#DejaVuSans-34"/>
       <use x="63.623047" xlink:href="#DejaVuSans-30"/>
      </g>
     </g>
    </g>
    <g id="ytick_3">
     <g id="line2d_13">
      <g>
       <use style="stroke:#000000;stroke-width:0.8;" x="57.6" xlink:href="#m155c103e2d" y="132.571503"/>
      </g>
     </g>
     <g id="text_14">
      <!-- 60 -->
      <g transform="translate(37.875 136.370722)scale(0.1 -0.1)">
       <use xlink:href="#DejaVuSans-36"/>
       <use x="63.623047" xlink:href="#DejaVuSans-30"/>
      </g>
     </g>
    </g>
    <g id="ytick_4">
     <g id="line2d_14">
      <g>
       <use style="stroke:#000000;stroke-width:0.8;" x="57.6" xlink:href="#m155c103e2d" y="73.915699"/>
      </g>
     </g>
     <g id="text_15">
      <!-- 80 -->
      <g transform="translate(37.875 77.714917)scale(0.1 -0.1)">
       <use xlink:href="#DejaVuSans-38"/>
       <use x="63.623047" xlink:href="#DejaVuSans-30"/>
      </g>
     </g>
    </g>
    <g id="text_16">
     <!-- Accuracy -->
     <g transform="translate(31.795312 197.356125)rotate(-90)scale(0.1 -0.1)">
      <defs>
       <path d="M 2188 4044 
L 1331 1722 
L 3047 1722 
L 2188 4044 
z
M 1831 4666 
L 2547 4666 
L 4325 0 
L 3669 0 
L 3244 1197 
L 1141 1197 
L 716 0 
L 50 0 
L 1831 4666 
z
" id="DejaVuSans-41" transform="scale(0.015625)"/>
       <path d="M 544 1381 
L 544 3500 
L 1119 3500 
L 1119 1403 
Q 1119 906 1312 657 
Q 1506 409 1894 409 
Q 2359 409 2629 706 
Q 2900 1003 2900 1516 
L 2900 3500 
L 3475 3500 
L 3475 0 
L 2900 0 
L 2900 538 
Q 2691 219 2414 64 
Q 2138 -91 1772 -91 
Q 1169 -91 856 284 
Q 544 659 544 1381 
z
M 1991 3584 
L 1991 3584 
z
" id="DejaVuSans-75" transform="scale(0.015625)"/>
       <path d="M 2631 2963 
Q 2534 3019 2420 3045 
Q 2306 3072 2169 3072 
Q 1681 3072 1420 2755 
Q 1159 2438 1159 1844 
L 1159 0 
L 581 0 
L 581 3500 
L 1159 3500 
L 1159 2956 
Q 1341 3275 1631 3429 
Q 1922 3584 2338 3584 
Q 2397 3584 2469 3576 
Q 2541 3569 2628 3553 
L 2631 2963 
z
" id="DejaVuSans-72" transform="scale(0.015625)"/>
       <path d="M 2194 1759 
Q 1497 1759 1228 1600 
Q 959 1441 959 1056 
Q 959 750 1161 570 
Q 1363 391 1709 391 
Q 2188 391 2477 730 
Q 2766 1069 2766 1631 
L 2766 1759 
L 2194 1759 
z
M 3341 1997 
L 3341 0 
L 2766 0 
L 2766 531 
Q 2569 213 2275 61 
Q 1981 -91 1556 -91 
Q 1019 -91 701 211 
Q 384 513 384 1019 
Q 384 1609 779 1909 
Q 1175 2209 1959 2209 
L 2766 2209 
L 2766 2266 
Q 2766 2663 2505 2880 
Q 2244 3097 1772 3097 
Q 1472 3097 1187 3025 
Q 903 2953 641 2809 
L 641 3341 
Q 956 3463 1253 3523 
Q 1550 3584 1831 3584 
Q 2591 3584 2966 3190 
Q 3341 2797 3341 1997 
z
" id="DejaVuSans-61" transform="scale(0.015625)"/>
       <path d="M 2059 -325 
Q 1816 -950 1584 -1140 
Q 1353 -1331 966 -1331 
L 506 -1331 
L 506 -850 
L 844 -850 
Q 1081 -850 1212 -737 
Q 1344 -625 1503 -206 
L 1606 56 
L 191 3500 
L 800 3500 
L 1894 763 
L 2988 3500 
L 3597 3500 
L 2059 -325 
z
" id="DejaVuSans-79" transform="scale(0.015625)"/>
      </defs>
      <use xlink:href="#DejaVuSans-41"/>
      <use x="66.658203" xlink:href="#DejaVuSans-63"/>
      <use x="121.638672" xlink:href="#DejaVuSans-63"/>
      <use x="176.619141" xlink:href="#DejaVuSans-75"/>
      <use x="239.998047" xlink:href="#DejaVuSans-72"/>
      <use x="281.111328" xlink:href="#DejaVuSans-61"/>
      <use x="342.390625" xlink:href="#DejaVuSans-63"/>
      <use x="397.371094" xlink:href="#DejaVuSans-79"/>
     </g>
    </g>
   </g>
   <g id="line2d_15">
    <path clip-path="url(#p739c3394db)" d="M 73.832727 295.488 
L 74.707807 287.592929 
L 75.582887 283.440098 
L 76.457966 278.190403 
L 77.333046 273.844008 
L 78.208125 266.107308 
L 79.083205 261.643601 
L 79.958285 256.188611 
L 81.708444 247.912277 
L 82.583524 244.023397 
L 83.458603 243.565882 
L 84.333683 259.960179 
L 85.208763 252.856961 
L 86.083842 247.560342 
L 86.958922 239.858835 
L 87.834001 238.069833 
L 88.709081 235.400994 
L 89.584161 228.192196 
L 90.45924 226.203764 
L 91.33432 223.218183 
L 92.2094 216.502094 
L 93.084479 216.044578 
L 93.959559 212.466574 
L 94.834639 207.809303 
L 95.709718 207.609874 
L 96.584798 201.626982 
L 97.459877 202.940872 
L 98.334957 195.479853 
L 99.210037 193.297857 
L 100.085116 190.148041 
L 100.960196 193.860953 
L 101.835276 190.969222 
L 102.710355 187.068611 
L 103.585435 184.781035 
L 104.460515 184.663723 
L 105.335594 214.630974 
L 106.210674 209.070403 
L 107.085753 206.120016 
L 107.960833 205.058346 
L 108.835913 198.834965 
L 109.710992 197.42136 
L 110.586072 193.608733 
L 111.461152 191.456065 
L 113.211311 182.980301 
L 114.086391 182.047674 
L 114.96147 183.396758 
L 115.83655 175.613132 
L 117.586709 175.272929 
L 118.461789 172.322542 
L 119.336868 175.601401 
L 120.211948 170.345841 
L 121.087028 166.932073 
L 121.962107 168.398468 
L 122.837187 161.353906 
L 123.712267 161.301116 
L 124.587346 163.788122 
L 125.462426 153.857695 
L 126.337506 156.379894 
L 127.212585 152.625923 
L 128.087665 148.314721 
L 128.962744 152.573132 
L 129.837824 145.827715 
L 130.712904 148.432033 
L 131.587983 147.200261 
L 132.463063 139.287593 
L 134.213222 141.598631 
L 135.088302 136.630485 
L 135.963382 136.501442 
L 136.838461 133.545189 
L 137.713541 137.029344 
L 138.58862 131.808978 
L 139.4637 128.307226 
L 140.33878 128.612236 
L 141.213859 133.228448 
L 142.964019 126.834965 
L 143.839098 127.527104 
L 144.714178 127.139976 
L 145.589258 130.366045 
L 146.464337 124.723356 
L 147.339417 159.7702 
L 148.214496 163.700138 
L 149.089576 162.925882 
L 149.964656 156.737695 
L 150.839735 153.059976 
L 151.714815 151.38242 
L 152.589895 154.737532 
L 153.464974 153.007185 
L 154.340054 158.069181 
L 155.215134 149.188692 
L 156.090213 148.75464 
L 156.965293 146.015413 
L 157.840372 146.320424 
L 158.715452 145.335006 
L 159.590532 146.314558 
L 160.465611 142.90079 
L 161.340691 143.012236 
L 162.215771 140.683601 
L 163.09085 135.709589 
L 164.84101 142.894925 
L 165.716089 138.014762 
L 166.591169 134.524741 
L 167.466248 130.172481 
L 168.341328 129.052155 
L 169.216408 137.627633 
L 170.091487 125.081157 
L 170.966567 127.879039 
L 171.841647 129.321971 
L 172.716726 124.564986 
L 173.591806 122.48857 
L 174.466886 122.922623 
L 175.341965 124.136798 
L 176.217045 120.025026 
L 177.092124 122.18356 
L 177.967204 116.5702 
L 178.842284 118.353336 
L 179.717363 119.819731 
L 180.592443 116.306248 
L 181.467523 115.837002 
L 182.342602 116.464619 
L 183.217682 113.256147 
L 184.092762 116.001238 
L 184.967841 112.863153 
L 185.842921 112.640261 
L 186.718 105.085393 
L 187.59308 105.167511 
L 188.46816 101.354884 
L 189.343239 106.16466 
L 190.218319 103.712847 
L 191.093399 105.707145 
L 191.968478 103.114558 
L 192.843558 101.964904 
L 193.718638 92.380546 
L 194.593717 97.342827 
L 195.468797 92.040342 
L 196.343877 97.102338 
L 197.218956 92.873255 
L 198.094036 91.424456 
L 198.969115 92.327756 
L 199.844195 90.521157 
L 200.719275 90.925882 
L 201.594354 92.867389 
L 202.469434 89.699976 
L 203.344514 89.69411 
L 204.219593 92.972969 
L 205.094673 85.271462 
L 205.969753 85.453295 
L 206.844832 84.016228 
L 207.719912 88.456473 
L 208.594991 78.725475 
L 209.470071 86.086778 
L 210.345151 78.004008 
L 211.22023 86.567756 
L 212.09531 79.095006 
L 212.97039 84.737695 
L 213.845469 85.816961 
L 214.720549 78.361809 
L 215.595629 80.989589 
L 216.470708 76.144619 
L 217.345788 81.763845 
L 218.220867 80.872277 
L 219.095947 78.109589 
L 219.971027 80.719772 
L 220.846106 74.678224 
L 221.721186 78.156513 
L 222.596266 74.801401 
L 223.471345 81.282868 
L 226.096584 74.560912 
L 227.846743 77.259079 
L 228.721823 76.173947 
L 229.596903 84.825678 
L 230.471982 74.115128 
L 231.347062 113.132969 
L 232.222142 116.259324 
L 233.097221 113.033255 
L 233.972301 110.387878 
L 234.847381 117.03358 
L 235.72246 117.444171 
L 236.59754 109.818916 
L 237.472619 115.127267 
L 238.347699 114.622827 
L 239.222779 112.505352 
L 240.097858 110.71635 
L 240.972938 108.059242 
L 241.848018 98.304782 
L 243.598177 104.833173 
L 244.473257 104.909426 
L 245.348336 106.97411 
L 246.223416 101.706819 
L 247.098495 111.67244 
L 247.973575 101.278631 
L 248.848655 105.46079 
L 249.723734 103.39024 
L 250.598814 103.401971 
L 253.224053 95.072847 
L 254.099133 99.835699 
L 254.974212 97.27244 
L 255.849292 104.938754 
L 256.724371 93.83521 
L 257.599451 98.832684 
L 258.474531 99.208081 
L 259.34961 99.454436 
L 261.09977 88.650037 
L 261.974849 94.327919 
L 262.849929 98.662582 
L 263.725009 89.770363 
L 264.600088 92.961238 
L 265.475168 93.031625 
L 266.350247 93.852807 
L 267.225327 95.055251 
L 268.100407 91.084253 
L 268.975486 94.650525 
L 269.850566 97.401483 
L 270.725646 90.497695 
L 271.600725 86.092644 
L 272.475805 95.037654 
L 273.350885 87.993092 
L 274.225964 85.183479 
L 275.101044 86.186493 
L 275.976123 93.58299 
L 276.851203 87.705678 
L 277.726283 90.444904 
L 278.601362 92.175251 
L 279.476442 86.61468 
L 280.351522 82.26242 
L 281.226601 81.881157 
L 282.101681 91.682542 
L 282.976761 88.603112 
L 283.85184 83.083601 
L 284.72692 90.644334 
L 285.602 93.231055 
L 286.477079 80.672847 
L 287.352159 85.265597 
L 288.227238 84.022094 
L 289.102318 79.370688 
L 289.977398 85.183479 
L 290.852477 87.905108 
L 291.727557 88.38022 
L 292.602637 79.464538 
L 293.477716 79.728489 
L 294.352796 79.001157 
L 295.227876 80.156676 
L 296.102955 85.975332 
L 296.978035 77.734191 
L 297.853114 80.197735 
L 298.728194 86.567756 
L 299.603274 86.104375 
L 300.478353 76.062501 
L 301.353433 73.786656 
L 302.228513 78.338346 
L 303.103592 79.253377 
L 303.978672 77.898428 
L 304.853752 80.092155 
L 305.728831 77.980546 
L 306.603911 78.27969 
L 307.47899 71.018102 
L 308.35407 81.634802 
L 309.22915 75.112277 
L 310.104229 76.314721 
L 310.979309 73.464049 
L 311.854389 77.429181 
L 312.729468 76.449629 
L 313.604548 77.628611 
L 314.479628 80.35024 
L 315.354707 72.859894 
L 316.229787 77.72246 
L 317.104866 73.335006 
L 317.979946 73.78079 
L 318.855026 72.988937 
L 319.730105 73.798387 
L 320.605185 70.302501 
L 321.480265 69.358143 
L 322.355344 70.982908 
L 323.230424 79.452807 
L 324.105504 64.161238 
L 324.980583 69.123519 
L 325.855663 68.542827 
L 326.730742 70.325963 
L 327.605822 63.615739 
L 328.480902 65.03521 
L 329.355981 76.830892 
L 331.106141 74.467063 
L 331.98122 62.906004 
L 332.8563 70.29077 
L 333.73138 74.578509 
L 334.606459 70.302501 
L 335.481539 69.622094 
L 336.356618 65.885719 
L 337.231698 61.445475 
L 338.106778 64.788855 
L 338.981857 62.454354 
L 339.856937 61.838468 
L 340.732017 68.255413 
L 341.607096 67.621931 
L 342.482176 62.055495 
L 343.357256 65.369548 
L 344.232335 67.885882 
L 345.107415 64.337206 
L 345.982494 59.615413 
L 346.857574 70.23798 
L 347.732654 67.316921 
L 349.482813 64.208163 
L 350.357893 57.187063 
L 351.232972 58.149018 
L 352.108052 63.533621 
L 353.858211 59.726859 
L 354.733291 61.914721 
L 355.60837 60.266493 
L 356.48345 62.454354 
L 357.35853 58.858754 
L 358.233609 60.624293 
L 359.108689 64.741931 
L 359.983769 63.081971 
L 360.858848 58.62413 
L 362.609008 65.774273 
L 363.484087 62.589263 
L 364.359167 63.433906 
L 365.234247 57.31024 
L 366.109326 66.607185 
L 366.984406 59.046452 
L 367.859485 55.005067 
L 368.734565 62.096554 
L 369.609645 53.568 
L 370.484724 60.718143 
L 371.359804 58.671055 
L 372.234884 58.764904 
L 373.109963 57.368896 
L 373.985043 56.817532 
L 374.860123 59.093377 
L 375.735202 56.055006 
L 376.610282 56.776473 
L 377.485361 54.242542 
L 378.360441 58.096228 
L 379.235521 54.471299 
L 380.1106 58.946737 
L 380.98568 61.39855 
L 381.86076 55.74413 
L 382.735839 54.172155 
L 383.610919 55.984619 
L 384.485999 57.421686 
L 385.361078 55.374599 
L 387.111237 58.952603 
L 387.986317 54.846697 
L 388.861397 55.896635 
L 389.736476 57.943723 
L 390.611556 56.0902 
L 391.486636 58.500953 
L 392.361715 60.301686 
L 393.236795 57.046289 
L 394.111875 58.377776 
L 394.986954 53.996187 
L 395.862034 64.155373 
L 396.737113 60.119853 
L 397.612193 61.445475 
L 398.487273 58.782501 
L 398.487273 58.782501 
" style="fill:none;stroke:#1f77b4;stroke-linecap:square;stroke-width:1.5;"/>
   </g>
   <g id="line2d_16">
    <path clip-path="url(#p739c3394db)" d="M 73.832727 286.367022 
L 74.707807 284.138102 
L 75.582887 277.509996 
L 76.457966 262.054191 
L 77.333046 260.001238 
L 78.208125 245.689222 
L 79.958285 237.037491 
L 80.833364 229.529548 
L 81.708444 236.685556 
L 82.583524 219.939324 
L 83.458603 220.232603 
L 84.333683 253.285149 
L 85.208763 239.413051 
L 86.083842 227.359283 
L 86.958922 227.476595 
L 87.834001 219.382094 
L 88.709081 213.868448 
L 89.584161 233.752766 
L 90.45924 218.003682 
L 91.33432 215.012236 
L 92.2094 189.408978 
L 93.084479 191.256635 
L 93.959559 187.00409 
L 94.834639 187.238713 
L 95.709718 176.973947 
L 96.584798 173.337287 
L 97.459877 171.988204 
L 98.334957 165.096147 
L 99.210037 157.089629 
L 100.085116 155.916513 
L 100.960196 153.746248 
L 101.835276 149.81631 
L 102.710355 154.391462 
L 103.585435 149.933621 
L 104.460515 156.327104 
L 105.335594 186.358876 
L 106.210674 192.898998 
L 107.085753 183.983316 
L 107.960833 179.085556 
L 108.835913 171.929548 
L 109.710992 170.404497 
L 110.586072 157.764171 
L 111.461152 162.95521 
L 112.336231 148.027308 
L 113.211311 170.052562 
L 114.086391 149.053784 
L 114.96147 143.598794 
L 115.83655 139.258265 
L 116.71163 140.108774 
L 117.586709 149.962949 
L 118.461789 163.424456 
L 119.336868 141.399202 
L 120.211948 140.783316 
L 121.087028 141.105923 
L 121.962107 140.607348 
L 122.837187 138.466411 
L 123.712267 127.380464 
L 124.587346 125.415495 
L 125.462426 130.929141 
L 126.337506 129.25745 
L 127.212585 128.993499 
L 128.087665 120.400424 
L 128.962744 121.602868 
L 129.837824 115.854599 
L 131.587983 120.723031 
L 133.338143 113.684334 
L 134.213222 111.953988 
L 135.088302 112.071299 
L 135.963382 112.540546 
L 136.838461 111.748692 
L 137.713541 106.440342 
L 138.58862 107.613458 
L 139.4637 103.742175 
L 140.33878 103.008978 
L 141.213859 107.056228 
L 142.088939 105.003275 
L 142.964019 103.272929 
L 143.839098 102.041157 
L 144.714178 104.358061 
L 145.589258 100.838713 
L 146.464337 101.57191 
L 147.339417 132.278224 
L 148.214496 133.128733 
L 149.089576 132.102257 
L 149.964656 127.087185 
L 150.839735 139.111625 
L 151.714815 135.680261 
L 152.589895 133.216717 
L 153.464974 129.521401 
L 154.340054 116.910403 
L 155.215134 122.629344 
L 156.090213 121.837491 
L 156.965293 127.380464 
L 157.840372 116.265189 
L 158.715452 117.614273 
L 159.590532 117.262338 
L 160.465611 123.333214 
L 161.340691 116.939731 
L 162.215771 113.097776 
L 163.09085 116.529141 
L 163.96593 113.977613 
L 164.84101 118.523438 
L 165.716089 113.625678 
L 166.591169 110.868855 
L 167.466248 118.464782 
L 168.341328 120.781686 
L 169.216408 112.716513 
L 170.091487 112.745841 
L 170.966567 111.983316 
L 171.841647 109.901035 
L 172.716726 115.092073 
L 173.591806 105.384538 
L 174.466886 105.325882 
L 175.341965 110.252969 
L 176.217045 111.103479 
L 177.092124 101.601238 
L 177.967204 112.980464 
L 178.842284 113.449711 
L 180.592443 98.844415 
L 181.467523 108.639935 
L 182.342602 102.305108 
L 183.217682 101.425271 
L 184.092762 100.164171 
L 184.967841 100.838713 
L 185.842921 98.492481 
L 186.718 97.583316 
L 187.59308 104.534029 
L 188.46816 97.202053 
L 189.343239 101.249303 
L 190.218319 99.90022 
L 191.093399 94.59187 
L 191.968478 96.468855 
L 192.843558 94.885149 
L 193.718638 103.742175 
L 194.593717 96.527511 
L 195.468797 93.770688 
L 196.343877 95.55969 
L 197.218956 98.961727 
L 198.094036 95.794314 
L 198.969115 96.732807 
L 199.844195 94.357246 
L 200.719275 94.386574 
L 201.594354 98.169874 
L 202.469434 93.125475 
L 203.344514 92.77354 
L 204.219593 93.682705 
L 205.094673 94.298591 
L 205.969753 93.712033 
L 207.719912 90.544619 
L 208.594991 92.011014 
L 209.470071 88.726289 
L 210.345151 90.749914 
L 211.22023 90.837898 
L 212.09531 90.163356 
L 212.97039 89.048896 
L 213.845469 86.145434 
L 214.720549 86.380057 
L 215.595629 85.910811 
L 217.345788 88.755617 
L 218.220867 89.430159 
L 219.095947 87.054599 
L 219.971027 87.87578 
L 220.846106 87.142582 
L 221.721186 88.872929 
L 222.596266 90.280668 
L 223.471345 87.465189 
L 224.346425 88.960912 
L 225.221505 85.412236 
L 226.096584 85.705515 
L 226.971664 87.17191 
L 227.846743 86.292073 
L 228.721823 87.17191 
L 229.596903 86.174762 
L 230.471982 86.731992 
L 231.347062 111.250118 
L 232.222142 109.285149 
L 233.097221 112.833825 
L 233.972301 107.232196 
L 234.847381 112.980464 
L 235.72246 107.202868 
L 236.59754 113.74299 
L 237.472619 108.522623 
L 238.347699 116.11855 
L 239.222779 110.077002 
L 240.972938 101.747878 
L 241.848018 106.528326 
L 242.723097 110.252969 
L 243.598177 109.343804 
L 244.473257 105.648489 
L 245.348336 99.90022 
L 246.223416 107.994721 
L 247.098495 103.918143 
L 247.973575 108.317328 
L 248.848655 115.590648 
L 249.723734 94.650525 
L 250.598814 100.633418 
L 251.473894 102.686371 
L 252.348973 100.692073 
L 253.224053 103.976798 
L 254.099133 98.668448 
L 254.974212 100.750729 
L 255.849292 98.815088 
L 256.724371 96.204904 
L 257.599451 97.788611 
L 258.474531 100.868041 
L 259.34961 96.4102 
L 260.22469 98.991055 
L 261.09977 99.049711 
L 261.974849 97.847267 
L 262.849929 97.172725 
L 263.725009 102.363764 
L 264.600088 99.079039 
L 265.475168 98.22853 
L 266.350247 100.692073 
L 267.225327 94.826493 
L 268.100407 99.548285 
L 268.975486 95.911625 
L 269.850566 98.199202 
L 270.725646 97.495332 
L 271.600725 97.172725 
L 272.475805 93.975984 
L 273.350885 92.920179 
L 274.225964 96.908774 
L 275.976123 94.914477 
L 276.851203 95.618346 
L 277.726283 94.709181 
L 278.601362 96.791462 
L 279.476442 95.413051 
L 280.351522 95.325067 
L 281.226601 93.096147 
L 282.101681 93.33077 
L 282.976761 90.779242 
L 283.85184 92.128326 
L 284.72692 94.562542 
L 285.602 92.832196 
L 286.477079 96.498183 
L 287.352159 92.450933 
L 288.227238 93.565393 
L 289.102318 93.858672 
L 289.977398 91.600424 
L 290.852477 92.421605 
L 291.727557 89.69411 
L 292.602637 91.043193 
L 293.477716 91.072521 
L 294.352796 92.128326 
L 295.227876 89.664782 
L 296.102955 90.691259 
L 296.978035 90.222012 
L 297.853114 92.362949 
L 298.728194 91.805719 
L 299.603274 87.905108 
L 300.478353 89.224864 
L 301.353433 89.723438 
L 302.228513 88.550322 
L 303.103592 88.843601 
L 303.978672 89.635454 
L 304.853752 87.31855 
L 305.728831 88.726289 
L 306.603911 89.840749 
L 307.47899 87.87578 
L 308.35407 89.664782 
L 309.22915 88.931585 
L 310.104229 88.462338 
L 310.979309 89.723438 
L 311.854389 87.787796 
L 312.729468 89.371503 
L 313.604548 88.257043 
L 314.479628 87.787796 
L 315.354707 88.43301 
L 317.104866 88.139731 
L 317.979946 85.793499 
L 318.855026 88.843601 
L 319.730105 88.02242 
L 320.605185 89.166208 
L 321.480265 87.31855 
L 322.355344 85.969466 
L 324.105504 85.148285 
L 324.980583 85.412236 
L 325.855663 87.054599 
L 326.730742 86.292073 
L 327.605822 86.556024 
L 329.355981 83.241971 
L 330.231061 83.066004 
L 331.106141 85.030974 
L 331.98122 84.327104 
L 332.8563 84.151136 
L 333.73138 83.153988 
L 334.606459 83.740546 
L 335.481539 84.913662 
L 336.356618 84.767022 
L 337.231698 83.652562 
L 338.106778 85.118957 
L 338.981857 84.004497 
L 339.856937 81.599609 
L 340.732017 81.394314 
L 341.607096 80.895739 
L 342.482176 82.538102 
L 344.232335 82.626086 
L 345.107415 82.127511 
L 345.982494 82.274151 
L 346.857574 80.719772 
L 347.732654 80.221198 
L 348.607733 80.367837 
L 349.482813 80.866411 
L 350.357893 80.367837 
L 351.232972 81.15969 
L 352.108052 79.575984 
L 352.983132 80.807756 
L 353.858211 80.19187 
L 354.733291 80.7491 
L 355.60837 80.631788 
L 356.48345 80.19187 
L 357.35853 80.778428 
L 358.233609 80.426493 
L 359.108689 79.575984 
L 359.983769 80.514477 
L 360.858848 80.866411 
L 361.733928 80.661116 
L 362.609008 79.693295 
L 363.484087 78.490851 
L 364.359167 79.106737 
L 366.109326 79.018754 
L 366.984406 78.872114 
L 367.859485 79.224049 
L 369.609645 79.458672 
L 370.484724 78.754802 
L 372.234884 78.256228 
L 373.109963 78.168244 
L 374.860123 77.728326 
L 375.735202 78.021605 
L 377.485361 77.786982 
L 378.360441 78.725475 
L 379.235521 77.786982 
L 380.1106 78.842786 
L 380.98568 78.402868 
L 382.735839 78.461523 
L 383.610919 77.728326 
L 385.361078 78.666819 
L 386.236158 78.344212 
L 387.111237 77.728326 
L 388.861397 78.197572 
L 389.736476 78.050933 
L 390.611556 77.552358 
L 391.486636 77.66967 
L 392.361715 77.347063 
L 393.236795 77.81631 
L 394.111875 77.640342 
L 394.986954 77.141768 
L 395.862034 77.464375 
L 396.737113 78.050933 
L 397.612193 77.317735 
L 398.487273 77.611014 
L 398.487273 77.611014 
" style="fill:none;stroke:#ff7f0e;stroke-linecap:square;stroke-width:1.5;"/>
   </g>
   <g id="line2d_17">
    <path clip-path="url(#p739c3394db)" d="M 73.832727 289.321515 
L 74.707807 286.604872 
L 75.582887 280.414925 
L 76.457966 266.831413 
L 77.333046 270.458982 
L 78.208125 253.186314 
L 79.083205 253.325328 
L 79.958285 250.407788 
L 80.833364 243.384635 
L 81.708444 249.15754 
L 82.583524 231.422077 
L 83.458603 235.172823 
L 84.333683 260.64176 
L 86.083842 238.44523 
L 86.958922 238.522363 
L 87.834001 232.425385 
L 88.709081 229.060301 
L 89.584161 242.350534 
L 90.45924 233.613752 
L 91.33432 230.032815 
L 92.2094 208.499976 
L 93.084479 211.370884 
L 93.959559 205.844921 
L 94.834639 206.462273 
L 96.584798 196.676138 
L 97.459877 195.379552 
L 98.334957 189.56031 
L 99.210037 181.055218 
L 100.085116 181.703365 
L 100.960196 175.961255 
L 101.835276 174.20158 
L 102.710355 179.341882 
L 103.585435 173.213817 
L 104.460515 181.67257 
L 105.335594 208.931976 
L 106.210674 215.939878 
L 107.085753 205.705906 
L 107.960833 201.661882 
L 108.835913 195.086273 
L 109.710992 195.178949 
L 110.586072 184.728831 
L 111.461152 188.186591 
L 112.336231 171.546819 
L 113.211311 196.08958 
L 114.086391 174.18633 
L 114.96147 171.901686 
L 115.83655 162.794786 
L 116.71163 167.440912 
L 117.586709 168.737499 
L 118.461789 192.801629 
L 119.336868 169.246925 
L 120.211948 169.185043 
L 121.962107 170.404497 
L 122.837187 171.021849 
L 123.712267 158.858688 
L 124.587346 155.261914 
L 125.462426 164.075829 
L 126.337506 161.143039 
L 127.212585 159.753776 
L 128.087665 151.480375 
L 128.962744 148.254305 
L 129.837824 143.546297 
L 130.712904 150.893817 
L 131.587983 151.418493 
L 132.463063 149.134143 
L 133.338143 145.305971 
L 134.213222 142.527446 
L 135.088302 142.558534 
L 135.963382 143.978591 
L 136.838461 143.453621 
L 137.713541 135.442411 
L 138.58862 139.162656 
L 139.4637 133.682737 
L 140.33878 132.463576 
L 141.213859 139.6102 
L 142.088939 137.3411 
L 142.964019 133.729075 
L 143.839098 132.401695 
L 144.714178 135.257352 
L 145.589258 129.901198 
L 146.464337 130.873711 
L 147.339417 162.192684 
L 148.214496 165.542224 
L 149.089576 163.396595 
L 149.964656 154.737238 
L 150.839735 174.062859 
L 152.589895 164.32277 
L 153.464974 160.216864 
L 154.340054 146.262941 
L 155.215134 153.980872 
L 156.090213 151.75811 
L 156.965293 155.75609 
L 157.840372 148.192424 
L 158.715452 145.120619 
L 159.590532 144.842884 
L 160.465611 153.147373 
L 161.340691 151.727316 
L 162.215771 147.837556 
L 163.09085 149.859422 
L 163.96593 144.240782 
L 164.84101 153.301637 
L 165.716089 145.614794 
L 166.591169 139.73367 
L 167.466248 153.208961 
L 168.341328 156.110957 
L 169.216408 147.806468 
L 170.091487 145.985206 
L 170.966567 146.726029 
L 171.841647 142.820725 
L 172.716726 145.305971 
L 173.591806 138.992847 
L 174.466886 136.785336 
L 175.341965 145.398648 
L 176.217045 143.885914 
L 177.092124 130.240815 
L 177.967204 142.928945 
L 178.842284 146.232147 
L 179.717363 136.013719 
L 180.592443 128.110436 
L 181.467523 142.589328 
L 182.342602 132.216342 
L 183.217682 133.528473 
L 184.092762 127.153466 
L 184.967841 133.127267 
L 185.842921 128.481141 
L 186.718 125.378542 
L 187.59308 135.874705 
L 188.46816 129.360978 
L 189.343239 128.264994 
L 190.218319 129.931992 
L 191.093399 124.251764 
L 191.968478 124.375234 
L 192.843558 122.862501 
L 193.718638 136.584733 
L 194.593717 128.388464 
L 195.468797 125.455674 
L 196.343877 127.138216 
L 197.218956 131.784342 
L 198.094036 124.390485 
L 198.969115 128.095185 
L 199.844195 124.529499 
L 200.719275 123.371927 
L 201.594354 128.187862 
L 202.469434 124.915454 
L 203.344514 122.630811 
L 204.219593 126.103821 
L 205.094673 125.795291 
L 205.969753 121.565914 
L 207.719912 116.672554 
L 208.594991 118.37064 
L 209.470071 112.798338 
L 210.345151 117.583479 
L 211.22023 116.379275 
L 212.09531 116.503039 
L 213.845469 110.4829 
L 214.720549 112.998941 
L 215.595629 109.649401 
L 216.470708 112.829132 
L 217.345788 115.268041 
L 218.220867 116.734436 
L 219.095947 112.273369 
L 219.971027 112.906265 
L 220.846106 112.011177 
L 221.721186 114.712277 
L 222.596266 116.085996 
L 223.471345 112.196236 
L 224.346425 113.570248 
L 225.221505 108.229344 
L 226.096584 109.572269 
L 226.971664 111.455413 
L 227.846743 109.495136 
L 228.721823 112.258118 
L 229.596903 109.001255 
L 230.471982 111.316399 
L 231.347062 137.017026 
L 232.222142 142.697255 
L 233.097221 141.076595 
L 233.972301 134.593662 
L 234.847381 142.419519 
L 235.72246 139.116318 
L 236.59754 149.998436 
L 237.472619 137.371894 
L 238.347699 148.578379 
L 239.222779 142.018314 
L 240.097858 140.92233 
L 240.972938 127.601303 
L 241.848018 136.322248 
L 242.723097 139.363259 
L 243.598177 140.536375 
L 244.473257 135.921043 
L 245.348336 129.901198 
L 246.223416 141.755829 
L 247.098495 133.111723 
L 247.973575 137.279511 
L 248.848655 142.712798 
L 249.723734 122.831413 
L 250.598814 128.511935 
L 251.473894 131.228578 
L 252.348973 130.981637 
L 253.224053 134.902191 
L 254.099133 125.594688 
L 254.974212 132.123959 
L 255.849292 128.295788 
L 256.724371 122.893295 
L 257.599451 122.476546 
L 258.474531 131.382843 
L 259.34961 122.07534 
L 260.22469 129.546037 
L 261.09977 128.758876 
L 261.974849 130.055462 
L 262.849929 123.232912 
L 263.725009 131.815136 
L 264.600088 127.616554 
L 265.475168 126.103821 
L 266.350247 132.540709 
L 267.225327 122.49209 
L 268.100407 128.372921 
L 268.975486 122.92409 
L 269.850566 125.116057 
L 270.725646 125.023381 
L 271.600725 122.229605 
L 272.475805 121.4269 
L 273.350885 119.620888 
L 274.225964 123.124692 
L 275.101044 124.714851 
L 275.976123 121.828106 
L 276.851203 121.210754 
L 277.726283 125.502012 
L 278.601362 125.748953 
L 279.476442 125.347454 
L 280.351522 121.179959 
L 281.226601 122.229605 
L 282.101681 116.996921 
L 282.976761 119.312065 
L 283.85184 119.821491 
L 284.72692 119.729108 
L 285.602 121.658297 
L 286.477079 126.968407 
L 287.352159 118.633124 
L 288.227238 119.497418 
L 289.102318 120.130314 
L 289.977398 116.441157 
L 290.852477 122.322281 
L 291.727557 117.676155 
L 292.602637 118.185287 
L 293.477716 118.957198 
L 294.352796 121.874444 
L 295.227876 120.593401 
L 296.102955 116.456701 
L 296.978035 115.0211 
L 297.853114 119.096212 
L 298.728194 117.475259 
L 299.603274 115.160114 
L 300.478353 114.558012 
L 301.353433 115.669246 
L 302.228513 113.153206 
L 303.103592 112.520603 
L 303.978672 117.351788 
L 304.853752 113.091617 
L 305.728831 116.595422 
L 306.603911 116.857906 
L 307.47899 110.668253 
L 308.35407 117.089597 
L 309.22915 113.585499 
L 310.104229 112.443177 
L 310.979309 114.804953 
L 311.854389 112.597735 
L 312.729468 114.511674 
L 313.604548 110.344179 
L 314.479628 109.81921 
L 315.354707 112.072766 
L 316.229787 111.578884 
L 317.104866 115.036644 
L 317.979946 108.229344 
L 318.855026 113.091617 
L 319.730105 111.56334 
L 320.605185 114.450086 
L 321.480265 114.943967 
L 322.355344 109.078387 
L 323.230424 112.566648 
L 324.105504 108.646094 
L 324.980583 108.522623 
L 325.855663 112.520603 
L 326.730742 110.112489 
L 327.605822 108.19855 
L 329.355981 105.312098 
L 330.231061 107.442183 
L 331.106141 110.405768 
L 332.8563 108.846697 
L 333.73138 105.296554 
L 335.481539 109.093637 
L 336.356618 109.309784 
L 337.231698 107.472978 
L 338.106778 110.436562 
L 338.981857 108.676888 
L 339.856937 105.26576 
L 340.732017 104.802672 
L 341.607096 102.965866 
L 342.482176 104.138982 
L 343.357256 106.670273 
L 344.232335 105.018819 
L 345.107415 105.450819 
L 345.982494 105.188627 
L 346.857574 104.756334 
L 347.732654 105.69776 
L 348.607733 102.780513 
L 349.482813 102.533572 
L 350.357893 104.138982 
L 351.232972 103.150925 
L 352.108052 102.549116 
L 352.983132 107.673658 
L 353.858211 105.836805 
L 354.733291 105.126761 
L 355.60837 105.697883 
L 357.35853 107.380379 
L 359.108689 105.991162 
L 359.983769 105.574397 
L 360.858848 107.133407 
L 361.733928 107.210585 
L 362.609008 104.37041 
L 363.484087 102.765093 
L 364.359167 105.852241 
L 365.234247 104.463024 
L 366.109326 105.095889 
L 366.984406 104.571074 
L 367.859485 104.895225 
L 368.734565 106.222698 
L 369.609645 105.620704 
L 370.484724 104.185181 
L 371.359804 103.073808 
L 372.234884 103.891902 
L 373.109963 102.425507 
L 373.985043 103.876466 
L 374.860123 102.934886 
L 375.735202 104.463024 
L 376.610282 102.981193 
L 378.360441 105.095889 
L 379.235521 102.286585 
L 380.1106 103.953645 
L 380.98568 103.583187 
L 381.86076 103.675801 
L 382.735839 104.108002 
L 383.610919 103.444265 
L 385.361078 104.756303 
L 386.236158 103.737544 
L 387.111237 103.583187 
L 387.986317 104.493896 
L 388.861397 104.246924 
L 389.736476 102.965758 
L 390.611556 103.042936 
L 391.486636 103.243601 
L 392.361715 102.857707 
L 393.236795 103.999952 
L 394.111875 103.891902 
L 394.986954 103.413394 
L 395.862034 103.32078 
L 396.737113 103.938209 
L 397.612193 103.367087 
L 398.487273 103.64493 
L 398.487273 103.64493 
" style="fill:none;stroke:#2ca02c;stroke-linecap:square;stroke-width:1.5;"/>
   </g>
   <g id="patch_3">
    <path d="M 57.6 307.584 
L 57.6 41.472 
" style="fill:none;stroke:#000000;stroke-linecap:square;stroke-linejoin:miter;stroke-width:0.8;"/>
   </g>
   <g id="patch_4">
    <path d="M 414.72 307.584 
L 414.72 41.472 
" style="fill:none;stroke:#000000;stroke-linecap:square;stroke-linejoin:miter;stroke-width:0.8;"/>
   </g>
   <g id="patch_5">
    <path d="M 57.6 307.584 
L 414.72 307.584 
" style="fill:none;stroke:#000000;stroke-linecap:square;stroke-linejoin:miter;stroke-width:0.8;"/>
   </g>
   <g id="patch_6">
    <path d="M 57.6 41.472 
L 414.72 41.472 
" style="fill:none;stroke:#000000;stroke-linecap:square;stroke-linejoin:miter;stroke-width:0.8;"/>
   </g>
   <g id="text_17">
    <!-- Training and Validation Accuracy -->
    <g transform="translate(138.4575 35.472)scale(0.12 -0.12)">
     <defs>
      <path d="M -19 4666 
L 3928 4666 
L 3928 4134 
L 2272 4134 
L 2272 0 
L 1638 0 
L 1638 4134 
L -19 4134 
L -19 4666 
z
" id="DejaVuSans-54" transform="scale(0.015625)"/>
      <path d="M 603 3500 
L 1178 3500 
L 1178 0 
L 603 0 
L 603 3500 
z
M 603 4863 
L 1178 4863 
L 1178 4134 
L 603 4134 
L 603 4863 
z
" id="DejaVuSans-69" transform="scale(0.015625)"/>
      <path d="M 3513 2113 
L 3513 0 
L 2938 0 
L 2938 2094 
Q 2938 2591 2744 2837 
Q 2550 3084 2163 3084 
Q 1697 3084 1428 2787 
Q 1159 2491 1159 1978 
L 1159 0 
L 581 0 
L 581 3500 
L 1159 3500 
L 1159 2956 
Q 1366 3272 1645 3428 
Q 1925 3584 2291 3584 
Q 2894 3584 3203 3211 
Q 3513 2838 3513 2113 
z
" id="DejaVuSans-6e" transform="scale(0.015625)"/>
      <path d="M 2906 1791 
Q 2906 2416 2648 2759 
Q 2391 3103 1925 3103 
Q 1463 3103 1205 2759 
Q 947 2416 947 1791 
Q 947 1169 1205 825 
Q 1463 481 1925 481 
Q 2391 481 2648 825 
Q 2906 1169 2906 1791 
z
M 3481 434 
Q 3481 -459 3084 -895 
Q 2688 -1331 1869 -1331 
Q 1566 -1331 1297 -1286 
Q 1028 -1241 775 -1147 
L 775 -588 
Q 1028 -725 1275 -790 
Q 1522 -856 1778 -856 
Q 2344 -856 2625 -561 
Q 2906 -266 2906 331 
L 2906 616 
Q 2728 306 2450 153 
Q 2172 0 1784 0 
Q 1141 0 747 490 
Q 353 981 353 1791 
Q 353 2603 747 3093 
Q 1141 3584 1784 3584 
Q 2172 3584 2450 3431 
Q 2728 3278 2906 2969 
L 2906 3500 
L 3481 3500 
L 3481 434 
z
" id="DejaVuSans-67" transform="scale(0.015625)"/>
      <path id="DejaVuSans-20" transform="scale(0.015625)"/>
      <path d="M 2906 2969 
L 2906 4863 
L 3481 4863 
L 3481 0 
L 2906 0 
L 2906 525 
Q 2725 213 2448 61 
Q 2172 -91 1784 -91 
Q 1150 -91 751 415 
Q 353 922 353 1747 
Q 353 2572 751 3078 
Q 1150 3584 1784 3584 
Q 2172 3584 2448 3432 
Q 2725 3281 2906 2969 
z
M 947 1747 
Q 947 1113 1208 752 
Q 1469 391 1925 391 
Q 2381 391 2643 752 
Q 2906 1113 2906 1747 
Q 2906 2381 2643 2742 
Q 2381 3103 1925 3103 
Q 1469 3103 1208 2742 
Q 947 2381 947 1747 
z
" id="DejaVuSans-64" transform="scale(0.015625)"/>
      <path d="M 1831 0 
L 50 4666 
L 709 4666 
L 2188 738 
L 3669 4666 
L 4325 4666 
L 2547 0 
L 1831 0 
z
" id="DejaVuSans-56" transform="scale(0.015625)"/>
      <path d="M 603 4863 
L 1178 4863 
L 1178 0 
L 603 0 
L 603 4863 
z
" id="DejaVuSans-6c" transform="scale(0.015625)"/>
      <path d="M 1172 4494 
L 1172 3500 
L 2356 3500 
L 2356 3053 
L 1172 3053 
L 1172 1153 
Q 1172 725 1289 603 
Q 1406 481 1766 481 
L 2356 481 
L 2356 0 
L 1766 0 
Q 1100 0 847 248 
Q 594 497 594 1153 
L 594 3053 
L 172 3053 
L 172 3500 
L 594 3500 
L 594 4494 
L 1172 4494 
z
" id="DejaVuSans-74" transform="scale(0.015625)"/>
     </defs>
     <use xlink:href="#DejaVuSans-54"/>
     <use x="46.333984" xlink:href="#DejaVuSans-72"/>
     <use x="87.447266" xlink:href="#DejaVuSans-61"/>
     <use x="148.726562" xlink:href="#DejaVuSans-69"/>
     <use x="176.509766" xlink:href="#DejaVuSans-6e"/>
     <use x="239.888672" xlink:href="#DejaVuSans-69"/>
     <use x="267.671875" xlink:href="#DejaVuSans-6e"/>
     <use x="331.050781" xlink:href="#DejaVuSans-67"/>
     <use x="394.527344" xlink:href="#DejaVuSans-20"/>
     <use x="426.314453" xlink:href="#DejaVuSans-61"/>
     <use x="487.59375" xlink:href="#DejaVuSans-6e"/>
     <use x="550.972656" xlink:href="#DejaVuSans-64"/>
     <use x="614.449219" xlink:href="#DejaVuSans-20"/>
     <use x="646.236328" xlink:href="#DejaVuSans-56"/>
     <use x="706.894531" xlink:href="#DejaVuSans-61"/>
     <use x="768.173828" xlink:href="#DejaVuSans-6c"/>
     <use x="795.957031" xlink:href="#DejaVuSans-69"/>
     <use x="823.740234" xlink:href="#DejaVuSans-64"/>
     <use x="887.216797" xlink:href="#DejaVuSans-61"/>
     <use x="948.496094" xlink:href="#DejaVuSans-74"/>
     <use x="987.705078" xlink:href="#DejaVuSans-69"/>
     <use x="1015.488281" xlink:href="#DejaVuSans-6f"/>
     <use x="1076.669922" xlink:href="#DejaVuSans-6e"/>
     <use x="1140.048828" xlink:href="#DejaVuSans-20"/>
     <use x="1171.835938" xlink:href="#DejaVuSans-41"/>
     <use x="1238.494141" xlink:href="#DejaVuSans-63"/>
     <use x="1293.474609" xlink:href="#DejaVuSans-63"/>
     <use x="1348.455078" xlink:href="#DejaVuSans-75"/>
     <use x="1411.833984" xlink:href="#DejaVuSans-72"/>
     <use x="1452.947266" xlink:href="#DejaVuSans-61"/>
     <use x="1514.226562" xlink:href="#DejaVuSans-63"/>
     <use x="1569.207031" xlink:href="#DejaVuSans-79"/>
    </g>
   </g>
   <g id="legend_1">
    <g id="patch_7">
     <path d="M 239.893438 302.584 
L 407.72 302.584 
Q 409.72 302.584 409.72 300.584 
L 409.72 257.549625 
Q 409.72 255.549625 407.72 255.549625 
L 239.893438 255.549625 
Q 237.893438 255.549625 237.893438 257.549625 
L 237.893438 300.584 
Q 237.893438 302.584 239.893438 302.584 
z
" style="fill:#ffffff;opacity:0.8;stroke:#cccccc;stroke-linejoin:miter;"/>
    </g>
    <g id="line2d_18">
     <path d="M 241.893438 263.648062 
L 261.893438 263.648062 
" style="fill:none;stroke:#1f77b4;stroke-linecap:square;stroke-width:1.5;"/>
    </g>
    <g id="line2d_19"/>
    <g id="text_18">
     <!-- Train Accuracy -->
     <g transform="translate(269.893438 267.148062)scale(0.1 -0.1)">
      <use xlink:href="#DejaVuSans-54"/>
      <use x="46.333984" xlink:href="#DejaVuSans-72"/>
      <use x="87.447266" xlink:href="#DejaVuSans-61"/>
      <use x="148.726562" xlink:href="#DejaVuSans-69"/>
      <use x="176.509766" xlink:href="#DejaVuSans-6e"/>
      <use x="239.888672" xlink:href="#DejaVuSans-20"/>
      <use x="271.675781" xlink:href="#DejaVuSans-41"/>
      <use x="338.333984" xlink:href="#DejaVuSans-63"/>
      <use x="393.314453" xlink:href="#DejaVuSans-63"/>
      <use x="448.294922" xlink:href="#DejaVuSans-75"/>
      <use x="511.673828" xlink:href="#DejaVuSans-72"/>
      <use x="552.787109" xlink:href="#DejaVuSans-61"/>
      <use x="614.066406" xlink:href="#DejaVuSans-63"/>
      <use x="669.046875" xlink:href="#DejaVuSans-79"/>
     </g>
    </g>
    <g id="line2d_20">
     <path d="M 241.893438 278.326188 
L 261.893438 278.326188 
" style="fill:none;stroke:#ff7f0e;stroke-linecap:square;stroke-width:1.5;"/>
    </g>
    <g id="line2d_21"/>
    <g id="text_19">
     <!-- Validation Accuracy -->
     <g transform="translate(269.893438 281.826188)scale(0.1 -0.1)">
      <use xlink:href="#DejaVuSans-56"/>
      <use x="60.658203" xlink:href="#DejaVuSans-61"/>
      <use x="121.9375" xlink:href="#DejaVuSans-6c"/>
      <use x="149.720703" xlink:href="#DejaVuSans-69"/>
      <use x="177.503906" xlink:href="#DejaVuSans-64"/>
      <use x="240.980469" xlink:href="#DejaVuSans-61"/>
      <use x="302.259766" xlink:href="#DejaVuSans-74"/>
      <use x="341.46875" xlink:href="#DejaVuSans-69"/>
      <use x="369.251953" xlink:href="#DejaVuSans-6f"/>
      <use x="430.433594" xlink:href="#DejaVuSans-6e"/>
      <use x="493.8125" xlink:href="#DejaVuSans-20"/>
      <use x="525.599609" xlink:href="#DejaVuSans-41"/>
      <use x="592.257812" xlink:href="#DejaVuSans-63"/>
      <use x="647.238281" xlink:href="#DejaVuSans-63"/>
      <use x="702.21875" xlink:href="#DejaVuSans-75"/>
      <use x="765.597656" xlink:href="#DejaVuSans-72"/>
      <use x="806.710938" xlink:href="#DejaVuSans-61"/>
      <use x="867.990234" xlink:href="#DejaVuSans-63"/>
      <use x="922.970703" xlink:href="#DejaVuSans-79"/>
     </g>
    </g>
    <g id="line2d_22">
     <path d="M 241.893438 293.004312 
L 261.893438 293.004312 
" style="fill:none;stroke:#2ca02c;stroke-linecap:square;stroke-width:1.5;"/>
    </g>
    <g id="line2d_23"/>
    <g id="text_20">
     <!-- Robust Validation Accuracy -->
     <g transform="translate(269.893438 296.504312)scale(0.1 -0.1)">
      <defs>
       <path d="M 2841 2188 
Q 3044 2119 3236 1894 
Q 3428 1669 3622 1275 
L 4263 0 
L 3584 0 
L 2988 1197 
Q 2756 1666 2539 1819 
Q 2322 1972 1947 1972 
L 1259 1972 
L 1259 0 
L 628 0 
L 628 4666 
L 2053 4666 
Q 2853 4666 3247 4331 
Q 3641 3997 3641 3322 
Q 3641 2881 3436 2590 
Q 3231 2300 2841 2188 
z
M 1259 4147 
L 1259 2491 
L 2053 2491 
Q 2509 2491 2742 2702 
Q 2975 2913 2975 3322 
Q 2975 3731 2742 3939 
Q 2509 4147 2053 4147 
L 1259 4147 
z
" id="DejaVuSans-52" transform="scale(0.015625)"/>
       <path d="M 3116 1747 
Q 3116 2381 2855 2742 
Q 2594 3103 2138 3103 
Q 1681 3103 1420 2742 
Q 1159 2381 1159 1747 
Q 1159 1113 1420 752 
Q 1681 391 2138 391 
Q 2594 391 2855 752 
Q 3116 1113 3116 1747 
z
M 1159 2969 
Q 1341 3281 1617 3432 
Q 1894 3584 2278 3584 
Q 2916 3584 3314 3078 
Q 3713 2572 3713 1747 
Q 3713 922 3314 415 
Q 2916 -91 2278 -91 
Q 1894 -91 1617 61 
Q 1341 213 1159 525 
L 1159 0 
L 581 0 
L 581 4863 
L 1159 4863 
L 1159 2969 
z
" id="DejaVuSans-62" transform="scale(0.015625)"/>
      </defs>
      <use xlink:href="#DejaVuSans-52"/>
      <use x="64.982422" xlink:href="#DejaVuSans-6f"/>
      <use x="126.164062" xlink:href="#DejaVuSans-62"/>
      <use x="189.640625" xlink:href="#DejaVuSans-75"/>
      <use x="253.019531" xlink:href="#DejaVuSans-73"/>
      <use x="305.119141" xlink:href="#DejaVuSans-74"/>
      <use x="344.328125" xlink:href="#DejaVuSans-20"/>
      <use x="376.115234" xlink:href="#DejaVuSans-56"/>
      <use x="436.773438" xlink:href="#DejaVuSans-61"/>
      <use x="498.052734" xlink:href="#DejaVuSans-6c"/>
      <use x="525.835938" xlink:href="#DejaVuSans-69"/>
      <use x="553.619141" xlink:href="#DejaVuSans-64"/>
      <use x="617.095703" xlink:href="#DejaVuSans-61"/>
      <use x="678.375" xlink:href="#DejaVuSans-74"/>
      <use x="717.583984" xlink:href="#DejaVuSans-69"/>
      <use x="745.367188" xlink:href="#DejaVuSans-6f"/>
      <use x="806.548828" xlink:href="#DejaVuSans-6e"/>
      <use x="869.927734" xlink:href="#DejaVuSans-20"/>
      <use x="901.714844" xlink:href="#DejaVuSans-41"/>
      <use x="968.373047" xlink:href="#DejaVuSans-63"/>
      <use x="1023.353516" xlink:href="#DejaVuSans-63"/>
      <use x="1078.333984" xlink:href="#DejaVuSans-75"/>
      <use x="1141.712891" xlink:href="#DejaVuSans-72"/>
      <use x="1182.826172" xlink:href="#DejaVuSans-61"/>
      <use x="1244.105469" xlink:href="#DejaVuSans-63"/>
      <use x="1299.085938" xlink:href="#DejaVuSans-79"/>
     </g>
    </g>
   </g>
  </g>
 </g>
 <defs>
  <clipPath id="p739c3394db">
   <rect height="266.112" width="357.12" x="57.6" y="41.472"/>
  </clipPath>
 </defs>
</svg>
