<?xml version="1.0" encoding="utf-8" standalone="no"?>
<!DOCTYPE svg PUBLIC "-//W3C//DTD SVG 1.1//EN"
  "http://www.w3.org/Graphics/SVG/1.1/DTD/svg11.dtd">
<svg xmlns:xlink="http://www.w3.org/1999/xlink" width="460.8pt" height="345.6pt" viewBox="0 0 460.8 345.6" xmlns="http://www.w3.org/2000/svg" version="1.1">
 <metadata>
  <rdf:RDF xmlns:dc="http://purl.org/dc/elements/1.1/" xmlns:cc="http://creativecommons.org/ns#" xmlns:rdf="http://www.w3.org/1999/02/22-rdf-syntax-ns#">
   <cc:Work>
    <dc:type rdf:resource="http://purl.org/dc/dcmitype/StillImage"/>
    <dc:date>2023-11-12T15:55:27.411275</dc:date>
    <dc:format>image/svg+xml</dc:format>
    <dc:creator>
     <cc:Agent>
      <dc:title>Matplotlib v3.7.0, https://matplotlib.org/</dc:title>
     </cc:Agent>
    </dc:creator>
   </cc:Work>
  </rdf:RDF>
 </metadata>
 <defs>
  <style type="text/css">*{stroke-linejoin: round; stroke-linecap: butt}</style>
 </defs>
 <g id="figure_1">
  <g id="patch_1">
   <path d="M 0 345.6 
L 460.8 345.6 
L 460.8 0 
L 0 0 
z
" style="fill: #ffffff"/>
  </g>
  <g id="axes_1">
   <g id="patch_2">
    <path d="M 57.6 307.584 
L 414.72 307.584 
L 414.72 41.472 
L 57.6 41.472 
z
" style="fill: #ffffff"/>
   </g>
   <g id="matplotlib.axis_1">
    <g id="xtick_1">
     <g id="line2d_1">
      <defs>
       <path id="m1380eb4cb9" d="M 0 0 
L 0 3.5 
" style="stroke: #000000; stroke-width: 0.8"/>
      </defs>
      <g>
       <use xlink:href="#m1380eb4cb9" x="73.832727" y="307.584" style="stroke: #000000; stroke-width: 0.8"/>
      </g>
     </g>
     <g id="text_1">
      <!-- 1 -->
      <g transform="translate(70.651477 322.182437) scale(0.1 -0.1)">
       <defs>
        <path id="DejaVuSans-31" d="M 794 531 
L 1825 531 
L 1825 4091 
L 703 3866 
L 703 4441 
L 1819 4666 
L 2450 4666 
L 2450 531 
L 3481 531 
L 3481 0 
L 794 0 
L 794 531 
z
" transform="scale(0.015625)"/>
       </defs>
       <use xlink:href="#DejaVuSans-31"/>
      </g>
     </g>
    </g>
    <g id="xtick_2">
     <g id="line2d_2">
      <g>
       <use xlink:href="#m1380eb4cb9" x="109.555234" y="307.584" style="stroke: #000000; stroke-width: 0.8"/>
      </g>
     </g>
     <g id="text_2">
      <!-- 35 -->
      <g transform="translate(103.192734 322.182437) scale(0.1 -0.1)">
       <defs>
        <path id="DejaVuSans-33" d="M 2597 2516 
Q 3050 2419 3304 2112 
Q 3559 1806 3559 1356 
Q 3559 666 3084 287 
Q 2609 -91 1734 -91 
Q 1441 -91 1130 -33 
Q 819 25 488 141 
L 488 750 
Q 750 597 1062 519 
Q 1375 441 1716 441 
Q 2309 441 2620 675 
Q 2931 909 2931 1356 
Q 2931 1769 2642 2001 
Q 2353 2234 1838 2234 
L 1294 2234 
L 1294 2753 
L 1863 2753 
Q 2328 2753 2575 2939 
Q 2822 3125 2822 3475 
Q 2822 3834 2567 4026 
Q 2313 4219 1838 4219 
Q 1578 4219 1281 4162 
Q 984 4106 628 3988 
L 628 4550 
Q 988 4650 1302 4700 
Q 1616 4750 1894 4750 
Q 2613 4750 3031 4423 
Q 3450 4097 3450 3541 
Q 3450 3153 3228 2886 
Q 3006 2619 2597 2516 
z
" transform="scale(0.015625)"/>
        <path id="DejaVuSans-35" d="M 691 4666 
L 3169 4666 
L 3169 4134 
L 1269 4134 
L 1269 2991 
Q 1406 3038 1543 3061 
Q 1681 3084 1819 3084 
Q 2600 3084 3056 2656 
Q 3513 2228 3513 1497 
Q 3513 744 3044 326 
Q 2575 -91 1722 -91 
Q 1428 -91 1123 -41 
Q 819 9 494 109 
L 494 744 
Q 775 591 1075 516 
Q 1375 441 1709 441 
Q 2250 441 2565 725 
Q 2881 1009 2881 1497 
Q 2881 1984 2565 2268 
Q 2250 2553 1709 2553 
Q 1456 2553 1204 2497 
Q 953 2441 691 2322 
L 691 4666 
z
" transform="scale(0.015625)"/>
       </defs>
       <use xlink:href="#DejaVuSans-33"/>
       <use xlink:href="#DejaVuSans-35" x="63.623047"/>
      </g>
     </g>
    </g>
    <g id="xtick_3">
     <g id="line2d_3">
      <g>
       <use xlink:href="#m1380eb4cb9" x="145.277741" y="307.584" style="stroke: #000000; stroke-width: 0.8"/>
      </g>
     </g>
     <g id="text_3">
      <!-- 69 -->
      <g transform="translate(138.915241 322.182437) scale(0.1 -0.1)">
       <defs>
        <path id="DejaVuSans-36" d="M 2113 2584 
Q 1688 2584 1439 2293 
Q 1191 2003 1191 1497 
Q 1191 994 1439 701 
Q 1688 409 2113 409 
Q 2538 409 2786 701 
Q 3034 994 3034 1497 
Q 3034 2003 2786 2293 
Q 2538 2584 2113 2584 
z
M 3366 4563 
L 3366 3988 
Q 3128 4100 2886 4159 
Q 2644 4219 2406 4219 
Q 1781 4219 1451 3797 
Q 1122 3375 1075 2522 
Q 1259 2794 1537 2939 
Q 1816 3084 2150 3084 
Q 2853 3084 3261 2657 
Q 3669 2231 3669 1497 
Q 3669 778 3244 343 
Q 2819 -91 2113 -91 
Q 1303 -91 875 529 
Q 447 1150 447 2328 
Q 447 3434 972 4092 
Q 1497 4750 2381 4750 
Q 2619 4750 2861 4703 
Q 3103 4656 3366 4563 
z
" transform="scale(0.015625)"/>
        <path id="DejaVuSans-39" d="M 703 97 
L 703 672 
Q 941 559 1184 500 
Q 1428 441 1663 441 
Q 2288 441 2617 861 
Q 2947 1281 2994 2138 
Q 2813 1869 2534 1725 
Q 2256 1581 1919 1581 
Q 1219 1581 811 2004 
Q 403 2428 403 3163 
Q 403 3881 828 4315 
Q 1253 4750 1959 4750 
Q 2769 4750 3195 4129 
Q 3622 3509 3622 2328 
Q 3622 1225 3098 567 
Q 2575 -91 1691 -91 
Q 1453 -91 1209 -44 
Q 966 3 703 97 
z
M 1959 2075 
Q 2384 2075 2632 2365 
Q 2881 2656 2881 3163 
Q 2881 3666 2632 3958 
Q 2384 4250 1959 4250 
Q 1534 4250 1286 3958 
Q 1038 3666 1038 3163 
Q 1038 2656 1286 2365 
Q 1534 2075 1959 2075 
z
" transform="scale(0.015625)"/>
       </defs>
       <use xlink:href="#DejaVuSans-36"/>
       <use xlink:href="#DejaVuSans-39" x="63.623047"/>
      </g>
     </g>
    </g>
    <g id="xtick_4">
     <g id="line2d_4">
      <g>
       <use xlink:href="#m1380eb4cb9" x="182.050909" y="307.584" style="stroke: #000000; stroke-width: 0.8"/>
      </g>
     </g>
     <g id="text_4">
      <!-- 104 -->
      <g transform="translate(172.507159 322.182437) scale(0.1 -0.1)">
       <defs>
        <path id="DejaVuSans-30" d="M 2034 4250 
Q 1547 4250 1301 3770 
Q 1056 3291 1056 2328 
Q 1056 1369 1301 889 
Q 1547 409 2034 409 
Q 2525 409 2770 889 
Q 3016 1369 3016 2328 
Q 3016 3291 2770 3770 
Q 2525 4250 2034 4250 
z
M 2034 4750 
Q 2819 4750 3233 4129 
Q 3647 3509 3647 2328 
Q 3647 1150 3233 529 
Q 2819 -91 2034 -91 
Q 1250 -91 836 529 
Q 422 1150 422 2328 
Q 422 3509 836 4129 
Q 1250 4750 2034 4750 
z
" transform="scale(0.015625)"/>
        <path id="DejaVuSans-34" d="M 2419 4116 
L 825 1625 
L 2419 1625 
L 2419 4116 
z
M 2253 4666 
L 3047 4666 
L 3047 1625 
L 3713 1625 
L 3713 1100 
L 3047 1100 
L 3047 0 
L 2419 0 
L 2419 1100 
L 313 1100 
L 313 1709 
L 2253 4666 
z
" transform="scale(0.015625)"/>
       </defs>
       <use xlink:href="#DejaVuSans-31"/>
       <use xlink:href="#DejaVuSans-30" x="63.623047"/>
       <use xlink:href="#DejaVuSans-34" x="127.246094"/>
      </g>
     </g>
    </g>
    <g id="xtick_5">
     <g id="line2d_5">
      <g>
       <use xlink:href="#m1380eb4cb9" x="217.773416" y="307.584" style="stroke: #000000; stroke-width: 0.8"/>
      </g>
     </g>
     <g id="text_5">
      <!-- 138 -->
      <g transform="translate(208.229666 322.182437) scale(0.1 -0.1)">
       <defs>
        <path id="DejaVuSans-38" d="M 2034 2216 
Q 1584 2216 1326 1975 
Q 1069 1734 1069 1313 
Q 1069 891 1326 650 
Q 1584 409 2034 409 
Q 2484 409 2743 651 
Q 3003 894 3003 1313 
Q 3003 1734 2745 1975 
Q 2488 2216 2034 2216 
z
M 1403 2484 
Q 997 2584 770 2862 
Q 544 3141 544 3541 
Q 544 4100 942 4425 
Q 1341 4750 2034 4750 
Q 2731 4750 3128 4425 
Q 3525 4100 3525 3541 
Q 3525 3141 3298 2862 
Q 3072 2584 2669 2484 
Q 3125 2378 3379 2068 
Q 3634 1759 3634 1313 
Q 3634 634 3220 271 
Q 2806 -91 2034 -91 
Q 1263 -91 848 271 
Q 434 634 434 1313 
Q 434 1759 690 2068 
Q 947 2378 1403 2484 
z
M 1172 3481 
Q 1172 3119 1398 2916 
Q 1625 2713 2034 2713 
Q 2441 2713 2670 2916 
Q 2900 3119 2900 3481 
Q 2900 3844 2670 4047 
Q 2441 4250 2034 4250 
Q 1625 4250 1398 4047 
Q 1172 3844 1172 3481 
z
" transform="scale(0.015625)"/>
       </defs>
       <use xlink:href="#DejaVuSans-31"/>
       <use xlink:href="#DejaVuSans-33" x="63.623047"/>
       <use xlink:href="#DejaVuSans-38" x="127.246094"/>
      </g>
     </g>
    </g>
    <g id="xtick_6">
     <g id="line2d_6">
      <g>
       <use xlink:href="#m1380eb4cb9" x="253.495922" y="307.584" style="stroke: #000000; stroke-width: 0.8"/>
      </g>
     </g>
     <g id="text_6">
      <!-- 172 -->
      <g transform="translate(243.952172 322.182437) scale(0.1 -0.1)">
       <defs>
        <path id="DejaVuSans-37" d="M 525 4666 
L 3525 4666 
L 3525 4397 
L 1831 0 
L 1172 0 
L 2766 4134 
L 525 4134 
L 525 4666 
z
" transform="scale(0.015625)"/>
        <path id="DejaVuSans-32" d="M 1228 531 
L 3431 531 
L 3431 0 
L 469 0 
L 469 531 
Q 828 903 1448 1529 
Q 2069 2156 2228 2338 
Q 2531 2678 2651 2914 
Q 2772 3150 2772 3378 
Q 2772 3750 2511 3984 
Q 2250 4219 1831 4219 
Q 1534 4219 1204 4116 
Q 875 4013 500 3803 
L 500 4441 
Q 881 4594 1212 4672 
Q 1544 4750 1819 4750 
Q 2544 4750 2975 4387 
Q 3406 4025 3406 3419 
Q 3406 3131 3298 2873 
Q 3191 2616 2906 2266 
Q 2828 2175 2409 1742 
Q 1991 1309 1228 531 
z
" transform="scale(0.015625)"/>
       </defs>
       <use xlink:href="#DejaVuSans-31"/>
       <use xlink:href="#DejaVuSans-37" x="63.623047"/>
       <use xlink:href="#DejaVuSans-32" x="127.246094"/>
      </g>
     </g>
    </g>
    <g id="xtick_7">
     <g id="line2d_7">
      <g>
       <use xlink:href="#m1380eb4cb9" x="290.269091" y="307.584" style="stroke: #000000; stroke-width: 0.8"/>
      </g>
     </g>
     <g id="text_7">
      <!-- 207 -->
      <g transform="translate(280.725341 322.182437) scale(0.1 -0.1)">
       <use xlink:href="#DejaVuSans-32"/>
       <use xlink:href="#DejaVuSans-30" x="63.623047"/>
       <use xlink:href="#DejaVuSans-37" x="127.246094"/>
      </g>
     </g>
    </g>
    <g id="xtick_8">
     <g id="line2d_8">
      <g>
       <use xlink:href="#m1380eb4cb9" x="325.991598" y="307.584" style="stroke: #000000; stroke-width: 0.8"/>
      </g>
     </g>
     <g id="text_8">
      <!-- 241 -->
      <g transform="translate(316.447848 322.182437) scale(0.1 -0.1)">
       <use xlink:href="#DejaVuSans-32"/>
       <use xlink:href="#DejaVuSans-34" x="63.623047"/>
       <use xlink:href="#DejaVuSans-31" x="127.246094"/>
      </g>
     </g>
    </g>
    <g id="xtick_9">
     <g id="line2d_9">
      <g>
       <use xlink:href="#m1380eb4cb9" x="361.714104" y="307.584" style="stroke: #000000; stroke-width: 0.8"/>
      </g>
     </g>
     <g id="text_9">
      <!-- 275 -->
      <g transform="translate(352.170354 322.182437) scale(0.1 -0.1)">
       <use xlink:href="#DejaVuSans-32"/>
       <use xlink:href="#DejaVuSans-37" x="63.623047"/>
       <use xlink:href="#DejaVuSans-35" x="127.246094"/>
      </g>
     </g>
    </g>
    <g id="xtick_10">
     <g id="line2d_10">
      <g>
       <use xlink:href="#m1380eb4cb9" x="398.487273" y="307.584" style="stroke: #000000; stroke-width: 0.8"/>
      </g>
     </g>
     <g id="text_10">
      <!-- 310 -->
      <g transform="translate(388.943523 322.182437) scale(0.1 -0.1)">
       <use xlink:href="#DejaVuSans-33"/>
       <use xlink:href="#DejaVuSans-31" x="63.623047"/>
       <use xlink:href="#DejaVuSans-30" x="127.246094"/>
      </g>
     </g>
    </g>
    <g id="text_11">
     <!-- Epochs -->
     <g transform="translate(218.244375 335.860562) scale(0.1 -0.1)">
      <defs>
       <path id="DejaVuSans-45" d="M 628 4666 
L 3578 4666 
L 3578 4134 
L 1259 4134 
L 1259 2753 
L 3481 2753 
L 3481 2222 
L 1259 2222 
L 1259 531 
L 3634 531 
L 3634 0 
L 628 0 
L 628 4666 
z
" transform="scale(0.015625)"/>
       <path id="DejaVuSans-70" d="M 1159 525 
L 1159 -1331 
L 581 -1331 
L 581 3500 
L 1159 3500 
L 1159 2969 
Q 1341 3281 1617 3432 
Q 1894 3584 2278 3584 
Q 2916 3584 3314 3078 
Q 3713 2572 3713 1747 
Q 3713 922 3314 415 
Q 2916 -91 2278 -91 
Q 1894 -91 1617 61 
Q 1341 213 1159 525 
z
M 3116 1747 
Q 3116 2381 2855 2742 
Q 2594 3103 2138 3103 
Q 1681 3103 1420 2742 
Q 1159 2381 1159 1747 
Q 1159 1113 1420 752 
Q 1681 391 2138 391 
Q 2594 391 2855 752 
Q 3116 1113 3116 1747 
z
" transform="scale(0.015625)"/>
       <path id="DejaVuSans-6f" d="M 1959 3097 
Q 1497 3097 1228 2736 
Q 959 2375 959 1747 
Q 959 1119 1226 758 
Q 1494 397 1959 397 
Q 2419 397 2687 759 
Q 2956 1122 2956 1747 
Q 2956 2369 2687 2733 
Q 2419 3097 1959 3097 
z
M 1959 3584 
Q 2709 3584 3137 3096 
Q 3566 2609 3566 1747 
Q 3566 888 3137 398 
Q 2709 -91 1959 -91 
Q 1206 -91 779 398 
Q 353 888 353 1747 
Q 353 2609 779 3096 
Q 1206 3584 1959 3584 
z
" transform="scale(0.015625)"/>
       <path id="DejaVuSans-63" d="M 3122 3366 
L 3122 2828 
Q 2878 2963 2633 3030 
Q 2388 3097 2138 3097 
Q 1578 3097 1268 2742 
Q 959 2388 959 1747 
Q 959 1106 1268 751 
Q 1578 397 2138 397 
Q 2388 397 2633 464 
Q 2878 531 3122 666 
L 3122 134 
Q 2881 22 2623 -34 
Q 2366 -91 2075 -91 
Q 1284 -91 818 406 
Q 353 903 353 1747 
Q 353 2603 823 3093 
Q 1294 3584 2113 3584 
Q 2378 3584 2631 3529 
Q 2884 3475 3122 3366 
z
" transform="scale(0.015625)"/>
       <path id="DejaVuSans-68" d="M 3513 2113 
L 3513 0 
L 2938 0 
L 2938 2094 
Q 2938 2591 2744 2837 
Q 2550 3084 2163 3084 
Q 1697 3084 1428 2787 
Q 1159 2491 1159 1978 
L 1159 0 
L 581 0 
L 581 4863 
L 1159 4863 
L 1159 2956 
Q 1366 3272 1645 3428 
Q 1925 3584 2291 3584 
Q 2894 3584 3203 3211 
Q 3513 2838 3513 2113 
z
" transform="scale(0.015625)"/>
       <path id="DejaVuSans-73" d="M 2834 3397 
L 2834 2853 
Q 2591 2978 2328 3040 
Q 2066 3103 1784 3103 
Q 1356 3103 1142 2972 
Q 928 2841 928 2578 
Q 928 2378 1081 2264 
Q 1234 2150 1697 2047 
L 1894 2003 
Q 2506 1872 2764 1633 
Q 3022 1394 3022 966 
Q 3022 478 2636 193 
Q 2250 -91 1575 -91 
Q 1294 -91 989 -36 
Q 684 19 347 128 
L 347 722 
Q 666 556 975 473 
Q 1284 391 1588 391 
Q 1994 391 2212 530 
Q 2431 669 2431 922 
Q 2431 1156 2273 1281 
Q 2116 1406 1581 1522 
L 1381 1569 
Q 847 1681 609 1914 
Q 372 2147 372 2553 
Q 372 3047 722 3315 
Q 1072 3584 1716 3584 
Q 2034 3584 2315 3537 
Q 2597 3491 2834 3397 
z
" transform="scale(0.015625)"/>
      </defs>
      <use xlink:href="#DejaVuSans-45"/>
      <use xlink:href="#DejaVuSans-70" x="63.183594"/>
      <use xlink:href="#DejaVuSans-6f" x="126.660156"/>
      <use xlink:href="#DejaVuSans-63" x="187.841797"/>
      <use xlink:href="#DejaVuSans-68" x="242.822266"/>
      <use xlink:href="#DejaVuSans-73" x="306.201172"/>
     </g>
    </g>
   </g>
   <g id="matplotlib.axis_2">
    <g id="ytick_1">
     <g id="line2d_11">
      <defs>
       <path id="ma9e85a755c" d="M 0 0 
L -3.5 0 
" style="stroke: #000000; stroke-width: 0.8"/>
      </defs>
      <g>
       <use xlink:href="#ma9e85a755c" x="57.6" y="278.505122" style="stroke: #000000; stroke-width: 0.8"/>
      </g>
     </g>
     <g id="text_12">
      <!-- 10 -->
      <g transform="translate(37.875 282.304341) scale(0.1 -0.1)">
       <use xlink:href="#DejaVuSans-31"/>
       <use xlink:href="#DejaVuSans-30" x="63.623047"/>
      </g>
     </g>
    </g>
    <g id="ytick_2">
     <g id="line2d_12">
      <g>
       <use xlink:href="#ma9e85a755c" x="57.6" y="247.229104" style="stroke: #000000; stroke-width: 0.8"/>
      </g>
     </g>
     <g id="text_13">
      <!-- 20 -->
      <g transform="translate(37.875 251.028323) scale(0.1 -0.1)">
       <use xlink:href="#DejaVuSans-32"/>
       <use xlink:href="#DejaVuSans-30" x="63.623047"/>
      </g>
     </g>
    </g>
    <g id="ytick_3">
     <g id="line2d_13">
      <g>
       <use xlink:href="#ma9e85a755c" x="57.6" y="215.953086" style="stroke: #000000; stroke-width: 0.8"/>
      </g>
     </g>
     <g id="text_14">
      <!-- 30 -->
      <g transform="translate(37.875 219.752305) scale(0.1 -0.1)">
       <use xlink:href="#DejaVuSans-33"/>
       <use xlink:href="#DejaVuSans-30" x="63.623047"/>
      </g>
     </g>
    </g>
    <g id="ytick_4">
     <g id="line2d_14">
      <g>
       <use xlink:href="#ma9e85a755c" x="57.6" y="184.677068" style="stroke: #000000; stroke-width: 0.8"/>
      </g>
     </g>
     <g id="text_15">
      <!-- 40 -->
      <g transform="translate(37.875 188.476287) scale(0.1 -0.1)">
       <use xlink:href="#DejaVuSans-34"/>
       <use xlink:href="#DejaVuSans-30" x="63.623047"/>
      </g>
     </g>
    </g>
    <g id="ytick_5">
     <g id="line2d_15">
      <g>
       <use xlink:href="#ma9e85a755c" x="57.6" y="153.40105" style="stroke: #000000; stroke-width: 0.8"/>
      </g>
     </g>
     <g id="text_16">
      <!-- 50 -->
      <g transform="translate(37.875 157.200269) scale(0.1 -0.1)">
       <use xlink:href="#DejaVuSans-35"/>
       <use xlink:href="#DejaVuSans-30" x="63.623047"/>
      </g>
     </g>
    </g>
    <g id="ytick_6">
     <g id="line2d_16">
      <g>
       <use xlink:href="#ma9e85a755c" x="57.6" y="122.125032" style="stroke: #000000; stroke-width: 0.8"/>
      </g>
     </g>
     <g id="text_17">
      <!-- 60 -->
      <g transform="translate(37.875 125.92425) scale(0.1 -0.1)">
       <use xlink:href="#DejaVuSans-36"/>
       <use xlink:href="#DejaVuSans-30" x="63.623047"/>
      </g>
     </g>
    </g>
    <g id="ytick_7">
     <g id="line2d_17">
      <g>
       <use xlink:href="#ma9e85a755c" x="57.6" y="90.849014" style="stroke: #000000; stroke-width: 0.8"/>
      </g>
     </g>
     <g id="text_18">
      <!-- 70 -->
      <g transform="translate(37.875 94.648232) scale(0.1 -0.1)">
       <use xlink:href="#DejaVuSans-37"/>
       <use xlink:href="#DejaVuSans-30" x="63.623047"/>
      </g>
     </g>
    </g>
    <g id="ytick_8">
     <g id="line2d_18">
      <g>
       <use xlink:href="#ma9e85a755c" x="57.6" y="59.572995" style="stroke: #000000; stroke-width: 0.8"/>
      </g>
     </g>
     <g id="text_19">
      <!-- 80 -->
      <g transform="translate(37.875 63.372214) scale(0.1 -0.1)">
       <use xlink:href="#DejaVuSans-38"/>
       <use xlink:href="#DejaVuSans-30" x="63.623047"/>
      </g>
     </g>
    </g>
    <g id="text_20">
     <!-- Accuracy -->
     <g transform="translate(31.795312 197.356125) rotate(-90) scale(0.1 -0.1)">
      <defs>
       <path id="DejaVuSans-41" d="M 2188 4044 
L 1331 1722 
L 3047 1722 
L 2188 4044 
z
M 1831 4666 
L 2547 4666 
L 4325 0 
L 3669 0 
L 3244 1197 
L 1141 1197 
L 716 0 
L 50 0 
L 1831 4666 
z
" transform="scale(0.015625)"/>
       <path id="DejaVuSans-75" d="M 544 1381 
L 544 3500 
L 1119 3500 
L 1119 1403 
Q 1119 906 1312 657 
Q 1506 409 1894 409 
Q 2359 409 2629 706 
Q 2900 1003 2900 1516 
L 2900 3500 
L 3475 3500 
L 3475 0 
L 2900 0 
L 2900 538 
Q 2691 219 2414 64 
Q 2138 -91 1772 -91 
Q 1169 -91 856 284 
Q 544 659 544 1381 
z
M 1991 3584 
L 1991 3584 
z
" transform="scale(0.015625)"/>
       <path id="DejaVuSans-72" d="M 2631 2963 
Q 2534 3019 2420 3045 
Q 2306 3072 2169 3072 
Q 1681 3072 1420 2755 
Q 1159 2438 1159 1844 
L 1159 0 
L 581 0 
L 581 3500 
L 1159 3500 
L 1159 2956 
Q 1341 3275 1631 3429 
Q 1922 3584 2338 3584 
Q 2397 3584 2469 3576 
Q 2541 3569 2628 3553 
L 2631 2963 
z
" transform="scale(0.015625)"/>
       <path id="DejaVuSans-61" d="M 2194 1759 
Q 1497 1759 1228 1600 
Q 959 1441 959 1056 
Q 959 750 1161 570 
Q 1363 391 1709 391 
Q 2188 391 2477 730 
Q 2766 1069 2766 1631 
L 2766 1759 
L 2194 1759 
z
M 3341 1997 
L 3341 0 
L 2766 0 
L 2766 531 
Q 2569 213 2275 61 
Q 1981 -91 1556 -91 
Q 1019 -91 701 211 
Q 384 513 384 1019 
Q 384 1609 779 1909 
Q 1175 2209 1959 2209 
L 2766 2209 
L 2766 2266 
Q 2766 2663 2505 2880 
Q 2244 3097 1772 3097 
Q 1472 3097 1187 3025 
Q 903 2953 641 2809 
L 641 3341 
Q 956 3463 1253 3523 
Q 1550 3584 1831 3584 
Q 2591 3584 2966 3190 
Q 3341 2797 3341 1997 
z
" transform="scale(0.015625)"/>
       <path id="DejaVuSans-79" d="M 2059 -325 
Q 1816 -950 1584 -1140 
Q 1353 -1331 966 -1331 
L 506 -1331 
L 506 -850 
L 844 -850 
Q 1081 -850 1212 -737 
Q 1344 -625 1503 -206 
L 1606 56 
L 191 3500 
L 800 3500 
L 1894 763 
L 2988 3500 
L 3597 3500 
L 2059 -325 
z
" transform="scale(0.015625)"/>
      </defs>
      <use xlink:href="#DejaVuSans-41"/>
      <use xlink:href="#DejaVuSans-63" x="66.658203"/>
      <use xlink:href="#DejaVuSans-63" x="121.638672"/>
      <use xlink:href="#DejaVuSans-75" x="176.619141"/>
      <use xlink:href="#DejaVuSans-72" x="239.998047"/>
      <use xlink:href="#DejaVuSans-61" x="281.111328"/>
      <use xlink:href="#DejaVuSans-63" x="342.390625"/>
      <use xlink:href="#DejaVuSans-79" x="397.371094"/>
     </g>
    </g>
   </g>
   <g id="line2d_19">
    <path d="M 73.832727 295.488 
L 74.883389 288.244474 
L 75.934051 283.20278 
L 76.984713 276.553499 
L 78.035375 266.91423 
L 79.086037 265.638168 
L 80.136699 261.54101 
L 81.187361 253.878386 
L 82.238023 242.719102 
L 83.288685 242.881738 
L 84.339347 264.218237 
L 85.390009 249.537274 
L 86.440671 248.792905 
L 87.491333 242.575233 
L 88.541995 239.685329 
L 89.592657 226.580677 
L 90.643319 220.69453 
L 92.744643 211.055262 
L 93.795305 202.860945 
L 94.845966 204.481043 
L 95.896628 202.185383 
L 96.94729 191.357625 
L 97.997952 187.729607 
L 99.048614 183.569897 
L 101.149938 179.860561 
L 102.2006 186.215848 
L 103.251262 169.583262 
L 104.301924 177.245886 
L 105.352586 204.737506 
L 106.403248 200.634092 
L 107.45391 201.578628 
L 108.504572 186.835113 
L 109.555234 194.022342 
L 110.605896 186.284655 
L 111.656558 185.896833 
L 112.70722 183.144543 
L 113.757882 182.393919 
L 114.808544 185.746708 
L 115.859206 169.664579 
L 116.909868 172.004025 
L 117.96053 168.632471 
L 119.011192 170.627881 
L 120.061853 174.362237 
L 121.112515 151.1179 
L 122.163177 175.732127 
L 123.213839 167.168753 
L 124.264501 161.489028 
L 125.315163 163.465672 
L 126.365825 161.257586 
L 127.416487 159.349748 
L 128.467149 149.535334 
L 129.517811 143.617911 
L 131.619135 152.637915 
L 132.669797 147.589966 
L 133.720459 134.647949 
L 134.771121 134.729267 
L 135.821783 144.725082 
L 136.872445 151.086624 
L 137.923107 137.2939 
L 140.024431 125.477821 
L 141.075093 123.682577 
L 142.125755 133.715924 
L 143.176417 138.551196 
L 144.227079 130.375645 
L 145.277741 126.040789 
L 146.328402 133.659627 
L 147.379064 168.826382 
L 148.429726 164.566588 
L 149.480388 164.153745 
L 150.53105 153.488623 
L 151.581712 167.781763 
L 152.632374 153.56994 
L 153.683036 154.620814 
L 154.733698 152.081202 
L 155.78436 150.698802 
L 156.835022 145.694639 
L 157.885684 154.789705 
L 158.936346 148.015319 
L 159.987008 153.063269 
L 161.03767 147.433586 
L 162.088332 144.812655 
L 163.138994 144.318494 
L 164.189656 126.015768 
L 165.240318 138.957785 
L 166.29098 139.896065 
L 167.341642 139.720919 
L 168.392304 125.659222 
L 169.442966 148.096637 
L 170.493628 133.27806 
L 171.544289 136.030349 
L 172.594951 120.924033 
L 173.645613 135.773886 
L 174.696275 137.287645 
L 175.746937 137.150031 
L 176.797599 139.933596 
L 177.848261 118.009108 
L 178.898923 137.306411 
L 179.949585 127.779736 
L 181.000247 127.829777 
L 182.050909 113.993267 
L 184.152233 121.593339 
L 185.202895 119.522867 
L 186.253557 121.499511 
L 187.304219 125.064977 
L 188.354881 117.333546 
L 189.405543 115.507026 
L 190.456205 122.738042 
L 191.506867 115.394433 
L 192.557529 111.453654 
L 193.608191 109.989937 
L 194.658853 114.481173 
L 195.709515 109.120463 
L 196.760177 110.352738 
L 197.810838 105.010795 
L 198.8615 103.415718 
L 199.912162 104.798118 
L 200.962824 98.029987 
L 202.013486 102.152167 
L 203.064148 98.805633 
L 204.11481 109.608369 
L 205.165472 92.850679 
L 206.216134 97.63591 
L 207.266796 86.789386 
L 208.317458 101.645495 
L 209.36812 86.070038 
L 210.418782 99.381111 
L 211.469444 92.788127 
L 212.520106 80.390313 
L 213.570768 88.615906 
L 214.62143 89.066281 
L 215.672092 109.858577 
L 216.722754 92.8757 
L 217.773416 103.559587 
L 218.824078 99.894038 
L 219.87474 105.454914 
L 220.925402 91.299388 
L 221.976064 86.376543 
L 223.026726 106.330643 
L 224.077387 106.286856 
L 225.128049 90.261024 
L 226.178711 96.997879 
L 227.229373 89.629249 
L 228.280035 86.420329 
L 229.330697 87.95911 
L 230.381359 82.135515 
L 231.432021 118.972409 
L 232.482683 130.582067 
L 233.533345 130.851041 
L 234.584007 119.704268 
L 235.634669 128.67423 
L 236.685331 122.356474 
L 237.735993 114.781423 
L 238.786655 127.936116 
L 239.837317 119.723033 
L 240.887979 115.250563 
L 241.938641 108.088355 
L 242.989303 110.027468 
L 244.039965 116.332713 
L 245.090627 110.790603 
L 246.141289 113.461575 
L 247.191951 109.326885 
L 248.242613 110.09002 
L 249.293274 125.459055 
L 250.343936 100.55709 
L 251.394598 105.974096 
L 252.44526 114.937803 
L 253.495922 106.186773 
L 254.546584 108.544985 
L 255.597246 117.952811 
L 256.647908 104.135066 
L 257.69857 107.475345 
L 258.749232 99.262262 
L 259.799894 102.833984 
L 260.850556 100.55709 
L 261.901218 103.703457 
L 262.95188 95.02749 
L 264.002542 93.663855 
L 265.053204 101.401542 
L 266.103866 100.550834 
L 267.154528 102.990364 
L 268.20519 94.789792 
L 269.255852 110.308952 
L 270.306514 91.36194 
L 271.357176 99.762679 
L 272.407838 97.473274 
L 273.4585 90.692633 
L 274.509162 104.604206 
L 275.559823 107.975761 
L 277.661147 101.007464 
L 278.711809 92.769361 
L 279.762471 116.833129 
L 280.813133 88.89739 
L 281.863795 88.665948 
L 282.914457 99.349835 
L 283.965119 101.714302 
L 285.015781 89.466614 
L 286.066443 95.421567 
L 287.117105 93.376116 
L 288.167767 95.071276 
L 289.218429 96.372358 
L 290.269091 93.51373 
L 291.319753 91.211815 
L 293.421077 103.228062 
L 294.471739 94.527073 
L 295.522401 87.790219 
L 296.573063 95.79688 
L 298.674387 88.659692 
L 299.725049 93.182205 
L 300.775711 102.25225 
L 301.826372 106.812293 
L 302.877034 96.616311 
L 303.927696 80.427844 
L 304.978358 102.496203 
L 306.02902 87.102147 
L 307.079682 92.869444 
L 308.130344 106.011627 
L 309.181006 91.336919 
L 310.231668 89.479124 
L 311.28233 78.413669 
L 312.332992 81.366125 
L 313.383654 86.920746 
L 314.434316 86.401564 
L 315.484978 77.025014 
L 316.53564 81.453698 
L 317.586302 83.536681 
L 318.636964 87.721412 
L 319.687626 84.543768 
L 320.738288 85.225586 
L 321.78895 90.092134 
L 322.839612 85.776043 
L 323.890274 74.260214 
L 324.940936 78.238523 
L 325.991598 75.379895 
L 327.042259 76.44328 
L 328.092921 76.15554 
L 329.143583 78.851533 
L 330.194245 73.872391 
L 331.244907 89.96703 
L 332.295569 77.118842 
L 333.346231 73.159298 
L 334.396893 91.474534 
L 335.447555 75.248536 
L 336.498217 63.676409 
L 337.548879 77.638024 
L 338.599541 77.606748 
L 339.650203 75.423681 
L 340.700865 83.955779 
L 341.751527 78.482476 
L 342.802189 84.850273 
L 343.852851 82.642186 
L 344.903513 89.942009 
L 345.954175 75.286067 
L 347.004837 78.082143 
L 348.055499 86.170121 
L 349.106161 77.431602 
L 350.156823 67.685995 
L 351.207485 68.286494 
L 352.258147 75.104666 
L 353.308808 79.746027 
L 354.35947 82.535848 
L 355.410132 63.41369 
L 356.460794 68.893249 
L 357.511456 68.974567 
L 358.562118 84.093394 
L 359.61278 78.557538 
L 360.663442 83.924503 
L 361.714104 73.171808 
L 362.764766 73.22185 
L 363.815428 77.256456 
L 364.86609 64.45831 
L 365.916752 72.927855 
L 366.967414 65.609267 
L 368.018076 54.062161 
L 370.1194 78.982892 
L 371.170062 62.569238 
L 372.220724 67.773567 
L 373.271386 65.39659 
L 374.322048 71.401586 
L 375.37271 73.615928 
L 376.423372 70.500836 
L 377.474034 74.648036 
L 378.524695 68.980822 
L 379.575357 53.974588 
L 380.626019 61.005437 
L 381.676681 61.993759 
L 382.727343 78.075888 
L 383.778005 70.219352 
L 384.828667 68.705593 
L 385.879329 66.716438 
L 386.929991 67.610932 
L 387.980653 69.287327 
L 389.031315 64.320695 
L 390.081977 55.069249 
L 391.132639 72.865303 
L 392.183301 72.952876 
L 393.233963 68.736869 
L 394.284625 65.871986 
L 395.335287 73.84737 
L 396.385949 76.624681 
L 397.436611 60.486255 
L 398.487273 65.990834 
L 398.487273 65.990834 
" clip-path="url(#peb6b9bc92c)" style="fill: none; stroke: #1f77b4; stroke-width: 1.5; stroke-linecap: square"/>
   </g>
   <g id="line2d_20">
    <path d="M 73.832727 283.978425 
L 74.883389 276.472181 
L 75.934051 274.157756 
L 76.984713 268.090208 
L 78.035375 250.01267 
L 79.086037 247.792072 
L 80.136699 235.156561 
L 81.187361 225.523548 
L 82.238023 213.01314 
L 83.288685 214.139077 
L 84.339347 263.179873 
L 85.390009 233.936796 
L 86.440671 252.483475 
L 87.491333 209.79171 
L 88.541995 220.550661 
L 89.592657 218.298787 
L 90.643319 199.939765 
L 91.693981 188.11743 
L 93.795305 171.979005 
L 95.896628 154.214226 
L 96.94729 153.40105 
L 97.997952 142.235511 
L 99.048614 147.333502 
L 100.099276 138.138353 
L 101.149938 131.195077 
L 102.2006 130.725937 
L 103.251262 127.692163 
L 104.301924 127.00409 
L 105.352586 215.984362 
L 106.403248 216.86009 
L 107.45391 159.062009 
L 109.555234 144.518661 
L 110.605896 149.053683 
L 111.656558 202.87971 
L 112.70722 140.265122 
L 113.757882 148.177955 
L 114.808544 136.793484 
L 115.859206 132.571222 
L 116.909868 132.19591 
L 117.96053 125.346462 
L 119.011192 119.841882 
L 120.061853 124.157973 
L 121.112515 118.184253 
L 122.163177 129.662552 
L 123.213839 111.084597 
L 124.264501 112.742226 
L 125.315163 113.399023 
L 126.365825 108.332308 
L 127.416487 114.587511 
L 128.467149 108.332308 
L 129.517811 106.361919 
L 130.568473 96.885285 
L 131.619135 99.074606 
L 132.669797 94.664688 
L 133.720459 93.632579 
L 134.771121 89.566697 
L 135.821783 94.164271 
L 136.872445 92.44409 
L 137.923107 86.751855 
L 138.973769 83.311493 
L 141.075093 84.43743 
L 142.125755 80.371548 
L 143.176417 83.561701 
L 145.277741 80.058787 
L 146.328402 81.904072 
L 147.379064 139.57705 
L 148.429726 117.245973 
L 149.480388 127.00409 
L 150.53105 118.622118 
L 151.581712 126.972814 
L 152.632374 105.32981 
L 153.683036 144.862697 
L 154.733698 115.61962 
L 155.78436 99.856507 
L 156.835022 103.328145 
L 157.885684 102.827729 
L 158.936346 103.453249 
L 159.987008 95.102552 
L 161.03767 103.359421 
L 162.088332 89.816905 
L 163.138994 99.293538 
L 164.189656 86.658027 
L 166.29098 104.391529 
L 167.341642 96.603801 
L 168.392304 103.265593 
L 169.442966 97.698462 
L 170.493628 87.064615 
L 171.544289 86.251439 
L 172.594951 83.874462 
L 173.645613 112.24181 
L 174.696275 90.849014 
L 175.746937 82.998733 
L 176.797599 86.658027 
L 177.848261 79.057955 
L 178.898923 84.312326 
L 179.949585 88.59714 
L 181.000247 81.341104 
L 182.050909 77.869466 
L 183.101571 76.368217 
L 184.152233 77.181394 
L 185.202895 74.77314 
L 186.253557 79.933683 
L 187.304219 74.77314 
L 188.354881 77.400326 
L 189.405543 74.804416 
L 190.456205 75.555041 
L 191.506867 74.116344 
L 192.557529 72.083403 
L 193.608191 75.211005 
L 194.658853 74.14762 
L 195.709515 75.773973 
L 196.760177 68.142624 
L 197.810838 75.179729 
L 198.8615 71.70809 
L 199.912162 71.207674 
L 200.962824 70.894914 
L 202.013486 67.954968 
L 203.064148 67.173068 
L 204.11481 65.703095 
L 205.165472 65.828199 
L 206.216134 68.267729 
L 207.266796 66.391167 
L 208.317458 70.113014 
L 209.36812 63.982914 
L 210.418782 66.484995 
L 211.469444 66.547548 
L 212.520106 62.950805 
L 213.570768 61.605937 
L 214.62143 63.638878 
L 215.672092 65.265231 
L 216.722754 63.70143 
L 217.773416 64.01419 
L 218.824078 62.731873 
L 219.87474 65.421611 
L 220.925402 61.324452 
L 221.976064 69.956633 
L 223.026726 62.982081 
L 224.077387 63.920362 
L 225.128049 62.262733 
L 227.229373 63.638878 
L 228.280035 61.981249 
L 229.330697 62.356561 
L 230.381359 60.761484 
L 231.432021 115.181756 
L 232.482683 108.519964 
L 233.533345 83.155113 
L 234.584007 94.977448 
L 235.634669 85.625919 
L 236.685331 83.217665 
L 237.735993 86.251439 
L 238.786655 93.757683 
L 239.837317 76.305665 
L 240.887979 78.526262 
L 241.938641 78.369882 
L 242.989303 92.694299 
L 244.039965 91.724742 
L 245.090627 77.306498 
L 246.141289 84.687638 
L 247.191951 78.244778 
L 248.242613 74.46038 
L 249.293274 86.845683 
L 250.343936 78.338606 
L 251.394598 81.747692 
L 253.495922 76.618425 
L 254.546584 86.783131 
L 255.597246 82.216833 
L 256.647908 79.433267 
L 257.69857 79.746027 
L 258.749232 77.025014 
L 259.799894 77.556706 
L 260.850556 80.027511 
L 261.901218 76.493321 
L 262.95188 77.400326 
L 264.002542 76.493321 
L 265.053204 79.120507 
L 266.103866 74.804416 
L 267.154528 79.495819 
L 268.20519 86.095059 
L 269.255852 83.061285 
L 270.306514 73.365719 
L 271.357176 75.899077 
L 272.407838 81.716416 
L 273.4585 72.208507 
L 274.509162 74.429104 
L 275.559823 72.271059 
L 276.610485 77.494154 
L 277.661147 78.807747 
L 278.711809 85.250606 
L 280.813133 69.862805 
L 281.863795 69.112181 
L 282.914457 74.14762 
L 283.965119 69.675149 
L 287.117105 79.933683 
L 288.167767 69.174733 
L 289.218429 70.206842 
L 290.269091 70.894914 
L 291.319753 68.611765 
L 292.370415 69.362389 
L 294.471739 70.081738 
L 295.522401 71.582986 
L 296.573063 66.422443 
L 297.623725 68.111348 
L 298.674387 71.020018 
L 299.725049 70.957466 
L 300.775711 69.862805 
L 302.877034 65.390335 
L 303.927696 67.610932 
L 304.978358 69.237285 
L 306.02902 66.6101 
L 307.079682 64.79609 
L 308.130344 67.767312 
L 309.181006 72.020851 
L 310.231668 69.518769 
L 311.28233 66.578824 
L 312.332992 67.047964 
L 313.383654 65.421611 
L 314.434316 64.48333 
L 315.484978 63.357394 
L 316.53564 59.479167 
L 317.586302 63.23229 
L 318.636964 63.54505 
L 319.687626 60.229792 
L 320.738288 63.23229 
L 321.78895 63.482498 
L 322.839612 65.202679 
L 323.890274 63.982914 
L 324.940936 62.982081 
L 325.991598 61.2619 
L 327.042259 65.140127 
L 328.092921 64.264398 
L 329.143583 59.635548 
L 330.194245 63.23229 
L 331.244907 61.449557 
L 332.295569 63.638878 
L 333.346231 62.294009 
L 334.396893 60.042136 
L 335.447555 59.6981 
L 336.498217 61.699765 
L 337.548879 63.23229 
L 338.599541 61.074244 
L 340.700865 61.856145 
L 341.751527 60.354896 
L 342.802189 59.604271 
L 343.852851 60.135964 
L 344.903513 58.697267 
L 345.954175 56.351566 
L 347.004837 57.977919 
L 348.055499 56.195186 
L 349.106161 56.78943 
L 350.156823 58.165575 
L 351.207485 59.041303 
L 352.258147 58.728543 
L 353.308808 57.88409 
L 354.35947 57.946643 
L 355.410132 58.978751 
L 356.460794 56.63305 
L 357.511456 57.133466 
L 359.61278 61.293176 
L 360.663442 58.134299 
L 361.714104 56.382842 
L 362.764766 59.260235 
L 363.815428 60.980416 
L 364.86609 55.851149 
L 365.916752 56.101357 
L 366.967414 56.883258 
L 368.018076 55.225629 
L 369.068738 58.916199 
L 370.1194 60.229792 
L 371.170062 55.757321 
L 372.220724 56.570498 
L 373.271386 57.540054 
L 374.322048 56.226462 
L 375.37271 58.822371 
L 376.423372 54.662661 
L 377.474034 55.819873 
L 378.524695 55.288181 
L 379.575357 54.19352 
L 380.626019 56.539222 
L 381.676681 55.288181 
L 382.727343 56.007529 
L 383.778005 53.568 
L 384.828667 54.912869 
L 385.879329 55.694769 
L 386.929991 57.57133 
L 387.980653 54.975421 
L 389.031315 55.444561 
L 390.081977 55.632217 
L 391.132639 58.353231 
L 392.183301 54.19352 
L 393.233963 59.072579 
L 394.284625 55.194353 
L 395.335287 56.414118 
L 396.385949 57.164742 
L 397.436611 58.196851 
L 398.487273 54.944145 
L 398.487273 54.944145 
" clip-path="url(#peb6b9bc92c)" style="fill: none; stroke: #ff7f0e; stroke-width: 1.5; stroke-linecap: square"/>
   </g>
   <g id="patch_3">
    <path d="M 57.6 307.584 
L 57.6 41.472 
" style="fill: none; stroke: #000000; stroke-width: 0.8; stroke-linejoin: miter; stroke-linecap: square"/>
   </g>
   <g id="patch_4">
    <path d="M 414.72 307.584 
L 414.72 41.472 
" style="fill: none; stroke: #000000; stroke-width: 0.8; stroke-linejoin: miter; stroke-linecap: square"/>
   </g>
   <g id="patch_5">
    <path d="M 57.6 307.584 
L 414.72 307.584 
" style="fill: none; stroke: #000000; stroke-width: 0.8; stroke-linejoin: miter; stroke-linecap: square"/>
   </g>
   <g id="patch_6">
    <path d="M 57.6 41.472 
L 414.72 41.472 
" style="fill: none; stroke: #000000; stroke-width: 0.8; stroke-linejoin: miter; stroke-linecap: square"/>
   </g>
   <g id="text_21">
    <!-- Training and Validation Accuracy -->
    <g transform="translate(138.4575 35.472) scale(0.12 -0.12)">
     <defs>
      <path id="DejaVuSans-54" d="M -19 4666 
L 3928 4666 
L 3928 4134 
L 2272 4134 
L 2272 0 
L 1638 0 
L 1638 4134 
L -19 4134 
L -19 4666 
z
" transform="scale(0.015625)"/>
      <path id="DejaVuSans-69" d="M 603 3500 
L 1178 3500 
L 1178 0 
L 603 0 
L 603 3500 
z
M 603 4863 
L 1178 4863 
L 1178 4134 
L 603 4134 
L 603 4863 
z
" transform="scale(0.015625)"/>
      <path id="DejaVuSans-6e" d="M 3513 2113 
L 3513 0 
L 2938 0 
L 2938 2094 
Q 2938 2591 2744 2837 
Q 2550 3084 2163 3084 
Q 1697 3084 1428 2787 
Q 1159 2491 1159 1978 
L 1159 0 
L 581 0 
L 581 3500 
L 1159 3500 
L 1159 2956 
Q 1366 3272 1645 3428 
Q 1925 3584 2291 3584 
Q 2894 3584 3203 3211 
Q 3513 2838 3513 2113 
z
" transform="scale(0.015625)"/>
      <path id="DejaVuSans-67" d="M 2906 1791 
Q 2906 2416 2648 2759 
Q 2391 3103 1925 3103 
Q 1463 3103 1205 2759 
Q 947 2416 947 1791 
Q 947 1169 1205 825 
Q 1463 481 1925 481 
Q 2391 481 2648 825 
Q 2906 1169 2906 1791 
z
M 3481 434 
Q 3481 -459 3084 -895 
Q 2688 -1331 1869 -1331 
Q 1566 -1331 1297 -1286 
Q 1028 -1241 775 -1147 
L 775 -588 
Q 1028 -725 1275 -790 
Q 1522 -856 1778 -856 
Q 2344 -856 2625 -561 
Q 2906 -266 2906 331 
L 2906 616 
Q 2728 306 2450 153 
Q 2172 0 1784 0 
Q 1141 0 747 490 
Q 353 981 353 1791 
Q 353 2603 747 3093 
Q 1141 3584 1784 3584 
Q 2172 3584 2450 3431 
Q 2728 3278 2906 2969 
L 2906 3500 
L 3481 3500 
L 3481 434 
z
" transform="scale(0.015625)"/>
      <path id="DejaVuSans-20" transform="scale(0.015625)"/>
      <path id="DejaVuSans-64" d="M 2906 2969 
L 2906 4863 
L 3481 4863 
L 3481 0 
L 2906 0 
L 2906 525 
Q 2725 213 2448 61 
Q 2172 -91 1784 -91 
Q 1150 -91 751 415 
Q 353 922 353 1747 
Q 353 2572 751 3078 
Q 1150 3584 1784 3584 
Q 2172 3584 2448 3432 
Q 2725 3281 2906 2969 
z
M 947 1747 
Q 947 1113 1208 752 
Q 1469 391 1925 391 
Q 2381 391 2643 752 
Q 2906 1113 2906 1747 
Q 2906 2381 2643 2742 
Q 2381 3103 1925 3103 
Q 1469 3103 1208 2742 
Q 947 2381 947 1747 
z
" transform="scale(0.015625)"/>
      <path id="DejaVuSans-56" d="M 1831 0 
L 50 4666 
L 709 4666 
L 2188 738 
L 3669 4666 
L 4325 4666 
L 2547 0 
L 1831 0 
z
" transform="scale(0.015625)"/>
      <path id="DejaVuSans-6c" d="M 603 4863 
L 1178 4863 
L 1178 0 
L 603 0 
L 603 4863 
z
" transform="scale(0.015625)"/>
      <path id="DejaVuSans-74" d="M 1172 4494 
L 1172 3500 
L 2356 3500 
L 2356 3053 
L 1172 3053 
L 1172 1153 
Q 1172 725 1289 603 
Q 1406 481 1766 481 
L 2356 481 
L 2356 0 
L 1766 0 
Q 1100 0 847 248 
Q 594 497 594 1153 
L 594 3053 
L 172 3053 
L 172 3500 
L 594 3500 
L 594 4494 
L 1172 4494 
z
" transform="scale(0.015625)"/>
     </defs>
     <use xlink:href="#DejaVuSans-54"/>
     <use xlink:href="#DejaVuSans-72" x="46.333984"/>
     <use xlink:href="#DejaVuSans-61" x="87.447266"/>
     <use xlink:href="#DejaVuSans-69" x="148.726562"/>
     <use xlink:href="#DejaVuSans-6e" x="176.509766"/>
     <use xlink:href="#DejaVuSans-69" x="239.888672"/>
     <use xlink:href="#DejaVuSans-6e" x="267.671875"/>
     <use xlink:href="#DejaVuSans-67" x="331.050781"/>
     <use xlink:href="#DejaVuSans-20" x="394.527344"/>
     <use xlink:href="#DejaVuSans-61" x="426.314453"/>
     <use xlink:href="#DejaVuSans-6e" x="487.59375"/>
     <use xlink:href="#DejaVuSans-64" x="550.972656"/>
     <use xlink:href="#DejaVuSans-20" x="614.449219"/>
     <use xlink:href="#DejaVuSans-56" x="646.236328"/>
     <use xlink:href="#DejaVuSans-61" x="706.894531"/>
     <use xlink:href="#DejaVuSans-6c" x="768.173828"/>
     <use xlink:href="#DejaVuSans-69" x="795.957031"/>
     <use xlink:href="#DejaVuSans-64" x="823.740234"/>
     <use xlink:href="#DejaVuSans-61" x="887.216797"/>
     <use xlink:href="#DejaVuSans-74" x="948.496094"/>
     <use xlink:href="#DejaVuSans-69" x="987.705078"/>
     <use xlink:href="#DejaVuSans-6f" x="1015.488281"/>
     <use xlink:href="#DejaVuSans-6e" x="1076.669922"/>
     <use xlink:href="#DejaVuSans-20" x="1140.048828"/>
     <use xlink:href="#DejaVuSans-41" x="1171.835938"/>
     <use xlink:href="#DejaVuSans-63" x="1238.494141"/>
     <use xlink:href="#DejaVuSans-63" x="1293.474609"/>
     <use xlink:href="#DejaVuSans-75" x="1348.455078"/>
     <use xlink:href="#DejaVuSans-72" x="1411.833984"/>
     <use xlink:href="#DejaVuSans-61" x="1452.947266"/>
     <use xlink:href="#DejaVuSans-63" x="1514.226562"/>
     <use xlink:href="#DejaVuSans-79" x="1569.207031"/>
    </g>
   </g>
   <g id="legend_1">
    <g id="patch_7">
     <path d="M 277.504375 302.584 
L 407.72 302.584 
Q 409.72 302.584 409.72 300.584 
L 409.72 272.22775 
Q 409.72 270.22775 407.72 270.22775 
L 277.504375 270.22775 
Q 275.504375 270.22775 275.504375 272.22775 
L 275.504375 300.584 
Q 275.504375 302.584 277.504375 302.584 
z
" style="fill: #ffffff; opacity: 0.8; stroke: #cccccc; stroke-linejoin: miter"/>
    </g>
    <g id="line2d_21">
     <path d="M 279.504375 278.326187 
L 289.504375 278.326187 
L 299.504375 278.326187 
" style="fill: none; stroke: #1f77b4; stroke-width: 1.5; stroke-linecap: square"/>
    </g>
    <g id="text_22">
     <!-- Train Accuracy -->
     <g transform="translate(307.504375 281.826187) scale(0.1 -0.1)">
      <use xlink:href="#DejaVuSans-54"/>
      <use xlink:href="#DejaVuSans-72" x="46.333984"/>
      <use xlink:href="#DejaVuSans-61" x="87.447266"/>
      <use xlink:href="#DejaVuSans-69" x="148.726562"/>
      <use xlink:href="#DejaVuSans-6e" x="176.509766"/>
      <use xlink:href="#DejaVuSans-20" x="239.888672"/>
      <use xlink:href="#DejaVuSans-41" x="271.675781"/>
      <use xlink:href="#DejaVuSans-63" x="338.333984"/>
      <use xlink:href="#DejaVuSans-63" x="393.314453"/>
      <use xlink:href="#DejaVuSans-75" x="448.294922"/>
      <use xlink:href="#DejaVuSans-72" x="511.673828"/>
      <use xlink:href="#DejaVuSans-61" x="552.787109"/>
      <use xlink:href="#DejaVuSans-63" x="614.066406"/>
      <use xlink:href="#DejaVuSans-79" x="669.046875"/>
     </g>
    </g>
    <g id="line2d_22">
     <path d="M 279.504375 293.004312 
L 289.504375 293.004312 
L 299.504375 293.004312 
" style="fill: none; stroke: #ff7f0e; stroke-width: 1.5; stroke-linecap: square"/>
    </g>
    <g id="text_23">
     <!-- Validation Accuracy -->
     <g transform="translate(307.504375 296.504312) scale(0.1 -0.1)">
      <use xlink:href="#DejaVuSans-56"/>
      <use xlink:href="#DejaVuSans-61" x="60.658203"/>
      <use xlink:href="#DejaVuSans-6c" x="121.9375"/>
      <use xlink:href="#DejaVuSans-69" x="149.720703"/>
      <use xlink:href="#DejaVuSans-64" x="177.503906"/>
      <use xlink:href="#DejaVuSans-61" x="240.980469"/>
      <use xlink:href="#DejaVuSans-74" x="302.259766"/>
      <use xlink:href="#DejaVuSans-69" x="341.46875"/>
      <use xlink:href="#DejaVuSans-6f" x="369.251953"/>
      <use xlink:href="#DejaVuSans-6e" x="430.433594"/>
      <use xlink:href="#DejaVuSans-20" x="493.8125"/>
      <use xlink:href="#DejaVuSans-41" x="525.599609"/>
      <use xlink:href="#DejaVuSans-63" x="592.257812"/>
      <use xlink:href="#DejaVuSans-63" x="647.238281"/>
      <use xlink:href="#DejaVuSans-75" x="702.21875"/>
      <use xlink:href="#DejaVuSans-72" x="765.597656"/>
      <use xlink:href="#DejaVuSans-61" x="806.710938"/>
      <use xlink:href="#DejaVuSans-63" x="867.990234"/>
      <use xlink:href="#DejaVuSans-79" x="922.970703"/>
     </g>
    </g>
   </g>
  </g>
 </g>
 <defs>
  <clipPath id="peb6b9bc92c">
   <rect x="57.6" y="41.472" width="357.12" height="266.112"/>
  </clipPath>
 </defs>
</svg>
