<?xml version="1.0" encoding="utf-8" standalone="no"?>
<!DOCTYPE svg PUBLIC "-//W3C//DTD SVG 1.1//EN"
  "http://www.w3.org/Graphics/SVG/1.1/DTD/svg11.dtd">
<svg height="345.6pt" version="1.1" viewBox="0 0 460.8 345.6" width="460.8pt" xmlns="http://www.w3.org/2000/svg" xmlns:xlink="http://www.w3.org/1999/xlink">
 <metadata>
  <rdf:RDF xmlns:cc="http://creativecommons.org/ns#" xmlns:dc="http://purl.org/dc/elements/1.1/" xmlns:rdf="http://www.w3.org/1999/02/22-rdf-syntax-ns#">
   <cc:Work>
    <dc:type rdf:resource="http://purl.org/dc/dcmitype/StillImage"/>
    <dc:date>2023-11-04T00:45:23.997714</dc:date>
    <dc:format>image/svg+xml</dc:format>
    <dc:creator>
     <cc:Agent>
      <dc:title>Matplotlib v3.4.3, https://matplotlib.org/</dc:title>
     </cc:Agent>
    </dc:creator>
   </cc:Work>
  </rdf:RDF>
 </metadata>
 <defs>
  <style type="text/css">*{stroke-linecap:butt;stroke-linejoin:round;}</style>
 </defs>
 <g id="figure_1">
  <g id="patch_1">
   <path d="M 0 345.6 
L 460.8 345.6 
L 460.8 0 
L 0 0 
z
" style="fill:#ffffff;"/>
  </g>
  <g id="axes_1">
   <g id="patch_2">
    <path d="M 57.6 307.584 
L 414.72 307.584 
L 414.72 41.472 
L 57.6 41.472 
z
" style="fill:#ffffff;"/>
   </g>
   <g id="matplotlib.axis_1">
    <g id="xtick_1">
     <g id="line2d_1">
      <defs>
       <path d="M 0 0 
L 0 3.5 
" id="m193362f0f0" style="stroke:#000000;stroke-width:0.8;"/>
      </defs>
      <g>
       <use style="stroke:#000000;stroke-width:0.8;" x="73.832727" xlink:href="#m193362f0f0" y="307.584"/>
      </g>
     </g>
     <g id="text_1">
      <!-- 1 -->
      <g transform="translate(70.651477 322.182437)scale(0.1 -0.1)">
       <defs>
        <path d="M 794 531 
L 1825 531 
L 1825 4091 
L 703 3866 
L 703 4441 
L 1819 4666 
L 2450 4666 
L 2450 531 
L 3481 531 
L 3481 0 
L 794 0 
L 794 531 
z
" id="DejaVuSans-31" transform="scale(0.015625)"/>
       </defs>
       <use xlink:href="#DejaVuSans-31"/>
      </g>
     </g>
    </g>
    <g id="xtick_2">
     <g id="line2d_2">
      <g>
       <use style="stroke:#000000;stroke-width:0.8;" x="109.710992" xlink:href="#m193362f0f0" y="307.584"/>
      </g>
     </g>
     <g id="text_2">
      <!-- 42 -->
      <g transform="translate(103.348492 322.182437)scale(0.1 -0.1)">
       <defs>
        <path d="M 2419 4116 
L 825 1625 
L 2419 1625 
L 2419 4116 
z
M 2253 4666 
L 3047 4666 
L 3047 1625 
L 3713 1625 
L 3713 1100 
L 3047 1100 
L 3047 0 
L 2419 0 
L 2419 1100 
L 313 1100 
L 313 1709 
L 2253 4666 
z
" id="DejaVuSans-34" transform="scale(0.015625)"/>
        <path d="M 1228 531 
L 3431 531 
L 3431 0 
L 469 0 
L 469 531 
Q 828 903 1448 1529 
Q 2069 2156 2228 2338 
Q 2531 2678 2651 2914 
Q 2772 3150 2772 3378 
Q 2772 3750 2511 3984 
Q 2250 4219 1831 4219 
Q 1534 4219 1204 4116 
Q 875 4013 500 3803 
L 500 4441 
Q 881 4594 1212 4672 
Q 1544 4750 1819 4750 
Q 2544 4750 2975 4387 
Q 3406 4025 3406 3419 
Q 3406 3131 3298 2873 
Q 3191 2616 2906 2266 
Q 2828 2175 2409 1742 
Q 1991 1309 1228 531 
z
" id="DejaVuSans-32" transform="scale(0.015625)"/>
       </defs>
       <use xlink:href="#DejaVuSans-34"/>
       <use x="63.623047" xlink:href="#DejaVuSans-32"/>
      </g>
     </g>
    </g>
    <g id="xtick_3">
     <g id="line2d_3">
      <g>
       <use style="stroke:#000000;stroke-width:0.8;" x="145.589258" xlink:href="#m193362f0f0" y="307.584"/>
      </g>
     </g>
     <g id="text_3">
      <!-- 83 -->
      <g transform="translate(139.226758 322.182437)scale(0.1 -0.1)">
       <defs>
        <path d="M 2034 2216 
Q 1584 2216 1326 1975 
Q 1069 1734 1069 1313 
Q 1069 891 1326 650 
Q 1584 409 2034 409 
Q 2484 409 2743 651 
Q 3003 894 3003 1313 
Q 3003 1734 2745 1975 
Q 2488 2216 2034 2216 
z
M 1403 2484 
Q 997 2584 770 2862 
Q 544 3141 544 3541 
Q 544 4100 942 4425 
Q 1341 4750 2034 4750 
Q 2731 4750 3128 4425 
Q 3525 4100 3525 3541 
Q 3525 3141 3298 2862 
Q 3072 2584 2669 2484 
Q 3125 2378 3379 2068 
Q 3634 1759 3634 1313 
Q 3634 634 3220 271 
Q 2806 -91 2034 -91 
Q 1263 -91 848 271 
Q 434 634 434 1313 
Q 434 1759 690 2068 
Q 947 2378 1403 2484 
z
M 1172 3481 
Q 1172 3119 1398 2916 
Q 1625 2713 2034 2713 
Q 2441 2713 2670 2916 
Q 2900 3119 2900 3481 
Q 2900 3844 2670 4047 
Q 2441 4250 2034 4250 
Q 1625 4250 1398 4047 
Q 1172 3844 1172 3481 
z
" id="DejaVuSans-38" transform="scale(0.015625)"/>
        <path d="M 2597 2516 
Q 3050 2419 3304 2112 
Q 3559 1806 3559 1356 
Q 3559 666 3084 287 
Q 2609 -91 1734 -91 
Q 1441 -91 1130 -33 
Q 819 25 488 141 
L 488 750 
Q 750 597 1062 519 
Q 1375 441 1716 441 
Q 2309 441 2620 675 
Q 2931 909 2931 1356 
Q 2931 1769 2642 2001 
Q 2353 2234 1838 2234 
L 1294 2234 
L 1294 2753 
L 1863 2753 
Q 2328 2753 2575 2939 
Q 2822 3125 2822 3475 
Q 2822 3834 2567 4026 
Q 2313 4219 1838 4219 
Q 1578 4219 1281 4162 
Q 984 4106 628 3988 
L 628 4550 
Q 988 4650 1302 4700 
Q 1616 4750 1894 4750 
Q 2613 4750 3031 4423 
Q 3450 4097 3450 3541 
Q 3450 3153 3228 2886 
Q 3006 2619 2597 2516 
z
" id="DejaVuSans-33" transform="scale(0.015625)"/>
       </defs>
       <use xlink:href="#DejaVuSans-38"/>
       <use x="63.623047" xlink:href="#DejaVuSans-33"/>
      </g>
     </g>
    </g>
    <g id="xtick_4">
     <g id="line2d_4">
      <g>
       <use style="stroke:#000000;stroke-width:0.8;" x="181.467523" xlink:href="#m193362f0f0" y="307.584"/>
      </g>
     </g>
     <g id="text_4">
      <!-- 124 -->
      <g transform="translate(171.923773 322.182437)scale(0.1 -0.1)">
       <use xlink:href="#DejaVuSans-31"/>
       <use x="63.623047" xlink:href="#DejaVuSans-32"/>
       <use x="127.246094" xlink:href="#DejaVuSans-34"/>
      </g>
     </g>
    </g>
    <g id="xtick_5">
     <g id="line2d_5">
      <g>
       <use style="stroke:#000000;stroke-width:0.8;" x="217.345788" xlink:href="#m193362f0f0" y="307.584"/>
      </g>
     </g>
     <g id="text_5">
      <!-- 165 -->
      <g transform="translate(207.802038 322.182437)scale(0.1 -0.1)">
       <defs>
        <path d="M 2113 2584 
Q 1688 2584 1439 2293 
Q 1191 2003 1191 1497 
Q 1191 994 1439 701 
Q 1688 409 2113 409 
Q 2538 409 2786 701 
Q 3034 994 3034 1497 
Q 3034 2003 2786 2293 
Q 2538 2584 2113 2584 
z
M 3366 4563 
L 3366 3988 
Q 3128 4100 2886 4159 
Q 2644 4219 2406 4219 
Q 1781 4219 1451 3797 
Q 1122 3375 1075 2522 
Q 1259 2794 1537 2939 
Q 1816 3084 2150 3084 
Q 2853 3084 3261 2657 
Q 3669 2231 3669 1497 
Q 3669 778 3244 343 
Q 2819 -91 2113 -91 
Q 1303 -91 875 529 
Q 447 1150 447 2328 
Q 447 3434 972 4092 
Q 1497 4750 2381 4750 
Q 2619 4750 2861 4703 
Q 3103 4656 3366 4563 
z
" id="DejaVuSans-36" transform="scale(0.015625)"/>
        <path d="M 691 4666 
L 3169 4666 
L 3169 4134 
L 1269 4134 
L 1269 2991 
Q 1406 3038 1543 3061 
Q 1681 3084 1819 3084 
Q 2600 3084 3056 2656 
Q 3513 2228 3513 1497 
Q 3513 744 3044 326 
Q 2575 -91 1722 -91 
Q 1428 -91 1123 -41 
Q 819 9 494 109 
L 494 744 
Q 775 591 1075 516 
Q 1375 441 1709 441 
Q 2250 441 2565 725 
Q 2881 1009 2881 1497 
Q 2881 1984 2565 2268 
Q 2250 2553 1709 2553 
Q 1456 2553 1204 2497 
Q 953 2441 691 2322 
L 691 4666 
z
" id="DejaVuSans-35" transform="scale(0.015625)"/>
       </defs>
       <use xlink:href="#DejaVuSans-31"/>
       <use x="63.623047" xlink:href="#DejaVuSans-36"/>
       <use x="127.246094" xlink:href="#DejaVuSans-35"/>
      </g>
     </g>
    </g>
    <g id="xtick_6">
     <g id="line2d_6">
      <g>
       <use style="stroke:#000000;stroke-width:0.8;" x="254.099133" xlink:href="#m193362f0f0" y="307.584"/>
      </g>
     </g>
     <g id="text_6">
      <!-- 207 -->
      <g transform="translate(244.555383 322.182437)scale(0.1 -0.1)">
       <defs>
        <path d="M 2034 4250 
Q 1547 4250 1301 3770 
Q 1056 3291 1056 2328 
Q 1056 1369 1301 889 
Q 1547 409 2034 409 
Q 2525 409 2770 889 
Q 3016 1369 3016 2328 
Q 3016 3291 2770 3770 
Q 2525 4250 2034 4250 
z
M 2034 4750 
Q 2819 4750 3233 4129 
Q 3647 3509 3647 2328 
Q 3647 1150 3233 529 
Q 2819 -91 2034 -91 
Q 1250 -91 836 529 
Q 422 1150 422 2328 
Q 422 3509 836 4129 
Q 1250 4750 2034 4750 
z
" id="DejaVuSans-30" transform="scale(0.015625)"/>
        <path d="M 525 4666 
L 3525 4666 
L 3525 4397 
L 1831 0 
L 1172 0 
L 2766 4134 
L 525 4134 
L 525 4666 
z
" id="DejaVuSans-37" transform="scale(0.015625)"/>
       </defs>
       <use xlink:href="#DejaVuSans-32"/>
       <use x="63.623047" xlink:href="#DejaVuSans-30"/>
       <use x="127.246094" xlink:href="#DejaVuSans-37"/>
      </g>
     </g>
    </g>
    <g id="xtick_7">
     <g id="line2d_7">
      <g>
       <use style="stroke:#000000;stroke-width:0.8;" x="289.977398" xlink:href="#m193362f0f0" y="307.584"/>
      </g>
     </g>
     <g id="text_7">
      <!-- 248 -->
      <g transform="translate(280.433648 322.182437)scale(0.1 -0.1)">
       <use xlink:href="#DejaVuSans-32"/>
       <use x="63.623047" xlink:href="#DejaVuSans-34"/>
       <use x="127.246094" xlink:href="#DejaVuSans-38"/>
      </g>
     </g>
    </g>
    <g id="xtick_8">
     <g id="line2d_8">
      <g>
       <use style="stroke:#000000;stroke-width:0.8;" x="325.855663" xlink:href="#m193362f0f0" y="307.584"/>
      </g>
     </g>
     <g id="text_8">
      <!-- 289 -->
      <g transform="translate(316.311913 322.182437)scale(0.1 -0.1)">
       <defs>
        <path d="M 703 97 
L 703 672 
Q 941 559 1184 500 
Q 1428 441 1663 441 
Q 2288 441 2617 861 
Q 2947 1281 2994 2138 
Q 2813 1869 2534 1725 
Q 2256 1581 1919 1581 
Q 1219 1581 811 2004 
Q 403 2428 403 3163 
Q 403 3881 828 4315 
Q 1253 4750 1959 4750 
Q 2769 4750 3195 4129 
Q 3622 3509 3622 2328 
Q 3622 1225 3098 567 
Q 2575 -91 1691 -91 
Q 1453 -91 1209 -44 
Q 966 3 703 97 
z
M 1959 2075 
Q 2384 2075 2632 2365 
Q 2881 2656 2881 3163 
Q 2881 3666 2632 3958 
Q 2384 4250 1959 4250 
Q 1534 4250 1286 3958 
Q 1038 3666 1038 3163 
Q 1038 2656 1286 2365 
Q 1534 2075 1959 2075 
z
" id="DejaVuSans-39" transform="scale(0.015625)"/>
       </defs>
       <use xlink:href="#DejaVuSans-32"/>
       <use x="63.623047" xlink:href="#DejaVuSans-38"/>
       <use x="127.246094" xlink:href="#DejaVuSans-39"/>
      </g>
     </g>
    </g>
    <g id="xtick_9">
     <g id="line2d_9">
      <g>
       <use style="stroke:#000000;stroke-width:0.8;" x="361.733928" xlink:href="#m193362f0f0" y="307.584"/>
      </g>
     </g>
     <g id="text_9">
      <!-- 330 -->
      <g transform="translate(352.190178 322.182437)scale(0.1 -0.1)">
       <use xlink:href="#DejaVuSans-33"/>
       <use x="63.623047" xlink:href="#DejaVuSans-33"/>
       <use x="127.246094" xlink:href="#DejaVuSans-30"/>
      </g>
     </g>
    </g>
    <g id="xtick_10">
     <g id="line2d_10">
      <g>
       <use style="stroke:#000000;stroke-width:0.8;" x="398.487273" xlink:href="#m193362f0f0" y="307.584"/>
      </g>
     </g>
     <g id="text_10">
      <!-- 372 -->
      <g transform="translate(388.943523 322.182437)scale(0.1 -0.1)">
       <use xlink:href="#DejaVuSans-33"/>
       <use x="63.623047" xlink:href="#DejaVuSans-37"/>
       <use x="127.246094" xlink:href="#DejaVuSans-32"/>
      </g>
     </g>
    </g>
    <g id="text_11">
     <!-- Epochs -->
     <g transform="translate(218.244375 335.860562)scale(0.1 -0.1)">
      <defs>
       <path d="M 628 4666 
L 3578 4666 
L 3578 4134 
L 1259 4134 
L 1259 2753 
L 3481 2753 
L 3481 2222 
L 1259 2222 
L 1259 531 
L 3634 531 
L 3634 0 
L 628 0 
L 628 4666 
z
" id="DejaVuSans-45" transform="scale(0.015625)"/>
       <path d="M 1159 525 
L 1159 -1331 
L 581 -1331 
L 581 3500 
L 1159 3500 
L 1159 2969 
Q 1341 3281 1617 3432 
Q 1894 3584 2278 3584 
Q 2916 3584 3314 3078 
Q 3713 2572 3713 1747 
Q 3713 922 3314 415 
Q 2916 -91 2278 -91 
Q 1894 -91 1617 61 
Q 1341 213 1159 525 
z
M 3116 1747 
Q 3116 2381 2855 2742 
Q 2594 3103 2138 3103 
Q 1681 3103 1420 2742 
Q 1159 2381 1159 1747 
Q 1159 1113 1420 752 
Q 1681 391 2138 391 
Q 2594 391 2855 752 
Q 3116 1113 3116 1747 
z
" id="DejaVuSans-70" transform="scale(0.015625)"/>
       <path d="M 1959 3097 
Q 1497 3097 1228 2736 
Q 959 2375 959 1747 
Q 959 1119 1226 758 
Q 1494 397 1959 397 
Q 2419 397 2687 759 
Q 2956 1122 2956 1747 
Q 2956 2369 2687 2733 
Q 2419 3097 1959 3097 
z
M 1959 3584 
Q 2709 3584 3137 3096 
Q 3566 2609 3566 1747 
Q 3566 888 3137 398 
Q 2709 -91 1959 -91 
Q 1206 -91 779 398 
Q 353 888 353 1747 
Q 353 2609 779 3096 
Q 1206 3584 1959 3584 
z
" id="DejaVuSans-6f" transform="scale(0.015625)"/>
       <path d="M 3122 3366 
L 3122 2828 
Q 2878 2963 2633 3030 
Q 2388 3097 2138 3097 
Q 1578 3097 1268 2742 
Q 959 2388 959 1747 
Q 959 1106 1268 751 
Q 1578 397 2138 397 
Q 2388 397 2633 464 
Q 2878 531 3122 666 
L 3122 134 
Q 2881 22 2623 -34 
Q 2366 -91 2075 -91 
Q 1284 -91 818 406 
Q 353 903 353 1747 
Q 353 2603 823 3093 
Q 1294 3584 2113 3584 
Q 2378 3584 2631 3529 
Q 2884 3475 3122 3366 
z
" id="DejaVuSans-63" transform="scale(0.015625)"/>
       <path d="M 3513 2113 
L 3513 0 
L 2938 0 
L 2938 2094 
Q 2938 2591 2744 2837 
Q 2550 3084 2163 3084 
Q 1697 3084 1428 2787 
Q 1159 2491 1159 1978 
L 1159 0 
L 581 0 
L 581 4863 
L 1159 4863 
L 1159 2956 
Q 1366 3272 1645 3428 
Q 1925 3584 2291 3584 
Q 2894 3584 3203 3211 
Q 3513 2838 3513 2113 
z
" id="DejaVuSans-68" transform="scale(0.015625)"/>
       <path d="M 2834 3397 
L 2834 2853 
Q 2591 2978 2328 3040 
Q 2066 3103 1784 3103 
Q 1356 3103 1142 2972 
Q 928 2841 928 2578 
Q 928 2378 1081 2264 
Q 1234 2150 1697 2047 
L 1894 2003 
Q 2506 1872 2764 1633 
Q 3022 1394 3022 966 
Q 3022 478 2636 193 
Q 2250 -91 1575 -91 
Q 1294 -91 989 -36 
Q 684 19 347 128 
L 347 722 
Q 666 556 975 473 
Q 1284 391 1588 391 
Q 1994 391 2212 530 
Q 2431 669 2431 922 
Q 2431 1156 2273 1281 
Q 2116 1406 1581 1522 
L 1381 1569 
Q 847 1681 609 1914 
Q 372 2147 372 2553 
Q 372 3047 722 3315 
Q 1072 3584 1716 3584 
Q 2034 3584 2315 3537 
Q 2597 3491 2834 3397 
z
" id="DejaVuSans-73" transform="scale(0.015625)"/>
      </defs>
      <use xlink:href="#DejaVuSans-45"/>
      <use x="63.183594" xlink:href="#DejaVuSans-70"/>
      <use x="126.660156" xlink:href="#DejaVuSans-6f"/>
      <use x="187.841797" xlink:href="#DejaVuSans-63"/>
      <use x="242.822266" xlink:href="#DejaVuSans-68"/>
      <use x="306.201172" xlink:href="#DejaVuSans-73"/>
     </g>
    </g>
   </g>
   <g id="matplotlib.axis_2">
    <g id="ytick_1">
     <g id="line2d_11">
      <defs>
       <path d="M 0 0 
L -3.5 0 
" id="m3fd3021f26" style="stroke:#000000;stroke-width:0.8;"/>
      </defs>
      <g>
       <use style="stroke:#000000;stroke-width:0.8;" x="57.6" xlink:href="#m3fd3021f26" y="280.126254"/>
      </g>
     </g>
     <g id="text_12">
      <!-- 10 -->
      <g transform="translate(37.875 283.925473)scale(0.1 -0.1)">
       <use xlink:href="#DejaVuSans-31"/>
       <use x="63.623047" xlink:href="#DejaVuSans-30"/>
      </g>
     </g>
    </g>
    <g id="ytick_2">
     <g id="line2d_12">
      <g>
       <use style="stroke:#000000;stroke-width:0.8;" x="57.6" xlink:href="#m3fd3021f26" y="249.573856"/>
      </g>
     </g>
     <g id="text_13">
      <!-- 20 -->
      <g transform="translate(37.875 253.373075)scale(0.1 -0.1)">
       <use xlink:href="#DejaVuSans-32"/>
       <use x="63.623047" xlink:href="#DejaVuSans-30"/>
      </g>
     </g>
    </g>
    <g id="ytick_3">
     <g id="line2d_13">
      <g>
       <use style="stroke:#000000;stroke-width:0.8;" x="57.6" xlink:href="#m3fd3021f26" y="219.021458"/>
      </g>
     </g>
     <g id="text_14">
      <!-- 30 -->
      <g transform="translate(37.875 222.820676)scale(0.1 -0.1)">
       <use xlink:href="#DejaVuSans-33"/>
       <use x="63.623047" xlink:href="#DejaVuSans-30"/>
      </g>
     </g>
    </g>
    <g id="ytick_4">
     <g id="line2d_14">
      <g>
       <use style="stroke:#000000;stroke-width:0.8;" x="57.6" xlink:href="#m3fd3021f26" y="188.469059"/>
      </g>
     </g>
     <g id="text_15">
      <!-- 40 -->
      <g transform="translate(37.875 192.268278)scale(0.1 -0.1)">
       <use xlink:href="#DejaVuSans-34"/>
       <use x="63.623047" xlink:href="#DejaVuSans-30"/>
      </g>
     </g>
    </g>
    <g id="ytick_5">
     <g id="line2d_15">
      <g>
       <use style="stroke:#000000;stroke-width:0.8;" x="57.6" xlink:href="#m3fd3021f26" y="157.916661"/>
      </g>
     </g>
     <g id="text_16">
      <!-- 50 -->
      <g transform="translate(37.875 161.71588)scale(0.1 -0.1)">
       <use xlink:href="#DejaVuSans-35"/>
       <use x="63.623047" xlink:href="#DejaVuSans-30"/>
      </g>
     </g>
    </g>
    <g id="ytick_6">
     <g id="line2d_16">
      <g>
       <use style="stroke:#000000;stroke-width:0.8;" x="57.6" xlink:href="#m3fd3021f26" y="127.364263"/>
      </g>
     </g>
     <g id="text_17">
      <!-- 60 -->
      <g transform="translate(37.875 131.163482)scale(0.1 -0.1)">
       <use xlink:href="#DejaVuSans-36"/>
       <use x="63.623047" xlink:href="#DejaVuSans-30"/>
      </g>
     </g>
    </g>
    <g id="ytick_7">
     <g id="line2d_17">
      <g>
       <use style="stroke:#000000;stroke-width:0.8;" x="57.6" xlink:href="#m3fd3021f26" y="96.811865"/>
      </g>
     </g>
     <g id="text_18">
      <!-- 70 -->
      <g transform="translate(37.875 100.611083)scale(0.1 -0.1)">
       <use xlink:href="#DejaVuSans-37"/>
       <use x="63.623047" xlink:href="#DejaVuSans-30"/>
      </g>
     </g>
    </g>
    <g id="ytick_8">
     <g id="line2d_18">
      <g>
       <use style="stroke:#000000;stroke-width:0.8;" x="57.6" xlink:href="#m3fd3021f26" y="66.259466"/>
      </g>
     </g>
     <g id="text_19">
      <!-- 80 -->
      <g transform="translate(37.875 70.058685)scale(0.1 -0.1)">
       <use xlink:href="#DejaVuSans-38"/>
       <use x="63.623047" xlink:href="#DejaVuSans-30"/>
      </g>
     </g>
    </g>
    <g id="text_20">
     <!-- Accuracy -->
     <g transform="translate(31.795312 197.356125)rotate(-90)scale(0.1 -0.1)">
      <defs>
       <path d="M 2188 4044 
L 1331 1722 
L 3047 1722 
L 2188 4044 
z
M 1831 4666 
L 2547 4666 
L 4325 0 
L 3669 0 
L 3244 1197 
L 1141 1197 
L 716 0 
L 50 0 
L 1831 4666 
z
" id="DejaVuSans-41" transform="scale(0.015625)"/>
       <path d="M 544 1381 
L 544 3500 
L 1119 3500 
L 1119 1403 
Q 1119 906 1312 657 
Q 1506 409 1894 409 
Q 2359 409 2629 706 
Q 2900 1003 2900 1516 
L 2900 3500 
L 3475 3500 
L 3475 0 
L 2900 0 
L 2900 538 
Q 2691 219 2414 64 
Q 2138 -91 1772 -91 
Q 1169 -91 856 284 
Q 544 659 544 1381 
z
M 1991 3584 
L 1991 3584 
z
" id="DejaVuSans-75" transform="scale(0.015625)"/>
       <path d="M 2631 2963 
Q 2534 3019 2420 3045 
Q 2306 3072 2169 3072 
Q 1681 3072 1420 2755 
Q 1159 2438 1159 1844 
L 1159 0 
L 581 0 
L 581 3500 
L 1159 3500 
L 1159 2956 
Q 1341 3275 1631 3429 
Q 1922 3584 2338 3584 
Q 2397 3584 2469 3576 
Q 2541 3569 2628 3553 
L 2631 2963 
z
" id="DejaVuSans-72" transform="scale(0.015625)"/>
       <path d="M 2194 1759 
Q 1497 1759 1228 1600 
Q 959 1441 959 1056 
Q 959 750 1161 570 
Q 1363 391 1709 391 
Q 2188 391 2477 730 
Q 2766 1069 2766 1631 
L 2766 1759 
L 2194 1759 
z
M 3341 1997 
L 3341 0 
L 2766 0 
L 2766 531 
Q 2569 213 2275 61 
Q 1981 -91 1556 -91 
Q 1019 -91 701 211 
Q 384 513 384 1019 
Q 384 1609 779 1909 
Q 1175 2209 1959 2209 
L 2766 2209 
L 2766 2266 
Q 2766 2663 2505 2880 
Q 2244 3097 1772 3097 
Q 1472 3097 1187 3025 
Q 903 2953 641 2809 
L 641 3341 
Q 956 3463 1253 3523 
Q 1550 3584 1831 3584 
Q 2591 3584 2966 3190 
Q 3341 2797 3341 1997 
z
" id="DejaVuSans-61" transform="scale(0.015625)"/>
       <path d="M 2059 -325 
Q 1816 -950 1584 -1140 
Q 1353 -1331 966 -1331 
L 506 -1331 
L 506 -850 
L 844 -850 
Q 1081 -850 1212 -737 
Q 1344 -625 1503 -206 
L 1606 56 
L 191 3500 
L 800 3500 
L 1894 763 
L 2988 3500 
L 3597 3500 
L 2059 -325 
z
" id="DejaVuSans-79" transform="scale(0.015625)"/>
      </defs>
      <use xlink:href="#DejaVuSans-41"/>
      <use x="66.658203" xlink:href="#DejaVuSans-63"/>
      <use x="121.638672" xlink:href="#DejaVuSans-63"/>
      <use x="176.619141" xlink:href="#DejaVuSans-75"/>
      <use x="239.998047" xlink:href="#DejaVuSans-72"/>
      <use x="281.111328" xlink:href="#DejaVuSans-61"/>
      <use x="342.390625" xlink:href="#DejaVuSans-63"/>
      <use x="397.371094" xlink:href="#DejaVuSans-79"/>
     </g>
    </g>
   </g>
   <g id="line2d_19">
    <path clip-path="url(#p4358ee62cf)" d="M 73.832727 295.488 
L 74.707807 286.676688 
L 75.582887 281.042826 
L 76.457966 276.154442 
L 77.333046 272.035979 
L 79.083205 260.065549 
L 79.958285 254.364472 
L 80.833364 244.764908 
L 81.708444 238.874406 
L 82.583524 241.006963 
L 83.458603 232.158989 
L 84.333683 254.126163 
L 85.208763 247.697939 
L 86.083842 238.703313 
L 86.958922 234.548186 
L 87.834001 224.808082 
L 88.709081 227.026186 
L 89.584161 217.817693 
L 90.45924 210.698984 
L 91.33432 212.764326 
L 92.2094 202.608709 
L 93.084479 199.461812 
L 93.959559 197.897529 
L 94.834639 198.832433 
L 95.709718 195.056156 
L 96.584798 187.760244 
L 97.459877 188.151314 
L 98.334957 178.704513 
L 99.210037 181.888073 
L 100.085116 177.543522 
L 100.960196 170.076516 
L 101.835276 176.382531 
L 102.710355 168.848309 
L 103.585435 176.358089 
L 104.460515 171.115297 
L 105.335594 200.885554 
L 106.210674 199.376266 
L 107.085753 188.108541 
L 107.960833 187.216411 
L 108.835913 183.330146 
L 109.710992 187.656366 
L 110.586072 184.026741 
L 111.461152 182.627441 
L 112.336231 177.048573 
L 113.211311 179.205572 
L 114.086391 165.475324 
L 114.96147 180.433779 
L 115.83655 172.386277 
L 116.71163 175.123772 
L 117.586709 155.564126 
L 118.461789 161.197989 
L 119.336868 169.202717 
L 120.211948 155.722999 
L 121.087028 159.114315 
L 121.962107 150.168573 
L 122.837187 161.106331 
L 123.712267 153.932628 
L 124.587346 153.590441 
L 125.462426 139.444681 
L 126.337506 156.523472 
L 127.212585 153.798198 
L 128.087665 144.693583 
L 128.962744 138.803081 
L 129.837824 135.35677 
L 130.712904 128.769673 
L 131.587983 137.788741 
L 132.463063 138.79697 
L 133.338143 130.437834 
L 134.213222 129.417384 
L 135.088302 139.670769 
L 135.963382 142.842108 
L 136.838461 127.290937 
L 137.713541 129.61903 
L 138.58862 127.33371 
L 139.4637 131.079434 
L 140.33878 133.364754 
L 141.213859 131.061103 
L 142.088939 123.477998 
L 142.964019 129.900112 
L 143.839098 119.750605 
L 144.714178 129.264622 
L 145.589258 118.754597 
L 146.464337 119.891146 
L 147.339417 160.556388 
L 149.089576 146.135656 
L 149.964656 150.449655 
L 150.839735 138.393679 
L 151.714815 149.11146 
L 152.589895 155.496911 
L 153.464974 147.296647 
L 154.340054 149.61863 
L 156.090213 136.004481 
L 156.965293 137.165472 
L 157.840372 148.647063 
L 158.715452 135.86394 
L 160.465611 148.763163 
L 161.340691 145.457393 
L 162.215771 133.871924 
L 163.09085 131.268859 
L 163.96593 130.718916 
L 164.84101 140.654556 
L 165.716089 131.501058 
L 166.591169 130.230078 
L 167.466248 138.821412 
L 168.341328 127.810328 
L 169.216408 118.876807 
L 170.091487 136.083917 
L 170.966567 129.087418 
L 171.841647 129.955106 
L 172.716726 128.335829 
L 173.591806 124.706204 
L 174.466886 127.352042 
L 175.341965 131.861576 
L 176.217045 133.706941 
L 177.092124 125.078943 
L 177.967204 120.471642 
L 178.842284 125.512787 
L 179.717363 116.640371 
L 180.592443 118.210764 
L 181.467523 111.605336 
L 182.342602 121.34544 
L 183.217682 113.750114 
L 184.092762 115.998771 
L 184.967841 107.932937 
L 185.842921 111.15316 
L 186.718 105.299321 
L 187.59308 117.691373 
L 188.46816 106.374765 
L 189.343239 101.749132 
L 190.218319 117.355297 
L 191.093399 97.722326 
L 191.968478 105.989805 
L 192.843558 116.774802 
L 193.718638 111.611446 
L 194.593717 121.547086 
L 195.468797 105.103785 
L 196.343877 90.860257 
L 197.218956 106.472533 
L 198.094036 94.239353 
L 198.969115 119.756716 
L 200.719275 95.186477 
L 201.594354 92.497866 
L 202.469434 84.456475 
L 203.344514 96.610219 
L 204.219593 91.287991 
L 205.094673 88.238862 
L 205.969753 106.509196 
L 206.844832 98.712224 
L 207.719912 85.177511 
L 208.594991 90.120889 
L 209.470071 84.755888 
L 210.345151 91.489637 
L 211.22023 99.127736 
L 212.09531 92.55286 
L 212.97039 99.005527 
L 213.845469 89.656493 
L 214.720549 98.180612 
L 215.595629 89.962017 
L 216.470708 84.205945 
L 217.345788 99.384376 
L 218.220867 95.394233 
L 219.095947 88.122762 
L 219.971027 89.063776 
L 220.846106 86.705131 
L 221.721186 87.823349 
L 222.596266 81.85341 
L 223.471345 93.145577 
L 224.346425 83.735438 
L 225.221505 83.436025 
L 226.096584 95.076488 
L 226.971664 88.611601 
L 227.846743 100.429268 
L 228.721823 91.489637 
L 229.596903 85.305831 
L 230.471982 88.141094 
L 231.347062 112.729664 
L 233.097221 118.620166 
L 233.972301 116.273742 
L 234.847381 111.868086 
L 235.72246 114.348941 
L 236.59754 113.267386 
L 237.472619 115.387723 
L 238.347699 120.630514 
L 239.222779 105.879816 
L 240.097858 111.709214 
L 240.972938 107.737402 
L 241.848018 119.695611 
L 242.723097 113.432369 
L 243.598177 103.698375 
L 244.473257 119.200662 
L 245.348336 111.171492 
L 246.223416 109.75386 
L 247.098495 108.886172 
L 247.973575 104.486627 
L 248.848655 118.571283 
L 249.723734 109.912733 
L 250.598814 110.322135 
L 251.473894 102.561826 
L 252.348973 113.560689 
L 253.224053 111.079835 
L 254.099133 114.862221 
L 255.849292 98.91387 
L 256.724371 106.833051 
L 257.599451 105.714833 
L 258.474531 105.335984 
L 259.34961 100.245954 
L 260.22469 92.797279 
L 261.09977 98.883317 
L 261.974849 97.649 
L 262.849929 96.769091 
L 263.725009 103.967236 
L 264.600088 107.749623 
L 265.475168 106.228114 
L 266.350247 102.36018 
L 267.225327 89.49762 
L 268.100407 103.368409 
L 268.975486 87.762244 
L 269.850566 95.027604 
L 270.725646 91.514079 
L 271.600725 98.638898 
L 272.475805 91.831824 
L 273.350885 91.068014 
L 274.225964 97.465686 
L 275.101044 102.763472 
L 275.976123 100.300948 
L 276.851203 96.811865 
L 277.726283 86.130746 
L 278.601362 91.886818 
L 279.476442 95.681426 
L 280.351522 106.808609 
L 281.226601 89.974238 
L 282.101681 86.509596 
L 282.976761 102.127982 
L 283.85184 99.262167 
L 284.72692 101.859121 
L 285.602 101.382503 
L 286.477079 90.964135 
L 287.352159 89.766481 
L 288.227238 96.426904 
L 289.102318 78.694292 
L 289.977398 88.97823 
L 290.852477 95.626431 
L 291.727557 83.106059 
L 292.602637 84.456475 
L 293.477716 74.84469 
L 294.352796 105.061012 
L 295.227876 84.945313 
L 296.102955 78.969264 
L 296.978035 98.895538 
L 297.853114 83.918752 
L 298.728194 90.799153 
L 299.603274 80.857402 
L 300.478353 94.832069 
L 301.353433 86.680689 
L 302.228513 88.073879 
L 303.103592 81.804526 
L 303.978672 93.487764 
L 304.853752 81.792306 
L 305.728831 78.981485 
L 306.603911 97.783431 
L 307.47899 84.199835 
L 308.35407 78.113797 
L 309.22915 79.775847 
L 310.104229 85.311942 
L 310.979309 87.982221 
L 311.854389 94.056038 
L 312.729468 85.330273 
L 313.604548 67.71376 
L 314.479628 76.965027 
L 315.354707 89.161544 
L 316.229787 80.252465 
L 317.104866 83.607118 
L 317.979946 81.004054 
L 318.855026 82.647773 
L 319.730105 78.572083 
L 320.605185 85.751896 
L 321.480265 86.668468 
L 322.355344 84.621458 
L 323.230424 80.405227 
L 324.105504 93.035588 
L 324.980583 72.259957 
L 325.855663 87.621703 
L 326.730742 89.130992 
L 327.605822 88.232751 
L 328.480902 70.878989 
L 329.355981 67.640435 
L 330.231061 77.288882 
L 331.106141 83.25271 
L 331.98122 72.761017 
L 332.8563 72.742685 
L 333.73138 83.087727 
L 334.606459 74.325299 
L 335.481539 83.185495 
L 336.356618 82.348359 
L 337.231698 84.309823 
L 338.106778 76.659503 
L 338.981857 73.408727 
L 339.856937 86.289619 
L 340.732017 82.592778 
L 342.482176 67.218812 
L 343.357256 63.980257 
L 344.232335 73.873124 
L 345.107415 65.391778 
L 345.982494 80.344122 
L 346.857574 69.821876 
L 347.732654 68.324808 
L 348.607733 65.874506 
L 349.482813 68.691437 
L 350.357893 61.499403 
L 351.232972 60.216202 
L 352.983132 82.776093 
L 353.858211 69.834097 
L 354.733291 73.133756 
L 355.60837 70.671233 
L 356.48345 84.90254 
L 357.35853 70.420703 
L 358.233609 68.031505 
L 359.108689 73.323181 
L 359.983769 77.13001 
L 360.858848 70.805663 
L 361.733928 78.071023 
L 362.609008 60.753924 
L 363.484087 81.688427 
L 364.359167 69.186386 
L 365.234247 66.021158 
L 366.109326 84.480917 
L 366.984406 77.123899 
L 367.859485 65.214574 
L 368.734565 72.693801 
L 369.609645 60.527836 
L 370.484724 70.915652 
L 371.359804 70.50625 
L 372.234884 80.014156 
L 373.109963 65.862285 
L 373.985043 69.901312 
L 374.860123 65.495656 
L 375.735202 65.905058 
L 376.610282 70.041853 
L 377.485361 79.04259 
L 378.360441 72.93211 
L 379.235521 68.422576 
L 380.1106 69.62023 
L 380.98568 67.524336 
L 381.86076 70.347377 
L 382.735839 58.810792 
L 383.610919 63.344767 
L 384.485999 53.568 
L 385.361078 82.641662 
L 386.236158 68.868641 
L 387.111237 78.724845 
L 387.986317 76.714497 
L 388.861397 64.976266 
L 389.736476 69.125281 
L 390.611556 63.674733 
L 391.486636 68.703658 
L 392.361715 70.353488 
L 393.236795 78.883717 
L 394.111875 71.471705 
L 394.986954 58.205854 
L 395.862034 73.738693 
L 396.737113 66.876625 
L 397.612193 62.61762 
L 398.487273 68.062058 
L 398.487273 68.062058 
" style="fill:none;stroke:#1f77b4;stroke-linecap:square;stroke-width:1.5;"/>
   </g>
   <g id="line2d_20">
    <path clip-path="url(#p4358ee62cf)" d="M 73.832727 287.061649 
L 74.707807 274.810137 
L 75.582887 268.791314 
L 76.457966 267.660876 
L 77.333046 273.924117 
L 78.208125 261.183767 
L 79.083205 236.650191 
L 79.958285 240.041508 
L 80.833364 220.732392 
L 81.708444 208.786404 
L 82.583524 213.094292 
L 83.458603 198.459694 
L 84.333683 260.389405 
L 85.208763 238.605545 
L 86.083842 239.674879 
L 86.958922 212.116616 
L 88.709081 241.59968 
L 89.584161 196.198816 
L 91.33432 240.622003 
L 92.2094 200.231733 
L 93.084479 176.859148 
L 93.959559 184.711114 
L 94.834639 156.664013 
L 95.709718 180.861512 
L 96.584798 153.211592 
L 97.459877 165.890837 
L 98.334957 144.626368 
L 99.210037 140.043508 
L 100.085116 140.104613 
L 100.960196 131.061103 
L 101.835276 136.407773 
L 102.710355 131.213865 
L 103.585435 130.51116 
L 104.460515 130.816684 
L 105.335594 180.678198 
L 106.210674 157.580585 
L 107.085753 162.835597 
L 107.960833 155.594679 
L 108.835913 156.327936 
L 109.710992 159.444281 
L 110.586072 153.272697 
L 111.461152 149.606409 
L 112.336231 132.894247 
L 113.211311 144.65692 
L 114.086391 119.726163 
L 114.96147 148.689837 
L 115.83655 127.425368 
L 116.71163 117.129209 
L 117.586709 132.435961 
L 118.461789 118.290201 
L 119.336868 111.874197 
L 120.211948 108.238461 
L 121.087028 108.299566 
L 121.962107 113.798998 
L 122.837187 108.60509 
L 123.712267 118.015229 
L 124.587346 106.894156 
L 125.462426 106.680289 
L 126.337506 98.675561 
L 128.087665 106.863604 
L 128.962744 95.345349 
L 129.837824 97.147941 
L 130.712904 95.589769 
L 131.587983 89.754261 
L 132.463063 95.467559 
L 134.213222 89.448737 
L 135.088302 92.412319 
L 135.963382 92.748396 
L 136.838461 85.232506 
L 137.713541 86.637916 
L 138.58862 85.843554 
L 139.4637 83.704886 
L 140.33878 85.690792 
L 141.213859 86.362944 
L 142.088939 82.971628 
L 142.964019 84.315934 
L 143.839098 83.491019 
L 144.714178 81.260694 
L 145.589258 80.466331 
L 146.464337 81.780085 
L 147.339417 125.775538 
L 148.214496 114.746122 
L 149.089576 114.07397 
L 149.964656 118.106886 
L 150.839735 107.352442 
L 151.714815 116.395952 
L 152.589895 99.958762 
L 153.464974 103.686154 
L 154.340054 109.093929 
L 155.215134 106.008136 
L 156.090213 97.850646 
L 156.965293 99.317161 
L 157.840372 102.861239 
L 158.715452 99.714342 
L 159.590532 106.894156 
L 160.465611 104.90825 
L 161.340691 102.586268 
L 162.215771 99.68379 
L 163.09085 95.345349 
L 163.96593 104.480516 
L 164.84101 89.87647 
L 165.716089 94.948168 
L 166.591169 94.062149 
L 167.466248 101.150305 
L 168.341328 92.320662 
L 169.216408 88.807136 
L 170.091487 93.176129 
L 170.966567 96.261921 
L 171.841647 96.475788 
L 172.716726 98.003408 
L 173.591806 81.993951 
L 174.466886 86.882335 
L 175.341965 83.277152 
L 176.217045 82.268923 
L 177.092124 85.996316 
L 177.967204 77.319434 
L 178.842284 87.860012 
L 179.717363 78.724845 
L 180.592443 82.513342 
L 181.467523 79.855283 
L 182.342602 78.66374 
L 183.217682 79.274788 
L 184.092762 80.985722 
L 184.967841 78.908159 
L 185.842921 81.291246 
L 186.718 75.089109 
L 187.59308 86.149078 
L 188.46816 80.83296 
L 189.343239 77.716616 
L 190.218319 72.278289 
L 191.093399 79.916388 
L 191.968478 74.508614 
L 192.843558 74.539166 
L 193.718638 74.050328 
L 194.593717 76.677834 
L 195.468797 70.26183 
L 196.343877 74.905795 
L 197.218956 75.364081 
L 198.094036 74.019775 
L 198.969115 74.172537 
L 199.844195 75.150214 
L 200.719275 71.972765 
L 201.594354 71.14785 
L 203.344514 70.567354 
L 204.219593 72.094974 
L 205.094673 69.589678 
L 206.844832 73.255965 
L 207.719912 70.078516 
L 208.594991 68.97863 
L 209.470071 71.545031 
L 210.345151 67.298248 
L 211.22023 70.170173 
L 212.09531 68.795315 
L 212.97039 70.628459 
L 213.845469 68.581449 
L 214.720549 71.881108 
L 215.595629 67.267695 
L 216.470708 67.389905 
L 217.345788 66.290019 
L 218.220867 68.764763 
L 219.095947 66.228914 
L 219.971027 67.176038 
L 220.846106 65.403999 
L 221.721186 66.442781 
L 222.596266 66.167809 
L 223.471345 66.778857 
L 224.346425 65.678971 
L 225.221505 64.792951 
L 226.096584 67.970401 
L 226.971664 65.953942 
L 227.846743 64.701294 
L 228.721823 66.962171 
L 229.596903 66.992724 
L 230.471982 66.56499 
L 231.347062 111.01873 
L 232.222142 99.317161 
L 233.972301 88.409955 
L 234.847381 87.401726 
L 235.72246 87.70725 
L 236.59754 86.026868 
L 237.472619 94.642644 
L 238.347699 97.39236 
L 239.222779 85.29361 
L 240.097858 86.424049 
L 240.972938 84.468696 
L 241.848018 83.735438 
L 242.723097 85.782449 
L 243.598177 81.291246 
L 244.473257 125.683881 
L 245.348336 83.368809 
L 246.223416 98.614456 
L 247.098495 79.42755 
L 247.973575 80.283017 
L 248.848655 83.277152 
L 249.723734 99.347714 
L 250.598814 87.310069 
L 251.473894 97.117388 
L 252.348973 84.407591 
L 253.224053 92.259557 
L 254.099133 90.456966 
L 254.974212 82.879971 
L 255.849292 76.341758 
L 256.724371 79.824731 
L 257.599451 81.046827 
L 258.474531 83.12439 
L 259.34961 82.055056 
L 260.22469 76.983358 
L 261.09977 75.364081 
L 261.974849 76.586177 
L 262.849929 78.572083 
L 263.725009 85.263058 
L 264.600088 79.946941 
L 265.475168 76.830596 
L 266.350247 75.791815 
L 267.225327 77.502749 
L 268.100407 81.688427 
L 268.975486 80.496884 
L 269.850566 81.291246 
L 270.725646 72.247736 
L 271.600725 73.530937 
L 272.475805 74.478061 
L 273.350885 73.011546 
L 274.225964 77.105568 
L 275.101044 72.889337 
L 275.976123 72.217184 
L 277.726283 80.038598 
L 278.601362 74.753033 
L 279.476442 80.313569 
L 280.351522 79.030369 
L 281.226601 74.661376 
L 282.101681 82.207818 
L 282.976761 75.394633 
L 283.85184 73.530937 
L 284.72692 81.688427 
L 285.602 80.313569 
L 286.477079 78.480426 
L 287.352159 77.624958 
L 288.227238 75.6085 
L 289.102318 79.030369 
L 289.977398 76.830596 
L 290.852477 76.677834 
L 291.727557 73.805909 
L 292.602637 71.545031 
L 293.477716 81.077379 
L 295.227876 73.989223 
L 296.102955 69.528573 
L 296.978035 72.369946 
L 297.853114 72.431051 
L 298.728194 72.889337 
L 299.603274 68.917525 
L 300.478353 85.171401 
L 301.353433 71.422822 
L 302.228513 73.958671 
L 303.103592 71.667241 
L 303.978672 78.694292 
L 304.853752 75.669605 
L 305.728831 71.086745 
L 306.603911 72.614365 
L 307.47899 68.520344 
L 308.35407 67.817639 
L 309.22915 71.178402 
L 310.104229 73.561489 
L 310.979309 71.392269 
L 311.854389 70.26183 
L 312.729468 72.614365 
L 313.604548 69.559125 
L 314.479628 70.475697 
L 315.354707 66.259466 
L 316.229787 67.695429 
L 317.104866 67.298248 
L 317.979946 66.626095 
L 318.855026 72.492155 
L 319.730105 67.542667 
L 320.605185 69.345258 
L 321.480265 66.534438 
L 322.355344 72.003317 
L 323.230424 66.656647 
L 324.105504 67.298248 
L 324.980583 66.626095 
L 325.855663 64.976266 
L 326.730742 69.74244 
L 327.605822 63.723617 
L 328.480902 66.6872 
L 329.355981 65.15958 
L 330.231061 64.120798 
L 331.106141 67.573219 
L 331.98122 66.106704 
L 332.8563 65.312342 
L 333.73138 68.275925 
L 334.606459 67.512115 
L 335.481539 65.862285 
L 336.356618 65.862285 
L 337.231698 65.067923 
L 338.106778 66.015047 
L 338.981857 67.3288 
L 339.856937 66.931619 
L 340.732017 67.939848 
L 341.607096 64.976266 
L 342.482176 67.542667 
L 343.357256 63.845827 
L 344.232335 64.976266 
L 345.107415 65.92339 
L 345.982494 64.884608 
L 346.857574 62.807045 
L 347.732654 65.098475 
L 348.607733 62.959807 
L 349.482813 63.112569 
L 350.357893 62.837598 
L 351.232972 65.251237 
L 352.108052 64.579084 
L 352.983132 64.762399 
L 353.858211 63.50975 
L 354.733291 64.212456 
L 355.60837 62.073788 
L 356.48345 64.731846 
L 357.35853 63.234779 
L 358.233609 62.501521 
L 359.108689 61.279425 
L 359.983769 63.418093 
L 360.858848 63.020912 
L 361.733928 61.46274 
L 362.609008 61.951578 
L 363.484087 64.304113 
L 364.359167 62.165445 
L 365.234247 62.86815 
L 366.109326 63.387541 
L 366.984406 63.020912 
L 367.859485 60.882244 
L 368.734565 61.615502 
L 369.609645 61.065559 
L 370.484724 62.043235 
L 371.359804 65.678971 
L 372.234884 62.929255 
L 373.109963 61.126663 
L 373.985043 60.851692 
L 374.860123 62.501521 
L 375.735202 61.768264 
L 376.610282 61.584949 
L 377.485361 61.248873 
L 378.360441 61.46274 
L 379.235521 61.096111 
L 380.1106 60.973901 
L 380.98568 62.74594 
L 381.86076 62.593178 
L 382.735839 61.432187 
L 383.610919 61.921026 
L 384.485999 61.157216 
L 385.361078 63.143122 
L 386.236158 61.798816 
L 387.111237 61.523845 
L 389.736476 62.470969 
L 390.611556 60.973901 
L 391.486636 63.570855 
L 392.361715 60.882244 
L 393.236795 61.157216 
L 394.986954 59.599043 
L 395.862034 62.929255 
L 396.737113 62.10434 
L 397.612193 62.012683 
L 398.487273 62.807045 
L 398.487273 62.807045 
" style="fill:none;stroke:#ff7f0e;stroke-linecap:square;stroke-width:1.5;"/>
   </g>
   <g id="patch_3">
    <path d="M 57.6 307.584 
L 57.6 41.472 
" style="fill:none;stroke:#000000;stroke-linecap:square;stroke-linejoin:miter;stroke-width:0.8;"/>
   </g>
   <g id="patch_4">
    <path d="M 414.72 307.584 
L 414.72 41.472 
" style="fill:none;stroke:#000000;stroke-linecap:square;stroke-linejoin:miter;stroke-width:0.8;"/>
   </g>
   <g id="patch_5">
    <path d="M 57.6 307.584 
L 414.72 307.584 
" style="fill:none;stroke:#000000;stroke-linecap:square;stroke-linejoin:miter;stroke-width:0.8;"/>
   </g>
   <g id="patch_6">
    <path d="M 57.6 41.472 
L 414.72 41.472 
" style="fill:none;stroke:#000000;stroke-linecap:square;stroke-linejoin:miter;stroke-width:0.8;"/>
   </g>
   <g id="text_21">
    <!-- Training and Validation Accuracy -->
    <g transform="translate(138.4575 35.472)scale(0.12 -0.12)">
     <defs>
      <path d="M -19 4666 
L 3928 4666 
L 3928 4134 
L 2272 4134 
L 2272 0 
L 1638 0 
L 1638 4134 
L -19 4134 
L -19 4666 
z
" id="DejaVuSans-54" transform="scale(0.015625)"/>
      <path d="M 603 3500 
L 1178 3500 
L 1178 0 
L 603 0 
L 603 3500 
z
M 603 4863 
L 1178 4863 
L 1178 4134 
L 603 4134 
L 603 4863 
z
" id="DejaVuSans-69" transform="scale(0.015625)"/>
      <path d="M 3513 2113 
L 3513 0 
L 2938 0 
L 2938 2094 
Q 2938 2591 2744 2837 
Q 2550 3084 2163 3084 
Q 1697 3084 1428 2787 
Q 1159 2491 1159 1978 
L 1159 0 
L 581 0 
L 581 3500 
L 1159 3500 
L 1159 2956 
Q 1366 3272 1645 3428 
Q 1925 3584 2291 3584 
Q 2894 3584 3203 3211 
Q 3513 2838 3513 2113 
z
" id="DejaVuSans-6e" transform="scale(0.015625)"/>
      <path d="M 2906 1791 
Q 2906 2416 2648 2759 
Q 2391 3103 1925 3103 
Q 1463 3103 1205 2759 
Q 947 2416 947 1791 
Q 947 1169 1205 825 
Q 1463 481 1925 481 
Q 2391 481 2648 825 
Q 2906 1169 2906 1791 
z
M 3481 434 
Q 3481 -459 3084 -895 
Q 2688 -1331 1869 -1331 
Q 1566 -1331 1297 -1286 
Q 1028 -1241 775 -1147 
L 775 -588 
Q 1028 -725 1275 -790 
Q 1522 -856 1778 -856 
Q 2344 -856 2625 -561 
Q 2906 -266 2906 331 
L 2906 616 
Q 2728 306 2450 153 
Q 2172 0 1784 0 
Q 1141 0 747 490 
Q 353 981 353 1791 
Q 353 2603 747 3093 
Q 1141 3584 1784 3584 
Q 2172 3584 2450 3431 
Q 2728 3278 2906 2969 
L 2906 3500 
L 3481 3500 
L 3481 434 
z
" id="DejaVuSans-67" transform="scale(0.015625)"/>
      <path id="DejaVuSans-20" transform="scale(0.015625)"/>
      <path d="M 2906 2969 
L 2906 4863 
L 3481 4863 
L 3481 0 
L 2906 0 
L 2906 525 
Q 2725 213 2448 61 
Q 2172 -91 1784 -91 
Q 1150 -91 751 415 
Q 353 922 353 1747 
Q 353 2572 751 3078 
Q 1150 3584 1784 3584 
Q 2172 3584 2448 3432 
Q 2725 3281 2906 2969 
z
M 947 1747 
Q 947 1113 1208 752 
Q 1469 391 1925 391 
Q 2381 391 2643 752 
Q 2906 1113 2906 1747 
Q 2906 2381 2643 2742 
Q 2381 3103 1925 3103 
Q 1469 3103 1208 2742 
Q 947 2381 947 1747 
z
" id="DejaVuSans-64" transform="scale(0.015625)"/>
      <path d="M 1831 0 
L 50 4666 
L 709 4666 
L 2188 738 
L 3669 4666 
L 4325 4666 
L 2547 0 
L 1831 0 
z
" id="DejaVuSans-56" transform="scale(0.015625)"/>
      <path d="M 603 4863 
L 1178 4863 
L 1178 0 
L 603 0 
L 603 4863 
z
" id="DejaVuSans-6c" transform="scale(0.015625)"/>
      <path d="M 1172 4494 
L 1172 3500 
L 2356 3500 
L 2356 3053 
L 1172 3053 
L 1172 1153 
Q 1172 725 1289 603 
Q 1406 481 1766 481 
L 2356 481 
L 2356 0 
L 1766 0 
Q 1100 0 847 248 
Q 594 497 594 1153 
L 594 3053 
L 172 3053 
L 172 3500 
L 594 3500 
L 594 4494 
L 1172 4494 
z
" id="DejaVuSans-74" transform="scale(0.015625)"/>
     </defs>
     <use xlink:href="#DejaVuSans-54"/>
     <use x="46.333984" xlink:href="#DejaVuSans-72"/>
     <use x="87.447266" xlink:href="#DejaVuSans-61"/>
     <use x="148.726562" xlink:href="#DejaVuSans-69"/>
     <use x="176.509766" xlink:href="#DejaVuSans-6e"/>
     <use x="239.888672" xlink:href="#DejaVuSans-69"/>
     <use x="267.671875" xlink:href="#DejaVuSans-6e"/>
     <use x="331.050781" xlink:href="#DejaVuSans-67"/>
     <use x="394.527344" xlink:href="#DejaVuSans-20"/>
     <use x="426.314453" xlink:href="#DejaVuSans-61"/>
     <use x="487.59375" xlink:href="#DejaVuSans-6e"/>
     <use x="550.972656" xlink:href="#DejaVuSans-64"/>
     <use x="614.449219" xlink:href="#DejaVuSans-20"/>
     <use x="646.236328" xlink:href="#DejaVuSans-56"/>
     <use x="706.894531" xlink:href="#DejaVuSans-61"/>
     <use x="768.173828" xlink:href="#DejaVuSans-6c"/>
     <use x="795.957031" xlink:href="#DejaVuSans-69"/>
     <use x="823.740234" xlink:href="#DejaVuSans-64"/>
     <use x="887.216797" xlink:href="#DejaVuSans-61"/>
     <use x="948.496094" xlink:href="#DejaVuSans-74"/>
     <use x="987.705078" xlink:href="#DejaVuSans-69"/>
     <use x="1015.488281" xlink:href="#DejaVuSans-6f"/>
     <use x="1076.669922" xlink:href="#DejaVuSans-6e"/>
     <use x="1140.048828" xlink:href="#DejaVuSans-20"/>
     <use x="1171.835938" xlink:href="#DejaVuSans-41"/>
     <use x="1238.494141" xlink:href="#DejaVuSans-63"/>
     <use x="1293.474609" xlink:href="#DejaVuSans-63"/>
     <use x="1348.455078" xlink:href="#DejaVuSans-75"/>
     <use x="1411.833984" xlink:href="#DejaVuSans-72"/>
     <use x="1452.947266" xlink:href="#DejaVuSans-61"/>
     <use x="1514.226562" xlink:href="#DejaVuSans-63"/>
     <use x="1569.207031" xlink:href="#DejaVuSans-79"/>
    </g>
   </g>
   <g id="legend_1">
    <g id="patch_7">
     <path d="M 277.504375 302.584 
L 407.72 302.584 
Q 409.72 302.584 409.72 300.584 
L 409.72 272.22775 
Q 409.72 270.22775 407.72 270.22775 
L 277.504375 270.22775 
Q 275.504375 270.22775 275.504375 272.22775 
L 275.504375 300.584 
Q 275.504375 302.584 277.504375 302.584 
z
" style="fill:#ffffff;opacity:0.8;stroke:#cccccc;stroke-linejoin:miter;"/>
    </g>
    <g id="line2d_21">
     <path d="M 279.504375 278.326187 
L 299.504375 278.326187 
" style="fill:none;stroke:#1f77b4;stroke-linecap:square;stroke-width:1.5;"/>
    </g>
    <g id="line2d_22"/>
    <g id="text_22">
     <!-- Train Accuracy -->
     <g transform="translate(307.504375 281.826187)scale(0.1 -0.1)">
      <use xlink:href="#DejaVuSans-54"/>
      <use x="46.333984" xlink:href="#DejaVuSans-72"/>
      <use x="87.447266" xlink:href="#DejaVuSans-61"/>
      <use x="148.726562" xlink:href="#DejaVuSans-69"/>
      <use x="176.509766" xlink:href="#DejaVuSans-6e"/>
      <use x="239.888672" xlink:href="#DejaVuSans-20"/>
      <use x="271.675781" xlink:href="#DejaVuSans-41"/>
      <use x="338.333984" xlink:href="#DejaVuSans-63"/>
      <use x="393.314453" xlink:href="#DejaVuSans-63"/>
      <use x="448.294922" xlink:href="#DejaVuSans-75"/>
      <use x="511.673828" xlink:href="#DejaVuSans-72"/>
      <use x="552.787109" xlink:href="#DejaVuSans-61"/>
      <use x="614.066406" xlink:href="#DejaVuSans-63"/>
      <use x="669.046875" xlink:href="#DejaVuSans-79"/>
     </g>
    </g>
    <g id="line2d_23">
     <path d="M 279.504375 293.004312 
L 299.504375 293.004312 
" style="fill:none;stroke:#ff7f0e;stroke-linecap:square;stroke-width:1.5;"/>
    </g>
    <g id="line2d_24"/>
    <g id="text_23">
     <!-- Validation Accuracy -->
     <g transform="translate(307.504375 296.504312)scale(0.1 -0.1)">
      <use xlink:href="#DejaVuSans-56"/>
      <use x="60.658203" xlink:href="#DejaVuSans-61"/>
      <use x="121.9375" xlink:href="#DejaVuSans-6c"/>
      <use x="149.720703" xlink:href="#DejaVuSans-69"/>
      <use x="177.503906" xlink:href="#DejaVuSans-64"/>
      <use x="240.980469" xlink:href="#DejaVuSans-61"/>
      <use x="302.259766" xlink:href="#DejaVuSans-74"/>
      <use x="341.46875" xlink:href="#DejaVuSans-69"/>
      <use x="369.251953" xlink:href="#DejaVuSans-6f"/>
      <use x="430.433594" xlink:href="#DejaVuSans-6e"/>
      <use x="493.8125" xlink:href="#DejaVuSans-20"/>
      <use x="525.599609" xlink:href="#DejaVuSans-41"/>
      <use x="592.257812" xlink:href="#DejaVuSans-63"/>
      <use x="647.238281" xlink:href="#DejaVuSans-63"/>
      <use x="702.21875" xlink:href="#DejaVuSans-75"/>
      <use x="765.597656" xlink:href="#DejaVuSans-72"/>
      <use x="806.710938" xlink:href="#DejaVuSans-61"/>
      <use x="867.990234" xlink:href="#DejaVuSans-63"/>
      <use x="922.970703" xlink:href="#DejaVuSans-79"/>
     </g>
    </g>
   </g>
  </g>
 </g>
 <defs>
  <clipPath id="p4358ee62cf">
   <rect height="266.112" width="357.12" x="57.6" y="41.472"/>
  </clipPath>
 </defs>
</svg>
