<?xml version="1.0" encoding="utf-8" standalone="no"?>
<!DOCTYPE svg PUBLIC "-//W3C//DTD SVG 1.1//EN"
  "http://www.w3.org/Graphics/SVG/1.1/DTD/svg11.dtd">
<svg height="345.6pt" version="1.1" viewBox="0 0 460.8 345.6" width="460.8pt" xmlns="http://www.w3.org/2000/svg" xmlns:xlink="http://www.w3.org/1999/xlink">
 <metadata>
  <rdf:RDF xmlns:cc="http://creativecommons.org/ns#" xmlns:dc="http://purl.org/dc/elements/1.1/" xmlns:rdf="http://www.w3.org/1999/02/22-rdf-syntax-ns#">
   <cc:Work>
    <dc:type rdf:resource="http://purl.org/dc/dcmitype/StillImage"/>
    <dc:date>2024-03-25T19:59:37.563556</dc:date>
    <dc:format>image/svg+xml</dc:format>
    <dc:creator>
     <cc:Agent>
      <dc:title>Matplotlib v3.4.3, https://matplotlib.org/</dc:title>
     </cc:Agent>
    </dc:creator>
   </cc:Work>
  </rdf:RDF>
 </metadata>
 <defs>
  <style type="text/css">*{stroke-linecap:butt;stroke-linejoin:round;}</style>
 </defs>
 <g id="figure_1">
  <g id="patch_1">
   <path d="M 0 345.6 
L 460.8 345.6 
L 460.8 0 
L 0 0 
z
" style="fill:#ffffff;"/>
  </g>
  <g id="axes_1">
   <g id="patch_2">
    <path d="M 57.6 307.584 
L 414.72 307.584 
L 414.72 41.472 
L 57.6 41.472 
z
" style="fill:#ffffff;"/>
   </g>
   <g id="matplotlib.axis_1">
    <g id="xtick_1">
     <g id="line2d_1">
      <defs>
       <path d="M 0 0 
L 0 3.5 
" id="m9c8ae6153f" style="stroke:#000000;stroke-width:0.8;"/>
      </defs>
      <g>
       <use style="stroke:#000000;stroke-width:0.8;" x="73.832727" xlink:href="#m9c8ae6153f" y="307.584"/>
      </g>
     </g>
     <g id="text_1">
      <!-- 1 -->
      <g transform="translate(70.651477 322.182437)scale(0.1 -0.1)">
       <defs>
        <path d="M 794 531 
L 1825 531 
L 1825 4091 
L 703 3866 
L 703 4441 
L 1819 4666 
L 2450 4666 
L 2450 531 
L 3481 531 
L 3481 0 
L 794 0 
L 794 531 
z
" id="DejaVuSans-31" transform="scale(0.015625)"/>
       </defs>
       <use xlink:href="#DejaVuSans-31"/>
      </g>
     </g>
    </g>
    <g id="xtick_2">
     <g id="line2d_2">
      <g>
       <use style="stroke:#000000;stroke-width:0.8;" x="109.423199" xlink:href="#m9c8ae6153f" y="307.584"/>
      </g>
     </g>
     <g id="text_2">
      <!-- 42 -->
      <g transform="translate(103.060699 322.182437)scale(0.1 -0.1)">
       <defs>
        <path d="M 2419 4116 
L 825 1625 
L 2419 1625 
L 2419 4116 
z
M 2253 4666 
L 3047 4666 
L 3047 1625 
L 3713 1625 
L 3713 1100 
L 3047 1100 
L 3047 0 
L 2419 0 
L 2419 1100 
L 313 1100 
L 313 1709 
L 2253 4666 
z
" id="DejaVuSans-34" transform="scale(0.015625)"/>
        <path d="M 1228 531 
L 3431 531 
L 3431 0 
L 469 0 
L 469 531 
Q 828 903 1448 1529 
Q 2069 2156 2228 2338 
Q 2531 2678 2651 2914 
Q 2772 3150 2772 3378 
Q 2772 3750 2511 3984 
Q 2250 4219 1831 4219 
Q 1534 4219 1204 4116 
Q 875 4013 500 3803 
L 500 4441 
Q 881 4594 1212 4672 
Q 1544 4750 1819 4750 
Q 2544 4750 2975 4387 
Q 3406 4025 3406 3419 
Q 3406 3131 3298 2873 
Q 3191 2616 2906 2266 
Q 2828 2175 2409 1742 
Q 1991 1309 1228 531 
z
" id="DejaVuSans-32" transform="scale(0.015625)"/>
       </defs>
       <use xlink:href="#DejaVuSans-34"/>
       <use x="63.623047" xlink:href="#DejaVuSans-32"/>
      </g>
     </g>
    </g>
    <g id="xtick_3">
     <g id="line2d_3">
      <g>
       <use style="stroke:#000000;stroke-width:0.8;" x="145.881731" xlink:href="#m9c8ae6153f" y="307.584"/>
      </g>
     </g>
     <g id="text_3">
      <!-- 84 -->
      <g transform="translate(139.519231 322.182437)scale(0.1 -0.1)">
       <defs>
        <path d="M 2034 2216 
Q 1584 2216 1326 1975 
Q 1069 1734 1069 1313 
Q 1069 891 1326 650 
Q 1584 409 2034 409 
Q 2484 409 2743 651 
Q 3003 894 3003 1313 
Q 3003 1734 2745 1975 
Q 2488 2216 2034 2216 
z
M 1403 2484 
Q 997 2584 770 2862 
Q 544 3141 544 3541 
Q 544 4100 942 4425 
Q 1341 4750 2034 4750 
Q 2731 4750 3128 4425 
Q 3525 4100 3525 3541 
Q 3525 3141 3298 2862 
Q 3072 2584 2669 2484 
Q 3125 2378 3379 2068 
Q 3634 1759 3634 1313 
Q 3634 634 3220 271 
Q 2806 -91 2034 -91 
Q 1263 -91 848 271 
Q 434 634 434 1313 
Q 434 1759 690 2068 
Q 947 2378 1403 2484 
z
M 1172 3481 
Q 1172 3119 1398 2916 
Q 1625 2713 2034 2713 
Q 2441 2713 2670 2916 
Q 2900 3119 2900 3481 
Q 2900 3844 2670 4047 
Q 2441 4250 2034 4250 
Q 1625 4250 1398 4047 
Q 1172 3844 1172 3481 
z
" id="DejaVuSans-38" transform="scale(0.015625)"/>
       </defs>
       <use xlink:href="#DejaVuSans-38"/>
       <use x="63.623047" xlink:href="#DejaVuSans-34"/>
      </g>
     </g>
    </g>
    <g id="xtick_4">
     <g id="line2d_4">
      <g>
       <use style="stroke:#000000;stroke-width:0.8;" x="181.472202" xlink:href="#m9c8ae6153f" y="307.584"/>
      </g>
     </g>
     <g id="text_4">
      <!-- 125 -->
      <g transform="translate(171.928452 322.182437)scale(0.1 -0.1)">
       <defs>
        <path d="M 691 4666 
L 3169 4666 
L 3169 4134 
L 1269 4134 
L 1269 2991 
Q 1406 3038 1543 3061 
Q 1681 3084 1819 3084 
Q 2600 3084 3056 2656 
Q 3513 2228 3513 1497 
Q 3513 744 3044 326 
Q 2575 -91 1722 -91 
Q 1428 -91 1123 -41 
Q 819 9 494 109 
L 494 744 
Q 775 591 1075 516 
Q 1375 441 1709 441 
Q 2250 441 2565 725 
Q 2881 1009 2881 1497 
Q 2881 1984 2565 2268 
Q 2250 2553 1709 2553 
Q 1456 2553 1204 2497 
Q 953 2441 691 2322 
L 691 4666 
z
" id="DejaVuSans-35" transform="scale(0.015625)"/>
       </defs>
       <use xlink:href="#DejaVuSans-31"/>
       <use x="63.623047" xlink:href="#DejaVuSans-32"/>
       <use x="127.246094" xlink:href="#DejaVuSans-35"/>
      </g>
     </g>
    </g>
    <g id="xtick_5">
     <g id="line2d_5">
      <g>
       <use style="stroke:#000000;stroke-width:0.8;" x="217.930734" xlink:href="#m9c8ae6153f" y="307.584"/>
      </g>
     </g>
     <g id="text_5">
      <!-- 167 -->
      <g transform="translate(208.386984 322.182437)scale(0.1 -0.1)">
       <defs>
        <path d="M 2113 2584 
Q 1688 2584 1439 2293 
Q 1191 2003 1191 1497 
Q 1191 994 1439 701 
Q 1688 409 2113 409 
Q 2538 409 2786 701 
Q 3034 994 3034 1497 
Q 3034 2003 2786 2293 
Q 2538 2584 2113 2584 
z
M 3366 4563 
L 3366 3988 
Q 3128 4100 2886 4159 
Q 2644 4219 2406 4219 
Q 1781 4219 1451 3797 
Q 1122 3375 1075 2522 
Q 1259 2794 1537 2939 
Q 1816 3084 2150 3084 
Q 2853 3084 3261 2657 
Q 3669 2231 3669 1497 
Q 3669 778 3244 343 
Q 2819 -91 2113 -91 
Q 1303 -91 875 529 
Q 447 1150 447 2328 
Q 447 3434 972 4092 
Q 1497 4750 2381 4750 
Q 2619 4750 2861 4703 
Q 3103 4656 3366 4563 
z
" id="DejaVuSans-36" transform="scale(0.015625)"/>
        <path d="M 525 4666 
L 3525 4666 
L 3525 4397 
L 1831 0 
L 1172 0 
L 2766 4134 
L 525 4134 
L 525 4666 
z
" id="DejaVuSans-37" transform="scale(0.015625)"/>
       </defs>
       <use xlink:href="#DejaVuSans-31"/>
       <use x="63.623047" xlink:href="#DejaVuSans-36"/>
       <use x="127.246094" xlink:href="#DejaVuSans-37"/>
      </g>
     </g>
    </g>
    <g id="xtick_6">
     <g id="line2d_6">
      <g>
       <use style="stroke:#000000;stroke-width:0.8;" x="253.521206" xlink:href="#m9c8ae6153f" y="307.584"/>
      </g>
     </g>
     <g id="text_6">
      <!-- 208 -->
      <g transform="translate(243.977456 322.182437)scale(0.1 -0.1)">
       <defs>
        <path d="M 2034 4250 
Q 1547 4250 1301 3770 
Q 1056 3291 1056 2328 
Q 1056 1369 1301 889 
Q 1547 409 2034 409 
Q 2525 409 2770 889 
Q 3016 1369 3016 2328 
Q 3016 3291 2770 3770 
Q 2525 4250 2034 4250 
z
M 2034 4750 
Q 2819 4750 3233 4129 
Q 3647 3509 3647 2328 
Q 3647 1150 3233 529 
Q 2819 -91 2034 -91 
Q 1250 -91 836 529 
Q 422 1150 422 2328 
Q 422 3509 836 4129 
Q 1250 4750 2034 4750 
z
" id="DejaVuSans-30" transform="scale(0.015625)"/>
       </defs>
       <use xlink:href="#DejaVuSans-32"/>
       <use x="63.623047" xlink:href="#DejaVuSans-30"/>
       <use x="127.246094" xlink:href="#DejaVuSans-38"/>
      </g>
     </g>
    </g>
    <g id="xtick_7">
     <g id="line2d_7">
      <g>
       <use style="stroke:#000000;stroke-width:0.8;" x="289.979737" xlink:href="#m9c8ae6153f" y="307.584"/>
      </g>
     </g>
     <g id="text_7">
      <!-- 250 -->
      <g transform="translate(280.435987 322.182437)scale(0.1 -0.1)">
       <use xlink:href="#DejaVuSans-32"/>
       <use x="63.623047" xlink:href="#DejaVuSans-35"/>
       <use x="127.246094" xlink:href="#DejaVuSans-30"/>
      </g>
     </g>
    </g>
    <g id="xtick_8">
     <g id="line2d_8">
      <g>
       <use style="stroke:#000000;stroke-width:0.8;" x="325.570209" xlink:href="#m9c8ae6153f" y="307.584"/>
      </g>
     </g>
     <g id="text_8">
      <!-- 291 -->
      <g transform="translate(316.026459 322.182437)scale(0.1 -0.1)">
       <defs>
        <path d="M 703 97 
L 703 672 
Q 941 559 1184 500 
Q 1428 441 1663 441 
Q 2288 441 2617 861 
Q 2947 1281 2994 2138 
Q 2813 1869 2534 1725 
Q 2256 1581 1919 1581 
Q 1219 1581 811 2004 
Q 403 2428 403 3163 
Q 403 3881 828 4315 
Q 1253 4750 1959 4750 
Q 2769 4750 3195 4129 
Q 3622 3509 3622 2328 
Q 3622 1225 3098 567 
Q 2575 -91 1691 -91 
Q 1453 -91 1209 -44 
Q 966 3 703 97 
z
M 1959 2075 
Q 2384 2075 2632 2365 
Q 2881 2656 2881 3163 
Q 2881 3666 2632 3958 
Q 2384 4250 1959 4250 
Q 1534 4250 1286 3958 
Q 1038 3666 1038 3163 
Q 1038 2656 1286 2365 
Q 1534 2075 1959 2075 
z
" id="DejaVuSans-39" transform="scale(0.015625)"/>
       </defs>
       <use xlink:href="#DejaVuSans-32"/>
       <use x="63.623047" xlink:href="#DejaVuSans-39"/>
       <use x="127.246094" xlink:href="#DejaVuSans-31"/>
      </g>
     </g>
    </g>
    <g id="xtick_9">
     <g id="line2d_9">
      <g>
       <use style="stroke:#000000;stroke-width:0.8;" x="362.028741" xlink:href="#m9c8ae6153f" y="307.584"/>
      </g>
     </g>
     <g id="text_9">
      <!-- 333 -->
      <g transform="translate(352.484991 322.182437)scale(0.1 -0.1)">
       <defs>
        <path d="M 2597 2516 
Q 3050 2419 3304 2112 
Q 3559 1806 3559 1356 
Q 3559 666 3084 287 
Q 2609 -91 1734 -91 
Q 1441 -91 1130 -33 
Q 819 25 488 141 
L 488 750 
Q 750 597 1062 519 
Q 1375 441 1716 441 
Q 2309 441 2620 675 
Q 2931 909 2931 1356 
Q 2931 1769 2642 2001 
Q 2353 2234 1838 2234 
L 1294 2234 
L 1294 2753 
L 1863 2753 
Q 2328 2753 2575 2939 
Q 2822 3125 2822 3475 
Q 2822 3834 2567 4026 
Q 2313 4219 1838 4219 
Q 1578 4219 1281 4162 
Q 984 4106 628 3988 
L 628 4550 
Q 988 4650 1302 4700 
Q 1616 4750 1894 4750 
Q 2613 4750 3031 4423 
Q 3450 4097 3450 3541 
Q 3450 3153 3228 2886 
Q 3006 2619 2597 2516 
z
" id="DejaVuSans-33" transform="scale(0.015625)"/>
       </defs>
       <use xlink:href="#DejaVuSans-33"/>
       <use x="63.623047" xlink:href="#DejaVuSans-33"/>
       <use x="127.246094" xlink:href="#DejaVuSans-33"/>
      </g>
     </g>
    </g>
    <g id="xtick_10">
     <g id="line2d_10">
      <g>
       <use style="stroke:#000000;stroke-width:0.8;" x="398.487273" xlink:href="#m9c8ae6153f" y="307.584"/>
      </g>
     </g>
     <g id="text_10">
      <!-- 375 -->
      <g transform="translate(388.943523 322.182437)scale(0.1 -0.1)">
       <use xlink:href="#DejaVuSans-33"/>
       <use x="63.623047" xlink:href="#DejaVuSans-37"/>
       <use x="127.246094" xlink:href="#DejaVuSans-35"/>
      </g>
     </g>
    </g>
    <g id="text_11">
     <!-- Epochs -->
     <g transform="translate(218.244375 335.860562)scale(0.1 -0.1)">
      <defs>
       <path d="M 628 4666 
L 3578 4666 
L 3578 4134 
L 1259 4134 
L 1259 2753 
L 3481 2753 
L 3481 2222 
L 1259 2222 
L 1259 531 
L 3634 531 
L 3634 0 
L 628 0 
L 628 4666 
z
" id="DejaVuSans-45" transform="scale(0.015625)"/>
       <path d="M 1159 525 
L 1159 -1331 
L 581 -1331 
L 581 3500 
L 1159 3500 
L 1159 2969 
Q 1341 3281 1617 3432 
Q 1894 3584 2278 3584 
Q 2916 3584 3314 3078 
Q 3713 2572 3713 1747 
Q 3713 922 3314 415 
Q 2916 -91 2278 -91 
Q 1894 -91 1617 61 
Q 1341 213 1159 525 
z
M 3116 1747 
Q 3116 2381 2855 2742 
Q 2594 3103 2138 3103 
Q 1681 3103 1420 2742 
Q 1159 2381 1159 1747 
Q 1159 1113 1420 752 
Q 1681 391 2138 391 
Q 2594 391 2855 752 
Q 3116 1113 3116 1747 
z
" id="DejaVuSans-70" transform="scale(0.015625)"/>
       <path d="M 1959 3097 
Q 1497 3097 1228 2736 
Q 959 2375 959 1747 
Q 959 1119 1226 758 
Q 1494 397 1959 397 
Q 2419 397 2687 759 
Q 2956 1122 2956 1747 
Q 2956 2369 2687 2733 
Q 2419 3097 1959 3097 
z
M 1959 3584 
Q 2709 3584 3137 3096 
Q 3566 2609 3566 1747 
Q 3566 888 3137 398 
Q 2709 -91 1959 -91 
Q 1206 -91 779 398 
Q 353 888 353 1747 
Q 353 2609 779 3096 
Q 1206 3584 1959 3584 
z
" id="DejaVuSans-6f" transform="scale(0.015625)"/>
       <path d="M 3122 3366 
L 3122 2828 
Q 2878 2963 2633 3030 
Q 2388 3097 2138 3097 
Q 1578 3097 1268 2742 
Q 959 2388 959 1747 
Q 959 1106 1268 751 
Q 1578 397 2138 397 
Q 2388 397 2633 464 
Q 2878 531 3122 666 
L 3122 134 
Q 2881 22 2623 -34 
Q 2366 -91 2075 -91 
Q 1284 -91 818 406 
Q 353 903 353 1747 
Q 353 2603 823 3093 
Q 1294 3584 2113 3584 
Q 2378 3584 2631 3529 
Q 2884 3475 3122 3366 
z
" id="DejaVuSans-63" transform="scale(0.015625)"/>
       <path d="M 3513 2113 
L 3513 0 
L 2938 0 
L 2938 2094 
Q 2938 2591 2744 2837 
Q 2550 3084 2163 3084 
Q 1697 3084 1428 2787 
Q 1159 2491 1159 1978 
L 1159 0 
L 581 0 
L 581 4863 
L 1159 4863 
L 1159 2956 
Q 1366 3272 1645 3428 
Q 1925 3584 2291 3584 
Q 2894 3584 3203 3211 
Q 3513 2838 3513 2113 
z
" id="DejaVuSans-68" transform="scale(0.015625)"/>
       <path d="M 2834 3397 
L 2834 2853 
Q 2591 2978 2328 3040 
Q 2066 3103 1784 3103 
Q 1356 3103 1142 2972 
Q 928 2841 928 2578 
Q 928 2378 1081 2264 
Q 1234 2150 1697 2047 
L 1894 2003 
Q 2506 1872 2764 1633 
Q 3022 1394 3022 966 
Q 3022 478 2636 193 
Q 2250 -91 1575 -91 
Q 1294 -91 989 -36 
Q 684 19 347 128 
L 347 722 
Q 666 556 975 473 
Q 1284 391 1588 391 
Q 1994 391 2212 530 
Q 2431 669 2431 922 
Q 2431 1156 2273 1281 
Q 2116 1406 1581 1522 
L 1381 1569 
Q 847 1681 609 1914 
Q 372 2147 372 2553 
Q 372 3047 722 3315 
Q 1072 3584 1716 3584 
Q 2034 3584 2315 3537 
Q 2597 3491 2834 3397 
z
" id="DejaVuSans-73" transform="scale(0.015625)"/>
      </defs>
      <use xlink:href="#DejaVuSans-45"/>
      <use x="63.183594" xlink:href="#DejaVuSans-70"/>
      <use x="126.660156" xlink:href="#DejaVuSans-6f"/>
      <use x="187.841797" xlink:href="#DejaVuSans-63"/>
      <use x="242.822266" xlink:href="#DejaVuSans-68"/>
      <use x="306.201172" xlink:href="#DejaVuSans-73"/>
     </g>
    </g>
   </g>
   <g id="matplotlib.axis_2">
    <g id="ytick_1">
     <g id="line2d_11">
      <defs>
       <path d="M 0 0 
L -3.5 0 
" id="ma369f34c99" style="stroke:#000000;stroke-width:0.8;"/>
      </defs>
      <g>
       <use style="stroke:#000000;stroke-width:0.8;" x="57.6" xlink:href="#ma369f34c99" y="283.857311"/>
      </g>
     </g>
     <g id="text_12">
      <!-- 10 -->
      <g transform="translate(37.875 287.65653)scale(0.1 -0.1)">
       <use xlink:href="#DejaVuSans-31"/>
       <use x="63.623047" xlink:href="#DejaVuSans-30"/>
      </g>
     </g>
    </g>
    <g id="ytick_2">
     <g id="line2d_12">
      <g>
       <use style="stroke:#000000;stroke-width:0.8;" x="57.6" xlink:href="#ma369f34c99" y="253.028755"/>
      </g>
     </g>
     <g id="text_13">
      <!-- 20 -->
      <g transform="translate(37.875 256.827974)scale(0.1 -0.1)">
       <use xlink:href="#DejaVuSans-32"/>
       <use x="63.623047" xlink:href="#DejaVuSans-30"/>
      </g>
     </g>
    </g>
    <g id="ytick_3">
     <g id="line2d_13">
      <g>
       <use style="stroke:#000000;stroke-width:0.8;" x="57.6" xlink:href="#ma369f34c99" y="222.200199"/>
      </g>
     </g>
     <g id="text_14">
      <!-- 30 -->
      <g transform="translate(37.875 225.999418)scale(0.1 -0.1)">
       <use xlink:href="#DejaVuSans-33"/>
       <use x="63.623047" xlink:href="#DejaVuSans-30"/>
      </g>
     </g>
    </g>
    <g id="ytick_4">
     <g id="line2d_14">
      <g>
       <use style="stroke:#000000;stroke-width:0.8;" x="57.6" xlink:href="#ma369f34c99" y="191.371644"/>
      </g>
     </g>
     <g id="text_15">
      <!-- 40 -->
      <g transform="translate(37.875 195.170863)scale(0.1 -0.1)">
       <use xlink:href="#DejaVuSans-34"/>
       <use x="63.623047" xlink:href="#DejaVuSans-30"/>
      </g>
     </g>
    </g>
    <g id="ytick_5">
     <g id="line2d_15">
      <g>
       <use style="stroke:#000000;stroke-width:0.8;" x="57.6" xlink:href="#ma369f34c99" y="160.543088"/>
      </g>
     </g>
     <g id="text_16">
      <!-- 50 -->
      <g transform="translate(37.875 164.342307)scale(0.1 -0.1)">
       <use xlink:href="#DejaVuSans-35"/>
       <use x="63.623047" xlink:href="#DejaVuSans-30"/>
      </g>
     </g>
    </g>
    <g id="ytick_6">
     <g id="line2d_16">
      <g>
       <use style="stroke:#000000;stroke-width:0.8;" x="57.6" xlink:href="#ma369f34c99" y="129.714532"/>
      </g>
     </g>
     <g id="text_17">
      <!-- 60 -->
      <g transform="translate(37.875 133.513751)scale(0.1 -0.1)">
       <use xlink:href="#DejaVuSans-36"/>
       <use x="63.623047" xlink:href="#DejaVuSans-30"/>
      </g>
     </g>
    </g>
    <g id="ytick_7">
     <g id="line2d_17">
      <g>
       <use style="stroke:#000000;stroke-width:0.8;" x="57.6" xlink:href="#ma369f34c99" y="98.885977"/>
      </g>
     </g>
     <g id="text_18">
      <!-- 70 -->
      <g transform="translate(37.875 102.685196)scale(0.1 -0.1)">
       <use xlink:href="#DejaVuSans-37"/>
       <use x="63.623047" xlink:href="#DejaVuSans-30"/>
      </g>
     </g>
    </g>
    <g id="ytick_8">
     <g id="line2d_18">
      <g>
       <use style="stroke:#000000;stroke-width:0.8;" x="57.6" xlink:href="#ma369f34c99" y="68.057421"/>
      </g>
     </g>
     <g id="text_19">
      <!-- 80 -->
      <g transform="translate(37.875 71.85664)scale(0.1 -0.1)">
       <use xlink:href="#DejaVuSans-38"/>
       <use x="63.623047" xlink:href="#DejaVuSans-30"/>
      </g>
     </g>
    </g>
    <g id="text_20">
     <!-- Accuracy -->
     <g transform="translate(31.795312 197.356125)rotate(-90)scale(0.1 -0.1)">
      <defs>
       <path d="M 2188 4044 
L 1331 1722 
L 3047 1722 
L 2188 4044 
z
M 1831 4666 
L 2547 4666 
L 4325 0 
L 3669 0 
L 3244 1197 
L 1141 1197 
L 716 0 
L 50 0 
L 1831 4666 
z
" id="DejaVuSans-41" transform="scale(0.015625)"/>
       <path d="M 544 1381 
L 544 3500 
L 1119 3500 
L 1119 1403 
Q 1119 906 1312 657 
Q 1506 409 1894 409 
Q 2359 409 2629 706 
Q 2900 1003 2900 1516 
L 2900 3500 
L 3475 3500 
L 3475 0 
L 2900 0 
L 2900 538 
Q 2691 219 2414 64 
Q 2138 -91 1772 -91 
Q 1169 -91 856 284 
Q 544 659 544 1381 
z
M 1991 3584 
L 1991 3584 
z
" id="DejaVuSans-75" transform="scale(0.015625)"/>
       <path d="M 2631 2963 
Q 2534 3019 2420 3045 
Q 2306 3072 2169 3072 
Q 1681 3072 1420 2755 
Q 1159 2438 1159 1844 
L 1159 0 
L 581 0 
L 581 3500 
L 1159 3500 
L 1159 2956 
Q 1341 3275 1631 3429 
Q 1922 3584 2338 3584 
Q 2397 3584 2469 3576 
Q 2541 3569 2628 3553 
L 2631 2963 
z
" id="DejaVuSans-72" transform="scale(0.015625)"/>
       <path d="M 2194 1759 
Q 1497 1759 1228 1600 
Q 959 1441 959 1056 
Q 959 750 1161 570 
Q 1363 391 1709 391 
Q 2188 391 2477 730 
Q 2766 1069 2766 1631 
L 2766 1759 
L 2194 1759 
z
M 3341 1997 
L 3341 0 
L 2766 0 
L 2766 531 
Q 2569 213 2275 61 
Q 1981 -91 1556 -91 
Q 1019 -91 701 211 
Q 384 513 384 1019 
Q 384 1609 779 1909 
Q 1175 2209 1959 2209 
L 2766 2209 
L 2766 2266 
Q 2766 2663 2505 2880 
Q 2244 3097 1772 3097 
Q 1472 3097 1187 3025 
Q 903 2953 641 2809 
L 641 3341 
Q 956 3463 1253 3523 
Q 1550 3584 1831 3584 
Q 2591 3584 2966 3190 
Q 3341 2797 3341 1997 
z
" id="DejaVuSans-61" transform="scale(0.015625)"/>
       <path d="M 2059 -325 
Q 1816 -950 1584 -1140 
Q 1353 -1331 966 -1331 
L 506 -1331 
L 506 -850 
L 844 -850 
Q 1081 -850 1212 -737 
Q 1344 -625 1503 -206 
L 1606 56 
L 191 3500 
L 800 3500 
L 1894 763 
L 2988 3500 
L 3597 3500 
L 2059 -325 
z
" id="DejaVuSans-79" transform="scale(0.015625)"/>
      </defs>
      <use xlink:href="#DejaVuSans-41"/>
      <use x="66.658203" xlink:href="#DejaVuSans-63"/>
      <use x="121.638672" xlink:href="#DejaVuSans-63"/>
      <use x="176.619141" xlink:href="#DejaVuSans-75"/>
      <use x="239.998047" xlink:href="#DejaVuSans-72"/>
      <use x="281.111328" xlink:href="#DejaVuSans-61"/>
      <use x="342.390625" xlink:href="#DejaVuSans-63"/>
      <use x="397.371094" xlink:href="#DejaVuSans-79"/>
     </g>
    </g>
   </g>
   <g id="line2d_19">
    <path clip-path="url(#p9ff615c40e)" d="M 73.832727 295.488 
L 76.436908 247.791908 
L 77.304968 233.508114 
L 79.041089 212.298067 
L 79.909149 206.165343 
L 80.77721 192.136192 
L 81.64527 191.324476 
L 82.51333 179.07105 
L 83.38139 171.666031 
L 84.249451 172.903181 
L 85.117511 165.498162 
L 85.985571 162.518274 
L 86.853632 154.420537 
L 87.721692 148.082186 
L 88.589752 145.511084 
L 89.457812 139.891964 
L 90.325873 136.336506 
L 91.193933 136.311843 
L 92.061993 130.228445 
L 92.930053 132.041164 
L 93.798114 123.863273 
L 94.666174 119.097178 
L 95.534234 174.9317 
L 96.402295 171.883989 
L 97.270355 167.436353 
L 98.138415 160.966364 
L 99.006475 160.465092 
L 99.874536 159.201121 
L 100.742596 148.330972 
L 101.610656 153.910941 
L 102.478717 148.150009 
L 103.346777 145.979678 
L 104.214837 140.372889 
L 105.082897 140.631849 
L 105.950958 139.649651 
L 106.819018 139.086413 
L 107.687078 135.606794 
L 108.555139 139.080248 
L 109.423199 130.281778 
L 110.291259 133.559778 
L 111.159319 130.573724 
L 112.02738 122.870593 
L 112.89544 125.112754 
L 113.7635 120.513133 
L 114.631561 124.525162 
L 115.499621 116.785036 
L 116.367681 115.788349 
L 117.235741 116.182955 
L 118.971862 110.845298 
L 119.839922 106.056699 
L 120.707982 105.98271 
L 121.576043 104.036504 
L 122.444103 102.90602 
L 123.312163 103.275963 
L 124.180224 97.905629 
L 125.048284 103.107331 
L 125.916344 95.868786 
L 126.784404 92.150862 
L 127.652465 90.839724 
L 128.520525 90.510783 
L 129.388585 92.551633 
L 130.256646 89.174982 
L 131.124706 84.250737 
L 131.992766 91.443963 
L 132.860826 82.343374 
L 133.728887 82.875783 
L 134.596947 80.670308 
L 135.465007 80.953931 
L 136.333068 87.123958 
L 137.201128 89.218142 
L 138.069188 93.739766 
L 138.937248 128.296419 
L 139.805309 133.837235 
L 140.673369 132.402783 
L 141.541429 129.893338 
L 142.40949 134.482785 
L 143.27755 124.058417 
L 144.14561 122.315679 
L 145.01367 121.458645 
L 145.881731 117.039988 
L 146.749791 121.249011 
L 147.617851 118.66157 
L 148.485912 119.787738 
L 149.353972 116.291779 
L 150.222032 113.811005 
L 151.090092 116.721221 
L 151.958153 119.144346 
L 152.826213 117.845539 
L 153.694273 115.650545 
L 154.562333 114.797519 
L 155.430394 112.216244 
L 156.298454 115.066961 
L 157.166514 112.355898 
L 158.034575 107.359822 
L 158.902635 105.822402 
L 159.770695 109.155894 
L 160.638755 102.815693 
L 161.506816 113.254242 
L 162.374876 108.54148 
L 163.242936 108.202366 
L 164.110997 102.83419 
L 164.979057 103.600588 
L 165.847117 106.044367 
L 166.715177 105.384636 
L 167.583238 107.538628 
L 168.451298 99.7575 
L 169.319358 107.144022 
L 170.187419 109.40468 
L 171.055479 104.089837 
L 171.923539 99.669022 
L 172.791599 102.667716 
L 173.65966 101.565903 
L 175.39578 93.484814 
L 176.263841 95.829942 
L 177.131901 100.600045 
L 177.999961 96.789635 
L 178.868021 96.845126 
L 179.736082 94.395181 
L 180.604142 96.697149 
L 181.472202 92.901229 
L 182.340263 91.322807 
L 183.208323 92.623772 
L 184.076383 87.458756 
L 184.944443 92.08119 
L 185.812504 83.864147 
L 186.680564 92.816759 
L 187.548624 87.740529 
L 188.416684 88.213131 
L 189.284745 87.808352 
L 190.152805 86.192936 
L 191.020865 85.214437 
L 191.888926 87.874017 
L 192.756986 87.810202 
L 193.625046 83.911622 
L 194.493106 82.324877 
L 195.361167 85.533205 
L 196.229227 80.401175 
L 197.097287 77.90622 
L 197.965348 78.477473 
L 198.833408 82.803644 
L 199.701468 83.669002 
L 200.569528 81.161715 
L 201.437589 81.862448 
L 202.305649 75.557084 
L 203.173709 78.10753 
L 204.04177 73.446253 
L 204.90983 74.105984 
L 205.77789 72.268602 
L 206.64595 73.917005 
L 207.514011 68.573183 
L 208.382071 77.102519 
L 209.250131 71.919314 
L 210.118192 69.417885 
L 210.986252 75.602094 
L 211.854312 70.305748 
L 212.722372 78.19385 
L 213.590433 70.254572 
L 214.458493 73.300434 
L 215.326553 70.523706 
L 216.194614 71.744516 
L 217.062674 67.007092 
L 217.930734 69.639851 
L 218.798794 62.987049 
L 219.666855 75.129492 
L 220.534915 67.23954 
L 221.402975 66.314683 
L 222.271035 68.751989 
L 223.139096 70.295574 
L 224.007156 66.16239 
L 224.875216 69.15276 
L 225.743277 115.037982 
L 226.611337 117.479604 
L 227.479397 117.707735 
L 228.347457 114.152278 
L 229.215518 118.199142 
L 230.083578 117.52708 
L 230.951638 108.568301 
L 231.819699 111.899635 
L 232.687759 113.28507 
L 233.555819 105.294309 
L 234.423879 107.076199 
L 235.29194 110.539171 
L 236.16 103.674576 
L 237.02806 107.230342 
L 237.896121 107.647452 
L 238.764181 104.687911 
L 239.632241 109.499324 
L 240.500301 105.134 
L 241.368362 104.141321 
L 242.236422 106.475967 
L 243.104482 105.068027 
L 243.972543 102.205287 
L 244.840603 106.761748 
L 245.708663 97.930292 
L 246.576723 102.449758 
L 247.444784 99.383241 
L 248.312844 98.616844 
L 249.180904 96.719654 
L 250.048965 101.228947 
L 250.917025 99.767674 
L 251.785085 96.160733 
L 252.653145 99.971142 
L 253.521206 101.851684 
L 254.389266 101.268099 
L 255.257326 101.329756 
L 256.125386 94.093061 
L 256.993447 97.837806 
L 257.861507 99.173607 
L 258.729567 97.728981 
L 259.597628 96.532833 
L 260.465688 101.191953 
L 261.333748 102.854537 
L 262.201808 97.860311 
L 263.069869 99.389407 
L 263.937929 93.688282 
L 264.805989 96.664163 
L 265.67405 103.6829 
L 266.54211 94.826781 
L 267.41017 93.252675 
L 268.27823 95.589479 
L 269.146291 95.172061 
L 270.014351 93.784776 
L 270.882411 90.821227 
L 271.750472 93.462309 
L 272.618532 93.558802 
L 273.486592 99.048443 
L 274.354652 95.48867 
L 275.222713 90.048355 
L 276.090773 95.410674 
L 276.958833 97.626014 
L 277.826894 90.74508 
L 278.694954 91.73591 
L 279.563014 94.610981 
L 280.431074 91.530283 
L 281.299135 91.417143 
L 282.167195 91.813906 
L 283.035255 89.875715 
L 283.903316 97.081581 
L 284.771376 86.768299 
L 285.639436 91.098684 
L 286.507496 92.720266 
L 287.375557 89.359953 
L 288.243617 91.852956 
L 289.111677 93.219688 
L 289.979737 97.087644 
L 290.847798 91.659763 
L 291.715858 83.206573 
L 292.583918 92.650388 
L 293.451979 91.881729 
L 294.320039 92.052314 
L 295.188099 93.431378 
L 296.056159 91.341202 
L 296.92422 93.250517 
L 297.79228 90.467726 
L 298.66034 83.938238 
L 299.528401 92.138634 
L 300.396461 94.526819 
L 301.264521 93.287511 
L 302.132581 93.552637 
L 303.000642 84.86515 
L 303.868702 96.36009 
L 304.736762 91.320649 
L 305.604823 88.969458 
L 306.472883 91.600162 
L 307.340943 84.530146 
L 308.209003 83.122309 
L 309.077064 83.046265 
L 309.945124 87.03548 
L 310.813184 83.987563 
L 311.681245 82.670157 
L 313.417365 88.428931 
L 314.285425 80.368291 
L 315.153486 85.200153 
L 316.021546 87.506129 
L 316.889606 83.459368 
L 317.757667 85.294694 
L 318.625727 83.999895 
L 319.493787 80.117552 
L 320.361847 86.468235 
L 321.229908 80.867714 
L 322.097968 81.30959 
L 322.966028 81.239712 
L 323.834088 80.049729 
L 324.702149 80.329242 
L 325.570209 78.261673 
L 326.438269 78.586401 
L 327.30633 80.133994 
L 328.17439 77.680041 
L 329.04245 72.287099 
L 329.91051 78.417871 
L 330.778571 80.232645 
L 331.646631 84.752112 
L 332.514691 81.186275 
L 333.382752 79.486594 
L 334.250812 75.158265 
L 335.118872 77.503291 
L 335.986932 79.122817 
L 336.854993 72.696091 
L 337.723053 75.248696 
L 338.591113 81.204773 
L 339.459174 77.877344 
L 340.327234 73.283889 
L 342.063354 78.4487 
L 342.931415 71.947985 
L 343.799475 73.941565 
L 344.667535 73.098918 
L 345.535596 74.98768 
L 346.403656 70.077719 
L 347.271716 75.11305 
L 348.139776 67.331922 
L 349.007837 70.014007 
L 349.875897 68.766478 
L 350.743957 70.885427 
L 351.612018 74.486203 
L 352.480078 71.499943 
L 353.348138 75.556981 
L 354.216198 74.539639 
L 355.084259 70.250359 
L 355.952319 71.721909 
L 357.688439 67.432629 
L 358.5565 70.312016 
L 359.42456 73.849079 
L 360.29262 70.252414 
L 361.160681 65.506872 
L 362.028741 71.843168 
L 362.896801 71.033404 
L 363.764861 63.507126 
L 364.632922 71.339635 
L 365.500982 70.462049 
L 366.369042 65.597302 
L 367.237103 65.601413 
L 368.105163 68.583562 
L 368.973223 65.369171 
L 369.841283 64.138084 
L 370.709344 68.856908 
L 371.577404 59.579568 
L 372.445464 63.979831 
L 373.313525 72.270657 
L 374.181585 64.035322 
L 375.049645 60.63596 
L 375.917705 59.961842 
L 376.785766 64.166857 
L 377.653826 62.547331 
L 378.521886 68.449971 
L 379.389947 62.820677 
L 380.258007 68.075918 
L 381.126067 68.112913 
L 381.994127 64.164802 
L 382.862188 58.157344 
L 383.730248 69.761213 
L 384.598308 63.710595 
L 385.466368 59.534353 
L 386.334429 60.843539 
L 387.202489 68.371872 
L 388.070549 64.845086 
L 388.93861 56.566591 
L 389.80667 63.114576 
L 390.67473 65.558253 
L 391.54279 59.285669 
L 392.410851 59.978284 
L 393.278911 58.98766 
L 394.146971 71.73013 
L 395.015032 57.351691 
L 395.883092 59.918682 
L 396.751152 63.112521 
L 397.619212 64.660114 
L 398.487273 64.037378 
L 398.487273 64.037378 
" style="fill:none;stroke:#1f77b4;stroke-linecap:square;stroke-width:1.5;"/>
   </g>
   <g id="line2d_20">
    <path clip-path="url(#p9ff615c40e)" d="M 73.832727 276.458457 
L 76.436908 206.323493 
L 77.304968 206.076865 
L 78.173029 177.406308 
L 79.041089 166.893771 
L 79.909149 160.728059 
L 80.77721 150.523808 
L 81.64527 144.974668 
L 82.51333 135.232844 
L 83.38139 130.701046 
L 84.249451 122.808936 
L 85.117511 118.338795 
L 85.985571 111.741485 
L 86.853632 109.984257 
L 87.721692 102.616232 
L 89.457812 96.018921 
L 90.325873 91.487123 
L 91.193933 92.288666 
L 92.061993 87.201954 
L 93.798114 86.338755 
L 94.666174 85.537212 
L 95.534234 136.126872 
L 96.402295 122.284851 
L 97.270355 115.964997 
L 98.138415 118.585424 
L 99.006475 112.419713 
L 99.874536 107.610458 
L 100.742596 107.795429 
L 101.610656 104.342631 
L 102.478717 104.959202 
L 103.346777 102.708718 
L 104.214837 98.855148 
L 105.082897 96.481349 
L 106.819018 98.916805 
L 107.687078 97.282892 
L 108.555139 93.213523 
L 110.291259 89.359953 
L 111.159319 92.319494 
L 112.89544 84.51987 
L 113.7635 85.598869 
L 114.631561 86.400412 
L 115.499621 85.537212 
L 116.367681 80.203872 
L 117.235741 79.063216 
L 118.103802 80.542986 
L 118.971862 80.573815 
L 120.707982 77.182674 
L 121.576043 76.288646 
L 122.444103 75.024675 
L 123.312163 74.993846 
L 124.180224 73.976504 
L 125.048284 72.095962 
L 125.916344 70.554534 
L 126.784404 70.739506 
L 127.652465 68.643164 
L 128.520525 69.413878 
L 129.388585 68.427364 
L 130.256646 66.824279 
L 131.124706 65.837765 
L 131.992766 66.084394 
L 132.860826 64.049709 
L 133.728887 64.542966 
L 134.596947 64.265509 
L 135.465007 64.203852 
L 137.201128 63.556452 
L 138.069188 64.45048 
L 138.937248 98.17692 
L 139.805309 96.604664 
L 140.673369 93.799265 
L 141.541429 91.425466 
L 142.40949 95.772293 
L 143.27755 91.517952 
L 144.14561 88.404268 
L 145.01367 89.020839 
L 145.881731 87.787697 
L 146.749791 90.870552 
L 147.617851 84.08827 
L 148.485912 86.338755 
L 149.353972 86.277098 
L 150.222032 85.999641 
L 151.090092 94.200036 
L 151.958153 84.982298 
L 152.826213 91.363809 
L 153.694273 81.406186 
L 154.562333 81.868614 
L 155.430394 86.21544 
L 156.298454 81.930271 
L 157.166514 82.115243 
L 158.034575 85.105612 
L 158.902635 81.406186 
L 159.770695 81.467843 
L 160.638755 83.625842 
L 161.506816 82.053585 
L 162.374876 82.331042 
L 163.242936 80.234701 
L 164.110997 81.868614 
L 164.979057 79.001558 
L 165.847117 79.279015 
L 166.715177 79.309844 
L 167.583238 81.9611 
L 168.451298 75.54876 
L 169.319358 79.710615 
L 170.187419 76.596931 
L 171.055479 76.658588 
L 171.923539 77.706759 
L 172.791599 76.84356 
L 173.65966 77.244331 
L 174.52772 73.729875 
L 175.39578 74.438932 
L 176.263841 76.134503 
L 177.131901 72.77419 
L 177.999961 74.06899 
L 178.868021 72.743362 
L 179.736082 73.267447 
L 180.604142 72.373419 
L 181.472202 72.589219 
L 182.340263 72.003476 
L 183.208323 70.831991 
L 184.076383 70.554534 
L 184.944443 70.092106 
L 185.812504 70.739506 
L 186.680564 70.153763 
L 187.548624 67.564164 
L 188.416684 68.149907 
L 189.284745 66.608479 
L 190.152805 69.691335 
L 191.020865 66.176879 
L 191.888926 67.841621 
L 193.625046 65.036223 
L 194.493106 66.361851 
L 195.361167 64.697109 
L 196.229227 64.88208 
L 197.097287 65.745279 
L 197.965348 62.662424 
L 198.833408 64.481309 
L 199.701468 63.587281 
L 200.569528 63.124852 
L 201.437589 64.080537 
L 202.305649 61.521767 
L 203.173709 60.504425 
L 204.04177 60.936025 
L 204.90983 60.658568 
L 205.77789 59.487083 
L 206.64595 60.226968 
L 207.514011 59.086311 
L 208.382071 59.517911 
L 209.250131 58.068969 
L 210.118192 58.192283 
L 210.986252 57.452398 
L 211.854312 58.46974 
L 212.722372 57.236598 
L 213.590433 58.068969 
L 214.458493 56.620027 
L 215.326553 57.082455 
L 216.194614 57.020798 
L 217.062674 57.174941 
L 217.930734 56.188427 
L 219.666855 56.897484 
L 220.534915 56.650856 
L 221.402975 55.91097 
L 222.271035 56.157599 
L 223.139096 56.188427 
L 224.007156 56.496713 
L 224.875216 56.034284 
L 225.743277 99.903319 
L 226.611337 87.016983 
L 227.479397 82.670157 
L 228.347457 90.315638 
L 229.215518 83.533356 
L 230.083578 84.489041 
L 230.951638 81.3137 
L 231.819699 90.099838 
L 232.687759 84.026613 
L 233.555819 84.73567 
L 234.423879 79.772272 
L 235.29194 82.855128 
L 236.16 79.18653 
L 237.02806 85.16727 
L 237.896121 82.454357 
L 238.764181 78.662444 
L 239.632241 84.026613 
L 240.500301 80.358015 
L 241.368362 81.5295 
L 242.236422 80.604643 
L 243.104482 80.481329 
L 243.972543 80.912929 
L 244.840603 82.639328 
L 245.708663 78.477473 
L 246.576723 82.670157 
L 247.444784 85.691355 
L 248.312844 79.433158 
L 249.180904 78.32333 
L 250.048965 83.502528 
L 250.917025 81.128729 
L 251.785085 80.820443 
L 252.653145 81.560329 
L 253.521206 77.737588 
L 254.389266 80.080558 
L 255.257326 79.741444 
L 256.125386 75.363789 
L 256.993447 75.055503 
L 257.861507 78.53913 
L 258.729567 75.857046 
L 259.597628 80.173044 
L 260.465688 83.379213 
L 261.333748 78.662444 
L 262.201808 74.716389 
L 263.069869 75.949531 
L 263.937929 75.178818 
L 264.805989 75.11716 
L 265.67405 77.398474 
L 266.54211 77.89173 
L 267.41017 77.953388 
L 268.27823 74.839703 
L 270.014351 76.165331 
L 270.882411 74.099818 
L 271.750472 77.059359 
L 272.618532 75.54876 
L 273.486592 75.517932 
L 274.354652 74.932189 
L 275.222713 74.500589 
L 276.090773 76.812731 
L 277.826894 73.298276 
L 278.694954 74.870532 
L 279.563014 73.483247 
L 281.299135 77.429302 
L 282.167195 75.641246 
L 283.035255 72.404248 
L 283.903316 72.188448 
L 284.771376 71.695191 
L 285.639436 74.192304 
L 286.507496 72.126791 
L 287.375557 73.729875 
L 288.243617 70.893648 
L 289.111677 73.051647 
L 289.979737 71.941819 
L 290.847798 73.144133 
L 291.715858 70.369563 
L 292.583918 71.479391 
L 293.451979 71.633534 
L 294.320039 69.537192 
L 295.188099 70.369563 
L 296.056159 71.510219 
L 296.92422 69.444706 
L 297.79228 71.29442 
L 298.66034 73.63739 
L 299.528401 74.284789 
L 300.396461 70.955305 
L 301.264521 71.386905 
L 302.132581 70.64702 
L 303.000642 73.822361 
L 303.868702 70.955305 
L 304.736762 71.047791 
L 305.604823 71.356077 
L 306.472883 70.184592 
L 307.340943 70.770334 
L 308.209003 71.787676 
L 309.077064 68.828135 
L 309.945124 70.554534 
L 311.681245 69.167249 
L 312.549305 69.598849 
L 313.417365 68.673992 
L 314.285425 68.057421 
L 315.153486 67.594993 
L 316.021546 67.471679 
L 316.889606 67.749136 
L 317.757667 66.515993 
L 318.625727 64.912908 
L 319.493787 66.855107 
L 320.361847 67.194222 
L 321.229908 67.040079 
L 322.097968 69.629678 
L 322.966028 69.167249 
L 323.834088 68.119078 
L 324.702149 66.515993 
L 325.570209 64.635451 
L 326.438269 64.203852 
L 327.30633 65.868594 
L 328.17439 64.173023 
L 329.04245 63.772252 
L 329.91051 64.357994 
L 330.778571 64.635451 
L 331.646631 63.494795 
L 332.514691 65.837765 
L 333.382752 64.542966 
L 334.250812 62.970709 
L 335.118872 64.820423 
L 335.986932 65.406165 
L 337.723053 62.569938 
L 338.591113 62.878224 
L 339.459174 62.970709 
L 340.327234 62.10751 
L 341.195294 61.552596 
L 342.063354 60.689396 
L 342.931415 61.521767 
L 344.667535 62.847395 
L 345.535596 61.367625 
L 346.403656 60.781882 
L 347.271716 61.830053 
L 348.139776 59.733711 
L 349.007837 60.596911 
L 349.875897 59.795368 
L 350.743957 59.918682 
L 351.612018 60.288625 
L 352.480078 60.196139 
L 355.084259 58.593055 
L 355.952319 59.826197 
L 356.820379 59.024654 
L 357.688439 60.041997 
L 358.5565 58.500569 
L 359.42456 59.024654 
L 360.29262 58.778026 
L 362.028741 58.038141 
L 362.896801 57.883998 
L 363.764861 57.329084 
L 364.632922 58.007312 
L 365.500982 56.55837 
L 366.369042 56.435056 
L 367.237103 55.725999 
L 368.105163 56.620027 
L 368.973223 54.677828 
L 369.841283 56.311741 
L 370.709344 56.589198 
L 371.577404 56.55837 
L 372.445464 55.69517 
L 373.313525 55.140256 
L 374.181585 54.400371 
L 375.049645 55.263571 
L 375.917705 54.277057 
L 376.785766 54.585342 
L 377.653826 55.47937 
L 378.521886 55.078599 
L 379.389947 55.016942 
L 380.258007 53.568 
L 381.126067 53.937943 
L 381.994127 54.492857 
L 383.730248 54.831971 
L 384.598308 54.554514 
L 385.466368 53.907114 
L 386.334429 53.568 
L 387.202489 54.277057 
L 388.070549 54.646999 
L 388.93861 54.030428 
L 389.80667 53.7838 
L 390.67473 53.7838 
L 391.54279 53.660486 
L 392.410851 53.752971 
L 393.278911 54.246228 
L 394.146971 53.814628 
L 395.015032 54.153743 
L 395.883092 54.030428 
L 397.619212 54.122914 
L 398.487273 53.752971 
L 398.487273 53.752971 
" style="fill:none;stroke:#ff7f0e;stroke-linecap:square;stroke-width:1.5;"/>
   </g>
   <g id="line2d_21">
    <path clip-path="url(#p9ff615c40e)" d="M 73.832727 277.188478 
L 74.700788 253.612956 
L 75.568848 237.874054 
L 76.436908 201.3342 
L 77.304968 216.56998 
L 78.173029 184.037839 
L 79.041089 187.185434 
L 79.909149 177.774709 
L 80.77721 166.254386 
L 81.64527 170.765221 
L 82.51333 166.092228 
L 83.38139 154.426086 
L 84.249451 154.345007 
L 85.117511 143.912007 
L 85.985571 140.861522 
L 86.853632 140.780443 
L 87.721692 138.88202 
L 88.589752 133.835694 
L 89.457812 125.106588 
L 90.325873 127.11846 
L 91.193933 123.127087 
L 92.061993 120.514675 
L 92.930053 117.204613 
L 93.798114 116.863957 
L 94.666174 117.009776 
L 95.534234 161.597733 
L 96.402295 142.435319 
L 97.270355 144.155245 
L 98.138415 155.723968 
L 99.006475 151.992172 
L 99.874536 138.768263 
L 100.742596 150.239877 
L 101.610656 139.563331 
L 102.478717 146.54045 
L 104.214837 128.919464 
L 105.082897 140.30969 
L 105.950958 133.446329 
L 106.819018 137.48672 
L 107.687078 138.18437 
L 109.423199 124.619805 
L 110.291259 128.075686 
L 111.159319 120.644463 
L 112.02738 123.694949 
L 112.89544 123.370324 
L 113.7635 115.435979 
L 114.631561 122.96462 
L 115.499621 119.638527 
L 116.367681 119.817025 
L 117.235741 112.872276 
L 118.103802 117.691396 
L 118.971862 111.460636 
L 119.839922 108.523908 
L 120.707982 114.202836 
L 121.576043 106.95011 
L 122.444103 108.39412 
L 123.312163 107.371845 
L 124.180224 112.46688 
L 125.048284 104.824482 
L 125.916344 107.680131 
L 126.784404 103.055847 
L 127.652465 103.136926 
L 128.520525 103.364133 
L 129.388585 107.177317 
L 130.256646 105.61955 
L 131.124706 102.828641 
L 131.992766 102.926059 
L 132.860826 102.358197 
L 133.728887 99.551257 
L 134.596947 100.73569 
L 135.465007 99.226632 
L 136.333068 99.113183 
L 137.201128 100.248907 
L 138.069188 100.76806 
L 138.937248 127.167169 
L 139.805309 126.615338 
L 140.673369 130.704437 
L 141.541429 123.759689 
L 142.40949 129.065591 
L 143.27755 121.066198 
L 144.14561 121.033828 
L 145.01367 116.425884 
L 145.881731 126.355761 
L 146.749791 133.99816 
L 148.485912 117.788814 
L 149.353972 118.340337 
L 150.222032 113.132161 
L 151.090092 139.822908 
L 151.958153 121.60169 
L 152.826213 122.883541 
L 153.694273 117.480528 
L 154.562333 120.368548 
L 155.430394 114.397673 
L 156.298454 122.26697 
L 157.166514 119.232824 
L 158.034575 119.054326 
L 158.902635 114.673588 
L 159.770695 117.366771 
L 160.638755 113.21324 
L 161.506816 115.046614 
L 162.374876 118.275597 
L 163.242936 116.68546 
L 164.110997 120.287468 
L 164.979057 111.752891 
L 165.847117 106.803983 
L 166.715177 115.825343 
L 167.583238 118.778411 
L 168.451298 111.038902 
L 169.319358 109.254237 
L 170.187419 110.681907 
L 171.055479 105.635889 
L 171.923539 110.162754 
L 172.791599 112.174626 
L 173.65966 104.662323 
L 174.52772 104.775772 
L 175.39578 109.627262 
L 176.263841 106.041593 
L 177.131901 115.874052 
L 177.999961 100.378695 
L 178.868021 107.128608 
L 179.736082 107.323136 
L 180.604142 100.978927 
L 181.472202 108.102174 
L 182.340263 104.14317 
L 183.208323 103.769837 
L 184.076383 102.796271 
L 184.944443 109.448765 
L 185.812504 102.14733 
L 186.680564 100.395035 
L 187.548624 94.229323 
L 188.416684 104.126831 
L 189.284745 92.655217 
L 190.152805 98.545321 
L 191.020865 98.739849 
L 191.888926 96.955184 
L 192.756986 97.571755 
L 193.625046 96.533141 
L 194.493106 94.196645 
L 195.361167 99.599966 
L 196.229227 98.69114 
L 197.097287 97.457998 
L 197.965348 93.839959 
L 198.833408 97.798962 
L 199.701468 92.996181 
L 200.569528 88.923421 
L 201.437589 95.640963 
L 202.305649 91.552172 
L 203.173709 90.919261 
L 204.04177 94.716106 
L 204.90983 90.789473 
L 205.77789 90.188933 
L 206.64595 91.763039 
L 207.514011 87.057677 
L 208.382071 89.799568 
L 209.250131 87.755327 
L 210.118192 88.193401 
L 210.986252 88.193401 
L 211.854312 89.020839 
L 212.722372 86.408427 
L 213.590433 86.100142 
L 214.458493 86.570894 
L 215.326553 85.56465 
L 217.062674 86.814131 
L 217.930734 85.986693 
L 218.798794 87.008967 
L 219.666855 87.430702 
L 220.534915 88.177061 
L 221.402975 87.365962 
L 222.271035 88.452977 
L 223.139096 86.376057 
L 224.007156 86.733052 
L 224.875216 86.814131 
L 225.743277 134.143979 
L 226.611337 121.60169 
L 227.479397 122.283309 
L 228.347457 121.56932 
L 229.215518 122.072442 
L 230.083578 120.774251 
L 230.951638 117.950972 
L 231.819699 128.530099 
L 232.687759 124.37626 
L 233.555819 121.309743 
L 234.423879 119.135405 
L 235.29194 122.477837 
L 236.16 114.787038 
L 237.02806 124.538726 
L 237.896121 123.516451 
L 238.764181 115.192741 
L 239.632241 113.472816 
L 241.368362 110.746955 
L 242.236422 117.334401 
L 243.104482 111.8016 
L 243.972543 113.21324 
L 244.840603 104.873191 
L 245.708663 118.940877 
L 246.576723 114.868117 
L 247.444784 113.229271 
L 248.312844 109.108109 
L 249.180904 118.389046 
L 250.048965 120.774251 
L 250.917025 119.346273 
L 251.785085 113.537556 
L 252.653145 120.238759 
L 253.521206 114.721989 
L 254.389266 106.755274 
L 255.257326 116.896327 
L 256.125386 107.777549 
L 257.861507 110.405992 
L 258.729567 109.172849 
L 259.597628 113.099482 
L 260.465688 119.800686 
L 261.333748 117.983342 
L 262.201808 106.787952 
L 263.069869 107.923676 
L 263.937929 107.939707 
L 264.805989 111.185029 
L 265.67405 105.684598 
L 266.54211 118.437755 
L 267.41017 109.497474 
L 268.27823 110.50341 
L 269.146291 110.584489 
L 270.014351 106.722904 
L 270.882411 101.287213 
L 271.750472 103.055847 
L 272.618532 109.984257 
L 273.486592 109.254237 
L 274.354652 103.380472 
L 275.222713 108.459168 
L 276.090773 103.964673 
L 276.958833 103.672418 
L 277.826894 104.694693 
L 278.694954 100.135458 
L 279.563014 110.000596 
L 280.431074 106.268491 
L 281.299135 113.797133 
L 282.167195 107.144639 
L 283.035255 108.150883 
L 283.903316 106.803983 
L 284.771376 103.494035 
L 285.639436 107.274589 
L 286.507496 103.818546 
L 287.375557 107.274589 
L 288.243617 105.635808 
L 289.111677 110.260091 
L 289.979737 108.410378 
L 290.847798 104.710951 
L 291.715858 102.942366 
L 293.451979 105.213944 
L 294.320039 93.758701 
L 295.188099 107.079882 
L 296.056159 109.870678 
L 296.92422 100.184021 
L 297.79228 106.674244 
L 298.66034 108.264348 
L 299.528401 103.640065 
L 300.396461 98.220729 
L 301.264521 106.43086 
L 302.132581 112.71015 
L 303.000642 107.631551 
L 303.868702 107.582875 
L 304.736762 97.701511 
L 305.604823 102.601629 
L 306.472883 100.00554 
L 307.340943 102.34202 
L 308.209003 101.417164 
L 309.077064 105.733161 
L 309.945124 108.134544 
L 310.813184 104.402666 
L 311.681245 103.607614 
L 312.549305 103.429132 
L 313.417365 100.378728 
L 314.285425 101.7579 
L 315.153486 100.021766 
L 316.021546 98.707496 
L 316.889606 90.854327 
L 317.757667 92.152371 
L 318.625727 99.762157 
L 319.493787 97.182293 
L 320.361847 100.265149 
L 321.229908 96.906459 
L 322.097968 103.039719 
L 322.966028 99.551225 
L 323.834088 99.989315 
L 324.702149 101.822802 
L 325.570209 100.119119 
L 326.438269 96.987587 
L 327.30633 99.356518 
L 328.17439 90.578492 
L 329.04245 93.791152 
L 329.91051 98.529015 
L 331.646631 99.032007 
L 332.514691 101.546968 
L 333.382752 93.563995 
L 334.250812 93.401739 
L 335.118872 97.214745 
L 335.986932 92.428206 
L 336.854993 94.60243 
L 337.723053 92.655363 
L 338.591113 89.880793 
L 339.459174 94.391498 
L 340.327234 90.692071 
L 341.195294 88.452945 
L 342.063354 93.482867 
L 342.931415 93.677573 
L 343.799475 96.403467 
L 344.667535 90.870552 
L 345.535596 93.109679 
L 346.403656 93.920957 
L 347.271716 98.220729 
L 348.139776 90.140402 
L 349.007837 94.099438 
L 349.875897 90.383786 
L 350.743957 88.274463 
L 351.612018 94.375272 
L 352.480078 88.76123 
L 353.348138 89.523831 
L 354.216198 87.868825 
L 355.084259 89.361576 
L 355.952319 91.990116 
L 356.820379 87.073772 
L 357.688439 89.296673 
L 358.5565 89.004613 
L 359.42456 88.858583 
L 360.29262 89.361576 
L 361.160681 87.625441 
L 362.028741 93.077228 
L 362.896801 91.68183 
L 363.764861 87.187351 
L 364.632922 88.696328 
L 365.500982 89.150643 
L 366.369042 89.101967 
L 368.105163 86.587006 
L 368.973223 85.094255 
L 369.841283 87.203577 
L 370.709344 85.159157 
L 371.577404 84.364105 
L 372.445464 84.850871 
L 373.313525 87.706569 
L 374.181585 83.130962 
L 375.049645 85.142931 
L 375.917705 83.569052 
L 376.785766 83.666406 
L 377.653826 83.50415 
L 378.521886 83.763759 
L 379.389947 83.552827 
L 380.258007 84.623713 
L 381.126067 85.370089 
L 381.994127 84.461458 
L 382.862188 85.678375 
L 383.730248 85.337638 
L 384.598308 83.812436 
L 385.466368 84.072045 
L 386.334429 82.903805 
L 387.202489 85.386315 
L 388.93861 82.676647 
L 389.80667 82.62797 
L 390.67473 83.633955 
L 391.54279 83.715082 
L 392.410851 82.936256 
L 393.278911 82.725323 
L 394.146971 84.688616 
L 395.015032 83.244541 
L 395.883092 82.644196 
L 396.751152 82.822677 
L 397.619212 83.195865 
L 398.487273 83.926015 
L 398.487273 83.926015 
" style="fill:none;stroke:#2ca02c;stroke-linecap:square;stroke-width:1.5;"/>
   </g>
   <g id="line2d_22">
    <path clip-path="url(#p9ff615c40e)" d="M 73.832727 290.392965 
L 74.700788 285.306253 
L 75.568848 283.518197 
L 76.436908 283.518197 
L 77.304968 284.905482 
L 78.173029 283.117425 
L 79.041089 282.408369 
L 79.909149 284.658853 
L 80.77721 277.136686 
L 81.64527 278.277342 
L 82.51333 276.242658 
L 83.38139 272.512402 
L 84.249451 272.173288 
L 85.117511 272.389088 
L 85.985571 269.861147 
L 86.853632 268.72049 
L 87.721692 264.435321 
L 88.589752 264.897749 
L 89.457812 263.263836 
L 90.325873 258.978666 
L 91.193933 260.82838 
L 92.061993 261.198322 
L 92.930053 255.772497 
L 93.798114 257.992153 
L 94.666174 257.899667 
L 95.534234 274.362116 
L 96.402295 274.91703 
L 97.270355 278.092371 
L 98.138415 267.795633 
L 99.006475 268.28889 
L 99.874536 270.724346 
L 100.742596 267.333205 
L 101.610656 266.654977 
L 102.478717 263.325493 
L 103.346777 268.967118 
L 104.214837 261.383294 
L 105.082897 263.233007 
L 105.950958 256.019125 
L 106.819018 258.485409 
L 107.687078 259.348609 
L 108.555139 256.327411 
L 109.423199 257.005639 
L 110.291259 252.50467 
L 111.159319 252.165556 
L 112.02738 248.311986 
L 112.89544 253.583669 
L 113.7635 249.329328 
L 114.631561 242.485389 
L 115.499621 243.564389 
L 116.367681 245.969016 
L 117.235741 241.837989 
L 118.103802 244.735874 
L 118.971862 239.001762 
L 119.839922 246.153987 
L 120.707982 241.560532 
L 121.576043 234.408308 
L 122.444103 230.246453 
L 123.312163 240.419876 
L 124.180224 231.047995 
L 125.048284 232.558594 
L 125.916344 235.42565 
L 126.784404 231.417938 
L 127.652465 226.053769 
L 128.520525 232.21948 
L 129.388585 224.142398 
L 130.256646 227.626025 
L 131.124706 228.612539 
L 131.992766 227.564368 
L 132.860826 231.57208 
L 133.728887 228.396739 
L 134.596947 229.907338 
L 135.465007 226.762826 
L 136.333068 228.396739 
L 137.201128 230.369767 
L 138.069188 223.89577 
L 138.937248 258.362095 
L 139.805309 254.231069 
L 140.673369 258.362095 
L 141.541429 252.627984 
L 142.40949 242.022961 
L 143.27755 250.531642 
L 144.14561 245.290788 
L 145.01367 245.722387 
L 145.881731 247.232987 
L 146.749791 247.695415 
L 147.617851 243.410246 
L 148.485912 240.234905 
L 149.353972 239.679991 
L 150.222032 242.916989 
L 151.090092 255.402554 
L 151.958153 244.735874 
L 152.826213 242.269589 
L 153.694273 240.913133 
L 154.562333 241.128933 
L 155.430394 245.167473 
L 156.298454 240.604847 
L 157.166514 243.53356 
L 158.034575 242.516218 
L 158.902635 238.015249 
L 159.770695 241.868818 
L 160.638755 239.864962 
L 161.506816 239.063419 
L 162.374876 239.433362 
L 163.242936 238.138563 
L 164.110997 236.473821 
L 164.979057 238.724305 
L 165.847117 232.126994 
L 166.715177 236.566306 
L 167.583238 235.456478 
L 168.451298 233.791736 
L 169.319358 240.604847 
L 170.187419 232.281137 
L 171.055479 236.381335 
L 171.923539 229.629881 
L 172.791599 234.377479 
L 173.65966 234.685765 
L 174.52772 233.606765 
L 175.39578 228.951653 
L 176.263841 229.814853 
L 177.131901 233.021023 
L 177.999961 229.722367 
L 178.868021 231.171309 
L 179.736082 232.065337 
L 180.604142 225.067255 
L 181.472202 233.021023 
L 182.340263 222.076885 
L 183.208323 233.575937 
L 184.076383 227.995968 
L 184.944443 227.10194 
L 185.812504 223.03257 
L 186.680564 228.674196 
L 187.548624 224.75897 
L 188.416684 232.065337 
L 189.284745 230.277281 
L 190.152805 219.888058 
L 191.020865 225.313884 
L 191.888926 222.138542 
L 192.756986 219.610601 
L 193.625046 220.350486 
L 194.493106 222.477656 
L 195.361167 222.261857 
L 196.229227 212.180919 
L 197.097287 223.864941 
L 197.965348 220.997886 
L 198.833408 216.897688 
L 199.701468 215.325432 
L 200.569528 223.217542 
L 201.437589 207.587464 
L 202.305649 216.990174 
L 203.173709 214.801346 
L 204.04177 220.597115 
L 205.77789 216.065317 
L 206.64595 215.294603 
L 207.514011 220.627943 
L 208.382071 212.119262 
L 209.250131 212.674176 
L 210.118192 206.785922 
L 210.986252 213.383233 
L 211.854312 205.059523 
L 212.722372 203.394781 
L 213.590433 210.053749 
L 214.458493 208.635635 
L 215.326553 211.93429 
L 216.194614 204.442951 
L 217.062674 208.943921 
L 217.930734 205.552779 
L 218.798794 204.967037 
L 219.666855 201.26761 
L 220.534915 205.460294 
L 221.402975 204.011352 
L 222.271035 211.780148 
L 223.139096 205.213665 
L 224.007156 199.726182 
L 224.875216 203.672238 
L 225.743277 254.41604 
L 226.611337 247.541272 
L 227.479397 254.076926 
L 229.215518 249.360157 
L 230.083578 247.479615 
L 230.951638 247.787901 
L 231.819699 250.161699 
L 232.687759 241.837989 
L 233.555819 242.177104 
L 234.423879 240.419876 
L 235.29194 244.859188 
L 236.16 240.173247 
L 237.02806 243.841846 
L 237.896121 237.614477 
L 238.764181 239.433362 
L 239.632241 242.454561 
L 240.500301 238.693477 
L 241.368362 240.851476 
L 242.236422 243.995988 
L 243.104482 236.473821 
L 243.972543 234.531622 
L 244.840603 240.173247 
L 245.708663 234.747422 
L 246.576723 240.666504 
L 247.444784 249.0827 
L 248.312844 239.772476 
L 249.180904 233.976708 
L 250.048965 246.246473 
L 250.917025 236.412164 
L 251.785085 231.602909 
L 252.653145 245.753216 
L 253.521206 237.922763 
L 254.389266 243.74936 
L 255.257326 233.637594 
L 256.125386 233.29848 
L 256.993447 229.321596 
L 257.861507 238.785962 
L 258.729567 236.442992 
L 259.597628 233.452622 
L 260.465688 253.676155 
L 261.333748 234.932393 
L 262.201808 232.836051 
L 263.069869 232.65108 
L 263.937929 229.414082 
L 264.805989 237.737792 
L 265.67405 235.333164 
L 266.54211 236.288849 
L 267.41017 245.506588 
L 269.146291 226.855311 
L 270.014351 239.155905 
L 270.882411 233.976708 
L 271.750472 232.43528 
L 272.618532 239.803305 
L 273.486592 238.63182 
L 274.354652 230.369767 
L 276.090773 238.878448 
L 276.958833 236.689621 
L 277.826894 222.878428 
L 278.694954 225.776312 
L 279.563014 234.932393 
L 280.431074 227.163597 
L 281.299135 228.828339 
L 282.167195 232.681908 
L 283.035255 233.113508 
L 283.903316 227.810997 
L 284.771376 235.179021 
L 285.639436 234.99405 
L 286.507496 235.456478 
L 287.375557 231.633738 
L 288.243617 229.568224 
L 289.111677 225.683826 
L 289.979737 221.182857 
L 290.847798 233.606765 
L 291.715858 231.849537 
L 292.583918 225.159741 
L 293.451979 222.970913 
L 294.320039 223.155885 
L 295.188099 232.065337 
L 296.056159 221.275343 
L 297.79228 236.936249 
L 298.66034 233.144337 
L 299.528401 228.150111 
L 300.396461 220.6896 
L 301.264521 230.493081 
L 302.132581 218.901544 
L 303.000642 223.24837 
L 303.868702 223.217542 
L 304.736762 222.724285 
L 305.604823 226.824483 
L 306.472883 225.591341 
L 307.340943 219.857229 
L 308.209003 225.005598 
L 309.077064 221.306171 
L 309.945124 219.857229 
L 310.813184 229.691539 
L 311.681245 217.175145 
L 312.549305 217.421773 
L 313.417365 228.643368 
L 314.285425 218.408287 
L 315.153486 223.094228 
L 316.021546 220.504629 
L 316.889606 212.396719 
L 317.757667 218.34663 
L 318.625727 218.469944 
L 319.493787 230.770538 
L 320.361847 217.514259 
L 321.229908 228.119282 
L 322.097968 216.743545 
L 322.966028 212.489204 
L 323.834088 215.911174 
L 324.702149 210.45452 
L 325.570209 211.995948 
L 326.438269 216.774374 
L 327.30633 211.009434 
L 328.17439 212.766661 
L 329.04245 217.791716 
L 329.91051 215.232946 
L 330.778571 222.354342 
L 331.646631 211.441034 
L 332.514691 212.550862 
L 333.382752 215.849517 
L 334.250812 213.537375 
L 335.118872 214.92466 
L 335.986932 210.701148 
L 336.854993 223.89577 
L 337.723053 212.889976 
L 338.591113 206.909236 
L 339.459174 214.493061 
L 340.327234 205.799408 
L 341.195294 214.215604 
L 342.063354 219.425629 
L 342.931415 205.460294 
L 343.799475 212.458376 
L 344.667535 204.812894 
L 345.535596 210.23872 
L 346.403656 216.681888 
L 347.271716 210.824462 
L 348.139776 208.142378 
L 349.007837 207.279179 
L 349.875897 208.080721 
L 350.743957 198.338897 
L 351.612018 203.61058 
L 352.480078 210.053749 
L 353.348138 197.475698 
L 354.216198 204.288809 
L 355.084259 200.466068 
L 355.952319 204.782066 
L 356.820379 199.633697 
L 357.688439 213.475718 
L 358.5565 204.073009 
L 359.42456 196.58167 
L 360.29262 202.284953 
L 361.160681 197.907298 
L 362.028741 208.019064 
L 362.896801 206.785922 
L 363.764861 202.408267 
L 364.632922 194.855271 
L 365.500982 199.263754 
L 366.369042 191.309987 
L 367.237103 205.552779 
L 368.105163 200.712696 
L 368.973223 200.311925 
L 369.841283 204.04218 
L 370.709344 195.625984 
L 371.577404 199.972811 
L 372.445464 195.471842 
L 373.313525 205.614437 
L 374.181585 193.899585 
L 375.049645 195.471842 
L 375.917705 195.101899 
L 376.785766 196.982441 
L 377.653826 207.063379 
L 378.521886 201.514239 
L 379.389947 191.340815 
L 380.258007 201.205953 
L 381.126067 198.678012 
L 381.994127 199.972811 
L 382.862188 196.766641 
L 383.730248 197.105755 
L 384.598308 197.105755 
L 385.466368 201.298439 
L 386.334429 203.888037 
L 387.202489 191.679929 
L 388.070549 202.901524 
L 388.93861 192.080701 
L 389.80667 202.007496 
L 390.67473 202.747381 
L 391.54279 193.283014 
L 392.410851 195.317699 
L 393.278911 196.119241 
L 394.146971 192.635615 
L 395.015032 197.568184 
L 395.883092 195.656813 
L 396.751152 197.506526 
L 397.619212 202.223295 
L 398.487273 196.828298 
L 398.487273 196.828298 
" style="fill:none;stroke:#d62728;stroke-linecap:square;stroke-width:1.5;"/>
   </g>
   <g id="patch_3">
    <path d="M 57.6 307.584 
L 57.6 41.472 
" style="fill:none;stroke:#000000;stroke-linecap:square;stroke-linejoin:miter;stroke-width:0.8;"/>
   </g>
   <g id="patch_4">
    <path d="M 414.72 307.584 
L 414.72 41.472 
" style="fill:none;stroke:#000000;stroke-linecap:square;stroke-linejoin:miter;stroke-width:0.8;"/>
   </g>
   <g id="patch_5">
    <path d="M 57.6 307.584 
L 414.72 307.584 
" style="fill:none;stroke:#000000;stroke-linecap:square;stroke-linejoin:miter;stroke-width:0.8;"/>
   </g>
   <g id="patch_6">
    <path d="M 57.6 41.472 
L 414.72 41.472 
" style="fill:none;stroke:#000000;stroke-linecap:square;stroke-linejoin:miter;stroke-width:0.8;"/>
   </g>
   <g id="text_21">
    <!-- Training and Validation Accuracy -->
    <g transform="translate(138.4575 35.472)scale(0.12 -0.12)">
     <defs>
      <path d="M -19 4666 
L 3928 4666 
L 3928 4134 
L 2272 4134 
L 2272 0 
L 1638 0 
L 1638 4134 
L -19 4134 
L -19 4666 
z
" id="DejaVuSans-54" transform="scale(0.015625)"/>
      <path d="M 603 3500 
L 1178 3500 
L 1178 0 
L 603 0 
L 603 3500 
z
M 603 4863 
L 1178 4863 
L 1178 4134 
L 603 4134 
L 603 4863 
z
" id="DejaVuSans-69" transform="scale(0.015625)"/>
      <path d="M 3513 2113 
L 3513 0 
L 2938 0 
L 2938 2094 
Q 2938 2591 2744 2837 
Q 2550 3084 2163 3084 
Q 1697 3084 1428 2787 
Q 1159 2491 1159 1978 
L 1159 0 
L 581 0 
L 581 3500 
L 1159 3500 
L 1159 2956 
Q 1366 3272 1645 3428 
Q 1925 3584 2291 3584 
Q 2894 3584 3203 3211 
Q 3513 2838 3513 2113 
z
" id="DejaVuSans-6e" transform="scale(0.015625)"/>
      <path d="M 2906 1791 
Q 2906 2416 2648 2759 
Q 2391 3103 1925 3103 
Q 1463 3103 1205 2759 
Q 947 2416 947 1791 
Q 947 1169 1205 825 
Q 1463 481 1925 481 
Q 2391 481 2648 825 
Q 2906 1169 2906 1791 
z
M 3481 434 
Q 3481 -459 3084 -895 
Q 2688 -1331 1869 -1331 
Q 1566 -1331 1297 -1286 
Q 1028 -1241 775 -1147 
L 775 -588 
Q 1028 -725 1275 -790 
Q 1522 -856 1778 -856 
Q 2344 -856 2625 -561 
Q 2906 -266 2906 331 
L 2906 616 
Q 2728 306 2450 153 
Q 2172 0 1784 0 
Q 1141 0 747 490 
Q 353 981 353 1791 
Q 353 2603 747 3093 
Q 1141 3584 1784 3584 
Q 2172 3584 2450 3431 
Q 2728 3278 2906 2969 
L 2906 3500 
L 3481 3500 
L 3481 434 
z
" id="DejaVuSans-67" transform="scale(0.015625)"/>
      <path id="DejaVuSans-20" transform="scale(0.015625)"/>
      <path d="M 2906 2969 
L 2906 4863 
L 3481 4863 
L 3481 0 
L 2906 0 
L 2906 525 
Q 2725 213 2448 61 
Q 2172 -91 1784 -91 
Q 1150 -91 751 415 
Q 353 922 353 1747 
Q 353 2572 751 3078 
Q 1150 3584 1784 3584 
Q 2172 3584 2448 3432 
Q 2725 3281 2906 2969 
z
M 947 1747 
Q 947 1113 1208 752 
Q 1469 391 1925 391 
Q 2381 391 2643 752 
Q 2906 1113 2906 1747 
Q 2906 2381 2643 2742 
Q 2381 3103 1925 3103 
Q 1469 3103 1208 2742 
Q 947 2381 947 1747 
z
" id="DejaVuSans-64" transform="scale(0.015625)"/>
      <path d="M 1831 0 
L 50 4666 
L 709 4666 
L 2188 738 
L 3669 4666 
L 4325 4666 
L 2547 0 
L 1831 0 
z
" id="DejaVuSans-56" transform="scale(0.015625)"/>
      <path d="M 603 4863 
L 1178 4863 
L 1178 0 
L 603 0 
L 603 4863 
z
" id="DejaVuSans-6c" transform="scale(0.015625)"/>
      <path d="M 1172 4494 
L 1172 3500 
L 2356 3500 
L 2356 3053 
L 1172 3053 
L 1172 1153 
Q 1172 725 1289 603 
Q 1406 481 1766 481 
L 2356 481 
L 2356 0 
L 1766 0 
Q 1100 0 847 248 
Q 594 497 594 1153 
L 594 3053 
L 172 3053 
L 172 3500 
L 594 3500 
L 594 4494 
L 1172 4494 
z
" id="DejaVuSans-74" transform="scale(0.015625)"/>
     </defs>
     <use xlink:href="#DejaVuSans-54"/>
     <use x="46.333984" xlink:href="#DejaVuSans-72"/>
     <use x="87.447266" xlink:href="#DejaVuSans-61"/>
     <use x="148.726562" xlink:href="#DejaVuSans-69"/>
     <use x="176.509766" xlink:href="#DejaVuSans-6e"/>
     <use x="239.888672" xlink:href="#DejaVuSans-69"/>
     <use x="267.671875" xlink:href="#DejaVuSans-6e"/>
     <use x="331.050781" xlink:href="#DejaVuSans-67"/>
     <use x="394.527344" xlink:href="#DejaVuSans-20"/>
     <use x="426.314453" xlink:href="#DejaVuSans-61"/>
     <use x="487.59375" xlink:href="#DejaVuSans-6e"/>
     <use x="550.972656" xlink:href="#DejaVuSans-64"/>
     <use x="614.449219" xlink:href="#DejaVuSans-20"/>
     <use x="646.236328" xlink:href="#DejaVuSans-56"/>
     <use x="706.894531" xlink:href="#DejaVuSans-61"/>
     <use x="768.173828" xlink:href="#DejaVuSans-6c"/>
     <use x="795.957031" xlink:href="#DejaVuSans-69"/>
     <use x="823.740234" xlink:href="#DejaVuSans-64"/>
     <use x="887.216797" xlink:href="#DejaVuSans-61"/>
     <use x="948.496094" xlink:href="#DejaVuSans-74"/>
     <use x="987.705078" xlink:href="#DejaVuSans-69"/>
     <use x="1015.488281" xlink:href="#DejaVuSans-6f"/>
     <use x="1076.669922" xlink:href="#DejaVuSans-6e"/>
     <use x="1140.048828" xlink:href="#DejaVuSans-20"/>
     <use x="1171.835938" xlink:href="#DejaVuSans-41"/>
     <use x="1238.494141" xlink:href="#DejaVuSans-63"/>
     <use x="1293.474609" xlink:href="#DejaVuSans-63"/>
     <use x="1348.455078" xlink:href="#DejaVuSans-75"/>
     <use x="1411.833984" xlink:href="#DejaVuSans-72"/>
     <use x="1452.947266" xlink:href="#DejaVuSans-61"/>
     <use x="1514.226562" xlink:href="#DejaVuSans-63"/>
     <use x="1569.207031" xlink:href="#DejaVuSans-79"/>
    </g>
   </g>
   <g id="legend_1">
    <g id="patch_7">
     <path d="M 141.298281 205.38425 
L 331.021719 205.38425 
Q 333.021719 205.38425 333.021719 203.38425 
L 333.021719 145.67175 
Q 333.021719 143.67175 331.021719 143.67175 
L 141.298281 143.67175 
Q 139.298281 143.67175 139.298281 145.67175 
L 139.298281 203.38425 
Q 139.298281 205.38425 141.298281 205.38425 
z
" style="fill:#ffffff;opacity:0.8;stroke:#cccccc;stroke-linejoin:miter;"/>
    </g>
    <g id="line2d_23">
     <path d="M 143.298281 151.770188 
L 163.298281 151.770188 
" style="fill:none;stroke:#1f77b4;stroke-linecap:square;stroke-width:1.5;"/>
    </g>
    <g id="line2d_24"/>
    <g id="text_22">
     <!-- Train Accuracy -->
     <g transform="translate(171.298281 155.270188)scale(0.1 -0.1)">
      <use xlink:href="#DejaVuSans-54"/>
      <use x="46.333984" xlink:href="#DejaVuSans-72"/>
      <use x="87.447266" xlink:href="#DejaVuSans-61"/>
      <use x="148.726562" xlink:href="#DejaVuSans-69"/>
      <use x="176.509766" xlink:href="#DejaVuSans-6e"/>
      <use x="239.888672" xlink:href="#DejaVuSans-20"/>
      <use x="271.675781" xlink:href="#DejaVuSans-41"/>
      <use x="338.333984" xlink:href="#DejaVuSans-63"/>
      <use x="393.314453" xlink:href="#DejaVuSans-63"/>
      <use x="448.294922" xlink:href="#DejaVuSans-75"/>
      <use x="511.673828" xlink:href="#DejaVuSans-72"/>
      <use x="552.787109" xlink:href="#DejaVuSans-61"/>
      <use x="614.066406" xlink:href="#DejaVuSans-63"/>
      <use x="669.046875" xlink:href="#DejaVuSans-79"/>
     </g>
    </g>
    <g id="line2d_25">
     <path d="M 143.298281 166.448313 
L 163.298281 166.448313 
" style="fill:none;stroke:#ff7f0e;stroke-linecap:square;stroke-width:1.5;"/>
    </g>
    <g id="line2d_26"/>
    <g id="text_23">
     <!-- Validation Accuracy -->
     <g transform="translate(171.298281 169.948313)scale(0.1 -0.1)">
      <use xlink:href="#DejaVuSans-56"/>
      <use x="60.658203" xlink:href="#DejaVuSans-61"/>
      <use x="121.9375" xlink:href="#DejaVuSans-6c"/>
      <use x="149.720703" xlink:href="#DejaVuSans-69"/>
      <use x="177.503906" xlink:href="#DejaVuSans-64"/>
      <use x="240.980469" xlink:href="#DejaVuSans-61"/>
      <use x="302.259766" xlink:href="#DejaVuSans-74"/>
      <use x="341.46875" xlink:href="#DejaVuSans-69"/>
      <use x="369.251953" xlink:href="#DejaVuSans-6f"/>
      <use x="430.433594" xlink:href="#DejaVuSans-6e"/>
      <use x="493.8125" xlink:href="#DejaVuSans-20"/>
      <use x="525.599609" xlink:href="#DejaVuSans-41"/>
      <use x="592.257812" xlink:href="#DejaVuSans-63"/>
      <use x="647.238281" xlink:href="#DejaVuSans-63"/>
      <use x="702.21875" xlink:href="#DejaVuSans-75"/>
      <use x="765.597656" xlink:href="#DejaVuSans-72"/>
      <use x="806.710938" xlink:href="#DejaVuSans-61"/>
      <use x="867.990234" xlink:href="#DejaVuSans-63"/>
      <use x="922.970703" xlink:href="#DejaVuSans-79"/>
     </g>
    </g>
    <g id="line2d_27">
     <path d="M 143.298281 181.126438 
L 163.298281 181.126438 
" style="fill:none;stroke:#2ca02c;stroke-linecap:square;stroke-width:1.5;"/>
    </g>
    <g id="line2d_28"/>
    <g id="text_24">
     <!-- Robust Validation Accuracy -->
     <g transform="translate(171.298281 184.626438)scale(0.1 -0.1)">
      <defs>
       <path d="M 2841 2188 
Q 3044 2119 3236 1894 
Q 3428 1669 3622 1275 
L 4263 0 
L 3584 0 
L 2988 1197 
Q 2756 1666 2539 1819 
Q 2322 1972 1947 1972 
L 1259 1972 
L 1259 0 
L 628 0 
L 628 4666 
L 2053 4666 
Q 2853 4666 3247 4331 
Q 3641 3997 3641 3322 
Q 3641 2881 3436 2590 
Q 3231 2300 2841 2188 
z
M 1259 4147 
L 1259 2491 
L 2053 2491 
Q 2509 2491 2742 2702 
Q 2975 2913 2975 3322 
Q 2975 3731 2742 3939 
Q 2509 4147 2053 4147 
L 1259 4147 
z
" id="DejaVuSans-52" transform="scale(0.015625)"/>
       <path d="M 3116 1747 
Q 3116 2381 2855 2742 
Q 2594 3103 2138 3103 
Q 1681 3103 1420 2742 
Q 1159 2381 1159 1747 
Q 1159 1113 1420 752 
Q 1681 391 2138 391 
Q 2594 391 2855 752 
Q 3116 1113 3116 1747 
z
M 1159 2969 
Q 1341 3281 1617 3432 
Q 1894 3584 2278 3584 
Q 2916 3584 3314 3078 
Q 3713 2572 3713 1747 
Q 3713 922 3314 415 
Q 2916 -91 2278 -91 
Q 1894 -91 1617 61 
Q 1341 213 1159 525 
L 1159 0 
L 581 0 
L 581 4863 
L 1159 4863 
L 1159 2969 
z
" id="DejaVuSans-62" transform="scale(0.015625)"/>
      </defs>
      <use xlink:href="#DejaVuSans-52"/>
      <use x="64.982422" xlink:href="#DejaVuSans-6f"/>
      <use x="126.164062" xlink:href="#DejaVuSans-62"/>
      <use x="189.640625" xlink:href="#DejaVuSans-75"/>
      <use x="253.019531" xlink:href="#DejaVuSans-73"/>
      <use x="305.119141" xlink:href="#DejaVuSans-74"/>
      <use x="344.328125" xlink:href="#DejaVuSans-20"/>
      <use x="376.115234" xlink:href="#DejaVuSans-56"/>
      <use x="436.773438" xlink:href="#DejaVuSans-61"/>
      <use x="498.052734" xlink:href="#DejaVuSans-6c"/>
      <use x="525.835938" xlink:href="#DejaVuSans-69"/>
      <use x="553.619141" xlink:href="#DejaVuSans-64"/>
      <use x="617.095703" xlink:href="#DejaVuSans-61"/>
      <use x="678.375" xlink:href="#DejaVuSans-74"/>
      <use x="717.583984" xlink:href="#DejaVuSans-69"/>
      <use x="745.367188" xlink:href="#DejaVuSans-6f"/>
      <use x="806.548828" xlink:href="#DejaVuSans-6e"/>
      <use x="869.927734" xlink:href="#DejaVuSans-20"/>
      <use x="901.714844" xlink:href="#DejaVuSans-41"/>
      <use x="968.373047" xlink:href="#DejaVuSans-63"/>
      <use x="1023.353516" xlink:href="#DejaVuSans-63"/>
      <use x="1078.333984" xlink:href="#DejaVuSans-75"/>
      <use x="1141.712891" xlink:href="#DejaVuSans-72"/>
      <use x="1182.826172" xlink:href="#DejaVuSans-61"/>
      <use x="1244.105469" xlink:href="#DejaVuSans-63"/>
      <use x="1299.085938" xlink:href="#DejaVuSans-79"/>
     </g>
    </g>
    <g id="line2d_29">
     <path d="M 143.298281 195.804563 
L 163.298281 195.804563 
" style="fill:none;stroke:#d62728;stroke-linecap:square;stroke-width:1.5;"/>
    </g>
    <g id="line2d_30"/>
    <g id="text_25">
     <!-- Adversarial Validation Accuracy -->
     <g transform="translate(171.298281 199.304563)scale(0.1 -0.1)">
      <defs>
       <path d="M 191 3500 
L 800 3500 
L 1894 563 
L 2988 3500 
L 3597 3500 
L 2284 0 
L 1503 0 
L 191 3500 
z
" id="DejaVuSans-76" transform="scale(0.015625)"/>
       <path d="M 3597 1894 
L 3597 1613 
L 953 1613 
Q 991 1019 1311 708 
Q 1631 397 2203 397 
Q 2534 397 2845 478 
Q 3156 559 3463 722 
L 3463 178 
Q 3153 47 2828 -22 
Q 2503 -91 2169 -91 
Q 1331 -91 842 396 
Q 353 884 353 1716 
Q 353 2575 817 3079 
Q 1281 3584 2069 3584 
Q 2775 3584 3186 3129 
Q 3597 2675 3597 1894 
z
M 3022 2063 
Q 3016 2534 2758 2815 
Q 2500 3097 2075 3097 
Q 1594 3097 1305 2825 
Q 1016 2553 972 2059 
L 3022 2063 
z
" id="DejaVuSans-65" transform="scale(0.015625)"/>
      </defs>
      <use xlink:href="#DejaVuSans-41"/>
      <use x="66.658203" xlink:href="#DejaVuSans-64"/>
      <use x="130.134766" xlink:href="#DejaVuSans-76"/>
      <use x="189.314453" xlink:href="#DejaVuSans-65"/>
      <use x="250.837891" xlink:href="#DejaVuSans-72"/>
      <use x="291.951172" xlink:href="#DejaVuSans-73"/>
      <use x="344.050781" xlink:href="#DejaVuSans-61"/>
      <use x="405.330078" xlink:href="#DejaVuSans-72"/>
      <use x="446.443359" xlink:href="#DejaVuSans-69"/>
      <use x="474.226562" xlink:href="#DejaVuSans-61"/>
      <use x="535.505859" xlink:href="#DejaVuSans-6c"/>
      <use x="563.289062" xlink:href="#DejaVuSans-20"/>
      <use x="595.076172" xlink:href="#DejaVuSans-56"/>
      <use x="655.734375" xlink:href="#DejaVuSans-61"/>
      <use x="717.013672" xlink:href="#DejaVuSans-6c"/>
      <use x="744.796875" xlink:href="#DejaVuSans-69"/>
      <use x="772.580078" xlink:href="#DejaVuSans-64"/>
      <use x="836.056641" xlink:href="#DejaVuSans-61"/>
      <use x="897.335938" xlink:href="#DejaVuSans-74"/>
      <use x="936.544922" xlink:href="#DejaVuSans-69"/>
      <use x="964.328125" xlink:href="#DejaVuSans-6f"/>
      <use x="1025.509766" xlink:href="#DejaVuSans-6e"/>
      <use x="1088.888672" xlink:href="#DejaVuSans-20"/>
      <use x="1120.675781" xlink:href="#DejaVuSans-41"/>
      <use x="1187.333984" xlink:href="#DejaVuSans-63"/>
      <use x="1242.314453" xlink:href="#DejaVuSans-63"/>
      <use x="1297.294922" xlink:href="#DejaVuSans-75"/>
      <use x="1360.673828" xlink:href="#DejaVuSans-72"/>
      <use x="1401.787109" xlink:href="#DejaVuSans-61"/>
      <use x="1463.066406" xlink:href="#DejaVuSans-63"/>
      <use x="1518.046875" xlink:href="#DejaVuSans-79"/>
     </g>
    </g>
   </g>
  </g>
 </g>
 <defs>
  <clipPath id="p9ff615c40e">
   <rect height="266.112" width="357.12" x="57.6" y="41.472"/>
  </clipPath>
 </defs>
</svg>
