<?xml version="1.0" encoding="utf-8" standalone="no"?>
<!DOCTYPE svg PUBLIC "-//W3C//DTD SVG 1.1//EN"
  "http://www.w3.org/Graphics/SVG/1.1/DTD/svg11.dtd">
<svg xmlns:xlink="http://www.w3.org/1999/xlink" width="460.8pt" height="345.6pt" viewBox="0 0 460.8 345.6" xmlns="http://www.w3.org/2000/svg" version="1.1">
 <metadata>
  <rdf:RDF xmlns:dc="http://purl.org/dc/elements/1.1/" xmlns:cc="http://creativecommons.org/ns#" xmlns:rdf="http://www.w3.org/1999/02/22-rdf-syntax-ns#">
   <cc:Work>
    <dc:type rdf:resource="http://purl.org/dc/dcmitype/StillImage"/>
    <dc:date>2023-11-11T19:52:17.175293</dc:date>
    <dc:format>image/svg+xml</dc:format>
    <dc:creator>
     <cc:Agent>
      <dc:title>Matplotlib v3.7.0, https://matplotlib.org/</dc:title>
     </cc:Agent>
    </dc:creator>
   </cc:Work>
  </rdf:RDF>
 </metadata>
 <defs>
  <style type="text/css">*{stroke-linejoin: round; stroke-linecap: butt}</style>
 </defs>
 <g id="figure_1">
  <g id="patch_1">
   <path d="M 0 345.6 
L 460.8 345.6 
L 460.8 0 
L 0 0 
z
" style="fill: #ffffff"/>
  </g>
  <g id="axes_1">
   <g id="patch_2">
    <path d="M 57.6 307.584 
L 414.72 307.584 
L 414.72 41.472 
L 57.6 41.472 
z
" style="fill: #ffffff"/>
   </g>
   <g id="matplotlib.axis_1">
    <g id="xtick_1">
     <g id="line2d_1">
      <defs>
       <path id="m41f27f28fd" d="M 0 0 
L 0 3.5 
" style="stroke: #000000; stroke-width: 0.8"/>
      </defs>
      <g>
       <use xlink:href="#m41f27f28fd" x="73.832727" y="307.584" style="stroke: #000000; stroke-width: 0.8"/>
      </g>
     </g>
     <g id="text_1">
      <!-- 1 -->
      <g transform="translate(70.651477 322.182437) scale(0.1 -0.1)">
       <defs>
        <path id="DejaVuSans-31" d="M 794 531 
L 1825 531 
L 1825 4091 
L 703 3866 
L 703 4441 
L 1819 4666 
L 2450 4666 
L 2450 531 
L 3481 531 
L 3481 0 
L 794 0 
L 794 531 
z
" transform="scale(0.015625)"/>
       </defs>
       <use xlink:href="#DejaVuSans-31"/>
      </g>
     </g>
    </g>
    <g id="xtick_2">
     <g id="line2d_2">
      <g>
       <use xlink:href="#m41f27f28fd" x="109.555234" y="307.584" style="stroke: #000000; stroke-width: 0.8"/>
      </g>
     </g>
     <g id="text_2">
      <!-- 35 -->
      <g transform="translate(103.192734 322.182437) scale(0.1 -0.1)">
       <defs>
        <path id="DejaVuSans-33" d="M 2597 2516 
Q 3050 2419 3304 2112 
Q 3559 1806 3559 1356 
Q 3559 666 3084 287 
Q 2609 -91 1734 -91 
Q 1441 -91 1130 -33 
Q 819 25 488 141 
L 488 750 
Q 750 597 1062 519 
Q 1375 441 1716 441 
Q 2309 441 2620 675 
Q 2931 909 2931 1356 
Q 2931 1769 2642 2001 
Q 2353 2234 1838 2234 
L 1294 2234 
L 1294 2753 
L 1863 2753 
Q 2328 2753 2575 2939 
Q 2822 3125 2822 3475 
Q 2822 3834 2567 4026 
Q 2313 4219 1838 4219 
Q 1578 4219 1281 4162 
Q 984 4106 628 3988 
L 628 4550 
Q 988 4650 1302 4700 
Q 1616 4750 1894 4750 
Q 2613 4750 3031 4423 
Q 3450 4097 3450 3541 
Q 3450 3153 3228 2886 
Q 3006 2619 2597 2516 
z
" transform="scale(0.015625)"/>
        <path id="DejaVuSans-35" d="M 691 4666 
L 3169 4666 
L 3169 4134 
L 1269 4134 
L 1269 2991 
Q 1406 3038 1543 3061 
Q 1681 3084 1819 3084 
Q 2600 3084 3056 2656 
Q 3513 2228 3513 1497 
Q 3513 744 3044 326 
Q 2575 -91 1722 -91 
Q 1428 -91 1123 -41 
Q 819 9 494 109 
L 494 744 
Q 775 591 1075 516 
Q 1375 441 1709 441 
Q 2250 441 2565 725 
Q 2881 1009 2881 1497 
Q 2881 1984 2565 2268 
Q 2250 2553 1709 2553 
Q 1456 2553 1204 2497 
Q 953 2441 691 2322 
L 691 4666 
z
" transform="scale(0.015625)"/>
       </defs>
       <use xlink:href="#DejaVuSans-33"/>
       <use xlink:href="#DejaVuSans-35" x="63.623047"/>
      </g>
     </g>
    </g>
    <g id="xtick_3">
     <g id="line2d_3">
      <g>
       <use xlink:href="#m41f27f28fd" x="145.277741" y="307.584" style="stroke: #000000; stroke-width: 0.8"/>
      </g>
     </g>
     <g id="text_3">
      <!-- 69 -->
      <g transform="translate(138.915241 322.182437) scale(0.1 -0.1)">
       <defs>
        <path id="DejaVuSans-36" d="M 2113 2584 
Q 1688 2584 1439 2293 
Q 1191 2003 1191 1497 
Q 1191 994 1439 701 
Q 1688 409 2113 409 
Q 2538 409 2786 701 
Q 3034 994 3034 1497 
Q 3034 2003 2786 2293 
Q 2538 2584 2113 2584 
z
M 3366 4563 
L 3366 3988 
Q 3128 4100 2886 4159 
Q 2644 4219 2406 4219 
Q 1781 4219 1451 3797 
Q 1122 3375 1075 2522 
Q 1259 2794 1537 2939 
Q 1816 3084 2150 3084 
Q 2853 3084 3261 2657 
Q 3669 2231 3669 1497 
Q 3669 778 3244 343 
Q 2819 -91 2113 -91 
Q 1303 -91 875 529 
Q 447 1150 447 2328 
Q 447 3434 972 4092 
Q 1497 4750 2381 4750 
Q 2619 4750 2861 4703 
Q 3103 4656 3366 4563 
z
" transform="scale(0.015625)"/>
        <path id="DejaVuSans-39" d="M 703 97 
L 703 672 
Q 941 559 1184 500 
Q 1428 441 1663 441 
Q 2288 441 2617 861 
Q 2947 1281 2994 2138 
Q 2813 1869 2534 1725 
Q 2256 1581 1919 1581 
Q 1219 1581 811 2004 
Q 403 2428 403 3163 
Q 403 3881 828 4315 
Q 1253 4750 1959 4750 
Q 2769 4750 3195 4129 
Q 3622 3509 3622 2328 
Q 3622 1225 3098 567 
Q 2575 -91 1691 -91 
Q 1453 -91 1209 -44 
Q 966 3 703 97 
z
M 1959 2075 
Q 2384 2075 2632 2365 
Q 2881 2656 2881 3163 
Q 2881 3666 2632 3958 
Q 2384 4250 1959 4250 
Q 1534 4250 1286 3958 
Q 1038 3666 1038 3163 
Q 1038 2656 1286 2365 
Q 1534 2075 1959 2075 
z
" transform="scale(0.015625)"/>
       </defs>
       <use xlink:href="#DejaVuSans-36"/>
       <use xlink:href="#DejaVuSans-39" x="63.623047"/>
      </g>
     </g>
    </g>
    <g id="xtick_4">
     <g id="line2d_4">
      <g>
       <use xlink:href="#m41f27f28fd" x="182.050909" y="307.584" style="stroke: #000000; stroke-width: 0.8"/>
      </g>
     </g>
     <g id="text_4">
      <!-- 104 -->
      <g transform="translate(172.507159 322.182437) scale(0.1 -0.1)">
       <defs>
        <path id="DejaVuSans-30" d="M 2034 4250 
Q 1547 4250 1301 3770 
Q 1056 3291 1056 2328 
Q 1056 1369 1301 889 
Q 1547 409 2034 409 
Q 2525 409 2770 889 
Q 3016 1369 3016 2328 
Q 3016 3291 2770 3770 
Q 2525 4250 2034 4250 
z
M 2034 4750 
Q 2819 4750 3233 4129 
Q 3647 3509 3647 2328 
Q 3647 1150 3233 529 
Q 2819 -91 2034 -91 
Q 1250 -91 836 529 
Q 422 1150 422 2328 
Q 422 3509 836 4129 
Q 1250 4750 2034 4750 
z
" transform="scale(0.015625)"/>
        <path id="DejaVuSans-34" d="M 2419 4116 
L 825 1625 
L 2419 1625 
L 2419 4116 
z
M 2253 4666 
L 3047 4666 
L 3047 1625 
L 3713 1625 
L 3713 1100 
L 3047 1100 
L 3047 0 
L 2419 0 
L 2419 1100 
L 313 1100 
L 313 1709 
L 2253 4666 
z
" transform="scale(0.015625)"/>
       </defs>
       <use xlink:href="#DejaVuSans-31"/>
       <use xlink:href="#DejaVuSans-30" x="63.623047"/>
       <use xlink:href="#DejaVuSans-34" x="127.246094"/>
      </g>
     </g>
    </g>
    <g id="xtick_5">
     <g id="line2d_5">
      <g>
       <use xlink:href="#m41f27f28fd" x="217.773416" y="307.584" style="stroke: #000000; stroke-width: 0.8"/>
      </g>
     </g>
     <g id="text_5">
      <!-- 138 -->
      <g transform="translate(208.229666 322.182437) scale(0.1 -0.1)">
       <defs>
        <path id="DejaVuSans-38" d="M 2034 2216 
Q 1584 2216 1326 1975 
Q 1069 1734 1069 1313 
Q 1069 891 1326 650 
Q 1584 409 2034 409 
Q 2484 409 2743 651 
Q 3003 894 3003 1313 
Q 3003 1734 2745 1975 
Q 2488 2216 2034 2216 
z
M 1403 2484 
Q 997 2584 770 2862 
Q 544 3141 544 3541 
Q 544 4100 942 4425 
Q 1341 4750 2034 4750 
Q 2731 4750 3128 4425 
Q 3525 4100 3525 3541 
Q 3525 3141 3298 2862 
Q 3072 2584 2669 2484 
Q 3125 2378 3379 2068 
Q 3634 1759 3634 1313 
Q 3634 634 3220 271 
Q 2806 -91 2034 -91 
Q 1263 -91 848 271 
Q 434 634 434 1313 
Q 434 1759 690 2068 
Q 947 2378 1403 2484 
z
M 1172 3481 
Q 1172 3119 1398 2916 
Q 1625 2713 2034 2713 
Q 2441 2713 2670 2916 
Q 2900 3119 2900 3481 
Q 2900 3844 2670 4047 
Q 2441 4250 2034 4250 
Q 1625 4250 1398 4047 
Q 1172 3844 1172 3481 
z
" transform="scale(0.015625)"/>
       </defs>
       <use xlink:href="#DejaVuSans-31"/>
       <use xlink:href="#DejaVuSans-33" x="63.623047"/>
       <use xlink:href="#DejaVuSans-38" x="127.246094"/>
      </g>
     </g>
    </g>
    <g id="xtick_6">
     <g id="line2d_6">
      <g>
       <use xlink:href="#m41f27f28fd" x="253.495922" y="307.584" style="stroke: #000000; stroke-width: 0.8"/>
      </g>
     </g>
     <g id="text_6">
      <!-- 172 -->
      <g transform="translate(243.952172 322.182437) scale(0.1 -0.1)">
       <defs>
        <path id="DejaVuSans-37" d="M 525 4666 
L 3525 4666 
L 3525 4397 
L 1831 0 
L 1172 0 
L 2766 4134 
L 525 4134 
L 525 4666 
z
" transform="scale(0.015625)"/>
        <path id="DejaVuSans-32" d="M 1228 531 
L 3431 531 
L 3431 0 
L 469 0 
L 469 531 
Q 828 903 1448 1529 
Q 2069 2156 2228 2338 
Q 2531 2678 2651 2914 
Q 2772 3150 2772 3378 
Q 2772 3750 2511 3984 
Q 2250 4219 1831 4219 
Q 1534 4219 1204 4116 
Q 875 4013 500 3803 
L 500 4441 
Q 881 4594 1212 4672 
Q 1544 4750 1819 4750 
Q 2544 4750 2975 4387 
Q 3406 4025 3406 3419 
Q 3406 3131 3298 2873 
Q 3191 2616 2906 2266 
Q 2828 2175 2409 1742 
Q 1991 1309 1228 531 
z
" transform="scale(0.015625)"/>
       </defs>
       <use xlink:href="#DejaVuSans-31"/>
       <use xlink:href="#DejaVuSans-37" x="63.623047"/>
       <use xlink:href="#DejaVuSans-32" x="127.246094"/>
      </g>
     </g>
    </g>
    <g id="xtick_7">
     <g id="line2d_7">
      <g>
       <use xlink:href="#m41f27f28fd" x="290.269091" y="307.584" style="stroke: #000000; stroke-width: 0.8"/>
      </g>
     </g>
     <g id="text_7">
      <!-- 207 -->
      <g transform="translate(280.725341 322.182437) scale(0.1 -0.1)">
       <use xlink:href="#DejaVuSans-32"/>
       <use xlink:href="#DejaVuSans-30" x="63.623047"/>
       <use xlink:href="#DejaVuSans-37" x="127.246094"/>
      </g>
     </g>
    </g>
    <g id="xtick_8">
     <g id="line2d_8">
      <g>
       <use xlink:href="#m41f27f28fd" x="325.991598" y="307.584" style="stroke: #000000; stroke-width: 0.8"/>
      </g>
     </g>
     <g id="text_8">
      <!-- 241 -->
      <g transform="translate(316.447848 322.182437) scale(0.1 -0.1)">
       <use xlink:href="#DejaVuSans-32"/>
       <use xlink:href="#DejaVuSans-34" x="63.623047"/>
       <use xlink:href="#DejaVuSans-31" x="127.246094"/>
      </g>
     </g>
    </g>
    <g id="xtick_9">
     <g id="line2d_9">
      <g>
       <use xlink:href="#m41f27f28fd" x="361.714104" y="307.584" style="stroke: #000000; stroke-width: 0.8"/>
      </g>
     </g>
     <g id="text_9">
      <!-- 275 -->
      <g transform="translate(352.170354 322.182437) scale(0.1 -0.1)">
       <use xlink:href="#DejaVuSans-32"/>
       <use xlink:href="#DejaVuSans-37" x="63.623047"/>
       <use xlink:href="#DejaVuSans-35" x="127.246094"/>
      </g>
     </g>
    </g>
    <g id="xtick_10">
     <g id="line2d_10">
      <g>
       <use xlink:href="#m41f27f28fd" x="398.487273" y="307.584" style="stroke: #000000; stroke-width: 0.8"/>
      </g>
     </g>
     <g id="text_10">
      <!-- 310 -->
      <g transform="translate(388.943523 322.182437) scale(0.1 -0.1)">
       <use xlink:href="#DejaVuSans-33"/>
       <use xlink:href="#DejaVuSans-31" x="63.623047"/>
       <use xlink:href="#DejaVuSans-30" x="127.246094"/>
      </g>
     </g>
    </g>
    <g id="text_11">
     <!-- Epochs -->
     <g transform="translate(218.244375 335.860562) scale(0.1 -0.1)">
      <defs>
       <path id="DejaVuSans-45" d="M 628 4666 
L 3578 4666 
L 3578 4134 
L 1259 4134 
L 1259 2753 
L 3481 2753 
L 3481 2222 
L 1259 2222 
L 1259 531 
L 3634 531 
L 3634 0 
L 628 0 
L 628 4666 
z
" transform="scale(0.015625)"/>
       <path id="DejaVuSans-70" d="M 1159 525 
L 1159 -1331 
L 581 -1331 
L 581 3500 
L 1159 3500 
L 1159 2969 
Q 1341 3281 1617 3432 
Q 1894 3584 2278 3584 
Q 2916 3584 3314 3078 
Q 3713 2572 3713 1747 
Q 3713 922 3314 415 
Q 2916 -91 2278 -91 
Q 1894 -91 1617 61 
Q 1341 213 1159 525 
z
M 3116 1747 
Q 3116 2381 2855 2742 
Q 2594 3103 2138 3103 
Q 1681 3103 1420 2742 
Q 1159 2381 1159 1747 
Q 1159 1113 1420 752 
Q 1681 391 2138 391 
Q 2594 391 2855 752 
Q 3116 1113 3116 1747 
z
" transform="scale(0.015625)"/>
       <path id="DejaVuSans-6f" d="M 1959 3097 
Q 1497 3097 1228 2736 
Q 959 2375 959 1747 
Q 959 1119 1226 758 
Q 1494 397 1959 397 
Q 2419 397 2687 759 
Q 2956 1122 2956 1747 
Q 2956 2369 2687 2733 
Q 2419 3097 1959 3097 
z
M 1959 3584 
Q 2709 3584 3137 3096 
Q 3566 2609 3566 1747 
Q 3566 888 3137 398 
Q 2709 -91 1959 -91 
Q 1206 -91 779 398 
Q 353 888 353 1747 
Q 353 2609 779 3096 
Q 1206 3584 1959 3584 
z
" transform="scale(0.015625)"/>
       <path id="DejaVuSans-63" d="M 3122 3366 
L 3122 2828 
Q 2878 2963 2633 3030 
Q 2388 3097 2138 3097 
Q 1578 3097 1268 2742 
Q 959 2388 959 1747 
Q 959 1106 1268 751 
Q 1578 397 2138 397 
Q 2388 397 2633 464 
Q 2878 531 3122 666 
L 3122 134 
Q 2881 22 2623 -34 
Q 2366 -91 2075 -91 
Q 1284 -91 818 406 
Q 353 903 353 1747 
Q 353 2603 823 3093 
Q 1294 3584 2113 3584 
Q 2378 3584 2631 3529 
Q 2884 3475 3122 3366 
z
" transform="scale(0.015625)"/>
       <path id="DejaVuSans-68" d="M 3513 2113 
L 3513 0 
L 2938 0 
L 2938 2094 
Q 2938 2591 2744 2837 
Q 2550 3084 2163 3084 
Q 1697 3084 1428 2787 
Q 1159 2491 1159 1978 
L 1159 0 
L 581 0 
L 581 4863 
L 1159 4863 
L 1159 2956 
Q 1366 3272 1645 3428 
Q 1925 3584 2291 3584 
Q 2894 3584 3203 3211 
Q 3513 2838 3513 2113 
z
" transform="scale(0.015625)"/>
       <path id="DejaVuSans-73" d="M 2834 3397 
L 2834 2853 
Q 2591 2978 2328 3040 
Q 2066 3103 1784 3103 
Q 1356 3103 1142 2972 
Q 928 2841 928 2578 
Q 928 2378 1081 2264 
Q 1234 2150 1697 2047 
L 1894 2003 
Q 2506 1872 2764 1633 
Q 3022 1394 3022 966 
Q 3022 478 2636 193 
Q 2250 -91 1575 -91 
Q 1294 -91 989 -36 
Q 684 19 347 128 
L 347 722 
Q 666 556 975 473 
Q 1284 391 1588 391 
Q 1994 391 2212 530 
Q 2431 669 2431 922 
Q 2431 1156 2273 1281 
Q 2116 1406 1581 1522 
L 1381 1569 
Q 847 1681 609 1914 
Q 372 2147 372 2553 
Q 372 3047 722 3315 
Q 1072 3584 1716 3584 
Q 2034 3584 2315 3537 
Q 2597 3491 2834 3397 
z
" transform="scale(0.015625)"/>
      </defs>
      <use xlink:href="#DejaVuSans-45"/>
      <use xlink:href="#DejaVuSans-70" x="63.183594"/>
      <use xlink:href="#DejaVuSans-6f" x="126.660156"/>
      <use xlink:href="#DejaVuSans-63" x="187.841797"/>
      <use xlink:href="#DejaVuSans-68" x="242.822266"/>
      <use xlink:href="#DejaVuSans-73" x="306.201172"/>
     </g>
    </g>
   </g>
   <g id="matplotlib.axis_2">
    <g id="ytick_1">
     <g id="line2d_11">
      <defs>
       <path id="m94c2e55387" d="M 0 0 
L -3.5 0 
" style="stroke: #000000; stroke-width: 0.8"/>
      </defs>
      <g>
       <use xlink:href="#m94c2e55387" x="57.6" y="278.889136" style="stroke: #000000; stroke-width: 0.8"/>
      </g>
     </g>
     <g id="text_12">
      <!-- 10 -->
      <g transform="translate(37.875 282.688355) scale(0.1 -0.1)">
       <use xlink:href="#DejaVuSans-31"/>
       <use xlink:href="#DejaVuSans-30" x="63.623047"/>
      </g>
     </g>
    </g>
    <g id="ytick_2">
     <g id="line2d_12">
      <g>
       <use xlink:href="#m94c2e55387" x="57.6" y="248.207318" style="stroke: #000000; stroke-width: 0.8"/>
      </g>
     </g>
     <g id="text_13">
      <!-- 20 -->
      <g transform="translate(37.875 252.006537) scale(0.1 -0.1)">
       <use xlink:href="#DejaVuSans-32"/>
       <use xlink:href="#DejaVuSans-30" x="63.623047"/>
      </g>
     </g>
    </g>
    <g id="ytick_3">
     <g id="line2d_13">
      <g>
       <use xlink:href="#m94c2e55387" x="57.6" y="217.5255" style="stroke: #000000; stroke-width: 0.8"/>
      </g>
     </g>
     <g id="text_14">
      <!-- 30 -->
      <g transform="translate(37.875 221.324719) scale(0.1 -0.1)">
       <use xlink:href="#DejaVuSans-33"/>
       <use xlink:href="#DejaVuSans-30" x="63.623047"/>
      </g>
     </g>
    </g>
    <g id="ytick_4">
     <g id="line2d_14">
      <g>
       <use xlink:href="#m94c2e55387" x="57.6" y="186.843682" style="stroke: #000000; stroke-width: 0.8"/>
      </g>
     </g>
     <g id="text_15">
      <!-- 40 -->
      <g transform="translate(37.875 190.642901) scale(0.1 -0.1)">
       <use xlink:href="#DejaVuSans-34"/>
       <use xlink:href="#DejaVuSans-30" x="63.623047"/>
      </g>
     </g>
    </g>
    <g id="ytick_5">
     <g id="line2d_15">
      <g>
       <use xlink:href="#m94c2e55387" x="57.6" y="156.161864" style="stroke: #000000; stroke-width: 0.8"/>
      </g>
     </g>
     <g id="text_16">
      <!-- 50 -->
      <g transform="translate(37.875 159.961082) scale(0.1 -0.1)">
       <use xlink:href="#DejaVuSans-35"/>
       <use xlink:href="#DejaVuSans-30" x="63.623047"/>
      </g>
     </g>
    </g>
    <g id="ytick_6">
     <g id="line2d_16">
      <g>
       <use xlink:href="#m94c2e55387" x="57.6" y="125.480045" style="stroke: #000000; stroke-width: 0.8"/>
      </g>
     </g>
     <g id="text_17">
      <!-- 60 -->
      <g transform="translate(37.875 129.279264) scale(0.1 -0.1)">
       <use xlink:href="#DejaVuSans-36"/>
       <use xlink:href="#DejaVuSans-30" x="63.623047"/>
      </g>
     </g>
    </g>
    <g id="ytick_7">
     <g id="line2d_17">
      <g>
       <use xlink:href="#m94c2e55387" x="57.6" y="94.798227" style="stroke: #000000; stroke-width: 0.8"/>
      </g>
     </g>
     <g id="text_18">
      <!-- 70 -->
      <g transform="translate(37.875 98.597446) scale(0.1 -0.1)">
       <use xlink:href="#DejaVuSans-37"/>
       <use xlink:href="#DejaVuSans-30" x="63.623047"/>
      </g>
     </g>
    </g>
    <g id="ytick_8">
     <g id="line2d_18">
      <g>
       <use xlink:href="#m94c2e55387" x="57.6" y="64.116409" style="stroke: #000000; stroke-width: 0.8"/>
      </g>
     </g>
     <g id="text_19">
      <!-- 80 -->
      <g transform="translate(37.875 67.915628) scale(0.1 -0.1)">
       <use xlink:href="#DejaVuSans-38"/>
       <use xlink:href="#DejaVuSans-30" x="63.623047"/>
      </g>
     </g>
    </g>
    <g id="text_20">
     <!-- Accuracy -->
     <g transform="translate(31.795312 197.356125) rotate(-90) scale(0.1 -0.1)">
      <defs>
       <path id="DejaVuSans-41" d="M 2188 4044 
L 1331 1722 
L 3047 1722 
L 2188 4044 
z
M 1831 4666 
L 2547 4666 
L 4325 0 
L 3669 0 
L 3244 1197 
L 1141 1197 
L 716 0 
L 50 0 
L 1831 4666 
z
" transform="scale(0.015625)"/>
       <path id="DejaVuSans-75" d="M 544 1381 
L 544 3500 
L 1119 3500 
L 1119 1403 
Q 1119 906 1312 657 
Q 1506 409 1894 409 
Q 2359 409 2629 706 
Q 2900 1003 2900 1516 
L 2900 3500 
L 3475 3500 
L 3475 0 
L 2900 0 
L 2900 538 
Q 2691 219 2414 64 
Q 2138 -91 1772 -91 
Q 1169 -91 856 284 
Q 544 659 544 1381 
z
M 1991 3584 
L 1991 3584 
z
" transform="scale(0.015625)"/>
       <path id="DejaVuSans-72" d="M 2631 2963 
Q 2534 3019 2420 3045 
Q 2306 3072 2169 3072 
Q 1681 3072 1420 2755 
Q 1159 2438 1159 1844 
L 1159 0 
L 581 0 
L 581 3500 
L 1159 3500 
L 1159 2956 
Q 1341 3275 1631 3429 
Q 1922 3584 2338 3584 
Q 2397 3584 2469 3576 
Q 2541 3569 2628 3553 
L 2631 2963 
z
" transform="scale(0.015625)"/>
       <path id="DejaVuSans-61" d="M 2194 1759 
Q 1497 1759 1228 1600 
Q 959 1441 959 1056 
Q 959 750 1161 570 
Q 1363 391 1709 391 
Q 2188 391 2477 730 
Q 2766 1069 2766 1631 
L 2766 1759 
L 2194 1759 
z
M 3341 1997 
L 3341 0 
L 2766 0 
L 2766 531 
Q 2569 213 2275 61 
Q 1981 -91 1556 -91 
Q 1019 -91 701 211 
Q 384 513 384 1019 
Q 384 1609 779 1909 
Q 1175 2209 1959 2209 
L 2766 2209 
L 2766 2266 
Q 2766 2663 2505 2880 
Q 2244 3097 1772 3097 
Q 1472 3097 1187 3025 
Q 903 2953 641 2809 
L 641 3341 
Q 956 3463 1253 3523 
Q 1550 3584 1831 3584 
Q 2591 3584 2966 3190 
Q 3341 2797 3341 1997 
z
" transform="scale(0.015625)"/>
       <path id="DejaVuSans-79" d="M 2059 -325 
Q 1816 -950 1584 -1140 
Q 1353 -1331 966 -1331 
L 506 -1331 
L 506 -850 
L 844 -850 
Q 1081 -850 1212 -737 
Q 1344 -625 1503 -206 
L 1606 56 
L 191 3500 
L 800 3500 
L 1894 763 
L 2988 3500 
L 3597 3500 
L 2059 -325 
z
" transform="scale(0.015625)"/>
      </defs>
      <use xlink:href="#DejaVuSans-41"/>
      <use xlink:href="#DejaVuSans-63" x="66.658203"/>
      <use xlink:href="#DejaVuSans-63" x="121.638672"/>
      <use xlink:href="#DejaVuSans-75" x="176.619141"/>
      <use xlink:href="#DejaVuSans-72" x="239.998047"/>
      <use xlink:href="#DejaVuSans-61" x="281.111328"/>
      <use xlink:href="#DejaVuSans-63" x="342.390625"/>
      <use xlink:href="#DejaVuSans-79" x="397.371094"/>
     </g>
    </g>
   </g>
   <g id="line2d_19">
    <path d="M 73.832727 295.488 
L 74.883389 285.718909 
L 75.934051 283.282773 
L 76.984713 277.661864 
L 78.035375 269.040273 
L 79.086037 258.1605 
L 80.136699 259.872545 
L 82.238023 246.427773 
L 83.288685 241.985045 
L 84.339347 259.1055 
L 85.390009 253.7055 
L 86.440671 242.021864 
L 89.592657 222.072545 
L 90.643319 223.502318 
L 91.693981 221.452773 
L 93.795305 207.8055 
L 94.845966 199.742318 
L 95.896628 197.625273 
L 96.94729 190.715727 
L 97.997952 186.543 
L 99.048614 190.685045 
L 100.099276 186.199364 
L 101.149938 178.258909 
L 102.2006 177.007091 
L 103.251262 170.686636 
L 104.301924 169.575955 
L 105.352586 208.590955 
L 106.403248 207.161182 
L 107.45391 203.798455 
L 108.504572 195.667773 
L 109.555234 180.762545 
L 110.605896 189.132545 
L 111.656558 187.935955 
L 112.70722 188.015727 
L 113.757882 182.628 
L 114.808544 173.171864 
L 115.859206 179.032091 
L 116.909868 174.288682 
L 117.96053 175.331864 
L 119.011192 177.553227 
L 120.061853 164.022545 
L 121.112515 171.643909 
L 123.213839 149.706409 
L 124.264501 158.677773 
L 125.315163 161.028 
L 126.365825 153.020045 
L 127.416487 159.868227 
L 128.467149 141.557318 
L 129.517811 155.192318 
L 130.568473 141.943909 
L 131.619135 133.530955 
L 132.669797 139.722545 
L 133.720459 135.918 
L 134.771121 144.877091 
L 135.821783 141.379364 
L 136.872445 125.345045 
L 137.923107 129.824591 
L 138.973769 140.379136 
L 140.024431 131.647091 
L 141.075093 127.965273 
L 142.125755 132.536864 
L 143.176417 126.553909 
L 144.227079 133.426636 
L 145.277741 125.915727 
L 146.328402 120.313227 
L 147.379064 154.621636 
L 148.429726 156.597545 
L 149.480388 152.572091 
L 150.53105 146.963455 
L 151.581712 156.082091 
L 152.632374 153.750273 
L 153.683036 150.9705 
L 154.733698 145.920273 
L 155.78436 156.720273 
L 156.835022 147.988227 
L 157.885684 157.493455 
L 158.936346 143.674364 
L 159.987008 142.447091 
L 161.03767 127.517318 
L 162.088332 146.429591 
L 164.189656 127.284136 
L 165.240318 129.456409 
L 166.29098 134.991409 
L 168.392304 130.100727 
L 169.442966 125.191636 
L 170.493628 135.8505 
L 171.544289 134.684591 
L 172.594951 129.3705 
L 173.645613 128.867318 
L 174.696275 131.180727 
L 175.746937 119.055273 
L 176.797599 122.730955 
L 177.848261 122.448682 
L 178.898923 125.130273 
L 179.949585 129.419591 
L 181.000247 119.552318 
L 182.050909 111.096409 
L 183.101571 117.005727 
L 184.152233 118.865045 
L 185.202895 113.115273 
L 186.253557 123.037773 
L 187.304219 112.520045 
L 188.354881 117.171409 
L 189.405543 102.511636 
L 190.456205 115.275273 
L 192.557529 118.834364 
L 193.608191 98.921864 
L 194.658853 110.826409 
L 195.709515 107.396182 
L 196.760177 110.188227 
L 197.810838 104.904818 
L 198.8615 105.727091 
L 199.912162 98.289818 
L 200.962824 98.332773 
L 202.013486 88.134136 
L 203.064148 104.677773 
L 204.11481 100.296409 
L 205.165472 89.674364 
L 206.216134 91.042773 
L 207.266796 98.811409 
L 208.317458 91.527545 
L 209.36812 97.903227 
L 210.418782 91.908 
L 211.469444 87.778227 
L 212.520106 85.593682 
L 213.570768 91.852773 
L 214.62143 95.000727 
L 215.672092 92.147318 
L 216.722754 91.423227 
L 217.773416 104.008909 
L 218.824078 93.497318 
L 219.87474 74.143227 
L 220.925402 93.601636 
L 221.976064 86.514136 
L 223.026726 89.195727 
L 224.077387 93.902318 
L 225.128049 92.024591 
L 226.178711 78.941864 
L 227.229373 86.415955 
L 228.280035 88.170955 
L 229.330697 80.439136 
L 230.381359 97.252773 
L 231.432021 125.197773 
L 232.482683 110.746636 
L 233.533345 119.945045 
L 234.584007 119.085955 
L 235.634669 129.186409 
L 236.685331 115.502318 
L 237.735993 116.471864 
L 238.786655 104.910955 
L 239.837317 119.705727 
L 240.887979 115.477773 
L 241.938641 109.691182 
L 242.989303 111.980045 
L 244.039965 105.659591 
L 245.090627 128.413227 
L 246.141289 98.492318 
L 247.191951 114.931636 
L 248.242613 122.4855 
L 249.293274 112.949591 
L 250.343936 129.131182 
L 251.394598 107.813455 
L 252.44526 107.844136 
L 253.495922 111.133227 
L 254.546584 108.200045 
L 255.597246 105.776182 
L 256.647908 111.262091 
L 257.69857 107.506636 
L 258.749232 106.377545 
L 259.799894 102.493227 
L 260.850556 113.078455 
L 261.901218 114.538909 
L 262.95188 96.203455 
L 264.002542 112.538455 
L 265.053204 105.935727 
L 266.103866 98.492318 
L 267.154528 101.235273 
L 268.20519 104.610273 
L 269.255852 96.4305 
L 270.306514 90.840273 
L 271.357176 105.843682 
L 272.407838 91.214591 
L 273.4585 105.260727 
L 274.509162 94.755273 
L 275.559823 92.294591 
L 276.610485 106.254818 
L 277.661147 108.549818 
L 278.711809 103.113 
L 279.762471 106.837773 
L 280.813133 85.047545 
L 281.863795 98.602773 
L 282.914457 88.035955 
L 283.965119 91.208455 
L 285.015781 80.181409 
L 286.066443 91.4355 
L 287.117105 93.024818 
L 288.167767 92.632091 
L 289.218429 86.060045 
L 290.269091 90.195955 
L 291.319753 95.246182 
L 292.370415 109.783227 
L 293.421077 83.8755 
L 294.471739 84.384818 
L 295.522401 83.765045 
L 296.573063 89.324591 
L 297.623725 93.227318 
L 298.674387 87.416182 
L 299.725049 84.004364 
L 300.775711 89.698909 
L 301.826372 94.473 
L 302.877034 84.851182 
L 303.927696 83.360045 
L 304.978358 98.983227 
L 306.02902 86.986636 
L 307.079682 86.735045 
L 308.130344 99.738 
L 309.181006 67.319591 
L 310.231668 90.195955 
L 311.28233 92.6505 
L 312.332992 78.659591 
L 313.383654 75.879818 
L 314.434316 71.492318 
L 316.53564 97.191409 
L 317.586302 78.463227 
L 318.636964 74.149364 
L 319.687626 88.201636 
L 320.738288 84.151636 
L 321.78895 73.314818 
L 322.839612 90.459818 
L 323.890274 68.859818 
L 324.940936 70.3755 
L 325.991598 75.695727 
L 327.042259 78.033682 
L 328.092921 82.715727 
L 329.143583 75.511636 
L 330.194245 80.285727 
L 331.244907 79.684364 
L 332.295569 88.760045 
L 333.346231 72.731864 
L 334.396893 67.927091 
L 335.447555 72.351409 
L 336.498217 69.853909 
L 337.548879 69.657545 
L 338.599541 69.608455 
L 339.650203 75.186409 
L 340.700865 90.564136 
L 341.751527 74.400955 
L 342.802189 78.616636 
L 343.852851 74.167773 
L 344.903513 78.150273 
L 345.954175 73.320955 
L 347.004837 78.549136 
L 348.055499 75.628227 
L 349.106161 74.934818 
L 350.156823 84.016636 
L 351.207485 70.786636 
L 352.258147 71.9955 
L 353.308808 71.025955 
L 354.35947 63.754364 
L 355.410132 72.780955 
L 356.460794 76.008682 
L 357.511456 70.173 
L 358.562118 65.521636 
L 359.61278 74.045045 
L 360.663442 75.560727 
L 361.714104 78.119591 
L 362.764766 67.712318 
L 363.815428 67.411636 
L 364.86609 68.853682 
L 365.916752 71.762318 
L 366.967414 60.256636 
L 368.018076 72.063 
L 369.068738 72.609136 
L 370.1194 68.945727 
L 371.170062 64.828227 
L 372.220724 70.123909 
L 373.271386 63.607091 
L 374.322048 67.117091 
L 375.37271 74.959364 
L 376.423372 67.878 
L 377.474034 72.308455 
L 378.524695 58.139591 
L 379.575357 54.825955 
L 380.626019 64.914136 
L 381.676681 62.576182 
L 382.727343 66.890045 
L 383.778005 79.033909 
L 384.828667 74.008227 
L 385.879329 60.630955 
L 386.929991 70.068682 
L 387.980653 61.931864 
L 389.031315 65.135045 
L 390.081977 57.851182 
L 391.132639 53.568 
L 392.183301 67.638682 
L 393.233963 59.593909 
L 394.284625 73.805727 
L 395.335287 71.621182 
L 396.385949 65.601409 
L 397.436611 70.228227 
L 398.487273 68.399591 
L 398.487273 68.399591 
" clip-path="url(#p07f4a5f3b1)" style="fill: none; stroke: #1f77b4; stroke-width: 1.5; stroke-linecap: square"/>
   </g>
   <g id="line2d_20">
    <path d="M 73.832727 288.584591 
L 75.934051 275.360727 
L 76.984713 271.464136 
L 78.035375 263.057318 
L 79.086037 248.053909 
L 80.136699 244.556182 
L 81.187361 220.624364 
L 82.238023 212.831182 
L 83.288685 208.535727 
L 84.339347 275.299364 
L 85.390009 241.8255 
L 86.440671 217.126636 
L 87.491333 236.670955 
L 88.541995 239.1255 
L 89.592657 214.089136 
L 90.643319 181.842545 
L 91.693981 187.764136 
L 92.744643 190.740273 
L 93.795305 174.233455 
L 94.845966 164.323227 
L 95.896628 148.399364 
L 96.94729 144.288 
L 97.997952 152.418682 
L 99.048614 140.452773 
L 101.149938 126.461864 
L 102.2006 125.7255 
L 103.251262 123.853909 
L 104.301924 125.694818 
L 105.352586 181.413 
L 106.403248 171.564136 
L 107.45391 179.572091 
L 108.504572 157.941409 
L 109.555234 171.6255 
L 110.605896 176.902773 
L 111.656558 144.410727 
L 112.70722 144.318682 
L 113.757882 133.027773 
L 114.808544 133.334591 
L 115.859206 135.727773 
L 116.909868 131.831182 
L 117.96053 134.439136 
L 119.011192 122.411864 
L 120.061853 119.619818 
L 121.112515 130.082318 
L 122.163177 110.047091 
L 123.213839 117.809591 
L 124.264501 103.818682 
L 125.315163 118.730045 
L 126.365825 106.856182 
L 127.416487 105.751636 
L 128.467149 94.859591 
L 129.517811 115.170955 
L 130.568473 97.160727 
L 131.619135 95.565273 
L 132.669797 94.859591 
L 133.720459 87.526636 
L 134.771121 90.042545 
L 135.821783 90.195955 
L 136.872445 86.943682 
L 137.923107 85.593682 
L 138.973769 82.095955 
L 140.024431 81.973227 
L 141.075093 82.586864 
L 142.125755 80.745955 
L 143.176417 82.985727 
L 144.227079 79.641409 
L 145.277741 81.390273 
L 146.328402 80.561864 
L 147.379064 120.877773 
L 148.429726 130.020955 
L 149.480388 132.199364 
L 150.53105 150.7005 
L 151.581712 119.374364 
L 152.632374 138.734591 
L 153.683036 122.411864 
L 154.733698 104.156182 
L 155.78436 101.302773 
L 156.835022 114.219818 
L 157.885684 113.207318 
L 158.936346 112.931182 
L 159.987008 107.070955 
L 161.03767 92.988 
L 162.088332 92.6505 
L 163.138994 103.235727 
L 164.189656 98.081182 
L 165.240318 87.2505 
L 166.29098 97.682318 
L 167.341642 100.781182 
L 168.392304 94.644818 
L 169.442966 85.010727 
L 170.493628 90.748227 
L 171.544289 93.755045 
L 172.594951 90.226636 
L 173.645613 92.681182 
L 174.696275 85.378909 
L 175.746937 87.710727 
L 176.797599 85.2255 
L 177.848261 87.833455 
L 178.898923 81.973227 
L 179.949585 82.709591 
L 181.000247 80.531182 
L 182.050909 78.905045 
L 183.101571 75.192545 
L 184.152233 79.641409 
L 185.202895 81.727773 
L 186.253557 82.065273 
L 187.304219 86.145955 
L 188.354881 75.407318 
L 189.405543 75.990273 
L 190.456205 81.942545 
L 191.506867 81.328909 
L 192.557529 76.972091 
L 193.608191 75.376636 
L 194.658853 76.972091 
L 195.709515 70.774364 
L 196.760177 71.234591 
L 197.810838 70.805045 
L 198.8615 69.086864 
L 199.912162 68.503909 
L 200.962824 69.669818 
L 203.064148 71.234591 
L 204.11481 69.455045 
L 205.165472 71.234591 
L 206.216134 69.209591 
L 207.266796 67.6755 
L 208.317458 67.153909 
L 209.36812 68.780045 
L 210.418782 65.067545 
L 211.469444 68.258455 
L 212.520106 64.3005 
L 213.570768 64.944818 
L 214.62143 63.656182 
L 215.672092 64.453909 
L 216.722754 64.638 
L 217.773416 63.717545 
L 218.824078 64.208455 
L 219.87474 62.091409 
L 220.925402 63.410727 
L 221.976064 63.165273 
L 223.026726 64.423227 
L 224.077387 63.410727 
L 225.128049 62.705045 
L 226.178711 63.993682 
L 227.229373 62.643682 
L 228.280035 62.367545 
L 230.381359 62.490273 
L 231.432021 101.149364 
L 232.482683 94.859591 
L 233.533345 93.141409 
L 234.584007 89.582318 
L 235.634669 90.748227 
L 236.685331 86.238 
L 237.735993 85.593682 
L 238.786655 81.052773 
L 239.837317 77.861864 
L 240.887979 93.3255 
L 241.938641 83.047091 
L 242.989303 82.556182 
L 244.039965 88.845955 
L 245.090627 97.160727 
L 246.141289 84.489136 
L 247.191951 79.672091 
L 248.242613 77.002773 
L 250.343936 81.083455 
L 251.394598 73.320955 
L 252.44526 87.127773 
L 253.495922 81.328909 
L 254.546584 78.506182 
L 255.597246 80.715273 
L 256.647908 74.793682 
L 257.69857 77.524364 
L 258.749232 79.027773 
L 259.799894 87.2505 
L 260.850556 78.076636 
L 261.901218 80.653909 
L 262.95188 72.799364 
L 264.002542 87.495955 
L 265.053204 76.143682 
L 266.103866 75.683455 
L 267.154528 79.273227 
L 268.20519 78.628909 
L 269.255852 78.168682 
L 271.357176 80.408455 
L 272.407838 83.445955 
L 273.4585 73.443682 
L 274.509162 75.591409 
L 275.559823 70.467545 
L 276.610485 82.157318 
L 277.661147 80.592545 
L 278.711809 86.084591 
L 279.762471 77.309591 
L 280.813133 73.413 
L 281.863795 73.290273 
L 282.914457 75.867545 
L 283.965119 70.989136 
L 285.015781 74.578909 
L 286.066443 74.210727 
L 287.117105 67.828909 
L 288.167767 69.424364 
L 289.218429 71.786864 
L 290.269091 72.523227 
L 291.319753 71.786864 
L 292.370415 73.505045 
L 293.421077 65.6505 
L 294.471739 68.933455 
L 295.522401 73.106182 
L 296.573063 71.940273 
L 297.623725 71.694818 
L 298.674387 70.252773 
L 299.725049 73.320955 
L 300.775711 63.717545 
L 301.826372 70.344818 
L 302.877034 71.173227 
L 303.927696 66.632318 
L 306.02902 73.382318 
L 307.079682 71.326636 
L 308.130344 71.388 
L 309.181006 71.203909 
L 310.231668 68.810727 
L 311.28233 69.148227 
L 312.332992 67.552773 
L 313.383654 66.939136 
L 314.434316 66.509591 
L 315.484978 64.944818 
L 316.53564 69.853909 
L 317.586302 66.847091 
L 318.636964 62.981182 
L 319.687626 66.570955 
L 320.738288 68.872091 
L 321.78895 63.6255 
L 322.839612 64.177773 
L 323.890274 66.693682 
L 324.940936 64.791409 
L 325.991598 66.632318 
L 327.042259 63.441409 
L 328.092921 62.643682 
L 329.143583 66.509591 
L 330.194245 67.276636 
L 331.244907 67.583455 
L 332.295569 67.552773 
L 333.346231 60.588 
L 334.396893 63.686864 
L 335.447555 62.858455 
L 336.498217 63.472091 
L 337.548879 61.416409 
L 338.599541 60.557318 
L 339.650203 62.091409 
L 340.700865 62.306182 
L 341.751527 66.141409 
L 342.802189 62.490273 
L 343.852851 63.901636 
L 344.903513 63.410727 
L 345.954175 60.772091 
L 347.004837 62.674364 
L 348.055499 59.5755 
L 349.106161 59.943682 
L 350.156823 59.514136 
L 351.207485 58.041409 
L 352.258147 59.759591 
L 353.308808 59.422091 
L 354.35947 60.649364 
L 355.410132 60.403909 
L 356.460794 61.692545 
L 357.511456 58.839136 
L 358.562118 60.649364 
L 359.61278 59.207318 
L 360.663442 58.931182 
L 361.714104 58.072091 
L 363.815428 58.624364 
L 364.86609 59.790273 
L 365.916752 60.219818 
L 366.967414 59.820955 
L 368.018076 60.434591 
L 369.068738 59.299364 
L 370.1194 58.624364 
L 371.170062 58.716409 
L 373.271386 56.814136 
L 374.322048 57.980045 
L 375.37271 59.759591 
L 376.423372 58.286864 
L 377.474034 59.084591 
L 378.524695 57.120955 
L 379.575357 58.041409 
L 380.626019 58.747091 
L 381.676681 55.801636 
L 382.727343 58.378909 
L 383.778005 59.330045 
L 384.828667 58.747091 
L 386.929991 57.182318 
L 387.980653 57.5505 
L 389.031315 56.538 
L 390.081977 57.857318 
L 392.183301 57.397091 
L 393.233963 57.059591 
L 394.284625 58.286864 
L 395.335287 56.936864 
L 396.385949 58.317545 
L 397.436611 60.434591 
L 398.487273 58.808455 
L 398.487273 58.808455 
" clip-path="url(#p07f4a5f3b1)" style="fill: none; stroke: #ff7f0e; stroke-width: 1.5; stroke-linecap: square"/>
   </g>
   <g id="patch_3">
    <path d="M 57.6 307.584 
L 57.6 41.472 
" style="fill: none; stroke: #000000; stroke-width: 0.8; stroke-linejoin: miter; stroke-linecap: square"/>
   </g>
   <g id="patch_4">
    <path d="M 414.72 307.584 
L 414.72 41.472 
" style="fill: none; stroke: #000000; stroke-width: 0.8; stroke-linejoin: miter; stroke-linecap: square"/>
   </g>
   <g id="patch_5">
    <path d="M 57.6 307.584 
L 414.72 307.584 
" style="fill: none; stroke: #000000; stroke-width: 0.8; stroke-linejoin: miter; stroke-linecap: square"/>
   </g>
   <g id="patch_6">
    <path d="M 57.6 41.472 
L 414.72 41.472 
" style="fill: none; stroke: #000000; stroke-width: 0.8; stroke-linejoin: miter; stroke-linecap: square"/>
   </g>
   <g id="text_21">
    <!-- Training and Validation Accuracy -->
    <g transform="translate(138.4575 35.472) scale(0.12 -0.12)">
     <defs>
      <path id="DejaVuSans-54" d="M -19 4666 
L 3928 4666 
L 3928 4134 
L 2272 4134 
L 2272 0 
L 1638 0 
L 1638 4134 
L -19 4134 
L -19 4666 
z
" transform="scale(0.015625)"/>
      <path id="DejaVuSans-69" d="M 603 3500 
L 1178 3500 
L 1178 0 
L 603 0 
L 603 3500 
z
M 603 4863 
L 1178 4863 
L 1178 4134 
L 603 4134 
L 603 4863 
z
" transform="scale(0.015625)"/>
      <path id="DejaVuSans-6e" d="M 3513 2113 
L 3513 0 
L 2938 0 
L 2938 2094 
Q 2938 2591 2744 2837 
Q 2550 3084 2163 3084 
Q 1697 3084 1428 2787 
Q 1159 2491 1159 1978 
L 1159 0 
L 581 0 
L 581 3500 
L 1159 3500 
L 1159 2956 
Q 1366 3272 1645 3428 
Q 1925 3584 2291 3584 
Q 2894 3584 3203 3211 
Q 3513 2838 3513 2113 
z
" transform="scale(0.015625)"/>
      <path id="DejaVuSans-67" d="M 2906 1791 
Q 2906 2416 2648 2759 
Q 2391 3103 1925 3103 
Q 1463 3103 1205 2759 
Q 947 2416 947 1791 
Q 947 1169 1205 825 
Q 1463 481 1925 481 
Q 2391 481 2648 825 
Q 2906 1169 2906 1791 
z
M 3481 434 
Q 3481 -459 3084 -895 
Q 2688 -1331 1869 -1331 
Q 1566 -1331 1297 -1286 
Q 1028 -1241 775 -1147 
L 775 -588 
Q 1028 -725 1275 -790 
Q 1522 -856 1778 -856 
Q 2344 -856 2625 -561 
Q 2906 -266 2906 331 
L 2906 616 
Q 2728 306 2450 153 
Q 2172 0 1784 0 
Q 1141 0 747 490 
Q 353 981 353 1791 
Q 353 2603 747 3093 
Q 1141 3584 1784 3584 
Q 2172 3584 2450 3431 
Q 2728 3278 2906 2969 
L 2906 3500 
L 3481 3500 
L 3481 434 
z
" transform="scale(0.015625)"/>
      <path id="DejaVuSans-20" transform="scale(0.015625)"/>
      <path id="DejaVuSans-64" d="M 2906 2969 
L 2906 4863 
L 3481 4863 
L 3481 0 
L 2906 0 
L 2906 525 
Q 2725 213 2448 61 
Q 2172 -91 1784 -91 
Q 1150 -91 751 415 
Q 353 922 353 1747 
Q 353 2572 751 3078 
Q 1150 3584 1784 3584 
Q 2172 3584 2448 3432 
Q 2725 3281 2906 2969 
z
M 947 1747 
Q 947 1113 1208 752 
Q 1469 391 1925 391 
Q 2381 391 2643 752 
Q 2906 1113 2906 1747 
Q 2906 2381 2643 2742 
Q 2381 3103 1925 3103 
Q 1469 3103 1208 2742 
Q 947 2381 947 1747 
z
" transform="scale(0.015625)"/>
      <path id="DejaVuSans-56" d="M 1831 0 
L 50 4666 
L 709 4666 
L 2188 738 
L 3669 4666 
L 4325 4666 
L 2547 0 
L 1831 0 
z
" transform="scale(0.015625)"/>
      <path id="DejaVuSans-6c" d="M 603 4863 
L 1178 4863 
L 1178 0 
L 603 0 
L 603 4863 
z
" transform="scale(0.015625)"/>
      <path id="DejaVuSans-74" d="M 1172 4494 
L 1172 3500 
L 2356 3500 
L 2356 3053 
L 1172 3053 
L 1172 1153 
Q 1172 725 1289 603 
Q 1406 481 1766 481 
L 2356 481 
L 2356 0 
L 1766 0 
Q 1100 0 847 248 
Q 594 497 594 1153 
L 594 3053 
L 172 3053 
L 172 3500 
L 594 3500 
L 594 4494 
L 1172 4494 
z
" transform="scale(0.015625)"/>
     </defs>
     <use xlink:href="#DejaVuSans-54"/>
     <use xlink:href="#DejaVuSans-72" x="46.333984"/>
     <use xlink:href="#DejaVuSans-61" x="87.447266"/>
     <use xlink:href="#DejaVuSans-69" x="148.726562"/>
     <use xlink:href="#DejaVuSans-6e" x="176.509766"/>
     <use xlink:href="#DejaVuSans-69" x="239.888672"/>
     <use xlink:href="#DejaVuSans-6e" x="267.671875"/>
     <use xlink:href="#DejaVuSans-67" x="331.050781"/>
     <use xlink:href="#DejaVuSans-20" x="394.527344"/>
     <use xlink:href="#DejaVuSans-61" x="426.314453"/>
     <use xlink:href="#DejaVuSans-6e" x="487.59375"/>
     <use xlink:href="#DejaVuSans-64" x="550.972656"/>
     <use xlink:href="#DejaVuSans-20" x="614.449219"/>
     <use xlink:href="#DejaVuSans-56" x="646.236328"/>
     <use xlink:href="#DejaVuSans-61" x="706.894531"/>
     <use xlink:href="#DejaVuSans-6c" x="768.173828"/>
     <use xlink:href="#DejaVuSans-69" x="795.957031"/>
     <use xlink:href="#DejaVuSans-64" x="823.740234"/>
     <use xlink:href="#DejaVuSans-61" x="887.216797"/>
     <use xlink:href="#DejaVuSans-74" x="948.496094"/>
     <use xlink:href="#DejaVuSans-69" x="987.705078"/>
     <use xlink:href="#DejaVuSans-6f" x="1015.488281"/>
     <use xlink:href="#DejaVuSans-6e" x="1076.669922"/>
     <use xlink:href="#DejaVuSans-20" x="1140.048828"/>
     <use xlink:href="#DejaVuSans-41" x="1171.835938"/>
     <use xlink:href="#DejaVuSans-63" x="1238.494141"/>
     <use xlink:href="#DejaVuSans-63" x="1293.474609"/>
     <use xlink:href="#DejaVuSans-75" x="1348.455078"/>
     <use xlink:href="#DejaVuSans-72" x="1411.833984"/>
     <use xlink:href="#DejaVuSans-61" x="1452.947266"/>
     <use xlink:href="#DejaVuSans-63" x="1514.226562"/>
     <use xlink:href="#DejaVuSans-79" x="1569.207031"/>
    </g>
   </g>
   <g id="legend_1">
    <g id="patch_7">
     <path d="M 277.504375 302.584 
L 407.72 302.584 
Q 409.72 302.584 409.72 300.584 
L 409.72 272.22775 
Q 409.72 270.22775 407.72 270.22775 
L 277.504375 270.22775 
Q 275.504375 270.22775 275.504375 272.22775 
L 275.504375 300.584 
Q 275.504375 302.584 277.504375 302.584 
z
" style="fill: #ffffff; opacity: 0.8; stroke: #cccccc; stroke-linejoin: miter"/>
    </g>
    <g id="line2d_21">
     <path d="M 279.504375 278.326187 
L 289.504375 278.326187 
L 299.504375 278.326187 
" style="fill: none; stroke: #1f77b4; stroke-width: 1.5; stroke-linecap: square"/>
    </g>
    <g id="text_22">
     <!-- Train Accuracy -->
     <g transform="translate(307.504375 281.826187) scale(0.1 -0.1)">
      <use xlink:href="#DejaVuSans-54"/>
      <use xlink:href="#DejaVuSans-72" x="46.333984"/>
      <use xlink:href="#DejaVuSans-61" x="87.447266"/>
      <use xlink:href="#DejaVuSans-69" x="148.726562"/>
      <use xlink:href="#DejaVuSans-6e" x="176.509766"/>
      <use xlink:href="#DejaVuSans-20" x="239.888672"/>
      <use xlink:href="#DejaVuSans-41" x="271.675781"/>
      <use xlink:href="#DejaVuSans-63" x="338.333984"/>
      <use xlink:href="#DejaVuSans-63" x="393.314453"/>
      <use xlink:href="#DejaVuSans-75" x="448.294922"/>
      <use xlink:href="#DejaVuSans-72" x="511.673828"/>
      <use xlink:href="#DejaVuSans-61" x="552.787109"/>
      <use xlink:href="#DejaVuSans-63" x="614.066406"/>
      <use xlink:href="#DejaVuSans-79" x="669.046875"/>
     </g>
    </g>
    <g id="line2d_22">
     <path d="M 279.504375 293.004312 
L 289.504375 293.004312 
L 299.504375 293.004312 
" style="fill: none; stroke: #ff7f0e; stroke-width: 1.5; stroke-linecap: square"/>
    </g>
    <g id="text_23">
     <!-- Validation Accuracy -->
     <g transform="translate(307.504375 296.504312) scale(0.1 -0.1)">
      <use xlink:href="#DejaVuSans-56"/>
      <use xlink:href="#DejaVuSans-61" x="60.658203"/>
      <use xlink:href="#DejaVuSans-6c" x="121.9375"/>
      <use xlink:href="#DejaVuSans-69" x="149.720703"/>
      <use xlink:href="#DejaVuSans-64" x="177.503906"/>
      <use xlink:href="#DejaVuSans-61" x="240.980469"/>
      <use xlink:href="#DejaVuSans-74" x="302.259766"/>
      <use xlink:href="#DejaVuSans-69" x="341.46875"/>
      <use xlink:href="#DejaVuSans-6f" x="369.251953"/>
      <use xlink:href="#DejaVuSans-6e" x="430.433594"/>
      <use xlink:href="#DejaVuSans-20" x="493.8125"/>
      <use xlink:href="#DejaVuSans-41" x="525.599609"/>
      <use xlink:href="#DejaVuSans-63" x="592.257812"/>
      <use xlink:href="#DejaVuSans-63" x="647.238281"/>
      <use xlink:href="#DejaVuSans-75" x="702.21875"/>
      <use xlink:href="#DejaVuSans-72" x="765.597656"/>
      <use xlink:href="#DejaVuSans-61" x="806.710938"/>
      <use xlink:href="#DejaVuSans-63" x="867.990234"/>
      <use xlink:href="#DejaVuSans-79" x="922.970703"/>
     </g>
    </g>
   </g>
  </g>
 </g>
 <defs>
  <clipPath id="p07f4a5f3b1">
   <rect x="57.6" y="41.472" width="357.12" height="266.112"/>
  </clipPath>
 </defs>
</svg>
