<?xml version="1.0" encoding="utf-8" standalone="no"?>
<!DOCTYPE svg PUBLIC "-//W3C//DTD SVG 1.1//EN"
  "http://www.w3.org/Graphics/SVG/1.1/DTD/svg11.dtd">
<svg height="345.6pt" version="1.1" viewBox="0 0 460.8 345.6" width="460.8pt" xmlns="http://www.w3.org/2000/svg" xmlns:xlink="http://www.w3.org/1999/xlink">
 <metadata>
  <rdf:RDF xmlns:cc="http://creativecommons.org/ns#" xmlns:dc="http://purl.org/dc/elements/1.1/" xmlns:rdf="http://www.w3.org/1999/02/22-rdf-syntax-ns#">
   <cc:Work>
    <dc:type rdf:resource="http://purl.org/dc/dcmitype/StillImage"/>
    <dc:date>2024-02-09T23:20:30.793066</dc:date>
    <dc:format>image/svg+xml</dc:format>
    <dc:creator>
     <cc:Agent>
      <dc:title>Matplotlib v3.4.3, https://matplotlib.org/</dc:title>
     </cc:Agent>
    </dc:creator>
   </cc:Work>
  </rdf:RDF>
 </metadata>
 <defs>
  <style type="text/css">*{stroke-linecap:butt;stroke-linejoin:round;}</style>
 </defs>
 <g id="figure_1">
  <g id="patch_1">
   <path d="M 0 345.6 
L 460.8 345.6 
L 460.8 0 
L 0 0 
z
" style="fill:#ffffff;"/>
  </g>
  <g id="axes_1">
   <g id="patch_2">
    <path d="M 57.6 307.584 
L 414.72 307.584 
L 414.72 41.472 
L 57.6 41.472 
z
" style="fill:#ffffff;"/>
   </g>
   <g id="matplotlib.axis_1">
    <g id="xtick_1">
     <g id="line2d_1">
      <defs>
       <path d="M 0 0 
L 0 3.5 
" id="m8fdc78db86" style="stroke:#000000;stroke-width:0.8;"/>
      </defs>
      <g>
       <use style="stroke:#000000;stroke-width:0.8;" x="73.832727" xlink:href="#m8fdc78db86" y="307.584"/>
      </g>
     </g>
     <g id="text_1">
      <!-- 1 -->
      <g transform="translate(70.651477 322.182437)scale(0.1 -0.1)">
       <defs>
        <path d="M 794 531 
L 1825 531 
L 1825 4091 
L 703 3866 
L 703 4441 
L 1819 4666 
L 2450 4666 
L 2450 531 
L 3481 531 
L 3481 0 
L 794 0 
L 794 531 
z
" id="DejaVuSans-31" transform="scale(0.015625)"/>
       </defs>
       <use xlink:href="#DejaVuSans-31"/>
      </g>
     </g>
    </g>
    <g id="xtick_2">
     <g id="line2d_2">
      <g>
       <use style="stroke:#000000;stroke-width:0.8;" x="109.710992" xlink:href="#m8fdc78db86" y="307.584"/>
      </g>
     </g>
     <g id="text_2">
      <!-- 42 -->
      <g transform="translate(103.348492 322.182437)scale(0.1 -0.1)">
       <defs>
        <path d="M 2419 4116 
L 825 1625 
L 2419 1625 
L 2419 4116 
z
M 2253 4666 
L 3047 4666 
L 3047 1625 
L 3713 1625 
L 3713 1100 
L 3047 1100 
L 3047 0 
L 2419 0 
L 2419 1100 
L 313 1100 
L 313 1709 
L 2253 4666 
z
" id="DejaVuSans-34" transform="scale(0.015625)"/>
        <path d="M 1228 531 
L 3431 531 
L 3431 0 
L 469 0 
L 469 531 
Q 828 903 1448 1529 
Q 2069 2156 2228 2338 
Q 2531 2678 2651 2914 
Q 2772 3150 2772 3378 
Q 2772 3750 2511 3984 
Q 2250 4219 1831 4219 
Q 1534 4219 1204 4116 
Q 875 4013 500 3803 
L 500 4441 
Q 881 4594 1212 4672 
Q 1544 4750 1819 4750 
Q 2544 4750 2975 4387 
Q 3406 4025 3406 3419 
Q 3406 3131 3298 2873 
Q 3191 2616 2906 2266 
Q 2828 2175 2409 1742 
Q 1991 1309 1228 531 
z
" id="DejaVuSans-32" transform="scale(0.015625)"/>
       </defs>
       <use xlink:href="#DejaVuSans-34"/>
       <use x="63.623047" xlink:href="#DejaVuSans-32"/>
      </g>
     </g>
    </g>
    <g id="xtick_3">
     <g id="line2d_3">
      <g>
       <use style="stroke:#000000;stroke-width:0.8;" x="145.589258" xlink:href="#m8fdc78db86" y="307.584"/>
      </g>
     </g>
     <g id="text_3">
      <!-- 83 -->
      <g transform="translate(139.226758 322.182437)scale(0.1 -0.1)">
       <defs>
        <path d="M 2034 2216 
Q 1584 2216 1326 1975 
Q 1069 1734 1069 1313 
Q 1069 891 1326 650 
Q 1584 409 2034 409 
Q 2484 409 2743 651 
Q 3003 894 3003 1313 
Q 3003 1734 2745 1975 
Q 2488 2216 2034 2216 
z
M 1403 2484 
Q 997 2584 770 2862 
Q 544 3141 544 3541 
Q 544 4100 942 4425 
Q 1341 4750 2034 4750 
Q 2731 4750 3128 4425 
Q 3525 4100 3525 3541 
Q 3525 3141 3298 2862 
Q 3072 2584 2669 2484 
Q 3125 2378 3379 2068 
Q 3634 1759 3634 1313 
Q 3634 634 3220 271 
Q 2806 -91 2034 -91 
Q 1263 -91 848 271 
Q 434 634 434 1313 
Q 434 1759 690 2068 
Q 947 2378 1403 2484 
z
M 1172 3481 
Q 1172 3119 1398 2916 
Q 1625 2713 2034 2713 
Q 2441 2713 2670 2916 
Q 2900 3119 2900 3481 
Q 2900 3844 2670 4047 
Q 2441 4250 2034 4250 
Q 1625 4250 1398 4047 
Q 1172 3844 1172 3481 
z
" id="DejaVuSans-38" transform="scale(0.015625)"/>
        <path d="M 2597 2516 
Q 3050 2419 3304 2112 
Q 3559 1806 3559 1356 
Q 3559 666 3084 287 
Q 2609 -91 1734 -91 
Q 1441 -91 1130 -33 
Q 819 25 488 141 
L 488 750 
Q 750 597 1062 519 
Q 1375 441 1716 441 
Q 2309 441 2620 675 
Q 2931 909 2931 1356 
Q 2931 1769 2642 2001 
Q 2353 2234 1838 2234 
L 1294 2234 
L 1294 2753 
L 1863 2753 
Q 2328 2753 2575 2939 
Q 2822 3125 2822 3475 
Q 2822 3834 2567 4026 
Q 2313 4219 1838 4219 
Q 1578 4219 1281 4162 
Q 984 4106 628 3988 
L 628 4550 
Q 988 4650 1302 4700 
Q 1616 4750 1894 4750 
Q 2613 4750 3031 4423 
Q 3450 4097 3450 3541 
Q 3450 3153 3228 2886 
Q 3006 2619 2597 2516 
z
" id="DejaVuSans-33" transform="scale(0.015625)"/>
       </defs>
       <use xlink:href="#DejaVuSans-38"/>
       <use x="63.623047" xlink:href="#DejaVuSans-33"/>
      </g>
     </g>
    </g>
    <g id="xtick_4">
     <g id="line2d_4">
      <g>
       <use style="stroke:#000000;stroke-width:0.8;" x="181.467523" xlink:href="#m8fdc78db86" y="307.584"/>
      </g>
     </g>
     <g id="text_4">
      <!-- 124 -->
      <g transform="translate(171.923773 322.182437)scale(0.1 -0.1)">
       <use xlink:href="#DejaVuSans-31"/>
       <use x="63.623047" xlink:href="#DejaVuSans-32"/>
       <use x="127.246094" xlink:href="#DejaVuSans-34"/>
      </g>
     </g>
    </g>
    <g id="xtick_5">
     <g id="line2d_5">
      <g>
       <use style="stroke:#000000;stroke-width:0.8;" x="217.345788" xlink:href="#m8fdc78db86" y="307.584"/>
      </g>
     </g>
     <g id="text_5">
      <!-- 165 -->
      <g transform="translate(207.802038 322.182437)scale(0.1 -0.1)">
       <defs>
        <path d="M 2113 2584 
Q 1688 2584 1439 2293 
Q 1191 2003 1191 1497 
Q 1191 994 1439 701 
Q 1688 409 2113 409 
Q 2538 409 2786 701 
Q 3034 994 3034 1497 
Q 3034 2003 2786 2293 
Q 2538 2584 2113 2584 
z
M 3366 4563 
L 3366 3988 
Q 3128 4100 2886 4159 
Q 2644 4219 2406 4219 
Q 1781 4219 1451 3797 
Q 1122 3375 1075 2522 
Q 1259 2794 1537 2939 
Q 1816 3084 2150 3084 
Q 2853 3084 3261 2657 
Q 3669 2231 3669 1497 
Q 3669 778 3244 343 
Q 2819 -91 2113 -91 
Q 1303 -91 875 529 
Q 447 1150 447 2328 
Q 447 3434 972 4092 
Q 1497 4750 2381 4750 
Q 2619 4750 2861 4703 
Q 3103 4656 3366 4563 
z
" id="DejaVuSans-36" transform="scale(0.015625)"/>
        <path d="M 691 4666 
L 3169 4666 
L 3169 4134 
L 1269 4134 
L 1269 2991 
Q 1406 3038 1543 3061 
Q 1681 3084 1819 3084 
Q 2600 3084 3056 2656 
Q 3513 2228 3513 1497 
Q 3513 744 3044 326 
Q 2575 -91 1722 -91 
Q 1428 -91 1123 -41 
Q 819 9 494 109 
L 494 744 
Q 775 591 1075 516 
Q 1375 441 1709 441 
Q 2250 441 2565 725 
Q 2881 1009 2881 1497 
Q 2881 1984 2565 2268 
Q 2250 2553 1709 2553 
Q 1456 2553 1204 2497 
Q 953 2441 691 2322 
L 691 4666 
z
" id="DejaVuSans-35" transform="scale(0.015625)"/>
       </defs>
       <use xlink:href="#DejaVuSans-31"/>
       <use x="63.623047" xlink:href="#DejaVuSans-36"/>
       <use x="127.246094" xlink:href="#DejaVuSans-35"/>
      </g>
     </g>
    </g>
    <g id="xtick_6">
     <g id="line2d_6">
      <g>
       <use style="stroke:#000000;stroke-width:0.8;" x="254.099133" xlink:href="#m8fdc78db86" y="307.584"/>
      </g>
     </g>
     <g id="text_6">
      <!-- 207 -->
      <g transform="translate(244.555383 322.182437)scale(0.1 -0.1)">
       <defs>
        <path d="M 2034 4250 
Q 1547 4250 1301 3770 
Q 1056 3291 1056 2328 
Q 1056 1369 1301 889 
Q 1547 409 2034 409 
Q 2525 409 2770 889 
Q 3016 1369 3016 2328 
Q 3016 3291 2770 3770 
Q 2525 4250 2034 4250 
z
M 2034 4750 
Q 2819 4750 3233 4129 
Q 3647 3509 3647 2328 
Q 3647 1150 3233 529 
Q 2819 -91 2034 -91 
Q 1250 -91 836 529 
Q 422 1150 422 2328 
Q 422 3509 836 4129 
Q 1250 4750 2034 4750 
z
" id="DejaVuSans-30" transform="scale(0.015625)"/>
        <path d="M 525 4666 
L 3525 4666 
L 3525 4397 
L 1831 0 
L 1172 0 
L 2766 4134 
L 525 4134 
L 525 4666 
z
" id="DejaVuSans-37" transform="scale(0.015625)"/>
       </defs>
       <use xlink:href="#DejaVuSans-32"/>
       <use x="63.623047" xlink:href="#DejaVuSans-30"/>
       <use x="127.246094" xlink:href="#DejaVuSans-37"/>
      </g>
     </g>
    </g>
    <g id="xtick_7">
     <g id="line2d_7">
      <g>
       <use style="stroke:#000000;stroke-width:0.8;" x="289.977398" xlink:href="#m8fdc78db86" y="307.584"/>
      </g>
     </g>
     <g id="text_7">
      <!-- 248 -->
      <g transform="translate(280.433648 322.182437)scale(0.1 -0.1)">
       <use xlink:href="#DejaVuSans-32"/>
       <use x="63.623047" xlink:href="#DejaVuSans-34"/>
       <use x="127.246094" xlink:href="#DejaVuSans-38"/>
      </g>
     </g>
    </g>
    <g id="xtick_8">
     <g id="line2d_8">
      <g>
       <use style="stroke:#000000;stroke-width:0.8;" x="325.855663" xlink:href="#m8fdc78db86" y="307.584"/>
      </g>
     </g>
     <g id="text_8">
      <!-- 289 -->
      <g transform="translate(316.311913 322.182437)scale(0.1 -0.1)">
       <defs>
        <path d="M 703 97 
L 703 672 
Q 941 559 1184 500 
Q 1428 441 1663 441 
Q 2288 441 2617 861 
Q 2947 1281 2994 2138 
Q 2813 1869 2534 1725 
Q 2256 1581 1919 1581 
Q 1219 1581 811 2004 
Q 403 2428 403 3163 
Q 403 3881 828 4315 
Q 1253 4750 1959 4750 
Q 2769 4750 3195 4129 
Q 3622 3509 3622 2328 
Q 3622 1225 3098 567 
Q 2575 -91 1691 -91 
Q 1453 -91 1209 -44 
Q 966 3 703 97 
z
M 1959 2075 
Q 2384 2075 2632 2365 
Q 2881 2656 2881 3163 
Q 2881 3666 2632 3958 
Q 2384 4250 1959 4250 
Q 1534 4250 1286 3958 
Q 1038 3666 1038 3163 
Q 1038 2656 1286 2365 
Q 1534 2075 1959 2075 
z
" id="DejaVuSans-39" transform="scale(0.015625)"/>
       </defs>
       <use xlink:href="#DejaVuSans-32"/>
       <use x="63.623047" xlink:href="#DejaVuSans-38"/>
       <use x="127.246094" xlink:href="#DejaVuSans-39"/>
      </g>
     </g>
    </g>
    <g id="xtick_9">
     <g id="line2d_9">
      <g>
       <use style="stroke:#000000;stroke-width:0.8;" x="361.733928" xlink:href="#m8fdc78db86" y="307.584"/>
      </g>
     </g>
     <g id="text_9">
      <!-- 330 -->
      <g transform="translate(352.190178 322.182437)scale(0.1 -0.1)">
       <use xlink:href="#DejaVuSans-33"/>
       <use x="63.623047" xlink:href="#DejaVuSans-33"/>
       <use x="127.246094" xlink:href="#DejaVuSans-30"/>
      </g>
     </g>
    </g>
    <g id="xtick_10">
     <g id="line2d_10">
      <g>
       <use style="stroke:#000000;stroke-width:0.8;" x="398.487273" xlink:href="#m8fdc78db86" y="307.584"/>
      </g>
     </g>
     <g id="text_10">
      <!-- 372 -->
      <g transform="translate(388.943523 322.182437)scale(0.1 -0.1)">
       <use xlink:href="#DejaVuSans-33"/>
       <use x="63.623047" xlink:href="#DejaVuSans-37"/>
       <use x="127.246094" xlink:href="#DejaVuSans-32"/>
      </g>
     </g>
    </g>
    <g id="text_11">
     <!-- Epochs -->
     <g transform="translate(218.244375 335.860562)scale(0.1 -0.1)">
      <defs>
       <path d="M 628 4666 
L 3578 4666 
L 3578 4134 
L 1259 4134 
L 1259 2753 
L 3481 2753 
L 3481 2222 
L 1259 2222 
L 1259 531 
L 3634 531 
L 3634 0 
L 628 0 
L 628 4666 
z
" id="DejaVuSans-45" transform="scale(0.015625)"/>
       <path d="M 1159 525 
L 1159 -1331 
L 581 -1331 
L 581 3500 
L 1159 3500 
L 1159 2969 
Q 1341 3281 1617 3432 
Q 1894 3584 2278 3584 
Q 2916 3584 3314 3078 
Q 3713 2572 3713 1747 
Q 3713 922 3314 415 
Q 2916 -91 2278 -91 
Q 1894 -91 1617 61 
Q 1341 213 1159 525 
z
M 3116 1747 
Q 3116 2381 2855 2742 
Q 2594 3103 2138 3103 
Q 1681 3103 1420 2742 
Q 1159 2381 1159 1747 
Q 1159 1113 1420 752 
Q 1681 391 2138 391 
Q 2594 391 2855 752 
Q 3116 1113 3116 1747 
z
" id="DejaVuSans-70" transform="scale(0.015625)"/>
       <path d="M 1959 3097 
Q 1497 3097 1228 2736 
Q 959 2375 959 1747 
Q 959 1119 1226 758 
Q 1494 397 1959 397 
Q 2419 397 2687 759 
Q 2956 1122 2956 1747 
Q 2956 2369 2687 2733 
Q 2419 3097 1959 3097 
z
M 1959 3584 
Q 2709 3584 3137 3096 
Q 3566 2609 3566 1747 
Q 3566 888 3137 398 
Q 2709 -91 1959 -91 
Q 1206 -91 779 398 
Q 353 888 353 1747 
Q 353 2609 779 3096 
Q 1206 3584 1959 3584 
z
" id="DejaVuSans-6f" transform="scale(0.015625)"/>
       <path d="M 3122 3366 
L 3122 2828 
Q 2878 2963 2633 3030 
Q 2388 3097 2138 3097 
Q 1578 3097 1268 2742 
Q 959 2388 959 1747 
Q 959 1106 1268 751 
Q 1578 397 2138 397 
Q 2388 397 2633 464 
Q 2878 531 3122 666 
L 3122 134 
Q 2881 22 2623 -34 
Q 2366 -91 2075 -91 
Q 1284 -91 818 406 
Q 353 903 353 1747 
Q 353 2603 823 3093 
Q 1294 3584 2113 3584 
Q 2378 3584 2631 3529 
Q 2884 3475 3122 3366 
z
" id="DejaVuSans-63" transform="scale(0.015625)"/>
       <path d="M 3513 2113 
L 3513 0 
L 2938 0 
L 2938 2094 
Q 2938 2591 2744 2837 
Q 2550 3084 2163 3084 
Q 1697 3084 1428 2787 
Q 1159 2491 1159 1978 
L 1159 0 
L 581 0 
L 581 4863 
L 1159 4863 
L 1159 2956 
Q 1366 3272 1645 3428 
Q 1925 3584 2291 3584 
Q 2894 3584 3203 3211 
Q 3513 2838 3513 2113 
z
" id="DejaVuSans-68" transform="scale(0.015625)"/>
       <path d="M 2834 3397 
L 2834 2853 
Q 2591 2978 2328 3040 
Q 2066 3103 1784 3103 
Q 1356 3103 1142 2972 
Q 928 2841 928 2578 
Q 928 2378 1081 2264 
Q 1234 2150 1697 2047 
L 1894 2003 
Q 2506 1872 2764 1633 
Q 3022 1394 3022 966 
Q 3022 478 2636 193 
Q 2250 -91 1575 -91 
Q 1294 -91 989 -36 
Q 684 19 347 128 
L 347 722 
Q 666 556 975 473 
Q 1284 391 1588 391 
Q 1994 391 2212 530 
Q 2431 669 2431 922 
Q 2431 1156 2273 1281 
Q 2116 1406 1581 1522 
L 1381 1569 
Q 847 1681 609 1914 
Q 372 2147 372 2553 
Q 372 3047 722 3315 
Q 1072 3584 1716 3584 
Q 2034 3584 2315 3537 
Q 2597 3491 2834 3397 
z
" id="DejaVuSans-73" transform="scale(0.015625)"/>
      </defs>
      <use xlink:href="#DejaVuSans-45"/>
      <use x="63.183594" xlink:href="#DejaVuSans-70"/>
      <use x="126.660156" xlink:href="#DejaVuSans-6f"/>
      <use x="187.841797" xlink:href="#DejaVuSans-63"/>
      <use x="242.822266" xlink:href="#DejaVuSans-68"/>
      <use x="306.201172" xlink:href="#DejaVuSans-73"/>
     </g>
    </g>
   </g>
   <g id="matplotlib.axis_2">
    <g id="ytick_1">
     <g id="line2d_11">
      <defs>
       <path d="M 0 0 
L -3.5 0 
" id="ma32ca917ea" style="stroke:#000000;stroke-width:0.8;"/>
      </defs>
      <g>
       <use style="stroke:#000000;stroke-width:0.8;" x="57.6" xlink:href="#ma32ca917ea" y="278.444062"/>
      </g>
     </g>
     <g id="text_12">
      <!-- 10 -->
      <g transform="translate(37.875 282.243281)scale(0.1 -0.1)">
       <use xlink:href="#DejaVuSans-31"/>
       <use x="63.623047" xlink:href="#DejaVuSans-30"/>
      </g>
     </g>
    </g>
    <g id="ytick_2">
     <g id="line2d_12">
      <g>
       <use style="stroke:#000000;stroke-width:0.8;" x="57.6" xlink:href="#ma32ca917ea" y="248.235026"/>
      </g>
     </g>
     <g id="text_13">
      <!-- 20 -->
      <g transform="translate(37.875 252.034245)scale(0.1 -0.1)">
       <use xlink:href="#DejaVuSans-32"/>
       <use x="63.623047" xlink:href="#DejaVuSans-30"/>
      </g>
     </g>
    </g>
    <g id="ytick_3">
     <g id="line2d_13">
      <g>
       <use style="stroke:#000000;stroke-width:0.8;" x="57.6" xlink:href="#ma32ca917ea" y="218.025991"/>
      </g>
     </g>
     <g id="text_14">
      <!-- 30 -->
      <g transform="translate(37.875 221.825209)scale(0.1 -0.1)">
       <use xlink:href="#DejaVuSans-33"/>
       <use x="63.623047" xlink:href="#DejaVuSans-30"/>
      </g>
     </g>
    </g>
    <g id="ytick_4">
     <g id="line2d_14">
      <g>
       <use style="stroke:#000000;stroke-width:0.8;" x="57.6" xlink:href="#ma32ca917ea" y="187.816955"/>
      </g>
     </g>
     <g id="text_15">
      <!-- 40 -->
      <g transform="translate(37.875 191.616174)scale(0.1 -0.1)">
       <use xlink:href="#DejaVuSans-34"/>
       <use x="63.623047" xlink:href="#DejaVuSans-30"/>
      </g>
     </g>
    </g>
    <g id="ytick_5">
     <g id="line2d_15">
      <g>
       <use style="stroke:#000000;stroke-width:0.8;" x="57.6" xlink:href="#ma32ca917ea" y="157.607919"/>
      </g>
     </g>
     <g id="text_16">
      <!-- 50 -->
      <g transform="translate(37.875 161.407138)scale(0.1 -0.1)">
       <use xlink:href="#DejaVuSans-35"/>
       <use x="63.623047" xlink:href="#DejaVuSans-30"/>
      </g>
     </g>
    </g>
    <g id="ytick_6">
     <g id="line2d_16">
      <g>
       <use style="stroke:#000000;stroke-width:0.8;" x="57.6" xlink:href="#ma32ca917ea" y="127.398883"/>
      </g>
     </g>
     <g id="text_17">
      <!-- 60 -->
      <g transform="translate(37.875 131.198102)scale(0.1 -0.1)">
       <use xlink:href="#DejaVuSans-36"/>
       <use x="63.623047" xlink:href="#DejaVuSans-30"/>
      </g>
     </g>
    </g>
    <g id="ytick_7">
     <g id="line2d_17">
      <g>
       <use style="stroke:#000000;stroke-width:0.8;" x="57.6" xlink:href="#ma32ca917ea" y="97.189848"/>
      </g>
     </g>
     <g id="text_18">
      <!-- 70 -->
      <g transform="translate(37.875 100.989066)scale(0.1 -0.1)">
       <use xlink:href="#DejaVuSans-37"/>
       <use x="63.623047" xlink:href="#DejaVuSans-30"/>
      </g>
     </g>
    </g>
    <g id="ytick_8">
     <g id="line2d_18">
      <g>
       <use style="stroke:#000000;stroke-width:0.8;" x="57.6" xlink:href="#ma32ca917ea" y="66.980812"/>
      </g>
     </g>
     <g id="text_19">
      <!-- 80 -->
      <g transform="translate(37.875 70.780031)scale(0.1 -0.1)">
       <use xlink:href="#DejaVuSans-38"/>
       <use x="63.623047" xlink:href="#DejaVuSans-30"/>
      </g>
     </g>
    </g>
    <g id="text_20">
     <!-- Accuracy -->
     <g transform="translate(31.795312 197.356125)rotate(-90)scale(0.1 -0.1)">
      <defs>
       <path d="M 2188 4044 
L 1331 1722 
L 3047 1722 
L 2188 4044 
z
M 1831 4666 
L 2547 4666 
L 4325 0 
L 3669 0 
L 3244 1197 
L 1141 1197 
L 716 0 
L 50 0 
L 1831 4666 
z
" id="DejaVuSans-41" transform="scale(0.015625)"/>
       <path d="M 544 1381 
L 544 3500 
L 1119 3500 
L 1119 1403 
Q 1119 906 1312 657 
Q 1506 409 1894 409 
Q 2359 409 2629 706 
Q 2900 1003 2900 1516 
L 2900 3500 
L 3475 3500 
L 3475 0 
L 2900 0 
L 2900 538 
Q 2691 219 2414 64 
Q 2138 -91 1772 -91 
Q 1169 -91 856 284 
Q 544 659 544 1381 
z
M 1991 3584 
L 1991 3584 
z
" id="DejaVuSans-75" transform="scale(0.015625)"/>
       <path d="M 2631 2963 
Q 2534 3019 2420 3045 
Q 2306 3072 2169 3072 
Q 1681 3072 1420 2755 
Q 1159 2438 1159 1844 
L 1159 0 
L 581 0 
L 581 3500 
L 1159 3500 
L 1159 2956 
Q 1341 3275 1631 3429 
Q 1922 3584 2338 3584 
Q 2397 3584 2469 3576 
Q 2541 3569 2628 3553 
L 2631 2963 
z
" id="DejaVuSans-72" transform="scale(0.015625)"/>
       <path d="M 2194 1759 
Q 1497 1759 1228 1600 
Q 959 1441 959 1056 
Q 959 750 1161 570 
Q 1363 391 1709 391 
Q 2188 391 2477 730 
Q 2766 1069 2766 1631 
L 2766 1759 
L 2194 1759 
z
M 3341 1997 
L 3341 0 
L 2766 0 
L 2766 531 
Q 2569 213 2275 61 
Q 1981 -91 1556 -91 
Q 1019 -91 701 211 
Q 384 513 384 1019 
Q 384 1609 779 1909 
Q 1175 2209 1959 2209 
L 2766 2209 
L 2766 2266 
Q 2766 2663 2505 2880 
Q 2244 3097 1772 3097 
Q 1472 3097 1187 3025 
Q 903 2953 641 2809 
L 641 3341 
Q 956 3463 1253 3523 
Q 1550 3584 1831 3584 
Q 2591 3584 2966 3190 
Q 3341 2797 3341 1997 
z
" id="DejaVuSans-61" transform="scale(0.015625)"/>
       <path d="M 2059 -325 
Q 1816 -950 1584 -1140 
Q 1353 -1331 966 -1331 
L 506 -1331 
L 506 -850 
L 844 -850 
Q 1081 -850 1212 -737 
Q 1344 -625 1503 -206 
L 1606 56 
L 191 3500 
L 800 3500 
L 1894 763 
L 2988 3500 
L 3597 3500 
L 2059 -325 
z
" id="DejaVuSans-79" transform="scale(0.015625)"/>
      </defs>
      <use xlink:href="#DejaVuSans-41"/>
      <use x="66.658203" xlink:href="#DejaVuSans-63"/>
      <use x="121.638672" xlink:href="#DejaVuSans-63"/>
      <use x="176.619141" xlink:href="#DejaVuSans-75"/>
      <use x="239.998047" xlink:href="#DejaVuSans-72"/>
      <use x="281.111328" xlink:href="#DejaVuSans-61"/>
      <use x="342.390625" xlink:href="#DejaVuSans-63"/>
      <use x="397.371094" xlink:href="#DejaVuSans-79"/>
     </g>
    </g>
   </g>
   <g id="line2d_19">
    <path clip-path="url(#pa481b390a6)" d="M 73.832727 295.488 
L 74.707807 287.669902 
L 75.582887 283.633974 
L 76.457966 278.317184 
L 77.333046 273.930832 
L 78.208125 264.874163 
L 79.083205 257.267528 
L 79.958285 254.476213 
L 81.708444 237.099976 
L 82.583524 237.438317 
L 83.458603 232.248405 
L 84.333683 256.723765 
L 86.083842 238.755431 
L 86.958922 233.53531 
L 87.834001 230.701702 
L 88.709081 224.236968 
L 89.584161 218.738924 
L 90.45924 216.128863 
L 91.33432 211.525006 
L 93.084479 206.486139 
L 93.959559 199.538061 
L 94.834639 193.623131 
L 95.709718 192.191223 
L 96.584798 194.740866 
L 97.459877 187.128189 
L 98.334957 188.505721 
L 99.210037 183.448728 
L 100.085116 185.925869 
L 100.960196 175.467501 
L 101.835276 181.406597 
L 102.710355 170.98448 
L 103.585435 175.612504 
L 104.460515 167.522525 
L 105.335594 196.982376 
L 107.085753 199.115134 
L 107.960833 196.565492 
L 108.835913 188.040502 
L 109.710992 185.285438 
L 110.586072 184.874595 
L 111.461152 187.877373 
L 112.336231 182.01682 
L 113.211311 186.753597 
L 114.086391 183.442686 
L 114.96147 173.745586 
L 115.83655 169.685492 
L 116.71163 168.785262 
L 117.586709 172.102214 
L 118.461789 178.820704 
L 119.336868 165.015175 
L 120.211948 169.993624 
L 121.962107 158.44773 
L 122.837187 155.843711 
L 123.712267 170.150711 
L 124.587346 159.221082 
L 125.462426 156.133718 
L 126.337506 149.016469 
L 127.212585 158.441688 
L 128.087665 143.445923 
L 128.962744 150.12212 
L 129.837824 151.566112 
L 130.712904 144.654285 
L 131.587983 154.508472 
L 132.463063 140.618357 
L 133.338143 136.739517 
L 134.213222 139.772504 
L 135.088302 134.890724 
L 135.963382 135.627825 
L 136.838461 128.401823 
L 137.713541 133.33798 
L 138.58862 121.574581 
L 139.4637 133.609861 
L 140.33878 129.283927 
L 141.213859 131.253556 
L 142.088939 127.151169 
L 142.964019 129.066422 
L 143.839098 127.477427 
L 144.714178 131.096469 
L 145.589258 124.456523 
L 146.464337 135.01156 
L 147.339417 155.982673 
L 148.214496 162.761581 
L 149.089576 160.121311 
L 149.964656 158.000637 
L 150.839735 166.048324 
L 151.714815 149.125222 
L 152.589895 149.101055 
L 153.464974 146.001608 
L 154.340054 155.916213 
L 155.215134 156.484143 
L 156.090213 154.037211 
L 156.965293 144.599908 
L 157.840372 147.826233 
L 158.715452 154.472221 
L 159.590532 144.176982 
L 160.465611 142.207353 
L 161.340691 151.294231 
L 162.215771 145.590765 
L 163.09085 148.321661 
L 163.96593 138.582268 
L 164.84101 139.663752 
L 165.716089 142.23152 
L 166.591169 145.856604 
L 167.466248 135.597616 
L 168.341328 137.972046 
L 169.216408 137.204736 
L 170.091487 136.008459 
L 170.966567 142.775283 
L 172.716726 130.981675 
L 173.591806 135.458654 
L 174.466886 144.545532 
L 175.341965 140.183347 
L 176.217045 126.849079 
L 177.092124 141.059409 
L 178.842284 125.610508 
L 179.717363 129.936442 
L 180.592443 128.432032 
L 181.467523 122.43856 
L 182.342602 119.677454 
L 183.217682 132.26858 
L 184.092762 136.177629 
L 184.967841 121.145613 
L 185.842921 123.94297 
L 186.718 116.064453 
L 187.59308 122.178762 
L 188.46816 124.275269 
L 189.343239 117.15802 
L 190.218319 119.242444 
L 191.093399 117.254689 
L 191.968478 113.91357 
L 192.843558 117.260731 
L 193.718638 125.096955 
L 194.593717 116.233624 
L 195.468797 110.977252 
L 196.343877 110.789955 
L 197.218956 123.97922 
L 198.094036 114.747339 
L 198.969115 118.988688 
L 199.844195 102.687892 
L 200.719275 130.214365 
L 201.594354 110.63891 
L 202.469434 116.203415 
L 203.344514 106.252558 
L 204.219593 108.584696 
L 205.094673 106.645276 
L 205.969753 109.146584 
L 206.844832 105.013988 
L 208.594991 108.469902 
L 209.470071 104.113759 
L 210.345151 108.826368 
L 211.22023 92.664534 
L 212.09531 103.739167 
L 212.97039 102.542889 
L 213.845469 110.850374 
L 214.720549 96.670252 
L 215.595629 92.833705 
L 216.470708 104.554811 
L 217.345788 96.356078 
L 218.220867 98.253206 
L 219.095947 98.905721 
L 219.971027 86.272302 
L 220.846106 88.725276 
L 221.721186 86.242093 
L 222.596266 98.313624 
L 223.471345 98.005492 
L 224.346425 94.978546 
L 225.221505 88.580272 
L 226.096584 100.259086 
L 226.971664 96.609834 
L 227.846743 100.67597 
L 228.721823 97.371102 
L 229.596903 100.754514 
L 230.471982 93.631223 
L 231.347062 131.821486 
L 232.222142 139.452289 
L 233.097221 137.682039 
L 233.972301 129.76123 
L 234.847381 128.945586 
L 235.72246 129.82769 
L 236.59754 131.404601 
L 237.472619 131.078344 
L 238.347699 131.483145 
L 239.222779 130.486247 
L 240.097858 124.269227 
L 240.972938 121.792086 
L 241.848018 134.872599 
L 242.723097 134.884682 
L 243.598177 124.897575 
L 244.473257 117.907204 
L 245.348336 127.181378 
L 246.223416 122.474811 
L 247.098495 131.338142 
L 247.973575 130.250616 
L 248.848655 127.223671 
L 249.723734 128.111817 
L 250.598814 119.115566 
L 251.473894 122.076051 
L 253.224053 130.147906 
L 254.099133 123.67713 
L 255.849292 127.592221 
L 256.724371 108.953246 
L 257.599451 121.955215 
L 258.474531 117.006975 
L 259.34961 125.121122 
L 260.22469 134.461756 
L 261.09977 126.420111 
L 261.974849 120.73477 
L 262.849929 117.719908 
L 263.725009 129.241635 
L 264.600088 118.614096 
L 265.475168 126.55303 
L 266.350247 119.018897 
L 267.225327 117.876995 
L 268.100407 118.414716 
L 268.975486 114.801715 
L 269.850566 119.876833 
L 270.725646 112.173529 
L 271.600725 118.239504 
L 272.475805 114.451291 
L 273.350885 112.668958 
L 274.225964 115.768405 
L 275.101044 119.562659 
L 275.976123 122.142511 
L 276.851203 113.454392 
L 277.726283 115.007137 
L 278.601362 114.825883 
L 279.476442 117.435943 
L 280.351522 130.06332 
L 281.226601 111.376011 
L 282.101681 120.311844 
L 282.976761 108.977413 
L 283.85184 115.828823 
L 284.72692 124.740488 
L 285.602 108.083226 
L 286.477079 114.729214 
L 287.352159 112.813961 
L 288.227238 119.351196 
L 289.102318 112.258115 
L 289.977398 117.949497 
L 290.852477 126.788661 
L 291.727557 106.868823 
L 292.602637 115.659652 
L 293.477716 112.608539 
L 294.352796 118.233462 
L 295.227876 113.653772 
L 296.102955 105.708796 
L 296.978035 102.778519 
L 297.853114 101.866206 
L 298.728194 109.231169 
L 299.603274 113.683981 
L 300.478353 109.484925 
L 301.353433 120.982484 
L 302.228513 96.410454 
L 303.103592 97.36506 
L 303.978672 96.881715 
L 304.853752 104.790441 
L 305.728831 99.884494 
L 306.603911 106.500272 
L 307.47899 98.271331 
L 308.35407 103.594163 
L 309.22915 103.866045 
L 310.104229 106.186098 
L 310.979309 99.515943 
L 311.854389 96.023779 
L 312.729468 106.578816 
L 313.604548 105.297953 
L 314.479628 112.088944 
L 315.354707 89.311331 
L 316.229787 100.083873 
L 317.104866 106.32506 
L 317.979946 107.370293 
L 318.855026 92.827663 
L 319.730105 102.778519 
L 320.605185 102.603307 
L 321.480265 94.748958 
L 322.355344 100.60951 
L 323.230424 94.477076 
L 324.105504 105.932343 
L 324.980583 100.917643 
L 325.855663 101.014312 
L 326.730742 104.331264 
L 327.605822 102.542889 
L 328.480902 92.592032 
L 329.355981 92.833705 
L 330.231061 106.403604 
L 331.106141 94.277697 
L 331.98122 99.848243 
L 332.8563 97.612774 
L 333.73138 106.39152 
L 334.606459 99.37094 
L 335.481539 107.237373 
L 336.356618 98.911763 
L 337.231698 106.784237 
L 338.106778 103.769376 
L 338.981857 92.169106 
L 339.856937 86.961068 
L 340.732017 88.852154 
L 341.607096 89.262997 
L 342.482176 100.1745 
L 343.357256 84.272464 
L 344.232335 88.731318 
L 345.107415 94.996672 
L 345.982494 87.897548 
L 346.857574 78.152113 
L 347.732654 97.854446 
L 348.607733 97.588607 
L 349.482813 89.232788 
L 350.357893 88.791736 
L 351.232972 95.371264 
L 352.983132 81.928243 
L 353.858211 84.864561 
L 354.733291 77.475431 
L 355.60837 97.093179 
L 356.48345 90.060515 
L 357.35853 98.374042 
L 358.233609 82.109497 
L 359.108689 76.87125 
L 359.983769 86.707312 
L 360.858848 84.320798 
L 361.733928 90.066557 
L 362.609008 94.742916 
L 363.484087 88.090886 
L 364.359167 86.278344 
L 365.234247 85.970212 
L 366.109326 79.874028 
L 366.984406 88.133179 
L 367.859485 84.556429 
L 368.734565 85.227069 
L 369.609645 87.420245 
L 370.484724 69.560664 
L 371.359804 90.27802 
L 372.234884 79.396726 
L 373.109963 91.202417 
L 373.985043 87.226908 
L 374.860123 72.780947 
L 375.735202 78.520664 
L 376.610282 88.501729 
L 377.485361 76.484575 
L 378.360441 69.905047 
L 379.235521 79.432976 
L 380.1106 77.034379 
L 380.98568 80.997804 
L 381.86076 93.631223 
L 382.735839 80.611129 
L 383.610919 73.149497 
L 384.485999 87.613583 
L 385.361078 75.795808 
L 386.236158 80.502376 
L 387.111237 80.07945 
L 387.986317 86.96711 
L 388.861397 82.907016 
L 389.736476 74.925788 
L 390.611556 89.64363 
L 391.486636 86.03063 
L 392.361715 87.245033 
L 393.236795 81.759072 
L 394.111875 70.696523 
L 394.986954 82.441796 
L 395.862034 77.457305 
L 396.737113 81.106557 
L 397.612193 88.109011 
L 398.487273 78.74421 
L 398.487273 78.74421 
" style="fill:none;stroke:#1f77b4;stroke-linecap:square;stroke-width:1.5;"/>
   </g>
   <g id="line2d_20">
    <path clip-path="url(#pa481b390a6)" d="M 73.832727 287.627609 
L 74.707807 278.625316 
L 75.582887 274.154379 
L 76.457966 259.472788 
L 77.333046 253.76328 
L 78.208125 240.833813 
L 79.083205 236.21183 
L 79.958285 222.043792 
L 80.833364 218.841635 
L 81.708444 222.345883 
L 82.583524 230.623158 
L 83.458603 225.125114 
L 84.333683 245.818303 
L 86.083842 221.922956 
L 86.958922 238.054581 
L 87.834001 238.175417 
L 88.709081 235.094096 
L 89.584161 214.58216 
L 90.45924 218.025991 
L 91.33432 211.712302 
L 92.2094 196.335903 
L 93.084479 202.528755 
L 93.959559 202.619382 
L 94.834639 209.416415 
L 95.709718 176.216685 
L 96.584798 177.545883 
L 97.459877 169.600906 
L 98.334957 170.023833 
L 99.210037 156.188094 
L 100.085116 146.853502 
L 100.960196 148.937926 
L 101.835276 147.518101 
L 102.710355 141.355458 
L 103.585435 142.624237 
L 104.460515 142.745073 
L 105.335594 173.588499 
L 106.210674 179.267798 
L 107.085753 182.560583 
L 107.960833 178.301109 
L 108.835913 166.700839 
L 109.710992 171.564494 
L 110.586072 168.875889 
L 111.461152 171.35303 
L 112.336231 147.910819 
L 113.211311 146.974339 
L 114.086391 155.221405 
L 114.96147 154.43597 
L 115.83655 138.817899 
L 116.71163 156.369349 
L 117.586709 128.305154 
L 118.461789 132.745883 
L 119.336868 128.274945 
L 120.211948 125.223833 
L 121.087028 133.108391 
L 121.962107 131.597939 
L 122.837187 133.833408 
L 123.712267 129.69477 
L 124.587346 131.326058 
L 125.462426 115.134015 
L 126.337506 109.998479 
L 127.212585 111.025586 
L 128.087665 118.003873 
L 128.962744 106.252558 
L 129.837824 105.708796 
L 130.712904 103.926463 
L 131.587983 101.298276 
L 132.463063 93.776227 
L 133.338143 99.00239 
L 134.213222 96.585667 
L 135.088302 94.893961 
L 135.963382 94.078317 
L 136.838461 89.486543 
L 137.713541 91.027204 
L 138.58862 87.220866 
L 139.4637 89.124035 
L 140.33878 85.408324 
L 141.213859 88.308391 
L 142.088939 88.03651 
L 142.964019 89.003199 
L 143.839098 87.522956 
L 144.714178 87.251075 
L 145.589258 87.794837 
L 146.464337 88.127137 
L 147.339417 140.66065 
L 148.214496 140.177305 
L 149.089576 119.967461 
L 149.964656 128.1239 
L 150.839735 128.365572 
L 151.714815 118.275755 
L 152.589895 115.043388 
L 153.464974 110.391196 
L 154.340054 114.892343 
L 155.215134 110.330778 
L 156.090213 109.515134 
L 156.965293 103.624372 
L 157.840372 107.793219 
L 158.715452 107.853637 
L 159.590532 108.306773 
L 160.465611 111.20684 
L 161.340691 104.923361 
L 162.215771 103.171237 
L 163.09085 109.424507 
L 163.96593 112.898546 
L 164.84101 105.104615 
L 165.716089 101.117022 
L 166.591169 90.453233 
L 167.466248 103.896254 
L 168.341328 104.983779 
L 169.216408 94.682498 
L 170.091487 98.126328 
L 170.966567 96.585667 
L 171.841647 88.701109 
L 172.716726 88.64069 
L 173.591806 90.030306 
L 174.466886 87.613583 
L 175.341965 91.631385 
L 176.217045 82.447838 
L 177.092124 91.873057 
L 177.967204 92.960583 
L 178.842284 82.900974 
L 179.717363 85.52916 
L 180.592443 84.773934 
L 181.467523 83.6562 
L 182.342602 81.14885 
L 183.217682 86.223968 
L 184.092762 80.876968 
L 184.967841 77.040421 
L 185.842921 80.242579 
L 186.718 75.711223 
L 187.59308 77.886274 
L 188.46816 78.6415 
L 189.343239 75.046624 
L 190.218319 75.832059 
L 191.968478 75.016415 
L 192.843558 74.774743 
L 193.718638 72.720529 
L 194.593717 74.321608 
L 196.343877 72.146557 
L 197.218956 72.901783 
L 198.094036 73.173664 
L 198.969115 70.394433 
L 199.844195 72.05593 
L 200.719275 72.660111 
L 201.594354 70.756941 
L 202.469434 69.578789 
L 203.344514 69.669416 
L 204.219593 67.917292 
L 205.094673 68.068337 
L 205.969753 69.971506 
L 206.844832 66.527676 
L 207.719912 67.101648 
L 208.594991 67.011021 
L 209.470071 65.16827 
L 210.345151 67.313111 
L 211.22023 65.198479 
L 212.09531 67.494365 
L 212.97039 64.987016 
L 213.845469 64.805761 
L 214.720549 65.983914 
L 215.595629 64.171372 
L 216.470708 65.107852 
L 217.345788 65.198479 
L 218.220867 63.627609 
L 219.095947 63.29531 
L 219.971027 63.5974 
L 220.846106 62.842174 
L 221.721186 63.2651 
L 222.596266 61.512976 
L 224.346425 62.509875 
L 225.221505 62.237993 
L 226.096584 62.751547 
L 226.971664 63.5974 
L 227.846743 62.479666 
L 228.721823 62.691129 
L 229.596903 61.694231 
L 230.471982 62.237993 
L 231.347062 99.999288 
L 232.222142 101.056604 
L 233.097221 87.915674 
L 233.972301 95.196051 
L 234.847381 92.235566 
L 235.72246 96.283577 
L 236.59754 89.667798 
L 237.472619 96.887757 
L 238.347699 86.918775 
L 239.222779 90.423024 
L 240.097858 86.677103 
L 240.972938 88.519854 
L 241.848018 89.395916 
L 242.723097 83.837454 
L 243.598177 83.6562 
L 244.473257 78.973799 
L 245.348336 90.000097 
L 246.223416 89.60738 
L 247.098495 79.698816 
L 247.973575 89.637589 
L 248.848655 80.544669 
L 250.598814 85.438533 
L 251.473894 80.18216 
L 252.348973 82.719719 
L 253.224053 81.299895 
L 254.099133 81.360313 
L 254.974212 82.175957 
L 255.849292 83.354109 
L 256.724371 76.677912 
L 257.599451 81.964494 
L 258.474531 82.357211 
L 259.34961 73.92889 
L 260.22469 80.393624 
L 261.09977 82.508256 
L 261.974849 80.333206 
L 262.849929 79.88007 
L 263.725009 81.934285 
L 264.600088 77.402929 
L 265.475168 77.040421 
L 266.350247 77.523765 
L 267.225327 79.457144 
L 268.100407 77.946692 
L 268.975486 76.798748 
L 269.850566 82.780138 
L 270.725646 79.88007 
L 271.600725 75.560178 
L 272.475805 77.433138 
L 273.350885 76.466449 
L 274.225964 79.517562 
L 275.101044 76.768539 
L 275.976123 79.034217 
L 276.851203 78.913381 
L 277.726283 76.315404 
L 278.601362 74.895579 
L 279.476442 72.962201 
L 280.351522 73.203873 
L 281.226601 74.472653 
L 282.101681 78.00711 
L 282.976761 80.51446 
L 283.85184 78.6415 
L 284.72692 78.883172 
L 285.602 72.599693 
L 286.477079 75.983105 
L 287.352159 72.388229 
L 288.227238 80.423833 
L 289.102318 73.536173 
L 289.977398 73.354918 
L 290.852477 75.529969 
L 291.727557 70.666314 
L 292.602637 73.687218 
L 293.477716 72.841365 
L 294.352796 73.143455 
L 295.227876 73.2945 
L 296.102955 71.42154 
L 296.978035 73.234082 
L 297.853114 70.907987 
L 298.728194 71.72363 
L 299.603274 71.572585 
L 300.478353 69.669416 
L 301.353433 69.880879 
L 302.228513 68.007919 
L 303.103592 70.998614 
L 303.978672 69.880879 
L 304.853752 71.602794 
L 305.728831 70.273597 
L 306.603911 70.122552 
L 307.47899 66.980812 
L 308.35407 67.97771 
L 309.22915 64.654716 
L 310.104229 67.645411 
L 310.979309 65.47036 
L 311.854389 67.736038 
L 312.729468 69.457953 
L 313.604548 66.920394 
L 314.479628 70.726732 
L 315.354707 65.530778 
L 316.229787 65.228688 
L 317.104866 66.195377 
L 317.979946 68.491264 
L 318.855026 63.476564 
L 319.730105 65.77245 
L 320.605185 67.101648 
L 321.480265 66.950603 
L 322.355344 66.346422 
L 323.230424 64.261999 
L 324.105504 66.588094 
L 324.980583 68.219382 
L 325.855663 64.171372 
L 326.730742 68.068337 
L 327.605822 63.204682 
L 328.480902 66.678722 
L 329.355981 61.72444 
L 330.231061 62.147366 
L 331.106141 60.908796 
L 331.98122 64.020326 
L 332.8563 62.298411 
L 333.73138 62.479666 
L 334.606459 61.331722 
L 335.481539 60.818169 
L 336.356618 64.775552 
L 337.231698 64.53388 
L 338.106778 62.268202 
L 338.981857 60.667123 
L 339.856937 60.667123 
L 340.732017 61.694231 
L 341.607096 61.573394 
L 342.482176 62.298411 
L 343.357256 60.244197 
L 344.232335 61.059841 
L 345.107415 62.358829 
L 345.982494 60.939005 
L 346.857574 60.002525 
L 347.732654 61.512976 
L 350.357893 58.945208 
L 351.232972 59.549389 
L 352.108052 57.827474 
L 352.983132 58.975417 
L 353.858211 59.640016 
L 354.733291 58.431655 
L 355.60837 59.549389 
L 356.48345 59.337926 
L 358.233609 57.616011 
L 359.108689 59.277508 
L 360.858848 59.005626 
L 361.733928 58.069146 
L 362.609008 59.277508 
L 363.484087 56.679531 
L 364.359167 59.247299 
L 365.234247 57.585802 
L 366.109326 58.220192 
L 366.984406 56.286813 
L 367.859485 55.863887 
L 368.734565 57.283711 
L 369.609645 56.407649 
L 370.484724 55.803469 
L 371.359804 55.622214 
L 372.234884 55.863887 
L 373.109963 55.531587 
L 373.985043 56.649322 
L 374.860123 55.199288 
L 375.735202 56.165977 
L 377.485361 55.894096 
L 378.360441 54.625316 
L 379.235521 54.957616 
L 380.1106 55.501378 
L 380.98568 54.534689 
L 381.86076 54.746152 
L 382.735839 54.655525 
L 383.610919 55.048243 
L 384.485999 54.232599 
L 385.361078 54.746152 
L 386.236158 55.048243 
L 387.111237 54.987825 
L 387.986317 54.715943 
L 388.861397 53.568 
L 390.611556 53.87009 
L 392.361715 54.776361 
L 393.236795 54.50448 
L 394.111875 53.719045 
L 394.986954 54.051345 
L 395.862034 55.018034 
L 396.737113 54.111763 
L 397.612193 54.625316 
L 398.487273 54.897198 
L 398.487273 54.897198 
" style="fill:none;stroke:#ff7f0e;stroke-linecap:square;stroke-width:1.5;"/>
   </g>
   <g id="line2d_21">
    <path clip-path="url(#pa481b390a6)" d="M 73.832727 290.877465 
L 74.707807 283.961186 
L 75.582887 280.256604 
L 76.457966 269.444949 
L 77.333046 263.689333 
L 78.208125 253.497758 
L 79.083205 253.529557 
L 79.958285 241.811631 
L 80.833364 236.739693 
L 82.583524 250.61995 
L 83.458603 245.722906 
L 84.333683 256.836652 
L 85.208763 251.049236 
L 86.083842 244.276053 
L 86.958922 255.167205 
L 87.834001 251.096935 
L 88.709081 255.548793 
L 89.584161 240.92126 
L 90.45924 239.283612 
L 91.33432 239.220014 
L 92.2094 230.729685 
L 93.084479 233.194106 
L 93.959559 232.44683 
L 94.834639 240.380677 
L 95.709718 216.14985 
L 96.584798 218.010091 
L 97.459877 213.780826 
L 98.334957 216.626835 
L 100.085116 196.672972 
L 100.960196 198.437816 
L 101.835276 198.29472 
L 102.710355 191.267145 
L 103.585435 194.653737 
L 104.460515 194.685536 
L 105.335594 207.118939 
L 106.210674 217.42181 
L 107.085753 220.458613 
L 107.960833 218.375779 
L 108.835913 215.879559 
L 109.710992 211.618495 
L 110.586072 209.026878 
L 111.461152 218.836865 
L 112.336231 191.760029 
L 113.211311 195.17842 
L 114.086391 203.128166 
L 114.96147 198.565012 
L 115.83655 189.21611 
L 116.71163 202.126498 
L 117.586709 178.976837 
L 118.461789 185.956714 
L 119.336868 179.644616 
L 120.211948 175.653843 
L 121.087028 184.652956 
L 121.962107 179.549219 
L 122.837187 182.109037 
L 123.712267 182.140836 
L 124.587346 194.256249 
L 125.462426 171.615372 
L 126.337506 162.234671 
L 127.212585 164.015415 
L 128.087665 170.311614 
L 128.962744 159.865647 
L 129.837824 162.791154 
L 130.712904 163.252239 
L 131.587983 156.892442 
L 132.463063 148.322615 
L 133.338143 159.293265 
L 134.213222 150.69164 
L 135.088302 151.884102 
L 135.963382 150.755238 
L 136.838461 146.207983 
L 137.713541 147.638937 
L 138.58862 141.644829 
L 139.4637 147.273249 
L 140.33878 141.120145 
L 141.213859 146.207983 
L 142.088939 143.250677 
L 142.964019 147.368646 
L 143.839098 144.824727 
L 144.714178 145.095018 
L 145.589258 144.872426 
L 146.464337 146.462375 
L 147.339417 195.862098 
L 148.214496 185.940815 
L 149.089576 170.009523 
L 149.964656 181.663851 
L 150.839735 185.352533 
L 151.714815 176.512416 
L 152.589895 161.614591 
L 153.464974 162.473164 
L 154.340054 165.796158 
L 155.215134 165.478168 
L 156.090213 162.330068 
L 156.965293 162.997847 
L 157.840372 160.628823 
L 158.715452 165.032982 
L 159.590532 166.940921 
L 160.465611 166.495735 
L 161.340691 160.915014 
L 162.215771 151.486614 
L 163.09085 159.945144 
L 163.96593 165.462268 
L 164.84101 157.846411 
L 165.716089 156.479055 
L 166.591169 150.119258 
L 167.466248 161.201204 
L 168.341328 154.046433 
L 169.216408 149.864866 
L 170.091487 148.036425 
L 170.966567 148.17952 
L 171.841647 146.557772 
L 172.716726 140.849854 
L 173.591806 147.845631 
L 174.466886 144.41134 
L 175.341965 147.972827 
L 176.217045 137.765352 
L 177.092124 147.352746 
L 177.967204 144.538536 
L 178.842284 135.444027 
L 179.717363 138.894216 
L 180.592443 141.263241 
L 181.467523 137.510961 
L 182.342602 130.610581 
L 183.217682 138.496729 
L 184.092762 130.419787 
L 184.967841 131.310158 
L 185.842921 130.864973 
L 186.718 124.664171 
L 187.59308 130.419787 
L 188.46816 132.232329 
L 189.343239 125.204753 
L 190.218319 126.349517 
L 191.093399 129.656611 
L 191.968478 126.778803 
L 192.843558 132.788811 
L 193.718638 121.818161 
L 194.593717 120.705197 
L 195.468797 123.265015 
L 196.343877 124.632372 
L 197.218956 122.406443 
L 198.094036 123.12192 
L 198.969115 124.36208 
L 199.844195 123.471709 
L 200.719275 123.996392 
L 201.594354 126.111024 
L 202.469434 124.918563 
L 203.344514 121.484272 
L 204.219593 117.429902 
L 205.094673 119.131147 
L 205.969753 124.218985 
L 206.844832 116.905218 
L 207.719912 116.778022 
L 208.594991 119.814825 
L 209.470071 114.599792 
L 210.345151 120.530303 
L 211.22023 116.126143 
L 212.09531 119.290142 
L 212.97039 114.313601 
L 213.845469 113.168838 
L 214.720549 114.408998 
L 216.470708 116.110244 
L 218.220867 112.819049 
L 219.095947 114.313601 
L 219.971027 112.691853 
L 220.846106 112.914446 
L 221.721186 113.311933 
L 222.596266 111.690185 
L 223.471345 111.610687 
L 224.346425 111.896878 
L 225.221505 111.753783 
L 226.096584 111.308597 
L 226.971664 112.437461 
L 227.846743 111.865079 
L 228.721823 112.564657 
L 229.596903 111.181401 
L 230.471982 111.801481 
L 231.347062 151.057328 
L 232.222142 151.248122 
L 233.097221 140.849854 
L 233.972301 150.103359 
L 234.847381 144.490838 
L 235.72246 150.628042 
L 236.59754 136.032308 
L 237.472619 143.823059 
L 238.347699 140.070779 
L 239.222779 145.651501 
L 240.097858 140.818055 
L 240.972938 143.536868 
L 241.848018 142.996285 
L 242.723097 136.668287 
L 243.598177 133.249897 
L 244.473257 135.921011 
L 245.348336 143.934356 
L 246.223416 146.510073 
L 247.098495 128.511848 
L 247.973575 145.142717 
L 248.848655 134.490057 
L 249.723734 136.89088 
L 250.598814 137.447363 
L 251.473894 133.392992 
L 252.348973 133.218098 
L 253.224053 132.025636 
L 254.099133 132.677515 
L 254.974212 136.747785 
L 255.849292 139.879985 
L 256.724371 128.798039 
L 258.474531 139.212206 
L 259.34961 128.305154 
L 260.22469 134.69675 
L 261.09977 135.873313 
L 261.974849 134.71265 
L 262.849929 130.610581 
L 263.725009 141.008849 
L 264.600088 130.515184 
L 265.475168 126.190522 
L 266.350247 132.868309 
L 267.225327 136.922679 
L 268.100407 128.909335 
L 268.975486 129.736109 
L 269.850566 135.746117 
L 270.725646 137.447363 
L 271.600725 131.071666 
L 272.475805 130.499284 
L 273.350885 128.925235 
L 274.225964 133.77458 
L 275.101044 131.58045 
L 275.976123 129.911003 
L 276.851203 131.357857 
L 277.726283 126.015627 
L 278.601362 128.702642 
L 279.476442 126.762904 
L 280.351522 125.172954 
L 281.226601 127.82817 
L 282.101681 128.988833 
L 282.976761 135.33273 
L 283.85184 134.331062 
L 284.72692 124.69597 
L 285.602 125.379648 
L 286.477079 129.481717 
L 287.352159 122.756232 
L 288.227238 132.232329 
L 289.102318 125.172954 
L 289.977398 124.823166 
L 290.852477 131.644048 
L 291.727557 125.570442 
L 292.602637 127.716873 
L 293.477716 128.416451 
L 294.352796 124.266683 
L 295.227876 124.616472 
L 296.102955 121.277579 
L 296.978035 124.711869 
L 297.853114 120.800594 
L 298.728194 123.074221 
L 299.603274 128.654943 
L 300.478353 122.756232 
L 302.228513 116.189741 
L 303.103592 124.854965 
L 303.978672 121.56377 
L 304.853752 121.84996 
L 305.728831 117.572997 
L 306.603911 125.586341 
L 307.47899 120.673398 
L 308.35407 120.403107 
L 309.22915 115.91945 
L 310.104229 120.482604 
L 310.979309 110.942909 
L 311.854389 117.016515 
L 312.729468 117.350404 
L 313.604548 116.173842 
L 314.479628 124.314382 
L 315.354707 116.571329 
L 316.229787 117.191409 
L 317.104866 116.332837 
L 317.979946 117.382203 
L 318.855026 117.906886 
L 319.730105 121.341177 
L 321.480265 117.048314 
L 322.355344 116.968816 
L 323.230424 117.588896 
L 324.105504 115.172174 
L 324.980583 119.528635 
L 325.855663 118.177178 
L 326.730742 116.380535 
L 327.605822 117.445801 
L 328.480902 122.295146 
L 329.355981 111.070105 
L 330.231061 114.66339 
L 331.106141 110.450024 
L 331.98122 108.319492 
L 332.8563 107.731211 
L 333.73138 110.863411 
L 334.606459 114.949581 
L 335.481539 110.529522 
L 336.356618 117.17551 
L 337.231698 112.214868 
L 338.106778 114.059209 
L 338.981857 109.01907 
L 339.856937 110.306929 
L 340.732017 116.173842 
L 341.607096 110.942909 
L 342.482176 113.979712 
L 343.357256 113.057541 
L 344.232335 115.29937 
L 345.107415 114.377199 
L 345.982494 110.227431 
L 346.857574 111.817381 
L 347.732654 111.2132 
L 348.607733 108.955472 
L 350.357893 107.286025 
L 351.232972 107.937905 
L 352.108052 105.044197 
L 353.858211 108.557985 
L 354.733291 106.872639 
L 355.60837 106.18896 
L 356.48345 108.685181 
L 357.35853 107.794809 
L 358.233609 105.473483 
L 359.108689 107.222427 
L 359.983769 107.635814 
L 360.858848 106.379754 
L 361.733928 103.99483 
L 362.609008 106.968035 
L 363.484087 103.804036 
L 364.359167 104.964699 
L 365.234247 103.438348 
L 366.109326 104.614911 
L 366.984406 102.373082 
L 367.859485 103.136258 
L 368.734565 104.662609 
L 369.609645 104.01073 
L 371.359804 100.147153 
L 372.234884 104.360519 
L 373.109963 101.737102 
L 373.985043 104.376418 
L 374.860123 100.624138 
L 375.735202 101.307816 
L 376.610282 102.388982 
L 378.360441 103.835835 
L 379.235521 101.832499 
L 380.1106 101.435012 
L 380.98568 100.433344 
L 381.86076 100.401545 
L 382.735839 100.512842 
L 383.610919 100.894429 
L 384.485999 100.083555 
L 385.361078 99.431676 
L 386.236158 100.353847 
L 387.111237 99.654269 
L 387.986317 100.86263 
L 388.861397 99.590671 
L 390.611556 100.433344 
L 391.486636 99.511174 
L 392.361715 100.290249 
L 393.236795 99.129586 
L 394.111875 99.94046 
L 394.986954 98.795696 
L 395.862034 99.145485 
L 396.737113 100.496942 
L 397.612193 100.783133 
L 398.487273 99.892761 
L 398.487273 99.892761 
" style="fill:none;stroke:#2ca02c;stroke-linecap:square;stroke-width:1.5;"/>
   </g>
   <g id="patch_3">
    <path d="M 57.6 307.584 
L 57.6 41.472 
" style="fill:none;stroke:#000000;stroke-linecap:square;stroke-linejoin:miter;stroke-width:0.8;"/>
   </g>
   <g id="patch_4">
    <path d="M 414.72 307.584 
L 414.72 41.472 
" style="fill:none;stroke:#000000;stroke-linecap:square;stroke-linejoin:miter;stroke-width:0.8;"/>
   </g>
   <g id="patch_5">
    <path d="M 57.6 307.584 
L 414.72 307.584 
" style="fill:none;stroke:#000000;stroke-linecap:square;stroke-linejoin:miter;stroke-width:0.8;"/>
   </g>
   <g id="patch_6">
    <path d="M 57.6 41.472 
L 414.72 41.472 
" style="fill:none;stroke:#000000;stroke-linecap:square;stroke-linejoin:miter;stroke-width:0.8;"/>
   </g>
   <g id="text_21">
    <!-- Training and Validation Accuracy -->
    <g transform="translate(138.4575 35.472)scale(0.12 -0.12)">
     <defs>
      <path d="M -19 4666 
L 3928 4666 
L 3928 4134 
L 2272 4134 
L 2272 0 
L 1638 0 
L 1638 4134 
L -19 4134 
L -19 4666 
z
" id="DejaVuSans-54" transform="scale(0.015625)"/>
      <path d="M 603 3500 
L 1178 3500 
L 1178 0 
L 603 0 
L 603 3500 
z
M 603 4863 
L 1178 4863 
L 1178 4134 
L 603 4134 
L 603 4863 
z
" id="DejaVuSans-69" transform="scale(0.015625)"/>
      <path d="M 3513 2113 
L 3513 0 
L 2938 0 
L 2938 2094 
Q 2938 2591 2744 2837 
Q 2550 3084 2163 3084 
Q 1697 3084 1428 2787 
Q 1159 2491 1159 1978 
L 1159 0 
L 581 0 
L 581 3500 
L 1159 3500 
L 1159 2956 
Q 1366 3272 1645 3428 
Q 1925 3584 2291 3584 
Q 2894 3584 3203 3211 
Q 3513 2838 3513 2113 
z
" id="DejaVuSans-6e" transform="scale(0.015625)"/>
      <path d="M 2906 1791 
Q 2906 2416 2648 2759 
Q 2391 3103 1925 3103 
Q 1463 3103 1205 2759 
Q 947 2416 947 1791 
Q 947 1169 1205 825 
Q 1463 481 1925 481 
Q 2391 481 2648 825 
Q 2906 1169 2906 1791 
z
M 3481 434 
Q 3481 -459 3084 -895 
Q 2688 -1331 1869 -1331 
Q 1566 -1331 1297 -1286 
Q 1028 -1241 775 -1147 
L 775 -588 
Q 1028 -725 1275 -790 
Q 1522 -856 1778 -856 
Q 2344 -856 2625 -561 
Q 2906 -266 2906 331 
L 2906 616 
Q 2728 306 2450 153 
Q 2172 0 1784 0 
Q 1141 0 747 490 
Q 353 981 353 1791 
Q 353 2603 747 3093 
Q 1141 3584 1784 3584 
Q 2172 3584 2450 3431 
Q 2728 3278 2906 2969 
L 2906 3500 
L 3481 3500 
L 3481 434 
z
" id="DejaVuSans-67" transform="scale(0.015625)"/>
      <path id="DejaVuSans-20" transform="scale(0.015625)"/>
      <path d="M 2906 2969 
L 2906 4863 
L 3481 4863 
L 3481 0 
L 2906 0 
L 2906 525 
Q 2725 213 2448 61 
Q 2172 -91 1784 -91 
Q 1150 -91 751 415 
Q 353 922 353 1747 
Q 353 2572 751 3078 
Q 1150 3584 1784 3584 
Q 2172 3584 2448 3432 
Q 2725 3281 2906 2969 
z
M 947 1747 
Q 947 1113 1208 752 
Q 1469 391 1925 391 
Q 2381 391 2643 752 
Q 2906 1113 2906 1747 
Q 2906 2381 2643 2742 
Q 2381 3103 1925 3103 
Q 1469 3103 1208 2742 
Q 947 2381 947 1747 
z
" id="DejaVuSans-64" transform="scale(0.015625)"/>
      <path d="M 1831 0 
L 50 4666 
L 709 4666 
L 2188 738 
L 3669 4666 
L 4325 4666 
L 2547 0 
L 1831 0 
z
" id="DejaVuSans-56" transform="scale(0.015625)"/>
      <path d="M 603 4863 
L 1178 4863 
L 1178 0 
L 603 0 
L 603 4863 
z
" id="DejaVuSans-6c" transform="scale(0.015625)"/>
      <path d="M 1172 4494 
L 1172 3500 
L 2356 3500 
L 2356 3053 
L 1172 3053 
L 1172 1153 
Q 1172 725 1289 603 
Q 1406 481 1766 481 
L 2356 481 
L 2356 0 
L 1766 0 
Q 1100 0 847 248 
Q 594 497 594 1153 
L 594 3053 
L 172 3053 
L 172 3500 
L 594 3500 
L 594 4494 
L 1172 4494 
z
" id="DejaVuSans-74" transform="scale(0.015625)"/>
     </defs>
     <use xlink:href="#DejaVuSans-54"/>
     <use x="46.333984" xlink:href="#DejaVuSans-72"/>
     <use x="87.447266" xlink:href="#DejaVuSans-61"/>
     <use x="148.726562" xlink:href="#DejaVuSans-69"/>
     <use x="176.509766" xlink:href="#DejaVuSans-6e"/>
     <use x="239.888672" xlink:href="#DejaVuSans-69"/>
     <use x="267.671875" xlink:href="#DejaVuSans-6e"/>
     <use x="331.050781" xlink:href="#DejaVuSans-67"/>
     <use x="394.527344" xlink:href="#DejaVuSans-20"/>
     <use x="426.314453" xlink:href="#DejaVuSans-61"/>
     <use x="487.59375" xlink:href="#DejaVuSans-6e"/>
     <use x="550.972656" xlink:href="#DejaVuSans-64"/>
     <use x="614.449219" xlink:href="#DejaVuSans-20"/>
     <use x="646.236328" xlink:href="#DejaVuSans-56"/>
     <use x="706.894531" xlink:href="#DejaVuSans-61"/>
     <use x="768.173828" xlink:href="#DejaVuSans-6c"/>
     <use x="795.957031" xlink:href="#DejaVuSans-69"/>
     <use x="823.740234" xlink:href="#DejaVuSans-64"/>
     <use x="887.216797" xlink:href="#DejaVuSans-61"/>
     <use x="948.496094" xlink:href="#DejaVuSans-74"/>
     <use x="987.705078" xlink:href="#DejaVuSans-69"/>
     <use x="1015.488281" xlink:href="#DejaVuSans-6f"/>
     <use x="1076.669922" xlink:href="#DejaVuSans-6e"/>
     <use x="1140.048828" xlink:href="#DejaVuSans-20"/>
     <use x="1171.835938" xlink:href="#DejaVuSans-41"/>
     <use x="1238.494141" xlink:href="#DejaVuSans-63"/>
     <use x="1293.474609" xlink:href="#DejaVuSans-63"/>
     <use x="1348.455078" xlink:href="#DejaVuSans-75"/>
     <use x="1411.833984" xlink:href="#DejaVuSans-72"/>
     <use x="1452.947266" xlink:href="#DejaVuSans-61"/>
     <use x="1514.226562" xlink:href="#DejaVuSans-63"/>
     <use x="1569.207031" xlink:href="#DejaVuSans-79"/>
    </g>
   </g>
   <g id="legend_1">
    <g id="patch_7">
     <path d="M 239.893438 302.584 
L 407.72 302.584 
Q 409.72 302.584 409.72 300.584 
L 409.72 257.549625 
Q 409.72 255.549625 407.72 255.549625 
L 239.893438 255.549625 
Q 237.893438 255.549625 237.893438 257.549625 
L 237.893438 300.584 
Q 237.893438 302.584 239.893438 302.584 
z
" style="fill:#ffffff;opacity:0.8;stroke:#cccccc;stroke-linejoin:miter;"/>
    </g>
    <g id="line2d_22">
     <path d="M 241.893438 263.648062 
L 261.893438 263.648062 
" style="fill:none;stroke:#1f77b4;stroke-linecap:square;stroke-width:1.5;"/>
    </g>
    <g id="line2d_23"/>
    <g id="text_22">
     <!-- Train Accuracy -->
     <g transform="translate(269.893438 267.148062)scale(0.1 -0.1)">
      <use xlink:href="#DejaVuSans-54"/>
      <use x="46.333984" xlink:href="#DejaVuSans-72"/>
      <use x="87.447266" xlink:href="#DejaVuSans-61"/>
      <use x="148.726562" xlink:href="#DejaVuSans-69"/>
      <use x="176.509766" xlink:href="#DejaVuSans-6e"/>
      <use x="239.888672" xlink:href="#DejaVuSans-20"/>
      <use x="271.675781" xlink:href="#DejaVuSans-41"/>
      <use x="338.333984" xlink:href="#DejaVuSans-63"/>
      <use x="393.314453" xlink:href="#DejaVuSans-63"/>
      <use x="448.294922" xlink:href="#DejaVuSans-75"/>
      <use x="511.673828" xlink:href="#DejaVuSans-72"/>
      <use x="552.787109" xlink:href="#DejaVuSans-61"/>
      <use x="614.066406" xlink:href="#DejaVuSans-63"/>
      <use x="669.046875" xlink:href="#DejaVuSans-79"/>
     </g>
    </g>
    <g id="line2d_24">
     <path d="M 241.893438 278.326188 
L 261.893438 278.326188 
" style="fill:none;stroke:#ff7f0e;stroke-linecap:square;stroke-width:1.5;"/>
    </g>
    <g id="line2d_25"/>
    <g id="text_23">
     <!-- Validation Accuracy -->
     <g transform="translate(269.893438 281.826188)scale(0.1 -0.1)">
      <use xlink:href="#DejaVuSans-56"/>
      <use x="60.658203" xlink:href="#DejaVuSans-61"/>
      <use x="121.9375" xlink:href="#DejaVuSans-6c"/>
      <use x="149.720703" xlink:href="#DejaVuSans-69"/>
      <use x="177.503906" xlink:href="#DejaVuSans-64"/>
      <use x="240.980469" xlink:href="#DejaVuSans-61"/>
      <use x="302.259766" xlink:href="#DejaVuSans-74"/>
      <use x="341.46875" xlink:href="#DejaVuSans-69"/>
      <use x="369.251953" xlink:href="#DejaVuSans-6f"/>
      <use x="430.433594" xlink:href="#DejaVuSans-6e"/>
      <use x="493.8125" xlink:href="#DejaVuSans-20"/>
      <use x="525.599609" xlink:href="#DejaVuSans-41"/>
      <use x="592.257812" xlink:href="#DejaVuSans-63"/>
      <use x="647.238281" xlink:href="#DejaVuSans-63"/>
      <use x="702.21875" xlink:href="#DejaVuSans-75"/>
      <use x="765.597656" xlink:href="#DejaVuSans-72"/>
      <use x="806.710938" xlink:href="#DejaVuSans-61"/>
      <use x="867.990234" xlink:href="#DejaVuSans-63"/>
      <use x="922.970703" xlink:href="#DejaVuSans-79"/>
     </g>
    </g>
    <g id="line2d_26">
     <path d="M 241.893438 293.004312 
L 261.893438 293.004312 
" style="fill:none;stroke:#2ca02c;stroke-linecap:square;stroke-width:1.5;"/>
    </g>
    <g id="line2d_27"/>
    <g id="text_24">
     <!-- Robust Validation Accuracy -->
     <g transform="translate(269.893438 296.504312)scale(0.1 -0.1)">
      <defs>
       <path d="M 2841 2188 
Q 3044 2119 3236 1894 
Q 3428 1669 3622 1275 
L 4263 0 
L 3584 0 
L 2988 1197 
Q 2756 1666 2539 1819 
Q 2322 1972 1947 1972 
L 1259 1972 
L 1259 0 
L 628 0 
L 628 4666 
L 2053 4666 
Q 2853 4666 3247 4331 
Q 3641 3997 3641 3322 
Q 3641 2881 3436 2590 
Q 3231 2300 2841 2188 
z
M 1259 4147 
L 1259 2491 
L 2053 2491 
Q 2509 2491 2742 2702 
Q 2975 2913 2975 3322 
Q 2975 3731 2742 3939 
Q 2509 4147 2053 4147 
L 1259 4147 
z
" id="DejaVuSans-52" transform="scale(0.015625)"/>
       <path d="M 3116 1747 
Q 3116 2381 2855 2742 
Q 2594 3103 2138 3103 
Q 1681 3103 1420 2742 
Q 1159 2381 1159 1747 
Q 1159 1113 1420 752 
Q 1681 391 2138 391 
Q 2594 391 2855 752 
Q 3116 1113 3116 1747 
z
M 1159 2969 
Q 1341 3281 1617 3432 
Q 1894 3584 2278 3584 
Q 2916 3584 3314 3078 
Q 3713 2572 3713 1747 
Q 3713 922 3314 415 
Q 2916 -91 2278 -91 
Q 1894 -91 1617 61 
Q 1341 213 1159 525 
L 1159 0 
L 581 0 
L 581 4863 
L 1159 4863 
L 1159 2969 
z
" id="DejaVuSans-62" transform="scale(0.015625)"/>
      </defs>
      <use xlink:href="#DejaVuSans-52"/>
      <use x="64.982422" xlink:href="#DejaVuSans-6f"/>
      <use x="126.164062" xlink:href="#DejaVuSans-62"/>
      <use x="189.640625" xlink:href="#DejaVuSans-75"/>
      <use x="253.019531" xlink:href="#DejaVuSans-73"/>
      <use x="305.119141" xlink:href="#DejaVuSans-74"/>
      <use x="344.328125" xlink:href="#DejaVuSans-20"/>
      <use x="376.115234" xlink:href="#DejaVuSans-56"/>
      <use x="436.773438" xlink:href="#DejaVuSans-61"/>
      <use x="498.052734" xlink:href="#DejaVuSans-6c"/>
      <use x="525.835938" xlink:href="#DejaVuSans-69"/>
      <use x="553.619141" xlink:href="#DejaVuSans-64"/>
      <use x="617.095703" xlink:href="#DejaVuSans-61"/>
      <use x="678.375" xlink:href="#DejaVuSans-74"/>
      <use x="717.583984" xlink:href="#DejaVuSans-69"/>
      <use x="745.367188" xlink:href="#DejaVuSans-6f"/>
      <use x="806.548828" xlink:href="#DejaVuSans-6e"/>
      <use x="869.927734" xlink:href="#DejaVuSans-20"/>
      <use x="901.714844" xlink:href="#DejaVuSans-41"/>
      <use x="968.373047" xlink:href="#DejaVuSans-63"/>
      <use x="1023.353516" xlink:href="#DejaVuSans-63"/>
      <use x="1078.333984" xlink:href="#DejaVuSans-75"/>
      <use x="1141.712891" xlink:href="#DejaVuSans-72"/>
      <use x="1182.826172" xlink:href="#DejaVuSans-61"/>
      <use x="1244.105469" xlink:href="#DejaVuSans-63"/>
      <use x="1299.085938" xlink:href="#DejaVuSans-79"/>
     </g>
    </g>
   </g>
  </g>
 </g>
 <defs>
  <clipPath id="pa481b390a6">
   <rect height="266.112" width="357.12" x="57.6" y="41.472"/>
  </clipPath>
 </defs>
</svg>
