<?xml version="1.0" encoding="utf-8" standalone="no"?>
<!DOCTYPE svg PUBLIC "-//W3C//DTD SVG 1.1//EN"
  "http://www.w3.org/Graphics/SVG/1.1/DTD/svg11.dtd">
<svg height="345.6pt" version="1.1" viewBox="0 0 460.8 345.6" width="460.8pt" xmlns="http://www.w3.org/2000/svg" xmlns:xlink="http://www.w3.org/1999/xlink">
 <metadata>
  <rdf:RDF xmlns:cc="http://creativecommons.org/ns#" xmlns:dc="http://purl.org/dc/elements/1.1/" xmlns:rdf="http://www.w3.org/1999/02/22-rdf-syntax-ns#">
   <cc:Work>
    <dc:type rdf:resource="http://purl.org/dc/dcmitype/StillImage"/>
    <dc:date>2024-01-27T16:52:01.654483</dc:date>
    <dc:format>image/svg+xml</dc:format>
    <dc:creator>
     <cc:Agent>
      <dc:title>Matplotlib v3.4.3, https://matplotlib.org/</dc:title>
     </cc:Agent>
    </dc:creator>
   </cc:Work>
  </rdf:RDF>
 </metadata>
 <defs>
  <style type="text/css">*{stroke-linecap:butt;stroke-linejoin:round;}</style>
 </defs>
 <g id="figure_1">
  <g id="patch_1">
   <path d="M 0 345.6 
L 460.8 345.6 
L 460.8 0 
L 0 0 
z
" style="fill:#ffffff;"/>
  </g>
  <g id="axes_1">
   <g id="patch_2">
    <path d="M 57.6 307.584 
L 414.72 307.584 
L 414.72 41.472 
L 57.6 41.472 
z
" style="fill:#ffffff;"/>
   </g>
   <g id="matplotlib.axis_1">
    <g id="xtick_1">
     <g id="line2d_1">
      <defs>
       <path d="M 0 0 
L 0 3.5 
" id="mc2e6d6f8d7" style="stroke:#000000;stroke-width:0.8;"/>
      </defs>
      <g>
       <use style="stroke:#000000;stroke-width:0.8;" x="73.832727" xlink:href="#mc2e6d6f8d7" y="307.584"/>
      </g>
     </g>
     <g id="text_1">
      <!-- 1 -->
      <g transform="translate(70.651477 322.182437)scale(0.1 -0.1)">
       <defs>
        <path d="M 794 531 
L 1825 531 
L 1825 4091 
L 703 3866 
L 703 4441 
L 1819 4666 
L 2450 4666 
L 2450 531 
L 3481 531 
L 3481 0 
L 794 0 
L 794 531 
z
" id="DejaVuSans-31" transform="scale(0.015625)"/>
       </defs>
       <use xlink:href="#DejaVuSans-31"/>
      </g>
     </g>
    </g>
    <g id="xtick_2">
     <g id="line2d_2">
      <g>
       <use style="stroke:#000000;stroke-width:0.8;" x="109.710992" xlink:href="#mc2e6d6f8d7" y="307.584"/>
      </g>
     </g>
     <g id="text_2">
      <!-- 42 -->
      <g transform="translate(103.348492 322.182437)scale(0.1 -0.1)">
       <defs>
        <path d="M 2419 4116 
L 825 1625 
L 2419 1625 
L 2419 4116 
z
M 2253 4666 
L 3047 4666 
L 3047 1625 
L 3713 1625 
L 3713 1100 
L 3047 1100 
L 3047 0 
L 2419 0 
L 2419 1100 
L 313 1100 
L 313 1709 
L 2253 4666 
z
" id="DejaVuSans-34" transform="scale(0.015625)"/>
        <path d="M 1228 531 
L 3431 531 
L 3431 0 
L 469 0 
L 469 531 
Q 828 903 1448 1529 
Q 2069 2156 2228 2338 
Q 2531 2678 2651 2914 
Q 2772 3150 2772 3378 
Q 2772 3750 2511 3984 
Q 2250 4219 1831 4219 
Q 1534 4219 1204 4116 
Q 875 4013 500 3803 
L 500 4441 
Q 881 4594 1212 4672 
Q 1544 4750 1819 4750 
Q 2544 4750 2975 4387 
Q 3406 4025 3406 3419 
Q 3406 3131 3298 2873 
Q 3191 2616 2906 2266 
Q 2828 2175 2409 1742 
Q 1991 1309 1228 531 
z
" id="DejaVuSans-32" transform="scale(0.015625)"/>
       </defs>
       <use xlink:href="#DejaVuSans-34"/>
       <use x="63.623047" xlink:href="#DejaVuSans-32"/>
      </g>
     </g>
    </g>
    <g id="xtick_3">
     <g id="line2d_3">
      <g>
       <use style="stroke:#000000;stroke-width:0.8;" x="145.589258" xlink:href="#mc2e6d6f8d7" y="307.584"/>
      </g>
     </g>
     <g id="text_3">
      <!-- 83 -->
      <g transform="translate(139.226758 322.182437)scale(0.1 -0.1)">
       <defs>
        <path d="M 2034 2216 
Q 1584 2216 1326 1975 
Q 1069 1734 1069 1313 
Q 1069 891 1326 650 
Q 1584 409 2034 409 
Q 2484 409 2743 651 
Q 3003 894 3003 1313 
Q 3003 1734 2745 1975 
Q 2488 2216 2034 2216 
z
M 1403 2484 
Q 997 2584 770 2862 
Q 544 3141 544 3541 
Q 544 4100 942 4425 
Q 1341 4750 2034 4750 
Q 2731 4750 3128 4425 
Q 3525 4100 3525 3541 
Q 3525 3141 3298 2862 
Q 3072 2584 2669 2484 
Q 3125 2378 3379 2068 
Q 3634 1759 3634 1313 
Q 3634 634 3220 271 
Q 2806 -91 2034 -91 
Q 1263 -91 848 271 
Q 434 634 434 1313 
Q 434 1759 690 2068 
Q 947 2378 1403 2484 
z
M 1172 3481 
Q 1172 3119 1398 2916 
Q 1625 2713 2034 2713 
Q 2441 2713 2670 2916 
Q 2900 3119 2900 3481 
Q 2900 3844 2670 4047 
Q 2441 4250 2034 4250 
Q 1625 4250 1398 4047 
Q 1172 3844 1172 3481 
z
" id="DejaVuSans-38" transform="scale(0.015625)"/>
        <path d="M 2597 2516 
Q 3050 2419 3304 2112 
Q 3559 1806 3559 1356 
Q 3559 666 3084 287 
Q 2609 -91 1734 -91 
Q 1441 -91 1130 -33 
Q 819 25 488 141 
L 488 750 
Q 750 597 1062 519 
Q 1375 441 1716 441 
Q 2309 441 2620 675 
Q 2931 909 2931 1356 
Q 2931 1769 2642 2001 
Q 2353 2234 1838 2234 
L 1294 2234 
L 1294 2753 
L 1863 2753 
Q 2328 2753 2575 2939 
Q 2822 3125 2822 3475 
Q 2822 3834 2567 4026 
Q 2313 4219 1838 4219 
Q 1578 4219 1281 4162 
Q 984 4106 628 3988 
L 628 4550 
Q 988 4650 1302 4700 
Q 1616 4750 1894 4750 
Q 2613 4750 3031 4423 
Q 3450 4097 3450 3541 
Q 3450 3153 3228 2886 
Q 3006 2619 2597 2516 
z
" id="DejaVuSans-33" transform="scale(0.015625)"/>
       </defs>
       <use xlink:href="#DejaVuSans-38"/>
       <use x="63.623047" xlink:href="#DejaVuSans-33"/>
      </g>
     </g>
    </g>
    <g id="xtick_4">
     <g id="line2d_4">
      <g>
       <use style="stroke:#000000;stroke-width:0.8;" x="181.467523" xlink:href="#mc2e6d6f8d7" y="307.584"/>
      </g>
     </g>
     <g id="text_4">
      <!-- 124 -->
      <g transform="translate(171.923773 322.182437)scale(0.1 -0.1)">
       <use xlink:href="#DejaVuSans-31"/>
       <use x="63.623047" xlink:href="#DejaVuSans-32"/>
       <use x="127.246094" xlink:href="#DejaVuSans-34"/>
      </g>
     </g>
    </g>
    <g id="xtick_5">
     <g id="line2d_5">
      <g>
       <use style="stroke:#000000;stroke-width:0.8;" x="217.345788" xlink:href="#mc2e6d6f8d7" y="307.584"/>
      </g>
     </g>
     <g id="text_5">
      <!-- 165 -->
      <g transform="translate(207.802038 322.182437)scale(0.1 -0.1)">
       <defs>
        <path d="M 2113 2584 
Q 1688 2584 1439 2293 
Q 1191 2003 1191 1497 
Q 1191 994 1439 701 
Q 1688 409 2113 409 
Q 2538 409 2786 701 
Q 3034 994 3034 1497 
Q 3034 2003 2786 2293 
Q 2538 2584 2113 2584 
z
M 3366 4563 
L 3366 3988 
Q 3128 4100 2886 4159 
Q 2644 4219 2406 4219 
Q 1781 4219 1451 3797 
Q 1122 3375 1075 2522 
Q 1259 2794 1537 2939 
Q 1816 3084 2150 3084 
Q 2853 3084 3261 2657 
Q 3669 2231 3669 1497 
Q 3669 778 3244 343 
Q 2819 -91 2113 -91 
Q 1303 -91 875 529 
Q 447 1150 447 2328 
Q 447 3434 972 4092 
Q 1497 4750 2381 4750 
Q 2619 4750 2861 4703 
Q 3103 4656 3366 4563 
z
" id="DejaVuSans-36" transform="scale(0.015625)"/>
        <path d="M 691 4666 
L 3169 4666 
L 3169 4134 
L 1269 4134 
L 1269 2991 
Q 1406 3038 1543 3061 
Q 1681 3084 1819 3084 
Q 2600 3084 3056 2656 
Q 3513 2228 3513 1497 
Q 3513 744 3044 326 
Q 2575 -91 1722 -91 
Q 1428 -91 1123 -41 
Q 819 9 494 109 
L 494 744 
Q 775 591 1075 516 
Q 1375 441 1709 441 
Q 2250 441 2565 725 
Q 2881 1009 2881 1497 
Q 2881 1984 2565 2268 
Q 2250 2553 1709 2553 
Q 1456 2553 1204 2497 
Q 953 2441 691 2322 
L 691 4666 
z
" id="DejaVuSans-35" transform="scale(0.015625)"/>
       </defs>
       <use xlink:href="#DejaVuSans-31"/>
       <use x="63.623047" xlink:href="#DejaVuSans-36"/>
       <use x="127.246094" xlink:href="#DejaVuSans-35"/>
      </g>
     </g>
    </g>
    <g id="xtick_6">
     <g id="line2d_6">
      <g>
       <use style="stroke:#000000;stroke-width:0.8;" x="254.099133" xlink:href="#mc2e6d6f8d7" y="307.584"/>
      </g>
     </g>
     <g id="text_6">
      <!-- 207 -->
      <g transform="translate(244.555383 322.182437)scale(0.1 -0.1)">
       <defs>
        <path d="M 2034 4250 
Q 1547 4250 1301 3770 
Q 1056 3291 1056 2328 
Q 1056 1369 1301 889 
Q 1547 409 2034 409 
Q 2525 409 2770 889 
Q 3016 1369 3016 2328 
Q 3016 3291 2770 3770 
Q 2525 4250 2034 4250 
z
M 2034 4750 
Q 2819 4750 3233 4129 
Q 3647 3509 3647 2328 
Q 3647 1150 3233 529 
Q 2819 -91 2034 -91 
Q 1250 -91 836 529 
Q 422 1150 422 2328 
Q 422 3509 836 4129 
Q 1250 4750 2034 4750 
z
" id="DejaVuSans-30" transform="scale(0.015625)"/>
        <path d="M 525 4666 
L 3525 4666 
L 3525 4397 
L 1831 0 
L 1172 0 
L 2766 4134 
L 525 4134 
L 525 4666 
z
" id="DejaVuSans-37" transform="scale(0.015625)"/>
       </defs>
       <use xlink:href="#DejaVuSans-32"/>
       <use x="63.623047" xlink:href="#DejaVuSans-30"/>
       <use x="127.246094" xlink:href="#DejaVuSans-37"/>
      </g>
     </g>
    </g>
    <g id="xtick_7">
     <g id="line2d_7">
      <g>
       <use style="stroke:#000000;stroke-width:0.8;" x="289.977398" xlink:href="#mc2e6d6f8d7" y="307.584"/>
      </g>
     </g>
     <g id="text_7">
      <!-- 248 -->
      <g transform="translate(280.433648 322.182437)scale(0.1 -0.1)">
       <use xlink:href="#DejaVuSans-32"/>
       <use x="63.623047" xlink:href="#DejaVuSans-34"/>
       <use x="127.246094" xlink:href="#DejaVuSans-38"/>
      </g>
     </g>
    </g>
    <g id="xtick_8">
     <g id="line2d_8">
      <g>
       <use style="stroke:#000000;stroke-width:0.8;" x="325.855663" xlink:href="#mc2e6d6f8d7" y="307.584"/>
      </g>
     </g>
     <g id="text_8">
      <!-- 289 -->
      <g transform="translate(316.311913 322.182437)scale(0.1 -0.1)">
       <defs>
        <path d="M 703 97 
L 703 672 
Q 941 559 1184 500 
Q 1428 441 1663 441 
Q 2288 441 2617 861 
Q 2947 1281 2994 2138 
Q 2813 1869 2534 1725 
Q 2256 1581 1919 1581 
Q 1219 1581 811 2004 
Q 403 2428 403 3163 
Q 403 3881 828 4315 
Q 1253 4750 1959 4750 
Q 2769 4750 3195 4129 
Q 3622 3509 3622 2328 
Q 3622 1225 3098 567 
Q 2575 -91 1691 -91 
Q 1453 -91 1209 -44 
Q 966 3 703 97 
z
M 1959 2075 
Q 2384 2075 2632 2365 
Q 2881 2656 2881 3163 
Q 2881 3666 2632 3958 
Q 2384 4250 1959 4250 
Q 1534 4250 1286 3958 
Q 1038 3666 1038 3163 
Q 1038 2656 1286 2365 
Q 1534 2075 1959 2075 
z
" id="DejaVuSans-39" transform="scale(0.015625)"/>
       </defs>
       <use xlink:href="#DejaVuSans-32"/>
       <use x="63.623047" xlink:href="#DejaVuSans-38"/>
       <use x="127.246094" xlink:href="#DejaVuSans-39"/>
      </g>
     </g>
    </g>
    <g id="xtick_9">
     <g id="line2d_9">
      <g>
       <use style="stroke:#000000;stroke-width:0.8;" x="361.733928" xlink:href="#mc2e6d6f8d7" y="307.584"/>
      </g>
     </g>
     <g id="text_9">
      <!-- 330 -->
      <g transform="translate(352.190178 322.182437)scale(0.1 -0.1)">
       <use xlink:href="#DejaVuSans-33"/>
       <use x="63.623047" xlink:href="#DejaVuSans-33"/>
       <use x="127.246094" xlink:href="#DejaVuSans-30"/>
      </g>
     </g>
    </g>
    <g id="xtick_10">
     <g id="line2d_10">
      <g>
       <use style="stroke:#000000;stroke-width:0.8;" x="398.487273" xlink:href="#mc2e6d6f8d7" y="307.584"/>
      </g>
     </g>
     <g id="text_10">
      <!-- 372 -->
      <g transform="translate(388.943523 322.182437)scale(0.1 -0.1)">
       <use xlink:href="#DejaVuSans-33"/>
       <use x="63.623047" xlink:href="#DejaVuSans-37"/>
       <use x="127.246094" xlink:href="#DejaVuSans-32"/>
      </g>
     </g>
    </g>
    <g id="text_11">
     <!-- Epochs -->
     <g transform="translate(218.244375 335.860562)scale(0.1 -0.1)">
      <defs>
       <path d="M 628 4666 
L 3578 4666 
L 3578 4134 
L 1259 4134 
L 1259 2753 
L 3481 2753 
L 3481 2222 
L 1259 2222 
L 1259 531 
L 3634 531 
L 3634 0 
L 628 0 
L 628 4666 
z
" id="DejaVuSans-45" transform="scale(0.015625)"/>
       <path d="M 1159 525 
L 1159 -1331 
L 581 -1331 
L 581 3500 
L 1159 3500 
L 1159 2969 
Q 1341 3281 1617 3432 
Q 1894 3584 2278 3584 
Q 2916 3584 3314 3078 
Q 3713 2572 3713 1747 
Q 3713 922 3314 415 
Q 2916 -91 2278 -91 
Q 1894 -91 1617 61 
Q 1341 213 1159 525 
z
M 3116 1747 
Q 3116 2381 2855 2742 
Q 2594 3103 2138 3103 
Q 1681 3103 1420 2742 
Q 1159 2381 1159 1747 
Q 1159 1113 1420 752 
Q 1681 391 2138 391 
Q 2594 391 2855 752 
Q 3116 1113 3116 1747 
z
" id="DejaVuSans-70" transform="scale(0.015625)"/>
       <path d="M 1959 3097 
Q 1497 3097 1228 2736 
Q 959 2375 959 1747 
Q 959 1119 1226 758 
Q 1494 397 1959 397 
Q 2419 397 2687 759 
Q 2956 1122 2956 1747 
Q 2956 2369 2687 2733 
Q 2419 3097 1959 3097 
z
M 1959 3584 
Q 2709 3584 3137 3096 
Q 3566 2609 3566 1747 
Q 3566 888 3137 398 
Q 2709 -91 1959 -91 
Q 1206 -91 779 398 
Q 353 888 353 1747 
Q 353 2609 779 3096 
Q 1206 3584 1959 3584 
z
" id="DejaVuSans-6f" transform="scale(0.015625)"/>
       <path d="M 3122 3366 
L 3122 2828 
Q 2878 2963 2633 3030 
Q 2388 3097 2138 3097 
Q 1578 3097 1268 2742 
Q 959 2388 959 1747 
Q 959 1106 1268 751 
Q 1578 397 2138 397 
Q 2388 397 2633 464 
Q 2878 531 3122 666 
L 3122 134 
Q 2881 22 2623 -34 
Q 2366 -91 2075 -91 
Q 1284 -91 818 406 
Q 353 903 353 1747 
Q 353 2603 823 3093 
Q 1294 3584 2113 3584 
Q 2378 3584 2631 3529 
Q 2884 3475 3122 3366 
z
" id="DejaVuSans-63" transform="scale(0.015625)"/>
       <path d="M 3513 2113 
L 3513 0 
L 2938 0 
L 2938 2094 
Q 2938 2591 2744 2837 
Q 2550 3084 2163 3084 
Q 1697 3084 1428 2787 
Q 1159 2491 1159 1978 
L 1159 0 
L 581 0 
L 581 4863 
L 1159 4863 
L 1159 2956 
Q 1366 3272 1645 3428 
Q 1925 3584 2291 3584 
Q 2894 3584 3203 3211 
Q 3513 2838 3513 2113 
z
" id="DejaVuSans-68" transform="scale(0.015625)"/>
       <path d="M 2834 3397 
L 2834 2853 
Q 2591 2978 2328 3040 
Q 2066 3103 1784 3103 
Q 1356 3103 1142 2972 
Q 928 2841 928 2578 
Q 928 2378 1081 2264 
Q 1234 2150 1697 2047 
L 1894 2003 
Q 2506 1872 2764 1633 
Q 3022 1394 3022 966 
Q 3022 478 2636 193 
Q 2250 -91 1575 -91 
Q 1294 -91 989 -36 
Q 684 19 347 128 
L 347 722 
Q 666 556 975 473 
Q 1284 391 1588 391 
Q 1994 391 2212 530 
Q 2431 669 2431 922 
Q 2431 1156 2273 1281 
Q 2116 1406 1581 1522 
L 1381 1569 
Q 847 1681 609 1914 
Q 372 2147 372 2553 
Q 372 3047 722 3315 
Q 1072 3584 1716 3584 
Q 2034 3584 2315 3537 
Q 2597 3491 2834 3397 
z
" id="DejaVuSans-73" transform="scale(0.015625)"/>
      </defs>
      <use xlink:href="#DejaVuSans-45"/>
      <use x="63.183594" xlink:href="#DejaVuSans-70"/>
      <use x="126.660156" xlink:href="#DejaVuSans-6f"/>
      <use x="187.841797" xlink:href="#DejaVuSans-63"/>
      <use x="242.822266" xlink:href="#DejaVuSans-68"/>
      <use x="306.201172" xlink:href="#DejaVuSans-73"/>
     </g>
    </g>
   </g>
   <g id="matplotlib.axis_2">
    <g id="ytick_1">
     <g id="line2d_11">
      <defs>
       <path d="M 0 0 
L -3.5 0 
" id="mf2ee08c8c6" style="stroke:#000000;stroke-width:0.8;"/>
      </defs>
      <g>
       <use style="stroke:#000000;stroke-width:0.8;" x="57.6" xlink:href="#mf2ee08c8c6" y="256.959979"/>
      </g>
     </g>
     <g id="text_12">
      <!-- 20 -->
      <g transform="translate(37.875 260.759198)scale(0.1 -0.1)">
       <use xlink:href="#DejaVuSans-32"/>
       <use x="63.623047" xlink:href="#DejaVuSans-30"/>
      </g>
     </g>
    </g>
    <g id="ytick_2">
     <g id="line2d_12">
      <g>
       <use style="stroke:#000000;stroke-width:0.8;" x="57.6" xlink:href="#mf2ee08c8c6" y="201.106079"/>
      </g>
     </g>
     <g id="text_13">
      <!-- 40 -->
      <g transform="translate(37.875 204.905297)scale(0.1 -0.1)">
       <use xlink:href="#DejaVuSans-34"/>
       <use x="63.623047" xlink:href="#DejaVuSans-30"/>
      </g>
     </g>
    </g>
    <g id="ytick_3">
     <g id="line2d_13">
      <g>
       <use style="stroke:#000000;stroke-width:0.8;" x="57.6" xlink:href="#mf2ee08c8c6" y="145.252178"/>
      </g>
     </g>
     <g id="text_14">
      <!-- 60 -->
      <g transform="translate(37.875 149.051397)scale(0.1 -0.1)">
       <use xlink:href="#DejaVuSans-36"/>
       <use x="63.623047" xlink:href="#DejaVuSans-30"/>
      </g>
     </g>
    </g>
    <g id="ytick_4">
     <g id="line2d_14">
      <g>
       <use style="stroke:#000000;stroke-width:0.8;" x="57.6" xlink:href="#mf2ee08c8c6" y="89.398277"/>
      </g>
     </g>
     <g id="text_15">
      <!-- 80 -->
      <g transform="translate(37.875 93.197496)scale(0.1 -0.1)">
       <use xlink:href="#DejaVuSans-38"/>
       <use x="63.623047" xlink:href="#DejaVuSans-30"/>
      </g>
     </g>
    </g>
    <g id="text_16">
     <!-- Accuracy -->
     <g transform="translate(31.795312 197.356125)rotate(-90)scale(0.1 -0.1)">
      <defs>
       <path d="M 2188 4044 
L 1331 1722 
L 3047 1722 
L 2188 4044 
z
M 1831 4666 
L 2547 4666 
L 4325 0 
L 3669 0 
L 3244 1197 
L 1141 1197 
L 716 0 
L 50 0 
L 1831 4666 
z
" id="DejaVuSans-41" transform="scale(0.015625)"/>
       <path d="M 544 1381 
L 544 3500 
L 1119 3500 
L 1119 1403 
Q 1119 906 1312 657 
Q 1506 409 1894 409 
Q 2359 409 2629 706 
Q 2900 1003 2900 1516 
L 2900 3500 
L 3475 3500 
L 3475 0 
L 2900 0 
L 2900 538 
Q 2691 219 2414 64 
Q 2138 -91 1772 -91 
Q 1169 -91 856 284 
Q 544 659 544 1381 
z
M 1991 3584 
L 1991 3584 
z
" id="DejaVuSans-75" transform="scale(0.015625)"/>
       <path d="M 2631 2963 
Q 2534 3019 2420 3045 
Q 2306 3072 2169 3072 
Q 1681 3072 1420 2755 
Q 1159 2438 1159 1844 
L 1159 0 
L 581 0 
L 581 3500 
L 1159 3500 
L 1159 2956 
Q 1341 3275 1631 3429 
Q 1922 3584 2338 3584 
Q 2397 3584 2469 3576 
Q 2541 3569 2628 3553 
L 2631 2963 
z
" id="DejaVuSans-72" transform="scale(0.015625)"/>
       <path d="M 2194 1759 
Q 1497 1759 1228 1600 
Q 959 1441 959 1056 
Q 959 750 1161 570 
Q 1363 391 1709 391 
Q 2188 391 2477 730 
Q 2766 1069 2766 1631 
L 2766 1759 
L 2194 1759 
z
M 3341 1997 
L 3341 0 
L 2766 0 
L 2766 531 
Q 2569 213 2275 61 
Q 1981 -91 1556 -91 
Q 1019 -91 701 211 
Q 384 513 384 1019 
Q 384 1609 779 1909 
Q 1175 2209 1959 2209 
L 2766 2209 
L 2766 2266 
Q 2766 2663 2505 2880 
Q 2244 3097 1772 3097 
Q 1472 3097 1187 3025 
Q 903 2953 641 2809 
L 641 3341 
Q 956 3463 1253 3523 
Q 1550 3584 1831 3584 
Q 2591 3584 2966 3190 
Q 3341 2797 3341 1997 
z
" id="DejaVuSans-61" transform="scale(0.015625)"/>
       <path d="M 2059 -325 
Q 1816 -950 1584 -1140 
Q 1353 -1331 966 -1331 
L 506 -1331 
L 506 -850 
L 844 -850 
Q 1081 -850 1212 -737 
Q 1344 -625 1503 -206 
L 1606 56 
L 191 3500 
L 800 3500 
L 1894 763 
L 2988 3500 
L 3597 3500 
L 2059 -325 
z
" id="DejaVuSans-79" transform="scale(0.015625)"/>
      </defs>
      <use xlink:href="#DejaVuSans-41"/>
      <use x="66.658203" xlink:href="#DejaVuSans-63"/>
      <use x="121.638672" xlink:href="#DejaVuSans-63"/>
      <use x="176.619141" xlink:href="#DejaVuSans-75"/>
      <use x="239.998047" xlink:href="#DejaVuSans-72"/>
      <use x="281.111328" xlink:href="#DejaVuSans-61"/>
      <use x="342.390625" xlink:href="#DejaVuSans-63"/>
      <use x="397.371094" xlink:href="#DejaVuSans-79"/>
     </g>
    </g>
   </g>
   <g id="line2d_15">
    <path clip-path="url(#p20b5f2c82c)" d="M 73.832727 295.488 
L 75.582887 269.962767 
L 77.333046 241.79006 
L 78.208125 234.221856 
L 79.083205 229.541299 
L 79.958285 214.896407 
L 80.833364 209.07643 
L 81.708444 197.185135 
L 82.583524 196.095984 
L 83.458603 196.453449 
L 84.333683 217.772883 
L 85.208763 213.93572 
L 86.083842 207.881157 
L 86.958922 196.526059 
L 87.834001 193.951194 
L 88.709081 188.784708 
L 89.584161 188.471926 
L 90.45924 186.254526 
L 91.33432 179.686108 
L 92.2094 177.407269 
L 93.084479 171.190729 
L 93.959559 166.90115 
L 94.834639 163.47172 
L 96.584798 164.946263 
L 97.459877 153.797825 
L 98.334957 149.178707 
L 99.210037 151.736816 
L 100.085116 153.540897 
L 100.960196 138.896004 
L 101.835276 148.709534 
L 102.710355 140.163888 
L 103.585435 140.811793 
L 104.460515 138.890419 
L 105.335594 171.699 
L 106.210674 165.806413 
L 107.085753 168.755499 
L 107.960833 162.980206 
L 108.835913 162.751205 
L 109.710992 157.629402 
L 110.586072 170.425531 
L 111.461152 151.306741 
L 112.336231 143.98988 
L 113.211311 150.022101 
L 114.086391 149.971833 
L 114.96147 142.381287 
L 115.83655 145.173982 
L 116.71163 138.862492 
L 117.586709 139.873447 
L 118.461789 132.640367 
L 119.336868 137.756584 
L 120.211948 139.376348 
L 121.087028 136.242944 
L 121.962107 121.877321 
L 122.837187 139.895789 
L 123.712267 128.479252 
L 124.587346 125.155944 
L 125.462426 131.10997 
L 126.337506 119.883336 
L 127.212585 122.530811 
L 128.087665 115.509976 
L 128.962744 110.019537 
L 129.837824 114.806217 
L 130.712904 102.306114 
L 131.587983 111.589032 
L 132.463063 97.737265 
L 134.213222 101.714062 
L 135.088302 106.193545 
L 135.963382 109.008582 
L 136.838461 110.728882 
L 137.713541 96.234795 
L 138.58862 91.526311 
L 139.4637 92.615462 
L 140.33878 89.44296 
L 141.213859 92.738341 
L 142.088939 91.950801 
L 142.964019 80.070676 
L 143.839098 91.984313 
L 144.714178 99.988177 
L 145.589258 89.845108 
L 146.464337 96.419113 
L 147.339417 133.198906 
L 148.214496 126.507609 
L 149.089576 127.1611 
L 149.964656 119.084625 
L 150.839735 124.787309 
L 151.714815 115.806002 
L 152.589895 118.548428 
L 153.464974 125.692142 
L 154.340054 112.20901 
L 155.215134 119.933605 
L 156.965293 111.611374 
L 157.840372 108.589678 
L 158.715452 107.182159 
L 159.590532 106.232643 
L 160.465611 100.273032 
L 161.340691 103.456704 
L 162.215771 108.12609 
L 163.09085 101.585598 
L 163.96593 104.853052 
L 164.84101 103.624266 
L 165.716089 93.564978 
L 166.591169 99.46315 
L 167.466248 104.099024 
L 168.341328 96.625772 
L 169.216408 94.22964 
L 170.091487 99.524589 
L 170.966567 89.498814 
L 171.841647 77.775081 
L 172.716726 99.558102 
L 173.591806 104.607294 
L 174.466886 99.949079 
L 175.341965 97.23458 
L 176.217045 100.971206 
L 177.092124 92.08485 
L 177.967204 90.883991 
L 178.842284 92.034581 
L 179.717363 87.946076 
L 180.592443 82.963908 
L 181.467523 90.660575 
L 182.342602 93.36949 
L 183.217682 92.090435 
L 184.092762 91.654775 
L 184.967841 88.577225 
L 185.842921 90.420404 
L 186.718 89.543497 
L 187.59308 84.49989 
L 188.46816 91.336408 
L 189.343239 89.057568 
L 190.218319 74.965629 
L 191.093399 85.773359 
L 191.968478 92.783024 
L 192.843558 86.326313 
L 193.718638 87.72266 
L 194.593717 78.305693 
L 195.468797 84.684208 
L 196.343877 76.719442 
L 197.218956 86.052629 
L 198.094036 84.611598 
L 198.969115 75.959829 
L 199.844195 88.688933 
L 200.719275 87.309341 
L 201.594354 84.393768 
L 202.469434 80.495166 
L 203.344514 73.921161 
L 204.219593 69.625996 
L 205.094673 73.312354 
L 205.969753 82.193124 
L 206.844832 76.574222 
L 207.719912 80.668313 
L 208.594991 77.093663 
L 209.470071 69.938778 
L 210.345151 76.144147 
L 211.22023 70.206877 
L 212.09531 72.580668 
L 212.97039 78.445327 
L 213.845469 66.190982 
L 214.720549 66.866814 
L 215.595629 65.654784 
L 216.470708 81.360901 
L 217.345788 66.475836 
L 218.220867 70.352097 
L 219.095947 81.802147 
L 219.971027 73.317939 
L 220.846106 81.003436 
L 221.721186 73.245329 
L 222.596266 71.815469 
L 223.471345 83.181738 
L 224.346425 66.431153 
L 225.221505 71.011173 
L 226.096584 68.090014 
L 226.971664 70.514073 
L 227.846743 76.585392 
L 228.721823 69.514289 
L 229.596903 76.339635 
L 230.471982 70.743074 
L 231.347062 92.905902 
L 232.222142 98.223194 
L 233.097221 102.563042 
L 233.972301 97.793119 
L 234.847381 90.666161 
L 236.59754 106.433717 
L 237.472619 96.463796 
L 238.347699 82.338344 
L 239.222779 96.849188 
L 240.097858 97.798704 
L 240.972938 97.793119 
L 241.848018 93.888931 
L 242.723097 108.589678 
L 244.473257 84.689793 
L 245.348336 88.638664 
L 246.223416 93.520295 
L 247.098495 92.08485 
L 247.973575 84.862941 
L 248.848655 94.559178 
L 249.723734 99.66981 
L 251.473894 92.554023 
L 252.348973 92.196558 
L 253.224053 85.739847 
L 254.099133 86.393337 
L 254.974212 84.578086 
L 255.849292 86.605582 
L 256.724371 84.036303 
L 257.599451 89.951231 
L 258.474531 80.003651 
L 259.34961 85.85714 
L 260.22469 79.026208 
L 261.09977 90.688502 
L 261.974849 86.052629 
L 262.849929 93.637588 
L 263.725009 87.65005 
L 264.600088 75.32868 
L 265.475168 81.70161 
L 266.350247 81.99205 
L 267.225327 75.848121 
L 268.100407 79.690869 
L 268.975486 79.657357 
L 269.850566 87.130609 
L 270.725646 89.001715 
L 271.600725 88.493444 
L 272.475805 73.440818 
L 273.350885 80.534263 
L 274.225964 81.656927 
L 275.101044 83.779375 
L 275.976123 80.847045 
L 276.851203 85.85714 
L 277.726283 89.269813 
L 278.601362 94.469811 
L 279.476442 87.571855 
L 280.351522 74.021698 
L 281.226601 81.880342 
L 282.101681 79.070891 
L 282.976761 83.003006 
L 283.85184 81.874757 
L 284.72692 78.378303 
L 285.602 87.415464 
L 286.477079 79.914285 
L 287.352159 75.987756 
L 288.227238 75.736413 
L 289.102318 78.501181 
L 289.977398 79.970139 
L 290.852477 73.200646 
L 291.727557 76.84232 
L 292.602637 79.104403 
L 293.477716 82.494735 
L 294.352796 82.841029 
L 295.227876 70.419122 
L 296.102955 76.84232 
L 296.978035 76.847906 
L 297.853114 80.567776 
L 298.728194 81.718366 
L 299.603274 78.76928 
L 300.478353 73.854137 
L 301.353433 81.885928 
L 302.228513 79.383673 
L 303.103592 66.403226 
L 303.978672 75.725242 
L 304.853752 75.04941 
L 305.728831 80.232652 
L 306.603911 70.60344 
L 307.47899 76.875833 
L 308.35407 78.188399 
L 309.22915 73.18389 
L 310.104229 74.133406 
L 310.979309 70.486147 
L 311.854389 73.368208 
L 312.729468 74.546725 
L 313.604548 66.207738 
L 314.479628 66.704837 
L 315.354707 77.216542 
L 316.229787 74.853922 
L 317.104866 69.843827 
L 317.979946 77.333835 
L 318.855026 70.206877 
L 319.730105 70.631367 
L 320.605185 75.010312 
L 321.480265 66.626642 
L 322.355344 63.303335 
L 323.230424 80.567776 
L 324.105504 73.736844 
L 324.980583 73.239744 
L 325.855663 69.022774 
L 326.730742 69.201507 
L 327.605822 70.162194 
L 328.480902 66.258006 
L 329.355981 66.777448 
L 330.231061 73.234158 
L 331.106141 74.306553 
L 331.98122 78.19957 
L 332.8563 78.808378 
L 334.606459 65.945224 
L 335.481539 66.643398 
L 336.356618 61.87906 
L 337.231698 69.776802 
L 338.106778 65.068318 
L 338.981857 67.827501 
L 339.856937 60.505054 
L 340.732017 75.864877 
L 341.607096 74.569067 
L 342.482176 62.314721 
L 343.357256 62.476697 
L 344.232335 73.317939 
L 345.107415 67.291303 
L 345.982494 70.435878 
L 346.857574 69.352312 
L 347.732654 63.30892 
L 348.607733 66.755106 
L 349.482813 64.174656 
L 350.357893 69.966705 
L 351.232972 59.036097 
L 352.108052 66.816545 
L 352.983132 59.198073 
L 353.858211 64.425998 
L 354.733291 66.88357 
L 355.60837 66.101615 
L 356.48345 69.302044 
L 357.35853 61.381961 
L 358.233609 65.604516 
L 359.108689 64.029436 
L 359.983769 63.141359 
L 360.858848 64.789049 
L 361.733928 62.694527 
L 362.609008 69.726533 
L 363.484087 65.403442 
L 364.359167 72.25113 
L 365.234247 66.877985 
L 366.109326 70.815685 
L 366.984406 64.414828 
L 367.859485 66.743935 
L 368.734565 69.458435 
L 369.609645 68.659724 
L 370.484724 59.259512 
L 371.359804 65.721809 
L 372.234884 64.325461 
L 373.109963 60.879276 
L 373.985043 65.420198 
L 374.860123 66.185396 
L 375.735202 65.498393 
L 376.610282 68.592699 
L 377.485361 57.768213 
L 378.360441 75.26724 
L 379.235521 64.951025 
L 380.1106 73.597209 
L 380.98568 64.526535 
L 381.86076 66.285933 
L 382.735839 62.80065 
L 383.610919 57.913433 
L 384.485999 62.080134 
L 385.361078 67.386255 
L 386.236158 69.123311 
L 387.111237 64.599145 
L 387.986317 57.293455 
L 388.861397 58.242971 
L 389.736476 64.465096 
L 390.611556 63.895386 
L 391.486636 58.298825 
L 392.361715 53.568 
L 393.236795 70.491732 
L 394.111875 60.879276 
L 394.986954 61.069179 
L 395.862034 56.193133 
L 396.737113 58.946731 
L 397.612193 62.471112 
L 398.487273 67.146083 
L 398.487273 67.146083 
" style="fill:none;stroke:#1f77b4;stroke-linecap:square;stroke-width:1.5;"/>
   </g>
   <g id="line2d_16">
    <path clip-path="url(#p20b5f2c82c)" d="M 73.832727 282.178015 
L 74.707807 267.628074 
L 75.582887 248.051282 
L 76.457966 243.778459 
L 77.333046 223.698981 
L 78.208125 213.812841 
L 79.083205 212.276859 
L 79.958285 203.033038 
L 80.833364 185.215644 
L 81.708444 179.323057 
L 82.583524 170.246799 
L 83.458603 167.091053 
L 84.333683 193.817145 
L 85.208763 196.889109 
L 86.083842 195.660323 
L 86.958922 177.424025 
L 87.834001 182.981488 
L 88.709081 167.705446 
L 89.584161 165.443363 
L 90.45924 173.234982 
L 91.33432 159.718338 
L 92.2094 149.050243 
L 93.084479 149.943906 
L 93.959559 142.571191 
L 94.834639 143.520707 
L 95.709718 143.353145 
L 96.584798 130.786018 
L 97.459877 129.110401 
L 98.334957 125.619532 
L 99.210037 123.748426 
L 100.085116 121.542197 
L 100.960196 121.653905 
L 101.835276 116.878396 
L 103.585435 115.509976 
L 104.460515 115.593757 
L 105.335594 167.202761 
L 106.210674 150.642079 
L 107.085753 149.971833 
L 107.960833 140.476669 
L 108.835913 146.536818 
L 109.710992 135.729088 
L 110.586072 138.605564 
L 111.461152 143.911684 
L 112.336231 137.237143 
L 113.211311 131.847242 
L 114.086391 133.103955 
L 114.96147 133.299443 
L 115.83655 131.456264 
L 116.71163 127.155514 
L 117.586709 128.551862 
L 119.336868 116.236077 
L 120.211948 122.659275 
L 121.087028 124.586235 
L 121.962107 116.990104 
L 122.837187 117.073885 
L 123.712267 112.99655 
L 124.587346 109.757024 
L 125.462426 112.99655 
L 126.337506 112.605573 
L 128.087665 105.512128 
L 128.962744 106.322009 
L 129.837824 105.093223 
L 130.712904 104.11578 
L 131.587983 103.417606 
L 132.463063 101.351012 
L 133.338143 101.630282 
L 134.213222 100.094299 
L 135.088302 98.306974 
L 135.963382 99.675395 
L 136.838461 99.898811 
L 137.713541 95.849403 
L 138.58862 96.631357 
L 139.4637 95.402572 
L 140.33878 94.927813 
L 141.213859 95.681841 
L 142.088939 95.933184 
L 142.964019 95.793549 
L 143.839098 95.374645 
L 144.714178 95.207083 
L 145.589258 95.23501 
L 146.464337 95.625987 
L 147.339417 135.61738 
L 148.214496 127.043806 
L 149.089576 121.095366 
L 149.964656 130.339186 
L 150.839735 128.579789 
L 151.714815 122.659275 
L 152.589895 118.49816 
L 153.464974 123.301595 
L 154.340054 118.302671 
L 155.215134 114.839729 
L 156.090213 115.118999 
L 156.965293 117.716205 
L 157.840372 117.548643 
L 158.715452 116.627054 
L 159.590532 109.645316 
L 160.465611 112.912769 
L 161.340691 114.755948 
L 162.215771 114.616313 
L 163.09085 112.605573 
L 163.96593 109.98044 
L 164.84101 112.326304 
L 165.716089 108.779581 
L 166.591169 106.294082 
L 167.466248 107.159818 
L 168.341328 111.683984 
L 169.216408 107.41116 
L 170.091487 106.294082 
L 170.966567 103.641022 
L 171.841647 105.037369 
L 172.716726 107.997626 
L 173.591806 108.6958 
L 174.466886 104.618465 
L 175.341965 108.193115 
L 176.217045 106.461644 
L 177.092124 103.054556 
L 177.967204 102.914921 
L 178.842284 106.266155 
L 179.717363 100.764546 
L 181.467523 104.339196 
L 182.342602 103.417606 
L 183.217682 100.513204 
L 184.092762 103.920291 
L 184.967841 101.658208 
L 185.842921 100.261861 
L 186.718 100.345642 
L 187.59308 98.279047 
L 188.46816 101.267231 
L 189.343239 97.943924 
L 190.218319 97.832216 
L 191.093399 96.51965 
L 191.968478 97.832216 
L 192.843558 97.161969 
L 193.718638 96.128672 
L 194.593717 95.570133 
L 195.468797 94.676471 
L 196.343877 95.458426 
L 197.218956 96.044891 
L 198.094036 96.296234 
L 198.969115 95.681841 
L 199.844195 95.793549 
L 200.719275 94.899887 
L 201.594354 95.039521 
L 202.469434 94.564763 
L 203.344514 93.531466 
L 204.219593 92.972927 
L 205.094673 93.531466 
L 205.969753 94.480982 
L 206.844832 91.967557 
L 207.719912 92.554023 
L 208.594991 91.93963 
L 209.470071 91.157675 
L 210.345151 91.911703 
L 211.22023 91.185602 
L 212.09531 91.492799 
L 213.845469 90.822552 
L 214.720549 91.101821 
L 215.595629 90.431574 
L 216.470708 90.878406 
L 217.345788 90.543282 
L 218.220867 90.375721 
L 219.095947 90.599136 
L 219.971027 89.817182 
L 220.846106 90.515355 
L 221.721186 90.794625 
L 222.596266 90.040597 
L 223.471345 90.627063 
L 224.346425 89.761328 
L 225.221505 90.347794 
L 226.096584 89.984743 
L 226.971664 89.398277 
L 227.846743 89.900962 
L 228.721823 90.180232 
L 230.471982 89.789255 
L 231.347062 120.844023 
L 232.222142 114.085701 
L 233.097221 110.566906 
L 233.972301 111.404714 
L 234.847381 118.107182 
L 235.72246 112.99655 
L 236.59754 115.174852 
L 237.472619 111.209225 
L 238.347699 109.393974 
L 239.222779 111.293006 
L 240.097858 111.767765 
L 240.972938 109.142631 
L 241.848018 109.05885 
L 242.723097 111.041664 
L 243.598177 106.349936 
L 244.473257 109.170558 
L 245.348336 108.612019 
L 246.223416 108.667873 
L 247.098495 110.175928 
L 247.973575 108.33275 
L 248.848655 109.142631 
L 249.723734 107.634576 
L 250.598814 108.779581 
L 251.473894 108.751654 
L 253.224053 105.149077 
L 254.099133 108.276896 
L 254.974212 107.802138 
L 255.849292 107.997626 
L 256.724371 104.143707 
L 257.599451 104.646392 
L 258.474531 106.433717 
L 259.34961 108.639946 
L 260.22469 103.75273 
L 261.09977 106.433717 
L 261.974849 107.355306 
L 262.849929 104.869808 
L 263.725009 106.964329 
L 264.600088 104.339196 
L 266.350247 105.819324 
L 267.225327 105.484201 
L 268.975486 103.557241 
L 269.850566 108.723727 
L 270.725646 105.595908 
L 271.600725 105.456274 
L 272.475805 103.389679 
L 273.350885 104.534684 
L 274.225964 103.222118 
L 275.101044 109.98044 
L 275.976123 102.160894 
L 276.851203 106.517498 
L 277.726283 103.250045 
L 278.601362 106.824694 
L 279.476442 103.389679 
L 280.351522 102.719433 
L 281.226601 102.942848 
L 282.101681 103.696876 
L 282.976761 100.736619 
L 283.85184 101.406866 
L 284.72692 103.696876 
L 285.602 100.094299 
L 286.477079 106.992256 
L 287.352159 103.808584 
L 288.227238 101.434793 
L 289.102318 102.914921 
L 289.977398 102.551871 
L 290.852477 101.965405 
L 291.727557 103.082483 
L 292.602637 100.569057 
L 293.477716 101.546501 
L 294.352796 105.595908 
L 295.227876 106.294082 
L 296.102955 100.233934 
L 296.978035 102.579798 
L 297.853114 102.496017 
L 298.728194 99.340272 
L 299.603274 99.759176 
L 301.353433 103.277972 
L 302.228513 98.725879 
L 303.103592 101.043816 
L 303.978672 98.446609 
L 305.728831 99.451979 
L 306.603911 98.781733 
L 307.47899 99.842957 
L 308.35407 100.150153 
L 309.22915 98.027705 
L 310.104229 98.446609 
L 310.979309 97.106116 
L 311.854389 102.691506 
L 312.729468 98.446609 
L 313.604548 98.223194 
L 314.479628 98.390755 
L 315.354707 99.200637 
L 316.229787 98.446609 
L 317.104866 96.044891 
L 317.979946 98.279047 
L 318.855026 99.703322 
L 319.730105 97.161969 
L 320.605185 98.502463 
L 321.480265 96.296234 
L 322.355344 98.697952 
L 323.230424 97.413312 
L 324.105504 98.223194 
L 324.980583 98.334901 
L 325.855663 97.580874 
L 326.730742 96.994408 
L 327.605822 95.737695 
L 328.480902 95.123302 
L 329.355981 97.050262 
L 330.231061 95.59806 
L 331.106141 97.999778 
L 331.98122 96.072818 
L 332.8563 97.943924 
L 333.73138 97.189896 
L 334.606459 95.486352 
L 335.481539 96.966481 
L 336.356618 96.51965 
L 337.231698 94.844033 
L 338.106778 96.016965 
L 338.981857 94.508909 
L 339.856937 94.480982 
L 340.732017 95.793549 
L 342.482176 94.816106 
L 343.357256 95.151229 
L 344.232335 93.866589 
L 345.107415 93.754882 
L 345.982494 93.810735 
L 346.857574 92.945 
L 347.732654 93.726955 
L 348.607733 94.676471 
L 349.482813 93.447685 
L 350.357893 92.442315 
L 351.232972 92.609877 
L 352.108052 93.056708 
L 352.983132 92.135118 
L 353.858211 92.330607 
L 355.60837 93.140489 
L 356.48345 91.604506 
L 357.35853 92.386461 
L 358.233609 92.917073 
L 359.108689 92.917073 
L 359.983769 91.855849 
L 360.858848 91.213529 
L 361.733928 92.526096 
L 362.609008 91.967557 
L 363.484087 92.721584 
L 364.359167 92.330607 
L 365.234247 91.129748 
L 366.984406 91.995484 
L 367.859485 91.409018 
L 368.734565 91.381091 
L 369.609645 91.464872 
L 370.484724 91.409018 
L 371.359804 90.124378 
L 372.234884 91.604506 
L 373.109963 90.906333 
L 373.985043 90.990113 
L 374.860123 90.375721 
L 375.735202 90.431574 
L 376.610282 90.93426 
L 377.485361 90.93426 
L 379.235521 91.967557 
L 380.1106 90.65499 
L 380.98568 90.990113 
L 381.86076 90.124378 
L 382.735839 90.599136 
L 383.610919 90.738771 
L 384.485999 91.436945 
L 385.361078 91.548652 
L 386.236158 90.710844 
L 387.111237 90.515355 
L 387.986317 90.878406 
L 388.861397 90.403647 
L 389.736476 90.543282 
L 390.611556 90.29194 
L 391.486636 90.29194 
L 392.361715 90.906333 
L 393.236795 90.93426 
L 394.111875 91.325237 
L 394.986954 90.878406 
L 395.862034 90.990113 
L 396.737113 90.571209 
L 397.612193 91.29731 
L 398.487273 91.29731 
L 398.487273 91.29731 
" style="fill:none;stroke:#ff7f0e;stroke-linecap:square;stroke-width:1.5;"/>
   </g>
   <g id="line2d_17">
    <path clip-path="url(#p20b5f2c82c)" d="M 73.832727 285.680643 
L 74.707807 271.276216 
L 75.582887 261.384196 
L 76.457966 255.8576 
L 77.333046 235.750195 
L 78.208125 224.770494 
L 79.083205 221.625038 
L 79.958285 220.787229 
L 80.833364 205.368613 
L 81.708444 200.091889 
L 82.583524 190.640821 
L 83.458603 188.27438 
L 84.333683 212.894191 
L 85.208763 214.55511 
L 86.083842 215.892664 
L 86.958922 200.459349 
L 87.834001 202.56122 
L 88.709081 188.450761 
L 89.584161 183.894258 
L 90.45924 193.845072 
L 91.33432 179.161375 
L 92.2094 174.369698 
L 93.084479 174.928237 
L 93.959559 167.549643 
L 94.834639 170.944972 
L 95.709718 169.50453 
L 96.584798 162.140634 
L 98.334957 155.320578 
L 100.085116 150.734679 
L 100.960196 149.749887 
L 102.710355 144.546655 
L 103.585435 145.928304 
L 104.460515 144.531957 
L 105.335594 188.921109 
L 106.210674 176.133506 
L 107.085753 174.884142 
L 107.960833 172.811668 
L 108.835913 175.075221 
L 109.710992 167.461453 
L 110.586072 166.902914 
L 111.461152 169.13707 
L 112.336231 164.771646 
L 113.211311 161.052952 
L 114.086391 159.774192 
L 114.96147 162.008348 
L 115.83655 161.699682 
L 116.71163 158.230861 
L 117.586709 158.42194 
L 118.461789 149.80868 
L 119.336868 143.797037 
L 120.211948 152.895343 
L 121.087028 152.718963 
L 121.962107 147.736207 
L 122.837187 149.382427 
L 123.712267 140.416406 
L 124.587346 138.329234 
L 125.462426 142.650562 
L 126.337506 144.252687 
L 127.212585 141.592278 
L 128.087665 136.874093 
L 128.962744 133.846224 
L 129.837824 135.198476 
L 130.712904 135.036793 
L 131.587983 132.332289 
L 132.463063 129.128039 
L 133.338143 129.598387 
L 134.213222 127.305438 
L 135.088302 127.908072 
L 135.963382 128.319627 
L 136.838461 129.598387 
L 137.713541 124.600933 
L 138.58862 124.953695 
L 139.4637 123.483855 
L 140.33878 124.498044 
L 141.213859 123.719029 
L 142.088939 123.498553 
L 143.839098 123.630839 
L 146.464337 123.0723 
L 147.339417 165.962216 
L 148.214496 155.496959 
L 149.089576 150.220235 
L 149.964656 157.819306 
L 150.839735 157.466544 
L 151.714815 152.395598 
L 152.589895 146.192875 
L 153.464974 152.366201 
L 154.340054 149.044364 
L 155.215134 141.166024 
L 156.090213 143.797037 
L 156.965293 141.886246 
L 157.840372 145.575543 
L 158.715452 148.603412 
L 159.590532 140.445803 
L 160.465611 136.462538 
L 161.340691 146.266367 
L 162.215771 143.605958 
L 163.09085 142.738752 
L 163.96593 140.19593 
L 164.84101 140.739771 
L 165.716089 138.579107 
L 166.591169 136.065681 
L 168.341328 141.577579 
L 169.216408 135.463047 
L 170.966567 133.184796 
L 171.841647 137.373838 
L 172.716726 137.844187 
L 173.591806 137.226854 
L 174.466886 134.492953 
L 175.341965 135.977491 
L 176.217045 136.741807 
L 177.092124 133.111304 
L 177.967204 131.49448 
L 178.842284 135.06619 
L 179.717363 129.642483 
L 180.592443 131.685559 
L 181.467523 130.891846 
L 182.342602 132.185305 
L 183.217682 131.112322 
L 184.092762 130.377402 
L 184.967841 128.789976 
L 185.842921 126.688105 
L 186.718 128.922261 
L 187.59308 125.864995 
L 188.46816 131.906035 
L 189.343239 124.159981 
L 190.218319 127.614104 
L 191.093399 125.615122 
L 191.968478 125.938487 
L 192.843558 125.850297 
L 193.718638 123.998299 
L 194.593717 122.70484 
L 195.468797 123.307474 
L 196.343877 125.08598 
L 197.218956 124.130584 
L 198.969115 124.659727 
L 199.844195 124.086489 
L 200.719275 122.322682 
L 202.469434 122.719539 
L 203.344514 120.852842 
L 204.219593 120.470684 
L 205.094673 120.353097 
L 205.969753 120.441287 
L 206.844832 118.750972 
L 207.719912 119.191924 
L 208.594991 120.69116 
L 209.470071 118.280623 
L 210.345151 119.676971 
L 211.22023 117.751481 
L 212.09531 118.603988 
L 212.97039 117.045958 
L 213.845469 117.222339 
L 214.720549 117.104752 
L 215.595629 117.619196 
L 217.345788 116.810784 
L 218.220867 116.002372 
L 219.095947 116.590308 
L 219.971027 116.119959 
L 220.846106 116.781387 
L 221.721186 118.074846 
L 222.596266 116.487419 
L 223.471345 116.29634 
L 224.346425 115.723103 
L 225.221505 116.266943 
L 226.096584 115.385039 
L 226.971664 115.149865 
L 227.846743 115.693706 
L 228.721823 116.105261 
L 230.471982 115.502627 
L 231.347062 152.322106 
L 232.222142 143.135609 
L 233.097221 140.342914 
L 233.972301 142.385991 
L 234.847381 147.897889 
L 235.72246 141.66577 
L 236.59754 148.030175 
L 237.472619 139.754978 
L 238.347699 138.417424 
L 239.222779 142.709356 
L 240.097858 142.047928 
L 240.972938 140.313517 
L 241.848018 139.46101 
L 242.723097 141.210119 
L 243.598177 134.61054 
L 244.473257 136.800601 
L 245.348336 136.403744 
L 246.223416 137.711901 
L 247.098495 140.504596 
L 247.973575 139.181741 
L 248.848655 138.476218 
L 249.723734 135.463047 
L 250.598814 140.842659 
L 251.473894 138.667297 
L 252.348973 136.888791 
L 253.224053 132.464574 
L 254.099133 138.564408 
L 254.974212 136.006888 
L 255.849292 139.37282 
L 256.724371 133.537557 
L 257.599451 131.420988 
L 258.474531 136.683014 
L 259.34961 138.535011 
L 260.22469 131.876639 
L 261.09977 139.446312 
L 261.974849 137.976472 
L 262.849929 133.846224 
L 263.725009 136.653617 
L 264.600088 133.317081 
L 265.475168 133.464065 
L 266.350247 135.933396 
L 267.225327 135.139682 
L 268.100407 130.024641 
L 268.975486 132.449876 
L 269.850566 138.652599 
L 270.725646 137.197458 
L 271.600725 137.770695 
L 272.475805 133.243589 
L 273.350885 135.227873 
L 274.225964 132.567463 
L 275.101044 139.034757 
L 275.976123 130.230418 
L 276.851203 133.081907 
L 277.726283 131.86194 
L 278.601362 136.109776 
L 279.476442 133.596351 
L 280.351522 128.892864 
L 281.226601 131.788448 
L 282.101681 131.509179 
L 282.976761 129.524895 
L 284.72692 135.859904 
L 285.602 128.451913 
L 286.477079 136.418443 
L 287.352159 134.037303 
L 288.227238 132.361686 
L 289.102318 131.12702 
L 289.977398 132.714447 
L 290.852477 130.67137 
L 291.727557 132.670352 
L 292.602637 129.951149 
L 293.477716 128.789976 
L 295.227876 134.742826 
L 296.102955 129.451403 
L 296.978035 130.847751 
L 297.853114 131.303401 
L 298.728194 128.598897 
L 299.603274 129.377911 
L 300.478353 129.304419 
L 301.353433 132.949621 
L 302.228513 124.512743 
L 303.103592 127.364231 
L 303.978672 126.585216 
L 304.853752 126.041376 
L 305.728831 127.761088 
L 306.603911 124.659727 
L 307.47899 128.716484 
L 308.35407 129.436705 
L 309.22915 125.629821 
L 310.104229 128.628293 
L 310.979309 125.482837 
L 311.854389 131.567972 
L 312.729468 125.791503 
L 313.604548 123.278078 
L 314.479628 125.526932 
L 315.354707 125.835598 
L 316.229787 125.071282 
L 317.104866 123.175189 
L 317.979946 124.850806 
L 318.855026 127.055565 
L 319.730105 126.482328 
L 320.605185 126.717502 
L 321.480265 125.438742 
L 322.355344 125.232964 
L 323.230424 125.174171 
L 324.105504 127.158454 
L 324.980583 124.777314 
L 325.855663 125.600424 
L 326.730742 124.689123 
L 327.605822 123.057602 
L 328.480902 120.470684 
L 329.355981 122.263888 
L 330.231061 121.808238 
L 331.106141 125.100679 
L 331.98122 122.307983 
L 332.8563 127.658199 
L 334.606459 119.882748 
L 335.481539 123.395665 
L 336.356618 124.71852 
L 337.231698 123.748426 
L 338.106778 125.232964 
L 338.981857 122.631348 
L 339.856937 122.601951 
L 340.732017 122.352079 
L 341.607096 124.792012 
L 342.482176 122.734237 
L 343.357256 122.161 
L 344.232335 120.044431 
L 345.107415 122.072809 
L 345.982494 120.191415 
L 346.857574 120.103224 
L 347.732654 120.367795 
L 348.607733 122.969411 
L 349.482813 121.073318 
L 350.357893 117.986655 
L 351.232972 118.76567 
L 352.108052 120.250208 
L 352.983132 118.618686 
L 353.858211 119.030241 
L 354.733291 117.104752 
L 355.60837 118.383512 
L 356.48345 118.383512 
L 357.35853 118.060147 
L 358.233609 119.191924 
L 359.108689 119.250717 
L 359.983769 118.942051 
L 360.858848 120.3237 
L 361.733928 120.044431 
L 362.609008 117.604497 
L 364.359167 117.986655 
L 365.234247 117.677989 
L 366.109326 116.796085 
L 366.984406 118.58929 
L 367.859485 117.11945 
L 368.734565 117.839671 
L 369.609645 118.192433 
L 370.484724 117.090053 
L 371.359804 116.355134 
L 372.234884 117.531005 
L 373.109963 117.075355 
L 373.985043 117.178244 
L 374.860123 116.252245 
L 375.735202 117.266434 
L 378.360441 116.913673 
L 379.235521 118.412909 
L 380.98568 115.620214 
L 382.735839 116.178753 
L 383.610919 115.576119 
L 384.485999 116.252245 
L 385.361078 115.56142 
L 386.236158 116.075864 
L 388.861397 116.046467 
L 389.736476 115.767198 
L 390.611556 115.296849 
L 391.486636 115.267452 
L 392.361715 116.046467 
L 393.236795 116.29634 
L 394.111875 115.47323 
L 394.986954 115.10577 
L 395.862034 116.222848 
L 396.737113 114.503136 
L 397.612193 116.075864 
L 398.487273 116.340435 
L 398.487273 116.340435 
" style="fill:none;stroke:#2ca02c;stroke-linecap:square;stroke-width:1.5;"/>
   </g>
   <g id="patch_3">
    <path d="M 57.6 307.584 
L 57.6 41.472 
" style="fill:none;stroke:#000000;stroke-linecap:square;stroke-linejoin:miter;stroke-width:0.8;"/>
   </g>
   <g id="patch_4">
    <path d="M 414.72 307.584 
L 414.72 41.472 
" style="fill:none;stroke:#000000;stroke-linecap:square;stroke-linejoin:miter;stroke-width:0.8;"/>
   </g>
   <g id="patch_5">
    <path d="M 57.6 307.584 
L 414.72 307.584 
" style="fill:none;stroke:#000000;stroke-linecap:square;stroke-linejoin:miter;stroke-width:0.8;"/>
   </g>
   <g id="patch_6">
    <path d="M 57.6 41.472 
L 414.72 41.472 
" style="fill:none;stroke:#000000;stroke-linecap:square;stroke-linejoin:miter;stroke-width:0.8;"/>
   </g>
   <g id="text_17">
    <!-- Training and Validation Accuracy -->
    <g transform="translate(138.4575 35.472)scale(0.12 -0.12)">
     <defs>
      <path d="M -19 4666 
L 3928 4666 
L 3928 4134 
L 2272 4134 
L 2272 0 
L 1638 0 
L 1638 4134 
L -19 4134 
L -19 4666 
z
" id="DejaVuSans-54" transform="scale(0.015625)"/>
      <path d="M 603 3500 
L 1178 3500 
L 1178 0 
L 603 0 
L 603 3500 
z
M 603 4863 
L 1178 4863 
L 1178 4134 
L 603 4134 
L 603 4863 
z
" id="DejaVuSans-69" transform="scale(0.015625)"/>
      <path d="M 3513 2113 
L 3513 0 
L 2938 0 
L 2938 2094 
Q 2938 2591 2744 2837 
Q 2550 3084 2163 3084 
Q 1697 3084 1428 2787 
Q 1159 2491 1159 1978 
L 1159 0 
L 581 0 
L 581 3500 
L 1159 3500 
L 1159 2956 
Q 1366 3272 1645 3428 
Q 1925 3584 2291 3584 
Q 2894 3584 3203 3211 
Q 3513 2838 3513 2113 
z
" id="DejaVuSans-6e" transform="scale(0.015625)"/>
      <path d="M 2906 1791 
Q 2906 2416 2648 2759 
Q 2391 3103 1925 3103 
Q 1463 3103 1205 2759 
Q 947 2416 947 1791 
Q 947 1169 1205 825 
Q 1463 481 1925 481 
Q 2391 481 2648 825 
Q 2906 1169 2906 1791 
z
M 3481 434 
Q 3481 -459 3084 -895 
Q 2688 -1331 1869 -1331 
Q 1566 -1331 1297 -1286 
Q 1028 -1241 775 -1147 
L 775 -588 
Q 1028 -725 1275 -790 
Q 1522 -856 1778 -856 
Q 2344 -856 2625 -561 
Q 2906 -266 2906 331 
L 2906 616 
Q 2728 306 2450 153 
Q 2172 0 1784 0 
Q 1141 0 747 490 
Q 353 981 353 1791 
Q 353 2603 747 3093 
Q 1141 3584 1784 3584 
Q 2172 3584 2450 3431 
Q 2728 3278 2906 2969 
L 2906 3500 
L 3481 3500 
L 3481 434 
z
" id="DejaVuSans-67" transform="scale(0.015625)"/>
      <path id="DejaVuSans-20" transform="scale(0.015625)"/>
      <path d="M 2906 2969 
L 2906 4863 
L 3481 4863 
L 3481 0 
L 2906 0 
L 2906 525 
Q 2725 213 2448 61 
Q 2172 -91 1784 -91 
Q 1150 -91 751 415 
Q 353 922 353 1747 
Q 353 2572 751 3078 
Q 1150 3584 1784 3584 
Q 2172 3584 2448 3432 
Q 2725 3281 2906 2969 
z
M 947 1747 
Q 947 1113 1208 752 
Q 1469 391 1925 391 
Q 2381 391 2643 752 
Q 2906 1113 2906 1747 
Q 2906 2381 2643 2742 
Q 2381 3103 1925 3103 
Q 1469 3103 1208 2742 
Q 947 2381 947 1747 
z
" id="DejaVuSans-64" transform="scale(0.015625)"/>
      <path d="M 1831 0 
L 50 4666 
L 709 4666 
L 2188 738 
L 3669 4666 
L 4325 4666 
L 2547 0 
L 1831 0 
z
" id="DejaVuSans-56" transform="scale(0.015625)"/>
      <path d="M 603 4863 
L 1178 4863 
L 1178 0 
L 603 0 
L 603 4863 
z
" id="DejaVuSans-6c" transform="scale(0.015625)"/>
      <path d="M 1172 4494 
L 1172 3500 
L 2356 3500 
L 2356 3053 
L 1172 3053 
L 1172 1153 
Q 1172 725 1289 603 
Q 1406 481 1766 481 
L 2356 481 
L 2356 0 
L 1766 0 
Q 1100 0 847 248 
Q 594 497 594 1153 
L 594 3053 
L 172 3053 
L 172 3500 
L 594 3500 
L 594 4494 
L 1172 4494 
z
" id="DejaVuSans-74" transform="scale(0.015625)"/>
     </defs>
     <use xlink:href="#DejaVuSans-54"/>
     <use x="46.333984" xlink:href="#DejaVuSans-72"/>
     <use x="87.447266" xlink:href="#DejaVuSans-61"/>
     <use x="148.726562" xlink:href="#DejaVuSans-69"/>
     <use x="176.509766" xlink:href="#DejaVuSans-6e"/>
     <use x="239.888672" xlink:href="#DejaVuSans-69"/>
     <use x="267.671875" xlink:href="#DejaVuSans-6e"/>
     <use x="331.050781" xlink:href="#DejaVuSans-67"/>
     <use x="394.527344" xlink:href="#DejaVuSans-20"/>
     <use x="426.314453" xlink:href="#DejaVuSans-61"/>
     <use x="487.59375" xlink:href="#DejaVuSans-6e"/>
     <use x="550.972656" xlink:href="#DejaVuSans-64"/>
     <use x="614.449219" xlink:href="#DejaVuSans-20"/>
     <use x="646.236328" xlink:href="#DejaVuSans-56"/>
     <use x="706.894531" xlink:href="#DejaVuSans-61"/>
     <use x="768.173828" xlink:href="#DejaVuSans-6c"/>
     <use x="795.957031" xlink:href="#DejaVuSans-69"/>
     <use x="823.740234" xlink:href="#DejaVuSans-64"/>
     <use x="887.216797" xlink:href="#DejaVuSans-61"/>
     <use x="948.496094" xlink:href="#DejaVuSans-74"/>
     <use x="987.705078" xlink:href="#DejaVuSans-69"/>
     <use x="1015.488281" xlink:href="#DejaVuSans-6f"/>
     <use x="1076.669922" xlink:href="#DejaVuSans-6e"/>
     <use x="1140.048828" xlink:href="#DejaVuSans-20"/>
     <use x="1171.835938" xlink:href="#DejaVuSans-41"/>
     <use x="1238.494141" xlink:href="#DejaVuSans-63"/>
     <use x="1293.474609" xlink:href="#DejaVuSans-63"/>
     <use x="1348.455078" xlink:href="#DejaVuSans-75"/>
     <use x="1411.833984" xlink:href="#DejaVuSans-72"/>
     <use x="1452.947266" xlink:href="#DejaVuSans-61"/>
     <use x="1514.226562" xlink:href="#DejaVuSans-63"/>
     <use x="1569.207031" xlink:href="#DejaVuSans-79"/>
    </g>
   </g>
   <g id="legend_1">
    <g id="patch_7">
     <path d="M 239.893438 302.584 
L 407.72 302.584 
Q 409.72 302.584 409.72 300.584 
L 409.72 257.549625 
Q 409.72 255.549625 407.72 255.549625 
L 239.893438 255.549625 
Q 237.893438 255.549625 237.893438 257.549625 
L 237.893438 300.584 
Q 237.893438 302.584 239.893438 302.584 
z
" style="fill:#ffffff;opacity:0.8;stroke:#cccccc;stroke-linejoin:miter;"/>
    </g>
    <g id="line2d_18">
     <path d="M 241.893438 263.648062 
L 261.893438 263.648062 
" style="fill:none;stroke:#1f77b4;stroke-linecap:square;stroke-width:1.5;"/>
    </g>
    <g id="line2d_19"/>
    <g id="text_18">
     <!-- Train Accuracy -->
     <g transform="translate(269.893438 267.148062)scale(0.1 -0.1)">
      <use xlink:href="#DejaVuSans-54"/>
      <use x="46.333984" xlink:href="#DejaVuSans-72"/>
      <use x="87.447266" xlink:href="#DejaVuSans-61"/>
      <use x="148.726562" xlink:href="#DejaVuSans-69"/>
      <use x="176.509766" xlink:href="#DejaVuSans-6e"/>
      <use x="239.888672" xlink:href="#DejaVuSans-20"/>
      <use x="271.675781" xlink:href="#DejaVuSans-41"/>
      <use x="338.333984" xlink:href="#DejaVuSans-63"/>
      <use x="393.314453" xlink:href="#DejaVuSans-63"/>
      <use x="448.294922" xlink:href="#DejaVuSans-75"/>
      <use x="511.673828" xlink:href="#DejaVuSans-72"/>
      <use x="552.787109" xlink:href="#DejaVuSans-61"/>
      <use x="614.066406" xlink:href="#DejaVuSans-63"/>
      <use x="669.046875" xlink:href="#DejaVuSans-79"/>
     </g>
    </g>
    <g id="line2d_20">
     <path d="M 241.893438 278.326188 
L 261.893438 278.326188 
" style="fill:none;stroke:#ff7f0e;stroke-linecap:square;stroke-width:1.5;"/>
    </g>
    <g id="line2d_21"/>
    <g id="text_19">
     <!-- Validation Accuracy -->
     <g transform="translate(269.893438 281.826188)scale(0.1 -0.1)">
      <use xlink:href="#DejaVuSans-56"/>
      <use x="60.658203" xlink:href="#DejaVuSans-61"/>
      <use x="121.9375" xlink:href="#DejaVuSans-6c"/>
      <use x="149.720703" xlink:href="#DejaVuSans-69"/>
      <use x="177.503906" xlink:href="#DejaVuSans-64"/>
      <use x="240.980469" xlink:href="#DejaVuSans-61"/>
      <use x="302.259766" xlink:href="#DejaVuSans-74"/>
      <use x="341.46875" xlink:href="#DejaVuSans-69"/>
      <use x="369.251953" xlink:href="#DejaVuSans-6f"/>
      <use x="430.433594" xlink:href="#DejaVuSans-6e"/>
      <use x="493.8125" xlink:href="#DejaVuSans-20"/>
      <use x="525.599609" xlink:href="#DejaVuSans-41"/>
      <use x="592.257812" xlink:href="#DejaVuSans-63"/>
      <use x="647.238281" xlink:href="#DejaVuSans-63"/>
      <use x="702.21875" xlink:href="#DejaVuSans-75"/>
      <use x="765.597656" xlink:href="#DejaVuSans-72"/>
      <use x="806.710938" xlink:href="#DejaVuSans-61"/>
      <use x="867.990234" xlink:href="#DejaVuSans-63"/>
      <use x="922.970703" xlink:href="#DejaVuSans-79"/>
     </g>
    </g>
    <g id="line2d_22">
     <path d="M 241.893438 293.004312 
L 261.893438 293.004312 
" style="fill:none;stroke:#2ca02c;stroke-linecap:square;stroke-width:1.5;"/>
    </g>
    <g id="line2d_23"/>
    <g id="text_20">
     <!-- Robust Validation Accuracy -->
     <g transform="translate(269.893438 296.504312)scale(0.1 -0.1)">
      <defs>
       <path d="M 2841 2188 
Q 3044 2119 3236 1894 
Q 3428 1669 3622 1275 
L 4263 0 
L 3584 0 
L 2988 1197 
Q 2756 1666 2539 1819 
Q 2322 1972 1947 1972 
L 1259 1972 
L 1259 0 
L 628 0 
L 628 4666 
L 2053 4666 
Q 2853 4666 3247 4331 
Q 3641 3997 3641 3322 
Q 3641 2881 3436 2590 
Q 3231 2300 2841 2188 
z
M 1259 4147 
L 1259 2491 
L 2053 2491 
Q 2509 2491 2742 2702 
Q 2975 2913 2975 3322 
Q 2975 3731 2742 3939 
Q 2509 4147 2053 4147 
L 1259 4147 
z
" id="DejaVuSans-52" transform="scale(0.015625)"/>
       <path d="M 3116 1747 
Q 3116 2381 2855 2742 
Q 2594 3103 2138 3103 
Q 1681 3103 1420 2742 
Q 1159 2381 1159 1747 
Q 1159 1113 1420 752 
Q 1681 391 2138 391 
Q 2594 391 2855 752 
Q 3116 1113 3116 1747 
z
M 1159 2969 
Q 1341 3281 1617 3432 
Q 1894 3584 2278 3584 
Q 2916 3584 3314 3078 
Q 3713 2572 3713 1747 
Q 3713 922 3314 415 
Q 2916 -91 2278 -91 
Q 1894 -91 1617 61 
Q 1341 213 1159 525 
L 1159 0 
L 581 0 
L 581 4863 
L 1159 4863 
L 1159 2969 
z
" id="DejaVuSans-62" transform="scale(0.015625)"/>
      </defs>
      <use xlink:href="#DejaVuSans-52"/>
      <use x="64.982422" xlink:href="#DejaVuSans-6f"/>
      <use x="126.164062" xlink:href="#DejaVuSans-62"/>
      <use x="189.640625" xlink:href="#DejaVuSans-75"/>
      <use x="253.019531" xlink:href="#DejaVuSans-73"/>
      <use x="305.119141" xlink:href="#DejaVuSans-74"/>
      <use x="344.328125" xlink:href="#DejaVuSans-20"/>
      <use x="376.115234" xlink:href="#DejaVuSans-56"/>
      <use x="436.773438" xlink:href="#DejaVuSans-61"/>
      <use x="498.052734" xlink:href="#DejaVuSans-6c"/>
      <use x="525.835938" xlink:href="#DejaVuSans-69"/>
      <use x="553.619141" xlink:href="#DejaVuSans-64"/>
      <use x="617.095703" xlink:href="#DejaVuSans-61"/>
      <use x="678.375" xlink:href="#DejaVuSans-74"/>
      <use x="717.583984" xlink:href="#DejaVuSans-69"/>
      <use x="745.367188" xlink:href="#DejaVuSans-6f"/>
      <use x="806.548828" xlink:href="#DejaVuSans-6e"/>
      <use x="869.927734" xlink:href="#DejaVuSans-20"/>
      <use x="901.714844" xlink:href="#DejaVuSans-41"/>
      <use x="968.373047" xlink:href="#DejaVuSans-63"/>
      <use x="1023.353516" xlink:href="#DejaVuSans-63"/>
      <use x="1078.333984" xlink:href="#DejaVuSans-75"/>
      <use x="1141.712891" xlink:href="#DejaVuSans-72"/>
      <use x="1182.826172" xlink:href="#DejaVuSans-61"/>
      <use x="1244.105469" xlink:href="#DejaVuSans-63"/>
      <use x="1299.085938" xlink:href="#DejaVuSans-79"/>
     </g>
    </g>
   </g>
  </g>
 </g>
 <defs>
  <clipPath id="p20b5f2c82c">
   <rect height="266.112" width="357.12" x="57.6" y="41.472"/>
  </clipPath>
 </defs>
</svg>
