<?xml version="1.0" encoding="utf-8" standalone="no"?>
<!DOCTYPE svg PUBLIC "-//W3C//DTD SVG 1.1//EN"
  "http://www.w3.org/Graphics/SVG/1.1/DTD/svg11.dtd">
<svg height="345.6pt" version="1.1" viewBox="0 0 460.8 345.6" width="460.8pt" xmlns="http://www.w3.org/2000/svg" xmlns:xlink="http://www.w3.org/1999/xlink">
 <metadata>
  <rdf:RDF xmlns:cc="http://creativecommons.org/ns#" xmlns:dc="http://purl.org/dc/elements/1.1/" xmlns:rdf="http://www.w3.org/1999/02/22-rdf-syntax-ns#">
   <cc:Work>
    <dc:type rdf:resource="http://purl.org/dc/dcmitype/StillImage"/>
    <dc:date>2023-11-10T18:55:02.331999</dc:date>
    <dc:format>image/svg+xml</dc:format>
    <dc:creator>
     <cc:Agent>
      <dc:title>Matplotlib v3.4.3, https://matplotlib.org/</dc:title>
     </cc:Agent>
    </dc:creator>
   </cc:Work>
  </rdf:RDF>
 </metadata>
 <defs>
  <style type="text/css">*{stroke-linecap:butt;stroke-linejoin:round;}</style>
 </defs>
 <g id="figure_1">
  <g id="patch_1">
   <path d="M 0 345.6 
L 460.8 345.6 
L 460.8 0 
L 0 0 
z
" style="fill:#ffffff;"/>
  </g>
  <g id="axes_1">
   <g id="patch_2">
    <path d="M 57.6 307.584 
L 414.72 307.584 
L 414.72 41.472 
L 57.6 41.472 
z
" style="fill:#ffffff;"/>
   </g>
   <g id="matplotlib.axis_1">
    <g id="xtick_1">
     <g id="line2d_1">
      <defs>
       <path d="M 0 0 
L 0 3.5 
" id="m0cf7b9e2e2" style="stroke:#000000;stroke-width:0.8;"/>
      </defs>
      <g>
       <use style="stroke:#000000;stroke-width:0.8;" x="73.832727" xlink:href="#m0cf7b9e2e2" y="307.584"/>
      </g>
     </g>
     <g id="text_1">
      <!-- 1 -->
      <g transform="translate(70.651477 322.182437)scale(0.1 -0.1)">
       <defs>
        <path d="M 794 531 
L 1825 531 
L 1825 4091 
L 703 3866 
L 703 4441 
L 1819 4666 
L 2450 4666 
L 2450 531 
L 3481 531 
L 3481 0 
L 794 0 
L 794 531 
z
" id="DejaVuSans-31" transform="scale(0.015625)"/>
       </defs>
       <use xlink:href="#DejaVuSans-31"/>
      </g>
     </g>
    </g>
    <g id="xtick_2">
     <g id="line2d_2">
      <g>
       <use style="stroke:#000000;stroke-width:0.8;" x="109.555234" xlink:href="#m0cf7b9e2e2" y="307.584"/>
      </g>
     </g>
     <g id="text_2">
      <!-- 35 -->
      <g transform="translate(103.192734 322.182437)scale(0.1 -0.1)">
       <defs>
        <path d="M 2597 2516 
Q 3050 2419 3304 2112 
Q 3559 1806 3559 1356 
Q 3559 666 3084 287 
Q 2609 -91 1734 -91 
Q 1441 -91 1130 -33 
Q 819 25 488 141 
L 488 750 
Q 750 597 1062 519 
Q 1375 441 1716 441 
Q 2309 441 2620 675 
Q 2931 909 2931 1356 
Q 2931 1769 2642 2001 
Q 2353 2234 1838 2234 
L 1294 2234 
L 1294 2753 
L 1863 2753 
Q 2328 2753 2575 2939 
Q 2822 3125 2822 3475 
Q 2822 3834 2567 4026 
Q 2313 4219 1838 4219 
Q 1578 4219 1281 4162 
Q 984 4106 628 3988 
L 628 4550 
Q 988 4650 1302 4700 
Q 1616 4750 1894 4750 
Q 2613 4750 3031 4423 
Q 3450 4097 3450 3541 
Q 3450 3153 3228 2886 
Q 3006 2619 2597 2516 
z
" id="DejaVuSans-33" transform="scale(0.015625)"/>
        <path d="M 691 4666 
L 3169 4666 
L 3169 4134 
L 1269 4134 
L 1269 2991 
Q 1406 3038 1543 3061 
Q 1681 3084 1819 3084 
Q 2600 3084 3056 2656 
Q 3513 2228 3513 1497 
Q 3513 744 3044 326 
Q 2575 -91 1722 -91 
Q 1428 -91 1123 -41 
Q 819 9 494 109 
L 494 744 
Q 775 591 1075 516 
Q 1375 441 1709 441 
Q 2250 441 2565 725 
Q 2881 1009 2881 1497 
Q 2881 1984 2565 2268 
Q 2250 2553 1709 2553 
Q 1456 2553 1204 2497 
Q 953 2441 691 2322 
L 691 4666 
z
" id="DejaVuSans-35" transform="scale(0.015625)"/>
       </defs>
       <use xlink:href="#DejaVuSans-33"/>
       <use x="63.623047" xlink:href="#DejaVuSans-35"/>
      </g>
     </g>
    </g>
    <g id="xtick_3">
     <g id="line2d_3">
      <g>
       <use style="stroke:#000000;stroke-width:0.8;" x="145.277741" xlink:href="#m0cf7b9e2e2" y="307.584"/>
      </g>
     </g>
     <g id="text_3">
      <!-- 69 -->
      <g transform="translate(138.915241 322.182437)scale(0.1 -0.1)">
       <defs>
        <path d="M 2113 2584 
Q 1688 2584 1439 2293 
Q 1191 2003 1191 1497 
Q 1191 994 1439 701 
Q 1688 409 2113 409 
Q 2538 409 2786 701 
Q 3034 994 3034 1497 
Q 3034 2003 2786 2293 
Q 2538 2584 2113 2584 
z
M 3366 4563 
L 3366 3988 
Q 3128 4100 2886 4159 
Q 2644 4219 2406 4219 
Q 1781 4219 1451 3797 
Q 1122 3375 1075 2522 
Q 1259 2794 1537 2939 
Q 1816 3084 2150 3084 
Q 2853 3084 3261 2657 
Q 3669 2231 3669 1497 
Q 3669 778 3244 343 
Q 2819 -91 2113 -91 
Q 1303 -91 875 529 
Q 447 1150 447 2328 
Q 447 3434 972 4092 
Q 1497 4750 2381 4750 
Q 2619 4750 2861 4703 
Q 3103 4656 3366 4563 
z
" id="DejaVuSans-36" transform="scale(0.015625)"/>
        <path d="M 703 97 
L 703 672 
Q 941 559 1184 500 
Q 1428 441 1663 441 
Q 2288 441 2617 861 
Q 2947 1281 2994 2138 
Q 2813 1869 2534 1725 
Q 2256 1581 1919 1581 
Q 1219 1581 811 2004 
Q 403 2428 403 3163 
Q 403 3881 828 4315 
Q 1253 4750 1959 4750 
Q 2769 4750 3195 4129 
Q 3622 3509 3622 2328 
Q 3622 1225 3098 567 
Q 2575 -91 1691 -91 
Q 1453 -91 1209 -44 
Q 966 3 703 97 
z
M 1959 2075 
Q 2384 2075 2632 2365 
Q 2881 2656 2881 3163 
Q 2881 3666 2632 3958 
Q 2384 4250 1959 4250 
Q 1534 4250 1286 3958 
Q 1038 3666 1038 3163 
Q 1038 2656 1286 2365 
Q 1534 2075 1959 2075 
z
" id="DejaVuSans-39" transform="scale(0.015625)"/>
       </defs>
       <use xlink:href="#DejaVuSans-36"/>
       <use x="63.623047" xlink:href="#DejaVuSans-39"/>
      </g>
     </g>
    </g>
    <g id="xtick_4">
     <g id="line2d_4">
      <g>
       <use style="stroke:#000000;stroke-width:0.8;" x="182.050909" xlink:href="#m0cf7b9e2e2" y="307.584"/>
      </g>
     </g>
     <g id="text_4">
      <!-- 104 -->
      <g transform="translate(172.507159 322.182437)scale(0.1 -0.1)">
       <defs>
        <path d="M 2034 4250 
Q 1547 4250 1301 3770 
Q 1056 3291 1056 2328 
Q 1056 1369 1301 889 
Q 1547 409 2034 409 
Q 2525 409 2770 889 
Q 3016 1369 3016 2328 
Q 3016 3291 2770 3770 
Q 2525 4250 2034 4250 
z
M 2034 4750 
Q 2819 4750 3233 4129 
Q 3647 3509 3647 2328 
Q 3647 1150 3233 529 
Q 2819 -91 2034 -91 
Q 1250 -91 836 529 
Q 422 1150 422 2328 
Q 422 3509 836 4129 
Q 1250 4750 2034 4750 
z
" id="DejaVuSans-30" transform="scale(0.015625)"/>
        <path d="M 2419 4116 
L 825 1625 
L 2419 1625 
L 2419 4116 
z
M 2253 4666 
L 3047 4666 
L 3047 1625 
L 3713 1625 
L 3713 1100 
L 3047 1100 
L 3047 0 
L 2419 0 
L 2419 1100 
L 313 1100 
L 313 1709 
L 2253 4666 
z
" id="DejaVuSans-34" transform="scale(0.015625)"/>
       </defs>
       <use xlink:href="#DejaVuSans-31"/>
       <use x="63.623047" xlink:href="#DejaVuSans-30"/>
       <use x="127.246094" xlink:href="#DejaVuSans-34"/>
      </g>
     </g>
    </g>
    <g id="xtick_5">
     <g id="line2d_5">
      <g>
       <use style="stroke:#000000;stroke-width:0.8;" x="217.773416" xlink:href="#m0cf7b9e2e2" y="307.584"/>
      </g>
     </g>
     <g id="text_5">
      <!-- 138 -->
      <g transform="translate(208.229666 322.182437)scale(0.1 -0.1)">
       <defs>
        <path d="M 2034 2216 
Q 1584 2216 1326 1975 
Q 1069 1734 1069 1313 
Q 1069 891 1326 650 
Q 1584 409 2034 409 
Q 2484 409 2743 651 
Q 3003 894 3003 1313 
Q 3003 1734 2745 1975 
Q 2488 2216 2034 2216 
z
M 1403 2484 
Q 997 2584 770 2862 
Q 544 3141 544 3541 
Q 544 4100 942 4425 
Q 1341 4750 2034 4750 
Q 2731 4750 3128 4425 
Q 3525 4100 3525 3541 
Q 3525 3141 3298 2862 
Q 3072 2584 2669 2484 
Q 3125 2378 3379 2068 
Q 3634 1759 3634 1313 
Q 3634 634 3220 271 
Q 2806 -91 2034 -91 
Q 1263 -91 848 271 
Q 434 634 434 1313 
Q 434 1759 690 2068 
Q 947 2378 1403 2484 
z
M 1172 3481 
Q 1172 3119 1398 2916 
Q 1625 2713 2034 2713 
Q 2441 2713 2670 2916 
Q 2900 3119 2900 3481 
Q 2900 3844 2670 4047 
Q 2441 4250 2034 4250 
Q 1625 4250 1398 4047 
Q 1172 3844 1172 3481 
z
" id="DejaVuSans-38" transform="scale(0.015625)"/>
       </defs>
       <use xlink:href="#DejaVuSans-31"/>
       <use x="63.623047" xlink:href="#DejaVuSans-33"/>
       <use x="127.246094" xlink:href="#DejaVuSans-38"/>
      </g>
     </g>
    </g>
    <g id="xtick_6">
     <g id="line2d_6">
      <g>
       <use style="stroke:#000000;stroke-width:0.8;" x="253.495922" xlink:href="#m0cf7b9e2e2" y="307.584"/>
      </g>
     </g>
     <g id="text_6">
      <!-- 172 -->
      <g transform="translate(243.952172 322.182437)scale(0.1 -0.1)">
       <defs>
        <path d="M 525 4666 
L 3525 4666 
L 3525 4397 
L 1831 0 
L 1172 0 
L 2766 4134 
L 525 4134 
L 525 4666 
z
" id="DejaVuSans-37" transform="scale(0.015625)"/>
        <path d="M 1228 531 
L 3431 531 
L 3431 0 
L 469 0 
L 469 531 
Q 828 903 1448 1529 
Q 2069 2156 2228 2338 
Q 2531 2678 2651 2914 
Q 2772 3150 2772 3378 
Q 2772 3750 2511 3984 
Q 2250 4219 1831 4219 
Q 1534 4219 1204 4116 
Q 875 4013 500 3803 
L 500 4441 
Q 881 4594 1212 4672 
Q 1544 4750 1819 4750 
Q 2544 4750 2975 4387 
Q 3406 4025 3406 3419 
Q 3406 3131 3298 2873 
Q 3191 2616 2906 2266 
Q 2828 2175 2409 1742 
Q 1991 1309 1228 531 
z
" id="DejaVuSans-32" transform="scale(0.015625)"/>
       </defs>
       <use xlink:href="#DejaVuSans-31"/>
       <use x="63.623047" xlink:href="#DejaVuSans-37"/>
       <use x="127.246094" xlink:href="#DejaVuSans-32"/>
      </g>
     </g>
    </g>
    <g id="xtick_7">
     <g id="line2d_7">
      <g>
       <use style="stroke:#000000;stroke-width:0.8;" x="290.269091" xlink:href="#m0cf7b9e2e2" y="307.584"/>
      </g>
     </g>
     <g id="text_7">
      <!-- 207 -->
      <g transform="translate(280.725341 322.182437)scale(0.1 -0.1)">
       <use xlink:href="#DejaVuSans-32"/>
       <use x="63.623047" xlink:href="#DejaVuSans-30"/>
       <use x="127.246094" xlink:href="#DejaVuSans-37"/>
      </g>
     </g>
    </g>
    <g id="xtick_8">
     <g id="line2d_8">
      <g>
       <use style="stroke:#000000;stroke-width:0.8;" x="325.991598" xlink:href="#m0cf7b9e2e2" y="307.584"/>
      </g>
     </g>
     <g id="text_8">
      <!-- 241 -->
      <g transform="translate(316.447848 322.182437)scale(0.1 -0.1)">
       <use xlink:href="#DejaVuSans-32"/>
       <use x="63.623047" xlink:href="#DejaVuSans-34"/>
       <use x="127.246094" xlink:href="#DejaVuSans-31"/>
      </g>
     </g>
    </g>
    <g id="xtick_9">
     <g id="line2d_9">
      <g>
       <use style="stroke:#000000;stroke-width:0.8;" x="361.714104" xlink:href="#m0cf7b9e2e2" y="307.584"/>
      </g>
     </g>
     <g id="text_9">
      <!-- 275 -->
      <g transform="translate(352.170354 322.182437)scale(0.1 -0.1)">
       <use xlink:href="#DejaVuSans-32"/>
       <use x="63.623047" xlink:href="#DejaVuSans-37"/>
       <use x="127.246094" xlink:href="#DejaVuSans-35"/>
      </g>
     </g>
    </g>
    <g id="xtick_10">
     <g id="line2d_10">
      <g>
       <use style="stroke:#000000;stroke-width:0.8;" x="398.487273" xlink:href="#m0cf7b9e2e2" y="307.584"/>
      </g>
     </g>
     <g id="text_10">
      <!-- 310 -->
      <g transform="translate(388.943523 322.182437)scale(0.1 -0.1)">
       <use xlink:href="#DejaVuSans-33"/>
       <use x="63.623047" xlink:href="#DejaVuSans-31"/>
       <use x="127.246094" xlink:href="#DejaVuSans-30"/>
      </g>
     </g>
    </g>
    <g id="text_11">
     <!-- Epochs -->
     <g transform="translate(218.244375 335.860562)scale(0.1 -0.1)">
      <defs>
       <path d="M 628 4666 
L 3578 4666 
L 3578 4134 
L 1259 4134 
L 1259 2753 
L 3481 2753 
L 3481 2222 
L 1259 2222 
L 1259 531 
L 3634 531 
L 3634 0 
L 628 0 
L 628 4666 
z
" id="DejaVuSans-45" transform="scale(0.015625)"/>
       <path d="M 1159 525 
L 1159 -1331 
L 581 -1331 
L 581 3500 
L 1159 3500 
L 1159 2969 
Q 1341 3281 1617 3432 
Q 1894 3584 2278 3584 
Q 2916 3584 3314 3078 
Q 3713 2572 3713 1747 
Q 3713 922 3314 415 
Q 2916 -91 2278 -91 
Q 1894 -91 1617 61 
Q 1341 213 1159 525 
z
M 3116 1747 
Q 3116 2381 2855 2742 
Q 2594 3103 2138 3103 
Q 1681 3103 1420 2742 
Q 1159 2381 1159 1747 
Q 1159 1113 1420 752 
Q 1681 391 2138 391 
Q 2594 391 2855 752 
Q 3116 1113 3116 1747 
z
" id="DejaVuSans-70" transform="scale(0.015625)"/>
       <path d="M 1959 3097 
Q 1497 3097 1228 2736 
Q 959 2375 959 1747 
Q 959 1119 1226 758 
Q 1494 397 1959 397 
Q 2419 397 2687 759 
Q 2956 1122 2956 1747 
Q 2956 2369 2687 2733 
Q 2419 3097 1959 3097 
z
M 1959 3584 
Q 2709 3584 3137 3096 
Q 3566 2609 3566 1747 
Q 3566 888 3137 398 
Q 2709 -91 1959 -91 
Q 1206 -91 779 398 
Q 353 888 353 1747 
Q 353 2609 779 3096 
Q 1206 3584 1959 3584 
z
" id="DejaVuSans-6f" transform="scale(0.015625)"/>
       <path d="M 3122 3366 
L 3122 2828 
Q 2878 2963 2633 3030 
Q 2388 3097 2138 3097 
Q 1578 3097 1268 2742 
Q 959 2388 959 1747 
Q 959 1106 1268 751 
Q 1578 397 2138 397 
Q 2388 397 2633 464 
Q 2878 531 3122 666 
L 3122 134 
Q 2881 22 2623 -34 
Q 2366 -91 2075 -91 
Q 1284 -91 818 406 
Q 353 903 353 1747 
Q 353 2603 823 3093 
Q 1294 3584 2113 3584 
Q 2378 3584 2631 3529 
Q 2884 3475 3122 3366 
z
" id="DejaVuSans-63" transform="scale(0.015625)"/>
       <path d="M 3513 2113 
L 3513 0 
L 2938 0 
L 2938 2094 
Q 2938 2591 2744 2837 
Q 2550 3084 2163 3084 
Q 1697 3084 1428 2787 
Q 1159 2491 1159 1978 
L 1159 0 
L 581 0 
L 581 4863 
L 1159 4863 
L 1159 2956 
Q 1366 3272 1645 3428 
Q 1925 3584 2291 3584 
Q 2894 3584 3203 3211 
Q 3513 2838 3513 2113 
z
" id="DejaVuSans-68" transform="scale(0.015625)"/>
       <path d="M 2834 3397 
L 2834 2853 
Q 2591 2978 2328 3040 
Q 2066 3103 1784 3103 
Q 1356 3103 1142 2972 
Q 928 2841 928 2578 
Q 928 2378 1081 2264 
Q 1234 2150 1697 2047 
L 1894 2003 
Q 2506 1872 2764 1633 
Q 3022 1394 3022 966 
Q 3022 478 2636 193 
Q 2250 -91 1575 -91 
Q 1294 -91 989 -36 
Q 684 19 347 128 
L 347 722 
Q 666 556 975 473 
Q 1284 391 1588 391 
Q 1994 391 2212 530 
Q 2431 669 2431 922 
Q 2431 1156 2273 1281 
Q 2116 1406 1581 1522 
L 1381 1569 
Q 847 1681 609 1914 
Q 372 2147 372 2553 
Q 372 3047 722 3315 
Q 1072 3584 1716 3584 
Q 2034 3584 2315 3537 
Q 2597 3491 2834 3397 
z
" id="DejaVuSans-73" transform="scale(0.015625)"/>
      </defs>
      <use xlink:href="#DejaVuSans-45"/>
      <use x="63.183594" xlink:href="#DejaVuSans-70"/>
      <use x="126.660156" xlink:href="#DejaVuSans-6f"/>
      <use x="187.841797" xlink:href="#DejaVuSans-63"/>
      <use x="242.822266" xlink:href="#DejaVuSans-68"/>
      <use x="306.201172" xlink:href="#DejaVuSans-73"/>
     </g>
    </g>
   </g>
   <g id="matplotlib.axis_2">
    <g id="ytick_1">
     <g id="line2d_11">
      <defs>
       <path d="M 0 0 
L -3.5 0 
" id="m250247b9a6" style="stroke:#000000;stroke-width:0.8;"/>
      </defs>
      <g>
       <use style="stroke:#000000;stroke-width:0.8;" x="57.6" xlink:href="#m250247b9a6" y="278.302959"/>
      </g>
     </g>
     <g id="text_12">
      <!-- 10 -->
      <g transform="translate(37.875 282.102178)scale(0.1 -0.1)">
       <use xlink:href="#DejaVuSans-31"/>
       <use x="63.623047" xlink:href="#DejaVuSans-30"/>
      </g>
     </g>
    </g>
    <g id="ytick_2">
     <g id="line2d_12">
      <g>
       <use style="stroke:#000000;stroke-width:0.8;" x="57.6" xlink:href="#m250247b9a6" y="247.811404"/>
      </g>
     </g>
     <g id="text_13">
      <!-- 20 -->
      <g transform="translate(37.875 251.610623)scale(0.1 -0.1)">
       <use xlink:href="#DejaVuSans-32"/>
       <use x="63.623047" xlink:href="#DejaVuSans-30"/>
      </g>
     </g>
    </g>
    <g id="ytick_3">
     <g id="line2d_13">
      <g>
       <use style="stroke:#000000;stroke-width:0.8;" x="57.6" xlink:href="#m250247b9a6" y="217.319849"/>
      </g>
     </g>
     <g id="text_14">
      <!-- 30 -->
      <g transform="translate(37.875 221.119068)scale(0.1 -0.1)">
       <use xlink:href="#DejaVuSans-33"/>
       <use x="63.623047" xlink:href="#DejaVuSans-30"/>
      </g>
     </g>
    </g>
    <g id="ytick_4">
     <g id="line2d_14">
      <g>
       <use style="stroke:#000000;stroke-width:0.8;" x="57.6" xlink:href="#m250247b9a6" y="186.828293"/>
      </g>
     </g>
     <g id="text_15">
      <!-- 40 -->
      <g transform="translate(37.875 190.627512)scale(0.1 -0.1)">
       <use xlink:href="#DejaVuSans-34"/>
       <use x="63.623047" xlink:href="#DejaVuSans-30"/>
      </g>
     </g>
    </g>
    <g id="ytick_5">
     <g id="line2d_15">
      <g>
       <use style="stroke:#000000;stroke-width:0.8;" x="57.6" xlink:href="#m250247b9a6" y="156.336738"/>
      </g>
     </g>
     <g id="text_16">
      <!-- 50 -->
      <g transform="translate(37.875 160.135957)scale(0.1 -0.1)">
       <use xlink:href="#DejaVuSans-35"/>
       <use x="63.623047" xlink:href="#DejaVuSans-30"/>
      </g>
     </g>
    </g>
    <g id="ytick_6">
     <g id="line2d_16">
      <g>
       <use style="stroke:#000000;stroke-width:0.8;" x="57.6" xlink:href="#m250247b9a6" y="125.845183"/>
      </g>
     </g>
     <g id="text_17">
      <!-- 60 -->
      <g transform="translate(37.875 129.644402)scale(0.1 -0.1)">
       <use xlink:href="#DejaVuSans-36"/>
       <use x="63.623047" xlink:href="#DejaVuSans-30"/>
      </g>
     </g>
    </g>
    <g id="ytick_7">
     <g id="line2d_17">
      <g>
       <use style="stroke:#000000;stroke-width:0.8;" x="57.6" xlink:href="#m250247b9a6" y="95.353627"/>
      </g>
     </g>
     <g id="text_18">
      <!-- 70 -->
      <g transform="translate(37.875 99.152846)scale(0.1 -0.1)">
       <use xlink:href="#DejaVuSans-37"/>
       <use x="63.623047" xlink:href="#DejaVuSans-30"/>
      </g>
     </g>
    </g>
    <g id="ytick_8">
     <g id="line2d_18">
      <g>
       <use style="stroke:#000000;stroke-width:0.8;" x="57.6" xlink:href="#m250247b9a6" y="64.862072"/>
      </g>
     </g>
     <g id="text_19">
      <!-- 80 -->
      <g transform="translate(37.875 68.661291)scale(0.1 -0.1)">
       <use xlink:href="#DejaVuSans-38"/>
       <use x="63.623047" xlink:href="#DejaVuSans-30"/>
      </g>
     </g>
    </g>
    <g id="text_20">
     <!-- Accuracy -->
     <g transform="translate(31.795312 197.356125)rotate(-90)scale(0.1 -0.1)">
      <defs>
       <path d="M 2188 4044 
L 1331 1722 
L 3047 1722 
L 2188 4044 
z
M 1831 4666 
L 2547 4666 
L 4325 0 
L 3669 0 
L 3244 1197 
L 1141 1197 
L 716 0 
L 50 0 
L 1831 4666 
z
" id="DejaVuSans-41" transform="scale(0.015625)"/>
       <path d="M 544 1381 
L 544 3500 
L 1119 3500 
L 1119 1403 
Q 1119 906 1312 657 
Q 1506 409 1894 409 
Q 2359 409 2629 706 
Q 2900 1003 2900 1516 
L 2900 3500 
L 3475 3500 
L 3475 0 
L 2900 0 
L 2900 538 
Q 2691 219 2414 64 
Q 2138 -91 1772 -91 
Q 1169 -91 856 284 
Q 544 659 544 1381 
z
M 1991 3584 
L 1991 3584 
z
" id="DejaVuSans-75" transform="scale(0.015625)"/>
       <path d="M 2631 2963 
Q 2534 3019 2420 3045 
Q 2306 3072 2169 3072 
Q 1681 3072 1420 2755 
Q 1159 2438 1159 1844 
L 1159 0 
L 581 0 
L 581 3500 
L 1159 3500 
L 1159 2956 
Q 1341 3275 1631 3429 
Q 1922 3584 2338 3584 
Q 2397 3584 2469 3576 
Q 2541 3569 2628 3553 
L 2631 2963 
z
" id="DejaVuSans-72" transform="scale(0.015625)"/>
       <path d="M 2194 1759 
Q 1497 1759 1228 1600 
Q 959 1441 959 1056 
Q 959 750 1161 570 
Q 1363 391 1709 391 
Q 2188 391 2477 730 
Q 2766 1069 2766 1631 
L 2766 1759 
L 2194 1759 
z
M 3341 1997 
L 3341 0 
L 2766 0 
L 2766 531 
Q 2569 213 2275 61 
Q 1981 -91 1556 -91 
Q 1019 -91 701 211 
Q 384 513 384 1019 
Q 384 1609 779 1909 
Q 1175 2209 1959 2209 
L 2766 2209 
L 2766 2266 
Q 2766 2663 2505 2880 
Q 2244 3097 1772 3097 
Q 1472 3097 1187 3025 
Q 903 2953 641 2809 
L 641 3341 
Q 956 3463 1253 3523 
Q 1550 3584 1831 3584 
Q 2591 3584 2966 3190 
Q 3341 2797 3341 1997 
z
" id="DejaVuSans-61" transform="scale(0.015625)"/>
       <path d="M 2059 -325 
Q 1816 -950 1584 -1140 
Q 1353 -1331 966 -1331 
L 506 -1331 
L 506 -850 
L 844 -850 
Q 1081 -850 1212 -737 
Q 1344 -625 1503 -206 
L 1606 56 
L 191 3500 
L 800 3500 
L 1894 763 
L 2988 3500 
L 3597 3500 
L 2059 -325 
z
" id="DejaVuSans-79" transform="scale(0.015625)"/>
      </defs>
      <use xlink:href="#DejaVuSans-41"/>
      <use x="66.658203" xlink:href="#DejaVuSans-63"/>
      <use x="121.638672" xlink:href="#DejaVuSans-63"/>
      <use x="176.619141" xlink:href="#DejaVuSans-75"/>
      <use x="239.998047" xlink:href="#DejaVuSans-72"/>
      <use x="281.111328" xlink:href="#DejaVuSans-61"/>
      <use x="342.390625" xlink:href="#DejaVuSans-63"/>
      <use x="397.371094" xlink:href="#DejaVuSans-79"/>
     </g>
    </g>
   </g>
   <g id="line2d_19">
    <path clip-path="url(#p51692831a5)" d="M 73.832727 295.488 
L 74.883389 287.700457 
L 75.934051 282.297353 
L 78.035375 269.295754 
L 79.086037 264.087796 
L 80.136699 253.476735 
L 81.187361 250.659315 
L 83.288685 238.291941 
L 84.339347 259.355507 
L 85.390009 246.799084 
L 87.491333 239.767732 
L 88.541995 237.889452 
L 90.643319 223.155932 
L 91.693981 218.850525 
L 93.795305 206.166038 
L 94.845966 204.476806 
L 95.896628 199.561567 
L 96.94729 189.609123 
L 97.997952 192.389953 
L 99.048614 184.791458 
L 100.099276 188.243102 
L 101.149938 174.60118 
L 102.2006 179.784744 
L 103.251262 166.112331 
L 104.301924 172.893653 
L 105.352586 210.727574 
L 106.403248 203.360815 
L 107.45391 195.067112 
L 108.504572 185.681811 
L 109.555234 191.548386 
L 110.605896 188.237003 
L 111.656558 188.090644 
L 112.70722 182.657049 
L 113.757882 181.004406 
L 114.808544 171.430058 
L 115.859206 179.662778 
L 117.96053 175.967201 
L 119.011192 159.635924 
L 120.061853 174.613376 
L 121.112515 158.989503 
L 122.163177 158.483344 
L 123.213839 149.75666 
L 124.264501 160.288444 
L 125.315163 150.787275 
L 126.365825 153.519318 
L 127.416487 144.262082 
L 128.467149 150.177444 
L 129.517811 145.487843 
L 130.568473 139.859102 
L 131.619135 146.981929 
L 132.669797 136.370868 
L 133.720459 143.993756 
L 134.771121 140.542112 
L 135.821783 137.767381 
L 137.923107 129.802987 
L 138.973769 138.877274 
L 140.024431 128.467457 
L 141.075093 119.576119 
L 142.125755 130.571374 
L 143.176417 127.607595 
L 144.227079 127.016058 
L 145.277741 129.254139 
L 146.328402 125.430498 
L 147.379064 165.868398 
L 148.429726 155.720809 
L 149.480388 172.100872 
L 150.53105 151.769103 
L 151.581712 153.598596 
L 152.632374 146.872159 
L 153.683036 152.080117 
L 154.733698 144.871913 
L 155.78436 148.957782 
L 156.835022 157.275878 
L 157.885684 148.055232 
L 159.987008 135.492711 
L 161.03767 147.006322 
L 163.138994 141.871544 
L 164.189656 140.950699 
L 165.240318 139.5054 
L 166.29098 128.723586 
L 167.341642 137.791774 
L 168.392304 125.137779 
L 169.442966 135.273172 
L 170.493628 122.905797 
L 171.544289 130.644554 
L 172.594951 117.795412 
L 173.645613 121.308039 
L 174.696275 123.887625 
L 175.746937 121.265351 
L 176.797599 113.959574 
L 177.848261 119.557824 
L 178.898923 130.937272 
L 179.949585 122.302064 
L 181.000247 118.039345 
L 182.050909 113.118008 
L 183.101571 114.471833 
L 184.152233 118.447931 
L 185.202895 116.46598 
L 186.253557 119.594414 
L 187.304219 115.484152 
L 188.354881 102.055671 
L 189.405543 113.752232 
L 190.456205 114.959698 
L 191.506867 103.86687 
L 192.557529 104.244965 
L 193.608191 129.528563 
L 194.658853 112.721617 
L 195.709515 107.257531 
L 196.760177 101.177514 
L 197.810838 105.623183 
L 198.8615 95.341431 
L 199.912162 103.336317 
L 200.962824 107.434382 
L 202.013486 106.885534 
L 203.064148 97.731969 
L 204.11481 91.719034 
L 205.165472 93.402168 
L 206.216134 91.633658 
L 207.266796 88.212505 
L 208.317458 102.067868 
L 209.36812 99.659035 
L 210.418782 99.921262 
L 211.469444 99.805395 
L 212.520106 96.768436 
L 213.570768 90.810386 
L 214.62143 80.229816 
L 215.672092 95.609756 
L 216.722754 91.615363 
L 217.773416 95.481692 
L 218.824078 81.894655 
L 219.87474 87.21848 
L 220.925402 97.36607 
L 221.976064 82.638649 
L 223.026726 95.932967 
L 224.077387 89.505347 
L 225.128049 76.729385 
L 226.178711 92.987483 
L 227.229373 92.682567 
L 228.280035 96.372045 
L 229.330697 91.822705 
L 230.381359 88.19421 
L 231.432021 113.611971 
L 232.482683 127.601496 
L 233.533345 126.076919 
L 234.584007 120.649422 
L 235.634669 105.470725 
L 236.685331 117.777117 
L 237.735993 119.509038 
L 238.786655 123.899822 
L 239.837317 116.825781 
L 240.887979 111.825166 
L 241.938641 125.217057 
L 242.989303 122.430129 
L 244.039965 107.288022 
L 245.090627 112.447193 
L 246.141289 107.409988 
L 247.191951 104.80601 
L 248.242613 104.824305 
L 249.293274 110.093245 
L 250.343936 108.623552 
L 251.394598 108.910173 
L 252.44526 113.319252 
L 253.495922 113.453415 
L 254.546584 111.239728 
L 255.597246 110.349374 
L 256.647908 123.875428 
L 257.69857 103.342415 
L 258.749232 112.837485 
L 259.799894 104.110802 
L 260.850556 100.756731 
L 261.901218 98.524749 
L 262.95188 105.074335 
L 264.002542 110.404259 
L 265.053204 100.390832 
L 266.103866 102.567929 
L 267.154528 91.993458 
L 268.20519 107.196548 
L 269.255852 92.670371 
L 270.306514 115.3134 
L 271.357176 109.696855 
L 272.407838 98.37839 
L 273.4585 88.639387 
L 274.509162 99.09799 
L 275.559823 99.445594 
L 276.610485 100.165195 
L 277.661147 103.354612 
L 279.762471 83.510707 
L 281.863795 97.853935 
L 282.914457 89.13335 
L 283.965119 95.841492 
L 285.015781 96.402537 
L 286.066443 89.511445 
L 287.117105 91.688542 
L 288.167767 92.524011 
L 289.218429 99.030909 
L 290.269091 98.652814 
L 291.319753 86.053703 
L 292.370415 92.877713 
L 293.421077 93.591216 
L 294.471739 91.932475 
L 295.522401 83.809525 
L 296.573063 91.731231 
L 297.623725 86.712321 
L 298.674387 92.993581 
L 299.725049 91.749526 
L 300.775711 92.511814 
L 301.826372 82.504486 
L 302.877034 94.627928 
L 303.927696 92.517913 
L 304.978358 85.852459 
L 306.02902 88.877221 
L 307.079682 74.088817 
L 308.130344 86.797697 
L 309.181006 92.835025 
L 310.231668 83.224087 
L 311.28233 79.821229 
L 312.332992 84.016867 
L 313.383654 72.558141 
L 315.484978 87.566084 
L 317.586302 90.767698 
L 318.636964 95.890279 
L 319.687626 80.254209 
L 320.738288 79.876114 
L 321.78895 68.832073 
L 322.839612 85.242628 
L 323.890274 81.809279 
L 325.991598 75.924408 
L 327.042259 75.710967 
L 328.092921 79.870016 
L 329.143583 86.944056 
L 330.194245 78.1198 
L 331.244907 85.334102 
L 332.295569 71.734869 
L 333.346231 75.168218 
L 334.396893 85.889049 
L 335.447555 74.460814 
L 336.498217 70.82622 
L 337.548879 75.704869 
L 338.599541 72.302012 
L 339.650203 71.125038 
L 340.700865 69.624853 
L 341.751527 78.882089 
L 342.802189 84.608403 
L 343.852851 74.899892 
L 344.903513 80.61401 
L 345.954175 88.77355 
L 347.004837 73.28384 
L 348.055499 72.460568 
L 349.106161 88.029556 
L 350.156823 73.17407 
L 351.207485 68.124669 
L 352.258147 80.260308 
L 353.308808 85.065777 
L 354.35947 66.185406 
L 355.410132 67.148939 
L 356.460794 78.186882 
L 357.511456 70.911597 
L 358.562118 65.935375 
L 359.61278 70.942088 
L 360.663442 63.264315 
L 361.714104 76.589124 
L 362.764766 67.984407 
L 363.815428 72.259323 
L 364.86609 60.190766 
L 365.916752 68.234438 
L 366.967414 86.346422 
L 368.018076 77.083087 
L 369.068738 58.690581 
L 370.1194 75.503625 
L 371.170062 53.568 
L 372.220724 73.802196 
L 373.271386 58.202716 
L 374.322048 61.825113 
L 375.37271 58.611303 
L 376.423372 79.199201 
L 377.474034 69.411412 
L 378.524695 66.850122 
L 379.575357 58.6235 
L 380.626019 65.185283 
L 381.676681 75.08894 
L 382.727343 76.826958 
L 383.778005 68.319814 
L 384.828667 58.873531 
L 385.879329 77.638034 
L 386.929991 57.958784 
L 387.980653 73.948556 
L 389.031315 77.967343 
L 390.081977 59.105266 
L 391.132639 59.239429 
L 393.233963 68.704008 
L 394.284625 74.881597 
L 395.335287 76.296405 
L 396.385949 62.459338 
L 397.436611 61.25797 
L 398.487273 75.948802 
L 398.487273 75.948802 
" style="fill:none;stroke:#1f77b4;stroke-linecap:square;stroke-width:1.5;"/>
   </g>
   <g id="line2d_20">
    <path clip-path="url(#p51692831a5)" d="M 73.832727 294.737908 
L 74.883389 286.169781 
L 75.934051 272.692513 
L 76.984713 264.032912 
L 78.035375 260.343433 
L 79.086037 246.042894 
L 80.136699 237.200343 
L 81.187361 248.085828 
L 82.238023 221.86309 
L 83.288685 210.611707 
L 84.339347 245.280605 
L 85.390009 249.823847 
L 86.440671 221.86309 
L 87.491333 259.764094 
L 88.541995 216.100187 
L 89.592657 226.406332 
L 90.643319 191.310552 
L 91.693981 178.900489 
L 92.744643 198.32361 
L 94.845966 175.332977 
L 95.896628 158.776063 
L 96.94729 185.852564 
L 97.997952 154.751177 
L 99.048614 145.329287 
L 100.099276 147.799103 
L 101.149938 137.584432 
L 102.2006 133.681512 
L 103.251262 133.163156 
L 104.301924 129.778593 
L 105.352586 204.757328 
L 106.403248 168.380902 
L 107.45391 181.675221 
L 108.504572 148.805324 
L 109.555234 167.069766 
L 110.605896 182.742425 
L 111.656558 151.610547 
L 112.70722 146.640423 
L 113.757882 154.568228 
L 114.808544 134.779208 
L 115.859206 125.936657 
L 116.909868 138.041805 
L 117.96053 133.955936 
L 119.011192 126.57698 
L 120.061853 134.687734 
L 121.112515 118.252785 
L 122.163177 135.419531 
L 123.213839 108.404013 
L 124.264501 111.971525 
L 125.315163 114.898714 
L 126.365825 120.570144 
L 127.416487 113.404628 
L 128.467149 99.866378 
L 129.517811 101.756854 
L 130.568473 99.988344 
L 131.619135 98.707699 
L 132.669797 93.981507 
L 133.720459 91.725132 
L 134.771121 90.170063 
L 135.821783 89.499249 
L 136.872445 85.19994 
L 137.923107 83.64487 
L 138.973769 87.669755 
L 140.024431 83.400938 
L 141.075093 80.931122 
L 142.125755 80.50424 
L 143.176417 80.260308 
L 144.227079 83.614379 
L 145.277741 79.498019 
L 146.328402 82.089801 
L 147.379064 141.853249 
L 148.429726 132.309392 
L 149.480388 114.685274 
L 150.53105 106.940418 
L 151.581712 112.611848 
L 152.632374 123.405858 
L 153.683036 115.325596 
L 154.733698 120.448177 
L 155.78436 103.769297 
L 156.835022 143.774217 
L 157.885684 110.995795 
L 158.936346 108.495488 
L 159.987008 94.103474 
L 161.03767 95.780509 
L 162.088332 126.150098 
L 163.138994 94.469372 
L 164.189656 112.032508 
L 165.240318 92.578896 
L 166.29098 106.848944 
L 167.341642 91.237267 
L 168.392304 98.524749 
L 169.442966 97.701477 
L 170.493628 91.054318 
L 171.544289 100.323751 
L 174.696275 86.724517 
L 175.746937 84.651092 
L 176.797599 77.668525 
L 177.848261 80.992105 
L 178.898923 87.730739 
L 179.949585 84.651092 
L 181.000247 90.017605 
L 182.050909 78.766221 
L 183.101571 84.712075 
L 184.152233 84.346176 
L 185.202895 78.003932 
L 186.253557 79.13212 
L 187.304219 76.021981 
L 188.354881 76.38788 
L 189.405543 75.381659 
L 190.456205 84.285193 
L 191.506867 71.905621 
L 192.557529 73.003317 
L 193.608191 73.64364 
L 194.658853 74.863302 
L 195.709515 73.64364 
L 196.760177 79.467527 
L 197.810838 72.820368 
L 198.8615 70.960383 
L 199.912162 72.454469 
L 200.962824 71.966604 
L 202.013486 67.941719 
L 203.064148 72.423978 
L 204.11481 71.29579 
L 205.165472 75.625591 
L 206.216134 67.301397 
L 207.266796 65.349937 
L 208.317458 68.795483 
L 209.36812 70.350552 
L 210.418782 66.996481 
L 211.469444 64.892564 
L 213.570768 64.069292 
L 214.62143 66.600091 
L 215.672092 65.01453 
L 216.722754 65.685344 
L 217.773416 68.002702 
L 218.824078 63.489952 
L 219.87474 62.575205 
L 220.925402 63.825359 
L 221.976064 64.0388 
L 223.026726 62.544714 
L 224.077387 63.916834 
L 225.128049 61.447018 
L 226.178711 62.087341 
L 227.229373 61.721442 
L 229.330697 65.197479 
L 230.381359 62.331273 
L 231.432021 88.706468 
L 232.482683 89.224825 
L 233.533345 103.494873 
L 234.584007 85.840262 
L 235.634669 84.193718 
L 236.685331 96.96968 
L 237.735993 92.578896 
L 238.786655 87.700247 
L 239.837317 91.542183 
L 240.887979 90.810386 
L 241.938641 102.427668 
L 242.989303 81.29702 
L 244.039965 102.305702 
L 245.090627 89.773673 
L 246.141289 88.645485 
L 247.191951 84.986499 
L 248.242613 82.364225 
L 249.293274 91.328742 
L 250.343936 87.456315 
L 251.394598 85.931737 
L 252.44526 77.333118 
L 253.495922 118.435735 
L 254.546584 93.036269 
L 255.597246 83.736345 
L 256.647908 78.369831 
L 258.749232 76.479355 
L 259.799894 83.980277 
L 260.850556 89.285808 
L 261.901218 81.144563 
L 262.95188 75.381659 
L 264.002542 74.405929 
L 265.053204 78.125899 
L 266.103866 84.834041 
L 267.154528 81.418987 
L 268.20519 75.442642 
L 269.255852 74.588878 
L 270.306514 77.394101 
L 271.357176 76.662304 
L 272.407838 72.393486 
L 273.4585 82.120292 
L 274.509162 75.41215 
L 275.559823 71.143332 
L 276.610485 75.686574 
L 277.661147 75.80854 
L 278.711809 72.66791 
L 279.762471 79.254086 
L 280.813133 71.112841 
L 281.863795 85.840262 
L 282.914457 68.429584 
L 283.965119 70.868908 
L 285.015781 66.935498 
L 286.066443 69.893179 
L 287.117105 77.058694 
L 288.167767 74.771828 
L 289.218429 76.296405 
L 290.269091 69.832196 
L 291.319753 69.740721 
L 292.370415 73.277741 
L 293.421077 74.61937 
L 294.471739 70.472518 
L 295.522401 71.387265 
L 296.573063 68.795483 
L 297.623725 70.472518 
L 298.674387 71.173824 
L 299.725049 66.539108 
L 300.775711 67.75877 
L 301.826372 69.496789 
L 302.877034 70.228586 
L 303.927696 68.307618 
L 304.978358 70.228586 
L 306.02902 66.630582 
L 307.079682 64.740106 
L 308.130344 63.185037 
L 309.181006 66.874515 
L 310.231668 68.825974 
L 311.28233 62.544714 
L 312.332992 67.301397 
L 313.383654 67.514837 
L 314.434316 71.448248 
L 315.484978 65.166988 
L 316.53564 65.319445 
L 317.586302 64.282733 
L 318.636964 64.984038 
L 319.687626 63.185037 
L 320.738288 65.532886 
L 321.78895 66.38665 
L 322.839612 66.325667 
L 323.890274 62.971596 
L 324.940936 65.380429 
L 325.991598 64.374207 
L 327.042259 67.148939 
L 328.092921 61.020136 
L 329.143583 63.886342 
L 330.194245 62.056849 
L 331.244907 64.130275 
L 332.295569 64.404699 
L 333.346231 66.78304 
L 334.396893 61.69095 
L 335.447555 60.593254 
L 336.498217 61.629967 
L 337.548879 63.032579 
L 338.599541 62.026357 
L 339.650203 60.593254 
L 340.700865 60.532271 
L 341.751527 61.233577 
L 342.802189 59.617525 
L 343.852851 63.24602 
L 344.903513 61.264069 
L 345.954175 60.928661 
L 347.004837 67.423363 
L 348.055499 59.769982 
L 349.106161 58.062455 
L 350.156823 59.221134 
L 351.207485 58.916219 
L 352.258147 58.885727 
L 353.308808 59.92244 
L 354.35947 59.007693 
L 355.410132 60.471288 
L 356.460794 58.55032 
L 357.511456 58.611303 
L 358.562118 58.489337 
L 359.61278 59.983423 
L 360.663442 58.855236 
L 361.714104 58.824744 
L 362.764766 59.12966 
L 364.86609 58.458845 
L 365.916752 57.788031 
L 366.967414 59.190643 
L 368.018076 56.873285 
L 369.068738 59.038185 
L 370.1194 58.336879 
L 371.170062 56.873285 
L 372.220724 59.099168 
L 373.271386 57.300166 
L 374.322048 58.855236 
L 375.37271 58.214913 
L 376.423372 57.75754 
L 377.474034 58.977202 
L 378.524695 58.184421 
L 379.575357 57.75754 
L 381.676681 58.916219 
L 382.727343 56.598861 
L 383.778005 58.184421 
L 384.828667 57.452624 
L 385.879329 58.245405 
L 386.929991 60.257847 
L 387.980653 59.92244 
L 389.031315 57.269675 
L 390.081977 57.940489 
L 391.132639 57.025742 
L 392.183301 58.794253 
L 393.233963 58.275896 
L 394.284625 56.263453 
L 395.335287 58.519829 
L 396.385949 56.598861 
L 397.436611 56.446403 
L 398.487273 57.300166 
L 398.487273 57.300166 
" style="fill:none;stroke:#ff7f0e;stroke-linecap:square;stroke-width:1.5;"/>
   </g>
   <g id="patch_3">
    <path d="M 57.6 307.584 
L 57.6 41.472 
" style="fill:none;stroke:#000000;stroke-linecap:square;stroke-linejoin:miter;stroke-width:0.8;"/>
   </g>
   <g id="patch_4">
    <path d="M 414.72 307.584 
L 414.72 41.472 
" style="fill:none;stroke:#000000;stroke-linecap:square;stroke-linejoin:miter;stroke-width:0.8;"/>
   </g>
   <g id="patch_5">
    <path d="M 57.6 307.584 
L 414.72 307.584 
" style="fill:none;stroke:#000000;stroke-linecap:square;stroke-linejoin:miter;stroke-width:0.8;"/>
   </g>
   <g id="patch_6">
    <path d="M 57.6 41.472 
L 414.72 41.472 
" style="fill:none;stroke:#000000;stroke-linecap:square;stroke-linejoin:miter;stroke-width:0.8;"/>
   </g>
   <g id="text_21">
    <!-- Training and Validation Accuracy -->
    <g transform="translate(138.4575 35.472)scale(0.12 -0.12)">
     <defs>
      <path d="M -19 4666 
L 3928 4666 
L 3928 4134 
L 2272 4134 
L 2272 0 
L 1638 0 
L 1638 4134 
L -19 4134 
L -19 4666 
z
" id="DejaVuSans-54" transform="scale(0.015625)"/>
      <path d="M 603 3500 
L 1178 3500 
L 1178 0 
L 603 0 
L 603 3500 
z
M 603 4863 
L 1178 4863 
L 1178 4134 
L 603 4134 
L 603 4863 
z
" id="DejaVuSans-69" transform="scale(0.015625)"/>
      <path d="M 3513 2113 
L 3513 0 
L 2938 0 
L 2938 2094 
Q 2938 2591 2744 2837 
Q 2550 3084 2163 3084 
Q 1697 3084 1428 2787 
Q 1159 2491 1159 1978 
L 1159 0 
L 581 0 
L 581 3500 
L 1159 3500 
L 1159 2956 
Q 1366 3272 1645 3428 
Q 1925 3584 2291 3584 
Q 2894 3584 3203 3211 
Q 3513 2838 3513 2113 
z
" id="DejaVuSans-6e" transform="scale(0.015625)"/>
      <path d="M 2906 1791 
Q 2906 2416 2648 2759 
Q 2391 3103 1925 3103 
Q 1463 3103 1205 2759 
Q 947 2416 947 1791 
Q 947 1169 1205 825 
Q 1463 481 1925 481 
Q 2391 481 2648 825 
Q 2906 1169 2906 1791 
z
M 3481 434 
Q 3481 -459 3084 -895 
Q 2688 -1331 1869 -1331 
Q 1566 -1331 1297 -1286 
Q 1028 -1241 775 -1147 
L 775 -588 
Q 1028 -725 1275 -790 
Q 1522 -856 1778 -856 
Q 2344 -856 2625 -561 
Q 2906 -266 2906 331 
L 2906 616 
Q 2728 306 2450 153 
Q 2172 0 1784 0 
Q 1141 0 747 490 
Q 353 981 353 1791 
Q 353 2603 747 3093 
Q 1141 3584 1784 3584 
Q 2172 3584 2450 3431 
Q 2728 3278 2906 2969 
L 2906 3500 
L 3481 3500 
L 3481 434 
z
" id="DejaVuSans-67" transform="scale(0.015625)"/>
      <path id="DejaVuSans-20" transform="scale(0.015625)"/>
      <path d="M 2906 2969 
L 2906 4863 
L 3481 4863 
L 3481 0 
L 2906 0 
L 2906 525 
Q 2725 213 2448 61 
Q 2172 -91 1784 -91 
Q 1150 -91 751 415 
Q 353 922 353 1747 
Q 353 2572 751 3078 
Q 1150 3584 1784 3584 
Q 2172 3584 2448 3432 
Q 2725 3281 2906 2969 
z
M 947 1747 
Q 947 1113 1208 752 
Q 1469 391 1925 391 
Q 2381 391 2643 752 
Q 2906 1113 2906 1747 
Q 2906 2381 2643 2742 
Q 2381 3103 1925 3103 
Q 1469 3103 1208 2742 
Q 947 2381 947 1747 
z
" id="DejaVuSans-64" transform="scale(0.015625)"/>
      <path d="M 1831 0 
L 50 4666 
L 709 4666 
L 2188 738 
L 3669 4666 
L 4325 4666 
L 2547 0 
L 1831 0 
z
" id="DejaVuSans-56" transform="scale(0.015625)"/>
      <path d="M 603 4863 
L 1178 4863 
L 1178 0 
L 603 0 
L 603 4863 
z
" id="DejaVuSans-6c" transform="scale(0.015625)"/>
      <path d="M 1172 4494 
L 1172 3500 
L 2356 3500 
L 2356 3053 
L 1172 3053 
L 1172 1153 
Q 1172 725 1289 603 
Q 1406 481 1766 481 
L 2356 481 
L 2356 0 
L 1766 0 
Q 1100 0 847 248 
Q 594 497 594 1153 
L 594 3053 
L 172 3053 
L 172 3500 
L 594 3500 
L 594 4494 
L 1172 4494 
z
" id="DejaVuSans-74" transform="scale(0.015625)"/>
     </defs>
     <use xlink:href="#DejaVuSans-54"/>
     <use x="46.333984" xlink:href="#DejaVuSans-72"/>
     <use x="87.447266" xlink:href="#DejaVuSans-61"/>
     <use x="148.726562" xlink:href="#DejaVuSans-69"/>
     <use x="176.509766" xlink:href="#DejaVuSans-6e"/>
     <use x="239.888672" xlink:href="#DejaVuSans-69"/>
     <use x="267.671875" xlink:href="#DejaVuSans-6e"/>
     <use x="331.050781" xlink:href="#DejaVuSans-67"/>
     <use x="394.527344" xlink:href="#DejaVuSans-20"/>
     <use x="426.314453" xlink:href="#DejaVuSans-61"/>
     <use x="487.59375" xlink:href="#DejaVuSans-6e"/>
     <use x="550.972656" xlink:href="#DejaVuSans-64"/>
     <use x="614.449219" xlink:href="#DejaVuSans-20"/>
     <use x="646.236328" xlink:href="#DejaVuSans-56"/>
     <use x="706.894531" xlink:href="#DejaVuSans-61"/>
     <use x="768.173828" xlink:href="#DejaVuSans-6c"/>
     <use x="795.957031" xlink:href="#DejaVuSans-69"/>
     <use x="823.740234" xlink:href="#DejaVuSans-64"/>
     <use x="887.216797" xlink:href="#DejaVuSans-61"/>
     <use x="948.496094" xlink:href="#DejaVuSans-74"/>
     <use x="987.705078" xlink:href="#DejaVuSans-69"/>
     <use x="1015.488281" xlink:href="#DejaVuSans-6f"/>
     <use x="1076.669922" xlink:href="#DejaVuSans-6e"/>
     <use x="1140.048828" xlink:href="#DejaVuSans-20"/>
     <use x="1171.835938" xlink:href="#DejaVuSans-41"/>
     <use x="1238.494141" xlink:href="#DejaVuSans-63"/>
     <use x="1293.474609" xlink:href="#DejaVuSans-63"/>
     <use x="1348.455078" xlink:href="#DejaVuSans-75"/>
     <use x="1411.833984" xlink:href="#DejaVuSans-72"/>
     <use x="1452.947266" xlink:href="#DejaVuSans-61"/>
     <use x="1514.226562" xlink:href="#DejaVuSans-63"/>
     <use x="1569.207031" xlink:href="#DejaVuSans-79"/>
    </g>
   </g>
   <g id="legend_1">
    <g id="patch_7">
     <path d="M 277.504375 302.584 
L 407.72 302.584 
Q 409.72 302.584 409.72 300.584 
L 409.72 272.22775 
Q 409.72 270.22775 407.72 270.22775 
L 277.504375 270.22775 
Q 275.504375 270.22775 275.504375 272.22775 
L 275.504375 300.584 
Q 275.504375 302.584 277.504375 302.584 
z
" style="fill:#ffffff;opacity:0.8;stroke:#cccccc;stroke-linejoin:miter;"/>
    </g>
    <g id="line2d_21">
     <path d="M 279.504375 278.326187 
L 299.504375 278.326187 
" style="fill:none;stroke:#1f77b4;stroke-linecap:square;stroke-width:1.5;"/>
    </g>
    <g id="line2d_22"/>
    <g id="text_22">
     <!-- Train Accuracy -->
     <g transform="translate(307.504375 281.826187)scale(0.1 -0.1)">
      <use xlink:href="#DejaVuSans-54"/>
      <use x="46.333984" xlink:href="#DejaVuSans-72"/>
      <use x="87.447266" xlink:href="#DejaVuSans-61"/>
      <use x="148.726562" xlink:href="#DejaVuSans-69"/>
      <use x="176.509766" xlink:href="#DejaVuSans-6e"/>
      <use x="239.888672" xlink:href="#DejaVuSans-20"/>
      <use x="271.675781" xlink:href="#DejaVuSans-41"/>
      <use x="338.333984" xlink:href="#DejaVuSans-63"/>
      <use x="393.314453" xlink:href="#DejaVuSans-63"/>
      <use x="448.294922" xlink:href="#DejaVuSans-75"/>
      <use x="511.673828" xlink:href="#DejaVuSans-72"/>
      <use x="552.787109" xlink:href="#DejaVuSans-61"/>
      <use x="614.066406" xlink:href="#DejaVuSans-63"/>
      <use x="669.046875" xlink:href="#DejaVuSans-79"/>
     </g>
    </g>
    <g id="line2d_23">
     <path d="M 279.504375 293.004312 
L 299.504375 293.004312 
" style="fill:none;stroke:#ff7f0e;stroke-linecap:square;stroke-width:1.5;"/>
    </g>
    <g id="line2d_24"/>
    <g id="text_23">
     <!-- Validation Accuracy -->
     <g transform="translate(307.504375 296.504312)scale(0.1 -0.1)">
      <use xlink:href="#DejaVuSans-56"/>
      <use x="60.658203" xlink:href="#DejaVuSans-61"/>
      <use x="121.9375" xlink:href="#DejaVuSans-6c"/>
      <use x="149.720703" xlink:href="#DejaVuSans-69"/>
      <use x="177.503906" xlink:href="#DejaVuSans-64"/>
      <use x="240.980469" xlink:href="#DejaVuSans-61"/>
      <use x="302.259766" xlink:href="#DejaVuSans-74"/>
      <use x="341.46875" xlink:href="#DejaVuSans-69"/>
      <use x="369.251953" xlink:href="#DejaVuSans-6f"/>
      <use x="430.433594" xlink:href="#DejaVuSans-6e"/>
      <use x="493.8125" xlink:href="#DejaVuSans-20"/>
      <use x="525.599609" xlink:href="#DejaVuSans-41"/>
      <use x="592.257812" xlink:href="#DejaVuSans-63"/>
      <use x="647.238281" xlink:href="#DejaVuSans-63"/>
      <use x="702.21875" xlink:href="#DejaVuSans-75"/>
      <use x="765.597656" xlink:href="#DejaVuSans-72"/>
      <use x="806.710938" xlink:href="#DejaVuSans-61"/>
      <use x="867.990234" xlink:href="#DejaVuSans-63"/>
      <use x="922.970703" xlink:href="#DejaVuSans-79"/>
     </g>
    </g>
   </g>
  </g>
 </g>
 <defs>
  <clipPath id="p51692831a5">
   <rect height="266.112" width="357.12" x="57.6" y="41.472"/>
  </clipPath>
 </defs>
</svg>
