<?xml version="1.0" encoding="utf-8" standalone="no"?>
<!DOCTYPE svg PUBLIC "-//W3C//DTD SVG 1.1//EN"
  "http://www.w3.org/Graphics/SVG/1.1/DTD/svg11.dtd">
<svg height="345.6pt" version="1.1" viewBox="0 0 460.8 345.6" width="460.8pt" xmlns="http://www.w3.org/2000/svg" xmlns:xlink="http://www.w3.org/1999/xlink">
 <metadata>
  <rdf:RDF xmlns:cc="http://creativecommons.org/ns#" xmlns:dc="http://purl.org/dc/elements/1.1/" xmlns:rdf="http://www.w3.org/1999/02/22-rdf-syntax-ns#">
   <cc:Work>
    <dc:type rdf:resource="http://purl.org/dc/dcmitype/StillImage"/>
    <dc:date>2024-01-17T21:31:00.112103</dc:date>
    <dc:format>image/svg+xml</dc:format>
    <dc:creator>
     <cc:Agent>
      <dc:title>Matplotlib v3.4.3, https://matplotlib.org/</dc:title>
     </cc:Agent>
    </dc:creator>
   </cc:Work>
  </rdf:RDF>
 </metadata>
 <defs>
  <style type="text/css">*{stroke-linecap:butt;stroke-linejoin:round;}</style>
 </defs>
 <g id="figure_1">
  <g id="patch_1">
   <path d="M 0 345.6 
L 460.8 345.6 
L 460.8 0 
L 0 0 
z
" style="fill:#ffffff;"/>
  </g>
  <g id="axes_1">
   <g id="patch_2">
    <path d="M 57.6 307.584 
L 414.72 307.584 
L 414.72 41.472 
L 57.6 41.472 
z
" style="fill:#ffffff;"/>
   </g>
   <g id="matplotlib.axis_1">
    <g id="xtick_1">
     <g id="line2d_1">
      <defs>
       <path d="M 0 0 
L 0 3.5 
" id="m0a2967ba72" style="stroke:#000000;stroke-width:0.8;"/>
      </defs>
      <g>
       <use style="stroke:#000000;stroke-width:0.8;" x="73.832727" xlink:href="#m0a2967ba72" y="307.584"/>
      </g>
     </g>
     <g id="text_1">
      <!-- 1 -->
      <g transform="translate(70.651477 322.182437)scale(0.1 -0.1)">
       <defs>
        <path d="M 794 531 
L 1825 531 
L 1825 4091 
L 703 3866 
L 703 4441 
L 1819 4666 
L 2450 4666 
L 2450 531 
L 3481 531 
L 3481 0 
L 794 0 
L 794 531 
z
" id="DejaVuSans-31" transform="scale(0.015625)"/>
       </defs>
       <use xlink:href="#DejaVuSans-31"/>
      </g>
     </g>
    </g>
    <g id="xtick_2">
     <g id="line2d_2">
      <g>
       <use style="stroke:#000000;stroke-width:0.8;" x="109.710992" xlink:href="#m0a2967ba72" y="307.584"/>
      </g>
     </g>
     <g id="text_2">
      <!-- 42 -->
      <g transform="translate(103.348492 322.182437)scale(0.1 -0.1)">
       <defs>
        <path d="M 2419 4116 
L 825 1625 
L 2419 1625 
L 2419 4116 
z
M 2253 4666 
L 3047 4666 
L 3047 1625 
L 3713 1625 
L 3713 1100 
L 3047 1100 
L 3047 0 
L 2419 0 
L 2419 1100 
L 313 1100 
L 313 1709 
L 2253 4666 
z
" id="DejaVuSans-34" transform="scale(0.015625)"/>
        <path d="M 1228 531 
L 3431 531 
L 3431 0 
L 469 0 
L 469 531 
Q 828 903 1448 1529 
Q 2069 2156 2228 2338 
Q 2531 2678 2651 2914 
Q 2772 3150 2772 3378 
Q 2772 3750 2511 3984 
Q 2250 4219 1831 4219 
Q 1534 4219 1204 4116 
Q 875 4013 500 3803 
L 500 4441 
Q 881 4594 1212 4672 
Q 1544 4750 1819 4750 
Q 2544 4750 2975 4387 
Q 3406 4025 3406 3419 
Q 3406 3131 3298 2873 
Q 3191 2616 2906 2266 
Q 2828 2175 2409 1742 
Q 1991 1309 1228 531 
z
" id="DejaVuSans-32" transform="scale(0.015625)"/>
       </defs>
       <use xlink:href="#DejaVuSans-34"/>
       <use x="63.623047" xlink:href="#DejaVuSans-32"/>
      </g>
     </g>
    </g>
    <g id="xtick_3">
     <g id="line2d_3">
      <g>
       <use style="stroke:#000000;stroke-width:0.8;" x="145.589258" xlink:href="#m0a2967ba72" y="307.584"/>
      </g>
     </g>
     <g id="text_3">
      <!-- 83 -->
      <g transform="translate(139.226758 322.182437)scale(0.1 -0.1)">
       <defs>
        <path d="M 2034 2216 
Q 1584 2216 1326 1975 
Q 1069 1734 1069 1313 
Q 1069 891 1326 650 
Q 1584 409 2034 409 
Q 2484 409 2743 651 
Q 3003 894 3003 1313 
Q 3003 1734 2745 1975 
Q 2488 2216 2034 2216 
z
M 1403 2484 
Q 997 2584 770 2862 
Q 544 3141 544 3541 
Q 544 4100 942 4425 
Q 1341 4750 2034 4750 
Q 2731 4750 3128 4425 
Q 3525 4100 3525 3541 
Q 3525 3141 3298 2862 
Q 3072 2584 2669 2484 
Q 3125 2378 3379 2068 
Q 3634 1759 3634 1313 
Q 3634 634 3220 271 
Q 2806 -91 2034 -91 
Q 1263 -91 848 271 
Q 434 634 434 1313 
Q 434 1759 690 2068 
Q 947 2378 1403 2484 
z
M 1172 3481 
Q 1172 3119 1398 2916 
Q 1625 2713 2034 2713 
Q 2441 2713 2670 2916 
Q 2900 3119 2900 3481 
Q 2900 3844 2670 4047 
Q 2441 4250 2034 4250 
Q 1625 4250 1398 4047 
Q 1172 3844 1172 3481 
z
" id="DejaVuSans-38" transform="scale(0.015625)"/>
        <path d="M 2597 2516 
Q 3050 2419 3304 2112 
Q 3559 1806 3559 1356 
Q 3559 666 3084 287 
Q 2609 -91 1734 -91 
Q 1441 -91 1130 -33 
Q 819 25 488 141 
L 488 750 
Q 750 597 1062 519 
Q 1375 441 1716 441 
Q 2309 441 2620 675 
Q 2931 909 2931 1356 
Q 2931 1769 2642 2001 
Q 2353 2234 1838 2234 
L 1294 2234 
L 1294 2753 
L 1863 2753 
Q 2328 2753 2575 2939 
Q 2822 3125 2822 3475 
Q 2822 3834 2567 4026 
Q 2313 4219 1838 4219 
Q 1578 4219 1281 4162 
Q 984 4106 628 3988 
L 628 4550 
Q 988 4650 1302 4700 
Q 1616 4750 1894 4750 
Q 2613 4750 3031 4423 
Q 3450 4097 3450 3541 
Q 3450 3153 3228 2886 
Q 3006 2619 2597 2516 
z
" id="DejaVuSans-33" transform="scale(0.015625)"/>
       </defs>
       <use xlink:href="#DejaVuSans-38"/>
       <use x="63.623047" xlink:href="#DejaVuSans-33"/>
      </g>
     </g>
    </g>
    <g id="xtick_4">
     <g id="line2d_4">
      <g>
       <use style="stroke:#000000;stroke-width:0.8;" x="181.467523" xlink:href="#m0a2967ba72" y="307.584"/>
      </g>
     </g>
     <g id="text_4">
      <!-- 124 -->
      <g transform="translate(171.923773 322.182437)scale(0.1 -0.1)">
       <use xlink:href="#DejaVuSans-31"/>
       <use x="63.623047" xlink:href="#DejaVuSans-32"/>
       <use x="127.246094" xlink:href="#DejaVuSans-34"/>
      </g>
     </g>
    </g>
    <g id="xtick_5">
     <g id="line2d_5">
      <g>
       <use style="stroke:#000000;stroke-width:0.8;" x="217.345788" xlink:href="#m0a2967ba72" y="307.584"/>
      </g>
     </g>
     <g id="text_5">
      <!-- 165 -->
      <g transform="translate(207.802038 322.182437)scale(0.1 -0.1)">
       <defs>
        <path d="M 2113 2584 
Q 1688 2584 1439 2293 
Q 1191 2003 1191 1497 
Q 1191 994 1439 701 
Q 1688 409 2113 409 
Q 2538 409 2786 701 
Q 3034 994 3034 1497 
Q 3034 2003 2786 2293 
Q 2538 2584 2113 2584 
z
M 3366 4563 
L 3366 3988 
Q 3128 4100 2886 4159 
Q 2644 4219 2406 4219 
Q 1781 4219 1451 3797 
Q 1122 3375 1075 2522 
Q 1259 2794 1537 2939 
Q 1816 3084 2150 3084 
Q 2853 3084 3261 2657 
Q 3669 2231 3669 1497 
Q 3669 778 3244 343 
Q 2819 -91 2113 -91 
Q 1303 -91 875 529 
Q 447 1150 447 2328 
Q 447 3434 972 4092 
Q 1497 4750 2381 4750 
Q 2619 4750 2861 4703 
Q 3103 4656 3366 4563 
z
" id="DejaVuSans-36" transform="scale(0.015625)"/>
        <path d="M 691 4666 
L 3169 4666 
L 3169 4134 
L 1269 4134 
L 1269 2991 
Q 1406 3038 1543 3061 
Q 1681 3084 1819 3084 
Q 2600 3084 3056 2656 
Q 3513 2228 3513 1497 
Q 3513 744 3044 326 
Q 2575 -91 1722 -91 
Q 1428 -91 1123 -41 
Q 819 9 494 109 
L 494 744 
Q 775 591 1075 516 
Q 1375 441 1709 441 
Q 2250 441 2565 725 
Q 2881 1009 2881 1497 
Q 2881 1984 2565 2268 
Q 2250 2553 1709 2553 
Q 1456 2553 1204 2497 
Q 953 2441 691 2322 
L 691 4666 
z
" id="DejaVuSans-35" transform="scale(0.015625)"/>
       </defs>
       <use xlink:href="#DejaVuSans-31"/>
       <use x="63.623047" xlink:href="#DejaVuSans-36"/>
       <use x="127.246094" xlink:href="#DejaVuSans-35"/>
      </g>
     </g>
    </g>
    <g id="xtick_6">
     <g id="line2d_6">
      <g>
       <use style="stroke:#000000;stroke-width:0.8;" x="254.099133" xlink:href="#m0a2967ba72" y="307.584"/>
      </g>
     </g>
     <g id="text_6">
      <!-- 207 -->
      <g transform="translate(244.555383 322.182437)scale(0.1 -0.1)">
       <defs>
        <path d="M 2034 4250 
Q 1547 4250 1301 3770 
Q 1056 3291 1056 2328 
Q 1056 1369 1301 889 
Q 1547 409 2034 409 
Q 2525 409 2770 889 
Q 3016 1369 3016 2328 
Q 3016 3291 2770 3770 
Q 2525 4250 2034 4250 
z
M 2034 4750 
Q 2819 4750 3233 4129 
Q 3647 3509 3647 2328 
Q 3647 1150 3233 529 
Q 2819 -91 2034 -91 
Q 1250 -91 836 529 
Q 422 1150 422 2328 
Q 422 3509 836 4129 
Q 1250 4750 2034 4750 
z
" id="DejaVuSans-30" transform="scale(0.015625)"/>
        <path d="M 525 4666 
L 3525 4666 
L 3525 4397 
L 1831 0 
L 1172 0 
L 2766 4134 
L 525 4134 
L 525 4666 
z
" id="DejaVuSans-37" transform="scale(0.015625)"/>
       </defs>
       <use xlink:href="#DejaVuSans-32"/>
       <use x="63.623047" xlink:href="#DejaVuSans-30"/>
       <use x="127.246094" xlink:href="#DejaVuSans-37"/>
      </g>
     </g>
    </g>
    <g id="xtick_7">
     <g id="line2d_7">
      <g>
       <use style="stroke:#000000;stroke-width:0.8;" x="289.977398" xlink:href="#m0a2967ba72" y="307.584"/>
      </g>
     </g>
     <g id="text_7">
      <!-- 248 -->
      <g transform="translate(280.433648 322.182437)scale(0.1 -0.1)">
       <use xlink:href="#DejaVuSans-32"/>
       <use x="63.623047" xlink:href="#DejaVuSans-34"/>
       <use x="127.246094" xlink:href="#DejaVuSans-38"/>
      </g>
     </g>
    </g>
    <g id="xtick_8">
     <g id="line2d_8">
      <g>
       <use style="stroke:#000000;stroke-width:0.8;" x="325.855663" xlink:href="#m0a2967ba72" y="307.584"/>
      </g>
     </g>
     <g id="text_8">
      <!-- 289 -->
      <g transform="translate(316.311913 322.182437)scale(0.1 -0.1)">
       <defs>
        <path d="M 703 97 
L 703 672 
Q 941 559 1184 500 
Q 1428 441 1663 441 
Q 2288 441 2617 861 
Q 2947 1281 2994 2138 
Q 2813 1869 2534 1725 
Q 2256 1581 1919 1581 
Q 1219 1581 811 2004 
Q 403 2428 403 3163 
Q 403 3881 828 4315 
Q 1253 4750 1959 4750 
Q 2769 4750 3195 4129 
Q 3622 3509 3622 2328 
Q 3622 1225 3098 567 
Q 2575 -91 1691 -91 
Q 1453 -91 1209 -44 
Q 966 3 703 97 
z
M 1959 2075 
Q 2384 2075 2632 2365 
Q 2881 2656 2881 3163 
Q 2881 3666 2632 3958 
Q 2384 4250 1959 4250 
Q 1534 4250 1286 3958 
Q 1038 3666 1038 3163 
Q 1038 2656 1286 2365 
Q 1534 2075 1959 2075 
z
" id="DejaVuSans-39" transform="scale(0.015625)"/>
       </defs>
       <use xlink:href="#DejaVuSans-32"/>
       <use x="63.623047" xlink:href="#DejaVuSans-38"/>
       <use x="127.246094" xlink:href="#DejaVuSans-39"/>
      </g>
     </g>
    </g>
    <g id="xtick_9">
     <g id="line2d_9">
      <g>
       <use style="stroke:#000000;stroke-width:0.8;" x="361.733928" xlink:href="#m0a2967ba72" y="307.584"/>
      </g>
     </g>
     <g id="text_9">
      <!-- 330 -->
      <g transform="translate(352.190178 322.182437)scale(0.1 -0.1)">
       <use xlink:href="#DejaVuSans-33"/>
       <use x="63.623047" xlink:href="#DejaVuSans-33"/>
       <use x="127.246094" xlink:href="#DejaVuSans-30"/>
      </g>
     </g>
    </g>
    <g id="xtick_10">
     <g id="line2d_10">
      <g>
       <use style="stroke:#000000;stroke-width:0.8;" x="398.487273" xlink:href="#m0a2967ba72" y="307.584"/>
      </g>
     </g>
     <g id="text_10">
      <!-- 372 -->
      <g transform="translate(388.943523 322.182437)scale(0.1 -0.1)">
       <use xlink:href="#DejaVuSans-33"/>
       <use x="63.623047" xlink:href="#DejaVuSans-37"/>
       <use x="127.246094" xlink:href="#DejaVuSans-32"/>
      </g>
     </g>
    </g>
    <g id="text_11">
     <!-- Epochs -->
     <g transform="translate(218.244375 335.860562)scale(0.1 -0.1)">
      <defs>
       <path d="M 628 4666 
L 3578 4666 
L 3578 4134 
L 1259 4134 
L 1259 2753 
L 3481 2753 
L 3481 2222 
L 1259 2222 
L 1259 531 
L 3634 531 
L 3634 0 
L 628 0 
L 628 4666 
z
" id="DejaVuSans-45" transform="scale(0.015625)"/>
       <path d="M 1159 525 
L 1159 -1331 
L 581 -1331 
L 581 3500 
L 1159 3500 
L 1159 2969 
Q 1341 3281 1617 3432 
Q 1894 3584 2278 3584 
Q 2916 3584 3314 3078 
Q 3713 2572 3713 1747 
Q 3713 922 3314 415 
Q 2916 -91 2278 -91 
Q 1894 -91 1617 61 
Q 1341 213 1159 525 
z
M 3116 1747 
Q 3116 2381 2855 2742 
Q 2594 3103 2138 3103 
Q 1681 3103 1420 2742 
Q 1159 2381 1159 1747 
Q 1159 1113 1420 752 
Q 1681 391 2138 391 
Q 2594 391 2855 752 
Q 3116 1113 3116 1747 
z
" id="DejaVuSans-70" transform="scale(0.015625)"/>
       <path d="M 1959 3097 
Q 1497 3097 1228 2736 
Q 959 2375 959 1747 
Q 959 1119 1226 758 
Q 1494 397 1959 397 
Q 2419 397 2687 759 
Q 2956 1122 2956 1747 
Q 2956 2369 2687 2733 
Q 2419 3097 1959 3097 
z
M 1959 3584 
Q 2709 3584 3137 3096 
Q 3566 2609 3566 1747 
Q 3566 888 3137 398 
Q 2709 -91 1959 -91 
Q 1206 -91 779 398 
Q 353 888 353 1747 
Q 353 2609 779 3096 
Q 1206 3584 1959 3584 
z
" id="DejaVuSans-6f" transform="scale(0.015625)"/>
       <path d="M 3122 3366 
L 3122 2828 
Q 2878 2963 2633 3030 
Q 2388 3097 2138 3097 
Q 1578 3097 1268 2742 
Q 959 2388 959 1747 
Q 959 1106 1268 751 
Q 1578 397 2138 397 
Q 2388 397 2633 464 
Q 2878 531 3122 666 
L 3122 134 
Q 2881 22 2623 -34 
Q 2366 -91 2075 -91 
Q 1284 -91 818 406 
Q 353 903 353 1747 
Q 353 2603 823 3093 
Q 1294 3584 2113 3584 
Q 2378 3584 2631 3529 
Q 2884 3475 3122 3366 
z
" id="DejaVuSans-63" transform="scale(0.015625)"/>
       <path d="M 3513 2113 
L 3513 0 
L 2938 0 
L 2938 2094 
Q 2938 2591 2744 2837 
Q 2550 3084 2163 3084 
Q 1697 3084 1428 2787 
Q 1159 2491 1159 1978 
L 1159 0 
L 581 0 
L 581 4863 
L 1159 4863 
L 1159 2956 
Q 1366 3272 1645 3428 
Q 1925 3584 2291 3584 
Q 2894 3584 3203 3211 
Q 3513 2838 3513 2113 
z
" id="DejaVuSans-68" transform="scale(0.015625)"/>
       <path d="M 2834 3397 
L 2834 2853 
Q 2591 2978 2328 3040 
Q 2066 3103 1784 3103 
Q 1356 3103 1142 2972 
Q 928 2841 928 2578 
Q 928 2378 1081 2264 
Q 1234 2150 1697 2047 
L 1894 2003 
Q 2506 1872 2764 1633 
Q 3022 1394 3022 966 
Q 3022 478 2636 193 
Q 2250 -91 1575 -91 
Q 1294 -91 989 -36 
Q 684 19 347 128 
L 347 722 
Q 666 556 975 473 
Q 1284 391 1588 391 
Q 1994 391 2212 530 
Q 2431 669 2431 922 
Q 2431 1156 2273 1281 
Q 2116 1406 1581 1522 
L 1381 1569 
Q 847 1681 609 1914 
Q 372 2147 372 2553 
Q 372 3047 722 3315 
Q 1072 3584 1716 3584 
Q 2034 3584 2315 3537 
Q 2597 3491 2834 3397 
z
" id="DejaVuSans-73" transform="scale(0.015625)"/>
      </defs>
      <use xlink:href="#DejaVuSans-45"/>
      <use x="63.183594" xlink:href="#DejaVuSans-70"/>
      <use x="126.660156" xlink:href="#DejaVuSans-6f"/>
      <use x="187.841797" xlink:href="#DejaVuSans-63"/>
      <use x="242.822266" xlink:href="#DejaVuSans-68"/>
      <use x="306.201172" xlink:href="#DejaVuSans-73"/>
     </g>
    </g>
   </g>
   <g id="matplotlib.axis_2">
    <g id="ytick_1">
     <g id="line2d_11">
      <defs>
       <path d="M 0 0 
L -3.5 0 
" id="med620e11be" style="stroke:#000000;stroke-width:0.8;"/>
      </defs>
      <g>
       <use style="stroke:#000000;stroke-width:0.8;" x="57.6" xlink:href="#med620e11be" y="279.182864"/>
      </g>
     </g>
     <g id="text_12">
      <!-- 10 -->
      <g transform="translate(37.875 282.982083)scale(0.1 -0.1)">
       <use xlink:href="#DejaVuSans-31"/>
       <use x="63.623047" xlink:href="#DejaVuSans-30"/>
      </g>
     </g>
    </g>
    <g id="ytick_2">
     <g id="line2d_12">
      <g>
       <use style="stroke:#000000;stroke-width:0.8;" x="57.6" xlink:href="#med620e11be" y="248.430061"/>
      </g>
     </g>
     <g id="text_13">
      <!-- 20 -->
      <g transform="translate(37.875 252.22928)scale(0.1 -0.1)">
       <use xlink:href="#DejaVuSans-32"/>
       <use x="63.623047" xlink:href="#DejaVuSans-30"/>
      </g>
     </g>
    </g>
    <g id="ytick_3">
     <g id="line2d_13">
      <g>
       <use style="stroke:#000000;stroke-width:0.8;" x="57.6" xlink:href="#med620e11be" y="217.677258"/>
      </g>
     </g>
     <g id="text_14">
      <!-- 30 -->
      <g transform="translate(37.875 221.476477)scale(0.1 -0.1)">
       <use xlink:href="#DejaVuSans-33"/>
       <use x="63.623047" xlink:href="#DejaVuSans-30"/>
      </g>
     </g>
    </g>
    <g id="ytick_4">
     <g id="line2d_14">
      <g>
       <use style="stroke:#000000;stroke-width:0.8;" x="57.6" xlink:href="#med620e11be" y="186.924455"/>
      </g>
     </g>
     <g id="text_15">
      <!-- 40 -->
      <g transform="translate(37.875 190.723674)scale(0.1 -0.1)">
       <use xlink:href="#DejaVuSans-34"/>
       <use x="63.623047" xlink:href="#DejaVuSans-30"/>
      </g>
     </g>
    </g>
    <g id="ytick_5">
     <g id="line2d_15">
      <g>
       <use style="stroke:#000000;stroke-width:0.8;" x="57.6" xlink:href="#med620e11be" y="156.171652"/>
      </g>
     </g>
     <g id="text_16">
      <!-- 50 -->
      <g transform="translate(37.875 159.970871)scale(0.1 -0.1)">
       <use xlink:href="#DejaVuSans-35"/>
       <use x="63.623047" xlink:href="#DejaVuSans-30"/>
      </g>
     </g>
    </g>
    <g id="ytick_6">
     <g id="line2d_16">
      <g>
       <use style="stroke:#000000;stroke-width:0.8;" x="57.6" xlink:href="#med620e11be" y="125.418849"/>
      </g>
     </g>
     <g id="text_17">
      <!-- 60 -->
      <g transform="translate(37.875 129.218068)scale(0.1 -0.1)">
       <use xlink:href="#DejaVuSans-36"/>
       <use x="63.623047" xlink:href="#DejaVuSans-30"/>
      </g>
     </g>
    </g>
    <g id="ytick_7">
     <g id="line2d_17">
      <g>
       <use style="stroke:#000000;stroke-width:0.8;" x="57.6" xlink:href="#med620e11be" y="94.666046"/>
      </g>
     </g>
     <g id="text_18">
      <!-- 70 -->
      <g transform="translate(37.875 98.465265)scale(0.1 -0.1)">
       <use xlink:href="#DejaVuSans-37"/>
       <use x="63.623047" xlink:href="#DejaVuSans-30"/>
      </g>
     </g>
    </g>
    <g id="ytick_8">
     <g id="line2d_18">
      <g>
       <use style="stroke:#000000;stroke-width:0.8;" x="57.6" xlink:href="#med620e11be" y="63.913243"/>
      </g>
     </g>
     <g id="text_19">
      <!-- 80 -->
      <g transform="translate(37.875 67.712462)scale(0.1 -0.1)">
       <use xlink:href="#DejaVuSans-38"/>
       <use x="63.623047" xlink:href="#DejaVuSans-30"/>
      </g>
     </g>
    </g>
    <g id="text_20">
     <!-- Accuracy -->
     <g transform="translate(31.795312 197.356125)rotate(-90)scale(0.1 -0.1)">
      <defs>
       <path d="M 2188 4044 
L 1331 1722 
L 3047 1722 
L 2188 4044 
z
M 1831 4666 
L 2547 4666 
L 4325 0 
L 3669 0 
L 3244 1197 
L 1141 1197 
L 716 0 
L 50 0 
L 1831 4666 
z
" id="DejaVuSans-41" transform="scale(0.015625)"/>
       <path d="M 544 1381 
L 544 3500 
L 1119 3500 
L 1119 1403 
Q 1119 906 1312 657 
Q 1506 409 1894 409 
Q 2359 409 2629 706 
Q 2900 1003 2900 1516 
L 2900 3500 
L 3475 3500 
L 3475 0 
L 2900 0 
L 2900 538 
Q 2691 219 2414 64 
Q 2138 -91 1772 -91 
Q 1169 -91 856 284 
Q 544 659 544 1381 
z
M 1991 3584 
L 1991 3584 
z
" id="DejaVuSans-75" transform="scale(0.015625)"/>
       <path d="M 2631 2963 
Q 2534 3019 2420 3045 
Q 2306 3072 2169 3072 
Q 1681 3072 1420 2755 
Q 1159 2438 1159 1844 
L 1159 0 
L 581 0 
L 581 3500 
L 1159 3500 
L 1159 2956 
Q 1341 3275 1631 3429 
Q 1922 3584 2338 3584 
Q 2397 3584 2469 3576 
Q 2541 3569 2628 3553 
L 2631 2963 
z
" id="DejaVuSans-72" transform="scale(0.015625)"/>
       <path d="M 2194 1759 
Q 1497 1759 1228 1600 
Q 959 1441 959 1056 
Q 959 750 1161 570 
Q 1363 391 1709 391 
Q 2188 391 2477 730 
Q 2766 1069 2766 1631 
L 2766 1759 
L 2194 1759 
z
M 3341 1997 
L 3341 0 
L 2766 0 
L 2766 531 
Q 2569 213 2275 61 
Q 1981 -91 1556 -91 
Q 1019 -91 701 211 
Q 384 513 384 1019 
Q 384 1609 779 1909 
Q 1175 2209 1959 2209 
L 2766 2209 
L 2766 2266 
Q 2766 2663 2505 2880 
Q 2244 3097 1772 3097 
Q 1472 3097 1187 3025 
Q 903 2953 641 2809 
L 641 3341 
Q 956 3463 1253 3523 
Q 1550 3584 1831 3584 
Q 2591 3584 2966 3190 
Q 3341 2797 3341 1997 
z
" id="DejaVuSans-61" transform="scale(0.015625)"/>
       <path d="M 2059 -325 
Q 1816 -950 1584 -1140 
Q 1353 -1331 966 -1331 
L 506 -1331 
L 506 -850 
L 844 -850 
Q 1081 -850 1212 -737 
Q 1344 -625 1503 -206 
L 1606 56 
L 191 3500 
L 800 3500 
L 1894 763 
L 2988 3500 
L 3597 3500 
L 2059 -325 
z
" id="DejaVuSans-79" transform="scale(0.015625)"/>
      </defs>
      <use xlink:href="#DejaVuSans-41"/>
      <use x="66.658203" xlink:href="#DejaVuSans-63"/>
      <use x="121.638672" xlink:href="#DejaVuSans-63"/>
      <use x="176.619141" xlink:href="#DejaVuSans-75"/>
      <use x="239.998047" xlink:href="#DejaVuSans-72"/>
      <use x="281.111328" xlink:href="#DejaVuSans-61"/>
      <use x="342.390625" xlink:href="#DejaVuSans-63"/>
      <use x="397.371094" xlink:href="#DejaVuSans-79"/>
     </g>
    </g>
   </g>
   <g id="line2d_19">
    <path clip-path="url(#pa78d155f09)" d="M 73.832727 295.488 
L 74.707807 287.682939 
L 75.582887 283.672773 
L 76.457966 277.214684 
L 78.208125 266.623419 
L 79.083205 259.05823 
L 79.958285 256.31508 
L 80.833364 247.21225 
L 81.708444 245.773019 
L 82.583524 238.699874 
L 83.458603 235.599991 
L 84.333683 258.221753 
L 85.208763 250.957941 
L 86.083842 242.420963 
L 86.958922 237.764989 
L 87.834001 231.423761 
L 88.709081 226.69398 
L 89.584161 223.218913 
L 90.45924 214.921807 
L 91.33432 213.888513 
L 92.2094 207.996275 
L 93.084479 198.346046 
L 93.959559 202.005629 
L 94.834639 200.683259 
L 96.584798 193.33949 
L 97.459877 192.79209 
L 98.334957 183.504743 
L 100.085116 179.039436 
L 100.960196 177.717066 
L 101.835276 175.23839 
L 102.710355 166.928982 
L 103.585435 167.500985 
L 104.460515 166.584551 
L 105.335594 201.581241 
L 106.210674 198.690477 
L 107.085753 195.338422 
L 107.960833 191.36516 
L 109.710992 184.470381 
L 110.586072 182.520653 
L 111.461152 180.251097 
L 112.336231 177.594054 
L 113.211311 175.607423 
L 114.086391 171.95399 
L 114.96147 170.945298 
L 115.83655 171.51115 
L 116.71163 166.418486 
L 117.586709 168.952517 
L 118.461789 160.483195 
L 119.336868 161.688705 
L 120.211948 164.911599 
L 121.087028 156.239308 
L 121.962107 157.081935 
L 122.837187 155.193713 
L 123.712267 162.863462 
L 124.587346 150.476233 
L 125.462426 146.355357 
L 126.337506 143.53225 
L 127.212585 145.887915 
L 128.087665 144.762362 
L 128.962744 135.714887 
L 129.837824 148.108267 
L 131.587983 132.036852 
L 132.463063 133.125501 
L 133.338143 133.242362 
L 134.213222 142.117621 
L 135.088302 132.01225 
L 136.838461 118.247295 
L 137.713541 120.301582 
L 138.58862 132.928683 
L 140.33878 117.687594 
L 142.088939 125.43115 
L 142.964019 127.165608 
L 143.839098 119.089922 
L 144.714178 116.10075 
L 145.589258 116.86957 
L 146.464337 114.372442 
L 147.339417 154.474097 
L 148.214496 157.198796 
L 149.089576 161.811716 
L 149.964656 158.988609 
L 150.839735 154.892335 
L 151.714815 157.586281 
L 152.589895 150.383974 
L 153.464974 150.55619 
L 154.340054 145.574236 
L 155.215134 147.905298 
L 156.090213 137.17257 
L 156.965293 150.070296 
L 157.840372 151.829356 
L 158.715452 140.7891 
L 159.590532 146.595229 
L 160.465611 132.516596 
L 161.340691 138.70406 
L 162.215771 135.179789 
L 163.09085 136.889644 
L 163.96593 140.500023 
L 164.84101 141.920803 
L 165.716089 142.332891 
L 166.591169 127.922127 
L 167.466248 135.468865 
L 168.341328 132.282875 
L 169.216408 133.617546 
L 170.091487 124.828395 
L 170.966567 125.664871 
L 171.841647 131.274183 
L 172.716726 127.282469 
L 173.591806 125.043665 
L 174.466886 124.650029 
L 175.341965 125.837087 
L 176.217045 116.113051 
L 177.092124 126.85808 
L 177.967204 129.908758 
L 178.842284 125.910894 
L 179.717363 112.92091 
L 180.592443 120.553755 
L 181.467523 122.405074 
L 182.342602 112.588779 
L 183.217682 109.691865 
L 184.092762 111.303312 
L 184.967841 113.948053 
L 185.842921 103.941091 
L 186.718 106.12454 
L 187.59308 106.89336 
L 188.46816 115.33808 
L 189.343239 110.719009 
L 190.218319 109.267477 
L 191.093399 109.531951 
L 191.968478 104.36548 
L 192.843558 110.719009 
L 193.718638 101.161038 
L 194.593717 104.752965 
L 195.468797 102.015966 
L 196.343877 109.63036 
L 197.218956 99.297418 
L 198.094036 97.876639 
L 198.969115 99.949377 
L 199.844195 103.073862 
L 200.719275 99.291267 
L 201.594354 96.966356 
L 202.469434 92.660963 
L 203.344514 103.449046 
L 204.219593 92.568705 
L 205.969753 94.524583 
L 206.844832 97.642917 
L 207.719912 91.369345 
L 208.594991 97.249281 
L 209.470071 90.133083 
L 211.22023 96.209837 
L 212.09531 90.046975 
L 212.97039 80.974898 
L 213.845469 91.664572 
L 214.720549 83.85336 
L 215.595629 78.176393 
L 216.470708 77.075443 
L 217.345788 87.709762 
L 218.220867 76.798667 
L 219.095947 86.448897 
L 219.971027 84.474567 
L 220.846106 78.225597 
L 221.721186 83.379767 
L 222.596266 69.504103 
L 223.471345 79.000568 
L 224.346425 78.711492 
L 225.221505 74.676724 
L 226.096584 91.726078 
L 226.971664 70.223718 
L 227.846743 81.140963 
L 228.721823 76.909377 
L 229.596903 73.772592 
L 230.471982 86.885587 
L 231.347062 132.44894 
L 232.222142 127.07335 
L 233.097221 123.549078 
L 233.972301 128.377269 
L 234.847381 121.685459 
L 235.72246 133.715955 
L 237.472619 118.813147 
L 238.347699 123.026281 
L 239.222779 116.697354 
L 240.097858 115.44879 
L 240.972938 116.894172 
L 241.848018 109.618059 
L 242.723097 116.260664 
L 243.598177 129.115336 
L 244.473257 109.673414 
L 245.348336 125.671022 
L 246.223416 113.283793 
L 247.098495 108.597066 
L 247.973575 117.084839 
L 248.848655 113.517514 
L 249.723734 117.570734 
L 250.598814 106.173745 
L 251.473894 112.496521 
L 252.348973 112.182842 
L 253.224053 116.494385 
L 254.974212 100.558283 
L 255.849292 106.702693 
L 256.724371 107.526868 
L 257.599451 114.950595 
L 258.474531 114.01571 
L 259.34961 106.89336 
L 260.22469 113.043921 
L 261.09977 107.779041 
L 261.974849 105.503334 
L 262.849929 109.648812 
L 263.725009 101.585427 
L 264.600088 107.311599 
L 266.350247 105.878518 
L 267.225327 112.004476 
L 268.100407 109.937888 
L 268.975486 101.831449 
L 269.850566 108.664722 
L 270.725646 108.111171 
L 271.600725 104.119458 
L 272.475805 103.522853 
L 273.350885 104.980536 
L 274.225964 98.87918 
L 275.101044 99.131353 
L 275.976123 100.41067 
L 276.851203 98.098059 
L 277.726283 108.677023 
L 278.601362 95.26265 
L 279.476442 108.141924 
L 280.351522 94.93052 
L 281.226601 102.784786 
L 282.101681 100.662842 
L 282.976761 103.621262 
L 283.85184 93.6143 
L 284.72692 101.216393 
L 285.602 90.268395 
L 286.477079 95.816201 
L 287.352159 92.765523 
L 288.227238 94.481529 
L 289.102318 98.719265 
L 289.977398 95.594781 
L 290.852477 98.294877 
L 291.727557 90.268395 
L 292.602637 96.043771 
L 293.477716 91.63382 
L 294.352796 92.482597 
L 295.227876 89.130541 
L 296.102955 99.174407 
L 296.978035 85.563216 
L 297.853114 91.603067 
L 298.728194 89.161294 
L 299.603274 84.51147 
L 300.478353 89.161294 
L 301.353433 96.215987 
L 302.228513 86.621113 
L 303.103592 98.688513 
L 303.978672 88.294065 
L 304.853752 82.949228 
L 305.728831 85.643174 
L 306.603911 95.311855 
L 307.47899 89.345811 
L 308.35407 82.284967 
L 309.22915 91.74453 
L 310.104229 86.110616 
L 310.979309 78.157941 
L 311.854389 88.201807 
L 312.729468 93.663505 
L 313.604548 82.451033 
L 314.479628 87.949634 
L 315.354707 81.565352 
L 316.229787 89.807103 
L 317.104866 86.239778 
L 317.979946 88.767658 
L 318.855026 82.813916 
L 319.730105 81.743718 
L 320.605185 82.106601 
L 321.480265 81.608406 
L 322.355344 87.875827 
L 323.230424 76.626452 
L 324.105504 88.386324 
L 324.980583 73.249794 
L 325.855663 76.663355 
L 326.730742 76.657204 
L 327.605822 93.509741 
L 328.480902 78.834503 
L 329.355981 81.725266 
L 330.231061 83.601187 
L 331.106141 75.279479 
L 331.98122 76.263569 
L 332.8563 78.736094 
L 333.73138 82.291118 
L 334.606459 79.541817 
L 335.481539 79.541817 
L 336.356618 75.156468 
L 337.231698 78.963665 
L 338.106778 71.177055 
L 338.981857 76.749463 
L 339.856937 77.954973 
L 340.732017 68.661476 
L 341.607096 60.954823 
L 342.482176 80.22453 
L 343.357256 75.851481 
L 344.232335 75.869933 
L 345.107415 68.390851 
L 345.982494 71.552239 
L 346.857574 73.225192 
L 347.732654 70.580451 
L 348.607733 67.400611 
L 349.482813 71.201657 
L 350.357893 65.167957 
L 351.232972 71.656799 
L 352.108052 72.726996 
L 352.983132 72.65934 
L 353.858211 65.832218 
L 354.733291 70.752666 
L 355.60837 67.39446 
L 356.48345 70.568149 
L 357.35853 74.375347 
L 358.233609 66.582586 
L 359.108689 62.467861 
L 359.983769 67.369858 
L 360.858848 58.568406 
L 361.733928 69.055112 
L 362.609008 59.011246 
L 363.484087 64.442191 
L 364.359167 68.876745 
L 365.234247 57.781134 
L 366.109326 66.533382 
L 366.984406 59.546345 
L 367.859485 66.348865 
L 368.734565 58.574556 
L 369.609645 61.90816 
L 370.484724 76.921679 
L 371.359804 63.021412 
L 372.234884 59.564797 
L 373.109963 66.95162 
L 373.985043 57.319842 
L 374.860123 61.79745 
L 375.735202 59.49714 
L 376.610282 65.057247 
L 377.485361 65.721508 
L 378.360441 69.098166 
L 379.235521 55.277856 
L 380.1106 58.906687 
L 380.98568 76.011396 
L 381.86076 61.157792 
L 382.735839 53.568 
L 383.610919 69.707071 
L 384.485999 56.741689 
L 385.361078 68.778336 
L 386.236158 61.059383 
L 387.111237 57.147626 
L 387.986317 65.180258 
L 388.861397 55.579233 
L 389.736476 56.612527 
L 390.611556 63.039863 
L 391.486636 67.548224 
L 392.361715 60.985576 
L 393.236795 59.460237 
L 394.111875 65.481636 
L 394.986954 67.431364 
L 395.862034 62.67698 
L 396.737113 55.505427 
L 397.612193 55.935966 
L 398.487273 65.370926 
L 398.487273 65.370926 
" style="fill:none;stroke:#1f77b4;stroke-linecap:square;stroke-width:1.5;"/>
   </g>
   <g id="line2d_20">
    <path clip-path="url(#pa78d155f09)" d="M 73.832727 290.653659 
L 74.707807 285.364177 
L 76.457966 260.146879 
L 77.333046 250.951791 
L 78.208125 253.042981 
L 79.083205 243.601871 
L 80.833364 218.538336 
L 81.708444 232.715379 
L 82.583524 200.424935 
L 83.458603 198.149228 
L 84.333683 238.097119 
L 85.208763 254.888149 
L 86.083842 224.319863 
L 86.958922 224.135347 
L 87.834001 212.172506 
L 88.709081 213.125843 
L 89.584161 205.283878 
L 90.45924 201.439778 
L 91.33432 176.376243 
L 92.2094 173.147199 
L 93.084479 173.024188 
L 93.959559 169.118582 
L 94.834639 173.546986 
L 95.709718 154.141967 
L 96.584798 159.76973 
L 97.459877 148.022159 
L 98.334957 149.252271 
L 99.210037 137.781476 
L 100.085116 131.999949 
L 101.835276 123.266153 
L 102.710355 124.127231 
L 103.585435 121.605501 
L 104.460515 122.036041 
L 105.335594 160.292527 
L 106.210674 172.685907 
L 107.085753 164.321145 
L 107.960833 160.015752 
L 108.835913 159.400696 
L 109.710992 150.11335 
L 110.586072 142.701924 
L 111.461152 156.202405 
L 112.336231 154.757023 
L 113.211311 147.714631 
L 114.086391 131.446398 
L 114.96147 140.733745 
L 115.83655 135.475015 
L 116.71163 119.94485 
L 117.586709 133.691353 
L 118.461789 123.45067 
L 119.336868 137.104914 
L 120.211948 118.222693 
L 121.087028 114.716873 
L 121.962107 115.854727 
L 122.837187 123.758198 
L 123.712267 115.085907 
L 124.587346 108.781582 
L 126.337506 108.935347 
L 127.212585 105.921572 
L 128.087665 100.970371 
L 128.962744 104.076404 
L 129.837824 102.72328 
L 130.712904 96.972506 
L 131.587983 97.679821 
L 132.463063 92.236574 
L 133.338143 92.021305 
L 134.213222 92.451844 
L 135.088302 89.468822 
L 135.963382 90.821946 
L 136.838461 85.593969 
L 137.713541 86.639564 
L 138.58862 88.392474 
L 139.4637 83.810306 
L 140.33878 82.979981 
L 141.213859 81.995891 
L 142.088939 82.518689 
L 142.964019 81.134813 
L 143.839098 81.749869 
L 144.714178 80.88879 
L 145.589258 81.596105 
L 146.464337 80.796532 
L 147.339417 126.402939 
L 148.214496 130.400803 
L 149.089576 119.883344 
L 149.964656 112.133638 
L 150.839735 119.145277 
L 151.714815 127.633051 
L 152.589895 117.515379 
L 153.464974 114.224829 
L 154.340054 115.793222 
L 155.215134 115.485694 
L 156.090213 105.829313 
L 156.965293 109.950189 
L 157.840372 106.444369 
L 158.715452 105.890819 
L 159.590532 113.086975 
L 161.340691 99.217461 
L 162.215771 106.99792 
L 163.09085 107.55147 
L 163.96593 104.26092 
L 164.84101 112.318155 
L 165.716089 108.043515 
L 166.591169 101.616179 
L 167.466248 98.540899 
L 168.341328 96.449708 
L 169.216408 103.92264 
L 170.091487 99.524989 
L 170.966567 96.080675 
L 171.841647 98.325629 
L 172.716726 97.249281 
L 173.591806 94.666046 
L 174.466886 95.619383 
L 175.341965 99.894022 
L 176.217045 93.866473 
L 177.092124 94.358518 
L 177.967204 93.374428 
L 178.842284 90.422159 
L 179.717363 91.098721 
L 180.592443 99.217461 
L 181.467523 87.408384 
L 183.217682 92.29808 
L 184.092762 85.132677 
L 184.967841 87.408384 
L 185.842921 91.31399 
L 186.718 90.668182 
L 187.59308 86.178272 
L 188.46816 86.547306 
L 189.343239 82.887722 
L 190.218319 84.486868 
L 191.093399 84.94816 
L 191.968478 86.209025 
L 192.843558 80.581262 
L 193.718638 85.16343 
L 194.593717 85.040419 
L 195.468797 80.950296 
L 196.343877 83.902565 
L 197.218956 79.320397 
L 198.094036 79.381903 
L 198.969115 78.028779 
L 199.844195 78.828352 
L 200.719275 78.182544 
L 201.594354 78.274802 
L 202.469434 77.59824 
L 203.344514 79.535667 
L 204.219593 77.04469 
L 205.094673 76.368128 
L 205.969753 76.091353 
L 206.844832 75.50705 
L 207.719912 75.568555 
L 208.594991 72.923814 
L 209.470071 73.661881 
L 210.345151 74.799735 
L 211.22023 73.631129 
L 212.09531 71.878219 
L 212.97039 72.493275 
L 213.845469 71.570691 
L 214.720549 72.00123 
L 215.595629 71.539938 
L 216.470708 71.478432 
L 217.345788 71.601444 
L 218.220867 71.355421 
L 219.095947 72.862309 
L 219.971027 68.92595 
L 220.846106 69.725523 
L 221.721186 69.079714 
L 222.596266 68.218635 
L 223.471345 68.587669 
L 224.346425 69.940792 
L 225.221505 68.526163 
L 226.096584 69.202725 
L 226.971664 68.372399 
L 227.846743 69.571759 
L 228.721823 68.833691 
L 229.596903 70.125309 
L 230.471982 70.46359 
L 231.347062 114.90139 
L 232.222142 108.843088 
L 233.097221 104.014898 
L 233.972301 101.370157 
L 234.847381 103.430595 
L 235.72246 114.286334 
L 236.59754 98.817674 
L 237.472619 99.371225 
L 238.347699 93.036147 
L 239.222779 97.741326 
L 240.097858 93.220664 
L 240.972938 101.216393 
L 241.848018 90.083878 
L 242.723097 97.12627 
L 243.598177 89.468822 
L 244.473257 90.022373 
L 245.348336 96.326697 
L 246.223416 87.531396 
L 247.098495 90.729687 
L 247.973575 92.113563 
L 248.848655 96.14218 
L 249.723734 91.31399 
L 250.598814 93.804967 
L 251.473894 90.360653 
L 252.348973 90.268395 
L 253.224053 97.157023 
L 254.099133 96.480461 
L 254.974212 92.544103 
L 255.849292 89.837856 
L 256.724371 92.851631 
L 257.599451 98.817674 
L 258.474531 88.946025 
L 259.34961 87.223868 
L 260.22469 89.345811 
L 261.09977 88.884519 
L 261.974849 90.483665 
L 262.849929 106.813403 
L 263.725009 91.590766 
L 264.600088 94.389271 
L 265.475168 91.467754 
L 266.350247 91.037215 
L 267.225327 88.792261 
L 268.100407 87.500643 
L 268.975486 87.808171 
L 269.850566 89.622586 
L 270.725646 86.885587 
L 271.600725 88.546238 
L 272.475805 91.067968 
L 273.350885 85.009666 
L 274.225964 86.854834 
L 275.101044 90.514418 
L 275.976123 87.070104 
L 276.851203 82.088149 
L 277.726283 85.409452 
L 278.601362 82.85697 
L 279.476442 81.780621 
L 280.351522 84.94816 
L 282.101681 79.689431 
L 282.976761 83.041486 
L 283.85184 80.273734 
L 284.72692 84.148587 
L 285.602 86.854834 
L 286.477079 84.087082 
L 287.352159 79.13588 
L 288.227238 82.42643 
L 289.102318 80.427498 
L 289.977398 83.41052 
L 290.852477 76.0606 
L 291.727557 82.303419 
L 292.602637 80.396745 
L 293.477716 80.519757 
L 294.352796 78.397813 
L 295.227876 79.13588 
L 296.102955 81.257824 
L 296.978035 75.814578 
L 297.853114 80.827285 
L 298.728194 77.229207 
L 299.603274 78.551577 
L 300.478353 78.920611 
L 302.228513 76.460387 
L 303.103592 77.106195 
L 303.978672 77.290712 
L 304.853752 80.673521 
L 305.728831 72.2165 
L 306.603911 78.274802 
L 307.47899 76.491139 
L 308.35407 74.246185 
L 309.22915 74.984252 
L 310.104229 77.106195 
L 310.979309 75.199522 
L 311.854389 78.705341 
L 312.729468 77.967274 
L 313.604548 73.877151 
L 314.479628 74.553713 
L 315.354707 73.600376 
L 316.229787 73.354353 
L 317.104866 75.384038 
L 317.979946 72.370264 
L 318.855026 74.338443 
L 319.730105 75.50705 
L 320.605185 73.907904 
L 321.480265 73.385106 
L 323.230424 74.153926 
L 324.105504 72.370264 
L 324.980583 73.169837 
L 325.855663 75.045758 
L 326.730742 71.44768 
L 327.605822 71.324668 
L 328.480902 71.847466 
L 329.355981 71.355421 
L 330.231061 72.062736 
L 331.106141 71.755208 
L 331.98122 70.125309 
L 332.8563 72.278005 
L 333.73138 71.78596 
L 334.606459 70.555848 
L 335.481539 68.71068 
L 336.356618 69.602511 
L 337.231698 68.71068 
L 338.106778 71.478432 
L 338.981857 69.571759 
L 339.856937 68.587669 
L 340.732017 68.526163 
L 341.607096 66.680995 
L 342.482176 67.788096 
L 343.357256 68.095624 
L 344.232335 67.94186 
L 345.107415 67.38831 
L 345.982494 68.064871 
L 346.857574 67.480568 
L 347.732654 67.357557 
L 348.607733 65.266366 
L 349.482813 67.419062 
L 350.357893 66.096692 
L 351.232972 66.496478 
L 352.108052 65.666153 
L 352.983132 65.481636 
L 353.858211 64.928085 
L 354.733291 65.819917 
L 355.60837 67.419062 
L 357.35853 65.573894 
L 358.233609 64.251524 
L 359.108689 64.928085 
L 359.983769 63.913243 
L 360.858848 65.481636 
L 362.609008 64.466793 
L 363.484087 65.881422 
L 364.359167 65.758411 
L 365.234247 63.144423 
L 366.109326 64.405288 
L 366.984406 62.652378 
L 367.859485 64.897333 
L 368.734565 62.221839 
L 369.609645 63.820985 
L 370.484724 61.668288 
L 372.234884 64.958838 
L 373.109963 61.914311 
L 373.985043 61.545277 
L 374.860123 62.590872 
L 376.610282 62.34485 
L 377.485361 61.114738 
L 378.360441 61.483771 
L 379.235521 62.959906 
L 380.1106 61.545277 
L 380.98568 61.606783 
L 381.86076 60.745704 
L 382.735839 62.283344 
L 383.610919 61.699041 
L 384.485999 62.56012 
L 385.361078 61.883558 
L 386.236158 61.945064 
L 387.111237 61.883558 
L 387.986317 61.57603 
L 388.861397 62.252592 
L 389.736476 62.252592 
L 390.611556 61.975816 
L 391.486636 62.283344 
L 392.361715 60.837963 
L 394.111875 61.883558 
L 395.862034 61.668288 
L 396.737113 62.160333 
L 397.612193 61.330007 
L 398.487273 62.252592 
L 398.487273 62.252592 
" style="fill:none;stroke:#ff7f0e;stroke-linecap:square;stroke-width:1.5;"/>
   </g>
   <g id="patch_3">
    <path d="M 57.6 307.584 
L 57.6 41.472 
" style="fill:none;stroke:#000000;stroke-linecap:square;stroke-linejoin:miter;stroke-width:0.8;"/>
   </g>
   <g id="patch_4">
    <path d="M 414.72 307.584 
L 414.72 41.472 
" style="fill:none;stroke:#000000;stroke-linecap:square;stroke-linejoin:miter;stroke-width:0.8;"/>
   </g>
   <g id="patch_5">
    <path d="M 57.6 307.584 
L 414.72 307.584 
" style="fill:none;stroke:#000000;stroke-linecap:square;stroke-linejoin:miter;stroke-width:0.8;"/>
   </g>
   <g id="patch_6">
    <path d="M 57.6 41.472 
L 414.72 41.472 
" style="fill:none;stroke:#000000;stroke-linecap:square;stroke-linejoin:miter;stroke-width:0.8;"/>
   </g>
   <g id="text_21">
    <!-- Training and Validation Accuracy -->
    <g transform="translate(138.4575 35.472)scale(0.12 -0.12)">
     <defs>
      <path d="M -19 4666 
L 3928 4666 
L 3928 4134 
L 2272 4134 
L 2272 0 
L 1638 0 
L 1638 4134 
L -19 4134 
L -19 4666 
z
" id="DejaVuSans-54" transform="scale(0.015625)"/>
      <path d="M 603 3500 
L 1178 3500 
L 1178 0 
L 603 0 
L 603 3500 
z
M 603 4863 
L 1178 4863 
L 1178 4134 
L 603 4134 
L 603 4863 
z
" id="DejaVuSans-69" transform="scale(0.015625)"/>
      <path d="M 3513 2113 
L 3513 0 
L 2938 0 
L 2938 2094 
Q 2938 2591 2744 2837 
Q 2550 3084 2163 3084 
Q 1697 3084 1428 2787 
Q 1159 2491 1159 1978 
L 1159 0 
L 581 0 
L 581 3500 
L 1159 3500 
L 1159 2956 
Q 1366 3272 1645 3428 
Q 1925 3584 2291 3584 
Q 2894 3584 3203 3211 
Q 3513 2838 3513 2113 
z
" id="DejaVuSans-6e" transform="scale(0.015625)"/>
      <path d="M 2906 1791 
Q 2906 2416 2648 2759 
Q 2391 3103 1925 3103 
Q 1463 3103 1205 2759 
Q 947 2416 947 1791 
Q 947 1169 1205 825 
Q 1463 481 1925 481 
Q 2391 481 2648 825 
Q 2906 1169 2906 1791 
z
M 3481 434 
Q 3481 -459 3084 -895 
Q 2688 -1331 1869 -1331 
Q 1566 -1331 1297 -1286 
Q 1028 -1241 775 -1147 
L 775 -588 
Q 1028 -725 1275 -790 
Q 1522 -856 1778 -856 
Q 2344 -856 2625 -561 
Q 2906 -266 2906 331 
L 2906 616 
Q 2728 306 2450 153 
Q 2172 0 1784 0 
Q 1141 0 747 490 
Q 353 981 353 1791 
Q 353 2603 747 3093 
Q 1141 3584 1784 3584 
Q 2172 3584 2450 3431 
Q 2728 3278 2906 2969 
L 2906 3500 
L 3481 3500 
L 3481 434 
z
" id="DejaVuSans-67" transform="scale(0.015625)"/>
      <path id="DejaVuSans-20" transform="scale(0.015625)"/>
      <path d="M 2906 2969 
L 2906 4863 
L 3481 4863 
L 3481 0 
L 2906 0 
L 2906 525 
Q 2725 213 2448 61 
Q 2172 -91 1784 -91 
Q 1150 -91 751 415 
Q 353 922 353 1747 
Q 353 2572 751 3078 
Q 1150 3584 1784 3584 
Q 2172 3584 2448 3432 
Q 2725 3281 2906 2969 
z
M 947 1747 
Q 947 1113 1208 752 
Q 1469 391 1925 391 
Q 2381 391 2643 752 
Q 2906 1113 2906 1747 
Q 2906 2381 2643 2742 
Q 2381 3103 1925 3103 
Q 1469 3103 1208 2742 
Q 947 2381 947 1747 
z
" id="DejaVuSans-64" transform="scale(0.015625)"/>
      <path d="M 1831 0 
L 50 4666 
L 709 4666 
L 2188 738 
L 3669 4666 
L 4325 4666 
L 2547 0 
L 1831 0 
z
" id="DejaVuSans-56" transform="scale(0.015625)"/>
      <path d="M 603 4863 
L 1178 4863 
L 1178 0 
L 603 0 
L 603 4863 
z
" id="DejaVuSans-6c" transform="scale(0.015625)"/>
      <path d="M 1172 4494 
L 1172 3500 
L 2356 3500 
L 2356 3053 
L 1172 3053 
L 1172 1153 
Q 1172 725 1289 603 
Q 1406 481 1766 481 
L 2356 481 
L 2356 0 
L 1766 0 
Q 1100 0 847 248 
Q 594 497 594 1153 
L 594 3053 
L 172 3053 
L 172 3500 
L 594 3500 
L 594 4494 
L 1172 4494 
z
" id="DejaVuSans-74" transform="scale(0.015625)"/>
     </defs>
     <use xlink:href="#DejaVuSans-54"/>
     <use x="46.333984" xlink:href="#DejaVuSans-72"/>
     <use x="87.447266" xlink:href="#DejaVuSans-61"/>
     <use x="148.726562" xlink:href="#DejaVuSans-69"/>
     <use x="176.509766" xlink:href="#DejaVuSans-6e"/>
     <use x="239.888672" xlink:href="#DejaVuSans-69"/>
     <use x="267.671875" xlink:href="#DejaVuSans-6e"/>
     <use x="331.050781" xlink:href="#DejaVuSans-67"/>
     <use x="394.527344" xlink:href="#DejaVuSans-20"/>
     <use x="426.314453" xlink:href="#DejaVuSans-61"/>
     <use x="487.59375" xlink:href="#DejaVuSans-6e"/>
     <use x="550.972656" xlink:href="#DejaVuSans-64"/>
     <use x="614.449219" xlink:href="#DejaVuSans-20"/>
     <use x="646.236328" xlink:href="#DejaVuSans-56"/>
     <use x="706.894531" xlink:href="#DejaVuSans-61"/>
     <use x="768.173828" xlink:href="#DejaVuSans-6c"/>
     <use x="795.957031" xlink:href="#DejaVuSans-69"/>
     <use x="823.740234" xlink:href="#DejaVuSans-64"/>
     <use x="887.216797" xlink:href="#DejaVuSans-61"/>
     <use x="948.496094" xlink:href="#DejaVuSans-74"/>
     <use x="987.705078" xlink:href="#DejaVuSans-69"/>
     <use x="1015.488281" xlink:href="#DejaVuSans-6f"/>
     <use x="1076.669922" xlink:href="#DejaVuSans-6e"/>
     <use x="1140.048828" xlink:href="#DejaVuSans-20"/>
     <use x="1171.835938" xlink:href="#DejaVuSans-41"/>
     <use x="1238.494141" xlink:href="#DejaVuSans-63"/>
     <use x="1293.474609" xlink:href="#DejaVuSans-63"/>
     <use x="1348.455078" xlink:href="#DejaVuSans-75"/>
     <use x="1411.833984" xlink:href="#DejaVuSans-72"/>
     <use x="1452.947266" xlink:href="#DejaVuSans-61"/>
     <use x="1514.226562" xlink:href="#DejaVuSans-63"/>
     <use x="1569.207031" xlink:href="#DejaVuSans-79"/>
    </g>
   </g>
   <g id="legend_1">
    <g id="patch_7">
     <path d="M 64.6 78.82825 
L 194.815625 78.82825 
Q 196.815625 78.82825 196.815625 76.82825 
L 196.815625 48.472 
Q 196.815625 46.472 194.815625 46.472 
L 64.6 46.472 
Q 62.6 46.472 62.6 48.472 
L 62.6 76.82825 
Q 62.6 78.82825 64.6 78.82825 
z
" style="fill:#ffffff;opacity:0.8;stroke:#cccccc;stroke-linejoin:miter;"/>
    </g>
    <g id="line2d_21">
     <path d="M 66.6 54.570437 
L 86.6 54.570437 
" style="fill:none;stroke:#1f77b4;stroke-linecap:square;stroke-width:1.5;"/>
    </g>
    <g id="line2d_22"/>
    <g id="text_22">
     <!-- Train Accuracy -->
     <g transform="translate(94.6 58.070437)scale(0.1 -0.1)">
      <use xlink:href="#DejaVuSans-54"/>
      <use x="46.333984" xlink:href="#DejaVuSans-72"/>
      <use x="87.447266" xlink:href="#DejaVuSans-61"/>
      <use x="148.726562" xlink:href="#DejaVuSans-69"/>
      <use x="176.509766" xlink:href="#DejaVuSans-6e"/>
      <use x="239.888672" xlink:href="#DejaVuSans-20"/>
      <use x="271.675781" xlink:href="#DejaVuSans-41"/>
      <use x="338.333984" xlink:href="#DejaVuSans-63"/>
      <use x="393.314453" xlink:href="#DejaVuSans-63"/>
      <use x="448.294922" xlink:href="#DejaVuSans-75"/>
      <use x="511.673828" xlink:href="#DejaVuSans-72"/>
      <use x="552.787109" xlink:href="#DejaVuSans-61"/>
      <use x="614.066406" xlink:href="#DejaVuSans-63"/>
      <use x="669.046875" xlink:href="#DejaVuSans-79"/>
     </g>
    </g>
    <g id="line2d_23">
     <path d="M 66.6 69.248562 
L 86.6 69.248562 
" style="fill:none;stroke:#ff7f0e;stroke-linecap:square;stroke-width:1.5;"/>
    </g>
    <g id="line2d_24"/>
    <g id="text_23">
     <!-- Validation Accuracy -->
     <g transform="translate(94.6 72.748562)scale(0.1 -0.1)">
      <use xlink:href="#DejaVuSans-56"/>
      <use x="60.658203" xlink:href="#DejaVuSans-61"/>
      <use x="121.9375" xlink:href="#DejaVuSans-6c"/>
      <use x="149.720703" xlink:href="#DejaVuSans-69"/>
      <use x="177.503906" xlink:href="#DejaVuSans-64"/>
      <use x="240.980469" xlink:href="#DejaVuSans-61"/>
      <use x="302.259766" xlink:href="#DejaVuSans-74"/>
      <use x="341.46875" xlink:href="#DejaVuSans-69"/>
      <use x="369.251953" xlink:href="#DejaVuSans-6f"/>
      <use x="430.433594" xlink:href="#DejaVuSans-6e"/>
      <use x="493.8125" xlink:href="#DejaVuSans-20"/>
      <use x="525.599609" xlink:href="#DejaVuSans-41"/>
      <use x="592.257812" xlink:href="#DejaVuSans-63"/>
      <use x="647.238281" xlink:href="#DejaVuSans-63"/>
      <use x="702.21875" xlink:href="#DejaVuSans-75"/>
      <use x="765.597656" xlink:href="#DejaVuSans-72"/>
      <use x="806.710938" xlink:href="#DejaVuSans-61"/>
      <use x="867.990234" xlink:href="#DejaVuSans-63"/>
      <use x="922.970703" xlink:href="#DejaVuSans-79"/>
     </g>
    </g>
   </g>
  </g>
 </g>
 <defs>
  <clipPath id="pa78d155f09">
   <rect height="266.112" width="357.12" x="57.6" y="41.472"/>
  </clipPath>
 </defs>
</svg>
