<?xml version="1.0" encoding="utf-8" standalone="no"?>
<!DOCTYPE svg PUBLIC "-//W3C//DTD SVG 1.1//EN"
  "http://www.w3.org/Graphics/SVG/1.1/DTD/svg11.dtd">
<svg height="345.6pt" version="1.1" viewBox="0 0 460.8 345.6" width="460.8pt" xmlns="http://www.w3.org/2000/svg" xmlns:xlink="http://www.w3.org/1999/xlink">
 <metadata>
  <rdf:RDF xmlns:cc="http://creativecommons.org/ns#" xmlns:dc="http://purl.org/dc/elements/1.1/" xmlns:rdf="http://www.w3.org/1999/02/22-rdf-syntax-ns#">
   <cc:Work>
    <dc:type rdf:resource="http://purl.org/dc/dcmitype/StillImage"/>
    <dc:date>2024-03-21T16:57:32.455291</dc:date>
    <dc:format>image/svg+xml</dc:format>
    <dc:creator>
     <cc:Agent>
      <dc:title>Matplotlib v3.4.3, https://matplotlib.org/</dc:title>
     </cc:Agent>
    </dc:creator>
   </cc:Work>
  </rdf:RDF>
 </metadata>
 <defs>
  <style type="text/css">*{stroke-linecap:butt;stroke-linejoin:round;}</style>
 </defs>
 <g id="figure_1">
  <g id="patch_1">
   <path d="M 0 345.6 
L 460.8 345.6 
L 460.8 0 
L 0 0 
z
" style="fill:#ffffff;"/>
  </g>
  <g id="axes_1">
   <g id="patch_2">
    <path d="M 57.6 307.584 
L 414.72 307.584 
L 414.72 41.472 
L 57.6 41.472 
z
" style="fill:#ffffff;"/>
   </g>
   <g id="matplotlib.axis_1">
    <g id="xtick_1">
     <g id="line2d_1">
      <defs>
       <path d="M 0 0 
L 0 3.5 
" id="m61f52b82f0" style="stroke:#000000;stroke-width:0.8;"/>
      </defs>
      <g>
       <use style="stroke:#000000;stroke-width:0.8;" x="73.832727" xlink:href="#m61f52b82f0" y="307.584"/>
      </g>
     </g>
     <g id="text_1">
      <!-- 1 -->
      <g transform="translate(70.651477 322.182437)scale(0.1 -0.1)">
       <defs>
        <path d="M 794 531 
L 1825 531 
L 1825 4091 
L 703 3866 
L 703 4441 
L 1819 4666 
L 2450 4666 
L 2450 531 
L 3481 531 
L 3481 0 
L 794 0 
L 794 531 
z
" id="DejaVuSans-31" transform="scale(0.015625)"/>
       </defs>
       <use xlink:href="#DejaVuSans-31"/>
      </g>
     </g>
    </g>
    <g id="xtick_2">
     <g id="line2d_2">
      <g>
       <use style="stroke:#000000;stroke-width:0.8;" x="109.423199" xlink:href="#m61f52b82f0" y="307.584"/>
      </g>
     </g>
     <g id="text_2">
      <!-- 42 -->
      <g transform="translate(103.060699 322.182437)scale(0.1 -0.1)">
       <defs>
        <path d="M 2419 4116 
L 825 1625 
L 2419 1625 
L 2419 4116 
z
M 2253 4666 
L 3047 4666 
L 3047 1625 
L 3713 1625 
L 3713 1100 
L 3047 1100 
L 3047 0 
L 2419 0 
L 2419 1100 
L 313 1100 
L 313 1709 
L 2253 4666 
z
" id="DejaVuSans-34" transform="scale(0.015625)"/>
        <path d="M 1228 531 
L 3431 531 
L 3431 0 
L 469 0 
L 469 531 
Q 828 903 1448 1529 
Q 2069 2156 2228 2338 
Q 2531 2678 2651 2914 
Q 2772 3150 2772 3378 
Q 2772 3750 2511 3984 
Q 2250 4219 1831 4219 
Q 1534 4219 1204 4116 
Q 875 4013 500 3803 
L 500 4441 
Q 881 4594 1212 4672 
Q 1544 4750 1819 4750 
Q 2544 4750 2975 4387 
Q 3406 4025 3406 3419 
Q 3406 3131 3298 2873 
Q 3191 2616 2906 2266 
Q 2828 2175 2409 1742 
Q 1991 1309 1228 531 
z
" id="DejaVuSans-32" transform="scale(0.015625)"/>
       </defs>
       <use xlink:href="#DejaVuSans-34"/>
       <use x="63.623047" xlink:href="#DejaVuSans-32"/>
      </g>
     </g>
    </g>
    <g id="xtick_3">
     <g id="line2d_3">
      <g>
       <use style="stroke:#000000;stroke-width:0.8;" x="145.881731" xlink:href="#m61f52b82f0" y="307.584"/>
      </g>
     </g>
     <g id="text_3">
      <!-- 84 -->
      <g transform="translate(139.519231 322.182437)scale(0.1 -0.1)">
       <defs>
        <path d="M 2034 2216 
Q 1584 2216 1326 1975 
Q 1069 1734 1069 1313 
Q 1069 891 1326 650 
Q 1584 409 2034 409 
Q 2484 409 2743 651 
Q 3003 894 3003 1313 
Q 3003 1734 2745 1975 
Q 2488 2216 2034 2216 
z
M 1403 2484 
Q 997 2584 770 2862 
Q 544 3141 544 3541 
Q 544 4100 942 4425 
Q 1341 4750 2034 4750 
Q 2731 4750 3128 4425 
Q 3525 4100 3525 3541 
Q 3525 3141 3298 2862 
Q 3072 2584 2669 2484 
Q 3125 2378 3379 2068 
Q 3634 1759 3634 1313 
Q 3634 634 3220 271 
Q 2806 -91 2034 -91 
Q 1263 -91 848 271 
Q 434 634 434 1313 
Q 434 1759 690 2068 
Q 947 2378 1403 2484 
z
M 1172 3481 
Q 1172 3119 1398 2916 
Q 1625 2713 2034 2713 
Q 2441 2713 2670 2916 
Q 2900 3119 2900 3481 
Q 2900 3844 2670 4047 
Q 2441 4250 2034 4250 
Q 1625 4250 1398 4047 
Q 1172 3844 1172 3481 
z
" id="DejaVuSans-38" transform="scale(0.015625)"/>
       </defs>
       <use xlink:href="#DejaVuSans-38"/>
       <use x="63.623047" xlink:href="#DejaVuSans-34"/>
      </g>
     </g>
    </g>
    <g id="xtick_4">
     <g id="line2d_4">
      <g>
       <use style="stroke:#000000;stroke-width:0.8;" x="181.472202" xlink:href="#m61f52b82f0" y="307.584"/>
      </g>
     </g>
     <g id="text_4">
      <!-- 125 -->
      <g transform="translate(171.928452 322.182437)scale(0.1 -0.1)">
       <defs>
        <path d="M 691 4666 
L 3169 4666 
L 3169 4134 
L 1269 4134 
L 1269 2991 
Q 1406 3038 1543 3061 
Q 1681 3084 1819 3084 
Q 2600 3084 3056 2656 
Q 3513 2228 3513 1497 
Q 3513 744 3044 326 
Q 2575 -91 1722 -91 
Q 1428 -91 1123 -41 
Q 819 9 494 109 
L 494 744 
Q 775 591 1075 516 
Q 1375 441 1709 441 
Q 2250 441 2565 725 
Q 2881 1009 2881 1497 
Q 2881 1984 2565 2268 
Q 2250 2553 1709 2553 
Q 1456 2553 1204 2497 
Q 953 2441 691 2322 
L 691 4666 
z
" id="DejaVuSans-35" transform="scale(0.015625)"/>
       </defs>
       <use xlink:href="#DejaVuSans-31"/>
       <use x="63.623047" xlink:href="#DejaVuSans-32"/>
       <use x="127.246094" xlink:href="#DejaVuSans-35"/>
      </g>
     </g>
    </g>
    <g id="xtick_5">
     <g id="line2d_5">
      <g>
       <use style="stroke:#000000;stroke-width:0.8;" x="217.930734" xlink:href="#m61f52b82f0" y="307.584"/>
      </g>
     </g>
     <g id="text_5">
      <!-- 167 -->
      <g transform="translate(208.386984 322.182437)scale(0.1 -0.1)">
       <defs>
        <path d="M 2113 2584 
Q 1688 2584 1439 2293 
Q 1191 2003 1191 1497 
Q 1191 994 1439 701 
Q 1688 409 2113 409 
Q 2538 409 2786 701 
Q 3034 994 3034 1497 
Q 3034 2003 2786 2293 
Q 2538 2584 2113 2584 
z
M 3366 4563 
L 3366 3988 
Q 3128 4100 2886 4159 
Q 2644 4219 2406 4219 
Q 1781 4219 1451 3797 
Q 1122 3375 1075 2522 
Q 1259 2794 1537 2939 
Q 1816 3084 2150 3084 
Q 2853 3084 3261 2657 
Q 3669 2231 3669 1497 
Q 3669 778 3244 343 
Q 2819 -91 2113 -91 
Q 1303 -91 875 529 
Q 447 1150 447 2328 
Q 447 3434 972 4092 
Q 1497 4750 2381 4750 
Q 2619 4750 2861 4703 
Q 3103 4656 3366 4563 
z
" id="DejaVuSans-36" transform="scale(0.015625)"/>
        <path d="M 525 4666 
L 3525 4666 
L 3525 4397 
L 1831 0 
L 1172 0 
L 2766 4134 
L 525 4134 
L 525 4666 
z
" id="DejaVuSans-37" transform="scale(0.015625)"/>
       </defs>
       <use xlink:href="#DejaVuSans-31"/>
       <use x="63.623047" xlink:href="#DejaVuSans-36"/>
       <use x="127.246094" xlink:href="#DejaVuSans-37"/>
      </g>
     </g>
    </g>
    <g id="xtick_6">
     <g id="line2d_6">
      <g>
       <use style="stroke:#000000;stroke-width:0.8;" x="253.521206" xlink:href="#m61f52b82f0" y="307.584"/>
      </g>
     </g>
     <g id="text_6">
      <!-- 208 -->
      <g transform="translate(243.977456 322.182437)scale(0.1 -0.1)">
       <defs>
        <path d="M 2034 4250 
Q 1547 4250 1301 3770 
Q 1056 3291 1056 2328 
Q 1056 1369 1301 889 
Q 1547 409 2034 409 
Q 2525 409 2770 889 
Q 3016 1369 3016 2328 
Q 3016 3291 2770 3770 
Q 2525 4250 2034 4250 
z
M 2034 4750 
Q 2819 4750 3233 4129 
Q 3647 3509 3647 2328 
Q 3647 1150 3233 529 
Q 2819 -91 2034 -91 
Q 1250 -91 836 529 
Q 422 1150 422 2328 
Q 422 3509 836 4129 
Q 1250 4750 2034 4750 
z
" id="DejaVuSans-30" transform="scale(0.015625)"/>
       </defs>
       <use xlink:href="#DejaVuSans-32"/>
       <use x="63.623047" xlink:href="#DejaVuSans-30"/>
       <use x="127.246094" xlink:href="#DejaVuSans-38"/>
      </g>
     </g>
    </g>
    <g id="xtick_7">
     <g id="line2d_7">
      <g>
       <use style="stroke:#000000;stroke-width:0.8;" x="289.979737" xlink:href="#m61f52b82f0" y="307.584"/>
      </g>
     </g>
     <g id="text_7">
      <!-- 250 -->
      <g transform="translate(280.435987 322.182437)scale(0.1 -0.1)">
       <use xlink:href="#DejaVuSans-32"/>
       <use x="63.623047" xlink:href="#DejaVuSans-35"/>
       <use x="127.246094" xlink:href="#DejaVuSans-30"/>
      </g>
     </g>
    </g>
    <g id="xtick_8">
     <g id="line2d_8">
      <g>
       <use style="stroke:#000000;stroke-width:0.8;" x="325.570209" xlink:href="#m61f52b82f0" y="307.584"/>
      </g>
     </g>
     <g id="text_8">
      <!-- 291 -->
      <g transform="translate(316.026459 322.182437)scale(0.1 -0.1)">
       <defs>
        <path d="M 703 97 
L 703 672 
Q 941 559 1184 500 
Q 1428 441 1663 441 
Q 2288 441 2617 861 
Q 2947 1281 2994 2138 
Q 2813 1869 2534 1725 
Q 2256 1581 1919 1581 
Q 1219 1581 811 2004 
Q 403 2428 403 3163 
Q 403 3881 828 4315 
Q 1253 4750 1959 4750 
Q 2769 4750 3195 4129 
Q 3622 3509 3622 2328 
Q 3622 1225 3098 567 
Q 2575 -91 1691 -91 
Q 1453 -91 1209 -44 
Q 966 3 703 97 
z
M 1959 2075 
Q 2384 2075 2632 2365 
Q 2881 2656 2881 3163 
Q 2881 3666 2632 3958 
Q 2384 4250 1959 4250 
Q 1534 4250 1286 3958 
Q 1038 3666 1038 3163 
Q 1038 2656 1286 2365 
Q 1534 2075 1959 2075 
z
" id="DejaVuSans-39" transform="scale(0.015625)"/>
       </defs>
       <use xlink:href="#DejaVuSans-32"/>
       <use x="63.623047" xlink:href="#DejaVuSans-39"/>
       <use x="127.246094" xlink:href="#DejaVuSans-31"/>
      </g>
     </g>
    </g>
    <g id="xtick_9">
     <g id="line2d_9">
      <g>
       <use style="stroke:#000000;stroke-width:0.8;" x="362.028741" xlink:href="#m61f52b82f0" y="307.584"/>
      </g>
     </g>
     <g id="text_9">
      <!-- 333 -->
      <g transform="translate(352.484991 322.182437)scale(0.1 -0.1)">
       <defs>
        <path d="M 2597 2516 
Q 3050 2419 3304 2112 
Q 3559 1806 3559 1356 
Q 3559 666 3084 287 
Q 2609 -91 1734 -91 
Q 1441 -91 1130 -33 
Q 819 25 488 141 
L 488 750 
Q 750 597 1062 519 
Q 1375 441 1716 441 
Q 2309 441 2620 675 
Q 2931 909 2931 1356 
Q 2931 1769 2642 2001 
Q 2353 2234 1838 2234 
L 1294 2234 
L 1294 2753 
L 1863 2753 
Q 2328 2753 2575 2939 
Q 2822 3125 2822 3475 
Q 2822 3834 2567 4026 
Q 2313 4219 1838 4219 
Q 1578 4219 1281 4162 
Q 984 4106 628 3988 
L 628 4550 
Q 988 4650 1302 4700 
Q 1616 4750 1894 4750 
Q 2613 4750 3031 4423 
Q 3450 4097 3450 3541 
Q 3450 3153 3228 2886 
Q 3006 2619 2597 2516 
z
" id="DejaVuSans-33" transform="scale(0.015625)"/>
       </defs>
       <use xlink:href="#DejaVuSans-33"/>
       <use x="63.623047" xlink:href="#DejaVuSans-33"/>
       <use x="127.246094" xlink:href="#DejaVuSans-33"/>
      </g>
     </g>
    </g>
    <g id="xtick_10">
     <g id="line2d_10">
      <g>
       <use style="stroke:#000000;stroke-width:0.8;" x="398.487273" xlink:href="#m61f52b82f0" y="307.584"/>
      </g>
     </g>
     <g id="text_10">
      <!-- 375 -->
      <g transform="translate(388.943523 322.182437)scale(0.1 -0.1)">
       <use xlink:href="#DejaVuSans-33"/>
       <use x="63.623047" xlink:href="#DejaVuSans-37"/>
       <use x="127.246094" xlink:href="#DejaVuSans-35"/>
      </g>
     </g>
    </g>
    <g id="text_11">
     <!-- Epochs -->
     <g transform="translate(218.244375 335.860562)scale(0.1 -0.1)">
      <defs>
       <path d="M 628 4666 
L 3578 4666 
L 3578 4134 
L 1259 4134 
L 1259 2753 
L 3481 2753 
L 3481 2222 
L 1259 2222 
L 1259 531 
L 3634 531 
L 3634 0 
L 628 0 
L 628 4666 
z
" id="DejaVuSans-45" transform="scale(0.015625)"/>
       <path d="M 1159 525 
L 1159 -1331 
L 581 -1331 
L 581 3500 
L 1159 3500 
L 1159 2969 
Q 1341 3281 1617 3432 
Q 1894 3584 2278 3584 
Q 2916 3584 3314 3078 
Q 3713 2572 3713 1747 
Q 3713 922 3314 415 
Q 2916 -91 2278 -91 
Q 1894 -91 1617 61 
Q 1341 213 1159 525 
z
M 3116 1747 
Q 3116 2381 2855 2742 
Q 2594 3103 2138 3103 
Q 1681 3103 1420 2742 
Q 1159 2381 1159 1747 
Q 1159 1113 1420 752 
Q 1681 391 2138 391 
Q 2594 391 2855 752 
Q 3116 1113 3116 1747 
z
" id="DejaVuSans-70" transform="scale(0.015625)"/>
       <path d="M 1959 3097 
Q 1497 3097 1228 2736 
Q 959 2375 959 1747 
Q 959 1119 1226 758 
Q 1494 397 1959 397 
Q 2419 397 2687 759 
Q 2956 1122 2956 1747 
Q 2956 2369 2687 2733 
Q 2419 3097 1959 3097 
z
M 1959 3584 
Q 2709 3584 3137 3096 
Q 3566 2609 3566 1747 
Q 3566 888 3137 398 
Q 2709 -91 1959 -91 
Q 1206 -91 779 398 
Q 353 888 353 1747 
Q 353 2609 779 3096 
Q 1206 3584 1959 3584 
z
" id="DejaVuSans-6f" transform="scale(0.015625)"/>
       <path d="M 3122 3366 
L 3122 2828 
Q 2878 2963 2633 3030 
Q 2388 3097 2138 3097 
Q 1578 3097 1268 2742 
Q 959 2388 959 1747 
Q 959 1106 1268 751 
Q 1578 397 2138 397 
Q 2388 397 2633 464 
Q 2878 531 3122 666 
L 3122 134 
Q 2881 22 2623 -34 
Q 2366 -91 2075 -91 
Q 1284 -91 818 406 
Q 353 903 353 1747 
Q 353 2603 823 3093 
Q 1294 3584 2113 3584 
Q 2378 3584 2631 3529 
Q 2884 3475 3122 3366 
z
" id="DejaVuSans-63" transform="scale(0.015625)"/>
       <path d="M 3513 2113 
L 3513 0 
L 2938 0 
L 2938 2094 
Q 2938 2591 2744 2837 
Q 2550 3084 2163 3084 
Q 1697 3084 1428 2787 
Q 1159 2491 1159 1978 
L 1159 0 
L 581 0 
L 581 4863 
L 1159 4863 
L 1159 2956 
Q 1366 3272 1645 3428 
Q 1925 3584 2291 3584 
Q 2894 3584 3203 3211 
Q 3513 2838 3513 2113 
z
" id="DejaVuSans-68" transform="scale(0.015625)"/>
       <path d="M 2834 3397 
L 2834 2853 
Q 2591 2978 2328 3040 
Q 2066 3103 1784 3103 
Q 1356 3103 1142 2972 
Q 928 2841 928 2578 
Q 928 2378 1081 2264 
Q 1234 2150 1697 2047 
L 1894 2003 
Q 2506 1872 2764 1633 
Q 3022 1394 3022 966 
Q 3022 478 2636 193 
Q 2250 -91 1575 -91 
Q 1294 -91 989 -36 
Q 684 19 347 128 
L 347 722 
Q 666 556 975 473 
Q 1284 391 1588 391 
Q 1994 391 2212 530 
Q 2431 669 2431 922 
Q 2431 1156 2273 1281 
Q 2116 1406 1581 1522 
L 1381 1569 
Q 847 1681 609 1914 
Q 372 2147 372 2553 
Q 372 3047 722 3315 
Q 1072 3584 1716 3584 
Q 2034 3584 2315 3537 
Q 2597 3491 2834 3397 
z
" id="DejaVuSans-73" transform="scale(0.015625)"/>
      </defs>
      <use xlink:href="#DejaVuSans-45"/>
      <use x="63.183594" xlink:href="#DejaVuSans-70"/>
      <use x="126.660156" xlink:href="#DejaVuSans-6f"/>
      <use x="187.841797" xlink:href="#DejaVuSans-63"/>
      <use x="242.822266" xlink:href="#DejaVuSans-68"/>
      <use x="306.201172" xlink:href="#DejaVuSans-73"/>
     </g>
    </g>
   </g>
   <g id="matplotlib.axis_2">
    <g id="ytick_1">
     <g id="line2d_11">
      <defs>
       <path d="M 0 0 
L -3.5 0 
" id="md4d32f4f4d" style="stroke:#000000;stroke-width:0.8;"/>
      </defs>
      <g>
       <use style="stroke:#000000;stroke-width:0.8;" x="57.6" xlink:href="#md4d32f4f4d" y="281.518802"/>
      </g>
     </g>
     <g id="text_12">
      <!-- 10 -->
      <g transform="translate(37.875 285.31802)scale(0.1 -0.1)">
       <use xlink:href="#DejaVuSans-31"/>
       <use x="63.623047" xlink:href="#DejaVuSans-30"/>
      </g>
     </g>
    </g>
    <g id="ytick_2">
     <g id="line2d_12">
      <g>
       <use style="stroke:#000000;stroke-width:0.8;" x="57.6" xlink:href="#md4d32f4f4d" y="250.830756"/>
      </g>
     </g>
     <g id="text_13">
      <!-- 20 -->
      <g transform="translate(37.875 254.629975)scale(0.1 -0.1)">
       <use xlink:href="#DejaVuSans-32"/>
       <use x="63.623047" xlink:href="#DejaVuSans-30"/>
      </g>
     </g>
    </g>
    <g id="ytick_3">
     <g id="line2d_13">
      <g>
       <use style="stroke:#000000;stroke-width:0.8;" x="57.6" xlink:href="#md4d32f4f4d" y="220.142711"/>
      </g>
     </g>
     <g id="text_14">
      <!-- 30 -->
      <g transform="translate(37.875 223.94193)scale(0.1 -0.1)">
       <use xlink:href="#DejaVuSans-33"/>
       <use x="63.623047" xlink:href="#DejaVuSans-30"/>
      </g>
     </g>
    </g>
    <g id="ytick_4">
     <g id="line2d_14">
      <g>
       <use style="stroke:#000000;stroke-width:0.8;" x="57.6" xlink:href="#md4d32f4f4d" y="189.454665"/>
      </g>
     </g>
     <g id="text_15">
      <!-- 40 -->
      <g transform="translate(37.875 193.253884)scale(0.1 -0.1)">
       <use xlink:href="#DejaVuSans-34"/>
       <use x="63.623047" xlink:href="#DejaVuSans-30"/>
      </g>
     </g>
    </g>
    <g id="ytick_5">
     <g id="line2d_15">
      <g>
       <use style="stroke:#000000;stroke-width:0.8;" x="57.6" xlink:href="#md4d32f4f4d" y="158.76662"/>
      </g>
     </g>
     <g id="text_16">
      <!-- 50 -->
      <g transform="translate(37.875 162.565839)scale(0.1 -0.1)">
       <use xlink:href="#DejaVuSans-35"/>
       <use x="63.623047" xlink:href="#DejaVuSans-30"/>
      </g>
     </g>
    </g>
    <g id="ytick_6">
     <g id="line2d_16">
      <g>
       <use style="stroke:#000000;stroke-width:0.8;" x="57.6" xlink:href="#md4d32f4f4d" y="128.078574"/>
      </g>
     </g>
     <g id="text_17">
      <!-- 60 -->
      <g transform="translate(37.875 131.877793)scale(0.1 -0.1)">
       <use xlink:href="#DejaVuSans-36"/>
       <use x="63.623047" xlink:href="#DejaVuSans-30"/>
      </g>
     </g>
    </g>
    <g id="ytick_7">
     <g id="line2d_17">
      <g>
       <use style="stroke:#000000;stroke-width:0.8;" x="57.6" xlink:href="#md4d32f4f4d" y="97.390529"/>
      </g>
     </g>
     <g id="text_18">
      <!-- 70 -->
      <g transform="translate(37.875 101.189748)scale(0.1 -0.1)">
       <use xlink:href="#DejaVuSans-37"/>
       <use x="63.623047" xlink:href="#DejaVuSans-30"/>
      </g>
     </g>
    </g>
    <g id="ytick_8">
     <g id="line2d_18">
      <g>
       <use style="stroke:#000000;stroke-width:0.8;" x="57.6" xlink:href="#md4d32f4f4d" y="66.702483"/>
      </g>
     </g>
     <g id="text_19">
      <!-- 80 -->
      <g transform="translate(37.875 70.501702)scale(0.1 -0.1)">
       <use xlink:href="#DejaVuSans-38"/>
       <use x="63.623047" xlink:href="#DejaVuSans-30"/>
      </g>
     </g>
    </g>
    <g id="text_20">
     <!-- Accuracy -->
     <g transform="translate(31.795312 197.356125)rotate(-90)scale(0.1 -0.1)">
      <defs>
       <path d="M 2188 4044 
L 1331 1722 
L 3047 1722 
L 2188 4044 
z
M 1831 4666 
L 2547 4666 
L 4325 0 
L 3669 0 
L 3244 1197 
L 1141 1197 
L 716 0 
L 50 0 
L 1831 4666 
z
" id="DejaVuSans-41" transform="scale(0.015625)"/>
       <path d="M 544 1381 
L 544 3500 
L 1119 3500 
L 1119 1403 
Q 1119 906 1312 657 
Q 1506 409 1894 409 
Q 2359 409 2629 706 
Q 2900 1003 2900 1516 
L 2900 3500 
L 3475 3500 
L 3475 0 
L 2900 0 
L 2900 538 
Q 2691 219 2414 64 
Q 2138 -91 1772 -91 
Q 1169 -91 856 284 
Q 544 659 544 1381 
z
M 1991 3584 
L 1991 3584 
z
" id="DejaVuSans-75" transform="scale(0.015625)"/>
       <path d="M 2631 2963 
Q 2534 3019 2420 3045 
Q 2306 3072 2169 3072 
Q 1681 3072 1420 2755 
Q 1159 2438 1159 1844 
L 1159 0 
L 581 0 
L 581 3500 
L 1159 3500 
L 1159 2956 
Q 1341 3275 1631 3429 
Q 1922 3584 2338 3584 
Q 2397 3584 2469 3576 
Q 2541 3569 2628 3553 
L 2631 2963 
z
" id="DejaVuSans-72" transform="scale(0.015625)"/>
       <path d="M 2194 1759 
Q 1497 1759 1228 1600 
Q 959 1441 959 1056 
Q 959 750 1161 570 
Q 1363 391 1709 391 
Q 2188 391 2477 730 
Q 2766 1069 2766 1631 
L 2766 1759 
L 2194 1759 
z
M 3341 1997 
L 3341 0 
L 2766 0 
L 2766 531 
Q 2569 213 2275 61 
Q 1981 -91 1556 -91 
Q 1019 -91 701 211 
Q 384 513 384 1019 
Q 384 1609 779 1909 
Q 1175 2209 1959 2209 
L 2766 2209 
L 2766 2266 
Q 2766 2663 2505 2880 
Q 2244 3097 1772 3097 
Q 1472 3097 1187 3025 
Q 903 2953 641 2809 
L 641 3341 
Q 956 3463 1253 3523 
Q 1550 3584 1831 3584 
Q 2591 3584 2966 3190 
Q 3341 2797 3341 1997 
z
" id="DejaVuSans-61" transform="scale(0.015625)"/>
       <path d="M 2059 -325 
Q 1816 -950 1584 -1140 
Q 1353 -1331 966 -1331 
L 506 -1331 
L 506 -850 
L 844 -850 
Q 1081 -850 1212 -737 
Q 1344 -625 1503 -206 
L 1606 56 
L 191 3500 
L 800 3500 
L 1894 763 
L 2988 3500 
L 3597 3500 
L 2059 -325 
z
" id="DejaVuSans-79" transform="scale(0.015625)"/>
      </defs>
      <use xlink:href="#DejaVuSans-41"/>
      <use x="66.658203" xlink:href="#DejaVuSans-63"/>
      <use x="121.638672" xlink:href="#DejaVuSans-63"/>
      <use x="176.619141" xlink:href="#DejaVuSans-75"/>
      <use x="239.998047" xlink:href="#DejaVuSans-72"/>
      <use x="281.111328" xlink:href="#DejaVuSans-61"/>
      <use x="342.390625" xlink:href="#DejaVuSans-63"/>
      <use x="397.371094" xlink:href="#DejaVuSans-79"/>
     </g>
    </g>
   </g>
   <g id="line2d_19">
    <path clip-path="url(#pa8db0300ce)" d="M 73.832727 295.488 
L 75.568848 276.025642 
L 76.436908 262.86047 
L 77.304968 258.901712 
L 78.173029 251.174462 
L 79.041089 240.366133 
L 79.909149 233.46746 
L 80.77721 228.115465 
L 81.64527 220.302289 
L 82.51333 213.820973 
L 83.38139 211.255453 
L 84.249451 202.656662 
L 85.117511 199.759711 
L 85.985571 194.08856 
L 86.853632 192.425268 
L 87.721692 182.525305 
L 88.589752 189.792234 
L 89.457812 180.634921 
L 90.325873 173.171588 
L 91.193933 170.274637 
L 92.061993 177.449502 
L 92.930053 171.563535 
L 93.798114 170.256224 
L 94.666174 176.559549 
L 95.534234 198.035043 
L 96.402295 200.060454 
L 97.270355 198.771556 
L 98.138415 186.091256 
L 99.006475 189.055721 
L 99.874536 193.603689 
L 100.742596 181.12593 
L 101.610656 174.196569 
L 102.478717 175.338164 
L 103.346777 176.166742 
L 104.214837 174.798055 
L 105.082897 170.57538 
L 105.950958 170.096646 
L 106.819018 166.714824 
L 107.687078 162.811304 
L 108.555139 166.426356 
L 109.423199 166.119476 
L 110.291259 159.343555 
L 111.159319 154.752624 
L 112.02738 158.244923 
L 112.89544 155.716228 
L 113.7635 143.968844 
L 114.631561 144.742183 
L 115.499621 140.691361 
L 116.367681 154.212514 
L 117.235741 140.255591 
L 118.103802 143.44101 
L 118.971862 137.953987 
L 119.839922 135.228889 
L 120.707982 133.99523 
L 121.576043 132.344213 
L 122.444103 128.066299 
L 123.312163 135.014073 
L 124.180224 132.91501 
L 125.048284 131.994369 
L 125.916344 127.440263 
L 126.784404 124.678339 
L 127.652465 125.181623 
L 128.520525 123.395579 
L 129.388585 112.648625 
L 130.256646 121.0817 
L 131.124706 121.229003 
L 131.992766 115.465788 
L 132.860826 125.641944 
L 133.728887 119.473646 
L 134.596947 116.02431 
L 135.465007 121.584984 
L 136.333068 112.599524 
L 137.201128 109.99104 
L 138.069188 112.022589 
L 138.937248 147.148126 
L 139.805309 143.042065 
L 140.673369 148.105593 
L 141.541429 152.389644 
L 142.40949 151.892498 
L 143.27755 150.290582 
L 144.14561 149.953013 
L 145.01367 142.790423 
L 145.881731 144.067046 
L 146.749791 147.577758 
L 147.617851 143.189368 
L 148.485912 145.380494 
L 149.353972 138.205629 
L 150.222032 145.576898 
L 151.090092 149.732059 
L 151.958153 140.016224 
L 152.826213 138.027639 
L 153.694273 139.132408 
L 154.562333 135.106137 
L 155.430394 144.82811 
L 156.298454 142.219626 
L 157.166514 133.013212 
L 158.034575 131.577012 
L 158.902635 139.175372 
L 159.770695 135.84265 
L 160.638755 131.012352 
L 161.506816 127.57529 
L 162.374876 126.083851 
L 163.242936 121.898002 
L 164.110997 127.685767 
L 164.979057 128.950115 
L 165.847117 124.764265 
L 166.715177 132.583579 
L 167.583238 129.975096 
L 168.451298 125.230724 
L 169.319358 116.938814 
L 170.187419 124.260982 
L 171.055479 118.994913 
L 171.923539 117.12908 
L 172.791599 119.535023 
L 173.65966 115.981347 
L 174.52772 124.979082 
L 175.39578 117.773529 
L 176.263841 107.051126 
L 177.131901 105.6272 
L 177.999961 122.112818 
L 178.868021 117.877868 
L 179.736082 115.827907 
L 180.604142 108.413675 
L 181.472202 116.527594 
L 182.340263 118.41184 
L 183.208323 108.008593 
L 184.076383 104.859999 
L 184.944443 115.269384 
L 185.812504 111.740259 
L 186.680564 110.181306 
L 187.548624 104.442642 
L 188.416684 115.496476 
L 189.284745 103.669303 
L 190.152805 101.625479 
L 191.020865 108.738968 
L 191.888926 108.689867 
L 192.756986 97.33529 
L 193.625046 103.399248 
L 194.493106 99.606206 
L 195.361167 98.347996 
L 196.229227 100.502297 
L 197.097287 98.470748 
L 197.965348 104.939788 
L 198.833408 95.113476 
L 199.701468 94.419926 
L 200.569528 103.595652 
L 201.437589 94.622467 
L 202.305649 97.433492 
L 203.173709 98.642601 
L 204.04177 86.465585 
L 204.90983 81.408195 
L 205.77789 108.800344 
L 206.64595 90.264765 
L 207.514011 90.473443 
L 208.382071 100.723251 
L 209.250131 103.282634 
L 210.118192 93.321294 
L 210.986252 96.666291 
L 211.854312 85.93775 
L 212.722372 88.343693 
L 213.590433 87.766758 
L 214.458493 90.755773 
L 215.326553 93.081927 
L 216.194614 105.148467 
L 217.062674 92.191974 
L 217.930734 88.71195 
L 218.798794 88.503271 
L 219.666855 87.165272 
L 220.534915 86.563786 
L 221.402975 93.51156 
L 222.271035 89.245922 
L 223.139096 92.695258 
L 224.007156 86.22008 
L 224.875216 88.257767 
L 225.743277 122.781818 
L 226.611337 122.174194 
L 227.479397 123.328065 
L 228.347457 125.022045 
L 229.215518 121.321067 
L 230.083578 126.826502 
L 230.951638 124.31622 
L 231.819699 127.882171 
L 232.687759 124.715165 
L 233.555819 126.654649 
L 234.423879 127.102695 
L 235.29194 130.576581 
L 236.16 122.143506 
L 237.02806 119.449096 
L 237.896121 122.972084 
L 238.764181 117.288658 
L 239.632241 126.476658 
L 240.500301 119.418408 
L 241.368362 126.157503 
L 242.236422 125.70332 
L 243.104482 112.94323 
L 243.972543 114.342605 
L 244.840603 121.910277 
L 245.708663 122.045305 
L 246.576723 128.716886 
L 248.312844 124.224156 
L 250.048965 121.511333 
L 250.917025 112.041002 
L 252.653145 123.929551 
L 253.521206 110.052416 
L 254.389266 120.345187 
L 255.257326 110.304058 
L 256.125386 113.949798 
L 256.993447 106.290062 
L 257.861507 119.590261 
L 258.729567 115.637641 
L 259.597628 117.712153 
L 260.465688 107.198428 
L 261.333748 106.781071 
L 262.201808 115.563989 
L 263.069869 113.91911 
L 263.937929 111.329039 
L 264.805989 107.55441 
L 265.67405 118.829197 
L 266.54211 106.553979 
L 267.41017 117.896281 
L 268.27823 115.343036 
L 269.146291 110.954645 
L 270.014351 101.208122 
L 270.882411 110.09538 
L 271.750472 109.481619 
L 272.618532 115.244834 
L 273.486592 111.052847 
L 274.354652 113.35445 
L 275.222713 110.046279 
L 276.090773 103.307184 
L 276.958833 115.453512 
L 277.826894 106.57853 
L 278.694954 105.952494 
L 279.563014 109.021298 
L 280.431074 117.135217 
L 281.299135 113.07212 
L 282.167195 110.199719 
L 283.035255 99.372977 
L 283.903316 97.421217 
L 284.771376 98.249794 
L 285.639436 109.082674 
L 286.507496 98.268207 
L 287.375557 95.702686 
L 288.243617 93.94733 
L 289.111677 98.955619 
L 289.979737 100.213829 
L 290.847798 93.76934 
L 291.715858 111.746397 
L 292.583918 94.327862 
L 293.451979 97.629896 
L 294.320039 103.638615 
L 295.188099 101.275635 
L 296.056159 97.218676 
L 296.92422 98.384822 
L 297.79228 100.766214 
L 298.66034 90.847838 
L 299.528401 91.087204 
L 300.396461 91.53525 
L 301.264521 95.48787 
L 302.132581 95.309879 
L 303.000642 99.906949 
L 303.868702 106.050695 
L 304.736762 98.059528 
L 305.604823 97.642171 
L 306.472883 100.925792 
L 307.340943 97.396667 
L 308.209003 98.255932 
L 309.077064 90.675985 
L 309.945124 95.874539 
L 310.813184 88.718087 
L 311.681245 91.608901 
L 312.549305 106.148897 
L 313.417365 91.154718 
L 314.285425 92.198112 
L 315.153486 91.829855 
L 316.021546 83.765037 
L 316.889606 95.764063 
L 317.757667 100.459333 
L 318.625727 83.200377 
L 319.493787 100.342719 
L 320.361847 98.759216 
L 321.229908 91.964882 
L 322.097968 87.932473 
L 322.966028 88.58306 
L 323.834088 90.264765 
L 324.702149 95.549246 
L 325.570209 90.737361 
L 326.438269 89.896508 
L 327.30633 89.387087 
L 328.17439 94.284899 
L 329.04245 92.050809 
L 329.91051 86.45331 
L 330.778571 88.270042 
L 331.646631 86.643575 
L 332.514691 77.64584 
L 334.250812 92.2288 
L 335.118872 75.012806 
L 335.986932 76.982979 
L 336.854993 80.536654 
L 338.591113 84.544513 
L 339.459174 87.275749 
L 340.327234 82.991698 
L 341.195294 83.194239 
L 342.063354 101.048544 
L 342.931415 76.461282 
L 343.799475 80.806709 
L 344.667535 83.857101 
L 345.535596 74.07989 
L 346.403656 79.204793 
L 347.271716 90.577783 
L 348.139776 90.571645 
L 349.007837 92.087635 
L 349.875897 82.445451 
L 350.743957 81.936029 
L 351.612018 87.19596 
L 352.480078 87.668556 
L 353.348138 81.837827 
L 354.216198 82.150846 
L 355.084259 93.173991 
L 355.952319 79.971994 
L 356.820379 78.90405 
L 357.688439 81.586186 
L 358.5565 72.25702 
L 359.42456 68.654243 
L 361.160681 89.663279 
L 362.028741 71.784424 
L 362.896801 73.208349 
L 363.764861 76.626997 
L 364.632922 74.914604 
L 365.500982 79.585325 
L 366.369042 81.512534 
L 367.237103 82.132433 
L 368.973223 79.628288 
L 369.841283 89.792169 
L 370.709344 82.580478 
L 371.577404 82.064919 
L 372.445464 80.00882 
L 373.313525 80.874223 
L 374.181585 68.506941 
L 375.049645 87.527391 
L 375.917705 69.48282 
L 376.785766 79.260032 
L 377.653826 78.922463 
L 378.521886 70.250022 
L 379.389947 72.95057 
L 380.258007 84.925045 
L 381.126067 79.640563 
L 381.994127 80.518242 
L 382.862188 64.407018 
L 383.730248 76.663823 
L 384.598308 74.773439 
L 385.466368 84.575201 
L 386.334429 73.509092 
L 387.202489 86.330557 
L 388.070549 79.339821 
L 388.93861 78.33939 
L 389.80667 81.733488 
L 390.67473 92.996001 
L 391.54279 74.79799 
L 392.410851 82.838258 
L 393.278911 73.742321 
L 395.015032 77.64584 
L 395.883092 70.299122 
L 396.751152 74.890054 
L 397.619212 77.271446 
L 398.487273 77.025942 
L 398.487273 77.025942 
" style="fill:none;stroke:#1f77b4;stroke-linecap:square;stroke-width:1.5;"/>
   </g>
   <g id="line2d_20">
    <path clip-path="url(#pa8db0300ce)" d="M 73.832727 279.953711 
L 75.568848 250.002179 
L 76.436908 239.9365 
L 77.304968 225.697247 
L 78.173029 216.981842 
L 79.041089 217.534227 
L 79.909149 189.577417 
L 80.77721 183.132928 
L 81.64527 175.154036 
L 82.51333 176.534998 
L 83.38139 175.368852 
L 84.249451 160.147582 
L 85.985571 142.9009 
L 86.853632 145.754889 
L 88.589752 129.24472 
L 89.457812 131.300819 
L 90.325873 124.794954 
L 91.193933 122.063717 
L 92.061993 120.038306 
L 92.930053 119.51661 
L 93.798114 118.289088 
L 94.666174 118.289088 
L 95.534234 157.385658 
L 96.402295 151.585617 
L 97.270355 152.076626 
L 98.138415 157.999419 
L 99.006475 145.325256 
L 99.874536 153.120019 
L 100.742596 134.093431 
L 101.610656 135.934714 
L 102.478717 131.6077 
L 103.346777 122.677478 
L 104.214837 127.771694 
L 105.082897 121.020324 
L 105.950958 128.017198 
L 106.819018 115.803356 
L 107.687078 113.102808 
L 108.555139 111.81391 
L 109.423199 112.182167 
L 110.291259 108.898546 
L 111.159319 104.939788 
L 112.02738 109.788499 
L 112.89544 102.361992 
L 113.7635 96.654016 
L 114.631561 99.293188 
L 116.367681 92.296313 
L 117.235741 91.160856 
L 118.103802 92.940762 
L 118.971862 92.357689 
L 119.839922 88.398932 
L 120.707982 91.09948 
L 121.576043 87.447602 
L 122.444103 87.140722 
L 123.312163 82.813707 
L 124.180224 84.440174 
L 125.048284 84.133293 
L 125.916344 83.212652 
L 126.784404 81.647562 
L 127.652465 82.537515 
L 128.520525 80.082471 
L 129.388585 79.438022 
L 130.256646 79.376646 
L 131.124706 79.530086 
L 131.992766 79.31527 
L 132.860826 77.351235 
L 133.728887 78.670821 
L 134.596947 78.363941 
L 135.465007 78.548069 
L 137.201128 77.995684 
L 138.069188 78.517381 
L 138.937248 107.793776 
L 139.805309 99.385252 
L 140.673369 107.7324 
L 141.541429 103.681578 
L 142.40949 104.663596 
L 143.27755 104.080523 
L 144.14561 101.686855 
L 145.01367 96.316447 
L 145.881731 98.341858 
L 146.749791 95.64131 
L 147.617851 95.671998 
L 148.485912 97.175713 
L 149.353972 100.152453 
L 150.222032 89.135445 
L 151.090092 93.984156 
L 151.958153 89.626453 
L 152.826213 91.928057 
L 153.694273 89.196821 
L 154.562333 88.644436 
L 155.430394 92.940762 
L 156.298454 86.680401 
L 157.166514 86.925905 
L 158.034575 88.306867 
L 158.902635 88.951316 
L 159.770695 84.931182 
L 160.638755 87.907923 
L 161.506816 87.01797 
L 162.374876 87.447602 
L 163.242936 85.821136 
L 164.110997 87.355538 
L 164.979057 84.440174 
L 165.847117 82.13857 
L 166.715177 87.01797 
L 167.583238 77.995684 
L 168.451298 79.530086 
L 169.319358 78.916326 
L 170.187419 80.358664 
L 171.055479 77.964996 
L 171.923539 76.890915 
L 172.791599 73.760734 
L 174.52772 78.701509 
L 175.39578 76.737474 
L 176.263841 76.062337 
L 177.999961 77.136419 
L 178.868021 75.724769 
L 179.736082 74.619999 
L 180.604142 72.533212 
L 181.472202 71.950139 
L 182.340263 70.661241 
L 183.208323 71.827387 
L 184.076383 71.551195 
L 184.944443 68.390326 
L 186.680564 71.213626 
L 187.548624 71.735323 
L 189.284745 67.653813 
L 190.152805 69.924728 
L 191.020865 69.034775 
L 191.888926 67.868629 
L 192.756986 66.119411 
L 193.625046 66.334227 
L 194.493106 67.346932 
L 195.361167 67.193492 
L 196.229227 65.50565 
L 197.965348 63.787119 
L 198.833408 66.9173 
L 199.701468 65.935282 
L 200.569528 65.751154 
L 201.437589 63.510927 
L 202.305649 64.830513 
L 204.04177 63.602991 
L 204.90983 61.332076 
L 205.77789 64.615696 
L 206.64595 61.88446 
L 207.514011 63.111982 
L 208.382071 63.081294 
L 209.250131 61.853772 
L 210.118192 63.204046 
L 210.986252 61.42414 
L 212.722372 61.915148 
L 213.590433 61.761708 
L 214.458493 61.209323 
L 215.326553 60.933131 
L 216.194614 61.332076 
L 217.062674 60.871755 
L 217.930734 60.257994 
L 218.798794 61.025195 
L 219.666855 60.62625 
L 220.534915 60.104554 
L 221.402975 60.810379 
L 222.271035 59.705609 
L 223.139096 60.257994 
L 224.007156 60.16593 
L 224.875216 61.270699 
L 225.743277 88.030675 
L 226.611337 80.205223 
L 227.479397 81.494121 
L 228.347457 84.593614 
L 229.215518 85.176687 
L 230.083578 83.028524 
L 230.951638 81.801002 
L 231.819699 81.095177 
L 232.687759 80.72692 
L 233.555819 83.672973 
L 234.423879 80.634856 
L 235.29194 80.788296 
L 236.16 81.309993 
L 237.02806 81.125865 
L 237.896121 81.770314 
L 238.764181 82.568203 
L 239.632241 77.995684 
L 240.500301 81.064489 
L 241.368362 78.854949 
L 242.236422 77.443299 
L 243.104482 78.670821 
L 243.972543 78.548069 
L 244.840603 75.632705 
L 245.708663 76.307842 
L 246.576723 79.407334 
L 247.444784 76.64541 
L 248.312844 80.297288 
L 249.180904 75.509953 
L 250.048965 75.203072 
L 250.917025 79.990407 
L 251.785085 76.768162 
L 252.653145 77.934308 
L 253.521206 76.860227 
L 254.389266 75.203072 
L 255.257326 80.174535 
L 256.125386 78.271877 
L 256.993447 73.331101 
L 257.861507 79.376646 
L 258.729567 75.203072 
L 259.597628 76.829538 
L 260.465688 76.093025 
L 261.333748 72.226332 
L 262.201808 77.934308 
L 263.069869 72.5639 
L 263.937929 73.453853 
L 264.805989 72.870781 
L 265.67405 78.118436 
L 266.54211 76.031649 
L 267.41017 72.809405 
L 268.27823 72.870781 
L 270.014351 72.809405 
L 270.882411 73.883486 
L 271.750472 71.612571 
L 272.618532 71.489819 
L 273.486592 77.473987 
L 274.354652 70.937434 
L 276.090773 73.085597 
L 276.958833 68.881335 
L 277.826894 75.632705 
L 278.694954 71.336378 
L 279.563014 73.82211 
L 280.431074 68.850647 
L 281.299135 70.200921 
L 282.167195 68.819959 
L 283.035255 73.208349 
L 283.903316 69.525784 
L 284.771376 71.30569 
L 285.639436 71.612571 
L 286.507496 71.213626 
L 287.375557 72.226332 
L 288.243617 71.275002 
L 289.111677 69.955416 
L 289.979737 71.673947 
L 290.847798 76.000961 
L 291.715858 70.84537 
L 292.583918 70.599865 
L 294.320039 67.346932 
L 295.188099 68.022069 
L 296.056159 69.004087 
L 296.92422 66.733172 
L 297.79228 70.108857 
L 298.66034 67.132116 
L 299.528401 67.132116 
L 300.396461 65.382898 
L 301.264521 66.180787 
L 302.132581 67.868629 
L 303.000642 66.426291 
L 303.868702 67.408309 
L 304.736762 67.469685 
L 305.604823 68.17551 
L 306.472883 67.162804 
L 307.340943 67.316244 
L 308.209003 65.628402 
L 309.077064 66.671795 
L 309.945124 66.058035 
L 310.813184 65.198769 
L 311.681245 64.677072 
L 312.549305 65.567026 
L 313.417365 65.352209 
L 314.285425 64.40088 
L 315.153486 65.260145 
L 316.021546 65.137393 
L 316.889606 64.001935 
L 317.757667 63.602991 
L 318.625727 63.572303 
L 319.493787 64.431568 
L 320.361847 63.633679 
L 321.229908 62.68235 
L 322.097968 63.633679 
L 322.966028 61.976524 
L 323.834088 63.111982 
L 324.702149 62.774414 
L 325.570209 63.019918 
L 326.438269 65.843218 
L 327.30633 63.388175 
L 328.17439 63.940559 
L 329.04245 63.787119 
L 329.91051 63.756431 
L 330.778571 67.346932 
L 331.646631 61.240011 
L 332.514691 60.135242 
L 333.382752 62.774414 
L 334.250812 61.700332 
L 335.118872 59.920425 
L 335.986932 61.055883 
L 336.854993 61.178635 
L 337.723053 59.951113 
L 338.591113 61.853772 
L 339.459174 59.398729 
L 340.327234 60.31937 
L 341.195294 59.582857 
L 342.063354 59.644233 
L 342.931415 60.16593 
L 343.799475 59.429417 
L 344.667535 60.871755 
L 345.535596 61.086571 
L 346.403656 60.196618 
L 347.271716 60.749003 
L 348.139776 59.552169 
L 349.007837 60.227306 
L 349.875897 58.324647 
L 350.743957 59.091848 
L 351.612018 58.999784 
L 352.480078 57.557446 
L 353.348138 59.122536 
L 354.216198 58.631528 
L 355.084259 59.951113 
L 355.952319 58.017767 
L 356.820379 57.710886 
L 357.688439 58.846344 
L 358.5565 58.447399 
L 359.42456 58.263271 
L 360.29262 58.508775 
L 362.028741 56.820933 
L 362.896801 56.820933 
L 363.764861 57.526758 
L 364.632922 57.772262 
L 365.500982 57.64951 
L 366.369042 55.777539 
L 367.237103 55.869603 
L 368.105163 56.299236 
L 368.973223 55.593411 
L 369.841283 56.053732 
L 370.709344 55.501347 
L 371.577404 55.777539 
L 373.313525 54.764834 
L 374.181585 54.795522 
L 375.917705 55.225154 
L 376.785766 55.102402 
L 377.653826 53.782816 
L 378.521886 55.409283 
L 379.389947 54.82621 
L 380.258007 55.746851 
L 381.126067 54.734146 
L 381.994127 55.010338 
L 382.862188 53.844192 
L 383.730248 54.273825 
L 384.598308 54.488641 
L 385.466368 54.519329 
L 386.334429 54.151073 
L 387.202489 54.396577 
L 388.070549 54.151073 
L 388.93861 53.598688 
L 390.67473 54.856898 
L 391.54279 53.997633 
L 393.278911 54.028321 
L 394.146971 54.918274 
L 395.015032 53.997633 
L 395.883092 53.87488 
L 396.751152 53.87488 
L 397.619212 54.396577 
L 398.487273 53.568 
L 398.487273 53.568 
" style="fill:none;stroke:#ff7f0e;stroke-linecap:square;stroke-width:1.5;"/>
   </g>
   <g id="line2d_21">
    <path clip-path="url(#pa8db0300ce)" d="M 73.832727 283.295333 
L 74.700788 274.70268 
L 75.568848 254.206441 
L 76.436908 245.000028 
L 77.304968 228.86456 
L 78.173029 220.578788 
L 79.041089 219.932805 
L 79.909149 200.082549 
L 80.77721 192.571957 
L 81.64527 191.909709 
L 82.51333 192.507205 
L 83.38139 198.289447 
L 84.249451 175.951925 
L 85.117511 173.820027 
L 85.985571 170.234129 
L 86.853632 167.746863 
L 87.721692 167.424024 
L 88.589752 158.588936 
L 89.457812 153.226507 
L 90.325873 152.806695 
L 91.193933 150.707018 
L 92.061993 149.689403 
L 92.930053 149.140394 
L 93.798114 147.896607 
L 94.666174 147.347291 
L 95.534234 181.814876 
L 96.402295 176.533464 
L 97.270355 175.887174 
L 98.138415 178.891533 
L 99.006475 166.616315 
L 99.874536 170.07271 
L 100.742596 160.123338 
L 101.610656 160.23627 
L 102.478717 175.418874 
L 103.346777 155.665593 
L 104.214837 156.553705 
L 105.082897 150.43236 
L 105.950958 163.127698 
L 106.819018 146.911214 
L 107.687078 150.270941 
L 108.555139 142.550443 
L 109.423199 148.23571 
L 110.291259 140.127622 
L 111.159319 142.663375 
L 112.02738 136.54203 
L 112.89544 135.944534 
L 113.7635 135.492192 
L 114.631561 131.405772 
L 115.499621 131.502746 
L 116.367681 122.360778 
L 118.103802 132.778755 
L 118.971862 126.382753 
L 119.839922 123.927709 
L 120.707982 128.450207 
L 121.576043 127.125711 
L 122.444103 118.759229 
L 123.312163 115.948818 
L 124.180224 118.872161 
L 125.048284 126.43124 
L 125.916344 119.921999 
L 126.784404 115.690424 
L 127.652465 118.630032 
L 128.520525 116.982391 
L 129.388585 117.0631 
L 130.256646 115.092621 
L 131.124706 113.78439 
L 131.992766 115.819621 
L 132.860826 114.624321 
L 133.728887 115.690424 
L 134.596947 113.978338 
L 135.465007 114.204202 
L 136.333068 115.302527 
L 137.201128 114.608057 
L 138.069188 116.093972 
L 138.937248 142.98652 
L 139.805309 137.446407 
L 140.673369 144.133332 
L 141.541429 154.179678 
L 142.40949 143.45482 
L 143.27755 138.334826 
L 144.14561 141.613537 
L 145.01367 130.59837 
L 145.881731 130.065318 
L 146.749791 137.042859 
L 147.617851 138.367049 
L 148.485912 134.199919 
L 149.353972 142.663375 
L 150.222032 128.36919 
L 151.090092 132.180952 
L 151.958153 121.924701 
L 152.826213 132.601072 
L 153.694273 125.332915 
L 154.562333 128.724558 
L 155.430394 135.039851 
L 156.298454 134.280935 
L 157.166514 126.269514 
L 158.034575 126.269514 
L 158.902635 130.59837 
L 159.770695 129.193164 
L 160.638755 133.344029 
L 161.506816 134.781457 
L 162.374876 122.764632 
L 163.242936 122.796855 
L 164.110997 121.537111 
L 164.979057 124.880573 
L 165.847117 126.851053 
L 166.715177 124.169838 
L 167.583238 112.169278 
L 168.451298 118.016271 
L 169.319358 117.111588 
L 170.187419 120.874863 
L 171.055479 119.001357 
L 171.923539 119.308238 
L 172.791599 117.127852 
L 173.65966 112.605355 
L 174.52772 117.903032 
L 175.39578 111.878662 
L 176.263841 116.643288 
L 177.131901 114.333706 
L 177.999961 116.06175 
L 178.868021 111.151662 
L 179.736082 115.609408 
L 180.604142 110.715585 
L 181.472202 108.034371 
L 182.340263 107.695268 
L 183.208323 109.92414 
L 184.076383 117.273007 
L 184.944443 107.598293 
L 185.812504 106.984533 
L 186.680564 105.401643 
L 187.548624 107.663045 
L 188.416684 103.350454 
L 189.284745 106.677652 
L 190.152805 105.466395 
L 191.020865 105.514882 
L 191.888926 112.298475 
L 192.756986 106.806849 
L 193.625046 106.903823 
L 194.493106 107.824464 
L 195.361167 107.921439 
L 196.229227 104.594241 
L 197.097287 100.58853 
L 197.965348 102.494565 
L 198.833408 105.078805 
L 199.701468 105.111027 
L 200.569528 103.124283 
L 201.437589 102.801445 
L 202.305649 99.08635 
L 203.173709 101.331488 
L 204.04177 100.20094 
L 204.90983 97.92358 
L 205.77789 100.265385 
L 206.64595 98.811999 
L 207.514011 98.827957 
L 208.382071 102.494565 
L 209.250131 97.648922 
L 210.118192 98.715025 
L 210.986252 99.264034 
L 211.854312 100.475598 
L 212.722372 98.31117 
L 213.590433 100.313872 
L 214.458493 97.745896 
L 215.326553 98.682803 
L 216.194614 99.005641 
L 217.062674 97.568213 
L 217.930734 94.709314 
L 219.666855 96.58282 
L 220.534915 96.631307 
L 221.402975 96.825255 
L 222.271035 96.857478 
L 223.139096 96.292204 
L 224.007156 96.518375 
L 224.875216 99.183325 
L 225.743277 122.586949 
L 226.611337 125.510599 
L 227.479397 118.920648 
L 228.347457 134.846209 
L 229.215518 126.721856 
L 230.951638 118.17769 
L 231.819699 118.323152 
L 232.687759 125.090479 
L 233.555819 120.778195 
L 234.423879 119.550673 
L 235.29194 122.134914 
L 236.16 121.068811 
L 237.02806 125.752727 
L 237.896121 117.951519 
L 238.764181 121.278717 
L 239.632241 110.521637 
L 240.500301 120.293631 
L 241.368362 115.221818 
L 242.236422 115.464253 
L 243.104482 108.680354 
L 243.972543 119.72805 
L 245.708663 112.298475 
L 246.576723 116.013262 
L 247.444784 116.853194 
L 248.312844 116.400852 
L 249.180904 115.771134 
L 250.048965 114.220467 
L 250.917025 117.693126 
L 251.785085 115.90033 
L 252.653145 118.64599 
L 253.521206 110.101824 
L 254.389266 111.684714 
L 255.257326 116.67551 
L 256.125386 115.173331 
L 256.993447 109.778679 
L 257.861507 115.383544 
L 258.729567 116.481869 
L 259.597628 109.778679 
L 260.465688 118.032229 
L 261.333748 106.806849 
L 262.201808 119.841289 
L 263.069869 111.313081 
L 264.805989 116.126501 
L 265.67405 125.607266 
L 266.54211 117.321494 
L 267.41017 110.844782 
L 268.27823 102.979129 
L 269.146291 112.072304 
L 270.014351 113.332048 
L 270.882411 113.622971 
L 272.618532 106.516233 
L 273.486592 120.212615 
L 274.354652 107.695268 
L 275.222713 104.093412 
L 276.090773 109.245935 
L 276.958833 106.306327 
L 277.826894 112.992945 
L 278.694954 111.248636 
L 279.563014 116.384895 
L 280.431074 106.096114 
L 281.299135 103.867241 
L 283.035255 113.299825 
L 283.903316 113.929851 
L 284.771376 110.909534 
L 285.639436 113.897322 
L 286.507496 111.652491 
L 287.375557 104.884857 
L 288.243617 110.667098 
L 289.111677 113.364577 
L 289.979737 118.17769 
L 290.847798 116.740262 
L 291.715858 109.504328 
L 292.583918 110.618611 
L 293.451979 107.711532 
L 294.320039 103.17277 
L 295.188099 103.657335 
L 296.056159 108.179832 
L 296.92422 107.049284 
L 297.79228 106.871601 
L 298.66034 109.907876 
L 299.528401 106.209353 
L 300.396461 99.16706 
L 301.264521 98.585828 
L 302.132581 98.472589 
L 303.000642 104.158164 
L 303.868702 101.799787 
L 304.736762 104.787882 
L 305.604823 98.650273 
L 306.472883 106.063891 
L 307.340943 103.059838 
L 308.209003 101.444727 
L 309.077064 102.849625 
L 309.945124 106.387036 
L 310.813184 97.099913 
L 311.681245 100.217205 
L 312.549305 107.081507 
L 313.417365 103.431164 
L 314.285425 102.074445 
L 315.153486 106.25784 
L 316.021546 98.844222 
L 316.889606 98.036512 
L 317.757667 99.587179 
L 318.625727 94.790121 
L 319.493787 96.437584 
L 320.361847 95.920733 
L 321.229908 97.422832 
L 322.097968 100.297817 
L 322.966028 94.450937 
L 323.834088 102.122949 
L 324.702149 90.509946 
L 325.570209 93.837176 
L 326.438269 96.146856 
L 327.30633 98.795718 
L 329.04245 95.113153 
L 329.91051 97.471287 
L 330.778571 101.799917 
L 331.646631 98.165806 
L 332.514691 96.001491 
L 333.382752 101.929129 
L 334.250812 94.967788 
L 335.118872 95.08085 
L 335.986932 96.146856 
L 336.854993 98.860325 
L 337.723053 99.764815 
L 338.591113 93.417235 
L 339.459174 88.507147 
L 340.327234 95.226214 
L 341.195294 90.655311 
L 342.063354 92.399684 
L 342.931415 94.644756 
L 343.799475 91.236768 
L 344.667535 91.721316 
L 345.535596 91.107555 
L 346.403656 94.27327 
L 347.271716 98.133503 
L 348.139776 97.794319 
L 349.007837 98.553444 
L 349.875897 91.236768 
L 350.743957 93.061899 
L 351.612018 97.148255 
L 352.480078 93.901783 
L 353.348138 94.047147 
L 354.216198 93.320325 
L 355.084259 96.954436 
L 355.952319 92.108955 
L 356.820379 90.768372 
L 357.688439 93.950238 
L 358.5565 96.227614 
L 359.42456 96.033794 
L 361.160681 94.547847 
L 362.028741 94.289421 
L 362.896801 93.707963 
L 363.764861 91.979742 
L 364.632922 92.205864 
L 365.500982 90.316127 
L 366.369042 90.186914 
L 367.237103 88.797876 
L 368.105163 88.038751 
L 369.841283 90.929888 
L 370.709344 88.426389 
L 371.577404 90.897585 
L 372.445464 87.473445 
L 373.313525 89.880034 
L 374.181585 88.571754 
L 375.049645 89.007847 
L 375.917705 87.634961 
L 376.785766 87.085806 
L 377.653826 87.780325 
L 378.521886 89.411637 
L 379.389947 88.523299 
L 380.258007 89.266273 
L 381.126067 88.474844 
L 381.994127 88.32948 
L 382.862188 90.299975 
L 383.730248 88.119509 
L 384.598308 89.63776 
L 385.466368 89.120908 
L 386.334429 87.957993 
L 387.202489 87.990296 
L 388.070549 86.568955 
L 388.93861 87.198868 
L 389.80667 87.376535 
L 390.67473 87.780325 
L 391.54279 88.652512 
L 393.278911 87.554203 
L 394.146971 89.363182 
L 395.015032 86.940442 
L 395.883092 88.054902 
L 396.751152 87.42499 
L 397.619212 87.376535 
L 398.487273 88.23257 
L 398.487273 88.23257 
" style="fill:none;stroke:#2ca02c;stroke-linecap:square;stroke-width:1.5;"/>
   </g>
   <g id="line2d_22">
    <path clip-path="url(#pa8db0300ce)" d="M 73.832727 290.786591 
L 74.700788 287.011962 
L 75.568848 286.428889 
L 76.436908 282.869076 
L 77.304968 282.439443 
L 78.173029 276.301834 
L 79.041089 282.163251 
L 79.909149 276.36321 
L 80.77721 277.038347 
L 81.64527 267.463677 
L 82.51333 273.202341 
L 83.38139 282.286003 
L 84.249451 268.169502 
L 85.117511 267.985374 
L 85.985571 251.87415 
L 86.853632 273.447846 
L 87.721692 252.088966 
L 88.589752 263.382167 
L 89.457812 263.351479 
L 90.325873 254.973642 
L 91.193933 259.576849 
L 92.061993 262.70703 
L 92.930053 257.889007 
L 93.798114 254.666762 
L 94.666174 259.638225 
L 95.534234 258.349327 
L 96.402295 256.323916 
L 97.270355 271.422435 
L 98.138415 252.702727 
L 99.006475 251.597957 
L 99.874536 243.189433 
L 100.742596 260.927123 
L 102.478717 232.571369 
L 103.346777 261.817077 
L 104.214837 250.002179 
L 105.950958 236.530127 
L 106.819018 236.161871 
L 107.687078 230.453894 
L 109.423199 240.949206 
L 110.291259 235.885678 
L 111.159319 210.629417 
L 112.02738 241.532278 
L 112.89544 230.730086 
L 113.7635 224.684542 
L 115.499621 239.660308 
L 116.367681 220.78716 
L 117.235741 209.371207 
L 118.103802 249.695299 
L 118.971862 230.300454 
L 119.839922 228.79674 
L 120.707982 226.065504 
L 121.576043 212.62414 
L 122.444103 226.249632 
L 123.312163 216.091889 
L 124.180224 219.559638 
L 125.048284 227.354401 
L 125.916344 202.803965 
L 126.784404 226.065504 
L 127.652465 212.716204 
L 128.520525 203.693918 
L 129.388585 219.68239 
L 130.256646 214.219918 
L 131.124706 215.416752 
L 131.992766 213.023084 
L 132.860826 219.52895 
L 133.728887 216.767026 
L 134.596947 212.716204 
L 135.465007 219.590326 
L 137.201128 214.925743 
L 138.069188 215.355376 
L 138.937248 240.519573 
L 139.805309 229.471877 
L 140.673369 244.723835 
L 141.541429 230.822151 
L 142.40949 251.935526 
L 143.27755 238.37141 
L 144.14561 247.270943 
L 145.01367 228.060227 
L 145.881731 246.902686 
L 147.617851 217.319411 
L 148.485912 232.08036 
L 149.353972 250.401124 
L 150.222032 227.200961 
L 151.090092 241.777783 
L 151.958153 230.576646 
L 152.826213 236.223247 
L 153.694273 225.267614 
L 154.562333 254.329193 
L 155.430394 246.84131 
L 156.298454 232.111049 
L 157.166514 204.737312 
L 158.034575 234.59678 
L 158.902635 240.734389 
L 159.770695 217.564915 
L 160.638755 221.462297 
L 161.506816 250.339748 
L 163.242936 213.207213 
L 164.110997 221.861241 
L 164.979057 219.068629 
L 165.847117 231.77348 
L 166.715177 254.942954 
L 167.583238 227.293025 
L 168.451298 228.459171 
L 169.319358 217.472851 
L 170.187419 238.432786 
L 171.923539 205.657953 
L 172.791599 217.779731 
L 173.65966 211.550058 
L 174.52772 225.942751 
L 175.39578 218.608309 
L 176.263841 220.173399 
L 177.131901 220.756472 
L 177.999961 232.049672 
L 178.868021 209.064326 
L 179.736082 217.902483 
L 180.604142 218.240052 
L 181.472202 214.49611 
L 182.340263 225.513119 
L 183.208323 206.486531 
L 184.076383 216.030513 
L 184.944443 206.425154 
L 185.812504 228.305731 
L 186.680564 210.199784 
L 187.548624 214.066478 
L 188.416684 224.623165 
L 189.284745 223.91734 
L 190.152805 205.351073 
L 191.020865 216.951154 
L 191.888926 209.432583 
L 192.756986 193.474799 
L 193.625046 221.891929 
L 194.493106 230.914215 
L 195.361167 224.745918 
L 196.229227 208.112997 
L 197.097287 220.326839 
L 197.965348 205.197633 
L 198.833408 215.048495 
L 199.701468 217.319411 
L 200.569528 223.91734 
L 201.437589 214.526798 
L 202.305649 225.789311 
L 203.173709 216.122577 
L 204.04177 223.487708 
L 204.90983 209.800839 
L 205.77789 231.988296 
L 206.64595 210.936297 
L 207.514011 220.879224 
L 208.382071 212.225195 
L 209.250131 211.273866 
L 210.118192 219.068629 
L 210.986252 217.626291 
L 211.854312 205.473825 
L 212.722372 212.562764 
L 213.590433 213.544781 
L 214.458493 212.440011 
L 215.326553 211.028361 
L 216.194614 214.127854 
L 217.062674 215.60088 
L 218.798794 208.941574 
L 219.666855 213.08446 
L 220.534915 214.987119 
L 221.402975 214.741615 
L 222.271035 208.511942 
L 223.139096 209.463271 
L 224.007156 208.880198 
L 224.875216 212.93102 
L 225.743277 228.367107 
L 226.611337 204.706624 
L 227.479397 209.923592 
L 228.347457 248.651905 
L 229.215518 210.690793 
L 230.083578 233.307882 
L 230.951638 222.843259 
L 231.819699 209.248455 
L 232.687759 220.817848 
L 233.555819 216.276017 
L 234.423879 222.260186 
L 235.29194 218.362804 
L 236.16 237.573521 
L 237.02806 224.132157 
L 237.896121 213.176524 
L 238.764181 224.254909 
L 239.632241 214.710927 
L 240.500301 218.27074 
L 241.368362 227.876098 
L 242.236422 217.442163 
L 243.104482 236.499439 
L 243.972543 236.530127 
L 244.840603 231.313159 
L 245.708663 227.507842 
L 246.576723 236.407375 
L 247.444784 201.975388 
L 248.312844 234.351276 
L 249.180904 218.792437 
L 250.048965 221.24748 
L 250.917025 213.575469 
L 251.785085 231.251783 
L 252.653145 239.169299 
L 254.389266 231.650728 
L 255.257326 231.343847 
L 256.125386 240.979894 
L 256.993447 226.802017 
L 257.861507 225.697247 
L 258.729567 226.096192 
L 259.597628 231.558664 
L 260.465688 216.70565 
L 261.333748 198.078006 
L 262.201808 219.314134 
L 263.069869 220.848536 
L 263.937929 212.654828 
L 264.805989 215.969137 
L 265.67405 224.101469 
L 266.54211 243.86457 
L 268.27823 215.631568 
L 269.146291 219.467574 
L 270.014351 230.484582 
L 270.882411 209.340519 
L 271.750472 223.61046 
L 272.618532 214.588175 
L 273.486592 211.795562 
L 274.354652 227.814722 
L 275.222713 208.757446 
L 276.090773 214.311982 
L 276.958833 205.995522 
L 277.826894 239.813748 
L 278.694954 212.77758 
L 279.563014 222.50569 
L 280.431074 225.236926 
L 281.299135 226.740641 
L 282.167195 201.79126 
L 283.035255 219.037941 
L 283.903316 206.425154 
L 284.771376 211.089737 
L 285.639436 214.097166 
L 286.507496 204.737312 
L 287.375557 214.03579 
L 288.243617 212.838956 
L 289.111677 204.369055 
L 289.979737 224.316285 
L 290.847798 224.193533 
L 291.715858 230.883527 
L 293.451979 217.073906 
L 294.320039 202.190204 
L 295.188099 221.707801 
L 296.056159 199.42828 
L 296.92422 207.714052 
L 297.79228 205.166945 
L 298.66034 197.157365 
L 299.528401 210.690793 
L 300.396461 210.230472 
L 301.264521 202.190204 
L 302.132581 209.00295 
L 303.000642 191.4187 
L 303.868702 206.609283 
L 304.736762 199.673784 
L 305.604823 211.611434 
L 306.472883 209.156391 
L 307.340943 216.582898 
L 308.209003 190.620811 
L 309.077064 201.607131 
L 309.945124 203.448414 
L 310.813184 203.018781 
L 311.681245 204.062175 
L 312.549305 213.452717 
L 313.417365 191.602828 
L 314.285425 202.497085 
L 315.153486 196.144659 
L 316.021546 213.575469 
L 316.889606 196.236723 
L 317.757667 188.012327 
L 318.625727 208.788134 
L 319.493787 200.99337 
L 320.361847 185.281091 
L 321.229908 193.720304 
L 322.097968 198.200758 
L 322.966028 209.401895 
L 324.702149 199.949977 
L 325.570209 192.768974 
L 326.438269 210.629417 
L 327.30633 197.525621 
L 328.17439 212.225195 
L 329.04245 198.200758 
L 329.91051 202.896029 
L 330.778571 218.823125 
L 331.646631 189.086409 
L 332.514691 197.402869 
L 333.382752 193.259983 
L 334.250812 201.729883 
L 335.118872 189.914986 
L 335.986932 186.171044 
L 336.854993 189.147785 
L 337.723053 200.134105 
L 338.591113 203.110846 
L 339.459174 201.177499 
L 340.327234 204.215615 
L 341.195294 195.162642 
L 342.063354 198.783831 
L 342.931415 197.985942 
L 343.799475 192.983791 
L 344.667535 196.236723 
L 345.535596 198.630391 
L 346.403656 196.390164 
L 347.271716 194.978513 
L 348.139776 206.056898 
L 349.007837 199.827225 
L 349.875897 198.722455 
L 350.743957 191.602828 
L 351.612018 196.819796 
L 352.480078 192.37003 
L 353.348138 193.229295 
L 354.216198 193.720304 
L 355.084259 201.821948 
L 355.952319 193.689616 
L 356.820379 196.973236 
L 357.688439 198.507639 
L 358.5565 195.868467 
L 359.42456 195.65365 
L 360.29262 191.633517 
L 361.160681 188.994345 
L 362.028741 177.731832 
L 362.896801 186.662053 
L 363.764861 198.262134 
L 364.632922 192.891726 
L 365.500982 199.489656 
L 367.237103 195.50021 
L 368.105163 188.503336 
L 368.973223 189.485353 
L 369.841283 190.866315 
L 370.709344 192.799662 
L 371.577404 196.021907 
L 372.445464 187.367878 
L 373.313525 190.129802 
L 374.181585 189.608106 
L 375.049645 192.400718 
L 375.917705 183.930817 
L 376.785766 193.014479 
L 377.653826 186.784805 
L 378.521886 182.365727 
L 379.389947 193.352047 
L 380.258007 197.433557 
L 381.126067 184.145633 
L 381.994127 192.83035 
L 382.862188 192.063149 
L 383.730248 187.33719 
L 384.598308 190.528747 
L 385.466368 186.631365 
L 386.334429 192.247277 
L 387.202489 191.940397 
L 388.070549 194.456817 
L 388.93861 195.561586 
L 389.80667 195.960531 
L 390.67473 191.848333 
L 391.54279 183.194304 
L 392.410851 194.548881 
L 393.278911 189.914986 
L 394.146971 191.909709 
L 395.015032 191.756269 
L 395.883092 188.135079 
L 396.751152 190.712875 
L 397.619212 185.373155 
L 398.487273 189.301225 
L 398.487273 189.301225 
" style="fill:none;stroke:#d62728;stroke-linecap:square;stroke-width:1.5;"/>
   </g>
   <g id="patch_3">
    <path d="M 57.6 307.584 
L 57.6 41.472 
" style="fill:none;stroke:#000000;stroke-linecap:square;stroke-linejoin:miter;stroke-width:0.8;"/>
   </g>
   <g id="patch_4">
    <path d="M 414.72 307.584 
L 414.72 41.472 
" style="fill:none;stroke:#000000;stroke-linecap:square;stroke-linejoin:miter;stroke-width:0.8;"/>
   </g>
   <g id="patch_5">
    <path d="M 57.6 307.584 
L 414.72 307.584 
" style="fill:none;stroke:#000000;stroke-linecap:square;stroke-linejoin:miter;stroke-width:0.8;"/>
   </g>
   <g id="patch_6">
    <path d="M 57.6 41.472 
L 414.72 41.472 
" style="fill:none;stroke:#000000;stroke-linecap:square;stroke-linejoin:miter;stroke-width:0.8;"/>
   </g>
   <g id="text_21">
    <!-- Training and Validation Accuracy -->
    <g transform="translate(138.4575 35.472)scale(0.12 -0.12)">
     <defs>
      <path d="M -19 4666 
L 3928 4666 
L 3928 4134 
L 2272 4134 
L 2272 0 
L 1638 0 
L 1638 4134 
L -19 4134 
L -19 4666 
z
" id="DejaVuSans-54" transform="scale(0.015625)"/>
      <path d="M 603 3500 
L 1178 3500 
L 1178 0 
L 603 0 
L 603 3500 
z
M 603 4863 
L 1178 4863 
L 1178 4134 
L 603 4134 
L 603 4863 
z
" id="DejaVuSans-69" transform="scale(0.015625)"/>
      <path d="M 3513 2113 
L 3513 0 
L 2938 0 
L 2938 2094 
Q 2938 2591 2744 2837 
Q 2550 3084 2163 3084 
Q 1697 3084 1428 2787 
Q 1159 2491 1159 1978 
L 1159 0 
L 581 0 
L 581 3500 
L 1159 3500 
L 1159 2956 
Q 1366 3272 1645 3428 
Q 1925 3584 2291 3584 
Q 2894 3584 3203 3211 
Q 3513 2838 3513 2113 
z
" id="DejaVuSans-6e" transform="scale(0.015625)"/>
      <path d="M 2906 1791 
Q 2906 2416 2648 2759 
Q 2391 3103 1925 3103 
Q 1463 3103 1205 2759 
Q 947 2416 947 1791 
Q 947 1169 1205 825 
Q 1463 481 1925 481 
Q 2391 481 2648 825 
Q 2906 1169 2906 1791 
z
M 3481 434 
Q 3481 -459 3084 -895 
Q 2688 -1331 1869 -1331 
Q 1566 -1331 1297 -1286 
Q 1028 -1241 775 -1147 
L 775 -588 
Q 1028 -725 1275 -790 
Q 1522 -856 1778 -856 
Q 2344 -856 2625 -561 
Q 2906 -266 2906 331 
L 2906 616 
Q 2728 306 2450 153 
Q 2172 0 1784 0 
Q 1141 0 747 490 
Q 353 981 353 1791 
Q 353 2603 747 3093 
Q 1141 3584 1784 3584 
Q 2172 3584 2450 3431 
Q 2728 3278 2906 2969 
L 2906 3500 
L 3481 3500 
L 3481 434 
z
" id="DejaVuSans-67" transform="scale(0.015625)"/>
      <path id="DejaVuSans-20" transform="scale(0.015625)"/>
      <path d="M 2906 2969 
L 2906 4863 
L 3481 4863 
L 3481 0 
L 2906 0 
L 2906 525 
Q 2725 213 2448 61 
Q 2172 -91 1784 -91 
Q 1150 -91 751 415 
Q 353 922 353 1747 
Q 353 2572 751 3078 
Q 1150 3584 1784 3584 
Q 2172 3584 2448 3432 
Q 2725 3281 2906 2969 
z
M 947 1747 
Q 947 1113 1208 752 
Q 1469 391 1925 391 
Q 2381 391 2643 752 
Q 2906 1113 2906 1747 
Q 2906 2381 2643 2742 
Q 2381 3103 1925 3103 
Q 1469 3103 1208 2742 
Q 947 2381 947 1747 
z
" id="DejaVuSans-64" transform="scale(0.015625)"/>
      <path d="M 1831 0 
L 50 4666 
L 709 4666 
L 2188 738 
L 3669 4666 
L 4325 4666 
L 2547 0 
L 1831 0 
z
" id="DejaVuSans-56" transform="scale(0.015625)"/>
      <path d="M 603 4863 
L 1178 4863 
L 1178 0 
L 603 0 
L 603 4863 
z
" id="DejaVuSans-6c" transform="scale(0.015625)"/>
      <path d="M 1172 4494 
L 1172 3500 
L 2356 3500 
L 2356 3053 
L 1172 3053 
L 1172 1153 
Q 1172 725 1289 603 
Q 1406 481 1766 481 
L 2356 481 
L 2356 0 
L 1766 0 
Q 1100 0 847 248 
Q 594 497 594 1153 
L 594 3053 
L 172 3053 
L 172 3500 
L 594 3500 
L 594 4494 
L 1172 4494 
z
" id="DejaVuSans-74" transform="scale(0.015625)"/>
     </defs>
     <use xlink:href="#DejaVuSans-54"/>
     <use x="46.333984" xlink:href="#DejaVuSans-72"/>
     <use x="87.447266" xlink:href="#DejaVuSans-61"/>
     <use x="148.726562" xlink:href="#DejaVuSans-69"/>
     <use x="176.509766" xlink:href="#DejaVuSans-6e"/>
     <use x="239.888672" xlink:href="#DejaVuSans-69"/>
     <use x="267.671875" xlink:href="#DejaVuSans-6e"/>
     <use x="331.050781" xlink:href="#DejaVuSans-67"/>
     <use x="394.527344" xlink:href="#DejaVuSans-20"/>
     <use x="426.314453" xlink:href="#DejaVuSans-61"/>
     <use x="487.59375" xlink:href="#DejaVuSans-6e"/>
     <use x="550.972656" xlink:href="#DejaVuSans-64"/>
     <use x="614.449219" xlink:href="#DejaVuSans-20"/>
     <use x="646.236328" xlink:href="#DejaVuSans-56"/>
     <use x="706.894531" xlink:href="#DejaVuSans-61"/>
     <use x="768.173828" xlink:href="#DejaVuSans-6c"/>
     <use x="795.957031" xlink:href="#DejaVuSans-69"/>
     <use x="823.740234" xlink:href="#DejaVuSans-64"/>
     <use x="887.216797" xlink:href="#DejaVuSans-61"/>
     <use x="948.496094" xlink:href="#DejaVuSans-74"/>
     <use x="987.705078" xlink:href="#DejaVuSans-69"/>
     <use x="1015.488281" xlink:href="#DejaVuSans-6f"/>
     <use x="1076.669922" xlink:href="#DejaVuSans-6e"/>
     <use x="1140.048828" xlink:href="#DejaVuSans-20"/>
     <use x="1171.835938" xlink:href="#DejaVuSans-41"/>
     <use x="1238.494141" xlink:href="#DejaVuSans-63"/>
     <use x="1293.474609" xlink:href="#DejaVuSans-63"/>
     <use x="1348.455078" xlink:href="#DejaVuSans-75"/>
     <use x="1411.833984" xlink:href="#DejaVuSans-72"/>
     <use x="1452.947266" xlink:href="#DejaVuSans-61"/>
     <use x="1514.226562" xlink:href="#DejaVuSans-63"/>
     <use x="1569.207031" xlink:href="#DejaVuSans-79"/>
    </g>
   </g>
   <g id="legend_1">
    <g id="patch_7">
     <path d="M 217.996562 302.584 
L 407.72 302.584 
Q 409.72 302.584 409.72 300.584 
L 409.72 242.8715 
Q 409.72 240.8715 407.72 240.8715 
L 217.996562 240.8715 
Q 215.996562 240.8715 215.996562 242.8715 
L 215.996562 300.584 
Q 215.996562 302.584 217.996562 302.584 
z
" style="fill:#ffffff;opacity:0.8;stroke:#cccccc;stroke-linejoin:miter;"/>
    </g>
    <g id="line2d_23">
     <path d="M 219.996562 248.969937 
L 239.996562 248.969937 
" style="fill:none;stroke:#1f77b4;stroke-linecap:square;stroke-width:1.5;"/>
    </g>
    <g id="line2d_24"/>
    <g id="text_22">
     <!-- Train Accuracy -->
     <g transform="translate(247.996562 252.469937)scale(0.1 -0.1)">
      <use xlink:href="#DejaVuSans-54"/>
      <use x="46.333984" xlink:href="#DejaVuSans-72"/>
      <use x="87.447266" xlink:href="#DejaVuSans-61"/>
      <use x="148.726562" xlink:href="#DejaVuSans-69"/>
      <use x="176.509766" xlink:href="#DejaVuSans-6e"/>
      <use x="239.888672" xlink:href="#DejaVuSans-20"/>
      <use x="271.675781" xlink:href="#DejaVuSans-41"/>
      <use x="338.333984" xlink:href="#DejaVuSans-63"/>
      <use x="393.314453" xlink:href="#DejaVuSans-63"/>
      <use x="448.294922" xlink:href="#DejaVuSans-75"/>
      <use x="511.673828" xlink:href="#DejaVuSans-72"/>
      <use x="552.787109" xlink:href="#DejaVuSans-61"/>
      <use x="614.066406" xlink:href="#DejaVuSans-63"/>
      <use x="669.046875" xlink:href="#DejaVuSans-79"/>
     </g>
    </g>
    <g id="line2d_25">
     <path d="M 219.996562 263.648062 
L 239.996562 263.648062 
" style="fill:none;stroke:#ff7f0e;stroke-linecap:square;stroke-width:1.5;"/>
    </g>
    <g id="line2d_26"/>
    <g id="text_23">
     <!-- Validation Accuracy -->
     <g transform="translate(247.996562 267.148062)scale(0.1 -0.1)">
      <use xlink:href="#DejaVuSans-56"/>
      <use x="60.658203" xlink:href="#DejaVuSans-61"/>
      <use x="121.9375" xlink:href="#DejaVuSans-6c"/>
      <use x="149.720703" xlink:href="#DejaVuSans-69"/>
      <use x="177.503906" xlink:href="#DejaVuSans-64"/>
      <use x="240.980469" xlink:href="#DejaVuSans-61"/>
      <use x="302.259766" xlink:href="#DejaVuSans-74"/>
      <use x="341.46875" xlink:href="#DejaVuSans-69"/>
      <use x="369.251953" xlink:href="#DejaVuSans-6f"/>
      <use x="430.433594" xlink:href="#DejaVuSans-6e"/>
      <use x="493.8125" xlink:href="#DejaVuSans-20"/>
      <use x="525.599609" xlink:href="#DejaVuSans-41"/>
      <use x="592.257812" xlink:href="#DejaVuSans-63"/>
      <use x="647.238281" xlink:href="#DejaVuSans-63"/>
      <use x="702.21875" xlink:href="#DejaVuSans-75"/>
      <use x="765.597656" xlink:href="#DejaVuSans-72"/>
      <use x="806.710938" xlink:href="#DejaVuSans-61"/>
      <use x="867.990234" xlink:href="#DejaVuSans-63"/>
      <use x="922.970703" xlink:href="#DejaVuSans-79"/>
     </g>
    </g>
    <g id="line2d_27">
     <path d="M 219.996562 278.326187 
L 239.996562 278.326187 
" style="fill:none;stroke:#2ca02c;stroke-linecap:square;stroke-width:1.5;"/>
    </g>
    <g id="line2d_28"/>
    <g id="text_24">
     <!-- Robust Validation Accuracy -->
     <g transform="translate(247.996562 281.826187)scale(0.1 -0.1)">
      <defs>
       <path d="M 2841 2188 
Q 3044 2119 3236 1894 
Q 3428 1669 3622 1275 
L 4263 0 
L 3584 0 
L 2988 1197 
Q 2756 1666 2539 1819 
Q 2322 1972 1947 1972 
L 1259 1972 
L 1259 0 
L 628 0 
L 628 4666 
L 2053 4666 
Q 2853 4666 3247 4331 
Q 3641 3997 3641 3322 
Q 3641 2881 3436 2590 
Q 3231 2300 2841 2188 
z
M 1259 4147 
L 1259 2491 
L 2053 2491 
Q 2509 2491 2742 2702 
Q 2975 2913 2975 3322 
Q 2975 3731 2742 3939 
Q 2509 4147 2053 4147 
L 1259 4147 
z
" id="DejaVuSans-52" transform="scale(0.015625)"/>
       <path d="M 3116 1747 
Q 3116 2381 2855 2742 
Q 2594 3103 2138 3103 
Q 1681 3103 1420 2742 
Q 1159 2381 1159 1747 
Q 1159 1113 1420 752 
Q 1681 391 2138 391 
Q 2594 391 2855 752 
Q 3116 1113 3116 1747 
z
M 1159 2969 
Q 1341 3281 1617 3432 
Q 1894 3584 2278 3584 
Q 2916 3584 3314 3078 
Q 3713 2572 3713 1747 
Q 3713 922 3314 415 
Q 2916 -91 2278 -91 
Q 1894 -91 1617 61 
Q 1341 213 1159 525 
L 1159 0 
L 581 0 
L 581 4863 
L 1159 4863 
L 1159 2969 
z
" id="DejaVuSans-62" transform="scale(0.015625)"/>
      </defs>
      <use xlink:href="#DejaVuSans-52"/>
      <use x="64.982422" xlink:href="#DejaVuSans-6f"/>
      <use x="126.164062" xlink:href="#DejaVuSans-62"/>
      <use x="189.640625" xlink:href="#DejaVuSans-75"/>
      <use x="253.019531" xlink:href="#DejaVuSans-73"/>
      <use x="305.119141" xlink:href="#DejaVuSans-74"/>
      <use x="344.328125" xlink:href="#DejaVuSans-20"/>
      <use x="376.115234" xlink:href="#DejaVuSans-56"/>
      <use x="436.773438" xlink:href="#DejaVuSans-61"/>
      <use x="498.052734" xlink:href="#DejaVuSans-6c"/>
      <use x="525.835938" xlink:href="#DejaVuSans-69"/>
      <use x="553.619141" xlink:href="#DejaVuSans-64"/>
      <use x="617.095703" xlink:href="#DejaVuSans-61"/>
      <use x="678.375" xlink:href="#DejaVuSans-74"/>
      <use x="717.583984" xlink:href="#DejaVuSans-69"/>
      <use x="745.367188" xlink:href="#DejaVuSans-6f"/>
      <use x="806.548828" xlink:href="#DejaVuSans-6e"/>
      <use x="869.927734" xlink:href="#DejaVuSans-20"/>
      <use x="901.714844" xlink:href="#DejaVuSans-41"/>
      <use x="968.373047" xlink:href="#DejaVuSans-63"/>
      <use x="1023.353516" xlink:href="#DejaVuSans-63"/>
      <use x="1078.333984" xlink:href="#DejaVuSans-75"/>
      <use x="1141.712891" xlink:href="#DejaVuSans-72"/>
      <use x="1182.826172" xlink:href="#DejaVuSans-61"/>
      <use x="1244.105469" xlink:href="#DejaVuSans-63"/>
      <use x="1299.085938" xlink:href="#DejaVuSans-79"/>
     </g>
    </g>
    <g id="line2d_29">
     <path d="M 219.996562 293.004312 
L 239.996562 293.004312 
" style="fill:none;stroke:#d62728;stroke-linecap:square;stroke-width:1.5;"/>
    </g>
    <g id="line2d_30"/>
    <g id="text_25">
     <!-- Adversarial Validation Accuracy -->
     <g transform="translate(247.996562 296.504312)scale(0.1 -0.1)">
      <defs>
       <path d="M 191 3500 
L 800 3500 
L 1894 563 
L 2988 3500 
L 3597 3500 
L 2284 0 
L 1503 0 
L 191 3500 
z
" id="DejaVuSans-76" transform="scale(0.015625)"/>
       <path d="M 3597 1894 
L 3597 1613 
L 953 1613 
Q 991 1019 1311 708 
Q 1631 397 2203 397 
Q 2534 397 2845 478 
Q 3156 559 3463 722 
L 3463 178 
Q 3153 47 2828 -22 
Q 2503 -91 2169 -91 
Q 1331 -91 842 396 
Q 353 884 353 1716 
Q 353 2575 817 3079 
Q 1281 3584 2069 3584 
Q 2775 3584 3186 3129 
Q 3597 2675 3597 1894 
z
M 3022 2063 
Q 3016 2534 2758 2815 
Q 2500 3097 2075 3097 
Q 1594 3097 1305 2825 
Q 1016 2553 972 2059 
L 3022 2063 
z
" id="DejaVuSans-65" transform="scale(0.015625)"/>
      </defs>
      <use xlink:href="#DejaVuSans-41"/>
      <use x="66.658203" xlink:href="#DejaVuSans-64"/>
      <use x="130.134766" xlink:href="#DejaVuSans-76"/>
      <use x="189.314453" xlink:href="#DejaVuSans-65"/>
      <use x="250.837891" xlink:href="#DejaVuSans-72"/>
      <use x="291.951172" xlink:href="#DejaVuSans-73"/>
      <use x="344.050781" xlink:href="#DejaVuSans-61"/>
      <use x="405.330078" xlink:href="#DejaVuSans-72"/>
      <use x="446.443359" xlink:href="#DejaVuSans-69"/>
      <use x="474.226562" xlink:href="#DejaVuSans-61"/>
      <use x="535.505859" xlink:href="#DejaVuSans-6c"/>
      <use x="563.289062" xlink:href="#DejaVuSans-20"/>
      <use x="595.076172" xlink:href="#DejaVuSans-56"/>
      <use x="655.734375" xlink:href="#DejaVuSans-61"/>
      <use x="717.013672" xlink:href="#DejaVuSans-6c"/>
      <use x="744.796875" xlink:href="#DejaVuSans-69"/>
      <use x="772.580078" xlink:href="#DejaVuSans-64"/>
      <use x="836.056641" xlink:href="#DejaVuSans-61"/>
      <use x="897.335938" xlink:href="#DejaVuSans-74"/>
      <use x="936.544922" xlink:href="#DejaVuSans-69"/>
      <use x="964.328125" xlink:href="#DejaVuSans-6f"/>
      <use x="1025.509766" xlink:href="#DejaVuSans-6e"/>
      <use x="1088.888672" xlink:href="#DejaVuSans-20"/>
      <use x="1120.675781" xlink:href="#DejaVuSans-41"/>
      <use x="1187.333984" xlink:href="#DejaVuSans-63"/>
      <use x="1242.314453" xlink:href="#DejaVuSans-63"/>
      <use x="1297.294922" xlink:href="#DejaVuSans-75"/>
      <use x="1360.673828" xlink:href="#DejaVuSans-72"/>
      <use x="1401.787109" xlink:href="#DejaVuSans-61"/>
      <use x="1463.066406" xlink:href="#DejaVuSans-63"/>
      <use x="1518.046875" xlink:href="#DejaVuSans-79"/>
     </g>
    </g>
   </g>
  </g>
 </g>
 <defs>
  <clipPath id="pa8db0300ce">
   <rect height="266.112" width="357.12" x="57.6" y="41.472"/>
  </clipPath>
 </defs>
</svg>
