<?xml version="1.0" encoding="utf-8" standalone="no"?>
<!DOCTYPE svg PUBLIC "-//W3C//DTD SVG 1.1//EN"
  "http://www.w3.org/Graphics/SVG/1.1/DTD/svg11.dtd">
<svg xmlns:xlink="http://www.w3.org/1999/xlink" width="460.8pt" height="345.6pt" viewBox="0 0 460.8 345.6" xmlns="http://www.w3.org/2000/svg" version="1.1">
 <metadata>
  <rdf:RDF xmlns:dc="http://purl.org/dc/elements/1.1/" xmlns:cc="http://creativecommons.org/ns#" xmlns:rdf="http://www.w3.org/1999/02/22-rdf-syntax-ns#">
   <cc:Work>
    <dc:type rdf:resource="http://purl.org/dc/dcmitype/StillImage"/>
    <dc:date>2023-11-15T15:52:49.142670</dc:date>
    <dc:format>image/svg+xml</dc:format>
    <dc:creator>
     <cc:Agent>
      <dc:title>Matplotlib v3.7.0, https://matplotlib.org/</dc:title>
     </cc:Agent>
    </dc:creator>
   </cc:Work>
  </rdf:RDF>
 </metadata>
 <defs>
  <style type="text/css">*{stroke-linejoin: round; stroke-linecap: butt}</style>
 </defs>
 <g id="figure_1">
  <g id="patch_1">
   <path d="M 0 345.6 
L 460.8 345.6 
L 460.8 0 
L 0 0 
z
" style="fill: #ffffff"/>
  </g>
  <g id="axes_1">
   <g id="patch_2">
    <path d="M 57.6 307.584 
L 414.72 307.584 
L 414.72 41.472 
L 57.6 41.472 
z
" style="fill: #ffffff"/>
   </g>
   <g id="matplotlib.axis_1">
    <g id="xtick_1">
     <g id="line2d_1">
      <defs>
       <path id="m4231e46c41" d="M 0 0 
L 0 3.5 
" style="stroke: #000000; stroke-width: 0.8"/>
      </defs>
      <g>
       <use xlink:href="#m4231e46c41" x="73.832727" y="307.584" style="stroke: #000000; stroke-width: 0.8"/>
      </g>
     </g>
     <g id="text_1">
      <!-- 1 -->
      <g transform="translate(70.651477 322.182437) scale(0.1 -0.1)">
       <defs>
        <path id="DejaVuSans-31" d="M 794 531 
L 1825 531 
L 1825 4091 
L 703 3866 
L 703 4441 
L 1819 4666 
L 2450 4666 
L 2450 531 
L 3481 531 
L 3481 0 
L 794 0 
L 794 531 
z
" transform="scale(0.015625)"/>
       </defs>
       <use xlink:href="#DejaVuSans-31"/>
      </g>
     </g>
    </g>
    <g id="xtick_2">
     <g id="line2d_2">
      <g>
       <use xlink:href="#m4231e46c41" x="109.555234" y="307.584" style="stroke: #000000; stroke-width: 0.8"/>
      </g>
     </g>
     <g id="text_2">
      <!-- 35 -->
      <g transform="translate(103.192734 322.182437) scale(0.1 -0.1)">
       <defs>
        <path id="DejaVuSans-33" d="M 2597 2516 
Q 3050 2419 3304 2112 
Q 3559 1806 3559 1356 
Q 3559 666 3084 287 
Q 2609 -91 1734 -91 
Q 1441 -91 1130 -33 
Q 819 25 488 141 
L 488 750 
Q 750 597 1062 519 
Q 1375 441 1716 441 
Q 2309 441 2620 675 
Q 2931 909 2931 1356 
Q 2931 1769 2642 2001 
Q 2353 2234 1838 2234 
L 1294 2234 
L 1294 2753 
L 1863 2753 
Q 2328 2753 2575 2939 
Q 2822 3125 2822 3475 
Q 2822 3834 2567 4026 
Q 2313 4219 1838 4219 
Q 1578 4219 1281 4162 
Q 984 4106 628 3988 
L 628 4550 
Q 988 4650 1302 4700 
Q 1616 4750 1894 4750 
Q 2613 4750 3031 4423 
Q 3450 4097 3450 3541 
Q 3450 3153 3228 2886 
Q 3006 2619 2597 2516 
z
" transform="scale(0.015625)"/>
        <path id="DejaVuSans-35" d="M 691 4666 
L 3169 4666 
L 3169 4134 
L 1269 4134 
L 1269 2991 
Q 1406 3038 1543 3061 
Q 1681 3084 1819 3084 
Q 2600 3084 3056 2656 
Q 3513 2228 3513 1497 
Q 3513 744 3044 326 
Q 2575 -91 1722 -91 
Q 1428 -91 1123 -41 
Q 819 9 494 109 
L 494 744 
Q 775 591 1075 516 
Q 1375 441 1709 441 
Q 2250 441 2565 725 
Q 2881 1009 2881 1497 
Q 2881 1984 2565 2268 
Q 2250 2553 1709 2553 
Q 1456 2553 1204 2497 
Q 953 2441 691 2322 
L 691 4666 
z
" transform="scale(0.015625)"/>
       </defs>
       <use xlink:href="#DejaVuSans-33"/>
       <use xlink:href="#DejaVuSans-35" x="63.623047"/>
      </g>
     </g>
    </g>
    <g id="xtick_3">
     <g id="line2d_3">
      <g>
       <use xlink:href="#m4231e46c41" x="145.277741" y="307.584" style="stroke: #000000; stroke-width: 0.8"/>
      </g>
     </g>
     <g id="text_3">
      <!-- 69 -->
      <g transform="translate(138.915241 322.182437) scale(0.1 -0.1)">
       <defs>
        <path id="DejaVuSans-36" d="M 2113 2584 
Q 1688 2584 1439 2293 
Q 1191 2003 1191 1497 
Q 1191 994 1439 701 
Q 1688 409 2113 409 
Q 2538 409 2786 701 
Q 3034 994 3034 1497 
Q 3034 2003 2786 2293 
Q 2538 2584 2113 2584 
z
M 3366 4563 
L 3366 3988 
Q 3128 4100 2886 4159 
Q 2644 4219 2406 4219 
Q 1781 4219 1451 3797 
Q 1122 3375 1075 2522 
Q 1259 2794 1537 2939 
Q 1816 3084 2150 3084 
Q 2853 3084 3261 2657 
Q 3669 2231 3669 1497 
Q 3669 778 3244 343 
Q 2819 -91 2113 -91 
Q 1303 -91 875 529 
Q 447 1150 447 2328 
Q 447 3434 972 4092 
Q 1497 4750 2381 4750 
Q 2619 4750 2861 4703 
Q 3103 4656 3366 4563 
z
" transform="scale(0.015625)"/>
        <path id="DejaVuSans-39" d="M 703 97 
L 703 672 
Q 941 559 1184 500 
Q 1428 441 1663 441 
Q 2288 441 2617 861 
Q 2947 1281 2994 2138 
Q 2813 1869 2534 1725 
Q 2256 1581 1919 1581 
Q 1219 1581 811 2004 
Q 403 2428 403 3163 
Q 403 3881 828 4315 
Q 1253 4750 1959 4750 
Q 2769 4750 3195 4129 
Q 3622 3509 3622 2328 
Q 3622 1225 3098 567 
Q 2575 -91 1691 -91 
Q 1453 -91 1209 -44 
Q 966 3 703 97 
z
M 1959 2075 
Q 2384 2075 2632 2365 
Q 2881 2656 2881 3163 
Q 2881 3666 2632 3958 
Q 2384 4250 1959 4250 
Q 1534 4250 1286 3958 
Q 1038 3666 1038 3163 
Q 1038 2656 1286 2365 
Q 1534 2075 1959 2075 
z
" transform="scale(0.015625)"/>
       </defs>
       <use xlink:href="#DejaVuSans-36"/>
       <use xlink:href="#DejaVuSans-39" x="63.623047"/>
      </g>
     </g>
    </g>
    <g id="xtick_4">
     <g id="line2d_4">
      <g>
       <use xlink:href="#m4231e46c41" x="182.050909" y="307.584" style="stroke: #000000; stroke-width: 0.8"/>
      </g>
     </g>
     <g id="text_4">
      <!-- 104 -->
      <g transform="translate(172.507159 322.182437) scale(0.1 -0.1)">
       <defs>
        <path id="DejaVuSans-30" d="M 2034 4250 
Q 1547 4250 1301 3770 
Q 1056 3291 1056 2328 
Q 1056 1369 1301 889 
Q 1547 409 2034 409 
Q 2525 409 2770 889 
Q 3016 1369 3016 2328 
Q 3016 3291 2770 3770 
Q 2525 4250 2034 4250 
z
M 2034 4750 
Q 2819 4750 3233 4129 
Q 3647 3509 3647 2328 
Q 3647 1150 3233 529 
Q 2819 -91 2034 -91 
Q 1250 -91 836 529 
Q 422 1150 422 2328 
Q 422 3509 836 4129 
Q 1250 4750 2034 4750 
z
" transform="scale(0.015625)"/>
        <path id="DejaVuSans-34" d="M 2419 4116 
L 825 1625 
L 2419 1625 
L 2419 4116 
z
M 2253 4666 
L 3047 4666 
L 3047 1625 
L 3713 1625 
L 3713 1100 
L 3047 1100 
L 3047 0 
L 2419 0 
L 2419 1100 
L 313 1100 
L 313 1709 
L 2253 4666 
z
" transform="scale(0.015625)"/>
       </defs>
       <use xlink:href="#DejaVuSans-31"/>
       <use xlink:href="#DejaVuSans-30" x="63.623047"/>
       <use xlink:href="#DejaVuSans-34" x="127.246094"/>
      </g>
     </g>
    </g>
    <g id="xtick_5">
     <g id="line2d_5">
      <g>
       <use xlink:href="#m4231e46c41" x="217.773416" y="307.584" style="stroke: #000000; stroke-width: 0.8"/>
      </g>
     </g>
     <g id="text_5">
      <!-- 138 -->
      <g transform="translate(208.229666 322.182437) scale(0.1 -0.1)">
       <defs>
        <path id="DejaVuSans-38" d="M 2034 2216 
Q 1584 2216 1326 1975 
Q 1069 1734 1069 1313 
Q 1069 891 1326 650 
Q 1584 409 2034 409 
Q 2484 409 2743 651 
Q 3003 894 3003 1313 
Q 3003 1734 2745 1975 
Q 2488 2216 2034 2216 
z
M 1403 2484 
Q 997 2584 770 2862 
Q 544 3141 544 3541 
Q 544 4100 942 4425 
Q 1341 4750 2034 4750 
Q 2731 4750 3128 4425 
Q 3525 4100 3525 3541 
Q 3525 3141 3298 2862 
Q 3072 2584 2669 2484 
Q 3125 2378 3379 2068 
Q 3634 1759 3634 1313 
Q 3634 634 3220 271 
Q 2806 -91 2034 -91 
Q 1263 -91 848 271 
Q 434 634 434 1313 
Q 434 1759 690 2068 
Q 947 2378 1403 2484 
z
M 1172 3481 
Q 1172 3119 1398 2916 
Q 1625 2713 2034 2713 
Q 2441 2713 2670 2916 
Q 2900 3119 2900 3481 
Q 2900 3844 2670 4047 
Q 2441 4250 2034 4250 
Q 1625 4250 1398 4047 
Q 1172 3844 1172 3481 
z
" transform="scale(0.015625)"/>
       </defs>
       <use xlink:href="#DejaVuSans-31"/>
       <use xlink:href="#DejaVuSans-33" x="63.623047"/>
       <use xlink:href="#DejaVuSans-38" x="127.246094"/>
      </g>
     </g>
    </g>
    <g id="xtick_6">
     <g id="line2d_6">
      <g>
       <use xlink:href="#m4231e46c41" x="253.495922" y="307.584" style="stroke: #000000; stroke-width: 0.8"/>
      </g>
     </g>
     <g id="text_6">
      <!-- 172 -->
      <g transform="translate(243.952172 322.182437) scale(0.1 -0.1)">
       <defs>
        <path id="DejaVuSans-37" d="M 525 4666 
L 3525 4666 
L 3525 4397 
L 1831 0 
L 1172 0 
L 2766 4134 
L 525 4134 
L 525 4666 
z
" transform="scale(0.015625)"/>
        <path id="DejaVuSans-32" d="M 1228 531 
L 3431 531 
L 3431 0 
L 469 0 
L 469 531 
Q 828 903 1448 1529 
Q 2069 2156 2228 2338 
Q 2531 2678 2651 2914 
Q 2772 3150 2772 3378 
Q 2772 3750 2511 3984 
Q 2250 4219 1831 4219 
Q 1534 4219 1204 4116 
Q 875 4013 500 3803 
L 500 4441 
Q 881 4594 1212 4672 
Q 1544 4750 1819 4750 
Q 2544 4750 2975 4387 
Q 3406 4025 3406 3419 
Q 3406 3131 3298 2873 
Q 3191 2616 2906 2266 
Q 2828 2175 2409 1742 
Q 1991 1309 1228 531 
z
" transform="scale(0.015625)"/>
       </defs>
       <use xlink:href="#DejaVuSans-31"/>
       <use xlink:href="#DejaVuSans-37" x="63.623047"/>
       <use xlink:href="#DejaVuSans-32" x="127.246094"/>
      </g>
     </g>
    </g>
    <g id="xtick_7">
     <g id="line2d_7">
      <g>
       <use xlink:href="#m4231e46c41" x="290.269091" y="307.584" style="stroke: #000000; stroke-width: 0.8"/>
      </g>
     </g>
     <g id="text_7">
      <!-- 207 -->
      <g transform="translate(280.725341 322.182437) scale(0.1 -0.1)">
       <use xlink:href="#DejaVuSans-32"/>
       <use xlink:href="#DejaVuSans-30" x="63.623047"/>
       <use xlink:href="#DejaVuSans-37" x="127.246094"/>
      </g>
     </g>
    </g>
    <g id="xtick_8">
     <g id="line2d_8">
      <g>
       <use xlink:href="#m4231e46c41" x="325.991598" y="307.584" style="stroke: #000000; stroke-width: 0.8"/>
      </g>
     </g>
     <g id="text_8">
      <!-- 241 -->
      <g transform="translate(316.447848 322.182437) scale(0.1 -0.1)">
       <use xlink:href="#DejaVuSans-32"/>
       <use xlink:href="#DejaVuSans-34" x="63.623047"/>
       <use xlink:href="#DejaVuSans-31" x="127.246094"/>
      </g>
     </g>
    </g>
    <g id="xtick_9">
     <g id="line2d_9">
      <g>
       <use xlink:href="#m4231e46c41" x="361.714104" y="307.584" style="stroke: #000000; stroke-width: 0.8"/>
      </g>
     </g>
     <g id="text_9">
      <!-- 275 -->
      <g transform="translate(352.170354 322.182437) scale(0.1 -0.1)">
       <use xlink:href="#DejaVuSans-32"/>
       <use xlink:href="#DejaVuSans-37" x="63.623047"/>
       <use xlink:href="#DejaVuSans-35" x="127.246094"/>
      </g>
     </g>
    </g>
    <g id="xtick_10">
     <g id="line2d_10">
      <g>
       <use xlink:href="#m4231e46c41" x="398.487273" y="307.584" style="stroke: #000000; stroke-width: 0.8"/>
      </g>
     </g>
     <g id="text_10">
      <!-- 310 -->
      <g transform="translate(388.943523 322.182437) scale(0.1 -0.1)">
       <use xlink:href="#DejaVuSans-33"/>
       <use xlink:href="#DejaVuSans-31" x="63.623047"/>
       <use xlink:href="#DejaVuSans-30" x="127.246094"/>
      </g>
     </g>
    </g>
    <g id="text_11">
     <!-- Epochs -->
     <g transform="translate(218.244375 335.860562) scale(0.1 -0.1)">
      <defs>
       <path id="DejaVuSans-45" d="M 628 4666 
L 3578 4666 
L 3578 4134 
L 1259 4134 
L 1259 2753 
L 3481 2753 
L 3481 2222 
L 1259 2222 
L 1259 531 
L 3634 531 
L 3634 0 
L 628 0 
L 628 4666 
z
" transform="scale(0.015625)"/>
       <path id="DejaVuSans-70" d="M 1159 525 
L 1159 -1331 
L 581 -1331 
L 581 3500 
L 1159 3500 
L 1159 2969 
Q 1341 3281 1617 3432 
Q 1894 3584 2278 3584 
Q 2916 3584 3314 3078 
Q 3713 2572 3713 1747 
Q 3713 922 3314 415 
Q 2916 -91 2278 -91 
Q 1894 -91 1617 61 
Q 1341 213 1159 525 
z
M 3116 1747 
Q 3116 2381 2855 2742 
Q 2594 3103 2138 3103 
Q 1681 3103 1420 2742 
Q 1159 2381 1159 1747 
Q 1159 1113 1420 752 
Q 1681 391 2138 391 
Q 2594 391 2855 752 
Q 3116 1113 3116 1747 
z
" transform="scale(0.015625)"/>
       <path id="DejaVuSans-6f" d="M 1959 3097 
Q 1497 3097 1228 2736 
Q 959 2375 959 1747 
Q 959 1119 1226 758 
Q 1494 397 1959 397 
Q 2419 397 2687 759 
Q 2956 1122 2956 1747 
Q 2956 2369 2687 2733 
Q 2419 3097 1959 3097 
z
M 1959 3584 
Q 2709 3584 3137 3096 
Q 3566 2609 3566 1747 
Q 3566 888 3137 398 
Q 2709 -91 1959 -91 
Q 1206 -91 779 398 
Q 353 888 353 1747 
Q 353 2609 779 3096 
Q 1206 3584 1959 3584 
z
" transform="scale(0.015625)"/>
       <path id="DejaVuSans-63" d="M 3122 3366 
L 3122 2828 
Q 2878 2963 2633 3030 
Q 2388 3097 2138 3097 
Q 1578 3097 1268 2742 
Q 959 2388 959 1747 
Q 959 1106 1268 751 
Q 1578 397 2138 397 
Q 2388 397 2633 464 
Q 2878 531 3122 666 
L 3122 134 
Q 2881 22 2623 -34 
Q 2366 -91 2075 -91 
Q 1284 -91 818 406 
Q 353 903 353 1747 
Q 353 2603 823 3093 
Q 1294 3584 2113 3584 
Q 2378 3584 2631 3529 
Q 2884 3475 3122 3366 
z
" transform="scale(0.015625)"/>
       <path id="DejaVuSans-68" d="M 3513 2113 
L 3513 0 
L 2938 0 
L 2938 2094 
Q 2938 2591 2744 2837 
Q 2550 3084 2163 3084 
Q 1697 3084 1428 2787 
Q 1159 2491 1159 1978 
L 1159 0 
L 581 0 
L 581 4863 
L 1159 4863 
L 1159 2956 
Q 1366 3272 1645 3428 
Q 1925 3584 2291 3584 
Q 2894 3584 3203 3211 
Q 3513 2838 3513 2113 
z
" transform="scale(0.015625)"/>
       <path id="DejaVuSans-73" d="M 2834 3397 
L 2834 2853 
Q 2591 2978 2328 3040 
Q 2066 3103 1784 3103 
Q 1356 3103 1142 2972 
Q 928 2841 928 2578 
Q 928 2378 1081 2264 
Q 1234 2150 1697 2047 
L 1894 2003 
Q 2506 1872 2764 1633 
Q 3022 1394 3022 966 
Q 3022 478 2636 193 
Q 2250 -91 1575 -91 
Q 1294 -91 989 -36 
Q 684 19 347 128 
L 347 722 
Q 666 556 975 473 
Q 1284 391 1588 391 
Q 1994 391 2212 530 
Q 2431 669 2431 922 
Q 2431 1156 2273 1281 
Q 2116 1406 1581 1522 
L 1381 1569 
Q 847 1681 609 1914 
Q 372 2147 372 2553 
Q 372 3047 722 3315 
Q 1072 3584 1716 3584 
Q 2034 3584 2315 3537 
Q 2597 3491 2834 3397 
z
" transform="scale(0.015625)"/>
      </defs>
      <use xlink:href="#DejaVuSans-45"/>
      <use xlink:href="#DejaVuSans-70" x="63.183594"/>
      <use xlink:href="#DejaVuSans-6f" x="126.660156"/>
      <use xlink:href="#DejaVuSans-63" x="187.841797"/>
      <use xlink:href="#DejaVuSans-68" x="242.822266"/>
      <use xlink:href="#DejaVuSans-73" x="306.201172"/>
     </g>
    </g>
   </g>
   <g id="matplotlib.axis_2">
    <g id="ytick_1">
     <g id="line2d_11">
      <defs>
       <path id="m4db4004e8b" d="M 0 0 
L -3.5 0 
" style="stroke: #000000; stroke-width: 0.8"/>
      </defs>
      <g>
       <use xlink:href="#m4db4004e8b" x="57.6" y="278.165379" style="stroke: #000000; stroke-width: 0.8"/>
      </g>
     </g>
     <g id="text_12">
      <!-- 10 -->
      <g transform="translate(37.875 281.964598) scale(0.1 -0.1)">
       <use xlink:href="#DejaVuSans-31"/>
       <use xlink:href="#DejaVuSans-30" x="63.623047"/>
      </g>
     </g>
    </g>
    <g id="ytick_2">
     <g id="line2d_12">
      <g>
       <use xlink:href="#m4db4004e8b" x="57.6" y="247.08784" style="stroke: #000000; stroke-width: 0.8"/>
      </g>
     </g>
     <g id="text_13">
      <!-- 20 -->
      <g transform="translate(37.875 250.887058) scale(0.1 -0.1)">
       <use xlink:href="#DejaVuSans-32"/>
       <use xlink:href="#DejaVuSans-30" x="63.623047"/>
      </g>
     </g>
    </g>
    <g id="ytick_3">
     <g id="line2d_13">
      <g>
       <use xlink:href="#m4db4004e8b" x="57.6" y="216.0103" style="stroke: #000000; stroke-width: 0.8"/>
      </g>
     </g>
     <g id="text_14">
      <!-- 30 -->
      <g transform="translate(37.875 219.809519) scale(0.1 -0.1)">
       <use xlink:href="#DejaVuSans-33"/>
       <use xlink:href="#DejaVuSans-30" x="63.623047"/>
      </g>
     </g>
    </g>
    <g id="ytick_4">
     <g id="line2d_14">
      <g>
       <use xlink:href="#m4db4004e8b" x="57.6" y="184.93276" style="stroke: #000000; stroke-width: 0.8"/>
      </g>
     </g>
     <g id="text_15">
      <!-- 40 -->
      <g transform="translate(37.875 188.731979) scale(0.1 -0.1)">
       <use xlink:href="#DejaVuSans-34"/>
       <use xlink:href="#DejaVuSans-30" x="63.623047"/>
      </g>
     </g>
    </g>
    <g id="ytick_5">
     <g id="line2d_15">
      <g>
       <use xlink:href="#m4db4004e8b" x="57.6" y="153.855221" style="stroke: #000000; stroke-width: 0.8"/>
      </g>
     </g>
     <g id="text_16">
      <!-- 50 -->
      <g transform="translate(37.875 157.654439) scale(0.1 -0.1)">
       <use xlink:href="#DejaVuSans-35"/>
       <use xlink:href="#DejaVuSans-30" x="63.623047"/>
      </g>
     </g>
    </g>
    <g id="ytick_6">
     <g id="line2d_16">
      <g>
       <use xlink:href="#m4db4004e8b" x="57.6" y="122.777681" style="stroke: #000000; stroke-width: 0.8"/>
      </g>
     </g>
     <g id="text_17">
      <!-- 60 -->
      <g transform="translate(37.875 126.5769) scale(0.1 -0.1)">
       <use xlink:href="#DejaVuSans-36"/>
       <use xlink:href="#DejaVuSans-30" x="63.623047"/>
      </g>
     </g>
    </g>
    <g id="ytick_7">
     <g id="line2d_17">
      <g>
       <use xlink:href="#m4db4004e8b" x="57.6" y="91.700141" style="stroke: #000000; stroke-width: 0.8"/>
      </g>
     </g>
     <g id="text_18">
      <!-- 70 -->
      <g transform="translate(37.875 95.49936) scale(0.1 -0.1)">
       <use xlink:href="#DejaVuSans-37"/>
       <use xlink:href="#DejaVuSans-30" x="63.623047"/>
      </g>
     </g>
    </g>
    <g id="ytick_8">
     <g id="line2d_18">
      <g>
       <use xlink:href="#m4db4004e8b" x="57.6" y="60.622602" style="stroke: #000000; stroke-width: 0.8"/>
      </g>
     </g>
     <g id="text_19">
      <!-- 80 -->
      <g transform="translate(37.875 64.42182) scale(0.1 -0.1)">
       <use xlink:href="#DejaVuSans-38"/>
       <use xlink:href="#DejaVuSans-30" x="63.623047"/>
      </g>
     </g>
    </g>
    <g id="text_20">
     <!-- Accuracy -->
     <g transform="translate(31.795312 197.356125) rotate(-90) scale(0.1 -0.1)">
      <defs>
       <path id="DejaVuSans-41" d="M 2188 4044 
L 1331 1722 
L 3047 1722 
L 2188 4044 
z
M 1831 4666 
L 2547 4666 
L 4325 0 
L 3669 0 
L 3244 1197 
L 1141 1197 
L 716 0 
L 50 0 
L 1831 4666 
z
" transform="scale(0.015625)"/>
       <path id="DejaVuSans-75" d="M 544 1381 
L 544 3500 
L 1119 3500 
L 1119 1403 
Q 1119 906 1312 657 
Q 1506 409 1894 409 
Q 2359 409 2629 706 
Q 2900 1003 2900 1516 
L 2900 3500 
L 3475 3500 
L 3475 0 
L 2900 0 
L 2900 538 
Q 2691 219 2414 64 
Q 2138 -91 1772 -91 
Q 1169 -91 856 284 
Q 544 659 544 1381 
z
M 1991 3584 
L 1991 3584 
z
" transform="scale(0.015625)"/>
       <path id="DejaVuSans-72" d="M 2631 2963 
Q 2534 3019 2420 3045 
Q 2306 3072 2169 3072 
Q 1681 3072 1420 2755 
Q 1159 2438 1159 1844 
L 1159 0 
L 581 0 
L 581 3500 
L 1159 3500 
L 1159 2956 
Q 1341 3275 1631 3429 
Q 1922 3584 2338 3584 
Q 2397 3584 2469 3576 
Q 2541 3569 2628 3553 
L 2631 2963 
z
" transform="scale(0.015625)"/>
       <path id="DejaVuSans-61" d="M 2194 1759 
Q 1497 1759 1228 1600 
Q 959 1441 959 1056 
Q 959 750 1161 570 
Q 1363 391 1709 391 
Q 2188 391 2477 730 
Q 2766 1069 2766 1631 
L 2766 1759 
L 2194 1759 
z
M 3341 1997 
L 3341 0 
L 2766 0 
L 2766 531 
Q 2569 213 2275 61 
Q 1981 -91 1556 -91 
Q 1019 -91 701 211 
Q 384 513 384 1019 
Q 384 1609 779 1909 
Q 1175 2209 1959 2209 
L 2766 2209 
L 2766 2266 
Q 2766 2663 2505 2880 
Q 2244 3097 1772 3097 
Q 1472 3097 1187 3025 
Q 903 2953 641 2809 
L 641 3341 
Q 956 3463 1253 3523 
Q 1550 3584 1831 3584 
Q 2591 3584 2966 3190 
Q 3341 2797 3341 1997 
z
" transform="scale(0.015625)"/>
       <path id="DejaVuSans-79" d="M 2059 -325 
Q 1816 -950 1584 -1140 
Q 1353 -1331 966 -1331 
L 506 -1331 
L 506 -850 
L 844 -850 
Q 1081 -850 1212 -737 
Q 1344 -625 1503 -206 
L 1606 56 
L 191 3500 
L 800 3500 
L 1894 763 
L 2988 3500 
L 3597 3500 
L 2059 -325 
z
" transform="scale(0.015625)"/>
      </defs>
      <use xlink:href="#DejaVuSans-41"/>
      <use xlink:href="#DejaVuSans-63" x="66.658203"/>
      <use xlink:href="#DejaVuSans-63" x="121.638672"/>
      <use xlink:href="#DejaVuSans-75" x="176.619141"/>
      <use xlink:href="#DejaVuSans-72" x="239.998047"/>
      <use xlink:href="#DejaVuSans-61" x="281.111328"/>
      <use xlink:href="#DejaVuSans-63" x="342.390625"/>
      <use xlink:href="#DejaVuSans-79" x="397.371094"/>
     </g>
    </g>
   </g>
   <g id="line2d_19">
    <path d="M 73.832727 295.488 
L 74.883389 288.94307 
L 75.934051 281.353935 
L 76.984713 276.163986 
L 80.136699 255.136922 
L 81.187361 250.854437 
L 83.288685 232.493827 
L 84.339347 260.382811 
L 85.390009 249.002216 
L 86.440671 244.02981 
L 87.491333 236.216916 
L 88.541995 224.109107 
L 89.592657 218.94402 
L 90.643319 221.479947 
L 91.693981 214.039984 
L 92.744643 208.464673 
L 93.795305 200.204263 
L 94.845966 197.419716 
L 95.896628 192.925903 
L 96.94729 190.56401 
L 97.997952 184.093667 
L 99.048614 184.553614 
L 100.099276 177.368487 
L 101.149938 174.273164 
L 102.2006 173.054925 
L 103.251262 177.095005 
L 104.301924 170.848419 
L 105.352586 203.299586 
L 106.403248 193.889307 
L 108.504572 186.679318 
L 109.555234 191.129622 
L 110.605896 178.394046 
L 111.656558 179.612285 
L 112.70722 179.500406 
L 113.757882 175.702731 
L 114.808544 176.771798 
L 115.859206 162.376682 
L 116.909868 169.356697 
L 117.96053 177.965176 
L 119.011192 163.501689 
L 120.061853 165.416065 
L 121.112515 160.393935 
L 122.163177 164.166748 
L 123.213839 158.100413 
L 124.264501 151.244707 
L 125.315163 156.16739 
L 126.365825 141.716334 
L 127.416487 147.471894 
L 128.467149 147.179765 
L 129.517811 136.190747 
L 130.568473 138.795045 
L 131.619135 135.202481 
L 132.669797 121.988311 
L 133.720459 133.076778 
L 134.771121 128.82537 
L 135.821783 121.453778 
L 136.872445 127.868182 
L 137.923107 130.273583 
L 138.973769 113.34254 
L 140.024431 120.061504 
L 142.125755 131.678288 
L 143.176417 118.314946 
L 144.227079 119.185117 
L 145.277741 120.366064 
L 146.328402 118.17199 
L 147.379064 157.88287 
L 148.429726 150.815837 
L 149.480388 155.80689 
L 150.53105 165.5901 
L 151.581712 152.686705 
L 152.632374 144.482235 
L 153.683036 140.44837 
L 154.733698 156.397363 
L 155.78436 148.236401 
L 156.835022 136.060221 
L 157.885684 144.134166 
L 158.936346 137.08578 
L 159.987008 137.781917 
L 161.03767 136.706634 
L 162.088332 143.170762 
L 163.138994 128.962111 
L 164.189656 139.671431 
L 165.240318 132.629261 
L 166.29098 138.37239 
L 167.341642 131.945555 
L 168.392304 127.370941 
L 169.442966 129.509076 
L 170.493628 124.716919 
L 171.544289 125.344686 
L 172.594951 111.707861 
L 173.645613 129.036697 
L 174.696275 124.561532 
L 175.746937 112.60911 
L 176.797599 120.117444 
L 177.848261 130.497342 
L 178.898923 126.221072 
L 179.949585 122.982793 
L 181.000247 127.128536 
L 182.050909 117.040767 
L 183.101571 103.640132 
L 184.152233 100.700197 
L 185.202895 112.211317 
L 186.253557 107.593195 
L 187.304219 104.298976 
L 188.354881 119.65128 
L 189.405543 108.854943 
L 190.456205 102.807254 
L 191.506867 103.031012 
L 192.557529 109.42677 
L 193.608191 102.278936 
L 194.658853 109.128425 
L 195.709515 108.544168 
L 196.760177 101.228515 
L 197.810838 100.25268 
L 198.8615 92.769209 
L 199.912162 89.655239 
L 202.013486 98.344519 
L 203.064148 90.438393 
L 204.11481 101.750618 
L 205.165472 92.290614 
L 206.216134 88.548879 
L 207.266796 88.853439 
L 208.317458 96.082074 
L 209.36812 97.0144 
L 210.418782 83.85617 
L 211.469444 105.772051 
L 212.520106 90.320298 
L 213.570768 86.224279 
L 214.62143 77.298809 
L 215.672092 97.001969 
L 216.722754 88.014345 
L 217.773416 91.986055 
L 218.824078 73.606798 
L 219.87474 79.586116 
L 220.925402 99.500604 
L 221.976064 85.62759 
L 223.026726 89.126921 
L 224.077387 98.294795 
L 226.178711 70.996284 
L 227.229373 89.481205 
L 228.280035 92.893519 
L 229.330697 82.985999 
L 230.381359 82.799534 
L 231.432021 120.19203 
L 232.482683 117.146431 
L 233.533345 108.196099 
L 234.584007 101.744402 
L 235.634669 112.111869 
L 236.685331 113.323893 
L 237.735993 121.752122 
L 238.786655 109.209227 
L 239.837317 121.379192 
L 240.887979 113.734117 
L 241.938641 102.689159 
L 242.989303 104.659475 
L 244.039965 113.721686 
L 245.090627 109.563511 
L 246.141289 114.119478 
L 247.191951 104.572458 
L 248.242613 96.324479 
L 249.293274 107.052446 
L 250.343936 111.701646 
L 251.394598 104.330053 
L 252.44526 101.986807 
L 253.495922 108.01585 
L 254.546584 108.351487 
L 255.597246 101.688462 
L 256.647908 105.697465 
L 257.69857 107.388083 
L 258.749232 105.523431 
L 259.799894 95.65942 
L 260.850556 108.537952 
L 261.901218 97.797554 
L 262.95188 99.345216 
L 264.002542 90.892125 
L 265.053204 93.160786 
L 266.103866 88.517801 
L 267.154528 81.662096 
L 268.20519 98.736096 
L 269.255852 102.415677 
L 270.306514 97.722968 
L 271.357176 97.399762 
L 272.407838 103.024797 
L 273.4585 89.18286 
L 274.509162 108.525521 
L 275.559823 91.128314 
L 276.610485 89.829273 
L 277.661147 88.157302 
L 279.762471 98.729881 
L 280.813133 88.144871 
L 281.863795 93.067553 
L 282.914457 95.323782 
L 283.965119 78.119256 
L 285.015781 86.752597 
L 286.066443 91.165608 
L 287.117105 99.885965 
L 288.167767 89.257447 
L 289.218429 100.73749 
L 290.269091 84.602031 
L 291.319753 82.470112 
L 292.370415 97.144926 
L 293.421077 80.468718 
L 294.471739 92.253321 
L 295.522401 88.374844 
L 296.573063 97.269236 
L 298.674387 76.304328 
L 299.725049 78.964565 
L 300.775711 92.054425 
L 301.826372 77.373395 
L 302.877034 90.034385 
L 303.927696 78.398954 
L 304.978358 77.777403 
L 306.02902 84.900376 
L 307.079682 80.891373 
L 308.130344 103.807951 
L 309.181006 72.742842 
L 311.28233 81.742897 
L 312.332992 91.165608 
L 313.383654 85.795409 
L 314.434316 87.224975 
L 315.484978 68.957598 
L 316.53564 81.363752 
L 317.586302 84.204239 
L 318.636964 80.164158 
L 319.687626 71.965903 
L 320.738288 77.106129 
L 321.78895 75.583329 
L 322.839612 71.965903 
L 323.890274 73.482487 
L 324.940936 62.139185 
L 325.991598 74.00459 
L 327.042259 79.474237 
L 329.143583 67.279411 
L 330.194245 73.345746 
L 331.244907 80.151727 
L 332.295569 81.649665 
L 333.346231 73.51978 
L 334.396893 54.444387 
L 335.447555 59.733784 
L 336.498217 71.220043 
L 337.548879 74.166193 
L 339.650203 60.299395 
L 340.700865 73.513565 
L 341.751527 78.461109 
L 342.802189 74.191055 
L 343.852851 53.586647 
L 344.903513 69.616441 
L 345.954175 68.789779 
L 347.004837 71.400292 
L 348.055499 59.485164 
L 349.106161 70.39338 
L 350.156823 63.065296 
L 351.207485 67.441014 
L 352.258147 71.313275 
L 353.308808 78.52948 
L 354.35947 57.558356 
L 355.410132 57.682666 
L 356.460794 65.470698 
L 357.511456 54.761378 
L 359.61278 73.45141 
L 360.663442 72.388558 
L 361.714104 87.299562 
L 362.764766 60.784205 
L 363.815428 67.266979 
L 364.86609 70.163406 
L 365.916752 75.309847 
L 366.967414 72.059136 
L 368.018076 65.545284 
L 369.068738 64.737268 
L 370.1194 60.336688 
L 371.170062 84.316118 
L 372.220724 67.186178 
L 373.271386 82.38931 
L 374.322048 64.818069 
L 375.37271 66.676506 
L 376.423372 64.240027 
L 377.474034 65.122629 
L 378.524695 71.07087 
L 379.575357 56.50172 
L 380.626019 64.929949 
L 381.676681 65.74418 
L 382.727343 76.820215 
L 383.778005 54.798671 
L 384.828667 67.509384 
L 385.879329 62.922339 
L 386.929991 62.972064 
L 387.980653 66.813247 
L 389.031315 67.33535 
L 390.081977 67.117807 
L 391.132639 64.482432 
L 392.183301 63.873312 
L 393.233963 73.277376 
L 394.284625 66.688937 
L 395.335287 71.095732 
L 396.385949 62.543193 
L 397.436611 61.958936 
L 398.487273 61.032825 
L 398.487273 61.032825 
" clip-path="url(#p571aad77b1)" style="fill: none; stroke: #1f77b4; stroke-width: 1.5; stroke-linecap: square"/>
   </g>
   <g id="line2d_20">
    <path d="M 73.832727 288.38989 
L 74.883389 285.437524 
L 75.934051 280.185419 
L 78.035375 251.50085 
L 79.086037 245.005645 
L 80.136699 227.260369 
L 81.187361 219.304519 
L 82.238023 208.707078 
L 83.288685 206.873503 
L 84.339347 262.191524 
L 85.390009 237.267337 
L 86.440671 222.940591 
L 87.491333 229.125022 
L 88.541995 201.341701 
L 89.592657 227.322524 
L 90.643319 183.192418 
L 91.693981 181.545308 
L 92.744643 184.715218 
L 93.795305 165.695763 
L 94.845966 159.573488 
L 95.896628 152.270266 
L 96.94729 142.263298 
L 97.997952 148.199108 
L 99.048614 132.194175 
L 100.099276 132.753571 
L 101.149938 129.61474 
L 102.2006 134.183138 
L 103.251262 126.786684 
L 104.301924 123.896472 
L 105.352586 174.304242 
L 106.403248 189.221461 
L 107.45391 185.274613 
L 108.504572 168.337354 
L 109.555234 163.551413 
L 110.605896 151.679793 
L 111.656558 156.465734 
L 112.70722 167.436105 
L 113.757882 132.194175 
L 114.808544 126.693451 
L 115.859206 144.500881 
L 116.909868 134.897921 
L 117.96053 132.846804 
L 119.011192 113.547652 
L 120.061853 112.584248 
L 121.112515 121.099494 
L 122.163177 121.721045 
L 124.264501 103.447451 
L 125.315163 112.211317 
L 126.365825 100.55724 
L 127.416487 117.214801 
L 128.467149 90.985358 
L 129.517811 91.793374 
L 130.568473 89.680101 
L 131.619135 95.149748 
L 132.669797 84.956315 
L 133.720459 92.60139 
L 134.771121 85.546788 
L 135.821783 82.687655 
L 136.872445 82.097181 
L 137.923107 85.329246 
L 138.973769 79.393435 
L 140.024431 77.497706 
L 141.075093 77.000465 
L 142.125755 79.921754 
L 143.176417 76.814 
L 144.227079 77.373395 
L 145.277741 78.088179 
L 146.328402 77.839559 
L 147.379064 122.373673 
L 148.429726 108.575245 
L 149.480388 131.603702 
L 150.53105 137.197659 
L 151.581712 112.67748 
L 152.632374 130.671376 
L 153.683036 101.955729 
L 154.733698 107.114601 
L 155.78436 100.961248 
L 156.835022 105.902577 
L 157.885684 104.877018 
L 158.936346 104.814863 
L 159.987008 108.38878 
L 161.03767 91.731219 
L 162.088332 97.356253 
L 163.138994 93.720181 
L 164.189656 98.816898 
L 165.240318 86.9142 
L 166.29098 85.888641 
L 167.341642 105.871499 
L 168.392304 91.140745 
L 169.442966 92.632467 
L 170.493628 85.733254 
L 171.544289 85.204935 
L 172.594951 87.349286 
L 173.645613 89.897644 
L 174.696275 81.258088 
L 175.746937 79.610978 
L 176.797599 84.89416 
L 177.848261 81.506708 
L 178.898923 86.168339 
L 179.949585 76.814 
L 181.000247 82.376879 
L 182.050909 72.867152 
L 183.101571 76.845077 
L 184.152233 75.229045 
L 185.202895 79.704211 
L 186.253557 70.971422 
L 187.304219 74.576417 
L 188.354881 72.960385 
L 189.405543 73.954866 
L 190.456205 71.965903 
L 191.506867 78.647575 
L 192.557529 78.678652 
L 193.608191 72.059136 
L 194.658853 69.945863 
L 195.709515 70.225561 
L 196.760177 69.790476 
L 197.810838 67.490738 
L 198.8615 68.019056 
L 199.912162 65.284232 
L 200.962824 65.812551 
L 202.013486 69.541855 
L 203.064148 70.287716 
L 204.11481 73.985944 
L 205.165472 63.202037 
L 206.216134 64.600527 
L 207.266796 66.371946 
L 208.317458 63.512813 
L 209.36812 63.41958 
L 210.418782 66.900265 
L 211.469444 65.874706 
L 212.520106 64.227596 
L 213.570768 61.088765 
L 214.62143 61.990013 
L 215.672092 64.755914 
L 216.722754 59.876741 
L 217.773416 61.088765 
L 218.824078 59.938896 
L 219.87474 62.735874 
L 220.925402 62.549409 
L 223.026726 59.907818 
L 224.077387 62.673719 
L 225.128049 62.735874 
L 226.178711 59.068725 
L 227.229373 59.068725 
L 228.280035 59.659198 
L 229.330697 59.3795 
L 230.381359 62.269711 
L 231.432021 93.222941 
L 232.482683 92.818933 
L 233.533345 96.827935 
L 234.584007 91.016435 
L 235.634669 86.479115 
L 236.685331 85.111703 
L 237.735993 79.890676 
L 238.786655 89.711179 
L 239.837317 75.41551 
L 240.887979 85.608943 
L 241.938641 78.430032 
L 242.989303 80.667615 
L 245.090627 72.89823 
L 246.141289 80.232529 
L 247.191951 72.991462 
L 248.242613 89.586869 
L 249.293274 80.636537 
L 250.343936 95.833454 
L 251.394598 78.616497 
L 252.44526 71.934826 
L 253.495922 82.097181 
L 254.546584 95.740221 
L 255.597246 81.195933 
L 256.647908 71.344353 
L 257.69857 84.76985 
L 259.799894 77.870636 
L 260.850556 82.345802 
L 261.901218 71.530818 
L 262.95188 81.258088 
L 265.053204 65.936861 
L 266.103866 78.430032 
L 267.154528 67.490738 
L 268.20519 73.053617 
L 269.255852 73.550858 
L 270.306514 70.536337 
L 271.357176 75.16689 
L 272.407838 69.4797 
L 273.4585 70.225561 
L 274.509162 68.267676 
L 275.559823 69.572933 
L 276.610485 70.008018 
L 277.661147 65.999016 
L 278.711809 69.200002 
L 279.762471 67.863668 
L 280.813133 68.547374 
L 281.863795 72.059136 
L 282.914457 72.680687 
L 283.965119 64.94238 
L 285.015781 71.49974 
L 286.066443 71.872671 
L 287.117105 73.02254 
L 288.167767 70.194484 
L 289.218429 67.956901 
L 290.269091 67.677203 
L 291.319753 66.403024 
L 292.370415 70.847112 
L 293.421077 66.589489 
L 294.471739 67.708281 
L 295.522401 74.79396 
L 296.573063 69.262158 
L 297.623725 68.112289 
L 298.674387 72.89823 
L 299.725049 67.490738 
L 300.775711 67.770436 
L 301.826372 67.428583 
L 302.877034 69.510778 
L 303.927696 66.434101 
L 304.978358 64.569449 
L 306.02902 63.606045 
L 307.079682 71.220043 
L 308.130344 68.485219 
L 310.231668 61.990013 
L 311.28233 66.96242 
L 312.332992 64.600527 
L 313.383654 62.891262 
L 314.434316 69.013537 
L 315.484978 65.595008 
L 316.53564 63.357425 
L 317.586302 63.823588 
L 318.636964 65.532853 
L 319.687626 61.586005 
L 320.738288 63.41958 
L 321.78895 65.501775 
L 322.839612 66.527334 
L 323.890274 59.224112 
L 324.940936 61.927858 
L 325.991598 60.373981 
L 327.042259 61.586005 
L 328.092921 58.851182 
L 329.143583 62.362944 
L 330.194245 61.430618 
L 331.244907 62.829107 
L 332.295569 60.777989 
L 333.346231 59.721353 
L 334.396893 58.913337 
L 335.447555 56.955452 
L 336.498217 59.783508 
L 337.548879 59.441655 
L 338.599541 58.353941 
L 339.650203 59.3795 
L 341.751527 58.291786 
L 342.802189 58.540406 
L 343.852851 56.831142 
L 344.903513 56.613599 
L 347.004837 59.938896 
L 348.055499 57.670235 
L 349.106161 56.054203 
L 350.156823 55.992048 
L 351.207485 56.085281 
L 352.258147 57.452692 
L 353.308808 57.141917 
L 354.35947 55.494807 
L 355.410132 56.675754 
L 356.460794 57.23515 
L 357.511456 55.432652 
L 358.562118 55.929893 
L 359.61278 56.893297 
L 360.663442 55.58804 
L 361.714104 54.780024 
L 362.764766 56.893297 
L 363.815428 55.432652 
L 364.86609 55.898815 
L 365.916752 55.090799 
L 366.967414 56.831142 
L 369.068738 56.551444 
L 370.1194 57.887778 
L 371.170062 56.054203 
L 372.220724 54.562481 
L 373.271386 55.21511 
L 374.322048 54.376016 
L 375.37271 56.800064 
L 376.423372 55.370497 
L 377.474034 54.935412 
L 378.524695 53.785543 
L 379.575357 53.568 
L 380.626019 55.805583 
L 381.676681 55.121877 
L 382.727343 53.599078 
L 383.778005 56.706832 
L 384.828667 54.593559 
L 385.879329 56.147436 
L 386.929991 54.344938 
L 387.980653 55.58804 
L 389.031315 53.94093 
L 390.081977 56.737909 
L 391.132639 54.966489 
L 392.183301 54.748947 
L 393.233963 55.277265 
L 394.284625 54.935412 
L 395.335287 55.246187 
L 396.385949 53.661233 
L 397.436611 54.407094 
L 398.487273 53.630155 
L 398.487273 53.630155 
" clip-path="url(#p571aad77b1)" style="fill: none; stroke: #ff7f0e; stroke-width: 1.5; stroke-linecap: square"/>
   </g>
   <g id="patch_3">
    <path d="M 57.6 307.584 
L 57.6 41.472 
" style="fill: none; stroke: #000000; stroke-width: 0.8; stroke-linejoin: miter; stroke-linecap: square"/>
   </g>
   <g id="patch_4">
    <path d="M 414.72 307.584 
L 414.72 41.472 
" style="fill: none; stroke: #000000; stroke-width: 0.8; stroke-linejoin: miter; stroke-linecap: square"/>
   </g>
   <g id="patch_5">
    <path d="M 57.6 307.584 
L 414.72 307.584 
" style="fill: none; stroke: #000000; stroke-width: 0.8; stroke-linejoin: miter; stroke-linecap: square"/>
   </g>
   <g id="patch_6">
    <path d="M 57.6 41.472 
L 414.72 41.472 
" style="fill: none; stroke: #000000; stroke-width: 0.8; stroke-linejoin: miter; stroke-linecap: square"/>
   </g>
   <g id="text_21">
    <!-- Training and Validation Accuracy -->
    <g transform="translate(138.4575 35.472) scale(0.12 -0.12)">
     <defs>
      <path id="DejaVuSans-54" d="M -19 4666 
L 3928 4666 
L 3928 4134 
L 2272 4134 
L 2272 0 
L 1638 0 
L 1638 4134 
L -19 4134 
L -19 4666 
z
" transform="scale(0.015625)"/>
      <path id="DejaVuSans-69" d="M 603 3500 
L 1178 3500 
L 1178 0 
L 603 0 
L 603 3500 
z
M 603 4863 
L 1178 4863 
L 1178 4134 
L 603 4134 
L 603 4863 
z
" transform="scale(0.015625)"/>
      <path id="DejaVuSans-6e" d="M 3513 2113 
L 3513 0 
L 2938 0 
L 2938 2094 
Q 2938 2591 2744 2837 
Q 2550 3084 2163 3084 
Q 1697 3084 1428 2787 
Q 1159 2491 1159 1978 
L 1159 0 
L 581 0 
L 581 3500 
L 1159 3500 
L 1159 2956 
Q 1366 3272 1645 3428 
Q 1925 3584 2291 3584 
Q 2894 3584 3203 3211 
Q 3513 2838 3513 2113 
z
" transform="scale(0.015625)"/>
      <path id="DejaVuSans-67" d="M 2906 1791 
Q 2906 2416 2648 2759 
Q 2391 3103 1925 3103 
Q 1463 3103 1205 2759 
Q 947 2416 947 1791 
Q 947 1169 1205 825 
Q 1463 481 1925 481 
Q 2391 481 2648 825 
Q 2906 1169 2906 1791 
z
M 3481 434 
Q 3481 -459 3084 -895 
Q 2688 -1331 1869 -1331 
Q 1566 -1331 1297 -1286 
Q 1028 -1241 775 -1147 
L 775 -588 
Q 1028 -725 1275 -790 
Q 1522 -856 1778 -856 
Q 2344 -856 2625 -561 
Q 2906 -266 2906 331 
L 2906 616 
Q 2728 306 2450 153 
Q 2172 0 1784 0 
Q 1141 0 747 490 
Q 353 981 353 1791 
Q 353 2603 747 3093 
Q 1141 3584 1784 3584 
Q 2172 3584 2450 3431 
Q 2728 3278 2906 2969 
L 2906 3500 
L 3481 3500 
L 3481 434 
z
" transform="scale(0.015625)"/>
      <path id="DejaVuSans-20" transform="scale(0.015625)"/>
      <path id="DejaVuSans-64" d="M 2906 2969 
L 2906 4863 
L 3481 4863 
L 3481 0 
L 2906 0 
L 2906 525 
Q 2725 213 2448 61 
Q 2172 -91 1784 -91 
Q 1150 -91 751 415 
Q 353 922 353 1747 
Q 353 2572 751 3078 
Q 1150 3584 1784 3584 
Q 2172 3584 2448 3432 
Q 2725 3281 2906 2969 
z
M 947 1747 
Q 947 1113 1208 752 
Q 1469 391 1925 391 
Q 2381 391 2643 752 
Q 2906 1113 2906 1747 
Q 2906 2381 2643 2742 
Q 2381 3103 1925 3103 
Q 1469 3103 1208 2742 
Q 947 2381 947 1747 
z
" transform="scale(0.015625)"/>
      <path id="DejaVuSans-56" d="M 1831 0 
L 50 4666 
L 709 4666 
L 2188 738 
L 3669 4666 
L 4325 4666 
L 2547 0 
L 1831 0 
z
" transform="scale(0.015625)"/>
      <path id="DejaVuSans-6c" d="M 603 4863 
L 1178 4863 
L 1178 0 
L 603 0 
L 603 4863 
z
" transform="scale(0.015625)"/>
      <path id="DejaVuSans-74" d="M 1172 4494 
L 1172 3500 
L 2356 3500 
L 2356 3053 
L 1172 3053 
L 1172 1153 
Q 1172 725 1289 603 
Q 1406 481 1766 481 
L 2356 481 
L 2356 0 
L 1766 0 
Q 1100 0 847 248 
Q 594 497 594 1153 
L 594 3053 
L 172 3053 
L 172 3500 
L 594 3500 
L 594 4494 
L 1172 4494 
z
" transform="scale(0.015625)"/>
     </defs>
     <use xlink:href="#DejaVuSans-54"/>
     <use xlink:href="#DejaVuSans-72" x="46.333984"/>
     <use xlink:href="#DejaVuSans-61" x="87.447266"/>
     <use xlink:href="#DejaVuSans-69" x="148.726562"/>
     <use xlink:href="#DejaVuSans-6e" x="176.509766"/>
     <use xlink:href="#DejaVuSans-69" x="239.888672"/>
     <use xlink:href="#DejaVuSans-6e" x="267.671875"/>
     <use xlink:href="#DejaVuSans-67" x="331.050781"/>
     <use xlink:href="#DejaVuSans-20" x="394.527344"/>
     <use xlink:href="#DejaVuSans-61" x="426.314453"/>
     <use xlink:href="#DejaVuSans-6e" x="487.59375"/>
     <use xlink:href="#DejaVuSans-64" x="550.972656"/>
     <use xlink:href="#DejaVuSans-20" x="614.449219"/>
     <use xlink:href="#DejaVuSans-56" x="646.236328"/>
     <use xlink:href="#DejaVuSans-61" x="706.894531"/>
     <use xlink:href="#DejaVuSans-6c" x="768.173828"/>
     <use xlink:href="#DejaVuSans-69" x="795.957031"/>
     <use xlink:href="#DejaVuSans-64" x="823.740234"/>
     <use xlink:href="#DejaVuSans-61" x="887.216797"/>
     <use xlink:href="#DejaVuSans-74" x="948.496094"/>
     <use xlink:href="#DejaVuSans-69" x="987.705078"/>
     <use xlink:href="#DejaVuSans-6f" x="1015.488281"/>
     <use xlink:href="#DejaVuSans-6e" x="1076.669922"/>
     <use xlink:href="#DejaVuSans-20" x="1140.048828"/>
     <use xlink:href="#DejaVuSans-41" x="1171.835938"/>
     <use xlink:href="#DejaVuSans-63" x="1238.494141"/>
     <use xlink:href="#DejaVuSans-63" x="1293.474609"/>
     <use xlink:href="#DejaVuSans-75" x="1348.455078"/>
     <use xlink:href="#DejaVuSans-72" x="1411.833984"/>
     <use xlink:href="#DejaVuSans-61" x="1452.947266"/>
     <use xlink:href="#DejaVuSans-63" x="1514.226562"/>
     <use xlink:href="#DejaVuSans-79" x="1569.207031"/>
    </g>
   </g>
   <g id="legend_1">
    <g id="patch_7">
     <path d="M 277.504375 302.584 
L 407.72 302.584 
Q 409.72 302.584 409.72 300.584 
L 409.72 272.22775 
Q 409.72 270.22775 407.72 270.22775 
L 277.504375 270.22775 
Q 275.504375 270.22775 275.504375 272.22775 
L 275.504375 300.584 
Q 275.504375 302.584 277.504375 302.584 
z
" style="fill: #ffffff; opacity: 0.8; stroke: #cccccc; stroke-linejoin: miter"/>
    </g>
    <g id="line2d_21">
     <path d="M 279.504375 278.326187 
L 289.504375 278.326187 
L 299.504375 278.326187 
" style="fill: none; stroke: #1f77b4; stroke-width: 1.5; stroke-linecap: square"/>
    </g>
    <g id="text_22">
     <!-- Train Accuracy -->
     <g transform="translate(307.504375 281.826187) scale(0.1 -0.1)">
      <use xlink:href="#DejaVuSans-54"/>
      <use xlink:href="#DejaVuSans-72" x="46.333984"/>
      <use xlink:href="#DejaVuSans-61" x="87.447266"/>
      <use xlink:href="#DejaVuSans-69" x="148.726562"/>
      <use xlink:href="#DejaVuSans-6e" x="176.509766"/>
      <use xlink:href="#DejaVuSans-20" x="239.888672"/>
      <use xlink:href="#DejaVuSans-41" x="271.675781"/>
      <use xlink:href="#DejaVuSans-63" x="338.333984"/>
      <use xlink:href="#DejaVuSans-63" x="393.314453"/>
      <use xlink:href="#DejaVuSans-75" x="448.294922"/>
      <use xlink:href="#DejaVuSans-72" x="511.673828"/>
      <use xlink:href="#DejaVuSans-61" x="552.787109"/>
      <use xlink:href="#DejaVuSans-63" x="614.066406"/>
      <use xlink:href="#DejaVuSans-79" x="669.046875"/>
     </g>
    </g>
    <g id="line2d_22">
     <path d="M 279.504375 293.004312 
L 289.504375 293.004312 
L 299.504375 293.004312 
" style="fill: none; stroke: #ff7f0e; stroke-width: 1.5; stroke-linecap: square"/>
    </g>
    <g id="text_23">
     <!-- Validation Accuracy -->
     <g transform="translate(307.504375 296.504312) scale(0.1 -0.1)">
      <use xlink:href="#DejaVuSans-56"/>
      <use xlink:href="#DejaVuSans-61" x="60.658203"/>
      <use xlink:href="#DejaVuSans-6c" x="121.9375"/>
      <use xlink:href="#DejaVuSans-69" x="149.720703"/>
      <use xlink:href="#DejaVuSans-64" x="177.503906"/>
      <use xlink:href="#DejaVuSans-61" x="240.980469"/>
      <use xlink:href="#DejaVuSans-74" x="302.259766"/>
      <use xlink:href="#DejaVuSans-69" x="341.46875"/>
      <use xlink:href="#DejaVuSans-6f" x="369.251953"/>
      <use xlink:href="#DejaVuSans-6e" x="430.433594"/>
      <use xlink:href="#DejaVuSans-20" x="493.8125"/>
      <use xlink:href="#DejaVuSans-41" x="525.599609"/>
      <use xlink:href="#DejaVuSans-63" x="592.257812"/>
      <use xlink:href="#DejaVuSans-63" x="647.238281"/>
      <use xlink:href="#DejaVuSans-75" x="702.21875"/>
      <use xlink:href="#DejaVuSans-72" x="765.597656"/>
      <use xlink:href="#DejaVuSans-61" x="806.710938"/>
      <use xlink:href="#DejaVuSans-63" x="867.990234"/>
      <use xlink:href="#DejaVuSans-79" x="922.970703"/>
     </g>
    </g>
   </g>
  </g>
 </g>
 <defs>
  <clipPath id="p571aad77b1">
   <rect x="57.6" y="41.472" width="357.12" height="266.112"/>
  </clipPath>
 </defs>
</svg>
