<?xml version="1.0" encoding="utf-8" standalone="no"?>
<!DOCTYPE svg PUBLIC "-//W3C//DTD SVG 1.1//EN"
  "http://www.w3.org/Graphics/SVG/1.1/DTD/svg11.dtd">
<svg height="345.6pt" version="1.1" viewBox="0 0 460.8 345.6" width="460.8pt" xmlns="http://www.w3.org/2000/svg" xmlns:xlink="http://www.w3.org/1999/xlink">
 <metadata>
  <rdf:RDF xmlns:cc="http://creativecommons.org/ns#" xmlns:dc="http://purl.org/dc/elements/1.1/" xmlns:rdf="http://www.w3.org/1999/02/22-rdf-syntax-ns#">
   <cc:Work>
    <dc:type rdf:resource="http://purl.org/dc/dcmitype/StillImage"/>
    <dc:date>2024-01-28T00:20:36.291183</dc:date>
    <dc:format>image/svg+xml</dc:format>
    <dc:creator>
     <cc:Agent>
      <dc:title>Matplotlib v3.4.3, https://matplotlib.org/</dc:title>
     </cc:Agent>
    </dc:creator>
   </cc:Work>
  </rdf:RDF>
 </metadata>
 <defs>
  <style type="text/css">*{stroke-linecap:butt;stroke-linejoin:round;}</style>
 </defs>
 <g id="figure_1">
  <g id="patch_1">
   <path d="M 0 345.6 
L 460.8 345.6 
L 460.8 0 
L 0 0 
z
" style="fill:#ffffff;"/>
  </g>
  <g id="axes_1">
   <g id="patch_2">
    <path d="M 57.6 307.584 
L 414.72 307.584 
L 414.72 41.472 
L 57.6 41.472 
z
" style="fill:#ffffff;"/>
   </g>
   <g id="matplotlib.axis_1">
    <g id="xtick_1">
     <g id="line2d_1">
      <defs>
       <path d="M 0 0 
L 0 3.5 
" id="ma1f904a211" style="stroke:#000000;stroke-width:0.8;"/>
      </defs>
      <g>
       <use style="stroke:#000000;stroke-width:0.8;" x="73.832727" xlink:href="#ma1f904a211" y="307.584"/>
      </g>
     </g>
     <g id="text_1">
      <!-- 1 -->
      <g transform="translate(70.651477 322.182437)scale(0.1 -0.1)">
       <defs>
        <path d="M 794 531 
L 1825 531 
L 1825 4091 
L 703 3866 
L 703 4441 
L 1819 4666 
L 2450 4666 
L 2450 531 
L 3481 531 
L 3481 0 
L 794 0 
L 794 531 
z
" id="DejaVuSans-31" transform="scale(0.015625)"/>
       </defs>
       <use xlink:href="#DejaVuSans-31"/>
      </g>
     </g>
    </g>
    <g id="xtick_2">
     <g id="line2d_2">
      <g>
       <use style="stroke:#000000;stroke-width:0.8;" x="109.710992" xlink:href="#ma1f904a211" y="307.584"/>
      </g>
     </g>
     <g id="text_2">
      <!-- 42 -->
      <g transform="translate(103.348492 322.182437)scale(0.1 -0.1)">
       <defs>
        <path d="M 2419 4116 
L 825 1625 
L 2419 1625 
L 2419 4116 
z
M 2253 4666 
L 3047 4666 
L 3047 1625 
L 3713 1625 
L 3713 1100 
L 3047 1100 
L 3047 0 
L 2419 0 
L 2419 1100 
L 313 1100 
L 313 1709 
L 2253 4666 
z
" id="DejaVuSans-34" transform="scale(0.015625)"/>
        <path d="M 1228 531 
L 3431 531 
L 3431 0 
L 469 0 
L 469 531 
Q 828 903 1448 1529 
Q 2069 2156 2228 2338 
Q 2531 2678 2651 2914 
Q 2772 3150 2772 3378 
Q 2772 3750 2511 3984 
Q 2250 4219 1831 4219 
Q 1534 4219 1204 4116 
Q 875 4013 500 3803 
L 500 4441 
Q 881 4594 1212 4672 
Q 1544 4750 1819 4750 
Q 2544 4750 2975 4387 
Q 3406 4025 3406 3419 
Q 3406 3131 3298 2873 
Q 3191 2616 2906 2266 
Q 2828 2175 2409 1742 
Q 1991 1309 1228 531 
z
" id="DejaVuSans-32" transform="scale(0.015625)"/>
       </defs>
       <use xlink:href="#DejaVuSans-34"/>
       <use x="63.623047" xlink:href="#DejaVuSans-32"/>
      </g>
     </g>
    </g>
    <g id="xtick_3">
     <g id="line2d_3">
      <g>
       <use style="stroke:#000000;stroke-width:0.8;" x="145.589258" xlink:href="#ma1f904a211" y="307.584"/>
      </g>
     </g>
     <g id="text_3">
      <!-- 83 -->
      <g transform="translate(139.226758 322.182437)scale(0.1 -0.1)">
       <defs>
        <path d="M 2034 2216 
Q 1584 2216 1326 1975 
Q 1069 1734 1069 1313 
Q 1069 891 1326 650 
Q 1584 409 2034 409 
Q 2484 409 2743 651 
Q 3003 894 3003 1313 
Q 3003 1734 2745 1975 
Q 2488 2216 2034 2216 
z
M 1403 2484 
Q 997 2584 770 2862 
Q 544 3141 544 3541 
Q 544 4100 942 4425 
Q 1341 4750 2034 4750 
Q 2731 4750 3128 4425 
Q 3525 4100 3525 3541 
Q 3525 3141 3298 2862 
Q 3072 2584 2669 2484 
Q 3125 2378 3379 2068 
Q 3634 1759 3634 1313 
Q 3634 634 3220 271 
Q 2806 -91 2034 -91 
Q 1263 -91 848 271 
Q 434 634 434 1313 
Q 434 1759 690 2068 
Q 947 2378 1403 2484 
z
M 1172 3481 
Q 1172 3119 1398 2916 
Q 1625 2713 2034 2713 
Q 2441 2713 2670 2916 
Q 2900 3119 2900 3481 
Q 2900 3844 2670 4047 
Q 2441 4250 2034 4250 
Q 1625 4250 1398 4047 
Q 1172 3844 1172 3481 
z
" id="DejaVuSans-38" transform="scale(0.015625)"/>
        <path d="M 2597 2516 
Q 3050 2419 3304 2112 
Q 3559 1806 3559 1356 
Q 3559 666 3084 287 
Q 2609 -91 1734 -91 
Q 1441 -91 1130 -33 
Q 819 25 488 141 
L 488 750 
Q 750 597 1062 519 
Q 1375 441 1716 441 
Q 2309 441 2620 675 
Q 2931 909 2931 1356 
Q 2931 1769 2642 2001 
Q 2353 2234 1838 2234 
L 1294 2234 
L 1294 2753 
L 1863 2753 
Q 2328 2753 2575 2939 
Q 2822 3125 2822 3475 
Q 2822 3834 2567 4026 
Q 2313 4219 1838 4219 
Q 1578 4219 1281 4162 
Q 984 4106 628 3988 
L 628 4550 
Q 988 4650 1302 4700 
Q 1616 4750 1894 4750 
Q 2613 4750 3031 4423 
Q 3450 4097 3450 3541 
Q 3450 3153 3228 2886 
Q 3006 2619 2597 2516 
z
" id="DejaVuSans-33" transform="scale(0.015625)"/>
       </defs>
       <use xlink:href="#DejaVuSans-38"/>
       <use x="63.623047" xlink:href="#DejaVuSans-33"/>
      </g>
     </g>
    </g>
    <g id="xtick_4">
     <g id="line2d_4">
      <g>
       <use style="stroke:#000000;stroke-width:0.8;" x="181.467523" xlink:href="#ma1f904a211" y="307.584"/>
      </g>
     </g>
     <g id="text_4">
      <!-- 124 -->
      <g transform="translate(171.923773 322.182437)scale(0.1 -0.1)">
       <use xlink:href="#DejaVuSans-31"/>
       <use x="63.623047" xlink:href="#DejaVuSans-32"/>
       <use x="127.246094" xlink:href="#DejaVuSans-34"/>
      </g>
     </g>
    </g>
    <g id="xtick_5">
     <g id="line2d_5">
      <g>
       <use style="stroke:#000000;stroke-width:0.8;" x="217.345788" xlink:href="#ma1f904a211" y="307.584"/>
      </g>
     </g>
     <g id="text_5">
      <!-- 165 -->
      <g transform="translate(207.802038 322.182437)scale(0.1 -0.1)">
       <defs>
        <path d="M 2113 2584 
Q 1688 2584 1439 2293 
Q 1191 2003 1191 1497 
Q 1191 994 1439 701 
Q 1688 409 2113 409 
Q 2538 409 2786 701 
Q 3034 994 3034 1497 
Q 3034 2003 2786 2293 
Q 2538 2584 2113 2584 
z
M 3366 4563 
L 3366 3988 
Q 3128 4100 2886 4159 
Q 2644 4219 2406 4219 
Q 1781 4219 1451 3797 
Q 1122 3375 1075 2522 
Q 1259 2794 1537 2939 
Q 1816 3084 2150 3084 
Q 2853 3084 3261 2657 
Q 3669 2231 3669 1497 
Q 3669 778 3244 343 
Q 2819 -91 2113 -91 
Q 1303 -91 875 529 
Q 447 1150 447 2328 
Q 447 3434 972 4092 
Q 1497 4750 2381 4750 
Q 2619 4750 2861 4703 
Q 3103 4656 3366 4563 
z
" id="DejaVuSans-36" transform="scale(0.015625)"/>
        <path d="M 691 4666 
L 3169 4666 
L 3169 4134 
L 1269 4134 
L 1269 2991 
Q 1406 3038 1543 3061 
Q 1681 3084 1819 3084 
Q 2600 3084 3056 2656 
Q 3513 2228 3513 1497 
Q 3513 744 3044 326 
Q 2575 -91 1722 -91 
Q 1428 -91 1123 -41 
Q 819 9 494 109 
L 494 744 
Q 775 591 1075 516 
Q 1375 441 1709 441 
Q 2250 441 2565 725 
Q 2881 1009 2881 1497 
Q 2881 1984 2565 2268 
Q 2250 2553 1709 2553 
Q 1456 2553 1204 2497 
Q 953 2441 691 2322 
L 691 4666 
z
" id="DejaVuSans-35" transform="scale(0.015625)"/>
       </defs>
       <use xlink:href="#DejaVuSans-31"/>
       <use x="63.623047" xlink:href="#DejaVuSans-36"/>
       <use x="127.246094" xlink:href="#DejaVuSans-35"/>
      </g>
     </g>
    </g>
    <g id="xtick_6">
     <g id="line2d_6">
      <g>
       <use style="stroke:#000000;stroke-width:0.8;" x="254.099133" xlink:href="#ma1f904a211" y="307.584"/>
      </g>
     </g>
     <g id="text_6">
      <!-- 207 -->
      <g transform="translate(244.555383 322.182437)scale(0.1 -0.1)">
       <defs>
        <path d="M 2034 4250 
Q 1547 4250 1301 3770 
Q 1056 3291 1056 2328 
Q 1056 1369 1301 889 
Q 1547 409 2034 409 
Q 2525 409 2770 889 
Q 3016 1369 3016 2328 
Q 3016 3291 2770 3770 
Q 2525 4250 2034 4250 
z
M 2034 4750 
Q 2819 4750 3233 4129 
Q 3647 3509 3647 2328 
Q 3647 1150 3233 529 
Q 2819 -91 2034 -91 
Q 1250 -91 836 529 
Q 422 1150 422 2328 
Q 422 3509 836 4129 
Q 1250 4750 2034 4750 
z
" id="DejaVuSans-30" transform="scale(0.015625)"/>
        <path d="M 525 4666 
L 3525 4666 
L 3525 4397 
L 1831 0 
L 1172 0 
L 2766 4134 
L 525 4134 
L 525 4666 
z
" id="DejaVuSans-37" transform="scale(0.015625)"/>
       </defs>
       <use xlink:href="#DejaVuSans-32"/>
       <use x="63.623047" xlink:href="#DejaVuSans-30"/>
       <use x="127.246094" xlink:href="#DejaVuSans-37"/>
      </g>
     </g>
    </g>
    <g id="xtick_7">
     <g id="line2d_7">
      <g>
       <use style="stroke:#000000;stroke-width:0.8;" x="289.977398" xlink:href="#ma1f904a211" y="307.584"/>
      </g>
     </g>
     <g id="text_7">
      <!-- 248 -->
      <g transform="translate(280.433648 322.182437)scale(0.1 -0.1)">
       <use xlink:href="#DejaVuSans-32"/>
       <use x="63.623047" xlink:href="#DejaVuSans-34"/>
       <use x="127.246094" xlink:href="#DejaVuSans-38"/>
      </g>
     </g>
    </g>
    <g id="xtick_8">
     <g id="line2d_8">
      <g>
       <use style="stroke:#000000;stroke-width:0.8;" x="325.855663" xlink:href="#ma1f904a211" y="307.584"/>
      </g>
     </g>
     <g id="text_8">
      <!-- 289 -->
      <g transform="translate(316.311913 322.182437)scale(0.1 -0.1)">
       <defs>
        <path d="M 703 97 
L 703 672 
Q 941 559 1184 500 
Q 1428 441 1663 441 
Q 2288 441 2617 861 
Q 2947 1281 2994 2138 
Q 2813 1869 2534 1725 
Q 2256 1581 1919 1581 
Q 1219 1581 811 2004 
Q 403 2428 403 3163 
Q 403 3881 828 4315 
Q 1253 4750 1959 4750 
Q 2769 4750 3195 4129 
Q 3622 3509 3622 2328 
Q 3622 1225 3098 567 
Q 2575 -91 1691 -91 
Q 1453 -91 1209 -44 
Q 966 3 703 97 
z
M 1959 2075 
Q 2384 2075 2632 2365 
Q 2881 2656 2881 3163 
Q 2881 3666 2632 3958 
Q 2384 4250 1959 4250 
Q 1534 4250 1286 3958 
Q 1038 3666 1038 3163 
Q 1038 2656 1286 2365 
Q 1534 2075 1959 2075 
z
" id="DejaVuSans-39" transform="scale(0.015625)"/>
       </defs>
       <use xlink:href="#DejaVuSans-32"/>
       <use x="63.623047" xlink:href="#DejaVuSans-38"/>
       <use x="127.246094" xlink:href="#DejaVuSans-39"/>
      </g>
     </g>
    </g>
    <g id="xtick_9">
     <g id="line2d_9">
      <g>
       <use style="stroke:#000000;stroke-width:0.8;" x="361.733928" xlink:href="#ma1f904a211" y="307.584"/>
      </g>
     </g>
     <g id="text_9">
      <!-- 330 -->
      <g transform="translate(352.190178 322.182437)scale(0.1 -0.1)">
       <use xlink:href="#DejaVuSans-33"/>
       <use x="63.623047" xlink:href="#DejaVuSans-33"/>
       <use x="127.246094" xlink:href="#DejaVuSans-30"/>
      </g>
     </g>
    </g>
    <g id="xtick_10">
     <g id="line2d_10">
      <g>
       <use style="stroke:#000000;stroke-width:0.8;" x="398.487273" xlink:href="#ma1f904a211" y="307.584"/>
      </g>
     </g>
     <g id="text_10">
      <!-- 372 -->
      <g transform="translate(388.943523 322.182437)scale(0.1 -0.1)">
       <use xlink:href="#DejaVuSans-33"/>
       <use x="63.623047" xlink:href="#DejaVuSans-37"/>
       <use x="127.246094" xlink:href="#DejaVuSans-32"/>
      </g>
     </g>
    </g>
    <g id="text_11">
     <!-- Epochs -->
     <g transform="translate(218.244375 335.860562)scale(0.1 -0.1)">
      <defs>
       <path d="M 628 4666 
L 3578 4666 
L 3578 4134 
L 1259 4134 
L 1259 2753 
L 3481 2753 
L 3481 2222 
L 1259 2222 
L 1259 531 
L 3634 531 
L 3634 0 
L 628 0 
L 628 4666 
z
" id="DejaVuSans-45" transform="scale(0.015625)"/>
       <path d="M 1159 525 
L 1159 -1331 
L 581 -1331 
L 581 3500 
L 1159 3500 
L 1159 2969 
Q 1341 3281 1617 3432 
Q 1894 3584 2278 3584 
Q 2916 3584 3314 3078 
Q 3713 2572 3713 1747 
Q 3713 922 3314 415 
Q 2916 -91 2278 -91 
Q 1894 -91 1617 61 
Q 1341 213 1159 525 
z
M 3116 1747 
Q 3116 2381 2855 2742 
Q 2594 3103 2138 3103 
Q 1681 3103 1420 2742 
Q 1159 2381 1159 1747 
Q 1159 1113 1420 752 
Q 1681 391 2138 391 
Q 2594 391 2855 752 
Q 3116 1113 3116 1747 
z
" id="DejaVuSans-70" transform="scale(0.015625)"/>
       <path d="M 1959 3097 
Q 1497 3097 1228 2736 
Q 959 2375 959 1747 
Q 959 1119 1226 758 
Q 1494 397 1959 397 
Q 2419 397 2687 759 
Q 2956 1122 2956 1747 
Q 2956 2369 2687 2733 
Q 2419 3097 1959 3097 
z
M 1959 3584 
Q 2709 3584 3137 3096 
Q 3566 2609 3566 1747 
Q 3566 888 3137 398 
Q 2709 -91 1959 -91 
Q 1206 -91 779 398 
Q 353 888 353 1747 
Q 353 2609 779 3096 
Q 1206 3584 1959 3584 
z
" id="DejaVuSans-6f" transform="scale(0.015625)"/>
       <path d="M 3122 3366 
L 3122 2828 
Q 2878 2963 2633 3030 
Q 2388 3097 2138 3097 
Q 1578 3097 1268 2742 
Q 959 2388 959 1747 
Q 959 1106 1268 751 
Q 1578 397 2138 397 
Q 2388 397 2633 464 
Q 2878 531 3122 666 
L 3122 134 
Q 2881 22 2623 -34 
Q 2366 -91 2075 -91 
Q 1284 -91 818 406 
Q 353 903 353 1747 
Q 353 2603 823 3093 
Q 1294 3584 2113 3584 
Q 2378 3584 2631 3529 
Q 2884 3475 3122 3366 
z
" id="DejaVuSans-63" transform="scale(0.015625)"/>
       <path d="M 3513 2113 
L 3513 0 
L 2938 0 
L 2938 2094 
Q 2938 2591 2744 2837 
Q 2550 3084 2163 3084 
Q 1697 3084 1428 2787 
Q 1159 2491 1159 1978 
L 1159 0 
L 581 0 
L 581 4863 
L 1159 4863 
L 1159 2956 
Q 1366 3272 1645 3428 
Q 1925 3584 2291 3584 
Q 2894 3584 3203 3211 
Q 3513 2838 3513 2113 
z
" id="DejaVuSans-68" transform="scale(0.015625)"/>
       <path d="M 2834 3397 
L 2834 2853 
Q 2591 2978 2328 3040 
Q 2066 3103 1784 3103 
Q 1356 3103 1142 2972 
Q 928 2841 928 2578 
Q 928 2378 1081 2264 
Q 1234 2150 1697 2047 
L 1894 2003 
Q 2506 1872 2764 1633 
Q 3022 1394 3022 966 
Q 3022 478 2636 193 
Q 2250 -91 1575 -91 
Q 1294 -91 989 -36 
Q 684 19 347 128 
L 347 722 
Q 666 556 975 473 
Q 1284 391 1588 391 
Q 1994 391 2212 530 
Q 2431 669 2431 922 
Q 2431 1156 2273 1281 
Q 2116 1406 1581 1522 
L 1381 1569 
Q 847 1681 609 1914 
Q 372 2147 372 2553 
Q 372 3047 722 3315 
Q 1072 3584 1716 3584 
Q 2034 3584 2315 3537 
Q 2597 3491 2834 3397 
z
" id="DejaVuSans-73" transform="scale(0.015625)"/>
      </defs>
      <use xlink:href="#DejaVuSans-45"/>
      <use x="63.183594" xlink:href="#DejaVuSans-70"/>
      <use x="126.660156" xlink:href="#DejaVuSans-6f"/>
      <use x="187.841797" xlink:href="#DejaVuSans-63"/>
      <use x="242.822266" xlink:href="#DejaVuSans-68"/>
      <use x="306.201172" xlink:href="#DejaVuSans-73"/>
     </g>
    </g>
   </g>
   <g id="matplotlib.axis_2">
    <g id="ytick_1">
     <g id="line2d_11">
      <defs>
       <path d="M 0 0 
L -3.5 0 
" id="mb4aed3f851" style="stroke:#000000;stroke-width:0.8;"/>
      </defs>
      <g>
       <use style="stroke:#000000;stroke-width:0.8;" x="57.6" xlink:href="#mb4aed3f851" y="278.372158"/>
      </g>
     </g>
     <g id="text_12">
      <!-- 10 -->
      <g transform="translate(37.875 282.171377)scale(0.1 -0.1)">
       <use xlink:href="#DejaVuSans-31"/>
       <use x="63.623047" xlink:href="#DejaVuSans-30"/>
      </g>
     </g>
    </g>
    <g id="ytick_2">
     <g id="line2d_12">
      <g>
       <use style="stroke:#000000;stroke-width:0.8;" x="57.6" xlink:href="#mb4aed3f851" y="247.398866"/>
      </g>
     </g>
     <g id="text_13">
      <!-- 20 -->
      <g transform="translate(37.875 251.198084)scale(0.1 -0.1)">
       <use xlink:href="#DejaVuSans-32"/>
       <use x="63.623047" xlink:href="#DejaVuSans-30"/>
      </g>
     </g>
    </g>
    <g id="ytick_3">
     <g id="line2d_13">
      <g>
       <use style="stroke:#000000;stroke-width:0.8;" x="57.6" xlink:href="#mb4aed3f851" y="216.425573"/>
      </g>
     </g>
     <g id="text_14">
      <!-- 30 -->
      <g transform="translate(37.875 220.224792)scale(0.1 -0.1)">
       <use xlink:href="#DejaVuSans-33"/>
       <use x="63.623047" xlink:href="#DejaVuSans-30"/>
      </g>
     </g>
    </g>
    <g id="ytick_4">
     <g id="line2d_14">
      <g>
       <use style="stroke:#000000;stroke-width:0.8;" x="57.6" xlink:href="#mb4aed3f851" y="185.45228"/>
      </g>
     </g>
     <g id="text_15">
      <!-- 40 -->
      <g transform="translate(37.875 189.251499)scale(0.1 -0.1)">
       <use xlink:href="#DejaVuSans-34"/>
       <use x="63.623047" xlink:href="#DejaVuSans-30"/>
      </g>
     </g>
    </g>
    <g id="ytick_5">
     <g id="line2d_15">
      <g>
       <use style="stroke:#000000;stroke-width:0.8;" x="57.6" xlink:href="#mb4aed3f851" y="154.478988"/>
      </g>
     </g>
     <g id="text_16">
      <!-- 50 -->
      <g transform="translate(37.875 158.278206)scale(0.1 -0.1)">
       <use xlink:href="#DejaVuSans-35"/>
       <use x="63.623047" xlink:href="#DejaVuSans-30"/>
      </g>
     </g>
    </g>
    <g id="ytick_6">
     <g id="line2d_16">
      <g>
       <use style="stroke:#000000;stroke-width:0.8;" x="57.6" xlink:href="#mb4aed3f851" y="123.505695"/>
      </g>
     </g>
     <g id="text_17">
      <!-- 60 -->
      <g transform="translate(37.875 127.304914)scale(0.1 -0.1)">
       <use xlink:href="#DejaVuSans-36"/>
       <use x="63.623047" xlink:href="#DejaVuSans-30"/>
      </g>
     </g>
    </g>
    <g id="ytick_7">
     <g id="line2d_17">
      <g>
       <use style="stroke:#000000;stroke-width:0.8;" x="57.6" xlink:href="#mb4aed3f851" y="92.532402"/>
      </g>
     </g>
     <g id="text_18">
      <!-- 70 -->
      <g transform="translate(37.875 96.331621)scale(0.1 -0.1)">
       <use xlink:href="#DejaVuSans-37"/>
       <use x="63.623047" xlink:href="#DejaVuSans-30"/>
      </g>
     </g>
    </g>
    <g id="ytick_8">
     <g id="line2d_18">
      <g>
       <use style="stroke:#000000;stroke-width:0.8;" x="57.6" xlink:href="#mb4aed3f851" y="61.55911"/>
      </g>
     </g>
     <g id="text_19">
      <!-- 80 -->
      <g transform="translate(37.875 65.358328)scale(0.1 -0.1)">
       <use xlink:href="#DejaVuSans-38"/>
       <use x="63.623047" xlink:href="#DejaVuSans-30"/>
      </g>
     </g>
    </g>
    <g id="text_20">
     <!-- Accuracy -->
     <g transform="translate(31.795312 197.356125)rotate(-90)scale(0.1 -0.1)">
      <defs>
       <path d="M 2188 4044 
L 1331 1722 
L 3047 1722 
L 2188 4044 
z
M 1831 4666 
L 2547 4666 
L 4325 0 
L 3669 0 
L 3244 1197 
L 1141 1197 
L 716 0 
L 50 0 
L 1831 4666 
z
" id="DejaVuSans-41" transform="scale(0.015625)"/>
       <path d="M 544 1381 
L 544 3500 
L 1119 3500 
L 1119 1403 
Q 1119 906 1312 657 
Q 1506 409 1894 409 
Q 2359 409 2629 706 
Q 2900 1003 2900 1516 
L 2900 3500 
L 3475 3500 
L 3475 0 
L 2900 0 
L 2900 538 
Q 2691 219 2414 64 
Q 2138 -91 1772 -91 
Q 1169 -91 856 284 
Q 544 659 544 1381 
z
M 1991 3584 
L 1991 3584 
z
" id="DejaVuSans-75" transform="scale(0.015625)"/>
       <path d="M 2631 2963 
Q 2534 3019 2420 3045 
Q 2306 3072 2169 3072 
Q 1681 3072 1420 2755 
Q 1159 2438 1159 1844 
L 1159 0 
L 581 0 
L 581 3500 
L 1159 3500 
L 1159 2956 
Q 1341 3275 1631 3429 
Q 1922 3584 2338 3584 
Q 2397 3584 2469 3576 
Q 2541 3569 2628 3553 
L 2631 2963 
z
" id="DejaVuSans-72" transform="scale(0.015625)"/>
       <path d="M 2194 1759 
Q 1497 1759 1228 1600 
Q 959 1441 959 1056 
Q 959 750 1161 570 
Q 1363 391 1709 391 
Q 2188 391 2477 730 
Q 2766 1069 2766 1631 
L 2766 1759 
L 2194 1759 
z
M 3341 1997 
L 3341 0 
L 2766 0 
L 2766 531 
Q 2569 213 2275 61 
Q 1981 -91 1556 -91 
Q 1019 -91 701 211 
Q 384 513 384 1019 
Q 384 1609 779 1909 
Q 1175 2209 1959 2209 
L 2766 2209 
L 2766 2266 
Q 2766 2663 2505 2880 
Q 2244 3097 1772 3097 
Q 1472 3097 1187 3025 
Q 903 2953 641 2809 
L 641 3341 
Q 956 3463 1253 3523 
Q 1550 3584 1831 3584 
Q 2591 3584 2966 3190 
Q 3341 2797 3341 1997 
z
" id="DejaVuSans-61" transform="scale(0.015625)"/>
       <path d="M 2059 -325 
Q 1816 -950 1584 -1140 
Q 1353 -1331 966 -1331 
L 506 -1331 
L 506 -850 
L 844 -850 
Q 1081 -850 1212 -737 
Q 1344 -625 1503 -206 
L 1606 56 
L 191 3500 
L 800 3500 
L 1894 763 
L 2988 3500 
L 3597 3500 
L 2059 -325 
z
" id="DejaVuSans-79" transform="scale(0.015625)"/>
      </defs>
      <use xlink:href="#DejaVuSans-41"/>
      <use x="66.658203" xlink:href="#DejaVuSans-63"/>
      <use x="121.638672" xlink:href="#DejaVuSans-63"/>
      <use x="176.619141" xlink:href="#DejaVuSans-75"/>
      <use x="239.998047" xlink:href="#DejaVuSans-72"/>
      <use x="281.111328" xlink:href="#DejaVuSans-61"/>
      <use x="342.390625" xlink:href="#DejaVuSans-63"/>
      <use x="397.371094" xlink:href="#DejaVuSans-79"/>
     </g>
    </g>
   </g>
   <g id="line2d_19">
    <path clip-path="url(#p51db7faa1d)" d="M 73.832727 295.488 
L 74.707807 287.360608 
L 75.582887 284.226111 
L 76.457966 276.179249 
L 77.333046 272.338561 
L 78.208125 265.258066 
L 79.958285 252.850165 
L 80.833364 242.381192 
L 81.708444 239.475897 
L 83.458603 232.209563 
L 84.333683 254.126265 
L 85.208763 243.929857 
L 86.083842 238.484752 
L 86.958922 235.864412 
L 87.834001 233.888315 
L 88.709081 223.121999 
L 89.584161 222.706957 
L 90.45924 220.396349 
L 91.33432 210.720293 
L 92.2094 206.445978 
L 93.084479 211.884888 
L 93.959559 206.266333 
L 94.834639 196.720364 
L 95.709718 196.423021 
L 96.584798 195.041612 
L 97.459877 181.611592 
L 99.210037 188.221293 
L 100.085116 183.085921 
L 100.960196 185.675288 
L 101.835276 174.93375 
L 102.710355 175.732861 
L 103.585435 178.662935 
L 104.460515 170.256783 
L 105.335594 201.620339 
L 106.210674 203.392011 
L 107.085753 193.412417 
L 107.960833 195.877891 
L 108.835913 194.428341 
L 109.710992 193.585867 
L 110.586072 189.732789 
L 111.461152 183.315123 
L 112.336231 182.850524 
L 113.211311 178.786828 
L 114.086391 178.526652 
L 114.96147 175.949674 
L 115.83655 170.015191 
L 116.71163 168.398385 
L 117.586709 173.39128 
L 118.461789 172.053234 
L 119.336868 158.61702 
L 120.211948 171.805448 
L 121.962107 161.138246 
L 122.837187 157.644458 
L 123.712267 163.380712 
L 124.587346 158.480737 
L 125.462426 159.986039 
L 126.337506 155.587832 
L 127.212585 146.295844 
L 128.087665 152.831208 
L 128.962744 148.327692 
L 129.837824 147.045397 
L 130.712904 148.53831 
L 131.587983 142.894976 
L 132.463063 141.377285 
L 133.338143 137.778188 
L 134.213222 142.126839 
L 135.088302 141.606487 
L 135.963382 131.707423 
L 136.838461 131.781759 
L 137.713541 138.533937 
L 138.58862 135.938375 
L 139.4637 126.404795 
L 140.33878 122.582691 
L 141.213859 127.030456 
L 142.088939 132.828656 
L 142.964019 121.795969 
L 143.839098 133.417149 
L 144.714178 129.279117 
L 145.589258 129.012746 
L 146.464337 124.149939 
L 147.339417 157.718794 
L 148.214496 158.951531 
L 149.089576 165.282472 
L 149.964656 156.554198 
L 150.839735 159.824978 
L 151.714815 160.233825 
L 152.589895 158.60463 
L 153.464974 153.8843 
L 154.340054 150.167505 
L 155.215134 149.26928 
L 156.090213 152.874571 
L 156.965293 149.969276 
L 157.840372 146.215313 
L 158.715452 154.25598 
L 159.590532 141.27817 
L 160.465611 140.398529 
L 161.340691 147.91265 
L 162.215771 139.271101 
L 163.09085 145.298504 
L 163.96593 136.588814 
L 164.84101 146.593187 
L 165.716089 134.284401 
L 166.591169 139.847204 
L 167.466248 136.92952 
L 168.341328 135.517138 
L 169.216408 134.464046 
L 170.091487 127.40833 
L 170.966567 135.795897 
L 171.841647 129.037525 
L 172.716726 129.694159 
L 173.591806 134.718027 
L 174.466886 123.580031 
L 175.341965 137.158722 
L 176.217045 129.297701 
L 177.092124 126.832227 
L 177.967204 136.644566 
L 178.842284 129.099472 
L 179.717363 116.592456 
L 180.592443 117.143781 
L 182.342602 120.179163 
L 183.217682 125.859665 
L 184.092762 109.908419 
L 184.967841 111.81018 
L 185.842921 117.496876 
L 186.718 124.075604 
L 187.59308 116.276528 
L 188.46816 102.796951 
L 189.343239 115.626089 
L 190.218319 110.627 
L 191.093399 108.18011 
L 191.968478 109.419041 
L 192.843558 112.770352 
L 193.718638 106.829674 
L 194.593717 106.135872 
L 195.468797 103.794291 
L 196.343877 99.718206 
L 197.218956 98.058038 
L 198.094036 114.219902 
L 198.969115 102.586333 
L 199.844195 105.702246 
L 200.719275 94.248323 
L 201.594354 96.447426 
L 202.469434 104.333227 
L 203.344514 110.280099 
L 204.219593 99.495198 
L 205.094673 90.550111 
L 205.969753 88.047469 
L 206.844832 98.262461 
L 207.719912 97.903171 
L 208.594991 85.451908 
L 209.470071 106.08012 
L 210.345151 96.763354 
L 212.09531 89.193481 
L 212.97039 95.412918 
L 213.845469 95.889907 
L 214.720549 88.710298 
L 215.595629 91.881963 
L 216.470708 85.012087 
L 217.345788 92.842135 
L 218.220867 85.464297 
L 219.095947 87.056324 
L 219.971027 85.241289 
L 221.721186 79.449283 
L 222.596266 89.682859 
L 223.471345 82.032456 
L 224.346425 89.682859 
L 226.096584 81.902368 
L 226.971664 86.796148 
L 227.846743 80.551933 
L 228.721823 83.903243 
L 229.596903 80.805914 
L 230.471982 78.569642 
L 231.347062 136.861379 
L 232.222142 136.136604 
L 233.097221 129.303895 
L 233.972301 120.098633 
L 234.847381 128.919826 
L 235.72246 127.922486 
L 236.59754 120.278278 
L 237.472619 135.312714 
L 238.347699 122.582691 
L 240.097858 123.536668 
L 240.972938 110.856202 
L 241.848018 113.265924 
L 242.723097 122.093313 
L 243.598177 123.375607 
L 244.473257 125.487986 
L 245.348336 117.732273 
L 246.223416 115.173879 
L 247.098495 117.800414 
L 247.973575 116.152635 
L 248.848655 114.839368 
L 249.723734 117.657937 
L 250.598814 112.200443 
L 251.473894 124.58976 
L 252.348973 117.001303 
L 253.224053 117.007498 
L 254.099133 115.310162 
L 254.974212 113.303092 
L 255.849292 106.228792 
L 256.724371 118.469438 
L 257.599451 120.495091 
L 258.474531 119.522529 
L 259.34961 104.859773 
L 260.22469 114.542024 
L 261.09977 115.186269 
L 261.974849 118.785365 
L 262.849929 116.809269 
L 263.725009 109.44382 
L 264.600088 103.701372 
L 265.475168 103.038543 
L 266.350247 115.731398 
L 267.225327 113.848222 
L 268.100407 109.375679 
L 268.975486 106.823479 
L 269.850566 113.098669 
L 270.725646 109.480988 
L 271.600725 105.00225 
L 272.475805 116.623429 
L 273.350885 110.565053 
L 274.225964 109.840278 
L 275.101044 105.349151 
L 275.976123 111.537615 
L 276.851203 99.11113 
L 277.726283 96.812911 
L 278.601362 110.911954 
L 279.476442 100.684573 
L 280.351522 106.334101 
L 281.226601 102.982791 
L 282.101681 102.796951 
L 282.976761 93.461601 
L 283.85184 100.752714 
L 284.72692 102.877482 
L 285.602 105.62791 
L 286.477079 111.122573 
L 287.352159 110.843813 
L 288.227238 107.300468 
L 289.102318 101.607577 
L 289.977398 100.269531 
L 290.852477 104.680128 
L 291.727557 101.935894 
L 292.602637 101.588993 
L 293.477716 91.429753 
L 294.352796 96.583709 
L 296.102955 104.320837 
L 296.978035 96.992556 
L 297.853114 102.233237 
L 298.728194 101.923505 
L 299.603274 102.065982 
L 300.478353 96.763354 
L 301.353433 109.716385 
L 302.228513 89.453657 
L 303.103592 89.713833 
L 303.978672 100.213779 
L 304.853752 105.553574 
L 305.728831 90.469581 
L 306.603911 98.349187 
L 307.47899 91.287276 
L 308.35407 96.001411 
L 309.22915 86.356328 
L 310.104229 91.634177 
L 310.979309 109.98895 
L 311.854389 89.84392 
L 312.729468 92.340368 
L 313.604548 91.906742 
L 314.479628 90.93418 
L 315.354707 87.737737 
L 316.229787 95.338583 
L 317.104866 87.874019 
L 317.979946 90.903207 
L 318.855026 95.982827 
L 319.730105 91.832406 
L 320.605185 88.759855 
L 321.480265 86.244824 
L 322.355344 91.962494 
L 323.230424 88.840386 
L 324.105504 88.121805 
L 324.980583 91.640371 
L 325.855663 97.599633 
L 326.730742 81.883784 
L 327.605822 80.849276 
L 328.480902 82.032456 
L 329.355981 90.413829 
L 330.231061 100.975722 
L 331.106141 88.437733 
L 331.98122 84.652797 
L 332.8563 77.739558 
L 334.606459 97.097866 
L 335.481539 83.915632 
L 336.356618 87.415614 
L 337.231698 80.68202 
L 338.106778 84.386426 
L 338.981857 75.651958 
L 339.856937 75.497091 
L 340.732017 81.338654 
L 341.607096 77.448409 
L 342.482176 80.520959 
L 343.357256 74.809484 
L 344.232335 79.60415 
L 345.107415 92.743021 
L 345.982494 79.213886 
L 346.857574 78.656367 
L 347.732654 79.721848 
L 348.607733 67.933413 
L 349.482813 83.983773 
L 350.357893 83.965189 
L 351.232972 77.60947 
L 352.108052 79.381142 
L 352.983132 75.813019 
L 353.858211 67.344921 
L 354.733291 76.228061 
L 355.60837 72.405957 
L 356.48345 69.314822 
L 357.35853 81.908563 
L 358.233609 70.950212 
L 359.108689 81.87759 
L 359.983769 69.44491 
L 360.858848 75.416561 
L 361.733928 69.643139 
L 362.609008 76.203282 
L 363.484087 66.793596 
L 364.359167 67.741379 
L 365.234247 77.312126 
L 366.109326 72.213922 
L 366.984406 74.251965 
L 367.859485 78.005928 
L 368.734565 71.71835 
L 369.609645 71.817464 
L 370.484724 75.472313 
L 371.359804 64.848473 
L 372.234884 70.745788 
L 373.109963 67.933413 
L 373.985043 71.935163 
L 374.860123 73.353739 
L 375.735202 67.208638 
L 376.610282 65.381214 
L 377.485361 69.971456 
L 378.360441 67.344921 
L 379.235521 69.97765 
L 380.1106 60.82814 
L 380.98568 69.866147 
L 381.86076 63.566179 
L 382.735839 56.10781 
L 383.610919 72.25109 
L 384.485999 71.98472 
L 385.361078 68.292703 
L 386.236158 70.714815 
L 387.111237 62.717511 
L 387.986317 66.917489 
L 388.861397 75.583816 
L 389.736476 69.190929 
L 390.611556 69.302433 
L 391.486636 67.605096 
L 392.361715 76.990004 
L 393.236795 73.390907 
L 394.111875 80.657242 
L 394.986954 69.853757 
L 395.862034 72.319231 
L 396.737113 59.744075 
L 398.487273 74.939572 
L 398.487273 74.939572 
" style="fill:none;stroke:#1f77b4;stroke-linecap:square;stroke-width:1.5;"/>
   </g>
   <g id="line2d_20">
    <path clip-path="url(#p51db7faa1d)" d="M 73.832727 280.199583 
L 74.707807 276.018188 
L 75.582887 268.027079 
L 77.333046 246.531614 
L 78.208125 239.934302 
L 79.083205 237.952011 
L 79.958285 218.160077 
L 80.833364 207.938891 
L 82.583524 194.434535 
L 83.458603 196.850452 
L 84.333683 227.885691 
L 85.208763 222.217579 
L 86.083842 211.996392 
L 86.958922 203.478737 
L 87.834001 190.346061 
L 88.709081 194.837188 
L 89.584161 177.554091 
L 90.45924 169.222275 
L 91.33432 175.107201 
L 92.2094 175.262067 
L 93.084479 184.523082 
L 94.834639 165.629373 
L 95.709718 150.45246 
L 96.584798 151.567498 
L 97.459877 150.607326 
L 98.334957 144.598507 
L 99.210037 147.231237 
L 100.085116 143.948068 
L 100.960196 128.895048 
L 101.835276 128.461422 
L 102.710355 128.709208 
L 103.585435 131.094152 
L 104.460515 127.253463 
L 105.335594 182.076191 
L 106.210674 157.88605 
L 107.085753 168.974489 
L 107.960833 170.708993 
L 108.835913 153.890495 
L 109.710992 140.602953 
L 110.586072 142.027724 
L 111.461152 139.673754 
L 112.336231 149.461314 
L 113.211311 149.554234 
L 114.086391 133.293255 
L 114.96147 132.766709 
L 115.83655 130.319819 
L 116.71163 126.076478 
L 117.586709 132.271137 
L 118.461789 121.120751 
L 119.336868 136.762264 
L 120.211948 121.988004 
L 121.087028 120.036686 
L 121.962107 133.200336 
L 122.837187 121.089778 
L 123.712267 114.027867 
L 124.587346 109.908419 
L 125.462426 123.103042 
L 126.337506 104.054467 
L 127.212585 104.240307 
L 128.087665 107.18277 
L 128.962744 98.789007 
L 129.837824 98.510248 
L 130.712904 95.567785 
L 131.587983 94.948319 
L 132.463063 93.585494 
L 133.338143 95.319999 
L 134.213222 93.430628 
L 135.088302 93.647441 
L 135.963382 85.842171 
L 136.838461 86.120931 
L 137.713541 89.775779 
L 138.58862 85.005892 
L 139.4637 85.005892 
L 140.33878 83.147495 
L 141.213859 82.218296 
L 142.088939 82.404136 
L 142.964019 83.364308 
L 143.839098 81.722723 
L 144.714178 82.528029 
L 146.464337 81.258124 
L 147.339417 135.925985 
L 148.214496 130.660526 
L 149.089576 128.430448 
L 149.964656 119.231381 
L 150.839735 118.797754 
L 151.714815 111.735844 
L 152.589895 115.483612 
L 153.464974 107.554449 
L 154.340054 116.257944 
L 155.215134 110.589832 
L 156.090213 99.253607 
L 156.965293 108.762408 
L 157.840372 112.045577 
L 158.715452 113.656188 
L 159.590532 107.647369 
L 160.465611 111.302218 
L 161.340691 101.855363 
L 162.215771 101.91731 
L 163.09085 110.992485 
L 163.96593 96.55893 
L 164.84101 94.824426 
L 165.716089 100.213779 
L 166.591169 101.142978 
L 167.466248 100.709351 
L 168.341328 95.474865 
L 169.216408 103.713761 
L 170.091487 101.700497 
L 171.841647 92.501429 
L 172.716726 90.797898 
L 173.591806 89.589939 
L 174.466886 91.417364 
L 175.341965 84.262533 
L 176.217045 96.74477 
L 177.092124 90.704978 
L 177.967204 86.337744 
L 178.842284 91.85099 
L 179.717363 85.594385 
L 180.592443 90.240379 
L 181.467523 85.160759 
L 182.342602 82.713868 
L 183.217682 89.466046 
L 184.092762 84.076693 
L 184.967841 83.519174 
L 185.842921 80.762551 
L 186.718 79.802379 
L 187.59308 82.125376 
L 188.46816 81.196177 
L 189.343239 78.284688 
L 190.218319 78.904153 
L 191.093399 76.550183 
L 191.968478 75.311251 
L 193.718638 75.868771 
L 194.593717 77.510355 
L 195.468797 76.581156 
L 196.343877 76.023637 
L 197.218956 73.79356 
L 198.969115 72.957281 
L 199.844195 71.129857 
L 200.719275 70.541364 
L 201.594354 71.222777 
L 202.469434 72.182949 
L 203.344514 71.71835 
L 204.219593 70.479418 
L 205.094673 68.590047 
L 205.969753 68.373234 
L 206.844832 69.302433 
L 207.719912 66.576783 
L 208.594991 68.497127 
L 210.345151 67.505982 
L 211.22023 67.536955 
L 212.09531 67.320142 
L 212.97039 65.399798 
L 213.845469 66.390943 
L 214.720549 66.328997 
L 215.595629 64.749359 
L 216.470708 65.244931 
L 217.345788 64.222813 
L 218.220867 65.585638 
L 219.095947 64.873252 
L 219.971027 66.236077 
L 220.846106 64.09892 
L 221.721186 64.532546 
L 222.596266 63.82016 
L 223.471345 64.09892 
L 224.346425 62.798041 
L 226.096584 63.696267 
L 226.971664 62.674148 
L 227.846743 63.789187 
L 228.721823 64.09892 
L 229.596903 62.302469 
L 230.471982 63.231667 
L 231.347062 99.00582 
L 232.222142 98.107595 
L 233.097221 92.222669 
L 233.972301 95.970438 
L 234.847381 95.443892 
L 235.72246 90.209405 
L 236.59754 90.271352 
L 237.472619 87.731542 
L 238.347699 85.563411 
L 239.222779 87.235969 
L 240.097858 90.054539 
L 240.972938 90.116485 
L 241.848018 94.266907 
L 242.723097 89.651886 
L 243.598177 89.21826 
L 244.473257 83.76696 
L 245.348336 85.532438 
L 246.223416 95.443892 
L 247.098495 84.881999 
L 247.973575 87.886408 
L 248.848655 85.005892 
L 249.723734 86.988183 
L 250.598814 84.355453 
L 251.473894 87.421809 
L 252.348973 83.828907 
L 253.224053 78.284688 
L 254.099133 86.616503 
L 254.974212 78.532474 
L 255.849292 76.550183 
L 256.724371 80.979364 
L 257.599451 82.620949 
L 258.474531 77.603275 
L 259.34961 79.988219 
L 260.22469 78.842207 
L 261.09977 81.382017 
L 261.974849 81.629803 
L 262.849929 81.536883 
L 263.725009 82.806788 
L 264.600088 83.674041 
L 265.475168 77.572302 
L 266.350247 84.510319 
L 267.225327 79.926272 
L 268.100407 79.461673 
L 268.975486 82.435109 
L 269.850566 81.443963 
L 270.725646 81.258124 
L 271.600725 77.851061 
L 272.475805 76.983809 
L 274.225964 80.669631 
L 275.101044 76.302397 
L 275.976123 78.129821 
L 276.851203 81.815643 
L 278.601362 76.364343 
L 279.476442 77.107702 
L 280.351522 77.324516 
L 281.226601 74.567892 
L 282.101681 81.443963 
L 282.976761 79.895299 
L 283.85184 78.005928 
L 284.72692 78.68734 
L 286.477079 73.79356 
L 287.352159 76.209477 
L 288.227238 73.328961 
L 289.102318 75.620984 
L 289.977398 75.992664 
L 290.852477 74.382053 
L 291.727557 73.050201 
L 292.602637 76.271424 
L 293.477716 73.948427 
L 294.352796 75.094438 
L 295.227876 75.280278 
L 296.102955 71.16083 
L 296.978035 73.081174 
L 297.853114 72.709495 
L 298.728194 74.07232 
L 299.603274 70.200658 
L 300.478353 73.390907 
L 301.353433 72.585602 
L 302.228513 69.302433 
L 303.103592 73.483827 
L 303.978672 71.315697 
L 304.853752 72.090029 
L 306.603911 69.767032 
L 307.47899 72.864361 
L 308.35407 72.121002 
L 309.22915 74.041346 
L 310.104229 70.882071 
L 310.979309 68.43518 
L 311.854389 69.767032 
L 312.729468 71.842243 
L 314.479628 67.722795 
L 315.354707 70.603311 
L 316.229787 68.373234 
L 317.104866 65.616611 
L 318.855026 66.607756 
L 319.730105 69.054646 
L 320.605185 67.010409 
L 321.480265 67.939608 
L 322.355344 66.35997 
L 323.230424 68.43518 
L 324.105504 65.771477 
L 324.980583 64.842279 
L 325.855663 67.134302 
L 326.730742 65.926344 
L 327.605822 65.337851 
L 328.480902 64.09892 
L 329.355981 64.439626 
L 330.231061 64.129893 
L 331.106141 65.368825 
L 331.98122 63.572374 
L 332.8563 65.275905 
L 333.73138 62.921934 
L 334.606459 63.045828 
L 335.481539 64.067946 
L 336.356618 63.293614 
L 337.231698 62.333442 
L 338.106778 61.961762 
L 338.981857 60.382124 
L 339.856937 62.767068 
L 340.732017 61.837869 
L 341.607096 61.55911 
L 342.482176 61.528136 
L 343.357256 60.134338 
L 344.232335 61.032564 
L 345.107415 60.010445 
L 345.982494 60.010445 
L 346.857574 60.475044 
L 347.732654 59.700712 
L 348.607733 59.669739 
L 349.482813 61.09451 
L 351.232972 58.895406 
L 352.108052 60.227258 
L 352.983132 58.864433 
L 353.858211 59.081246 
L 354.733291 59.0193 
L 355.60837 58.306914 
L 356.48345 58.399834 
L 357.35853 57.532581 
L 358.233609 58.771513 
L 359.108689 57.997181 
L 359.983769 57.067982 
L 360.858848 57.191875 
L 362.609008 56.510463 
L 363.484087 57.563555 
L 364.359167 56.10781 
L 365.234247 57.284795 
L 366.109326 56.417543 
L 366.984406 56.47949 
L 368.734565 56.138783 
L 369.609645 56.975062 
L 370.484724 55.023745 
L 371.359804 56.665329 
L 372.234884 55.581264 
L 373.985043 55.333478 
L 374.860123 55.550291 
L 375.735202 56.231703 
L 376.610282 55.488344 
L 377.485361 54.187466 
L 378.360441 54.528172 
L 379.235521 55.674184 
L 380.1106 54.342332 
L 380.98568 54.652065 
L 381.86076 54.311359 
L 382.735839 54.373306 
L 383.610919 54.744985 
L 384.485999 54.125519 
L 385.361078 54.125519 
L 386.236158 54.714012 
L 387.111237 54.528172 
L 387.986317 53.691893 
L 388.861397 55.178611 
L 389.736476 54.156493 
L 390.611556 54.806932 
L 391.486636 54.435252 
L 392.361715 54.868878 
L 393.236795 54.280386 
L 394.111875 53.970653 
L 394.986954 53.93968 
L 395.862034 53.568 
L 396.737113 55.209585 
L 397.612193 53.908706 
L 398.487273 54.032599 
L 398.487273 54.032599 
" style="fill:none;stroke:#ff7f0e;stroke-linecap:square;stroke-width:1.5;"/>
   </g>
   <g id="line2d_21">
    <path clip-path="url(#p51db7faa1d)" d="M 73.832727 283.686523 
L 74.707807 278.616684 
L 75.582887 272.519836 
L 76.457966 263.667995 
L 77.333046 256.055086 
L 78.208125 251.39279 
L 79.083205 249.452884 
L 79.958285 233.314168 
L 80.833364 221.446507 
L 81.708444 216.784211 
L 82.583524 215.300753 
L 83.458603 215.17034 
L 84.333683 236.395196 
L 85.208763 235.563808 
L 86.958922 217.876427 
L 87.834001 205.503412 
L 88.709081 206.204386 
L 89.584161 194.28782 
L 90.45924 190.440611 
L 91.33432 196.146217 
L 92.2094 198.232839 
L 93.084479 201.101944 
L 93.959559 197.368847 
L 94.834639 184.995832 
L 95.709718 176.127689 
L 96.584798 173.323791 
L 97.459877 176.616741 
L 98.334957 169.166849 
L 99.210037 171.938144 
L 100.085116 167.471469 
L 100.960196 155.848333 
L 101.835276 155.717919 
L 102.710355 157.054661 
L 103.585435 160.05418 
L 104.460515 155.864635 
L 105.335594 204.411196 
L 106.210674 183.267848 
L 107.085753 191.108982 
L 107.960833 188.973455 
L 108.835913 184.50678 
L 109.710992 165.140321 
L 110.586072 168.042029 
L 111.461152 166.607477 
L 112.336231 178.344725 
L 113.211311 177.986087 
L 114.086391 161.309414 
L 114.96147 162.923285 
L 115.83655 156.451497 
L 116.71163 152.180443 
L 117.586709 156.973153 
L 118.461789 149.621071 
L 119.336868 162.238613 
L 120.211948 149.767787 
L 121.087028 147.241018 
L 121.962107 159.141283 
L 122.837187 155.016945 
L 123.712267 140.867041 
L 124.587346 137.932729 
L 125.462426 152.636892 
L 126.337506 133.172623 
L 127.212585 129.635147 
L 128.087665 131.346829 
L 128.962744 127.287697 
L 129.837824 125.445601 
L 130.712904 127.352904 
L 131.587983 126.586722 
L 132.463063 121.728806 
L 133.338143 127.401809 
L 134.213222 125.086963 
L 135.088302 125.347791 
L 135.963382 119.576977 
L 136.838461 117.001303 
L 137.713541 119.870408 
L 138.58862 115.566751 
L 139.4637 116.169915 
L 140.33878 112.762853 
L 141.213859 110.806645 
L 142.964019 112.012973 
L 143.839098 111.409809 
L 144.714178 111.931464 
L 145.589258 110.904455 
L 146.464337 111.279395 
L 147.339417 163.493846 
L 148.214496 158.081671 
L 149.089576 163.526449 
L 149.964656 149.246131 
L 150.839735 147.404036 
L 151.714815 143.850258 
L 152.589895 144.274103 
L 153.464974 135.568977 
L 154.340054 144.290405 
L 155.215134 136.400366 
L 156.090213 129.749259 
L 156.965293 137.00353 
L 157.840372 139.155359 
L 158.715452 139.774824 
L 159.590532 136.172141 
L 160.465611 141.209377 
L 161.340691 133.531261 
L 163.09085 136.058029 
L 163.96593 126.586722 
L 164.84101 126.065067 
L 165.716089 128.428818 
L 166.591169 135.177736 
L 167.466248 131.477242 
L 168.341328 124.451195 
L 169.216408 129.618845 
L 170.091487 128.314706 
L 170.966567 130.385026 
L 171.841647 123.685014 
L 172.716726 121.647297 
L 173.591806 124.972851 
L 174.466886 122.120048 
L 175.341965 119.756296 
L 176.217045 130.107897 
L 177.967204 113.887672 
L 178.842284 123.130755 
L 179.717363 118.452158 
L 180.592443 121.989634 
L 181.467523 116.561157 
L 182.342602 113.39862 
L 183.217682 116.887191 
L 184.092762 114.034388 
L 184.967841 112.534629 
L 185.842921 111.572826 
L 186.718 114.409328 
L 187.59308 110.431705 
L 188.46816 111.996671 
L 189.343239 109.209075 
L 190.218319 109.828541 
L 191.093399 106.160651 
L 191.968478 107.921238 
L 192.843558 105.361866 
L 193.718638 105.932427 
L 194.593717 106.845324 
L 195.468797 104.758702 
L 196.343877 105.524883 
L 197.218956 98.53144 
L 198.094036 102.67208 
L 198.969115 102.851399 
L 199.844195 100.618062 
L 200.719275 101.335338 
L 201.594354 100.715872 
L 202.469434 102.965511 
L 203.344514 100.014898 
L 204.219593 99.134604 
L 205.094673 96.379611 
L 205.969753 97.162094 
L 206.844832 98.792268 
L 207.719912 94.3908 
L 208.594991 97.960879 
L 209.470071 96.379611 
L 210.345151 95.972068 
L 211.22023 96.689344 
L 212.09531 94.374498 
L 212.97039 92.874739 
L 213.845469 94.129972 
L 214.720549 95.026567 
L 215.595629 92.939946 
L 216.470708 91.733617 
L 217.345788 93.901748 
L 218.220867 94.3908 
L 219.095947 92.728023 
L 219.971027 92.646514 
L 220.846106 90.902229 
L 221.721186 91.374979 
L 222.596266 92.69542 
L 223.471345 91.94554 
L 224.346425 90.918531 
L 225.221505 91.244565 
L 226.096584 91.19566 
L 226.971664 90.869625 
L 227.846743 91.749919 
L 228.721823 91.456488 
L 229.596903 90.804419 
L 230.471982 90.902229 
L 231.347062 131.26532 
L 232.222142 130.629552 
L 233.097221 125.494506 
L 233.972301 129.961181 
L 234.847381 127.809352 
L 235.72246 119.51177 
L 236.59754 125.706429 
L 237.472619 123.114453 
L 238.347699 118.990115 
L 239.222779 123.864333 
L 240.097858 122.576496 
L 240.972938 120.375762 
L 241.848018 128.836362 
L 242.723097 123.913238 
L 243.598177 123.636109 
L 244.473257 118.435856 
L 245.348336 118.305442 
L 246.223416 128.559232 
L 247.098495 115.534147 
L 247.973575 116.528553 
L 248.848655 118.338046 
L 249.723734 126.065067 
L 250.598814 112.876965 
L 251.473894 118.517365 
L 252.348973 112.583534 
L 253.224053 109.404696 
L 254.099133 119.03902 
L 254.974212 108.866739 
L 256.724371 113.903974 
L 257.599451 112.681344 
L 258.474531 109.877446 
L 259.34961 113.855069 
L 260.22469 112.143387 
L 261.09977 113.969181 
L 261.974849 114.507138 
L 262.849929 116.430743 
L 263.725009 111.067473 
L 264.600088 116.805683 
L 265.475168 105.541185 
L 266.350247 116.12101 
L 267.225327 111.018567 
L 268.100407 112.306404 
L 268.975486 113.007379 
L 269.850566 113.871371 
L 270.725646 112.224896 
L 271.600725 109.584015 
L 272.475805 108.182066 
L 273.350885 108.263575 
L 274.225964 114.083293 
L 275.101044 109.062359 
L 275.976123 112.567232 
L 276.851203 117.001303 
L 277.726283 109.029756 
L 278.601362 107.481091 
L 279.476442 107.921238 
L 280.351522 106.845324 
L 281.226601 105.296659 
L 282.101681 113.757259 
L 282.976761 110.643628 
L 283.85184 109.274282 
L 284.72692 110.937059 
L 285.602 105.052133 
L 286.477079 105.524883 
L 287.352159 104.938021 
L 288.227238 104.64459 
L 289.102318 109.013454 
L 289.977398 106.258461 
L 290.852477 109.91005 
L 291.727557 101.286433 
L 292.602637 106.046539 
L 293.477716 102.117821 
L 294.352796 106.176953 
L 295.227876 103.89471 
L 296.102955 98.580345 
L 296.978035 102.394951 
L 297.853114 104.025124 
L 298.728194 102.688382 
L 299.603274 99.917087 
L 300.478353 104.155538 
L 301.353433 102.786192 
L 302.228513 99.069397 
L 303.103592 106.519289 
L 303.978672 99.623656 
L 304.853752 100.552855 
L 305.728831 100.748476 
L 306.603911 101.563562 
L 307.47899 103.389356 
L 308.35407 104.628288 
L 309.22915 103.503469 
L 310.104229 100.373536 
L 310.979309 98.808569 
L 311.854389 98.759664 
L 312.729468 100.585458 
L 313.604548 101.335338 
L 314.479628 94.504912 
L 315.354707 101.025605 
L 316.229787 98.938983 
L 317.104866 94.716834 
L 317.979946 96.46112 
L 318.855026 95.287395 
L 319.730105 96.83606 
L 320.605185 94.129972 
L 321.480265 98.841173 
L 322.355344 97.471827 
L 323.230424 96.754551 
L 324.105504 95.385205 
L 324.980583 95.401507 
L 325.855663 96.428516 
L 326.730742 92.776928 
L 327.605822 97.488129 
L 328.480902 95.23849 
L 329.355981 95.857956 
L 330.231061 91.978143 
L 331.106141 94.3908 
L 331.98122 94.309291 
L 332.8563 92.728023 
L 333.73138 91.391281 
L 334.606459 89.810013 
L 335.481539 92.173764 
L 336.356618 90.364272 
L 337.231698 91.864031 
L 338.106778 89.728504 
L 338.981857 88.913417 
L 339.856937 91.016341 
L 340.732017 91.586902 
L 341.607096 89.907823 
L 342.482176 91.146755 
L 343.357256 88.098331 
L 344.232335 87.919012 
L 345.107415 86.843097 
L 345.982494 88.897116 
L 346.857574 89.679599 
L 347.732654 86.451856 
L 348.607733 88.994926 
L 349.482813 89.924125 
L 350.357893 88.456969 
L 351.232972 87.658184 
L 352.983132 87.707089 
L 353.858211 86.386649 
L 354.733291 85.750881 
L 355.60837 85.35964 
L 356.48345 86.908304 
L 357.35853 83.908785 
L 358.233609 85.35964 
L 359.108689 84.463044 
L 359.983769 82.686155 
L 360.858848 84.837984 
L 361.733928 85.799786 
L 362.609008 86.174726 
L 363.484087 84.267424 
L 364.359167 82.63725 
L 365.234247 83.321923 
L 366.109326 84.577157 
L 366.984406 84.821683 
L 367.859485 82.767664 
L 368.734565 82.490535 
L 369.609645 83.175207 
L 370.484724 82.017784 
L 371.359804 83.273018 
L 372.234884 83.419733 
L 373.109963 82.115595 
L 375.735202 83.403432 
L 376.610282 82.751362 
L 377.485361 81.137491 
L 378.360441 81.219 
L 379.235521 81.69175 
L 380.1106 81.430922 
L 380.98568 81.69175 
L 381.86076 81.284206 
L 382.735839 81.186396 
L 383.610919 82.099293 
L 384.485999 81.528732 
L 385.361078 82.050388 
L 386.236158 81.104887 
L 387.111237 82.050388 
L 387.986317 81.479827 
L 388.861397 81.365715 
L 391.486636 81.31681 
L 392.361715 81.007077 
L 394.111875 81.170094 
L 394.986954 81.333112 
L 395.862034 80.371309 
L 396.737113 81.724353 
L 397.612193 81.088586 
L 398.487273 81.104887 
L 398.487273 81.104887 
" style="fill:none;stroke:#2ca02c;stroke-linecap:square;stroke-width:1.5;"/>
   </g>
   <g id="patch_3">
    <path d="M 57.6 307.584 
L 57.6 41.472 
" style="fill:none;stroke:#000000;stroke-linecap:square;stroke-linejoin:miter;stroke-width:0.8;"/>
   </g>
   <g id="patch_4">
    <path d="M 414.72 307.584 
L 414.72 41.472 
" style="fill:none;stroke:#000000;stroke-linecap:square;stroke-linejoin:miter;stroke-width:0.8;"/>
   </g>
   <g id="patch_5">
    <path d="M 57.6 307.584 
L 414.72 307.584 
" style="fill:none;stroke:#000000;stroke-linecap:square;stroke-linejoin:miter;stroke-width:0.8;"/>
   </g>
   <g id="patch_6">
    <path d="M 57.6 41.472 
L 414.72 41.472 
" style="fill:none;stroke:#000000;stroke-linecap:square;stroke-linejoin:miter;stroke-width:0.8;"/>
   </g>
   <g id="text_21">
    <!-- Training and Validation Accuracy -->
    <g transform="translate(138.4575 35.472)scale(0.12 -0.12)">
     <defs>
      <path d="M -19 4666 
L 3928 4666 
L 3928 4134 
L 2272 4134 
L 2272 0 
L 1638 0 
L 1638 4134 
L -19 4134 
L -19 4666 
z
" id="DejaVuSans-54" transform="scale(0.015625)"/>
      <path d="M 603 3500 
L 1178 3500 
L 1178 0 
L 603 0 
L 603 3500 
z
M 603 4863 
L 1178 4863 
L 1178 4134 
L 603 4134 
L 603 4863 
z
" id="DejaVuSans-69" transform="scale(0.015625)"/>
      <path d="M 3513 2113 
L 3513 0 
L 2938 0 
L 2938 2094 
Q 2938 2591 2744 2837 
Q 2550 3084 2163 3084 
Q 1697 3084 1428 2787 
Q 1159 2491 1159 1978 
L 1159 0 
L 581 0 
L 581 3500 
L 1159 3500 
L 1159 2956 
Q 1366 3272 1645 3428 
Q 1925 3584 2291 3584 
Q 2894 3584 3203 3211 
Q 3513 2838 3513 2113 
z
" id="DejaVuSans-6e" transform="scale(0.015625)"/>
      <path d="M 2906 1791 
Q 2906 2416 2648 2759 
Q 2391 3103 1925 3103 
Q 1463 3103 1205 2759 
Q 947 2416 947 1791 
Q 947 1169 1205 825 
Q 1463 481 1925 481 
Q 2391 481 2648 825 
Q 2906 1169 2906 1791 
z
M 3481 434 
Q 3481 -459 3084 -895 
Q 2688 -1331 1869 -1331 
Q 1566 -1331 1297 -1286 
Q 1028 -1241 775 -1147 
L 775 -588 
Q 1028 -725 1275 -790 
Q 1522 -856 1778 -856 
Q 2344 -856 2625 -561 
Q 2906 -266 2906 331 
L 2906 616 
Q 2728 306 2450 153 
Q 2172 0 1784 0 
Q 1141 0 747 490 
Q 353 981 353 1791 
Q 353 2603 747 3093 
Q 1141 3584 1784 3584 
Q 2172 3584 2450 3431 
Q 2728 3278 2906 2969 
L 2906 3500 
L 3481 3500 
L 3481 434 
z
" id="DejaVuSans-67" transform="scale(0.015625)"/>
      <path id="DejaVuSans-20" transform="scale(0.015625)"/>
      <path d="M 2906 2969 
L 2906 4863 
L 3481 4863 
L 3481 0 
L 2906 0 
L 2906 525 
Q 2725 213 2448 61 
Q 2172 -91 1784 -91 
Q 1150 -91 751 415 
Q 353 922 353 1747 
Q 353 2572 751 3078 
Q 1150 3584 1784 3584 
Q 2172 3584 2448 3432 
Q 2725 3281 2906 2969 
z
M 947 1747 
Q 947 1113 1208 752 
Q 1469 391 1925 391 
Q 2381 391 2643 752 
Q 2906 1113 2906 1747 
Q 2906 2381 2643 2742 
Q 2381 3103 1925 3103 
Q 1469 3103 1208 2742 
Q 947 2381 947 1747 
z
" id="DejaVuSans-64" transform="scale(0.015625)"/>
      <path d="M 1831 0 
L 50 4666 
L 709 4666 
L 2188 738 
L 3669 4666 
L 4325 4666 
L 2547 0 
L 1831 0 
z
" id="DejaVuSans-56" transform="scale(0.015625)"/>
      <path d="M 603 4863 
L 1178 4863 
L 1178 0 
L 603 0 
L 603 4863 
z
" id="DejaVuSans-6c" transform="scale(0.015625)"/>
      <path d="M 1172 4494 
L 1172 3500 
L 2356 3500 
L 2356 3053 
L 1172 3053 
L 1172 1153 
Q 1172 725 1289 603 
Q 1406 481 1766 481 
L 2356 481 
L 2356 0 
L 1766 0 
Q 1100 0 847 248 
Q 594 497 594 1153 
L 594 3053 
L 172 3053 
L 172 3500 
L 594 3500 
L 594 4494 
L 1172 4494 
z
" id="DejaVuSans-74" transform="scale(0.015625)"/>
     </defs>
     <use xlink:href="#DejaVuSans-54"/>
     <use x="46.333984" xlink:href="#DejaVuSans-72"/>
     <use x="87.447266" xlink:href="#DejaVuSans-61"/>
     <use x="148.726562" xlink:href="#DejaVuSans-69"/>
     <use x="176.509766" xlink:href="#DejaVuSans-6e"/>
     <use x="239.888672" xlink:href="#DejaVuSans-69"/>
     <use x="267.671875" xlink:href="#DejaVuSans-6e"/>
     <use x="331.050781" xlink:href="#DejaVuSans-67"/>
     <use x="394.527344" xlink:href="#DejaVuSans-20"/>
     <use x="426.314453" xlink:href="#DejaVuSans-61"/>
     <use x="487.59375" xlink:href="#DejaVuSans-6e"/>
     <use x="550.972656" xlink:href="#DejaVuSans-64"/>
     <use x="614.449219" xlink:href="#DejaVuSans-20"/>
     <use x="646.236328" xlink:href="#DejaVuSans-56"/>
     <use x="706.894531" xlink:href="#DejaVuSans-61"/>
     <use x="768.173828" xlink:href="#DejaVuSans-6c"/>
     <use x="795.957031" xlink:href="#DejaVuSans-69"/>
     <use x="823.740234" xlink:href="#DejaVuSans-64"/>
     <use x="887.216797" xlink:href="#DejaVuSans-61"/>
     <use x="948.496094" xlink:href="#DejaVuSans-74"/>
     <use x="987.705078" xlink:href="#DejaVuSans-69"/>
     <use x="1015.488281" xlink:href="#DejaVuSans-6f"/>
     <use x="1076.669922" xlink:href="#DejaVuSans-6e"/>
     <use x="1140.048828" xlink:href="#DejaVuSans-20"/>
     <use x="1171.835938" xlink:href="#DejaVuSans-41"/>
     <use x="1238.494141" xlink:href="#DejaVuSans-63"/>
     <use x="1293.474609" xlink:href="#DejaVuSans-63"/>
     <use x="1348.455078" xlink:href="#DejaVuSans-75"/>
     <use x="1411.833984" xlink:href="#DejaVuSans-72"/>
     <use x="1452.947266" xlink:href="#DejaVuSans-61"/>
     <use x="1514.226562" xlink:href="#DejaVuSans-63"/>
     <use x="1569.207031" xlink:href="#DejaVuSans-79"/>
    </g>
   </g>
   <g id="legend_1">
    <g id="patch_7">
     <path d="M 239.893438 302.584 
L 407.72 302.584 
Q 409.72 302.584 409.72 300.584 
L 409.72 257.549625 
Q 409.72 255.549625 407.72 255.549625 
L 239.893438 255.549625 
Q 237.893438 255.549625 237.893438 257.549625 
L 237.893438 300.584 
Q 237.893438 302.584 239.893438 302.584 
z
" style="fill:#ffffff;opacity:0.8;stroke:#cccccc;stroke-linejoin:miter;"/>
    </g>
    <g id="line2d_22">
     <path d="M 241.893438 263.648062 
L 261.893438 263.648062 
" style="fill:none;stroke:#1f77b4;stroke-linecap:square;stroke-width:1.5;"/>
    </g>
    <g id="line2d_23"/>
    <g id="text_22">
     <!-- Train Accuracy -->
     <g transform="translate(269.893438 267.148062)scale(0.1 -0.1)">
      <use xlink:href="#DejaVuSans-54"/>
      <use x="46.333984" xlink:href="#DejaVuSans-72"/>
      <use x="87.447266" xlink:href="#DejaVuSans-61"/>
      <use x="148.726562" xlink:href="#DejaVuSans-69"/>
      <use x="176.509766" xlink:href="#DejaVuSans-6e"/>
      <use x="239.888672" xlink:href="#DejaVuSans-20"/>
      <use x="271.675781" xlink:href="#DejaVuSans-41"/>
      <use x="338.333984" xlink:href="#DejaVuSans-63"/>
      <use x="393.314453" xlink:href="#DejaVuSans-63"/>
      <use x="448.294922" xlink:href="#DejaVuSans-75"/>
      <use x="511.673828" xlink:href="#DejaVuSans-72"/>
      <use x="552.787109" xlink:href="#DejaVuSans-61"/>
      <use x="614.066406" xlink:href="#DejaVuSans-63"/>
      <use x="669.046875" xlink:href="#DejaVuSans-79"/>
     </g>
    </g>
    <g id="line2d_24">
     <path d="M 241.893438 278.326188 
L 261.893438 278.326188 
" style="fill:none;stroke:#ff7f0e;stroke-linecap:square;stroke-width:1.5;"/>
    </g>
    <g id="line2d_25"/>
    <g id="text_23">
     <!-- Validation Accuracy -->
     <g transform="translate(269.893438 281.826188)scale(0.1 -0.1)">
      <use xlink:href="#DejaVuSans-56"/>
      <use x="60.658203" xlink:href="#DejaVuSans-61"/>
      <use x="121.9375" xlink:href="#DejaVuSans-6c"/>
      <use x="149.720703" xlink:href="#DejaVuSans-69"/>
      <use x="177.503906" xlink:href="#DejaVuSans-64"/>
      <use x="240.980469" xlink:href="#DejaVuSans-61"/>
      <use x="302.259766" xlink:href="#DejaVuSans-74"/>
      <use x="341.46875" xlink:href="#DejaVuSans-69"/>
      <use x="369.251953" xlink:href="#DejaVuSans-6f"/>
      <use x="430.433594" xlink:href="#DejaVuSans-6e"/>
      <use x="493.8125" xlink:href="#DejaVuSans-20"/>
      <use x="525.599609" xlink:href="#DejaVuSans-41"/>
      <use x="592.257812" xlink:href="#DejaVuSans-63"/>
      <use x="647.238281" xlink:href="#DejaVuSans-63"/>
      <use x="702.21875" xlink:href="#DejaVuSans-75"/>
      <use x="765.597656" xlink:href="#DejaVuSans-72"/>
      <use x="806.710938" xlink:href="#DejaVuSans-61"/>
      <use x="867.990234" xlink:href="#DejaVuSans-63"/>
      <use x="922.970703" xlink:href="#DejaVuSans-79"/>
     </g>
    </g>
    <g id="line2d_26">
     <path d="M 241.893438 293.004312 
L 261.893438 293.004312 
" style="fill:none;stroke:#2ca02c;stroke-linecap:square;stroke-width:1.5;"/>
    </g>
    <g id="line2d_27"/>
    <g id="text_24">
     <!-- Robust Validation Accuracy -->
     <g transform="translate(269.893438 296.504312)scale(0.1 -0.1)">
      <defs>
       <path d="M 2841 2188 
Q 3044 2119 3236 1894 
Q 3428 1669 3622 1275 
L 4263 0 
L 3584 0 
L 2988 1197 
Q 2756 1666 2539 1819 
Q 2322 1972 1947 1972 
L 1259 1972 
L 1259 0 
L 628 0 
L 628 4666 
L 2053 4666 
Q 2853 4666 3247 4331 
Q 3641 3997 3641 3322 
Q 3641 2881 3436 2590 
Q 3231 2300 2841 2188 
z
M 1259 4147 
L 1259 2491 
L 2053 2491 
Q 2509 2491 2742 2702 
Q 2975 2913 2975 3322 
Q 2975 3731 2742 3939 
Q 2509 4147 2053 4147 
L 1259 4147 
z
" id="DejaVuSans-52" transform="scale(0.015625)"/>
       <path d="M 3116 1747 
Q 3116 2381 2855 2742 
Q 2594 3103 2138 3103 
Q 1681 3103 1420 2742 
Q 1159 2381 1159 1747 
Q 1159 1113 1420 752 
Q 1681 391 2138 391 
Q 2594 391 2855 752 
Q 3116 1113 3116 1747 
z
M 1159 2969 
Q 1341 3281 1617 3432 
Q 1894 3584 2278 3584 
Q 2916 3584 3314 3078 
Q 3713 2572 3713 1747 
Q 3713 922 3314 415 
Q 2916 -91 2278 -91 
Q 1894 -91 1617 61 
Q 1341 213 1159 525 
L 1159 0 
L 581 0 
L 581 4863 
L 1159 4863 
L 1159 2969 
z
" id="DejaVuSans-62" transform="scale(0.015625)"/>
      </defs>
      <use xlink:href="#DejaVuSans-52"/>
      <use x="64.982422" xlink:href="#DejaVuSans-6f"/>
      <use x="126.164062" xlink:href="#DejaVuSans-62"/>
      <use x="189.640625" xlink:href="#DejaVuSans-75"/>
      <use x="253.019531" xlink:href="#DejaVuSans-73"/>
      <use x="305.119141" xlink:href="#DejaVuSans-74"/>
      <use x="344.328125" xlink:href="#DejaVuSans-20"/>
      <use x="376.115234" xlink:href="#DejaVuSans-56"/>
      <use x="436.773438" xlink:href="#DejaVuSans-61"/>
      <use x="498.052734" xlink:href="#DejaVuSans-6c"/>
      <use x="525.835938" xlink:href="#DejaVuSans-69"/>
      <use x="553.619141" xlink:href="#DejaVuSans-64"/>
      <use x="617.095703" xlink:href="#DejaVuSans-61"/>
      <use x="678.375" xlink:href="#DejaVuSans-74"/>
      <use x="717.583984" xlink:href="#DejaVuSans-69"/>
      <use x="745.367188" xlink:href="#DejaVuSans-6f"/>
      <use x="806.548828" xlink:href="#DejaVuSans-6e"/>
      <use x="869.927734" xlink:href="#DejaVuSans-20"/>
      <use x="901.714844" xlink:href="#DejaVuSans-41"/>
      <use x="968.373047" xlink:href="#DejaVuSans-63"/>
      <use x="1023.353516" xlink:href="#DejaVuSans-63"/>
      <use x="1078.333984" xlink:href="#DejaVuSans-75"/>
      <use x="1141.712891" xlink:href="#DejaVuSans-72"/>
      <use x="1182.826172" xlink:href="#DejaVuSans-61"/>
      <use x="1244.105469" xlink:href="#DejaVuSans-63"/>
      <use x="1299.085938" xlink:href="#DejaVuSans-79"/>
     </g>
    </g>
   </g>
  </g>
 </g>
 <defs>
  <clipPath id="p51db7faa1d">
   <rect height="266.112" width="357.12" x="57.6" y="41.472"/>
  </clipPath>
 </defs>
</svg>
