<?xml version="1.0" encoding="utf-8" standalone="no"?>
<!DOCTYPE svg PUBLIC "-//W3C//DTD SVG 1.1//EN"
  "http://www.w3.org/Graphics/SVG/1.1/DTD/svg11.dtd">
<svg height="345.6pt" version="1.1" viewBox="0 0 460.8 345.6" width="460.8pt" xmlns="http://www.w3.org/2000/svg" xmlns:xlink="http://www.w3.org/1999/xlink">
 <metadata>
  <rdf:RDF xmlns:cc="http://creativecommons.org/ns#" xmlns:dc="http://purl.org/dc/elements/1.1/" xmlns:rdf="http://www.w3.org/1999/02/22-rdf-syntax-ns#">
   <cc:Work>
    <dc:type rdf:resource="http://purl.org/dc/dcmitype/StillImage"/>
    <dc:date>2024-04-08T17:29:02.710206</dc:date>
    <dc:format>image/svg+xml</dc:format>
    <dc:creator>
     <cc:Agent>
      <dc:title>Matplotlib v3.4.3, https://matplotlib.org/</dc:title>
     </cc:Agent>
    </dc:creator>
   </cc:Work>
  </rdf:RDF>
 </metadata>
 <defs>
  <style type="text/css">*{stroke-linecap:butt;stroke-linejoin:round;}</style>
 </defs>
 <g id="figure_1">
  <g id="patch_1">
   <path d="M 0 345.6 
L 460.8 345.6 
L 460.8 0 
L 0 0 
z
" style="fill:#ffffff;"/>
  </g>
  <g id="axes_1">
   <g id="patch_2">
    <path d="M 57.6 307.584 
L 414.72 307.584 
L 414.72 41.472 
L 57.6 41.472 
z
" style="fill:#ffffff;"/>
   </g>
   <g id="matplotlib.axis_1">
    <g id="xtick_1">
     <g id="line2d_1">
      <defs>
       <path d="M 0 0 
L 0 3.5 
" id="m92d370be0e" style="stroke:#000000;stroke-width:0.8;"/>
      </defs>
      <g>
       <use style="stroke:#000000;stroke-width:0.8;" x="73.832727" xlink:href="#m92d370be0e" y="307.584"/>
      </g>
     </g>
     <g id="text_1">
      <!-- 1 -->
      <g transform="translate(70.651477 322.182437)scale(0.1 -0.1)">
       <defs>
        <path d="M 794 531 
L 1825 531 
L 1825 4091 
L 703 3866 
L 703 4441 
L 1819 4666 
L 2450 4666 
L 2450 531 
L 3481 531 
L 3481 0 
L 794 0 
L 794 531 
z
" id="DejaVuSans-31" transform="scale(0.015625)"/>
       </defs>
       <use xlink:href="#DejaVuSans-31"/>
      </g>
     </g>
    </g>
    <g id="xtick_2">
     <g id="line2d_2">
      <g>
       <use style="stroke:#000000;stroke-width:0.8;" x="109.423199" xlink:href="#m92d370be0e" y="307.584"/>
      </g>
     </g>
     <g id="text_2">
      <!-- 42 -->
      <g transform="translate(103.060699 322.182437)scale(0.1 -0.1)">
       <defs>
        <path d="M 2419 4116 
L 825 1625 
L 2419 1625 
L 2419 4116 
z
M 2253 4666 
L 3047 4666 
L 3047 1625 
L 3713 1625 
L 3713 1100 
L 3047 1100 
L 3047 0 
L 2419 0 
L 2419 1100 
L 313 1100 
L 313 1709 
L 2253 4666 
z
" id="DejaVuSans-34" transform="scale(0.015625)"/>
        <path d="M 1228 531 
L 3431 531 
L 3431 0 
L 469 0 
L 469 531 
Q 828 903 1448 1529 
Q 2069 2156 2228 2338 
Q 2531 2678 2651 2914 
Q 2772 3150 2772 3378 
Q 2772 3750 2511 3984 
Q 2250 4219 1831 4219 
Q 1534 4219 1204 4116 
Q 875 4013 500 3803 
L 500 4441 
Q 881 4594 1212 4672 
Q 1544 4750 1819 4750 
Q 2544 4750 2975 4387 
Q 3406 4025 3406 3419 
Q 3406 3131 3298 2873 
Q 3191 2616 2906 2266 
Q 2828 2175 2409 1742 
Q 1991 1309 1228 531 
z
" id="DejaVuSans-32" transform="scale(0.015625)"/>
       </defs>
       <use xlink:href="#DejaVuSans-34"/>
       <use x="63.623047" xlink:href="#DejaVuSans-32"/>
      </g>
     </g>
    </g>
    <g id="xtick_3">
     <g id="line2d_3">
      <g>
       <use style="stroke:#000000;stroke-width:0.8;" x="145.881731" xlink:href="#m92d370be0e" y="307.584"/>
      </g>
     </g>
     <g id="text_3">
      <!-- 84 -->
      <g transform="translate(139.519231 322.182437)scale(0.1 -0.1)">
       <defs>
        <path d="M 2034 2216 
Q 1584 2216 1326 1975 
Q 1069 1734 1069 1313 
Q 1069 891 1326 650 
Q 1584 409 2034 409 
Q 2484 409 2743 651 
Q 3003 894 3003 1313 
Q 3003 1734 2745 1975 
Q 2488 2216 2034 2216 
z
M 1403 2484 
Q 997 2584 770 2862 
Q 544 3141 544 3541 
Q 544 4100 942 4425 
Q 1341 4750 2034 4750 
Q 2731 4750 3128 4425 
Q 3525 4100 3525 3541 
Q 3525 3141 3298 2862 
Q 3072 2584 2669 2484 
Q 3125 2378 3379 2068 
Q 3634 1759 3634 1313 
Q 3634 634 3220 271 
Q 2806 -91 2034 -91 
Q 1263 -91 848 271 
Q 434 634 434 1313 
Q 434 1759 690 2068 
Q 947 2378 1403 2484 
z
M 1172 3481 
Q 1172 3119 1398 2916 
Q 1625 2713 2034 2713 
Q 2441 2713 2670 2916 
Q 2900 3119 2900 3481 
Q 2900 3844 2670 4047 
Q 2441 4250 2034 4250 
Q 1625 4250 1398 4047 
Q 1172 3844 1172 3481 
z
" id="DejaVuSans-38" transform="scale(0.015625)"/>
       </defs>
       <use xlink:href="#DejaVuSans-38"/>
       <use x="63.623047" xlink:href="#DejaVuSans-34"/>
      </g>
     </g>
    </g>
    <g id="xtick_4">
     <g id="line2d_4">
      <g>
       <use style="stroke:#000000;stroke-width:0.8;" x="181.472202" xlink:href="#m92d370be0e" y="307.584"/>
      </g>
     </g>
     <g id="text_4">
      <!-- 125 -->
      <g transform="translate(171.928452 322.182437)scale(0.1 -0.1)">
       <defs>
        <path d="M 691 4666 
L 3169 4666 
L 3169 4134 
L 1269 4134 
L 1269 2991 
Q 1406 3038 1543 3061 
Q 1681 3084 1819 3084 
Q 2600 3084 3056 2656 
Q 3513 2228 3513 1497 
Q 3513 744 3044 326 
Q 2575 -91 1722 -91 
Q 1428 -91 1123 -41 
Q 819 9 494 109 
L 494 744 
Q 775 591 1075 516 
Q 1375 441 1709 441 
Q 2250 441 2565 725 
Q 2881 1009 2881 1497 
Q 2881 1984 2565 2268 
Q 2250 2553 1709 2553 
Q 1456 2553 1204 2497 
Q 953 2441 691 2322 
L 691 4666 
z
" id="DejaVuSans-35" transform="scale(0.015625)"/>
       </defs>
       <use xlink:href="#DejaVuSans-31"/>
       <use x="63.623047" xlink:href="#DejaVuSans-32"/>
       <use x="127.246094" xlink:href="#DejaVuSans-35"/>
      </g>
     </g>
    </g>
    <g id="xtick_5">
     <g id="line2d_5">
      <g>
       <use style="stroke:#000000;stroke-width:0.8;" x="217.930734" xlink:href="#m92d370be0e" y="307.584"/>
      </g>
     </g>
     <g id="text_5">
      <!-- 167 -->
      <g transform="translate(208.386984 322.182437)scale(0.1 -0.1)">
       <defs>
        <path d="M 2113 2584 
Q 1688 2584 1439 2293 
Q 1191 2003 1191 1497 
Q 1191 994 1439 701 
Q 1688 409 2113 409 
Q 2538 409 2786 701 
Q 3034 994 3034 1497 
Q 3034 2003 2786 2293 
Q 2538 2584 2113 2584 
z
M 3366 4563 
L 3366 3988 
Q 3128 4100 2886 4159 
Q 2644 4219 2406 4219 
Q 1781 4219 1451 3797 
Q 1122 3375 1075 2522 
Q 1259 2794 1537 2939 
Q 1816 3084 2150 3084 
Q 2853 3084 3261 2657 
Q 3669 2231 3669 1497 
Q 3669 778 3244 343 
Q 2819 -91 2113 -91 
Q 1303 -91 875 529 
Q 447 1150 447 2328 
Q 447 3434 972 4092 
Q 1497 4750 2381 4750 
Q 2619 4750 2861 4703 
Q 3103 4656 3366 4563 
z
" id="DejaVuSans-36" transform="scale(0.015625)"/>
        <path d="M 525 4666 
L 3525 4666 
L 3525 4397 
L 1831 0 
L 1172 0 
L 2766 4134 
L 525 4134 
L 525 4666 
z
" id="DejaVuSans-37" transform="scale(0.015625)"/>
       </defs>
       <use xlink:href="#DejaVuSans-31"/>
       <use x="63.623047" xlink:href="#DejaVuSans-36"/>
       <use x="127.246094" xlink:href="#DejaVuSans-37"/>
      </g>
     </g>
    </g>
    <g id="xtick_6">
     <g id="line2d_6">
      <g>
       <use style="stroke:#000000;stroke-width:0.8;" x="253.521206" xlink:href="#m92d370be0e" y="307.584"/>
      </g>
     </g>
     <g id="text_6">
      <!-- 208 -->
      <g transform="translate(243.977456 322.182437)scale(0.1 -0.1)">
       <defs>
        <path d="M 2034 4250 
Q 1547 4250 1301 3770 
Q 1056 3291 1056 2328 
Q 1056 1369 1301 889 
Q 1547 409 2034 409 
Q 2525 409 2770 889 
Q 3016 1369 3016 2328 
Q 3016 3291 2770 3770 
Q 2525 4250 2034 4250 
z
M 2034 4750 
Q 2819 4750 3233 4129 
Q 3647 3509 3647 2328 
Q 3647 1150 3233 529 
Q 2819 -91 2034 -91 
Q 1250 -91 836 529 
Q 422 1150 422 2328 
Q 422 3509 836 4129 
Q 1250 4750 2034 4750 
z
" id="DejaVuSans-30" transform="scale(0.015625)"/>
       </defs>
       <use xlink:href="#DejaVuSans-32"/>
       <use x="63.623047" xlink:href="#DejaVuSans-30"/>
       <use x="127.246094" xlink:href="#DejaVuSans-38"/>
      </g>
     </g>
    </g>
    <g id="xtick_7">
     <g id="line2d_7">
      <g>
       <use style="stroke:#000000;stroke-width:0.8;" x="289.979737" xlink:href="#m92d370be0e" y="307.584"/>
      </g>
     </g>
     <g id="text_7">
      <!-- 250 -->
      <g transform="translate(280.435987 322.182437)scale(0.1 -0.1)">
       <use xlink:href="#DejaVuSans-32"/>
       <use x="63.623047" xlink:href="#DejaVuSans-35"/>
       <use x="127.246094" xlink:href="#DejaVuSans-30"/>
      </g>
     </g>
    </g>
    <g id="xtick_8">
     <g id="line2d_8">
      <g>
       <use style="stroke:#000000;stroke-width:0.8;" x="325.570209" xlink:href="#m92d370be0e" y="307.584"/>
      </g>
     </g>
     <g id="text_8">
      <!-- 291 -->
      <g transform="translate(316.026459 322.182437)scale(0.1 -0.1)">
       <defs>
        <path d="M 703 97 
L 703 672 
Q 941 559 1184 500 
Q 1428 441 1663 441 
Q 2288 441 2617 861 
Q 2947 1281 2994 2138 
Q 2813 1869 2534 1725 
Q 2256 1581 1919 1581 
Q 1219 1581 811 2004 
Q 403 2428 403 3163 
Q 403 3881 828 4315 
Q 1253 4750 1959 4750 
Q 2769 4750 3195 4129 
Q 3622 3509 3622 2328 
Q 3622 1225 3098 567 
Q 2575 -91 1691 -91 
Q 1453 -91 1209 -44 
Q 966 3 703 97 
z
M 1959 2075 
Q 2384 2075 2632 2365 
Q 2881 2656 2881 3163 
Q 2881 3666 2632 3958 
Q 2384 4250 1959 4250 
Q 1534 4250 1286 3958 
Q 1038 3666 1038 3163 
Q 1038 2656 1286 2365 
Q 1534 2075 1959 2075 
z
" id="DejaVuSans-39" transform="scale(0.015625)"/>
       </defs>
       <use xlink:href="#DejaVuSans-32"/>
       <use x="63.623047" xlink:href="#DejaVuSans-39"/>
       <use x="127.246094" xlink:href="#DejaVuSans-31"/>
      </g>
     </g>
    </g>
    <g id="xtick_9">
     <g id="line2d_9">
      <g>
       <use style="stroke:#000000;stroke-width:0.8;" x="362.028741" xlink:href="#m92d370be0e" y="307.584"/>
      </g>
     </g>
     <g id="text_9">
      <!-- 333 -->
      <g transform="translate(352.484991 322.182437)scale(0.1 -0.1)">
       <defs>
        <path d="M 2597 2516 
Q 3050 2419 3304 2112 
Q 3559 1806 3559 1356 
Q 3559 666 3084 287 
Q 2609 -91 1734 -91 
Q 1441 -91 1130 -33 
Q 819 25 488 141 
L 488 750 
Q 750 597 1062 519 
Q 1375 441 1716 441 
Q 2309 441 2620 675 
Q 2931 909 2931 1356 
Q 2931 1769 2642 2001 
Q 2353 2234 1838 2234 
L 1294 2234 
L 1294 2753 
L 1863 2753 
Q 2328 2753 2575 2939 
Q 2822 3125 2822 3475 
Q 2822 3834 2567 4026 
Q 2313 4219 1838 4219 
Q 1578 4219 1281 4162 
Q 984 4106 628 3988 
L 628 4550 
Q 988 4650 1302 4700 
Q 1616 4750 1894 4750 
Q 2613 4750 3031 4423 
Q 3450 4097 3450 3541 
Q 3450 3153 3228 2886 
Q 3006 2619 2597 2516 
z
" id="DejaVuSans-33" transform="scale(0.015625)"/>
       </defs>
       <use xlink:href="#DejaVuSans-33"/>
       <use x="63.623047" xlink:href="#DejaVuSans-33"/>
       <use x="127.246094" xlink:href="#DejaVuSans-33"/>
      </g>
     </g>
    </g>
    <g id="xtick_10">
     <g id="line2d_10">
      <g>
       <use style="stroke:#000000;stroke-width:0.8;" x="398.487273" xlink:href="#m92d370be0e" y="307.584"/>
      </g>
     </g>
     <g id="text_10">
      <!-- 375 -->
      <g transform="translate(388.943523 322.182437)scale(0.1 -0.1)">
       <use xlink:href="#DejaVuSans-33"/>
       <use x="63.623047" xlink:href="#DejaVuSans-37"/>
       <use x="127.246094" xlink:href="#DejaVuSans-35"/>
      </g>
     </g>
    </g>
    <g id="text_11">
     <!-- Epochs -->
     <g transform="translate(218.244375 335.860562)scale(0.1 -0.1)">
      <defs>
       <path d="M 628 4666 
L 3578 4666 
L 3578 4134 
L 1259 4134 
L 1259 2753 
L 3481 2753 
L 3481 2222 
L 1259 2222 
L 1259 531 
L 3634 531 
L 3634 0 
L 628 0 
L 628 4666 
z
" id="DejaVuSans-45" transform="scale(0.015625)"/>
       <path d="M 1159 525 
L 1159 -1331 
L 581 -1331 
L 581 3500 
L 1159 3500 
L 1159 2969 
Q 1341 3281 1617 3432 
Q 1894 3584 2278 3584 
Q 2916 3584 3314 3078 
Q 3713 2572 3713 1747 
Q 3713 922 3314 415 
Q 2916 -91 2278 -91 
Q 1894 -91 1617 61 
Q 1341 213 1159 525 
z
M 3116 1747 
Q 3116 2381 2855 2742 
Q 2594 3103 2138 3103 
Q 1681 3103 1420 2742 
Q 1159 2381 1159 1747 
Q 1159 1113 1420 752 
Q 1681 391 2138 391 
Q 2594 391 2855 752 
Q 3116 1113 3116 1747 
z
" id="DejaVuSans-70" transform="scale(0.015625)"/>
       <path d="M 1959 3097 
Q 1497 3097 1228 2736 
Q 959 2375 959 1747 
Q 959 1119 1226 758 
Q 1494 397 1959 397 
Q 2419 397 2687 759 
Q 2956 1122 2956 1747 
Q 2956 2369 2687 2733 
Q 2419 3097 1959 3097 
z
M 1959 3584 
Q 2709 3584 3137 3096 
Q 3566 2609 3566 1747 
Q 3566 888 3137 398 
Q 2709 -91 1959 -91 
Q 1206 -91 779 398 
Q 353 888 353 1747 
Q 353 2609 779 3096 
Q 1206 3584 1959 3584 
z
" id="DejaVuSans-6f" transform="scale(0.015625)"/>
       <path d="M 3122 3366 
L 3122 2828 
Q 2878 2963 2633 3030 
Q 2388 3097 2138 3097 
Q 1578 3097 1268 2742 
Q 959 2388 959 1747 
Q 959 1106 1268 751 
Q 1578 397 2138 397 
Q 2388 397 2633 464 
Q 2878 531 3122 666 
L 3122 134 
Q 2881 22 2623 -34 
Q 2366 -91 2075 -91 
Q 1284 -91 818 406 
Q 353 903 353 1747 
Q 353 2603 823 3093 
Q 1294 3584 2113 3584 
Q 2378 3584 2631 3529 
Q 2884 3475 3122 3366 
z
" id="DejaVuSans-63" transform="scale(0.015625)"/>
       <path d="M 3513 2113 
L 3513 0 
L 2938 0 
L 2938 2094 
Q 2938 2591 2744 2837 
Q 2550 3084 2163 3084 
Q 1697 3084 1428 2787 
Q 1159 2491 1159 1978 
L 1159 0 
L 581 0 
L 581 4863 
L 1159 4863 
L 1159 2956 
Q 1366 3272 1645 3428 
Q 1925 3584 2291 3584 
Q 2894 3584 3203 3211 
Q 3513 2838 3513 2113 
z
" id="DejaVuSans-68" transform="scale(0.015625)"/>
       <path d="M 2834 3397 
L 2834 2853 
Q 2591 2978 2328 3040 
Q 2066 3103 1784 3103 
Q 1356 3103 1142 2972 
Q 928 2841 928 2578 
Q 928 2378 1081 2264 
Q 1234 2150 1697 2047 
L 1894 2003 
Q 2506 1872 2764 1633 
Q 3022 1394 3022 966 
Q 3022 478 2636 193 
Q 2250 -91 1575 -91 
Q 1294 -91 989 -36 
Q 684 19 347 128 
L 347 722 
Q 666 556 975 473 
Q 1284 391 1588 391 
Q 1994 391 2212 530 
Q 2431 669 2431 922 
Q 2431 1156 2273 1281 
Q 2116 1406 1581 1522 
L 1381 1569 
Q 847 1681 609 1914 
Q 372 2147 372 2553 
Q 372 3047 722 3315 
Q 1072 3584 1716 3584 
Q 2034 3584 2315 3537 
Q 2597 3491 2834 3397 
z
" id="DejaVuSans-73" transform="scale(0.015625)"/>
      </defs>
      <use xlink:href="#DejaVuSans-45"/>
      <use x="63.183594" xlink:href="#DejaVuSans-70"/>
      <use x="126.660156" xlink:href="#DejaVuSans-6f"/>
      <use x="187.841797" xlink:href="#DejaVuSans-63"/>
      <use x="242.822266" xlink:href="#DejaVuSans-68"/>
      <use x="306.201172" xlink:href="#DejaVuSans-73"/>
     </g>
    </g>
   </g>
   <g id="matplotlib.axis_2">
    <g id="ytick_1">
     <g id="line2d_11">
      <defs>
       <path d="M 0 0 
L -3.5 0 
" id="md4d24e5ccd" style="stroke:#000000;stroke-width:0.8;"/>
      </defs>
      <g>
       <use style="stroke:#000000;stroke-width:0.8;" x="57.6" xlink:href="#md4d24e5ccd" y="279.078086"/>
      </g>
     </g>
     <g id="text_12">
      <!-- 10 -->
      <g transform="translate(37.875 282.877305)scale(0.1 -0.1)">
       <use xlink:href="#DejaVuSans-31"/>
       <use x="63.623047" xlink:href="#DejaVuSans-30"/>
      </g>
     </g>
    </g>
    <g id="ytick_2">
     <g id="line2d_12">
      <g>
       <use style="stroke:#000000;stroke-width:0.8;" x="57.6" xlink:href="#md4d24e5ccd" y="247.520559"/>
      </g>
     </g>
     <g id="text_13">
      <!-- 20 -->
      <g transform="translate(37.875 251.319778)scale(0.1 -0.1)">
       <use xlink:href="#DejaVuSans-32"/>
       <use x="63.623047" xlink:href="#DejaVuSans-30"/>
      </g>
     </g>
    </g>
    <g id="ytick_3">
     <g id="line2d_13">
      <g>
       <use style="stroke:#000000;stroke-width:0.8;" x="57.6" xlink:href="#md4d24e5ccd" y="215.963033"/>
      </g>
     </g>
     <g id="text_14">
      <!-- 30 -->
      <g transform="translate(37.875 219.762251)scale(0.1 -0.1)">
       <use xlink:href="#DejaVuSans-33"/>
       <use x="63.623047" xlink:href="#DejaVuSans-30"/>
      </g>
     </g>
    </g>
    <g id="ytick_4">
     <g id="line2d_14">
      <g>
       <use style="stroke:#000000;stroke-width:0.8;" x="57.6" xlink:href="#md4d24e5ccd" y="184.405506"/>
      </g>
     </g>
     <g id="text_15">
      <!-- 40 -->
      <g transform="translate(37.875 188.204725)scale(0.1 -0.1)">
       <use xlink:href="#DejaVuSans-34"/>
       <use x="63.623047" xlink:href="#DejaVuSans-30"/>
      </g>
     </g>
    </g>
    <g id="ytick_5">
     <g id="line2d_15">
      <g>
       <use style="stroke:#000000;stroke-width:0.8;" x="57.6" xlink:href="#md4d24e5ccd" y="152.847979"/>
      </g>
     </g>
     <g id="text_16">
      <!-- 50 -->
      <g transform="translate(37.875 156.647198)scale(0.1 -0.1)">
       <use xlink:href="#DejaVuSans-35"/>
       <use x="63.623047" xlink:href="#DejaVuSans-30"/>
      </g>
     </g>
    </g>
    <g id="ytick_6">
     <g id="line2d_16">
      <g>
       <use style="stroke:#000000;stroke-width:0.8;" x="57.6" xlink:href="#md4d24e5ccd" y="121.290452"/>
      </g>
     </g>
     <g id="text_17">
      <!-- 60 -->
      <g transform="translate(37.875 125.089671)scale(0.1 -0.1)">
       <use xlink:href="#DejaVuSans-36"/>
       <use x="63.623047" xlink:href="#DejaVuSans-30"/>
      </g>
     </g>
    </g>
    <g id="ytick_7">
     <g id="line2d_17">
      <g>
       <use style="stroke:#000000;stroke-width:0.8;" x="57.6" xlink:href="#md4d24e5ccd" y="89.732926"/>
      </g>
     </g>
     <g id="text_18">
      <!-- 70 -->
      <g transform="translate(37.875 93.532144)scale(0.1 -0.1)">
       <use xlink:href="#DejaVuSans-37"/>
       <use x="63.623047" xlink:href="#DejaVuSans-30"/>
      </g>
     </g>
    </g>
    <g id="ytick_8">
     <g id="line2d_18">
      <g>
       <use style="stroke:#000000;stroke-width:0.8;" x="57.6" xlink:href="#md4d24e5ccd" y="58.175399"/>
      </g>
     </g>
     <g id="text_19">
      <!-- 80 -->
      <g transform="translate(37.875 61.974618)scale(0.1 -0.1)">
       <use xlink:href="#DejaVuSans-38"/>
       <use x="63.623047" xlink:href="#DejaVuSans-30"/>
      </g>
     </g>
    </g>
    <g id="text_20">
     <!-- Accuracy -->
     <g transform="translate(31.795312 197.356125)rotate(-90)scale(0.1 -0.1)">
      <defs>
       <path d="M 2188 4044 
L 1331 1722 
L 3047 1722 
L 2188 4044 
z
M 1831 4666 
L 2547 4666 
L 4325 0 
L 3669 0 
L 3244 1197 
L 1141 1197 
L 716 0 
L 50 0 
L 1831 4666 
z
" id="DejaVuSans-41" transform="scale(0.015625)"/>
       <path d="M 544 1381 
L 544 3500 
L 1119 3500 
L 1119 1403 
Q 1119 906 1312 657 
Q 1506 409 1894 409 
Q 2359 409 2629 706 
Q 2900 1003 2900 1516 
L 2900 3500 
L 3475 3500 
L 3475 0 
L 2900 0 
L 2900 538 
Q 2691 219 2414 64 
Q 2138 -91 1772 -91 
Q 1169 -91 856 284 
Q 544 659 544 1381 
z
M 1991 3584 
L 1991 3584 
z
" id="DejaVuSans-75" transform="scale(0.015625)"/>
       <path d="M 2631 2963 
Q 2534 3019 2420 3045 
Q 2306 3072 2169 3072 
Q 1681 3072 1420 2755 
Q 1159 2438 1159 1844 
L 1159 0 
L 581 0 
L 581 3500 
L 1159 3500 
L 1159 2956 
Q 1341 3275 1631 3429 
Q 1922 3584 2338 3584 
Q 2397 3584 2469 3576 
Q 2541 3569 2628 3553 
L 2631 2963 
z
" id="DejaVuSans-72" transform="scale(0.015625)"/>
       <path d="M 2194 1759 
Q 1497 1759 1228 1600 
Q 959 1441 959 1056 
Q 959 750 1161 570 
Q 1363 391 1709 391 
Q 2188 391 2477 730 
Q 2766 1069 2766 1631 
L 2766 1759 
L 2194 1759 
z
M 3341 1997 
L 3341 0 
L 2766 0 
L 2766 531 
Q 2569 213 2275 61 
Q 1981 -91 1556 -91 
Q 1019 -91 701 211 
Q 384 513 384 1019 
Q 384 1609 779 1909 
Q 1175 2209 1959 2209 
L 2766 2209 
L 2766 2266 
Q 2766 2663 2505 2880 
Q 2244 3097 1772 3097 
Q 1472 3097 1187 3025 
Q 903 2953 641 2809 
L 641 3341 
Q 956 3463 1253 3523 
Q 1550 3584 1831 3584 
Q 2591 3584 2966 3190 
Q 3341 2797 3341 1997 
z
" id="DejaVuSans-61" transform="scale(0.015625)"/>
       <path d="M 2059 -325 
Q 1816 -950 1584 -1140 
Q 1353 -1331 966 -1331 
L 506 -1331 
L 506 -850 
L 844 -850 
Q 1081 -850 1212 -737 
Q 1344 -625 1503 -206 
L 1606 56 
L 191 3500 
L 800 3500 
L 1894 763 
L 2988 3500 
L 3597 3500 
L 2059 -325 
z
" id="DejaVuSans-79" transform="scale(0.015625)"/>
      </defs>
      <use xlink:href="#DejaVuSans-41"/>
      <use x="66.658203" xlink:href="#DejaVuSans-63"/>
      <use x="121.638672" xlink:href="#DejaVuSans-63"/>
      <use x="176.619141" xlink:href="#DejaVuSans-75"/>
      <use x="239.998047" xlink:href="#DejaVuSans-72"/>
      <use x="281.111328" xlink:href="#DejaVuSans-61"/>
      <use x="342.390625" xlink:href="#DejaVuSans-63"/>
      <use x="397.371094" xlink:href="#DejaVuSans-79"/>
     </g>
    </g>
   </g>
   <g id="line2d_19">
    <path clip-path="url(#pdad44d41d6)" d="M 73.832727 295.488 
L 74.700788 286.241645 
L 75.568848 280.422437 
L 77.304968 260.023651 
L 78.173029 250.808854 
L 79.041089 244.017674 
L 79.909149 238.242646 
L 80.77721 230.346953 
L 81.64527 227.532022 
L 84.249451 207.840125 
L 85.117511 203.769204 
L 85.985571 205.347081 
L 86.853632 197.590241 
L 87.721692 198.852542 
L 88.589752 191.505949 
L 89.457812 194.118913 
L 90.325873 186.412565 
L 91.193933 191.00734 
L 92.061993 182.417382 
L 92.930053 184.184603 
L 93.798114 177.538588 
L 94.666174 181.230819 
L 95.534234 211.50711 
L 96.402295 201.610669 
L 97.270355 198.675819 
L 98.138415 200.657632 
L 99.006475 197.060074 
L 99.874536 189.820777 
L 100.742596 188.61528 
L 101.610656 189.530448 
L 102.478717 182.758203 
L 103.346777 181.836723 
L 104.214837 178.17605 
L 105.082897 181.129835 
L 105.950958 178.081378 
L 106.819018 171.296509 
L 107.687078 172.072824 
L 108.555139 174.477508 
L 109.423199 169.680764 
L 110.291259 161.810317 
L 111.159319 168.853957 
L 112.02738 159.153173 
L 112.89544 161.078182 
L 113.7635 166.158944 
L 114.631561 149.767965 
L 115.499621 154.154461 
L 116.367681 156.988327 
L 117.235741 165.477301 
L 118.103802 154.974956 
L 118.971862 149.692226 
L 119.839922 152.355682 
L 120.707982 152.469289 
L 121.576043 156.382422 
L 122.444103 138.672338 
L 123.312163 146.624835 
L 124.180224 141.083333 
L 125.048284 141.379974 
L 125.916344 135.548143 
L 126.784404 139.524391 
L 127.652465 139.972508 
L 128.520525 139.574883 
L 129.388585 140.572101 
L 130.256646 129.508032 
L 131.124706 129.634262 
L 131.992766 124.76178 
L 132.860826 140.048246 
L 133.728887 129.028358 
L 134.596947 132.859442 
L 135.465007 126.415395 
L 136.333068 131.34468 
L 137.201128 131.369926 
L 138.069188 126.977119 
L 138.937248 159.948423 
L 139.805309 164.953446 
L 141.541429 157.726773 
L 142.40949 175.853416 
L 143.27755 154.223887 
L 144.14561 160.087276 
L 145.01367 156.590702 
L 145.881731 159.26678 
L 146.749791 153.542245 
L 147.617851 150.146655 
L 148.485912 156.180454 
L 149.353972 155.385204 
L 150.222032 151.528875 
L 151.090092 153.794705 
L 151.958153 150.765182 
L 152.826213 151.800269 
L 153.694273 148.707632 
L 154.562333 149.521816 
L 155.430394 146.586966 
L 156.298454 139.669556 
L 157.166514 143.229245 
L 158.034575 144.144413 
L 158.902635 140.401691 
L 159.770695 151.377398 
L 160.638755 146.56172 
L 161.506816 147.426396 
L 162.374876 143.866707 
L 163.242936 138.161106 
L 164.110997 135.207322 
L 164.979057 138.5966 
L 165.847117 133.276001 
L 166.715177 134.449941 
L 167.583238 129.804673 
L 168.451298 134.69609 
L 169.319358 126.144 
L 170.187419 135.245191 
L 171.055479 139.297177 
L 171.923539 134.727647 
L 172.791599 127.816549 
L 173.65966 128.554995 
L 174.52772 135.91421 
L 175.39578 132.550178 
L 176.263841 130.700907 
L 177.131901 133.938709 
L 177.999961 128.750652 
L 178.868021 133.963955 
L 179.736082 126.024081 
L 180.604142 124.0044 
L 181.472202 117.54773 
L 182.340263 124.919568 
L 183.208323 123.909727 
L 184.076383 123.859235 
L 184.944443 119.674707 
L 185.812504 127.892287 
L 186.680564 118.040027 
L 187.548624 116.664119 
L 188.416684 125.468669 
L 189.284745 123.499479 
L 190.152805 120.387907 
L 191.020865 118.664866 
L 191.888926 115.010505 
L 193.625046 121.915291 
L 194.493106 116.695676 
L 195.361167 113.577793 
L 196.229227 111.785325 
L 197.097287 113.041315 
L 197.965348 108.585392 
L 198.833408 111.810571 
L 199.701468 113.710334 
L 200.569528 113.508366 
L 201.437589 116.08346 
L 202.305649 113.722957 
L 203.173709 100.588715 
L 204.04177 99.850269 
L 204.90983 105.196114 
L 205.77789 106.477349 
L 206.64595 109.279658 
L 207.514011 120.533072 
L 208.382071 104.022174 
L 209.250131 110.586139 
L 210.118192 92.831875 
L 210.986252 98.518541 
L 211.854312 102.343313 
L 212.722372 101.876262 
L 213.590433 97.161567 
L 214.458493 95.993939 
L 215.326553 108.471785 
L 216.194614 97.893702 
L 217.062674 92.22597 
L 217.930734 103.302662 
L 218.798794 104.009551 
L 219.666855 104.880538 
L 220.534915 105.063572 
L 221.402975 95.690987 
L 222.271035 101.996181 
L 223.139096 101.945688 
L 224.007156 103.327908 
L 224.875216 110.245318 
L 225.743277 128.763275 
L 226.611337 139.417096 
L 227.479397 137.50471 
L 228.347457 139.013159 
L 229.215518 142.945227 
L 230.083578 139.871524 
L 230.951638 138.874306 
L 231.819699 133.560019 
L 232.687759 133.370674 
L 233.555819 133.679937 
L 234.423879 137.113396 
L 235.29194 126.611051 
L 236.16 130.031887 
L 237.02806 140.433248 
L 237.896121 135.175764 
L 238.764181 137.277495 
L 239.632241 138.400943 
L 240.500301 132.581735 
L 241.368362 128.125813 
L 242.236422 129.905657 
L 243.104482 128.151059 
L 243.972543 123.46161 
L 244.840603 130.410578 
L 245.708663 128.977866 
L 246.576723 122.224555 
L 248.312844 126.030393 
L 249.180904 121.599716 
L 250.048965 128.567618 
L 250.917025 124.162187 
L 251.785085 125.329816 
L 252.653145 130.347463 
L 253.521206 123.051362 
L 254.389266 129.381802 
L 255.257326 127.753434 
L 256.125386 127.601958 
L 256.993447 115.780508 
L 257.861507 124.50932 
L 258.729567 124.420959 
L 259.597628 134.61404 
L 260.465688 129.924592 
L 261.333748 116.260183 
L 262.201808 118.071585 
L 263.069869 124.667108 
L 263.937929 123.71407 
L 264.805989 129.444917 
L 265.67405 120.924385 
L 266.54211 127.728188 
L 267.41017 115.477556 
L 268.27823 123.575217 
L 269.146291 120.65299 
L 270.014351 123.758251 
L 270.882411 123.423741 
L 271.750472 134.241661 
L 272.618532 126.932938 
L 273.486592 140.48374 
L 274.354652 127.027611 
L 275.222713 132.259849 
L 276.090773 135.163141 
L 276.958833 128.340404 
L 277.826894 125.575965 
L 278.694954 125.834736 
L 279.563014 131.653944 
L 280.431074 119.47905 
L 281.299135 124.824895 
L 282.167195 125.525472 
L 283.035255 132.733212 
L 283.903316 126.932938 
L 284.771376 123.499479 
L 285.639436 121.997341 
L 286.507496 121.183157 
L 287.375557 132.240914 
L 288.243617 126.629986 
L 289.111677 125.273012 
L 289.979737 123.316446 
L 290.847798 123.733005 
L 291.715858 115.812066 
L 292.583918 128.353027 
L 293.451979 125.298258 
L 294.320039 133.597888 
L 295.188099 124.023334 
L 296.92422 119.428558 
L 297.79228 136.646345 
L 298.66034 123.404807 
L 299.528401 128.498191 
L 300.396461 129.571147 
L 301.264521 119.542165 
L 302.132581 117.894863 
L 303.000642 125.077356 
L 303.868702 116.613627 
L 304.736762 123.158658 
L 305.604823 119.258148 
L 306.472883 123.139723 
L 307.340943 121.776438 
L 308.209003 123.436364 
L 309.077064 116.108706 
L 309.945124 123.139723 
L 310.813184 112.76992 
L 311.681245 117.232154 
L 312.549305 116.133953 
L 313.417365 121.06955 
L 314.285425 120.488891 
L 315.153486 120.899139 
L 316.021546 111.040568 
L 316.889606 112.959265 
L 317.757667 105.107753 
L 318.625727 106.868663 
L 319.493787 111.980982 
L 320.361847 106.559399 
L 321.229908 107.329403 
L 322.097968 114.556076 
L 322.966028 114.846405 
L 323.834088 113.091807 
L 324.702149 112.397541 
L 325.570209 119.485362 
L 326.438269 110.794419 
L 327.30633 112.687871 
L 328.17439 129.192457 
L 329.04245 111.318274 
L 329.91051 107.020139 
L 330.778571 112.397541 
L 331.646631 115.124112 
L 332.514691 113.236972 
L 333.382752 103.877009 
L 334.250812 107.859569 
L 335.118872 107.430387 
L 335.986932 116.525266 
L 336.854993 106.622514 
L 337.723053 104.318815 
L 338.591113 103.119628 
L 339.459174 115.168292 
L 340.327234 100.77806 
L 341.195294 106.887597 
L 342.063354 100.254205 
L 342.931415 101.737409 
L 343.799475 107.600797 
L 344.667535 99.168626 
L 345.535596 109.184985 
L 346.403656 104.874227 
L 347.271716 90.75539 
L 348.139776 104.609144 
L 349.007837 101.358718 
L 349.875897 99.869203 
L 350.743957 107.291534 
L 351.612018 100.210025 
L 352.480078 104.55234 
L 353.348138 105.543247 
L 354.216198 94.031061 
L 355.084259 101.705851 
L 355.952319 96.151727 
L 356.820379 109.039821 
L 358.5565 100.790683 
L 359.42456 98.486984 
L 360.29262 104.527094 
L 361.160681 101.466014 
L 362.028741 94.182537 
L 362.896801 93.317861 
L 363.764861 94.289833 
L 364.632922 100.254205 
L 365.500982 99.755596 
L 366.369042 94.346636 
L 367.237103 109.601544 
L 368.105163 93.014908 
L 368.973223 99.989122 
L 369.841283 101.295603 
L 370.709344 90.951046 
L 371.577404 86.406762 
L 372.445464 106.237512 
L 373.313525 99.313791 
L 374.181585 83.932652 
L 375.049645 91.683181 
L 375.917705 97.369847 
L 376.785766 99.345348 
L 377.653826 91.418098 
L 378.521886 99.578874 
L 379.389947 98.297638 
L 380.258007 87.23357 
L 381.126067 86.678157 
L 381.994127 90.805882 
L 382.862188 90.199977 
L 383.730248 102.507412 
L 384.598308 96.972222 
L 385.466368 94.359259 
L 386.334429 96.959599 
L 387.202489 105.814641 
L 388.070549 88.413821 
L 388.93861 100.56978 
L 389.80667 83.926341 
L 390.67473 86.160614 
L 391.54279 90.357765 
L 392.410851 92.674087 
L 393.278911 90.995227 
L 394.146971 92.781383 
L 395.015032 94.176225 
L 395.883092 103.233236 
L 396.751152 102.583151 
L 397.619212 104.318815 
L 398.487273 99.345348 
L 398.487273 99.345348 
" style="fill:none;stroke:#1f77b4;stroke-linecap:square;stroke-width:1.5;"/>
   </g>
   <g id="line2d_20">
    <path clip-path="url(#pdad44d41d6)" d="M 73.832727 284.979344 
L 74.700788 274.533802 
L 75.568848 259.607092 
L 76.436908 242.6607 
L 77.304968 232.372947 
L 78.173029 227.260627 
L 79.041089 209.209722 
L 79.909149 200.594517 
L 80.77721 194.093667 
L 81.64527 194.188339 
L 82.51333 180.429258 
L 83.38139 163.924671 
L 84.249451 168.27961 
L 85.117511 156.477095 
L 85.985571 158.907024 
L 88.589752 138.426189 
L 89.457812 137.227003 
L 90.325873 132.051569 
L 91.193933 128.169993 
L 92.061993 129.369179 
L 92.930053 125.613834 
L 93.798114 126.686789 
L 94.666174 125.645391 
L 95.534234 165.72345 
L 96.402295 158.623007 
L 97.270355 144.106544 
L 98.138415 147.167624 
L 99.006475 148.11435 
L 99.874536 139.530703 
L 100.742596 136.879871 
L 101.610656 137.163888 
L 102.478717 125.550718 
L 103.346777 131.388861 
L 104.214837 128.895816 
L 105.082897 124.13063 
L 105.950958 122.016276 
L 106.819018 120.249054 
L 107.687078 113.085495 
L 108.555139 118.734293 
L 109.423199 111.886309 
L 110.291259 108.919902 
L 111.159319 113.842876 
L 112.02738 103.618237 
L 112.89544 102.766184 
L 113.7635 103.050202 
L 114.631561 100.462485 
L 115.499621 100.052237 
L 116.367681 98.190343 
L 118.103802 95.476396 
L 118.971862 93.235811 
L 119.839922 92.509988 
L 120.707982 91.058342 
L 121.576043 91.500147 
L 122.444103 91.373917 
L 123.312163 89.322678 
L 124.180224 88.470625 
L 125.916344 85.030854 
L 126.784404 84.147243 
L 127.652465 83.04273 
L 128.520525 82.190677 
L 129.388585 81.906659 
L 130.256646 80.896818 
L 131.124706 79.508287 
L 131.992766 80.297225 
L 132.860826 78.908694 
L 133.728887 79.508287 
L 134.596947 76.889012 
L 135.465007 78.245986 
L 136.333068 78.498446 
L 138.069188 78.277543 
L 138.937248 103.933813 
L 139.805309 106.237512 
L 140.673369 105.985052 
L 141.541429 103.618237 
L 142.40949 100.462485 
L 143.27755 100.998963 
L 144.14561 102.071919 
L 145.01367 100.967405 
L 145.881731 97.085829 
L 146.749791 98.411245 
L 147.617851 94.971475 
L 148.485912 97.622307 
L 149.353972 94.119422 
L 150.222032 94.624342 
L 151.090092 96.012873 
L 151.958153 92.762448 
L 152.826213 92.509988 
L 153.694273 87.713244 
L 154.562333 88.40751 
L 155.430394 91.941953 
L 156.298454 91.405475 
L 157.166514 87.429226 
L 158.034575 90.269404 
L 158.902635 94.466555 
L 159.770695 86.514058 
L 160.638755 84.115686 
L 161.506816 87.334554 
L 162.374876 83.452978 
L 163.242936 86.514058 
L 164.110997 85.535775 
L 165.847117 82.506252 
L 166.715177 82.66404 
L 167.583238 82.190677 
L 168.451298 82.380022 
L 169.319358 78.908694 
L 170.187419 81.969774 
L 171.055479 78.656234 
L 171.923539 78.814021 
L 172.791599 82.001332 
L 173.65966 80.076322 
L 174.52772 78.940252 
L 175.39578 77.393933 
L 176.263841 80.644358 
L 177.131901 76.952127 
L 177.999961 75.311136 
L 178.868021 78.088198 
L 179.736082 76.100074 
L 180.604142 76.79434 
L 181.472202 76.131632 
L 182.340263 72.597189 
L 183.208323 73.891047 
L 184.076383 73.512357 
L 184.944443 74.269738 
L 185.812504 72.534074 
L 186.680564 70.514392 
L 187.548624 70.893082 
L 188.416684 70.041029 
L 189.284745 67.86356 
L 190.152805 70.766852 
L 191.020865 67.705772 
L 191.888926 68.557825 
L 192.756986 66.727489 
L 193.625046 67.516427 
L 194.493106 67.611099 
L 195.361167 68.24225 
L 196.229227 66.506586 
L 197.097287 65.654533 
L 197.965348 67.358639 
L 198.833408 63.697966 
L 199.701468 65.654533 
L 200.569528 64.392232 
L 201.437589 63.413948 
L 202.305649 63.729524 
L 204.04177 62.025417 
L 204.90983 62.183205 
L 205.77789 61.804514 
L 206.64595 62.49878 
L 207.514011 61.804514 
L 208.382071 60.289753 
L 209.250131 59.94262 
L 210.118192 60.384426 
L 210.986252 58.869664 
L 211.854312 60.163523 
L 212.722372 59.911063 
L 213.590433 58.617204 
L 214.458493 59.595488 
L 215.326553 59.847948 
L 216.194614 58.333187 
L 217.062674 59.343027 
L 217.930734 59.406142 
L 218.798794 58.680319 
L 219.666855 59.122125 
L 220.534915 58.995895 
L 221.402975 58.333187 
L 222.271035 60.037293 
L 223.139096 59.05901 
L 224.007156 59.406142 
L 224.875216 58.175399 
L 225.743277 89.638253 
L 226.611337 86.324713 
L 227.479397 89.259563 
L 228.347457 90.458749 
L 229.215518 90.900554 
L 230.083578 89.827598 
L 230.951638 86.798076 
L 231.819699 82.79027 
L 232.687759 82.474694 
L 233.555819 88.439067 
L 234.423879 89.953828 
L 235.29194 83.957898 
L 236.16 81.180836 
L 237.02806 84.620606 
L 237.896121 79.666075 
L 238.764181 82.316907 
L 239.632241 82.853385 
L 240.500301 82.380022 
L 241.368362 83.705438 
L 242.236422 83.011172 
L 243.104482 82.474694 
L 243.972543 79.950092 
L 244.840603 83.232075 
L 245.708663 81.180836 
L 246.576723 80.581243 
L 247.444784 83.579208 
L 248.312844 77.204588 
L 249.180904 77.457048 
L 250.048965 76.636552 
L 250.917025 78.403774 
L 251.785085 77.17303 
L 252.653145 74.522198 
L 253.521206 81.149278 
L 254.389266 77.236145 
L 255.257326 77.141472 
L 256.125386 80.23411 
L 256.993447 80.170995 
L 257.861507 75.153348 
L 258.729567 74.585313 
L 259.597628 78.814021 
L 260.465688 76.289419 
L 261.333748 76.541879 
L 262.201808 73.133667 
L 263.069869 68.589383 
L 263.937929 72.754976 
L 264.805989 73.764817 
L 265.67405 73.607029 
L 266.54211 75.342693 
L 267.41017 70.609064 
L 268.27823 74.080392 
L 269.146291 70.514392 
L 270.014351 77.17303 
L 270.882411 70.198817 
L 271.750472 75.437366 
L 272.618532 77.141472 
L 273.486592 74.995561 
L 274.354652 74.61687 
L 275.222713 76.889012 
L 276.090773 74.679985 
L 276.958833 76.983685 
L 277.826894 69.157418 
L 278.694954 73.701702 
L 279.563014 77.015242 
L 280.431074 68.968073 
L 282.167195 75.374251 
L 283.035255 74.36441 
L 283.903316 70.514392 
L 284.771376 72.660304 
L 285.639436 70.577507 
L 286.507496 74.332853 
L 287.375557 73.73326 
L 288.243617 74.11195 
L 289.111677 72.849649 
L 289.979737 74.806215 
L 290.847798 70.198817 
L 291.715858 72.534074 
L 292.583918 69.851684 
L 293.451979 71.871366 
L 294.320039 77.236145 
L 295.188099 70.167259 
L 296.056159 69.946356 
L 296.92422 68.557825 
L 297.79228 73.922605 
L 298.66034 69.157418 
L 299.528401 67.547984 
L 300.396461 67.484869 
L 302.132581 69.220533 
L 303.000642 67.958232 
L 303.868702 69.188976 
L 304.736762 67.832002 
L 305.604823 71.745135 
L 306.472883 67.98979 
L 307.340943 68.74717 
L 308.209003 71.524233 
L 309.077064 71.42956 
L 309.945124 66.033223 
L 310.813184 67.547984 
L 311.681245 66.790604 
L 312.549305 71.587348 
L 313.417365 69.914799 
L 314.285425 65.465188 
L 315.153486 66.033223 
L 316.021546 65.622975 
L 316.889606 65.970108 
L 317.757667 65.118055 
L 318.625727 67.516427 
L 319.493787 66.222568 
L 320.361847 64.266002 
L 321.229908 64.991825 
L 322.097968 63.224603 
L 322.966028 64.92871 
L 323.834088 65.43363 
L 324.702149 64.329117 
L 325.570209 63.918869 
L 326.438269 64.234444 
L 327.30633 63.445506 
L 328.17439 64.423789 
L 329.04245 63.256161 
L 329.91051 63.477063 
L 330.778571 60.857789 
L 331.646631 60.321311 
L 332.514691 64.644692 
L 333.382752 62.561895 
L 334.250812 61.99386 
L 335.118872 61.583612 
L 335.986932 63.918869 
L 336.854993 61.110249 
L 337.723053 62.909028 
L 339.459174 61.331152 
L 340.327234 61.141806 
L 341.195294 62.340992 
L 342.063354 60.857789 
L 342.931415 61.204921 
L 343.799475 60.131966 
L 344.667535 62.088532 
L 345.535596 60.857789 
L 346.403656 59.279912 
L 347.271716 61.141806 
L 348.139776 59.248355 
L 349.007837 57.954496 
L 349.875897 59.153682 
L 350.743957 57.765151 
L 351.612018 60.195081 
L 352.480078 59.911063 
L 353.348138 60.447541 
L 354.216198 57.922939 
L 355.084259 57.481133 
L 355.952319 56.534408 
L 356.820379 57.512691 
L 357.688439 61.394267 
L 358.5565 56.565965 
L 359.42456 59.974178 
L 360.29262 58.901222 
L 361.160681 60.479098 
L 362.028741 55.966372 
L 362.896801 56.88154 
L 363.764861 56.75531 
L 364.632922 55.619239 
L 365.500982 57.449576 
L 366.369042 55.019646 
L 367.237103 54.988089 
L 368.105163 57.00777 
L 368.973223 56.313505 
L 369.841283 56.565965 
L 370.709344 54.988089 
L 371.577404 54.07292 
L 372.445464 57.702036 
L 373.313525 57.891381 
L 374.181585 56.092602 
L 375.049645 57.607363 
L 375.917705 58.080726 
L 376.785766 55.398337 
L 377.653826 56.50285 
L 378.521886 54.924974 
L 379.389947 54.830301 
L 380.258007 56.345062 
L 381.126067 55.240549 
L 381.994127 55.208991 
L 382.862188 54.07292 
L 383.730248 54.924974 
L 384.598308 54.735628 
L 385.466368 54.041363 
L 386.334429 54.041363 
L 387.202489 55.840142 
L 388.070549 56.061045 
L 388.93861 56.029487 
L 389.80667 54.798744 
L 390.67473 54.388496 
L 391.54279 54.577841 
L 392.410851 54.514726 
L 393.278911 53.568 
L 394.146971 55.524567 
L 395.015032 54.483168 
L 395.883092 54.293823 
L 396.751152 55.208991 
L 397.619212 55.051204 
L 398.487273 54.356938 
L 398.487273 54.356938 
" style="fill:none;stroke:#ff7f0e;stroke-linecap:square;stroke-width:1.5;"/>
   </g>
   <g id="line2d_21">
    <path clip-path="url(#pdad44d41d6)" d="M 73.832727 283.79499 
L 74.700788 268.182534 
L 75.568848 262.834165 
L 76.436908 239.863757 
L 77.304968 229.599355 
L 78.173029 231.990785 
L 79.041089 213.006724 
L 79.909149 206.495775 
L 80.77721 193.208478 
L 81.64527 201.629288 
L 82.51333 192.959173 
L 83.38139 190.717011 
L 84.249451 184.97007 
L 85.117511 171.267476 
L 85.985571 171.417059 
L 86.853632 178.758286 
L 87.721692 166.467577 
L 88.589752 158.146172 
L 89.457812 162.48123 
L 90.325873 158.378751 
L 91.193933 152.980836 
L 92.061993 153.645122 
L 94.666174 148.164211 
L 95.534234 186.664394 
L 96.402295 183.093344 
L 97.270355 171.350788 
L 98.138415 177.845012 
L 99.874536 166.700155 
L 100.742596 169.6896 
L 101.610656 155.655021 
L 103.346777 152.366411 
L 104.214837 154.741431 
L 105.082897 142.633439 
L 105.950958 152.798118 
L 106.819018 144.377308 
L 107.687078 149.492783 
L 108.555139 146.951771 
L 109.423199 138.730088 
L 110.291259 138.281656 
L 111.159319 139.793261 
L 112.02738 138.945942 
L 112.89544 133.166181 
L 113.7635 134.013185 
L 114.631561 133.69761 
L 115.499621 128.847533 
L 116.367681 125.858089 
L 117.235741 128.216383 
L 118.103802 126.754954 
L 118.971862 121.655889 
L 119.839922 124.496066 
L 120.707982 122.63575 
L 121.576043 116.35738 
L 122.444103 122.187317 
L 123.312163 120.493309 
L 124.180224 114.297936 
L 125.048284 118.400414 
L 125.916344 114.115218 
L 126.784404 110.793472 
L 127.652465 112.886052 
L 128.520525 111.906191 
L 129.388585 114.2648 
L 130.256646 110.64389 
L 131.124706 111.623751 
L 131.992766 108.767163 
L 132.860826 109.498036 
L 133.728887 109.165735 
L 134.596947 108.517859 
L 135.465007 109.979604 
L 136.333068 109.248731 
L 137.201128 109.414724 
L 138.069188 109.165735 
L 138.937248 139.278243 
L 139.805309 143.945285 
L 140.673369 145.490026 
L 141.541429 135.624197 
L 142.40949 139.4111 
L 143.27755 138.098938 
L 144.14561 129.312691 
L 145.01367 141.520405 
L 145.881731 127.502236 
L 147.617851 133.813741 
L 148.485912 133.74747 
L 149.353972 125.741642 
L 150.222032 126.173664 
L 151.090092 125.525788 
L 151.958153 127.834537 
L 152.826213 133.581162 
L 153.694273 122.3369 
L 154.562333 121.904877 
L 155.430394 125.525788 
L 156.298454 122.668885 
L 157.166514 125.874499 
L 158.034575 125.392931 
L 158.902635 131.970151 
L 159.770695 125.492653 
L 160.638755 119.895294 
L 161.506816 124.346483 
L 162.374876 123.200629 
L 163.242936 115.942398 
L 164.110997 120.792159 
L 164.979057 118.832437 
L 165.847117 120.84202 
L 166.715177 124.064043 
L 167.583238 115.493966 
L 168.451298 116.672955 
L 169.319358 117.503549 
L 170.187419 118.599858 
L 171.055479 118.167835 
L 171.923539 108.617581 
L 172.791599 120.576306 
L 173.65966 109.680754 
L 174.52772 113.450932 
L 175.39578 114.630236 
L 176.263841 120.227595 
L 177.131901 117.619681 
L 177.999961 113.06877 
L 178.868021 116.573549 
L 179.736082 115.294522 
L 180.604142 118.732715 
L 181.472202 114.082082 
L 182.340263 108.56772 
L 183.208323 116.075256 
L 184.076383 112.088909 
L 184.944443 109.14901 
L 185.812504 109.215596 
L 186.680564 105.328971 
L 187.548624 110.245318 
L 188.416684 106.690994 
L 189.284745 106.408554 
L 190.152805 110.62748 
L 191.020865 103.252801 
L 191.888926 104.880538 
L 192.756986 109.315318 
L 193.625046 103.20294 
L 194.493106 108.983017 
L 196.229227 101.824508 
L 197.097287 101.973775 
L 197.965348 104.232662 
L 198.833408 103.302662 
L 199.701468 103.219666 
L 200.569528 103.435519 
L 201.437589 102.106947 
L 202.305649 104.780817 
L 203.173709 94.533141 
L 204.04177 102.28935 
L 204.90983 97.157149 
L 205.77789 101.807782 
L 206.64595 98.63562 
L 207.514011 98.153736 
L 208.382071 99.150323 
L 209.250131 98.020879 
L 210.118192 99.665342 
L 210.986252 97.090879 
L 211.854312 99.548894 
L 212.722372 98.718616 
L 213.590433 96.725442 
L 215.326553 97.323458 
L 216.194614 96.492863 
L 217.930734 96.658856 
L 218.798794 96.027706 
L 219.666855 96.227149 
L 220.534915 96.227149 
L 221.402975 97.140739 
L 222.271035 97.439589 
L 223.139096 96.111017 
L 224.007156 97.406454 
L 224.875216 96.841574 
L 225.743277 126.024081 
L 226.611337 122.835193 
L 227.479397 124.097494 
L 228.347457 130.724575 
L 229.215518 131.471857 
L 230.083578 129.295966 
L 230.951638 123.698923 
L 231.819699 111.756608 
L 232.687759 117.287696 
L 233.555819 118.865572 
L 234.423879 132.850606 
L 235.29194 124.961224 
L 236.16 123.84819 
L 237.02806 125.392931 
L 237.896121 122.386761 
L 238.764181 121.273727 
L 239.632241 118.931843 
L 240.500301 121.024738 
L 241.368362 128.980391 
L 242.236422 115.859086 
L 243.104482 120.808885 
L 243.972543 123.83178 
L 244.840603 124.396344 
L 245.708663 119.04829 
L 246.576723 120.592715 
L 247.444784 121.689024 
L 248.312844 113.467657 
L 249.180904 122.901464 
L 250.048965 119.297279 
L 250.917025 112.985774 
L 251.785085 114.746368 
L 252.653145 115.410654 
L 253.521206 117.154839 
L 254.389266 115.892537 
L 255.257326 111.374762 
L 256.125386 117.121388 
L 256.993447 116.191387 
L 257.861507 116.805812 
L 258.729567 106.126114 
L 259.597628 117.819124 
L 260.465688 111.391487 
L 261.333748 118.284282 
L 262.201808 118.41714 
L 263.069869 111.939326 
L 263.937929 113.467657 
L 264.805989 108.318731 
L 265.67405 116.125116 
L 266.54211 108.434863 
L 267.41017 108.302006 
L 268.27823 111.27504 
L 269.146291 109.48131 
L 270.014351 116.025395 
L 270.882411 119.114561 
L 271.750472 109.979604 
L 272.618532 110.129186 
L 273.486592 112.637063 
L 274.354652 104.614824 
L 275.222713 112.338213 
L 276.090773 112.935913 
L 276.958833 113.766507 
L 277.826894 104.016809 
L 278.694954 113.932499 
L 279.563014 115.676684 
L 280.431074 108.667442 
L 281.299135 104.531745 
L 282.167195 111.241872 
L 283.035255 106.890255 
L 283.903316 107.288876 
L 284.771376 110.2121 
L 285.639436 104.465308 
L 286.507496 107.172611 
L 287.375557 107.139393 
L 288.243617 111.540838 
L 289.111677 113.135323 
L 289.979737 107.787153 
L 290.847798 106.807209 
L 291.715858 115.145039 
L 292.583918 107.770544 
L 293.451979 110.311755 
L 294.320039 110.511066 
L 295.188099 105.212723 
L 296.056159 105.146286 
L 296.92422 107.471578 
L 297.79228 116.506996 
L 298.66034 106.475024 
L 299.528401 102.322718 
L 300.396461 99.250011 
L 301.264521 105.49508 
L 302.132581 102.05697 
L 303.000642 104.515136 
L 303.868702 97.422997 
L 304.736762 109.763651 
L 305.604823 104.282606 
L 306.472883 103.418927 
L 307.340943 105.245941 
L 308.209003 107.753934 
L 309.077064 107.322094 
L 309.945124 102.571856 
L 310.813184 104.930366 
L 311.681245 112.720092 
L 312.549305 104.050077 
L 313.417365 106.840427 
L 314.285425 107.936636 
L 315.153486 108.717269 
L 316.021546 102.372546 
L 316.889606 101.193291 
L 317.757667 102.239672 
L 318.625727 102.189844 
L 319.493787 96.758628 
L 320.361847 101.741395 
L 321.229908 101.442429 
L 322.097968 99.847943 
L 322.966028 100.479094 
L 323.834088 95.695637 
L 324.702149 100.445876 
L 325.570209 100.479094 
L 326.438269 105.412034 
L 328.17439 95.41328 
L 329.04245 99.050701 
L 329.91051 101.708177 
L 330.778571 96.027822 
L 331.646631 93.420174 
L 332.514691 97.55587 
L 333.382752 98.63547 
L 334.250812 95.496327 
L 335.118872 95.928166 
L 335.986932 99.150356 
L 336.854993 89.84919 
L 337.723053 99.93099 
L 338.591113 97.074203 
L 339.459174 93.453392 
L 340.327234 97.240295 
L 341.195294 95.047878 
L 342.063354 92.174482 
L 342.931415 94.317072 
L 343.799475 95.41328 
L 344.667535 98.004319 
L 345.535596 93.685921 
L 346.403656 92.191091 
L 347.271716 96.742018 
L 348.139776 96.526099 
L 349.007837 88.869246 
L 349.875897 91.078273 
L 350.743957 93.602875 
L 351.612018 94.848567 
L 352.480078 95.313625 
L 353.348138 89.500397 
L 354.216198 90.978617 
L 355.084259 86.560564 
L 355.952319 90.563387 
L 356.820379 89.21804 
L 357.688439 92.739195 
L 358.5565 89.43396 
L 359.42456 95.147533 
L 360.29262 94.466555 
L 361.160681 92.157872 
L 362.028741 90.878962 
L 362.896801 88.719763 
L 363.764861 87.939129 
L 364.632922 90.181375 
L 365.500982 89.118384 
L 366.369042 87.806256 
L 367.237103 89.63327 
L 368.105163 88.686544 
L 368.973223 88.852637 
L 369.841283 88.470625 
L 370.709344 90.364076 
L 371.577404 86.311425 
L 372.445464 90.563387 
L 373.313525 91.011836 
L 374.181585 89.350913 
L 375.049645 89.051947 
L 376.785766 87.557117 
L 377.653826 88.005566 
L 378.521886 86.743265 
L 379.389947 86.793093 
L 380.258007 88.968901 
L 381.126067 88.35436 
L 381.994127 84.949469 
L 382.862188 86.078896 
L 383.730248 85.77993 
L 384.598308 87.009013 
L 385.466368 88.620108 
L 386.334429 87.50729 
L 388.070549 88.869246 
L 388.93861 85.813149 
L 389.80667 86.610391 
L 390.67473 85.397918 
L 391.54279 86.311425 
L 392.410851 87.606945 
L 394.146971 87.009013 
L 395.015032 86.64361 
L 395.883092 85.530792 
L 396.751152 88.221486 
L 397.619212 85.796539 
L 398.487273 87.307979 
L 398.487273 87.307979 
" style="fill:none;stroke:#2ca02c;stroke-linecap:square;stroke-width:1.5;"/>
   </g>
   <g id="line2d_22">
    <path clip-path="url(#pdad44d41d6)" d="M 73.832727 291.921999 
L 74.700788 288.229769 
L 75.568848 286.620335 
L 76.436908 282.612529 
L 77.304968 283.022777 
L 78.173029 281.949821 
L 79.041089 280.43506 
L 79.909149 278.478493 
L 80.77721 283.212122 
L 81.64527 268.727217 
L 82.51333 274.407572 
L 83.38139 264.466951 
L 84.249451 270.305094 
L 85.117511 261.248083 
L 85.985571 265.88704 
L 86.853632 271.725182 
L 87.721692 263.993588 
L 88.589752 265.63458 
L 89.457812 266.770651 
L 91.193933 262.668172 
L 92.061993 261.468986 
L 92.930053 263.109978 
L 93.798114 261.090296 
L 94.666174 262.44727 
L 95.534234 264.561624 
L 96.402295 256.072649 
L 97.270355 251.780825 
L 98.138415 253.453374 
L 99.006475 258.691924 
L 99.874536 259.575535 
L 100.742596 252.285746 
L 101.610656 247.615232 
L 102.478717 254.305428 
L 103.346777 254.210755 
L 104.214837 258.565694 
L 105.082897 249.666471 
L 105.950958 237.863956 
L 106.819018 250.234507 
L 107.687078 220.254856 
L 108.555139 250.455409 
L 109.423199 239.315602 
L 110.291259 242.723815 
L 111.159319 236.727885 
L 112.02738 224.325777 
L 112.89544 233.793035 
L 113.7635 228.049565 
L 114.631561 217.698697 
L 115.499621 229.753672 
L 116.367681 212.901953 
L 117.235741 235.718044 
L 118.103802 209.241279 
L 118.971862 218.866325 
L 119.839922 212.176129 
L 120.707982 219.592148 
L 121.576043 204.760111 
L 123.312163 220.917564 
L 124.180224 232.278274 
L 125.048284 202.487969 
L 125.916344 210.50358 
L 126.784404 221.23314 
L 127.652465 212.523262 
L 128.520525 223.915529 
L 129.388585 220.791334 
L 130.256646 213.596218 
L 131.124706 208.736359 
L 131.992766 229.816787 
L 132.860826 212.333917 
L 133.728887 207.31627 
L 134.596947 210.314235 
L 135.465007 209.083492 
L 136.333068 208.799474 
L 137.201128 210.37735 
L 138.069188 208.105208 
L 138.937248 233.572133 
L 139.805309 211.418749 
L 140.673369 235.970505 
L 141.541429 221.327812 
L 142.40949 220.033954 
L 143.27755 214.448271 
L 144.14561 243.702099 
L 145.881731 209.241279 
L 146.749791 231.773354 
L 147.617851 220.507316 
L 148.485912 229.722114 
L 149.353972 216.846643 
L 150.222032 221.61183 
L 151.090092 229.690557 
L 152.826213 206.779792 
L 153.694273 203.466252 
L 154.562333 234.234841 
L 156.298454 219.276573 
L 157.166514 219.402803 
L 158.034575 236.885673 
L 158.902635 245.784895 
L 159.770695 226.440131 
L 160.638755 225.682751 
L 161.506816 207.726518 
L 162.374876 202.046163 
L 163.242936 230.41638 
L 164.110997 200.278942 
L 164.979057 223.315936 
L 165.847117 213.05974 
L 166.715177 226.408574 
L 167.583238 221.86429 
L 168.451298 204.949456 
L 169.319358 214.069581 
L 170.187419 218.487635 
L 171.055479 213.469988 
L 171.923539 225.114715 
L 172.791599 223.663069 
L 173.65966 201.604358 
L 174.52772 231.868026 
L 175.39578 228.270468 
L 176.263841 227.292185 
L 177.131901 211.639651 
L 177.999961 201.5728 
L 178.868021 221.706502 
L 179.736082 213.249085 
L 180.604142 200.373614 
L 181.472202 210.345793 
L 182.340263 212.965068 
L 183.208323 214.826962 
L 184.076383 215.426555 
L 184.944443 180.618603 
L 185.812504 204.318305 
L 186.680564 205.107243 
L 187.548624 211.481864 
L 188.416684 228.743831 
L 189.284745 211.008501 
L 190.152805 208.452341 
L 191.020865 203.49781 
L 191.888926 207.474058 
L 192.756986 209.462182 
L 193.625046 201.699031 
L 194.493106 203.024447 
L 195.361167 202.361739 
L 196.229227 213.690891 
L 197.097287 192.200215 
L 197.965348 208.799474 
L 198.833408 210.314235 
L 199.701468 214.227369 
L 200.569528 204.886341 
L 201.437589 199.616234 
L 202.305649 222.684786 
L 203.173709 206.906022 
L 204.04177 201.257225 
L 204.90983 192.673578 
L 205.77789 196.050233 
L 207.514011 218.960998 
L 208.382071 204.223633 
L 209.250131 210.37735 
L 210.118192 202.803544 
L 210.986252 199.142871 
L 211.854312 203.466252 
L 212.722372 207.000695 
L 213.590433 199.458446 
L 214.458493 199.111313 
L 215.326553 213.154413 
L 216.194614 204.160518 
L 217.062674 201.919933 
L 217.930734 202.898217 
L 218.798794 206.874465 
L 219.666855 205.643721 
L 220.534915 204.886341 
L 221.402975 206.180199 
L 222.271035 211.923669 
L 223.139096 205.233474 
L 224.007156 200.626075 
L 224.875216 208.010536 
L 225.743277 208.673244 
L 226.611337 221.454042 
L 227.479397 222.369211 
L 228.347457 236.948788 
L 229.215518 240.925036 
L 230.083578 224.893813 
L 230.951638 226.377016 
L 231.819699 210.976943 
L 232.687759 222.400768 
L 233.555819 223.631512 
L 234.423879 233.950823 
L 235.29194 222.716343 
L 236.16 233.47746 
L 237.02806 218.392962 
L 237.896121 214.606059 
L 238.764181 224.641352 
L 239.632241 212.113014 
L 240.500301 215.36344 
L 241.368362 212.30236 
L 242.236422 219.434361 
L 243.104482 217.383121 
L 243.972543 243.134063 
L 244.840603 215.99459 
L 245.708663 216.594183 
L 246.576723 219.781493 
L 247.444784 210.408908 
L 248.312844 223.536839 
L 249.180904 220.065511 
L 250.048965 215.74213 
L 250.917025 223.063476 
L 251.785085 229.185636 
L 252.653145 202.614199 
L 253.521206 223.442166 
L 254.389266 202.077721 
L 255.257326 222.590113 
L 256.125386 205.990854 
L 256.993447 211.387191 
L 257.861507 212.333917 
L 258.729567 204.12896 
L 259.597628 233.85615 
L 260.465688 226.787264 
L 261.333748 224.231105 
L 262.201808 214.700732 
L 263.069869 189.8334 
L 263.937929 209.241279 
L 264.805989 213.122855 
L 265.67405 220.886007 
L 266.54211 217.004431 
L 267.41017 223.978644 
L 268.27823 214.763847 
L 269.146291 203.308464 
L 270.014351 226.377016 
L 270.882411 215.931475 
L 271.750472 215.584342 
L 272.618532 210.25112 
L 273.486592 219.339688 
L 274.354652 226.187671 
L 275.222713 222.874131 
L 276.090773 208.452341 
L 276.958833 210.976943 
L 277.826894 201.004765 
L 278.694954 213.028183 
L 279.563014 232.341389 
L 280.431074 191.916197 
L 281.299135 227.3553 
L 282.167195 208.231439 
L 283.035255 218.140502 
L 283.903316 220.191741 
L 284.771376 217.130661 
L 285.639436 226.976609 
L 286.507496 215.963033 
L 287.375557 221.706502 
L 288.243617 224.104875 
L 289.111677 220.475759 
L 289.979737 222.148308 
L 290.847798 209.903987 
L 291.715858 224.29422 
L 292.583918 221.580272 
L 293.451979 224.67291 
L 294.320039 226.503247 
L 295.188099 223.063476 
L 296.056159 194.251454 
L 296.92422 192.1371 
L 297.79228 217.982714 
L 298.66034 203.655597 
L 299.528401 215.6159 
L 300.396461 219.907723 
L 301.264521 208.831032 
L 302.132581 211.197846 
L 303.000642 219.718378 
L 303.868702 215.174094 
L 304.736762 225.398733 
L 305.604823 212.333917 
L 306.472883 210.819156 
L 307.340943 229.532769 
L 308.209003 218.55075 
L 309.077064 229.627442 
L 309.945124 206.969137 
L 310.813184 216.594183 
L 311.681245 211.828997 
L 312.549305 223.221264 
L 313.417365 221.99052 
L 314.285425 216.026148 
L 315.153486 205.896182 
L 316.021546 209.777757 
L 316.889606 210.50358 
L 317.757667 210.219563 
L 318.625727 213.974908 
L 319.493787 216.341723 
L 320.361847 205.769951 
L 321.229908 207.56873 
L 322.097968 200.342057 
L 322.966028 217.130661 
L 323.834088 200.81542 
L 324.702149 215.647457 
L 325.570209 210.882271 
L 326.438269 207.221598 
L 327.30633 205.233474 
L 328.17439 213.217528 
L 329.04245 215.773687 
L 329.91051 208.957262 
L 330.778571 213.722448 
L 331.646631 217.540909 
L 332.514691 208.767917 
L 333.382752 212.42859 
L 334.250812 205.896182 
L 335.118872 210.819156 
L 335.986932 209.840872 
L 336.854993 186.89855 
L 337.723053 199.332216 
L 338.591113 200.499845 
L 339.459174 203.119119 
L 340.327234 209.903987 
L 341.195294 215.079422 
L 342.063354 198.985083 
L 342.931415 206.842907 
L 343.799475 200.342057 
L 344.667535 204.065845 
L 345.535596 205.675279 
L 346.403656 205.675279 
L 347.271716 187.182568 
L 348.139776 208.105208 
L 349.007837 199.048198 
L 349.875897 207.978978 
L 350.743957 192.547348 
L 351.612018 196.397366 
L 352.480078 209.462182 
L 353.348138 206.148642 
L 354.216198 198.227703 
L 355.084259 208.073651 
L 355.952319 207.000695 
L 356.820379 206.274872 
L 357.688439 212.144572 
L 358.5565 208.610129 
L 359.42456 192.168657 
L 360.29262 201.32034 
L 361.160681 190.906356 
L 362.028741 195.766215 
L 362.896801 201.351898 
L 363.764861 193.998994 
L 364.632922 201.541243 
L 365.500982 210.188005 
L 366.369042 200.278942 
L 367.237103 199.205986 
L 368.105163 195.639985 
L 368.973223 201.793703 
L 369.841283 197.470322 
L 370.709344 195.639985 
L 371.577404 194.535472 
L 372.445464 207.694961 
L 373.313525 198.25926 
L 374.181585 192.926038 
L 375.917705 202.519526 
L 376.785766 202.393296 
L 377.653826 199.300658 
L 378.521886 197.75434 
L 379.389947 198.858853 
L 380.258007 194.598587 
L 381.126067 195.261295 
L 381.994127 198.448605 
L 382.862188 197.470322 
L 383.730248 200.910092 
L 385.466368 193.620304 
L 386.334429 193.935879 
L 387.202489 196.618269 
L 388.070549 196.744499 
L 388.93861 197.470322 
L 389.80667 189.959631 
L 390.67473 196.239578 
L 391.54279 195.892446 
L 392.410851 197.596552 
L 393.278911 198.069915 
L 394.146971 197.375649 
L 395.015032 198.227703 
L 395.883092 198.353933 
L 396.751152 189.58094 
L 397.619212 196.807614 
L 398.487273 194.156782 
L 398.487273 194.156782 
" style="fill:none;stroke:#d62728;stroke-linecap:square;stroke-width:1.5;"/>
   </g>
   <g id="patch_3">
    <path d="M 57.6 307.584 
L 57.6 41.472 
" style="fill:none;stroke:#000000;stroke-linecap:square;stroke-linejoin:miter;stroke-width:0.8;"/>
   </g>
   <g id="patch_4">
    <path d="M 414.72 307.584 
L 414.72 41.472 
" style="fill:none;stroke:#000000;stroke-linecap:square;stroke-linejoin:miter;stroke-width:0.8;"/>
   </g>
   <g id="patch_5">
    <path d="M 57.6 307.584 
L 414.72 307.584 
" style="fill:none;stroke:#000000;stroke-linecap:square;stroke-linejoin:miter;stroke-width:0.8;"/>
   </g>
   <g id="patch_6">
    <path d="M 57.6 41.472 
L 414.72 41.472 
" style="fill:none;stroke:#000000;stroke-linecap:square;stroke-linejoin:miter;stroke-width:0.8;"/>
   </g>
   <g id="text_21">
    <!-- Training and Validation Accuracy -->
    <g transform="translate(138.4575 35.472)scale(0.12 -0.12)">
     <defs>
      <path d="M -19 4666 
L 3928 4666 
L 3928 4134 
L 2272 4134 
L 2272 0 
L 1638 0 
L 1638 4134 
L -19 4134 
L -19 4666 
z
" id="DejaVuSans-54" transform="scale(0.015625)"/>
      <path d="M 603 3500 
L 1178 3500 
L 1178 0 
L 603 0 
L 603 3500 
z
M 603 4863 
L 1178 4863 
L 1178 4134 
L 603 4134 
L 603 4863 
z
" id="DejaVuSans-69" transform="scale(0.015625)"/>
      <path d="M 3513 2113 
L 3513 0 
L 2938 0 
L 2938 2094 
Q 2938 2591 2744 2837 
Q 2550 3084 2163 3084 
Q 1697 3084 1428 2787 
Q 1159 2491 1159 1978 
L 1159 0 
L 581 0 
L 581 3500 
L 1159 3500 
L 1159 2956 
Q 1366 3272 1645 3428 
Q 1925 3584 2291 3584 
Q 2894 3584 3203 3211 
Q 3513 2838 3513 2113 
z
" id="DejaVuSans-6e" transform="scale(0.015625)"/>
      <path d="M 2906 1791 
Q 2906 2416 2648 2759 
Q 2391 3103 1925 3103 
Q 1463 3103 1205 2759 
Q 947 2416 947 1791 
Q 947 1169 1205 825 
Q 1463 481 1925 481 
Q 2391 481 2648 825 
Q 2906 1169 2906 1791 
z
M 3481 434 
Q 3481 -459 3084 -895 
Q 2688 -1331 1869 -1331 
Q 1566 -1331 1297 -1286 
Q 1028 -1241 775 -1147 
L 775 -588 
Q 1028 -725 1275 -790 
Q 1522 -856 1778 -856 
Q 2344 -856 2625 -561 
Q 2906 -266 2906 331 
L 2906 616 
Q 2728 306 2450 153 
Q 2172 0 1784 0 
Q 1141 0 747 490 
Q 353 981 353 1791 
Q 353 2603 747 3093 
Q 1141 3584 1784 3584 
Q 2172 3584 2450 3431 
Q 2728 3278 2906 2969 
L 2906 3500 
L 3481 3500 
L 3481 434 
z
" id="DejaVuSans-67" transform="scale(0.015625)"/>
      <path id="DejaVuSans-20" transform="scale(0.015625)"/>
      <path d="M 2906 2969 
L 2906 4863 
L 3481 4863 
L 3481 0 
L 2906 0 
L 2906 525 
Q 2725 213 2448 61 
Q 2172 -91 1784 -91 
Q 1150 -91 751 415 
Q 353 922 353 1747 
Q 353 2572 751 3078 
Q 1150 3584 1784 3584 
Q 2172 3584 2448 3432 
Q 2725 3281 2906 2969 
z
M 947 1747 
Q 947 1113 1208 752 
Q 1469 391 1925 391 
Q 2381 391 2643 752 
Q 2906 1113 2906 1747 
Q 2906 2381 2643 2742 
Q 2381 3103 1925 3103 
Q 1469 3103 1208 2742 
Q 947 2381 947 1747 
z
" id="DejaVuSans-64" transform="scale(0.015625)"/>
      <path d="M 1831 0 
L 50 4666 
L 709 4666 
L 2188 738 
L 3669 4666 
L 4325 4666 
L 2547 0 
L 1831 0 
z
" id="DejaVuSans-56" transform="scale(0.015625)"/>
      <path d="M 603 4863 
L 1178 4863 
L 1178 0 
L 603 0 
L 603 4863 
z
" id="DejaVuSans-6c" transform="scale(0.015625)"/>
      <path d="M 1172 4494 
L 1172 3500 
L 2356 3500 
L 2356 3053 
L 1172 3053 
L 1172 1153 
Q 1172 725 1289 603 
Q 1406 481 1766 481 
L 2356 481 
L 2356 0 
L 1766 0 
Q 1100 0 847 248 
Q 594 497 594 1153 
L 594 3053 
L 172 3053 
L 172 3500 
L 594 3500 
L 594 4494 
L 1172 4494 
z
" id="DejaVuSans-74" transform="scale(0.015625)"/>
     </defs>
     <use xlink:href="#DejaVuSans-54"/>
     <use x="46.333984" xlink:href="#DejaVuSans-72"/>
     <use x="87.447266" xlink:href="#DejaVuSans-61"/>
     <use x="148.726562" xlink:href="#DejaVuSans-69"/>
     <use x="176.509766" xlink:href="#DejaVuSans-6e"/>
     <use x="239.888672" xlink:href="#DejaVuSans-69"/>
     <use x="267.671875" xlink:href="#DejaVuSans-6e"/>
     <use x="331.050781" xlink:href="#DejaVuSans-67"/>
     <use x="394.527344" xlink:href="#DejaVuSans-20"/>
     <use x="426.314453" xlink:href="#DejaVuSans-61"/>
     <use x="487.59375" xlink:href="#DejaVuSans-6e"/>
     <use x="550.972656" xlink:href="#DejaVuSans-64"/>
     <use x="614.449219" xlink:href="#DejaVuSans-20"/>
     <use x="646.236328" xlink:href="#DejaVuSans-56"/>
     <use x="706.894531" xlink:href="#DejaVuSans-61"/>
     <use x="768.173828" xlink:href="#DejaVuSans-6c"/>
     <use x="795.957031" xlink:href="#DejaVuSans-69"/>
     <use x="823.740234" xlink:href="#DejaVuSans-64"/>
     <use x="887.216797" xlink:href="#DejaVuSans-61"/>
     <use x="948.496094" xlink:href="#DejaVuSans-74"/>
     <use x="987.705078" xlink:href="#DejaVuSans-69"/>
     <use x="1015.488281" xlink:href="#DejaVuSans-6f"/>
     <use x="1076.669922" xlink:href="#DejaVuSans-6e"/>
     <use x="1140.048828" xlink:href="#DejaVuSans-20"/>
     <use x="1171.835938" xlink:href="#DejaVuSans-41"/>
     <use x="1238.494141" xlink:href="#DejaVuSans-63"/>
     <use x="1293.474609" xlink:href="#DejaVuSans-63"/>
     <use x="1348.455078" xlink:href="#DejaVuSans-75"/>
     <use x="1411.833984" xlink:href="#DejaVuSans-72"/>
     <use x="1452.947266" xlink:href="#DejaVuSans-61"/>
     <use x="1514.226562" xlink:href="#DejaVuSans-63"/>
     <use x="1569.207031" xlink:href="#DejaVuSans-79"/>
    </g>
   </g>
   <g id="legend_1">
    <g id="patch_7">
     <path d="M 217.996562 302.584 
L 407.72 302.584 
Q 409.72 302.584 409.72 300.584 
L 409.72 242.8715 
Q 409.72 240.8715 407.72 240.8715 
L 217.996562 240.8715 
Q 215.996562 240.8715 215.996562 242.8715 
L 215.996562 300.584 
Q 215.996562 302.584 217.996562 302.584 
z
" style="fill:#ffffff;opacity:0.8;stroke:#cccccc;stroke-linejoin:miter;"/>
    </g>
    <g id="line2d_23">
     <path d="M 219.996562 248.969937 
L 239.996562 248.969937 
" style="fill:none;stroke:#1f77b4;stroke-linecap:square;stroke-width:1.5;"/>
    </g>
    <g id="line2d_24"/>
    <g id="text_22">
     <!-- Train Accuracy -->
     <g transform="translate(247.996562 252.469937)scale(0.1 -0.1)">
      <use xlink:href="#DejaVuSans-54"/>
      <use x="46.333984" xlink:href="#DejaVuSans-72"/>
      <use x="87.447266" xlink:href="#DejaVuSans-61"/>
      <use x="148.726562" xlink:href="#DejaVuSans-69"/>
      <use x="176.509766" xlink:href="#DejaVuSans-6e"/>
      <use x="239.888672" xlink:href="#DejaVuSans-20"/>
      <use x="271.675781" xlink:href="#DejaVuSans-41"/>
      <use x="338.333984" xlink:href="#DejaVuSans-63"/>
      <use x="393.314453" xlink:href="#DejaVuSans-63"/>
      <use x="448.294922" xlink:href="#DejaVuSans-75"/>
      <use x="511.673828" xlink:href="#DejaVuSans-72"/>
      <use x="552.787109" xlink:href="#DejaVuSans-61"/>
      <use x="614.066406" xlink:href="#DejaVuSans-63"/>
      <use x="669.046875" xlink:href="#DejaVuSans-79"/>
     </g>
    </g>
    <g id="line2d_25">
     <path d="M 219.996562 263.648062 
L 239.996562 263.648062 
" style="fill:none;stroke:#ff7f0e;stroke-linecap:square;stroke-width:1.5;"/>
    </g>
    <g id="line2d_26"/>
    <g id="text_23">
     <!-- Validation Accuracy -->
     <g transform="translate(247.996562 267.148062)scale(0.1 -0.1)">
      <use xlink:href="#DejaVuSans-56"/>
      <use x="60.658203" xlink:href="#DejaVuSans-61"/>
      <use x="121.9375" xlink:href="#DejaVuSans-6c"/>
      <use x="149.720703" xlink:href="#DejaVuSans-69"/>
      <use x="177.503906" xlink:href="#DejaVuSans-64"/>
      <use x="240.980469" xlink:href="#DejaVuSans-61"/>
      <use x="302.259766" xlink:href="#DejaVuSans-74"/>
      <use x="341.46875" xlink:href="#DejaVuSans-69"/>
      <use x="369.251953" xlink:href="#DejaVuSans-6f"/>
      <use x="430.433594" xlink:href="#DejaVuSans-6e"/>
      <use x="493.8125" xlink:href="#DejaVuSans-20"/>
      <use x="525.599609" xlink:href="#DejaVuSans-41"/>
      <use x="592.257812" xlink:href="#DejaVuSans-63"/>
      <use x="647.238281" xlink:href="#DejaVuSans-63"/>
      <use x="702.21875" xlink:href="#DejaVuSans-75"/>
      <use x="765.597656" xlink:href="#DejaVuSans-72"/>
      <use x="806.710938" xlink:href="#DejaVuSans-61"/>
      <use x="867.990234" xlink:href="#DejaVuSans-63"/>
      <use x="922.970703" xlink:href="#DejaVuSans-79"/>
     </g>
    </g>
    <g id="line2d_27">
     <path d="M 219.996562 278.326187 
L 239.996562 278.326187 
" style="fill:none;stroke:#2ca02c;stroke-linecap:square;stroke-width:1.5;"/>
    </g>
    <g id="line2d_28"/>
    <g id="text_24">
     <!-- Robust Validation Accuracy -->
     <g transform="translate(247.996562 281.826187)scale(0.1 -0.1)">
      <defs>
       <path d="M 2841 2188 
Q 3044 2119 3236 1894 
Q 3428 1669 3622 1275 
L 4263 0 
L 3584 0 
L 2988 1197 
Q 2756 1666 2539 1819 
Q 2322 1972 1947 1972 
L 1259 1972 
L 1259 0 
L 628 0 
L 628 4666 
L 2053 4666 
Q 2853 4666 3247 4331 
Q 3641 3997 3641 3322 
Q 3641 2881 3436 2590 
Q 3231 2300 2841 2188 
z
M 1259 4147 
L 1259 2491 
L 2053 2491 
Q 2509 2491 2742 2702 
Q 2975 2913 2975 3322 
Q 2975 3731 2742 3939 
Q 2509 4147 2053 4147 
L 1259 4147 
z
" id="DejaVuSans-52" transform="scale(0.015625)"/>
       <path d="M 3116 1747 
Q 3116 2381 2855 2742 
Q 2594 3103 2138 3103 
Q 1681 3103 1420 2742 
Q 1159 2381 1159 1747 
Q 1159 1113 1420 752 
Q 1681 391 2138 391 
Q 2594 391 2855 752 
Q 3116 1113 3116 1747 
z
M 1159 2969 
Q 1341 3281 1617 3432 
Q 1894 3584 2278 3584 
Q 2916 3584 3314 3078 
Q 3713 2572 3713 1747 
Q 3713 922 3314 415 
Q 2916 -91 2278 -91 
Q 1894 -91 1617 61 
Q 1341 213 1159 525 
L 1159 0 
L 581 0 
L 581 4863 
L 1159 4863 
L 1159 2969 
z
" id="DejaVuSans-62" transform="scale(0.015625)"/>
      </defs>
      <use xlink:href="#DejaVuSans-52"/>
      <use x="64.982422" xlink:href="#DejaVuSans-6f"/>
      <use x="126.164062" xlink:href="#DejaVuSans-62"/>
      <use x="189.640625" xlink:href="#DejaVuSans-75"/>
      <use x="253.019531" xlink:href="#DejaVuSans-73"/>
      <use x="305.119141" xlink:href="#DejaVuSans-74"/>
      <use x="344.328125" xlink:href="#DejaVuSans-20"/>
      <use x="376.115234" xlink:href="#DejaVuSans-56"/>
      <use x="436.773438" xlink:href="#DejaVuSans-61"/>
      <use x="498.052734" xlink:href="#DejaVuSans-6c"/>
      <use x="525.835938" xlink:href="#DejaVuSans-69"/>
      <use x="553.619141" xlink:href="#DejaVuSans-64"/>
      <use x="617.095703" xlink:href="#DejaVuSans-61"/>
      <use x="678.375" xlink:href="#DejaVuSans-74"/>
      <use x="717.583984" xlink:href="#DejaVuSans-69"/>
      <use x="745.367188" xlink:href="#DejaVuSans-6f"/>
      <use x="806.548828" xlink:href="#DejaVuSans-6e"/>
      <use x="869.927734" xlink:href="#DejaVuSans-20"/>
      <use x="901.714844" xlink:href="#DejaVuSans-41"/>
      <use x="968.373047" xlink:href="#DejaVuSans-63"/>
      <use x="1023.353516" xlink:href="#DejaVuSans-63"/>
      <use x="1078.333984" xlink:href="#DejaVuSans-75"/>
      <use x="1141.712891" xlink:href="#DejaVuSans-72"/>
      <use x="1182.826172" xlink:href="#DejaVuSans-61"/>
      <use x="1244.105469" xlink:href="#DejaVuSans-63"/>
      <use x="1299.085938" xlink:href="#DejaVuSans-79"/>
     </g>
    </g>
    <g id="line2d_29">
     <path d="M 219.996562 293.004312 
L 239.996562 293.004312 
" style="fill:none;stroke:#d62728;stroke-linecap:square;stroke-width:1.5;"/>
    </g>
    <g id="line2d_30"/>
    <g id="text_25">
     <!-- Adversarial Validation Accuracy -->
     <g transform="translate(247.996562 296.504312)scale(0.1 -0.1)">
      <defs>
       <path d="M 191 3500 
L 800 3500 
L 1894 563 
L 2988 3500 
L 3597 3500 
L 2284 0 
L 1503 0 
L 191 3500 
z
" id="DejaVuSans-76" transform="scale(0.015625)"/>
       <path d="M 3597 1894 
L 3597 1613 
L 953 1613 
Q 991 1019 1311 708 
Q 1631 397 2203 397 
Q 2534 397 2845 478 
Q 3156 559 3463 722 
L 3463 178 
Q 3153 47 2828 -22 
Q 2503 -91 2169 -91 
Q 1331 -91 842 396 
Q 353 884 353 1716 
Q 353 2575 817 3079 
Q 1281 3584 2069 3584 
Q 2775 3584 3186 3129 
Q 3597 2675 3597 1894 
z
M 3022 2063 
Q 3016 2534 2758 2815 
Q 2500 3097 2075 3097 
Q 1594 3097 1305 2825 
Q 1016 2553 972 2059 
L 3022 2063 
z
" id="DejaVuSans-65" transform="scale(0.015625)"/>
      </defs>
      <use xlink:href="#DejaVuSans-41"/>
      <use x="66.658203" xlink:href="#DejaVuSans-64"/>
      <use x="130.134766" xlink:href="#DejaVuSans-76"/>
      <use x="189.314453" xlink:href="#DejaVuSans-65"/>
      <use x="250.837891" xlink:href="#DejaVuSans-72"/>
      <use x="291.951172" xlink:href="#DejaVuSans-73"/>
      <use x="344.050781" xlink:href="#DejaVuSans-61"/>
      <use x="405.330078" xlink:href="#DejaVuSans-72"/>
      <use x="446.443359" xlink:href="#DejaVuSans-69"/>
      <use x="474.226562" xlink:href="#DejaVuSans-61"/>
      <use x="535.505859" xlink:href="#DejaVuSans-6c"/>
      <use x="563.289062" xlink:href="#DejaVuSans-20"/>
      <use x="595.076172" xlink:href="#DejaVuSans-56"/>
      <use x="655.734375" xlink:href="#DejaVuSans-61"/>
      <use x="717.013672" xlink:href="#DejaVuSans-6c"/>
      <use x="744.796875" xlink:href="#DejaVuSans-69"/>
      <use x="772.580078" xlink:href="#DejaVuSans-64"/>
      <use x="836.056641" xlink:href="#DejaVuSans-61"/>
      <use x="897.335938" xlink:href="#DejaVuSans-74"/>
      <use x="936.544922" xlink:href="#DejaVuSans-69"/>
      <use x="964.328125" xlink:href="#DejaVuSans-6f"/>
      <use x="1025.509766" xlink:href="#DejaVuSans-6e"/>
      <use x="1088.888672" xlink:href="#DejaVuSans-20"/>
      <use x="1120.675781" xlink:href="#DejaVuSans-41"/>
      <use x="1187.333984" xlink:href="#DejaVuSans-63"/>
      <use x="1242.314453" xlink:href="#DejaVuSans-63"/>
      <use x="1297.294922" xlink:href="#DejaVuSans-75"/>
      <use x="1360.673828" xlink:href="#DejaVuSans-72"/>
      <use x="1401.787109" xlink:href="#DejaVuSans-61"/>
      <use x="1463.066406" xlink:href="#DejaVuSans-63"/>
      <use x="1518.046875" xlink:href="#DejaVuSans-79"/>
     </g>
    </g>
   </g>
  </g>
 </g>
 <defs>
  <clipPath id="pdad44d41d6">
   <rect height="266.112" width="357.12" x="57.6" y="41.472"/>
  </clipPath>
 </defs>
</svg>
