<?xml version="1.0" encoding="utf-8" standalone="no"?>
<!DOCTYPE svg PUBLIC "-//W3C//DTD SVG 1.1//EN"
  "http://www.w3.org/Graphics/SVG/1.1/DTD/svg11.dtd">
<svg height="345.6pt" version="1.1" viewBox="0 0 460.8 345.6" width="460.8pt" xmlns="http://www.w3.org/2000/svg" xmlns:xlink="http://www.w3.org/1999/xlink">
 <metadata>
  <rdf:RDF xmlns:cc="http://creativecommons.org/ns#" xmlns:dc="http://purl.org/dc/elements/1.1/" xmlns:rdf="http://www.w3.org/1999/02/22-rdf-syntax-ns#">
   <cc:Work>
    <dc:type rdf:resource="http://purl.org/dc/dcmitype/StillImage"/>
    <dc:date>2024-03-24T02:09:55.943773</dc:date>
    <dc:format>image/svg+xml</dc:format>
    <dc:creator>
     <cc:Agent>
      <dc:title>Matplotlib v3.4.3, https://matplotlib.org/</dc:title>
     </cc:Agent>
    </dc:creator>
   </cc:Work>
  </rdf:RDF>
 </metadata>
 <defs>
  <style type="text/css">*{stroke-linecap:butt;stroke-linejoin:round;}</style>
 </defs>
 <g id="figure_1">
  <g id="patch_1">
   <path d="M 0 345.6 
L 460.8 345.6 
L 460.8 0 
L 0 0 
z
" style="fill:#ffffff;"/>
  </g>
  <g id="axes_1">
   <g id="patch_2">
    <path d="M 57.6 307.584 
L 414.72 307.584 
L 414.72 41.472 
L 57.6 41.472 
z
" style="fill:#ffffff;"/>
   </g>
   <g id="matplotlib.axis_1">
    <g id="xtick_1">
     <g id="line2d_1">
      <defs>
       <path d="M 0 0 
L 0 3.5 
" id="m485cbb0001" style="stroke:#000000;stroke-width:0.8;"/>
      </defs>
      <g>
       <use style="stroke:#000000;stroke-width:0.8;" x="73.832727" xlink:href="#m485cbb0001" y="307.584"/>
      </g>
     </g>
     <g id="text_1">
      <!-- 1 -->
      <g transform="translate(70.651477 322.182437)scale(0.1 -0.1)">
       <defs>
        <path d="M 794 531 
L 1825 531 
L 1825 4091 
L 703 3866 
L 703 4441 
L 1819 4666 
L 2450 4666 
L 2450 531 
L 3481 531 
L 3481 0 
L 794 0 
L 794 531 
z
" id="DejaVuSans-31" transform="scale(0.015625)"/>
       </defs>
       <use xlink:href="#DejaVuSans-31"/>
      </g>
     </g>
    </g>
    <g id="xtick_2">
     <g id="line2d_2">
      <g>
       <use style="stroke:#000000;stroke-width:0.8;" x="109.423199" xlink:href="#m485cbb0001" y="307.584"/>
      </g>
     </g>
     <g id="text_2">
      <!-- 42 -->
      <g transform="translate(103.060699 322.182437)scale(0.1 -0.1)">
       <defs>
        <path d="M 2419 4116 
L 825 1625 
L 2419 1625 
L 2419 4116 
z
M 2253 4666 
L 3047 4666 
L 3047 1625 
L 3713 1625 
L 3713 1100 
L 3047 1100 
L 3047 0 
L 2419 0 
L 2419 1100 
L 313 1100 
L 313 1709 
L 2253 4666 
z
" id="DejaVuSans-34" transform="scale(0.015625)"/>
        <path d="M 1228 531 
L 3431 531 
L 3431 0 
L 469 0 
L 469 531 
Q 828 903 1448 1529 
Q 2069 2156 2228 2338 
Q 2531 2678 2651 2914 
Q 2772 3150 2772 3378 
Q 2772 3750 2511 3984 
Q 2250 4219 1831 4219 
Q 1534 4219 1204 4116 
Q 875 4013 500 3803 
L 500 4441 
Q 881 4594 1212 4672 
Q 1544 4750 1819 4750 
Q 2544 4750 2975 4387 
Q 3406 4025 3406 3419 
Q 3406 3131 3298 2873 
Q 3191 2616 2906 2266 
Q 2828 2175 2409 1742 
Q 1991 1309 1228 531 
z
" id="DejaVuSans-32" transform="scale(0.015625)"/>
       </defs>
       <use xlink:href="#DejaVuSans-34"/>
       <use x="63.623047" xlink:href="#DejaVuSans-32"/>
      </g>
     </g>
    </g>
    <g id="xtick_3">
     <g id="line2d_3">
      <g>
       <use style="stroke:#000000;stroke-width:0.8;" x="145.881731" xlink:href="#m485cbb0001" y="307.584"/>
      </g>
     </g>
     <g id="text_3">
      <!-- 84 -->
      <g transform="translate(139.519231 322.182437)scale(0.1 -0.1)">
       <defs>
        <path d="M 2034 2216 
Q 1584 2216 1326 1975 
Q 1069 1734 1069 1313 
Q 1069 891 1326 650 
Q 1584 409 2034 409 
Q 2484 409 2743 651 
Q 3003 894 3003 1313 
Q 3003 1734 2745 1975 
Q 2488 2216 2034 2216 
z
M 1403 2484 
Q 997 2584 770 2862 
Q 544 3141 544 3541 
Q 544 4100 942 4425 
Q 1341 4750 2034 4750 
Q 2731 4750 3128 4425 
Q 3525 4100 3525 3541 
Q 3525 3141 3298 2862 
Q 3072 2584 2669 2484 
Q 3125 2378 3379 2068 
Q 3634 1759 3634 1313 
Q 3634 634 3220 271 
Q 2806 -91 2034 -91 
Q 1263 -91 848 271 
Q 434 634 434 1313 
Q 434 1759 690 2068 
Q 947 2378 1403 2484 
z
M 1172 3481 
Q 1172 3119 1398 2916 
Q 1625 2713 2034 2713 
Q 2441 2713 2670 2916 
Q 2900 3119 2900 3481 
Q 2900 3844 2670 4047 
Q 2441 4250 2034 4250 
Q 1625 4250 1398 4047 
Q 1172 3844 1172 3481 
z
" id="DejaVuSans-38" transform="scale(0.015625)"/>
       </defs>
       <use xlink:href="#DejaVuSans-38"/>
       <use x="63.623047" xlink:href="#DejaVuSans-34"/>
      </g>
     </g>
    </g>
    <g id="xtick_4">
     <g id="line2d_4">
      <g>
       <use style="stroke:#000000;stroke-width:0.8;" x="181.472202" xlink:href="#m485cbb0001" y="307.584"/>
      </g>
     </g>
     <g id="text_4">
      <!-- 125 -->
      <g transform="translate(171.928452 322.182437)scale(0.1 -0.1)">
       <defs>
        <path d="M 691 4666 
L 3169 4666 
L 3169 4134 
L 1269 4134 
L 1269 2991 
Q 1406 3038 1543 3061 
Q 1681 3084 1819 3084 
Q 2600 3084 3056 2656 
Q 3513 2228 3513 1497 
Q 3513 744 3044 326 
Q 2575 -91 1722 -91 
Q 1428 -91 1123 -41 
Q 819 9 494 109 
L 494 744 
Q 775 591 1075 516 
Q 1375 441 1709 441 
Q 2250 441 2565 725 
Q 2881 1009 2881 1497 
Q 2881 1984 2565 2268 
Q 2250 2553 1709 2553 
Q 1456 2553 1204 2497 
Q 953 2441 691 2322 
L 691 4666 
z
" id="DejaVuSans-35" transform="scale(0.015625)"/>
       </defs>
       <use xlink:href="#DejaVuSans-31"/>
       <use x="63.623047" xlink:href="#DejaVuSans-32"/>
       <use x="127.246094" xlink:href="#DejaVuSans-35"/>
      </g>
     </g>
    </g>
    <g id="xtick_5">
     <g id="line2d_5">
      <g>
       <use style="stroke:#000000;stroke-width:0.8;" x="217.930734" xlink:href="#m485cbb0001" y="307.584"/>
      </g>
     </g>
     <g id="text_5">
      <!-- 167 -->
      <g transform="translate(208.386984 322.182437)scale(0.1 -0.1)">
       <defs>
        <path d="M 2113 2584 
Q 1688 2584 1439 2293 
Q 1191 2003 1191 1497 
Q 1191 994 1439 701 
Q 1688 409 2113 409 
Q 2538 409 2786 701 
Q 3034 994 3034 1497 
Q 3034 2003 2786 2293 
Q 2538 2584 2113 2584 
z
M 3366 4563 
L 3366 3988 
Q 3128 4100 2886 4159 
Q 2644 4219 2406 4219 
Q 1781 4219 1451 3797 
Q 1122 3375 1075 2522 
Q 1259 2794 1537 2939 
Q 1816 3084 2150 3084 
Q 2853 3084 3261 2657 
Q 3669 2231 3669 1497 
Q 3669 778 3244 343 
Q 2819 -91 2113 -91 
Q 1303 -91 875 529 
Q 447 1150 447 2328 
Q 447 3434 972 4092 
Q 1497 4750 2381 4750 
Q 2619 4750 2861 4703 
Q 3103 4656 3366 4563 
z
" id="DejaVuSans-36" transform="scale(0.015625)"/>
        <path d="M 525 4666 
L 3525 4666 
L 3525 4397 
L 1831 0 
L 1172 0 
L 2766 4134 
L 525 4134 
L 525 4666 
z
" id="DejaVuSans-37" transform="scale(0.015625)"/>
       </defs>
       <use xlink:href="#DejaVuSans-31"/>
       <use x="63.623047" xlink:href="#DejaVuSans-36"/>
       <use x="127.246094" xlink:href="#DejaVuSans-37"/>
      </g>
     </g>
    </g>
    <g id="xtick_6">
     <g id="line2d_6">
      <g>
       <use style="stroke:#000000;stroke-width:0.8;" x="253.521206" xlink:href="#m485cbb0001" y="307.584"/>
      </g>
     </g>
     <g id="text_6">
      <!-- 208 -->
      <g transform="translate(243.977456 322.182437)scale(0.1 -0.1)">
       <defs>
        <path d="M 2034 4250 
Q 1547 4250 1301 3770 
Q 1056 3291 1056 2328 
Q 1056 1369 1301 889 
Q 1547 409 2034 409 
Q 2525 409 2770 889 
Q 3016 1369 3016 2328 
Q 3016 3291 2770 3770 
Q 2525 4250 2034 4250 
z
M 2034 4750 
Q 2819 4750 3233 4129 
Q 3647 3509 3647 2328 
Q 3647 1150 3233 529 
Q 2819 -91 2034 -91 
Q 1250 -91 836 529 
Q 422 1150 422 2328 
Q 422 3509 836 4129 
Q 1250 4750 2034 4750 
z
" id="DejaVuSans-30" transform="scale(0.015625)"/>
       </defs>
       <use xlink:href="#DejaVuSans-32"/>
       <use x="63.623047" xlink:href="#DejaVuSans-30"/>
       <use x="127.246094" xlink:href="#DejaVuSans-38"/>
      </g>
     </g>
    </g>
    <g id="xtick_7">
     <g id="line2d_7">
      <g>
       <use style="stroke:#000000;stroke-width:0.8;" x="289.979737" xlink:href="#m485cbb0001" y="307.584"/>
      </g>
     </g>
     <g id="text_7">
      <!-- 250 -->
      <g transform="translate(280.435987 322.182437)scale(0.1 -0.1)">
       <use xlink:href="#DejaVuSans-32"/>
       <use x="63.623047" xlink:href="#DejaVuSans-35"/>
       <use x="127.246094" xlink:href="#DejaVuSans-30"/>
      </g>
     </g>
    </g>
    <g id="xtick_8">
     <g id="line2d_8">
      <g>
       <use style="stroke:#000000;stroke-width:0.8;" x="325.570209" xlink:href="#m485cbb0001" y="307.584"/>
      </g>
     </g>
     <g id="text_8">
      <!-- 291 -->
      <g transform="translate(316.026459 322.182437)scale(0.1 -0.1)">
       <defs>
        <path d="M 703 97 
L 703 672 
Q 941 559 1184 500 
Q 1428 441 1663 441 
Q 2288 441 2617 861 
Q 2947 1281 2994 2138 
Q 2813 1869 2534 1725 
Q 2256 1581 1919 1581 
Q 1219 1581 811 2004 
Q 403 2428 403 3163 
Q 403 3881 828 4315 
Q 1253 4750 1959 4750 
Q 2769 4750 3195 4129 
Q 3622 3509 3622 2328 
Q 3622 1225 3098 567 
Q 2575 -91 1691 -91 
Q 1453 -91 1209 -44 
Q 966 3 703 97 
z
M 1959 2075 
Q 2384 2075 2632 2365 
Q 2881 2656 2881 3163 
Q 2881 3666 2632 3958 
Q 2384 4250 1959 4250 
Q 1534 4250 1286 3958 
Q 1038 3666 1038 3163 
Q 1038 2656 1286 2365 
Q 1534 2075 1959 2075 
z
" id="DejaVuSans-39" transform="scale(0.015625)"/>
       </defs>
       <use xlink:href="#DejaVuSans-32"/>
       <use x="63.623047" xlink:href="#DejaVuSans-39"/>
       <use x="127.246094" xlink:href="#DejaVuSans-31"/>
      </g>
     </g>
    </g>
    <g id="xtick_9">
     <g id="line2d_9">
      <g>
       <use style="stroke:#000000;stroke-width:0.8;" x="362.028741" xlink:href="#m485cbb0001" y="307.584"/>
      </g>
     </g>
     <g id="text_9">
      <!-- 333 -->
      <g transform="translate(352.484991 322.182437)scale(0.1 -0.1)">
       <defs>
        <path d="M 2597 2516 
Q 3050 2419 3304 2112 
Q 3559 1806 3559 1356 
Q 3559 666 3084 287 
Q 2609 -91 1734 -91 
Q 1441 -91 1130 -33 
Q 819 25 488 141 
L 488 750 
Q 750 597 1062 519 
Q 1375 441 1716 441 
Q 2309 441 2620 675 
Q 2931 909 2931 1356 
Q 2931 1769 2642 2001 
Q 2353 2234 1838 2234 
L 1294 2234 
L 1294 2753 
L 1863 2753 
Q 2328 2753 2575 2939 
Q 2822 3125 2822 3475 
Q 2822 3834 2567 4026 
Q 2313 4219 1838 4219 
Q 1578 4219 1281 4162 
Q 984 4106 628 3988 
L 628 4550 
Q 988 4650 1302 4700 
Q 1616 4750 1894 4750 
Q 2613 4750 3031 4423 
Q 3450 4097 3450 3541 
Q 3450 3153 3228 2886 
Q 3006 2619 2597 2516 
z
" id="DejaVuSans-33" transform="scale(0.015625)"/>
       </defs>
       <use xlink:href="#DejaVuSans-33"/>
       <use x="63.623047" xlink:href="#DejaVuSans-33"/>
       <use x="127.246094" xlink:href="#DejaVuSans-33"/>
      </g>
     </g>
    </g>
    <g id="xtick_10">
     <g id="line2d_10">
      <g>
       <use style="stroke:#000000;stroke-width:0.8;" x="398.487273" xlink:href="#m485cbb0001" y="307.584"/>
      </g>
     </g>
     <g id="text_10">
      <!-- 375 -->
      <g transform="translate(388.943523 322.182437)scale(0.1 -0.1)">
       <use xlink:href="#DejaVuSans-33"/>
       <use x="63.623047" xlink:href="#DejaVuSans-37"/>
       <use x="127.246094" xlink:href="#DejaVuSans-35"/>
      </g>
     </g>
    </g>
    <g id="text_11">
     <!-- Epochs -->
     <g transform="translate(218.244375 335.860562)scale(0.1 -0.1)">
      <defs>
       <path d="M 628 4666 
L 3578 4666 
L 3578 4134 
L 1259 4134 
L 1259 2753 
L 3481 2753 
L 3481 2222 
L 1259 2222 
L 1259 531 
L 3634 531 
L 3634 0 
L 628 0 
L 628 4666 
z
" id="DejaVuSans-45" transform="scale(0.015625)"/>
       <path d="M 1159 525 
L 1159 -1331 
L 581 -1331 
L 581 3500 
L 1159 3500 
L 1159 2969 
Q 1341 3281 1617 3432 
Q 1894 3584 2278 3584 
Q 2916 3584 3314 3078 
Q 3713 2572 3713 1747 
Q 3713 922 3314 415 
Q 2916 -91 2278 -91 
Q 1894 -91 1617 61 
Q 1341 213 1159 525 
z
M 3116 1747 
Q 3116 2381 2855 2742 
Q 2594 3103 2138 3103 
Q 1681 3103 1420 2742 
Q 1159 2381 1159 1747 
Q 1159 1113 1420 752 
Q 1681 391 2138 391 
Q 2594 391 2855 752 
Q 3116 1113 3116 1747 
z
" id="DejaVuSans-70" transform="scale(0.015625)"/>
       <path d="M 1959 3097 
Q 1497 3097 1228 2736 
Q 959 2375 959 1747 
Q 959 1119 1226 758 
Q 1494 397 1959 397 
Q 2419 397 2687 759 
Q 2956 1122 2956 1747 
Q 2956 2369 2687 2733 
Q 2419 3097 1959 3097 
z
M 1959 3584 
Q 2709 3584 3137 3096 
Q 3566 2609 3566 1747 
Q 3566 888 3137 398 
Q 2709 -91 1959 -91 
Q 1206 -91 779 398 
Q 353 888 353 1747 
Q 353 2609 779 3096 
Q 1206 3584 1959 3584 
z
" id="DejaVuSans-6f" transform="scale(0.015625)"/>
       <path d="M 3122 3366 
L 3122 2828 
Q 2878 2963 2633 3030 
Q 2388 3097 2138 3097 
Q 1578 3097 1268 2742 
Q 959 2388 959 1747 
Q 959 1106 1268 751 
Q 1578 397 2138 397 
Q 2388 397 2633 464 
Q 2878 531 3122 666 
L 3122 134 
Q 2881 22 2623 -34 
Q 2366 -91 2075 -91 
Q 1284 -91 818 406 
Q 353 903 353 1747 
Q 353 2603 823 3093 
Q 1294 3584 2113 3584 
Q 2378 3584 2631 3529 
Q 2884 3475 3122 3366 
z
" id="DejaVuSans-63" transform="scale(0.015625)"/>
       <path d="M 3513 2113 
L 3513 0 
L 2938 0 
L 2938 2094 
Q 2938 2591 2744 2837 
Q 2550 3084 2163 3084 
Q 1697 3084 1428 2787 
Q 1159 2491 1159 1978 
L 1159 0 
L 581 0 
L 581 4863 
L 1159 4863 
L 1159 2956 
Q 1366 3272 1645 3428 
Q 1925 3584 2291 3584 
Q 2894 3584 3203 3211 
Q 3513 2838 3513 2113 
z
" id="DejaVuSans-68" transform="scale(0.015625)"/>
       <path d="M 2834 3397 
L 2834 2853 
Q 2591 2978 2328 3040 
Q 2066 3103 1784 3103 
Q 1356 3103 1142 2972 
Q 928 2841 928 2578 
Q 928 2378 1081 2264 
Q 1234 2150 1697 2047 
L 1894 2003 
Q 2506 1872 2764 1633 
Q 3022 1394 3022 966 
Q 3022 478 2636 193 
Q 2250 -91 1575 -91 
Q 1294 -91 989 -36 
Q 684 19 347 128 
L 347 722 
Q 666 556 975 473 
Q 1284 391 1588 391 
Q 1994 391 2212 530 
Q 2431 669 2431 922 
Q 2431 1156 2273 1281 
Q 2116 1406 1581 1522 
L 1381 1569 
Q 847 1681 609 1914 
Q 372 2147 372 2553 
Q 372 3047 722 3315 
Q 1072 3584 1716 3584 
Q 2034 3584 2315 3537 
Q 2597 3491 2834 3397 
z
" id="DejaVuSans-73" transform="scale(0.015625)"/>
      </defs>
      <use xlink:href="#DejaVuSans-45"/>
      <use x="63.183594" xlink:href="#DejaVuSans-70"/>
      <use x="126.660156" xlink:href="#DejaVuSans-6f"/>
      <use x="187.841797" xlink:href="#DejaVuSans-63"/>
      <use x="242.822266" xlink:href="#DejaVuSans-68"/>
      <use x="306.201172" xlink:href="#DejaVuSans-73"/>
     </g>
    </g>
   </g>
   <g id="matplotlib.axis_2">
    <g id="ytick_1">
     <g id="line2d_11">
      <defs>
       <path d="M 0 0 
L -3.5 0 
" id="m99c26640f3" style="stroke:#000000;stroke-width:0.8;"/>
      </defs>
      <g>
       <use style="stroke:#000000;stroke-width:0.8;" x="57.6" xlink:href="#m99c26640f3" y="279.080146"/>
      </g>
     </g>
     <g id="text_12">
      <!-- 10 -->
      <g transform="translate(37.875 282.879365)scale(0.1 -0.1)">
       <use xlink:href="#DejaVuSans-31"/>
       <use x="63.623047" xlink:href="#DejaVuSans-30"/>
      </g>
     </g>
    </g>
    <g id="ytick_2">
     <g id="line2d_12">
      <g>
       <use style="stroke:#000000;stroke-width:0.8;" x="57.6" xlink:href="#m99c26640f3" y="247.133391"/>
      </g>
     </g>
     <g id="text_13">
      <!-- 20 -->
      <g transform="translate(37.875 250.93261)scale(0.1 -0.1)">
       <use xlink:href="#DejaVuSans-32"/>
       <use x="63.623047" xlink:href="#DejaVuSans-30"/>
      </g>
     </g>
    </g>
    <g id="ytick_3">
     <g id="line2d_13">
      <g>
       <use style="stroke:#000000;stroke-width:0.8;" x="57.6" xlink:href="#m99c26640f3" y="215.186636"/>
      </g>
     </g>
     <g id="text_14">
      <!-- 30 -->
      <g transform="translate(37.875 218.985854)scale(0.1 -0.1)">
       <use xlink:href="#DejaVuSans-33"/>
       <use x="63.623047" xlink:href="#DejaVuSans-30"/>
      </g>
     </g>
    </g>
    <g id="ytick_4">
     <g id="line2d_14">
      <g>
       <use style="stroke:#000000;stroke-width:0.8;" x="57.6" xlink:href="#m99c26640f3" y="183.23988"/>
      </g>
     </g>
     <g id="text_15">
      <!-- 40 -->
      <g transform="translate(37.875 187.039099)scale(0.1 -0.1)">
       <use xlink:href="#DejaVuSans-34"/>
       <use x="63.623047" xlink:href="#DejaVuSans-30"/>
      </g>
     </g>
    </g>
    <g id="ytick_5">
     <g id="line2d_15">
      <g>
       <use style="stroke:#000000;stroke-width:0.8;" x="57.6" xlink:href="#m99c26640f3" y="151.293125"/>
      </g>
     </g>
     <g id="text_16">
      <!-- 50 -->
      <g transform="translate(37.875 155.092344)scale(0.1 -0.1)">
       <use xlink:href="#DejaVuSans-35"/>
       <use x="63.623047" xlink:href="#DejaVuSans-30"/>
      </g>
     </g>
    </g>
    <g id="ytick_6">
     <g id="line2d_16">
      <g>
       <use style="stroke:#000000;stroke-width:0.8;" x="57.6" xlink:href="#m99c26640f3" y="119.346369"/>
      </g>
     </g>
     <g id="text_17">
      <!-- 60 -->
      <g transform="translate(37.875 123.145588)scale(0.1 -0.1)">
       <use xlink:href="#DejaVuSans-36"/>
       <use x="63.623047" xlink:href="#DejaVuSans-30"/>
      </g>
     </g>
    </g>
    <g id="ytick_7">
     <g id="line2d_17">
      <g>
       <use style="stroke:#000000;stroke-width:0.8;" x="57.6" xlink:href="#m99c26640f3" y="87.399614"/>
      </g>
     </g>
     <g id="text_18">
      <!-- 70 -->
      <g transform="translate(37.875 91.198833)scale(0.1 -0.1)">
       <use xlink:href="#DejaVuSans-37"/>
       <use x="63.623047" xlink:href="#DejaVuSans-30"/>
      </g>
     </g>
    </g>
    <g id="ytick_8">
     <g id="line2d_18">
      <g>
       <use style="stroke:#000000;stroke-width:0.8;" x="57.6" xlink:href="#m99c26640f3" y="55.452859"/>
      </g>
     </g>
     <g id="text_19">
      <!-- 80 -->
      <g transform="translate(37.875 59.252077)scale(0.1 -0.1)">
       <use xlink:href="#DejaVuSans-38"/>
       <use x="63.623047" xlink:href="#DejaVuSans-30"/>
      </g>
     </g>
    </g>
    <g id="text_20">
     <!-- Accuracy -->
     <g transform="translate(31.795312 197.356125)rotate(-90)scale(0.1 -0.1)">
      <defs>
       <path d="M 2188 4044 
L 1331 1722 
L 3047 1722 
L 2188 4044 
z
M 1831 4666 
L 2547 4666 
L 4325 0 
L 3669 0 
L 3244 1197 
L 1141 1197 
L 716 0 
L 50 0 
L 1831 4666 
z
" id="DejaVuSans-41" transform="scale(0.015625)"/>
       <path d="M 544 1381 
L 544 3500 
L 1119 3500 
L 1119 1403 
Q 1119 906 1312 657 
Q 1506 409 1894 409 
Q 2359 409 2629 706 
Q 2900 1003 2900 1516 
L 2900 3500 
L 3475 3500 
L 3475 0 
L 2900 0 
L 2900 538 
Q 2691 219 2414 64 
Q 2138 -91 1772 -91 
Q 1169 -91 856 284 
Q 544 659 544 1381 
z
M 1991 3584 
L 1991 3584 
z
" id="DejaVuSans-75" transform="scale(0.015625)"/>
       <path d="M 2631 2963 
Q 2534 3019 2420 3045 
Q 2306 3072 2169 3072 
Q 1681 3072 1420 2755 
Q 1159 2438 1159 1844 
L 1159 0 
L 581 0 
L 581 3500 
L 1159 3500 
L 1159 2956 
Q 1341 3275 1631 3429 
Q 1922 3584 2338 3584 
Q 2397 3584 2469 3576 
Q 2541 3569 2628 3553 
L 2631 2963 
z
" id="DejaVuSans-72" transform="scale(0.015625)"/>
       <path d="M 2194 1759 
Q 1497 1759 1228 1600 
Q 959 1441 959 1056 
Q 959 750 1161 570 
Q 1363 391 1709 391 
Q 2188 391 2477 730 
Q 2766 1069 2766 1631 
L 2766 1759 
L 2194 1759 
z
M 3341 1997 
L 3341 0 
L 2766 0 
L 2766 531 
Q 2569 213 2275 61 
Q 1981 -91 1556 -91 
Q 1019 -91 701 211 
Q 384 513 384 1019 
Q 384 1609 779 1909 
Q 1175 2209 1959 2209 
L 2766 2209 
L 2766 2266 
Q 2766 2663 2505 2880 
Q 2244 3097 1772 3097 
Q 1472 3097 1187 3025 
Q 903 2953 641 2809 
L 641 3341 
Q 956 3463 1253 3523 
Q 1550 3584 1831 3584 
Q 2591 3584 2966 3190 
Q 3341 2797 3341 1997 
z
" id="DejaVuSans-61" transform="scale(0.015625)"/>
       <path d="M 2059 -325 
Q 1816 -950 1584 -1140 
Q 1353 -1331 966 -1331 
L 506 -1331 
L 506 -850 
L 844 -850 
Q 1081 -850 1212 -737 
Q 1344 -625 1503 -206 
L 1606 56 
L 191 3500 
L 800 3500 
L 1894 763 
L 2988 3500 
L 3597 3500 
L 2059 -325 
z
" id="DejaVuSans-79" transform="scale(0.015625)"/>
      </defs>
      <use xlink:href="#DejaVuSans-41"/>
      <use x="66.658203" xlink:href="#DejaVuSans-63"/>
      <use x="121.638672" xlink:href="#DejaVuSans-63"/>
      <use x="176.619141" xlink:href="#DejaVuSans-75"/>
      <use x="239.998047" xlink:href="#DejaVuSans-72"/>
      <use x="281.111328" xlink:href="#DejaVuSans-61"/>
      <use x="342.390625" xlink:href="#DejaVuSans-63"/>
      <use x="397.371094" xlink:href="#DejaVuSans-79"/>
     </g>
    </g>
   </g>
   <g id="line2d_19">
    <path clip-path="url(#p74bc6cb33e)" d="M 73.832727 295.488 
L 74.700788 284.523874 
L 75.568848 277.399747 
L 76.436908 271.387368 
L 78.173029 255.286203 
L 79.041089 250.839215 
L 79.909149 242.743907 
L 80.77721 239.670629 
L 81.64527 230.974722 
L 82.51333 226.329664 
L 83.38139 226.201877 
L 84.249451 213.883208 
L 85.117511 212.816186 
L 85.985571 213.908765 
L 86.853632 199.826636 
L 87.721692 206.861311 
L 88.589752 196.465837 
L 89.457812 198.842676 
L 90.325873 188.875288 
L 91.193933 189.705903 
L 92.061993 191.539647 
L 92.930053 183.648799 
L 93.798114 184.824439 
L 94.666174 182.830962 
L 95.534234 211.717218 
L 96.402295 211.960013 
L 97.270355 209.710962 
L 99.006475 202.369597 
L 99.874536 196.478616 
L 100.742596 192.670562 
L 101.610656 194.46597 
L 102.478717 194.344572 
L 103.346777 183.757418 
L 104.214837 184.856386 
L 105.082897 184.875554 
L 105.950958 189.961478 
L 106.819018 178.671494 
L 107.687078 185.795621 
L 108.555139 180.013258 
L 109.423199 183.706303 
L 110.291259 177.463907 
L 111.159319 178.288133 
L 112.02738 166.985371 
L 112.89544 171.419581 
L 113.7635 173.368333 
L 114.631561 165.164406 
L 115.499621 162.634223 
L 116.367681 164.212393 
L 117.235741 168.161012 
L 118.103802 157.503574 
L 118.971862 159.254256 
L 119.839922 166.046136 
L 120.707982 160.774922 
L 121.576043 163.132592 
L 122.444103 158.193624 
L 123.312163 160.742975 
L 124.180224 151.548699 
L 125.048284 165.298582 
L 125.916344 143.555621 
L 126.784404 150.500845 
L 127.652465 150.270829 
L 128.520525 145.664106 
L 129.388585 137.025704 
L 130.256646 145.644938 
L 131.124706 137.115155 
L 131.992766 144.034822 
L 132.860826 145.708832 
L 133.728887 133.51795 
L 134.596947 131.767268 
L 135.465007 144.571527 
L 136.333068 143.421444 
L 137.201128 138.744439 
L 138.069188 147.465903 
L 138.937248 166.423108 
L 139.805309 172.077684 
L 140.673369 172.633557 
L 141.541429 176.460779 
L 142.40949 172.608 
L 143.27755 156.481278 
L 144.14561 168.87023 
L 145.01367 163.343441 
L 145.881731 168.499647 
L 146.749791 166.346436 
L 147.617851 165.71389 
L 148.485912 157.318283 
L 149.353972 167.598749 
L 150.222032 152.257917 
L 151.090092 165.349697 
L 151.958153 153.484672 
L 152.826213 160.589631 
L 154.562333 148.756552 
L 155.430394 154.775321 
L 156.298454 159.267035 
L 157.166514 156.45572 
L 158.034575 154.475022 
L 158.902635 147.855654 
L 159.770695 162.985637 
L 160.638755 144.558749 
L 161.506816 153.20993 
L 163.242936 140.328998 
L 164.110997 143.440612 
L 164.979057 147.274223 
L 165.847117 149.689398 
L 166.715177 155.382309 
L 167.583238 142.846403 
L 168.451298 139.907301 
L 169.319358 147.453125 
L 170.187419 139.670895 
L 171.055479 140.367334 
L 171.923539 149.919414 
L 172.791599 154.596419 
L 173.65966 144.35429 
L 174.52772 137.84993 
L 175.39578 150.424173 
L 176.263841 133.664905 
L 177.131901 142.609997 
L 177.999961 139.945637 
L 178.868021 133.843807 
L 179.736082 142.661111 
L 180.604142 123.652792 
L 181.472202 137.000146 
L 182.340263 142.782509 
L 183.208323 121.525138 
L 184.076383 125.505704 
L 185.812504 136.437884 
L 186.680564 126.278815 
L 187.548624 141.817717 
L 188.416684 128.898449 
L 189.284745 133.249597 
L 190.152805 127.703641 
L 191.020865 125.710163 
L 191.888926 121.237617 
L 192.756986 130.310496 
L 193.625046 111.589697 
L 194.493106 120.62424 
L 195.361167 120.72008 
L 196.229227 133.575454 
L 197.097287 124.994556 
L 197.965348 114.7077 
L 198.833408 113.864306 
L 199.701468 116.458383 
L 200.569528 122.879681 
L 201.437589 124.968998 
L 202.305649 130.917484 
L 203.173709 129.38404 
L 204.04177 116.062243 
L 204.90983 118.55409 
L 205.77789 118.605205 
L 206.64595 118.771328 
L 207.514011 109.551494 
L 209.250131 112.471428 
L 210.118192 116.720346 
L 210.986252 117.237884 
L 211.854312 115.851394 
L 212.722372 120.036419 
L 213.590433 114.854656 
L 214.458493 114.145438 
L 215.326553 110.810196 
L 216.194614 121.3079 
L 217.062674 109.39176 
L 217.930734 119.263308 
L 218.798794 116.924805 
L 219.666855 106.695454 
L 220.534915 107.085205 
L 221.402975 99.35409 
L 222.271035 102.881012 
L 223.139096 100.612792 
L 224.007156 99.929131 
L 224.875216 115.384972 
L 225.743277 137.7477 
L 226.611337 137.345171 
L 227.479397 152.385704 
L 228.347457 145.708832 
L 229.215518 150.85226 
L 230.083578 141.721877 
L 230.951638 141.951894 
L 231.819699 141.070163 
L 232.687759 138.974456 
L 233.555819 157.925271 
L 234.423879 144.910163 
L 235.29194 150.002476 
L 236.16 136.437884 
L 237.02806 145.261577 
L 237.896121 144.220113 
L 238.764181 150.35389 
L 239.632241 152.296253 
L 240.500301 151.037551 
L 241.368362 130.457451 
L 243.104482 142.488599 
L 243.972543 136.124805 
L 245.708663 143.121145 
L 246.576723 149.753291 
L 247.444784 152.692393 
L 248.312844 135.268632 
L 249.180904 147.99622 
L 250.048965 139.217251 
L 250.917025 139.581444 
L 251.785085 128.233957 
L 252.653145 133.332659 
L 253.521206 143.913424 
L 254.389266 130.994156 
L 255.257326 135.498649 
L 256.125386 127.952825 
L 256.993447 128.451195 
L 257.861507 131.958948 
L 258.729567 127.767534 
L 259.597628 153.593291 
L 260.465688 131.070829 
L 261.333748 138.789165 
L 262.201808 117.634023 
L 263.069869 127.505571 
L 263.937929 130.789697 
L 264.805989 128.821777 
L 265.67405 126.259647 
L 266.54211 120.087534 
L 268.27823 134.31023 
L 269.146291 146.002742 
L 270.014351 122.98191 
L 270.882411 133.747967 
L 271.750472 126.579115 
L 272.618532 135.275022 
L 273.486592 130.16993 
L 274.354652 129.805737 
L 275.222713 123.326935 
L 276.090773 122.841344 
L 276.958833 115.014389 
L 277.826894 129.192359 
L 278.694954 132.655388 
L 279.563014 134.616918 
L 280.431074 123.505837 
L 281.299135 132.738449 
L 282.167195 132.674556 
L 283.903316 121.710429 
L 284.771376 132.776785 
L 285.639436 123.231095 
L 286.507496 123.588899 
L 287.375557 129.102908 
L 288.243617 133.639348 
L 289.111677 114.599082 
L 289.979737 119.23775 
L 290.847798 117.320945 
L 291.715858 117.410396 
L 292.583918 121.569864 
L 293.451979 115.30191 
L 294.320039 121.320679 
L 295.188099 130.527734 
L 296.056159 102.881012 
L 296.92422 104.586968 
L 297.79228 132.220912 
L 298.66034 128.035887 
L 299.528401 120.176985 
L 300.396461 130.399947 
L 301.264521 127.103042 
L 302.132581 117.033424 
L 303.000642 122.88607 
L 303.868702 116.567002 
L 304.736762 114.311561 
L 305.604823 113.212592 
L 306.472883 113.73013 
L 307.340943 119.397484 
L 308.209003 128.118948 
L 309.077064 119.480546 
L 309.945124 114.950496 
L 310.813184 112.74617 
L 311.681245 103.488 
L 312.549305 118.100446 
L 313.417365 98.868499 
L 314.285425 113.615121 
L 315.153486 113.174256 
L 316.021546 119.071627 
L 316.889606 123.838083 
L 317.757667 113.174256 
L 318.625727 119.109963 
L 319.493787 102.810729 
L 320.361847 116.726735 
L 321.229908 119.097185 
L 322.097968 116.38171 
L 322.966028 104.816985 
L 323.834088 114.247667 
L 325.570209 102.670163 
L 326.438269 110.989098 
L 327.30633 110.701577 
L 328.17439 110.739913 
L 329.04245 99.334922 
L 329.91051 112.64394 
L 330.778571 114.771594 
L 331.646631 102.005671 
L 332.514691 103.072692 
L 333.382752 124.713424 
L 334.250812 111.851661 
L 335.118872 104.931993 
L 335.986932 108.51003 
L 336.854993 105.053391 
L 337.723053 108.893391 
L 338.591113 112.030562 
L 339.459174 112.854789 
L 340.327234 105.800945 
L 341.195294 102.261245 
L 342.063354 93.910363 
L 342.931415 103.277151 
L 343.799475 119.774456 
L 345.535596 98.057052 
L 346.403656 90.722077 
L 347.271716 103.724406 
L 348.139776 101.130329 
L 349.007837 96.69612 
L 349.875897 101.999281 
L 350.743957 92.223574 
L 351.612018 98.708765 
L 352.480078 91.884938 
L 353.348138 94.344839 
L 354.216198 100.523341 
L 355.952319 108.343907 
L 356.820379 89.853125 
L 357.688439 108.375854 
L 358.5565 98.319015 
L 359.42456 102.376253 
L 360.29262 100.516952 
L 361.160681 91.706037 
L 362.028741 100.171927 
L 362.896801 103.213258 
L 363.764861 85.808666 
L 364.632922 94.325671 
L 365.500982 91.361012 
L 366.369042 95.526869 
L 367.237103 102.644606 
L 368.105163 89.546436 
L 368.973223 84.843874 
L 369.841283 91.968 
L 370.709344 104.740313 
L 372.445464 93.079747 
L 373.313525 78.17978 
L 374.181585 100.93226 
L 375.049645 97.38617 
L 375.917705 105.698715 
L 376.785766 94.319281 
L 377.653826 89.233358 
L 378.521886 95.788832 
L 379.389947 87.009864 
L 380.258007 90.651794 
L 381.126067 99.488266 
L 381.994127 95.699381 
L 382.862188 111.308566 
L 383.730248 90.268433 
L 384.598308 107.398283 
L 385.466368 97.961211 
L 386.334429 103.743574 
L 387.202489 86.684007 
L 388.070549 93.003075 
L 388.93861 91.642143 
L 389.80667 100.561677 
L 390.67473 92.645271 
L 391.54279 101.807601 
L 392.410851 94.734589 
L 393.278911 83.2082 
L 394.146971 86.498715 
L 395.883092 94.772925 
L 396.751152 97.041145 
L 397.619212 82.70983 
L 398.487273 90.217318 
L 398.487273 90.217318 
" style="fill:none;stroke:#1f77b4;stroke-linecap:square;stroke-width:1.5;"/>
   </g>
   <g id="line2d_20">
    <path clip-path="url(#p74bc6cb33e)" d="M 73.832727 279.23988 
L 74.700788 271.189298 
L 75.568848 255.567334 
L 76.436908 242.916419 
L 77.304968 240.93572 
L 78.173029 220.968998 
L 79.041089 209.404273 
L 79.909149 206.401278 
L 80.77721 200.682809 
L 81.64527 183.207933 
L 82.51333 175.668499 
L 83.38139 185.380313 
L 84.249451 183.175987 
L 85.117511 165.796952 
L 85.985571 162.634223 
L 86.853632 150.622243 
L 87.721692 147.747035 
L 90.325873 130.655521 
L 91.193933 129.28181 
L 92.061993 129.505438 
L 92.930053 127.684473 
L 93.798114 125.320413 
L 94.666174 126.374656 
L 95.534234 159.663175 
L 96.402295 154.775321 
L 97.270355 149.216586 
L 98.138415 171.100113 
L 99.006475 143.178649 
L 99.874536 137.076819 
L 100.742596 139.632559 
L 101.610656 131.773657 
L 102.478717 125.4482 
L 103.346777 126.91775 
L 104.214837 129.888799 
L 105.082897 120.272825 
L 105.950958 119.825571 
L 106.819018 126.853857 
L 107.687078 122.700779 
L 108.555139 115.608599 
L 109.423199 117.685138 
L 110.291259 111.583308 
L 111.159319 110.08181 
L 112.02738 111.104106 
L 112.89544 106.120413 
L 113.7635 104.650862 
L 114.631561 105.16201 
L 115.499621 101.392293 
L 116.367681 105.385637 
L 117.235741 97.846203 
L 118.103802 96.121078 
L 118.971862 97.271161 
L 119.839922 94.33206 
L 120.707982 94.779314 
L 121.576043 96.568333 
L 122.444103 93.086136 
L 123.312163 91.840213 
L 124.180224 87.974656 
L 125.048284 90.530396 
L 125.916344 88.389963 
L 126.784404 88.262176 
L 127.652465 85.227235 
L 128.520525 83.438216 
L 129.388585 83.438216 
L 130.256646 81.393624 
L 131.124706 79.700446 
L 131.992766 80.05186 
L 132.860826 81.361677 
L 133.728887 79.285138 
L 134.596947 78.77399 
L 135.465007 78.646203 
L 136.333068 79.86018 
L 138.069188 78.710097 
L 138.937248 104.714755 
L 139.805309 120.688133 
L 141.541429 103.277151 
L 142.40949 110.017917 
L 143.27755 101.456186 
L 144.14561 102.638216 
L 145.01367 101.328399 
L 145.881731 98.644872 
L 146.749791 94.843208 
L 147.617851 102.542376 
L 148.485912 95.130729 
L 149.353972 95.322409 
L 150.222032 94.843208 
L 151.090092 99.603275 
L 151.958153 92.830562 
L 152.826213 93.820912 
L 154.562333 91.361012 
L 155.430394 93.565338 
L 156.298454 84.109098 
L 157.166514 89.188632 
L 158.034575 91.009597 
L 158.902635 88.996952 
L 159.770695 88.485804 
L 160.638755 85.86617 
L 161.506816 87.846869 
L 162.374876 89.124739 
L 163.242936 85.546702 
L 164.110997 83.566003 
L 164.979057 85.930063 
L 165.847117 84.716087 
L 166.715177 87.0482 
L 167.583238 82.032559 
L 168.451298 81.808932 
L 169.319358 82.895121 
L 170.187419 82.831228 
L 171.055479 83.917418 
L 171.923539 82.799281 
L 172.791599 83.374323 
L 173.65966 76.984972 
L 174.52772 79.95602 
L 176.263841 82.288133 
L 177.131901 84.428566 
L 177.999961 76.984972 
L 178.868021 74.077817 
L 179.736082 74.876486 
L 180.604142 78.710097 
L 181.472202 74.684805 
L 182.340263 78.67815 
L 183.208323 74.780646 
L 184.076383 73.215255 
L 184.944443 74.876486 
L 185.812504 72.001278 
L 186.680564 73.279148 
L 187.548624 72.768 
L 188.416684 71.841544 
L 189.284745 72.895787 
L 190.152805 72.065171 
L 191.020865 71.649864 
L 191.888926 72.768 
L 192.756986 68.071827 
L 193.625046 70.851195 
L 194.493106 68.359348 
L 195.361167 67.113424 
L 196.229227 67.752359 
L 197.097287 68.614922 
L 197.965348 67.496785 
L 198.833408 64.046536 
L 199.701468 65.452193 
L 200.569528 66.346702 
L 201.437589 63.982642 
L 202.305649 65.931394 
L 203.173709 64.142376 
L 204.04177 63.982642 
L 204.90983 63.183973 
L 205.77789 61.618582 
L 206.64595 62.576985 
L 207.514011 61.778316 
L 208.382071 62.513092 
L 209.250131 62.353358 
L 210.118192 61.586636 
L 210.986252 61.075488 
L 211.854312 60.85186 
L 212.722372 60.979647 
L 213.590433 60.564339 
L 214.458493 60.532393 
L 215.326553 59.66983 
L 216.194614 58.967002 
L 217.062674 59.957351 
L 217.930734 60.244872 
L 218.798794 59.57399 
L 220.534915 59.254522 
L 221.402975 59.57399 
L 222.271035 59.254522 
L 223.139096 59.57399 
L 224.007156 59.510097 
L 224.875216 60.276819 
L 225.743277 91.488799 
L 226.611337 92.766669 
L 227.479397 85.067501 
L 228.347457 89.220579 
L 229.215518 83.981311 
L 230.083578 87.175987 
L 230.951638 83.246536 
L 231.819699 87.080146 
L 232.687759 88.102443 
L 233.555819 82.990962 
L 234.423879 88.294123 
L 235.29194 77.815587 
L 236.16 85.514755 
L 237.02806 84.5883 
L 237.896121 86.441211 
L 238.764181 83.470163 
L 239.632241 83.59795 
L 240.500301 86.568998 
L 241.368362 79.540712 
L 242.236422 78.67815 
L 243.104482 81.872825 
L 243.972543 81.585304 
L 244.840603 79.95602 
L 245.708663 80.882476 
L 246.576723 89.987301 
L 247.444784 80.371328 
L 248.312844 86.217584 
L 249.180904 82.959015 
L 250.048965 82.128399 
L 250.917025 79.86018 
L 251.785085 78.805937 
L 252.653145 76.122409 
L 253.521206 83.566003 
L 254.389266 78.933724 
L 255.257326 77.783641 
L 256.125386 82.927068 
L 256.993447 78.486469 
L 257.861507 82.863175 
L 258.729567 81.04221 
L 259.597628 73.85419 
L 260.465688 81.297784 
L 261.333748 76.825238 
L 262.201808 77.368333 
L 263.069869 76.793291 
L 263.937929 78.167002 
L 265.67405 73.886136 
L 266.54211 77.623907 
L 267.41017 74.461178 
L 268.27823 77.176652 
L 269.146291 72.544373 
L 270.014351 76.250196 
L 270.882411 76.857185 
L 271.750472 78.230895 
L 272.618532 72.416586 
L 273.486592 75.962676 
L 274.354652 75.770995 
L 275.222713 76.984972 
L 276.090773 75.195953 
L 276.958833 72.192958 
L 277.826894 79.828233 
L 278.694954 73.343042 
L 279.563014 74.013923 
L 280.431074 76.40993 
L 281.299135 72.448532 
L 282.167195 74.429231 
L 283.035255 75.707101 
L 283.903316 73.183308 
L 284.771376 72.224905 
L 285.639436 74.844539 
L 286.507496 72.67216 
L 287.375557 75.387634 
L 288.243617 71.649864 
L 289.111677 71.106769 
L 289.979737 75.451527 
L 290.847798 71.138715 
L 291.715858 71.362343 
L 292.583918 69.924739 
L 293.451979 69.796952 
L 294.320039 68.263507 
L 295.188099 69.860845 
L 296.056159 69.349697 
L 296.92422 70.787301 
L 298.66034 70.40394 
L 299.528401 67.8482 
L 300.396461 71.554023 
L 301.264521 71.68181 
L 302.132581 74.04587 
L 303.000642 68.487135 
L 303.868702 67.400945 
L 304.736762 68.998283 
L 305.604823 67.720413 
L 307.340943 69.701111 
L 308.209003 66.793957 
L 309.077064 71.68181 
L 309.945124 67.337052 
L 310.813184 66.282809 
L 311.681245 66.186968 
L 312.549305 67.784306 
L 313.417365 70.180313 
L 314.285425 65.803607 
L 315.153486 65.164672 
L 316.021546 69.158017 
L 316.889606 70.563674 
L 317.757667 64.845205 
L 318.625727 66.506436 
L 319.493787 64.238216 
L 320.361847 65.739714 
L 321.229908 65.548033 
L 322.097968 63.599281 
L 322.966028 65.3883 
L 323.834088 65.132725 
L 324.702149 65.196619 
L 325.570209 62.736719 
L 326.438269 66.85785 
L 328.17439 64.334057 
L 329.04245 65.57998 
L 329.91051 63.407601 
L 330.778571 64.270163 
L 331.646631 64.174323 
L 332.514691 63.950696 
L 333.382752 62.12973 
L 334.250812 62.03389 
L 335.118872 63.407601 
L 335.986932 63.567334 
L 336.854993 62.928399 
L 337.723053 60.340712 
L 338.591113 61.618582 
L 339.459174 61.522742 
L 340.327234 60.724073 
L 341.195294 61.746369 
L 342.063354 61.043541 
L 342.931415 59.446203 
L 343.799475 58.871161 
L 344.667535 59.765671 
L 345.535596 61.650529 
L 346.403656 60.372659 
L 347.271716 58.232226 
L 348.139776 58.711428 
L 349.007837 60.628233 
L 349.875897 59.030895 
L 350.743957 59.030895 
L 351.612018 58.839215 
L 352.480078 57.976652 
L 354.216198 58.551694 
L 355.084259 57.912759 
L 355.952319 59.094789 
L 356.820379 56.570995 
L 357.688439 57.082143 
L 358.5565 57.273824 
L 359.42456 56.539048 
L 360.29262 58.29612 
L 361.160681 56.187634 
L 362.896801 57.401611 
L 363.764861 55.005604 
L 364.632922 56.762676 
L 365.500982 55.612592 
L 366.369042 57.082143 
L 368.105163 55.964007 
L 368.973223 55.772326 
L 369.841283 55.325072 
L 370.709344 55.229231 
L 371.577404 56.443208 
L 372.445464 55.548699 
L 373.313525 55.037551 
L 374.181585 55.900113 
L 375.049645 55.804273 
L 375.917705 55.388965 
L 376.785766 55.995953 
L 377.653826 55.452859 
L 378.521886 53.823574 
L 379.389947 55.995953 
L 380.258007 54.909764 
L 381.126067 55.293125 
L 381.994127 54.238882 
L 382.862188 54.909764 
L 383.730248 53.631894 
L 384.598308 55.165338 
L 385.466368 53.951361 
L 386.334429 54.079148 
L 388.070549 54.877817 
L 388.93861 54.302775 
L 389.80667 53.887468 
L 390.67473 54.015255 
L 391.54279 54.84587 
L 392.410851 54.877817 
L 393.278911 54.174988 
L 394.146971 54.718083 
L 395.015032 53.568 
L 395.883092 54.206935 
L 396.751152 54.111095 
L 397.619212 53.887468 
L 398.487273 53.983308 
L 398.487273 53.983308 
" style="fill:none;stroke:#ff7f0e;stroke-linecap:square;stroke-width:1.5;"/>
   </g>
   <g id="line2d_21">
    <path clip-path="url(#p74bc6cb33e)" d="M 73.832727 278.558775 
L 74.700788 276.793398 
L 75.568848 256.112027 
L 76.436908 243.04772 
L 77.304968 247.267887 
L 78.173029 217.405977 
L 79.041089 209.806163 
L 79.909149 208.898236 
L 80.77721 195.177744 
L 81.64527 198.506915 
L 82.51333 194.488652 
L 83.38139 197.918456 
L 84.249451 193.27787 
L 85.117511 178.313371 
L 85.985571 169.233784 
L 86.853632 162.793957 
L 87.721692 163.550456 
L 88.589752 158.808918 
L 89.457812 152.1001 
L 90.325873 147.577078 
L 91.193933 150.805617 
L 92.061993 145.778156 
L 92.930053 146.467567 
L 93.798114 143.995847 
L 94.666174 145.441757 
L 95.534234 175.387687 
L 96.402295 172.478935 
L 97.270355 177.674436 
L 98.138415 177.657504 
L 99.006475 166.207148 
L 99.874536 162.642529 
L 100.742596 160.339168 
L 101.610656 143.575428 
L 102.478717 148.249877 
L 103.346777 143.054376 
L 104.214837 152.873531 
L 105.082897 141.103707 
L 105.950958 146.635607 
L 106.819018 154.269285 
L 107.687078 144.432879 
L 109.423199 138.009983 
L 110.291259 148.888812 
L 111.159319 136.480053 
L 112.02738 135.504719 
L 112.89544 126.711055 
L 114.631561 139.977265 
L 115.499621 129.90573 
L 116.367681 138.211887 
L 117.235741 123.364952 
L 118.103802 124.356899 
L 119.839922 127.703002 
L 120.707982 128.678336 
L 121.576043 124.087907 
L 122.444103 122.053537 
L 123.312163 123.17998 
L 124.180224 118.169451 
L 125.048284 117.665012 
L 125.916344 118.135907 
L 126.784404 112.183587 
L 127.652465 115.462283 
L 128.520525 115.849158 
L 129.388585 115.260699 
L 130.256646 112.133111 
L 131.124706 111.292273 
L 131.992766 111.813644 
L 132.860826 112.957018 
L 133.728887 111.544652 
L 134.596947 110.485298 
L 135.465007 110.149218 
L 136.333068 110.384346 
L 137.201128 110.08181 
L 138.069188 110.603181 
L 138.937248 137.085125 
L 139.805309 148.754316 
L 140.673369 138.463947 
L 141.541429 132.02412 
L 142.40949 140.683288 
L 143.27755 124.659754 
L 144.14561 132.242636 
L 145.01367 132.310043 
L 145.881731 130.208266 
L 146.749791 127.703002 
L 147.617851 135.286203 
L 148.485912 124.760386 
L 149.353972 120.70826 
L 150.222032 128.156965 
L 151.090092 128.341937 
L 151.958153 122.995008 
L 152.826213 129.081824 
L 153.694273 133.890449 
L 154.562333 125.6517 
L 155.430394 123.045484 
L 157.166514 115.832226 
L 158.034575 119.144466 
L 158.902635 121.801158 
L 159.770695 117.950935 
L 160.638755 119.749857 
L 161.506816 115.495827 
L 162.374876 114.50388 
L 163.242936 116.437617 
L 164.110997 112.688027 
L 164.979057 111.309205 
L 165.847117 113.898489 
L 166.715177 118.92595 
L 167.583238 114.402928 
L 168.451298 115.193291 
L 169.319358 115.109271 
L 170.187419 113.024426 
L 171.055479 127.249038 
L 171.923539 116.151694 
L 172.791599 117.093165 
L 173.65966 105.811168 
L 174.52772 109.190815 
L 175.39578 109.627847 
L 176.263841 118.169451 
L 177.131901 124.255947 
L 178.868021 105.323341 
L 179.736082 107.27401 
L 180.604142 111.94814 
L 181.472202 112.805591 
L 182.340263 112.335015 
L 183.208323 107.055175 
L 184.076383 107.627022 
L 185.812504 106.365764 
L 186.680564 110.788153 
L 187.548624 102.902097 
L 188.416684 106.450103 
L 189.284745 103.524419 
L 190.152805 106.33222 
L 191.020865 106.870203 
L 191.888926 104.970329 
L 192.756986 104.146423 
L 193.625046 106.2482 
L 194.493106 100.565191 
L 195.361167 100.144772 
L 196.229227 100.21186 
L 197.097287 100.010276 
L 197.965348 99.572925 
L 198.833408 100.094296 
L 199.701468 99.337478 
L 200.569528 97.538556 
L 201.437589 96.765125 
L 202.305649 98.648386 
L 203.173709 99.640333 
L 204.04177 102.011101 
L 205.77789 96.075714 
L 206.64595 97.65612 
L 207.514011 94.612872 
L 208.382071 97.135068 
L 209.250131 96.075714 
L 210.118192 94.7643 
L 210.986252 94.158908 
L 211.854312 93.351933 
L 212.722372 94.67996 
L 213.590433 93.15003 
L 214.458493 94.25986 
L 215.326553 92.98199 
L 216.194614 94.024413 
L 217.062674 93.805897 
L 217.930734 93.250982 
L 218.798794 93.973937 
L 220.534915 92.89797 
L 221.402975 93.06601 
L 222.271035 94.209384 
L 223.139096 92.376599 
L 224.007156 93.284526 
L 224.875216 93.671401 
L 225.743277 121.246243 
L 226.611337 123.617012 
L 227.479397 114.907368 
L 228.347457 126.626867 
L 229.215518 121.364059 
L 230.083578 122.221577 
L 230.951638 125.248112 
L 232.687759 118.32071 
L 233.555819 112.957018 
L 234.423879 125.533951 
L 235.29194 109.812785 
L 236.16 119.312741 
L 237.02806 119.043716 
L 237.896121 118.32071 
L 238.764181 122.961397 
L 239.632241 114.470286 
L 240.500301 117.49682 
L 241.368362 106.618109 
L 242.236422 106.685366 
L 243.104482 119.127786 
L 243.972543 116.572046 
L 244.840603 116.857885 
L 245.708663 115.512759 
L 246.576723 120.910079 
L 247.444784 112.149942 
L 248.312844 126.441912 
L 249.180904 110.603047 
L 250.048965 113.276486 
L 250.917025 113.461441 
L 251.785085 110.249951 
L 252.653145 113.730466 
L 253.521206 112.116314 
L 254.389266 109.62783 
L 255.257326 121.868482 
L 256.125386 118.909203 
L 256.993447 104.31458 
L 257.861507 111.326052 
L 258.729567 108.921639 
L 259.597628 107.139346 
L 260.465688 115.983553 
L 261.333748 112.318083 
L 262.201808 105.743777 
L 263.069869 103.995113 
L 263.937929 115.008336 
L 264.805989 103.507504 
L 265.67405 110.283579 
L 266.54211 108.34996 
L 267.41017 110.149067 
L 268.27823 111.410123 
L 269.146291 105.205727 
L 270.014351 116.689744 
L 270.882411 113.242858 
L 271.750472 105.239355 
L 272.618532 101.792468 
L 273.486592 108.871196 
L 274.354652 113.242858 
L 275.222713 111.847289 
L 276.090773 107.761467 
L 276.958833 99.909291 
L 277.826894 116.101252 
L 278.694954 110.064996 
L 279.563014 103.019896 
L 280.431074 103.608389 
L 281.299135 108.316332 
L 282.167195 103.541132 
L 283.035255 117.278237 
L 283.903316 103.8606 
L 284.771376 109.039337 
L 285.639436 108.114563 
L 286.507496 105.726963 
L 287.375557 110.45172 
L 288.243617 109.341991 
L 289.111677 105.155284 
L 289.979737 113.478255 
L 290.847798 103.894228 
L 291.715858 105.491566 
L 292.583918 100.951764 
L 293.451979 105.575636 
L 294.320039 99.337612 
L 295.188099 109.274734 
L 296.056159 105.861476 
L 296.92422 106.517225 
L 297.79228 104.465907 
L 298.66034 103.94467 
L 299.528401 101.708398 
L 300.396461 105.020772 
L 301.264521 105.87829 
L 302.132581 100.531412 
L 303.000642 107.694211 
L 303.868702 94.495156 
L 304.736762 101.859724 
L 305.604823 103.03671 
L 306.472883 95.16772 
L 307.340943 103.372992 
L 308.209003 98.17744 
L 309.077064 103.087152 
L 309.945124 100.464156 
L 310.813184 95.957982 
L 311.681245 92.174813 
L 312.549305 94.999579 
L 313.417365 108.938453 
L 314.285425 103.709273 
L 315.153486 95.319047 
L 316.021546 101.893352 
L 316.889606 105.323425 
L 317.757667 103.238479 
L 318.625727 99.74115 
L 319.493787 94.865066 
L 320.361847 101.01902 
L 321.229908 99.791592 
L 322.097968 96.092494 
L 322.966028 101.859724 
L 323.834088 93.957106 
L 324.702149 101.775654 
L 325.570209 99.28717 
L 326.438269 98.160626 
L 327.30633 100.918136 
L 328.17439 95.655328 
L 329.04245 94.175689 
L 329.91051 100.56504 
L 330.778571 99.219913 
L 331.646631 99.589823 
L 332.514691 101.086277 
L 333.382752 95.470373 
L 334.250812 96.395148 
L 335.118872 94.158875 
L 335.986932 100.716367 
L 336.854993 93.116402 
L 337.723053 94.965951 
L 338.591113 96.52966 
L 339.459174 93.301357 
L 340.327234 92.998703 
L 341.195294 94.142061 
L 342.063354 94.041176 
L 342.931415 91.199596 
L 343.799475 92.24207 
L 344.667535 92.023486 
L 345.535596 96.8155 
L 346.403656 96.311077 
L 347.271716 86.626166 
L 349.007837 92.796934 
L 349.875897 89.921726 
L 350.743957 87.517313 
L 351.612018 92.729678 
L 352.480078 92.157999 
L 353.348138 92.427024 
L 354.216198 94.579227 
L 355.952319 88.341203 
L 356.820379 87.971293 
L 358.5565 84.709361 
L 359.42456 88.711112 
L 360.29262 89.097836 
L 361.160681 86.693423 
L 362.028741 89.333233 
L 362.896801 88.442087 
L 363.764861 87.971293 
L 364.632922 87.046518 
L 365.500982 87.01289 
L 366.369042 91.031456 
L 367.237103 88.257132 
L 368.105163 87.719082 
L 368.973223 89.551816 
L 369.841283 90.661546 
L 370.709344 87.635011 
L 371.577404 86.592538 
L 372.445464 88.94651 
L 373.313525 87.265101 
L 374.181585 86.962448 
L 375.049645 87.315544 
L 375.917705 88.559786 
L 377.653826 85.617321 
L 378.521886 85.634135 
L 379.389947 88.94651 
L 380.258007 86.373955 
L 381.126067 86.239442 
L 381.994127 84.120868 
L 382.862188 86.121744 
L 383.730248 85.903161 
L 384.598308 86.155372 
L 385.466368 84.62529 
L 386.334429 85.196969 
L 387.202489 85.079271 
L 388.070549 85.180155 
L 388.93861 85.550065 
L 389.80667 85.650949 
L 390.67473 85.096085 
L 392.410851 86.037673 
L 393.278911 85.684578 
L 395.015032 85.81909 
L 395.883092 85.566879 
L 396.751152 85.919975 
L 397.619212 85.869533 
L 398.487273 86.004045 
L 398.487273 86.004045 
" style="fill:none;stroke:#2ca02c;stroke-linecap:square;stroke-width:1.5;"/>
   </g>
   <g id="line2d_22">
    <path clip-path="url(#p74bc6cb33e)" d="M 73.832727 291.124073 
L 75.568848 281.060845 
L 77.304968 281.316419 
L 78.173029 278.952359 
L 79.041089 280.389963 
L 79.909149 283.105438 
L 80.77721 277.227235 
L 81.64527 280.23023 
L 82.51333 272.978316 
L 83.38139 268.984972 
L 84.249451 273.169997 
L 85.985571 258.698116 
L 86.853632 266.237551 
L 87.721692 263.074822 
L 88.589752 251.286469 
L 89.457812 267.739048 
L 90.325873 265.822243 
L 91.193933 259.496785 
L 92.061993 266.780646 
L 92.930053 261.637218 
L 93.798114 264.640213 
L 94.666174 263.522077 
L 95.534234 263.298449 
L 96.402295 270.742043 
L 97.270355 264.224905 
L 98.138415 270.167002 
L 99.006475 254.481145 
L 99.874536 259.305105 
L 100.742596 254.289464 
L 101.610656 262.40394 
L 103.346777 230.936386 
L 104.214837 253.810263 
L 105.082897 252.436552 
L 105.950958 248.091794 
L 106.819018 262.116419 
L 107.687078 243.267834 
L 108.555139 250.29612 
L 109.423199 248.507101 
L 110.291259 233.236552 
L 111.159319 247.772326 
L 112.02738 228.859847 
L 112.89544 239.625903 
L 113.7635 230.872493 
L 114.631561 239.753691 
L 115.499621 246.270829 
L 116.367681 245.568 
L 117.235741 248.826569 
L 118.103802 223.301111 
L 118.971862 227.837551 
L 119.839922 224.834556 
L 120.707982 242.02191 
L 121.576043 229.594622 
L 122.444103 226.016586 
L 123.312163 243.683141 
L 124.180224 220.617584 
L 125.048284 245.599947 
L 125.916344 228.508433 
L 126.784404 238.220246 
L 127.652465 213.717085 
L 128.520525 226.46384 
L 129.388585 222.981644 
L 130.256646 220.585637 
L 131.124706 211.864173 
L 132.860826 228.029231 
L 133.728887 225.154023 
L 134.596947 226.591627 
L 135.465007 226.847201 
L 136.333068 224.131727 
L 137.201128 222.055188 
L 138.069188 226.431894 
L 138.937248 237.325737 
L 139.805309 257.995288 
L 140.673369 251.765671 
L 141.541429 214.100446 
L 142.40949 241.83023 
L 143.27755 217.966003 
L 144.14561 227.198616 
L 145.01367 230.041877 
L 145.881731 234.514423 
L 146.749791 235.313092 
L 147.617851 229.211261 
L 148.485912 226.016586 
L 149.353972 254.768666 
L 150.222032 235.632559 
L 151.090092 234.578316 
L 151.958153 235.632559 
L 152.826213 246.430562 
L 153.694273 227.358349 
L 154.562333 218.668832 
L 155.430394 219.467501 
L 156.298454 206.912426 
L 157.166514 223.780313 
L 158.034575 236.367334 
L 158.902635 223.684473 
L 159.770695 232.022576 
L 160.638755 208.957018 
L 161.506816 238.795288 
L 162.374876 232.980978 
L 163.242936 217.199281 
L 164.110997 205.922077 
L 164.979057 215.282476 
L 165.847117 229.434889 
L 166.715177 222.438549 
L 167.583238 221.480146 
L 168.451298 201.098116 
L 169.319358 234.226902 
L 170.187419 206.497118 
L 171.055479 227.901444 
L 171.923539 207.519414 
L 172.791599 218.796619 
L 173.65966 227.64587 
L 174.52772 207.838882 
L 175.39578 238.1883 
L 176.263841 244.513757 
L 177.131901 262.244206 
L 177.999961 231.798948 
L 178.868021 221.512093 
L 179.736082 228.061178 
L 180.604142 211.608599 
L 181.472202 238.47582 
L 182.340263 212.567002 
L 183.208323 227.805604 
L 184.076383 216.656186 
L 184.944443 225.537384 
L 185.812504 215.921411 
L 186.680564 222.214922 
L 187.548624 232.757351 
L 188.416684 227.390296 
L 189.284745 214.5477 
L 190.152805 206.145704 
L 191.020865 214.324073 
L 191.888926 218.668832 
L 192.756986 227.837551 
L 193.625046 247.548699 
L 194.493106 201.225903 
L 195.361167 220.106436 
L 196.229227 227.581977 
L 197.097287 225.601278 
L 197.965348 210.841877 
L 198.833408 207.583308 
L 199.701468 216.081145 
L 200.569528 212.822576 
L 201.437589 216.91176 
L 202.305649 218.285471 
L 203.173709 193.239215 
L 204.04177 217.231228 
L 204.90983 218.253524 
L 205.77789 222.789963 
L 206.64595 228.540379 
L 207.514011 214.675488 
L 208.382071 213.26983 
L 209.250131 224.898449 
L 210.118192 213.301777 
L 210.986252 198.446536 
L 211.854312 213.17399 
L 212.722372 223.652526 
L 213.590433 223.013591 
L 214.458493 216.464506 
L 215.326553 218.9883 
L 216.194614 225.377651 
L 217.062674 223.780313 
L 217.930734 220.298116 
L 218.798794 221.288466 
L 219.666855 218.125737 
L 220.534915 216.847867 
L 221.402975 205.027567 
L 222.271035 217.103441 
L 223.139096 208.35003 
L 224.007156 206.145704 
L 224.875216 219.563341 
L 225.743277 237.261844 
L 226.611337 226.911095 
L 227.479397 214.132393 
L 228.347457 243.171993 
L 229.215518 235.856186 
L 230.083578 247.580646 
L 230.951638 227.64587 
L 231.819699 216.432559 
L 232.687759 230.073824 
L 233.555819 231.830895 
L 234.423879 227.901444 
L 235.29194 218.413258 
L 236.16 236.01592 
L 237.02806 230.521078 
L 237.896121 245.983308 
L 238.764181 244.258183 
L 239.632241 218.157684 
L 240.500301 238.37998 
L 241.368362 228.188965 
L 242.236422 234.961677 
L 243.104482 225.856852 
L 243.972543 239.178649 
L 244.840603 236.303441 
L 245.708663 221.927401 
L 246.576723 241.894123 
L 247.444784 223.876153 
L 248.312844 242.181644 
L 249.180904 218.956353 
L 250.048965 231.575321 
L 250.917025 226.655521 
L 251.785085 215.186636 
L 252.653145 226.144373 
L 253.521206 227.677817 
L 254.389266 217.231228 
L 255.257326 198.829897 
L 256.125386 237.613258 
L 256.993447 200.586968 
L 257.861507 235.728399 
L 258.729567 225.569331 
L 259.597628 223.940047 
L 260.465688 219.435554 
L 261.333748 224.323408 
L 262.201808 195.890795 
L 263.069869 219.659181 
L 263.937929 229.850196 
L 264.805989 217.742376 
L 266.54211 228.316752 
L 267.41017 205.826236 
L 268.27823 226.495787 
L 269.146291 233.7477 
L 270.014351 229.019581 
L 270.882411 205.251195 
L 271.750472 221.767667 
L 272.618532 229.977983 
L 273.486592 229.307101 
L 274.354652 212.886469 
L 275.222713 224.067834 
L 276.090773 227.965338 
L 276.958833 233.779647 
L 277.826894 219.850862 
L 278.694954 233.939381 
L 279.563014 232.693458 
L 280.431074 229.402942 
L 281.299135 223.237218 
L 282.167195 209.979314 
L 283.035255 223.173324 
L 283.903316 230.00993 
L 284.771376 219.914755 
L 285.639436 237.421577 
L 286.507496 231.575321 
L 287.375557 239.46617 
L 288.243617 229.147368 
L 289.111677 202.791295 
L 289.979737 231.19196 
L 290.847798 208.605604 
L 291.715858 230.201611 
L 292.583918 227.581977 
L 293.451979 222.374656 
L 294.320039 218.157684 
L 295.188099 211.480812 
L 296.056159 224.483141 
L 296.92422 200.107767 
L 297.79228 231.128067 
L 298.66034 230.744705 
L 299.528401 220.36201 
L 300.396461 231.990629 
L 301.264521 212.247534 
L 302.132581 221.128732 
L 303.000642 183.303774 
L 303.868702 221.096785 
L 304.736762 231.575321 
L 305.604823 216.879814 
L 306.472883 213.110097 
L 307.340943 217.135388 
L 308.209003 224.259514 
L 309.077064 228.508433 
L 309.945124 223.045537 
L 310.813184 210.937717 
L 311.681245 195.507434 
L 312.549305 221.064839 
L 313.417365 225.824905 
L 314.285425 223.013591 
L 315.153486 209.851527 
L 316.021546 216.688133 
L 316.889606 216.336719 
L 317.757667 215.474156 
L 318.625727 223.81226 
L 319.493787 220.425903 
L 320.361847 232.693458 
L 321.229908 204.324739 
L 322.097968 213.429564 
L 322.966028 217.678483 
L 323.834088 216.528399 
L 324.702149 218.445205 
L 325.570209 202.791295 
L 326.438269 215.506103 
L 327.30633 215.026902 
L 328.17439 206.177651 
L 329.04245 220.617584 
L 329.91051 221.000945 
L 330.778571 203.71775 
L 331.646631 206.816586 
L 332.514691 203.813591 
L 334.250812 219.116087 
L 335.118872 212.567002 
L 335.986932 215.026902 
L 336.854993 216.113092 
L 337.723053 194.676819 
L 338.591113 197.839547 
L 339.459174 209.500113 
L 341.195294 215.985304 
L 342.063354 208.669498 
L 342.931415 191.865504 
L 344.667535 216.752027 
L 345.535596 216.943707 
L 346.403656 207.966669 
L 347.271716 211.161344 
L 348.139776 210.139048 
L 349.007837 215.601943 
L 349.875897 219.435554 
L 350.743957 206.241544 
L 351.612018 202.216253 
L 352.480078 204.324739 
L 353.348138 211.672493 
L 354.216198 192.280812 
L 355.084259 205.730396 
L 355.952319 206.305438 
L 356.820379 205.251195 
L 357.688439 216.91176 
L 358.5565 215.921411 
L 359.42456 205.79429 
L 360.29262 209.915421 
L 361.160681 216.656186 
L 362.028741 201.641211 
L 362.896801 206.561012 
L 363.764861 197.168666 
L 364.632922 212.982309 
L 365.500982 211.384972 
L 366.369042 211.257185 
L 367.237103 203.494123 
L 368.105163 208.54171 
L 368.973223 209.755687 
L 369.841283 194.676819 
L 370.709344 189.948699 
L 371.577404 199.532725 
L 372.445464 196.33805 
L 373.313525 207.615255 
L 374.181585 199.852193 
L 375.049645 202.024572 
L 375.917705 211.89612 
L 376.785766 198.286802 
L 377.653826 209.819581 
L 378.521886 188.479148 
L 379.389947 206.720745 
L 380.258007 209.755687 
L 381.126067 198.159015 
L 381.994127 206.369331 
L 382.862188 191.546037 
L 383.730248 193.047534 
L 384.598308 210.682143 
L 385.466368 211.640546 
L 386.334429 192.664173 
L 387.202489 207.487468 
L 388.070549 208.701444 
L 388.93861 198.095121 
L 389.80667 189.948699 
L 390.67473 206.592958 
L 391.54279 212.471161 
L 392.410851 196.210263 
L 393.278911 212.279481 
L 394.146971 197.552027 
L 395.015032 211.768333 
L 396.751152 211.289131 
L 397.619212 200.650862 
L 398.487273 206.656852 
L 398.487273 206.656852 
" style="fill:none;stroke:#d62728;stroke-linecap:square;stroke-width:1.5;"/>
   </g>
   <g id="patch_3">
    <path d="M 57.6 307.584 
L 57.6 41.472 
" style="fill:none;stroke:#000000;stroke-linecap:square;stroke-linejoin:miter;stroke-width:0.8;"/>
   </g>
   <g id="patch_4">
    <path d="M 414.72 307.584 
L 414.72 41.472 
" style="fill:none;stroke:#000000;stroke-linecap:square;stroke-linejoin:miter;stroke-width:0.8;"/>
   </g>
   <g id="patch_5">
    <path d="M 57.6 307.584 
L 414.72 307.584 
" style="fill:none;stroke:#000000;stroke-linecap:square;stroke-linejoin:miter;stroke-width:0.8;"/>
   </g>
   <g id="patch_6">
    <path d="M 57.6 41.472 
L 414.72 41.472 
" style="fill:none;stroke:#000000;stroke-linecap:square;stroke-linejoin:miter;stroke-width:0.8;"/>
   </g>
   <g id="text_21">
    <!-- Training and Validation Accuracy -->
    <g transform="translate(138.4575 35.472)scale(0.12 -0.12)">
     <defs>
      <path d="M -19 4666 
L 3928 4666 
L 3928 4134 
L 2272 4134 
L 2272 0 
L 1638 0 
L 1638 4134 
L -19 4134 
L -19 4666 
z
" id="DejaVuSans-54" transform="scale(0.015625)"/>
      <path d="M 603 3500 
L 1178 3500 
L 1178 0 
L 603 0 
L 603 3500 
z
M 603 4863 
L 1178 4863 
L 1178 4134 
L 603 4134 
L 603 4863 
z
" id="DejaVuSans-69" transform="scale(0.015625)"/>
      <path d="M 3513 2113 
L 3513 0 
L 2938 0 
L 2938 2094 
Q 2938 2591 2744 2837 
Q 2550 3084 2163 3084 
Q 1697 3084 1428 2787 
Q 1159 2491 1159 1978 
L 1159 0 
L 581 0 
L 581 3500 
L 1159 3500 
L 1159 2956 
Q 1366 3272 1645 3428 
Q 1925 3584 2291 3584 
Q 2894 3584 3203 3211 
Q 3513 2838 3513 2113 
z
" id="DejaVuSans-6e" transform="scale(0.015625)"/>
      <path d="M 2906 1791 
Q 2906 2416 2648 2759 
Q 2391 3103 1925 3103 
Q 1463 3103 1205 2759 
Q 947 2416 947 1791 
Q 947 1169 1205 825 
Q 1463 481 1925 481 
Q 2391 481 2648 825 
Q 2906 1169 2906 1791 
z
M 3481 434 
Q 3481 -459 3084 -895 
Q 2688 -1331 1869 -1331 
Q 1566 -1331 1297 -1286 
Q 1028 -1241 775 -1147 
L 775 -588 
Q 1028 -725 1275 -790 
Q 1522 -856 1778 -856 
Q 2344 -856 2625 -561 
Q 2906 -266 2906 331 
L 2906 616 
Q 2728 306 2450 153 
Q 2172 0 1784 0 
Q 1141 0 747 490 
Q 353 981 353 1791 
Q 353 2603 747 3093 
Q 1141 3584 1784 3584 
Q 2172 3584 2450 3431 
Q 2728 3278 2906 2969 
L 2906 3500 
L 3481 3500 
L 3481 434 
z
" id="DejaVuSans-67" transform="scale(0.015625)"/>
      <path id="DejaVuSans-20" transform="scale(0.015625)"/>
      <path d="M 2906 2969 
L 2906 4863 
L 3481 4863 
L 3481 0 
L 2906 0 
L 2906 525 
Q 2725 213 2448 61 
Q 2172 -91 1784 -91 
Q 1150 -91 751 415 
Q 353 922 353 1747 
Q 353 2572 751 3078 
Q 1150 3584 1784 3584 
Q 2172 3584 2448 3432 
Q 2725 3281 2906 2969 
z
M 947 1747 
Q 947 1113 1208 752 
Q 1469 391 1925 391 
Q 2381 391 2643 752 
Q 2906 1113 2906 1747 
Q 2906 2381 2643 2742 
Q 2381 3103 1925 3103 
Q 1469 3103 1208 2742 
Q 947 2381 947 1747 
z
" id="DejaVuSans-64" transform="scale(0.015625)"/>
      <path d="M 1831 0 
L 50 4666 
L 709 4666 
L 2188 738 
L 3669 4666 
L 4325 4666 
L 2547 0 
L 1831 0 
z
" id="DejaVuSans-56" transform="scale(0.015625)"/>
      <path d="M 603 4863 
L 1178 4863 
L 1178 0 
L 603 0 
L 603 4863 
z
" id="DejaVuSans-6c" transform="scale(0.015625)"/>
      <path d="M 1172 4494 
L 1172 3500 
L 2356 3500 
L 2356 3053 
L 1172 3053 
L 1172 1153 
Q 1172 725 1289 603 
Q 1406 481 1766 481 
L 2356 481 
L 2356 0 
L 1766 0 
Q 1100 0 847 248 
Q 594 497 594 1153 
L 594 3053 
L 172 3053 
L 172 3500 
L 594 3500 
L 594 4494 
L 1172 4494 
z
" id="DejaVuSans-74" transform="scale(0.015625)"/>
     </defs>
     <use xlink:href="#DejaVuSans-54"/>
     <use x="46.333984" xlink:href="#DejaVuSans-72"/>
     <use x="87.447266" xlink:href="#DejaVuSans-61"/>
     <use x="148.726562" xlink:href="#DejaVuSans-69"/>
     <use x="176.509766" xlink:href="#DejaVuSans-6e"/>
     <use x="239.888672" xlink:href="#DejaVuSans-69"/>
     <use x="267.671875" xlink:href="#DejaVuSans-6e"/>
     <use x="331.050781" xlink:href="#DejaVuSans-67"/>
     <use x="394.527344" xlink:href="#DejaVuSans-20"/>
     <use x="426.314453" xlink:href="#DejaVuSans-61"/>
     <use x="487.59375" xlink:href="#DejaVuSans-6e"/>
     <use x="550.972656" xlink:href="#DejaVuSans-64"/>
     <use x="614.449219" xlink:href="#DejaVuSans-20"/>
     <use x="646.236328" xlink:href="#DejaVuSans-56"/>
     <use x="706.894531" xlink:href="#DejaVuSans-61"/>
     <use x="768.173828" xlink:href="#DejaVuSans-6c"/>
     <use x="795.957031" xlink:href="#DejaVuSans-69"/>
     <use x="823.740234" xlink:href="#DejaVuSans-64"/>
     <use x="887.216797" xlink:href="#DejaVuSans-61"/>
     <use x="948.496094" xlink:href="#DejaVuSans-74"/>
     <use x="987.705078" xlink:href="#DejaVuSans-69"/>
     <use x="1015.488281" xlink:href="#DejaVuSans-6f"/>
     <use x="1076.669922" xlink:href="#DejaVuSans-6e"/>
     <use x="1140.048828" xlink:href="#DejaVuSans-20"/>
     <use x="1171.835938" xlink:href="#DejaVuSans-41"/>
     <use x="1238.494141" xlink:href="#DejaVuSans-63"/>
     <use x="1293.474609" xlink:href="#DejaVuSans-63"/>
     <use x="1348.455078" xlink:href="#DejaVuSans-75"/>
     <use x="1411.833984" xlink:href="#DejaVuSans-72"/>
     <use x="1452.947266" xlink:href="#DejaVuSans-61"/>
     <use x="1514.226562" xlink:href="#DejaVuSans-63"/>
     <use x="1569.207031" xlink:href="#DejaVuSans-79"/>
    </g>
   </g>
   <g id="legend_1">
    <g id="patch_7">
     <path d="M 217.996562 302.584 
L 407.72 302.584 
Q 409.72 302.584 409.72 300.584 
L 409.72 242.8715 
Q 409.72 240.8715 407.72 240.8715 
L 217.996562 240.8715 
Q 215.996562 240.8715 215.996562 242.8715 
L 215.996562 300.584 
Q 215.996562 302.584 217.996562 302.584 
z
" style="fill:#ffffff;opacity:0.8;stroke:#cccccc;stroke-linejoin:miter;"/>
    </g>
    <g id="line2d_23">
     <path d="M 219.996562 248.969937 
L 239.996562 248.969937 
" style="fill:none;stroke:#1f77b4;stroke-linecap:square;stroke-width:1.5;"/>
    </g>
    <g id="line2d_24"/>
    <g id="text_22">
     <!-- Train Accuracy -->
     <g transform="translate(247.996562 252.469937)scale(0.1 -0.1)">
      <use xlink:href="#DejaVuSans-54"/>
      <use x="46.333984" xlink:href="#DejaVuSans-72"/>
      <use x="87.447266" xlink:href="#DejaVuSans-61"/>
      <use x="148.726562" xlink:href="#DejaVuSans-69"/>
      <use x="176.509766" xlink:href="#DejaVuSans-6e"/>
      <use x="239.888672" xlink:href="#DejaVuSans-20"/>
      <use x="271.675781" xlink:href="#DejaVuSans-41"/>
      <use x="338.333984" xlink:href="#DejaVuSans-63"/>
      <use x="393.314453" xlink:href="#DejaVuSans-63"/>
      <use x="448.294922" xlink:href="#DejaVuSans-75"/>
      <use x="511.673828" xlink:href="#DejaVuSans-72"/>
      <use x="552.787109" xlink:href="#DejaVuSans-61"/>
      <use x="614.066406" xlink:href="#DejaVuSans-63"/>
      <use x="669.046875" xlink:href="#DejaVuSans-79"/>
     </g>
    </g>
    <g id="line2d_25">
     <path d="M 219.996562 263.648062 
L 239.996562 263.648062 
" style="fill:none;stroke:#ff7f0e;stroke-linecap:square;stroke-width:1.5;"/>
    </g>
    <g id="line2d_26"/>
    <g id="text_23">
     <!-- Validation Accuracy -->
     <g transform="translate(247.996562 267.148062)scale(0.1 -0.1)">
      <use xlink:href="#DejaVuSans-56"/>
      <use x="60.658203" xlink:href="#DejaVuSans-61"/>
      <use x="121.9375" xlink:href="#DejaVuSans-6c"/>
      <use x="149.720703" xlink:href="#DejaVuSans-69"/>
      <use x="177.503906" xlink:href="#DejaVuSans-64"/>
      <use x="240.980469" xlink:href="#DejaVuSans-61"/>
      <use x="302.259766" xlink:href="#DejaVuSans-74"/>
      <use x="341.46875" xlink:href="#DejaVuSans-69"/>
      <use x="369.251953" xlink:href="#DejaVuSans-6f"/>
      <use x="430.433594" xlink:href="#DejaVuSans-6e"/>
      <use x="493.8125" xlink:href="#DejaVuSans-20"/>
      <use x="525.599609" xlink:href="#DejaVuSans-41"/>
      <use x="592.257812" xlink:href="#DejaVuSans-63"/>
      <use x="647.238281" xlink:href="#DejaVuSans-63"/>
      <use x="702.21875" xlink:href="#DejaVuSans-75"/>
      <use x="765.597656" xlink:href="#DejaVuSans-72"/>
      <use x="806.710938" xlink:href="#DejaVuSans-61"/>
      <use x="867.990234" xlink:href="#DejaVuSans-63"/>
      <use x="922.970703" xlink:href="#DejaVuSans-79"/>
     </g>
    </g>
    <g id="line2d_27">
     <path d="M 219.996562 278.326187 
L 239.996562 278.326187 
" style="fill:none;stroke:#2ca02c;stroke-linecap:square;stroke-width:1.5;"/>
    </g>
    <g id="line2d_28"/>
    <g id="text_24">
     <!-- Robust Validation Accuracy -->
     <g transform="translate(247.996562 281.826187)scale(0.1 -0.1)">
      <defs>
       <path d="M 2841 2188 
Q 3044 2119 3236 1894 
Q 3428 1669 3622 1275 
L 4263 0 
L 3584 0 
L 2988 1197 
Q 2756 1666 2539 1819 
Q 2322 1972 1947 1972 
L 1259 1972 
L 1259 0 
L 628 0 
L 628 4666 
L 2053 4666 
Q 2853 4666 3247 4331 
Q 3641 3997 3641 3322 
Q 3641 2881 3436 2590 
Q 3231 2300 2841 2188 
z
M 1259 4147 
L 1259 2491 
L 2053 2491 
Q 2509 2491 2742 2702 
Q 2975 2913 2975 3322 
Q 2975 3731 2742 3939 
Q 2509 4147 2053 4147 
L 1259 4147 
z
" id="DejaVuSans-52" transform="scale(0.015625)"/>
       <path d="M 3116 1747 
Q 3116 2381 2855 2742 
Q 2594 3103 2138 3103 
Q 1681 3103 1420 2742 
Q 1159 2381 1159 1747 
Q 1159 1113 1420 752 
Q 1681 391 2138 391 
Q 2594 391 2855 752 
Q 3116 1113 3116 1747 
z
M 1159 2969 
Q 1341 3281 1617 3432 
Q 1894 3584 2278 3584 
Q 2916 3584 3314 3078 
Q 3713 2572 3713 1747 
Q 3713 922 3314 415 
Q 2916 -91 2278 -91 
Q 1894 -91 1617 61 
Q 1341 213 1159 525 
L 1159 0 
L 581 0 
L 581 4863 
L 1159 4863 
L 1159 2969 
z
" id="DejaVuSans-62" transform="scale(0.015625)"/>
      </defs>
      <use xlink:href="#DejaVuSans-52"/>
      <use x="64.982422" xlink:href="#DejaVuSans-6f"/>
      <use x="126.164062" xlink:href="#DejaVuSans-62"/>
      <use x="189.640625" xlink:href="#DejaVuSans-75"/>
      <use x="253.019531" xlink:href="#DejaVuSans-73"/>
      <use x="305.119141" xlink:href="#DejaVuSans-74"/>
      <use x="344.328125" xlink:href="#DejaVuSans-20"/>
      <use x="376.115234" xlink:href="#DejaVuSans-56"/>
      <use x="436.773438" xlink:href="#DejaVuSans-61"/>
      <use x="498.052734" xlink:href="#DejaVuSans-6c"/>
      <use x="525.835938" xlink:href="#DejaVuSans-69"/>
      <use x="553.619141" xlink:href="#DejaVuSans-64"/>
      <use x="617.095703" xlink:href="#DejaVuSans-61"/>
      <use x="678.375" xlink:href="#DejaVuSans-74"/>
      <use x="717.583984" xlink:href="#DejaVuSans-69"/>
      <use x="745.367188" xlink:href="#DejaVuSans-6f"/>
      <use x="806.548828" xlink:href="#DejaVuSans-6e"/>
      <use x="869.927734" xlink:href="#DejaVuSans-20"/>
      <use x="901.714844" xlink:href="#DejaVuSans-41"/>
      <use x="968.373047" xlink:href="#DejaVuSans-63"/>
      <use x="1023.353516" xlink:href="#DejaVuSans-63"/>
      <use x="1078.333984" xlink:href="#DejaVuSans-75"/>
      <use x="1141.712891" xlink:href="#DejaVuSans-72"/>
      <use x="1182.826172" xlink:href="#DejaVuSans-61"/>
      <use x="1244.105469" xlink:href="#DejaVuSans-63"/>
      <use x="1299.085938" xlink:href="#DejaVuSans-79"/>
     </g>
    </g>
    <g id="line2d_29">
     <path d="M 219.996562 293.004312 
L 239.996562 293.004312 
" style="fill:none;stroke:#d62728;stroke-linecap:square;stroke-width:1.5;"/>
    </g>
    <g id="line2d_30"/>
    <g id="text_25">
     <!-- Adversarial Validation Accuracy -->
     <g transform="translate(247.996562 296.504312)scale(0.1 -0.1)">
      <defs>
       <path d="M 191 3500 
L 800 3500 
L 1894 563 
L 2988 3500 
L 3597 3500 
L 2284 0 
L 1503 0 
L 191 3500 
z
" id="DejaVuSans-76" transform="scale(0.015625)"/>
       <path d="M 3597 1894 
L 3597 1613 
L 953 1613 
Q 991 1019 1311 708 
Q 1631 397 2203 397 
Q 2534 397 2845 478 
Q 3156 559 3463 722 
L 3463 178 
Q 3153 47 2828 -22 
Q 2503 -91 2169 -91 
Q 1331 -91 842 396 
Q 353 884 353 1716 
Q 353 2575 817 3079 
Q 1281 3584 2069 3584 
Q 2775 3584 3186 3129 
Q 3597 2675 3597 1894 
z
M 3022 2063 
Q 3016 2534 2758 2815 
Q 2500 3097 2075 3097 
Q 1594 3097 1305 2825 
Q 1016 2553 972 2059 
L 3022 2063 
z
" id="DejaVuSans-65" transform="scale(0.015625)"/>
      </defs>
      <use xlink:href="#DejaVuSans-41"/>
      <use x="66.658203" xlink:href="#DejaVuSans-64"/>
      <use x="130.134766" xlink:href="#DejaVuSans-76"/>
      <use x="189.314453" xlink:href="#DejaVuSans-65"/>
      <use x="250.837891" xlink:href="#DejaVuSans-72"/>
      <use x="291.951172" xlink:href="#DejaVuSans-73"/>
      <use x="344.050781" xlink:href="#DejaVuSans-61"/>
      <use x="405.330078" xlink:href="#DejaVuSans-72"/>
      <use x="446.443359" xlink:href="#DejaVuSans-69"/>
      <use x="474.226562" xlink:href="#DejaVuSans-61"/>
      <use x="535.505859" xlink:href="#DejaVuSans-6c"/>
      <use x="563.289062" xlink:href="#DejaVuSans-20"/>
      <use x="595.076172" xlink:href="#DejaVuSans-56"/>
      <use x="655.734375" xlink:href="#DejaVuSans-61"/>
      <use x="717.013672" xlink:href="#DejaVuSans-6c"/>
      <use x="744.796875" xlink:href="#DejaVuSans-69"/>
      <use x="772.580078" xlink:href="#DejaVuSans-64"/>
      <use x="836.056641" xlink:href="#DejaVuSans-61"/>
      <use x="897.335938" xlink:href="#DejaVuSans-74"/>
      <use x="936.544922" xlink:href="#DejaVuSans-69"/>
      <use x="964.328125" xlink:href="#DejaVuSans-6f"/>
      <use x="1025.509766" xlink:href="#DejaVuSans-6e"/>
      <use x="1088.888672" xlink:href="#DejaVuSans-20"/>
      <use x="1120.675781" xlink:href="#DejaVuSans-41"/>
      <use x="1187.333984" xlink:href="#DejaVuSans-63"/>
      <use x="1242.314453" xlink:href="#DejaVuSans-63"/>
      <use x="1297.294922" xlink:href="#DejaVuSans-75"/>
      <use x="1360.673828" xlink:href="#DejaVuSans-72"/>
      <use x="1401.787109" xlink:href="#DejaVuSans-61"/>
      <use x="1463.066406" xlink:href="#DejaVuSans-63"/>
      <use x="1518.046875" xlink:href="#DejaVuSans-79"/>
     </g>
    </g>
   </g>
  </g>
 </g>
 <defs>
  <clipPath id="p74bc6cb33e">
   <rect height="266.112" width="357.12" x="57.6" y="41.472"/>
  </clipPath>
 </defs>
</svg>
