<?xml version="1.0" encoding="utf-8" standalone="no"?>
<!DOCTYPE svg PUBLIC "-//W3C//DTD SVG 1.1//EN"
  "http://www.w3.org/Graphics/SVG/1.1/DTD/svg11.dtd">
<svg height="345.6pt" version="1.1" viewBox="0 0 460.8 345.6" width="460.8pt" xmlns="http://www.w3.org/2000/svg" xmlns:xlink="http://www.w3.org/1999/xlink">
 <metadata>
  <rdf:RDF xmlns:cc="http://creativecommons.org/ns#" xmlns:dc="http://purl.org/dc/elements/1.1/" xmlns:rdf="http://www.w3.org/1999/02/22-rdf-syntax-ns#">
   <cc:Work>
    <dc:type rdf:resource="http://purl.org/dc/dcmitype/StillImage"/>
    <dc:date>2024-03-21T21:55:50.656384</dc:date>
    <dc:format>image/svg+xml</dc:format>
    <dc:creator>
     <cc:Agent>
      <dc:title>Matplotlib v3.4.3, https://matplotlib.org/</dc:title>
     </cc:Agent>
    </dc:creator>
   </cc:Work>
  </rdf:RDF>
 </metadata>
 <defs>
  <style type="text/css">*{stroke-linecap:butt;stroke-linejoin:round;}</style>
 </defs>
 <g id="figure_1">
  <g id="patch_1">
   <path d="M 0 345.6 
L 460.8 345.6 
L 460.8 0 
L 0 0 
z
" style="fill:#ffffff;"/>
  </g>
  <g id="axes_1">
   <g id="patch_2">
    <path d="M 57.6 307.584 
L 414.72 307.584 
L 414.72 41.472 
L 57.6 41.472 
z
" style="fill:#ffffff;"/>
   </g>
   <g id="matplotlib.axis_1">
    <g id="xtick_1">
     <g id="line2d_1">
      <defs>
       <path d="M 0 0 
L 0 3.5 
" id="mfd4fbc2dde" style="stroke:#000000;stroke-width:0.8;"/>
      </defs>
      <g>
       <use style="stroke:#000000;stroke-width:0.8;" x="73.832727" xlink:href="#mfd4fbc2dde" y="307.584"/>
      </g>
     </g>
     <g id="text_1">
      <!-- 1 -->
      <g transform="translate(70.651477 322.182437)scale(0.1 -0.1)">
       <defs>
        <path d="M 794 531 
L 1825 531 
L 1825 4091 
L 703 3866 
L 703 4441 
L 1819 4666 
L 2450 4666 
L 2450 531 
L 3481 531 
L 3481 0 
L 794 0 
L 794 531 
z
" id="DejaVuSans-31" transform="scale(0.015625)"/>
       </defs>
       <use xlink:href="#DejaVuSans-31"/>
      </g>
     </g>
    </g>
    <g id="xtick_2">
     <g id="line2d_2">
      <g>
       <use style="stroke:#000000;stroke-width:0.8;" x="109.423199" xlink:href="#mfd4fbc2dde" y="307.584"/>
      </g>
     </g>
     <g id="text_2">
      <!-- 42 -->
      <g transform="translate(103.060699 322.182437)scale(0.1 -0.1)">
       <defs>
        <path d="M 2419 4116 
L 825 1625 
L 2419 1625 
L 2419 4116 
z
M 2253 4666 
L 3047 4666 
L 3047 1625 
L 3713 1625 
L 3713 1100 
L 3047 1100 
L 3047 0 
L 2419 0 
L 2419 1100 
L 313 1100 
L 313 1709 
L 2253 4666 
z
" id="DejaVuSans-34" transform="scale(0.015625)"/>
        <path d="M 1228 531 
L 3431 531 
L 3431 0 
L 469 0 
L 469 531 
Q 828 903 1448 1529 
Q 2069 2156 2228 2338 
Q 2531 2678 2651 2914 
Q 2772 3150 2772 3378 
Q 2772 3750 2511 3984 
Q 2250 4219 1831 4219 
Q 1534 4219 1204 4116 
Q 875 4013 500 3803 
L 500 4441 
Q 881 4594 1212 4672 
Q 1544 4750 1819 4750 
Q 2544 4750 2975 4387 
Q 3406 4025 3406 3419 
Q 3406 3131 3298 2873 
Q 3191 2616 2906 2266 
Q 2828 2175 2409 1742 
Q 1991 1309 1228 531 
z
" id="DejaVuSans-32" transform="scale(0.015625)"/>
       </defs>
       <use xlink:href="#DejaVuSans-34"/>
       <use x="63.623047" xlink:href="#DejaVuSans-32"/>
      </g>
     </g>
    </g>
    <g id="xtick_3">
     <g id="line2d_3">
      <g>
       <use style="stroke:#000000;stroke-width:0.8;" x="145.881731" xlink:href="#mfd4fbc2dde" y="307.584"/>
      </g>
     </g>
     <g id="text_3">
      <!-- 84 -->
      <g transform="translate(139.519231 322.182437)scale(0.1 -0.1)">
       <defs>
        <path d="M 2034 2216 
Q 1584 2216 1326 1975 
Q 1069 1734 1069 1313 
Q 1069 891 1326 650 
Q 1584 409 2034 409 
Q 2484 409 2743 651 
Q 3003 894 3003 1313 
Q 3003 1734 2745 1975 
Q 2488 2216 2034 2216 
z
M 1403 2484 
Q 997 2584 770 2862 
Q 544 3141 544 3541 
Q 544 4100 942 4425 
Q 1341 4750 2034 4750 
Q 2731 4750 3128 4425 
Q 3525 4100 3525 3541 
Q 3525 3141 3298 2862 
Q 3072 2584 2669 2484 
Q 3125 2378 3379 2068 
Q 3634 1759 3634 1313 
Q 3634 634 3220 271 
Q 2806 -91 2034 -91 
Q 1263 -91 848 271 
Q 434 634 434 1313 
Q 434 1759 690 2068 
Q 947 2378 1403 2484 
z
M 1172 3481 
Q 1172 3119 1398 2916 
Q 1625 2713 2034 2713 
Q 2441 2713 2670 2916 
Q 2900 3119 2900 3481 
Q 2900 3844 2670 4047 
Q 2441 4250 2034 4250 
Q 1625 4250 1398 4047 
Q 1172 3844 1172 3481 
z
" id="DejaVuSans-38" transform="scale(0.015625)"/>
       </defs>
       <use xlink:href="#DejaVuSans-38"/>
       <use x="63.623047" xlink:href="#DejaVuSans-34"/>
      </g>
     </g>
    </g>
    <g id="xtick_4">
     <g id="line2d_4">
      <g>
       <use style="stroke:#000000;stroke-width:0.8;" x="181.472202" xlink:href="#mfd4fbc2dde" y="307.584"/>
      </g>
     </g>
     <g id="text_4">
      <!-- 125 -->
      <g transform="translate(171.928452 322.182437)scale(0.1 -0.1)">
       <defs>
        <path d="M 691 4666 
L 3169 4666 
L 3169 4134 
L 1269 4134 
L 1269 2991 
Q 1406 3038 1543 3061 
Q 1681 3084 1819 3084 
Q 2600 3084 3056 2656 
Q 3513 2228 3513 1497 
Q 3513 744 3044 326 
Q 2575 -91 1722 -91 
Q 1428 -91 1123 -41 
Q 819 9 494 109 
L 494 744 
Q 775 591 1075 516 
Q 1375 441 1709 441 
Q 2250 441 2565 725 
Q 2881 1009 2881 1497 
Q 2881 1984 2565 2268 
Q 2250 2553 1709 2553 
Q 1456 2553 1204 2497 
Q 953 2441 691 2322 
L 691 4666 
z
" id="DejaVuSans-35" transform="scale(0.015625)"/>
       </defs>
       <use xlink:href="#DejaVuSans-31"/>
       <use x="63.623047" xlink:href="#DejaVuSans-32"/>
       <use x="127.246094" xlink:href="#DejaVuSans-35"/>
      </g>
     </g>
    </g>
    <g id="xtick_5">
     <g id="line2d_5">
      <g>
       <use style="stroke:#000000;stroke-width:0.8;" x="217.930734" xlink:href="#mfd4fbc2dde" y="307.584"/>
      </g>
     </g>
     <g id="text_5">
      <!-- 167 -->
      <g transform="translate(208.386984 322.182437)scale(0.1 -0.1)">
       <defs>
        <path d="M 2113 2584 
Q 1688 2584 1439 2293 
Q 1191 2003 1191 1497 
Q 1191 994 1439 701 
Q 1688 409 2113 409 
Q 2538 409 2786 701 
Q 3034 994 3034 1497 
Q 3034 2003 2786 2293 
Q 2538 2584 2113 2584 
z
M 3366 4563 
L 3366 3988 
Q 3128 4100 2886 4159 
Q 2644 4219 2406 4219 
Q 1781 4219 1451 3797 
Q 1122 3375 1075 2522 
Q 1259 2794 1537 2939 
Q 1816 3084 2150 3084 
Q 2853 3084 3261 2657 
Q 3669 2231 3669 1497 
Q 3669 778 3244 343 
Q 2819 -91 2113 -91 
Q 1303 -91 875 529 
Q 447 1150 447 2328 
Q 447 3434 972 4092 
Q 1497 4750 2381 4750 
Q 2619 4750 2861 4703 
Q 3103 4656 3366 4563 
z
" id="DejaVuSans-36" transform="scale(0.015625)"/>
        <path d="M 525 4666 
L 3525 4666 
L 3525 4397 
L 1831 0 
L 1172 0 
L 2766 4134 
L 525 4134 
L 525 4666 
z
" id="DejaVuSans-37" transform="scale(0.015625)"/>
       </defs>
       <use xlink:href="#DejaVuSans-31"/>
       <use x="63.623047" xlink:href="#DejaVuSans-36"/>
       <use x="127.246094" xlink:href="#DejaVuSans-37"/>
      </g>
     </g>
    </g>
    <g id="xtick_6">
     <g id="line2d_6">
      <g>
       <use style="stroke:#000000;stroke-width:0.8;" x="253.521206" xlink:href="#mfd4fbc2dde" y="307.584"/>
      </g>
     </g>
     <g id="text_6">
      <!-- 208 -->
      <g transform="translate(243.977456 322.182437)scale(0.1 -0.1)">
       <defs>
        <path d="M 2034 4250 
Q 1547 4250 1301 3770 
Q 1056 3291 1056 2328 
Q 1056 1369 1301 889 
Q 1547 409 2034 409 
Q 2525 409 2770 889 
Q 3016 1369 3016 2328 
Q 3016 3291 2770 3770 
Q 2525 4250 2034 4250 
z
M 2034 4750 
Q 2819 4750 3233 4129 
Q 3647 3509 3647 2328 
Q 3647 1150 3233 529 
Q 2819 -91 2034 -91 
Q 1250 -91 836 529 
Q 422 1150 422 2328 
Q 422 3509 836 4129 
Q 1250 4750 2034 4750 
z
" id="DejaVuSans-30" transform="scale(0.015625)"/>
       </defs>
       <use xlink:href="#DejaVuSans-32"/>
       <use x="63.623047" xlink:href="#DejaVuSans-30"/>
       <use x="127.246094" xlink:href="#DejaVuSans-38"/>
      </g>
     </g>
    </g>
    <g id="xtick_7">
     <g id="line2d_7">
      <g>
       <use style="stroke:#000000;stroke-width:0.8;" x="289.979737" xlink:href="#mfd4fbc2dde" y="307.584"/>
      </g>
     </g>
     <g id="text_7">
      <!-- 250 -->
      <g transform="translate(280.435987 322.182437)scale(0.1 -0.1)">
       <use xlink:href="#DejaVuSans-32"/>
       <use x="63.623047" xlink:href="#DejaVuSans-35"/>
       <use x="127.246094" xlink:href="#DejaVuSans-30"/>
      </g>
     </g>
    </g>
    <g id="xtick_8">
     <g id="line2d_8">
      <g>
       <use style="stroke:#000000;stroke-width:0.8;" x="325.570209" xlink:href="#mfd4fbc2dde" y="307.584"/>
      </g>
     </g>
     <g id="text_8">
      <!-- 291 -->
      <g transform="translate(316.026459 322.182437)scale(0.1 -0.1)">
       <defs>
        <path d="M 703 97 
L 703 672 
Q 941 559 1184 500 
Q 1428 441 1663 441 
Q 2288 441 2617 861 
Q 2947 1281 2994 2138 
Q 2813 1869 2534 1725 
Q 2256 1581 1919 1581 
Q 1219 1581 811 2004 
Q 403 2428 403 3163 
Q 403 3881 828 4315 
Q 1253 4750 1959 4750 
Q 2769 4750 3195 4129 
Q 3622 3509 3622 2328 
Q 3622 1225 3098 567 
Q 2575 -91 1691 -91 
Q 1453 -91 1209 -44 
Q 966 3 703 97 
z
M 1959 2075 
Q 2384 2075 2632 2365 
Q 2881 2656 2881 3163 
Q 2881 3666 2632 3958 
Q 2384 4250 1959 4250 
Q 1534 4250 1286 3958 
Q 1038 3666 1038 3163 
Q 1038 2656 1286 2365 
Q 1534 2075 1959 2075 
z
" id="DejaVuSans-39" transform="scale(0.015625)"/>
       </defs>
       <use xlink:href="#DejaVuSans-32"/>
       <use x="63.623047" xlink:href="#DejaVuSans-39"/>
       <use x="127.246094" xlink:href="#DejaVuSans-31"/>
      </g>
     </g>
    </g>
    <g id="xtick_9">
     <g id="line2d_9">
      <g>
       <use style="stroke:#000000;stroke-width:0.8;" x="362.028741" xlink:href="#mfd4fbc2dde" y="307.584"/>
      </g>
     </g>
     <g id="text_9">
      <!-- 333 -->
      <g transform="translate(352.484991 322.182437)scale(0.1 -0.1)">
       <defs>
        <path d="M 2597 2516 
Q 3050 2419 3304 2112 
Q 3559 1806 3559 1356 
Q 3559 666 3084 287 
Q 2609 -91 1734 -91 
Q 1441 -91 1130 -33 
Q 819 25 488 141 
L 488 750 
Q 750 597 1062 519 
Q 1375 441 1716 441 
Q 2309 441 2620 675 
Q 2931 909 2931 1356 
Q 2931 1769 2642 2001 
Q 2353 2234 1838 2234 
L 1294 2234 
L 1294 2753 
L 1863 2753 
Q 2328 2753 2575 2939 
Q 2822 3125 2822 3475 
Q 2822 3834 2567 4026 
Q 2313 4219 1838 4219 
Q 1578 4219 1281 4162 
Q 984 4106 628 3988 
L 628 4550 
Q 988 4650 1302 4700 
Q 1616 4750 1894 4750 
Q 2613 4750 3031 4423 
Q 3450 4097 3450 3541 
Q 3450 3153 3228 2886 
Q 3006 2619 2597 2516 
z
" id="DejaVuSans-33" transform="scale(0.015625)"/>
       </defs>
       <use xlink:href="#DejaVuSans-33"/>
       <use x="63.623047" xlink:href="#DejaVuSans-33"/>
       <use x="127.246094" xlink:href="#DejaVuSans-33"/>
      </g>
     </g>
    </g>
    <g id="xtick_10">
     <g id="line2d_10">
      <g>
       <use style="stroke:#000000;stroke-width:0.8;" x="398.487273" xlink:href="#mfd4fbc2dde" y="307.584"/>
      </g>
     </g>
     <g id="text_10">
      <!-- 375 -->
      <g transform="translate(388.943523 322.182437)scale(0.1 -0.1)">
       <use xlink:href="#DejaVuSans-33"/>
       <use x="63.623047" xlink:href="#DejaVuSans-37"/>
       <use x="127.246094" xlink:href="#DejaVuSans-35"/>
      </g>
     </g>
    </g>
    <g id="text_11">
     <!-- Epochs -->
     <g transform="translate(218.244375 335.860562)scale(0.1 -0.1)">
      <defs>
       <path d="M 628 4666 
L 3578 4666 
L 3578 4134 
L 1259 4134 
L 1259 2753 
L 3481 2753 
L 3481 2222 
L 1259 2222 
L 1259 531 
L 3634 531 
L 3634 0 
L 628 0 
L 628 4666 
z
" id="DejaVuSans-45" transform="scale(0.015625)"/>
       <path d="M 1159 525 
L 1159 -1331 
L 581 -1331 
L 581 3500 
L 1159 3500 
L 1159 2969 
Q 1341 3281 1617 3432 
Q 1894 3584 2278 3584 
Q 2916 3584 3314 3078 
Q 3713 2572 3713 1747 
Q 3713 922 3314 415 
Q 2916 -91 2278 -91 
Q 1894 -91 1617 61 
Q 1341 213 1159 525 
z
M 3116 1747 
Q 3116 2381 2855 2742 
Q 2594 3103 2138 3103 
Q 1681 3103 1420 2742 
Q 1159 2381 1159 1747 
Q 1159 1113 1420 752 
Q 1681 391 2138 391 
Q 2594 391 2855 752 
Q 3116 1113 3116 1747 
z
" id="DejaVuSans-70" transform="scale(0.015625)"/>
       <path d="M 1959 3097 
Q 1497 3097 1228 2736 
Q 959 2375 959 1747 
Q 959 1119 1226 758 
Q 1494 397 1959 397 
Q 2419 397 2687 759 
Q 2956 1122 2956 1747 
Q 2956 2369 2687 2733 
Q 2419 3097 1959 3097 
z
M 1959 3584 
Q 2709 3584 3137 3096 
Q 3566 2609 3566 1747 
Q 3566 888 3137 398 
Q 2709 -91 1959 -91 
Q 1206 -91 779 398 
Q 353 888 353 1747 
Q 353 2609 779 3096 
Q 1206 3584 1959 3584 
z
" id="DejaVuSans-6f" transform="scale(0.015625)"/>
       <path d="M 3122 3366 
L 3122 2828 
Q 2878 2963 2633 3030 
Q 2388 3097 2138 3097 
Q 1578 3097 1268 2742 
Q 959 2388 959 1747 
Q 959 1106 1268 751 
Q 1578 397 2138 397 
Q 2388 397 2633 464 
Q 2878 531 3122 666 
L 3122 134 
Q 2881 22 2623 -34 
Q 2366 -91 2075 -91 
Q 1284 -91 818 406 
Q 353 903 353 1747 
Q 353 2603 823 3093 
Q 1294 3584 2113 3584 
Q 2378 3584 2631 3529 
Q 2884 3475 3122 3366 
z
" id="DejaVuSans-63" transform="scale(0.015625)"/>
       <path d="M 3513 2113 
L 3513 0 
L 2938 0 
L 2938 2094 
Q 2938 2591 2744 2837 
Q 2550 3084 2163 3084 
Q 1697 3084 1428 2787 
Q 1159 2491 1159 1978 
L 1159 0 
L 581 0 
L 581 4863 
L 1159 4863 
L 1159 2956 
Q 1366 3272 1645 3428 
Q 1925 3584 2291 3584 
Q 2894 3584 3203 3211 
Q 3513 2838 3513 2113 
z
" id="DejaVuSans-68" transform="scale(0.015625)"/>
       <path d="M 2834 3397 
L 2834 2853 
Q 2591 2978 2328 3040 
Q 2066 3103 1784 3103 
Q 1356 3103 1142 2972 
Q 928 2841 928 2578 
Q 928 2378 1081 2264 
Q 1234 2150 1697 2047 
L 1894 2003 
Q 2506 1872 2764 1633 
Q 3022 1394 3022 966 
Q 3022 478 2636 193 
Q 2250 -91 1575 -91 
Q 1294 -91 989 -36 
Q 684 19 347 128 
L 347 722 
Q 666 556 975 473 
Q 1284 391 1588 391 
Q 1994 391 2212 530 
Q 2431 669 2431 922 
Q 2431 1156 2273 1281 
Q 2116 1406 1581 1522 
L 1381 1569 
Q 847 1681 609 1914 
Q 372 2147 372 2553 
Q 372 3047 722 3315 
Q 1072 3584 1716 3584 
Q 2034 3584 2315 3537 
Q 2597 3491 2834 3397 
z
" id="DejaVuSans-73" transform="scale(0.015625)"/>
      </defs>
      <use xlink:href="#DejaVuSans-45"/>
      <use x="63.183594" xlink:href="#DejaVuSans-70"/>
      <use x="126.660156" xlink:href="#DejaVuSans-6f"/>
      <use x="187.841797" xlink:href="#DejaVuSans-63"/>
      <use x="242.822266" xlink:href="#DejaVuSans-68"/>
      <use x="306.201172" xlink:href="#DejaVuSans-73"/>
     </g>
    </g>
   </g>
   <g id="matplotlib.axis_2">
    <g id="ytick_1">
     <g id="line2d_11">
      <defs>
       <path d="M 0 0 
L -3.5 0 
" id="ma7213411e9" style="stroke:#000000;stroke-width:0.8;"/>
      </defs>
      <g>
       <use style="stroke:#000000;stroke-width:0.8;" x="57.6" xlink:href="#ma7213411e9" y="279.238011"/>
      </g>
     </g>
     <g id="text_12">
      <!-- 10 -->
      <g transform="translate(37.875 283.037229)scale(0.1 -0.1)">
       <use xlink:href="#DejaVuSans-31"/>
       <use x="63.623047" xlink:href="#DejaVuSans-30"/>
      </g>
     </g>
    </g>
    <g id="ytick_2">
     <g id="line2d_12">
      <g>
       <use style="stroke:#000000;stroke-width:0.8;" x="57.6" xlink:href="#ma7213411e9" y="248.012051"/>
      </g>
     </g>
     <g id="text_13">
      <!-- 20 -->
      <g transform="translate(37.875 251.81127)scale(0.1 -0.1)">
       <use xlink:href="#DejaVuSans-32"/>
       <use x="63.623047" xlink:href="#DejaVuSans-30"/>
      </g>
     </g>
    </g>
    <g id="ytick_3">
     <g id="line2d_13">
      <g>
       <use style="stroke:#000000;stroke-width:0.8;" x="57.6" xlink:href="#ma7213411e9" y="216.786091"/>
      </g>
     </g>
     <g id="text_14">
      <!-- 30 -->
      <g transform="translate(37.875 220.58531)scale(0.1 -0.1)">
       <use xlink:href="#DejaVuSans-33"/>
       <use x="63.623047" xlink:href="#DejaVuSans-30"/>
      </g>
     </g>
    </g>
    <g id="ytick_4">
     <g id="line2d_14">
      <g>
       <use style="stroke:#000000;stroke-width:0.8;" x="57.6" xlink:href="#ma7213411e9" y="185.560132"/>
      </g>
     </g>
     <g id="text_15">
      <!-- 40 -->
      <g transform="translate(37.875 189.35935)scale(0.1 -0.1)">
       <use xlink:href="#DejaVuSans-34"/>
       <use x="63.623047" xlink:href="#DejaVuSans-30"/>
      </g>
     </g>
    </g>
    <g id="ytick_5">
     <g id="line2d_15">
      <g>
       <use style="stroke:#000000;stroke-width:0.8;" x="57.6" xlink:href="#ma7213411e9" y="154.334172"/>
      </g>
     </g>
     <g id="text_16">
      <!-- 50 -->
      <g transform="translate(37.875 158.133391)scale(0.1 -0.1)">
       <use xlink:href="#DejaVuSans-35"/>
       <use x="63.623047" xlink:href="#DejaVuSans-30"/>
      </g>
     </g>
    </g>
    <g id="ytick_6">
     <g id="line2d_16">
      <g>
       <use style="stroke:#000000;stroke-width:0.8;" x="57.6" xlink:href="#ma7213411e9" y="123.108212"/>
      </g>
     </g>
     <g id="text_17">
      <!-- 60 -->
      <g transform="translate(37.875 126.907431)scale(0.1 -0.1)">
       <use xlink:href="#DejaVuSans-36"/>
       <use x="63.623047" xlink:href="#DejaVuSans-30"/>
      </g>
     </g>
    </g>
    <g id="ytick_7">
     <g id="line2d_17">
      <g>
       <use style="stroke:#000000;stroke-width:0.8;" x="57.6" xlink:href="#ma7213411e9" y="91.882253"/>
      </g>
     </g>
     <g id="text_18">
      <!-- 70 -->
      <g transform="translate(37.875 95.681471)scale(0.1 -0.1)">
       <use xlink:href="#DejaVuSans-37"/>
       <use x="63.623047" xlink:href="#DejaVuSans-30"/>
      </g>
     </g>
    </g>
    <g id="ytick_8">
     <g id="line2d_18">
      <g>
       <use style="stroke:#000000;stroke-width:0.8;" x="57.6" xlink:href="#ma7213411e9" y="60.656293"/>
      </g>
     </g>
     <g id="text_19">
      <!-- 80 -->
      <g transform="translate(37.875 64.455512)scale(0.1 -0.1)">
       <use xlink:href="#DejaVuSans-38"/>
       <use x="63.623047" xlink:href="#DejaVuSans-30"/>
      </g>
     </g>
    </g>
    <g id="text_20">
     <!-- Accuracy -->
     <g transform="translate(31.795312 197.356125)rotate(-90)scale(0.1 -0.1)">
      <defs>
       <path d="M 2188 4044 
L 1331 1722 
L 3047 1722 
L 2188 4044 
z
M 1831 4666 
L 2547 4666 
L 4325 0 
L 3669 0 
L 3244 1197 
L 1141 1197 
L 716 0 
L 50 0 
L 1831 4666 
z
" id="DejaVuSans-41" transform="scale(0.015625)"/>
       <path d="M 544 1381 
L 544 3500 
L 1119 3500 
L 1119 1403 
Q 1119 906 1312 657 
Q 1506 409 1894 409 
Q 2359 409 2629 706 
Q 2900 1003 2900 1516 
L 2900 3500 
L 3475 3500 
L 3475 0 
L 2900 0 
L 2900 538 
Q 2691 219 2414 64 
Q 2138 -91 1772 -91 
Q 1169 -91 856 284 
Q 544 659 544 1381 
z
M 1991 3584 
L 1991 3584 
z
" id="DejaVuSans-75" transform="scale(0.015625)"/>
       <path d="M 2631 2963 
Q 2534 3019 2420 3045 
Q 2306 3072 2169 3072 
Q 1681 3072 1420 2755 
Q 1159 2438 1159 1844 
L 1159 0 
L 581 0 
L 581 3500 
L 1159 3500 
L 1159 2956 
Q 1341 3275 1631 3429 
Q 1922 3584 2338 3584 
Q 2397 3584 2469 3576 
Q 2541 3569 2628 3553 
L 2631 2963 
z
" id="DejaVuSans-72" transform="scale(0.015625)"/>
       <path d="M 2194 1759 
Q 1497 1759 1228 1600 
Q 959 1441 959 1056 
Q 959 750 1161 570 
Q 1363 391 1709 391 
Q 2188 391 2477 730 
Q 2766 1069 2766 1631 
L 2766 1759 
L 2194 1759 
z
M 3341 1997 
L 3341 0 
L 2766 0 
L 2766 531 
Q 2569 213 2275 61 
Q 1981 -91 1556 -91 
Q 1019 -91 701 211 
Q 384 513 384 1019 
Q 384 1609 779 1909 
Q 1175 2209 1959 2209 
L 2766 2209 
L 2766 2266 
Q 2766 2663 2505 2880 
Q 2244 3097 1772 3097 
Q 1472 3097 1187 3025 
Q 903 2953 641 2809 
L 641 3341 
Q 956 3463 1253 3523 
Q 1550 3584 1831 3584 
Q 2591 3584 2966 3190 
Q 3341 2797 3341 1997 
z
" id="DejaVuSans-61" transform="scale(0.015625)"/>
       <path d="M 2059 -325 
Q 1816 -950 1584 -1140 
Q 1353 -1331 966 -1331 
L 506 -1331 
L 506 -850 
L 844 -850 
Q 1081 -850 1212 -737 
Q 1344 -625 1503 -206 
L 1606 56 
L 191 3500 
L 800 3500 
L 1894 763 
L 2988 3500 
L 3597 3500 
L 2059 -325 
z
" id="DejaVuSans-79" transform="scale(0.015625)"/>
      </defs>
      <use xlink:href="#DejaVuSans-41"/>
      <use x="66.658203" xlink:href="#DejaVuSans-63"/>
      <use x="121.638672" xlink:href="#DejaVuSans-63"/>
      <use x="176.619141" xlink:href="#DejaVuSans-75"/>
      <use x="239.998047" xlink:href="#DejaVuSans-72"/>
      <use x="281.111328" xlink:href="#DejaVuSans-61"/>
      <use x="342.390625" xlink:href="#DejaVuSans-63"/>
      <use x="397.371094" xlink:href="#DejaVuSans-79"/>
     </g>
    </g>
   </g>
   <g id="line2d_19">
    <path clip-path="url(#p15d83ea86a)" d="M 73.832727 295.488 
L 74.700788 285.589371 
L 75.568848 278.25127 
L 76.436908 269.764054 
L 78.173029 257.161257 
L 79.041089 247.18144 
L 79.909149 242.060383 
L 80.77721 234.547417 
L 82.51333 224.080475 
L 83.38139 219.452788 
L 85.117511 212.139668 
L 85.985571 204.607967 
L 86.853632 203.42138 
L 87.721692 195.883434 
L 88.589752 194.946655 
L 89.457812 189.157362 
L 90.325873 187.333766 
L 91.193933 183.742781 
L 92.061993 190.325213 
L 92.930053 186.715492 
L 93.798114 182.524968 
L 94.666174 183.755271 
L 95.534234 202.291001 
L 96.402295 200.548592 
L 97.270355 206.131794 
L 98.138415 197.319828 
L 99.006475 197.432241 
L 99.874536 193.48528 
L 100.742596 180.514016 
L 101.610656 179.951949 
L 102.478717 186.746718 
L 103.346777 183.624122 
L 104.214837 183.305617 
L 105.082897 182.181483 
L 105.950958 177.135368 
L 106.819018 177.141613 
L 107.687078 173.80668 
L 108.555139 170.028339 
L 109.423199 168.023633 
L 110.291259 172.545152 
L 111.159319 167.698883 
L 112.02738 163.564566 
L 112.89544 162.921311 
L 113.7635 158.655845 
L 114.631561 152.160845 
L 115.499621 159.174196 
L 116.367681 162.509128 
L 117.235741 152.666706 
L 118.103802 153.528542 
L 118.971862 151.486364 
L 119.839922 148.207639 
L 120.707982 149.069475 
L 121.576043 149.150663 
L 122.444103 146.502701 
L 123.312163 143.461293 
L 124.180224 143.323898 
L 125.048284 141.381644 
L 125.916344 141.194288 
L 126.784404 143.629913 
L 127.652465 137.522115 
L 128.520525 135.760971 
L 129.388585 126.399428 
L 130.256646 137.603303 
L 131.124706 136.198134 
L 131.992766 132.831976 
L 132.860826 133.999827 
L 133.728887 131.276923 
L 134.596947 124.419703 
L 135.465007 129.571986 
L 136.333068 130.277693 
L 137.201128 136.335529 
L 138.069188 128.797582 
L 138.937248 148.869629 
L 139.805309 160.897869 
L 140.673369 169.360104 
L 141.541429 162.084455 
L 142.40949 158.262398 
L 143.27755 157.981364 
L 144.14561 154.889994 
L 145.01367 155.214744 
L 145.881731 155.808037 
L 146.749791 153.28498 
L 147.617851 157.993854 
L 148.485912 151.323989 
L 149.353972 150.093687 
L 150.222032 153.684672 
L 151.090092 143.005394 
L 151.958153 149.993763 
L 152.826213 152.81659 
L 153.694273 139.639235 
L 154.562333 142.661908 
L 155.430394 144.953894 
L 156.298454 139.383182 
L 157.166514 145.272398 
L 158.034575 147.245879 
L 158.902635 145.853201 
L 159.770695 145.853201 
L 160.638755 144.50424 
L 161.506816 137.259817 
L 162.374876 131.34562 
L 163.242936 141.631451 
L 164.110997 140.532298 
L 164.979057 139.102149 
L 165.847117 147.408254 
L 166.715177 139.939004 
L 167.583238 127.542298 
L 168.451298 128.466587 
L 169.319358 134.568139 
L 170.187419 136.535375 
L 171.055479 132.900673 
L 171.923539 141.294211 
L 173.65966 127.617241 
L 174.52772 126.992722 
L 175.39578 133.131745 
L 176.263841 138.084182 
L 177.131901 129.159803 
L 177.999961 117.949684 
L 178.868021 123.532885 
L 179.736082 122.533655 
L 180.604142 124.00752 
L 181.472202 123.20189 
L 182.340263 131.32064 
L 183.208323 125.7874 
L 184.076383 124.02001 
L 184.944443 117.262713 
L 185.812504 122.377525 
L 186.680564 118.561712 
L 187.548624 122.689784 
L 188.416684 117.01915 
L 189.284745 119.816996 
L 190.152805 126.386938 
L 191.020865 102.736396 
L 191.888926 116.631948 
L 192.756986 118.780294 
L 193.625046 113.028472 
L 194.493106 112.428934 
L 195.361167 111.192386 
L 196.229227 110.542886 
L 197.097287 116.051145 
L 197.965348 113.784141 
L 198.833408 104.828535 
L 199.701468 113.128395 
L 200.569528 114.58977 
L 201.437589 110.211891 
L 202.305649 113.42192 
L 204.04177 107.776266 
L 204.90983 108.294617 
L 205.77789 110.649054 
L 206.64595 110.393001 
L 207.514011 101.912031 
L 208.382071 103.410877 
L 209.250131 110.549131 
L 210.118192 96.210171 
L 210.986252 106.221213 
L 211.854312 101.39368 
L 212.722372 99.401464 
L 213.590433 103.910492 
L 214.458493 106.527228 
L 215.326553 100.675483 
L 216.194614 101.112646 
L 217.062674 102.867545 
L 217.930734 99.532613 
L 218.798794 105.047117 
L 219.666855 104.766083 
L 220.534915 99.969776 
L 221.402975 101.006478 
L 222.271035 102.355439 
L 223.139096 94.486498 
L 224.007156 96.734767 
L 224.875216 108.463237 
L 225.743277 135.011548 
L 226.611337 134.274615 
L 227.479397 131.395582 
L 228.347457 125.612534 
L 229.215518 137.472154 
L 230.083578 129.69689 
L 230.951638 132.507226 
L 231.819699 136.472923 
L 232.687759 135.704764 
L 233.555819 134.643082 
L 234.423879 140.432375 
L 235.29194 141.081875 
L 236.16 128.672678 
L 237.02806 132.588414 
L 237.896121 127.785861 
L 238.764181 137.184875 
L 239.632241 124.063727 
L 240.500301 127.829577 
L 241.368362 126.568049 
L 242.236422 127.567279 
L 243.104482 124.756943 
L 243.972543 120.147991 
L 244.840603 134.505687 
L 245.708663 119.411059 
L 246.576723 122.852159 
L 247.444784 131.64539 
L 248.312844 121.134732 
L 249.180904 131.045851 
L 250.048965 126.299505 
L 250.917025 129.222255 
L 251.785085 116.86302 
L 252.653145 130.077846 
L 253.521206 121.603121 
L 254.389266 128.129347 
L 255.257326 123.308058 
L 256.993447 137.20361 
L 257.861507 125.294029 
L 258.729567 128.016933 
L 259.597628 126.386938 
L 260.465688 121.347068 
L 261.333748 130.652404 
L 262.201808 127.348698 
L 263.069869 125.943529 
L 264.805989 116.20103 
L 266.54211 125.350236 
L 267.41017 120.322857 
L 268.27823 121.384539 
L 269.146291 117.119073 
L 270.014351 114.88954 
L 270.882411 120.497722 
L 271.750472 118.080833 
L 272.618532 120.160482 
L 273.486592 115.389155 
L 274.354652 121.315842 
L 275.222713 110.149439 
L 276.090773 120.341592 
L 276.958833 120.322857 
L 277.826894 112.78491 
L 278.694954 121.353313 
L 279.563014 112.997246 
L 280.431074 108.39454 
L 281.299135 106.502247 
L 282.167195 119.317381 
L 283.035255 115.245516 
L 283.903316 116.057391 
L 284.771376 110.973804 
L 285.639436 108.837949 
L 286.507496 116.688155 
L 288.243617 106.976881 
L 289.979737 117.256467 
L 290.847798 106.727074 
L 291.715858 110.536641 
L 292.583918 110.049516 
L 293.451979 107.307877 
L 294.320039 99.363992 
L 295.188099 107.382819 
L 296.056159 114.0964 
L 296.92422 102.761377 
L 297.79228 116.026165 
L 298.66034 110.086987 
L 299.528401 102.830074 
L 300.396461 108.800477 
L 301.264521 104.191526 
L 302.132581 113.396939 
L 303.000642 100.57556 
L 303.868702 107.239179 
L 304.736762 111.192386 
L 305.604823 104.884742 
L 306.472883 117.443823 
L 307.340943 106.920675 
L 308.209003 116.900491 
L 309.077064 100.92529 
L 309.945124 100.669238 
L 310.813184 101.187589 
L 311.681245 96.978329 
L 312.549305 108.125997 
L 313.417365 105.365622 
L 314.285425 99.476406 
L 315.153486 103.698156 
L 316.021546 98.645795 
L 316.889606 104.984665 
L 318.625727 98.221122 
L 319.493787 107.851208 
L 320.361847 107.770021 
L 322.097968 102.361685 
L 322.966028 104.410108 
L 323.834088 97.840166 
L 324.702149 99.170392 
L 325.570209 111.729472 
L 326.438269 102.193064 
L 327.30633 101.275021 
L 328.17439 91.31394 
L 329.04245 109.36879 
L 329.91051 96.085267 
L 330.778571 99.264069 
L 331.646631 93.59968 
L 332.514691 103.34218 
L 333.382752 90.670685 
L 334.250812 94.086805 
L 335.118872 94.011863 
L 335.986932 98.277329 
L 336.854993 103.154824 
L 337.723053 95.623122 
L 338.591113 96.497449 
L 339.459174 95.323353 
L 340.327234 97.121969 
L 341.195294 87.641767 
L 342.063354 90.945474 
L 342.931415 87.697974 
L 343.799475 96.434997 
L 345.535596 102.623983 
L 346.403656 95.292127 
L 347.271716 84.444229 
L 348.139776 90.908003 
L 349.007837 96.091512 
L 349.875897 88.572301 
L 350.743957 96.422507 
L 351.612018 107.276651 
L 352.480078 86.386484 
L 353.348138 87.679238 
L 354.216198 94.367839 
L 355.084259 92.931445 
L 355.952319 91.132829 
L 356.820379 92.844012 
L 357.688439 89.346705 
L 358.5565 91.526277 
L 359.42456 87.654258 
L 360.29262 90.577007 
L 361.160681 88.541075 
L 362.028741 93.986882 
L 362.896801 82.67684 
L 363.764861 97.047026 
L 364.632922 87.210849 
L 365.500982 99.538858 
L 366.369042 81.06558 
L 367.237103 91.632445 
L 368.105163 86.704988 
L 368.973223 91.338921 
L 369.841283 92.712863 
L 370.709344 80.066349 
L 371.577404 88.578546 
L 372.445464 93.199988 
L 373.313525 81.939907 
L 374.181585 86.667517 
L 375.049645 89.003219 
L 375.917705 76.862566 
L 376.785766 87.966517 
L 377.653826 90.071147 
L 378.521886 94.692589 
L 380.258007 87.598051 
L 381.994127 89.658964 
L 382.862188 79.697883 
L 383.730248 80.653397 
L 384.598308 79.254474 
L 385.466368 88.334984 
L 386.334429 91.576238 
L 387.202489 72.722004 
L 388.070549 71.304345 
L 388.93861 82.870441 
L 389.80667 88.778392 
L 390.67473 78.036662 
L 391.54279 81.515234 
L 392.410851 88.303758 
L 393.278911 78.042907 
L 394.146971 78.473825 
L 395.015032 81.858719 
L 395.883092 88.128892 
L 396.751152 81.015619 
L 397.619212 87.960272 
L 398.487273 88.647243 
L 398.487273 88.647243 
" style="fill:none;stroke:#1f77b4;stroke-linecap:square;stroke-width:1.5;"/>
   </g>
   <g id="line2d_20">
    <path clip-path="url(#p15d83ea86a)" d="M 73.832727 285.795462 
L 74.700788 276.864838 
L 75.568848 255.974671 
L 76.436908 257.223709 
L 77.304968 236.895609 
L 78.173029 224.436451 
L 79.041089 213.850851 
L 81.64527 191.52429 
L 82.51333 187.183881 
L 83.38139 179.377392 
L 84.249451 177.972223 
L 85.117511 164.170349 
L 85.985571 164.70119 
L 86.853632 152.741648 
L 87.721692 143.405086 
L 88.589752 139.626745 
L 89.457812 138.159125 
L 90.325873 136.348019 
L 91.193933 131.195736 
L 92.061993 130.415087 
L 92.930053 128.572755 
L 93.798114 129.134822 
L 94.666174 128.978693 
L 95.534234 166.449844 
L 96.402295 164.576287 
L 97.270355 152.616744 
L 98.138415 154.896239 
L 99.006475 146.902393 
L 99.874536 148.213884 
L 100.742596 135.754726 
L 101.610656 134.786721 
L 102.478717 131.102058 
L 103.346777 126.917779 
L 104.214837 125.012996 
L 105.082897 124.82564 
L 106.819018 123.795183 
L 107.687078 115.364174 
L 108.555139 111.773189 
L 109.423199 114.614751 
L 110.291259 113.272035 
L 111.159319 110.211891 
L 112.02738 108.026074 
L 112.89544 113.865328 
L 113.7635 101.87456 
L 114.631561 102.592757 
L 115.499621 102.467853 
L 117.235741 97.659055 
L 118.103802 99.376483 
L 118.971862 95.723046 
L 119.839922 93.037613 
L 120.707982 91.694897 
L 121.576043 90.789344 
L 122.444103 90.945474 
L 123.312163 89.35295 
L 124.180224 88.728431 
L 125.048284 87.479392 
L 125.916344 87.604296 
L 126.784404 88.041459 
L 127.652465 85.324801 
L 129.388585 83.825955 
L 130.256646 82.483239 
L 131.124706 82.452013 
L 131.992766 83.138984 
L 132.860826 82.85795 
L 133.728887 82.108527 
L 134.596947 82.389561 
L 135.465007 82.327109 
L 136.333068 81.577686 
L 137.201128 81.452782 
L 138.069188 82.077301 
L 138.937248 107.58891 
L 139.805309 107.214199 
L 140.673369 104.122829 
L 141.541429 104.903478 
L 142.40949 106.496002 
L 143.27755 106.246194 
L 144.14561 99.563839 
L 145.01367 102.218045 
L 145.881731 103.248502 
L 146.749791 98.876867 
L 147.617851 97.15944 
L 148.485912 97.346795 
L 149.353972 98.845642 
L 150.222032 95.473238 
L 151.090092 93.724584 
L 151.958153 94.380329 
L 152.826213 97.783959 
L 153.694273 96.191435 
L 154.562333 93.568454 
L 155.430394 94.224199 
L 156.298454 95.285882 
L 157.166514 87.104681 
L 158.034575 90.258503 
L 158.902635 89.790113 
L 159.770695 86.167902 
L 160.638755 86.199128 
L 161.506816 87.354488 
L 162.374876 86.511387 
L 163.242936 90.039921 
L 164.110997 85.79319 
L 164.979057 87.510618 
L 165.847117 87.510618 
L 166.715177 82.670594 
L 167.583238 80.516003 
L 168.451298 80.297421 
L 169.319358 81.265426 
L 170.187419 80.391099 
L 171.055479 79.829032 
L 171.923539 81.858719 
L 172.791599 79.672902 
L 173.65966 78.954705 
L 174.52772 79.829032 
L 175.39578 77.736893 
L 176.263841 76.706436 
L 177.131901 77.580763 
L 177.999961 79.173287 
L 178.868021 76.581532 
L 179.736082 76.238047 
L 180.604142 74.551845 
L 181.472202 78.29896 
L 182.340263 77.955475 
L 183.208323 73.58384 
L 184.076383 75.082686 
L 184.944443 73.334032 
L 185.812504 70.461244 
L 186.680564 73.458936 
L 187.548624 71.054537 
L 188.416684 69.743047 
L 189.284745 71.616605 
L 190.152805 73.8961 
L 191.020865 70.523696 
L 191.888926 71.398023 
L 193.625046 68.244201 
L 194.493106 68.931172 
L 195.361167 67.900715 
L 196.229227 67.463552 
L 197.097287 66.776581 
L 197.965348 67.682134 
L 198.833408 67.276196 
L 199.701468 65.902254 
L 200.569528 67.682134 
L 201.437589 67.026389 
L 202.305649 67.619682 
L 203.173709 66.276966 
L 204.90983 64.77812 
L 205.77789 65.184057 
L 206.64595 64.1536 
L 207.514011 65.121605 
L 208.382071 65.121605 
L 209.250131 63.747663 
L 210.118192 63.310499 
L 210.986252 64.559538 
L 211.854312 64.278504 
L 212.722372 62.84211 
L 213.590433 63.435403 
L 214.458493 62.84211 
L 215.326553 64.590764 
L 216.194614 63.778889 
L 217.062674 64.684442 
L 217.930734 64.1536 
L 218.798794 63.279273 
L 219.666855 63.997471 
L 220.534915 64.559538 
L 221.402975 63.685211 
L 222.271035 64.30973 
L 223.139096 63.778889 
L 224.875216 63.903793 
L 225.743277 82.358335 
L 226.611337 86.886099 
L 227.479397 85.262349 
L 228.347457 82.264657 
L 229.215518 82.264657 
L 230.083578 82.70182 
L 230.951638 84.544152 
L 231.819699 84.544152 
L 233.555819 76.269273 
L 235.29194 86.886099 
L 236.16 77.705667 
L 237.02806 79.579224 
L 237.896121 81.827494 
L 238.764181 79.360643 
L 239.632241 76.394177 
L 240.500301 78.673672 
L 241.368362 78.29896 
L 242.236422 81.452782 
L 243.104482 83.638599 
L 243.972543 77.518311 
L 244.840603 77.799345 
L 245.708663 79.266965 
L 246.576723 78.673672 
L 247.444784 80.828263 
L 248.312844 77.081148 
L 249.180904 77.1436 
L 250.048965 75.800883 
L 250.917025 75.894561 
L 251.785085 77.424633 
L 252.653145 75.082686 
L 253.521206 75.082686 
L 254.389266 80.016388 
L 255.257326 77.206051 
L 256.125386 77.580763 
L 256.993447 75.113912 
L 257.861507 81.640138 
L 258.729567 73.365258 
L 260.465688 76.98747 
L 261.333748 73.521388 
L 262.201808 73.42771 
L 263.069869 73.084225 
L 263.937929 72.178672 
L 264.805989 73.958552 
L 265.67405 73.458936 
L 266.54211 75.113912 
L 267.41017 72.522158 
L 268.27823 75.644753 
L 269.146291 73.302807 
L 270.014351 72.803191 
L 270.882411 73.677518 
L 271.750472 75.20759 
L 272.618532 70.148985 
L 273.486592 72.022542 
L 274.354652 74.208359 
L 275.222713 69.774273 
L 276.090773 73.677518 
L 276.958833 73.615066 
L 277.826894 72.647061 
L 278.694954 72.959321 
L 279.563014 72.709513 
L 280.431074 70.305114 
L 281.299135 70.523696 
L 282.167195 70.305114 
L 283.035255 70.554922 
L 283.903316 71.491701 
L 284.771376 70.992085 
L 285.639436 68.931172 
L 286.507496 71.647831 
L 287.375557 69.743047 
L 288.243617 66.932711 
L 289.111677 66.24574 
L 289.979737 69.930403 
L 290.847798 69.149754 
L 291.715858 69.867951 
L 292.583918 67.55723 
L 293.451979 71.554153 
L 294.320039 67.057615 
L 295.188099 66.870259 
L 296.056159 70.898408 
L 296.92422 66.995163 
L 297.79228 67.526004 
L 298.66034 68.462783 
L 299.528401 65.808576 
L 300.396461 69.711821 
L 301.264521 67.838264 
L 302.132581 67.24497 
L 303.000642 68.181749 
L 303.868702 68.337879 
L 304.736762 65.152831 
L 305.604823 66.714129 
L 306.472883 65.77735 
L 308.209003 68.306653 
L 309.077064 67.650908 
L 309.945124 66.433095 
L 310.813184 63.341725 
L 311.681245 66.807807 
L 312.549305 63.966245 
L 313.417365 63.060692 
L 314.285425 63.935019 
L 315.153486 66.495547 
L 316.021546 63.15437 
L 316.889606 62.404947 
L 317.757667 62.498624 
L 318.625727 65.215283 
L 319.493787 65.090379 
L 320.361847 63.778889 
L 321.229908 63.123144 
L 322.097968 61.312038 
L 322.966028 62.436173 
L 323.834088 65.184057 
L 324.702149 64.30973 
L 325.570209 61.936557 
L 326.438269 60.437711 
L 327.30633 63.716437 
L 328.17439 62.561076 
L 329.04245 63.529081 
L 329.91051 61.780427 
L 330.778571 60.906101 
L 331.646631 62.52985 
L 332.514691 61.093456 
L 333.382752 61.655524 
L 334.250812 62.717206 
L 335.118872 61.312038 
L 335.986932 61.155908 
L 336.854993 60.000548 
L 337.723053 59.875644 
L 338.591113 60.531389 
L 339.459174 61.717975 
L 340.327234 61.593072 
L 341.195294 58.689057 
L 342.063354 58.970091 
L 342.931415 59.625836 
L 343.799475 60.625067 
L 344.667535 59.43848 
L 345.535596 60.094226 
L 346.403656 58.626605 
L 347.271716 58.345572 
L 348.139776 59.219899 
L 349.007837 59.407254 
L 349.875897 57.721053 
L 350.743957 59.001317 
L 351.612018 58.470476 
L 352.480078 58.938865 
L 353.348138 57.190211 
L 354.216198 59.032543 
L 355.084259 57.127759 
L 355.952319 57.689827 
L 356.820379 58.813961 
L 357.688439 57.158985 
L 358.5565 56.534466 
L 360.29262 56.8155 
L 361.160681 56.190981 
L 362.028741 56.534466 
L 362.896801 56.472014 
L 363.764861 56.97163 
L 364.632922 55.660139 
L 365.500982 55.972399 
L 366.369042 56.440788 
L 367.237103 56.721822 
L 368.105163 55.566461 
L 368.973223 56.534466 
L 369.841283 56.628144 
L 370.709344 55.691365 
L 371.577404 54.973168 
L 372.445464 55.03562 
L 373.313525 54.910716 
L 374.181585 56.097303 
L 375.049645 55.19175 
L 375.917705 55.129298 
L 376.785766 55.504009 
L 377.653826 55.03562 
L 378.521886 54.87949 
L 379.389947 54.87949 
L 380.258007 55.098072 
L 381.126067 55.03562 
L 381.994127 55.254202 
L 382.862188 54.161293 
L 383.730248 53.911486 
L 384.598308 54.598457 
L 385.466368 54.005163 
L 386.334429 53.568 
L 387.202489 53.973937 
L 388.070549 54.067615 
L 388.93861 53.942712 
L 389.80667 54.348649 
L 390.67473 53.568 
L 391.54279 54.723361 
L 392.410851 54.348649 
L 393.278911 54.598457 
L 394.146971 54.348649 
L 395.015032 53.692904 
L 395.883092 54.036389 
L 396.751152 54.254971 
L 397.619212 54.005163 
L 398.487273 54.005163 
L 398.487273 54.005163 
" style="fill:none;stroke:#ff7f0e;stroke-linecap:square;stroke-width:1.5;"/>
   </g>
   <g id="line2d_21">
    <path clip-path="url(#p15d83ea86a)" d="M 73.832727 274.340531 
L 74.700788 283.806993 
L 75.568848 263.920741 
L 76.436908 253.074091 
L 77.304968 243.755328 
L 78.173029 229.522848 
L 79.041089 207.976936 
L 80.77721 206.69511 
L 82.51333 192.791439 
L 83.38139 187.828073 
L 84.249451 191.805323 
L 85.117511 182.585547 
L 85.985571 174.779057 
L 86.853632 174.959855 
L 87.721692 169.141834 
L 89.457812 161.894289 
L 90.325873 162.863855 
L 91.193933 155.369625 
L 92.061993 154.613644 
L 92.930053 152.887785 
L 93.798114 152.887785 
L 94.666174 153.397393 
L 95.534234 187.910197 
L 96.402295 171.656461 
L 97.270355 180.67889 
L 98.138415 176.652614 
L 99.006475 173.184659 
L 99.874536 177.720854 
L 100.742596 167.136815 
L 101.610656 166.61097 
L 102.478717 157.111721 
L 103.346777 159.593248 
L 104.214837 154.317622 
L 105.082897 157.999163 
L 105.950958 159.938295 
L 106.819018 163.028104 
L 107.687078 151.721184 
L 108.555139 145.295193 
L 109.423199 145.62369 
L 110.291259 146.971403 
L 111.159319 142.106711 
L 112.02738 138.425482 
L 112.89544 144.095492 
L 113.7635 135.894306 
L 114.631561 136.255903 
L 115.499621 125.556952 
L 116.367681 136.223115 
L 117.235741 133.922387 
L 118.103802 136.666836 
L 118.971862 131.292848 
L 119.839922 129.287517 
L 121.576043 123.962867 
L 122.444103 127.660645 
L 123.312163 127.463297 
L 124.180224 121.678376 
L 125.048284 123.256223 
L 125.916344 120.38 
L 126.784404 122.565817 
L 128.520525 122.467143 
L 129.388585 121.546914 
L 131.124706 115.219598 
L 131.992766 120.002166 
L 132.860826 118.769365 
L 133.728887 118.309407 
L 134.596947 116.419299 
L 135.465007 117.027269 
L 136.333068 116.550761 
L 137.201128 116.87957 
L 138.069188 117.997147 
L 138.937248 137.669502 
L 139.805309 147.743933 
L 140.673369 142.797117 
L 141.541429 136.568162 
L 142.40949 140.561962 
L 143.27755 137.915875 
L 144.14561 140.200366 
L 145.01367 136.173778 
L 145.881731 138.770529 
L 146.749791 132.738923 
L 147.617851 134.020748 
L 148.485912 129.780575 
L 149.353972 135.368461 
L 150.222032 132.755472 
L 151.090092 136.584712 
L 151.958153 128.005692 
L 152.826213 136.831085 
L 153.694273 130.224296 
L 154.562333 131.226962 
L 155.430394 142.12326 
L 157.166514 125.294029 
L 158.034575 122.286345 
L 158.902635 120.823721 
L 159.770695 124.948983 
L 160.638755 123.387685 
L 161.506816 124.68606 
L 162.374876 124.225789 
L 163.242936 122.993301 
L 164.110997 129.008357 
L 164.979057 125.491377 
L 165.847117 130.010711 
L 166.715177 120.347213 
L 167.583238 123.091662 
L 168.451298 116.337175 
L 169.319358 117.536876 
L 170.187419 119.673357 
L 171.055479 118.490205 
L 171.923539 121.398903 
L 172.791599 116.731559 
L 173.65966 116.813683 
L 174.52772 114.759327 
L 175.39578 120.445887 
L 176.263841 122.779403 
L 177.131901 115.449733 
L 177.999961 122.105547 
L 178.868021 114.167595 
L 179.736082 119.426984 
L 180.604142 113.806311 
L 181.472202 116.435849 
L 182.340263 120.478674 
L 183.208323 112.852983 
L 184.076383 110.190657 
L 184.944443 111.423146 
L 185.812504 114.611316 
L 186.680564 110.864201 
L 187.548624 110.157558 
L 188.416684 109.286666 
L 189.284745 110.059196 
L 190.152805 111.948991 
L 191.020865 111.981778 
L 191.888926 112.852983 
L 192.756986 111.110886 
L 193.625046 105.966722 
L 194.493106 105.769686 
L 195.361167 107.873379 
L 196.229227 108.251213 
L 197.097287 106.196857 
L 197.965348 105.408089 
L 198.833408 107.544569 
L 199.701468 103.764667 
L 200.569528 106.772039 
L 201.437589 103.649443 
L 202.305649 108.119752 
L 203.173709 107.495232 
L 204.04177 106.492567 
L 204.90983 106.788589 
L 205.77789 103.024924 
L 206.64595 102.301731 
L 207.514011 105.408089 
L 208.382071 103.846791 
L 209.250131 100.691408 
L 210.118192 100.756983 
L 210.986252 102.515629 
L 211.854312 103.583869 
L 212.722372 100.280474 
L 213.590433 101.102029 
L 214.458493 100.280474 
L 215.326553 104.043827 
L 216.194614 102.729214 
L 217.062674 101.743098 
L 217.930734 101.085792 
L 218.798794 99.951665 
L 219.666855 101.085792 
L 220.534915 101.743098 
L 221.402975 101.447388 
L 222.271035 101.019905 
L 223.139096 101.644424 
L 224.875216 102.268943 
L 225.743277 128.400076 
L 226.611337 126.740416 
L 227.479397 132.344539 
L 228.347457 121.645588 
L 229.215518 122.253558 
L 230.083578 130.832578 
L 230.951638 131.785594 
L 231.819699 121.432003 
L 232.687759 125.73775 
L 233.555819 115.301722 
L 235.29194 120.807483 
L 236.16 121.579701 
L 237.02806 118.588567 
L 237.896121 125.73775 
L 238.764181 116.748109 
L 239.632241 121.744262 
L 240.500301 120.051503 
L 241.368362 116.139827 
L 242.236422 120.659472 
L 243.104482 121.727713 
L 243.972543 113.050018 
L 244.840603 115.77823 
L 246.576723 118.490205 
L 247.444784 126.888115 
L 248.312844 112.014878 
L 249.180904 112.704971 
L 250.048965 115.630532 
L 250.917025 110.995975 
L 251.785085 119.903492 
L 252.653145 110.798627 
L 253.521206 111.784693 
L 254.389266 122.417954 
L 255.257326 109.697484 
L 256.125386 114.611464 
L 256.993447 114.069119 
L 257.861507 120.297876 
L 258.729567 109.861831 
L 259.597628 114.578595 
L 260.465688 110.20696 
L 261.333748 110.124787 
L 262.201808 113.921206 
L 263.069869 113.066601 
L 263.937929 104.898547 
L 264.805989 114.890854 
L 265.67405 113.756859 
L 266.54211 111.045131 
L 267.41017 115.99198 
L 268.27823 118.687274 
L 269.146291 114.907289 
L 270.014351 111.833997 
L 270.882411 111.817563 
L 271.750472 113.313122 
L 272.618532 110.091917 
L 273.486592 112.589994 
L 274.354652 114.348509 
L 275.222713 111.423129 
L 276.090773 111.70252 
L 276.958833 111.768258 
L 277.826894 113.510338 
L 278.694954 110.437046 
L 279.563014 109.763223 
L 280.431074 116.238501 
L 281.299135 107.741753 
L 282.167195 111.521738 
L 283.035255 109.746788 
L 283.903316 109.697484 
L 284.771376 112.589994 
L 285.639436 114.512856 
L 286.507496 114.00338 
L 287.375557 109.188008 
L 288.243617 103.123598 
L 289.979737 110.815045 
L 291.715858 104.076812 
L 292.583918 105.88463 
L 293.451979 108.382707 
L 294.320039 107.281581 
L 295.188099 107.495232 
L 296.056159 110.864349 
L 296.92422 104.652027 
L 297.79228 106.75567 
L 298.66034 105.473762 
L 299.528401 104.421941 
L 300.396461 107.051495 
L 301.264521 107.117234 
L 302.132581 106.394106 
L 303.000642 102.71273 
L 303.868702 109.894701 
L 304.736762 102.99212 
L 305.604823 107.791057 
L 306.472883 105.375154 
L 307.340943 103.30438 
L 308.209003 109.105834 
L 309.077064 106.47628 
L 309.945124 102.909947 
L 310.813184 98.045271 
L 311.681245 105.802457 
L 312.549305 101.677343 
L 313.417365 99.047789 
L 314.285425 98.571182 
L 315.153486 102.794904 
L 316.021546 97.963097 
L 316.889606 100.41187 
L 317.757667 103.255076 
L 318.625727 101.825255 
L 319.493787 104.356202 
L 320.361847 99.82022 
L 321.229908 102.43334 
L 322.097968 99.606569 
L 322.966028 103.534466 
L 323.834088 104.701331 
L 324.702149 98.620486 
L 325.570209 96.730494 
L 326.438269 94.018766 
L 327.30633 95.81015 
L 328.17439 98.620486 
L 329.04245 98.587616 
L 329.91051 95.349978 
L 330.778571 95.202065 
L 331.646631 100.592652 
L 332.514691 94.610415 
L 333.382752 93.509289 
L 334.250812 99.623004 
L 335.986932 94.511807 
L 336.854993 97.437186 
L 338.591113 98.751964 
L 339.459174 96.188148 
L 340.327234 96.582581 
L 341.195294 99.014919 
L 342.063354 93.624332 
L 342.931415 96.171713 
L 343.799475 92.408163 
L 344.667535 93.706506 
L 345.535596 97.075623 
L 346.403656 94.988414 
L 347.271716 93.78868 
L 348.139776 96.714059 
L 349.007837 95.826584 
L 349.875897 96.401799 
L 350.743957 95.465021 
L 351.612018 91.668601 
L 352.480078 96.385365 
L 353.348138 93.887288 
L 354.216198 95.432151 
L 355.084259 95.152761 
L 355.952319 94.166678 
L 356.820379 94.774762 
L 357.688439 94.166678 
L 358.5565 93.394246 
L 359.42456 91.619297 
L 360.29262 93.985896 
L 361.160681 93.098421 
L 362.028741 90.649649 
L 362.896801 92.934074 
L 363.764861 93.016248 
L 364.632922 90.567475 
L 365.500982 92.91764 
L 366.369042 91.076951 
L 367.237103 91.980861 
L 368.105163 91.323472 
L 368.973223 92.408163 
L 369.841283 90.846865 
L 370.709344 93.065552 
L 371.577404 90.189477 
L 372.445464 90.8633 
L 373.313525 90.929039 
L 374.181585 91.405646 
L 375.049645 91.027647 
L 375.917705 89.071916 
L 376.785766 91.635732 
L 377.653826 90.468867 
L 378.521886 91.274168 
L 379.389947 89.449915 
L 380.258007 90.074434 
L 381.126067 89.186959 
L 381.994127 89.614262 
L 382.862188 88.661048 
L 383.730248 88.940438 
L 384.598308 88.8747 
L 385.466368 88.56244 
L 386.334429 89.104786 
L 387.202489 89.844348 
L 388.070549 88.168007 
L 388.93861 89.877217 
L 389.80667 90.189477 
L 391.54279 89.43348 
L 392.410851 88.677483 
L 393.278911 88.315919 
L 394.146971 90.320955 
L 395.015032 89.43348 
L 395.883092 89.975826 
L 397.619212 88.496701 
L 398.487273 90.205912 
L 398.487273 90.205912 
" style="fill:none;stroke:#2ca02c;stroke-linecap:square;stroke-width:1.5;"/>
   </g>
   <g id="line2d_22">
    <path clip-path="url(#p15d83ea86a)" d="M 73.832727 291.541039 
L 74.700788 290.416904 
L 75.568848 288.074957 
L 76.436908 281.798539 
L 77.304968 281.985895 
L 78.173029 281.642409 
L 79.041089 282.79777 
L 79.909149 277.052193 
L 80.77721 275.209862 
L 81.64527 277.395679 
L 82.51333 274.210631 
L 83.38139 276.396448 
L 84.249451 271.056809 
L 85.117511 264.998973 
L 85.985571 264.436906 
L 86.853632 269.682867 
L 87.721692 261.720247 
L 88.589752 264.218324 
L 89.457812 254.66318 
L 90.325873 257.629646 
L 91.193933 257.848228 
L 92.061993 260.877146 
L 92.930053 259.159719 
L 93.798114 256.973901 
L 95.534234 264.749165 
L 96.402295 270.057578 
L 97.270355 263.094189 
L 98.138415 262.563348 
L 99.006475 253.101882 
L 99.874536 254.756858 
L 100.742596 261.501665 
L 101.610656 248.94883 
L 102.478717 254.97544 
L 103.346777 249.136185 
L 104.214837 246.138493 
L 105.082897 253.476594 
L 105.950958 250.759935 
L 106.819018 255.974671 
L 107.687078 227.590273 
L 108.555139 219.815009 
L 109.423199 229.026667 
L 110.291259 258.098036 
L 111.159319 215.287245 
L 112.02738 234.584888 
L 112.89544 257.535969 
L 113.7635 225.935297 
L 114.631561 221.407533 
L 115.499621 236.926835 
L 116.367681 221.376307 
L 117.235741 222.500442 
L 118.103802 249.979286 
L 118.971862 216.536284 
L 119.839922 220.689336 
L 120.707982 221.907149 
L 121.576043 211.54013 
L 122.444103 211.446452 
L 123.312163 225.310778 
L 124.180224 229.245249 
L 125.048284 210.22864 
L 125.916344 220.720562 
L 126.784404 223.530899 
L 127.652465 216.754865 
L 128.520525 211.040515 
L 129.388585 222.406764 
L 130.256646 213.00775 
L 131.124706 220.252173 
L 131.992766 226.341235 
L 132.860826 211.602582 
L 133.728887 212.664265 
L 134.596947 210.259866 
L 135.465007 209.697798 
L 136.333068 214.412918 
L 137.201128 211.914842 
L 138.069188 213.507365 
L 138.937248 224.623807 
L 139.805309 226.247557 
L 140.673369 239.018975 
L 141.541429 228.214792 
L 142.40949 230.338158 
L 143.27755 220.064817 
L 144.14561 222.719024 
L 145.01367 237.270321 
L 145.881731 223.562124 
L 146.749791 216.661187 
L 147.617851 230.494288 
L 148.485912 215.94299 
L 149.353972 236.42722 
L 151.090092 197.5509 
L 151.958153 239.237556 
L 152.826213 242.60996 
L 153.694273 222.656572 
L 154.562333 222.469216 
L 155.430394 239.955753 
L 156.298454 220.783014 
L 157.166514 223.281091 
L 158.034575 208.698568 
L 158.902635 229.057893 
L 159.770695 242.2977 
L 160.638755 209.260635 
L 161.506816 224.311548 
L 162.374876 208.698568 
L 163.242936 248.417988 
L 164.110997 234.709792 
L 164.979057 218.628423 
L 165.847117 241.048662 
L 166.715177 224.280322 
L 167.583238 210.447221 
L 168.451298 214.069433 
L 169.319358 222.188182 
L 170.187419 216.692413 
L 171.055479 222.344312 
L 171.923539 220.127269 
L 172.791599 230.40061 
L 173.65966 223.468447 
L 174.52772 225.935297 
L 175.39578 216.005442 
L 176.263841 234.678566 
L 177.131901 221.563663 
L 177.999961 236.083734 
L 178.868021 210.353544 
L 179.736082 220.439529 
L 180.604142 209.76025 
L 181.472202 228.183567 
L 182.340263 239.487364 
L 183.208323 223.093735 
L 184.076383 209.385539 
L 184.944443 220.876692 
L 185.812504 210.103736 
L 186.680564 219.596428 
L 187.548624 231.431066 
L 188.416684 215.661957 
L 189.284745 216.25525 
L 190.152805 229.089119 
L 191.020865 230.369384 
L 191.888926 217.72287 
L 192.756986 220.252173 
L 193.625046 216.41138 
L 194.493106 222.781475 
L 195.361167 216.442606 
L 196.229227 214.163111 
L 197.097287 213.32001 
L 197.965348 219.159264 
L 198.833408 228.901764 
L 199.701468 216.41138 
L 200.569528 209.853928 
L 201.437589 225.52936 
L 202.305649 214.881308 
L 203.173709 221.1265 
L 204.04177 213.038976 
L 204.90983 212.320779 
L 205.77789 212.070971 
L 206.64595 220.533206 
L 207.514011 211.102967 
L 208.382071 215.037437 
L 209.250131 214.256788 
L 210.118192 204.264481 
L 210.986252 214.038207 
L 211.854312 220.783014 
L 212.722372 207.106044 
L 213.590433 217.285707 
L 214.458493 214.78763 
L 215.326553 215.755635 
L 216.194614 218.128807 
L 217.062674 218.472293 
L 217.930734 221.469985 
L 218.798794 213.382462 
L 219.666855 217.035899 
L 220.534915 212.726716 
L 221.402975 214.78763 
L 222.271035 215.006212 
L 223.139096 211.977293 
L 224.007156 216.130346 
L 224.875216 216.224024 
L 225.743277 221.907149 
L 226.611337 240.111883 
L 227.479397 206.262943 
L 228.347457 221.438759 
L 229.215518 217.847774 
L 230.083578 227.871307 
L 230.951638 225.747942 
L 231.819699 227.683951 
L 232.687759 235.615345 
L 233.555819 205.138808 
L 234.423879 225.654264 
L 235.29194 233.210946 
L 236.16 222.43799 
L 237.02806 213.632269 
L 237.896121 234.80347 
L 238.764181 224.467677 
L 239.632241 203.265251 
L 240.500301 231.86823 
L 241.368362 222.531668 
L 242.236422 227.15311 
L 243.104482 218.659649 
L 243.972543 218.160033 
L 244.840603 217.441836 
L 245.708663 224.092966 
L 246.576723 228.995441 
L 247.444784 244.764551 
L 248.312844 235.022052 
L 249.180904 243.796546 
L 250.048965 224.623807 
L 250.917025 234.865922 
L 251.785085 223.90561 
L 252.653145 230.463062 
L 253.521206 223.74948 
L 254.389266 230.213254 
L 255.257326 225.37323 
L 256.125386 236.58335 
L 256.993447 233.835465 
L 257.861507 234.210177 
L 258.729567 209.853928 
L 259.597628 221.844697 
L 260.465688 231.243711 
L 261.333748 221.095274 
L 262.201808 224.873615 
L 263.069869 214.069433 
L 263.937929 226.778398 
L 264.805989 222.625346 
L 265.67405 229.370153 
L 266.54211 212.633039 
L 267.41017 228.839312 
L 268.27823 225.935297 
L 269.146291 232.086811 
L 270.014351 211.758712 
L 270.882411 223.718254 
L 271.750472 230.025898 
L 272.618532 212.289553 
L 273.486592 219.533976 
L 274.354652 219.783783 
L 275.222713 223.624576 
L 276.090773 216.723639 
L 276.958833 224.998519 
L 277.826894 217.348159 
L 278.694954 213.47614 
L 279.563014 230.150802 
L 280.431074 203.702414 
L 281.299135 222.188182 
L 282.167195 219.596428 
L 283.035255 211.071741 
L 283.903316 232.180489 
L 284.771376 203.608736 
L 285.639436 222.812701 
L 286.507496 222.406764 
L 288.243617 218.534745 
L 289.111677 205.544746 
L 289.979737 221.751019 
L 290.847798 209.385539 
L 291.715858 224.21787 
L 292.583918 219.003134 
L 293.451979 215.505827 
L 294.320039 209.791476 
L 295.188099 213.975755 
L 296.056159 212.85162 
L 296.92422 202.828087 
L 297.79228 215.630731 
L 298.66034 224.186644 
L 299.528401 217.067125 
L 300.396461 212.976524 
L 301.264521 204.0459 
L 302.132581 196.333088 
L 303.000642 199.611813 
L 303.868702 219.128038 
L 304.736762 215.068663 
L 305.604823 212.508135 
L 306.472883 218.690875 
L 307.340943 214.725178 
L 308.209003 212.414457 
L 309.077064 216.41138 
L 309.945124 207.949145 
L 310.813184 216.973447 
L 311.681245 224.21787 
L 312.549305 214.912534 
L 313.417365 208.198952 
L 314.285425 210.884385 
L 315.153486 225.279552 
L 316.021546 206.793784 
L 316.889606 214.94376 
L 318.625727 216.09912 
L 319.493787 222.875153 
L 320.361847 213.725947 
L 321.229908 215.537053 
L 322.097968 207.886693 
L 322.966028 212.008519 
L 323.834088 217.504288 
L 324.702149 214.350466 
L 325.570209 215.318471 
L 326.438269 201.984986 
L 327.30633 221.032822 
L 328.17439 201.95376 
L 329.04245 213.944529 
L 329.91051 212.476909 
L 330.778571 196.926381 
L 331.646631 208.230178 
L 332.514691 204.420611 
L 333.382752 204.889001 
L 334.250812 212.914072 
L 335.118872 213.413688 
L 336.854993 210.322318 
L 337.723053 205.857005 
L 338.591113 206.325395 
L 339.459174 214.756404 
L 340.327234 208.667342 
L 341.195294 200.579818 
L 342.063354 209.042053 
L 342.931415 214.256788 
L 343.799475 207.668111 
L 344.667535 205.919457 
L 345.535596 209.510443 
L 346.403656 207.543207 
L 347.271716 210.821933 
L 348.139776 210.572125 
L 349.007837 210.166188 
L 349.875897 208.511212 
L 350.743957 209.885154 
L 351.612018 201.797631 
L 352.480078 205.981909 
L 353.348138 203.671188 
L 354.216198 205.638424 
L 355.084259 198.831164 
L 355.952319 209.104505 
L 356.820379 207.480755 
L 357.688439 210.540899 
L 358.5565 205.763327 
L 359.42456 205.950683 
L 360.29262 209.135731 
L 361.160681 210.197414 
L 362.028741 208.542438 
L 362.896801 200.267559 
L 363.764861 207.480755 
L 364.632922 199.424458 
L 365.500982 205.794553 
L 366.369042 201.735179 
L 367.237103 206.66888 
L 368.105163 201.703953 
L 368.973223 199.892847 
L 369.841283 203.046669 
L 370.709344 204.951453 
L 371.577404 206.356621 
L 372.445464 205.04513 
L 373.313525 202.828087 
L 374.181585 206.856236 
L 375.049645 207.730563 
L 375.917705 201.672727 
L 376.785766 202.484602 
L 377.653826 204.420611 
L 378.521886 202.828087 
L 379.389947 203.234025 
L 380.258007 199.674265 
L 381.126067 198.831164 
L 381.994127 204.0459 
L 382.862188 201.235563 
L 383.730248 196.926381 
L 384.598308 200.64227 
L 385.466368 202.297246 
L 386.334429 201.079434 
L 387.202489 202.047438 
L 388.070549 199.549361 
L 388.93861 204.857775 
L 389.80667 204.795323 
L 390.67473 202.890539 
L 391.54279 199.861621 
L 392.410851 204.451837 
L 393.278911 197.301092 
L 394.146971 205.919457 
L 395.015032 203.046669 
L 395.883092 201.922534 
L 397.619212 204.295707 
L 398.487273 204.826549 
L 398.487273 204.826549 
" style="fill:none;stroke:#d62728;stroke-linecap:square;stroke-width:1.5;"/>
   </g>
   <g id="patch_3">
    <path d="M 57.6 307.584 
L 57.6 41.472 
" style="fill:none;stroke:#000000;stroke-linecap:square;stroke-linejoin:miter;stroke-width:0.8;"/>
   </g>
   <g id="patch_4">
    <path d="M 414.72 307.584 
L 414.72 41.472 
" style="fill:none;stroke:#000000;stroke-linecap:square;stroke-linejoin:miter;stroke-width:0.8;"/>
   </g>
   <g id="patch_5">
    <path d="M 57.6 307.584 
L 414.72 307.584 
" style="fill:none;stroke:#000000;stroke-linecap:square;stroke-linejoin:miter;stroke-width:0.8;"/>
   </g>
   <g id="patch_6">
    <path d="M 57.6 41.472 
L 414.72 41.472 
" style="fill:none;stroke:#000000;stroke-linecap:square;stroke-linejoin:miter;stroke-width:0.8;"/>
   </g>
   <g id="text_21">
    <!-- Training and Validation Accuracy -->
    <g transform="translate(138.4575 35.472)scale(0.12 -0.12)">
     <defs>
      <path d="M -19 4666 
L 3928 4666 
L 3928 4134 
L 2272 4134 
L 2272 0 
L 1638 0 
L 1638 4134 
L -19 4134 
L -19 4666 
z
" id="DejaVuSans-54" transform="scale(0.015625)"/>
      <path d="M 603 3500 
L 1178 3500 
L 1178 0 
L 603 0 
L 603 3500 
z
M 603 4863 
L 1178 4863 
L 1178 4134 
L 603 4134 
L 603 4863 
z
" id="DejaVuSans-69" transform="scale(0.015625)"/>
      <path d="M 3513 2113 
L 3513 0 
L 2938 0 
L 2938 2094 
Q 2938 2591 2744 2837 
Q 2550 3084 2163 3084 
Q 1697 3084 1428 2787 
Q 1159 2491 1159 1978 
L 1159 0 
L 581 0 
L 581 3500 
L 1159 3500 
L 1159 2956 
Q 1366 3272 1645 3428 
Q 1925 3584 2291 3584 
Q 2894 3584 3203 3211 
Q 3513 2838 3513 2113 
z
" id="DejaVuSans-6e" transform="scale(0.015625)"/>
      <path d="M 2906 1791 
Q 2906 2416 2648 2759 
Q 2391 3103 1925 3103 
Q 1463 3103 1205 2759 
Q 947 2416 947 1791 
Q 947 1169 1205 825 
Q 1463 481 1925 481 
Q 2391 481 2648 825 
Q 2906 1169 2906 1791 
z
M 3481 434 
Q 3481 -459 3084 -895 
Q 2688 -1331 1869 -1331 
Q 1566 -1331 1297 -1286 
Q 1028 -1241 775 -1147 
L 775 -588 
Q 1028 -725 1275 -790 
Q 1522 -856 1778 -856 
Q 2344 -856 2625 -561 
Q 2906 -266 2906 331 
L 2906 616 
Q 2728 306 2450 153 
Q 2172 0 1784 0 
Q 1141 0 747 490 
Q 353 981 353 1791 
Q 353 2603 747 3093 
Q 1141 3584 1784 3584 
Q 2172 3584 2450 3431 
Q 2728 3278 2906 2969 
L 2906 3500 
L 3481 3500 
L 3481 434 
z
" id="DejaVuSans-67" transform="scale(0.015625)"/>
      <path id="DejaVuSans-20" transform="scale(0.015625)"/>
      <path d="M 2906 2969 
L 2906 4863 
L 3481 4863 
L 3481 0 
L 2906 0 
L 2906 525 
Q 2725 213 2448 61 
Q 2172 -91 1784 -91 
Q 1150 -91 751 415 
Q 353 922 353 1747 
Q 353 2572 751 3078 
Q 1150 3584 1784 3584 
Q 2172 3584 2448 3432 
Q 2725 3281 2906 2969 
z
M 947 1747 
Q 947 1113 1208 752 
Q 1469 391 1925 391 
Q 2381 391 2643 752 
Q 2906 1113 2906 1747 
Q 2906 2381 2643 2742 
Q 2381 3103 1925 3103 
Q 1469 3103 1208 2742 
Q 947 2381 947 1747 
z
" id="DejaVuSans-64" transform="scale(0.015625)"/>
      <path d="M 1831 0 
L 50 4666 
L 709 4666 
L 2188 738 
L 3669 4666 
L 4325 4666 
L 2547 0 
L 1831 0 
z
" id="DejaVuSans-56" transform="scale(0.015625)"/>
      <path d="M 603 4863 
L 1178 4863 
L 1178 0 
L 603 0 
L 603 4863 
z
" id="DejaVuSans-6c" transform="scale(0.015625)"/>
      <path d="M 1172 4494 
L 1172 3500 
L 2356 3500 
L 2356 3053 
L 1172 3053 
L 1172 1153 
Q 1172 725 1289 603 
Q 1406 481 1766 481 
L 2356 481 
L 2356 0 
L 1766 0 
Q 1100 0 847 248 
Q 594 497 594 1153 
L 594 3053 
L 172 3053 
L 172 3500 
L 594 3500 
L 594 4494 
L 1172 4494 
z
" id="DejaVuSans-74" transform="scale(0.015625)"/>
     </defs>
     <use xlink:href="#DejaVuSans-54"/>
     <use x="46.333984" xlink:href="#DejaVuSans-72"/>
     <use x="87.447266" xlink:href="#DejaVuSans-61"/>
     <use x="148.726562" xlink:href="#DejaVuSans-69"/>
     <use x="176.509766" xlink:href="#DejaVuSans-6e"/>
     <use x="239.888672" xlink:href="#DejaVuSans-69"/>
     <use x="267.671875" xlink:href="#DejaVuSans-6e"/>
     <use x="331.050781" xlink:href="#DejaVuSans-67"/>
     <use x="394.527344" xlink:href="#DejaVuSans-20"/>
     <use x="426.314453" xlink:href="#DejaVuSans-61"/>
     <use x="487.59375" xlink:href="#DejaVuSans-6e"/>
     <use x="550.972656" xlink:href="#DejaVuSans-64"/>
     <use x="614.449219" xlink:href="#DejaVuSans-20"/>
     <use x="646.236328" xlink:href="#DejaVuSans-56"/>
     <use x="706.894531" xlink:href="#DejaVuSans-61"/>
     <use x="768.173828" xlink:href="#DejaVuSans-6c"/>
     <use x="795.957031" xlink:href="#DejaVuSans-69"/>
     <use x="823.740234" xlink:href="#DejaVuSans-64"/>
     <use x="887.216797" xlink:href="#DejaVuSans-61"/>
     <use x="948.496094" xlink:href="#DejaVuSans-74"/>
     <use x="987.705078" xlink:href="#DejaVuSans-69"/>
     <use x="1015.488281" xlink:href="#DejaVuSans-6f"/>
     <use x="1076.669922" xlink:href="#DejaVuSans-6e"/>
     <use x="1140.048828" xlink:href="#DejaVuSans-20"/>
     <use x="1171.835938" xlink:href="#DejaVuSans-41"/>
     <use x="1238.494141" xlink:href="#DejaVuSans-63"/>
     <use x="1293.474609" xlink:href="#DejaVuSans-63"/>
     <use x="1348.455078" xlink:href="#DejaVuSans-75"/>
     <use x="1411.833984" xlink:href="#DejaVuSans-72"/>
     <use x="1452.947266" xlink:href="#DejaVuSans-61"/>
     <use x="1514.226562" xlink:href="#DejaVuSans-63"/>
     <use x="1569.207031" xlink:href="#DejaVuSans-79"/>
    </g>
   </g>
   <g id="legend_1">
    <g id="patch_7">
     <path d="M 217.996562 302.584 
L 407.72 302.584 
Q 409.72 302.584 409.72 300.584 
L 409.72 242.8715 
Q 409.72 240.8715 407.72 240.8715 
L 217.996562 240.8715 
Q 215.996562 240.8715 215.996562 242.8715 
L 215.996562 300.584 
Q 215.996562 302.584 217.996562 302.584 
z
" style="fill:#ffffff;opacity:0.8;stroke:#cccccc;stroke-linejoin:miter;"/>
    </g>
    <g id="line2d_23">
     <path d="M 219.996562 248.969937 
L 239.996562 248.969937 
" style="fill:none;stroke:#1f77b4;stroke-linecap:square;stroke-width:1.5;"/>
    </g>
    <g id="line2d_24"/>
    <g id="text_22">
     <!-- Train Accuracy -->
     <g transform="translate(247.996562 252.469937)scale(0.1 -0.1)">
      <use xlink:href="#DejaVuSans-54"/>
      <use x="46.333984" xlink:href="#DejaVuSans-72"/>
      <use x="87.447266" xlink:href="#DejaVuSans-61"/>
      <use x="148.726562" xlink:href="#DejaVuSans-69"/>
      <use x="176.509766" xlink:href="#DejaVuSans-6e"/>
      <use x="239.888672" xlink:href="#DejaVuSans-20"/>
      <use x="271.675781" xlink:href="#DejaVuSans-41"/>
      <use x="338.333984" xlink:href="#DejaVuSans-63"/>
      <use x="393.314453" xlink:href="#DejaVuSans-63"/>
      <use x="448.294922" xlink:href="#DejaVuSans-75"/>
      <use x="511.673828" xlink:href="#DejaVuSans-72"/>
      <use x="552.787109" xlink:href="#DejaVuSans-61"/>
      <use x="614.066406" xlink:href="#DejaVuSans-63"/>
      <use x="669.046875" xlink:href="#DejaVuSans-79"/>
     </g>
    </g>
    <g id="line2d_25">
     <path d="M 219.996562 263.648062 
L 239.996562 263.648062 
" style="fill:none;stroke:#ff7f0e;stroke-linecap:square;stroke-width:1.5;"/>
    </g>
    <g id="line2d_26"/>
    <g id="text_23">
     <!-- Validation Accuracy -->
     <g transform="translate(247.996562 267.148062)scale(0.1 -0.1)">
      <use xlink:href="#DejaVuSans-56"/>
      <use x="60.658203" xlink:href="#DejaVuSans-61"/>
      <use x="121.9375" xlink:href="#DejaVuSans-6c"/>
      <use x="149.720703" xlink:href="#DejaVuSans-69"/>
      <use x="177.503906" xlink:href="#DejaVuSans-64"/>
      <use x="240.980469" xlink:href="#DejaVuSans-61"/>
      <use x="302.259766" xlink:href="#DejaVuSans-74"/>
      <use x="341.46875" xlink:href="#DejaVuSans-69"/>
      <use x="369.251953" xlink:href="#DejaVuSans-6f"/>
      <use x="430.433594" xlink:href="#DejaVuSans-6e"/>
      <use x="493.8125" xlink:href="#DejaVuSans-20"/>
      <use x="525.599609" xlink:href="#DejaVuSans-41"/>
      <use x="592.257812" xlink:href="#DejaVuSans-63"/>
      <use x="647.238281" xlink:href="#DejaVuSans-63"/>
      <use x="702.21875" xlink:href="#DejaVuSans-75"/>
      <use x="765.597656" xlink:href="#DejaVuSans-72"/>
      <use x="806.710938" xlink:href="#DejaVuSans-61"/>
      <use x="867.990234" xlink:href="#DejaVuSans-63"/>
      <use x="922.970703" xlink:href="#DejaVuSans-79"/>
     </g>
    </g>
    <g id="line2d_27">
     <path d="M 219.996562 278.326187 
L 239.996562 278.326187 
" style="fill:none;stroke:#2ca02c;stroke-linecap:square;stroke-width:1.5;"/>
    </g>
    <g id="line2d_28"/>
    <g id="text_24">
     <!-- Robust Validation Accuracy -->
     <g transform="translate(247.996562 281.826187)scale(0.1 -0.1)">
      <defs>
       <path d="M 2841 2188 
Q 3044 2119 3236 1894 
Q 3428 1669 3622 1275 
L 4263 0 
L 3584 0 
L 2988 1197 
Q 2756 1666 2539 1819 
Q 2322 1972 1947 1972 
L 1259 1972 
L 1259 0 
L 628 0 
L 628 4666 
L 2053 4666 
Q 2853 4666 3247 4331 
Q 3641 3997 3641 3322 
Q 3641 2881 3436 2590 
Q 3231 2300 2841 2188 
z
M 1259 4147 
L 1259 2491 
L 2053 2491 
Q 2509 2491 2742 2702 
Q 2975 2913 2975 3322 
Q 2975 3731 2742 3939 
Q 2509 4147 2053 4147 
L 1259 4147 
z
" id="DejaVuSans-52" transform="scale(0.015625)"/>
       <path d="M 3116 1747 
Q 3116 2381 2855 2742 
Q 2594 3103 2138 3103 
Q 1681 3103 1420 2742 
Q 1159 2381 1159 1747 
Q 1159 1113 1420 752 
Q 1681 391 2138 391 
Q 2594 391 2855 752 
Q 3116 1113 3116 1747 
z
M 1159 2969 
Q 1341 3281 1617 3432 
Q 1894 3584 2278 3584 
Q 2916 3584 3314 3078 
Q 3713 2572 3713 1747 
Q 3713 922 3314 415 
Q 2916 -91 2278 -91 
Q 1894 -91 1617 61 
Q 1341 213 1159 525 
L 1159 0 
L 581 0 
L 581 4863 
L 1159 4863 
L 1159 2969 
z
" id="DejaVuSans-62" transform="scale(0.015625)"/>
      </defs>
      <use xlink:href="#DejaVuSans-52"/>
      <use x="64.982422" xlink:href="#DejaVuSans-6f"/>
      <use x="126.164062" xlink:href="#DejaVuSans-62"/>
      <use x="189.640625" xlink:href="#DejaVuSans-75"/>
      <use x="253.019531" xlink:href="#DejaVuSans-73"/>
      <use x="305.119141" xlink:href="#DejaVuSans-74"/>
      <use x="344.328125" xlink:href="#DejaVuSans-20"/>
      <use x="376.115234" xlink:href="#DejaVuSans-56"/>
      <use x="436.773438" xlink:href="#DejaVuSans-61"/>
      <use x="498.052734" xlink:href="#DejaVuSans-6c"/>
      <use x="525.835938" xlink:href="#DejaVuSans-69"/>
      <use x="553.619141" xlink:href="#DejaVuSans-64"/>
      <use x="617.095703" xlink:href="#DejaVuSans-61"/>
      <use x="678.375" xlink:href="#DejaVuSans-74"/>
      <use x="717.583984" xlink:href="#DejaVuSans-69"/>
      <use x="745.367188" xlink:href="#DejaVuSans-6f"/>
      <use x="806.548828" xlink:href="#DejaVuSans-6e"/>
      <use x="869.927734" xlink:href="#DejaVuSans-20"/>
      <use x="901.714844" xlink:href="#DejaVuSans-41"/>
      <use x="968.373047" xlink:href="#DejaVuSans-63"/>
      <use x="1023.353516" xlink:href="#DejaVuSans-63"/>
      <use x="1078.333984" xlink:href="#DejaVuSans-75"/>
      <use x="1141.712891" xlink:href="#DejaVuSans-72"/>
      <use x="1182.826172" xlink:href="#DejaVuSans-61"/>
      <use x="1244.105469" xlink:href="#DejaVuSans-63"/>
      <use x="1299.085938" xlink:href="#DejaVuSans-79"/>
     </g>
    </g>
    <g id="line2d_29">
     <path d="M 219.996562 293.004312 
L 239.996562 293.004312 
" style="fill:none;stroke:#d62728;stroke-linecap:square;stroke-width:1.5;"/>
    </g>
    <g id="line2d_30"/>
    <g id="text_25">
     <!-- Adversarial Validation Accuracy -->
     <g transform="translate(247.996562 296.504312)scale(0.1 -0.1)">
      <defs>
       <path d="M 191 3500 
L 800 3500 
L 1894 563 
L 2988 3500 
L 3597 3500 
L 2284 0 
L 1503 0 
L 191 3500 
z
" id="DejaVuSans-76" transform="scale(0.015625)"/>
       <path d="M 3597 1894 
L 3597 1613 
L 953 1613 
Q 991 1019 1311 708 
Q 1631 397 2203 397 
Q 2534 397 2845 478 
Q 3156 559 3463 722 
L 3463 178 
Q 3153 47 2828 -22 
Q 2503 -91 2169 -91 
Q 1331 -91 842 396 
Q 353 884 353 1716 
Q 353 2575 817 3079 
Q 1281 3584 2069 3584 
Q 2775 3584 3186 3129 
Q 3597 2675 3597 1894 
z
M 3022 2063 
Q 3016 2534 2758 2815 
Q 2500 3097 2075 3097 
Q 1594 3097 1305 2825 
Q 1016 2553 972 2059 
L 3022 2063 
z
" id="DejaVuSans-65" transform="scale(0.015625)"/>
      </defs>
      <use xlink:href="#DejaVuSans-41"/>
      <use x="66.658203" xlink:href="#DejaVuSans-64"/>
      <use x="130.134766" xlink:href="#DejaVuSans-76"/>
      <use x="189.314453" xlink:href="#DejaVuSans-65"/>
      <use x="250.837891" xlink:href="#DejaVuSans-72"/>
      <use x="291.951172" xlink:href="#DejaVuSans-73"/>
      <use x="344.050781" xlink:href="#DejaVuSans-61"/>
      <use x="405.330078" xlink:href="#DejaVuSans-72"/>
      <use x="446.443359" xlink:href="#DejaVuSans-69"/>
      <use x="474.226562" xlink:href="#DejaVuSans-61"/>
      <use x="535.505859" xlink:href="#DejaVuSans-6c"/>
      <use x="563.289062" xlink:href="#DejaVuSans-20"/>
      <use x="595.076172" xlink:href="#DejaVuSans-56"/>
      <use x="655.734375" xlink:href="#DejaVuSans-61"/>
      <use x="717.013672" xlink:href="#DejaVuSans-6c"/>
      <use x="744.796875" xlink:href="#DejaVuSans-69"/>
      <use x="772.580078" xlink:href="#DejaVuSans-64"/>
      <use x="836.056641" xlink:href="#DejaVuSans-61"/>
      <use x="897.335938" xlink:href="#DejaVuSans-74"/>
      <use x="936.544922" xlink:href="#DejaVuSans-69"/>
      <use x="964.328125" xlink:href="#DejaVuSans-6f"/>
      <use x="1025.509766" xlink:href="#DejaVuSans-6e"/>
      <use x="1088.888672" xlink:href="#DejaVuSans-20"/>
      <use x="1120.675781" xlink:href="#DejaVuSans-41"/>
      <use x="1187.333984" xlink:href="#DejaVuSans-63"/>
      <use x="1242.314453" xlink:href="#DejaVuSans-63"/>
      <use x="1297.294922" xlink:href="#DejaVuSans-75"/>
      <use x="1360.673828" xlink:href="#DejaVuSans-72"/>
      <use x="1401.787109" xlink:href="#DejaVuSans-61"/>
      <use x="1463.066406" xlink:href="#DejaVuSans-63"/>
      <use x="1518.046875" xlink:href="#DejaVuSans-79"/>
     </g>
    </g>
   </g>
  </g>
 </g>
 <defs>
  <clipPath id="p15d83ea86a">
   <rect height="266.112" width="357.12" x="57.6" y="41.472"/>
  </clipPath>
 </defs>
</svg>
